<?xml version="1.0" encoding="utf-8" standalone="no"?>
<!DOCTYPE svg PUBLIC "-//W3C//DTD SVG 1.1//EN"
  "http://www.w3.org/Graphics/SVG/1.1/DTD/svg11.dtd">
<!-- Created with matplotlib (https://matplotlib.org/) -->
<svg height="720pt" version="1.1" viewBox="0 0 720 720" width="720pt" xmlns="http://www.w3.org/2000/svg" xmlns:xlink="http://www.w3.org/1999/xlink">
 <defs>
  <style type="text/css">
*{stroke-linecap:butt;stroke-linejoin:round;}
  </style>
 </defs>
 <g id="figure_1">
  <g id="patch_1">
   <path d="M 0 720 
L 720 720 
L 720 0 
L 0 0 
z
" style="fill:#ffffff;"/>
  </g>
  <g id="axes_1">
   <g id="patch_2">
    <path d="M 90 640.8 
L 648 640.8 
L 648 86.4 
L 90 86.4 
z
" style="fill:#ffffff;"/>
   </g>
   <g id="matplotlib.axis_1">
    <g id="xtick_1">
     <g id="line2d_1">
      <path clip-path="url(#p3b6863dc7f)" d="M 164.281901 640.8 
L 164.281901 86.4 
" style="fill:none;stroke:#cccccc;stroke-linecap:round;stroke-width:0.8;"/>
     </g>
     <g id="line2d_2"/>
     <g id="text_1">
      <!-- 2015 -->
      <defs>
       <path d="M 19.1875 8.296875 
L 53.609375 8.296875 
L 53.609375 0 
L 7.328125 0 
L 7.328125 8.296875 
Q 12.9375 14.109375 22.625 23.890625 
Q 32.328125 33.6875 34.8125 36.53125 
Q 39.546875 41.84375 41.421875 45.53125 
Q 43.3125 49.21875 43.3125 52.78125 
Q 43.3125 58.59375 39.234375 62.25 
Q 35.15625 65.921875 28.609375 65.921875 
Q 23.96875 65.921875 18.8125 64.3125 
Q 13.671875 62.703125 7.8125 59.421875 
L 7.8125 69.390625 
Q 13.765625 71.78125 18.9375 73 
Q 24.125 74.21875 28.421875 74.21875 
Q 39.75 74.21875 46.484375 68.546875 
Q 53.21875 62.890625 53.21875 53.421875 
Q 53.21875 48.921875 51.53125 44.890625 
Q 49.859375 40.875 45.40625 35.40625 
Q 44.1875 33.984375 37.640625 27.21875 
Q 31.109375 20.453125 19.1875 8.296875 
z
" id="DejaVuSans-50"/>
       <path d="M 31.78125 66.40625 
Q 24.171875 66.40625 20.328125 58.90625 
Q 16.5 51.421875 16.5 36.375 
Q 16.5 21.390625 20.328125 13.890625 
Q 24.171875 6.390625 31.78125 6.390625 
Q 39.453125 6.390625 43.28125 13.890625 
Q 47.125 21.390625 47.125 36.375 
Q 47.125 51.421875 43.28125 58.90625 
Q 39.453125 66.40625 31.78125 66.40625 
z
M 31.78125 74.21875 
Q 44.046875 74.21875 50.515625 64.515625 
Q 56.984375 54.828125 56.984375 36.375 
Q 56.984375 17.96875 50.515625 8.265625 
Q 44.046875 -1.421875 31.78125 -1.421875 
Q 19.53125 -1.421875 13.0625 8.265625 
Q 6.59375 17.96875 6.59375 36.375 
Q 6.59375 54.828125 13.0625 64.515625 
Q 19.53125 74.21875 31.78125 74.21875 
z
" id="DejaVuSans-48"/>
       <path d="M 12.40625 8.296875 
L 28.515625 8.296875 
L 28.515625 63.921875 
L 10.984375 60.40625 
L 10.984375 69.390625 
L 28.421875 72.90625 
L 38.28125 72.90625 
L 38.28125 8.296875 
L 54.390625 8.296875 
L 54.390625 0 
L 12.40625 0 
z
" id="DejaVuSans-49"/>
       <path d="M 10.796875 72.90625 
L 49.515625 72.90625 
L 49.515625 64.59375 
L 19.828125 64.59375 
L 19.828125 46.734375 
Q 21.96875 47.46875 24.109375 47.828125 
Q 26.265625 48.1875 28.421875 48.1875 
Q 40.625 48.1875 47.75 41.5 
Q 54.890625 34.8125 54.890625 23.390625 
Q 54.890625 11.625 47.5625 5.09375 
Q 40.234375 -1.421875 26.90625 -1.421875 
Q 22.3125 -1.421875 17.546875 -0.640625 
Q 12.796875 0.140625 7.71875 1.703125 
L 7.71875 11.625 
Q 12.109375 9.234375 16.796875 8.0625 
Q 21.484375 6.890625 26.703125 6.890625 
Q 35.15625 6.890625 40.078125 11.328125 
Q 45.015625 15.765625 45.015625 23.390625 
Q 45.015625 31 40.078125 35.4375 
Q 35.15625 39.890625 26.703125 39.890625 
Q 22.75 39.890625 18.8125 39.015625 
Q 14.890625 38.140625 10.796875 36.28125 
z
" id="DejaVuSans-53"/>
      </defs>
      <g style="fill:#262626;" transform="translate(151.556901 651.898438)scale(0.1 -0.1)">
       <use xlink:href="#DejaVuSans-50"/>
       <use x="63.623047" xlink:href="#DejaVuSans-48"/>
       <use x="127.246094" xlink:href="#DejaVuSans-49"/>
       <use x="190.869141" xlink:href="#DejaVuSans-53"/>
      </g>
     </g>
    </g>
    <g id="xtick_2">
     <g id="line2d_3">
      <path clip-path="url(#p3b6863dc7f)" d="M 250.171864 640.8 
L 250.171864 86.4 
" style="fill:none;stroke:#cccccc;stroke-linecap:round;stroke-width:0.8;"/>
     </g>
     <g id="line2d_4"/>
     <g id="text_2">
      <!-- 2016 -->
      <defs>
       <path d="M 33.015625 40.375 
Q 26.375 40.375 22.484375 35.828125 
Q 18.609375 31.296875 18.609375 23.390625 
Q 18.609375 15.53125 22.484375 10.953125 
Q 26.375 6.390625 33.015625 6.390625 
Q 39.65625 6.390625 43.53125 10.953125 
Q 47.40625 15.53125 47.40625 23.390625 
Q 47.40625 31.296875 43.53125 35.828125 
Q 39.65625 40.375 33.015625 40.375 
z
M 52.59375 71.296875 
L 52.59375 62.3125 
Q 48.875 64.0625 45.09375 64.984375 
Q 41.3125 65.921875 37.59375 65.921875 
Q 27.828125 65.921875 22.671875 59.328125 
Q 17.53125 52.734375 16.796875 39.40625 
Q 19.671875 43.65625 24.015625 45.921875 
Q 28.375 48.1875 33.59375 48.1875 
Q 44.578125 48.1875 50.953125 41.515625 
Q 57.328125 34.859375 57.328125 23.390625 
Q 57.328125 12.15625 50.6875 5.359375 
Q 44.046875 -1.421875 33.015625 -1.421875 
Q 20.359375 -1.421875 13.671875 8.265625 
Q 6.984375 17.96875 6.984375 36.375 
Q 6.984375 53.65625 15.1875 63.9375 
Q 23.390625 74.21875 37.203125 74.21875 
Q 40.921875 74.21875 44.703125 73.484375 
Q 48.484375 72.75 52.59375 71.296875 
z
" id="DejaVuSans-54"/>
      </defs>
      <g style="fill:#262626;" transform="translate(237.446864 651.898438)scale(0.1 -0.1)">
       <use xlink:href="#DejaVuSans-50"/>
       <use x="63.623047" xlink:href="#DejaVuSans-48"/>
       <use x="127.246094" xlink:href="#DejaVuSans-49"/>
       <use x="190.869141" xlink:href="#DejaVuSans-54"/>
      </g>
     </g>
    </g>
    <g id="xtick_3">
     <g id="line2d_5">
      <path clip-path="url(#p3b6863dc7f)" d="M 336.297143 640.8 
L 336.297143 86.4 
" style="fill:none;stroke:#cccccc;stroke-linecap:round;stroke-width:0.8;"/>
     </g>
     <g id="line2d_6"/>
     <g id="text_3">
      <!-- 2017 -->
      <defs>
       <path d="M 8.203125 72.90625 
L 55.078125 72.90625 
L 55.078125 68.703125 
L 28.609375 0 
L 18.3125 0 
L 43.21875 64.59375 
L 8.203125 64.59375 
z
" id="DejaVuSans-55"/>
      </defs>
      <g style="fill:#262626;" transform="translate(323.572143 651.898438)scale(0.1 -0.1)">
       <use xlink:href="#DejaVuSans-50"/>
       <use x="63.623047" xlink:href="#DejaVuSans-48"/>
       <use x="127.246094" xlink:href="#DejaVuSans-49"/>
       <use x="190.869141" xlink:href="#DejaVuSans-55"/>
      </g>
     </g>
    </g>
    <g id="xtick_4">
     <g id="line2d_7">
      <path clip-path="url(#p3b6863dc7f)" d="M 422.187107 640.8 
L 422.187107 86.4 
" style="fill:none;stroke:#cccccc;stroke-linecap:round;stroke-width:0.8;"/>
     </g>
     <g id="line2d_8"/>
     <g id="text_4">
      <!-- 2018 -->
      <defs>
       <path d="M 31.78125 34.625 
Q 24.75 34.625 20.71875 30.859375 
Q 16.703125 27.09375 16.703125 20.515625 
Q 16.703125 13.921875 20.71875 10.15625 
Q 24.75 6.390625 31.78125 6.390625 
Q 38.8125 6.390625 42.859375 10.171875 
Q 46.921875 13.96875 46.921875 20.515625 
Q 46.921875 27.09375 42.890625 30.859375 
Q 38.875 34.625 31.78125 34.625 
z
M 21.921875 38.8125 
Q 15.578125 40.375 12.03125 44.71875 
Q 8.5 49.078125 8.5 55.328125 
Q 8.5 64.0625 14.71875 69.140625 
Q 20.953125 74.21875 31.78125 74.21875 
Q 42.671875 74.21875 48.875 69.140625 
Q 55.078125 64.0625 55.078125 55.328125 
Q 55.078125 49.078125 51.53125 44.71875 
Q 48 40.375 41.703125 38.8125 
Q 48.828125 37.15625 52.796875 32.3125 
Q 56.78125 27.484375 56.78125 20.515625 
Q 56.78125 9.90625 50.3125 4.234375 
Q 43.84375 -1.421875 31.78125 -1.421875 
Q 19.734375 -1.421875 13.25 4.234375 
Q 6.78125 9.90625 6.78125 20.515625 
Q 6.78125 27.484375 10.78125 32.3125 
Q 14.796875 37.15625 21.921875 38.8125 
z
M 18.3125 54.390625 
Q 18.3125 48.734375 21.84375 45.5625 
Q 25.390625 42.390625 31.78125 42.390625 
Q 38.140625 42.390625 41.71875 45.5625 
Q 45.3125 48.734375 45.3125 54.390625 
Q 45.3125 60.0625 41.71875 63.234375 
Q 38.140625 66.40625 31.78125 66.40625 
Q 25.390625 66.40625 21.84375 63.234375 
Q 18.3125 60.0625 18.3125 54.390625 
z
" id="DejaVuSans-56"/>
      </defs>
      <g style="fill:#262626;" transform="translate(409.462107 651.898438)scale(0.1 -0.1)">
       <use xlink:href="#DejaVuSans-50"/>
       <use x="63.623047" xlink:href="#DejaVuSans-48"/>
       <use x="127.246094" xlink:href="#DejaVuSans-49"/>
       <use x="190.869141" xlink:href="#DejaVuSans-56"/>
      </g>
     </g>
    </g>
    <g id="xtick_5">
     <g id="line2d_9">
      <path clip-path="url(#p3b6863dc7f)" d="M 508.07707 640.8 
L 508.07707 86.4 
" style="fill:none;stroke:#cccccc;stroke-linecap:round;stroke-width:0.8;"/>
     </g>
     <g id="line2d_10"/>
     <g id="text_5">
      <!-- 2019 -->
      <defs>
       <path d="M 10.984375 1.515625 
L 10.984375 10.5 
Q 14.703125 8.734375 18.5 7.8125 
Q 22.3125 6.890625 25.984375 6.890625 
Q 35.75 6.890625 40.890625 13.453125 
Q 46.046875 20.015625 46.78125 33.40625 
Q 43.953125 29.203125 39.59375 26.953125 
Q 35.25 24.703125 29.984375 24.703125 
Q 19.046875 24.703125 12.671875 31.3125 
Q 6.296875 37.9375 6.296875 49.421875 
Q 6.296875 60.640625 12.9375 67.421875 
Q 19.578125 74.21875 30.609375 74.21875 
Q 43.265625 74.21875 49.921875 64.515625 
Q 56.59375 54.828125 56.59375 36.375 
Q 56.59375 19.140625 48.40625 8.859375 
Q 40.234375 -1.421875 26.421875 -1.421875 
Q 22.703125 -1.421875 18.890625 -0.6875 
Q 15.09375 0.046875 10.984375 1.515625 
z
M 30.609375 32.421875 
Q 37.25 32.421875 41.125 36.953125 
Q 45.015625 41.5 45.015625 49.421875 
Q 45.015625 57.28125 41.125 61.84375 
Q 37.25 66.40625 30.609375 66.40625 
Q 23.96875 66.40625 20.09375 61.84375 
Q 16.21875 57.28125 16.21875 49.421875 
Q 16.21875 41.5 20.09375 36.953125 
Q 23.96875 32.421875 30.609375 32.421875 
z
" id="DejaVuSans-57"/>
      </defs>
      <g style="fill:#262626;" transform="translate(495.35207 651.898438)scale(0.1 -0.1)">
       <use xlink:href="#DejaVuSans-50"/>
       <use x="63.623047" xlink:href="#DejaVuSans-48"/>
       <use x="127.246094" xlink:href="#DejaVuSans-49"/>
       <use x="190.869141" xlink:href="#DejaVuSans-57"/>
      </g>
     </g>
    </g>
    <g id="xtick_6">
     <g id="line2d_11">
      <path clip-path="url(#p3b6863dc7f)" d="M 593.967034 640.8 
L 593.967034 86.4 
" style="fill:none;stroke:#cccccc;stroke-linecap:round;stroke-width:0.8;"/>
     </g>
     <g id="line2d_12"/>
     <g id="text_6">
      <!-- 2020 -->
      <g style="fill:#262626;" transform="translate(581.242034 651.898438)scale(0.1 -0.1)">
       <use xlink:href="#DejaVuSans-50"/>
       <use x="63.623047" xlink:href="#DejaVuSans-48"/>
       <use x="127.246094" xlink:href="#DejaVuSans-50"/>
       <use x="190.869141" xlink:href="#DejaVuSans-48"/>
      </g>
     </g>
    </g>
   </g>
   <g id="matplotlib.axis_2">
    <g id="ytick_1">
     <g id="line2d_13">
      <path clip-path="url(#p3b6863dc7f)" d="M 90 615.605789 
L 648 615.605789 
" style="fill:none;stroke:#cccccc;stroke-linecap:round;stroke-width:0.8;"/>
     </g>
     <g id="line2d_14"/>
     <g id="text_7">
      <!-- 0 -->
      <g style="fill:#262626;" transform="translate(80.1375 619.405007)scale(0.1 -0.1)">
       <use xlink:href="#DejaVuSans-48"/>
      </g>
     </g>
    </g>
    <g id="ytick_2">
     <g id="line2d_15">
      <path clip-path="url(#p3b6863dc7f)" d="M 90 499.835537 
L 648 499.835537 
" style="fill:none;stroke:#cccccc;stroke-linecap:round;stroke-width:0.8;"/>
     </g>
     <g id="line2d_16"/>
     <g id="text_8">
      <!-- 20000 -->
      <g style="fill:#262626;" transform="translate(54.6875 503.634756)scale(0.1 -0.1)">
       <use xlink:href="#DejaVuSans-50"/>
       <use x="63.623047" xlink:href="#DejaVuSans-48"/>
       <use x="127.246094" xlink:href="#DejaVuSans-48"/>
       <use x="190.869141" xlink:href="#DejaVuSans-48"/>
       <use x="254.492188" xlink:href="#DejaVuSans-48"/>
      </g>
     </g>
    </g>
    <g id="ytick_3">
     <g id="line2d_17">
      <path clip-path="url(#p3b6863dc7f)" d="M 90 384.065286 
L 648 384.065286 
" style="fill:none;stroke:#cccccc;stroke-linecap:round;stroke-width:0.8;"/>
     </g>
     <g id="line2d_18"/>
     <g id="text_9">
      <!-- 40000 -->
      <defs>
       <path d="M 37.796875 64.3125 
L 12.890625 25.390625 
L 37.796875 25.390625 
z
M 35.203125 72.90625 
L 47.609375 72.90625 
L 47.609375 25.390625 
L 58.015625 25.390625 
L 58.015625 17.1875 
L 47.609375 17.1875 
L 47.609375 0 
L 37.796875 0 
L 37.796875 17.1875 
L 4.890625 17.1875 
L 4.890625 26.703125 
z
" id="DejaVuSans-52"/>
      </defs>
      <g style="fill:#262626;" transform="translate(54.6875 387.864505)scale(0.1 -0.1)">
       <use xlink:href="#DejaVuSans-52"/>
       <use x="63.623047" xlink:href="#DejaVuSans-48"/>
       <use x="127.246094" xlink:href="#DejaVuSans-48"/>
       <use x="190.869141" xlink:href="#DejaVuSans-48"/>
       <use x="254.492188" xlink:href="#DejaVuSans-48"/>
      </g>
     </g>
    </g>
    <g id="ytick_4">
     <g id="line2d_19">
      <path clip-path="url(#p3b6863dc7f)" d="M 90 268.295035 
L 648 268.295035 
" style="fill:none;stroke:#cccccc;stroke-linecap:round;stroke-width:0.8;"/>
     </g>
     <g id="line2d_20"/>
     <g id="text_10">
      <!-- 60000 -->
      <g style="fill:#262626;" transform="translate(54.6875 272.094254)scale(0.1 -0.1)">
       <use xlink:href="#DejaVuSans-54"/>
       <use x="63.623047" xlink:href="#DejaVuSans-48"/>
       <use x="127.246094" xlink:href="#DejaVuSans-48"/>
       <use x="190.869141" xlink:href="#DejaVuSans-48"/>
       <use x="254.492188" xlink:href="#DejaVuSans-48"/>
      </g>
     </g>
    </g>
    <g id="ytick_5">
     <g id="line2d_21">
      <path clip-path="url(#p3b6863dc7f)" d="M 90 152.524784 
L 648 152.524784 
" style="fill:none;stroke:#cccccc;stroke-linecap:round;stroke-width:0.8;"/>
     </g>
     <g id="line2d_22"/>
     <g id="text_11">
      <!-- 80000 -->
      <g style="fill:#262626;" transform="translate(54.6875 156.324003)scale(0.1 -0.1)">
       <use xlink:href="#DejaVuSans-56"/>
       <use x="63.623047" xlink:href="#DejaVuSans-48"/>
       <use x="127.246094" xlink:href="#DejaVuSans-48"/>
       <use x="190.869141" xlink:href="#DejaVuSans-48"/>
       <use x="254.492188" xlink:href="#DejaVuSans-48"/>
      </g>
     </g>
    </g>
   </g>
   <g id="line2d_23">
    <path clip-path="url(#p3b6863dc7f)" d="M 115.363636 615.6 
L 116.713081 615.28742 
L 116.799028 615.183227 
L 117.505536 615.044303 
L 117.634663 614.997995 
L 118.559647 614.754877 
L 118.579087 614.737512 
L 119.513849 614.604376 
L 119.623875 614.488606 
L 120.258983 614.35547 
L 120.336305 614.309162 
L 121.167568 614.164449 
L 121.270965 614.048679 
L 123.094346 613.840292 
L 123.550655 613.689791 
L 123.626852 613.649271 
L 124.276365 613.510347 
L 124.352614 613.464039 
L 124.751045 613.313538 
L 124.757394 613.296172 
L 125.190087 613.168825 
L 125.513291 613.105151 
L 126.301373 612.948861 
L 126.406483 612.879399 
L 126.652899 612.763629 
L 126.755713 612.723109 
L 127.606668 612.422107 
L 127.632542 612.41053 
L 128.026923 612.277394 
L 128.06437 612.248451 
L 128.512029 612.115315 
L 128.519029 612.09795 
L 129.183224 611.98218 
L 129.463265 611.779582 
L 130.110755 611.646446 
L 130.159253 611.594349 
L 131.068361 611.461214 
L 131.580931 611.264404 
L 132.453797 611.12548 
L 132.614996 611.003921 
L 133.023671 610.841843 
L 133.03517 610.824477 
L 134.110028 610.662399 
L 134.21239 610.575571 
L 134.391553 610.454012 
L 134.456864 610.413493 
L 134.79151 610.286145 
L 134.931574 610.170375 
L 136.258895 609.944623 
L 136.345956 609.892527 
L 136.723064 609.759391 
L 136.80135 609.718871 
L 137.49596 609.579947 
L 138.337023 609.232636 
L 139.976318 608.902691 
L 141.424077 608.485918 
L 141.836584 608.375936 
L 142.55689 608.237012 
L 142.66788 608.196492 
L 143.052653 608.069145 
L 143.14359 607.993894 
L 144.242168 607.606064 
L 144.33062 607.530813 
L 144.678306 607.403466 
L 144.980757 607.131406 
L 145.865765 606.992482 
L 145.927172 606.92302 
L 146.152097 606.807249 
L 146.219728 606.784095 
L 146.561553 606.656748 
L 146.698227 606.49467 
L 147.320387 606.378899 
L 148.211258 606.014223 
L 149.181742 605.817414 
L 149.250702 605.765317 
L 149.652636 605.63797 
L 149.740345 605.527988 
L 150.561497 605.36591 
L 150.647297 605.267505 
L 151.049097 605.140158 
L 151.143332 605.007022 
L 151.348789 604.885463 
L 151.591384 604.78127 
L 152.283166 604.648134 
L 152.340396 604.596038 
L 152.531211 604.474479 
L 152.965528 604.289246 
L 153.058962 604.231361 
L 153.229146 604.115591 
L 153.273297 604.069283 
L 153.883496 603.941936 
L 153.990417 603.814588 
L 154.392678 603.675664 
L 154.432207 603.640933 
L 154.649498 603.525163 
L 154.765744 603.490432 
L 154.902096 603.415181 
L 155.542431 603.299411 
L 155.82059 603.114178 
L 157.168169 602.946312 
L 157.237992 602.865272 
L 157.465229 602.726348 
L 157.52606 602.656886 
L 157.854289 602.52375 
L 158.2304 602.332729 
L 159.063663 602.188016 
L 159.123816 602.02015 
L 159.506916 601.892802 
L 159.620088 601.730724 
L 159.837103 601.609165 
L 160.519054 601.389202 
L 160.541221 601.360259 
L 160.749303 601.2387 
L 160.76818 601.076622 
L 161.045271 600.955063 
L 161.230862 600.781408 
L 161.627469 600.561444 
L 162.164006 600.445674 
L 162.206167 600.405155 
L 163.991821 600.208345 
L 164.201044 600.156248 
L 165.443126 600.03469 
L 165.513821 599.947862 
L 165.693554 599.832092 
L 166.205835 599.363222 
L 166.399003 599.247452 
L 166.419517 599.201144 
L 167.085965 599.085374 
L 167.167884 598.992757 
L 167.356294 598.876987 
L 167.41382 598.859622 
L 167.55407 598.738063 
L 167.834688 598.350233 
L 168.033064 598.234462 
L 168.06625 598.20552 
L 168.964916 598.083961 
L 169.233388 597.742439 
L 169.436609 597.626669 
L 169.776432 597.371974 
L 170.451579 597.250415 
L 170.463848 597.180953 
L 170.602494 597.065183 
L 170.697453 596.903104 
L 170.833895 596.787334 
L 171.194183 596.440023 
L 171.314384 596.318465 
L 171.353412 596.272157 
L 172.002228 596.150598 
L 172.104244 595.982731 
L 172.250169 595.866961 
L 172.363853 595.704882 
L 172.499748 595.577535 
L 173.057294 594.923433 
L 173.682396 594.796086 
L 173.919721 594.616642 
L 173.984239 594.581911 
L 174.139248 594.466141 
L 174.212048 594.315639 
L 174.358897 594.199869 
L 174.46983 594.089887 
L 174.60105 593.968329 
L 174.727837 593.875712 
L 175.518043 593.759942 
L 175.624292 593.528402 
L 175.798518 593.406843 
L 175.878315 593.30265 
L 176.006118 593.186879 
L 176.124886 593.036378 
L 176.28167 592.712221 
L 176.293801 592.689067 
L 176.934906 592.550143 
L 177.009235 592.399642 
L 177.350918 592.278083 
L 177.677426 592.052331 
L 177.778938 591.948138 
L 177.930493 591.815002 
L 178.018761 591.722386 
L 178.586033 591.577673 
L 178.689988 591.404018 
L 178.870865 591.224574 
L 178.945844 591.195631 
L 179.055255 591.079861 
L 179.26182 590.84832 
L 179.482905 590.61678 
L 179.587987 590.391028 
L 179.770354 590.367874 
L 180.230694 590.246315 
L 180.330109 590.055294 
L 180.446468 589.939524 
L 180.568703 589.64431 
L 180.686641 589.522751 
L 180.791242 589.21596 
L 180.925696 589.071247 
L 181.227893 588.544492 
L 181.858191 588.422934 
L 181.932552 588.121931 
L 182.103101 588.000372 
L 182.179546 587.826717 
L 182.353194 587.710946 
L 182.85627 587.07421 
L 182.918048 586.981594 
L 183.537651 586.848458 
L 183.619902 586.680591 
L 183.73476 586.564821 
L 183.859616 586.292761 
L 183.991496 586.136471 
L 184.140962 585.875988 
L 184.224234 585.742852 
L 184.379444 585.395541 
L 184.47732 585.273983 
L 184.531909 585.12927 
L 184.662756 585.094539 
L 185.153726 584.97298 
L 185.551389 584.318878 
L 185.669455 584.179954 
L 185.959987 583.618468 
L 186.14094 583.491121 
L 186.177346 583.398505 
L 186.836631 583.265369 
L 187.112886 582.808076 
L 187.308794 582.686518 
L 187.879678 581.980319 
L 188.455347 581.841395 
L 188.528366 581.667739 
L 188.704713 581.546181 
L 188.81573 581.372525 
L 188.980503 581.187293 
L 189.222719 580.915233 
L 189.331127 580.828405 
L 189.418608 580.631596 
L 189.481419 580.49846 
L 190.111167 580.365324 
L 190.25402 580.006436 
L 190.365424 579.8733 
L 190.426965 579.745953 
L 190.56914 579.630183 
L 190.729051 579.387065 
L 190.836097 579.248141 
L 190.941458 579.05712 
L 191.049273 578.923984 
L 191.159432 578.802426 
L 191.742757 578.686655 
L 192.001672 578.194632 
L 192.046431 578.061496 
L 192.354432 577.748916 
L 192.460193 577.627358 
L 192.944884 577.141123 
L 193.354964 577.013775 
L 193.461562 576.689619 
L 193.655958 576.475444 
L 193.782968 576.261269 
L 193.900664 576.13971 
L 194.017169 576.006574 
L 194.236431 575.693994 
L 194.368268 575.572436 
L 194.429804 575.497185 
L 195.012783 575.358261 
L 195.320896 574.767832 
L 195.541817 574.530503 
L 195.680435 574.374214 
L 195.771633 574.229501 
L 195.839803 574.067422 
L 195.992162 573.945864 
L 196.09244 573.760631 
L 196.673025 573.633284 
L 196.785448 573.193357 
L 196.9882 572.950239 
L 196.989992 572.944451 
L 197.384948 572.817104 
L 197.496843 572.492947 
L 197.659692 572.319292 
L 197.744732 572.16879 
L 198.554396 572.035654 
L 198.64588 571.867788 
L 198.748046 571.78096 
L 198.845761 571.62467 
L 198.959886 571.46838 
L 199.08033 571.323667 
L 199.093972 571.150012 
L 199.209941 570.958991 
L 199.323146 570.773759 
L 199.408597 570.686931 
L 199.98565 570.542218 
L 200.087731 570.316466 
L 200.23427 570.189119 
L 200.303527 570.038618 
L 200.404483 569.91127 
L 200.473436 569.772346 
L 200.572464 569.540806 
L 200.707141 569.40767 
L 200.817845 569.21086 
L 200.942317 569.037205 
L 201.067127 568.909858 
L 201.649918 568.689894 
L 201.897696 568.348372 
L 202.062803 568.203659 
L 202.134171 568.070523 
L 202.244475 567.925811 
L 202.344282 567.804252 
L 202.449204 567.590077 
L 202.607181 567.445364 
L 202.684734 567.196458 
L 203.278017 567.069111 
L 203.412988 566.854936 
L 203.549073 566.733377 
L 203.699165 566.507625 
L 203.780624 566.368701 
L 204.025915 565.975082 
L 204.147843 565.74933 
L 204.233624 565.59304 
L 204.335924 565.378865 
L 205.182208 565.043131 
L 205.347579 564.881053 
L 205.424588 564.759494 
L 205.574558 564.574262 
L 205.638588 564.446915 
L 205.723002 564.331144 
L 205.890533 564.198008 
L 205.994233 564.047507 
L 206.580205 563.914371 
L 206.703119 563.694408 
L 206.86233 563.480233 
L 207.008236 563.277635 
L 207.082382 563.138711 
L 207.187034 562.988209 
L 207.856481 562.837708 
L 208.230953 562.716149 
L 208.616891 562.067836 
L 208.703165 561.952066 
L 208.813774 561.54687 
L 208.926355 561.338483 
L 208.98282 561.205347 
L 209.552168 560.695958 
L 209.863914 560.5744 
L 210.028539 560.227089 
L 210.120053 560.10553 
L 210.263001 559.781373 
L 210.382119 559.642449 
L 210.485453 559.526679 
L 210.719681 559.231465 
L 210.930185 558.907308 
L 211.559061 558.374765 
L 211.653427 558.172167 
L 212.04137 558.033243 
L 212.153308 557.882741 
L 212.287481 557.558585 
L 212.388868 557.373352 
L 212.451776 557.234428 
L 212.539706 556.91606 
L 213.201859 556.667154 
L 213.279954 556.551383 
L 213.626802 556.418248 
L 213.75257 556.111456 
L 214.218175 555.486297 
L 214.813715 555.370527 
L 214.918348 555.138986 
L 215.108763 555.000062 
L 215.212443 554.832195 
L 215.327647 554.710636 
L 215.443403 554.554347 
L 215.564318 554.398057 
L 215.721816 554.23019 
L 215.871527 554.062323 
L 215.874868 554.056534 
L 216.413138 553.923399 
L 216.534091 553.570299 
L 216.690365 553.425587 
L 216.812825 553.25772 
L 216.918967 553.10143 
L 217.021465 552.927775 
L 217.153293 552.794639 
L 217.270128 552.620983 
L 217.457713 552.429962 
L 217.514336 552.377866 
L 218.020127 552.262096 
L 218.120492 552.12896 
L 218.231793 551.97267 
L 218.353601 551.787438 
L 218.460642 551.70061 
L 218.619019 551.416973 
L 218.749094 551.179644 
L 218.853656 551.052296 
L 219.00623 550.820756 
L 219.428734 550.57185 
L 219.753978 550.450291 
L 219.859985 550.270847 
L 220.023518 550.108769 
L 220.140658 549.495187 
L 220.309033 549.089991 
L 220.736655 548.482197 
L 221.630798 548.00175 
L 221.742673 547.799152 
L 221.955078 547.515515 
L 222.164165 547.312917 
L 222.307168 547.133473 
L 222.361818 547.000338 
L 222.440445 546.896144 
L 223.185257 546.751432 
L 223.341685 546.589353 
L 223.45091 546.473583 
L 223.571327 546.305716 
L 223.691958 546.184157 
L 223.839251 545.998925 
L 224.416047 545.686345 
L 224.71804 545.558998 
L 224.99901 545.211687 
L 225.119609 545.003301 
L 225.231155 544.835434 
L 225.636406 544.192909 
L 225.987221 543.949792 
L 226.586147 543.486711 
L 227.311421 542.525817 
L 227.422615 542.381105 
L 228.031131 542.247969 
L 228.214687 542.068525 
L 228.330313 541.81383 
L 228.483104 541.547559 
L 228.583947 541.391269 
L 228.760975 541.188671 
L 229.189662 540.598243 
L 229.638147 540.465107 
L 229.818383 539.920987 
L 229.936256 539.782063 
L 230.141288 539.538945 
L 230.248822 539.376867 
L 230.363276 539.16848 
L 230.47059 538.913786 
L 230.868359 538.381242 
L 231.295421 538.265472 
L 231.411256 537.987624 
L 231.568037 537.773449 
L 231.77235 537.443503 
L 232.005388 537.073039 
L 232.121951 536.841498 
L 232.258619 536.598381 
L 232.528564 536.384206 
L 232.895764 536.233704 
L 234.144001 534.502939 
L 234.567933 534.248244 
L 234.668007 533.970396 
L 234.794148 533.831472 
L 234.861521 533.663605 
L 234.981559 533.40891 
L 235.325475 532.696923 
L 235.441896 532.511691 
L 235.817902 532.094918 
L 236.276183 531.967571 
L 236.405683 531.77655 
L 237.410851 530.775137 
L 237.898105 530.566751 
L 238.008055 530.439403 
L 238.197157 530.231017 
L 238.39084 530.097881 
L 238.817599 529.640588 
L 238.904395 529.47851 
L 239.522007 529.351163 
L 239.600132 529.235393 
L 239.692183 529.113834 
L 239.794156 528.980698 
L 240.042132 528.783889 
L 240.131846 528.66233 
L 240.224175 528.540771 
L 240.608163 528.129787 
L 241.060352 527.96192 
L 241.13928 527.788264 
L 241.569536 527.278875 
L 241.684408 527.111009 
L 241.79905 527.029969 
L 242.087177 526.79264 
L 242.1611 526.723178 
L 242.762706 526.578465 
L 243.350369 525.74492 
L 243.595541 525.247107 
L 243.76567 525.113972 
L 243.862073 524.96347 
L 244.258375 524.760872 
L 244.368442 524.73193 
L 244.596136 524.53512 
L 244.767431 524.413562 
L 245.051217 523.985212 
L 245.170803 523.782614 
L 245.392043 523.56265 
L 246.150934 523.128512 
L 246.252481 522.943279 
L 246.305784 522.78699 
L 247.035383 521.895559 
L 247.091788 521.768211 
L 247.217112 521.669807 
L 248.128908 521.050436 
L 248.235435 520.95782 
L 248.736841 520.847838 
L 249.502911 520.726279 
L 249.819497 520.569989 
L 250.291412 520.442642 
L 251.02505 520.297929 
L 252.142031 519.510692 
L 252.606141 519.377556 
L 253.62256 518.410874 
L 253.904131 518.190911 
L 253.982788 518.161968 
L 254.378539 518.017255 
L 254.546729 517.988313 
L 254.888772 517.722041 
L 255.001012 517.612059 
L 255.06129 517.467347 
L 255.173157 517.085305 
L 255.30142 516.952169 
L 255.409322 516.801668 
L 255.942956 516.656955 
L 256.039645 516.494876 
L 256.141034 516.315433 
L 256.260947 516.147566 
L 256.359774 516.002853 
L 256.601579 515.811832 
L 256.781214 515.406636 
L 256.943306 515.238769 
L 257.05919 515.018806 
L 257.198772 514.84515 
L 257.274708 514.712015 
L 257.599778 514.549936 
L 257.683821 514.387858 
L 258.481062 513.131751 
L 258.589035 512.963884 
L 259.560746 511.730931 
L 259.690853 511.510967 
L 259.777691 511.3431 
L 260.095886 510.741095 
L 260.22869 510.596382 
L 260.358238 510.330111 
L 260.549353 510.196975 
L 260.808147 510.040685 
L 260.980249 509.849664 
L 262.911299 507.192737 
L 263.020982 506.990139 
L 263.097571 506.799118 
L 263.27238 506.48075 
L 263.485321 506.214478 
L 263.595962 505.73982 
L 263.823613 505.502491 
L 264.269462 505.1957 
L 264.375484 504.946794 
L 264.488577 504.680522 
L 264.611254 504.466347 
L 264.761194 504.200076 
L 264.860007 504.043786 
L 264.970314 503.893285 
L 265.080451 503.574916 
L 265.581196 502.735582 
L 265.801961 502.608235 
L 267.248111 501.114799 
L 267.561317 500.964297 
L 267.872733 500.512793 
L 267.997553 500.356503 
L 268.108053 500.25231 
L 268.234748 500.090232 
L 268.44393 499.713979 
L 269.239297 499.262475 
L 269.361304 499.146704 
L 269.647471 498.903587 
L 269.872523 498.758874 
L 270.068606 498.57943 
L 270.177943 498.492602 
L 270.847555 498.313159 
L 271.309993 498.03531 
L 271.399682 497.91954 
L 271.556717 497.792192 
L 271.741208 497.693788 
L 272.208297 497.398574 
L 272.570723 497.271226 
L 272.884642 497.109148 
L 272.987451 496.90655 
L 273.09724 496.837088 
L 273.914706 496.414526 
L 274.28892 496.281391 
L 276.236933 494.243834 
L 276.406659 494.041236 
L 276.949452 493.670771 
L 277.445648 493.468174 
L 277.547841 493.13244 
L 277.680212 493.010881 
L 278.089447 492.542012 
L 278.364692 492.362568 
L 278.470075 492.269951 
L 279.073017 492.131027 
L 280.0293 491.065941 
L 280.111647 490.776515 
L 280.579812 490.614437 
L 280.831629 490.272915 
L 280.968223 490.17451 
L 281.028253 490.041374 
L 281.154084 489.954546 
L 281.900485 489.121001 
L 282.066989 488.999442 
L 282.150284 488.964711 
L 282.273892 488.831575 
L 282.387453 488.686862 
L 282.563994 488.356917 
L 283.079257 487.482852 
L 283.23072 487.280254 
L 283.34168 487.141329 
L 284.727778 485.451084 
L 285.63486 484.189188 
L 286.032153 483.853454 
L 286.142715 483.645068 
L 286.456931 483.100948 
L 286.602304 482.886773 
L 286.796401 482.632078 
L 287.295211 482.325287 
L 287.411896 482.082169 
L 287.554692 481.949034 
L 287.670266 481.740647 
L 287.917592 481.347028 
L 288.028157 481.138642 
L 288.51128 480.542425 
L 288.968565 480.160383 
L 289.071828 480.01567 
L 289.207842 479.842015 
L 289.387662 479.645206 
L 289.456565 479.488916 
L 289.556768 479.344203 
L 289.666903 479.182125 
L 289.765013 479.037412 
L 289.878498 478.881122 
L 290.817699 477.723419 
L 290.938491 477.468725 
L 291.436237 476.606236 
L 291.557291 476.461524 
L 291.668496 476.177887 
L 292.529245 475.286456 
L 292.656765 475.1128 
L 292.749932 474.95651 
L 292.853016 474.771278 
L 292.971166 474.649719 
L 293.146751 474.371871 
L 293.233472 474.221369 
L 293.325495 474.111388 
L 293.997523 473.949309 
L 294.475935 473.526748 
L 294.584049 473.353092 
L 295.053445 472.837915 
L 295.52414 472.675836 
L 295.623975 472.50797 
L 295.799263 472.345891 
L 295.940386 472.15487 
L 296.035043 471.987003 
L 296.161304 471.853868 
L 296.495855 471.309747 
L 296.593263 471.217131 
L 297.064437 471.078207 
L 297.271248 470.719319 
L 297.994678 469.27798 
L 298.089204 469.127478 
L 298.371424 468.855418 
L 298.863927 468.623878 
L 298.97151 468.53705 
L 299.126407 468.415491 
L 299.968872 467.622465 
L 300.461781 467.489329 
L 300.744208 467.118864 
L 301.265245 466.140606 
L 301.445389 465.856969 
L 301.556197 465.718044 
L 301.748948 465.660159 
L 302.091054 465.5386 
L 302.23989 465.376522 
L 302.612919 464.896076 
L 303.396237 463.819412 
L 303.771764 463.668911 
L 304.152819 463.130579 
L 304.557332 462.314399 
L 304.691061 462.117589 
L 304.816987 461.683451 
L 305.390837 461.023561 
L 305.529855 460.67625 
L 305.693146 460.375247 
L 305.83007 460.172649 
L 305.928592 460.045302 
L 306.026065 459.894801 
L 306.144232 459.680626 
L 306.690339 458.980216 
L 307.05617 458.852868 
L 307.120949 458.679213 
L 307.3638 458.117727 
L 307.529771 457.978803 
L 307.662653 457.781994 
L 307.783102 457.538876 
L 307.894422 457.365221 
L 308.415993 456.844255 
L 308.668853 456.722696 
L 308.790705 456.572194 
L 308.879888 456.415905 
L 308.953729 456.294346 
L 309.606477 455.084547 
L 309.716367 454.87616 
L 309.824838 454.754602 
L 310.247174 454.204693 
L 310.357995 453.967364 
L 310.493544 453.730035 
L 310.596876 453.614265 
L 310.650611 453.463763 
L 310.794932 453.272742 
L 311.150111 452.647583 
L 311.281863 452.404465 
L 311.381272 452.248176 
L 311.617023 452.034001 
L 311.732502 451.924019 
L 312.013948 451.779306 
L 312.208146 451.397264 
L 312.359698 451.148358 
L 312.554699 450.87051 
L 312.668165 450.685277 
L 313.103664 449.944348 
L 313.590493 449.811212 
L 313.697265 449.591248 
L 313.806444 449.371285 
L 314.034435 449.006609 
L 314.238508 448.624567 
L 314.397008 448.450911 
L 314.906846 447.958888 
L 315.341256 447.825752 
L 315.534464 447.55948 
L 315.581508 447.310574 
L 315.68301 447.102188 
L 315.78702 446.945898 
L 315.893794 446.754877 
L 316.027398 446.604376 
L 316.161072 446.378624 
L 316.370369 446.031313 
L 316.441587 445.973428 
L 316.757536 445.828715 
L 317.068941 445.504558 
L 317.175928 445.371423 
L 317.30881 445.215133 
L 317.405927 444.983592 
L 317.457331 444.717321 
L 317.564007 444.32949 
L 317.771773 443.987968 
L 317.87182 443.78537 
L 317.906665 443.663811 
L 318.017743 443.443848 
L 318.146891 443.235462 
L 318.575723 443.032864 
L 318.767327 442.749226 
L 318.938827 442.436647 
L 319.262902 441.950412 
L 319.370335 441.823064 
L 320.520317 440.769555 
L 320.635439 440.561169 
L 320.787446 440.306474 
L 320.941166 440.103876 
L 321.064347 439.89549 
L 322.324647 438.425208 
L 322.423174 438.245764 
L 322.559616 438.072108 
L 322.836424 437.591662 
L 322.977218 437.464315 
L 323.21268 437.302236 
L 323.718776 436.422382 
L 323.79816 436.277669 
L 323.90562 436.12138 
L 324.158644 435.733549 
L 324.269678 435.502009 
L 324.43546 435.276257 
L 324.537577 435.137332 
L 324.722397 435.06787 
L 325.172244 434.888426 
L 325.355803 434.651097 
L 325.392895 434.52375 
L 325.513889 434.234325 
L 325.687453 433.97963 
L 326.189001 432.491982 
L 326.725344 432.295173 
L 326.855465 432.069421 
L 326.985566 431.901554 
L 327.092678 431.33428 
L 327.331106 431.114316 
L 327.462722 431.015912 
L 328.490024 430.70912 
L 328.582513 430.575985 
L 328.684263 430.454426 
L 328.781131 430.240251 
L 328.893312 430.083961 
L 329.061077 429.782958 
L 329.172443 429.50511 
L 329.221148 429.337243 
L 329.338629 428.561582 
L 329.401935 428.411081 
L 329.512362 428.098501 
L 330.012553 427.704882 
L 330.107774 427.56017 
L 330.212609 427.293898 
L 330.384939 427.039203 
L 330.988772 425.441574 
L 331.066549 425.279496 
L 331.143383 424.955339 
L 331.609209 424.793261 
L 331.81801 424.417007 
L 332.221913 423.762905 
L 332.389803 423.577673 
L 332.551819 423.351921 
L 332.690002 423.207208 
L 332.796098 423.039341 
L 332.884226 422.969879 
L 333.402396 422.825166 
L 333.510205 422.634145 
L 334.144003 421.904793 
L 334.244194 421.707983 
L 335.358204 421.354884 
L 335.467192 421.268056 
L 335.783721 421.088612 
L 335.870667 420.972842 
L 336.931129 420.694994 
L 337.104745 420.353471 
L 337.250463 420.127719 
L 337.536161 419.844082 
L 337.712315 419.699369 
L 337.925558 419.606753 
L 338.376627 419.467829 
L 338.468482 419.294174 
L 338.623014 419.155249 
L 338.775587 418.697957 
L 338.836725 418.547455 
L 338.989664 418.315915 
L 339.333477 417.916508 
L 339.415271 417.748641 
L 339.997836 417.55762 
L 340.108712 417.389753 
L 340.214012 417.250829 
L 340.29917 417.100327 
L 340.443009 416.926672 
L 340.505757 416.787748 
L 340.876585 416.365186 
L 340.960868 416.249416 
L 341.025604 416.069972 
L 341.619695 415.896317 
L 341.948965 415.41587 
L 342.05405 415.271157 
L 342.147422 415.138022 
L 342.243729 414.732826 
L 342.375925 414.611267 
L 342.456665 414.4434 
L 342.598118 414.310264 
L 342.725608 414.153974 
L 343.199661 413.980319 
L 343.311637 413.725625 
L 343.388409 413.5867 
L 343.493851 413.395679 
L 343.673061 413.123619 
L 343.780352 413.00206 
L 343.889213 412.799462 
L 344.077108 412.49846 
L 344.215723 412.324804 
L 344.319589 412.2264 
L 344.803063 412.046956 
L 344.936035 411.965917 
L 345.007997 411.826992 
L 345.447918 411.230776 
L 345.726361 410.929773 
L 345.835706 410.727175 
L 345.945 410.507212 
L 346.045706 410.39723 
L 346.561329 410.235151 
L 346.687644 410.049919 
L 346.824843 409.829956 
L 346.893169 409.69682 
L 347.22678 409.065872 
L 347.355198 408.909582 
L 347.466461 408.730138 
L 347.609458 408.585425 
L 348.064989 408.342308 
L 348.167672 408.296 
L 348.400285 408.064459 
L 348.505237 407.885015 
L 348.772249 407.653475 
L 349.99605 405.88219 
L 350.10091 405.708535 
L 350.228448 405.482783 
L 350.438184 404.892354 
L 350.54361 404.718699 
L 350.648965 404.504524 
L 350.866724 404.215098 
L 350.968015 403.798325 
L 351.465797 403.549419 
L 351.528741 403.150012 
L 351.638873 402.872163 
L 351.751244 402.715874 
L 351.855333 402.478545 
L 352.020663 402.287524 
L 352.142994 402.06756 
L 352.260927 401.876539 
L 352.356962 401.575537 
L 352.490321 401.413458 
L 352.615896 400.944589 
L 352.787115 400.892492 
L 353.148225 400.770933 
L 353.205537 400.59149 
L 353.31306 399.954753 
L 353.393179 399.827406 
L 353.536527 399.404844 
L 353.760673 399.057534 
L 353.871729 398.970706 
L 354.15211 398.669703 
L 354.300094 398.472894 
L 354.820192 398.276084 
L 355.848625 397.025766 
L 355.936754 396.985246 
L 356.066455 396.863687 
L 356.369643 396.58005 
L 356.493274 396.441126 
L 356.554763 396.319567 
L 356.709853 396.19222 
L 357.073058 395.810178 
L 357.304963 395.584426 
L 357.41612 395.457079 
L 357.613199 395.341309 
L 358.122182 395.167653 
L 358.381249 394.889805 
L 358.524341 394.640899 
L 358.889461 394.143087 
L 359.070495 393.97522 
L 359.497273 393.766833 
L 359.803679 393.512139 
L 359.90366 393.35006 
L 360.01794 393.222713 
L 360.596369 392.539669 
L 360.707067 392.41811 
L 361.202144 392.267608 
L 361.462633 392.14605 
L 361.558692 392.012914 
L 361.718034 391.839259 
L 361.821423 391.7177 
L 362.095853 391.503525 
L 362.231307 391.335658 
L 362.366795 391.179368 
L 362.444907 390.924674 
L 362.925453 390.791538 
L 363.144481 390.490535 
L 363.514857 389.709086 
L 363.628685 389.535431 
L 363.731232 389.425449 
L 363.79419 389.286524 
L 363.899826 389.107081 
L 363.996272 388.945002 
L 364.096194 388.71925 
L 364.978097 388.169342 
L 365.347353 387.729415 
L 365.448781 387.573125 
L 365.568737 387.347373 
L 365.683434 387.167929 
L 365.792589 386.866926 
L 366.370753 386.704848 
L 366.476391 386.473307 
L 366.686048 386.288075 
L 366.794451 386.166516 
L 366.932981 385.975495 
L 367.03917 385.726589 
L 367.201728 385.558722 
L 367.60593 385.10143 
L 367.974765 384.979871 
L 368.085603 384.667291 
L 368.361738 384.117383 
L 368.50558 383.955304 
L 368.767763 383.665879 
L 369.095477 382.577638 
L 369.342887 382.438714 
L 369.407939 382.288213 
L 369.63489 382.166654 
L 369.81568 381.726727 
L 369.91891 381.593591 
L 370.360526 380.846873 
L 370.610194 380.453254 
L 370.759268 380.100155 
L 371.233507 379.932288 
L 371.418992 379.694959 
L 371.545231 379.150839 
L 371.656496 378.95403 
L 371.765201 378.820894 
L 371.819106 378.571988 
L 372.003997 377.813693 
L 372.130321 376.679144 
L 372.249215 376.551797 
L 372.346533 376.256583 
L 372.448832 376.106081 
L 372.948909 375.590904 
L 373.189846 375.006264 
L 373.386761 374.844186 
L 374.266316 373.588078 
L 374.411239 373.46652 
L 374.516137 373.292864 
L 374.620994 373.11342 
L 374.732232 372.679282 
L 374.886142 372.465107 
L 374.988303 372.285663 
L 375.083646 372.164104 
L 375.187196 371.903621 
L 375.333756 371.695235 
L 375.440021 371.191634 
L 375.552068 371.041133 
L 375.748161 370.74013 
L 376.225398 370.618571 
L 376.338466 370.253895 
L 376.536084 370.016566 
L 376.685479 369.796603 
L 376.744948 369.675044 
L 376.86296 369.437715 
L 376.964066 369.310368 
L 377.580237 368.077414 
L 377.889388 367.909548 
L 378.003619 367.51014 
L 378.145614 367.324908 
L 378.264143 367.104944 
L 378.374929 366.879192 
L 378.670658 366.4219 
L 378.865376 366.167205 
L 378.939219 365.947242 
L 379.706423 365.733067 
L 379.80181 365.663605 
L 380.010869 365.484161 
L 380.267502 365.212101 
L 380.356578 365.165793 
L 380.603942 364.997926 
L 380.711762 364.789539 
L 381.212278 364.604307 
L 381.258668 364.55221 
L 381.507089 364.424863 
L 381.61057 364.135437 
L 381.653673 363.996513 
L 381.743526 363.793915 
L 381.855431 363.666568 
L 382.037095 363.411873 
L 382.147502 363.215064 
L 382.336781 363.122448 
L 382.740305 362.937215 
L 382.949749 362.537808 
L 383.070386 362.346787 
L 383.212648 361.976322 
L 383.32366 361.721628 
L 383.706695 361.073314 
L 383.893455 360.864928 
L 383.963894 360.81862 
L 384.506083 360.633387 
L 384.604564 360.384481 
L 384.72541 360.228191 
L 384.830959 360.054536 
L 384.958939 359.880881 
L 385.067213 359.747745 
L 385.38363 359.342549 
L 385.49315 359.151528 
L 386.149725 358.879468 
L 386.685233 358.005403 
L 386.788785 357.82017 
L 386.961913 357.571264 
L 387.072519 357.455494 
L 387.208193 357.264473 
L 387.656394 356.992413 
L 387.800386 356.726141 
L 387.910496 356.57564 
L 388.424954 355.788402 
L 388.535881 355.585804 
L 388.897278 355.001165 
L 389.396083 354.827509 
L 389.505959 354.636488 
L 390.032686 353.808731 
L 390.138278 353.681384 
L 390.237299 353.519305 
L 390.335346 353.339861 
L 391.298937 352.836261 
L 391.430168 352.569989 
L 391.515091 352.396334 
L 391.624687 352.268987 
L 391.710226 352.112697 
L 391.81645 351.915887 
L 391.890231 351.782752 
L 391.999827 351.481749 
L 392.093035 351.255997 
L 392.201378 351.064976 
L 392.900206 350.422451 
L 393.226123 349.832023 
L 393.325824 349.756772 
L 393.507836 349.606271 
L 393.778089 349.004266 
L 393.932672 348.859553 
L 393.998018 348.67432 
L 394.103984 348.431203 
L 394.206207 348.24597 
L 394.303476 348.107046 
L 394.453609 347.962333 
L 394.586799 347.794466 
L 394.690939 347.551349 
L 395.030959 347.070902 
L 395.132051 346.908824 
L 395.243213 346.677284 
L 395.335005 346.538359 
L 395.440712 346.439955 
L 395.675052 346.411012 
L 396.046528 346.289453 
L 396.418946 345.733756 
L 396.532769 345.583255 
L 396.757893 345.438542 
L 396.861355 345.207001 
L 397.896177 344.593419 
L 398.004604 344.350301 
L 398.160773 344.130338 
L 398.274498 343.979837 
L 398.420488 343.852489 
L 398.763931 343.534121 
L 398.875422 343.117348 
L 399.004042 342.648479 
L 399.585649 342.011742 
L 399.689495 341.86703 
L 399.792682 341.71074 
L 399.890074 341.456045 
L 400.088476 341.288178 
L 400.183262 341.16662 
L 400.279329 341.027695 
L 400.381896 340.906137 
L 400.766723 340.796155 
L 400.968672 340.651442 
L 401.389608 340.147841 
L 401.598112 339.887358 
L 401.70621 339.678972 
L 401.91351 339.430066 
L 402.015164 339.285353 
L 402.542937 339.094332 
L 402.653358 338.880157 
L 403.083513 338.278152 
L 403.188882 338.116073 
L 403.349724 337.942418 
L 403.448385 337.751397 
L 403.555532 337.612473 
L 403.665357 337.461972 
L 404.38755 336.981525 
L 404.488373 336.819447 
L 404.616756 336.640003 
L 404.906041 336.153768 
L 405.47726 335.372319 
L 405.788292 335.216029 
L 405.896518 335.09447 
L 406.112534 334.741371 
L 406.525106 334.012018 
L 406.62113 333.878882 
L 406.727303 333.641553 
L 406.878947 333.415801 
L 406.976984 333.271088 
L 407.511659 332.987451 
L 407.622728 332.344926 
L 407.658423 332.17706 
L 407.756566 332.061289 
L 407.863986 331.904999 
L 407.9746 331.725556 
L 408.196997 331.32036 
L 408.314243 331.100396 
L 408.436449 330.886221 
L 409.244718 330.104772 
L 409.637825 329.462247 
L 409.740102 329.323323 
L 409.848524 328.993378 
L 410.097909 328.559239 
L 410.20324 328.443469 
L 410.743293 328.026696 
L 410.854498 327.858829 
L 411.5128 326.573779 
L 411.616355 326.475375 
L 411.736132 326.348027 
L 411.8951 326.151218 
L 412.025485 325.954409 
L 412.134405 325.751811 
L 412.881778 324.513069 
L 412.992365 324.206278 
L 413.431396 323.679523 
L 413.692217 323.604272 
L 414.08652 323.471137 
L 415.44411 322.284492 
L 415.777881 322.145567 
L 416.434072 321.641967 
L 417.279537 321.43358 
L 417.451742 321.300444 
L 417.519765 321.178886 
L 417.770964 321.039961 
L 417.883969 320.785267 
L 418.084338 320.455322 
L 418.18916 320.252724 
L 418.320691 320.055914 
L 418.47431 319.818585 
L 418.585105 319.575468 
L 418.67466 319.343927 
L 418.778273 319.17606 
L 418.995819 318.950308 
L 419.125983 318.620363 
L 419.261303 318.342515 
L 419.572267 317.954684 
L 419.68143 317.717355 
L 420.252014 317.155869 
L 420.85779 316.970637 
L 420.969978 316.825924 
L 421.188317 316.663846 
L 421.306122 316.438094 
L 421.66459 316.148668 
L 422.496549 315.969224 
L 422.614212 315.737684 
L 422.727547 315.297757 
L 422.937955 314.927292 
L 423.093614 314.724694 
L 423.203368 314.562616 
L 424.699015 312.542425 
L 424.846613 312.374558 
L 425.168455 311.986728 
L 425.212614 311.917266 
L 425.508411 311.789918 
L 425.688463 311.500493 
L 425.880092 311.211067 
L 425.983606 310.979527 
L 426.159444 310.776929 
L 426.266602 310.632216 
L 426.368466 310.487503 
L 426.481226 310.209654 
L 426.605036 310.018633 
L 426.697411 309.844978 
L 426.791668 309.804459 
L 427.304325 309.532398 
L 427.443547 308.907239 
L 427.596249 308.62939 
L 427.674633 308.55414 
L 427.793663 308.426793 
L 427.922215 308.258926 
L 428.029809 308.120001 
L 428.60282 307.298033 
L 428.69996 307.118589 
L 428.953804 306.962299 
L 429.25964 306.45291 
L 429.478556 306.244523 
L 429.634041 305.995617 
L 429.801324 305.821962 
L 429.907532 305.601998 
L 430.749952 304.797395 
L 430.861797 304.635317 
L 431.123808 304.114351 
L 431.234147 303.981215 
L 432.028676 303.170823 
L 432.132294 303.02611 
L 432.242851 302.574606 
L 432.291785 302.406739 
L 432.40144 301.966813 
L 432.441308 301.816311 
L 432.548572 301.335865 
L 432.621776 301.167998 
L 432.73041 300.716494 
L 432.909642 300.207105 
L 433.019287 299.813486 
L 433.198712 299.13623 
L 433.308362 298.70788 
L 433.447914 298.499494 
L 433.53025 298.447397 
L 433.736986 298.314261 
L 433.846637 298.198491 
L 433.894944 298.042201 
L 434.155444 297.474927 
L 434.219984 297.289694 
L 434.325143 297.087096 
L 434.394825 296.91923 
L 434.534459 296.519822 
L 434.615447 296.299859 
L 434.72514 295.836778 
L 434.766617 295.628391 
L 434.878166 295.159522 
L 435.015163 294.476477 
L 435.262094 293.486642 
L 435.325507 293.301409 
L 435.38174 293.1046 
L 435.491368 292.467863 
L 435.650857 291.669049 
L 435.761161 291.032312 
L 435.790409 290.870234 
L 435.900065 290.314537 
L 435.925639 290.175612 
L 436.03475 289.538876 
L 436.149264 289.232085 
L 436.258926 288.936871 
L 436.829243 288.386962 
L 437.167808 288.253826 
L 437.700017 287.842842 
L 437.742273 287.808111 
L 437.993052 287.686552 
L 438.20251 287.30451 
L 438.312163 287.078758 
L 438.471646 286.858795 
L 438.581296 286.702505 
L 438.700915 286.505695 
L 438.81057 286.256789 
L 439.089585 285.139607 
L 439.199431 284.884912 
L 439.658432 284.473928 
L 439.942819 284.184502 
L 440.485907 283.941384 
L 440.607396 283.738786 
L 440.714791 283.501457 
L 440.792421 283.229397 
L 440.891049 283.015222 
L 440.985387 282.876298 
L 441.096367 282.621604 
L 441.891508 281.944348 
L 442.115586 281.753327 
L 442.235574 281.463901 
L 442.353458 281.278669 
L 442.458189 281.11659 
L 442.598425 280.913992 
L 443.145459 280.086235 
L 443.696766 279.773655 
L 443.822218 279.547903 
L 443.929221 279.437922 
L 444.080545 279.217958 
L 444.189568 279.136919 
L 444.548908 278.772243 
L 444.653319 278.621741 
L 444.786743 278.448086 
L 444.891063 278.361258 
L 445.10039 278.233911 
L 445.384603 277.944485 
L 445.473544 277.788196 
L 445.697771 277.631906 
L 445.919052 277.354057 
L 446.139352 277.035689 
L 446.369042 276.60155 
L 446.479447 276.439472 
L 446.660198 276.306336 
L 446.759853 276.190566 
L 447.048928 275.930083 
L 447.312822 275.548041 
L 447.390789 275.420694 
L 447.700952 274.870785 
L 447.825699 274.633456 
L 447.936101 274.390339 
L 448.455556 274.014085 
L 448.663742 273.811487 
L 448.774776 273.632044 
L 448.986094 273.359983 
L 449.179896 272.914268 
L 449.424071 272.584323 
L 449.533037 272.433821 
L 449.624737 272.306474 
L 449.739777 272.121242 
L 449.98942 272.022837 
L 450.158877 271.89549 
L 450.389647 271.7392 
L 451.455307 270.72621 
L 451.935808 270.529401 
L 452.177665 270.129993 
L 452.302057 269.979492 
L 452.815689 269.180677 
L 452.939973 269.012811 
L 453.179207 268.758116 
L 453.451729 268.62498 
L 454.8075 266.703194 
L 455.167712 266.581635 
L 455.367438 266.384826 
L 455.463304 266.269056 
L 455.607775 266.13592 
L 455.718395 265.985418 
L 455.825874 265.811763 
L 456.09963 265.429721 
L 456.209582 265.244489 
L 457.425412 264.254653 
L 457.634177 263.942074 
L 457.740483 263.814726 
L 457.919796 263.56582 
L 458.033469 263.397953 
L 458.242796 263.247452 
L 458.563767 263.102739 
L 458.695107 262.743851 
L 458.871929 262.367598 
L 458.978673 262.136058 
L 459.160407 261.898729 
L 459.350511 261.748227 
L 460.056865 261.400917 
L 460.248159 261.279358 
L 460.361737 261.128856 
L 460.535744 260.984144 
L 460.650545 260.885739 
L 460.949458 260.700506 
L 461.31279 260.411081 
L 461.93251 260.237425 
L 462.212108 259.988519 
L 462.35419 259.693305 
L 462.520471 259.322841 
L 462.628522 259.149185 
L 462.738167 258.801874 
L 463.166797 258.280908 
L 463.899468 257.731 
L 464.000411 257.505248 
L 464.274306 257.26213 
L 464.558544 256.943762 
L 464.658514 256.827992 
L 465.034746 256.683279 
L 465.425957 256.197044 
L 465.540273 256.069696 
L 465.758244 255.90183 
L 465.867892 255.815002 
L 466.166862 255.404018 
L 466.42065 255.218785 
L 466.847965 254.859897 
L 466.995821 254.639934 
L 467.132228 254.454701 
L 467.224306 254.34472 
L 467.412873 254.200007 
L 467.662566 253.858485 
L 467.796728 253.707983 
L 468.010966 253.4475 
L 469.176401 252.642897 
L 469.286822 252.544492 
L 469.438385 252.405568 
L 469.536054 252.231913 
L 470.174553 251.965641 
L 471.310392 250.929497 
L 472.028612 250.385377 
L 472.135095 250.171202 
L 472.309702 250.026489 
L 472.467621 249.852834 
L 472.573478 249.650236 
L 472.682232 249.551831 
L 473.032127 249.308714 
L 473.389885 249.152424 
L 473.494161 248.990346 
L 473.64643 248.799325 
L 473.882126 248.515688 
L 473.984749 248.417283 
L 474.141065 248.197319 
L 474.248013 247.994721 
L 474.388982 247.850009 
L 474.471797 247.682142 
L 474.579554 247.601103 
L 474.938407 247.45639 
L 475.04806 247.207484 
L 475.493377 246.727037 
L 475.85345 246.21186 
L 475.979853 246.032416 
L 476.096154 245.789298 
L 476.383837 245.661951 
L 476.738062 245.534604 
L 476.976292 245.193081 
L 477.079877 245.025214 
L 477.248682 244.845771 
L 477.351183 244.660538 
L 477.485059 244.510037 
L 479.090929 243.005024 
L 479.19943 242.854522 
L 479.39244 242.582462 
L 479.503768 242.420384 
L 479.824744 242.246728 
L 480.222249 242.003611 
L 480.331134 241.818379 
L 480.485557 241.633146 
L 480.59238 241.511587 
L 480.759236 241.297412 
L 480.868695 241.164277 
L 481.649516 240.706984 
L 482.67428 239.844496 
L 482.783127 239.832919 
L 484.109952 238.929911 
L 484.219613 238.814141 
L 484.56834 238.617331 
L 484.971709 238.449464 
L 485.228782 238.003749 
L 485.335477 237.743266 
L 485.475961 237.523302 
L 485.579813 237.349647 
L 485.629806 237.193357 
L 485.739456 236.973394 
L 485.845021 236.822892 
L 486.67388 236.255618 
L 486.775602 236.128271 
L 487.071658 235.833057 
L 487.178519 235.572573 
L 487.673645 235.097915 
L 488.184273 234.92426 
L 488.297044 234.825855 
L 488.497893 234.6522 
L 489.545782 233.685518 
L 489.847301 233.540806 
L 489.956366 233.396093 
L 490.21046 233.124033 
L 490.498862 232.78251 
L 490.633725 232.614644 
L 490.75623 232.429411 
L 490.999073 232.203659 
L 491.102238 232.151563 
L 491.610614 231.891079 
L 491.694045 231.705847 
L 491.825971 231.468518 
L 492.035943 231.242766 
L 492.392094 230.802839 
L 492.485223 230.68128 
L 492.579638 230.455528 
L 492.946353 230.299239 
L 493.241415 230.004024 
L 493.351844 229.853523 
L 494.203638 228.637935 
L 494.311915 228.545319 
L 494.785664 228.296413 
L 494.904806 228.099604 
L 495.079454 227.949102 
L 495.17752 227.844909 
L 495.339531 227.700196 
L 495.445499 227.549695 
L 495.966643 226.976632 
L 496.067624 226.884016 
L 496.451988 226.67563 
L 496.586583 226.565648 
L 496.771069 226.40357 
L 496.897441 226.212549 
L 497.031269 226.056259 
L 497.136569 225.928912 
L 497.351708 225.66264 
L 497.471768 225.448465 
L 497.59134 225.245867 
L 497.669893 225.199559 
L 498.069808 225.054846 
L 498.761901 224.695958 
L 499.116334 224.475995 
L 499.330034 224.348648 
L 499.425443 224.325494 
L 499.798186 224.198146 
L 500.169368 223.931875 
L 500.367994 223.79295 
L 500.477887 223.584564 
L 500.638525 223.254619 
L 500.747107 223.13306 
L 501.212421 222.924674 
L 501.356088 222.843634 
L 501.48208 222.675767 
L 501.697869 222.403707 
L 502.003354 222.224264 
L 502.11256 222.108493 
L 503.660944 220.898694 
L 503.771041 220.806078 
L 503.966793 220.678731 
L 504.561936 220.389305 
L 504.780754 220.250381 
L 504.890952 220.117245 
L 505.10483 219.949378 
L 505.213848 219.816242 
L 505.44063 219.567336 
L 505.547181 219.51524 
L 506.003431 219.254757 
L 506.563358 219.069524 
L 507.134882 218.77431 
L 507.583759 218.38648 
L 507.94723 218.212824 
L 508.490811 217.934976 
L 509.232067 217.020391 
L 509.60439 216.875678 
L 509.7116 216.615195 
L 510.173582 216.08844 
L 510.305642 215.97267 
L 510.588804 215.735341 
L 510.682293 215.579051 
L 511.246433 215.283837 
L 511.355798 215.173855 
L 511.621913 214.896007 
L 512.545459 213.958268 
L 513.06605 213.651476 
L 513.72948 213.061048 
L 513.807935 212.97422 
L 513.940286 212.846873 
L 514.115481 212.644275 
L 514.445739 212.441677 
L 514.545413 212.395369 
L 514.735645 212.192771 
L 514.902591 211.914923 
L 515.732515 210.959818 
L 516.088554 210.79774 
L 516.589867 210.189946 
L 516.704082 210.114695 
L 517.147746 209.738442 
L 517.659632 209.449016 
L 517.773322 209.321669 
L 517.96424 209.182745 
L 518.059001 209.078551 
L 518.187601 208.945416 
L 518.295389 208.800703 
L 518.502046 208.54022 
L 518.635114 208.412873 
L 518.798285 208.210275 
L 518.909128 207.990311 
L 519.673779 207.515653 
L 519.783366 207.405671 
L 520.071731 206.98311 
L 520.278636 206.768935 
L 520.37852 206.543183 
L 520.538311 206.375316 
L 520.649394 206.137987 
L 520.775167 206.062736 
L 521.247439 205.808042 
L 521.35316 205.559136 
L 521.472511 205.373903 
L 521.740566 204.951342 
L 521.854048 204.84136 
L 521.986527 204.656128 
L 522.534743 204.216201 
L 522.935775 203.973083 
L 523.047623 203.834159 
L 523.206023 203.521579 
L 523.609999 202.699611 
L 523.715948 202.450705 
L 523.840101 202.31178 
L 523.950089 202.201799 
L 526.509194 200.592592 
L 526.609546 200.40736 
L 526.714958 200.268435 
L 526.800728 200.158454 
L 526.894476 200.031106 
L 527.010014 199.840085 
L 527.206069 199.637488 
L 527.348773 199.602756 
L 528.255797 198.948655 
L 528.341301 198.815519 
L 528.542601 198.688171 
L 529.212364 198.184571 
L 529.422625 198.010915 
L 529.528083 197.825683 
L 529.641536 197.675182 
L 529.746719 197.559412 
L 529.941039 197.327871 
L 530.084067 197.113696 
L 530.737959 196.251208 
L 531.059248 196.12386 
L 531.167812 195.921262 
L 531.766144 195.278738 
L 531.941759 195.145602 
L 532.357005 194.60727 
L 532.672763 194.410461 
L 532.782759 194.213651 
L 532.891415 194.045784 
L 533.31429 193.484299 
L 533.418997 193.409048 
L 533.516609 193.24697 
L 533.626851 193.119622 
L 534.244188 192.731792 
L 534.409153 192.552348 
L 534.520345 192.488674 
L 535.105073 191.718802 
L 535.214186 191.550935 
L 535.67859 191.163105 
L 536.004422 190.98945 
L 536.161198 190.786852 
L 536.287353 190.607408 
L 536.382452 190.451118 
L 536.526149 190.323771 
L 536.638474 190.098019 
L 536.757441 189.924363 
L 536.875464 189.733343 
L 537.728047 188.934528 
L 537.824619 188.685622 
L 537.951379 188.552486 
L 538.061574 188.378831 
L 538.178779 188.210964 
L 538.590452 187.533708 
L 538.669661 187.388995 
L 538.756946 187.267436 
L 539.13671 187.105358 
L 539.283101 186.954856 
L 539.387947 186.798567 
L 539.496725 186.653854 
L 539.924653 186.242869 
L 540.02513 186.080791 
L 540.115903 185.953444 
L 540.217203 185.797154 
L 540.324133 185.652441 
L 540.96353 185.166206 
L 541.074629 185.062013 
L 541.422863 184.737856 
L 541.719123 184.48895 
L 541.968576 184.326872 
L 542.645125 184.089543 
L 542.956144 183.800117 
L 543.067965 183.591731 
L 543.231294 183.308094 
L 543.339416 183.169169 
L 543.51374 182.954994 
L 543.616881 182.850801 
L 543.672221 182.717665 
L 543.774863 182.538221 
L 544.220872 182.312469 
L 544.422756 182.133026 
L 545.155225 181.617848 
L 545.566258 181.473135 
L 546.035254 181.328422 
L 546.147424 181.282114 
L 546.220251 181.148978 
L 546.316325 181.120036 
L 546.690457 180.911649 
L 546.802 180.691686 
L 546.902433 180.529608 
L 547.011166 180.373318 
L 547.585849 179.944968 
L 547.881049 179.753947 
L 548.217038 179.568714 
L 548.53955 179.221404 
L 548.844721 179.053537 
L 548.947996 179.007229 
L 549.202362 178.84515 
L 549.309577 178.752534 
L 549.47085 178.57309 
L 549.580955 178.451532 
L 549.921854 178.231568 
L 550.032738 177.971085 
L 550.130445 177.826372 
L 550.237898 177.52537 
L 550.520597 177.270675 
L 550.810271 177.120174 
L 550.886381 176.969672 
L 550.995122 176.882845 
L 551.117273 176.726555 
L 551.328332 176.47186 
L 551.558478 176.188223 
L 551.797094 176.04351 
L 552.305121 175.858278 
L 552.524394 175.707777 
L 552.781988 175.331523 
L 552.969041 175.146291 
L 553.390228 174.474823 
L 553.490784 174.347476 
L 554.26244 173.803356 
L 554.368119 173.67022 
L 554.505504 173.508142 
L 554.719934 173.288178 
L 554.92946 173.137677 
L 555.019702 173.027695 
L 555.27725 172.85404 
L 555.335267 172.830886 
L 555.74396 172.703539 
L 555.846551 172.576191 
L 556.083762 172.396747 
L 556.494983 171.968397 
L 556.630932 171.690549 
L 556.739697 171.545836 
L 556.878448 171.349027 
L 557.338666 171.169583 
L 557.581307 170.938042 
L 557.690492 170.706502 
L 557.994636 170.312883 
L 558.10271 170.16817 
L 558.822389 169.398298 
L 559.122127 169.207277 
L 559.219497 169.033622 
L 559.379163 168.877332 
L 559.728262 168.367943 
L 559.840233 168.072729 
L 560.077307 167.79488 
L 560.182096 167.713841 
L 560.99612 167.146567 
L 561.100467 166.9787 
L 561.313433 166.758736 
L 561.418526 166.637177 
L 561.553797 166.475099 
L 561.664567 166.330386 
L 561.938395 166.012018 
L 562.369158 165.751535 
L 562.943133 164.999028 
L 563.111737 164.831161 
L 563.204169 164.645929 
L 563.316854 164.391235 
L 563.580156 164.206002 
L 563.984974 164.055501 
L 564.084683 163.852903 
L 564.201003 163.713979 
L 565.243538 162.162657 
L 565.883075 161.931117 
L 567.188142 160.952858 
L 567.58721 160.756049 
L 567.693039 160.559239 
L 567.785523 160.408738 
L 567.938464 159.928291 
L 568.413574 159.482576 
L 569.085221 159.210516 
L 569.193066 159.135265 
L 569.573533 158.811108 
L 569.68881 158.683761 
L 569.799735 158.527471 
L 570.045979 158.295931 
L 570.532545 158.122275 
L 570.849939 157.780753 
L 570.97616 157.699714 
L 571.083838 157.549213 
L 571.329611 157.225056 
L 571.484034 156.929842 
L 571.812982 156.715667 
L 571.914364 156.623051 
L 572.22584 156.443607 
L 573.306946 155.471137 
L 573.417792 155.30327 
L 573.877275 154.984902 
L 573.994799 154.840189 
L 574.105672 154.701265 
L 574.263243 154.452358 
L 574.378019 154.29028 
L 574.473294 154.186087 
L 574.581738 154.035586 
L 574.743413 153.723006 
L 574.902788 153.462523 
L 575.006961 153.31781 
L 575.47119 153.080481 
L 575.990294 152.547938 
L 576.208377 152.096434 
L 576.346309 151.951721 
L 576.435072 151.864893 
L 576.60171 151.714392 
L 576.711938 151.569679 
L 577.035673 151.419178 
L 577.689554 150.834538 
L 577.793237 150.655094 
L 577.932716 150.47565 
L 578.367188 150.058877 
L 578.839013 149.867857 
L 578.927937 149.688413 
L 579.057663 149.578431 
L 579.213867 149.456872 
L 579.425852 149.289005 
L 579.53797 149.11535 
L 579.805839 148.831713 
L 579.975939 148.733308 
L 580.47494 148.577018 
L 581.992768 146.446846 
L 582.189215 146.203728 
L 582.298094 146.111112 
L 582.39596 145.943245 
L 582.504286 145.810109 
L 582.607896 145.624877 
L 582.711535 145.294932 
L 582.817563 145.138642 
L 582.968298 144.721869 
L 583.173545 144.44402 
L 583.27811 144.322461 
L 583.998784 144.05619 
L 584.804471 143.674148 
L 584.879429 143.569955 
L 585.35577 143.390511 
L 586.443339 142.34279 
L 586.942779 142.203866 
L 587.121496 142.059153 
L 587.229618 141.873921 
L 587.368189 141.734996 
L 587.826348 141.266127 
L 587.989263 141.023009 
L 588.121606 140.820411 
L 588.231806 140.768315 
L 588.367954 140.71043 
L 588.705182 140.502043 
L 588.815624 140.368907 
L 589.069225 140.073693 
L 589.296775 139.882672 
L 589.405935 139.772691 
L 589.483483 139.622189 
L 589.593828 139.517996 
L 590.052229 139.22857 
L 590.154218 139.15332 
L 590.492666 138.915991 
L 590.599424 138.777066 
L 590.992669 138.470275 
L 591.102769 138.389236 
L 591.587174 137.943521 
L 592.735495 137.214168 
L 592.924534 137.069455 
L 593.590846 136.745299 
L 594.314505 136.461661 
L 594.50075 136.316949 
L 594.640901 136.068043 
L 595.020344 135.801771 
L 595.792084 134.91034 
L 595.907361 134.470413 
L 596.040557 134.308335 
L 596.143523 134.013121 
L 596.285096 133.868408 
L 596.381815 133.752638 
L 597.006505 133.451635 
L 597.112599 133.399538 
L 597.387345 133.023285 
L 597.538064 132.826476 
L 597.657691 132.641243 
L 597.787462 132.49653 
L 598.06378 132.288144 
L 598.175683 132.207105 
L 598.484684 132.073969 
L 598.589317 131.946622 
L 598.913061 131.715081 
L 599.016272 131.610888 
L 599.189305 131.437233 
L 599.281405 131.356193 
L 599.487616 131.188326 
L 599.599222 131.084133 
L 599.723268 130.985729 
L 600.685949 130.545802 
L 600.891218 130.302684 
L 600.989778 130.186914 
L 601.0537 130.059567 
L 601.158902 129.920642 
L 601.302344 129.758564 
L 601.404839 129.677525 
L 602.690936 128.87871 
L 602.800104 128.705055 
L 602.858021 128.525611 
L 602.966508 128.33459 
L 603.128061 128.184088 
L 603.348383 128.02201 
L 603.687272 127.778893 
L 603.921541 127.564718 
L 604.032202 127.443159 
L 604.155668 127.3216 
L 604.303653 127.176887 
L 604.410168 126.956924 
L 604.613971 126.783268 
L 605.700233 126.158109 
L 605.806762 126.07707 
L 605.932457 125.903415 
L 606.132328 125.573469 
L 606.228265 125.422968 
L 606.314155 125.370871 
L 606.635221 125.185639 
L 606.747034 125.069869 
L 606.861118 124.936733 
L 607.067027 124.728346 
L 607.226493 124.566268 
L 607.619984 124.178438 
L 607.933035 123.894801 
L 608.434122 123.634318 
L 608.545169 123.483816 
L 608.650955 123.287007 
L 609.059379 122.916542 
L 609.302459 122.615539 
L 609.413185 122.453461 
L 611.4914 121.13368 
L 611.800401 120.988967 
L 612.079919 120.769004 
L 612.184283 120.543252 
L 612.374605 120.386962 
L 612.483645 120.166999 
L 614.677655 118.083134 
L 615.067251 117.90369 
L 615.220666 117.758977 
L 615.410677 117.602688 
L 615.667465 117.382724 
L 615.774116 117.301685 
L 615.839152 117.156972 
L 615.963752 116.977528 
L 616.142493 116.77493 
L 616.355096 116.61864 
L 616.736996 116.433408 
L 616.843538 116.259753 
L 617.489023 115.594074 
L 617.58968 115.443572 
L 617.908012 115.229397 
L 617.999888 115.177301 
L 618.181843 115.009434 
L 618.292861 114.812624 
L 618.420413 114.679489 
L 619.812086 113.805423 
L 620.05851 113.666499 
L 620.14267 113.602825 
L 620.476526 113.42917 
L 620.58095 113.278669 
L 620.74792 113.133956 
L 620.875064 113.029763 
L 621.0139 112.873473 
L 621.119179 112.775068 
L 622.08805 112.086235 
L 622.636364 111.6 
L 622.636364 111.6 
" style="fill:none;stroke:#92c6ff;stroke-linecap:round;stroke-width:1.5;"/>
   </g>
   <g id="line2d_24">
    <defs>
     <path d="M 0 2.5 
C 0.663008 2.5 1.29895 2.236584 1.767767 1.767767 
C 2.236584 1.29895 2.5 0.663008 2.5 0 
C 2.5 -0.663008 2.236584 -1.29895 1.767767 -1.767767 
C 1.29895 -2.236584 0.663008 -2.5 0 -2.5 
C -0.663008 -2.5 -1.29895 -2.236584 -1.767767 -1.767767 
C -2.236584 -1.29895 -2.5 -0.663008 -2.5 0 
C -2.5 0.663008 -2.236584 1.29895 -1.767767 1.767767 
C -1.29895 2.236584 -0.663008 2.5 0 2.5 
z
" id="m9b9350f0b9" style="stroke:#696969;"/>
    </defs>
    <g clip-path="url(#p3b6863dc7f)">
     <use style="fill:#696969;stroke:#696969;" x="115.363636" xlink:href="#m9b9350f0b9" y="615.6"/>
    </g>
   </g>
   <g id="line2d_25">
    <g clip-path="url(#p3b6863dc7f)">
     <use style="fill:#696969;stroke:#696969;" x="204.954881" xlink:href="#m9b9350f0b9" y="565.199421"/>
    </g>
   </g>
   <g id="line2d_26">
    <g clip-path="url(#p3b6863dc7f)">
     <use style="fill:#696969;stroke:#696969;" x="257.205794" xlink:href="#m9b9350f0b9" y="514.798842"/>
    </g>
   </g>
   <g id="line2d_27">
    <g clip-path="url(#p3b6863dc7f)">
     <use style="fill:#696969;stroke:#696969;" x="302.892565" xlink:href="#m9b9350f0b9" y="464.398263"/>
    </g>
   </g>
   <g id="line2d_28">
    <g clip-path="url(#p3b6863dc7f)">
     <use style="fill:#696969;stroke:#696969;" x="343.19843" xlink:href="#m9b9350f0b9" y="413.997685"/>
    </g>
   </g>
   <g id="line2d_29">
    <g clip-path="url(#p3b6863dc7f)">
     <use style="fill:#696969;stroke:#696969;" x="381.950472" xlink:href="#m9b9350f0b9" y="363.597106"/>
    </g>
   </g>
   <g id="line2d_30">
    <g clip-path="url(#p3b6863dc7f)">
     <use style="fill:#696969;stroke:#696969;" x="424.319137" xlink:href="#m9b9350f0b9" y="313.196527"/>
    </g>
   </g>
   <g id="line2d_31">
    <g clip-path="url(#p3b6863dc7f)">
     <use style="fill:#696969;stroke:#696969;" x="458.677965" xlink:href="#m9b9350f0b9" y="262.795948"/>
    </g>
   </g>
   <g id="line2d_32">
    <g clip-path="url(#p3b6863dc7f)">
     <use style="fill:#696969;stroke:#696969;" x="514.545413" xlink:href="#m9b9350f0b9" y="212.395369"/>
    </g>
   </g>
   <g id="line2d_33">
    <g clip-path="url(#p3b6863dc7f)">
     <use style="fill:#696969;stroke:#696969;" x="565.683381" xlink:href="#m9b9350f0b9" y="161.99479"/>
    </g>
   </g>
   <g id="line2d_34">
    <g clip-path="url(#p3b6863dc7f)">
     <use style="fill:#696969;stroke:#696969;" x="622.636364" xlink:href="#m9b9350f0b9" y="111.6"/>
    </g>
   </g>
   <g id="patch_3">
    <path d="M 90 640.8 
L 90 86.4 
" style="fill:none;stroke:#cccccc;stroke-linecap:square;stroke-linejoin:miter;"/>
   </g>
   <g id="patch_4">
    <path d="M 648 640.8 
L 648 86.4 
" style="fill:none;stroke:#cccccc;stroke-linecap:square;stroke-linejoin:miter;"/>
   </g>
   <g id="patch_5">
    <path d="M 90 640.8 
L 648 640.8 
" style="fill:none;stroke:#cccccc;stroke-linecap:square;stroke-linejoin:miter;"/>
   </g>
   <g id="patch_6">
    <path d="M 90 86.4 
L 648 86.4 
" style="fill:none;stroke:#cccccc;stroke-linecap:square;stroke-linejoin:miter;"/>
   </g>
   <g id="text_12">
    <!-- 1 (2014-06-07) -->
    <defs>
     <path id="DejaVuSans-32"/>
     <path d="M 31 75.875 
Q 24.46875 64.65625 21.28125 53.65625 
Q 18.109375 42.671875 18.109375 31.390625 
Q 18.109375 20.125 21.3125 9.0625 
Q 24.515625 -2 31 -13.1875 
L 23.1875 -13.1875 
Q 15.875 -1.703125 12.234375 9.375 
Q 8.59375 20.453125 8.59375 31.390625 
Q 8.59375 42.28125 12.203125 53.3125 
Q 15.828125 64.359375 23.1875 75.875 
z
" id="DejaVuSans-40"/>
     <path d="M 4.890625 31.390625 
L 31.203125 31.390625 
L 31.203125 23.390625 
L 4.890625 23.390625 
z
" id="DejaVuSans-45"/>
     <path d="M 8.015625 75.875 
L 15.828125 75.875 
Q 23.140625 64.359375 26.78125 53.3125 
Q 30.421875 42.28125 30.421875 31.390625 
Q 30.421875 20.453125 26.78125 9.375 
Q 23.140625 -1.703125 15.828125 -13.1875 
L 8.015625 -13.1875 
Q 14.5 -2 17.703125 9.0625 
Q 20.90625 20.125 20.90625 31.390625 
Q 20.90625 42.671875 17.703125 53.65625 
Q 14.5 64.65625 8.015625 75.875 
z
" id="DejaVuSans-41"/>
    </defs>
    <g style="fill:#262626;" transform="translate(120.363636 623.198437)scale(0.1 -0.1)">
     <use xlink:href="#DejaVuSans-49"/>
     <use x="63.623047" xlink:href="#DejaVuSans-32"/>
     <use x="95.410156" xlink:href="#DejaVuSans-40"/>
     <use x="134.423828" xlink:href="#DejaVuSans-50"/>
     <use x="198.046875" xlink:href="#DejaVuSans-48"/>
     <use x="261.669922" xlink:href="#DejaVuSans-49"/>
     <use x="325.292969" xlink:href="#DejaVuSans-52"/>
     <use x="388.916016" xlink:href="#DejaVuSans-45"/>
     <use x="425" xlink:href="#DejaVuSans-48"/>
     <use x="488.623047" xlink:href="#DejaVuSans-54"/>
     <use x="552.246094" xlink:href="#DejaVuSans-45"/>
     <use x="588.330078" xlink:href="#DejaVuSans-48"/>
     <use x="651.953125" xlink:href="#DejaVuSans-55"/>
     <use x="715.576172" xlink:href="#DejaVuSans-41"/>
    </g>
   </g>
   <g id="text_13">
    <!-- 8708 (2015-06-22) -->
    <g style="fill:#262626;" transform="translate(209.954881 572.797859)scale(0.1 -0.1)">
     <use xlink:href="#DejaVuSans-56"/>
     <use x="63.623047" xlink:href="#DejaVuSans-55"/>
     <use x="127.246094" xlink:href="#DejaVuSans-48"/>
     <use x="190.869141" xlink:href="#DejaVuSans-56"/>
     <use x="254.492188" xlink:href="#DejaVuSans-32"/>
     <use x="286.279297" xlink:href="#DejaVuSans-40"/>
     <use x="325.292969" xlink:href="#DejaVuSans-50"/>
     <use x="388.916016" xlink:href="#DejaVuSans-48"/>
     <use x="452.539062" xlink:href="#DejaVuSans-49"/>
     <use x="516.162109" xlink:href="#DejaVuSans-53"/>
     <use x="579.785156" xlink:href="#DejaVuSans-45"/>
     <use x="615.869141" xlink:href="#DejaVuSans-48"/>
     <use x="679.492188" xlink:href="#DejaVuSans-54"/>
     <use x="743.115234" xlink:href="#DejaVuSans-45"/>
     <use x="779.199219" xlink:href="#DejaVuSans-50"/>
     <use x="842.822266" xlink:href="#DejaVuSans-50"/>
     <use x="906.445312" xlink:href="#DejaVuSans-41"/>
    </g>
   </g>
   <g id="text_14">
    <!-- 17415 (2016-01-30) -->
    <defs>
     <path d="M 40.578125 39.3125 
Q 47.65625 37.796875 51.625 33 
Q 55.609375 28.21875 55.609375 21.1875 
Q 55.609375 10.40625 48.1875 4.484375 
Q 40.765625 -1.421875 27.09375 -1.421875 
Q 22.515625 -1.421875 17.65625 -0.515625 
Q 12.796875 0.390625 7.625 2.203125 
L 7.625 11.71875 
Q 11.71875 9.328125 16.59375 8.109375 
Q 21.484375 6.890625 26.8125 6.890625 
Q 36.078125 6.890625 40.9375 10.546875 
Q 45.796875 14.203125 45.796875 21.1875 
Q 45.796875 27.640625 41.28125 31.265625 
Q 36.765625 34.90625 28.71875 34.90625 
L 20.21875 34.90625 
L 20.21875 43.015625 
L 29.109375 43.015625 
Q 36.375 43.015625 40.234375 45.921875 
Q 44.09375 48.828125 44.09375 54.296875 
Q 44.09375 59.90625 40.109375 62.90625 
Q 36.140625 65.921875 28.71875 65.921875 
Q 24.65625 65.921875 20.015625 65.03125 
Q 15.375 64.15625 9.8125 62.3125 
L 9.8125 71.09375 
Q 15.4375 72.65625 20.34375 73.4375 
Q 25.25 74.21875 29.59375 74.21875 
Q 40.828125 74.21875 47.359375 69.109375 
Q 53.90625 64.015625 53.90625 55.328125 
Q 53.90625 49.265625 50.4375 45.09375 
Q 46.96875 40.921875 40.578125 39.3125 
z
" id="DejaVuSans-51"/>
    </defs>
    <g style="fill:#262626;" transform="translate(262.205794 522.39728)scale(0.1 -0.1)">
     <use xlink:href="#DejaVuSans-49"/>
     <use x="63.623047" xlink:href="#DejaVuSans-55"/>
     <use x="127.246094" xlink:href="#DejaVuSans-52"/>
     <use x="190.869141" xlink:href="#DejaVuSans-49"/>
     <use x="254.492188" xlink:href="#DejaVuSans-53"/>
     <use x="318.115234" xlink:href="#DejaVuSans-32"/>
     <use x="349.902344" xlink:href="#DejaVuSans-40"/>
     <use x="388.916016" xlink:href="#DejaVuSans-50"/>
     <use x="452.539062" xlink:href="#DejaVuSans-48"/>
     <use x="516.162109" xlink:href="#DejaVuSans-49"/>
     <use x="579.785156" xlink:href="#DejaVuSans-54"/>
     <use x="643.408203" xlink:href="#DejaVuSans-45"/>
     <use x="679.492188" xlink:href="#DejaVuSans-48"/>
     <use x="743.115234" xlink:href="#DejaVuSans-49"/>
     <use x="806.738281" xlink:href="#DejaVuSans-45"/>
     <use x="842.822266" xlink:href="#DejaVuSans-51"/>
     <use x="906.445312" xlink:href="#DejaVuSans-48"/>
     <use x="970.068359" xlink:href="#DejaVuSans-41"/>
    </g>
   </g>
   <g id="text_15">
    <!-- 26122 (2016-08-12) -->
    <g style="fill:#262626;" transform="translate(307.892565 471.996701)scale(0.1 -0.1)">
     <use xlink:href="#DejaVuSans-50"/>
     <use x="63.623047" xlink:href="#DejaVuSans-54"/>
     <use x="127.246094" xlink:href="#DejaVuSans-49"/>
     <use x="190.869141" xlink:href="#DejaVuSans-50"/>
     <use x="254.492188" xlink:href="#DejaVuSans-50"/>
     <use x="318.115234" xlink:href="#DejaVuSans-32"/>
     <use x="349.902344" xlink:href="#DejaVuSans-40"/>
     <use x="388.916016" xlink:href="#DejaVuSans-50"/>
     <use x="452.539062" xlink:href="#DejaVuSans-48"/>
     <use x="516.162109" xlink:href="#DejaVuSans-49"/>
     <use x="579.785156" xlink:href="#DejaVuSans-54"/>
     <use x="643.408203" xlink:href="#DejaVuSans-45"/>
     <use x="679.492188" xlink:href="#DejaVuSans-48"/>
     <use x="743.115234" xlink:href="#DejaVuSans-56"/>
     <use x="806.738281" xlink:href="#DejaVuSans-45"/>
     <use x="842.822266" xlink:href="#DejaVuSans-49"/>
     <use x="906.445312" xlink:href="#DejaVuSans-50"/>
     <use x="970.068359" xlink:href="#DejaVuSans-41"/>
    </g>
   </g>
   <g id="text_16">
    <!-- 34829 (2017-01-30) -->
    <g style="fill:#262626;" transform="translate(348.19843 421.596122)scale(0.1 -0.1)">
     <use xlink:href="#DejaVuSans-51"/>
     <use x="63.623047" xlink:href="#DejaVuSans-52"/>
     <use x="127.246094" xlink:href="#DejaVuSans-56"/>
     <use x="190.869141" xlink:href="#DejaVuSans-50"/>
     <use x="254.492188" xlink:href="#DejaVuSans-57"/>
     <use x="318.115234" xlink:href="#DejaVuSans-32"/>
     <use x="349.902344" xlink:href="#DejaVuSans-40"/>
     <use x="388.916016" xlink:href="#DejaVuSans-50"/>
     <use x="452.539062" xlink:href="#DejaVuSans-48"/>
     <use x="516.162109" xlink:href="#DejaVuSans-49"/>
     <use x="579.785156" xlink:href="#DejaVuSans-55"/>
     <use x="643.408203" xlink:href="#DejaVuSans-45"/>
     <use x="679.492188" xlink:href="#DejaVuSans-48"/>
     <use x="743.115234" xlink:href="#DejaVuSans-49"/>
     <use x="806.738281" xlink:href="#DejaVuSans-45"/>
     <use x="842.822266" xlink:href="#DejaVuSans-51"/>
     <use x="906.445312" xlink:href="#DejaVuSans-48"/>
     <use x="970.068359" xlink:href="#DejaVuSans-41"/>
    </g>
   </g>
   <g id="text_17">
    <!-- 43536 (2017-07-14) -->
    <g style="fill:#262626;" transform="translate(386.950472 371.195543)scale(0.1 -0.1)">
     <use xlink:href="#DejaVuSans-52"/>
     <use x="63.623047" xlink:href="#DejaVuSans-51"/>
     <use x="127.246094" xlink:href="#DejaVuSans-53"/>
     <use x="190.869141" xlink:href="#DejaVuSans-51"/>
     <use x="254.492188" xlink:href="#DejaVuSans-54"/>
     <use x="318.115234" xlink:href="#DejaVuSans-32"/>
     <use x="349.902344" xlink:href="#DejaVuSans-40"/>
     <use x="388.916016" xlink:href="#DejaVuSans-50"/>
     <use x="452.539062" xlink:href="#DejaVuSans-48"/>
     <use x="516.162109" xlink:href="#DejaVuSans-49"/>
     <use x="579.785156" xlink:href="#DejaVuSans-55"/>
     <use x="643.408203" xlink:href="#DejaVuSans-45"/>
     <use x="679.492188" xlink:href="#DejaVuSans-48"/>
     <use x="743.115234" xlink:href="#DejaVuSans-55"/>
     <use x="806.738281" xlink:href="#DejaVuSans-45"/>
     <use x="842.822266" xlink:href="#DejaVuSans-49"/>
     <use x="906.445312" xlink:href="#DejaVuSans-52"/>
     <use x="970.068359" xlink:href="#DejaVuSans-41"/>
    </g>
   </g>
   <g id="text_18">
    <!-- 52243 (2018-01-10) -->
    <g style="fill:#262626;" transform="translate(429.319137 320.794964)scale(0.1 -0.1)">
     <use xlink:href="#DejaVuSans-53"/>
     <use x="63.623047" xlink:href="#DejaVuSans-50"/>
     <use x="127.246094" xlink:href="#DejaVuSans-50"/>
     <use x="190.869141" xlink:href="#DejaVuSans-52"/>
     <use x="254.492188" xlink:href="#DejaVuSans-51"/>
     <use x="318.115234" xlink:href="#DejaVuSans-32"/>
     <use x="349.902344" xlink:href="#DejaVuSans-40"/>
     <use x="388.916016" xlink:href="#DejaVuSans-50"/>
     <use x="452.539062" xlink:href="#DejaVuSans-48"/>
     <use x="516.162109" xlink:href="#DejaVuSans-49"/>
     <use x="579.785156" xlink:href="#DejaVuSans-56"/>
     <use x="643.408203" xlink:href="#DejaVuSans-45"/>
     <use x="679.492188" xlink:href="#DejaVuSans-48"/>
     <use x="743.115234" xlink:href="#DejaVuSans-49"/>
     <use x="806.738281" xlink:href="#DejaVuSans-45"/>
     <use x="842.822266" xlink:href="#DejaVuSans-49"/>
     <use x="906.445312" xlink:href="#DejaVuSans-48"/>
     <use x="970.068359" xlink:href="#DejaVuSans-41"/>
    </g>
   </g>
   <g id="text_19">
    <!-- 60950 (2018-06-05) -->
    <g style="fill:#262626;" transform="translate(463.677965 270.394386)scale(0.1 -0.1)">
     <use xlink:href="#DejaVuSans-54"/>
     <use x="63.623047" xlink:href="#DejaVuSans-48"/>
     <use x="127.246094" xlink:href="#DejaVuSans-57"/>
     <use x="190.869141" xlink:href="#DejaVuSans-53"/>
     <use x="254.492188" xlink:href="#DejaVuSans-48"/>
     <use x="318.115234" xlink:href="#DejaVuSans-32"/>
     <use x="349.902344" xlink:href="#DejaVuSans-40"/>
     <use x="388.916016" xlink:href="#DejaVuSans-50"/>
     <use x="452.539062" xlink:href="#DejaVuSans-48"/>
     <use x="516.162109" xlink:href="#DejaVuSans-49"/>
     <use x="579.785156" xlink:href="#DejaVuSans-56"/>
     <use x="643.408203" xlink:href="#DejaVuSans-45"/>
     <use x="679.492188" xlink:href="#DejaVuSans-48"/>
     <use x="743.115234" xlink:href="#DejaVuSans-54"/>
     <use x="806.738281" xlink:href="#DejaVuSans-45"/>
     <use x="842.822266" xlink:href="#DejaVuSans-48"/>
     <use x="906.445312" xlink:href="#DejaVuSans-53"/>
     <use x="970.068359" xlink:href="#DejaVuSans-41"/>
    </g>
   </g>
   <g id="text_20">
    <!-- 69657 (2019-01-28) -->
    <g style="fill:#262626;" transform="translate(519.545413 219.993807)scale(0.1 -0.1)">
     <use xlink:href="#DejaVuSans-54"/>
     <use x="63.623047" xlink:href="#DejaVuSans-57"/>
     <use x="127.246094" xlink:href="#DejaVuSans-54"/>
     <use x="190.869141" xlink:href="#DejaVuSans-53"/>
     <use x="254.492188" xlink:href="#DejaVuSans-55"/>
     <use x="318.115234" xlink:href="#DejaVuSans-32"/>
     <use x="349.902344" xlink:href="#DejaVuSans-40"/>
     <use x="388.916016" xlink:href="#DejaVuSans-50"/>
     <use x="452.539062" xlink:href="#DejaVuSans-48"/>
     <use x="516.162109" xlink:href="#DejaVuSans-49"/>
     <use x="579.785156" xlink:href="#DejaVuSans-57"/>
     <use x="643.408203" xlink:href="#DejaVuSans-45"/>
     <use x="679.492188" xlink:href="#DejaVuSans-48"/>
     <use x="743.115234" xlink:href="#DejaVuSans-49"/>
     <use x="806.738281" xlink:href="#DejaVuSans-45"/>
     <use x="842.822266" xlink:href="#DejaVuSans-50"/>
     <use x="906.445312" xlink:href="#DejaVuSans-56"/>
     <use x="970.068359" xlink:href="#DejaVuSans-41"/>
    </g>
   </g>
   <g id="text_21">
    <!-- 78364 (2019-09-02) -->
    <g style="fill:#262626;" transform="translate(570.683381 169.593228)scale(0.1 -0.1)">
     <use xlink:href="#DejaVuSans-55"/>
     <use x="63.623047" xlink:href="#DejaVuSans-56"/>
     <use x="127.246094" xlink:href="#DejaVuSans-51"/>
     <use x="190.869141" xlink:href="#DejaVuSans-54"/>
     <use x="254.492188" xlink:href="#DejaVuSans-52"/>
     <use x="318.115234" xlink:href="#DejaVuSans-32"/>
     <use x="349.902344" xlink:href="#DejaVuSans-40"/>
     <use x="388.916016" xlink:href="#DejaVuSans-50"/>
     <use x="452.539062" xlink:href="#DejaVuSans-48"/>
     <use x="516.162109" xlink:href="#DejaVuSans-49"/>
     <use x="579.785156" xlink:href="#DejaVuSans-57"/>
     <use x="643.408203" xlink:href="#DejaVuSans-45"/>
     <use x="679.492188" xlink:href="#DejaVuSans-48"/>
     <use x="743.115234" xlink:href="#DejaVuSans-57"/>
     <use x="806.738281" xlink:href="#DejaVuSans-45"/>
     <use x="842.822266" xlink:href="#DejaVuSans-48"/>
     <use x="906.445312" xlink:href="#DejaVuSans-50"/>
     <use x="970.068359" xlink:href="#DejaVuSans-41"/>
    </g>
   </g>
   <g id="text_22">
    <!-- 87070 (2020-05-01) -->
    <g style="fill:#262626;" transform="translate(627.636364 119.198437)scale(0.1 -0.1)">
     <use xlink:href="#DejaVuSans-56"/>
     <use x="63.623047" xlink:href="#DejaVuSans-55"/>
     <use x="127.246094" xlink:href="#DejaVuSans-48"/>
     <use x="190.869141" xlink:href="#DejaVuSans-55"/>
     <use x="254.492188" xlink:href="#DejaVuSans-48"/>
     <use x="318.115234" xlink:href="#DejaVuSans-32"/>
     <use x="349.902344" xlink:href="#DejaVuSans-40"/>
     <use x="388.916016" xlink:href="#DejaVuSans-50"/>
     <use x="452.539062" xlink:href="#DejaVuSans-48"/>
     <use x="516.162109" xlink:href="#DejaVuSans-50"/>
     <use x="579.785156" xlink:href="#DejaVuSans-48"/>
     <use x="643.408203" xlink:href="#DejaVuSans-45"/>
     <use x="679.492188" xlink:href="#DejaVuSans-48"/>
     <use x="743.115234" xlink:href="#DejaVuSans-53"/>
     <use x="806.738281" xlink:href="#DejaVuSans-45"/>
     <use x="842.822266" xlink:href="#DejaVuSans-48"/>
     <use x="906.445312" xlink:href="#DejaVuSans-49"/>
     <use x="970.068359" xlink:href="#DejaVuSans-41"/>
    </g>
   </g>
   <g id="text_23">
    <!-- Closed issues and PRs over time -->
    <defs>
     <path d="M 64.40625 67.28125 
L 64.40625 56.890625 
Q 59.421875 61.53125 53.78125 63.8125 
Q 48.140625 66.109375 41.796875 66.109375 
Q 29.296875 66.109375 22.65625 58.46875 
Q 16.015625 50.828125 16.015625 36.375 
Q 16.015625 21.96875 22.65625 14.328125 
Q 29.296875 6.6875 41.796875 6.6875 
Q 48.140625 6.6875 53.78125 8.984375 
Q 59.421875 11.28125 64.40625 15.921875 
L 64.40625 5.609375 
Q 59.234375 2.09375 53.4375 0.328125 
Q 47.65625 -1.421875 41.21875 -1.421875 
Q 24.65625 -1.421875 15.125 8.703125 
Q 5.609375 18.84375 5.609375 36.375 
Q 5.609375 53.953125 15.125 64.078125 
Q 24.65625 74.21875 41.21875 74.21875 
Q 47.75 74.21875 53.53125 72.484375 
Q 59.328125 70.75 64.40625 67.28125 
z
" id="DejaVuSans-67"/>
     <path d="M 9.421875 75.984375 
L 18.40625 75.984375 
L 18.40625 0 
L 9.421875 0 
z
" id="DejaVuSans-108"/>
     <path d="M 30.609375 48.390625 
Q 23.390625 48.390625 19.1875 42.75 
Q 14.984375 37.109375 14.984375 27.296875 
Q 14.984375 17.484375 19.15625 11.84375 
Q 23.34375 6.203125 30.609375 6.203125 
Q 37.796875 6.203125 41.984375 11.859375 
Q 46.1875 17.53125 46.1875 27.296875 
Q 46.1875 37.015625 41.984375 42.703125 
Q 37.796875 48.390625 30.609375 48.390625 
z
M 30.609375 56 
Q 42.328125 56 49.015625 48.375 
Q 55.71875 40.765625 55.71875 27.296875 
Q 55.71875 13.875 49.015625 6.21875 
Q 42.328125 -1.421875 30.609375 -1.421875 
Q 18.84375 -1.421875 12.171875 6.21875 
Q 5.515625 13.875 5.515625 27.296875 
Q 5.515625 40.765625 12.171875 48.375 
Q 18.84375 56 30.609375 56 
z
" id="DejaVuSans-111"/>
     <path d="M 44.28125 53.078125 
L 44.28125 44.578125 
Q 40.484375 46.53125 36.375 47.5 
Q 32.28125 48.484375 27.875 48.484375 
Q 21.1875 48.484375 17.84375 46.4375 
Q 14.5 44.390625 14.5 40.28125 
Q 14.5 37.15625 16.890625 35.375 
Q 19.28125 33.59375 26.515625 31.984375 
L 29.59375 31.296875 
Q 39.15625 29.25 43.1875 25.515625 
Q 47.21875 21.78125 47.21875 15.09375 
Q 47.21875 7.46875 41.1875 3.015625 
Q 35.15625 -1.421875 24.609375 -1.421875 
Q 20.21875 -1.421875 15.453125 -0.5625 
Q 10.6875 0.296875 5.421875 2 
L 5.421875 11.28125 
Q 10.40625 8.6875 15.234375 7.390625 
Q 20.0625 6.109375 24.8125 6.109375 
Q 31.15625 6.109375 34.5625 8.28125 
Q 37.984375 10.453125 37.984375 14.40625 
Q 37.984375 18.0625 35.515625 20.015625 
Q 33.0625 21.96875 24.703125 23.78125 
L 21.578125 24.515625 
Q 13.234375 26.265625 9.515625 29.90625 
Q 5.8125 33.546875 5.8125 39.890625 
Q 5.8125 47.609375 11.28125 51.796875 
Q 16.75 56 26.8125 56 
Q 31.78125 56 36.171875 55.265625 
Q 40.578125 54.546875 44.28125 53.078125 
z
" id="DejaVuSans-115"/>
     <path d="M 56.203125 29.59375 
L 56.203125 25.203125 
L 14.890625 25.203125 
Q 15.484375 15.921875 20.484375 11.0625 
Q 25.484375 6.203125 34.421875 6.203125 
Q 39.59375 6.203125 44.453125 7.46875 
Q 49.3125 8.734375 54.109375 11.28125 
L 54.109375 2.78125 
Q 49.265625 0.734375 44.1875 -0.34375 
Q 39.109375 -1.421875 33.890625 -1.421875 
Q 20.796875 -1.421875 13.15625 6.1875 
Q 5.515625 13.8125 5.515625 26.8125 
Q 5.515625 40.234375 12.765625 48.109375 
Q 20.015625 56 32.328125 56 
Q 43.359375 56 49.78125 48.890625 
Q 56.203125 41.796875 56.203125 29.59375 
z
M 47.21875 32.234375 
Q 47.125 39.59375 43.09375 43.984375 
Q 39.0625 48.390625 32.421875 48.390625 
Q 24.90625 48.390625 20.390625 44.140625 
Q 15.875 39.890625 15.1875 32.171875 
z
" id="DejaVuSans-101"/>
     <path d="M 45.40625 46.390625 
L 45.40625 75.984375 
L 54.390625 75.984375 
L 54.390625 0 
L 45.40625 0 
L 45.40625 8.203125 
Q 42.578125 3.328125 38.25 0.953125 
Q 33.9375 -1.421875 27.875 -1.421875 
Q 17.96875 -1.421875 11.734375 6.484375 
Q 5.515625 14.40625 5.515625 27.296875 
Q 5.515625 40.1875 11.734375 48.09375 
Q 17.96875 56 27.875 56 
Q 33.9375 56 38.25 53.625 
Q 42.578125 51.265625 45.40625 46.390625 
z
M 14.796875 27.296875 
Q 14.796875 17.390625 18.875 11.75 
Q 22.953125 6.109375 30.078125 6.109375 
Q 37.203125 6.109375 41.296875 11.75 
Q 45.40625 17.390625 45.40625 27.296875 
Q 45.40625 37.203125 41.296875 42.84375 
Q 37.203125 48.484375 30.078125 48.484375 
Q 22.953125 48.484375 18.875 42.84375 
Q 14.796875 37.203125 14.796875 27.296875 
z
" id="DejaVuSans-100"/>
     <path d="M 9.421875 54.6875 
L 18.40625 54.6875 
L 18.40625 0 
L 9.421875 0 
z
M 9.421875 75.984375 
L 18.40625 75.984375 
L 18.40625 64.59375 
L 9.421875 64.59375 
z
" id="DejaVuSans-105"/>
     <path d="M 8.5 21.578125 
L 8.5 54.6875 
L 17.484375 54.6875 
L 17.484375 21.921875 
Q 17.484375 14.15625 20.5 10.265625 
Q 23.53125 6.390625 29.59375 6.390625 
Q 36.859375 6.390625 41.078125 11.03125 
Q 45.3125 15.671875 45.3125 23.6875 
L 45.3125 54.6875 
L 54.296875 54.6875 
L 54.296875 0 
L 45.3125 0 
L 45.3125 8.40625 
Q 42.046875 3.421875 37.71875 1 
Q 33.40625 -1.421875 27.6875 -1.421875 
Q 18.265625 -1.421875 13.375 4.4375 
Q 8.5 10.296875 8.5 21.578125 
z
M 31.109375 56 
z
" id="DejaVuSans-117"/>
     <path d="M 34.28125 27.484375 
Q 23.390625 27.484375 19.1875 25 
Q 14.984375 22.515625 14.984375 16.5 
Q 14.984375 11.71875 18.140625 8.90625 
Q 21.296875 6.109375 26.703125 6.109375 
Q 34.1875 6.109375 38.703125 11.40625 
Q 43.21875 16.703125 43.21875 25.484375 
L 43.21875 27.484375 
z
M 52.203125 31.203125 
L 52.203125 0 
L 43.21875 0 
L 43.21875 8.296875 
Q 40.140625 3.328125 35.546875 0.953125 
Q 30.953125 -1.421875 24.3125 -1.421875 
Q 15.921875 -1.421875 10.953125 3.296875 
Q 6 8.015625 6 15.921875 
Q 6 25.140625 12.171875 29.828125 
Q 18.359375 34.515625 30.609375 34.515625 
L 43.21875 34.515625 
L 43.21875 35.40625 
Q 43.21875 41.609375 39.140625 45 
Q 35.0625 48.390625 27.6875 48.390625 
Q 23 48.390625 18.546875 47.265625 
Q 14.109375 46.140625 10.015625 43.890625 
L 10.015625 52.203125 
Q 14.9375 54.109375 19.578125 55.046875 
Q 24.21875 56 28.609375 56 
Q 40.484375 56 46.34375 49.84375 
Q 52.203125 43.703125 52.203125 31.203125 
z
" id="DejaVuSans-97"/>
     <path d="M 54.890625 33.015625 
L 54.890625 0 
L 45.90625 0 
L 45.90625 32.71875 
Q 45.90625 40.484375 42.875 44.328125 
Q 39.84375 48.1875 33.796875 48.1875 
Q 26.515625 48.1875 22.3125 43.546875 
Q 18.109375 38.921875 18.109375 30.90625 
L 18.109375 0 
L 9.078125 0 
L 9.078125 54.6875 
L 18.109375 54.6875 
L 18.109375 46.1875 
Q 21.34375 51.125 25.703125 53.5625 
Q 30.078125 56 35.796875 56 
Q 45.21875 56 50.046875 50.171875 
Q 54.890625 44.34375 54.890625 33.015625 
z
" id="DejaVuSans-110"/>
     <path d="M 19.671875 64.796875 
L 19.671875 37.40625 
L 32.078125 37.40625 
Q 38.96875 37.40625 42.71875 40.96875 
Q 46.484375 44.53125 46.484375 51.125 
Q 46.484375 57.671875 42.71875 61.234375 
Q 38.96875 64.796875 32.078125 64.796875 
z
M 9.8125 72.90625 
L 32.078125 72.90625 
Q 44.34375 72.90625 50.609375 67.359375 
Q 56.890625 61.8125 56.890625 51.125 
Q 56.890625 40.328125 50.609375 34.8125 
Q 44.34375 29.296875 32.078125 29.296875 
L 19.671875 29.296875 
L 19.671875 0 
L 9.8125 0 
z
" id="DejaVuSans-80"/>
     <path d="M 44.390625 34.1875 
Q 47.5625 33.109375 50.5625 29.59375 
Q 53.5625 26.078125 56.59375 19.921875 
L 66.609375 0 
L 56 0 
L 46.6875 18.703125 
Q 43.0625 26.03125 39.671875 28.421875 
Q 36.28125 30.8125 30.421875 30.8125 
L 19.671875 30.8125 
L 19.671875 0 
L 9.8125 0 
L 9.8125 72.90625 
L 32.078125 72.90625 
Q 44.578125 72.90625 50.734375 67.671875 
Q 56.890625 62.453125 56.890625 51.90625 
Q 56.890625 45.015625 53.6875 40.46875 
Q 50.484375 35.9375 44.390625 34.1875 
z
M 19.671875 64.796875 
L 19.671875 38.921875 
L 32.078125 38.921875 
Q 39.203125 38.921875 42.84375 42.21875 
Q 46.484375 45.515625 46.484375 51.90625 
Q 46.484375 58.296875 42.84375 61.546875 
Q 39.203125 64.796875 32.078125 64.796875 
z
" id="DejaVuSans-82"/>
     <path d="M 2.984375 54.6875 
L 12.5 54.6875 
L 29.59375 8.796875 
L 46.6875 54.6875 
L 56.203125 54.6875 
L 35.6875 0 
L 23.484375 0 
z
" id="DejaVuSans-118"/>
     <path d="M 41.109375 46.296875 
Q 39.59375 47.171875 37.8125 47.578125 
Q 36.03125 48 33.890625 48 
Q 26.265625 48 22.1875 43.046875 
Q 18.109375 38.09375 18.109375 28.8125 
L 18.109375 0 
L 9.078125 0 
L 9.078125 54.6875 
L 18.109375 54.6875 
L 18.109375 46.1875 
Q 20.953125 51.171875 25.484375 53.578125 
Q 30.03125 56 36.53125 56 
Q 37.453125 56 38.578125 55.875 
Q 39.703125 55.765625 41.0625 55.515625 
z
" id="DejaVuSans-114"/>
     <path d="M 18.3125 70.21875 
L 18.3125 54.6875 
L 36.8125 54.6875 
L 36.8125 47.703125 
L 18.3125 47.703125 
L 18.3125 18.015625 
Q 18.3125 11.328125 20.140625 9.421875 
Q 21.96875 7.515625 27.59375 7.515625 
L 36.8125 7.515625 
L 36.8125 0 
L 27.59375 0 
Q 17.1875 0 13.234375 3.875 
Q 9.28125 7.765625 9.28125 18.015625 
L 9.28125 47.703125 
L 2.6875 47.703125 
L 2.6875 54.6875 
L 9.28125 54.6875 
L 9.28125 70.21875 
z
" id="DejaVuSans-116"/>
     <path d="M 52 44.1875 
Q 55.375 50.25 60.0625 53.125 
Q 64.75 56 71.09375 56 
Q 79.640625 56 84.28125 50.015625 
Q 88.921875 44.046875 88.921875 33.015625 
L 88.921875 0 
L 79.890625 0 
L 79.890625 32.71875 
Q 79.890625 40.578125 77.09375 44.375 
Q 74.3125 48.1875 68.609375 48.1875 
Q 61.625 48.1875 57.5625 43.546875 
Q 53.515625 38.921875 53.515625 30.90625 
L 53.515625 0 
L 44.484375 0 
L 44.484375 32.71875 
Q 44.484375 40.625 41.703125 44.40625 
Q 38.921875 48.1875 33.109375 48.1875 
Q 26.21875 48.1875 22.15625 43.53125 
Q 18.109375 38.875 18.109375 30.90625 
L 18.109375 0 
L 9.078125 0 
L 9.078125 54.6875 
L 18.109375 54.6875 
L 18.109375 46.1875 
Q 21.1875 51.21875 25.484375 53.609375 
Q 29.78125 56 35.6875 56 
Q 41.65625 56 45.828125 52.96875 
Q 50 49.953125 52 44.1875 
z
" id="DejaVuSans-109"/>
    </defs>
    <g style="fill:#262626;" transform="translate(271.635938 80.4)scale(0.12 -0.12)">
     <use xlink:href="#DejaVuSans-67"/>
     <use x="69.824219" xlink:href="#DejaVuSans-108"/>
     <use x="97.607422" xlink:href="#DejaVuSans-111"/>
     <use x="158.789062" xlink:href="#DejaVuSans-115"/>
     <use x="210.888672" xlink:href="#DejaVuSans-101"/>
     <use x="272.412109" xlink:href="#DejaVuSans-100"/>
     <use x="335.888672" xlink:href="#DejaVuSans-32"/>
     <use x="367.675781" xlink:href="#DejaVuSans-105"/>
     <use x="395.458984" xlink:href="#DejaVuSans-115"/>
     <use x="447.558594" xlink:href="#DejaVuSans-115"/>
     <use x="499.658203" xlink:href="#DejaVuSans-117"/>
     <use x="563.037109" xlink:href="#DejaVuSans-101"/>
     <use x="624.560547" xlink:href="#DejaVuSans-115"/>
     <use x="676.660156" xlink:href="#DejaVuSans-32"/>
     <use x="708.447266" xlink:href="#DejaVuSans-97"/>
     <use x="769.726562" xlink:href="#DejaVuSans-110"/>
     <use x="833.105469" xlink:href="#DejaVuSans-100"/>
     <use x="896.582031" xlink:href="#DejaVuSans-32"/>
     <use x="928.369141" xlink:href="#DejaVuSans-80"/>
     <use x="988.671875" xlink:href="#DejaVuSans-82"/>
     <use x="1058.154297" xlink:href="#DejaVuSans-115"/>
     <use x="1110.253906" xlink:href="#DejaVuSans-32"/>
     <use x="1142.041016" xlink:href="#DejaVuSans-111"/>
     <use x="1203.222656" xlink:href="#DejaVuSans-118"/>
     <use x="1262.402344" xlink:href="#DejaVuSans-101"/>
     <use x="1323.925781" xlink:href="#DejaVuSans-114"/>
     <use x="1365.039062" xlink:href="#DejaVuSans-32"/>
     <use x="1396.826172" xlink:href="#DejaVuSans-116"/>
     <use x="1436.035156" xlink:href="#DejaVuSans-105"/>
     <use x="1463.818359" xlink:href="#DejaVuSans-109"/>
     <use x="1561.230469" xlink:href="#DejaVuSans-101"/>
    </g>
   </g>
  </g>
 </g>
 <defs>
  <clipPath id="p3b6863dc7f">
   <rect height="554.4" width="558" x="90" y="86.4"/>
  </clipPath>
 </defs>
</svg>
