<?xml version="1.0" encoding="utf-8" standalone="no"?>
<!DOCTYPE svg PUBLIC "-//W3C//DTD SVG 1.1//EN"
  "http://www.w3.org/Graphics/SVG/1.1/DTD/svg11.dtd">
<!-- Created with matplotlib (https://matplotlib.org/) -->
<svg height="720pt" version="1.1" viewBox="0 0 720 720" width="720pt" xmlns="http://www.w3.org/2000/svg" xmlns:xlink="http://www.w3.org/1999/xlink">
 <defs>
  <style type="text/css">
*{stroke-linecap:butt;stroke-linejoin:round;}
  </style>
 </defs>
 <g id="figure_1">
  <g id="patch_1">
   <path d="M 0 720 
L 720 720 
L 720 0 
L 0 0 
z
" style="fill:#ffffff;"/>
  </g>
  <g id="axes_1">
   <g id="patch_2">
    <path d="M 90 640.8 
L 648 640.8 
L 648 86.4 
L 90 86.4 
z
" style="fill:#ffffff;"/>
   </g>
   <g id="matplotlib.axis_1">
    <g id="xtick_1">
     <g id="line2d_1">
      <path clip-path="url(#p3c2fea8422)" d="M 163.516685 640.8 
L 163.516685 86.4 
" style="fill:none;stroke:#cccccc;stroke-linecap:round;stroke-width:0.8;"/>
     </g>
     <g id="line2d_2"/>
     <g id="text_1">
      <!-- 2015 -->
      <defs>
       <path d="M 19.1875 8.296875 
L 53.609375 8.296875 
L 53.609375 0 
L 7.328125 0 
L 7.328125 8.296875 
Q 12.9375 14.109375 22.625 23.890625 
Q 32.328125 33.6875 34.8125 36.53125 
Q 39.546875 41.84375 41.421875 45.53125 
Q 43.3125 49.21875 43.3125 52.78125 
Q 43.3125 58.59375 39.234375 62.25 
Q 35.15625 65.921875 28.609375 65.921875 
Q 23.96875 65.921875 18.8125 64.3125 
Q 13.671875 62.703125 7.8125 59.421875 
L 7.8125 69.390625 
Q 13.765625 71.78125 18.9375 73 
Q 24.125 74.21875 28.421875 74.21875 
Q 39.75 74.21875 46.484375 68.546875 
Q 53.21875 62.890625 53.21875 53.421875 
Q 53.21875 48.921875 51.53125 44.890625 
Q 49.859375 40.875 45.40625 35.40625 
Q 44.1875 33.984375 37.640625 27.21875 
Q 31.109375 20.453125 19.1875 8.296875 
z
" id="DejaVuSans-50"/>
       <path d="M 31.78125 66.40625 
Q 24.171875 66.40625 20.328125 58.90625 
Q 16.5 51.421875 16.5 36.375 
Q 16.5 21.390625 20.328125 13.890625 
Q 24.171875 6.390625 31.78125 6.390625 
Q 39.453125 6.390625 43.28125 13.890625 
Q 47.125 21.390625 47.125 36.375 
Q 47.125 51.421875 43.28125 58.90625 
Q 39.453125 66.40625 31.78125 66.40625 
z
M 31.78125 74.21875 
Q 44.046875 74.21875 50.515625 64.515625 
Q 56.984375 54.828125 56.984375 36.375 
Q 56.984375 17.96875 50.515625 8.265625 
Q 44.046875 -1.421875 31.78125 -1.421875 
Q 19.53125 -1.421875 13.0625 8.265625 
Q 6.59375 17.96875 6.59375 36.375 
Q 6.59375 54.828125 13.0625 64.515625 
Q 19.53125 74.21875 31.78125 74.21875 
z
" id="DejaVuSans-48"/>
       <path d="M 12.40625 8.296875 
L 28.515625 8.296875 
L 28.515625 63.921875 
L 10.984375 60.40625 
L 10.984375 69.390625 
L 28.421875 72.90625 
L 38.28125 72.90625 
L 38.28125 8.296875 
L 54.390625 8.296875 
L 54.390625 0 
L 12.40625 0 
z
" id="DejaVuSans-49"/>
       <path d="M 10.796875 72.90625 
L 49.515625 72.90625 
L 49.515625 64.59375 
L 19.828125 64.59375 
L 19.828125 46.734375 
Q 21.96875 47.46875 24.109375 47.828125 
Q 26.265625 48.1875 28.421875 48.1875 
Q 40.625 48.1875 47.75 41.5 
Q 54.890625 34.8125 54.890625 23.390625 
Q 54.890625 11.625 47.5625 5.09375 
Q 40.234375 -1.421875 26.90625 -1.421875 
Q 22.3125 -1.421875 17.546875 -0.640625 
Q 12.796875 0.140625 7.71875 1.703125 
L 7.71875 11.625 
Q 12.109375 9.234375 16.796875 8.0625 
Q 21.484375 6.890625 26.703125 6.890625 
Q 35.15625 6.890625 40.078125 11.328125 
Q 45.015625 15.765625 45.015625 23.390625 
Q 45.015625 31 40.078125 35.4375 
Q 35.15625 39.890625 26.703125 39.890625 
Q 22.75 39.890625 18.8125 39.015625 
Q 14.890625 38.140625 10.796875 36.28125 
z
" id="DejaVuSans-53"/>
      </defs>
      <g style="fill:#262626;" transform="translate(150.791685 651.898438)scale(0.1 -0.1)">
       <use xlink:href="#DejaVuSans-50"/>
       <use x="63.623047" xlink:href="#DejaVuSans-48"/>
       <use x="127.246094" xlink:href="#DejaVuSans-49"/>
       <use x="190.869141" xlink:href="#DejaVuSans-53"/>
      </g>
     </g>
    </g>
    <g id="xtick_2">
     <g id="line2d_3">
      <path clip-path="url(#p3c2fea8422)" d="M 248.943009 640.8 
L 248.943009 86.4 
" style="fill:none;stroke:#cccccc;stroke-linecap:round;stroke-width:0.8;"/>
     </g>
     <g id="line2d_4"/>
     <g id="text_2">
      <!-- 2016 -->
      <defs>
       <path d="M 33.015625 40.375 
Q 26.375 40.375 22.484375 35.828125 
Q 18.609375 31.296875 18.609375 23.390625 
Q 18.609375 15.53125 22.484375 10.953125 
Q 26.375 6.390625 33.015625 6.390625 
Q 39.65625 6.390625 43.53125 10.953125 
Q 47.40625 15.53125 47.40625 23.390625 
Q 47.40625 31.296875 43.53125 35.828125 
Q 39.65625 40.375 33.015625 40.375 
z
M 52.59375 71.296875 
L 52.59375 62.3125 
Q 48.875 64.0625 45.09375 64.984375 
Q 41.3125 65.921875 37.59375 65.921875 
Q 27.828125 65.921875 22.671875 59.328125 
Q 17.53125 52.734375 16.796875 39.40625 
Q 19.671875 43.65625 24.015625 45.921875 
Q 28.375 48.1875 33.59375 48.1875 
Q 44.578125 48.1875 50.953125 41.515625 
Q 57.328125 34.859375 57.328125 23.390625 
Q 57.328125 12.15625 50.6875 5.359375 
Q 44.046875 -1.421875 33.015625 -1.421875 
Q 20.359375 -1.421875 13.671875 8.265625 
Q 6.984375 17.96875 6.984375 36.375 
Q 6.984375 53.65625 15.1875 63.9375 
Q 23.390625 74.21875 37.203125 74.21875 
Q 40.921875 74.21875 44.703125 73.484375 
Q 48.484375 72.75 52.59375 71.296875 
z
" id="DejaVuSans-54"/>
      </defs>
      <g style="fill:#262626;" transform="translate(236.218009 651.898438)scale(0.1 -0.1)">
       <use xlink:href="#DejaVuSans-50"/>
       <use x="63.623047" xlink:href="#DejaVuSans-48"/>
       <use x="127.246094" xlink:href="#DejaVuSans-49"/>
       <use x="190.869141" xlink:href="#DejaVuSans-54"/>
      </g>
     </g>
    </g>
    <g id="xtick_3">
     <g id="line2d_5">
      <path clip-path="url(#p3c2fea8422)" d="M 334.603378 640.8 
L 334.603378 86.4 
" style="fill:none;stroke:#cccccc;stroke-linecap:round;stroke-width:0.8;"/>
     </g>
     <g id="line2d_6"/>
     <g id="text_3">
      <!-- 2017 -->
      <defs>
       <path d="M 8.203125 72.90625 
L 55.078125 72.90625 
L 55.078125 68.703125 
L 28.609375 0 
L 18.3125 0 
L 43.21875 64.59375 
L 8.203125 64.59375 
z
" id="DejaVuSans-55"/>
      </defs>
      <g style="fill:#262626;" transform="translate(321.878378 651.898438)scale(0.1 -0.1)">
       <use xlink:href="#DejaVuSans-50"/>
       <use x="63.623047" xlink:href="#DejaVuSans-48"/>
       <use x="127.246094" xlink:href="#DejaVuSans-49"/>
       <use x="190.869141" xlink:href="#DejaVuSans-55"/>
      </g>
     </g>
    </g>
    <g id="xtick_4">
     <g id="line2d_7">
      <path clip-path="url(#p3c2fea8422)" d="M 420.029702 640.8 
L 420.029702 86.4 
" style="fill:none;stroke:#cccccc;stroke-linecap:round;stroke-width:0.8;"/>
     </g>
     <g id="line2d_8"/>
     <g id="text_4">
      <!-- 2018 -->
      <defs>
       <path d="M 31.78125 34.625 
Q 24.75 34.625 20.71875 30.859375 
Q 16.703125 27.09375 16.703125 20.515625 
Q 16.703125 13.921875 20.71875 10.15625 
Q 24.75 6.390625 31.78125 6.390625 
Q 38.8125 6.390625 42.859375 10.171875 
Q 46.921875 13.96875 46.921875 20.515625 
Q 46.921875 27.09375 42.890625 30.859375 
Q 38.875 34.625 31.78125 34.625 
z
M 21.921875 38.8125 
Q 15.578125 40.375 12.03125 44.71875 
Q 8.5 49.078125 8.5 55.328125 
Q 8.5 64.0625 14.71875 69.140625 
Q 20.953125 74.21875 31.78125 74.21875 
Q 42.671875 74.21875 48.875 69.140625 
Q 55.078125 64.0625 55.078125 55.328125 
Q 55.078125 49.078125 51.53125 44.71875 
Q 48 40.375 41.703125 38.8125 
Q 48.828125 37.15625 52.796875 32.3125 
Q 56.78125 27.484375 56.78125 20.515625 
Q 56.78125 9.90625 50.3125 4.234375 
Q 43.84375 -1.421875 31.78125 -1.421875 
Q 19.734375 -1.421875 13.25 4.234375 
Q 6.78125 9.90625 6.78125 20.515625 
Q 6.78125 27.484375 10.78125 32.3125 
Q 14.796875 37.15625 21.921875 38.8125 
z
M 18.3125 54.390625 
Q 18.3125 48.734375 21.84375 45.5625 
Q 25.390625 42.390625 31.78125 42.390625 
Q 38.140625 42.390625 41.71875 45.5625 
Q 45.3125 48.734375 45.3125 54.390625 
Q 45.3125 60.0625 41.71875 63.234375 
Q 38.140625 66.40625 31.78125 66.40625 
Q 25.390625 66.40625 21.84375 63.234375 
Q 18.3125 60.0625 18.3125 54.390625 
z
" id="DejaVuSans-56"/>
      </defs>
      <g style="fill:#262626;" transform="translate(407.304702 651.898438)scale(0.1 -0.1)">
       <use xlink:href="#DejaVuSans-50"/>
       <use x="63.623047" xlink:href="#DejaVuSans-48"/>
       <use x="127.246094" xlink:href="#DejaVuSans-49"/>
       <use x="190.869141" xlink:href="#DejaVuSans-56"/>
      </g>
     </g>
    </g>
    <g id="xtick_5">
     <g id="line2d_9">
      <path clip-path="url(#p3c2fea8422)" d="M 505.456026 640.8 
L 505.456026 86.4 
" style="fill:none;stroke:#cccccc;stroke-linecap:round;stroke-width:0.8;"/>
     </g>
     <g id="line2d_10"/>
     <g id="text_5">
      <!-- 2019 -->
      <defs>
       <path d="M 10.984375 1.515625 
L 10.984375 10.5 
Q 14.703125 8.734375 18.5 7.8125 
Q 22.3125 6.890625 25.984375 6.890625 
Q 35.75 6.890625 40.890625 13.453125 
Q 46.046875 20.015625 46.78125 33.40625 
Q 43.953125 29.203125 39.59375 26.953125 
Q 35.25 24.703125 29.984375 24.703125 
Q 19.046875 24.703125 12.671875 31.3125 
Q 6.296875 37.9375 6.296875 49.421875 
Q 6.296875 60.640625 12.9375 67.421875 
Q 19.578125 74.21875 30.609375 74.21875 
Q 43.265625 74.21875 49.921875 64.515625 
Q 56.59375 54.828125 56.59375 36.375 
Q 56.59375 19.140625 48.40625 8.859375 
Q 40.234375 -1.421875 26.421875 -1.421875 
Q 22.703125 -1.421875 18.890625 -0.6875 
Q 15.09375 0.046875 10.984375 1.515625 
z
M 30.609375 32.421875 
Q 37.25 32.421875 41.125 36.953125 
Q 45.015625 41.5 45.015625 49.421875 
Q 45.015625 57.28125 41.125 61.84375 
Q 37.25 66.40625 30.609375 66.40625 
Q 23.96875 66.40625 20.09375 61.84375 
Q 16.21875 57.28125 16.21875 49.421875 
Q 16.21875 41.5 20.09375 36.953125 
Q 23.96875 32.421875 30.609375 32.421875 
z
" id="DejaVuSans-57"/>
      </defs>
      <g style="fill:#262626;" transform="translate(492.731026 651.898438)scale(0.1 -0.1)">
       <use xlink:href="#DejaVuSans-50"/>
       <use x="63.623047" xlink:href="#DejaVuSans-48"/>
       <use x="127.246094" xlink:href="#DejaVuSans-49"/>
       <use x="190.869141" xlink:href="#DejaVuSans-57"/>
      </g>
     </g>
    </g>
    <g id="xtick_6">
     <g id="line2d_11">
      <path clip-path="url(#p3c2fea8422)" d="M 590.88235 640.8 
L 590.88235 86.4 
" style="fill:none;stroke:#cccccc;stroke-linecap:round;stroke-width:0.8;"/>
     </g>
     <g id="line2d_12"/>
     <g id="text_6">
      <!-- 2020 -->
      <g style="fill:#262626;" transform="translate(578.15735 651.898438)scale(0.1 -0.1)">
       <use xlink:href="#DejaVuSans-50"/>
       <use x="63.623047" xlink:href="#DejaVuSans-48"/>
       <use x="127.246094" xlink:href="#DejaVuSans-50"/>
       <use x="190.869141" xlink:href="#DejaVuSans-48"/>
      </g>
     </g>
    </g>
   </g>
   <g id="matplotlib.axis_2">
    <g id="ytick_1">
     <g id="line2d_13">
      <path clip-path="url(#p3c2fea8422)" d="M 90 615.615527 
L 648 615.615527 
" style="fill:none;stroke:#cccccc;stroke-linecap:round;stroke-width:0.8;"/>
     </g>
     <g id="line2d_14"/>
     <g id="text_7">
      <!-- 0 -->
      <g style="fill:#262626;" transform="translate(80.1375 619.414746)scale(0.1 -0.1)">
       <use xlink:href="#DejaVuSans-48"/>
      </g>
     </g>
    </g>
    <g id="ytick_2">
     <g id="line2d_15">
      <path clip-path="url(#p3c2fea8422)" d="M 90 537.979124 
L 648 537.979124 
" style="fill:none;stroke:#cccccc;stroke-linecap:round;stroke-width:0.8;"/>
     </g>
     <g id="line2d_16"/>
     <g id="text_8">
      <!-- 5000 -->
      <g style="fill:#262626;" transform="translate(61.05 541.778343)scale(0.1 -0.1)">
       <use xlink:href="#DejaVuSans-53"/>
       <use x="63.623047" xlink:href="#DejaVuSans-48"/>
       <use x="127.246094" xlink:href="#DejaVuSans-48"/>
       <use x="190.869141" xlink:href="#DejaVuSans-48"/>
      </g>
     </g>
    </g>
    <g id="ytick_3">
     <g id="line2d_17">
      <path clip-path="url(#p3c2fea8422)" d="M 90 460.342722 
L 648 460.342722 
" style="fill:none;stroke:#cccccc;stroke-linecap:round;stroke-width:0.8;"/>
     </g>
     <g id="line2d_18"/>
     <g id="text_9">
      <!-- 10000 -->
      <g style="fill:#262626;" transform="translate(54.6875 464.14194)scale(0.1 -0.1)">
       <use xlink:href="#DejaVuSans-49"/>
       <use x="63.623047" xlink:href="#DejaVuSans-48"/>
       <use x="127.246094" xlink:href="#DejaVuSans-48"/>
       <use x="190.869141" xlink:href="#DejaVuSans-48"/>
       <use x="254.492188" xlink:href="#DejaVuSans-48"/>
      </g>
     </g>
    </g>
    <g id="ytick_4">
     <g id="line2d_19">
      <path clip-path="url(#p3c2fea8422)" d="M 90 382.706319 
L 648 382.706319 
" style="fill:none;stroke:#cccccc;stroke-linecap:round;stroke-width:0.8;"/>
     </g>
     <g id="line2d_20"/>
     <g id="text_10">
      <!-- 15000 -->
      <g style="fill:#262626;" transform="translate(54.6875 386.505537)scale(0.1 -0.1)">
       <use xlink:href="#DejaVuSans-49"/>
       <use x="63.623047" xlink:href="#DejaVuSans-53"/>
       <use x="127.246094" xlink:href="#DejaVuSans-48"/>
       <use x="190.869141" xlink:href="#DejaVuSans-48"/>
       <use x="254.492188" xlink:href="#DejaVuSans-48"/>
      </g>
     </g>
    </g>
    <g id="ytick_5">
     <g id="line2d_21">
      <path clip-path="url(#p3c2fea8422)" d="M 90 305.069916 
L 648 305.069916 
" style="fill:none;stroke:#cccccc;stroke-linecap:round;stroke-width:0.8;"/>
     </g>
     <g id="line2d_22"/>
     <g id="text_11">
      <!-- 20000 -->
      <g style="fill:#262626;" transform="translate(54.6875 308.869135)scale(0.1 -0.1)">
       <use xlink:href="#DejaVuSans-50"/>
       <use x="63.623047" xlink:href="#DejaVuSans-48"/>
       <use x="127.246094" xlink:href="#DejaVuSans-48"/>
       <use x="190.869141" xlink:href="#DejaVuSans-48"/>
       <use x="254.492188" xlink:href="#DejaVuSans-48"/>
      </g>
     </g>
    </g>
    <g id="ytick_6">
     <g id="line2d_23">
      <path clip-path="url(#p3c2fea8422)" d="M 90 227.433513 
L 648 227.433513 
" style="fill:none;stroke:#cccccc;stroke-linecap:round;stroke-width:0.8;"/>
     </g>
     <g id="line2d_24"/>
     <g id="text_12">
      <!-- 25000 -->
      <g style="fill:#262626;" transform="translate(54.6875 231.232732)scale(0.1 -0.1)">
       <use xlink:href="#DejaVuSans-50"/>
       <use x="63.623047" xlink:href="#DejaVuSans-53"/>
       <use x="127.246094" xlink:href="#DejaVuSans-48"/>
       <use x="190.869141" xlink:href="#DejaVuSans-48"/>
       <use x="254.492188" xlink:href="#DejaVuSans-48"/>
      </g>
     </g>
    </g>
    <g id="ytick_7">
     <g id="line2d_25">
      <path clip-path="url(#p3c2fea8422)" d="M 90 149.79711 
L 648 149.79711 
" style="fill:none;stroke:#cccccc;stroke-linecap:round;stroke-width:0.8;"/>
     </g>
     <g id="line2d_26"/>
     <g id="text_13">
      <!-- 30000 -->
      <defs>
       <path d="M 40.578125 39.3125 
Q 47.65625 37.796875 51.625 33 
Q 55.609375 28.21875 55.609375 21.1875 
Q 55.609375 10.40625 48.1875 4.484375 
Q 40.765625 -1.421875 27.09375 -1.421875 
Q 22.515625 -1.421875 17.65625 -0.515625 
Q 12.796875 0.390625 7.625 2.203125 
L 7.625 11.71875 
Q 11.71875 9.328125 16.59375 8.109375 
Q 21.484375 6.890625 26.8125 6.890625 
Q 36.078125 6.890625 40.9375 10.546875 
Q 45.796875 14.203125 45.796875 21.1875 
Q 45.796875 27.640625 41.28125 31.265625 
Q 36.765625 34.90625 28.71875 34.90625 
L 20.21875 34.90625 
L 20.21875 43.015625 
L 29.109375 43.015625 
Q 36.375 43.015625 40.234375 45.921875 
Q 44.09375 48.828125 44.09375 54.296875 
Q 44.09375 59.90625 40.109375 62.90625 
Q 36.140625 65.921875 28.71875 65.921875 
Q 24.65625 65.921875 20.015625 65.03125 
Q 15.375 64.15625 9.8125 62.3125 
L 9.8125 71.09375 
Q 15.4375 72.65625 20.34375 73.4375 
Q 25.25 74.21875 29.59375 74.21875 
Q 40.828125 74.21875 47.359375 69.109375 
Q 53.90625 64.015625 53.90625 55.328125 
Q 53.90625 49.265625 50.4375 45.09375 
Q 46.96875 40.921875 40.578125 39.3125 
z
" id="DejaVuSans-51"/>
      </defs>
      <g style="fill:#262626;" transform="translate(54.6875 153.596329)scale(0.1 -0.1)">
       <use xlink:href="#DejaVuSans-51"/>
       <use x="63.623047" xlink:href="#DejaVuSans-48"/>
       <use x="127.246094" xlink:href="#DejaVuSans-48"/>
       <use x="190.869141" xlink:href="#DejaVuSans-48"/>
       <use x="254.492188" xlink:href="#DejaVuSans-48"/>
      </g>
     </g>
    </g>
   </g>
   <g id="line2d_27">
    <path clip-path="url(#p3c2fea8422)" d="M 115.363636 615.6 
L 116.991008 615.460254 
L 116.996919 615.4292 
L 118.035059 615.336036 
L 119.688656 615.196291 
L 119.797432 615.165236 
L 120.654101 615.041018 
L 120.737474 614.994436 
L 122.955476 614.854691 
L 124.139747 614.668363 
L 126.062213 614.497563 
L 126.090862 614.357818 
L 126.995678 614.218072 
L 127.039683 614.155963 
L 129.529995 613.752254 
L 129.553735 613.721199 
L 130.925135 613.581454 
L 132.020719 613.395126 
L 132.796057 613.224326 
L 133.506651 613.100108 
L 133.600182 613.006944 
L 135.866829 612.57218 
L 136.1268 612.525598 
L 137.000391 612.40138 
L 137.069732 612.308217 
L 140.08295 611.920035 
L 143.585126 611.097089 
L 143.673101 611.050507 
L 144.243043 610.895234 
L 144.319728 610.786543 
L 145.260423 610.662325 
L 146.644692 610.429416 
L 146.750708 610.382834 
L 147.596159 610.196506 
L 148.770603 610.056761 
L 149.173163 609.917015 
L 149.179507 609.885961 
L 150.087896 609.730688 
L 150.608648 609.497779 
L 150.6639 609.420142 
L 152.288518 609.187233 
L 152.293055 609.171706 
L 153.204789 608.985378 
L 153.275135 608.876688 
L 156.751052 608.131378 
L 156.751309 608.115851 
L 156.92259 607.991633 
L 157.632341 607.789778 
L 158.358565 607.66556 
L 158.374691 607.49476 
L 158.800392 607.355014 
L 158.843254 607.308432 
L 159.763175 607.122105 
L 159.775616 606.997887 
L 160.009423 606.873668 
L 160.018278 606.563123 
L 160.253767 606.438904 
L 160.299985 606.392323 
L 160.666235 606.23705 
L 160.87658 606.06625 
L 161.416625 605.942031 
L 161.657937 605.864395 
L 163.119734 605.740177 
L 164.926664 605.383049 
L 164.928035 605.336468 
L 165.598175 605.165667 
L 165.64276 605.088031 
L 166.387087 604.963813 
L 166.736819 604.824067 
L 167.04993 604.513522 
L 168.143699 604.29614 
L 168.244154 604.140867 
L 168.659867 603.970067 
L 168.866122 603.907958 
L 168.977342 603.845849 
L 169.602626 603.72163 
L 169.659014 603.597412 
L 169.844307 603.193703 
L 170.060658 603.069485 
L 170.391652 602.821048 
L 171.438298 602.479448 
L 171.555009 602.277593 
L 171.677831 602.153375 
L 172.244707 601.563338 
L 172.943796 601.392538 
L 173.300888 601.206211 
L 173.361826 601.004356 
L 173.64632 600.864611 
L 173.810501 600.709338 
L 173.906232 600.662756 
L 174.756351 600.538538 
L 174.782299 600.491956 
L 174.971133 600.367738 
L 175.049199 600.290101 
L 175.29574 600.134829 
L 175.448814 599.964028 
L 176.422519 599.762174 
L 176.515153 599.731119 
L 176.841567 599.575846 
L 176.940863 599.49821 
L 177.139966 599.311883 
L 177.297925 599.110028 
L 177.757774 598.98581 
L 177.86372 598.799482 
L 178.227822 598.488937 
L 178.324026 598.349191 
L 178.635631 598.209446 
L 178.692284 598.100755 
L 179.363104 597.976537 
L 179.663412 597.448609 
L 179.706345 597.355445 
L 179.830939 597.2157 
L 179.960649 596.920681 
L 180.090704 596.780936 
L 180.206721 596.656718 
L 180.355581 596.516972 
L 180.3712 596.439336 
L 181.002427 596.29959 
L 181.072056 596.035626 
L 181.272226 595.895881 
L 181.317716 595.78719 
L 181.496413 595.662972 
L 181.817781 595.181626 
L 181.98314 595.057408 
L 182.052232 594.995299 
L 182.66849 594.824499 
L 182.748287 594.607117 
L 182.880617 594.482898 
L 183.141653 594.125771 
L 183.175554 593.986025 
L 183.347038 593.84628 
L 183.505739 593.628898 
L 183.630739 593.489152 
L 183.710046 593.364934 
L 184.282987 593.225189 
L 184.417508 593.054389 
L 184.572826 592.899116 
L 184.712199 592.650679 
L 185.049228 592.355661 
L 185.238461 592.200388 
L 185.451114 592.107224 
L 186.185659 591.983006 
L 186.396589 591.610352 
L 186.652557 591.361915 
L 186.721928 591.206642 
L 186.875108 591.082424 
L 186.928621 591.004788 
L 187.595779 590.865042 
L 188.099785 590.585551 
L 188.322869 590.383696 
L 188.381215 590.30606 
L 188.514196 590.166314 
L 188.580172 589.995514 
L 189.214713 589.824714 
L 189.520615 589.467587 
L 189.893448 589.327841 
L 189.96536 589.063878 
L 190.197481 588.893077 
L 190.209887 588.87755 
L 190.81955 588.753332 
L 191.848214 587.635368 
L 192.454376 587.464568 
L 193.037031 586.781367 
L 193.187605 586.59504 
L 193.309517 586.362131 
L 193.472723 586.222385 
L 193.47612 586.206858 
L 194.139796 586.036058 
L 194.221065 585.818676 
L 194.546387 585.663403 
L 194.713295 585.492603 
L 194.853812 585.368385 
L 195.649062 585.088894 
L 195.753318 584.964675 
L 195.854737 584.793875 
L 196.018409 584.669657 
L 196.048214 584.545439 
L 196.442171 584.405693 
L 196.552329 584.219366 
L 196.794167 583.939875 
L 197.523273 583.800129 
L 197.866124 583.629329 
L 198.111189 583.365366 
L 198.319556 583.116929 
L 198.453763 582.992711 
L 199.027582 582.868493 
L 199.129232 582.635583 
L 199.298399 582.511365 
L 199.601092 582.123183 
L 199.767448 581.843692 
L 199.868753 581.735001 
L 199.979933 581.610783 
L 200.134638 581.471037 
L 200.664137 581.222601 
L 200.714118 581.11391 
L 200.903968 580.974164 
L 201.164302 580.694673 
L 201.274333 580.570455 
L 201.538351 580.415182 
L 201.644969 580.275437 
L 201.712216 580.089109 
L 202.314802 579.949364 
L 202.396374 579.794091 
L 202.570244 579.669873 
L 202.670141 579.483545 
L 202.808916 579.297218 
L 202.89461 579.204054 
L 203.045935 579.079836 
L 203.157447 578.940091 
L 203.300578 578.800345 
L 203.376539 578.6606 
L 204.183119 578.443218 
L 204.252988 578.303472 
L 204.407116 578.179254 
L 204.484235 577.91529 
L 204.649583 577.760017 
L 204.730223 577.57369 
L 204.883116 577.418417 
L 204.987688 577.201035 
L 205.592466 577.045762 
L 205.865342 576.735217 
L 205.981246 576.502308 
L 206.156579 576.300453 
L 206.242756 576.238344 
L 206.856045 576.067544 
L 207.233539 575.943325 
L 207.293662 575.694889 
L 207.508125 575.570671 
L 207.60255 575.46198 
L 207.695488 575.337761 
L 207.820745 574.71667 
L 207.917806 574.576925 
L 208.035243 574.390597 
L 208.207786 574.173215 
L 208.418529 574.03347 
L 208.884961 573.800561 
L 209.922126 572.527324 
L 210.527738 572.403105 
L 210.776351 572.278887 
L 211.145123 572.108087 
L 211.271653 571.952814 
L 211.272255 571.890705 
L 211.426535 571.766487 
L 211.549592 571.564632 
L 212.105137 571.440414 
L 212.416295 571.17645 
L 212.662822 571.052232 
L 212.7364 570.959068 
L 212.885262 570.819323 
L 212.979489 570.586414 
L 213.113315 570.446668 
L 213.180063 570.400086 
L 213.757268 570.275868 
L 214.478416 569.794522 
L 214.754875 569.654777 
L 214.827221 569.592668 
L 215.366512 569.437395 
L 215.485677 569.282122 
L 215.825741 569.049213 
L 216.100738 568.800776 
L 216.16379 568.676558 
L 216.362681 568.521285 
L 216.444898 568.474703 
L 216.905936 568.350485 
L 217.000857 568.195212 
L 217.118418 568.024412 
L 217.221742 567.931249 
L 217.499039 567.543067 
L 217.611261 567.341212 
L 217.725261 567.216994 
L 217.88745 567.030666 
L 218.033514 566.813284 
L 218.669019 566.658012 
L 218.934665 566.394048 
L 218.958354 566.223248 
L 219.03882 564.996593 
L 219.190611 564.872374 
L 219.303743 564.002847 
L 219.402825 563.863101 
L 219.490491 563.599137 
L 220.265437 563.381755 
L 220.89424 562.714082 
L 221.217425 562.55881 
L 221.308195 562.372482 
L 222.040766 562.232737 
L 222.381044 562.092991 
L 222.486882 561.937718 
L 222.924556 561.720336 
L 223.837271 561.254518 
L 224.121646 560.835281 
L 224.282273 560.680009 
L 224.621835 560.307354 
L 225.258242 560.121027 
L 225.610753 559.763899 
L 225.732995 559.624154 
L 225.88387 559.577572 
L 226.005619 559.453353 
L 226.082884 559.344662 
L 226.220494 559.204917 
L 226.31656 559.142808 
L 226.883404 558.972008 
L 226.974342 558.84779 
L 227.200897 558.552771 
L 227.287244 558.475135 
L 227.370645 558.350917 
L 227.456158 557.916153 
L 227.850247 557.574553 
L 227.90496 557.434807 
L 228.529407 557.310589 
L 229.27559 556.223679 
L 229.372112 556.052879 
L 229.455926 555.913133 
L 229.680514 555.711279 
L 229.696036 555.680224 
L 230.196569 555.556006 
L 230.35096 555.400733 
L 230.596174 555.183351 
L 230.923964 554.717533 
L 231.120919 554.438042 
L 231.194071 554.267242 
L 231.763916 554.096442 
L 232.032003 553.739314 
L 232.22905 553.226914 
L 232.718385 552.885314 
L 232.889552 552.652405 
L 233.424482 552.45055 
L 234.492612 550.959931 
L 235.185845 550.758076 
L 235.256183 550.618331 
L 235.538415 550.447531 
L 235.884682 550.183567 
L 236.280256 549.919603 
L 236.692949 549.748803 
L 236.848066 549.546948 
L 236.995506 549.438257 
L 237.269219 549.282985 
L 237.345647 549.189821 
L 237.662279 549.019021 
L 237.731179 548.879275 
L 238.360079 548.755057 
L 238.468877 548.708475 
L 238.696201 548.475566 
L 238.953938 548.335821 
L 239.18484 548.133966 
L 239.345749 547.916584 
L 239.743836 547.776838 
L 239.89551 547.637093 
L 240.005563 547.404184 
L 241.084327 546.705456 
L 241.548191 546.581238 
L 241.78398 546.193056 
L 242.163284 545.727237 
L 242.237786 545.525383 
L 242.368835 545.401165 
L 242.442266 545.245892 
L 242.629946 545.090619 
L 242.717678 544.981928 
L 243.723238 544.485055 
L 244.036647 544.143455 
L 244.829176 543.879491 
L 244.940767 543.755273 
L 245.125814 543.351564 
L 246.18495 542.637309 
L 246.547424 542.51309 
L 246.818418 542.326763 
L 247.51573 542.109381 
L 248.453298 541.969636 
L 248.810842 541.783308 
L 249.805676 541.643563 
L 249.930508 541.503817 
L 251.508546 540.649817 
L 251.565608 540.510071 
L 251.755407 540.370326 
L 251.845408 540.292689 
L 252.434334 540.013198 
L 252.53386 539.88898 
L 253.57359 539.516325 
L 253.685406 539.392107 
L 253.817186 539.236834 
L 253.95864 538.833125 
L 254.067286 538.708907 
L 254.258762 538.46047 
L 254.743787 538.274143 
L 254.809373 538.025706 
L 254.973495 537.885961 
L 255.055118 537.668579 
L 255.333422 537.528833 
L 255.47227 537.358033 
L 256.113287 536.566142 
L 256.435394 536.224542 
L 256.528535 536.162433 
L 256.6514 535.976105 
L 256.732454 535.83636 
L 256.898745 535.696614 
L 257.007603 535.370541 
L 257.086515 535.230796 
L 257.190627 535.044468 
L 257.555086 534.57865 
L 258.061116 534.205995 
L 258.168563 533.957559 
L 258.448425 533.771231 
L 258.983642 532.187449 
L 259.074394 532.063231 
L 259.556061 531.861376 
L 259.678205 531.706103 
L 259.901699 531.519776 
L 260.014897 531.333448 
L 260.173172 531.162648 
L 260.284262 531.069485 
L 260.420336 530.929739 
L 260.507452 530.619193 
L 260.595715 530.463921 
L 260.741321 530.215484 
L 260.910055 530.075739 
L 260.956369 530.044684 
L 261.271305 529.904939 
L 262.494665 527.405046 
L 262.971412 527.110028 
L 263.581326 525.8989 
L 263.645857 525.743627 
L 263.943673 525.029372 
L 264.577287 524.64119 
L 264.696902 524.485918 
L 265.003636 524.29959 
L 265.1535 523.973517 
L 265.682615 523.10399 
L 266.203757 522.93319 
L 266.308598 522.684753 
L 266.485699 522.513953 
L 266.576218 522.35868 
L 266.667455 522.218935 
L 266.804176 522.125771 
L 266.946253 521.939444 
L 267.105669 521.395989 
L 269.072706 520.24697 
L 269.523611 520.122752 
L 269.717697 519.983006 
L 270.026647 519.796679 
L 270.053199 519.703515 
L 270.409432 519.532715 
L 271.468774 518.98926 
L 271.597835 518.81846 
L 271.923574 518.492387 
L 272.077567 518.368169 
L 272.155587 518.212896 
L 272.929877 518.026569 
L 273.257792 517.778132 
L 273.347327 517.62286 
L 273.577176 517.38995 
L 273.589702 517.358896 
L 273.789358 517.21915 
L 274.389666 516.799914 
L 274.525575 516.582532 
L 274.650217 516.442786 
L 274.873803 516.054604 
L 275.638593 515.557731 
L 276.069565 515.417986 
L 276.125287 515.324822 
L 276.359144 515.185077 
L 277.082007 514.42424 
L 277.704796 514.237912 
L 277.818419 514.160276 
L 277.951924 514.020531 
L 278.090236 513.973949 
L 278.660828 513.228639 
L 278.770461 513.135476 
L 279.204754 512.99573 
L 279.308688 512.871512 
L 279.570482 512.623075 
L 280.048586 512.14173 
L 280.15308 512.07962 
L 280.268209 511.955402 
L 280.309351 511.846711 
L 280.662772 511.706966 
L 280.748805 511.56722 
L 280.871565 511.39642 
L 280.984694 511.101402 
L 281.238673 510.418201 
L 281.321144 509.688419 
L 281.46729 509.517619 
L 281.613646 509.207074 
L 281.940204 508.834419 
L 281.993178 508.77231 
L 282.567275 508.523873 
L 282.812288 508.120164 
L 282.950101 507.731982 
L 283.206025 506.971145 
L 283.369521 506.738236 
L 283.483823 506.536381 
L 283.765912 505.899763 
L 283.989444 505.760017 
L 284.086938 505.620272 
L 284.372045 505.433944 
L 284.625569 505.076817 
L 284.700888 504.874962 
L 285.002752 504.098598 
L 285.463273 503.322234 
L 285.857305 503.12038 
L 285.964803 502.514816 
L 286.111143 502.390597 
L 286.158486 502.095579 
L 286.335228 501.800561 
L 286.393636 501.567651 
L 286.485 501.412379 
L 286.56256 501.272633 
L 286.674294 500.931033 
L 287.348576 500.325469 
L 287.523289 500.030451 
L 287.846008 499.51805 
L 287.939964 499.362778 
L 288.264127 498.49325 
L 288.422755 498.353504 
L 288.5783 497.918741 
L 288.945999 497.74794 
L 289.045338 497.608195 
L 289.185107 497.375286 
L 289.305737 497.126849 
L 289.395024 497.002631 
L 289.499347 496.692085 
L 289.672684 496.366013 
L 289.951936 495.80703 
L 290.102738 495.605176 
L 290.227687 495.480958 
L 290.773263 495.154885 
L 290.810821 495.061721 
L 291.034011 494.921975 
L 291.863692 493.291611 
L 292.556077 493.105284 
L 293.40775 492.158119 
L 293.457929 492.064956 
L 294.050279 491.940738 
L 294.149642 491.723356 
L 294.339492 491.537028 
L 294.453898 491.443865 
L 294.597822 491.210955 
L 294.743141 491.024628 
L 295.016255 490.698555 
L 295.102334 490.605391 
L 295.6004 490.434591 
L 295.754157 490.186155 
L 295.990233 489.8135 
L 296.200045 489.502954 
L 296.314301 489.409791 
L 296.534355 489.207936 
L 296.727761 489.052663 
L 296.905901 488.990554 
L 297.354952 488.773172 
L 297.404809 488.648954 
L 297.789533 488.462627 
L 298.342453 488.027863 
L 298.959906 487.903645 
L 299.462376 487.282553 
L 299.595495 486.95648 
L 299.69894 486.816735 
L 299.858012 486.661462 
L 300.137996 486.366444 
L 300.616284 486.242226 
L 300.742021 486.133535 
L 301.023994 485.916153 
L 301.130763 485.559025 
L 301.320783 485.388225 
L 301.37671 485.18637 
L 301.491173 484.968989 
L 301.563169 484.829243 
L 301.674676 484.689498 
L 302.225442 484.50317 
L 302.936261 483.431788 
L 303.069452 483.121242 
L 303.17185 482.981497 
L 303.25642 482.639896 
L 303.673691 482.469096 
L 303.857798 482.329351 
L 303.897193 482.174078 
L 304.127958 481.816951 
L 304.270183 481.506405 
L 304.437541 481.211387 
L 304.609843 480.96295 
L 304.763755 480.636877 
L 304.855094 480.481604 
L 305.155165 480.248695 
L 305.513627 480.093422 
L 305.787364 479.177313 
L 305.897864 478.897822 
L 306.010558 478.742549 
L 306.324161 477.99724 
L 306.402861 477.841967 
L 306.536064 477.469312 
L 306.605502 477.42273 
L 307.102401 477.282985 
L 307.212797 477.158766 
L 307.403013 476.925857 
L 307.52898 476.428984 
L 308.309126 475.016002 
L 308.706845 474.705456 
L 308.884491 474.28622 
L 309.060613 474.130947 
L 309.207435 474.006728 
L 309.284965 473.851456 
L 309.439909 473.649601 
L 310.969524 471.631055 
L 311.067183 471.522364 
L 311.164504 471.320509 
L 311.338456 471.025491 
L 311.427899 470.839163 
L 311.515915 470.761527 
L 312.055832 470.590727 
L 312.30197 470.264654 
L 312.460844 470.109381 
L 312.594068 469.845417 
L 312.806558 469.565926 
L 313.050355 469.395126 
L 313.264311 469.162217 
L 313.7802 469.006944 
L 313.981541 468.665344 
L 314.206806 467.795816 
L 314.287544 467.593962 
L 314.396296 467.516325 
L 314.69 467.003925 
L 314.777659 466.833125 
L 314.963616 466.63127 
L 315.666178 466.103343 
L 315.86526 465.233815 
L 315.971363 464.472978 
L 316.092958 464.240069 
L 316.231442 463.976105 
L 316.312169 463.820832 
L 316.422649 463.463705 
L 316.529316 463.323959 
L 317.03252 463.106578 
L 317.76142 462.174941 
L 317.962623 462.019668 
L 318.045332 461.89545 
L 318.621448 461.693595 
L 318.707736 461.522795 
L 318.887159 461.383049 
L 318.956993 461.119086 
L 319.146166 460.948286 
L 319.246388 460.855122 
L 319.585249 460.513522 
L 319.684033 460.435885 
L 320.503701 459.706103 
L 321.338824 458.743412 
L 321.616573 458.603666 
L 322.153543 457.687557 
L 322.265798 457.454647 
L 322.374696 457.26832 
L 322.484884 457.113047 
L 322.594929 456.864611 
L 322.965069 456.35221 
L 323.501692 456.196938 
L 323.737671 455.917447 
L 323.861059 455.15661 
L 324.017717 454.877119 
L 324.540604 451.818245 
L 324.719879 451.678499 
L 324.800437 451.631917 
L 325.147268 451.492172 
L 325.260473 451.228208 
L 325.40936 450.948717 
L 325.685738 449.67548 
L 325.816644 449.535734 
L 326.191492 449.411516 
L 326.83878 449.256243 
L 326.910399 449.147552 
L 327.038376 449.007807 
L 327.12436 448.743843 
L 327.295896 448.479879 
L 327.602077 447.361915 
L 327.682424 446.243951 
L 327.830463 446.057623 
L 328.051454 445.700496 
L 328.447458 445.56075 
L 328.501478 445.38995 
L 328.614889 445.172568 
L 328.734913 445.032823 
L 328.838196 444.660168 
L 328.9565 444.458314 
L 329.068256 443.868277 
L 329.746691 442.843476 
L 330.034438 442.688204 
L 330.139685 442.517403 
L 331.00026 441.67893 
L 331.121229 441.50813 
L 331.208882 441.477076 
L 331.727898 441.33733 
L 331.884844 441.182057 
L 332.122881 441.042312 
L 332.317203 440.887039 
L 332.461856 440.700712 
L 332.555566 440.343584 
L 333.606432 440.048566 
L 334.246945 439.56722 
L 335.235064 439.380893 
L 335.543651 438.88402 
L 335.714219 438.759802 
L 335.746825 438.573474 
L 336.008013 438.449256 
L 336.02928 438.387147 
L 336.582246 438.231874 
L 336.70296 438.030019 
L 336.796608 437.936856 
L 336.978768 437.812637 
L 337.134892 437.486565 
L 337.90066 436.803364 
L 338.275061 436.679146 
L 338.379731 436.523873 
L 338.568831 436.353073 
L 338.702366 436.151218 
L 338.772395 435.949364 
L 338.938998 435.840673 
L 339.21095 435.638818 
L 339.280362 435.5146 
L 340.195414 435.266163 
L 340.438358 434.877981 
L 340.488712 434.365581 
L 340.645092 434.241363 
L 340.761328 434.101617 
L 341.468769 433.806599 
L 341.516039 433.387363 
L 341.803759 433.216562 
L 341.92329 433.138926 
L 343.060263 432.595471 
L 343.258179 432.471253 
L 343.36642 432.347035 
L 343.457399 432.191762 
L 343.510029 432.098598 
L 343.907342 431.912271 
L 344.043963 431.694889 
L 344.175757 431.555143 
L 344.281209 431.337761 
L 344.483319 431.182489 
L 344.937074 431.042743 
L 345.04899 430.902998 
L 345.333565 430.54587 
L 345.832493 430.095579 
L 346.097605 429.955834 
L 346.159109 429.924779 
L 346.567417 429.769506 
L 347.143425 429.427906 
L 347.420361 429.101833 
L 348.109125 428.651542 
L 348.22833 428.139142 
L 348.44447 427.92176 
L 348.920799 426.788268 
L 349.040601 426.632995 
L 349.094429 426.337977 
L 349.195054 425.654777 
L 349.568261 425.483977 
L 349.671032 425.313177 
L 349.710213 425.142377 
L 349.829459 423.915721 
L 350.252378 422.999612 
L 350.323608 422.844339 
L 350.535529 421.86612 
L 350.734613 421.369247 
L 350.852503 420.592883 
L 351.351129 420.422083 
L 351.394341 420.282338 
L 351.582635 418.372482 
L 351.637387 417.937718 
L 351.77313 417.658227 
L 351.850275 417.518482 
L 351.976435 417.192409 
L 352.141352 417.052663 
L 352.509146 416.447099 
L 352.98633 416.183136 
L 353.096861 415.717317 
L 353.240035 415.562044 
L 353.767914 415.049644 
L 353.87752 414.925426 
L 354.061202 414.78568 
L 354.690487 414.552771 
L 354.745414 414.475135 
L 354.899312 414.350917 
L 355.021367 414.226698 
L 355.2799 413.93168 
L 355.374937 413.838516 
L 355.682154 413.667716 
L 355.722475 413.636662 
L 356.283204 413.496916 
L 356.442463 413.326116 
L 357.036306 412.720552 
L 357.312917 412.596334 
L 357.940601 412.410006 
L 359.193377 411.385206 
L 359.789555 411.229933 
L 359.883795 411.121242 
L 360.18788 410.934915 
L 360.349255 410.702006 
L 360.551294 410.577787 
L 360.601622 410.158551 
L 361.211414 409.972223 
L 361.348972 409.568514 
L 361.462186 408.978477 
L 361.728263 408.683459 
L 361.838819 408.481604 
L 361.9889 408.326332 
L 362.149235 408.077895 
L 362.228645 407.829459 
L 363.047289 407.503386 
L 363.236004 407.36364 
L 363.475447 407.19284 
L 363.608945 406.820185 
L 363.756651 406.633858 
L 363.866955 405.93513 
L 364.540736 405.686694 
L 364.63674 405.578003 
L 364.828239 405.42273 
L 365.364121 404.615312 
L 365.477841 404.460039 
L 365.538636 404.335821 
L 366.164052 404.118439 
L 366.285271 403.854475 
L 366.403493 403.699202 
L 366.501537 403.606038 
L 366.717926 403.435238 
L 366.841268 403.357602 
L 366.938082 403.217856 
L 367.051664 401.571965 
L 367.688737 400.68691 
L 367.782718 400.531637 
L 367.927861 400.267673 
L 368.02973 400.127928 
L 368.139179 399.848436 
L 368.302319 399.553418 
L 368.357918 399.382618 
L 368.467825 399.2584 
L 368.595463 399.009963 
L 368.761683 398.808109 
L 368.832414 398.590727 
L 369.514514 398.249127 
L 369.606612 397.379599 
L 369.884475 397.053526 
L 370.030851 396.385853 
L 370.112181 395.873453 
L 370.212953 392.364287 
L 370.34988 392.17796 
L 370.458164 391.789778 
L 371.051448 391.106578 
L 371.394976 390.283632 
L 371.506551 390.159413 
L 371.599988 389.848868 
L 371.712887 389.740177 
L 371.841062 389.507268 
L 371.957827 389.289886 
L 371.987638 389.15014 
L 372.252539 388.560104 
L 372.505548 388.140867 
L 372.733888 387.271339 
L 372.840961 386.52603 
L 372.956778 386.35523 
L 373.051382 386.12232 
L 373.178086 385.904939 
L 373.27471 385.594393 
L 373.293935 385.43912 
L 373.385543 385.330429 
L 373.436226 385.175156 
L 373.534958 384.227992 
L 373.606577 384.103774 
L 373.748916 383.544792 
L 374.154418 383.451628 
L 374.312585 383.296355 
L 374.49738 382.566573 
L 374.561853 382.442355 
L 374.716114 381.945482 
L 374.824994 381.790209 
L 374.935068 381.370973 
L 375.027253 381.231227 
L 375.137576 380.8741 
L 375.211495 380.718827 
L 375.322447 380.330645 
L 375.817986 379.476644 
L 375.971193 379.321372 
L 376.120594 378.995299 
L 376.22505 378.855553 
L 376.309488 378.622644 
L 376.399584 378.482898 
L 376.522051 378.141298 
L 376.714637 377.939444 
L 376.75716 377.861807 
L 376.868873 377.737589 
L 376.982155 377.364934 
L 377.207111 377.302825 
L 377.774215 377.116498 
L 377.82565 377.069916 
L 378.097757 376.93017 
L 378.362924 376.666207 
L 378.577833 376.541988 
L 378.671018 376.479879 
L 379.213311 376.231443 
L 379.321039 376.029588 
L 379.531368 375.874315 
L 379.656411 375.703515 
L 380.24768 375.051369 
L 380.863467 374.911624 
L 381.381497 373.902351 
L 381.569204 373.653914 
L 381.684029 373.483114 
L 381.910411 373.265732 
L 381.94386 373.21915 
L 382.489243 373.079405 
L 382.633322 372.846496 
L 382.846083 372.70675 
L 383.004266 372.427259 
L 383.127237 372.287513 
L 383.284714 372.163295 
L 383.383907 372.039077 
L 383.928432 371.728531 
L 384.132619 371.604313 
L 384.319145 371.247186 
L 384.547466 371.060858 
L 385.411861 369.958421 
L 385.764068 369.803149 
L 385.873227 369.50813 
L 386.184547 369.228639 
L 386.292676 369.104421 
L 386.508455 368.592021 
L 386.61915 368.31253 
L 387.0116 368.017511 
L 387.444306 367.815657 
L 387.800712 367.272202 
L 388.642407 366.511365 
L 389.089909 366.340565 
L 389.147404 366.247401 
L 389.317046 366.123183 
L 389.430647 365.952383 
L 389.665074 365.750528 
L 389.940285 365.28471 
L 390.281503 364.725728 
L 390.865498 364.353073 
L 391.22986 363.902782 
L 391.506908 363.763036 
L 391.690484 363.3438 
L 392.010971 362.877981 
L 392.121508 362.707181 
L 392.199843 362.567436 
L 392.272581 362.350054 
L 392.430583 362.194781 
L 392.554234 362.055036 
L 392.978757 361.138926 
L 393.076129 360.968126 
L 393.286761 360.362562 
L 393.504875 360.238344 
L 393.913059 360.098598 
L 394.36373 359.63278 
L 394.475443 359.524089 
L 395.150342 358.71667 
L 395.535081 358.54587 
L 395.636083 358.37507 
L 395.927184 357.971361 
L 396.039377 357.800561 
L 396.833151 356.931033 
L 396.917451 356.309942 
L 397.276809 356.077033 
L 397.425428 355.890705 
L 397.534898 355.75096 
L 397.653532 355.440414 
L 397.799742 355.254087 
L 397.894677 354.928014 
L 398.072358 354.788268 
L 398.577069 354.446668 
L 398.939215 354.306923 
L 399.370827 353.934268 
L 399.462218 353.794522 
L 399.603238 353.654777 
L 399.725497 353.40634 
L 400.082784 353.126849 
L 400.491571 352.987104 
L 400.550884 352.816304 
L 400.853817 352.676558 
L 401.151479 352.319431 
L 401.330123 352.102049 
L 401.562846 351.853612 
L 402.16719 351.651758 
L 402.260516 351.480958 
L 402.438869 351.310157 
L 402.569162 351.092776 
L 402.791101 350.766703 
L 403.36224 349.912702 
L 403.725822 349.679793 
L 403.847981 349.540047 
L 404.19612 349.167393 
L 404.314748 348.950011 
L 404.555739 348.592883 
L 404.672384 348.468665 
L 404.850697 348.235756 
L 405.413542 348.002847 
L 405.434498 347.816519 
L 405.543941 346.636446 
L 405.579443 346.310373 
L 405.677057 346.1551 
L 405.927861 345.751391 
L 406.062315 345.580591 
L 406.535543 345.021609 
L 407.101059 344.850809 
L 407.206449 344.260772 
L 407.419541 343.981281 
L 408.144625 343.158335 
L 408.555473 342.972008 
L 408.699555 342.78568 
L 408.811603 342.692517 
L 409.642611 341.527971 
L 409.85433 341.372698 
L 410.286099 340.953461 
L 410.687014 340.363425 
L 410.797058 339.851024 
L 410.98379 339.354151 
L 411.580667 339.105715 
L 411.978792 338.981497 
L 412.278299 338.608842 
L 412.569392 338.406987 
L 412.636696 338.329351 
L 412.774815 338.189605 
L 412.857503 338.018805 
L 413.859279 337.521932 
L 413.951889 337.444296 
L 414.111175 337.30455 
L 414.652983 336.978477 
L 415.352996 336.574768 
L 415.387553 336.497132 
L 415.629166 336.372914 
L 415.641142 336.093422 
L 415.745138 335.751822 
L 416.991678 333.810912 
L 417.11969 333.531421 
L 417.226308 333.282985 
L 417.302632 333.25193 
L 417.469752 333.065603 
L 417.578838 332.879275 
L 417.684781 332.724003 
L 417.935409 332.382402 
L 417.993446 332.16502 
L 418.697951 331.947639 
L 418.969705 331.48182 
L 419.034092 331.357602 
L 419.146964 330.79862 
L 419.361302 330.410438 
L 420.426921 329.727237 
L 420.497605 329.075092 
L 420.60973 328.671382 
L 420.68382 328.531637 
L 421.770719 326.637309 
L 421.842019 326.482036 
L 422.000866 326.140436 
L 422.464857 325.581454 
L 422.548523 325.115635 
L 422.876578 324.836144 
L 423.038876 324.541126 
L 423.226342 324.40138 
L 423.346144 324.137416 
L 424.524952 321.77727 
L 425.001355 321.544361 
L 425.10412 321.404615 
L 425.119225 321.187233 
L 425.232333 320.022687 
L 425.487604 319.479232 
L 425.619983 319.308432 
L 425.73385 319.153159 
L 426.407042 318.268104 
L 426.507397 317.49174 
L 426.75987 317.243304 
L 426.969614 316.97934 
L 427.661658 316.016649 
L 427.765537 315.830321 
L 427.948823 315.752685 
L 428.339233 315.628467 
L 428.482878 315.333448 
L 428.71692 315.053957 
L 429.515961 313.967048 
L 429.818144 313.827302 
L 429.901379 313.703084 
L 430.011792 312.600647 
L 431.19998 304.371188 
L 431.382752 304.091697 
L 431.745261 302.771878 
L 431.85433 302.150787 
L 431.970968 301.762605 
L 432.211257 300.893077 
L 432.310401 300.53595 
L 432.419418 299.868277 
L 432.449246 299.61984 
L 432.558217 298.998749 
L 432.607795 298.719258 
L 432.716856 297.647876 
L 432.875483 296.467802 
L 432.984539 295.272202 
L 433.103509 294.402674 
L 433.21257 293.160492 
L 433.24231 292.912055 
L 433.352539 291.576709 
L 433.391026 291.266163 
L 433.500096 289.977399 
L 433.529836 289.728963 
L 433.638889 288.502308 
L 433.668632 288.253871 
L 433.778828 286.934052 
L 433.857003 286.576925 
L 433.966064 285.924779 
L 434.223757 285.11736 
L 434.509002 284.760233 
L 434.592797 284.682597 
L 434.838108 284.527324 
L 435.236751 284.247833 
L 435.389736 284.123614 
L 435.706395 283.859651 
L 435.829764 283.611214 
L 435.909077 283.285141 
L 436.018146 282.648523 
L 436.087533 282.337977 
L 436.196594 281.918741 
L 436.246166 281.63925 
L 436.355227 281.282122 
L 436.424625 280.971576 
L 436.533686 280.474703 
L 436.593167 280.179685 
L 436.732424 279.108303 
L 436.8432 277.679793 
L 436.880593 277.369247 
L 436.989648 277.245029 
L 437.495255 276.732629 
L 437.733206 276.468665 
L 438.13086 276.26681 
L 438.253975 275.987319 
L 438.486104 275.676774 
L 438.602837 275.335174 
L 438.774231 275.164374 
L 438.871845 274.931464 
L 439.981108 273.953246 
L 440.087233 273.844555 
L 440.319947 273.658227 
L 440.401018 273.502954 
L 440.469598 273.378736 
L 440.574655 273.099245 
L 440.856246 272.7887 
L 440.96531 272.664481 
L 441.358315 272.478154 
L 441.460972 272.338408 
L 441.570077 271.981281 
L 442.27081 271.391244 
L 442.387968 271.282553 
L 442.760785 271.065171 
L 442.918443 270.754626 
L 443.01659 270.506189 
L 443.73615 269.916153 
L 445.947041 266.655424 
L 446.452675 266.329351 
L 447.681935 264.900841 
L 447.909964 264.745568 
L 447.983791 264.698986 
L 448.366029 264.45055 
L 450.010236 263.068622 
L 450.13098 262.897822 
L 450.324826 262.727022 
L 450.563104 262.245676 
L 451.320597 261.500367 
L 451.67301 260.863748 
L 451.994553 260.630839 
L 452.0937 260.335821 
L 452.39211 260.102911 
L 452.462665 260.05633 
L 452.820255 259.916584 
L 453.030935 259.65262 
L 453.380006 259.435238 
L 453.621478 259.14022 
L 453.769658 258.922838 
L 453.888335 258.720983 
L 453.961656 258.534656 
L 454.195365 258.394911 
L 455.557733 257.339055 
L 455.647726 257.012983 
L 456.211005 256.531637 
L 456.33614 256.050291 
L 456.632182 255.398145 
L 456.72483 255.2584 
L 456.832707 255.009963 
L 457.03426 254.808109 
L 457.180291 254.590727 
L 457.942898 254.093854 
L 458.050645 254.016217 
L 458.283349 253.845417 
L 458.349388 253.721199 
L 458.517935 253.596981 
L 458.62195 253.441708 
L 458.845116 253.193272 
L 458.944181 253.037999 
L 459.814947 252.789562 
L 460.16107 252.23058 
L 460.272639 252.013198 
L 460.778268 251.361052 
L 461.214385 251.14367 
L 461.406069 250.926289 
L 461.541397 250.63127 
L 461.616571 250.475997 
L 461.85865 250.336252 
L 462.172397 250.025706 
L 462.473345 249.854906 
L 462.761992 249.544361 
L 462.886637 249.420142 
L 462.999762 249.295924 
L 463.041584 249.20276 
L 463.346237 249.063015 
L 463.934743 248.302178 
L 464.417065 247.976105 
L 464.821681 247.525814 
L 465.146033 247.246323 
L 465.405893 246.951305 
L 465.444128 246.842614 
L 465.893716 246.671814 
L 466.277718 246.268104 
L 466.676921 246.097304 
L 467.123055 245.522795 
L 467.56585 245.32094 
L 471.70321 241.377011 
L 471.834519 241.206211 
L 471.916692 241.066465 
L 472.13933 240.693811 
L 472.476419 240.491956 
L 472.576961 239.855338 
L 472.66479 239.684537 
L 472.756831 239.606901 
L 472.932796 239.467155 
L 473.188587 239.203192 
L 473.37867 238.970283 
L 473.914044 238.333664 
L 474.23639 238.193918 
L 474.363716 238.054173 
L 476.265335 236.563554 
L 476.590815 236.346172 
L 476.699876 236.004572 
L 476.828763 235.895881 
L 476.967567 235.725081 
L 477.136369 235.585335 
L 477.51272 235.399008 
L 477.790042 235.181626 
L 478.011623 234.917662 
L 478.251113 234.70028 
L 478.464638 234.405262 
L 479.67025 233.33388 
L 479.75783 233.271771 
L 479.977845 233.069916 
L 480.086389 232.992279 
L 480.159826 232.821479 
L 480.19036 232.75937 
L 480.467085 232.619625 
L 480.566124 232.557516 
L 480.829145 232.402243 
L 482.113853 231.175588 
L 482.48062 230.958206 
L 482.59086 230.865042 
L 482.777088 230.64766 
L 482.882072 230.523442 
L 483.032029 230.352642 
L 483.401383 230.011042 
L 483.570535 229.917878 
L 484.028046 229.762605 
L 484.149893 229.62286 
L 484.469499 229.45206 
L 484.615948 229.281259 
L 485.09996 228.955187 
L 486.297586 228.271986 
L 486.402947 228.147768 
L 486.629751 227.976968 
L 486.711063 227.883804 
L 487.344928 227.604313 
L 487.747848 227.169549 
L 488.077104 226.781367 
L 488.206665 226.610567 
L 488.761194 226.25344 
L 488.820681 226.191331 
L 489.037381 226.051585 
L 489.787418 224.949148 
L 489.923806 224.762821 
L 490.020331 224.343584 
L 490.436727 224.172784 
L 490.585443 224.017511 
L 490.690124 223.800129 
L 490.912775 223.613802 
L 490.985508 223.536166 
L 491.259624 223.334311 
L 491.358774 223.147984 
L 491.477671 222.915074 
L 491.586791 222.790856 
L 491.824647 222.54242 
L 491.913877 222.418201 
L 492.102332 222.185292 
L 492.354864 222.045547 
L 492.750346 221.750528 
L 493.268451 221.300237 
L 493.381221 221.176019 
L 493.500191 220.989692 
L 493.599636 220.834419 
L 494.967502 219.607764 
L 495.05664 219.5146 
L 495.478099 219.3438 
L 496.400368 218.645072 
L 496.494092 218.59849 
L 496.72731 218.303472 
L 496.801432 218.225836 
L 497.151722 218.08609 
L 497.806546 217.666854 
L 498.379872 216.999181 
L 498.742289 216.82838 
L 498.975627 216.626526 
L 499.523711 216.253871 
L 499.775691 215.989907 
L 500.209275 215.725943 
L 500.576173 215.415398 
L 500.669409 215.275652 
L 501.163284 215.05827 
L 501.440887 214.778779 
L 501.83746 214.592452 
L 502.808634 213.69187 
L 502.914729 213.583179 
L 503.116208 213.365797 
L 503.297563 213.272633 
L 503.664282 213.086306 
L 504.24133 212.837869 
L 504.326512 212.760233 
L 504.642803 212.60496 
L 504.76177 212.449687 
L 504.841077 212.201251 
L 505.178175 211.999396 
L 506.138075 211.378305 
L 506.247307 211.145396 
L 506.377825 210.990123 
L 506.595939 210.819323 
L 506.843793 210.679577 
L 507.022263 210.400086 
L 507.434797 209.918741 
L 507.795388 209.654777 
L 508.102434 209.375286 
L 508.499223 209.111322 
L 508.595203 209.018158 
L 508.880047 208.800776 
L 509.008848 208.645504 
L 509.378262 208.334958 
L 510.898599 207.29463 
L 511.027147 207.139357 
L 511.123929 207.015139 
L 511.301906 206.78223 
L 511.461839 206.658012 
L 512.165873 206.005866 
L 512.495261 205.679793 
L 512.728961 205.52452 
L 512.959054 205.245029 
L 513.070144 205.136338 
L 513.446016 204.950011 
L 513.844063 204.515247 
L 514.333227 204.142592 
L 514.497194 204.002847 
L 514.986859 203.723356 
L 515.079469 203.58361 
L 515.42296 203.397283 
L 515.880173 203.024628 
L 515.986447 202.915937 
L 516.128028 202.776192 
L 516.425451 202.55881 
L 516.812132 202.419064 
L 517.099088 202.1551 
L 517.240412 201.953246 
L 517.536695 201.704809 
L 517.756824 201.440845 
L 518.051306 201.114772 
L 518.779156 200.6179 
L 518.996687 200.353936 
L 519.247635 200.121027 
L 519.707769 199.779426 
L 520.195118 199.546517 
L 520.520131 199.111753 
L 520.628946 198.925426 
L 520.826237 198.692517 
L 521.071599 198.055898 
L 521.342509 197.838516 
L 521.471393 197.791934 
L 521.762126 197.621134 
L 521.872412 197.543498 
L 522.012015 197.388225 
L 522.679246 196.829243 
L 523.854846 196.006297 
L 523.917629 195.928661 
L 524.157929 195.742333 
L 524.248599 195.493897 
L 524.409375 195.323097 
L 524.484898 195.276515 
L 524.988793 195.059133 
L 525.081845 194.934915 
L 525.78896 194.422515 
L 526.056565 194.080914 
L 526.149015 194.034333 
L 526.759214 193.785896 
L 527.435931 193.102696 
L 527.510175 192.916368 
L 527.984676 192.652405 
L 528.090154 192.481604 
L 528.450721 192.233168 
L 529.195768 191.549968 
L 529.289059 191.379168 
L 530.168842 190.789131 
L 530.280029 190.695967 
L 530.393441 190.556222 
L 530.633808 190.292258 
L 530.708784 190.152512 
L 530.936598 189.733276 
L 531.938746 189.096657 
L 532.042592 189.034548 
L 532.338095 188.73953 
L 532.483745 188.56873 
L 533.166107 188.180548 
L 533.28606 188.040802 
L 533.977709 187.435238 
L 534.023643 187.109165 
L 534.217962 186.96942 
L 534.32702 186.860729 
L 534.56496 186.736511 
L 535.021039 186.270692 
L 535.100565 186.177529 
L 535.365656 185.960147 
L 535.449706 185.71171 
L 535.54651 185.308001 
L 536.111032 184.842182 
L 536.159236 184.780073 
L 536.454311 184.655855 
L 536.924464 184.252146 
L 537.131656 184.065818 
L 537.231626 183.895018 
L 537.372175 183.708691 
L 537.49915 183.522364 
L 538.075558 183.180763 
L 538.17442 182.994436 
L 538.481019 182.761527 
L 538.827335 182.51309 
L 538.933018 182.388872 
L 539.322496 182.202545 
L 539.798788 181.907526 
L 539.93902 181.814363 
L 542.174952 179.625016 
L 542.456339 179.423162 
L 542.663179 179.298943 
L 543.311632 178.97287 
L 543.847217 178.28967 
L 545.470345 177.466724 
L 545.729956 177.326979 
L 545.820672 177.233815 
L 546.463022 176.985378 
L 546.589171 176.86116 
L 546.886586 176.69036 
L 547.3204 176.022687 
L 547.47263 175.66556 
L 547.908774 175.479232 
L 548.444349 174.997887 
L 550.077929 174.019668 
L 550.873042 173.056976 
L 551.319128 172.870649 
L 551.425353 172.730904 
L 551.648976 172.482467 
L 551.948722 172.29614 
L 552.072559 172.171922 
L 552.309706 172.001121 
L 553.404331 171.178176 
L 553.499975 171.116066 
L 553.791461 170.727884 
L 553.895827 170.588139 
L 554.084878 170.463921 
L 554.402131 170.308648 
L 554.656402 170.091266 
L 554.895499 169.904939 
L 555.068559 169.749666 
L 555.222571 169.578866 
L 555.266598 169.377011 
L 555.353726 169.237265 
L 555.611494 169.066465 
L 555.899009 168.771447 
L 556.166151 168.58512 
L 556.272644 168.41432 
L 556.691557 168.088247 
L 557.623848 167.249774 
L 558.083034 167.078973 
L 558.308955 166.799482 
L 558.526738 166.613155 
L 558.702296 166.504464 
L 559.281435 166.038646 
L 559.556771 165.805736 
L 559.876171 165.541773 
L 560.713921 164.998318 
L 561.084565 164.811991 
L 561.321969 164.485918 
L 561.76981 164.066681 
L 561.991724 163.756135 
L 562.097031 163.554281 
L 562.483676 163.352426 
L 563.005972 163.166099 
L 563.128637 163.026353 
L 563.891095 161.970498 
L 565.037131 161.256243 
L 565.127116 161.054389 
L 565.497069 160.868061 
L 565.715181 160.790425 
L 566.197554 160.619625 
L 566.662401 160.309079 
L 566.904794 160.091697 
L 568.149525 159.33086 
L 568.210531 159.253224 
L 568.366962 159.113479 
L 568.476621 158.880569 
L 568.619855 158.756351 
L 569.987965 157.824714 
L 570.335053 157.529696 
L 570.444033 157.296787 
L 570.72228 156.939659 
L 570.80094 156.893077 
L 570.935952 156.737805 
L 571.419203 156.271986 
L 571.593244 156.132241 
L 571.71028 155.945913 
L 571.832061 155.775113 
L 573.527046 154.284494 
L 573.610858 154.237912 
L 573.863922 154.036058 
L 573.963077 153.973949 
L 574.086874 153.787621 
L 574.201014 153.694458 
L 574.336627 153.554712 
L 574.917963 152.99573 
L 575.087209 152.778348 
L 575.49971 152.576493 
L 575.793653 152.436748 
L 576.140925 152.157257 
L 576.24657 152.07962 
L 576.847821 151.411947 
L 577.519763 151.132456 
L 577.629956 150.977184 
L 577.875451 150.775329 
L 578.005638 150.557947 
L 579.168107 148.927582 
L 579.373736 148.77231 
L 579.481475 148.648091 
L 579.660224 148.446237 
L 579.80463 148.182273 
L 580.099152 147.763036 
L 580.607663 147.390382 
L 580.846045 147.235109 
L 581.951242 146.567436 
L 582.141233 146.474272 
L 582.864201 145.977399 
L 583.21412 145.449472 
L 583.727458 145.278672 
L 583.808358 145.247617 
L 584.044534 145.092344 
L 584.137074 144.999181 
L 584.398817 144.797326 
L 584.525924 144.673108 
L 584.720539 144.517835 
L 584.798063 144.424671 
L 584.917014 144.269398 
L 585.333324 144.067544 
L 585.521289 143.881216 
L 585.632224 143.741471 
L 586.988676 142.576925 
L 587.271875 142.421652 
L 587.375345 142.297434 
L 587.570599 142.126634 
L 588.227826 141.567651 
L 588.336895 141.303688 
L 588.59124 141.163942 
L 591.192311 139.533578 
L 591.400533 139.378305 
L 591.484599 139.098814 
L 591.668248 138.741686 
L 591.836782 138.586414 
L 592.086612 138.337977 
L 592.314851 138.167177 
L 592.421669 137.965322 
L 592.964331 137.452922 
L 593.029885 137.313177 
L 593.152198 137.188958 
L 593.284094 137.033686 
L 593.87529 136.707613 
L 593.905318 136.645504 
L 594.152869 136.505758 
L 594.30979 136.241794 
L 594.473759 136.008885 
L 594.731528 135.667285 
L 594.873158 135.605176 
L 595.296299 135.372267 
L 595.613563 135.030666 
L 595.813877 134.875394 
L 595.896321 134.78223 
L 596.076519 134.61143 
L 596.337205 134.409575 
L 596.466108 134.285357 
L 597.629655 133.633211 
L 597.769155 133.52452 
L 599.266868 132.577356 
L 599.371118 132.515247 
L 599.548857 132.189174 
L 599.940058 131.769937 
L 600.41136 131.443865 
L 602.156096 130.124046 
L 602.394784 129.937718 
L 602.552211 129.782446 
L 602.732848 129.580591 
L 602.823619 129.409791 
L 603.028246 129.238991 
L 603.206705 129.099245 
L 603.48184 128.881863 
L 603.593361 128.602372 
L 603.70658 128.447099 
L 603.793426 128.369463 
L 603.967556 128.21419 
L 604.499341 127.826008 
L 604.673818 127.655208 
L 604.822534 127.391244 
L 604.918062 127.282553 
L 605.77242 126.583826 
L 606.076816 126.211171 
L 606.311576 126.009316 
L 606.686311 125.807462 
L 606.825136 125.652189 
L 607.053173 125.465862 
L 607.370417 125.139789 
L 607.542576 124.984516 
L 607.680998 124.798188 
L 608.054421 124.534225 
L 608.480656 124.254734 
L 608.591313 124.177097 
L 609.343157 123.136769 
L 609.430867 122.997024 
L 609.5552 122.841751 
L 609.818888 122.624369 
L 610.056839 122.484624 
L 610.423585 122.111969 
L 611.123086 121.413241 
L 611.22353 121.289023 
L 612.627024 120.202113 
L 612.749675 119.860513 
L 613.803735 119.02204 
L 613.853407 118.944404 
L 614.067385 118.789131 
L 614.296776 118.50964 
L 614.54754 118.323312 
L 614.965209 118.121458 
L 615.077664 117.438257 
L 615.430324 117.25193 
L 615.766728 117.096657 
L 615.901659 116.894803 
L 615.961097 116.832694 
L 617.134752 116.444512 
L 617.204047 116.366875 
L 617.43203 116.180548 
L 617.575482 115.99422 
L 617.783238 115.854475 
L 617.887924 115.745784 
L 618.773255 115.14022 
L 618.869373 114.984947 
L 619.171627 114.783093 
L 619.287983 114.62782 
L 620.128461 114.037783 
L 620.191569 113.991201 
L 620.514385 113.820401 
L 620.584515 113.758292 
L 620.834414 113.603019 
L 620.928444 113.416692 
L 621.088402 113.183783 
L 621.189301 113.059564 
L 621.281451 112.888764 
L 621.407412 112.733491 
L 621.735476 112.578219 
L 621.863783 112.391891 
L 622.08171 112.190037 
L 622.319436 112.050291 
L 622.413509 111.9416 
L 622.460887 111.801855 
L 622.574087 111.646582 
L 622.636364 111.6 
L 622.636364 111.6 
" style="fill:none;stroke:#92c6ff;stroke-linecap:round;stroke-width:1.5;"/>
   </g>
   <g id="line2d_28">
    <defs>
     <path d="M 0 2.5 
C 0.663008 2.5 1.29895 2.236584 1.767767 1.767767 
C 2.236584 1.29895 2.5 0.663008 2.5 0 
C 2.5 -0.663008 2.236584 -1.29895 1.767767 -1.767767 
C 1.29895 -2.236584 0.663008 -2.5 0 -2.5 
C -0.663008 -2.5 -1.29895 -2.236584 -1.767767 -1.767767 
C -2.236584 -1.29895 -2.5 -0.663008 -2.5 0 
C -2.5 0.663008 -2.236584 1.29895 -1.767767 1.767767 
C -1.29895 2.236584 -0.663008 2.5 0 2.5 
z
" id="ma1b3758435" style="stroke:#696969;"/>
    </defs>
    <g clip-path="url(#p3c2fea8422)">
     <use style="fill:#696969;stroke:#696969;" x="115.363636" xlink:href="#ma1b3758435" y="615.6"/>
    </g>
   </g>
   <g id="line2d_29">
    <g clip-path="url(#p3c2fea8422)">
     <use style="fill:#696969;stroke:#696969;" x="218.978399" xlink:href="#ma1b3758435" y="565.198447"/>
    </g>
   </g>
   <g id="line2d_30">
    <g clip-path="url(#p3c2fea8422)">
     <use style="fill:#696969;stroke:#696969;" x="276.575433" xlink:href="#ma1b3758435" y="514.796895"/>
    </g>
   </g>
   <g id="line2d_31">
    <g clip-path="url(#p3c2fea8422)">
     <use style="fill:#696969;stroke:#696969;" x="316.011836" xlink:href="#ma1b3758435" y="464.395342"/>
    </g>
   </g>
   <g id="line2d_32">
    <g clip-path="url(#p3c2fea8422)">
     <use style="fill:#696969;stroke:#696969;" x="355.203104" xlink:href="#ma1b3758435" y="413.993789"/>
    </g>
   </g>
   <g id="line2d_33">
    <g clip-path="url(#p3c2fea8422)">
     <use style="fill:#696969;stroke:#696969;" x="391.610026" xlink:href="#ma1b3758435" y="363.592236"/>
    </g>
   </g>
   <g id="line2d_34">
    <g clip-path="url(#p3c2fea8422)">
     <use style="fill:#696969;stroke:#696969;" x="429.960857" xlink:href="#ma1b3758435" y="313.190684"/>
    </g>
   </g>
   <g id="line2d_35">
    <g clip-path="url(#p3c2fea8422)">
     <use style="fill:#696969;stroke:#696969;" x="450.282072" xlink:href="#ma1b3758435" y="262.789131"/>
    </g>
   </g>
   <g id="line2d_36">
    <g clip-path="url(#p3c2fea8422)">
     <use style="fill:#696969;stroke:#696969;" x="504.771685" xlink:href="#ma1b3758435" y="212.387578"/>
    </g>
   </g>
   <g id="line2d_37">
    <g clip-path="url(#p3c2fea8422)">
     <use style="fill:#696969;stroke:#696969;" x="563.851456" xlink:href="#ma1b3758435" y="161.986025"/>
    </g>
   </g>
   <g id="line2d_38">
    <g clip-path="url(#p3c2fea8422)">
     <use style="fill:#696969;stroke:#696969;" x="622.636364" xlink:href="#ma1b3758435" y="111.6"/>
    </g>
   </g>
   <g id="patch_3">
    <path d="M 90 640.8 
L 90 86.4 
" style="fill:none;stroke:#cccccc;stroke-linecap:square;stroke-linejoin:miter;"/>
   </g>
   <g id="patch_4">
    <path d="M 648 640.8 
L 648 86.4 
" style="fill:none;stroke:#cccccc;stroke-linecap:square;stroke-linejoin:miter;"/>
   </g>
   <g id="patch_5">
    <path d="M 90 640.8 
L 648 640.8 
" style="fill:none;stroke:#cccccc;stroke-linecap:square;stroke-linejoin:miter;"/>
   </g>
   <g id="patch_6">
    <path d="M 90 86.4 
L 648 86.4 
" style="fill:none;stroke:#cccccc;stroke-linecap:square;stroke-linejoin:miter;"/>
   </g>
   <g id="text_14">
    <!-- 1 (2014-06-09) -->
    <defs>
     <path id="DejaVuSans-32"/>
     <path d="M 31 75.875 
Q 24.46875 64.65625 21.28125 53.65625 
Q 18.109375 42.671875 18.109375 31.390625 
Q 18.109375 20.125 21.3125 9.0625 
Q 24.515625 -2 31 -13.1875 
L 23.1875 -13.1875 
Q 15.875 -1.703125 12.234375 9.375 
Q 8.59375 20.453125 8.59375 31.390625 
Q 8.59375 42.28125 12.203125 53.3125 
Q 15.828125 64.359375 23.1875 75.875 
z
" id="DejaVuSans-40"/>
     <path d="M 37.796875 64.3125 
L 12.890625 25.390625 
L 37.796875 25.390625 
z
M 35.203125 72.90625 
L 47.609375 72.90625 
L 47.609375 25.390625 
L 58.015625 25.390625 
L 58.015625 17.1875 
L 47.609375 17.1875 
L 47.609375 0 
L 37.796875 0 
L 37.796875 17.1875 
L 4.890625 17.1875 
L 4.890625 26.703125 
z
" id="DejaVuSans-52"/>
     <path d="M 4.890625 31.390625 
L 31.203125 31.390625 
L 31.203125 23.390625 
L 4.890625 23.390625 
z
" id="DejaVuSans-45"/>
     <path d="M 8.015625 75.875 
L 15.828125 75.875 
Q 23.140625 64.359375 26.78125 53.3125 
Q 30.421875 42.28125 30.421875 31.390625 
Q 30.421875 20.453125 26.78125 9.375 
Q 23.140625 -1.703125 15.828125 -13.1875 
L 8.015625 -13.1875 
Q 14.5 -2 17.703125 9.0625 
Q 20.90625 20.125 20.90625 31.390625 
Q 20.90625 42.671875 17.703125 53.65625 
Q 14.5 64.65625 8.015625 75.875 
z
" id="DejaVuSans-41"/>
    </defs>
    <g style="fill:#262626;" transform="translate(120.363636 623.198437)scale(0.1 -0.1)">
     <use xlink:href="#DejaVuSans-49"/>
     <use x="63.623047" xlink:href="#DejaVuSans-32"/>
     <use x="95.410156" xlink:href="#DejaVuSans-40"/>
     <use x="134.423828" xlink:href="#DejaVuSans-50"/>
     <use x="198.046875" xlink:href="#DejaVuSans-48"/>
     <use x="261.669922" xlink:href="#DejaVuSans-49"/>
     <use x="325.292969" xlink:href="#DejaVuSans-52"/>
     <use x="388.916016" xlink:href="#DejaVuSans-45"/>
     <use x="425" xlink:href="#DejaVuSans-48"/>
     <use x="488.623047" xlink:href="#DejaVuSans-54"/>
     <use x="552.246094" xlink:href="#DejaVuSans-45"/>
     <use x="588.330078" xlink:href="#DejaVuSans-48"/>
     <use x="651.953125" xlink:href="#DejaVuSans-57"/>
     <use x="715.576172" xlink:href="#DejaVuSans-41"/>
    </g>
   </g>
   <g id="text_15">
    <!-- 3247 (2015-08-25) -->
    <g style="fill:#262626;" transform="translate(223.978399 572.796885)scale(0.1 -0.1)">
     <use xlink:href="#DejaVuSans-51"/>
     <use x="63.623047" xlink:href="#DejaVuSans-50"/>
     <use x="127.246094" xlink:href="#DejaVuSans-52"/>
     <use x="190.869141" xlink:href="#DejaVuSans-55"/>
     <use x="254.492188" xlink:href="#DejaVuSans-32"/>
     <use x="286.279297" xlink:href="#DejaVuSans-40"/>
     <use x="325.292969" xlink:href="#DejaVuSans-50"/>
     <use x="388.916016" xlink:href="#DejaVuSans-48"/>
     <use x="452.539062" xlink:href="#DejaVuSans-49"/>
     <use x="516.162109" xlink:href="#DejaVuSans-53"/>
     <use x="579.785156" xlink:href="#DejaVuSans-45"/>
     <use x="615.869141" xlink:href="#DejaVuSans-48"/>
     <use x="679.492188" xlink:href="#DejaVuSans-56"/>
     <use x="743.115234" xlink:href="#DejaVuSans-45"/>
     <use x="779.199219" xlink:href="#DejaVuSans-50"/>
     <use x="842.822266" xlink:href="#DejaVuSans-53"/>
     <use x="906.445312" xlink:href="#DejaVuSans-41"/>
    </g>
   </g>
   <g id="text_16">
    <!-- 6493 (2016-04-28) -->
    <g style="fill:#262626;" transform="translate(281.575433 522.395332)scale(0.1 -0.1)">
     <use xlink:href="#DejaVuSans-54"/>
     <use x="63.623047" xlink:href="#DejaVuSans-52"/>
     <use x="127.246094" xlink:href="#DejaVuSans-57"/>
     <use x="190.869141" xlink:href="#DejaVuSans-51"/>
     <use x="254.492188" xlink:href="#DejaVuSans-32"/>
     <use x="286.279297" xlink:href="#DejaVuSans-40"/>
     <use x="325.292969" xlink:href="#DejaVuSans-50"/>
     <use x="388.916016" xlink:href="#DejaVuSans-48"/>
     <use x="452.539062" xlink:href="#DejaVuSans-49"/>
     <use x="516.162109" xlink:href="#DejaVuSans-54"/>
     <use x="579.785156" xlink:href="#DejaVuSans-45"/>
     <use x="615.869141" xlink:href="#DejaVuSans-48"/>
     <use x="679.492188" xlink:href="#DejaVuSans-52"/>
     <use x="743.115234" xlink:href="#DejaVuSans-45"/>
     <use x="779.199219" xlink:href="#DejaVuSans-50"/>
     <use x="842.822266" xlink:href="#DejaVuSans-56"/>
     <use x="906.445312" xlink:href="#DejaVuSans-41"/>
    </g>
   </g>
   <g id="text_17">
    <!-- 9739 (2016-10-13) -->
    <g style="fill:#262626;" transform="translate(321.011836 471.993779)scale(0.1 -0.1)">
     <use xlink:href="#DejaVuSans-57"/>
     <use x="63.623047" xlink:href="#DejaVuSans-55"/>
     <use x="127.246094" xlink:href="#DejaVuSans-51"/>
     <use x="190.869141" xlink:href="#DejaVuSans-57"/>
     <use x="254.492188" xlink:href="#DejaVuSans-32"/>
     <use x="286.279297" xlink:href="#DejaVuSans-40"/>
     <use x="325.292969" xlink:href="#DejaVuSans-50"/>
     <use x="388.916016" xlink:href="#DejaVuSans-48"/>
     <use x="452.539062" xlink:href="#DejaVuSans-49"/>
     <use x="516.162109" xlink:href="#DejaVuSans-54"/>
     <use x="579.785156" xlink:href="#DejaVuSans-45"/>
     <use x="615.869141" xlink:href="#DejaVuSans-49"/>
     <use x="679.492188" xlink:href="#DejaVuSans-48"/>
     <use x="743.115234" xlink:href="#DejaVuSans-45"/>
     <use x="779.199219" xlink:href="#DejaVuSans-49"/>
     <use x="842.822266" xlink:href="#DejaVuSans-51"/>
     <use x="906.445312" xlink:href="#DejaVuSans-41"/>
    </g>
   </g>
   <g id="text_18">
    <!-- 12985 (2017-03-30) -->
    <g style="fill:#262626;" transform="translate(360.203104 421.592227)scale(0.1 -0.1)">
     <use xlink:href="#DejaVuSans-49"/>
     <use x="63.623047" xlink:href="#DejaVuSans-50"/>
     <use x="127.246094" xlink:href="#DejaVuSans-57"/>
     <use x="190.869141" xlink:href="#DejaVuSans-56"/>
     <use x="254.492188" xlink:href="#DejaVuSans-53"/>
     <use x="318.115234" xlink:href="#DejaVuSans-32"/>
     <use x="349.902344" xlink:href="#DejaVuSans-40"/>
     <use x="388.916016" xlink:href="#DejaVuSans-50"/>
     <use x="452.539062" xlink:href="#DejaVuSans-48"/>
     <use x="516.162109" xlink:href="#DejaVuSans-49"/>
     <use x="579.785156" xlink:href="#DejaVuSans-55"/>
     <use x="643.408203" xlink:href="#DejaVuSans-45"/>
     <use x="679.492188" xlink:href="#DejaVuSans-48"/>
     <use x="743.115234" xlink:href="#DejaVuSans-51"/>
     <use x="806.738281" xlink:href="#DejaVuSans-45"/>
     <use x="842.822266" xlink:href="#DejaVuSans-51"/>
     <use x="906.445312" xlink:href="#DejaVuSans-48"/>
     <use x="970.068359" xlink:href="#DejaVuSans-41"/>
    </g>
   </g>
   <g id="text_19">
    <!-- 16231 (2017-09-01) -->
    <g style="fill:#262626;" transform="translate(396.610026 371.190674)scale(0.1 -0.1)">
     <use xlink:href="#DejaVuSans-49"/>
     <use x="63.623047" xlink:href="#DejaVuSans-54"/>
     <use x="127.246094" xlink:href="#DejaVuSans-50"/>
     <use x="190.869141" xlink:href="#DejaVuSans-51"/>
     <use x="254.492188" xlink:href="#DejaVuSans-49"/>
     <use x="318.115234" xlink:href="#DejaVuSans-32"/>
     <use x="349.902344" xlink:href="#DejaVuSans-40"/>
     <use x="388.916016" xlink:href="#DejaVuSans-50"/>
     <use x="452.539062" xlink:href="#DejaVuSans-48"/>
     <use x="516.162109" xlink:href="#DejaVuSans-49"/>
     <use x="579.785156" xlink:href="#DejaVuSans-55"/>
     <use x="643.408203" xlink:href="#DejaVuSans-45"/>
     <use x="679.492188" xlink:href="#DejaVuSans-48"/>
     <use x="743.115234" xlink:href="#DejaVuSans-57"/>
     <use x="806.738281" xlink:href="#DejaVuSans-45"/>
     <use x="842.822266" xlink:href="#DejaVuSans-48"/>
     <use x="906.445312" xlink:href="#DejaVuSans-49"/>
     <use x="970.068359" xlink:href="#DejaVuSans-41"/>
    </g>
   </g>
   <g id="text_20">
    <!-- 19477 (2018-02-12) -->
    <g style="fill:#262626;" transform="translate(434.960857 320.789121)scale(0.1 -0.1)">
     <use xlink:href="#DejaVuSans-49"/>
     <use x="63.623047" xlink:href="#DejaVuSans-57"/>
     <use x="127.246094" xlink:href="#DejaVuSans-52"/>
     <use x="190.869141" xlink:href="#DejaVuSans-55"/>
     <use x="254.492188" xlink:href="#DejaVuSans-55"/>
     <use x="318.115234" xlink:href="#DejaVuSans-32"/>
     <use x="349.902344" xlink:href="#DejaVuSans-40"/>
     <use x="388.916016" xlink:href="#DejaVuSans-50"/>
     <use x="452.539062" xlink:href="#DejaVuSans-48"/>
     <use x="516.162109" xlink:href="#DejaVuSans-49"/>
     <use x="579.785156" xlink:href="#DejaVuSans-56"/>
     <use x="643.408203" xlink:href="#DejaVuSans-45"/>
     <use x="679.492188" xlink:href="#DejaVuSans-48"/>
     <use x="743.115234" xlink:href="#DejaVuSans-50"/>
     <use x="806.738281" xlink:href="#DejaVuSans-45"/>
     <use x="842.822266" xlink:href="#DejaVuSans-49"/>
     <use x="906.445312" xlink:href="#DejaVuSans-50"/>
     <use x="970.068359" xlink:href="#DejaVuSans-41"/>
    </g>
   </g>
   <g id="text_21">
    <!-- 22723 (2018-05-10) -->
    <g style="fill:#262626;" transform="translate(455.282072 270.387568)scale(0.1 -0.1)">
     <use xlink:href="#DejaVuSans-50"/>
     <use x="63.623047" xlink:href="#DejaVuSans-50"/>
     <use x="127.246094" xlink:href="#DejaVuSans-55"/>
     <use x="190.869141" xlink:href="#DejaVuSans-50"/>
     <use x="254.492188" xlink:href="#DejaVuSans-51"/>
     <use x="318.115234" xlink:href="#DejaVuSans-32"/>
     <use x="349.902344" xlink:href="#DejaVuSans-40"/>
     <use x="388.916016" xlink:href="#DejaVuSans-50"/>
     <use x="452.539062" xlink:href="#DejaVuSans-48"/>
     <use x="516.162109" xlink:href="#DejaVuSans-49"/>
     <use x="579.785156" xlink:href="#DejaVuSans-56"/>
     <use x="643.408203" xlink:href="#DejaVuSans-45"/>
     <use x="679.492188" xlink:href="#DejaVuSans-48"/>
     <use x="743.115234" xlink:href="#DejaVuSans-53"/>
     <use x="806.738281" xlink:href="#DejaVuSans-45"/>
     <use x="842.822266" xlink:href="#DejaVuSans-49"/>
     <use x="906.445312" xlink:href="#DejaVuSans-48"/>
     <use x="970.068359" xlink:href="#DejaVuSans-41"/>
    </g>
   </g>
   <g id="text_22">
    <!-- 25969 (2018-12-29) -->
    <g style="fill:#262626;" transform="translate(509.771685 219.986016)scale(0.1 -0.1)">
     <use xlink:href="#DejaVuSans-50"/>
     <use x="63.623047" xlink:href="#DejaVuSans-53"/>
     <use x="127.246094" xlink:href="#DejaVuSans-57"/>
     <use x="190.869141" xlink:href="#DejaVuSans-54"/>
     <use x="254.492188" xlink:href="#DejaVuSans-57"/>
     <use x="318.115234" xlink:href="#DejaVuSans-32"/>
     <use x="349.902344" xlink:href="#DejaVuSans-40"/>
     <use x="388.916016" xlink:href="#DejaVuSans-50"/>
     <use x="452.539062" xlink:href="#DejaVuSans-48"/>
     <use x="516.162109" xlink:href="#DejaVuSans-49"/>
     <use x="579.785156" xlink:href="#DejaVuSans-56"/>
     <use x="643.408203" xlink:href="#DejaVuSans-45"/>
     <use x="679.492188" xlink:href="#DejaVuSans-49"/>
     <use x="743.115234" xlink:href="#DejaVuSans-50"/>
     <use x="806.738281" xlink:href="#DejaVuSans-45"/>
     <use x="842.822266" xlink:href="#DejaVuSans-50"/>
     <use x="906.445312" xlink:href="#DejaVuSans-57"/>
     <use x="970.068359" xlink:href="#DejaVuSans-41"/>
    </g>
   </g>
   <g id="text_23">
    <!-- 29215 (2019-09-07) -->
    <g style="fill:#262626;" transform="translate(568.851456 169.584463)scale(0.1 -0.1)">
     <use xlink:href="#DejaVuSans-50"/>
     <use x="63.623047" xlink:href="#DejaVuSans-57"/>
     <use x="127.246094" xlink:href="#DejaVuSans-50"/>
     <use x="190.869141" xlink:href="#DejaVuSans-49"/>
     <use x="254.492188" xlink:href="#DejaVuSans-53"/>
     <use x="318.115234" xlink:href="#DejaVuSans-32"/>
     <use x="349.902344" xlink:href="#DejaVuSans-40"/>
     <use x="388.916016" xlink:href="#DejaVuSans-50"/>
     <use x="452.539062" xlink:href="#DejaVuSans-48"/>
     <use x="516.162109" xlink:href="#DejaVuSans-49"/>
     <use x="579.785156" xlink:href="#DejaVuSans-57"/>
     <use x="643.408203" xlink:href="#DejaVuSans-45"/>
     <use x="679.492188" xlink:href="#DejaVuSans-48"/>
     <use x="743.115234" xlink:href="#DejaVuSans-57"/>
     <use x="806.738281" xlink:href="#DejaVuSans-45"/>
     <use x="842.822266" xlink:href="#DejaVuSans-48"/>
     <use x="906.445312" xlink:href="#DejaVuSans-55"/>
     <use x="970.068359" xlink:href="#DejaVuSans-41"/>
    </g>
   </g>
   <g id="text_24">
    <!-- 32460 (2020-05-15) -->
    <g style="fill:#262626;" transform="translate(627.636364 119.198437)scale(0.1 -0.1)">
     <use xlink:href="#DejaVuSans-51"/>
     <use x="63.623047" xlink:href="#DejaVuSans-50"/>
     <use x="127.246094" xlink:href="#DejaVuSans-52"/>
     <use x="190.869141" xlink:href="#DejaVuSans-54"/>
     <use x="254.492188" xlink:href="#DejaVuSans-48"/>
     <use x="318.115234" xlink:href="#DejaVuSans-32"/>
     <use x="349.902344" xlink:href="#DejaVuSans-40"/>
     <use x="388.916016" xlink:href="#DejaVuSans-50"/>
     <use x="452.539062" xlink:href="#DejaVuSans-48"/>
     <use x="516.162109" xlink:href="#DejaVuSans-50"/>
     <use x="579.785156" xlink:href="#DejaVuSans-48"/>
     <use x="643.408203" xlink:href="#DejaVuSans-45"/>
     <use x="679.492188" xlink:href="#DejaVuSans-48"/>
     <use x="743.115234" xlink:href="#DejaVuSans-53"/>
     <use x="806.738281" xlink:href="#DejaVuSans-45"/>
     <use x="842.822266" xlink:href="#DejaVuSans-49"/>
     <use x="906.445312" xlink:href="#DejaVuSans-53"/>
     <use x="970.068359" xlink:href="#DejaVuSans-41"/>
    </g>
   </g>
   <g id="text_25">
    <!-- Closed issues over time -->
    <defs>
     <path d="M 64.40625 67.28125 
L 64.40625 56.890625 
Q 59.421875 61.53125 53.78125 63.8125 
Q 48.140625 66.109375 41.796875 66.109375 
Q 29.296875 66.109375 22.65625 58.46875 
Q 16.015625 50.828125 16.015625 36.375 
Q 16.015625 21.96875 22.65625 14.328125 
Q 29.296875 6.6875 41.796875 6.6875 
Q 48.140625 6.6875 53.78125 8.984375 
Q 59.421875 11.28125 64.40625 15.921875 
L 64.40625 5.609375 
Q 59.234375 2.09375 53.4375 0.328125 
Q 47.65625 -1.421875 41.21875 -1.421875 
Q 24.65625 -1.421875 15.125 8.703125 
Q 5.609375 18.84375 5.609375 36.375 
Q 5.609375 53.953125 15.125 64.078125 
Q 24.65625 74.21875 41.21875 74.21875 
Q 47.75 74.21875 53.53125 72.484375 
Q 59.328125 70.75 64.40625 67.28125 
z
" id="DejaVuSans-67"/>
     <path d="M 9.421875 75.984375 
L 18.40625 75.984375 
L 18.40625 0 
L 9.421875 0 
z
" id="DejaVuSans-108"/>
     <path d="M 30.609375 48.390625 
Q 23.390625 48.390625 19.1875 42.75 
Q 14.984375 37.109375 14.984375 27.296875 
Q 14.984375 17.484375 19.15625 11.84375 
Q 23.34375 6.203125 30.609375 6.203125 
Q 37.796875 6.203125 41.984375 11.859375 
Q 46.1875 17.53125 46.1875 27.296875 
Q 46.1875 37.015625 41.984375 42.703125 
Q 37.796875 48.390625 30.609375 48.390625 
z
M 30.609375 56 
Q 42.328125 56 49.015625 48.375 
Q 55.71875 40.765625 55.71875 27.296875 
Q 55.71875 13.875 49.015625 6.21875 
Q 42.328125 -1.421875 30.609375 -1.421875 
Q 18.84375 -1.421875 12.171875 6.21875 
Q 5.515625 13.875 5.515625 27.296875 
Q 5.515625 40.765625 12.171875 48.375 
Q 18.84375 56 30.609375 56 
z
" id="DejaVuSans-111"/>
     <path d="M 44.28125 53.078125 
L 44.28125 44.578125 
Q 40.484375 46.53125 36.375 47.5 
Q 32.28125 48.484375 27.875 48.484375 
Q 21.1875 48.484375 17.84375 46.4375 
Q 14.5 44.390625 14.5 40.28125 
Q 14.5 37.15625 16.890625 35.375 
Q 19.28125 33.59375 26.515625 31.984375 
L 29.59375 31.296875 
Q 39.15625 29.25 43.1875 25.515625 
Q 47.21875 21.78125 47.21875 15.09375 
Q 47.21875 7.46875 41.1875 3.015625 
Q 35.15625 -1.421875 24.609375 -1.421875 
Q 20.21875 -1.421875 15.453125 -0.5625 
Q 10.6875 0.296875 5.421875 2 
L 5.421875 11.28125 
Q 10.40625 8.6875 15.234375 7.390625 
Q 20.0625 6.109375 24.8125 6.109375 
Q 31.15625 6.109375 34.5625 8.28125 
Q 37.984375 10.453125 37.984375 14.40625 
Q 37.984375 18.0625 35.515625 20.015625 
Q 33.0625 21.96875 24.703125 23.78125 
L 21.578125 24.515625 
Q 13.234375 26.265625 9.515625 29.90625 
Q 5.8125 33.546875 5.8125 39.890625 
Q 5.8125 47.609375 11.28125 51.796875 
Q 16.75 56 26.8125 56 
Q 31.78125 56 36.171875 55.265625 
Q 40.578125 54.546875 44.28125 53.078125 
z
" id="DejaVuSans-115"/>
     <path d="M 56.203125 29.59375 
L 56.203125 25.203125 
L 14.890625 25.203125 
Q 15.484375 15.921875 20.484375 11.0625 
Q 25.484375 6.203125 34.421875 6.203125 
Q 39.59375 6.203125 44.453125 7.46875 
Q 49.3125 8.734375 54.109375 11.28125 
L 54.109375 2.78125 
Q 49.265625 0.734375 44.1875 -0.34375 
Q 39.109375 -1.421875 33.890625 -1.421875 
Q 20.796875 -1.421875 13.15625 6.1875 
Q 5.515625 13.8125 5.515625 26.8125 
Q 5.515625 40.234375 12.765625 48.109375 
Q 20.015625 56 32.328125 56 
Q 43.359375 56 49.78125 48.890625 
Q 56.203125 41.796875 56.203125 29.59375 
z
M 47.21875 32.234375 
Q 47.125 39.59375 43.09375 43.984375 
Q 39.0625 48.390625 32.421875 48.390625 
Q 24.90625 48.390625 20.390625 44.140625 
Q 15.875 39.890625 15.1875 32.171875 
z
" id="DejaVuSans-101"/>
     <path d="M 45.40625 46.390625 
L 45.40625 75.984375 
L 54.390625 75.984375 
L 54.390625 0 
L 45.40625 0 
L 45.40625 8.203125 
Q 42.578125 3.328125 38.25 0.953125 
Q 33.9375 -1.421875 27.875 -1.421875 
Q 17.96875 -1.421875 11.734375 6.484375 
Q 5.515625 14.40625 5.515625 27.296875 
Q 5.515625 40.1875 11.734375 48.09375 
Q 17.96875 56 27.875 56 
Q 33.9375 56 38.25 53.625 
Q 42.578125 51.265625 45.40625 46.390625 
z
M 14.796875 27.296875 
Q 14.796875 17.390625 18.875 11.75 
Q 22.953125 6.109375 30.078125 6.109375 
Q 37.203125 6.109375 41.296875 11.75 
Q 45.40625 17.390625 45.40625 27.296875 
Q 45.40625 37.203125 41.296875 42.84375 
Q 37.203125 48.484375 30.078125 48.484375 
Q 22.953125 48.484375 18.875 42.84375 
Q 14.796875 37.203125 14.796875 27.296875 
z
" id="DejaVuSans-100"/>
     <path d="M 9.421875 54.6875 
L 18.40625 54.6875 
L 18.40625 0 
L 9.421875 0 
z
M 9.421875 75.984375 
L 18.40625 75.984375 
L 18.40625 64.59375 
L 9.421875 64.59375 
z
" id="DejaVuSans-105"/>
     <path d="M 8.5 21.578125 
L 8.5 54.6875 
L 17.484375 54.6875 
L 17.484375 21.921875 
Q 17.484375 14.15625 20.5 10.265625 
Q 23.53125 6.390625 29.59375 6.390625 
Q 36.859375 6.390625 41.078125 11.03125 
Q 45.3125 15.671875 45.3125 23.6875 
L 45.3125 54.6875 
L 54.296875 54.6875 
L 54.296875 0 
L 45.3125 0 
L 45.3125 8.40625 
Q 42.046875 3.421875 37.71875 1 
Q 33.40625 -1.421875 27.6875 -1.421875 
Q 18.265625 -1.421875 13.375 4.4375 
Q 8.5 10.296875 8.5 21.578125 
z
M 31.109375 56 
z
" id="DejaVuSans-117"/>
     <path d="M 2.984375 54.6875 
L 12.5 54.6875 
L 29.59375 8.796875 
L 46.6875 54.6875 
L 56.203125 54.6875 
L 35.6875 0 
L 23.484375 0 
z
" id="DejaVuSans-118"/>
     <path d="M 41.109375 46.296875 
Q 39.59375 47.171875 37.8125 47.578125 
Q 36.03125 48 33.890625 48 
Q 26.265625 48 22.1875 43.046875 
Q 18.109375 38.09375 18.109375 28.8125 
L 18.109375 0 
L 9.078125 0 
L 9.078125 54.6875 
L 18.109375 54.6875 
L 18.109375 46.1875 
Q 20.953125 51.171875 25.484375 53.578125 
Q 30.03125 56 36.53125 56 
Q 37.453125 56 38.578125 55.875 
Q 39.703125 55.765625 41.0625 55.515625 
z
" id="DejaVuSans-114"/>
     <path d="M 18.3125 70.21875 
L 18.3125 54.6875 
L 36.8125 54.6875 
L 36.8125 47.703125 
L 18.3125 47.703125 
L 18.3125 18.015625 
Q 18.3125 11.328125 20.140625 9.421875 
Q 21.96875 7.515625 27.59375 7.515625 
L 36.8125 7.515625 
L 36.8125 0 
L 27.59375 0 
Q 17.1875 0 13.234375 3.875 
Q 9.28125 7.765625 9.28125 18.015625 
L 9.28125 47.703125 
L 2.6875 47.703125 
L 2.6875 54.6875 
L 9.28125 54.6875 
L 9.28125 70.21875 
z
" id="DejaVuSans-116"/>
     <path d="M 52 44.1875 
Q 55.375 50.25 60.0625 53.125 
Q 64.75 56 71.09375 56 
Q 79.640625 56 84.28125 50.015625 
Q 88.921875 44.046875 88.921875 33.015625 
L 88.921875 0 
L 79.890625 0 
L 79.890625 32.71875 
Q 79.890625 40.578125 77.09375 44.375 
Q 74.3125 48.1875 68.609375 48.1875 
Q 61.625 48.1875 57.5625 43.546875 
Q 53.515625 38.921875 53.515625 30.90625 
L 53.515625 0 
L 44.484375 0 
L 44.484375 32.71875 
Q 44.484375 40.625 41.703125 44.40625 
Q 38.921875 48.1875 33.109375 48.1875 
Q 26.21875 48.1875 22.15625 43.53125 
Q 18.109375 38.875 18.109375 30.90625 
L 18.109375 0 
L 9.078125 0 
L 9.078125 54.6875 
L 18.109375 54.6875 
L 18.109375 46.1875 
Q 21.1875 51.21875 25.484375 53.609375 
Q 29.78125 56 35.6875 56 
Q 41.65625 56 45.828125 52.96875 
Q 50 49.953125 52 44.1875 
z
" id="DejaVuSans-109"/>
    </defs>
    <g style="fill:#262626;" transform="translate(297.650625 80.4)scale(0.12 -0.12)">
     <use xlink:href="#DejaVuSans-67"/>
     <use x="69.824219" xlink:href="#DejaVuSans-108"/>
     <use x="97.607422" xlink:href="#DejaVuSans-111"/>
     <use x="158.789062" xlink:href="#DejaVuSans-115"/>
     <use x="210.888672" xlink:href="#DejaVuSans-101"/>
     <use x="272.412109" xlink:href="#DejaVuSans-100"/>
     <use x="335.888672" xlink:href="#DejaVuSans-32"/>
     <use x="367.675781" xlink:href="#DejaVuSans-105"/>
     <use x="395.458984" xlink:href="#DejaVuSans-115"/>
     <use x="447.558594" xlink:href="#DejaVuSans-115"/>
     <use x="499.658203" xlink:href="#DejaVuSans-117"/>
     <use x="563.037109" xlink:href="#DejaVuSans-101"/>
     <use x="624.560547" xlink:href="#DejaVuSans-115"/>
     <use x="676.660156" xlink:href="#DejaVuSans-32"/>
     <use x="708.447266" xlink:href="#DejaVuSans-111"/>
     <use x="769.628906" xlink:href="#DejaVuSans-118"/>
     <use x="828.808594" xlink:href="#DejaVuSans-101"/>
     <use x="890.332031" xlink:href="#DejaVuSans-114"/>
     <use x="931.445312" xlink:href="#DejaVuSans-32"/>
     <use x="963.232422" xlink:href="#DejaVuSans-116"/>
     <use x="1002.441406" xlink:href="#DejaVuSans-105"/>
     <use x="1030.224609" xlink:href="#DejaVuSans-109"/>
     <use x="1127.636719" xlink:href="#DejaVuSans-101"/>
    </g>
   </g>
  </g>
 </g>
 <defs>
  <clipPath id="p3c2fea8422">
   <rect height="554.4" width="558" x="90" y="86.4"/>
  </clipPath>
 </defs>
</svg>
