<?xml version="1.0" encoding="utf-8" standalone="no"?>
<!DOCTYPE svg PUBLIC "-//W3C//DTD SVG 1.1//EN"
  "http://www.w3.org/Graphics/SVG/1.1/DTD/svg11.dtd">
<!-- Created with matplotlib (https://matplotlib.org/) -->
<svg height="720pt" version="1.1" viewBox="0 0 720 720" width="720pt" xmlns="http://www.w3.org/2000/svg" xmlns:xlink="http://www.w3.org/1999/xlink">
 <defs>
  <style type="text/css">
*{stroke-linecap:butt;stroke-linejoin:round;}
  </style>
 </defs>
 <g id="figure_1">
  <g id="patch_1">
   <path d="M 0 720 
L 720 720 
L 720 0 
L 0 0 
z
" style="fill:#ffffff;"/>
  </g>
  <g id="axes_1">
   <g id="patch_2">
    <path d="M 90 640.8 
L 648 640.8 
L 648 86.4 
L 90 86.4 
z
" style="fill:#ffffff;"/>
   </g>
   <g id="matplotlib.axis_1">
    <g id="xtick_1">
     <g id="line2d_1">
      <path clip-path="url(#p737fa6784e)" d="M 162.803731 640.8 
L 162.803731 86.4 
" style="fill:none;stroke:#cccccc;stroke-linecap:round;stroke-width:0.8;"/>
     </g>
     <g id="line2d_2"/>
     <g id="text_1">
      <!-- 2015 -->
      <defs>
       <path d="M 19.1875 8.296875 
L 53.609375 8.296875 
L 53.609375 0 
L 7.328125 0 
L 7.328125 8.296875 
Q 12.9375 14.109375 22.625 23.890625 
Q 32.328125 33.6875 34.8125 36.53125 
Q 39.546875 41.84375 41.421875 45.53125 
Q 43.3125 49.21875 43.3125 52.78125 
Q 43.3125 58.59375 39.234375 62.25 
Q 35.15625 65.921875 28.609375 65.921875 
Q 23.96875 65.921875 18.8125 64.3125 
Q 13.671875 62.703125 7.8125 59.421875 
L 7.8125 69.390625 
Q 13.765625 71.78125 18.9375 73 
Q 24.125 74.21875 28.421875 74.21875 
Q 39.75 74.21875 46.484375 68.546875 
Q 53.21875 62.890625 53.21875 53.421875 
Q 53.21875 48.921875 51.53125 44.890625 
Q 49.859375 40.875 45.40625 35.40625 
Q 44.1875 33.984375 37.640625 27.21875 
Q 31.109375 20.453125 19.1875 8.296875 
z
" id="DejaVuSans-50"/>
       <path d="M 31.78125 66.40625 
Q 24.171875 66.40625 20.328125 58.90625 
Q 16.5 51.421875 16.5 36.375 
Q 16.5 21.390625 20.328125 13.890625 
Q 24.171875 6.390625 31.78125 6.390625 
Q 39.453125 6.390625 43.28125 13.890625 
Q 47.125 21.390625 47.125 36.375 
Q 47.125 51.421875 43.28125 58.90625 
Q 39.453125 66.40625 31.78125 66.40625 
z
M 31.78125 74.21875 
Q 44.046875 74.21875 50.515625 64.515625 
Q 56.984375 54.828125 56.984375 36.375 
Q 56.984375 17.96875 50.515625 8.265625 
Q 44.046875 -1.421875 31.78125 -1.421875 
Q 19.53125 -1.421875 13.0625 8.265625 
Q 6.59375 17.96875 6.59375 36.375 
Q 6.59375 54.828125 13.0625 64.515625 
Q 19.53125 74.21875 31.78125 74.21875 
z
" id="DejaVuSans-48"/>
       <path d="M 12.40625 8.296875 
L 28.515625 8.296875 
L 28.515625 63.921875 
L 10.984375 60.40625 
L 10.984375 69.390625 
L 28.421875 72.90625 
L 38.28125 72.90625 
L 38.28125 8.296875 
L 54.390625 8.296875 
L 54.390625 0 
L 12.40625 0 
z
" id="DejaVuSans-49"/>
       <path d="M 10.796875 72.90625 
L 49.515625 72.90625 
L 49.515625 64.59375 
L 19.828125 64.59375 
L 19.828125 46.734375 
Q 21.96875 47.46875 24.109375 47.828125 
Q 26.265625 48.1875 28.421875 48.1875 
Q 40.625 48.1875 47.75 41.5 
Q 54.890625 34.8125 54.890625 23.390625 
Q 54.890625 11.625 47.5625 5.09375 
Q 40.234375 -1.421875 26.90625 -1.421875 
Q 22.3125 -1.421875 17.546875 -0.640625 
Q 12.796875 0.140625 7.71875 1.703125 
L 7.71875 11.625 
Q 12.109375 9.234375 16.796875 8.0625 
Q 21.484375 6.890625 26.703125 6.890625 
Q 35.15625 6.890625 40.078125 11.328125 
Q 45.015625 15.765625 45.015625 23.390625 
Q 45.015625 31 40.078125 35.4375 
Q 35.15625 39.890625 26.703125 39.890625 
Q 22.75 39.890625 18.8125 39.015625 
Q 14.890625 38.140625 10.796875 36.28125 
z
" id="DejaVuSans-53"/>
      </defs>
      <g style="fill:#262626;" transform="translate(150.078731 651.898438)scale(0.1 -0.1)">
       <use xlink:href="#DejaVuSans-50"/>
       <use x="63.623047" xlink:href="#DejaVuSans-48"/>
       <use x="127.246094" xlink:href="#DejaVuSans-49"/>
       <use x="190.869141" xlink:href="#DejaVuSans-53"/>
      </g>
     </g>
    </g>
    <g id="xtick_2">
     <g id="line2d_3">
      <path clip-path="url(#p737fa6784e)" d="M 246.965234 640.8 
L 246.965234 86.4 
" style="fill:none;stroke:#cccccc;stroke-linecap:round;stroke-width:0.8;"/>
     </g>
     <g id="line2d_4"/>
     <g id="text_2">
      <!-- 2016 -->
      <defs>
       <path d="M 33.015625 40.375 
Q 26.375 40.375 22.484375 35.828125 
Q 18.609375 31.296875 18.609375 23.390625 
Q 18.609375 15.53125 22.484375 10.953125 
Q 26.375 6.390625 33.015625 6.390625 
Q 39.65625 6.390625 43.53125 10.953125 
Q 47.40625 15.53125 47.40625 23.390625 
Q 47.40625 31.296875 43.53125 35.828125 
Q 39.65625 40.375 33.015625 40.375 
z
M 52.59375 71.296875 
L 52.59375 62.3125 
Q 48.875 64.0625 45.09375 64.984375 
Q 41.3125 65.921875 37.59375 65.921875 
Q 27.828125 65.921875 22.671875 59.328125 
Q 17.53125 52.734375 16.796875 39.40625 
Q 19.671875 43.65625 24.015625 45.921875 
Q 28.375 48.1875 33.59375 48.1875 
Q 44.578125 48.1875 50.953125 41.515625 
Q 57.328125 34.859375 57.328125 23.390625 
Q 57.328125 12.15625 50.6875 5.359375 
Q 44.046875 -1.421875 33.015625 -1.421875 
Q 20.359375 -1.421875 13.671875 8.265625 
Q 6.984375 17.96875 6.984375 36.375 
Q 6.984375 53.65625 15.1875 63.9375 
Q 23.390625 74.21875 37.203125 74.21875 
Q 40.921875 74.21875 44.703125 73.484375 
Q 48.484375 72.75 52.59375 71.296875 
z
" id="DejaVuSans-54"/>
      </defs>
      <g style="fill:#262626;" transform="translate(234.240234 651.898438)scale(0.1 -0.1)">
       <use xlink:href="#DejaVuSans-50"/>
       <use x="63.623047" xlink:href="#DejaVuSans-48"/>
       <use x="127.246094" xlink:href="#DejaVuSans-49"/>
       <use x="190.869141" xlink:href="#DejaVuSans-54"/>
      </g>
     </g>
    </g>
    <g id="xtick_3">
     <g id="line2d_5">
      <path clip-path="url(#p737fa6784e)" d="M 331.357317 640.8 
L 331.357317 86.4 
" style="fill:none;stroke:#cccccc;stroke-linecap:round;stroke-width:0.8;"/>
     </g>
     <g id="line2d_6"/>
     <g id="text_3">
      <!-- 2017 -->
      <defs>
       <path d="M 8.203125 72.90625 
L 55.078125 72.90625 
L 55.078125 68.703125 
L 28.609375 0 
L 18.3125 0 
L 43.21875 64.59375 
L 8.203125 64.59375 
z
" id="DejaVuSans-55"/>
      </defs>
      <g style="fill:#262626;" transform="translate(318.632317 651.898438)scale(0.1 -0.1)">
       <use xlink:href="#DejaVuSans-50"/>
       <use x="63.623047" xlink:href="#DejaVuSans-48"/>
       <use x="127.246094" xlink:href="#DejaVuSans-49"/>
       <use x="190.869141" xlink:href="#DejaVuSans-55"/>
      </g>
     </g>
    </g>
    <g id="xtick_4">
     <g id="line2d_7">
      <path clip-path="url(#p737fa6784e)" d="M 415.518821 640.8 
L 415.518821 86.4 
" style="fill:none;stroke:#cccccc;stroke-linecap:round;stroke-width:0.8;"/>
     </g>
     <g id="line2d_8"/>
     <g id="text_4">
      <!-- 2018 -->
      <defs>
       <path d="M 31.78125 34.625 
Q 24.75 34.625 20.71875 30.859375 
Q 16.703125 27.09375 16.703125 20.515625 
Q 16.703125 13.921875 20.71875 10.15625 
Q 24.75 6.390625 31.78125 6.390625 
Q 38.8125 6.390625 42.859375 10.171875 
Q 46.921875 13.96875 46.921875 20.515625 
Q 46.921875 27.09375 42.890625 30.859375 
Q 38.875 34.625 31.78125 34.625 
z
M 21.921875 38.8125 
Q 15.578125 40.375 12.03125 44.71875 
Q 8.5 49.078125 8.5 55.328125 
Q 8.5 64.0625 14.71875 69.140625 
Q 20.953125 74.21875 31.78125 74.21875 
Q 42.671875 74.21875 48.875 69.140625 
Q 55.078125 64.0625 55.078125 55.328125 
Q 55.078125 49.078125 51.53125 44.71875 
Q 48 40.375 41.703125 38.8125 
Q 48.828125 37.15625 52.796875 32.3125 
Q 56.78125 27.484375 56.78125 20.515625 
Q 56.78125 9.90625 50.3125 4.234375 
Q 43.84375 -1.421875 31.78125 -1.421875 
Q 19.734375 -1.421875 13.25 4.234375 
Q 6.78125 9.90625 6.78125 20.515625 
Q 6.78125 27.484375 10.78125 32.3125 
Q 14.796875 37.15625 21.921875 38.8125 
z
M 18.3125 54.390625 
Q 18.3125 48.734375 21.84375 45.5625 
Q 25.390625 42.390625 31.78125 42.390625 
Q 38.140625 42.390625 41.71875 45.5625 
Q 45.3125 48.734375 45.3125 54.390625 
Q 45.3125 60.0625 41.71875 63.234375 
Q 38.140625 66.40625 31.78125 66.40625 
Q 25.390625 66.40625 21.84375 63.234375 
Q 18.3125 60.0625 18.3125 54.390625 
z
" id="DejaVuSans-56"/>
      </defs>
      <g style="fill:#262626;" transform="translate(402.793821 651.898438)scale(0.1 -0.1)">
       <use xlink:href="#DejaVuSans-50"/>
       <use x="63.623047" xlink:href="#DejaVuSans-48"/>
       <use x="127.246094" xlink:href="#DejaVuSans-49"/>
       <use x="190.869141" xlink:href="#DejaVuSans-56"/>
      </g>
     </g>
    </g>
    <g id="xtick_5">
     <g id="line2d_9">
      <path clip-path="url(#p737fa6784e)" d="M 499.680325 640.8 
L 499.680325 86.4 
" style="fill:none;stroke:#cccccc;stroke-linecap:round;stroke-width:0.8;"/>
     </g>
     <g id="line2d_10"/>
     <g id="text_5">
      <!-- 2019 -->
      <defs>
       <path d="M 10.984375 1.515625 
L 10.984375 10.5 
Q 14.703125 8.734375 18.5 7.8125 
Q 22.3125 6.890625 25.984375 6.890625 
Q 35.75 6.890625 40.890625 13.453125 
Q 46.046875 20.015625 46.78125 33.40625 
Q 43.953125 29.203125 39.59375 26.953125 
Q 35.25 24.703125 29.984375 24.703125 
Q 19.046875 24.703125 12.671875 31.3125 
Q 6.296875 37.9375 6.296875 49.421875 
Q 6.296875 60.640625 12.9375 67.421875 
Q 19.578125 74.21875 30.609375 74.21875 
Q 43.265625 74.21875 49.921875 64.515625 
Q 56.59375 54.828125 56.59375 36.375 
Q 56.59375 19.140625 48.40625 8.859375 
Q 40.234375 -1.421875 26.421875 -1.421875 
Q 22.703125 -1.421875 18.890625 -0.6875 
Q 15.09375 0.046875 10.984375 1.515625 
z
M 30.609375 32.421875 
Q 37.25 32.421875 41.125 36.953125 
Q 45.015625 41.5 45.015625 49.421875 
Q 45.015625 57.28125 41.125 61.84375 
Q 37.25 66.40625 30.609375 66.40625 
Q 23.96875 66.40625 20.09375 61.84375 
Q 16.21875 57.28125 16.21875 49.421875 
Q 16.21875 41.5 20.09375 36.953125 
Q 23.96875 32.421875 30.609375 32.421875 
z
" id="DejaVuSans-57"/>
      </defs>
      <g style="fill:#262626;" transform="translate(486.955325 651.898438)scale(0.1 -0.1)">
       <use xlink:href="#DejaVuSans-50"/>
       <use x="63.623047" xlink:href="#DejaVuSans-48"/>
       <use x="127.246094" xlink:href="#DejaVuSans-49"/>
       <use x="190.869141" xlink:href="#DejaVuSans-57"/>
      </g>
     </g>
    </g>
    <g id="xtick_6">
     <g id="line2d_11">
      <path clip-path="url(#p737fa6784e)" d="M 583.841829 640.8 
L 583.841829 86.4 
" style="fill:none;stroke:#cccccc;stroke-linecap:round;stroke-width:0.8;"/>
     </g>
     <g id="line2d_12"/>
     <g id="text_6">
      <!-- 2020 -->
      <g style="fill:#262626;" transform="translate(571.116829 651.898438)scale(0.1 -0.1)">
       <use xlink:href="#DejaVuSans-50"/>
       <use x="63.623047" xlink:href="#DejaVuSans-48"/>
       <use x="127.246094" xlink:href="#DejaVuSans-50"/>
       <use x="190.869141" xlink:href="#DejaVuSans-48"/>
      </g>
     </g>
    </g>
   </g>
   <g id="matplotlib.axis_2">
    <g id="ytick_1">
     <g id="line2d_13">
      <path clip-path="url(#p737fa6784e)" d="M 90 615.615357 
L 648 615.615357 
" style="fill:none;stroke:#cccccc;stroke-linecap:round;stroke-width:0.8;"/>
     </g>
     <g id="line2d_14"/>
     <g id="text_7">
      <!-- 0 -->
      <g style="fill:#262626;" transform="translate(80.1375 619.414576)scale(0.1 -0.1)">
       <use xlink:href="#DejaVuSans-48"/>
      </g>
     </g>
    </g>
    <g id="ytick_2">
     <g id="line2d_15">
      <path clip-path="url(#p737fa6784e)" d="M 90 538.830568 
L 648 538.830568 
" style="fill:none;stroke:#cccccc;stroke-linecap:round;stroke-width:0.8;"/>
     </g>
     <g id="line2d_16"/>
     <g id="text_8">
      <!-- 5000 -->
      <g style="fill:#262626;" transform="translate(61.05 542.629786)scale(0.1 -0.1)">
       <use xlink:href="#DejaVuSans-53"/>
       <use x="63.623047" xlink:href="#DejaVuSans-48"/>
       <use x="127.246094" xlink:href="#DejaVuSans-48"/>
       <use x="190.869141" xlink:href="#DejaVuSans-48"/>
      </g>
     </g>
    </g>
    <g id="ytick_3">
     <g id="line2d_17">
      <path clip-path="url(#p737fa6784e)" d="M 90 462.045778 
L 648 462.045778 
" style="fill:none;stroke:#cccccc;stroke-linecap:round;stroke-width:0.8;"/>
     </g>
     <g id="line2d_18"/>
     <g id="text_9">
      <!-- 10000 -->
      <g style="fill:#262626;" transform="translate(54.6875 465.844997)scale(0.1 -0.1)">
       <use xlink:href="#DejaVuSans-49"/>
       <use x="63.623047" xlink:href="#DejaVuSans-48"/>
       <use x="127.246094" xlink:href="#DejaVuSans-48"/>
       <use x="190.869141" xlink:href="#DejaVuSans-48"/>
       <use x="254.492188" xlink:href="#DejaVuSans-48"/>
      </g>
     </g>
    </g>
    <g id="ytick_4">
     <g id="line2d_19">
      <path clip-path="url(#p737fa6784e)" d="M 90 385.260989 
L 648 385.260989 
" style="fill:none;stroke:#cccccc;stroke-linecap:round;stroke-width:0.8;"/>
     </g>
     <g id="line2d_20"/>
     <g id="text_10">
      <!-- 15000 -->
      <g style="fill:#262626;" transform="translate(54.6875 389.060208)scale(0.1 -0.1)">
       <use xlink:href="#DejaVuSans-49"/>
       <use x="63.623047" xlink:href="#DejaVuSans-53"/>
       <use x="127.246094" xlink:href="#DejaVuSans-48"/>
       <use x="190.869141" xlink:href="#DejaVuSans-48"/>
       <use x="254.492188" xlink:href="#DejaVuSans-48"/>
      </g>
     </g>
    </g>
    <g id="ytick_5">
     <g id="line2d_21">
      <path clip-path="url(#p737fa6784e)" d="M 90 308.4762 
L 648 308.4762 
" style="fill:none;stroke:#cccccc;stroke-linecap:round;stroke-width:0.8;"/>
     </g>
     <g id="line2d_22"/>
     <g id="text_11">
      <!-- 20000 -->
      <g style="fill:#262626;" transform="translate(54.6875 312.275419)scale(0.1 -0.1)">
       <use xlink:href="#DejaVuSans-50"/>
       <use x="63.623047" xlink:href="#DejaVuSans-48"/>
       <use x="127.246094" xlink:href="#DejaVuSans-48"/>
       <use x="190.869141" xlink:href="#DejaVuSans-48"/>
       <use x="254.492188" xlink:href="#DejaVuSans-48"/>
      </g>
     </g>
    </g>
    <g id="ytick_6">
     <g id="line2d_23">
      <path clip-path="url(#p737fa6784e)" d="M 90 231.69141 
L 648 231.69141 
" style="fill:none;stroke:#cccccc;stroke-linecap:round;stroke-width:0.8;"/>
     </g>
     <g id="line2d_24"/>
     <g id="text_12">
      <!-- 25000 -->
      <g style="fill:#262626;" transform="translate(54.6875 235.490629)scale(0.1 -0.1)">
       <use xlink:href="#DejaVuSans-50"/>
       <use x="63.623047" xlink:href="#DejaVuSans-53"/>
       <use x="127.246094" xlink:href="#DejaVuSans-48"/>
       <use x="190.869141" xlink:href="#DejaVuSans-48"/>
       <use x="254.492188" xlink:href="#DejaVuSans-48"/>
      </g>
     </g>
    </g>
    <g id="ytick_7">
     <g id="line2d_25">
      <path clip-path="url(#p737fa6784e)" d="M 90 154.906621 
L 648 154.906621 
" style="fill:none;stroke:#cccccc;stroke-linecap:round;stroke-width:0.8;"/>
     </g>
     <g id="line2d_26"/>
     <g id="text_13">
      <!-- 30000 -->
      <defs>
       <path d="M 40.578125 39.3125 
Q 47.65625 37.796875 51.625 33 
Q 55.609375 28.21875 55.609375 21.1875 
Q 55.609375 10.40625 48.1875 4.484375 
Q 40.765625 -1.421875 27.09375 -1.421875 
Q 22.515625 -1.421875 17.65625 -0.515625 
Q 12.796875 0.390625 7.625 2.203125 
L 7.625 11.71875 
Q 11.71875 9.328125 16.59375 8.109375 
Q 21.484375 6.890625 26.8125 6.890625 
Q 36.078125 6.890625 40.9375 10.546875 
Q 45.796875 14.203125 45.796875 21.1875 
Q 45.796875 27.640625 41.28125 31.265625 
Q 36.765625 34.90625 28.71875 34.90625 
L 20.21875 34.90625 
L 20.21875 43.015625 
L 29.109375 43.015625 
Q 36.375 43.015625 40.234375 45.921875 
Q 44.09375 48.828125 44.09375 54.296875 
Q 44.09375 59.90625 40.109375 62.90625 
Q 36.140625 65.921875 28.71875 65.921875 
Q 24.65625 65.921875 20.015625 65.03125 
Q 15.375 64.15625 9.8125 62.3125 
L 9.8125 71.09375 
Q 15.4375 72.65625 20.34375 73.4375 
Q 25.25 74.21875 29.59375 74.21875 
Q 40.828125 74.21875 47.359375 69.109375 
Q 53.90625 64.015625 53.90625 55.328125 
Q 53.90625 49.265625 50.4375 45.09375 
Q 46.96875 40.921875 40.578125 39.3125 
z
" id="DejaVuSans-51"/>
      </defs>
      <g style="fill:#262626;" transform="translate(54.6875 158.70584)scale(0.1 -0.1)">
       <use xlink:href="#DejaVuSans-51"/>
       <use x="63.623047" xlink:href="#DejaVuSans-48"/>
       <use x="127.246094" xlink:href="#DejaVuSans-48"/>
       <use x="190.869141" xlink:href="#DejaVuSans-48"/>
       <use x="254.492188" xlink:href="#DejaVuSans-48"/>
      </g>
     </g>
    </g>
   </g>
   <g id="line2d_27">
    <path clip-path="url(#p737fa6784e)" d="M 115.363636 615.6 
L 116.966914 615.461787 
L 116.972737 615.431073 
L 117.995506 615.338932 
L 119.624619 615.200719 
L 119.731785 615.170005 
L 120.57577 615.04715 
L 120.657909 615.001079 
L 122.843071 614.862866 
L 124.009808 614.678583 
L 125.903811 614.509656 
L 125.932035 614.371443 
L 126.823454 614.233231 
L 126.866808 614.171803 
L 129.333312 613.757165 
L 129.343637 613.741808 
L 130.694731 613.603595 
L 131.774094 613.419312 
L 132.537953 613.250385 
L 133.238026 613.12753 
L 133.330172 613.035388 
L 135.563259 612.605393 
L 135.819381 612.559322 
L 136.680038 612.436467 
L 136.748352 612.344325 
L 139.716956 611.960401 
L 143.167279 611.146482 
L 143.253952 611.100411 
L 143.815455 610.946842 
L 143.891005 610.839343 
L 144.817771 610.716487 
L 146.181545 610.486133 
L 146.285992 610.440062 
L 147.118925 610.255779 
L 148.27598 610.117566 
L 148.67258 609.979353 
L 148.67883 609.94864 
L 149.573769 609.79507 
L 150.086811 609.564716 
L 150.141245 609.487931 
L 151.746279 609.242219 
L 152.649235 609.042579 
L 152.713818 608.950437 
L 156.13827 608.213303 
L 156.138524 608.197946 
L 156.307269 608.075091 
L 157.006511 607.87545 
L 157.721983 607.752595 
L 157.73787 607.583668 
L 158.157268 607.445455 
L 158.199496 607.399385 
L 159.105796 607.215101 
L 159.118054 607.092245 
L 159.348398 606.96939 
L 159.357122 606.662251 
L 159.589124 606.539395 
L 159.634658 606.493324 
L 159.995486 606.339754 
L 160.202716 606.170828 
L 160.734765 606.047972 
L 160.972505 605.971187 
L 162.412658 605.848332 
L 164.192835 605.495122 
L 164.194186 605.449051 
L 164.854404 605.280124 
L 164.898328 605.20334 
L 165.631635 605.080484 
L 165.976189 604.942271 
L 166.284663 604.635132 
L 167.362238 604.420135 
L 167.461206 604.266565 
L 167.870765 604.097639 
L 168.073965 604.036211 
L 168.183539 603.974783 
L 168.799565 603.851927 
L 168.855117 603.729072 
L 169.037667 603.329791 
L 169.250815 603.206935 
L 169.576908 602.961224 
L 170.608058 602.623371 
L 170.72304 602.42373 
L 170.844044 602.300874 
L 171.402527 601.71731 
L 172.091265 601.548384 
L 172.44307 601.3641 
L 172.640931 601.133746 
L 172.952632 600.841963 
L 173.039451 600.826607 
L 173.876983 600.703751 
L 173.902547 600.65768 
L 174.088585 600.534824 
L 174.165496 600.45804 
L 174.408386 600.30447 
L 174.559194 600.135543 
L 175.519109 599.920546 
L 175.931326 599.751619 
L 176.029152 599.674835 
L 176.225307 599.490551 
L 176.380927 599.290911 
L 176.833967 599.168055 
L 176.938345 598.983772 
L 177.297056 598.676632 
L 177.391836 598.53842 
L 177.698827 598.400207 
L 177.754641 598.292708 
L 178.415529 598.169853 
L 178.711391 597.647716 
L 178.823089 597.540218 
L 178.924063 597.248435 
L 179.004227 597.12558 
L 179.132356 596.987367 
L 179.246656 596.864511 
L 179.393311 596.726299 
L 179.408699 596.649514 
L 180.030581 596.511301 
L 180.099178 596.250233 
L 180.296385 596.11202 
L 180.341201 596.004522 
L 180.517253 595.881666 
L 180.833862 595.4056 
L 181.004306 595.267388 
L 181.222748 595.20596 
L 181.655725 595.067747 
L 181.705271 594.868107 
L 182.69811 593.608836 
L 183.262568 593.470624 
L 183.395098 593.301697 
L 183.548116 593.148128 
L 183.685425 592.902416 
L 184.017465 592.610634 
L 184.203895 592.457065 
L 184.4134 592.364923 
L 185.13707 592.242067 
L 185.344877 591.8735 
L 185.597054 591.627789 
L 185.665398 591.474219 
L 185.81631 591.351364 
L 185.869031 591.274579 
L 186.526311 591.136366 
L 187.022855 590.859941 
L 187.242636 590.6603 
L 187.300119 590.583516 
L 187.43113 590.445303 
L 187.49613 590.276376 
L 188.121275 590.10745 
L 188.422648 589.75424 
L 188.789961 589.616027 
L 188.860808 589.354959 
L 189.089493 589.186032 
L 189.101715 589.170676 
L 189.702351 589.04782 
L 190.715785 587.942119 
L 191.312972 587.773192 
L 191.887001 587.097486 
L 192.035345 586.913203 
L 192.155452 586.682848 
L 192.316241 586.544636 
L 192.319588 586.529279 
L 192.973438 586.360352 
L 193.053503 586.145355 
L 193.374009 585.991785 
L 193.538446 585.822859 
L 193.676882 585.700003 
L 194.460358 585.423578 
L 194.56307 585.300722 
L 194.662988 585.131796 
L 194.824236 585.00894 
L 194.8536 584.886084 
L 195.241724 584.747872 
L 195.350251 584.563588 
L 195.588508 584.287163 
L 196.306819 584.14895 
L 196.644594 583.980024 
L 196.88603 583.718955 
L 197.091312 583.473244 
L 197.223533 583.350388 
L 197.788855 583.227533 
L 197.889 582.997178 
L 198.055663 582.874323 
L 198.353874 582.490399 
L 198.517767 582.213974 
L 198.617572 582.106475 
L 198.727106 581.983619 
L 198.87952 581.845407 
L 199.40118 581.599695 
L 199.450421 581.492197 
L 199.637459 581.353984 
L 199.893939 581.077559 
L 200.002341 580.954703 
L 200.26245 580.801133 
L 200.367489 580.662921 
L 200.433741 580.478637 
L 201.027405 580.340425 
L 201.107769 580.186855 
L 201.279065 580.064 
L 201.41057 579.864359 
L 201.766666 579.40365 
L 201.857574 579.342222 
L 201.999925 579.188653 
L 202.073422 579.065797 
L 202.868059 578.8508 
L 202.936894 578.712587 
L 203.08874 578.589732 
L 203.164717 578.328663 
L 203.327673 578.159737 
L 203.407063 577.99081 
L 203.560734 577.821884 
L 203.660716 577.622243 
L 204.279179 577.453317 
L 204.381234 577.28439 
L 204.525376 577.161534 
L 204.639563 576.93118 
L 204.8123 576.73154 
L 204.897201 576.670112 
L 205.50141 576.501185 
L 205.873316 576.37833 
L 205.932548 576.132618 
L 206.144636 575.994406 
L 206.43898 575.487626 
L 206.549754 575.01156 
L 206.843001 574.612279 
L 206.865925 574.520138 
L 207.458549 574.351211 
L 207.629757 574.044072 
L 207.708341 573.921216 
L 207.821691 573.706219 
L 207.967727 573.521935 
L 208.057146 573.414437 
L 208.282588 573.260867 
L 208.391534 573.076584 
L 208.522094 572.999799 
L 209.11874 572.876943 
L 209.363672 572.754088 
L 209.726984 572.585161 
L 209.851641 572.431591 
L 209.852234 572.370164 
L 210.004229 572.247308 
L 210.125465 572.047668 
L 210.684383 571.909455 
L 210.979335 571.663744 
L 211.222212 571.540888 
L 211.2947 571.448746 
L 211.441359 571.310534 
L 211.534191 571.080179 
L 211.666035 570.941967 
L 211.731795 570.895896 
L 212.300454 570.77304 
L 213.010924 570.296974 
L 213.283291 570.158762 
L 213.354565 570.097334 
L 213.888364 569.928407 
L 214.615888 569.268058 
L 214.747174 569.160559 
L 215.471698 568.745922 
L 215.933071 568.223785 
L 215.98691 568.054858 
L 216.101023 567.839861 
L 216.369485 567.563436 
L 216.513386 567.348438 
L 217.139481 567.194869 
L 217.401195 566.933801 
L 217.424533 566.764874 
L 217.503808 565.551674 
L 217.653351 565.428819 
L 217.764808 564.568829 
L 217.862423 564.430616 
L 217.948791 564.169548 
L 218.712263 563.954551 
L 219.331756 563.294202 
L 219.650156 563.140632 
L 219.739583 562.956348 
L 220.461307 562.818136 
L 220.796546 562.679923 
L 220.900817 562.526354 
L 221.371933 562.295999 
L 221.423584 562.203858 
L 222.054275 562.050288 
L 222.852704 560.990658 
L 223.73103 560.57602 
L 223.874681 560.483878 
L 224.579149 559.823529 
L 224.673794 559.762101 
L 225.232244 559.593175 
L 225.343584 559.454962 
L 225.595071 559.117109 
L 225.712365 558.948182 
L 225.823883 558.533545 
L 226.000594 558.441403 
L 226.143898 558.30319 
L 226.238675 558.072836 
L 226.853877 557.94998 
L 227.589012 556.874993 
L 227.684104 556.706067 
L 227.766678 556.567854 
L 227.987941 556.368214 
L 228.003233 556.3375 
L 228.496355 556.214644 
L 228.64846 556.061074 
L 228.890043 555.846077 
L 229.235536 555.354654 
L 229.429455 555.032158 
L 229.479088 554.940016 
L 230.040496 554.77109 
L 230.304613 554.41788 
L 230.498743 553.9111 
L 230.980833 553.573247 
L 231.149466 553.342893 
L 231.676476 553.143252 
L 232.728791 551.668984 
L 233.41176 551.469344 
L 233.481056 551.331131 
L 233.794858 551.146848 
L 234.069883 550.916493 
L 234.967018 550.348286 
L 235.060195 550.256144 
L 235.919407 549.611152 
L 236.538996 549.488296 
L 236.646184 549.442226 
L 236.870142 549.211871 
L 237.124062 549.073659 
L 237.351546 548.874018 
L 237.510072 548.659021 
L 237.902265 548.520808 
L 238.051694 548.382595 
L 238.160117 548.152241 
L 239.222909 547.461178 
L 239.679905 547.338322 
L 239.912203 546.954398 
L 240.285891 546.49369 
L 240.35929 546.294049 
L 240.488398 546.171194 
L 240.560742 546.017624 
L 240.745783 545.848697 
L 240.832076 545.756556 
L 241.822749 545.265133 
L 242.131517 544.92728 
L 242.912311 544.666212 
L 243.02225 544.543356 
L 243.204558 544.144075 
L 244.248012 543.437655 
L 244.60512 543.314799 
L 244.907261 543.115159 
L 245.559089 542.915518 
L 246.482776 542.777306 
L 246.835026 542.593022 
L 247.81513 542.45481 
L 247.938114 542.316597 
L 249.492788 541.471964 
L 249.549005 541.333752 
L 249.735993 541.195539 
L 249.824662 541.118754 
L 250.404868 540.842329 
L 250.502921 540.719473 
L 251.527256 540.350906 
L 251.637417 540.228051 
L 251.767246 540.074481 
L 251.906605 539.6752 
L 252.013643 539.552345 
L 252.202283 539.306633 
L 252.680127 539.12235 
L 252.744743 538.876639 
L 252.906434 538.738426 
L 252.986849 538.523429 
L 253.263715 538.369859 
L 253.384214 538.231646 
L 253.664128 537.755581 
L 253.764817 537.648082 
L 253.857612 537.525226 
L 253.961063 537.463798 
L 254.528104 536.941662 
L 254.639351 536.711307 
L 254.80318 536.573095 
L 254.910426 536.250599 
L 254.988169 536.112386 
L 255.099031 535.912746 
L 255.315135 535.513465 
L 255.897645 535.329181 
L 256.131205 534.822402 
L 256.354061 534.622761 
L 256.466949 534.346336 
L 256.493218 534.208123 
L 256.598782 534.054554 
L 257.162301 532.856711 
L 257.730679 532.488144 
L 258.291735 531.720296 
L 258.409728 531.459228 
L 258.76628 530.998519 
L 259.139138 530.722094 
L 259.24735 530.53781 
L 259.447432 530.13853 
L 259.499565 529.754606 
L 259.626411 529.616393 
L 259.734132 529.324611 
L 259.852726 529.186398 
L 259.902001 529.048186 
L 260.053439 528.92533 
L 260.235213 528.41855 
L 260.435024 528.341765 
L 260.761206 528.203553 
L 260.821448 527.942485 
L 260.919356 527.727487 
L 260.989402 527.558561 
L 261.16373 527.297492 
L 261.270304 527.036424 
L 261.550591 526.406789 
L 261.665043 526.222505 
L 261.7438 526.022865 
L 262.368033 525.638941 
L 262.485876 525.485371 
L 262.788069 525.301088 
L 262.944305 524.963235 
L 263.07502 524.778951 
L 263.196541 524.563954 
L 263.335556 524.256815 
L 263.456995 524.118602 
L 263.970421 523.949675 
L 264.07371 523.703964 
L 264.248189 523.535038 
L 264.337368 523.381468 
L 264.427254 523.243255 
L 264.561951 523.151114 
L 264.701924 522.96683 
L 264.858979 522.429337 
L 266.796893 521.292922 
L 267.249936 521.154709 
L 267.387902 521.04721 
L 267.739688 520.816856 
L 267.851677 520.740071 
L 268.558203 520.432932 
L 268.849845 520.310076 
L 269.111753 520.156507 
L 269.220937 519.972223 
L 269.492845 519.665084 
L 269.751235 519.450087 
L 269.834129 519.28116 
L 270.596955 519.096877 
L 270.920014 518.835809 
L 271.008224 518.697596 
L 271.234672 518.451885 
L 271.518685 518.236887 
L 271.934921 518.052604 
L 272.063317 517.822249 
L 272.373986 517.407611 
L 272.473303 517.192614 
L 273.16878 516.670477 
L 273.690293 516.486194 
L 273.745053 516.424766 
L 273.975448 516.286554 
L 274.687608 515.534063 
L 275.301176 515.349779 
L 275.413116 515.272994 
L 275.544645 515.134782 
L 275.680909 515.088711 
L 276.2436 514.33622 
L 276.351062 514.259435 
L 276.778926 514.121222 
L 276.89056 513.967653 
L 277.103613 513.768012 
L 277.562333 513.460873 
L 277.713211 513.215162 
L 277.826635 513.092306 
L 277.867168 512.984808 
L 278.215356 512.846595 
L 278.300115 512.708382 
L 278.421058 512.539456 
L 278.532512 512.247674 
L 278.782731 511.571967 
L 278.863981 510.85019 
L 279.007962 510.681264 
L 279.152152 510.374125 
L 279.473874 510.005558 
L 279.526064 509.94413 
L 280.091662 509.698419 
L 280.333047 509.299138 
L 280.47196 508.899857 
L 280.57677 508.592718 
L 280.63912 508.37772 
L 280.744148 508.147366 
L 280.865811 507.993796 
L 281.051676 507.394875 
L 281.272552 507.103093 
L 281.492774 506.96488 
L 281.588824 506.826667 
L 281.86971 506.642384 
L 282.11948 506.289174 
L 282.193684 506.089534 
L 282.498658 505.306329 
L 282.645671 505.122045 
L 282.784091 504.738121 
L 283.006883 504.538481 
L 283.245268 504.415625 
L 284.33042 501.943155 
L 284.63068 501.636016 
L 284.915907 501.497803 
L 284.974 501.31352 
L 285.08237 501.083165 
L 285.331471 500.714598 
L 285.505761 500.284603 
L 285.635312 500.054249 
L 285.704166 499.777824 
L 285.860445 499.639611 
L 286.013687 499.209616 
L 286.375942 499.04069 
L 286.47381 498.902477 
L 286.61151 498.672123 
L 286.730354 498.426412 
L 286.818655 498.288199 
L 286.999996 497.858204 
L 287.096548 497.658564 
L 287.205406 497.504994 
L 287.339636 497.151784 
L 287.476546 497.028928 
L 287.573135 496.844645 
L 287.678545 496.783217 
L 288.413744 496.276437 
L 288.465734 496.000012 
L 288.619227 495.785015 
L 288.692874 495.570017 
L 288.838728 495.416448 
L 288.903237 495.247521 
L 289.003622 494.925025 
L 289.132178 494.802169 
L 289.250435 494.633243 
L 289.932569 494.448959 
L 290.772225 493.496828 
L 290.821069 493.420043 
L 291.404677 493.281831 
L 291.50254 493.08219 
L 291.690329 492.88255 
L 292.047717 492.467912 
L 292.132908 492.360413 
L 292.31576 492.206844 
L 292.441127 491.976489 
L 292.931818 491.807563 
L 293.088476 491.546494 
L 293.431914 491.085786 
L 293.511832 490.916859 
L 293.635149 490.794003 
L 293.851945 490.594363 
L 294.042488 490.440793 
L 294.21799 490.379366 
L 294.660393 490.164368 
L 294.709511 490.041513 
L 295.088539 489.857229 
L 295.633273 489.427234 
L 296.241583 489.304379 
L 296.736614 488.6901 
L 296.867761 488.367604 
L 296.969675 488.229392 
L 297.126392 488.075822 
L 297.402231 487.78404 
L 297.873438 487.661184 
L 297.997313 487.553685 
L 298.27511 487.338688 
L 298.380299 486.985478 
L 298.567506 486.816551 
L 298.622605 486.616911 
L 298.735372 486.401914 
L 298.806302 486.263701 
L 298.916158 486.125488 
L 299.45877 485.941205 
L 300.159064 484.881575 
L 300.290284 484.574436 
L 300.391165 484.436223 
L 300.474483 484.09837 
L 300.885577 483.929443 
L 301.066958 483.791231 
L 301.105769 483.637661 
L 301.333117 483.284451 
L 301.473237 482.977312 
L 301.638117 482.68553 
L 301.807868 482.439818 
L 301.9595 482.117322 
L 302.049488 481.963753 
L 302.345115 481.733398 
L 302.69827 481.579829 
L 302.967955 480.673768 
L 303.076818 480.397343 
L 303.187843 480.243773 
L 303.496804 479.506639 
L 303.574339 479.35307 
L 303.705569 478.984503 
L 303.773979 478.938432 
L 304.26352 478.800219 
L 304.372282 478.677364 
L 304.559681 478.447009 
L 304.691114 477.94023 
L 304.808435 477.802017 
L 305.405729 476.57346 
L 305.738463 476.358463 
L 305.85055 476.189537 
L 305.974999 475.943825 
L 307.404832 474.208489 
L 307.559171 474.085633 
L 308.611689 472.350297 
L 309.143612 472.181371 
L 309.386105 471.858874 
L 309.542626 471.705305 
L 309.680771 471.42888 
L 309.860442 471.213882 
L 310.334197 470.76853 
L 310.842449 470.614961 
L 311.040808 470.277108 
L 311.262739 469.417118 
L 311.34228 469.217478 
L 311.449422 469.140693 
L 311.738778 468.633913 
L 311.825139 468.464987 
L 312.034729 468.249989 
L 312.383408 468.111777 
L 312.712272 467.697139 
L 312.846224 467.405357 
L 312.88806 467.23643 
L 313.001169 466.130729 
L 313.120963 465.900375 
L 313.257398 465.639306 
L 313.336929 465.485737 
L 313.447799 465.071099 
L 313.618444 464.978957 
L 314.057017 464.748603 
L 314.162606 464.579676 
L 314.371884 464.333965 
L 314.480958 464.118968 
L 314.703953 463.888613 
L 314.963712 463.688973 
L 315.044431 463.581474 
L 315.612017 463.381834 
L 315.697027 463.212907 
L 315.873794 463.074695 
L 315.942594 462.813626 
L 316.128966 462.6447 
L 316.250858 462.537201 
L 316.440771 462.368274 
L 316.57146 462.183991 
L 316.929765 461.93828 
L 317.158549 461.800067 
L 317.272816 461.646497 
L 317.365913 461.492928 
L 317.521076 461.324001 
L 317.762549 460.909363 
L 317.954131 460.740437 
L 318.098018 460.586867 
L 318.63589 460.2183 
L 318.726022 459.987946 
L 318.862189 459.834376 
L 318.941398 459.634736 
L 319.085817 459.481166 
L 319.184784 459.204741 
L 319.359387 458.912959 
L 319.480705 458.744032 
L 319.71335 458.283324 
L 319.815011 458.160468 
L 319.891326 458.09904 
L 320.420004 457.945471 
L 320.652489 457.669045 
L 320.774051 456.916554 
L 320.928389 456.640129 
L 321.443534 453.614808 
L 321.634707 453.461239 
L 321.69952 453.430525 
L 322.041216 453.292312 
L 322.152745 453.031244 
L 322.299427 452.754819 
L 322.579552 451.43412 
L 323.069979 451.23448 
L 323.707683 451.08091 
L 323.778242 450.973412 
L 323.904324 450.835199 
L 323.989036 450.574131 
L 324.169272 450.266992 
L 324.42486 449.760212 
L 324.526483 448.117018 
L 324.691444 447.748451 
L 324.803718 447.610238 
L 325.321526 447.287742 
L 325.429244 447.088101 
L 325.664462 446.565965 
L 325.921299 445.721332 
L 326.042124 445.58312 
L 326.128164 445.490978 
L 326.224522 445.322051 
L 326.57254 444.738487 
L 326.856027 444.584917 
L 326.959716 444.415991 
L 327.926746 443.402432 
L 328.594105 443.172077 
L 328.679035 443.095292 
L 328.913548 442.95708 
L 329.104993 442.80351 
L 329.247504 442.619227 
L 329.339827 442.266017 
L 330.391891 441.958877 
L 330.446248 441.882093 
L 330.744739 441.74388 
L 330.854229 441.574954 
L 330.916537 441.528883 
L 332.046261 441.129602 
L 332.157401 440.991389 
L 332.483836 440.515323 
L 332.741157 440.392468 
L 332.762109 440.33104 
L 333.306888 440.17747 
L 333.425815 439.97783 
L 333.518076 439.885688 
L 333.699663 439.747476 
L 334.115707 439.11784 
L 334.296397 438.948914 
L 334.396749 438.841415 
L 334.605781 438.76463 
L 334.974639 438.641775 
L 335.077759 438.488205 
L 335.264059 438.319278 
L 335.395617 438.119638 
L 335.46461 437.919998 
L 335.628745 437.812499 
L 335.899263 437.597501 
L 336.063113 437.474646 
L 336.840678 437.275005 
L 337.095031 436.983223 
L 337.106528 436.507157 
L 337.155515 436.353588 
L 337.309579 436.230732 
L 337.424095 436.09252 
L 338.121061 435.800737 
L 338.230651 435.370743 
L 338.702685 435.048246 
L 338.86665 435.002176 
L 339.081235 434.802535 
L 339.124114 434.695036 
L 339.88568 434.433968 
L 340.080205 434.265042 
L 340.132098 434.111472 
L 340.523528 433.927189 
L 340.658127 433.712191 
L 340.787969 433.573978 
L 340.89186 433.358981 
L 341.090978 433.205411 
L 341.538014 433.067199 
L 341.648273 432.928986 
L 341.962702 432.545062 
L 342.060413 432.360779 
L 342.67084 432.05364 
L 342.741956 431.961498 
L 343.144219 431.807928 
L 343.711698 431.470075 
L 343.984534 431.147579 
L 344.6631 430.702227 
L 344.78054 430.195448 
L 344.993479 429.98045 
L 345.462757 428.859392 
L 345.580785 428.705823 
L 345.633815 428.414041 
L 345.732951 427.738335 
L 346.100632 427.569408 
L 346.201881 427.400481 
L 346.240482 427.231555 
L 346.357963 426.018355 
L 346.77462 425.112295 
L 346.844795 424.958725 
L 347.063603 423.97588 
L 347.246254 423.62267 
L 347.365859 422.731966 
L 347.857103 422.56304 
L 347.899675 422.424827 
L 348.085182 420.535921 
L 348.139122 420.105926 
L 348.272856 419.829501 
L 348.348859 419.691289 
L 348.47315 419.368792 
L 348.635626 419.23058 
L 348.997975 418.631658 
L 349.468093 418.37059 
L 349.576988 417.909881 
L 349.718042 417.756312 
L 350.238105 417.249532 
L 350.346088 417.126677 
L 350.52705 416.988464 
L 351.147018 416.75811 
L 351.201132 416.681325 
L 351.352752 416.558469 
L 351.473 416.435614 
L 351.727705 416.143831 
L 351.821335 416.05169 
L 352.124003 415.882763 
L 352.163727 415.852049 
L 352.716154 415.713836 
L 352.873055 415.54491 
L 353.458105 414.945989 
L 353.730621 414.823133 
L 354.349012 414.638849 
L 355.583239 413.62529 
L 356.170589 413.471721 
L 356.263435 413.364222 
L 356.563018 413.179938 
L 356.722003 412.949584 
L 356.921051 412.826728 
L 356.970633 412.412091 
L 357.571397 412.227807 
L 357.706918 411.828526 
L 357.818456 411.244962 
L 358.080593 410.95318 
L 358.189513 410.753539 
L 358.35905 410.584613 
L 358.495332 410.354258 
L 358.573566 410.108547 
L 359.38009 409.786051 
L 359.566011 409.647838 
L 359.801909 409.478912 
L 359.93343 409.110345 
L 360.078949 408.926061 
L 360.18762 408.234998 
L 360.851425 407.989287 
L 360.946007 407.881788 
L 361.134672 407.728218 
L 361.706672 406.9143 
L 361.780478 406.730016 
L 361.83455 406.653231 
L 362.450707 406.438234 
L 362.57013 406.177166 
L 362.686602 406.023596 
L 362.783195 405.931454 
L 362.996379 405.762528 
L 363.117895 405.685743 
L 363.213276 405.54753 
L 363.325177 403.919693 
L 363.952817 403.044346 
L 364.045406 402.890777 
L 364.1884 402.629708 
L 364.288761 402.491496 
L 364.396589 402.215071 
L 364.557314 401.923288 
L 364.61209 401.754362 
L 364.722275 401.616149 
L 364.876306 401.370438 
L 365.000529 401.232225 
L 365.125922 400.9558 
L 365.634643 400.740803 
L 365.749469 400.648661 
L 365.986966 399.54296 
L 366.117731 399.404747 
L 366.344836 397.730839 
L 366.469154 394.79766 
L 366.571549 394.64409 
L 366.765195 394.152668 
L 366.8708 394.014455 
L 367.804895 392.432688 
L 367.917385 392.217691 
L 368.043662 391.987337 
L 368.158699 391.772339 
L 368.188068 391.634127 
L 368.464729 390.95842 
L 368.661575 390.712709 
L 368.7287 390.513069 
L 368.954539 389.591651 
L 369.007431 389.376654 
L 369.116041 388.885231 
L 369.232807 388.700948 
L 369.456084 388.117383 
L 369.475024 387.963814 
L 369.565276 387.856315 
L 369.615208 387.702745 
L 369.712479 386.765971 
L 369.783037 386.643115 
L 369.923269 386.090265 
L 370.322767 385.998123 
L 370.478592 385.844553 
L 370.660651 385.122776 
L 370.72417 384.999921 
L 370.876147 384.508498 
L 370.983414 384.354929 
L 371.091859 383.940291 
L 371.182679 383.802078 
L 371.291369 383.448868 
L 371.364193 383.295298 
L 371.473502 382.911375 
L 371.961704 382.066742 
L 372.112643 381.913172 
L 372.259832 381.590676 
L 372.362741 381.452464 
L 372.445929 381.222109 
L 372.534691 381.083897 
L 372.655345 380.746043 
L 372.845079 380.546403 
L 372.886973 380.469618 
L 372.997032 380.346763 
L 373.108636 379.978196 
L 373.330262 379.916768 
L 373.888969 379.732484 
L 373.939643 379.686413 
L 374.207721 379.548201 
L 374.468962 379.287132 
L 374.680689 379.164277 
L 374.772494 379.102849 
L 375.306758 378.857138 
L 375.412891 378.657497 
L 375.620106 378.503928 
L 375.743298 378.335001 
L 376.325812 377.690009 
L 376.932482 377.551796 
L 377.442842 376.553594 
L 377.62777 376.307883 
L 377.740895 376.138956 
L 377.963925 375.923959 
L 377.996878 375.877888 
L 378.534187 375.739675 
L 378.676132 375.509321 
L 378.885744 375.371108 
L 379.041585 375.094683 
L 379.162735 374.95647 
L 379.318606 374.818258 
L 379.463382 374.60326 
L 379.538983 374.495762 
L 380.15206 374.311478 
L 380.277333 374.004339 
L 380.467487 373.835412 
L 380.763755 373.313276 
L 380.903631 373.205777 
L 381.138387 372.944709 
L 381.198327 372.791139 
L 381.689624 372.560785 
L 381.824102 372.345788 
L 381.926566 372.161504 
L 382.592917 371.147945 
L 382.719704 370.932947 
L 383.060118 370.71795 
L 383.3805 370.579737 
L 383.495347 370.380097 
L 383.70225 370.026887 
L 384.006097 369.781176 
L 384.190913 369.566178 
L 384.726866 369.212968 
L 385.033051 369.090112 
L 385.093767 368.982614 
L 385.260897 368.859758 
L 385.372816 368.690832 
L 385.603772 368.491191 
L 385.874909 368.030482 
L 386.211074 367.477632 
L 386.786423 367.109065 
L 387.145391 366.663713 
L 387.418337 366.5255 
L 387.599195 366.110863 
L 387.914936 365.650154 
L 388.023837 365.481227 
L 388.101012 365.343015 
L 388.172673 365.128017 
L 388.328335 364.974448 
L 388.457364 364.805521 
L 388.812096 363.945532 
L 388.946256 363.807319 
L 389.109666 363.254468 
L 390.079936 362.609476 
L 391.007826 361.534489 
L 391.386868 361.365563 
L 391.486375 361.196636 
L 391.773166 360.797355 
L 391.883697 360.628429 
L 392.665719 359.768439 
L 392.793149 359.138804 
L 392.979734 358.985234 
L 393.131941 358.847022 
L 393.23022 358.75488 
L 393.362192 358.509168 
L 393.442844 358.309528 
L 393.617999 358.109888 
L 393.711528 357.787391 
L 393.886579 357.649179 
L 394.383816 357.311326 
L 394.766205 357.157756 
L 395.028908 356.942759 
L 395.165833 356.789189 
L 395.867238 356.005984 
L 396.269972 355.867772 
L 396.328407 355.698845 
L 396.626856 355.560633 
L 396.92011 355.207423 
L 397.096109 354.992425 
L 397.325386 354.746714 
L 397.920783 354.547073 
L 398.012726 354.378147 
L 398.188439 354.20922 
L 398.316803 353.994223 
L 398.543838 353.65637 
L 398.636206 353.518157 
L 398.744715 353.410658 
L 398.766313 353.272446 
L 398.865828 352.934593 
L 399.145245 352.79638 
L 399.388365 352.673524 
L 399.468609 352.566026 
L 399.602182 352.427813 
L 399.935634 352.059246 
L 400.075951 351.798178 
L 400.259232 351.598537 
L 400.383315 351.414254 
L 400.564558 351.168543 
L 401.119069 350.938188 
L 401.139715 350.753905 
L 401.247537 349.586776 
L 401.282514 349.26428 
L 401.393678 349.095353 
L 401.532263 348.880356 
L 401.647419 348.665358 
L 401.782434 348.511789 
L 401.890851 348.342862 
L 402.530301 347.912868 
L 402.781686 347.774655 
L 402.885431 347.237161 
L 403.095367 346.960736 
L 403.809715 346.146817 
L 404.214481 345.962534 
L 404.356429 345.77825 
L 404.466819 345.686109 
L 405.285523 344.534337 
L 405.517007 344.36541 
L 405.759935 344.135056 
L 405.950942 343.920059 
L 406.055845 343.735775 
L 406.157831 343.566848 
L 406.308588 343.397922 
L 406.825836 342.24615 
L 407.549055 342.04651 
L 407.648802 341.877583 
L 407.882186 341.647229 
L 408.16897 341.447588 
L 408.235277 341.370803 
L 408.371351 341.232591 
L 408.452815 341.063664 
L 409.439759 340.572242 
L 409.530998 340.495457 
L 409.687925 340.357244 
L 410.221711 340.034748 
L 410.91136 339.635467 
L 410.945405 339.558682 
L 411.183441 339.435827 
L 411.19524 339.159402 
L 411.297695 338.821548 
L 412.525779 336.901929 
L 412.651896 336.625504 
L 412.756935 336.379792 
L 412.867923 336.333721 
L 412.998894 336.134081 
L 413.104245 335.980511 
L 413.20862 335.826942 
L 413.455538 335.489089 
L 413.512715 335.274091 
L 414.206789 335.059094 
L 414.47452 334.598385 
L 414.537953 334.475529 
L 414.649155 333.922679 
L 414.860319 333.538755 
L 415.914467 332.847692 
L 416.090263 331.818776 
L 416.163256 331.680563 
L 417.234062 329.807014 
L 417.304306 329.653445 
L 417.460802 329.315592 
L 417.917923 328.762741 
L 418.000349 328.302032 
L 418.323548 328.025607 
L 418.483443 327.733825 
L 418.668133 327.595612 
L 418.786161 327.334544 
L 419.947516 325.000286 
L 420.416865 324.769932 
L 420.52829 324.616362 
L 420.669475 323.172808 
L 421.02679 322.543173 
L 421.176499 322.374247 
L 421.389521 322.174606 
L 421.525552 321.882824 
L 421.632721 321.806039 
L 421.801729 321.560328 
L 421.900609 320.761766 
L 422.149344 320.516055 
L 422.355982 320.254986 
L 423.037779 319.302855 
L 423.14012 319.118572 
L 423.320693 319.041787 
L 423.705323 318.918931 
L 423.846841 318.627149 
L 424.086964 318.335367 
L 424.476884 317.628947 
L 425.254096 316.983954 
L 425.361716 315.84754 
L 425.410386 315.371474 
L 425.519546 314.557555 
L 425.564789 314.235059 
L 426.240456 309.566544 
L 426.279527 309.305475 
L 426.386965 308.32263 
L 426.426035 308.061562 
L 426.523714 307.785137 
L 426.703779 307.508711 
L 427.060921 306.188013 
L 427.168376 305.589092 
L 427.283286 305.205168 
L 427.520017 304.345178 
L 427.617693 303.991968 
L 427.725097 303.331619 
L 427.754483 303.085908 
L 427.861841 302.471629 
L 427.910684 302.195204 
L 428.021629 301.120217 
L 428.047431 300.767007 
L 428.145101 300.168086 
L 428.174407 300.014516 
L 428.28185 298.785959 
L 428.399059 297.92597 
L 428.506505 296.697413 
L 428.535805 296.451702 
L 428.644402 295.131003 
L 428.682319 294.823864 
L 428.789774 293.549237 
L 428.819074 293.303525 
L 428.926512 292.090326 
L 428.955815 291.844614 
L 429.064379 290.539273 
L 429.141397 290.186063 
L 429.251688 289.525714 
L 429.405031 288.926792 
L 429.502721 288.742509 
L 429.783742 288.389299 
L 429.866297 288.312514 
L 430.14537 288.143588 
L 431.094717 287.206813 
L 431.16309 286.899674 
L 431.270542 286.285396 
L 431.338902 285.978256 
L 431.446348 285.563619 
L 431.495186 285.287193 
L 431.602632 284.933983 
L 431.671003 284.626844 
L 431.778449 284.135422 
L 431.837049 283.843639 
L 431.974244 282.784009 
L 432.08338 281.371169 
L 432.479 280.787605 
L 432.559724 280.649392 
L 432.669828 280.541893 
L 432.852795 280.20404 
L 433.32161 280.019757 
L 433.438824 279.789402 
L 433.797823 279.082982 
L 433.901179 278.975484 
L 434.102074 278.637631 
L 434.196051 278.530132 
L 435.104432 277.823712 
L 435.714686 277.02515 
L 435.812362 276.748725 
L 436.320267 276.334087 
L 436.631394 276.103733 
L 436.763668 275.719809 
L 436.963541 275.550882 
L 437.00924 275.504811 
L 437.201256 275.381956 
L 437.313917 275.2591 
L 437.545965 275.059459 
L 437.655453 274.982675 
L 437.76588 274.921247 
L 437.961229 274.767677 
L 438.068675 274.491252 
L 438.189239 274.260898 
L 438.364079 274.061257 
L 438.642778 273.907688 
L 438.750145 273.830903 
L 439.509159 272.525561 
L 439.60873 272.448777 
L 440.117886 271.803784 
L 440.399692 271.343076 
L 440.630283 271.112721 
L 440.759404 270.790225 
L 442.205018 269.392742 
L 442.31233 269.208459 
L 442.397717 269.039532 
L 442.490285 268.901319 
L 443.848248 267.949188 
L 444.045514 267.749548 
L 444.797966 267.135269 
L 445.294758 266.659204 
L 445.398789 266.490277 
L 445.486817 266.259923 
L 445.594258 266.12171 
L 445.828627 265.814571 
L 446.160726 265.61493 
L 446.74846 264.693513 
L 447.010403 264.509229 
L 447.108082 264.217447 
L 447.402073 263.987093 
L 447.471583 263.941022 
L 447.823879 263.802809 
L 448.03144 263.541741 
L 448.375343 263.326744 
L 448.61324 263.034961 
L 448.759225 262.819964 
L 448.879044 262.604967 
L 448.948381 262.43604 
L 449.178629 262.297827 
L 450.520826 261.253554 
L 450.609487 260.931058 
L 451.164425 260.454993 
L 451.287708 259.978927 
L 451.579367 259.333935 
L 451.670643 259.195722 
L 451.776923 258.950011 
L 451.975491 258.75037 
L 452.119361 258.535373 
L 452.877396 258.028593 
L 453.515332 257.460386 
L 453.603673 257.33753 
L 453.759533 257.168604 
L 453.857134 256.999677 
L 454.715007 256.753966 
L 455.056006 256.201115 
L 455.165924 255.986118 
L 455.664066 255.341126 
L 456.093726 255.126128 
L 456.282572 254.911131 
L 456.415897 254.619349 
L 456.489957 254.465779 
L 456.738222 254.312209 
L 456.842784 254.173997 
L 457.123909 253.928285 
L 457.42248 253.774716 
L 457.709888 253.498291 
L 457.875643 253.267936 
L 458.092412 253.09901 
L 458.262232 252.94544 
L 458.349869 252.791871 
L 458.440649 252.730443 
L 458.543 252.59223 
L 458.652587 252.39259 
L 459.412477 251.809025 
L 459.540654 251.640099 
L 460.223356 250.964393 
L 460.260844 250.872251 
L 460.703775 250.703324 
L 461.082091 250.304043 
L 461.485133 250.11976 
L 461.64937 249.920119 
L 461.768377 249.751193 
L 464.393671 247.601219 
L 464.502799 247.416935 
L 465.38235 246.618374 
L 465.61085 246.464804 
L 466.358881 245.650885 
L 466.556619 245.313032 
L 466.637575 245.174819 
L 466.856916 244.806252 
L 467.189015 244.606612 
L 467.288068 243.976977 
L 467.374597 243.80805 
L 467.465275 243.731265 
L 467.646787 243.577696 
L 467.866435 243.378055 
L 468.103569 243.070916 
L 468.75288 242.425924 
L 468.978728 242.287711 
L 469.92041 241.519863 
L 470.236549 241.320223 
L 470.343988 241.197367 
L 470.470967 241.089869 
L 470.722125 240.905585 
L 471.252263 240.414163 
L 471.355805 240.153094 
L 471.613667 239.892026 
L 471.779969 239.753813 
L 472.150749 239.56953 
L 472.423964 239.354532 
L 472.642264 239.093464 
L 472.883468 238.86311 
L 473.019494 238.632755 
L 473.860004 237.864908 
L 474.016313 237.772766 
L 474.289816 237.511697 
L 474.515952 237.327414 
L 474.627775 237.235272 
L 476.928275 235.300296 
L 477.066615 235.146726 
L 477.533965 234.655303 
L 477.602191 234.563162 
L 477.718874 234.424949 
L 477.809684 234.363521 
L 478.65832 233.933526 
L 478.817391 233.810671 
L 479.097627 233.641744 
L 479.657941 233.196392 
L 480.187977 233.012109 
L 480.60337 232.735684 
L 480.780932 232.566757 
L 482.5001 231.199988 
L 482.720762 230.877492 
L 483.232678 230.539639 
L 483.291283 230.478211 
L 483.504775 230.339998 
L 484.243707 229.249654 
L 484.378076 229.065371 
L 484.473171 228.650733 
L 484.932238 228.466449 
L 486.524346 226.516116 
L 486.77314 226.377903 
L 487.162766 226.086121 
L 487.673201 225.640769 
L 487.7843 225.517913 
L 487.901509 225.33363 
L 487.999481 225.18006 
L 489.347095 223.966861 
L 489.544564 223.859362 
L 490.464472 223.367939 
L 490.595048 223.306511 
L 490.708197 223.076157 
L 490.899915 222.876517 
L 491.078491 222.722947 
L 491.153872 222.600091 
L 491.498975 222.461879 
L 492.144104 222.047241 
L 492.708941 221.386892 
L 493.065992 221.217965 
L 493.295875 221.018325 
L 493.835845 220.649758 
L 494.084094 220.388689 
L 494.663751 220.08155 
L 494.769897 219.927981 
L 496.203245 218.945135 
L 496.408231 218.791566 
L 496.551084 218.530498 
L 496.859855 218.346214 
L 496.999395 218.254072 
L 497.072193 218.100503 
L 497.207867 217.993004 
L 497.374935 217.808721 
L 497.414003 217.731936 
L 497.912132 217.532295 
L 498.019579 217.486224 
L 498.468886 217.301941 
L 498.842721 217.05623 
L 498.996352 216.871946 
L 499.074482 216.641592 
L 499.406589 216.441951 
L 500.352277 215.827673 
L 500.451735 215.612676 
L 500.559174 215.474463 
L 501.199 215.013754 
L 501.223373 214.875542 
L 501.703582 214.322691 
L 502.131566 214.030909 
L 502.395205 213.815912 
L 502.59056 213.662342 
L 502.834756 213.431988 
L 503.055389 213.278418 
L 503.322826 213.01735 
L 503.544489 212.833066 
L 505.088745 211.788793 
L 505.168962 211.665937 
L 505.26431 211.527725 
L 505.439652 211.29737 
L 505.597218 211.174515 
L 506.290827 210.529523 
L 506.615338 210.207026 
L 506.845579 210.053457 
L 507.072264 209.777032 
L 507.181709 209.669533 
L 507.552016 209.485249 
L 507.94417 209.055255 
L 508.426091 208.686688 
L 508.58763 208.548475 
L 509.070046 208.27205 
L 509.161285 208.133837 
L 509.527978 207.934197 
L 509.846562 207.673128 
L 509.95281 207.550273 
L 510.487338 207.120278 
L 510.868293 206.982065 
L 511.151002 206.720997 
L 511.290233 206.521357 
L 511.530606 206.291002 
L 511.80716 205.983863 
L 511.923379 205.79958 
L 512.118429 205.661367 
L 512.648668 205.384942 
L 512.858587 205.13923 
L 512.997449 204.93959 
L 514.446836 203.849246 
L 514.712098 203.434608 
L 514.846016 203.250325 
L 514.948845 202.866401 
L 515.064696 202.651403 
L 515.331594 202.436406 
L 515.45857 202.390335 
L 515.744998 202.221408 
L 515.853651 202.144624 
L 515.991187 201.991054 
L 516.648539 201.438203 
L 517.806734 200.624285 
L 517.868587 200.5475 
L 518.105329 200.363216 
L 518.194657 200.117505 
L 518.564201 199.856437 
L 518.687294 199.779652 
L 519.003681 199.610725 
L 519.111672 199.503227 
L 519.429738 199.318943 
L 519.536755 199.211445 
L 519.710178 199.073232 
L 519.829076 198.919662 
L 521.304053 197.875389 
L 521.407942 197.56825 
L 521.875418 197.307182 
L 521.979333 197.138255 
L 522.334562 196.892544 
L 523.068578 196.216838 
L 523.160487 196.047911 
L 524.027245 195.464347 
L 524.136786 195.372205 
L 524.248518 195.233993 
L 524.485326 194.972924 
L 524.559192 194.834712 
L 524.783633 194.420074 
L 525.770943 193.790438 
L 525.873252 193.729011 
L 526.16438 193.437228 
L 526.307873 193.268302 
L 526.980132 192.884378 
L 527.098309 192.746165 
L 527.779776 192.131887 
L 527.899175 191.809391 
L 528.405799 191.425467 
L 528.635783 191.271897 
L 528.748994 191.164399 
L 528.807597 191.010829 
L 528.885949 190.90333 
L 529.1606 190.672976 
L 529.251326 190.35048 
L 529.374169 189.99727 
L 529.616186 189.751559 
L 529.881454 189.582632 
L 529.928945 189.521204 
L 530.219651 189.398349 
L 530.682843 188.999068 
L 530.886968 188.814784 
L 530.985458 188.645858 
L 531.123925 188.461574 
L 531.24902 188.277291 
L 531.816894 187.939438 
L 531.914292 187.755154 
L 532.216352 187.5248 
L 532.55754 187.279088 
L 532.661658 187.156233 
L 533.04537 186.971949 
L 533.51461 186.680167 
L 533.67442 186.557311 
L 533.881797 186.403742 
L 534.019758 186.280886 
L 534.292642 185.943033 
L 534.403862 185.835534 
L 535.085123 185.374826 
L 535.332961 185.036972 
L 535.418201 184.868046 
L 536.601148 184.023413 
L 536.874633 183.854487 
L 536.984545 183.762345 
L 537.045964 183.639489 
L 537.118754 183.409135 
L 537.387718 183.224851 
L 537.56729 183.025211 
L 538.667874 182.410933 
L 539.294658 182.195935 
L 540.742868 181.167019 
L 540.844373 181.05952 
L 540.918578 180.875237 
L 541.220394 180.429885 
L 541.611971 180.184174 
L 541.712449 180.107389 
L 541.808689 179.969176 
L 542.080725 179.784893 
L 542.187686 179.723465 
L 542.759021 179.385612 
L 542.803442 179.324184 
L 543.235576 179.201328 
L 543.466139 179.032402 
L 543.682601 178.802048 
L 543.809503 178.633121 
L 543.926524 178.479551 
L 544.194231 178.0342 
L 544.238506 177.942058 
L 544.792494 177.788488 
L 544.907208 177.665633 
L 545.146559 177.419921 
L 545.24557 177.343137 
L 545.528518 177.097425 
L 545.781656 176.897785 
L 546.31818 176.652073 
L 546.426377 176.575289 
L 546.918781 176.053152 
L 547.14472 175.884226 
L 547.345327 175.561729 
L 547.462199 175.40816 
L 547.58918 175.362089 
L 547.901736 175.208519 
L 548.152243 174.993522 
L 548.387799 174.809239 
L 548.562567 174.640312 
L 548.695161 174.502099 
L 548.753404 174.287102 
L 548.839241 174.148889 
L 549.093194 173.979963 
L 549.376451 173.688181 
L 549.639638 173.503897 
L 549.744554 173.334971 
L 550.157264 173.012474 
L 551.075753 172.183199 
L 551.528139 172.014272 
L 551.750715 171.737847 
L 551.965274 171.553563 
L 552.17159 171.399994 
L 552.708797 170.985356 
L 552.980056 170.755002 
L 553.294728 170.493933 
L 554.120074 169.95644 
L 554.48523 169.772156 
L 554.719119 169.44966 
L 555.160329 169.035022 
L 555.378958 168.727883 
L 555.473391 168.5436 
L 556.088286 168.267175 
L 556.390911 168.128962 
L 556.508218 168.006106 
L 556.761997 167.745038 
L 556.857642 167.391828 
L 556.972801 167.253615 
L 557.279517 166.961833 
L 557.679356 166.82362 
L 557.758775 166.716122 
L 558.071323 166.577909 
L 558.181176 166.547195 
L 558.289882 166.393626 
L 558.914285 165.825418 
L 559.521705 165.656492 
L 559.630259 165.533636 
L 560.600187 164.950072 
L 560.887765 164.811859 
L 561.332757 164.520077 
L 561.445253 164.397221 
L 561.505689 164.289722 
L 561.659804 164.15151 
L 561.772176 163.905798 
L 562.062581 163.721515 
L 562.490026 163.399019 
L 562.592903 163.260806 
L 563.216477 162.892239 
L 563.491229 162.677242 
L 563.657364 162.416174 
L 563.872166 162.185819 
L 564.305999 161.694397 
L 564.831526 161.218331 
L 565.134674 160.788336 
L 566.246659 159.943703 
L 566.352627 159.790134 
L 566.549799 159.621207 
L 566.808032 159.360139 
L 568.118559 158.100868 
L 568.442755 157.778372 
L 568.911517 157.624803 
L 569.272902 157.317664 
L 569.48392 157.118023 
L 569.653919 156.964454 
L 569.750938 156.795527 
L 570.132291 156.488388 
L 570.679643 156.258033 
L 570.946066 156.027679 
L 571.03469 155.889466 
L 572.426829 154.031275 
L 572.505322 153.893062 
L 572.91673 153.386282 
L 573.022981 153.201999 
L 573.985101 152.403437 
L 574.366475 152.249867 
L 574.45872 152.142369 
L 574.764374 151.988799 
L 575.025011 151.773802 
L 575.338872 151.620232 
L 575.565395 151.451306 
L 575.779769 151.297736 
L 576.155142 150.806313 
L 576.268939 150.668101 
L 576.577972 150.545245 
L 576.95893 150.422389 
L 577.105254 150.299534 
L 577.196424 150.207392 
L 577.454291 150.007752 
L 577.579517 149.884896 
L 577.77125 149.731326 
L 577.847627 149.639185 
L 577.964817 149.485615 
L 578.416814 149.270618 
L 578.625798 149.024906 
L 578.716898 148.85598 
L 578.959874 148.70241 
L 579.12971 148.472056 
L 579.742576 147.903848 
L 580.217319 147.734922 
L 580.53328 147.412426 
L 580.888927 147.166714 
L 581.019213 147.059216 
L 581.236376 146.706006 
L 581.334063 146.552436 
L 581.584642 146.414223 
L 584.147202 144.801743 
L 584.35234 144.648173 
L 584.435162 144.371748 
L 584.616092 144.018538 
L 584.782131 143.864968 
L 585.028261 143.619257 
L 585.253121 143.450331 
L 585.358358 143.25069 
L 585.893206 142.728554 
L 586.442426 142.252488 
L 586.764044 142.052847 
L 586.820039 141.945349 
L 587.063925 141.807136 
L 587.218523 141.546068 
L 587.380065 141.315713 
L 587.634017 140.97786 
L 587.827311 140.901076 
L 588.366243 140.501795 
L 588.502992 140.348225 
L 588.70034 140.194656 
L 588.781563 140.102514 
L 589.010849 139.91823 
L 589.274536 139.672519 
L 589.465891 139.56502 
L 590.04179 139.288595 
L 590.340096 139.119668 
L 590.489234 138.981456 
L 590.626669 138.873957 
L 592.102207 137.937183 
L 592.204913 137.875755 
L 592.390241 137.553259 
L 592.497141 137.430403 
L 592.692503 137.200049 
L 593.049781 136.985051 
L 593.596095 136.508986 
L 593.708329 136.432201 
L 593.970261 136.293988 
L 594.074803 136.063634 
L 594.424382 135.863993 
L 594.518885 135.817923 
L 594.700402 135.664353 
L 594.854159 135.541497 
L 595.152458 135.387928 
L 595.25889 135.265072 
L 595.528868 134.942576 
L 595.606297 134.81972 
L 595.807893 134.650794 
L 595.98371 134.512581 
L 596.254772 134.297584 
L 596.364641 134.021158 
L 596.476184 133.867589 
L 596.561744 133.790804 
L 596.733296 133.637235 
L 597.257208 133.253311 
L 597.429102 133.084384 
L 597.575616 132.823316 
L 597.669729 132.731174 
L 598.511438 132.040111 
L 598.811327 131.671544 
L 599.042611 131.471903 
L 599.414936 131.256906 
L 599.782974 130.919053 
L 599.912512 130.719413 
L 600.290833 130.396916 
L 600.659493 130.043706 
L 601.179576 129.736567 
L 601.288594 129.659782 
L 602.029306 128.630866 
L 602.115718 128.492654 
L 602.23821 128.339084 
L 602.497994 128.124087 
L 602.732422 127.985874 
L 603.093737 127.617307 
L 603.782882 126.926244 
L 603.881839 126.803388 
L 605.264552 125.728401 
L 605.385388 125.390548 
L 606.423841 124.561272 
L 606.472778 124.484488 
L 606.683587 124.330918 
L 606.909582 124.054493 
L 607.156633 123.870209 
L 607.568119 123.670569 
L 607.678909 122.994863 
L 608.026347 122.795222 
L 608.35777 122.641653 
L 608.490703 122.442012 
L 608.549261 122.380584 
L 609.705539 121.99666 
L 609.773809 121.919876 
L 609.998415 121.735592 
L 610.139744 121.551309 
L 610.344423 121.413096 
L 610.44756 121.305597 
L 611.319782 120.706676 
L 611.414478 120.553106 
L 611.712256 120.353466 
L 611.826889 120.199896 
L 612.654923 119.616332 
L 612.717097 119.570261 
L 613.040634 119.401335 
L 613.104225 119.355264 
L 613.350424 119.201694 
L 613.465613 119.002054 
L 613.914938 118.357061 
L 614.238145 118.203492 
L 614.3746 118.003851 
L 614.950694 117.527786 
L 615.06434 117.312788 
L 615.825524 116.836723 
L 615.975737 116.667796 
L 616.118608 116.468156 
L 617.138079 115.592809 
L 617.704696 115.331741 
L 618.36169 114.963174 
L 618.502255 114.855675 
L 619.113523 114.656035 
L 619.32287 114.42568 
L 619.542281 114.22604 
L 619.658083 114.087827 
L 620.009167 113.857473 
L 621.233589 112.767129 
L 621.339952 112.536774 
L 621.658979 112.275706 
L 621.816974 112.214278 
L 622.157837 112.060709 
L 622.5129 111.707499 
L 622.636364 111.6 
L 622.636364 111.6 
" style="fill:none;stroke:#92c6ff;stroke-linecap:round;stroke-width:1.5;"/>
   </g>
   <g id="line2d_28">
    <defs>
     <path d="M 0 2.5 
C 0.663008 2.5 1.29895 2.236584 1.767767 1.767767 
C 2.236584 1.29895 2.5 0.663008 2.5 0 
C 2.5 -0.663008 2.236584 -1.29895 1.767767 -1.767767 
C 1.29895 -2.236584 0.663008 -2.5 0 -2.5 
C -0.663008 -2.5 -1.29895 -2.236584 -1.767767 -1.767767 
C -2.236584 -1.29895 -2.5 -0.663008 -2.5 0 
C -2.5 0.663008 -2.236584 1.29895 -1.767767 1.767767 
C -1.29895 2.236584 -0.663008 2.5 0 2.5 
z
" id="mfa805d2428" style="stroke:#696969;"/>
    </defs>
    <g clip-path="url(#p737fa6784e)">
     <use style="fill:#696969;stroke:#696969;" x="115.363636" xlink:href="#mfa805d2428" y="615.6"/>
    </g>
   </g>
   <g id="line2d_29">
    <g clip-path="url(#p737fa6784e)">
     <use style="fill:#696969;stroke:#696969;" x="217.657479" xlink:href="#mfa805d2428" y="565.198464"/>
    </g>
   </g>
   <g id="line2d_30">
    <g clip-path="url(#p737fa6784e)">
     <use style="fill:#696969;stroke:#696969;" x="276.066641" xlink:href="#mfa805d2428" y="514.796929"/>
    </g>
   </g>
   <g id="line2d_31">
    <g clip-path="url(#p737fa6784e)">
     <use style="fill:#696969;stroke:#696969;" x="314.268761" xlink:href="#mfa805d2428" y="464.395393"/>
    </g>
   </g>
   <g id="line2d_32">
    <g clip-path="url(#p737fa6784e)">
     <use style="fill:#696969;stroke:#696969;" x="355.061102" xlink:href="#mfa805d2428" y="413.993857"/>
    </g>
   </g>
   <g id="line2d_33">
    <g clip-path="url(#p737fa6784e)">
     <use style="fill:#696969;stroke:#696969;" x="389.012489" xlink:href="#mfa805d2428" y="363.592322"/>
    </g>
   </g>
   <g id="line2d_34">
    <g clip-path="url(#p737fa6784e)">
     <use style="fill:#696969;stroke:#696969;" x="425.703435" xlink:href="#mfa805d2428" y="313.190786"/>
    </g>
   </g>
   <g id="line2d_35">
    <g clip-path="url(#p737fa6784e)">
     <use style="fill:#696969;stroke:#696969;" x="448.795133" xlink:href="#mfa805d2428" y="262.78925"/>
    </g>
   </g>
   <g id="line2d_36">
    <g clip-path="url(#p737fa6784e)">
     <use style="fill:#696969;stroke:#696969;" x="504.211459" xlink:href="#mfa805d2428" y="212.387714"/>
    </g>
   </g>
   <g id="line2d_37">
    <g clip-path="url(#p737fa6784e)">
     <use style="fill:#696969;stroke:#696969;" x="563.980797" xlink:href="#mfa805d2428" y="161.986179"/>
    </g>
   </g>
   <g id="line2d_38">
    <g clip-path="url(#p737fa6784e)">
     <use style="fill:#696969;stroke:#696969;" x="622.636364" xlink:href="#mfa805d2428" y="111.6"/>
    </g>
   </g>
   <g id="patch_3">
    <path d="M 90 640.8 
L 90 86.4 
" style="fill:none;stroke:#cccccc;stroke-linecap:square;stroke-linejoin:miter;"/>
   </g>
   <g id="patch_4">
    <path d="M 648 640.8 
L 648 86.4 
" style="fill:none;stroke:#cccccc;stroke-linecap:square;stroke-linejoin:miter;"/>
   </g>
   <g id="patch_5">
    <path d="M 90 640.8 
L 648 640.8 
" style="fill:none;stroke:#cccccc;stroke-linecap:square;stroke-linejoin:miter;"/>
   </g>
   <g id="patch_6">
    <path d="M 90 86.4 
L 648 86.4 
" style="fill:none;stroke:#cccccc;stroke-linecap:square;stroke-linejoin:miter;"/>
   </g>
   <g id="text_14">
    <!-- 1 (2014-06-09) -->
    <defs>
     <path id="DejaVuSans-32"/>
     <path d="M 31 75.875 
Q 24.46875 64.65625 21.28125 53.65625 
Q 18.109375 42.671875 18.109375 31.390625 
Q 18.109375 20.125 21.3125 9.0625 
Q 24.515625 -2 31 -13.1875 
L 23.1875 -13.1875 
Q 15.875 -1.703125 12.234375 9.375 
Q 8.59375 20.453125 8.59375 31.390625 
Q 8.59375 42.28125 12.203125 53.3125 
Q 15.828125 64.359375 23.1875 75.875 
z
" id="DejaVuSans-40"/>
     <path d="M 37.796875 64.3125 
L 12.890625 25.390625 
L 37.796875 25.390625 
z
M 35.203125 72.90625 
L 47.609375 72.90625 
L 47.609375 25.390625 
L 58.015625 25.390625 
L 58.015625 17.1875 
L 47.609375 17.1875 
L 47.609375 0 
L 37.796875 0 
L 37.796875 17.1875 
L 4.890625 17.1875 
L 4.890625 26.703125 
z
" id="DejaVuSans-52"/>
     <path d="M 4.890625 31.390625 
L 31.203125 31.390625 
L 31.203125 23.390625 
L 4.890625 23.390625 
z
" id="DejaVuSans-45"/>
     <path d="M 8.015625 75.875 
L 15.828125 75.875 
Q 23.140625 64.359375 26.78125 53.3125 
Q 30.421875 42.28125 30.421875 31.390625 
Q 30.421875 20.453125 26.78125 9.375 
Q 23.140625 -1.703125 15.828125 -13.1875 
L 8.015625 -13.1875 
Q 14.5 -2 17.703125 9.0625 
Q 20.90625 20.125 20.90625 31.390625 
Q 20.90625 42.671875 17.703125 53.65625 
Q 14.5 64.65625 8.015625 75.875 
z
" id="DejaVuSans-41"/>
    </defs>
    <g style="fill:#262626;" transform="translate(120.363636 623.198437)scale(0.1 -0.1)">
     <use xlink:href="#DejaVuSans-49"/>
     <use x="63.623047" xlink:href="#DejaVuSans-32"/>
     <use x="95.410156" xlink:href="#DejaVuSans-40"/>
     <use x="134.423828" xlink:href="#DejaVuSans-50"/>
     <use x="198.046875" xlink:href="#DejaVuSans-48"/>
     <use x="261.669922" xlink:href="#DejaVuSans-49"/>
     <use x="325.292969" xlink:href="#DejaVuSans-52"/>
     <use x="388.916016" xlink:href="#DejaVuSans-45"/>
     <use x="425" xlink:href="#DejaVuSans-48"/>
     <use x="488.623047" xlink:href="#DejaVuSans-54"/>
     <use x="552.246094" xlink:href="#DejaVuSans-45"/>
     <use x="588.330078" xlink:href="#DejaVuSans-48"/>
     <use x="651.953125" xlink:href="#DejaVuSans-57"/>
     <use x="715.576172" xlink:href="#DejaVuSans-41"/>
    </g>
   </g>
   <g id="text_15">
    <!-- 3283 (2015-08-26) -->
    <g style="fill:#262626;" transform="translate(222.657479 572.796902)scale(0.1 -0.1)">
     <use xlink:href="#DejaVuSans-51"/>
     <use x="63.623047" xlink:href="#DejaVuSans-50"/>
     <use x="127.246094" xlink:href="#DejaVuSans-56"/>
     <use x="190.869141" xlink:href="#DejaVuSans-51"/>
     <use x="254.492188" xlink:href="#DejaVuSans-32"/>
     <use x="286.279297" xlink:href="#DejaVuSans-40"/>
     <use x="325.292969" xlink:href="#DejaVuSans-50"/>
     <use x="388.916016" xlink:href="#DejaVuSans-48"/>
     <use x="452.539062" xlink:href="#DejaVuSans-49"/>
     <use x="516.162109" xlink:href="#DejaVuSans-53"/>
     <use x="579.785156" xlink:href="#DejaVuSans-45"/>
     <use x="615.869141" xlink:href="#DejaVuSans-48"/>
     <use x="679.492188" xlink:href="#DejaVuSans-56"/>
     <use x="743.115234" xlink:href="#DejaVuSans-45"/>
     <use x="779.199219" xlink:href="#DejaVuSans-50"/>
     <use x="842.822266" xlink:href="#DejaVuSans-54"/>
     <use x="906.445312" xlink:href="#DejaVuSans-41"/>
    </g>
   </g>
   <g id="text_16">
    <!-- 6565 (2016-05-06) -->
    <g style="fill:#262626;" transform="translate(281.066641 522.395366)scale(0.1 -0.1)">
     <use xlink:href="#DejaVuSans-54"/>
     <use x="63.623047" xlink:href="#DejaVuSans-53"/>
     <use x="127.246094" xlink:href="#DejaVuSans-54"/>
     <use x="190.869141" xlink:href="#DejaVuSans-53"/>
     <use x="254.492188" xlink:href="#DejaVuSans-32"/>
     <use x="286.279297" xlink:href="#DejaVuSans-40"/>
     <use x="325.292969" xlink:href="#DejaVuSans-50"/>
     <use x="388.916016" xlink:href="#DejaVuSans-48"/>
     <use x="452.539062" xlink:href="#DejaVuSans-49"/>
     <use x="516.162109" xlink:href="#DejaVuSans-54"/>
     <use x="579.785156" xlink:href="#DejaVuSans-45"/>
     <use x="615.869141" xlink:href="#DejaVuSans-48"/>
     <use x="679.492188" xlink:href="#DejaVuSans-53"/>
     <use x="743.115234" xlink:href="#DejaVuSans-45"/>
     <use x="779.199219" xlink:href="#DejaVuSans-48"/>
     <use x="842.822266" xlink:href="#DejaVuSans-54"/>
     <use x="906.445312" xlink:href="#DejaVuSans-41"/>
    </g>
   </g>
   <g id="text_17">
    <!-- 9847 (2016-10-18) -->
    <g style="fill:#262626;" transform="translate(319.268761 471.99383)scale(0.1 -0.1)">
     <use xlink:href="#DejaVuSans-57"/>
     <use x="63.623047" xlink:href="#DejaVuSans-56"/>
     <use x="127.246094" xlink:href="#DejaVuSans-52"/>
     <use x="190.869141" xlink:href="#DejaVuSans-55"/>
     <use x="254.492188" xlink:href="#DejaVuSans-32"/>
     <use x="286.279297" xlink:href="#DejaVuSans-40"/>
     <use x="325.292969" xlink:href="#DejaVuSans-50"/>
     <use x="388.916016" xlink:href="#DejaVuSans-48"/>
     <use x="452.539062" xlink:href="#DejaVuSans-49"/>
     <use x="516.162109" xlink:href="#DejaVuSans-54"/>
     <use x="579.785156" xlink:href="#DejaVuSans-45"/>
     <use x="615.869141" xlink:href="#DejaVuSans-49"/>
     <use x="679.492188" xlink:href="#DejaVuSans-48"/>
     <use x="743.115234" xlink:href="#DejaVuSans-45"/>
     <use x="779.199219" xlink:href="#DejaVuSans-49"/>
     <use x="842.822266" xlink:href="#DejaVuSans-56"/>
     <use x="906.445312" xlink:href="#DejaVuSans-41"/>
    </g>
   </g>
   <g id="text_18">
    <!-- 13129 (2017-04-13) -->
    <g style="fill:#262626;" transform="translate(360.061102 421.592295)scale(0.1 -0.1)">
     <use xlink:href="#DejaVuSans-49"/>
     <use x="63.623047" xlink:href="#DejaVuSans-51"/>
     <use x="127.246094" xlink:href="#DejaVuSans-49"/>
     <use x="190.869141" xlink:href="#DejaVuSans-50"/>
     <use x="254.492188" xlink:href="#DejaVuSans-57"/>
     <use x="318.115234" xlink:href="#DejaVuSans-32"/>
     <use x="349.902344" xlink:href="#DejaVuSans-40"/>
     <use x="388.916016" xlink:href="#DejaVuSans-50"/>
     <use x="452.539062" xlink:href="#DejaVuSans-48"/>
     <use x="516.162109" xlink:href="#DejaVuSans-49"/>
     <use x="579.785156" xlink:href="#DejaVuSans-55"/>
     <use x="643.408203" xlink:href="#DejaVuSans-45"/>
     <use x="679.492188" xlink:href="#DejaVuSans-48"/>
     <use x="743.115234" xlink:href="#DejaVuSans-52"/>
     <use x="806.738281" xlink:href="#DejaVuSans-45"/>
     <use x="842.822266" xlink:href="#DejaVuSans-49"/>
     <use x="906.445312" xlink:href="#DejaVuSans-51"/>
     <use x="970.068359" xlink:href="#DejaVuSans-41"/>
    </g>
   </g>
   <g id="text_19">
    <!-- 16411 (2017-09-08) -->
    <g style="fill:#262626;" transform="translate(394.012489 371.190759)scale(0.1 -0.1)">
     <use xlink:href="#DejaVuSans-49"/>
     <use x="63.623047" xlink:href="#DejaVuSans-54"/>
     <use x="127.246094" xlink:href="#DejaVuSans-52"/>
     <use x="190.869141" xlink:href="#DejaVuSans-49"/>
     <use x="254.492188" xlink:href="#DejaVuSans-49"/>
     <use x="318.115234" xlink:href="#DejaVuSans-32"/>
     <use x="349.902344" xlink:href="#DejaVuSans-40"/>
     <use x="388.916016" xlink:href="#DejaVuSans-50"/>
     <use x="452.539062" xlink:href="#DejaVuSans-48"/>
     <use x="516.162109" xlink:href="#DejaVuSans-49"/>
     <use x="579.785156" xlink:href="#DejaVuSans-55"/>
     <use x="643.408203" xlink:href="#DejaVuSans-45"/>
     <use x="679.492188" xlink:href="#DejaVuSans-48"/>
     <use x="743.115234" xlink:href="#DejaVuSans-57"/>
     <use x="806.738281" xlink:href="#DejaVuSans-45"/>
     <use x="842.822266" xlink:href="#DejaVuSans-48"/>
     <use x="906.445312" xlink:href="#DejaVuSans-56"/>
     <use x="970.068359" xlink:href="#DejaVuSans-41"/>
    </g>
   </g>
   <g id="text_20">
    <!-- 19693 (2018-02-14) -->
    <g style="fill:#262626;" transform="translate(430.703435 320.789223)scale(0.1 -0.1)">
     <use xlink:href="#DejaVuSans-49"/>
     <use x="63.623047" xlink:href="#DejaVuSans-57"/>
     <use x="127.246094" xlink:href="#DejaVuSans-54"/>
     <use x="190.869141" xlink:href="#DejaVuSans-57"/>
     <use x="254.492188" xlink:href="#DejaVuSans-51"/>
     <use x="318.115234" xlink:href="#DejaVuSans-32"/>
     <use x="349.902344" xlink:href="#DejaVuSans-40"/>
     <use x="388.916016" xlink:href="#DejaVuSans-50"/>
     <use x="452.539062" xlink:href="#DejaVuSans-48"/>
     <use x="516.162109" xlink:href="#DejaVuSans-49"/>
     <use x="579.785156" xlink:href="#DejaVuSans-56"/>
     <use x="643.408203" xlink:href="#DejaVuSans-45"/>
     <use x="679.492188" xlink:href="#DejaVuSans-48"/>
     <use x="743.115234" xlink:href="#DejaVuSans-50"/>
     <use x="806.738281" xlink:href="#DejaVuSans-45"/>
     <use x="842.822266" xlink:href="#DejaVuSans-49"/>
     <use x="906.445312" xlink:href="#DejaVuSans-52"/>
     <use x="970.068359" xlink:href="#DejaVuSans-41"/>
    </g>
   </g>
   <g id="text_21">
    <!-- 22975 (2018-05-25) -->
    <g style="fill:#262626;" transform="translate(453.795133 270.387688)scale(0.1 -0.1)">
     <use xlink:href="#DejaVuSans-50"/>
     <use x="63.623047" xlink:href="#DejaVuSans-50"/>
     <use x="127.246094" xlink:href="#DejaVuSans-57"/>
     <use x="190.869141" xlink:href="#DejaVuSans-55"/>
     <use x="254.492188" xlink:href="#DejaVuSans-53"/>
     <use x="318.115234" xlink:href="#DejaVuSans-32"/>
     <use x="349.902344" xlink:href="#DejaVuSans-40"/>
     <use x="388.916016" xlink:href="#DejaVuSans-50"/>
     <use x="452.539062" xlink:href="#DejaVuSans-48"/>
     <use x="516.162109" xlink:href="#DejaVuSans-49"/>
     <use x="579.785156" xlink:href="#DejaVuSans-56"/>
     <use x="643.408203" xlink:href="#DejaVuSans-45"/>
     <use x="679.492188" xlink:href="#DejaVuSans-48"/>
     <use x="743.115234" xlink:href="#DejaVuSans-53"/>
     <use x="806.738281" xlink:href="#DejaVuSans-45"/>
     <use x="842.822266" xlink:href="#DejaVuSans-50"/>
     <use x="906.445312" xlink:href="#DejaVuSans-53"/>
     <use x="970.068359" xlink:href="#DejaVuSans-41"/>
    </g>
   </g>
   <g id="text_22">
    <!-- 26257 (2019-01-20) -->
    <g style="fill:#262626;" transform="translate(509.211459 219.986152)scale(0.1 -0.1)">
     <use xlink:href="#DejaVuSans-50"/>
     <use x="63.623047" xlink:href="#DejaVuSans-54"/>
     <use x="127.246094" xlink:href="#DejaVuSans-50"/>
     <use x="190.869141" xlink:href="#DejaVuSans-53"/>
     <use x="254.492188" xlink:href="#DejaVuSans-55"/>
     <use x="318.115234" xlink:href="#DejaVuSans-32"/>
     <use x="349.902344" xlink:href="#DejaVuSans-40"/>
     <use x="388.916016" xlink:href="#DejaVuSans-50"/>
     <use x="452.539062" xlink:href="#DejaVuSans-48"/>
     <use x="516.162109" xlink:href="#DejaVuSans-49"/>
     <use x="579.785156" xlink:href="#DejaVuSans-57"/>
     <use x="643.408203" xlink:href="#DejaVuSans-45"/>
     <use x="679.492188" xlink:href="#DejaVuSans-48"/>
     <use x="743.115234" xlink:href="#DejaVuSans-49"/>
     <use x="806.738281" xlink:href="#DejaVuSans-45"/>
     <use x="842.822266" xlink:href="#DejaVuSans-50"/>
     <use x="906.445312" xlink:href="#DejaVuSans-48"/>
     <use x="970.068359" xlink:href="#DejaVuSans-41"/>
    </g>
   </g>
   <g id="text_23">
    <!-- 29539 (2019-10-06) -->
    <g style="fill:#262626;" transform="translate(568.980797 169.584616)scale(0.1 -0.1)">
     <use xlink:href="#DejaVuSans-50"/>
     <use x="63.623047" xlink:href="#DejaVuSans-57"/>
     <use x="127.246094" xlink:href="#DejaVuSans-53"/>
     <use x="190.869141" xlink:href="#DejaVuSans-51"/>
     <use x="254.492188" xlink:href="#DejaVuSans-57"/>
     <use x="318.115234" xlink:href="#DejaVuSans-32"/>
     <use x="349.902344" xlink:href="#DejaVuSans-40"/>
     <use x="388.916016" xlink:href="#DejaVuSans-50"/>
     <use x="452.539062" xlink:href="#DejaVuSans-48"/>
     <use x="516.162109" xlink:href="#DejaVuSans-49"/>
     <use x="579.785156" xlink:href="#DejaVuSans-57"/>
     <use x="643.408203" xlink:href="#DejaVuSans-45"/>
     <use x="679.492188" xlink:href="#DejaVuSans-49"/>
     <use x="743.115234" xlink:href="#DejaVuSans-48"/>
     <use x="806.738281" xlink:href="#DejaVuSans-45"/>
     <use x="842.822266" xlink:href="#DejaVuSans-48"/>
     <use x="906.445312" xlink:href="#DejaVuSans-54"/>
     <use x="970.068359" xlink:href="#DejaVuSans-41"/>
    </g>
   </g>
   <g id="text_24">
    <!-- 32820 (2020-06-17) -->
    <g style="fill:#262626;" transform="translate(627.636364 119.198437)scale(0.1 -0.1)">
     <use xlink:href="#DejaVuSans-51"/>
     <use x="63.623047" xlink:href="#DejaVuSans-50"/>
     <use x="127.246094" xlink:href="#DejaVuSans-56"/>
     <use x="190.869141" xlink:href="#DejaVuSans-50"/>
     <use x="254.492188" xlink:href="#DejaVuSans-48"/>
     <use x="318.115234" xlink:href="#DejaVuSans-32"/>
     <use x="349.902344" xlink:href="#DejaVuSans-40"/>
     <use x="388.916016" xlink:href="#DejaVuSans-50"/>
     <use x="452.539062" xlink:href="#DejaVuSans-48"/>
     <use x="516.162109" xlink:href="#DejaVuSans-50"/>
     <use x="579.785156" xlink:href="#DejaVuSans-48"/>
     <use x="643.408203" xlink:href="#DejaVuSans-45"/>
     <use x="679.492188" xlink:href="#DejaVuSans-48"/>
     <use x="743.115234" xlink:href="#DejaVuSans-54"/>
     <use x="806.738281" xlink:href="#DejaVuSans-45"/>
     <use x="842.822266" xlink:href="#DejaVuSans-49"/>
     <use x="906.445312" xlink:href="#DejaVuSans-55"/>
     <use x="970.068359" xlink:href="#DejaVuSans-41"/>
    </g>
   </g>
   <g id="text_25">
    <!-- Closed issues over time -->
    <defs>
     <path d="M 64.40625 67.28125 
L 64.40625 56.890625 
Q 59.421875 61.53125 53.78125 63.8125 
Q 48.140625 66.109375 41.796875 66.109375 
Q 29.296875 66.109375 22.65625 58.46875 
Q 16.015625 50.828125 16.015625 36.375 
Q 16.015625 21.96875 22.65625 14.328125 
Q 29.296875 6.6875 41.796875 6.6875 
Q 48.140625 6.6875 53.78125 8.984375 
Q 59.421875 11.28125 64.40625 15.921875 
L 64.40625 5.609375 
Q 59.234375 2.09375 53.4375 0.328125 
Q 47.65625 -1.421875 41.21875 -1.421875 
Q 24.65625 -1.421875 15.125 8.703125 
Q 5.609375 18.84375 5.609375 36.375 
Q 5.609375 53.953125 15.125 64.078125 
Q 24.65625 74.21875 41.21875 74.21875 
Q 47.75 74.21875 53.53125 72.484375 
Q 59.328125 70.75 64.40625 67.28125 
z
" id="DejaVuSans-67"/>
     <path d="M 9.421875 75.984375 
L 18.40625 75.984375 
L 18.40625 0 
L 9.421875 0 
z
" id="DejaVuSans-108"/>
     <path d="M 30.609375 48.390625 
Q 23.390625 48.390625 19.1875 42.75 
Q 14.984375 37.109375 14.984375 27.296875 
Q 14.984375 17.484375 19.15625 11.84375 
Q 23.34375 6.203125 30.609375 6.203125 
Q 37.796875 6.203125 41.984375 11.859375 
Q 46.1875 17.53125 46.1875 27.296875 
Q 46.1875 37.015625 41.984375 42.703125 
Q 37.796875 48.390625 30.609375 48.390625 
z
M 30.609375 56 
Q 42.328125 56 49.015625 48.375 
Q 55.71875 40.765625 55.71875 27.296875 
Q 55.71875 13.875 49.015625 6.21875 
Q 42.328125 -1.421875 30.609375 -1.421875 
Q 18.84375 -1.421875 12.171875 6.21875 
Q 5.515625 13.875 5.515625 27.296875 
Q 5.515625 40.765625 12.171875 48.375 
Q 18.84375 56 30.609375 56 
z
" id="DejaVuSans-111"/>
     <path d="M 44.28125 53.078125 
L 44.28125 44.578125 
Q 40.484375 46.53125 36.375 47.5 
Q 32.28125 48.484375 27.875 48.484375 
Q 21.1875 48.484375 17.84375 46.4375 
Q 14.5 44.390625 14.5 40.28125 
Q 14.5 37.15625 16.890625 35.375 
Q 19.28125 33.59375 26.515625 31.984375 
L 29.59375 31.296875 
Q 39.15625 29.25 43.1875 25.515625 
Q 47.21875 21.78125 47.21875 15.09375 
Q 47.21875 7.46875 41.1875 3.015625 
Q 35.15625 -1.421875 24.609375 -1.421875 
Q 20.21875 -1.421875 15.453125 -0.5625 
Q 10.6875 0.296875 5.421875 2 
L 5.421875 11.28125 
Q 10.40625 8.6875 15.234375 7.390625 
Q 20.0625 6.109375 24.8125 6.109375 
Q 31.15625 6.109375 34.5625 8.28125 
Q 37.984375 10.453125 37.984375 14.40625 
Q 37.984375 18.0625 35.515625 20.015625 
Q 33.0625 21.96875 24.703125 23.78125 
L 21.578125 24.515625 
Q 13.234375 26.265625 9.515625 29.90625 
Q 5.8125 33.546875 5.8125 39.890625 
Q 5.8125 47.609375 11.28125 51.796875 
Q 16.75 56 26.8125 56 
Q 31.78125 56 36.171875 55.265625 
Q 40.578125 54.546875 44.28125 53.078125 
z
" id="DejaVuSans-115"/>
     <path d="M 56.203125 29.59375 
L 56.203125 25.203125 
L 14.890625 25.203125 
Q 15.484375 15.921875 20.484375 11.0625 
Q 25.484375 6.203125 34.421875 6.203125 
Q 39.59375 6.203125 44.453125 7.46875 
Q 49.3125 8.734375 54.109375 11.28125 
L 54.109375 2.78125 
Q 49.265625 0.734375 44.1875 -0.34375 
Q 39.109375 -1.421875 33.890625 -1.421875 
Q 20.796875 -1.421875 13.15625 6.1875 
Q 5.515625 13.8125 5.515625 26.8125 
Q 5.515625 40.234375 12.765625 48.109375 
Q 20.015625 56 32.328125 56 
Q 43.359375 56 49.78125 48.890625 
Q 56.203125 41.796875 56.203125 29.59375 
z
M 47.21875 32.234375 
Q 47.125 39.59375 43.09375 43.984375 
Q 39.0625 48.390625 32.421875 48.390625 
Q 24.90625 48.390625 20.390625 44.140625 
Q 15.875 39.890625 15.1875 32.171875 
z
" id="DejaVuSans-101"/>
     <path d="M 45.40625 46.390625 
L 45.40625 75.984375 
L 54.390625 75.984375 
L 54.390625 0 
L 45.40625 0 
L 45.40625 8.203125 
Q 42.578125 3.328125 38.25 0.953125 
Q 33.9375 -1.421875 27.875 -1.421875 
Q 17.96875 -1.421875 11.734375 6.484375 
Q 5.515625 14.40625 5.515625 27.296875 
Q 5.515625 40.1875 11.734375 48.09375 
Q 17.96875 56 27.875 56 
Q 33.9375 56 38.25 53.625 
Q 42.578125 51.265625 45.40625 46.390625 
z
M 14.796875 27.296875 
Q 14.796875 17.390625 18.875 11.75 
Q 22.953125 6.109375 30.078125 6.109375 
Q 37.203125 6.109375 41.296875 11.75 
Q 45.40625 17.390625 45.40625 27.296875 
Q 45.40625 37.203125 41.296875 42.84375 
Q 37.203125 48.484375 30.078125 48.484375 
Q 22.953125 48.484375 18.875 42.84375 
Q 14.796875 37.203125 14.796875 27.296875 
z
" id="DejaVuSans-100"/>
     <path d="M 9.421875 54.6875 
L 18.40625 54.6875 
L 18.40625 0 
L 9.421875 0 
z
M 9.421875 75.984375 
L 18.40625 75.984375 
L 18.40625 64.59375 
L 9.421875 64.59375 
z
" id="DejaVuSans-105"/>
     <path d="M 8.5 21.578125 
L 8.5 54.6875 
L 17.484375 54.6875 
L 17.484375 21.921875 
Q 17.484375 14.15625 20.5 10.265625 
Q 23.53125 6.390625 29.59375 6.390625 
Q 36.859375 6.390625 41.078125 11.03125 
Q 45.3125 15.671875 45.3125 23.6875 
L 45.3125 54.6875 
L 54.296875 54.6875 
L 54.296875 0 
L 45.3125 0 
L 45.3125 8.40625 
Q 42.046875 3.421875 37.71875 1 
Q 33.40625 -1.421875 27.6875 -1.421875 
Q 18.265625 -1.421875 13.375 4.4375 
Q 8.5 10.296875 8.5 21.578125 
z
M 31.109375 56 
z
" id="DejaVuSans-117"/>
     <path d="M 2.984375 54.6875 
L 12.5 54.6875 
L 29.59375 8.796875 
L 46.6875 54.6875 
L 56.203125 54.6875 
L 35.6875 0 
L 23.484375 0 
z
" id="DejaVuSans-118"/>
     <path d="M 41.109375 46.296875 
Q 39.59375 47.171875 37.8125 47.578125 
Q 36.03125 48 33.890625 48 
Q 26.265625 48 22.1875 43.046875 
Q 18.109375 38.09375 18.109375 28.8125 
L 18.109375 0 
L 9.078125 0 
L 9.078125 54.6875 
L 18.109375 54.6875 
L 18.109375 46.1875 
Q 20.953125 51.171875 25.484375 53.578125 
Q 30.03125 56 36.53125 56 
Q 37.453125 56 38.578125 55.875 
Q 39.703125 55.765625 41.0625 55.515625 
z
" id="DejaVuSans-114"/>
     <path d="M 18.3125 70.21875 
L 18.3125 54.6875 
L 36.8125 54.6875 
L 36.8125 47.703125 
L 18.3125 47.703125 
L 18.3125 18.015625 
Q 18.3125 11.328125 20.140625 9.421875 
Q 21.96875 7.515625 27.59375 7.515625 
L 36.8125 7.515625 
L 36.8125 0 
L 27.59375 0 
Q 17.1875 0 13.234375 3.875 
Q 9.28125 7.765625 9.28125 18.015625 
L 9.28125 47.703125 
L 2.6875 47.703125 
L 2.6875 54.6875 
L 9.28125 54.6875 
L 9.28125 70.21875 
z
" id="DejaVuSans-116"/>
     <path d="M 52 44.1875 
Q 55.375 50.25 60.0625 53.125 
Q 64.75 56 71.09375 56 
Q 79.640625 56 84.28125 50.015625 
Q 88.921875 44.046875 88.921875 33.015625 
L 88.921875 0 
L 79.890625 0 
L 79.890625 32.71875 
Q 79.890625 40.578125 77.09375 44.375 
Q 74.3125 48.1875 68.609375 48.1875 
Q 61.625 48.1875 57.5625 43.546875 
Q 53.515625 38.921875 53.515625 30.90625 
L 53.515625 0 
L 44.484375 0 
L 44.484375 32.71875 
Q 44.484375 40.625 41.703125 44.40625 
Q 38.921875 48.1875 33.109375 48.1875 
Q 26.21875 48.1875 22.15625 43.53125 
Q 18.109375 38.875 18.109375 30.90625 
L 18.109375 0 
L 9.078125 0 
L 9.078125 54.6875 
L 18.109375 54.6875 
L 18.109375 46.1875 
Q 21.1875 51.21875 25.484375 53.609375 
Q 29.78125 56 35.6875 56 
Q 41.65625 56 45.828125 52.96875 
Q 50 49.953125 52 44.1875 
z
" id="DejaVuSans-109"/>
    </defs>
    <g style="fill:#262626;" transform="translate(297.650625 80.4)scale(0.12 -0.12)">
     <use xlink:href="#DejaVuSans-67"/>
     <use x="69.824219" xlink:href="#DejaVuSans-108"/>
     <use x="97.607422" xlink:href="#DejaVuSans-111"/>
     <use x="158.789062" xlink:href="#DejaVuSans-115"/>
     <use x="210.888672" xlink:href="#DejaVuSans-101"/>
     <use x="272.412109" xlink:href="#DejaVuSans-100"/>
     <use x="335.888672" xlink:href="#DejaVuSans-32"/>
     <use x="367.675781" xlink:href="#DejaVuSans-105"/>
     <use x="395.458984" xlink:href="#DejaVuSans-115"/>
     <use x="447.558594" xlink:href="#DejaVuSans-115"/>
     <use x="499.658203" xlink:href="#DejaVuSans-117"/>
     <use x="563.037109" xlink:href="#DejaVuSans-101"/>
     <use x="624.560547" xlink:href="#DejaVuSans-115"/>
     <use x="676.660156" xlink:href="#DejaVuSans-32"/>
     <use x="708.447266" xlink:href="#DejaVuSans-111"/>
     <use x="769.628906" xlink:href="#DejaVuSans-118"/>
     <use x="828.808594" xlink:href="#DejaVuSans-101"/>
     <use x="890.332031" xlink:href="#DejaVuSans-114"/>
     <use x="931.445312" xlink:href="#DejaVuSans-32"/>
     <use x="963.232422" xlink:href="#DejaVuSans-116"/>
     <use x="1002.441406" xlink:href="#DejaVuSans-105"/>
     <use x="1030.224609" xlink:href="#DejaVuSans-109"/>
     <use x="1127.636719" xlink:href="#DejaVuSans-101"/>
    </g>
   </g>
  </g>
 </g>
 <defs>
  <clipPath id="p737fa6784e">
   <rect height="554.4" width="558" x="90" y="86.4"/>
  </clipPath>
 </defs>
</svg>
