<?xml version="1.0" encoding="utf-8" standalone="no"?>
<!DOCTYPE svg PUBLIC "-//W3C//DTD SVG 1.1//EN"
  "http://www.w3.org/Graphics/SVG/1.1/DTD/svg11.dtd">
<!-- Created with matplotlib (https://matplotlib.org/) -->
<svg height="720pt" version="1.1" viewBox="0 0 720 720" width="720pt" xmlns="http://www.w3.org/2000/svg" xmlns:xlink="http://www.w3.org/1999/xlink">
 <defs>
  <style type="text/css">
*{stroke-linecap:butt;stroke-linejoin:round;}
  </style>
 </defs>
 <g id="figure_1">
  <g id="patch_1">
   <path d="M 0 720 
L 720 720 
L 720 0 
L 0 0 
z
" style="fill:#ffffff;"/>
  </g>
  <g id="axes_1">
   <g id="patch_2">
    <path d="M 90 640.8 
L 648 640.8 
L 648 86.4 
L 90 86.4 
z
" style="fill:#ffffff;"/>
   </g>
   <g id="matplotlib.axis_1">
    <g id="xtick_1">
     <g id="line2d_1">
      <path clip-path="url(#p0f765e8fc6)" d="M 163.973588 640.8 
L 163.973588 86.4 
" style="fill:none;stroke:#cccccc;stroke-linecap:round;stroke-width:0.8;"/>
     </g>
     <g id="line2d_2"/>
     <g id="text_1">
      <!-- 2015 -->
      <defs>
       <path d="M 19.1875 8.296875 
L 53.609375 8.296875 
L 53.609375 0 
L 7.328125 0 
L 7.328125 8.296875 
Q 12.9375 14.109375 22.625 23.890625 
Q 32.328125 33.6875 34.8125 36.53125 
Q 39.546875 41.84375 41.421875 45.53125 
Q 43.3125 49.21875 43.3125 52.78125 
Q 43.3125 58.59375 39.234375 62.25 
Q 35.15625 65.921875 28.609375 65.921875 
Q 23.96875 65.921875 18.8125 64.3125 
Q 13.671875 62.703125 7.8125 59.421875 
L 7.8125 69.390625 
Q 13.765625 71.78125 18.9375 73 
Q 24.125 74.21875 28.421875 74.21875 
Q 39.75 74.21875 46.484375 68.546875 
Q 53.21875 62.890625 53.21875 53.421875 
Q 53.21875 48.921875 51.53125 44.890625 
Q 49.859375 40.875 45.40625 35.40625 
Q 44.1875 33.984375 37.640625 27.21875 
Q 31.109375 20.453125 19.1875 8.296875 
z
" id="DejaVuSans-50"/>
       <path d="M 31.78125 66.40625 
Q 24.171875 66.40625 20.328125 58.90625 
Q 16.5 51.421875 16.5 36.375 
Q 16.5 21.390625 20.328125 13.890625 
Q 24.171875 6.390625 31.78125 6.390625 
Q 39.453125 6.390625 43.28125 13.890625 
Q 47.125 21.390625 47.125 36.375 
Q 47.125 51.421875 43.28125 58.90625 
Q 39.453125 66.40625 31.78125 66.40625 
z
M 31.78125 74.21875 
Q 44.046875 74.21875 50.515625 64.515625 
Q 56.984375 54.828125 56.984375 36.375 
Q 56.984375 17.96875 50.515625 8.265625 
Q 44.046875 -1.421875 31.78125 -1.421875 
Q 19.53125 -1.421875 13.0625 8.265625 
Q 6.59375 17.96875 6.59375 36.375 
Q 6.59375 54.828125 13.0625 64.515625 
Q 19.53125 74.21875 31.78125 74.21875 
z
" id="DejaVuSans-48"/>
       <path d="M 12.40625 8.296875 
L 28.515625 8.296875 
L 28.515625 63.921875 
L 10.984375 60.40625 
L 10.984375 69.390625 
L 28.421875 72.90625 
L 38.28125 72.90625 
L 38.28125 8.296875 
L 54.390625 8.296875 
L 54.390625 0 
L 12.40625 0 
z
" id="DejaVuSans-49"/>
       <path d="M 10.796875 72.90625 
L 49.515625 72.90625 
L 49.515625 64.59375 
L 19.828125 64.59375 
L 19.828125 46.734375 
Q 21.96875 47.46875 24.109375 47.828125 
Q 26.265625 48.1875 28.421875 48.1875 
Q 40.625 48.1875 47.75 41.5 
Q 54.890625 34.8125 54.890625 23.390625 
Q 54.890625 11.625 47.5625 5.09375 
Q 40.234375 -1.421875 26.90625 -1.421875 
Q 22.3125 -1.421875 17.546875 -0.640625 
Q 12.796875 0.140625 7.71875 1.703125 
L 7.71875 11.625 
Q 12.109375 9.234375 16.796875 8.0625 
Q 21.484375 6.890625 26.703125 6.890625 
Q 35.15625 6.890625 40.078125 11.328125 
Q 45.015625 15.765625 45.015625 23.390625 
Q 45.015625 31 40.078125 35.4375 
Q 35.15625 39.890625 26.703125 39.890625 
Q 22.75 39.890625 18.8125 39.015625 
Q 14.890625 38.140625 10.796875 36.28125 
z
" id="DejaVuSans-53"/>
      </defs>
      <g style="fill:#262626;" transform="translate(151.248588 651.898438)scale(0.1 -0.1)">
       <use xlink:href="#DejaVuSans-50"/>
       <use x="63.623047" xlink:href="#DejaVuSans-48"/>
       <use x="127.246094" xlink:href="#DejaVuSans-49"/>
       <use x="190.869141" xlink:href="#DejaVuSans-53"/>
      </g>
     </g>
    </g>
    <g id="xtick_2">
     <g id="line2d_3">
      <path clip-path="url(#p0f765e8fc6)" d="M 249.322219 640.8 
L 249.322219 86.4 
" style="fill:none;stroke:#cccccc;stroke-linecap:round;stroke-width:0.8;"/>
     </g>
     <g id="line2d_4"/>
     <g id="text_2">
      <!-- 2016 -->
      <defs>
       <path d="M 33.015625 40.375 
Q 26.375 40.375 22.484375 35.828125 
Q 18.609375 31.296875 18.609375 23.390625 
Q 18.609375 15.53125 22.484375 10.953125 
Q 26.375 6.390625 33.015625 6.390625 
Q 39.65625 6.390625 43.53125 10.953125 
Q 47.40625 15.53125 47.40625 23.390625 
Q 47.40625 31.296875 43.53125 35.828125 
Q 39.65625 40.375 33.015625 40.375 
z
M 52.59375 71.296875 
L 52.59375 62.3125 
Q 48.875 64.0625 45.09375 64.984375 
Q 41.3125 65.921875 37.59375 65.921875 
Q 27.828125 65.921875 22.671875 59.328125 
Q 17.53125 52.734375 16.796875 39.40625 
Q 19.671875 43.65625 24.015625 45.921875 
Q 28.375 48.1875 33.59375 48.1875 
Q 44.578125 48.1875 50.953125 41.515625 
Q 57.328125 34.859375 57.328125 23.390625 
Q 57.328125 12.15625 50.6875 5.359375 
Q 44.046875 -1.421875 33.015625 -1.421875 
Q 20.359375 -1.421875 13.671875 8.265625 
Q 6.984375 17.96875 6.984375 36.375 
Q 6.984375 53.65625 15.1875 63.9375 
Q 23.390625 74.21875 37.203125 74.21875 
Q 40.921875 74.21875 44.703125 73.484375 
Q 48.484375 72.75 52.59375 71.296875 
z
" id="DejaVuSans-54"/>
      </defs>
      <g style="fill:#262626;" transform="translate(236.597219 651.898438)scale(0.1 -0.1)">
       <use xlink:href="#DejaVuSans-50"/>
       <use x="63.623047" xlink:href="#DejaVuSans-48"/>
       <use x="127.246094" xlink:href="#DejaVuSans-49"/>
       <use x="190.869141" xlink:href="#DejaVuSans-54"/>
      </g>
     </g>
    </g>
    <g id="xtick_3">
     <g id="line2d_5">
      <path clip-path="url(#p0f765e8fc6)" d="M 334.904683 640.8 
L 334.904683 86.4 
" style="fill:none;stroke:#cccccc;stroke-linecap:round;stroke-width:0.8;"/>
     </g>
     <g id="line2d_6"/>
     <g id="text_3">
      <!-- 2017 -->
      <defs>
       <path d="M 8.203125 72.90625 
L 55.078125 72.90625 
L 55.078125 68.703125 
L 28.609375 0 
L 18.3125 0 
L 43.21875 64.59375 
L 8.203125 64.59375 
z
" id="DejaVuSans-55"/>
      </defs>
      <g style="fill:#262626;" transform="translate(322.179683 651.898438)scale(0.1 -0.1)">
       <use xlink:href="#DejaVuSans-50"/>
       <use x="63.623047" xlink:href="#DejaVuSans-48"/>
       <use x="127.246094" xlink:href="#DejaVuSans-49"/>
       <use x="190.869141" xlink:href="#DejaVuSans-55"/>
      </g>
     </g>
    </g>
    <g id="xtick_4">
     <g id="line2d_7">
      <path clip-path="url(#p0f765e8fc6)" d="M 420.253314 640.8 
L 420.253314 86.4 
" style="fill:none;stroke:#cccccc;stroke-linecap:round;stroke-width:0.8;"/>
     </g>
     <g id="line2d_8"/>
     <g id="text_4">
      <!-- 2018 -->
      <defs>
       <path d="M 31.78125 34.625 
Q 24.75 34.625 20.71875 30.859375 
Q 16.703125 27.09375 16.703125 20.515625 
Q 16.703125 13.921875 20.71875 10.15625 
Q 24.75 6.390625 31.78125 6.390625 
Q 38.8125 6.390625 42.859375 10.171875 
Q 46.921875 13.96875 46.921875 20.515625 
Q 46.921875 27.09375 42.890625 30.859375 
Q 38.875 34.625 31.78125 34.625 
z
M 21.921875 38.8125 
Q 15.578125 40.375 12.03125 44.71875 
Q 8.5 49.078125 8.5 55.328125 
Q 8.5 64.0625 14.71875 69.140625 
Q 20.953125 74.21875 31.78125 74.21875 
Q 42.671875 74.21875 48.875 69.140625 
Q 55.078125 64.0625 55.078125 55.328125 
Q 55.078125 49.078125 51.53125 44.71875 
Q 48 40.375 41.703125 38.8125 
Q 48.828125 37.15625 52.796875 32.3125 
Q 56.78125 27.484375 56.78125 20.515625 
Q 56.78125 9.90625 50.3125 4.234375 
Q 43.84375 -1.421875 31.78125 -1.421875 
Q 19.734375 -1.421875 13.25 4.234375 
Q 6.78125 9.90625 6.78125 20.515625 
Q 6.78125 27.484375 10.78125 32.3125 
Q 14.796875 37.15625 21.921875 38.8125 
z
M 18.3125 54.390625 
Q 18.3125 48.734375 21.84375 45.5625 
Q 25.390625 42.390625 31.78125 42.390625 
Q 38.140625 42.390625 41.71875 45.5625 
Q 45.3125 48.734375 45.3125 54.390625 
Q 45.3125 60.0625 41.71875 63.234375 
Q 38.140625 66.40625 31.78125 66.40625 
Q 25.390625 66.40625 21.84375 63.234375 
Q 18.3125 60.0625 18.3125 54.390625 
z
" id="DejaVuSans-56"/>
      </defs>
      <g style="fill:#262626;" transform="translate(407.528314 651.898438)scale(0.1 -0.1)">
       <use xlink:href="#DejaVuSans-50"/>
       <use x="63.623047" xlink:href="#DejaVuSans-48"/>
       <use x="127.246094" xlink:href="#DejaVuSans-49"/>
       <use x="190.869141" xlink:href="#DejaVuSans-56"/>
      </g>
     </g>
    </g>
    <g id="xtick_5">
     <g id="line2d_9">
      <path clip-path="url(#p0f765e8fc6)" d="M 505.601945 640.8 
L 505.601945 86.4 
" style="fill:none;stroke:#cccccc;stroke-linecap:round;stroke-width:0.8;"/>
     </g>
     <g id="line2d_10"/>
     <g id="text_5">
      <!-- 2019 -->
      <defs>
       <path d="M 10.984375 1.515625 
L 10.984375 10.5 
Q 14.703125 8.734375 18.5 7.8125 
Q 22.3125 6.890625 25.984375 6.890625 
Q 35.75 6.890625 40.890625 13.453125 
Q 46.046875 20.015625 46.78125 33.40625 
Q 43.953125 29.203125 39.59375 26.953125 
Q 35.25 24.703125 29.984375 24.703125 
Q 19.046875 24.703125 12.671875 31.3125 
Q 6.296875 37.9375 6.296875 49.421875 
Q 6.296875 60.640625 12.9375 67.421875 
Q 19.578125 74.21875 30.609375 74.21875 
Q 43.265625 74.21875 49.921875 64.515625 
Q 56.59375 54.828125 56.59375 36.375 
Q 56.59375 19.140625 48.40625 8.859375 
Q 40.234375 -1.421875 26.421875 -1.421875 
Q 22.703125 -1.421875 18.890625 -0.6875 
Q 15.09375 0.046875 10.984375 1.515625 
z
M 30.609375 32.421875 
Q 37.25 32.421875 41.125 36.953125 
Q 45.015625 41.5 45.015625 49.421875 
Q 45.015625 57.28125 41.125 61.84375 
Q 37.25 66.40625 30.609375 66.40625 
Q 23.96875 66.40625 20.09375 61.84375 
Q 16.21875 57.28125 16.21875 49.421875 
Q 16.21875 41.5 20.09375 36.953125 
Q 23.96875 32.421875 30.609375 32.421875 
z
" id="DejaVuSans-57"/>
      </defs>
      <g style="fill:#262626;" transform="translate(492.876945 651.898438)scale(0.1 -0.1)">
       <use xlink:href="#DejaVuSans-50"/>
       <use x="63.623047" xlink:href="#DejaVuSans-48"/>
       <use x="127.246094" xlink:href="#DejaVuSans-49"/>
       <use x="190.869141" xlink:href="#DejaVuSans-57"/>
      </g>
     </g>
    </g>
    <g id="xtick_6">
     <g id="line2d_11">
      <path clip-path="url(#p0f765e8fc6)" d="M 590.950577 640.8 
L 590.950577 86.4 
" style="fill:none;stroke:#cccccc;stroke-linecap:round;stroke-width:0.8;"/>
     </g>
     <g id="line2d_12"/>
     <g id="text_6">
      <!-- 2020 -->
      <g style="fill:#262626;" transform="translate(578.225577 651.898438)scale(0.1 -0.1)">
       <use xlink:href="#DejaVuSans-50"/>
       <use x="63.623047" xlink:href="#DejaVuSans-48"/>
       <use x="127.246094" xlink:href="#DejaVuSans-50"/>
       <use x="190.869141" xlink:href="#DejaVuSans-48"/>
      </g>
     </g>
    </g>
   </g>
   <g id="matplotlib.axis_2">
    <g id="ytick_1">
     <g id="line2d_13">
      <path clip-path="url(#p0f765e8fc6)" d="M 90 615.609157 
L 648 615.609157 
" style="fill:none;stroke:#cccccc;stroke-linecap:round;stroke-width:0.8;"/>
     </g>
     <g id="line2d_14"/>
     <g id="text_7">
      <!-- 0 -->
      <g style="fill:#262626;" transform="translate(80.1375 619.408375)scale(0.1 -0.1)">
       <use xlink:href="#DejaVuSans-48"/>
      </g>
     </g>
    </g>
    <g id="ytick_2">
     <g id="line2d_15">
      <path clip-path="url(#p0f765e8fc6)" d="M 90 524.042716 
L 648 524.042716 
" style="fill:none;stroke:#cccccc;stroke-linecap:round;stroke-width:0.8;"/>
     </g>
     <g id="line2d_16"/>
     <g id="text_8">
      <!-- 10000 -->
      <g style="fill:#262626;" transform="translate(54.6875 527.841935)scale(0.1 -0.1)">
       <use xlink:href="#DejaVuSans-49"/>
       <use x="63.623047" xlink:href="#DejaVuSans-48"/>
       <use x="127.246094" xlink:href="#DejaVuSans-48"/>
       <use x="190.869141" xlink:href="#DejaVuSans-48"/>
       <use x="254.492188" xlink:href="#DejaVuSans-48"/>
      </g>
     </g>
    </g>
    <g id="ytick_3">
     <g id="line2d_17">
      <path clip-path="url(#p0f765e8fc6)" d="M 90 432.476276 
L 648 432.476276 
" style="fill:none;stroke:#cccccc;stroke-linecap:round;stroke-width:0.8;"/>
     </g>
     <g id="line2d_18"/>
     <g id="text_9">
      <!-- 20000 -->
      <g style="fill:#262626;" transform="translate(54.6875 436.275495)scale(0.1 -0.1)">
       <use xlink:href="#DejaVuSans-50"/>
       <use x="63.623047" xlink:href="#DejaVuSans-48"/>
       <use x="127.246094" xlink:href="#DejaVuSans-48"/>
       <use x="190.869141" xlink:href="#DejaVuSans-48"/>
       <use x="254.492188" xlink:href="#DejaVuSans-48"/>
      </g>
     </g>
    </g>
    <g id="ytick_4">
     <g id="line2d_19">
      <path clip-path="url(#p0f765e8fc6)" d="M 90 340.909836 
L 648 340.909836 
" style="fill:none;stroke:#cccccc;stroke-linecap:round;stroke-width:0.8;"/>
     </g>
     <g id="line2d_20"/>
     <g id="text_10">
      <!-- 30000 -->
      <defs>
       <path d="M 40.578125 39.3125 
Q 47.65625 37.796875 51.625 33 
Q 55.609375 28.21875 55.609375 21.1875 
Q 55.609375 10.40625 48.1875 4.484375 
Q 40.765625 -1.421875 27.09375 -1.421875 
Q 22.515625 -1.421875 17.65625 -0.515625 
Q 12.796875 0.390625 7.625 2.203125 
L 7.625 11.71875 
Q 11.71875 9.328125 16.59375 8.109375 
Q 21.484375 6.890625 26.8125 6.890625 
Q 36.078125 6.890625 40.9375 10.546875 
Q 45.796875 14.203125 45.796875 21.1875 
Q 45.796875 27.640625 41.28125 31.265625 
Q 36.765625 34.90625 28.71875 34.90625 
L 20.21875 34.90625 
L 20.21875 43.015625 
L 29.109375 43.015625 
Q 36.375 43.015625 40.234375 45.921875 
Q 44.09375 48.828125 44.09375 54.296875 
Q 44.09375 59.90625 40.109375 62.90625 
Q 36.140625 65.921875 28.71875 65.921875 
Q 24.65625 65.921875 20.015625 65.03125 
Q 15.375 64.15625 9.8125 62.3125 
L 9.8125 71.09375 
Q 15.4375 72.65625 20.34375 73.4375 
Q 25.25 74.21875 29.59375 74.21875 
Q 40.828125 74.21875 47.359375 69.109375 
Q 53.90625 64.015625 53.90625 55.328125 
Q 53.90625 49.265625 50.4375 45.09375 
Q 46.96875 40.921875 40.578125 39.3125 
z
" id="DejaVuSans-51"/>
      </defs>
      <g style="fill:#262626;" transform="translate(54.6875 344.709055)scale(0.1 -0.1)">
       <use xlink:href="#DejaVuSans-51"/>
       <use x="63.623047" xlink:href="#DejaVuSans-48"/>
       <use x="127.246094" xlink:href="#DejaVuSans-48"/>
       <use x="190.869141" xlink:href="#DejaVuSans-48"/>
       <use x="254.492188" xlink:href="#DejaVuSans-48"/>
      </g>
     </g>
    </g>
    <g id="ytick_5">
     <g id="line2d_21">
      <path clip-path="url(#p0f765e8fc6)" d="M 90 249.343396 
L 648 249.343396 
" style="fill:none;stroke:#cccccc;stroke-linecap:round;stroke-width:0.8;"/>
     </g>
     <g id="line2d_22"/>
     <g id="text_11">
      <!-- 40000 -->
      <defs>
       <path d="M 37.796875 64.3125 
L 12.890625 25.390625 
L 37.796875 25.390625 
z
M 35.203125 72.90625 
L 47.609375 72.90625 
L 47.609375 25.390625 
L 58.015625 25.390625 
L 58.015625 17.1875 
L 47.609375 17.1875 
L 47.609375 0 
L 37.796875 0 
L 37.796875 17.1875 
L 4.890625 17.1875 
L 4.890625 26.703125 
z
" id="DejaVuSans-52"/>
      </defs>
      <g style="fill:#262626;" transform="translate(54.6875 253.142615)scale(0.1 -0.1)">
       <use xlink:href="#DejaVuSans-52"/>
       <use x="63.623047" xlink:href="#DejaVuSans-48"/>
       <use x="127.246094" xlink:href="#DejaVuSans-48"/>
       <use x="190.869141" xlink:href="#DejaVuSans-48"/>
       <use x="254.492188" xlink:href="#DejaVuSans-48"/>
      </g>
     </g>
    </g>
    <g id="ytick_6">
     <g id="line2d_23">
      <path clip-path="url(#p0f765e8fc6)" d="M 90 157.776956 
L 648 157.776956 
" style="fill:none;stroke:#cccccc;stroke-linecap:round;stroke-width:0.8;"/>
     </g>
     <g id="line2d_24"/>
     <g id="text_12">
      <!-- 50000 -->
      <g style="fill:#262626;" transform="translate(54.6875 161.576175)scale(0.1 -0.1)">
       <use xlink:href="#DejaVuSans-53"/>
       <use x="63.623047" xlink:href="#DejaVuSans-48"/>
       <use x="127.246094" xlink:href="#DejaVuSans-48"/>
       <use x="190.869141" xlink:href="#DejaVuSans-48"/>
       <use x="254.492188" xlink:href="#DejaVuSans-48"/>
      </g>
     </g>
    </g>
   </g>
   <g id="line2d_25">
    <path clip-path="url(#p0f765e8fc6)" d="M 115.363636 615.6 
L 116.504993 615.215421 
L 116.789981 614.977348 
L 117.490224 614.821685 
L 117.604173 614.775902 
L 117.95347 614.656866 
L 118.360314 614.519516 
L 118.438193 614.473733 
L 119.33897 614.272287 
L 119.366602 614.23566 
L 119.531865 614.116624 
L 120.50872 613.796141 
L 121.124523 613.677105 
L 121.233734 613.512285 
L 122.997727 613.255899 
L 123.324648 613.100236 
L 123.694847 612.95373 
L 123.707753 612.89879 
L 124.354951 612.73397 
L 125.880271 612.102162 
L 126.255273 611.983126 
L 126.336884 611.928186 
L 126.614476 611.809149 
L 126.757438 611.75421 
L 127.435353 611.607703 
L 127.89402 611.296377 
L 128.35773 611.067461 
L 128.436115 611.003365 
L 129.081496 610.884328 
L 129.193695 610.765292 
L 129.322958 610.646256 
L 129.374401 610.600472 
L 129.840473 610.463123 
L 130.98092 610.179267 
L 131.015808 610.14264 
L 131.446197 610.014447 
L 131.47872 609.941194 
L 132.343207 609.785531 
L 132.422548 609.639025 
L 132.843681 609.501675 
L 132.923793 609.419265 
L 134.046862 609.217819 
L 134.238136 609.062156 
L 134.959583 608.567697 
L 135.907409 608.448661 
L 136.54154 608.210588 
L 136.666236 608.119022 
L 137.324351 607.963359 
L 137.746228 607.734443 
L 137.827785 607.652033 
L 138.19223 607.514683 
L 141.001579 606.809622 
L 141.103109 606.718055 
L 141.480077 606.580706 
L 141.531298 606.507452 
L 142.378716 606.370103 
L 142.453296 606.315163 
L 142.858886 606.18697 
L 143.194884 605.921427 
L 143.867757 605.784078 
L 144.103007 605.527692 
L 144.33465 605.408655 
L 144.39294 605.381185 
L 144.542914 605.262149 
L 144.606769 605.188896 
L 144.774237 605.069859 
L 144.794086 605.051546 
L 145.656682 604.895883 
L 145.734542 604.79516 
L 145.92072 604.676124 
L 146.423012 604.273231 
L 146.500736 604.209135 
L 147.117674 604.090098 
L 147.134894 604.053472 
L 147.349684 603.934436 
L 147.414118 603.861182 
L 147.799018 603.705519 
L 147.829045 603.659736 
L 148.769187 603.494917 
L 148.839686 603.412507 
L 149.173781 603.275157 
L 149.240913 603.156121 
L 149.522272 603.037084 
L 149.633001 602.991301 
L 149.751267 602.927205 
L 150.381046 602.771542 
L 150.424917 602.716602 
L 150.658781 602.588409 
L 150.88116 602.432746 
L 150.917826 602.405276 
L 151.279429 602.267926 
L 151.363054 602.167203 
L 152.043586 602.029854 
L 152.107345 601.910817 
L 152.284013 601.782624 
L 152.351608 601.709371 
L 152.556868 601.581178 
L 152.930653 601.379732 
L 153.034367 601.214912 
L 153.625596 601.077563 
L 153.732764 600.94937 
L 153.93757 600.81202 
L 154.332607 600.683827 
L 154.601506 600.464067 
L 154.632789 600.436598 
L 155.274268 600.317561 
L 155.488846 600.189368 
L 156.001374 599.942139 
L 156.904763 599.823102 
L 157.016063 599.722379 
L 157.205392 599.603343 
L 157.407829 599.47515 
L 157.960227 599.218764 
L 158.604134 599.099727 
L 158.606624 599.081414 
L 158.822631 598.962378 
L 158.848012 598.907438 
L 159.068201 598.788402 
L 159.073881 598.770088 
L 159.270116 598.651052 
L 159.341156 598.559485 
L 159.537802 598.440449 
L 159.592376 598.403823 
L 160.202908 598.284786 
L 160.256483 598.156593 
L 160.457059 598.037557 
L 160.482012 597.964304 
L 160.761993 597.836111 
L 160.9097 597.717074 
L 160.993568 597.634664 
L 161.16305 597.515628 
L 161.187564 597.442375 
L 161.869041 597.323339 
L 161.910936 597.277555 
L 163.738099 597.039483 
L 163.756608 597.021169 
L 165.127493 596.892976 
L 165.197743 596.80141 
L 165.351663 596.682373 
L 165.448801 596.618277 
L 165.564061 596.499241 
L 165.67223 596.261168 
L 165.796193 596.142131 
L 166.077695 595.904059 
L 166.091847 595.867432 
L 166.758652 595.748396 
L 166.797123 595.611046 
L 167.02594 595.49201 
L 167.085768 595.473696 
L 167.223304 595.35466 
L 167.315207 595.144057 
L 167.459051 595.025021 
L 167.503983 594.860201 
L 167.69277 594.741165 
L 167.73037 594.695382 
L 168.627088 594.576345 
L 168.800943 594.365743 
L 169.100689 594.01779 
L 169.164693 593.917067 
L 169.33637 593.798031 
L 169.433488 593.706464 
L 170.116572 593.578271 
L 170.254344 593.459235 
L 170.714375 592.983089 
L 170.91031 592.7908 
L 171.00053 592.59851 
L 171.640764 592.470317 
L 171.719076 592.268871 
L 171.888149 592.149835 
L 172.054495 591.985015 
L 172.156328 591.838509 
L 172.21865 591.774412 
L 172.33414 591.655376 
L 172.580936 591.34405 
L 172.640931 591.17923 
L 173.313233 591.060194 
L 173.34084 591.023567 
L 173.522385 590.904531 
L 173.573969 590.822121 
L 173.765372 590.703085 
L 173.841149 590.547422 
L 173.972498 590.428386 
L 174.342006 590.052963 
L 175.13638 589.933927 
L 175.244492 589.604288 
L 175.417048 589.485251 
L 175.496914 589.366215 
L 175.622338 589.247179 
L 175.691446 589.036576 
L 175.826825 588.908383 
L 175.909781 588.5879 
L 176.541687 588.468864 
L 176.60998 588.203321 
L 176.929174 588.075128 
L 177.25721 587.901152 
L 177.37086 587.690549 
L 177.495318 587.571513 
L 177.544704 587.525729 
L 178.187609 587.379223 
L 178.290866 587.232717 
L 178.429236 587.11368 
L 178.476072 587.012957 
L 178.648418 586.893921 
L 178.999358 586.381149 
L 179.081978 586.262113 
L 179.160759 586.10645 
L 179.195939 586.02404 
L 179.82388 585.88669 
L 179.905838 585.712714 
L 180.041552 585.593678 
L 180.15774 585.309822 
L 180.279116 585.190785 
L 180.36988 584.879459 
L 180.511029 584.732953 
L 180.665426 584.46741 
L 180.758753 584.339217 
L 180.812775 584.110301 
L 181.439101 583.991265 
L 181.512106 583.679939 
L 181.66359 583.560903 
L 182.044274 583.093914 
L 182.154529 582.974877 
L 182.233033 582.837528 
L 182.40926 582.718491 
L 182.483114 582.489575 
L 183.117202 582.352226 
L 183.189709 582.242346 
L 183.300238 582.123309 
L 183.407844 581.784514 
L 183.549999 581.665477 
L 183.758061 581.317525 
L 183.84535 580.932946 
L 183.940325 580.786439 
L 184.033501 580.658246 
L 184.22599 580.465957 
L 184.707505 580.346921 
L 185.193672 579.577762 
L 185.246796 579.39463 
L 185.333768 579.20234 
L 185.42217 579.083304 
L 185.581828 578.744508 
L 185.698173 578.598002 
L 185.731034 578.515592 
L 186.366539 578.378242 
L 186.481802 578.176796 
L 186.611543 577.993663 
L 186.782562 577.81053 
L 186.860198 577.67318 
L 186.988356 577.535831 
L 187.061724 577.416794 
L 187.186531 577.224505 
L 187.325042 577.059685 
L 187.422637 576.931492 
L 187.991533 576.775829 
L 188.067236 576.5286 
L 188.222282 576.409564 
L 188.300239 576.171491 
L 188.46374 576.034141 
L 188.664863 575.805225 
L 188.738707 575.631249 
L 188.99429 575.182573 
L 189.637195 575.045224 
L 189.837327 574.596548 
L 190.68172 573.158955 
L 191.263114 573.039919 
L 191.518651 572.481363 
L 191.731584 572.234134 
L 191.831098 572.069314 
L 191.96763 571.922808 
L 192.143862 571.584012 
L 192.215665 571.455819 
L 192.275148 571.281843 
L 192.863414 571.15365 
L 192.96934 570.778228 
L 193.18374 570.476058 
L 193.28872 570.292925 
L 193.383782 570.164732 
L 193.65536 569.78931 
L 193.916215 569.514611 
L 194.064504 569.487141 
L 194.488567 569.368104 
L 194.601535 569.001839 
L 194.851735 568.553163 
L 195.014183 568.42497 
L 195.082319 568.177741 
L 195.24018 568.049548 
L 195.583637 567.390269 
L 196.156078 567.25292 
L 196.238604 566.831714 
L 196.31074 566.666894 
L 196.421905 566.547858 
L 196.469261 566.447135 
L 196.8669 566.318942 
L 197.010339 565.91605 
L 197.120968 565.797013 
L 197.166833 565.632194 
L 197.225515 565.577254 
L 198.043867 565.430747 
L 198.159002 565.128578 
L 198.282803 565.000385 
L 198.333781 564.863036 
L 198.433011 564.743999 
L 198.55984 564.57918 
L 198.663449 564.148817 
L 198.779628 563.965684 
L 198.846974 563.791708 
L 199.452309 563.645202 
L 199.537725 563.416286 
L 199.688477 563.288093 
L 199.76831 563.07749 
L 199.868503 562.921827 
L 199.937139 562.757007 
L 200.238057 562.244235 
L 200.394005 562.070259 
L 200.435921 561.868813 
L 201.100034 561.731463 
L 201.196273 561.557487 
L 201.324967 561.438451 
L 201.435417 561.191221 
L 201.580618 561.063028 
L 201.65736 560.861582 
L 201.794877 560.724232 
L 201.92595 560.37628 
L 202.063012 560.165677 
L 202.132209 559.982544 
L 202.724694 559.845195 
L 202.836633 559.625435 
L 203.004578 559.433146 
L 203.465698 558.700614 
L 203.555782 558.380132 
L 203.644092 558.242782 
L 203.705262 558.032179 
L 203.755029 557.940613 
L 204.368943 557.803263 
L 205.423022 556.704466 
L 206.005131 556.585429 
L 206.102558 556.347357 
L 206.268651 556.17338 
L 206.359269 555.981091 
L 206.482296 555.834584 
L 206.556354 555.605668 
L 207.648113 555.285186 
L 207.71652 555.019643 
L 207.873417 554.882294 
L 207.988994 554.625907 
L 208.132224 554.470245 
L 208.247207 554.067352 
L 208.402056 553.820123 
L 208.930481 553.289037 
L 209.269773 553.160844 
L 209.392415 552.794579 
L 209.524628 552.675542 
L 209.637462 552.318433 
L 209.783253 552.19024 
L 209.894217 552.052891 
L 210.03679 551.924698 
L 210.280275 551.329516 
L 210.503493 551.155539 
L 210.56322 550.90831 
L 210.899637 550.77096 
L 211.046548 550.276502 
L 211.438252 550.129995 
L 211.954652 548.729029 
L 212.559754 548.527583 
L 212.615988 548.353606 
L 213.006747 548.216257 
L 213.130691 547.813364 
L 213.595132 547.172399 
L 214.187029 547.053363 
L 214.376035 546.796977 
L 214.476846 546.659627 
L 214.583133 546.412398 
L 214.690214 546.293361 
L 215.380752 545.377697 
L 215.776558 545.258661 
L 215.896451 544.800828 
L 216.046028 544.636009 
L 216.870518 543.390705 
L 217.395527 543.271669 
L 217.67923 542.951186 
L 217.774595 542.77721 
L 217.931346 542.630704 
L 218.043791 542.365161 
L 218.227896 541.980582 
L 218.353009 541.806606 
L 218.447795 541.669256 
L 218.475793 541.568533 
L 219.095864 541.449497 
L 219.201383 541.238894 
L 219.367699 541.046604 
L 219.477218 540.900098 
L 219.630895 540.597929 
L 219.844981 540.469736 
L 219.948143 540.26829 
L 220.115587 540.085157 
L 220.261424 540.011904 
L 220.671431 539.892867 
L 220.936906 539.728048 
L 221.078168 539.425878 
L 221.18808 539.279372 
L 221.307475 539.050456 
L 221.474454 538.93142 
L 221.877876 538.308768 
L 222.430907 538.180575 
L 222.602511 538.052382 
L 222.740567 537.823466 
L 222.889334 537.631176 
L 223.009205 537.4572 
L 223.337793 537.090934 
L 223.429326 536.944428 
L 223.977902 536.807078 
L 224.130586 536.541536 
L 224.518855 536.028763 
L 224.81721 535.351172 
L 224.986819 535.131412 
L 225.100912 534.966593 
L 225.648263 534.75599 
L 225.784254 534.481291 
L 225.926336 534.316471 
L 226.166785 534.188278 
L 226.276673 533.876952 
L 226.406698 533.611409 
L 226.505211 533.455747 
L 226.604173 533.28177 
L 226.690071 533.080324 
L 227.377071 532.942974 
L 227.79878 532.311166 
L 228.011738 532.02731 
L 228.186051 531.661044 
L 228.472259 531.267309 
L 228.915444 531.120802 
L 229.029242 530.543934 
L 229.243206 530.241764 
L 229.554841 529.756462 
L 229.944271 529.014774 
L 230.102611 528.868268 
L 230.140376 528.795015 
L 230.558938 528.675978 
L 230.606735 528.373809 
L 230.706558 528.245616 
L 230.799614 528.089953 
L 230.873905 527.87935 
L 231.000447 527.742001 
L 231.111923 527.613808 
L 231.185364 527.412361 
L 231.288101 527.137662 
L 231.393558 526.954529 
L 231.508314 526.76224 
L 231.674029 526.533324 
L 232.112131 526.377661 
L 233.562387 524.344886 
L 233.76424 524.216693 
L 233.916076 523.850427 
L 234.014773 523.703921 
L 234.130549 523.420065 
L 234.440634 522.75163 
L 234.603574 522.266328 
L 234.750864 522.064881 
L 235.004425 521.671146 
L 235.54311 521.460543 
L 235.701715 521.259097 
L 235.80239 521.149217 
L 235.99508 520.938614 
L 236.206294 520.636445 
L 236.641633 520.151143 
L 237.081797 519.977167 
L 237.202781 519.867287 
L 237.358097 519.674997 
L 237.422983 519.583431 
L 237.615445 519.436925 
L 237.771644 519.208008 
L 238.017344 518.896683 
L 238.100386 518.74102 
L 238.469687 518.667766 
L 238.773119 518.530417 
L 239.345479 517.752102 
L 239.426657 517.623909 
L 239.650581 517.330896 
L 239.7461 517.202703 
L 239.818794 517.15692 
L 240.334477 516.937161 
L 240.486021 516.671618 
L 240.576985 516.543425 
L 240.849159 516.158846 
L 241.606233 515.600291 
L 242.09974 515.343905 
L 242.275265 515.050892 
L 242.405204 514.913542 
L 243.102551 513.833058 
L 243.317738 513.668239 
L 243.445999 513.622456 
L 243.658841 513.494263 
L 243.75852 513.384383 
L 244.017461 513.164623 
L 244.119029 512.926551 
L 244.214243 512.715948 
L 244.312322 512.551128 
L 244.413154 512.340525 
L 244.548674 512.203176 
L 244.657219 512.010886 
L 244.747366 511.965103 
L 245.207043 511.83691 
L 245.316611 511.717874 
L 245.794868 510.912089 
L 245.907819 510.701486 
L 246.484098 509.914015 
L 246.754214 509.758352 
L 246.983361 509.556906 
L 247.162692 509.428713 
L 247.303232 509.263893 
L 247.770336 509.062447 
L 248.594303 508.94341 
L 249.183154 508.622928 
L 250.068269 508.485578 
L 250.491995 508.064373 
L 250.640538 507.981963 
L 250.919458 507.835457 
L 251.018084 507.762203 
L 251.850526 507.395938 
L 252.107614 507.112082 
L 252.341914 506.901479 
L 252.491366 506.709189 
L 252.581166 506.498587 
L 253.0304 506.223887 
L 253.109123 506.187261 
L 253.493019 506.022441 
L 253.630866 505.967501 
L 253.778837 505.839308 
L 253.888993 505.793525 
L 254.055168 505.647019 
L 254.222079 505.12509 
L 254.347996 505.006054 
L 254.419445 504.868704 
L 254.526666 504.777137 
L 255.071841 504.612318 
L 255.349646 504.209426 
L 255.603849 503.888943 
L 255.683409 503.81569 
L 255.809094 503.696653 
L 255.852214 503.522677 
L 256.065129 503.110628 
L 256.285136 502.771832 
L 256.380295 502.579543 
L 256.744505 502.414723 
L 257.394043 501.407492 
L 257.510285 501.22436 
L 257.805966 500.601708 
L 258.077152 500.272069 
L 258.295603 500.143876 
L 258.544926 499.658573 
L 259.150946 498.614716 
L 259.357955 498.486523 
L 259.567015 498.257607 
L 259.802422 498.019534 
L 260.177825 497.680738 
L 260.976161 496.517845 
L 261.11902 496.243145 
L 261.476829 496.014229 
L 261.956081 495.208444 
L 262.06703 495.025312 
L 263.119795 493.322176 
L 263.310807 493.129886 
L 263.467704 492.8735 
L 264.155865 491.50916 
L 264.303558 491.078798 
L 264.697698 490.593496 
L 264.89459 490.410363 
L 265.005208 490.181447 
L 265.246648 489.961687 
L 265.443795 489.842651 
L 265.761741 489.567952 
L 265.935369 489.210843 
L 266.074532 489.100963 
L 266.605178 488.9453 
L 266.724711 488.798794 
L 266.818997 488.661444 
L 267.132337 488.258552 
L 267.233669 488.112045 
L 267.605256 487.71831 
L 268.2428 487.489394 
L 268.814603 486.848428 
L 269.069387 486.674452 
L 269.171091 486.582886 
L 270.570569 485.896137 
L 270.612948 485.777101 
L 270.807649 485.648908 
L 271.041388 485.465775 
L 271.986278 485.07204 
L 272.111594 484.916377 
L 272.398826 484.76987 
L 272.509907 484.559267 
L 273.150812 484.421918 
L 273.172807 484.403605 
L 273.372584 484.284568 
L 273.857076 483.753483 
L 273.947042 483.579507 
L 274.170781 483.396374 
L 274.43283 483.176614 
L 274.914976 482.819505 
L 275.025402 482.672999 
L 275.73247 481.793961 
L 276.312427 481.601671 
L 276.437827 481.473478 
L 276.525655 481.015646 
L 276.654934 480.887453 
L 276.794575 480.75926 
L 277.662487 480.164078 
L 278.047227 480.035885 
L 278.529161 479.660463 
L 278.985999 479.001185 
L 279.073302 478.570822 
L 279.446218 478.451786 
L 279.833897 478.012267 
L 279.945898 477.874917 
L 280.204477 477.536122 
L 280.842919 476.757807 
L 281.192203 476.6113 
L 281.299836 476.492264 
L 281.442598 476.318288 
L 281.555035 476.135155 
L 281.719884 475.970335 
L 281.95076 475.805516 
L 282.112001 475.640696 
L 282.172716 475.485033 
L 282.282977 475.35684 
L 282.680919 474.880695 
L 283.407124 474.203103 
L 283.542173 474.029127 
L 283.747095 473.708644 
L 283.872014 473.552981 
L 284.121053 473.067679 
L 284.639645 472.619004 
L 284.813893 472.490811 
L 286.005402 471.29129 
L 286.234974 471.153941 
L 286.327541 471.089844 
L 286.552539 470.915868 
L 286.719388 470.714422 
L 287.201947 470.0643 
L 287.333158 469.92695 
L 287.496949 469.835384 
L 287.743996 469.707191 
L 287.874409 469.505745 
L 288.032056 469.350082 
L 288.173316 469.194419 
L 288.434726 468.910563 
L 288.683426 468.626707 
L 288.793679 468.434417 
L 288.998834 468.232971 
L 289.532848 467.637789 
L 290.371617 466.374172 
L 290.446876 466.21851 
L 290.557313 465.88887 
L 290.92848 465.550074 
L 291.151955 465.376098 
L 291.382598 465.046459 
L 291.477298 464.890796 
L 291.618143 464.698507 
L 291.710418 464.506217 
L 291.909621 464.304771 
L 292.02625 464.158265 
L 292.129442 463.993445 
L 292.331983 463.865252 
L 293.132289 463.590553 
L 293.853931 462.638262 
L 294.399933 462.455129 
L 295.744372 460.825246 
L 295.951335 460.697053 
L 296.260951 460.083558 
L 296.370733 459.552473 
L 297.241494 458.124036 
L 297.674037 458.005 
L 298.05964 457.574638 
L 298.210107 457.437288 
L 298.594195 457.025239 
L 298.970045 456.732226 
L 299.378658 456.576563 
L 299.484775 456.356804 
L 300.058196 455.24885 
L 300.163039 455.038247 
L 300.291398 454.809331 
L 300.474921 454.653668 
L 300.908508 454.507162 
L 301.565651 453.655594 
L 301.643677 453.509088 
L 302.211138 452.758243 
L 302.590198 452.584267 
L 302.964994 452.016555 
L 303.070292 451.851735 
L 303.178488 451.631976 
L 303.287796 451.34812 
L 303.467397 451.055107 
L 303.559526 450.716311 
L 303.661954 450.478238 
L 303.797912 450.295106 
L 304.344077 449.278718 
L 304.438114 449.086429 
L 304.57458 448.930766 
L 305.343024 447.685462 
L 305.863335 447.548112 
L 307.122371 446.055579 
L 307.652119 445.542807 
L 307.761503 445.396301 
L 307.948206 445.194855 
L 308.27343 444.6363 
L 308.679926 443.949551 
L 308.795357 443.793888 
L 309.024799 443.363526 
L 309.236205 442.951477 
L 309.770398 441.971716 
L 309.888383 441.751957 
L 310.034176 441.394848 
L 310.13301 441.257498 
L 310.931181 440.552436 
L 311.170631 440.131231 
L 311.304473 439.984724 
L 311.857382 438.977494 
L 312.339606 438.830987 
L 312.422197 438.638698 
L 312.612659 438.208335 
L 312.720687 438.034359 
L 313.252257 437.118695 
L 313.480135 436.926405 
L 313.6492 436.779899 
L 314.072181 436.651706 
L 314.222859 436.496043 
L 314.30695 436.331223 
L 314.663503 435.800138 
L 314.889345 435.488812 
L 314.994705 435.269053 
L 315.85496 434.472425 
L 315.962138 434.408328 
L 316.335344 433.712423 
L 316.4406 433.547604 
L 316.565378 433.318688 
L 316.674819 433.098928 
L 317.086428 432.668566 
L 317.276907 432.549529 
L 317.493826 432.201577 
L 318.024246 431.276756 
L 318.133248 431.121093 
L 318.438678 430.846394 
L 318.862292 430.654104 
L 318.971465 430.480128 
L 319.407391 429.747596 
L 319.518475 429.509524 
L 319.689486 429.124945 
L 319.797855 428.960125 
L 320.436649 428.273377 
L 320.567622 428.145184 
L 320.656113 427.980364 
L 320.823668 427.797231 
L 321.056103 427.403496 
L 321.155893 427.256989 
L 321.239033 427.09217 
L 321.417043 426.744217 
L 323.402887 423.942284 
L 323.848973 423.777464 
L 323.979432 423.566862 
L 324.157301 423.365416 
L 324.255378 423.255536 
L 324.371769 423.109029 
L 324.480252 422.94421 
L 324.77655 422.687824 
L 325.057713 422.440594 
L 325.502349 422.202522 
L 325.609538 422.065172 
L 325.786898 421.836256 
L 325.908634 421.735533 
L 325.999471 421.60734 
L 326.275758 421.515773 
L 327.146444 421.341797 
L 327.238675 421.085411 
L 327.339753 420.957218 
L 327.432493 420.810712 
L 327.553863 420.636736 
L 327.864478 419.849264 
L 327.971102 419.666131 
L 328.120656 419.263239 
L 328.245001 418.915287 
L 328.341289 418.787093 
L 328.419198 418.68637 
L 328.695428 418.558177 
L 328.974159 417.953839 
L 329.608647 416.241546 
L 329.697238 416.104197 
L 329.783404 415.829497 
L 330.278061 415.628051 
L 330.453779 415.252629 
L 330.682176 414.81311 
L 330.882619 414.483471 
L 331.115353 414.172145 
L 331.225365 413.943229 
L 331.594789 413.567806 
L 332.008255 413.439613 
L 332.121181 413.219854 
L 332.371436 412.926841 
L 332.499675 412.734552 
L 332.704489 412.469009 
L 332.983929 412.148527 
L 333.859545 412.011177 
L 334.02834 411.818887 
L 334.158233 411.736478 
L 334.480894 411.525875 
L 335.275416 411.379368 
L 335.507216 411.251175 
L 335.600573 411.068043 
L 335.706709 410.866596 
L 335.823132 410.683464 
L 336.628117 410.088282 
L 336.979344 409.941775 
L 337.062336 409.841052 
L 337.2031 409.712859 
L 337.314476 409.181774 
L 337.481636 408.778882 
L 338.268391 407.954784 
L 338.582064 407.826591 
L 338.790015 407.524421 
L 338.901099 407.304662 
L 339.12208 406.984179 
L 339.54802 406.379841 
L 339.656559 406.169238 
L 340.151144 406.022732 
L 340.260089 405.775502 
L 340.389747 405.583213 
L 340.507718 405.37261 
L 340.615043 405.125381 
L 340.767889 404.841525 
L 340.877966 404.731645 
L 341.081597 404.365379 
L 341.19988 404.22803 
L 341.412009 404.00827 
L 341.855342 403.742727 
L 342.010064 403.422245 
L 342.105575 403.202485 
L 342.18573 403.037666 
L 342.292413 402.817906 
L 342.389372 402.64393 
L 342.497901 402.350917 
L 342.670631 402.002965 
L 342.779354 401.893085 
L 343.115279 401.618386 
L 343.453312 401.481036 
L 343.564761 401.270433 
L 343.659756 401.14224 
L 343.747047 401.014047 
L 343.850805 400.867541 
L 344.266262 400.281516 
L 344.352266 400.02513 
L 344.467726 399.878624 
L 344.567646 399.677177 
L 345.134374 399.503201 
L 345.262581 399.228502 
L 345.36603 399.036212 
L 345.422296 398.889706 
L 345.49995 398.7432 
L 345.554776 398.624163 
L 345.665527 398.358621 
L 345.905362 397.909945 
L 346.005135 397.717656 
L 346.95134 396.875244 
L 347.053771 396.664642 
L 347.221878 396.518135 
L 347.320258 396.353316 
L 347.357295 396.206809 
L 347.460484 395.98705 
L 348.203317 395.062229 
L 348.320653 394.73259 
L 349.67963 392.443429 
L 350.059975 392.278609 
L 350.277907 392.040536 
L 351.290723 390.996679 
L 351.65709 390.868486 
L 351.894732 390.676196 
L 352.005237 390.374027 
L 352.696605 389.595712 
L 353.390163 389.421736 
L 353.615634 389.27523 
L 354.006445 388.973061 
L 354.28421 388.414505 
L 354.365095 388.222216 
L 354.52602 388.103179 
L 354.754539 387.764384 
L 354.980999 387.416431 
L 355.152632 387.269925 
L 355.429564 387.004382 
L 355.575072 386.830406 
L 355.676132 386.711369 
L 355.788206 386.57402 
L 355.923006 386.363417 
L 356.130973 386.281007 
L 356.580961 386.152814 
L 356.69159 385.997151 
L 356.901059 385.649199 
L 357.044622 385.493536 
L 357.172523 385.246306 
L 357.881864 384.449678 
L 358.195719 384.303172 
L 358.444143 383.936906 
L 359.071094 383.030399 
L 359.282295 382.792326 
L 359.890992 382.64582 
L 360.388818 381.977385 
L 360.748965 381.629432 
L 361.048059 381.336419 
L 361.414929 381.180757 
L 361.787525 380.365815 
L 362.063964 380.091116 
L 362.161726 379.990393 
L 362.220636 379.843886 
L 362.46059 379.395211 
L 362.559222 379.221235 
L 363.136088 379.010632 
L 363.244942 378.772559 
L 363.393844 378.616896 
L 363.618586 378.287257 
L 364.198873 377.435689 
L 364.789198 377.280026 
L 364.842254 377.096893 
L 364.950166 376.987014 
L 365.347429 376.465085 
L 365.452953 376.263639 
L 365.629006 376.053036 
L 365.731874 375.778337 
L 366.016142 375.586047 
L 366.382651 375.457854 
L 366.488114 375.100745 
L 366.717326 374.716166 
L 366.806967 374.359057 
L 366.956024 374.194237 
L 367.028268 374.020261 
L 367.180881 373.892068 
L 367.282449 373.718092 
L 367.357346 373.571585 
L 367.470565 373.388452 
L 368.128607 372.84821 
L 368.252029 372.582668 
L 368.359781 372.436161 
L 368.464378 372.307968 
L 368.676166 372.024112 
L 368.785193 371.822666 
L 368.865854 371.64869 
L 368.970927 371.48387 
L 369.061829 371.190858 
L 369.079853 371.062665 
L 369.597951 370.916159 
L 369.930598 370.357603 
L 370.041186 370.082904 
L 370.210392 369.753265 
L 370.317576 369.588445 
L 370.871373 368.727721 
L 370.980354 368.544588 
L 371.283629 368.388925 
L 371.39008 368.196635 
L 371.50305 367.931093 
L 371.597026 367.812056 
L 371.757445 367.656393 
L 372.427357 366.832295 
L 372.899299 366.676632 
L 373.032226 366.539283 
L 373.133074 366.392776 
L 373.223202 366.255427 
L 373.31772 366.118077 
L 373.489205 365.907474 
L 373.563027 365.706028 
L 373.739175 365.577835 
L 373.818849 365.422172 
L 373.965291 365.275666 
L 374.00809 365.156629 
L 374.658229 364.973497 
L 375.089673 364.543134 
L 375.174686 364.350845 
L 375.333465 364.204339 
L 375.454925 363.938796 
L 375.559732 363.62747 
L 375.710897 363.352771 
L 375.779109 363.261204 
L 376.22349 363.123855 
L 376.278224 362.949878 
L 376.372182 362.656866 
L 376.495168 362.492046 
L 376.871651 361.832768 
L 376.977644 361.686261 
L 377.063547 361.613008 
L 377.223173 361.448189 
L 377.278001 361.191803 
L 377.868343 361.06361 
L 377.891666 361.00867 
L 378.250138 360.87132 
L 378.519673 360.495898 
L 378.835446 360.294452 
L 378.932245 360.157102 
L 379.038458 360.010596 
L 379.106109 359.891559 
L 379.780289 359.708426 
L 379.916753 359.333004 
L 380.024522 358.902642 
L 380.285953 358.600472 
L 380.382339 358.380713 
L 380.461449 358.234207 
L 380.535902 358.096857 
L 380.987443 357.895411 
L 381.137932 357.730591 
L 381.255557 357.437579 
L 381.361545 357.236132 
L 381.46747 357.053 
L 381.57595 356.686734 
L 382.035551 355.780226 
L 382.200998 355.597093 
L 382.271007 355.514683 
L 382.81727 355.285767 
L 382.926118 355.020225 
L 383.051426 354.736369 
L 383.159108 354.599019 
L 383.367373 354.35179 
L 383.628923 354.168657 
L 383.854536 353.683355 
L 384.476537 353.436125 
L 384.578681 353.271306 
L 384.830386 352.87757 
L 384.940774 352.648654 
L 385.573479 351.632266 
L 385.958427 351.40335 
L 386.055251 351.201904 
L 386.192736 351.018771 
L 386.482595 350.679975 
L 386.631417 350.515156 
L 386.73184 350.06648 
L 386.894293 349.837564 
L 386.967204 349.745998 
L 387.055093 349.617805 
L 387.399476 349.315635 
L 387.668959 349.196599 
L 387.778143 349.013466 
L 388.198447 348.326718 
L 388.302735 348.052018 
L 388.463882 347.832259 
L 388.574021 347.603343 
L 388.664447 347.493463 
L 389.331831 347.319487 
L 389.399096 347.191294 
L 389.509497 347.044788 
L 389.648213 346.889125 
L 389.74662 346.577799 
L 389.914246 346.339726 
L 390.109915 345.909364 
L 390.16866 345.762857 
L 390.279183 345.369122 
L 390.411431 345.112736 
L 390.490019 344.975386 
L 390.615592 344.82888 
L 390.715767 344.80141 
L 391.125029 344.398517 
L 391.204605 344.206228 
L 391.312319 344.068878 
L 391.698862 343.427913 
L 391.756478 343.29972 
L 391.795867 343.107431 
L 391.906028 342.860201 
L 392.416666 341.944537 
L 392.520407 341.85297 
L 392.911299 341.367668 
L 393.022006 341.212005 
L 393.737656 340.387907 
L 394.305015 340.268871 
L 394.639774 339.728629 
L 394.732763 339.518026 
L 395.025448 339.37152 
L 395.08715 339.23417 
L 395.158477 339.105977 
L 395.434908 338.941158 
L 395.511417 338.922844 
L 396.105986 338.794651 
L 396.320752 338.437542 
L 396.378408 338.272723 
L 396.485806 338.107903 
L 396.646628 337.97971 
L 396.850524 337.888144 
L 396.934417 337.723324 
L 397.040126 337.357058 
L 397.088857 337.164769 
L 397.191358 336.825973 
L 397.50741 336.514647 
L 397.591133 336.276574 
L 397.79432 336.148381 
L 397.920086 336.001875 
L 398.563275 335.049584 
L 398.687292 334.976331 
L 398.758338 334.939704 
L 399.09292 334.820668 
L 399.280627 334.619222 
L 399.915034 333.648617 
L 400.026039 333.511268 
L 400.162728 333.346448 
L 400.804894 332.906929 
L 400.891583 332.760423 
L 400.996558 332.613917 
L 401.107376 332.421627 
L 401.312932 332.018735 
L 401.409626 331.890542 
L 401.534656 331.744035 
L 401.632694 331.515119 
L 401.739183 331.3503 
L 401.859855 331.15801 
L 402.385925 330.910781 
L 403.075153 329.757044 
L 403.686556 329.015356 
L 404.09558 328.667403 
L 404.302743 328.310294 
L 404.407643 328.090535 
L 404.534407 327.879932 
L 404.671239 327.577762 
L 404.952401 326.991737 
L 405.04983 326.845231 
L 405.202549 326.625471 
L 405.615262 326.478965 
L 405.835254 326.048603 
L 405.992825 325.856313 
L 406.23191 325.508361 
L 406.34209 325.206192 
L 406.516059 324.858239 
L 406.622907 324.629323 
L 406.686478 324.427877 
L 406.802325 324.372937 
L 407.238413 324.217274 
L 407.359388 324.034141 
L 407.783125 323.228357 
L 407.872154 323.091007 
L 407.982012 322.688115 
L 408.240334 322.157029 
L 408.403624 321.946426 
L 408.630191 321.735824 
L 408.875323 321.580161 
L 408.983267 321.360401 
L 409.110773 321.076545 
L 409.224568 320.884256 
L 410.674724 318.402805 
L 410.720161 318.274612 
L 410.885714 318.009069 
L 411.128945 317.368104 
L 411.237043 317.029309 
L 411.724897 316.763766 
L 412.157686 316.635573 
L 412.311669 316.42497 
L 412.568234 316.223524 
L 412.672465 316.086174 
L 413.406759 315.454366 
L 413.890364 315.28039 
L 413.988552 315.097257 
L 415.188721 314.676051 
L 415.574938 314.547858 
L 415.771769 314.437978 
L 416.097274 314.163279 
L 416.205199 313.851953 
L 416.332413 313.687133 
L 416.436084 313.467374 
L 416.552318 313.339181 
L 417.062399 312.286167 
L 417.178541 312.093877 
L 417.277272 311.819178 
L 417.404348 311.617732 
L 417.994654 310.866887 
L 419.856446 310.143512 
L 420.661867 310.024476 
L 421.138537 309.163751 
L 421.795784 308.733389 
L 421.998216 308.550256 
L 422.107984 308.357967 
L 422.56558 307.680375 
L 422.695365 307.524712 
L 422.943343 307.268326 
L 423.418663 306.837964 
L 423.686501 306.709771 
L 424.380692 305.894829 
L 424.573774 305.51025 
L 424.71276 305.317961 
L 424.797635 305.171455 
L 425.469943 304.860129 
L 425.763153 304.521333 
L 425.86399 304.356513 
L 426.381746 303.559885 
L 426.44307 303.459162 
L 427.001574 303.294343 
L 427.11263 302.955547 
L 427.243573 302.827354 
L 427.503038 302.552654 
L 427.64899 302.351208 
L 427.756631 302.213859 
L 428.359587 301.600363 
L 428.638884 301.41723 
L 428.747673 301.087591 
L 428.970468 300.693856 
L 429.080715 300.547349 
L 430.126661 299.320359 
L 430.305583 299.183009 
L 430.389678 299.01819 
L 430.491485 298.88084 
L 430.628685 298.615297 
L 430.94049 298.239875 
L 431.296667 297.663006 
L 431.937361 297.479874 
L 432.408292 296.976258 
L 432.564702 296.609992 
L 432.717461 296.23457 
L 432.828675 295.941557 
L 433.188754 295.245652 
L 433.280306 295.181556 
L 433.44146 294.989266 
L 433.541166 294.81529 
L 433.655546 294.650471 
L 433.815272 294.183482 
L 433.905297 294.018662 
L 434.346587 293.359384 
L 434.542392 293.185408 
L 434.618606 293.148781 
L 435.180861 293.029745 
L 435.453148 292.755045 
L 435.924449 292.590226 
L 436.108118 292.489503 
L 437.061091 292.077454 
L 437.170175 291.940104 
L 437.95576 291.317452 
L 438.456604 291.189259 
L 438.557518 291.006126 
L 438.668875 290.6948 
L 438.76093 290.291908 
L 438.85942 290.145402 
L 438.96661 289.925642 
L 439.025492 289.742509 
L 439.11774 289.458653 
L 439.302562 289.30299 
L 439.860069 289.019134 
L 440.19076 288.488049 
L 440.292604 288.249976 
L 440.446465 288.002747 
L 440.742276 287.590698 
L 440.844756 287.352625 
L 441.000806 287.169492 
L 441.402518 286.858166 
L 441.66169 286.720817 
L 442.733203 285.329007 
L 442.785655 285.26491 
L 443.217235 285.127561 
L 443.649353 284.605632 
L 443.757251 284.385873 
L 443.875417 284.23021 
L 443.97977 284.12033 
L 444.23931 283.726594 
L 444.392548 283.406112 
L 444.883343 283.186352 
L 445.052271 282.875026 
L 445.186264 282.710207 
L 445.301448 282.554544 
L 445.410902 282.307314 
L 445.899619 281.36418 
L 446.06784 281.217674 
L 446.087659 281.19936 
L 446.526148 281.052854 
L 446.562871 280.888035 
L 446.67341 280.640805 
L 446.884517 280.311166 
L 446.989416 280.091407 
L 447.061728 279.86249 
L 447.149074 279.606104 
L 447.293793 279.459598 
L 448.108223 278.77285 
L 448.278087 278.6355 
L 448.375685 278.534777 
L 448.490462 278.388271 
L 448.614223 278.232608 
L 448.812163 278.058632 
L 448.920775 277.893812 
L 449.337047 277.536703 
L 449.795493 277.390197 
L 449.842557 277.24369 
L 449.93311 277.069714 
L 450.097442 276.904894 
L 450.177413 276.758388 
L 450.528156 276.208989 
L 450.611907 276.035013 
L 450.987202 275.513085 
L 451.32477 275.394048 
L 451.586231 275.046096 
L 451.811048 274.606577 
L 452.452979 273.700069 
L 452.552674 273.581033 
L 452.61169 273.45284 
L 453.269277 273.031634 
L 453.376331 272.894284 
L 453.510186 272.674525 
L 453.955416 271.969463 
L 454.17141 271.740547 
L 454.841964 271.392595 
L 454.94075 271.246088 
L 455.057043 271.099582 
L 455.239513 270.971389 
L 455.333671 270.69669 
L 455.438397 270.5044 
L 455.575078 270.357894 
L 456.081757 269.808495 
L 456.478987 269.625362 
L 456.606312 269.268253 
L 456.783821 268.956927 
L 456.881681 268.847048 
L 457.21638 268.535722 
L 457.290219 268.499095 
L 458.0643 268.270179 
L 458.373304 267.903913 
L 458.744785 267.739094 
L 460.021697 267.189695 
L 460.129506 266.74102 
L 460.184697 266.5762 
L 460.281039 266.374754 
L 460.418023 266.173308 
L 460.513374 265.816199 
L 460.600715 265.651379 
L 460.699133 265.40415 
L 461.650777 264.653305 
L 461.790505 264.497642 
L 462.173781 264.058123 
L 462.262659 263.966556 
L 462.374587 263.810893 
L 462.45704 263.728484 
L 462.98708 263.536194 
L 463.092039 263.316435 
L 463.239451 263.096675 
L 463.433361 262.867759 
L 463.66667 262.693783 
L 463.769654 262.51065 
L 463.976635 262.3733 
L 464.166083 262.226794 
L 464.51483 261.997878 
L 465.877515 260.184862 
L 466.280975 260.038356 
L 466.654809 259.708717 
L 466.933577 259.443174 
L 467.76315 258.985342 
L 467.938313 258.838836 
L 468.231796 258.52751 
L 468.481222 258.33522 
L 468.900905 257.868232 
L 468.977847 257.794978 
L 469.540354 257.611845 
L 469.699411 257.392086 
L 469.816078 257.19064 
L 469.995936 257.016664 
L 470.216929 256.723651 
L 470.898224 256.155939 
L 471.16565 256.027746 
L 471.265922 255.8263 
L 471.411206 255.679794 
L 471.503654 255.514974 
L 471.661163 255.377624 
L 472.183333 254.681719 
L 472.280703 254.580996 
L 472.900856 254.425333 
L 473.155064 254.205574 
L 473.262039 253.894248 
L 473.504358 253.518826 
L 473.613889 253.399789 
L 473.707024 253.244126 
L 473.808943 253.01521 
L 474.108462 252.90533 
L 474.473448 252.786294 
L 474.623312 252.502438 
L 474.729792 252.282679 
L 474.943558 251.998823 
L 475.052214 251.78822 
L 475.273435 251.495207 
L 475.376505 251.367014 
L 475.475407 251.229665 
L 475.683417 251.183881 
L 475.959255 251.028218 
L 476.423219 250.332314 
L 476.614382 250.149181 
L 476.732429 250.075927 
L 476.925072 249.837855 
L 477.370509 249.288456 
L 477.958076 248.830624 
L 478.05847 248.665804 
L 478.456273 248.198815 
L 478.539321 248.079779 
L 478.677266 247.942429 
L 478.78222 247.878333 
L 479.578044 247.53038 
L 479.926672 247.209898 
L 480.761263 246.889415 
L 481.09777 246.742909 
L 481.240066 246.623873 
L 481.447086 246.422427 
L 481.547701 246.35833 
L 481.786107 246.211824 
L 481.89233 246.111101 
L 482.14233 246.001221 
L 482.67788 245.772305 
L 482.803703 245.534232 
L 482.902892 245.195436 
L 482.94361 245.04893 
L 483.048331 244.85664 
L 483.177236 244.627724 
L 483.282882 244.353025 
L 483.318358 244.179049 
L 483.425644 243.950133 
L 484.06987 243.409891 
L 484.249858 243.281698 
L 484.375316 243.080251 
L 484.475752 242.942902 
L 484.603626 242.778082 
L 484.704829 242.640733 
L 484.774946 242.503383 
L 484.877245 242.219527 
L 485.037677 241.972298 
L 485.139359 241.871574 
L 486.013389 241.386272 
L 486.840158 240.580488 
L 486.94922 240.324102 
L 487.536541 240.031089 
L 487.824761 239.67398 
L 488.014738 239.390124 
L 488.134526 239.206991 
L 488.374195 238.941448 
L 488.753907 238.547713 
L 489.249259 238.346266 
L 489.326486 238.14482 
L 489.437123 237.970844 
L 489.679773 237.705301 
L 489.790864 237.558795 
L 489.943553 237.348192 
L 490.123953 237.210843 
L 490.202187 237.100963 
L 490.758598 236.872047 
L 490.859849 236.688914 
L 490.952248 236.514938 
L 491.065987 236.350118 
L 492.114512 235.059031 
L 492.418712 234.930838 
L 492.5127 234.729392 
L 492.742632 234.527946 
L 492.846354 234.418066 
L 492.94471 234.280717 
L 493.049985 234.088427 
L 493.59257 233.456619 
L 494.008458 233.319269 
L 494.569346 232.733244 
L 494.704565 232.540954 
L 495.10261 231.835893 
L 495.202914 231.671073 
L 495.785179 231.451314 
L 497.004845 231.011795 
L 497.422536 230.883602 
L 497.618892 230.737095 
L 497.971191 230.361673 
L 498.073392 230.141913 
L 498.194714 229.98625 
L 498.402556 229.711551 
L 498.607974 229.610828 
L 498.989499 229.482635 
L 499.063556 229.262876 
L 499.173598 229.070586 
L 500.183898 228.255645 
L 500.590771 228.136608 
L 501.213743 227.358294 
L 501.30821 227.321667 
L 501.651003 227.129378 
L 501.778047 227.056124 
L 502.311836 226.882148 
L 502.491856 226.744799 
L 502.615422 226.579979 
L 502.831392 226.314436 
L 503.382896 225.966484 
L 504.458252 225.655158 
L 504.542776 225.554435 
L 504.83945 225.371302 
L 504.946444 225.298049 
L 505.248875 225.124073 
L 505.743126 224.94094 
L 506.049857 224.702867 
L 506.345941 224.492264 
L 506.455204 224.254191 
L 506.578147 224.043589 
L 506.686367 223.942865 
L 507.505398 223.146237 
L 507.604679 223.036358 
L 507.85662 222.779972 
L 508.123618 222.514429 
L 508.190748 222.377079 
L 509.065869 221.809367 
L 509.230872 221.589608 
L 509.552721 221.259969 
L 509.716568 220.957799 
L 509.842391 220.802137 
L 509.923904 220.71057 
L 510.675777 220.380931 
L 511.035236 220.032978 
L 511.289645 219.685026 
L 511.442542 219.547676 
L 511.553588 219.392013 
L 511.653521 219.309604 
L 512.218436 218.979964 
L 512.326608 218.751048 
L 512.418552 218.558759 
L 512.515075 218.476349 
L 512.698146 218.265746 
L 512.917648 217.98189 
L 513.046098 217.771287 
L 513.119241 217.624781 
L 513.766398 217.185262 
L 514.269199 216.56261 
L 514.524024 216.352008 
L 514.632772 216.278754 
L 515.275685 215.885019 
L 515.779165 215.262367 
L 515.892531 215.106704 
L 516.10489 214.822848 
L 516.510174 214.209353 
L 517.035297 213.980437 
L 517.496839 213.330315 
L 517.612126 213.128869 
L 517.984646 212.570314 
L 518.089749 212.359711 
L 518.198432 212.240674 
L 518.324447 212.176578 
L 518.653232 212.048385 
L 518.753212 211.727902 
L 518.898602 211.48983 
L 519.005179 211.13272 
L 519.246619 210.839708 
L 519.512876 210.418502 
L 519.651053 210.271996 
L 519.986407 210.107176 
L 520.312949 209.978983 
L 520.507254 209.539464 
L 520.652378 209.301392 
L 520.764353 209.035849 
L 520.951545 208.54139 
L 521.121533 208.275848 
L 521.218557 208.184281 
L 521.331281 208.019462 
L 521.350283 208.001148 
L 521.82999 207.854642 
L 521.921506 207.790545 
L 522.209964 207.625726 
L 522.34724 207.506689 
L 522.910063 207.213677 
L 522.997244 207.140424 
L 523.54958 206.957291 
L 524.722474 205.464758 
L 525.19686 205.327408 
L 525.304477 205.180902 
L 525.459872 205.061865 
L 525.606721 204.842106 
L 525.727962 204.61319 
L 525.843941 204.55825 
L 526.11557 204.301864 
L 526.219931 204.155358 
L 526.812898 203.770779 
L 526.91776 203.541863 
L 527.030459 203.367886 
L 527.13174 203.22138 
L 527.328048 202.964994 
L 527.428339 202.699451 
L 527.636038 202.415595 
L 527.745508 202.204993 
L 527.977781 201.847883 
L 528.708557 201.225232 
L 528.800052 201.005472 
L 528.983854 200.877279 
L 529.2939 200.60258 
L 529.400023 200.38282 
L 529.463967 200.208844 
L 529.613365 200.053181 
L 529.991915 199.833422 
L 530.230838 199.311493 
L 530.39593 199.064264 
L 530.479393 198.917757 
L 530.615795 198.762094 
L 530.801889 198.560648 
L 530.90449 198.450769 
L 531.123805 198.203539 
L 531.272424 198.139443 
L 531.76667 197.84643 
L 531.897467 197.672454 
L 532.045731 197.498478 
L 532.149997 197.287875 
L 532.284231 197.068115 
L 532.550169 196.61944 
L 532.73882 196.39968 
L 532.88336 196.253174 
L 533.634429 195.593896 
L 533.728928 195.410763 
L 533.871616 195.273413 
L 533.983336 194.95293 
L 534.226261 194.641605 
L 534.337721 194.522568 
L 534.823079 194.128833 
L 535.025084 193.9457 
L 535.13688 193.506181 
L 535.349705 193.231481 
L 535.446447 193.057505 
L 535.563734 192.883529 
L 535.667862 192.764493 
L 535.73934 192.627143 
L 535.830881 192.44401 
L 535.958582 192.288347 
L 536.06215 192.013648 
L 536.794009 191.390996 
L 537.13506 191.006417 
L 537.296874 190.859911 
L 537.397774 190.704248 
L 537.491431 190.548585 
L 537.598658 190.328825 
L 537.670524 190.200632 
L 537.834972 190.035813 
L 538.25293 189.843523 
L 538.354498 189.751957 
L 538.520335 189.596294 
L 538.611683 189.486414 
L 538.750581 189.349064 
L 538.85853 189.184245 
L 539.0926 189.028582 
L 539.996363 188.781352 
L 540.114589 188.653159 
L 540.223234 188.534123 
L 540.331417 188.332677 
L 540.402716 188.094604 
L 540.500463 187.966411 
L 540.595281 187.764965 
L 540.76128 187.581832 
L 540.869013 187.362073 
L 540.972644 187.23388 
L 541.074748 186.95918 
L 541.790008 186.556288 
L 541.937741 186.428095 
L 542.471225 186.263275 
L 542.502234 186.235805 
L 543.600191 186.034359 
L 544.023248 185.78713 
L 544.134394 185.512431 
L 544.221069 185.283514 
L 544.338967 185.072912 
L 544.777654 184.789056 
L 545.562942 184.102307 
L 545.673414 183.928331 
L 545.839248 183.763512 
L 545.935054 183.690258 
L 546.41989 183.452186 
L 546.660006 183.159173 
L 546.756629 183.00351 
L 547.34673 182.371702 
L 547.45387 182.078689 
L 547.861103 181.72158 
L 548.079674 181.575074 
L 548.704105 180.677722 
L 548.756333 180.549529 
L 548.809305 180.476276 
L 549.056081 180.338927 
L 549.274812 180.201577 
L 549.709217 180.055071 
L 550.812862 178.434345 
L 551.406814 178.104705 
L 551.987075 177.317234 
L 552.159141 177.170728 
L 552.494476 176.914342 
L 552.689333 176.877715 
L 553.010203 176.740366 
L 553.305962 176.520606 
L 553.391703 176.438196 
L 553.548498 176.282533 
L 553.651776 176.0994 
L 553.761807 175.952894 
L 553.872707 175.705665 
L 553.976234 175.540845 
L 554.196474 175.321086 
L 554.60381 175.183736 
L 554.735032 174.991447 
L 554.82889 174.87241 
L 554.937126 174.643494 
L 555.076283 174.405421 
L 555.187332 174.240602 
L 555.439291 173.736986 
L 555.599772 173.59048 
L 555.711118 173.462287 
L 556.596323 172.720599 
L 556.692072 172.455056 
L 556.813353 172.290237 
L 557.175747 171.621802 
L 557.689809 171.328789 
L 557.93347 171.182283 
L 558.072538 170.980836 
L 558.179007 170.77939 
L 558.746339 169.946136 
L 558.85978 169.763003 
L 559.075414 169.479147 
L 559.653409 169.167821 
L 559.758542 168.929748 
L 559.886621 168.664206 
L 559.992571 168.435289 
L 560.368007 167.895047 
L 560.680784 167.318179 
L 561.204264 167.061793 
L 561.310606 166.896973 
L 561.43664 166.722997 
L 562.330108 165.038174 
L 562.488586 164.983235 
L 562.845182 164.836728 
L 562.845185 164.827572 
L 563.115071 164.699379 
L 563.203348 164.635282 
L 563.551903 164.433836 
L 563.637122 164.333113 
L 563.83904 164.195763 
L 563.8452 164.17745 
L 564.330558 164.0401 
L 564.621259 163.902751 
L 564.737307 163.774558 
L 564.842176 163.582268 
L 564.933712 163.399135 
L 565.045653 162.849737 
L 565.55817 162.272868 
L 566.397461 161.833349 
L 566.45931 161.750939 
L 566.653984 161.61359 
L 567.486081 160.826118 
L 567.781086 160.633829 
L 567.885528 160.496479 
L 569.063513 159.141296 
L 569.353876 158.994789 
L 569.447065 158.875753 
L 569.656837 158.674307 
L 570.005852 158.381294 
L 570.322914 158.015029 
L 570.420782 157.868522 
L 570.98514 157.584666 
L 571.104218 157.419847 
L 571.215451 157.255027 
L 571.324629 157.053581 
L 571.519944 156.696472 
L 571.650023 156.568279 
L 571.714876 156.421772 
L 571.810734 156.174543 
L 571.937071 156.000567 
L 572.044964 155.725868 
L 572.265881 155.570205 
L 572.615754 155.396228 
L 572.752265 155.194782 
L 573.00493 154.956709 
L 573.107359 154.65454 
L 573.264954 154.388997 
L 573.359705 154.242491 
L 573.561353 154.031888 
L 574.944842 152.804898 
L 575.055969 152.585139 
L 575.15912 152.447789 
L 575.270442 152.282969 
L 575.957569 151.999113 
L 576.068964 151.742727 
L 576.181317 151.678631 
L 576.404461 151.486341 
L 576.509572 151.367305 
L 576.988811 150.900316 
L 577.575962 150.680557 
L 577.664623 150.50658 
L 577.814532 150.341761 
L 577.917651 150.085375 
L 578.085577 149.911399 
L 578.186395 149.737422 
L 578.255971 149.600073 
L 578.364053 149.30706 
L 578.489432 149.123927 
L 578.601604 148.821758 
L 578.800036 148.647782 
L 579.161277 148.437179 
L 579.383817 148.153323 
L 579.489275 147.94272 
L 579.63916 147.777901 
L 579.978562 146.624163 
L 580.085792 146.431874 
L 580.225152 146.257898 
L 580.358596 146.120548 
L 581.845761 145.644402 
L 581.920095 145.525366 
L 582.400787 145.360546 
L 582.563674 145.168257 
L 582.663702 145.076691 
L 583.049354 144.646328 
L 583.157328 144.499822 
L 583.441174 144.335002 
L 584.153127 144.023676 
L 584.238689 143.813074 
L 584.401167 143.675724 
L 584.499896 143.520061 
L 584.802489 143.254518 
L 584.919178 142.952349 
L 585.064974 142.796686 
L 585.160504 142.56777 
L 585.555239 142.45789 
L 585.75412 142.329697 
L 586.923734 141.17596 
L 587.070342 141.038611 
L 587.563297 140.654031 
L 587.665558 140.525838 
L 587.994957 140.296922 
L 588.101392 140.205356 
L 588.748589 139.78415 
L 589.137619 139.628487 
L 589.242548 139.546078 
L 589.403656 139.381258 
L 589.50694 139.280535 
L 589.800886 139.097402 
L 589.89925 139.042462 
L 590.637774 138.731136 
L 591.024571 138.50222 
L 591.480868 138.383184 
L 591.591941 138.291617 
L 592.026151 138.053545 
L 592.199095 137.916195 
L 592.306882 137.833785 
L 592.443352 137.668966 
L 592.554021 137.476676 
L 592.766245 136.936434 
L 592.878674 136.432819 
L 593.011798 136.231372 
L 593.113348 135.93836 
L 593.301504 135.74607 
L 593.404125 135.645347 
L 593.970772 135.480528 
L 594.076315 135.370648 
L 594.237732 135.150888 
L 594.34933 134.949442 
L 594.510184 134.793779 
L 594.612131 134.619803 
L 594.86969 134.390887 
L 594.980901 134.281007 
L 595.592729 133.905585 
L 595.796357 133.759079 
L 595.894615 133.649199 
L 596.139914 133.447753 
L 596.231452 133.365343 
L 596.468643 133.15474 
L 596.613085 132.98992 
L 597.25795 132.733534 
L 597.359142 132.669438 
L 597.749952 132.449678 
L 597.859493 132.248232 
L 597.975004 132.110883 
L 598.079579 131.827027 
L 598.203161 131.643894 
L 598.312318 131.506544 
L 598.970595 131.186062 
L 599.470429 130.883892 
L 599.619849 130.746543 
L 599.708749 130.64582 
L 599.738489 130.526783 
L 599.829786 130.279554 
L 599.979753 130.123891 
L 601.060107 129.08919 
L 601.167827 129.025094 
L 601.248074 128.851117 
L 601.359715 128.677141 
L 602.644113 127.88967 
L 602.750522 127.83473 
L 602.925458 127.5875 
L 603.00633 127.321958 
L 603.13444 127.175451 
L 603.245715 127.083885 
L 603.841773 126.671836 
L 603.968004 126.571113 
L 604.161175 126.36051 
L 604.255303 126.22316 
L 604.469546 126.049184 
L 604.573047 125.866051 
L 605.450877 125.289183 
L 605.555917 125.151833 
L 605.70371 125.014483 
L 605.956977 124.767254 
L 606.065086 124.657374 
L 606.189374 124.474241 
L 606.299375 124.281952 
L 606.860169 123.988939 
L 607.076471 123.860746 
L 607.187217 123.650144 
L 607.780178 123.384601 
L 608.437265 123.146528 
L 608.926639 123.009178 
L 609.040848 122.633756 
L 609.242055 122.48725 
L 609.340094 122.24002 
L 609.766044 121.919538 
L 610.623151 121.168693 
L 610.729821 121.0405 
L 611.003981 120.765801 
L 611.090385 120.600981 
L 611.295881 120.445318 
L 611.404927 120.335438 
L 611.473855 120.298812 
L 611.911411 120.161462 
L 611.99696 120.014956 
L 612.245809 119.822666 
L 612.786215 119.319051 
L 613.117799 118.925315 
L 613.57707 118.742182 
L 613.640053 118.604833 
L 614.163544 118.101217 
L 614.299069 117.973024 
L 614.424337 117.689168 
L 615.219046 117.176396 
L 615.5104 117.011577 
L 615.684234 116.874227 
L 615.790186 116.746034 
L 615.897965 116.608684 
L 616.00779 116.507961 
L 616.145494 116.425551 
L 616.530169 116.224105 
L 616.860397 116.031816 
L 617.374042 115.63808 
L 617.480425 115.509887 
L 618.058753 114.997115 
L 618.595689 114.786512 
L 618.705339 114.704102 
L 618.892253 114.429403 
L 619.211298 114.237113 
L 619.319069 114.081451 
L 619.40576 113.962414 
L 620.259233 113.614462 
L 620.443172 113.467955 
L 620.834077 113.257353 
L 621.083041 113.01928 
L 621.180433 112.891087 
L 621.536085 112.634701 
L 621.769632 112.497351 
L 622.038923 112.240965 
L 622.274043 112.057832 
L 622.359893 111.902169 
L 622.580912 111.755663 
L 622.613573 111.618313 
L 622.636364 111.6 
L 622.636364 111.6 
" style="fill:none;stroke:#92c6ff;stroke-linecap:round;stroke-width:1.5;"/>
   </g>
   <g id="line2d_26">
    <defs>
     <path d="M 0 2.5 
C 0.663008 2.5 1.29895 2.236584 1.767767 1.767767 
C 2.236584 1.29895 2.5 0.663008 2.5 0 
C 2.5 -0.663008 2.236584 -1.29895 1.767767 -1.767767 
C 1.29895 -2.236584 0.663008 -2.5 0 -2.5 
C -0.663008 -2.5 -1.29895 -2.236584 -1.767767 -1.767767 
C -2.236584 -1.29895 -2.5 -0.663008 -2.5 0 
C -2.5 0.663008 -2.236584 1.29895 -1.767767 1.767767 
C -1.29895 2.236584 -0.663008 2.5 0 2.5 
z
" id="mbd57db6f4a" style="stroke:#696969;"/>
    </defs>
    <g clip-path="url(#p0f765e8fc6)">
     <use style="fill:#696969;stroke:#696969;" x="115.363636" xlink:href="#mbd57db6f4a" y="615.6"/>
    </g>
   </g>
   <g id="line2d_27">
    <g clip-path="url(#p0f765e8fc6)">
     <use style="fill:#696969;stroke:#696969;" x="198.127622" xlink:href="#mbd57db6f4a" y="565.192675"/>
    </g>
   </g>
   <g id="line2d_28">
    <g clip-path="url(#p0f765e8fc6)">
     <use style="fill:#696969;stroke:#696969;" x="242.46324" xlink:href="#mbd57db6f4a" y="514.785349"/>
    </g>
   </g>
   <g id="line2d_29">
    <g clip-path="url(#p0f765e8fc6)">
     <use style="fill:#696969;stroke:#696969;" x="291.862882" xlink:href="#mbd57db6f4a" y="464.378024"/>
    </g>
   </g>
   <g id="line2d_30">
    <g clip-path="url(#p0f765e8fc6)">
     <use style="fill:#696969;stroke:#696969;" x="331.1842" xlink:href="#mbd57db6f4a" y="413.979855"/>
    </g>
   </g>
   <g id="line2d_31">
    <g clip-path="url(#p0f765e8fc6)">
     <use style="fill:#696969;stroke:#696969;" x="375.579851" xlink:href="#mbd57db6f4a" y="363.581687"/>
    </g>
   </g>
   <g id="line2d_32">
    <g clip-path="url(#p0f765e8fc6)">
     <use style="fill:#696969;stroke:#696969;" x="416.608429" xlink:href="#mbd57db6f4a" y="313.183518"/>
    </g>
   </g>
   <g id="line2d_33">
    <g clip-path="url(#p0f765e8fc6)">
     <use style="fill:#696969;stroke:#696969;" x="463.584816" xlink:href="#mbd57db6f4a" y="262.785349"/>
    </g>
   </g>
   <g id="line2d_34">
    <g clip-path="url(#p0f765e8fc6)">
     <use style="fill:#696969;stroke:#696969;" x="518.06773" xlink:href="#mbd57db6f4a" y="212.387181"/>
    </g>
   </g>
   <g id="line2d_35">
    <g clip-path="url(#p0f765e8fc6)">
     <use style="fill:#696969;stroke:#696969;" x="566.202426" xlink:href="#mbd57db6f4a" y="161.989012"/>
    </g>
   </g>
   <g id="line2d_36">
    <g clip-path="url(#p0f765e8fc6)">
     <use style="fill:#696969;stroke:#696969;" x="622.636364" xlink:href="#mbd57db6f4a" y="111.6"/>
    </g>
   </g>
   <g id="patch_3">
    <path d="M 90 640.8 
L 90 86.4 
" style="fill:none;stroke:#cccccc;stroke-linecap:square;stroke-linejoin:miter;"/>
   </g>
   <g id="patch_4">
    <path d="M 648 640.8 
L 648 86.4 
" style="fill:none;stroke:#cccccc;stroke-linecap:square;stroke-linejoin:miter;"/>
   </g>
   <g id="patch_5">
    <path d="M 90 640.8 
L 648 640.8 
" style="fill:none;stroke:#cccccc;stroke-linecap:square;stroke-linejoin:miter;"/>
   </g>
   <g id="patch_6">
    <path d="M 90 86.4 
L 648 86.4 
" style="fill:none;stroke:#cccccc;stroke-linecap:square;stroke-linejoin:miter;"/>
   </g>
   <g id="text_13">
    <!-- 1 (2014-06-07) -->
    <defs>
     <path id="DejaVuSans-32"/>
     <path d="M 31 75.875 
Q 24.46875 64.65625 21.28125 53.65625 
Q 18.109375 42.671875 18.109375 31.390625 
Q 18.109375 20.125 21.3125 9.0625 
Q 24.515625 -2 31 -13.1875 
L 23.1875 -13.1875 
Q 15.875 -1.703125 12.234375 9.375 
Q 8.59375 20.453125 8.59375 31.390625 
Q 8.59375 42.28125 12.203125 53.3125 
Q 15.828125 64.359375 23.1875 75.875 
z
" id="DejaVuSans-40"/>
     <path d="M 4.890625 31.390625 
L 31.203125 31.390625 
L 31.203125 23.390625 
L 4.890625 23.390625 
z
" id="DejaVuSans-45"/>
     <path d="M 8.015625 75.875 
L 15.828125 75.875 
Q 23.140625 64.359375 26.78125 53.3125 
Q 30.421875 42.28125 30.421875 31.390625 
Q 30.421875 20.453125 26.78125 9.375 
Q 23.140625 -1.703125 15.828125 -13.1875 
L 8.015625 -13.1875 
Q 14.5 -2 17.703125 9.0625 
Q 20.90625 20.125 20.90625 31.390625 
Q 20.90625 42.671875 17.703125 53.65625 
Q 14.5 64.65625 8.015625 75.875 
z
" id="DejaVuSans-41"/>
    </defs>
    <g style="fill:#262626;" transform="translate(120.363636 623.198437)scale(0.1 -0.1)">
     <use xlink:href="#DejaVuSans-49"/>
     <use x="63.623047" xlink:href="#DejaVuSans-32"/>
     <use x="95.410156" xlink:href="#DejaVuSans-40"/>
     <use x="134.423828" xlink:href="#DejaVuSans-50"/>
     <use x="198.046875" xlink:href="#DejaVuSans-48"/>
     <use x="261.669922" xlink:href="#DejaVuSans-49"/>
     <use x="325.292969" xlink:href="#DejaVuSans-52"/>
     <use x="388.916016" xlink:href="#DejaVuSans-45"/>
     <use x="425" xlink:href="#DejaVuSans-48"/>
     <use x="488.623047" xlink:href="#DejaVuSans-54"/>
     <use x="552.246094" xlink:href="#DejaVuSans-45"/>
     <use x="588.330078" xlink:href="#DejaVuSans-48"/>
     <use x="651.953125" xlink:href="#DejaVuSans-55"/>
     <use x="715.576172" xlink:href="#DejaVuSans-41"/>
    </g>
   </g>
   <g id="text_14">
    <!-- 5506 (2015-05-27) -->
    <g style="fill:#262626;" transform="translate(203.127622 572.791112)scale(0.1 -0.1)">
     <use xlink:href="#DejaVuSans-53"/>
     <use x="63.623047" xlink:href="#DejaVuSans-53"/>
     <use x="127.246094" xlink:href="#DejaVuSans-48"/>
     <use x="190.869141" xlink:href="#DejaVuSans-54"/>
     <use x="254.492188" xlink:href="#DejaVuSans-32"/>
     <use x="286.279297" xlink:href="#DejaVuSans-40"/>
     <use x="325.292969" xlink:href="#DejaVuSans-50"/>
     <use x="388.916016" xlink:href="#DejaVuSans-48"/>
     <use x="452.539062" xlink:href="#DejaVuSans-49"/>
     <use x="516.162109" xlink:href="#DejaVuSans-53"/>
     <use x="579.785156" xlink:href="#DejaVuSans-45"/>
     <use x="615.869141" xlink:href="#DejaVuSans-48"/>
     <use x="679.492188" xlink:href="#DejaVuSans-53"/>
     <use x="743.115234" xlink:href="#DejaVuSans-45"/>
     <use x="779.199219" xlink:href="#DejaVuSans-50"/>
     <use x="842.822266" xlink:href="#DejaVuSans-55"/>
     <use x="906.445312" xlink:href="#DejaVuSans-41"/>
    </g>
   </g>
   <g id="text_15">
    <!-- 11011 (2015-12-02) -->
    <g style="fill:#262626;" transform="translate(247.46324 522.383787)scale(0.1 -0.1)">
     <use xlink:href="#DejaVuSans-49"/>
     <use x="63.623047" xlink:href="#DejaVuSans-49"/>
     <use x="127.246094" xlink:href="#DejaVuSans-48"/>
     <use x="190.869141" xlink:href="#DejaVuSans-49"/>
     <use x="254.492188" xlink:href="#DejaVuSans-49"/>
     <use x="318.115234" xlink:href="#DejaVuSans-32"/>
     <use x="349.902344" xlink:href="#DejaVuSans-40"/>
     <use x="388.916016" xlink:href="#DejaVuSans-50"/>
     <use x="452.539062" xlink:href="#DejaVuSans-48"/>
     <use x="516.162109" xlink:href="#DejaVuSans-49"/>
     <use x="579.785156" xlink:href="#DejaVuSans-53"/>
     <use x="643.408203" xlink:href="#DejaVuSans-45"/>
     <use x="679.492188" xlink:href="#DejaVuSans-49"/>
     <use x="743.115234" xlink:href="#DejaVuSans-50"/>
     <use x="806.738281" xlink:href="#DejaVuSans-45"/>
     <use x="842.822266" xlink:href="#DejaVuSans-48"/>
     <use x="906.445312" xlink:href="#DejaVuSans-50"/>
     <use x="970.068359" xlink:href="#DejaVuSans-41"/>
    </g>
   </g>
   <g id="text_16">
    <!-- 16516 (2016-06-30) -->
    <g style="fill:#262626;" transform="translate(296.862882 471.976462)scale(0.1 -0.1)">
     <use xlink:href="#DejaVuSans-49"/>
     <use x="63.623047" xlink:href="#DejaVuSans-54"/>
     <use x="127.246094" xlink:href="#DejaVuSans-53"/>
     <use x="190.869141" xlink:href="#DejaVuSans-49"/>
     <use x="254.492188" xlink:href="#DejaVuSans-54"/>
     <use x="318.115234" xlink:href="#DejaVuSans-32"/>
     <use x="349.902344" xlink:href="#DejaVuSans-40"/>
     <use x="388.916016" xlink:href="#DejaVuSans-50"/>
     <use x="452.539062" xlink:href="#DejaVuSans-48"/>
     <use x="516.162109" xlink:href="#DejaVuSans-49"/>
     <use x="579.785156" xlink:href="#DejaVuSans-54"/>
     <use x="643.408203" xlink:href="#DejaVuSans-45"/>
     <use x="679.492188" xlink:href="#DejaVuSans-48"/>
     <use x="743.115234" xlink:href="#DejaVuSans-54"/>
     <use x="806.738281" xlink:href="#DejaVuSans-45"/>
     <use x="842.822266" xlink:href="#DejaVuSans-51"/>
     <use x="906.445312" xlink:href="#DejaVuSans-48"/>
     <use x="970.068359" xlink:href="#DejaVuSans-41"/>
    </g>
   </g>
   <g id="text_17">
    <!-- 22020 (2016-12-16) -->
    <g style="fill:#262626;" transform="translate(336.1842 421.578293)scale(0.1 -0.1)">
     <use xlink:href="#DejaVuSans-50"/>
     <use x="63.623047" xlink:href="#DejaVuSans-50"/>
     <use x="127.246094" xlink:href="#DejaVuSans-48"/>
     <use x="190.869141" xlink:href="#DejaVuSans-50"/>
     <use x="254.492188" xlink:href="#DejaVuSans-48"/>
     <use x="318.115234" xlink:href="#DejaVuSans-32"/>
     <use x="349.902344" xlink:href="#DejaVuSans-40"/>
     <use x="388.916016" xlink:href="#DejaVuSans-50"/>
     <use x="452.539062" xlink:href="#DejaVuSans-48"/>
     <use x="516.162109" xlink:href="#DejaVuSans-49"/>
     <use x="579.785156" xlink:href="#DejaVuSans-54"/>
     <use x="643.408203" xlink:href="#DejaVuSans-45"/>
     <use x="679.492188" xlink:href="#DejaVuSans-49"/>
     <use x="743.115234" xlink:href="#DejaVuSans-50"/>
     <use x="806.738281" xlink:href="#DejaVuSans-45"/>
     <use x="842.822266" xlink:href="#DejaVuSans-49"/>
     <use x="906.445312" xlink:href="#DejaVuSans-54"/>
     <use x="970.068359" xlink:href="#DejaVuSans-41"/>
    </g>
   </g>
   <g id="text_18">
    <!-- 27524 (2017-06-23) -->
    <g style="fill:#262626;" transform="translate(380.579851 371.180124)scale(0.1 -0.1)">
     <use xlink:href="#DejaVuSans-50"/>
     <use x="63.623047" xlink:href="#DejaVuSans-55"/>
     <use x="127.246094" xlink:href="#DejaVuSans-53"/>
     <use x="190.869141" xlink:href="#DejaVuSans-50"/>
     <use x="254.492188" xlink:href="#DejaVuSans-52"/>
     <use x="318.115234" xlink:href="#DejaVuSans-32"/>
     <use x="349.902344" xlink:href="#DejaVuSans-40"/>
     <use x="388.916016" xlink:href="#DejaVuSans-50"/>
     <use x="452.539062" xlink:href="#DejaVuSans-48"/>
     <use x="516.162109" xlink:href="#DejaVuSans-49"/>
     <use x="579.785156" xlink:href="#DejaVuSans-55"/>
     <use x="643.408203" xlink:href="#DejaVuSans-45"/>
     <use x="679.492188" xlink:href="#DejaVuSans-48"/>
     <use x="743.115234" xlink:href="#DejaVuSans-54"/>
     <use x="806.738281" xlink:href="#DejaVuSans-45"/>
     <use x="842.822266" xlink:href="#DejaVuSans-50"/>
     <use x="906.445312" xlink:href="#DejaVuSans-51"/>
     <use x="970.068359" xlink:href="#DejaVuSans-41"/>
    </g>
   </g>
   <g id="text_19">
    <!-- 33028 (2017-12-16) -->
    <g style="fill:#262626;" transform="translate(421.608429 320.781956)scale(0.1 -0.1)">
     <use xlink:href="#DejaVuSans-51"/>
     <use x="63.623047" xlink:href="#DejaVuSans-51"/>
     <use x="127.246094" xlink:href="#DejaVuSans-48"/>
     <use x="190.869141" xlink:href="#DejaVuSans-50"/>
     <use x="254.492188" xlink:href="#DejaVuSans-56"/>
     <use x="318.115234" xlink:href="#DejaVuSans-32"/>
     <use x="349.902344" xlink:href="#DejaVuSans-40"/>
     <use x="388.916016" xlink:href="#DejaVuSans-50"/>
     <use x="452.539062" xlink:href="#DejaVuSans-48"/>
     <use x="516.162109" xlink:href="#DejaVuSans-49"/>
     <use x="579.785156" xlink:href="#DejaVuSans-55"/>
     <use x="643.408203" xlink:href="#DejaVuSans-45"/>
     <use x="679.492188" xlink:href="#DejaVuSans-49"/>
     <use x="743.115234" xlink:href="#DejaVuSans-50"/>
     <use x="806.738281" xlink:href="#DejaVuSans-45"/>
     <use x="842.822266" xlink:href="#DejaVuSans-49"/>
     <use x="906.445312" xlink:href="#DejaVuSans-54"/>
     <use x="970.068359" xlink:href="#DejaVuSans-41"/>
    </g>
   </g>
   <g id="text_20">
    <!-- 38532 (2018-07-05) -->
    <g style="fill:#262626;" transform="translate(468.584816 270.383787)scale(0.1 -0.1)">
     <use xlink:href="#DejaVuSans-51"/>
     <use x="63.623047" xlink:href="#DejaVuSans-56"/>
     <use x="127.246094" xlink:href="#DejaVuSans-53"/>
     <use x="190.869141" xlink:href="#DejaVuSans-51"/>
     <use x="254.492188" xlink:href="#DejaVuSans-50"/>
     <use x="318.115234" xlink:href="#DejaVuSans-32"/>
     <use x="349.902344" xlink:href="#DejaVuSans-40"/>
     <use x="388.916016" xlink:href="#DejaVuSans-50"/>
     <use x="452.539062" xlink:href="#DejaVuSans-48"/>
     <use x="516.162109" xlink:href="#DejaVuSans-49"/>
     <use x="579.785156" xlink:href="#DejaVuSans-56"/>
     <use x="643.408203" xlink:href="#DejaVuSans-45"/>
     <use x="679.492188" xlink:href="#DejaVuSans-48"/>
     <use x="743.115234" xlink:href="#DejaVuSans-55"/>
     <use x="806.738281" xlink:href="#DejaVuSans-45"/>
     <use x="842.822266" xlink:href="#DejaVuSans-48"/>
     <use x="906.445312" xlink:href="#DejaVuSans-53"/>
     <use x="970.068359" xlink:href="#DejaVuSans-41"/>
    </g>
   </g>
   <g id="text_21">
    <!-- 44036 (2019-02-23) -->
    <g style="fill:#262626;" transform="translate(523.06773 219.985618)scale(0.1 -0.1)">
     <use xlink:href="#DejaVuSans-52"/>
     <use x="63.623047" xlink:href="#DejaVuSans-52"/>
     <use x="127.246094" xlink:href="#DejaVuSans-48"/>
     <use x="190.869141" xlink:href="#DejaVuSans-51"/>
     <use x="254.492188" xlink:href="#DejaVuSans-54"/>
     <use x="318.115234" xlink:href="#DejaVuSans-32"/>
     <use x="349.902344" xlink:href="#DejaVuSans-40"/>
     <use x="388.916016" xlink:href="#DejaVuSans-50"/>
     <use x="452.539062" xlink:href="#DejaVuSans-48"/>
     <use x="516.162109" xlink:href="#DejaVuSans-49"/>
     <use x="579.785156" xlink:href="#DejaVuSans-57"/>
     <use x="643.408203" xlink:href="#DejaVuSans-45"/>
     <use x="679.492188" xlink:href="#DejaVuSans-48"/>
     <use x="743.115234" xlink:href="#DejaVuSans-50"/>
     <use x="806.738281" xlink:href="#DejaVuSans-45"/>
     <use x="842.822266" xlink:href="#DejaVuSans-50"/>
     <use x="906.445312" xlink:href="#DejaVuSans-51"/>
     <use x="970.068359" xlink:href="#DejaVuSans-41"/>
    </g>
   </g>
   <g id="text_22">
    <!-- 49540 (2019-09-17) -->
    <g style="fill:#262626;" transform="translate(571.202426 169.58745)scale(0.1 -0.1)">
     <use xlink:href="#DejaVuSans-52"/>
     <use x="63.623047" xlink:href="#DejaVuSans-57"/>
     <use x="127.246094" xlink:href="#DejaVuSans-53"/>
     <use x="190.869141" xlink:href="#DejaVuSans-52"/>
     <use x="254.492188" xlink:href="#DejaVuSans-48"/>
     <use x="318.115234" xlink:href="#DejaVuSans-32"/>
     <use x="349.902344" xlink:href="#DejaVuSans-40"/>
     <use x="388.916016" xlink:href="#DejaVuSans-50"/>
     <use x="452.539062" xlink:href="#DejaVuSans-48"/>
     <use x="516.162109" xlink:href="#DejaVuSans-49"/>
     <use x="579.785156" xlink:href="#DejaVuSans-57"/>
     <use x="643.408203" xlink:href="#DejaVuSans-45"/>
     <use x="679.492188" xlink:href="#DejaVuSans-48"/>
     <use x="743.115234" xlink:href="#DejaVuSans-57"/>
     <use x="806.738281" xlink:href="#DejaVuSans-45"/>
     <use x="842.822266" xlink:href="#DejaVuSans-49"/>
     <use x="906.445312" xlink:href="#DejaVuSans-55"/>
     <use x="970.068359" xlink:href="#DejaVuSans-41"/>
    </g>
   </g>
   <g id="text_23">
    <!-- 55043 (2020-05-15) -->
    <g style="fill:#262626;" transform="translate(627.636364 119.198437)scale(0.1 -0.1)">
     <use xlink:href="#DejaVuSans-53"/>
     <use x="63.623047" xlink:href="#DejaVuSans-53"/>
     <use x="127.246094" xlink:href="#DejaVuSans-48"/>
     <use x="190.869141" xlink:href="#DejaVuSans-52"/>
     <use x="254.492188" xlink:href="#DejaVuSans-51"/>
     <use x="318.115234" xlink:href="#DejaVuSans-32"/>
     <use x="349.902344" xlink:href="#DejaVuSans-40"/>
     <use x="388.916016" xlink:href="#DejaVuSans-50"/>
     <use x="452.539062" xlink:href="#DejaVuSans-48"/>
     <use x="516.162109" xlink:href="#DejaVuSans-50"/>
     <use x="579.785156" xlink:href="#DejaVuSans-48"/>
     <use x="643.408203" xlink:href="#DejaVuSans-45"/>
     <use x="679.492188" xlink:href="#DejaVuSans-48"/>
     <use x="743.115234" xlink:href="#DejaVuSans-53"/>
     <use x="806.738281" xlink:href="#DejaVuSans-45"/>
     <use x="842.822266" xlink:href="#DejaVuSans-49"/>
     <use x="906.445312" xlink:href="#DejaVuSans-53"/>
     <use x="970.068359" xlink:href="#DejaVuSans-41"/>
    </g>
   </g>
   <g id="text_24">
    <!-- Closed PRs over time -->
    <defs>
     <path d="M 64.40625 67.28125 
L 64.40625 56.890625 
Q 59.421875 61.53125 53.78125 63.8125 
Q 48.140625 66.109375 41.796875 66.109375 
Q 29.296875 66.109375 22.65625 58.46875 
Q 16.015625 50.828125 16.015625 36.375 
Q 16.015625 21.96875 22.65625 14.328125 
Q 29.296875 6.6875 41.796875 6.6875 
Q 48.140625 6.6875 53.78125 8.984375 
Q 59.421875 11.28125 64.40625 15.921875 
L 64.40625 5.609375 
Q 59.234375 2.09375 53.4375 0.328125 
Q 47.65625 -1.421875 41.21875 -1.421875 
Q 24.65625 -1.421875 15.125 8.703125 
Q 5.609375 18.84375 5.609375 36.375 
Q 5.609375 53.953125 15.125 64.078125 
Q 24.65625 74.21875 41.21875 74.21875 
Q 47.75 74.21875 53.53125 72.484375 
Q 59.328125 70.75 64.40625 67.28125 
z
" id="DejaVuSans-67"/>
     <path d="M 9.421875 75.984375 
L 18.40625 75.984375 
L 18.40625 0 
L 9.421875 0 
z
" id="DejaVuSans-108"/>
     <path d="M 30.609375 48.390625 
Q 23.390625 48.390625 19.1875 42.75 
Q 14.984375 37.109375 14.984375 27.296875 
Q 14.984375 17.484375 19.15625 11.84375 
Q 23.34375 6.203125 30.609375 6.203125 
Q 37.796875 6.203125 41.984375 11.859375 
Q 46.1875 17.53125 46.1875 27.296875 
Q 46.1875 37.015625 41.984375 42.703125 
Q 37.796875 48.390625 30.609375 48.390625 
z
M 30.609375 56 
Q 42.328125 56 49.015625 48.375 
Q 55.71875 40.765625 55.71875 27.296875 
Q 55.71875 13.875 49.015625 6.21875 
Q 42.328125 -1.421875 30.609375 -1.421875 
Q 18.84375 -1.421875 12.171875 6.21875 
Q 5.515625 13.875 5.515625 27.296875 
Q 5.515625 40.765625 12.171875 48.375 
Q 18.84375 56 30.609375 56 
z
" id="DejaVuSans-111"/>
     <path d="M 44.28125 53.078125 
L 44.28125 44.578125 
Q 40.484375 46.53125 36.375 47.5 
Q 32.28125 48.484375 27.875 48.484375 
Q 21.1875 48.484375 17.84375 46.4375 
Q 14.5 44.390625 14.5 40.28125 
Q 14.5 37.15625 16.890625 35.375 
Q 19.28125 33.59375 26.515625 31.984375 
L 29.59375 31.296875 
Q 39.15625 29.25 43.1875 25.515625 
Q 47.21875 21.78125 47.21875 15.09375 
Q 47.21875 7.46875 41.1875 3.015625 
Q 35.15625 -1.421875 24.609375 -1.421875 
Q 20.21875 -1.421875 15.453125 -0.5625 
Q 10.6875 0.296875 5.421875 2 
L 5.421875 11.28125 
Q 10.40625 8.6875 15.234375 7.390625 
Q 20.0625 6.109375 24.8125 6.109375 
Q 31.15625 6.109375 34.5625 8.28125 
Q 37.984375 10.453125 37.984375 14.40625 
Q 37.984375 18.0625 35.515625 20.015625 
Q 33.0625 21.96875 24.703125 23.78125 
L 21.578125 24.515625 
Q 13.234375 26.265625 9.515625 29.90625 
Q 5.8125 33.546875 5.8125 39.890625 
Q 5.8125 47.609375 11.28125 51.796875 
Q 16.75 56 26.8125 56 
Q 31.78125 56 36.171875 55.265625 
Q 40.578125 54.546875 44.28125 53.078125 
z
" id="DejaVuSans-115"/>
     <path d="M 56.203125 29.59375 
L 56.203125 25.203125 
L 14.890625 25.203125 
Q 15.484375 15.921875 20.484375 11.0625 
Q 25.484375 6.203125 34.421875 6.203125 
Q 39.59375 6.203125 44.453125 7.46875 
Q 49.3125 8.734375 54.109375 11.28125 
L 54.109375 2.78125 
Q 49.265625 0.734375 44.1875 -0.34375 
Q 39.109375 -1.421875 33.890625 -1.421875 
Q 20.796875 -1.421875 13.15625 6.1875 
Q 5.515625 13.8125 5.515625 26.8125 
Q 5.515625 40.234375 12.765625 48.109375 
Q 20.015625 56 32.328125 56 
Q 43.359375 56 49.78125 48.890625 
Q 56.203125 41.796875 56.203125 29.59375 
z
M 47.21875 32.234375 
Q 47.125 39.59375 43.09375 43.984375 
Q 39.0625 48.390625 32.421875 48.390625 
Q 24.90625 48.390625 20.390625 44.140625 
Q 15.875 39.890625 15.1875 32.171875 
z
" id="DejaVuSans-101"/>
     <path d="M 45.40625 46.390625 
L 45.40625 75.984375 
L 54.390625 75.984375 
L 54.390625 0 
L 45.40625 0 
L 45.40625 8.203125 
Q 42.578125 3.328125 38.25 0.953125 
Q 33.9375 -1.421875 27.875 -1.421875 
Q 17.96875 -1.421875 11.734375 6.484375 
Q 5.515625 14.40625 5.515625 27.296875 
Q 5.515625 40.1875 11.734375 48.09375 
Q 17.96875 56 27.875 56 
Q 33.9375 56 38.25 53.625 
Q 42.578125 51.265625 45.40625 46.390625 
z
M 14.796875 27.296875 
Q 14.796875 17.390625 18.875 11.75 
Q 22.953125 6.109375 30.078125 6.109375 
Q 37.203125 6.109375 41.296875 11.75 
Q 45.40625 17.390625 45.40625 27.296875 
Q 45.40625 37.203125 41.296875 42.84375 
Q 37.203125 48.484375 30.078125 48.484375 
Q 22.953125 48.484375 18.875 42.84375 
Q 14.796875 37.203125 14.796875 27.296875 
z
" id="DejaVuSans-100"/>
     <path d="M 19.671875 64.796875 
L 19.671875 37.40625 
L 32.078125 37.40625 
Q 38.96875 37.40625 42.71875 40.96875 
Q 46.484375 44.53125 46.484375 51.125 
Q 46.484375 57.671875 42.71875 61.234375 
Q 38.96875 64.796875 32.078125 64.796875 
z
M 9.8125 72.90625 
L 32.078125 72.90625 
Q 44.34375 72.90625 50.609375 67.359375 
Q 56.890625 61.8125 56.890625 51.125 
Q 56.890625 40.328125 50.609375 34.8125 
Q 44.34375 29.296875 32.078125 29.296875 
L 19.671875 29.296875 
L 19.671875 0 
L 9.8125 0 
z
" id="DejaVuSans-80"/>
     <path d="M 44.390625 34.1875 
Q 47.5625 33.109375 50.5625 29.59375 
Q 53.5625 26.078125 56.59375 19.921875 
L 66.609375 0 
L 56 0 
L 46.6875 18.703125 
Q 43.0625 26.03125 39.671875 28.421875 
Q 36.28125 30.8125 30.421875 30.8125 
L 19.671875 30.8125 
L 19.671875 0 
L 9.8125 0 
L 9.8125 72.90625 
L 32.078125 72.90625 
Q 44.578125 72.90625 50.734375 67.671875 
Q 56.890625 62.453125 56.890625 51.90625 
Q 56.890625 45.015625 53.6875 40.46875 
Q 50.484375 35.9375 44.390625 34.1875 
z
M 19.671875 64.796875 
L 19.671875 38.921875 
L 32.078125 38.921875 
Q 39.203125 38.921875 42.84375 42.21875 
Q 46.484375 45.515625 46.484375 51.90625 
Q 46.484375 58.296875 42.84375 61.546875 
Q 39.203125 64.796875 32.078125 64.796875 
z
" id="DejaVuSans-82"/>
     <path d="M 2.984375 54.6875 
L 12.5 54.6875 
L 29.59375 8.796875 
L 46.6875 54.6875 
L 56.203125 54.6875 
L 35.6875 0 
L 23.484375 0 
z
" id="DejaVuSans-118"/>
     <path d="M 41.109375 46.296875 
Q 39.59375 47.171875 37.8125 47.578125 
Q 36.03125 48 33.890625 48 
Q 26.265625 48 22.1875 43.046875 
Q 18.109375 38.09375 18.109375 28.8125 
L 18.109375 0 
L 9.078125 0 
L 9.078125 54.6875 
L 18.109375 54.6875 
L 18.109375 46.1875 
Q 20.953125 51.171875 25.484375 53.578125 
Q 30.03125 56 36.53125 56 
Q 37.453125 56 38.578125 55.875 
Q 39.703125 55.765625 41.0625 55.515625 
z
" id="DejaVuSans-114"/>
     <path d="M 18.3125 70.21875 
L 18.3125 54.6875 
L 36.8125 54.6875 
L 36.8125 47.703125 
L 18.3125 47.703125 
L 18.3125 18.015625 
Q 18.3125 11.328125 20.140625 9.421875 
Q 21.96875 7.515625 27.59375 7.515625 
L 36.8125 7.515625 
L 36.8125 0 
L 27.59375 0 
Q 17.1875 0 13.234375 3.875 
Q 9.28125 7.765625 9.28125 18.015625 
L 9.28125 47.703125 
L 2.6875 47.703125 
L 2.6875 54.6875 
L 9.28125 54.6875 
L 9.28125 70.21875 
z
" id="DejaVuSans-116"/>
     <path d="M 9.421875 54.6875 
L 18.40625 54.6875 
L 18.40625 0 
L 9.421875 0 
z
M 9.421875 75.984375 
L 18.40625 75.984375 
L 18.40625 64.59375 
L 9.421875 64.59375 
z
" id="DejaVuSans-105"/>
     <path d="M 52 44.1875 
Q 55.375 50.25 60.0625 53.125 
Q 64.75 56 71.09375 56 
Q 79.640625 56 84.28125 50.015625 
Q 88.921875 44.046875 88.921875 33.015625 
L 88.921875 0 
L 79.890625 0 
L 79.890625 32.71875 
Q 79.890625 40.578125 77.09375 44.375 
Q 74.3125 48.1875 68.609375 48.1875 
Q 61.625 48.1875 57.5625 43.546875 
Q 53.515625 38.921875 53.515625 30.90625 
L 53.515625 0 
L 44.484375 0 
L 44.484375 32.71875 
Q 44.484375 40.625 41.703125 44.40625 
Q 38.921875 48.1875 33.109375 48.1875 
Q 26.21875 48.1875 22.15625 43.53125 
Q 18.109375 38.875 18.109375 30.90625 
L 18.109375 0 
L 9.078125 0 
L 9.078125 54.6875 
L 18.109375 54.6875 
L 18.109375 46.1875 
Q 21.1875 51.21875 25.484375 53.609375 
Q 29.78125 56 35.6875 56 
Q 41.65625 56 45.828125 52.96875 
Q 50 49.953125 52 44.1875 
z
" id="DejaVuSans-109"/>
    </defs>
    <g style="fill:#262626;" transform="translate(305.27625 80.4)scale(0.12 -0.12)">
     <use xlink:href="#DejaVuSans-67"/>
     <use x="69.824219" xlink:href="#DejaVuSans-108"/>
     <use x="97.607422" xlink:href="#DejaVuSans-111"/>
     <use x="158.789062" xlink:href="#DejaVuSans-115"/>
     <use x="210.888672" xlink:href="#DejaVuSans-101"/>
     <use x="272.412109" xlink:href="#DejaVuSans-100"/>
     <use x="335.888672" xlink:href="#DejaVuSans-32"/>
     <use x="367.675781" xlink:href="#DejaVuSans-80"/>
     <use x="427.978516" xlink:href="#DejaVuSans-82"/>
     <use x="497.460938" xlink:href="#DejaVuSans-115"/>
     <use x="549.560547" xlink:href="#DejaVuSans-32"/>
     <use x="581.347656" xlink:href="#DejaVuSans-111"/>
     <use x="642.529297" xlink:href="#DejaVuSans-118"/>
     <use x="701.708984" xlink:href="#DejaVuSans-101"/>
     <use x="763.232422" xlink:href="#DejaVuSans-114"/>
     <use x="804.345703" xlink:href="#DejaVuSans-32"/>
     <use x="836.132812" xlink:href="#DejaVuSans-116"/>
     <use x="875.341797" xlink:href="#DejaVuSans-105"/>
     <use x="903.125" xlink:href="#DejaVuSans-109"/>
     <use x="1000.537109" xlink:href="#DejaVuSans-101"/>
    </g>
   </g>
  </g>
 </g>
 <defs>
  <clipPath id="p0f765e8fc6">
   <rect height="554.4" width="558" x="90" y="86.4"/>
  </clipPath>
 </defs>
</svg>
