<?xml version="1.0" encoding="utf-8" standalone="no"?>
<!DOCTYPE svg PUBLIC "-//W3C//DTD SVG 1.1//EN"
  "http://www.w3.org/Graphics/SVG/1.1/DTD/svg11.dtd">
<!-- Created with matplotlib (https://matplotlib.org/) -->
<svg height="720pt" version="1.1" viewBox="0 0 720 720" width="720pt" xmlns="http://www.w3.org/2000/svg" xmlns:xlink="http://www.w3.org/1999/xlink">
 <defs>
  <style type="text/css">
*{stroke-linecap:butt;stroke-linejoin:round;}
  </style>
 </defs>
 <g id="figure_1">
  <g id="patch_1">
   <path d="M 0 720 
L 720 720 
L 720 0 
L 0 0 
z
" style="fill:#ffffff;"/>
  </g>
  <g id="axes_1">
   <g id="patch_2">
    <path d="M 90 640.8 
L 648 640.8 
L 648 86.4 
L 90 86.4 
z
" style="fill:#ffffff;"/>
   </g>
   <g id="matplotlib.axis_1">
    <g id="xtick_1">
     <g id="line2d_1">
      <path clip-path="url(#p7a5383163b)" d="M 163.379922 640.8 
L 163.379922 86.4 
" style="fill:none;stroke:#cccccc;stroke-linecap:round;stroke-width:0.8;"/>
     </g>
     <g id="line2d_2"/>
     <g id="text_1">
      <!-- 2015 -->
      <defs>
       <path d="M 19.1875 8.296875 
L 53.609375 8.296875 
L 53.609375 0 
L 7.328125 0 
L 7.328125 8.296875 
Q 12.9375 14.109375 22.625 23.890625 
Q 32.328125 33.6875 34.8125 36.53125 
Q 39.546875 41.84375 41.421875 45.53125 
Q 43.3125 49.21875 43.3125 52.78125 
Q 43.3125 58.59375 39.234375 62.25 
Q 35.15625 65.921875 28.609375 65.921875 
Q 23.96875 65.921875 18.8125 64.3125 
Q 13.671875 62.703125 7.8125 59.421875 
L 7.8125 69.390625 
Q 13.765625 71.78125 18.9375 73 
Q 24.125 74.21875 28.421875 74.21875 
Q 39.75 74.21875 46.484375 68.546875 
Q 53.21875 62.890625 53.21875 53.421875 
Q 53.21875 48.921875 51.53125 44.890625 
Q 49.859375 40.875 45.40625 35.40625 
Q 44.1875 33.984375 37.640625 27.21875 
Q 31.109375 20.453125 19.1875 8.296875 
z
" id="DejaVuSans-50"/>
       <path d="M 31.78125 66.40625 
Q 24.171875 66.40625 20.328125 58.90625 
Q 16.5 51.421875 16.5 36.375 
Q 16.5 21.390625 20.328125 13.890625 
Q 24.171875 6.390625 31.78125 6.390625 
Q 39.453125 6.390625 43.28125 13.890625 
Q 47.125 21.390625 47.125 36.375 
Q 47.125 51.421875 43.28125 58.90625 
Q 39.453125 66.40625 31.78125 66.40625 
z
M 31.78125 74.21875 
Q 44.046875 74.21875 50.515625 64.515625 
Q 56.984375 54.828125 56.984375 36.375 
Q 56.984375 17.96875 50.515625 8.265625 
Q 44.046875 -1.421875 31.78125 -1.421875 
Q 19.53125 -1.421875 13.0625 8.265625 
Q 6.59375 17.96875 6.59375 36.375 
Q 6.59375 54.828125 13.0625 64.515625 
Q 19.53125 74.21875 31.78125 74.21875 
z
" id="DejaVuSans-48"/>
       <path d="M 12.40625 8.296875 
L 28.515625 8.296875 
L 28.515625 63.921875 
L 10.984375 60.40625 
L 10.984375 69.390625 
L 28.421875 72.90625 
L 38.28125 72.90625 
L 38.28125 8.296875 
L 54.390625 8.296875 
L 54.390625 0 
L 12.40625 0 
z
" id="DejaVuSans-49"/>
       <path d="M 10.796875 72.90625 
L 49.515625 72.90625 
L 49.515625 64.59375 
L 19.828125 64.59375 
L 19.828125 46.734375 
Q 21.96875 47.46875 24.109375 47.828125 
Q 26.265625 48.1875 28.421875 48.1875 
Q 40.625 48.1875 47.75 41.5 
Q 54.890625 34.8125 54.890625 23.390625 
Q 54.890625 11.625 47.5625 5.09375 
Q 40.234375 -1.421875 26.90625 -1.421875 
Q 22.3125 -1.421875 17.546875 -0.640625 
Q 12.796875 0.140625 7.71875 1.703125 
L 7.71875 11.625 
Q 12.109375 9.234375 16.796875 8.0625 
Q 21.484375 6.890625 26.703125 6.890625 
Q 35.15625 6.890625 40.078125 11.328125 
Q 45.015625 15.765625 45.015625 23.390625 
Q 45.015625 31 40.078125 35.4375 
Q 35.15625 39.890625 26.703125 39.890625 
Q 22.75 39.890625 18.8125 39.015625 
Q 14.890625 38.140625 10.796875 36.28125 
z
" id="DejaVuSans-53"/>
      </defs>
      <g style="fill:#262626;" transform="translate(150.654922 651.898438)scale(0.1 -0.1)">
       <use xlink:href="#DejaVuSans-50"/>
       <use x="63.623047" xlink:href="#DejaVuSans-48"/>
       <use x="127.246094" xlink:href="#DejaVuSans-49"/>
       <use x="190.869141" xlink:href="#DejaVuSans-53"/>
      </g>
     </g>
    </g>
    <g id="xtick_2">
     <g id="line2d_3">
      <path clip-path="url(#p7a5383163b)" d="M 247.686204 640.8 
L 247.686204 86.4 
" style="fill:none;stroke:#cccccc;stroke-linecap:round;stroke-width:0.8;"/>
     </g>
     <g id="line2d_4"/>
     <g id="text_2">
      <!-- 2016 -->
      <defs>
       <path d="M 33.015625 40.375 
Q 26.375 40.375 22.484375 35.828125 
Q 18.609375 31.296875 18.609375 23.390625 
Q 18.609375 15.53125 22.484375 10.953125 
Q 26.375 6.390625 33.015625 6.390625 
Q 39.65625 6.390625 43.53125 10.953125 
Q 47.40625 15.53125 47.40625 23.390625 
Q 47.40625 31.296875 43.53125 35.828125 
Q 39.65625 40.375 33.015625 40.375 
z
M 52.59375 71.296875 
L 52.59375 62.3125 
Q 48.875 64.0625 45.09375 64.984375 
Q 41.3125 65.921875 37.59375 65.921875 
Q 27.828125 65.921875 22.671875 59.328125 
Q 17.53125 52.734375 16.796875 39.40625 
Q 19.671875 43.65625 24.015625 45.921875 
Q 28.375 48.1875 33.59375 48.1875 
Q 44.578125 48.1875 50.953125 41.515625 
Q 57.328125 34.859375 57.328125 23.390625 
Q 57.328125 12.15625 50.6875 5.359375 
Q 44.046875 -1.421875 33.015625 -1.421875 
Q 20.359375 -1.421875 13.671875 8.265625 
Q 6.984375 17.96875 6.984375 36.375 
Q 6.984375 53.65625 15.1875 63.9375 
Q 23.390625 74.21875 37.203125 74.21875 
Q 40.921875 74.21875 44.703125 73.484375 
Q 48.484375 72.75 52.59375 71.296875 
z
" id="DejaVuSans-54"/>
      </defs>
      <g style="fill:#262626;" transform="translate(234.961204 651.898438)scale(0.1 -0.1)">
       <use xlink:href="#DejaVuSans-50"/>
       <use x="63.623047" xlink:href="#DejaVuSans-48"/>
       <use x="127.246094" xlink:href="#DejaVuSans-49"/>
       <use x="190.869141" xlink:href="#DejaVuSans-54"/>
      </g>
     </g>
    </g>
    <g id="xtick_3">
     <g id="line2d_5">
      <path clip-path="url(#p7a5383163b)" d="M 332.223462 640.8 
L 332.223462 86.4 
" style="fill:none;stroke:#cccccc;stroke-linecap:round;stroke-width:0.8;"/>
     </g>
     <g id="line2d_6"/>
     <g id="text_3">
      <!-- 2017 -->
      <defs>
       <path d="M 8.203125 72.90625 
L 55.078125 72.90625 
L 55.078125 68.703125 
L 28.609375 0 
L 18.3125 0 
L 43.21875 64.59375 
L 8.203125 64.59375 
z
" id="DejaVuSans-55"/>
      </defs>
      <g style="fill:#262626;" transform="translate(319.498462 651.898438)scale(0.1 -0.1)">
       <use xlink:href="#DejaVuSans-50"/>
       <use x="63.623047" xlink:href="#DejaVuSans-48"/>
       <use x="127.246094" xlink:href="#DejaVuSans-49"/>
       <use x="190.869141" xlink:href="#DejaVuSans-55"/>
      </g>
     </g>
    </g>
    <g id="xtick_4">
     <g id="line2d_7">
      <path clip-path="url(#p7a5383163b)" d="M 416.529744 640.8 
L 416.529744 86.4 
" style="fill:none;stroke:#cccccc;stroke-linecap:round;stroke-width:0.8;"/>
     </g>
     <g id="line2d_8"/>
     <g id="text_4">
      <!-- 2018 -->
      <defs>
       <path d="M 31.78125 34.625 
Q 24.75 34.625 20.71875 30.859375 
Q 16.703125 27.09375 16.703125 20.515625 
Q 16.703125 13.921875 20.71875 10.15625 
Q 24.75 6.390625 31.78125 6.390625 
Q 38.8125 6.390625 42.859375 10.171875 
Q 46.921875 13.96875 46.921875 20.515625 
Q 46.921875 27.09375 42.890625 30.859375 
Q 38.875 34.625 31.78125 34.625 
z
M 21.921875 38.8125 
Q 15.578125 40.375 12.03125 44.71875 
Q 8.5 49.078125 8.5 55.328125 
Q 8.5 64.0625 14.71875 69.140625 
Q 20.953125 74.21875 31.78125 74.21875 
Q 42.671875 74.21875 48.875 69.140625 
Q 55.078125 64.0625 55.078125 55.328125 
Q 55.078125 49.078125 51.53125 44.71875 
Q 48 40.375 41.703125 38.8125 
Q 48.828125 37.15625 52.796875 32.3125 
Q 56.78125 27.484375 56.78125 20.515625 
Q 56.78125 9.90625 50.3125 4.234375 
Q 43.84375 -1.421875 31.78125 -1.421875 
Q 19.734375 -1.421875 13.25 4.234375 
Q 6.78125 9.90625 6.78125 20.515625 
Q 6.78125 27.484375 10.78125 32.3125 
Q 14.796875 37.15625 21.921875 38.8125 
z
M 18.3125 54.390625 
Q 18.3125 48.734375 21.84375 45.5625 
Q 25.390625 42.390625 31.78125 42.390625 
Q 38.140625 42.390625 41.71875 45.5625 
Q 45.3125 48.734375 45.3125 54.390625 
Q 45.3125 60.0625 41.71875 63.234375 
Q 38.140625 66.40625 31.78125 66.40625 
Q 25.390625 66.40625 21.84375 63.234375 
Q 18.3125 60.0625 18.3125 54.390625 
z
" id="DejaVuSans-56"/>
      </defs>
      <g style="fill:#262626;" transform="translate(403.804744 651.898438)scale(0.1 -0.1)">
       <use xlink:href="#DejaVuSans-50"/>
       <use x="63.623047" xlink:href="#DejaVuSans-48"/>
       <use x="127.246094" xlink:href="#DejaVuSans-49"/>
       <use x="190.869141" xlink:href="#DejaVuSans-56"/>
      </g>
     </g>
    </g>
    <g id="xtick_5">
     <g id="line2d_9">
      <path clip-path="url(#p7a5383163b)" d="M 500.836026 640.8 
L 500.836026 86.4 
" style="fill:none;stroke:#cccccc;stroke-linecap:round;stroke-width:0.8;"/>
     </g>
     <g id="line2d_10"/>
     <g id="text_5">
      <!-- 2019 -->
      <defs>
       <path d="M 10.984375 1.515625 
L 10.984375 10.5 
Q 14.703125 8.734375 18.5 7.8125 
Q 22.3125 6.890625 25.984375 6.890625 
Q 35.75 6.890625 40.890625 13.453125 
Q 46.046875 20.015625 46.78125 33.40625 
Q 43.953125 29.203125 39.59375 26.953125 
Q 35.25 24.703125 29.984375 24.703125 
Q 19.046875 24.703125 12.671875 31.3125 
Q 6.296875 37.9375 6.296875 49.421875 
Q 6.296875 60.640625 12.9375 67.421875 
Q 19.578125 74.21875 30.609375 74.21875 
Q 43.265625 74.21875 49.921875 64.515625 
Q 56.59375 54.828125 56.59375 36.375 
Q 56.59375 19.140625 48.40625 8.859375 
Q 40.234375 -1.421875 26.421875 -1.421875 
Q 22.703125 -1.421875 18.890625 -0.6875 
Q 15.09375 0.046875 10.984375 1.515625 
z
M 30.609375 32.421875 
Q 37.25 32.421875 41.125 36.953125 
Q 45.015625 41.5 45.015625 49.421875 
Q 45.015625 57.28125 41.125 61.84375 
Q 37.25 66.40625 30.609375 66.40625 
Q 23.96875 66.40625 20.09375 61.84375 
Q 16.21875 57.28125 16.21875 49.421875 
Q 16.21875 41.5 20.09375 36.953125 
Q 23.96875 32.421875 30.609375 32.421875 
z
" id="DejaVuSans-57"/>
      </defs>
      <g style="fill:#262626;" transform="translate(488.111026 651.898438)scale(0.1 -0.1)">
       <use xlink:href="#DejaVuSans-50"/>
       <use x="63.623047" xlink:href="#DejaVuSans-48"/>
       <use x="127.246094" xlink:href="#DejaVuSans-49"/>
       <use x="190.869141" xlink:href="#DejaVuSans-57"/>
      </g>
     </g>
    </g>
    <g id="xtick_6">
     <g id="line2d_11">
      <path clip-path="url(#p7a5383163b)" d="M 585.142308 640.8 
L 585.142308 86.4 
" style="fill:none;stroke:#cccccc;stroke-linecap:round;stroke-width:0.8;"/>
     </g>
     <g id="line2d_12"/>
     <g id="text_6">
      <!-- 2020 -->
      <g style="fill:#262626;" transform="translate(572.417308 651.898438)scale(0.1 -0.1)">
       <use xlink:href="#DejaVuSans-50"/>
       <use x="63.623047" xlink:href="#DejaVuSans-48"/>
       <use x="127.246094" xlink:href="#DejaVuSans-50"/>
       <use x="190.869141" xlink:href="#DejaVuSans-48"/>
      </g>
     </g>
    </g>
   </g>
   <g id="matplotlib.axis_2">
    <g id="ytick_1">
     <g id="line2d_13">
      <path clip-path="url(#p7a5383163b)" d="M 90 615.609063 
L 648 615.609063 
" style="fill:none;stroke:#cccccc;stroke-linecap:round;stroke-width:0.8;"/>
     </g>
     <g id="line2d_14"/>
     <g id="text_7">
      <!-- 0 -->
      <g style="fill:#262626;" transform="translate(80.1375 619.408282)scale(0.1 -0.1)">
       <use xlink:href="#DejaVuSans-48"/>
      </g>
     </g>
    </g>
    <g id="ytick_2">
     <g id="line2d_15">
      <path clip-path="url(#p7a5383163b)" d="M 90 524.981141 
L 648 524.981141 
" style="fill:none;stroke:#cccccc;stroke-linecap:round;stroke-width:0.8;"/>
     </g>
     <g id="line2d_16"/>
     <g id="text_8">
      <!-- 10000 -->
      <g style="fill:#262626;" transform="translate(54.6875 528.78036)scale(0.1 -0.1)">
       <use xlink:href="#DejaVuSans-49"/>
       <use x="63.623047" xlink:href="#DejaVuSans-48"/>
       <use x="127.246094" xlink:href="#DejaVuSans-48"/>
       <use x="190.869141" xlink:href="#DejaVuSans-48"/>
       <use x="254.492188" xlink:href="#DejaVuSans-48"/>
      </g>
     </g>
    </g>
    <g id="ytick_3">
     <g id="line2d_17">
      <path clip-path="url(#p7a5383163b)" d="M 90 434.353219 
L 648 434.353219 
" style="fill:none;stroke:#cccccc;stroke-linecap:round;stroke-width:0.8;"/>
     </g>
     <g id="line2d_18"/>
     <g id="text_9">
      <!-- 20000 -->
      <g style="fill:#262626;" transform="translate(54.6875 438.152437)scale(0.1 -0.1)">
       <use xlink:href="#DejaVuSans-50"/>
       <use x="63.623047" xlink:href="#DejaVuSans-48"/>
       <use x="127.246094" xlink:href="#DejaVuSans-48"/>
       <use x="190.869141" xlink:href="#DejaVuSans-48"/>
       <use x="254.492188" xlink:href="#DejaVuSans-48"/>
      </g>
     </g>
    </g>
    <g id="ytick_4">
     <g id="line2d_19">
      <path clip-path="url(#p7a5383163b)" d="M 90 343.725297 
L 648 343.725297 
" style="fill:none;stroke:#cccccc;stroke-linecap:round;stroke-width:0.8;"/>
     </g>
     <g id="line2d_20"/>
     <g id="text_10">
      <!-- 30000 -->
      <defs>
       <path d="M 40.578125 39.3125 
Q 47.65625 37.796875 51.625 33 
Q 55.609375 28.21875 55.609375 21.1875 
Q 55.609375 10.40625 48.1875 4.484375 
Q 40.765625 -1.421875 27.09375 -1.421875 
Q 22.515625 -1.421875 17.65625 -0.515625 
Q 12.796875 0.390625 7.625 2.203125 
L 7.625 11.71875 
Q 11.71875 9.328125 16.59375 8.109375 
Q 21.484375 6.890625 26.8125 6.890625 
Q 36.078125 6.890625 40.9375 10.546875 
Q 45.796875 14.203125 45.796875 21.1875 
Q 45.796875 27.640625 41.28125 31.265625 
Q 36.765625 34.90625 28.71875 34.90625 
L 20.21875 34.90625 
L 20.21875 43.015625 
L 29.109375 43.015625 
Q 36.375 43.015625 40.234375 45.921875 
Q 44.09375 48.828125 44.09375 54.296875 
Q 44.09375 59.90625 40.109375 62.90625 
Q 36.140625 65.921875 28.71875 65.921875 
Q 24.65625 65.921875 20.015625 65.03125 
Q 15.375 64.15625 9.8125 62.3125 
L 9.8125 71.09375 
Q 15.4375 72.65625 20.34375 73.4375 
Q 25.25 74.21875 29.59375 74.21875 
Q 40.828125 74.21875 47.359375 69.109375 
Q 53.90625 64.015625 53.90625 55.328125 
Q 53.90625 49.265625 50.4375 45.09375 
Q 46.96875 40.921875 40.578125 39.3125 
z
" id="DejaVuSans-51"/>
      </defs>
      <g style="fill:#262626;" transform="translate(54.6875 347.524515)scale(0.1 -0.1)">
       <use xlink:href="#DejaVuSans-51"/>
       <use x="63.623047" xlink:href="#DejaVuSans-48"/>
       <use x="127.246094" xlink:href="#DejaVuSans-48"/>
       <use x="190.869141" xlink:href="#DejaVuSans-48"/>
       <use x="254.492188" xlink:href="#DejaVuSans-48"/>
      </g>
     </g>
    </g>
    <g id="ytick_5">
     <g id="line2d_21">
      <path clip-path="url(#p7a5383163b)" d="M 90 253.097375 
L 648 253.097375 
" style="fill:none;stroke:#cccccc;stroke-linecap:round;stroke-width:0.8;"/>
     </g>
     <g id="line2d_22"/>
     <g id="text_11">
      <!-- 40000 -->
      <defs>
       <path d="M 37.796875 64.3125 
L 12.890625 25.390625 
L 37.796875 25.390625 
z
M 35.203125 72.90625 
L 47.609375 72.90625 
L 47.609375 25.390625 
L 58.015625 25.390625 
L 58.015625 17.1875 
L 47.609375 17.1875 
L 47.609375 0 
L 37.796875 0 
L 37.796875 17.1875 
L 4.890625 17.1875 
L 4.890625 26.703125 
z
" id="DejaVuSans-52"/>
      </defs>
      <g style="fill:#262626;" transform="translate(54.6875 256.896593)scale(0.1 -0.1)">
       <use xlink:href="#DejaVuSans-52"/>
       <use x="63.623047" xlink:href="#DejaVuSans-48"/>
       <use x="127.246094" xlink:href="#DejaVuSans-48"/>
       <use x="190.869141" xlink:href="#DejaVuSans-48"/>
       <use x="254.492188" xlink:href="#DejaVuSans-48"/>
      </g>
     </g>
    </g>
    <g id="ytick_6">
     <g id="line2d_23">
      <path clip-path="url(#p7a5383163b)" d="M 90 162.469453 
L 648 162.469453 
" style="fill:none;stroke:#cccccc;stroke-linecap:round;stroke-width:0.8;"/>
     </g>
     <g id="line2d_24"/>
     <g id="text_12">
      <!-- 50000 -->
      <g style="fill:#262626;" transform="translate(54.6875 166.268671)scale(0.1 -0.1)">
       <use xlink:href="#DejaVuSans-53"/>
       <use x="63.623047" xlink:href="#DejaVuSans-48"/>
       <use x="127.246094" xlink:href="#DejaVuSans-48"/>
       <use x="190.869141" xlink:href="#DejaVuSans-48"/>
       <use x="254.492188" xlink:href="#DejaVuSans-48"/>
      </g>
     </g>
    </g>
   </g>
   <g id="line2d_25">
    <path clip-path="url(#p7a5383163b)" d="M 115.363636 615.6 
L 116.491054 615.219363 
L 116.772561 614.98373 
L 117.464252 614.829663 
L 117.57681 614.784349 
L 117.921841 614.666532 
L 118.323716 614.530591 
L 118.400643 614.485277 
L 119.29042 614.285895 
L 119.317715 614.249644 
L 119.480959 614.131828 
L 120.445883 613.81463 
L 121.054166 613.696814 
L 121.162043 613.533683 
L 122.904493 613.279925 
L 123.227421 613.125858 
L 123.593099 612.980853 
L 123.605848 612.926476 
L 124.245141 612.763346 
L 125.751833 612.138013 
L 126.123549 612.011134 
L 126.20287 611.96582 
L 126.477071 611.848004 
L 126.618287 611.793627 
L 127.287923 611.648623 
L 127.740989 611.340488 
L 128.199035 611.113918 
L 128.276463 611.050478 
L 128.913962 610.932662 
L 129.024791 610.814846 
L 129.152475 610.697029 
L 129.203289 610.651715 
L 129.66367 610.515774 
L 130.790189 610.234827 
L 130.824651 610.198576 
L 131.250024 610.062634 
L 131.281909 609.999194 
L 132.135839 609.845127 
L 132.21421 609.700122 
L 132.6302 609.56418 
L 132.709333 609.482615 
L 133.818687 609.283234 
L 134.020524 609.120104 
L 134.104814 609.038538 
L 134.31177 608.911659 
L 134.67467 608.694152 
L 134.720261 608.639776 
L 135.656511 608.521959 
L 136.282897 608.286327 
L 136.406071 608.195699 
L 137.056149 608.041631 
L 137.472873 607.815061 
L 137.553434 607.733496 
L 137.913428 607.597554 
L 140.688467 606.899719 
L 140.788757 606.809092 
L 141.161121 606.67315 
L 141.211716 606.600647 
L 142.048785 606.464705 
L 142.122455 606.410329 
L 142.523091 606.28345 
L 142.854986 606.020629 
L 143.519641 605.884687 
L 143.752018 605.630929 
L 143.980831 605.513112 
L 144.038409 605.485924 
L 144.186552 605.368108 
L 144.249627 605.295605 
L 144.41505 605.177789 
L 144.434656 605.159663 
L 145.286718 605.005596 
L 145.363627 604.905905 
L 145.547531 604.788089 
L 146.044231 604.380263 
L 146.120464 604.325886 
L 146.729867 604.20807 
L 146.746877 604.171819 
L 146.959044 604.054003 
L 147.02269 603.9815 
L 147.402889 603.827433 
L 147.43255 603.782119 
L 148.36121 603.618989 
L 148.430848 603.537424 
L 148.760863 603.401482 
L 148.827175 603.283665 
L 149.105346 603.156786 
L 149.217394 603.111472 
L 149.531332 603.029907 
L 150.270108 602.712709 
L 150.692695 602.413637 
L 151.551453 602.250507 
L 151.6586 602.051126 
L 151.83311 601.924247 
L 151.899879 601.851744 
L 152.102633 601.724865 
L 152.471853 601.525484 
L 152.5743 601.362353 
L 153.158309 601.226412 
L 153.264168 601.099532 
L 153.466472 600.963591 
L 153.856685 600.836712 
L 154.148464 600.601079 
L 154.153201 600.592016 
L 154.786846 600.4742 
L 154.998804 600.347321 
L 155.505072 600.102625 
L 156.397428 599.984809 
L 156.507369 599.885118 
L 156.699862 599.758239 
L 156.834919 599.6948 
L 156.915576 599.622297 
L 157.13652 599.504481 
L 158.291873 599.132907 
L 158.316944 599.07853 
L 158.539881 598.951651 
L 158.540055 598.942588 
L 158.733893 598.824772 
L 158.804066 598.734144 
L 158.99831 598.616327 
L 159.052218 598.580076 
L 159.655293 598.46226 
L 159.708214 598.335381 
L 159.907049 598.208502 
L 159.930988 598.145062 
L 160.292544 598.00912 
L 160.436297 597.818802 
L 160.603709 597.700985 
L 160.627924 597.628483 
L 161.301078 597.510667 
L 161.342461 597.465353 
L 163.147309 597.22972 
L 163.165592 597.211595 
L 164.519735 597.084716 
L 164.589127 596.994088 
L 164.741168 596.876271 
L 164.837119 596.812832 
L 164.950971 596.695015 
L 165.057819 596.459383 
L 165.180268 596.341567 
L 165.458332 596.105934 
L 165.472311 596.069683 
L 166.130973 595.951867 
L 166.168974 595.815925 
L 166.394997 595.698108 
L 166.454093 595.679983 
L 166.591757 595.553104 
L 166.680731 595.353722 
L 166.822818 595.235906 
L 166.867201 595.072776 
L 167.053682 594.954959 
L 167.090823 594.909645 
L 167.97659 594.791829 
L 168.160961 594.574322 
L 168.444407 594.238999 
L 168.507629 594.139308 
L 168.677209 594.021492 
L 168.773142 593.930864 
L 169.447883 593.803985 
L 169.583972 593.686168 
L 170.131939 593.069899 
L 170.244724 592.952082 
L 170.321045 592.834266 
L 170.95346 592.707387 
L 171.030816 592.508005 
L 171.197824 592.390189 
L 171.362138 592.227059 
L 171.462728 592.082054 
L 171.524289 592.018615 
L 171.638368 591.900798 
L 171.941412 591.429533 
L 172.605503 591.311717 
L 172.632774 591.275466 
L 172.812101 591.157649 
L 172.863055 591.076084 
L 173.052121 590.958268 
L 173.126972 590.804201 
L 173.256717 590.686384 
L 173.621713 590.31481 
L 174.406384 590.196993 
L 174.513176 589.870733 
L 174.684481 589.743854 
L 174.762515 589.6351 
L 174.886408 589.517284 
L 174.954672 589.30884 
L 175.088398 589.181961 
L 175.170341 588.864763 
L 175.79453 588.746947 
L 175.861988 588.484126 
L 176.177284 588.357247 
L 176.501314 588.185054 
L 176.613575 587.976609 
L 176.736514 587.858793 
L 176.785297 587.813479 
L 177.42035 587.668474 
L 177.522346 587.52347 
L 177.659025 587.405653 
L 177.70529 587.305963 
L 177.875531 587.188146 
L 178.222185 586.68063 
L 178.303796 586.562814 
L 178.381614 586.408746 
L 178.416365 586.327181 
L 179.038161 586.182177 
L 179.867906 584.786507 
L 179.960093 584.659627 
L 180.013455 584.433058 
L 180.632132 584.315241 
L 180.704245 584.007106 
L 180.85388 583.88929 
L 181.229913 583.427088 
L 181.338822 583.309271 
L 181.416368 583.173329 
L 181.590442 583.055513 
L 181.663395 582.828943 
L 182.289738 582.693002 
L 182.36136 582.584248 
L 182.470539 582.466432 
L 182.57683 582.131108 
L 182.719717 582.004229 
L 183.084997 581.224829 
L 183.175946 581.043573 
L 183.259041 580.835129 
L 183.866426 580.681062 
L 183.967037 580.445429 
L 184.084583 580.31855 
L 184.167387 580.046666 
L 184.360049 579.910724 
L 184.724264 579.122261 
L 184.839188 578.977257 
L 184.871648 578.895692 
L 185.499392 578.75975 
L 185.613247 578.560368 
L 185.741404 578.379112 
L 185.910334 578.197857 
L 185.987022 578.061915 
L 186.113615 577.925973 
L 186.186086 577.808157 
L 186.30937 577.617838 
L 186.446188 577.454708 
L 186.542591 577.327829 
L 187.10454 577.173761 
L 187.179318 576.929066 
L 187.332471 576.811249 
L 187.409476 576.575617 
L 187.57098 576.439675 
L 187.769647 576.213105 
L 187.842589 576.040912 
L 188.09505 575.596835 
L 188.730104 575.460893 
L 188.934012 574.998691 
L 188.99189 574.826498 
L 189.039911 574.726807 
L 189.175011 574.608991 
L 189.261854 574.255542 
L 189.4353 574.110537 
L 189.706151 573.621147 
L 189.761872 573.593958 
L 190.336166 573.476142 
L 190.588582 572.923312 
L 190.798914 572.678616 
L 190.897213 572.515486 
L 191.032077 572.370481 
L 191.206157 572.035158 
L 191.277083 571.908279 
L 191.33584 571.736086 
L 191.916922 571.609207 
L 192.021553 571.237632 
L 192.233335 570.93856 
L 192.337034 570.757304 
L 192.430934 570.630425 
L 192.699196 570.258851 
L 192.956865 569.986967 
L 193.103342 569.959778 
L 193.522227 569.841962 
L 193.633815 569.47945 
L 193.880959 569.035374 
L 194.041423 568.908495 
L 194.108727 568.663799 
L 194.267983 568.527857 
L 194.355944 568.246911 
L 194.504881 568.120032 
L 194.603922 567.884399 
L 195.169373 567.748457 
L 195.250891 567.331569 
L 195.322146 567.168438 
L 195.431953 567.050622 
L 195.478731 566.950931 
L 195.872356 566.81499 
L 195.938352 566.434352 
L 196.122478 566.307473 
L 196.167783 566.144343 
L 196.225749 566.089966 
L 197.034107 565.944962 
L 197.147836 565.645889 
L 197.270125 565.51901 
L 197.32048 565.383068 
L 197.418497 565.265252 
L 197.543981 565.093059 
L 197.675472 564.648982 
L 197.759166 564.522103 
L 197.827405 564.322722 
L 198.425385 564.168654 
L 198.509721 563.951147 
L 198.658631 563.824268 
L 198.737489 563.615824 
L 198.836458 563.461756 
L 198.904257 563.298626 
L 199.201499 562.79111 
L 199.355542 562.618917 
L 199.396947 562.419535 
L 200.052991 562.274531 
L 200.148012 562.1114 
L 200.275135 561.993584 
L 200.384236 561.748889 
L 200.527663 561.62201 
L 200.603468 561.422628 
L 200.739934 561.277624 
L 200.843478 560.951363 
L 200.999058 560.77917 
L 201.072518 560.5526 
L 201.657767 560.416658 
L 201.768339 560.199151 
L 201.934233 560.008833 
L 202.389721 559.283809 
L 202.478706 558.966612 
L 202.565936 558.83067 
L 202.62865 558.613163 
L 202.675519 558.531597 
L 203.281936 558.395656 
L 204.323141 557.308121 
L 204.89814 557.190304 
L 204.994378 556.954672 
L 205.158443 556.782479 
L 205.247954 556.59216 
L 205.369479 556.447155 
L 205.442632 556.220585 
L 206.521058 555.903388 
L 206.588629 555.640567 
L 206.74361 555.504625 
L 206.857775 555.250867 
L 206.999256 555.096799 
L 207.112835 554.698036 
L 207.265792 554.453341 
L 207.787764 553.927699 
L 208.122912 553.80082 
L 208.244057 553.438308 
L 208.374654 553.320492 
L 208.486111 552.967043 
L 208.631944 552.831101 
L 208.73973 552.704222 
L 208.880561 552.577343 
L 209.121073 551.988262 
L 209.341565 551.816068 
L 209.400562 551.571373 
L 209.732871 551.435431 
L 209.877988 550.94604 
L 210.264908 550.801036 
L 210.775001 549.414429 
L 211.372714 549.215047 
L 211.42826 549.042854 
L 211.814247 548.906912 
L 211.943615 548.499087 
L 212.063987 548.38127 
L 212.281912 548.118449 
L 212.395446 547.873754 
L 212.980115 547.755938 
L 213.166812 547.502179 
L 213.266392 547.366238 
L 213.371381 547.121542 
L 213.483132 546.994663 
L 213.594201 546.777156 
L 213.742641 546.414644 
L 213.950837 546.160886 
L 214.159259 546.097447 
L 214.550231 545.97963 
L 214.695864 545.517428 
L 214.80654 545.381486 
L 215.322098 544.448018 
L 215.430504 544.339265 
L 215.63083 544.130821 
L 216.149428 544.013004 
L 216.429666 543.695807 
L 216.523866 543.523614 
L 216.678703 543.378609 
L 216.789774 543.115788 
L 216.973462 542.726088 
L 217.095216 542.562958 
L 217.188844 542.427016 
L 217.2165 542.327325 
L 217.828999 542.209509 
L 217.933229 542.001065 
L 218.097514 541.810746 
L 218.20954 541.638553 
L 218.314214 541.493548 
L 218.357495 541.366669 
L 218.582082 541.230727 
L 218.871963 540.795713 
L 219.478826 540.641646 
L 219.584364 540.569143 
L 219.671423 540.433201 
L 219.783129 540.215694 
L 220.013599 539.835057 
L 220.183458 539.708178 
L 220.37154 539.282227 
L 220.577034 539.100971 
L 221.123311 538.974092 
L 221.29282 538.847213 
L 221.429189 538.620643 
L 221.57614 538.430324 
L 221.694547 538.258131 
L 222.026824 537.886557 
L 222.109537 537.750615 
L 222.651414 537.614673 
L 222.802232 537.351852 
L 223.188353 536.835273 
L 223.378242 536.391196 
L 223.707108 535.847429 
L 224.129917 535.693361 
L 224.319828 535.539294 
L 224.576051 535.149594 
L 224.813615 535.013652 
L 224.931859 534.705517 
L 225.049373 534.478947 
L 225.164043 534.288628 
L 225.227631 534.143624 
L 225.330458 533.926117 
L 226.009068 533.790175 
L 226.425627 533.164842 
L 226.635984 532.883896 
L 226.808168 532.521384 
L 227.090881 532.131684 
L 227.528653 531.986679 
L 227.644029 531.40666 
L 227.761907 531.252593 
L 227.875131 531.0804 
L 228.589716 529.884111 
L 228.701322 529.757232 
L 228.738626 529.68473 
L 229.152076 529.566914 
L 229.19929 529.267841 
L 229.297893 529.140962 
L 229.389813 528.986895 
L 229.463196 528.778451 
L 229.588193 528.642509 
L 229.698308 528.51563 
L 229.779203 528.307185 
L 230.253549 527.44622 
L 230.6863 527.292153 
L 232.118844 525.280213 
L 232.318232 525.153334 
L 232.468214 524.790822 
L 232.565705 524.645817 
L 232.680068 524.364871 
L 232.987544 523.694224 
L 233.102174 523.386089 
L 233.404124 522.670129 
L 233.596906 522.615752 
L 234.045984 522.47981 
L 234.164629 522.298554 
L 234.737487 521.582594 
L 234.987843 521.265396 
L 235.155501 521.138517 
L 235.292948 521.093203 
L 235.816475 520.730691 
L 236.021474 520.504121 
L 236.141181 520.377242 
L 236.232301 520.232238 
L 236.820999 519.697533 
L 237.24203 519.552528 
L 237.309398 519.425649 
L 237.398362 519.29877 
L 237.539843 519.0722 
L 238.51974 518.020916 
L 238.815446 517.9031 
L 239.224853 517.323081 
L 239.313624 517.187139 
L 239.496617 516.978695 
L 239.998816 516.643372 
L 240.480717 516.462116 
L 240.762943 516.018039 
L 241.113768 515.383644 
L 241.231138 515.193325 
L 241.377559 515.048321 
L 241.764743 514.703934 
L 242.091991 514.540804 
L 242.190453 514.432051 
L 242.446232 514.214544 
L 242.54656 513.978911 
L 242.65919 513.761404 
L 242.794632 513.435143 
L 243.167223 513.027318 
L 243.621286 512.900439 
L 243.729516 512.782622 
L 244.201932 511.985097 
L 244.318826 511.76759 
L 244.523347 511.459455 
L 244.631905 511.332576 
L 244.743036 511.15132 
L 245.37591 510.643803 
L 245.553051 510.516924 
L 245.691875 510.353794 
L 246.153273 510.154413 
L 246.967178 510.036596 
L 247.548837 509.719399 
L 248.423143 509.583457 
L 248.841694 509.166568 
L 248.988422 509.085003 
L 249.263936 508.939999 
L 249.361358 508.867496 
L 250.183633 508.504985 
L 250.437581 508.224038 
L 250.669019 508.015594 
L 250.816646 507.825275 
L 250.930247 507.589643 
L 251.341326 507.390261 
L 251.505503 507.272445 
L 252.08832 506.973373 
L 252.197205 506.918996 
L 252.36135 506.773991 
L 252.526223 506.257412 
L 252.650602 506.139596 
L 252.721178 506.003654 
L 252.82709 505.913026 
L 253.365607 505.749896 
L 253.640019 505.351133 
L 253.891118 505.033935 
L 253.969706 504.961433 
L 254.104987 504.834554 
L 254.33784 504.272661 
L 254.587877 503.864835 
L 254.721108 503.710767 
L 255.022601 503.565763 
L 255.140161 503.312005 
L 255.475918 502.795425 
L 255.575719 502.641358 
L 256.117906 501.70789 
L 256.234408 501.553823 
L 256.334214 501.454132 
L 256.549998 501.327253 
L 256.796276 500.846925 
L 257.394894 499.813767 
L 257.603131 499.677825 
L 257.68347 499.550946 
L 257.863968 499.405941 
L 258.054208 499.215623 
L 258.285639 499.025304 
L 258.555357 498.635604 
L 258.684099 498.508725 
L 260.377534 496.02552 
L 260.497155 495.753636 
L 260.823045 495.309559 
L 260.938284 494.874545 
L 261.669425 494.086082 
L 261.77398 493.814198 
L 262.231481 493.034798 
L 262.339478 492.771977 
L 262.484576 492.364152 
L 262.595209 492.155707 
L 262.905174 491.847572 
L 263.068397 491.684442 
L 263.41615 491.249428 
L 263.610889 491.131612 
L 263.924953 490.859728 
L 264.099695 490.497216 
L 264.923943 490.080328 
L 265.811006 489.010919 
L 266.009237 488.920291 
L 266.375711 488.802474 
L 266.94053 488.168079 
L 267.192203 487.995886 
L 267.292665 487.905258 
L 268.675051 487.225548 
L 268.716913 487.107732 
L 268.909235 486.980853 
L 269.140121 486.799597 
L 270.07347 486.409897 
L 270.197256 486.25583 
L 270.481226 486.101762 
L 270.818742 485.884255 
L 271.223782 485.766439 
L 271.245508 485.748313 
L 271.453977 485.621434 
L 272.281893 484.678904 
L 272.589471 484.461397 
L 272.84366 484.262015 
L 273.085492 484.01732 
L 273.552034 483.310422 
L 273.844302 483.147292 
L 274.54922 482.739466 
L 274.652718 482.313515 
L 274.85995 482.096008 
L 274.964745 481.960066 
L 275.129612 481.815061 
L 275.5915 481.561303 
L 276.080298 481.407236 
L 276.183023 481.334734 
L 276.424589 481.198792 
L 276.525681 481.080975 
L 276.726472 480.77284 
L 276.837672 480.618773 
L 276.99834 480.192822 
L 277.073942 479.975315 
L 277.442303 479.857498 
L 277.825248 479.422484 
L 277.935881 479.286542 
L 278.191302 478.951219 
L 278.821947 478.180882 
L 279.166965 478.035877 
L 279.273283 477.918061 
L 279.414302 477.745868 
L 279.525365 477.564612 
L 279.688201 477.401482 
L 279.916258 477.238351 
L 280.07553 477.075221 
L 280.135503 476.921154 
L 280.244418 476.794275 
L 280.645324 476.313947 
L 281.844866 474.8639 
L 281.95262 474.664518 
L 282.572304 474.0845 
L 282.744424 473.957621 
L 283.921381 472.770395 
L 284.148149 472.634453 
L 284.239585 472.571013 
L 284.461836 472.39882 
L 284.626647 472.199439 
L 285.11344 471.537855 
L 285.225998 471.429102 
L 285.394712 471.329411 
L 285.638742 471.202532 
L 285.771037 470.994088 
L 286.37076 470.386881 
L 286.482345 470.260001 
L 286.596333 470.069683 
L 287.465624 469.090901 
L 288.319634 467.613666 
L 288.441295 467.387096 
L 289.377753 466.372064 
L 289.487349 466.181745 
L 290.044146 465.474847 
L 290.724491 465.284529 
L 291.272265 464.758887 
L 291.383222 464.505128 
L 291.555091 464.323873 
L 291.947063 464.160742 
L 292.220107 464.015738 
L 292.965331 462.973517 
L 293.075242 462.801323 
L 293.408113 462.475063 
L 293.894368 462.0763 
L 294.059211 461.659412 
L 294.095684 461.505344 
L 294.185919 461.097519 
L 294.267841 460.970639 
L 294.530272 460.426872 
L 295.020248 459.7381 
L 295.447509 459.620283 
L 295.828403 459.194332 
L 295.977032 459.05839 
L 296.356429 458.650565 
L 296.727689 458.360555 
L 297.131311 458.206488 
L 297.241878 457.979918 
L 297.7083 457.146141 
L 298.312284 456.285176 
L 298.648081 456.149234 
L 298.782189 455.967978 
L 300.052798 454.391052 
L 300.378033 454.182608 
L 301.190551 452.69631 
L 301.276325 452.315673 
L 301.419861 452.107229 
L 301.61382 451.826282 
L 302.036073 450.992505 
L 302.128977 450.793124 
L 302.263777 450.639056 
L 303.022836 449.406517 
L 303.543585 449.261512 
L 303.651206 449.107444 
L 304.856398 447.7299 
L 305.137243 447.593958 
L 306.678121 445.029188 
L 306.787995 444.856995 
L 307.241221 444.005092 
L 307.349941 443.823837 
L 308.111755 442.76349 
L 308.388012 442.636611 
L 309.457635 440.787801 
L 309.93397 440.642797 
L 310.022353 440.443415 
L 310.24629 439.963087 
L 310.338194 439.80902 
L 310.443882 439.537136 
L 311.22757 438.612731 
L 311.645385 438.485852 
L 311.794223 438.331785 
L 311.881403 438.159591 
L 312.047612 437.887708 
L 312.70833 436.899863 
L 313.117246 436.745796 
L 313.337384 436.464849 
L 313.497346 436.292656 
L 313.772314 435.803265 
L 313.880932 435.567633 
L 314.62282 434.543537 
L 314.810972 434.425721 
L 315.03173 434.072272 
L 315.190775 433.736949 
L 315.410087 433.419751 
L 316.115353 432.640351 
L 316.411839 432.477221 
L 316.626877 432.223463 
L 316.713349 432.05127 
L 316.814644 431.788449 
L 316.922783 431.616255 
L 317.032387 431.398748 
L 317.20798 430.98186 
L 317.325446 430.836855 
L 317.646842 430.419967 
L 317.840697 430.247774 
L 318.061519 430.057455 
L 318.200348 429.858074 
L 318.412959 429.58619 
L 318.683947 429.105862 
L 318.995165 428.444278 
L 319.096862 428.281148 
L 319.353879 428.099892 
L 320.308778 426.513903 
L 320.419465 426.296396 
L 320.862137 425.906696 
L 321.302775 425.743566 
L 321.43164 425.535122 
L 321.607521 425.326678 
L 321.842566 425.045731 
L 321.946217 424.909789 
L 322.07771 424.764785 
L 322.264793 424.592592 
L 322.544389 424.402273 
L 322.887463 424.275394 
L 323.163362 423.912882 
L 323.424766 423.604747 
L 323.498138 423.541308 
L 324.559947 423.341926 
L 324.651078 423.079105 
L 324.750922 422.952226 
L 324.861903 422.798159 
L 324.986793 422.60784 
L 325.096763 422.417521 
L 325.21593 422.05501 
L 325.316899 421.692498 
L 325.437894 421.547493 
L 325.568911 421.103417 
L 325.645115 420.931223 
L 325.740227 420.804344 
L 325.817184 420.704654 
L 326.090041 420.577775 
L 326.36818 419.970568 
L 326.516742 419.65337 
L 326.667933 419.236481 
L 326.839831 418.747091 
L 326.895677 418.611149 
L 327.060065 418.203323 
L 327.159711 417.913314 
L 327.262672 417.849874 
L 327.383371 417.777372 
L 327.663988 417.659555 
L 327.78178 417.487362 
L 327.896611 417.179228 
L 328.033261 416.925469 
L 328.144442 416.689837 
L 328.953992 415.638553 
L 329.362408 415.511674 
L 329.473956 415.294167 
L 329.721154 415.004157 
L 329.847827 414.813839 
L 330.050139 414.551018 
L 330.326167 414.23382 
L 331.191089 414.097878 
L 331.36009 413.898497 
L 332.058458 413.590362 
L 332.596531 413.463483 
L 333.783906 412.212817 
L 334.26462 412.076875 
L 334.422189 411.940934 
L 334.501472 411.786866 
L 334.608413 411.27935 
L 335.377919 410.137438 
L 335.855925 409.974308 
L 335.964751 409.802115 
L 336.061346 409.648047 
L 336.171071 409.439603 
L 336.389354 409.122405 
L 336.810097 408.515198 
L 336.917305 408.315817 
L 337.405849 408.170812 
L 337.513464 407.926117 
L 337.699512 407.70861 
L 337.798672 407.355161 
L 337.971754 407.119528 
L 338.060402 406.902021 
L 338.190187 406.775142 
L 338.825943 406.113558 
L 339.063707 405.977616 
L 339.44157 405.116651 
L 339.581444 404.926332 
L 339.685118 404.645386 
L 339.786948 404.391628 
L 339.894574 404.174121 
L 340.19052 403.875049 
L 340.333784 403.811609 
L 340.667689 403.675667 
L 340.777777 403.467223 
L 340.871611 403.340344 
L 340.957842 403.204402 
L 341.068999 403.023146 
L 341.172064 402.84189 
L 341.54026 402.316248 
L 341.64405 402.107804 
L 341.69344 401.971862 
L 341.856291 401.854046 
L 342.32822 401.718104 
L 342.454861 401.44622 
L 342.557047 401.255902 
L 342.612626 401.110897 
L 342.689332 400.965892 
L 342.743493 400.839013 
L 342.852886 400.585255 
L 343.089792 400.141178 
L 343.200374 399.932734 
L 344.103451 399.144271 
L 344.184744 398.953952 
L 344.370025 398.799885 
L 344.487408 398.600503 
L 344.523993 398.455499 
L 344.634765 398.192678 
L 344.743894 398.029548 
L 344.851543 397.884543 
L 345.065621 397.64891 
L 345.125932 397.621722 
L 345.300407 397.503906 
L 346.724014 394.794131 
L 347.297893 394.440682 
L 347.408936 394.331928 
L 348.409383 393.29877 
L 348.771275 393.171891 
L 349.006015 392.981572 
L 349.11517 392.6825 
L 349.798095 391.912163 
L 350.483182 391.73997 
L 350.7059 391.594965 
L 351.091938 391.295893 
L 351.36631 390.743063 
L 351.446208 390.552744 
L 351.605167 390.434928 
L 351.830896 390.099604 
L 352.05459 389.755218 
L 352.224127 389.610214 
L 352.497676 389.347393 
L 352.641408 389.1752 
L 352.741351 389.048321 
L 352.853227 388.894253 
L 352.958297 388.740186 
L 353.190519 388.631432 
L 353.635012 388.504553 
L 353.74429 388.350486 
L 353.9512 388.006099 
L 354.09301 387.852032 
L 354.219349 387.607337 
L 354.920028 386.818874 
L 355.230049 386.673869 
L 355.483149 386.302294 
L 355.934133 385.722276 
L 356.041612 385.550083 
L 356.454401 385.169445 
L 356.896058 385.042566 
L 357.329774 384.426296 
L 357.432901 384.335669 
L 357.618815 384.163476 
L 357.796488 383.91878 
L 358.521865 383.384075 
L 358.632126 383.057815 
L 359.201312 382.305603 
L 359.306066 382.042782 
L 359.466204 381.770898 
L 359.648592 381.625894 
L 360.123585 381.381198 
L 360.217606 381.199942 
L 360.364691 381.045875 
L 360.586687 380.719614 
L 361.159887 379.876775 
L 361.743003 379.722707 
L 361.795411 379.541451 
L 361.902005 379.432698 
L 362.294416 378.916119 
L 362.398652 378.716737 
L 362.572555 378.508293 
L 362.6836 378.191095 
L 362.954962 378.046091 
L 363.316996 377.919212 
L 363.42117 377.565763 
L 363.647583 377.185126 
L 363.736129 376.831677 
L 363.883366 376.668546 
L 363.954728 376.496353 
L 364.105498 376.360411 
L 364.354645 375.970711 
L 364.417044 375.834769 
L 364.936882 375.635388 
L 365.046336 375.281939 
L 365.385705 374.774423 
L 365.531142 374.638481 
L 365.612011 374.457225 
L 365.715121 374.294095 
L 365.769866 374.158153 
L 365.880924 373.949709 
L 365.963458 373.686888 
L 365.981257 373.569071 
L 366.493027 373.424067 
L 366.821612 372.871236 
L 366.93085 372.599353 
L 367.097997 372.264029 
L 367.203864 372.109962 
L 367.750898 371.258059 
L 367.858548 371.076804 
L 368.158119 370.922736 
L 368.263269 370.732417 
L 368.374859 370.469596 
L 368.467688 370.35178 
L 368.626148 370.197713 
L 369.287878 369.382061 
L 369.754057 369.227994 
L 369.885366 369.082989 
L 369.984977 368.947047 
L 370.074004 368.811106 
L 370.184734 368.666101 
L 370.500973 368.222024 
L 370.593104 368.086082 
L 370.702412 367.977329 
L 370.947062 367.705445 
L 371.471121 367.587629 
L 371.644417 367.406373 
L 372.179683 366.753852 
L 372.289231 366.436654 
L 372.401872 366.16477 
L 372.486237 366.019766 
L 372.540623 365.892886 
L 373.09171 365.5485 
L 373.184525 365.249428 
L 373.30601 365.086298 
L 373.677895 364.433777 
L 373.782593 364.288772 
L 373.867447 364.21627 
L 374.025123 364.05314 
L 374.079282 363.799381 
L 374.662414 363.672502 
L 374.685453 363.618126 
L 375.039547 363.482184 
L 375.30579 363.110609 
L 375.617706 362.911228 
L 375.713323 362.775286 
L 375.818238 362.630281 
L 375.885064 362.512465 
L 376.55101 362.331209 
L 376.685808 361.959635 
L 376.79226 361.533683 
L 377.050499 361.234611 
L 377.145707 361.017104 
L 377.223851 360.8721 
L 377.297395 360.736158 
L 377.743422 360.536776 
L 377.892072 360.373646 
L 378.008261 360.083637 
L 378.112954 359.884255 
L 378.217591 359.693937 
L 378.328163 359.331425 
L 378.845608 358.388894 
L 378.968106 358.207639 
L 379.056066 358.162325 
L 379.530482 358.026383 
L 379.597727 357.845127 
L 379.705278 357.62762 
L 380.1963 356.975099 
L 380.355173 356.839157 
L 380.466344 356.440394 
L 381.43056 355.796936 
L 381.539447 355.552241 
L 382.007123 354.682212 
L 382.777097 353.821247 
L 382.922444 353.612803 
L 383.076198 353.531238 
L 383.220911 353.368108 
L 383.377148 352.896842 
L 383.525061 352.66121 
L 383.7661 352.217133 
L 383.853729 352.099317 
L 384.37835 351.88181 
L 384.486465 351.664303 
L 385.326667 350.241444 
L 385.985901 350.069251 
L 386.052344 349.942372 
L 386.161397 349.797367 
L 386.298419 349.6433 
L 386.409466 349.326102 
L 386.580276 349.02703 
L 386.709845 348.718895 
L 386.791497 348.582953 
L 386.899072 348.229504 
L 387.019893 347.957621 
L 387.129944 347.749176 
L 387.253984 347.604172 
L 387.352934 347.576983 
L 387.757199 347.178221 
L 387.835803 346.987902 
L 387.942201 346.85196 
L 388.324023 346.217565 
L 388.380936 346.090685 
L 388.419844 345.900367 
L 388.528659 345.655671 
L 389.033061 344.749392 
L 389.135535 344.658764 
L 389.521653 344.178436 
L 389.631008 344.024369 
L 390.337918 343.208718 
L 390.898348 343.090901 
L 391.229018 342.556197 
L 391.320871 342.347752 
L 391.609982 342.202748 
L 391.670931 342.066806 
L 391.741387 341.939927 
L 392.014441 341.776796 
L 392.090017 341.758671 
L 392.677324 341.631792 
L 392.889467 341.278343 
L 392.946419 341.115213 
L 393.052505 340.952082 
L 393.211363 340.825203 
L 393.412769 340.734575 
L 393.495637 340.571445 
L 393.600055 340.208933 
L 393.648191 340.018615 
L 393.749441 339.683291 
L 394.061633 339.375156 
L 394.144333 339.139524 
L 394.345039 339.012645 
L 394.469268 338.86764 
L 395.104602 337.92511 
L 395.227105 337.852607 
L 395.297283 337.816356 
L 395.647904 337.689477 
L 396.167477 336.937265 
L 396.276092 336.828512 
L 396.729741 336.175991 
L 397.192378 336.040049 
L 397.493815 335.532533 
L 397.605055 335.369402 
L 397.716563 335.151895 
L 397.803788 334.970639 
L 397.899269 334.807509 
L 398.050751 334.608128 
L 398.178737 334.372495 
L 398.303718 334.109674 
L 398.42436 334.046235 
L 399.090039 333.502467 
L 399.392711 332.985888 
L 399.51904 332.759318 
L 399.633186 332.514623 
L 399.804202 332.269927 
L 400.279815 331.925541 
L 400.444118 331.798662 
L 400.610121 331.508653 
L 401.325166 330.10392 
L 401.415699 329.949853 
L 401.511939 329.804848 
L 401.662792 329.587341 
L 402.070465 329.442336 
L 402.289949 329.007322 
L 402.387621 328.943883 
L 402.470735 328.780752 
L 402.579294 328.626685 
L 402.769713 328.246048 
L 402.873864 328.001352 
L 402.981436 327.811034 
L 403.35165 327.321643 
L 403.69678 327.185701 
L 403.894412 326.750687 
L 404.096265 326.351924 
L 404.299783 326.098166 
L 404.410978 325.681277 
L 404.650238 325.228138 
L 404.759137 325.037819 
L 405.196842 324.693433 
L 405.296958 324.557491 
L 405.435889 324.267482 
L 405.5493 324.049975 
L 405.656484 323.886845 
L 406.807914 321.838654 
L 406.960494 321.66646 
L 407.068136 321.448953 
L 407.113019 321.322074 
L 407.276549 321.059253 
L 407.51681 320.424858 
L 407.623588 320.089535 
L 408.105483 319.826714 
L 408.532987 319.699835 
L 408.685089 319.49139 
L 408.938529 319.282946 
L 409.050496 319.147004 
L 409.185444 318.992937 
L 409.984469 318.467295 
L 410.264407 318.331353 
L 410.603183 318.041344 
L 410.978358 317.887276 
L 412.195156 317.443199 
L 412.327417 317.361634 
L 412.424477 317.234755 
L 412.502603 317.008185 
L 412.603663 316.808804 
L 412.700152 316.654736 
L 412.929382 316.274099 
L 413.028354 315.975027 
L 413.082046 315.82096 
L 413.183763 315.585327 
L 413.492517 315.213752 
L 413.590049 314.932806 
L 413.715572 314.733424 
L 414.298669 313.990275 
L 416.137723 313.274315 
L 416.933308 313.156499 
L 417.414663 312.295533 
L 417.858872 311.914896 
L 418.240926 311.751766 
L 419.284043 310.33797 
L 419.656436 310.002647 
L 419.921002 309.875768 
L 420.606715 309.069179 
L 420.797439 308.688542 
L 420.934736 308.489161 
L 421.018567 308.353219 
L 421.682663 308.045084 
L 421.972292 307.70976 
L 422.079365 307.537567 
L 422.165502 307.410688 
L 422.275162 307.265684 
L 422.643906 306.658477 
L 423.195589 306.495346 
L 423.30673 306.15096 
L 424.570324 304.809667 
L 424.794823 304.673725 
L 425.118799 303.994016 
L 425.229919 303.81276 
L 426.208768 302.58022 
L 426.459252 302.41709 
L 426.542315 302.263022 
L 426.642878 302.12708 
L 426.778402 301.86426 
L 427.0864 301.492685 
L 427.438227 300.921729 
L 428.071096 300.740473 
L 428.536275 300.24202 
L 428.690775 299.879508 
L 428.841669 299.507934 
L 428.951524 299.217924 
L 429.307206 298.529152 
L 429.417428 298.45665 
L 429.770423 297.921945 
L 429.876768 297.577559 
L 430.038256 297.251298 
L 430.169565 296.988477 
L 430.719596 296.453773 
L 431.274983 296.335956 
L 431.543945 296.064073 
L 432.00949 295.900942 
L 432.190916 295.801252 
L 433.132251 295.393426 
L 433.240002 295.257484 
L 434.015994 294.641214 
L 434.510721 294.514335 
L 434.61041 294.324016 
L 434.720992 294.006819 
L 435.415546 292.620211 
L 435.887491 292.375516 
L 436.181328 291.949565 
L 436.2882 291.722995 
L 437.420656 290.227634 
L 437.676663 290.091692 
L 438.73509 288.714148 
L 438.786902 288.650708 
L 439.21321 288.514767 
L 439.640051 287.998187 
L 439.746631 287.78068 
L 439.863354 287.626613 
L 439.966433 287.517859 
L 440.222803 287.128159 
L 440.37417 286.810962 
L 440.858971 286.593455 
L 441.025835 286.28532 
L 441.158192 286.122189 
L 441.271969 285.968122 
L 441.380087 285.723427 
L 441.862835 284.789959 
L 442.029001 284.644954 
L 442.048578 284.626829 
L 442.481712 284.481824 
L 442.517986 284.318694 
L 442.627176 284.073998 
L 442.835715 283.738675 
L 442.939323 283.530231 
L 443.010768 283.294598 
L 443.097031 283.049903 
L 443.239982 282.904898 
L 444.044466 282.225189 
L 444.212255 282.089247 
L 444.308661 281.989556 
L 444.422037 281.844552 
L 444.544286 281.690484 
L 444.739808 281.518291 
L 444.847095 281.355161 
L 445.258283 281.001712 
L 445.71113 280.856707 
L 445.757619 280.711703 
L 445.847066 280.539509 
L 446.033491 280.367316 
L 446.212284 280.041056 
L 446.316049 279.823549 
L 446.679706 279.288844 
L 446.848703 279.035086 
L 447.473362 278.545695 
L 447.739621 278.001928 
L 447.847394 277.820672 
L 448.190546 277.412846 
L 448.30054 277.249716 
L 448.537473 276.914393 
L 448.548666 276.887204 
L 448.975662 276.751262 
L 449.142512 276.51563 
L 449.261759 276.397813 
L 449.378763 276.207495 
L 449.529213 275.962799 
L 449.719926 275.754355 
L 449.827095 275.44622 
L 450.124273 275.192462 
L 450.576265 275.038395 
L 451.057371 274.539941 
L 451.168055 274.295246 
L 451.25843 274.05055 
L 451.427037 273.878357 
L 452.175044 273.289276 
L 452.313561 273.162397 
L 452.619283 272.482687 
L 452.992678 272.174552 
L 453.055758 272.065799 
L 453.87895 271.830166 
L 454.184181 271.467654 
L 454.551126 271.304524 
L 455.812509 270.751694 
L 455.918935 270.31668 
L 455.973452 270.15355 
L 456.068617 269.954168 
L 456.203928 269.754787 
L 456.298115 269.401338 
L 456.384389 269.238208 
L 456.495519 268.984449 
L 457.081819 268.558498 
L 457.219515 268.431619 
L 457.73337 267.933166 
L 457.840918 267.806286 
L 457.938227 267.670345 
L 458.026036 267.570654 
L 458.136597 267.416586 
L 458.218043 267.335021 
L 458.74161 267.144703 
L 458.845287 266.927196 
L 458.990898 266.709689 
L 459.18244 266.483119 
L 459.4129 266.310926 
L 459.514626 266.12967 
L 459.71908 265.993728 
L 459.906213 265.848723 
L 460.250702 265.622153 
L 461.596745 263.827721 
L 461.995277 263.682716 
L 462.389747 263.33833 
L 462.946685 262.794562 
L 463.164923 262.676746 
L 463.605911 262.549867 
L 463.713036 262.404862 
L 464.569928 261.562023 
L 464.659213 261.462332 
L 465.214849 261.281076 
L 465.371964 261.063569 
L 465.487206 260.864188 
L 465.664868 260.691995 
L 465.891772 260.392922 
L 466.001146 260.121039 
L 466.437258 259.876343 
L 466.837806 259.676962 
L 466.919343 259.513832 
L 467.062853 259.368827 
L 467.154172 259.205697 
L 467.309757 259.069755 
L 467.82555 258.380983 
L 467.921731 258.281292 
L 468.53431 258.127224 
L 468.785414 257.909717 
L 468.891083 257.601582 
L 469.130442 257.230008 
L 469.238635 257.112192 
L 469.330782 256.949061 
L 469.444789 256.713429 
L 469.727168 256.622801 
L 470.097433 256.495922 
L 470.201038 256.278415 
L 470.308717 256.079033 
L 470.4872 255.816212 
L 470.60777 255.589643 
L 471.024917 255.054938 
L 471.136125 254.946184 
L 471.527581 254.783054 
L 471.76376 254.465856 
L 471.882862 254.293663 
L 473.122242 252.916119 
L 473.517443 252.617047 
L 473.617683 252.435791 
L 474.015812 251.973588 
L 474.343846 251.647328 
L 475.129951 251.302942 
L 475.474322 250.985744 
L 476.380283 250.659484 
L 476.633394 250.514479 
L 476.737571 250.423851 
L 477.70438 249.780393 
L 478.165009 249.599137 
L 478.270678 249.436007 
L 478.373965 249.209437 
L 478.488774 248.738172 
L 478.640301 248.565979 
L 478.742348 248.294095 
L 478.802655 248.103776 
L 478.910281 247.804704 
L 478.990567 247.650637 
L 479.18317 247.424067 
L 479.438671 247.288125 
L 479.5219 247.233748 
L 479.775912 247.070618 
L 479.907593 246.825922 
L 480.094082 246.626541 
L 480.194123 246.463411 
L 480.263408 246.318406 
L 480.364433 246.046522 
L 480.522906 245.801827 
L 480.623346 245.702136 
L 481.486702 245.221808 
L 482.303374 244.424283 
L 482.411104 244.170524 
L 482.991252 243.880515 
L 483.362402 243.336747 
L 483.473185 243.191743 
L 483.688629 242.983299 
L 483.834529 242.765792 
L 483.943015 242.548285 
L 484.242672 242.40328 
L 484.65362 242.276401 
L 484.776219 241.959203 
L 485.049575 241.678256 
L 485.310394 241.297619 
L 485.368868 241.225117 
L 485.547064 241.089175 
L 485.624342 240.980421 
L 486.173959 240.753852 
L 486.273973 240.572596 
L 486.365244 240.400403 
L 486.477593 240.237273 
L 487.513313 238.959419 
L 487.813798 238.83254 
L 487.906638 238.633158 
L 488.133762 238.433777 
L 488.236217 238.325023 
L 488.333371 238.189081 
L 488.437361 237.998763 
L 488.97332 237.37343 
L 489.395436 237.228426 
L 489.727628 236.947479 
L 489.976905 236.584967 
L 490.134723 236.376523 
L 490.709969 235.560872 
L 491.106705 235.406804 
L 492.343921 234.953665 
L 492.756511 234.826786 
L 492.950469 234.681781 
L 493.298465 234.310206 
L 493.399418 234.092699 
L 493.519258 233.938632 
L 493.724562 233.666748 
L 493.927471 233.567057 
L 494.304337 233.440178 
L 494.37749 233.222671 
L 494.486187 233.032353 
L 495.484149 232.225764 
L 495.886052 232.107948 
L 497.058828 231.038538 
L 497.590608 230.857283 
L 498.74956 229.932878 
L 499.588498 229.742559 
L 499.773675 229.570366 
L 500.823132 229.026599 
L 501.099384 228.872531 
L 501.201692 228.763778 
L 501.590334 228.428454 
L 501.69662 228.238136 
L 501.969709 227.848436 
L 502.052347 227.821247 
L 502.381595 227.685305 
L 502.487315 227.504049 
L 503.660626 226.253384 
L 503.986096 226.126505 
L 504.092987 225.990563 
L 504.393571 225.65524 
L 504.74208 225.247414 
L 504.890525 225.029907 
L 505.237602 224.712709 
L 505.614432 224.549579 
L 505.705572 224.48614 
L 506.113263 224.223319 
L 507.089958 223.235474 
L 507.359772 223.09047 
L 507.467861 222.854837 
L 508.521804 221.586046 
L 508.819098 221.431979 
L 509.191859 220.861023 
L 509.303968 220.779458 
L 509.624723 220.471323 
L 509.715654 220.407883 
L 509.81751 220.253816 
L 509.901905 220.199439 
L 510.467946 219.900367 
L 510.735868 219.628483 
L 510.83896 219.420039 
L 511.067468 219.102841 
L 511.176428 218.966899 
L 511.371023 218.67689 
L 511.480653 218.423132 
L 511.779043 218.28719 
L 512.107452 218.151248 
L 512.24766 217.942804 
L 512.388652 217.788736 
L 512.495959 217.562166 
L 512.622232 217.389973 
L 512.878308 216.964022 
L 513.051451 216.737452 
L 513.187901 216.411192 
L 513.727864 216.202748 
L 513.84001 215.831173 
L 513.970354 215.613666 
L 514.075569 215.278343 
L 514.314059 214.988333 
L 514.577065 214.571445 
L 514.713555 214.42644 
L 515.044813 214.26331 
L 515.367367 214.136431 
L 515.559299 213.701417 
L 515.702651 213.465784 
L 515.813257 213.202963 
L 516.010034 212.70451 
L 516.392032 212.178868 
L 516.86588 212.033863 
L 516.956279 211.970424 
L 517.241214 211.807293 
L 517.376813 211.689477 
L 517.932763 211.399468 
L 518.018879 211.326965 
L 518.564469 211.14571 
L 519.723039 209.668474 
L 520.191632 209.532533 
L 520.297934 209.387528 
L 520.451432 209.269712 
L 520.596487 209.052205 
L 520.716247 208.825635 
L 520.83081 208.771258 
L 521.099122 208.5175 
L 521.202208 208.372495 
L 521.787933 207.991858 
L 521.891514 207.765288 
L 522.002837 207.593095 
L 522.102881 207.44809 
L 522.296792 207.194332 
L 522.408053 206.922448 
L 522.573017 206.741193 
L 522.729316 206.369618 
L 522.802571 206.152111 
L 523.187456 206.007106 
L 523.505225 205.635532 
L 523.611129 205.526778 
L 523.673826 205.390837 
L 523.750818 205.254895 
L 523.932375 205.128016 
L 524.238635 204.856132 
L 524.343462 204.638625 
L 524.406625 204.466432 
L 524.554198 204.312364 
L 524.928126 204.094857 
L 525.16413 203.578278 
L 525.327206 203.333583 
L 525.409649 203.188578 
L 525.563826 203.025448 
L 525.872543 202.662936 
L 526.046063 202.508869 
L 526.119508 202.445429 
L 526.535289 202.273236 
L 526.810332 201.974164 
L 526.907869 201.811034 
L 527.017206 201.629778 
L 527.179001 201.385082 
L 527.283724 201.240078 
L 527.365766 201.08601 
L 527.858365 200.515054 
L 528.325335 200.215982 
L 528.67778 199.699403 
L 528.790322 199.509084 
L 529.058791 199.019694 
L 529.228746 198.820312 
L 529.309227 198.639056 
L 529.700287 198.448738 
L 529.899825 198.267482 
L 530.010255 197.832468 
L 530.220481 197.560584 
L 530.316042 197.388391 
L 530.431896 197.216198 
L 530.534753 197.098382 
L 530.605358 196.96244 
L 530.695781 196.781184 
L 530.821922 196.627116 
L 530.924226 196.355233 
L 531.647146 195.738963 
L 531.984032 195.358326 
L 532.14387 195.213321 
L 532.243538 195.059253 
L 532.336051 194.905186 
L 532.441968 194.687679 
L 532.512956 194.5608 
L 532.675396 194.39767 
L 533.08825 194.207351 
L 533.188577 194.116723 
L 533.352389 193.962656 
L 533.442622 193.853902 
L 533.579823 193.71796 
L 533.686454 193.55483 
L 533.917665 193.400762 
L 534.810391 193.156067 
L 534.927173 193.029188 
L 535.034491 192.911372 
L 535.141352 192.71199 
L 535.211781 192.476358 
L 535.308334 192.349479 
L 535.401994 192.150097 
L 535.565966 191.968841 
L 535.672383 191.751334 
L 535.774748 191.624455 
L 535.875605 191.352571 
L 536.58213 190.953809 
L 536.728059 190.826929 
L 537.255027 190.663799 
L 537.285658 190.636611 
L 538.370206 190.437229 
L 538.788096 190.192534 
L 538.897885 189.92065 
L 539.005853 189.666892 
L 539.099959 189.485636 
L 539.546053 189.195627 
L 540.582019 188.162469 
L 540.676553 188.117155 
L 541.155468 187.881522 
L 541.392651 187.591513 
L 541.488095 187.437445 
L 542.070988 186.812112 
L 542.17682 186.522103 
L 542.57908 186.168654 
L 542.794981 186.02365 
L 543.411786 185.135496 
L 543.463376 185.008617 
L 543.515701 184.936115 
L 543.759464 184.800173 
L 543.975523 184.664231 
L 544.404622 184.519226 
L 545.49479 182.915112 
L 546.08704 182.579789 
L 546.171731 182.371344 
L 546.323005 182.208214 
L 546.431823 182.036021 
L 546.594166 181.891016 
L 546.719148 181.7732 
L 547.527957 181.32006 
L 547.722397 181.184119 
L 547.805807 181.129742 
L 547.972546 180.966612 
L 549.003747 179.815637 
L 549.242219 179.679695 
L 549.461802 179.380623 
L 549.568684 179.163116 
L 549.706142 178.927483 
L 549.815834 178.764353 
L 550.064716 178.265899 
L 550.223237 178.120895 
L 550.333223 177.994016 
L 551.207618 177.25993 
L 551.302198 176.997109 
L 551.421998 176.833978 
L 551.779965 176.172394 
L 552.287749 175.882385 
L 552.528435 175.73738 
L 552.665804 175.537999 
L 552.770973 175.338618 
L 553.331534 174.504841 
L 553.462682 174.305459 
L 553.897032 173.95201 
L 554.166852 173.78888 
L 554.34095 173.480745 
L 554.435204 173.326678 
L 554.552943 173.036668 
L 554.914586 172.538215 
L 555.022672 172.202891 
L 555.622336 171.795066 
L 555.759323 171.650061 
L 555.864326 171.495994 
L 555.988821 171.323801 
L 556.871377 169.656247 
L 557.027919 169.60187 
L 557.38016 169.456865 
L 557.380163 169.447803 
L 557.646753 169.320924 
L 557.733952 169.257484 
L 558.078251 169.058103 
L 558.162429 168.958412 
L 558.361881 168.82247 
L 558.367965 168.804344 
L 558.847396 168.668403 
L 559.134547 168.532461 
L 559.249177 168.405582 
L 559.352766 168.215263 
L 559.443183 168.034007 
L 559.553758 167.49024 
L 560.060015 166.919284 
L 560.889056 166.48427 
L 560.95015 166.402704 
L 561.142446 166.266763 
L 561.964381 165.487362 
L 562.255783 165.297044 
L 562.36606 165.152039 
L 562.474231 164.934532 
L 562.680851 164.807653 
L 562.786603 164.562958 
L 562.946083 164.363576 
L 563.055797 164.146069 
L 563.216205 163.992002 
L 563.659545 163.783558 
L 563.760921 163.711055 
L 564.679428 162.859153 
L 564.781675 162.677897 
L 564.893348 162.532892 
L 564.985346 162.451327 
L 565.438992 162.224757 
L 565.559976 162.088815 
L 565.72788 161.835057 
L 565.835249 161.590362 
L 566.107478 161.218787 
L 566.236218 160.883464 
L 566.361011 160.711271 
L 566.467587 160.439387 
L 566.685806 160.28532 
L 567.031406 160.113127 
L 567.166249 159.913745 
L 567.415829 159.678113 
L 567.517007 159.37904 
L 567.672707 159.107157 
L 567.766271 158.971215 
L 567.965456 158.762771 
L 569.332049 157.548356 
L 569.441818 157.330849 
L 569.54371 157.194908 
L 569.653672 157.031777 
L 570.332408 156.750831 
L 570.444239 156.48801 
L 571.471679 155.64517 
L 571.924052 155.463914 
L 572.018614 155.273596 
L 572.166692 155.110465 
L 572.268552 154.856707 
L 572.434427 154.684514 
L 572.534014 154.512321 
L 572.60274 154.376379 
L 572.709502 154.08637 
L 572.83335 153.905114 
L 572.944152 153.606042 
L 573.14016 153.433849 
L 573.496989 153.225405 
L 573.716812 152.944458 
L 573.820981 152.736014 
L 573.969036 152.572884 
L 574.304293 151.430972 
L 574.410214 151.240653 
L 574.547872 151.06846 
L 574.679686 150.932518 
L 576.148689 150.461253 
L 576.222114 150.343437 
L 576.696936 150.180306 
L 576.857833 149.989988 
L 576.968549 149.890297 
L 577.081137 149.763418 
L 577.342544 149.44622 
L 577.452474 149.319341 
L 577.757338 149.156211 
L 578.27692 149.020269 
L 578.427992 148.848076 
L 578.579856 148.621506 
L 578.672953 148.494627 
L 579.079104 148.05055 
L 579.18457 147.796792 
L 579.328585 147.642725 
L 579.422949 147.416155 
L 580.292673 146.845199 
L 580.400579 146.763634 
L 581.54552 145.757664 
L 581.732052 145.612659 
L 581.836791 145.467654 
L 583.171595 144.588564 
L 583.455139 144.425433 
L 583.61428 144.262303 
L 583.716303 144.162612 
L 584.006659 143.981357 
L 584.103821 143.92698 
L 584.833326 143.618845 
L 585.215399 143.392275 
L 585.666123 143.274459 
L 585.77584 143.183831 
L 586.204747 142.948198 
L 586.375578 142.812256 
L 586.482049 142.730691 
L 586.616882 142.558498 
L 586.72617 142.377242 
L 586.935802 141.842538 
L 587.046858 141.344084 
L 587.178357 141.144703 
L 587.278666 140.854693 
L 587.464524 140.664375 
L 587.565891 140.564684 
L 588.125642 140.392491 
L 588.229873 140.2928 
L 588.389319 140.075293 
L 588.499553 139.875912 
L 588.658443 139.721844 
L 588.759145 139.549651 
L 589.013558 139.323081 
L 589.123411 139.214328 
L 589.727766 138.842753 
L 589.928908 138.697749 
L 590.025966 138.588995 
L 590.268269 138.389614 
L 590.358689 138.308049 
L 590.596319 138.090542 
L 590.94181 137.845846 
L 591.525413 137.601151 
L 592.080948 137.066446 
L 592.184245 136.7855 
L 592.306318 136.604244 
L 592.414141 136.468302 
L 593.064379 136.151104 
L 593.55811 135.852032 
L 593.705704 135.71609 
L 593.793518 135.616399 
L 593.822895 135.498583 
L 593.913078 135.253888 
L 594.061212 135.09982 
L 595.288236 133.939783 
L 595.392886 133.695087 
L 595.526464 133.513832 
L 595.634312 133.450392 
L 596.092123 133.305387 
L 596.926896 132.707243 
L 597.031263 132.344731 
L 597.17746 132.163476 
L 597.287288 132.100036 
L 597.876066 131.69221 
L 598.000756 131.59252 
L 598.191568 131.384075 
L 598.284546 131.248133 
L 598.496173 131.07594 
L 598.598409 130.894685 
L 599.465519 130.323729 
L 599.569276 130.187787 
L 599.733125 130.042782 
L 600.210216 129.453701 
L 600.316703 129.317759 
L 601.207862 128.683363 
L 601.304479 128.619924 
L 601.697884 128.465856 
L 602.921036 127.976466 
L 603.011646 127.695519 
L 603.210396 127.550514 
L 603.307237 127.305819 
L 603.769368 126.970496 
L 603.859481 126.907056 
L 604.283298 126.653298 
L 604.479623 126.417665 
L 604.801332 125.955463 
L 604.966541 125.78327 
L 605.768616 125.33013 
L 605.863351 125.203251 
L 606.004054 125.076372 
L 606.219113 124.886053 
L 606.329899 124.804488 
L 606.535254 124.632295 
L 606.668036 124.478228 
L 606.772863 124.360411 
L 608.20565 123.082558 
L 608.329388 122.801611 
L 609.12309 122.285032 
L 609.219835 122.194404 
L 609.573897 121.995023 
L 609.678555 121.868144 
L 609.785018 121.732202 
L 609.895999 121.623448 
L 610.409501 121.360627 
L 610.752696 121.170309 
L 610.833097 121.079681 
L 611.214343 120.862174 
L 611.317318 120.680918 
L 611.536197 120.508725 
L 611.647122 120.381846 
L 612.196013 120.082774 
L 612.449833 119.937769 
L 612.560798 119.856204 
L 612.742737 119.593383 
L 613.057886 119.403064 
L 613.164389 119.239934 
L 613.249973 119.140243 
L 614.093022 118.795857 
L 614.274715 118.650852 
L 614.660847 118.442408 
L 614.906769 118.206776 
L 615.002972 118.079896 
L 615.35428 117.826138 
L 615.590515 117.681134 
L 615.706987 117.554254 
L 615.932458 117.363936 
L 616.02934 117.273308 
L 616.16795 117.128303 
L 616.258062 117.055801 
L 616.418382 116.901733 
L 616.529016 116.756729 
L 616.613236 116.657038 
L 616.805265 116.512033 
L 616.891648 116.421405 
L 617.191185 116.276401 
L 617.513506 115.85045 
L 617.62056 115.741696 
L 617.735954 115.524189 
L 617.811155 115.460749 
L 618.623218 115.188866 
L 618.694026 115.125426 
L 618.955799 114.962296 
L 619.094048 114.753852 
L 619.18573 114.61791 
L 619.494244 114.418528 
L 619.554255 114.309775 
L 619.740043 114.173833 
L 619.842921 114.010703 
L 621.144424 113.22224 
L 621.23902 113.077235 
L 621.450133 112.868791 
L 621.542502 112.823477 
L 622.14393 112.488154 
L 622.252462 112.306898 
L 622.441563 112.016888 
L 622.54011 111.844695 
L 622.615576 111.681565 
L 622.636364 111.6 
L 622.636364 111.6 
" style="fill:none;stroke:#92c6ff;stroke-linecap:round;stroke-width:1.5;"/>
   </g>
   <g id="line2d_26">
    <defs>
     <path d="M 0 2.5 
C 0.663008 2.5 1.29895 2.236584 1.767767 1.767767 
C 2.236584 1.29895 2.5 0.663008 2.5 0 
C 2.5 -0.663008 2.236584 -1.29895 1.767767 -1.767767 
C 1.29895 -2.236584 0.663008 -2.5 0 -2.5 
C -0.663008 -2.5 -1.29895 -2.236584 -1.767767 -1.767767 
C -2.236584 -1.29895 -2.5 -0.663008 -2.5 0 
C -2.5 0.663008 -2.236584 1.29895 -1.767767 1.767767 
C -1.29895 2.236584 -0.663008 2.5 0 2.5 
z
" id="mebacb9a6a0" style="stroke:#696969;"/>
    </defs>
    <g clip-path="url(#p7a5383163b)">
     <use style="fill:#696969;stroke:#696969;" x="115.363636" xlink:href="#mebacb9a6a0" y="615.6"/>
    </g>
   </g>
   <g id="line2d_27">
    <g clip-path="url(#p7a5383163b)">
     <use style="fill:#696969;stroke:#696969;" x="197.440635" xlink:href="#mebacb9a6a0" y="565.19275"/>
    </g>
   </g>
   <g id="line2d_28">
    <g clip-path="url(#p7a5383163b)">
     <use style="fill:#696969;stroke:#696969;" x="241.655714" xlink:href="#mebacb9a6a0" y="514.7855"/>
    </g>
   </g>
   <g id="line2d_29">
    <g clip-path="url(#p7a5383163b)">
     <use style="fill:#696969;stroke:#696969;" x="291.51853" xlink:href="#mebacb9a6a0" y="464.378249"/>
    </g>
   </g>
   <g id="line2d_30">
    <g clip-path="url(#p7a5383163b)">
     <use style="fill:#696969;stroke:#696969;" x="331.301835" xlink:href="#mebacb9a6a0" y="413.980062"/>
    </g>
   </g>
   <g id="line2d_31">
    <g clip-path="url(#p7a5383163b)">
     <use style="fill:#696969;stroke:#696969;" x="374.85722" xlink:href="#mebacb9a6a0" y="363.581874"/>
    </g>
   </g>
   <g id="line2d_32">
    <g clip-path="url(#p7a5383163b)">
     <use style="fill:#696969;stroke:#696969;" x="416.926977" xlink:href="#mebacb9a6a0" y="313.183687"/>
    </g>
   </g>
   <g id="line2d_33">
    <g clip-path="url(#p7a5383163b)">
     <use style="fill:#696969;stroke:#696969;" x="462.956726" xlink:href="#mebacb9a6a0" y="262.7855"/>
    </g>
   </g>
   <g id="line2d_34">
    <g clip-path="url(#p7a5383163b)">
     <use style="fill:#696969;stroke:#696969;" x="516.240435" xlink:href="#mebacb9a6a0" y="212.387312"/>
    </g>
   </g>
   <g id="line2d_35">
    <g clip-path="url(#p7a5383163b)">
     <use style="fill:#696969;stroke:#696969;" x="565.628788" xlink:href="#mebacb9a6a0" y="161.989125"/>
    </g>
   </g>
   <g id="line2d_36">
    <g clip-path="url(#p7a5383163b)">
     <use style="fill:#696969;stroke:#696969;" x="622.636364" xlink:href="#mebacb9a6a0" y="111.6"/>
    </g>
   </g>
   <g id="patch_3">
    <path d="M 90 640.8 
L 90 86.4 
" style="fill:none;stroke:#cccccc;stroke-linecap:square;stroke-linejoin:miter;"/>
   </g>
   <g id="patch_4">
    <path d="M 648 640.8 
L 648 86.4 
" style="fill:none;stroke:#cccccc;stroke-linecap:square;stroke-linejoin:miter;"/>
   </g>
   <g id="patch_5">
    <path d="M 90 640.8 
L 648 640.8 
" style="fill:none;stroke:#cccccc;stroke-linecap:square;stroke-linejoin:miter;"/>
   </g>
   <g id="patch_6">
    <path d="M 90 86.4 
L 648 86.4 
" style="fill:none;stroke:#cccccc;stroke-linecap:square;stroke-linejoin:miter;"/>
   </g>
   <g id="text_13">
    <!-- 1 (2014-06-07) -->
    <defs>
     <path id="DejaVuSans-32"/>
     <path d="M 31 75.875 
Q 24.46875 64.65625 21.28125 53.65625 
Q 18.109375 42.671875 18.109375 31.390625 
Q 18.109375 20.125 21.3125 9.0625 
Q 24.515625 -2 31 -13.1875 
L 23.1875 -13.1875 
Q 15.875 -1.703125 12.234375 9.375 
Q 8.59375 20.453125 8.59375 31.390625 
Q 8.59375 42.28125 12.203125 53.3125 
Q 15.828125 64.359375 23.1875 75.875 
z
" id="DejaVuSans-40"/>
     <path d="M 4.890625 31.390625 
L 31.203125 31.390625 
L 31.203125 23.390625 
L 4.890625 23.390625 
z
" id="DejaVuSans-45"/>
     <path d="M 8.015625 75.875 
L 15.828125 75.875 
Q 23.140625 64.359375 26.78125 53.3125 
Q 30.421875 42.28125 30.421875 31.390625 
Q 30.421875 20.453125 26.78125 9.375 
Q 23.140625 -1.703125 15.828125 -13.1875 
L 8.015625 -13.1875 
Q 14.5 -2 17.703125 9.0625 
Q 20.90625 20.125 20.90625 31.390625 
Q 20.90625 42.671875 17.703125 53.65625 
Q 14.5 64.65625 8.015625 75.875 
z
" id="DejaVuSans-41"/>
    </defs>
    <g style="fill:#262626;" transform="translate(120.363636 623.198437)scale(0.1 -0.1)">
     <use xlink:href="#DejaVuSans-49"/>
     <use x="63.623047" xlink:href="#DejaVuSans-32"/>
     <use x="95.410156" xlink:href="#DejaVuSans-40"/>
     <use x="134.423828" xlink:href="#DejaVuSans-50"/>
     <use x="198.046875" xlink:href="#DejaVuSans-48"/>
     <use x="261.669922" xlink:href="#DejaVuSans-49"/>
     <use x="325.292969" xlink:href="#DejaVuSans-52"/>
     <use x="388.916016" xlink:href="#DejaVuSans-45"/>
     <use x="425" xlink:href="#DejaVuSans-48"/>
     <use x="488.623047" xlink:href="#DejaVuSans-54"/>
     <use x="552.246094" xlink:href="#DejaVuSans-45"/>
     <use x="588.330078" xlink:href="#DejaVuSans-48"/>
     <use x="651.953125" xlink:href="#DejaVuSans-55"/>
     <use x="715.576172" xlink:href="#DejaVuSans-41"/>
    </g>
   </g>
   <g id="text_14">
    <!-- 5563 (2015-05-28) -->
    <g style="fill:#262626;" transform="translate(202.440635 572.791187)scale(0.1 -0.1)">
     <use xlink:href="#DejaVuSans-53"/>
     <use x="63.623047" xlink:href="#DejaVuSans-53"/>
     <use x="127.246094" xlink:href="#DejaVuSans-54"/>
     <use x="190.869141" xlink:href="#DejaVuSans-51"/>
     <use x="254.492188" xlink:href="#DejaVuSans-32"/>
     <use x="286.279297" xlink:href="#DejaVuSans-40"/>
     <use x="325.292969" xlink:href="#DejaVuSans-50"/>
     <use x="388.916016" xlink:href="#DejaVuSans-48"/>
     <use x="452.539062" xlink:href="#DejaVuSans-49"/>
     <use x="516.162109" xlink:href="#DejaVuSans-53"/>
     <use x="579.785156" xlink:href="#DejaVuSans-45"/>
     <use x="615.869141" xlink:href="#DejaVuSans-48"/>
     <use x="679.492188" xlink:href="#DejaVuSans-53"/>
     <use x="743.115234" xlink:href="#DejaVuSans-45"/>
     <use x="779.199219" xlink:href="#DejaVuSans-50"/>
     <use x="842.822266" xlink:href="#DejaVuSans-56"/>
     <use x="906.445312" xlink:href="#DejaVuSans-41"/>
    </g>
   </g>
   <g id="text_15">
    <!-- 11125 (2015-12-05) -->
    <g style="fill:#262626;" transform="translate(246.655714 522.383937)scale(0.1 -0.1)">
     <use xlink:href="#DejaVuSans-49"/>
     <use x="63.623047" xlink:href="#DejaVuSans-49"/>
     <use x="127.246094" xlink:href="#DejaVuSans-49"/>
     <use x="190.869141" xlink:href="#DejaVuSans-50"/>
     <use x="254.492188" xlink:href="#DejaVuSans-53"/>
     <use x="318.115234" xlink:href="#DejaVuSans-32"/>
     <use x="349.902344" xlink:href="#DejaVuSans-40"/>
     <use x="388.916016" xlink:href="#DejaVuSans-50"/>
     <use x="452.539062" xlink:href="#DejaVuSans-48"/>
     <use x="516.162109" xlink:href="#DejaVuSans-49"/>
     <use x="579.785156" xlink:href="#DejaVuSans-53"/>
     <use x="643.408203" xlink:href="#DejaVuSans-45"/>
     <use x="679.492188" xlink:href="#DejaVuSans-49"/>
     <use x="743.115234" xlink:href="#DejaVuSans-50"/>
     <use x="806.738281" xlink:href="#DejaVuSans-45"/>
     <use x="842.822266" xlink:href="#DejaVuSans-48"/>
     <use x="906.445312" xlink:href="#DejaVuSans-53"/>
     <use x="970.068359" xlink:href="#DejaVuSans-41"/>
    </g>
   </g>
   <g id="text_16">
    <!-- 16687 (2016-07-08) -->
    <g style="fill:#262626;" transform="translate(296.51853 471.976687)scale(0.1 -0.1)">
     <use xlink:href="#DejaVuSans-49"/>
     <use x="63.623047" xlink:href="#DejaVuSans-54"/>
     <use x="127.246094" xlink:href="#DejaVuSans-54"/>
     <use x="190.869141" xlink:href="#DejaVuSans-56"/>
     <use x="254.492188" xlink:href="#DejaVuSans-55"/>
     <use x="318.115234" xlink:href="#DejaVuSans-32"/>
     <use x="349.902344" xlink:href="#DejaVuSans-40"/>
     <use x="388.916016" xlink:href="#DejaVuSans-50"/>
     <use x="452.539062" xlink:href="#DejaVuSans-48"/>
     <use x="516.162109" xlink:href="#DejaVuSans-49"/>
     <use x="579.785156" xlink:href="#DejaVuSans-54"/>
     <use x="643.408203" xlink:href="#DejaVuSans-45"/>
     <use x="679.492188" xlink:href="#DejaVuSans-48"/>
     <use x="743.115234" xlink:href="#DejaVuSans-55"/>
     <use x="806.738281" xlink:href="#DejaVuSans-45"/>
     <use x="842.822266" xlink:href="#DejaVuSans-48"/>
     <use x="906.445312" xlink:href="#DejaVuSans-56"/>
     <use x="970.068359" xlink:href="#DejaVuSans-41"/>
    </g>
   </g>
   <g id="text_17">
    <!-- 22248 (2016-12-28) -->
    <g style="fill:#262626;" transform="translate(336.301835 421.578499)scale(0.1 -0.1)">
     <use xlink:href="#DejaVuSans-50"/>
     <use x="63.623047" xlink:href="#DejaVuSans-50"/>
     <use x="127.246094" xlink:href="#DejaVuSans-50"/>
     <use x="190.869141" xlink:href="#DejaVuSans-52"/>
     <use x="254.492188" xlink:href="#DejaVuSans-56"/>
     <use x="318.115234" xlink:href="#DejaVuSans-32"/>
     <use x="349.902344" xlink:href="#DejaVuSans-40"/>
     <use x="388.916016" xlink:href="#DejaVuSans-50"/>
     <use x="452.539062" xlink:href="#DejaVuSans-48"/>
     <use x="516.162109" xlink:href="#DejaVuSans-49"/>
     <use x="579.785156" xlink:href="#DejaVuSans-54"/>
     <use x="643.408203" xlink:href="#DejaVuSans-45"/>
     <use x="679.492188" xlink:href="#DejaVuSans-49"/>
     <use x="743.115234" xlink:href="#DejaVuSans-50"/>
     <use x="806.738281" xlink:href="#DejaVuSans-45"/>
     <use x="842.822266" xlink:href="#DejaVuSans-50"/>
     <use x="906.445312" xlink:href="#DejaVuSans-56"/>
     <use x="970.068359" xlink:href="#DejaVuSans-41"/>
    </g>
   </g>
   <g id="text_18">
    <!-- 27809 (2017-07-04) -->
    <g style="fill:#262626;" transform="translate(379.85722 371.180312)scale(0.1 -0.1)">
     <use xlink:href="#DejaVuSans-50"/>
     <use x="63.623047" xlink:href="#DejaVuSans-55"/>
     <use x="127.246094" xlink:href="#DejaVuSans-56"/>
     <use x="190.869141" xlink:href="#DejaVuSans-48"/>
     <use x="254.492188" xlink:href="#DejaVuSans-57"/>
     <use x="318.115234" xlink:href="#DejaVuSans-32"/>
     <use x="349.902344" xlink:href="#DejaVuSans-40"/>
     <use x="388.916016" xlink:href="#DejaVuSans-50"/>
     <use x="452.539062" xlink:href="#DejaVuSans-48"/>
     <use x="516.162109" xlink:href="#DejaVuSans-49"/>
     <use x="579.785156" xlink:href="#DejaVuSans-55"/>
     <use x="643.408203" xlink:href="#DejaVuSans-45"/>
     <use x="679.492188" xlink:href="#DejaVuSans-48"/>
     <use x="743.115234" xlink:href="#DejaVuSans-55"/>
     <use x="806.738281" xlink:href="#DejaVuSans-45"/>
     <use x="842.822266" xlink:href="#DejaVuSans-48"/>
     <use x="906.445312" xlink:href="#DejaVuSans-52"/>
     <use x="970.068359" xlink:href="#DejaVuSans-41"/>
    </g>
   </g>
   <g id="text_19">
    <!-- 33370 (2018-01-02) -->
    <g style="fill:#262626;" transform="translate(421.926977 320.782124)scale(0.1 -0.1)">
     <use xlink:href="#DejaVuSans-51"/>
     <use x="63.623047" xlink:href="#DejaVuSans-51"/>
     <use x="127.246094" xlink:href="#DejaVuSans-51"/>
     <use x="190.869141" xlink:href="#DejaVuSans-55"/>
     <use x="254.492188" xlink:href="#DejaVuSans-48"/>
     <use x="318.115234" xlink:href="#DejaVuSans-32"/>
     <use x="349.902344" xlink:href="#DejaVuSans-40"/>
     <use x="388.916016" xlink:href="#DejaVuSans-50"/>
     <use x="452.539062" xlink:href="#DejaVuSans-48"/>
     <use x="516.162109" xlink:href="#DejaVuSans-49"/>
     <use x="579.785156" xlink:href="#DejaVuSans-56"/>
     <use x="643.408203" xlink:href="#DejaVuSans-45"/>
     <use x="679.492188" xlink:href="#DejaVuSans-48"/>
     <use x="743.115234" xlink:href="#DejaVuSans-49"/>
     <use x="806.738281" xlink:href="#DejaVuSans-45"/>
     <use x="842.822266" xlink:href="#DejaVuSans-48"/>
     <use x="906.445312" xlink:href="#DejaVuSans-50"/>
     <use x="970.068359" xlink:href="#DejaVuSans-41"/>
    </g>
   </g>
   <g id="text_20">
    <!-- 38931 (2018-07-21) -->
    <g style="fill:#262626;" transform="translate(467.956726 270.383937)scale(0.1 -0.1)">
     <use xlink:href="#DejaVuSans-51"/>
     <use x="63.623047" xlink:href="#DejaVuSans-56"/>
     <use x="127.246094" xlink:href="#DejaVuSans-57"/>
     <use x="190.869141" xlink:href="#DejaVuSans-51"/>
     <use x="254.492188" xlink:href="#DejaVuSans-49"/>
     <use x="318.115234" xlink:href="#DejaVuSans-32"/>
     <use x="349.902344" xlink:href="#DejaVuSans-40"/>
     <use x="388.916016" xlink:href="#DejaVuSans-50"/>
     <use x="452.539062" xlink:href="#DejaVuSans-48"/>
     <use x="516.162109" xlink:href="#DejaVuSans-49"/>
     <use x="579.785156" xlink:href="#DejaVuSans-56"/>
     <use x="643.408203" xlink:href="#DejaVuSans-45"/>
     <use x="679.492188" xlink:href="#DejaVuSans-48"/>
     <use x="743.115234" xlink:href="#DejaVuSans-55"/>
     <use x="806.738281" xlink:href="#DejaVuSans-45"/>
     <use x="842.822266" xlink:href="#DejaVuSans-50"/>
     <use x="906.445312" xlink:href="#DejaVuSans-49"/>
     <use x="970.068359" xlink:href="#DejaVuSans-41"/>
    </g>
   </g>
   <g id="text_21">
    <!-- 44492 (2019-03-08) -->
    <g style="fill:#262626;" transform="translate(521.240435 219.98575)scale(0.1 -0.1)">
     <use xlink:href="#DejaVuSans-52"/>
     <use x="63.623047" xlink:href="#DejaVuSans-52"/>
     <use x="127.246094" xlink:href="#DejaVuSans-52"/>
     <use x="190.869141" xlink:href="#DejaVuSans-57"/>
     <use x="254.492188" xlink:href="#DejaVuSans-50"/>
     <use x="318.115234" xlink:href="#DejaVuSans-32"/>
     <use x="349.902344" xlink:href="#DejaVuSans-40"/>
     <use x="388.916016" xlink:href="#DejaVuSans-50"/>
     <use x="452.539062" xlink:href="#DejaVuSans-48"/>
     <use x="516.162109" xlink:href="#DejaVuSans-49"/>
     <use x="579.785156" xlink:href="#DejaVuSans-57"/>
     <use x="643.408203" xlink:href="#DejaVuSans-45"/>
     <use x="679.492188" xlink:href="#DejaVuSans-48"/>
     <use x="743.115234" xlink:href="#DejaVuSans-51"/>
     <use x="806.738281" xlink:href="#DejaVuSans-45"/>
     <use x="842.822266" xlink:href="#DejaVuSans-48"/>
     <use x="906.445312" xlink:href="#DejaVuSans-56"/>
     <use x="970.068359" xlink:href="#DejaVuSans-41"/>
    </g>
   </g>
   <g id="text_22">
    <!-- 50053 (2019-10-08) -->
    <g style="fill:#262626;" transform="translate(570.628788 169.587562)scale(0.1 -0.1)">
     <use xlink:href="#DejaVuSans-53"/>
     <use x="63.623047" xlink:href="#DejaVuSans-48"/>
     <use x="127.246094" xlink:href="#DejaVuSans-48"/>
     <use x="190.869141" xlink:href="#DejaVuSans-53"/>
     <use x="254.492188" xlink:href="#DejaVuSans-51"/>
     <use x="318.115234" xlink:href="#DejaVuSans-32"/>
     <use x="349.902344" xlink:href="#DejaVuSans-40"/>
     <use x="388.916016" xlink:href="#DejaVuSans-50"/>
     <use x="452.539062" xlink:href="#DejaVuSans-48"/>
     <use x="516.162109" xlink:href="#DejaVuSans-49"/>
     <use x="579.785156" xlink:href="#DejaVuSans-57"/>
     <use x="643.408203" xlink:href="#DejaVuSans-45"/>
     <use x="679.492188" xlink:href="#DejaVuSans-49"/>
     <use x="743.115234" xlink:href="#DejaVuSans-48"/>
     <use x="806.738281" xlink:href="#DejaVuSans-45"/>
     <use x="842.822266" xlink:href="#DejaVuSans-48"/>
     <use x="906.445312" xlink:href="#DejaVuSans-56"/>
     <use x="970.068359" xlink:href="#DejaVuSans-41"/>
    </g>
   </g>
   <g id="text_23">
    <!-- 55613 (2020-06-11) -->
    <g style="fill:#262626;" transform="translate(627.636364 119.198437)scale(0.1 -0.1)">
     <use xlink:href="#DejaVuSans-53"/>
     <use x="63.623047" xlink:href="#DejaVuSans-53"/>
     <use x="127.246094" xlink:href="#DejaVuSans-54"/>
     <use x="190.869141" xlink:href="#DejaVuSans-49"/>
     <use x="254.492188" xlink:href="#DejaVuSans-51"/>
     <use x="318.115234" xlink:href="#DejaVuSans-32"/>
     <use x="349.902344" xlink:href="#DejaVuSans-40"/>
     <use x="388.916016" xlink:href="#DejaVuSans-50"/>
     <use x="452.539062" xlink:href="#DejaVuSans-48"/>
     <use x="516.162109" xlink:href="#DejaVuSans-50"/>
     <use x="579.785156" xlink:href="#DejaVuSans-48"/>
     <use x="643.408203" xlink:href="#DejaVuSans-45"/>
     <use x="679.492188" xlink:href="#DejaVuSans-48"/>
     <use x="743.115234" xlink:href="#DejaVuSans-54"/>
     <use x="806.738281" xlink:href="#DejaVuSans-45"/>
     <use x="842.822266" xlink:href="#DejaVuSans-49"/>
     <use x="906.445312" xlink:href="#DejaVuSans-49"/>
     <use x="970.068359" xlink:href="#DejaVuSans-41"/>
    </g>
   </g>
   <g id="text_24">
    <!-- Closed PRs over time -->
    <defs>
     <path d="M 64.40625 67.28125 
L 64.40625 56.890625 
Q 59.421875 61.53125 53.78125 63.8125 
Q 48.140625 66.109375 41.796875 66.109375 
Q 29.296875 66.109375 22.65625 58.46875 
Q 16.015625 50.828125 16.015625 36.375 
Q 16.015625 21.96875 22.65625 14.328125 
Q 29.296875 6.6875 41.796875 6.6875 
Q 48.140625 6.6875 53.78125 8.984375 
Q 59.421875 11.28125 64.40625 15.921875 
L 64.40625 5.609375 
Q 59.234375 2.09375 53.4375 0.328125 
Q 47.65625 -1.421875 41.21875 -1.421875 
Q 24.65625 -1.421875 15.125 8.703125 
Q 5.609375 18.84375 5.609375 36.375 
Q 5.609375 53.953125 15.125 64.078125 
Q 24.65625 74.21875 41.21875 74.21875 
Q 47.75 74.21875 53.53125 72.484375 
Q 59.328125 70.75 64.40625 67.28125 
z
" id="DejaVuSans-67"/>
     <path d="M 9.421875 75.984375 
L 18.40625 75.984375 
L 18.40625 0 
L 9.421875 0 
z
" id="DejaVuSans-108"/>
     <path d="M 30.609375 48.390625 
Q 23.390625 48.390625 19.1875 42.75 
Q 14.984375 37.109375 14.984375 27.296875 
Q 14.984375 17.484375 19.15625 11.84375 
Q 23.34375 6.203125 30.609375 6.203125 
Q 37.796875 6.203125 41.984375 11.859375 
Q 46.1875 17.53125 46.1875 27.296875 
Q 46.1875 37.015625 41.984375 42.703125 
Q 37.796875 48.390625 30.609375 48.390625 
z
M 30.609375 56 
Q 42.328125 56 49.015625 48.375 
Q 55.71875 40.765625 55.71875 27.296875 
Q 55.71875 13.875 49.015625 6.21875 
Q 42.328125 -1.421875 30.609375 -1.421875 
Q 18.84375 -1.421875 12.171875 6.21875 
Q 5.515625 13.875 5.515625 27.296875 
Q 5.515625 40.765625 12.171875 48.375 
Q 18.84375 56 30.609375 56 
z
" id="DejaVuSans-111"/>
     <path d="M 44.28125 53.078125 
L 44.28125 44.578125 
Q 40.484375 46.53125 36.375 47.5 
Q 32.28125 48.484375 27.875 48.484375 
Q 21.1875 48.484375 17.84375 46.4375 
Q 14.5 44.390625 14.5 40.28125 
Q 14.5 37.15625 16.890625 35.375 
Q 19.28125 33.59375 26.515625 31.984375 
L 29.59375 31.296875 
Q 39.15625 29.25 43.1875 25.515625 
Q 47.21875 21.78125 47.21875 15.09375 
Q 47.21875 7.46875 41.1875 3.015625 
Q 35.15625 -1.421875 24.609375 -1.421875 
Q 20.21875 -1.421875 15.453125 -0.5625 
Q 10.6875 0.296875 5.421875 2 
L 5.421875 11.28125 
Q 10.40625 8.6875 15.234375 7.390625 
Q 20.0625 6.109375 24.8125 6.109375 
Q 31.15625 6.109375 34.5625 8.28125 
Q 37.984375 10.453125 37.984375 14.40625 
Q 37.984375 18.0625 35.515625 20.015625 
Q 33.0625 21.96875 24.703125 23.78125 
L 21.578125 24.515625 
Q 13.234375 26.265625 9.515625 29.90625 
Q 5.8125 33.546875 5.8125 39.890625 
Q 5.8125 47.609375 11.28125 51.796875 
Q 16.75 56 26.8125 56 
Q 31.78125 56 36.171875 55.265625 
Q 40.578125 54.546875 44.28125 53.078125 
z
" id="DejaVuSans-115"/>
     <path d="M 56.203125 29.59375 
L 56.203125 25.203125 
L 14.890625 25.203125 
Q 15.484375 15.921875 20.484375 11.0625 
Q 25.484375 6.203125 34.421875 6.203125 
Q 39.59375 6.203125 44.453125 7.46875 
Q 49.3125 8.734375 54.109375 11.28125 
L 54.109375 2.78125 
Q 49.265625 0.734375 44.1875 -0.34375 
Q 39.109375 -1.421875 33.890625 -1.421875 
Q 20.796875 -1.421875 13.15625 6.1875 
Q 5.515625 13.8125 5.515625 26.8125 
Q 5.515625 40.234375 12.765625 48.109375 
Q 20.015625 56 32.328125 56 
Q 43.359375 56 49.78125 48.890625 
Q 56.203125 41.796875 56.203125 29.59375 
z
M 47.21875 32.234375 
Q 47.125 39.59375 43.09375 43.984375 
Q 39.0625 48.390625 32.421875 48.390625 
Q 24.90625 48.390625 20.390625 44.140625 
Q 15.875 39.890625 15.1875 32.171875 
z
" id="DejaVuSans-101"/>
     <path d="M 45.40625 46.390625 
L 45.40625 75.984375 
L 54.390625 75.984375 
L 54.390625 0 
L 45.40625 0 
L 45.40625 8.203125 
Q 42.578125 3.328125 38.25 0.953125 
Q 33.9375 -1.421875 27.875 -1.421875 
Q 17.96875 -1.421875 11.734375 6.484375 
Q 5.515625 14.40625 5.515625 27.296875 
Q 5.515625 40.1875 11.734375 48.09375 
Q 17.96875 56 27.875 56 
Q 33.9375 56 38.25 53.625 
Q 42.578125 51.265625 45.40625 46.390625 
z
M 14.796875 27.296875 
Q 14.796875 17.390625 18.875 11.75 
Q 22.953125 6.109375 30.078125 6.109375 
Q 37.203125 6.109375 41.296875 11.75 
Q 45.40625 17.390625 45.40625 27.296875 
Q 45.40625 37.203125 41.296875 42.84375 
Q 37.203125 48.484375 30.078125 48.484375 
Q 22.953125 48.484375 18.875 42.84375 
Q 14.796875 37.203125 14.796875 27.296875 
z
" id="DejaVuSans-100"/>
     <path d="M 19.671875 64.796875 
L 19.671875 37.40625 
L 32.078125 37.40625 
Q 38.96875 37.40625 42.71875 40.96875 
Q 46.484375 44.53125 46.484375 51.125 
Q 46.484375 57.671875 42.71875 61.234375 
Q 38.96875 64.796875 32.078125 64.796875 
z
M 9.8125 72.90625 
L 32.078125 72.90625 
Q 44.34375 72.90625 50.609375 67.359375 
Q 56.890625 61.8125 56.890625 51.125 
Q 56.890625 40.328125 50.609375 34.8125 
Q 44.34375 29.296875 32.078125 29.296875 
L 19.671875 29.296875 
L 19.671875 0 
L 9.8125 0 
z
" id="DejaVuSans-80"/>
     <path d="M 44.390625 34.1875 
Q 47.5625 33.109375 50.5625 29.59375 
Q 53.5625 26.078125 56.59375 19.921875 
L 66.609375 0 
L 56 0 
L 46.6875 18.703125 
Q 43.0625 26.03125 39.671875 28.421875 
Q 36.28125 30.8125 30.421875 30.8125 
L 19.671875 30.8125 
L 19.671875 0 
L 9.8125 0 
L 9.8125 72.90625 
L 32.078125 72.90625 
Q 44.578125 72.90625 50.734375 67.671875 
Q 56.890625 62.453125 56.890625 51.90625 
Q 56.890625 45.015625 53.6875 40.46875 
Q 50.484375 35.9375 44.390625 34.1875 
z
M 19.671875 64.796875 
L 19.671875 38.921875 
L 32.078125 38.921875 
Q 39.203125 38.921875 42.84375 42.21875 
Q 46.484375 45.515625 46.484375 51.90625 
Q 46.484375 58.296875 42.84375 61.546875 
Q 39.203125 64.796875 32.078125 64.796875 
z
" id="DejaVuSans-82"/>
     <path d="M 2.984375 54.6875 
L 12.5 54.6875 
L 29.59375 8.796875 
L 46.6875 54.6875 
L 56.203125 54.6875 
L 35.6875 0 
L 23.484375 0 
z
" id="DejaVuSans-118"/>
     <path d="M 41.109375 46.296875 
Q 39.59375 47.171875 37.8125 47.578125 
Q 36.03125 48 33.890625 48 
Q 26.265625 48 22.1875 43.046875 
Q 18.109375 38.09375 18.109375 28.8125 
L 18.109375 0 
L 9.078125 0 
L 9.078125 54.6875 
L 18.109375 54.6875 
L 18.109375 46.1875 
Q 20.953125 51.171875 25.484375 53.578125 
Q 30.03125 56 36.53125 56 
Q 37.453125 56 38.578125 55.875 
Q 39.703125 55.765625 41.0625 55.515625 
z
" id="DejaVuSans-114"/>
     <path d="M 18.3125 70.21875 
L 18.3125 54.6875 
L 36.8125 54.6875 
L 36.8125 47.703125 
L 18.3125 47.703125 
L 18.3125 18.015625 
Q 18.3125 11.328125 20.140625 9.421875 
Q 21.96875 7.515625 27.59375 7.515625 
L 36.8125 7.515625 
L 36.8125 0 
L 27.59375 0 
Q 17.1875 0 13.234375 3.875 
Q 9.28125 7.765625 9.28125 18.015625 
L 9.28125 47.703125 
L 2.6875 47.703125 
L 2.6875 54.6875 
L 9.28125 54.6875 
L 9.28125 70.21875 
z
" id="DejaVuSans-116"/>
     <path d="M 9.421875 54.6875 
L 18.40625 54.6875 
L 18.40625 0 
L 9.421875 0 
z
M 9.421875 75.984375 
L 18.40625 75.984375 
L 18.40625 64.59375 
L 9.421875 64.59375 
z
" id="DejaVuSans-105"/>
     <path d="M 52 44.1875 
Q 55.375 50.25 60.0625 53.125 
Q 64.75 56 71.09375 56 
Q 79.640625 56 84.28125 50.015625 
Q 88.921875 44.046875 88.921875 33.015625 
L 88.921875 0 
L 79.890625 0 
L 79.890625 32.71875 
Q 79.890625 40.578125 77.09375 44.375 
Q 74.3125 48.1875 68.609375 48.1875 
Q 61.625 48.1875 57.5625 43.546875 
Q 53.515625 38.921875 53.515625 30.90625 
L 53.515625 0 
L 44.484375 0 
L 44.484375 32.71875 
Q 44.484375 40.625 41.703125 44.40625 
Q 38.921875 48.1875 33.109375 48.1875 
Q 26.21875 48.1875 22.15625 43.53125 
Q 18.109375 38.875 18.109375 30.90625 
L 18.109375 0 
L 9.078125 0 
L 9.078125 54.6875 
L 18.109375 54.6875 
L 18.109375 46.1875 
Q 21.1875 51.21875 25.484375 53.609375 
Q 29.78125 56 35.6875 56 
Q 41.65625 56 45.828125 52.96875 
Q 50 49.953125 52 44.1875 
z
" id="DejaVuSans-109"/>
    </defs>
    <g style="fill:#262626;" transform="translate(305.27625 80.4)scale(0.12 -0.12)">
     <use xlink:href="#DejaVuSans-67"/>
     <use x="69.824219" xlink:href="#DejaVuSans-108"/>
     <use x="97.607422" xlink:href="#DejaVuSans-111"/>
     <use x="158.789062" xlink:href="#DejaVuSans-115"/>
     <use x="210.888672" xlink:href="#DejaVuSans-101"/>
     <use x="272.412109" xlink:href="#DejaVuSans-100"/>
     <use x="335.888672" xlink:href="#DejaVuSans-32"/>
     <use x="367.675781" xlink:href="#DejaVuSans-80"/>
     <use x="427.978516" xlink:href="#DejaVuSans-82"/>
     <use x="497.460938" xlink:href="#DejaVuSans-115"/>
     <use x="549.560547" xlink:href="#DejaVuSans-32"/>
     <use x="581.347656" xlink:href="#DejaVuSans-111"/>
     <use x="642.529297" xlink:href="#DejaVuSans-118"/>
     <use x="701.708984" xlink:href="#DejaVuSans-101"/>
     <use x="763.232422" xlink:href="#DejaVuSans-114"/>
     <use x="804.345703" xlink:href="#DejaVuSans-32"/>
     <use x="836.132812" xlink:href="#DejaVuSans-116"/>
     <use x="875.341797" xlink:href="#DejaVuSans-105"/>
     <use x="903.125" xlink:href="#DejaVuSans-109"/>
     <use x="1000.537109" xlink:href="#DejaVuSans-101"/>
    </g>
   </g>
  </g>
 </g>
 <defs>
  <clipPath id="p7a5383163b">
   <rect height="554.4" width="558" x="90" y="86.4"/>
  </clipPath>
 </defs>
</svg>
