<?xml version="1.0" encoding="utf-8" standalone="no"?>
<!DOCTYPE svg PUBLIC "-//W3C//DTD SVG 1.1//EN"
  "http://www.w3.org/Graphics/SVG/1.1/DTD/svg11.dtd">
<!-- Created with matplotlib (https://matplotlib.org/) -->
<svg height="720pt" version="1.1" viewBox="0 0 720 720" width="720pt" xmlns="http://www.w3.org/2000/svg" xmlns:xlink="http://www.w3.org/1999/xlink">
 <defs>
  <style type="text/css">
*{stroke-linecap:butt;stroke-linejoin:round;}
  </style>
 </defs>
 <g id="figure_1">
  <g id="patch_1">
   <path d="M 0 720 
L 720 720 
L 720 0 
L 0 0 
z
" style="fill:#ffffff;"/>
  </g>
  <g id="axes_1">
   <g id="patch_2">
    <path d="M 90 640.8 
L 648 640.8 
L 648 86.4 
L 90 86.4 
z
" style="fill:#ffffff;"/>
   </g>
   <g id="matplotlib.axis_1">
    <g id="xtick_1">
     <g id="line2d_1">
      <path clip-path="url(#p5a259b5439)" d="M 162.416226 640.8 
L 162.416226 86.4 
" style="fill:none;stroke:#cccccc;stroke-linecap:round;stroke-width:0.8;"/>
     </g>
     <g id="line2d_2"/>
     <g id="text_1">
      <!-- 2015 -->
      <defs>
       <path d="M 19.1875 8.296875 
L 53.609375 8.296875 
L 53.609375 0 
L 7.328125 0 
L 7.328125 8.296875 
Q 12.9375 14.109375 22.625 23.890625 
Q 32.328125 33.6875 34.8125 36.53125 
Q 39.546875 41.84375 41.421875 45.53125 
Q 43.3125 49.21875 43.3125 52.78125 
Q 43.3125 58.59375 39.234375 62.25 
Q 35.15625 65.921875 28.609375 65.921875 
Q 23.96875 65.921875 18.8125 64.3125 
Q 13.671875 62.703125 7.8125 59.421875 
L 7.8125 69.390625 
Q 13.765625 71.78125 18.9375 73 
Q 24.125 74.21875 28.421875 74.21875 
Q 39.75 74.21875 46.484375 68.546875 
Q 53.21875 62.890625 53.21875 53.421875 
Q 53.21875 48.921875 51.53125 44.890625 
Q 49.859375 40.875 45.40625 35.40625 
Q 44.1875 33.984375 37.640625 27.21875 
Q 31.109375 20.453125 19.1875 8.296875 
z
" id="DejaVuSans-50"/>
       <path d="M 31.78125 66.40625 
Q 24.171875 66.40625 20.328125 58.90625 
Q 16.5 51.421875 16.5 36.375 
Q 16.5 21.390625 20.328125 13.890625 
Q 24.171875 6.390625 31.78125 6.390625 
Q 39.453125 6.390625 43.28125 13.890625 
Q 47.125 21.390625 47.125 36.375 
Q 47.125 51.421875 43.28125 58.90625 
Q 39.453125 66.40625 31.78125 66.40625 
z
M 31.78125 74.21875 
Q 44.046875 74.21875 50.515625 64.515625 
Q 56.984375 54.828125 56.984375 36.375 
Q 56.984375 17.96875 50.515625 8.265625 
Q 44.046875 -1.421875 31.78125 -1.421875 
Q 19.53125 -1.421875 13.0625 8.265625 
Q 6.59375 17.96875 6.59375 36.375 
Q 6.59375 54.828125 13.0625 64.515625 
Q 19.53125 74.21875 31.78125 74.21875 
z
" id="DejaVuSans-48"/>
       <path d="M 12.40625 8.296875 
L 28.515625 8.296875 
L 28.515625 63.921875 
L 10.984375 60.40625 
L 10.984375 69.390625 
L 28.421875 72.90625 
L 38.28125 72.90625 
L 38.28125 8.296875 
L 54.390625 8.296875 
L 54.390625 0 
L 12.40625 0 
z
" id="DejaVuSans-49"/>
       <path d="M 10.796875 72.90625 
L 49.515625 72.90625 
L 49.515625 64.59375 
L 19.828125 64.59375 
L 19.828125 46.734375 
Q 21.96875 47.46875 24.109375 47.828125 
Q 26.265625 48.1875 28.421875 48.1875 
Q 40.625 48.1875 47.75 41.5 
Q 54.890625 34.8125 54.890625 23.390625 
Q 54.890625 11.625 47.5625 5.09375 
Q 40.234375 -1.421875 26.90625 -1.421875 
Q 22.3125 -1.421875 17.546875 -0.640625 
Q 12.796875 0.140625 7.71875 1.703125 
L 7.71875 11.625 
Q 12.109375 9.234375 16.796875 8.0625 
Q 21.484375 6.890625 26.703125 6.890625 
Q 35.15625 6.890625 40.078125 11.328125 
Q 45.015625 15.765625 45.015625 23.390625 
Q 45.015625 31 40.078125 35.4375 
Q 35.15625 39.890625 26.703125 39.890625 
Q 22.75 39.890625 18.8125 39.015625 
Q 14.890625 38.140625 10.796875 36.28125 
z
" id="DejaVuSans-53"/>
      </defs>
      <g style="fill:#262626;" transform="translate(149.691226 651.898438)scale(0.1 -0.1)">
       <use xlink:href="#DejaVuSans-50"/>
       <use x="63.623047" xlink:href="#DejaVuSans-48"/>
       <use x="127.246094" xlink:href="#DejaVuSans-49"/>
       <use x="190.869141" xlink:href="#DejaVuSans-53"/>
      </g>
     </g>
    </g>
    <g id="xtick_2">
     <g id="line2d_3">
      <path clip-path="url(#p5a259b5439)" d="M 245.030465 640.8 
L 245.030465 86.4 
" style="fill:none;stroke:#cccccc;stroke-linecap:round;stroke-width:0.8;"/>
     </g>
     <g id="line2d_4"/>
     <g id="text_2">
      <!-- 2016 -->
      <defs>
       <path d="M 33.015625 40.375 
Q 26.375 40.375 22.484375 35.828125 
Q 18.609375 31.296875 18.609375 23.390625 
Q 18.609375 15.53125 22.484375 10.953125 
Q 26.375 6.390625 33.015625 6.390625 
Q 39.65625 6.390625 43.53125 10.953125 
Q 47.40625 15.53125 47.40625 23.390625 
Q 47.40625 31.296875 43.53125 35.828125 
Q 39.65625 40.375 33.015625 40.375 
z
M 52.59375 71.296875 
L 52.59375 62.3125 
Q 48.875 64.0625 45.09375 64.984375 
Q 41.3125 65.921875 37.59375 65.921875 
Q 27.828125 65.921875 22.671875 59.328125 
Q 17.53125 52.734375 16.796875 39.40625 
Q 19.671875 43.65625 24.015625 45.921875 
Q 28.375 48.1875 33.59375 48.1875 
Q 44.578125 48.1875 50.953125 41.515625 
Q 57.328125 34.859375 57.328125 23.390625 
Q 57.328125 12.15625 50.6875 5.359375 
Q 44.046875 -1.421875 33.015625 -1.421875 
Q 20.359375 -1.421875 13.671875 8.265625 
Q 6.984375 17.96875 6.984375 36.375 
Q 6.984375 53.65625 15.1875 63.9375 
Q 23.390625 74.21875 37.203125 74.21875 
Q 40.921875 74.21875 44.703125 73.484375 
Q 48.484375 72.75 52.59375 71.296875 
z
" id="DejaVuSans-54"/>
      </defs>
      <g style="fill:#262626;" transform="translate(232.305465 651.898438)scale(0.1 -0.1)">
       <use xlink:href="#DejaVuSans-50"/>
       <use x="63.623047" xlink:href="#DejaVuSans-48"/>
       <use x="127.246094" xlink:href="#DejaVuSans-49"/>
       <use x="190.869141" xlink:href="#DejaVuSans-54"/>
      </g>
     </g>
    </g>
    <g id="xtick_3">
     <g id="line2d_5">
      <path clip-path="url(#p5a259b5439)" d="M 327.871044 640.8 
L 327.871044 86.4 
" style="fill:none;stroke:#cccccc;stroke-linecap:round;stroke-width:0.8;"/>
     </g>
     <g id="line2d_6"/>
     <g id="text_3">
      <!-- 2017 -->
      <defs>
       <path d="M 8.203125 72.90625 
L 55.078125 72.90625 
L 55.078125 68.703125 
L 28.609375 0 
L 18.3125 0 
L 43.21875 64.59375 
L 8.203125 64.59375 
z
" id="DejaVuSans-55"/>
      </defs>
      <g style="fill:#262626;" transform="translate(315.146044 651.898438)scale(0.1 -0.1)">
       <use xlink:href="#DejaVuSans-50"/>
       <use x="63.623047" xlink:href="#DejaVuSans-48"/>
       <use x="127.246094" xlink:href="#DejaVuSans-49"/>
       <use x="190.869141" xlink:href="#DejaVuSans-55"/>
      </g>
     </g>
    </g>
    <g id="xtick_4">
     <g id="line2d_7">
      <path clip-path="url(#p5a259b5439)" d="M 410.485282 640.8 
L 410.485282 86.4 
" style="fill:none;stroke:#cccccc;stroke-linecap:round;stroke-width:0.8;"/>
     </g>
     <g id="line2d_8"/>
     <g id="text_4">
      <!-- 2018 -->
      <defs>
       <path d="M 31.78125 34.625 
Q 24.75 34.625 20.71875 30.859375 
Q 16.703125 27.09375 16.703125 20.515625 
Q 16.703125 13.921875 20.71875 10.15625 
Q 24.75 6.390625 31.78125 6.390625 
Q 38.8125 6.390625 42.859375 10.171875 
Q 46.921875 13.96875 46.921875 20.515625 
Q 46.921875 27.09375 42.890625 30.859375 
Q 38.875 34.625 31.78125 34.625 
z
M 21.921875 38.8125 
Q 15.578125 40.375 12.03125 44.71875 
Q 8.5 49.078125 8.5 55.328125 
Q 8.5 64.0625 14.71875 69.140625 
Q 20.953125 74.21875 31.78125 74.21875 
Q 42.671875 74.21875 48.875 69.140625 
Q 55.078125 64.0625 55.078125 55.328125 
Q 55.078125 49.078125 51.53125 44.71875 
Q 48 40.375 41.703125 38.8125 
Q 48.828125 37.15625 52.796875 32.3125 
Q 56.78125 27.484375 56.78125 20.515625 
Q 56.78125 9.90625 50.3125 4.234375 
Q 43.84375 -1.421875 31.78125 -1.421875 
Q 19.734375 -1.421875 13.25 4.234375 
Q 6.78125 9.90625 6.78125 20.515625 
Q 6.78125 27.484375 10.78125 32.3125 
Q 14.796875 37.15625 21.921875 38.8125 
z
M 18.3125 54.390625 
Q 18.3125 48.734375 21.84375 45.5625 
Q 25.390625 42.390625 31.78125 42.390625 
Q 38.140625 42.390625 41.71875 45.5625 
Q 45.3125 48.734375 45.3125 54.390625 
Q 45.3125 60.0625 41.71875 63.234375 
Q 38.140625 66.40625 31.78125 66.40625 
Q 25.390625 66.40625 21.84375 63.234375 
Q 18.3125 60.0625 18.3125 54.390625 
z
" id="DejaVuSans-56"/>
      </defs>
      <g style="fill:#262626;" transform="translate(397.760282 651.898438)scale(0.1 -0.1)">
       <use xlink:href="#DejaVuSans-50"/>
       <use x="63.623047" xlink:href="#DejaVuSans-48"/>
       <use x="127.246094" xlink:href="#DejaVuSans-49"/>
       <use x="190.869141" xlink:href="#DejaVuSans-56"/>
      </g>
     </g>
    </g>
    <g id="xtick_5">
     <g id="line2d_9">
      <path clip-path="url(#p5a259b5439)" d="M 493.099521 640.8 
L 493.099521 86.4 
" style="fill:none;stroke:#cccccc;stroke-linecap:round;stroke-width:0.8;"/>
     </g>
     <g id="line2d_10"/>
     <g id="text_5">
      <!-- 2019 -->
      <defs>
       <path d="M 10.984375 1.515625 
L 10.984375 10.5 
Q 14.703125 8.734375 18.5 7.8125 
Q 22.3125 6.890625 25.984375 6.890625 
Q 35.75 6.890625 40.890625 13.453125 
Q 46.046875 20.015625 46.78125 33.40625 
Q 43.953125 29.203125 39.59375 26.953125 
Q 35.25 24.703125 29.984375 24.703125 
Q 19.046875 24.703125 12.671875 31.3125 
Q 6.296875 37.9375 6.296875 49.421875 
Q 6.296875 60.640625 12.9375 67.421875 
Q 19.578125 74.21875 30.609375 74.21875 
Q 43.265625 74.21875 49.921875 64.515625 
Q 56.59375 54.828125 56.59375 36.375 
Q 56.59375 19.140625 48.40625 8.859375 
Q 40.234375 -1.421875 26.421875 -1.421875 
Q 22.703125 -1.421875 18.890625 -0.6875 
Q 15.09375 0.046875 10.984375 1.515625 
z
M 30.609375 32.421875 
Q 37.25 32.421875 41.125 36.953125 
Q 45.015625 41.5 45.015625 49.421875 
Q 45.015625 57.28125 41.125 61.84375 
Q 37.25 66.40625 30.609375 66.40625 
Q 23.96875 66.40625 20.09375 61.84375 
Q 16.21875 57.28125 16.21875 49.421875 
Q 16.21875 41.5 20.09375 36.953125 
Q 23.96875 32.421875 30.609375 32.421875 
z
" id="DejaVuSans-57"/>
      </defs>
      <g style="fill:#262626;" transform="translate(480.374521 651.898438)scale(0.1 -0.1)">
       <use xlink:href="#DejaVuSans-50"/>
       <use x="63.623047" xlink:href="#DejaVuSans-48"/>
       <use x="127.246094" xlink:href="#DejaVuSans-49"/>
       <use x="190.869141" xlink:href="#DejaVuSans-57"/>
      </g>
     </g>
    </g>
    <g id="xtick_6">
     <g id="line2d_11">
      <path clip-path="url(#p5a259b5439)" d="M 575.713759 640.8 
L 575.713759 86.4 
" style="fill:none;stroke:#cccccc;stroke-linecap:round;stroke-width:0.8;"/>
     </g>
     <g id="line2d_12"/>
     <g id="text_6">
      <!-- 2020 -->
      <g style="fill:#262626;" transform="translate(562.988759 651.898438)scale(0.1 -0.1)">
       <use xlink:href="#DejaVuSans-50"/>
       <use x="63.623047" xlink:href="#DejaVuSans-48"/>
       <use x="127.246094" xlink:href="#DejaVuSans-50"/>
       <use x="190.869141" xlink:href="#DejaVuSans-48"/>
      </g>
     </g>
    </g>
   </g>
   <g id="matplotlib.axis_2">
    <g id="ytick_1">
     <g id="line2d_13">
      <path clip-path="url(#p5a259b5439)" d="M 90 615.605614 
L 648 615.605614 
" style="fill:none;stroke:#cccccc;stroke-linecap:round;stroke-width:0.8;"/>
     </g>
     <g id="line2d_14"/>
     <g id="text_7">
      <!-- 0 -->
      <g style="fill:#262626;" transform="translate(80.1375 619.404833)scale(0.1 -0.1)">
       <use xlink:href="#DejaVuSans-48"/>
      </g>
     </g>
    </g>
    <g id="ytick_2">
     <g id="line2d_15">
      <path clip-path="url(#p5a259b5439)" d="M 90 503.323662 
L 648 503.323662 
" style="fill:none;stroke:#cccccc;stroke-linecap:round;stroke-width:0.8;"/>
     </g>
     <g id="line2d_16"/>
     <g id="text_8">
      <!-- 20000 -->
      <g style="fill:#262626;" transform="translate(54.6875 507.12288)scale(0.1 -0.1)">
       <use xlink:href="#DejaVuSans-50"/>
       <use x="63.623047" xlink:href="#DejaVuSans-48"/>
       <use x="127.246094" xlink:href="#DejaVuSans-48"/>
       <use x="190.869141" xlink:href="#DejaVuSans-48"/>
       <use x="254.492188" xlink:href="#DejaVuSans-48"/>
      </g>
     </g>
    </g>
    <g id="ytick_3">
     <g id="line2d_17">
      <path clip-path="url(#p5a259b5439)" d="M 90 391.041709 
L 648 391.041709 
" style="fill:none;stroke:#cccccc;stroke-linecap:round;stroke-width:0.8;"/>
     </g>
     <g id="line2d_18"/>
     <g id="text_9">
      <!-- 40000 -->
      <defs>
       <path d="M 37.796875 64.3125 
L 12.890625 25.390625 
L 37.796875 25.390625 
z
M 35.203125 72.90625 
L 47.609375 72.90625 
L 47.609375 25.390625 
L 58.015625 25.390625 
L 58.015625 17.1875 
L 47.609375 17.1875 
L 47.609375 0 
L 37.796875 0 
L 37.796875 17.1875 
L 4.890625 17.1875 
L 4.890625 26.703125 
z
" id="DejaVuSans-52"/>
      </defs>
      <g style="fill:#262626;" transform="translate(54.6875 394.840928)scale(0.1 -0.1)">
       <use xlink:href="#DejaVuSans-52"/>
       <use x="63.623047" xlink:href="#DejaVuSans-48"/>
       <use x="127.246094" xlink:href="#DejaVuSans-48"/>
       <use x="190.869141" xlink:href="#DejaVuSans-48"/>
       <use x="254.492188" xlink:href="#DejaVuSans-48"/>
      </g>
     </g>
    </g>
    <g id="ytick_4">
     <g id="line2d_19">
      <path clip-path="url(#p5a259b5439)" d="M 90 278.759757 
L 648 278.759757 
" style="fill:none;stroke:#cccccc;stroke-linecap:round;stroke-width:0.8;"/>
     </g>
     <g id="line2d_20"/>
     <g id="text_10">
      <!-- 60000 -->
      <g style="fill:#262626;" transform="translate(54.6875 282.558975)scale(0.1 -0.1)">
       <use xlink:href="#DejaVuSans-54"/>
       <use x="63.623047" xlink:href="#DejaVuSans-48"/>
       <use x="127.246094" xlink:href="#DejaVuSans-48"/>
       <use x="190.869141" xlink:href="#DejaVuSans-48"/>
       <use x="254.492188" xlink:href="#DejaVuSans-48"/>
      </g>
     </g>
    </g>
    <g id="ytick_5">
     <g id="line2d_21">
      <path clip-path="url(#p5a259b5439)" d="M 90 166.477804 
L 648 166.477804 
" style="fill:none;stroke:#cccccc;stroke-linecap:round;stroke-width:0.8;"/>
     </g>
     <g id="line2d_22"/>
     <g id="text_11">
      <!-- 80000 -->
      <g style="fill:#262626;" transform="translate(54.6875 170.277023)scale(0.1 -0.1)">
       <use xlink:href="#DejaVuSans-56"/>
       <use x="63.623047" xlink:href="#DejaVuSans-48"/>
       <use x="127.246094" xlink:href="#DejaVuSans-48"/>
       <use x="190.869141" xlink:href="#DejaVuSans-48"/>
       <use x="254.492188" xlink:href="#DejaVuSans-48"/>
      </g>
     </g>
    </g>
   </g>
   <g id="line2d_23">
    <path clip-path="url(#p5a259b5439)" d="M 115.363636 615.6 
L 116.663572 615.291225 
L 116.927001 615.13403 
L 117.77605 614.988063 
L 118.312972 614.825255 
L 118.456455 614.763499 
L 119.356883 614.628761 
L 119.461395 614.522093 
L 120.072952 614.387355 
L 120.343882 614.331214 
L 120.94601 614.213318 
L 121.045668 614.095422 
L 122.856802 613.8877 
L 123.311705 613.708049 
L 123.938117 613.567697 
L 124.364179 613.39366 
L 125.014185 613.197166 
L 125.887744 613.023129 
L 125.985324 612.961374 
L 126.222397 612.843478 
L 127.114417 612.529089 
L 127.579981 612.349437 
L 128.010567 612.220313 
L 128.0173 612.203471 
L 128.661506 612.085575 
L 128.925525 611.894696 
L 129.54832 611.765571 
L 129.594968 611.715044 
L 130.480575 611.580306 
L 130.719097 611.484866 
L 131.140077 611.361356 
L 131.605736 611.310829 
L 131.860106 611.192933 
L 131.957053 611.142406 
L 132.350141 610.985212 
L 132.361202 610.968369 
L 133.395231 610.805561 
L 133.493524 610.726963 
L 133.665855 610.609067 
L 133.728675 610.569769 
L 134.053337 610.440644 
L 134.33177 610.272221 
L 135.428462 610.154325 
L 135.545719 610.0645 
L 135.908445 609.935375 
L 135.983745 609.896077 
L 136.772803 609.75011 
L 136.864555 609.609758 
L 137.26403 609.486248 
L 137.348022 609.446949 
L 138.5963 609.25607 
L 138.692812 609.205543 
L 139.750809 609.042734 
L 139.827311 608.958523 
L 140.192029 608.829398 
L 141.000886 608.582378 
L 141.530654 608.44764 
L 142.48707 608.122022 
L 142.954544 608.004126 
L 143.225859 607.773948 
L 143.560285 607.650438 
L 143.851201 607.386575 
L 144.704425 607.246223 
L 144.761521 607.184468 
L 144.980898 607.066572 
L 147.028941 606.286212 
L 147.725145 606.168316 
L 147.767183 606.14586 
L 148.103468 606.016735 
L 148.155561 605.960594 
L 148.42904 605.842698 
L 148.537942 605.809014 
L 148.756638 605.752873 
L 149.291784 605.58445 
L 150.209707 605.107252 
L 150.875106 604.978127 
L 150.930153 604.9276 
L 151.145035 604.80409 
L 151.365274 604.697422 
L 151.732784 604.528999 
L 151.827475 604.416718 
L 152.414634 604.287593 
L 152.593359 604.164083 
L 153.370045 603.793553 
L 153.394154 603.782325 
L 154.010067 603.670043 
L 154.277617 603.490391 
L 155.573801 603.327583 
L 155.681606 603.243371 
L 155.855773 603.125475 
L 155.99257 603.041264 
L 156.384587 602.822314 
L 157.182345 602.659505 
L 157.221208 602.620206 
L 157.431333 602.50231 
L 157.454863 602.429327 
L 157.823352 602.305817 
L 157.932208 602.148622 
L 158.140946 602.030726 
L 158.796985 601.811776 
L 158.81821 601.78932 
L 159.018356 601.671424 
L 159.036513 601.514229 
L 159.303037 601.396333 
L 159.49376 601.222296 
L 159.712097 601.059487 
L 159.743544 601.020188 
L 160.389958 600.879836 
L 160.419657 600.862994 
L 162.14524 600.6665 
L 162.206198 600.627202 
L 163.551362 600.464393 
L 163.601162 600.41948 
L 163.778828 600.301584 
L 163.844176 600.245443 
L 163.960797 600.127547 
L 164.060447 599.992809 
L 164.225039 599.874913 
L 165.532581 599.324731 
L 165.956941 598.864375 
L 166.979876 598.493845 
L 167.701202 597.921207 
L 168.3506 597.803311 
L 168.461041 597.730327 
L 168.533394 597.505763 
L 168.587097 597.466465 
L 168.722571 597.348569 
L 168.827057 597.196988 
L 168.979122 597.079092 
L 169.472552 596.8433 
L 169.844169 596.725404 
L 169.940235 596.573823 
L 170.081876 596.455927 
L 170.189943 596.304346 
L 170.320655 596.180836 
L 170.856938 595.546443 
L 171.478724 595.417319 
L 171.74853 595.215212 
L 171.897626 595.097315 
L 172.132248 594.794154 
L 172.215601 594.738013 
L 172.350328 594.614503 
L 172.463768 594.530292 
L 173.223937 594.412396 
L 173.326033 594.193446 
L 173.493614 594.07555 
L 173.570368 593.974496 
L 173.693747 593.8566 
L 173.760743 593.721862 
L 173.9017 593.598351 
L 173.970008 593.379402 
L 174.586663 593.244663 
L 174.658157 593.098697 
L 175.003315 592.975187 
L 175.299009 592.767465 
L 175.437813 592.655183 
L 175.544607 592.526059 
L 175.743812 592.408163 
L 176.178236 592.290267 
L 176.673026 591.672716 
L 176.824831 591.594119 
L 177.037484 591.369555 
L 177.147872 591.144991 
L 177.150884 591.133763 
L 177.756819 591.004638 
L 177.852377 590.824987 
L 177.964298 590.712705 
L 178.081872 590.426386 
L 178.195312 590.30849 
L 178.318885 589.999715 
L 178.423373 589.881819 
L 178.529672 589.668483 
L 178.67135 589.528131 
L 178.715921 589.359708 
L 179.322455 589.236198 
L 179.393705 588.949879 
L 179.55775 588.831983 
L 179.631279 588.66356 
L 179.804094 588.545664 
L 180.49662 587.838287 
L 180.948732 587.669864 
L 181.016702 587.551968 
L 181.127575 587.434072 
L 181.267034 587.164596 
L 181.370707 587.041085 
L 181.440302 586.777223 
L 181.597339 586.659327 
L 181.67988 586.367394 
L 181.81494 586.243884 
L 181.916141 586.024934 
L 182.522301 585.794756 
L 182.653062 585.637561 
L 182.741809 585.514051 
L 183.044922 584.969483 
L 183.203748 584.778604 
L 183.332183 584.565268 
L 183.444784 584.436144 
L 183.476608 584.368775 
L 184.110749 584.239651 
L 184.376468 583.796137 
L 184.568609 583.672627 
L 184.702068 583.554731 
L 184.765625 583.425607 
L 184.885475 583.245955 
L 185.01784 583.105603 
L 185.114016 582.993321 
L 185.667887 582.852969 
L 185.807128 582.678932 
L 185.912615 582.555421 
L 186.808679 581.53927 
L 187.261677 581.404531 
L 187.397803 581.078914 
L 187.505483 580.944175 
L 187.564153 580.826279 
L 187.702278 580.708383 
L 187.854718 580.478205 
L 187.957681 580.343467 
L 188.059024 580.158202 
L 188.162726 580.029077 
L 188.268685 579.911181 
L 188.831452 579.793285 
L 188.989094 579.48451 
L 189.068308 579.338543 
L 189.171998 579.153278 
L 189.292013 579.001698 
L 189.462161 578.878187 
L 189.539298 578.726607 
L 189.699211 578.541342 
L 189.776371 578.400989 
L 189.815132 578.311164 
L 190.380482 578.176425 
L 190.483014 577.862036 
L 190.670732 577.6487 
L 190.998017 577.238871 
L 191.111326 577.076062 
L 191.194786 576.902025 
L 191.362598 576.761673 
L 191.559066 576.683075 
L 191.975074 576.570793 
L 192.305101 575.9364 
L 192.464747 575.801662 
L 192.548152 575.638853 
L 192.692384 575.509729 
L 192.770553 575.31885 
L 192.919733 575.195339 
L 193.013554 575.021302 
L 193.572028 574.892178 
L 193.689767 574.459893 
L 193.830748 574.31954 
L 193.876875 574.229715 
L 194.256768 574.106204 
L 194.364395 573.791815 
L 194.521034 573.623392 
L 194.602831 573.477426 
L 195.392711 573.342687 
L 195.581449 573.095667 
L 195.648012 572.972157 
L 195.77164 572.79812 
L 195.892748 572.652153 
L 196.136674 572.057059 
L 196.758639 571.849337 
L 196.856471 571.680914 
L 197.009442 571.55179 
L 197.115934 571.299156 
L 197.219228 571.175646 
L 197.322716 570.928625 
L 197.452257 570.793887 
L 197.544106 570.61985 
L 197.88342 570.299846 
L 198.351496 570.142652 
L 198.500255 569.968615 
L 198.574117 569.850718 
L 198.756216 569.631769 
L 198.824862 569.49703 
L 198.986006 569.351064 
L 199.029446 569.227554 
L 199.167335 569.019832 
L 199.280495 568.862637 
L 199.354428 568.654916 
L 199.925827 568.525791 
L 200.03418 568.329298 
L 200.193428 568.172103 
L 200.356183 567.969996 
L 200.415026 567.840872 
L 200.507585 567.694905 
L 200.641471 567.548938 
L 200.752085 567.257005 
L 200.846459 567.077354 
L 200.942643 566.892089 
L 201.756651 566.566471 
L 201.915715 566.409277 
L 201.991181 566.285766 
L 202.09755 566.117344 
L 202.195563 565.993833 
L 202.27682 565.875937 
L 202.439898 565.741199 
L 202.537706 565.600847 
L 203.10133 565.471722 
L 203.219556 565.258387 
L 203.373856 565.045051 
L 203.482929 564.887856 
L 203.56324 564.764346 
L 203.653831 564.595923 
L 204.691667 564.270305 
L 205.028771 563.703282 
L 205.15254 563.557315 
L 205.195822 563.355208 
L 205.460187 562.793798 
L 205.627441 562.56362 
L 205.73353 562.389583 
L 206.258019 562.243616 
L 206.379928 561.912384 
L 207.221451 560.666055 
L 207.294081 560.609914 
L 207.455642 560.497632 
L 207.513223 560.357279 
L 207.848196 560.228155 
L 208.120187 559.863239 
L 208.363417 559.739729 
L 208.47682 559.582534 
L 208.587064 559.341128 
L 208.860077 558.678664 
L 208.917348 558.667436 
L 209.405232 558.54954 
L 209.493138 558.364275 
L 209.711672 558.263221 
L 209.887782 558.134097 
L 210.015715 557.887076 
L 210.137899 557.76918 
L 210.420578 557.314438 
L 211.087743 557.050576 
L 211.203884 556.949522 
L 211.304791 556.820398 
L 211.404347 556.663203 
L 211.515426 556.539693 
L 211.64503 556.365656 
L 211.981638 555.944599 
L 212.574665 555.725649 
L 212.675589 555.43933 
L 212.825903 555.298977 
L 212.960385 555.119326 
L 213.144375 554.816165 
L 213.271176 554.687041 
L 213.383555 554.518618 
L 213.570678 554.327739 
L 213.618448 554.282826 
L 214.104949 554.16493 
L 214.66122 553.435097 
L 214.777012 553.160006 
L 215.006929 552.840003 
L 215.121251 552.688422 
L 215.459835 552.531227 
L 215.772674 552.413331 
L 215.874637 552.239294 
L 216.031933 552.082099 
L 216.145402 551.481391 
L 216.256437 551.346653 
L 216.37201 550.936824 
L 216.48879 550.813313 
L 216.708909 550.515766 
L 216.900716 550.39787 
L 217.337679 550.279974 
L 217.913254 549.538913 
L 218.082643 549.421017 
L 218.17786 549.275051 
L 218.248254 549.145926 
L 218.356682 548.966275 
L 219.091772 548.820309 
L 219.342366 548.545218 
L 219.471644 548.326268 
L 219.967126 547.84907 
L 220.507652 547.72556 
L 220.645919 547.529066 
L 220.819213 547.298888 
L 220.929819 547.147308 
L 221.685644 546.131156 
L 222.162164 545.872908 
L 222.470534 545.564132 
L 222.61677 545.440622 
L 222.730393 545.2329 
L 222.99075 544.873598 
L 223.040692 544.744474 
L 223.14884 544.587279 
L 223.74952 544.452541 
L 224.004213 544.143765 
L 224.115887 543.952886 
L 224.507566 543.385862 
L 224.575887 543.194983 
L 224.801329 542.874979 
L 225.285352 542.700942 
L 225.403298 542.263043 
L 225.576351 542.055321 
L 225.733702 541.87567 
L 225.953873 541.510754 
L 226.090448 541.201978 
L 226.273346 540.859518 
L 226.4422 540.730394 
L 226.463168 540.707938 
L 226.874198 540.590042 
L 226.985359 540.326179 
L 227.137725 540.112843 
L 227.263137 539.927578 
L 227.349023 539.764769 
L 227.499244 539.540205 
L 227.633203 539.259501 
L 227.775329 539.051779 
L 227.947686 538.810373 
L 228.377609 538.658792 
L 228.486782 538.484755 
L 228.830217 537.940188 
L 228.946868 537.743694 
L 229.366394 537.288952 
L 229.492278 537.047546 
L 229.775544 536.856667 
L 229.995749 536.733157 
L 230.144136 536.424381 
L 231.171383 534.622256 
L 231.682988 534.453833 
L 231.815269 534.274182 
L 232.904823 533.286101 
L 233.183656 533.156976 
L 233.272343 533.033466 
L 233.442502 532.8875 
L 233.56762 532.79206 
L 233.801099 532.54504 
L 233.895866 532.42153 
L 234.087774 532.253107 
L 234.164894 532.101526 
L 234.192721 532.073456 
L 234.786778 531.944331 
L 234.969844 531.686083 
L 235.831509 530.765371 
L 236.275872 530.596948 
L 236.442476 530.248874 
L 236.604741 530.108521 
L 236.994419 529.687464 
L 237.430478 529.389917 
L 237.917154 529.238336 
L 238.272862 528.727453 
L 238.414451 528.547802 
L 238.538296 528.334467 
L 238.655372 528.076218 
L 238.914076 527.778671 
L 239.010061 527.666389 
L 239.333605 527.509194 
L 239.645014 527.290244 
L 239.934046 527.054452 
L 240.043598 526.81866 
L 240.181074 526.633395 
L 240.331093 526.425673 
L 241.256398 525.751982 
L 241.384712 525.510575 
L 241.56651 525.342153 
L 241.672222 525.117589 
L 241.790661 524.881797 
L 242.013603 524.718988 
L 242.068792 524.589863 
L 242.283271 524.427055 
L 242.666789 524.275474 
L 242.77183 524.140736 
L 242.94228 524.017225 
L 243.040526 523.9274 
L 243.65017 523.702836 
L 244.387023 523.58494 
L 244.702118 523.427745 
L 245.669446 523.220024 
L 245.901722 523.096513 
L 246.473363 522.658614 
L 246.70128 522.52949 
L 246.925491 522.405979 
L 247.3719 522.276855 
L 248.368615 521.328073 
L 248.622973 521.114737 
L 248.805347 521.06421 
L 249.201045 520.9407 
L 249.304936 520.878945 
L 249.616751 520.620696 
L 249.768171 520.272622 
L 249.880991 520.03683 
L 249.992235 519.874021 
L 250.171233 519.722441 
L 250.619701 519.587702 
L 251.000351 518.998222 
L 251.138694 518.869098 
L 251.215972 518.812957 
L 251.323929 518.689447 
L 251.96471 517.70698 
L 252.224588 517.527329 
L 252.582971 516.909778 
L 252.727742 516.769425 
L 252.978584 516.314684 
L 253.093138 516.140647 
L 253.292941 515.764502 
L 253.416582 515.62415 
L 253.828584 515.30976 
L 254.086096 514.804491 
L 254.220756 514.591156 
L 254.625858 513.855709 
L 254.705975 513.732199 
L 254.828343 513.502021 
L 255.016428 513.367282 
L 255.426631 513.036051 
L 257.284063 510.453566 
L 257.389534 510.262686 
L 257.464305 510.071807 
L 257.578133 509.819173 
L 257.892748 509.386887 
L 258.10012 508.847934 
L 258.556332 508.600913 
L 258.651583 508.359507 
L 258.77234 508.129329 
L 258.82842 507.960906 
L 259.388871 506.894228 
L 259.555148 506.478785 
L 259.688154 506.287905 
L 259.821003 506.141939 
L 260.10253 505.97913 
L 260.265767 505.737724 
L 260.600976 505.507546 
L 260.715768 505.327894 
L 260.849534 505.193156 
L 260.956284 505.024733 
L 261.068906 504.794555 
L 261.341626 504.58122 
L 261.759145 504.412797 
L 261.865942 504.255602 
L 262.005429 504.04788 
L 262.08836 503.946826 
L 262.17761 503.817702 
L 262.432992 503.514541 
L 262.569881 503.228222 
L 262.865674 503.009272 
L 262.98575 502.953131 
L 263.357365 502.812779 
L 263.651442 502.515232 
L 264.088785 502.167158 
L 264.399039 501.998735 
L 265.230722 501.673117 
L 265.727898 501.268902 
L 265.970834 501.078023 
L 266.226457 500.960127 
L 266.575061 500.836616 
L 266.885314 500.673808 
L 266.970051 500.544683 
L 267.089715 500.409945 
L 267.367577 500.258364 
L 267.478926 500.039415 
L 268.098973 499.904676 
L 268.35971 499.730639 
L 268.671622 499.438706 
L 268.781981 499.264669 
L 269.132513 498.899753 
L 269.433918 498.725716 
L 270.101446 497.900443 
L 270.270544 497.698336 
L 270.911027 497.294121 
L 271.264197 497.136926 
L 271.362359 496.822537 
L 271.493141 496.699026 
L 271.747509 496.384637 
L 272.249419 495.986036 
L 272.829367 495.851298 
L 273.749228 494.81269 
L 273.828384 494.537599 
L 274.285647 494.37479 
L 274.705304 493.858293 
L 274.815765 493.746011 
L 274.984195 493.56636 
L 275.183275 493.330568 
L 275.342051 493.134074 
L 275.429308 492.999336 
L 275.707735 492.825299 
L 275.78927 492.780386 
L 275.908164 492.651262 
L 276.017394 492.51091 
L 276.194629 492.179678 
L 276.311789 491.988799 
L 276.785071 491.253352 
L 276.889711 491.056858 
L 277.047445 490.860365 
L 277.623361 490.298955 
L 277.765572 490.192287 
L 278.024035 489.793686 
L 278.135558 489.574737 
L 278.475862 488.968414 
L 278.591039 488.676481 
L 278.749689 488.513672 
L 278.920621 488.384548 
L 279.16527 488.115071 
L 279.384545 487.980333 
L 279.492185 487.856823 
L 279.626916 487.637873 
L 279.75288 487.475064 
L 279.812271 487.295413 
L 279.923298 487.09892 
L 280.079025 486.863127 
L 280.228164 486.66102 
L 280.989563 485.948029 
L 281.322865 485.41469 
L 281.485838 485.133985 
L 281.594282 484.954334 
L 281.709108 484.791525 
L 281.83024 484.690472 
L 282.316313 484.308713 
L 282.489288 484.039236 
L 282.797368 483.657478 
L 282.945288 483.4273 
L 283.057201 483.20835 
L 283.159659 483.08484 
L 283.253805 482.899574 
L 283.361032 482.703081 
L 283.533103 482.562729 
L 283.574813 482.534658 
L 283.764664 482.416762 
L 284.72107 480.794288 
L 284.837507 480.653935 
L 284.944471 480.378845 
L 285.773267 479.50866 
L 285.924499 479.323394 
L 286.318483 478.655317 
L 286.434032 478.520578 
L 286.538274 478.374612 
L 287.193687 478.211803 
L 287.303899 478.121977 
L 287.656904 477.768289 
L 287.763721 477.60548 
L 288.402999 477.11144 
L 288.653066 476.982316 
L 288.749093 476.819507 
L 288.918657 476.656698 
L 289.087461 476.437748 
L 289.145165 476.30301 
L 289.551326 475.752828 
L 289.780039 475.550721 
L 290.248758 475.281244 
L 290.386443 474.966855 
L 290.508483 474.674921 
L 290.603997 474.37176 
L 290.685024 474.24825 
L 291.354989 473.293853 
L 291.870392 473.041219 
L 291.968958 472.968236 
L 292.123412 472.844726 
L 292.338524 472.637004 
L 292.77064 472.204719 
L 292.880879 472.098051 
L 293.455084 471.9184 
L 293.56537 471.772433 
L 294.544339 470.189257 
L 294.970792 470.054519 
L 295.736965 469.021525 
L 295.854793 468.802575 
L 296.026298 468.510642 
L 296.133422 468.443273 
L 296.579598 468.27485 
L 297.296858 467.011678 
L 297.66698 466.248161 
L 297.914367 465.995527 
L 298.175418 465.585697 
L 298.289571 465.28815 
L 298.413102 465.119727 
L 298.565942 464.855865 
L 298.676985 464.72674 
L 298.818039 464.474106 
L 298.906579 464.249542 
L 299.029806 463.996908 
L 299.136754 463.845327 
L 299.393402 463.699361 
L 299.74528 463.57585 
L 299.809129 463.401813 
L 299.957529 463.126723 
L 300.008372 462.947072 
L 300.404218 462.42496 
L 300.510732 462.161098 
L 300.713993 461.841094 
L 300.869201 461.689514 
L 301.243009 461.560389 
L 301.758732 460.813714 
L 301.836447 460.594765 
L 301.943862 460.448798 
L 302.020095 460.21862 
L 302.212966 459.909845 
L 302.28753 459.763878 
L 302.396561 459.612298 
L 302.814573 459.073344 
L 302.921178 458.837552 
L 303.051557 458.60176 
L 303.161249 458.489478 
L 303.438615 457.950525 
L 303.572541 457.770874 
L 303.753378 457.434028 
L 304.067632 457.029813 
L 304.147639 456.934373 
L 304.491533 456.771564 
L 304.665603 456.434718 
L 304.828798 456.131557 
L 304.98791 455.935064 
L 305.234715 455.441023 
L 305.355632 455.222073 
L 305.664736 454.924526 
L 306.053583 454.761717 
L 306.194246 454.486626 
L 306.303775 454.267677 
L 306.425017 454.116096 
L 306.535703 453.869076 
L 306.692528 453.627669 
L 306.806149 453.487317 
L 307.296542 453.010119 
L 307.722502 452.87538 
L 308.724569 451.095711 
L 309.215964 450.865533 
L 309.613257 450.343422 
L 309.724986 450.07956 
L 309.749354 449.933593 
L 309.896651 449.400254 
L 310.079746 449.085865 
L 310.275038 448.664807 
L 310.514356 448.39533 
L 310.807993 448.260592 
L 310.91704 448.058485 
L 311.10949 447.749709 
L 311.953805 446.739172 
L 312.376763 446.53145 
L 313.702934 444.656341 
L 314.402229 443.825455 
L 314.504517 443.606505 
L 314.663495 443.410012 
L 316.044184 441.388937 
L 316.167838 441.186829 
L 316.80977 440.485067 
L 317.134809 440.361557 
L 317.826628 438.879435 
L 317.969581 438.329253 
L 318.069459 438.183287 
L 318.148411 438.00925 
L 318.664299 437.818371 
L 318.789457 437.599421 
L 318.914597 437.436612 
L 319.017623 436.88643 
L 319.248939 436.667481 
L 319.407623 436.555199 
L 319.736063 436.499058 
L 320.361284 436.369933 
L 320.450638 436.150984 
L 320.548533 436.027473 
L 320.657232 435.808524 
L 320.760602 435.656943 
L 320.887378 435.449221 
L 320.991469 435.207815 
L 321.102098 434.270261 
L 321.266462 433.978328 
L 321.499299 433.517972 
L 321.880525 433.287794 
L 321.985679 433.057616 
L 322.286285 432.40638 
L 322.389419 432.215501 
L 322.410403 432.024622 
L 322.527196 431.699004 
L 322.616813 431.496897 
L 322.727345 431.210578 
L 323.038516 430.660396 
L 323.431601 430.475131 
L 323.641571 430.037231 
L 323.780514 429.812667 
L 324.346467 429.04915 
L 324.465461 428.891955 
L 324.667192 428.768445 
L 325.074995 428.644935 
L 325.267452 428.386687 
L 325.448577 428.201421 
L 325.708779 427.892646 
L 325.800018 427.757908 
L 325.89639 427.550186 
L 326.967913 427.202112 
L 327.526345 426.825967 
L 328.24424 426.685615 
L 328.353603 426.657545 
L 328.534118 426.461051 
L 328.690982 426.197188 
L 329.09322 425.736832 
L 329.232242 425.602094 
L 329.437352 425.512269 
L 329.871224 425.371916 
L 329.95957 425.209107 
L 330.108208 425.074369 
L 330.254962 424.630855 
L 330.313769 424.484889 
L 330.468178 424.254711 
L 330.771134 423.923479 
L 330.962189 423.687687 
L 331.441827 423.485579 
L 331.537243 423.362069 
L 331.653054 423.221717 
L 331.800482 422.985925 
L 331.891605 422.862415 
L 332.082674 422.592938 
L 332.19883 422.424515 
L 332.275831 422.368374 
L 332.35692 422.250478 
L 332.490325 422.070827 
L 332.974316 421.936088 
L 333.4982 421.178185 
L 333.590834 420.785198 
L 333.717988 420.667302 
L 333.826286 420.498879 
L 333.980803 420.330456 
L 334.054334 420.223789 
L 334.510334 420.049752 
L 334.618014 419.808345 
L 334.691857 419.673607 
L 334.800618 419.482728 
L 334.944279 419.246936 
L 335.054096 419.117811 
L 335.158985 418.960617 
L 335.266057 418.780966 
L 335.39444 418.550788 
L 335.501566 418.427277 
L 335.68656 418.275697 
L 335.758054 418.25324 
L 336.173318 418.107274 
L 336.406695 417.78727 
L 336.495609 417.618847 
L 336.564355 417.495337 
L 336.67282 417.388669 
L 336.940648 417.091122 
L 337.045818 416.900243 
L 337.150948 416.681293 
L 337.247808 416.580239 
L 337.754832 416.41743 
L 337.866019 416.237779 
L 337.997231 416.030058 
L 338.064981 415.895319 
L 338.188132 415.659527 
L 338.294696 415.45742 
L 338.494635 415.176715 
L 338.593439 414.985836 
L 338.741464 414.834255 
L 338.88223 414.761272 
L 339.167725 414.626533 
L 339.276062 414.55355 
L 340.140182 413.441959 
L 340.245676 413.312834 
L 340.442815 413.133183 
L 340.517877 413.077042 
L 340.698564 412.947918 
L 340.803123 412.71774 
L 340.865621 412.571774 
L 340.974367 412.414579 
L 341.374185 411.555622 
L 341.48424 411.235618 
L 341.629287 410.954913 
L 341.8969 410.421574 
L 342.006484 410.16894 
L 342.479407 409.910691 
L 342.620506 409.287526 
L 342.760045 409.040506 
L 342.932441 408.793486 
L 343.076306 408.58015 
L 343.191889 408.355586 
L 343.253839 408.220848 
L 343.356023 408.007512 
L 343.446813 407.861546 
L 343.696442 407.378733 
L 344.104984 407.204696 
L 344.142642 406.918377 
L 344.278323 406.435565 
L 344.316764 406.300827 
L 344.423731 405.969595 
L 344.612131 405.672048 
L 344.711605 405.554152 
L 344.838743 405.408185 
L 344.942784 405.279061 
L 345.056017 405.149937 
L 345.113021 405.026426 
L 345.648861 404.874846 
L 345.755755 404.655896 
L 346.40472 404.1001 
L 346.514739 403.942906 
L 347.094857 403.229915 
L 347.288291 403.067106 
L 347.356065 402.926754 
L 347.50524 402.803244 
L 347.854593 402.432713 
L 348.077653 402.213763 
L 348.18457 402.090253 
L 348.417287 401.972357 
L 348.841405 401.848847 
L 349.028726 401.635511 
L 349.136698 401.478317 
L 349.367851 401.158313 
L 349.649446 400.782169 
L 349.799281 400.624974 
L 349.906421 400.512692 
L 350.513605 400.114091 
L 350.634322 400.024265 
L 350.766263 399.839 
L 350.926168 399.670577 
L 351.165562 399.423557 
L 351.2668 399.193379 
L 351.826201 398.996886 
L 352.07676 398.873375 
L 352.187217 398.738637 
L 353.248195 397.66073 
L 353.60143 397.464237 
L 353.997143 396.571595 
L 354.544112 395.684568 
L 354.64214 395.538601 
L 355.345558 395.162457 
L 355.467111 394.999648 
L 356.065121 394.157533 
L 356.171315 393.770161 
L 356.797728 393.596124 
L 356.915761 393.37156 
L 357.037036 393.242435 
L 357.985756 392.046633 
L 358.340523 391.928737 
L 358.451336 391.614347 
L 358.558994 391.457152 
L 358.668895 391.238203 
L 358.881073 390.906971 
L 359.142793 390.502756 
L 359.311985 389.744853 
L 360.217296 388.622033 
L 360.395752 388.335714 
L 360.514316 388.161677 
L 360.622786 387.937113 
L 360.904918 387.443073 
L 361.01883 387.196052 
L 361.48436 387.027629 
L 361.774801 386.297797 
L 361.881847 386.078847 
L 362.011851 385.859897 
L 362.118522 385.545508 
L 362.201272 385.393927 
L 362.211486 385.186205 
L 362.337592 383.878121 
L 362.451962 383.748996 
L 362.561986 383.457063 
L 362.776347 383.114603 
L 363.155868 382.732845 
L 363.356708 382.255646 
L 363.549621 382.092838 
L 363.658409 381.755992 
L 364.00467 381.368619 
L 364.054232 381.20581 
L 364.191569 381.05423 
L 364.353402 380.919491 
L 364.469826 380.829666 
L 364.599914 380.633172 
L 364.830925 380.099833 
L 364.937756 379.864041 
L 365.053373 379.701232 
L 365.164568 379.583336 
L 365.224847 379.37 
L 365.451116 378.735607 
L 365.590326 378.488587 
L 365.75606 378.134899 
L 366.279517 377.949634 
L 366.385245 377.646472 
L 366.576445 377.41068 
L 366.764383 377.174888 
L 367.454795 375.602941 
L 367.846188 375.42329 
L 367.896313 375.266095 
L 368.086166 374.895564 
L 368.141075 374.715913 
L 368.244534 374.575561 
L 368.32549 374.42398 
L 368.433675 374.193802 
L 368.815781 373.688533 
L 368.886809 373.469584 
L 369.624752 373.261862 
L 369.734747 373.188879 
L 369.884286 373.070983 
L 370.009067 372.880103 
L 370.179799 372.734137 
L 370.590987 372.386063 
L 370.656348 372.31308 
L 371.053866 372.178341 
L 371.117797 372.116586 
L 371.356751 371.987462 
L 371.456278 371.712371 
L 371.497737 371.577633 
L 371.584163 371.381139 
L 371.70011 371.252015 
L 372.040333 370.741132 
L 372.488537 370.572709 
L 372.609322 370.471655 
L 372.763391 370.140424 
L 372.879579 369.960773 
L 372.943069 369.79235 
L 373.109309 369.360064 
L 373.179737 369.191641 
L 373.290837 369.073745 
L 373.41255 368.843567 
L 373.591854 368.613389 
L 373.677518 368.506721 
L 374.244872 368.282157 
L 374.429272 367.990224 
L 374.475265 367.838644 
L 374.583123 367.731976 
L 375.064285 367.125653 
L 375.166913 366.901089 
L 375.572403 366.788807 
L 375.777399 366.659683 
L 375.888468 366.496874 
L 376.840415 365.048437 
L 377.278017 364.778961 
L 377.382843 364.604923 
L 377.483093 364.40843 
L 377.740223 364.167024 
L 377.845903 364.0379 
L 377.948611 363.852634 
L 378.051978 363.487718 
L 378.164703 363.324909 
L 378.334403 363.044204 
L 378.435468 362.892624 
L 378.533983 362.836483 
L 378.986051 362.595077 
L 379.097448 362.404197 
L 379.391363 362.005596 
L 379.490397 361.848402 
L 380.131202 361.124183 
L 380.559976 360.989445 
L 381.364482 359.670132 
L 381.474302 359.344514 
L 381.719701 358.912228 
L 381.797115 358.850473 
L 382.097629 358.698893 
L 382.298912 358.440644 
L 382.406466 358.277835 
L 382.500245 358.058886 
L 382.724728 357.766953 
L 382.901396 357.615372 
L 383.008958 357.300982 
L 383.098779 357.082033 
L 383.187141 357.031506 
L 383.298771 356.902382 
L 383.358308 356.739573 
L 383.4018 356.57115 
L 383.502747 356.436411 
L 383.573994 356.284831 
L 383.694864 356.144478 
L 383.835842 356.015354 
L 384.041686 355.605525 
L 384.147623 355.465173 
L 384.418975 355.072186 
L 384.772084 354.544461 
L 385.462773 354.274984 
L 385.600102 354.039192 
L 385.697533 353.876383 
L 385.890805 353.663047 
L 386.065664 353.528309 
L 386.628015 353.051111 
L 386.91602 352.921986 
L 387.029146 352.837775 
L 387.195566 352.551456 
L 387.339274 352.354962 
L 387.449295 352.180925 
L 387.641737 352.029345 
L 387.731744 351.990046 
L 387.892252 351.84408 
L 388.003462 351.591445 
L 388.230452 350.8167 
L 388.459714 350.670733 
L 389.162239 349.643353 
L 389.249461 349.503001 
L 389.341773 349.430018 
L 389.406233 349.312122 
L 389.738833 349.093172 
L 390.03547 348.975276 
L 390.137318 348.879836 
L 390.271 348.717027 
L 391.082669 347.61105 
L 391.590313 347.425785 
L 391.696523 347.218063 
L 392.119792 346.617355 
L 392.228724 346.46016 
L 392.366343 346.297351 
L 392.528528 346.061559 
L 392.743276 345.814539 
L 393.270618 345.488921 
L 393.43183 345.281199 
L 393.561201 345.073478 
L 393.647752 344.916283 
L 393.794399 344.674877 
L 394.063529 344.107853 
L 394.292476 343.866447 
L 394.493031 343.799078 
L 394.707214 343.675568 
L 394.815993 343.546443 
L 395.035698 343.187141 
L 395.190867 342.917664 
L 395.278409 342.771698 
L 395.378743 342.56959 
L 395.482807 342.462922 
L 395.547971 342.277657 
L 395.652075 342.081164 
L 395.750921 341.935197 
L 395.945204 341.727476 
L 396.325008 341.581509 
L 396.374213 341.379402 
L 396.497019 340.834834 
L 396.510882 340.694482 
L 396.619821 340.599042 
L 396.756422 340.352022 
L 396.850458 340.211669 
L 396.935888 340.071317 
L 397.320704 339.324642 
L 397.435328 339.21236 
L 397.962945 339.004638 
L 398.886463 337.163214 
L 399.106553 337.000405 
L 399.187202 336.893738 
L 399.45962 336.747771 
L 399.565903 336.545664 
L 399.697925 336.34917 
L 399.808729 336.152677 
L 399.957485 335.928113 
L 400.044998 335.765304 
L 400.151211 335.478985 
L 400.537485 334.940032 
L 400.644866 334.822136 
L 401.25555 333.884581 
L 401.597447 333.092994 
L 401.666248 332.8965 
L 401.769987 332.643866 
L 402.790402 332.099298 
L 402.882754 332.009473 
L 403.092499 331.846664 
L 403.299825 331.610872 
L 403.473644 331.397536 
L 403.588391 331.296482 
L 404.35015 330.954022 
L 404.525645 330.774371 
L 404.779342 330.634019 
L 405.764879 330.297173 
L 405.930516 330.168049 
L 406.045604 330.044539 
L 406.237294 329.926642 
L 406.352431 329.66278 
L 406.471816 329.499971 
L 406.580433 329.286635 
L 406.709455 329.062071 
L 406.819164 328.904877 
L 406.906211 328.775752 
L 407.012654 328.500662 
L 407.095622 328.309782 
L 407.206455 328.107675 
L 407.420287 327.883111 
L 407.718354 327.231876 
L 408.011674 326.833275 
L 408.115096 326.659238 
L 408.247631 326.490815 
L 408.362748 326.372919 
L 408.813755 326.125898 
L 409.167946 325.99116 
L 409.518129 325.749754 
L 409.784627 325.283784 
L 409.923223 325.193958 
L 410.790068 324.991851 
L 410.928342 324.610092 
L 411.207493 323.986927 
L 411.357215 323.790434 
L 411.46736 323.616397 
L 411.856073 323.088672 
L 411.96369 323.066215 
L 412.174262 322.869722 
L 412.284863 322.594631 
L 413.198018 321.370758 
L 413.375946 321.101281 
L 413.490984 321.056368 
L 413.702723 320.865489 
L 413.863974 320.652153 
L 414.083792 320.270395 
L 414.191065 320.090743 
L 414.480262 319.720213 
L 414.596801 319.52372 
L 414.952926 319.007223 
L 415.350483 318.86687 
L 415.76352 317.805806 
L 415.891542 317.676681 
L 416.001956 317.508259 
L 416.16261 317.289309 
L 416.657465 316.525791 
L 416.749744 316.413509 
L 416.995996 316.256315 
L 417.714218 315.251391 
L 417.865701 315.077354 
L 417.977577 314.819106 
L 418.660195 314.302609 
L 418.963381 313.763655 
L 419.052186 313.600847 
L 419.151592 313.398739 
L 419.247624 313.264001 
L 419.380513 313.067507 
L 419.517082 312.932769 
L 419.700538 312.803645 
L 419.855191 312.652064 
L 419.970046 312.579081 
L 420.051169 312.455571 
L 420.157513 312.006443 
L 420.204583 311.83802 
L 420.310054 311.416963 
L 420.348401 311.270996 
L 420.451575 310.805026 
L 420.521997 310.636603 
L 420.629818 310.198703 
L 420.722167 309.968525 
L 420.830063 309.642908 
L 420.904336 309.328518 
L 421.076924 308.660441 
L 421.182387 308.256226 
L 421.316617 308.054118 
L 421.395812 308.003591 
L 421.594664 307.868853 
L 421.767249 307.571306 
L 421.872722 307.313057 
L 421.949424 307.144634 
L 422.059969 306.858315 
L 422.26372 306.431644 
L 422.37432 306.100412 
L 422.441096 305.898305 
L 422.553446 305.42672 
L 422.664049 304.966364 
L 422.726046 304.696888 
L 422.831701 304.113022 
L 422.908206 303.938985 
L 422.94655 303.764948 
L 423.052024 303.203538 
L 423.119132 303.040729 
L 423.227372 302.518618 
L 423.257813 302.350195 
L 423.301313 302.142473 
L 423.406786 301.558607 
L 423.439218 301.412641 
L 423.553114 300.761405 
L 423.576198 300.598596 
L 423.838242 299.30174 
L 423.887497 299.144545 
L 423.962884 298.95928 
L 424.071863 298.706646 
L 424.694702 298.218219 
L 424.940452 298.072253 
L 425.128217 297.892601 
L 425.746053 297.499615 
L 425.851529 297.291893 
L 425.937811 297.106628 
L 426.04329 296.90452 
L 426.167927 296.708027 
L 426.2734 296.567674 
L 426.378861 296.382409 
L 426.485723 296.135389 
L 426.548697 295.961352 
L 426.685691 295.433627 
L 426.794984 294.889059 
L 427.461171 294.226596 
L 427.563815 294.164841 
L 428.095016 293.923434 
L 428.352761 293.345182 
L 428.447025 293.070092 
L 428.545656 292.929739 
L 428.645835 292.705175 
L 428.747004 292.430084 
L 428.986705 292.244819 
L 429.31269 292.05394 
L 429.600397 291.879903 
L 429.710829 291.683409 
L 430.731831 290.066549 
L 431.131409 289.926197 
L 431.222257 289.740932 
L 431.337371 289.600579 
L 431.552876 289.336717 
L 431.748241 289.145837 
L 431.861367 289.050398 
L 431.99595 288.893203 
L 432.094662 288.769693 
L 432.222998 288.595656 
L 432.416629 288.500216 
L 432.543862 288.35425 
L 432.649327 288.247582 
L 432.883569 287.983719 
L 432.961952 287.938806 
L 433.099281 287.809682 
L 433.322635 287.528977 
L 433.451591 287.338098 
L 433.564764 287.147219 
L 433.670227 287.057393 
L 433.711977 286.905812 
L 433.797976 286.686863 
L 433.909925 286.630722 
L 434.034567 286.473527 
L 434.13231 286.406158 
L 434.379142 286.20405 
L 434.517406 285.923345 
L 434.756855 285.575271 
L 434.866515 285.373164 
L 435.434414 284.452452 
L 435.8605 284.278415 
L 435.951935 284.138062 
L 436.058933 283.930341 
L 436.263276 283.660864 
L 436.374065 283.447528 
L 436.574562 283.060156 
L 436.721751 282.87489 
L 436.908186 282.588571 
L 437.016319 282.436991 
L 437.207066 282.375236 
L 437.551519 282.167514 
L 437.660878 282.03839 
L 438.14149 281.60049 
L 439.429678 280.427144 
L 439.59568 280.157667 
L 439.834584 279.809593 
L 439.960808 279.590643 
L 440.115314 279.349237 
L 440.218684 279.231341 
L 440.792166 278.770985 
L 440.900988 278.546421 
L 441.031972 278.316243 
L 441.233276 277.990625 
L 441.397907 277.827817 
L 441.49379 277.648165 
L 441.653323 277.479742 
L 441.752567 277.361846 
L 441.850609 277.232722 
L 441.861577 277.21588 
L 442.22232 277.09237 
L 442.334681 277.025001 
L 442.737742 276.508504 
L 442.84747 276.345695 
L 443.034015 276.104289 
L 443.121644 275.902181 
L 443.223581 275.773057 
L 443.316713 275.660775 
L 443.718035 275.464281 
L 443.864907 275.368842 
L 444.17306 275.054452 
L 444.290155 274.975855 
L 444.383714 274.824274 
L 444.492019 274.588482 
L 444.705005 274.380761 
L 444.815733 274.268479 
L 445.076947 273.88672 
L 445.473765 273.735139 
L 445.616957 273.364609 
L 445.691558 273.156887 
L 445.900624 272.775129 
L 445.997091 272.634776 
L 446.203779 272.455125 
L 447.481722 271.579326 
L 447.580559 271.506343 
L 447.918616 271.287393 
L 448.98436 270.697913 
L 449.098035 270.43405 
L 449.16786 270.276855 
L 449.308967 270.001764 
L 449.415247 269.74913 
L 449.455478 269.614392 
L 449.566489 269.401056 
L 449.958022 269.024911 
L 450.414255 268.671223 
L 450.522589 268.592626 
L 450.63048 268.429817 
L 450.735469 268.278236 
L 450.931689 268.121042 
L 451.100338 267.874021 
L 451.455046 267.598931 
L 451.782194 267.402437 
L 452.011146 267.116118 
L 452.111077 266.970152 
L 452.375892 266.768044 
L 452.479178 266.66699 
L 452.528905 266.532252 
L 452.696083 266.397514 
L 453.302195 265.920315 
L 453.420579 265.763121 
L 453.547652 265.566627 
L 453.676396 265.420661 
L 453.890324 265.162412 
L 454.139595 264.89855 
L 454.250863 264.741355 
L 454.647778 264.320298 
L 454.987747 264.185559 
L 455.731189 263.545552 
L 455.934461 263.349059 
L 456.028405 263.180636 
L 456.642552 262.922387 
L 457.735072 261.923078 
L 458.4259 261.395353 
L 458.528321 261.187631 
L 458.71615 261.036051 
L 459.508794 260.317446 
L 459.735276 260.188322 
L 459.849706 260.025513 
L 460.344467 259.441647 
L 460.457789 259.26761 
L 461.073846 258.650059 
L 461.234315 258.481636 
L 461.337782 258.301985 
L 461.745601 257.903384 
L 461.850472 257.706891 
L 461.97263 257.560924 
L 462.185395 257.246535 
L 462.295823 257.010743 
L 462.484607 256.864776 
L 462.99265 256.640212 
L 463.343113 256.134943 
L 463.461585 255.983363 
L 463.571219 255.831782 
L 463.742737 255.635289 
L 463.861469 255.528621 
L 464.283343 255.2816 
L 464.519926 255.040194 
L 464.632776 254.877385 
L 464.734577 254.753875 
L 464.916032 254.56861 
L 465.102734 254.394573 
L 465.295899 254.097026 
L 465.462558 253.951059 
L 465.520835 253.782636 
L 465.615963 253.670354 
L 465.941954 253.496317 
L 466.051396 253.440176 
L 466.733975 252.721572 
L 466.84304 252.519464 
L 467.237548 252.210689 
L 467.619686 252.053494 
L 468.183986 251.559454 
L 468.286544 251.475242 
L 468.629628 251.216994 
L 468.904411 251.104712 
L 469.297518 250.919447 
L 469.407613 250.840849 
L 469.56592 250.689269 
L 469.669549 250.610671 
L 470.120952 250.21207 
L 470.295624 250.06049 
L 470.901551 249.768557 
L 471.042946 249.543993 
L 471.154719 249.291358 
L 471.308348 249.027496 
L 471.382066 248.887143 
L 471.482258 248.713106 
L 471.594145 248.409945 
L 471.700124 248.258364 
L 471.964693 248.073099 
L 472.376913 247.859763 
L 472.900453 247.270283 
L 473.445237 246.585363 
L 474.43638 246.029568 
L 474.538212 245.917286 
L 474.792897 245.636581 
L 475.324431 245.198681 
L 475.612071 245.035872 
L 475.732289 244.884292 
L 475.889805 244.710255 
L 476.117675 244.390251 
L 476.262593 244.23867 
L 476.377194 244.064633 
L 476.464576 243.935509 
L 477.321588 243.30673 
L 477.428228 243.110237 
L 477.639887 242.885673 
L 477.812338 242.610582 
L 477.931301 242.459001 
L 478.012747 242.408475 
L 478.102921 242.284964 
L 478.267822 242.049172 
L 478.635746 241.886364 
L 478.747279 241.762853 
L 478.843099 241.583202 
L 479.10535 241.218286 
L 479.244114 241.083548 
L 479.351256 240.948809 
L 479.571695 240.623192 
L 479.666734 240.465997 
L 479.755127 240.331258 
L 479.859349 240.218977 
L 480.315613 239.971956 
L 480.409379 239.820376 
L 480.546163 239.668795 
L 480.847772 239.399318 
L 480.956487 239.236509 
L 481.26767 238.961419 
L 481.422195 238.731241 
L 481.529594 238.630187 
L 482.475013 237.7993 
L 483.176694 236.9628 
L 484.614765 236.244195 
L 485.141216 235.997175 
L 485.689455 235.581732 
L 485.804496 235.385238 
L 486.299974 234.829443 
L 486.698899 234.644178 
L 486.80124 234.453298 
L 487.040236 234.22312 
L 487.14452 234.161365 
L 487.326336 234.015399 
L 487.418732 233.897503 
L 487.602697 233.745922 
L 487.711238 233.656096 
L 487.855056 233.566271 
L 488.22791 233.442761 
L 488.328883 233.246267 
L 488.740874 232.909421 
L 488.882295 232.735384 
L 489.139849 232.600646 
L 489.249695 232.522049 
L 489.509813 232.381696 
L 489.83982 232.246958 
L 490.034915 232.04485 
L 490.240636 231.882042 
L 490.345497 231.752917 
L 490.56363 231.511511 
L 490.672517 231.449756 
L 490.836697 231.315018 
L 490.887812 231.258877 
L 491.476549 231.096068 
L 491.748914 231.011856 
L 492.029087 230.849048 
L 492.256865 230.697467 
L 492.428122 230.540272 
L 492.586992 230.383078 
L 493.413339 229.990091 
L 493.540836 229.872195 
L 493.834963 229.552191 
L 494.149199 229.131134 
L 494.630565 228.766217 
L 495.000179 228.260949 
L 495.23584 228.041999 
L 495.384494 227.873576 
L 495.583948 227.716381 
L 495.679218 227.581643 
L 496.186367 227.312166 
L 496.291113 227.211112 
L 496.493027 227.009005 
L 496.596968 226.891109 
L 496.89332 226.621632 
L 497.192584 226.245488 
L 497.283013 226.127592 
L 497.701114 225.91987 
L 498.045843 225.67285 
L 498.150428 225.611095 
L 498.419603 225.403373 
L 498.548465 225.178809 
L 499.043124 224.724067 
L 499.225296 224.606171 
L 499.333976 224.555644 
L 499.492388 224.420906 
L 499.604076 224.20757 
L 499.710073 223.994234 
L 499.886878 223.859496 
L 500.555413 223.124049 
L 500.875291 222.978083 
L 501.023557 222.753519 
L 501.128114 222.635623 
L 501.277129 222.444743 
L 501.366806 222.377374 
L 501.512314 222.231408 
L 501.622545 222.15281 
L 501.804712 222.00123 
L 501.959231 221.844035 
L 502.068296 221.81035 
L 502.470265 221.557716 
L 502.846192 221.181572 
L 502.950683 221.058061 
L 503.072918 220.923323 
L 503.183992 220.7549 
L 503.361653 220.552793 
L 503.493101 220.361913 
L 503.602378 220.199104 
L 504.163163 219.957698 
L 504.28212 219.806118 
L 504.44142 219.665765 
L 504.545115 219.435587 
L 504.696546 219.278392 
L 504.806666 219.132426 
L 504.926789 218.935932 
L 505.1505 218.559788 
L 505.754834 218.222942 
L 505.861908 217.953465 
L 506.021695 217.661532 
L 506.131185 217.470653 
L 506.301116 217.285388 
L 507.212151 216.572397 
L 507.370283 216.454501 
L 507.527184 216.185025 
L 507.639175 215.966075 
L 507.705707 215.814494 
L 507.801776 215.601158 
L 507.897625 215.460806 
L 508.005938 215.24747 
L 508.088345 215.034135 
L 508.201057 214.865712 
L 508.618634 214.607463 
L 508.874137 214.455883 
L 509.134968 214.276231 
L 509.234712 214.180792 
L 509.443042 214.046053 
L 509.564595 213.989912 
L 510.892642 213.04113 
L 511.002352 212.850251 
L 511.166705 212.676214 
L 511.828562 212.092347 
L 512.101161 211.940767 
L 512.173632 211.862169 
L 512.338297 211.738659 
L 512.693005 211.362515 
L 512.926303 211.137951 
L 513.037372 210.947072 
L 513.598817 210.671981 
L 513.70916 210.5204 
L 513.874066 210.239695 
L 513.977515 210.166712 
L 514.102136 210.015131 
L 514.213205 209.829866 
L 514.37589 209.58846 
L 514.526621 209.330211 
L 514.625192 209.116876 
L 514.867407 208.993366 
L 514.896153 208.920382 
L 515.205189 208.791258 
L 515.317513 208.577922 
L 515.478953 208.403885 
L 515.559121 208.285989 
L 515.737642 208.145637 
L 516.032324 207.893002 
L 516.135157 207.668439 
L 516.211395 207.516858 
L 516.421928 207.354049 
L 516.81597 207.056502 
L 516.926811 206.837552 
L 517.085341 206.62983 
L 517.179946 206.495092 
L 517.286601 206.349126 
L 517.388066 206.197545 
L 517.568829 206.001052 
L 518.696191 205.057883 
L 518.797027 204.923145 
L 518.944599 204.743494 
L 519.268638 204.283138 
L 519.717345 203.968748 
L 519.97498 203.805939 
L 520.23957 203.429795 
L 520.325372 203.295056 
L 520.463623 203.165932 
L 520.588653 202.941368 
L 520.703709 202.694348 
L 520.806807 202.58768 
L 520.989317 202.335046 
L 521.096834 202.295747 
L 521.489933 202.09364 
L 521.60102 201.90276 
L 522.6883 200.179232 
L 523.041006 199.999581 
L 523.284644 199.651507 
L 523.779285 199.151852 
L 523.90226 198.966587 
L 524.001075 198.809392 
L 524.104358 198.657812 
L 524.168137 198.506231 
L 524.27464 198.438862 
L 524.731735 198.169385 
L 524.842322 198.068332 
L 526.119718 197.231831 
L 526.447395 197.085865 
L 526.541172 196.945512 
L 526.676145 196.799546 
L 526.755841 196.659193 
L 526.867814 196.4627 
L 526.994109 196.283049 
L 527.105066 196.142696 
L 527.618348 195.530759 
L 527.970616 195.323038 
L 528.072118 195.21637 
L 528.162358 195.070403 
L 528.812212 194.694259 
L 528.972628 194.660574 
L 529.510008 194.492151 
L 529.955131 194.194604 
L 530.00436 194.166534 
L 530.25335 194.037409 
L 530.360697 193.807231 
L 530.444236 193.661265 
L 530.548722 193.526527 
L 531.10635 193.105469 
L 531.202233 193.021258 
L 531.495247 192.875291 
L 531.807594 192.583358 
L 531.964683 192.482304 
L 532.3485 192.224056 
L 532.44941 192.190371 
L 532.786901 191.920895 
L 532.897072 191.808613 
L 533.606544 190.871058 
L 533.761697 190.629652 
L 534.058918 190.483686 
L 534.229797 190.343333 
L 534.397389 190.141226 
L 534.507423 189.989645 
L 534.614953 189.89982 
L 535.304236 189.226128 
L 535.805627 189.046477 
L 536.023414 188.754544 
L 536.121183 188.625419 
L 536.293144 188.440154 
L 536.950608 187.581197 
L 537.329924 187.424002 
L 537.926894 186.750311 
L 538.141577 186.531361 
L 538.28699 186.385394 
L 538.499549 186.239428 
L 538.555353 186.216972 
L 538.948462 186.087847 
L 539.763254 185.20082 
L 540.03968 184.779763 
L 540.494244 184.600111 
L 540.689544 184.398004 
L 540.771335 184.26888 
L 541.882009 182.89904 
L 542.197825 182.691318 
L 542.291444 182.534123 
L 542.45048 182.376929 
L 543.147032 181.293408 
L 543.754384 181.035159 
L 543.855666 180.922877 
L 543.999641 180.726384 
L 544.124987 180.490592 
L 544.256938 180.361468 
L 544.451316 180.170588 
L 544.567053 179.979709 
L 544.705587 179.78883 
L 544.798345 179.687776 
L 545.141929 179.508125 
L 545.272072 179.384615 
L 545.452688 179.22742 
L 545.56008 179.058997 
L 545.667937 178.907416 
L 545.776709 178.682852 
L 546.022857 178.475131 
L 546.137321 178.244953 
L 546.246101 178.014775 
L 547.005417 177.492664 
L 547.116285 177.357925 
L 547.290787 177.116519 
L 547.37425 176.976167 
L 547.485649 176.790902 
L 547.578158 176.639321 
L 547.70406 176.381072 
L 547.789173 176.229492 
L 548.249923 175.825277 
L 548.69383 175.668082 
L 549.009111 175.437904 
L 549.137937 175.303166 
L 549.379437 174.99439 
L 549.495958 174.876494 
L 549.982582 174.708071 
L 550.13828 174.601404 
L 550.384192 174.40491 
L 550.512218 174.287014 
L 550.575049 174.135433 
L 550.682157 173.714376 
L 550.789983 173.579638 
L 550.887765 173.461742 
L 551.113157 173.304547 
L 551.375049 173.214721 
L 551.680916 173.091211 
L 551.788291 173.012614 
L 552.481335 172.344536 
L 552.592538 172.237868 
L 553.11491 172.013305 
L 553.28657 171.850496 
L 553.397988 171.726986 
L 553.523282 171.564177 
L 553.703178 171.440667 
L 553.806736 171.238559 
L 553.947809 171.081364 
L 554.049845 170.851186 
L 554.486027 170.542411 
L 554.527911 170.508726 
L 554.756025 170.379602 
L 555.520416 169.745209 
L 555.718838 169.559944 
L 555.820513 169.43082 
L 555.900372 169.279239 
L 556.007244 169.189413 
L 556.369085 168.970464 
L 556.478176 168.807655 
L 556.688951 168.566249 
L 556.794196 168.352913 
L 557.050697 168.08905 
L 557.159089 167.84203 
L 557.230501 167.696063 
L 557.50124 167.291848 
L 557.967826 167.039214 
L 558.066824 166.882019 
L 558.34292 166.707982 
L 558.454602 166.399207 
L 558.765063 165.989378 
L 558.873607 165.899552 
L 559.351439 165.529022 
L 559.533598 165.383055 
L 559.712659 165.186562 
L 559.808447 165.107964 
L 560.052581 164.933927 
L 560.796892 164.114269 
L 561.180665 163.95146 
L 562.095421 162.963379 
L 562.706891 162.750043 
L 562.807473 162.592849 
L 562.90104 162.474953 
L 563.034152 162.340214 
L 563.142072 162.149335 
L 563.291292 161.919157 
L 563.396621 161.74512 
L 563.465867 161.604768 
L 563.715051 161.127569 
L 563.939345 160.818794 
L 564.300814 160.543703 
L 564.452402 160.37528 
L 564.583928 160.195629 
L 564.688184 160.049662 
L 564.821389 159.847555 
L 564.934258 159.47141 
L 565.027249 159.331058 
L 565.582744 158.517014 
L 566.215256 158.314906 
L 567.131976 157.804023 
L 567.241211 157.770339 
L 567.572292 157.562617 
L 567.679492 157.455949 
L 567.946414 157.220157 
L 568.06584 157.040506 
L 568.477006 156.692432 
L 568.98616 156.55208 
L 569.129322 156.406113 
L 569.743551 155.738036 
L 569.828201 155.575227 
L 569.925449 155.457331 
L 570.039981 155.30575 
L 570.127106 155.171012 
L 570.500864 155.030659 
L 570.673451 154.86785 
L 570.778778 154.766797 
L 571.095489 154.418723 
L 571.206527 154.317669 
L 571.373123 154.126789 
L 572.371994 153.363272 
L 572.474583 153.256604 
L 572.852831 152.959057 
L 572.963049 152.874846 
L 573.282417 152.509929 
L 573.587657 152.363963 
L 576.381493 150.601136 
L 576.479493 150.516925 
L 576.69043 150.3878 
L 577.026577 150.146394 
L 577.119945 149.983585 
L 577.261098 149.832005 
L 577.360334 149.691652 
L 577.468897 149.523229 
L 577.580084 149.08533 
L 577.708293 148.922521 
L 577.829503 148.636202 
L 577.943412 148.507078 
L 578.036442 148.389182 
L 578.637308 148.097249 
L 578.745962 148.041108 
L 578.942532 147.771631 
L 579.04942 147.597594 
L 579.159444 147.451627 
L 579.264593 147.311275 
L 579.460155 147.114782 
L 580.159717 146.654426 
L 580.270068 146.570214 
L 580.682039 146.205298 
L 580.787749 146.109858 
L 582.530148 144.818616 
L 582.631338 144.683877 
L 582.769335 144.521068 
L 582.878521 144.442471 
L 583.47683 144.13931 
L 583.584003 144.077555 
L 583.75166 143.937202 
L 584.105089 143.645269 
L 584.209947 143.510531 
L 584.265681 143.33088 
L 584.370004 143.151229 
L 584.528707 142.999648 
L 584.630293 142.921051 
L 584.929089 142.758242 
L 585.038358 142.634732 
L 585.255087 142.477537 
L 585.369234 142.3035 
L 585.474587 142.224903 
L 585.681411 141.96104 
L 585.78941 141.809459 
L 585.966616 141.635422 
L 586.019101 141.607352 
L 586.371089 141.466999 
L 586.505086 141.37156 
L 586.851379 141.15261 
L 586.942302 141.074013 
L 587.148552 140.911204 
L 587.258624 140.770851 
L 587.689941 140.231898 
L 587.920051 140.052247 
L 588.006346 139.996106 
L 588.116079 139.866982 
L 588.314135 139.664874 
L 588.476073 139.502065 
L 588.933608 139.047323 
L 589.581499 138.63188 
L 589.726116 138.502756 
L 590.239385 137.862749 
L 590.344031 137.772923 
L 590.464311 137.621342 
L 590.570814 137.464148 
L 592.569769 136.189748 
L 592.882252 136.043781 
L 593.135735 135.858516 
L 593.236226 135.61711 
L 593.419289 135.465529 
L 593.531081 135.235351 
L 593.661073 135.022015 
L 593.830223 134.881663 
L 593.938675 134.80868 
L 594.429637 134.449377 
L 594.535058 134.325867 
L 594.718533 134.106917 
L 594.859317 133.960951 
L 595.188674 133.59042 
L 595.51978 133.304101 
L 595.982589 133.130064 
L 596.114364 132.939185 
L 596.367548 132.759534 
L 596.47611 132.692165 
L 597.389378 131.782681 
L 597.676217 131.530047 
L 597.782534 131.440221 
L 597.892873 131.299869 
L 598.002899 131.204429 
L 598.170768 131.047234 
L 598.335193 130.850741 
L 598.435469 130.676704 
L 598.74166 130.468982 
L 598.849208 130.412841 
L 599.005063 130.255646 
L 599.112606 130.064767 
L 599.654878 129.755992 
L 599.757558 129.621253 
L 599.883005 129.441602 
L 600.047345 129.318092 
L 600.733853 129.043001 
L 600.977895 128.874578 
L 601.31258 128.61633 
L 601.40387 128.509662 
L 601.619486 128.341239 
L 601.879256 128.077377 
L 602.324279 127.897725 
L 602.434408 127.819128 
L 602.629153 127.611406 
L 602.73258 127.504739 
L 603.083911 127.240876 
L 603.854086 126.758064 
L 604.925551 125.949634 
L 605.023058 125.792439 
L 605.118925 125.646472 
L 605.186395 125.595945 
L 605.545436 125.444365 
L 606.825883 124.214877 
L 607.109102 124.080139 
L 607.208189 123.911716 
L 607.386096 123.760135 
L 607.471959 123.586098 
L 607.636808 123.456974 
L 608.052708 123.1089 
L 609.395161 122.283628 
L 609.486771 122.20503 
L 609.617137 122.070292 
L 609.758833 121.907483 
L 610.307724 121.73906 
L 610.41861 121.660463 
L 610.993535 121.143966 
L 611.248218 120.896946 
L 611.601817 120.734137 
L 612.229081 120.127814 
L 612.339304 119.953777 
L 612.417381 119.819039 
L 612.525341 119.600089 
L 612.695958 119.448508 
L 612.775174 119.386753 
L 612.905 119.257629 
L 613.008921 119.212716 
L 613.375951 119.061136 
L 613.53562 118.909555 
L 613.761584 118.72429 
L 613.854236 118.673763 
L 614.088438 118.50534 
L 614.175776 118.426743 
L 614.264683 118.303233 
L 615.982735 116.798654 
L 616.239461 116.658302 
L 616.421683 116.568476 
L 616.696349 116.433738 
L 616.798956 116.293386 
L 616.940359 116.147419 
L 617.848408 115.344603 
L 618.418841 115.159338 
L 618.870788 114.625999 
L 618.98028 114.508103 
L 619.15879 114.362136 
L 619.268783 114.216169 
L 619.434661 114.047747 
L 619.529549 113.87371 
L 619.797848 113.699673 
L 619.945664 113.570548 
L 620.481588 113.228088 
L 620.586529 113.149491 
L 620.936801 112.947383 
L 621.047983 112.868786 
L 621.214878 112.739662 
L 621.320312 112.705977 
L 621.461521 112.492642 
L 621.570175 112.40843 
L 621.788187 112.223165 
L 621.904999 112.032286 
L 622.153127 111.858248 
L 622.636364 111.6 
L 622.636364 111.6 
" style="fill:none;stroke:#92c6ff;stroke-linecap:round;stroke-width:1.5;"/>
   </g>
   <g id="line2d_24">
    <defs>
     <path d="M 0 2.5 
C 0.663008 2.5 1.29895 2.236584 1.767767 1.767767 
C 2.236584 1.29895 2.5 0.663008 2.5 0 
C 2.5 -0.663008 2.236584 -1.29895 1.767767 -1.767767 
C 1.29895 -2.236584 0.663008 -2.5 0 -2.5 
C -0.663008 -2.5 -1.29895 -2.236584 -1.767767 -1.767767 
C -2.236584 -1.29895 -2.5 -0.663008 -2.5 0 
C -2.5 0.663008 -2.236584 1.29895 -1.767767 1.767767 
C -1.29895 2.236584 -0.663008 2.5 0 2.5 
z
" id="ma85bd0d81e" style="stroke:#696969;"/>
    </defs>
    <g clip-path="url(#p5a259b5439)">
     <use style="fill:#696969;stroke:#696969;" x="115.363636" xlink:href="#ma85bd0d81e" y="615.6"/>
    </g>
   </g>
   <g id="line2d_25">
    <g clip-path="url(#p5a259b5439)">
     <use style="fill:#696969;stroke:#696969;" x="203.327322" xlink:href="#ma85bd0d81e" y="565.196632"/>
    </g>
   </g>
   <g id="line2d_26">
    <g clip-path="url(#p5a259b5439)">
     <use style="fill:#696969;stroke:#696969;" x="254.096999" xlink:href="#ma85bd0d81e" y="514.793263"/>
    </g>
   </g>
   <g id="line2d_27">
    <g clip-path="url(#p5a259b5439)">
     <use style="fill:#696969;stroke:#696969;" x="298.86448" xlink:href="#ma85bd0d81e" y="464.389895"/>
    </g>
   </g>
   <g id="line2d_28">
    <g clip-path="url(#p5a259b5439)">
     <use style="fill:#696969;stroke:#696969;" x="339.793643" xlink:href="#ma85bd0d81e" y="413.986526"/>
    </g>
   </g>
   <g id="line2d_29">
    <g clip-path="url(#p5a259b5439)">
     <use style="fill:#696969;stroke:#696969;" x="378.019161" xlink:href="#ma85bd0d81e" y="363.583158"/>
    </g>
   </g>
   <g id="line2d_30">
    <g clip-path="url(#p5a259b5439)">
     <use style="fill:#696969;stroke:#696969;" x="419.29131" xlink:href="#ma85bd0d81e" y="313.185403"/>
    </g>
   </g>
   <g id="line2d_31">
    <g clip-path="url(#p5a259b5439)">
     <use style="fill:#696969;stroke:#696969;" x="456.757093" xlink:href="#ma85bd0d81e" y="262.787649"/>
    </g>
   </g>
   <g id="line2d_32">
    <g clip-path="url(#p5a259b5439)">
     <use style="fill:#696969;stroke:#696969;" x="511.323425" xlink:href="#ma85bd0d81e" y="212.389895"/>
    </g>
   </g>
   <g id="line2d_33">
    <g clip-path="url(#p5a259b5439)">
     <use style="fill:#696969;stroke:#696969;" x="563.260927" xlink:href="#ma85bd0d81e" y="161.99214"/>
    </g>
   </g>
   <g id="line2d_34">
    <g clip-path="url(#p5a259b5439)">
     <use style="fill:#696969;stroke:#696969;" x="622.636364" xlink:href="#ma85bd0d81e" y="111.6"/>
    </g>
   </g>
   <g id="patch_3">
    <path d="M 90 640.8 
L 90 86.4 
" style="fill:none;stroke:#cccccc;stroke-linecap:square;stroke-linejoin:miter;"/>
   </g>
   <g id="patch_4">
    <path d="M 648 640.8 
L 648 86.4 
" style="fill:none;stroke:#cccccc;stroke-linecap:square;stroke-linejoin:miter;"/>
   </g>
   <g id="patch_5">
    <path d="M 90 640.8 
L 648 640.8 
" style="fill:none;stroke:#cccccc;stroke-linecap:square;stroke-linejoin:miter;"/>
   </g>
   <g id="patch_6">
    <path d="M 90 86.4 
L 648 86.4 
" style="fill:none;stroke:#cccccc;stroke-linecap:square;stroke-linejoin:miter;"/>
   </g>
   <g id="text_12">
    <!-- 1 (2014-06-07) -->
    <defs>
     <path id="DejaVuSans-32"/>
     <path d="M 31 75.875 
Q 24.46875 64.65625 21.28125 53.65625 
Q 18.109375 42.671875 18.109375 31.390625 
Q 18.109375 20.125 21.3125 9.0625 
Q 24.515625 -2 31 -13.1875 
L 23.1875 -13.1875 
Q 15.875 -1.703125 12.234375 9.375 
Q 8.59375 20.453125 8.59375 31.390625 
Q 8.59375 42.28125 12.203125 53.3125 
Q 15.828125 64.359375 23.1875 75.875 
z
" id="DejaVuSans-40"/>
     <path d="M 4.890625 31.390625 
L 31.203125 31.390625 
L 31.203125 23.390625 
L 4.890625 23.390625 
z
" id="DejaVuSans-45"/>
     <path d="M 8.015625 75.875 
L 15.828125 75.875 
Q 23.140625 64.359375 26.78125 53.3125 
Q 30.421875 42.28125 30.421875 31.390625 
Q 30.421875 20.453125 26.78125 9.375 
Q 23.140625 -1.703125 15.828125 -13.1875 
L 8.015625 -13.1875 
Q 14.5 -2 17.703125 9.0625 
Q 20.90625 20.125 20.90625 31.390625 
Q 20.90625 42.671875 17.703125 53.65625 
Q 14.5 64.65625 8.015625 75.875 
z
" id="DejaVuSans-41"/>
    </defs>
    <g style="fill:#262626;" transform="translate(120.363636 623.198437)scale(0.1 -0.1)">
     <use xlink:href="#DejaVuSans-49"/>
     <use x="63.623047" xlink:href="#DejaVuSans-32"/>
     <use x="95.410156" xlink:href="#DejaVuSans-40"/>
     <use x="134.423828" xlink:href="#DejaVuSans-50"/>
     <use x="198.046875" xlink:href="#DejaVuSans-48"/>
     <use x="261.669922" xlink:href="#DejaVuSans-49"/>
     <use x="325.292969" xlink:href="#DejaVuSans-52"/>
     <use x="388.916016" xlink:href="#DejaVuSans-45"/>
     <use x="425" xlink:href="#DejaVuSans-48"/>
     <use x="488.623047" xlink:href="#DejaVuSans-54"/>
     <use x="552.246094" xlink:href="#DejaVuSans-45"/>
     <use x="588.330078" xlink:href="#DejaVuSans-48"/>
     <use x="651.953125" xlink:href="#DejaVuSans-55"/>
     <use x="715.576172" xlink:href="#DejaVuSans-41"/>
    </g>
   </g>
   <g id="text_13">
    <!-- 8979 (2015-06-30) -->
    <defs>
     <path d="M 40.578125 39.3125 
Q 47.65625 37.796875 51.625 33 
Q 55.609375 28.21875 55.609375 21.1875 
Q 55.609375 10.40625 48.1875 4.484375 
Q 40.765625 -1.421875 27.09375 -1.421875 
Q 22.515625 -1.421875 17.65625 -0.515625 
Q 12.796875 0.390625 7.625 2.203125 
L 7.625 11.71875 
Q 11.71875 9.328125 16.59375 8.109375 
Q 21.484375 6.890625 26.8125 6.890625 
Q 36.078125 6.890625 40.9375 10.546875 
Q 45.796875 14.203125 45.796875 21.1875 
Q 45.796875 27.640625 41.28125 31.265625 
Q 36.765625 34.90625 28.71875 34.90625 
L 20.21875 34.90625 
L 20.21875 43.015625 
L 29.109375 43.015625 
Q 36.375 43.015625 40.234375 45.921875 
Q 44.09375 48.828125 44.09375 54.296875 
Q 44.09375 59.90625 40.109375 62.90625 
Q 36.140625 65.921875 28.71875 65.921875 
Q 24.65625 65.921875 20.015625 65.03125 
Q 15.375 64.15625 9.8125 62.3125 
L 9.8125 71.09375 
Q 15.4375 72.65625 20.34375 73.4375 
Q 25.25 74.21875 29.59375 74.21875 
Q 40.828125 74.21875 47.359375 69.109375 
Q 53.90625 64.015625 53.90625 55.328125 
Q 53.90625 49.265625 50.4375 45.09375 
Q 46.96875 40.921875 40.578125 39.3125 
z
" id="DejaVuSans-51"/>
    </defs>
    <g style="fill:#262626;" transform="translate(208.327322 572.795069)scale(0.1 -0.1)">
     <use xlink:href="#DejaVuSans-56"/>
     <use x="63.623047" xlink:href="#DejaVuSans-57"/>
     <use x="127.246094" xlink:href="#DejaVuSans-55"/>
     <use x="190.869141" xlink:href="#DejaVuSans-57"/>
     <use x="254.492188" xlink:href="#DejaVuSans-32"/>
     <use x="286.279297" xlink:href="#DejaVuSans-40"/>
     <use x="325.292969" xlink:href="#DejaVuSans-50"/>
     <use x="388.916016" xlink:href="#DejaVuSans-48"/>
     <use x="452.539062" xlink:href="#DejaVuSans-49"/>
     <use x="516.162109" xlink:href="#DejaVuSans-53"/>
     <use x="579.785156" xlink:href="#DejaVuSans-45"/>
     <use x="615.869141" xlink:href="#DejaVuSans-48"/>
     <use x="679.492188" xlink:href="#DejaVuSans-54"/>
     <use x="743.115234" xlink:href="#DejaVuSans-45"/>
     <use x="779.199219" xlink:href="#DejaVuSans-51"/>
     <use x="842.822266" xlink:href="#DejaVuSans-48"/>
     <use x="906.445312" xlink:href="#DejaVuSans-41"/>
    </g>
   </g>
   <g id="text_14">
    <!-- 17957 (2016-02-10) -->
    <g style="fill:#262626;" transform="translate(259.096999 522.391701)scale(0.1 -0.1)">
     <use xlink:href="#DejaVuSans-49"/>
     <use x="63.623047" xlink:href="#DejaVuSans-55"/>
     <use x="127.246094" xlink:href="#DejaVuSans-57"/>
     <use x="190.869141" xlink:href="#DejaVuSans-53"/>
     <use x="254.492188" xlink:href="#DejaVuSans-55"/>
     <use x="318.115234" xlink:href="#DejaVuSans-32"/>
     <use x="349.902344" xlink:href="#DejaVuSans-40"/>
     <use x="388.916016" xlink:href="#DejaVuSans-50"/>
     <use x="452.539062" xlink:href="#DejaVuSans-48"/>
     <use x="516.162109" xlink:href="#DejaVuSans-49"/>
     <use x="579.785156" xlink:href="#DejaVuSans-54"/>
     <use x="643.408203" xlink:href="#DejaVuSans-45"/>
     <use x="679.492188" xlink:href="#DejaVuSans-48"/>
     <use x="743.115234" xlink:href="#DejaVuSans-50"/>
     <use x="806.738281" xlink:href="#DejaVuSans-45"/>
     <use x="842.822266" xlink:href="#DejaVuSans-49"/>
     <use x="906.445312" xlink:href="#DejaVuSans-48"/>
     <use x="970.068359" xlink:href="#DejaVuSans-41"/>
    </g>
   </g>
   <g id="text_15">
    <!-- 26935 (2016-08-25) -->
    <g style="fill:#262626;" transform="translate(303.86448 471.988332)scale(0.1 -0.1)">
     <use xlink:href="#DejaVuSans-50"/>
     <use x="63.623047" xlink:href="#DejaVuSans-54"/>
     <use x="127.246094" xlink:href="#DejaVuSans-57"/>
     <use x="190.869141" xlink:href="#DejaVuSans-51"/>
     <use x="254.492188" xlink:href="#DejaVuSans-53"/>
     <use x="318.115234" xlink:href="#DejaVuSans-32"/>
     <use x="349.902344" xlink:href="#DejaVuSans-40"/>
     <use x="388.916016" xlink:href="#DejaVuSans-50"/>
     <use x="452.539062" xlink:href="#DejaVuSans-48"/>
     <use x="516.162109" xlink:href="#DejaVuSans-49"/>
     <use x="579.785156" xlink:href="#DejaVuSans-54"/>
     <use x="643.408203" xlink:href="#DejaVuSans-45"/>
     <use x="679.492188" xlink:href="#DejaVuSans-48"/>
     <use x="743.115234" xlink:href="#DejaVuSans-56"/>
     <use x="806.738281" xlink:href="#DejaVuSans-45"/>
     <use x="842.822266" xlink:href="#DejaVuSans-50"/>
     <use x="906.445312" xlink:href="#DejaVuSans-53"/>
     <use x="970.068359" xlink:href="#DejaVuSans-41"/>
    </g>
   </g>
   <g id="text_16">
    <!-- 35913 (2017-02-22) -->
    <g style="fill:#262626;" transform="translate(344.793643 421.584964)scale(0.1 -0.1)">
     <use xlink:href="#DejaVuSans-51"/>
     <use x="63.623047" xlink:href="#DejaVuSans-53"/>
     <use x="127.246094" xlink:href="#DejaVuSans-57"/>
     <use x="190.869141" xlink:href="#DejaVuSans-49"/>
     <use x="254.492188" xlink:href="#DejaVuSans-51"/>
     <use x="318.115234" xlink:href="#DejaVuSans-32"/>
     <use x="349.902344" xlink:href="#DejaVuSans-40"/>
     <use x="388.916016" xlink:href="#DejaVuSans-50"/>
     <use x="452.539062" xlink:href="#DejaVuSans-48"/>
     <use x="516.162109" xlink:href="#DejaVuSans-49"/>
     <use x="579.785156" xlink:href="#DejaVuSans-55"/>
     <use x="643.408203" xlink:href="#DejaVuSans-45"/>
     <use x="679.492188" xlink:href="#DejaVuSans-48"/>
     <use x="743.115234" xlink:href="#DejaVuSans-50"/>
     <use x="806.738281" xlink:href="#DejaVuSans-45"/>
     <use x="842.822266" xlink:href="#DejaVuSans-50"/>
     <use x="906.445312" xlink:href="#DejaVuSans-50"/>
     <use x="970.068359" xlink:href="#DejaVuSans-41"/>
    </g>
   </g>
   <g id="text_17">
    <!-- 44891 (2017-08-10) -->
    <g style="fill:#262626;" transform="translate(383.019161 371.181595)scale(0.1 -0.1)">
     <use xlink:href="#DejaVuSans-52"/>
     <use x="63.623047" xlink:href="#DejaVuSans-52"/>
     <use x="127.246094" xlink:href="#DejaVuSans-56"/>
     <use x="190.869141" xlink:href="#DejaVuSans-57"/>
     <use x="254.492188" xlink:href="#DejaVuSans-49"/>
     <use x="318.115234" xlink:href="#DejaVuSans-32"/>
     <use x="349.902344" xlink:href="#DejaVuSans-40"/>
     <use x="388.916016" xlink:href="#DejaVuSans-50"/>
     <use x="452.539062" xlink:href="#DejaVuSans-48"/>
     <use x="516.162109" xlink:href="#DejaVuSans-49"/>
     <use x="579.785156" xlink:href="#DejaVuSans-55"/>
     <use x="643.408203" xlink:href="#DejaVuSans-45"/>
     <use x="679.492188" xlink:href="#DejaVuSans-48"/>
     <use x="743.115234" xlink:href="#DejaVuSans-56"/>
     <use x="806.738281" xlink:href="#DejaVuSans-45"/>
     <use x="842.822266" xlink:href="#DejaVuSans-49"/>
     <use x="906.445312" xlink:href="#DejaVuSans-48"/>
     <use x="970.068359" xlink:href="#DejaVuSans-41"/>
    </g>
   </g>
   <g id="text_18">
    <!-- 53868 (2018-02-08) -->
    <g style="fill:#262626;" transform="translate(424.29131 320.783841)scale(0.1 -0.1)">
     <use xlink:href="#DejaVuSans-53"/>
     <use x="63.623047" xlink:href="#DejaVuSans-51"/>
     <use x="127.246094" xlink:href="#DejaVuSans-56"/>
     <use x="190.869141" xlink:href="#DejaVuSans-54"/>
     <use x="254.492188" xlink:href="#DejaVuSans-56"/>
     <use x="318.115234" xlink:href="#DejaVuSans-32"/>
     <use x="349.902344" xlink:href="#DejaVuSans-40"/>
     <use x="388.916016" xlink:href="#DejaVuSans-50"/>
     <use x="452.539062" xlink:href="#DejaVuSans-48"/>
     <use x="516.162109" xlink:href="#DejaVuSans-49"/>
     <use x="579.785156" xlink:href="#DejaVuSans-56"/>
     <use x="643.408203" xlink:href="#DejaVuSans-45"/>
     <use x="679.492188" xlink:href="#DejaVuSans-48"/>
     <use x="743.115234" xlink:href="#DejaVuSans-50"/>
     <use x="806.738281" xlink:href="#DejaVuSans-45"/>
     <use x="842.822266" xlink:href="#DejaVuSans-48"/>
     <use x="906.445312" xlink:href="#DejaVuSans-56"/>
     <use x="970.068359" xlink:href="#DejaVuSans-41"/>
    </g>
   </g>
   <g id="text_19">
    <!-- 62845 (2018-07-24) -->
    <g style="fill:#262626;" transform="translate(461.757093 270.386086)scale(0.1 -0.1)">
     <use xlink:href="#DejaVuSans-54"/>
     <use x="63.623047" xlink:href="#DejaVuSans-50"/>
     <use x="127.246094" xlink:href="#DejaVuSans-56"/>
     <use x="190.869141" xlink:href="#DejaVuSans-52"/>
     <use x="254.492188" xlink:href="#DejaVuSans-53"/>
     <use x="318.115234" xlink:href="#DejaVuSans-32"/>
     <use x="349.902344" xlink:href="#DejaVuSans-40"/>
     <use x="388.916016" xlink:href="#DejaVuSans-50"/>
     <use x="452.539062" xlink:href="#DejaVuSans-48"/>
     <use x="516.162109" xlink:href="#DejaVuSans-49"/>
     <use x="579.785156" xlink:href="#DejaVuSans-56"/>
     <use x="643.408203" xlink:href="#DejaVuSans-45"/>
     <use x="679.492188" xlink:href="#DejaVuSans-48"/>
     <use x="743.115234" xlink:href="#DejaVuSans-55"/>
     <use x="806.738281" xlink:href="#DejaVuSans-45"/>
     <use x="842.822266" xlink:href="#DejaVuSans-50"/>
     <use x="906.445312" xlink:href="#DejaVuSans-52"/>
     <use x="970.068359" xlink:href="#DejaVuSans-41"/>
    </g>
   </g>
   <g id="text_20">
    <!-- 71822 (2019-03-22) -->
    <g style="fill:#262626;" transform="translate(516.323425 219.988332)scale(0.1 -0.1)">
     <use xlink:href="#DejaVuSans-55"/>
     <use x="63.623047" xlink:href="#DejaVuSans-49"/>
     <use x="127.246094" xlink:href="#DejaVuSans-56"/>
     <use x="190.869141" xlink:href="#DejaVuSans-50"/>
     <use x="254.492188" xlink:href="#DejaVuSans-50"/>
     <use x="318.115234" xlink:href="#DejaVuSans-32"/>
     <use x="349.902344" xlink:href="#DejaVuSans-40"/>
     <use x="388.916016" xlink:href="#DejaVuSans-50"/>
     <use x="452.539062" xlink:href="#DejaVuSans-48"/>
     <use x="516.162109" xlink:href="#DejaVuSans-49"/>
     <use x="579.785156" xlink:href="#DejaVuSans-57"/>
     <use x="643.408203" xlink:href="#DejaVuSans-45"/>
     <use x="679.492188" xlink:href="#DejaVuSans-48"/>
     <use x="743.115234" xlink:href="#DejaVuSans-51"/>
     <use x="806.738281" xlink:href="#DejaVuSans-45"/>
     <use x="842.822266" xlink:href="#DejaVuSans-50"/>
     <use x="906.445312" xlink:href="#DejaVuSans-50"/>
     <use x="970.068359" xlink:href="#DejaVuSans-41"/>
    </g>
   </g>
   <g id="text_21">
    <!-- 80799 (2019-11-06) -->
    <g style="fill:#262626;" transform="translate(568.260927 169.590578)scale(0.1 -0.1)">
     <use xlink:href="#DejaVuSans-56"/>
     <use x="63.623047" xlink:href="#DejaVuSans-48"/>
     <use x="127.246094" xlink:href="#DejaVuSans-55"/>
     <use x="190.869141" xlink:href="#DejaVuSans-57"/>
     <use x="254.492188" xlink:href="#DejaVuSans-57"/>
     <use x="318.115234" xlink:href="#DejaVuSans-32"/>
     <use x="349.902344" xlink:href="#DejaVuSans-40"/>
     <use x="388.916016" xlink:href="#DejaVuSans-50"/>
     <use x="452.539062" xlink:href="#DejaVuSans-48"/>
     <use x="516.162109" xlink:href="#DejaVuSans-49"/>
     <use x="579.785156" xlink:href="#DejaVuSans-57"/>
     <use x="643.408203" xlink:href="#DejaVuSans-45"/>
     <use x="679.492188" xlink:href="#DejaVuSans-49"/>
     <use x="743.115234" xlink:href="#DejaVuSans-49"/>
     <use x="806.738281" xlink:href="#DejaVuSans-45"/>
     <use x="842.822266" xlink:href="#DejaVuSans-48"/>
     <use x="906.445312" xlink:href="#DejaVuSans-54"/>
     <use x="970.068359" xlink:href="#DejaVuSans-41"/>
    </g>
   </g>
   <g id="text_22">
    <!-- 89775 (2020-07-26) -->
    <g style="fill:#262626;" transform="translate(627.636364 119.198437)scale(0.1 -0.1)">
     <use xlink:href="#DejaVuSans-56"/>
     <use x="63.623047" xlink:href="#DejaVuSans-57"/>
     <use x="127.246094" xlink:href="#DejaVuSans-55"/>
     <use x="190.869141" xlink:href="#DejaVuSans-55"/>
     <use x="254.492188" xlink:href="#DejaVuSans-53"/>
     <use x="318.115234" xlink:href="#DejaVuSans-32"/>
     <use x="349.902344" xlink:href="#DejaVuSans-40"/>
     <use x="388.916016" xlink:href="#DejaVuSans-50"/>
     <use x="452.539062" xlink:href="#DejaVuSans-48"/>
     <use x="516.162109" xlink:href="#DejaVuSans-50"/>
     <use x="579.785156" xlink:href="#DejaVuSans-48"/>
     <use x="643.408203" xlink:href="#DejaVuSans-45"/>
     <use x="679.492188" xlink:href="#DejaVuSans-48"/>
     <use x="743.115234" xlink:href="#DejaVuSans-55"/>
     <use x="806.738281" xlink:href="#DejaVuSans-45"/>
     <use x="842.822266" xlink:href="#DejaVuSans-50"/>
     <use x="906.445312" xlink:href="#DejaVuSans-54"/>
     <use x="970.068359" xlink:href="#DejaVuSans-41"/>
    </g>
   </g>
   <g id="text_23">
    <!-- Closed issues and PRs over time -->
    <defs>
     <path d="M 64.40625 67.28125 
L 64.40625 56.890625 
Q 59.421875 61.53125 53.78125 63.8125 
Q 48.140625 66.109375 41.796875 66.109375 
Q 29.296875 66.109375 22.65625 58.46875 
Q 16.015625 50.828125 16.015625 36.375 
Q 16.015625 21.96875 22.65625 14.328125 
Q 29.296875 6.6875 41.796875 6.6875 
Q 48.140625 6.6875 53.78125 8.984375 
Q 59.421875 11.28125 64.40625 15.921875 
L 64.40625 5.609375 
Q 59.234375 2.09375 53.4375 0.328125 
Q 47.65625 -1.421875 41.21875 -1.421875 
Q 24.65625 -1.421875 15.125 8.703125 
Q 5.609375 18.84375 5.609375 36.375 
Q 5.609375 53.953125 15.125 64.078125 
Q 24.65625 74.21875 41.21875 74.21875 
Q 47.75 74.21875 53.53125 72.484375 
Q 59.328125 70.75 64.40625 67.28125 
z
" id="DejaVuSans-67"/>
     <path d="M 9.421875 75.984375 
L 18.40625 75.984375 
L 18.40625 0 
L 9.421875 0 
z
" id="DejaVuSans-108"/>
     <path d="M 30.609375 48.390625 
Q 23.390625 48.390625 19.1875 42.75 
Q 14.984375 37.109375 14.984375 27.296875 
Q 14.984375 17.484375 19.15625 11.84375 
Q 23.34375 6.203125 30.609375 6.203125 
Q 37.796875 6.203125 41.984375 11.859375 
Q 46.1875 17.53125 46.1875 27.296875 
Q 46.1875 37.015625 41.984375 42.703125 
Q 37.796875 48.390625 30.609375 48.390625 
z
M 30.609375 56 
Q 42.328125 56 49.015625 48.375 
Q 55.71875 40.765625 55.71875 27.296875 
Q 55.71875 13.875 49.015625 6.21875 
Q 42.328125 -1.421875 30.609375 -1.421875 
Q 18.84375 -1.421875 12.171875 6.21875 
Q 5.515625 13.875 5.515625 27.296875 
Q 5.515625 40.765625 12.171875 48.375 
Q 18.84375 56 30.609375 56 
z
" id="DejaVuSans-111"/>
     <path d="M 44.28125 53.078125 
L 44.28125 44.578125 
Q 40.484375 46.53125 36.375 47.5 
Q 32.28125 48.484375 27.875 48.484375 
Q 21.1875 48.484375 17.84375 46.4375 
Q 14.5 44.390625 14.5 40.28125 
Q 14.5 37.15625 16.890625 35.375 
Q 19.28125 33.59375 26.515625 31.984375 
L 29.59375 31.296875 
Q 39.15625 29.25 43.1875 25.515625 
Q 47.21875 21.78125 47.21875 15.09375 
Q 47.21875 7.46875 41.1875 3.015625 
Q 35.15625 -1.421875 24.609375 -1.421875 
Q 20.21875 -1.421875 15.453125 -0.5625 
Q 10.6875 0.296875 5.421875 2 
L 5.421875 11.28125 
Q 10.40625 8.6875 15.234375 7.390625 
Q 20.0625 6.109375 24.8125 6.109375 
Q 31.15625 6.109375 34.5625 8.28125 
Q 37.984375 10.453125 37.984375 14.40625 
Q 37.984375 18.0625 35.515625 20.015625 
Q 33.0625 21.96875 24.703125 23.78125 
L 21.578125 24.515625 
Q 13.234375 26.265625 9.515625 29.90625 
Q 5.8125 33.546875 5.8125 39.890625 
Q 5.8125 47.609375 11.28125 51.796875 
Q 16.75 56 26.8125 56 
Q 31.78125 56 36.171875 55.265625 
Q 40.578125 54.546875 44.28125 53.078125 
z
" id="DejaVuSans-115"/>
     <path d="M 56.203125 29.59375 
L 56.203125 25.203125 
L 14.890625 25.203125 
Q 15.484375 15.921875 20.484375 11.0625 
Q 25.484375 6.203125 34.421875 6.203125 
Q 39.59375 6.203125 44.453125 7.46875 
Q 49.3125 8.734375 54.109375 11.28125 
L 54.109375 2.78125 
Q 49.265625 0.734375 44.1875 -0.34375 
Q 39.109375 -1.421875 33.890625 -1.421875 
Q 20.796875 -1.421875 13.15625 6.1875 
Q 5.515625 13.8125 5.515625 26.8125 
Q 5.515625 40.234375 12.765625 48.109375 
Q 20.015625 56 32.328125 56 
Q 43.359375 56 49.78125 48.890625 
Q 56.203125 41.796875 56.203125 29.59375 
z
M 47.21875 32.234375 
Q 47.125 39.59375 43.09375 43.984375 
Q 39.0625 48.390625 32.421875 48.390625 
Q 24.90625 48.390625 20.390625 44.140625 
Q 15.875 39.890625 15.1875 32.171875 
z
" id="DejaVuSans-101"/>
     <path d="M 45.40625 46.390625 
L 45.40625 75.984375 
L 54.390625 75.984375 
L 54.390625 0 
L 45.40625 0 
L 45.40625 8.203125 
Q 42.578125 3.328125 38.25 0.953125 
Q 33.9375 -1.421875 27.875 -1.421875 
Q 17.96875 -1.421875 11.734375 6.484375 
Q 5.515625 14.40625 5.515625 27.296875 
Q 5.515625 40.1875 11.734375 48.09375 
Q 17.96875 56 27.875 56 
Q 33.9375 56 38.25 53.625 
Q 42.578125 51.265625 45.40625 46.390625 
z
M 14.796875 27.296875 
Q 14.796875 17.390625 18.875 11.75 
Q 22.953125 6.109375 30.078125 6.109375 
Q 37.203125 6.109375 41.296875 11.75 
Q 45.40625 17.390625 45.40625 27.296875 
Q 45.40625 37.203125 41.296875 42.84375 
Q 37.203125 48.484375 30.078125 48.484375 
Q 22.953125 48.484375 18.875 42.84375 
Q 14.796875 37.203125 14.796875 27.296875 
z
" id="DejaVuSans-100"/>
     <path d="M 9.421875 54.6875 
L 18.40625 54.6875 
L 18.40625 0 
L 9.421875 0 
z
M 9.421875 75.984375 
L 18.40625 75.984375 
L 18.40625 64.59375 
L 9.421875 64.59375 
z
" id="DejaVuSans-105"/>
     <path d="M 8.5 21.578125 
L 8.5 54.6875 
L 17.484375 54.6875 
L 17.484375 21.921875 
Q 17.484375 14.15625 20.5 10.265625 
Q 23.53125 6.390625 29.59375 6.390625 
Q 36.859375 6.390625 41.078125 11.03125 
Q 45.3125 15.671875 45.3125 23.6875 
L 45.3125 54.6875 
L 54.296875 54.6875 
L 54.296875 0 
L 45.3125 0 
L 45.3125 8.40625 
Q 42.046875 3.421875 37.71875 1 
Q 33.40625 -1.421875 27.6875 -1.421875 
Q 18.265625 -1.421875 13.375 4.4375 
Q 8.5 10.296875 8.5 21.578125 
z
M 31.109375 56 
z
" id="DejaVuSans-117"/>
     <path d="M 34.28125 27.484375 
Q 23.390625 27.484375 19.1875 25 
Q 14.984375 22.515625 14.984375 16.5 
Q 14.984375 11.71875 18.140625 8.90625 
Q 21.296875 6.109375 26.703125 6.109375 
Q 34.1875 6.109375 38.703125 11.40625 
Q 43.21875 16.703125 43.21875 25.484375 
L 43.21875 27.484375 
z
M 52.203125 31.203125 
L 52.203125 0 
L 43.21875 0 
L 43.21875 8.296875 
Q 40.140625 3.328125 35.546875 0.953125 
Q 30.953125 -1.421875 24.3125 -1.421875 
Q 15.921875 -1.421875 10.953125 3.296875 
Q 6 8.015625 6 15.921875 
Q 6 25.140625 12.171875 29.828125 
Q 18.359375 34.515625 30.609375 34.515625 
L 43.21875 34.515625 
L 43.21875 35.40625 
Q 43.21875 41.609375 39.140625 45 
Q 35.0625 48.390625 27.6875 48.390625 
Q 23 48.390625 18.546875 47.265625 
Q 14.109375 46.140625 10.015625 43.890625 
L 10.015625 52.203125 
Q 14.9375 54.109375 19.578125 55.046875 
Q 24.21875 56 28.609375 56 
Q 40.484375 56 46.34375 49.84375 
Q 52.203125 43.703125 52.203125 31.203125 
z
" id="DejaVuSans-97"/>
     <path d="M 54.890625 33.015625 
L 54.890625 0 
L 45.90625 0 
L 45.90625 32.71875 
Q 45.90625 40.484375 42.875 44.328125 
Q 39.84375 48.1875 33.796875 48.1875 
Q 26.515625 48.1875 22.3125 43.546875 
Q 18.109375 38.921875 18.109375 30.90625 
L 18.109375 0 
L 9.078125 0 
L 9.078125 54.6875 
L 18.109375 54.6875 
L 18.109375 46.1875 
Q 21.34375 51.125 25.703125 53.5625 
Q 30.078125 56 35.796875 56 
Q 45.21875 56 50.046875 50.171875 
Q 54.890625 44.34375 54.890625 33.015625 
z
" id="DejaVuSans-110"/>
     <path d="M 19.671875 64.796875 
L 19.671875 37.40625 
L 32.078125 37.40625 
Q 38.96875 37.40625 42.71875 40.96875 
Q 46.484375 44.53125 46.484375 51.125 
Q 46.484375 57.671875 42.71875 61.234375 
Q 38.96875 64.796875 32.078125 64.796875 
z
M 9.8125 72.90625 
L 32.078125 72.90625 
Q 44.34375 72.90625 50.609375 67.359375 
Q 56.890625 61.8125 56.890625 51.125 
Q 56.890625 40.328125 50.609375 34.8125 
Q 44.34375 29.296875 32.078125 29.296875 
L 19.671875 29.296875 
L 19.671875 0 
L 9.8125 0 
z
" id="DejaVuSans-80"/>
     <path d="M 44.390625 34.1875 
Q 47.5625 33.109375 50.5625 29.59375 
Q 53.5625 26.078125 56.59375 19.921875 
L 66.609375 0 
L 56 0 
L 46.6875 18.703125 
Q 43.0625 26.03125 39.671875 28.421875 
Q 36.28125 30.8125 30.421875 30.8125 
L 19.671875 30.8125 
L 19.671875 0 
L 9.8125 0 
L 9.8125 72.90625 
L 32.078125 72.90625 
Q 44.578125 72.90625 50.734375 67.671875 
Q 56.890625 62.453125 56.890625 51.90625 
Q 56.890625 45.015625 53.6875 40.46875 
Q 50.484375 35.9375 44.390625 34.1875 
z
M 19.671875 64.796875 
L 19.671875 38.921875 
L 32.078125 38.921875 
Q 39.203125 38.921875 42.84375 42.21875 
Q 46.484375 45.515625 46.484375 51.90625 
Q 46.484375 58.296875 42.84375 61.546875 
Q 39.203125 64.796875 32.078125 64.796875 
z
" id="DejaVuSans-82"/>
     <path d="M 2.984375 54.6875 
L 12.5 54.6875 
L 29.59375 8.796875 
L 46.6875 54.6875 
L 56.203125 54.6875 
L 35.6875 0 
L 23.484375 0 
z
" id="DejaVuSans-118"/>
     <path d="M 41.109375 46.296875 
Q 39.59375 47.171875 37.8125 47.578125 
Q 36.03125 48 33.890625 48 
Q 26.265625 48 22.1875 43.046875 
Q 18.109375 38.09375 18.109375 28.8125 
L 18.109375 0 
L 9.078125 0 
L 9.078125 54.6875 
L 18.109375 54.6875 
L 18.109375 46.1875 
Q 20.953125 51.171875 25.484375 53.578125 
Q 30.03125 56 36.53125 56 
Q 37.453125 56 38.578125 55.875 
Q 39.703125 55.765625 41.0625 55.515625 
z
" id="DejaVuSans-114"/>
     <path d="M 18.3125 70.21875 
L 18.3125 54.6875 
L 36.8125 54.6875 
L 36.8125 47.703125 
L 18.3125 47.703125 
L 18.3125 18.015625 
Q 18.3125 11.328125 20.140625 9.421875 
Q 21.96875 7.515625 27.59375 7.515625 
L 36.8125 7.515625 
L 36.8125 0 
L 27.59375 0 
Q 17.1875 0 13.234375 3.875 
Q 9.28125 7.765625 9.28125 18.015625 
L 9.28125 47.703125 
L 2.6875 47.703125 
L 2.6875 54.6875 
L 9.28125 54.6875 
L 9.28125 70.21875 
z
" id="DejaVuSans-116"/>
     <path d="M 52 44.1875 
Q 55.375 50.25 60.0625 53.125 
Q 64.75 56 71.09375 56 
Q 79.640625 56 84.28125 50.015625 
Q 88.921875 44.046875 88.921875 33.015625 
L 88.921875 0 
L 79.890625 0 
L 79.890625 32.71875 
Q 79.890625 40.578125 77.09375 44.375 
Q 74.3125 48.1875 68.609375 48.1875 
Q 61.625 48.1875 57.5625 43.546875 
Q 53.515625 38.921875 53.515625 30.90625 
L 53.515625 0 
L 44.484375 0 
L 44.484375 32.71875 
Q 44.484375 40.625 41.703125 44.40625 
Q 38.921875 48.1875 33.109375 48.1875 
Q 26.21875 48.1875 22.15625 43.53125 
Q 18.109375 38.875 18.109375 30.90625 
L 18.109375 0 
L 9.078125 0 
L 9.078125 54.6875 
L 18.109375 54.6875 
L 18.109375 46.1875 
Q 21.1875 51.21875 25.484375 53.609375 
Q 29.78125 56 35.6875 56 
Q 41.65625 56 45.828125 52.96875 
Q 50 49.953125 52 44.1875 
z
" id="DejaVuSans-109"/>
    </defs>
    <g style="fill:#262626;" transform="translate(271.635938 80.4)scale(0.12 -0.12)">
     <use xlink:href="#DejaVuSans-67"/>
     <use x="69.824219" xlink:href="#DejaVuSans-108"/>
     <use x="97.607422" xlink:href="#DejaVuSans-111"/>
     <use x="158.789062" xlink:href="#DejaVuSans-115"/>
     <use x="210.888672" xlink:href="#DejaVuSans-101"/>
     <use x="272.412109" xlink:href="#DejaVuSans-100"/>
     <use x="335.888672" xlink:href="#DejaVuSans-32"/>
     <use x="367.675781" xlink:href="#DejaVuSans-105"/>
     <use x="395.458984" xlink:href="#DejaVuSans-115"/>
     <use x="447.558594" xlink:href="#DejaVuSans-115"/>
     <use x="499.658203" xlink:href="#DejaVuSans-117"/>
     <use x="563.037109" xlink:href="#DejaVuSans-101"/>
     <use x="624.560547" xlink:href="#DejaVuSans-115"/>
     <use x="676.660156" xlink:href="#DejaVuSans-32"/>
     <use x="708.447266" xlink:href="#DejaVuSans-97"/>
     <use x="769.726562" xlink:href="#DejaVuSans-110"/>
     <use x="833.105469" xlink:href="#DejaVuSans-100"/>
     <use x="896.582031" xlink:href="#DejaVuSans-32"/>
     <use x="928.369141" xlink:href="#DejaVuSans-80"/>
     <use x="988.671875" xlink:href="#DejaVuSans-82"/>
     <use x="1058.154297" xlink:href="#DejaVuSans-115"/>
     <use x="1110.253906" xlink:href="#DejaVuSans-32"/>
     <use x="1142.041016" xlink:href="#DejaVuSans-111"/>
     <use x="1203.222656" xlink:href="#DejaVuSans-118"/>
     <use x="1262.402344" xlink:href="#DejaVuSans-101"/>
     <use x="1323.925781" xlink:href="#DejaVuSans-114"/>
     <use x="1365.039062" xlink:href="#DejaVuSans-32"/>
     <use x="1396.826172" xlink:href="#DejaVuSans-116"/>
     <use x="1436.035156" xlink:href="#DejaVuSans-105"/>
     <use x="1463.818359" xlink:href="#DejaVuSans-109"/>
     <use x="1561.230469" xlink:href="#DejaVuSans-101"/>
    </g>
   </g>
  </g>
 </g>
 <defs>
  <clipPath id="p5a259b5439">
   <rect height="554.4" width="558" x="90" y="86.4"/>
  </clipPath>
 </defs>
</svg>
