<?xml version="1.0" encoding="utf-8" standalone="no"?>
<!DOCTYPE svg PUBLIC "-//W3C//DTD SVG 1.1//EN"
  "http://www.w3.org/Graphics/SVG/1.1/DTD/svg11.dtd">
<!-- Created with matplotlib (https://matplotlib.org/) -->
<svg height="720pt" version="1.1" viewBox="0 0 720 720" width="720pt" xmlns="http://www.w3.org/2000/svg" xmlns:xlink="http://www.w3.org/1999/xlink">
 <defs>
  <style type="text/css">
*{stroke-linecap:butt;stroke-linejoin:round;}
  </style>
 </defs>
 <g id="figure_1">
  <g id="patch_1">
   <path d="M 0 720 
L 720 720 
L 720 0 
L 0 0 
z
" style="fill:#ffffff;"/>
  </g>
  <g id="axes_1">
   <g id="patch_2">
    <path d="M 90 640.8 
L 648 640.8 
L 648 86.4 
L 90 86.4 
z
" style="fill:#ffffff;"/>
   </g>
   <g id="matplotlib.axis_1">
    <g id="xtick_1">
     <g id="line2d_1">
      <path clip-path="url(#p55b402bebb)" d="M 164.059396 640.8 
L 164.059396 86.4 
" style="fill:none;stroke:#cccccc;stroke-linecap:round;stroke-width:0.8;"/>
     </g>
     <g id="line2d_2"/>
     <g id="text_1">
      <!-- 2015 -->
      <defs>
       <path d="M 19.1875 8.296875 
L 53.609375 8.296875 
L 53.609375 0 
L 7.328125 0 
L 7.328125 8.296875 
Q 12.9375 14.109375 22.625 23.890625 
Q 32.328125 33.6875 34.8125 36.53125 
Q 39.546875 41.84375 41.421875 45.53125 
Q 43.3125 49.21875 43.3125 52.78125 
Q 43.3125 58.59375 39.234375 62.25 
Q 35.15625 65.921875 28.609375 65.921875 
Q 23.96875 65.921875 18.8125 64.3125 
Q 13.671875 62.703125 7.8125 59.421875 
L 7.8125 69.390625 
Q 13.765625 71.78125 18.9375 73 
Q 24.125 74.21875 28.421875 74.21875 
Q 39.75 74.21875 46.484375 68.546875 
Q 53.21875 62.890625 53.21875 53.421875 
Q 53.21875 48.921875 51.53125 44.890625 
Q 49.859375 40.875 45.40625 35.40625 
Q 44.1875 33.984375 37.640625 27.21875 
Q 31.109375 20.453125 19.1875 8.296875 
z
" id="DejaVuSans-50"/>
       <path d="M 31.78125 66.40625 
Q 24.171875 66.40625 20.328125 58.90625 
Q 16.5 51.421875 16.5 36.375 
Q 16.5 21.390625 20.328125 13.890625 
Q 24.171875 6.390625 31.78125 6.390625 
Q 39.453125 6.390625 43.28125 13.890625 
Q 47.125 21.390625 47.125 36.375 
Q 47.125 51.421875 43.28125 58.90625 
Q 39.453125 66.40625 31.78125 66.40625 
z
M 31.78125 74.21875 
Q 44.046875 74.21875 50.515625 64.515625 
Q 56.984375 54.828125 56.984375 36.375 
Q 56.984375 17.96875 50.515625 8.265625 
Q 44.046875 -1.421875 31.78125 -1.421875 
Q 19.53125 -1.421875 13.0625 8.265625 
Q 6.59375 17.96875 6.59375 36.375 
Q 6.59375 54.828125 13.0625 64.515625 
Q 19.53125 74.21875 31.78125 74.21875 
z
" id="DejaVuSans-48"/>
       <path d="M 12.40625 8.296875 
L 28.515625 8.296875 
L 28.515625 63.921875 
L 10.984375 60.40625 
L 10.984375 69.390625 
L 28.421875 72.90625 
L 38.28125 72.90625 
L 38.28125 8.296875 
L 54.390625 8.296875 
L 54.390625 0 
L 12.40625 0 
z
" id="DejaVuSans-49"/>
       <path d="M 10.796875 72.90625 
L 49.515625 72.90625 
L 49.515625 64.59375 
L 19.828125 64.59375 
L 19.828125 46.734375 
Q 21.96875 47.46875 24.109375 47.828125 
Q 26.265625 48.1875 28.421875 48.1875 
Q 40.625 48.1875 47.75 41.5 
Q 54.890625 34.8125 54.890625 23.390625 
Q 54.890625 11.625 47.5625 5.09375 
Q 40.234375 -1.421875 26.90625 -1.421875 
Q 22.3125 -1.421875 17.546875 -0.640625 
Q 12.796875 0.140625 7.71875 1.703125 
L 7.71875 11.625 
Q 12.109375 9.234375 16.796875 8.0625 
Q 21.484375 6.890625 26.703125 6.890625 
Q 35.15625 6.890625 40.078125 11.328125 
Q 45.015625 15.765625 45.015625 23.390625 
Q 45.015625 31 40.078125 35.4375 
Q 35.15625 39.890625 26.703125 39.890625 
Q 22.75 39.890625 18.8125 39.015625 
Q 14.890625 38.140625 10.796875 36.28125 
z
" id="DejaVuSans-53"/>
      </defs>
      <g style="fill:#262626;" transform="translate(151.334396 651.898438)scale(0.1 -0.1)">
       <use xlink:href="#DejaVuSans-50"/>
       <use x="63.623047" xlink:href="#DejaVuSans-48"/>
       <use x="127.246094" xlink:href="#DejaVuSans-49"/>
       <use x="190.869141" xlink:href="#DejaVuSans-53"/>
      </g>
     </g>
    </g>
    <g id="xtick_2">
     <g id="line2d_3">
      <path clip-path="url(#p55b402bebb)" d="M 249.558688 640.8 
L 249.558688 86.4 
" style="fill:none;stroke:#cccccc;stroke-linecap:round;stroke-width:0.8;"/>
     </g>
     <g id="line2d_4"/>
     <g id="text_2">
      <!-- 2016 -->
      <defs>
       <path d="M 33.015625 40.375 
Q 26.375 40.375 22.484375 35.828125 
Q 18.609375 31.296875 18.609375 23.390625 
Q 18.609375 15.53125 22.484375 10.953125 
Q 26.375 6.390625 33.015625 6.390625 
Q 39.65625 6.390625 43.53125 10.953125 
Q 47.40625 15.53125 47.40625 23.390625 
Q 47.40625 31.296875 43.53125 35.828125 
Q 39.65625 40.375 33.015625 40.375 
z
M 52.59375 71.296875 
L 52.59375 62.3125 
Q 48.875 64.0625 45.09375 64.984375 
Q 41.3125 65.921875 37.59375 65.921875 
Q 27.828125 65.921875 22.671875 59.328125 
Q 17.53125 52.734375 16.796875 39.40625 
Q 19.671875 43.65625 24.015625 45.921875 
Q 28.375 48.1875 33.59375 48.1875 
Q 44.578125 48.1875 50.953125 41.515625 
Q 57.328125 34.859375 57.328125 23.390625 
Q 57.328125 12.15625 50.6875 5.359375 
Q 44.046875 -1.421875 33.015625 -1.421875 
Q 20.359375 -1.421875 13.671875 8.265625 
Q 6.984375 17.96875 6.984375 36.375 
Q 6.984375 53.65625 15.1875 63.9375 
Q 23.390625 74.21875 37.203125 74.21875 
Q 40.921875 74.21875 44.703125 73.484375 
Q 48.484375 72.75 52.59375 71.296875 
z
" id="DejaVuSans-54"/>
      </defs>
      <g style="fill:#262626;" transform="translate(236.833688 651.898438)scale(0.1 -0.1)">
       <use xlink:href="#DejaVuSans-50"/>
       <use x="63.623047" xlink:href="#DejaVuSans-48"/>
       <use x="127.246094" xlink:href="#DejaVuSans-49"/>
       <use x="190.869141" xlink:href="#DejaVuSans-54"/>
      </g>
     </g>
    </g>
    <g id="xtick_3">
     <g id="line2d_5">
      <path clip-path="url(#p55b402bebb)" d="M 335.292224 640.8 
L 335.292224 86.4 
" style="fill:none;stroke:#cccccc;stroke-linecap:round;stroke-width:0.8;"/>
     </g>
     <g id="line2d_6"/>
     <g id="text_3">
      <!-- 2017 -->
      <defs>
       <path d="M 8.203125 72.90625 
L 55.078125 72.90625 
L 55.078125 68.703125 
L 28.609375 0 
L 18.3125 0 
L 43.21875 64.59375 
L 8.203125 64.59375 
z
" id="DejaVuSans-55"/>
      </defs>
      <g style="fill:#262626;" transform="translate(322.567224 651.898438)scale(0.1 -0.1)">
       <use xlink:href="#DejaVuSans-50"/>
       <use x="63.623047" xlink:href="#DejaVuSans-48"/>
       <use x="127.246094" xlink:href="#DejaVuSans-49"/>
       <use x="190.869141" xlink:href="#DejaVuSans-55"/>
      </g>
     </g>
    </g>
    <g id="xtick_4">
     <g id="line2d_7">
      <path clip-path="url(#p55b402bebb)" d="M 420.791516 640.8 
L 420.791516 86.4 
" style="fill:none;stroke:#cccccc;stroke-linecap:round;stroke-width:0.8;"/>
     </g>
     <g id="line2d_8"/>
     <g id="text_4">
      <!-- 2018 -->
      <defs>
       <path d="M 31.78125 34.625 
Q 24.75 34.625 20.71875 30.859375 
Q 16.703125 27.09375 16.703125 20.515625 
Q 16.703125 13.921875 20.71875 10.15625 
Q 24.75 6.390625 31.78125 6.390625 
Q 38.8125 6.390625 42.859375 10.171875 
Q 46.921875 13.96875 46.921875 20.515625 
Q 46.921875 27.09375 42.890625 30.859375 
Q 38.875 34.625 31.78125 34.625 
z
M 21.921875 38.8125 
Q 15.578125 40.375 12.03125 44.71875 
Q 8.5 49.078125 8.5 55.328125 
Q 8.5 64.0625 14.71875 69.140625 
Q 20.953125 74.21875 31.78125 74.21875 
Q 42.671875 74.21875 48.875 69.140625 
Q 55.078125 64.0625 55.078125 55.328125 
Q 55.078125 49.078125 51.53125 44.71875 
Q 48 40.375 41.703125 38.8125 
Q 48.828125 37.15625 52.796875 32.3125 
Q 56.78125 27.484375 56.78125 20.515625 
Q 56.78125 9.90625 50.3125 4.234375 
Q 43.84375 -1.421875 31.78125 -1.421875 
Q 19.734375 -1.421875 13.25 4.234375 
Q 6.78125 9.90625 6.78125 20.515625 
Q 6.78125 27.484375 10.78125 32.3125 
Q 14.796875 37.15625 21.921875 38.8125 
z
M 18.3125 54.390625 
Q 18.3125 48.734375 21.84375 45.5625 
Q 25.390625 42.390625 31.78125 42.390625 
Q 38.140625 42.390625 41.71875 45.5625 
Q 45.3125 48.734375 45.3125 54.390625 
Q 45.3125 60.0625 41.71875 63.234375 
Q 38.140625 66.40625 31.78125 66.40625 
Q 25.390625 66.40625 21.84375 63.234375 
Q 18.3125 60.0625 18.3125 54.390625 
z
" id="DejaVuSans-56"/>
      </defs>
      <g style="fill:#262626;" transform="translate(408.066516 651.898438)scale(0.1 -0.1)">
       <use xlink:href="#DejaVuSans-50"/>
       <use x="63.623047" xlink:href="#DejaVuSans-48"/>
       <use x="127.246094" xlink:href="#DejaVuSans-49"/>
       <use x="190.869141" xlink:href="#DejaVuSans-56"/>
      </g>
     </g>
    </g>
    <g id="xtick_5">
     <g id="line2d_9">
      <path clip-path="url(#p55b402bebb)" d="M 506.290807 640.8 
L 506.290807 86.4 
" style="fill:none;stroke:#cccccc;stroke-linecap:round;stroke-width:0.8;"/>
     </g>
     <g id="line2d_10"/>
     <g id="text_5">
      <!-- 2019 -->
      <defs>
       <path d="M 10.984375 1.515625 
L 10.984375 10.5 
Q 14.703125 8.734375 18.5 7.8125 
Q 22.3125 6.890625 25.984375 6.890625 
Q 35.75 6.890625 40.890625 13.453125 
Q 46.046875 20.015625 46.78125 33.40625 
Q 43.953125 29.203125 39.59375 26.953125 
Q 35.25 24.703125 29.984375 24.703125 
Q 19.046875 24.703125 12.671875 31.3125 
Q 6.296875 37.9375 6.296875 49.421875 
Q 6.296875 60.640625 12.9375 67.421875 
Q 19.578125 74.21875 30.609375 74.21875 
Q 43.265625 74.21875 49.921875 64.515625 
Q 56.59375 54.828125 56.59375 36.375 
Q 56.59375 19.140625 48.40625 8.859375 
Q 40.234375 -1.421875 26.421875 -1.421875 
Q 22.703125 -1.421875 18.890625 -0.6875 
Q 15.09375 0.046875 10.984375 1.515625 
z
M 30.609375 32.421875 
Q 37.25 32.421875 41.125 36.953125 
Q 45.015625 41.5 45.015625 49.421875 
Q 45.015625 57.28125 41.125 61.84375 
Q 37.25 66.40625 30.609375 66.40625 
Q 23.96875 66.40625 20.09375 61.84375 
Q 16.21875 57.28125 16.21875 49.421875 
Q 16.21875 41.5 20.09375 36.953125 
Q 23.96875 32.421875 30.609375 32.421875 
z
" id="DejaVuSans-57"/>
      </defs>
      <g style="fill:#262626;" transform="translate(493.565807 651.898438)scale(0.1 -0.1)">
       <use xlink:href="#DejaVuSans-50"/>
       <use x="63.623047" xlink:href="#DejaVuSans-48"/>
       <use x="127.246094" xlink:href="#DejaVuSans-49"/>
       <use x="190.869141" xlink:href="#DejaVuSans-57"/>
      </g>
     </g>
    </g>
    <g id="xtick_6">
     <g id="line2d_11">
      <path clip-path="url(#p55b402bebb)" d="M 591.790099 640.8 
L 591.790099 86.4 
" style="fill:none;stroke:#cccccc;stroke-linecap:round;stroke-width:0.8;"/>
     </g>
     <g id="line2d_12"/>
     <g id="text_6">
      <!-- 2020 -->
      <g style="fill:#262626;" transform="translate(579.065099 651.898438)scale(0.1 -0.1)">
       <use xlink:href="#DejaVuSans-50"/>
       <use x="63.623047" xlink:href="#DejaVuSans-48"/>
       <use x="127.246094" xlink:href="#DejaVuSans-50"/>
       <use x="190.869141" xlink:href="#DejaVuSans-48"/>
      </g>
     </g>
    </g>
   </g>
   <g id="matplotlib.axis_2">
    <g id="ytick_1">
     <g id="line2d_13">
      <path clip-path="url(#p55b402bebb)" d="M 90 615.609173 
L 648 615.609173 
" style="fill:none;stroke:#cccccc;stroke-linecap:round;stroke-width:0.8;"/>
     </g>
     <g id="line2d_14"/>
     <g id="text_7">
      <!-- 0 -->
      <g style="fill:#262626;" transform="translate(80.1375 619.408392)scale(0.1 -0.1)">
       <use xlink:href="#DejaVuSans-48"/>
      </g>
     </g>
    </g>
    <g id="ytick_2">
     <g id="line2d_15">
      <path clip-path="url(#p55b402bebb)" d="M 90 523.874403 
L 648 523.874403 
" style="fill:none;stroke:#cccccc;stroke-linecap:round;stroke-width:0.8;"/>
     </g>
     <g id="line2d_16"/>
     <g id="text_8">
      <!-- 10000 -->
      <g style="fill:#262626;" transform="translate(54.6875 527.673622)scale(0.1 -0.1)">
       <use xlink:href="#DejaVuSans-49"/>
       <use x="63.623047" xlink:href="#DejaVuSans-48"/>
       <use x="127.246094" xlink:href="#DejaVuSans-48"/>
       <use x="190.869141" xlink:href="#DejaVuSans-48"/>
       <use x="254.492188" xlink:href="#DejaVuSans-48"/>
      </g>
     </g>
    </g>
    <g id="ytick_3">
     <g id="line2d_17">
      <path clip-path="url(#p55b402bebb)" d="M 90 432.139633 
L 648 432.139633 
" style="fill:none;stroke:#cccccc;stroke-linecap:round;stroke-width:0.8;"/>
     </g>
     <g id="line2d_18"/>
     <g id="text_9">
      <!-- 20000 -->
      <g style="fill:#262626;" transform="translate(54.6875 435.938852)scale(0.1 -0.1)">
       <use xlink:href="#DejaVuSans-50"/>
       <use x="63.623047" xlink:href="#DejaVuSans-48"/>
       <use x="127.246094" xlink:href="#DejaVuSans-48"/>
       <use x="190.869141" xlink:href="#DejaVuSans-48"/>
       <use x="254.492188" xlink:href="#DejaVuSans-48"/>
      </g>
     </g>
    </g>
    <g id="ytick_4">
     <g id="line2d_19">
      <path clip-path="url(#p55b402bebb)" d="M 90 340.404863 
L 648 340.404863 
" style="fill:none;stroke:#cccccc;stroke-linecap:round;stroke-width:0.8;"/>
     </g>
     <g id="line2d_20"/>
     <g id="text_10">
      <!-- 30000 -->
      <defs>
       <path d="M 40.578125 39.3125 
Q 47.65625 37.796875 51.625 33 
Q 55.609375 28.21875 55.609375 21.1875 
Q 55.609375 10.40625 48.1875 4.484375 
Q 40.765625 -1.421875 27.09375 -1.421875 
Q 22.515625 -1.421875 17.65625 -0.515625 
Q 12.796875 0.390625 7.625 2.203125 
L 7.625 11.71875 
Q 11.71875 9.328125 16.59375 8.109375 
Q 21.484375 6.890625 26.8125 6.890625 
Q 36.078125 6.890625 40.9375 10.546875 
Q 45.796875 14.203125 45.796875 21.1875 
Q 45.796875 27.640625 41.28125 31.265625 
Q 36.765625 34.90625 28.71875 34.90625 
L 20.21875 34.90625 
L 20.21875 43.015625 
L 29.109375 43.015625 
Q 36.375 43.015625 40.234375 45.921875 
Q 44.09375 48.828125 44.09375 54.296875 
Q 44.09375 59.90625 40.109375 62.90625 
Q 36.140625 65.921875 28.71875 65.921875 
Q 24.65625 65.921875 20.015625 65.03125 
Q 15.375 64.15625 9.8125 62.3125 
L 9.8125 71.09375 
Q 15.4375 72.65625 20.34375 73.4375 
Q 25.25 74.21875 29.59375 74.21875 
Q 40.828125 74.21875 47.359375 69.109375 
Q 53.90625 64.015625 53.90625 55.328125 
Q 53.90625 49.265625 50.4375 45.09375 
Q 46.96875 40.921875 40.578125 39.3125 
z
" id="DejaVuSans-51"/>
      </defs>
      <g style="fill:#262626;" transform="translate(54.6875 344.204082)scale(0.1 -0.1)">
       <use xlink:href="#DejaVuSans-51"/>
       <use x="63.623047" xlink:href="#DejaVuSans-48"/>
       <use x="127.246094" xlink:href="#DejaVuSans-48"/>
       <use x="190.869141" xlink:href="#DejaVuSans-48"/>
       <use x="254.492188" xlink:href="#DejaVuSans-48"/>
      </g>
     </g>
    </g>
    <g id="ytick_5">
     <g id="line2d_21">
      <path clip-path="url(#p55b402bebb)" d="M 90 248.670093 
L 648 248.670093 
" style="fill:none;stroke:#cccccc;stroke-linecap:round;stroke-width:0.8;"/>
     </g>
     <g id="line2d_22"/>
     <g id="text_11">
      <!-- 40000 -->
      <defs>
       <path d="M 37.796875 64.3125 
L 12.890625 25.390625 
L 37.796875 25.390625 
z
M 35.203125 72.90625 
L 47.609375 72.90625 
L 47.609375 25.390625 
L 58.015625 25.390625 
L 58.015625 17.1875 
L 47.609375 17.1875 
L 47.609375 0 
L 37.796875 0 
L 37.796875 17.1875 
L 4.890625 17.1875 
L 4.890625 26.703125 
z
" id="DejaVuSans-52"/>
      </defs>
      <g style="fill:#262626;" transform="translate(54.6875 252.469312)scale(0.1 -0.1)">
       <use xlink:href="#DejaVuSans-52"/>
       <use x="63.623047" xlink:href="#DejaVuSans-48"/>
       <use x="127.246094" xlink:href="#DejaVuSans-48"/>
       <use x="190.869141" xlink:href="#DejaVuSans-48"/>
       <use x="254.492188" xlink:href="#DejaVuSans-48"/>
      </g>
     </g>
    </g>
    <g id="ytick_6">
     <g id="line2d_23">
      <path clip-path="url(#p55b402bebb)" d="M 90 156.935323 
L 648 156.935323 
" style="fill:none;stroke:#cccccc;stroke-linecap:round;stroke-width:0.8;"/>
     </g>
     <g id="line2d_24"/>
     <g id="text_12">
      <!-- 50000 -->
      <g style="fill:#262626;" transform="translate(54.6875 160.734542)scale(0.1 -0.1)">
       <use xlink:href="#DejaVuSans-53"/>
       <use x="63.623047" xlink:href="#DejaVuSans-48"/>
       <use x="127.246094" xlink:href="#DejaVuSans-48"/>
       <use x="190.869141" xlink:href="#DejaVuSans-48"/>
       <use x="254.492188" xlink:href="#DejaVuSans-48"/>
      </g>
     </g>
    </g>
   </g>
   <g id="line2d_25">
    <path clip-path="url(#p55b402bebb)" d="M 115.363636 615.6 
L 116.507008 615.214714 
L 116.792499 614.976204 
L 117.493977 614.820254 
L 117.608128 614.774387 
L 117.958042 614.655132 
L 118.365603 614.51753 
L 118.44362 614.471662 
L 119.345988 614.269846 
L 119.373669 614.233152 
L 119.539223 614.113897 
L 120.517802 613.792825 
L 121.134692 613.67357 
L 121.244096 613.508447 
L 123.011203 613.25159 
L 123.338701 613.095641 
L 123.709553 612.948865 
L 123.722483 612.893824 
L 124.370822 612.728702 
L 125.898835 612.095732 
L 126.274499 611.976477 
L 126.356254 611.921436 
L 126.634336 611.802181 
L 126.77755 611.74714 
L 127.456662 611.600364 
L 127.916139 611.288466 
L 128.380668 611.059129 
L 128.459191 610.994915 
L 129.105712 610.875659 
L 129.218108 610.756404 
L 129.347599 610.637149 
L 129.399133 610.591282 
L 129.866028 610.453679 
L 131.008488 610.169302 
L 131.043438 610.132608 
L 131.474586 610.004179 
L 131.507167 609.930791 
L 132.37318 609.774842 
L 132.452661 609.628066 
L 132.874537 609.490464 
L 132.95479 609.407903 
L 134.079842 609.206087 
L 134.271454 609.050137 
L 134.994174 608.55477 
L 135.943673 608.435514 
L 136.578923 608.197004 
L 136.70384 608.105269 
L 137.363117 607.94932 
L 137.785739 607.719983 
L 137.86744 607.637422 
L 138.232528 607.49982 
L 141.046836 606.793462 
L 141.148546 606.701727 
L 141.526178 606.564125 
L 141.57749 606.490737 
L 142.426404 606.353135 
L 142.501116 606.298094 
L 142.907422 606.169666 
L 143.244013 605.903635 
L 143.918074 605.766033 
L 144.153739 605.509175 
L 144.38579 605.38992 
L 144.444183 605.3624 
L 144.594422 605.243144 
L 144.65839 605.169757 
L 144.826154 605.050501 
L 144.846037 605.032154 
L 145.710156 604.876205 
L 145.788154 604.775297 
L 145.97466 604.656042 
L 146.477839 604.252409 
L 146.555701 604.188195 
L 147.173727 604.068939 
L 147.190978 604.032245 
L 147.406147 603.91299 
L 147.470694 603.839602 
L 147.856274 603.683653 
L 147.886354 603.637786 
L 148.828156 603.472663 
L 148.898779 603.390102 
L 149.233464 603.2525 
L 149.300714 603.133245 
L 149.58257 603.01399 
L 149.693494 602.968122 
L 149.81197 602.903908 
L 150.44286 602.747959 
L 150.486808 602.692918 
L 150.718494 602.573663 
L 150.775626 602.546142 
L 150.940768 602.426887 
L 150.980587 602.38102 
L 151.342829 602.243417 
L 151.426601 602.142509 
L 152.108334 602.004907 
L 152.172207 601.885652 
L 152.349186 601.757223 
L 152.4169 601.683835 
L 152.622523 601.555407 
L 152.996967 601.35359 
L 153.100864 601.188468 
L 153.693137 601.050865 
L 153.800494 600.922437 
L 154.005661 600.784835 
L 154.401397 600.656406 
L 154.67077 600.436243 
L 154.702108 600.408722 
L 155.344719 600.289467 
L 155.559677 600.161038 
L 156.073109 599.913354 
L 156.978093 599.794099 
L 157.08959 599.693191 
L 157.279252 599.573936 
L 157.460363 599.463854 
L 158.03542 599.18865 
L 158.680463 599.069394 
L 158.682958 599.051047 
L 158.899346 598.931792 
L 158.924772 598.876751 
L 159.145349 598.757496 
L 159.15104 598.739149 
L 159.347621 598.619894 
L 159.418787 598.528159 
L 159.61578 598.408904 
L 159.67045 598.37221 
L 160.282059 598.252955 
L 160.33573 598.124526 
L 160.536659 598.005271 
L 160.561656 597.931883 
L 160.842132 597.803455 
L 160.990099 597.684199 
L 161.074115 597.601638 
L 161.243897 597.482383 
L 161.268454 597.408995 
L 161.951134 597.28974 
L 161.993103 597.243873 
L 163.823491 597.005362 
L 163.842033 596.987015 
L 165.215338 596.858586 
L 165.285712 596.766852 
L 165.439904 596.647597 
L 165.537213 596.583382 
L 165.652676 596.464127 
L 165.761036 596.225617 
L 165.885218 596.106361 
L 166.167217 595.867851 
L 166.181394 595.831157 
L 166.849376 595.711902 
L 166.887915 595.5743 
L 167.117136 595.455045 
L 167.177069 595.436698 
L 167.314848 595.317442 
L 167.406914 595.106452 
L 167.551012 594.987197 
L 167.596023 594.822075 
L 167.785143 594.702819 
L 167.822809 594.656952 
L 168.72111 594.537697 
L 168.895273 594.326707 
L 169.195548 593.978115 
L 169.259664 593.877206 
L 169.431644 593.757951 
L 169.528934 593.666216 
L 170.213224 593.537788 
L 170.351239 593.418533 
L 170.812082 592.941512 
L 171.008363 592.748869 
L 171.098742 592.556226 
L 171.740106 592.427797 
L 171.818556 592.225981 
L 171.987928 592.106725 
L 172.154567 591.941603 
L 172.25658 591.794827 
L 172.319013 591.730613 
L 172.434706 591.611358 
L 172.681937 591.299459 
L 172.742038 591.134337 
L 173.415527 591.015082 
L 173.443184 590.978388 
L 173.625049 590.859133 
L 173.676723 590.776571 
L 173.868465 590.657316 
L 173.944375 590.501367 
L 174.075956 590.382112 
L 174.446117 590.005999 
L 175.241892 589.886744 
L 175.350195 589.556499 
L 175.523056 589.437244 
L 175.603063 589.317988 
L 175.728709 589.198733 
L 175.797939 588.987743 
L 175.933557 588.859315 
L 176.016659 588.538243 
L 176.649681 588.418988 
L 176.718094 588.152957 
L 177.037852 588.024528 
L 177.366467 587.850232 
L 177.480317 587.639242 
L 177.604995 587.519987 
L 177.654468 587.47412 
L 178.298508 587.327344 
L 178.401947 587.180568 
L 178.540561 587.061313 
L 178.587481 586.960405 
L 178.76013 586.84115 
L 179.11169 586.327435 
L 179.194456 586.20818 
L 179.273375 586.052231 
L 179.308618 585.969669 
L 179.937668 585.832067 
L 180.01977 585.657771 
L 180.155724 585.538516 
L 180.272117 585.254138 
L 180.393707 585.134883 
L 180.484632 584.822985 
L 180.62603 584.676209 
L 180.780699 584.410178 
L 180.867559 584.290923 
L 180.928308 584.052413 
L 181.55574 583.933157 
L 181.628873 583.621259 
L 181.780625 583.502004 
L 182.16198 583.034157 
L 182.272431 582.914901 
L 182.351073 582.777299 
L 182.527611 582.658044 
L 182.601596 582.428707 
L 183.236803 582.291105 
L 183.309438 582.181023 
L 183.420161 582.061768 
L 183.527957 581.722349 
L 183.670364 581.603094 
L 183.878793 581.254502 
L 183.966236 580.869216 
L 184.061379 580.72244 
L 184.154719 580.594012 
L 184.347548 580.401369 
L 184.829913 580.282114 
L 185.316938 579.511541 
L 185.370156 579.328072 
L 185.457282 579.135429 
L 185.545839 579.016174 
L 185.705779 578.676755 
L 185.822329 578.529979 
L 185.855248 578.447418 
L 186.491876 578.309816 
L 186.607342 578.107999 
L 186.737312 577.92453 
L 186.908633 577.74106 
L 186.986406 577.603458 
L 187.11479 577.465856 
L 187.188287 577.346601 
L 187.313315 577.153958 
L 187.45207 576.988835 
L 187.549837 576.860407 
L 188.119738 576.704458 
L 188.195575 576.456774 
L 188.350894 576.337518 
L 188.42899 576.099008 
L 188.592779 575.961406 
L 188.794257 575.732069 
L 188.868231 575.557773 
L 189.124265 575.108273 
L 189.768305 574.97067 
L 189.96879 574.52117 
L 190.814674 573.080934 
L 191.397094 572.961679 
L 191.653082 572.402097 
L 191.866391 572.154413 
L 191.966081 571.98929 
L 192.102854 571.842515 
L 192.279397 571.503096 
L 192.351327 571.374667 
L 192.410915 571.200371 
L 193.000219 571.071943 
L 193.106332 570.69583 
L 193.32111 570.393105 
L 193.426276 570.209636 
L 193.521506 570.081207 
L 193.793563 569.705095 
L 194.054879 569.42989 
L 194.203429 569.40237 
L 194.628241 569.283115 
L 194.741408 568.916176 
L 194.99205 568.466675 
L 195.154785 568.338246 
L 195.223041 568.090563 
L 195.381181 567.962134 
L 195.725244 567.301644 
L 196.298696 567.164041 
L 196.381367 566.742061 
L 196.453631 566.576939 
L 196.564992 566.457684 
L 196.612432 566.356775 
L 197.010772 566.228347 
L 197.154464 565.824714 
L 197.265288 565.705459 
L 197.311234 565.540336 
L 197.370021 565.485295 
L 198.189817 565.33852 
L 198.305155 565.035795 
L 198.429175 564.907366 
L 198.480242 564.769764 
L 198.579647 564.650509 
L 198.706701 564.485386 
L 198.810492 564.054233 
L 198.926877 563.870763 
L 198.994342 563.696467 
L 199.600745 563.549691 
L 199.686312 563.320355 
L 199.83733 563.191926 
L 199.917303 562.980936 
L 200.017674 562.824987 
L 200.086431 562.659864 
L 200.38788 562.14615 
L 200.544103 561.971853 
L 200.586094 561.770037 
L 201.251378 561.632435 
L 201.347787 561.458139 
L 201.476709 561.338884 
L 201.587354 561.0912 
L 201.732811 560.962771 
L 201.809688 560.760954 
L 201.947448 560.623352 
L 202.078752 560.27476 
L 202.216057 560.06377 
L 202.285376 559.880301 
L 202.878907 559.742699 
L 202.991043 559.522535 
L 203.159284 559.329892 
L 203.621218 558.596014 
L 203.711462 558.274942 
L 203.799927 558.13734 
L 203.861205 557.92635 
L 203.911061 557.834615 
L 204.526059 557.697013 
L 205.581998 556.596196 
L 206.165134 556.476941 
L 206.262733 556.23843 
L 206.42912 556.064134 
L 206.519898 555.871491 
L 206.643142 555.724716 
L 206.71733 555.495379 
L 207.811017 555.174307 
L 207.879544 554.908276 
L 208.036719 554.770674 
L 208.152499 554.513817 
L 208.295982 554.357868 
L 208.411168 553.954235 
L 208.56629 553.706551 
L 209.095648 553.174489 
L 209.435539 553.04606 
L 209.558398 552.679121 
L 209.690844 552.559866 
L 209.803878 552.2021 
L 209.949925 552.073672 
L 210.061086 551.93607 
L 210.20391 551.807641 
L 210.447825 551.211365 
L 210.671437 551.037069 
L 210.731269 550.789385 
L 211.068281 550.651783 
L 211.215451 550.156415 
L 211.607846 550.009639 
L 212.125158 548.606097 
L 212.731328 548.404281 
L 212.787661 548.229985 
L 213.17911 548.092383 
L 213.303273 547.68875 
L 213.768533 547.046606 
L 214.361476 546.927351 
L 214.550815 546.670494 
L 214.651803 546.532892 
L 214.758279 546.285208 
L 214.865549 546.165953 
L 215.557305 545.248605 
L 215.95381 545.12935 
L 216.073915 544.670676 
L 216.223756 544.505553 
L 217.049701 543.25796 
L 217.575637 543.138705 
L 217.859841 542.817633 
L 217.955374 542.643337 
L 218.112402 542.496562 
L 218.225045 542.230531 
L 218.409475 541.845245 
L 218.534809 541.670949 
L 218.629763 541.533347 
L 218.65781 541.432438 
L 219.278975 541.313183 
L 219.384681 541.102193 
L 219.55129 540.90955 
L 219.661003 540.762775 
L 219.814951 540.46005 
L 220.029415 540.331621 
L 220.132759 540.129805 
L 220.300499 539.946335 
L 220.446593 539.872947 
L 220.857323 539.753692 
L 221.123267 539.58857 
L 221.264779 539.285845 
L 221.374885 539.139069 
L 221.49449 538.909732 
L 221.661764 538.790477 
L 222.065898 538.166681 
L 222.619906 538.038252 
L 222.791813 537.909823 
L 222.930112 537.680486 
L 223.079142 537.487843 
L 223.199225 537.313547 
L 223.528393 536.946608 
L 223.620087 536.799833 
L 224.169632 536.66223 
L 224.322585 536.3962 
L 224.71154 535.882485 
L 225.010421 535.203648 
L 225.18033 534.983484 
L 225.294624 534.818362 
L 225.842941 534.607372 
L 225.979172 534.332167 
L 226.121505 534.167045 
L 226.362379 534.038616 
L 226.47246 533.726718 
L 226.602715 533.460687 
L 226.701402 533.304738 
L 226.800538 533.130442 
L 226.886588 532.928625 
L 227.574801 532.791023 
L 227.997254 532.158053 
L 228.210588 531.873675 
L 228.385208 531.506736 
L 228.671922 531.112277 
L 229.115889 530.965501 
L 229.229888 530.387572 
L 229.44423 530.084847 
L 229.756415 529.598653 
L 230.146533 528.855601 
L 230.305152 528.708826 
L 230.342984 528.635438 
L 230.762284 528.516183 
L 230.810166 528.213458 
L 230.910165 528.085029 
L 231.003386 527.92908 
L 231.077807 527.71809 
L 231.204573 527.580488 
L 231.316246 527.452059 
L 231.389816 527.250243 
L 231.492735 526.975039 
L 231.598378 526.791569 
L 231.713337 526.598926 
L 231.879344 526.369589 
L 232.318219 526.21364 
L 233.771035 524.177128 
L 233.973244 524.0487 
L 234.125349 523.68176 
L 234.22422 523.534985 
L 234.3402 523.250607 
L 234.650832 522.580943 
L 234.814061 522.094749 
L 234.96161 521.892932 
L 235.215619 521.498473 
L 235.755255 521.287483 
L 235.91414 521.085666 
L 236.014993 520.975585 
L 236.208022 520.764595 
L 236.41961 520.46187 
L 236.855717 519.975676 
L 237.296658 519.80138 
L 237.417855 519.691298 
L 237.573446 519.498655 
L 237.638446 519.40692 
L 237.831248 519.260145 
L 237.987723 519.030808 
L 238.233856 518.718909 
L 238.310444 518.572134 
L 238.342468 518.544613 
L 238.945539 518.407011 
L 239.869976 517.150245 
L 239.965664 517.021816 
L 240.038486 516.975949 
L 240.555079 516.755785 
L 240.706891 516.489754 
L 240.798016 516.361326 
L 241.07067 515.97604 
L 241.82908 515.416458 
L 242.323458 515.1596 
L 242.499294 514.866049 
L 242.629462 514.728447 
L 243.32804 513.645977 
L 243.543607 513.480854 
L 243.672095 513.434987 
L 243.885311 513.306558 
L 243.985166 513.196476 
L 244.244565 512.976313 
L 244.346312 512.737802 
L 244.441694 512.526812 
L 244.539947 512.36169 
L 244.640956 512.1507 
L 244.776715 512.013098 
L 244.885452 511.820455 
L 244.975758 511.774587 
L 245.436247 511.646159 
L 245.546008 511.526903 
L 246.025109 510.719637 
L 246.13826 510.508647 
L 246.715556 509.719728 
L 246.986149 509.563779 
L 247.215701 509.361963 
L 247.395348 509.233534 
L 247.536136 509.068412 
L 248.004064 508.866595 
L 248.829486 508.74734 
L 249.419376 508.426268 
L 250.306054 508.288666 
L 250.730528 507.866686 
L 250.879333 507.784125 
L 251.158746 507.637349 
L 251.257546 507.563961 
L 252.091457 507.197022 
L 252.348998 506.912644 
L 252.555375 506.720001 
L 252.704904 506.554879 
L 252.820069 506.307195 
L 252.916649 506.242981 
L 253.254251 506.087032 
L 253.352276 505.986123 
L 253.736849 505.821001 
L 253.87494 505.76596 
L 254.023173 505.637531 
L 254.133522 505.591664 
L 254.299991 505.444888 
L 254.467196 504.922 
L 254.593336 504.802745 
L 254.664911 504.665143 
L 254.772322 504.573408 
L 255.318459 504.408285 
L 255.596754 504.004652 
L 255.851406 503.683581 
L 255.931106 503.610193 
L 256.057012 503.490938 
L 256.100209 503.316641 
L 256.313499 502.903835 
L 256.533895 502.564416 
L 256.629223 502.371773 
L 256.994075 502.206651 
L 257.64476 501.197568 
L 257.761207 501.014099 
L 258.05741 500.390302 
L 258.329074 500.060057 
L 258.547911 499.931628 
L 258.797675 499.445434 
L 259.404764 498.399658 
L 259.612138 498.271229 
L 259.821568 498.041892 
L 260.05739 497.803382 
L 260.433456 497.463963 
L 261.233201 496.298932 
L 261.376312 496.023727 
L 261.734753 495.79439 
L 262.214851 494.987124 
L 262.325995 494.803655 
L 263.380619 493.097388 
L 263.571968 492.904745 
L 263.729142 492.647888 
L 264.418518 491.28104 
L 264.566472 490.849886 
L 264.961307 490.363692 
L 265.158547 490.180222 
L 265.26936 489.950885 
L 265.511226 489.730722 
L 265.708721 489.611467 
L 266.027229 489.336263 
L 266.201163 488.978497 
L 266.340571 488.868415 
L 266.872155 488.712466 
L 266.991899 488.56569 
L 267.086351 488.428088 
L 267.400244 488.024455 
L 267.501755 487.87768 
L 267.873998 487.48322 
L 268.512667 487.253883 
L 269.085479 486.61174 
L 269.340714 486.437444 
L 269.442597 486.345709 
L 270.844545 485.657698 
L 270.887 485.538443 
L 271.082043 485.410014 
L 271.316196 485.226545 
L 272.262753 484.832085 
L 272.388291 484.676136 
L 272.676029 484.529361 
L 272.787306 484.318371 
L 273.429343 484.180768 
L 273.451376 484.162422 
L 273.651506 484.043166 
L 274.136854 483.511105 
L 274.226978 483.336809 
L 274.451113 483.153339 
L 274.713624 482.933176 
L 275.196621 482.57541 
L 275.307242 482.428634 
L 276.015558 481.547981 
L 276.596539 481.355338 
L 276.722161 481.226909 
L 276.810144 480.768235 
L 276.93965 480.639806 
L 277.079538 480.511378 
L 277.948982 479.915102 
L 278.334401 479.786673 
L 278.817186 479.41056 
L 279.274831 478.75007 
L 279.362288 478.318917 
L 279.735862 478.199661 
L 280.124225 477.759335 
L 280.236424 477.621732 
L 280.494692 477.291487 
L 280.617671 477.144712 
L 280.702373 477.007109 
L 280.783288 476.942895 
L 280.886624 476.805293 
L 281.232839 476.475048 
L 281.616033 476.227364 
L 282.013541 475.713649 
L 282.244825 475.548527 
L 282.406351 475.383404 
L 282.467173 475.227455 
L 282.577629 475.099026 
L 282.976273 474.622005 
L 283.70376 473.943168 
L 283.839047 473.768872 
L 284.044331 473.4478 
L 284.16947 473.291851 
L 284.418949 472.805657 
L 284.938457 472.356157 
L 285.113012 472.227728 
L 286.306624 471.026002 
L 286.530683 470.897574 
L 286.754227 470.732451 
L 286.983456 470.521461 
L 287.165388 470.22791 
L 287.293892 470.090308 
L 287.399386 469.916012 
L 288.139174 469.310562 
L 288.277945 469.14544 
L 288.482906 468.916103 
L 288.644486 468.75098 
L 289.042488 468.273959 
L 289.146401 468.09049 
L 289.558268 467.760245 
L 289.704104 467.576775 
L 291.321317 465.210018 
L 291.644726 464.888946 
L 291.883227 464.494487 
L 292.708964 463.558792 
L 293.225227 463.430363 
L 293.575241 463.191853 
L 293.67374 462.990037 
L 293.772643 462.870781 
L 294.169008 462.357067 
L 294.715974 462.173597 
L 296.062786 460.540718 
L 296.270114 460.41229 
L 296.580277 459.797667 
L 296.690252 459.265605 
L 297.562551 457.834543 
L 297.995857 457.715287 
L 298.382141 457.284134 
L 298.532874 457.146532 
L 298.910114 456.742899 
L 299.294153 456.440174 
L 299.703487 456.284225 
L 299.809792 456.064061 
L 300.384225 454.954071 
L 300.489253 454.743081 
L 300.611941 454.522917 
L 300.801685 454.357795 
L 301.236038 454.211019 
L 301.894341 453.357886 
L 301.972504 453.21111 
L 302.540968 452.458885 
L 302.920696 452.284589 
L 303.296155 451.715833 
L 303.401638 451.550711 
L 303.510025 451.330547 
L 303.619526 451.04617 
L 303.799444 450.752618 
L 303.8917 450.422373 
L 303.994344 450.174689 
L 304.130543 449.99122 
L 304.677672 448.972964 
L 304.771874 448.780321 
L 304.908582 448.624372 
L 305.678382 447.376779 
L 306.199611 447.239177 
L 307.46087 445.7439 
L 307.991553 445.230185 
L 308.10113 445.083409 
L 308.288163 444.881593 
L 308.61396 444.322011 
L 309.021175 443.634 
L 309.136809 443.478051 
L 309.366656 443.046898 
L 309.578436 442.634091 
L 310.113571 441.652529 
L 310.231764 441.432366 
L 310.377814 441.0746 
L 310.476823 440.936998 
L 311.276403 440.23064 
L 311.516276 439.80866 
L 311.650354 439.661885 
L 312.204239 438.652802 
L 312.687315 438.506026 
L 312.770051 438.313383 
L 312.96085 437.88223 
L 313.069068 437.707934 
L 313.601576 436.790586 
L 313.829856 436.597943 
L 313.99922 436.451168 
L 314.422948 436.322739 
L 314.573892 436.16679 
L 314.658131 436.001667 
L 315.015313 435.469606 
L 315.241555 435.157707 
L 315.3471 434.937544 
L 316.208874 434.139451 
L 316.316241 434.075237 
L 316.690105 433.378053 
L 316.795548 433.21293 
L 316.920546 432.983593 
L 317.03018 432.76343 
L 317.442516 432.332276 
L 317.633331 432.213021 
L 317.850633 431.864429 
L 318.381989 430.937908 
L 318.491184 430.781959 
L 318.797152 430.506755 
L 319.221515 430.314112 
L 319.33088 430.139815 
L 319.767576 429.405937 
L 319.878855 429.167427 
L 320.050169 428.782141 
L 320.158729 428.617018 
L 320.798651 427.929007 
L 320.929855 427.800579 
L 321.018502 427.635456 
L 321.186353 427.451987 
L 321.403143 427.075874 
L 321.86121 426.204394 
L 321.930275 426.039271 
L 322.173347 425.874149 
L 323.770125 423.589953 
L 324.216998 423.42483 
L 324.347687 423.21384 
L 324.52587 423.012024 
L 324.62412 422.901942 
L 324.740717 422.755166 
L 324.849391 422.590044 
L 325.146212 422.333187 
L 325.427872 422.085503 
L 325.873292 421.846992 
L 325.980671 421.70939 
L 326.158344 421.480053 
L 326.280295 421.379145 
L 326.371293 421.250716 
L 326.648067 421.158981 
L 327.52029 420.984685 
L 327.612683 420.727828 
L 327.71394 420.599399 
L 327.806843 420.452624 
L 327.928428 420.278328 
L 328.239591 419.489409 
L 328.346403 419.305939 
L 328.496222 418.902306 
L 328.620787 418.553714 
L 328.717244 418.425285 
L 328.795291 418.324377 
L 329.072008 418.195948 
L 329.351231 417.590499 
L 329.986839 415.875059 
L 330.075587 415.737457 
L 330.161905 415.462252 
L 330.657435 415.260436 
L 330.833463 414.884323 
L 331.062264 414.443996 
L 331.263061 414.113751 
L 331.496205 413.801853 
L 331.606411 413.572516 
L 331.976487 413.196403 
L 332.390683 413.067975 
L 332.503809 412.847811 
L 332.754505 412.55426 
L 332.882971 412.361617 
L 333.088146 412.095586 
L 333.368079 411.774514 
L 334.245242 411.636912 
L 334.414334 411.444269 
L 334.544457 411.361708 
L 334.867687 411.150718 
L 335.663612 411.003942 
L 335.89582 410.875514 
L 335.989342 410.692044 
L 336.095666 410.490228 
L 336.212295 410.306758 
L 337.018701 409.710482 
L 337.370548 409.563707 
L 337.453685 409.462798 
L 337.594699 409.33437 
L 337.703446 408.811481 
L 337.938924 408.325287 
L 338.083383 408.178511 
L 338.194422 408.013389 
L 338.491319 407.628103 
L 338.976083 407.472154 
L 339.086455 407.288684 
L 339.184417 407.132735 
L 339.281932 406.930919 
L 339.485397 406.664888 
L 339.594874 406.518112 
L 339.807898 406.187867 
L 339.926485 406.050265 
L 339.999176 405.793407 
L 340.578842 405.582418 
L 340.686972 405.362254 
L 341.123301 404.564162 
L 341.211761 404.353172 
L 341.343383 404.224743 
L 341.988136 403.555079 
L 342.229264 403.417477 
L 342.612473 402.545997 
L 342.750092 402.362527 
L 343.326545 401.353445 
L 343.853981 401.105761 
L 343.980579 400.83973 
L 344.125957 400.674607 
L 344.217976 400.518658 
L 344.279704 400.39023 
L 344.384103 400.225107 
L 344.724549 399.78478 
L 344.875561 399.427014 
L 345.061366 399.243545 
L 345.539973 399.105943 
L 345.668406 398.830738 
L 345.772038 398.638095 
L 345.828403 398.49132 
L 345.906194 398.344544 
L 345.961117 398.225289 
L 346.072063 397.959258 
L 346.312321 397.509758 
L 346.412271 397.317115 
L 347.360146 396.473155 
L 347.462758 396.262165 
L 347.631162 396.115389 
L 347.729716 395.950267 
L 347.766818 395.803491 
L 347.870189 395.583328 
L 348.614333 394.656806 
L 348.731876 394.326561 
L 350.093252 392.033192 
L 350.474268 391.868069 
L 350.692585 391.629559 
L 351.707189 390.583783 
L 352.074203 390.455354 
L 352.312264 390.262711 
L 352.422964 389.959986 
L 353.028066 389.354537 
L 353.254557 389.15272 
L 353.788629 389.024292 
L 354.519803 388.372975 
L 354.613629 388.30876 
L 354.670463 388.189505 
L 354.78078 387.822566 
L 355.17712 387.345545 
L 355.403979 386.996953 
L 355.575916 386.850177 
L 355.853336 386.584147 
L 355.999102 386.409851 
L 356.100339 386.290595 
L 356.212611 386.152993 
L 356.347649 385.942003 
L 356.555983 385.859442 
L 357.006766 385.731013 
L 357.11759 385.575064 
L 357.327429 385.226472 
L 357.471245 385.070523 
L 357.599372 384.822839 
L 358.309966 384.024747 
L 358.624374 383.877971 
L 358.873237 383.511032 
L 359.493755 382.612031 
L 359.712869 382.364347 
L 360.322639 382.217572 
L 360.821345 381.547908 
L 361.182127 381.199316 
L 361.481749 380.905764 
L 361.849266 380.749815 
L 362.222521 379.933376 
L 362.495413 379.667345 
L 362.995579 378.786691 
L 363.573464 378.575701 
L 363.68251 378.337191 
L 363.831675 378.181242 
L 364.056813 377.850997 
L 364.638125 376.997863 
L 365.229492 376.841914 
L 365.282642 376.658445 
L 365.390744 376.548363 
L 365.788708 376.025475 
L 365.894419 375.823658 
L 366.070783 375.612668 
L 366.173832 375.337464 
L 366.458602 375.144821 
L 366.825758 375.016392 
L 366.931407 374.658627 
L 367.161024 374.27334 
L 367.250823 373.915575 
L 367.400143 373.750452 
L 367.472515 373.576156 
L 367.625397 373.447728 
L 367.727145 373.273431 
L 367.802174 373.126656 
L 367.915592 372.943186 
L 368.574796 372.401951 
L 368.698436 372.13592 
L 368.806378 371.989145 
L 368.911159 371.860716 
L 369.123321 371.576338 
L 369.232541 371.374522 
L 369.313344 371.200226 
L 369.418602 371.035103 
L 369.50966 370.750725 
L 369.527721 370.613123 
L 370.046733 370.466348 
L 370.379968 369.906765 
L 370.490752 369.631561 
L 370.660256 369.301316 
L 370.767629 369.136193 
L 371.322404 368.273887 
L 371.431577 368.090417 
L 371.735388 367.934468 
L 371.842026 367.741825 
L 371.955195 367.475794 
L 372.049338 367.356539 
L 372.210039 367.20059 
L 372.881134 366.374977 
L 373.35391 366.219028 
L 373.487071 366.081426 
L 373.588097 365.93465 
L 373.678385 365.797048 
L 373.773069 365.659446 
L 373.944857 365.448456 
L 374.018809 365.246639 
L 374.195268 365.11821 
L 374.275082 364.962261 
L 374.421783 364.815486 
L 374.464658 364.696231 
L 375.115944 364.512761 
L 375.54815 364.081608 
L 375.633313 363.888965 
L 375.792372 363.742189 
L 375.914046 363.476158 
L 376.019039 363.16426 
L 376.170471 362.889056 
L 376.238803 362.797321 
L 376.683968 362.659719 
L 376.738799 362.485423 
L 376.832922 362.191871 
L 376.956126 362.026749 
L 377.333273 361.366258 
L 377.439453 361.219483 
L 377.525508 361.146095 
L 377.685416 360.980972 
L 377.740341 360.724115 
L 378.331725 360.595686 
L 378.35509 360.540645 
L 378.714194 360.403043 
L 378.984204 360.026931 
L 379.300535 359.825114 
L 379.397505 359.687512 
L 379.503905 359.540736 
L 379.571676 359.421481 
L 380.247046 359.238012 
L 380.383751 358.861899 
L 380.49171 358.430746 
L 380.753603 358.128021 
L 380.850158 357.907858 
L 380.929408 357.761082 
L 381.003992 357.62348 
L 381.456331 357.421663 
L 381.607086 357.256541 
L 381.724918 356.962989 
L 381.831093 356.761173 
L 381.937205 356.577703 
L 382.045877 356.210764 
L 382.506289 355.30259 
L 382.672028 355.119121 
L 382.742161 355.036559 
L 383.289388 354.807222 
L 383.398428 354.541191 
L 383.523958 354.256814 
L 383.631829 354.119212 
L 383.840462 353.871528 
L 384.102474 353.688058 
L 384.328485 353.201864 
L 384.951578 352.963353 
L 385.053909 352.789057 
L 385.306058 352.394598 
L 385.416641 352.165261 
L 386.050462 351.147005 
L 386.43609 350.917668 
L 386.533085 350.715852 
L 386.670812 350.532382 
L 386.961183 350.192963 
L 387.110267 350.027841 
L 387.210868 349.57834 
L 387.373608 349.349003 
L 387.446647 349.257269 
L 387.534692 349.12884 
L 387.879682 348.826115 
L 388.149641 348.70686 
L 388.259018 348.523391 
L 388.680064 347.83538 
L 388.784536 347.560175 
L 388.945967 347.340012 
L 389.056301 347.110675 
L 389.146886 347.000593 
L 389.815449 346.826297 
L 389.882832 346.697869 
L 389.993428 346.551093 
L 390.132389 346.395144 
L 390.23097 346.083246 
L 390.398891 345.844735 
L 390.594906 345.413582 
L 390.653754 345.266806 
L 390.764473 344.872347 
L 390.896954 344.615489 
L 390.975681 344.477887 
L 391.101476 344.331112 
L 391.201827 344.303591 
L 391.611812 343.899958 
L 391.691529 343.707315 
L 391.799433 343.569713 
L 392.186658 342.92757 
L 392.244376 342.799141 
L 392.283834 342.606498 
L 392.394189 342.358814 
L 392.905729 341.441466 
L 393.009653 341.349732 
L 393.401235 340.863537 
L 393.512138 340.707588 
L 394.229051 339.881975 
L 394.797412 339.76272 
L 395.132761 339.221485 
L 395.225914 339.010495 
L 395.519116 338.863719 
L 395.580928 338.726117 
L 395.65238 338.597688 
L 395.929299 338.432566 
L 396.005943 338.414219 
L 396.601562 338.28579 
L 396.816706 337.928025 
L 396.874465 337.762902 
L 396.982052 337.597779 
L 397.143158 337.469351 
L 397.347414 337.377616 
L 397.431455 337.212493 
L 397.53735 336.845554 
L 397.586167 336.652911 
L 397.68885 336.313493 
L 398.00546 336.001594 
L 398.08933 335.763084 
L 398.292876 335.634655 
L 398.418864 335.48788 
L 399.063188 334.533838 
L 399.187425 334.46045 
L 399.258595 334.423756 
L 399.593769 334.304501 
L 399.781807 334.102685 
L 400.417334 333.130296 
L 400.485023 333.001867 
L 400.626974 332.864265 
L 400.972976 332.708316 
L 401.193396 332.589061 
L 401.328928 332.341377 
L 401.483206 332.121214 
L 401.727054 331.717581 
L 401.817715 331.47907 
L 401.914564 331.368989 
L 402.039808 331.231386 
L 402.138026 330.992876 
L 402.244702 330.827753 
L 402.365587 330.63511 
L 402.892586 330.387427 
L 403.583031 329.231568 
L 404.195513 328.488517 
L 404.595973 328.149098 
L 404.812788 327.782159 
L 404.917873 327.561996 
L 405.044853 327.360179 
L 405.150393 327.121669 
L 405.360565 326.662995 
L 405.463592 326.461178 
L 405.561194 326.314403 
L 405.714182 326.094239 
L 406.127624 325.947464 
L 406.348004 325.51631 
L 406.505853 325.323667 
L 406.74536 324.975075 
L 406.855734 324.67235 
L 407.030011 324.323758 
L 407.137048 324.094421 
L 407.20073 323.892605 
L 407.316782 323.837564 
L 407.75364 323.681615 
L 407.874829 323.498145 
L 408.299313 322.690879 
L 408.3885 322.553277 
L 408.498551 322.149644 
L 408.757329 321.617582 
L 408.920907 321.406593 
L 409.147875 321.195603 
L 409.393439 321.039653 
L 409.501574 320.81949 
L 409.629305 320.535112 
L 409.743301 320.342469 
L 411.196016 317.856457 
L 411.241534 317.728028 
L 411.399986 317.471171 
L 411.474011 317.20514 
L 411.833728 316.397874 
L 412.827899 315.9392 
L 412.907873 315.838292 
L 413.08501 315.691516 
L 413.187695 315.544741 
L 414.001589 314.893424 
L 414.407245 314.737475 
L 415.064648 314.269627 
L 416.125803 313.966903 
L 416.196795 313.902688 
L 416.421532 313.77426 
L 416.529721 313.719219 
L 416.628155 313.59079 
L 416.707386 313.361453 
L 416.809876 313.159637 
L 416.90773 313.003688 
L 417.140196 312.627575 
L 417.240577 312.315677 
L 417.295028 312.159728 
L 417.398185 311.921217 
L 417.711309 311.545105 
L 417.81022 311.260727 
L 417.93752 311.05891 
L 418.528869 310.306685 
L 420.393947 309.581981 
L 421.200789 309.462725 
L 421.678301 308.600419 
L 422.336708 308.169265 
L 422.539497 307.985796 
L 422.649459 307.793153 
L 423.107863 307.114315 
L 423.237877 306.958366 
L 423.486293 306.701509 
L 423.962452 306.270355 
L 424.230762 306.141927 
L 424.926179 305.325487 
L 425.119602 304.940201 
L 425.258833 304.747558 
L 425.343858 304.600783 
L 426.017352 304.288884 
L 426.31108 303.949466 
L 426.412095 303.784343 
L 426.930765 302.986251 
L 426.992198 302.885342 
L 427.551687 302.72022 
L 427.66294 302.380801 
L 427.794114 302.252373 
L 428.054036 301.977168 
L 428.200247 301.775352 
L 428.308078 301.63775 
L 428.912098 301.023127 
L 429.191888 300.839657 
L 429.300868 300.509412 
L 429.524057 300.114952 
L 429.634499 299.968177 
L 430.682291 298.738931 
L 430.861529 298.601329 
L 430.945773 298.436206 
L 431.047758 298.298604 
L 431.185201 298.032573 
L 431.497557 297.656461 
L 431.854363 297.078532 
L 432.496187 296.895062 
L 432.967949 296.390521 
L 433.124635 296.023582 
L 433.277664 295.647469 
L 433.388033 295.363091 
L 433.541447 294.977805 
L 433.714281 294.775989 
L 433.814762 294.601693 
L 433.987577 294.427397 
L 434.218447 294.051284 
L 434.377413 293.59261 
L 434.467597 293.427488 
L 434.909666 292.766997 
L 435.105816 292.592701 
L 435.182165 292.556007 
L 435.745413 292.436752 
L 436.01818 292.161548 
L 436.490313 291.996425 
L 436.674306 291.895517 
L 437.628962 291.482711 
L 437.738238 291.345108 
L 438.525211 290.721312 
L 439.026939 290.592883 
L 439.12803 290.409414 
L 439.234926 290.125036 
L 439.596823 289.152647 
L 439.689241 288.859096 
L 439.874389 288.703147 
L 440.432881 288.418769 
L 440.764155 287.886708 
L 440.866179 287.648197 
L 441.020312 287.400513 
L 441.316645 286.987707 
L 441.419306 286.749196 
L 441.575631 286.565727 
L 441.978052 286.253829 
L 442.237682 286.116226 
L 443.311086 284.721858 
L 443.363631 284.657644 
L 443.795972 284.520041 
L 444.228853 283.997153 
L 444.336942 283.77699 
L 444.455317 283.621041 
L 444.559854 283.510959 
L 444.819852 283.1165 
L 444.973361 282.795428 
L 445.465022 282.575264 
L 445.634248 282.263366 
L 445.768478 282.098244 
L 445.883865 281.942294 
L 445.993512 281.694611 
L 446.483092 280.749742 
L 446.65161 280.602967 
L 446.671464 280.58462 
L 447.110726 280.437844 
L 447.147514 280.272722 
L 447.258249 280.025038 
L 447.469728 279.694793 
L 447.574813 279.474629 
L 447.647252 279.245292 
L 447.734753 278.988435 
L 447.879727 278.841659 
L 448.695595 278.153648 
L 448.865758 278.016046 
L 448.963528 277.915138 
L 449.078509 277.768362 
L 449.202488 277.612413 
L 449.400777 277.438117 
L 449.509581 277.272995 
L 449.926588 276.915229 
L 450.370672 276.777627 
L 450.43305 276.612504 
L 450.523703 276.447382 
L 450.688325 276.282259 
L 450.768437 276.135484 
L 451.119799 275.585075 
L 451.203699 275.410779 
L 451.579656 274.887891 
L 451.917819 274.768635 
L 452.179742 274.420043 
L 452.404956 273.979716 
L 453.04802 273.071542 
L 453.147891 272.952287 
L 453.207011 272.823858 
L 453.865759 272.401878 
L 453.973002 272.264276 
L 454.107093 272.044113 
L 454.55311 271.337755 
L 454.769485 271.108418 
L 455.441222 270.759826 
L 455.540182 270.61305 
L 455.656681 270.466275 
L 455.839473 270.337846 
L 455.933797 270.062642 
L 456.038709 269.869999 
L 456.17563 269.723223 
L 456.683204 269.172814 
L 457.081135 268.989345 
L 457.208685 268.631579 
L 457.386507 268.319681 
L 457.48454 268.209599 
L 457.81983 267.897701 
L 457.893799 267.861007 
L 458.669246 267.63167 
L 458.978796 267.264731 
L 459.350933 267.099609 
L 460.630099 266.5492 
L 460.738098 266.0997 
L 460.793387 265.934577 
L 460.889899 265.732761 
L 461.027124 265.530944 
L 461.122644 265.173179 
L 461.210139 265.008056 
L 461.30873 264.760372 
L 462.262054 264.008147 
L 462.402029 263.852198 
L 462.785965 263.421044 
L 462.875016 263.320136 
L 462.987142 263.164187 
L 463.06974 263.081626 
L 463.600716 262.888983 
L 463.705861 262.668819 
L 463.853532 262.448656 
L 464.047785 262.219319 
L 464.281506 262.045023 
L 464.384671 261.861553 
L 464.592019 261.723951 
L 464.7818 261.577176 
L 465.131163 261.347839 
L 466.496254 259.53149 
L 466.900426 259.384715 
L 467.274919 259.054469 
L 467.55418 258.788439 
L 468.385217 258.329765 
L 468.560689 258.182989 
L 468.854691 257.871091 
L 469.104557 257.678448 
L 469.524972 257.219774 
L 469.602058 257.137213 
L 470.165558 256.953743 
L 470.324896 256.73358 
L 470.441769 256.531763 
L 470.621944 256.357467 
L 470.843327 256.063916 
L 471.525825 255.49516 
L 471.793723 255.366732 
L 471.894172 255.164915 
L 472.039713 255.018139 
L 472.132323 254.853017 
L 472.290111 254.715415 
L 472.813203 254.01823 
L 472.910745 253.917322 
L 473.531992 253.761373 
L 473.786649 253.54121 
L 473.893813 253.229311 
L 474.13656 252.853199 
L 474.246284 252.733944 
L 474.339583 252.577995 
L 474.441683 252.348658 
L 474.74173 252.238576 
L 475.10736 252.119321 
L 475.257488 251.834943 
L 475.364157 251.614779 
L 475.578301 251.330402 
L 475.687148 251.119412 
L 475.908759 250.82586 
L 476.012011 250.697432 
L 476.111088 250.55983 
L 476.319465 250.513962 
L 476.59579 250.358013 
L 477.060573 249.660829 
L 477.252073 249.477359 
L 477.316317 249.413145 
L 477.436509 249.284716 
L 477.516228 249.183808 
L 477.686326 249.027859 
L 477.748333 248.835216 
L 477.837552 248.670093 
L 478.287207 248.459103 
L 479.112019 247.468368 
L 479.219563 247.39498 
L 479.525683 247.174817 
L 480.044305 246.973 
L 480.18105 246.899612 
L 481.221072 246.266642 
L 481.642891 246.119867 
L 482.551785 245.413509 
L 482.710399 245.340121 
L 483.29054 245.156652 
L 483.463891 244.80806 
L 483.569201 244.450294 
L 483.627293 244.266824 
L 483.734203 244.129222 
L 483.814911 243.982447 
L 483.918684 243.725589 
L 483.945657 243.56964 
L 484.054792 243.312783 
L 484.136214 243.156834 
L 484.331543 242.927497 
L 484.59066 242.789895 
L 484.675066 242.734854 
L 484.915888 242.578905 
L 485.026707 242.395435 
L 485.127321 242.257833 
L 485.255421 242.09271 
L 485.356802 241.955108 
L 485.427043 241.817506 
L 485.529522 241.533128 
L 485.690238 241.285444 
L 485.792099 241.184536 
L 486.667672 240.698342 
L 487.4959 239.891076 
L 487.605155 239.634219 
L 488.193513 239.340667 
L 488.482241 238.982902 
L 488.672554 238.698524 
L 488.792553 238.515054 
L 489.032645 238.249023 
L 489.413027 237.854564 
L 489.909255 237.652747 
L 489.986618 237.450931 
L 490.09745 237.276635 
L 490.327438 237.019778 
L 490.542602 236.7354 
L 490.677173 236.634492 
L 490.785519 236.506063 
L 490.863864 236.405155 
L 491.421258 236.175818 
L 491.522688 235.992348 
L 491.615249 235.818052 
L 491.729189 235.65293 
L 492.779565 234.359469 
L 493.084302 234.231041 
L 493.178456 234.029224 
L 493.408793 233.827408 
L 493.512699 233.717326 
L 493.611228 233.579724 
L 493.71669 233.387081 
L 494.260232 232.754111 
L 494.676854 232.616509 
L 495.238732 232.029406 
L 495.37419 231.836763 
L 495.754924 231.157926 
L 495.852773 230.974456 
L 497.487106 230.369007 
L 498.089568 230.185537 
L 498.419072 229.919506 
L 498.616795 229.763557 
L 498.717292 229.5067 
L 498.851134 229.29571 
L 498.954473 229.103067 
L 499.824537 228.42423 
L 500.056984 228.167372 
L 500.260197 228.011423 
L 500.590582 227.727045 
L 500.863195 227.543576 
L 501.270786 227.424321 
L 501.894858 226.644575 
L 501.989492 226.607881 
L 502.33289 226.415238 
L 502.460158 226.34185 
L 502.994889 226.167554 
L 503.175228 226.029952 
L 503.299011 225.86483 
L 503.515362 225.598799 
L 504.067841 225.250207 
L 505.145095 224.938308 
L 505.229767 224.8374 
L 505.526965 224.653931 
L 505.634148 224.580543 
L 505.937113 224.406247 
L 506.432237 224.222777 
L 506.739509 223.984267 
L 507.036116 223.773277 
L 507.145571 223.534766 
L 507.268731 223.323776 
L 507.377143 223.222868 
L 508.19762 222.424776 
L 508.297076 222.314694 
L 508.549461 222.057837 
L 508.816931 221.791806 
L 508.884179 221.654204 
L 509.760845 221.085448 
L 509.926139 220.865285 
L 510.248556 220.535039 
L 510.412693 220.232315 
L 510.538738 220.076366 
L 510.620395 219.984631 
L 511.373595 219.654386 
L 511.733689 219.305793 
L 511.988546 218.957201 
L 512.141714 218.819599 
L 512.252955 218.66365 
L 512.353065 218.581089 
L 512.918978 218.250844 
L 513.02734 218.021507 
L 513.119446 217.828864 
L 513.21614 217.746302 
L 513.399534 217.535312 
L 513.619423 217.250935 
L 513.7481 217.039945 
L 513.810951 216.902343 
L 514.085345 216.773914 
L 514.386845 216.617965 
L 514.764882 216.040036 
L 514.878578 215.957474 
L 515.203871 215.645576 
L 515.296089 215.581362 
L 515.399387 215.425413 
L 515.484976 215.370372 
L 516.059027 215.067647 
L 516.33074 214.792443 
L 516.43529 214.581453 
L 516.667033 214.260381 
L 516.777534 214.122779 
L 516.974883 213.829228 
L 517.086065 213.57237 
L 517.388677 213.434768 
L 517.721733 213.297166 
L 517.863925 213.086176 
L 518.006912 212.930227 
L 518.115738 212.70089 
L 518.243797 212.526594 
L 518.489044 212.104614 
L 518.680628 211.85693 
L 518.817472 211.535858 
L 519.351566 211.334042 
L 519.422341 211.159746 
L 519.518283 210.875368 
L 519.624461 210.710246 
L 519.731267 210.370827 
L 519.898014 210.16901 
L 520.047855 210.003888 
L 520.70066 209.361744 
L 521.027778 209.233316 
L 521.222427 208.792989 
L 521.367807 208.554478 
L 521.471295 208.297621 
L 521.584275 208.022417 
L 521.685949 207.765559 
L 521.8375 207.554569 
L 521.934986 207.435314 
L 522.047908 207.270192 
L 522.066944 207.251845 
L 522.547497 207.105069 
L 522.639176 207.040855 
L 522.928142 206.875732 
L 523.065661 206.756477 
L 523.629477 206.462926 
L 523.716812 206.389538 
L 524.270123 206.206068 
L 525.445087 204.710792 
L 525.920311 204.573189 
L 526.028118 204.426414 
L 526.183788 204.307159 
L 526.330895 204.086995 
L 526.45235 203.857658 
L 526.568534 203.802617 
L 526.840643 203.54576 
L 526.945188 203.398984 
L 527.539202 203.013698 
L 527.644249 202.784361 
L 527.757147 202.610065 
L 527.858607 202.46329 
L 528.055261 202.206432 
L 528.155729 201.940402 
L 528.363794 201.656024 
L 528.473458 201.445034 
L 528.706141 201.087268 
L 529.438207 200.463472 
L 529.529864 200.243308 
L 529.71399 200.11488 
L 530.024583 199.839675 
L 530.130894 199.619512 
L 530.19495 199.445216 
L 530.344612 199.289267 
L 530.7096 199.078277 
L 530.835444 198.867287 
L 530.938485 198.601256 
L 531.11426 198.326052 
L 531.212169 198.151756 
L 531.348811 197.995806 
L 531.535234 197.79399 
L 531.638017 197.683908 
L 531.857719 197.436224 
L 532.006599 197.37201 
L 532.501718 197.078459 
L 532.632746 196.904163 
L 532.781271 196.729867 
L 532.885722 196.518877 
L 533.020193 196.298713 
L 533.2866 195.849213 
L 533.475584 195.629049 
L 533.62038 195.482274 
L 534.372774 194.821783 
L 534.46744 194.638314 
L 534.61038 194.500712 
L 534.722297 194.17964 
L 534.965651 193.867742 
L 535.059929 193.776007 
L 535.130558 193.620058 
L 535.240479 193.528323 
L 535.720754 193.243945 
L 535.970282 192.656843 
L 536.09111 192.445853 
L 536.187991 192.28073 
L 536.305485 192.106434 
L 536.409797 191.987179 
L 536.481401 191.849577 
L 536.573104 191.666107 
L 536.70103 191.510158 
L 536.804781 191.234954 
L 537.537931 190.611157 
L 537.879584 190.225871 
L 538.041685 190.079096 
L 538.142762 189.923147 
L 538.236585 189.767198 
L 538.344001 189.547034 
L 538.415994 189.418605 
L 538.580732 189.253483 
L 538.998083 189.070013 
L 539.101175 188.969105 
L 539.267305 188.813156 
L 539.358815 188.703074 
L 539.497957 188.565472 
L 539.606097 188.400349 
L 539.84058 188.2444 
L 540.745939 187.996716 
L 540.864373 187.868288 
L 540.97321 187.749033 
L 541.081584 187.547216 
L 541.153009 187.308706 
L 541.250928 187.180277 
L 541.345914 186.978461 
L 541.512206 186.794991 
L 541.620129 186.574828 
L 541.723943 186.446399 
L 541.826227 186.171195 
L 542.54275 185.767562 
L 542.690744 185.639133 
L 543.225169 185.47401 
L 543.256233 185.44649 
L 544.356128 185.244673 
L 544.779932 184.996989 
L 544.891274 184.721785 
L 544.978102 184.492448 
L 545.096209 184.281458 
L 545.535669 183.997081 
L 546.322344 183.30907 
L 546.433011 183.134774 
L 546.599137 182.969651 
L 546.695113 182.896263 
L 547.180804 182.657753 
L 547.404741 182.373375 
L 547.530135 182.180732 
L 547.636068 182.061477 
L 547.993441 181.740405 
L 548.09525 181.584456 
L 548.189607 181.391813 
L 548.334689 181.116609 
L 548.751642 180.868925 
L 548.872379 180.703802 
L 548.967833 180.547853 
L 549.132721 180.382731 
L 549.214265 180.254302 
L 549.315849 180.1167 
L 549.469052 179.878189 
L 549.521372 179.749761 
L 549.574437 179.676373 
L 549.821649 179.538771 
L 550.040766 179.401169 
L 550.475938 179.254393 
L 551.581532 177.630687 
L 552.176532 177.300442 
L 552.757817 176.511523 
L 552.930154 176.373921 
L 553.019918 176.254666 
L 554.065693 175.731778 
L 554.164925 175.630869 
L 554.321996 175.47492 
L 554.425457 175.291451 
L 554.535682 175.144675 
L 554.646777 174.896991 
L 554.750487 174.731869 
L 554.971117 174.511705 
L 555.379171 174.374103 
L 555.510625 174.18146 
L 555.604648 174.062205 
L 555.713076 173.832868 
L 555.852478 173.594358 
L 555.963723 173.429235 
L 556.216127 172.924694 
L 556.376891 172.777918 
L 556.488433 172.649489 
L 557.375201 171.906438 
L 557.471119 171.640407 
L 557.592615 171.475284 
L 557.955648 170.805621 
L 558.470617 170.512069 
L 558.714709 170.365294 
L 558.854022 170.163477 
L 558.960679 169.961661 
L 559.529013 169.126874 
L 559.642654 168.943405 
L 559.858669 168.659027 
L 560.437684 168.347129 
L 560.543002 168.108618 
L 560.671308 167.842588 
L 560.777445 167.613251 
L 561.153543 167.072015 
L 561.466872 166.494086 
L 561.991276 166.237229 
L 562.097806 166.072106 
L 562.224062 165.89781 
L 563.119107 164.209891 
L 563.277865 164.15485 
L 563.635091 164.008074 
L 563.635094 163.998901 
L 563.905456 163.870472 
L 563.993889 163.806258 
L 564.34306 163.604441 
L 564.428429 163.503533 
L 564.630704 163.365931 
L 564.636874 163.347584 
L 565.123089 163.209982 
L 565.414304 163.072379 
L 565.530556 162.943951 
L 565.63561 162.751308 
L 565.727307 162.567838 
L 565.839447 162.01743 
L 566.352868 161.439501 
L 567.193641 160.999174 
L 567.255599 160.916612 
L 567.450616 160.77901 
L 568.284183 159.990091 
L 568.579708 159.797448 
L 568.684334 159.659846 
L 569.864399 158.302171 
L 570.155274 158.155396 
L 570.248627 158.036141 
L 570.45877 157.834324 
L 570.808402 157.540773 
L 571.126023 157.173834 
L 571.224064 157.027058 
L 571.789418 156.74268 
L 571.908706 156.577558 
L 572.020135 156.412435 
L 572.129506 156.210619 
L 572.325166 155.852853 
L 572.455475 155.724424 
L 572.520443 155.577649 
L 572.616469 155.329965 
L 572.743029 155.155669 
L 572.851112 154.880464 
L 573.072419 154.724515 
L 573.422911 154.550219 
L 573.559662 154.348403 
L 573.812773 154.109892 
L 573.915383 153.807168 
L 574.073257 153.541137 
L 574.168175 153.394361 
L 574.367136 153.192545 
L 574.546051 152.981555 
L 575.230208 152.513707 
L 575.329342 152.477014 
L 575.586423 152.25685 
L 575.689867 152.036687 
L 575.860793 151.789003 
L 575.97098 151.587186 
L 576.261207 151.367023 
L 576.770736 151.119339 
L 576.884038 150.880829 
L 577.926017 150.027695 
L 578.384792 149.844226 
L 578.480692 149.651583 
L 578.626666 149.495633 
L 579.292506 148.303081 
L 579.36895 148.128785 
L 579.47984 147.908622 
L 579.899246 147.642591 
L 580.202921 147.293999 
L 580.308564 147.083009 
L 580.458714 146.917886 
L 580.798716 145.762028 
L 580.906135 145.569385 
L 581.045741 145.395089 
L 581.17942 145.257487 
L 582.669211 144.780466 
L 582.743675 144.661211 
L 583.225216 144.496089 
L 583.38839 144.303446 
L 583.488595 144.211711 
L 583.874928 143.780557 
L 583.983093 143.633782 
L 584.26744 143.468659 
L 584.980649 143.156761 
L 585.066363 142.945771 
L 585.229128 142.808169 
L 585.328031 142.65222 
L 585.631158 142.386189 
L 585.748053 142.083464 
L 585.894106 141.927515 
L 585.989805 141.698178 
L 586.385236 141.588096 
L 586.584469 141.459668 
L 587.756147 140.30381 
L 587.903014 140.166207 
L 588.396839 139.780921 
L 588.49928 139.652493 
L 588.829262 139.423156 
L 588.935884 139.331421 
L 589.584223 138.909441 
L 589.956979 138.762665 
L 590.241727 138.487461 
L 590.343913 138.4049 
L 590.638378 138.22143 
L 590.736916 138.166389 
L 591.476744 137.854491 
L 591.864223 137.625154 
L 592.321326 137.505899 
L 592.432595 137.414164 
L 592.867571 137.175654 
L 593.04082 137.038052 
L 593.148798 136.95549 
L 593.285508 136.790368 
L 593.396373 136.597725 
L 593.608972 136.05649 
L 593.721599 135.551948 
L 593.854959 135.350132 
L 593.956687 135.056581 
L 594.145175 134.863938 
L 594.247977 134.763029 
L 594.815625 134.597907 
L 594.921355 134.487825 
L 595.083057 134.267662 
L 595.19409 134.075019 
L 595.310336 133.955763 
L 595.439168 133.790641 
L 595.593149 133.570477 
L 596.7136 132.827426 
L 596.816369 132.744864 
L 596.988675 132.533875 
L 597.080296 132.478834 
L 597.317905 132.267844 
L 597.462602 132.102721 
L 598.108605 131.845864 
L 598.209976 131.781649 
L 598.601476 131.561486 
L 598.71121 131.359669 
L 598.826926 131.222067 
L 598.931685 130.93769 
L 599.055485 130.75422 
L 599.164834 130.616618 
L 599.824274 130.295546 
L 600.324991 129.992821 
L 600.474674 129.855219 
L 600.56373 129.754311 
L 600.593523 129.635056 
L 600.684982 129.387372 
L 600.835213 129.231423 
L 601.917475 128.19482 
L 602.025384 128.130606 
L 602.105773 127.956309 
L 602.217611 127.782013 
L 603.504276 126.993094 
L 603.610873 126.938054 
L 603.786118 126.69037 
L 603.867133 126.424339 
L 603.995468 126.277563 
L 604.050372 126.195002 
L 604.568598 126.002359 
L 604.703977 125.791369 
L 604.814582 125.699634 
L 605.1027 125.378562 
L 605.290012 125.167572 
L 605.396598 125.011623 
L 605.685487 124.773113 
L 605.765829 124.736419 
L 606.271483 124.571296 
L 606.374082 124.296092 
L 606.618724 124.066755 
L 606.726457 123.97502 
L 606.914921 123.800724 
L 607.340295 123.176928 
L 607.944155 122.965938 
L 608.0554 122.745775 
L 608.649408 122.479744 
L 609.307654 122.241233 
L 609.797892 122.103631 
L 609.912304 121.727519 
L 610.113865 121.580743 
L 610.212077 121.333059 
L 610.638779 121.011987 
L 611.4974 120.259762 
L 611.604257 120.131334 
L 611.878901 119.856129 
L 611.965458 119.691007 
L 612.171317 119.535058 
L 612.280555 119.424976 
L 612.349605 119.388282 
L 612.787933 119.25068 
L 612.873633 119.103904 
L 613.122922 118.911261 
L 613.664282 118.40672 
L 613.996451 118.01226 
L 614.456533 117.828791 
L 614.519627 117.691189 
L 614.935043 117.32425 
L 615.217625 116.948137 
L 615.377532 116.700453 
L 615.912005 116.397728 
L 616.00608 116.361035 
L 616.118691 116.223432 
L 616.27008 116.131698 
L 616.567288 115.994095 
L 616.673555 115.828973 
L 616.781525 115.691371 
L 616.891544 115.590462 
L 617.029491 115.507901 
L 617.414845 115.306085 
L 617.745656 115.113442 
L 618.260208 114.718982 
L 618.366778 114.590554 
L 618.946127 114.076839 
L 619.484011 113.865849 
L 619.593854 113.783288 
L 619.781098 113.508083 
L 620.100706 113.31544 
L 620.208667 113.159491 
L 620.295511 113.040236 
L 621.150491 112.691644 
L 621.334755 112.544868 
L 621.72635 112.333878 
L 621.975753 112.095368 
L 622.073317 111.966939 
L 622.429597 111.710082 
L 622.636364 111.6 
L 622.636364 111.6 
" style="fill:none;stroke:#92c6ff;stroke-linecap:round;stroke-width:1.5;"/>
   </g>
   <g id="line2d_26">
    <defs>
     <path d="M 0 2.5 
C 0.663008 2.5 1.29895 2.236584 1.767767 1.767767 
C 2.236584 1.29895 2.5 0.663008 2.5 0 
C 2.5 -0.663008 2.236584 -1.29895 1.767767 -1.767767 
C 1.29895 -2.236584 0.663008 -2.5 0 -2.5 
C -0.663008 -2.5 -1.29895 -2.236584 -1.767767 -1.767767 
C -2.236584 -1.29895 -2.5 -0.663008 -2.5 0 
C -2.5 0.663008 -2.236584 1.29895 -1.767767 1.767767 
C -1.29895 2.236584 -0.663008 2.5 0 2.5 
z
" id="m3c368a4680" style="stroke:#696969;"/>
    </defs>
    <g clip-path="url(#p55b402bebb)">
     <use style="fill:#696969;stroke:#696969;" x="115.363636" xlink:href="#m3c368a4680" y="615.6"/>
    </g>
   </g>
   <g id="line2d_27">
    <g clip-path="url(#p55b402bebb)">
     <use style="fill:#696969;stroke:#696969;" x="198.238735" xlink:href="#m3c368a4680" y="565.191744"/>
    </g>
   </g>
   <g id="line2d_28">
    <g clip-path="url(#p55b402bebb)">
     <use style="fill:#696969;stroke:#696969;" x="242.55872" xlink:href="#m3c368a4680" y="514.783488"/>
    </g>
   </g>
   <g id="line2d_29">
    <g clip-path="url(#p55b402bebb)">
     <use style="fill:#696969;stroke:#696969;" x="291.943147" xlink:href="#m3c368a4680" y="464.384405"/>
    </g>
   </g>
   <g id="line2d_30">
    <g clip-path="url(#p55b402bebb)">
     <use style="fill:#696969;stroke:#696969;" x="331.311848" xlink:href="#m3c368a4680" y="413.985322"/>
    </g>
   </g>
   <g id="line2d_31">
    <g clip-path="url(#p55b402bebb)">
     <use style="fill:#696969;stroke:#696969;" x="375.86104" xlink:href="#m3c368a4680" y="363.58624"/>
    </g>
   </g>
   <g id="line2d_32">
    <g clip-path="url(#p55b402bebb)">
     <use style="fill:#696969;stroke:#696969;" x="416.788984" xlink:href="#m3c368a4680" y="313.187157"/>
    </g>
   </g>
   <g id="line2d_33">
    <g clip-path="url(#p55b402bebb)">
     <use style="fill:#696969;stroke:#696969;" x="463.671147" xlink:href="#m3c368a4680" y="262.788074"/>
    </g>
   </g>
   <g id="line2d_34">
    <g clip-path="url(#p55b402bebb)">
     <use style="fill:#696969;stroke:#696969;" x="518.322188" xlink:href="#m3c368a4680" y="212.388992"/>
    </g>
   </g>
   <g id="line2d_35">
    <g clip-path="url(#p55b402bebb)">
     <use style="fill:#696969;stroke:#696969;" x="565.846311" xlink:href="#m3c368a4680" y="161.989909"/>
    </g>
   </g>
   <g id="line2d_36">
    <g clip-path="url(#p55b402bebb)">
     <use style="fill:#696969;stroke:#696969;" x="622.636364" xlink:href="#m3c368a4680" y="111.6"/>
    </g>
   </g>
   <g id="patch_3">
    <path d="M 90 640.8 
L 90 86.4 
" style="fill:none;stroke:#cccccc;stroke-linecap:square;stroke-linejoin:miter;"/>
   </g>
   <g id="patch_4">
    <path d="M 648 640.8 
L 648 86.4 
" style="fill:none;stroke:#cccccc;stroke-linecap:square;stroke-linejoin:miter;"/>
   </g>
   <g id="patch_5">
    <path d="M 90 640.8 
L 648 640.8 
" style="fill:none;stroke:#cccccc;stroke-linecap:square;stroke-linejoin:miter;"/>
   </g>
   <g id="patch_6">
    <path d="M 90 86.4 
L 648 86.4 
" style="fill:none;stroke:#cccccc;stroke-linecap:square;stroke-linejoin:miter;"/>
   </g>
   <g id="text_13">
    <!-- 1 (2014-06-07) -->
    <defs>
     <path id="DejaVuSans-32"/>
     <path d="M 31 75.875 
Q 24.46875 64.65625 21.28125 53.65625 
Q 18.109375 42.671875 18.109375 31.390625 
Q 18.109375 20.125 21.3125 9.0625 
Q 24.515625 -2 31 -13.1875 
L 23.1875 -13.1875 
Q 15.875 -1.703125 12.234375 9.375 
Q 8.59375 20.453125 8.59375 31.390625 
Q 8.59375 42.28125 12.203125 53.3125 
Q 15.828125 64.359375 23.1875 75.875 
z
" id="DejaVuSans-40"/>
     <path d="M 4.890625 31.390625 
L 31.203125 31.390625 
L 31.203125 23.390625 
L 4.890625 23.390625 
z
" id="DejaVuSans-45"/>
     <path d="M 8.015625 75.875 
L 15.828125 75.875 
Q 23.140625 64.359375 26.78125 53.3125 
Q 30.421875 42.28125 30.421875 31.390625 
Q 30.421875 20.453125 26.78125 9.375 
Q 23.140625 -1.703125 15.828125 -13.1875 
L 8.015625 -13.1875 
Q 14.5 -2 17.703125 9.0625 
Q 20.90625 20.125 20.90625 31.390625 
Q 20.90625 42.671875 17.703125 53.65625 
Q 14.5 64.65625 8.015625 75.875 
z
" id="DejaVuSans-41"/>
    </defs>
    <g style="fill:#262626;" transform="translate(120.363636 623.198437)scale(0.1 -0.1)">
     <use xlink:href="#DejaVuSans-49"/>
     <use x="63.623047" xlink:href="#DejaVuSans-32"/>
     <use x="95.410156" xlink:href="#DejaVuSans-40"/>
     <use x="134.423828" xlink:href="#DejaVuSans-50"/>
     <use x="198.046875" xlink:href="#DejaVuSans-48"/>
     <use x="261.669922" xlink:href="#DejaVuSans-49"/>
     <use x="325.292969" xlink:href="#DejaVuSans-52"/>
     <use x="388.916016" xlink:href="#DejaVuSans-45"/>
     <use x="425" xlink:href="#DejaVuSans-48"/>
     <use x="488.623047" xlink:href="#DejaVuSans-54"/>
     <use x="552.246094" xlink:href="#DejaVuSans-45"/>
     <use x="588.330078" xlink:href="#DejaVuSans-48"/>
     <use x="651.953125" xlink:href="#DejaVuSans-55"/>
     <use x="715.576172" xlink:href="#DejaVuSans-41"/>
    </g>
   </g>
   <g id="text_14">
    <!-- 5496 (2015-05-26) -->
    <g style="fill:#262626;" transform="translate(203.238735 572.790181)scale(0.1 -0.1)">
     <use xlink:href="#DejaVuSans-53"/>
     <use x="63.623047" xlink:href="#DejaVuSans-52"/>
     <use x="127.246094" xlink:href="#DejaVuSans-57"/>
     <use x="190.869141" xlink:href="#DejaVuSans-54"/>
     <use x="254.492188" xlink:href="#DejaVuSans-32"/>
     <use x="286.279297" xlink:href="#DejaVuSans-40"/>
     <use x="325.292969" xlink:href="#DejaVuSans-50"/>
     <use x="388.916016" xlink:href="#DejaVuSans-48"/>
     <use x="452.539062" xlink:href="#DejaVuSans-49"/>
     <use x="516.162109" xlink:href="#DejaVuSans-53"/>
     <use x="579.785156" xlink:href="#DejaVuSans-45"/>
     <use x="615.869141" xlink:href="#DejaVuSans-48"/>
     <use x="679.492188" xlink:href="#DejaVuSans-53"/>
     <use x="743.115234" xlink:href="#DejaVuSans-45"/>
     <use x="779.199219" xlink:href="#DejaVuSans-50"/>
     <use x="842.822266" xlink:href="#DejaVuSans-54"/>
     <use x="906.445312" xlink:href="#DejaVuSans-41"/>
    </g>
   </g>
   <g id="text_15">
    <!-- 10991 (2015-12-02) -->
    <g style="fill:#262626;" transform="translate(247.55872 522.381925)scale(0.1 -0.1)">
     <use xlink:href="#DejaVuSans-49"/>
     <use x="63.623047" xlink:href="#DejaVuSans-48"/>
     <use x="127.246094" xlink:href="#DejaVuSans-57"/>
     <use x="190.869141" xlink:href="#DejaVuSans-57"/>
     <use x="254.492188" xlink:href="#DejaVuSans-49"/>
     <use x="318.115234" xlink:href="#DejaVuSans-32"/>
     <use x="349.902344" xlink:href="#DejaVuSans-40"/>
     <use x="388.916016" xlink:href="#DejaVuSans-50"/>
     <use x="452.539062" xlink:href="#DejaVuSans-48"/>
     <use x="516.162109" xlink:href="#DejaVuSans-49"/>
     <use x="579.785156" xlink:href="#DejaVuSans-53"/>
     <use x="643.408203" xlink:href="#DejaVuSans-45"/>
     <use x="679.492188" xlink:href="#DejaVuSans-49"/>
     <use x="743.115234" xlink:href="#DejaVuSans-50"/>
     <use x="806.738281" xlink:href="#DejaVuSans-45"/>
     <use x="842.822266" xlink:href="#DejaVuSans-48"/>
     <use x="906.445312" xlink:href="#DejaVuSans-50"/>
     <use x="970.068359" xlink:href="#DejaVuSans-41"/>
    </g>
   </g>
   <g id="text_16">
    <!-- 16485 (2016-06-29) -->
    <g style="fill:#262626;" transform="translate(296.943147 471.982843)scale(0.1 -0.1)">
     <use xlink:href="#DejaVuSans-49"/>
     <use x="63.623047" xlink:href="#DejaVuSans-54"/>
     <use x="127.246094" xlink:href="#DejaVuSans-52"/>
     <use x="190.869141" xlink:href="#DejaVuSans-56"/>
     <use x="254.492188" xlink:href="#DejaVuSans-53"/>
     <use x="318.115234" xlink:href="#DejaVuSans-32"/>
     <use x="349.902344" xlink:href="#DejaVuSans-40"/>
     <use x="388.916016" xlink:href="#DejaVuSans-50"/>
     <use x="452.539062" xlink:href="#DejaVuSans-48"/>
     <use x="516.162109" xlink:href="#DejaVuSans-49"/>
     <use x="579.785156" xlink:href="#DejaVuSans-54"/>
     <use x="643.408203" xlink:href="#DejaVuSans-45"/>
     <use x="679.492188" xlink:href="#DejaVuSans-48"/>
     <use x="743.115234" xlink:href="#DejaVuSans-54"/>
     <use x="806.738281" xlink:href="#DejaVuSans-45"/>
     <use x="842.822266" xlink:href="#DejaVuSans-50"/>
     <use x="906.445312" xlink:href="#DejaVuSans-57"/>
     <use x="970.068359" xlink:href="#DejaVuSans-41"/>
    </g>
   </g>
   <g id="text_17">
    <!-- 21979 (2016-12-15) -->
    <g style="fill:#262626;" transform="translate(336.311848 421.58376)scale(0.1 -0.1)">
     <use xlink:href="#DejaVuSans-50"/>
     <use x="63.623047" xlink:href="#DejaVuSans-49"/>
     <use x="127.246094" xlink:href="#DejaVuSans-57"/>
     <use x="190.869141" xlink:href="#DejaVuSans-55"/>
     <use x="254.492188" xlink:href="#DejaVuSans-57"/>
     <use x="318.115234" xlink:href="#DejaVuSans-32"/>
     <use x="349.902344" xlink:href="#DejaVuSans-40"/>
     <use x="388.916016" xlink:href="#DejaVuSans-50"/>
     <use x="452.539062" xlink:href="#DejaVuSans-48"/>
     <use x="516.162109" xlink:href="#DejaVuSans-49"/>
     <use x="579.785156" xlink:href="#DejaVuSans-54"/>
     <use x="643.408203" xlink:href="#DejaVuSans-45"/>
     <use x="679.492188" xlink:href="#DejaVuSans-49"/>
     <use x="743.115234" xlink:href="#DejaVuSans-50"/>
     <use x="806.738281" xlink:href="#DejaVuSans-45"/>
     <use x="842.822266" xlink:href="#DejaVuSans-49"/>
     <use x="906.445312" xlink:href="#DejaVuSans-53"/>
     <use x="970.068359" xlink:href="#DejaVuSans-41"/>
    </g>
   </g>
   <g id="text_18">
    <!-- 27473 (2017-06-23) -->
    <g style="fill:#262626;" transform="translate(380.86104 371.184677)scale(0.1 -0.1)">
     <use xlink:href="#DejaVuSans-50"/>
     <use x="63.623047" xlink:href="#DejaVuSans-55"/>
     <use x="127.246094" xlink:href="#DejaVuSans-52"/>
     <use x="190.869141" xlink:href="#DejaVuSans-55"/>
     <use x="254.492188" xlink:href="#DejaVuSans-51"/>
     <use x="318.115234" xlink:href="#DejaVuSans-32"/>
     <use x="349.902344" xlink:href="#DejaVuSans-40"/>
     <use x="388.916016" xlink:href="#DejaVuSans-50"/>
     <use x="452.539062" xlink:href="#DejaVuSans-48"/>
     <use x="516.162109" xlink:href="#DejaVuSans-49"/>
     <use x="579.785156" xlink:href="#DejaVuSans-55"/>
     <use x="643.408203" xlink:href="#DejaVuSans-45"/>
     <use x="679.492188" xlink:href="#DejaVuSans-48"/>
     <use x="743.115234" xlink:href="#DejaVuSans-54"/>
     <use x="806.738281" xlink:href="#DejaVuSans-45"/>
     <use x="842.822266" xlink:href="#DejaVuSans-50"/>
     <use x="906.445312" xlink:href="#DejaVuSans-51"/>
     <use x="970.068359" xlink:href="#DejaVuSans-41"/>
    </g>
   </g>
   <g id="text_19">
    <!-- 32967 (2017-12-14) -->
    <g style="fill:#262626;" transform="translate(421.788984 320.785595)scale(0.1 -0.1)">
     <use xlink:href="#DejaVuSans-51"/>
     <use x="63.623047" xlink:href="#DejaVuSans-50"/>
     <use x="127.246094" xlink:href="#DejaVuSans-57"/>
     <use x="190.869141" xlink:href="#DejaVuSans-54"/>
     <use x="254.492188" xlink:href="#DejaVuSans-55"/>
     <use x="318.115234" xlink:href="#DejaVuSans-32"/>
     <use x="349.902344" xlink:href="#DejaVuSans-40"/>
     <use x="388.916016" xlink:href="#DejaVuSans-50"/>
     <use x="452.539062" xlink:href="#DejaVuSans-48"/>
     <use x="516.162109" xlink:href="#DejaVuSans-49"/>
     <use x="579.785156" xlink:href="#DejaVuSans-55"/>
     <use x="643.408203" xlink:href="#DejaVuSans-45"/>
     <use x="679.492188" xlink:href="#DejaVuSans-49"/>
     <use x="743.115234" xlink:href="#DejaVuSans-50"/>
     <use x="806.738281" xlink:href="#DejaVuSans-45"/>
     <use x="842.822266" xlink:href="#DejaVuSans-49"/>
     <use x="906.445312" xlink:href="#DejaVuSans-52"/>
     <use x="970.068359" xlink:href="#DejaVuSans-41"/>
    </g>
   </g>
   <g id="text_20">
    <!-- 38461 (2018-07-03) -->
    <g style="fill:#262626;" transform="translate(468.671147 270.386512)scale(0.1 -0.1)">
     <use xlink:href="#DejaVuSans-51"/>
     <use x="63.623047" xlink:href="#DejaVuSans-56"/>
     <use x="127.246094" xlink:href="#DejaVuSans-52"/>
     <use x="190.869141" xlink:href="#DejaVuSans-54"/>
     <use x="254.492188" xlink:href="#DejaVuSans-49"/>
     <use x="318.115234" xlink:href="#DejaVuSans-32"/>
     <use x="349.902344" xlink:href="#DejaVuSans-40"/>
     <use x="388.916016" xlink:href="#DejaVuSans-50"/>
     <use x="452.539062" xlink:href="#DejaVuSans-48"/>
     <use x="516.162109" xlink:href="#DejaVuSans-49"/>
     <use x="579.785156" xlink:href="#DejaVuSans-56"/>
     <use x="643.408203" xlink:href="#DejaVuSans-45"/>
     <use x="679.492188" xlink:href="#DejaVuSans-48"/>
     <use x="743.115234" xlink:href="#DejaVuSans-55"/>
     <use x="806.738281" xlink:href="#DejaVuSans-45"/>
     <use x="842.822266" xlink:href="#DejaVuSans-48"/>
     <use x="906.445312" xlink:href="#DejaVuSans-51"/>
     <use x="970.068359" xlink:href="#DejaVuSans-41"/>
    </g>
   </g>
   <g id="text_21">
    <!-- 43955 (2019-02-21) -->
    <g style="fill:#262626;" transform="translate(523.322188 219.987429)scale(0.1 -0.1)">
     <use xlink:href="#DejaVuSans-52"/>
     <use x="63.623047" xlink:href="#DejaVuSans-51"/>
     <use x="127.246094" xlink:href="#DejaVuSans-57"/>
     <use x="190.869141" xlink:href="#DejaVuSans-53"/>
     <use x="254.492188" xlink:href="#DejaVuSans-53"/>
     <use x="318.115234" xlink:href="#DejaVuSans-32"/>
     <use x="349.902344" xlink:href="#DejaVuSans-40"/>
     <use x="388.916016" xlink:href="#DejaVuSans-50"/>
     <use x="452.539062" xlink:href="#DejaVuSans-48"/>
     <use x="516.162109" xlink:href="#DejaVuSans-49"/>
     <use x="579.785156" xlink:href="#DejaVuSans-57"/>
     <use x="643.408203" xlink:href="#DejaVuSans-45"/>
     <use x="679.492188" xlink:href="#DejaVuSans-48"/>
     <use x="743.115234" xlink:href="#DejaVuSans-50"/>
     <use x="806.738281" xlink:href="#DejaVuSans-45"/>
     <use x="842.822266" xlink:href="#DejaVuSans-50"/>
     <use x="906.445312" xlink:href="#DejaVuSans-49"/>
     <use x="970.068359" xlink:href="#DejaVuSans-41"/>
    </g>
   </g>
   <g id="text_22">
    <!-- 49449 (2019-09-12) -->
    <g style="fill:#262626;" transform="translate(570.846311 169.588347)scale(0.1 -0.1)">
     <use xlink:href="#DejaVuSans-52"/>
     <use x="63.623047" xlink:href="#DejaVuSans-57"/>
     <use x="127.246094" xlink:href="#DejaVuSans-52"/>
     <use x="190.869141" xlink:href="#DejaVuSans-52"/>
     <use x="254.492188" xlink:href="#DejaVuSans-57"/>
     <use x="318.115234" xlink:href="#DejaVuSans-32"/>
     <use x="349.902344" xlink:href="#DejaVuSans-40"/>
     <use x="388.916016" xlink:href="#DejaVuSans-50"/>
     <use x="452.539062" xlink:href="#DejaVuSans-48"/>
     <use x="516.162109" xlink:href="#DejaVuSans-49"/>
     <use x="579.785156" xlink:href="#DejaVuSans-57"/>
     <use x="643.408203" xlink:href="#DejaVuSans-45"/>
     <use x="679.492188" xlink:href="#DejaVuSans-48"/>
     <use x="743.115234" xlink:href="#DejaVuSans-57"/>
     <use x="806.738281" xlink:href="#DejaVuSans-45"/>
     <use x="842.822266" xlink:href="#DejaVuSans-49"/>
     <use x="906.445312" xlink:href="#DejaVuSans-50"/>
     <use x="970.068359" xlink:href="#DejaVuSans-41"/>
    </g>
   </g>
   <g id="text_23">
    <!-- 54942 (2020-05-11) -->
    <g style="fill:#262626;" transform="translate(627.636364 119.198438)scale(0.1 -0.1)">
     <use xlink:href="#DejaVuSans-53"/>
     <use x="63.623047" xlink:href="#DejaVuSans-52"/>
     <use x="127.246094" xlink:href="#DejaVuSans-57"/>
     <use x="190.869141" xlink:href="#DejaVuSans-52"/>
     <use x="254.492188" xlink:href="#DejaVuSans-50"/>
     <use x="318.115234" xlink:href="#DejaVuSans-32"/>
     <use x="349.902344" xlink:href="#DejaVuSans-40"/>
     <use x="388.916016" xlink:href="#DejaVuSans-50"/>
     <use x="452.539062" xlink:href="#DejaVuSans-48"/>
     <use x="516.162109" xlink:href="#DejaVuSans-50"/>
     <use x="579.785156" xlink:href="#DejaVuSans-48"/>
     <use x="643.408203" xlink:href="#DejaVuSans-45"/>
     <use x="679.492188" xlink:href="#DejaVuSans-48"/>
     <use x="743.115234" xlink:href="#DejaVuSans-53"/>
     <use x="806.738281" xlink:href="#DejaVuSans-45"/>
     <use x="842.822266" xlink:href="#DejaVuSans-49"/>
     <use x="906.445312" xlink:href="#DejaVuSans-49"/>
     <use x="970.068359" xlink:href="#DejaVuSans-41"/>
    </g>
   </g>
   <g id="text_24">
    <!-- Closed PRs over time -->
    <defs>
     <path d="M 64.40625 67.28125 
L 64.40625 56.890625 
Q 59.421875 61.53125 53.78125 63.8125 
Q 48.140625 66.109375 41.796875 66.109375 
Q 29.296875 66.109375 22.65625 58.46875 
Q 16.015625 50.828125 16.015625 36.375 
Q 16.015625 21.96875 22.65625 14.328125 
Q 29.296875 6.6875 41.796875 6.6875 
Q 48.140625 6.6875 53.78125 8.984375 
Q 59.421875 11.28125 64.40625 15.921875 
L 64.40625 5.609375 
Q 59.234375 2.09375 53.4375 0.328125 
Q 47.65625 -1.421875 41.21875 -1.421875 
Q 24.65625 -1.421875 15.125 8.703125 
Q 5.609375 18.84375 5.609375 36.375 
Q 5.609375 53.953125 15.125 64.078125 
Q 24.65625 74.21875 41.21875 74.21875 
Q 47.75 74.21875 53.53125 72.484375 
Q 59.328125 70.75 64.40625 67.28125 
z
" id="DejaVuSans-67"/>
     <path d="M 9.421875 75.984375 
L 18.40625 75.984375 
L 18.40625 0 
L 9.421875 0 
z
" id="DejaVuSans-108"/>
     <path d="M 30.609375 48.390625 
Q 23.390625 48.390625 19.1875 42.75 
Q 14.984375 37.109375 14.984375 27.296875 
Q 14.984375 17.484375 19.15625 11.84375 
Q 23.34375 6.203125 30.609375 6.203125 
Q 37.796875 6.203125 41.984375 11.859375 
Q 46.1875 17.53125 46.1875 27.296875 
Q 46.1875 37.015625 41.984375 42.703125 
Q 37.796875 48.390625 30.609375 48.390625 
z
M 30.609375 56 
Q 42.328125 56 49.015625 48.375 
Q 55.71875 40.765625 55.71875 27.296875 
Q 55.71875 13.875 49.015625 6.21875 
Q 42.328125 -1.421875 30.609375 -1.421875 
Q 18.84375 -1.421875 12.171875 6.21875 
Q 5.515625 13.875 5.515625 27.296875 
Q 5.515625 40.765625 12.171875 48.375 
Q 18.84375 56 30.609375 56 
z
" id="DejaVuSans-111"/>
     <path d="M 44.28125 53.078125 
L 44.28125 44.578125 
Q 40.484375 46.53125 36.375 47.5 
Q 32.28125 48.484375 27.875 48.484375 
Q 21.1875 48.484375 17.84375 46.4375 
Q 14.5 44.390625 14.5 40.28125 
Q 14.5 37.15625 16.890625 35.375 
Q 19.28125 33.59375 26.515625 31.984375 
L 29.59375 31.296875 
Q 39.15625 29.25 43.1875 25.515625 
Q 47.21875 21.78125 47.21875 15.09375 
Q 47.21875 7.46875 41.1875 3.015625 
Q 35.15625 -1.421875 24.609375 -1.421875 
Q 20.21875 -1.421875 15.453125 -0.5625 
Q 10.6875 0.296875 5.421875 2 
L 5.421875 11.28125 
Q 10.40625 8.6875 15.234375 7.390625 
Q 20.0625 6.109375 24.8125 6.109375 
Q 31.15625 6.109375 34.5625 8.28125 
Q 37.984375 10.453125 37.984375 14.40625 
Q 37.984375 18.0625 35.515625 20.015625 
Q 33.0625 21.96875 24.703125 23.78125 
L 21.578125 24.515625 
Q 13.234375 26.265625 9.515625 29.90625 
Q 5.8125 33.546875 5.8125 39.890625 
Q 5.8125 47.609375 11.28125 51.796875 
Q 16.75 56 26.8125 56 
Q 31.78125 56 36.171875 55.265625 
Q 40.578125 54.546875 44.28125 53.078125 
z
" id="DejaVuSans-115"/>
     <path d="M 56.203125 29.59375 
L 56.203125 25.203125 
L 14.890625 25.203125 
Q 15.484375 15.921875 20.484375 11.0625 
Q 25.484375 6.203125 34.421875 6.203125 
Q 39.59375 6.203125 44.453125 7.46875 
Q 49.3125 8.734375 54.109375 11.28125 
L 54.109375 2.78125 
Q 49.265625 0.734375 44.1875 -0.34375 
Q 39.109375 -1.421875 33.890625 -1.421875 
Q 20.796875 -1.421875 13.15625 6.1875 
Q 5.515625 13.8125 5.515625 26.8125 
Q 5.515625 40.234375 12.765625 48.109375 
Q 20.015625 56 32.328125 56 
Q 43.359375 56 49.78125 48.890625 
Q 56.203125 41.796875 56.203125 29.59375 
z
M 47.21875 32.234375 
Q 47.125 39.59375 43.09375 43.984375 
Q 39.0625 48.390625 32.421875 48.390625 
Q 24.90625 48.390625 20.390625 44.140625 
Q 15.875 39.890625 15.1875 32.171875 
z
" id="DejaVuSans-101"/>
     <path d="M 45.40625 46.390625 
L 45.40625 75.984375 
L 54.390625 75.984375 
L 54.390625 0 
L 45.40625 0 
L 45.40625 8.203125 
Q 42.578125 3.328125 38.25 0.953125 
Q 33.9375 -1.421875 27.875 -1.421875 
Q 17.96875 -1.421875 11.734375 6.484375 
Q 5.515625 14.40625 5.515625 27.296875 
Q 5.515625 40.1875 11.734375 48.09375 
Q 17.96875 56 27.875 56 
Q 33.9375 56 38.25 53.625 
Q 42.578125 51.265625 45.40625 46.390625 
z
M 14.796875 27.296875 
Q 14.796875 17.390625 18.875 11.75 
Q 22.953125 6.109375 30.078125 6.109375 
Q 37.203125 6.109375 41.296875 11.75 
Q 45.40625 17.390625 45.40625 27.296875 
Q 45.40625 37.203125 41.296875 42.84375 
Q 37.203125 48.484375 30.078125 48.484375 
Q 22.953125 48.484375 18.875 42.84375 
Q 14.796875 37.203125 14.796875 27.296875 
z
" id="DejaVuSans-100"/>
     <path d="M 19.671875 64.796875 
L 19.671875 37.40625 
L 32.078125 37.40625 
Q 38.96875 37.40625 42.71875 40.96875 
Q 46.484375 44.53125 46.484375 51.125 
Q 46.484375 57.671875 42.71875 61.234375 
Q 38.96875 64.796875 32.078125 64.796875 
z
M 9.8125 72.90625 
L 32.078125 72.90625 
Q 44.34375 72.90625 50.609375 67.359375 
Q 56.890625 61.8125 56.890625 51.125 
Q 56.890625 40.328125 50.609375 34.8125 
Q 44.34375 29.296875 32.078125 29.296875 
L 19.671875 29.296875 
L 19.671875 0 
L 9.8125 0 
z
" id="DejaVuSans-80"/>
     <path d="M 44.390625 34.1875 
Q 47.5625 33.109375 50.5625 29.59375 
Q 53.5625 26.078125 56.59375 19.921875 
L 66.609375 0 
L 56 0 
L 46.6875 18.703125 
Q 43.0625 26.03125 39.671875 28.421875 
Q 36.28125 30.8125 30.421875 30.8125 
L 19.671875 30.8125 
L 19.671875 0 
L 9.8125 0 
L 9.8125 72.90625 
L 32.078125 72.90625 
Q 44.578125 72.90625 50.734375 67.671875 
Q 56.890625 62.453125 56.890625 51.90625 
Q 56.890625 45.015625 53.6875 40.46875 
Q 50.484375 35.9375 44.390625 34.1875 
z
M 19.671875 64.796875 
L 19.671875 38.921875 
L 32.078125 38.921875 
Q 39.203125 38.921875 42.84375 42.21875 
Q 46.484375 45.515625 46.484375 51.90625 
Q 46.484375 58.296875 42.84375 61.546875 
Q 39.203125 64.796875 32.078125 64.796875 
z
" id="DejaVuSans-82"/>
     <path d="M 2.984375 54.6875 
L 12.5 54.6875 
L 29.59375 8.796875 
L 46.6875 54.6875 
L 56.203125 54.6875 
L 35.6875 0 
L 23.484375 0 
z
" id="DejaVuSans-118"/>
     <path d="M 41.109375 46.296875 
Q 39.59375 47.171875 37.8125 47.578125 
Q 36.03125 48 33.890625 48 
Q 26.265625 48 22.1875 43.046875 
Q 18.109375 38.09375 18.109375 28.8125 
L 18.109375 0 
L 9.078125 0 
L 9.078125 54.6875 
L 18.109375 54.6875 
L 18.109375 46.1875 
Q 20.953125 51.171875 25.484375 53.578125 
Q 30.03125 56 36.53125 56 
Q 37.453125 56 38.578125 55.875 
Q 39.703125 55.765625 41.0625 55.515625 
z
" id="DejaVuSans-114"/>
     <path d="M 18.3125 70.21875 
L 18.3125 54.6875 
L 36.8125 54.6875 
L 36.8125 47.703125 
L 18.3125 47.703125 
L 18.3125 18.015625 
Q 18.3125 11.328125 20.140625 9.421875 
Q 21.96875 7.515625 27.59375 7.515625 
L 36.8125 7.515625 
L 36.8125 0 
L 27.59375 0 
Q 17.1875 0 13.234375 3.875 
Q 9.28125 7.765625 9.28125 18.015625 
L 9.28125 47.703125 
L 2.6875 47.703125 
L 2.6875 54.6875 
L 9.28125 54.6875 
L 9.28125 70.21875 
z
" id="DejaVuSans-116"/>
     <path d="M 9.421875 54.6875 
L 18.40625 54.6875 
L 18.40625 0 
L 9.421875 0 
z
M 9.421875 75.984375 
L 18.40625 75.984375 
L 18.40625 64.59375 
L 9.421875 64.59375 
z
" id="DejaVuSans-105"/>
     <path d="M 52 44.1875 
Q 55.375 50.25 60.0625 53.125 
Q 64.75 56 71.09375 56 
Q 79.640625 56 84.28125 50.015625 
Q 88.921875 44.046875 88.921875 33.015625 
L 88.921875 0 
L 79.890625 0 
L 79.890625 32.71875 
Q 79.890625 40.578125 77.09375 44.375 
Q 74.3125 48.1875 68.609375 48.1875 
Q 61.625 48.1875 57.5625 43.546875 
Q 53.515625 38.921875 53.515625 30.90625 
L 53.515625 0 
L 44.484375 0 
L 44.484375 32.71875 
Q 44.484375 40.625 41.703125 44.40625 
Q 38.921875 48.1875 33.109375 48.1875 
Q 26.21875 48.1875 22.15625 43.53125 
Q 18.109375 38.875 18.109375 30.90625 
L 18.109375 0 
L 9.078125 0 
L 9.078125 54.6875 
L 18.109375 54.6875 
L 18.109375 46.1875 
Q 21.1875 51.21875 25.484375 53.609375 
Q 29.78125 56 35.6875 56 
Q 41.65625 56 45.828125 52.96875 
Q 50 49.953125 52 44.1875 
z
" id="DejaVuSans-109"/>
    </defs>
    <g style="fill:#262626;" transform="translate(305.27625 80.4)scale(0.12 -0.12)">
     <use xlink:href="#DejaVuSans-67"/>
     <use x="69.824219" xlink:href="#DejaVuSans-108"/>
     <use x="97.607422" xlink:href="#DejaVuSans-111"/>
     <use x="158.789062" xlink:href="#DejaVuSans-115"/>
     <use x="210.888672" xlink:href="#DejaVuSans-101"/>
     <use x="272.412109" xlink:href="#DejaVuSans-100"/>
     <use x="335.888672" xlink:href="#DejaVuSans-32"/>
     <use x="367.675781" xlink:href="#DejaVuSans-80"/>
     <use x="427.978516" xlink:href="#DejaVuSans-82"/>
     <use x="497.460938" xlink:href="#DejaVuSans-115"/>
     <use x="549.560547" xlink:href="#DejaVuSans-32"/>
     <use x="581.347656" xlink:href="#DejaVuSans-111"/>
     <use x="642.529297" xlink:href="#DejaVuSans-118"/>
     <use x="701.708984" xlink:href="#DejaVuSans-101"/>
     <use x="763.232422" xlink:href="#DejaVuSans-114"/>
     <use x="804.345703" xlink:href="#DejaVuSans-32"/>
     <use x="836.132812" xlink:href="#DejaVuSans-116"/>
     <use x="875.341797" xlink:href="#DejaVuSans-105"/>
     <use x="903.125" xlink:href="#DejaVuSans-109"/>
     <use x="1000.537109" xlink:href="#DejaVuSans-101"/>
    </g>
   </g>
  </g>
 </g>
 <defs>
  <clipPath id="p55b402bebb">
   <rect height="554.4" width="558" x="90" y="86.4"/>
  </clipPath>
 </defs>
</svg>
