<?xml version="1.0" encoding="utf-8" standalone="no"?>
<!DOCTYPE svg PUBLIC "-//W3C//DTD SVG 1.1//EN"
  "http://www.w3.org/Graphics/SVG/1.1/DTD/svg11.dtd">
<!-- Created with matplotlib (https://matplotlib.org/) -->
<svg height="720pt" version="1.1" viewBox="0 0 720 720" width="720pt" xmlns="http://www.w3.org/2000/svg" xmlns:xlink="http://www.w3.org/1999/xlink">
 <defs>
  <style type="text/css">
*{stroke-linecap:butt;stroke-linejoin:round;}
  </style>
 </defs>
 <g id="figure_1">
  <g id="patch_1">
   <path d="M 0 720 
L 720 720 
L 720 0 
L 0 0 
z
" style="fill:#ffffff;"/>
  </g>
  <g id="axes_1">
   <g id="patch_2">
    <path d="M 90 640.8 
L 648 640.8 
L 648 86.4 
L 90 86.4 
z
" style="fill:#ffffff;"/>
   </g>
   <g id="matplotlib.axis_1">
    <g id="xtick_1">
     <g id="line2d_1">
      <path clip-path="url(#peac608fc50)" d="M 162.182714 640.8 
L 162.182714 86.4 
" style="fill:none;stroke:#cccccc;stroke-linecap:round;stroke-width:0.8;"/>
     </g>
     <g id="line2d_2"/>
     <g id="text_1">
      <!-- 2015 -->
      <defs>
       <path d="M 19.1875 8.296875 
L 53.609375 8.296875 
L 53.609375 0 
L 7.328125 0 
L 7.328125 8.296875 
Q 12.9375 14.109375 22.625 23.890625 
Q 32.328125 33.6875 34.8125 36.53125 
Q 39.546875 41.84375 41.421875 45.53125 
Q 43.3125 49.21875 43.3125 52.78125 
Q 43.3125 58.59375 39.234375 62.25 
Q 35.15625 65.921875 28.609375 65.921875 
Q 23.96875 65.921875 18.8125 64.3125 
Q 13.671875 62.703125 7.8125 59.421875 
L 7.8125 69.390625 
Q 13.765625 71.78125 18.9375 73 
Q 24.125 74.21875 28.421875 74.21875 
Q 39.75 74.21875 46.484375 68.546875 
Q 53.21875 62.890625 53.21875 53.421875 
Q 53.21875 48.921875 51.53125 44.890625 
Q 49.859375 40.875 45.40625 35.40625 
Q 44.1875 33.984375 37.640625 27.21875 
Q 31.109375 20.453125 19.1875 8.296875 
z
" id="DejaVuSans-50"/>
       <path d="M 31.78125 66.40625 
Q 24.171875 66.40625 20.328125 58.90625 
Q 16.5 51.421875 16.5 36.375 
Q 16.5 21.390625 20.328125 13.890625 
Q 24.171875 6.390625 31.78125 6.390625 
Q 39.453125 6.390625 43.28125 13.890625 
Q 47.125 21.390625 47.125 36.375 
Q 47.125 51.421875 43.28125 58.90625 
Q 39.453125 66.40625 31.78125 66.40625 
z
M 31.78125 74.21875 
Q 44.046875 74.21875 50.515625 64.515625 
Q 56.984375 54.828125 56.984375 36.375 
Q 56.984375 17.96875 50.515625 8.265625 
Q 44.046875 -1.421875 31.78125 -1.421875 
Q 19.53125 -1.421875 13.0625 8.265625 
Q 6.59375 17.96875 6.59375 36.375 
Q 6.59375 54.828125 13.0625 64.515625 
Q 19.53125 74.21875 31.78125 74.21875 
z
" id="DejaVuSans-48"/>
       <path d="M 12.40625 8.296875 
L 28.515625 8.296875 
L 28.515625 63.921875 
L 10.984375 60.40625 
L 10.984375 69.390625 
L 28.421875 72.90625 
L 38.28125 72.90625 
L 38.28125 8.296875 
L 54.390625 8.296875 
L 54.390625 0 
L 12.40625 0 
z
" id="DejaVuSans-49"/>
       <path d="M 10.796875 72.90625 
L 49.515625 72.90625 
L 49.515625 64.59375 
L 19.828125 64.59375 
L 19.828125 46.734375 
Q 21.96875 47.46875 24.109375 47.828125 
Q 26.265625 48.1875 28.421875 48.1875 
Q 40.625 48.1875 47.75 41.5 
Q 54.890625 34.8125 54.890625 23.390625 
Q 54.890625 11.625 47.5625 5.09375 
Q 40.234375 -1.421875 26.90625 -1.421875 
Q 22.3125 -1.421875 17.546875 -0.640625 
Q 12.796875 0.140625 7.71875 1.703125 
L 7.71875 11.625 
Q 12.109375 9.234375 16.796875 8.0625 
Q 21.484375 6.890625 26.703125 6.890625 
Q 35.15625 6.890625 40.078125 11.328125 
Q 45.015625 15.765625 45.015625 23.390625 
Q 45.015625 31 40.078125 35.4375 
Q 35.15625 39.890625 26.703125 39.890625 
Q 22.75 39.890625 18.8125 39.015625 
Q 14.890625 38.140625 10.796875 36.28125 
z
" id="DejaVuSans-53"/>
      </defs>
      <g style="fill:#262626;" transform="translate(149.457714 651.898438)scale(0.1 -0.1)">
       <use xlink:href="#DejaVuSans-50"/>
       <use x="63.623047" xlink:href="#DejaVuSans-48"/>
       <use x="127.246094" xlink:href="#DejaVuSans-49"/>
       <use x="190.869141" xlink:href="#DejaVuSans-53"/>
      </g>
     </g>
    </g>
    <g id="xtick_2">
     <g id="line2d_3">
      <path clip-path="url(#peac608fc50)" d="M 245.242499 640.8 
L 245.242499 86.4 
" style="fill:none;stroke:#cccccc;stroke-linecap:round;stroke-width:0.8;"/>
     </g>
     <g id="line2d_4"/>
     <g id="text_2">
      <!-- 2016 -->
      <defs>
       <path d="M 33.015625 40.375 
Q 26.375 40.375 22.484375 35.828125 
Q 18.609375 31.296875 18.609375 23.390625 
Q 18.609375 15.53125 22.484375 10.953125 
Q 26.375 6.390625 33.015625 6.390625 
Q 39.65625 6.390625 43.53125 10.953125 
Q 47.40625 15.53125 47.40625 23.390625 
Q 47.40625 31.296875 43.53125 35.828125 
Q 39.65625 40.375 33.015625 40.375 
z
M 52.59375 71.296875 
L 52.59375 62.3125 
Q 48.875 64.0625 45.09375 64.984375 
Q 41.3125 65.921875 37.59375 65.921875 
Q 27.828125 65.921875 22.671875 59.328125 
Q 17.53125 52.734375 16.796875 39.40625 
Q 19.671875 43.65625 24.015625 45.921875 
Q 28.375 48.1875 33.59375 48.1875 
Q 44.578125 48.1875 50.953125 41.515625 
Q 57.328125 34.859375 57.328125 23.390625 
Q 57.328125 12.15625 50.6875 5.359375 
Q 44.046875 -1.421875 33.015625 -1.421875 
Q 20.359375 -1.421875 13.671875 8.265625 
Q 6.984375 17.96875 6.984375 36.375 
Q 6.984375 53.65625 15.1875 63.9375 
Q 23.390625 74.21875 37.203125 74.21875 
Q 40.921875 74.21875 44.703125 73.484375 
Q 48.484375 72.75 52.59375 71.296875 
z
" id="DejaVuSans-54"/>
      </defs>
      <g style="fill:#262626;" transform="translate(232.517499 651.898438)scale(0.1 -0.1)">
       <use xlink:href="#DejaVuSans-50"/>
       <use x="63.623047" xlink:href="#DejaVuSans-48"/>
       <use x="127.246094" xlink:href="#DejaVuSans-49"/>
       <use x="190.869141" xlink:href="#DejaVuSans-54"/>
      </g>
     </g>
    </g>
    <g id="xtick_3">
     <g id="line2d_5">
      <path clip-path="url(#peac608fc50)" d="M 328.529845 640.8 
L 328.529845 86.4 
" style="fill:none;stroke:#cccccc;stroke-linecap:round;stroke-width:0.8;"/>
     </g>
     <g id="line2d_6"/>
     <g id="text_3">
      <!-- 2017 -->
      <defs>
       <path d="M 8.203125 72.90625 
L 55.078125 72.90625 
L 55.078125 68.703125 
L 28.609375 0 
L 18.3125 0 
L 43.21875 64.59375 
L 8.203125 64.59375 
z
" id="DejaVuSans-55"/>
      </defs>
      <g style="fill:#262626;" transform="translate(315.804845 651.898438)scale(0.1 -0.1)">
       <use xlink:href="#DejaVuSans-50"/>
       <use x="63.623047" xlink:href="#DejaVuSans-48"/>
       <use x="127.246094" xlink:href="#DejaVuSans-49"/>
       <use x="190.869141" xlink:href="#DejaVuSans-55"/>
      </g>
     </g>
    </g>
    <g id="xtick_4">
     <g id="line2d_7">
      <path clip-path="url(#peac608fc50)" d="M 411.589631 640.8 
L 411.589631 86.4 
" style="fill:none;stroke:#cccccc;stroke-linecap:round;stroke-width:0.8;"/>
     </g>
     <g id="line2d_8"/>
     <g id="text_4">
      <!-- 2018 -->
      <defs>
       <path d="M 31.78125 34.625 
Q 24.75 34.625 20.71875 30.859375 
Q 16.703125 27.09375 16.703125 20.515625 
Q 16.703125 13.921875 20.71875 10.15625 
Q 24.75 6.390625 31.78125 6.390625 
Q 38.8125 6.390625 42.859375 10.171875 
Q 46.921875 13.96875 46.921875 20.515625 
Q 46.921875 27.09375 42.890625 30.859375 
Q 38.875 34.625 31.78125 34.625 
z
M 21.921875 38.8125 
Q 15.578125 40.375 12.03125 44.71875 
Q 8.5 49.078125 8.5 55.328125 
Q 8.5 64.0625 14.71875 69.140625 
Q 20.953125 74.21875 31.78125 74.21875 
Q 42.671875 74.21875 48.875 69.140625 
Q 55.078125 64.0625 55.078125 55.328125 
Q 55.078125 49.078125 51.53125 44.71875 
Q 48 40.375 41.703125 38.8125 
Q 48.828125 37.15625 52.796875 32.3125 
Q 56.78125 27.484375 56.78125 20.515625 
Q 56.78125 9.90625 50.3125 4.234375 
Q 43.84375 -1.421875 31.78125 -1.421875 
Q 19.734375 -1.421875 13.25 4.234375 
Q 6.78125 9.90625 6.78125 20.515625 
Q 6.78125 27.484375 10.78125 32.3125 
Q 14.796875 37.15625 21.921875 38.8125 
z
M 18.3125 54.390625 
Q 18.3125 48.734375 21.84375 45.5625 
Q 25.390625 42.390625 31.78125 42.390625 
Q 38.140625 42.390625 41.71875 45.5625 
Q 45.3125 48.734375 45.3125 54.390625 
Q 45.3125 60.0625 41.71875 63.234375 
Q 38.140625 66.40625 31.78125 66.40625 
Q 25.390625 66.40625 21.84375 63.234375 
Q 18.3125 60.0625 18.3125 54.390625 
z
" id="DejaVuSans-56"/>
      </defs>
      <g style="fill:#262626;" transform="translate(398.864631 651.898438)scale(0.1 -0.1)">
       <use xlink:href="#DejaVuSans-50"/>
       <use x="63.623047" xlink:href="#DejaVuSans-48"/>
       <use x="127.246094" xlink:href="#DejaVuSans-49"/>
       <use x="190.869141" xlink:href="#DejaVuSans-56"/>
      </g>
     </g>
    </g>
    <g id="xtick_5">
     <g id="line2d_9">
      <path clip-path="url(#peac608fc50)" d="M 494.649416 640.8 
L 494.649416 86.4 
" style="fill:none;stroke:#cccccc;stroke-linecap:round;stroke-width:0.8;"/>
     </g>
     <g id="line2d_10"/>
     <g id="text_5">
      <!-- 2019 -->
      <defs>
       <path d="M 10.984375 1.515625 
L 10.984375 10.5 
Q 14.703125 8.734375 18.5 7.8125 
Q 22.3125 6.890625 25.984375 6.890625 
Q 35.75 6.890625 40.890625 13.453125 
Q 46.046875 20.015625 46.78125 33.40625 
Q 43.953125 29.203125 39.59375 26.953125 
Q 35.25 24.703125 29.984375 24.703125 
Q 19.046875 24.703125 12.671875 31.3125 
Q 6.296875 37.9375 6.296875 49.421875 
Q 6.296875 60.640625 12.9375 67.421875 
Q 19.578125 74.21875 30.609375 74.21875 
Q 43.265625 74.21875 49.921875 64.515625 
Q 56.59375 54.828125 56.59375 36.375 
Q 56.59375 19.140625 48.40625 8.859375 
Q 40.234375 -1.421875 26.421875 -1.421875 
Q 22.703125 -1.421875 18.890625 -0.6875 
Q 15.09375 0.046875 10.984375 1.515625 
z
M 30.609375 32.421875 
Q 37.25 32.421875 41.125 36.953125 
Q 45.015625 41.5 45.015625 49.421875 
Q 45.015625 57.28125 41.125 61.84375 
Q 37.25 66.40625 30.609375 66.40625 
Q 23.96875 66.40625 20.09375 61.84375 
Q 16.21875 57.28125 16.21875 49.421875 
Q 16.21875 41.5 20.09375 36.953125 
Q 23.96875 32.421875 30.609375 32.421875 
z
" id="DejaVuSans-57"/>
      </defs>
      <g style="fill:#262626;" transform="translate(481.924416 651.898438)scale(0.1 -0.1)">
       <use xlink:href="#DejaVuSans-50"/>
       <use x="63.623047" xlink:href="#DejaVuSans-48"/>
       <use x="127.246094" xlink:href="#DejaVuSans-49"/>
       <use x="190.869141" xlink:href="#DejaVuSans-57"/>
      </g>
     </g>
    </g>
    <g id="xtick_6">
     <g id="line2d_11">
      <path clip-path="url(#peac608fc50)" d="M 577.709201 640.8 
L 577.709201 86.4 
" style="fill:none;stroke:#cccccc;stroke-linecap:round;stroke-width:0.8;"/>
     </g>
     <g id="line2d_12"/>
     <g id="text_6">
      <!-- 2020 -->
      <g style="fill:#262626;" transform="translate(564.984201 651.898438)scale(0.1 -0.1)">
       <use xlink:href="#DejaVuSans-50"/>
       <use x="63.623047" xlink:href="#DejaVuSans-48"/>
       <use x="127.246094" xlink:href="#DejaVuSans-50"/>
       <use x="190.869141" xlink:href="#DejaVuSans-48"/>
      </g>
     </g>
    </g>
   </g>
   <g id="matplotlib.axis_2">
    <g id="ytick_1">
     <g id="line2d_13">
      <path clip-path="url(#peac608fc50)" d="M 90 615.615211 
L 648 615.615211 
" style="fill:none;stroke:#cccccc;stroke-linecap:round;stroke-width:0.8;"/>
     </g>
     <g id="line2d_14"/>
     <g id="text_7">
      <!-- 0 -->
      <g style="fill:#262626;" transform="translate(80.1375 619.41443)scale(0.1 -0.1)">
       <use xlink:href="#DejaVuSans-48"/>
      </g>
     </g>
    </g>
    <g id="ytick_2">
     <g id="line2d_15">
      <path clip-path="url(#peac608fc50)" d="M 90 539.560403 
L 648 539.560403 
" style="fill:none;stroke:#cccccc;stroke-linecap:round;stroke-width:0.8;"/>
     </g>
     <g id="line2d_16"/>
     <g id="text_8">
      <!-- 5000 -->
      <g style="fill:#262626;" transform="translate(61.05 543.359622)scale(0.1 -0.1)">
       <use xlink:href="#DejaVuSans-53"/>
       <use x="63.623047" xlink:href="#DejaVuSans-48"/>
       <use x="127.246094" xlink:href="#DejaVuSans-48"/>
       <use x="190.869141" xlink:href="#DejaVuSans-48"/>
      </g>
     </g>
    </g>
    <g id="ytick_3">
     <g id="line2d_17">
      <path clip-path="url(#peac608fc50)" d="M 90 463.505595 
L 648 463.505595 
" style="fill:none;stroke:#cccccc;stroke-linecap:round;stroke-width:0.8;"/>
     </g>
     <g id="line2d_18"/>
     <g id="text_9">
      <!-- 10000 -->
      <g style="fill:#262626;" transform="translate(54.6875 467.304814)scale(0.1 -0.1)">
       <use xlink:href="#DejaVuSans-49"/>
       <use x="63.623047" xlink:href="#DejaVuSans-48"/>
       <use x="127.246094" xlink:href="#DejaVuSans-48"/>
       <use x="190.869141" xlink:href="#DejaVuSans-48"/>
       <use x="254.492188" xlink:href="#DejaVuSans-48"/>
      </g>
     </g>
    </g>
    <g id="ytick_4">
     <g id="line2d_19">
      <path clip-path="url(#peac608fc50)" d="M 90 387.450788 
L 648 387.450788 
" style="fill:none;stroke:#cccccc;stroke-linecap:round;stroke-width:0.8;"/>
     </g>
     <g id="line2d_20"/>
     <g id="text_10">
      <!-- 15000 -->
      <g style="fill:#262626;" transform="translate(54.6875 391.250006)scale(0.1 -0.1)">
       <use xlink:href="#DejaVuSans-49"/>
       <use x="63.623047" xlink:href="#DejaVuSans-53"/>
       <use x="127.246094" xlink:href="#DejaVuSans-48"/>
       <use x="190.869141" xlink:href="#DejaVuSans-48"/>
       <use x="254.492188" xlink:href="#DejaVuSans-48"/>
      </g>
     </g>
    </g>
    <g id="ytick_5">
     <g id="line2d_21">
      <path clip-path="url(#peac608fc50)" d="M 90 311.39598 
L 648 311.39598 
" style="fill:none;stroke:#cccccc;stroke-linecap:round;stroke-width:0.8;"/>
     </g>
     <g id="line2d_22"/>
     <g id="text_11">
      <!-- 20000 -->
      <g style="fill:#262626;" transform="translate(54.6875 315.195199)scale(0.1 -0.1)">
       <use xlink:href="#DejaVuSans-50"/>
       <use x="63.623047" xlink:href="#DejaVuSans-48"/>
       <use x="127.246094" xlink:href="#DejaVuSans-48"/>
       <use x="190.869141" xlink:href="#DejaVuSans-48"/>
       <use x="254.492188" xlink:href="#DejaVuSans-48"/>
      </g>
     </g>
    </g>
    <g id="ytick_6">
     <g id="line2d_23">
      <path clip-path="url(#peac608fc50)" d="M 90 235.341172 
L 648 235.341172 
" style="fill:none;stroke:#cccccc;stroke-linecap:round;stroke-width:0.8;"/>
     </g>
     <g id="line2d_24"/>
     <g id="text_12">
      <!-- 25000 -->
      <g style="fill:#262626;" transform="translate(54.6875 239.140391)scale(0.1 -0.1)">
       <use xlink:href="#DejaVuSans-50"/>
       <use x="63.623047" xlink:href="#DejaVuSans-53"/>
       <use x="127.246094" xlink:href="#DejaVuSans-48"/>
       <use x="190.869141" xlink:href="#DejaVuSans-48"/>
       <use x="254.492188" xlink:href="#DejaVuSans-48"/>
      </g>
     </g>
    </g>
    <g id="ytick_7">
     <g id="line2d_25">
      <path clip-path="url(#peac608fc50)" d="M 90 159.286364 
L 648 159.286364 
" style="fill:none;stroke:#cccccc;stroke-linecap:round;stroke-width:0.8;"/>
     </g>
     <g id="line2d_26"/>
     <g id="text_13">
      <!-- 30000 -->
      <defs>
       <path d="M 40.578125 39.3125 
Q 47.65625 37.796875 51.625 33 
Q 55.609375 28.21875 55.609375 21.1875 
Q 55.609375 10.40625 48.1875 4.484375 
Q 40.765625 -1.421875 27.09375 -1.421875 
Q 22.515625 -1.421875 17.65625 -0.515625 
Q 12.796875 0.390625 7.625 2.203125 
L 7.625 11.71875 
Q 11.71875 9.328125 16.59375 8.109375 
Q 21.484375 6.890625 26.8125 6.890625 
Q 36.078125 6.890625 40.9375 10.546875 
Q 45.796875 14.203125 45.796875 21.1875 
Q 45.796875 27.640625 41.28125 31.265625 
Q 36.765625 34.90625 28.71875 34.90625 
L 20.21875 34.90625 
L 20.21875 43.015625 
L 29.109375 43.015625 
Q 36.375 43.015625 40.234375 45.921875 
Q 44.09375 48.828125 44.09375 54.296875 
Q 44.09375 59.90625 40.109375 62.90625 
Q 36.140625 65.921875 28.71875 65.921875 
Q 24.65625 65.921875 20.015625 65.03125 
Q 15.375 64.15625 9.8125 62.3125 
L 9.8125 71.09375 
Q 15.4375 72.65625 20.34375 73.4375 
Q 25.25 74.21875 29.59375 74.21875 
Q 40.828125 74.21875 47.359375 69.109375 
Q 53.90625 64.015625 53.90625 55.328125 
Q 53.90625 49.265625 50.4375 45.09375 
Q 46.96875 40.921875 40.578125 39.3125 
z
" id="DejaVuSans-51"/>
      </defs>
      <g style="fill:#262626;" transform="translate(54.6875 163.085583)scale(0.1 -0.1)">
       <use xlink:href="#DejaVuSans-51"/>
       <use x="63.623047" xlink:href="#DejaVuSans-48"/>
       <use x="127.246094" xlink:href="#DejaVuSans-48"/>
       <use x="190.869141" xlink:href="#DejaVuSans-48"/>
       <use x="254.492188" xlink:href="#DejaVuSans-48"/>
      </g>
     </g>
    </g>
   </g>
   <g id="line2d_27">
    <path clip-path="url(#peac608fc50)" d="M 115.363636 615.6 
L 116.945926 615.463101 
L 116.951673 615.432679 
L 118.891149 615.265359 
L 120.484432 615.113249 
L 120.588604 615.006772 
L 122.745161 614.869874 
L 123.896625 614.687342 
L 125.765834 614.520022 
L 125.793689 614.383123 
L 126.673439 614.246224 
L 126.716225 614.185381 
L 129.150441 613.774685 
L 129.160632 613.759474 
L 130.494039 613.622575 
L 131.559273 613.440043 
L 132.313132 613.272723 
L 133.00404 613.151035 
L 133.09498 613.059769 
L 135.298835 612.633862 
L 135.551605 612.58823 
L 136.400995 612.466542 
L 136.468415 612.375276 
L 139.471918 611.979791 
L 141.443537 611.553884 
L 141.446995 611.538673 
L 142.61447 611.340931 
L 142.888853 611.143188 
L 143.443006 610.991079 
L 143.517566 610.884602 
L 144.603051 610.747703 
L 144.667601 610.717281 
L 145.881202 610.489117 
L 146.703232 610.306585 
L 147.84514 610.169687 
L 148.236548 610.032788 
L 148.242716 610.002366 
L 149.12594 609.850257 
L 149.63361 609.606881 
L 149.685988 609.546037 
L 151.270011 609.302662 
L 152.161147 609.104919 
L 152.224885 609.013654 
L 155.604509 608.283527 
L 155.604759 608.268317 
L 155.815719 608.131418 
L 155.993177 608.055363 
L 157.1703 607.811988 
L 157.342604 607.644667 
L 157.597077 607.522979 
L 157.638752 607.477347 
L 158.533188 607.294815 
L 158.545285 607.173127 
L 158.772614 607.05144 
L 158.781224 606.74722 
L 159.010189 606.625533 
L 159.055127 606.5799 
L 159.433505 606.412579 
L 159.495618 606.275681 
L 163.504162 605.667242 
L 163.554968 605.545554 
L 164.229884 605.363023 
L 164.249893 605.302179 
L 164.9736 605.180491 
L 165.313643 605.043593 
L 165.61808 604.739373 
L 166.681549 604.52642 
L 166.779221 604.37431 
L 167.183418 604.20699 
L 167.383959 604.146146 
L 167.492098 604.085302 
L 168.10006 603.963614 
L 168.154885 603.841927 
L 168.335046 603.446442 
L 168.545403 603.324754 
L 168.867228 603.081379 
L 169.884879 602.746737 
L 169.998357 602.548995 
L 170.117776 602.427307 
L 170.668948 601.849291 
L 171.348671 601.68197 
L 171.69587 601.499439 
L 171.909258 601.240852 
L 172.284444 600.967055 
L 173.111013 600.845367 
L 173.136242 600.799734 
L 173.323 600.662836 
L 173.929471 600.25214 
L 174.675998 600.115241 
L 174.910984 600.039186 
L 175.134976 599.917499 
L 175.235008 599.826233 
L 175.428595 599.643701 
L 175.582178 599.445959 
L 176.029288 599.324271 
L 176.132299 599.14174 
L 176.486314 598.83752 
L 176.579854 598.700622 
L 176.885834 598.548512 
L 176.93791 598.457246 
L 177.590146 598.335559 
L 177.882136 597.818386 
L 177.992371 597.711909 
L 178.092024 597.422901 
L 178.171138 597.301213 
L 178.29759 597.164315 
L 178.410393 597.042627 
L 178.555129 596.905728 
L 178.570315 596.829673 
L 179.184056 596.692775 
L 179.251755 596.434188 
L 179.446381 596.29729 
L 179.49061 596.190813 
L 179.664357 596.069125 
L 179.976822 595.597586 
L 180.145035 595.460687 
L 180.360618 595.399843 
L 180.787927 595.262944 
L 180.836824 595.065202 
L 181.816666 593.817903 
L 182.373735 593.681004 
L 182.50453 593.513684 
L 182.655545 593.361574 
L 182.791057 593.118199 
L 183.11875 592.829191 
L 183.30274 592.677081 
L 183.509502 592.585815 
L 184.223699 592.464127 
L 184.428785 592.099064 
L 184.677662 591.855689 
L 184.745111 591.703579 
L 184.894048 591.581892 
L 184.946078 591.505837 
L 185.594754 591.368938 
L 186.084798 591.095141 
L 186.301702 590.897398 
L 186.358432 590.821344 
L 186.487728 590.684445 
L 186.551877 590.517124 
L 187.168839 590.349804 
L 187.466267 589.999952 
L 187.828771 589.863053 
L 187.898691 589.604467 
L 188.124382 589.437146 
L 188.136445 589.421935 
L 188.729218 589.300247 
L 189.729385 588.205058 
L 190.318755 588.037738 
L 190.885269 587.368455 
L 191.031672 587.185924 
L 191.150207 586.957759 
L 191.308891 586.820861 
L 191.312194 586.80565 
L 191.957485 586.638329 
L 192.036502 586.425376 
L 192.352812 586.273266 
L 192.515096 586.105946 
L 192.65172 585.984258 
L 193.42494 585.710461 
L 193.526308 585.588773 
L 193.624917 585.421452 
L 193.784055 585.299765 
L 193.813034 585.178077 
L 194.196077 585.041178 
L 194.319192 584.843436 
L 194.538322 584.584849 
L 195.24723 584.447951 
L 195.606626 584.265419 
L 195.666027 584.128521 
L 195.834422 583.991622 
L 195.92301 583.793879 
L 196.705583 583.565715 
L 196.808699 583.307129 
L 196.991493 583.17023 
L 197.069562 583.063753 
L 197.181768 582.942066 
L 197.277459 582.744323 
L 197.407698 582.561792 
L 198.044993 582.090252 
L 198.300791 581.953353 
L 198.34968 581.816454 
L 198.534271 581.679556 
L 198.787393 581.405758 
L 198.894375 581.284071 
L 199.15108 581.131961 
L 199.254744 580.995062 
L 199.320128 580.812531 
L 199.906021 580.675632 
L 199.985333 580.523523 
L 200.154387 580.401835 
L 200.28417 580.204092 
L 200.635605 579.747764 
L 200.725323 579.68692 
L 200.86581 579.53481 
L 200.938345 579.413122 
L 201.72258 579.200169 
L 201.790514 579.06327 
L 201.940372 578.941583 
L 202.015354 578.682996 
L 202.176177 578.515676 
L 202.254528 578.348355 
L 202.406188 578.181035 
L 202.504861 577.983292 
L 203.115227 577.815972 
L 203.215947 577.648651 
L 203.358201 577.526963 
L 203.470894 577.298799 
L 203.64137 577.101056 
L 203.725159 577.040212 
L 204.321459 576.872892 
L 204.688496 576.751204 
L 204.746953 576.507829 
L 204.956265 576.37093 
L 205.246755 575.868968 
L 205.356079 575.397429 
L 205.645488 575.001944 
L 205.668112 574.910678 
L 206.252978 574.743357 
L 206.421945 574.439138 
L 206.4995 574.31745 
L 206.611366 574.104497 
L 206.75549 573.921965 
L 206.843739 573.815489 
L 207.06623 573.663379 
L 207.17375 573.480847 
L 207.302601 573.404793 
L 207.891436 573.283105 
L 208.133162 573.161417 
L 208.537246 572.978886 
L 208.767375 572.644245 
L 208.884983 572.461713 
L 209.436584 572.324814 
L 209.727675 572.081439 
L 209.967373 571.959751 
L 210.038912 571.868486 
L 210.18365 571.731587 
L 210.275267 571.503422 
L 210.405385 571.366524 
L 210.470285 571.320891 
L 211.0315 571.199203 
L 211.732669 570.727663 
L 212.001471 570.590765 
L 212.071812 570.529921 
L 212.598624 570.3626 
L 213.316623 569.708529 
L 213.446191 569.602052 
L 214.161231 569.191356 
L 214.616563 568.674184 
L 214.669698 568.506863 
L 214.782317 568.29391 
L 215.047265 568.020112 
L 215.189282 567.807159 
L 215.815323 567.639838 
L 215.929254 567.472518 
L 216.087106 567.320408 
L 216.166739 566.027476 
L 216.314324 565.905789 
L 216.424323 565.053975 
L 216.520659 564.917076 
L 216.605897 564.65849 
L 217.359375 564.445536 
L 217.970758 563.791465 
L 218.28499 563.639355 
L 218.373246 563.456824 
L 219.085523 563.319925 
L 219.416374 563.183026 
L 219.519279 563.030917 
L 219.984228 562.802752 
L 220.035203 562.711487 
L 220.657638 562.559377 
L 221.445615 561.509821 
L 222.312444 561.099125 
L 222.454214 561.007859 
L 223.14946 560.353788 
L 223.242866 560.292944 
L 223.794006 560.125623 
L 223.903888 559.988725 
L 224.152083 559.654083 
L 224.267841 559.486763 
L 224.3779 559.076067 
L 224.552298 558.984801 
L 224.693725 558.847902 
L 224.787263 558.619738 
L 225.394411 558.49805 
L 226.119922 557.433283 
L 226.21377 557.265962 
L 226.295263 557.129064 
L 226.513629 556.931321 
L 226.528721 556.900899 
L 227.015388 556.779212 
L 227.165502 556.627102 
L 227.403922 556.414149 
L 227.744892 555.927398 
L 227.936273 555.607968 
L 227.985256 555.516702 
L 228.539315 555.349381 
L 228.799975 554.999529 
L 228.991564 554.497567 
L 229.475028 554.147715 
L 229.633768 553.934762 
L 230.153879 553.737019 
L 231.192419 552.276767 
L 231.866447 552.079025 
L 231.934837 551.942126 
L 232.24453 551.759594 
L 232.515955 551.53143 
L 233.401347 550.968624 
L 233.493303 550.877359 
L 234.341269 550.238498 
L 234.952747 550.116811 
L 235.058531 550.071178 
L 235.279558 549.843013 
L 235.530154 549.706115 
L 235.75466 549.508372 
L 235.911111 549.295419 
L 236.29817 549.15852 
L 236.445642 549.021621 
L 236.552646 548.793457 
L 237.601526 548.108964 
L 238.052539 547.987276 
L 238.281796 547.607002 
L 238.650593 547.150673 
L 238.72303 546.952931 
L 238.850449 546.831243 
L 238.921846 546.679133 
L 239.104464 546.511813 
L 239.189628 546.420547 
L 240.167332 545.933796 
L 240.472058 545.599155 
L 241.242632 545.340569 
L 241.354063 545.20367 
L 241.495185 544.899451 
L 241.689931 544.701708 
L 241.829884 544.56481 
L 241.96817 544.367067 
L 242.337769 544.169325 
L 242.91328 544.002004 
L 243.211467 543.804261 
L 243.854761 543.606519 
L 244.766357 543.46962 
L 245.113996 543.287089 
L 246.08127 543.15019 
L 246.202644 543.013291 
L 247.736966 542.176689 
L 247.792447 542.03979 
L 247.976988 541.902891 
L 248.064496 541.826836 
L 248.637107 541.553039 
L 248.733876 541.431351 
L 249.744803 541.066288 
L 249.853521 540.944601 
L 249.98165 540.792491 
L 250.119185 540.397006 
L 250.224822 540.275318 
L 250.410993 540.031943 
L 250.882582 539.849411 
L 250.946351 539.606036 
L 251.105926 539.469137 
L 251.185288 539.256184 
L 251.45853 539.104074 
L 251.577451 538.967176 
L 251.853701 538.495636 
L 251.953072 538.389159 
L 252.044652 538.267471 
L 252.146749 538.206628 
L 252.706368 537.689455 
L 252.816158 537.461291 
L 252.977842 537.324392 
L 253.083684 537.004962 
L 253.16041 536.868063 
L 253.269821 536.670321 
L 253.483096 536.274836 
L 254.05798 536.092304 
L 254.288483 535.590342 
L 254.508422 535.3926 
L 254.619832 535.118802 
L 254.645757 534.981904 
L 254.755829 534.814583 
L 255.09322 533.765027 
L 255.563749 533.552073 
L 255.680303 533.415175 
L 255.897606 533.232643 
L 256.007667 533.050112 
L 256.161558 532.882791 
L 256.269571 532.791525 
L 256.401875 532.654627 
L 256.523583 532.335196 
L 256.648426 532.015766 
L 256.849238 531.848446 
L 257.269146 531.468172 
L 257.561567 530.890155 
L 257.61275 530.570725 
L 257.737935 530.433826 
L 257.844246 530.144818 
L 257.961287 530.007919 
L 258.009918 529.871021 
L 258.159373 529.749333 
L 258.354712 529.23216 
L 258.535963 529.171316 
L 258.857875 529.034418 
L 258.917328 528.775831 
L 259.013954 528.562878 
L 259.083084 528.395557 
L 259.285898 528.060916 
L 259.572298 527.467689 
L 259.665206 527.224313 
L 259.749954 527.056993 
L 259.862041 526.85925 
L 260.322707 526.585453 
L 260.436888 526.509398 
L 260.616624 526.326867 
L 260.877018 526.129124 
L 260.979102 525.916171 
L 261.17718 525.535897 
L 261.275624 525.414209 
L 261.364663 525.216466 
L 261.464005 525.033935 
L 261.682187 524.95788 
L 262.026418 524.805771 
L 262.168772 524.562395 
L 262.321233 524.334231 
L 262.444877 524.212543 
L 262.642099 524.014801 
L 262.754015 523.771425 
L 262.800792 523.345518 
L 262.981105 523.20862 
L 263.245384 523.026088 
L 263.679794 522.858767 
L 263.795094 522.797924 
L 264.31127 522.448071 
L 264.348718 522.341595 
L 265.197852 522.128641 
L 265.289143 521.991743 
L 265.665651 521.824422 
L 265.767882 521.657101 
L 266.114246 521.489781 
L 267.144242 520.957397 
L 267.269727 520.790077 
L 267.586443 520.470646 
L 267.736169 520.348959 
L 267.812028 520.196849 
L 268.564868 520.014318 
L 268.883699 519.755731 
L 268.970754 519.618833 
L 269.194238 519.375457 
L 269.474533 519.162504 
L 269.88532 518.979972 
L 270.012035 518.751808 
L 270.318637 518.341112 
L 270.416654 518.128158 
L 271.103027 517.610986 
L 271.617713 517.428454 
L 271.671756 517.36761 
L 271.899136 517.230712 
L 272.601973 516.485375 
L 273.207509 516.302843 
L 273.466626 516.059468 
L 273.835032 515.907358 
L 274.136761 515.329341 
L 274.243652 515.222865 
L 274.665914 515.085966 
L 274.776087 514.933856 
L 274.986352 514.736114 
L 275.439066 514.431895 
L 275.587969 514.188519 
L 275.699908 514.066832 
L 275.73991 513.960355 
L 276.083541 513.823456 
L 276.167191 513.686558 
L 276.28655 513.519237 
L 276.396545 513.230229 
L 276.643489 512.560946 
L 276.723675 511.846031 
L 276.865771 511.678711 
L 277.008073 511.374491 
L 277.325584 511.009428 
L 277.377091 510.948585 
L 277.935285 510.705209 
L 278.188457 510.279302 
L 278.301437 510.020716 
L 278.414043 509.61002 
L 278.475576 509.397066 
L 278.57923 509.168902 
L 278.6993 509.016792 
L 278.882731 508.423565 
L 279.100716 508.134557 
L 279.318055 507.997658 
L 279.412849 507.860759 
L 279.695804 507.663017 
L 279.85437 507.40443 
L 279.987996 507.252321 
L 280.630024 505.746436 
L 281.013556 505.50306 
L 281.138183 505.33574 
L 281.238692 504.818567 
L 281.389701 504.681668 
L 281.505283 504.24055 
L 281.611757 504.103652 
L 281.744478 503.738589 
L 281.819889 503.60169 
L 281.928528 503.267049 
L 282.604255 502.6434 
L 282.734769 502.460868 
L 283.779787 500.316122 
L 284.137301 500.148802 
L 284.233888 500.011903 
L 284.369784 499.783739 
L 284.487073 499.540363 
L 284.574218 499.403465 
L 284.753185 498.977558 
L 284.848474 498.779815 
L 284.955907 498.627706 
L 285.088379 498.277854 
L 285.223496 498.156166 
L 285.318822 497.973634 
L 285.422852 497.91279 
L 286.148427 497.410829 
L 286.199736 497.137031 
L 286.351219 496.924078 
L 286.423902 496.711125 
L 286.567848 496.559015 
L 286.631512 496.391694 
L 286.730583 496.072264 
L 286.857456 495.950576 
L 286.974165 495.783256 
L 287.647369 495.600724 
L 288.476034 494.657645 
L 288.524238 494.58159 
L 289.100207 494.444691 
L 289.196789 494.246949 
L 289.382119 494.049206 
L 289.734828 493.63851 
L 289.818905 493.532034 
L 289.999363 493.379924 
L 290.123089 493.15176 
L 290.607357 492.984439 
L 290.761964 492.725853 
L 291.192557 492.041359 
L 291.439377 491.858828 
L 291.595733 491.691507 
L 292.290479 491.387288 
L 293.273448 490.62674 
L 293.889888 490.489841 
L 294.110717 490.292099 
L 294.238546 490.079145 
L 294.455074 489.729293 
L 294.565676 489.501129 
L 294.867331 489.060011 
L 295.602922 488.786214 
L 295.712942 488.664526 
L 295.955558 488.466783 
L 296.513359 487.356383 
L 297.048867 487.173852 
L 297.739994 486.124295 
L 297.869496 485.820076 
L 297.969057 485.683177 
L 298.051284 485.348536 
L 298.456996 485.181216 
L 298.636003 485.044317 
L 298.674306 484.892207 
L 298.964634 484.344613 
L 299.115193 484.177292 
L 299.23216 483.918706 
L 299.64782 483.173369 
L 299.897429 483.006048 
L 300.24596 482.853939 
L 300.512304 481.941281 
L 300.619553 481.682695 
L 300.729125 481.530585 
L 301.034041 480.800459 
L 301.110561 480.648349 
L 301.240073 480.283286 
L 301.307588 480.237653 
L 301.790721 480.100755 
L 301.898059 479.979067 
L 302.083005 479.750902 
L 302.212717 479.248941 
L 302.328502 479.112042 
L 302.917978 477.895165 
L 303.246356 477.682212 
L 303.357847 477.49968 
L 303.523443 477.165039 
L 303.694685 477.012929 
L 303.83744 476.891242 
L 303.912822 476.739132 
L 304.063474 476.54139 
L 305.550714 474.563965 
L 305.645668 474.457488 
L 305.740293 474.259745 
L 305.909426 473.970737 
L 306.001604 473.772995 
L 306.081969 473.712151 
L 306.606929 473.54483 
L 306.846248 473.2254 
L 307.000721 473.07329 
L 307.137057 472.799493 
L 307.314376 472.58654 
L 307.781929 472.145422 
L 308.283528 471.993312 
L 308.479291 471.658671 
L 308.698316 470.806857 
L 308.776816 470.609115 
L 308.887813 470.517849 
L 309.280113 469.818145 
L 309.801652 469.544347 
L 309.907139 469.377027 
L 310.304599 468.510002 
L 310.413989 467.551711 
L 310.534017 467.308336 
L 311.079552 466.395678 
L 311.455492 466.197936 
L 311.560222 466.015404 
L 311.76676 465.772029 
L 311.874407 465.559075 
L 312.094483 465.330911 
L 312.350842 465.133168 
L 312.430504 465.026692 
L 312.99066 464.828949 
L 313.074557 464.661629 
L 313.249097 464.509519 
L 313.392542 464.2053 
L 313.80743 463.855448 
L 313.909506 463.688127 
L 315.016003 462.62336 
L 315.11304 462.379984 
L 315.302114 462.212664 
L 315.444118 462.060554 
L 315.974949 461.695491 
L 316.063901 461.467327 
L 316.198285 461.315217 
L 316.276457 461.117474 
L 316.418985 460.965365 
L 316.516658 460.691568 
L 316.688974 460.402559 
L 316.814386 460.220028 
L 316.947717 459.885387 
L 317.038304 459.77891 
L 317.139898 459.642011 
L 317.817577 459.322581 
L 317.949036 459.200893 
L 317.983223 459.018362 
L 318.08512 458.425134 
L 318.239476 458.136126 
L 318.396051 457.497266 
L 318.424604 457.329945 
L 318.526082 455.763216 
L 318.675401 455.398153 
L 318.745839 455.154778 
L 318.93451 455.002668 
L 318.998474 454.972246 
L 319.335697 454.835347 
L 319.445766 454.576761 
L 319.590528 454.302964 
L 319.866986 452.994821 
L 320.350993 452.797079 
L 320.980349 452.644969 
L 321.049985 452.538492 
L 321.174416 452.401594 
L 321.258019 452.143007 
L 321.435895 451.838788 
L 321.688138 451.336826 
L 321.800623 449.694042 
L 321.94456 449.511511 
L 322.159429 449.161659 
L 322.544463 449.02476 
L 322.596986 448.857439 
L 322.707256 448.644486 
L 322.823955 448.507587 
L 322.924377 448.142524 
L 323.039403 447.944782 
L 323.157179 447.351554 
L 323.396392 447.092968 
L 323.464241 446.940858 
L 323.807703 446.362842 
L 324.08748 446.210732 
L 324.189811 446.043412 
L 325.144182 445.039488 
L 325.802805 444.811324 
L 325.886624 444.735269 
L 326.118067 444.59837 
L 326.307006 444.446261 
L 326.447651 444.263729 
L 326.538765 443.913877 
L 327.577057 443.609658 
L 327.753343 443.518392 
L 328.033341 443.275017 
L 328.094835 443.183751 
L 329.209771 442.788266 
L 329.319456 442.651367 
L 329.641618 442.179827 
L 329.89557 442.05814 
L 329.916248 441.997296 
L 330.453895 441.845186 
L 330.571266 441.647444 
L 330.662319 441.556178 
L 330.841529 441.419279 
L 331.297757 440.780419 
L 331.735786 440.445778 
L 332.099815 440.32409 
L 332.201585 440.17198 
L 332.385446 440.00466 
L 332.515282 439.806917 
L 332.583371 439.609175 
L 332.745359 439.502698 
L 333.012335 439.289745 
L 333.17404 439.168057 
L 333.941426 438.970314 
L 334.192449 438.681306 
L 334.203896 438.194555 
L 334.252142 438.057657 
L 334.404189 437.935969 
L 334.517206 437.79907 
L 335.205049 437.510062 
L 335.313203 437.084155 
L 335.779058 436.764725 
L 335.940877 436.719092 
L 336.152653 436.52135 
L 336.194971 436.414873 
L 336.996578 436.141076 
L 337.322233 435.745591 
L 337.792278 435.395739 
L 337.957181 435.076308 
L 338.135627 434.954621 
L 338.136088 434.93941 
L 338.577272 434.802511 
L 338.686087 434.665612 
L 338.9964 434.285338 
L 339.092832 434.102807 
L 339.695268 433.798588 
L 339.765454 433.707322 
L 340.16245 433.555212 
L 340.730221 433.20536 
L 341.042401 432.855508 
L 341.303335 432.718609 
L 341.471843 432.642554 
L 341.752868 432.277491 
L 341.86181 431.912428 
L 342.003433 431.638631 
L 342.222721 430.999771 
L 342.362281 430.802028 
L 342.619849 430.102324 
L 342.717295 429.524307 
L 343.080162 429.356987 
L 343.180086 429.189666 
L 343.218182 429.022346 
L 343.339382 427.805469 
L 343.46069 427.562093 
L 343.566693 427.136186 
L 343.813754 426.831967 
L 343.916096 426.360427 
L 343.97467 426.223529 
L 344.124425 425.721567 
L 344.187663 425.539035 
L 344.328827 424.565534 
L 344.81364 424.398213 
L 344.855655 424.261315 
L 345.044789 422.375155 
L 345.288369 421.584185 
L 346.052992 420.443363 
L 346.31145 420.321676 
L 346.511011 419.789292 
L 346.650219 419.637182 
L 347.163474 419.135221 
L 347.270043 419.013533 
L 347.448637 418.876634 
L 348.060489 418.64847 
L 348.113895 418.572415 
L 348.263529 418.450727 
L 348.382203 418.32904 
L 348.633574 418.040031 
L 348.725979 417.948766 
L 349.024684 417.781445 
L 349.063888 417.751023 
L 349.609084 417.614124 
L 349.763931 417.446804 
L 350.367618 416.823154 
L 351.262399 416.488513 
L 351.358499 416.336404 
L 351.573689 416.138661 
L 351.602753 416.077817 
L 351.892596 415.925708 
L 352.017162 415.743176 
L 352.412333 415.560645 
L 352.614196 415.530223 
L 353.051364 415.362902 
L 353.109929 415.286847 
L 353.40559 415.104316 
L 353.562494 414.876151 
L 353.758955 414.739253 
L 353.950053 414.313346 
L 354.53025 413.933072 
L 354.644594 413.187735 
L 354.9033 412.898726 
L 355.010793 412.700984 
L 355.178111 412.533663 
L 355.312609 412.305499 
L 355.38982 412.062123 
L 356.193292 411.727482 
L 356.369272 411.605795 
L 356.603671 411.423263 
L 356.720902 411.271153 
L 356.82894 410.982145 
L 356.980126 410.753981 
L 357.117155 410.175964 
L 357.408876 410.099909 
L 357.637859 409.963011 
L 357.731204 409.856534 
L 357.917399 409.704424 
L 358.481911 408.898243 
L 358.554751 408.715712 
L 358.608115 408.639657 
L 359.216206 408.426704 
L 359.334066 408.168117 
L 359.450963 408.000797 
L 359.970977 407.377147 
L 360.091152 405.901684 
L 360.222374 405.703942 
L 360.343845 405.582254 
L 360.427292 405.460566 
L 360.506346 405.338878 
L 360.536416 405.125925 
L 360.774928 404.989026 
L 360.883388 404.684807 
L 361.030199 404.517487 
L 361.139803 404.228478 
L 361.242105 404.045947 
L 361.349167 403.817782 
L 361.458038 403.650462 
L 361.610054 403.407086 
L 361.732649 403.270188 
L 361.856402 402.99639 
L 362.358463 402.783437 
L 362.474111 402.616116 
L 362.501205 402.129366 
L 362.616466 401.703459 
L 362.854963 401.201497 
L 362.962024 400.866856 
L 363.052124 400.608269 
L 363.18205 396.896795 
L 363.286075 396.729474 
L 363.391359 396.3492 
L 363.973891 395.664707 
L 364.113707 395.223589 
L 364.459732 394.660783 
L 364.700467 394.174033 
L 364.787954 393.930657 
L 364.895316 393.641649 
L 365.107166 393.230953 
L 365.176454 393.078843 
L 365.32488 392.941945 
L 365.460658 392.470405 
L 365.584552 392.150975 
L 365.794288 391.040575 
L 365.909525 390.858043 
L 366.12988 390.280027 
L 366.148572 390.127917 
L 366.237642 390.02144 
L 366.28692 389.869331 
L 366.382917 388.941462 
L 366.452553 388.819774 
L 366.590949 388.27218 
L 366.985217 388.180914 
L 367.139002 388.028804 
L 367.318678 387.313889 
L 367.381365 387.192201 
L 367.531353 386.705451 
L 367.637216 386.553341 
L 367.744241 386.142645 
L 367.833872 386.005746 
L 367.941139 385.655894 
L 368.013011 385.503785 
L 368.120889 385.123511 
L 368.602699 384.286908 
L 368.751662 384.134798 
L 368.896925 383.815368 
L 368.998487 383.678469 
L 369.080585 383.450305 
L 369.168186 383.313406 
L 369.28726 382.978765 
L 369.474511 382.781023 
L 369.515856 382.704968 
L 369.624475 382.58328 
L 369.734618 382.218217 
L 369.953343 382.157373 
L 370.504736 381.974842 
L 370.554746 381.929209 
L 370.819315 381.79231 
L 371.077136 381.533724 
L 371.29054 381.396825 
L 372.212471 380.773176 
L 372.321289 380.605855 
L 372.909679 379.951784 
L 373.51452 379.799674 
L 374.55887 378.15689 
L 375.089145 378.019992 
L 375.229232 377.791827 
L 375.4361 377.654928 
L 375.589901 377.381131 
L 375.709465 377.244233 
L 375.863295 377.107334 
L 376.006177 376.89438 
L 376.080787 376.787904 
L 376.685839 376.605372 
L 376.809473 376.301153 
L 377.009916 376.118621 
L 377.187904 375.829613 
L 377.293324 375.601449 
L 377.535155 375.373284 
L 377.659274 375.205964 
L 378.340324 374.597525 
L 378.452919 374.430205 
L 378.682079 374.247673 
L 378.787213 374.125985 
L 378.997014 373.624024 
L 379.104642 373.350226 
L 379.48622 373.061218 
L 379.906939 372.863476 
L 380.268085 372.315881 
L 380.89476 371.646599 
L 381.527883 371.35759 
L 381.783665 371.129426 
L 382.180066 370.71873 
L 382.291068 370.520988 
L 382.516119 369.958182 
L 382.967636 369.714807 
L 383.073931 369.623541 
L 383.251242 369.441009 
L 383.448814 369.167212 
L 383.587624 369.030313 
L 383.856996 368.893415 
L 384.035487 368.482719 
L 384.347095 368.02639 
L 384.454571 367.859069 
L 384.530788 367.70696 
L 384.654295 367.478795 
L 384.757833 367.326686 
L 385.116204 366.626981 
L 385.695505 365.455737 
L 386.286258 365.257995 
L 386.403012 365.166729 
L 386.603116 364.877721 
L 386.852382 364.634345 
L 387.043483 364.406181 
L 387.098393 364.223649 
L 387.399498 363.949852 
L 387.773578 363.782532 
L 387.871782 363.615211 
L 388.154819 363.219726 
L 388.263903 363.052405 
L 389.035688 362.200592 
L 389.16145 361.576942 
L 389.345593 361.424832 
L 389.495807 361.287934 
L 389.592799 361.196668 
L 389.723044 360.953293 
L 389.833342 360.740339 
L 389.975592 360.542597 
L 390.22781 360.131901 
L 390.578444 359.842892 
L 391.503064 359.264876 
L 391.591923 359.127977 
L 391.729037 358.991079 
L 391.847908 358.747703 
L 392.195297 358.473906 
L 392.59276 358.337007 
L 392.65043 358.169687 
L 392.944971 358.032788 
L 393.284619 357.622092 
L 393.634357 357.226607 
L 394.22196 357.028865 
L 394.3127 356.861544 
L 394.486113 356.694223 
L 394.617761 356.466059 
L 395.056358 355.857621 
L 395.154634 355.431714 
L 395.430393 355.294815 
L 395.670331 355.173127 
L 395.749524 355.066651 
L 395.881349 354.929752 
L 396.210435 354.564689 
L 396.348916 354.306102 
L 396.529798 354.10836 
L 396.652257 353.925828 
L 396.831127 353.682453 
L 397.378379 353.454289 
L 397.398754 353.271757 
L 397.512285 352.100513 
L 397.539036 351.963614 
L 397.649393 351.628973 
L 397.786164 351.41602 
L 397.899813 351.203066 
L 398.03306 351.050957 
L 398.140058 350.883636 
L 398.771137 350.457729 
L 399.019231 350.320831 
L 399.121618 349.788447 
L 399.371427 349.484228 
L 399.692264 348.997477 
L 400.033803 348.708469 
L 400.433271 348.525937 
L 400.57336 348.343406 
L 400.691976 348.236929 
L 400.794376 348.084819 
L 401.265093 347.293849 
L 401.355296 347.187372 
L 401.634084 347.020052 
L 402.607084 345.666276 
L 402.726457 345.179526 
L 402.790961 345.042627 
L 402.870039 344.93615 
L 403.810722 344.495032 
L 404.205006 344.129969 
L 404.376329 343.993071 
L 404.557899 343.764906 
L 404.756628 343.536742 
L 405.423408 343.308577 
L 405.597853 343.156468 
L 405.81775 342.989147 
L 406.361863 342.654506 
L 407.042484 342.259021 
L 407.076083 342.182966 
L 407.318225 342.046067 
L 407.434492 341.437629 
L 407.553664 341.30073 
L 407.663723 341.13341 
L 407.885763 340.783558 
L 408.00547 340.585815 
L 408.589575 339.749212 
L 408.693255 339.414571 
L 408.814394 339.186407 
L 408.864089 339.019086 
L 409.081992 338.866977 
L 409.340116 338.425859 
L 409.527479 338.228116 
L 409.820754 337.893475 
L 410.304116 337.695732 
L 410.412608 337.361091 
L 410.621743 337.102505 
L 410.731349 336.600543 
L 410.939749 336.220269 
L 411.980098 335.535776 
L 412.153592 334.516642 
L 412.225629 334.379743 
L 413.529283 332.006833 
L 413.693253 331.839512 
L 413.957393 331.474449 
L 414.069345 331.01812 
L 414.24486 330.835589 
L 414.430188 330.653057 
L 414.515444 330.470526 
L 414.697717 330.333627 
L 414.822754 330.014197 
L 414.954213 329.831665 
L 415.186831 329.208016 
L 415.304491 328.842953 
L 415.44196 328.660421 
L 415.72782 328.15846 
L 415.843737 327.899873 
L 416.479665 327.443544 
L 416.653414 325.998503 
L 417.352525 324.979369 
L 417.47088 324.812048 
L 417.57751 324.629517 
L 417.790293 324.355719 
L 417.887878 323.564749 
L 418.133357 323.321374 
L 418.33729 323.062787 
L 419.010162 322.119708 
L 419.111163 321.937176 
L 419.289372 321.861122 
L 419.668967 321.739434 
L 419.808633 321.450426 
L 420.045612 321.161417 
L 420.430427 320.461713 
L 421.197466 319.822853 
L 421.303677 318.697242 
L 421.35171 318.225702 
L 421.459441 317.419521 
L 421.504092 317.100091 
L 422.170914 312.475958 
L 422.209473 312.217372 
L 422.315505 311.24387 
L 422.354064 310.985284 
L 422.450464 310.711487 
L 422.628172 310.437689 
L 422.980639 309.129547 
L 423.086687 308.536319 
L 423.200093 308.156045 
L 423.433725 307.304231 
L 423.530122 306.954379 
L 423.63612 306.300308 
L 423.665121 306.056932 
L 423.771074 305.448494 
L 423.819278 305.174697 
L 423.92877 304.109929 
L 423.954234 303.760077 
L 424.050626 303.16685 
L 424.079548 303.01474 
L 424.189647 301.782652 
L 424.262698 301.26548 
L 424.372791 300.139868 
L 424.416931 299.698751 
L 424.522981 298.299342 
L 424.561535 298.040756 
L 424.669921 296.823879 
L 424.696497 296.51966 
L 424.802536 295.302783 
L 424.841093 294.998563 
L 424.94783 293.766476 
L 425.004958 293.462256 
L 425.111 292.747341 
L 425.177535 292.443122 
L 425.313342 291.956371 
L 425.74929 291.423987 
L 426.02471 291.256667 
L 426.96163 290.328798 
L 427.029108 290.024579 
L 427.135153 289.416141 
L 427.202618 289.111921 
L 427.308658 288.701225 
L 427.356857 288.427428 
L 427.462896 288.077576 
L 427.530372 287.773357 
L 427.636412 287.286606 
L 427.697793 286.982387 
L 427.771368 286.510847 
L 427.877413 285.339603 
L 427.89669 285.096227 
L 428.099872 284.107515 
L 428.426736 283.788085 
L 428.529202 283.696819 
L 428.612214 283.514287 
L 428.928021 283.316545 
L 429.255775 283.027537 
L 429.373269 282.738528 
L 429.565215 282.525575 
L 430.085511 281.688972 
L 430.245591 281.506441 
L 430.518578 281.323909 
L 430.833544 281.171799 
L 430.950659 280.974057 
L 431.241226 280.685049 
L 431.463285 280.380829 
L 431.565435 280.061399 
L 431.839225 279.75718 
L 431.945267 279.635492 
L 432.327385 279.452961 
L 432.427199 279.316062 
L 432.533281 278.96621 
L 433.214602 278.388193 
L 433.328514 278.281717 
L 433.706229 278.053552 
L 434.260495 277.262582 
L 434.427421 277.125684 
L 434.936618 276.532456 
L 435.059403 276.197815 
L 435.198437 276.060916 
L 435.352675 275.726275 
L 437.006425 273.627162 
L 437.2663 273.475053 
L 437.405934 273.292521 
L 437.543079 273.140412 
L 438.475824 272.030011 
L 438.697536 271.877902 
L 438.769317 271.832269 
L 439.140966 271.588894 
L 440.739625 270.235118 
L 440.857024 270.067797 
L 441.049642 269.885266 
L 441.154252 269.641891 
L 441.705103 269.048663 
L 441.861482 268.896553 
L 442.086921 268.607545 
L 442.194562 268.36417 
L 442.410458 268.029529 
L 442.668971 267.846997 
L 442.765371 267.557989 
L 443.055514 267.329824 
L 443.124114 267.284191 
L 443.471798 267.147293 
L 443.676643 266.888706 
L 444.022888 266.660542 
L 444.156844 266.4628 
L 444.289106 266.341112 
L 444.432867 266.128158 
L 444.58158 265.793517 
L 444.808814 265.656619 
L 446.133441 264.622273 
L 446.220941 264.302843 
L 446.768615 263.831303 
L 446.894648 263.344552 
L 446.982905 263.162021 
L 447.178125 262.720903 
L 447.268546 262.568793 
L 447.344605 262.386262 
L 447.449821 262.249363 
L 447.662214 262.066832 
L 447.740996 261.914722 
L 448.376761 261.640925 
L 448.50636 261.397549 
L 448.78355 261.199807 
L 448.847759 261.078119 
L 449.01164 260.94122 
L 449.522473 260.393626 
L 450.206797 260.241516 
L 450.43676 259.952508 
L 450.567621 259.693922 
L 450.997276 258.887741 
L 451.373029 258.689998 
L 451.476029 258.629154 
L 451.690337 258.461834 
L 451.782881 258.370568 
L 451.951334 258.142404 
L 452.024433 257.899028 
L 452.269448 257.746919 
L 452.372641 257.61002 
L 452.650086 257.366645 
L 452.944749 257.214535 
L 453.228394 256.940738 
L 453.39198 256.712573 
L 453.605911 256.545253 
L 453.773508 256.393143 
L 453.859997 256.241033 
L 453.949589 256.18019 
L 454.050827 256.02808 
L 454.312994 255.754283 
L 454.515486 255.586962 
L 455.614351 254.583039 
L 455.720388 254.370085 
L 455.845702 254.324452 
L 456.212009 254.141921 
L 456.369843 253.9746 
L 456.443313 253.883334 
L 456.954219 253.594326 
L 457.116306 253.396584 
L 457.233756 253.229263 
L 459.824683 251.099728 
L 459.932382 250.917197 
L 460.80042 250.126227 
L 461.025929 249.974117 
L 461.764167 249.167936 
L 462.00756 248.802873 
L 462.081818 248.559498 
L 462.192806 248.407388 
L 462.544873 248.164013 
L 462.602711 248.027114 
L 462.708751 247.49473 
L 462.932377 247.236144 
L 463.146569 247.053613 
L 463.257884 246.886292 
L 463.514206 246.53644 
L 463.624568 246.414752 
L 464.547207 245.669415 
L 464.813198 245.456462 
L 465.379003 245.000133 
L 465.485035 244.939289 
L 466.622403 243.904944 
L 466.896383 243.52467 
L 467.859406 242.809754 
L 467.998979 242.657645 
L 468.205594 242.42948 
L 468.337589 242.216527 
L 469.1734 241.440768 
L 471.549169 239.372077 
L 471.828571 239.09828 
L 472.310497 238.79406 
L 472.792964 238.276888 
L 472.860297 238.185622 
L 472.975452 238.048723 
L 473.065073 237.98788 
L 473.907784 237.546762 
L 474.123659 237.425074 
L 474.358831 237.227331 
L 474.467634 237.120855 
L 474.889135 236.831846 
L 475.428086 236.634104 
L 475.686039 236.451572 
L 476.045844 236.147353 
L 476.249037 235.9344 
L 477.058011 235.493282 
L 477.154414 235.356383 
L 477.451088 235.082586 
L 477.57488 234.976109 
L 477.741853 234.732734 
L 477.995109 234.489358 
L 478.311037 234.337249 
L 478.828847 233.789654 
L 478.933783 233.576701 
L 479.091885 233.40938 
L 479.218748 233.120372 
L 479.372394 232.953051 
L 479.610103 232.572777 
L 479.641332 232.329402 
L 480.094389 232.14687 
L 481.665656 230.215078 
L 481.945124 230.062969 
L 482.8022 229.332842 
L 482.959833 229.150311 
L 483.524016 228.587505 
L 483.762131 228.420185 
L 483.856471 228.313708 
L 484.473441 227.659637 
L 484.538122 227.598793 
L 484.947906 227.431472 
L 485.957837 226.670924 
L 486.118902 226.549236 
L 486.162547 226.397127 
L 486.234579 226.336283 
L 486.575165 226.199384 
L 487.211848 225.788688 
L 487.854982 225.119406 
L 488.136631 224.936875 
L 488.467011 224.663077 
L 488.816046 224.495757 
L 488.964435 224.298014 
L 489.043046 224.221959 
L 489.289913 224.054639 
L 489.357386 223.978584 
L 489.698511 223.841685 
L 489.803268 223.689576 
L 491.217853 222.716074 
L 491.420156 222.563965 
L 491.561138 222.305378 
L 491.865867 222.122847 
L 492.037265 222.01637 
L 492.374205 221.605674 
L 492.412762 221.514408 
L 492.90437 221.316666 
L 493.01041 221.271033 
L 493.453835 221.088501 
L 493.822776 220.845126 
L 493.974397 220.662594 
L 494.051504 220.43443 
L 494.379263 220.236687 
L 495.312572 219.628249 
L 495.410728 219.415295 
L 495.51676 219.278397 
L 496.148211 218.822068 
L 496.181892 218.669958 
L 496.264778 218.411372 
L 496.501823 218.244051 
L 496.609975 218.198419 
L 496.711983 218.107153 
L 496.972187 217.924621 
L 498.001208 217.057596 
L 498.133394 216.95112 
L 498.462928 216.677322 
L 498.545611 216.63169 
L 498.747782 216.47958 
L 499.640946 215.734243 
L 500.05988 215.597344 
L 500.343183 215.110593 
L 500.725401 214.928062 
L 500.904618 214.684686 
L 501.12166 214.502155 
L 501.283189 214.213147 
L 501.473379 214.076248 
L 502.78978 212.950637 
L 503.496992 212.387831 
L 503.916068 212.159667 
L 504.006265 212.007557 
L 504.368158 211.809815 
L 504.682572 211.551228 
L 504.787429 211.429541 
L 505.31496 211.003634 
L 505.690928 210.866735 
L 505.969935 210.608149 
L 506.11776 210.379984 
L 506.344571 210.182242 
L 506.617505 209.878023 
L 506.732202 209.695491 
L 506.924699 209.573803 
L 507.474306 209.284795 
L 507.585619 209.163107 
L 507.751359 208.904521 
L 509.251961 207.733277 
L 509.360708 207.535534 
L 509.539336 207.276948 
L 509.885223 206.562033 
L 510.725047 206.060071 
L 511.030964 205.649375 
L 511.447999 205.375578 
L 511.720435 205.238679 
L 512.004251 205.08657 
L 512.14009 204.919249 
L 512.235516 204.858405 
L 512.430014 204.691085 
L 512.718222 204.447709 
L 512.833372 204.326022 
L 512.958496 204.067435 
L 513.56733 203.702372 
L 513.731548 203.550263 
L 514.438686 203.03309 
L 514.915118 202.637605 
L 515.300513 202.485495 
L 515.990866 201.877057 
L 516.186713 201.542416 
L 517.425525 200.553703 
L 517.552258 200.432015 
L 517.705933 200.279906 
L 518.118472 199.86921 
L 518.450703 199.732311 
L 518.677621 199.504147 
L 518.785729 199.412881 
L 518.895998 199.275982 
L 519.129707 199.017396 
L 519.202605 198.880497 
L 519.424109 198.469801 
L 520.398494 197.846152 
L 520.499464 197.785308 
L 520.786781 197.4963 
L 520.928395 197.328979 
L 521.591854 196.948705 
L 521.708485 196.811807 
L 522.38103 196.203368 
L 522.498867 195.883938 
L 522.998858 195.503664 
L 523.243516 195.336343 
L 523.558092 194.864804 
L 523.779604 194.682272 
L 523.833317 194.454108 
L 523.954552 194.104255 
L 524.193401 193.86088 
L 524.455197 193.693559 
L 524.502065 193.632716 
L 524.788966 193.511028 
L 525.246095 193.115543 
L 525.447547 192.933011 
L 525.544748 192.765691 
L 525.681403 192.583159 
L 525.80486 192.400628 
L 526.3653 192.065987 
L 526.472449 191.868244 
L 526.587254 191.731345 
L 528.612005 190.316726 
L 528.721126 190.240671 
L 528.887485 190.012507 
L 529.583061 189.556178 
L 529.776859 189.26717 
L 529.93991 188.993372 
L 530.090712 188.886896 
L 530.624722 188.384934 
L 530.871033 188.248035 
L 531.286263 188.080715 
L 531.414672 187.959027 
L 531.525919 187.806917 
L 531.597756 187.578753 
L 531.863199 187.396221 
L 532.04042 187.198479 
L 533.126598 186.59004 
L 533.745176 186.377087 
L 535.174428 185.357953 
L 535.274605 185.251476 
L 535.347838 185.068944 
L 535.645704 184.627826 
L 536.032154 184.384451 
L 536.131317 184.308396 
L 536.280636 184.156287 
L 536.355428 184.095443 
L 536.679534 183.882489 
L 537.208029 183.532637 
L 537.634506 183.410949 
L 537.862051 183.243629 
L 538.075679 183.015464 
L 538.200919 182.848144 
L 538.316409 182.696034 
L 538.580612 182.254916 
L 538.624307 182.163651 
L 539.171043 182.011541 
L 539.284255 181.889853 
L 539.520473 181.646478 
L 539.618187 181.570423 
L 539.897432 181.327048 
L 540.147256 181.129305 
L 540.676757 180.88593 
L 540.783537 180.809875 
L 541.269496 180.292702 
L 541.492477 180.125382 
L 541.690457 179.805952 
L 541.8058 179.653842 
L 541.931119 179.608209 
L 542.239583 179.456099 
L 542.486811 179.243146 
L 542.719284 179.060614 
L 542.891764 178.893294 
L 543.022622 178.756395 
L 543.080102 178.543442 
L 543.164816 178.406543 
L 543.415444 178.239223 
L 543.694994 177.950214 
L 543.954808 177.752472 
L 544.088846 177.585151 
L 544.369428 177.387409 
L 544.6719 177.037557 
L 545.37205 176.45954 
L 545.818515 176.292219 
L 546.038177 176.018422 
L 546.249928 175.835891 
L 546.453542 175.683781 
L 546.983717 175.273085 
L 547.251425 175.044921 
L 547.561978 174.786334 
L 548.37652 174.253951 
L 548.736896 174.071419 
L 548.991214 173.736778 
L 549.152177 173.599879 
L 549.288144 173.432559 
L 549.51953 173.173972 
L 550.097248 172.6568 
L 550.606518 172.459057 
L 551.494604 171.287813 
L 551.889209 171.150914 
L 551.967589 171.044438 
L 552.276045 170.907539 
L 552.38446 170.877117 
L 552.505866 170.709797 
L 552.627972 170.481632 
L 552.7766 170.359944 
L 554.09745 169.736295 
L 554.771805 169.295177 
L 555.055619 169.158279 
L 555.494785 168.86927 
L 555.605808 168.747583 
L 555.665453 168.641106 
L 555.81755 168.504207 
L 555.928452 168.260832 
L 556.215055 168.0783 
L 556.636905 167.75887 
L 556.738435 167.621971 
L 557.353846 167.256908 
L 557.625002 167.043955 
L 557.788961 166.785369 
L 558.000951 166.557204 
L 558.429106 166.070453 
L 558.947753 165.598914 
L 559.246932 165.173007 
L 560.344361 164.336404 
L 560.448942 164.184294 
L 560.643533 164.016974 
L 560.898386 163.758387 
L 562.191757 162.511088 
L 562.511709 162.191658 
L 562.974335 162.039549 
L 563.33099 161.735329 
L 563.539245 161.537587 
L 563.707019 161.385477 
L 563.815452 161.202946 
L 564.531369 160.837883 
L 564.716794 160.700984 
L 564.823935 160.548874 
L 565.062629 160.351132 
L 565.200902 160.107756 
L 565.408343 159.773115 
L 565.617001 159.37763 
L 565.701965 159.240732 
L 565.84648 159.073411 
L 566.73234 158.175964 
L 566.820064 158.008644 
L 566.927732 157.826112 
L 567.562103 157.095986 
L 568.42684 156.639657 
L 570.122162 155.331514 
L 570.233467 155.164194 
L 570.253402 155.133772 
L 570.752519 154.966451 
L 570.831178 154.936029 
L 571.060812 154.78392 
L 571.150788 154.692654 
L 571.40528 154.494912 
L 571.528866 154.373224 
L 571.718089 154.221114 
L 571.793466 154.129848 
L 571.909122 153.977739 
L 572.355202 153.764785 
L 572.561451 153.52141 
L 572.651358 153.354089 
L 572.891154 153.20198 
L 573.058766 152.973815 
L 573.616262 152.456643 
L 574.200101 152.152423 
L 575.00361 151.46793 
L 575.581276 150.859492 
L 575.87716 150.661749 
L 576.030909 150.494429 
L 576.590303 150.129366 
L 576.701052 150.0381 
L 577.719264 149.399239 
L 578.146165 149.262341 
L 578.348002 148.714746 
L 578.439766 148.62348 
L 578.646368 148.410527 
L 578.80108 148.288839 
L 579.976933 146.950275 
L 580.086521 146.889431 
L 580.452449 146.691688 
L 580.854334 146.417891 
L 581.048419 146.098461 
L 581.162561 145.915929 
L 581.278245 145.76382 
L 581.366265 145.657343 
L 581.720602 145.4596 
L 581.77917 145.398757 
L 582.087628 145.216225 
L 582.224655 144.988061 
L 582.504112 144.790318 
L 582.584272 144.699052 
L 582.810556 144.516521 
L 583.070792 144.273145 
L 583.259641 144.166669 
L 583.828001 143.892871 
L 584.122403 143.725551 
L 584.269588 143.588652 
L 584.405224 143.482175 
L 585.861446 142.554307 
L 585.962808 142.493463 
L 586.145713 142.158822 
L 586.25121 142.052345 
L 586.444016 141.824181 
L 586.796617 141.611227 
L 587.335779 141.139687 
L 587.446543 141.063633 
L 587.705046 140.926734 
L 587.808221 140.698569 
L 588.153223 140.500827 
L 588.246489 140.455194 
L 588.42563 140.303084 
L 588.577374 140.181397 
L 588.871768 140.029287 
L 588.976807 139.907599 
L 589.243251 139.588169 
L 589.319666 139.466482 
L 589.518624 139.299161 
L 589.692139 139.162262 
L 589.959955 138.949309 
L 590.068084 138.690723 
L 590.178166 138.538613 
L 590.262606 138.462558 
L 590.431913 138.310448 
L 591.000346 137.899753 
L 591.253577 137.625955 
L 591.356087 137.413002 
L 592.206259 136.713298 
L 592.399839 136.454711 
L 594.065976 134.948826 
L 594.135677 134.887982 
L 594.520139 134.659818 
L 595.153575 134.173067 
L 595.313171 133.990535 
L 595.389259 133.838426 
L 595.609733 133.701527 
L 595.806399 133.169143 
L 596.121147 132.849713 
L 596.352506 132.712815 
L 596.709092 132.347752 
L 597.389215 131.663258 
L 597.486877 131.541571 
L 598.85149 130.476803 
L 598.970743 130.142162 
L 599.995603 129.32077 
L 600.043899 129.244715 
L 600.251949 129.092606 
L 600.474985 128.818808 
L 600.718802 128.636277 
L 601.124901 128.438534 
L 601.234241 127.784463 
L 601.577131 127.586721 
L 601.904216 127.434611 
L 602.035409 127.236868 
L 602.0932 127.176025 
L 603.234342 126.78054 
L 603.345173 126.704485 
L 603.428193 126.643641 
L 603.558988 126.491531 
L 603.662863 126.369844 
L 603.864863 126.232945 
L 603.966649 126.126468 
L 604.827454 125.533241 
L 604.920909 125.381131 
L 605.21479 125.183389 
L 605.327922 125.031279 
L 606.831514 124.057778 
L 606.945194 123.875246 
L 607.388638 123.251597 
L 607.707613 123.099487 
L 607.842282 122.901744 
L 608.410835 122.430205 
L 608.522993 122.217251 
L 609.274213 121.745711 
L 609.422459 121.578391 
L 609.578744 121.380648 
L 609.682738 121.274172 
L 609.952661 121.076429 
L 611.437086 120.163771 
L 611.697277 120.011662 
L 612.01763 119.813919 
L 612.51917 119.66181 
L 612.725777 119.433645 
L 612.942315 119.235903 
L 613.056602 119.099004 
L 613.40309 118.87084 
L 614.611484 117.790861 
L 614.716454 117.562697 
L 615.041635 117.304111 
L 615.187232 117.258478 
L 615.523632 117.106368 
L 615.83089 116.786938 
L 616.342728 116.49793 
L 616.451594 116.406664 
L 616.584799 116.19371 
L 616.708962 116.011179 
L 617.286245 115.417951 
L 617.379003 115.220209 
L 617.895482 114.992044 
L 618.817905 114.520505 
L 619.192862 114.231496 
L 619.288901 114.140231 
L 619.489213 113.957699 
L 619.841384 113.729535 
L 620.113668 113.592636 
L 620.152195 113.531792 
L 620.525126 113.364472 
L 620.626028 113.318839 
L 621.057148 112.938565 
L 621.209063 112.740822 
L 621.388734 112.527869 
L 621.422007 112.436603 
L 621.665716 112.299704 
L 621.761191 112.178017 
L 622.636364 111.6 
L 622.636364 111.6 
" style="fill:none;stroke:#92c6ff;stroke-linecap:round;stroke-width:1.5;"/>
   </g>
   <g id="line2d_28">
    <defs>
     <path d="M 0 2.5 
C 0.663008 2.5 1.29895 2.236584 1.767767 1.767767 
C 2.236584 1.29895 2.5 0.663008 2.5 0 
C 2.5 -0.663008 2.236584 -1.29895 1.767767 -1.767767 
C 1.29895 -2.236584 0.663008 -2.5 0 -2.5 
C -0.663008 -2.5 -1.29895 -2.236584 -1.767767 -1.767767 
C -2.236584 -1.29895 -2.5 -0.663008 -2.5 0 
C -2.5 0.663008 -2.236584 1.29895 -1.767767 1.767767 
C -1.29895 2.236584 -0.663008 2.5 0 2.5 
z
" id="m8563514219" style="stroke:#696969;"/>
    </defs>
    <g clip-path="url(#peac608fc50)">
     <use style="fill:#696969;stroke:#696969;" x="115.363636" xlink:href="#m8563514219" y="615.6"/>
    </g>
   </g>
   <g id="line2d_29">
    <g clip-path="url(#peac608fc50)">
     <use style="fill:#696969;stroke:#696969;" x="216.385355" xlink:href="#m8563514219" y="565.190873"/>
    </g>
   </g>
   <g id="line2d_30">
    <g clip-path="url(#peac608fc50)">
     <use style="fill:#696969;stroke:#696969;" x="274.877907" xlink:href="#m8563514219" y="514.781747"/>
    </g>
   </g>
   <g id="line2d_31">
    <g clip-path="url(#peac608fc50)">
     <use style="fill:#696969;stroke:#696969;" x="313.272885" xlink:href="#m8563514219" y="464.37262"/>
    </g>
   </g>
   <g id="line2d_32">
    <g clip-path="url(#peac608fc50)">
     <use style="fill:#696969;stroke:#696969;" x="354.529702" xlink:href="#m8563514219" y="413.963494"/>
    </g>
   </g>
   <g id="line2d_33">
    <g clip-path="url(#peac608fc50)">
     <use style="fill:#696969;stroke:#696969;" x="387.922575" xlink:href="#m8563514219" y="363.554367"/>
    </g>
   </g>
   <g id="line2d_34">
    <g clip-path="url(#peac608fc50)">
     <use style="fill:#696969;stroke:#696969;" x="422.074511" xlink:href="#m8563514219" y="313.160451"/>
    </g>
   </g>
   <g id="line2d_35">
    <g clip-path="url(#peac608fc50)">
     <use style="fill:#696969;stroke:#696969;" x="447.153251" xlink:href="#m8563514219" y="262.766536"/>
    </g>
   </g>
   <g id="line2d_36">
    <g clip-path="url(#peac608fc50)">
     <use style="fill:#696969;stroke:#696969;" x="503.550893" xlink:href="#m8563514219" y="212.37262"/>
    </g>
   </g>
   <g id="line2d_37">
    <g clip-path="url(#peac608fc50)">
     <use style="fill:#696969;stroke:#696969;" x="563.038503" xlink:href="#m8563514219" y="161.978705"/>
    </g>
   </g>
   <g id="line2d_38">
    <g clip-path="url(#peac608fc50)">
     <use style="fill:#696969;stroke:#696969;" x="622.636364" xlink:href="#m8563514219" y="111.6"/>
    </g>
   </g>
   <g id="patch_3">
    <path d="M 90 640.8 
L 90 86.4 
" style="fill:none;stroke:#cccccc;stroke-linecap:square;stroke-linejoin:miter;"/>
   </g>
   <g id="patch_4">
    <path d="M 648 640.8 
L 648 86.4 
" style="fill:none;stroke:#cccccc;stroke-linecap:square;stroke-linejoin:miter;"/>
   </g>
   <g id="patch_5">
    <path d="M 90 640.8 
L 648 640.8 
" style="fill:none;stroke:#cccccc;stroke-linecap:square;stroke-linejoin:miter;"/>
   </g>
   <g id="patch_6">
    <path d="M 90 86.4 
L 648 86.4 
" style="fill:none;stroke:#cccccc;stroke-linecap:square;stroke-linejoin:miter;"/>
   </g>
   <g id="text_14">
    <!-- 1 (2014-06-09) -->
    <defs>
     <path id="DejaVuSans-32"/>
     <path d="M 31 75.875 
Q 24.46875 64.65625 21.28125 53.65625 
Q 18.109375 42.671875 18.109375 31.390625 
Q 18.109375 20.125 21.3125 9.0625 
Q 24.515625 -2 31 -13.1875 
L 23.1875 -13.1875 
Q 15.875 -1.703125 12.234375 9.375 
Q 8.59375 20.453125 8.59375 31.390625 
Q 8.59375 42.28125 12.203125 53.3125 
Q 15.828125 64.359375 23.1875 75.875 
z
" id="DejaVuSans-40"/>
     <path d="M 37.796875 64.3125 
L 12.890625 25.390625 
L 37.796875 25.390625 
z
M 35.203125 72.90625 
L 47.609375 72.90625 
L 47.609375 25.390625 
L 58.015625 25.390625 
L 58.015625 17.1875 
L 47.609375 17.1875 
L 47.609375 0 
L 37.796875 0 
L 37.796875 17.1875 
L 4.890625 17.1875 
L 4.890625 26.703125 
z
" id="DejaVuSans-52"/>
     <path d="M 4.890625 31.390625 
L 31.203125 31.390625 
L 31.203125 23.390625 
L 4.890625 23.390625 
z
" id="DejaVuSans-45"/>
     <path d="M 8.015625 75.875 
L 15.828125 75.875 
Q 23.140625 64.359375 26.78125 53.3125 
Q 30.421875 42.28125 30.421875 31.390625 
Q 30.421875 20.453125 26.78125 9.375 
Q 23.140625 -1.703125 15.828125 -13.1875 
L 8.015625 -13.1875 
Q 14.5 -2 17.703125 9.0625 
Q 20.90625 20.125 20.90625 31.390625 
Q 20.90625 42.671875 17.703125 53.65625 
Q 14.5 64.65625 8.015625 75.875 
z
" id="DejaVuSans-41"/>
    </defs>
    <g style="fill:#262626;" transform="translate(120.363636 623.198437)scale(0.1 -0.1)">
     <use xlink:href="#DejaVuSans-49"/>
     <use x="63.623047" xlink:href="#DejaVuSans-32"/>
     <use x="95.410156" xlink:href="#DejaVuSans-40"/>
     <use x="134.423828" xlink:href="#DejaVuSans-50"/>
     <use x="198.046875" xlink:href="#DejaVuSans-48"/>
     <use x="261.669922" xlink:href="#DejaVuSans-49"/>
     <use x="325.292969" xlink:href="#DejaVuSans-52"/>
     <use x="388.916016" xlink:href="#DejaVuSans-45"/>
     <use x="425" xlink:href="#DejaVuSans-48"/>
     <use x="488.623047" xlink:href="#DejaVuSans-54"/>
     <use x="552.246094" xlink:href="#DejaVuSans-45"/>
     <use x="588.330078" xlink:href="#DejaVuSans-48"/>
     <use x="651.953125" xlink:href="#DejaVuSans-57"/>
     <use x="715.576172" xlink:href="#DejaVuSans-41"/>
    </g>
   </g>
   <g id="text_15">
    <!-- 3315 (2015-08-27) -->
    <g style="fill:#262626;" transform="translate(221.385355 572.789311)scale(0.1 -0.1)">
     <use xlink:href="#DejaVuSans-51"/>
     <use x="63.623047" xlink:href="#DejaVuSans-51"/>
     <use x="127.246094" xlink:href="#DejaVuSans-49"/>
     <use x="190.869141" xlink:href="#DejaVuSans-53"/>
     <use x="254.492188" xlink:href="#DejaVuSans-32"/>
     <use x="286.279297" xlink:href="#DejaVuSans-40"/>
     <use x="325.292969" xlink:href="#DejaVuSans-50"/>
     <use x="388.916016" xlink:href="#DejaVuSans-48"/>
     <use x="452.539062" xlink:href="#DejaVuSans-49"/>
     <use x="516.162109" xlink:href="#DejaVuSans-53"/>
     <use x="579.785156" xlink:href="#DejaVuSans-45"/>
     <use x="615.869141" xlink:href="#DejaVuSans-48"/>
     <use x="679.492188" xlink:href="#DejaVuSans-56"/>
     <use x="743.115234" xlink:href="#DejaVuSans-45"/>
     <use x="779.199219" xlink:href="#DejaVuSans-50"/>
     <use x="842.822266" xlink:href="#DejaVuSans-55"/>
     <use x="906.445312" xlink:href="#DejaVuSans-41"/>
    </g>
   </g>
   <g id="text_16">
    <!-- 6629 (2016-05-10) -->
    <g style="fill:#262626;" transform="translate(279.877907 522.380184)scale(0.1 -0.1)">
     <use xlink:href="#DejaVuSans-54"/>
     <use x="63.623047" xlink:href="#DejaVuSans-54"/>
     <use x="127.246094" xlink:href="#DejaVuSans-50"/>
     <use x="190.869141" xlink:href="#DejaVuSans-57"/>
     <use x="254.492188" xlink:href="#DejaVuSans-32"/>
     <use x="286.279297" xlink:href="#DejaVuSans-40"/>
     <use x="325.292969" xlink:href="#DejaVuSans-50"/>
     <use x="388.916016" xlink:href="#DejaVuSans-48"/>
     <use x="452.539062" xlink:href="#DejaVuSans-49"/>
     <use x="516.162109" xlink:href="#DejaVuSans-54"/>
     <use x="579.785156" xlink:href="#DejaVuSans-45"/>
     <use x="615.869141" xlink:href="#DejaVuSans-48"/>
     <use x="679.492188" xlink:href="#DejaVuSans-53"/>
     <use x="743.115234" xlink:href="#DejaVuSans-45"/>
     <use x="779.199219" xlink:href="#DejaVuSans-49"/>
     <use x="842.822266" xlink:href="#DejaVuSans-48"/>
     <use x="906.445312" xlink:href="#DejaVuSans-41"/>
    </g>
   </g>
   <g id="text_17">
    <!-- 9943 (2016-10-25) -->
    <g style="fill:#262626;" transform="translate(318.272885 471.971058)scale(0.1 -0.1)">
     <use xlink:href="#DejaVuSans-57"/>
     <use x="63.623047" xlink:href="#DejaVuSans-57"/>
     <use x="127.246094" xlink:href="#DejaVuSans-52"/>
     <use x="190.869141" xlink:href="#DejaVuSans-51"/>
     <use x="254.492188" xlink:href="#DejaVuSans-32"/>
     <use x="286.279297" xlink:href="#DejaVuSans-40"/>
     <use x="325.292969" xlink:href="#DejaVuSans-50"/>
     <use x="388.916016" xlink:href="#DejaVuSans-48"/>
     <use x="452.539062" xlink:href="#DejaVuSans-49"/>
     <use x="516.162109" xlink:href="#DejaVuSans-54"/>
     <use x="579.785156" xlink:href="#DejaVuSans-45"/>
     <use x="615.869141" xlink:href="#DejaVuSans-49"/>
     <use x="679.492188" xlink:href="#DejaVuSans-48"/>
     <use x="743.115234" xlink:href="#DejaVuSans-45"/>
     <use x="779.199219" xlink:href="#DejaVuSans-50"/>
     <use x="842.822266" xlink:href="#DejaVuSans-53"/>
     <use x="906.445312" xlink:href="#DejaVuSans-41"/>
    </g>
   </g>
   <g id="text_18">
    <!-- 13257 (2017-04-25) -->
    <g style="fill:#262626;" transform="translate(359.529702 421.561931)scale(0.1 -0.1)">
     <use xlink:href="#DejaVuSans-49"/>
     <use x="63.623047" xlink:href="#DejaVuSans-51"/>
     <use x="127.246094" xlink:href="#DejaVuSans-50"/>
     <use x="190.869141" xlink:href="#DejaVuSans-53"/>
     <use x="254.492188" xlink:href="#DejaVuSans-55"/>
     <use x="318.115234" xlink:href="#DejaVuSans-32"/>
     <use x="349.902344" xlink:href="#DejaVuSans-40"/>
     <use x="388.916016" xlink:href="#DejaVuSans-50"/>
     <use x="452.539062" xlink:href="#DejaVuSans-48"/>
     <use x="516.162109" xlink:href="#DejaVuSans-49"/>
     <use x="579.785156" xlink:href="#DejaVuSans-55"/>
     <use x="643.408203" xlink:href="#DejaVuSans-45"/>
     <use x="679.492188" xlink:href="#DejaVuSans-48"/>
     <use x="743.115234" xlink:href="#DejaVuSans-52"/>
     <use x="806.738281" xlink:href="#DejaVuSans-45"/>
     <use x="842.822266" xlink:href="#DejaVuSans-50"/>
     <use x="906.445312" xlink:href="#DejaVuSans-53"/>
     <use x="970.068359" xlink:href="#DejaVuSans-41"/>
    </g>
   </g>
   <g id="text_19">
    <!-- 16571 (2017-09-18) -->
    <g style="fill:#262626;" transform="translate(392.922575 371.152805)scale(0.1 -0.1)">
     <use xlink:href="#DejaVuSans-49"/>
     <use x="63.623047" xlink:href="#DejaVuSans-54"/>
     <use x="127.246094" xlink:href="#DejaVuSans-53"/>
     <use x="190.869141" xlink:href="#DejaVuSans-55"/>
     <use x="254.492188" xlink:href="#DejaVuSans-49"/>
     <use x="318.115234" xlink:href="#DejaVuSans-32"/>
     <use x="349.902344" xlink:href="#DejaVuSans-40"/>
     <use x="388.916016" xlink:href="#DejaVuSans-50"/>
     <use x="452.539062" xlink:href="#DejaVuSans-48"/>
     <use x="516.162109" xlink:href="#DejaVuSans-49"/>
     <use x="579.785156" xlink:href="#DejaVuSans-55"/>
     <use x="643.408203" xlink:href="#DejaVuSans-45"/>
     <use x="679.492188" xlink:href="#DejaVuSans-48"/>
     <use x="743.115234" xlink:href="#DejaVuSans-57"/>
     <use x="806.738281" xlink:href="#DejaVuSans-45"/>
     <use x="842.822266" xlink:href="#DejaVuSans-49"/>
     <use x="906.445312" xlink:href="#DejaVuSans-56"/>
     <use x="970.068359" xlink:href="#DejaVuSans-41"/>
    </g>
   </g>
   <g id="text_20">
    <!-- 19884 (2018-02-16) -->
    <g style="fill:#262626;" transform="translate(427.074511 320.758889)scale(0.1 -0.1)">
     <use xlink:href="#DejaVuSans-49"/>
     <use x="63.623047" xlink:href="#DejaVuSans-57"/>
     <use x="127.246094" xlink:href="#DejaVuSans-56"/>
     <use x="190.869141" xlink:href="#DejaVuSans-56"/>
     <use x="254.492188" xlink:href="#DejaVuSans-52"/>
     <use x="318.115234" xlink:href="#DejaVuSans-32"/>
     <use x="349.902344" xlink:href="#DejaVuSans-40"/>
     <use x="388.916016" xlink:href="#DejaVuSans-50"/>
     <use x="452.539062" xlink:href="#DejaVuSans-48"/>
     <use x="516.162109" xlink:href="#DejaVuSans-49"/>
     <use x="579.785156" xlink:href="#DejaVuSans-56"/>
     <use x="643.408203" xlink:href="#DejaVuSans-45"/>
     <use x="679.492188" xlink:href="#DejaVuSans-48"/>
     <use x="743.115234" xlink:href="#DejaVuSans-50"/>
     <use x="806.738281" xlink:href="#DejaVuSans-45"/>
     <use x="842.822266" xlink:href="#DejaVuSans-49"/>
     <use x="906.445312" xlink:href="#DejaVuSans-54"/>
     <use x="970.068359" xlink:href="#DejaVuSans-41"/>
    </g>
   </g>
   <g id="text_21">
    <!-- 23197 (2018-06-06) -->
    <g style="fill:#262626;" transform="translate(452.153251 270.364973)scale(0.1 -0.1)">
     <use xlink:href="#DejaVuSans-50"/>
     <use x="63.623047" xlink:href="#DejaVuSans-51"/>
     <use x="127.246094" xlink:href="#DejaVuSans-49"/>
     <use x="190.869141" xlink:href="#DejaVuSans-57"/>
     <use x="254.492188" xlink:href="#DejaVuSans-55"/>
     <use x="318.115234" xlink:href="#DejaVuSans-32"/>
     <use x="349.902344" xlink:href="#DejaVuSans-40"/>
     <use x="388.916016" xlink:href="#DejaVuSans-50"/>
     <use x="452.539062" xlink:href="#DejaVuSans-48"/>
     <use x="516.162109" xlink:href="#DejaVuSans-49"/>
     <use x="579.785156" xlink:href="#DejaVuSans-56"/>
     <use x="643.408203" xlink:href="#DejaVuSans-45"/>
     <use x="679.492188" xlink:href="#DejaVuSans-48"/>
     <use x="743.115234" xlink:href="#DejaVuSans-54"/>
     <use x="806.738281" xlink:href="#DejaVuSans-45"/>
     <use x="842.822266" xlink:href="#DejaVuSans-48"/>
     <use x="906.445312" xlink:href="#DejaVuSans-54"/>
     <use x="970.068359" xlink:href="#DejaVuSans-41"/>
    </g>
   </g>
   <g id="text_22">
    <!-- 26510 (2019-02-09) -->
    <g style="fill:#262626;" transform="translate(508.550893 219.971058)scale(0.1 -0.1)">
     <use xlink:href="#DejaVuSans-50"/>
     <use x="63.623047" xlink:href="#DejaVuSans-54"/>
     <use x="127.246094" xlink:href="#DejaVuSans-53"/>
     <use x="190.869141" xlink:href="#DejaVuSans-49"/>
     <use x="254.492188" xlink:href="#DejaVuSans-48"/>
     <use x="318.115234" xlink:href="#DejaVuSans-32"/>
     <use x="349.902344" xlink:href="#DejaVuSans-40"/>
     <use x="388.916016" xlink:href="#DejaVuSans-50"/>
     <use x="452.539062" xlink:href="#DejaVuSans-48"/>
     <use x="516.162109" xlink:href="#DejaVuSans-49"/>
     <use x="579.785156" xlink:href="#DejaVuSans-57"/>
     <use x="643.408203" xlink:href="#DejaVuSans-45"/>
     <use x="679.492188" xlink:href="#DejaVuSans-48"/>
     <use x="743.115234" xlink:href="#DejaVuSans-50"/>
     <use x="806.738281" xlink:href="#DejaVuSans-45"/>
     <use x="842.822266" xlink:href="#DejaVuSans-48"/>
     <use x="906.445312" xlink:href="#DejaVuSans-57"/>
     <use x="970.068359" xlink:href="#DejaVuSans-41"/>
    </g>
   </g>
   <g id="text_23">
    <!-- 29823 (2019-10-28) -->
    <g style="fill:#262626;" transform="translate(568.038503 169.577142)scale(0.1 -0.1)">
     <use xlink:href="#DejaVuSans-50"/>
     <use x="63.623047" xlink:href="#DejaVuSans-57"/>
     <use x="127.246094" xlink:href="#DejaVuSans-56"/>
     <use x="190.869141" xlink:href="#DejaVuSans-50"/>
     <use x="254.492188" xlink:href="#DejaVuSans-51"/>
     <use x="318.115234" xlink:href="#DejaVuSans-32"/>
     <use x="349.902344" xlink:href="#DejaVuSans-40"/>
     <use x="388.916016" xlink:href="#DejaVuSans-50"/>
     <use x="452.539062" xlink:href="#DejaVuSans-48"/>
     <use x="516.162109" xlink:href="#DejaVuSans-49"/>
     <use x="579.785156" xlink:href="#DejaVuSans-57"/>
     <use x="643.408203" xlink:href="#DejaVuSans-45"/>
     <use x="679.492188" xlink:href="#DejaVuSans-49"/>
     <use x="743.115234" xlink:href="#DejaVuSans-48"/>
     <use x="806.738281" xlink:href="#DejaVuSans-45"/>
     <use x="842.822266" xlink:href="#DejaVuSans-50"/>
     <use x="906.445312" xlink:href="#DejaVuSans-56"/>
     <use x="970.068359" xlink:href="#DejaVuSans-41"/>
    </g>
   </g>
   <g id="text_24">
    <!-- 33135 (2020-07-16) -->
    <g style="fill:#262626;" transform="translate(627.636364 119.198437)scale(0.1 -0.1)">
     <use xlink:href="#DejaVuSans-51"/>
     <use x="63.623047" xlink:href="#DejaVuSans-51"/>
     <use x="127.246094" xlink:href="#DejaVuSans-49"/>
     <use x="190.869141" xlink:href="#DejaVuSans-51"/>
     <use x="254.492188" xlink:href="#DejaVuSans-53"/>
     <use x="318.115234" xlink:href="#DejaVuSans-32"/>
     <use x="349.902344" xlink:href="#DejaVuSans-40"/>
     <use x="388.916016" xlink:href="#DejaVuSans-50"/>
     <use x="452.539062" xlink:href="#DejaVuSans-48"/>
     <use x="516.162109" xlink:href="#DejaVuSans-50"/>
     <use x="579.785156" xlink:href="#DejaVuSans-48"/>
     <use x="643.408203" xlink:href="#DejaVuSans-45"/>
     <use x="679.492188" xlink:href="#DejaVuSans-48"/>
     <use x="743.115234" xlink:href="#DejaVuSans-55"/>
     <use x="806.738281" xlink:href="#DejaVuSans-45"/>
     <use x="842.822266" xlink:href="#DejaVuSans-49"/>
     <use x="906.445312" xlink:href="#DejaVuSans-54"/>
     <use x="970.068359" xlink:href="#DejaVuSans-41"/>
    </g>
   </g>
   <g id="text_25">
    <!-- Closed issues over time -->
    <defs>
     <path d="M 64.40625 67.28125 
L 64.40625 56.890625 
Q 59.421875 61.53125 53.78125 63.8125 
Q 48.140625 66.109375 41.796875 66.109375 
Q 29.296875 66.109375 22.65625 58.46875 
Q 16.015625 50.828125 16.015625 36.375 
Q 16.015625 21.96875 22.65625 14.328125 
Q 29.296875 6.6875 41.796875 6.6875 
Q 48.140625 6.6875 53.78125 8.984375 
Q 59.421875 11.28125 64.40625 15.921875 
L 64.40625 5.609375 
Q 59.234375 2.09375 53.4375 0.328125 
Q 47.65625 -1.421875 41.21875 -1.421875 
Q 24.65625 -1.421875 15.125 8.703125 
Q 5.609375 18.84375 5.609375 36.375 
Q 5.609375 53.953125 15.125 64.078125 
Q 24.65625 74.21875 41.21875 74.21875 
Q 47.75 74.21875 53.53125 72.484375 
Q 59.328125 70.75 64.40625 67.28125 
z
" id="DejaVuSans-67"/>
     <path d="M 9.421875 75.984375 
L 18.40625 75.984375 
L 18.40625 0 
L 9.421875 0 
z
" id="DejaVuSans-108"/>
     <path d="M 30.609375 48.390625 
Q 23.390625 48.390625 19.1875 42.75 
Q 14.984375 37.109375 14.984375 27.296875 
Q 14.984375 17.484375 19.15625 11.84375 
Q 23.34375 6.203125 30.609375 6.203125 
Q 37.796875 6.203125 41.984375 11.859375 
Q 46.1875 17.53125 46.1875 27.296875 
Q 46.1875 37.015625 41.984375 42.703125 
Q 37.796875 48.390625 30.609375 48.390625 
z
M 30.609375 56 
Q 42.328125 56 49.015625 48.375 
Q 55.71875 40.765625 55.71875 27.296875 
Q 55.71875 13.875 49.015625 6.21875 
Q 42.328125 -1.421875 30.609375 -1.421875 
Q 18.84375 -1.421875 12.171875 6.21875 
Q 5.515625 13.875 5.515625 27.296875 
Q 5.515625 40.765625 12.171875 48.375 
Q 18.84375 56 30.609375 56 
z
" id="DejaVuSans-111"/>
     <path d="M 44.28125 53.078125 
L 44.28125 44.578125 
Q 40.484375 46.53125 36.375 47.5 
Q 32.28125 48.484375 27.875 48.484375 
Q 21.1875 48.484375 17.84375 46.4375 
Q 14.5 44.390625 14.5 40.28125 
Q 14.5 37.15625 16.890625 35.375 
Q 19.28125 33.59375 26.515625 31.984375 
L 29.59375 31.296875 
Q 39.15625 29.25 43.1875 25.515625 
Q 47.21875 21.78125 47.21875 15.09375 
Q 47.21875 7.46875 41.1875 3.015625 
Q 35.15625 -1.421875 24.609375 -1.421875 
Q 20.21875 -1.421875 15.453125 -0.5625 
Q 10.6875 0.296875 5.421875 2 
L 5.421875 11.28125 
Q 10.40625 8.6875 15.234375 7.390625 
Q 20.0625 6.109375 24.8125 6.109375 
Q 31.15625 6.109375 34.5625 8.28125 
Q 37.984375 10.453125 37.984375 14.40625 
Q 37.984375 18.0625 35.515625 20.015625 
Q 33.0625 21.96875 24.703125 23.78125 
L 21.578125 24.515625 
Q 13.234375 26.265625 9.515625 29.90625 
Q 5.8125 33.546875 5.8125 39.890625 
Q 5.8125 47.609375 11.28125 51.796875 
Q 16.75 56 26.8125 56 
Q 31.78125 56 36.171875 55.265625 
Q 40.578125 54.546875 44.28125 53.078125 
z
" id="DejaVuSans-115"/>
     <path d="M 56.203125 29.59375 
L 56.203125 25.203125 
L 14.890625 25.203125 
Q 15.484375 15.921875 20.484375 11.0625 
Q 25.484375 6.203125 34.421875 6.203125 
Q 39.59375 6.203125 44.453125 7.46875 
Q 49.3125 8.734375 54.109375 11.28125 
L 54.109375 2.78125 
Q 49.265625 0.734375 44.1875 -0.34375 
Q 39.109375 -1.421875 33.890625 -1.421875 
Q 20.796875 -1.421875 13.15625 6.1875 
Q 5.515625 13.8125 5.515625 26.8125 
Q 5.515625 40.234375 12.765625 48.109375 
Q 20.015625 56 32.328125 56 
Q 43.359375 56 49.78125 48.890625 
Q 56.203125 41.796875 56.203125 29.59375 
z
M 47.21875 32.234375 
Q 47.125 39.59375 43.09375 43.984375 
Q 39.0625 48.390625 32.421875 48.390625 
Q 24.90625 48.390625 20.390625 44.140625 
Q 15.875 39.890625 15.1875 32.171875 
z
" id="DejaVuSans-101"/>
     <path d="M 45.40625 46.390625 
L 45.40625 75.984375 
L 54.390625 75.984375 
L 54.390625 0 
L 45.40625 0 
L 45.40625 8.203125 
Q 42.578125 3.328125 38.25 0.953125 
Q 33.9375 -1.421875 27.875 -1.421875 
Q 17.96875 -1.421875 11.734375 6.484375 
Q 5.515625 14.40625 5.515625 27.296875 
Q 5.515625 40.1875 11.734375 48.09375 
Q 17.96875 56 27.875 56 
Q 33.9375 56 38.25 53.625 
Q 42.578125 51.265625 45.40625 46.390625 
z
M 14.796875 27.296875 
Q 14.796875 17.390625 18.875 11.75 
Q 22.953125 6.109375 30.078125 6.109375 
Q 37.203125 6.109375 41.296875 11.75 
Q 45.40625 17.390625 45.40625 27.296875 
Q 45.40625 37.203125 41.296875 42.84375 
Q 37.203125 48.484375 30.078125 48.484375 
Q 22.953125 48.484375 18.875 42.84375 
Q 14.796875 37.203125 14.796875 27.296875 
z
" id="DejaVuSans-100"/>
     <path d="M 9.421875 54.6875 
L 18.40625 54.6875 
L 18.40625 0 
L 9.421875 0 
z
M 9.421875 75.984375 
L 18.40625 75.984375 
L 18.40625 64.59375 
L 9.421875 64.59375 
z
" id="DejaVuSans-105"/>
     <path d="M 8.5 21.578125 
L 8.5 54.6875 
L 17.484375 54.6875 
L 17.484375 21.921875 
Q 17.484375 14.15625 20.5 10.265625 
Q 23.53125 6.390625 29.59375 6.390625 
Q 36.859375 6.390625 41.078125 11.03125 
Q 45.3125 15.671875 45.3125 23.6875 
L 45.3125 54.6875 
L 54.296875 54.6875 
L 54.296875 0 
L 45.3125 0 
L 45.3125 8.40625 
Q 42.046875 3.421875 37.71875 1 
Q 33.40625 -1.421875 27.6875 -1.421875 
Q 18.265625 -1.421875 13.375 4.4375 
Q 8.5 10.296875 8.5 21.578125 
z
M 31.109375 56 
z
" id="DejaVuSans-117"/>
     <path d="M 2.984375 54.6875 
L 12.5 54.6875 
L 29.59375 8.796875 
L 46.6875 54.6875 
L 56.203125 54.6875 
L 35.6875 0 
L 23.484375 0 
z
" id="DejaVuSans-118"/>
     <path d="M 41.109375 46.296875 
Q 39.59375 47.171875 37.8125 47.578125 
Q 36.03125 48 33.890625 48 
Q 26.265625 48 22.1875 43.046875 
Q 18.109375 38.09375 18.109375 28.8125 
L 18.109375 0 
L 9.078125 0 
L 9.078125 54.6875 
L 18.109375 54.6875 
L 18.109375 46.1875 
Q 20.953125 51.171875 25.484375 53.578125 
Q 30.03125 56 36.53125 56 
Q 37.453125 56 38.578125 55.875 
Q 39.703125 55.765625 41.0625 55.515625 
z
" id="DejaVuSans-114"/>
     <path d="M 18.3125 70.21875 
L 18.3125 54.6875 
L 36.8125 54.6875 
L 36.8125 47.703125 
L 18.3125 47.703125 
L 18.3125 18.015625 
Q 18.3125 11.328125 20.140625 9.421875 
Q 21.96875 7.515625 27.59375 7.515625 
L 36.8125 7.515625 
L 36.8125 0 
L 27.59375 0 
Q 17.1875 0 13.234375 3.875 
Q 9.28125 7.765625 9.28125 18.015625 
L 9.28125 47.703125 
L 2.6875 47.703125 
L 2.6875 54.6875 
L 9.28125 54.6875 
L 9.28125 70.21875 
z
" id="DejaVuSans-116"/>
     <path d="M 52 44.1875 
Q 55.375 50.25 60.0625 53.125 
Q 64.75 56 71.09375 56 
Q 79.640625 56 84.28125 50.015625 
Q 88.921875 44.046875 88.921875 33.015625 
L 88.921875 0 
L 79.890625 0 
L 79.890625 32.71875 
Q 79.890625 40.578125 77.09375 44.375 
Q 74.3125 48.1875 68.609375 48.1875 
Q 61.625 48.1875 57.5625 43.546875 
Q 53.515625 38.921875 53.515625 30.90625 
L 53.515625 0 
L 44.484375 0 
L 44.484375 32.71875 
Q 44.484375 40.625 41.703125 44.40625 
Q 38.921875 48.1875 33.109375 48.1875 
Q 26.21875 48.1875 22.15625 43.53125 
Q 18.109375 38.875 18.109375 30.90625 
L 18.109375 0 
L 9.078125 0 
L 9.078125 54.6875 
L 18.109375 54.6875 
L 18.109375 46.1875 
Q 21.1875 51.21875 25.484375 53.609375 
Q 29.78125 56 35.6875 56 
Q 41.65625 56 45.828125 52.96875 
Q 50 49.953125 52 44.1875 
z
" id="DejaVuSans-109"/>
    </defs>
    <g style="fill:#262626;" transform="translate(297.650625 80.4)scale(0.12 -0.12)">
     <use xlink:href="#DejaVuSans-67"/>
     <use x="69.824219" xlink:href="#DejaVuSans-108"/>
     <use x="97.607422" xlink:href="#DejaVuSans-111"/>
     <use x="158.789062" xlink:href="#DejaVuSans-115"/>
     <use x="210.888672" xlink:href="#DejaVuSans-101"/>
     <use x="272.412109" xlink:href="#DejaVuSans-100"/>
     <use x="335.888672" xlink:href="#DejaVuSans-32"/>
     <use x="367.675781" xlink:href="#DejaVuSans-105"/>
     <use x="395.458984" xlink:href="#DejaVuSans-115"/>
     <use x="447.558594" xlink:href="#DejaVuSans-115"/>
     <use x="499.658203" xlink:href="#DejaVuSans-117"/>
     <use x="563.037109" xlink:href="#DejaVuSans-101"/>
     <use x="624.560547" xlink:href="#DejaVuSans-115"/>
     <use x="676.660156" xlink:href="#DejaVuSans-32"/>
     <use x="708.447266" xlink:href="#DejaVuSans-111"/>
     <use x="769.628906" xlink:href="#DejaVuSans-118"/>
     <use x="828.808594" xlink:href="#DejaVuSans-101"/>
     <use x="890.332031" xlink:href="#DejaVuSans-114"/>
     <use x="931.445312" xlink:href="#DejaVuSans-32"/>
     <use x="963.232422" xlink:href="#DejaVuSans-116"/>
     <use x="1002.441406" xlink:href="#DejaVuSans-105"/>
     <use x="1030.224609" xlink:href="#DejaVuSans-109"/>
     <use x="1127.636719" xlink:href="#DejaVuSans-101"/>
    </g>
   </g>
  </g>
 </g>
 <defs>
  <clipPath id="peac608fc50">
   <rect height="554.4" width="558" x="90" y="86.4"/>
  </clipPath>
 </defs>
</svg>
