<?xml version="1.0" encoding="utf-8" standalone="no"?>
<!DOCTYPE svg PUBLIC "-//W3C//DTD SVG 1.1//EN"
  "http://www.w3.org/Graphics/SVG/1.1/DTD/svg11.dtd">
<!-- Created with matplotlib (https://matplotlib.org/) -->
<svg height="720pt" version="1.1" viewBox="0 0 720 720" width="720pt" xmlns="http://www.w3.org/2000/svg" xmlns:xlink="http://www.w3.org/1999/xlink">
 <defs>
  <style type="text/css">
*{stroke-linecap:butt;stroke-linejoin:round;}
  </style>
 </defs>
 <g id="figure_1">
  <g id="patch_1">
   <path d="M 0 720 
L 720 720 
L 720 0 
L 0 0 
z
" style="fill:#ffffff;"/>
  </g>
  <g id="axes_1">
   <g id="patch_2">
    <path d="M 90 640.8 
L 648 640.8 
L 648 86.4 
L 90 86.4 
z
" style="fill:#ffffff;"/>
   </g>
   <g id="matplotlib.axis_1">
    <g id="xtick_1">
     <g id="line2d_1">
      <path clip-path="url(#p4273800c15)" d="M 162.54349 640.8 
L 162.54349 86.4 
" style="fill:none;stroke:#cccccc;stroke-linecap:round;stroke-width:0.8;"/>
     </g>
     <g id="line2d_2"/>
     <g id="text_1">
      <!-- 2015 -->
      <defs>
       <path d="M 19.1875 8.296875 
L 53.609375 8.296875 
L 53.609375 0 
L 7.328125 0 
L 7.328125 8.296875 
Q 12.9375 14.109375 22.625 23.890625 
Q 32.328125 33.6875 34.8125 36.53125 
Q 39.546875 41.84375 41.421875 45.53125 
Q 43.3125 49.21875 43.3125 52.78125 
Q 43.3125 58.59375 39.234375 62.25 
Q 35.15625 65.921875 28.609375 65.921875 
Q 23.96875 65.921875 18.8125 64.3125 
Q 13.671875 62.703125 7.8125 59.421875 
L 7.8125 69.390625 
Q 13.765625 71.78125 18.9375 73 
Q 24.125 74.21875 28.421875 74.21875 
Q 39.75 74.21875 46.484375 68.546875 
Q 53.21875 62.890625 53.21875 53.421875 
Q 53.21875 48.921875 51.53125 44.890625 
Q 49.859375 40.875 45.40625 35.40625 
Q 44.1875 33.984375 37.640625 27.21875 
Q 31.109375 20.453125 19.1875 8.296875 
z
" id="DejaVuSans-50"/>
       <path d="M 31.78125 66.40625 
Q 24.171875 66.40625 20.328125 58.90625 
Q 16.5 51.421875 16.5 36.375 
Q 16.5 21.390625 20.328125 13.890625 
Q 24.171875 6.390625 31.78125 6.390625 
Q 39.453125 6.390625 43.28125 13.890625 
Q 47.125 21.390625 47.125 36.375 
Q 47.125 51.421875 43.28125 58.90625 
Q 39.453125 66.40625 31.78125 66.40625 
z
M 31.78125 74.21875 
Q 44.046875 74.21875 50.515625 64.515625 
Q 56.984375 54.828125 56.984375 36.375 
Q 56.984375 17.96875 50.515625 8.265625 
Q 44.046875 -1.421875 31.78125 -1.421875 
Q 19.53125 -1.421875 13.0625 8.265625 
Q 6.59375 17.96875 6.59375 36.375 
Q 6.59375 54.828125 13.0625 64.515625 
Q 19.53125 74.21875 31.78125 74.21875 
z
" id="DejaVuSans-48"/>
       <path d="M 12.40625 8.296875 
L 28.515625 8.296875 
L 28.515625 63.921875 
L 10.984375 60.40625 
L 10.984375 69.390625 
L 28.421875 72.90625 
L 38.28125 72.90625 
L 38.28125 8.296875 
L 54.390625 8.296875 
L 54.390625 0 
L 12.40625 0 
z
" id="DejaVuSans-49"/>
       <path d="M 10.796875 72.90625 
L 49.515625 72.90625 
L 49.515625 64.59375 
L 19.828125 64.59375 
L 19.828125 46.734375 
Q 21.96875 47.46875 24.109375 47.828125 
Q 26.265625 48.1875 28.421875 48.1875 
Q 40.625 48.1875 47.75 41.5 
Q 54.890625 34.8125 54.890625 23.390625 
Q 54.890625 11.625 47.5625 5.09375 
Q 40.234375 -1.421875 26.90625 -1.421875 
Q 22.3125 -1.421875 17.546875 -0.640625 
Q 12.796875 0.140625 7.71875 1.703125 
L 7.71875 11.625 
Q 12.109375 9.234375 16.796875 8.0625 
Q 21.484375 6.890625 26.703125 6.890625 
Q 35.15625 6.890625 40.078125 11.328125 
Q 45.015625 15.765625 45.015625 23.390625 
Q 45.015625 31 40.078125 35.4375 
Q 35.15625 39.890625 26.703125 39.890625 
Q 22.75 39.890625 18.8125 39.015625 
Q 14.890625 38.140625 10.796875 36.28125 
z
" id="DejaVuSans-53"/>
      </defs>
      <g style="fill:#262626;" transform="translate(149.81849 651.898438)scale(0.1 -0.1)">
       <use xlink:href="#DejaVuSans-50"/>
       <use x="63.623047" xlink:href="#DejaVuSans-48"/>
       <use x="127.246094" xlink:href="#DejaVuSans-49"/>
       <use x="190.869141" xlink:href="#DejaVuSans-53"/>
      </g>
     </g>
    </g>
    <g id="xtick_2">
     <g id="line2d_3">
      <path clip-path="url(#p4273800c15)" d="M 245.381176 640.8 
L 245.381176 86.4 
" style="fill:none;stroke:#cccccc;stroke-linecap:round;stroke-width:0.8;"/>
     </g>
     <g id="line2d_4"/>
     <g id="text_2">
      <!-- 2016 -->
      <defs>
       <path d="M 33.015625 40.375 
Q 26.375 40.375 22.484375 35.828125 
Q 18.609375 31.296875 18.609375 23.390625 
Q 18.609375 15.53125 22.484375 10.953125 
Q 26.375 6.390625 33.015625 6.390625 
Q 39.65625 6.390625 43.53125 10.953125 
Q 47.40625 15.53125 47.40625 23.390625 
Q 47.40625 31.296875 43.53125 35.828125 
Q 39.65625 40.375 33.015625 40.375 
z
M 52.59375 71.296875 
L 52.59375 62.3125 
Q 48.875 64.0625 45.09375 64.984375 
Q 41.3125 65.921875 37.59375 65.921875 
Q 27.828125 65.921875 22.671875 59.328125 
Q 17.53125 52.734375 16.796875 39.40625 
Q 19.671875 43.65625 24.015625 45.921875 
Q 28.375 48.1875 33.59375 48.1875 
Q 44.578125 48.1875 50.953125 41.515625 
Q 57.328125 34.859375 57.328125 23.390625 
Q 57.328125 12.15625 50.6875 5.359375 
Q 44.046875 -1.421875 33.015625 -1.421875 
Q 20.359375 -1.421875 13.671875 8.265625 
Q 6.984375 17.96875 6.984375 36.375 
Q 6.984375 53.65625 15.1875 63.9375 
Q 23.390625 74.21875 37.203125 74.21875 
Q 40.921875 74.21875 44.703125 73.484375 
Q 48.484375 72.75 52.59375 71.296875 
z
" id="DejaVuSans-54"/>
      </defs>
      <g style="fill:#262626;" transform="translate(232.656176 651.898438)scale(0.1 -0.1)">
       <use xlink:href="#DejaVuSans-50"/>
       <use x="63.623047" xlink:href="#DejaVuSans-48"/>
       <use x="127.246094" xlink:href="#DejaVuSans-49"/>
       <use x="190.869141" xlink:href="#DejaVuSans-54"/>
      </g>
     </g>
    </g>
    <g id="xtick_3">
     <g id="line2d_5">
      <path clip-path="url(#p4273800c15)" d="M 328.445814 640.8 
L 328.445814 86.4 
" style="fill:none;stroke:#cccccc;stroke-linecap:round;stroke-width:0.8;"/>
     </g>
     <g id="line2d_6"/>
     <g id="text_3">
      <!-- 2017 -->
      <defs>
       <path d="M 8.203125 72.90625 
L 55.078125 72.90625 
L 55.078125 68.703125 
L 28.609375 0 
L 18.3125 0 
L 43.21875 64.59375 
L 8.203125 64.59375 
z
" id="DejaVuSans-55"/>
      </defs>
      <g style="fill:#262626;" transform="translate(315.720814 651.898438)scale(0.1 -0.1)">
       <use xlink:href="#DejaVuSans-50"/>
       <use x="63.623047" xlink:href="#DejaVuSans-48"/>
       <use x="127.246094" xlink:href="#DejaVuSans-49"/>
       <use x="190.869141" xlink:href="#DejaVuSans-55"/>
      </g>
     </g>
    </g>
    <g id="xtick_4">
     <g id="line2d_7">
      <path clip-path="url(#p4273800c15)" d="M 411.283499 640.8 
L 411.283499 86.4 
" style="fill:none;stroke:#cccccc;stroke-linecap:round;stroke-width:0.8;"/>
     </g>
     <g id="line2d_8"/>
     <g id="text_4">
      <!-- 2018 -->
      <defs>
       <path d="M 31.78125 34.625 
Q 24.75 34.625 20.71875 30.859375 
Q 16.703125 27.09375 16.703125 20.515625 
Q 16.703125 13.921875 20.71875 10.15625 
Q 24.75 6.390625 31.78125 6.390625 
Q 38.8125 6.390625 42.859375 10.171875 
Q 46.921875 13.96875 46.921875 20.515625 
Q 46.921875 27.09375 42.890625 30.859375 
Q 38.875 34.625 31.78125 34.625 
z
M 21.921875 38.8125 
Q 15.578125 40.375 12.03125 44.71875 
Q 8.5 49.078125 8.5 55.328125 
Q 8.5 64.0625 14.71875 69.140625 
Q 20.953125 74.21875 31.78125 74.21875 
Q 42.671875 74.21875 48.875 69.140625 
Q 55.078125 64.0625 55.078125 55.328125 
Q 55.078125 49.078125 51.53125 44.71875 
Q 48 40.375 41.703125 38.8125 
Q 48.828125 37.15625 52.796875 32.3125 
Q 56.78125 27.484375 56.78125 20.515625 
Q 56.78125 9.90625 50.3125 4.234375 
Q 43.84375 -1.421875 31.78125 -1.421875 
Q 19.734375 -1.421875 13.25 4.234375 
Q 6.78125 9.90625 6.78125 20.515625 
Q 6.78125 27.484375 10.78125 32.3125 
Q 14.796875 37.15625 21.921875 38.8125 
z
M 18.3125 54.390625 
Q 18.3125 48.734375 21.84375 45.5625 
Q 25.390625 42.390625 31.78125 42.390625 
Q 38.140625 42.390625 41.71875 45.5625 
Q 45.3125 48.734375 45.3125 54.390625 
Q 45.3125 60.0625 41.71875 63.234375 
Q 38.140625 66.40625 31.78125 66.40625 
Q 25.390625 66.40625 21.84375 63.234375 
Q 18.3125 60.0625 18.3125 54.390625 
z
" id="DejaVuSans-56"/>
      </defs>
      <g style="fill:#262626;" transform="translate(398.558499 651.898438)scale(0.1 -0.1)">
       <use xlink:href="#DejaVuSans-50"/>
       <use x="63.623047" xlink:href="#DejaVuSans-48"/>
       <use x="127.246094" xlink:href="#DejaVuSans-49"/>
       <use x="190.869141" xlink:href="#DejaVuSans-56"/>
      </g>
     </g>
    </g>
    <g id="xtick_5">
     <g id="line2d_9">
      <path clip-path="url(#p4273800c15)" d="M 494.121185 640.8 
L 494.121185 86.4 
" style="fill:none;stroke:#cccccc;stroke-linecap:round;stroke-width:0.8;"/>
     </g>
     <g id="line2d_10"/>
     <g id="text_5">
      <!-- 2019 -->
      <defs>
       <path d="M 10.984375 1.515625 
L 10.984375 10.5 
Q 14.703125 8.734375 18.5 7.8125 
Q 22.3125 6.890625 25.984375 6.890625 
Q 35.75 6.890625 40.890625 13.453125 
Q 46.046875 20.015625 46.78125 33.40625 
Q 43.953125 29.203125 39.59375 26.953125 
Q 35.25 24.703125 29.984375 24.703125 
Q 19.046875 24.703125 12.671875 31.3125 
Q 6.296875 37.9375 6.296875 49.421875 
Q 6.296875 60.640625 12.9375 67.421875 
Q 19.578125 74.21875 30.609375 74.21875 
Q 43.265625 74.21875 49.921875 64.515625 
Q 56.59375 54.828125 56.59375 36.375 
Q 56.59375 19.140625 48.40625 8.859375 
Q 40.234375 -1.421875 26.421875 -1.421875 
Q 22.703125 -1.421875 18.890625 -0.6875 
Q 15.09375 0.046875 10.984375 1.515625 
z
M 30.609375 32.421875 
Q 37.25 32.421875 41.125 36.953125 
Q 45.015625 41.5 45.015625 49.421875 
Q 45.015625 57.28125 41.125 61.84375 
Q 37.25 66.40625 30.609375 66.40625 
Q 23.96875 66.40625 20.09375 61.84375 
Q 16.21875 57.28125 16.21875 49.421875 
Q 16.21875 41.5 20.09375 36.953125 
Q 23.96875 32.421875 30.609375 32.421875 
z
" id="DejaVuSans-57"/>
      </defs>
      <g style="fill:#262626;" transform="translate(481.396185 651.898438)scale(0.1 -0.1)">
       <use xlink:href="#DejaVuSans-50"/>
       <use x="63.623047" xlink:href="#DejaVuSans-48"/>
       <use x="127.246094" xlink:href="#DejaVuSans-49"/>
       <use x="190.869141" xlink:href="#DejaVuSans-57"/>
      </g>
     </g>
    </g>
    <g id="xtick_6">
     <g id="line2d_11">
      <path clip-path="url(#p4273800c15)" d="M 576.958871 640.8 
L 576.958871 86.4 
" style="fill:none;stroke:#cccccc;stroke-linecap:round;stroke-width:0.8;"/>
     </g>
     <g id="line2d_12"/>
     <g id="text_6">
      <!-- 2020 -->
      <g style="fill:#262626;" transform="translate(564.233871 651.898438)scale(0.1 -0.1)">
       <use xlink:href="#DejaVuSans-50"/>
       <use x="63.623047" xlink:href="#DejaVuSans-48"/>
       <use x="127.246094" xlink:href="#DejaVuSans-50"/>
       <use x="190.869141" xlink:href="#DejaVuSans-48"/>
      </g>
     </g>
    </g>
   </g>
   <g id="matplotlib.axis_2">
    <g id="ytick_1">
     <g id="line2d_13">
      <path clip-path="url(#p4273800c15)" d="M 90 615.608936 
L 648 615.608936 
" style="fill:none;stroke:#cccccc;stroke-linecap:round;stroke-width:0.8;"/>
     </g>
     <g id="line2d_14"/>
     <g id="text_7">
      <!-- 0 -->
      <g style="fill:#262626;" transform="translate(80.1375 619.408154)scale(0.1 -0.1)">
       <use xlink:href="#DejaVuSans-48"/>
      </g>
     </g>
    </g>
    <g id="ytick_2">
     <g id="line2d_15">
      <path clip-path="url(#p4273800c15)" d="M 90 526.253571 
L 648 526.253571 
" style="fill:none;stroke:#cccccc;stroke-linecap:round;stroke-width:0.8;"/>
     </g>
     <g id="line2d_16"/>
     <g id="text_8">
      <!-- 10000 -->
      <g style="fill:#262626;" transform="translate(54.6875 530.052789)scale(0.1 -0.1)">
       <use xlink:href="#DejaVuSans-49"/>
       <use x="63.623047" xlink:href="#DejaVuSans-48"/>
       <use x="127.246094" xlink:href="#DejaVuSans-48"/>
       <use x="190.869141" xlink:href="#DejaVuSans-48"/>
       <use x="254.492188" xlink:href="#DejaVuSans-48"/>
      </g>
     </g>
    </g>
    <g id="ytick_3">
     <g id="line2d_17">
      <path clip-path="url(#p4273800c15)" d="M 90 436.898206 
L 648 436.898206 
" style="fill:none;stroke:#cccccc;stroke-linecap:round;stroke-width:0.8;"/>
     </g>
     <g id="line2d_18"/>
     <g id="text_9">
      <!-- 20000 -->
      <g style="fill:#262626;" transform="translate(54.6875 440.697425)scale(0.1 -0.1)">
       <use xlink:href="#DejaVuSans-50"/>
       <use x="63.623047" xlink:href="#DejaVuSans-48"/>
       <use x="127.246094" xlink:href="#DejaVuSans-48"/>
       <use x="190.869141" xlink:href="#DejaVuSans-48"/>
       <use x="254.492188" xlink:href="#DejaVuSans-48"/>
      </g>
     </g>
    </g>
    <g id="ytick_4">
     <g id="line2d_19">
      <path clip-path="url(#p4273800c15)" d="M 90 347.542841 
L 648 347.542841 
" style="fill:none;stroke:#cccccc;stroke-linecap:round;stroke-width:0.8;"/>
     </g>
     <g id="line2d_20"/>
     <g id="text_10">
      <!-- 30000 -->
      <defs>
       <path d="M 40.578125 39.3125 
Q 47.65625 37.796875 51.625 33 
Q 55.609375 28.21875 55.609375 21.1875 
Q 55.609375 10.40625 48.1875 4.484375 
Q 40.765625 -1.421875 27.09375 -1.421875 
Q 22.515625 -1.421875 17.65625 -0.515625 
Q 12.796875 0.390625 7.625 2.203125 
L 7.625 11.71875 
Q 11.71875 9.328125 16.59375 8.109375 
Q 21.484375 6.890625 26.8125 6.890625 
Q 36.078125 6.890625 40.9375 10.546875 
Q 45.796875 14.203125 45.796875 21.1875 
Q 45.796875 27.640625 41.28125 31.265625 
Q 36.765625 34.90625 28.71875 34.90625 
L 20.21875 34.90625 
L 20.21875 43.015625 
L 29.109375 43.015625 
Q 36.375 43.015625 40.234375 45.921875 
Q 44.09375 48.828125 44.09375 54.296875 
Q 44.09375 59.90625 40.109375 62.90625 
Q 36.140625 65.921875 28.71875 65.921875 
Q 24.65625 65.921875 20.015625 65.03125 
Q 15.375 64.15625 9.8125 62.3125 
L 9.8125 71.09375 
Q 15.4375 72.65625 20.34375 73.4375 
Q 25.25 74.21875 29.59375 74.21875 
Q 40.828125 74.21875 47.359375 69.109375 
Q 53.90625 64.015625 53.90625 55.328125 
Q 53.90625 49.265625 50.4375 45.09375 
Q 46.96875 40.921875 40.578125 39.3125 
z
" id="DejaVuSans-51"/>
      </defs>
      <g style="fill:#262626;" transform="translate(54.6875 351.34206)scale(0.1 -0.1)">
       <use xlink:href="#DejaVuSans-51"/>
       <use x="63.623047" xlink:href="#DejaVuSans-48"/>
       <use x="127.246094" xlink:href="#DejaVuSans-48"/>
       <use x="190.869141" xlink:href="#DejaVuSans-48"/>
       <use x="254.492188" xlink:href="#DejaVuSans-48"/>
      </g>
     </g>
    </g>
    <g id="ytick_5">
     <g id="line2d_21">
      <path clip-path="url(#p4273800c15)" d="M 90 258.187476 
L 648 258.187476 
" style="fill:none;stroke:#cccccc;stroke-linecap:round;stroke-width:0.8;"/>
     </g>
     <g id="line2d_22"/>
     <g id="text_11">
      <!-- 40000 -->
      <defs>
       <path d="M 37.796875 64.3125 
L 12.890625 25.390625 
L 37.796875 25.390625 
z
M 35.203125 72.90625 
L 47.609375 72.90625 
L 47.609375 25.390625 
L 58.015625 25.390625 
L 58.015625 17.1875 
L 47.609375 17.1875 
L 47.609375 0 
L 37.796875 0 
L 37.796875 17.1875 
L 4.890625 17.1875 
L 4.890625 26.703125 
z
" id="DejaVuSans-52"/>
      </defs>
      <g style="fill:#262626;" transform="translate(54.6875 261.986695)scale(0.1 -0.1)">
       <use xlink:href="#DejaVuSans-52"/>
       <use x="63.623047" xlink:href="#DejaVuSans-48"/>
       <use x="127.246094" xlink:href="#DejaVuSans-48"/>
       <use x="190.869141" xlink:href="#DejaVuSans-48"/>
       <use x="254.492188" xlink:href="#DejaVuSans-48"/>
      </g>
     </g>
    </g>
    <g id="ytick_6">
     <g id="line2d_23">
      <path clip-path="url(#p4273800c15)" d="M 90 168.832111 
L 648 168.832111 
" style="fill:none;stroke:#cccccc;stroke-linecap:round;stroke-width:0.8;"/>
     </g>
     <g id="line2d_24"/>
     <g id="text_12">
      <!-- 50000 -->
      <g style="fill:#262626;" transform="translate(54.6875 172.63133)scale(0.1 -0.1)">
       <use xlink:href="#DejaVuSans-53"/>
       <use x="63.623047" xlink:href="#DejaVuSans-48"/>
       <use x="127.246094" xlink:href="#DejaVuSans-48"/>
       <use x="190.869141" xlink:href="#DejaVuSans-48"/>
       <use x="254.492188" xlink:href="#DejaVuSans-48"/>
      </g>
     </g>
    </g>
   </g>
   <g id="line2d_25">
    <path clip-path="url(#p4273800c15)" d="M 115.363636 615.6 
L 116.479442 615.215772 
L 116.514648 615.197901 
L 116.700258 615.081739 
L 116.93123 614.911964 
L 117.772147 614.751124 
L 118.109678 614.590284 
L 118.450039 614.447316 
L 118.46482 614.429445 
L 119.233782 614.286476 
L 119.394842 614.197121 
L 119.608992 614.080959 
L 119.901196 613.964797 
L 120.030895 613.946926 
L 120.357352 613.839699 
L 120.955616 613.714602 
L 121.061036 613.562698 
L 122.784659 613.303567 
L 122.885906 613.232083 
L 123.259713 613.089114 
L 123.333202 613.035501 
L 123.952504 612.883597 
L 124.202044 612.713822 
L 124.829116 612.445756 
L 124.891123 612.3564 
L 125.569472 612.204496 
L 125.570873 612.186625 
L 125.936114 612.061528 
L 126.014053 612.01685 
L 126.283477 611.900688 
L 126.422234 611.847075 
L 127.080204 611.704106 
L 127.525378 611.400298 
L 127.975445 611.176909 
L 128.051524 611.114361 
L 128.677919 610.998199 
L 128.786817 610.882037 
L 128.912276 610.765875 
L 128.962206 610.721197 
L 129.414566 610.587164 
L 130.521462 610.310162 
L 130.555323 610.27442 
L 130.973287 610.140387 
L 131.004616 610.077838 
L 131.846463 609.916999 
L 131.920677 609.782966 
L 132.32942 609.648933 
L 132.407175 609.568513 
L 133.533535 609.362996 
L 133.54256 609.345124 
L 133.682651 609.228962 
L 133.778347 609.130672 
L 133.981698 609.005574 
L 134.338276 608.791121 
L 134.383073 608.737508 
L 135.303013 608.621346 
L 135.918488 608.389022 
L 136.039517 608.299667 
L 136.67827 608.147763 
L 137.08793 607.915439 
L 137.166893 607.843954 
L 137.520616 607.709921 
L 140.247314 607.021885 
L 140.345857 606.93253 
L 140.711734 606.798497 
L 140.761449 606.727012 
L 141.583936 606.592979 
L 141.656322 606.539366 
L 142.057214 606.405333 
L 142.376093 606.155138 
L 143.033514 606.012169 
L 143.257499 605.77091 
L 143.482326 605.654748 
L 143.538901 605.627941 
L 143.687164 605.502844 
L 143.746439 605.440295 
L 143.914647 605.315198 
L 144.081791 605.297326 
L 144.628539 605.172229 
L 145.263166 604.805872 
L 145.376965 604.707581 
L 145.505135 604.582484 
L 145.584687 604.484193 
L 146.183474 604.368031 
L 146.200188 604.332288 
L 146.408659 604.216127 
L 146.471197 604.144642 
L 146.844773 603.992738 
L 146.873917 603.94806 
L 147.7864 603.787221 
L 147.854825 603.706801 
L 148.179091 603.572768 
L 148.244248 603.456606 
L 148.517573 603.331508 
L 148.627669 603.286831 
L 148.936138 603.206411 
L 149.662045 602.893667 
L 150.077271 602.598794 
L 150.921069 602.437955 
L 151.02635 602.241373 
L 151.19782 602.116275 
L 151.263426 602.044791 
L 151.462648 601.919694 
L 151.825436 601.723112 
L 151.926099 601.562272 
L 152.499934 601.428239 
L 152.613276 601.294206 
L 152.773331 601.178044 
L 153.263175 600.918914 
L 153.294652 600.901042 
L 154.086532 600.713396 
L 154.199559 600.579363 
L 154.368484 600.454266 
L 154.382868 600.427459 
L 155.682529 600.230877 
L 155.790654 600.10578 
L 155.979795 599.980682 
L 156.118998 599.900262 
L 156.63807 599.632196 
L 156.707041 599.614325 
L 157.332004 599.498163 
L 157.33442 599.480292 
L 157.544073 599.36413 
L 157.568707 599.310517 
L 157.787761 599.185419 
L 157.787932 599.176484 
L 157.978393 599.060322 
L 158.047343 598.970967 
L 158.238351 598.845869 
L 158.291173 598.819062 
L 158.883742 598.702901 
L 158.935741 598.577803 
L 159.131112 598.452705 
L 159.154635 598.390157 
L 159.509892 598.256124 
L 159.651141 598.068477 
L 159.824602 597.94338 
L 159.83943 597.880831 
L 160.500858 597.764669 
L 160.54152 597.719991 
L 162.314929 597.487668 
L 162.332893 597.469796 
L 163.663447 597.344699 
L 163.73163 597.255344 
L 163.881022 597.139182 
L 163.975302 597.076633 
L 164.087171 596.960471 
L 164.192157 596.728147 
L 164.333419 596.603049 
L 164.399052 596.52263 
L 164.571567 596.406468 
L 164.599429 596.343919 
L 165.246617 596.227757 
L 165.283957 596.093724 
L 165.506042 595.977562 
L 165.564109 595.959691 
L 165.699374 595.834593 
L 165.786798 595.638011 
L 165.926411 595.52185 
L 165.970021 595.36101 
L 166.153253 595.244848 
L 166.189747 595.20017 
L 167.060084 595.084008 
L 167.241244 594.869555 
L 167.519752 594.538941 
L 167.581872 594.44065 
L 167.748499 594.324488 
L 167.84276 594.235132 
L 168.505748 594.110035 
L 168.639466 593.993873 
L 169.177887 593.386256 
L 169.288708 593.270094 
L 169.3637 593.153932 
L 169.985098 593.028835 
L 170.061106 592.832253 
L 170.225205 592.716091 
L 170.386657 592.555251 
L 170.485494 592.412283 
L 170.545983 592.349734 
L 170.658075 592.233572 
L 170.95584 591.768924 
L 171.608363 591.652762 
L 171.635158 591.61702 
L 171.811362 591.500858 
L 171.861428 591.420438 
L 172.047201 591.304276 
L 172.120748 591.152372 
L 172.248232 591.03621 
L 172.60687 590.669853 
L 173.377873 590.553691 
L 173.482805 590.232012 
L 173.651125 590.106914 
L 173.7278 589.999688 
L 173.84979 589.87459 
L 173.972688 589.651202 
L 174.057491 589.517169 
L 174.128521 589.240167 
L 174.741837 589.124005 
L 174.808121 588.864875 
L 175.164623 588.730842 
L 175.46305 588.462776 
L 175.546615 588.364485 
L 175.667412 588.248323 
L 175.715345 588.203645 
L 176.339336 588.060677 
L 176.439555 587.917708 
L 176.575758 587.79261 
L 176.853153 587.381576 
L 176.894653 587.336898 
L 177.030123 587.220736 
L 177.481527 586.729282 
L 177.925574 586.61312 
L 178.007015 586.434409 
L 178.138736 586.318247 
L 178.251506 586.041245 
L 178.369311 585.925083 
L 178.457405 585.621275 
L 178.595812 585.469371 
L 178.744256 585.219176 
L 178.834837 585.094078 
L 178.88727 584.87069 
L 179.495169 584.754528 
L 179.566026 584.45072 
L 179.713054 584.334558 
L 180.082538 583.878845 
L 180.192077 583.753748 
L 180.508468 583.2891 
L 181.123901 583.155067 
L 181.194274 583.047841 
L 181.301551 582.931679 
L 181.405992 582.601064 
L 181.54639 582.475966 
L 181.905306 581.70751 
L 181.994671 581.528799 
L 182.076319 581.323282 
L 182.673122 581.171378 
L 182.771981 580.939054 
L 182.88748 580.813956 
L 182.968841 580.54589 
L 183.158147 580.411857 
L 183.516017 579.634466 
L 183.628939 579.491497 
L 183.660834 579.411077 
L 184.277927 579.268109 
L 185.401045 577.856294 
L 185.854829 577.713325 
L 185.928305 577.472066 
L 186.07879 577.355904 
L 186.154454 577.12358 
L 186.313145 576.989547 
L 186.50835 576.766158 
L 186.584897 576.587448 
L 186.733306 576.444479 
L 187.001917 576.149606 
L 187.454858 576.006638 
L 187.576989 575.613474 
L 187.697138 575.479441 
L 187.756487 575.30073 
L 187.889233 575.184568 
L 187.974564 574.836083 
L 188.144988 574.693114 
L 188.465871 574.183788 
L 189.030161 574.067626 
L 189.27818 573.522559 
L 189.485427 573.272364 
L 189.581435 573.12046 
L 189.71395 572.977491 
L 189.884997 572.646876 
L 189.954688 572.521779 
L 190.012422 572.352003 
L 190.583381 572.226906 
L 190.68619 571.860549 
L 190.894282 571.565676 
L 191.049886 571.360159 
L 191.73512 570.609574 
L 191.749134 570.600638 
L 192.160722 570.484476 
L 192.274529 570.100248 
L 192.344992 570.019828 
L 192.425926 569.894731 
L 192.57407 569.680278 
L 192.947956 568.983306 
L 193.223574 568.5544 
L 193.783485 568.411432 
L 193.880321 567.866364 
L 194.042978 567.678718 
L 194.083144 567.63404 
L 194.469912 567.500007 
L 194.534759 567.124715 
L 194.727858 566.990682 
L 194.817149 566.785164 
L 195.611425 566.642196 
L 195.723173 566.347323 
L 195.843332 566.222225 
L 195.89281 566.088192 
L 195.98912 565.97203 
L 196.112418 565.802255 
L 196.241618 565.364414 
L 196.323854 565.239316 
L 196.390905 565.042735 
L 196.978468 564.89083 
L 197.061334 564.676378 
L 197.218215 564.542345 
L 197.285011 564.354698 
L 197.39756 564.184923 
L 197.6401 563.782824 
L 197.710303 563.586242 
L 197.770078 563.479016 
L 197.892422 563.362854 
L 197.933105 563.166272 
L 198.577722 563.023303 
L 198.671087 562.862464 
L 198.795995 562.746302 
L 198.903196 562.505042 
L 199.044125 562.379945 
L 199.156858 562.174427 
L 199.252081 562.04933 
L 199.379298 561.709779 
L 199.512328 561.504262 
L 199.579489 561.325551 
L 200.154687 561.182583 
L 200.241752 561.039614 
L 200.346205 560.959194 
L 200.424299 560.816226 
L 200.463372 560.62858 
L 200.636061 560.512418 
L 200.737874 560.3069 
L 200.865509 560.137125 
L 201.154566 559.332927 
L 201.750419 559.198894 
L 202.773486 558.126629 
L 203.338469 558.010467 
L 203.43303 557.778143 
L 203.594238 557.608368 
L 203.68219 557.420722 
L 203.801655 557.268818 
L 203.873476 557.054365 
L 204.933116 556.741621 
L 204.99951 556.482491 
L 205.151791 556.348458 
L 205.263967 556.098263 
L 205.402984 555.946358 
L 205.514585 555.553195 
L 205.703633 555.285129 
L 205.81019 555.204709 
L 205.913406 554.88303 
L 205.977954 554.820481 
L 206.507066 554.668577 
L 206.6261 554.311155 
L 206.754423 554.194993 
L 206.863938 553.846507 
L 207.007231 553.712474 
L 207.11314 553.587377 
L 207.251518 553.462279 
L 207.48784 552.881469 
L 207.70449 552.711694 
L 207.76246 552.470435 
L 208.090859 552.327466 
L 208.345413 551.827076 
L 208.611749 551.710914 
L 209.170383 550.334842 
L 209.657026 550.21868 
L 209.747633 550.013162 
L 209.754836 549.97742 
L 210.134099 549.843387 
L 210.261213 549.441288 
L 210.393471 549.31619 
L 210.499359 549.146415 
L 210.595233 549.012382 
L 210.705174 548.824736 
L 211.279658 548.708574 
L 211.463103 548.458379 
L 211.560948 548.324346 
L 211.664109 548.083086 
L 211.773913 547.957989 
L 211.884124 547.7346 
L 212.123018 547.323566 
L 212.713042 547.064435 
L 212.823185 546.939338 
L 212.938789 546.510432 
L 213.083965 546.349592 
L 213.884198 545.134359 
L 214.393762 545.018197 
L 214.669118 544.705454 
L 214.761677 544.535678 
L 214.91388 544.383774 
L 214.950686 544.240806 
L 215.442246 543.356188 
L 216.044075 543.240026 
L 216.14649 543.034508 
L 216.307984 542.837926 
L 216.417987 542.677087 
L 216.520983 542.525183 
L 216.563366 542.409021 
L 216.78404 542.274988 
L 217.068871 541.846082 
L 217.665819 541.685242 
L 217.768862 541.622693 
L 217.854405 541.48866 
L 217.964165 541.274208 
L 218.190621 540.898915 
L 218.35752 540.773817 
L 218.542326 540.353847 
L 218.74424 540.175137 
L 219.281002 540.050039 
L 219.447557 539.924941 
L 219.581551 539.701553 
L 219.725942 539.513907 
L 219.842286 539.344132 
L 220.168775 538.977775 
L 220.250047 538.843742 
L 220.782485 538.709709 
L 220.930676 538.450578 
L 221.310071 537.941252 
L 221.500135 537.494476 
L 221.761719 537.074505 
L 221.872456 536.913666 
L 222.403703 536.708148 
L 222.540555 536.431147 
L 222.760227 536.270307 
L 222.90737 536.136274 
L 223.013625 535.850337 
L 223.139962 535.582271 
L 223.414861 535.072945 
L 224.08165 534.938912 
L 224.508804 534.295554 
L 224.634035 534.143649 
L 225.144618 533.303709 
L 225.574764 533.16074 
L 225.688781 532.579931 
L 225.935986 532.24038 
L 226.069494 532.052734 
L 226.617343 531.087696 
L 226.727005 530.962598 
L 226.763659 530.891114 
L 227.169907 530.774952 
L 227.216482 530.471144 
L 227.429607 530.167336 
L 228.416898 528.65723 
L 228.752 528.41597 
L 229.231327 527.73687 
L 229.346327 527.486675 
L 229.436391 527.343706 
L 230.405168 526.092731 
L 230.50523 525.931891 
L 230.614485 525.762116 
L 230.737063 525.449372 
L 230.87008 525.172371 
L 230.979353 524.886434 
L 231.275647 524.162655 
L 231.438659 523.957138 
L 232.030301 523.715878 
L 232.389842 523.286973 
L 232.530224 523.090391 
L 232.630304 522.956358 
L 232.701983 522.786583 
L 232.904016 522.590001 
L 233.068753 522.464903 
L 233.222737 522.41129 
L 233.543589 522.268321 
L 233.654816 522.125353 
L 233.775022 521.973449 
L 234.032372 521.75006 
L 234.135244 521.562414 
L 234.238098 521.419445 
L 234.489487 521.079895 
L 234.847922 521.008411 
L 235.142427 520.874378 
L 235.697949 520.114857 
L 235.780062 519.980824 
L 235.941739 519.766371 
L 236.199903 519.525112 
L 236.704063 519.185561 
L 236.804936 519.060464 
L 236.896878 518.926431 
L 237.033573 518.729849 
L 237.146313 518.577945 
L 237.752671 518.041813 
L 238.28282 517.872037 
L 238.578515 517.416325 
L 238.931274 516.772966 
L 239.094428 516.58532 
L 239.1961 516.442352 
L 239.562864 516.120672 
L 239.884412 515.959833 
L 239.981158 515.852606 
L 240.242157 515.629218 
L 240.331149 515.396894 
L 240.442778 515.137763 
L 240.547933 514.959053 
L 240.940913 514.467598 
L 241.387067 514.342501 
L 241.493411 514.226339 
L 241.957597 513.440011 
L 242.075382 513.216623 
L 242.218317 512.948557 
L 242.380044 512.805588 
L 242.489276 512.617942 
L 243.111126 512.117552 
L 243.287156 511.983519 
L 243.399251 511.867357 
L 243.596129 511.688646 
L 244.355427 511.626097 
L 244.692583 511.501 
L 244.838621 511.411645 
L 245.803424 511.125707 
L 246.243473 510.973803 
L 246.392891 510.804028 
L 246.597188 510.598511 
L 246.931423 510.437671 
L 247.027148 510.366187 
L 247.849853 509.99983 
L 249.056668 508.829275 
L 249.42927 508.668435 
L 249.563062 508.614822 
L 249.706698 508.480789 
L 249.979866 508.293142 
L 250.147942 507.748075 
L 250.259094 507.67659 
L 250.352552 507.524686 
L 250.432508 507.453202 
L 250.961644 507.292362 
L 251.24353 506.890263 
L 251.507076 506.532842 
L 251.690104 506.380938 
L 251.88185 505.898419 
L 252.018757 505.683966 
L 252.361983 505.272931 
L 252.589773 505.138898 
L 252.709163 504.879767 
L 252.824619 504.692121 
L 253.057574 504.370442 
L 253.281797 504.09344 
L 253.499223 503.646663 
L 253.984402 502.985434 
L 254.169513 502.851401 
L 254.37486 502.377817 
L 254.483004 502.163364 
L 254.920742 501.439586 
L 255.125351 501.305553 
L 255.204291 501.180455 
L 255.381645 501.037487 
L 255.56857 500.84984 
L 255.79597 500.662194 
L 256.060989 500.277966 
L 256.187489 500.152869 
L 257.851424 497.704532 
L 257.968962 497.436465 
L 258.289175 496.998624 
L 258.402407 496.569718 
L 259.120811 495.792327 
L 259.231419 495.50639 
L 259.350107 495.336614 
L 259.917812 494.10351 
L 260.242903 493.620991 
L 260.466372 493.478023 
L 260.556867 493.317183 
L 260.710336 493.138472 
L 260.837109 492.995504 
L 261.046522 492.870406 
L 261.382691 492.530856 
L 261.73324 492.146628 
L 262.159157 491.985788 
L 262.926937 490.967137 
L 263.120861 490.815233 
L 263.264624 490.743749 
L 263.766178 490.529296 
L 263.942059 490.288036 
L 264.161265 490.10039 
L 264.589247 489.707226 
L 264.958349 489.537451 
L 265.171561 489.51958 
L 265.617602 489.349805 
L 265.706229 489.269385 
L 265.976119 489.081739 
L 266.625584 488.5188 
L 267.117325 488.375832 
L 267.13494 488.340089 
L 267.378459 488.223927 
L 267.500089 488.072023 
L 267.779112 487.920119 
L 268.110749 487.705666 
L 268.508775 487.580569 
L 268.959158 487.276761 
L 269.058029 487.151663 
L 269.193985 486.955081 
L 269.30934 486.758499 
L 270.570377 485.471782 
L 270.810174 485.141167 
L 271.656846 484.748004 
L 271.77696 484.569293 
L 271.877939 484.185065 
L 272.08156 483.970612 
L 272.184529 483.836579 
L 272.346525 483.69361 
L 272.800367 483.443415 
L 273.280681 483.282576 
L 274.175726 482.210311 
L 274.256985 481.879696 
L 274.624635 481.754599 
L 274.995203 481.334629 
L 275.103909 481.200596 
L 275.354881 480.869981 
L 275.97454 480.11046 
L 276.313548 479.967492 
L 276.418014 479.85133 
L 276.556576 479.681554 
L 276.669083 479.493908 
L 277.023211 479.1901 
L 277.221668 479.011389 
L 277.37836 478.698645 
L 277.484752 478.546741 
L 278.289017 477.733608 
L 278.489834 477.599574 
L 278.660295 477.376186 
L 278.731782 477.224282 
L 278.831673 477.10812 
L 278.917033 476.974087 
L 279.027617 476.68815 
L 279.261136 476.437955 
L 280.985143 474.775945 
L 281.207961 474.641912 
L 281.297804 474.579363 
L 281.516183 474.409588 
L 281.678123 474.213006 
L 282.156436 473.560712 
L 282.267034 473.453486 
L 282.432809 473.355195 
L 282.672588 473.230097 
L 282.802579 473.02458 
L 283.391854 472.425899 
L 283.501495 472.300801 
L 283.613498 472.113155 
L 284.473588 471.139182 
L 285.843727 469.110815 
L 286.157069 468.798071 
L 286.395138 468.404907 
L 287.188177 467.502418 
L 287.688368 467.377321 
L 288.027486 467.144997 
L 288.122919 466.948415 
L 288.224163 466.823317 
L 288.317001 466.626736 
L 288.485875 466.448025 
L 288.87102 466.287185 
L 289.139307 466.144217 
L 289.871549 465.11663 
L 289.979546 464.946855 
L 290.306618 464.625176 
L 290.785564 464.223076 
L 290.982393 463.499298 
L 291.070875 463.266974 
L 291.15137 463.141876 
L 291.409229 462.605744 
L 291.890671 461.926644 
L 292.310488 461.810482 
L 292.684747 461.390511 
L 292.830788 461.256478 
L 293.312723 460.630991 
L 293.964988 460.398667 
L 294.0736 460.193149 
L 294.537387 459.362145 
L 294.641131 459.067272 
L 294.816094 458.79027 
L 295.02897 458.540075 
L 295.455307 458.388171 
L 295.593533 458.200525 
L 296.087612 457.566102 
L 296.163342 457.423133 
L 296.714109 456.690419 
L 297.082016 456.520644 
L 297.520875 455.877285 
L 297.653009 455.582413 
L 297.853689 455.171378 
L 298.022756 454.715666 
L 298.122242 454.465471 
L 298.2601 454.277824 
L 298.784268 453.312786 
L 298.875567 453.107269 
L 299.013146 452.946429 
L 299.147813 452.758783 
L 299.244753 452.62475 
L 299.891148 451.731196 
L 300.265533 451.597163 
L 300.371279 451.445259 
L 301.555477 450.087058 
L 301.831429 449.953025 
L 303.364384 447.388526 
L 303.471892 447.227686 
L 303.678088 446.923878 
L 303.815812 446.593263 
L 304.493544 445.360159 
L 304.656668 445.226126 
L 304.754127 445.190384 
L 305.025571 445.065286 
L 306.076561 443.242437 
L 306.556981 443.090533 
L 306.748304 442.625885 
L 306.851478 442.429303 
L 306.941781 442.277399 
L 307.052767 442.000397 
L 307.996078 441.080037 
L 308.234636 440.954939 
L 308.454063 440.660067 
L 308.811442 440.13287 
L 309.019324 439.837997 
L 309.121584 439.623544 
L 310.100717 438.729991 
L 310.212995 438.479796 
L 310.353916 438.247472 
L 310.939995 437.175207 
L 310.993284 437.13053 
L 311.319504 436.996497 
L 311.465518 436.790979 
L 312.41728 435.334487 
L 312.98122 434.994937 
L 313.05762 434.80729 
L 313.183649 434.682193 
L 313.298673 434.396256 
L 313.405453 434.208609 
L 313.678245 433.627799 
L 313.783426 433.46696 
L 314.403427 432.796795 
L 314.530547 432.671697 
L 314.639303 432.501922 
L 314.818722 432.278533 
L 315.375528 431.250947 
L 315.599239 430.893525 
L 315.826333 430.696943 
L 316.044935 430.312715 
L 316.206473 430.008907 
L 317.166304 428.579221 
L 317.668728 428.436253 
L 317.969354 428.069896 
L 318.074548 427.944798 
L 318.312562 427.632054 
L 318.51757 427.408666 
L 318.748166 427.176342 
L 318.918822 427.095922 
L 319.48758 426.667017 
L 319.872482 426.238111 
L 320.915794 426.041529 
L 321.005338 425.782398 
L 321.103442 425.657301 
L 321.21249 425.505397 
L 321.335205 425.317751 
L 321.443259 425.130104 
L 321.56035 424.772683 
L 321.65956 424.415261 
L 321.778448 424.272293 
L 321.907183 423.834451 
L 321.982059 423.664676 
L 322.075514 423.539579 
L 322.151131 423.441288 
L 322.419234 423.31619 
L 322.692528 422.717509 
L 322.844552 422.39583 
L 322.95427 422.172442 
L 323.107652 421.672052 
L 323.690035 420.55511 
L 323.985937 420.430012 
L 324.109821 420.144075 
L 324.218259 419.929622 
L 324.336555 419.697298 
L 324.443908 419.47391 
L 324.587776 419.223715 
L 324.719422 419.098617 
L 324.833586 418.857358 
L 324.964176 418.714389 
L 325.130689 418.455258 
L 325.642202 418.303354 
L 325.803761 418.062095 
L 326.581568 417.061315 
L 327.431424 416.927282 
L 327.614123 416.721764 
L 328.034492 416.453698 
L 328.80564 416.31073 
L 329.861592 415.086561 
L 330.488336 414.836366 
L 330.539988 414.80956 
L 330.676612 414.684462 
L 330.786011 414.157265 
L 331.089321 413.630069 
L 331.382576 413.236905 
L 331.491941 413.040323 
L 332.026254 412.816935 
L 332.121929 412.691837 
L 332.216842 412.539933 
L 332.327584 412.32548 
L 332.508458 412.075285 
L 332.961451 411.369378 
L 333.05789 411.226409 
L 333.537924 411.083441 
L 333.643664 410.842181 
L 333.826471 410.627729 
L 333.923903 410.279243 
L 334.093971 410.046919 
L 334.181074 409.832466 
L 334.308599 409.707368 
L 334.998936 409.046139 
L 335.16975 408.912106 
L 335.412718 408.393844 
L 335.512653 408.170456 
L 335.616197 407.956003 
L 335.710309 407.777292 
L 335.81564 407.500291 
L 335.98329 407.151805 
L 336.088813 407.053514 
L 336.414855 406.785448 
L 336.742943 406.651415 
L 336.851113 406.445897 
L 336.943313 406.3208 
L 337.028042 406.186767 
L 337.137263 406.008056 
L 337.238533 405.829345 
L 337.600314 405.311084 
L 337.702296 405.105567 
L 337.758214 404.962598 
L 337.824493 404.891114 
L 338.374548 404.721339 
L 338.499039 404.444337 
L 338.599389 404.265627 
L 338.653999 404.122658 
L 338.729369 403.979689 
L 338.782587 403.854592 
L 338.890075 403.604397 
L 339.122853 403.166556 
L 339.23151 402.961038 
L 340.118855 402.183647 
L 340.198732 401.996 
L 340.381203 401.835161 
L 340.532071 401.504546 
L 340.640914 401.245415 
L 340.748141 401.084576 
L 340.853916 400.941607 
L 341.064265 400.709283 
L 341.123524 400.682476 
L 341.299273 400.557379 
L 341.363645 400.33399 
L 341.471965 400.021247 
L 341.86014 399.342146 
L 341.917357 399.190242 
L 342.021119 398.931111 
L 342.102045 398.743465 
L 342.211599 398.49327 
L 342.468754 398.225204 
L 342.573105 398.055429 
L 343.678829 397.090391 
L 343.781746 396.965293 
L 343.896031 396.786583 
L 344.349779 396.420226 
L 344.705366 396.295128 
L 344.936017 396.107482 
L 345.043271 395.812609 
L 345.714299 395.053088 
L 346.387453 394.883313 
L 346.606291 394.740345 
L 346.985604 394.445472 
L 347.257088 393.891469 
L 347.333703 393.712758 
L 347.489893 393.596596 
L 347.711689 393.265981 
L 347.935206 392.917495 
L 348.115421 392.774527 
L 349.004358 391.82736 
L 349.541085 391.603971 
L 350.000763 390.942742 
L 350.225192 390.558514 
L 350.747009 390.031317 
L 351.05163 389.888348 
L 351.307209 389.50412 
L 351.881509 388.690986 
L 351.988279 388.539082 
L 352.254654 388.405049 
L 352.697028 388.271016 
L 353.180209 387.618722 
L 353.535137 387.270236 
L 353.639745 387.037912 
L 353.820055 386.993235 
L 354.176131 386.84133 
L 354.537766 386.046068 
L 354.806071 385.778002 
L 354.900958 385.679711 
L 354.965695 385.527807 
L 355.067577 385.313354 
L 355.191029 385.098901 
L 355.286759 384.929126 
L 355.846654 384.723608 
L 355.952305 384.491284 
L 356.096827 384.33938 
L 356.369029 383.973023 
L 356.522673 383.704957 
L 356.666502 383.490504 
L 356.878172 383.186696 
L 357.45113 383.034792 
L 357.502625 382.856081 
L 357.607362 382.748855 
L 357.992943 382.230594 
L 358.095358 382.042947 
L 358.266231 381.83743 
L 358.375342 381.524686 
L 358.641977 381.381718 
L 358.997704 381.25662 
L 359.108816 380.890263 
L 359.237604 380.684746 
L 359.378772 380.237969 
L 359.554219 380.014581 
L 359.624327 379.853741 
L 359.772471 379.719708 
L 360.044158 379.299738 
L 360.144621 379.183576 
L 360.661729 378.808283 
L 360.773198 378.504475 
L 360.888841 378.352571 
L 360.987269 378.200667 
L 361.194907 377.968343 
L 361.304469 377.718148 
L 361.402148 377.566244 
L 361.607359 377.039047 
L 361.615555 376.967563 
L 362.12598 376.815658 
L 362.335793 376.636948 
L 362.441286 376.261655 
L 362.557111 375.993589 
L 362.65344 375.859556 
L 362.705184 375.734459 
L 362.816864 375.528941 
L 363.354371 374.680065 
L 363.460143 374.51029 
L 363.754496 374.358386 
L 363.857814 374.17074 
L 363.967469 373.902674 
L 364.058673 373.795447 
L 364.214372 373.643543 
L 364.864575 372.839345 
L 365.360204 372.678505 
L 365.503709 372.464052 
L 365.830156 372.070889 
L 365.895208 371.918984 
L 365.966834 371.740274 
L 366.137908 371.606241 
L 366.215129 371.463272 
L 366.357263 371.320304 
L 366.398803 371.204142 
L 367.029815 371.025431 
L 367.448582 370.596525 
L 367.531078 370.417814 
L 367.685186 370.274846 
L 367.803077 370.00678 
L 367.904796 369.711907 
L 368.051514 369.443841 
L 368.117719 369.354485 
L 368.549026 369.220452 
L 368.60215 369.050677 
L 368.693343 368.76474 
L 368.816281 368.594965 
L 368.921428 368.389448 
L 369.551718 367.415474 
L 369.572514 367.335054 
L 370.145493 367.201021 
L 370.168125 367.156344 
L 370.516051 367.02231 
L 370.777656 366.655953 
L 371.084139 366.459372 
L 371.178091 366.325339 
L 371.281178 366.18237 
L 371.346839 366.066208 
L 372.001185 365.887497 
L 372.133634 365.52114 
L 372.238232 365.10117 
L 372.491996 364.797362 
L 372.585522 364.591845 
L 372.662305 364.448876 
L 372.734567 364.314843 
L 373.172825 364.118261 
L 373.326785 363.948486 
L 373.407277 363.778711 
L 373.513727 363.501709 
L 373.647897 363.233643 
L 373.758176 362.903028 
L 373.855944 362.688575 
L 373.988893 362.447316 
L 374.623858 361.768215 
L 374.928755 361.643118 
L 374.994828 361.464407 
L 375.10567 361.241018 
L 375.175734 361.044437 
L 375.290187 360.883597 
L 375.766709 360.293851 
L 375.886405 360.034721 
L 375.996932 359.981108 
L 376.471806 359.847075 
L 376.813985 359.391362 
L 376.906294 359.194781 
L 376.998946 359.042876 
L 377.109144 358.748004 
L 377.310112 358.390582 
L 377.41678 358.292291 
L 377.565741 358.086774 
L 377.653688 357.961676 
L 378.026276 357.720417 
L 378.131197 357.470222 
L 378.65882 356.862605 
L 378.762472 356.469442 
L 378.905896 356.254989 
L 379.017778 356.156698 
L 379.396216 355.745663 
L 379.657816 355.620566 
L 379.763738 355.459726 
L 379.868685 355.27208 
L 380.243632 354.61085 
L 380.721317 353.949621 
L 381.302106 353.788781 
L 381.405421 353.583264 
L 381.498525 353.449231 
L 381.643359 353.199036 
L 381.732527 352.993518 
L 381.837002 352.841614 
L 382.044545 352.403773 
L 382.112405 352.162513 
L 382.205453 351.840834 
L 382.314141 351.679994 
L 382.628341 351.331508 
L 382.816935 351.206411 
L 382.927659 351.134927 
L 383.003031 351.009829 
L 383.089399 350.759634 
L 383.193944 350.625601 
L 383.569115 350.000113 
L 383.625036 349.875016 
L 383.663266 349.68737 
L 383.770186 349.44611 
L 385.547928 347.033515 
L 386.106439 346.908418 
L 386.240898 346.720772 
L 386.343949 346.515254 
L 386.431919 346.354415 
L 386.857739 345.889767 
L 386.926949 345.78254 
L 387.195247 345.621701 
L 387.269505 345.60383 
L 387.846582 345.478732 
L 388.055029 345.130246 
L 388.111158 344.960471 
L 388.215228 344.808567 
L 388.371318 344.683469 
L 388.569216 344.594114 
L 388.65064 344.433274 
L 388.753239 344.075853 
L 388.800537 343.888207 
L 388.900023 343.557592 
L 389.206777 343.253783 
L 389.288036 343.021459 
L 389.485245 342.896362 
L 389.614632 342.744458 
L 389.724412 342.503198 
L 389.885706 342.351294 
L 390.231578 341.824098 
L 390.351947 341.752613 
L 390.420902 341.716871 
L 390.765415 341.591774 
L 391.275938 340.850124 
L 391.382661 340.742898 
L 391.828407 340.099539 
L 392.282985 339.965506 
L 392.593274 339.447245 
L 392.700832 339.259599 
L 392.90034 338.866435 
L 392.994189 338.741337 
L 393.115541 338.598369 
L 393.210695 338.37498 
L 393.314051 338.214141 
L 393.431173 338.026495 
L 393.941766 337.785235 
L 394.622779 336.623615 
L 394.709685 336.45384 
L 394.830446 336.257258 
L 394.977419 336.069612 
L 395.068286 335.971321 
L 395.46269 335.819417 
L 395.571829 335.667513 
L 396.087952 334.693539 
L 396.392681 334.041245 
L 396.980275 333.522984 
L 397.170048 333.362145 
L 397.387728 332.968981 
L 397.469394 332.808141 
L 397.576062 332.656237 
L 397.763164 332.280945 
L 397.8655 332.039685 
L 397.971199 331.852039 
L 398.334964 331.36952 
L 398.674082 331.235487 
L 398.868271 330.806581 
L 399.066607 330.413417 
L 399.26658 330.163222 
L 399.375838 329.752188 
L 399.610931 329.305411 
L 399.717932 329.117765 
L 400.148013 328.778214 
L 400.246385 328.644181 
L 400.382895 328.358244 
L 400.494339 328.134856 
L 400.604116 327.974016 
L 400.7823 327.714885 
L 400.890281 327.482562 
L 400.921288 327.330657 
L 401.019594 327.008978 
L 401.194847 326.821332 
L 401.482974 326.383491 
L 401.592006 326.106489 
L 401.922167 325.70439 
L 402.110577 325.346968 
L 402.232149 325.04316 
L 402.378436 324.685739 
L 402.428269 324.533834 
L 402.544632 324.230026 
L 403.005986 323.979831 
L 403.426043 323.854734 
L 403.575495 323.649216 
L 403.824521 323.443699 
L 403.934537 323.309666 
L 404.067134 323.157762 
L 404.85224 322.639501 
L 405.127302 322.505468 
L 405.460176 322.219531 
L 405.828816 322.067626 
L 407.024418 321.629785 
L 407.154374 321.549365 
L 407.249744 321.424268 
L 407.326514 321.191944 
L 407.425809 321.004298 
L 407.529684 320.843458 
L 407.694747 320.611134 
L 407.801478 320.280519 
L 407.873501 320.110744 
L 407.963429 319.842678 
L 408.015694 319.71758 
L 408.117912 319.646096 
L 408.294013 319.449514 
L 409.162266 318.153861 
L 409.863098 317.939409 
L 409.9626 317.87686 
L 410.555905 317.6356 
L 410.664892 317.537309 
L 410.898306 317.519438 
L 411.680032 317.403276 
L 412.153002 316.5544 
L 412.589473 316.179108 
L 412.964872 316.018268 
L 414.003572 314.606453 
L 414.355724 314.29371 
L 414.615682 314.168612 
L 415.28945 313.373349 
L 415.476851 312.998057 
L 415.611756 312.801475 
L 415.694127 312.667442 
L 416.346655 312.363634 
L 416.631238 312.033019 
L 416.736446 311.863244 
L 416.821083 311.738146 
L 416.928833 311.595178 
L 417.291153 310.996497 
L 417.833225 310.835657 
L 417.942431 310.496107 
L 419.184013 309.173647 
L 419.404601 309.039614 
L 419.722934 308.369449 
L 419.832118 308.190738 
L 420.793916 306.975505 
L 421.040036 306.814666 
L 421.121652 306.662762 
L 421.221343 306.519793 
L 421.34736 306.278533 
L 422.110391 305.259882 
L 422.756089 305.099043 
L 422.888762 304.920332 
L 422.984463 304.768428 
L 423.093815 304.580782 
L 423.211862 304.357393 
L 423.46256 303.731906 
L 423.525637 303.580001 
L 423.663311 303.267258 
L 423.803977 303.097482 
L 423.90133 302.927707 
L 424.068765 302.757932 
L 424.293527 302.38264 
L 424.39802 302.043089 
L 424.556695 301.72141 
L 424.685717 301.462279 
L 425.226166 300.935083 
L 425.771879 300.818921 
L 426.036155 300.550855 
L 426.493591 300.390015 
L 426.671856 300.291724 
L 427.596793 299.889625 
L 427.702667 299.755592 
L 428.465141 299.147975 
L 428.951251 299.022878 
L 429.049203 298.835232 
L 429.157859 298.522488 
L 429.840314 297.155351 
L 430.304038 296.914091 
L 430.592756 296.494121 
L 430.703921 296.226055 
L 430.828487 295.993731 
L 431.681824 294.823176 
L 432.022704 294.689143 
L 432.661161 293.884944 
L 432.829035 293.759847 
L 432.942729 293.572201 
L 433.152941 293.241586 
L 433.581923 293.098617 
L 433.731289 292.919906 
L 433.820962 292.821615 
L 433.902546 292.696518 
L 434.011426 292.544614 
L 434.077639 292.401645 
L 434.291176 292.142515 
L 434.397721 291.936997 
L 434.614389 291.57064 
L 435.016918 291.31151 
L 435.26406 291.123864 
L 435.371859 290.864733 
L 435.675248 290.400085 
L 435.786114 290.132019 
L 436.300111 289.301014 
L 436.818811 289.06869 
L 436.926319 288.72914 
L 437.131225 288.398525 
L 437.241502 288.175137 
L 437.475103 287.656875 
L 437.938942 287.085001 
L 438.31892 286.915226 
L 438.429895 286.834806 
L 438.541417 286.682902 
L 438.68425 286.539933 
L 439.135158 286.030608 
L 439.627412 285.691057 
L 440.001203 285.476604 
L 440.130763 285.217474 
L 441.1132 283.725239 
L 441.440836 283.609077 
L 441.69692 283.260591 
L 441.806592 283.072945 
L 442.15543 282.447458 
L 442.482026 282.027487 
L 442.596997 281.857712 
L 443.06749 281.553904 
L 443.285167 281.357322 
L 443.516467 281.089256 
L 443.623203 280.847997 
L 443.749404 280.696092 
L 443.857358 280.562059 
L 443.990869 280.302929 
L 444.096914 280.115283 
L 444.399034 279.954443 
L 444.772263 279.766797 
L 446.105949 278.149465 
L 446.438692 277.99756 
L 446.891357 277.139749 
L 447.111257 276.99678 
L 447.173238 276.889554 
L 447.98209 276.65723 
L 448.282003 276.299809 
L 448.642556 276.138969 
L 449.881966 275.593901 
L 449.986538 275.164995 
L 450.040116 274.99522 
L 450.1711 274.753961 
L 450.279443 274.566314 
L 450.345843 274.342926 
L 450.455684 274.056989 
L 450.539396 273.869343 
L 450.643461 273.744245 
L 450.863 273.619148 
L 451.095317 273.485115 
L 451.205736 273.395759 
L 451.329561 273.243855 
L 451.520824 273.065144 
L 451.727769 272.895369 
L 452.245596 272.225204 
L 452.760043 272.037558 
L 452.861914 271.823105 
L 453.004989 271.608652 
L 453.193194 271.385263 
L 453.419647 271.206553 
L 453.519593 271.036778 
L 453.720486 270.902744 
L 453.904359 270.759776 
L 454.248925 270.527452 
L 454.359741 270.321935 
L 454.591432 270.009191 
L 454.76141 269.758996 
L 455.021365 269.437317 
L 455.432693 268.811829 
L 456.080327 268.49015 
L 456.205395 268.40973 
L 456.891838 267.784242 
L 457.003052 267.641274 
L 457.539627 267.48937 
L 457.828169 267.16769 
L 458.920583 266.336685 
L 459.138332 266.211588 
L 460.122342 264.898064 
L 460.438442 264.835515 
L 460.698 264.710418 
L 460.795322 264.513836 
L 460.936332 264.370867 
L 461.02606 264.210028 
L 461.187482 264.067059 
L 461.361154 263.843671 
L 461.471068 263.691767 
L 461.780249 263.298603 
L 462.382156 263.146699 
L 462.628886 262.932246 
L 462.732714 262.628438 
L 462.967904 262.262081 
L 463.074212 262.145919 
L 463.164754 261.985079 
L 463.276775 261.752755 
L 463.554235 261.6634 
L 463.91805 261.538302 
L 464.01985 261.323849 
L 464.127826 261.118332 
L 464.653762 260.314134 
L 464.842735 260.08181 
L 464.938648 260.010326 
L 465.323286 259.849486 
L 465.55535 259.536742 
L 465.672378 259.366967 
L 466.890167 258.008765 
L 467.278485 257.713893 
L 467.388034 257.526246 
L 467.774134 257.070534 
L 467.854739 256.954372 
L 467.988633 256.811403 
L 468.937771 256.33782 
L 469.042555 256.2574 
L 469.300968 256.051883 
L 469.831874 255.846366 
L 470.240562 255.703397 
L 471.128971 255.006425 
L 471.192321 254.961747 
L 471.845056 254.747295 
L 471.948919 254.577519 
L 472.050407 254.354131 
L 472.163216 253.889483 
L 472.312103 253.719708 
L 472.423413 253.442706 
L 472.471632 253.25506 
L 472.57738 252.969123 
L 472.659727 252.808283 
L 472.845515 252.59383 
L 473.096566 252.459797 
L 473.178345 252.406184 
L 473.427932 252.245344 
L 473.557319 252.004085 
L 473.740588 251.798567 
L 473.838858 251.646663 
L 473.906936 251.503695 
L 474.018642 251.208822 
L 474.129287 251.065853 
L 474.759784 250.654819 
L 475.01949 250.520786 
L 475.119901 250.413559 
L 475.543372 250.01146 
L 475.653074 249.93104 
L 475.816206 249.770201 
L 475.944321 249.555748 
L 476.045838 249.377037 
L 476.616366 249.037487 
L 476.722543 248.921325 
L 476.895841 248.644323 
L 476.990591 248.528161 
L 477.151121 248.331579 
L 477.32372 248.134998 
L 477.428746 247.965222 
L 477.533594 247.777576 
L 477.816882 247.643543 
L 478.220671 247.518446 
L 478.341135 247.205702 
L 478.60973 246.9287 
L 478.866005 246.553408 
L 478.97594 246.472988 
L 479.151458 246.26747 
L 479.240027 246.222793 
L 479.711834 246.026211 
L 479.93621 245.633047 
L 480.043237 245.436465 
L 480.137627 245.302432 
L 480.256318 245.141593 
L 480.902024 244.283781 
L 481.335498 244.105071 
L 481.545269 243.810198 
L 481.813948 243.577874 
L 481.91553 243.318743 
L 482.177109 243.023871 
L 482.289101 242.961322 
L 482.323309 242.818353 
L 482.691075 242.639643 
L 482.962961 242.496674 
L 483.247537 242.148188 
L 483.338846 242.040962 
L 483.451227 241.906929 
L 483.606295 241.701411 
L 484.17152 240.897213 
L 484.561345 240.745309 
L 485.77701 240.298532 
L 486.182412 240.173435 
L 486.372991 240.030466 
L 486.714925 239.664109 
L 486.81412 239.449656 
L 486.931873 239.297752 
L 487.1336 239.029686 
L 487.332974 238.931395 
L 487.703275 238.806297 
L 487.775154 238.591845 
L 487.881958 238.404198 
L 488.862535 237.608936 
L 489.257438 237.492774 
L 490.409784 236.43838 
L 490.9323 236.25967 
L 492.071064 235.348245 
L 492.895387 235.160599 
L 493.09126 234.981888 
L 493.212477 234.901468 
L 494.849126 233.891752 
L 495.056798 233.552202 
L 495.153229 233.409233 
L 495.673455 233.069683 
L 495.782287 232.899908 
L 496.183825 232.363776 
L 496.357131 232.202936 
L 496.616748 231.908063 
L 496.782791 231.756159 
L 497.248666 231.550642 
L 498.750081 230.049472 
L 499.068941 229.897568 
L 499.529332 229.415049 
L 500.423123 228.709141 
L 500.531343 228.584044 
L 500.637493 228.369591 
L 501.673077 227.118616 
L 501.965192 226.966712 
L 502.33146 226.403773 
L 502.441616 226.323353 
L 502.756784 226.019545 
L 502.869109 225.94806 
L 502.97222 225.778285 
L 503.690754 225.358315 
L 503.792045 225.224282 
L 503.918253 225.000894 
L 504.024939 224.920474 
L 504.245385 224.571988 
L 504.429345 224.321793 
L 504.52906 224.160953 
L 504.641378 223.910758 
L 505.196264 223.732047 
L 505.33403 223.52653 
L 505.472565 223.374626 
L 505.578004 223.151238 
L 505.70501 222.972527 
L 506.168356 222.204071 
L 506.257892 222.016424 
L 506.788449 221.810907 
L 506.898642 221.44455 
L 507.039759 221.212226 
L 507.143241 220.881611 
L 507.304797 220.685029 
L 507.449973 220.52419 
L 508.082457 219.898702 
L 508.401181 219.764669 
L 508.520551 219.532345 
L 508.587902 219.36257 
L 508.69012 219.210666 
L 508.766876 218.996213 
L 508.863205 218.728147 
L 508.949239 218.567307 
L 509.102012 218.290306 
L 509.204301 218.093724 
L 509.324108 217.932884 
L 509.682273 217.78098 
L 509.91575 217.655883 
L 510.622108 217.262719 
L 511.004715 217.003588 
L 511.540801 216.824878 
L 512.679189 215.368385 
L 513.139619 215.234352 
L 513.24407 215.091384 
L 513.394893 214.975222 
L 513.537422 214.760769 
L 513.655096 214.53738 
L 513.767663 214.483767 
L 514.031335 214.224637 
L 514.808621 213.5366 
L 514.920067 213.295341 
L 515.119292 213.071952 
L 515.227034 212.902177 
L 515.317431 212.660918 
L 515.486566 212.473271 
L 515.633098 212.11585 
L 515.705076 211.901397 
L 516.083257 211.758428 
L 516.39549 211.392071 
L 516.499549 211.284845 
L 516.561155 211.150812 
L 516.636806 211.016779 
L 516.833172 210.882746 
L 516.940673 210.721906 
L 517.714541 209.917708 
L 517.839991 209.783675 
L 518.038248 209.319027 
L 518.149027 209.184994 
L 518.320224 208.943734 
L 518.425938 208.79183 
L 519.07332 208.202085 
L 519.416089 208.050181 
L 519.517546 207.907212 
L 519.787057 207.576597 
L 519.888195 207.388951 
L 520.01848 207.174498 
L 520.276594 206.736657 
L 520.459696 206.522204 
L 520.599983 206.379236 
L 521.328955 205.735877 
L 521.420674 205.557166 
L 521.559165 205.423133 
L 521.667598 205.110389 
L 521.914727 204.78871 
L 522.019406 204.645741 
L 522.630791 204.2079 
L 523.331213 202.956925 
L 523.386777 202.796085 
L 523.486011 202.653117 
L 523.620635 202.438664 
L 523.710786 202.215276 
L 524.14572 202.027629 
L 524.270508 201.884661 
L 524.373563 201.661272 
L 524.883928 201.089398 
L 525.003246 200.955365 
L 525.405919 200.312006 
L 525.811581 200.12436 
L 525.910161 200.035005 
L 526.071402 199.874165 
L 526.15978 199.775874 
L 526.296138 199.632905 
L 527.037301 199.212935 
L 527.559292 199.052096 
L 527.653285 198.873385 
L 527.806402 198.712545 
L 527.898121 198.417673 
L 527.992992 198.292575 
L 528.085021 198.095993 
L 528.246136 197.917282 
L 528.3507 197.70283 
L 528.451281 197.577732 
L 528.550381 197.309666 
L 529.244599 196.916502 
L 529.387986 196.791405 
L 529.905774 196.630565 
L 529.935871 196.603759 
L 531.001527 196.407177 
L 531.412171 196.156982 
L 531.520013 195.897851 
L 531.626101 195.647656 
L 531.718568 195.468945 
L 532.156891 195.183008 
L 534.52564 192.984866 
L 534.624249 192.841898 
L 534.715668 192.654251 
L 534.865693 192.37725 
L 535.298823 192.127055 
L 535.387676 191.966215 
L 535.499001 191.823247 
L 535.692668 191.564116 
L 535.817817 191.358599 
L 535.955284 191.179888 
L 536.005975 191.05479 
L 536.057389 190.983306 
L 536.296905 190.849273 
L 536.5092 190.71524 
L 536.930825 190.572271 
L 538.002002 188.990682 
L 538.583936 188.660067 
L 538.695817 188.436678 
L 539.082162 187.998837 
L 539.191509 187.873739 
L 540.784545 186.694249 
L 540.890541 186.506602 
L 540.934245 186.363634 
L 541.286068 185.952599 
L 541.684121 185.809631 
L 541.78964 185.648791 
L 541.921938 185.47008 
L 542.492321 184.406751 
L 542.648081 184.263783 
L 542.756151 184.138685 
L 543.615314 183.414907 
L 543.708246 183.155776 
L 543.85363 182.977065 
L 543.953562 182.753677 
L 544.043096 182.557095 
L 544.145566 182.369449 
L 545.070547 181.654606 
L 545.229456 181.359733 
L 545.33849 181.216765 
L 545.697603 180.716375 
L 546.068434 180.215985 
L 546.587428 179.894305 
L 546.808812 179.456464 
L 546.920334 179.22414 
L 547.210668 178.866719 
L 547.302515 178.589717 
L 547.3595 178.455684 
L 547.464419 178.232296 
L 548.084477 177.919552 
L 548.317308 177.553195 
L 548.442899 177.410226 
L 548.624464 176.98132 
L 548.745899 176.766868 
L 548.858128 176.454124 
L 548.974423 176.257542 
L 549.070153 175.98054 
L 550.330304 175.372924 
L 550.414082 175.256762 
L 550.977802 174.997631 
L 551.19072 174.908276 
L 551.516428 174.765307 
L 551.618575 174.506177 
L 551.707418 174.327466 
L 551.816066 173.791334 
L 552.313504 173.228395 
L 553.128104 172.799489 
L 553.188133 172.71907 
L 553.385028 172.576101 
L 553.948217 171.888065 
L 554.365644 171.745096 
L 554.495519 171.611063 
L 554.603012 171.441288 
L 554.683851 171.298319 
L 554.80268 171.244706 
L 554.888757 171.128544 
L 554.992595 170.905156 
L 555.149298 170.708574 
L 555.261201 170.485185 
L 555.36774 170.360088 
L 556.042792 169.97586 
L 556.122977 169.886505 
L 556.272321 169.7346 
L 556.574247 169.47547 
L 557.537585 168.707014 
L 557.730268 168.438948 
L 557.837703 168.269172 
L 557.918912 168.126204 
L 558.697092 166.759067 
L 559.252558 166.374839 
L 559.334723 166.294419 
L 559.540919 166.15145 
L 559.653032 165.758287 
L 560.436925 164.873669 
L 560.802253 164.703893 
L 560.911794 164.543054 
L 561.03677 164.480505 
L 561.18652 164.337536 
L 561.306923 164.114148 
L 561.52548 163.819275 
L 561.632203 163.631629 
L 561.913396 163.417176 
L 562.407062 163.175917 
L 562.526062 162.934657 
L 562.808519 162.738075 
L 563.811063 162.023232 
L 564.017606 161.835586 
L 564.111497 161.701553 
L 564.222352 161.558584 
L 564.394505 161.254776 
L 564.502759 161.093937 
L 564.608418 160.879484 
L 564.679467 160.72758 
L 564.789208 160.495256 
L 564.927709 160.245061 
L 565.08941 160.021672 
L 565.515057 159.735735 
L 565.65003 159.557024 
L 565.785159 159.369378 
L 565.887083 159.190667 
L 566.003175 159.003021 
L 566.103358 158.556244 
L 566.236243 158.350727 
L 566.349225 157.886079 
L 566.501869 157.680562 
L 566.638154 157.501851 
L 566.915819 157.40356 
L 567.867365 157.144429 
L 567.958085 157.072945 
L 568.122074 156.947848 
L 568.194063 156.885299 
L 568.660614 156.724459 
L 568.818742 156.527877 
L 569.160112 156.197263 
L 569.947149 155.616453 
L 570.35047 155.48242 
L 570.639693 154.990965 
L 570.901529 154.758641 
L 571.010891 154.597802 
L 571.069936 154.436962 
L 571.172656 154.356542 
L 571.270458 154.151025 
L 571.357107 153.98125 
L 571.895481 153.802539 
L 572.018787 153.650635 
L 572.181851 153.507666 
L 572.273373 153.364698 
L 572.422337 153.203858 
L 572.507218 153.132374 
L 572.631004 152.989405 
L 572.738352 152.846436 
L 572.879975 152.694532 
L 573.050496 152.640919 
L 573.192791 152.506886 
L 573.671243 152.131594 
L 573.770495 152.006496 
L 574.090204 151.783108 
L 574.193507 151.693752 
L 574.821664 151.282718 
L 575.199248 151.130813 
L 575.301091 151.050394 
L 575.45746 150.889554 
L 575.557705 150.791263 
L 575.843029 150.603617 
L 575.974407 150.541068 
L 576.630053 150.273002 
L 577.628411 149.781547 
L 577.726675 149.692192 
L 578.086285 149.522417 
L 578.407727 149.218609 
L 578.515141 149.030962 
L 578.721121 148.503766 
L 578.830243 148.012311 
L 578.959451 147.815729 
L 579.058012 147.529792 
L 579.240633 147.342146 
L 579.340234 147.243855 
L 579.890235 147.07408 
L 579.992649 146.975789 
L 580.149347 146.752401 
L 580.787496 145.99288 
L 581.276274 145.689072 
L 581.46445 145.546103 
L 581.662088 145.403135 
L 581.757455 145.295908 
L 581.995537 145.099326 
L 582.106035 145.009971 
L 582.437485 144.688292 
L 582.536706 144.616807 
L 583.731995 143.884093 
L 583.818029 143.624963 
L 583.918805 143.49093 
L 584.081294 143.222864 
L 584.988795 142.74928 
L 585.14059 142.642054 
L 585.373169 142.436536 
L 585.459377 142.365052 
L 585.488272 142.239955 
L 585.550295 142.079115 
L 585.638528 141.90934 
L 585.79834 141.730629 
L 585.899521 141.623403 
L 586.239637 141.462563 
L 586.347229 141.337465 
L 586.514854 141.239175 
L 586.583659 141.096206 
L 586.901897 140.774527 
L 586.953455 140.613687 
L 587.061773 140.452847 
L 588.424591 139.612907 
L 588.525343 139.50568 
L 588.58303 139.335905 
L 588.709367 139.094646 
L 589.470703 138.522771 
L 589.577899 138.424481 
L 589.857048 138.111737 
L 590.038529 137.906219 
L 590.163198 137.74538 
L 590.26292 137.673895 
L 591.032434 137.191376 
L 591.134523 137.012666 
L 591.295518 136.869697 
L 591.764319 136.279952 
L 591.86893 136.154854 
L 593.931101 135.064719 
L 594.406078 134.930686 
L 594.516928 134.564329 
L 594.712215 134.42136 
L 594.807369 134.180101 
L 595.261451 133.849486 
L 595.349994 133.786937 
L 595.766428 133.536742 
L 595.959332 133.304418 
L 596.275437 132.848706 
L 596.437769 132.678931 
L 597.225872 132.232154 
L 597.318957 132.107056 
L 597.457209 131.981959 
L 597.668522 131.794312 
L 597.777377 131.713893 
L 597.979155 131.544117 
L 598.109624 131.392213 
L 598.212625 131.276051 
L 599.628123 130.007205 
L 599.733882 129.75701 
L 600.128172 129.480009 
L 600.513364 129.247685 
L 600.796146 129.086845 
L 600.964866 128.952812 
L 601.067701 128.827714 
L 601.172309 128.693681 
L 601.281357 128.586455 
L 601.785914 128.327324 
L 602.12313 128.139678 
L 602.233339 128.041387 
L 603.013551 127.353351 
L 603.113497 127.210382 
L 603.707803 126.978058 
L 603.793885 126.888703 
L 603.935438 126.75467 
L 604.189441 126.51341 
L 604.492883 126.209602 
L 604.576905 126.138118 
L 605.405269 125.798567 
L 605.583797 125.655599 
L 605.963202 125.450082 
L 606.20484 125.217758 
L 606.299367 125.09266 
L 606.644556 124.842465 
L 606.877285 124.699496 
L 607.062469 124.51185 
L 608.319237 123.412779 
L 608.472806 123.269811 
L 608.579615 123.117907 
L 608.727928 122.983873 
L 608.802967 122.823034 
L 608.983819 122.680065 
L 609.106487 122.51029 
L 610.105165 122.108191 
L 610.341907 121.768641 
L 610.449634 121.67035 
L 610.771294 121.420155 
L 610.851334 121.366541 
L 611.00205 121.223573 
L 611.096025 121.018055 
L 611.720161 120.794667 
L 611.92088 120.607021 
L 612.030061 120.50873 
L 612.550161 120.106631 
L 612.657265 119.963662 
L 612.849174 119.892178 
L 613.199694 119.713467 
L 613.337108 119.516885 
L 613.468617 119.364981 
L 613.572955 119.177335 
L 613.608642 119.061173 
L 613.70521 118.971818 
L 613.779385 118.802042 
L 613.870016 118.68588 
L 614.120491 118.480363 
L 614.226996 118.373137 
L 614.451889 118.221233 
L 614.871602 118.015715 
L 614.964616 117.92636 
L 615.109603 117.783391 
L 615.202506 117.711907 
L 615.437365 117.515325 
L 615.524915 117.452776 
L 615.560587 117.336614 
L 615.650814 117.291937 
L 615.717021 117.166839 
L 615.813839 117.023871 
L 616.513814 116.630707 
L 616.623077 116.50561 
L 616.78834 116.317963 
L 616.86968 116.210737 
L 617.056475 116.058833 
L 617.250837 115.897993 
L 618.052379 115.442281 
L 618.155191 115.281441 
L 618.331433 115.10273 
L 618.439225 114.888277 
L 618.550075 114.754244 
L 618.637199 114.539792 
L 618.832281 114.405758 
L 618.941437 114.370016 
L 620.017313 113.923239 
L 620.383064 113.378172 
L 620.521526 113.226268 
L 620.631697 113.110106 
L 620.798127 112.895653 
L 620.893168 112.716942 
L 621.189234 112.493554 
L 621.299991 112.422069 
L 621.429562 112.332714 
L 621.858092 112.055712 
L 622.036226 111.921679 
L 622.527513 111.698291 
L 622.636364 111.6 
L 622.636364 111.6 
" style="fill:none;stroke:#92c6ff;stroke-linecap:round;stroke-width:1.5;"/>
   </g>
   <g id="line2d_26">
    <defs>
     <path d="M 0 2.5 
C 0.663008 2.5 1.29895 2.236584 1.767767 1.767767 
C 2.236584 1.29895 2.5 0.663008 2.5 0 
C 2.5 -0.663008 2.236584 -1.29895 1.767767 -1.767767 
C 1.29895 -2.236584 0.663008 -2.5 0 -2.5 
C -0.663008 -2.5 -1.29895 -2.236584 -1.767767 -1.767767 
C -2.236584 -1.29895 -2.5 -0.663008 -2.5 0 
C -2.5 0.663008 -2.236584 1.29895 -1.767767 1.767767 
C -1.29895 2.236584 -0.663008 2.5 0 2.5 
z
" id="m4cce1e854b" style="stroke:#696969;"/>
    </defs>
    <g clip-path="url(#p4273800c15)">
     <use style="fill:#696969;stroke:#696969;" x="115.363636" xlink:href="#m4cce1e854b" y="615.6"/>
    </g>
   </g>
   <g id="line2d_27">
    <g clip-path="url(#p4273800c15)">
     <use style="fill:#696969;stroke:#696969;" x="196.326667" xlink:href="#m4cce1e854b" y="565.194639"/>
    </g>
   </g>
   <g id="line2d_28">
    <g clip-path="url(#p4273800c15)">
     <use style="fill:#696969;stroke:#696969;" x="240.678607" xlink:href="#m4cce1e854b" y="514.789277"/>
    </g>
   </g>
   <g id="line2d_29">
    <g clip-path="url(#p4273800c15)">
     <use style="fill:#696969;stroke:#696969;" x="290.701526" xlink:href="#m4cce1e854b" y="464.383916"/>
    </g>
   </g>
   <g id="line2d_30">
    <g clip-path="url(#p4273800c15)">
     <use style="fill:#696969;stroke:#696969;" x="330.89254" xlink:href="#m4cce1e854b" y="413.978555"/>
    </g>
   </g>
   <g id="line2d_31">
    <g clip-path="url(#p4273800c15)">
     <use style="fill:#696969;stroke:#696969;" x="373.471262" xlink:href="#m4cce1e854b" y="363.573193"/>
    </g>
   </g>
   <g id="line2d_32">
    <g clip-path="url(#p4273800c15)">
     <use style="fill:#696969;stroke:#696969;" x="415.390785" xlink:href="#m4cce1e854b" y="313.176768"/>
    </g>
   </g>
   <g id="line2d_33">
    <g clip-path="url(#p4273800c15)">
     <use style="fill:#696969;stroke:#696969;" x="462.673867" xlink:href="#m4cce1e854b" y="262.780342"/>
    </g>
   </g>
   <g id="line2d_34">
    <g clip-path="url(#p4273800c15)">
     <use style="fill:#696969;stroke:#696969;" x="515.507065" xlink:href="#m4cce1e854b" y="212.383916"/>
    </g>
   </g>
   <g id="line2d_35">
    <g clip-path="url(#p4273800c15)">
     <use style="fill:#696969;stroke:#696969;" x="563.898755" xlink:href="#m4cce1e854b" y="161.98749"/>
    </g>
   </g>
   <g id="line2d_36">
    <g clip-path="url(#p4273800c15)">
     <use style="fill:#696969;stroke:#696969;" x="622.636364" xlink:href="#m4cce1e854b" y="111.6"/>
    </g>
   </g>
   <g id="patch_3">
    <path d="M 90 640.8 
L 90 86.4 
" style="fill:none;stroke:#cccccc;stroke-linecap:square;stroke-linejoin:miter;"/>
   </g>
   <g id="patch_4">
    <path d="M 648 640.8 
L 648 86.4 
" style="fill:none;stroke:#cccccc;stroke-linecap:square;stroke-linejoin:miter;"/>
   </g>
   <g id="patch_5">
    <path d="M 90 640.8 
L 648 640.8 
" style="fill:none;stroke:#cccccc;stroke-linecap:square;stroke-linejoin:miter;"/>
   </g>
   <g id="patch_6">
    <path d="M 90 86.4 
L 648 86.4 
" style="fill:none;stroke:#cccccc;stroke-linecap:square;stroke-linejoin:miter;"/>
   </g>
   <g id="text_13">
    <!-- 1 (2014-06-07) -->
    <defs>
     <path id="DejaVuSans-32"/>
     <path d="M 31 75.875 
Q 24.46875 64.65625 21.28125 53.65625 
Q 18.109375 42.671875 18.109375 31.390625 
Q 18.109375 20.125 21.3125 9.0625 
Q 24.515625 -2 31 -13.1875 
L 23.1875 -13.1875 
Q 15.875 -1.703125 12.234375 9.375 
Q 8.59375 20.453125 8.59375 31.390625 
Q 8.59375 42.28125 12.203125 53.3125 
Q 15.828125 64.359375 23.1875 75.875 
z
" id="DejaVuSans-40"/>
     <path d="M 4.890625 31.390625 
L 31.203125 31.390625 
L 31.203125 23.390625 
L 4.890625 23.390625 
z
" id="DejaVuSans-45"/>
     <path d="M 8.015625 75.875 
L 15.828125 75.875 
Q 23.140625 64.359375 26.78125 53.3125 
Q 30.421875 42.28125 30.421875 31.390625 
Q 30.421875 20.453125 26.78125 9.375 
Q 23.140625 -1.703125 15.828125 -13.1875 
L 8.015625 -13.1875 
Q 14.5 -2 17.703125 9.0625 
Q 20.90625 20.125 20.90625 31.390625 
Q 20.90625 42.671875 17.703125 53.65625 
Q 14.5 64.65625 8.015625 75.875 
z
" id="DejaVuSans-41"/>
    </defs>
    <g style="fill:#262626;" transform="translate(120.363636 623.198437)scale(0.1 -0.1)">
     <use xlink:href="#DejaVuSans-49"/>
     <use x="63.623047" xlink:href="#DejaVuSans-32"/>
     <use x="95.410156" xlink:href="#DejaVuSans-40"/>
     <use x="134.423828" xlink:href="#DejaVuSans-50"/>
     <use x="198.046875" xlink:href="#DejaVuSans-48"/>
     <use x="261.669922" xlink:href="#DejaVuSans-49"/>
     <use x="325.292969" xlink:href="#DejaVuSans-52"/>
     <use x="388.916016" xlink:href="#DejaVuSans-45"/>
     <use x="425" xlink:href="#DejaVuSans-48"/>
     <use x="488.623047" xlink:href="#DejaVuSans-54"/>
     <use x="552.246094" xlink:href="#DejaVuSans-45"/>
     <use x="588.330078" xlink:href="#DejaVuSans-48"/>
     <use x="651.953125" xlink:href="#DejaVuSans-55"/>
     <use x="715.576172" xlink:href="#DejaVuSans-41"/>
    </g>
   </g>
   <g id="text_14">
    <!-- 5642 (2015-05-29) -->
    <g style="fill:#262626;" transform="translate(201.326667 572.793076)scale(0.1 -0.1)">
     <use xlink:href="#DejaVuSans-53"/>
     <use x="63.623047" xlink:href="#DejaVuSans-54"/>
     <use x="127.246094" xlink:href="#DejaVuSans-52"/>
     <use x="190.869141" xlink:href="#DejaVuSans-50"/>
     <use x="254.492188" xlink:href="#DejaVuSans-32"/>
     <use x="286.279297" xlink:href="#DejaVuSans-40"/>
     <use x="325.292969" xlink:href="#DejaVuSans-50"/>
     <use x="388.916016" xlink:href="#DejaVuSans-48"/>
     <use x="452.539062" xlink:href="#DejaVuSans-49"/>
     <use x="516.162109" xlink:href="#DejaVuSans-53"/>
     <use x="579.785156" xlink:href="#DejaVuSans-45"/>
     <use x="615.869141" xlink:href="#DejaVuSans-48"/>
     <use x="679.492188" xlink:href="#DejaVuSans-53"/>
     <use x="743.115234" xlink:href="#DejaVuSans-45"/>
     <use x="779.199219" xlink:href="#DejaVuSans-50"/>
     <use x="842.822266" xlink:href="#DejaVuSans-57"/>
     <use x="906.445312" xlink:href="#DejaVuSans-41"/>
    </g>
   </g>
   <g id="text_15">
    <!-- 11283 (2015-12-11) -->
    <g style="fill:#262626;" transform="translate(245.678607 522.387715)scale(0.1 -0.1)">
     <use xlink:href="#DejaVuSans-49"/>
     <use x="63.623047" xlink:href="#DejaVuSans-49"/>
     <use x="127.246094" xlink:href="#DejaVuSans-50"/>
     <use x="190.869141" xlink:href="#DejaVuSans-56"/>
     <use x="254.492188" xlink:href="#DejaVuSans-51"/>
     <use x="318.115234" xlink:href="#DejaVuSans-32"/>
     <use x="349.902344" xlink:href="#DejaVuSans-40"/>
     <use x="388.916016" xlink:href="#DejaVuSans-50"/>
     <use x="452.539062" xlink:href="#DejaVuSans-48"/>
     <use x="516.162109" xlink:href="#DejaVuSans-49"/>
     <use x="579.785156" xlink:href="#DejaVuSans-53"/>
     <use x="643.408203" xlink:href="#DejaVuSans-45"/>
     <use x="679.492188" xlink:href="#DejaVuSans-49"/>
     <use x="743.115234" xlink:href="#DejaVuSans-50"/>
     <use x="806.738281" xlink:href="#DejaVuSans-45"/>
     <use x="842.822266" xlink:href="#DejaVuSans-49"/>
     <use x="906.445312" xlink:href="#DejaVuSans-49"/>
     <use x="970.068359" xlink:href="#DejaVuSans-41"/>
    </g>
   </g>
   <g id="text_16">
    <!-- 16924 (2016-07-18) -->
    <g style="fill:#262626;" transform="translate(295.701526 471.982354)scale(0.1 -0.1)">
     <use xlink:href="#DejaVuSans-49"/>
     <use x="63.623047" xlink:href="#DejaVuSans-54"/>
     <use x="127.246094" xlink:href="#DejaVuSans-57"/>
     <use x="190.869141" xlink:href="#DejaVuSans-50"/>
     <use x="254.492188" xlink:href="#DejaVuSans-52"/>
     <use x="318.115234" xlink:href="#DejaVuSans-32"/>
     <use x="349.902344" xlink:href="#DejaVuSans-40"/>
     <use x="388.916016" xlink:href="#DejaVuSans-50"/>
     <use x="452.539062" xlink:href="#DejaVuSans-48"/>
     <use x="516.162109" xlink:href="#DejaVuSans-49"/>
     <use x="579.785156" xlink:href="#DejaVuSans-54"/>
     <use x="643.408203" xlink:href="#DejaVuSans-45"/>
     <use x="679.492188" xlink:href="#DejaVuSans-48"/>
     <use x="743.115234" xlink:href="#DejaVuSans-55"/>
     <use x="806.738281" xlink:href="#DejaVuSans-45"/>
     <use x="842.822266" xlink:href="#DejaVuSans-49"/>
     <use x="906.445312" xlink:href="#DejaVuSans-56"/>
     <use x="970.068359" xlink:href="#DejaVuSans-41"/>
    </g>
   </g>
   <g id="text_17">
    <!-- 22565 (2017-01-11) -->
    <g style="fill:#262626;" transform="translate(335.89254 421.576992)scale(0.1 -0.1)">
     <use xlink:href="#DejaVuSans-50"/>
     <use x="63.623047" xlink:href="#DejaVuSans-50"/>
     <use x="127.246094" xlink:href="#DejaVuSans-53"/>
     <use x="190.869141" xlink:href="#DejaVuSans-54"/>
     <use x="254.492188" xlink:href="#DejaVuSans-53"/>
     <use x="318.115234" xlink:href="#DejaVuSans-32"/>
     <use x="349.902344" xlink:href="#DejaVuSans-40"/>
     <use x="388.916016" xlink:href="#DejaVuSans-50"/>
     <use x="452.539062" xlink:href="#DejaVuSans-48"/>
     <use x="516.162109" xlink:href="#DejaVuSans-49"/>
     <use x="579.785156" xlink:href="#DejaVuSans-55"/>
     <use x="643.408203" xlink:href="#DejaVuSans-45"/>
     <use x="679.492188" xlink:href="#DejaVuSans-48"/>
     <use x="743.115234" xlink:href="#DejaVuSans-49"/>
     <use x="806.738281" xlink:href="#DejaVuSans-45"/>
     <use x="842.822266" xlink:href="#DejaVuSans-49"/>
     <use x="906.445312" xlink:href="#DejaVuSans-49"/>
     <use x="970.068359" xlink:href="#DejaVuSans-41"/>
    </g>
   </g>
   <g id="text_18">
    <!-- 28206 (2017-07-18) -->
    <g style="fill:#262626;" transform="translate(378.471262 371.171631)scale(0.1 -0.1)">
     <use xlink:href="#DejaVuSans-50"/>
     <use x="63.623047" xlink:href="#DejaVuSans-56"/>
     <use x="127.246094" xlink:href="#DejaVuSans-50"/>
     <use x="190.869141" xlink:href="#DejaVuSans-48"/>
     <use x="254.492188" xlink:href="#DejaVuSans-54"/>
     <use x="318.115234" xlink:href="#DejaVuSans-32"/>
     <use x="349.902344" xlink:href="#DejaVuSans-40"/>
     <use x="388.916016" xlink:href="#DejaVuSans-50"/>
     <use x="452.539062" xlink:href="#DejaVuSans-48"/>
     <use x="516.162109" xlink:href="#DejaVuSans-49"/>
     <use x="579.785156" xlink:href="#DejaVuSans-55"/>
     <use x="643.408203" xlink:href="#DejaVuSans-45"/>
     <use x="679.492188" xlink:href="#DejaVuSans-48"/>
     <use x="743.115234" xlink:href="#DejaVuSans-55"/>
     <use x="806.738281" xlink:href="#DejaVuSans-45"/>
     <use x="842.822266" xlink:href="#DejaVuSans-49"/>
     <use x="906.445312" xlink:href="#DejaVuSans-56"/>
     <use x="970.068359" xlink:href="#DejaVuSans-41"/>
    </g>
   </g>
   <g id="text_19">
    <!-- 33846 (2018-01-19) -->
    <g style="fill:#262626;" transform="translate(420.390785 320.775205)scale(0.1 -0.1)">
     <use xlink:href="#DejaVuSans-51"/>
     <use x="63.623047" xlink:href="#DejaVuSans-51"/>
     <use x="127.246094" xlink:href="#DejaVuSans-56"/>
     <use x="190.869141" xlink:href="#DejaVuSans-52"/>
     <use x="254.492188" xlink:href="#DejaVuSans-54"/>
     <use x="318.115234" xlink:href="#DejaVuSans-32"/>
     <use x="349.902344" xlink:href="#DejaVuSans-40"/>
     <use x="388.916016" xlink:href="#DejaVuSans-50"/>
     <use x="452.539062" xlink:href="#DejaVuSans-48"/>
     <use x="516.162109" xlink:href="#DejaVuSans-49"/>
     <use x="579.785156" xlink:href="#DejaVuSans-56"/>
     <use x="643.408203" xlink:href="#DejaVuSans-45"/>
     <use x="679.492188" xlink:href="#DejaVuSans-48"/>
     <use x="743.115234" xlink:href="#DejaVuSans-49"/>
     <use x="806.738281" xlink:href="#DejaVuSans-45"/>
     <use x="842.822266" xlink:href="#DejaVuSans-49"/>
     <use x="906.445312" xlink:href="#DejaVuSans-57"/>
     <use x="970.068359" xlink:href="#DejaVuSans-41"/>
    </g>
   </g>
   <g id="text_20">
    <!-- 39486 (2018-08-15) -->
    <g style="fill:#262626;" transform="translate(467.673867 270.378779)scale(0.1 -0.1)">
     <use xlink:href="#DejaVuSans-51"/>
     <use x="63.623047" xlink:href="#DejaVuSans-57"/>
     <use x="127.246094" xlink:href="#DejaVuSans-52"/>
     <use x="190.869141" xlink:href="#DejaVuSans-56"/>
     <use x="254.492188" xlink:href="#DejaVuSans-54"/>
     <use x="318.115234" xlink:href="#DejaVuSans-32"/>
     <use x="349.902344" xlink:href="#DejaVuSans-40"/>
     <use x="388.916016" xlink:href="#DejaVuSans-50"/>
     <use x="452.539062" xlink:href="#DejaVuSans-48"/>
     <use x="516.162109" xlink:href="#DejaVuSans-49"/>
     <use x="579.785156" xlink:href="#DejaVuSans-56"/>
     <use x="643.408203" xlink:href="#DejaVuSans-45"/>
     <use x="679.492188" xlink:href="#DejaVuSans-48"/>
     <use x="743.115234" xlink:href="#DejaVuSans-56"/>
     <use x="806.738281" xlink:href="#DejaVuSans-45"/>
     <use x="842.822266" xlink:href="#DejaVuSans-49"/>
     <use x="906.445312" xlink:href="#DejaVuSans-53"/>
     <use x="970.068359" xlink:href="#DejaVuSans-41"/>
    </g>
   </g>
   <g id="text_21">
    <!-- 45126 (2019-04-05) -->
    <g style="fill:#262626;" transform="translate(520.507065 219.982354)scale(0.1 -0.1)">
     <use xlink:href="#DejaVuSans-52"/>
     <use x="63.623047" xlink:href="#DejaVuSans-53"/>
     <use x="127.246094" xlink:href="#DejaVuSans-49"/>
     <use x="190.869141" xlink:href="#DejaVuSans-50"/>
     <use x="254.492188" xlink:href="#DejaVuSans-54"/>
     <use x="318.115234" xlink:href="#DejaVuSans-32"/>
     <use x="349.902344" xlink:href="#DejaVuSans-40"/>
     <use x="388.916016" xlink:href="#DejaVuSans-50"/>
     <use x="452.539062" xlink:href="#DejaVuSans-48"/>
     <use x="516.162109" xlink:href="#DejaVuSans-49"/>
     <use x="579.785156" xlink:href="#DejaVuSans-57"/>
     <use x="643.408203" xlink:href="#DejaVuSans-45"/>
     <use x="679.492188" xlink:href="#DejaVuSans-48"/>
     <use x="743.115234" xlink:href="#DejaVuSans-52"/>
     <use x="806.738281" xlink:href="#DejaVuSans-45"/>
     <use x="842.822266" xlink:href="#DejaVuSans-48"/>
     <use x="906.445312" xlink:href="#DejaVuSans-53"/>
     <use x="970.068359" xlink:href="#DejaVuSans-41"/>
    </g>
   </g>
   <g id="text_22">
    <!-- 50766 (2019-11-04) -->
    <g style="fill:#262626;" transform="translate(568.898755 169.585928)scale(0.1 -0.1)">
     <use xlink:href="#DejaVuSans-53"/>
     <use x="63.623047" xlink:href="#DejaVuSans-48"/>
     <use x="127.246094" xlink:href="#DejaVuSans-55"/>
     <use x="190.869141" xlink:href="#DejaVuSans-54"/>
     <use x="254.492188" xlink:href="#DejaVuSans-54"/>
     <use x="318.115234" xlink:href="#DejaVuSans-32"/>
     <use x="349.902344" xlink:href="#DejaVuSans-40"/>
     <use x="388.916016" xlink:href="#DejaVuSans-50"/>
     <use x="452.539062" xlink:href="#DejaVuSans-48"/>
     <use x="516.162109" xlink:href="#DejaVuSans-49"/>
     <use x="579.785156" xlink:href="#DejaVuSans-57"/>
     <use x="643.408203" xlink:href="#DejaVuSans-45"/>
     <use x="679.492188" xlink:href="#DejaVuSans-49"/>
     <use x="743.115234" xlink:href="#DejaVuSans-49"/>
     <use x="806.738281" xlink:href="#DejaVuSans-45"/>
     <use x="842.822266" xlink:href="#DejaVuSans-48"/>
     <use x="906.445312" xlink:href="#DejaVuSans-52"/>
     <use x="970.068359" xlink:href="#DejaVuSans-41"/>
    </g>
   </g>
   <g id="text_23">
    <!-- 56405 (2020-07-20) -->
    <g style="fill:#262626;" transform="translate(627.636364 119.198437)scale(0.1 -0.1)">
     <use xlink:href="#DejaVuSans-53"/>
     <use x="63.623047" xlink:href="#DejaVuSans-54"/>
     <use x="127.246094" xlink:href="#DejaVuSans-52"/>
     <use x="190.869141" xlink:href="#DejaVuSans-48"/>
     <use x="254.492188" xlink:href="#DejaVuSans-53"/>
     <use x="318.115234" xlink:href="#DejaVuSans-32"/>
     <use x="349.902344" xlink:href="#DejaVuSans-40"/>
     <use x="388.916016" xlink:href="#DejaVuSans-50"/>
     <use x="452.539062" xlink:href="#DejaVuSans-48"/>
     <use x="516.162109" xlink:href="#DejaVuSans-50"/>
     <use x="579.785156" xlink:href="#DejaVuSans-48"/>
     <use x="643.408203" xlink:href="#DejaVuSans-45"/>
     <use x="679.492188" xlink:href="#DejaVuSans-48"/>
     <use x="743.115234" xlink:href="#DejaVuSans-55"/>
     <use x="806.738281" xlink:href="#DejaVuSans-45"/>
     <use x="842.822266" xlink:href="#DejaVuSans-50"/>
     <use x="906.445312" xlink:href="#DejaVuSans-48"/>
     <use x="970.068359" xlink:href="#DejaVuSans-41"/>
    </g>
   </g>
   <g id="text_24">
    <!-- Closed PRs over time -->
    <defs>
     <path d="M 64.40625 67.28125 
L 64.40625 56.890625 
Q 59.421875 61.53125 53.78125 63.8125 
Q 48.140625 66.109375 41.796875 66.109375 
Q 29.296875 66.109375 22.65625 58.46875 
Q 16.015625 50.828125 16.015625 36.375 
Q 16.015625 21.96875 22.65625 14.328125 
Q 29.296875 6.6875 41.796875 6.6875 
Q 48.140625 6.6875 53.78125 8.984375 
Q 59.421875 11.28125 64.40625 15.921875 
L 64.40625 5.609375 
Q 59.234375 2.09375 53.4375 0.328125 
Q 47.65625 -1.421875 41.21875 -1.421875 
Q 24.65625 -1.421875 15.125 8.703125 
Q 5.609375 18.84375 5.609375 36.375 
Q 5.609375 53.953125 15.125 64.078125 
Q 24.65625 74.21875 41.21875 74.21875 
Q 47.75 74.21875 53.53125 72.484375 
Q 59.328125 70.75 64.40625 67.28125 
z
" id="DejaVuSans-67"/>
     <path d="M 9.421875 75.984375 
L 18.40625 75.984375 
L 18.40625 0 
L 9.421875 0 
z
" id="DejaVuSans-108"/>
     <path d="M 30.609375 48.390625 
Q 23.390625 48.390625 19.1875 42.75 
Q 14.984375 37.109375 14.984375 27.296875 
Q 14.984375 17.484375 19.15625 11.84375 
Q 23.34375 6.203125 30.609375 6.203125 
Q 37.796875 6.203125 41.984375 11.859375 
Q 46.1875 17.53125 46.1875 27.296875 
Q 46.1875 37.015625 41.984375 42.703125 
Q 37.796875 48.390625 30.609375 48.390625 
z
M 30.609375 56 
Q 42.328125 56 49.015625 48.375 
Q 55.71875 40.765625 55.71875 27.296875 
Q 55.71875 13.875 49.015625 6.21875 
Q 42.328125 -1.421875 30.609375 -1.421875 
Q 18.84375 -1.421875 12.171875 6.21875 
Q 5.515625 13.875 5.515625 27.296875 
Q 5.515625 40.765625 12.171875 48.375 
Q 18.84375 56 30.609375 56 
z
" id="DejaVuSans-111"/>
     <path d="M 44.28125 53.078125 
L 44.28125 44.578125 
Q 40.484375 46.53125 36.375 47.5 
Q 32.28125 48.484375 27.875 48.484375 
Q 21.1875 48.484375 17.84375 46.4375 
Q 14.5 44.390625 14.5 40.28125 
Q 14.5 37.15625 16.890625 35.375 
Q 19.28125 33.59375 26.515625 31.984375 
L 29.59375 31.296875 
Q 39.15625 29.25 43.1875 25.515625 
Q 47.21875 21.78125 47.21875 15.09375 
Q 47.21875 7.46875 41.1875 3.015625 
Q 35.15625 -1.421875 24.609375 -1.421875 
Q 20.21875 -1.421875 15.453125 -0.5625 
Q 10.6875 0.296875 5.421875 2 
L 5.421875 11.28125 
Q 10.40625 8.6875 15.234375 7.390625 
Q 20.0625 6.109375 24.8125 6.109375 
Q 31.15625 6.109375 34.5625 8.28125 
Q 37.984375 10.453125 37.984375 14.40625 
Q 37.984375 18.0625 35.515625 20.015625 
Q 33.0625 21.96875 24.703125 23.78125 
L 21.578125 24.515625 
Q 13.234375 26.265625 9.515625 29.90625 
Q 5.8125 33.546875 5.8125 39.890625 
Q 5.8125 47.609375 11.28125 51.796875 
Q 16.75 56 26.8125 56 
Q 31.78125 56 36.171875 55.265625 
Q 40.578125 54.546875 44.28125 53.078125 
z
" id="DejaVuSans-115"/>
     <path d="M 56.203125 29.59375 
L 56.203125 25.203125 
L 14.890625 25.203125 
Q 15.484375 15.921875 20.484375 11.0625 
Q 25.484375 6.203125 34.421875 6.203125 
Q 39.59375 6.203125 44.453125 7.46875 
Q 49.3125 8.734375 54.109375 11.28125 
L 54.109375 2.78125 
Q 49.265625 0.734375 44.1875 -0.34375 
Q 39.109375 -1.421875 33.890625 -1.421875 
Q 20.796875 -1.421875 13.15625 6.1875 
Q 5.515625 13.8125 5.515625 26.8125 
Q 5.515625 40.234375 12.765625 48.109375 
Q 20.015625 56 32.328125 56 
Q 43.359375 56 49.78125 48.890625 
Q 56.203125 41.796875 56.203125 29.59375 
z
M 47.21875 32.234375 
Q 47.125 39.59375 43.09375 43.984375 
Q 39.0625 48.390625 32.421875 48.390625 
Q 24.90625 48.390625 20.390625 44.140625 
Q 15.875 39.890625 15.1875 32.171875 
z
" id="DejaVuSans-101"/>
     <path d="M 45.40625 46.390625 
L 45.40625 75.984375 
L 54.390625 75.984375 
L 54.390625 0 
L 45.40625 0 
L 45.40625 8.203125 
Q 42.578125 3.328125 38.25 0.953125 
Q 33.9375 -1.421875 27.875 -1.421875 
Q 17.96875 -1.421875 11.734375 6.484375 
Q 5.515625 14.40625 5.515625 27.296875 
Q 5.515625 40.1875 11.734375 48.09375 
Q 17.96875 56 27.875 56 
Q 33.9375 56 38.25 53.625 
Q 42.578125 51.265625 45.40625 46.390625 
z
M 14.796875 27.296875 
Q 14.796875 17.390625 18.875 11.75 
Q 22.953125 6.109375 30.078125 6.109375 
Q 37.203125 6.109375 41.296875 11.75 
Q 45.40625 17.390625 45.40625 27.296875 
Q 45.40625 37.203125 41.296875 42.84375 
Q 37.203125 48.484375 30.078125 48.484375 
Q 22.953125 48.484375 18.875 42.84375 
Q 14.796875 37.203125 14.796875 27.296875 
z
" id="DejaVuSans-100"/>
     <path d="M 19.671875 64.796875 
L 19.671875 37.40625 
L 32.078125 37.40625 
Q 38.96875 37.40625 42.71875 40.96875 
Q 46.484375 44.53125 46.484375 51.125 
Q 46.484375 57.671875 42.71875 61.234375 
Q 38.96875 64.796875 32.078125 64.796875 
z
M 9.8125 72.90625 
L 32.078125 72.90625 
Q 44.34375 72.90625 50.609375 67.359375 
Q 56.890625 61.8125 56.890625 51.125 
Q 56.890625 40.328125 50.609375 34.8125 
Q 44.34375 29.296875 32.078125 29.296875 
L 19.671875 29.296875 
L 19.671875 0 
L 9.8125 0 
z
" id="DejaVuSans-80"/>
     <path d="M 44.390625 34.1875 
Q 47.5625 33.109375 50.5625 29.59375 
Q 53.5625 26.078125 56.59375 19.921875 
L 66.609375 0 
L 56 0 
L 46.6875 18.703125 
Q 43.0625 26.03125 39.671875 28.421875 
Q 36.28125 30.8125 30.421875 30.8125 
L 19.671875 30.8125 
L 19.671875 0 
L 9.8125 0 
L 9.8125 72.90625 
L 32.078125 72.90625 
Q 44.578125 72.90625 50.734375 67.671875 
Q 56.890625 62.453125 56.890625 51.90625 
Q 56.890625 45.015625 53.6875 40.46875 
Q 50.484375 35.9375 44.390625 34.1875 
z
M 19.671875 64.796875 
L 19.671875 38.921875 
L 32.078125 38.921875 
Q 39.203125 38.921875 42.84375 42.21875 
Q 46.484375 45.515625 46.484375 51.90625 
Q 46.484375 58.296875 42.84375 61.546875 
Q 39.203125 64.796875 32.078125 64.796875 
z
" id="DejaVuSans-82"/>
     <path d="M 2.984375 54.6875 
L 12.5 54.6875 
L 29.59375 8.796875 
L 46.6875 54.6875 
L 56.203125 54.6875 
L 35.6875 0 
L 23.484375 0 
z
" id="DejaVuSans-118"/>
     <path d="M 41.109375 46.296875 
Q 39.59375 47.171875 37.8125 47.578125 
Q 36.03125 48 33.890625 48 
Q 26.265625 48 22.1875 43.046875 
Q 18.109375 38.09375 18.109375 28.8125 
L 18.109375 0 
L 9.078125 0 
L 9.078125 54.6875 
L 18.109375 54.6875 
L 18.109375 46.1875 
Q 20.953125 51.171875 25.484375 53.578125 
Q 30.03125 56 36.53125 56 
Q 37.453125 56 38.578125 55.875 
Q 39.703125 55.765625 41.0625 55.515625 
z
" id="DejaVuSans-114"/>
     <path d="M 18.3125 70.21875 
L 18.3125 54.6875 
L 36.8125 54.6875 
L 36.8125 47.703125 
L 18.3125 47.703125 
L 18.3125 18.015625 
Q 18.3125 11.328125 20.140625 9.421875 
Q 21.96875 7.515625 27.59375 7.515625 
L 36.8125 7.515625 
L 36.8125 0 
L 27.59375 0 
Q 17.1875 0 13.234375 3.875 
Q 9.28125 7.765625 9.28125 18.015625 
L 9.28125 47.703125 
L 2.6875 47.703125 
L 2.6875 54.6875 
L 9.28125 54.6875 
L 9.28125 70.21875 
z
" id="DejaVuSans-116"/>
     <path d="M 9.421875 54.6875 
L 18.40625 54.6875 
L 18.40625 0 
L 9.421875 0 
z
M 9.421875 75.984375 
L 18.40625 75.984375 
L 18.40625 64.59375 
L 9.421875 64.59375 
z
" id="DejaVuSans-105"/>
     <path d="M 52 44.1875 
Q 55.375 50.25 60.0625 53.125 
Q 64.75 56 71.09375 56 
Q 79.640625 56 84.28125 50.015625 
Q 88.921875 44.046875 88.921875 33.015625 
L 88.921875 0 
L 79.890625 0 
L 79.890625 32.71875 
Q 79.890625 40.578125 77.09375 44.375 
Q 74.3125 48.1875 68.609375 48.1875 
Q 61.625 48.1875 57.5625 43.546875 
Q 53.515625 38.921875 53.515625 30.90625 
L 53.515625 0 
L 44.484375 0 
L 44.484375 32.71875 
Q 44.484375 40.625 41.703125 44.40625 
Q 38.921875 48.1875 33.109375 48.1875 
Q 26.21875 48.1875 22.15625 43.53125 
Q 18.109375 38.875 18.109375 30.90625 
L 18.109375 0 
L 9.078125 0 
L 9.078125 54.6875 
L 18.109375 54.6875 
L 18.109375 46.1875 
Q 21.1875 51.21875 25.484375 53.609375 
Q 29.78125 56 35.6875 56 
Q 41.65625 56 45.828125 52.96875 
Q 50 49.953125 52 44.1875 
z
" id="DejaVuSans-109"/>
    </defs>
    <g style="fill:#262626;" transform="translate(305.27625 80.4)scale(0.12 -0.12)">
     <use xlink:href="#DejaVuSans-67"/>
     <use x="69.824219" xlink:href="#DejaVuSans-108"/>
     <use x="97.607422" xlink:href="#DejaVuSans-111"/>
     <use x="158.789062" xlink:href="#DejaVuSans-115"/>
     <use x="210.888672" xlink:href="#DejaVuSans-101"/>
     <use x="272.412109" xlink:href="#DejaVuSans-100"/>
     <use x="335.888672" xlink:href="#DejaVuSans-32"/>
     <use x="367.675781" xlink:href="#DejaVuSans-80"/>
     <use x="427.978516" xlink:href="#DejaVuSans-82"/>
     <use x="497.460938" xlink:href="#DejaVuSans-115"/>
     <use x="549.560547" xlink:href="#DejaVuSans-32"/>
     <use x="581.347656" xlink:href="#DejaVuSans-111"/>
     <use x="642.529297" xlink:href="#DejaVuSans-118"/>
     <use x="701.708984" xlink:href="#DejaVuSans-101"/>
     <use x="763.232422" xlink:href="#DejaVuSans-114"/>
     <use x="804.345703" xlink:href="#DejaVuSans-32"/>
     <use x="836.132812" xlink:href="#DejaVuSans-116"/>
     <use x="875.341797" xlink:href="#DejaVuSans-105"/>
     <use x="903.125" xlink:href="#DejaVuSans-109"/>
     <use x="1000.537109" xlink:href="#DejaVuSans-101"/>
    </g>
   </g>
  </g>
 </g>
 <defs>
  <clipPath id="p4273800c15">
   <rect height="554.4" width="558" x="90" y="86.4"/>
  </clipPath>
 </defs>
</svg>
