<?xml version="1.0" encoding="utf-8" standalone="no"?>
<!DOCTYPE svg PUBLIC "-//W3C//DTD SVG 1.1//EN"
  "http://www.w3.org/Graphics/SVG/1.1/DTD/svg11.dtd">
<!-- Created with matplotlib (https://matplotlib.org/) -->
<svg height="720pt" version="1.1" viewBox="0 0 720 720" width="720pt" xmlns="http://www.w3.org/2000/svg" xmlns:xlink="http://www.w3.org/1999/xlink">
 <defs>
  <style type="text/css">
*{stroke-linecap:butt;stroke-linejoin:round;}
  </style>
 </defs>
 <g id="figure_1">
  <g id="patch_1">
   <path d="M 0 720 
L 720 720 
L 720 0 
L 0 0 
z
" style="fill:#ffffff;"/>
  </g>
  <g id="axes_1">
   <g id="patch_2">
    <path d="M 90 640.8 
L 648 640.8 
L 648 86.4 
L 90 86.4 
z
" style="fill:#ffffff;"/>
   </g>
   <g id="matplotlib.axis_1">
    <g id="xtick_1">
     <g id="line2d_1">
      <path clip-path="url(#p7dfaf549ac)" d="M 161.994898 640.8 
L 161.994898 86.4 
" style="fill:none;stroke:#cccccc;stroke-linecap:round;stroke-width:0.8;"/>
     </g>
     <g id="line2d_2"/>
     <g id="text_1">
      <!-- 2015 -->
      <defs>
       <path d="M 19.1875 8.296875 
L 53.609375 8.296875 
L 53.609375 0 
L 7.328125 0 
L 7.328125 8.296875 
Q 12.9375 14.109375 22.625 23.890625 
Q 32.328125 33.6875 34.8125 36.53125 
Q 39.546875 41.84375 41.421875 45.53125 
Q 43.3125 49.21875 43.3125 52.78125 
Q 43.3125 58.59375 39.234375 62.25 
Q 35.15625 65.921875 28.609375 65.921875 
Q 23.96875 65.921875 18.8125 64.3125 
Q 13.671875 62.703125 7.8125 59.421875 
L 7.8125 69.390625 
Q 13.765625 71.78125 18.9375 73 
Q 24.125 74.21875 28.421875 74.21875 
Q 39.75 74.21875 46.484375 68.546875 
Q 53.21875 62.890625 53.21875 53.421875 
Q 53.21875 48.921875 51.53125 44.890625 
Q 49.859375 40.875 45.40625 35.40625 
Q 44.1875 33.984375 37.640625 27.21875 
Q 31.109375 20.453125 19.1875 8.296875 
z
" id="DejaVuSans-50"/>
       <path d="M 31.78125 66.40625 
Q 24.171875 66.40625 20.328125 58.90625 
Q 16.5 51.421875 16.5 36.375 
Q 16.5 21.390625 20.328125 13.890625 
Q 24.171875 6.390625 31.78125 6.390625 
Q 39.453125 6.390625 43.28125 13.890625 
Q 47.125 21.390625 47.125 36.375 
Q 47.125 51.421875 43.28125 58.90625 
Q 39.453125 66.40625 31.78125 66.40625 
z
M 31.78125 74.21875 
Q 44.046875 74.21875 50.515625 64.515625 
Q 56.984375 54.828125 56.984375 36.375 
Q 56.984375 17.96875 50.515625 8.265625 
Q 44.046875 -1.421875 31.78125 -1.421875 
Q 19.53125 -1.421875 13.0625 8.265625 
Q 6.59375 17.96875 6.59375 36.375 
Q 6.59375 54.828125 13.0625 64.515625 
Q 19.53125 74.21875 31.78125 74.21875 
z
" id="DejaVuSans-48"/>
       <path d="M 12.40625 8.296875 
L 28.515625 8.296875 
L 28.515625 63.921875 
L 10.984375 60.40625 
L 10.984375 69.390625 
L 28.421875 72.90625 
L 38.28125 72.90625 
L 38.28125 8.296875 
L 54.390625 8.296875 
L 54.390625 0 
L 12.40625 0 
z
" id="DejaVuSans-49"/>
       <path d="M 10.796875 72.90625 
L 49.515625 72.90625 
L 49.515625 64.59375 
L 19.828125 64.59375 
L 19.828125 46.734375 
Q 21.96875 47.46875 24.109375 47.828125 
Q 26.265625 48.1875 28.421875 48.1875 
Q 40.625 48.1875 47.75 41.5 
Q 54.890625 34.8125 54.890625 23.390625 
Q 54.890625 11.625 47.5625 5.09375 
Q 40.234375 -1.421875 26.90625 -1.421875 
Q 22.3125 -1.421875 17.546875 -0.640625 
Q 12.796875 0.140625 7.71875 1.703125 
L 7.71875 11.625 
Q 12.109375 9.234375 16.796875 8.0625 
Q 21.484375 6.890625 26.703125 6.890625 
Q 35.15625 6.890625 40.078125 11.328125 
Q 45.015625 15.765625 45.015625 23.390625 
Q 45.015625 31 40.078125 35.4375 
Q 35.15625 39.890625 26.703125 39.890625 
Q 22.75 39.890625 18.8125 39.015625 
Q 14.890625 38.140625 10.796875 36.28125 
z
" id="DejaVuSans-53"/>
      </defs>
      <g style="fill:#262626;" transform="translate(149.269898 651.898438)scale(0.1 -0.1)">
       <use xlink:href="#DejaVuSans-50"/>
       <use x="63.623047" xlink:href="#DejaVuSans-48"/>
       <use x="127.246094" xlink:href="#DejaVuSans-49"/>
       <use x="190.869141" xlink:href="#DejaVuSans-53"/>
      </g>
     </g>
    </g>
    <g id="xtick_2">
     <g id="line2d_3">
      <path clip-path="url(#p7dfaf549ac)" d="M 244.721481 640.8 
L 244.721481 86.4 
" style="fill:none;stroke:#cccccc;stroke-linecap:round;stroke-width:0.8;"/>
     </g>
     <g id="line2d_4"/>
     <g id="text_2">
      <!-- 2016 -->
      <defs>
       <path d="M 33.015625 40.375 
Q 26.375 40.375 22.484375 35.828125 
Q 18.609375 31.296875 18.609375 23.390625 
Q 18.609375 15.53125 22.484375 10.953125 
Q 26.375 6.390625 33.015625 6.390625 
Q 39.65625 6.390625 43.53125 10.953125 
Q 47.40625 15.53125 47.40625 23.390625 
Q 47.40625 31.296875 43.53125 35.828125 
Q 39.65625 40.375 33.015625 40.375 
z
M 52.59375 71.296875 
L 52.59375 62.3125 
Q 48.875 64.0625 45.09375 64.984375 
Q 41.3125 65.921875 37.59375 65.921875 
Q 27.828125 65.921875 22.671875 59.328125 
Q 17.53125 52.734375 16.796875 39.40625 
Q 19.671875 43.65625 24.015625 45.921875 
Q 28.375 48.1875 33.59375 48.1875 
Q 44.578125 48.1875 50.953125 41.515625 
Q 57.328125 34.859375 57.328125 23.390625 
Q 57.328125 12.15625 50.6875 5.359375 
Q 44.046875 -1.421875 33.015625 -1.421875 
Q 20.359375 -1.421875 13.671875 8.265625 
Q 6.984375 17.96875 6.984375 36.375 
Q 6.984375 53.65625 15.1875 63.9375 
Q 23.390625 74.21875 37.203125 74.21875 
Q 40.921875 74.21875 44.703125 73.484375 
Q 48.484375 72.75 52.59375 71.296875 
z
" id="DejaVuSans-54"/>
      </defs>
      <g style="fill:#262626;" transform="translate(231.996481 651.898438)scale(0.1 -0.1)">
       <use xlink:href="#DejaVuSans-50"/>
       <use x="63.623047" xlink:href="#DejaVuSans-48"/>
       <use x="127.246094" xlink:href="#DejaVuSans-49"/>
       <use x="190.869141" xlink:href="#DejaVuSans-54"/>
      </g>
     </g>
    </g>
    <g id="xtick_3">
     <g id="line2d_5">
      <path clip-path="url(#p7dfaf549ac)" d="M 327.674713 640.8 
L 327.674713 86.4 
" style="fill:none;stroke:#cccccc;stroke-linecap:round;stroke-width:0.8;"/>
     </g>
     <g id="line2d_6"/>
     <g id="text_3">
      <!-- 2017 -->
      <defs>
       <path d="M 8.203125 72.90625 
L 55.078125 72.90625 
L 55.078125 68.703125 
L 28.609375 0 
L 18.3125 0 
L 43.21875 64.59375 
L 8.203125 64.59375 
z
" id="DejaVuSans-55"/>
      </defs>
      <g style="fill:#262626;" transform="translate(314.949713 651.898438)scale(0.1 -0.1)">
       <use xlink:href="#DejaVuSans-50"/>
       <use x="63.623047" xlink:href="#DejaVuSans-48"/>
       <use x="127.246094" xlink:href="#DejaVuSans-49"/>
       <use x="190.869141" xlink:href="#DejaVuSans-55"/>
      </g>
     </g>
    </g>
    <g id="xtick_4">
     <g id="line2d_7">
      <path clip-path="url(#p7dfaf549ac)" d="M 410.401297 640.8 
L 410.401297 86.4 
" style="fill:none;stroke:#cccccc;stroke-linecap:round;stroke-width:0.8;"/>
     </g>
     <g id="line2d_8"/>
     <g id="text_4">
      <!-- 2018 -->
      <defs>
       <path d="M 31.78125 34.625 
Q 24.75 34.625 20.71875 30.859375 
Q 16.703125 27.09375 16.703125 20.515625 
Q 16.703125 13.921875 20.71875 10.15625 
Q 24.75 6.390625 31.78125 6.390625 
Q 38.8125 6.390625 42.859375 10.171875 
Q 46.921875 13.96875 46.921875 20.515625 
Q 46.921875 27.09375 42.890625 30.859375 
Q 38.875 34.625 31.78125 34.625 
z
M 21.921875 38.8125 
Q 15.578125 40.375 12.03125 44.71875 
Q 8.5 49.078125 8.5 55.328125 
Q 8.5 64.0625 14.71875 69.140625 
Q 20.953125 74.21875 31.78125 74.21875 
Q 42.671875 74.21875 48.875 69.140625 
Q 55.078125 64.0625 55.078125 55.328125 
Q 55.078125 49.078125 51.53125 44.71875 
Q 48 40.375 41.703125 38.8125 
Q 48.828125 37.15625 52.796875 32.3125 
Q 56.78125 27.484375 56.78125 20.515625 
Q 56.78125 9.90625 50.3125 4.234375 
Q 43.84375 -1.421875 31.78125 -1.421875 
Q 19.734375 -1.421875 13.25 4.234375 
Q 6.78125 9.90625 6.78125 20.515625 
Q 6.78125 27.484375 10.78125 32.3125 
Q 14.796875 37.15625 21.921875 38.8125 
z
M 18.3125 54.390625 
Q 18.3125 48.734375 21.84375 45.5625 
Q 25.390625 42.390625 31.78125 42.390625 
Q 38.140625 42.390625 41.71875 45.5625 
Q 45.3125 48.734375 45.3125 54.390625 
Q 45.3125 60.0625 41.71875 63.234375 
Q 38.140625 66.40625 31.78125 66.40625 
Q 25.390625 66.40625 21.84375 63.234375 
Q 18.3125 60.0625 18.3125 54.390625 
z
" id="DejaVuSans-56"/>
      </defs>
      <g style="fill:#262626;" transform="translate(397.676297 651.898438)scale(0.1 -0.1)">
       <use xlink:href="#DejaVuSans-50"/>
       <use x="63.623047" xlink:href="#DejaVuSans-48"/>
       <use x="127.246094" xlink:href="#DejaVuSans-49"/>
       <use x="190.869141" xlink:href="#DejaVuSans-56"/>
      </g>
     </g>
    </g>
    <g id="xtick_5">
     <g id="line2d_9">
      <path clip-path="url(#p7dfaf549ac)" d="M 493.127881 640.8 
L 493.127881 86.4 
" style="fill:none;stroke:#cccccc;stroke-linecap:round;stroke-width:0.8;"/>
     </g>
     <g id="line2d_10"/>
     <g id="text_5">
      <!-- 2019 -->
      <defs>
       <path d="M 10.984375 1.515625 
L 10.984375 10.5 
Q 14.703125 8.734375 18.5 7.8125 
Q 22.3125 6.890625 25.984375 6.890625 
Q 35.75 6.890625 40.890625 13.453125 
Q 46.046875 20.015625 46.78125 33.40625 
Q 43.953125 29.203125 39.59375 26.953125 
Q 35.25 24.703125 29.984375 24.703125 
Q 19.046875 24.703125 12.671875 31.3125 
Q 6.296875 37.9375 6.296875 49.421875 
Q 6.296875 60.640625 12.9375 67.421875 
Q 19.578125 74.21875 30.609375 74.21875 
Q 43.265625 74.21875 49.921875 64.515625 
Q 56.59375 54.828125 56.59375 36.375 
Q 56.59375 19.140625 48.40625 8.859375 
Q 40.234375 -1.421875 26.421875 -1.421875 
Q 22.703125 -1.421875 18.890625 -0.6875 
Q 15.09375 0.046875 10.984375 1.515625 
z
M 30.609375 32.421875 
Q 37.25 32.421875 41.125 36.953125 
Q 45.015625 41.5 45.015625 49.421875 
Q 45.015625 57.28125 41.125 61.84375 
Q 37.25 66.40625 30.609375 66.40625 
Q 23.96875 66.40625 20.09375 61.84375 
Q 16.21875 57.28125 16.21875 49.421875 
Q 16.21875 41.5 20.09375 36.953125 
Q 23.96875 32.421875 30.609375 32.421875 
z
" id="DejaVuSans-57"/>
      </defs>
      <g style="fill:#262626;" transform="translate(480.402881 651.898438)scale(0.1 -0.1)">
       <use xlink:href="#DejaVuSans-50"/>
       <use x="63.623047" xlink:href="#DejaVuSans-48"/>
       <use x="127.246094" xlink:href="#DejaVuSans-49"/>
       <use x="190.869141" xlink:href="#DejaVuSans-57"/>
      </g>
     </g>
    </g>
    <g id="xtick_6">
     <g id="line2d_11">
      <path clip-path="url(#p7dfaf549ac)" d="M 575.854464 640.8 
L 575.854464 86.4 
" style="fill:none;stroke:#cccccc;stroke-linecap:round;stroke-width:0.8;"/>
     </g>
     <g id="line2d_12"/>
     <g id="text_6">
      <!-- 2020 -->
      <g style="fill:#262626;" transform="translate(563.129464 651.898438)scale(0.1 -0.1)">
       <use xlink:href="#DejaVuSans-50"/>
       <use x="63.623047" xlink:href="#DejaVuSans-48"/>
       <use x="127.246094" xlink:href="#DejaVuSans-50"/>
       <use x="190.869141" xlink:href="#DejaVuSans-48"/>
      </g>
     </g>
    </g>
   </g>
   <g id="matplotlib.axis_2">
    <g id="ytick_1">
     <g id="line2d_13">
      <path clip-path="url(#p7dfaf549ac)" d="M 90 615.615152 
L 648 615.615152 
" style="fill:none;stroke:#cccccc;stroke-linecap:round;stroke-width:0.8;"/>
     </g>
     <g id="line2d_14"/>
     <g id="text_7">
      <!-- 0 -->
      <g style="fill:#262626;" transform="translate(80.1375 619.414371)scale(0.1 -0.1)">
       <use xlink:href="#DejaVuSans-48"/>
      </g>
     </g>
    </g>
    <g id="ytick_2">
     <g id="line2d_15">
      <path clip-path="url(#p7dfaf549ac)" d="M 90 539.853021 
L 648 539.853021 
" style="fill:none;stroke:#cccccc;stroke-linecap:round;stroke-width:0.8;"/>
     </g>
     <g id="line2d_16"/>
     <g id="text_8">
      <!-- 5000 -->
      <g style="fill:#262626;" transform="translate(61.05 543.65224)scale(0.1 -0.1)">
       <use xlink:href="#DejaVuSans-53"/>
       <use x="63.623047" xlink:href="#DejaVuSans-48"/>
       <use x="127.246094" xlink:href="#DejaVuSans-48"/>
       <use x="190.869141" xlink:href="#DejaVuSans-48"/>
      </g>
     </g>
    </g>
    <g id="ytick_3">
     <g id="line2d_17">
      <path clip-path="url(#p7dfaf549ac)" d="M 90 464.090891 
L 648 464.090891 
" style="fill:none;stroke:#cccccc;stroke-linecap:round;stroke-width:0.8;"/>
     </g>
     <g id="line2d_18"/>
     <g id="text_9">
      <!-- 10000 -->
      <g style="fill:#262626;" transform="translate(54.6875 467.890109)scale(0.1 -0.1)">
       <use xlink:href="#DejaVuSans-49"/>
       <use x="63.623047" xlink:href="#DejaVuSans-48"/>
       <use x="127.246094" xlink:href="#DejaVuSans-48"/>
       <use x="190.869141" xlink:href="#DejaVuSans-48"/>
       <use x="254.492188" xlink:href="#DejaVuSans-48"/>
      </g>
     </g>
    </g>
    <g id="ytick_4">
     <g id="line2d_19">
      <path clip-path="url(#p7dfaf549ac)" d="M 90 388.32876 
L 648 388.32876 
" style="fill:none;stroke:#cccccc;stroke-linecap:round;stroke-width:0.8;"/>
     </g>
     <g id="line2d_20"/>
     <g id="text_10">
      <!-- 15000 -->
      <g style="fill:#262626;" transform="translate(54.6875 392.127978)scale(0.1 -0.1)">
       <use xlink:href="#DejaVuSans-49"/>
       <use x="63.623047" xlink:href="#DejaVuSans-53"/>
       <use x="127.246094" xlink:href="#DejaVuSans-48"/>
       <use x="190.869141" xlink:href="#DejaVuSans-48"/>
       <use x="254.492188" xlink:href="#DejaVuSans-48"/>
      </g>
     </g>
    </g>
    <g id="ytick_5">
     <g id="line2d_21">
      <path clip-path="url(#p7dfaf549ac)" d="M 90 312.566629 
L 648 312.566629 
" style="fill:none;stroke:#cccccc;stroke-linecap:round;stroke-width:0.8;"/>
     </g>
     <g id="line2d_22"/>
     <g id="text_11">
      <!-- 20000 -->
      <g style="fill:#262626;" transform="translate(54.6875 316.365847)scale(0.1 -0.1)">
       <use xlink:href="#DejaVuSans-50"/>
       <use x="63.623047" xlink:href="#DejaVuSans-48"/>
       <use x="127.246094" xlink:href="#DejaVuSans-48"/>
       <use x="190.869141" xlink:href="#DejaVuSans-48"/>
       <use x="254.492188" xlink:href="#DejaVuSans-48"/>
      </g>
     </g>
    </g>
    <g id="ytick_6">
     <g id="line2d_23">
      <path clip-path="url(#p7dfaf549ac)" d="M 90 236.804498 
L 648 236.804498 
" style="fill:none;stroke:#cccccc;stroke-linecap:round;stroke-width:0.8;"/>
     </g>
     <g id="line2d_24"/>
     <g id="text_12">
      <!-- 25000 -->
      <g style="fill:#262626;" transform="translate(54.6875 240.603716)scale(0.1 -0.1)">
       <use xlink:href="#DejaVuSans-50"/>
       <use x="63.623047" xlink:href="#DejaVuSans-53"/>
       <use x="127.246094" xlink:href="#DejaVuSans-48"/>
       <use x="190.869141" xlink:href="#DejaVuSans-48"/>
       <use x="254.492188" xlink:href="#DejaVuSans-48"/>
      </g>
     </g>
    </g>
    <g id="ytick_7">
     <g id="line2d_25">
      <path clip-path="url(#p7dfaf549ac)" d="M 90 161.042367 
L 648 161.042367 
" style="fill:none;stroke:#cccccc;stroke-linecap:round;stroke-width:0.8;"/>
     </g>
     <g id="line2d_26"/>
     <g id="text_13">
      <!-- 30000 -->
      <defs>
       <path d="M 40.578125 39.3125 
Q 47.65625 37.796875 51.625 33 
Q 55.609375 28.21875 55.609375 21.1875 
Q 55.609375 10.40625 48.1875 4.484375 
Q 40.765625 -1.421875 27.09375 -1.421875 
Q 22.515625 -1.421875 17.65625 -0.515625 
Q 12.796875 0.390625 7.625 2.203125 
L 7.625 11.71875 
Q 11.71875 9.328125 16.59375 8.109375 
Q 21.484375 6.890625 26.8125 6.890625 
Q 36.078125 6.890625 40.9375 10.546875 
Q 45.796875 14.203125 45.796875 21.1875 
Q 45.796875 27.640625 41.28125 31.265625 
Q 36.765625 34.90625 28.71875 34.90625 
L 20.21875 34.90625 
L 20.21875 43.015625 
L 29.109375 43.015625 
Q 36.375 43.015625 40.234375 45.921875 
Q 44.09375 48.828125 44.09375 54.296875 
Q 44.09375 59.90625 40.109375 62.90625 
Q 36.140625 65.921875 28.71875 65.921875 
Q 24.65625 65.921875 20.015625 65.03125 
Q 15.375 64.15625 9.8125 62.3125 
L 9.8125 71.09375 
Q 15.4375 72.65625 20.34375 73.4375 
Q 25.25 74.21875 29.59375 74.21875 
Q 40.828125 74.21875 47.359375 69.109375 
Q 53.90625 64.015625 53.90625 55.328125 
Q 53.90625 49.265625 50.4375 45.09375 
Q 46.96875 40.921875 40.578125 39.3125 
z
" id="DejaVuSans-51"/>
      </defs>
      <g style="fill:#262626;" transform="translate(54.6875 164.841585)scale(0.1 -0.1)">
       <use xlink:href="#DejaVuSans-51"/>
       <use x="63.623047" xlink:href="#DejaVuSans-48"/>
       <use x="127.246094" xlink:href="#DejaVuSans-48"/>
       <use x="190.869141" xlink:href="#DejaVuSans-48"/>
       <use x="254.492188" xlink:href="#DejaVuSans-48"/>
      </g>
     </g>
    </g>
   </g>
   <g id="line2d_27">
    <path clip-path="url(#p7dfaf549ac)" d="M 115.363636 615.6 
L 116.939578 615.463628 
L 117.065704 615.418171 
L 119.388383 615.236342 
L 120.528521 615.024208 
L 120.567644 615.009055 
L 122.71555 614.872684 
L 123.862395 614.690854 
L 125.724105 614.524178 
L 125.751848 614.387806 
L 126.628069 614.251434 
L 126.670684 614.190824 
L 129.095134 613.781709 
L 129.105284 613.766556 
L 130.433342 613.630185 
L 131.494302 613.448355 
L 132.245137 613.281679 
L 132.933274 613.160459 
L 133.02385 613.069545 
L 136.316602 612.4786 
L 136.383751 612.387686 
L 139.375206 611.993723 
L 141.338915 611.569455 
L 141.34236 611.554302 
L 142.505151 611.357321 
L 142.778433 611.160339 
L 143.330363 611.008815 
L 143.404625 610.902748 
L 144.485755 610.766376 
L 144.550045 610.736071 
L 145.758778 610.508785 
L 146.57751 610.326956 
L 147.714838 610.190584 
L 148.104676 610.054212 
L 148.110819 610.023907 
L 148.9905 609.872383 
L 149.496133 609.629944 
L 149.548301 609.569334 
L 151.125969 609.326896 
L 152.01353 609.129914 
L 152.077013 609.038999 
L 155.443079 608.311683 
L 155.443328 608.296531 
L 155.653442 608.160159 
L 155.830188 608.084397 
L 157.002589 607.841958 
L 157.174202 607.675281 
L 157.427654 607.554062 
L 157.469162 607.508604 
L 158.36001 607.326775 
L 158.372058 607.205556 
L 158.598476 607.084336 
L 158.607051 606.781288 
L 158.835097 606.660069 
L 158.879855 606.614611 
L 159.256715 606.447935 
L 159.318579 606.311563 
L 163.311042 605.705466 
L 163.361644 605.584246 
L 164.033853 605.402417 
L 164.053782 605.341807 
L 164.774586 605.220588 
L 165.113265 605.084216 
L 165.41648 604.781168 
L 166.475683 604.569034 
L 166.572963 604.417509 
L 166.975539 604.250833 
L 167.175275 604.190223 
L 167.28298 604.129613 
L 167.888504 604.008394 
L 167.943109 603.887175 
L 168.122547 603.493211 
L 168.33206 603.371992 
L 168.652594 603.129553 
L 169.666162 602.7962 
L 169.779185 602.599218 
L 169.898125 602.477999 
L 170.447086 601.902207 
L 171.124082 601.73553 
L 171.469888 601.553701 
L 171.682421 601.29611 
L 172.056102 601.023366 
L 172.879354 600.902147 
L 172.904482 600.856689 
L 173.090491 600.720317 
L 173.694529 600.311202 
L 174.438061 600.17483 
L 174.672104 600.099068 
L 174.895198 599.977849 
L 174.994829 599.886934 
L 175.18764 599.705105 
L 175.340606 599.508123 
L 175.785923 599.386904 
L 175.88852 599.205075 
L 176.241116 598.902026 
L 176.33428 598.765655 
L 176.639033 598.61413 
L 176.6909 598.523216 
L 177.340519 598.401996 
L 177.631337 597.886814 
L 177.74113 597.780747 
L 177.840384 597.492851 
L 177.91918 597.371631 
L 178.045125 597.235259 
L 178.157476 597.11404 
L 178.301631 596.977668 
L 178.316757 596.901906 
L 178.928035 596.765534 
L 178.995463 596.507943 
L 179.189307 596.371571 
L 179.23336 596.265504 
L 179.40641 596.144285 
L 179.717621 595.67456 
L 179.885159 595.538188 
L 180.099877 595.477578 
L 180.525472 595.341206 
L 180.574172 595.144225 
L 181.550084 593.901726 
L 182.104918 593.765354 
L 182.235189 593.598677 
L 182.385598 593.447153 
L 182.520566 593.204714 
L 182.846945 592.916818 
L 183.055681 592.704684 
L 183.236129 592.674379 
L 183.947461 592.55316 
L 184.151725 592.189502 
L 184.399603 591.947063 
L 184.466781 591.795538 
L 184.61512 591.674319 
L 184.666943 591.598557 
L 185.313016 591.462185 
L 185.801094 591.189441 
L 186.017128 590.99246 
L 186.07363 590.916698 
L 186.202408 590.780326 
L 186.2663 590.613649 
L 186.880786 590.446973 
L 187.177021 590.098467 
L 187.538263 589.946942 
L 187.742199 589.643894 
L 188.561923 589.159016 
L 188.671173 589.068102 
L 189.314982 588.4317 
L 189.602204 588.280176 
L 190.041112 588.113499 
L 190.144809 587.916517 
L 190.290648 587.749841 
L 190.348506 587.613469 
L 190.582308 587.477097 
L 190.728123 587.295268 
L 190.917296 587.022524 
L 191.177367 586.886152 
L 191.645728 586.764933 
L 191.728922 586.537647 
L 192.043963 586.386122 
L 192.205597 586.219446 
L 192.341672 586.098226 
L 193.460803 585.431519 
L 193.645836 585.279995 
L 193.931617 585.098166 
L 194.021634 584.931489 
L 194.149427 584.795118 
L 194.220706 584.704203 
L 194.92677 584.567831 
L 195.284725 584.386002 
L 195.343887 584.24963 
L 195.511607 584.113258 
L 195.599839 583.916277 
L 196.379273 583.68899 
L 196.481976 583.431399 
L 196.664036 583.295027 
L 196.741792 583.18896 
L 196.853547 583.067741 
L 196.948855 582.870759 
L 197.078572 582.68893 
L 197.71331 582.219205 
L 197.968082 582.082833 
L 198.016775 581.946461 
L 198.200624 581.81009 
L 198.452731 581.537346 
L 198.559285 581.416127 
L 198.814959 581.264602 
L 198.918207 581.12823 
L 198.983329 580.946401 
L 199.566872 580.810029 
L 199.645866 580.658505 
L 199.814241 580.537286 
L 199.943504 580.340304 
L 200.293529 579.885731 
L 200.382887 579.825122 
L 200.522811 579.673597 
L 200.595055 579.552378 
L 201.376144 579.340244 
L 201.443805 579.203872 
L 201.593062 579.082653 
L 201.667743 578.825062 
L 201.827921 578.658385 
L 201.905958 578.491708 
L 202.057009 578.325032 
L 202.155286 578.12805 
L 202.763204 577.961373 
L 202.86352 577.794697 
L 203.00678 577.658325 
L 203.117444 577.446191 
L 203.287236 577.249209 
L 203.37069 577.1886 
L 203.964597 577.021923 
L 204.330162 576.900704 
L 204.388385 576.658265 
L 204.596856 576.521893 
L 204.886224 576.00671 
L 204.995067 575.552138 
L 205.283314 575.158174 
L 205.305848 575.06726 
L 205.888368 574.900583 
L 206.056657 574.597535 
L 206.133901 574.476315 
L 206.245318 574.264181 
L 206.388864 574.082352 
L 206.476759 573.976285 
L 206.698357 573.824761 
L 206.805446 573.642932 
L 206.93378 573.56717 
L 207.520253 573.44595 
L 207.761009 573.324731 
L 208.163472 573.142902 
L 208.39814 572.794396 
L 208.509814 572.627719 
L 209.059202 572.491347 
L 209.349126 572.248909 
L 209.587862 572.127689 
L 209.659114 572.036775 
L 209.803272 571.900403 
L 209.894521 571.673116 
L 210.024117 571.536745 
L 210.088757 571.491287 
L 210.64772 571.370068 
L 211.346077 570.900343 
L 211.6138 570.763971 
L 211.683859 570.703361 
L 212.208557 570.536685 
L 212.923677 569.88513 
L 213.052725 569.779063 
L 213.764896 569.369948 
L 214.218402 568.854765 
L 214.271323 568.688089 
L 214.38349 568.475955 
L 214.657247 568.188058 
L 214.788823 567.991077 
L 215.412352 567.8244 
L 215.525826 567.657724 
L 215.683045 567.506199 
L 215.762359 566.218243 
L 215.909352 566.097024 
L 216.018909 565.248488 
L 216.114859 565.112116 
L 216.199755 564.854525 
L 216.95021 564.642391 
L 217.559141 563.990836 
L 217.872112 563.839312 
L 217.960014 563.657483 
L 218.669434 563.521111 
L 218.998958 563.384739 
L 219.10145 563.233215 
L 219.564534 563.005929 
L 219.615304 562.915014 
L 220.235242 562.76349 
L 221.020058 561.717972 
L 221.88341 561.308857 
L 222.024611 561.217942 
L 222.717068 560.566388 
L 222.810099 560.505778 
L 223.359028 560.339102 
L 223.46847 560.20273 
L 223.715669 559.869376 
L 223.830963 559.7027 
L 223.94058 559.293584 
L 224.114278 559.20267 
L 224.255139 559.066298 
L 224.3483 558.839011 
L 224.953013 558.717792 
L 225.675614 557.657122 
L 225.769085 557.490446 
L 225.850251 557.354074 
L 226.082773 557.126787 
L 226.567488 557.005568 
L 226.716999 556.854044 
L 226.954463 556.64191 
L 227.294066 556.157032 
L 227.484678 555.838831 
L 227.533465 555.747917 
L 228.085301 555.58124 
L 228.34766 555.217582 
L 228.468832 554.853923 
L 228.615613 554.611485 
L 228.755277 554.550875 
L 229.025429 554.353893 
L 229.549511 554.08115 
L 229.703034 553.944778 
L 229.778153 553.762949 
L 229.942536 553.596272 
L 230.035034 553.353833 
L 230.214721 553.172004 
L 230.296611 553.111394 
L 230.382178 552.975023 
L 230.519371 552.717431 
L 231.416875 552.232554 
L 233.838167 550.565787 
L 233.86398 550.490025 
L 234.473005 550.368805 
L 234.587407 550.308196 
L 234.931899 550.080909 
L 235.184578 549.853623 
L 235.28526 549.717251 
L 235.96036 549.247526 
L 236.066486 549.050544 
L 237.111158 548.368685 
L 237.560362 548.247466 
L 237.7887 547.868655 
L 238.156017 547.414082 
L 238.228164 547.217101 
L 238.355071 547.095881 
L 238.426182 546.944357 
L 238.608067 546.77768 
L 238.69289 546.686766 
L 239.666671 546.201888 
L 239.970175 545.868535 
L 240.737657 545.610943 
L 240.848642 545.474572 
L 240.989198 545.171523 
L 241.183163 544.974542 
L 241.322554 544.83817 
L 241.460285 544.641188 
L 241.828402 544.444207 
L 242.401604 544.27753 
L 242.743835 544.065396 
L 242.835299 543.989634 
L 245.599549 543.368384 
L 245.710053 543.27747 
L 245.877361 543.141098 
L 245.891131 543.110793 
L 246.263568 542.974421 
L 246.972686 542.65622 
L 247.194657 542.504696 
L 247.414909 542.262257 
L 247.759645 541.989514 
L 248.102469 541.837989 
L 248.19885 541.71677 
L 249.205721 541.353112 
L 249.314003 541.231892 
L 249.441619 541.080368 
L 249.578602 540.686405 
L 249.683815 540.565185 
L 249.869239 540.322747 
L 250.338936 540.140918 
L 250.40245 539.898479 
L 250.561384 539.762107 
L 250.640428 539.549973 
L 250.912573 539.398449 
L 251.031018 539.262077 
L 251.30616 538.792352 
L 251.405132 538.686285 
L 251.496345 538.565065 
L 251.598032 538.504456 
L 252.155406 537.989273 
L 252.264755 537.761987 
L 252.425791 537.625615 
L 252.576336 537.292261 
L 252.64787 537.064975 
L 252.929018 536.580097 
L 253.501596 536.398268 
L 253.731174 535.898238 
L 253.950231 535.701257 
L 254.061194 535.428513 
L 254.087015 535.292141 
L 254.196645 535.125464 
L 254.532683 534.079947 
L 255.001325 533.867813 
L 255.117411 533.731441 
L 255.333842 533.549612 
L 255.443462 533.367783 
L 255.596735 533.201106 
L 255.704315 533.110192 
L 255.836088 532.97382 
L 255.957308 532.655619 
L 256.08165 532.337418 
L 256.281656 532.170741 
L 256.69988 531.791931 
L 256.991128 531.216139 
L 257.042105 530.897938 
L 257.166788 530.761566 
L 257.272673 530.47367 
L 257.39127 530.322145 
L 257.627986 529.91303 
L 257.76521 529.579677 
L 257.961615 529.503914 
L 258.282236 529.367543 
L 258.34145 529.109951 
L 258.437689 528.897817 
L 258.506541 528.731141 
L 258.708541 528.397787 
L 258.993793 527.806843 
L 259.086328 527.564404 
L 259.170736 527.397727 
L 259.282373 527.200746 
L 259.741191 526.928002 
L 259.854914 526.85224 
L 260.03393 526.670411 
L 260.293279 526.473429 
L 260.408686 526.246143 
L 260.483721 526.124923 
L 260.5566 525.988552 
L 260.690286 525.761265 
L 260.778967 525.564284 
L 260.877911 525.382454 
L 261.095217 525.306692 
L 261.438067 525.155168 
L 261.579851 524.912729 
L 261.7317 524.685443 
L 261.854848 524.564223 
L 262.051279 524.367242 
L 262.162746 524.124803 
L 262.209335 523.700535 
L 262.388925 523.564163 
L 262.652144 523.382334 
L 263.084811 523.215658 
L 263.199648 523.155048 
L 263.715003 522.79139 
L 263.751051 522.700475 
L 264.59678 522.488341 
L 264.687704 522.351969 
L 265.062702 522.185293 
L 265.164523 522.018616 
L 265.509498 521.851939 
L 266.535361 521.321604 
L 266.660343 521.154928 
L 266.975788 520.836727 
L 267.124914 520.715507 
L 267.200469 520.563983 
L 267.950289 520.382154 
L 268.26784 520.124563 
L 268.354546 519.988191 
L 268.577133 519.745752 
L 268.856304 519.533618 
L 269.265443 519.351789 
L 269.39165 519.124502 
L 269.697022 518.715387 
L 269.794646 518.503253 
L 270.478266 517.98807 
L 270.990887 517.806241 
L 271.044713 517.745632 
L 271.27118 517.60926 
L 271.971198 516.866791 
L 272.574305 516.684962 
L 272.832382 516.442523 
L 273.199311 516.290999 
L 273.499829 515.715207 
L 273.606291 515.60914 
L 274.02686 515.472768 
L 274.13659 515.321243 
L 274.346012 515.124262 
L 274.79691 514.821213 
L 274.945215 514.578775 
L 275.056706 514.457555 
L 275.096547 514.351488 
L 275.438799 514.215116 
L 275.522114 514.078745 
L 275.640994 513.912068 
L 275.750548 513.624172 
L 275.996501 512.957465 
L 276.076365 512.245301 
L 276.217892 512.078624 
L 276.359623 511.775576 
L 276.67586 511.411918 
L 276.72716 511.351308 
L 277.283115 511.108869 
L 277.535271 510.684601 
L 277.647798 510.42701 
L 277.759952 510.017894 
L 277.821239 509.80576 
L 277.924477 509.578474 
L 278.044065 509.42695 
L 278.226761 508.836005 
L 278.443871 508.548109 
L 278.660338 508.411737 
L 278.754751 508.275365 
L 279.036572 508.078384 
L 279.194501 507.820792 
L 279.327591 507.669268 
L 279.967044 506.169178 
L 280.382904 505.911587 
L 280.491787 505.517624 
L 281.155543 503.926619 
L 281.260339 503.699333 
L 281.933356 503.078083 
L 282.063345 502.896254 
L 283.104172 500.759762 
L 283.460251 500.593085 
L 283.55645 500.456713 
L 283.691802 500.229427 
L 283.80862 499.986988 
L 283.895415 499.850616 
L 284.073665 499.426348 
L 284.168571 499.229367 
L 284.275573 499.077843 
L 284.637032 498.426288 
L 284.740645 498.365679 
L 285.463309 497.865648 
L 285.514412 497.592905 
L 285.665288 497.380771 
L 285.737679 497.168637 
L 285.881047 497.017113 
L 285.944456 496.850436 
L 286.04313 496.532235 
L 286.169494 496.411016 
L 286.285735 496.244339 
L 286.956239 496.06251 
L 287.781579 495.123059 
L 287.829589 495.047297 
L 288.403248 494.910925 
L 288.499442 494.713944 
L 288.684029 494.516962 
L 289.035324 494.107847 
L 289.119063 494.00178 
L 289.298797 493.850256 
L 289.422026 493.622969 
L 289.904352 493.456292 
L 290.058339 493.198701 
L 290.487205 492.516842 
L 290.733034 492.335013 
L 290.888763 492.168336 
L 291.580722 491.865288 
L 292.559747 491.107666 
L 293.173715 490.971295 
L 293.393658 490.774313 
L 293.520974 490.562179 
L 293.736684 490.198521 
L 293.846792 489.986387 
L 294.147237 489.546967 
L 294.879877 489.274223 
L 294.989455 489.153003 
L 295.231098 488.956022 
L 295.786661 487.849895 
L 296.320022 487.668066 
L 297.008376 486.622548 
L 297.137358 486.3195 
L 297.23652 486.183128 
L 297.318417 485.849775 
L 297.722502 485.683098 
L 297.90079 485.546726 
L 297.93894 485.395202 
L 298.228103 484.849714 
L 298.378058 484.683038 
L 298.494556 484.425446 
L 298.908548 483.682978 
L 299.157156 483.516301 
L 299.504289 483.364777 
L 299.769565 482.455631 
L 299.876383 482.19804 
L 299.985515 482.046516 
L 300.289208 481.319199 
L 300.365421 481.167675 
L 300.496103 480.788864 
L 300.561658 480.758559 
L 301.042853 480.622187 
L 301.14976 480.500968 
L 301.333965 480.273682 
L 301.463157 479.773652 
L 301.578477 479.63728 
L 302.165588 478.425086 
L 302.492648 478.212952 
L 302.603693 478.031123 
L 302.768624 477.697769 
L 302.939179 477.546245 
L 303.081362 477.425026 
L 303.156441 477.273501 
L 303.306488 477.07652 
L 304.787763 475.106704 
L 304.882336 475.000637 
L 304.976581 474.803656 
L 305.145035 474.51576 
L 305.236843 474.318778 
L 305.316886 474.258168 
L 305.839741 474.091492 
L 306.078099 473.773291 
L 306.231952 473.621767 
L 306.367742 473.349023 
L 306.544349 473.136889 
L 307.010027 472.697469 
L 307.509613 472.545944 
L 307.706645 472.197439 
L 308.001057 471.121616 
L 308.152134 470.985244 
L 308.298396 470.697348 
L 308.470182 470.439757 
L 308.655629 470.227623 
L 309.335988 469.712441 
L 309.528778 468.848752 
L 309.631528 468.121436 
L 309.751074 467.878997 
L 310.294421 466.969851 
L 310.668853 466.77287 
L 310.773163 466.591041 
L 310.978873 466.348602 
L 311.086087 466.136468 
L 311.30528 465.909182 
L 311.560611 465.7122 
L 311.639953 465.606133 
L 312.197862 465.409152 
L 312.281423 465.242475 
L 312.455263 465.090951 
L 312.598132 464.787902 
L 313.011356 464.439396 
L 313.113022 464.27272 
L 314.215081 463.21205 
L 314.311729 462.969611 
L 314.500044 462.802934 
L 314.641478 462.65141 
L 315.17018 462.287752 
L 315.258775 462.060465 
L 315.39262 461.908941 
L 315.470478 461.71196 
L 315.612435 461.560435 
L 315.709715 461.287692 
L 315.881341 460.999796 
L 316.006249 460.817966 
L 316.139785 460.469461 
L 316.229269 460.378546 
L 316.330456 460.242174 
L 317.005416 459.923973 
L 317.136347 459.802754 
L 317.170397 459.620925 
L 317.271885 459.02998 
L 317.425623 458.742084 
L 317.581569 458.105682 
L 317.610008 457.939005 
L 317.711079 456.378306 
L 317.859798 456.014647 
L 317.929954 455.772209 
L 318.117868 455.620684 
L 318.181576 455.590379 
L 318.517445 455.454008 
L 318.627073 455.196416 
L 318.771255 454.923673 
L 319.046603 453.620564 
L 319.528669 453.423582 
L 320.157867 453.256906 
L 320.290506 453.105382 
L 320.399095 452.953857 
L 320.511695 452.665961 
L 320.737071 452.302303 
L 320.823866 452.165931 
L 320.894704 451.317395 
L 321.005108 450.302183 
L 321.122488 450.044591 
L 321.232848 449.84761 
L 321.741828 449.529409 
L 321.84771 449.332427 
L 322.078917 448.817245 
L 322.331375 447.983861 
L 322.45014 447.84749 
L 322.534713 447.756575 
L 322.635404 447.574746 
L 322.766745 447.135326 
L 323.25019 446.817125 
L 323.352087 446.695905 
L 324.30263 445.695845 
L 324.958611 445.468559 
L 325.042093 445.392797 
L 325.272608 445.256425 
L 325.460789 445.1049 
L 325.60087 444.923071 
L 325.691618 444.574566 
L 326.725745 444.271517 
L 326.901324 444.180602 
L 327.180198 443.938164 
L 327.241446 443.847249 
L 328.351909 443.453286 
L 328.461154 443.316914 
L 328.782024 442.847189 
L 329.034957 442.72597 
L 329.055552 442.66536 
L 329.591042 442.513836 
L 329.707942 442.316854 
L 329.79863 442.22594 
L 329.977121 442.089568 
L 330.431519 441.453166 
L 330.86779 441.119812 
L 331.230359 440.998593 
L 331.331721 440.847069 
L 331.514845 440.680392 
L 331.64416 440.48341 
L 331.711976 440.286429 
L 331.873313 440.180362 
L 332.139218 439.968228 
L 332.300275 439.847009 
L 333.064583 439.650027 
L 333.314599 439.362131 
L 333.326 438.877253 
L 333.374052 438.740881 
L 333.525489 438.619662 
L 333.638053 438.48329 
L 334.323136 438.195394 
L 334.430857 437.771126 
L 334.894843 437.452925 
L 335.056013 437.407468 
L 335.26694 437.210486 
L 335.309087 437.104419 
L 336.107479 436.831676 
L 336.431827 436.437713 
L 336.899987 436.089207 
L 337.064228 435.771006 
L 337.241958 435.649787 
L 337.242417 435.634634 
L 337.681831 435.498262 
L 337.790211 435.36189 
L 338.099278 434.98308 
L 338.195323 434.801251 
L 338.795343 434.498202 
L 338.865247 434.407288 
L 339.260651 434.255763 
L 339.826143 433.907258 
L 340.137071 433.558752 
L 340.396958 433.42238 
L 340.564791 433.346618 
L 340.844688 432.98296 
L 340.953193 432.619301 
L 341.094248 432.346558 
L 341.312656 431.710156 
L 341.451657 431.513174 
L 341.708192 430.816163 
L 341.805246 430.24037 
L 342.166658 430.073694 
L 342.266182 429.907017 
L 342.304124 429.74034 
L 342.424838 428.528146 
L 342.545659 428.285707 
L 342.651237 427.861439 
L 342.897307 427.558391 
L 342.999239 427.088666 
L 343.057577 426.952294 
L 343.206732 426.452264 
L 343.269716 426.270435 
L 343.410314 425.300679 
L 343.924294 425.11885 
L 343.969159 424.315772 
L 344.063921 423.194492 
L 344.131761 423.027816 
L 344.769668 421.648945 
L 344.881206 421.482268 
L 345.014603 421.254982 
L 345.476705 420.99739 
L 345.583744 420.542818 
L 345.722393 420.391293 
L 346.23359 419.891263 
L 346.339731 419.770044 
L 346.517608 419.633672 
L 347.127006 419.406386 
L 347.180197 419.330624 
L 347.329232 419.209404 
L 347.44743 419.088185 
L 347.697792 418.800289 
L 347.789826 418.709374 
L 348.087333 418.542697 
L 348.12638 418.512393 
L 348.669389 418.376021 
L 348.834981 418.194192 
L 349.059368 417.921448 
L 349.163298 417.815381 
L 349.845839 417.451723 
L 350.274407 417.315351 
L 351.487591 416.315291 
L 352.064927 416.163766 
L 352.15619 416.057699 
L 352.450664 415.87587 
L 352.606939 415.648584 
L 352.802612 415.512212 
L 352.992944 415.087944 
L 353.570813 414.709134 
L 353.684698 413.966665 
L 353.942366 413.678769 
L 354.049429 413.481787 
L 354.216075 413.31511 
L 354.350034 413.087824 
L 354.426934 412.845385 
L 355.227183 412.512032 
L 355.402458 412.390812 
L 355.635916 412.208983 
L 355.752677 412.057459 
L 355.860282 411.769563 
L 356.010861 411.542276 
L 356.147341 410.966484 
L 356.561428 410.860417 
L 356.681693 410.724045 
L 356.758926 410.648283 
L 356.944374 410.496759 
L 357.506621 409.69368 
L 357.57917 409.511851 
L 357.632319 409.436089 
L 358.237971 409.223955 
L 358.355358 408.966364 
L 358.471786 408.799687 
L 358.989713 408.178438 
L 359.109407 406.708653 
L 359.240102 406.511671 
L 359.361086 406.390452 
L 359.444198 406.269232 
L 359.522935 406.148013 
L 359.552884 405.935879 
L 359.79044 405.799507 
L 359.898465 405.496458 
L 360.044687 405.329782 
L 360.153851 405.041886 
L 360.255743 404.860057 
L 360.362375 404.63277 
L 360.470809 404.466093 
L 360.622215 404.223655 
L 360.744319 404.087283 
L 360.867575 403.814539 
L 361.367623 403.602405 
L 361.482807 403.435728 
L 361.509792 402.950851 
L 361.62459 402.526583 
L 361.86213 402.026553 
L 361.968762 401.693199 
L 362.058501 401.435608 
L 362.187905 397.738416 
L 362.291513 397.57174 
L 362.396375 397.192929 
L 362.97657 396.51107 
L 363.115825 396.071649 
L 363.460462 395.51101 
L 363.700231 395.026132 
L 363.787367 394.783693 
L 363.894299 394.495797 
L 364.105299 394.086681 
L 364.174309 393.935157 
L 364.322139 393.798785 
L 364.457372 393.32906 
L 364.58077 393.010859 
L 364.789664 391.904732 
L 364.904439 391.722903 
L 365.12391 391.147111 
L 365.142527 390.995587 
L 365.23124 390.88952 
L 365.28032 390.737995 
L 365.375932 389.813697 
L 365.445288 389.692478 
L 365.583129 389.146991 
L 365.975816 389.056076 
L 366.128984 388.904552 
L 366.307939 388.192388 
L 366.370375 388.071168 
L 366.519761 387.586291 
L 366.625199 387.434766 
L 366.731795 387.025651 
L 366.821066 386.889279 
L 366.927903 386.540773 
L 366.999486 386.389249 
L 367.106932 386.010438 
L 367.586809 385.177055 
L 367.73785 385.010378 
L 367.845112 384.722482 
L 367.981376 384.555805 
L 368.062778 384.343671 
L 368.151092 384.192147 
L 368.496303 383.601203 
L 368.604486 383.479983 
L 368.714187 383.116325 
L 368.932034 383.055715 
L 369.481216 382.873886 
L 369.531026 382.828429 
L 369.794533 382.692057 
L 370.05132 382.434466 
L 370.263868 382.298094 
L 371.1821 381.676844 
L 371.290482 381.510168 
L 371.876512 380.858613 
L 372.478926 380.707089 
L 373.519087 379.070627 
L 374.047234 378.934255 
L 374.18676 378.706969 
L 374.392797 378.570597 
L 374.545981 378.297853 
L 374.665066 378.161482 
L 374.818279 378.02511 
L 374.960587 377.812976 
L 375.034899 377.706909 
L 375.637523 377.52508 
L 375.760661 377.222031 
L 375.9603 377.040202 
L 376.137573 376.752306 
L 376.242571 376.52502 
L 376.483432 376.297733 
L 376.607052 376.131056 
L 377.285371 375.524959 
L 377.397514 375.358283 
L 377.625755 375.176454 
L 377.730467 375.055234 
L 377.939426 374.555204 
L 378.046623 374.28246 
L 378.42667 373.994564 
L 378.845702 373.797583 
L 379.205398 373.252095 
L 379.829559 372.585389 
L 380.460142 372.297493 
L 380.714899 372.070206 
L 381.10971 371.661091 
L 381.220266 371.464109 
L 381.444414 370.903469 
L 381.89412 370.661031 
L 381.999988 370.570116 
L 382.176588 370.388287 
L 382.373368 370.115543 
L 382.51162 369.979171 
L 382.779913 369.8428 
L 382.957687 369.433684 
L 383.268046 368.979111 
L 383.37509 368.812435 
L 383.451001 368.66091 
L 383.574013 368.433624 
L 383.677135 368.2821 
L 384.034069 367.585088 
L 384.611046 366.418351 
L 385.199429 366.22137 
L 385.315715 366.130455 
L 385.515016 365.842559 
L 385.763282 365.60012 
L 385.953617 365.372834 
L 386.008306 365.191005 
L 386.308203 364.918261 
L 386.680782 364.751584 
L 386.778592 364.584908 
L 387.060494 364.190945 
L 387.169141 364.024268 
L 387.93783 363.175732 
L 388.063087 362.554483 
L 388.246491 362.402958 
L 388.396102 362.266586 
L 388.492706 362.175672 
L 388.622428 361.933233 
L 388.732284 361.721099 
L 388.873963 361.524118 
L 389.12517 361.115002 
L 389.474397 360.827106 
L 390.395307 360.251314 
L 390.48381 360.114942 
L 390.620373 359.97857 
L 390.738768 359.736131 
L 391.084763 359.463388 
L 391.480632 359.327016 
L 391.53807 359.160339 
L 391.83143 359.023967 
L 392.169716 358.614852 
L 392.518051 358.220889 
L 393.104283 358.008755 
L 393.34534 357.720859 
L 394.306882 356.296531 
L 394.545857 356.175311 
L 394.624732 356.069244 
L 394.756028 355.932872 
L 395.083795 355.569214 
L 395.22172 355.311623 
L 395.401876 355.114641 
L 395.523844 354.932812 
L 395.701996 354.690373 
L 396.247053 354.463087 
L 396.267347 354.281258 
L 396.380422 353.114521 
L 396.407066 352.978149 
L 396.51698 352.644796 
L 396.653202 352.432662 
L 396.766395 352.220528 
L 396.899108 352.069004 
L 397.005677 351.902327 
L 397.634224 351.478059 
L 397.881323 351.341687 
L 397.983299 350.811352 
L 398.232106 350.508304 
L 398.551656 350.023426 
L 398.891825 349.73553 
L 399.28969 349.553701 
L 399.429217 349.371872 
L 399.547358 349.265805 
L 399.649347 349.114281 
L 400.118175 348.326354 
L 400.208016 348.220287 
L 400.485686 348.053611 
L 401.454783 346.705045 
L 401.573676 346.220167 
L 401.637922 346.083795 
L 401.716682 345.977728 
L 402.665457 345.523156 
L 402.894862 345.295869 
L 403.176756 345.098888 
L 403.241933 345.023125 
L 403.375687 344.886754 
L 403.455761 344.720077 
L 404.425878 344.235199 
L 404.515562 344.159437 
L 404.669814 344.023065 
L 405.230435 343.689712 
L 405.809673 343.462426 
L 405.905854 343.235139 
L 406.147025 343.098767 
L 406.262825 342.49267 
L 406.381519 342.356298 
L 406.491136 342.189622 
L 406.712286 341.841116 
L 406.831513 341.644134 
L 407.413274 340.810751 
L 407.516538 340.477398 
L 407.637192 340.250111 
L 407.686687 340.083435 
L 407.903716 339.93191 
L 408.160804 339.49249 
L 408.347416 339.295508 
L 408.639514 338.962155 
L 409.120937 338.765173 
L 409.228994 338.43182 
L 409.43729 338.174229 
L 409.546456 337.674199 
L 409.75402 337.295388 
L 410.790196 336.613529 
L 410.962994 335.598316 
L 411.034742 335.461945 
L 412.333166 333.098166 
L 412.496479 332.931489 
L 412.759559 332.567831 
L 412.871062 332.113258 
L 413.045872 331.931429 
L 413.230457 331.7496 
L 413.315371 331.567771 
L 413.496913 331.431399 
L 413.623112 331.098046 
L 413.736814 330.946522 
L 413.859812 330.673778 
L 414.069674 330.007071 
L 414.250906 329.74948 
L 414.521339 329.31006 
L 414.638335 329.007011 
L 415.271712 328.552438 
L 415.444765 327.112958 
L 416.141071 326.097745 
L 416.259993 325.915916 
L 416.438677 325.658325 
L 416.577035 325.506801 
L 416.674276 324.68857 
L 416.91877 324.446131 
L 417.121885 324.188539 
L 417.792058 323.249089 
L 417.892654 323.06726 
L 418.070148 322.991498 
L 418.44822 322.870278 
L 418.587326 322.582382 
L 418.823355 322.294486 
L 419.206626 321.597475 
L 419.970588 320.961073 
L 420.08158 319.824641 
L 420.294516 318.066959 
L 420.988173 313.218183 
L 421.093742 312.369647 
L 421.132144 312.112056 
L 421.237758 311.869617 
L 421.650599 311.021081 
L 421.756214 310.157393 
L 421.842621 309.824039 
L 421.950323 309.384619 
L 422.130666 308.778522 
L 422.601092 306.096543 
L 422.708884 305.035873 
L 422.754696 304.687367 
L 422.863406 303.914593 
L 422.898712 303.550935 
L 423.004324 302.596332 
L 423.042723 302.338741 
L 423.150386 301.111394 
L 423.186741 300.793193 
L 423.292358 299.474932 
L 423.321164 299.232494 
L 423.429113 298.050604 
L 423.455582 297.747556 
L 423.561196 296.535362 
L 423.599598 296.232313 
L 423.705907 295.004967 
L 423.762805 294.701918 
L 423.868422 293.989754 
L 423.934691 293.686706 
L 424.069953 293.201828 
L 424.504152 292.671493 
L 424.778467 292.504816 
L 425.711628 291.580518 
L 425.778836 291.27747 
L 425.884455 290.671373 
L 425.95165 290.368324 
L 426.057264 289.959209 
L 426.105269 289.686465 
L 426.210884 289.337959 
L 426.278089 289.034911 
L 426.383703 288.550033 
L 426.444838 288.246985 
L 426.518118 287.777259 
L 426.623738 286.610523 
L 426.642937 286.368084 
L 426.845305 285.383176 
L 427.170857 285.064975 
L 427.272911 284.97406 
L 427.368812 284.777079 
L 427.439731 284.671012 
L 427.919756 284.47403 
L 428.368648 283.564885 
L 428.470241 283.458818 
L 428.667711 283.125464 
L 428.760085 283.019398 
L 429.65298 282.322386 
L 430.252829 281.519307 
L 430.362485 281.246564 
L 430.563009 281.079887 
L 430.675273 280.928363 
L 431.100314 280.731381 
L 431.15609 280.443485 
L 431.283926 280.246504 
L 431.480391 280.079827 
L 431.525311 280.03437 
L 431.715648 279.897998 
L 431.824794 279.791931 
L 432.052885 279.594949 
L 432.160506 279.519187 
L 432.326649 279.443425 
L 432.566681 279.049462 
L 432.661726 278.822175 
L 433.358546 278.246383 
L 435.499566 275.064374 
L 435.98922 274.746173 
L 437.179632 273.35215 
L 437.400454 273.200625 
L 437.471948 273.155168 
L 437.842106 272.912729 
L 439.434351 271.564163 
L 439.55128 271.397487 
L 439.743125 271.215658 
L 439.847315 270.973219 
L 440.395956 270.382274 
L 440.551709 270.23075 
L 440.776242 269.942854 
L 440.883452 269.700415 
L 441.098482 269.367062 
L 441.355958 269.185232 
L 441.451971 268.897336 
L 441.74095 268.67005 
L 441.809275 268.624593 
L 442.155564 268.488221 
L 442.359587 268.23063 
L 442.704444 268.003343 
L 442.837862 267.806362 
L 442.969593 267.685142 
L 443.112778 267.473008 
L 443.260894 267.139655 
L 443.487217 267.003283 
L 444.80653 265.972918 
L 444.917813 265.639565 
L 445.340257 265.351669 
L 445.541609 264.836486 
L 445.6571 264.48798 
L 445.753116 264.336456 
L 445.847023 264.078865 
L 445.937082 263.927341 
L 446.012836 263.745511 
L 446.117629 263.60914 
L 446.32917 263.42731 
L 446.407636 263.275786 
L 447.04085 263.003043 
L 447.16993 262.760604 
L 447.446008 262.563622 
L 447.50996 262.442403 
L 447.673183 262.306031 
L 448.181966 261.760544 
L 448.863545 261.609019 
L 449.092586 261.321123 
L 449.229149 261.04838 
L 449.86208 260.139234 
L 450.28992 259.911948 
L 450.875709 259.154326 
L 451.033132 258.972497 
L 451.138741 258.86643 
L 451.74353 258.411857 
L 452.053867 258.033047 
L 452.348893 257.896675 
L 452.9188 257.154206 
L 453.385879 256.836005 
L 453.808832 256.381432 
L 454.344556 255.790488 
L 454.380484 255.729878 
L 454.815864 255.563201 
L 455.18773 255.169238 
L 455.5839 254.987409 
L 455.745337 254.790428 
L 455.862315 254.623751 
L 458.442849 252.502411 
L 458.550116 252.320582 
L 459.414671 251.532656 
L 459.639275 251.381132 
L 460.374552 250.578053 
L 460.616969 250.214395 
L 460.690928 249.971956 
L 460.801472 249.820432 
L 461.152126 249.577993 
L 461.209732 249.441621 
L 461.315347 248.911286 
L 461.538076 248.653695 
L 461.751408 248.471866 
L 461.862277 248.305189 
L 462.117571 247.956683 
L 462.22749 247.835464 
L 463.187594 247.077843 
L 463.514031 246.774794 
L 463.648446 246.62327 
L 465.209322 245.350466 
L 465.388453 245.077722 
L 466.159553 244.517083 
L 466.336228 244.365558 
L 466.550807 244.107967 
L 466.787898 243.880681 
L 466.921605 243.653394 
L 467.754062 242.880621 
L 470.1203 240.819891 
L 470.398582 240.547147 
L 470.878575 240.244098 
L 471.359106 239.728916 
L 471.426169 239.638001 
L 471.540862 239.501629 
L 471.630123 239.44102 
L 472.469453 239.001599 
L 472.684462 238.88038 
L 472.918692 238.683398 
L 473.027058 238.577331 
L 473.446869 238.289435 
L 473.983657 238.092454 
L 474.240575 237.910625 
L 474.598936 237.607576 
L 474.801314 237.395442 
L 475.607043 236.956022 
L 475.703059 236.81965 
L 475.998544 236.546906 
L 476.121839 236.440839 
L 476.288142 236.198401 
L 476.540383 235.955962 
L 476.855043 235.804437 
L 477.370775 235.25895 
L 477.475291 235.046816 
L 477.632759 234.880139 
L 477.759112 234.592243 
L 477.912142 234.425567 
L 478.148897 234.046756 
L 478.180001 233.804317 
L 478.631241 233.622488 
L 480.196205 231.69813 
L 480.474552 231.546606 
L 481.328189 230.819289 
L 481.48519 230.63746 
L 482.04711 230.07682 
L 482.284269 229.910144 
L 482.378231 229.804077 
L 482.992726 229.152522 
L 483.057147 229.091913 
L 483.465287 228.925236 
L 484.471167 228.167615 
L 484.631586 228.046395 
L 484.675056 227.894871 
L 484.746799 227.834261 
L 485.086018 227.697889 
L 485.720148 227.288774 
L 486.360702 226.622067 
L 486.641221 226.440238 
L 486.970275 226.167494 
L 487.31791 226.000818 
L 487.465703 225.803836 
L 487.543999 225.728074 
L 487.789876 225.561397 
L 487.857078 225.485635 
L 488.196835 225.349263 
L 488.301172 225.197739 
L 489.710082 224.227984 
L 489.911573 224.07646 
L 490.05199 223.818868 
L 490.355496 223.637039 
L 490.526207 223.530972 
L 490.861795 223.121857 
L 490.900197 223.030942 
L 491.389833 222.833961 
L 491.495448 222.788503 
L 491.937094 222.606674 
L 492.304555 222.364235 
L 492.455568 222.182406 
L 492.532366 221.95512 
L 492.85881 221.758138 
L 493.788374 221.152041 
L 493.886137 220.939907 
L 493.991744 220.803536 
L 494.620661 220.348963 
L 494.654207 220.197439 
L 494.73676 219.939847 
L 494.972855 219.773171 
L 495.080573 219.727713 
L 495.182171 219.636799 
L 495.441332 219.45497 
L 496.466225 218.591281 
L 496.59788 218.485214 
L 496.926093 218.212471 
L 497.008444 218.167013 
L 497.209804 218.015489 
L 498.099385 217.27302 
L 498.516638 217.136648 
L 498.798805 216.651771 
L 499.17949 216.469942 
L 499.357988 216.227503 
L 499.574159 216.045674 
L 499.73504 215.757778 
L 499.924467 215.621406 
L 501.2508 214.500126 
L 501.349578 214.409212 
L 501.652888 214.197078 
L 501.92842 213.969791 
L 502.147256 213.848572 
L 502.578467 213.500066 
L 503.750637 212.575768 
L 504.125097 212.439396 
L 504.405336 212.166653 
L 505.053127 211.424184 
L 505.449929 211.105983 
L 505.842017 210.954459 
L 505.915001 210.802934 
L 506.036429 210.666562 
L 507.821286 209.045253 
L 507.903367 208.954338 
L 508.035001 208.772509 
L 508.13646 208.393699 
L 508.249952 208.196717 
L 508.5123 207.984583 
L 508.637111 207.939126 
L 508.918656 207.772449 
L 509.025456 207.696687 
L 509.160648 207.545163 
L 509.806792 206.999675 
L 510.94524 206.196597 
L 511.006039 206.120835 
L 511.238744 205.939005 
L 511.326549 205.696567 
L 511.699406 205.423823 
L 511.699412 205.378366 
L 512.120736 205.211689 
L 512.227929 205.09047 
L 512.540573 204.90864 
L 512.645765 204.802574 
L 512.816231 204.666202 
L 512.933102 204.52983 
L 514.382931 203.499465 
L 514.485049 203.196416 
L 514.944554 202.938825 
L 515.046698 202.772148 
L 515.39587 202.52971 
L 516.117372 201.863003 
L 516.207714 201.696326 
L 517.059693 201.120534 
L 517.167367 201.029619 
L 517.277194 200.893248 
L 517.509965 200.635656 
L 517.582571 200.499284 
L 517.803186 200.090169 
L 518.773662 199.468919 
L 518.874227 199.40831 
L 519.16414 199.105261 
L 520.748188 197.84761 
L 520.79267 197.529409 
L 520.988618 197.377885 
L 521.08646 197.28697 
L 521.337334 197.150598 
L 521.755453 196.78694 
L 521.920586 196.499044 
L 522.141208 196.317215 
L 522.194707 196.089928 
L 522.315455 195.741423 
L 522.553346 195.498984 
L 522.817782 195.317155 
L 523.318257 194.953496 
L 523.724587 194.635296 
L 523.855498 194.498924 
L 524.090634 194.150418 
L 524.801507 193.574626 
L 524.921447 193.392797 
L 525.295367 193.16551 
L 525.521272 192.998834 
L 525.6176 192.877614 
L 526.433311 192.438194 
L 527.070696 191.816944 
L 527.510832 191.422981 
L 527.925891 191.195695 
L 528.056094 190.983561 
L 528.200044 190.832037 
L 528.282068 190.635055 
L 528.583956 190.422921 
L 528.766363 190.180482 
L 529.140783 189.968348 
L 529.20419 189.907739 
L 529.617755 189.741062 
L 529.745648 189.619842 
L 529.856449 189.468318 
L 529.927998 189.241032 
L 530.192376 189.059203 
L 530.368886 188.862221 
L 531.450706 188.256124 
L 532.066803 188.04399 
L 533.490322 187.028778 
L 533.590097 186.922711 
L 533.663036 186.740881 
L 533.959707 186.301461 
L 534.344607 186.059022 
L 534.443372 185.98326 
L 534.592092 185.831736 
L 534.666584 185.771126 
L 534.98939 185.558992 
L 535.515764 185.210486 
L 535.94053 185.089267 
L 536.167163 184.92259 
L 536.379934 184.695304 
L 536.505857 184.513475 
L 536.634953 184.331646 
L 536.926361 183.846768 
L 537.470904 183.695244 
L 537.583661 183.574024 
L 537.818932 183.331586 
L 537.916254 183.255823 
L 538.194379 183.013385 
L 538.443201 182.816403 
L 538.970578 182.573964 
L 539.076929 182.498202 
L 539.560938 181.98302 
L 539.783025 181.816343 
L 539.980211 181.498142 
L 540.095091 181.346618 
L 540.219908 181.30116 
L 540.527134 181.149636 
L 540.77337 180.937502 
L 541.00491 180.755673 
L 541.176699 180.588996 
L 541.307032 180.452625 
L 541.364281 180.240491 
L 541.448655 180.104119 
L 541.698278 179.937442 
L 541.976706 179.649546 
L 542.235479 179.452564 
L 542.368978 179.285888 
L 542.696661 179.013144 
L 542.915838 178.80101 
L 543.282793 178.376742 
L 544.097923 177.967627 
L 544.21007 177.831255 
L 544.599375 177.482749 
L 544.855125 177.30092 
L 545.146628 177.073634 
L 546.716153 175.937202 
L 546.998383 175.785677 
L 547.25168 175.452324 
L 547.411997 175.315952 
L 547.547419 175.149275 
L 547.777877 174.891684 
L 548.353277 174.376502 
L 548.860505 174.17952 
L 549.745028 173.012783 
L 550.13805 172.876412 
L 550.216115 172.770345 
L 550.523334 172.633973 
L 550.631314 172.603668 
L 550.752232 172.436991 
L 550.873849 172.209705 
L 551.021881 172.088485 
L 552.337432 171.467236 
L 553.009082 171.027816 
L 553.291757 170.891444 
L 553.729162 170.603548 
L 553.839739 170.482328 
L 553.899145 170.376261 
L 554.050632 170.239889 
L 554.161089 169.997451 
L 554.446543 169.815621 
L 554.8667 169.49742 
L 554.967823 169.361049 
L 555.580765 168.99739 
L 555.850833 168.785256 
L 556.014135 168.527665 
L 556.225274 168.300379 
L 556.651711 167.815501 
L 557.168278 167.345776 
L 557.466257 166.921508 
L 558.559284 166.088125 
L 558.663445 165.9366 
L 558.857255 165.769924 
L 559.111085 165.512332 
L 560.399268 164.269833 
L 560.717937 163.951632 
L 561.207513 163.800108 
L 562.44594 162.678829 
L 562.914176 162.481847 
L 563.020887 162.330323 
L 563.258624 162.133341 
L 563.396341 161.890903 
L 563.607413 161.542397 
L 563.709247 161.37572 
L 563.809046 161.178739 
L 563.933794 161.012062 
L 564.292357 160.633251 
L 564.428414 160.43627 
L 564.510427 160.330203 
L 564.709558 160.178678 
L 564.813892 160.057459 
L 564.98914 159.845325 
L 565.095256 159.678648 
L 565.306484 159.31499 
L 565.460902 159.133161 
L 565.690427 158.905875 
L 566.135337 158.678588 
L 567.629633 157.8149 
L 567.96581 157.557309 
L 568.16594 157.390632 
L 568.428573 156.951212 
L 568.925688 156.784535 
L 569.004032 156.75423 
L 569.232744 156.602706 
L 569.322359 156.511791 
L 569.57583 156.31481 
L 569.698921 156.19359 
L 569.887385 156.042066 
L 569.96246 155.951151 
L 570.077651 155.799627 
L 570.521942 155.587493 
L 570.727363 155.345054 
L 570.81691 155.178378 
L 571.055743 155.026853 
L 571.222684 154.799567 
L 571.777943 154.284385 
L 572.35944 153.981336 
L 573.159726 153.299477 
L 573.735074 152.69338 
L 574.029771 152.496398 
L 574.182903 152.329722 
L 574.740054 151.966063 
L 574.850358 151.875149 
L 575.864486 151.238747 
L 576.289674 151.102375 
L 576.490701 150.556888 
L 576.582097 150.465973 
L 576.78787 150.253839 
L 576.941962 150.13262 
L 578.113098 148.799206 
L 578.222246 148.738597 
L 578.586706 148.541615 
L 578.986979 148.268871 
L 579.180285 147.95067 
L 579.293969 147.768841 
L 579.445317 147.602165 
L 579.593047 147.420336 
L 580.071307 147.208202 
L 580.244128 147.026372 
L 580.324518 146.890001 
L 580.495871 146.799086 
L 580.631773 146.647562 
L 580.75931 146.556647 
L 580.967461 146.374818 
L 581.075841 146.238446 
L 581.309606 146.07177 
L 581.74168 145.859636 
L 581.966342 145.738416 
L 582.096783 145.677807 
L 582.509645 145.374758 
L 582.816929 145.117167 
L 583.354479 144.935338 
L 583.58477 144.753509 
L 584.147747 144.283783 
L 584.391006 143.829211 
L 584.871093 143.526162 
L 587.418236 141.374517 
L 587.520652 141.283603 
L 587.962152 140.919945 
L 588.056749 140.798725 
L 588.163767 140.586591 
L 588.273408 140.435067 
L 588.357509 140.359305 
L 588.526136 140.207781 
L 589.09229 139.798665 
L 589.344504 139.525921 
L 589.446603 139.313788 
L 590.293365 138.616776 
L 590.486168 138.359185 
L 592.145621 136.859094 
L 592.215042 136.798485 
L 592.597962 136.571198 
L 593.228857 136.086321 
L 593.387813 135.904492 
L 593.463596 135.752967 
L 593.683185 135.616596 
L 593.879062 135.086261 
L 594.192548 134.76806 
L 594.422979 134.631688 
L 594.778134 134.26803 
L 595.455529 133.58617 
L 595.552799 133.464951 
L 596.911937 132.404281 
L 597.030713 132.070928 
L 598.051461 131.252697 
L 598.099563 131.176935 
L 598.306779 131.02541 
L 598.52892 130.752667 
L 598.771759 130.570838 
L 599.176229 130.373856 
L 599.28513 129.722302 
L 599.626645 129.52532 
L 599.952417 129.373796 
L 600.083084 129.176814 
L 600.140643 129.116205 
L 601.277208 128.722242 
L 601.388181 128.631327 
L 601.704009 128.313126 
L 601.905199 128.176754 
L 602.006577 128.08584 
L 602.863928 127.494895 
L 602.957009 127.343371 
L 603.24971 127.146389 
L 603.362389 126.994865 
L 604.859949 126.02511 
L 604.973173 125.843281 
L 605.414838 125.222031 
L 605.732534 125.070507 
L 605.891072 124.858373 
L 605.986721 124.737154 
L 606.365226 124.509867 
L 606.435563 124.328038 
L 606.544642 124.191666 
L 607.292849 123.721941 
L 607.440501 123.555264 
L 607.596159 123.358283 
L 607.699735 123.252216 
L 607.968575 123.055234 
L 609.447045 122.146089 
L 609.706193 121.994564 
L 610.02526 121.797583 
L 610.524789 121.646059 
L 610.730567 121.418772 
L 610.946236 121.221791 
L 611.060064 121.085419 
L 611.405162 120.858132 
L 612.608709 119.78231 
L 612.713258 119.555024 
L 613.037134 119.297433 
L 613.182147 119.251975 
L 613.517198 119.100451 
L 613.823223 118.78225 
L 614.333008 118.494354 
L 614.441437 118.403439 
L 614.574108 118.191305 
L 614.697773 118.009476 
L 615.27274 117.418532 
L 615.365126 117.22155 
L 615.879533 116.994264 
L 616.798256 116.524539 
L 617.171708 116.236642 
L 617.267362 116.145728 
L 617.46687 115.963899 
L 617.817629 115.736612 
L 618.08882 115.600241 
L 618.127193 115.539631 
L 618.498628 115.372954 
L 618.599125 115.327497 
L 619.028516 114.948686 
L 619.179822 114.751705 
L 619.358771 114.539571 
L 619.391911 114.448656 
L 619.634642 114.312284 
L 619.729735 114.191065 
L 620.668677 113.584968 
L 620.761005 113.463748 
L 621.646278 112.751584 
L 621.753401 112.615213 
L 622.03652 112.266707 
L 622.137247 111.978811 
L 622.545605 111.645457 
L 622.636364 111.6 
L 622.636364 111.6 
" style="fill:none;stroke:#92c6ff;stroke-linecap:round;stroke-width:1.5;"/>
   </g>
   <g id="line2d_28">
    <defs>
     <path d="M 0 2.5 
C 0.663008 2.5 1.29895 2.236584 1.767767 1.767767 
C 2.236584 1.29895 2.5 0.663008 2.5 0 
C 2.5 -0.663008 2.236584 -1.29895 1.767767 -1.767767 
C 1.29895 -2.236584 0.663008 -2.5 0 -2.5 
C -0.663008 -2.5 -1.29895 -2.236584 -1.767767 -1.767767 
C -2.236584 -1.29895 -2.5 -0.663008 -2.5 0 
C -2.5 0.663008 -2.236584 1.29895 -1.767767 1.767767 
C -1.29895 2.236584 -0.663008 2.5 0 2.5 
z
" id="mb1196fe26a" style="stroke:#696969;"/>
    </defs>
    <g clip-path="url(#p7dfaf549ac)">
     <use style="fill:#696969;stroke:#696969;" x="115.363636" xlink:href="#mb1196fe26a" y="615.6"/>
    </g>
   </g>
   <g id="line2d_29">
    <g clip-path="url(#p7dfaf549ac)">
     <use style="fill:#696969;stroke:#696969;" x="216.096269" xlink:href="#mb1196fe26a" y="565.187878"/>
    </g>
   </g>
   <g id="line2d_30">
    <g clip-path="url(#p7dfaf549ac)">
     <use style="fill:#696969;stroke:#696969;" x="274.804822" xlink:href="#mb1196fe26a" y="514.775756"/>
    </g>
   </g>
   <g id="line2d_31">
    <g clip-path="url(#p7dfaf549ac)">
     <use style="fill:#696969;stroke:#696969;" x="313.023735" xlink:href="#mb1196fe26a" y="464.363634"/>
    </g>
   </g>
   <g id="line2d_32">
    <g clip-path="url(#p7dfaf549ac)">
     <use style="fill:#696969;stroke:#696969;" x="353.684698" xlink:href="#mb1196fe26a" y="413.966665"/>
    </g>
   </g>
   <g id="line2d_33">
    <g clip-path="url(#p7dfaf549ac)">
     <use style="fill:#696969;stroke:#696969;" x="387.702614" xlink:href="#mb1196fe26a" y="363.569695"/>
    </g>
   </g>
   <g id="line2d_34">
    <g clip-path="url(#p7dfaf549ac)">
     <use style="fill:#696969;stroke:#696969;" x="420.997729" xlink:href="#mb1196fe26a" y="313.172726"/>
    </g>
   </g>
   <g id="line2d_35">
    <g clip-path="url(#p7dfaf549ac)">
     <use style="fill:#696969;stroke:#696969;" x="447.144684" xlink:href="#mb1196fe26a" y="262.775756"/>
    </g>
   </g>
   <g id="line2d_36">
    <g clip-path="url(#p7dfaf549ac)">
     <use style="fill:#696969;stroke:#696969;" x="504.172182" xlink:href="#mb1196fe26a" y="212.378787"/>
    </g>
   </g>
   <g id="line2d_37">
    <g clip-path="url(#p7dfaf549ac)">
     <use style="fill:#696969;stroke:#696969;" x="563.35428" xlink:href="#mb1196fe26a" y="161.981817"/>
    </g>
   </g>
   <g id="line2d_38">
    <g clip-path="url(#p7dfaf549ac)">
     <use style="fill:#696969;stroke:#696969;" x="622.636364" xlink:href="#mb1196fe26a" y="111.6"/>
    </g>
   </g>
   <g id="patch_3">
    <path d="M 90 640.8 
L 90 86.4 
" style="fill:none;stroke:#cccccc;stroke-linecap:square;stroke-linejoin:miter;"/>
   </g>
   <g id="patch_4">
    <path d="M 648 640.8 
L 648 86.4 
" style="fill:none;stroke:#cccccc;stroke-linecap:square;stroke-linejoin:miter;"/>
   </g>
   <g id="patch_5">
    <path d="M 90 640.8 
L 648 640.8 
" style="fill:none;stroke:#cccccc;stroke-linecap:square;stroke-linejoin:miter;"/>
   </g>
   <g id="patch_6">
    <path d="M 90 86.4 
L 648 86.4 
" style="fill:none;stroke:#cccccc;stroke-linecap:square;stroke-linejoin:miter;"/>
   </g>
   <g id="text_14">
    <!-- 1 (2014-06-09) -->
    <defs>
     <path id="DejaVuSans-32"/>
     <path d="M 31 75.875 
Q 24.46875 64.65625 21.28125 53.65625 
Q 18.109375 42.671875 18.109375 31.390625 
Q 18.109375 20.125 21.3125 9.0625 
Q 24.515625 -2 31 -13.1875 
L 23.1875 -13.1875 
Q 15.875 -1.703125 12.234375 9.375 
Q 8.59375 20.453125 8.59375 31.390625 
Q 8.59375 42.28125 12.203125 53.3125 
Q 15.828125 64.359375 23.1875 75.875 
z
" id="DejaVuSans-40"/>
     <path d="M 37.796875 64.3125 
L 12.890625 25.390625 
L 37.796875 25.390625 
z
M 35.203125 72.90625 
L 47.609375 72.90625 
L 47.609375 25.390625 
L 58.015625 25.390625 
L 58.015625 17.1875 
L 47.609375 17.1875 
L 47.609375 0 
L 37.796875 0 
L 37.796875 17.1875 
L 4.890625 17.1875 
L 4.890625 26.703125 
z
" id="DejaVuSans-52"/>
     <path d="M 4.890625 31.390625 
L 31.203125 31.390625 
L 31.203125 23.390625 
L 4.890625 23.390625 
z
" id="DejaVuSans-45"/>
     <path d="M 8.015625 75.875 
L 15.828125 75.875 
Q 23.140625 64.359375 26.78125 53.3125 
Q 30.421875 42.28125 30.421875 31.390625 
Q 30.421875 20.453125 26.78125 9.375 
Q 23.140625 -1.703125 15.828125 -13.1875 
L 8.015625 -13.1875 
Q 14.5 -2 17.703125 9.0625 
Q 20.90625 20.125 20.90625 31.390625 
Q 20.90625 42.671875 17.703125 53.65625 
Q 14.5 64.65625 8.015625 75.875 
z
" id="DejaVuSans-41"/>
    </defs>
    <g style="fill:#262626;" transform="translate(120.363636 623.198437)scale(0.1 -0.1)">
     <use xlink:href="#DejaVuSans-49"/>
     <use x="63.623047" xlink:href="#DejaVuSans-32"/>
     <use x="95.410156" xlink:href="#DejaVuSans-40"/>
     <use x="134.423828" xlink:href="#DejaVuSans-50"/>
     <use x="198.046875" xlink:href="#DejaVuSans-48"/>
     <use x="261.669922" xlink:href="#DejaVuSans-49"/>
     <use x="325.292969" xlink:href="#DejaVuSans-52"/>
     <use x="388.916016" xlink:href="#DejaVuSans-45"/>
     <use x="425" xlink:href="#DejaVuSans-48"/>
     <use x="488.623047" xlink:href="#DejaVuSans-54"/>
     <use x="552.246094" xlink:href="#DejaVuSans-45"/>
     <use x="588.330078" xlink:href="#DejaVuSans-48"/>
     <use x="651.953125" xlink:href="#DejaVuSans-57"/>
     <use x="715.576172" xlink:href="#DejaVuSans-41"/>
    </g>
   </g>
   <g id="text_15">
    <!-- 3328 (2015-08-27) -->
    <g style="fill:#262626;" transform="translate(221.096269 572.786316)scale(0.1 -0.1)">
     <use xlink:href="#DejaVuSans-51"/>
     <use x="63.623047" xlink:href="#DejaVuSans-51"/>
     <use x="127.246094" xlink:href="#DejaVuSans-50"/>
     <use x="190.869141" xlink:href="#DejaVuSans-56"/>
     <use x="254.492188" xlink:href="#DejaVuSans-32"/>
     <use x="286.279297" xlink:href="#DejaVuSans-40"/>
     <use x="325.292969" xlink:href="#DejaVuSans-50"/>
     <use x="388.916016" xlink:href="#DejaVuSans-48"/>
     <use x="452.539062" xlink:href="#DejaVuSans-49"/>
     <use x="516.162109" xlink:href="#DejaVuSans-53"/>
     <use x="579.785156" xlink:href="#DejaVuSans-45"/>
     <use x="615.869141" xlink:href="#DejaVuSans-48"/>
     <use x="679.492188" xlink:href="#DejaVuSans-56"/>
     <use x="743.115234" xlink:href="#DejaVuSans-45"/>
     <use x="779.199219" xlink:href="#DejaVuSans-50"/>
     <use x="842.822266" xlink:href="#DejaVuSans-55"/>
     <use x="906.445312" xlink:href="#DejaVuSans-41"/>
    </g>
   </g>
   <g id="text_16">
    <!-- 6655 (2016-05-12) -->
    <g style="fill:#262626;" transform="translate(279.804822 522.374194)scale(0.1 -0.1)">
     <use xlink:href="#DejaVuSans-54"/>
     <use x="63.623047" xlink:href="#DejaVuSans-54"/>
     <use x="127.246094" xlink:href="#DejaVuSans-53"/>
     <use x="190.869141" xlink:href="#DejaVuSans-53"/>
     <use x="254.492188" xlink:href="#DejaVuSans-32"/>
     <use x="286.279297" xlink:href="#DejaVuSans-40"/>
     <use x="325.292969" xlink:href="#DejaVuSans-50"/>
     <use x="388.916016" xlink:href="#DejaVuSans-48"/>
     <use x="452.539062" xlink:href="#DejaVuSans-49"/>
     <use x="516.162109" xlink:href="#DejaVuSans-54"/>
     <use x="579.785156" xlink:href="#DejaVuSans-45"/>
     <use x="615.869141" xlink:href="#DejaVuSans-48"/>
     <use x="679.492188" xlink:href="#DejaVuSans-53"/>
     <use x="743.115234" xlink:href="#DejaVuSans-45"/>
     <use x="779.199219" xlink:href="#DejaVuSans-49"/>
     <use x="842.822266" xlink:href="#DejaVuSans-50"/>
     <use x="906.445312" xlink:href="#DejaVuSans-41"/>
    </g>
   </g>
   <g id="text_17">
    <!-- 9982 (2016-10-28) -->
    <g style="fill:#262626;" transform="translate(318.023735 471.962072)scale(0.1 -0.1)">
     <use xlink:href="#DejaVuSans-57"/>
     <use x="63.623047" xlink:href="#DejaVuSans-57"/>
     <use x="127.246094" xlink:href="#DejaVuSans-56"/>
     <use x="190.869141" xlink:href="#DejaVuSans-50"/>
     <use x="254.492188" xlink:href="#DejaVuSans-32"/>
     <use x="286.279297" xlink:href="#DejaVuSans-40"/>
     <use x="325.292969" xlink:href="#DejaVuSans-50"/>
     <use x="388.916016" xlink:href="#DejaVuSans-48"/>
     <use x="452.539062" xlink:href="#DejaVuSans-49"/>
     <use x="516.162109" xlink:href="#DejaVuSans-54"/>
     <use x="579.785156" xlink:href="#DejaVuSans-45"/>
     <use x="615.869141" xlink:href="#DejaVuSans-49"/>
     <use x="679.492188" xlink:href="#DejaVuSans-48"/>
     <use x="743.115234" xlink:href="#DejaVuSans-45"/>
     <use x="779.199219" xlink:href="#DejaVuSans-50"/>
     <use x="842.822266" xlink:href="#DejaVuSans-56"/>
     <use x="906.445312" xlink:href="#DejaVuSans-41"/>
    </g>
   </g>
   <g id="text_18">
    <!-- 13308 (2017-04-25) -->
    <g style="fill:#262626;" transform="translate(358.684698 421.565102)scale(0.1 -0.1)">
     <use xlink:href="#DejaVuSans-49"/>
     <use x="63.623047" xlink:href="#DejaVuSans-51"/>
     <use x="127.246094" xlink:href="#DejaVuSans-51"/>
     <use x="190.869141" xlink:href="#DejaVuSans-48"/>
     <use x="254.492188" xlink:href="#DejaVuSans-56"/>
     <use x="318.115234" xlink:href="#DejaVuSans-32"/>
     <use x="349.902344" xlink:href="#DejaVuSans-40"/>
     <use x="388.916016" xlink:href="#DejaVuSans-50"/>
     <use x="452.539062" xlink:href="#DejaVuSans-48"/>
     <use x="516.162109" xlink:href="#DejaVuSans-49"/>
     <use x="579.785156" xlink:href="#DejaVuSans-55"/>
     <use x="643.408203" xlink:href="#DejaVuSans-45"/>
     <use x="679.492188" xlink:href="#DejaVuSans-48"/>
     <use x="743.115234" xlink:href="#DejaVuSans-52"/>
     <use x="806.738281" xlink:href="#DejaVuSans-45"/>
     <use x="842.822266" xlink:href="#DejaVuSans-50"/>
     <use x="906.445312" xlink:href="#DejaVuSans-53"/>
     <use x="970.068359" xlink:href="#DejaVuSans-41"/>
    </g>
   </g>
   <g id="text_19">
    <!-- 16634 (2017-09-22) -->
    <g style="fill:#262626;" transform="translate(392.702614 371.168133)scale(0.1 -0.1)">
     <use xlink:href="#DejaVuSans-49"/>
     <use x="63.623047" xlink:href="#DejaVuSans-54"/>
     <use x="127.246094" xlink:href="#DejaVuSans-54"/>
     <use x="190.869141" xlink:href="#DejaVuSans-51"/>
     <use x="254.492188" xlink:href="#DejaVuSans-52"/>
     <use x="318.115234" xlink:href="#DejaVuSans-32"/>
     <use x="349.902344" xlink:href="#DejaVuSans-40"/>
     <use x="388.916016" xlink:href="#DejaVuSans-50"/>
     <use x="452.539062" xlink:href="#DejaVuSans-48"/>
     <use x="516.162109" xlink:href="#DejaVuSans-49"/>
     <use x="579.785156" xlink:href="#DejaVuSans-55"/>
     <use x="643.408203" xlink:href="#DejaVuSans-45"/>
     <use x="679.492188" xlink:href="#DejaVuSans-48"/>
     <use x="743.115234" xlink:href="#DejaVuSans-57"/>
     <use x="806.738281" xlink:href="#DejaVuSans-45"/>
     <use x="842.822266" xlink:href="#DejaVuSans-50"/>
     <use x="906.445312" xlink:href="#DejaVuSans-50"/>
     <use x="970.068359" xlink:href="#DejaVuSans-41"/>
    </g>
   </g>
   <g id="text_20">
    <!-- 19960 (2018-02-16) -->
    <g style="fill:#262626;" transform="translate(425.997729 320.771163)scale(0.1 -0.1)">
     <use xlink:href="#DejaVuSans-49"/>
     <use x="63.623047" xlink:href="#DejaVuSans-57"/>
     <use x="127.246094" xlink:href="#DejaVuSans-57"/>
     <use x="190.869141" xlink:href="#DejaVuSans-54"/>
     <use x="254.492188" xlink:href="#DejaVuSans-48"/>
     <use x="318.115234" xlink:href="#DejaVuSans-32"/>
     <use x="349.902344" xlink:href="#DejaVuSans-40"/>
     <use x="388.916016" xlink:href="#DejaVuSans-50"/>
     <use x="452.539062" xlink:href="#DejaVuSans-48"/>
     <use x="516.162109" xlink:href="#DejaVuSans-49"/>
     <use x="579.785156" xlink:href="#DejaVuSans-56"/>
     <use x="643.408203" xlink:href="#DejaVuSans-45"/>
     <use x="679.492188" xlink:href="#DejaVuSans-48"/>
     <use x="743.115234" xlink:href="#DejaVuSans-50"/>
     <use x="806.738281" xlink:href="#DejaVuSans-45"/>
     <use x="842.822266" xlink:href="#DejaVuSans-49"/>
     <use x="906.445312" xlink:href="#DejaVuSans-54"/>
     <use x="970.068359" xlink:href="#DejaVuSans-41"/>
    </g>
   </g>
   <g id="text_21">
    <!-- 23286 (2018-06-12) -->
    <g style="fill:#262626;" transform="translate(452.144684 270.374194)scale(0.1 -0.1)">
     <use xlink:href="#DejaVuSans-50"/>
     <use x="63.623047" xlink:href="#DejaVuSans-51"/>
     <use x="127.246094" xlink:href="#DejaVuSans-50"/>
     <use x="190.869141" xlink:href="#DejaVuSans-56"/>
     <use x="254.492188" xlink:href="#DejaVuSans-54"/>
     <use x="318.115234" xlink:href="#DejaVuSans-32"/>
     <use x="349.902344" xlink:href="#DejaVuSans-40"/>
     <use x="388.916016" xlink:href="#DejaVuSans-50"/>
     <use x="452.539062" xlink:href="#DejaVuSans-48"/>
     <use x="516.162109" xlink:href="#DejaVuSans-49"/>
     <use x="579.785156" xlink:href="#DejaVuSans-56"/>
     <use x="643.408203" xlink:href="#DejaVuSans-45"/>
     <use x="679.492188" xlink:href="#DejaVuSans-48"/>
     <use x="743.115234" xlink:href="#DejaVuSans-54"/>
     <use x="806.738281" xlink:href="#DejaVuSans-45"/>
     <use x="842.822266" xlink:href="#DejaVuSans-49"/>
     <use x="906.445312" xlink:href="#DejaVuSans-50"/>
     <use x="970.068359" xlink:href="#DejaVuSans-41"/>
    </g>
   </g>
   <g id="text_22">
    <!-- 26612 (2019-02-18) -->
    <g style="fill:#262626;" transform="translate(509.172182 219.977224)scale(0.1 -0.1)">
     <use xlink:href="#DejaVuSans-50"/>
     <use x="63.623047" xlink:href="#DejaVuSans-54"/>
     <use x="127.246094" xlink:href="#DejaVuSans-54"/>
     <use x="190.869141" xlink:href="#DejaVuSans-49"/>
     <use x="254.492188" xlink:href="#DejaVuSans-50"/>
     <use x="318.115234" xlink:href="#DejaVuSans-32"/>
     <use x="349.902344" xlink:href="#DejaVuSans-40"/>
     <use x="388.916016" xlink:href="#DejaVuSans-50"/>
     <use x="452.539062" xlink:href="#DejaVuSans-48"/>
     <use x="516.162109" xlink:href="#DejaVuSans-49"/>
     <use x="579.785156" xlink:href="#DejaVuSans-57"/>
     <use x="643.408203" xlink:href="#DejaVuSans-45"/>
     <use x="679.492188" xlink:href="#DejaVuSans-48"/>
     <use x="743.115234" xlink:href="#DejaVuSans-50"/>
     <use x="806.738281" xlink:href="#DejaVuSans-45"/>
     <use x="842.822266" xlink:href="#DejaVuSans-49"/>
     <use x="906.445312" xlink:href="#DejaVuSans-56"/>
     <use x="970.068359" xlink:href="#DejaVuSans-41"/>
    </g>
   </g>
   <g id="text_23">
    <!-- 29938 (2019-11-06) -->
    <g style="fill:#262626;" transform="translate(568.35428 169.580255)scale(0.1 -0.1)">
     <use xlink:href="#DejaVuSans-50"/>
     <use x="63.623047" xlink:href="#DejaVuSans-57"/>
     <use x="127.246094" xlink:href="#DejaVuSans-57"/>
     <use x="190.869141" xlink:href="#DejaVuSans-51"/>
     <use x="254.492188" xlink:href="#DejaVuSans-56"/>
     <use x="318.115234" xlink:href="#DejaVuSans-32"/>
     <use x="349.902344" xlink:href="#DejaVuSans-40"/>
     <use x="388.916016" xlink:href="#DejaVuSans-50"/>
     <use x="452.539062" xlink:href="#DejaVuSans-48"/>
     <use x="516.162109" xlink:href="#DejaVuSans-49"/>
     <use x="579.785156" xlink:href="#DejaVuSans-57"/>
     <use x="643.408203" xlink:href="#DejaVuSans-45"/>
     <use x="679.492188" xlink:href="#DejaVuSans-49"/>
     <use x="743.115234" xlink:href="#DejaVuSans-49"/>
     <use x="806.738281" xlink:href="#DejaVuSans-45"/>
     <use x="842.822266" xlink:href="#DejaVuSans-48"/>
     <use x="906.445312" xlink:href="#DejaVuSans-54"/>
     <use x="970.068359" xlink:href="#DejaVuSans-41"/>
    </g>
   </g>
   <g id="text_24">
    <!-- 33263 (2020-07-25) -->
    <g style="fill:#262626;" transform="translate(627.636364 119.198437)scale(0.1 -0.1)">
     <use xlink:href="#DejaVuSans-51"/>
     <use x="63.623047" xlink:href="#DejaVuSans-51"/>
     <use x="127.246094" xlink:href="#DejaVuSans-50"/>
     <use x="190.869141" xlink:href="#DejaVuSans-54"/>
     <use x="254.492188" xlink:href="#DejaVuSans-51"/>
     <use x="318.115234" xlink:href="#DejaVuSans-32"/>
     <use x="349.902344" xlink:href="#DejaVuSans-40"/>
     <use x="388.916016" xlink:href="#DejaVuSans-50"/>
     <use x="452.539062" xlink:href="#DejaVuSans-48"/>
     <use x="516.162109" xlink:href="#DejaVuSans-50"/>
     <use x="579.785156" xlink:href="#DejaVuSans-48"/>
     <use x="643.408203" xlink:href="#DejaVuSans-45"/>
     <use x="679.492188" xlink:href="#DejaVuSans-48"/>
     <use x="743.115234" xlink:href="#DejaVuSans-55"/>
     <use x="806.738281" xlink:href="#DejaVuSans-45"/>
     <use x="842.822266" xlink:href="#DejaVuSans-50"/>
     <use x="906.445312" xlink:href="#DejaVuSans-53"/>
     <use x="970.068359" xlink:href="#DejaVuSans-41"/>
    </g>
   </g>
   <g id="text_25">
    <!-- Closed issues over time -->
    <defs>
     <path d="M 64.40625 67.28125 
L 64.40625 56.890625 
Q 59.421875 61.53125 53.78125 63.8125 
Q 48.140625 66.109375 41.796875 66.109375 
Q 29.296875 66.109375 22.65625 58.46875 
Q 16.015625 50.828125 16.015625 36.375 
Q 16.015625 21.96875 22.65625 14.328125 
Q 29.296875 6.6875 41.796875 6.6875 
Q 48.140625 6.6875 53.78125 8.984375 
Q 59.421875 11.28125 64.40625 15.921875 
L 64.40625 5.609375 
Q 59.234375 2.09375 53.4375 0.328125 
Q 47.65625 -1.421875 41.21875 -1.421875 
Q 24.65625 -1.421875 15.125 8.703125 
Q 5.609375 18.84375 5.609375 36.375 
Q 5.609375 53.953125 15.125 64.078125 
Q 24.65625 74.21875 41.21875 74.21875 
Q 47.75 74.21875 53.53125 72.484375 
Q 59.328125 70.75 64.40625 67.28125 
z
" id="DejaVuSans-67"/>
     <path d="M 9.421875 75.984375 
L 18.40625 75.984375 
L 18.40625 0 
L 9.421875 0 
z
" id="DejaVuSans-108"/>
     <path d="M 30.609375 48.390625 
Q 23.390625 48.390625 19.1875 42.75 
Q 14.984375 37.109375 14.984375 27.296875 
Q 14.984375 17.484375 19.15625 11.84375 
Q 23.34375 6.203125 30.609375 6.203125 
Q 37.796875 6.203125 41.984375 11.859375 
Q 46.1875 17.53125 46.1875 27.296875 
Q 46.1875 37.015625 41.984375 42.703125 
Q 37.796875 48.390625 30.609375 48.390625 
z
M 30.609375 56 
Q 42.328125 56 49.015625 48.375 
Q 55.71875 40.765625 55.71875 27.296875 
Q 55.71875 13.875 49.015625 6.21875 
Q 42.328125 -1.421875 30.609375 -1.421875 
Q 18.84375 -1.421875 12.171875 6.21875 
Q 5.515625 13.875 5.515625 27.296875 
Q 5.515625 40.765625 12.171875 48.375 
Q 18.84375 56 30.609375 56 
z
" id="DejaVuSans-111"/>
     <path d="M 44.28125 53.078125 
L 44.28125 44.578125 
Q 40.484375 46.53125 36.375 47.5 
Q 32.28125 48.484375 27.875 48.484375 
Q 21.1875 48.484375 17.84375 46.4375 
Q 14.5 44.390625 14.5 40.28125 
Q 14.5 37.15625 16.890625 35.375 
Q 19.28125 33.59375 26.515625 31.984375 
L 29.59375 31.296875 
Q 39.15625 29.25 43.1875 25.515625 
Q 47.21875 21.78125 47.21875 15.09375 
Q 47.21875 7.46875 41.1875 3.015625 
Q 35.15625 -1.421875 24.609375 -1.421875 
Q 20.21875 -1.421875 15.453125 -0.5625 
Q 10.6875 0.296875 5.421875 2 
L 5.421875 11.28125 
Q 10.40625 8.6875 15.234375 7.390625 
Q 20.0625 6.109375 24.8125 6.109375 
Q 31.15625 6.109375 34.5625 8.28125 
Q 37.984375 10.453125 37.984375 14.40625 
Q 37.984375 18.0625 35.515625 20.015625 
Q 33.0625 21.96875 24.703125 23.78125 
L 21.578125 24.515625 
Q 13.234375 26.265625 9.515625 29.90625 
Q 5.8125 33.546875 5.8125 39.890625 
Q 5.8125 47.609375 11.28125 51.796875 
Q 16.75 56 26.8125 56 
Q 31.78125 56 36.171875 55.265625 
Q 40.578125 54.546875 44.28125 53.078125 
z
" id="DejaVuSans-115"/>
     <path d="M 56.203125 29.59375 
L 56.203125 25.203125 
L 14.890625 25.203125 
Q 15.484375 15.921875 20.484375 11.0625 
Q 25.484375 6.203125 34.421875 6.203125 
Q 39.59375 6.203125 44.453125 7.46875 
Q 49.3125 8.734375 54.109375 11.28125 
L 54.109375 2.78125 
Q 49.265625 0.734375 44.1875 -0.34375 
Q 39.109375 -1.421875 33.890625 -1.421875 
Q 20.796875 -1.421875 13.15625 6.1875 
Q 5.515625 13.8125 5.515625 26.8125 
Q 5.515625 40.234375 12.765625 48.109375 
Q 20.015625 56 32.328125 56 
Q 43.359375 56 49.78125 48.890625 
Q 56.203125 41.796875 56.203125 29.59375 
z
M 47.21875 32.234375 
Q 47.125 39.59375 43.09375 43.984375 
Q 39.0625 48.390625 32.421875 48.390625 
Q 24.90625 48.390625 20.390625 44.140625 
Q 15.875 39.890625 15.1875 32.171875 
z
" id="DejaVuSans-101"/>
     <path d="M 45.40625 46.390625 
L 45.40625 75.984375 
L 54.390625 75.984375 
L 54.390625 0 
L 45.40625 0 
L 45.40625 8.203125 
Q 42.578125 3.328125 38.25 0.953125 
Q 33.9375 -1.421875 27.875 -1.421875 
Q 17.96875 -1.421875 11.734375 6.484375 
Q 5.515625 14.40625 5.515625 27.296875 
Q 5.515625 40.1875 11.734375 48.09375 
Q 17.96875 56 27.875 56 
Q 33.9375 56 38.25 53.625 
Q 42.578125 51.265625 45.40625 46.390625 
z
M 14.796875 27.296875 
Q 14.796875 17.390625 18.875 11.75 
Q 22.953125 6.109375 30.078125 6.109375 
Q 37.203125 6.109375 41.296875 11.75 
Q 45.40625 17.390625 45.40625 27.296875 
Q 45.40625 37.203125 41.296875 42.84375 
Q 37.203125 48.484375 30.078125 48.484375 
Q 22.953125 48.484375 18.875 42.84375 
Q 14.796875 37.203125 14.796875 27.296875 
z
" id="DejaVuSans-100"/>
     <path d="M 9.421875 54.6875 
L 18.40625 54.6875 
L 18.40625 0 
L 9.421875 0 
z
M 9.421875 75.984375 
L 18.40625 75.984375 
L 18.40625 64.59375 
L 9.421875 64.59375 
z
" id="DejaVuSans-105"/>
     <path d="M 8.5 21.578125 
L 8.5 54.6875 
L 17.484375 54.6875 
L 17.484375 21.921875 
Q 17.484375 14.15625 20.5 10.265625 
Q 23.53125 6.390625 29.59375 6.390625 
Q 36.859375 6.390625 41.078125 11.03125 
Q 45.3125 15.671875 45.3125 23.6875 
L 45.3125 54.6875 
L 54.296875 54.6875 
L 54.296875 0 
L 45.3125 0 
L 45.3125 8.40625 
Q 42.046875 3.421875 37.71875 1 
Q 33.40625 -1.421875 27.6875 -1.421875 
Q 18.265625 -1.421875 13.375 4.4375 
Q 8.5 10.296875 8.5 21.578125 
z
M 31.109375 56 
z
" id="DejaVuSans-117"/>
     <path d="M 2.984375 54.6875 
L 12.5 54.6875 
L 29.59375 8.796875 
L 46.6875 54.6875 
L 56.203125 54.6875 
L 35.6875 0 
L 23.484375 0 
z
" id="DejaVuSans-118"/>
     <path d="M 41.109375 46.296875 
Q 39.59375 47.171875 37.8125 47.578125 
Q 36.03125 48 33.890625 48 
Q 26.265625 48 22.1875 43.046875 
Q 18.109375 38.09375 18.109375 28.8125 
L 18.109375 0 
L 9.078125 0 
L 9.078125 54.6875 
L 18.109375 54.6875 
L 18.109375 46.1875 
Q 20.953125 51.171875 25.484375 53.578125 
Q 30.03125 56 36.53125 56 
Q 37.453125 56 38.578125 55.875 
Q 39.703125 55.765625 41.0625 55.515625 
z
" id="DejaVuSans-114"/>
     <path d="M 18.3125 70.21875 
L 18.3125 54.6875 
L 36.8125 54.6875 
L 36.8125 47.703125 
L 18.3125 47.703125 
L 18.3125 18.015625 
Q 18.3125 11.328125 20.140625 9.421875 
Q 21.96875 7.515625 27.59375 7.515625 
L 36.8125 7.515625 
L 36.8125 0 
L 27.59375 0 
Q 17.1875 0 13.234375 3.875 
Q 9.28125 7.765625 9.28125 18.015625 
L 9.28125 47.703125 
L 2.6875 47.703125 
L 2.6875 54.6875 
L 9.28125 54.6875 
L 9.28125 70.21875 
z
" id="DejaVuSans-116"/>
     <path d="M 52 44.1875 
Q 55.375 50.25 60.0625 53.125 
Q 64.75 56 71.09375 56 
Q 79.640625 56 84.28125 50.015625 
Q 88.921875 44.046875 88.921875 33.015625 
L 88.921875 0 
L 79.890625 0 
L 79.890625 32.71875 
Q 79.890625 40.578125 77.09375 44.375 
Q 74.3125 48.1875 68.609375 48.1875 
Q 61.625 48.1875 57.5625 43.546875 
Q 53.515625 38.921875 53.515625 30.90625 
L 53.515625 0 
L 44.484375 0 
L 44.484375 32.71875 
Q 44.484375 40.625 41.703125 44.40625 
Q 38.921875 48.1875 33.109375 48.1875 
Q 26.21875 48.1875 22.15625 43.53125 
Q 18.109375 38.875 18.109375 30.90625 
L 18.109375 0 
L 9.078125 0 
L 9.078125 54.6875 
L 18.109375 54.6875 
L 18.109375 46.1875 
Q 21.1875 51.21875 25.484375 53.609375 
Q 29.78125 56 35.6875 56 
Q 41.65625 56 45.828125 52.96875 
Q 50 49.953125 52 44.1875 
z
" id="DejaVuSans-109"/>
    </defs>
    <g style="fill:#262626;" transform="translate(297.650625 80.4)scale(0.12 -0.12)">
     <use xlink:href="#DejaVuSans-67"/>
     <use x="69.824219" xlink:href="#DejaVuSans-108"/>
     <use x="97.607422" xlink:href="#DejaVuSans-111"/>
     <use x="158.789062" xlink:href="#DejaVuSans-115"/>
     <use x="210.888672" xlink:href="#DejaVuSans-101"/>
     <use x="272.412109" xlink:href="#DejaVuSans-100"/>
     <use x="335.888672" xlink:href="#DejaVuSans-32"/>
     <use x="367.675781" xlink:href="#DejaVuSans-105"/>
     <use x="395.458984" xlink:href="#DejaVuSans-115"/>
     <use x="447.558594" xlink:href="#DejaVuSans-115"/>
     <use x="499.658203" xlink:href="#DejaVuSans-117"/>
     <use x="563.037109" xlink:href="#DejaVuSans-101"/>
     <use x="624.560547" xlink:href="#DejaVuSans-115"/>
     <use x="676.660156" xlink:href="#DejaVuSans-32"/>
     <use x="708.447266" xlink:href="#DejaVuSans-111"/>
     <use x="769.628906" xlink:href="#DejaVuSans-118"/>
     <use x="828.808594" xlink:href="#DejaVuSans-101"/>
     <use x="890.332031" xlink:href="#DejaVuSans-114"/>
     <use x="931.445312" xlink:href="#DejaVuSans-32"/>
     <use x="963.232422" xlink:href="#DejaVuSans-116"/>
     <use x="1002.441406" xlink:href="#DejaVuSans-105"/>
     <use x="1030.224609" xlink:href="#DejaVuSans-109"/>
     <use x="1127.636719" xlink:href="#DejaVuSans-101"/>
    </g>
   </g>
  </g>
 </g>
 <defs>
  <clipPath id="p7dfaf549ac">
   <rect height="554.4" width="558" x="90" y="86.4"/>
  </clipPath>
 </defs>
</svg>
