<?xml version="1.0" encoding="utf-8" standalone="no"?>
<!DOCTYPE svg PUBLIC "-//W3C//DTD SVG 1.1//EN"
  "http://www.w3.org/Graphics/SVG/1.1/DTD/svg11.dtd">
<!-- Created with matplotlib (https://matplotlib.org/) -->
<svg height="720pt" version="1.1" viewBox="0 0 720 720" width="720pt" xmlns="http://www.w3.org/2000/svg" xmlns:xlink="http://www.w3.org/1999/xlink">
 <defs>
  <style type="text/css">
*{stroke-linecap:butt;stroke-linejoin:round;}
  </style>
 </defs>
 <g id="figure_1">
  <g id="patch_1">
   <path d="M 0 720 
L 720 720 
L 720 0 
L 0 0 
z
" style="fill:#ffffff;"/>
  </g>
  <g id="axes_1">
   <g id="patch_2">
    <path d="M 90 640.8 
L 648 640.8 
L 648 86.4 
L 90 86.4 
z
" style="fill:#ffffff;"/>
   </g>
   <g id="matplotlib.axis_1">
    <g id="xtick_1">
     <g id="line2d_1">
      <path clip-path="url(#paf524b0870)" d="M 164.132756 640.8 
L 164.132756 86.4 
" style="fill:none;stroke:#cccccc;stroke-linecap:round;stroke-width:0.8;"/>
     </g>
     <g id="line2d_2"/>
     <g id="text_1">
      <!-- 2015 -->
      <defs>
       <path d="M 19.1875 8.296875 
L 53.609375 8.296875 
L 53.609375 0 
L 7.328125 0 
L 7.328125 8.296875 
Q 12.9375 14.109375 22.625 23.890625 
Q 32.328125 33.6875 34.8125 36.53125 
Q 39.546875 41.84375 41.421875 45.53125 
Q 43.3125 49.21875 43.3125 52.78125 
Q 43.3125 58.59375 39.234375 62.25 
Q 35.15625 65.921875 28.609375 65.921875 
Q 23.96875 65.921875 18.8125 64.3125 
Q 13.671875 62.703125 7.8125 59.421875 
L 7.8125 69.390625 
Q 13.765625 71.78125 18.9375 73 
Q 24.125 74.21875 28.421875 74.21875 
Q 39.75 74.21875 46.484375 68.546875 
Q 53.21875 62.890625 53.21875 53.421875 
Q 53.21875 48.921875 51.53125 44.890625 
Q 49.859375 40.875 45.40625 35.40625 
Q 44.1875 33.984375 37.640625 27.21875 
Q 31.109375 20.453125 19.1875 8.296875 
z
" id="DejaVuSans-50"/>
       <path d="M 31.78125 66.40625 
Q 24.171875 66.40625 20.328125 58.90625 
Q 16.5 51.421875 16.5 36.375 
Q 16.5 21.390625 20.328125 13.890625 
Q 24.171875 6.390625 31.78125 6.390625 
Q 39.453125 6.390625 43.28125 13.890625 
Q 47.125 21.390625 47.125 36.375 
Q 47.125 51.421875 43.28125 58.90625 
Q 39.453125 66.40625 31.78125 66.40625 
z
M 31.78125 74.21875 
Q 44.046875 74.21875 50.515625 64.515625 
Q 56.984375 54.828125 56.984375 36.375 
Q 56.984375 17.96875 50.515625 8.265625 
Q 44.046875 -1.421875 31.78125 -1.421875 
Q 19.53125 -1.421875 13.0625 8.265625 
Q 6.59375 17.96875 6.59375 36.375 
Q 6.59375 54.828125 13.0625 64.515625 
Q 19.53125 74.21875 31.78125 74.21875 
z
" id="DejaVuSans-48"/>
       <path d="M 12.40625 8.296875 
L 28.515625 8.296875 
L 28.515625 63.921875 
L 10.984375 60.40625 
L 10.984375 69.390625 
L 28.421875 72.90625 
L 38.28125 72.90625 
L 38.28125 8.296875 
L 54.390625 8.296875 
L 54.390625 0 
L 12.40625 0 
z
" id="DejaVuSans-49"/>
       <path d="M 10.796875 72.90625 
L 49.515625 72.90625 
L 49.515625 64.59375 
L 19.828125 64.59375 
L 19.828125 46.734375 
Q 21.96875 47.46875 24.109375 47.828125 
Q 26.265625 48.1875 28.421875 48.1875 
Q 40.625 48.1875 47.75 41.5 
Q 54.890625 34.8125 54.890625 23.390625 
Q 54.890625 11.625 47.5625 5.09375 
Q 40.234375 -1.421875 26.90625 -1.421875 
Q 22.3125 -1.421875 17.546875 -0.640625 
Q 12.796875 0.140625 7.71875 1.703125 
L 7.71875 11.625 
Q 12.109375 9.234375 16.796875 8.0625 
Q 21.484375 6.890625 26.703125 6.890625 
Q 35.15625 6.890625 40.078125 11.328125 
Q 45.015625 15.765625 45.015625 23.390625 
Q 45.015625 31 40.078125 35.4375 
Q 35.15625 39.890625 26.703125 39.890625 
Q 22.75 39.890625 18.8125 39.015625 
Q 14.890625 38.140625 10.796875 36.28125 
z
" id="DejaVuSans-53"/>
      </defs>
      <g style="fill:#262626;" transform="translate(151.407756 651.898438)scale(0.1 -0.1)">
       <use xlink:href="#DejaVuSans-50"/>
       <use x="63.623047" xlink:href="#DejaVuSans-48"/>
       <use x="127.246094" xlink:href="#DejaVuSans-49"/>
       <use x="190.869141" xlink:href="#DejaVuSans-53"/>
      </g>
     </g>
    </g>
    <g id="xtick_2">
     <g id="line2d_3">
      <path clip-path="url(#paf524b0870)" d="M 249.760851 640.8 
L 249.760851 86.4 
" style="fill:none;stroke:#cccccc;stroke-linecap:round;stroke-width:0.8;"/>
     </g>
     <g id="line2d_4"/>
     <g id="text_2">
      <!-- 2016 -->
      <defs>
       <path d="M 33.015625 40.375 
Q 26.375 40.375 22.484375 35.828125 
Q 18.609375 31.296875 18.609375 23.390625 
Q 18.609375 15.53125 22.484375 10.953125 
Q 26.375 6.390625 33.015625 6.390625 
Q 39.65625 6.390625 43.53125 10.953125 
Q 47.40625 15.53125 47.40625 23.390625 
Q 47.40625 31.296875 43.53125 35.828125 
Q 39.65625 40.375 33.015625 40.375 
z
M 52.59375 71.296875 
L 52.59375 62.3125 
Q 48.875 64.0625 45.09375 64.984375 
Q 41.3125 65.921875 37.59375 65.921875 
Q 27.828125 65.921875 22.671875 59.328125 
Q 17.53125 52.734375 16.796875 39.40625 
Q 19.671875 43.65625 24.015625 45.921875 
Q 28.375 48.1875 33.59375 48.1875 
Q 44.578125 48.1875 50.953125 41.515625 
Q 57.328125 34.859375 57.328125 23.390625 
Q 57.328125 12.15625 50.6875 5.359375 
Q 44.046875 -1.421875 33.015625 -1.421875 
Q 20.359375 -1.421875 13.671875 8.265625 
Q 6.984375 17.96875 6.984375 36.375 
Q 6.984375 53.65625 15.1875 63.9375 
Q 23.390625 74.21875 37.203125 74.21875 
Q 40.921875 74.21875 44.703125 73.484375 
Q 48.484375 72.75 52.59375 71.296875 
z
" id="DejaVuSans-54"/>
      </defs>
      <g style="fill:#262626;" transform="translate(237.035851 651.898438)scale(0.1 -0.1)">
       <use xlink:href="#DejaVuSans-50"/>
       <use x="63.623047" xlink:href="#DejaVuSans-48"/>
       <use x="127.246094" xlink:href="#DejaVuSans-49"/>
       <use x="190.869141" xlink:href="#DejaVuSans-54"/>
      </g>
     </g>
    </g>
    <g id="xtick_3">
     <g id="line2d_5">
      <path clip-path="url(#paf524b0870)" d="M 335.623543 640.8 
L 335.623543 86.4 
" style="fill:none;stroke:#cccccc;stroke-linecap:round;stroke-width:0.8;"/>
     </g>
     <g id="line2d_6"/>
     <g id="text_3">
      <!-- 2017 -->
      <defs>
       <path d="M 8.203125 72.90625 
L 55.078125 72.90625 
L 55.078125 68.703125 
L 28.609375 0 
L 18.3125 0 
L 43.21875 64.59375 
L 8.203125 64.59375 
z
" id="DejaVuSans-55"/>
      </defs>
      <g style="fill:#262626;" transform="translate(322.898543 651.898438)scale(0.1 -0.1)">
       <use xlink:href="#DejaVuSans-50"/>
       <use x="63.623047" xlink:href="#DejaVuSans-48"/>
       <use x="127.246094" xlink:href="#DejaVuSans-49"/>
       <use x="190.869141" xlink:href="#DejaVuSans-55"/>
      </g>
     </g>
    </g>
    <g id="xtick_4">
     <g id="line2d_7">
      <path clip-path="url(#paf524b0870)" d="M 421.251637 640.8 
L 421.251637 86.4 
" style="fill:none;stroke:#cccccc;stroke-linecap:round;stroke-width:0.8;"/>
     </g>
     <g id="line2d_8"/>
     <g id="text_4">
      <!-- 2018 -->
      <defs>
       <path d="M 31.78125 34.625 
Q 24.75 34.625 20.71875 30.859375 
Q 16.703125 27.09375 16.703125 20.515625 
Q 16.703125 13.921875 20.71875 10.15625 
Q 24.75 6.390625 31.78125 6.390625 
Q 38.8125 6.390625 42.859375 10.171875 
Q 46.921875 13.96875 46.921875 20.515625 
Q 46.921875 27.09375 42.890625 30.859375 
Q 38.875 34.625 31.78125 34.625 
z
M 21.921875 38.8125 
Q 15.578125 40.375 12.03125 44.71875 
Q 8.5 49.078125 8.5 55.328125 
Q 8.5 64.0625 14.71875 69.140625 
Q 20.953125 74.21875 31.78125 74.21875 
Q 42.671875 74.21875 48.875 69.140625 
Q 55.078125 64.0625 55.078125 55.328125 
Q 55.078125 49.078125 51.53125 44.71875 
Q 48 40.375 41.703125 38.8125 
Q 48.828125 37.15625 52.796875 32.3125 
Q 56.78125 27.484375 56.78125 20.515625 
Q 56.78125 9.90625 50.3125 4.234375 
Q 43.84375 -1.421875 31.78125 -1.421875 
Q 19.734375 -1.421875 13.25 4.234375 
Q 6.78125 9.90625 6.78125 20.515625 
Q 6.78125 27.484375 10.78125 32.3125 
Q 14.796875 37.15625 21.921875 38.8125 
z
M 18.3125 54.390625 
Q 18.3125 48.734375 21.84375 45.5625 
Q 25.390625 42.390625 31.78125 42.390625 
Q 38.140625 42.390625 41.71875 45.5625 
Q 45.3125 48.734375 45.3125 54.390625 
Q 45.3125 60.0625 41.71875 63.234375 
Q 38.140625 66.40625 31.78125 66.40625 
Q 25.390625 66.40625 21.84375 63.234375 
Q 18.3125 60.0625 18.3125 54.390625 
z
" id="DejaVuSans-56"/>
      </defs>
      <g style="fill:#262626;" transform="translate(408.526637 651.898438)scale(0.1 -0.1)">
       <use xlink:href="#DejaVuSans-50"/>
       <use x="63.623047" xlink:href="#DejaVuSans-48"/>
       <use x="127.246094" xlink:href="#DejaVuSans-49"/>
       <use x="190.869141" xlink:href="#DejaVuSans-56"/>
      </g>
     </g>
    </g>
    <g id="xtick_5">
     <g id="line2d_9">
      <path clip-path="url(#paf524b0870)" d="M 506.879732 640.8 
L 506.879732 86.4 
" style="fill:none;stroke:#cccccc;stroke-linecap:round;stroke-width:0.8;"/>
     </g>
     <g id="line2d_10"/>
     <g id="text_5">
      <!-- 2019 -->
      <defs>
       <path d="M 10.984375 1.515625 
L 10.984375 10.5 
Q 14.703125 8.734375 18.5 7.8125 
Q 22.3125 6.890625 25.984375 6.890625 
Q 35.75 6.890625 40.890625 13.453125 
Q 46.046875 20.015625 46.78125 33.40625 
Q 43.953125 29.203125 39.59375 26.953125 
Q 35.25 24.703125 29.984375 24.703125 
Q 19.046875 24.703125 12.671875 31.3125 
Q 6.296875 37.9375 6.296875 49.421875 
Q 6.296875 60.640625 12.9375 67.421875 
Q 19.578125 74.21875 30.609375 74.21875 
Q 43.265625 74.21875 49.921875 64.515625 
Q 56.59375 54.828125 56.59375 36.375 
Q 56.59375 19.140625 48.40625 8.859375 
Q 40.234375 -1.421875 26.421875 -1.421875 
Q 22.703125 -1.421875 18.890625 -0.6875 
Q 15.09375 0.046875 10.984375 1.515625 
z
M 30.609375 32.421875 
Q 37.25 32.421875 41.125 36.953125 
Q 45.015625 41.5 45.015625 49.421875 
Q 45.015625 57.28125 41.125 61.84375 
Q 37.25 66.40625 30.609375 66.40625 
Q 23.96875 66.40625 20.09375 61.84375 
Q 16.21875 57.28125 16.21875 49.421875 
Q 16.21875 41.5 20.09375 36.953125 
Q 23.96875 32.421875 30.609375 32.421875 
z
" id="DejaVuSans-57"/>
      </defs>
      <g style="fill:#262626;" transform="translate(494.154732 651.898438)scale(0.1 -0.1)">
       <use xlink:href="#DejaVuSans-50"/>
       <use x="63.623047" xlink:href="#DejaVuSans-48"/>
       <use x="127.246094" xlink:href="#DejaVuSans-49"/>
       <use x="190.869141" xlink:href="#DejaVuSans-57"/>
      </g>
     </g>
    </g>
    <g id="xtick_6">
     <g id="line2d_11">
      <path clip-path="url(#paf524b0870)" d="M 592.507826 640.8 
L 592.507826 86.4 
" style="fill:none;stroke:#cccccc;stroke-linecap:round;stroke-width:0.8;"/>
     </g>
     <g id="line2d_12"/>
     <g id="text_6">
      <!-- 2020 -->
      <g style="fill:#262626;" transform="translate(579.782826 651.898438)scale(0.1 -0.1)">
       <use xlink:href="#DejaVuSans-50"/>
       <use x="63.623047" xlink:href="#DejaVuSans-48"/>
       <use x="127.246094" xlink:href="#DejaVuSans-50"/>
       <use x="190.869141" xlink:href="#DejaVuSans-48"/>
      </g>
     </g>
    </g>
   </g>
   <g id="matplotlib.axis_2">
    <g id="ytick_1">
     <g id="line2d_13">
      <path clip-path="url(#paf524b0870)" d="M 90 615.609184 
L 648 615.609184 
" style="fill:none;stroke:#cccccc;stroke-linecap:round;stroke-width:0.8;"/>
     </g>
     <g id="line2d_14"/>
     <g id="text_7">
      <!-- 0 -->
      <g style="fill:#262626;" transform="translate(80.1375 619.408403)scale(0.1 -0.1)">
       <use xlink:href="#DejaVuSans-48"/>
      </g>
     </g>
    </g>
    <g id="ytick_2">
     <g id="line2d_15">
      <path clip-path="url(#paf524b0870)" d="M 90 523.767429 
L 648 523.767429 
" style="fill:none;stroke:#cccccc;stroke-linecap:round;stroke-width:0.8;"/>
     </g>
     <g id="line2d_16"/>
     <g id="text_8">
      <!-- 10000 -->
      <g style="fill:#262626;" transform="translate(54.6875 527.566648)scale(0.1 -0.1)">
       <use xlink:href="#DejaVuSans-49"/>
       <use x="63.623047" xlink:href="#DejaVuSans-48"/>
       <use x="127.246094" xlink:href="#DejaVuSans-48"/>
       <use x="190.869141" xlink:href="#DejaVuSans-48"/>
       <use x="254.492188" xlink:href="#DejaVuSans-48"/>
      </g>
     </g>
    </g>
    <g id="ytick_3">
     <g id="line2d_17">
      <path clip-path="url(#paf524b0870)" d="M 90 431.925674 
L 648 431.925674 
" style="fill:none;stroke:#cccccc;stroke-linecap:round;stroke-width:0.8;"/>
     </g>
     <g id="line2d_18"/>
     <g id="text_9">
      <!-- 20000 -->
      <g style="fill:#262626;" transform="translate(54.6875 435.724893)scale(0.1 -0.1)">
       <use xlink:href="#DejaVuSans-50"/>
       <use x="63.623047" xlink:href="#DejaVuSans-48"/>
       <use x="127.246094" xlink:href="#DejaVuSans-48"/>
       <use x="190.869141" xlink:href="#DejaVuSans-48"/>
       <use x="254.492188" xlink:href="#DejaVuSans-48"/>
      </g>
     </g>
    </g>
    <g id="ytick_4">
     <g id="line2d_19">
      <path clip-path="url(#paf524b0870)" d="M 90 340.083919 
L 648 340.083919 
" style="fill:none;stroke:#cccccc;stroke-linecap:round;stroke-width:0.8;"/>
     </g>
     <g id="line2d_20"/>
     <g id="text_10">
      <!-- 30000 -->
      <defs>
       <path d="M 40.578125 39.3125 
Q 47.65625 37.796875 51.625 33 
Q 55.609375 28.21875 55.609375 21.1875 
Q 55.609375 10.40625 48.1875 4.484375 
Q 40.765625 -1.421875 27.09375 -1.421875 
Q 22.515625 -1.421875 17.65625 -0.515625 
Q 12.796875 0.390625 7.625 2.203125 
L 7.625 11.71875 
Q 11.71875 9.328125 16.59375 8.109375 
Q 21.484375 6.890625 26.8125 6.890625 
Q 36.078125 6.890625 40.9375 10.546875 
Q 45.796875 14.203125 45.796875 21.1875 
Q 45.796875 27.640625 41.28125 31.265625 
Q 36.765625 34.90625 28.71875 34.90625 
L 20.21875 34.90625 
L 20.21875 43.015625 
L 29.109375 43.015625 
Q 36.375 43.015625 40.234375 45.921875 
Q 44.09375 48.828125 44.09375 54.296875 
Q 44.09375 59.90625 40.109375 62.90625 
Q 36.140625 65.921875 28.71875 65.921875 
Q 24.65625 65.921875 20.015625 65.03125 
Q 15.375 64.15625 9.8125 62.3125 
L 9.8125 71.09375 
Q 15.4375 72.65625 20.34375 73.4375 
Q 25.25 74.21875 29.59375 74.21875 
Q 40.828125 74.21875 47.359375 69.109375 
Q 53.90625 64.015625 53.90625 55.328125 
Q 53.90625 49.265625 50.4375 45.09375 
Q 46.96875 40.921875 40.578125 39.3125 
z
" id="DejaVuSans-51"/>
      </defs>
      <g style="fill:#262626;" transform="translate(54.6875 343.883137)scale(0.1 -0.1)">
       <use xlink:href="#DejaVuSans-51"/>
       <use x="63.623047" xlink:href="#DejaVuSans-48"/>
       <use x="127.246094" xlink:href="#DejaVuSans-48"/>
       <use x="190.869141" xlink:href="#DejaVuSans-48"/>
       <use x="254.492188" xlink:href="#DejaVuSans-48"/>
      </g>
     </g>
    </g>
    <g id="ytick_5">
     <g id="line2d_21">
      <path clip-path="url(#paf524b0870)" d="M 90 248.242163 
L 648 248.242163 
" style="fill:none;stroke:#cccccc;stroke-linecap:round;stroke-width:0.8;"/>
     </g>
     <g id="line2d_22"/>
     <g id="text_11">
      <!-- 40000 -->
      <defs>
       <path d="M 37.796875 64.3125 
L 12.890625 25.390625 
L 37.796875 25.390625 
z
M 35.203125 72.90625 
L 47.609375 72.90625 
L 47.609375 25.390625 
L 58.015625 25.390625 
L 58.015625 17.1875 
L 47.609375 17.1875 
L 47.609375 0 
L 37.796875 0 
L 37.796875 17.1875 
L 4.890625 17.1875 
L 4.890625 26.703125 
z
" id="DejaVuSans-52"/>
      </defs>
      <g style="fill:#262626;" transform="translate(54.6875 252.041382)scale(0.1 -0.1)">
       <use xlink:href="#DejaVuSans-52"/>
       <use x="63.623047" xlink:href="#DejaVuSans-48"/>
       <use x="127.246094" xlink:href="#DejaVuSans-48"/>
       <use x="190.869141" xlink:href="#DejaVuSans-48"/>
       <use x="254.492188" xlink:href="#DejaVuSans-48"/>
      </g>
     </g>
    </g>
    <g id="ytick_6">
     <g id="line2d_23">
      <path clip-path="url(#paf524b0870)" d="M 90 156.400408 
L 648 156.400408 
" style="fill:none;stroke:#cccccc;stroke-linecap:round;stroke-width:0.8;"/>
     </g>
     <g id="line2d_24"/>
     <g id="text_12">
      <!-- 50000 -->
      <g style="fill:#262626;" transform="translate(54.6875 160.199627)scale(0.1 -0.1)">
       <use xlink:href="#DejaVuSans-53"/>
       <use x="63.623047" xlink:href="#DejaVuSans-48"/>
       <use x="127.246094" xlink:href="#DejaVuSans-48"/>
       <use x="190.869141" xlink:href="#DejaVuSans-48"/>
       <use x="254.492188" xlink:href="#DejaVuSans-48"/>
      </g>
     </g>
    </g>
   </g>
   <g id="line2d_25">
    <path clip-path="url(#paf524b0870)" d="M 115.363636 615.6 
L 116.50873 615.214265 
L 116.794651 614.975476 
L 117.497187 614.819345 
L 117.61151 614.773424 
L 117.961951 614.65403 
L 118.370126 614.516267 
L 118.44826 614.470346 
L 119.351987 614.268295 
L 119.37971 614.231558 
L 119.545514 614.112164 
L 120.525566 613.790717 
L 121.143386 613.671323 
L 121.252955 613.506008 
L 123.022724 613.248851 
L 123.350715 613.09272 
L 123.722126 612.945773 
L 123.735075 612.890668 
L 124.384392 612.725353 
L 125.914706 612.091645 
L 126.290936 611.972251 
L 126.372815 611.917146 
L 126.651315 611.797751 
L 126.794745 611.742646 
L 127.47488 611.595699 
L 127.935049 611.283438 
L 128.400278 611.053833 
L 128.478919 610.989544 
L 129.126414 610.87015 
L 129.23898 610.750755 
L 129.368666 610.631361 
L 129.420277 610.58544 
L 129.86296 610.456862 
L 130.341759 610.346652 
L 130.994831 610.218073 
L 131.962337 609.832338 
L 132.434578 609.712943 
L 132.729433 609.538444 
L 132.970604 609.409866 
L 133.217317 609.327208 
L 134.28088 609.143525 
L 134.398651 608.950657 
L 134.608852 608.822078 
L 134.965869 608.610842 
L 135.023747 608.546553 
L 135.974677 608.427159 
L 136.610884 608.18837 
L 136.735989 608.096529 
L 137.396259 607.940398 
L 137.819517 607.710793 
L 137.901341 607.628136 
L 138.266979 607.490373 
L 141.085527 606.783192 
L 141.18739 606.69135 
L 141.565592 606.553587 
L 141.61698 606.480114 
L 142.467174 606.342351 
L 142.541998 606.287246 
L 142.948916 606.158668 
L 143.286014 605.892326 
L 143.96109 605.754564 
L 144.197111 605.497407 
L 144.429511 605.378013 
L 144.487992 605.35046 
L 144.638458 605.231066 
L 144.702522 605.157592 
L 144.870538 605.038198 
L 144.890452 605.01983 
L 145.755873 604.863699 
L 145.833988 604.762673 
L 146.020775 604.643279 
L 146.524712 604.239175 
L 146.602691 604.174886 
L 147.221648 604.055491 
L 147.238925 604.018755 
L 147.454418 603.89936 
L 147.519063 603.825887 
L 147.905223 603.669756 
L 147.935349 603.623835 
L 148.878569 603.45852 
L 148.949299 603.375862 
L 149.284488 603.2381 
L 149.35184 603.118705 
L 149.63412 602.999311 
L 149.745212 602.95339 
L 149.863865 602.889101 
L 150.495706 602.73297 
L 150.539721 602.677865 
L 150.771755 602.558471 
L 150.828973 602.530918 
L 150.994365 602.411524 
L 151.034243 602.365603 
L 151.397031 602.22784 
L 151.480929 602.126815 
L 152.163689 601.989052 
L 152.227658 601.869658 
L 152.404904 601.741079 
L 152.47272 601.667606 
L 152.678653 601.539027 
L 153.053661 601.336975 
L 153.157715 601.17166 
L 153.75088 601.033898 
L 153.858398 600.905319 
L 154.063875 600.767557 
L 154.460206 600.638978 
L 154.729985 600.418558 
L 154.761371 600.391005 
L 155.40495 600.271611 
L 155.620231 600.143033 
L 156.134437 599.89506 
L 157.040784 599.775666 
L 157.152449 599.67464 
L 157.342397 599.555245 
L 157.523781 599.445035 
L 158.099704 599.16951 
L 158.745719 599.050116 
L 158.748217 599.031747 
L 158.964932 598.912353 
L 158.990396 598.857248 
L 159.211306 598.737854 
L 159.217005 598.719485 
L 159.413882 598.600091 
L 159.485155 598.508249 
L 159.682445 598.388855 
L 159.737198 598.352118 
L 160.349728 598.232724 
L 160.403479 598.104146 
L 160.604712 597.984751 
L 160.629746 597.911278 
L 160.910644 597.782699 
L 161.058834 597.663305 
L 161.142977 597.580648 
L 161.313014 597.461253 
L 161.337609 597.38778 
L 162.021317 597.268386 
L 162.063349 597.222465 
L 163.896495 596.983676 
L 163.915065 596.965308 
L 165.290439 596.836729 
L 165.360918 596.744888 
L 165.515343 596.625493 
L 165.612799 596.561204 
L 165.728436 596.44181 
L 165.836959 596.203021 
L 165.961328 596.083627 
L 166.243752 595.844838 
L 166.25795 595.808102 
L 166.926938 595.688707 
L 166.965536 595.550945 
L 167.195102 595.431551 
L 167.255125 595.413182 
L 167.393111 595.293788 
L 167.485316 595.082552 
L 167.629631 594.963158 
L 167.67471 594.797842 
L 167.864115 594.678448 
L 167.901838 594.632527 
L 168.801492 594.513133 
L 168.975917 594.301897 
L 169.276644 593.952898 
L 169.340857 593.851872 
L 169.513096 593.732478 
L 169.610533 593.640636 
L 170.295854 593.512058 
L 170.434076 593.392664 
L 170.895614 592.915086 
L 171.09219 592.722219 
L 171.182706 592.529351 
L 171.825036 592.400773 
L 171.903604 592.198721 
L 172.073231 592.079326 
L 172.240121 591.914011 
L 172.342288 591.767065 
L 172.404815 591.702775 
L 172.520683 591.583381 
L 172.768286 591.271119 
L 172.828478 591.105804 
L 173.502981 590.98641 
L 173.530679 590.949673 
L 173.712818 590.830279 
L 173.764571 590.747621 
L 173.956601 590.628227 
L 174.032626 590.472096 
L 174.164405 590.352701 
L 174.535123 589.97615 
L 175.332098 589.856756 
L 175.440564 589.526126 
L 175.613685 589.406731 
L 175.693812 589.287337 
L 175.819648 589.167943 
L 175.888982 588.956707 
L 176.024804 588.828128 
L 176.108032 588.506682 
L 176.742007 588.387288 
L 176.810524 588.120947 
L 177.130763 587.992368 
L 177.459873 587.817869 
L 177.573894 587.606633 
L 177.69876 587.487239 
L 177.748308 587.441318 
L 178.393318 587.294371 
L 178.496913 587.147424 
L 178.635736 587.02803 
L 178.682726 586.927004 
L 178.855636 586.80761 
L 179.207725 586.293296 
L 179.290616 586.173902 
L 179.369654 586.017771 
L 179.40495 585.935113 
L 180.034947 585.79735 
L 180.117173 585.622851 
L 180.253332 585.503457 
L 180.3699 585.218747 
L 180.491674 585.099353 
L 180.582735 584.787091 
L 180.724346 584.640144 
L 180.80131 584.382987 
L 180.96624 584.254409 
L 181.02708 584.01562 
L 181.655457 583.896226 
L 181.7287 583.583964 
L 181.880681 583.46457 
L 182.262611 582.996177 
L 182.373227 582.876783 
L 182.451989 582.73902 
L 182.628792 582.619626 
L 182.702888 582.390021 
L 183.339052 582.252259 
L 183.411796 582.142049 
L 183.522687 582.022654 
L 183.630646 581.68284 
L 183.773267 581.563446 
L 183.98201 581.214447 
L 184.069585 580.828711 
L 184.164871 580.681765 
L 184.258351 580.553186 
L 184.451471 580.360319 
L 184.934562 580.240924 
L 185.422322 579.469454 
L 185.475619 579.28577 
L 185.562877 579.092902 
L 185.651567 578.973508 
L 185.811748 578.633694 
L 185.928474 578.486747 
L 185.961443 578.404089 
L 186.599029 578.266327 
L 186.714669 578.064275 
L 186.844835 577.880591 
L 187.016415 577.696908 
L 187.094304 577.559145 
L 187.222882 577.421382 
L 187.29649 577.301988 
L 187.421706 577.10912 
L 187.56067 576.943805 
L 187.658584 576.815227 
L 188.229343 576.659096 
L 188.305294 576.411123 
L 188.460848 576.291729 
L 188.539061 576.05294 
L 188.703097 575.915178 
L 188.904878 575.685573 
L 188.978964 575.511074 
L 189.235384 575.061049 
L 189.880394 574.923287 
L 190.081181 574.473262 
L 190.928339 573.031346 
L 191.511637 572.911952 
L 191.768011 572.351717 
L 191.981641 572.103745 
L 192.081481 571.93843 
L 192.21846 571.791483 
L 192.395269 571.451668 
L 192.467307 571.32309 
L 192.526985 571.14859 
L 193.117177 571.020012 
L 193.223449 570.643461 
L 193.438551 570.340383 
L 193.543876 570.1567 
L 193.639249 570.028121 
L 193.911716 569.65157 
L 194.173425 569.376045 
L 194.322199 569.348492 
L 194.747652 569.229098 
L 194.860989 568.861731 
L 195.112008 568.411706 
L 195.274988 568.283128 
L 195.343348 568.035155 
L 195.501725 567.906577 
L 195.846307 567.245316 
L 196.420623 567.107553 
L 196.503419 566.685081 
L 196.575791 566.519766 
L 196.68732 566.400372 
L 196.734831 566.299346 
L 197.133772 566.170767 
L 197.27768 565.766664 
L 197.388671 565.647269 
L 197.434687 565.481954 
L 197.493561 565.426849 
L 198.314593 565.279902 
L 198.430105 564.976825 
L 198.554312 564.848246 
L 198.605456 564.710483 
L 198.705011 564.591089 
L 198.832255 564.425774 
L 198.936203 563.994118 
L 199.052763 563.810434 
L 199.12033 563.635935 
L 199.727647 563.488988 
L 199.813343 563.259384 
L 199.964587 563.130805 
L 200.044682 562.919569 
L 200.145203 562.763438 
L 200.214065 562.598123 
L 200.515968 562.083809 
L 200.672426 561.90931 
L 200.714479 561.707258 
L 201.380766 561.569495 
L 201.477321 561.394996 
L 201.606436 561.275602 
L 201.717248 561.027629 
L 201.862924 560.899051 
L 201.939918 560.696999 
L 202.077885 560.559236 
L 202.209387 560.210237 
L 202.346898 559.999001 
L 202.416322 559.815318 
L 203.010747 559.677555 
L 203.123052 559.457135 
L 203.291547 559.264267 
L 203.754176 558.529533 
L 203.844556 558.208087 
L 203.933155 558.070325 
L 203.994525 557.859089 
L 204.044456 557.767247 
L 204.66038 557.629484 
L 205.71791 556.527383 
L 206.301924 556.407989 
L 206.399671 556.1692 
L 206.566308 555.994701 
L 206.657223 555.801833 
L 206.780653 555.654886 
L 206.854953 555.425282 
L 207.950287 555.103836 
L 208.018918 554.837495 
L 208.176329 554.699732 
L 208.292283 554.442575 
L 208.435983 554.286444 
L 208.551343 553.882341 
L 208.706698 553.634368 
L 209.236853 553.101686 
L 209.577256 552.973107 
L 209.7003 552.60574 
L 209.832946 552.486346 
L 209.94615 552.128163 
L 210.092418 551.999585 
L 210.203745 551.861822 
L 210.346785 551.733243 
L 210.591068 551.136272 
L 210.815016 550.961773 
L 210.874939 550.7138 
L 211.212458 550.576037 
L 211.35985 550.080092 
L 211.752836 549.933145 
L 212.270927 548.527966 
L 212.878011 548.325914 
L 212.934428 548.151415 
L 213.326467 548.013652 
L 213.450817 547.609549 
L 213.916778 546.966656 
L 214.510614 546.847262 
L 214.700239 546.590105 
L 214.801379 546.452343 
L 214.908015 546.20437 
L 215.015447 546.084975 
L 215.708245 545.166558 
L 216.105347 545.047164 
L 216.225633 544.587955 
L 216.375699 544.42264 
L 217.202889 543.173592 
L 217.729618 543.054198 
L 218.014249 542.732751 
L 218.109926 542.558252 
L 218.267191 542.411305 
L 218.380004 542.144964 
L 218.564711 541.759229 
L 218.690235 541.584729 
L 218.785331 541.446967 
L 218.81342 541.345941 
L 219.435522 541.226547 
L 219.541387 541.015311 
L 219.708247 540.822443 
L 219.818125 540.675496 
L 219.972305 540.372418 
L 220.187092 540.24384 
L 220.290592 540.041788 
L 220.458584 539.858104 
L 220.604898 539.784631 
L 221.016247 539.665237 
L 221.282592 539.499922 
L 221.424317 539.196844 
L 221.534588 539.049897 
L 221.654374 538.820293 
L 221.8219 538.700898 
L 222.226643 538.076374 
L 222.781485 537.947796 
L 222.953651 537.819218 
L 223.092158 537.589613 
L 223.241413 537.396745 
L 223.361677 537.222246 
L 223.691341 536.854879 
L 223.783173 536.707932 
L 224.285836 536.579354 
L 224.414854 536.441591 
L 224.514938 536.276276 
L 224.666205 536.092593 
L 224.777405 535.936462 
L 225.229546 535.054781 
L 225.340491 534.926202 
L 225.441207 534.733335 
L 226.10359 534.292494 
L 226.28836 534.072074 
L 226.529596 533.943495 
L 226.639843 533.631233 
L 226.770295 533.364892 
L 226.86913 533.208761 
L 226.968415 533.034262 
L 227.054595 532.83221 
L 227.743844 532.694448 
L 228.166935 532.060739 
L 228.380589 531.77603 
L 228.555473 531.408663 
L 228.842619 531.013743 
L 229.287254 530.866797 
L 229.401425 530.288194 
L 229.61609 529.985116 
L 229.928746 529.498355 
L 230.319451 528.754436 
L 230.478309 528.607489 
L 230.516198 528.534016 
L 230.93613 528.414622 
L 230.984084 528.111544 
L 231.084233 527.982966 
L 231.177595 527.826835 
L 231.252128 527.615599 
L 231.379085 527.477836 
L 231.490926 527.349257 
L 231.564607 527.147206 
L 231.667412 526.880864 
L 231.773483 526.687997 
L 231.888615 526.495129 
L 232.054873 526.265525 
L 232.494409 526.109394 
L 233.949413 524.070507 
L 234.151927 523.941928 
L 234.304261 523.574561 
L 234.403281 523.427614 
L 234.519436 523.142905 
L 234.830536 522.47246 
L 234.99401 521.985699 
L 235.141782 521.783647 
L 235.396174 521.388728 
L 235.936622 521.177491 
L 236.095747 520.97544 
L 236.196751 520.86523 
L 236.390072 520.653993 
L 236.601978 520.350916 
L 237.038742 519.864154 
L 237.480347 519.689655 
L 237.601727 519.579445 
L 237.757553 519.386577 
L 237.822651 519.294735 
L 238.015743 519.147789 
L 238.172454 518.918184 
L 238.418957 518.605922 
L 238.495661 518.458976 
L 238.527733 518.431423 
L 239.131713 518.29366 
L 240.057542 517.035428 
L 240.153374 516.90685 
L 240.226306 516.860929 
L 240.743678 516.640509 
L 240.895718 516.374168 
L 240.98698 516.245589 
L 241.260045 515.859854 
L 242.019598 515.299619 
L 242.514721 515.042462 
L 242.690821 514.748569 
L 242.821185 514.610806 
L 243.520815 513.527073 
L 243.736708 513.361758 
L 243.865389 513.315837 
L 244.078927 513.187259 
L 244.178932 513.077049 
L 244.438722 512.856628 
L 244.540622 512.61784 
L 244.636147 512.406604 
L 244.734548 512.241289 
L 244.83571 512.030053 
L 244.971673 511.89229 
L 245.080574 511.699422 
L 245.171016 511.653501 
L 245.632199 511.524923 
L 245.742125 511.405529 
L 246.221948 510.597321 
L 246.335269 510.386085 
L 246.913435 509.596246 
L 247.184436 509.440115 
L 247.414333 509.238063 
L 247.594251 509.109485 
L 247.735251 508.94417 
L 248.203884 508.742118 
L 249.03055 508.622724 
L 249.621328 508.301277 
L 250.509342 508.163515 
L 250.934455 507.741043 
L 251.083485 507.658385 
L 251.363318 507.511438 
L 251.462267 507.437965 
L 252.297434 507.070598 
L 252.555364 506.785888 
L 252.762052 506.593021 
L 252.911806 506.427706 
L 253.027144 506.179733 
L 253.123869 506.115444 
L 253.46198 505.959313 
L 253.560153 505.858287 
L 253.945306 505.692972 
L 254.083604 505.637867 
L 254.23206 505.509288 
L 254.342576 505.463367 
L 254.509295 505.31642 
L 254.676753 504.792922 
L 254.803083 504.673528 
L 254.874765 504.535765 
L 254.982338 504.443924 
L 255.529298 504.278609 
L 255.808013 503.874505 
L 256.063048 503.553059 
L 256.142868 503.479585 
L 256.268964 503.360191 
L 256.312226 503.185692 
L 256.525838 502.772404 
L 256.746566 502.432589 
L 256.842036 502.239722 
L 257.207438 502.074406 
L 257.859104 501.064147 
L 257.975726 500.880464 
L 258.272375 500.25594 
L 258.544449 499.925309 
L 258.763615 499.796731 
L 259.009335 499.319154 
L 259.621759 498.262974 
L 259.829446 498.134395 
L 260.039191 497.904791 
L 260.275368 497.666002 
L 260.652001 497.326188 
L 261.45295 496.159797 
L 261.596277 495.884272 
L 261.955258 495.654668 
L 262.436077 494.855644 
L 262.546832 494.671961 
L 262.677612 494.267857 
L 263.00803 493.863753 
L 263.110748 493.579044 
L 263.14142 493.386176 
L 263.488738 493.009625 
L 263.778414 492.807573 
L 263.912083 492.596337 
L 264.47086 491.622815 
L 264.522702 491.485052 
L 264.74482 490.851344 
L 264.947356 490.410503 
L 265.123199 490.22682 
L 265.348453 490.089057 
L 265.73742 489.583928 
L 265.935213 489.464533 
L 266.2542 489.189008 
L 266.428397 488.830825 
L 266.568015 488.720615 
L 267.100399 488.564484 
L 267.220324 488.417537 
L 267.314918 488.279775 
L 267.629284 487.875671 
L 267.730948 487.728724 
L 268.103752 487.333805 
L 268.743383 487.1042 
L 269.317058 486.461308 
L 269.572677 486.286809 
L 269.674713 486.194967 
L 271.078774 485.506154 
L 271.121292 485.386759 
L 271.31663 485.258181 
L 271.551135 485.074498 
L 272.499118 484.679578 
L 272.624845 484.523447 
L 272.913017 484.3765 
L 273.024462 484.165264 
L 273.667466 484.027502 
L 273.689532 484.009133 
L 273.889964 483.889739 
L 274.376042 483.357057 
L 274.466303 483.182557 
L 274.690775 482.998874 
L 274.953682 482.778454 
L 275.437406 482.420271 
L 275.548194 482.273324 
L 276.257577 481.391643 
L 276.839433 481.198775 
L 276.965244 481.070197 
L 277.053359 480.610988 
L 277.183061 480.48241 
L 277.32316 480.353831 
L 278.193913 479.75686 
L 278.579913 479.628281 
L 279.063426 479.25173 
L 279.52176 478.59047 
L 279.609348 478.158813 
L 279.983485 478.039419 
L 280.372434 477.598579 
L 280.484802 477.460816 
L 280.702203 477.157738 
L 281.38476 476.340347 
L 281.735187 476.1934 
L 281.843173 476.074006 
L 281.986402 475.899506 
L 282.082253 475.725007 
L 282.374829 475.440297 
L 282.468755 475.394377 
L 282.673898 475.210693 
L 282.835656 474.898431 
L 282.945844 474.733116 
L 283.777201 473.897356 
L 283.984782 473.759593 
L 284.160985 473.529989 
L 284.234881 473.373858 
L 284.338136 473.254464 
L 284.426371 473.116701 
L 284.531837 472.831992 
L 286.564146 470.857394 
L 286.788543 470.728815 
L 287.012423 470.5635 
L 287.241998 470.352264 
L 287.424204 470.058371 
L 287.552902 469.920608 
L 287.658555 469.746109 
L 288.399457 469.139953 
L 288.538437 468.974638 
L 288.743707 468.745033 
L 288.90553 468.579718 
L 289.304131 468.102141 
L 289.408201 467.918458 
L 289.820689 467.587827 
L 289.966745 467.404144 
L 291.586393 465.034627 
L 291.91029 464.71318 
L 292.14915 464.318261 
L 292.976131 463.381475 
L 293.493172 463.252896 
L 293.843713 463.014108 
L 293.942361 462.812056 
L 294.041413 462.692662 
L 294.438374 462.178348 
L 294.986165 461.994664 
L 296.335006 460.359881 
L 296.542646 460.231303 
L 296.853276 459.615963 
L 296.963417 459.083281 
L 297.83703 457.650549 
L 298.270989 457.531155 
L 298.657855 457.099499 
L 298.808815 456.961736 
L 299.186623 456.557633 
L 299.57124 456.254555 
L 299.981191 456.098424 
L 300.087656 455.878004 
L 300.662955 454.766718 
L 300.768141 454.555482 
L 300.891014 454.335062 
L 301.081044 454.169747 
L 301.516051 454.0228 
L 302.175346 453.168672 
L 302.253627 453.021725 
L 302.822947 452.268623 
L 303.203247 452.094123 
L 303.579271 451.524704 
L 303.684913 451.359389 
L 303.793463 451.138969 
L 303.90313 450.85426 
L 304.083319 450.560366 
L 304.175713 450.229736 
L 304.278513 449.981763 
L 304.414916 449.798079 
L 304.96287 448.778636 
L 305.057214 448.585768 
L 305.194127 448.429637 
L 305.965087 447.180589 
L 306.487102 447.042827 
L 307.75026 445.545806 
L 308.281743 445.031492 
L 308.391485 444.884545 
L 308.578799 444.682494 
L 308.905088 444.122259 
L 309.312916 443.433446 
L 309.428724 443.277315 
L 309.658917 442.845658 
L 309.871016 442.432371 
L 310.370046 441.504769 
L 310.684529 440.834324 
L 310.929472 440.586351 
L 311.034682 440.476141 
L 311.428814 440.274089 
L 311.540148 440.081222 
L 312.167864 438.951568 
L 312.30036 438.721964 
L 312.494778 438.455623 
L 312.607124 438.437254 
L 313.022742 438.235202 
L 313.201394 437.794362 
L 313.301796 437.610678 
L 313.395141 437.454547 
L 313.502485 437.179022 
L 314.298461 436.242236 
L 314.722827 436.113658 
L 314.873998 435.957527 
L 314.958364 435.792212 
L 315.316084 435.259529 
L 315.542667 434.947268 
L 315.648371 434.726847 
L 316.511443 433.927824 
L 316.618972 433.863535 
L 316.9934 433.165537 
L 317.099001 433.000222 
L 317.224188 432.770618 
L 317.333987 432.550198 
L 317.746944 432.118541 
L 317.938046 431.999147 
L 318.155676 431.650149 
L 318.687832 430.722547 
L 318.797191 430.566416 
L 319.103621 430.290891 
L 319.528622 430.098023 
L 319.638153 429.923524 
L 320.075506 429.188789 
L 320.186953 428.950001 
L 320.358525 428.564266 
L 320.467249 428.39895 
L 321.108134 427.710137 
L 321.239536 427.581559 
L 321.328317 427.416244 
L 321.49642 427.23256 
L 321.713537 426.856009 
L 322.172295 425.983512 
L 322.241463 425.818197 
L 322.478401 425.662066 
L 323.446127 424.10994 
L 323.557525 423.907889 
L 323.964079 423.375206 
L 324.483428 423.22826 
L 324.786908 422.870077 
L 324.897058 422.732314 
L 325.379498 422.162895 
L 325.528899 422.006764 
L 325.630297 421.88737 
L 326.10413 421.740423 
L 326.196633 421.60266 
L 326.598037 421.152636 
L 326.689171 421.024057 
L 326.966363 420.932216 
L 327.839899 420.757716 
L 327.932432 420.500559 
L 328.033841 420.371981 
L 328.126885 420.225034 
L 328.248653 420.050535 
L 328.560285 419.260696 
L 328.667257 419.077012 
L 328.817302 418.672909 
L 328.942054 418.32391 
L 329.038657 418.195331 
L 329.116821 418.094305 
L 329.393956 417.965727 
L 329.673599 417.359571 
L 330.310165 415.642131 
L 330.399046 415.504368 
L 330.485494 415.228843 
L 330.981771 415.026791 
L 331.158064 414.65024 
L 331.387209 414.209399 
L 331.588309 413.878769 
L 331.821804 413.566507 
L 331.932176 413.336903 
L 332.30281 412.960351 
L 332.71763 412.831773 
L 332.830926 412.611353 
L 333.082 412.317459 
L 333.210659 412.124591 
L 333.416144 411.85825 
L 333.696499 411.536804 
L 334.574982 411.399041 
L 334.74433 411.206174 
L 334.874648 411.123516 
L 335.198365 410.91228 
L 335.995489 410.765333 
L 336.228048 410.636755 
L 336.32171 410.453071 
L 336.428194 410.25102 
L 336.544999 410.067336 
L 337.35262 409.470365 
L 337.704996 409.323418 
L 337.78826 409.222392 
L 337.929485 409.093813 
L 338.038396 408.570315 
L 338.274229 408.083554 
L 338.418906 407.936607 
L 338.530112 407.771292 
L 338.827456 407.385557 
L 339.312951 407.229426 
L 339.423488 407.045742 
L 339.521598 406.889611 
L 339.619261 406.687559 
L 339.823032 406.421218 
L 339.932674 406.274272 
L 340.146019 405.943641 
L 340.264784 405.805879 
L 340.337585 405.548722 
L 340.918124 405.337486 
L 341.026417 405.117065 
L 341.463403 404.318042 
L 341.551997 404.106806 
L 341.683816 403.978228 
L 342.329541 403.307783 
L 342.571032 403.17002 
L 342.954819 402.297524 
L 343.092645 402.11384 
L 343.669967 401.103581 
L 344.198197 400.855608 
L 344.324985 400.589267 
L 344.470583 400.423952 
L 344.562741 400.267821 
L 344.624562 400.139242 
L 344.729118 399.973927 
L 345.070077 399.533087 
L 345.221316 399.174904 
L 345.4074 398.99122 
L 345.886729 398.853458 
L 346.015356 398.577932 
L 346.119143 398.385065 
L 346.175593 398.238118 
L 346.253502 398.091171 
L 346.308507 397.971777 
L 346.419621 397.705436 
L 346.660241 397.255411 
L 346.760341 397.062544 
L 347.709644 396.217599 
L 347.812411 396.006363 
L 347.981068 395.859417 
L 348.07977 395.694101 
L 348.116928 395.547155 
L 348.220456 395.326734 
L 348.965721 394.399133 
L 349.08344 394.068502 
L 350.446867 391.772458 
L 350.828458 391.607143 
L 351.047103 391.368355 
L 352.063236 390.321359 
L 352.430802 390.19278 
L 352.669223 389.999913 
L 352.780089 389.696835 
L 353.386103 389.090679 
L 353.612935 388.888627 
L 354.147812 388.760049 
L 354.880087 388.107972 
L 354.974054 388.043683 
L 355.030974 387.924289 
L 355.141457 387.556922 
L 355.538394 387.079345 
L 355.765595 386.730346 
L 355.937791 386.583399 
L 356.215629 386.317058 
L 356.361614 386.142559 
L 356.463004 386.023165 
L 356.575445 385.885402 
L 356.710686 385.674166 
L 356.919334 385.591508 
L 357.370796 385.46293 
L 357.481787 385.306799 
L 357.691942 384.9578 
L 357.835975 384.801669 
L 357.964295 384.553696 
L 358.675959 383.754673 
L 358.990841 383.607726 
L 359.240079 383.240359 
L 359.848686 382.358678 
L 360.080976 382.092337 
L 360.691665 381.945391 
L 361.191122 381.274946 
L 361.552448 380.925947 
L 361.852521 380.632054 
L 362.220592 380.475923 
L 362.594408 379.658531 
L 362.867712 379.39219 
L 363.368632 378.510509 
L 363.947387 378.299273 
L 364.056597 378.060484 
L 364.205987 377.904353 
L 364.431464 377.573723 
L 365.013652 376.719595 
L 365.60591 376.563464 
L 365.65914 376.37978 
L 365.767405 376.26957 
L 366.165968 375.746072 
L 366.271839 375.54402 
L 366.448468 375.332784 
L 366.551672 375.057259 
L 366.836871 374.864391 
L 367.204581 374.735813 
L 367.310389 374.37763 
L 367.540351 373.991895 
L 367.630286 373.633712 
L 367.779831 373.468397 
L 367.852312 373.293897 
L 368.005425 373.165319 
L 368.107325 372.990819 
L 368.182467 372.843873 
L 368.296057 372.660189 
L 368.956253 372.118323 
L 369.080079 371.851982 
L 369.188184 371.705035 
L 369.293123 371.576456 
L 369.505605 371.291747 
L 369.614989 371.089695 
L 369.695914 370.915196 
L 369.801331 370.749881 
L 369.892525 370.465171 
L 369.910614 370.327409 
L 370.430408 370.180462 
L 370.764145 369.620227 
L 370.875095 369.344702 
L 371.044855 369.014071 
L 371.15239 368.848756 
L 371.708001 367.985444 
L 371.817338 367.80176 
L 372.121606 367.645629 
L 372.228405 367.452762 
L 372.341745 367.186421 
L 372.43603 367.067026 
L 372.596973 366.910895 
L 373.269079 366.084319 
L 373.742567 365.928188 
L 373.875929 365.790426 
L 373.977107 365.643479 
L 374.067522 365.514901 
L 374.162358 365.367954 
L 374.334404 365.156718 
L 374.408468 364.954666 
L 374.585193 364.826087 
L 374.665127 364.669956 
L 374.812049 364.52301 
L 374.854988 364.403615 
L 375.507256 364.219932 
L 375.940113 363.788276 
L 376.025404 363.595408 
L 376.184702 363.448461 
L 376.30656 363.18212 
L 376.411711 362.869858 
L 376.563371 362.594333 
L 376.631806 362.502491 
L 377.077642 362.364728 
L 377.132555 362.190229 
L 377.22682 361.896335 
L 377.35021 361.73102 
L 377.727925 361.06976 
L 377.834265 360.922813 
L 377.92045 360.849339 
L 378.080598 360.684024 
L 378.135606 360.426867 
L 378.727881 360.298289 
L 378.751281 360.243184 
L 379.110926 360.105421 
L 379.381343 359.72887 
L 379.698151 359.526818 
L 379.795267 359.389056 
L 379.901827 359.242109 
L 379.9697 359.122714 
L 380.646087 358.939031 
L 380.782998 358.56248 
L 380.89112 358.130823 
L 381.153407 357.827746 
L 381.250108 357.607325 
L 381.329478 357.460379 
L 381.404174 357.322616 
L 381.857194 357.120564 
L 382.008176 356.955249 
L 382.126186 356.661355 
L 382.232521 356.459304 
L 382.338793 356.27562 
L 382.447628 355.908253 
L 382.888546 355.017388 
L 383.074731 354.806152 
L 383.144961 354.732679 
L 383.693012 354.503074 
L 383.802217 354.236733 
L 383.927936 353.952024 
L 384.03597 353.814261 
L 384.244917 353.566288 
L 384.507324 353.382605 
L 384.733675 352.895843 
L 385.357707 352.657055 
L 385.460191 352.482556 
L 385.71272 352.087636 
L 385.82347 351.858032 
L 386.458246 350.838588 
L 386.844455 350.608984 
L 386.941596 350.406932 
L 387.079531 350.223248 
L 387.370339 349.883434 
L 387.519648 349.718119 
L 387.6204 349.268094 
L 387.783386 349.03849 
L 387.856535 348.946648 
L 387.944712 348.81807 
L 388.290222 348.514992 
L 388.560588 348.395597 
L 388.670129 348.211914 
L 389.09181 347.523101 
L 389.196439 347.247575 
L 389.358113 347.027155 
L 389.468613 346.797551 
L 389.559335 346.687341 
L 390.228905 346.512841 
L 390.296389 346.384263 
L 390.407153 346.237316 
L 390.546323 346.081185 
L 390.645052 345.768923 
L 390.813226 345.530135 
L 391.009536 345.098478 
L 391.068473 344.951532 
L 391.179359 344.556612 
L 391.312039 344.299455 
L 391.390885 344.161693 
L 391.516869 344.014746 
L 391.617372 343.987193 
L 392.027974 343.583089 
L 392.107811 343.390222 
L 392.215878 343.252459 
L 392.603686 342.609567 
L 392.661491 342.480988 
L 392.701003 342.297305 
L 392.81153 342.040148 
L 393.323841 341.12173 
L 393.427921 341.029889 
L 393.820093 340.543127 
L 393.931163 340.386996 
L 394.649156 339.560421 
L 395.218373 339.441026 
L 395.554228 338.89916 
L 395.647521 338.687924 
L 395.941164 338.540977 
L 396.003069 338.403214 
L 396.07463 338.274636 
L 396.351965 338.109321 
L 396.428725 338.090952 
L 397.025241 337.962374 
L 397.24071 337.604191 
L 397.298555 337.438876 
L 397.406304 337.273561 
L 397.567653 337.144982 
L 397.772217 337.053141 
L 397.856384 336.887826 
L 397.962439 336.520458 
L 398.01133 336.327591 
L 398.114167 335.987776 
L 398.431254 335.675514 
L 398.51525 335.436726 
L 398.719103 335.308147 
L 398.845281 335.161201 
L 399.261102 334.490756 
L 399.336789 334.463203 
L 399.401087 334.343809 
L 399.543235 334.16931 
L 400.050512 333.958074 
L 400.663034 333.113129 
L 400.856265 332.754947 
L 400.959525 332.653921 
L 401.120591 332.479421 
L 401.141195 332.4335 
L 401.609081 332.304922 
L 401.792694 331.965107 
L 402.184616 331.331399 
L 402.329059 331.04669 
L 402.482916 330.844638 
L 402.602718 330.624218 
L 402.723897 330.367061 
L 402.833539 330.293587 
L 403.347641 329.999694 
L 403.506378 329.779274 
L 403.761934 329.384354 
L 404.074687 328.805751 
L 404.209478 328.548594 
L 404.675971 328.135306 
L 404.913808 327.997544 
L 405.081564 327.712834 
L 405.20766 327.547519 
L 405.344351 327.253625 
L 405.455036 327.079126 
L 405.877298 326.179077 
L 405.990154 326.004578 
L 406.087887 325.802526 
L 406.69332 325.380054 
L 406.788587 325.159633 
L 406.9722 324.939213 
L 407.082461 324.783082 
L 407.275865 324.397347 
L 407.381649 324.149374 
L 407.490381 323.965691 
L 407.621077 323.589139 
L 407.833328 323.488113 
L 408.344473 323.102378 
L 408.445999 322.808484 
L 408.521407 322.633985 
L 408.623216 322.477854 
L 408.829925 322.220697 
L 408.940153 321.807409 
L 409.199321 321.274727 
L 409.363145 321.063491 
L 409.590455 320.852255 
L 409.836389 320.696124 
L 409.944687 320.475704 
L 410.07261 320.190994 
L 410.186778 319.998127 
L 411.641682 317.509215 
L 411.687268 317.380637 
L 411.845958 317.12348 
L 411.920095 316.857139 
L 412.280355 316.048931 
L 413.276023 315.589722 
L 413.356117 315.488697 
L 413.533521 315.34175 
L 413.636361 315.194803 
L 414.451481 314.542726 
L 414.857748 314.386595 
L 415.516141 313.918203 
L 416.578895 313.615125 
L 416.649994 313.550836 
L 416.875069 313.422257 
L 416.983421 313.367152 
L 417.082004 313.238574 
L 417.161354 313.008969 
L 417.263999 312.806917 
L 417.362 312.650786 
L 417.594817 312.274235 
L 417.695349 311.961973 
L 417.749882 311.805842 
L 417.853194 311.567054 
L 418.166789 311.190502 
L 418.26585 310.905793 
L 418.392092 310.712925 
L 418.503885 310.593531 
L 418.660055 310.400663 
L 418.767772 310.161875 
L 419.043242 309.904718 
L 419.164736 309.82206 
L 419.284022 309.757771 
L 419.955036 309.574088 
L 419.961346 309.564903 
L 420.365878 309.436325 
L 420.46209 309.353667 
L 420.853468 309.225089 
L 421.661527 309.105695 
L 422.139758 308.242382 
L 422.799156 307.810726 
L 423.002251 307.627042 
L 423.112379 307.434175 
L 423.571473 306.754546 
L 423.701683 306.598415 
L 423.950473 306.341258 
L 424.42735 305.909601 
L 424.696064 305.781023 
L 425.392529 304.963631 
L 425.586243 304.577896 
L 425.725684 304.385028 
L 425.810837 304.238082 
L 426.485346 303.92582 
L 426.779516 303.586005 
L 426.880683 303.42069 
L 427.400135 302.621667 
L 427.46166 302.520641 
L 428.021992 302.355326 
L 428.133412 302.015511 
L 428.264784 301.886933 
L 428.525098 301.611407 
L 428.671529 301.409355 
L 428.779522 301.271593 
L 429.384452 300.656253 
L 429.664663 300.47257 
L 429.773808 300.141939 
L 429.997333 299.74702 
L 430.107941 299.600073 
L 431.157312 298.369393 
L 431.33682 298.231631 
L 431.421191 298.066316 
L 431.52333 297.928553 
L 431.66098 297.662212 
L 431.973806 297.285661 
L 432.331149 296.707058 
L 432.973941 296.523374 
L 433.446413 296.018244 
L 433.603336 295.650877 
L 433.756587 295.28351 
L 433.86713 294.989617 
L 434.020776 294.603881 
L 434.19387 294.40183 
L 434.294502 294.22733 
L 434.467578 294.052831 
L 434.698795 293.67628 
L 434.858001 293.217071 
L 434.948321 293.051756 
L 435.391056 292.390495 
L 435.587501 292.215996 
L 435.663966 292.179259 
L 436.228061 292.059865 
L 436.50124 291.78434 
L 436.974084 291.619024 
L 437.158354 291.517998 
L 438.114448 291.104711 
L 438.223889 290.966948 
L 439.012047 290.342424 
L 439.514531 290.213846 
L 439.615774 290.030162 
L 439.722831 289.745453 
L 440.085273 288.77193 
L 440.177831 288.478036 
L 440.363258 288.321905 
L 440.922591 288.037196 
L 441.254365 287.504514 
L 441.356542 287.265725 
L 441.510907 287.017752 
L 441.807686 286.604465 
L 441.910502 286.365676 
L 442.058323 286.191177 
L 442.47009 285.86973 
L 442.730111 285.731968 
L 443.805132 284.335973 
L 443.857756 284.271684 
L 444.290749 284.133921 
L 444.724282 283.610423 
L 444.832533 283.390003 
L 444.951087 283.233872 
L 445.055781 283.123662 
L 445.316171 282.728742 
L 445.469911 282.407296 
L 445.962313 282.186876 
L 446.131794 281.874614 
L 446.266226 281.709299 
L 446.381787 281.553168 
L 446.4916 281.305195 
L 446.981916 280.359225 
L 447.150688 280.212278 
L 447.170572 280.19391 
L 447.610497 280.046963 
L 447.64734 279.881648 
L 447.758241 279.633675 
L 447.970039 279.303045 
L 448.075282 279.082625 
L 448.147831 278.85302 
L 448.235463 278.595863 
L 448.380655 278.448917 
L 449.197752 277.760104 
L 449.368172 277.622341 
L 449.46609 277.521315 
L 449.581243 277.374368 
L 449.705409 277.218237 
L 449.903997 277.043738 
L 450.012965 276.878423 
L 450.4306 276.52024 
L 450.875353 276.382477 
L 450.937825 276.217162 
L 451.028615 276.051847 
L 451.193485 275.886532 
L 451.273718 275.739585 
L 451.625609 275.188534 
L 451.709635 275.014035 
L 452.086158 274.490537 
L 452.424831 274.371143 
L 452.687149 274.022144 
L 452.912702 273.581304 
L 453.556735 272.67207 
L 453.656756 272.552676 
L 453.715965 272.424098 
L 454.375705 272.001625 
L 454.48311 271.863863 
L 454.617403 271.643443 
L 455.064092 270.936261 
L 455.280793 270.706657 
L 455.953542 270.357658 
L 456.052651 270.210711 
L 456.169326 270.063764 
L 456.352393 269.935186 
L 456.446859 269.659661 
L 456.551929 269.466793 
L 456.689057 269.319846 
L 457.197395 268.768796 
L 457.595926 268.585112 
L 457.723667 268.226929 
L 457.901758 267.914667 
L 457.999938 267.804457 
L 458.335733 267.492195 
L 458.409813 267.455459 
L 459.186429 267.225854 
L 459.496445 266.858487 
L 459.869143 266.693172 
L 461.150235 266.142121 
L 461.258397 265.692097 
L 461.313769 265.526782 
L 461.410427 265.32473 
L 461.547859 265.122678 
L 461.643523 264.764495 
L 461.731149 264.59918 
L 461.829889 264.351207 
L 462.780797 263.607289 
L 462.970194 263.396053 
L 463.19491 263.194001 
L 463.305035 263.028686 
L 463.525166 262.698056 
L 464.05509 262.505188 
L 464.143474 262.431715 
L 464.21006 262.303136 
L 464.312681 262.128637 
L 464.819026 261.58677 
L 464.910464 261.449008 
L 465.118124 261.311245 
L 465.308191 261.164298 
L 465.658081 260.934694 
L 467.025228 259.116227 
L 467.430009 258.96928 
L 467.805067 258.63865 
L 468.084748 258.372309 
L 468.917037 257.9131 
L 469.092773 257.766153 
L 469.387218 257.453891 
L 469.63746 257.261024 
L 470.058509 256.801815 
L 470.135711 256.719157 
L 470.70006 256.535474 
L 470.859638 256.315054 
L 470.976686 256.113002 
L 471.157134 255.938502 
L 471.37885 255.644609 
L 472.062376 255.07519 
L 472.330678 254.946612 
L 472.431278 254.74456 
L 472.577038 254.597613 
L 472.669788 254.432298 
L 472.827813 254.294535 
L 473.351693 253.596538 
L 473.449382 253.495512 
L 474.071565 253.339381 
L 474.326606 253.118961 
L 474.433932 252.806699 
L 474.677044 252.430147 
L 474.786933 252.310753 
L 474.880373 252.154622 
L 474.982626 251.925018 
L 475.283126 251.814808 
L 475.649307 251.695413 
L 475.799661 251.410704 
L 475.90649 251.190284 
L 476.120957 250.905574 
L 476.229968 250.694338 
L 476.451913 250.400445 
L 476.55532 250.271866 
L 476.654547 250.134104 
L 476.863238 250.088183 
L 477.139979 249.932052 
L 477.605462 249.234054 
L 477.797251 249.050371 
L 477.861591 248.986082 
L 477.981964 248.857503 
L 478.061803 248.756477 
L 478.232158 248.600346 
L 478.294258 248.407479 
L 478.383612 248.242163 
L 478.833944 248.030927 
L 479.659999 247.039036 
L 479.767704 246.965563 
L 480.074286 246.745143 
L 480.593689 246.543091 
L 480.73064 246.469618 
L 481.772229 245.835909 
L 482.194684 245.688963 
L 483.104947 244.981781 
L 483.263799 244.908308 
L 483.844814 244.724624 
L 484.018427 244.375625 
L 484.123895 244.017443 
L 484.182075 243.833759 
L 484.289145 243.695997 
L 484.369976 243.54905 
L 484.473904 243.291893 
L 484.500919 243.135762 
L 484.610218 242.878605 
L 484.691762 242.722474 
L 484.887385 242.49287 
L 485.146893 242.355107 
L 485.231426 242.300002 
L 485.472611 242.143871 
L 485.583597 241.960187 
L 485.684363 241.822425 
L 485.812655 241.65711 
L 485.914189 241.519347 
L 485.984536 241.381584 
L 486.08717 241.096875 
L 486.248127 240.848902 
L 486.350142 240.747876 
L 487.227034 240.261115 
L 488.05651 239.452907 
L 488.165929 239.19575 
L 488.755173 238.901857 
L 489.044337 238.543674 
L 489.234936 238.258965 
L 489.355116 238.075281 
L 489.59557 237.80894 
L 489.976525 237.41402 
L 490.4735 237.211969 
L 490.550979 237.009917 
L 490.661979 236.835417 
L 490.892313 236.57826 
L 491.107801 236.293551 
L 491.242575 236.192525 
L 491.351085 236.063947 
L 491.429547 235.962921 
L 491.987781 235.733316 
L 492.089364 235.549633 
L 492.182065 235.375133 
L 492.296176 235.209818 
L 493.348134 233.91485 
L 493.653331 233.786271 
L 493.747626 233.584219 
L 493.978311 233.382167 
L 494.082373 233.271957 
L 494.18105 233.134195 
L 494.286671 232.941327 
L 494.831032 232.307619 
L 495.248282 232.169856 
L 495.811006 231.582069 
L 495.946668 231.389201 
L 496.327976 230.709572 
L 496.425972 230.525889 
L 498.062768 229.919733 
L 498.666137 229.73605 
L 498.996137 229.469709 
L 499.194158 229.313578 
L 499.294806 229.056421 
L 499.42885 228.845185 
L 499.532345 228.652317 
L 500.40372 227.972688 
L 500.636517 227.715531 
L 500.840036 227.5594 
L 501.170919 227.274691 
L 501.443942 227.091007 
L 501.852147 226.971613 
L 502.47716 226.190958 
L 502.571936 226.154221 
L 502.915852 225.961354 
L 503.043311 225.88788 
L 503.578848 225.713381 
L 503.759458 225.575618 
L 503.883428 225.410303 
L 504.100105 225.143962 
L 504.653416 224.794963 
L 505.732293 224.482701 
L 505.817093 224.381675 
L 506.114738 224.197992 
L 506.222083 224.124518 
L 506.525504 223.950019 
L 507.021373 223.766336 
L 507.329109 223.527547 
L 507.626163 223.316311 
L 507.735783 223.077522 
L 507.859101 222.875471 
L 507.967703 222.76526 
L 508.789416 221.966237 
L 508.889022 221.856027 
L 509.141787 221.59887 
L 509.40966 221.332529 
L 509.477009 221.194766 
L 510.354996 220.625348 
L 510.520539 220.404927 
L 510.843442 220.074297 
L 511.007826 219.771219 
L 511.134061 219.615088 
L 511.215841 219.523247 
L 511.970176 219.192616 
L 512.330812 218.843618 
L 512.586054 218.494619 
L 512.739452 218.356856 
L 512.850861 218.200725 
L 512.951122 218.118068 
L 513.517887 217.787437 
L 513.626412 217.557833 
L 513.718657 217.364965 
L 513.815497 217.282308 
L 513.999167 217.071072 
L 514.219387 216.786362 
L 514.348259 216.575126 
L 514.411203 216.437364 
L 514.686011 216.308785 
L 514.987966 216.152654 
L 515.366572 215.574051 
L 515.480439 215.491393 
L 515.806222 215.179132 
L 515.898579 215.114842 
L 516.002033 214.958711 
L 516.08775 214.903606 
L 516.662666 214.600528 
L 516.934789 214.325003 
L 517.039497 214.113767 
L 517.271588 213.792321 
L 517.382256 213.654558 
L 517.579902 213.360665 
L 517.691251 213.103508 
L 517.994319 212.965745 
L 518.327877 212.827983 
L 518.470284 212.616747 
L 518.613486 212.460616 
L 518.722476 212.231011 
L 518.850728 212.056512 
L 519.096344 211.63404 
L 519.288217 211.386067 
L 519.425267 211.064621 
L 519.960165 210.862569 
L 520.031047 210.68807 
L 520.127134 210.40336 
L 520.233471 210.238045 
L 520.340439 209.898231 
L 520.507437 209.696179 
L 520.657504 209.530864 
L 521.311292 208.887971 
L 521.638903 208.759393 
L 521.818547 208.364473 
L 521.949723 208.162421 
L 522.060383 207.868528 
L 522.336858 207.262372 
L 522.428978 207.115425 
L 522.538482 206.968479 
L 522.915315 206.720506 
L 523.311108 206.536822 
L 524.030429 206.105166 
L 524.253316 205.958219 
L 525.19803 205.425537 
L 525.299806 205.214301 
L 525.377424 205.067354 
L 525.485857 204.773461 
L 525.689292 204.598961 
L 525.788626 204.433646 
L 526.838505 203.744833 
L 527.264622 203.27644 
L 527.46056 203.05602 
L 528.254241 202.358022 
L 528.412092 202.064129 
L 528.519377 201.953919 
L 528.676671 201.751867 
L 528.792669 201.439605 
L 529.129705 200.796713 
L 529.190682 200.668134 
L 529.581601 200.521187 
L 529.904352 200.144636 
L 530.011917 200.034426 
L 530.075597 199.896663 
L 530.153797 199.758901 
L 530.3382 199.630322 
L 530.649262 199.354797 
L 530.755732 199.134377 
L 530.819885 198.959878 
L 530.969772 198.803747 
L 531.33531 198.592511 
L 531.461344 198.381274 
L 531.56454 198.114933 
L 531.74058 197.839408 
L 531.838636 197.664909 
L 531.975484 197.508778 
L 532.162188 197.306726 
L 532.265125 197.196516 
L 532.485158 196.948543 
L 532.634264 196.884254 
L 533.130128 196.59036 
L 533.261353 196.415861 
L 533.410103 196.241362 
L 533.51471 196.030126 
L 533.649384 195.809705 
L 533.916192 195.359681 
L 534.105462 195.139261 
L 534.250475 194.992314 
L 535.004003 194.331053 
L 535.098811 194.14737 
L 535.241967 194.009607 
L 535.354053 193.688161 
L 535.597773 193.375899 
L 535.692193 193.284057 
L 535.762928 193.127926 
L 535.873015 193.036084 
L 536.354014 192.751375 
L 536.603917 192.163588 
L 536.724927 191.952352 
L 536.821954 191.787036 
L 536.939625 191.612537 
L 537.044094 191.493143 
L 537.115807 191.35538 
L 537.207647 191.171697 
L 537.335766 191.015566 
L 537.439673 190.74004 
L 538.173928 190.115517 
L 538.516096 189.729781 
L 538.678441 189.582834 
L 538.77967 189.426703 
L 538.873634 189.270572 
L 538.981213 189.050152 
L 539.053313 188.921574 
L 539.2183 188.756259 
L 539.63628 188.572575 
L 539.739527 188.471549 
L 539.905907 188.315418 
L 539.997555 188.205208 
L 540.136907 188.067445 
L 540.24521 187.90213 
L 540.480046 187.745999 
L 541.386768 187.498026 
L 541.505381 187.369448 
L 541.614382 187.250054 
L 541.722919 187.048002 
L 541.794452 186.809213 
L 541.892519 186.680635 
L 541.987648 186.478583 
L 542.15419 186.2949 
L 542.262276 186.074479 
L 542.366246 185.945901 
L 542.468684 185.670376 
L 543.186286 185.266272 
L 543.334504 185.137693 
L 543.869733 184.972378 
L 543.900845 184.944826 
L 545.002397 184.742774 
L 545.426839 184.494801 
L 545.538349 184.219276 
L 545.625308 183.989671 
L 545.743592 183.778435 
L 546.183715 183.493726 
L 546.971574 182.804913 
L 547.082408 182.630413 
L 547.248785 182.465098 
L 547.344905 182.391625 
L 547.831328 182.152836 
L 548.055602 181.868127 
L 548.181185 181.675259 
L 548.287278 181.555865 
L 548.645189 181.234419 
L 548.747152 181.078288 
L 548.84165 180.88542 
L 548.986952 180.609895 
L 549.404532 180.361922 
L 549.525451 180.196607 
L 549.621049 180.040476 
L 549.786185 179.875161 
L 549.867852 179.746582 
L 549.969589 179.60882 
L 550.123023 179.370031 
L 550.175421 179.241453 
L 550.228567 179.167979 
L 550.476152 179.030217 
L 550.695598 178.892454 
L 551.131425 178.745507 
L 552.238685 177.119908 
L 552.834582 176.789278 
L 553.416742 175.999439 
L 553.589339 175.861676 
L 553.679239 175.742282 
L 554.726589 175.218784 
L 554.82597 175.117758 
L 554.983278 174.961627 
L 555.086894 174.777943 
L 555.197285 174.630997 
L 555.308548 174.383024 
L 555.412415 174.217709 
L 555.633376 173.997288 
L 556.042046 173.859526 
L 556.173697 173.666658 
L 556.267862 173.547264 
L 556.376453 173.317659 
L 556.516066 173.078871 
L 556.627478 172.913556 
L 556.880262 172.408426 
L 557.041268 172.261479 
L 557.148094 172.142085 
L 557.304159 172.022691 
L 557.769156 171.802271 
L 557.866229 171.618587 
L 558.025391 171.434904 
L 558.121829 171.131826 
L 558.287527 170.911406 
L 558.390725 170.709354 
L 558.483274 170.507302 
L 558.589196 170.314434 
L 559.545301 169.588884 
L 559.643997 169.377648 
L 559.753552 169.203149 
L 560.039009 168.872519 
L 560.136663 168.762308 
L 560.198139 168.606177 
L 560.311951 168.422494 
L 560.528291 168.137784 
L 561.108179 167.825523 
L 561.213656 167.586734 
L 561.342155 167.320393 
L 561.448451 167.090788 
L 561.825116 166.548922 
L 562.138917 165.970319 
L 562.664112 165.713162 
L 562.770802 165.547847 
L 562.897249 165.373348 
L 563.793642 163.683459 
L 563.952639 163.628354 
L 564.310403 163.481408 
L 564.310405 163.472223 
L 564.581175 163.343645 
L 564.669741 163.279356 
L 565.019438 163.077304 
L 565.104936 162.976278 
L 565.307515 162.838515 
L 565.313695 162.820147 
L 565.800643 162.682384 
L 566.092296 162.544622 
L 566.208723 162.416043 
L 566.313936 162.223175 
L 566.405771 162.039492 
L 566.518079 161.488441 
L 567.032274 160.909838 
L 567.874314 160.468998 
L 567.936365 160.38634 
L 568.131676 160.248578 
L 568.966498 159.458739 
L 569.262468 159.265871 
L 569.367253 159.128108 
L 570.549095 157.76885 
L 570.840408 157.621904 
L 570.933902 157.502509 
L 571.144361 157.300457 
L 571.49452 157.006564 
L 571.812619 156.639197 
L 571.910808 156.49225 
L 572.477014 156.20754 
L 572.596482 156.042225 
L 572.708079 155.87691 
L 572.817615 155.674858 
L 573.013569 155.316675 
L 573.144074 155.188097 
L 573.20914 155.04115 
L 573.305311 154.793177 
L 573.432062 154.618678 
L 573.540308 154.343153 
L 573.761948 154.187022 
L 574.112968 154.012523 
L 574.249925 153.810471 
L 574.503418 153.571682 
L 574.606182 153.268604 
L 574.764293 153.002263 
L 574.859354 152.855316 
L 575.058616 152.653265 
L 575.2378 152.442029 
L 575.922988 151.973636 
L 576.022271 151.936899 
L 576.279739 151.716479 
L 576.383339 151.496058 
L 576.554522 151.248086 
L 576.664875 151.046034 
L 576.95554 150.825614 
L 577.465836 150.577641 
L 577.579309 150.338852 
L 578.622858 149.484724 
L 579.082324 149.301041 
L 579.178368 149.108173 
L 579.324562 148.952042 
L 579.991406 147.758099 
L 580.067965 147.5836 
L 580.179021 147.363179 
L 580.59906 147.096838 
L 580.903192 146.74784 
L 581.008994 146.536604 
L 581.15937 146.371289 
L 581.499884 145.214082 
L 581.607465 145.021215 
L 581.747281 144.846715 
L 581.881162 144.708953 
L 583.373197 144.231376 
L 583.447774 144.111981 
L 583.928294 143.95585 
L 584.069376 143.781351 
L 584.333358 143.496642 
L 585.007068 142.908854 
L 585.534796 142.771092 
L 585.688237 142.596592 
L 585.842482 142.366988 
L 585.937038 142.23841 
L 586.349558 141.788385 
L 586.456677 141.531228 
L 586.60295 141.375097 
L 586.698793 141.145493 
L 587.09482 141.035283 
L 587.294353 140.906704 
L 588.467797 139.749498 
L 588.614885 139.611735 
L 589.109419 139.235184 
L 589.21205 139.097422 
L 589.542501 138.877001 
L 589.649311 138.775975 
L 590.298627 138.353503 
L 590.671944 138.206556 
L 590.957121 137.931031 
L 591.059462 137.848374 
L 591.35437 137.66469 
L 591.453056 137.609585 
L 592.193998 137.297323 
L 592.582062 137.067719 
L 593.039853 136.948324 
L 593.151289 136.856483 
L 593.586921 136.617694 
L 593.760431 136.479931 
L 593.868571 136.397274 
L 594.005488 136.231959 
L 594.11652 136.039091 
L 594.329409 135.506409 
L 594.438364 135.001279 
L 594.760055 134.477781 
L 594.851133 134.330834 
L 594.958725 134.21144 
L 595.183564 134.147151 
L 595.537993 134.009388 
L 595.643798 133.926731 
L 595.805744 133.70631 
L 595.916944 133.513443 
L 596.033366 133.394049 
L 596.162392 133.228733 
L 596.316605 133.008313 
L 597.438744 132.264395 
L 597.541668 132.181737 
L 597.714233 131.970501 
L 597.805992 131.915396 
L 598.043959 131.70416 
L 598.188875 131.538845 
L 598.835851 131.281688 
L 598.937374 131.217399 
L 599.329464 130.996979 
L 599.439364 130.794927 
L 599.555253 130.657164 
L 599.66017 130.372455 
L 599.784157 130.188771 
L 599.893671 130.051009 
L 600.554104 129.729562 
L 601.055575 129.426485 
L 601.205484 129.288722 
L 601.294674 129.187696 
L 601.324512 129.068302 
L 601.416108 128.820329 
L 601.566566 128.664198 
L 602.650458 127.626386 
L 602.75853 127.562097 
L 602.83904 127.387598 
L 602.938991 127.222283 
L 603.563148 126.873284 
L 603.998609 126.652864 
L 604.08695 126.533469 
L 604.39481 126.322233 
L 604.654141 125.817104 
L 605.441123 125.229316 
L 605.55193 125.128291 
L 605.840482 124.806844 
L 606.009802 124.613977 
L 606.174862 124.402741 
L 606.28218 124.338451 
L 606.667634 124.1364 
L 607.031368 123.971084 
L 607.660255 123.217982 
L 607.796593 122.970009 
L 607.906881 122.804694 
L 608.469511 122.510801 
L 608.686522 122.382222 
L 608.79763 122.170986 
L 609.392533 121.904645 
L 610.051771 121.665856 
L 610.542747 121.528094 
L 610.657331 121.151543 
L 610.859196 121.004596 
L 610.957556 120.756623 
L 611.384901 120.435177 
L 612.244815 119.682074 
L 612.351834 119.553496 
L 612.626891 119.277971 
L 612.713578 119.112656 
L 612.919747 118.956525 
L 613.02915 118.846314 
L 613.098305 118.809578 
L 613.537292 118.671815 
L 613.623122 118.524868 
L 613.872786 118.332001 
L 614.414961 117.826871 
L 614.747631 117.431951 
L 615.208406 117.248268 
L 615.271595 117.110505 
L 615.687637 116.743138 
L 615.970644 116.366587 
L 616.130793 116.118614 
L 616.666071 115.815537 
L 616.760288 115.7788 
L 616.873068 115.641037 
L 617.024685 115.549195 
L 617.322342 115.411433 
L 617.428768 115.246118 
L 617.536901 115.108355 
L 617.647085 115.007329 
L 617.753306 114.933856 
L 618.409617 114.630778 
L 618.554972 114.465463 
L 618.663267 114.401174 
L 619.704764 113.49194 
L 620.243458 113.280704 
L 620.353466 113.198047 
L 620.540992 112.922521 
L 620.861082 112.729654 
L 620.969206 112.573523 
L 621.056181 112.454128 
L 621.912448 112.10513 
L 622.09699 111.958183 
L 622.489175 111.746947 
L 622.636364 111.6 
L 622.636364 111.6 
" style="fill:none;stroke:#92c6ff;stroke-linecap:round;stroke-width:1.5;"/>
   </g>
   <g id="line2d_26">
    <defs>
     <path d="M 0 2.5 
C 0.663008 2.5 1.29895 2.236584 1.767767 1.767767 
C 2.236584 1.29895 2.5 0.663008 2.5 0 
C 2.5 -0.663008 2.236584 -1.29895 1.767767 -1.767767 
C 1.29895 -2.236584 0.663008 -2.5 0 -2.5 
C -0.663008 -2.5 -1.29895 -2.236584 -1.767767 -1.767767 
C -2.236584 -1.29895 -2.5 -0.663008 -2.5 0 
C -2.5 0.663008 -2.236584 1.29895 -1.767767 1.767767 
C -1.29895 2.236584 -0.663008 2.5 0 2.5 
z
" id="m6d88a54549" style="stroke:#696969;"/>
    </defs>
    <g clip-path="url(#paf524b0870)">
     <use style="fill:#696969;stroke:#696969;" x="115.363636" xlink:href="#m6d88a54549" y="615.6"/>
    </g>
   </g>
   <g id="line2d_27">
    <g clip-path="url(#paf524b0870)">
     <use style="fill:#696969;stroke:#696969;" x="198.347021" xlink:href="#m6d88a54549" y="565.197245"/>
    </g>
   </g>
   <g id="line2d_28">
    <g clip-path="url(#paf524b0870)">
     <use style="fill:#696969;stroke:#696969;" x="242.63714" xlink:href="#m6d88a54549" y="514.794489"/>
    </g>
   </g>
   <g id="line2d_29">
    <g clip-path="url(#paf524b0870)">
     <use style="fill:#696969;stroke:#696969;" x="292.089762" xlink:href="#m6d88a54549" y="464.391734"/>
    </g>
   </g>
   <g id="line2d_30">
    <g clip-path="url(#paf524b0870)">
     <use style="fill:#696969;stroke:#696969;" x="331.516422" xlink:href="#m6d88a54549" y="413.988979"/>
    </g>
   </g>
   <g id="line2d_31">
    <g clip-path="url(#paf524b0870)">
     <use style="fill:#696969;stroke:#696969;" x="376.065677" xlink:href="#m6d88a54549" y="363.586224"/>
    </g>
   </g>
   <g id="line2d_32">
    <g clip-path="url(#paf524b0870)">
     <use style="fill:#696969;stroke:#696969;" x="417.091768" xlink:href="#m6d88a54549" y="313.183468"/>
    </g>
   </g>
   <g id="line2d_33">
    <g clip-path="url(#paf524b0870)">
     <use style="fill:#696969;stroke:#696969;" x="463.493903" xlink:href="#m6d88a54549" y="262.780713"/>
    </g>
   </g>
   <g id="line2d_34">
    <g clip-path="url(#paf524b0870)">
     <use style="fill:#696969;stroke:#696969;" x="518.653878" xlink:href="#m6d88a54549" y="212.377958"/>
    </g>
   </g>
   <g id="line2d_35">
    <g clip-path="url(#paf524b0870)">
     <use style="fill:#696969;stroke:#696969;" x="566.406673" xlink:href="#m6d88a54549" y="161.984387"/>
    </g>
   </g>
   <g id="line2d_36">
    <g clip-path="url(#paf524b0870)">
     <use style="fill:#696969;stroke:#696969;" x="622.636364" xlink:href="#m6d88a54549" y="111.6"/>
    </g>
   </g>
   <g id="patch_3">
    <path d="M 90 640.8 
L 90 86.4 
" style="fill:none;stroke:#cccccc;stroke-linecap:square;stroke-linejoin:miter;"/>
   </g>
   <g id="patch_4">
    <path d="M 648 640.8 
L 648 86.4 
" style="fill:none;stroke:#cccccc;stroke-linecap:square;stroke-linejoin:miter;"/>
   </g>
   <g id="patch_5">
    <path d="M 90 640.8 
L 648 640.8 
" style="fill:none;stroke:#cccccc;stroke-linecap:square;stroke-linejoin:miter;"/>
   </g>
   <g id="patch_6">
    <path d="M 90 86.4 
L 648 86.4 
" style="fill:none;stroke:#cccccc;stroke-linecap:square;stroke-linejoin:miter;"/>
   </g>
   <g id="text_13">
    <!-- 1 (2014-06-07) -->
    <defs>
     <path id="DejaVuSans-32"/>
     <path d="M 31 75.875 
Q 24.46875 64.65625 21.28125 53.65625 
Q 18.109375 42.671875 18.109375 31.390625 
Q 18.109375 20.125 21.3125 9.0625 
Q 24.515625 -2 31 -13.1875 
L 23.1875 -13.1875 
Q 15.875 -1.703125 12.234375 9.375 
Q 8.59375 20.453125 8.59375 31.390625 
Q 8.59375 42.28125 12.203125 53.3125 
Q 15.828125 64.359375 23.1875 75.875 
z
" id="DejaVuSans-40"/>
     <path d="M 4.890625 31.390625 
L 31.203125 31.390625 
L 31.203125 23.390625 
L 4.890625 23.390625 
z
" id="DejaVuSans-45"/>
     <path d="M 8.015625 75.875 
L 15.828125 75.875 
Q 23.140625 64.359375 26.78125 53.3125 
Q 30.421875 42.28125 30.421875 31.390625 
Q 30.421875 20.453125 26.78125 9.375 
Q 23.140625 -1.703125 15.828125 -13.1875 
L 8.015625 -13.1875 
Q 14.5 -2 17.703125 9.0625 
Q 20.90625 20.125 20.90625 31.390625 
Q 20.90625 42.671875 17.703125 53.65625 
Q 14.5 64.65625 8.015625 75.875 
z
" id="DejaVuSans-41"/>
    </defs>
    <g style="fill:#262626;" transform="translate(120.363636 623.198437)scale(0.1 -0.1)">
     <use xlink:href="#DejaVuSans-49"/>
     <use x="63.623047" xlink:href="#DejaVuSans-32"/>
     <use x="95.410156" xlink:href="#DejaVuSans-40"/>
     <use x="134.423828" xlink:href="#DejaVuSans-50"/>
     <use x="198.046875" xlink:href="#DejaVuSans-48"/>
     <use x="261.669922" xlink:href="#DejaVuSans-49"/>
     <use x="325.292969" xlink:href="#DejaVuSans-52"/>
     <use x="388.916016" xlink:href="#DejaVuSans-45"/>
     <use x="425" xlink:href="#DejaVuSans-48"/>
     <use x="488.623047" xlink:href="#DejaVuSans-54"/>
     <use x="552.246094" xlink:href="#DejaVuSans-45"/>
     <use x="588.330078" xlink:href="#DejaVuSans-48"/>
     <use x="651.953125" xlink:href="#DejaVuSans-55"/>
     <use x="715.576172" xlink:href="#DejaVuSans-41"/>
    </g>
   </g>
   <g id="text_14">
    <!-- 5489 (2015-05-26) -->
    <g style="fill:#262626;" transform="translate(203.347021 572.795682)scale(0.1 -0.1)">
     <use xlink:href="#DejaVuSans-53"/>
     <use x="63.623047" xlink:href="#DejaVuSans-52"/>
     <use x="127.246094" xlink:href="#DejaVuSans-56"/>
     <use x="190.869141" xlink:href="#DejaVuSans-57"/>
     <use x="254.492188" xlink:href="#DejaVuSans-32"/>
     <use x="286.279297" xlink:href="#DejaVuSans-40"/>
     <use x="325.292969" xlink:href="#DejaVuSans-50"/>
     <use x="388.916016" xlink:href="#DejaVuSans-48"/>
     <use x="452.539062" xlink:href="#DejaVuSans-49"/>
     <use x="516.162109" xlink:href="#DejaVuSans-53"/>
     <use x="579.785156" xlink:href="#DejaVuSans-45"/>
     <use x="615.869141" xlink:href="#DejaVuSans-48"/>
     <use x="679.492188" xlink:href="#DejaVuSans-53"/>
     <use x="743.115234" xlink:href="#DejaVuSans-45"/>
     <use x="779.199219" xlink:href="#DejaVuSans-50"/>
     <use x="842.822266" xlink:href="#DejaVuSans-54"/>
     <use x="906.445312" xlink:href="#DejaVuSans-41"/>
    </g>
   </g>
   <g id="text_15">
    <!-- 10977 (2015-12-01) -->
    <g style="fill:#262626;" transform="translate(247.63714 522.392927)scale(0.1 -0.1)">
     <use xlink:href="#DejaVuSans-49"/>
     <use x="63.623047" xlink:href="#DejaVuSans-48"/>
     <use x="127.246094" xlink:href="#DejaVuSans-57"/>
     <use x="190.869141" xlink:href="#DejaVuSans-55"/>
     <use x="254.492188" xlink:href="#DejaVuSans-55"/>
     <use x="318.115234" xlink:href="#DejaVuSans-32"/>
     <use x="349.902344" xlink:href="#DejaVuSans-40"/>
     <use x="388.916016" xlink:href="#DejaVuSans-50"/>
     <use x="452.539062" xlink:href="#DejaVuSans-48"/>
     <use x="516.162109" xlink:href="#DejaVuSans-49"/>
     <use x="579.785156" xlink:href="#DejaVuSans-53"/>
     <use x="643.408203" xlink:href="#DejaVuSans-45"/>
     <use x="679.492188" xlink:href="#DejaVuSans-49"/>
     <use x="743.115234" xlink:href="#DejaVuSans-50"/>
     <use x="806.738281" xlink:href="#DejaVuSans-45"/>
     <use x="842.822266" xlink:href="#DejaVuSans-48"/>
     <use x="906.445312" xlink:href="#DejaVuSans-49"/>
     <use x="970.068359" xlink:href="#DejaVuSans-41"/>
    </g>
   </g>
   <g id="text_16">
    <!-- 16465 (2016-06-29) -->
    <g style="fill:#262626;" transform="translate(297.089762 471.990172)scale(0.1 -0.1)">
     <use xlink:href="#DejaVuSans-49"/>
     <use x="63.623047" xlink:href="#DejaVuSans-54"/>
     <use x="127.246094" xlink:href="#DejaVuSans-52"/>
     <use x="190.869141" xlink:href="#DejaVuSans-54"/>
     <use x="254.492188" xlink:href="#DejaVuSans-53"/>
     <use x="318.115234" xlink:href="#DejaVuSans-32"/>
     <use x="349.902344" xlink:href="#DejaVuSans-40"/>
     <use x="388.916016" xlink:href="#DejaVuSans-50"/>
     <use x="452.539062" xlink:href="#DejaVuSans-48"/>
     <use x="516.162109" xlink:href="#DejaVuSans-49"/>
     <use x="579.785156" xlink:href="#DejaVuSans-54"/>
     <use x="643.408203" xlink:href="#DejaVuSans-45"/>
     <use x="679.492188" xlink:href="#DejaVuSans-48"/>
     <use x="743.115234" xlink:href="#DejaVuSans-54"/>
     <use x="806.738281" xlink:href="#DejaVuSans-45"/>
     <use x="842.822266" xlink:href="#DejaVuSans-50"/>
     <use x="906.445312" xlink:href="#DejaVuSans-57"/>
     <use x="970.068359" xlink:href="#DejaVuSans-41"/>
    </g>
   </g>
   <g id="text_17">
    <!-- 21953 (2016-12-14) -->
    <g style="fill:#262626;" transform="translate(336.516422 421.587416)scale(0.1 -0.1)">
     <use xlink:href="#DejaVuSans-50"/>
     <use x="63.623047" xlink:href="#DejaVuSans-49"/>
     <use x="127.246094" xlink:href="#DejaVuSans-57"/>
     <use x="190.869141" xlink:href="#DejaVuSans-53"/>
     <use x="254.492188" xlink:href="#DejaVuSans-51"/>
     <use x="318.115234" xlink:href="#DejaVuSans-32"/>
     <use x="349.902344" xlink:href="#DejaVuSans-40"/>
     <use x="388.916016" xlink:href="#DejaVuSans-50"/>
     <use x="452.539062" xlink:href="#DejaVuSans-48"/>
     <use x="516.162109" xlink:href="#DejaVuSans-49"/>
     <use x="579.785156" xlink:href="#DejaVuSans-54"/>
     <use x="643.408203" xlink:href="#DejaVuSans-45"/>
     <use x="679.492188" xlink:href="#DejaVuSans-49"/>
     <use x="743.115234" xlink:href="#DejaVuSans-50"/>
     <use x="806.738281" xlink:href="#DejaVuSans-45"/>
     <use x="842.822266" xlink:href="#DejaVuSans-49"/>
     <use x="906.445312" xlink:href="#DejaVuSans-52"/>
     <use x="970.068359" xlink:href="#DejaVuSans-41"/>
    </g>
   </g>
   <g id="text_18">
    <!-- 27441 (2017-06-22) -->
    <g style="fill:#262626;" transform="translate(381.065677 371.184661)scale(0.1 -0.1)">
     <use xlink:href="#DejaVuSans-50"/>
     <use x="63.623047" xlink:href="#DejaVuSans-55"/>
     <use x="127.246094" xlink:href="#DejaVuSans-52"/>
     <use x="190.869141" xlink:href="#DejaVuSans-52"/>
     <use x="254.492188" xlink:href="#DejaVuSans-49"/>
     <use x="318.115234" xlink:href="#DejaVuSans-32"/>
     <use x="349.902344" xlink:href="#DejaVuSans-40"/>
     <use x="388.916016" xlink:href="#DejaVuSans-50"/>
     <use x="452.539062" xlink:href="#DejaVuSans-48"/>
     <use x="516.162109" xlink:href="#DejaVuSans-49"/>
     <use x="579.785156" xlink:href="#DejaVuSans-55"/>
     <use x="643.408203" xlink:href="#DejaVuSans-45"/>
     <use x="679.492188" xlink:href="#DejaVuSans-48"/>
     <use x="743.115234" xlink:href="#DejaVuSans-54"/>
     <use x="806.738281" xlink:href="#DejaVuSans-45"/>
     <use x="842.822266" xlink:href="#DejaVuSans-50"/>
     <use x="906.445312" xlink:href="#DejaVuSans-50"/>
     <use x="970.068359" xlink:href="#DejaVuSans-41"/>
    </g>
   </g>
   <g id="text_19">
    <!-- 32929 (2017-12-14) -->
    <g style="fill:#262626;" transform="translate(422.091768 320.781906)scale(0.1 -0.1)">
     <use xlink:href="#DejaVuSans-51"/>
     <use x="63.623047" xlink:href="#DejaVuSans-50"/>
     <use x="127.246094" xlink:href="#DejaVuSans-57"/>
     <use x="190.869141" xlink:href="#DejaVuSans-50"/>
     <use x="254.492188" xlink:href="#DejaVuSans-57"/>
     <use x="318.115234" xlink:href="#DejaVuSans-32"/>
     <use x="349.902344" xlink:href="#DejaVuSans-40"/>
     <use x="388.916016" xlink:href="#DejaVuSans-50"/>
     <use x="452.539062" xlink:href="#DejaVuSans-48"/>
     <use x="516.162109" xlink:href="#DejaVuSans-49"/>
     <use x="579.785156" xlink:href="#DejaVuSans-55"/>
     <use x="643.408203" xlink:href="#DejaVuSans-45"/>
     <use x="679.492188" xlink:href="#DejaVuSans-49"/>
     <use x="743.115234" xlink:href="#DejaVuSans-50"/>
     <use x="806.738281" xlink:href="#DejaVuSans-45"/>
     <use x="842.822266" xlink:href="#DejaVuSans-49"/>
     <use x="906.445312" xlink:href="#DejaVuSans-52"/>
     <use x="970.068359" xlink:href="#DejaVuSans-41"/>
    </g>
   </g>
   <g id="text_20">
    <!-- 38417 (2018-06-30) -->
    <g style="fill:#262626;" transform="translate(468.493903 270.379151)scale(0.1 -0.1)">
     <use xlink:href="#DejaVuSans-51"/>
     <use x="63.623047" xlink:href="#DejaVuSans-56"/>
     <use x="127.246094" xlink:href="#DejaVuSans-52"/>
     <use x="190.869141" xlink:href="#DejaVuSans-49"/>
     <use x="254.492188" xlink:href="#DejaVuSans-55"/>
     <use x="318.115234" xlink:href="#DejaVuSans-32"/>
     <use x="349.902344" xlink:href="#DejaVuSans-40"/>
     <use x="388.916016" xlink:href="#DejaVuSans-50"/>
     <use x="452.539062" xlink:href="#DejaVuSans-48"/>
     <use x="516.162109" xlink:href="#DejaVuSans-49"/>
     <use x="579.785156" xlink:href="#DejaVuSans-56"/>
     <use x="643.408203" xlink:href="#DejaVuSans-45"/>
     <use x="679.492188" xlink:href="#DejaVuSans-48"/>
     <use x="743.115234" xlink:href="#DejaVuSans-54"/>
     <use x="806.738281" xlink:href="#DejaVuSans-45"/>
     <use x="842.822266" xlink:href="#DejaVuSans-51"/>
     <use x="906.445312" xlink:href="#DejaVuSans-48"/>
     <use x="970.068359" xlink:href="#DejaVuSans-41"/>
    </g>
   </g>
   <g id="text_21">
    <!-- 43905 (2019-02-20) -->
    <g style="fill:#262626;" transform="translate(523.653878 219.976395)scale(0.1 -0.1)">
     <use xlink:href="#DejaVuSans-52"/>
     <use x="63.623047" xlink:href="#DejaVuSans-51"/>
     <use x="127.246094" xlink:href="#DejaVuSans-57"/>
     <use x="190.869141" xlink:href="#DejaVuSans-48"/>
     <use x="254.492188" xlink:href="#DejaVuSans-53"/>
     <use x="318.115234" xlink:href="#DejaVuSans-32"/>
     <use x="349.902344" xlink:href="#DejaVuSans-40"/>
     <use x="388.916016" xlink:href="#DejaVuSans-50"/>
     <use x="452.539062" xlink:href="#DejaVuSans-48"/>
     <use x="516.162109" xlink:href="#DejaVuSans-49"/>
     <use x="579.785156" xlink:href="#DejaVuSans-57"/>
     <use x="643.408203" xlink:href="#DejaVuSans-45"/>
     <use x="679.492188" xlink:href="#DejaVuSans-48"/>
     <use x="743.115234" xlink:href="#DejaVuSans-50"/>
     <use x="806.738281" xlink:href="#DejaVuSans-45"/>
     <use x="842.822266" xlink:href="#DejaVuSans-50"/>
     <use x="906.445312" xlink:href="#DejaVuSans-48"/>
     <use x="970.068359" xlink:href="#DejaVuSans-41"/>
    </g>
   </g>
   <g id="text_22">
    <!-- 49392 (2019-09-11) -->
    <g style="fill:#262626;" transform="translate(571.406673 169.582824)scale(0.1 -0.1)">
     <use xlink:href="#DejaVuSans-52"/>
     <use x="63.623047" xlink:href="#DejaVuSans-57"/>
     <use x="127.246094" xlink:href="#DejaVuSans-51"/>
     <use x="190.869141" xlink:href="#DejaVuSans-57"/>
     <use x="254.492188" xlink:href="#DejaVuSans-50"/>
     <use x="318.115234" xlink:href="#DejaVuSans-32"/>
     <use x="349.902344" xlink:href="#DejaVuSans-40"/>
     <use x="388.916016" xlink:href="#DejaVuSans-50"/>
     <use x="452.539062" xlink:href="#DejaVuSans-48"/>
     <use x="516.162109" xlink:href="#DejaVuSans-49"/>
     <use x="579.785156" xlink:href="#DejaVuSans-57"/>
     <use x="643.408203" xlink:href="#DejaVuSans-45"/>
     <use x="679.492188" xlink:href="#DejaVuSans-48"/>
     <use x="743.115234" xlink:href="#DejaVuSans-57"/>
     <use x="806.738281" xlink:href="#DejaVuSans-45"/>
     <use x="842.822266" xlink:href="#DejaVuSans-49"/>
     <use x="906.445312" xlink:href="#DejaVuSans-49"/>
     <use x="970.068359" xlink:href="#DejaVuSans-41"/>
    </g>
   </g>
   <g id="text_23">
    <!-- 54878 (2020-05-08) -->
    <g style="fill:#262626;" transform="translate(627.636364 119.198437)scale(0.1 -0.1)">
     <use xlink:href="#DejaVuSans-53"/>
     <use x="63.623047" xlink:href="#DejaVuSans-52"/>
     <use x="127.246094" xlink:href="#DejaVuSans-56"/>
     <use x="190.869141" xlink:href="#DejaVuSans-55"/>
     <use x="254.492188" xlink:href="#DejaVuSans-56"/>
     <use x="318.115234" xlink:href="#DejaVuSans-32"/>
     <use x="349.902344" xlink:href="#DejaVuSans-40"/>
     <use x="388.916016" xlink:href="#DejaVuSans-50"/>
     <use x="452.539062" xlink:href="#DejaVuSans-48"/>
     <use x="516.162109" xlink:href="#DejaVuSans-50"/>
     <use x="579.785156" xlink:href="#DejaVuSans-48"/>
     <use x="643.408203" xlink:href="#DejaVuSans-45"/>
     <use x="679.492188" xlink:href="#DejaVuSans-48"/>
     <use x="743.115234" xlink:href="#DejaVuSans-53"/>
     <use x="806.738281" xlink:href="#DejaVuSans-45"/>
     <use x="842.822266" xlink:href="#DejaVuSans-48"/>
     <use x="906.445312" xlink:href="#DejaVuSans-56"/>
     <use x="970.068359" xlink:href="#DejaVuSans-41"/>
    </g>
   </g>
   <g id="text_24">
    <!-- Closed PRs over time -->
    <defs>
     <path d="M 64.40625 67.28125 
L 64.40625 56.890625 
Q 59.421875 61.53125 53.78125 63.8125 
Q 48.140625 66.109375 41.796875 66.109375 
Q 29.296875 66.109375 22.65625 58.46875 
Q 16.015625 50.828125 16.015625 36.375 
Q 16.015625 21.96875 22.65625 14.328125 
Q 29.296875 6.6875 41.796875 6.6875 
Q 48.140625 6.6875 53.78125 8.984375 
Q 59.421875 11.28125 64.40625 15.921875 
L 64.40625 5.609375 
Q 59.234375 2.09375 53.4375 0.328125 
Q 47.65625 -1.421875 41.21875 -1.421875 
Q 24.65625 -1.421875 15.125 8.703125 
Q 5.609375 18.84375 5.609375 36.375 
Q 5.609375 53.953125 15.125 64.078125 
Q 24.65625 74.21875 41.21875 74.21875 
Q 47.75 74.21875 53.53125 72.484375 
Q 59.328125 70.75 64.40625 67.28125 
z
" id="DejaVuSans-67"/>
     <path d="M 9.421875 75.984375 
L 18.40625 75.984375 
L 18.40625 0 
L 9.421875 0 
z
" id="DejaVuSans-108"/>
     <path d="M 30.609375 48.390625 
Q 23.390625 48.390625 19.1875 42.75 
Q 14.984375 37.109375 14.984375 27.296875 
Q 14.984375 17.484375 19.15625 11.84375 
Q 23.34375 6.203125 30.609375 6.203125 
Q 37.796875 6.203125 41.984375 11.859375 
Q 46.1875 17.53125 46.1875 27.296875 
Q 46.1875 37.015625 41.984375 42.703125 
Q 37.796875 48.390625 30.609375 48.390625 
z
M 30.609375 56 
Q 42.328125 56 49.015625 48.375 
Q 55.71875 40.765625 55.71875 27.296875 
Q 55.71875 13.875 49.015625 6.21875 
Q 42.328125 -1.421875 30.609375 -1.421875 
Q 18.84375 -1.421875 12.171875 6.21875 
Q 5.515625 13.875 5.515625 27.296875 
Q 5.515625 40.765625 12.171875 48.375 
Q 18.84375 56 30.609375 56 
z
" id="DejaVuSans-111"/>
     <path d="M 44.28125 53.078125 
L 44.28125 44.578125 
Q 40.484375 46.53125 36.375 47.5 
Q 32.28125 48.484375 27.875 48.484375 
Q 21.1875 48.484375 17.84375 46.4375 
Q 14.5 44.390625 14.5 40.28125 
Q 14.5 37.15625 16.890625 35.375 
Q 19.28125 33.59375 26.515625 31.984375 
L 29.59375 31.296875 
Q 39.15625 29.25 43.1875 25.515625 
Q 47.21875 21.78125 47.21875 15.09375 
Q 47.21875 7.46875 41.1875 3.015625 
Q 35.15625 -1.421875 24.609375 -1.421875 
Q 20.21875 -1.421875 15.453125 -0.5625 
Q 10.6875 0.296875 5.421875 2 
L 5.421875 11.28125 
Q 10.40625 8.6875 15.234375 7.390625 
Q 20.0625 6.109375 24.8125 6.109375 
Q 31.15625 6.109375 34.5625 8.28125 
Q 37.984375 10.453125 37.984375 14.40625 
Q 37.984375 18.0625 35.515625 20.015625 
Q 33.0625 21.96875 24.703125 23.78125 
L 21.578125 24.515625 
Q 13.234375 26.265625 9.515625 29.90625 
Q 5.8125 33.546875 5.8125 39.890625 
Q 5.8125 47.609375 11.28125 51.796875 
Q 16.75 56 26.8125 56 
Q 31.78125 56 36.171875 55.265625 
Q 40.578125 54.546875 44.28125 53.078125 
z
" id="DejaVuSans-115"/>
     <path d="M 56.203125 29.59375 
L 56.203125 25.203125 
L 14.890625 25.203125 
Q 15.484375 15.921875 20.484375 11.0625 
Q 25.484375 6.203125 34.421875 6.203125 
Q 39.59375 6.203125 44.453125 7.46875 
Q 49.3125 8.734375 54.109375 11.28125 
L 54.109375 2.78125 
Q 49.265625 0.734375 44.1875 -0.34375 
Q 39.109375 -1.421875 33.890625 -1.421875 
Q 20.796875 -1.421875 13.15625 6.1875 
Q 5.515625 13.8125 5.515625 26.8125 
Q 5.515625 40.234375 12.765625 48.109375 
Q 20.015625 56 32.328125 56 
Q 43.359375 56 49.78125 48.890625 
Q 56.203125 41.796875 56.203125 29.59375 
z
M 47.21875 32.234375 
Q 47.125 39.59375 43.09375 43.984375 
Q 39.0625 48.390625 32.421875 48.390625 
Q 24.90625 48.390625 20.390625 44.140625 
Q 15.875 39.890625 15.1875 32.171875 
z
" id="DejaVuSans-101"/>
     <path d="M 45.40625 46.390625 
L 45.40625 75.984375 
L 54.390625 75.984375 
L 54.390625 0 
L 45.40625 0 
L 45.40625 8.203125 
Q 42.578125 3.328125 38.25 0.953125 
Q 33.9375 -1.421875 27.875 -1.421875 
Q 17.96875 -1.421875 11.734375 6.484375 
Q 5.515625 14.40625 5.515625 27.296875 
Q 5.515625 40.1875 11.734375 48.09375 
Q 17.96875 56 27.875 56 
Q 33.9375 56 38.25 53.625 
Q 42.578125 51.265625 45.40625 46.390625 
z
M 14.796875 27.296875 
Q 14.796875 17.390625 18.875 11.75 
Q 22.953125 6.109375 30.078125 6.109375 
Q 37.203125 6.109375 41.296875 11.75 
Q 45.40625 17.390625 45.40625 27.296875 
Q 45.40625 37.203125 41.296875 42.84375 
Q 37.203125 48.484375 30.078125 48.484375 
Q 22.953125 48.484375 18.875 42.84375 
Q 14.796875 37.203125 14.796875 27.296875 
z
" id="DejaVuSans-100"/>
     <path d="M 19.671875 64.796875 
L 19.671875 37.40625 
L 32.078125 37.40625 
Q 38.96875 37.40625 42.71875 40.96875 
Q 46.484375 44.53125 46.484375 51.125 
Q 46.484375 57.671875 42.71875 61.234375 
Q 38.96875 64.796875 32.078125 64.796875 
z
M 9.8125 72.90625 
L 32.078125 72.90625 
Q 44.34375 72.90625 50.609375 67.359375 
Q 56.890625 61.8125 56.890625 51.125 
Q 56.890625 40.328125 50.609375 34.8125 
Q 44.34375 29.296875 32.078125 29.296875 
L 19.671875 29.296875 
L 19.671875 0 
L 9.8125 0 
z
" id="DejaVuSans-80"/>
     <path d="M 44.390625 34.1875 
Q 47.5625 33.109375 50.5625 29.59375 
Q 53.5625 26.078125 56.59375 19.921875 
L 66.609375 0 
L 56 0 
L 46.6875 18.703125 
Q 43.0625 26.03125 39.671875 28.421875 
Q 36.28125 30.8125 30.421875 30.8125 
L 19.671875 30.8125 
L 19.671875 0 
L 9.8125 0 
L 9.8125 72.90625 
L 32.078125 72.90625 
Q 44.578125 72.90625 50.734375 67.671875 
Q 56.890625 62.453125 56.890625 51.90625 
Q 56.890625 45.015625 53.6875 40.46875 
Q 50.484375 35.9375 44.390625 34.1875 
z
M 19.671875 64.796875 
L 19.671875 38.921875 
L 32.078125 38.921875 
Q 39.203125 38.921875 42.84375 42.21875 
Q 46.484375 45.515625 46.484375 51.90625 
Q 46.484375 58.296875 42.84375 61.546875 
Q 39.203125 64.796875 32.078125 64.796875 
z
" id="DejaVuSans-82"/>
     <path d="M 2.984375 54.6875 
L 12.5 54.6875 
L 29.59375 8.796875 
L 46.6875 54.6875 
L 56.203125 54.6875 
L 35.6875 0 
L 23.484375 0 
z
" id="DejaVuSans-118"/>
     <path d="M 41.109375 46.296875 
Q 39.59375 47.171875 37.8125 47.578125 
Q 36.03125 48 33.890625 48 
Q 26.265625 48 22.1875 43.046875 
Q 18.109375 38.09375 18.109375 28.8125 
L 18.109375 0 
L 9.078125 0 
L 9.078125 54.6875 
L 18.109375 54.6875 
L 18.109375 46.1875 
Q 20.953125 51.171875 25.484375 53.578125 
Q 30.03125 56 36.53125 56 
Q 37.453125 56 38.578125 55.875 
Q 39.703125 55.765625 41.0625 55.515625 
z
" id="DejaVuSans-114"/>
     <path d="M 18.3125 70.21875 
L 18.3125 54.6875 
L 36.8125 54.6875 
L 36.8125 47.703125 
L 18.3125 47.703125 
L 18.3125 18.015625 
Q 18.3125 11.328125 20.140625 9.421875 
Q 21.96875 7.515625 27.59375 7.515625 
L 36.8125 7.515625 
L 36.8125 0 
L 27.59375 0 
Q 17.1875 0 13.234375 3.875 
Q 9.28125 7.765625 9.28125 18.015625 
L 9.28125 47.703125 
L 2.6875 47.703125 
L 2.6875 54.6875 
L 9.28125 54.6875 
L 9.28125 70.21875 
z
" id="DejaVuSans-116"/>
     <path d="M 9.421875 54.6875 
L 18.40625 54.6875 
L 18.40625 0 
L 9.421875 0 
z
M 9.421875 75.984375 
L 18.40625 75.984375 
L 18.40625 64.59375 
L 9.421875 64.59375 
z
" id="DejaVuSans-105"/>
     <path d="M 52 44.1875 
Q 55.375 50.25 60.0625 53.125 
Q 64.75 56 71.09375 56 
Q 79.640625 56 84.28125 50.015625 
Q 88.921875 44.046875 88.921875 33.015625 
L 88.921875 0 
L 79.890625 0 
L 79.890625 32.71875 
Q 79.890625 40.578125 77.09375 44.375 
Q 74.3125 48.1875 68.609375 48.1875 
Q 61.625 48.1875 57.5625 43.546875 
Q 53.515625 38.921875 53.515625 30.90625 
L 53.515625 0 
L 44.484375 0 
L 44.484375 32.71875 
Q 44.484375 40.625 41.703125 44.40625 
Q 38.921875 48.1875 33.109375 48.1875 
Q 26.21875 48.1875 22.15625 43.53125 
Q 18.109375 38.875 18.109375 30.90625 
L 18.109375 0 
L 9.078125 0 
L 9.078125 54.6875 
L 18.109375 54.6875 
L 18.109375 46.1875 
Q 21.1875 51.21875 25.484375 53.609375 
Q 29.78125 56 35.6875 56 
Q 41.65625 56 45.828125 52.96875 
Q 50 49.953125 52 44.1875 
z
" id="DejaVuSans-109"/>
    </defs>
    <g style="fill:#262626;" transform="translate(305.27625 80.4)scale(0.12 -0.12)">
     <use xlink:href="#DejaVuSans-67"/>
     <use x="69.824219" xlink:href="#DejaVuSans-108"/>
     <use x="97.607422" xlink:href="#DejaVuSans-111"/>
     <use x="158.789062" xlink:href="#DejaVuSans-115"/>
     <use x="210.888672" xlink:href="#DejaVuSans-101"/>
     <use x="272.412109" xlink:href="#DejaVuSans-100"/>
     <use x="335.888672" xlink:href="#DejaVuSans-32"/>
     <use x="367.675781" xlink:href="#DejaVuSans-80"/>
     <use x="427.978516" xlink:href="#DejaVuSans-82"/>
     <use x="497.460938" xlink:href="#DejaVuSans-115"/>
     <use x="549.560547" xlink:href="#DejaVuSans-32"/>
     <use x="581.347656" xlink:href="#DejaVuSans-111"/>
     <use x="642.529297" xlink:href="#DejaVuSans-118"/>
     <use x="701.708984" xlink:href="#DejaVuSans-101"/>
     <use x="763.232422" xlink:href="#DejaVuSans-114"/>
     <use x="804.345703" xlink:href="#DejaVuSans-32"/>
     <use x="836.132812" xlink:href="#DejaVuSans-116"/>
     <use x="875.341797" xlink:href="#DejaVuSans-105"/>
     <use x="903.125" xlink:href="#DejaVuSans-109"/>
     <use x="1000.537109" xlink:href="#DejaVuSans-101"/>
    </g>
   </g>
  </g>
 </g>
 <defs>
  <clipPath id="paf524b0870">
   <rect height="554.4" width="558" x="90" y="86.4"/>
  </clipPath>
 </defs>
</svg>
