<?xml version="1.0" encoding="utf-8" standalone="no"?>
<!DOCTYPE svg PUBLIC "-//W3C//DTD SVG 1.1//EN"
  "http://www.w3.org/Graphics/SVG/1.1/DTD/svg11.dtd">
<!-- Created with matplotlib (https://matplotlib.org/) -->
<svg height="720pt" version="1.1" viewBox="0 0 720 720" width="720pt" xmlns="http://www.w3.org/2000/svg" xmlns:xlink="http://www.w3.org/1999/xlink">
 <defs>
  <style type="text/css">
*{stroke-linecap:butt;stroke-linejoin:round;}
  </style>
 </defs>
 <g id="figure_1">
  <g id="patch_1">
   <path d="M 0 720 
L 720 720 
L 720 0 
L 0 0 
z
" style="fill:#ffffff;"/>
  </g>
  <g id="axes_1">
   <g id="patch_2">
    <path d="M 90 640.8 
L 648 640.8 
L 648 86.4 
L 90 86.4 
z
" style="fill:#ffffff;"/>
   </g>
   <g id="matplotlib.axis_1">
    <g id="xtick_1">
     <g id="line2d_1">
      <path clip-path="url(#p6e18e365db)" d="M 164.205325 640.8 
L 164.205325 86.4 
" style="fill:none;stroke:#cccccc;stroke-linecap:round;stroke-width:0.8;"/>
     </g>
     <g id="line2d_2"/>
     <g id="text_1">
      <!-- 2015 -->
      <defs>
       <path d="M 19.1875 8.296875 
L 53.609375 8.296875 
L 53.609375 0 
L 7.328125 0 
L 7.328125 8.296875 
Q 12.9375 14.109375 22.625 23.890625 
Q 32.328125 33.6875 34.8125 36.53125 
Q 39.546875 41.84375 41.421875 45.53125 
Q 43.3125 49.21875 43.3125 52.78125 
Q 43.3125 58.59375 39.234375 62.25 
Q 35.15625 65.921875 28.609375 65.921875 
Q 23.96875 65.921875 18.8125 64.3125 
Q 13.671875 62.703125 7.8125 59.421875 
L 7.8125 69.390625 
Q 13.765625 71.78125 18.9375 73 
Q 24.125 74.21875 28.421875 74.21875 
Q 39.75 74.21875 46.484375 68.546875 
Q 53.21875 62.890625 53.21875 53.421875 
Q 53.21875 48.921875 51.53125 44.890625 
Q 49.859375 40.875 45.40625 35.40625 
Q 44.1875 33.984375 37.640625 27.21875 
Q 31.109375 20.453125 19.1875 8.296875 
z
" id="DejaVuSans-50"/>
       <path d="M 31.78125 66.40625 
Q 24.171875 66.40625 20.328125 58.90625 
Q 16.5 51.421875 16.5 36.375 
Q 16.5 21.390625 20.328125 13.890625 
Q 24.171875 6.390625 31.78125 6.390625 
Q 39.453125 6.390625 43.28125 13.890625 
Q 47.125 21.390625 47.125 36.375 
Q 47.125 51.421875 43.28125 58.90625 
Q 39.453125 66.40625 31.78125 66.40625 
z
M 31.78125 74.21875 
Q 44.046875 74.21875 50.515625 64.515625 
Q 56.984375 54.828125 56.984375 36.375 
Q 56.984375 17.96875 50.515625 8.265625 
Q 44.046875 -1.421875 31.78125 -1.421875 
Q 19.53125 -1.421875 13.0625 8.265625 
Q 6.59375 17.96875 6.59375 36.375 
Q 6.59375 54.828125 13.0625 64.515625 
Q 19.53125 74.21875 31.78125 74.21875 
z
" id="DejaVuSans-48"/>
       <path d="M 12.40625 8.296875 
L 28.515625 8.296875 
L 28.515625 63.921875 
L 10.984375 60.40625 
L 10.984375 69.390625 
L 28.421875 72.90625 
L 38.28125 72.90625 
L 38.28125 8.296875 
L 54.390625 8.296875 
L 54.390625 0 
L 12.40625 0 
z
" id="DejaVuSans-49"/>
       <path d="M 10.796875 72.90625 
L 49.515625 72.90625 
L 49.515625 64.59375 
L 19.828125 64.59375 
L 19.828125 46.734375 
Q 21.96875 47.46875 24.109375 47.828125 
Q 26.265625 48.1875 28.421875 48.1875 
Q 40.625 48.1875 47.75 41.5 
Q 54.890625 34.8125 54.890625 23.390625 
Q 54.890625 11.625 47.5625 5.09375 
Q 40.234375 -1.421875 26.90625 -1.421875 
Q 22.3125 -1.421875 17.546875 -0.640625 
Q 12.796875 0.140625 7.71875 1.703125 
L 7.71875 11.625 
Q 12.109375 9.234375 16.796875 8.0625 
Q 21.484375 6.890625 26.703125 6.890625 
Q 35.15625 6.890625 40.078125 11.328125 
Q 45.015625 15.765625 45.015625 23.390625 
Q 45.015625 31 40.078125 35.4375 
Q 35.15625 39.890625 26.703125 39.890625 
Q 22.75 39.890625 18.8125 39.015625 
Q 14.890625 38.140625 10.796875 36.28125 
z
" id="DejaVuSans-53"/>
      </defs>
      <g style="fill:#262626;" transform="translate(151.480325 651.898438)scale(0.1 -0.1)">
       <use xlink:href="#DejaVuSans-50"/>
       <use x="63.623047" xlink:href="#DejaVuSans-48"/>
       <use x="127.246094" xlink:href="#DejaVuSans-49"/>
       <use x="190.869141" xlink:href="#DejaVuSans-53"/>
      </g>
     </g>
    </g>
    <g id="xtick_2">
     <g id="line2d_3">
      <path clip-path="url(#p6e18e365db)" d="M 249.960838 640.8 
L 249.960838 86.4 
" style="fill:none;stroke:#cccccc;stroke-linecap:round;stroke-width:0.8;"/>
     </g>
     <g id="line2d_4"/>
     <g id="text_2">
      <!-- 2016 -->
      <defs>
       <path d="M 33.015625 40.375 
Q 26.375 40.375 22.484375 35.828125 
Q 18.609375 31.296875 18.609375 23.390625 
Q 18.609375 15.53125 22.484375 10.953125 
Q 26.375 6.390625 33.015625 6.390625 
Q 39.65625 6.390625 43.53125 10.953125 
Q 47.40625 15.53125 47.40625 23.390625 
Q 47.40625 31.296875 43.53125 35.828125 
Q 39.65625 40.375 33.015625 40.375 
z
M 52.59375 71.296875 
L 52.59375 62.3125 
Q 48.875 64.0625 45.09375 64.984375 
Q 41.3125 65.921875 37.59375 65.921875 
Q 27.828125 65.921875 22.671875 59.328125 
Q 17.53125 52.734375 16.796875 39.40625 
Q 19.671875 43.65625 24.015625 45.921875 
Q 28.375 48.1875 33.59375 48.1875 
Q 44.578125 48.1875 50.953125 41.515625 
Q 57.328125 34.859375 57.328125 23.390625 
Q 57.328125 12.15625 50.6875 5.359375 
Q 44.046875 -1.421875 33.015625 -1.421875 
Q 20.359375 -1.421875 13.671875 8.265625 
Q 6.984375 17.96875 6.984375 36.375 
Q 6.984375 53.65625 15.1875 63.9375 
Q 23.390625 74.21875 37.203125 74.21875 
Q 40.921875 74.21875 44.703125 73.484375 
Q 48.484375 72.75 52.59375 71.296875 
z
" id="DejaVuSans-54"/>
      </defs>
      <g style="fill:#262626;" transform="translate(237.235838 651.898438)scale(0.1 -0.1)">
       <use xlink:href="#DejaVuSans-50"/>
       <use x="63.623047" xlink:href="#DejaVuSans-48"/>
       <use x="127.246094" xlink:href="#DejaVuSans-49"/>
       <use x="190.869141" xlink:href="#DejaVuSans-54"/>
      </g>
     </g>
    </g>
    <g id="xtick_3">
     <g id="line2d_5">
      <path clip-path="url(#p6e18e365db)" d="M 335.951297 640.8 
L 335.951297 86.4 
" style="fill:none;stroke:#cccccc;stroke-linecap:round;stroke-width:0.8;"/>
     </g>
     <g id="line2d_6"/>
     <g id="text_3">
      <!-- 2017 -->
      <defs>
       <path d="M 8.203125 72.90625 
L 55.078125 72.90625 
L 55.078125 68.703125 
L 28.609375 0 
L 18.3125 0 
L 43.21875 64.59375 
L 8.203125 64.59375 
z
" id="DejaVuSans-55"/>
      </defs>
      <g style="fill:#262626;" transform="translate(323.226297 651.898438)scale(0.1 -0.1)">
       <use xlink:href="#DejaVuSans-50"/>
       <use x="63.623047" xlink:href="#DejaVuSans-48"/>
       <use x="127.246094" xlink:href="#DejaVuSans-49"/>
       <use x="190.869141" xlink:href="#DejaVuSans-55"/>
      </g>
     </g>
    </g>
    <g id="xtick_4">
     <g id="line2d_7">
      <path clip-path="url(#p6e18e365db)" d="M 421.706809 640.8 
L 421.706809 86.4 
" style="fill:none;stroke:#cccccc;stroke-linecap:round;stroke-width:0.8;"/>
     </g>
     <g id="line2d_8"/>
     <g id="text_4">
      <!-- 2018 -->
      <defs>
       <path d="M 31.78125 34.625 
Q 24.75 34.625 20.71875 30.859375 
Q 16.703125 27.09375 16.703125 20.515625 
Q 16.703125 13.921875 20.71875 10.15625 
Q 24.75 6.390625 31.78125 6.390625 
Q 38.8125 6.390625 42.859375 10.171875 
Q 46.921875 13.96875 46.921875 20.515625 
Q 46.921875 27.09375 42.890625 30.859375 
Q 38.875 34.625 31.78125 34.625 
z
M 21.921875 38.8125 
Q 15.578125 40.375 12.03125 44.71875 
Q 8.5 49.078125 8.5 55.328125 
Q 8.5 64.0625 14.71875 69.140625 
Q 20.953125 74.21875 31.78125 74.21875 
Q 42.671875 74.21875 48.875 69.140625 
Q 55.078125 64.0625 55.078125 55.328125 
Q 55.078125 49.078125 51.53125 44.71875 
Q 48 40.375 41.703125 38.8125 
Q 48.828125 37.15625 52.796875 32.3125 
Q 56.78125 27.484375 56.78125 20.515625 
Q 56.78125 9.90625 50.3125 4.234375 
Q 43.84375 -1.421875 31.78125 -1.421875 
Q 19.734375 -1.421875 13.25 4.234375 
Q 6.78125 9.90625 6.78125 20.515625 
Q 6.78125 27.484375 10.78125 32.3125 
Q 14.796875 37.15625 21.921875 38.8125 
z
M 18.3125 54.390625 
Q 18.3125 48.734375 21.84375 45.5625 
Q 25.390625 42.390625 31.78125 42.390625 
Q 38.140625 42.390625 41.71875 45.5625 
Q 45.3125 48.734375 45.3125 54.390625 
Q 45.3125 60.0625 41.71875 63.234375 
Q 38.140625 66.40625 31.78125 66.40625 
Q 25.390625 66.40625 21.84375 63.234375 
Q 18.3125 60.0625 18.3125 54.390625 
z
" id="DejaVuSans-56"/>
      </defs>
      <g style="fill:#262626;" transform="translate(408.981809 651.898438)scale(0.1 -0.1)">
       <use xlink:href="#DejaVuSans-50"/>
       <use x="63.623047" xlink:href="#DejaVuSans-48"/>
       <use x="127.246094" xlink:href="#DejaVuSans-49"/>
       <use x="190.869141" xlink:href="#DejaVuSans-56"/>
      </g>
     </g>
    </g>
    <g id="xtick_5">
     <g id="line2d_9">
      <path clip-path="url(#p6e18e365db)" d="M 507.462322 640.8 
L 507.462322 86.4 
" style="fill:none;stroke:#cccccc;stroke-linecap:round;stroke-width:0.8;"/>
     </g>
     <g id="line2d_10"/>
     <g id="text_5">
      <!-- 2019 -->
      <defs>
       <path d="M 10.984375 1.515625 
L 10.984375 10.5 
Q 14.703125 8.734375 18.5 7.8125 
Q 22.3125 6.890625 25.984375 6.890625 
Q 35.75 6.890625 40.890625 13.453125 
Q 46.046875 20.015625 46.78125 33.40625 
Q 43.953125 29.203125 39.59375 26.953125 
Q 35.25 24.703125 29.984375 24.703125 
Q 19.046875 24.703125 12.671875 31.3125 
Q 6.296875 37.9375 6.296875 49.421875 
Q 6.296875 60.640625 12.9375 67.421875 
Q 19.578125 74.21875 30.609375 74.21875 
Q 43.265625 74.21875 49.921875 64.515625 
Q 56.59375 54.828125 56.59375 36.375 
Q 56.59375 19.140625 48.40625 8.859375 
Q 40.234375 -1.421875 26.421875 -1.421875 
Q 22.703125 -1.421875 18.890625 -0.6875 
Q 15.09375 0.046875 10.984375 1.515625 
z
M 30.609375 32.421875 
Q 37.25 32.421875 41.125 36.953125 
Q 45.015625 41.5 45.015625 49.421875 
Q 45.015625 57.28125 41.125 61.84375 
Q 37.25 66.40625 30.609375 66.40625 
Q 23.96875 66.40625 20.09375 61.84375 
Q 16.21875 57.28125 16.21875 49.421875 
Q 16.21875 41.5 20.09375 36.953125 
Q 23.96875 32.421875 30.609375 32.421875 
z
" id="DejaVuSans-57"/>
      </defs>
      <g style="fill:#262626;" transform="translate(494.737322 651.898438)scale(0.1 -0.1)">
       <use xlink:href="#DejaVuSans-50"/>
       <use x="63.623047" xlink:href="#DejaVuSans-48"/>
       <use x="127.246094" xlink:href="#DejaVuSans-49"/>
       <use x="190.869141" xlink:href="#DejaVuSans-57"/>
      </g>
     </g>
    </g>
    <g id="xtick_6">
     <g id="line2d_11">
      <path clip-path="url(#p6e18e365db)" d="M 593.217834 640.8 
L 593.217834 86.4 
" style="fill:none;stroke:#cccccc;stroke-linecap:round;stroke-width:0.8;"/>
     </g>
     <g id="line2d_12"/>
     <g id="text_6">
      <!-- 2020 -->
      <g style="fill:#262626;" transform="translate(580.492834 651.898438)scale(0.1 -0.1)">
       <use xlink:href="#DejaVuSans-50"/>
       <use x="63.623047" xlink:href="#DejaVuSans-48"/>
       <use x="127.246094" xlink:href="#DejaVuSans-50"/>
       <use x="190.869141" xlink:href="#DejaVuSans-48"/>
      </g>
     </g>
    </g>
   </g>
   <g id="matplotlib.axis_2">
    <g id="ytick_1">
     <g id="line2d_13">
      <path clip-path="url(#p6e18e365db)" d="M 90 615.609193 
L 648 615.609193 
" style="fill:none;stroke:#cccccc;stroke-linecap:round;stroke-width:0.8;"/>
     </g>
     <g id="line2d_14"/>
     <g id="text_7">
      <!-- 0 -->
      <g style="fill:#262626;" transform="translate(80.1375 619.408412)scale(0.1 -0.1)">
       <use xlink:href="#DejaVuSans-48"/>
      </g>
     </g>
    </g>
    <g id="ytick_2">
     <g id="line2d_15">
      <path clip-path="url(#p6e18e365db)" d="M 90 523.675298 
L 648 523.675298 
" style="fill:none;stroke:#cccccc;stroke-linecap:round;stroke-width:0.8;"/>
     </g>
     <g id="line2d_16"/>
     <g id="text_8">
      <!-- 10000 -->
      <g style="fill:#262626;" transform="translate(54.6875 527.474517)scale(0.1 -0.1)">
       <use xlink:href="#DejaVuSans-49"/>
       <use x="63.623047" xlink:href="#DejaVuSans-48"/>
       <use x="127.246094" xlink:href="#DejaVuSans-48"/>
       <use x="190.869141" xlink:href="#DejaVuSans-48"/>
       <use x="254.492188" xlink:href="#DejaVuSans-48"/>
      </g>
     </g>
    </g>
    <g id="ytick_3">
     <g id="line2d_17">
      <path clip-path="url(#p6e18e365db)" d="M 90 431.741403 
L 648 431.741403 
" style="fill:none;stroke:#cccccc;stroke-linecap:round;stroke-width:0.8;"/>
     </g>
     <g id="line2d_18"/>
     <g id="text_9">
      <!-- 20000 -->
      <g style="fill:#262626;" transform="translate(54.6875 435.540622)scale(0.1 -0.1)">
       <use xlink:href="#DejaVuSans-50"/>
       <use x="63.623047" xlink:href="#DejaVuSans-48"/>
       <use x="127.246094" xlink:href="#DejaVuSans-48"/>
       <use x="190.869141" xlink:href="#DejaVuSans-48"/>
       <use x="254.492188" xlink:href="#DejaVuSans-48"/>
      </g>
     </g>
    </g>
    <g id="ytick_4">
     <g id="line2d_19">
      <path clip-path="url(#p6e18e365db)" d="M 90 339.807508 
L 648 339.807508 
" style="fill:none;stroke:#cccccc;stroke-linecap:round;stroke-width:0.8;"/>
     </g>
     <g id="line2d_20"/>
     <g id="text_10">
      <!-- 30000 -->
      <defs>
       <path d="M 40.578125 39.3125 
Q 47.65625 37.796875 51.625 33 
Q 55.609375 28.21875 55.609375 21.1875 
Q 55.609375 10.40625 48.1875 4.484375 
Q 40.765625 -1.421875 27.09375 -1.421875 
Q 22.515625 -1.421875 17.65625 -0.515625 
Q 12.796875 0.390625 7.625 2.203125 
L 7.625 11.71875 
Q 11.71875 9.328125 16.59375 8.109375 
Q 21.484375 6.890625 26.8125 6.890625 
Q 36.078125 6.890625 40.9375 10.546875 
Q 45.796875 14.203125 45.796875 21.1875 
Q 45.796875 27.640625 41.28125 31.265625 
Q 36.765625 34.90625 28.71875 34.90625 
L 20.21875 34.90625 
L 20.21875 43.015625 
L 29.109375 43.015625 
Q 36.375 43.015625 40.234375 45.921875 
Q 44.09375 48.828125 44.09375 54.296875 
Q 44.09375 59.90625 40.109375 62.90625 
Q 36.140625 65.921875 28.71875 65.921875 
Q 24.65625 65.921875 20.015625 65.03125 
Q 15.375 64.15625 9.8125 62.3125 
L 9.8125 71.09375 
Q 15.4375 72.65625 20.34375 73.4375 
Q 25.25 74.21875 29.59375 74.21875 
Q 40.828125 74.21875 47.359375 69.109375 
Q 53.90625 64.015625 53.90625 55.328125 
Q 53.90625 49.265625 50.4375 45.09375 
Q 46.96875 40.921875 40.578125 39.3125 
z
" id="DejaVuSans-51"/>
      </defs>
      <g style="fill:#262626;" transform="translate(54.6875 343.606727)scale(0.1 -0.1)">
       <use xlink:href="#DejaVuSans-51"/>
       <use x="63.623047" xlink:href="#DejaVuSans-48"/>
       <use x="127.246094" xlink:href="#DejaVuSans-48"/>
       <use x="190.869141" xlink:href="#DejaVuSans-48"/>
       <use x="254.492188" xlink:href="#DejaVuSans-48"/>
      </g>
     </g>
    </g>
    <g id="ytick_5">
     <g id="line2d_21">
      <path clip-path="url(#p6e18e365db)" d="M 90 247.873613 
L 648 247.873613 
" style="fill:none;stroke:#cccccc;stroke-linecap:round;stroke-width:0.8;"/>
     </g>
     <g id="line2d_22"/>
     <g id="text_11">
      <!-- 40000 -->
      <defs>
       <path d="M 37.796875 64.3125 
L 12.890625 25.390625 
L 37.796875 25.390625 
z
M 35.203125 72.90625 
L 47.609375 72.90625 
L 47.609375 25.390625 
L 58.015625 25.390625 
L 58.015625 17.1875 
L 47.609375 17.1875 
L 47.609375 0 
L 37.796875 0 
L 37.796875 17.1875 
L 4.890625 17.1875 
L 4.890625 26.703125 
z
" id="DejaVuSans-52"/>
      </defs>
      <g style="fill:#262626;" transform="translate(54.6875 251.672832)scale(0.1 -0.1)">
       <use xlink:href="#DejaVuSans-52"/>
       <use x="63.623047" xlink:href="#DejaVuSans-48"/>
       <use x="127.246094" xlink:href="#DejaVuSans-48"/>
       <use x="190.869141" xlink:href="#DejaVuSans-48"/>
       <use x="254.492188" xlink:href="#DejaVuSans-48"/>
      </g>
     </g>
    </g>
    <g id="ytick_6">
     <g id="line2d_23">
      <path clip-path="url(#p6e18e365db)" d="M 90 155.939718 
L 648 155.939718 
" style="fill:none;stroke:#cccccc;stroke-linecap:round;stroke-width:0.8;"/>
     </g>
     <g id="line2d_24"/>
     <g id="text_12">
      <!-- 50000 -->
      <g style="fill:#262626;" transform="translate(54.6875 159.738936)scale(0.1 -0.1)">
       <use xlink:href="#DejaVuSans-53"/>
       <use x="63.623047" xlink:href="#DejaVuSans-48"/>
       <use x="127.246094" xlink:href="#DejaVuSans-48"/>
       <use x="190.869141" xlink:href="#DejaVuSans-48"/>
       <use x="254.492188" xlink:href="#DejaVuSans-48"/>
      </g>
     </g>
    </g>
   </g>
   <g id="line2d_25">
    <path clip-path="url(#p6e18e365db)" d="M 115.363636 615.6 
L 116.510434 615.213878 
L 116.796781 614.97485 
L 117.500362 614.818562 
L 117.614855 614.772595 
L 117.965817 614.653081 
L 118.3746 614.51518 
L 118.45285 614.469213 
L 119.357922 614.266959 
L 119.385686 614.230185 
L 119.551736 614.110671 
L 120.533248 613.788902 
L 121.151987 613.669388 
L 121.261718 613.503907 
L 123.034121 613.246492 
L 123.3626 613.090205 
L 123.734564 612.94311 
L 123.747532 612.88795 
L 124.397815 612.722469 
L 125.930406 612.088125 
L 126.307197 611.968611 
L 126.389197 611.913451 
L 126.668112 611.793937 
L 126.811755 611.738776 
L 127.492902 611.591682 
L 127.953756 611.279107 
L 128.419677 611.049272 
L 128.498435 610.984918 
L 129.146893 610.865404 
L 129.259627 610.74589 
L 129.389506 610.626376 
L 129.441194 610.580409 
L 129.884536 610.451702 
L 130.364047 610.341381 
L 131.018091 610.212674 
L 131.987036 609.826551 
L 132.459981 609.707037 
L 132.755274 609.532363 
L 132.996804 609.403655 
L 133.243884 609.320915 
L 134.309029 609.137047 
L 134.426976 608.943986 
L 134.63749 608.815279 
L 134.995038 608.603831 
L 135.053003 608.539477 
L 136.005347 608.419963 
L 136.642501 608.180935 
L 136.767792 608.089001 
L 137.429044 607.932713 
L 137.852933 607.702878 
L 137.934878 607.620138 
L 138.301061 607.482237 
L 141.123803 606.774346 
L 141.225817 606.682412 
L 141.604581 606.544511 
L 141.656046 606.470964 
L 142.507505 606.333063 
L 142.58244 606.277903 
L 142.989964 606.149196 
L 143.327564 605.882587 
L 144.003644 605.744686 
L 144.240016 605.487272 
L 144.472763 605.367757 
L 144.531331 605.340177 
L 144.68202 605.220663 
L 144.746179 605.147116 
L 144.914446 605.027602 
L 144.934389 605.009215 
L 145.801097 604.852928 
L 145.879329 604.7518 
L 146.066394 604.632286 
L 146.571081 604.227777 
L 146.649176 604.163423 
L 147.269054 604.043909 
L 147.286357 604.007136 
L 147.502171 603.887622 
L 147.566912 603.814075 
L 147.953646 603.657787 
L 147.983817 603.61182 
L 148.928022 603.455532 
L 148.999276 603.363599 
L 149.334964 603.225698 
L 149.402416 603.106184 
L 149.685116 602.98667 
L 149.796373 602.940703 
L 149.915203 602.876349 
L 150.547984 602.720061 
L 150.592064 602.664901 
L 150.824444 602.545387 
L 150.881747 602.517807 
L 151.047385 602.398293 
L 151.087323 602.352326 
L 151.45065 602.214425 
L 151.534673 602.113298 
L 152.218449 601.975397 
L 152.282513 601.855883 
L 152.460023 601.727175 
L 152.52794 601.653628 
L 152.734179 601.524921 
L 153.109745 601.322666 
L 153.213954 601.157185 
L 153.808002 601.019284 
L 153.91568 600.890577 
L 154.121462 600.752676 
L 154.518384 600.623968 
L 154.788564 600.403327 
L 154.819996 600.375747 
L 155.464533 600.256233 
L 155.680135 600.127525 
L 156.195106 599.879304 
L 157.102802 599.75979 
L 157.214632 599.658663 
L 157.404863 599.539149 
L 157.586517 599.428828 
L 158.163297 599.153026 
L 158.810273 599.033512 
L 158.812775 599.015125 
L 159.029813 598.895611 
L 159.055314 598.840451 
L 159.276553 598.720937 
L 159.28226 598.70255 
L 159.479431 598.583036 
L 159.550809 598.491102 
L 159.748393 598.371588 
L 159.803227 598.334814 
L 160.416669 598.2153 
L 160.4705 598.086593 
L 160.672032 597.967079 
L 160.697104 597.893532 
L 160.97842 597.764824 
L 161.126831 597.64531 
L 161.211099 597.56257 
L 161.381389 597.443056 
L 161.40602 597.369509 
L 162.090745 597.249995 
L 162.13284 597.204028 
L 163.968714 596.964999 
L 163.987311 596.946613 
L 165.364732 596.817905 
L 165.435316 596.725971 
L 165.589971 596.606457 
L 165.687571 596.542104 
L 165.80338 596.422589 
L 165.912065 596.183561 
L 166.036619 596.064047 
L 166.319463 595.825019 
L 166.333683 595.788246 
L 167.003667 595.668732 
L 167.042321 595.530831 
L 167.272229 595.411317 
L 167.332342 595.39293 
L 167.470533 595.273416 
L 167.562875 595.061968 
L 167.707405 594.942454 
L 167.752551 594.776973 
L 167.942238 594.657459 
L 167.980017 594.611492 
L 168.88101 594.491978 
L 169.055694 594.28053 
L 169.356869 593.931181 
L 169.421177 593.830054 
L 169.593673 593.71054 
L 169.691255 593.618606 
L 170.377595 593.489898 
L 170.516023 593.370384 
L 170.978248 592.892328 
L 171.175116 592.699267 
L 171.265767 592.506206 
L 171.909053 592.377498 
L 171.987738 592.175244 
L 172.157618 592.055729 
L 172.324756 591.890248 
L 172.427075 591.743154 
L 172.489694 591.6788 
L 172.605735 591.559286 
L 172.853707 591.246711 
L 172.913988 591.08123 
L 173.589495 590.961716 
L 173.617234 590.924943 
L 173.799644 590.805428 
L 173.851474 590.722688 
L 174.04379 590.603174 
L 174.119927 590.446886 
L 174.251903 590.327372 
L 174.623173 589.950443 
L 175.421333 589.830929 
L 175.529961 589.499967 
L 175.70334 589.380453 
L 175.783586 589.260939 
L 175.909609 589.141425 
L 175.979046 588.929977 
L 176.11507 588.80127 
L 176.198422 588.479501 
L 176.833341 588.359987 
L 176.901959 588.093379 
L 177.222675 587.964671 
L 177.552274 587.789997 
L 177.666466 587.578549 
L 177.791518 587.459035 
L 177.841139 587.413068 
L 178.487109 587.265974 
L 178.590858 587.118879 
L 178.729887 586.999365 
L 178.776947 586.898238 
L 178.950114 586.778724 
L 179.302727 586.263894 
L 179.385742 586.14438 
L 179.462448 585.997286 
L 179.500246 585.905352 
L 180.131181 585.767451 
L 180.213529 585.592777 
L 180.34989 585.473263 
L 180.466632 585.188267 
L 180.588587 585.068753 
L 180.679784 584.756178 
L 180.821605 584.609084 
L 180.898684 584.351669 
L 181.063859 584.222962 
L 181.12479 583.983933 
L 181.754102 583.864419 
L 181.827454 583.551844 
L 181.979661 583.43233 
L 182.362159 582.963467 
L 182.47294 582.843953 
L 182.551819 582.706052 
L 182.728885 582.586538 
L 182.803092 582.356704 
L 183.440202 582.218803 
L 183.513055 582.108482 
L 183.624111 581.988968 
L 183.73223 581.648813 
L 183.875063 581.529298 
L 184.084117 581.17995 
L 184.171822 580.793827 
L 184.26725 580.646733 
L 184.360869 580.518026 
L 184.554276 580.324964 
L 185.038087 580.20545 
L 185.526572 579.433206 
L 185.579949 579.249338 
L 185.667336 579.056277 
L 185.756159 578.936763 
L 185.916578 578.596607 
L 186.033477 578.449513 
L 186.066495 578.366772 
L 186.70503 578.228872 
L 186.820842 578.026617 
L 186.951202 577.842749 
L 187.123037 577.658881 
L 187.201042 577.520981 
L 187.329811 577.38308 
L 187.403529 577.263566 
L 187.528931 577.070505 
L 187.668102 576.905024 
L 187.766162 576.776316 
L 188.337771 576.620028 
L 188.413834 576.371807 
L 188.56962 576.252293 
L 188.647949 576.013265 
L 188.812229 575.875364 
L 189.014311 575.645529 
L 189.088507 575.470855 
L 189.345308 575.020379 
L 189.991278 574.882478 
L 190.192364 574.432002 
L 191.040782 572.98864 
L 191.624948 572.869126 
L 191.881704 572.308329 
L 192.095652 572.060107 
L 192.19564 571.894626 
L 192.332823 571.747532 
L 192.509895 571.407377 
L 192.58204 571.278669 
L 192.641807 571.103995 
L 193.232878 570.975287 
L 193.339308 570.598358 
L 193.55473 570.294976 
L 193.660211 570.111109 
L 193.755726 569.982401 
L 194.028599 569.605472 
L 194.290698 569.329671 
L 194.439693 569.30209 
L 194.865778 569.182576 
L 194.979284 568.814841 
L 195.230677 568.364365 
L 195.3939 568.235657 
L 195.462361 567.987436 
L 195.620974 567.858728 
L 195.966068 567.196804 
L 196.541239 567.058903 
L 196.624158 566.636007 
L 196.696638 566.470526 
L 196.808333 566.351012 
L 196.855915 566.249885 
L 197.255449 566.121178 
L 197.399572 565.716668 
L 197.510728 565.597154 
L 197.556812 565.431673 
L 197.615774 565.376513 
L 198.438027 565.229419 
L 198.553711 564.926037 
L 198.678103 564.79733 
L 198.729323 564.659429 
L 198.829026 564.539915 
L 198.95646 564.374434 
L 199.060562 563.942344 
L 199.177155 563.76767 
L 199.244963 563.583802 
L 199.853184 563.436708 
L 199.939007 563.206873 
L 200.090477 563.078166 
L 200.170691 562.866718 
L 200.271361 562.71043 
L 200.340325 562.544949 
L 200.642678 562.030119 
L 200.799369 561.855445 
L 200.841485 561.65319 
L 201.508763 561.515289 
L 201.605461 561.340615 
L 201.734769 561.221101 
L 201.845746 560.97288 
L 201.991638 560.844172 
L 202.068747 560.641917 
L 202.206919 560.504017 
L 202.338617 560.154668 
L 202.476333 559.94322 
L 202.545859 559.759352 
L 203.141169 559.621451 
L 203.253642 559.40081 
L 203.420949 559.216942 
L 203.460876 559.042268 
L 203.639647 558.922754 
L 203.745047 558.711306 
L 203.875589 558.545825 
L 204.08362 557.957448 
L 204.129617 557.77358 
L 204.176416 557.709226 
L 204.793257 557.571325 
L 205.85236 556.468119 
L 206.437244 556.348605 
L 206.535136 556.109576 
L 206.702021 555.934902 
L 206.793071 555.741841 
L 206.916685 555.594747 
L 206.991096 555.364912 
L 208.08806 555.043143 
L 208.156792 554.776535 
L 208.314438 554.638634 
L 208.430565 554.381219 
L 208.574478 554.224932 
L 208.69001 553.820422 
L 208.845597 553.572201 
L 209.376541 553.038984 
L 209.71745 552.910277 
L 209.840677 552.542541 
L 209.97352 552.423027 
L 210.086892 552.064485 
L 210.233378 551.935778 
L 210.344871 551.797877 
L 210.488124 551.669169 
L 210.73277 551.071599 
L 210.957051 550.896925 
L 211.017063 550.648703 
L 211.355085 550.510802 
L 211.502696 550.014359 
L 211.896267 549.867265 
L 212.415129 548.460676 
L 213.023116 548.258422 
L 213.079617 548.083747 
L 213.472239 547.945847 
L 213.596774 547.541337 
L 214.063429 546.8978 
L 214.658148 546.778286 
L 214.848056 546.520871 
L 214.949346 546.38297 
L 215.056141 546.134749 
L 215.163732 546.015235 
L 215.857562 545.095896 
L 216.255255 544.976382 
L 216.37572 544.516712 
L 216.526009 544.351231 
L 217.35443 543.10093 
L 217.881942 542.981416 
L 218.166997 542.659648 
L 218.262817 542.484973 
L 218.420315 542.337879 
L 218.533296 542.071271 
L 218.718279 541.685148 
L 218.843989 541.510474 
L 218.939227 541.372573 
L 218.967358 541.271446 
L 219.590385 541.151932 
L 219.696407 540.940484 
L 219.863516 540.747423 
L 219.973557 540.600328 
L 220.127967 540.296946 
L 220.343073 540.168239 
L 220.446727 539.965984 
L 220.61497 539.782117 
L 220.761501 539.70857 
L 221.173463 539.589055 
L 221.440203 539.423574 
L 221.582139 539.120193 
L 221.692575 538.973098 
L 221.812539 538.743264 
L 221.980314 538.62375 
L 222.385659 537.998599 
L 222.941327 537.869892 
L 223.113749 537.741184 
L 223.252463 537.511349 
L 223.401939 537.318288 
L 223.522382 537.143614 
L 223.852537 536.775878 
L 223.944506 536.628784 
L 224.447917 536.500077 
L 224.577127 536.362176 
L 224.67736 536.196695 
L 224.828851 536.012827 
L 224.940217 535.856539 
L 225.39303 534.973974 
L 225.504141 534.845266 
L 225.605007 534.652205 
L 226.268375 534.210923 
L 226.45342 533.990281 
L 226.695015 533.861574 
L 226.805427 533.548999 
L 226.936072 533.28239 
L 227.035054 533.126103 
L 227.134488 532.951428 
L 227.220795 532.749174 
L 227.911071 532.611273 
L 228.33479 531.976929 
L 228.548763 531.691934 
L 228.723907 531.324198 
L 229.01148 530.928883 
L 229.456777 530.781788 
L 229.571118 530.202605 
L 229.786102 529.899223 
L 230.099223 529.411973 
L 230.49051 528.667309 
L 230.64707 528.529408 
L 230.68755 528.446667 
L 231.108107 528.327153 
L 231.156132 528.023771 
L 231.25643 527.895064 
L 231.34993 527.738776 
L 231.424575 527.527328 
L 231.551721 527.389428 
L 231.663728 527.26072 
L 231.737519 527.058466 
L 231.840477 526.791857 
L 231.946706 526.598796 
L 232.062009 526.405735 
L 232.228514 526.1759 
L 232.668704 526.019613 
L 234.125874 523.97868 
L 234.328689 523.849973 
L 234.481249 523.482237 
L 234.580416 523.335143 
L 234.691682 523.059341 
L 235.137566 522.020488 
L 235.248151 521.80904 
L 235.390281 521.376951 
L 235.447269 521.321791 
L 236.086141 521.137923 
L 236.206826 520.954055 
L 236.789532 520.227777 
L 237.037071 519.915202 
L 237.284725 519.758914 
L 237.783622 519.483113 
L 237.93968 519.290051 
L 238.004875 519.198118 
L 238.198254 519.051023 
L 238.355198 518.821189 
L 238.602069 518.508613 
L 238.678886 518.361519 
L 238.711006 518.333939 
L 239.315885 518.196038 
L 240.243092 516.936544 
L 240.339067 516.807836 
L 240.412107 516.761869 
L 240.930248 516.541228 
L 241.082515 516.27462 
L 241.173913 516.145912 
L 241.447384 515.75979 
L 242.208067 515.198993 
L 242.703927 514.941578 
L 242.880289 514.64739 
L 243.010847 514.509489 
L 243.711518 513.424669 
L 243.927732 513.259188 
L 244.056604 513.213221 
L 244.27046 513.084514 
L 244.370614 512.974193 
L 244.630791 512.753551 
L 244.732843 512.514523 
L 244.82851 512.303075 
L 244.927057 512.137594 
L 245.02837 511.926146 
L 245.164535 511.788246 
L 245.273598 511.595184 
L 245.364175 511.549217 
L 245.826043 511.42051 
L 245.936134 511.300996 
L 246.41667 510.491978 
L 246.53016 510.28053 
L 247.109186 509.489898 
L 247.38059 509.333611 
L 247.61083 509.131356 
L 247.791016 509.002649 
L 247.932226 508.837168 
L 248.401556 508.634913 
L 249.229452 508.515399 
L 249.821109 508.19363 
L 250.710445 508.055729 
L 251.13619 507.632834 
L 251.285441 507.550093 
L 251.565691 507.402999 
L 251.664787 507.329452 
L 252.501197 506.961716 
L 252.759511 506.676721 
L 252.966506 506.48366 
L 253.116483 506.318179 
L 253.231993 506.069957 
L 253.328862 506.005604 
L 253.667476 505.849316 
L 253.765795 505.748189 
L 254.151521 505.582708 
L 254.290025 505.527547 
L 254.438702 505.39884 
L 254.549383 505.352873 
L 254.71635 505.205779 
L 254.884056 504.681755 
L 255.010574 504.562241 
L 255.082363 504.424341 
L 255.190096 504.332407 
L 255.73787 504.166926 
L 256.016999 503.762417 
L 256.272414 503.440648 
L 256.352353 503.367101 
L 256.478637 503.247587 
L 256.521963 503.072912 
L 256.735893 502.65921 
L 256.956949 502.319054 
L 257.052562 502.125993 
L 257.418508 501.960512 
L 258.071143 500.949239 
L 258.187939 500.765372 
L 258.485029 500.140221 
L 258.757507 499.809259 
L 258.977 499.680552 
L 259.223085 499.202495 
L 259.836421 498.145256 
L 260.044417 498.016548 
L 260.254474 497.786713 
L 260.486494 497.556879 
L 260.649673 497.455751 
L 260.864408 497.225917 
L 260.973995 496.986888 
L 261.501861 496.324964 
L 262.654926 494.734508 
L 262.765846 494.55064 
L 262.896821 494.146131 
L 263.227731 493.741622 
L 263.330602 493.456627 
L 263.361319 493.263566 
L 263.709154 492.886637 
L 263.999262 492.684382 
L 264.133129 492.472934 
L 264.692737 491.498435 
L 264.744657 491.360534 
L 264.967106 490.72619 
L 265.169943 490.284908 
L 265.346047 490.10104 
L 265.571636 489.963139 
L 265.961183 489.457502 
L 266.159269 489.337988 
L 266.478731 489.062187 
L 266.653187 488.703645 
L 266.793013 488.593324 
L 267.32619 488.437036 
L 267.446293 488.289942 
L 267.541027 488.152041 
L 267.855861 487.747532 
L 267.957677 487.600438 
L 268.331035 487.205122 
L 268.971618 486.975287 
L 269.546147 486.33175 
L 269.802146 486.157076 
L 269.904335 486.065142 
L 271.310485 485.375638 
L 271.353066 485.256123 
L 271.548694 485.127416 
L 271.783548 484.943548 
L 272.732942 484.548232 
L 272.858856 484.391945 
L 273.147457 484.244851 
L 273.259068 484.033403 
L 273.903028 483.895502 
L 273.925128 483.877115 
L 274.125857 483.757601 
L 274.612659 483.224384 
L 274.703054 483.04971 
L 274.92786 482.865842 
L 275.191158 482.645201 
L 275.675602 482.286659 
L 275.786555 482.139564 
L 276.496994 481.256999 
L 277.079715 481.063938 
L 277.205714 480.93523 
L 277.29396 480.475561 
L 277.423855 480.346853 
L 277.564162 480.218146 
L 278.436211 479.620576 
L 278.822785 479.491868 
L 279.307018 479.114939 
L 279.766034 478.453015 
L 279.853752 478.020926 
L 280.228446 477.901412 
L 280.617973 477.460129 
L 280.730495 477.331422 
L 280.833768 477.156747 
L 281.20336 476.687884 
L 281.327357 476.605144 
L 281.631806 476.200635 
L 281.982755 476.053541 
L 282.090901 475.934026 
L 282.234344 475.759352 
L 282.330337 475.584678 
L 282.623349 475.299683 
L 282.717414 475.253716 
L 282.922862 475.069848 
L 283.084861 474.757273 
L 283.195213 474.591792 
L 284.027807 473.755193 
L 284.235697 473.617292 
L 284.412163 473.387458 
L 284.486168 473.23117 
L 284.589577 473.111656 
L 284.677943 472.973755 
L 284.783566 472.68876 
L 286.8189 470.712181 
L 287.04363 470.583474 
L 287.267843 470.417993 
L 287.497759 470.206545 
L 287.680237 469.912356 
L 287.809126 469.774456 
L 287.914936 469.599781 
L 288.656941 468.993017 
L 288.796128 468.827536 
L 289.001703 468.597702 
L 289.163767 468.432221 
L 289.562962 467.954164 
L 289.667187 467.770297 
L 290.080288 467.439335 
L 290.226561 467.255467 
L 291.84862 464.883572 
L 292.172998 464.561804 
L 292.412214 464.166488 
L 293.240426 463.228762 
L 293.758235 463.100055 
L 294.109298 462.861027 
L 294.208093 462.658772 
L 294.307293 462.539258 
L 294.704845 462.024428 
L 295.25345 461.84056 
L 296.604298 460.204137 
L 296.812248 460.07543 
L 297.12334 459.459472 
L 297.233645 458.926256 
L 298.108557 457.492087 
L 298.543162 457.372573 
L 298.930604 456.940484 
L 299.081788 456.802583 
L 299.460158 456.398074 
L 299.845349 456.094692 
L 300.25591 455.938404 
L 300.362533 455.717763 
L 300.938688 454.605363 
L 301.04403 454.393915 
L 301.167086 454.173274 
L 301.357399 454.007792 
L 301.793053 453.860698 
L 302.453329 453.005713 
L 302.531726 452.858619 
L 303.101893 452.104761 
L 303.48276 451.930086 
L 303.859343 451.360096 
L 303.965143 451.194615 
L 304.073855 450.973974 
L 304.183684 450.688979 
L 304.364141 450.39479 
L 304.456673 450.063828 
L 304.559626 449.815607 
L 304.696232 449.631739 
L 305.245001 448.611273 
L 305.339485 448.418212 
L 305.476603 448.261924 
L 306.24871 447.011623 
L 306.771501 446.873722 
L 308.036539 445.3752 
L 308.568813 444.86037 
L 308.678718 444.713276 
L 308.866311 444.511021 
L 309.193086 443.950224 
L 309.60152 443.26072 
L 309.717501 443.104433 
L 309.948036 442.672343 
L 310.160451 442.258641 
L 310.660224 441.330108 
L 310.975175 440.658991 
L 311.220482 440.410769 
L 311.325849 440.300449 
L 311.720567 440.098194 
L 311.825331 439.914326 
L 312.391487 438.958214 
L 312.498855 438.700799 
L 312.942151 438.250323 
L 313.450291 437.744686 
L 313.55302 437.487272 
L 313.710054 437.21147 
L 314.166084 436.457612 
L 314.275234 436.338098 
L 314.533599 436.080683 
L 315.069981 435.878428 
L 315.170878 435.777301 
L 315.255369 435.61182 
L 315.613622 435.078603 
L 315.840541 434.766028 
L 315.946403 434.545387 
L 316.810759 433.745562 
L 316.918448 433.681208 
L 317.28717 432.991704 
L 318.048098 431.934464 
L 318.239485 431.81495 
L 318.457438 431.465601 
L 318.990386 430.537069 
L 319.099908 430.380781 
L 319.406794 430.10498 
L 319.832428 429.911919 
L 319.942121 429.737244 
L 320.380125 429.001773 
L 320.491739 428.762745 
L 320.663565 428.376623 
L 320.772451 428.211142 
L 321.41429 427.521637 
L 321.545888 427.39293 
L 321.6348 427.227449 
L 321.803154 427.043581 
L 322.020594 426.666652 
L 322.480034 425.79328 
L 322.549305 425.627799 
L 322.786596 425.471511 
L 323.755762 423.917829 
L 323.867326 423.715574 
L 324.274485 423.182357 
L 324.794606 423.035263 
L 325.098539 422.676721 
L 325.208852 422.53882 
L 325.69201 421.96883 
L 325.841633 421.812542 
L 325.943183 421.693028 
L 326.41772 421.545934 
L 326.510361 421.408033 
L 326.912362 420.957557 
L 327.003632 420.82885 
L 327.281236 420.736916 
L 328.156072 420.562241 
L 328.248743 420.304827 
L 328.350303 420.176119 
L 328.443485 420.029025 
L 328.565434 419.85435 
L 328.87753 419.063719 
L 328.984662 418.879851 
L 329.13493 418.475342 
L 329.259867 418.125993 
L 329.356614 417.997286 
L 329.434894 417.896158 
L 329.712441 417.767451 
L 329.992501 417.160687 
L 330.630014 415.441523 
L 330.719027 415.303623 
L 330.805604 415.027821 
L 331.302619 414.825566 
L 331.479175 414.448637 
L 331.708661 414.007355 
L 331.91006 413.676393 
L 332.143902 413.363817 
L 332.254439 413.133983 
L 332.625624 412.757054 
L 333.041061 412.628346 
L 333.154526 412.407705 
L 333.405973 412.113516 
L 333.534824 411.920455 
L 333.740615 411.653847 
L 334.021387 411.332078 
L 334.901177 411.194178 
L 335.070777 411.001116 
L 335.201289 410.918376 
L 335.525488 410.706928 
L 336.323798 410.559834 
L 336.556703 410.431126 
L 336.650505 410.247258 
L 336.757147 410.045004 
L 336.874125 409.861136 
L 337.682948 409.263566 
L 338.035849 409.116471 
L 338.119236 409.015344 
L 338.260672 408.886637 
L 338.369745 408.362614 
L 338.605929 407.875364 
L 338.750821 407.72827 
L 338.82493 407.571982 
L 338.982888 407.424888 
L 339.159979 407.176666 
L 339.646196 407.020379 
L 339.756898 406.836511 
L 339.855152 406.689417 
L 339.952962 406.477969 
L 340.157036 406.21136 
L 340.266841 406.064266 
L 340.480504 405.733304 
L 340.599446 405.595403 
L 340.672355 405.337988 
L 341.253759 405.12654 
L 341.362212 404.905899 
L 341.799849 404.106074 
L 341.888574 403.894626 
L 342.02059 403.765919 
L 342.667275 403.094801 
L 342.909126 402.956901 
L 343.293484 402.083529 
L 343.431515 401.899661 
L 344.009696 400.888388 
L 344.538712 400.640166 
L 344.665689 400.373558 
L 344.811503 400.208077 
L 344.903798 400.051789 
L 344.965711 399.923082 
L 345.070423 399.757601 
L 345.411889 399.316318 
L 345.563354 398.957776 
L 345.749715 398.773908 
L 346.229756 398.636007 
L 346.358575 398.360206 
L 346.462517 398.167145 
L 346.519051 398.02005 
L 346.597075 397.872956 
L 346.652163 397.753442 
L 346.759066 397.523607 
L 347.326682 396.585882 
L 347.645152 396.457174 
L 347.861705 396.2825 
L 348.453904 395.418321 
L 348.566956 395.105746 
L 349.31333 394.177214 
L 349.431225 393.846252 
L 350.796681 391.547904 
L 351.178839 391.382423 
L 351.39781 391.143395 
L 352.415455 390.095349 
L 352.783568 389.966641 
L 353.022343 389.77358 
L 353.133374 389.470198 
L 353.657134 388.872628 
L 353.802031 388.753114 
L 353.967459 388.66118 
L 354.503132 388.532472 
L 355.236497 387.879742 
L 355.330604 387.815388 
L 355.387608 387.695874 
L 355.498256 387.328138 
L 355.895784 386.850082 
L 356.123323 386.500733 
L 356.295775 386.353639 
L 356.574026 386.087031 
L 356.720229 385.912356 
L 356.82177 385.792842 
L 356.934378 385.654941 
L 357.06982 385.443493 
L 357.278779 385.360753 
L 357.730912 385.232046 
L 357.842069 385.075758 
L 358.052536 384.726409 
L 358.196784 384.570121 
L 358.325295 384.3219 
L 359.038018 383.522075 
L 359.353368 383.374981 
L 359.602977 383.007245 
L 360.21249 382.12468 
L 360.445125 381.858072 
L 361.056723 381.710977 
L 361.556923 381.03986 
L 361.918787 380.690511 
L 362.219306 380.396323 
L 362.587925 380.240035 
L 362.962298 379.421823 
L 363.236008 379.155215 
L 363.737673 378.27265 
L 364.31729 378.061202 
L 364.426662 377.822174 
L 364.576275 377.665886 
L 364.802087 377.334924 
L 365.385141 376.479939 
L 365.978281 376.323651 
L 366.03159 376.139783 
L 366.140016 376.029463 
L 366.539172 375.505439 
L 366.6452 375.303185 
L 366.822093 375.091737 
L 366.92545 374.815935 
L 367.211073 374.622874 
L 367.57933 374.494167 
L 367.685296 374.135624 
L 367.9156 373.749502 
L 368.005669 373.39096 
L 368.155436 373.225479 
L 368.228025 373.050804 
L 368.381366 372.922097 
L 368.483418 372.747423 
L 368.558672 372.600328 
L 368.67243 372.416461 
L 369.333609 371.874051 
L 369.45762 371.607442 
L 369.565885 371.460348 
L 369.670981 371.331641 
L 369.883779 371.046646 
L 369.993325 370.844391 
L 370.074371 370.669717 
L 370.179945 370.504236 
L 370.271275 370.21924 
L 370.289391 370.08134 
L 370.809958 369.934245 
L 371.144191 369.373449 
L 371.255307 369.097647 
L 371.425319 368.766685 
L 371.533014 368.601204 
L 372.089451 367.737025 
L 372.198952 367.553157 
L 372.503673 367.39687 
L 372.61063 367.203809 
L 372.724139 366.9372 
L 372.818564 366.817686 
L 372.979747 366.661399 
L 373.652852 365.833994 
L 374.127045 365.677706 
L 374.260606 365.539805 
L 374.361934 365.392711 
L 374.452484 365.264004 
L 374.547461 365.116909 
L 374.719763 364.905461 
L 374.793937 364.703207 
L 374.970925 364.574499 
L 375.050978 364.418212 
L 375.198119 364.271117 
L 375.241121 364.151603 
L 375.89436 363.967736 
L 376.327861 363.535646 
L 376.413279 363.342585 
L 376.572815 363.195491 
L 376.694854 362.928883 
L 376.800161 362.616307 
L 376.952047 362.340506 
L 377.020584 362.248572 
L 377.467083 362.110671 
L 377.522078 361.935996 
L 377.616483 361.641808 
L 377.740056 361.476327 
L 378.118334 360.814403 
L 378.224832 360.667309 
L 378.311145 360.593762 
L 378.471531 360.428281 
L 378.526621 360.170866 
L 379.119777 360.042158 
L 379.143212 359.986998 
L 379.503393 359.849097 
L 379.774212 359.472168 
L 380.091491 359.269914 
L 380.188752 359.132013 
L 380.29547 358.984918 
L 380.363444 358.865404 
L 381.040838 358.681537 
L 381.177953 358.304608 
L 381.286235 357.872518 
L 381.548913 357.569136 
L 381.645758 357.348495 
L 381.725245 357.201401 
L 381.800053 357.0635 
L 382.253748 356.861245 
L 382.404954 356.695764 
L 382.523139 356.401576 
L 382.629632 356.199321 
L 382.736062 356.015454 
L 382.84506 355.647718 
L 383.286634 354.755959 
L 383.473096 354.544511 
L 383.54343 354.470964 
L 384.092297 354.241129 
L 384.201664 353.974521 
L 384.32757 353.689526 
L 384.435765 353.551625 
L 384.645023 353.303404 
L 384.90782 353.119536 
L 385.134508 352.632286 
L 385.759469 352.393258 
L 385.862106 352.218584 
L 386.115011 351.823268 
L 386.225925 351.593433 
L 386.861646 350.572967 
L 387.24843 350.343132 
L 387.345715 350.140878 
L 387.483855 349.95701 
L 387.775096 349.616855 
L 387.924627 349.451374 
L 388.025529 349.000897 
L 388.188757 348.771063 
L 388.262015 348.679129 
L 388.350324 348.550421 
L 388.696348 348.24704 
L 388.967116 348.127525 
L 389.07682 347.943658 
L 389.499128 347.254153 
L 389.603914 346.978352 
L 389.765828 346.75771 
L 389.876492 346.527876 
L 389.967349 346.417555 
L 390.637915 346.242881 
L 390.7055 346.114173 
L 390.816428 345.967079 
L 390.955806 345.810791 
L 391.054682 345.498216 
L 391.223106 345.259188 
L 391.419708 344.827099 
L 391.478733 344.680004 
L 391.589783 344.284689 
L 391.722661 344.027274 
L 391.801624 343.889373 
L 391.927797 343.742279 
L 392.028448 343.714698 
L 392.439662 343.310189 
L 392.519617 343.117128 
L 392.627845 342.979227 
L 393.01623 342.33569 
L 393.074121 342.206983 
L 393.113692 342.023115 
L 393.224384 341.7657 
L 393.737456 340.846361 
L 393.841692 340.754427 
L 394.234447 340.267177 
L 394.345683 340.11089 
L 395.064744 339.283485 
L 395.634808 339.163971 
L 395.971162 338.621561 
L 396.064594 338.410113 
L 396.358675 338.263018 
L 396.420672 338.125118 
L 396.492339 337.99641 
L 396.770087 337.830929 
L 396.846961 337.812542 
L 397.444365 337.683835 
L 397.660154 337.325293 
L 397.718086 337.159812 
L 397.825995 336.994331 
L 397.987584 336.865623 
L 398.192452 336.773689 
L 398.276745 336.608208 
L 398.382957 336.240473 
L 398.431921 336.047412 
L 398.534911 335.707256 
L 398.85247 335.394681 
L 398.936591 335.155653 
L 399.140747 335.026945 
L 399.267113 334.879851 
L 399.683553 334.208734 
L 399.759353 334.181154 
L 399.823746 334.061639 
L 399.966106 333.886965 
L 400.474137 333.675517 
L 401.087571 332.829725 
L 401.281081 332.480376 
L 401.384504 332.370056 
L 401.545809 332.195381 
L 401.566443 332.149414 
L 402.035026 332.020707 
L 402.218912 331.680552 
L 402.611417 331.046208 
L 402.756075 330.761213 
L 402.910161 330.558958 
L 403.030141 330.338317 
L 403.151501 330.080902 
L 403.261306 330.007355 
L 403.776173 329.713166 
L 403.935145 329.492525 
L 404.191082 329.097209 
L 404.504301 328.518026 
L 404.639292 328.260611 
L 405.106479 327.846908 
L 405.34467 327.709007 
L 405.512676 327.424012 
L 405.63896 327.258531 
L 405.775854 326.964343 
L 405.886703 326.789668 
L 406.309594 325.888716 
L 406.422618 325.714042 
L 406.520496 325.511787 
L 407.12683 325.088891 
L 407.222239 324.86825 
L 407.406125 324.647609 
L 407.51655 324.491321 
L 407.710243 324.105199 
L 407.816183 323.856977 
L 407.925077 323.673109 
L 408.055968 323.29618 
L 408.268534 323.195053 
L 408.780441 322.808931 
L 408.882118 322.514742 
L 408.957638 322.340068 
L 409.059598 322.18378 
L 409.266614 321.926365 
L 409.377007 321.512663 
L 409.63656 320.979446 
L 409.800628 320.767998 
L 410.028276 320.55655 
L 410.274576 320.400263 
L 410.383035 320.179621 
L 410.511149 319.894626 
L 410.625487 319.701565 
L 412.082555 317.210157 
L 412.12821 317.081449 
L 412.287136 316.824034 
L 412.361383 316.557426 
L 412.722179 315.748408 
L 413.719328 315.288738 
L 413.799542 315.187611 
L 413.97721 315.040517 
L 414.080203 314.893422 
L 414.896536 314.240692 
L 415.303407 314.084404 
L 415.96278 313.615541 
L 417.027116 313.312159 
L 417.09832 313.247806 
L 417.32373 313.119098 
L 417.432244 313.063938 
L 417.530973 312.93523 
L 417.610441 312.705396 
L 417.713239 312.503141 
L 417.811386 312.346853 
L 418.044549 311.969924 
L 418.14523 311.657349 
L 418.199845 311.501062 
L 418.303311 311.262033 
L 418.617372 310.885105 
L 418.71658 310.600109 
L 418.843011 310.407048 
L 418.95497 310.287534 
L 419.111372 310.094473 
L 419.219249 309.855445 
L 419.495129 309.59803 
L 419.616804 309.515289 
L 419.736268 309.450936 
L 420.40828 309.267068 
L 420.4146 309.257875 
L 420.819733 309.129167 
L 420.916088 309.046427 
L 421.30805 308.917719 
L 422.11731 308.798205 
L 422.596253 307.934026 
L 423.256633 307.501937 
L 423.46003 307.318069 
L 423.570322 307.125008 
L 424.030099 306.444697 
L 424.160503 306.28841 
L 424.409663 306.030995 
L 424.887249 305.598906 
L 425.156364 305.470198 
L 425.853864 304.651986 
L 426.047866 304.265864 
L 426.187515 304.072803 
L 426.272795 303.925709 
L 426.948307 303.613133 
L 427.242915 303.272978 
L 427.344233 303.107497 
L 427.834129 302.344446 
L 427.926074 302.206545 
L 428.48724 302.041064 
L 428.598601 301.710102 
L 428.709015 301.590588 
L 429.070745 301.222852 
L 429.885608 300.331093 
L 430.107113 300.202386 
L 430.238221 299.843844 
L 430.543485 299.338207 
L 431.552217 298.06952 
L 431.807006 297.904039 
L 431.891497 297.747751 
L 431.993788 297.60985 
L 432.131643 297.343242 
L 432.444935 296.966313 
L 432.80281 296.387129 
L 433.446558 296.203261 
L 433.919733 295.697625 
L 434.076889 295.329889 
L 434.230369 294.962154 
L 434.341076 294.667965 
L 434.49495 294.281843 
L 434.668302 294.079588 
L 434.769084 293.904914 
L 434.942417 293.73024 
L 435.173978 293.353311 
L 435.333421 292.893641 
L 435.423876 292.72816 
L 435.867269 292.066236 
L 436.064007 291.891562 
L 436.140585 291.854788 
L 436.70552 291.735274 
L 436.979105 291.459472 
L 437.452653 291.293991 
L 437.637198 291.192864 
L 438.594714 290.779162 
L 438.704318 290.641261 
L 439.493649 290.01611 
L 439.99688 289.887403 
L 440.098274 289.703535 
L 440.205491 289.41854 
L 440.568472 288.444041 
L 440.661167 288.149852 
L 440.84687 287.993565 
L 441.407036 287.70857 
L 441.739303 287.175353 
L 441.841633 286.936325 
L 441.996227 286.688103 
L 442.293448 286.274401 
L 442.396417 286.035373 
L 442.544458 285.860698 
L 442.956838 285.53893 
L 443.217245 285.401029 
L 444.293866 284.003634 
L 444.346569 283.93928 
L 444.780206 283.801379 
L 445.214384 283.277356 
L 445.322796 283.056714 
L 445.441526 282.900427 
L 445.546376 282.790106 
L 445.807153 282.39479 
L 445.961122 282.073022 
L 446.454257 281.85238 
L 446.62399 281.539805 
L 446.758622 281.374324 
L 446.874355 281.218037 
L 446.984331 280.969815 
L 447.475378 280.022896 
L 447.644401 279.875802 
L 447.664314 279.857415 
L 448.104893 279.710321 
L 448.141791 279.54484 
L 448.252858 279.296618 
L 448.464971 278.965656 
L 448.57037 278.745015 
L 448.643027 278.51518 
L 448.730789 278.257765 
L 448.876198 278.110671 
L 449.694511 277.421167 
L 449.865185 277.283266 
L 449.963248 277.182139 
L 450.078573 277.035044 
L 450.202923 276.878757 
L 450.401806 276.704082 
L 450.510937 276.538601 
L 450.929194 276.180059 
L 451.374608 276.042158 
L 451.437173 275.876677 
L 451.528098 275.711196 
L 451.693213 275.545715 
L 451.773566 275.398621 
L 452.12598 274.847018 
L 452.210131 274.672343 
L 452.587215 274.14832 
L 452.926392 274.028806 
L 453.1891 273.679457 
L 453.414988 273.238174 
L 454.059979 272.328029 
L 454.16015 272.208515 
L 454.219447 272.079807 
L 454.880169 271.656911 
L 454.987733 271.519011 
L 455.122226 271.298369 
L 455.569579 270.590478 
L 455.786603 270.360644 
L 456.460353 270.011295 
L 456.55961 269.864201 
L 456.676458 269.717106 
L 456.859798 269.588399 
L 456.954405 269.312597 
L 457.05963 269.119536 
L 457.196963 268.972442 
L 457.706057 268.420838 
L 458.105181 268.236971 
L 458.233113 267.878428 
L 458.411468 267.565853 
L 458.509795 267.455532 
L 458.846089 267.142957 
L 458.92028 267.106184 
L 459.698051 266.876349 
L 460.008528 266.508613 
L 460.381781 266.343132 
L 461.66478 265.791529 
L 461.773103 265.341053 
L 461.828557 265.175572 
L 461.925358 264.973317 
L 462.062995 264.771063 
L 462.158801 264.412521 
L 462.246558 264.24704 
L 462.345445 263.998818 
L 463.297767 263.254153 
L 463.487446 263.042705 
L 463.712497 262.840451 
L 463.822786 262.67497 
L 464.043244 262.344008 
L 464.573957 262.150947 
L 464.662473 262.0774 
L 464.729158 261.948692 
L 464.831931 261.774018 
L 465.339029 261.231608 
L 465.430604 261.093707 
L 465.638573 260.955806 
L 465.828923 260.808712 
L 466.179333 260.578877 
L 467.548514 258.758586 
L 467.953898 258.611492 
L 468.329513 258.28053 
L 468.609611 258.013921 
L 469.443139 257.554252 
L 469.619136 257.407158 
L 469.914019 257.094582 
L 470.164634 256.901521 
L 470.586309 256.441852 
L 470.663626 256.359111 
L 471.228814 256.175244 
L 471.38863 255.954602 
L 471.505853 255.752348 
L 471.686569 255.577673 
L 471.908615 255.283485 
L 472.593158 254.713495 
L 472.861859 254.584787 
L 472.962609 254.382533 
L 473.108586 254.235438 
L 473.201474 254.069957 
L 473.359734 253.932056 
L 473.884394 253.233359 
L 473.982228 253.132232 
L 474.605337 252.975944 
L 474.860757 252.755303 
L 474.968243 252.442727 
L 475.211717 252.065798 
L 475.321769 251.946284 
L 475.415348 251.789997 
L 475.517754 251.560162 
L 475.8187 251.449841 
L 476.185427 251.330327 
L 476.336004 251.045332 
L 476.442992 250.824691 
L 476.657778 250.539696 
L 476.766952 250.328248 
L 476.989227 250.034059 
L 477.092788 249.905352 
L 477.192162 249.767451 
L 477.401164 249.721484 
L 477.678316 249.565196 
L 478.144492 248.866499 
L 478.336567 248.682631 
L 478.401003 248.618277 
L 478.521554 248.48957 
L 478.601512 248.388443 
L 478.772121 248.232155 
L 478.834314 248.039094 
L 478.9238 247.873613 
L 479.374802 247.662165 
L 480.202086 246.669279 
L 480.309952 246.595732 
L 480.61699 246.37509 
L 481.137166 246.172836 
L 481.274321 246.099289 
L 482.31746 245.464945 
L 482.740543 245.31785 
L 483.65216 244.60996 
L 483.81125 244.536412 
L 484.393129 244.352545 
L 484.567 244.003196 
L 484.672625 243.644654 
L 484.730892 243.460786 
L 484.838121 243.322885 
L 484.919072 243.175791 
L 485.023155 242.918376 
L 485.05021 242.762088 
L 485.159672 242.504673 
L 485.241338 242.348386 
L 485.437251 242.118551 
L 485.697145 241.98065 
L 485.781804 241.92549 
L 486.023348 241.769202 
L 486.134499 241.585334 
L 486.235415 241.447434 
L 486.363898 241.281953 
L 486.465583 241.144052 
L 486.536035 241.006151 
L 486.638821 240.721156 
L 486.800018 240.472934 
L 486.902184 240.371807 
L 487.780382 239.884557 
L 488.611092 239.075539 
L 488.720674 238.818124 
L 489.310795 238.523936 
L 489.600388 238.165393 
L 489.791272 237.880398 
L 489.91163 237.696531 
L 490.152442 237.429922 
L 490.533964 237.034607 
L 491.031678 236.832352 
L 491.109273 236.630097 
L 491.220438 236.455423 
L 491.451115 236.198008 
L 491.666923 235.913013 
L 491.801898 235.811886 
L 491.910569 235.683178 
L 491.989148 235.582051 
L 492.548212 235.352216 
L 492.649947 235.168348 
L 492.742786 234.993674 
L 492.857067 234.828193 
L 493.91059 233.531925 
L 494.216241 233.403218 
L 494.310676 233.200963 
L 494.541705 232.998709 
L 494.645921 232.888388 
L 494.744746 232.750487 
L 494.850523 232.557426 
L 495.395695 231.923082 
L 495.813565 231.785181 
L 496.377127 231.196804 
L 496.512991 231.003743 
L 496.894866 230.323432 
L 496.993008 230.139564 
L 498.632239 229.532801 
L 499.236506 229.348933 
L 499.566998 229.082325 
L 499.765313 228.926037 
L 499.866111 228.668622 
L 500.000355 228.457174 
L 500.104003 228.264113 
L 500.976675 227.583802 
L 501.209818 227.326387 
L 501.41364 227.1701 
L 501.745015 226.885105 
L 502.018445 226.701237 
L 502.427258 226.581723 
L 503.0532 225.800285 
L 503.148117 225.763511 
L 503.492545 225.57045 
L 503.620194 225.496903 
L 504.156527 225.322228 
L 504.337406 225.184327 
L 504.461561 225.018846 
L 504.67856 224.752238 
L 505.232694 224.402889 
L 506.313177 224.090314 
L 506.398103 223.989187 
L 506.696191 223.805319 
L 506.803696 223.731772 
L 507.107568 223.557098 
L 507.604176 223.37323 
L 507.912369 223.134202 
L 508.209865 222.922754 
L 508.319648 222.683726 
L 508.44315 222.481471 
L 508.551913 222.37115 
L 509.374849 221.571325 
L 509.474604 221.461005 
L 509.727745 221.20359 
L 509.996017 220.936982 
L 510.063466 220.799081 
L 510.942759 220.229091 
L 511.108549 220.008449 
L 511.431932 219.677487 
L 511.59656 219.374105 
L 511.722983 219.217818 
L 511.804885 219.125884 
L 512.560342 218.794922 
L 512.921515 218.445573 
L 513.177137 218.096224 
L 513.330763 217.958323 
L 513.420132 217.811229 
L 514.098269 217.415913 
L 514.208158 217.195272 
L 515.280219 215.908197 
L 515.582623 215.75191 
L 515.961792 215.172726 
L 516.075828 215.089986 
L 516.402097 214.777411 
L 516.494591 214.713057 
L 516.598199 214.556769 
L 516.684044 214.501609 
L 517.259774 214.20742 
L 517.369019 214.078713 
L 517.50708 213.940812 
L 517.579636 213.802911 
L 517.68806 213.655817 
L 517.801965 213.499529 
L 518.015337 213.214534 
L 518.422554 212.598577 
L 518.95018 212.368742 
L 519.413922 211.716012 
L 519.522503 211.522951 
L 520.009689 210.732319 
L 520.11886 210.621998 
L 520.245475 210.557645 
L 520.575828 210.428937 
L 520.676284 210.107169 
L 520.822367 209.868141 
L 520.929453 209.509598 
L 521.172043 209.21541 
L 521.43957 208.792514 
L 521.578406 208.64542 
L 521.915358 208.479939 
L 522.243457 208.351231 
L 522.423368 207.955916 
L 522.55474 207.753661 
L 522.665564 207.459472 
L 522.94245 206.852709 
L 523.034708 206.705615 
L 523.144374 206.55852 
L 523.521768 206.310299 
L 523.918151 206.126431 
L 524.638542 205.694342 
L 524.86176 205.547247 
L 525.80788 205.014031 
L 525.909807 204.802583 
L 525.987541 204.655489 
L 526.096136 204.3613 
L 526.299873 204.186626 
L 526.399355 204.021145 
L 527.450796 203.331641 
L 527.877547 202.862778 
L 528.073777 202.642136 
L 528.868639 201.943439 
L 529.026725 201.64925 
L 529.134169 201.53893 
L 529.291698 201.336675 
L 529.407868 201.0241 
L 529.745406 200.380563 
L 529.806473 200.251855 
L 530.197974 200.104761 
L 530.521205 199.727832 
L 530.62893 199.617511 
L 530.692705 199.47961 
L 530.771021 199.34171 
L 530.955699 199.213002 
L 531.267223 198.9372 
L 531.373852 198.716559 
L 531.438101 198.541885 
L 531.588211 198.385597 
L 531.954293 198.174149 
L 532.080514 197.962701 
L 532.183863 197.696093 
L 532.360166 197.420291 
L 532.458367 197.245617 
L 532.59542 197.089329 
L 532.782401 196.887075 
L 532.885492 196.776754 
L 533.105852 196.528532 
L 533.255179 196.464179 
L 533.751781 196.16999 
L 533.883202 195.995316 
L 534.032172 195.820641 
L 534.136936 195.609193 
L 534.27181 195.388552 
L 534.539015 194.938076 
L 534.728566 194.717435 
L 534.873795 194.57034 
L 535.628444 193.908416 
L 535.723394 193.724549 
L 535.866763 193.586648 
L 535.979015 193.264879 
L 536.223099 192.952304 
L 536.317659 192.86037 
L 536.388499 192.704082 
L 536.49875 192.612148 
L 536.980464 192.327153 
L 537.230739 191.738776 
L 537.35193 191.527328 
L 537.449101 191.361847 
L 537.566947 191.187173 
L 537.671572 191.067659 
L 537.743391 190.929758 
L 537.835368 190.74589 
L 537.963678 190.589603 
L 538.067739 190.313801 
L 538.803087 189.688651 
L 539.145764 189.302528 
L 539.30835 189.155434 
L 539.40973 188.999146 
L 539.503834 188.842859 
L 539.611572 188.622217 
L 539.68378 188.49351 
L 539.849013 188.328029 
L 540.267615 188.144161 
L 540.371016 188.043034 
L 540.537643 187.886746 
L 540.629427 187.776426 
L 540.768986 187.638525 
L 540.877451 187.473044 
L 541.112637 187.316756 
L 542.020708 187.068535 
L 542.139497 186.939827 
L 542.248661 186.820313 
L 542.357359 186.618058 
L 542.428998 186.37903 
L 542.527211 186.250323 
L 542.622481 186.048068 
L 542.789272 185.864201 
L 542.897518 185.643559 
L 543.001643 185.514852 
L 543.104233 185.23905 
L 543.822903 184.834541 
L 543.971341 184.705833 
L 544.507368 184.540352 
L 544.538525 184.512772 
L 545.641717 184.310518 
L 546.06679 184.062296 
L 546.178466 183.786494 
L 546.265554 183.55666 
L 546.384015 183.345212 
L 546.824792 183.060217 
L 547.613824 182.370712 
L 547.724823 182.196038 
L 547.891447 182.030557 
L 547.98771 181.95701 
L 548.474857 181.717982 
L 548.699465 181.432987 
L 548.825235 181.239926 
L 548.931486 181.120412 
L 549.289929 180.798643 
L 549.392044 180.642355 
L 549.486683 180.449294 
L 549.6322 180.173492 
L 550.050403 179.925271 
L 550.171501 179.75979 
L 550.267241 179.603502 
L 550.432623 179.438021 
L 550.514411 179.309314 
L 550.6163 179.171413 
L 550.769962 178.932385 
L 550.822439 178.803677 
L 550.875663 178.73013 
L 551.123616 178.592229 
L 551.343389 178.454329 
L 551.779865 178.307234 
L 552.888772 176.680004 
L 553.485556 176.349042 
L 554.068582 175.558411 
L 554.241437 175.42051 
L 554.33147 175.300996 
L 555.380379 174.776973 
L 555.479907 174.675845 
L 555.637449 174.519558 
L 555.74122 174.33569 
L 555.851776 174.188596 
L 555.963204 173.940374 
L 556.067225 173.774893 
L 556.288515 173.554252 
L 556.697793 173.416351 
L 556.82964 173.22329 
L 556.923945 173.103776 
L 557.032698 172.873941 
L 557.172518 172.634913 
L 557.284096 172.469432 
L 557.537256 171.963796 
L 557.698502 171.816701 
L 557.805487 171.697187 
L 557.961784 171.577673 
L 558.427473 171.357032 
L 558.52469 171.173164 
L 558.68409 170.989296 
L 558.780671 170.685914 
L 558.946615 170.465273 
L 559.049967 170.263018 
L 559.142654 170.060764 
L 559.248734 169.867703 
L 560.206261 169.141425 
L 560.305104 168.929977 
L 560.414822 168.755303 
L 560.700704 168.424341 
L 560.798503 168.31402 
L 560.86007 168.157732 
L 560.974052 167.973865 
L 561.190714 167.688869 
L 561.771465 167.376294 
L 561.877098 167.137266 
L 562.005789 166.870658 
L 562.112243 166.640823 
L 562.489469 166.098413 
L 562.803737 165.51923 
L 563.329713 165.261815 
L 563.436562 165.096334 
L 563.563196 164.921659 
L 564.460924 163.230076 
L 564.620157 163.174915 
L 564.978453 163.027821 
L 564.978456 163.018628 
L 565.249629 162.88992 
L 565.338327 162.825566 
L 565.688544 162.623312 
L 565.774169 162.522185 
L 565.97705 162.384284 
L 565.983239 162.365897 
L 566.470911 162.227996 
L 566.762998 162.090095 
L 566.879598 161.961388 
L 566.984968 161.768327 
L 567.07694 161.584459 
L 567.189415 161.032855 
L 567.704375 160.453672 
L 568.547668 160.012389 
L 568.609812 159.929649 
L 568.805413 159.791748 
L 569.641477 159.001116 
L 569.937888 158.808055 
L 570.042828 158.670154 
L 571.226429 157.309533 
L 571.518176 157.162438 
L 571.611809 157.042924 
L 571.822581 156.84067 
L 572.173261 156.546481 
L 572.491834 156.178746 
L 572.590169 156.031652 
L 573.157217 155.746656 
L 573.276863 155.581175 
L 573.388626 155.415694 
L 573.498324 155.21344 
L 573.69457 154.854898 
L 573.82527 154.72619 
L 573.890432 154.579096 
L 573.986747 154.330874 
L 574.113686 154.1562 
L 574.222093 153.880398 
L 574.444063 153.724111 
L 574.795605 153.549436 
L 574.932766 153.347182 
L 575.186636 153.108154 
L 575.289553 152.804772 
L 575.4479 152.538164 
L 575.543102 152.391069 
L 575.74266 152.188815 
L 575.922111 151.977367 
L 576.608319 151.508504 
L 576.70775 151.47173 
L 576.965601 151.251089 
L 577.069355 151.030448 
L 577.240793 150.782226 
L 577.35131 150.579972 
L 577.642407 150.35933 
L 578.153462 150.111109 
L 578.267104 149.872081 
L 579.312206 149.017095 
L 579.772356 148.833228 
L 579.868543 148.640166 
L 580.014955 148.483879 
L 580.682791 147.288738 
L 580.759464 147.114064 
L 580.870685 146.893422 
L 581.291348 146.626814 
L 581.595933 146.277465 
L 581.701893 146.066017 
L 581.852493 145.900536 
L 582.193514 144.742169 
L 582.301255 144.549108 
L 582.441279 144.374434 
L 582.575359 144.236533 
L 584.069614 143.758477 
L 584.144302 143.638962 
L 584.625537 143.482675 
L 584.766829 143.308 
L 585.031204 143.023005 
L 585.705916 142.434628 
L 586.234429 142.296728 
L 586.388099 142.122053 
L 586.542574 141.892218 
L 586.637243 141.772704 
L 586.736402 141.62561 
L 587.040438 141.359002 
L 587.157683 141.05562 
L 587.304173 140.899332 
L 587.400159 140.669498 
L 587.796775 140.559177 
L 587.996605 140.43047 
L 589.171795 139.272102 
L 589.312437 139.143395 
L 589.559218 138.987107 
L 589.748956 138.840013 
L 589.855495 138.692919 
L 591.213244 137.80116 
L 591.47707 137.644872 
L 591.663564 137.461005 
L 591.767316 137.369071 
L 592.062663 137.185203 
L 592.161496 137.130043 
L 592.903541 136.817467 
L 593.292182 136.587633 
L 593.750654 136.468119 
L 593.857457 136.385378 
L 594.012685 136.238284 
L 594.35956 136.072803 
L 594.648158 135.852162 
L 594.751326 135.6591 
L 594.867959 135.466039 
L 595.040228 135.153464 
L 595.155124 134.509927 
L 595.288883 134.307672 
L 595.390916 134.013484 
L 595.579969 133.820422 
L 595.683079 133.719295 
L 596.252428 133.553814 
L 596.358475 133.443493 
L 596.520661 133.222852 
L 596.632027 133.029791 
L 596.748622 132.910277 
L 596.87784 132.744796 
L 597.032282 132.524155 
L 598.156091 131.77949 
L 598.259168 131.696749 
L 598.43199 131.485302 
L 598.523886 131.430141 
L 598.762207 131.218693 
L 598.907338 131.053212 
L 599.555277 130.795797 
L 599.656951 130.731444 
L 600.049624 130.510802 
L 600.159688 130.308548 
L 600.27575 130.170647 
L 600.380823 129.885652 
L 600.504994 129.701784 
L 600.614671 129.563883 
L 601.276087 129.242114 
L 601.778304 128.938733 
L 601.928436 128.800832 
L 602.017759 128.699704 
L 602.047641 128.58019 
L 602.139374 128.331969 
L 602.290055 128.175681 
L 603.37556 127.136828 
L 603.483793 127.072475 
L 603.564423 126.8978 
L 603.664523 126.732319 
L 604.289609 126.38297 
L 604.725717 126.162329 
L 604.814189 126.042815 
L 605.122508 125.831367 
L 605.382225 125.325731 
L 606.170378 124.737354 
L 606.281349 124.636226 
L 606.570331 124.314458 
L 606.739903 124.121397 
L 606.905209 123.909949 
L 607.012686 123.845595 
L 607.398714 123.64334 
L 607.76299 123.477859 
L 608.392812 122.724001 
L 608.529353 122.47578 
L 608.639806 122.310299 
L 609.203272 122.01611 
L 609.420606 121.887403 
L 609.531879 121.675955 
L 610.127667 121.409347 
L 610.787886 121.170318 
L 611.279594 121.032418 
L 611.394348 120.655489 
L 611.596513 120.508394 
L 611.69502 120.260173 
L 612.123 119.938404 
L 612.984194 119.184546 
L 613.091372 119.055839 
L 613.366839 118.780037 
L 613.453655 118.614556 
L 613.660131 118.458269 
L 613.769696 118.347948 
L 613.838954 118.311174 
L 614.278595 118.173274 
L 614.364552 118.026179 
L 614.614588 117.833118 
L 615.15757 117.327482 
L 615.490734 116.932166 
L 615.952195 116.748298 
L 616.015478 116.610397 
L 616.432139 116.242662 
L 616.715568 115.865733 
L 616.875954 115.617511 
L 617.412029 115.314129 
L 617.506386 115.277356 
L 617.619334 115.139455 
L 617.771177 115.047521 
L 618.069276 114.90962 
L 618.175861 114.744139 
L 618.284154 114.606238 
L 618.394503 114.505111 
L 618.500882 114.431564 
L 619.158169 114.128182 
L 619.303741 113.962701 
L 619.412197 113.898347 
L 620.455243 112.988202 
L 620.967655 112.776754 
L 621.137064 112.602079 
L 621.57075 112.234344 
L 621.721616 112.041283 
L 621.808672 111.940155 
L 622.636364 111.6 
L 622.636364 111.6 
" style="fill:none;stroke:#92c6ff;stroke-linecap:round;stroke-width:1.5;"/>
   </g>
   <g id="line2d_26">
    <defs>
     <path d="M 0 2.5 
C 0.663008 2.5 1.29895 2.236584 1.767767 1.767767 
C 2.236584 1.29895 2.5 0.663008 2.5 0 
C 2.5 -0.663008 2.236584 -1.29895 1.767767 -1.767767 
C 1.29895 -2.236584 0.663008 -2.5 0 -2.5 
C -0.663008 -2.5 -1.29895 -2.236584 -1.767767 -1.767767 
C -2.236584 -1.29895 -2.5 -0.663008 -2.5 0 
C -2.5 0.663008 -2.236584 1.29895 -1.767767 1.767767 
C -1.29895 2.236584 -0.663008 2.5 0 2.5 
z
" id="mc07170b642" style="stroke:#696969;"/>
    </defs>
    <g clip-path="url(#p6e18e365db)">
     <use style="fill:#696969;stroke:#696969;" x="115.363636" xlink:href="#mc07170b642" y="615.6"/>
    </g>
   </g>
   <g id="line2d_27">
    <g clip-path="url(#p6e18e365db)">
     <use style="fill:#696969;stroke:#696969;" x="198.448771" xlink:href="#mc07170b642" y="565.192645"/>
    </g>
   </g>
   <g id="line2d_28">
    <g clip-path="url(#p6e18e365db)">
     <use style="fill:#696969;stroke:#696969;" x="242.777867" xlink:href="#mc07170b642" y="514.785291"/>
    </g>
   </g>
   <g id="line2d_29">
    <g clip-path="url(#p6e18e365db)">
     <use style="fill:#696969;stroke:#696969;" x="292.25282" xlink:href="#mc07170b642" y="464.377936"/>
    </g>
   </g>
   <g id="line2d_30">
    <g clip-path="url(#p6e18e365db)">
     <use style="fill:#696969;stroke:#696969;" x="331.715524" xlink:href="#mc07170b642" y="413.979775"/>
    </g>
   </g>
   <g id="line2d_31">
    <g clip-path="url(#p6e18e365db)">
     <use style="fill:#696969;stroke:#696969;" x="376.276409" xlink:href="#mc07170b642" y="363.581613"/>
    </g>
   </g>
   <g id="line2d_32">
    <g clip-path="url(#p6e18e365db)">
     <use style="fill:#696969;stroke:#696969;" x="417.256844" xlink:href="#mc07170b642" y="313.183452"/>
    </g>
   </g>
   <g id="line2d_33">
    <g clip-path="url(#p6e18e365db)">
     <use style="fill:#696969;stroke:#696969;" x="463.764335" xlink:href="#mc07170b642" y="262.785291"/>
    </g>
   </g>
   <g id="line2d_34">
    <g clip-path="url(#p6e18e365db)">
     <use style="fill:#696969;stroke:#696969;" x="518.946642" xlink:href="#mc07170b642" y="212.387129"/>
    </g>
   </g>
   <g id="line2d_35">
    <g clip-path="url(#p6e18e365db)">
     <use style="fill:#696969;stroke:#696969;" x="566.87943" xlink:href="#mc07170b642" y="161.988968"/>
    </g>
   </g>
   <g id="line2d_36">
    <g clip-path="url(#p6e18e365db)">
     <use style="fill:#696969;stroke:#696969;" x="622.636364" xlink:href="#mc07170b642" y="111.6"/>
    </g>
   </g>
   <g id="patch_3">
    <path d="M 90 640.8 
L 90 86.4 
" style="fill:none;stroke:#cccccc;stroke-linecap:square;stroke-linejoin:miter;"/>
   </g>
   <g id="patch_4">
    <path d="M 648 640.8 
L 648 86.4 
" style="fill:none;stroke:#cccccc;stroke-linecap:square;stroke-linejoin:miter;"/>
   </g>
   <g id="patch_5">
    <path d="M 90 640.8 
L 648 640.8 
" style="fill:none;stroke:#cccccc;stroke-linecap:square;stroke-linejoin:miter;"/>
   </g>
   <g id="patch_6">
    <path d="M 90 86.4 
L 648 86.4 
" style="fill:none;stroke:#cccccc;stroke-linecap:square;stroke-linejoin:miter;"/>
   </g>
   <g id="text_13">
    <!-- 1 (2014-06-07) -->
    <defs>
     <path id="DejaVuSans-32"/>
     <path d="M 31 75.875 
Q 24.46875 64.65625 21.28125 53.65625 
Q 18.109375 42.671875 18.109375 31.390625 
Q 18.109375 20.125 21.3125 9.0625 
Q 24.515625 -2 31 -13.1875 
L 23.1875 -13.1875 
Q 15.875 -1.703125 12.234375 9.375 
Q 8.59375 20.453125 8.59375 31.390625 
Q 8.59375 42.28125 12.203125 53.3125 
Q 15.828125 64.359375 23.1875 75.875 
z
" id="DejaVuSans-40"/>
     <path d="M 4.890625 31.390625 
L 31.203125 31.390625 
L 31.203125 23.390625 
L 4.890625 23.390625 
z
" id="DejaVuSans-45"/>
     <path d="M 8.015625 75.875 
L 15.828125 75.875 
Q 23.140625 64.359375 26.78125 53.3125 
Q 30.421875 42.28125 30.421875 31.390625 
Q 30.421875 20.453125 26.78125 9.375 
Q 23.140625 -1.703125 15.828125 -13.1875 
L 8.015625 -13.1875 
Q 14.5 -2 17.703125 9.0625 
Q 20.90625 20.125 20.90625 31.390625 
Q 20.90625 42.671875 17.703125 53.65625 
Q 14.5 64.65625 8.015625 75.875 
z
" id="DejaVuSans-41"/>
    </defs>
    <g style="fill:#262626;" transform="translate(120.363636 623.198437)scale(0.1 -0.1)">
     <use xlink:href="#DejaVuSans-49"/>
     <use x="63.623047" xlink:href="#DejaVuSans-32"/>
     <use x="95.410156" xlink:href="#DejaVuSans-40"/>
     <use x="134.423828" xlink:href="#DejaVuSans-50"/>
     <use x="198.046875" xlink:href="#DejaVuSans-48"/>
     <use x="261.669922" xlink:href="#DejaVuSans-49"/>
     <use x="325.292969" xlink:href="#DejaVuSans-52"/>
     <use x="388.916016" xlink:href="#DejaVuSans-45"/>
     <use x="425" xlink:href="#DejaVuSans-48"/>
     <use x="488.623047" xlink:href="#DejaVuSans-54"/>
     <use x="552.246094" xlink:href="#DejaVuSans-45"/>
     <use x="588.330078" xlink:href="#DejaVuSans-48"/>
     <use x="651.953125" xlink:href="#DejaVuSans-55"/>
     <use x="715.576172" xlink:href="#DejaVuSans-41"/>
    </g>
   </g>
   <g id="text_14">
    <!-- 5484 (2015-05-26) -->
    <g style="fill:#262626;" transform="translate(203.448771 572.791083)scale(0.1 -0.1)">
     <use xlink:href="#DejaVuSans-53"/>
     <use x="63.623047" xlink:href="#DejaVuSans-52"/>
     <use x="127.246094" xlink:href="#DejaVuSans-56"/>
     <use x="190.869141" xlink:href="#DejaVuSans-52"/>
     <use x="254.492188" xlink:href="#DejaVuSans-32"/>
     <use x="286.279297" xlink:href="#DejaVuSans-40"/>
     <use x="325.292969" xlink:href="#DejaVuSans-50"/>
     <use x="388.916016" xlink:href="#DejaVuSans-48"/>
     <use x="452.539062" xlink:href="#DejaVuSans-49"/>
     <use x="516.162109" xlink:href="#DejaVuSans-53"/>
     <use x="579.785156" xlink:href="#DejaVuSans-45"/>
     <use x="615.869141" xlink:href="#DejaVuSans-48"/>
     <use x="679.492188" xlink:href="#DejaVuSans-53"/>
     <use x="743.115234" xlink:href="#DejaVuSans-45"/>
     <use x="779.199219" xlink:href="#DejaVuSans-50"/>
     <use x="842.822266" xlink:href="#DejaVuSans-54"/>
     <use x="906.445312" xlink:href="#DejaVuSans-41"/>
    </g>
   </g>
   <g id="text_15">
    <!-- 10967 (2015-12-01) -->
    <g style="fill:#262626;" transform="translate(247.777867 522.383728)scale(0.1 -0.1)">
     <use xlink:href="#DejaVuSans-49"/>
     <use x="63.623047" xlink:href="#DejaVuSans-48"/>
     <use x="127.246094" xlink:href="#DejaVuSans-57"/>
     <use x="190.869141" xlink:href="#DejaVuSans-54"/>
     <use x="254.492188" xlink:href="#DejaVuSans-55"/>
     <use x="318.115234" xlink:href="#DejaVuSans-32"/>
     <use x="349.902344" xlink:href="#DejaVuSans-40"/>
     <use x="388.916016" xlink:href="#DejaVuSans-50"/>
     <use x="452.539062" xlink:href="#DejaVuSans-48"/>
     <use x="516.162109" xlink:href="#DejaVuSans-49"/>
     <use x="579.785156" xlink:href="#DejaVuSans-53"/>
     <use x="643.408203" xlink:href="#DejaVuSans-45"/>
     <use x="679.492188" xlink:href="#DejaVuSans-49"/>
     <use x="743.115234" xlink:href="#DejaVuSans-50"/>
     <use x="806.738281" xlink:href="#DejaVuSans-45"/>
     <use x="842.822266" xlink:href="#DejaVuSans-48"/>
     <use x="906.445312" xlink:href="#DejaVuSans-49"/>
     <use x="970.068359" xlink:href="#DejaVuSans-41"/>
    </g>
   </g>
   <g id="text_16">
    <!-- 16450 (2016-06-29) -->
    <g style="fill:#262626;" transform="translate(297.25282 471.976373)scale(0.1 -0.1)">
     <use xlink:href="#DejaVuSans-49"/>
     <use x="63.623047" xlink:href="#DejaVuSans-54"/>
     <use x="127.246094" xlink:href="#DejaVuSans-52"/>
     <use x="190.869141" xlink:href="#DejaVuSans-53"/>
     <use x="254.492188" xlink:href="#DejaVuSans-48"/>
     <use x="318.115234" xlink:href="#DejaVuSans-32"/>
     <use x="349.902344" xlink:href="#DejaVuSans-40"/>
     <use x="388.916016" xlink:href="#DejaVuSans-50"/>
     <use x="452.539062" xlink:href="#DejaVuSans-48"/>
     <use x="516.162109" xlink:href="#DejaVuSans-49"/>
     <use x="579.785156" xlink:href="#DejaVuSans-54"/>
     <use x="643.408203" xlink:href="#DejaVuSans-45"/>
     <use x="679.492188" xlink:href="#DejaVuSans-48"/>
     <use x="743.115234" xlink:href="#DejaVuSans-54"/>
     <use x="806.738281" xlink:href="#DejaVuSans-45"/>
     <use x="842.822266" xlink:href="#DejaVuSans-50"/>
     <use x="906.445312" xlink:href="#DejaVuSans-57"/>
     <use x="970.068359" xlink:href="#DejaVuSans-41"/>
    </g>
   </g>
   <g id="text_17">
    <!-- 21932 (2016-12-13) -->
    <g style="fill:#262626;" transform="translate(336.715524 421.578212)scale(0.1 -0.1)">
     <use xlink:href="#DejaVuSans-50"/>
     <use x="63.623047" xlink:href="#DejaVuSans-49"/>
     <use x="127.246094" xlink:href="#DejaVuSans-57"/>
     <use x="190.869141" xlink:href="#DejaVuSans-51"/>
     <use x="254.492188" xlink:href="#DejaVuSans-50"/>
     <use x="318.115234" xlink:href="#DejaVuSans-32"/>
     <use x="349.902344" xlink:href="#DejaVuSans-40"/>
     <use x="388.916016" xlink:href="#DejaVuSans-50"/>
     <use x="452.539062" xlink:href="#DejaVuSans-48"/>
     <use x="516.162109" xlink:href="#DejaVuSans-49"/>
     <use x="579.785156" xlink:href="#DejaVuSans-54"/>
     <use x="643.408203" xlink:href="#DejaVuSans-45"/>
     <use x="679.492188" xlink:href="#DejaVuSans-49"/>
     <use x="743.115234" xlink:href="#DejaVuSans-50"/>
     <use x="806.738281" xlink:href="#DejaVuSans-45"/>
     <use x="842.822266" xlink:href="#DejaVuSans-49"/>
     <use x="906.445312" xlink:href="#DejaVuSans-51"/>
     <use x="970.068359" xlink:href="#DejaVuSans-41"/>
    </g>
   </g>
   <g id="text_18">
    <!-- 27414 (2017-06-21) -->
    <g style="fill:#262626;" transform="translate(381.276409 371.180051)scale(0.1 -0.1)">
     <use xlink:href="#DejaVuSans-50"/>
     <use x="63.623047" xlink:href="#DejaVuSans-55"/>
     <use x="127.246094" xlink:href="#DejaVuSans-52"/>
     <use x="190.869141" xlink:href="#DejaVuSans-49"/>
     <use x="254.492188" xlink:href="#DejaVuSans-52"/>
     <use x="318.115234" xlink:href="#DejaVuSans-32"/>
     <use x="349.902344" xlink:href="#DejaVuSans-40"/>
     <use x="388.916016" xlink:href="#DejaVuSans-50"/>
     <use x="452.539062" xlink:href="#DejaVuSans-48"/>
     <use x="516.162109" xlink:href="#DejaVuSans-49"/>
     <use x="579.785156" xlink:href="#DejaVuSans-55"/>
     <use x="643.408203" xlink:href="#DejaVuSans-45"/>
     <use x="679.492188" xlink:href="#DejaVuSans-48"/>
     <use x="743.115234" xlink:href="#DejaVuSans-54"/>
     <use x="806.738281" xlink:href="#DejaVuSans-45"/>
     <use x="842.822266" xlink:href="#DejaVuSans-50"/>
     <use x="906.445312" xlink:href="#DejaVuSans-49"/>
     <use x="970.068359" xlink:href="#DejaVuSans-41"/>
    </g>
   </g>
   <g id="text_19">
    <!-- 32896 (2017-12-13) -->
    <g style="fill:#262626;" transform="translate(422.256844 320.781889)scale(0.1 -0.1)">
     <use xlink:href="#DejaVuSans-51"/>
     <use x="63.623047" xlink:href="#DejaVuSans-50"/>
     <use x="127.246094" xlink:href="#DejaVuSans-56"/>
     <use x="190.869141" xlink:href="#DejaVuSans-57"/>
     <use x="254.492188" xlink:href="#DejaVuSans-54"/>
     <use x="318.115234" xlink:href="#DejaVuSans-32"/>
     <use x="349.902344" xlink:href="#DejaVuSans-40"/>
     <use x="388.916016" xlink:href="#DejaVuSans-50"/>
     <use x="452.539062" xlink:href="#DejaVuSans-48"/>
     <use x="516.162109" xlink:href="#DejaVuSans-49"/>
     <use x="579.785156" xlink:href="#DejaVuSans-55"/>
     <use x="643.408203" xlink:href="#DejaVuSans-45"/>
     <use x="679.492188" xlink:href="#DejaVuSans-49"/>
     <use x="743.115234" xlink:href="#DejaVuSans-50"/>
     <use x="806.738281" xlink:href="#DejaVuSans-45"/>
     <use x="842.822266" xlink:href="#DejaVuSans-49"/>
     <use x="906.445312" xlink:href="#DejaVuSans-51"/>
     <use x="970.068359" xlink:href="#DejaVuSans-41"/>
    </g>
   </g>
   <g id="text_20">
    <!-- 38378 (2018-06-29) -->
    <g style="fill:#262626;" transform="translate(468.764335 270.383728)scale(0.1 -0.1)">
     <use xlink:href="#DejaVuSans-51"/>
     <use x="63.623047" xlink:href="#DejaVuSans-56"/>
     <use x="127.246094" xlink:href="#DejaVuSans-51"/>
     <use x="190.869141" xlink:href="#DejaVuSans-55"/>
     <use x="254.492188" xlink:href="#DejaVuSans-56"/>
     <use x="318.115234" xlink:href="#DejaVuSans-32"/>
     <use x="349.902344" xlink:href="#DejaVuSans-40"/>
     <use x="388.916016" xlink:href="#DejaVuSans-50"/>
     <use x="452.539062" xlink:href="#DejaVuSans-48"/>
     <use x="516.162109" xlink:href="#DejaVuSans-49"/>
     <use x="579.785156" xlink:href="#DejaVuSans-56"/>
     <use x="643.408203" xlink:href="#DejaVuSans-45"/>
     <use x="679.492188" xlink:href="#DejaVuSans-48"/>
     <use x="743.115234" xlink:href="#DejaVuSans-54"/>
     <use x="806.738281" xlink:href="#DejaVuSans-45"/>
     <use x="842.822266" xlink:href="#DejaVuSans-50"/>
     <use x="906.445312" xlink:href="#DejaVuSans-57"/>
     <use x="970.068359" xlink:href="#DejaVuSans-41"/>
    </g>
   </g>
   <g id="text_21">
    <!-- 43860 (2019-02-18) -->
    <g style="fill:#262626;" transform="translate(523.946642 219.985567)scale(0.1 -0.1)">
     <use xlink:href="#DejaVuSans-52"/>
     <use x="63.623047" xlink:href="#DejaVuSans-51"/>
     <use x="127.246094" xlink:href="#DejaVuSans-56"/>
     <use x="190.869141" xlink:href="#DejaVuSans-54"/>
     <use x="254.492188" xlink:href="#DejaVuSans-48"/>
     <use x="318.115234" xlink:href="#DejaVuSans-32"/>
     <use x="349.902344" xlink:href="#DejaVuSans-40"/>
     <use x="388.916016" xlink:href="#DejaVuSans-50"/>
     <use x="452.539062" xlink:href="#DejaVuSans-48"/>
     <use x="516.162109" xlink:href="#DejaVuSans-49"/>
     <use x="579.785156" xlink:href="#DejaVuSans-57"/>
     <use x="643.408203" xlink:href="#DejaVuSans-45"/>
     <use x="679.492188" xlink:href="#DejaVuSans-48"/>
     <use x="743.115234" xlink:href="#DejaVuSans-50"/>
     <use x="806.738281" xlink:href="#DejaVuSans-45"/>
     <use x="842.822266" xlink:href="#DejaVuSans-49"/>
     <use x="906.445312" xlink:href="#DejaVuSans-56"/>
     <use x="970.068359" xlink:href="#DejaVuSans-41"/>
    </g>
   </g>
   <g id="text_22">
    <!-- 49342 (2019-09-10) -->
    <g style="fill:#262626;" transform="translate(571.87943 169.587405)scale(0.1 -0.1)">
     <use xlink:href="#DejaVuSans-52"/>
     <use x="63.623047" xlink:href="#DejaVuSans-57"/>
     <use x="127.246094" xlink:href="#DejaVuSans-51"/>
     <use x="190.869141" xlink:href="#DejaVuSans-52"/>
     <use x="254.492188" xlink:href="#DejaVuSans-50"/>
     <use x="318.115234" xlink:href="#DejaVuSans-32"/>
     <use x="349.902344" xlink:href="#DejaVuSans-40"/>
     <use x="388.916016" xlink:href="#DejaVuSans-50"/>
     <use x="452.539062" xlink:href="#DejaVuSans-48"/>
     <use x="516.162109" xlink:href="#DejaVuSans-49"/>
     <use x="579.785156" xlink:href="#DejaVuSans-57"/>
     <use x="643.408203" xlink:href="#DejaVuSans-45"/>
     <use x="679.492188" xlink:href="#DejaVuSans-48"/>
     <use x="743.115234" xlink:href="#DejaVuSans-57"/>
     <use x="806.738281" xlink:href="#DejaVuSans-45"/>
     <use x="842.822266" xlink:href="#DejaVuSans-49"/>
     <use x="906.445312" xlink:href="#DejaVuSans-48"/>
     <use x="970.068359" xlink:href="#DejaVuSans-41"/>
    </g>
   </g>
   <g id="text_23">
    <!-- 54823 (2020-05-05) -->
    <g style="fill:#262626;" transform="translate(627.636364 119.198437)scale(0.1 -0.1)">
     <use xlink:href="#DejaVuSans-53"/>
     <use x="63.623047" xlink:href="#DejaVuSans-52"/>
     <use x="127.246094" xlink:href="#DejaVuSans-56"/>
     <use x="190.869141" xlink:href="#DejaVuSans-50"/>
     <use x="254.492188" xlink:href="#DejaVuSans-51"/>
     <use x="318.115234" xlink:href="#DejaVuSans-32"/>
     <use x="349.902344" xlink:href="#DejaVuSans-40"/>
     <use x="388.916016" xlink:href="#DejaVuSans-50"/>
     <use x="452.539062" xlink:href="#DejaVuSans-48"/>
     <use x="516.162109" xlink:href="#DejaVuSans-50"/>
     <use x="579.785156" xlink:href="#DejaVuSans-48"/>
     <use x="643.408203" xlink:href="#DejaVuSans-45"/>
     <use x="679.492188" xlink:href="#DejaVuSans-48"/>
     <use x="743.115234" xlink:href="#DejaVuSans-53"/>
     <use x="806.738281" xlink:href="#DejaVuSans-45"/>
     <use x="842.822266" xlink:href="#DejaVuSans-48"/>
     <use x="906.445312" xlink:href="#DejaVuSans-53"/>
     <use x="970.068359" xlink:href="#DejaVuSans-41"/>
    </g>
   </g>
   <g id="text_24">
    <!-- Closed PRs over time -->
    <defs>
     <path d="M 64.40625 67.28125 
L 64.40625 56.890625 
Q 59.421875 61.53125 53.78125 63.8125 
Q 48.140625 66.109375 41.796875 66.109375 
Q 29.296875 66.109375 22.65625 58.46875 
Q 16.015625 50.828125 16.015625 36.375 
Q 16.015625 21.96875 22.65625 14.328125 
Q 29.296875 6.6875 41.796875 6.6875 
Q 48.140625 6.6875 53.78125 8.984375 
Q 59.421875 11.28125 64.40625 15.921875 
L 64.40625 5.609375 
Q 59.234375 2.09375 53.4375 0.328125 
Q 47.65625 -1.421875 41.21875 -1.421875 
Q 24.65625 -1.421875 15.125 8.703125 
Q 5.609375 18.84375 5.609375 36.375 
Q 5.609375 53.953125 15.125 64.078125 
Q 24.65625 74.21875 41.21875 74.21875 
Q 47.75 74.21875 53.53125 72.484375 
Q 59.328125 70.75 64.40625 67.28125 
z
" id="DejaVuSans-67"/>
     <path d="M 9.421875 75.984375 
L 18.40625 75.984375 
L 18.40625 0 
L 9.421875 0 
z
" id="DejaVuSans-108"/>
     <path d="M 30.609375 48.390625 
Q 23.390625 48.390625 19.1875 42.75 
Q 14.984375 37.109375 14.984375 27.296875 
Q 14.984375 17.484375 19.15625 11.84375 
Q 23.34375 6.203125 30.609375 6.203125 
Q 37.796875 6.203125 41.984375 11.859375 
Q 46.1875 17.53125 46.1875 27.296875 
Q 46.1875 37.015625 41.984375 42.703125 
Q 37.796875 48.390625 30.609375 48.390625 
z
M 30.609375 56 
Q 42.328125 56 49.015625 48.375 
Q 55.71875 40.765625 55.71875 27.296875 
Q 55.71875 13.875 49.015625 6.21875 
Q 42.328125 -1.421875 30.609375 -1.421875 
Q 18.84375 -1.421875 12.171875 6.21875 
Q 5.515625 13.875 5.515625 27.296875 
Q 5.515625 40.765625 12.171875 48.375 
Q 18.84375 56 30.609375 56 
z
" id="DejaVuSans-111"/>
     <path d="M 44.28125 53.078125 
L 44.28125 44.578125 
Q 40.484375 46.53125 36.375 47.5 
Q 32.28125 48.484375 27.875 48.484375 
Q 21.1875 48.484375 17.84375 46.4375 
Q 14.5 44.390625 14.5 40.28125 
Q 14.5 37.15625 16.890625 35.375 
Q 19.28125 33.59375 26.515625 31.984375 
L 29.59375 31.296875 
Q 39.15625 29.25 43.1875 25.515625 
Q 47.21875 21.78125 47.21875 15.09375 
Q 47.21875 7.46875 41.1875 3.015625 
Q 35.15625 -1.421875 24.609375 -1.421875 
Q 20.21875 -1.421875 15.453125 -0.5625 
Q 10.6875 0.296875 5.421875 2 
L 5.421875 11.28125 
Q 10.40625 8.6875 15.234375 7.390625 
Q 20.0625 6.109375 24.8125 6.109375 
Q 31.15625 6.109375 34.5625 8.28125 
Q 37.984375 10.453125 37.984375 14.40625 
Q 37.984375 18.0625 35.515625 20.015625 
Q 33.0625 21.96875 24.703125 23.78125 
L 21.578125 24.515625 
Q 13.234375 26.265625 9.515625 29.90625 
Q 5.8125 33.546875 5.8125 39.890625 
Q 5.8125 47.609375 11.28125 51.796875 
Q 16.75 56 26.8125 56 
Q 31.78125 56 36.171875 55.265625 
Q 40.578125 54.546875 44.28125 53.078125 
z
" id="DejaVuSans-115"/>
     <path d="M 56.203125 29.59375 
L 56.203125 25.203125 
L 14.890625 25.203125 
Q 15.484375 15.921875 20.484375 11.0625 
Q 25.484375 6.203125 34.421875 6.203125 
Q 39.59375 6.203125 44.453125 7.46875 
Q 49.3125 8.734375 54.109375 11.28125 
L 54.109375 2.78125 
Q 49.265625 0.734375 44.1875 -0.34375 
Q 39.109375 -1.421875 33.890625 -1.421875 
Q 20.796875 -1.421875 13.15625 6.1875 
Q 5.515625 13.8125 5.515625 26.8125 
Q 5.515625 40.234375 12.765625 48.109375 
Q 20.015625 56 32.328125 56 
Q 43.359375 56 49.78125 48.890625 
Q 56.203125 41.796875 56.203125 29.59375 
z
M 47.21875 32.234375 
Q 47.125 39.59375 43.09375 43.984375 
Q 39.0625 48.390625 32.421875 48.390625 
Q 24.90625 48.390625 20.390625 44.140625 
Q 15.875 39.890625 15.1875 32.171875 
z
" id="DejaVuSans-101"/>
     <path d="M 45.40625 46.390625 
L 45.40625 75.984375 
L 54.390625 75.984375 
L 54.390625 0 
L 45.40625 0 
L 45.40625 8.203125 
Q 42.578125 3.328125 38.25 0.953125 
Q 33.9375 -1.421875 27.875 -1.421875 
Q 17.96875 -1.421875 11.734375 6.484375 
Q 5.515625 14.40625 5.515625 27.296875 
Q 5.515625 40.1875 11.734375 48.09375 
Q 17.96875 56 27.875 56 
Q 33.9375 56 38.25 53.625 
Q 42.578125 51.265625 45.40625 46.390625 
z
M 14.796875 27.296875 
Q 14.796875 17.390625 18.875 11.75 
Q 22.953125 6.109375 30.078125 6.109375 
Q 37.203125 6.109375 41.296875 11.75 
Q 45.40625 17.390625 45.40625 27.296875 
Q 45.40625 37.203125 41.296875 42.84375 
Q 37.203125 48.484375 30.078125 48.484375 
Q 22.953125 48.484375 18.875 42.84375 
Q 14.796875 37.203125 14.796875 27.296875 
z
" id="DejaVuSans-100"/>
     <path d="M 19.671875 64.796875 
L 19.671875 37.40625 
L 32.078125 37.40625 
Q 38.96875 37.40625 42.71875 40.96875 
Q 46.484375 44.53125 46.484375 51.125 
Q 46.484375 57.671875 42.71875 61.234375 
Q 38.96875 64.796875 32.078125 64.796875 
z
M 9.8125 72.90625 
L 32.078125 72.90625 
Q 44.34375 72.90625 50.609375 67.359375 
Q 56.890625 61.8125 56.890625 51.125 
Q 56.890625 40.328125 50.609375 34.8125 
Q 44.34375 29.296875 32.078125 29.296875 
L 19.671875 29.296875 
L 19.671875 0 
L 9.8125 0 
z
" id="DejaVuSans-80"/>
     <path d="M 44.390625 34.1875 
Q 47.5625 33.109375 50.5625 29.59375 
Q 53.5625 26.078125 56.59375 19.921875 
L 66.609375 0 
L 56 0 
L 46.6875 18.703125 
Q 43.0625 26.03125 39.671875 28.421875 
Q 36.28125 30.8125 30.421875 30.8125 
L 19.671875 30.8125 
L 19.671875 0 
L 9.8125 0 
L 9.8125 72.90625 
L 32.078125 72.90625 
Q 44.578125 72.90625 50.734375 67.671875 
Q 56.890625 62.453125 56.890625 51.90625 
Q 56.890625 45.015625 53.6875 40.46875 
Q 50.484375 35.9375 44.390625 34.1875 
z
M 19.671875 64.796875 
L 19.671875 38.921875 
L 32.078125 38.921875 
Q 39.203125 38.921875 42.84375 42.21875 
Q 46.484375 45.515625 46.484375 51.90625 
Q 46.484375 58.296875 42.84375 61.546875 
Q 39.203125 64.796875 32.078125 64.796875 
z
" id="DejaVuSans-82"/>
     <path d="M 2.984375 54.6875 
L 12.5 54.6875 
L 29.59375 8.796875 
L 46.6875 54.6875 
L 56.203125 54.6875 
L 35.6875 0 
L 23.484375 0 
z
" id="DejaVuSans-118"/>
     <path d="M 41.109375 46.296875 
Q 39.59375 47.171875 37.8125 47.578125 
Q 36.03125 48 33.890625 48 
Q 26.265625 48 22.1875 43.046875 
Q 18.109375 38.09375 18.109375 28.8125 
L 18.109375 0 
L 9.078125 0 
L 9.078125 54.6875 
L 18.109375 54.6875 
L 18.109375 46.1875 
Q 20.953125 51.171875 25.484375 53.578125 
Q 30.03125 56 36.53125 56 
Q 37.453125 56 38.578125 55.875 
Q 39.703125 55.765625 41.0625 55.515625 
z
" id="DejaVuSans-114"/>
     <path d="M 18.3125 70.21875 
L 18.3125 54.6875 
L 36.8125 54.6875 
L 36.8125 47.703125 
L 18.3125 47.703125 
L 18.3125 18.015625 
Q 18.3125 11.328125 20.140625 9.421875 
Q 21.96875 7.515625 27.59375 7.515625 
L 36.8125 7.515625 
L 36.8125 0 
L 27.59375 0 
Q 17.1875 0 13.234375 3.875 
Q 9.28125 7.765625 9.28125 18.015625 
L 9.28125 47.703125 
L 2.6875 47.703125 
L 2.6875 54.6875 
L 9.28125 54.6875 
L 9.28125 70.21875 
z
" id="DejaVuSans-116"/>
     <path d="M 9.421875 54.6875 
L 18.40625 54.6875 
L 18.40625 0 
L 9.421875 0 
z
M 9.421875 75.984375 
L 18.40625 75.984375 
L 18.40625 64.59375 
L 9.421875 64.59375 
z
" id="DejaVuSans-105"/>
     <path d="M 52 44.1875 
Q 55.375 50.25 60.0625 53.125 
Q 64.75 56 71.09375 56 
Q 79.640625 56 84.28125 50.015625 
Q 88.921875 44.046875 88.921875 33.015625 
L 88.921875 0 
L 79.890625 0 
L 79.890625 32.71875 
Q 79.890625 40.578125 77.09375 44.375 
Q 74.3125 48.1875 68.609375 48.1875 
Q 61.625 48.1875 57.5625 43.546875 
Q 53.515625 38.921875 53.515625 30.90625 
L 53.515625 0 
L 44.484375 0 
L 44.484375 32.71875 
Q 44.484375 40.625 41.703125 44.40625 
Q 38.921875 48.1875 33.109375 48.1875 
Q 26.21875 48.1875 22.15625 43.53125 
Q 18.109375 38.875 18.109375 30.90625 
L 18.109375 0 
L 9.078125 0 
L 9.078125 54.6875 
L 18.109375 54.6875 
L 18.109375 46.1875 
Q 21.1875 51.21875 25.484375 53.609375 
Q 29.78125 56 35.6875 56 
Q 41.65625 56 45.828125 52.96875 
Q 50 49.953125 52 44.1875 
z
" id="DejaVuSans-109"/>
    </defs>
    <g style="fill:#262626;" transform="translate(305.27625 80.4)scale(0.12 -0.12)">
     <use xlink:href="#DejaVuSans-67"/>
     <use x="69.824219" xlink:href="#DejaVuSans-108"/>
     <use x="97.607422" xlink:href="#DejaVuSans-111"/>
     <use x="158.789062" xlink:href="#DejaVuSans-115"/>
     <use x="210.888672" xlink:href="#DejaVuSans-101"/>
     <use x="272.412109" xlink:href="#DejaVuSans-100"/>
     <use x="335.888672" xlink:href="#DejaVuSans-32"/>
     <use x="367.675781" xlink:href="#DejaVuSans-80"/>
     <use x="427.978516" xlink:href="#DejaVuSans-82"/>
     <use x="497.460938" xlink:href="#DejaVuSans-115"/>
     <use x="549.560547" xlink:href="#DejaVuSans-32"/>
     <use x="581.347656" xlink:href="#DejaVuSans-111"/>
     <use x="642.529297" xlink:href="#DejaVuSans-118"/>
     <use x="701.708984" xlink:href="#DejaVuSans-101"/>
     <use x="763.232422" xlink:href="#DejaVuSans-114"/>
     <use x="804.345703" xlink:href="#DejaVuSans-32"/>
     <use x="836.132812" xlink:href="#DejaVuSans-116"/>
     <use x="875.341797" xlink:href="#DejaVuSans-105"/>
     <use x="903.125" xlink:href="#DejaVuSans-109"/>
     <use x="1000.537109" xlink:href="#DejaVuSans-101"/>
    </g>
   </g>
  </g>
 </g>
 <defs>
  <clipPath id="p6e18e365db">
   <rect height="554.4" width="558" x="90" y="86.4"/>
  </clipPath>
 </defs>
</svg>
