<?xml version="1.0" encoding="utf-8" standalone="no"?>
<!DOCTYPE svg PUBLIC "-//W3C//DTD SVG 1.1//EN"
  "http://www.w3.org/Graphics/SVG/1.1/DTD/svg11.dtd">
<!-- Created with matplotlib (https://matplotlib.org/) -->
<svg height="720pt" version="1.1" viewBox="0 0 720 720" width="720pt" xmlns="http://www.w3.org/2000/svg" xmlns:xlink="http://www.w3.org/1999/xlink">
 <defs>
  <style type="text/css">
*{stroke-linecap:butt;stroke-linejoin:round;}
  </style>
 </defs>
 <g id="figure_1">
  <g id="patch_1">
   <path d="M 0 720 
L 720 720 
L 720 0 
L 0 0 
z
" style="fill:#ffffff;"/>
  </g>
  <g id="axes_1">
   <g id="patch_2">
    <path d="M 90 640.8 
L 648 640.8 
L 648 86.4 
L 90 86.4 
z
" style="fill:#ffffff;"/>
   </g>
   <g id="matplotlib.axis_1">
    <g id="xtick_1">
     <g id="line2d_1">
      <path clip-path="url(#pdebf2e744b)" d="M 164.146335 640.8 
L 164.146335 86.4 
" style="fill:none;stroke:#cccccc;stroke-linecap:round;stroke-width:0.8;"/>
     </g>
     <g id="line2d_2"/>
     <g id="text_1">
      <!-- 2015 -->
      <defs>
       <path d="M 19.1875 8.296875 
L 53.609375 8.296875 
L 53.609375 0 
L 7.328125 0 
L 7.328125 8.296875 
Q 12.9375 14.109375 22.625 23.890625 
Q 32.328125 33.6875 34.8125 36.53125 
Q 39.546875 41.84375 41.421875 45.53125 
Q 43.3125 49.21875 43.3125 52.78125 
Q 43.3125 58.59375 39.234375 62.25 
Q 35.15625 65.921875 28.609375 65.921875 
Q 23.96875 65.921875 18.8125 64.3125 
Q 13.671875 62.703125 7.8125 59.421875 
L 7.8125 69.390625 
Q 13.765625 71.78125 18.9375 73 
Q 24.125 74.21875 28.421875 74.21875 
Q 39.75 74.21875 46.484375 68.546875 
Q 53.21875 62.890625 53.21875 53.421875 
Q 53.21875 48.921875 51.53125 44.890625 
Q 49.859375 40.875 45.40625 35.40625 
Q 44.1875 33.984375 37.640625 27.21875 
Q 31.109375 20.453125 19.1875 8.296875 
z
" id="DejaVuSans-50"/>
       <path d="M 31.78125 66.40625 
Q 24.171875 66.40625 20.328125 58.90625 
Q 16.5 51.421875 16.5 36.375 
Q 16.5 21.390625 20.328125 13.890625 
Q 24.171875 6.390625 31.78125 6.390625 
Q 39.453125 6.390625 43.28125 13.890625 
Q 47.125 21.390625 47.125 36.375 
Q 47.125 51.421875 43.28125 58.90625 
Q 39.453125 66.40625 31.78125 66.40625 
z
M 31.78125 74.21875 
Q 44.046875 74.21875 50.515625 64.515625 
Q 56.984375 54.828125 56.984375 36.375 
Q 56.984375 17.96875 50.515625 8.265625 
Q 44.046875 -1.421875 31.78125 -1.421875 
Q 19.53125 -1.421875 13.0625 8.265625 
Q 6.59375 17.96875 6.59375 36.375 
Q 6.59375 54.828125 13.0625 64.515625 
Q 19.53125 74.21875 31.78125 74.21875 
z
" id="DejaVuSans-48"/>
       <path d="M 12.40625 8.296875 
L 28.515625 8.296875 
L 28.515625 63.921875 
L 10.984375 60.40625 
L 10.984375 69.390625 
L 28.421875 72.90625 
L 38.28125 72.90625 
L 38.28125 8.296875 
L 54.390625 8.296875 
L 54.390625 0 
L 12.40625 0 
z
" id="DejaVuSans-49"/>
       <path d="M 10.796875 72.90625 
L 49.515625 72.90625 
L 49.515625 64.59375 
L 19.828125 64.59375 
L 19.828125 46.734375 
Q 21.96875 47.46875 24.109375 47.828125 
Q 26.265625 48.1875 28.421875 48.1875 
Q 40.625 48.1875 47.75 41.5 
Q 54.890625 34.8125 54.890625 23.390625 
Q 54.890625 11.625 47.5625 5.09375 
Q 40.234375 -1.421875 26.90625 -1.421875 
Q 22.3125 -1.421875 17.546875 -0.640625 
Q 12.796875 0.140625 7.71875 1.703125 
L 7.71875 11.625 
Q 12.109375 9.234375 16.796875 8.0625 
Q 21.484375 6.890625 26.703125 6.890625 
Q 35.15625 6.890625 40.078125 11.328125 
Q 45.015625 15.765625 45.015625 23.390625 
Q 45.015625 31 40.078125 35.4375 
Q 35.15625 39.890625 26.703125 39.890625 
Q 22.75 39.890625 18.8125 39.015625 
Q 14.890625 38.140625 10.796875 36.28125 
z
" id="DejaVuSans-53"/>
      </defs>
      <g style="fill:#262626;" transform="translate(151.421335 651.898438)scale(0.1 -0.1)">
       <use xlink:href="#DejaVuSans-50"/>
       <use x="63.623047" xlink:href="#DejaVuSans-48"/>
       <use x="127.246094" xlink:href="#DejaVuSans-49"/>
       <use x="190.869141" xlink:href="#DejaVuSans-53"/>
      </g>
     </g>
    </g>
    <g id="xtick_2">
     <g id="line2d_3">
      <path clip-path="url(#pdebf2e744b)" d="M 249.79827 640.8 
L 249.79827 86.4 
" style="fill:none;stroke:#cccccc;stroke-linecap:round;stroke-width:0.8;"/>
     </g>
     <g id="line2d_4"/>
     <g id="text_2">
      <!-- 2016 -->
      <defs>
       <path d="M 33.015625 40.375 
Q 26.375 40.375 22.484375 35.828125 
Q 18.609375 31.296875 18.609375 23.390625 
Q 18.609375 15.53125 22.484375 10.953125 
Q 26.375 6.390625 33.015625 6.390625 
Q 39.65625 6.390625 43.53125 10.953125 
Q 47.40625 15.53125 47.40625 23.390625 
Q 47.40625 31.296875 43.53125 35.828125 
Q 39.65625 40.375 33.015625 40.375 
z
M 52.59375 71.296875 
L 52.59375 62.3125 
Q 48.875 64.0625 45.09375 64.984375 
Q 41.3125 65.921875 37.59375 65.921875 
Q 27.828125 65.921875 22.671875 59.328125 
Q 17.53125 52.734375 16.796875 39.40625 
Q 19.671875 43.65625 24.015625 45.921875 
Q 28.375 48.1875 33.59375 48.1875 
Q 44.578125 48.1875 50.953125 41.515625 
Q 57.328125 34.859375 57.328125 23.390625 
Q 57.328125 12.15625 50.6875 5.359375 
Q 44.046875 -1.421875 33.015625 -1.421875 
Q 20.359375 -1.421875 13.671875 8.265625 
Q 6.984375 17.96875 6.984375 36.375 
Q 6.984375 53.65625 15.1875 63.9375 
Q 23.390625 74.21875 37.203125 74.21875 
Q 40.921875 74.21875 44.703125 73.484375 
Q 48.484375 72.75 52.59375 71.296875 
z
" id="DejaVuSans-54"/>
      </defs>
      <g style="fill:#262626;" transform="translate(237.07327 651.898438)scale(0.1 -0.1)">
       <use xlink:href="#DejaVuSans-50"/>
       <use x="63.623047" xlink:href="#DejaVuSans-48"/>
       <use x="127.246094" xlink:href="#DejaVuSans-49"/>
       <use x="190.869141" xlink:href="#DejaVuSans-54"/>
      </g>
     </g>
    </g>
    <g id="xtick_3">
     <g id="line2d_5">
      <path clip-path="url(#pdebf2e744b)" d="M 335.684868 640.8 
L 335.684868 86.4 
" style="fill:none;stroke:#cccccc;stroke-linecap:round;stroke-width:0.8;"/>
     </g>
     <g id="line2d_6"/>
     <g id="text_3">
      <!-- 2017 -->
      <defs>
       <path d="M 8.203125 72.90625 
L 55.078125 72.90625 
L 55.078125 68.703125 
L 28.609375 0 
L 18.3125 0 
L 43.21875 64.59375 
L 8.203125 64.59375 
z
" id="DejaVuSans-55"/>
      </defs>
      <g style="fill:#262626;" transform="translate(322.959868 651.898438)scale(0.1 -0.1)">
       <use xlink:href="#DejaVuSans-50"/>
       <use x="63.623047" xlink:href="#DejaVuSans-48"/>
       <use x="127.246094" xlink:href="#DejaVuSans-49"/>
       <use x="190.869141" xlink:href="#DejaVuSans-55"/>
      </g>
     </g>
    </g>
    <g id="xtick_4">
     <g id="line2d_7">
      <path clip-path="url(#pdebf2e744b)" d="M 421.336803 640.8 
L 421.336803 86.4 
" style="fill:none;stroke:#cccccc;stroke-linecap:round;stroke-width:0.8;"/>
     </g>
     <g id="line2d_8"/>
     <g id="text_4">
      <!-- 2018 -->
      <defs>
       <path d="M 31.78125 34.625 
Q 24.75 34.625 20.71875 30.859375 
Q 16.703125 27.09375 16.703125 20.515625 
Q 16.703125 13.921875 20.71875 10.15625 
Q 24.75 6.390625 31.78125 6.390625 
Q 38.8125 6.390625 42.859375 10.171875 
Q 46.921875 13.96875 46.921875 20.515625 
Q 46.921875 27.09375 42.890625 30.859375 
Q 38.875 34.625 31.78125 34.625 
z
M 21.921875 38.8125 
Q 15.578125 40.375 12.03125 44.71875 
Q 8.5 49.078125 8.5 55.328125 
Q 8.5 64.0625 14.71875 69.140625 
Q 20.953125 74.21875 31.78125 74.21875 
Q 42.671875 74.21875 48.875 69.140625 
Q 55.078125 64.0625 55.078125 55.328125 
Q 55.078125 49.078125 51.53125 44.71875 
Q 48 40.375 41.703125 38.8125 
Q 48.828125 37.15625 52.796875 32.3125 
Q 56.78125 27.484375 56.78125 20.515625 
Q 56.78125 9.90625 50.3125 4.234375 
Q 43.84375 -1.421875 31.78125 -1.421875 
Q 19.734375 -1.421875 13.25 4.234375 
Q 6.78125 9.90625 6.78125 20.515625 
Q 6.78125 27.484375 10.78125 32.3125 
Q 14.796875 37.15625 21.921875 38.8125 
z
M 18.3125 54.390625 
Q 18.3125 48.734375 21.84375 45.5625 
Q 25.390625 42.390625 31.78125 42.390625 
Q 38.140625 42.390625 41.71875 45.5625 
Q 45.3125 48.734375 45.3125 54.390625 
Q 45.3125 60.0625 41.71875 63.234375 
Q 38.140625 66.40625 31.78125 66.40625 
Q 25.390625 66.40625 21.84375 63.234375 
Q 18.3125 60.0625 18.3125 54.390625 
z
" id="DejaVuSans-56"/>
      </defs>
      <g style="fill:#262626;" transform="translate(408.611803 651.898438)scale(0.1 -0.1)">
       <use xlink:href="#DejaVuSans-50"/>
       <use x="63.623047" xlink:href="#DejaVuSans-48"/>
       <use x="127.246094" xlink:href="#DejaVuSans-49"/>
       <use x="190.869141" xlink:href="#DejaVuSans-56"/>
      </g>
     </g>
    </g>
    <g id="xtick_5">
     <g id="line2d_9">
      <path clip-path="url(#pdebf2e744b)" d="M 506.988738 640.8 
L 506.988738 86.4 
" style="fill:none;stroke:#cccccc;stroke-linecap:round;stroke-width:0.8;"/>
     </g>
     <g id="line2d_10"/>
     <g id="text_5">
      <!-- 2019 -->
      <defs>
       <path d="M 10.984375 1.515625 
L 10.984375 10.5 
Q 14.703125 8.734375 18.5 7.8125 
Q 22.3125 6.890625 25.984375 6.890625 
Q 35.75 6.890625 40.890625 13.453125 
Q 46.046875 20.015625 46.78125 33.40625 
Q 43.953125 29.203125 39.59375 26.953125 
Q 35.25 24.703125 29.984375 24.703125 
Q 19.046875 24.703125 12.671875 31.3125 
Q 6.296875 37.9375 6.296875 49.421875 
Q 6.296875 60.640625 12.9375 67.421875 
Q 19.578125 74.21875 30.609375 74.21875 
Q 43.265625 74.21875 49.921875 64.515625 
Q 56.59375 54.828125 56.59375 36.375 
Q 56.59375 19.140625 48.40625 8.859375 
Q 40.234375 -1.421875 26.421875 -1.421875 
Q 22.703125 -1.421875 18.890625 -0.6875 
Q 15.09375 0.046875 10.984375 1.515625 
z
M 30.609375 32.421875 
Q 37.25 32.421875 41.125 36.953125 
Q 45.015625 41.5 45.015625 49.421875 
Q 45.015625 57.28125 41.125 61.84375 
Q 37.25 66.40625 30.609375 66.40625 
Q 23.96875 66.40625 20.09375 61.84375 
Q 16.21875 57.28125 16.21875 49.421875 
Q 16.21875 41.5 20.09375 36.953125 
Q 23.96875 32.421875 30.609375 32.421875 
z
" id="DejaVuSans-57"/>
      </defs>
      <g style="fill:#262626;" transform="translate(494.263738 651.898438)scale(0.1 -0.1)">
       <use xlink:href="#DejaVuSans-50"/>
       <use x="63.623047" xlink:href="#DejaVuSans-48"/>
       <use x="127.246094" xlink:href="#DejaVuSans-49"/>
       <use x="190.869141" xlink:href="#DejaVuSans-57"/>
      </g>
     </g>
    </g>
    <g id="xtick_6">
     <g id="line2d_11">
      <path clip-path="url(#pdebf2e744b)" d="M 592.640673 640.8 
L 592.640673 86.4 
" style="fill:none;stroke:#cccccc;stroke-linecap:round;stroke-width:0.8;"/>
     </g>
     <g id="line2d_12"/>
     <g id="text_6">
      <!-- 2020 -->
      <g style="fill:#262626;" transform="translate(579.915673 651.898438)scale(0.1 -0.1)">
       <use xlink:href="#DejaVuSans-50"/>
       <use x="63.623047" xlink:href="#DejaVuSans-48"/>
       <use x="127.246094" xlink:href="#DejaVuSans-50"/>
       <use x="190.869141" xlink:href="#DejaVuSans-48"/>
      </g>
     </g>
    </g>
   </g>
   <g id="matplotlib.axis_2">
    <g id="ytick_1">
     <g id="line2d_13">
      <path clip-path="url(#pdebf2e744b)" d="M 90 615.609186 
L 648 615.609186 
" style="fill:none;stroke:#cccccc;stroke-linecap:round;stroke-width:0.8;"/>
     </g>
     <g id="line2d_14"/>
     <g id="text_7">
      <!-- 0 -->
      <g style="fill:#262626;" transform="translate(80.1375 619.408405)scale(0.1 -0.1)">
       <use xlink:href="#DejaVuSans-48"/>
      </g>
     </g>
    </g>
    <g id="ytick_2">
     <g id="line2d_15">
      <path clip-path="url(#pdebf2e744b)" d="M 90 523.745669 
L 648 523.745669 
" style="fill:none;stroke:#cccccc;stroke-linecap:round;stroke-width:0.8;"/>
     </g>
     <g id="line2d_16"/>
     <g id="text_8">
      <!-- 10000 -->
      <g style="fill:#262626;" transform="translate(54.6875 527.544888)scale(0.1 -0.1)">
       <use xlink:href="#DejaVuSans-49"/>
       <use x="63.623047" xlink:href="#DejaVuSans-48"/>
       <use x="127.246094" xlink:href="#DejaVuSans-48"/>
       <use x="190.869141" xlink:href="#DejaVuSans-48"/>
       <use x="254.492188" xlink:href="#DejaVuSans-48"/>
      </g>
     </g>
    </g>
    <g id="ytick_3">
     <g id="line2d_17">
      <path clip-path="url(#pdebf2e744b)" d="M 90 431.882152 
L 648 431.882152 
" style="fill:none;stroke:#cccccc;stroke-linecap:round;stroke-width:0.8;"/>
     </g>
     <g id="line2d_18"/>
     <g id="text_9">
      <!-- 20000 -->
      <g style="fill:#262626;" transform="translate(54.6875 435.681371)scale(0.1 -0.1)">
       <use xlink:href="#DejaVuSans-50"/>
       <use x="63.623047" xlink:href="#DejaVuSans-48"/>
       <use x="127.246094" xlink:href="#DejaVuSans-48"/>
       <use x="190.869141" xlink:href="#DejaVuSans-48"/>
       <use x="254.492188" xlink:href="#DejaVuSans-48"/>
      </g>
     </g>
    </g>
    <g id="ytick_4">
     <g id="line2d_19">
      <path clip-path="url(#pdebf2e744b)" d="M 90 340.018635 
L 648 340.018635 
" style="fill:none;stroke:#cccccc;stroke-linecap:round;stroke-width:0.8;"/>
     </g>
     <g id="line2d_20"/>
     <g id="text_10">
      <!-- 30000 -->
      <defs>
       <path d="M 40.578125 39.3125 
Q 47.65625 37.796875 51.625 33 
Q 55.609375 28.21875 55.609375 21.1875 
Q 55.609375 10.40625 48.1875 4.484375 
Q 40.765625 -1.421875 27.09375 -1.421875 
Q 22.515625 -1.421875 17.65625 -0.515625 
Q 12.796875 0.390625 7.625 2.203125 
L 7.625 11.71875 
Q 11.71875 9.328125 16.59375 8.109375 
Q 21.484375 6.890625 26.8125 6.890625 
Q 36.078125 6.890625 40.9375 10.546875 
Q 45.796875 14.203125 45.796875 21.1875 
Q 45.796875 27.640625 41.28125 31.265625 
Q 36.765625 34.90625 28.71875 34.90625 
L 20.21875 34.90625 
L 20.21875 43.015625 
L 29.109375 43.015625 
Q 36.375 43.015625 40.234375 45.921875 
Q 44.09375 48.828125 44.09375 54.296875 
Q 44.09375 59.90625 40.109375 62.90625 
Q 36.140625 65.921875 28.71875 65.921875 
Q 24.65625 65.921875 20.015625 65.03125 
Q 15.375 64.15625 9.8125 62.3125 
L 9.8125 71.09375 
Q 15.4375 72.65625 20.34375 73.4375 
Q 25.25 74.21875 29.59375 74.21875 
Q 40.828125 74.21875 47.359375 69.109375 
Q 53.90625 64.015625 53.90625 55.328125 
Q 53.90625 49.265625 50.4375 45.09375 
Q 46.96875 40.921875 40.578125 39.3125 
z
" id="DejaVuSans-51"/>
      </defs>
      <g style="fill:#262626;" transform="translate(54.6875 343.817854)scale(0.1 -0.1)">
       <use xlink:href="#DejaVuSans-51"/>
       <use x="63.623047" xlink:href="#DejaVuSans-48"/>
       <use x="127.246094" xlink:href="#DejaVuSans-48"/>
       <use x="190.869141" xlink:href="#DejaVuSans-48"/>
       <use x="254.492188" xlink:href="#DejaVuSans-48"/>
      </g>
     </g>
    </g>
    <g id="ytick_5">
     <g id="line2d_21">
      <path clip-path="url(#pdebf2e744b)" d="M 90 248.155118 
L 648 248.155118 
" style="fill:none;stroke:#cccccc;stroke-linecap:round;stroke-width:0.8;"/>
     </g>
     <g id="line2d_22"/>
     <g id="text_11">
      <!-- 40000 -->
      <defs>
       <path d="M 37.796875 64.3125 
L 12.890625 25.390625 
L 37.796875 25.390625 
z
M 35.203125 72.90625 
L 47.609375 72.90625 
L 47.609375 25.390625 
L 58.015625 25.390625 
L 58.015625 17.1875 
L 47.609375 17.1875 
L 47.609375 0 
L 37.796875 0 
L 37.796875 17.1875 
L 4.890625 17.1875 
L 4.890625 26.703125 
z
" id="DejaVuSans-52"/>
      </defs>
      <g style="fill:#262626;" transform="translate(54.6875 251.954337)scale(0.1 -0.1)">
       <use xlink:href="#DejaVuSans-52"/>
       <use x="63.623047" xlink:href="#DejaVuSans-48"/>
       <use x="127.246094" xlink:href="#DejaVuSans-48"/>
       <use x="190.869141" xlink:href="#DejaVuSans-48"/>
       <use x="254.492188" xlink:href="#DejaVuSans-48"/>
      </g>
     </g>
    </g>
    <g id="ytick_6">
     <g id="line2d_23">
      <path clip-path="url(#pdebf2e744b)" d="M 90 156.291601 
L 648 156.291601 
" style="fill:none;stroke:#cccccc;stroke-linecap:round;stroke-width:0.8;"/>
     </g>
     <g id="line2d_24"/>
     <g id="text_12">
      <!-- 50000 -->
      <g style="fill:#262626;" transform="translate(54.6875 160.09082)scale(0.1 -0.1)">
       <use xlink:href="#DejaVuSans-53"/>
       <use x="63.623047" xlink:href="#DejaVuSans-48"/>
       <use x="127.246094" xlink:href="#DejaVuSans-48"/>
       <use x="190.869141" xlink:href="#DejaVuSans-48"/>
       <use x="254.492188" xlink:href="#DejaVuSans-48"/>
      </g>
     </g>
    </g>
   </g>
   <g id="line2d_25">
    <path clip-path="url(#pdebf2e744b)" d="M 115.363636 615.6 
L 116.509049 615.214173 
L 116.79505 614.975328 
L 117.497781 614.81916 
L 117.612135 614.773228 
L 117.962674 614.653806 
L 118.370963 614.51601 
L 118.449119 614.470079 
L 119.353097 614.267979 
L 119.380828 614.231234 
L 119.546678 614.111811 
L 120.527004 613.790289 
L 121.144995 613.670866 
L 121.254594 613.505512 
L 123.024856 613.248294 
L 123.352939 613.092126 
L 123.724453 612.945144 
L 123.737406 612.890026 
L 124.386903 612.724672 
L 125.917644 612.090814 
L 126.293979 611.971391 
L 126.37588 611.916273 
L 126.654458 611.79685 
L 126.797928 611.741732 
L 127.478252 611.594751 
L 127.93855 611.282415 
L 128.403907 611.052756 
L 128.482571 610.988451 
L 129.130246 610.869029 
L 129.242843 610.749606 
L 129.372565 610.630184 
L 129.424191 610.584252 
L 129.866997 610.455643 
L 130.34593 610.345407 
L 130.999183 610.216798 
L 131.966958 609.830971 
L 132.439331 609.711549 
L 132.734268 609.537008 
L 132.975506 609.408399 
L 133.222288 609.325722 
L 134.286147 609.141995 
L 134.403951 608.949081 
L 134.61421 608.820472 
L 134.971327 608.609186 
L 135.029221 608.544882 
L 135.980415 608.425459 
L 136.6168 608.186614 
L 136.741939 608.094751 
L 137.402393 607.938583 
L 137.825769 607.708924 
L 137.907616 607.626247 
L 138.273356 607.488451 
L 141.092689 606.781102 
L 141.19458 606.689239 
L 141.572887 606.551444 
L 141.62429 606.477953 
L 142.47472 606.340157 
L 142.549565 606.285039 
L 142.956596 606.15643 
L 143.293788 605.890026 
L 143.969052 605.752231 
L 144.205138 605.495013 
L 144.437604 605.375591 
L 144.496101 605.348031 
L 144.646609 605.228609 
L 144.71069 605.155118 
L 144.878754 605.035696 
L 144.898673 605.017323 
L 145.764334 604.861155 
L 145.842471 604.760105 
L 146.029311 604.640682 
L 146.533388 604.236483 
L 146.611388 604.172178 
L 147.230518 604.052756 
L 147.2478 604.01601 
L 147.463353 603.896588 
L 147.528016 603.823097 
L 147.914283 603.666929 
L 147.944417 603.620997 
L 148.8879 603.455643 
L 148.95865 603.372966 
L 149.293932 603.235171 
L 149.361303 603.115748 
L 149.643661 602.996325 
L 149.754784 602.950394 
L 149.873471 602.886089 
L 150.505488 602.729921 
L 150.549514 602.674803 
L 150.781613 602.555381 
L 150.838848 602.527822 
L 151.004285 602.408399 
L 151.044175 602.362467 
L 151.407063 602.224672 
L 151.490985 602.123622 
L 152.173935 601.985827 
L 152.237922 601.866404 
L 152.415217 601.737795 
L 152.483052 601.664304 
L 152.689042 601.535696 
L 153.064155 601.333596 
L 153.168237 601.168241 
L 153.761568 601.030446 
L 153.869116 600.901837 
L 154.07465 600.764042 
L 154.471092 600.635433 
L 154.740946 600.414961 
L 154.77234 600.387402 
L 155.416098 600.267979 
L 155.631439 600.13937 
L 156.145788 599.891339 
L 157.052388 599.771916 
L 157.164084 599.670866 
L 157.354085 599.551444 
L 157.535519 599.441207 
L 158.111603 599.165617 
L 158.757798 599.046194 
L 158.760296 599.027822 
L 158.977072 598.908399 
L 159.002542 598.853281 
L 159.223514 598.733858 
L 159.229215 598.715486 
L 159.426147 598.596063 
L 159.497439 598.504199 
L 159.694784 598.384777 
L 159.749552 598.348031 
L 160.362253 598.228609 
L 160.416019 598.1 
L 160.617308 597.980577 
L 160.642349 597.907087 
L 160.923325 597.778478 
L 161.071557 597.659055 
L 161.155723 597.576378 
L 161.325808 597.456955 
L 161.350409 597.383465 
L 162.034307 597.264042 
L 162.076351 597.21811 
L 163.910008 596.979265 
L 163.928582 596.960892 
L 165.304339 596.832283 
L 165.374839 596.74042 
L 165.529306 596.620997 
L 165.626789 596.556693 
L 165.742458 596.43727 
L 165.851011 596.198425 
L 165.975415 596.079003 
L 166.257918 595.840157 
L 166.27212 595.803412 
L 166.941295 595.68399 
L 166.979903 595.546194 
L 167.209533 595.426772 
L 167.269573 595.408399 
L 167.407597 595.288976 
L 167.499827 595.07769 
L 167.644183 594.958268 
L 167.689274 594.792913 
L 167.878732 594.673491 
L 167.916465 594.627559 
L 168.81637 594.508136 
L 168.990844 594.29685 
L 169.291655 593.947769 
L 169.355886 593.846719 
L 169.528173 593.727297 
L 169.625636 593.635433 
L 170.311148 593.506824 
L 170.449409 593.387402 
L 170.911075 592.909711 
L 171.107706 592.716798 
L 171.198247 592.523885 
L 171.840756 592.395276 
L 171.919346 592.193176 
L 172.08902 592.073753 
L 172.255957 591.908399 
L 172.358152 591.761417 
L 172.420696 591.697113 
L 172.536596 591.57769 
L 172.784269 591.265354 
L 172.844477 591.1 
L 173.519168 590.980577 
L 173.546874 590.943832 
L 173.729064 590.824409 
L 173.780831 590.741732 
L 173.972915 590.62231 
L 174.04896 590.466142 
L 174.180776 590.346719 
L 174.551598 589.970079 
L 175.348794 589.850656 
L 175.45729 589.519948 
L 175.63046 589.400525 
L 175.710609 589.281102 
L 175.83648 589.16168 
L 175.905833 588.950394 
L 176.041693 588.821785 
L 176.124944 588.500262 
L 176.759096 588.38084 
L 176.827632 588.114436 
L 177.14796 587.985827 
L 177.477162 587.811286 
L 177.591215 587.6 
L 177.716116 587.480577 
L 177.765677 587.434646 
L 178.410867 587.287664 
L 178.514491 587.140682 
L 178.653352 587.02126 
L 178.700355 586.92021 
L 178.873313 586.800787 
L 179.2255 586.286352 
L 179.308414 586.166929 
L 179.387475 586.010761 
L 179.42278 585.928084 
L 180.052953 585.790289 
L 180.135202 585.615748 
L 180.271398 585.496325 
L 180.387999 585.211549 
L 180.509807 585.092126 
L 180.600893 584.77979 
L 180.742544 584.632808 
L 180.819529 584.375591 
L 180.984505 584.246982 
L 181.045362 584.008136 
L 181.673914 583.888714 
L 181.747178 583.576378 
L 181.899201 583.456955 
L 182.281237 582.988451 
L 182.391884 582.869029 
L 182.470667 582.731234 
L 182.64752 582.611811 
L 182.721637 582.382152 
L 183.357978 582.244357 
L 183.430742 582.134121 
L 183.541664 582.014698 
L 183.649652 581.674803 
L 183.792313 581.555381 
L 184.001114 581.206299 
L 184.088714 580.820472 
L 184.184026 580.673491 
L 184.277533 580.544882 
L 184.470706 580.351969 
L 184.953932 580.232546 
L 185.441827 579.460892 
L 185.49514 579.277165 
L 185.582421 579.084252 
L 185.671137 578.964829 
L 185.831362 578.624934 
L 185.948121 578.477953 
L 185.981098 578.395276 
L 186.618863 578.25748 
L 186.734534 578.055381 
L 186.864737 577.871654 
L 187.036364 577.687927 
L 187.114275 577.550131 
L 187.242889 577.412336 
L 187.316517 577.292913 
L 187.441769 577.1 
L 187.580771 576.934646 
L 187.678713 576.806037 
L 188.249631 576.649869 
L 188.325603 576.401837 
L 188.4812 576.282415 
L 188.559435 576.04357 
L 188.723517 575.905774 
L 188.925354 575.676115 
L 188.99946 575.501575 
L 189.255951 575.051444 
L 189.901141 574.913648 
L 190.101984 574.463517 
L 190.949378 573.02126 
L 191.532838 572.901837 
L 191.789283 572.34147 
L 192.002973 572.093438 
L 192.102841 571.928084 
L 192.239858 571.781102 
L 192.416716 571.441207 
L 192.488774 571.312598 
L 192.548469 571.138058 
L 193.138825 571.009449 
L 193.245127 570.632808 
L 193.460289 570.329659 
L 193.565643 570.145932 
L 193.661043 570.017323 
L 193.933586 569.640682 
L 194.195368 569.365092 
L 194.344183 569.337533 
L 194.769754 569.21811 
L 194.883123 568.850656 
L 195.134212 568.400525 
L 195.297237 568.271916 
L 195.365616 568.023885 
L 195.524037 567.895276 
L 195.868715 567.233858 
L 196.443191 567.096063 
L 196.52601 566.673491 
L 196.598402 566.508136 
L 196.709962 566.388714 
L 196.757487 566.287664 
L 197.156538 566.159055 
L 197.300487 565.754856 
L 197.411509 565.635433 
L 197.457537 565.470079 
L 197.516428 565.414961 
L 198.337688 565.267979 
L 198.453233 564.964829 
L 198.577473 564.83622 
L 198.628632 564.698425 
L 198.728214 564.579003 
L 198.855495 564.413648 
L 198.959471 563.98189 
L 199.076064 563.798163 
L 199.143649 563.623622 
L 199.751135 563.47664 
L 199.836855 563.246982 
L 199.988142 563.118373 
L 200.068259 562.907087 
L 200.168808 562.750919 
L 200.237689 562.585564 
L 200.539676 562.071129 
L 200.696177 561.896588 
L 200.738243 561.694488 
L 201.404715 561.556693 
L 201.501296 561.382152 
L 201.630448 561.26273 
L 201.741291 561.014698 
L 201.887007 560.886089 
L 201.964022 560.68399 
L 202.102028 560.546194 
L 202.233567 560.197113 
L 202.371116 559.985827 
L 202.440559 559.8021 
L 203.035149 559.664304 
L 203.147486 559.443832 
L 203.314591 559.260105 
L 203.35447 559.085564 
L 203.533026 558.966142 
L 203.638298 558.754856 
L 203.768683 558.589501 
L 203.976462 558.001575 
L 204.022404 557.817848 
L 204.069146 557.753543 
L 204.685242 557.615748 
L 205.743066 556.513386 
L 206.327244 556.393963 
L 206.425017 556.155118 
L 206.591701 555.980577 
L 206.682641 555.787664 
L 206.806105 555.640682 
L 206.880426 555.411024 
L 207.976065 555.089501 
L 208.044715 554.823097 
L 208.20217 554.685302 
L 208.318157 554.428084 
L 208.461896 554.271916 
L 208.577288 553.867717 
L 208.732687 553.619685 
L 209.26299 553.086877 
L 209.603487 552.958268 
L 209.726566 552.590814 
L 209.859248 552.471391 
L 209.972483 552.113123 
L 210.118792 551.984514 
L 210.230151 551.846719 
L 210.37323 551.71811 
L 210.617581 551.120997 
L 210.841592 550.946457 
L 210.901531 550.698425 
L 211.239144 550.56063 
L 211.386577 550.064567 
L 211.779673 549.917585 
L 212.297908 548.512073 
L 212.905161 548.309974 
L 212.961594 548.135433 
L 213.353741 547.997638 
L 213.478126 547.593438 
L 213.944217 546.950394 
L 214.538218 546.830971 
L 214.727896 546.573753 
L 214.829064 546.435958 
L 214.93573 546.187927 
L 215.043192 546.068504 
L 215.736183 545.149869 
L 216.133396 545.030446 
L 216.253715 544.571129 
L 216.403823 544.405774 
L 217.231243 543.15643 
L 217.758118 543.037008 
L 218.042829 542.715486 
L 218.138533 542.540945 
L 218.295841 542.393963 
L 218.408686 542.127559 
L 218.593445 541.741732 
L 218.719003 541.567192 
L 218.814126 541.429396 
L 218.842223 541.328346 
L 219.464497 541.208924 
L 219.570392 540.997638 
L 219.737298 540.804724 
L 219.847207 540.657743 
L 220.00143 540.354593 
L 220.216277 540.225984 
L 220.319805 540.023885 
L 220.487845 539.840157 
L 220.634199 539.766667 
L 221.045663 539.647244 
L 221.312082 539.48189 
L 221.453846 539.17874 
L 221.564149 539.031759 
L 221.683968 538.8021 
L 221.85154 538.682677 
L 222.256396 538.058005 
L 222.811392 537.929396 
L 222.983606 537.800787 
L 223.122152 537.571129 
L 223.271448 537.378215 
L 223.391746 537.203675 
L 223.721501 536.83622 
L 223.813359 536.689239 
L 224.316162 536.56063 
L 224.445216 536.422835 
L 224.545328 536.25748 
L 224.696637 536.073753 
L 224.807868 535.917585 
L 225.260134 535.035696 
L 225.37111 534.907087 
L 225.471855 534.714173 
L 226.134422 534.273228 
L 226.319243 534.052756 
L 226.560547 533.924147 
L 226.670825 533.611811 
L 226.801312 533.345407 
L 226.900175 533.189239 
L 226.999488 533.014698 
L 227.085692 532.812598 
L 227.775133 532.674803 
L 228.198341 532.040945 
L 228.412056 531.756168 
L 228.586988 531.388714 
L 228.874214 530.993701 
L 229.318973 530.846719 
L 229.433176 530.267979 
L 229.6479 529.964829 
L 229.960643 529.477953 
L 230.351457 528.733858 
L 230.51036 528.586877 
L 230.548259 528.513386 
L 230.968308 528.393963 
L 231.016275 528.090814 
L 231.116452 527.962205 
L 231.20984 527.806037 
L 231.284394 527.594751 
L 231.411386 527.456955 
L 231.523258 527.328346 
L 231.59696 527.126247 
L 231.699793 526.859843 
L 231.805894 526.666929 
L 231.921058 526.474016 
L 232.087362 526.244357 
L 232.52702 526.088189 
L 233.98243 524.048819 
L 234.185 523.92021 
L 234.337376 523.552756 
L 234.436424 523.405774 
L 234.547554 523.130184 
L 234.9929 522.092126 
L 235.103352 521.88084 
L 235.24531 521.449081 
L 235.302229 521.393963 
L 235.94033 521.210236 
L 236.060869 521.026509 
L 236.642871 520.300787 
L 236.890111 519.988451 
L 237.137466 519.832283 
L 237.635761 519.556693 
L 237.79163 519.36378 
L 237.856746 519.271916 
L 238.049892 519.124934 
L 238.206646 518.895276 
L 238.453219 518.58294 
L 238.529943 518.435958 
L 238.562024 518.408399 
L 239.166173 518.270604 
L 240.09226 517.012073 
L 240.188118 516.883465 
L 240.26107 516.837533 
L 240.778586 516.61706 
L 240.930669 516.350656 
L 241.021956 516.222047 
L 241.295097 515.83622 
L 242.054861 515.275853 
L 242.550122 515.018635 
L 242.726271 514.724672 
L 242.856672 514.586877 
L 243.556497 513.502887 
L 243.772449 513.337533 
L 243.901166 513.291601 
L 244.114764 513.162992 
L 244.214797 513.052756 
L 244.474659 512.832283 
L 244.576588 512.593438 
L 244.67214 512.382152 
L 244.770568 512.216798 
L 244.871758 512.005512 
L 245.007759 511.867717 
L 245.11669 511.674803 
L 245.207157 511.628871 
L 245.668468 511.500262 
L 245.778425 511.38084 
L 246.258382 510.572441 
L 246.371734 510.361155 
L 246.950061 509.571129 
L 247.221137 509.414961 
L 247.451099 509.212861 
L 247.631067 509.084252 
L 247.772106 508.918898 
L 248.24087 508.716798 
L 249.067766 508.597375 
L 249.658708 508.275853 
L 250.54697 508.138058 
L 250.972201 507.715486 
L 251.121272 507.632808 
L 251.401183 507.485827 
L 251.50016 507.412336 
L 252.33556 507.044882 
L 252.593561 506.760105 
L 252.800306 506.567192 
L 252.950102 506.401837 
L 253.065472 506.153806 
L 253.162225 506.089501 
L 253.50043 505.933333 
L 253.59863 505.832283 
L 253.983889 505.666929 
L 254.122226 505.611811 
L 254.270724 505.483202 
L 254.381271 505.43727 
L 254.548036 505.290289 
L 254.71554 504.766667 
L 254.841905 504.647244 
L 254.913608 504.509449 
L 255.021211 504.417585 
L 255.568323 504.252231 
L 255.847115 503.848031 
L 256.102221 503.526509 
L 256.182064 503.453018 
L 256.308195 503.333596 
L 256.351469 503.159055 
L 256.56514 502.745669 
L 256.785929 502.405774 
L 256.881427 502.212861 
L 257.246931 502.047507 
L 257.898777 501.037008 
L 258.015432 500.853281 
L 258.312164 500.228609 
L 258.584313 499.8979 
L 258.803541 499.769291 
L 259.049329 499.291601 
L 259.661923 498.235171 
L 259.869668 498.106562 
L 260.079471 497.876903 
L 260.315715 497.638058 
L 260.692452 497.298163 
L 261.493624 496.131496 
L 261.636991 495.855906 
L 261.996072 495.626247 
L 262.477025 494.827034 
L 262.58781 494.643307 
L 262.718627 494.239108 
L 263.049138 493.834908 
L 263.151884 493.550131 
L 263.182564 493.357218 
L 263.529979 492.980577 
L 263.819736 492.778478 
L 263.953442 492.567192 
L 264.512374 491.593438 
L 264.564231 491.455643 
L 264.786411 490.821785 
L 264.989003 490.38084 
L 265.164895 490.197113 
L 265.390212 490.059318 
L 265.779288 489.554068 
L 265.977135 489.434646 
L 266.296211 489.159055 
L 266.470456 488.800787 
L 266.610113 488.690551 
L 267.142646 488.534383 
L 267.262604 488.387402 
L 267.357224 488.249606 
L 267.671678 487.845407 
L 267.77337 487.698425 
L 268.146278 487.303412 
L 268.786087 487.073753 
L 269.359922 486.430709 
L 269.615612 486.256168 
L 269.717677 486.164304 
L 271.122128 485.475328 
L 271.164658 485.355906 
L 271.36005 485.227297 
L 271.594621 485.04357 
L 272.542868 484.648556 
L 272.66863 484.492388 
L 272.956882 484.345407 
L 273.068358 484.134121 
L 273.711541 483.996325 
L 273.733613 483.977953 
L 273.934101 483.85853 
L 274.420315 483.325722 
L 274.5106 483.151181 
L 274.735135 482.967454 
L 274.998115 482.746982 
L 275.481974 482.388714 
L 275.592792 482.241732 
L 276.302373 481.359843 
L 276.884391 481.166929 
L 277.010237 481.03832 
L 277.098377 480.579003 
L 277.228115 480.450394 
L 277.368253 480.321785 
L 278.239249 479.724672 
L 278.625356 479.596063 
L 279.109003 479.219423 
L 279.567465 478.558005 
L 279.655078 478.126247 
L 280.029319 478.006824 
L 280.418375 477.565879 
L 280.530761 477.43727 
L 280.633909 477.26273 
L 281.003055 476.794226 
L 281.126902 476.711549 
L 281.430984 476.307349 
L 281.781509 476.160367 
L 281.889524 476.040945 
L 282.032793 475.866404 
L 282.128671 475.691864 
L 282.421329 475.407087 
L 282.515281 475.361155 
L 282.72048 475.177428 
L 282.882284 474.865092 
L 282.992502 474.699738 
L 283.824091 473.86378 
L 284.03173 473.725984 
L 284.207982 473.496325 
L 284.281898 473.340157 
L 284.385182 473.220735 
L 284.473442 473.08294 
L 284.578937 472.798163 
L 286.611812 470.823097 
L 286.836271 470.694488 
L 287.060214 470.529134 
L 287.289852 470.317848 
L 287.472109 470.023885 
L 287.600843 469.886089 
L 287.706525 469.711549 
L 288.447633 469.105249 
L 288.586652 468.939895 
L 288.791979 468.710236 
L 288.953848 468.544882 
L 289.35256 468.067192 
L 289.456659 467.883465 
L 289.869261 467.552756 
L 290.015358 467.369029 
L 291.635457 464.99895 
L 291.959444 464.677428 
L 292.198371 464.282415 
L 293.025582 463.345407 
L 293.542766 463.216798 
L 293.893405 462.977953 
L 293.992081 462.775853 
L 294.09116 462.65643 
L 294.488232 462.141995 
L 295.036175 461.958268 
L 296.385392 460.323097 
L 296.59309 460.194488 
L 296.903806 459.579003 
L 297.013978 459.046194 
L 297.887834 457.613123 
L 298.321914 457.493701 
L 298.708888 457.061942 
L 298.859889 456.924147 
L 299.237803 456.519948 
L 299.622527 456.216798 
L 300.032593 456.06063 
L 300.139087 455.840157 
L 300.714546 454.728609 
L 300.819761 454.517323 
L 300.942669 454.29685 
L 301.132751 454.131496 
L 301.56788 453.984514 
L 302.227358 453.130184 
L 302.305661 452.983202 
L 302.875139 452.229921 
L 303.255545 452.055381 
L 303.631674 451.485827 
L 303.737346 451.320472 
L 303.845926 451.1 
L 303.955623 450.815223 
L 304.135862 450.52126 
L 304.228283 450.190551 
L 304.331111 449.94252 
L 304.467552 449.758793 
L 305.015658 448.739108 
L 305.110028 448.546194 
L 305.24698 448.390026 
L 306.018154 447.140682 
L 306.540314 447.002887 
L 307.803824 445.505512 
L 308.335455 444.991076 
L 308.445228 444.844094 
L 308.632594 444.641995 
L 308.958974 444.081627 
L 309.366915 443.392651 
L 309.482756 443.236483 
L 309.713013 442.804724 
L 309.925171 442.391339 
L 310.42434 441.463517 
L 310.738911 440.792913 
L 310.983921 440.544882 
L 311.089161 440.434646 
L 311.483403 440.232546 
L 311.594767 440.039633 
L 312.222659 438.909711 
L 312.355192 438.680052 
L 312.549663 438.413648 
L 312.66204 438.395276 
L 313.077774 438.193176 
L 313.256476 437.752231 
L 313.356906 437.568504 
L 313.450277 437.412336 
L 313.557651 437.136745 
L 314.353848 436.199738 
L 314.778333 436.071129 
L 314.929546 435.914961 
L 315.013935 435.749606 
L 315.371755 435.216798 
L 315.5984 434.904462 
L 315.704134 434.68399 
L 316.567447 433.884777 
L 316.675006 433.820472 
L 317.049537 433.12231 
L 317.155168 432.956955 
L 317.28039 432.727297 
L 317.39022 432.506824 
L 317.803291 432.075066 
L 317.994446 431.955643 
L 318.212137 431.606562 
L 318.744441 430.67874 
L 318.853831 430.522572 
L 319.160346 430.246982 
L 319.585466 430.054068 
L 319.695027 429.879528 
L 320.132502 429.144619 
L 320.24398 428.905774 
L 320.415599 428.519948 
L 320.524354 428.354593 
L 321.165418 427.665617 
L 321.296856 427.537008 
L 321.385661 427.371654 
L 321.553812 427.187927 
L 321.770989 426.811286 
L 322.229874 425.938583 
L 322.299062 425.773228 
L 322.536066 425.61706 
L 323.504061 424.064567 
L 323.615491 423.862467 
L 324.022158 423.329659 
L 324.541651 423.182677 
L 324.845216 422.824409 
L 324.955396 422.686614 
L 325.437971 422.11706 
L 325.587413 421.960892 
L 325.68884 421.84147 
L 326.162804 421.694488 
L 326.255333 421.556693 
L 326.656849 421.106562 
L 326.748009 420.977953 
L 327.025277 420.886089 
L 327.899057 420.711549 
L 327.991616 420.454331 
L 328.093053 420.325722 
L 328.186122 420.17874 
L 328.307924 420.004199 
L 328.619643 419.214173 
L 328.726645 419.030446 
L 328.876732 418.626247 
L 329.001519 418.277165 
L 329.098149 418.148556 
L 329.176334 418.047507 
L 329.453546 417.918898 
L 329.733267 417.312598 
L 330.37001 415.594751 
L 330.458916 415.456955 
L 330.545388 415.181365 
L 331.041803 414.979265 
L 331.218145 414.602625 
L 331.447355 414.16168 
L 331.64851 413.830971 
L 331.88207 413.518635 
L 331.992473 413.288976 
L 332.36321 412.912336 
L 332.778145 412.783727 
L 332.891473 412.563255 
L 333.142617 412.269291 
L 333.271312 412.076378 
L 333.476854 411.809974 
L 333.757287 411.488451 
L 334.636015 411.350656 
L 334.80541 411.157743 
L 334.935764 411.075066 
L 335.259572 410.86378 
L 336.056918 410.716798 
L 336.289541 410.588189 
L 336.383229 410.404462 
L 336.489743 410.202362 
L 336.60658 410.018635 
L 337.414426 409.421522 
L 337.766901 409.274541 
L 337.850187 409.173491 
L 337.991452 409.044882 
L 338.100394 408.52126 
L 338.336292 408.034383 
L 338.481009 407.887402 
L 338.555028 407.731234 
L 338.712796 407.584252 
L 338.889673 407.33622 
L 339.375303 407.180052 
L 339.485871 406.996325 
L 339.584009 406.840157 
L 339.681698 406.638058 
L 339.885526 406.371654 
L 339.995198 406.224672 
L 340.208603 405.893963 
L 340.327401 405.756168 
L 340.400222 405.49895 
L 340.980923 405.287664 
L 341.089246 405.067192 
L 341.526354 404.267979 
L 341.614972 404.056693 
L 341.746829 403.928084 
L 342.392733 403.25748 
L 342.634291 403.119685 
L 343.018185 402.246982 
L 343.15605 402.063255 
L 343.733532 401.052756 
L 344.261909 400.804724 
L 344.388733 400.53832 
L 344.534371 400.372966 
L 344.626554 400.216798 
L 344.688392 400.088189 
L 344.792978 399.922835 
L 345.134032 399.48189 
L 345.285313 399.123622 
L 345.471449 398.939895 
L 345.950911 398.8021 
L 346.079574 398.526509 
L 346.18339 398.333596 
L 346.239856 398.186614 
L 346.317786 398.039633 
L 346.372807 397.92021 
L 346.483952 397.653806 
L 346.724638 397.203675 
L 346.824767 397.010761 
L 347.774334 396.165617 
L 347.877129 395.954331 
L 348.045834 395.807349 
L 348.144563 395.641995 
L 348.181732 395.495013 
L 348.285288 395.274541 
L 349.03076 394.346719 
L 349.148513 394.01601 
L 350.512319 391.719423 
L 350.894016 391.554068 
L 351.112722 391.315223 
L 352.129138 390.267979 
L 352.496806 390.13937 
L 352.735293 389.946457 
L 352.846191 389.643307 
L 353.452373 389.037008 
L 353.679268 388.834908 
L 354.214294 388.706299 
L 354.946773 388.054068 
L 355.040766 387.989764 
L 355.097702 387.870341 
L 355.208216 387.502887 
L 355.605263 387.025197 
L 355.832528 386.676115 
L 356.004771 386.529134 
L 356.282687 386.26273 
L 356.428713 386.088189 
L 356.530131 385.968766 
L 356.642603 385.830971 
L 356.777882 385.619685 
L 356.986588 385.537008 
L 357.438176 385.408399 
L 357.549198 385.252231 
L 357.759411 384.90315 
L 357.903484 384.746982 
L 358.03184 384.49895 
L 358.743702 383.699738 
L 359.058672 383.552756 
L 359.307979 383.185302 
L 359.916756 382.303412 
L 360.14911 382.037008 
L 360.759969 381.890026 
L 361.259565 381.219423 
L 361.620992 380.870341 
L 361.921148 380.576378 
L 362.289322 380.42021 
L 362.663242 379.602625 
L 362.936622 379.33622 
L 363.437681 378.454331 
L 364.016598 378.243045 
L 364.125838 378.004199 
L 364.27527 377.848031 
L 364.50081 377.517323 
L 365.083159 376.662992 
L 365.675583 376.506824 
L 365.728827 376.323097 
L 365.837122 376.212861 
L 366.235797 375.689239 
L 366.341696 375.487139 
L 366.518375 375.275853 
L 366.621608 375.000262 
L 366.906886 374.807349 
L 367.274699 374.67874 
L 367.380536 374.320472 
L 367.610562 373.934646 
L 367.700522 373.576378 
L 367.850109 373.411024 
L 367.92261 373.236483 
L 368.075765 373.107874 
L 368.177694 372.933333 
L 368.252857 372.786352 
L 368.366478 372.602625 
L 369.026859 372.06063 
L 369.150719 371.794226 
L 369.258854 371.647244 
L 369.363822 371.518635 
L 369.576363 371.233858 
L 369.685778 371.031759 
L 369.766726 370.857218 
L 369.872172 370.691864 
L 369.963391 370.407087 
L 369.981485 370.269291 
L 370.501424 370.12231 
L 370.835253 369.561942 
L 370.946235 369.286352 
L 371.116042 368.955643 
L 371.223607 368.790289 
L 371.779372 367.926772 
L 371.88874 367.743045 
L 372.193093 367.586877 
L 372.299922 367.393963 
L 372.413293 367.127559 
L 372.507604 367.008136 
L 372.668592 366.851969 
L 373.340885 366.025197 
L 373.814505 365.869029 
L 373.947904 365.731234 
L 374.04911 365.584252 
L 374.139551 365.455643 
L 374.234413 365.308661 
L 374.406507 365.097375 
L 374.480591 364.895276 
L 374.657365 364.766667 
L 374.737322 364.610499 
L 374.884285 364.463517 
L 374.927236 364.344094 
L 375.579685 364.160367 
L 376.012663 363.728609 
L 376.097978 363.535696 
L 376.25732 363.388714 
L 376.379212 363.12231 
L 376.484392 362.809974 
L 376.636094 362.534383 
L 376.704549 362.44252 
L 377.150508 362.304724 
L 377.205437 362.130184 
L 377.299728 361.83622 
L 377.423152 361.670866 
L 377.800973 361.009449 
L 377.907342 360.862467 
L 377.993551 360.788976 
L 378.153744 360.623622 
L 378.208767 360.366404 
L 378.801207 360.237795 
L 378.824613 360.182677 
L 379.184359 360.044882 
L 379.454851 359.668241 
L 379.771747 359.466142 
L 379.86889 359.328346 
L 379.97548 359.181365 
L 380.043372 359.061942 
L 380.719947 358.878215 
L 380.856897 358.501575 
L 380.965048 358.069816 
L 381.227409 357.766667 
L 381.324136 357.546194 
L 381.403528 357.399213 
L 381.478245 357.261417 
L 381.931392 357.059318 
L 382.082415 356.893963 
L 382.200458 356.6 
L 382.306822 356.3979 
L 382.413124 356.214173 
L 382.52199 355.846719 
L 382.963031 354.955643 
L 383.149267 354.744357 
L 383.219517 354.670866 
L 383.767721 354.441207 
L 383.876956 354.174803 
L 384.002709 353.890026 
L 384.110774 353.752231 
L 384.319779 353.504199 
L 384.582259 353.320472 
L 384.808673 352.833596 
L 385.432879 352.594751 
L 385.535392 352.42021 
L 385.787991 352.025197 
L 385.898772 351.795538 
L 386.533725 350.775853 
L 386.920041 350.546194 
L 387.017209 350.344094 
L 387.155182 350.160367 
L 387.446071 349.820472 
L 387.595422 349.655118 
L 387.696202 349.204987 
L 387.859233 348.975328 
L 387.932402 348.883465 
L 388.020604 348.754856 
L 388.366211 348.451706 
L 388.636651 348.332283 
L 388.746223 348.148556 
L 389.168021 347.45958 
L 389.27268 347.18399 
L 389.434399 346.963517 
L 389.54493 346.733858 
L 389.635677 346.623622 
L 390.305433 346.449081 
L 390.372936 346.320472 
L 390.48373 346.173491 
L 390.622939 346.017323 
L 390.721696 345.704987 
L 390.889917 345.466142 
L 391.086281 345.034383 
L 391.145235 344.887402 
L 391.256151 344.492388 
L 391.388869 344.235171 
L 391.467736 344.097375 
L 391.593756 343.950394 
L 391.694286 343.922835 
L 392.105003 343.518635 
L 392.184862 343.325722 
L 392.292959 343.187927 
L 392.680875 342.544882 
L 392.738696 342.416273 
L 392.778219 342.232546 
L 392.888777 341.975328 
L 393.40123 341.056693 
L 393.50534 340.964829 
L 393.897621 340.477953 
L 394.008722 340.321785 
L 394.726915 339.495013 
L 395.29629 339.375591 
L 395.632238 338.833596 
L 395.725558 338.62231 
L 396.019283 338.475328 
L 396.081205 338.337533 
L 396.152785 338.208924 
L 396.430198 338.04357 
L 396.506979 338.025197 
L 397.103661 337.896588 
L 397.31919 337.53832 
L 397.377052 337.372966 
L 397.484831 337.207612 
L 397.646224 337.079003 
L 397.850845 336.987139 
L 397.935036 336.821785 
L 398.04112 336.454331 
L 398.090025 336.261417 
L 398.192891 335.921522 
L 398.510066 335.609186 
L 398.594085 335.370341 
L 398.797995 335.241732 
L 398.924208 335.094751 
L 399.340145 334.424147 
L 399.415853 334.396588 
L 399.480168 334.277165 
L 399.622357 334.102625 
L 400.129774 333.891339 
L 400.742467 333.046194 
L 400.935751 332.687927 
L 401.039041 332.586877 
L 401.200152 332.412336 
L 401.220761 332.366404 
L 401.688777 332.237795 
L 401.872442 331.8979 
L 402.264473 331.264042 
L 402.408956 330.979265 
L 402.562856 330.777165 
L 402.682691 330.556693 
L 402.803904 330.299475 
L 402.913576 330.225984 
L 403.427822 329.932021 
L 403.586602 329.711549 
L 403.84223 329.316535 
L 404.15507 328.737795 
L 404.289898 328.480577 
L 404.756521 328.067192 
L 404.994424 327.929396 
L 405.162227 327.644619 
L 405.288359 327.479265 
L 405.425088 327.185302 
L 405.535803 327.010761 
L 405.958183 326.110499 
L 406.071071 325.935958 
L 406.168831 325.733858 
L 406.774432 325.311286 
L 406.869725 325.090814 
L 407.05339 324.870341 
L 407.163681 324.714173 
L 407.35714 324.328346 
L 407.462953 324.080315 
L 407.571715 323.896588 
L 407.702447 323.519948 
L 407.914757 323.418898 
L 408.426045 323.033071 
L 408.527599 322.739108 
L 408.603028 322.564567 
L 408.704865 322.408399 
L 408.911632 322.151181 
L 409.021891 321.737795 
L 409.281131 321.204987 
L 409.445001 320.993701 
L 409.672374 320.782415 
L 409.918376 320.626247 
L 410.026704 320.405774 
L 410.154663 320.120997 
L 410.268863 319.928084 
L 411.724172 317.438583 
L 411.769771 317.309974 
L 411.928505 317.052756 
L 412.002663 316.786352 
L 412.363022 315.977953 
L 413.358968 315.518635 
L 413.439084 315.417585 
L 413.616537 315.270604 
L 413.719406 315.123622 
L 414.534753 314.471391 
L 414.941133 314.315223 
L 415.59971 313.846719 
L 416.66276 313.54357 
L 416.733878 313.479265 
L 416.959016 313.350656 
L 417.067398 313.295538 
L 417.166008 313.166929 
L 417.245381 312.93727 
L 417.348054 312.735171 
L 417.446083 312.579003 
L 417.678964 312.202362 
L 417.779524 311.890026 
L 417.834072 311.733858 
L 417.937413 311.495013 
L 418.251096 311.118373 
L 418.350184 310.833596 
L 418.476462 310.640682 
L 418.588285 310.52126 
L 418.744499 310.328346 
L 418.852245 310.089501 
L 419.127792 309.832283 
L 419.24932 309.749606 
L 419.368639 309.685302 
L 420.03984 309.501575 
L 420.046152 309.492388 
L 420.450796 309.36378 
L 420.547035 309.281102 
L 420.938523 309.152493 
L 421.746806 309.033071 
L 422.225171 308.169554 
L 422.884752 307.737795 
L 423.087904 307.554068 
L 423.198063 307.361155 
L 423.657285 306.681365 
L 423.787531 306.525197 
L 424.03639 306.267979 
L 424.513399 305.83622 
L 424.782189 305.707612 
L 425.478847 304.890026 
L 425.672615 304.504199 
L 425.812095 304.311286 
L 425.897272 304.164304 
L 426.571968 303.851969 
L 426.86622 303.512073 
L 426.967416 303.346719 
L 427.487012 302.547507 
L 427.548554 302.446457 
L 428.109042 302.281102 
L 428.220494 301.941207 
L 428.351902 301.812598 
L 428.612288 301.537008 
L 428.75876 301.334908 
L 428.866783 301.197113 
L 429.471882 300.581627 
L 429.752171 300.3979 
L 429.861346 300.067192 
L 430.084933 299.672178 
L 430.195573 299.525197 
L 431.245235 298.294226 
L 431.424793 298.15643 
L 431.509187 297.991076 
L 431.611355 297.853281 
L 431.749043 297.586877 
L 432.061957 297.210236 
L 432.4194 296.631496 
L 433.06237 296.447769 
L 433.534974 295.94252 
L 433.69194 295.575066 
L 433.845234 295.207612 
L 433.955808 294.913648 
L 434.109496 294.527822 
L 434.282639 294.325722 
L 434.383299 294.151181 
L 434.556423 293.97664 
L 434.787704 293.6 
L 434.946955 293.140682 
L 435.0373 292.975328 
L 435.480158 292.313911 
L 435.676658 292.13937 
L 435.753144 292.102625 
L 436.317396 291.983202 
L 436.590651 291.707612 
L 437.063627 291.542257 
L 437.247949 291.441207 
L 438.204308 291.027822 
L 438.31378 290.890026 
L 439.102157 290.265354 
L 439.604781 290.136745 
L 439.706053 289.953018 
L 439.813139 289.668241 
L 440.175683 288.694488 
L 440.268266 288.400525 
L 440.453744 288.244357 
L 441.013233 287.95958 
L 441.345099 287.426772 
L 441.447305 287.187927 
L 441.601713 286.939895 
L 441.898575 286.526509 
L 442.001419 286.287664 
L 442.149281 286.113123 
L 442.561163 285.791601 
L 442.821256 285.653806 
L 443.896577 284.25748 
L 443.949216 284.193176 
L 444.382329 284.055381 
L 444.815983 283.531759 
L 444.924264 283.311286 
L 445.04285 283.155118 
L 445.147574 283.044882 
L 445.408036 282.649869 
L 445.561819 282.328346 
L 446.054359 282.107874 
L 446.223886 281.795538 
L 446.358356 281.630184 
L 446.473949 281.474016 
L 446.583792 281.225984 
L 447.074246 280.27979 
L 447.243064 280.132808 
L 447.262954 280.114436 
L 447.703001 279.967454 
L 447.739854 279.8021 
L 447.850787 279.554068 
L 448.062643 279.22336 
L 448.167916 279.002887 
L 448.240485 278.773228 
L 448.328141 278.51601 
L 448.473374 278.369029 
L 449.290699 277.680052 
L 449.461166 277.542257 
L 449.559111 277.441207 
L 449.674296 277.294226 
L 449.798497 277.138058 
L 449.99714 276.963517 
L 450.106138 276.798163 
L 450.52389 276.439895 
L 450.968766 276.3021 
L 451.031256 276.136745 
L 451.122071 275.971391 
L 451.286987 275.806037 
L 451.367242 275.659055 
L 451.719231 275.107874 
L 451.80328 274.933333 
L 452.179909 274.409711 
L 452.518676 274.290289 
L 452.781067 273.941207 
L 453.006682 273.500262 
L 453.650894 272.590814 
L 453.750944 272.471391 
L 453.810169 272.342782 
L 454.470093 271.92021 
L 454.577527 271.782415 
L 454.711858 271.561942 
L 455.158671 270.854593 
L 455.375433 270.624934 
L 456.048369 270.275853 
L 456.147506 270.128871 
L 456.264213 269.98189 
L 456.447331 269.853281 
L 456.541824 269.57769 
L 456.646922 269.384777 
L 456.784089 269.237795 
L 457.292568 268.686614 
L 457.69121 268.502887 
L 457.818987 268.144619 
L 457.997127 267.832283 
L 458.095335 267.722047 
L 458.431224 267.409711 
L 458.505324 267.372966 
L 459.282156 267.143307 
L 459.592259 266.775853 
L 459.96506 266.610499 
L 461.246509 266.059318 
L 461.354701 265.609186 
L 461.410089 265.443832 
L 461.506773 265.241732 
L 461.644244 265.039633 
L 461.739934 264.681365 
L 461.827585 264.51601 
L 461.926353 264.267979 
L 462.877525 263.523885 
L 463.066974 263.312598 
L 463.291754 263.110499 
L 463.401909 262.945144 
L 463.622101 262.614436 
L 464.152173 262.421522 
L 464.240582 262.348031 
L 464.307186 262.219423 
L 464.409835 262.044882 
L 464.916321 261.502887 
L 465.007785 261.365092 
L 465.215503 261.227297 
L 465.405623 261.080315 
L 465.75561 260.850656 
L 467.123138 259.031759 
L 467.528032 258.884777 
L 467.903193 258.554068 
L 468.182953 258.287664 
L 469.015473 257.828346 
L 469.191259 257.681365 
L 469.485785 257.369029 
L 469.736097 257.176115 
L 470.157263 256.716798 
L 470.234487 256.634121 
L 470.798992 256.450394 
L 470.958615 256.229921 
L 471.075696 256.027822 
L 471.256194 255.853281 
L 471.477972 255.559318 
L 472.161688 254.989764 
L 472.430065 254.861155 
L 472.530693 254.659055 
L 472.676493 254.512073 
L 472.769269 254.346719 
L 472.927338 254.208924 
L 473.451364 253.510761 
L 473.549081 253.409711 
L 474.171437 253.253543 
L 474.426549 253.033071 
L 474.533904 252.720735 
L 474.777084 252.344094 
L 474.887004 252.224672 
L 474.98047 252.068504 
L 475.082752 251.838845 
L 475.383335 251.728609 
L 475.749618 251.609186 
L 475.900014 251.324409 
L 476.006872 251.103937 
L 476.221399 250.81916 
L 476.330441 250.607874 
L 476.552447 250.313911 
L 476.655884 250.185302 
L 476.755137 250.047507 
L 476.963887 250.001575 
L 477.240705 249.845407 
L 477.706317 249.147244 
L 477.89816 248.963517 
L 477.962518 248.899213 
L 478.082924 248.770604 
L 478.162786 248.669554 
L 478.333188 248.513386 
L 478.395306 248.320472 
L 478.484684 248.155118 
L 478.935141 247.943832 
L 479.761426 246.951706 
L 479.869162 246.878215 
L 480.175829 246.657743 
L 480.695376 246.455643 
L 480.832366 246.382152 
L 481.874245 245.748294 
L 482.296817 245.601312 
L 483.207333 244.893963 
L 483.36623 244.820472 
L 483.947406 244.636745 
L 484.121068 244.287664 
L 484.226566 243.929396 
L 484.284761 243.745669 
L 484.391862 243.607874 
L 484.472714 243.460892 
L 484.576672 243.203675 
L 484.603694 243.047507 
L 484.713024 242.790289 
L 484.794591 242.634121 
L 484.990268 242.404462 
L 485.249848 242.266667 
L 485.334405 242.211549 
L 485.575657 242.055381 
L 485.686674 241.871654 
L 485.787467 241.733858 
L 485.915796 241.568504 
L 486.017358 241.430709 
L 486.087724 241.292913 
L 486.190387 241.008136 
L 486.351389 240.760105 
L 486.453432 240.659055 
L 487.330568 240.172178 
L 488.160275 239.36378 
L 488.269725 239.106562 
L 488.859133 238.812598 
L 489.148377 238.454331 
L 489.33903 238.169554 
L 489.459243 237.985827 
L 489.699764 237.719423 
L 490.080825 237.324409 
L 490.577938 237.12231 
L 490.655439 236.92021 
L 490.766469 236.745669 
L 490.996868 236.488451 
L 491.212416 236.203675 
L 491.347227 236.102625 
L 491.455767 235.974016 
L 491.534252 235.872966 
L 492.09264 235.643307 
L 492.194252 235.45958 
L 492.286979 235.285039 
L 492.401122 235.119685 
L 493.453373 233.824409 
L 493.758654 233.695801 
L 493.852976 233.493701 
L 494.083725 233.291601 
L 494.187816 233.181365 
L 494.286521 233.04357 
L 494.392171 232.850656 
L 494.936683 232.216798 
L 495.354049 232.079003 
L 495.91693 231.491076 
L 496.05263 231.298163 
L 496.434044 230.618373 
L 496.532067 230.434646 
L 498.169319 229.828346 
L 498.772856 229.644619 
L 499.102948 229.378215 
L 499.301024 229.222047 
L 499.401701 228.964829 
L 499.535782 228.753543 
L 499.639305 228.56063 
L 500.510922 227.88084 
L 500.743785 227.623622 
L 500.94736 227.467454 
L 501.278335 227.182677 
L 501.551435 226.99895 
L 501.959754 226.879528 
L 502.58494 226.098688 
L 502.679742 226.061942 
L 503.023754 225.869029 
L 503.151249 225.795538 
L 503.686935 225.620997 
L 503.867595 225.483202 
L 503.9916 225.317848 
L 504.208337 225.051444 
L 504.761802 224.702362 
L 505.840979 224.390026 
L 505.925803 224.288976 
L 506.223531 224.105249 
L 506.330906 224.031759 
L 506.634411 223.857218 
L 507.130419 223.673491 
L 507.43824 223.434646 
L 507.735376 223.22336 
L 507.845027 222.984514 
L 507.96838 222.782415 
L 508.077012 222.672178 
L 508.898954 221.872966 
L 508.998588 221.76273 
L 509.251423 221.505512 
L 509.519371 221.239108 
L 509.586739 221.101312 
L 510.46497 220.531759 
L 510.630559 220.311286 
L 510.953552 219.980577 
L 511.117981 219.677428 
L 511.244251 219.52126 
L 511.326055 219.429396 
L 512.080599 219.098688 
L 512.441336 218.749606 
L 512.696649 218.400525 
L 512.850089 218.26273 
L 512.96153 218.106562 
L 513.061818 218.023885 
L 513.628741 217.693176 
L 513.737297 217.463517 
L 513.829568 217.270604 
L 513.926434 217.187927 
L 514.110155 216.97664 
L 514.330437 216.691864 
L 514.459344 216.480577 
L 514.522306 216.342782 
L 514.797191 216.214173 
L 515.099229 216.058005 
L 515.477941 215.479265 
L 515.591839 215.396588 
L 515.917714 215.084252 
L 516.010096 215.019948 
L 516.113578 214.86378 
L 516.19932 214.808661 
L 516.774396 214.505512 
L 517.046594 214.229921 
L 517.151331 214.018635 
L 517.383487 213.697113 
L 517.494186 213.559318 
L 517.691887 213.265354 
L 517.803268 213.008136 
L 518.10642 212.870341 
L 518.44007 212.732546 
L 518.582517 212.52126 
L 518.725759 212.365092 
L 518.834779 212.135433 
L 518.963067 211.960892 
L 519.208751 211.53832 
L 519.400678 211.290289 
L 519.537765 210.968766 
L 520.072813 210.766667 
L 520.143714 210.592126 
L 520.239828 210.307349 
L 520.346195 210.141995 
L 520.453192 209.8021 
L 520.620237 209.6 
L 520.770346 209.434646 
L 521.424316 208.791601 
L 521.752018 208.662992 
L 521.931712 208.267979 
L 522.062925 208.065879 
L 522.173616 207.771916 
L 522.450168 207.165617 
L 522.542313 207.018635 
L 522.651847 206.871654 
L 523.028785 206.623622 
L 523.424689 206.439895 
L 524.144211 206.008136 
L 524.367159 205.861155 
L 525.312136 205.328346 
L 525.41394 205.11706 
L 525.49158 204.970079 
L 525.600044 204.676115 
L 525.803535 204.501575 
L 525.902897 204.33622 
L 526.953068 203.647244 
L 527.379304 203.17874 
L 527.575296 202.958268 
L 528.369198 202.260105 
L 528.527093 201.966142 
L 528.634408 201.855906 
L 528.791746 201.653806 
L 528.907776 201.34147 
L 529.244906 200.698425 
L 529.305899 200.569816 
L 529.696928 200.422835 
L 530.019769 200.046194 
L 530.127363 199.935958 
L 530.191062 199.798163 
L 530.269283 199.660367 
L 530.453737 199.531759 
L 530.764886 199.256168 
L 530.871386 199.035696 
L 530.935557 198.861155 
L 531.085486 198.704987 
L 531.451125 198.493701 
L 531.577194 198.282415 
L 531.680418 198.01601 
L 531.856508 197.74042 
L 531.954591 197.565879 
L 532.091478 197.409711 
L 532.278233 197.207612 
L 532.381199 197.097375 
L 532.601293 196.849344 
L 532.75044 196.785039 
L 533.246442 196.491076 
L 533.377704 196.316535 
L 533.526495 196.141995 
L 533.631132 195.930709 
L 533.765843 195.710236 
L 534.032726 195.260105 
L 534.222048 195.039633 
L 534.367101 194.892651 
L 535.120839 194.231234 
L 535.215674 194.047507 
L 535.35887 193.909711 
L 535.470986 193.588189 
L 535.714775 193.275853 
L 535.809221 193.18399 
L 535.879976 193.027822 
L 535.990094 192.935958 
L 536.471226 192.651181 
L 536.721199 192.063255 
L 536.842243 191.851969 
L 536.939297 191.686614 
L 537.057 191.512073 
L 537.161499 191.392651 
L 537.233231 191.254856 
L 537.325097 191.071129 
L 537.453252 190.914961 
L 537.557188 190.63937 
L 538.291647 190.014698 
L 538.63391 189.628871 
L 538.7963 189.48189 
L 538.897558 189.325722 
L 538.991548 189.169554 
L 539.099156 188.949081 
L 539.171277 188.820472 
L 539.33631 188.655118 
L 539.754406 188.471391 
L 539.857682 188.370341 
L 540.024108 188.214173 
L 540.115781 188.103937 
L 540.255172 187.966142 
L 540.363505 187.800787 
L 540.598407 187.644619 
L 541.505382 187.396588 
L 541.624028 187.267979 
L 541.733059 187.148556 
L 541.841626 186.946457 
L 541.913179 186.707612 
L 542.011273 186.579003 
L 542.106428 186.376903 
L 542.273017 186.193176 
L 542.381133 185.972703 
L 542.485132 185.844094 
L 542.587599 185.568504 
L 543.305401 185.164304 
L 543.453659 185.035696 
L 543.989038 184.870341 
L 544.020158 184.842782 
L 545.122017 184.640682 
L 545.546577 184.392651 
L 545.658118 184.11706 
L 545.745101 183.887402 
L 545.863418 183.676115 
L 546.303664 183.391339 
L 547.091743 182.702362 
L 547.202607 182.527822 
L 547.36903 182.362467 
L 547.465177 182.288976 
L 547.951736 182.050131 
L 548.176072 181.765354 
L 548.30169 181.572441 
L 548.407813 181.453018 
L 548.765823 181.131496 
L 548.867814 180.975328 
L 548.962339 180.782415 
L 549.107681 180.506824 
L 549.525378 180.258793 
L 549.64633 180.093438 
L 549.741955 179.93727 
L 549.907137 179.771916 
L 549.988826 179.643307 
L 550.090592 179.505512 
L 550.244068 179.266667 
L 550.296482 179.138058 
L 550.349642 179.064567 
L 550.597296 178.926772 
L 550.816803 178.788976 
L 551.252752 178.641995 
L 552.36032 177.01601 
L 552.956382 176.685302 
L 553.538705 175.895276 
L 553.71135 175.75748 
L 553.801275 175.638058 
L 554.848916 175.114436 
L 554.948325 175.013386 
L 555.105677 174.857218 
L 555.209322 174.673491 
L 555.319744 174.526509 
L 555.431038 174.278478 
L 555.534933 174.113123 
L 555.755956 173.892651 
L 556.164739 173.754856 
L 556.296428 173.561942 
L 556.390619 173.44252 
L 556.49924 173.212861 
L 556.638891 172.974016 
L 556.750335 172.808661 
L 557.003189 172.303412 
L 557.16424 172.15643 
L 557.271096 172.037008 
L 557.427204 171.917585 
L 557.89233 171.697113 
L 557.98943 171.513386 
L 558.148637 171.329659 
L 558.245101 171.026509 
L 558.410846 170.806037 
L 558.514073 170.603937 
L 558.606648 170.401837 
L 558.712599 170.208924 
L 559.66897 169.483202 
L 559.767694 169.271916 
L 559.877279 169.097375 
L 560.162816 168.766667 
L 560.260497 168.65643 
L 560.32199 168.500262 
L 560.435834 168.316535 
L 560.652234 168.031759 
L 561.232283 167.719423 
L 561.337789 167.480577 
L 561.466324 167.214173 
L 561.57265 166.984514 
L 561.94942 166.44252 
L 562.263309 165.86378 
L 562.788649 165.606562 
L 562.895369 165.441207 
L 563.021851 165.266667 
L 563.918494 163.576378 
L 564.077535 163.52126 
L 564.435398 163.374278 
L 564.435401 163.365092 
L 564.706247 163.236483 
L 564.794837 163.172178 
L 565.144632 162.970079 
L 565.230153 162.869029 
L 565.432789 162.731234 
L 565.43897 162.712861 
L 565.926053 162.575066 
L 566.217788 162.43727 
L 566.334247 162.308661 
L 566.43949 162.115748 
L 566.53135 161.932021 
L 566.64369 161.38084 
L 567.158028 160.8021 
L 568.000302 160.361155 
L 568.062371 160.278478 
L 568.257736 160.140682 
L 569.09279 159.350656 
L 569.388843 159.157743 
L 569.493656 159.019948 
L 570.675827 157.660367 
L 570.967222 157.513386 
L 571.060742 157.393963 
L 571.27126 157.191864 
L 571.621516 156.8979 
L 571.939704 156.530446 
L 572.03792 156.383465 
L 572.604283 156.098688 
L 572.723785 155.933333 
L 572.835413 155.767979 
L 572.944979 155.565879 
L 573.140988 155.207612 
L 573.27153 155.079003 
L 573.336613 154.932021 
L 573.432812 154.68399 
L 573.559597 154.509449 
L 573.667874 154.233858 
L 573.889576 154.07769 
L 574.240693 153.90315 
L 574.377688 153.70105 
L 574.631252 153.462205 
L 574.734044 153.159055 
L 574.8922 152.892651 
L 574.987287 152.745669 
L 575.186604 152.54357 
L 575.365839 152.332283 
L 576.051217 151.86378 
L 576.150528 151.827034 
L 576.408067 151.606562 
L 576.511697 151.386089 
L 576.682927 151.138058 
L 576.793311 150.935958 
L 577.084057 150.715486 
L 577.594494 150.467454 
L 577.707999 150.228609 
L 578.751839 149.374278 
L 579.211433 149.190551 
L 579.307503 148.997638 
L 579.453738 148.84147 
L 580.120768 147.647244 
L 580.197348 147.472703 
L 580.308435 147.252231 
L 580.72859 146.985827 
L 581.032807 146.636745 
L 581.138639 146.425459 
L 581.289057 146.260105 
L 581.629666 145.102625 
L 581.737277 144.909711 
L 581.877132 144.735171 
L 582.01105 144.597375 
L 583.5035 144.119685 
L 583.578098 144.000262 
L 584.058752 143.844094 
L 584.199873 143.669554 
L 584.463929 143.384777 
L 585.137826 142.79685 
L 585.665701 142.659055 
L 585.819185 142.484514 
L 585.973473 142.254856 
L 586.068055 142.126247 
L 586.48069 141.676115 
L 586.587839 141.418898 
L 586.734153 141.26273 
L 586.830022 141.033071 
L 587.22616 140.922835 
L 587.425748 140.794226 
L 588.599519 139.636745 
L 588.746647 139.49895 
L 589.241319 139.12231 
L 589.343978 138.984514 
L 589.674522 138.764042 
L 589.781361 138.662992 
L 590.430859 138.24042 
L 590.804279 138.093438 
L 591.089536 137.817848 
L 591.191905 137.735171 
L 591.486896 137.551444 
L 591.585609 137.496325 
L 592.326758 137.18399 
L 592.714929 136.954331 
L 593.172848 136.834908 
L 593.279521 136.752231 
L 593.434562 136.605249 
L 593.781018 136.439895 
L 594.069268 136.219423 
L 594.17231 136.026509 
L 594.288802 135.833596 
L 594.460864 135.52126 
L 594.575621 134.878215 
L 594.709218 134.676115 
L 594.811128 134.382152 
L 594.999953 134.189239 
L 595.102939 134.088189 
L 595.671599 133.922835 
L 595.777518 133.812598 
L 595.939509 133.592126 
L 596.05074 133.399213 
L 596.167194 133.27979 
L 596.296256 133.114436 
L 596.450512 132.893963 
L 597.572963 132.149869 
L 597.675916 132.067192 
L 597.848529 131.855906 
L 597.940314 131.800787 
L 598.178347 131.589501 
L 598.323303 131.424147 
L 598.970459 131.166929 
L 599.072011 131.102625 
L 599.46421 130.882152 
L 599.57414 130.680052 
L 599.690062 130.542257 
L 599.795008 130.25748 
L 599.919029 130.073753 
L 600.028574 129.935958 
L 600.689191 129.614436 
L 601.190801 129.311286 
L 601.340752 129.173491 
L 601.429967 129.072441 
L 601.459814 128.953018 
L 601.551435 128.704987 
L 601.701935 128.548819 
L 602.786128 127.510761 
L 602.894231 127.446457 
L 602.974763 127.271916 
L 603.074742 127.106562 
L 603.699073 126.75748 
L 604.134655 126.537008 
L 604.22302 126.417585 
L 604.530966 126.206299 
L 604.790369 125.70105 
L 605.577571 125.113123 
L 605.688408 125.012073 
L 605.977041 124.690551 
L 606.146408 124.497638 
L 606.311514 124.286352 
L 606.418861 124.222047 
L 606.804423 124.019948 
L 607.168259 123.854593 
L 607.797321 123.101312 
L 607.933697 122.853281 
L 608.044015 122.687927 
L 608.606802 122.393963 
L 608.823873 122.265354 
L 608.935012 122.054068 
L 609.53008 121.787664 
L 610.189502 121.548819 
L 610.680615 121.411024 
L 610.795231 121.034383 
L 610.997152 120.887402 
L 611.095539 120.63937 
L 611.523003 120.317848 
L 612.383157 119.564567 
L 612.490205 119.435958 
L 612.765339 119.160367 
L 612.852051 118.995013 
L 613.058277 118.838845 
L 613.16771 118.728609 
L 613.236884 118.691864 
L 613.675994 118.554068 
L 613.761847 118.407087 
L 614.011581 118.214173 
L 614.553907 117.708924 
L 614.88667 117.313911 
L 615.347573 117.130184 
L 615.41078 116.992388 
L 615.826937 116.624934 
L 616.110024 116.248294 
L 616.270216 116.000262 
L 616.805644 115.697113 
L 616.899887 115.660367 
L 617.012699 115.522572 
L 617.164358 115.430709 
L 617.462097 115.292913 
L 617.568554 115.127559 
L 617.676716 114.989764 
L 617.786931 114.888714 
L 617.893181 114.815223 
L 618.549675 114.512073 
L 618.695071 114.346719 
L 618.803396 114.282415 
L 619.845182 113.372966 
L 620.384027 113.16168 
L 620.494066 113.079003 
L 620.681644 112.803412 
L 621.001823 112.610499 
L 621.109977 112.454331 
L 621.196976 112.334908 
L 622.053482 111.985827 
L 622.238075 111.838845 
L 622.630369 111.627559 
L 622.636364 111.6 
L 622.636364 111.6 
" style="fill:none;stroke:#92c6ff;stroke-linecap:round;stroke-width:1.5;"/>
   </g>
   <g id="line2d_26">
    <defs>
     <path d="M 0 2.5 
C 0.663008 2.5 1.29895 2.236584 1.767767 1.767767 
C 2.236584 1.29895 2.5 0.663008 2.5 0 
C 2.5 -0.663008 2.236584 -1.29895 1.767767 -1.767767 
C 1.29895 -2.236584 0.663008 -2.5 0 -2.5 
C -0.663008 -2.5 -1.29895 -2.236584 -1.767767 -1.767767 
C -2.236584 -1.29895 -2.5 -0.663008 -2.5 0 
C -2.5 0.663008 -2.236584 1.29895 -1.767767 1.767767 
C -1.29895 2.236584 -0.663008 2.5 0 2.5 
z
" id="me6345f48bf" style="stroke:#696969;"/>
    </defs>
    <g clip-path="url(#pdebf2e744b)">
     <use style="fill:#696969;stroke:#696969;" x="115.363636" xlink:href="#me6345f48bf" y="615.6"/>
    </g>
   </g>
   <g id="line2d_27">
    <g clip-path="url(#pdebf2e744b)">
     <use style="fill:#696969;stroke:#696969;" x="198.355717" xlink:href="#me6345f48bf" y="565.194488"/>
    </g>
   </g>
   <g id="line2d_28">
    <g clip-path="url(#pdebf2e744b)">
     <use style="fill:#696969;stroke:#696969;" x="242.656839" xlink:href="#me6345f48bf" y="514.788976"/>
    </g>
   </g>
   <g id="line2d_29">
    <g clip-path="url(#pdebf2e744b)">
     <use style="fill:#696969;stroke:#696969;" x="292.121261" xlink:href="#me6345f48bf" y="464.383465"/>
    </g>
   </g>
   <g id="line2d_30">
    <g clip-path="url(#pdebf2e744b)">
     <use style="fill:#696969;stroke:#696969;" x="331.540739" xlink:href="#me6345f48bf" y="413.977953"/>
    </g>
   </g>
   <g id="line2d_31">
    <g clip-path="url(#pdebf2e744b)">
     <use style="fill:#696969;stroke:#696969;" x="376.097948" xlink:href="#me6345f48bf" y="363.572441"/>
    </g>
   </g>
   <g id="line2d_32">
    <g clip-path="url(#pdebf2e744b)">
     <use style="fill:#696969;stroke:#696969;" x="417.166003" xlink:href="#me6345f48bf" y="313.176115"/>
    </g>
   </g>
   <g id="line2d_33">
    <g clip-path="url(#pdebf2e744b)">
     <use style="fill:#696969;stroke:#696969;" x="463.529711" xlink:href="#me6345f48bf" y="262.77979"/>
    </g>
   </g>
   <g id="line2d_34">
    <g clip-path="url(#pdebf2e744b)">
     <use style="fill:#696969;stroke:#696969;" x="518.713053" xlink:href="#me6345f48bf" y="212.383465"/>
    </g>
   </g>
   <g id="line2d_35">
    <g clip-path="url(#pdebf2e744b)">
     <use style="fill:#696969;stroke:#696969;" x="566.531087" xlink:href="#me6345f48bf" y="161.987139"/>
    </g>
   </g>
   <g id="line2d_36">
    <g clip-path="url(#pdebf2e744b)">
     <use style="fill:#696969;stroke:#696969;" x="622.636364" xlink:href="#me6345f48bf" y="111.6"/>
    </g>
   </g>
   <g id="patch_3">
    <path d="M 90 640.8 
L 90 86.4 
" style="fill:none;stroke:#cccccc;stroke-linecap:square;stroke-linejoin:miter;"/>
   </g>
   <g id="patch_4">
    <path d="M 648 640.8 
L 648 86.4 
" style="fill:none;stroke:#cccccc;stroke-linecap:square;stroke-linejoin:miter;"/>
   </g>
   <g id="patch_5">
    <path d="M 90 640.8 
L 648 640.8 
" style="fill:none;stroke:#cccccc;stroke-linecap:square;stroke-linejoin:miter;"/>
   </g>
   <g id="patch_6">
    <path d="M 90 86.4 
L 648 86.4 
" style="fill:none;stroke:#cccccc;stroke-linecap:square;stroke-linejoin:miter;"/>
   </g>
   <g id="text_13">
    <!-- 1 (2014-06-07) -->
    <defs>
     <path id="DejaVuSans-32"/>
     <path d="M 31 75.875 
Q 24.46875 64.65625 21.28125 53.65625 
Q 18.109375 42.671875 18.109375 31.390625 
Q 18.109375 20.125 21.3125 9.0625 
Q 24.515625 -2 31 -13.1875 
L 23.1875 -13.1875 
Q 15.875 -1.703125 12.234375 9.375 
Q 8.59375 20.453125 8.59375 31.390625 
Q 8.59375 42.28125 12.203125 53.3125 
Q 15.828125 64.359375 23.1875 75.875 
z
" id="DejaVuSans-40"/>
     <path d="M 4.890625 31.390625 
L 31.203125 31.390625 
L 31.203125 23.390625 
L 4.890625 23.390625 
z
" id="DejaVuSans-45"/>
     <path d="M 8.015625 75.875 
L 15.828125 75.875 
Q 23.140625 64.359375 26.78125 53.3125 
Q 30.421875 42.28125 30.421875 31.390625 
Q 30.421875 20.453125 26.78125 9.375 
Q 23.140625 -1.703125 15.828125 -13.1875 
L 8.015625 -13.1875 
Q 14.5 -2 17.703125 9.0625 
Q 20.90625 20.125 20.90625 31.390625 
Q 20.90625 42.671875 17.703125 53.65625 
Q 14.5 64.65625 8.015625 75.875 
z
" id="DejaVuSans-41"/>
    </defs>
    <g style="fill:#262626;" transform="translate(120.363636 623.198437)scale(0.1 -0.1)">
     <use xlink:href="#DejaVuSans-49"/>
     <use x="63.623047" xlink:href="#DejaVuSans-32"/>
     <use x="95.410156" xlink:href="#DejaVuSans-40"/>
     <use x="134.423828" xlink:href="#DejaVuSans-50"/>
     <use x="198.046875" xlink:href="#DejaVuSans-48"/>
     <use x="261.669922" xlink:href="#DejaVuSans-49"/>
     <use x="325.292969" xlink:href="#DejaVuSans-52"/>
     <use x="388.916016" xlink:href="#DejaVuSans-45"/>
     <use x="425" xlink:href="#DejaVuSans-48"/>
     <use x="488.623047" xlink:href="#DejaVuSans-54"/>
     <use x="552.246094" xlink:href="#DejaVuSans-45"/>
     <use x="588.330078" xlink:href="#DejaVuSans-48"/>
     <use x="651.953125" xlink:href="#DejaVuSans-55"/>
     <use x="715.576172" xlink:href="#DejaVuSans-41"/>
    </g>
   </g>
   <g id="text_14">
    <!-- 5488 (2015-05-26) -->
    <g style="fill:#262626;" transform="translate(203.355717 572.792926)scale(0.1 -0.1)">
     <use xlink:href="#DejaVuSans-53"/>
     <use x="63.623047" xlink:href="#DejaVuSans-52"/>
     <use x="127.246094" xlink:href="#DejaVuSans-56"/>
     <use x="190.869141" xlink:href="#DejaVuSans-56"/>
     <use x="254.492188" xlink:href="#DejaVuSans-32"/>
     <use x="286.279297" xlink:href="#DejaVuSans-40"/>
     <use x="325.292969" xlink:href="#DejaVuSans-50"/>
     <use x="388.916016" xlink:href="#DejaVuSans-48"/>
     <use x="452.539062" xlink:href="#DejaVuSans-49"/>
     <use x="516.162109" xlink:href="#DejaVuSans-53"/>
     <use x="579.785156" xlink:href="#DejaVuSans-45"/>
     <use x="615.869141" xlink:href="#DejaVuSans-48"/>
     <use x="679.492188" xlink:href="#DejaVuSans-53"/>
     <use x="743.115234" xlink:href="#DejaVuSans-45"/>
     <use x="779.199219" xlink:href="#DejaVuSans-50"/>
     <use x="842.822266" xlink:href="#DejaVuSans-54"/>
     <use x="906.445312" xlink:href="#DejaVuSans-41"/>
    </g>
   </g>
   <g id="text_15">
    <!-- 10975 (2015-12-01) -->
    <g style="fill:#262626;" transform="translate(247.656839 522.387414)scale(0.1 -0.1)">
     <use xlink:href="#DejaVuSans-49"/>
     <use x="63.623047" xlink:href="#DejaVuSans-48"/>
     <use x="127.246094" xlink:href="#DejaVuSans-57"/>
     <use x="190.869141" xlink:href="#DejaVuSans-55"/>
     <use x="254.492188" xlink:href="#DejaVuSans-53"/>
     <use x="318.115234" xlink:href="#DejaVuSans-32"/>
     <use x="349.902344" xlink:href="#DejaVuSans-40"/>
     <use x="388.916016" xlink:href="#DejaVuSans-50"/>
     <use x="452.539062" xlink:href="#DejaVuSans-48"/>
     <use x="516.162109" xlink:href="#DejaVuSans-49"/>
     <use x="579.785156" xlink:href="#DejaVuSans-53"/>
     <use x="643.408203" xlink:href="#DejaVuSans-45"/>
     <use x="679.492188" xlink:href="#DejaVuSans-49"/>
     <use x="743.115234" xlink:href="#DejaVuSans-50"/>
     <use x="806.738281" xlink:href="#DejaVuSans-45"/>
     <use x="842.822266" xlink:href="#DejaVuSans-48"/>
     <use x="906.445312" xlink:href="#DejaVuSans-49"/>
     <use x="970.068359" xlink:href="#DejaVuSans-41"/>
    </g>
   </g>
   <g id="text_16">
    <!-- 16462 (2016-06-29) -->
    <g style="fill:#262626;" transform="translate(297.121261 471.981902)scale(0.1 -0.1)">
     <use xlink:href="#DejaVuSans-49"/>
     <use x="63.623047" xlink:href="#DejaVuSans-54"/>
     <use x="127.246094" xlink:href="#DejaVuSans-52"/>
     <use x="190.869141" xlink:href="#DejaVuSans-54"/>
     <use x="254.492188" xlink:href="#DejaVuSans-50"/>
     <use x="318.115234" xlink:href="#DejaVuSans-32"/>
     <use x="349.902344" xlink:href="#DejaVuSans-40"/>
     <use x="388.916016" xlink:href="#DejaVuSans-50"/>
     <use x="452.539062" xlink:href="#DejaVuSans-48"/>
     <use x="516.162109" xlink:href="#DejaVuSans-49"/>
     <use x="579.785156" xlink:href="#DejaVuSans-54"/>
     <use x="643.408203" xlink:href="#DejaVuSans-45"/>
     <use x="679.492188" xlink:href="#DejaVuSans-48"/>
     <use x="743.115234" xlink:href="#DejaVuSans-54"/>
     <use x="806.738281" xlink:href="#DejaVuSans-45"/>
     <use x="842.822266" xlink:href="#DejaVuSans-50"/>
     <use x="906.445312" xlink:href="#DejaVuSans-57"/>
     <use x="970.068359" xlink:href="#DejaVuSans-41"/>
    </g>
   </g>
   <g id="text_17">
    <!-- 21949 (2016-12-14) -->
    <g style="fill:#262626;" transform="translate(336.540739 421.57639)scale(0.1 -0.1)">
     <use xlink:href="#DejaVuSans-50"/>
     <use x="63.623047" xlink:href="#DejaVuSans-49"/>
     <use x="127.246094" xlink:href="#DejaVuSans-57"/>
     <use x="190.869141" xlink:href="#DejaVuSans-52"/>
     <use x="254.492188" xlink:href="#DejaVuSans-57"/>
     <use x="318.115234" xlink:href="#DejaVuSans-32"/>
     <use x="349.902344" xlink:href="#DejaVuSans-40"/>
     <use x="388.916016" xlink:href="#DejaVuSans-50"/>
     <use x="452.539062" xlink:href="#DejaVuSans-48"/>
     <use x="516.162109" xlink:href="#DejaVuSans-49"/>
     <use x="579.785156" xlink:href="#DejaVuSans-54"/>
     <use x="643.408203" xlink:href="#DejaVuSans-45"/>
     <use x="679.492188" xlink:href="#DejaVuSans-49"/>
     <use x="743.115234" xlink:href="#DejaVuSans-50"/>
     <use x="806.738281" xlink:href="#DejaVuSans-45"/>
     <use x="842.822266" xlink:href="#DejaVuSans-49"/>
     <use x="906.445312" xlink:href="#DejaVuSans-52"/>
     <use x="970.068359" xlink:href="#DejaVuSans-41"/>
    </g>
   </g>
   <g id="text_18">
    <!-- 27436 (2017-06-22) -->
    <g style="fill:#262626;" transform="translate(381.097948 371.170878)scale(0.1 -0.1)">
     <use xlink:href="#DejaVuSans-50"/>
     <use x="63.623047" xlink:href="#DejaVuSans-55"/>
     <use x="127.246094" xlink:href="#DejaVuSans-52"/>
     <use x="190.869141" xlink:href="#DejaVuSans-51"/>
     <use x="254.492188" xlink:href="#DejaVuSans-54"/>
     <use x="318.115234" xlink:href="#DejaVuSans-32"/>
     <use x="349.902344" xlink:href="#DejaVuSans-40"/>
     <use x="388.916016" xlink:href="#DejaVuSans-50"/>
     <use x="452.539062" xlink:href="#DejaVuSans-48"/>
     <use x="516.162109" xlink:href="#DejaVuSans-49"/>
     <use x="579.785156" xlink:href="#DejaVuSans-55"/>
     <use x="643.408203" xlink:href="#DejaVuSans-45"/>
     <use x="679.492188" xlink:href="#DejaVuSans-48"/>
     <use x="743.115234" xlink:href="#DejaVuSans-54"/>
     <use x="806.738281" xlink:href="#DejaVuSans-45"/>
     <use x="842.822266" xlink:href="#DejaVuSans-50"/>
     <use x="906.445312" xlink:href="#DejaVuSans-50"/>
     <use x="970.068359" xlink:href="#DejaVuSans-41"/>
    </g>
   </g>
   <g id="text_19">
    <!-- 32922 (2017-12-14) -->
    <g style="fill:#262626;" transform="translate(422.166003 320.774553)scale(0.1 -0.1)">
     <use xlink:href="#DejaVuSans-51"/>
     <use x="63.623047" xlink:href="#DejaVuSans-50"/>
     <use x="127.246094" xlink:href="#DejaVuSans-57"/>
     <use x="190.869141" xlink:href="#DejaVuSans-50"/>
     <use x="254.492188" xlink:href="#DejaVuSans-50"/>
     <use x="318.115234" xlink:href="#DejaVuSans-32"/>
     <use x="349.902344" xlink:href="#DejaVuSans-40"/>
     <use x="388.916016" xlink:href="#DejaVuSans-50"/>
     <use x="452.539062" xlink:href="#DejaVuSans-48"/>
     <use x="516.162109" xlink:href="#DejaVuSans-49"/>
     <use x="579.785156" xlink:href="#DejaVuSans-55"/>
     <use x="643.408203" xlink:href="#DejaVuSans-45"/>
     <use x="679.492188" xlink:href="#DejaVuSans-49"/>
     <use x="743.115234" xlink:href="#DejaVuSans-50"/>
     <use x="806.738281" xlink:href="#DejaVuSans-45"/>
     <use x="842.822266" xlink:href="#DejaVuSans-49"/>
     <use x="906.445312" xlink:href="#DejaVuSans-52"/>
     <use x="970.068359" xlink:href="#DejaVuSans-41"/>
    </g>
   </g>
   <g id="text_20">
    <!-- 38408 (2018-06-29) -->
    <g style="fill:#262626;" transform="translate(468.529711 270.378228)scale(0.1 -0.1)">
     <use xlink:href="#DejaVuSans-51"/>
     <use x="63.623047" xlink:href="#DejaVuSans-56"/>
     <use x="127.246094" xlink:href="#DejaVuSans-52"/>
     <use x="190.869141" xlink:href="#DejaVuSans-48"/>
     <use x="254.492188" xlink:href="#DejaVuSans-56"/>
     <use x="318.115234" xlink:href="#DejaVuSans-32"/>
     <use x="349.902344" xlink:href="#DejaVuSans-40"/>
     <use x="388.916016" xlink:href="#DejaVuSans-50"/>
     <use x="452.539062" xlink:href="#DejaVuSans-48"/>
     <use x="516.162109" xlink:href="#DejaVuSans-49"/>
     <use x="579.785156" xlink:href="#DejaVuSans-56"/>
     <use x="643.408203" xlink:href="#DejaVuSans-45"/>
     <use x="679.492188" xlink:href="#DejaVuSans-48"/>
     <use x="743.115234" xlink:href="#DejaVuSans-54"/>
     <use x="806.738281" xlink:href="#DejaVuSans-45"/>
     <use x="842.822266" xlink:href="#DejaVuSans-50"/>
     <use x="906.445312" xlink:href="#DejaVuSans-57"/>
     <use x="970.068359" xlink:href="#DejaVuSans-41"/>
    </g>
   </g>
   <g id="text_21">
    <!-- 43894 (2019-02-19) -->
    <g style="fill:#262626;" transform="translate(523.713053 219.981902)scale(0.1 -0.1)">
     <use xlink:href="#DejaVuSans-52"/>
     <use x="63.623047" xlink:href="#DejaVuSans-51"/>
     <use x="127.246094" xlink:href="#DejaVuSans-56"/>
     <use x="190.869141" xlink:href="#DejaVuSans-57"/>
     <use x="254.492188" xlink:href="#DejaVuSans-52"/>
     <use x="318.115234" xlink:href="#DejaVuSans-32"/>
     <use x="349.902344" xlink:href="#DejaVuSans-40"/>
     <use x="388.916016" xlink:href="#DejaVuSans-50"/>
     <use x="452.539062" xlink:href="#DejaVuSans-48"/>
     <use x="516.162109" xlink:href="#DejaVuSans-49"/>
     <use x="579.785156" xlink:href="#DejaVuSans-57"/>
     <use x="643.408203" xlink:href="#DejaVuSans-45"/>
     <use x="679.492188" xlink:href="#DejaVuSans-48"/>
     <use x="743.115234" xlink:href="#DejaVuSans-50"/>
     <use x="806.738281" xlink:href="#DejaVuSans-45"/>
     <use x="842.822266" xlink:href="#DejaVuSans-49"/>
     <use x="906.445312" xlink:href="#DejaVuSans-57"/>
     <use x="970.068359" xlink:href="#DejaVuSans-41"/>
    </g>
   </g>
   <g id="text_22">
    <!-- 49380 (2019-09-11) -->
    <g style="fill:#262626;" transform="translate(571.531087 169.585577)scale(0.1 -0.1)">
     <use xlink:href="#DejaVuSans-52"/>
     <use x="63.623047" xlink:href="#DejaVuSans-57"/>
     <use x="127.246094" xlink:href="#DejaVuSans-51"/>
     <use x="190.869141" xlink:href="#DejaVuSans-56"/>
     <use x="254.492188" xlink:href="#DejaVuSans-48"/>
     <use x="318.115234" xlink:href="#DejaVuSans-32"/>
     <use x="349.902344" xlink:href="#DejaVuSans-40"/>
     <use x="388.916016" xlink:href="#DejaVuSans-50"/>
     <use x="452.539062" xlink:href="#DejaVuSans-48"/>
     <use x="516.162109" xlink:href="#DejaVuSans-49"/>
     <use x="579.785156" xlink:href="#DejaVuSans-57"/>
     <use x="643.408203" xlink:href="#DejaVuSans-45"/>
     <use x="679.492188" xlink:href="#DejaVuSans-48"/>
     <use x="743.115234" xlink:href="#DejaVuSans-57"/>
     <use x="806.738281" xlink:href="#DejaVuSans-45"/>
     <use x="842.822266" xlink:href="#DejaVuSans-49"/>
     <use x="906.445312" xlink:href="#DejaVuSans-49"/>
     <use x="970.068359" xlink:href="#DejaVuSans-41"/>
    </g>
   </g>
   <g id="text_23">
    <!-- 54865 (2020-05-07) -->
    <g style="fill:#262626;" transform="translate(627.636364 119.198437)scale(0.1 -0.1)">
     <use xlink:href="#DejaVuSans-53"/>
     <use x="63.623047" xlink:href="#DejaVuSans-52"/>
     <use x="127.246094" xlink:href="#DejaVuSans-56"/>
     <use x="190.869141" xlink:href="#DejaVuSans-54"/>
     <use x="254.492188" xlink:href="#DejaVuSans-53"/>
     <use x="318.115234" xlink:href="#DejaVuSans-32"/>
     <use x="349.902344" xlink:href="#DejaVuSans-40"/>
     <use x="388.916016" xlink:href="#DejaVuSans-50"/>
     <use x="452.539062" xlink:href="#DejaVuSans-48"/>
     <use x="516.162109" xlink:href="#DejaVuSans-50"/>
     <use x="579.785156" xlink:href="#DejaVuSans-48"/>
     <use x="643.408203" xlink:href="#DejaVuSans-45"/>
     <use x="679.492188" xlink:href="#DejaVuSans-48"/>
     <use x="743.115234" xlink:href="#DejaVuSans-53"/>
     <use x="806.738281" xlink:href="#DejaVuSans-45"/>
     <use x="842.822266" xlink:href="#DejaVuSans-48"/>
     <use x="906.445312" xlink:href="#DejaVuSans-55"/>
     <use x="970.068359" xlink:href="#DejaVuSans-41"/>
    </g>
   </g>
   <g id="text_24">
    <!-- Closed PRs over time -->
    <defs>
     <path d="M 64.40625 67.28125 
L 64.40625 56.890625 
Q 59.421875 61.53125 53.78125 63.8125 
Q 48.140625 66.109375 41.796875 66.109375 
Q 29.296875 66.109375 22.65625 58.46875 
Q 16.015625 50.828125 16.015625 36.375 
Q 16.015625 21.96875 22.65625 14.328125 
Q 29.296875 6.6875 41.796875 6.6875 
Q 48.140625 6.6875 53.78125 8.984375 
Q 59.421875 11.28125 64.40625 15.921875 
L 64.40625 5.609375 
Q 59.234375 2.09375 53.4375 0.328125 
Q 47.65625 -1.421875 41.21875 -1.421875 
Q 24.65625 -1.421875 15.125 8.703125 
Q 5.609375 18.84375 5.609375 36.375 
Q 5.609375 53.953125 15.125 64.078125 
Q 24.65625 74.21875 41.21875 74.21875 
Q 47.75 74.21875 53.53125 72.484375 
Q 59.328125 70.75 64.40625 67.28125 
z
" id="DejaVuSans-67"/>
     <path d="M 9.421875 75.984375 
L 18.40625 75.984375 
L 18.40625 0 
L 9.421875 0 
z
" id="DejaVuSans-108"/>
     <path d="M 30.609375 48.390625 
Q 23.390625 48.390625 19.1875 42.75 
Q 14.984375 37.109375 14.984375 27.296875 
Q 14.984375 17.484375 19.15625 11.84375 
Q 23.34375 6.203125 30.609375 6.203125 
Q 37.796875 6.203125 41.984375 11.859375 
Q 46.1875 17.53125 46.1875 27.296875 
Q 46.1875 37.015625 41.984375 42.703125 
Q 37.796875 48.390625 30.609375 48.390625 
z
M 30.609375 56 
Q 42.328125 56 49.015625 48.375 
Q 55.71875 40.765625 55.71875 27.296875 
Q 55.71875 13.875 49.015625 6.21875 
Q 42.328125 -1.421875 30.609375 -1.421875 
Q 18.84375 -1.421875 12.171875 6.21875 
Q 5.515625 13.875 5.515625 27.296875 
Q 5.515625 40.765625 12.171875 48.375 
Q 18.84375 56 30.609375 56 
z
" id="DejaVuSans-111"/>
     <path d="M 44.28125 53.078125 
L 44.28125 44.578125 
Q 40.484375 46.53125 36.375 47.5 
Q 32.28125 48.484375 27.875 48.484375 
Q 21.1875 48.484375 17.84375 46.4375 
Q 14.5 44.390625 14.5 40.28125 
Q 14.5 37.15625 16.890625 35.375 
Q 19.28125 33.59375 26.515625 31.984375 
L 29.59375 31.296875 
Q 39.15625 29.25 43.1875 25.515625 
Q 47.21875 21.78125 47.21875 15.09375 
Q 47.21875 7.46875 41.1875 3.015625 
Q 35.15625 -1.421875 24.609375 -1.421875 
Q 20.21875 -1.421875 15.453125 -0.5625 
Q 10.6875 0.296875 5.421875 2 
L 5.421875 11.28125 
Q 10.40625 8.6875 15.234375 7.390625 
Q 20.0625 6.109375 24.8125 6.109375 
Q 31.15625 6.109375 34.5625 8.28125 
Q 37.984375 10.453125 37.984375 14.40625 
Q 37.984375 18.0625 35.515625 20.015625 
Q 33.0625 21.96875 24.703125 23.78125 
L 21.578125 24.515625 
Q 13.234375 26.265625 9.515625 29.90625 
Q 5.8125 33.546875 5.8125 39.890625 
Q 5.8125 47.609375 11.28125 51.796875 
Q 16.75 56 26.8125 56 
Q 31.78125 56 36.171875 55.265625 
Q 40.578125 54.546875 44.28125 53.078125 
z
" id="DejaVuSans-115"/>
     <path d="M 56.203125 29.59375 
L 56.203125 25.203125 
L 14.890625 25.203125 
Q 15.484375 15.921875 20.484375 11.0625 
Q 25.484375 6.203125 34.421875 6.203125 
Q 39.59375 6.203125 44.453125 7.46875 
Q 49.3125 8.734375 54.109375 11.28125 
L 54.109375 2.78125 
Q 49.265625 0.734375 44.1875 -0.34375 
Q 39.109375 -1.421875 33.890625 -1.421875 
Q 20.796875 -1.421875 13.15625 6.1875 
Q 5.515625 13.8125 5.515625 26.8125 
Q 5.515625 40.234375 12.765625 48.109375 
Q 20.015625 56 32.328125 56 
Q 43.359375 56 49.78125 48.890625 
Q 56.203125 41.796875 56.203125 29.59375 
z
M 47.21875 32.234375 
Q 47.125 39.59375 43.09375 43.984375 
Q 39.0625 48.390625 32.421875 48.390625 
Q 24.90625 48.390625 20.390625 44.140625 
Q 15.875 39.890625 15.1875 32.171875 
z
" id="DejaVuSans-101"/>
     <path d="M 45.40625 46.390625 
L 45.40625 75.984375 
L 54.390625 75.984375 
L 54.390625 0 
L 45.40625 0 
L 45.40625 8.203125 
Q 42.578125 3.328125 38.25 0.953125 
Q 33.9375 -1.421875 27.875 -1.421875 
Q 17.96875 -1.421875 11.734375 6.484375 
Q 5.515625 14.40625 5.515625 27.296875 
Q 5.515625 40.1875 11.734375 48.09375 
Q 17.96875 56 27.875 56 
Q 33.9375 56 38.25 53.625 
Q 42.578125 51.265625 45.40625 46.390625 
z
M 14.796875 27.296875 
Q 14.796875 17.390625 18.875 11.75 
Q 22.953125 6.109375 30.078125 6.109375 
Q 37.203125 6.109375 41.296875 11.75 
Q 45.40625 17.390625 45.40625 27.296875 
Q 45.40625 37.203125 41.296875 42.84375 
Q 37.203125 48.484375 30.078125 48.484375 
Q 22.953125 48.484375 18.875 42.84375 
Q 14.796875 37.203125 14.796875 27.296875 
z
" id="DejaVuSans-100"/>
     <path d="M 19.671875 64.796875 
L 19.671875 37.40625 
L 32.078125 37.40625 
Q 38.96875 37.40625 42.71875 40.96875 
Q 46.484375 44.53125 46.484375 51.125 
Q 46.484375 57.671875 42.71875 61.234375 
Q 38.96875 64.796875 32.078125 64.796875 
z
M 9.8125 72.90625 
L 32.078125 72.90625 
Q 44.34375 72.90625 50.609375 67.359375 
Q 56.890625 61.8125 56.890625 51.125 
Q 56.890625 40.328125 50.609375 34.8125 
Q 44.34375 29.296875 32.078125 29.296875 
L 19.671875 29.296875 
L 19.671875 0 
L 9.8125 0 
z
" id="DejaVuSans-80"/>
     <path d="M 44.390625 34.1875 
Q 47.5625 33.109375 50.5625 29.59375 
Q 53.5625 26.078125 56.59375 19.921875 
L 66.609375 0 
L 56 0 
L 46.6875 18.703125 
Q 43.0625 26.03125 39.671875 28.421875 
Q 36.28125 30.8125 30.421875 30.8125 
L 19.671875 30.8125 
L 19.671875 0 
L 9.8125 0 
L 9.8125 72.90625 
L 32.078125 72.90625 
Q 44.578125 72.90625 50.734375 67.671875 
Q 56.890625 62.453125 56.890625 51.90625 
Q 56.890625 45.015625 53.6875 40.46875 
Q 50.484375 35.9375 44.390625 34.1875 
z
M 19.671875 64.796875 
L 19.671875 38.921875 
L 32.078125 38.921875 
Q 39.203125 38.921875 42.84375 42.21875 
Q 46.484375 45.515625 46.484375 51.90625 
Q 46.484375 58.296875 42.84375 61.546875 
Q 39.203125 64.796875 32.078125 64.796875 
z
" id="DejaVuSans-82"/>
     <path d="M 2.984375 54.6875 
L 12.5 54.6875 
L 29.59375 8.796875 
L 46.6875 54.6875 
L 56.203125 54.6875 
L 35.6875 0 
L 23.484375 0 
z
" id="DejaVuSans-118"/>
     <path d="M 41.109375 46.296875 
Q 39.59375 47.171875 37.8125 47.578125 
Q 36.03125 48 33.890625 48 
Q 26.265625 48 22.1875 43.046875 
Q 18.109375 38.09375 18.109375 28.8125 
L 18.109375 0 
L 9.078125 0 
L 9.078125 54.6875 
L 18.109375 54.6875 
L 18.109375 46.1875 
Q 20.953125 51.171875 25.484375 53.578125 
Q 30.03125 56 36.53125 56 
Q 37.453125 56 38.578125 55.875 
Q 39.703125 55.765625 41.0625 55.515625 
z
" id="DejaVuSans-114"/>
     <path d="M 18.3125 70.21875 
L 18.3125 54.6875 
L 36.8125 54.6875 
L 36.8125 47.703125 
L 18.3125 47.703125 
L 18.3125 18.015625 
Q 18.3125 11.328125 20.140625 9.421875 
Q 21.96875 7.515625 27.59375 7.515625 
L 36.8125 7.515625 
L 36.8125 0 
L 27.59375 0 
Q 17.1875 0 13.234375 3.875 
Q 9.28125 7.765625 9.28125 18.015625 
L 9.28125 47.703125 
L 2.6875 47.703125 
L 2.6875 54.6875 
L 9.28125 54.6875 
L 9.28125 70.21875 
z
" id="DejaVuSans-116"/>
     <path d="M 9.421875 54.6875 
L 18.40625 54.6875 
L 18.40625 0 
L 9.421875 0 
z
M 9.421875 75.984375 
L 18.40625 75.984375 
L 18.40625 64.59375 
L 9.421875 64.59375 
z
" id="DejaVuSans-105"/>
     <path d="M 52 44.1875 
Q 55.375 50.25 60.0625 53.125 
Q 64.75 56 71.09375 56 
Q 79.640625 56 84.28125 50.015625 
Q 88.921875 44.046875 88.921875 33.015625 
L 88.921875 0 
L 79.890625 0 
L 79.890625 32.71875 
Q 79.890625 40.578125 77.09375 44.375 
Q 74.3125 48.1875 68.609375 48.1875 
Q 61.625 48.1875 57.5625 43.546875 
Q 53.515625 38.921875 53.515625 30.90625 
L 53.515625 0 
L 44.484375 0 
L 44.484375 32.71875 
Q 44.484375 40.625 41.703125 44.40625 
Q 38.921875 48.1875 33.109375 48.1875 
Q 26.21875 48.1875 22.15625 43.53125 
Q 18.109375 38.875 18.109375 30.90625 
L 18.109375 0 
L 9.078125 0 
L 9.078125 54.6875 
L 18.109375 54.6875 
L 18.109375 46.1875 
Q 21.1875 51.21875 25.484375 53.609375 
Q 29.78125 56 35.6875 56 
Q 41.65625 56 45.828125 52.96875 
Q 50 49.953125 52 44.1875 
z
" id="DejaVuSans-109"/>
    </defs>
    <g style="fill:#262626;" transform="translate(305.27625 80.4)scale(0.12 -0.12)">
     <use xlink:href="#DejaVuSans-67"/>
     <use x="69.824219" xlink:href="#DejaVuSans-108"/>
     <use x="97.607422" xlink:href="#DejaVuSans-111"/>
     <use x="158.789062" xlink:href="#DejaVuSans-115"/>
     <use x="210.888672" xlink:href="#DejaVuSans-101"/>
     <use x="272.412109" xlink:href="#DejaVuSans-100"/>
     <use x="335.888672" xlink:href="#DejaVuSans-32"/>
     <use x="367.675781" xlink:href="#DejaVuSans-80"/>
     <use x="427.978516" xlink:href="#DejaVuSans-82"/>
     <use x="497.460938" xlink:href="#DejaVuSans-115"/>
     <use x="549.560547" xlink:href="#DejaVuSans-32"/>
     <use x="581.347656" xlink:href="#DejaVuSans-111"/>
     <use x="642.529297" xlink:href="#DejaVuSans-118"/>
     <use x="701.708984" xlink:href="#DejaVuSans-101"/>
     <use x="763.232422" xlink:href="#DejaVuSans-114"/>
     <use x="804.345703" xlink:href="#DejaVuSans-32"/>
     <use x="836.132812" xlink:href="#DejaVuSans-116"/>
     <use x="875.341797" xlink:href="#DejaVuSans-105"/>
     <use x="903.125" xlink:href="#DejaVuSans-109"/>
     <use x="1000.537109" xlink:href="#DejaVuSans-101"/>
    </g>
   </g>
  </g>
 </g>
 <defs>
  <clipPath id="pdebf2e744b">
   <rect height="554.4" width="558" x="90" y="86.4"/>
  </clipPath>
 </defs>
</svg>
