<?xml version="1.0" encoding="utf-8" standalone="no"?>
<!DOCTYPE svg PUBLIC "-//W3C//DTD SVG 1.1//EN"
  "http://www.w3.org/Graphics/SVG/1.1/DTD/svg11.dtd">
<!-- Created with matplotlib (https://matplotlib.org/) -->
<svg height="720pt" version="1.1" viewBox="0 0 720 720" width="720pt" xmlns="http://www.w3.org/2000/svg" xmlns:xlink="http://www.w3.org/1999/xlink">
 <defs>
  <style type="text/css">
*{stroke-linecap:butt;stroke-linejoin:round;}
  </style>
 </defs>
 <g id="figure_1">
  <g id="patch_1">
   <path d="M 0 720 
L 720 720 
L 720 0 
L 0 0 
z
" style="fill:#ffffff;"/>
  </g>
  <g id="axes_1">
   <g id="patch_2">
    <path d="M 90 640.8 
L 648 640.8 
L 648 86.4 
L 90 86.4 
z
" style="fill:#ffffff;"/>
   </g>
   <g id="matplotlib.axis_1">
    <g id="xtick_1">
     <g id="line2d_1">
      <path clip-path="url(#p05a9e3a3f8)" d="M 164.159371 640.8 
L 164.159371 86.4 
" style="fill:none;stroke:#cccccc;stroke-linecap:round;stroke-width:0.8;"/>
     </g>
     <g id="line2d_2"/>
     <g id="text_1">
      <!-- 2015 -->
      <defs>
       <path d="M 19.1875 8.296875 
L 53.609375 8.296875 
L 53.609375 0 
L 7.328125 0 
L 7.328125 8.296875 
Q 12.9375 14.109375 22.625 23.890625 
Q 32.328125 33.6875 34.8125 36.53125 
Q 39.546875 41.84375 41.421875 45.53125 
Q 43.3125 49.21875 43.3125 52.78125 
Q 43.3125 58.59375 39.234375 62.25 
Q 35.15625 65.921875 28.609375 65.921875 
Q 23.96875 65.921875 18.8125 64.3125 
Q 13.671875 62.703125 7.8125 59.421875 
L 7.8125 69.390625 
Q 13.765625 71.78125 18.9375 73 
Q 24.125 74.21875 28.421875 74.21875 
Q 39.75 74.21875 46.484375 68.546875 
Q 53.21875 62.890625 53.21875 53.421875 
Q 53.21875 48.921875 51.53125 44.890625 
Q 49.859375 40.875 45.40625 35.40625 
Q 44.1875 33.984375 37.640625 27.21875 
Q 31.109375 20.453125 19.1875 8.296875 
z
" id="DejaVuSans-50"/>
       <path d="M 31.78125 66.40625 
Q 24.171875 66.40625 20.328125 58.90625 
Q 16.5 51.421875 16.5 36.375 
Q 16.5 21.390625 20.328125 13.890625 
Q 24.171875 6.390625 31.78125 6.390625 
Q 39.453125 6.390625 43.28125 13.890625 
Q 47.125 21.390625 47.125 36.375 
Q 47.125 51.421875 43.28125 58.90625 
Q 39.453125 66.40625 31.78125 66.40625 
z
M 31.78125 74.21875 
Q 44.046875 74.21875 50.515625 64.515625 
Q 56.984375 54.828125 56.984375 36.375 
Q 56.984375 17.96875 50.515625 8.265625 
Q 44.046875 -1.421875 31.78125 -1.421875 
Q 19.53125 -1.421875 13.0625 8.265625 
Q 6.59375 17.96875 6.59375 36.375 
Q 6.59375 54.828125 13.0625 64.515625 
Q 19.53125 74.21875 31.78125 74.21875 
z
" id="DejaVuSans-48"/>
       <path d="M 12.40625 8.296875 
L 28.515625 8.296875 
L 28.515625 63.921875 
L 10.984375 60.40625 
L 10.984375 69.390625 
L 28.421875 72.90625 
L 38.28125 72.90625 
L 38.28125 8.296875 
L 54.390625 8.296875 
L 54.390625 0 
L 12.40625 0 
z
" id="DejaVuSans-49"/>
       <path d="M 10.796875 72.90625 
L 49.515625 72.90625 
L 49.515625 64.59375 
L 19.828125 64.59375 
L 19.828125 46.734375 
Q 21.96875 47.46875 24.109375 47.828125 
Q 26.265625 48.1875 28.421875 48.1875 
Q 40.625 48.1875 47.75 41.5 
Q 54.890625 34.8125 54.890625 23.390625 
Q 54.890625 11.625 47.5625 5.09375 
Q 40.234375 -1.421875 26.90625 -1.421875 
Q 22.3125 -1.421875 17.546875 -0.640625 
Q 12.796875 0.140625 7.71875 1.703125 
L 7.71875 11.625 
Q 12.109375 9.234375 16.796875 8.0625 
Q 21.484375 6.890625 26.703125 6.890625 
Q 35.15625 6.890625 40.078125 11.328125 
Q 45.015625 15.765625 45.015625 23.390625 
Q 45.015625 31 40.078125 35.4375 
Q 35.15625 39.890625 26.703125 39.890625 
Q 22.75 39.890625 18.8125 39.015625 
Q 14.890625 38.140625 10.796875 36.28125 
z
" id="DejaVuSans-53"/>
      </defs>
      <g style="fill:#262626;" transform="translate(151.434371 651.898438)scale(0.1 -0.1)">
       <use xlink:href="#DejaVuSans-50"/>
       <use x="63.623047" xlink:href="#DejaVuSans-48"/>
       <use x="127.246094" xlink:href="#DejaVuSans-49"/>
       <use x="190.869141" xlink:href="#DejaVuSans-53"/>
      </g>
     </g>
    </g>
    <g id="xtick_2">
     <g id="line2d_3">
      <path clip-path="url(#p05a9e3a3f8)" d="M 249.834198 640.8 
L 249.834198 86.4 
" style="fill:none;stroke:#cccccc;stroke-linecap:round;stroke-width:0.8;"/>
     </g>
     <g id="line2d_4"/>
     <g id="text_2">
      <!-- 2016 -->
      <defs>
       <path d="M 33.015625 40.375 
Q 26.375 40.375 22.484375 35.828125 
Q 18.609375 31.296875 18.609375 23.390625 
Q 18.609375 15.53125 22.484375 10.953125 
Q 26.375 6.390625 33.015625 6.390625 
Q 39.65625 6.390625 43.53125 10.953125 
Q 47.40625 15.53125 47.40625 23.390625 
Q 47.40625 31.296875 43.53125 35.828125 
Q 39.65625 40.375 33.015625 40.375 
z
M 52.59375 71.296875 
L 52.59375 62.3125 
Q 48.875 64.0625 45.09375 64.984375 
Q 41.3125 65.921875 37.59375 65.921875 
Q 27.828125 65.921875 22.671875 59.328125 
Q 17.53125 52.734375 16.796875 39.40625 
Q 19.671875 43.65625 24.015625 45.921875 
Q 28.375 48.1875 33.59375 48.1875 
Q 44.578125 48.1875 50.953125 41.515625 
Q 57.328125 34.859375 57.328125 23.390625 
Q 57.328125 12.15625 50.6875 5.359375 
Q 44.046875 -1.421875 33.015625 -1.421875 
Q 20.359375 -1.421875 13.671875 8.265625 
Q 6.984375 17.96875 6.984375 36.375 
Q 6.984375 53.65625 15.1875 63.9375 
Q 23.390625 74.21875 37.203125 74.21875 
Q 40.921875 74.21875 44.703125 73.484375 
Q 48.484375 72.75 52.59375 71.296875 
z
" id="DejaVuSans-54"/>
      </defs>
      <g style="fill:#262626;" transform="translate(237.109198 651.898438)scale(0.1 -0.1)">
       <use xlink:href="#DejaVuSans-50"/>
       <use x="63.623047" xlink:href="#DejaVuSans-48"/>
       <use x="127.246094" xlink:href="#DejaVuSans-49"/>
       <use x="190.869141" xlink:href="#DejaVuSans-54"/>
      </g>
     </g>
    </g>
    <g id="xtick_3">
     <g id="line2d_5">
      <path clip-path="url(#p05a9e3a3f8)" d="M 335.743751 640.8 
L 335.743751 86.4 
" style="fill:none;stroke:#cccccc;stroke-linecap:round;stroke-width:0.8;"/>
     </g>
     <g id="line2d_6"/>
     <g id="text_3">
      <!-- 2017 -->
      <defs>
       <path d="M 8.203125 72.90625 
L 55.078125 72.90625 
L 55.078125 68.703125 
L 28.609375 0 
L 18.3125 0 
L 43.21875 64.59375 
L 8.203125 64.59375 
z
" id="DejaVuSans-55"/>
      </defs>
      <g style="fill:#262626;" transform="translate(323.018751 651.898438)scale(0.1 -0.1)">
       <use xlink:href="#DejaVuSans-50"/>
       <use x="63.623047" xlink:href="#DejaVuSans-48"/>
       <use x="127.246094" xlink:href="#DejaVuSans-49"/>
       <use x="190.869141" xlink:href="#DejaVuSans-55"/>
      </g>
     </g>
    </g>
    <g id="xtick_4">
     <g id="line2d_7">
      <path clip-path="url(#p05a9e3a3f8)" d="M 421.418578 640.8 
L 421.418578 86.4 
" style="fill:none;stroke:#cccccc;stroke-linecap:round;stroke-width:0.8;"/>
     </g>
     <g id="line2d_8"/>
     <g id="text_4">
      <!-- 2018 -->
      <defs>
       <path d="M 31.78125 34.625 
Q 24.75 34.625 20.71875 30.859375 
Q 16.703125 27.09375 16.703125 20.515625 
Q 16.703125 13.921875 20.71875 10.15625 
Q 24.75 6.390625 31.78125 6.390625 
Q 38.8125 6.390625 42.859375 10.171875 
Q 46.921875 13.96875 46.921875 20.515625 
Q 46.921875 27.09375 42.890625 30.859375 
Q 38.875 34.625 31.78125 34.625 
z
M 21.921875 38.8125 
Q 15.578125 40.375 12.03125 44.71875 
Q 8.5 49.078125 8.5 55.328125 
Q 8.5 64.0625 14.71875 69.140625 
Q 20.953125 74.21875 31.78125 74.21875 
Q 42.671875 74.21875 48.875 69.140625 
Q 55.078125 64.0625 55.078125 55.328125 
Q 55.078125 49.078125 51.53125 44.71875 
Q 48 40.375 41.703125 38.8125 
Q 48.828125 37.15625 52.796875 32.3125 
Q 56.78125 27.484375 56.78125 20.515625 
Q 56.78125 9.90625 50.3125 4.234375 
Q 43.84375 -1.421875 31.78125 -1.421875 
Q 19.734375 -1.421875 13.25 4.234375 
Q 6.78125 9.90625 6.78125 20.515625 
Q 6.78125 27.484375 10.78125 32.3125 
Q 14.796875 37.15625 21.921875 38.8125 
z
M 18.3125 54.390625 
Q 18.3125 48.734375 21.84375 45.5625 
Q 25.390625 42.390625 31.78125 42.390625 
Q 38.140625 42.390625 41.71875 45.5625 
Q 45.3125 48.734375 45.3125 54.390625 
Q 45.3125 60.0625 41.71875 63.234375 
Q 38.140625 66.40625 31.78125 66.40625 
Q 25.390625 66.40625 21.84375 63.234375 
Q 18.3125 60.0625 18.3125 54.390625 
z
" id="DejaVuSans-56"/>
      </defs>
      <g style="fill:#262626;" transform="translate(408.693578 651.898438)scale(0.1 -0.1)">
       <use xlink:href="#DejaVuSans-50"/>
       <use x="63.623047" xlink:href="#DejaVuSans-48"/>
       <use x="127.246094" xlink:href="#DejaVuSans-49"/>
       <use x="190.869141" xlink:href="#DejaVuSans-56"/>
      </g>
     </g>
    </g>
    <g id="xtick_5">
     <g id="line2d_9">
      <path clip-path="url(#p05a9e3a3f8)" d="M 507.093405 640.8 
L 507.093405 86.4 
" style="fill:none;stroke:#cccccc;stroke-linecap:round;stroke-width:0.8;"/>
     </g>
     <g id="line2d_10"/>
     <g id="text_5">
      <!-- 2019 -->
      <defs>
       <path d="M 10.984375 1.515625 
L 10.984375 10.5 
Q 14.703125 8.734375 18.5 7.8125 
Q 22.3125 6.890625 25.984375 6.890625 
Q 35.75 6.890625 40.890625 13.453125 
Q 46.046875 20.015625 46.78125 33.40625 
Q 43.953125 29.203125 39.59375 26.953125 
Q 35.25 24.703125 29.984375 24.703125 
Q 19.046875 24.703125 12.671875 31.3125 
Q 6.296875 37.9375 6.296875 49.421875 
Q 6.296875 60.640625 12.9375 67.421875 
Q 19.578125 74.21875 30.609375 74.21875 
Q 43.265625 74.21875 49.921875 64.515625 
Q 56.59375 54.828125 56.59375 36.375 
Q 56.59375 19.140625 48.40625 8.859375 
Q 40.234375 -1.421875 26.421875 -1.421875 
Q 22.703125 -1.421875 18.890625 -0.6875 
Q 15.09375 0.046875 10.984375 1.515625 
z
M 30.609375 32.421875 
Q 37.25 32.421875 41.125 36.953125 
Q 45.015625 41.5 45.015625 49.421875 
Q 45.015625 57.28125 41.125 61.84375 
Q 37.25 66.40625 30.609375 66.40625 
Q 23.96875 66.40625 20.09375 61.84375 
Q 16.21875 57.28125 16.21875 49.421875 
Q 16.21875 41.5 20.09375 36.953125 
Q 23.96875 32.421875 30.609375 32.421875 
z
" id="DejaVuSans-57"/>
      </defs>
      <g style="fill:#262626;" transform="translate(494.368405 651.898438)scale(0.1 -0.1)">
       <use xlink:href="#DejaVuSans-50"/>
       <use x="63.623047" xlink:href="#DejaVuSans-48"/>
       <use x="127.246094" xlink:href="#DejaVuSans-49"/>
       <use x="190.869141" xlink:href="#DejaVuSans-57"/>
      </g>
     </g>
    </g>
    <g id="xtick_6">
     <g id="line2d_11">
      <path clip-path="url(#p05a9e3a3f8)" d="M 592.768233 640.8 
L 592.768233 86.4 
" style="fill:none;stroke:#cccccc;stroke-linecap:round;stroke-width:0.8;"/>
     </g>
     <g id="line2d_12"/>
     <g id="text_6">
      <!-- 2020 -->
      <g style="fill:#262626;" transform="translate(580.043233 651.898438)scale(0.1 -0.1)">
       <use xlink:href="#DejaVuSans-50"/>
       <use x="63.623047" xlink:href="#DejaVuSans-48"/>
       <use x="127.246094" xlink:href="#DejaVuSans-50"/>
       <use x="190.869141" xlink:href="#DejaVuSans-48"/>
      </g>
     </g>
    </g>
   </g>
   <g id="matplotlib.axis_2">
    <g id="ytick_1">
     <g id="line2d_13">
      <path clip-path="url(#p05a9e3a3f8)" d="M 90 615.605781 
L 648 615.605781 
" style="fill:none;stroke:#cccccc;stroke-linecap:round;stroke-width:0.8;"/>
     </g>
     <g id="line2d_14"/>
     <g id="text_7">
      <!-- 0 -->
      <g style="fill:#262626;" transform="translate(80.1375 619.405)scale(0.1 -0.1)">
       <use xlink:href="#DejaVuSans-48"/>
      </g>
     </g>
    </g>
    <g id="ytick_2">
     <g id="line2d_15">
      <path clip-path="url(#p05a9e3a3f8)" d="M 90 499.98691 
L 648 499.98691 
" style="fill:none;stroke:#cccccc;stroke-linecap:round;stroke-width:0.8;"/>
     </g>
     <g id="line2d_16"/>
     <g id="text_8">
      <!-- 20000 -->
      <g style="fill:#262626;" transform="translate(54.6875 503.786129)scale(0.1 -0.1)">
       <use xlink:href="#DejaVuSans-50"/>
       <use x="63.623047" xlink:href="#DejaVuSans-48"/>
       <use x="127.246094" xlink:href="#DejaVuSans-48"/>
       <use x="190.869141" xlink:href="#DejaVuSans-48"/>
       <use x="254.492188" xlink:href="#DejaVuSans-48"/>
      </g>
     </g>
    </g>
    <g id="ytick_3">
     <g id="line2d_17">
      <path clip-path="url(#p05a9e3a3f8)" d="M 90 384.36804 
L 648 384.36804 
" style="fill:none;stroke:#cccccc;stroke-linecap:round;stroke-width:0.8;"/>
     </g>
     <g id="line2d_18"/>
     <g id="text_9">
      <!-- 40000 -->
      <defs>
       <path d="M 37.796875 64.3125 
L 12.890625 25.390625 
L 37.796875 25.390625 
z
M 35.203125 72.90625 
L 47.609375 72.90625 
L 47.609375 25.390625 
L 58.015625 25.390625 
L 58.015625 17.1875 
L 47.609375 17.1875 
L 47.609375 0 
L 37.796875 0 
L 37.796875 17.1875 
L 4.890625 17.1875 
L 4.890625 26.703125 
z
" id="DejaVuSans-52"/>
      </defs>
      <g style="fill:#262626;" transform="translate(54.6875 388.167258)scale(0.1 -0.1)">
       <use xlink:href="#DejaVuSans-52"/>
       <use x="63.623047" xlink:href="#DejaVuSans-48"/>
       <use x="127.246094" xlink:href="#DejaVuSans-48"/>
       <use x="190.869141" xlink:href="#DejaVuSans-48"/>
       <use x="254.492188" xlink:href="#DejaVuSans-48"/>
      </g>
     </g>
    </g>
    <g id="ytick_4">
     <g id="line2d_19">
      <path clip-path="url(#p05a9e3a3f8)" d="M 90 268.749169 
L 648 268.749169 
" style="fill:none;stroke:#cccccc;stroke-linecap:round;stroke-width:0.8;"/>
     </g>
     <g id="line2d_20"/>
     <g id="text_10">
      <!-- 60000 -->
      <g style="fill:#262626;" transform="translate(54.6875 272.548388)scale(0.1 -0.1)">
       <use xlink:href="#DejaVuSans-54"/>
       <use x="63.623047" xlink:href="#DejaVuSans-48"/>
       <use x="127.246094" xlink:href="#DejaVuSans-48"/>
       <use x="190.869141" xlink:href="#DejaVuSans-48"/>
       <use x="254.492188" xlink:href="#DejaVuSans-48"/>
      </g>
     </g>
    </g>
    <g id="ytick_5">
     <g id="line2d_21">
      <path clip-path="url(#p05a9e3a3f8)" d="M 90 153.130298 
L 648 153.130298 
" style="fill:none;stroke:#cccccc;stroke-linecap:round;stroke-width:0.8;"/>
     </g>
     <g id="line2d_22"/>
     <g id="text_11">
      <!-- 80000 -->
      <g style="fill:#262626;" transform="translate(54.6875 156.929517)scale(0.1 -0.1)">
       <use xlink:href="#DejaVuSans-56"/>
       <use x="63.623047" xlink:href="#DejaVuSans-48"/>
       <use x="127.246094" xlink:href="#DejaVuSans-48"/>
       <use x="190.869141" xlink:href="#DejaVuSans-48"/>
       <use x="254.492188" xlink:href="#DejaVuSans-48"/>
      </g>
     </g>
    </g>
   </g>
   <g id="line2d_23">
    <path clip-path="url(#p05a9e3a3f8)" d="M 115.363636 615.6 
L 116.7097 615.287829 
L 116.795432 615.183772 
L 117.500171 615.045029 
L 117.628974 614.998782 
L 118.551641 614.755982 
L 118.571033 614.738639 
L 119.503453 614.605678 
L 119.613204 614.490059 
L 120.246721 614.357097 
L 120.323849 614.31085 
L 121.155739 614.160545 
L 121.256169 614.050707 
L 123.074982 613.842593 
L 123.530149 613.692289 
L 123.606155 613.651822 
L 124.254041 613.513079 
L 124.330098 613.466832 
L 124.727531 613.316527 
L 124.733864 613.299184 
L 125.165474 613.172004 
L 125.487868 613.108413 
L 126.273976 612.952328 
L 126.378823 612.882957 
L 126.624622 612.767338 
L 126.727179 612.726871 
L 127.576002 612.426262 
L 127.601811 612.4147 
L 127.995205 612.281738 
L 128.032557 612.252834 
L 128.479095 612.119872 
L 128.486077 612.102529 
L 129.148609 611.98691 
L 129.427949 611.784577 
L 130.073816 611.651616 
L 130.122193 611.599587 
L 131.029024 611.466625 
L 131.54031 611.270073 
L 132.41099 611.131331 
L 132.571785 611.009931 
L 132.979436 610.848064 
L 132.990906 610.830722 
L 134.063072 610.668855 
L 134.165178 610.582141 
L 134.343892 610.460741 
L 134.40904 610.420275 
L 134.742847 610.293094 
L 134.88256 610.177475 
L 136.206556 609.952018 
L 136.2934 609.89999 
L 136.669564 609.767028 
L 136.747653 609.726561 
L 137.440523 609.587819 
L 138.279479 609.240962 
L 139.914669 608.911448 
L 141.583241 608.448973 
L 141.631309 608.396944 
L 142.482042 608.252421 
L 142.710419 608.200392 
L 143.253963 607.951812 
L 143.301253 607.905564 
L 143.976698 607.778383 
L 144.258064 607.541365 
L 144.604879 607.414184 
L 144.906572 607.14248 
L 145.789363 607.003737 
L 145.850617 606.934366 
L 146.074978 606.818747 
L 146.14244 606.795623 
L 146.483409 606.668442 
L 146.61974 606.506576 
L 147.240342 606.390957 
L 148.128982 606.026758 
L 149.097035 605.830205 
L 149.165822 605.778177 
L 149.566749 605.650996 
L 149.654239 605.541158 
L 150.473333 605.379292 
L 150.558918 605.281016 
L 150.959712 605.153835 
L 151.053711 605.020873 
L 151.258653 604.899474 
L 151.500641 604.795417 
L 152.19069 604.662455 
L 152.247777 604.610426 
L 152.438114 604.489027 
L 152.871343 604.304036 
L 152.964543 604.246227 
L 153.134301 604.124827 
L 153.178341 604.08436 
L 153.787011 603.95718 
L 153.893665 603.829999 
L 154.294918 603.691256 
L 154.334349 603.656571 
L 154.551095 603.540952 
L 154.66705 603.506266 
L 154.803061 603.431114 
L 155.441791 603.315495 
L 155.719254 603.130505 
L 157.063457 602.962857 
L 157.133106 602.881924 
L 157.359773 602.743182 
L 157.420452 602.67381 
L 157.747859 602.540849 
L 158.123028 602.350077 
L 158.954204 602.205554 
L 159.014206 602.037906 
L 159.396346 601.910726 
L 159.509235 601.748859 
L 159.725707 601.627459 
L 160.405949 601.407784 
L 160.42806 601.378879 
L 160.635621 601.257479 
L 160.654451 601.095613 
L 160.930848 600.974213 
L 161.115975 600.800785 
L 161.511588 600.581109 
L 162.046781 600.46549 
L 162.088836 600.425023 
L 163.870017 600.228471 
L 164.078716 600.176443 
L 165.317687 600.055043 
L 165.388205 599.968329 
L 165.567488 599.85271 
L 166.078486 599.384453 
L 166.27117 599.268835 
L 166.291632 599.222587 
L 166.956411 599.106968 
L 167.038125 599.014473 
L 167.226063 598.898854 
L 167.283446 598.881511 
L 167.423344 598.760111 
L 167.703259 598.372788 
L 167.901138 598.257169 
L 167.934241 598.228265 
L 168.830656 598.106865 
L 169.098455 597.765789 
L 169.301167 597.65017 
L 169.640139 597.395809 
L 170.313595 597.274409 
L 170.325834 597.205038 
L 170.464132 597.089419 
L 170.558853 596.927552 
L 170.694953 596.811934 
L 171.054339 596.465077 
L 171.174239 596.343677 
L 171.21317 596.29743 
L 171.86036 596.17603 
L 171.962121 596.008382 
L 172.107681 595.892763 
L 172.22108 595.730897 
L 172.356634 595.603716 
L 172.912784 594.95047 
L 173.53632 594.823289 
L 173.77305 594.64408 
L 173.837407 594.609394 
L 173.992027 594.493775 
L 174.064645 594.343471 
L 174.211126 594.227852 
L 174.321781 594.118014 
L 174.452673 593.996614 
L 174.579142 593.904119 
L 175.367369 593.7885 
L 175.473352 593.557262 
L 175.647141 593.435862 
L 175.726738 593.331806 
L 175.854221 593.216187 
L 175.978688 593.048539 
L 176.141184 592.719025 
L 176.780683 592.580283 
L 176.854826 592.429978 
L 177.195653 592.308579 
L 177.521343 592.083122 
L 177.622601 591.979065 
L 177.773776 591.846103 
L 177.861823 591.753608 
L 178.427674 591.609084 
L 178.531369 591.435656 
L 178.711793 591.256447 
L 178.786584 591.227542 
L 178.895721 591.111923 
L 179.101769 590.880685 
L 179.322299 590.649448 
L 179.427119 590.423991 
L 179.609028 590.400867 
L 180.068216 590.279467 
L 180.167382 590.088696 
L 180.283449 589.973077 
L 180.405378 589.678249 
L 180.523021 589.556849 
L 180.62736 589.250459 
L 180.761477 589.105936 
L 181.062917 588.57987 
L 181.691636 588.45847 
L 181.765811 588.157861 
L 181.935933 588.036461 
L 182.012186 587.863033 
L 182.185399 587.747414 
L 182.687215 587.11151 
L 182.748839 587.019015 
L 183.366889 586.886053 
L 183.448935 586.718406 
L 183.563505 586.602787 
L 183.688048 586.331083 
L 183.819597 586.174997 
L 183.968689 585.914855 
L 184.051753 585.781893 
L 184.206574 585.435037 
L 184.304205 585.313637 
L 184.358657 585.169113 
L 184.489176 585.134428 
L 184.978916 585.013028 
L 185.375583 584.359781 
L 185.493354 584.221039 
L 185.783158 583.660287 
L 185.963658 583.533106 
L 185.999972 583.440611 
L 186.657606 583.307649 
L 186.933169 582.850955 
L 187.128587 582.729555 
L 187.69804 582.02428 
L 188.272268 581.885537 
L 188.345103 581.712109 
L 188.521408 581.584928 
L 188.646109 581.4115 
L 188.780533 581.261195 
L 189.184144 580.833406 
L 189.266942 580.590606 
L 189.295769 580.544358 
L 189.92394 580.411397 
L 190.066435 580.052978 
L 190.17756 579.920017 
L 190.238947 579.792836 
L 190.380766 579.677217 
L 190.540276 579.434417 
L 190.647055 579.295675 
L 190.752151 579.104903 
L 190.859696 578.971942 
L 190.96958 578.850542 
L 191.551444 578.734923 
L 191.80971 578.243543 
L 191.854356 578.110581 
L 192.161586 577.79841 
L 192.267082 577.67701 
L 192.75056 577.191411 
L 193.159612 577.06423 
L 193.265943 576.740498 
L 193.459852 576.526603 
L 193.586544 576.312708 
L 193.703945 576.191308 
L 193.820158 576.058346 
L 194.038871 575.746175 
L 194.170378 575.624775 
L 194.231759 575.549623 
L 194.813278 575.410881 
L 195.131655 574.815443 
L 196.105521 573.803778 
L 196.469362 573.688159 
L 196.581503 573.248808 
L 196.783748 573.006008 
L 196.785535 573.000227 
L 197.179502 572.873046 
L 197.291116 572.549314 
L 197.453558 572.375885 
L 197.538385 572.225581 
L 198.34602 572.092619 
L 198.437275 571.924972 
L 198.539185 571.838257 
L 198.636656 571.682172 
L 198.750495 571.526087 
L 198.870637 571.381563 
L 198.884245 571.208135 
L 198.999924 571.017363 
L 199.112845 570.832373 
L 199.198082 570.745659 
L 199.773689 570.601136 
L 199.875515 570.375679 
L 200.021686 570.248498 
L 200.09077 570.098193 
L 200.191474 569.971013 
L 200.260253 569.83227 
L 200.359034 569.601032 
L 200.493373 569.468071 
L 200.6038 569.271519 
L 200.72796 569.09809 
L 200.852457 568.970909 
L 201.433789 568.751234 
L 201.680946 568.410158 
L 201.84564 568.265634 
L 201.916829 568.126892 
L 202.026856 567.988149 
L 202.126414 567.866749 
L 202.231073 567.652854 
L 202.388654 567.508331 
L 202.466013 567.25975 
L 203.05781 567.132569 
L 203.192443 566.918675 
L 203.328187 566.797275 
L 203.477903 566.571818 
L 203.559158 566.433075 
L 203.803835 566.039971 
L 203.925457 565.814514 
L 204.011024 565.658429 
L 204.113067 565.444534 
L 204.957231 565.109239 
L 205.122188 564.947373 
L 205.199004 564.825973 
L 205.348598 564.640983 
L 205.412468 564.513802 
L 205.538495 564.392402 
L 205.696519 564.201631 
L 205.916577 564.109136 
L 206.351555 563.987736 
L 206.467019 563.76806 
L 206.694757 563.450108 
L 206.877384 563.114814 
L 208.000769 562.762176 
L 208.069486 562.490472 
L 208.251599 562.363291 
L 208.350572 562.160958 
L 208.472763 562.016434 
L 208.514875 561.825663 
L 208.615116 561.513492 
L 208.730632 561.37475 
L 208.83527 561.183979 
L 208.946642 561.06836 
L 209.033303 560.813998 
L 209.628674 560.634789 
L 209.780608 560.305275 
L 209.888723 560.126066 
L 209.99777 559.871704 
L 210.139249 559.7214 
L 211.166024 558.640363 
L 211.304536 558.507402 
L 211.412241 558.247259 
L 211.799212 558.108517 
L 211.91087 557.958212 
L 212.044707 557.634479 
L 212.14584 557.449489 
L 212.208591 557.310746 
L 212.296301 556.992794 
L 212.956795 556.744214 
L 213.034694 556.628595 
L 213.380673 556.495633 
L 213.506126 556.189243 
L 213.970565 555.564901 
L 214.564613 555.449283 
L 214.668985 555.218045 
L 214.858922 555.079302 
L 214.962343 554.911655 
L 215.077258 554.790255 
L 215.192724 554.63417 
L 215.313336 554.478084 
L 215.470439 554.310437 
L 215.619775 554.142789 
L 215.623109 554.137008 
L 216.16003 554.004047 
L 216.28068 553.651409 
L 216.436563 553.506886 
L 216.558716 553.339238 
L 216.664592 553.183153 
L 216.766833 553.009724 
L 216.898331 552.876763 
L 217.014874 552.703334 
L 217.201989 552.512563 
L 217.258469 552.460535 
L 217.762993 552.344916 
L 217.863108 552.211954 
L 217.97413 552.055869 
L 218.095633 551.870878 
L 218.202406 551.784164 
L 218.360902 551.495117 
L 218.470316 551.275441 
L 218.602613 551.125137 
L 218.755937 550.876556 
L 219.168073 550.65688 
L 219.492502 550.535481 
L 219.598243 550.356271 
L 219.761366 550.194405 
L 219.878213 549.581625 
L 220.046167 549.176959 
L 220.472718 548.56996 
L 221.364621 548.090141 
L 221.476216 547.887808 
L 221.688088 547.604542 
L 221.896652 547.402209 
L 222.039296 547.223 
L 222.09381 547.090038 
L 222.17224 546.985981 
L 222.934563 546.835677 
L 223.194355 546.558191 
L 223.303956 546.373201 
L 224.142894 545.777764 
L 224.44413 545.650583 
L 224.724396 545.303727 
L 224.844693 545.095613 
L 224.95596 544.927965 
L 225.360196 544.286281 
L 225.710132 544.043481 
L 226.307558 543.581005 
L 227.031015 542.621369 
L 227.141931 542.476845 
L 227.748922 542.343884 
L 227.932019 542.164674 
L 228.047355 541.910313 
L 228.199764 541.644389 
L 228.300353 541.488304 
L 228.476938 541.285971 
L 228.904552 540.696315 
L 229.351913 540.563353 
L 229.531698 540.019944 
L 229.649275 539.881202 
L 229.853794 539.638402 
L 229.961058 539.476536 
L 230.075226 539.268422 
L 230.186205 539.008279 
L 230.579044 538.482213 
L 231.005036 538.366594 
L 231.120581 538.089109 
L 231.276969 537.875214 
L 231.480771 537.5457 
L 231.713225 537.17572 
L 231.829496 536.944482 
L 231.965821 536.701683 
L 232.23509 536.487788 
L 232.60137 536.337483 
L 233.846481 534.608981 
L 234.269351 534.35462 
L 234.369174 534.077134 
L 234.495 533.938392 
L 234.562407 533.764963 
L 234.69979 533.481697 
L 234.805036 533.325612 
L 234.922149 533.082812 
L 234.98669 532.944069 
L 235.084501 532.672365 
L 235.21035 532.527841 
L 235.341767 532.244575 
L 235.972336 532.08849 
L 236.085363 531.915061 
L 237.170013 530.874492 
L 237.591182 530.67794 
L 237.700856 530.550759 
L 237.889484 530.342645 
L 238.082682 530.209683 
L 238.508372 529.752989 
L 238.594952 529.591122 
L 239.211017 529.463941 
L 239.288946 529.348322 
L 239.380766 529.226923 
L 239.482483 529.093961 
L 239.729839 528.897409 
L 239.819328 528.776009 
L 239.911425 528.654609 
L 240.294452 528.244162 
L 240.745508 528.076515 
L 240.824239 527.903087 
L 241.253417 527.394364 
L 241.368 527.226716 
L 241.482356 527.145783 
L 241.769761 526.908764 
L 241.843499 526.839393 
L 242.443598 526.694869 
L 243.029789 525.862414 
L 243.274347 525.365252 
L 243.44405 525.232291 
L 243.540212 525.081986 
L 243.93552 524.879653 
L 244.045312 524.850748 
L 244.272436 524.654196 
L 244.443302 524.532797 
L 244.726377 524.105007 
L 244.845663 523.902674 
L 245.066349 523.682998 
L 245.823339 523.249427 
L 245.924632 523.064437 
L 245.977801 522.908351 
L 246.705573 522.018086 
L 246.761836 521.890905 
L 246.886846 521.792629 
L 247.796359 521.174068 
L 247.902619 521.081573 
L 248.402769 520.971735 
L 249.16692 520.850336 
L 249.482713 520.69425 
L 249.953446 520.567069 
L 250.685247 520.422546 
L 251.799429 519.636337 
L 252.262377 519.503376 
L 253.27625 518.537958 
L 253.557116 518.318282 
L 253.635576 518.289378 
L 254.030336 518.144854 
L 254.198105 518.115949 
L 254.539291 517.850026 
L 254.65125 517.740188 
L 254.711377 517.595664 
L 254.822964 517.214122 
L 254.950905 517.08116 
L 255.058537 516.930856 
L 255.590834 516.786332 
L 255.687281 516.624466 
L 255.788416 516.445257 
L 255.908029 516.277609 
L 256.006608 516.133086 
L 256.247807 515.942314 
L 256.426992 515.537648 
L 256.588678 515.370001 
L 256.704273 515.150325 
L 256.843505 514.976897 
L 256.91925 514.843935 
L 257.243506 514.682069 
L 257.327339 514.520202 
L 258.122583 513.265738 
L 258.230285 513.09809 
L 259.199563 511.866749 
L 259.329344 511.647073 
L 259.415964 511.479426 
L 259.733362 510.878208 
L 259.865833 510.733684 
L 259.995057 510.467761 
L 260.185693 510.334799 
L 260.443839 510.178714 
L 260.615509 509.987943 
L 262.541723 507.33449 
L 262.651131 507.132156 
L 262.727529 506.941385 
L 262.901899 506.623433 
L 263.114307 506.35751 
L 263.224671 505.883473 
L 263.466542 505.62333 
L 263.877746 505.380531 
L 263.993156 505.120388 
L 264.150449 504.721503 
L 264.260352 504.588541 
L 264.672512 503.78499 
L 264.778701 503.559533 
L 264.855101 503.334077 
L 265.05326 502.998782 
L 265.430309 502.750201 
L 266.463792 501.553546 
L 266.566419 501.345432 
L 267.212265 501.021699 
L 267.317799 500.929204 
L 267.413941 500.78468 
L 267.599263 500.541881 
L 267.89737 500.033158 
L 267.980893 499.900196 
L 268.154041 499.767234 
L 268.275685 499.68052 
L 268.827092 499.478187 
L 270.022454 498.541674 
L 270.629638 498.374027 
L 272.027404 497.541571 
L 272.318336 497.379705 
L 272.785043 496.963477 
L 273.030886 496.755363 
L 273.114303 496.605058 
L 273.753906 496.472097 
L 273.920422 496.408506 
L 274.479819 495.749479 
L 274.59209 495.656984 
L 275.460287 494.951708 
L 275.593496 494.830309 
L 276.455004 493.85911 
L 276.993289 493.691463 
L 277.107109 493.529596 
L 277.137811 493.361949 
L 277.238461 493.217425 
L 277.361811 493.067121 
L 277.475509 492.899474 
L 277.72309 492.679798 
L 277.828152 492.610426 
L 278.878217 492.153732 
L 279.066215 491.986084 
L 279.218335 491.812656 
L 279.328643 491.720161 
L 279.572728 491.425333 
L 279.616749 491.240343 
L 279.698988 490.939734 
L 280.16598 490.777867 
L 280.417166 490.436792 
L 280.553419 490.338516 
L 280.613298 490.205554 
L 280.738814 490.11884 
L 281.483345 489.286384 
L 281.649432 489.164984 
L 281.732518 489.130298 
L 281.855817 488.997337 
L 281.969093 488.852813 
L 282.145192 488.523299 
L 282.659165 487.650377 
L 282.810248 487.448044 
L 282.92093 487.309301 
L 284.303556 485.621266 
L 285.208366 484.36102 
L 285.604664 484.025725 
L 285.714949 483.817611 
L 286.028378 483.274203 
L 286.173387 483.060308 
L 286.366997 482.805946 
L 286.864558 482.499556 
L 286.980951 482.256756 
L 287.123389 482.123795 
L 287.238674 481.915681 
L 287.48538 481.522577 
L 287.595669 481.314463 
L 288.077581 480.719025 
L 288.533721 480.337483 
L 288.636725 480.19296 
L 288.772399 480.019531 
L 288.951768 479.822979 
L 289.020499 479.666894 
L 289.12045 479.52237 
L 289.230309 479.360504 
L 289.328174 479.21598 
L 289.441375 479.059895 
L 290.378223 477.903706 
L 290.498713 477.649344 
L 290.995212 476.787984 
L 291.115962 476.64346 
L 291.226889 476.360194 
L 292.085482 475.469929 
L 292.212682 475.2965 
L 292.305616 475.140415 
L 292.408442 474.955425 
L 292.526296 474.834025 
L 292.701441 474.55654 
L 292.787945 474.406235 
L 292.879738 474.296397 
L 293.550083 474.134531 
L 294.027296 473.712522 
L 294.135139 473.539094 
L 294.603359 473.02459 
L 295.072876 472.862723 
L 295.17246 472.695076 
L 295.347309 472.533209 
L 295.488079 472.342438 
L 295.582499 472.174791 
L 295.708444 472.041829 
L 296.042156 471.498421 
L 296.13932 471.405925 
L 296.609315 471.267183 
L 296.818047 470.897202 
L 296.937585 470.654403 
L 297.073851 470.191927 
L 297.198519 469.949128 
L 297.306789 469.78148 
L 297.825476 469.081986 
L 298.172796 469.012615 
L 298.370813 468.891215 
L 299.631702 467.804398 
L 300.081949 467.630969 
L 300.188472 467.463322 
L 300.489133 467.012408 
L 300.601271 466.763828 
L 301.068179 465.925591 
L 301.850103 465.497801 
L 301.945279 465.376401 
L 302.0582 465.226097 
L 302.726504 464.127718 
L 303.535438 463.613214 
L 303.64558 463.46869 
L 303.783389 463.1623 
L 304.010016 462.636234 
L 304.215289 462.324063 
L 304.479874 461.75175 
L 304.930203 461.196779 
L 305.041453 460.890389 
L 305.217709 460.572437 
L 305.332602 460.399009 
L 305.572606 460.057933 
L 305.679643 459.826696 
L 305.785815 459.601239 
L 305.890252 459.410468 
L 306.717676 458.734097 
L 306.848858 458.410364 
L 307.257243 457.878518 
L 307.632434 457.173242 
L 307.932437 457.051843 
L 308.184664 456.930443 
L 308.306211 456.780138 
L 308.39517 456.624053 
L 308.468826 456.502653 
L 309.11994 455.294436 
L 309.229554 455.086322 
L 309.337753 454.964922 
L 309.759031 454.415732 
L 309.869575 454.178714 
L 310.004784 453.941695 
L 310.107857 453.826076 
L 310.161458 453.675772 
L 310.305418 453.485001 
L 310.659707 452.860659 
L 310.791128 452.617859 
L 310.890289 452.461774 
L 311.125449 452.247879 
L 311.240639 452.138041 
L 311.52138 451.993517 
L 311.715091 451.611975 
L 311.866264 451.363394 
L 312.060776 451.085909 
L 312.173958 450.900919 
L 312.608366 450.160958 
L 313.093976 450.027996 
L 313.20048 449.80832 
L 313.309386 449.588645 
L 313.536806 449.224445 
L 313.740368 448.842903 
L 313.898471 448.669475 
L 314.407032 448.178094 
L 314.840353 448.045133 
L 315.033078 447.779209 
L 315.080004 447.530629 
L 315.181252 447.322515 
L 315.285001 447.166429 
L 315.391508 446.975658 
L 315.524777 446.825354 
L 315.658117 446.599897 
L 315.866889 446.25304 
L 315.937929 446.195231 
L 316.253086 446.050707 
L 316.563712 445.726974 
L 316.67043 445.594013 
L 316.80298 445.437927 
L 316.899853 445.206689 
L 316.951128 444.940766 
L 317.057537 444.553443 
L 317.264783 444.212367 
L 317.36458 444.010034 
L 317.399337 443.888634 
L 317.510137 443.668958 
L 317.638961 443.460844 
L 318.066719 443.258511 
L 318.257843 442.975245 
L 318.428913 442.663074 
L 318.752177 442.177475 
L 318.859341 442.050294 
L 320.006443 440.998162 
L 320.121276 440.790049 
L 320.272903 440.535687 
L 320.426238 440.333354 
L 320.54911 440.12524 
L 321.806253 438.65688 
L 321.904533 438.477671 
L 322.040633 438.304243 
L 322.316748 437.824424 
L 322.45719 437.697244 
L 322.692062 437.535377 
L 323.19689 436.656674 
L 323.276075 436.51215 
L 323.383266 436.356065 
L 323.635656 435.968742 
L 323.746411 435.737504 
L 323.911779 435.512047 
L 324.01364 435.373304 
L 324.197997 435.303933 
L 324.646717 435.124724 
L 324.829817 434.887705 
L 324.866816 434.760524 
L 324.987507 434.471477 
L 325.160636 434.217116 
L 325.660927 432.731413 
L 326.195927 432.534861 
L 326.325722 432.309404 
L 326.455498 432.141757 
L 326.562341 431.575225 
L 326.800172 431.355549 
L 326.931458 431.257273 
L 327.956187 430.950883 
L 328.048445 430.817921 
L 328.149939 430.696521 
L 328.246565 430.482626 
L 328.358464 430.326541 
L 328.52581 430.025932 
L 328.636897 429.748446 
L 328.68548 429.580799 
L 328.802666 428.806153 
L 328.865814 428.655848 
L 328.975964 428.343677 
L 329.474902 427.950573 
L 329.569885 427.806049 
L 329.682765 427.50544 
L 330.080812 426.574708 
L 330.188506 426.27988 
L 330.366071 425.817405 
L 330.476621 425.661319 
L 330.732194 425.164158 
L 331.139843 424.973387 
L 331.357591 424.522473 
L 331.501624 424.297017 
L 331.604784 424.13515 
L 331.734027 423.95016 
L 331.835117 423.834541 
L 331.98414 423.632208 
L 332.642583 423.198637 
L 332.859886 423.054114 
L 332.970083 422.880685 
L 333.282319 422.574295 
L 333.748021 421.944173 
L 334.8163 421.568411 
L 335.070072 421.400764 
L 335.295047 421.250459 
L 335.386283 421.215774 
L 336.122876 421.077031 
L 336.520978 420.649241 
L 336.624656 420.51628 
L 336.706313 420.354413 
L 337.055462 420.076928 
L 337.162398 419.932404 
L 337.249874 419.886157 
L 337.811351 419.735852 
L 338.067083 419.371653 
L 338.175331 418.995891 
L 338.949414 417.984226 
L 339.446818 417.781893 
L 339.545772 417.648932 
L 339.650809 417.510189 
L 339.735753 417.359884 
L 339.879232 417.186456 
L 339.941823 417.047713 
L 340.311722 416.625705 
L 340.395794 416.510086 
L 340.460368 416.330876 
L 341.052971 416.157448 
L 341.381416 415.67763 
L 341.486238 415.533106 
L 341.579376 415.400145 
L 341.675442 414.995478 
L 341.807307 414.874079 
L 341.887844 414.706431 
L 342.030206 414.567689 
L 342.153429 414.423165 
L 342.290692 414.382698 
L 342.629346 414.105213 
L 342.740675 413.989594 
L 342.817254 413.850852 
L 342.922432 413.660081 
L 343.101193 413.388376 
L 343.208216 413.266976 
L 343.316804 413.064643 
L 343.504228 412.764034 
L 343.642497 412.590606 
L 343.746102 412.49233 
L 344.228365 412.313121 
L 344.361004 412.232187 
L 344.432785 412.093445 
L 344.871605 411.498008 
L 345.14935 411.197399 
L 345.258422 410.995066 
L 345.367441 410.77539 
L 345.467895 410.665552 
L 345.982227 410.503685 
L 346.108226 410.318695 
L 346.245081 410.099019 
L 346.313236 409.966058 
L 346.662969 409.330154 
L 346.774099 409.191411 
L 346.885091 409.00064 
L 347.027731 408.856116 
L 347.48212 408.613317 
L 347.584546 408.567069 
L 347.816577 408.335832 
L 347.921266 408.156622 
L 348.187609 407.925385 
L 349.408345 406.156416 
L 349.512942 405.982988 
L 349.640161 405.757531 
L 349.849371 405.167874 
L 349.954533 404.994446 
L 350.059624 404.780551 
L 350.276838 404.491504 
L 350.377876 404.075276 
L 350.877067 403.820915 
L 350.922811 403.497182 
L 351.019548 403.17923 
L 351.144969 403.028925 
L 351.254016 402.763002 
L 351.509128 402.468174 
L 351.632185 402.196469 
L 351.69643 402.057727 
L 351.802399 401.838051 
L 351.896368 401.693527 
L 352.021628 401.225271 
L 352.192418 401.173242 
L 352.552624 401.051843 
L 352.609792 400.872633 
L 352.717046 400.23673 
L 352.796964 400.109549 
L 352.939954 399.68754 
L 353.163538 399.340683 
L 353.274316 399.253969 
L 353.553995 398.95336 
L 353.701609 398.756808 
L 354.220404 398.560256 
L 355.24626 397.311572 
L 355.334168 397.271106 
L 355.463544 397.149706 
L 355.765974 396.86644 
L 355.889294 396.727697 
L 355.95063 396.606297 
L 356.105331 396.479116 
L 356.467626 396.097574 
L 356.698951 395.872117 
L 356.809829 395.744937 
L 357.006414 395.629318 
L 357.514122 395.455889 
L 357.77254 395.178404 
L 357.915275 394.929823 
L 358.279479 394.432662 
L 358.460061 394.265015 
L 358.88577 394.056901 
L 359.191407 393.802539 
L 359.291138 393.640673 
L 359.405132 393.513492 
L 359.982112 392.831341 
L 360.092533 392.709941 
L 360.58637 392.559637 
L 360.846206 392.438237 
L 360.942025 392.305275 
L 361.100968 392.131847 
L 361.204097 392.010447 
L 361.477841 391.796552 
L 361.612955 391.628905 
L 361.748104 391.472819 
L 361.82602 391.218458 
L 362.305362 391.085496 
L 362.523842 390.784887 
L 362.89329 390.00446 
L 363.006833 389.831031 
L 363.109123 389.721193 
L 363.171923 389.582451 
L 363.277295 389.403241 
L 363.373499 389.241375 
L 363.473171 389.015918 
L 364.352865 388.466729 
L 364.721196 388.027377 
L 364.82237 387.871291 
L 364.942026 387.645835 
L 365.056435 387.466625 
L 365.165317 387.166016 
L 365.742032 387.00415 
L 365.847406 386.772912 
L 366.056537 386.587922 
L 366.164669 386.466522 
L 366.302853 386.275751 
L 366.408775 386.02717 
L 366.570926 385.859523 
L 366.974116 385.402829 
L 367.342027 385.281429 
L 367.452587 384.969258 
L 367.728031 384.420068 
L 367.871512 384.258202 
L 368.133038 383.969155 
L 368.459932 382.882337 
L 368.706722 382.743595 
L 368.771611 382.59329 
L 368.997994 382.47189 
L 369.17833 382.032538 
L 369.281303 381.899577 
L 369.721812 381.153835 
L 369.970855 380.760731 
L 370.119555 380.408093 
L 370.592606 380.240446 
L 370.777626 380.003427 
L 370.90355 379.460019 
L 371.014536 379.263467 
L 371.122969 379.130505 
L 371.176739 378.881924 
L 371.361167 378.124621 
L 371.487174 376.991556 
L 371.60577 376.864375 
L 371.702844 376.569547 
L 371.804888 376.419242 
L 372.303712 375.904738 
L 372.544045 375.320863 
L 372.740467 375.158997 
L 373.617819 373.904532 
L 373.762379 373.783132 
L 373.867014 373.609704 
L 373.971608 373.430494 
L 374.082568 372.996924 
L 374.236093 372.783029 
L 374.337997 372.60382 
L 374.433102 372.48242 
L 374.536392 372.222277 
L 374.682585 372.014163 
L 374.788583 371.511221 
L 374.90035 371.360917 
L 375.095952 371.060308 
L 375.571994 370.938908 
L 375.684779 370.574708 
L 375.881902 370.33769 
L 376.030923 370.118014 
L 376.090243 369.996614 
L 376.207959 369.759595 
L 376.308812 369.632415 
L 376.92344 368.401074 
L 377.231816 368.233426 
L 377.345761 367.834541 
L 377.4874 367.649551 
L 377.605632 367.429875 
L 377.716141 367.204418 
L 378.011129 366.747724 
L 378.205359 366.493362 
L 378.279018 366.273686 
L 379.044299 366.059791 
L 379.139447 365.99042 
L 379.347983 365.811211 
L 379.603973 365.539507 
L 379.692826 365.493259 
L 379.939571 365.325612 
L 380.04712 365.117498 
L 380.546382 364.932507 
L 380.592656 364.880479 
L 380.840455 364.753298 
L 380.943677 364.464251 
L 380.986672 364.325508 
L 381.0763 364.123175 
L 381.187925 363.995995 
L 381.369133 363.741633 
L 381.479264 363.545081 
L 381.668069 363.452586 
L 382.070582 363.267596 
L 382.279502 362.868711 
L 382.399837 362.67794 
L 382.541742 362.307959 
L 382.652476 362.053598 
L 383.034552 361.406132 
L 383.220844 361.198018 
L 383.291106 361.15177 
L 383.831937 360.96678 
L 383.930171 360.7182 
L 384.050715 360.562114 
L 384.155999 360.388686 
L 384.283659 360.215258 
L 384.391662 360.082296 
L 384.707287 359.67763 
L 384.816532 359.486859 
L 385.471462 359.215154 
L 386.005629 358.342232 
L 386.108922 358.157242 
L 386.281616 357.908661 
L 386.391945 357.793042 
L 386.527279 357.602271 
L 386.974358 357.330567 
L 387.117989 357.064643 
L 387.227823 356.914339 
L 387.740992 356.12813 
L 387.851642 355.925797 
L 388.212133 355.341922 
L 388.709689 355.168494 
L 388.81929 354.977723 
L 389.344697 354.151048 
L 389.450025 354.023867 
L 389.548797 353.862001 
L 389.6466 353.682791 
L 390.607776 353.179849 
L 390.738679 352.913926 
L 390.82339 352.740498 
L 390.932711 352.613317 
L 391.018035 352.457231 
L 391.123993 352.260679 
L 391.197589 352.127718 
L 391.306911 351.827108 
L 391.399885 351.601652 
L 391.507957 351.410881 
L 392.205035 350.769196 
L 392.530138 350.173759 
L 392.629587 350.104387 
L 392.811143 349.954083 
L 393.080719 349.352865 
L 393.234915 349.208341 
L 393.300097 349.023351 
L 393.405797 348.780551 
L 393.507764 348.595561 
L 393.60479 348.456818 
L 393.754547 348.312295 
L 393.887403 348.144647 
L 393.991283 347.901848 
L 394.33045 347.42203 
L 394.43129 347.260163 
L 394.542173 347.028925 
L 394.633735 346.890183 
L 394.739177 346.791907 
L 394.97293 346.763002 
L 395.343476 346.641602 
L 395.714962 346.086632 
L 395.828499 345.936327 
L 396.053059 345.791803 
L 396.156262 345.560566 
L 397.188492 344.947786 
L 397.296648 344.704986 
L 397.452425 344.48531 
L 397.565865 344.335006 
L 397.71149 344.207825 
L 398.054072 343.889873 
L 398.165597 343.44474 
L 398.208445 343.282874 
L 398.311138 342.95336 
L 398.585742 342.785713 
L 398.669784 342.58338 
L 398.85939 342.444637 
L 399.777249 341.201734 
L 400.219627 341.034087 
L 400.398766 340.86644 
L 400.505387 340.68723 
L 400.69962 340.450212 
L 400.791266 340.31725 
L 400.895458 340.184288 
L 401.002568 340.005079 
L 401.077174 339.877898 
L 401.212639 339.744937 
L 401.297162 339.64666 
L 401.823613 339.455889 
L 401.933757 339.241994 
L 402.362835 338.640776 
L 402.46794 338.47891 
L 402.628379 338.305482 
L 402.726793 338.11471 
L 402.833671 337.975968 
L 402.943221 337.825663 
L 403.663606 337.345845 
L 403.764176 337.183979 
L 403.892238 337.004769 
L 404.180798 336.51917 
L 404.750586 335.738743 
L 405.060839 335.582657 
L 405.168794 335.461257 
L 405.384269 335.10862 
L 405.795807 334.380221 
L 405.891591 334.247259 
L 405.997498 334.010241 
L 406.148762 333.784784 
L 406.246554 333.64026 
L 406.779889 333.356994 
L 406.89068 332.715309 
L 406.926285 332.547662 
L 407.024183 332.432043 
L 407.131333 332.275957 
L 407.241671 332.096748 
L 407.463511 331.692082 
L 407.580463 331.472406 
L 407.702363 331.258511 
L 408.508607 330.478084 
L 408.900729 329.836399 
L 409.002751 329.697657 
L 409.110901 329.368143 
L 409.359661 328.934572 
L 409.464728 328.818953 
L 410.003429 328.402725 
L 410.114356 328.235078 
L 410.771008 326.951708 
L 410.874304 326.853432 
L 410.99378 326.726252 
L 411.152351 326.5297 
L 411.282409 326.333148 
L 411.391056 326.130814 
L 412.136557 324.893693 
L 412.246867 324.587303 
L 412.684799 324.061237 
L 412.944966 323.986084 
L 413.338281 323.853123 
L 414.692471 322.668029 
L 415.025406 322.529287 
L 415.679954 322.026345 
L 416.5233 321.818231 
L 416.695074 321.685269 
L 416.762927 321.563869 
L 417.013496 321.425126 
L 417.126219 321.170765 
L 417.326086 320.841251 
L 417.430645 320.638918 
L 417.561847 320.442366 
L 417.715081 320.205347 
L 417.825598 319.962548 
L 417.91493 319.73131 
L 418.018282 319.563663 
L 418.235284 319.338206 
L 418.365122 319.008692 
L 418.500103 318.731207 
L 418.810288 318.343884 
L 418.919177 318.106865 
L 419.488332 317.546113 
L 420.09259 317.361123 
L 420.204498 317.2166 
L 420.42229 317.054733 
L 420.5398 316.829276 
L 420.89737 316.540229 
L 421.727245 316.36102 
L 421.844613 316.129782 
L 421.957664 315.69043 
L 422.167545 315.32045 
L 422.322815 315.118117 
L 422.43704 314.938908 
L 422.839863 314.40128 
L 422.951757 314.372375 
L 423.170117 314.175823 
L 423.280337 313.898338 
L 424.126382 312.713245 
L 424.312 312.487788 
L 424.420416 312.337483 
L 424.857541 312.002189 
L 425.446536 311.065676 
L 425.581042 310.90959 
L 425.691819 310.637886 
L 425.917585 310.244782 
L 426.011606 310.204315 
L 426.522979 309.932611 
L 426.661852 309.308269 
L 426.814171 309.030784 
L 426.892359 308.955631 
L 427.011091 308.828451 
L 427.139321 308.660803 
L 427.246645 308.52206 
L 427.818221 307.701167 
L 427.915118 307.521957 
L 428.170494 307.360091 
L 428.915324 306.325302 
L 429.072378 306.151874 
L 429.179181 305.914855 
L 429.911573 305.325199 
L 430.051072 305.099742 
L 430.171355 304.833819 
L 430.332873 304.53899 
L 430.442958 304.388686 
L 431.235496 303.579354 
L 431.338854 303.43483 
L 431.449134 302.983917 
L 431.497946 302.816269 
L 431.607327 302.376918 
L 431.647094 302.226613 
L 431.75409 301.746795 
L 431.827121 301.573366 
L 431.935473 301.128234 
L 432.114258 300.61373 
L 432.223625 300.226407 
L 432.402601 299.550036 
L 432.511977 299.122246 
L 432.651179 298.914132 
L 432.733309 298.862104 
L 432.939528 298.729142 
L 433.048903 298.613523 
L 433.09709 298.457438 
L 433.356937 297.890905 
L 433.421315 297.705915 
L 433.526211 297.503582 
L 433.595719 297.335935 
L 433.735003 296.93705 
L 433.815787 296.717374 
L 433.925206 296.254898 
L 433.96658 296.046784 
L 434.077849 295.578528 
L 434.214503 294.896377 
L 434.460815 293.907835 
L 434.524069 293.722845 
L 434.580161 293.526293 
L 434.691517 292.884608 
L 434.719342 292.728523 
L 434.828723 292.185114 
L 434.873077 291.936533 
L 435.484969 289.323547 
L 435.574363 289.1559 
L 435.683741 289.051843 
L 435.76953 288.9131 
L 436.024039 288.814824 
L 436.361755 288.681862 
L 436.892632 288.271415 
L 436.934782 288.23673 
L 437.184933 288.11533 
L 437.393866 287.733788 
L 437.503244 287.508331 
L 437.662328 287.288655 
L 437.771704 287.132569 
L 437.891022 286.936017 
L 438.000403 286.687437 
L 438.278719 285.571715 
L 438.38829 285.317353 
L 438.846141 284.906906 
L 439.129816 284.617859 
L 439.671543 284.375059 
L 439.792729 284.172726 
L 439.899855 283.935708 
L 439.97729 283.664003 
L 440.075671 283.450108 
L 440.169773 283.311366 
L 440.280474 283.057004 
L 441.073624 282.380634 
L 441.29714 282.189863 
L 441.416828 281.900816 
L 441.534417 281.715825 
L 441.638886 281.553959 
L 441.77877 281.351626 
L 442.324434 280.524951 
L 442.87436 280.21278 
L 442.999498 279.987323 
L 443.106233 279.877485 
L 443.257177 279.657809 
L 443.365928 279.576876 
L 443.724368 279.212677 
L 443.828517 279.062372 
L 443.961607 278.888944 
L 444.065665 278.80223 
L 444.274468 278.675049 
L 444.55797 278.386002 
L 444.646687 278.229916 
L 444.870353 278.073831 
L 445.091079 277.796346 
L 445.31581 277.472613 
L 445.650071 276.882957 
L 445.83037 276.749995 
L 445.929775 276.634376 
L 446.218126 276.374234 
L 446.481358 275.992691 
L 446.55913 275.86551 
L 446.868517 275.316321 
L 446.992951 275.079302 
L 447.103077 274.836503 
L 447.621231 274.460741 
L 447.828895 274.258408 
L 447.93965 274.079199 
L 448.150439 273.807495 
L 448.351132 273.356581 
L 448.513239 273.148467 
L 448.696013 272.882544 
L 448.787482 272.755363 
L 448.902234 272.570373 
L 449.151253 272.472097 
L 449.320285 272.344916 
L 449.550476 272.18883 
L 450.613468 271.177165 
L 451.092764 270.980613 
L 451.334016 270.581728 
L 451.458097 270.431424 
L 451.970442 269.633653 
L 452.094415 269.466006 
L 452.33305 269.211644 
L 452.608787 269.078683 
L 453.016229 268.442779 
L 453.104851 268.280913 
L 453.358714 267.928275 
L 453.479038 267.766409 
L 453.593331 267.604542 
L 453.716279 267.460019 
L 453.957264 267.16519 
L 454.316573 267.043791 
L 454.515799 266.847239 
L 454.611426 266.73162 
L 454.755535 266.598658 
L 454.865877 266.448353 
L 454.973088 266.274925 
L 455.246157 265.893383 
L 455.355834 265.708393 
L 456.568618 264.719851 
L 456.776861 264.40768 
L 456.882901 264.2805 
L 457.061765 264.031919 
L 457.175153 263.864272 
L 457.383955 263.713967 
L 457.704122 263.569444 
L 457.835134 263.211025 
L 458.011512 262.835264 
L 458.117989 262.604026 
L 458.299268 262.367007 
L 458.488896 262.216703 
L 459.19348 261.869846 
L 459.384295 261.748446 
L 459.497588 261.598142 
L 459.67116 261.453618 
L 459.785673 261.355342 
L 460.083837 261.170352 
L 460.44626 260.881305 
L 461.064428 260.707877 
L 461.343325 260.459296 
L 461.485931 260.158687 
L 462.094704 258.881098 
L 462.781809 258.412842 
L 462.905293 258.314566 
L 463.051029 258.106452 
L 463.159905 257.961928 
L 463.363393 257.800062 
L 463.531021 257.557262 
L 464.997885 256.250769 
L 465.193152 256.025312 
L 465.82172 255.533932 
L 465.944489 255.372066 
L 466.076269 255.169733 
L 466.209783 255.019428 
L 466.431637 254.753505 
L 466.658899 254.499143 
L 466.923408 254.146506 
L 467.137604 253.915268 
L 468.27536 253.140621 
L 468.431775 253.019222 
L 468.718526 252.689708 
L 469.175915 252.550965 
L 469.888516 251.897719 
L 470.159263 251.672262 
L 470.299506 251.464148 
L 470.834037 251.192443 
L 471.040549 250.966987 
L 471.172256 250.787777 
L 471.283346 250.631692 
L 471.481923 250.440921 
L 471.602008 250.255931 
L 471.683925 250.117188 
L 471.792206 250.013131 
L 472.798698 249.20958 
L 472.864793 249.111304 
L 473.022711 248.984123 
L 473.137327 248.851161 
L 473.247521 248.66039 
L 473.918431 248.030267 
L 474.067579 247.816372 
L 474.16924 247.666068 
L 474.536197 247.336554 
L 474.644336 247.12844 
L 474.8332 246.891421 
L 474.937811 246.712212 
L 475.076736 246.51566 
L 475.192594 246.278641 
L 475.479557 246.151461 
L 475.832895 246.02428 
L 476.070527 245.683204 
L 476.173853 245.515557 
L 476.342236 245.336348 
L 476.44448 245.151357 
L 476.578021 245.001053 
L 478.179868 243.498008 
L 478.288097 243.347703 
L 478.480624 243.075999 
L 478.591673 242.914132 
L 478.911845 242.740704 
L 479.308355 242.497904 
L 479.416967 242.312914 
L 479.571003 242.127924 
L 479.677558 242.006524 
L 479.843996 241.792629 
L 479.953181 241.659668 
L 480.732046 241.202973 
L 481.754244 240.341612 
L 481.862818 240.330051 
L 483.186319 239.428223 
L 483.302001 239.306824 
L 483.48447 239.179643 
L 484.031546 238.988872 
L 484.302372 238.48593 
L 484.408775 238.24313 
L 484.548907 238.023454 
L 484.652498 237.850026 
L 484.702367 237.69394 
L 484.811742 237.474264 
L 484.917043 237.32396 
L 485.743826 236.757427 
L 485.855331 236.624466 
L 485.991714 236.497285 
L 486.156415 236.294952 
L 486.281928 236.023248 
L 487.214992 235.433591 
L 487.400091 235.294849 
L 487.775807 234.988459 
L 487.937882 234.826592 
L 488.886828 234.063508 
L 489.018089 233.901641 
L 489.271547 233.629937 
L 489.559227 233.288861 
L 489.693751 233.121214 
L 489.81595 232.936224 
L 490.058184 232.710767 
L 490.161092 232.658739 
L 490.668194 232.398596 
L 490.751415 232.213606 
L 490.883011 231.976587 
L 491.092458 231.75113 
L 491.447716 231.311779 
L 491.540612 231.190379 
L 491.63479 230.964922 
L 492.000587 230.808837 
L 492.29491 230.514008 
L 492.405062 230.363704 
L 493.254723 229.149706 
L 493.362729 229.057211 
L 493.835291 228.80863 
L 493.954134 228.612078 
L 494.128345 228.461774 
L 494.226166 228.357717 
L 494.387771 228.213193 
L 494.493473 228.062888 
L 495.013312 227.490575 
L 495.11404 227.39808 
L 495.497441 227.189966 
L 495.631699 227.080128 
L 495.815722 226.918262 
L 495.941779 226.72749 
L 496.075271 226.571405 
L 496.180308 226.444224 
L 496.394908 226.178301 
L 496.514667 225.964406 
L 496.633939 225.762073 
L 496.712295 225.715825 
L 497.111209 225.571302 
L 497.801569 225.212883 
L 498.155113 224.993207 
L 498.368279 224.866027 
L 498.463448 224.842903 
L 498.835258 224.715722 
L 499.20551 224.449799 
L 499.403638 224.311056 
L 499.513256 224.102942 
L 499.673491 223.773428 
L 499.781802 223.652028 
L 500.24595 223.443915 
L 500.389258 223.362981 
L 500.514934 223.195334 
L 500.730183 222.92363 
L 501.034902 222.74442 
L 501.143835 222.628801 
L 502.68834 221.420584 
L 502.798161 221.328089 
L 502.993423 221.200908 
L 503.587075 220.911861 
L 503.805346 220.773119 
L 503.915267 220.640157 
L 504.128609 220.47251 
L 504.237355 220.339548 
L 504.463569 220.090967 
L 504.569853 220.038939 
L 505.02496 219.778796 
L 505.583484 219.593806 
L 506.153577 219.298978 
L 506.601329 218.911655 
L 506.982861 218.732446 
L 507.796237 218.177475 
L 507.888345 218.004047 
L 507.984876 217.865304 
L 508.245508 217.547352 
L 508.616899 217.402829 
L 508.72384 217.142686 
L 509.184666 216.61662 
L 509.316395 216.501001 
L 509.598848 216.263983 
L 509.692102 216.107897 
L 510.25483 215.813069 
L 510.36392 215.703231 
L 510.629369 215.425746 
L 511.550602 214.489233 
L 512.069888 214.182843 
L 512.731657 213.593187 
L 512.809915 213.506473 
L 512.941935 213.379292 
L 513.116691 213.176959 
L 513.446122 212.974626 
L 513.545546 212.928378 
L 513.735302 212.726045 
L 513.901829 212.44856 
L 514.729674 211.494704 
L 515.084821 211.332838 
L 515.584879 210.725839 
L 515.698808 210.650686 
L 516.141361 210.274925 
L 516.651965 209.985878 
L 516.765369 209.858697 
L 516.95581 209.719955 
L 517.050333 209.615898 
L 517.178611 209.482936 
L 517.286129 209.338412 
L 517.492269 209.07827 
L 517.625003 208.951089 
L 517.787765 208.748756 
L 517.89833 208.52908 
L 518.661066 208.055043 
L 518.770379 207.945205 
L 519.058021 207.523196 
L 519.264409 207.309301 
L 519.364042 207.083844 
L 519.523433 206.916197 
L 519.634237 206.679178 
L 519.759696 206.604026 
L 520.230785 206.349664 
L 520.336241 206.101084 
L 520.455293 205.916094 
L 520.722677 205.494085 
L 520.835875 205.384247 
L 520.968022 205.199257 
L 521.514864 204.759905 
L 521.914892 204.517105 
L 522.02646 204.378363 
L 522.184463 204.066192 
L 522.587427 203.245298 
L 522.693111 202.996717 
L 522.816953 202.857975 
L 522.926665 202.748137 
L 525.47936 201.141034 
L 525.579461 200.956044 
L 525.684609 200.817302 
L 525.770164 200.707464 
L 525.863677 200.580283 
L 525.978926 200.389512 
L 526.17449 200.187179 
L 526.316836 200.152493 
L 527.221589 199.499246 
L 527.306878 199.366285 
L 527.507674 199.239104 
L 528.175759 198.736162 
L 528.385493 198.562734 
L 528.490688 198.377743 
L 528.603856 198.227439 
L 528.708776 198.11182 
L 528.912178 197.874801 
L 529.033613 197.678249 
L 529.381001 197.059688 
L 530.15051 196.441127 
L 530.769074 195.816785 
L 530.902286 195.666481 
L 531.011102 195.458367 
L 531.112032 195.2965 
L 531.372832 195.151977 
L 531.611494 195.019015 
L 531.719561 194.793558 
L 531.829485 194.631692 
L 531.932672 194.475606 
L 532.111294 194.261712 
L 532.459174 193.82236 
L 532.628111 193.596903 
L 532.737598 193.492846 
L 533.066945 193.336761 
L 533.877669 192.521648 
L 534.358099 191.868401 
L 535.002244 191.49264 
L 535.107188 191.348116 
L 535.233027 191.168907 
L 535.327887 191.012821 
L 535.471225 190.885641 
L 535.583268 190.660184 
L 535.701938 190.486755 
L 535.819665 190.295984 
L 536.670113 189.498214 
L 536.766443 189.249634 
L 536.892885 189.116672 
L 537.002804 188.943244 
L 537.119715 188.775596 
L 537.530357 188.099226 
L 537.609368 187.954702 
L 537.696434 187.833302 
L 538.075247 187.671436 
L 538.221271 187.521131 
L 538.325854 187.365046 
L 538.43436 187.220522 
L 538.861216 186.810075 
L 538.961442 186.648209 
L 539.051988 186.521028 
L 539.153034 186.364943 
L 539.259695 186.220419 
L 539.897491 185.73482 
L 540.008312 185.630763 
L 540.355673 185.30703 
L 540.651191 185.058449 
L 540.900019 184.896583 
L 541.574874 184.659564 
L 541.885114 184.370517 
L 541.996655 184.162403 
L 542.159575 183.879137 
L 542.267426 183.740394 
L 542.441313 183.526499 
L 542.544196 183.422442 
L 542.599397 183.289481 
L 542.701782 183.110271 
L 543.146674 182.884815 
L 543.348052 182.705605 
L 544.111377 182.156416 
L 545.27463 181.665036 
L 545.432347 181.601445 
L 545.6237 181.462703 
L 545.721337 181.266151 
L 545.821519 181.104284 
L 545.929979 180.948199 
L 546.503223 180.520409 
L 546.797684 180.329638 
L 547.13283 180.144647 
L 547.454535 179.797791 
L 547.758942 179.630143 
L 547.861958 179.583896 
L 548.115687 179.42203 
L 548.222633 179.329534 
L 548.383502 179.150325 
L 548.493331 179.028925 
L 548.833376 178.80925 
L 548.943983 178.549107 
L 549.041445 178.404583 
L 549.148628 178.103974 
L 549.43062 177.849613 
L 549.719568 177.699308 
L 549.795488 177.549004 
L 549.903956 177.46229 
L 550.025801 177.306204 
L 550.236331 177.051843 
L 550.465901 176.768576 
L 550.703919 176.624053 
L 551.210673 176.439063 
L 551.429397 176.288758 
L 551.686346 175.912997 
L 551.872931 175.728007 
L 552.293063 175.057417 
L 552.403916 174.918675 
L 552.569033 174.820398 
L 552.940837 174.664313 
L 553.079972 174.514008 
L 553.263677 174.282771 
L 553.42936 174.051533 
L 553.594339 173.924352 
L 553.74891 173.779829 
L 553.954925 173.594838 
L 554.030192 173.513905 
L 554.570528 173.323134 
L 554.743233 173.161268 
L 554.97985 172.982058 
L 555.390041 172.554269 
L 555.525649 172.276783 
L 555.634142 172.13226 
L 555.772546 171.935708 
L 556.231611 171.756498 
L 556.473644 171.525261 
L 556.582555 171.294023 
L 556.885938 170.900919 
L 556.993741 170.756395 
L 557.711618 169.98753 
L 558.01064 169.790978 
L 558.107731 169.62333 
L 558.266996 169.467245 
L 558.615221 168.958522 
L 558.726912 168.663694 
L 558.963392 168.386208 
L 559.067918 168.305275 
L 559.879903 167.738743 
L 559.983989 167.571095 
L 560.196421 167.351419 
L 560.301252 167.23002 
L 560.436184 167.068153 
L 560.546676 166.92363 
L 560.819819 166.605678 
L 561.249502 166.345535 
L 561.82204 165.594013 
L 561.990222 165.426365 
L 562.082422 165.241375 
L 562.194824 164.987014 
L 562.457467 164.802023 
L 562.861271 164.651719 
L 562.96073 164.449386 
L 563.076759 164.310643 
L 564.116683 162.76135 
L 564.754618 162.530113 
L 566.056415 161.553133 
L 566.454484 161.356581 
L 566.560048 161.160029 
L 566.6523 161.009724 
L 566.804858 160.529906 
L 567.278779 160.084773 
L 567.948743 159.813069 
L 568.056318 159.737917 
L 568.435832 159.414184 
L 568.55082 159.287003 
L 568.661467 159.130918 
L 568.907095 158.89968 
L 569.401203 158.720471 
L 569.516357 158.59329 
L 569.686476 158.431424 
L 569.755671 158.310024 
L 569.942232 158.188624 
L 570.049627 157.974729 
L 570.195926 157.812863 
L 570.301742 157.575844 
L 570.754083 157.257892 
L 570.797518 157.223206 
L 571.03335 157.096026 
L 571.156871 156.951502 
L 572.021835 156.269351 
L 572.107781 156.119046 
L 572.200941 155.991865 
L 572.310232 155.887808 
L 572.921782 155.350181 
L 573.017359 155.240343 
L 573.080602 155.113162 
L 573.187533 154.968638 
L 573.364085 154.777867 
L 573.695838 154.18243 
L 573.766006 154.055249 
L 573.877493 153.916507 
L 574.012126 153.847135 
L 574.288667 153.708393 
L 574.708467 153.338412 
L 574.820152 153.19967 
L 574.876527 152.974213 
L 574.982213 152.823908 
L 575.109451 152.673604 
L 575.234043 152.500175 
L 575.531267 152.22269 
L 575.638665 152.1591 
L 576.143779 151.7949 
L 576.249348 151.66772 
L 576.507723 151.494291 
L 577.354493 150.621369 
L 577.66486 150.494188 
L 577.945814 150.153112 
L 578.146129 149.985465 
L 578.984898 149.320657 
L 579.363154 149.124104 
L 579.971128 148.256963 
L 580.025352 148.100877 
L 580.134434 147.858078 
L 580.253753 147.701992 
L 580.363071 147.424507 
L 581.211829 146.620956 
L 581.317244 146.441747 
L 581.437313 146.285661 
L 581.540926 145.915681 
L 581.646688 145.759595 
L 581.797046 145.343367 
L 582.001779 145.065882 
L 582.106082 144.944482 
L 582.824951 144.678559 
L 583.62862 144.297017 
L 583.70339 144.19296 
L 584.178538 144.01375 
L 585.263383 142.9674 
L 585.761571 142.828657 
L 585.939841 142.684133 
L 586.047692 142.499143 
L 586.185917 142.360401 
L 586.644226 141.886363 
L 586.745775 141.701373 
L 586.870242 141.551068 
L 587.551916 141.059688 
L 587.971336 140.637679 
L 588.076424 140.527841 
L 588.256851 140.354413 
L 588.36793 140.175204 
L 588.549638 140.019118 
L 589.032124 139.753195 
L 589.302387 139.591329 
L 589.409057 139.412119 
L 589.801318 139.105729 
L 589.911142 139.024796 
L 590.394334 138.579663 
L 591.539778 137.851265 
L 591.728344 137.706741 
L 592.403375 137.377227 
L 593.004401 137.117085 
L 593.287924 136.978342 
L 593.377421 136.816476 
L 593.48214 136.643047 
L 593.818904 136.440714 
L 594.588825 135.544668 
L 594.703699 135.111097 
L 594.836561 134.949231 
L 594.93927 134.654403 
L 595.080488 134.509879 
L 595.176965 134.39426 
L 595.800091 134.093651 
L 595.905918 134.041623 
L 596.179976 133.665861 
L 596.330318 133.469309 
L 596.449645 133.284319 
L 596.579091 133.139796 
L 596.854717 132.931682 
L 596.96634 132.850748 
L 597.274566 132.717787 
L 597.378938 132.590606 
L 597.70187 132.359368 
L 597.804823 132.255311 
L 597.977423 132.081883 
L 598.069292 132.00095 
L 598.274986 131.833302 
L 598.386312 131.729245 
L 598.510049 131.630969 
L 599.470318 131.191618 
L 599.675073 130.948818 
L 599.773386 130.833199 
L 599.837147 130.706018 
L 599.942086 130.567276 
L 600.085169 130.405409 
L 600.187407 130.324476 
L 601.470283 129.526706 
L 601.579178 129.353278 
L 601.636949 129.174068 
L 601.745164 128.983297 
L 601.906313 128.832993 
L 602.126083 128.671126 
L 602.464123 128.428327 
L 602.697805 128.214432 
L 602.808759 128.087251 
L 603.024533 127.925385 
L 603.105011 127.77508 
L 603.217155 127.595871 
L 603.400925 127.422442 
L 603.455355 127.387757 
L 603.776472 127.249014 
L 604.181102 127.087148 
L 604.791525 126.393434 
L 604.98087 126.12173 
L 605.292275 125.907835 
L 605.402756 125.855807 
L 605.546887 125.717064 
L 605.708663 125.485826 
L 605.820163 125.399112 
L 606.029322 125.190998 
L 606.123809 125.063817 
L 606.338871 124.913513 
L 606.442767 124.763208 
L 606.64393 124.583999 
L 606.772657 124.433695 
L 607.237226 124.266047 
L 607.402371 123.953876 
L 608.065052 123.317973 
L 608.175694 123.109859 
L 610.248704 121.791803 
L 610.55693 121.64728 
L 610.835748 121.427604 
L 610.939851 121.202147 
L 611.129696 121.046062 
L 611.238463 120.826386 
L 613.426977 118.745246 
L 613.815597 118.566037 
L 613.968628 118.421513 
L 614.158164 118.265428 
L 614.414308 118.045752 
L 614.520692 117.964819 
L 614.585565 117.820295 
L 614.709853 117.641086 
L 614.888146 117.438753 
L 615.100217 117.282667 
L 615.48116 117.097677 
L 615.587436 116.924249 
L 616.231304 116.25944 
L 616.331709 116.109136 
L 616.649243 115.895241 
L 616.740889 115.843213 
L 616.922388 115.675565 
L 617.033932 115.467451 
L 617.596331 115.149499 
L 617.702778 115.016538 
L 617.824734 114.837328 
L 618.483813 114.496253 
L 618.777079 114.340167 
L 619.22215 114.074244 
L 619.608863 113.698483 
L 619.747351 113.542397 
L 619.852366 113.444121 
L 620.906233 112.70416 
L 621.556773 112.189656 
L 622.062748 111.964199 
L 622.636364 111.6 
L 622.636364 111.6 
" style="fill:none;stroke:#92c6ff;stroke-linecap:round;stroke-width:1.5;"/>
   </g>
   <g id="line2d_24">
    <defs>
     <path d="M 0 2.5 
C 0.663008 2.5 1.29895 2.236584 1.767767 1.767767 
C 2.236584 1.29895 2.5 0.663008 2.5 0 
C 2.5 -0.663008 2.236584 -1.29895 1.767767 -1.767767 
C 1.29895 -2.236584 0.663008 -2.5 0 -2.5 
C -0.663008 -2.5 -1.29895 -2.236584 -1.767767 -1.767767 
C -2.236584 -1.29895 -2.5 -0.663008 -2.5 0 
C -2.5 0.663008 -2.236584 1.29895 -1.767767 1.767767 
C -1.29895 2.236584 -0.663008 2.5 0 2.5 
z
" id="mb590673735" style="stroke:#696969;"/>
    </defs>
    <g clip-path="url(#p05a9e3a3f8)">
     <use style="fill:#696969;stroke:#696969;" x="115.363636" xlink:href="#mb590673735" y="615.6"/>
    </g>
   </g>
   <g id="line2d_25">
    <g clip-path="url(#p05a9e3a3f8)">
     <use style="fill:#696969;stroke:#696969;" x="204.762181" xlink:href="#mb590673735" y="565.195953"/>
    </g>
   </g>
   <g id="line2d_26">
    <g clip-path="url(#p05a9e3a3f8)">
     <use style="fill:#696969;stroke:#696969;" x="257.0482" xlink:href="#mb590673735" y="514.791907"/>
    </g>
   </g>
   <g id="line2d_27">
    <g clip-path="url(#p05a9e3a3f8)">
     <use style="fill:#696969;stroke:#696969;" x="302.575642" xlink:href="#mb590673735" y="464.38786"/>
    </g>
   </g>
   <g id="line2d_28">
    <g clip-path="url(#p05a9e3a3f8)">
     <use style="fill:#696969;stroke:#696969;" x="342.759279" xlink:href="#mb590673735" y="413.983813"/>
    </g>
   </g>
   <g id="line2d_29">
    <g clip-path="url(#p05a9e3a3f8)">
     <use style="fill:#696969;stroke:#696969;" x="381.464067" xlink:href="#mb590673735" y="363.585548"/>
    </g>
   </g>
   <g id="line2d_30">
    <g clip-path="url(#p05a9e3a3f8)">
     <use style="fill:#696969;stroke:#696969;" x="423.826661" xlink:href="#mb590673735" y="313.187282"/>
    </g>
   </g>
   <g id="line2d_31">
    <g clip-path="url(#p05a9e3a3f8)">
     <use style="fill:#696969;stroke:#696969;" x="458.030282" xlink:href="#mb590673735" y="262.789016"/>
    </g>
   </g>
   <g id="line2d_32">
    <g clip-path="url(#p05a9e3a3f8)">
     <use style="fill:#696969;stroke:#696969;" x="513.92368" xlink:href="#mb590673735" y="212.39075"/>
    </g>
   </g>
   <g id="line2d_33">
    <g clip-path="url(#p05a9e3a3f8)">
     <use style="fill:#696969;stroke:#696969;" x="565.282215" xlink:href="#mb590673735" y="161.992485"/>
    </g>
   </g>
   <g id="line2d_34">
    <g clip-path="url(#p05a9e3a3f8)">
     <use style="fill:#696969;stroke:#696969;" x="622.636364" xlink:href="#mb590673735" y="111.6"/>
    </g>
   </g>
   <g id="patch_3">
    <path d="M 90 640.8 
L 90 86.4 
" style="fill:none;stroke:#cccccc;stroke-linecap:square;stroke-linejoin:miter;"/>
   </g>
   <g id="patch_4">
    <path d="M 648 640.8 
L 648 86.4 
" style="fill:none;stroke:#cccccc;stroke-linecap:square;stroke-linejoin:miter;"/>
   </g>
   <g id="patch_5">
    <path d="M 90 640.8 
L 648 640.8 
" style="fill:none;stroke:#cccccc;stroke-linecap:square;stroke-linejoin:miter;"/>
   </g>
   <g id="patch_6">
    <path d="M 90 86.4 
L 648 86.4 
" style="fill:none;stroke:#cccccc;stroke-linecap:square;stroke-linejoin:miter;"/>
   </g>
   <g id="text_12">
    <!-- 1 (2014-06-07) -->
    <defs>
     <path id="DejaVuSans-32"/>
     <path d="M 31 75.875 
Q 24.46875 64.65625 21.28125 53.65625 
Q 18.109375 42.671875 18.109375 31.390625 
Q 18.109375 20.125 21.3125 9.0625 
Q 24.515625 -2 31 -13.1875 
L 23.1875 -13.1875 
Q 15.875 -1.703125 12.234375 9.375 
Q 8.59375 20.453125 8.59375 31.390625 
Q 8.59375 42.28125 12.203125 53.3125 
Q 15.828125 64.359375 23.1875 75.875 
z
" id="DejaVuSans-40"/>
     <path d="M 4.890625 31.390625 
L 31.203125 31.390625 
L 31.203125 23.390625 
L 4.890625 23.390625 
z
" id="DejaVuSans-45"/>
     <path d="M 8.015625 75.875 
L 15.828125 75.875 
Q 23.140625 64.359375 26.78125 53.3125 
Q 30.421875 42.28125 30.421875 31.390625 
Q 30.421875 20.453125 26.78125 9.375 
Q 23.140625 -1.703125 15.828125 -13.1875 
L 8.015625 -13.1875 
Q 14.5 -2 17.703125 9.0625 
Q 20.90625 20.125 20.90625 31.390625 
Q 20.90625 42.671875 17.703125 53.65625 
Q 14.5 64.65625 8.015625 75.875 
z
" id="DejaVuSans-41"/>
    </defs>
    <g style="fill:#262626;" transform="translate(120.363636 623.198437)scale(0.1 -0.1)">
     <use xlink:href="#DejaVuSans-49"/>
     <use x="63.623047" xlink:href="#DejaVuSans-32"/>
     <use x="95.410156" xlink:href="#DejaVuSans-40"/>
     <use x="134.423828" xlink:href="#DejaVuSans-50"/>
     <use x="198.046875" xlink:href="#DejaVuSans-48"/>
     <use x="261.669922" xlink:href="#DejaVuSans-49"/>
     <use x="325.292969" xlink:href="#DejaVuSans-52"/>
     <use x="388.916016" xlink:href="#DejaVuSans-45"/>
     <use x="425" xlink:href="#DejaVuSans-48"/>
     <use x="488.623047" xlink:href="#DejaVuSans-54"/>
     <use x="552.246094" xlink:href="#DejaVuSans-45"/>
     <use x="588.330078" xlink:href="#DejaVuSans-48"/>
     <use x="651.953125" xlink:href="#DejaVuSans-55"/>
     <use x="715.576172" xlink:href="#DejaVuSans-41"/>
    </g>
   </g>
   <g id="text_13">
    <!-- 8720 (2015-06-22) -->
    <g style="fill:#262626;" transform="translate(209.762181 572.794391)scale(0.1 -0.1)">
     <use xlink:href="#DejaVuSans-56"/>
     <use x="63.623047" xlink:href="#DejaVuSans-55"/>
     <use x="127.246094" xlink:href="#DejaVuSans-50"/>
     <use x="190.869141" xlink:href="#DejaVuSans-48"/>
     <use x="254.492188" xlink:href="#DejaVuSans-32"/>
     <use x="286.279297" xlink:href="#DejaVuSans-40"/>
     <use x="325.292969" xlink:href="#DejaVuSans-50"/>
     <use x="388.916016" xlink:href="#DejaVuSans-48"/>
     <use x="452.539062" xlink:href="#DejaVuSans-49"/>
     <use x="516.162109" xlink:href="#DejaVuSans-53"/>
     <use x="579.785156" xlink:href="#DejaVuSans-45"/>
     <use x="615.869141" xlink:href="#DejaVuSans-48"/>
     <use x="679.492188" xlink:href="#DejaVuSans-54"/>
     <use x="743.115234" xlink:href="#DejaVuSans-45"/>
     <use x="779.199219" xlink:href="#DejaVuSans-50"/>
     <use x="842.822266" xlink:href="#DejaVuSans-50"/>
     <use x="906.445312" xlink:href="#DejaVuSans-41"/>
    </g>
   </g>
   <g id="text_14">
    <!-- 17439 (2016-01-31) -->
    <defs>
     <path d="M 40.578125 39.3125 
Q 47.65625 37.796875 51.625 33 
Q 55.609375 28.21875 55.609375 21.1875 
Q 55.609375 10.40625 48.1875 4.484375 
Q 40.765625 -1.421875 27.09375 -1.421875 
Q 22.515625 -1.421875 17.65625 -0.515625 
Q 12.796875 0.390625 7.625 2.203125 
L 7.625 11.71875 
Q 11.71875 9.328125 16.59375 8.109375 
Q 21.484375 6.890625 26.8125 6.890625 
Q 36.078125 6.890625 40.9375 10.546875 
Q 45.796875 14.203125 45.796875 21.1875 
Q 45.796875 27.640625 41.28125 31.265625 
Q 36.765625 34.90625 28.71875 34.90625 
L 20.21875 34.90625 
L 20.21875 43.015625 
L 29.109375 43.015625 
Q 36.375 43.015625 40.234375 45.921875 
Q 44.09375 48.828125 44.09375 54.296875 
Q 44.09375 59.90625 40.109375 62.90625 
Q 36.140625 65.921875 28.71875 65.921875 
Q 24.65625 65.921875 20.015625 65.03125 
Q 15.375 64.15625 9.8125 62.3125 
L 9.8125 71.09375 
Q 15.4375 72.65625 20.34375 73.4375 
Q 25.25 74.21875 29.59375 74.21875 
Q 40.828125 74.21875 47.359375 69.109375 
Q 53.90625 64.015625 53.90625 55.328125 
Q 53.90625 49.265625 50.4375 45.09375 
Q 46.96875 40.921875 40.578125 39.3125 
z
" id="DejaVuSans-51"/>
    </defs>
    <g style="fill:#262626;" transform="translate(262.0482 522.390344)scale(0.1 -0.1)">
     <use xlink:href="#DejaVuSans-49"/>
     <use x="63.623047" xlink:href="#DejaVuSans-55"/>
     <use x="127.246094" xlink:href="#DejaVuSans-52"/>
     <use x="190.869141" xlink:href="#DejaVuSans-51"/>
     <use x="254.492188" xlink:href="#DejaVuSans-57"/>
     <use x="318.115234" xlink:href="#DejaVuSans-32"/>
     <use x="349.902344" xlink:href="#DejaVuSans-40"/>
     <use x="388.916016" xlink:href="#DejaVuSans-50"/>
     <use x="452.539062" xlink:href="#DejaVuSans-48"/>
     <use x="516.162109" xlink:href="#DejaVuSans-49"/>
     <use x="579.785156" xlink:href="#DejaVuSans-54"/>
     <use x="643.408203" xlink:href="#DejaVuSans-45"/>
     <use x="679.492188" xlink:href="#DejaVuSans-48"/>
     <use x="743.115234" xlink:href="#DejaVuSans-49"/>
     <use x="806.738281" xlink:href="#DejaVuSans-45"/>
     <use x="842.822266" xlink:href="#DejaVuSans-51"/>
     <use x="906.445312" xlink:href="#DejaVuSans-49"/>
     <use x="970.068359" xlink:href="#DejaVuSans-41"/>
    </g>
   </g>
   <g id="text_15">
    <!-- 26158 (2016-08-12) -->
    <g style="fill:#262626;" transform="translate(307.575642 471.986298)scale(0.1 -0.1)">
     <use xlink:href="#DejaVuSans-50"/>
     <use x="63.623047" xlink:href="#DejaVuSans-54"/>
     <use x="127.246094" xlink:href="#DejaVuSans-49"/>
     <use x="190.869141" xlink:href="#DejaVuSans-53"/>
     <use x="254.492188" xlink:href="#DejaVuSans-56"/>
     <use x="318.115234" xlink:href="#DejaVuSans-32"/>
     <use x="349.902344" xlink:href="#DejaVuSans-40"/>
     <use x="388.916016" xlink:href="#DejaVuSans-50"/>
     <use x="452.539062" xlink:href="#DejaVuSans-48"/>
     <use x="516.162109" xlink:href="#DejaVuSans-49"/>
     <use x="579.785156" xlink:href="#DejaVuSans-54"/>
     <use x="643.408203" xlink:href="#DejaVuSans-45"/>
     <use x="679.492188" xlink:href="#DejaVuSans-48"/>
     <use x="743.115234" xlink:href="#DejaVuSans-56"/>
     <use x="806.738281" xlink:href="#DejaVuSans-45"/>
     <use x="842.822266" xlink:href="#DejaVuSans-49"/>
     <use x="906.445312" xlink:href="#DejaVuSans-50"/>
     <use x="970.068359" xlink:href="#DejaVuSans-41"/>
    </g>
   </g>
   <g id="text_16">
    <!-- 34877 (2017-01-30) -->
    <g style="fill:#262626;" transform="translate(347.759279 421.582251)scale(0.1 -0.1)">
     <use xlink:href="#DejaVuSans-51"/>
     <use x="63.623047" xlink:href="#DejaVuSans-52"/>
     <use x="127.246094" xlink:href="#DejaVuSans-56"/>
     <use x="190.869141" xlink:href="#DejaVuSans-55"/>
     <use x="254.492188" xlink:href="#DejaVuSans-55"/>
     <use x="318.115234" xlink:href="#DejaVuSans-32"/>
     <use x="349.902344" xlink:href="#DejaVuSans-40"/>
     <use x="388.916016" xlink:href="#DejaVuSans-50"/>
     <use x="452.539062" xlink:href="#DejaVuSans-48"/>
     <use x="516.162109" xlink:href="#DejaVuSans-49"/>
     <use x="579.785156" xlink:href="#DejaVuSans-55"/>
     <use x="643.408203" xlink:href="#DejaVuSans-45"/>
     <use x="679.492188" xlink:href="#DejaVuSans-48"/>
     <use x="743.115234" xlink:href="#DejaVuSans-49"/>
     <use x="806.738281" xlink:href="#DejaVuSans-45"/>
     <use x="842.822266" xlink:href="#DejaVuSans-51"/>
     <use x="906.445312" xlink:href="#DejaVuSans-48"/>
     <use x="970.068359" xlink:href="#DejaVuSans-41"/>
    </g>
   </g>
   <g id="text_17">
    <!-- 43595 (2017-07-14) -->
    <g style="fill:#262626;" transform="translate(386.464067 371.183985)scale(0.1 -0.1)">
     <use xlink:href="#DejaVuSans-52"/>
     <use x="63.623047" xlink:href="#DejaVuSans-51"/>
     <use x="127.246094" xlink:href="#DejaVuSans-53"/>
     <use x="190.869141" xlink:href="#DejaVuSans-57"/>
     <use x="254.492188" xlink:href="#DejaVuSans-53"/>
     <use x="318.115234" xlink:href="#DejaVuSans-32"/>
     <use x="349.902344" xlink:href="#DejaVuSans-40"/>
     <use x="388.916016" xlink:href="#DejaVuSans-50"/>
     <use x="452.539062" xlink:href="#DejaVuSans-48"/>
     <use x="516.162109" xlink:href="#DejaVuSans-49"/>
     <use x="579.785156" xlink:href="#DejaVuSans-55"/>
     <use x="643.408203" xlink:href="#DejaVuSans-45"/>
     <use x="679.492188" xlink:href="#DejaVuSans-48"/>
     <use x="743.115234" xlink:href="#DejaVuSans-55"/>
     <use x="806.738281" xlink:href="#DejaVuSans-45"/>
     <use x="842.822266" xlink:href="#DejaVuSans-49"/>
     <use x="906.445312" xlink:href="#DejaVuSans-52"/>
     <use x="970.068359" xlink:href="#DejaVuSans-41"/>
    </g>
   </g>
   <g id="text_18">
    <!-- 52313 (2018-01-11) -->
    <g style="fill:#262626;" transform="translate(428.826661 320.785719)scale(0.1 -0.1)">
     <use xlink:href="#DejaVuSans-53"/>
     <use x="63.623047" xlink:href="#DejaVuSans-50"/>
     <use x="127.246094" xlink:href="#DejaVuSans-51"/>
     <use x="190.869141" xlink:href="#DejaVuSans-49"/>
     <use x="254.492188" xlink:href="#DejaVuSans-51"/>
     <use x="318.115234" xlink:href="#DejaVuSans-32"/>
     <use x="349.902344" xlink:href="#DejaVuSans-40"/>
     <use x="388.916016" xlink:href="#DejaVuSans-50"/>
     <use x="452.539062" xlink:href="#DejaVuSans-48"/>
     <use x="516.162109" xlink:href="#DejaVuSans-49"/>
     <use x="579.785156" xlink:href="#DejaVuSans-56"/>
     <use x="643.408203" xlink:href="#DejaVuSans-45"/>
     <use x="679.492188" xlink:href="#DejaVuSans-48"/>
     <use x="743.115234" xlink:href="#DejaVuSans-49"/>
     <use x="806.738281" xlink:href="#DejaVuSans-45"/>
     <use x="842.822266" xlink:href="#DejaVuSans-49"/>
     <use x="906.445312" xlink:href="#DejaVuSans-49"/>
     <use x="970.068359" xlink:href="#DejaVuSans-41"/>
    </g>
   </g>
   <g id="text_19">
    <!-- 61031 (2018-06-05) -->
    <g style="fill:#262626;" transform="translate(463.030282 270.387454)scale(0.1 -0.1)">
     <use xlink:href="#DejaVuSans-54"/>
     <use x="63.623047" xlink:href="#DejaVuSans-49"/>
     <use x="127.246094" xlink:href="#DejaVuSans-48"/>
     <use x="190.869141" xlink:href="#DejaVuSans-51"/>
     <use x="254.492188" xlink:href="#DejaVuSans-49"/>
     <use x="318.115234" xlink:href="#DejaVuSans-32"/>
     <use x="349.902344" xlink:href="#DejaVuSans-40"/>
     <use x="388.916016" xlink:href="#DejaVuSans-50"/>
     <use x="452.539062" xlink:href="#DejaVuSans-48"/>
     <use x="516.162109" xlink:href="#DejaVuSans-49"/>
     <use x="579.785156" xlink:href="#DejaVuSans-56"/>
     <use x="643.408203" xlink:href="#DejaVuSans-45"/>
     <use x="679.492188" xlink:href="#DejaVuSans-48"/>
     <use x="743.115234" xlink:href="#DejaVuSans-54"/>
     <use x="806.738281" xlink:href="#DejaVuSans-45"/>
     <use x="842.822266" xlink:href="#DejaVuSans-48"/>
     <use x="906.445312" xlink:href="#DejaVuSans-53"/>
     <use x="970.068359" xlink:href="#DejaVuSans-41"/>
    </g>
   </g>
   <g id="text_20">
    <!-- 69749 (2019-01-30) -->
    <g style="fill:#262626;" transform="translate(518.92368 219.989188)scale(0.1 -0.1)">
     <use xlink:href="#DejaVuSans-54"/>
     <use x="63.623047" xlink:href="#DejaVuSans-57"/>
     <use x="127.246094" xlink:href="#DejaVuSans-55"/>
     <use x="190.869141" xlink:href="#DejaVuSans-52"/>
     <use x="254.492188" xlink:href="#DejaVuSans-57"/>
     <use x="318.115234" xlink:href="#DejaVuSans-32"/>
     <use x="349.902344" xlink:href="#DejaVuSans-40"/>
     <use x="388.916016" xlink:href="#DejaVuSans-50"/>
     <use x="452.539062" xlink:href="#DejaVuSans-48"/>
     <use x="516.162109" xlink:href="#DejaVuSans-49"/>
     <use x="579.785156" xlink:href="#DejaVuSans-57"/>
     <use x="643.408203" xlink:href="#DejaVuSans-45"/>
     <use x="679.492188" xlink:href="#DejaVuSans-48"/>
     <use x="743.115234" xlink:href="#DejaVuSans-49"/>
     <use x="806.738281" xlink:href="#DejaVuSans-45"/>
     <use x="842.822266" xlink:href="#DejaVuSans-51"/>
     <use x="906.445312" xlink:href="#DejaVuSans-48"/>
     <use x="970.068359" xlink:href="#DejaVuSans-41"/>
    </g>
   </g>
   <g id="text_21">
    <!-- 78467 (2019-09-05) -->
    <g style="fill:#262626;" transform="translate(570.282215 169.590922)scale(0.1 -0.1)">
     <use xlink:href="#DejaVuSans-55"/>
     <use x="63.623047" xlink:href="#DejaVuSans-56"/>
     <use x="127.246094" xlink:href="#DejaVuSans-52"/>
     <use x="190.869141" xlink:href="#DejaVuSans-54"/>
     <use x="254.492188" xlink:href="#DejaVuSans-55"/>
     <use x="318.115234" xlink:href="#DejaVuSans-32"/>
     <use x="349.902344" xlink:href="#DejaVuSans-40"/>
     <use x="388.916016" xlink:href="#DejaVuSans-50"/>
     <use x="452.539062" xlink:href="#DejaVuSans-48"/>
     <use x="516.162109" xlink:href="#DejaVuSans-49"/>
     <use x="579.785156" xlink:href="#DejaVuSans-57"/>
     <use x="643.408203" xlink:href="#DejaVuSans-45"/>
     <use x="679.492188" xlink:href="#DejaVuSans-48"/>
     <use x="743.115234" xlink:href="#DejaVuSans-57"/>
     <use x="806.738281" xlink:href="#DejaVuSans-45"/>
     <use x="842.822266" xlink:href="#DejaVuSans-48"/>
     <use x="906.445312" xlink:href="#DejaVuSans-53"/>
     <use x="970.068359" xlink:href="#DejaVuSans-41"/>
    </g>
   </g>
   <g id="text_22">
    <!-- 87184 (2020-05-07) -->
    <g style="fill:#262626;" transform="translate(627.636364 119.198437)scale(0.1 -0.1)">
     <use xlink:href="#DejaVuSans-56"/>
     <use x="63.623047" xlink:href="#DejaVuSans-55"/>
     <use x="127.246094" xlink:href="#DejaVuSans-49"/>
     <use x="190.869141" xlink:href="#DejaVuSans-56"/>
     <use x="254.492188" xlink:href="#DejaVuSans-52"/>
     <use x="318.115234" xlink:href="#DejaVuSans-32"/>
     <use x="349.902344" xlink:href="#DejaVuSans-40"/>
     <use x="388.916016" xlink:href="#DejaVuSans-50"/>
     <use x="452.539062" xlink:href="#DejaVuSans-48"/>
     <use x="516.162109" xlink:href="#DejaVuSans-50"/>
     <use x="579.785156" xlink:href="#DejaVuSans-48"/>
     <use x="643.408203" xlink:href="#DejaVuSans-45"/>
     <use x="679.492188" xlink:href="#DejaVuSans-48"/>
     <use x="743.115234" xlink:href="#DejaVuSans-53"/>
     <use x="806.738281" xlink:href="#DejaVuSans-45"/>
     <use x="842.822266" xlink:href="#DejaVuSans-48"/>
     <use x="906.445312" xlink:href="#DejaVuSans-55"/>
     <use x="970.068359" xlink:href="#DejaVuSans-41"/>
    </g>
   </g>
   <g id="text_23">
    <!-- Closed issues and PRs over time -->
    <defs>
     <path d="M 64.40625 67.28125 
L 64.40625 56.890625 
Q 59.421875 61.53125 53.78125 63.8125 
Q 48.140625 66.109375 41.796875 66.109375 
Q 29.296875 66.109375 22.65625 58.46875 
Q 16.015625 50.828125 16.015625 36.375 
Q 16.015625 21.96875 22.65625 14.328125 
Q 29.296875 6.6875 41.796875 6.6875 
Q 48.140625 6.6875 53.78125 8.984375 
Q 59.421875 11.28125 64.40625 15.921875 
L 64.40625 5.609375 
Q 59.234375 2.09375 53.4375 0.328125 
Q 47.65625 -1.421875 41.21875 -1.421875 
Q 24.65625 -1.421875 15.125 8.703125 
Q 5.609375 18.84375 5.609375 36.375 
Q 5.609375 53.953125 15.125 64.078125 
Q 24.65625 74.21875 41.21875 74.21875 
Q 47.75 74.21875 53.53125 72.484375 
Q 59.328125 70.75 64.40625 67.28125 
z
" id="DejaVuSans-67"/>
     <path d="M 9.421875 75.984375 
L 18.40625 75.984375 
L 18.40625 0 
L 9.421875 0 
z
" id="DejaVuSans-108"/>
     <path d="M 30.609375 48.390625 
Q 23.390625 48.390625 19.1875 42.75 
Q 14.984375 37.109375 14.984375 27.296875 
Q 14.984375 17.484375 19.15625 11.84375 
Q 23.34375 6.203125 30.609375 6.203125 
Q 37.796875 6.203125 41.984375 11.859375 
Q 46.1875 17.53125 46.1875 27.296875 
Q 46.1875 37.015625 41.984375 42.703125 
Q 37.796875 48.390625 30.609375 48.390625 
z
M 30.609375 56 
Q 42.328125 56 49.015625 48.375 
Q 55.71875 40.765625 55.71875 27.296875 
Q 55.71875 13.875 49.015625 6.21875 
Q 42.328125 -1.421875 30.609375 -1.421875 
Q 18.84375 -1.421875 12.171875 6.21875 
Q 5.515625 13.875 5.515625 27.296875 
Q 5.515625 40.765625 12.171875 48.375 
Q 18.84375 56 30.609375 56 
z
" id="DejaVuSans-111"/>
     <path d="M 44.28125 53.078125 
L 44.28125 44.578125 
Q 40.484375 46.53125 36.375 47.5 
Q 32.28125 48.484375 27.875 48.484375 
Q 21.1875 48.484375 17.84375 46.4375 
Q 14.5 44.390625 14.5 40.28125 
Q 14.5 37.15625 16.890625 35.375 
Q 19.28125 33.59375 26.515625 31.984375 
L 29.59375 31.296875 
Q 39.15625 29.25 43.1875 25.515625 
Q 47.21875 21.78125 47.21875 15.09375 
Q 47.21875 7.46875 41.1875 3.015625 
Q 35.15625 -1.421875 24.609375 -1.421875 
Q 20.21875 -1.421875 15.453125 -0.5625 
Q 10.6875 0.296875 5.421875 2 
L 5.421875 11.28125 
Q 10.40625 8.6875 15.234375 7.390625 
Q 20.0625 6.109375 24.8125 6.109375 
Q 31.15625 6.109375 34.5625 8.28125 
Q 37.984375 10.453125 37.984375 14.40625 
Q 37.984375 18.0625 35.515625 20.015625 
Q 33.0625 21.96875 24.703125 23.78125 
L 21.578125 24.515625 
Q 13.234375 26.265625 9.515625 29.90625 
Q 5.8125 33.546875 5.8125 39.890625 
Q 5.8125 47.609375 11.28125 51.796875 
Q 16.75 56 26.8125 56 
Q 31.78125 56 36.171875 55.265625 
Q 40.578125 54.546875 44.28125 53.078125 
z
" id="DejaVuSans-115"/>
     <path d="M 56.203125 29.59375 
L 56.203125 25.203125 
L 14.890625 25.203125 
Q 15.484375 15.921875 20.484375 11.0625 
Q 25.484375 6.203125 34.421875 6.203125 
Q 39.59375 6.203125 44.453125 7.46875 
Q 49.3125 8.734375 54.109375 11.28125 
L 54.109375 2.78125 
Q 49.265625 0.734375 44.1875 -0.34375 
Q 39.109375 -1.421875 33.890625 -1.421875 
Q 20.796875 -1.421875 13.15625 6.1875 
Q 5.515625 13.8125 5.515625 26.8125 
Q 5.515625 40.234375 12.765625 48.109375 
Q 20.015625 56 32.328125 56 
Q 43.359375 56 49.78125 48.890625 
Q 56.203125 41.796875 56.203125 29.59375 
z
M 47.21875 32.234375 
Q 47.125 39.59375 43.09375 43.984375 
Q 39.0625 48.390625 32.421875 48.390625 
Q 24.90625 48.390625 20.390625 44.140625 
Q 15.875 39.890625 15.1875 32.171875 
z
" id="DejaVuSans-101"/>
     <path d="M 45.40625 46.390625 
L 45.40625 75.984375 
L 54.390625 75.984375 
L 54.390625 0 
L 45.40625 0 
L 45.40625 8.203125 
Q 42.578125 3.328125 38.25 0.953125 
Q 33.9375 -1.421875 27.875 -1.421875 
Q 17.96875 -1.421875 11.734375 6.484375 
Q 5.515625 14.40625 5.515625 27.296875 
Q 5.515625 40.1875 11.734375 48.09375 
Q 17.96875 56 27.875 56 
Q 33.9375 56 38.25 53.625 
Q 42.578125 51.265625 45.40625 46.390625 
z
M 14.796875 27.296875 
Q 14.796875 17.390625 18.875 11.75 
Q 22.953125 6.109375 30.078125 6.109375 
Q 37.203125 6.109375 41.296875 11.75 
Q 45.40625 17.390625 45.40625 27.296875 
Q 45.40625 37.203125 41.296875 42.84375 
Q 37.203125 48.484375 30.078125 48.484375 
Q 22.953125 48.484375 18.875 42.84375 
Q 14.796875 37.203125 14.796875 27.296875 
z
" id="DejaVuSans-100"/>
     <path d="M 9.421875 54.6875 
L 18.40625 54.6875 
L 18.40625 0 
L 9.421875 0 
z
M 9.421875 75.984375 
L 18.40625 75.984375 
L 18.40625 64.59375 
L 9.421875 64.59375 
z
" id="DejaVuSans-105"/>
     <path d="M 8.5 21.578125 
L 8.5 54.6875 
L 17.484375 54.6875 
L 17.484375 21.921875 
Q 17.484375 14.15625 20.5 10.265625 
Q 23.53125 6.390625 29.59375 6.390625 
Q 36.859375 6.390625 41.078125 11.03125 
Q 45.3125 15.671875 45.3125 23.6875 
L 45.3125 54.6875 
L 54.296875 54.6875 
L 54.296875 0 
L 45.3125 0 
L 45.3125 8.40625 
Q 42.046875 3.421875 37.71875 1 
Q 33.40625 -1.421875 27.6875 -1.421875 
Q 18.265625 -1.421875 13.375 4.4375 
Q 8.5 10.296875 8.5 21.578125 
z
M 31.109375 56 
z
" id="DejaVuSans-117"/>
     <path d="M 34.28125 27.484375 
Q 23.390625 27.484375 19.1875 25 
Q 14.984375 22.515625 14.984375 16.5 
Q 14.984375 11.71875 18.140625 8.90625 
Q 21.296875 6.109375 26.703125 6.109375 
Q 34.1875 6.109375 38.703125 11.40625 
Q 43.21875 16.703125 43.21875 25.484375 
L 43.21875 27.484375 
z
M 52.203125 31.203125 
L 52.203125 0 
L 43.21875 0 
L 43.21875 8.296875 
Q 40.140625 3.328125 35.546875 0.953125 
Q 30.953125 -1.421875 24.3125 -1.421875 
Q 15.921875 -1.421875 10.953125 3.296875 
Q 6 8.015625 6 15.921875 
Q 6 25.140625 12.171875 29.828125 
Q 18.359375 34.515625 30.609375 34.515625 
L 43.21875 34.515625 
L 43.21875 35.40625 
Q 43.21875 41.609375 39.140625 45 
Q 35.0625 48.390625 27.6875 48.390625 
Q 23 48.390625 18.546875 47.265625 
Q 14.109375 46.140625 10.015625 43.890625 
L 10.015625 52.203125 
Q 14.9375 54.109375 19.578125 55.046875 
Q 24.21875 56 28.609375 56 
Q 40.484375 56 46.34375 49.84375 
Q 52.203125 43.703125 52.203125 31.203125 
z
" id="DejaVuSans-97"/>
     <path d="M 54.890625 33.015625 
L 54.890625 0 
L 45.90625 0 
L 45.90625 32.71875 
Q 45.90625 40.484375 42.875 44.328125 
Q 39.84375 48.1875 33.796875 48.1875 
Q 26.515625 48.1875 22.3125 43.546875 
Q 18.109375 38.921875 18.109375 30.90625 
L 18.109375 0 
L 9.078125 0 
L 9.078125 54.6875 
L 18.109375 54.6875 
L 18.109375 46.1875 
Q 21.34375 51.125 25.703125 53.5625 
Q 30.078125 56 35.796875 56 
Q 45.21875 56 50.046875 50.171875 
Q 54.890625 44.34375 54.890625 33.015625 
z
" id="DejaVuSans-110"/>
     <path d="M 19.671875 64.796875 
L 19.671875 37.40625 
L 32.078125 37.40625 
Q 38.96875 37.40625 42.71875 40.96875 
Q 46.484375 44.53125 46.484375 51.125 
Q 46.484375 57.671875 42.71875 61.234375 
Q 38.96875 64.796875 32.078125 64.796875 
z
M 9.8125 72.90625 
L 32.078125 72.90625 
Q 44.34375 72.90625 50.609375 67.359375 
Q 56.890625 61.8125 56.890625 51.125 
Q 56.890625 40.328125 50.609375 34.8125 
Q 44.34375 29.296875 32.078125 29.296875 
L 19.671875 29.296875 
L 19.671875 0 
L 9.8125 0 
z
" id="DejaVuSans-80"/>
     <path d="M 44.390625 34.1875 
Q 47.5625 33.109375 50.5625 29.59375 
Q 53.5625 26.078125 56.59375 19.921875 
L 66.609375 0 
L 56 0 
L 46.6875 18.703125 
Q 43.0625 26.03125 39.671875 28.421875 
Q 36.28125 30.8125 30.421875 30.8125 
L 19.671875 30.8125 
L 19.671875 0 
L 9.8125 0 
L 9.8125 72.90625 
L 32.078125 72.90625 
Q 44.578125 72.90625 50.734375 67.671875 
Q 56.890625 62.453125 56.890625 51.90625 
Q 56.890625 45.015625 53.6875 40.46875 
Q 50.484375 35.9375 44.390625 34.1875 
z
M 19.671875 64.796875 
L 19.671875 38.921875 
L 32.078125 38.921875 
Q 39.203125 38.921875 42.84375 42.21875 
Q 46.484375 45.515625 46.484375 51.90625 
Q 46.484375 58.296875 42.84375 61.546875 
Q 39.203125 64.796875 32.078125 64.796875 
z
" id="DejaVuSans-82"/>
     <path d="M 2.984375 54.6875 
L 12.5 54.6875 
L 29.59375 8.796875 
L 46.6875 54.6875 
L 56.203125 54.6875 
L 35.6875 0 
L 23.484375 0 
z
" id="DejaVuSans-118"/>
     <path d="M 41.109375 46.296875 
Q 39.59375 47.171875 37.8125 47.578125 
Q 36.03125 48 33.890625 48 
Q 26.265625 48 22.1875 43.046875 
Q 18.109375 38.09375 18.109375 28.8125 
L 18.109375 0 
L 9.078125 0 
L 9.078125 54.6875 
L 18.109375 54.6875 
L 18.109375 46.1875 
Q 20.953125 51.171875 25.484375 53.578125 
Q 30.03125 56 36.53125 56 
Q 37.453125 56 38.578125 55.875 
Q 39.703125 55.765625 41.0625 55.515625 
z
" id="DejaVuSans-114"/>
     <path d="M 18.3125 70.21875 
L 18.3125 54.6875 
L 36.8125 54.6875 
L 36.8125 47.703125 
L 18.3125 47.703125 
L 18.3125 18.015625 
Q 18.3125 11.328125 20.140625 9.421875 
Q 21.96875 7.515625 27.59375 7.515625 
L 36.8125 7.515625 
L 36.8125 0 
L 27.59375 0 
Q 17.1875 0 13.234375 3.875 
Q 9.28125 7.765625 9.28125 18.015625 
L 9.28125 47.703125 
L 2.6875 47.703125 
L 2.6875 54.6875 
L 9.28125 54.6875 
L 9.28125 70.21875 
z
" id="DejaVuSans-116"/>
     <path d="M 52 44.1875 
Q 55.375 50.25 60.0625 53.125 
Q 64.75 56 71.09375 56 
Q 79.640625 56 84.28125 50.015625 
Q 88.921875 44.046875 88.921875 33.015625 
L 88.921875 0 
L 79.890625 0 
L 79.890625 32.71875 
Q 79.890625 40.578125 77.09375 44.375 
Q 74.3125 48.1875 68.609375 48.1875 
Q 61.625 48.1875 57.5625 43.546875 
Q 53.515625 38.921875 53.515625 30.90625 
L 53.515625 0 
L 44.484375 0 
L 44.484375 32.71875 
Q 44.484375 40.625 41.703125 44.40625 
Q 38.921875 48.1875 33.109375 48.1875 
Q 26.21875 48.1875 22.15625 43.53125 
Q 18.109375 38.875 18.109375 30.90625 
L 18.109375 0 
L 9.078125 0 
L 9.078125 54.6875 
L 18.109375 54.6875 
L 18.109375 46.1875 
Q 21.1875 51.21875 25.484375 53.609375 
Q 29.78125 56 35.6875 56 
Q 41.65625 56 45.828125 52.96875 
Q 50 49.953125 52 44.1875 
z
" id="DejaVuSans-109"/>
    </defs>
    <g style="fill:#262626;" transform="translate(271.635938 80.4)scale(0.12 -0.12)">
     <use xlink:href="#DejaVuSans-67"/>
     <use x="69.824219" xlink:href="#DejaVuSans-108"/>
     <use x="97.607422" xlink:href="#DejaVuSans-111"/>
     <use x="158.789062" xlink:href="#DejaVuSans-115"/>
     <use x="210.888672" xlink:href="#DejaVuSans-101"/>
     <use x="272.412109" xlink:href="#DejaVuSans-100"/>
     <use x="335.888672" xlink:href="#DejaVuSans-32"/>
     <use x="367.675781" xlink:href="#DejaVuSans-105"/>
     <use x="395.458984" xlink:href="#DejaVuSans-115"/>
     <use x="447.558594" xlink:href="#DejaVuSans-115"/>
     <use x="499.658203" xlink:href="#DejaVuSans-117"/>
     <use x="563.037109" xlink:href="#DejaVuSans-101"/>
     <use x="624.560547" xlink:href="#DejaVuSans-115"/>
     <use x="676.660156" xlink:href="#DejaVuSans-32"/>
     <use x="708.447266" xlink:href="#DejaVuSans-97"/>
     <use x="769.726562" xlink:href="#DejaVuSans-110"/>
     <use x="833.105469" xlink:href="#DejaVuSans-100"/>
     <use x="896.582031" xlink:href="#DejaVuSans-32"/>
     <use x="928.369141" xlink:href="#DejaVuSans-80"/>
     <use x="988.671875" xlink:href="#DejaVuSans-82"/>
     <use x="1058.154297" xlink:href="#DejaVuSans-115"/>
     <use x="1110.253906" xlink:href="#DejaVuSans-32"/>
     <use x="1142.041016" xlink:href="#DejaVuSans-111"/>
     <use x="1203.222656" xlink:href="#DejaVuSans-118"/>
     <use x="1262.402344" xlink:href="#DejaVuSans-101"/>
     <use x="1323.925781" xlink:href="#DejaVuSans-114"/>
     <use x="1365.039062" xlink:href="#DejaVuSans-32"/>
     <use x="1396.826172" xlink:href="#DejaVuSans-116"/>
     <use x="1436.035156" xlink:href="#DejaVuSans-105"/>
     <use x="1463.818359" xlink:href="#DejaVuSans-109"/>
     <use x="1561.230469" xlink:href="#DejaVuSans-101"/>
    </g>
   </g>
  </g>
 </g>
 <defs>
  <clipPath id="p05a9e3a3f8">
   <rect height="554.4" width="558" x="90" y="86.4"/>
  </clipPath>
 </defs>
</svg>
