<?xml version="1.0" encoding="utf-8" standalone="no"?>
<!DOCTYPE svg PUBLIC "-//W3C//DTD SVG 1.1//EN"
  "http://www.w3.org/Graphics/SVG/1.1/DTD/svg11.dtd">
<!-- Created with matplotlib (https://matplotlib.org/) -->
<svg height="720pt" version="1.1" viewBox="0 0 720 720" width="720pt" xmlns="http://www.w3.org/2000/svg" xmlns:xlink="http://www.w3.org/1999/xlink">
 <defs>
  <style type="text/css">
*{stroke-linecap:butt;stroke-linejoin:round;}
  </style>
 </defs>
 <g id="figure_1">
  <g id="patch_1">
   <path d="M 0 720 
L 720 720 
L 720 0 
L 0 0 
z
" style="fill:#ffffff;"/>
  </g>
  <g id="axes_1">
   <g id="patch_2">
    <path d="M 90 640.8 
L 648 640.8 
L 648 86.4 
L 90 86.4 
z
" style="fill:#ffffff;"/>
   </g>
   <g id="matplotlib.axis_1">
    <g id="xtick_1">
     <g id="line2d_1">
      <path clip-path="url(#p6fbdf8e7af)" d="M 163.696581 640.8 
L 163.696581 86.4 
" style="fill:none;stroke:#cccccc;stroke-linecap:round;stroke-width:0.8;"/>
     </g>
     <g id="line2d_2"/>
     <g id="text_1">
      <!-- 2015 -->
      <defs>
       <path d="M 19.1875 8.296875 
L 53.609375 8.296875 
L 53.609375 0 
L 7.328125 0 
L 7.328125 8.296875 
Q 12.9375 14.109375 22.625 23.890625 
Q 32.328125 33.6875 34.8125 36.53125 
Q 39.546875 41.84375 41.421875 45.53125 
Q 43.3125 49.21875 43.3125 52.78125 
Q 43.3125 58.59375 39.234375 62.25 
Q 35.15625 65.921875 28.609375 65.921875 
Q 23.96875 65.921875 18.8125 64.3125 
Q 13.671875 62.703125 7.8125 59.421875 
L 7.8125 69.390625 
Q 13.765625 71.78125 18.9375 73 
Q 24.125 74.21875 28.421875 74.21875 
Q 39.75 74.21875 46.484375 68.546875 
Q 53.21875 62.890625 53.21875 53.421875 
Q 53.21875 48.921875 51.53125 44.890625 
Q 49.859375 40.875 45.40625 35.40625 
Q 44.1875 33.984375 37.640625 27.21875 
Q 31.109375 20.453125 19.1875 8.296875 
z
" id="DejaVuSans-50"/>
       <path d="M 31.78125 66.40625 
Q 24.171875 66.40625 20.328125 58.90625 
Q 16.5 51.421875 16.5 36.375 
Q 16.5 21.390625 20.328125 13.890625 
Q 24.171875 6.390625 31.78125 6.390625 
Q 39.453125 6.390625 43.28125 13.890625 
Q 47.125 21.390625 47.125 36.375 
Q 47.125 51.421875 43.28125 58.90625 
Q 39.453125 66.40625 31.78125 66.40625 
z
M 31.78125 74.21875 
Q 44.046875 74.21875 50.515625 64.515625 
Q 56.984375 54.828125 56.984375 36.375 
Q 56.984375 17.96875 50.515625 8.265625 
Q 44.046875 -1.421875 31.78125 -1.421875 
Q 19.53125 -1.421875 13.0625 8.265625 
Q 6.59375 17.96875 6.59375 36.375 
Q 6.59375 54.828125 13.0625 64.515625 
Q 19.53125 74.21875 31.78125 74.21875 
z
" id="DejaVuSans-48"/>
       <path d="M 12.40625 8.296875 
L 28.515625 8.296875 
L 28.515625 63.921875 
L 10.984375 60.40625 
L 10.984375 69.390625 
L 28.421875 72.90625 
L 38.28125 72.90625 
L 38.28125 8.296875 
L 54.390625 8.296875 
L 54.390625 0 
L 12.40625 0 
z
" id="DejaVuSans-49"/>
       <path d="M 10.796875 72.90625 
L 49.515625 72.90625 
L 49.515625 64.59375 
L 19.828125 64.59375 
L 19.828125 46.734375 
Q 21.96875 47.46875 24.109375 47.828125 
Q 26.265625 48.1875 28.421875 48.1875 
Q 40.625 48.1875 47.75 41.5 
Q 54.890625 34.8125 54.890625 23.390625 
Q 54.890625 11.625 47.5625 5.09375 
Q 40.234375 -1.421875 26.90625 -1.421875 
Q 22.3125 -1.421875 17.546875 -0.640625 
Q 12.796875 0.140625 7.71875 1.703125 
L 7.71875 11.625 
Q 12.109375 9.234375 16.796875 8.0625 
Q 21.484375 6.890625 26.703125 6.890625 
Q 35.15625 6.890625 40.078125 11.328125 
Q 45.015625 15.765625 45.015625 23.390625 
Q 45.015625 31 40.078125 35.4375 
Q 35.15625 39.890625 26.703125 39.890625 
Q 22.75 39.890625 18.8125 39.015625 
Q 14.890625 38.140625 10.796875 36.28125 
z
" id="DejaVuSans-53"/>
      </defs>
      <g style="fill:#262626;" transform="translate(150.971581 651.898438)scale(0.1 -0.1)">
       <use xlink:href="#DejaVuSans-50"/>
       <use x="63.623047" xlink:href="#DejaVuSans-48"/>
       <use x="127.246094" xlink:href="#DejaVuSans-49"/>
       <use x="190.869141" xlink:href="#DejaVuSans-53"/>
      </g>
     </g>
    </g>
    <g id="xtick_2">
     <g id="line2d_3">
      <path clip-path="url(#p6fbdf8e7af)" d="M 249.442051 640.8 
L 249.442051 86.4 
" style="fill:none;stroke:#cccccc;stroke-linecap:round;stroke-width:0.8;"/>
     </g>
     <g id="line2d_4"/>
     <g id="text_2">
      <!-- 2016 -->
      <defs>
       <path d="M 33.015625 40.375 
Q 26.375 40.375 22.484375 35.828125 
Q 18.609375 31.296875 18.609375 23.390625 
Q 18.609375 15.53125 22.484375 10.953125 
Q 26.375 6.390625 33.015625 6.390625 
Q 39.65625 6.390625 43.53125 10.953125 
Q 47.40625 15.53125 47.40625 23.390625 
Q 47.40625 31.296875 43.53125 35.828125 
Q 39.65625 40.375 33.015625 40.375 
z
M 52.59375 71.296875 
L 52.59375 62.3125 
Q 48.875 64.0625 45.09375 64.984375 
Q 41.3125 65.921875 37.59375 65.921875 
Q 27.828125 65.921875 22.671875 59.328125 
Q 17.53125 52.734375 16.796875 39.40625 
Q 19.671875 43.65625 24.015625 45.921875 
Q 28.375 48.1875 33.59375 48.1875 
Q 44.578125 48.1875 50.953125 41.515625 
Q 57.328125 34.859375 57.328125 23.390625 
Q 57.328125 12.15625 50.6875 5.359375 
Q 44.046875 -1.421875 33.015625 -1.421875 
Q 20.359375 -1.421875 13.671875 8.265625 
Q 6.984375 17.96875 6.984375 36.375 
Q 6.984375 53.65625 15.1875 63.9375 
Q 23.390625 74.21875 37.203125 74.21875 
Q 40.921875 74.21875 44.703125 73.484375 
Q 48.484375 72.75 52.59375 71.296875 
z
" id="DejaVuSans-54"/>
      </defs>
      <g style="fill:#262626;" transform="translate(236.717051 651.898438)scale(0.1 -0.1)">
       <use xlink:href="#DejaVuSans-50"/>
       <use x="63.623047" xlink:href="#DejaVuSans-48"/>
       <use x="127.246094" xlink:href="#DejaVuSans-49"/>
       <use x="190.869141" xlink:href="#DejaVuSans-54"/>
      </g>
     </g>
    </g>
    <g id="xtick_3">
     <g id="line2d_5">
      <path clip-path="url(#p6fbdf8e7af)" d="M 335.422441 640.8 
L 335.422441 86.4 
" style="fill:none;stroke:#cccccc;stroke-linecap:round;stroke-width:0.8;"/>
     </g>
     <g id="line2d_6"/>
     <g id="text_3">
      <!-- 2017 -->
      <defs>
       <path d="M 8.203125 72.90625 
L 55.078125 72.90625 
L 55.078125 68.703125 
L 28.609375 0 
L 18.3125 0 
L 43.21875 64.59375 
L 8.203125 64.59375 
z
" id="DejaVuSans-55"/>
      </defs>
      <g style="fill:#262626;" transform="translate(322.697441 651.898438)scale(0.1 -0.1)">
       <use xlink:href="#DejaVuSans-50"/>
       <use x="63.623047" xlink:href="#DejaVuSans-48"/>
       <use x="127.246094" xlink:href="#DejaVuSans-49"/>
       <use x="190.869141" xlink:href="#DejaVuSans-55"/>
      </g>
     </g>
    </g>
    <g id="xtick_4">
     <g id="line2d_7">
      <path clip-path="url(#p6fbdf8e7af)" d="M 421.167911 640.8 
L 421.167911 86.4 
" style="fill:none;stroke:#cccccc;stroke-linecap:round;stroke-width:0.8;"/>
     </g>
     <g id="line2d_8"/>
     <g id="text_4">
      <!-- 2018 -->
      <defs>
       <path d="M 31.78125 34.625 
Q 24.75 34.625 20.71875 30.859375 
Q 16.703125 27.09375 16.703125 20.515625 
Q 16.703125 13.921875 20.71875 10.15625 
Q 24.75 6.390625 31.78125 6.390625 
Q 38.8125 6.390625 42.859375 10.171875 
Q 46.921875 13.96875 46.921875 20.515625 
Q 46.921875 27.09375 42.890625 30.859375 
Q 38.875 34.625 31.78125 34.625 
z
M 21.921875 38.8125 
Q 15.578125 40.375 12.03125 44.71875 
Q 8.5 49.078125 8.5 55.328125 
Q 8.5 64.0625 14.71875 69.140625 
Q 20.953125 74.21875 31.78125 74.21875 
Q 42.671875 74.21875 48.875 69.140625 
Q 55.078125 64.0625 55.078125 55.328125 
Q 55.078125 49.078125 51.53125 44.71875 
Q 48 40.375 41.703125 38.8125 
Q 48.828125 37.15625 52.796875 32.3125 
Q 56.78125 27.484375 56.78125 20.515625 
Q 56.78125 9.90625 50.3125 4.234375 
Q 43.84375 -1.421875 31.78125 -1.421875 
Q 19.734375 -1.421875 13.25 4.234375 
Q 6.78125 9.90625 6.78125 20.515625 
Q 6.78125 27.484375 10.78125 32.3125 
Q 14.796875 37.15625 21.921875 38.8125 
z
M 18.3125 54.390625 
Q 18.3125 48.734375 21.84375 45.5625 
Q 25.390625 42.390625 31.78125 42.390625 
Q 38.140625 42.390625 41.71875 45.5625 
Q 45.3125 48.734375 45.3125 54.390625 
Q 45.3125 60.0625 41.71875 63.234375 
Q 38.140625 66.40625 31.78125 66.40625 
Q 25.390625 66.40625 21.84375 63.234375 
Q 18.3125 60.0625 18.3125 54.390625 
z
" id="DejaVuSans-56"/>
      </defs>
      <g style="fill:#262626;" transform="translate(408.442911 651.898438)scale(0.1 -0.1)">
       <use xlink:href="#DejaVuSans-50"/>
       <use x="63.623047" xlink:href="#DejaVuSans-48"/>
       <use x="127.246094" xlink:href="#DejaVuSans-49"/>
       <use x="190.869141" xlink:href="#DejaVuSans-56"/>
      </g>
     </g>
    </g>
    <g id="xtick_5">
     <g id="line2d_9">
      <path clip-path="url(#p6fbdf8e7af)" d="M 506.913381 640.8 
L 506.913381 86.4 
" style="fill:none;stroke:#cccccc;stroke-linecap:round;stroke-width:0.8;"/>
     </g>
     <g id="line2d_10"/>
     <g id="text_5">
      <!-- 2019 -->
      <defs>
       <path d="M 10.984375 1.515625 
L 10.984375 10.5 
Q 14.703125 8.734375 18.5 7.8125 
Q 22.3125 6.890625 25.984375 6.890625 
Q 35.75 6.890625 40.890625 13.453125 
Q 46.046875 20.015625 46.78125 33.40625 
Q 43.953125 29.203125 39.59375 26.953125 
Q 35.25 24.703125 29.984375 24.703125 
Q 19.046875 24.703125 12.671875 31.3125 
Q 6.296875 37.9375 6.296875 49.421875 
Q 6.296875 60.640625 12.9375 67.421875 
Q 19.578125 74.21875 30.609375 74.21875 
Q 43.265625 74.21875 49.921875 64.515625 
Q 56.59375 54.828125 56.59375 36.375 
Q 56.59375 19.140625 48.40625 8.859375 
Q 40.234375 -1.421875 26.421875 -1.421875 
Q 22.703125 -1.421875 18.890625 -0.6875 
Q 15.09375 0.046875 10.984375 1.515625 
z
M 30.609375 32.421875 
Q 37.25 32.421875 41.125 36.953125 
Q 45.015625 41.5 45.015625 49.421875 
Q 45.015625 57.28125 41.125 61.84375 
Q 37.25 66.40625 30.609375 66.40625 
Q 23.96875 66.40625 20.09375 61.84375 
Q 16.21875 57.28125 16.21875 49.421875 
Q 16.21875 41.5 20.09375 36.953125 
Q 23.96875 32.421875 30.609375 32.421875 
z
" id="DejaVuSans-57"/>
      </defs>
      <g style="fill:#262626;" transform="translate(494.188381 651.898438)scale(0.1 -0.1)">
       <use xlink:href="#DejaVuSans-50"/>
       <use x="63.623047" xlink:href="#DejaVuSans-48"/>
       <use x="127.246094" xlink:href="#DejaVuSans-49"/>
       <use x="190.869141" xlink:href="#DejaVuSans-57"/>
      </g>
     </g>
    </g>
    <g id="xtick_6">
     <g id="line2d_11">
      <path clip-path="url(#p6fbdf8e7af)" d="M 592.658851 640.8 
L 592.658851 86.4 
" style="fill:none;stroke:#cccccc;stroke-linecap:round;stroke-width:0.8;"/>
     </g>
     <g id="line2d_12"/>
     <g id="text_6">
      <!-- 2020 -->
      <g style="fill:#262626;" transform="translate(579.933851 651.898438)scale(0.1 -0.1)">
       <use xlink:href="#DejaVuSans-50"/>
       <use x="63.623047" xlink:href="#DejaVuSans-48"/>
       <use x="127.246094" xlink:href="#DejaVuSans-50"/>
       <use x="190.869141" xlink:href="#DejaVuSans-48"/>
      </g>
     </g>
    </g>
   </g>
   <g id="matplotlib.axis_2">
    <g id="ytick_1">
     <g id="line2d_13">
      <path clip-path="url(#p6fbdf8e7af)" d="M 90 615.615588 
L 648 615.615588 
" style="fill:none;stroke:#cccccc;stroke-linecap:round;stroke-width:0.8;"/>
     </g>
     <g id="line2d_14"/>
     <g id="text_7">
      <!-- 0 -->
      <g style="fill:#262626;" transform="translate(80.1375 619.414807)scale(0.1 -0.1)">
       <use xlink:href="#DejaVuSans-48"/>
      </g>
     </g>
    </g>
    <g id="ytick_2">
     <g id="line2d_15">
      <path clip-path="url(#p6fbdf8e7af)" d="M 90 537.67423 
L 648 537.67423 
" style="fill:none;stroke:#cccccc;stroke-linecap:round;stroke-width:0.8;"/>
     </g>
     <g id="line2d_16"/>
     <g id="text_8">
      <!-- 5000 -->
      <g style="fill:#262626;" transform="translate(61.05 541.473449)scale(0.1 -0.1)">
       <use xlink:href="#DejaVuSans-53"/>
       <use x="63.623047" xlink:href="#DejaVuSans-48"/>
       <use x="127.246094" xlink:href="#DejaVuSans-48"/>
       <use x="190.869141" xlink:href="#DejaVuSans-48"/>
      </g>
     </g>
    </g>
    <g id="ytick_3">
     <g id="line2d_17">
      <path clip-path="url(#p6fbdf8e7af)" d="M 90 459.732871 
L 648 459.732871 
" style="fill:none;stroke:#cccccc;stroke-linecap:round;stroke-width:0.8;"/>
     </g>
     <g id="line2d_18"/>
     <g id="text_9">
      <!-- 10000 -->
      <g style="fill:#262626;" transform="translate(54.6875 463.53209)scale(0.1 -0.1)">
       <use xlink:href="#DejaVuSans-49"/>
       <use x="63.623047" xlink:href="#DejaVuSans-48"/>
       <use x="127.246094" xlink:href="#DejaVuSans-48"/>
       <use x="190.869141" xlink:href="#DejaVuSans-48"/>
       <use x="254.492188" xlink:href="#DejaVuSans-48"/>
      </g>
     </g>
    </g>
    <g id="ytick_4">
     <g id="line2d_19">
      <path clip-path="url(#p6fbdf8e7af)" d="M 90 381.791513 
L 648 381.791513 
" style="fill:none;stroke:#cccccc;stroke-linecap:round;stroke-width:0.8;"/>
     </g>
     <g id="line2d_20"/>
     <g id="text_10">
      <!-- 15000 -->
      <g style="fill:#262626;" transform="translate(54.6875 385.590732)scale(0.1 -0.1)">
       <use xlink:href="#DejaVuSans-49"/>
       <use x="63.623047" xlink:href="#DejaVuSans-53"/>
       <use x="127.246094" xlink:href="#DejaVuSans-48"/>
       <use x="190.869141" xlink:href="#DejaVuSans-48"/>
       <use x="254.492188" xlink:href="#DejaVuSans-48"/>
      </g>
     </g>
    </g>
    <g id="ytick_5">
     <g id="line2d_21">
      <path clip-path="url(#p6fbdf8e7af)" d="M 90 303.850155 
L 648 303.850155 
" style="fill:none;stroke:#cccccc;stroke-linecap:round;stroke-width:0.8;"/>
     </g>
     <g id="line2d_22"/>
     <g id="text_11">
      <!-- 20000 -->
      <g style="fill:#262626;" transform="translate(54.6875 307.649373)scale(0.1 -0.1)">
       <use xlink:href="#DejaVuSans-50"/>
       <use x="63.623047" xlink:href="#DejaVuSans-48"/>
       <use x="127.246094" xlink:href="#DejaVuSans-48"/>
       <use x="190.869141" xlink:href="#DejaVuSans-48"/>
       <use x="254.492188" xlink:href="#DejaVuSans-48"/>
      </g>
     </g>
    </g>
    <g id="ytick_6">
     <g id="line2d_23">
      <path clip-path="url(#p6fbdf8e7af)" d="M 90 225.908796 
L 648 225.908796 
" style="fill:none;stroke:#cccccc;stroke-linecap:round;stroke-width:0.8;"/>
     </g>
     <g id="line2d_24"/>
     <g id="text_12">
      <!-- 25000 -->
      <g style="fill:#262626;" transform="translate(54.6875 229.708015)scale(0.1 -0.1)">
       <use xlink:href="#DejaVuSans-50"/>
       <use x="63.623047" xlink:href="#DejaVuSans-53"/>
       <use x="127.246094" xlink:href="#DejaVuSans-48"/>
       <use x="190.869141" xlink:href="#DejaVuSans-48"/>
       <use x="254.492188" xlink:href="#DejaVuSans-48"/>
      </g>
     </g>
    </g>
    <g id="ytick_7">
     <g id="line2d_25">
      <path clip-path="url(#p6fbdf8e7af)" d="M 90 147.967438 
L 648 147.967438 
" style="fill:none;stroke:#cccccc;stroke-linecap:round;stroke-width:0.8;"/>
     </g>
     <g id="line2d_26"/>
     <g id="text_13">
      <!-- 30000 -->
      <defs>
       <path d="M 40.578125 39.3125 
Q 47.65625 37.796875 51.625 33 
Q 55.609375 28.21875 55.609375 21.1875 
Q 55.609375 10.40625 48.1875 4.484375 
Q 40.765625 -1.421875 27.09375 -1.421875 
Q 22.515625 -1.421875 17.65625 -0.515625 
Q 12.796875 0.390625 7.625 2.203125 
L 7.625 11.71875 
Q 11.71875 9.328125 16.59375 8.109375 
Q 21.484375 6.890625 26.8125 6.890625 
Q 36.078125 6.890625 40.9375 10.546875 
Q 45.796875 14.203125 45.796875 21.1875 
Q 45.796875 27.640625 41.28125 31.265625 
Q 36.765625 34.90625 28.71875 34.90625 
L 20.21875 34.90625 
L 20.21875 43.015625 
L 29.109375 43.015625 
Q 36.375 43.015625 40.234375 45.921875 
Q 44.09375 48.828125 44.09375 54.296875 
Q 44.09375 59.90625 40.109375 62.90625 
Q 36.140625 65.921875 28.71875 65.921875 
Q 24.65625 65.921875 20.015625 65.03125 
Q 15.375 64.15625 9.8125 62.3125 
L 9.8125 71.09375 
Q 15.4375 72.65625 20.34375 73.4375 
Q 25.25 74.21875 29.59375 74.21875 
Q 40.828125 74.21875 47.359375 69.109375 
Q 53.90625 64.015625 53.90625 55.328125 
Q 53.90625 49.265625 50.4375 45.09375 
Q 46.96875 40.921875 40.578125 39.3125 
z
" id="DejaVuSans-51"/>
      </defs>
      <g style="fill:#262626;" transform="translate(54.6875 151.766657)scale(0.1 -0.1)">
       <use xlink:href="#DejaVuSans-51"/>
       <use x="63.623047" xlink:href="#DejaVuSans-48"/>
       <use x="127.246094" xlink:href="#DejaVuSans-48"/>
       <use x="190.869141" xlink:href="#DejaVuSans-48"/>
       <use x="254.492188" xlink:href="#DejaVuSans-48"/>
      </g>
     </g>
    </g>
   </g>
   <g id="line2d_27">
    <path clip-path="url(#p6fbdf8e7af)" d="M 115.363636 615.6 
L 116.997088 615.459706 
L 117.003021 615.428529 
L 118.045039 615.334999 
L 119.704813 615.194705 
L 119.813996 615.163528 
L 120.673866 615.038822 
L 120.75755 614.992057 
L 122.983838 614.851763 
L 124.172534 614.664704 
L 126.102183 614.493233 
L 126.130938 614.352938 
L 127.039134 614.212644 
L 127.083304 614.150291 
L 129.582919 613.744996 
L 129.606749 613.713819 
L 130.983271 613.573525 
L 131.982395 613.402054 
L 133.615107 613.043523 
L 133.668312 612.996759 
L 135.943427 612.560287 
L 136.20437 612.513522 
L 137.081224 612.388816 
L 137.150825 612.295286 
L 140.175299 611.90558 
L 143.690559 611.079401 
L 143.778863 611.032636 
L 144.350934 610.876754 
L 144.427906 610.767636 
L 145.372115 610.64293 
L 146.761555 610.409106 
L 146.867967 610.362341 
L 147.716577 610.175281 
L 148.895409 610.034987 
L 149.299473 609.894693 
L 149.30584 609.863516 
L 150.217623 609.707633 
L 150.740321 609.473809 
L 150.795779 609.395868 
L 152.426466 609.162044 
L 152.43102 609.146456 
L 153.346161 608.959396 
L 153.41677 608.850278 
L 156.905672 608.102041 
L 156.90593 608.086453 
L 157.077851 607.961747 
L 157.790254 607.759099 
L 158.519191 607.634393 
L 158.535377 607.462922 
L 158.962668 607.322628 
L 159.005691 607.275863 
L 159.929048 607.088804 
L 159.941536 606.964097 
L 160.176216 606.839391 
L 160.185104 606.527626 
L 160.421472 606.40292 
L 160.467864 606.356155 
L 160.835482 606.200272 
L 161.046613 606.028801 
L 161.588675 605.904095 
L 161.830889 605.826154 
L 163.298147 605.701447 
L 165.111828 605.342917 
L 165.113204 605.296152 
L 165.785847 605.124681 
L 165.830599 605.04674 
L 166.577707 604.922034 
L 166.928745 604.781739 
L 167.243025 604.469974 
L 168.340881 604.251738 
L 168.441711 604.095855 
L 168.858978 603.924385 
L 169.066003 603.862031 
L 169.177639 603.799678 
L 169.805259 603.674972 
L 169.861857 603.550266 
L 170.047843 603.144971 
L 170.265001 603.020265 
L 170.597232 602.770852 
L 171.647788 602.42791 
L 171.764935 602.225263 
L 171.888216 602.100557 
L 172.45721 601.508202 
L 173.112879 601.35232 
L 173.554475 601.087319 
L 173.578503 600.947025 
L 173.86406 600.80673 
L 174.028854 600.650847 
L 174.124942 600.604083 
L 174.978237 600.479376 
L 175.004282 600.432612 
L 175.193822 600.307905 
L 175.27218 600.229964 
L 175.519641 600.074081 
L 175.673288 599.90261 
L 176.65063 599.699963 
L 176.743611 599.668786 
L 177.071244 599.512904 
L 177.17091 599.434962 
L 177.370757 599.247903 
L 177.529306 599.045255 
L 177.990873 598.920549 
L 178.097215 598.73349 
L 178.462677 598.421725 
L 178.559241 598.28143 
L 178.87201 598.141136 
L 178.928875 598.032018 
L 179.602201 597.907312 
L 179.903631 597.37731 
L 179.946724 597.283781 
L 180.071783 597.143486 
L 180.201979 596.847309 
L 180.332519 596.707015 
L 180.44897 596.582309 
L 180.598385 596.442014 
L 180.614063 596.364073 
L 181.247649 596.223778 
L 181.317537 595.958778 
L 181.518455 595.818483 
L 181.564115 595.709365 
L 181.74348 595.584659 
L 182.066048 595.101423 
L 182.232025 594.976717 
L 182.301375 594.914363 
L 182.919935 594.742892 
L 183.000031 594.524657 
L 183.132855 594.399951 
L 183.394866 594.04142 
L 183.428894 593.901126 
L 183.601019 593.760831 
L 183.760312 593.542596 
L 183.872744 593.417889 
L 183.965382 593.277595 
L 184.540464 593.137301 
L 184.675488 592.96583 
L 184.831386 592.809947 
L 184.971279 592.560534 
L 185.309568 592.264357 
L 185.499507 592.108475 
L 185.712955 592.014945 
L 186.450245 591.890239 
L 186.661963 591.51612 
L 186.918886 591.266708 
L 186.988517 591.110825 
L 187.142269 590.986119 
L 187.195982 590.908178 
L 187.865632 590.767883 
L 188.371521 590.487294 
L 188.595439 590.284647 
L 188.654003 590.206705 
L 188.78748 590.066411 
L 188.853704 589.89494 
L 189.490614 589.723469 
L 189.79766 589.364939 
L 190.171885 589.224644 
L 190.244066 588.959644 
L 190.477054 588.788173 
L 190.489507 588.772584 
L 191.101447 588.647878 
L 192.133954 587.525523 
L 192.742381 587.354052 
L 193.327213 586.668168 
L 193.47835 586.481108 
L 193.600717 586.247284 
L 193.764532 586.10699 
L 193.767942 586.091402 
L 194.434098 585.919931 
L 194.51567 585.701695 
L 194.842207 585.545812 
L 195.009739 585.374341 
L 195.150781 585.249635 
L 195.949003 584.969046 
L 196.053648 584.84434 
L 196.155446 584.672869 
L 196.319729 584.548163 
L 196.349646 584.423457 
L 196.745074 584.283162 
L 196.855643 584.096103 
L 197.098385 583.815514 
L 197.767478 583.690808 
L 198.202293 583.472572 
L 198.262553 583.347866 
L 198.436393 583.207571 
L 198.527846 583.004924 
L 199.335723 582.7711 
L 199.442173 582.506099 
L 199.611973 582.381393 
L 199.915796 581.991686 
L 200.082774 581.711097 
L 200.184458 581.601979 
L 200.296053 581.477273 
L 200.451336 581.336979 
L 200.982813 581.087566 
L 201.032981 580.978449 
L 201.22354 580.838154 
L 201.484847 580.557565 
L 201.595288 580.432859 
L 201.860293 580.276976 
L 201.967309 580.136682 
L 202.034807 579.949623 
L 202.639645 579.809328 
L 202.721522 579.653446 
L 202.896041 579.528739 
L 202.996312 579.34168 
L 203.128853 579.170209 
L 203.221619 579.061091 
L 203.373509 578.936385 
L 203.485438 578.796091 
L 203.629103 578.655796 
L 203.705349 578.515502 
L 204.514941 578.297266 
L 204.585072 578.156971 
L 204.739776 578.032265 
L 204.817182 577.767265 
L 204.983148 577.611382 
L 205.064089 577.424323 
L 205.217553 577.26844 
L 205.322516 577.050204 
L 205.929554 576.894321 
L 206.203449 576.582556 
L 206.319786 576.348732 
L 206.495774 576.146084 
L 206.582273 576.083731 
L 207.197853 575.91226 
L 207.576758 575.787554 
L 207.637106 575.538142 
L 207.852369 575.413436 
L 207.947147 575.304318 
L 208.040433 575.179612 
L 208.166158 574.556081 
L 208.263581 574.415786 
L 208.381457 574.228727 
L 208.554644 574.010491 
L 208.766175 573.870197 
L 209.234349 573.636373 
L 210.275389 572.358134 
L 210.883264 572.233428 
L 211.132805 572.108722 
L 211.502955 571.937251 
L 211.629958 571.781368 
L 211.630562 571.719015 
L 211.785418 571.594309 
L 211.908936 571.391662 
L 212.466556 571.266955 
L 212.778876 571.001955 
L 213.026324 570.877249 
L 213.100177 570.783719 
L 213.249595 570.643424 
L 213.344174 570.4096 
L 213.4785 570.269306 
L 213.545498 570.222541 
L 214.124859 570.097835 
L 214.848701 569.614599 
L 215.126193 569.474304 
L 215.198809 569.411951 
L 215.740115 569.256068 
L 215.859726 569.100186 
L 216.20106 568.866361 
L 216.477084 568.616949 
L 216.540371 568.492243 
L 216.740006 568.33636 
L 216.822529 568.289595 
L 217.28529 568.164889 
L 217.380566 568.009007 
L 217.498566 567.837536 
L 217.602276 567.744006 
L 217.880609 567.354299 
L 217.95894 567.16724 
L 218.173534 566.949004 
L 218.284371 566.793121 
L 218.399223 566.652827 
L 218.417081 566.62165 
L 219.05496 566.465768 
L 219.291061 566.231944 
L 219.344595 566.076061 
L 219.426143 564.797823 
L 219.5785 564.673116 
L 219.692055 563.800173 
L 219.791507 563.659879 
L 219.879501 563.394878 
L 220.657342 563.176642 
L 221.288494 562.506347 
L 221.612886 562.350464 
L 221.703996 562.163405 
L 222.439304 562.02311 
L 222.780853 561.882816 
L 222.887086 561.726933 
L 223.326395 561.508697 
L 224.24252 561.041049 
L 224.527957 560.620166 
L 224.689184 560.464283 
L 225.030015 560.090165 
L 225.6688 559.903105 
L 226.022627 559.544575 
L 226.145326 559.404281 
L 226.296765 559.357516 
L 226.418969 559.23281 
L 226.496522 559.123692 
L 226.634646 558.983397 
L 226.731072 558.921044 
L 227.300033 558.749573 
L 227.391311 558.624867 
L 227.615156 558.344278 
L 227.705382 558.250748 
L 227.789094 558.126042 
L 227.874926 557.689571 
L 228.270488 557.346629 
L 228.325406 557.206334 
L 228.952185 557.081628 
L 229.701156 555.990449 
L 229.798038 555.818978 
L 229.882166 555.678684 
L 230.107593 555.476036 
L 230.123173 555.44486 
L 230.625576 555.320153 
L 230.780544 555.164271 
L 231.026673 554.946035 
L 231.355688 554.478387 
L 231.553379 554.197798 
L 231.626805 554.026327 
L 232.198778 553.854856 
L 232.467867 553.496326 
L 232.66565 552.981913 
L 233.156813 552.638971 
L 233.328619 552.405147 
L 233.865548 552.202499 
L 234.937668 550.706025 
L 235.633491 550.503377 
L 235.704092 550.363083 
L 235.987379 550.191612 
L 236.334939 549.926611 
L 236.731991 549.661611 
L 237.146226 549.49014 
L 237.301923 549.287492 
L 237.449913 549.178374 
L 237.724649 549.022492 
L 237.801362 548.928962 
L 238.119177 548.757491 
L 238.188334 548.617197 
L 238.819584 548.49249 
L 238.928789 548.445726 
L 239.156962 548.211902 
L 239.415661 548.071607 
L 239.647427 547.86896 
L 239.808936 547.650724 
L 240.119105 547.526018 
L 240.36014 547.385723 
L 240.471215 547.136311 
L 241.55401 546.434839 
L 242.019606 546.310132 
L 242.256277 545.920426 
L 242.636998 545.452777 
L 242.711778 545.25013 
L 242.843316 545.125424 
L 242.917022 544.969541 
L 243.105403 544.813658 
L 243.193462 544.70454 
L 244.20278 544.205716 
L 244.517359 543.862774 
L 245.312849 543.597773 
L 245.424857 543.473067 
L 245.610595 543.067772 
L 246.673688 542.350711 
L 247.037516 542.226005 
L 247.309522 542.038946 
L 248.00944 541.82071 
L 248.950511 541.680416 
L 249.309391 541.493356 
L 250.307941 541.353062 
L 250.433239 541.212768 
L 252.017173 540.355413 
L 252.074448 540.215118 
L 252.264956 540.074824 
L 252.355293 539.996882 
L 252.94642 539.716293 
L 253.046317 539.591587 
L 254.089932 539.217469 
L 254.202165 539.092763 
L 254.334438 538.93688 
L 254.47642 538.531585 
L 254.585472 538.406879 
L 254.777663 538.157466 
L 255.2645 537.970407 
L 255.330332 537.720995 
L 255.495066 537.5807 
L 255.576994 537.362464 
L 255.856338 537.22217 
L 255.995705 537.050699 
L 256.639117 536.255697 
L 256.962427 535.912755 
L 257.055916 535.850402 
L 257.17924 535.663343 
L 257.260597 535.523048 
L 257.427509 535.382754 
L 257.536774 535.0554 
L 257.61598 534.915106 
L 257.720481 534.728047 
L 258.086303 534.260398 
L 258.594223 533.88628 
L 258.702071 533.636867 
L 258.982978 533.449808 
L 259.520195 531.859805 
L 259.611286 531.735098 
L 260.094752 531.532451 
L 260.217353 531.376568 
L 260.441682 531.189509 
L 260.555302 531.00245 
L 260.714169 530.830979 
L 260.825674 530.737449 
L 260.962256 530.597155 
L 261.049698 530.285389 
L 261.13829 530.129506 
L 261.284441 529.880094 
L 261.453805 529.7398 
L 261.500292 529.708623 
L 261.816405 529.568329 
L 263.044335 527.058617 
L 263.522863 526.76244 
L 264.135056 525.546554 
L 264.199827 525.390672 
L 264.498756 524.673611 
L 265.134737 524.283904 
L 265.254799 524.128022 
L 265.562679 523.940963 
L 265.713103 523.613609 
L 266.244194 522.740666 
L 266.767284 522.569195 
L 266.872516 522.319782 
L 267.05028 522.148311 
L 267.141137 521.992429 
L 267.232714 521.852134 
L 267.369946 521.758604 
L 267.511667 521.587133 
L 267.568078 521.057132 
L 267.754221 520.916838 
L 268.027045 520.729779 
L 268.45717 520.573896 
L 268.949505 520.246542 
L 269.133533 520.106248 
L 269.35482 519.934777 
L 270.52094 519.529482 
L 270.631107 519.326834 
L 270.988671 519.155363 
L 272.051971 518.609774 
L 272.181514 518.438303 
L 272.50847 518.110949 
L 272.663038 517.986243 
L 272.74135 517.83036 
L 273.518532 517.643301 
L 273.847672 517.393888 
L 273.937542 517.238006 
L 274.168249 517.004182 
L 274.180822 516.973005 
L 274.381224 516.832711 
L 274.983775 516.411827 
L 275.120191 516.193591 
L 275.245299 516.053297 
L 275.46972 515.66359 
L 276.237367 515.164766 
L 276.66995 515.024471 
L 276.725879 514.930941 
L 276.960611 514.790647 
L 277.181671 514.338587 
L 277.353929 514.260646 
L 277.62985 514.057998 
L 277.866031 513.980057 
L 278.31129 513.839762 
L 278.425337 513.761821 
L 278.559341 513.621527 
L 278.698169 513.574762 
L 279.270893 512.826525 
L 279.380936 512.732995 
L 279.816852 512.592701 
L 279.921173 512.467995 
L 280.183946 512.218582 
L 280.663836 511.735346 
L 280.76872 511.672993 
L 280.884279 511.548287 
L 280.925575 511.439169 
L 281.280316 511.298874 
L 281.366671 511.15858 
L 281.489889 510.987109 
L 281.603442 510.690932 
L 281.85837 510.005048 
L 281.941149 509.272399 
L 282.08784 509.100928 
L 282.234743 508.789162 
L 282.56252 508.415044 
L 282.615693 508.352691 
L 283.191935 508.103278 
L 283.437863 507.697983 
L 283.576191 507.308277 
L 283.833071 506.544451 
L 283.997177 506.310627 
L 284.111907 506.10798 
L 284.39505 505.468861 
L 284.619417 505.328566 
L 284.717275 505.188272 
L 285.003447 505.001212 
L 285.257918 504.642682 
L 285.333519 504.440035 
L 285.63651 503.660621 
L 286.098752 502.881207 
L 286.494256 502.67856 
L 286.602156 502.070617 
L 286.749043 501.945911 
L 286.796562 501.649734 
L 286.973964 501.353557 
L 287.03259 501.119733 
L 287.124296 500.96385 
L 287.202145 500.823556 
L 287.314298 500.480614 
L 287.991098 499.872671 
L 288.166464 499.576494 
L 288.490388 499.062081 
L 288.584696 498.906198 
L 288.91007 498.033255 
L 289.06929 497.892961 
L 289.225416 497.456489 
L 289.594489 497.285018 
L 289.694199 497.144723 
L 289.83449 496.910899 
L 289.955571 496.661487 
L 290.045191 496.536781 
L 290.149904 496.225015 
L 290.323889 495.897662 
L 290.604185 495.336484 
L 290.75555 495.133836 
L 290.880965 495.00913 
L 291.428579 494.681777 
L 291.466278 494.588247 
L 291.690302 494.447952 
L 292.523082 492.811184 
L 293.218054 492.624125 
L 294.072909 491.67324 
L 294.123275 491.579711 
L 294.717838 491.455004 
L 294.817573 491.236769 
L 295.008132 491.049709 
L 295.122965 490.95618 
L 295.267426 490.722356 
L 295.413288 490.535296 
L 295.666688 490.223531 
L 296.004442 490.067648 
L 296.27375 489.942942 
L 296.428082 489.69353 
L 296.66504 489.319411 
L 296.875635 489.007646 
L 296.990319 488.914116 
L 297.211194 488.711469 
L 297.405323 488.555586 
L 297.584128 488.493233 
L 298.034858 488.274997 
L 298.0849 488.150291 
L 298.471062 487.963231 
L 299.026048 487.52676 
L 299.645807 487.402054 
L 300.150155 486.778523 
L 300.28377 486.451169 
L 300.386691 486.326463 
L 300.499039 486.201757 
L 300.59472 486.045874 
L 300.671468 485.921168 
L 301.430844 485.640579 
L 301.544421 485.515873 
L 301.794882 485.313225 
L 302.370719 484.175281 
L 302.923543 483.988222 
L 303.637017 482.912631 
L 303.770707 482.600866 
L 303.873486 482.460572 
L 303.958373 482.11763 
L 304.377203 481.946159 
L 304.561998 481.805864 
L 304.60154 481.649981 
L 304.833166 481.291451 
L 304.975695 480.995274 
L 305.07202 480.85498 
L 305.177431 480.652332 
L 305.577001 479.904095 
L 306.277484 479.420859 
L 306.416545 478.95321 
L 306.485028 478.750563 
L 306.609685 478.360856 
L 306.722799 478.204973 
L 307.037575 477.456736 
L 307.116569 477.300854 
L 307.250269 476.926735 
L 307.319967 476.87997 
L 307.818721 476.739676 
L 307.92953 476.61497 
L 308.120457 476.381146 
L 308.246894 475.882321 
L 309.029955 474.463788 
L 309.42916 474.152023 
L 309.60747 473.731139 
L 309.784249 473.575257 
L 309.93162 473.450551 
L 310.00944 473.294668 
L 310.164962 473.09202 
L 311.700292 471.065545 
L 311.798316 470.956427 
L 311.896001 470.75378 
L 312.070602 470.457602 
L 312.16038 470.270543 
L 312.248725 470.192602 
L 312.790659 470.021131 
L 313.037716 469.693777 
L 313.197183 469.537894 
L 313.330905 469.272894 
L 313.544189 468.992305 
L 313.788897 468.820834 
L 314.003652 468.58701 
L 314.521469 468.431127 
L 314.723562 468.088185 
L 314.949669 467.215242 
L 315.030708 467.012594 
L 315.139866 466.934653 
L 315.434668 466.42024 
L 315.522654 466.248769 
L 315.709306 466.046121 
L 316.414493 465.51612 
L 316.614318 464.643177 
L 316.720817 463.879352 
L 316.842867 463.645528 
L 316.981869 463.380527 
L 317.062897 463.224644 
L 317.17379 462.866114 
L 317.280855 462.72582 
L 317.785939 462.507584 
L 318.517562 461.572288 
L 318.719517 461.416405 
L 318.802535 461.291699 
L 319.380803 461.089051 
L 319.467413 460.91758 
L 319.647507 460.777286 
L 319.717602 460.512285 
L 319.907481 460.340814 
L 320.008078 460.247284 
L 320.348205 459.904342 
L 320.447358 459.826401 
L 321.270088 459.093752 
L 322.108331 458.127279 
L 322.387118 457.986985 
L 322.926094 457.067277 
L 323.038768 456.833453 
L 323.148073 456.646394 
L 323.258673 456.490511 
L 323.369128 456.241099 
L 323.740651 455.726686 
L 324.27928 455.570803 
L 324.51614 455.290214 
L 324.639989 454.526389 
L 324.797233 454.2458 
L 325.322073 451.17491 
L 325.502017 451.034616 
L 325.582877 450.987851 
L 325.931003 450.847557 
L 326.022716 450.598144 
L 326.188943 450.348732 
L 326.273164 449.132847 
L 326.475822 448.992552 
L 326.60288 448.883434 
L 326.979128 448.758728 
L 327.628834 448.602845 
L 327.700721 448.493728 
L 327.829176 448.353433 
L 327.915482 448.088433 
L 328.087658 447.823432 
L 328.394983 446.701076 
L 328.475631 445.578721 
L 328.624222 445.391662 
L 328.846039 445.033131 
L 329.243522 444.892837 
L 329.297355 444.736954 
L 329.411579 444.50313 
L 329.532052 444.362836 
L 329.63572 443.988717 
L 329.754466 443.78607 
L 329.86664 443.193715 
L 330.547609 442.164889 
L 330.836432 442.009007 
L 330.942072 441.837536 
L 331.805862 440.995769 
L 331.927283 440.824298 
L 332.015263 440.793121 
L 332.536218 440.652827 
L 332.69375 440.496944 
L 332.932677 440.35665 
L 333.127725 440.200767 
L 333.272918 440.013708 
L 333.366978 439.655178 
L 334.42177 439.359 
L 335.064676 438.875764 
L 336.056486 438.688705 
L 336.366226 438.18988 
L 336.537431 438.065174 
L 336.57016 437.878115 
L 336.832323 437.753408 
L 336.85367 437.691055 
L 337.408701 437.535173 
L 337.529867 437.332525 
L 337.623864 437.238995 
L 337.806704 437.114289 
L 337.963412 436.786936 
L 338.732041 436.101052 
L 339.107841 435.976345 
L 339.212902 435.820463 
L 339.392354 435.66458 
L 339.915772 435.025461 
L 340.079799 434.869578 
L 340.2168 434.791637 
L 341.009 434.588989 
L 341.268139 434.292812 
L 341.279853 433.809576 
L 341.329762 433.653693 
L 341.486725 433.528987 
L 341.603396 433.388692 
L 342.31348 433.108103 
L 342.360926 432.671632 
L 342.649722 432.500161 
L 342.769699 432.422219 
L 343.910919 431.87663 
L 344.109575 431.751924 
L 344.21822 431.627218 
L 344.309539 431.471335 
L 344.362366 431.377805 
L 344.761163 431.190746 
L 344.898295 430.97251 
L 345.030581 430.832216 
L 345.136427 430.61398 
L 345.339293 430.458097 
L 345.794742 430.317803 
L 345.907076 430.177508 
L 346.192715 429.818978 
L 346.693506 429.366918 
L 346.949187 429.242212 
L 347.021343 429.195447 
L 347.431176 429.039565 
L 348.009336 428.696623 
L 348.240269 428.416034 
L 348.60895 428.18221 
L 348.782907 428.104268 
L 349.073019 427.73015 
L 349.185484 427.356031 
L 349.331327 427.091031 
L 349.44446 426.810442 
L 349.79335 426.046616 
L 349.9136 425.890734 
L 349.967628 425.594556 
L 350.06863 424.908673 
L 350.443231 424.737202 
L 350.546386 424.565731 
L 350.585713 424.39426 
L 350.705405 423.162786 
L 351.129904 422.243078 
L 351.2014 422.087195 
L 351.414113 421.105134 
L 351.613941 420.60631 
L 351.73227 419.826896 
L 352.23276 419.655425 
L 352.276133 419.515131 
L 352.465131 417.597773 
L 352.51159 417.192478 
L 352.656337 416.880713 
L 352.733771 416.740418 
L 352.860401 416.413064 
L 353.025935 416.27277 
L 353.395103 415.664827 
L 353.874069 415.399827 
L 353.985014 414.932179 
L 354.128723 414.776296 
L 354.658574 414.261883 
L 354.768589 414.137177 
L 354.952957 413.996882 
L 355.584593 413.763058 
L 355.639725 413.685117 
L 355.794198 413.560411 
L 355.91671 413.435705 
L 356.176208 413.139527 
L 356.271601 413.045998 
L 356.579965 412.874527 
L 356.620437 412.84335 
L 357.183261 412.703056 
L 357.343115 412.531585 
L 357.939176 411.923642 
L 358.216821 411.798936 
L 358.84685 411.611877 
L 360.104306 410.583051 
L 360.702711 410.427168 
L 360.797304 410.31805 
L 361.102524 410.130991 
L 361.264502 409.897167 
L 361.467296 409.772461 
L 361.517812 409.351577 
L 362.129882 409.164518 
L 362.267954 408.759223 
L 362.381591 408.166869 
L 362.648662 407.870692 
L 362.759631 407.668044 
L 362.910273 407.512161 
L 363.071206 407.262749 
L 363.150913 407.013337 
L 363.972616 406.685983 
L 364.162036 406.545688 
L 364.402374 406.374217 
L 364.53637 406.000099 
L 364.684627 405.81304 
L 364.795344 405.111567 
L 365.471642 404.862155 
L 365.568005 404.753037 
L 365.76022 404.597155 
L 366.298103 403.786564 
L 366.412248 403.630682 
L 366.47327 403.505976 
L 367.101023 403.28774 
L 367.222694 403.022739 
L 367.341358 402.866856 
L 367.439769 402.773327 
L 367.656966 402.601856 
L 367.780769 402.523914 
L 367.877945 402.38362 
L 367.991951 400.731263 
L 368.631404 399.842732 
L 368.725736 399.686849 
L 368.871421 399.421848 
L 368.973671 399.281554 
L 369.083528 399.000965 
L 369.247278 398.704788 
L 369.303085 398.533317 
L 369.413402 398.408611 
L 369.541517 398.159198 
L 369.708359 397.956551 
L 369.779354 397.738315 
L 370.464001 397.395373 
L 370.556444 396.52243 
L 370.824643 396.210664 
L 370.85698 395.97684 
L 370.96796 395.540369 
L 371.060973 395.275368 
L 371.1951 391.47183 
L 371.299422 391.315947 
L 371.496713 390.817122 
L 371.604305 390.676828 
L 372.55598 389.071236 
L 372.654839 388.868588 
L 372.807999 388.572411 
L 372.916443 388.40094 
L 372.946365 388.260646 
L 373.212256 387.668291 
L 373.46621 387.247408 
L 373.695403 386.374465 
L 373.802876 385.626228 
L 373.919126 385.454757 
L 374.014083 385.220933 
L 374.14126 385.002697 
L 374.238246 384.690932 
L 374.257542 384.535049 
L 374.349493 384.425931 
L 374.400365 384.270048 
L 374.499466 383.319164 
L 374.571352 383.194458 
L 374.714223 382.63328 
L 375.12124 382.53975 
L 375.279998 382.383867 
L 375.465483 381.651219 
L 375.530198 381.526512 
L 375.685035 381.027688 
L 375.794321 380.871805 
L 375.904807 380.450922 
L 375.997336 380.310627 
L 376.108071 379.952097 
L 376.182267 379.796214 
L 376.293633 379.406507 
L 376.791022 378.549153 
L 376.944802 378.39327 
L 377.094761 378.065916 
L 377.199608 377.925622 
L 377.284361 377.691798 
L 377.374794 377.551503 
L 377.497718 377.208561 
L 377.691024 377.005914 
L 377.733706 376.927972 
L 377.845836 376.803266 
L 377.959541 376.429148 
L 378.185338 376.366795 
L 378.75456 376.179735 
L 378.806188 376.13297 
L 379.079311 375.992676 
L 379.345469 375.727675 
L 379.561181 375.602969 
L 379.654713 375.540616 
L 380.199032 375.291204 
L 380.307163 375.088556 
L 380.518278 374.932674 
L 380.643788 374.761203 
L 381.237266 374.106495 
L 381.855353 373.966201 
L 382.375319 372.952963 
L 382.563727 372.703551 
L 382.678981 372.53208 
L 382.906209 372.313844 
L 382.939782 372.267079 
L 383.487204 372.126785 
L 383.63182 371.892961 
L 383.845376 371.752666 
L 384.004151 371.472077 
L 384.127581 371.331783 
L 384.285646 371.207077 
L 384.385209 371.08237 
L 384.931769 370.770605 
L 385.136719 370.645899 
L 385.323942 370.287369 
L 385.553116 370.100309 
L 386.42074 368.993542 
L 386.774263 368.837659 
L 386.883829 368.541482 
L 387.196313 368.260893 
L 387.304846 368.136187 
L 387.521431 367.621774 
L 387.632539 367.341185 
L 388.026455 367.045008 
L 388.460778 366.842361 
L 388.818516 366.296771 
L 389.663355 365.532946 
L 390.112529 365.361475 
L 390.170239 365.267945 
L 390.340514 365.143239 
L 390.45454 364.971768 
L 390.689842 364.76912 
L 390.963863 364.31706 
L 391.124472 363.942942 
L 391.392405 363.69353 
L 391.713415 363.537647 
L 392.65906 362.508821 
L 393.361636 361.324112 
L 393.468522 361.16823 
L 393.825811 360.466757 
L 394.157506 359.889991 
L 394.261719 359.45352 
L 395.25025 358.798812 
L 396.195604 357.707633 
L 396.581779 357.536162 
L 396.683159 357.364691 
L 396.975347 356.959396 
L 397.087959 356.787925 
L 397.884699 355.914982 
L 397.969313 355.291451 
L 398.330015 355.057627 
L 398.479188 354.870568 
L 398.589068 354.730273 
L 398.708145 354.418508 
L 398.854901 354.231449 
L 398.95019 353.904095 
L 399.128536 353.763801 
L 399.635132 353.420859 
L 399.998631 353.280564 
L 400.431856 352.906446 
L 400.523588 352.766151 
L 400.665135 352.625857 
L 400.78785 352.376444 
L 401.146472 352.095855 
L 401.556786 351.955561 
L 401.616321 351.78409 
L 401.920386 351.643796 
L 402.21916 351.285265 
L 402.398471 351.06703 
L 402.632063 350.817617 
L 403.238666 350.61497 
L 403.33234 350.443499 
L 403.511359 350.272028 
L 403.642139 350.053792 
L 403.864907 349.726438 
L 404.438181 348.869083 
L 404.803121 348.635259 
L 404.925736 348.494965 
L 405.275175 348.120846 
L 405.394247 347.90261 
L 405.636137 347.54408 
L 405.753219 347.419374 
L 405.932198 347.18555 
L 406.497146 346.951726 
L 406.51818 346.764667 
L 406.628032 345.579958 
L 406.663666 345.252604 
L 406.761645 345.096722 
L 407.013386 344.691426 
L 407.148342 344.519955 
L 407.623338 343.958778 
L 408.190967 343.787307 
L 408.296751 343.194952 
L 408.510639 342.914363 
L 409.238431 342.088185 
L 409.650815 341.901126 
L 409.795434 341.714067 
L 409.907902 341.620537 
L 410.742014 340.451417 
L 410.954524 340.295534 
L 411.387906 339.874651 
L 411.790319 339.282296 
L 411.900774 338.767883 
L 412.075716 338.409353 
L 412.311317 338.128764 
L 413.048148 337.926117 
L 413.137474 337.770234 
L 413.544507 337.396115 
L 413.701432 337.271409 
L 414.054751 336.866114 
L 414.113965 336.788173 
L 414.802305 336.554349 
L 414.982391 336.398466 
L 415.209398 336.226995 
L 415.771105 335.884053 
L 416.473733 335.478758 
L 416.508419 335.400817 
L 416.750935 335.27611 
L 416.762955 334.995521 
L 416.867339 334.652579 
L 418.118536 332.704046 
L 418.247027 332.423457 
L 418.354043 332.174044 
L 418.430653 332.142868 
L 418.598397 331.955808 
L 418.70789 331.768749 
L 418.814229 331.612867 
L 419.065793 331.269925 
L 419.124047 331.051689 
L 419.831184 330.833453 
L 420.103954 330.365805 
L 420.168581 330.241099 
L 420.281875 329.679921 
L 420.497013 329.290214 
L 421.566613 328.60433 
L 421.637562 327.949623 
L 421.750106 327.544328 
L 421.824472 327.404033 
L 422.915432 325.502264 
L 422.986998 325.346381 
L 423.146439 325.003439 
L 423.612103 324.45785 
L 423.696141 323.974613 
L 424.025422 323.694024 
L 424.188327 323.397847 
L 424.376493 323.257553 
L 424.496742 322.992552 
L 425.679954 320.623135 
L 426.158137 320.389311 
L 426.261286 320.249016 
L 426.276447 320.030781 
L 426.389978 318.86166 
L 426.646203 318.316071 
L 426.763554 318.160188 
L 427.285778 317.489892 
L 427.396875 317.380774 
L 427.569065 317.131362 
L 427.669806 316.320772 
L 427.923222 316.07136 
L 428.133749 315.806359 
L 428.828378 314.839886 
L 428.932645 314.652827 
L 429.116617 314.574886 
L 429.508485 314.450179 
L 429.652667 314.154002 
L 429.887583 313.873413 
L 430.689609 312.782234 
L 430.992921 312.64194 
L 431.076467 312.517234 
L 431.187292 311.410466 
L 432.37992 303.148682 
L 432.563375 302.868094 
L 432.917289 301.574267 
L 433.026758 300.997501 
L 433.126272 300.638971 
L 433.234737 300.202499 
L 433.344853 299.859557 
L 433.464637 299.360732 
L 433.554195 299.080144 
L 433.663658 298.222789 
L 433.73328 297.864258 
L 433.842784 296.928962 
L 433.882557 296.663961 
L 433.992022 295.541606 
L 434.061683 295.22984 
L 434.171146 294.013955 
L 434.290557 293.1566 
L 434.400029 291.89395 
L 434.42988 291.644538 
L 434.540521 290.303947 
L 434.579152 289.992181 
L 434.688628 288.698355 
L 434.71848 288.448942 
L 434.82794 287.217469 
L 434.857795 286.968056 
L 434.968402 285.643053 
L 435.046869 285.284523 
L 435.156338 284.629816 
L 435.414993 283.819226 
L 435.701304 283.460695 
L 435.785412 283.382754 
L 436.03164 283.226871 
L 436.431771 282.946282 
L 436.585328 282.821576 
L 436.90317 282.556576 
L 437.027 282.307163 
L 437.106609 281.979809 
L 437.216086 281.34069 
L 437.285732 281.028925 
L 437.395201 280.608042 
L 437.444958 280.327453 
L 437.554426 279.968922 
L 437.624084 279.657157 
L 437.733552 279.158332 
L 437.793255 278.862155 
L 437.933032 277.786564 
L 438.041962 276.368032 
L 438.211999 275.900384 
L 438.549431 275.57303 
L 438.65521 275.4795 
L 438.740907 275.292441 
L 439.066925 275.089793 
L 439.405276 274.793616 
L 439.52657 274.497439 
L 439.724723 274.279203 
L 440.261842 273.421848 
L 440.409977 273.250377 
L 440.708911 273.04773 
L 441.033701 272.907435 
L 441.143262 272.704788 
L 442.360849 271.23949 
L 442.677833 271.005666 
L 442.812596 270.615959 
L 443.01623 270.444488 
L 443.06279 270.397724 
L 443.25842 270.273017 
L 443.373201 270.148311 
L 443.609616 269.945664 
L 443.721164 269.867722 
L 443.83367 269.805369 
L 444.032696 269.649487 
L 444.142164 269.368898 
L 444.264996 269.135074 
L 444.443127 268.932426 
L 444.727072 268.776543 
L 444.836459 268.698602 
L 445.609759 267.373599 
L 445.711204 267.295658 
L 446.108301 266.765656 
L 446.547872 266.142125 
L 446.704457 266.001831 
L 447.219887 265.269182 
L 447.562885 265.1133 
L 447.778486 264.832711 
L 447.971884 264.645651 
L 448.13357 264.427416 
L 448.840141 263.554472 
L 449.331459 263.273883 
L 449.550391 263.164766 
L 449.914355 262.868588 
L 450.485839 262.276234 
L 450.873937 262.13594 
L 451.699919 261.029172 
L 451.809382 260.87329 
L 452.048163 260.561524 
L 452.386511 260.358877 
L 452.985308 259.42358 
L 453.25218 259.252109 
L 453.351697 258.940344 
L 453.651222 258.70652 
L 453.72204 258.659755 
L 454.080966 258.519461 
L 454.292434 258.25446 
L 454.642809 258.036224 
L 454.885183 257.740047 
L 455.033916 257.521811 
L 455.153037 257.319164 
L 455.226631 257.132104 
L 455.461213 256.99181 
L 456.828671 255.931807 
L 456.919001 255.604454 
L 457.484383 255.121217 
L 457.609986 254.637981 
L 457.907135 253.983274 
L 458.000129 253.842979 
L 458.108409 253.593567 
L 458.310714 253.390919 
L 458.457291 253.172683 
L 459.222747 252.673859 
L 459.330896 252.595917 
L 459.56447 252.424446 
L 459.630755 252.29974 
L 459.799933 252.175034 
L 459.904336 252.019151 
L 460.128335 251.769739 
L 460.227771 251.613856 
L 461.095446 251.380032 
L 461.28495 251.115032 
L 461.382069 250.990325 
L 461.487021 250.725325 
L 461.571141 250.553854 
L 461.654121 250.288853 
L 461.790407 250.117382 
L 461.919444 250.039441 
L 462.407056 249.77444 
L 462.753986 249.447086 
L 462.834685 249.244439 
L 462.910145 249.041791 
L 463.153128 248.901497 
L 463.468047 248.589732 
L 463.77012 248.418261 
L 464.059845 248.106495 
L 464.184956 247.981789 
L 464.28798 247.872671 
L 464.542759 247.654435 
L 464.689885 247.514141 
L 464.805063 247.327082 
L 464.897549 247.280317 
L 465.001827 247.140022 
L 465.113476 246.937375 
L 465.887668 246.34502 
L 466.018257 246.173549 
L 466.713808 245.487665 
L 466.752002 245.394136 
L 467.203269 245.222665 
L 467.544924 244.848546 
L 468.078163 244.521193 
L 468.506858 244.053544 
L 468.865868 243.897662 
L 469.422129 243.414425 
L 469.772197 243.165013 
L 470.089142 242.806483 
L 470.288165 242.6506 
L 470.623873 242.354423 
L 470.735914 242.260893 
L 471.160753 241.762069 
L 471.375381 241.606186 
L 471.461553 241.48148 
L 471.711157 241.232067 
L 471.817923 241.091773 
L 472.168918 240.920302 
L 472.380465 240.702066 
L 472.47018 240.57736 
L 472.631178 240.421477 
L 473.275202 239.548534 
L 473.407306 239.299122 
L 473.770756 239.049709 
L 473.830465 238.909415 
L 473.939933 238.363825 
L 474.17079 238.098825 
L 474.391908 237.911765 
L 474.506822 237.740294 
L 474.771433 237.381764 
L 474.885363 237.257058 
L 475.837835 236.493233 
L 476.112426 236.274997 
L 476.696527 235.807349 
L 476.805987 235.744996 
L 477.976009 234.700581 
L 478.161677 234.419993 
L 478.960916 233.843227 
L 479.144038 233.687344 
L 479.366447 233.422343 
L 479.606832 233.204107 
L 479.821155 232.90793 
L 481.031271 231.832339 
L 481.119178 231.769986 
L 481.340015 231.567339 
L 481.448964 231.489398 
L 481.522676 231.317927 
L 481.553324 231.255573 
L 481.831083 231.115279 
L 481.930491 231.052926 
L 482.194495 230.897043 
L 483.484003 229.66557 
L 483.852141 229.447334 
L 483.962792 229.353804 
L 484.149716 229.135568 
L 484.255092 229.010862 
L 484.405609 228.839391 
L 484.776343 228.496449 
L 484.946127 228.40292 
L 485.405347 228.247037 
L 485.527649 228.106743 
L 485.84845 227.935272 
L 485.995446 227.763801 
L 486.373051 227.529976 
L 487.647876 226.812916 
L 487.748078 226.657033 
L 488.906419 225.87762 
L 489.161141 225.612619 
L 489.38991 225.42556 
L 490.016858 224.87997 
L 490.4182 224.552617 
L 490.533582 224.349969 
L 490.617449 224.178498 
L 490.73058 224.06938 
L 490.848681 223.929086 
L 491.041861 223.554967 
L 491.316518 223.289967 
L 491.559333 222.759965 
L 491.900096 222.604083 
L 492.037013 222.339082 
L 492.882798 221.403786 
L 492.992331 221.247903 
L 493.231076 220.998491 
L 493.320639 220.873784 
L 493.509798 220.63996 
L 493.763274 220.499666 
L 494.160233 220.203489 
L 494.680274 219.751429 
L 494.793465 219.626723 
L 494.912879 219.439663 
L 495.012695 219.283781 
L 496.385673 218.052307 
L 496.475143 217.958778 
L 496.8949 217.802895 
L 497.007838 217.709365 
L 497.676803 217.366423 
L 498.056146 216.898775 
L 498.150731 216.758481 
L 498.226454 216.664951 
L 498.578052 216.524657 
L 499.235323 216.103773 
L 499.81079 215.433478 
L 500.174561 215.262007 
L 500.408771 215.059359 
L 500.958903 214.685241 
L 501.211824 214.42024 
L 501.647028 214.155239 
L 502.015297 213.843474 
L 502.108881 213.70318 
L 502.604601 213.484944 
L 502.883241 213.204355 
L 503.281296 213.017296 
L 504.256098 212.113176 
L 504.36259 212.004058 
L 504.564821 211.785822 
L 504.746854 211.692292 
L 505.111908 211.520821 
L 505.221377 211.474057 
L 505.67914 211.286997 
L 506.060011 211.037585 
L 506.216531 210.866114 
L 506.296134 210.616702 
L 506.634491 210.414054 
L 507.597978 209.790523 
L 507.707617 209.556699 
L 507.808769 209.416405 
L 508.460427 208.964345 
L 508.560937 208.543462 
L 512.423588 205.67522 
L 512.505315 205.550513 
L 512.602459 205.410219 
L 512.7811 205.176395 
L 512.941631 205.051689 
L 513.648294 204.396981 
L 513.978913 204.069628 
L 514.213487 203.913745 
L 514.444439 203.633156 
L 514.555944 203.524038 
L 514.93322 203.336979 
L 515.332754 202.900507 
L 515.823746 202.526389 
L 515.988325 202.386094 
L 516.47982 202.105505 
L 516.572776 201.965211 
L 516.91755 201.778152 
L 517.376471 201.404033 
L 517.483142 201.294915 
L 517.625252 201.154621 
L 517.923787 200.936385 
L 518.311912 200.796091 
L 518.59994 200.53109 
L 518.741792 200.328442 
L 519.039182 200.07903 
L 519.260134 199.814029 
L 519.555716 199.486676 
L 520.286284 198.987851 
L 520.504629 198.72285 
L 520.756514 198.489026 
L 521.218367 198.146084 
L 521.707537 197.91226 
L 522.033764 197.475789 
L 522.142985 197.288729 
L 522.341013 197.054905 
L 522.587292 196.415786 
L 522.859214 196.19755 
L 522.98858 196.150786 
L 523.280399 195.979315 
L 523.391096 195.901373 
L 523.531221 195.745491 
L 524.200945 195.184313 
L 525.380937 194.358134 
L 525.443955 194.280193 
L 525.685152 194.093134 
L 525.776161 193.843721 
L 525.937538 193.67225 
L 526.013343 193.625486 
L 526.51912 193.40725 
L 526.61252 193.282544 
L 527.322277 192.768131 
L 527.590882 192.425189 
L 527.683677 192.378424 
L 528.296155 192.129012 
L 528.975401 191.443128 
L 529.049922 191.256068 
L 529.526196 190.991068 
L 529.632067 190.819597 
L 529.993982 190.570184 
L 530.741813 189.8843 
L 530.835451 189.712829 
L 531.718522 189.120475 
L 531.830124 189.026945 
L 531.94396 188.886651 
L 532.185225 188.62165 
L 532.26048 188.481356 
L 532.489146 188.060473 
L 533.495037 187.421353 
L 533.599272 187.359 
L 533.895879 187.062823 
L 534.042073 186.891352 
L 534.726984 186.501645 
L 534.843881 186.408116 
L 534.948616 186.28341 
L 535.542281 185.722232 
L 535.663324 185.410466 
L 536.179483 185.02076 
L 536.413796 184.864877 
L 536.529137 184.755759 
L 536.588843 184.599876 
L 536.668669 184.490758 
L 536.93475 184.272523 
L 537.019115 184.02311 
L 537.11628 183.617815 
L 537.682911 183.150167 
L 537.731295 183.087814 
L 538.027472 182.963108 
L 538.499382 182.557813 
L 538.707348 182.370753 
L 538.807692 182.199282 
L 538.948766 182.012223 
L 539.076215 181.825164 
L 539.654776 181.482222 
L 539.754008 181.295163 
L 540.061752 181.061339 
L 540.409362 180.811926 
L 540.51544 180.68722 
L 540.906373 180.500161 
L 541.384444 180.203984 
L 541.5252 180.110454 
L 543.769485 177.912508 
L 544.051924 177.70986 
L 544.259536 177.585154 
L 544.910412 177.2578 
L 545.414669 176.587505 
L 546.302639 176.057503 
L 546.409861 175.948386 
L 546.516899 175.901621 
L 547.273276 175.652208 
L 548.738891 174.623382 
L 549.325702 173.797204 
L 549.617853 173.641321 
L 549.736571 173.516615 
L 549.830352 173.391909 
L 549.967929 173.298379 
L 550.302514 173.080144 
L 550.848098 172.721613 
L 551.288364 172.596907 
L 551.523267 172.425436 
L 551.729825 172.222789 
L 552.579677 171.287492 
L 552.947823 171.100433 
L 553.106769 170.897785 
L 554.271609 170.056019 
L 554.559787 169.900136 
L 554.997593 169.494841 
L 555.384676 169.058369 
L 555.475463 168.902487 
L 555.573637 168.762192 
L 555.89307 168.653074 
L 556.266781 168.388074 
L 556.384554 168.232191 
L 556.909592 167.624248 
L 556.997494 167.468366 
L 557.256226 167.296895 
L 557.544815 167.000718 
L 557.812954 166.813658 
L 557.919845 166.642187 
L 558.340323 166.314834 
L 559.276098 165.473067 
L 559.736999 165.301596 
L 559.963763 165.021007 
L 560.182361 164.833948 
L 560.358574 164.72483 
L 560.939877 164.257182 
L 561.216241 164.023358 
L 561.536835 163.758357 
L 562.377715 163.212768 
L 562.749744 163.025708 
L 562.988034 162.698355 
L 563.437548 162.277471 
L 563.660292 161.965706 
L 563.765992 161.763058 
L 564.154081 161.560411 
L 564.678329 161.373351 
L 564.801452 161.233057 
L 565.566758 160.157466 
L 566.717076 159.440406 
L 566.807397 159.237758 
L 567.178733 159.050699 
L 567.397659 158.972758 
L 567.881834 158.801287 
L 568.348418 158.489521 
L 568.591717 158.271285 
L 569.841097 157.50746 
L 569.902331 157.429519 
L 570.059346 157.289224 
L 570.169416 157.0554 
L 570.313184 156.930694 
L 571.686406 155.995398 
L 572.03479 155.699221 
L 572.144177 155.465397 
L 572.423464 155.106866 
L 572.502418 155.060101 
L 572.637934 154.904219 
L 573.12299 154.436571 
L 573.297682 154.296276 
L 573.415155 154.109217 
L 573.537364 153.953334 
L 573.644878 153.81304 
L 574.423985 153.251862 
L 574.572354 153.173921 
L 574.732401 153.033626 
L 574.840491 152.846567 
L 575.041374 152.675096 
L 575.240248 152.425684 
L 575.407671 152.285389 
L 575.515157 152.207448 
L 575.73606 152.051565 
L 575.865432 151.880094 
L 576.084265 151.677446 
L 577.218742 150.726562 
L 577.513783 150.586267 
L 577.862353 150.305679 
L 577.968393 150.227737 
L 578.57189 149.557442 
L 579.245961 149.276853 
L 579.356947 149.105382 
L 579.603359 148.902734 
L 579.734033 148.684498 
L 580.900844 147.04773 
L 581.107241 146.891847 
L 581.215382 146.767141 
L 581.394799 146.564493 
L 581.539745 146.299493 
L 581.835368 145.878609 
L 582.345778 145.504491 
L 582.58505 145.348608 
L 583.694377 144.678313 
L 583.885077 144.584783 
L 584.610746 144.085958 
L 584.961972 143.555957 
L 585.477228 143.384486 
L 585.55843 143.353309 
L 585.795489 143.197427 
L 585.888375 143.103897 
L 586.151095 142.90125 
L 586.278677 142.776543 
L 586.474019 142.620661 
L 586.551833 142.527131 
L 586.669527 142.386837 
L 586.723368 142.340072 
L 587.069188 142.184189 
L 587.427508 141.763306 
L 587.616438 141.654188 
L 587.691697 141.513893 
L 588.51179 140.750068 
L 588.97578 140.563009 
L 589.129956 140.391538 
L 589.387454 140.157714 
L 590.004356 139.534183 
L 590.103886 139.362712 
L 590.359181 139.222417 
L 592.96997 137.585649 
L 593.178969 137.429766 
L 593.258583 137.164766 
L 593.447685 136.790647 
L 593.616848 136.634764 
L 593.867611 136.385352 
L 594.096703 136.213881 
L 594.203921 135.995645 
L 594.748609 135.481232 
L 594.814408 135.340938 
L 594.937178 135.216232 
L 595.069567 135.060349 
L 595.662972 134.732995 
L 595.693112 134.670642 
L 595.941588 134.530348 
L 596.099095 134.265347 
L 596.263677 134.031523 
L 596.522409 133.688581 
L 596.664568 133.626228 
L 597.08929 133.392404 
L 597.407738 133.049462 
L 597.608801 132.893579 
L 597.691553 132.800049 
L 597.872334 132.644167 
L 597.958912 132.566225 
L 598.442435 132.192107 
L 598.513256 132.114166 
L 598.989709 131.942695 
L 599.08921 131.880341 
L 599.436477 131.630929 
L 599.556895 131.552988 
L 599.875392 131.287987 
L 600.432558 131.100928 
L 600.671254 130.913869 
L 601.227384 130.461809 
L 601.339362 130.321514 
L 601.506911 129.947396 
L 602.004518 129.63563 
L 604.641286 127.437684 
L 604.765818 127.312978 
L 605.305411 126.876506 
L 605.417349 126.595917 
L 605.530991 126.440035 
L 605.618161 126.362093 
L 605.792942 126.206211 
L 606.326714 125.816504 
L 606.501843 125.645033 
L 606.651114 125.380032 
L 606.746999 125.270914 
L 607.586576 124.58503 
L 607.977562 124.101794 
L 608.092286 124.023853 
L 608.551705 123.758852 
L 608.661198 123.634146 
L 608.890086 123.447086 
L 609.208516 123.119733 
L 609.381317 122.96385 
L 609.520257 122.776791 
L 609.895075 122.51179 
L 610.322902 122.231201 
L 610.433972 122.15326 
L 611.188626 121.108846 
L 611.276663 120.968551 
L 611.401461 120.812669 
L 611.666134 120.594433 
L 611.904974 120.454138 
L 612.27309 120.08002 
L 612.975204 119.378548 
L 613.076024 119.253841 
L 614.484761 118.162662 
L 614.60787 117.81972 
L 615.665868 116.977954 
L 615.715726 116.900012 
L 615.930503 116.74413 
L 616.160751 116.463541 
L 616.412451 116.276482 
L 616.831681 116.073834 
L 616.944557 115.372362 
L 617.298534 115.185302 
L 617.636195 115.02942 
L 617.77163 114.826772 
L 617.831289 114.764419 
L 619.00933 114.374712 
L 619.078884 114.296771 
L 619.307718 114.109712 
L 619.451706 113.922652 
L 619.660238 113.782358 
L 619.765315 113.67324 
L 620.653954 113.065298 
L 620.750431 112.909415 
L 621.053814 112.706767 
L 621.170604 112.550885 
L 622.014222 111.95853 
L 622.077566 111.911765 
L 622.401589 111.740294 
L 622.47198 111.677941 
L 622.636364 111.6 
L 622.636364 111.6 
" style="fill:none;stroke:#92c6ff;stroke-linecap:round;stroke-width:1.5;"/>
   </g>
   <g id="line2d_28">
    <defs>
     <path d="M 0 2.5 
C 0.663008 2.5 1.29895 2.236584 1.767767 1.767767 
C 2.236584 1.29895 2.5 0.663008 2.5 0 
C 2.5 -0.663008 2.236584 -1.29895 1.767767 -1.767767 
C 1.29895 -2.236584 0.663008 -2.5 0 -2.5 
C -0.663008 -2.5 -1.29895 -2.236584 -1.767767 -1.767767 
C -2.236584 -1.29895 -2.5 -0.663008 -2.5 0 
C -2.5 0.663008 -2.236584 1.29895 -1.767767 1.767767 
C -1.29895 2.236584 -0.663008 2.5 0 2.5 
z
" id="m446487ebba" style="stroke:#696969;"/>
    </defs>
    <g clip-path="url(#p6fbdf8e7af)">
     <use style="fill:#696969;stroke:#696969;" x="115.363636" xlink:href="#m446487ebba" y="615.6"/>
    </g>
   </g>
   <g id="line2d_29">
    <g clip-path="url(#p6fbdf8e7af)">
     <use style="fill:#696969;stroke:#696969;" x="219.362391" xlink:href="#m446487ebba" y="565.187529"/>
    </g>
   </g>
   <g id="line2d_30">
    <g clip-path="url(#p6fbdf8e7af)">
     <use style="fill:#696969;stroke:#696969;" x="276.973031" xlink:href="#m446487ebba" y="514.775059"/>
    </g>
   </g>
   <g id="line2d_31">
    <g clip-path="url(#p6fbdf8e7af)">
     <use style="fill:#696969;stroke:#696969;" x="316.614362" xlink:href="#m446487ebba" y="464.362588"/>
    </g>
   </g>
   <g id="line2d_32">
    <g clip-path="url(#p6fbdf8e7af)">
     <use style="fill:#696969;stroke:#696969;" x="355.121278" xlink:href="#m446487ebba" y="413.965706"/>
    </g>
   </g>
   <g id="line2d_33">
    <g clip-path="url(#p6fbdf8e7af)">
     <use style="fill:#696969;stroke:#696969;" x="391.659558" xlink:href="#m446487ebba" y="363.568823"/>
    </g>
   </g>
   <g id="line2d_34">
    <g clip-path="url(#p6fbdf8e7af)">
     <use style="fill:#696969;stroke:#696969;" x="430.268272" xlink:href="#m446487ebba" y="313.171941"/>
    </g>
   </g>
   <g id="line2d_35">
    <g clip-path="url(#p6fbdf8e7af)">
     <use style="fill:#696969;stroke:#696969;" x="449.997224" xlink:href="#m446487ebba" y="262.775059"/>
    </g>
   </g>
   <g id="line2d_36">
    <g clip-path="url(#p6fbdf8e7af)">
     <use style="fill:#696969;stroke:#696969;" x="504.013248" xlink:href="#m446487ebba" y="212.378176"/>
    </g>
   </g>
   <g id="line2d_37">
    <g clip-path="url(#p6fbdf8e7af)">
     <use style="fill:#696969;stroke:#696969;" x="563.652659" xlink:href="#m446487ebba" y="161.981294"/>
    </g>
   </g>
   <g id="line2d_38">
    <g clip-path="url(#p6fbdf8e7af)">
     <use style="fill:#696969;stroke:#696969;" x="622.636364" xlink:href="#m446487ebba" y="111.6"/>
    </g>
   </g>
   <g id="patch_3">
    <path d="M 90 640.8 
L 90 86.4 
" style="fill:none;stroke:#cccccc;stroke-linecap:square;stroke-linejoin:miter;"/>
   </g>
   <g id="patch_4">
    <path d="M 648 640.8 
L 648 86.4 
" style="fill:none;stroke:#cccccc;stroke-linecap:square;stroke-linejoin:miter;"/>
   </g>
   <g id="patch_5">
    <path d="M 90 640.8 
L 648 640.8 
" style="fill:none;stroke:#cccccc;stroke-linecap:square;stroke-linejoin:miter;"/>
   </g>
   <g id="patch_6">
    <path d="M 90 86.4 
L 648 86.4 
" style="fill:none;stroke:#cccccc;stroke-linecap:square;stroke-linejoin:miter;"/>
   </g>
   <g id="text_14">
    <!-- 1 (2014-06-09) -->
    <defs>
     <path id="DejaVuSans-32"/>
     <path d="M 31 75.875 
Q 24.46875 64.65625 21.28125 53.65625 
Q 18.109375 42.671875 18.109375 31.390625 
Q 18.109375 20.125 21.3125 9.0625 
Q 24.515625 -2 31 -13.1875 
L 23.1875 -13.1875 
Q 15.875 -1.703125 12.234375 9.375 
Q 8.59375 20.453125 8.59375 31.390625 
Q 8.59375 42.28125 12.203125 53.3125 
Q 15.828125 64.359375 23.1875 75.875 
z
" id="DejaVuSans-40"/>
     <path d="M 37.796875 64.3125 
L 12.890625 25.390625 
L 37.796875 25.390625 
z
M 35.203125 72.90625 
L 47.609375 72.90625 
L 47.609375 25.390625 
L 58.015625 25.390625 
L 58.015625 17.1875 
L 47.609375 17.1875 
L 47.609375 0 
L 37.796875 0 
L 37.796875 17.1875 
L 4.890625 17.1875 
L 4.890625 26.703125 
z
" id="DejaVuSans-52"/>
     <path d="M 4.890625 31.390625 
L 31.203125 31.390625 
L 31.203125 23.390625 
L 4.890625 23.390625 
z
" id="DejaVuSans-45"/>
     <path d="M 8.015625 75.875 
L 15.828125 75.875 
Q 23.140625 64.359375 26.78125 53.3125 
Q 30.421875 42.28125 30.421875 31.390625 
Q 30.421875 20.453125 26.78125 9.375 
Q 23.140625 -1.703125 15.828125 -13.1875 
L 8.015625 -13.1875 
Q 14.5 -2 17.703125 9.0625 
Q 20.90625 20.125 20.90625 31.390625 
Q 20.90625 42.671875 17.703125 53.65625 
Q 14.5 64.65625 8.015625 75.875 
z
" id="DejaVuSans-41"/>
    </defs>
    <g style="fill:#262626;" transform="translate(120.363636 623.198437)scale(0.1 -0.1)">
     <use xlink:href="#DejaVuSans-49"/>
     <use x="63.623047" xlink:href="#DejaVuSans-32"/>
     <use x="95.410156" xlink:href="#DejaVuSans-40"/>
     <use x="134.423828" xlink:href="#DejaVuSans-50"/>
     <use x="198.046875" xlink:href="#DejaVuSans-48"/>
     <use x="261.669922" xlink:href="#DejaVuSans-49"/>
     <use x="325.292969" xlink:href="#DejaVuSans-52"/>
     <use x="388.916016" xlink:href="#DejaVuSans-45"/>
     <use x="425" xlink:href="#DejaVuSans-48"/>
     <use x="488.623047" xlink:href="#DejaVuSans-54"/>
     <use x="552.246094" xlink:href="#DejaVuSans-45"/>
     <use x="588.330078" xlink:href="#DejaVuSans-48"/>
     <use x="651.953125" xlink:href="#DejaVuSans-57"/>
     <use x="715.576172" xlink:href="#DejaVuSans-41"/>
    </g>
   </g>
   <g id="text_15">
    <!-- 3235 (2015-08-25) -->
    <g style="fill:#262626;" transform="translate(224.362391 572.785967)scale(0.1 -0.1)">
     <use xlink:href="#DejaVuSans-51"/>
     <use x="63.623047" xlink:href="#DejaVuSans-50"/>
     <use x="127.246094" xlink:href="#DejaVuSans-51"/>
     <use x="190.869141" xlink:href="#DejaVuSans-53"/>
     <use x="254.492188" xlink:href="#DejaVuSans-32"/>
     <use x="286.279297" xlink:href="#DejaVuSans-40"/>
     <use x="325.292969" xlink:href="#DejaVuSans-50"/>
     <use x="388.916016" xlink:href="#DejaVuSans-48"/>
     <use x="452.539062" xlink:href="#DejaVuSans-49"/>
     <use x="516.162109" xlink:href="#DejaVuSans-53"/>
     <use x="579.785156" xlink:href="#DejaVuSans-45"/>
     <use x="615.869141" xlink:href="#DejaVuSans-48"/>
     <use x="679.492188" xlink:href="#DejaVuSans-56"/>
     <use x="743.115234" xlink:href="#DejaVuSans-45"/>
     <use x="779.199219" xlink:href="#DejaVuSans-50"/>
     <use x="842.822266" xlink:href="#DejaVuSans-53"/>
     <use x="906.445312" xlink:href="#DejaVuSans-41"/>
    </g>
   </g>
   <g id="text_16">
    <!-- 6469 (2016-04-27) -->
    <g style="fill:#262626;" transform="translate(281.973031 522.373496)scale(0.1 -0.1)">
     <use xlink:href="#DejaVuSans-54"/>
     <use x="63.623047" xlink:href="#DejaVuSans-52"/>
     <use x="127.246094" xlink:href="#DejaVuSans-54"/>
     <use x="190.869141" xlink:href="#DejaVuSans-57"/>
     <use x="254.492188" xlink:href="#DejaVuSans-32"/>
     <use x="286.279297" xlink:href="#DejaVuSans-40"/>
     <use x="325.292969" xlink:href="#DejaVuSans-50"/>
     <use x="388.916016" xlink:href="#DejaVuSans-48"/>
     <use x="452.539062" xlink:href="#DejaVuSans-49"/>
     <use x="516.162109" xlink:href="#DejaVuSans-54"/>
     <use x="579.785156" xlink:href="#DejaVuSans-45"/>
     <use x="615.869141" xlink:href="#DejaVuSans-48"/>
     <use x="679.492188" xlink:href="#DejaVuSans-52"/>
     <use x="743.115234" xlink:href="#DejaVuSans-45"/>
     <use x="779.199219" xlink:href="#DejaVuSans-50"/>
     <use x="842.822266" xlink:href="#DejaVuSans-55"/>
     <use x="906.445312" xlink:href="#DejaVuSans-41"/>
    </g>
   </g>
   <g id="text_17">
    <!-- 9703 (2016-10-12) -->
    <g style="fill:#262626;" transform="translate(321.614362 471.961026)scale(0.1 -0.1)">
     <use xlink:href="#DejaVuSans-57"/>
     <use x="63.623047" xlink:href="#DejaVuSans-55"/>
     <use x="127.246094" xlink:href="#DejaVuSans-48"/>
     <use x="190.869141" xlink:href="#DejaVuSans-51"/>
     <use x="254.492188" xlink:href="#DejaVuSans-32"/>
     <use x="286.279297" xlink:href="#DejaVuSans-40"/>
     <use x="325.292969" xlink:href="#DejaVuSans-50"/>
     <use x="388.916016" xlink:href="#DejaVuSans-48"/>
     <use x="452.539062" xlink:href="#DejaVuSans-49"/>
     <use x="516.162109" xlink:href="#DejaVuSans-54"/>
     <use x="579.785156" xlink:href="#DejaVuSans-45"/>
     <use x="615.869141" xlink:href="#DejaVuSans-49"/>
     <use x="679.492188" xlink:href="#DejaVuSans-48"/>
     <use x="743.115234" xlink:href="#DejaVuSans-45"/>
     <use x="779.199219" xlink:href="#DejaVuSans-49"/>
     <use x="842.822266" xlink:href="#DejaVuSans-50"/>
     <use x="906.445312" xlink:href="#DejaVuSans-41"/>
    </g>
   </g>
   <g id="text_18">
    <!-- 12936 (2017-03-25) -->
    <g style="fill:#262626;" transform="translate(360.121278 421.564143)scale(0.1 -0.1)">
     <use xlink:href="#DejaVuSans-49"/>
     <use x="63.623047" xlink:href="#DejaVuSans-50"/>
     <use x="127.246094" xlink:href="#DejaVuSans-57"/>
     <use x="190.869141" xlink:href="#DejaVuSans-51"/>
     <use x="254.492188" xlink:href="#DejaVuSans-54"/>
     <use x="318.115234" xlink:href="#DejaVuSans-32"/>
     <use x="349.902344" xlink:href="#DejaVuSans-40"/>
     <use x="388.916016" xlink:href="#DejaVuSans-50"/>
     <use x="452.539062" xlink:href="#DejaVuSans-48"/>
     <use x="516.162109" xlink:href="#DejaVuSans-49"/>
     <use x="579.785156" xlink:href="#DejaVuSans-55"/>
     <use x="643.408203" xlink:href="#DejaVuSans-45"/>
     <use x="679.492188" xlink:href="#DejaVuSans-48"/>
     <use x="743.115234" xlink:href="#DejaVuSans-51"/>
     <use x="806.738281" xlink:href="#DejaVuSans-45"/>
     <use x="842.822266" xlink:href="#DejaVuSans-50"/>
     <use x="906.445312" xlink:href="#DejaVuSans-53"/>
     <use x="970.068359" xlink:href="#DejaVuSans-41"/>
    </g>
   </g>
   <g id="text_19">
    <!-- 16169 (2017-08-28) -->
    <g style="fill:#262626;" transform="translate(396.659558 371.167261)scale(0.1 -0.1)">
     <use xlink:href="#DejaVuSans-49"/>
     <use x="63.623047" xlink:href="#DejaVuSans-54"/>
     <use x="127.246094" xlink:href="#DejaVuSans-49"/>
     <use x="190.869141" xlink:href="#DejaVuSans-54"/>
     <use x="254.492188" xlink:href="#DejaVuSans-57"/>
     <use x="318.115234" xlink:href="#DejaVuSans-32"/>
     <use x="349.902344" xlink:href="#DejaVuSans-40"/>
     <use x="388.916016" xlink:href="#DejaVuSans-50"/>
     <use x="452.539062" xlink:href="#DejaVuSans-48"/>
     <use x="516.162109" xlink:href="#DejaVuSans-49"/>
     <use x="579.785156" xlink:href="#DejaVuSans-55"/>
     <use x="643.408203" xlink:href="#DejaVuSans-45"/>
     <use x="679.492188" xlink:href="#DejaVuSans-48"/>
     <use x="743.115234" xlink:href="#DejaVuSans-56"/>
     <use x="806.738281" xlink:href="#DejaVuSans-45"/>
     <use x="842.822266" xlink:href="#DejaVuSans-50"/>
     <use x="906.445312" xlink:href="#DejaVuSans-56"/>
     <use x="970.068359" xlink:href="#DejaVuSans-41"/>
    </g>
   </g>
   <g id="text_20">
    <!-- 19402 (2018-02-08) -->
    <g style="fill:#262626;" transform="translate(435.268272 320.770379)scale(0.1 -0.1)">
     <use xlink:href="#DejaVuSans-49"/>
     <use x="63.623047" xlink:href="#DejaVuSans-57"/>
     <use x="127.246094" xlink:href="#DejaVuSans-52"/>
     <use x="190.869141" xlink:href="#DejaVuSans-48"/>
     <use x="254.492188" xlink:href="#DejaVuSans-50"/>
     <use x="318.115234" xlink:href="#DejaVuSans-32"/>
     <use x="349.902344" xlink:href="#DejaVuSans-40"/>
     <use x="388.916016" xlink:href="#DejaVuSans-50"/>
     <use x="452.539062" xlink:href="#DejaVuSans-48"/>
     <use x="516.162109" xlink:href="#DejaVuSans-49"/>
     <use x="579.785156" xlink:href="#DejaVuSans-56"/>
     <use x="643.408203" xlink:href="#DejaVuSans-45"/>
     <use x="679.492188" xlink:href="#DejaVuSans-48"/>
     <use x="743.115234" xlink:href="#DejaVuSans-50"/>
     <use x="806.738281" xlink:href="#DejaVuSans-45"/>
     <use x="842.822266" xlink:href="#DejaVuSans-48"/>
     <use x="906.445312" xlink:href="#DejaVuSans-56"/>
     <use x="970.068359" xlink:href="#DejaVuSans-41"/>
    </g>
   </g>
   <g id="text_21">
    <!-- 22635 (2018-05-03) -->
    <g style="fill:#262626;" transform="translate(454.997224 270.373496)scale(0.1 -0.1)">
     <use xlink:href="#DejaVuSans-50"/>
     <use x="63.623047" xlink:href="#DejaVuSans-50"/>
     <use x="127.246094" xlink:href="#DejaVuSans-54"/>
     <use x="190.869141" xlink:href="#DejaVuSans-51"/>
     <use x="254.492188" xlink:href="#DejaVuSans-53"/>
     <use x="318.115234" xlink:href="#DejaVuSans-32"/>
     <use x="349.902344" xlink:href="#DejaVuSans-40"/>
     <use x="388.916016" xlink:href="#DejaVuSans-50"/>
     <use x="452.539062" xlink:href="#DejaVuSans-48"/>
     <use x="516.162109" xlink:href="#DejaVuSans-49"/>
     <use x="579.785156" xlink:href="#DejaVuSans-56"/>
     <use x="643.408203" xlink:href="#DejaVuSans-45"/>
     <use x="679.492188" xlink:href="#DejaVuSans-48"/>
     <use x="743.115234" xlink:href="#DejaVuSans-53"/>
     <use x="806.738281" xlink:href="#DejaVuSans-45"/>
     <use x="842.822266" xlink:href="#DejaVuSans-48"/>
     <use x="906.445312" xlink:href="#DejaVuSans-51"/>
     <use x="970.068359" xlink:href="#DejaVuSans-41"/>
    </g>
   </g>
   <g id="text_22">
    <!-- 25868 (2018-12-19) -->
    <g style="fill:#262626;" transform="translate(509.013248 219.976614)scale(0.1 -0.1)">
     <use xlink:href="#DejaVuSans-50"/>
     <use x="63.623047" xlink:href="#DejaVuSans-53"/>
     <use x="127.246094" xlink:href="#DejaVuSans-56"/>
     <use x="190.869141" xlink:href="#DejaVuSans-54"/>
     <use x="254.492188" xlink:href="#DejaVuSans-56"/>
     <use x="318.115234" xlink:href="#DejaVuSans-32"/>
     <use x="349.902344" xlink:href="#DejaVuSans-40"/>
     <use x="388.916016" xlink:href="#DejaVuSans-50"/>
     <use x="452.539062" xlink:href="#DejaVuSans-48"/>
     <use x="516.162109" xlink:href="#DejaVuSans-49"/>
     <use x="579.785156" xlink:href="#DejaVuSans-56"/>
     <use x="643.408203" xlink:href="#DejaVuSans-45"/>
     <use x="679.492188" xlink:href="#DejaVuSans-49"/>
     <use x="743.115234" xlink:href="#DejaVuSans-50"/>
     <use x="806.738281" xlink:href="#DejaVuSans-45"/>
     <use x="842.822266" xlink:href="#DejaVuSans-49"/>
     <use x="906.445312" xlink:href="#DejaVuSans-57"/>
     <use x="970.068359" xlink:href="#DejaVuSans-41"/>
    </g>
   </g>
   <g id="text_23">
    <!-- 29101 (2019-08-30) -->
    <g style="fill:#262626;" transform="translate(568.652659 169.579732)scale(0.1 -0.1)">
     <use xlink:href="#DejaVuSans-50"/>
     <use x="63.623047" xlink:href="#DejaVuSans-57"/>
     <use x="127.246094" xlink:href="#DejaVuSans-49"/>
     <use x="190.869141" xlink:href="#DejaVuSans-48"/>
     <use x="254.492188" xlink:href="#DejaVuSans-49"/>
     <use x="318.115234" xlink:href="#DejaVuSans-32"/>
     <use x="349.902344" xlink:href="#DejaVuSans-40"/>
     <use x="388.916016" xlink:href="#DejaVuSans-50"/>
     <use x="452.539062" xlink:href="#DejaVuSans-48"/>
     <use x="516.162109" xlink:href="#DejaVuSans-49"/>
     <use x="579.785156" xlink:href="#DejaVuSans-57"/>
     <use x="643.408203" xlink:href="#DejaVuSans-45"/>
     <use x="679.492188" xlink:href="#DejaVuSans-48"/>
     <use x="743.115234" xlink:href="#DejaVuSans-56"/>
     <use x="806.738281" xlink:href="#DejaVuSans-45"/>
     <use x="842.822266" xlink:href="#DejaVuSans-51"/>
     <use x="906.445312" xlink:href="#DejaVuSans-48"/>
     <use x="970.068359" xlink:href="#DejaVuSans-41"/>
    </g>
   </g>
   <g id="text_24">
    <!-- 32333 (2020-05-07) -->
    <g style="fill:#262626;" transform="translate(627.636364 119.198437)scale(0.1 -0.1)">
     <use xlink:href="#DejaVuSans-51"/>
     <use x="63.623047" xlink:href="#DejaVuSans-50"/>
     <use x="127.246094" xlink:href="#DejaVuSans-51"/>
     <use x="190.869141" xlink:href="#DejaVuSans-51"/>
     <use x="254.492188" xlink:href="#DejaVuSans-51"/>
     <use x="318.115234" xlink:href="#DejaVuSans-32"/>
     <use x="349.902344" xlink:href="#DejaVuSans-40"/>
     <use x="388.916016" xlink:href="#DejaVuSans-50"/>
     <use x="452.539062" xlink:href="#DejaVuSans-48"/>
     <use x="516.162109" xlink:href="#DejaVuSans-50"/>
     <use x="579.785156" xlink:href="#DejaVuSans-48"/>
     <use x="643.408203" xlink:href="#DejaVuSans-45"/>
     <use x="679.492188" xlink:href="#DejaVuSans-48"/>
     <use x="743.115234" xlink:href="#DejaVuSans-53"/>
     <use x="806.738281" xlink:href="#DejaVuSans-45"/>
     <use x="842.822266" xlink:href="#DejaVuSans-48"/>
     <use x="906.445312" xlink:href="#DejaVuSans-55"/>
     <use x="970.068359" xlink:href="#DejaVuSans-41"/>
    </g>
   </g>
   <g id="text_25">
    <!-- Closed issues over time -->
    <defs>
     <path d="M 64.40625 67.28125 
L 64.40625 56.890625 
Q 59.421875 61.53125 53.78125 63.8125 
Q 48.140625 66.109375 41.796875 66.109375 
Q 29.296875 66.109375 22.65625 58.46875 
Q 16.015625 50.828125 16.015625 36.375 
Q 16.015625 21.96875 22.65625 14.328125 
Q 29.296875 6.6875 41.796875 6.6875 
Q 48.140625 6.6875 53.78125 8.984375 
Q 59.421875 11.28125 64.40625 15.921875 
L 64.40625 5.609375 
Q 59.234375 2.09375 53.4375 0.328125 
Q 47.65625 -1.421875 41.21875 -1.421875 
Q 24.65625 -1.421875 15.125 8.703125 
Q 5.609375 18.84375 5.609375 36.375 
Q 5.609375 53.953125 15.125 64.078125 
Q 24.65625 74.21875 41.21875 74.21875 
Q 47.75 74.21875 53.53125 72.484375 
Q 59.328125 70.75 64.40625 67.28125 
z
" id="DejaVuSans-67"/>
     <path d="M 9.421875 75.984375 
L 18.40625 75.984375 
L 18.40625 0 
L 9.421875 0 
z
" id="DejaVuSans-108"/>
     <path d="M 30.609375 48.390625 
Q 23.390625 48.390625 19.1875 42.75 
Q 14.984375 37.109375 14.984375 27.296875 
Q 14.984375 17.484375 19.15625 11.84375 
Q 23.34375 6.203125 30.609375 6.203125 
Q 37.796875 6.203125 41.984375 11.859375 
Q 46.1875 17.53125 46.1875 27.296875 
Q 46.1875 37.015625 41.984375 42.703125 
Q 37.796875 48.390625 30.609375 48.390625 
z
M 30.609375 56 
Q 42.328125 56 49.015625 48.375 
Q 55.71875 40.765625 55.71875 27.296875 
Q 55.71875 13.875 49.015625 6.21875 
Q 42.328125 -1.421875 30.609375 -1.421875 
Q 18.84375 -1.421875 12.171875 6.21875 
Q 5.515625 13.875 5.515625 27.296875 
Q 5.515625 40.765625 12.171875 48.375 
Q 18.84375 56 30.609375 56 
z
" id="DejaVuSans-111"/>
     <path d="M 44.28125 53.078125 
L 44.28125 44.578125 
Q 40.484375 46.53125 36.375 47.5 
Q 32.28125 48.484375 27.875 48.484375 
Q 21.1875 48.484375 17.84375 46.4375 
Q 14.5 44.390625 14.5 40.28125 
Q 14.5 37.15625 16.890625 35.375 
Q 19.28125 33.59375 26.515625 31.984375 
L 29.59375 31.296875 
Q 39.15625 29.25 43.1875 25.515625 
Q 47.21875 21.78125 47.21875 15.09375 
Q 47.21875 7.46875 41.1875 3.015625 
Q 35.15625 -1.421875 24.609375 -1.421875 
Q 20.21875 -1.421875 15.453125 -0.5625 
Q 10.6875 0.296875 5.421875 2 
L 5.421875 11.28125 
Q 10.40625 8.6875 15.234375 7.390625 
Q 20.0625 6.109375 24.8125 6.109375 
Q 31.15625 6.109375 34.5625 8.28125 
Q 37.984375 10.453125 37.984375 14.40625 
Q 37.984375 18.0625 35.515625 20.015625 
Q 33.0625 21.96875 24.703125 23.78125 
L 21.578125 24.515625 
Q 13.234375 26.265625 9.515625 29.90625 
Q 5.8125 33.546875 5.8125 39.890625 
Q 5.8125 47.609375 11.28125 51.796875 
Q 16.75 56 26.8125 56 
Q 31.78125 56 36.171875 55.265625 
Q 40.578125 54.546875 44.28125 53.078125 
z
" id="DejaVuSans-115"/>
     <path d="M 56.203125 29.59375 
L 56.203125 25.203125 
L 14.890625 25.203125 
Q 15.484375 15.921875 20.484375 11.0625 
Q 25.484375 6.203125 34.421875 6.203125 
Q 39.59375 6.203125 44.453125 7.46875 
Q 49.3125 8.734375 54.109375 11.28125 
L 54.109375 2.78125 
Q 49.265625 0.734375 44.1875 -0.34375 
Q 39.109375 -1.421875 33.890625 -1.421875 
Q 20.796875 -1.421875 13.15625 6.1875 
Q 5.515625 13.8125 5.515625 26.8125 
Q 5.515625 40.234375 12.765625 48.109375 
Q 20.015625 56 32.328125 56 
Q 43.359375 56 49.78125 48.890625 
Q 56.203125 41.796875 56.203125 29.59375 
z
M 47.21875 32.234375 
Q 47.125 39.59375 43.09375 43.984375 
Q 39.0625 48.390625 32.421875 48.390625 
Q 24.90625 48.390625 20.390625 44.140625 
Q 15.875 39.890625 15.1875 32.171875 
z
" id="DejaVuSans-101"/>
     <path d="M 45.40625 46.390625 
L 45.40625 75.984375 
L 54.390625 75.984375 
L 54.390625 0 
L 45.40625 0 
L 45.40625 8.203125 
Q 42.578125 3.328125 38.25 0.953125 
Q 33.9375 -1.421875 27.875 -1.421875 
Q 17.96875 -1.421875 11.734375 6.484375 
Q 5.515625 14.40625 5.515625 27.296875 
Q 5.515625 40.1875 11.734375 48.09375 
Q 17.96875 56 27.875 56 
Q 33.9375 56 38.25 53.625 
Q 42.578125 51.265625 45.40625 46.390625 
z
M 14.796875 27.296875 
Q 14.796875 17.390625 18.875 11.75 
Q 22.953125 6.109375 30.078125 6.109375 
Q 37.203125 6.109375 41.296875 11.75 
Q 45.40625 17.390625 45.40625 27.296875 
Q 45.40625 37.203125 41.296875 42.84375 
Q 37.203125 48.484375 30.078125 48.484375 
Q 22.953125 48.484375 18.875 42.84375 
Q 14.796875 37.203125 14.796875 27.296875 
z
" id="DejaVuSans-100"/>
     <path d="M 9.421875 54.6875 
L 18.40625 54.6875 
L 18.40625 0 
L 9.421875 0 
z
M 9.421875 75.984375 
L 18.40625 75.984375 
L 18.40625 64.59375 
L 9.421875 64.59375 
z
" id="DejaVuSans-105"/>
     <path d="M 8.5 21.578125 
L 8.5 54.6875 
L 17.484375 54.6875 
L 17.484375 21.921875 
Q 17.484375 14.15625 20.5 10.265625 
Q 23.53125 6.390625 29.59375 6.390625 
Q 36.859375 6.390625 41.078125 11.03125 
Q 45.3125 15.671875 45.3125 23.6875 
L 45.3125 54.6875 
L 54.296875 54.6875 
L 54.296875 0 
L 45.3125 0 
L 45.3125 8.40625 
Q 42.046875 3.421875 37.71875 1 
Q 33.40625 -1.421875 27.6875 -1.421875 
Q 18.265625 -1.421875 13.375 4.4375 
Q 8.5 10.296875 8.5 21.578125 
z
M 31.109375 56 
z
" id="DejaVuSans-117"/>
     <path d="M 2.984375 54.6875 
L 12.5 54.6875 
L 29.59375 8.796875 
L 46.6875 54.6875 
L 56.203125 54.6875 
L 35.6875 0 
L 23.484375 0 
z
" id="DejaVuSans-118"/>
     <path d="M 41.109375 46.296875 
Q 39.59375 47.171875 37.8125 47.578125 
Q 36.03125 48 33.890625 48 
Q 26.265625 48 22.1875 43.046875 
Q 18.109375 38.09375 18.109375 28.8125 
L 18.109375 0 
L 9.078125 0 
L 9.078125 54.6875 
L 18.109375 54.6875 
L 18.109375 46.1875 
Q 20.953125 51.171875 25.484375 53.578125 
Q 30.03125 56 36.53125 56 
Q 37.453125 56 38.578125 55.875 
Q 39.703125 55.765625 41.0625 55.515625 
z
" id="DejaVuSans-114"/>
     <path d="M 18.3125 70.21875 
L 18.3125 54.6875 
L 36.8125 54.6875 
L 36.8125 47.703125 
L 18.3125 47.703125 
L 18.3125 18.015625 
Q 18.3125 11.328125 20.140625 9.421875 
Q 21.96875 7.515625 27.59375 7.515625 
L 36.8125 7.515625 
L 36.8125 0 
L 27.59375 0 
Q 17.1875 0 13.234375 3.875 
Q 9.28125 7.765625 9.28125 18.015625 
L 9.28125 47.703125 
L 2.6875 47.703125 
L 2.6875 54.6875 
L 9.28125 54.6875 
L 9.28125 70.21875 
z
" id="DejaVuSans-116"/>
     <path d="M 52 44.1875 
Q 55.375 50.25 60.0625 53.125 
Q 64.75 56 71.09375 56 
Q 79.640625 56 84.28125 50.015625 
Q 88.921875 44.046875 88.921875 33.015625 
L 88.921875 0 
L 79.890625 0 
L 79.890625 32.71875 
Q 79.890625 40.578125 77.09375 44.375 
Q 74.3125 48.1875 68.609375 48.1875 
Q 61.625 48.1875 57.5625 43.546875 
Q 53.515625 38.921875 53.515625 30.90625 
L 53.515625 0 
L 44.484375 0 
L 44.484375 32.71875 
Q 44.484375 40.625 41.703125 44.40625 
Q 38.921875 48.1875 33.109375 48.1875 
Q 26.21875 48.1875 22.15625 43.53125 
Q 18.109375 38.875 18.109375 30.90625 
L 18.109375 0 
L 9.078125 0 
L 9.078125 54.6875 
L 18.109375 54.6875 
L 18.109375 46.1875 
Q 21.1875 51.21875 25.484375 53.609375 
Q 29.78125 56 35.6875 56 
Q 41.65625 56 45.828125 52.96875 
Q 50 49.953125 52 44.1875 
z
" id="DejaVuSans-109"/>
    </defs>
    <g style="fill:#262626;" transform="translate(297.650625 80.4)scale(0.12 -0.12)">
     <use xlink:href="#DejaVuSans-67"/>
     <use x="69.824219" xlink:href="#DejaVuSans-108"/>
     <use x="97.607422" xlink:href="#DejaVuSans-111"/>
     <use x="158.789062" xlink:href="#DejaVuSans-115"/>
     <use x="210.888672" xlink:href="#DejaVuSans-101"/>
     <use x="272.412109" xlink:href="#DejaVuSans-100"/>
     <use x="335.888672" xlink:href="#DejaVuSans-32"/>
     <use x="367.675781" xlink:href="#DejaVuSans-105"/>
     <use x="395.458984" xlink:href="#DejaVuSans-115"/>
     <use x="447.558594" xlink:href="#DejaVuSans-115"/>
     <use x="499.658203" xlink:href="#DejaVuSans-117"/>
     <use x="563.037109" xlink:href="#DejaVuSans-101"/>
     <use x="624.560547" xlink:href="#DejaVuSans-115"/>
     <use x="676.660156" xlink:href="#DejaVuSans-32"/>
     <use x="708.447266" xlink:href="#DejaVuSans-111"/>
     <use x="769.628906" xlink:href="#DejaVuSans-118"/>
     <use x="828.808594" xlink:href="#DejaVuSans-101"/>
     <use x="890.332031" xlink:href="#DejaVuSans-114"/>
     <use x="931.445312" xlink:href="#DejaVuSans-32"/>
     <use x="963.232422" xlink:href="#DejaVuSans-116"/>
     <use x="1002.441406" xlink:href="#DejaVuSans-105"/>
     <use x="1030.224609" xlink:href="#DejaVuSans-109"/>
     <use x="1127.636719" xlink:href="#DejaVuSans-101"/>
    </g>
   </g>
  </g>
 </g>
 <defs>
  <clipPath id="p6fbdf8e7af">
   <rect height="554.4" width="558" x="90" y="86.4"/>
  </clipPath>
 </defs>
</svg>
