<?xml version="1.0" encoding="utf-8" standalone="no"?>
<!DOCTYPE svg PUBLIC "-//W3C//DTD SVG 1.1//EN"
  "http://www.w3.org/Graphics/SVG/1.1/DTD/svg11.dtd">
<!-- Created with matplotlib (https://matplotlib.org/) -->
<svg height="720pt" version="1.1" viewBox="0 0 720 720" width="720pt" xmlns="http://www.w3.org/2000/svg" xmlns:xlink="http://www.w3.org/1999/xlink">
 <defs>
  <style type="text/css">
*{stroke-linecap:butt;stroke-linejoin:round;}
  </style>
 </defs>
 <g id="figure_1">
  <g id="patch_1">
   <path d="M 0 720 
L 720 720 
L 720 0 
L 0 0 
z
" style="fill:#ffffff;"/>
  </g>
  <g id="axes_1">
   <g id="patch_2">
    <path d="M 90 640.8 
L 648 640.8 
L 648 86.4 
L 90 86.4 
z
" style="fill:#ffffff;"/>
   </g>
   <g id="matplotlib.axis_1">
    <g id="xtick_1">
     <g id="line2d_1">
      <path clip-path="url(#p67ddbe0ff4)" d="M 161.709577 640.8 
L 161.709577 86.4 
" style="fill:none;stroke:#cccccc;stroke-linecap:round;stroke-width:0.8;"/>
     </g>
     <g id="line2d_2"/>
     <g id="text_1">
      <!-- 2015 -->
      <defs>
       <path d="M 19.1875 8.296875 
L 53.609375 8.296875 
L 53.609375 0 
L 7.328125 0 
L 7.328125 8.296875 
Q 12.9375 14.109375 22.625 23.890625 
Q 32.328125 33.6875 34.8125 36.53125 
Q 39.546875 41.84375 41.421875 45.53125 
Q 43.3125 49.21875 43.3125 52.78125 
Q 43.3125 58.59375 39.234375 62.25 
Q 35.15625 65.921875 28.609375 65.921875 
Q 23.96875 65.921875 18.8125 64.3125 
Q 13.671875 62.703125 7.8125 59.421875 
L 7.8125 69.390625 
Q 13.765625 71.78125 18.9375 73 
Q 24.125 74.21875 28.421875 74.21875 
Q 39.75 74.21875 46.484375 68.546875 
Q 53.21875 62.890625 53.21875 53.421875 
Q 53.21875 48.921875 51.53125 44.890625 
Q 49.859375 40.875 45.40625 35.40625 
Q 44.1875 33.984375 37.640625 27.21875 
Q 31.109375 20.453125 19.1875 8.296875 
z
" id="DejaVuSans-50"/>
       <path d="M 31.78125 66.40625 
Q 24.171875 66.40625 20.328125 58.90625 
Q 16.5 51.421875 16.5 36.375 
Q 16.5 21.390625 20.328125 13.890625 
Q 24.171875 6.390625 31.78125 6.390625 
Q 39.453125 6.390625 43.28125 13.890625 
Q 47.125 21.390625 47.125 36.375 
Q 47.125 51.421875 43.28125 58.90625 
Q 39.453125 66.40625 31.78125 66.40625 
z
M 31.78125 74.21875 
Q 44.046875 74.21875 50.515625 64.515625 
Q 56.984375 54.828125 56.984375 36.375 
Q 56.984375 17.96875 50.515625 8.265625 
Q 44.046875 -1.421875 31.78125 -1.421875 
Q 19.53125 -1.421875 13.0625 8.265625 
Q 6.59375 17.96875 6.59375 36.375 
Q 6.59375 54.828125 13.0625 64.515625 
Q 19.53125 74.21875 31.78125 74.21875 
z
" id="DejaVuSans-48"/>
       <path d="M 12.40625 8.296875 
L 28.515625 8.296875 
L 28.515625 63.921875 
L 10.984375 60.40625 
L 10.984375 69.390625 
L 28.421875 72.90625 
L 38.28125 72.90625 
L 38.28125 8.296875 
L 54.390625 8.296875 
L 54.390625 0 
L 12.40625 0 
z
" id="DejaVuSans-49"/>
       <path d="M 10.796875 72.90625 
L 49.515625 72.90625 
L 49.515625 64.59375 
L 19.828125 64.59375 
L 19.828125 46.734375 
Q 21.96875 47.46875 24.109375 47.828125 
Q 26.265625 48.1875 28.421875 48.1875 
Q 40.625 48.1875 47.75 41.5 
Q 54.890625 34.8125 54.890625 23.390625 
Q 54.890625 11.625 47.5625 5.09375 
Q 40.234375 -1.421875 26.90625 -1.421875 
Q 22.3125 -1.421875 17.546875 -0.640625 
Q 12.796875 0.140625 7.71875 1.703125 
L 7.71875 11.625 
Q 12.109375 9.234375 16.796875 8.0625 
Q 21.484375 6.890625 26.703125 6.890625 
Q 35.15625 6.890625 40.078125 11.328125 
Q 45.015625 15.765625 45.015625 23.390625 
Q 45.015625 31 40.078125 35.4375 
Q 35.15625 39.890625 26.703125 39.890625 
Q 22.75 39.890625 18.8125 39.015625 
Q 14.890625 38.140625 10.796875 36.28125 
z
" id="DejaVuSans-53"/>
      </defs>
      <g style="fill:#262626;" transform="translate(148.984577 651.898438)scale(0.1 -0.1)">
       <use xlink:href="#DejaVuSans-50"/>
       <use x="63.623047" xlink:href="#DejaVuSans-48"/>
       <use x="127.246094" xlink:href="#DejaVuSans-49"/>
       <use x="190.869141" xlink:href="#DejaVuSans-53"/>
      </g>
     </g>
    </g>
    <g id="xtick_2">
     <g id="line2d_3">
      <path clip-path="url(#p67ddbe0ff4)" d="M 243.929986 640.8 
L 243.929986 86.4 
" style="fill:none;stroke:#cccccc;stroke-linecap:round;stroke-width:0.8;"/>
     </g>
     <g id="line2d_4"/>
     <g id="text_2">
      <!-- 2016 -->
      <defs>
       <path d="M 33.015625 40.375 
Q 26.375 40.375 22.484375 35.828125 
Q 18.609375 31.296875 18.609375 23.390625 
Q 18.609375 15.53125 22.484375 10.953125 
Q 26.375 6.390625 33.015625 6.390625 
Q 39.65625 6.390625 43.53125 10.953125 
Q 47.40625 15.53125 47.40625 23.390625 
Q 47.40625 31.296875 43.53125 35.828125 
Q 39.65625 40.375 33.015625 40.375 
z
M 52.59375 71.296875 
L 52.59375 62.3125 
Q 48.875 64.0625 45.09375 64.984375 
Q 41.3125 65.921875 37.59375 65.921875 
Q 27.828125 65.921875 22.671875 59.328125 
Q 17.53125 52.734375 16.796875 39.40625 
Q 19.671875 43.65625 24.015625 45.921875 
Q 28.375 48.1875 33.59375 48.1875 
Q 44.578125 48.1875 50.953125 41.515625 
Q 57.328125 34.859375 57.328125 23.390625 
Q 57.328125 12.15625 50.6875 5.359375 
Q 44.046875 -1.421875 33.015625 -1.421875 
Q 20.359375 -1.421875 13.671875 8.265625 
Q 6.984375 17.96875 6.984375 36.375 
Q 6.984375 53.65625 15.1875 63.9375 
Q 23.390625 74.21875 37.203125 74.21875 
Q 40.921875 74.21875 44.703125 73.484375 
Q 48.484375 72.75 52.59375 71.296875 
z
" id="DejaVuSans-54"/>
      </defs>
      <g style="fill:#262626;" transform="translate(231.204986 651.898438)scale(0.1 -0.1)">
       <use xlink:href="#DejaVuSans-50"/>
       <use x="63.623047" xlink:href="#DejaVuSans-48"/>
       <use x="127.246094" xlink:href="#DejaVuSans-49"/>
       <use x="190.869141" xlink:href="#DejaVuSans-54"/>
      </g>
     </g>
    </g>
    <g id="xtick_3">
     <g id="line2d_5">
      <path clip-path="url(#p67ddbe0ff4)" d="M 326.375656 640.8 
L 326.375656 86.4 
" style="fill:none;stroke:#cccccc;stroke-linecap:round;stroke-width:0.8;"/>
     </g>
     <g id="line2d_6"/>
     <g id="text_3">
      <!-- 2017 -->
      <defs>
       <path d="M 8.203125 72.90625 
L 55.078125 72.90625 
L 55.078125 68.703125 
L 28.609375 0 
L 18.3125 0 
L 43.21875 64.59375 
L 8.203125 64.59375 
z
" id="DejaVuSans-55"/>
      </defs>
      <g style="fill:#262626;" transform="translate(313.650656 651.898438)scale(0.1 -0.1)">
       <use xlink:href="#DejaVuSans-50"/>
       <use x="63.623047" xlink:href="#DejaVuSans-48"/>
       <use x="127.246094" xlink:href="#DejaVuSans-49"/>
       <use x="190.869141" xlink:href="#DejaVuSans-55"/>
      </g>
     </g>
    </g>
    <g id="xtick_4">
     <g id="line2d_7">
      <path clip-path="url(#p67ddbe0ff4)" d="M 408.596065 640.8 
L 408.596065 86.4 
" style="fill:none;stroke:#cccccc;stroke-linecap:round;stroke-width:0.8;"/>
     </g>
     <g id="line2d_8"/>
     <g id="text_4">
      <!-- 2018 -->
      <defs>
       <path d="M 31.78125 34.625 
Q 24.75 34.625 20.71875 30.859375 
Q 16.703125 27.09375 16.703125 20.515625 
Q 16.703125 13.921875 20.71875 10.15625 
Q 24.75 6.390625 31.78125 6.390625 
Q 38.8125 6.390625 42.859375 10.171875 
Q 46.921875 13.96875 46.921875 20.515625 
Q 46.921875 27.09375 42.890625 30.859375 
Q 38.875 34.625 31.78125 34.625 
z
M 21.921875 38.8125 
Q 15.578125 40.375 12.03125 44.71875 
Q 8.5 49.078125 8.5 55.328125 
Q 8.5 64.0625 14.71875 69.140625 
Q 20.953125 74.21875 31.78125 74.21875 
Q 42.671875 74.21875 48.875 69.140625 
Q 55.078125 64.0625 55.078125 55.328125 
Q 55.078125 49.078125 51.53125 44.71875 
Q 48 40.375 41.703125 38.8125 
Q 48.828125 37.15625 52.796875 32.3125 
Q 56.78125 27.484375 56.78125 20.515625 
Q 56.78125 9.90625 50.3125 4.234375 
Q 43.84375 -1.421875 31.78125 -1.421875 
Q 19.734375 -1.421875 13.25 4.234375 
Q 6.78125 9.90625 6.78125 20.515625 
Q 6.78125 27.484375 10.78125 32.3125 
Q 14.796875 37.15625 21.921875 38.8125 
z
M 18.3125 54.390625 
Q 18.3125 48.734375 21.84375 45.5625 
Q 25.390625 42.390625 31.78125 42.390625 
Q 38.140625 42.390625 41.71875 45.5625 
Q 45.3125 48.734375 45.3125 54.390625 
Q 45.3125 60.0625 41.71875 63.234375 
Q 38.140625 66.40625 31.78125 66.40625 
Q 25.390625 66.40625 21.84375 63.234375 
Q 18.3125 60.0625 18.3125 54.390625 
z
" id="DejaVuSans-56"/>
      </defs>
      <g style="fill:#262626;" transform="translate(395.871065 651.898438)scale(0.1 -0.1)">
       <use xlink:href="#DejaVuSans-50"/>
       <use x="63.623047" xlink:href="#DejaVuSans-48"/>
       <use x="127.246094" xlink:href="#DejaVuSans-49"/>
       <use x="190.869141" xlink:href="#DejaVuSans-56"/>
      </g>
     </g>
    </g>
    <g id="xtick_5">
     <g id="line2d_9">
      <path clip-path="url(#p67ddbe0ff4)" d="M 490.816474 640.8 
L 490.816474 86.4 
" style="fill:none;stroke:#cccccc;stroke-linecap:round;stroke-width:0.8;"/>
     </g>
     <g id="line2d_10"/>
     <g id="text_5">
      <!-- 2019 -->
      <defs>
       <path d="M 10.984375 1.515625 
L 10.984375 10.5 
Q 14.703125 8.734375 18.5 7.8125 
Q 22.3125 6.890625 25.984375 6.890625 
Q 35.75 6.890625 40.890625 13.453125 
Q 46.046875 20.015625 46.78125 33.40625 
Q 43.953125 29.203125 39.59375 26.953125 
Q 35.25 24.703125 29.984375 24.703125 
Q 19.046875 24.703125 12.671875 31.3125 
Q 6.296875 37.9375 6.296875 49.421875 
Q 6.296875 60.640625 12.9375 67.421875 
Q 19.578125 74.21875 30.609375 74.21875 
Q 43.265625 74.21875 49.921875 64.515625 
Q 56.59375 54.828125 56.59375 36.375 
Q 56.59375 19.140625 48.40625 8.859375 
Q 40.234375 -1.421875 26.421875 -1.421875 
Q 22.703125 -1.421875 18.890625 -0.6875 
Q 15.09375 0.046875 10.984375 1.515625 
z
M 30.609375 32.421875 
Q 37.25 32.421875 41.125 36.953125 
Q 45.015625 41.5 45.015625 49.421875 
Q 45.015625 57.28125 41.125 61.84375 
Q 37.25 66.40625 30.609375 66.40625 
Q 23.96875 66.40625 20.09375 61.84375 
Q 16.21875 57.28125 16.21875 49.421875 
Q 16.21875 41.5 20.09375 36.953125 
Q 23.96875 32.421875 30.609375 32.421875 
z
" id="DejaVuSans-57"/>
      </defs>
      <g style="fill:#262626;" transform="translate(478.091474 651.898438)scale(0.1 -0.1)">
       <use xlink:href="#DejaVuSans-50"/>
       <use x="63.623047" xlink:href="#DejaVuSans-48"/>
       <use x="127.246094" xlink:href="#DejaVuSans-49"/>
       <use x="190.869141" xlink:href="#DejaVuSans-57"/>
      </g>
     </g>
    </g>
    <g id="xtick_6">
     <g id="line2d_11">
      <path clip-path="url(#p67ddbe0ff4)" d="M 573.036883 640.8 
L 573.036883 86.4 
" style="fill:none;stroke:#cccccc;stroke-linecap:round;stroke-width:0.8;"/>
     </g>
     <g id="line2d_12"/>
     <g id="text_6">
      <!-- 2020 -->
      <g style="fill:#262626;" transform="translate(560.311883 651.898438)scale(0.1 -0.1)">
       <use xlink:href="#DejaVuSans-50"/>
       <use x="63.623047" xlink:href="#DejaVuSans-48"/>
       <use x="127.246094" xlink:href="#DejaVuSans-50"/>
       <use x="190.869141" xlink:href="#DejaVuSans-48"/>
      </g>
     </g>
    </g>
   </g>
   <g id="matplotlib.axis_2">
    <g id="ytick_1">
     <g id="line2d_13">
      <path clip-path="url(#p67ddbe0ff4)" d="M 90 615.615081 
L 648 615.615081 
" style="fill:none;stroke:#cccccc;stroke-linecap:round;stroke-width:0.8;"/>
     </g>
     <g id="line2d_14"/>
     <g id="text_7">
      <!-- 0 -->
      <g style="fill:#262626;" transform="translate(80.1375 619.4143)scale(0.1 -0.1)">
       <use xlink:href="#DejaVuSans-48"/>
      </g>
     </g>
    </g>
    <g id="ytick_2">
     <g id="line2d_15">
      <path clip-path="url(#p67ddbe0ff4)" d="M 90 540.211131 
L 648 540.211131 
" style="fill:none;stroke:#cccccc;stroke-linecap:round;stroke-width:0.8;"/>
     </g>
     <g id="line2d_16"/>
     <g id="text_8">
      <!-- 5000 -->
      <g style="fill:#262626;" transform="translate(61.05 544.01035)scale(0.1 -0.1)">
       <use xlink:href="#DejaVuSans-53"/>
       <use x="63.623047" xlink:href="#DejaVuSans-48"/>
       <use x="127.246094" xlink:href="#DejaVuSans-48"/>
       <use x="190.869141" xlink:href="#DejaVuSans-48"/>
      </g>
     </g>
    </g>
    <g id="ytick_3">
     <g id="line2d_17">
      <path clip-path="url(#p67ddbe0ff4)" d="M 90 464.807181 
L 648 464.807181 
" style="fill:none;stroke:#cccccc;stroke-linecap:round;stroke-width:0.8;"/>
     </g>
     <g id="line2d_18"/>
     <g id="text_9">
      <!-- 10000 -->
      <g style="fill:#262626;" transform="translate(54.6875 468.6064)scale(0.1 -0.1)">
       <use xlink:href="#DejaVuSans-49"/>
       <use x="63.623047" xlink:href="#DejaVuSans-48"/>
       <use x="127.246094" xlink:href="#DejaVuSans-48"/>
       <use x="190.869141" xlink:href="#DejaVuSans-48"/>
       <use x="254.492188" xlink:href="#DejaVuSans-48"/>
      </g>
     </g>
    </g>
    <g id="ytick_4">
     <g id="line2d_19">
      <path clip-path="url(#p67ddbe0ff4)" d="M 90 389.403232 
L 648 389.403232 
" style="fill:none;stroke:#cccccc;stroke-linecap:round;stroke-width:0.8;"/>
     </g>
     <g id="line2d_20"/>
     <g id="text_10">
      <!-- 15000 -->
      <g style="fill:#262626;" transform="translate(54.6875 393.20245)scale(0.1 -0.1)">
       <use xlink:href="#DejaVuSans-49"/>
       <use x="63.623047" xlink:href="#DejaVuSans-53"/>
       <use x="127.246094" xlink:href="#DejaVuSans-48"/>
       <use x="190.869141" xlink:href="#DejaVuSans-48"/>
       <use x="254.492188" xlink:href="#DejaVuSans-48"/>
      </g>
     </g>
    </g>
    <g id="ytick_5">
     <g id="line2d_21">
      <path clip-path="url(#p67ddbe0ff4)" d="M 90 313.999282 
L 648 313.999282 
" style="fill:none;stroke:#cccccc;stroke-linecap:round;stroke-width:0.8;"/>
     </g>
     <g id="line2d_22"/>
     <g id="text_11">
      <!-- 20000 -->
      <g style="fill:#262626;" transform="translate(54.6875 317.798501)scale(0.1 -0.1)">
       <use xlink:href="#DejaVuSans-50"/>
       <use x="63.623047" xlink:href="#DejaVuSans-48"/>
       <use x="127.246094" xlink:href="#DejaVuSans-48"/>
       <use x="190.869141" xlink:href="#DejaVuSans-48"/>
       <use x="254.492188" xlink:href="#DejaVuSans-48"/>
      </g>
     </g>
    </g>
    <g id="ytick_6">
     <g id="line2d_23">
      <path clip-path="url(#p67ddbe0ff4)" d="M 90 238.595332 
L 648 238.595332 
" style="fill:none;stroke:#cccccc;stroke-linecap:round;stroke-width:0.8;"/>
     </g>
     <g id="line2d_24"/>
     <g id="text_12">
      <!-- 25000 -->
      <g style="fill:#262626;" transform="translate(54.6875 242.394551)scale(0.1 -0.1)">
       <use xlink:href="#DejaVuSans-50"/>
       <use x="63.623047" xlink:href="#DejaVuSans-53"/>
       <use x="127.246094" xlink:href="#DejaVuSans-48"/>
       <use x="190.869141" xlink:href="#DejaVuSans-48"/>
       <use x="254.492188" xlink:href="#DejaVuSans-48"/>
      </g>
     </g>
    </g>
    <g id="ytick_7">
     <g id="line2d_25">
      <path clip-path="url(#p67ddbe0ff4)" d="M 90 163.191382 
L 648 163.191382 
" style="fill:none;stroke:#cccccc;stroke-linecap:round;stroke-width:0.8;"/>
     </g>
     <g id="line2d_26"/>
     <g id="text_13">
      <!-- 30000 -->
      <defs>
       <path d="M 40.578125 39.3125 
Q 47.65625 37.796875 51.625 33 
Q 55.609375 28.21875 55.609375 21.1875 
Q 55.609375 10.40625 48.1875 4.484375 
Q 40.765625 -1.421875 27.09375 -1.421875 
Q 22.515625 -1.421875 17.65625 -0.515625 
Q 12.796875 0.390625 7.625 2.203125 
L 7.625 11.71875 
Q 11.71875 9.328125 16.59375 8.109375 
Q 21.484375 6.890625 26.8125 6.890625 
Q 36.078125 6.890625 40.9375 10.546875 
Q 45.796875 14.203125 45.796875 21.1875 
Q 45.796875 27.640625 41.28125 31.265625 
Q 36.765625 34.90625 28.71875 34.90625 
L 20.21875 34.90625 
L 20.21875 43.015625 
L 29.109375 43.015625 
Q 36.375 43.015625 40.234375 45.921875 
Q 44.09375 48.828125 44.09375 54.296875 
Q 44.09375 59.90625 40.109375 62.90625 
Q 36.140625 65.921875 28.71875 65.921875 
Q 24.65625 65.921875 20.015625 65.03125 
Q 15.375 64.15625 9.8125 62.3125 
L 9.8125 71.09375 
Q 15.4375 72.65625 20.34375 73.4375 
Q 25.25 74.21875 29.59375 74.21875 
Q 40.828125 74.21875 47.359375 69.109375 
Q 53.90625 64.015625 53.90625 55.328125 
Q 53.90625 49.265625 50.4375 45.09375 
Q 46.96875 40.921875 40.578125 39.3125 
z
" id="DejaVuSans-51"/>
      </defs>
      <g style="fill:#262626;" transform="translate(54.6875 166.990601)scale(0.1 -0.1)">
       <use xlink:href="#DejaVuSans-51"/>
       <use x="63.623047" xlink:href="#DejaVuSans-48"/>
       <use x="127.246094" xlink:href="#DejaVuSans-48"/>
       <use x="190.869141" xlink:href="#DejaVuSans-48"/>
       <use x="254.492188" xlink:href="#DejaVuSans-48"/>
      </g>
     </g>
    </g>
    <g id="ytick_8">
     <g id="line2d_27">
      <path clip-path="url(#p67ddbe0ff4)" d="M 90 87.787433 
L 648 87.787433 
" style="fill:none;stroke:#cccccc;stroke-linecap:round;stroke-width:0.8;"/>
     </g>
     <g id="line2d_28"/>
     <g id="text_14">
      <!-- 35000 -->
      <g style="fill:#262626;" transform="translate(54.6875 91.586651)scale(0.1 -0.1)">
       <use xlink:href="#DejaVuSans-51"/>
       <use x="63.623047" xlink:href="#DejaVuSans-53"/>
       <use x="127.246094" xlink:href="#DejaVuSans-48"/>
       <use x="190.869141" xlink:href="#DejaVuSans-48"/>
       <use x="254.492188" xlink:href="#DejaVuSans-48"/>
      </g>
     </g>
    </g>
   </g>
   <g id="line2d_29">
    <path clip-path="url(#p67ddbe0ff4)" d="M 115.363636 615.6 
L 116.929936 615.464273 
L 117.055289 615.419031 
L 119.363757 615.238061 
L 120.496919 615.02693 
L 120.535802 615.011849 
L 122.670566 614.876122 
L 123.810394 614.695153 
L 125.660713 614.529264 
L 125.688286 614.393537 
L 126.559146 614.25781 
L 126.6015 614.197487 
L 129.011116 613.790305 
L 129.021203 613.775224 
L 130.341136 613.639497 
L 131.395605 613.458528 
L 132.141845 613.292639 
L 132.826223 613.156912 
L 132.915793 613.081508 
L 136.188398 612.493357 
L 136.255137 612.402873 
L 139.228287 612.010772 
L 141.179982 611.58851 
L 141.183405 611.573429 
L 142.339082 611.377379 
L 142.610691 611.181329 
L 143.159245 611.030521 
L 143.233052 610.924955 
L 144.307567 610.789228 
L 144.371464 610.759066 
L 145.572801 610.532855 
L 146.386523 610.351885 
L 147.516892 610.216158 
L 147.904345 610.080431 
L 147.910451 610.050269 
L 148.784749 609.899461 
L 149.287288 609.658169 
L 149.339137 609.597846 
L 151.059081 609.341472 
L 151.129037 609.266068 
L 151.790085 609.145422 
L 151.852376 609.070018 
L 155.197847 608.34614 
L 155.198095 608.331059 
L 155.406923 608.195332 
L 155.582588 608.119928 
L 156.747815 607.878636 
L 156.918377 607.712747 
L 157.170279 607.592101 
L 157.211533 607.546858 
L 158.09693 607.365889 
L 158.108905 607.245242 
L 158.333937 607.124596 
L 158.34246 606.82298 
L 158.569111 606.702334 
L 158.613595 606.657092 
L 158.988149 606.491203 
L 159.049634 606.355476 
L 163.017669 605.752244 
L 163.067961 605.631598 
L 163.736057 605.450628 
L 163.755864 605.390305 
L 164.472258 605.269659 
L 164.808864 605.133932 
L 165.110224 604.832316 
L 166.162946 604.621185 
L 166.259631 604.470377 
L 166.659744 604.304488 
L 166.858258 604.244165 
L 166.965304 604.183842 
L 167.567122 604.063196 
L 167.621394 603.942549 
L 167.799733 603.550449 
L 168.007965 603.429803 
L 168.326537 603.18851 
L 169.333904 602.856732 
L 169.446235 602.660682 
L 169.564448 602.540036 
L 170.11005 601.966966 
L 170.782903 601.801077 
L 171.132168 601.605027 
L 171.459063 601.28833 
L 171.617082 601.137522 
L 171.709221 601.09228 
L 172.527436 600.971634 
L 172.55241 600.926391 
L 172.737281 600.790664 
L 173.337623 600.383483 
L 174.076606 600.247756 
L 174.309217 600.172352 
L 174.530945 600.051706 
L 174.669087 599.94614 
L 174.821598 599.780251 
L 174.973628 599.584201 
L 175.41622 599.463555 
L 175.51819 599.282585 
L 175.868628 598.980969 
L 175.961222 598.845242 
L 176.26411 598.694434 
L 176.31566 598.60395 
L 176.961305 598.483303 
L 177.250463 597.955476 
L 177.359465 597.864991 
L 177.460704 597.563375 
L 177.536425 597.45781 
L 177.661599 597.322083 
L 177.773262 597.201436 
L 177.916536 597.065709 
L 177.931569 596.990305 
L 178.539107 596.854578 
L 178.606122 596.598205 
L 178.798781 596.462478 
L 178.842563 596.356912 
L 179.023119 596.221185 
L 179.111346 596.115619 
L 179.255847 595.979892 
L 179.323861 595.768761 
L 179.490375 595.633034 
L 179.703779 595.572711 
L 180.12677 595.436984 
L 180.175172 595.240934 
L 181.145113 594.004309 
L 181.696552 593.868582 
L 181.826025 593.702693 
L 181.975514 593.551885 
L 182.109656 593.310592 
L 182.434038 593.024057 
L 182.641498 592.812926 
L 182.820841 592.782765 
L 183.52782 592.662118 
L 183.730835 592.30018 
L 183.977196 592.058887 
L 184.043964 591.908079 
L 184.203445 591.772352 
L 184.2429 591.712029 
L 184.88502 591.576302 
L 185.370112 591.304847 
L 185.584824 591.108797 
L 185.640981 591.033393 
L 185.76897 590.897666 
L 185.832471 590.731777 
L 186.443198 590.565889 
L 186.73762 590.219031 
L 187.096652 590.068223 
L 187.29934 589.766607 
L 188.114048 589.284022 
L 188.22263 589.193537 
L 188.8625 588.560144 
L 189.147964 588.409336 
L 189.584187 588.243447 
L 189.687249 588.047397 
L 189.832196 587.881508 
L 189.8897 587.745781 
L 190.122071 587.610054 
L 190.266995 587.429084 
L 190.45501 587.15763 
L 190.713489 587.021903 
L 191.178985 586.901257 
L 191.26167 586.675045 
L 191.574783 586.524237 
L 191.735428 586.358348 
L 191.870671 586.237702 
L 192.982954 585.574147 
L 193.166854 585.423339 
L 193.450887 585.24237 
L 193.540353 585.076481 
L 193.667365 584.940754 
L 193.738208 584.850269 
L 194.439952 584.714542 
L 194.795716 584.533573 
L 194.854516 584.397846 
L 195.021209 584.262118 
L 195.108902 584.066068 
L 195.883567 583.839856 
L 195.985641 583.583483 
L 196.166588 583.447756 
L 196.243868 583.34219 
L 196.354978 583.206463 
L 196.480616 583.010413 
L 196.560881 582.874686 
L 196.923192 582.467504 
L 197.718277 581.954758 
L 197.813919 581.788869 
L 197.956342 581.653142 
L 198.05024 581.577738 
L 198.30435 581.42693 
L 198.415197 581.261041 
L 198.47169 581.110233 
L 199.051662 580.974506 
L 199.130173 580.823698 
L 199.297518 580.703052 
L 199.42599 580.507002 
L 199.773873 580.054578 
L 199.862684 579.994255 
L 200.001752 579.843447 
L 200.073554 579.722801 
L 200.849864 579.51167 
L 200.917111 579.375943 
L 201.065455 579.255296 
L 201.139679 578.998923 
L 201.298877 578.833034 
L 201.376436 578.667145 
L 201.526563 578.501257 
L 201.624239 578.305206 
L 202.228437 578.139318 
L 202.328139 577.973429 
L 202.470523 577.837702 
L 202.58051 577.626571 
L 202.749263 577.430521 
L 202.867353 577.340036 
L 202.959369 577.264632 
L 203.788633 577.068582 
L 204.338873 576.07325 
L 204.446644 575.741472 
L 204.733128 575.349372 
L 204.755523 575.258887 
L 205.334479 575.092998 
L 205.501738 574.791382 
L 205.57851 574.670736 
L 205.689245 574.459605 
L 205.831913 574.278636 
L 205.91927 574.17307 
L 206.139512 574.022262 
L 206.245946 573.841293 
L 206.373495 573.765889 
L 206.956379 573.645242 
L 207.195662 573.524596 
L 207.595663 573.343627 
L 207.828894 572.996768 
L 207.939885 572.83088 
L 208.485912 572.695153 
L 208.774061 572.45386 
L 209.011337 572.333214 
L 209.082153 572.242729 
L 209.225429 572.107002 
L 209.31612 571.88079 
L 209.444923 571.745063 
L 209.509167 571.69982 
L 210.06471 571.579174 
L 210.758794 571.11167 
L 211.024879 570.975943 
L 211.094509 570.915619 
L 211.615997 570.749731 
L 212.326741 570.101257 
L 212.454999 569.995691 
L 213.162813 569.58851 
L 213.613544 569.075763 
L 213.666142 568.909874 
L 213.777623 568.698743 
L 214.049704 568.412208 
L 214.180476 568.216158 
L 214.80019 568.050269 
L 214.912969 567.884381 
L 215.069226 567.733573 
L 215.148054 566.451706 
L 215.294148 566.331059 
L 215.403035 565.486535 
L 215.498398 565.350808 
L 215.582775 565.094434 
L 216.328638 564.883303 
L 216.933843 564.234829 
L 217.244899 564.084022 
L 217.332263 563.903052 
L 218.037342 563.767325 
L 218.364849 563.631598 
L 218.466715 563.48079 
L 218.926965 563.254578 
L 218.977425 563.164093 
L 219.59357 563.013285 
L 220.373584 561.972711 
L 221.231653 561.56553 
L 221.37199 561.475045 
L 222.060211 560.826571 
L 222.152672 560.766248 
L 222.698243 560.600359 
L 222.807015 560.464632 
L 223.052701 560.132855 
L 223.167289 559.966966 
L 223.276236 559.559785 
L 223.448871 559.4693 
L 223.58887 559.333573 
L 223.681462 559.107361 
L 224.282474 558.986715 
L 225.001423 557.915978 
L 225.405321 557.403232 
L 225.88707 557.282585 
L 226.035667 557.131777 
L 226.271678 556.920646 
L 226.609203 556.438061 
L 226.798649 556.121364 
L 226.847138 556.03088 
L 227.395597 555.864991 
L 227.65635 555.503052 
L 227.776782 555.141113 
L 227.922664 554.89982 
L 228.061474 554.839497 
L 228.329973 554.643447 
L 228.850848 554.371993 
L 229.003432 554.236266 
L 229.078091 554.055296 
L 229.241468 553.889408 
L 229.3334 553.648115 
L 229.511988 553.467145 
L 229.593377 553.406822 
L 229.678421 553.271095 
L 229.814774 553.014722 
L 230.706786 552.532136 
L 233.113263 550.87325 
L 233.138918 550.797846 
L 233.744217 550.677199 
L 233.857919 550.616876 
L 234.200303 550.390664 
L 234.451436 550.164452 
L 234.551502 550.028725 
L 235.222471 549.561221 
L 235.327948 549.365171 
L 236.366228 548.686535 
L 236.812684 548.565889 
L 237.039624 548.188869 
L 237.404693 547.736445 
L 237.476399 547.540395 
L 237.602663 547.404668 
L 237.673206 547.268941 
L 237.853978 547.103052 
L 237.938281 547.012567 
L 238.906105 546.529982 
L 239.207752 546.198205 
L 239.970538 545.941831 
L 240.080843 545.806104 
L 240.220539 545.504488 
L 240.413317 545.308438 
L 240.551856 545.172711 
L 240.688744 544.976661 
L 241.054608 544.78061 
L 241.624303 544.614722 
L 241.96444 544.403591 
L 242.055345 544.328187 
L 244.802682 543.709874 
L 244.91251 543.61939 
L 245.078794 543.483662 
L 245.092479 543.453501 
L 245.462638 543.317774 
L 246.167416 543.001077 
L 246.388029 542.850269 
L 246.606934 542.608977 
L 246.949561 542.337522 
L 247.290287 542.186715 
L 247.386078 542.066068 
L 248.386789 541.704129 
L 248.494408 541.583483 
L 248.621243 541.432675 
L 248.757388 541.040575 
L 248.866741 540.904847 
L 248.943479 540.738959 
L 249.47629 540.542908 
L 249.555773 540.37702 
L 249.664654 540.211131 
L 249.735536 540.090485 
L 249.911086 539.894434 
L 250.084996 539.743627 
L 250.200917 539.62298 
L 250.474375 539.155476 
L 250.572742 539.04991 
L 250.663397 538.929264 
L 250.764462 538.868941 
L 251.318425 538.356194 
L 251.427106 538.129982 
L 251.587156 537.994255 
L 251.73678 537.662478 
L 251.807876 537.436266 
L 252.087304 536.95368 
L 252.656379 536.772711 
L 252.884552 536.275045 
L 253.102268 536.078995 
L 253.212553 535.80754 
L 253.238215 535.671813 
L 253.347175 535.505925 
L 253.681156 534.46535 
L 254.146931 534.254219 
L 254.262307 534.118492 
L 254.477414 533.937522 
L 254.586363 533.756553 
L 254.738698 533.590664 
L 254.845619 533.50018 
L 254.976587 533.364452 
L 255.099865 533.032675 
L 255.220646 532.731059 
L 255.419429 532.565171 
L 255.846218 532.17307 
L 256.568379 530.604668 
L 256.716324 530.484022 
L 256.909689 529.971275 
L 257.089108 529.910952 
L 257.407767 529.775224 
L 257.466619 529.518851 
L 257.562269 529.30772 
L 257.6307 529.141831 
L 257.831464 528.810054 
L 258.11497 528.221903 
L 258.206939 527.98061 
L 258.291608 527.799641 
L 258.401785 527.618671 
L 258.857796 527.347217 
L 258.970823 527.271813 
L 259.148743 527.090844 
L 259.406506 526.894794 
L 259.521206 526.668582 
L 259.595783 526.547935 
L 259.668216 526.412208 
L 259.801083 526.185996 
L 259.889222 525.989946 
L 260.004817 525.793896 
L 260.04138 525.763734 
L 260.542965 525.597846 
L 260.643871 525.356553 
L 260.816759 525.175583 
L 261.038394 524.858887 
L 261.243413 524.692998 
L 261.264847 524.331059 
L 261.310838 524.135009 
L 261.489329 523.999282 
L 261.750937 523.818312 
L 262.180957 523.652424 
L 262.295092 523.592101 
L 262.807293 523.230162 
L 262.843121 523.139677 
L 263.683675 522.928546 
L 263.774043 522.792819 
L 264.146746 522.62693 
L 264.247944 522.461041 
L 264.590808 522.295153 
L 265.610395 521.767325 
L 265.746125 521.586355 
L 265.875898 521.420467 
L 266.161021 521.224417 
L 266.271433 521.013285 
L 267.016665 520.832316 
L 267.332273 520.575943 
L 267.418449 520.440215 
L 267.639674 520.198923 
L 267.917137 519.987792 
L 268.323773 519.806822 
L 268.449207 519.58061 
L 268.75271 519.173429 
L 268.849737 518.962298 
L 269.529174 518.449551 
L 270.038658 518.268582 
L 270.092155 518.208259 
L 270.317237 518.072531 
L 271.012971 517.333573 
L 271.612388 517.152603 
L 271.868886 516.911311 
L 272.23357 516.760503 
L 272.53225 516.187433 
L 272.63806 516.081867 
L 273.056056 515.94614 
L 273.165114 515.795332 
L 273.373254 515.599282 
L 273.821394 515.297666 
L 273.968792 515.056373 
L 274.0796 514.935727 
L 274.119198 514.830162 
L 274.459356 514.694434 
L 274.54216 514.558707 
L 274.660313 514.392819 
L 274.769197 514.106284 
L 275.013739 513.427648 
L 275.093021 512.733932 
L 275.233681 512.568043 
L 275.374545 512.266427 
L 275.688848 511.904488 
L 275.739834 511.844165 
L 276.292387 511.602873 
L 276.543 511.18061 
L 276.654838 510.924237 
L 276.766306 510.517056 
L 276.827218 510.305925 
L 276.929824 510.079713 
L 277.048681 509.928905 
L 277.230259 509.340754 
L 277.44604 509.054219 
L 277.661183 508.918492 
L 277.755019 508.782765 
L 278.035115 508.586715 
L 278.192078 508.330341 
L 278.324354 508.179533 
L 278.959893 506.686535 
L 279.373209 506.430162 
L 279.481426 506.038061 
L 280.141121 504.454578 
L 280.245276 504.228366 
L 280.914174 503.610054 
L 281.043368 503.429084 
L 282.077827 501.302693 
L 282.431727 501.136804 
L 282.527338 501.001077 
L 282.661861 500.774865 
L 282.777965 500.533573 
L 282.864229 500.397846 
L 283.041387 499.975583 
L 283.135713 499.779533 
L 283.24206 499.628725 
L 283.601308 498.980251 
L 283.704287 498.919928 
L 284.422529 498.422262 
L 284.47332 498.150808 
L 284.623272 497.939677 
L 284.699697 497.713465 
L 284.77626 497.592819 
L 284.889488 497.457092 
L 284.998802 497.095153 
L 285.127021 496.959425 
L 285.239923 496.808618 
L 285.906324 496.627648 
L 286.726614 495.692639 
L 286.774331 495.617235 
L 287.34448 495.481508 
L 287.440085 495.285458 
L 287.623543 495.089408 
L 287.972688 494.682226 
L 288.055915 494.576661 
L 288.234549 494.425853 
L 288.357024 494.199641 
L 288.836398 494.033752 
L 288.989443 493.777379 
L 289.415685 493.098743 
L 289.66001 492.917774 
L 289.814786 492.751885 
L 290.502511 492.450269 
L 291.475547 491.69623 
L 292.085758 491.560503 
L 292.304355 491.364452 
L 292.430892 491.153321 
L 292.645282 490.791382 
L 292.754716 490.580251 
L 293.053323 490.142908 
L 293.78148 489.871454 
L 293.890388 489.750808 
L 294.130552 489.554758 
L 294.682716 488.45386 
L 295.212813 488.27289 
L 295.896956 487.232316 
L 296.025149 486.9307 
L 296.123704 486.794973 
L 296.2051 486.463196 
L 296.606712 486.297307 
L 296.78391 486.16158 
L 296.821826 486.010772 
L 297.10922 485.467864 
L 297.258257 485.301975 
L 297.374042 485.045601 
L 297.785502 484.306643 
L 298.032588 484.140754 
L 298.377598 483.989946 
L 298.64125 483.085099 
L 298.747415 482.828725 
L 298.855879 482.677917 
L 299.157714 481.954039 
L 299.233461 481.803232 
L 299.363343 481.426212 
L 299.428497 481.39605 
L 299.906747 481.260323 
L 300.013001 481.139677 
L 300.196078 480.913465 
L 300.324479 480.415799 
L 300.439094 480.280072 
L 301.022612 479.073609 
L 301.347672 478.862478 
L 301.458037 478.681508 
L 301.621959 478.349731 
L 301.791471 478.198923 
L 301.932783 478.078276 
L 302.007403 477.927469 
L 302.156532 477.731418 
L 303.628743 475.770916 
L 303.722738 475.66535 
L 303.816406 475.4693 
L 303.98383 475.182765 
L 304.075076 474.986715 
L 304.154629 474.926391 
L 304.674285 474.760503 
L 304.911184 474.443806 
L 305.064096 474.292998 
L 305.199055 474.021544 
L 305.374582 473.810413 
L 305.83741 473.37307 
L 306.33394 473.222262 
L 306.529766 472.875404 
L 306.822376 471.804668 
L 306.97253 471.668941 
L 307.117896 471.382406 
L 307.288631 471.126032 
L 307.472944 470.914901 
L 308.14914 470.402154 
L 308.34075 469.542549 
L 308.442871 468.818671 
L 308.561686 468.577379 
L 309.101709 467.672531 
L 309.473849 467.476481 
L 309.577521 467.295512 
L 309.781972 467.054219 
L 309.888531 466.843088 
L 310.106382 466.616876 
L 310.360151 466.420826 
L 310.439008 466.31526 
L 310.993503 466.11921 
L 311.076552 465.953321 
L 311.249328 465.802513 
L 311.391324 465.500898 
L 311.802019 465.154039 
L 311.903063 464.988151 
L 312.998379 463.932496 
L 313.094436 463.691203 
L 313.281598 463.525314 
L 313.422167 463.374506 
L 313.947634 463.012567 
L 314.035687 462.786355 
L 314.168713 462.635548 
L 314.246095 462.439497 
L 314.387183 462.288689 
L 314.483868 462.017235 
L 314.654444 461.7307 
L 314.778588 461.549731 
L 314.911307 461.202873 
L 315.000243 461.112388 
L 315.100811 460.976661 
L 315.771641 460.659964 
L 315.901771 460.539318 
L 315.935613 460.358348 
L 316.03648 459.770197 
L 316.189277 459.483662 
L 316.344269 458.850269 
L 316.372534 458.684381 
L 316.472986 457.131059 
L 316.620796 456.76912 
L 316.690523 456.527828 
L 316.877286 456.37702 
L 316.940604 456.346858 
L 317.274419 456.211131 
L 317.383376 455.954758 
L 317.526675 455.683303 
L 317.800339 454.386355 
L 318.279455 454.190305 
L 318.904803 454.024417 
L 319.03663 453.873609 
L 319.144555 453.722801 
L 319.256466 453.436266 
L 319.480463 453.074327 
L 319.566727 452.9386 
L 319.637132 452.094075 
L 319.746861 451.083662 
L 319.863522 450.827289 
L 319.973207 450.631239 
L 320.479072 450.314542 
L 320.584307 450.118492 
L 320.81752 449.590664 
L 320.941043 449.183483 
L 321.048259 448.806463 
L 321.701233 447.811131 
L 321.978182 447.660323 
L 322.079479 447.494434 
L 323.024205 446.499102 
L 323.676173 446.27289 
L 323.759144 446.197487 
L 323.988249 446.061759 
L 324.175278 445.910952 
L 324.314502 445.729982 
L 324.404695 445.383124 
L 325.432495 445.081508 
L 325.606999 444.991023 
L 325.884167 444.749731 
L 325.94504 444.659246 
L 327.048709 444.267145 
L 327.157285 444.131418 
L 327.476192 443.663914 
L 327.727577 443.543268 
L 327.748046 443.482944 
L 328.28026 443.332136 
L 328.396445 443.136086 
L 328.486578 443.045601 
L 328.663976 442.909874 
L 329.115594 442.276481 
L 329.549196 441.944704 
L 329.909732 441.808977 
L 330.206699 441.477199 
L 330.320816 441.311311 
L 330.388217 441.11526 
L 330.548567 441.009695 
L 330.812845 440.798564 
L 330.972916 440.677917 
L 331.732548 440.481867 
L 331.981034 440.195332 
L 331.992365 439.712747 
L 332.040123 439.57702 
L 332.190634 439.456373 
L 332.302509 439.320646 
L 332.9834 439.034111 
L 333.090462 438.611849 
L 333.768754 438.189587 
L 334.145595 437.903052 
L 334.705 437.767325 
L 334.809835 437.616517 
L 334.8974 437.465709 
L 334.948055 437.375224 
L 335.330457 437.194255 
L 335.461951 436.983124 
L 335.588799 436.847397 
L 335.690294 436.636266 
L 335.884819 436.485458 
L 336.321545 436.349731 
L 336.429261 436.214004 
L 336.736438 435.836984 
L 336.831895 435.656014 
L 337.428243 435.354399 
L 337.497719 435.263914 
L 337.890704 435.113106 
L 338.452736 434.766248 
L 338.761762 434.41939 
L 339.020059 434.283662 
L 339.186864 434.208259 
L 339.465049 433.84632 
L 339.57289 433.484381 
L 339.713082 433.212926 
L 339.930154 432.579533 
L 340.076407 432.368402 
L 340.253988 432.172352 
L 340.322698 431.840575 
L 340.41973 431.116697 
L 340.778931 430.950808 
L 340.877845 430.784919 
L 340.915555 430.619031 
L 341.03553 429.412567 
L 341.155612 429.171275 
L 341.260544 428.749013 
L 341.505109 428.447397 
L 341.606417 427.979892 
L 341.664398 427.844165 
L 341.81264 427.346499 
L 341.875239 427.16553 
L 342.014977 426.200359 
L 342.525812 426.01939 
L 342.570403 425.220108 
L 342.664585 424.104129 
L 342.732009 423.938241 
L 343.366013 422.565889 
L 343.476869 422.4 
L 343.609449 422.173788 
L 344.068725 421.917415 
L 344.175108 421.464991 
L 344.333782 421.299102 
L 344.515102 421.103052 
L 344.815458 420.861759 
L 344.934005 420.68079 
L 345.760159 420.273609 
L 345.867129 420.198205 
L 346.178824 419.851346 
L 346.288428 419.700539 
L 346.663379 419.474327 
L 346.702187 419.444165 
L 347.241873 419.308438 
L 347.406452 419.127469 
L 347.629466 418.856014 
L 347.73276 418.750449 
L 348.411126 418.38851 
L 348.83707 418.252783 
L 350.042831 417.257451 
L 350.616635 417.106643 
L 350.70734 417.001077 
L 351.000012 416.820108 
L 351.155331 416.593896 
L 351.349806 416.458169 
L 351.538974 416.035907 
L 352.113307 415.658887 
L 352.226496 414.919928 
L 352.482587 414.633393 
L 352.588994 414.437343 
L 352.754621 414.271454 
L 352.88776 414.045242 
L 352.96419 413.80395 
L 353.759543 413.472172 
L 353.933745 413.351526 
L 354.165775 413.170557 
L 354.281821 413.019749 
L 354.388768 412.733214 
L 354.538426 412.507002 
L 354.67407 411.933932 
L 355.085623 411.828366 
L 355.205153 411.692639 
L 355.281914 411.617235 
L 355.466226 411.466427 
L 356.025034 410.667145 
L 356.097138 410.486176 
L 356.149962 410.410772 
L 356.751908 410.199641 
L 356.868578 409.943268 
L 356.984293 409.777379 
L 357.499051 409.159066 
L 357.619989 407.681149 
L 357.833426 407.485099 
L 357.879021 407.334291 
L 357.950755 407.258887 
L 358.02901 407.138241 
L 358.058776 406.92711 
L 358.294879 406.791382 
L 358.402243 406.489767 
L 358.54757 406.323878 
L 358.656066 406.037343 
L 358.757334 405.856373 
L 358.863314 405.630162 
L 358.971085 405.464273 
L 359.121564 405.22298 
L 359.242921 405.087253 
L 359.365423 404.815799 
L 359.862411 404.604668 
L 359.981307 404.423698 
L 359.999581 404.137163 
L 360.117806 403.533932 
L 360.353893 403.036266 
L 360.459873 402.704488 
L 360.549062 402.448115 
L 360.677675 398.768402 
L 360.780648 398.602513 
L 360.884868 398.225494 
L 361.461514 397.546858 
L 361.61307 397.094434 
L 361.889391 396.657092 
L 362.180747 396.068941 
L 362.26735 395.827648 
L 362.373627 395.541113 
L 362.583337 395.133932 
L 362.651924 394.983124 
L 362.79885 394.847397 
L 362.945426 394.364811 
L 363.401776 392.690844 
L 363.502356 392.555117 
L 363.61422 392.04237 
L 363.773053 391.182765 
L 363.846195 390.881149 
L 363.915127 390.760503 
L 364.052124 390.217594 
L 364.442408 390.12711 
L 364.594639 389.976302 
L 364.772499 389.267504 
L 364.834553 389.146858 
L 364.983025 388.664273 
L 365.087818 388.513465 
L 365.193762 388.106284 
L 365.282487 387.970557 
L 365.38867 387.623698 
L 365.459815 387.47289 
L 365.566603 387.095871 
L 366.043545 386.266427 
L 366.193661 386.100539 
L 366.300267 385.814004 
L 366.435698 385.648115 
L 366.516601 385.436984 
L 366.604375 385.286176 
L 366.947474 384.698025 
L 367.054994 384.577379 
L 367.164024 384.21544 
L 367.380539 384.155117 
L 367.92636 383.974147 
L 367.975865 383.928905 
L 368.23776 383.793178 
L 368.492975 383.536804 
L 368.704223 383.401077 
L 369.616837 382.782765 
L 369.724556 382.616876 
L 370.307 381.968402 
L 370.905728 381.817594 
L 371.939524 380.188869 
L 372.464441 380.053142 
L 372.603112 379.82693 
L 372.807889 379.691203 
L 372.960136 379.419749 
L 373.078492 379.284022 
L 373.230767 379.148294 
L 373.372205 378.937163 
L 373.446062 378.831598 
L 374.044999 378.650628 
L 374.167383 378.349013 
L 374.365801 378.168043 
L 374.54199 377.881508 
L 374.646345 377.655296 
L 374.885732 377.429084 
L 375.008596 377.263196 
L 375.682764 376.659964 
L 375.794221 376.494075 
L 376.021065 376.313106 
L 376.125137 376.19246 
L 376.332818 375.694794 
L 376.439358 375.423339 
L 376.81708 375.136804 
L 377.233548 374.940754 
L 377.591043 374.397846 
L 378.211386 373.734291 
L 378.83811 373.447756 
L 379.091308 373.221544 
L 379.483703 372.814363 
L 379.593583 372.618312 
L 379.81636 372.060323 
L 380.263313 371.819031 
L 380.374247 371.713465 
L 380.61464 371.457092 
L 380.719525 371.336445 
L 381.250722 370.793537 
L 381.556293 370.356194 
L 381.619783 370.175224 
L 381.712743 369.994255 
L 381.813065 369.798205 
L 381.930235 369.617235 
L 382.078443 369.406104 
L 382.256212 369.029084 
L 382.697881 368.154399 
L 382.825876 367.762298 
L 383.216707 367.566248 
L 383.479566 367.430521 
L 383.707034 367.249551 
L 383.862055 367.023339 
L 384.108802 366.782047 
L 384.297972 366.555835 
L 384.352327 366.374865 
L 384.650389 366.103411 
L 385.020688 365.937522 
L 385.1179 365.771634 
L 385.398077 365.379533 
L 385.506059 365.213645 
L 386.270044 364.36912 
L 386.394535 363.750808 
L 386.576817 363.6 
L 386.725513 363.464273 
L 386.821525 363.373788 
L 386.950453 363.132496 
L 387.059637 362.921364 
L 387.200449 362.725314 
L 387.450119 362.318133 
L 387.797209 362.031598 
L 388.712485 361.458528 
L 388.800447 361.322801 
L 388.936174 361.187074 
L 389.053845 360.945781 
L 389.397723 360.674327 
L 389.791169 360.5386 
L 389.848256 360.372711 
L 390.139821 360.236984 
L 390.495174 359.78456 
L 390.74256 359.528187 
L 390.822241 359.437702 
L 391.404885 359.226571 
L 391.644468 358.940036 
L 392.600127 357.522442 
L 392.837639 357.401795 
L 392.916032 357.29623 
L 393.046525 357.160503 
L 393.372286 356.798564 
L 393.509367 356.54219 
L 393.688421 356.34614 
L 393.809642 356.165171 
L 393.986704 355.923878 
L 394.528427 355.697666 
L 394.548596 355.516697 
L 394.660979 354.355476 
L 394.68746 354.219749 
L 394.796702 353.887971 
L 394.93209 353.67684 
L 395.044591 353.465709 
L 395.176491 353.314901 
L 395.282408 353.149013 
L 395.90711 352.72675 
L 396.152697 352.591023 
L 396.254049 352.063196 
L 396.501333 351.76158 
L 396.818928 351.278995 
L 397.157016 350.99246 
L 397.552446 350.81149 
L 397.69112 350.630521 
L 397.808538 350.524955 
L 397.921484 350.359066 
L 398.078911 350.23842 
L 398.205574 349.921724 
L 398.411829 349.529623 
L 398.802558 349.258169 
L 399.23208 348.835907 
L 399.36299 348.594614 
L 399.571808 348.338241 
L 400.059543 347.17702 
L 400.920112 346.769838 
L 401.13556 346.573788 
L 401.415729 346.377738 
L 401.480507 346.302334 
L 401.613442 346.166607 
L 401.693027 346.000718 
L 402.657208 345.518133 
L 402.746343 345.442729 
L 402.899651 345.307002 
L 403.456842 344.975224 
L 404.032536 344.749013 
L 404.128129 344.522801 
L 404.367824 344.387074 
L 404.482915 343.783842 
L 404.600883 343.648115 
L 404.70983 343.482226 
L 404.929626 343.135368 
L 405.048123 342.939318 
L 405.626326 342.109874 
L 405.747745 341.763016 
L 405.849566 341.521724 
L 405.898065 341.385996 
L 406.113766 341.235189 
L 406.369281 340.797846 
L 406.554752 340.601795 
L 406.845063 340.270018 
L 407.32354 340.073968 
L 407.430935 339.74219 
L 407.637957 339.485817 
L 407.746455 338.988151 
L 407.952749 338.611131 
L 408.982585 337.932496 
L 409.154326 336.922083 
L 409.225635 336.786355 
L 410.563899 334.418671 
L 410.907052 333.996409 
L 411.020358 333.468582 
L 411.336102 333.197127 
L 411.577195 332.895512 
L 411.775469 332.654219 
L 411.911173 332.29228 
L 412.033419 332.020826 
L 412.241997 331.357271 
L 412.42212 331.100898 
L 412.690898 330.663555 
L 412.807179 330.361939 
L 413.43668 329.909515 
L 413.608674 328.47684 
L 414.300719 327.466427 
L 414.418914 327.285458 
L 414.596505 327.029084 
L 414.734017 326.878276 
L 414.830663 326.063914 
L 415.073661 325.822621 
L 415.319188 325.460682 
L 415.891552 324.812208 
L 415.941371 324.691562 
L 416.052612 324.435189 
L 416.217994 324.374865 
L 416.593753 324.254219 
L 416.732007 323.967684 
L 416.966592 323.681149 
L 417.347518 322.987433 
L 418.106805 322.354039 
L 418.218002 321.207899 
L 418.326287 320.197487 
L 418.431257 319.383124 
L 418.459113 319.141831 
L 418.585528 318.433034 
L 418.631641 318.116338 
L 418.736533 317.256732 
L 418.812773 316.940036 
L 418.923271 316.155835 
L 419.051328 315.250987 
L 419.156294 314.270736 
L 419.188287 314.014363 
L 419.289884 313.411131 
L 419.776537 312.445961 
L 419.881505 311.601436 
L 419.967384 311.269659 
L 420.074427 310.832316 
L 420.256931 310.214004 
L 420.425436 309.520287 
L 420.749862 307.318492 
L 420.854801 306.232675 
L 420.892968 305.976302 
L 420.997931 305.207181 
L 421.026553 304.965889 
L 421.131524 303.985637 
L 421.169688 303.729264 
L 421.274656 302.522801 
L 421.30328 302.281508 
L 421.408251 300.969479 
L 421.436881 300.728187 
L 421.544169 299.551885 
L 421.570476 299.250269 
L 421.675444 298.043806 
L 421.71361 297.74219 
L 421.81927 296.520646 
L 421.87582 296.219031 
L 421.98079 295.510233 
L 422.046653 295.208618 
L 422.181088 294.726032 
L 422.61263 294.198205 
L 422.885267 294.032316 
L 423.812718 293.112388 
L 423.879514 292.810772 
L 423.984488 292.20754 
L 424.051271 291.905925 
L 424.156239 291.498743 
L 424.203951 291.227289 
L 424.308919 290.880431 
L 424.375713 290.578815 
L 424.480681 290.09623 
L 424.541441 289.794614 
L 424.614273 289.32711 
L 424.719247 288.165889 
L 424.738329 287.924596 
L 424.939458 286.944345 
L 425.263018 286.627648 
L 425.364449 286.537163 
L 425.459762 286.341113 
L 425.530248 286.235548 
L 426.007335 286.039497 
L 426.45348 285.13465 
L 426.554452 285.029084 
L 426.750713 284.697307 
L 426.842523 284.591741 
L 427.729954 283.898025 
L 428.326133 283.098743 
L 428.435118 282.827289 
L 428.634415 282.6614 
L 428.745992 282.510592 
L 429.168433 282.314542 
L 429.223867 282.028007 
L 429.350921 281.831957 
L 429.546184 281.666068 
L 429.590829 281.620826 
L 429.780002 281.485099 
L 429.888479 281.379533 
L 430.115175 281.183483 
L 430.222137 281.108079 
L 430.387264 281.032675 
L 430.625827 280.640575 
L 430.720291 280.414363 
L 431.412847 279.841293 
L 433.540767 276.674327 
L 434.027426 276.35763 
L 435.210554 274.970197 
L 435.430024 274.804309 
L 435.864625 274.578097 
L 435.956709 274.472531 
L 436.160721 274.336804 
L 436.708711 273.763734 
L 437.080854 273.628007 
L 437.977843 272.421544 
L 438.071418 272.255655 
L 438.788891 271.531777 
L 438.896904 271.320646 
L 439.006889 271.154758 
L 439.176111 270.943627 
L 439.447209 270.62693 
L 439.540422 270.476122 
L 440.15604 270.129264 
L 440.358814 269.87289 
L 440.701561 269.646679 
L 440.834163 269.450628 
L 440.965088 269.329982 
L 441.107396 269.118851 
L 441.254606 268.787074 
L 441.479544 268.651346 
L 442.790785 267.625853 
L 442.901387 267.294075 
L 443.321247 267.00754 
L 443.521367 266.494794 
L 443.636151 266.147935 
L 443.73158 265.997127 
L 443.824912 265.740754 
L 443.914419 265.589946 
L 443.98971 265.408977 
L 444.093862 265.27325 
L 444.304108 265.09228 
L 444.382095 264.941472 
L 445.014193 264.654937 
L 445.139724 264.428725 
L 445.414113 264.232675 
L 445.477673 264.112029 
L 445.639898 263.976302 
L 446.145568 263.433393 
L 446.822977 263.282585 
L 447.050616 262.99605 
L 447.186344 262.724596 
L 447.815402 261.819749 
L 448.240624 261.593537 
L 448.822829 260.839497 
L 448.979289 260.658528 
L 449.084252 260.552962 
L 449.68534 260.100539 
L 449.993778 259.723519 
L 450.286999 259.587792 
L 450.853419 258.848833 
L 451.31764 258.532136 
L 451.738006 258.079713 
L 452.270452 257.491562 
L 452.30616 257.431239 
L 452.738875 257.26535 
L 453.108466 256.87325 
L 453.502212 256.69228 
L 453.662661 256.49623 
L 453.778923 256.330341 
L 456.343668 254.219031 
L 456.450278 254.038061 
L 457.309544 253.25386 
L 457.532774 253.103052 
L 458.263552 252.30377 
L 458.504485 251.941831 
L 458.577992 251.700539 
L 458.687859 251.549731 
L 459.036368 251.308438 
L 459.093622 251.172711 
L 459.19859 250.644883 
L 459.419956 250.38851 
L 459.631984 250.20754 
L 459.742174 250.041652 
L 459.995906 249.694794 
L 460.105152 249.574147 
L 461.059382 248.820108 
L 461.383821 248.518492 
L 461.517414 248.367684 
L 463.06874 247.100898 
L 463.246774 246.829443 
L 464.013156 246.271454 
L 464.18875 246.120646 
L 464.402016 245.864273 
L 464.637657 245.638061 
L 464.770545 245.411849 
L 465.616433 244.627648 
L 465.734805 244.582406 
L 466.011569 244.310952 
L 466.232489 244.129982 
L 466.341733 244.039497 
L 468.589174 242.139318 
L 468.724323 241.98851 
L 469.222109 241.460682 
L 469.678026 241.053501 
L 469.915701 240.978097 
L 470.207902 240.827289 
L 470.754526 240.420108 
L 470.876057 240.314542 
L 471.15195 240.163734 
L 471.255883 240.07325 
L 471.789388 239.877199 
L 472.044734 239.69623 
L 472.400902 239.394614 
L 472.602042 239.183483 
L 473.402841 238.74614 
L 473.498269 238.610413 
L 473.791946 238.338959 
L 473.914487 238.233393 
L 474.079772 237.992101 
L 474.330469 237.750808 
L 474.662295 237.584919 
L 474.805424 237.419031 
L 474.805427 237.40395 
L 475.013994 237.268223 
L 475.735884 236.197487 
L 475.867154 236.016517 
L 475.960056 235.609336 
L 476.408534 235.428366 
L 477.963923 233.513106 
L 478.240567 233.362298 
L 479.088981 232.63842 
L 479.245021 232.457451 
L 479.803503 231.899461 
L 480.039211 231.733573 
L 480.132598 231.628007 
L 480.743333 230.979533 
L 480.80736 230.91921 
L 481.213003 230.753321 
L 482.218109 229.984201 
L 482.486673 229.667504 
L 482.823817 229.531777 
L 483.454067 229.124596 
L 484.090701 228.461041 
L 484.369504 228.280072 
L 484.696545 228.008618 
L 485.042053 227.842729 
L 485.188942 227.646679 
L 485.266759 227.571275 
L 485.511131 227.405386 
L 485.577922 227.329982 
L 485.9156 227.194255 
L 486.019299 227.043447 
L 487.419588 226.078276 
L 487.619846 225.927469 
L 487.759404 225.671095 
L 488.061053 225.490126 
L 488.230719 225.38456 
L 488.564255 224.977379 
L 488.602421 224.886894 
L 489.089061 224.690844 
L 489.19403 224.645601 
L 489.632974 224.464632 
L 489.998187 224.223339 
L 490.148275 224.04237 
L 490.224603 223.816158 
L 490.54905 223.620108 
L 491.472927 223.016876 
L 491.570092 222.805745 
L 491.675052 222.670018 
L 492.300121 222.217594 
L 492.333462 222.066786 
L 492.41551 221.810413 
L 492.65016 221.644524 
L 492.757219 221.599282 
L 492.858196 221.508797 
L 493.115771 221.327828 
L 494.134393 220.468223 
L 494.265242 220.362657 
L 494.591446 220.091203 
L 494.673294 220.045961 
L 494.873422 219.895153 
L 495.75756 219.156194 
L 496.17226 219.020467 
L 496.4527 218.537882 
L 496.831056 218.356912 
L 497.008462 218.115619 
L 497.22331 217.93465 
L 497.383207 217.648115 
L 497.571475 217.512388 
L 498.889692 216.396409 
L 498.987866 216.305925 
L 499.28932 216.094794 
L 499.563166 215.868582 
L 499.780663 215.747935 
L 500.209236 215.401077 
L 501.374234 214.481149 
L 501.746403 214.345422 
L 502.024926 214.073968 
L 502.749129 213.259605 
L 502.967705 213.063555 
L 503.511759 212.77702 
L 503.621946 212.656373 
L 503.786012 212.4 
L 505.271449 211.238779 
L 505.379097 211.042729 
L 505.55592 210.786355 
L 505.898312 210.077558 
L 506.729649 209.579892 
L 507.032474 209.172711 
L 507.445294 208.901257 
L 507.814619 208.750449 
L 507.955089 208.644883 
L 508.363383 208.252783 
L 508.635561 208.041652 
L 508.873728 207.694794 
L 508.96978 207.574147 
L 511.048783 206.156553 
L 511.280623 206.020826 
L 511.372354 205.91526 
L 511.946306 205.417594 
L 512.157742 205.085817 
L 515.169031 202.356194 
L 515.274666 202.175224 
L 515.483953 201.994255 
L 515.953733 201.737882 
L 516.023501 201.602154 
L 516.291093 201.451346 
L 516.949041 200.817953 
L 517.345574 200.667145 
L 517.459629 200.56158 
L 517.811018 200.244883 
L 518.070311 200.018671 
L 518.26998 199.762298 
L 518.311993 199.505925 
L 518.506742 199.355117 
L 518.603985 199.264632 
L 518.853324 199.128905 
L 519.268884 198.766966 
L 519.433007 198.480431 
L 519.65228 198.299461 
L 519.705451 198.07325 
L 519.82546 197.726391 
L 520.061896 197.485099 
L 520.324714 197.304129 
L 520.822127 196.94219 
L 521.22597 196.625494 
L 521.361432 196.474686 
L 522.124524 195.79605 
L 523.460097 194.725314 
L 523.759582 194.544345 
L 525.711094 192.719569 
L 525.817126 192.614004 
L 526.122408 192.342549 
L 526.223269 192.206822 
L 526.428223 192.056014 
L 526.672045 191.920287 
L 527.08308 191.754399 
L 527.210191 191.633752 
L 527.320313 191.482944 
L 527.391424 191.256732 
L 527.654185 191.075763 
L 527.829615 190.879713 
L 528.904816 190.276481 
L 529.517144 190.06535 
L 530.931952 189.054937 
L 531.031117 188.949372 
L 531.10361 188.768402 
L 531.398465 188.331059 
L 531.78101 188.089767 
L 531.879171 188.014363 
L 532.026981 187.863555 
L 532.101017 187.803232 
L 532.421848 187.592101 
L 532.945002 187.245242 
L 533.367169 187.124596 
L 533.592414 186.958707 
L 533.803884 186.732496 
L 533.929037 186.551526 
L 534.057342 186.370557 
L 534.346967 185.887971 
L 534.888178 185.737163 
L 535.000246 185.616517 
L 535.234077 185.375224 
L 535.330804 185.29982 
L 535.607226 185.058528 
L 535.854526 184.862478 
L 536.378676 184.621185 
L 536.484377 184.545781 
L 536.965425 184.033034 
L 537.186152 183.867145 
L 537.382132 183.550449 
L 537.496309 183.399641 
L 537.620362 183.354399 
L 537.925708 183.203591 
L 538.170438 182.99246 
L 538.400561 182.81149 
L 538.571299 182.645601 
L 538.715359 182.494794 
L 538.757734 182.298743 
L 538.841591 182.163016 
L 539.089687 181.997127 
L 539.366411 181.710592 
L 539.6236 181.514542 
L 539.756283 181.348654 
L 540.08196 181.077199 
L 540.299797 180.866068 
L 540.664506 180.443806 
L 541.474649 180.036625 
L 541.586109 179.900898 
L 542.038655 179.523878 
L 542.6219 179.056373 
L 542.886903 178.830162 
L 543.194317 178.573788 
L 544.000627 178.045961 
L 544.357362 177.864991 
L 544.60911 177.533214 
L 544.768445 177.397487 
L 544.903039 177.231598 
L 545.132086 176.975224 
L 545.703966 176.462478 
L 546.20809 176.266427 
L 547.087201 175.105206 
L 547.486034 174.954399 
L 547.555406 174.863914 
L 547.860745 174.728187 
L 547.968065 174.698025 
L 548.088243 174.532136 
L 548.209115 174.305925 
L 548.356242 174.185278 
L 549.663743 173.566966 
L 550.331283 173.129623 
L 550.627098 172.978815 
L 550.760777 172.843088 
L 551.131227 172.647038 
L 551.215901 172.481149 
L 551.366461 172.345422 
L 551.476242 172.104129 
L 551.759949 171.92316 
L 552.177535 171.606463 
L 552.296892 171.455655 
L 553.298862 170.716697 
L 553.40375 170.550808 
L 553.892997 169.977738 
L 554.259141 169.63088 
L 554.304157 169.585637 
L 554.471666 169.44991 
L 554.58431 169.268941 
L 554.701521 169.103052 
L 556.484491 167.53465 
L 556.663668 167.398923 
L 556.828894 167.248115 
L 556.981571 167.097307 
L 557.132329 166.946499 
L 557.396307 166.750449 
L 557.507032 166.58456 
L 557.868441 166.177379 
L 558.231529 166.01149 
L 558.545172 165.875763 
L 559.224283 165.212208 
L 559.529048 164.895512 
L 560.175772 164.624057 
L 560.28183 164.47325 
L 560.518112 164.277199 
L 560.654987 164.035907 
L 560.864767 163.689048 
L 560.965978 163.52316 
L 561.065166 163.32711 
L 561.189151 163.161221 
L 561.54552 162.784201 
L 561.680745 162.588151 
L 561.762256 162.482585 
L 561.960168 162.331777 
L 562.063864 162.211131 
L 562.23804 162 
L 562.343506 161.834111 
L 562.553443 161.472172 
L 562.706915 161.291203 
L 562.935036 161.064991 
L 563.377224 160.838779 
L 564.862377 159.979174 
L 565.196497 159.722801 
L 565.395402 159.556912 
L 565.656429 159.119569 
L 566.150502 158.95368 
L 566.228366 158.923519 
L 566.455679 158.772711 
L 566.544746 158.682226 
L 566.796666 158.486176 
L 566.919003 158.36553 
L 567.106314 158.214722 
L 567.18093 158.124237 
L 567.295417 157.973429 
L 567.736989 157.762298 
L 567.941153 157.521005 
L 568.030152 157.355117 
L 568.267524 157.204309 
L 568.433443 156.978097 
L 568.985305 156.46535 
L 569.563244 156.163734 
L 570.358633 155.485099 
L 570.93046 154.881867 
L 571.223355 154.685817 
L 571.37555 154.519928 
L 571.929291 154.157989 
L 572.038921 154.067504 
L 573.046843 153.434111 
L 573.46943 153.298384 
L 573.669227 152.755476 
L 573.760064 152.664991 
L 573.964577 152.45386 
L 574.136809 152.303052 
L 574.539226 151.850628 
L 574.890558 151.609336 
L 575.020853 151.413285 
L 575.103824 151.232316 
L 575.224513 151.096589 
L 575.390177 150.945781 
L 575.752407 150.749731 
L 576.150231 150.478276 
L 576.342355 150.16158 
L 576.455343 149.98061 
L 576.611386 149.799641 
L 576.752591 149.633752 
L 577.227924 149.422621 
L 577.399689 149.241652 
L 577.479586 149.105925 
L 577.64989 149.01544 
L 577.784961 148.864632 
L 577.911718 148.774147 
L 578.118596 148.593178 
L 578.226312 148.457451 
L 578.458647 148.291562 
L 578.888077 148.080431 
L 579.117022 147.944704 
L 580.984648 146.753321 
L 581.207081 146.602513 
L 581.388137 146.270736 
L 581.499847 146.15009 
L 581.635716 145.984201 
L 581.86475 145.833393 
L 582.172391 145.667504 
L 583.795225 144.310233 
L 584.086643 144.159425 
L 584.190621 144.038779 
L 584.454372 143.722083 
L 584.530015 143.601436 
L 584.726962 143.435548 
L 584.898724 143.29982 
L 585.163922 143.088689 
L 585.270869 142.847397 
L 585.379839 142.696589 
L 585.463426 142.621185 
L 585.631021 142.470377 
L 586.2286 142.033034 
L 586.444377 141.836984 
L 586.545856 141.58061 
L 587.387437 140.886894 
L 587.579061 140.630521 
L 589.22836 139.137522 
L 589.297357 139.077199 
L 589.692961 138.835907 
L 590.261019 138.398564 
L 590.464104 138.172352 
L 591.262762 137.056373 
L 591.491783 136.920646 
L 591.844766 136.558707 
L 592.518016 135.880072 
L 592.61469 135.759425 
L 593.965513 134.70377 
L 594.083562 134.371993 
L 595.098064 133.55763 
L 595.145872 133.482226 
L 595.35182 133.331418 
L 595.572602 133.059964 
L 595.813955 132.878995 
L 596.21595 132.682944 
L 596.324185 132.03447 
L 596.66361 131.83842 
L 596.98739 131.687612 
L 597.117397 131.476481 
L 597.174463 131.431239 
L 598.304074 131.039138 
L 598.414368 130.948654 
L 598.728264 130.631957 
L 598.928222 130.49623 
L 599.02898 130.405745 
L 599.881086 129.817594 
L 599.973597 129.666786 
L 600.264507 129.470736 
L 600.376497 129.319928 
L 601.864893 128.354758 
L 601.977425 128.173788 
L 602.416387 127.555476 
L 602.732139 127.404668 
L 602.889707 127.193537 
L 602.984771 127.07289 
L 603.36096 126.846679 
L 603.430867 126.665709 
L 603.539279 126.529982 
L 604.282907 126.062478 
L 604.429656 125.896589 
L 604.584361 125.700539 
L 604.687304 125.594973 
L 604.954499 125.398923 
L 606.423923 124.494075 
L 606.681485 124.343268 
L 606.9986 124.147217 
L 607.495072 123.996409 
L 607.699591 123.770197 
L 607.913941 123.574147 
L 608.027072 123.43842 
L 608.370059 123.212208 
L 609.566317 122.126391 
L 609.670151 121.91526 
L 609.992045 121.658887 
L 610.136171 121.613645 
L 610.469172 121.462837 
L 610.773324 121.14614 
L 611.27999 120.859605 
L 611.387756 120.76912 
L 611.519615 120.557989 
L 611.642523 120.37702 
L 612.213973 119.788869 
L 612.305793 119.592819 
L 612.817053 119.366607 
L 613.730154 118.899102 
L 614.101322 118.612567 
L 614.19639 118.522083 
L 614.409403 118.326032 
L 614.514353 118.235548 
L 615.314584 117.813285 
L 615.422493 117.737882 
L 615.746144 117.571993 
L 615.800465 117.451346 
L 615.949834 117.315619 
L 617.18192 116.214722 
L 617.49094 116.048833 
L 617.718151 115.822621 
L 618.027349 115.641652 
L 618.133719 115.490844 
L 618.301975 115.355117 
L 618.321093 115.324955 
L 618.512213 115.189228 
L 618.674696 115.008259 
L 618.93382 114.736804 
L 619.036478 114.405027 
L 620.029018 113.756553 
L 620.493484 113.289048 
L 620.726152 113.168402 
L 620.849678 113.092998 
L 621.097346 112.912029 
L 621.402677 112.731059 
L 621.534194 112.610413 
L 621.807553 112.36912 
L 621.949413 112.218312 
L 622.232742 112.037343 
L 622.342252 111.79605 
L 622.448388 111.705566 
L 622.636364 111.6 
L 622.636364 111.6 
" style="fill:none;stroke:#92c6ff;stroke-linecap:round;stroke-width:1.5;"/>
   </g>
   <g id="line2d_30">
    <defs>
     <path d="M 0 2.5 
C 0.663008 2.5 1.29895 2.236584 1.767767 1.767767 
C 2.236584 1.29895 2.5 0.663008 2.5 0 
C 2.5 -0.663008 2.236584 -1.29895 1.767767 -1.767767 
C 1.29895 -2.236584 0.663008 -2.5 0 -2.5 
C -0.663008 -2.5 -1.29895 -2.236584 -1.767767 -1.767767 
C -2.236584 -1.29895 -2.5 -0.663008 -2.5 0 
C -2.5 0.663008 -2.236584 1.29895 -1.767767 1.767767 
C -1.29895 2.236584 -0.663008 2.5 0 2.5 
z
" id="m0b3e7f9e35" style="stroke:#696969;"/>
    </defs>
    <g clip-path="url(#p67ddbe0ff4)">
     <use style="fill:#696969;stroke:#696969;" x="115.363636" xlink:href="#m0b3e7f9e35" y="615.6"/>
    </g>
   </g>
   <g id="line2d_31">
    <g clip-path="url(#p67ddbe0ff4)">
     <use style="fill:#696969;stroke:#696969;" x="215.534763" xlink:href="#m0b3e7f9e35" y="565.184919"/>
    </g>
   </g>
   <g id="line2d_32">
    <g clip-path="url(#p67ddbe0ff4)">
     <use style="fill:#696969;stroke:#696969;" x="274.28671" xlink:href="#m0b3e7f9e35" y="514.784919"/>
    </g>
   </g>
   <g id="line2d_33">
    <g clip-path="url(#p67ddbe0ff4)">
     <use style="fill:#696969;stroke:#696969;" x="312.637981" xlink:href="#m0b3e7f9e35" y="464.384919"/>
    </g>
   </g>
   <g id="line2d_34">
    <g clip-path="url(#p67ddbe0ff4)">
     <use style="fill:#696969;stroke:#696969;" x="352.887841" xlink:href="#m0b3e7f9e35" y="413.984919"/>
    </g>
   </g>
   <g id="line2d_35">
    <g clip-path="url(#p67ddbe0ff4)">
     <use style="fill:#696969;stroke:#696969;" x="386.647396" xlink:href="#m0b3e7f9e35" y="363.584919"/>
    </g>
   </g>
   <g id="line2d_36">
    <g clip-path="url(#p67ddbe0ff4)">
     <use style="fill:#696969;stroke:#696969;" x="419.385302" xlink:href="#m0b3e7f9e35" y="313.184919"/>
    </g>
   </g>
   <g id="line2d_37">
    <g clip-path="url(#p67ddbe0ff4)">
     <use style="fill:#696969;stroke:#696969;" x="447.156994" xlink:href="#m0b3e7f9e35" y="262.784919"/>
    </g>
   </g>
   <g id="line2d_38">
    <g clip-path="url(#p67ddbe0ff4)">
     <use style="fill:#696969;stroke:#696969;" x="503.807563" xlink:href="#m0b3e7f9e35" y="212.384919"/>
    </g>
   </g>
   <g id="line2d_39">
    <g clip-path="url(#p67ddbe0ff4)">
     <use style="fill:#696969;stroke:#696969;" x="562.238233" xlink:href="#m0b3e7f9e35" y="161.984919"/>
    </g>
   </g>
   <g id="line2d_40">
    <g clip-path="url(#p67ddbe0ff4)">
     <use style="fill:#696969;stroke:#696969;" x="622.636364" xlink:href="#m0b3e7f9e35" y="111.6"/>
    </g>
   </g>
   <g id="patch_3">
    <path d="M 90 640.8 
L 90 86.4 
" style="fill:none;stroke:#cccccc;stroke-linecap:square;stroke-linejoin:miter;"/>
   </g>
   <g id="patch_4">
    <path d="M 648 640.8 
L 648 86.4 
" style="fill:none;stroke:#cccccc;stroke-linecap:square;stroke-linejoin:miter;"/>
   </g>
   <g id="patch_5">
    <path d="M 90 640.8 
L 648 640.8 
" style="fill:none;stroke:#cccccc;stroke-linecap:square;stroke-linejoin:miter;"/>
   </g>
   <g id="patch_6">
    <path d="M 90 86.4 
L 648 86.4 
" style="fill:none;stroke:#cccccc;stroke-linecap:square;stroke-linejoin:miter;"/>
   </g>
   <g id="text_15">
    <!-- 1 (2014-06-09) -->
    <defs>
     <path id="DejaVuSans-32"/>
     <path d="M 31 75.875 
Q 24.46875 64.65625 21.28125 53.65625 
Q 18.109375 42.671875 18.109375 31.390625 
Q 18.109375 20.125 21.3125 9.0625 
Q 24.515625 -2 31 -13.1875 
L 23.1875 -13.1875 
Q 15.875 -1.703125 12.234375 9.375 
Q 8.59375 20.453125 8.59375 31.390625 
Q 8.59375 42.28125 12.203125 53.3125 
Q 15.828125 64.359375 23.1875 75.875 
z
" id="DejaVuSans-40"/>
     <path d="M 37.796875 64.3125 
L 12.890625 25.390625 
L 37.796875 25.390625 
z
M 35.203125 72.90625 
L 47.609375 72.90625 
L 47.609375 25.390625 
L 58.015625 25.390625 
L 58.015625 17.1875 
L 47.609375 17.1875 
L 47.609375 0 
L 37.796875 0 
L 37.796875 17.1875 
L 4.890625 17.1875 
L 4.890625 26.703125 
z
" id="DejaVuSans-52"/>
     <path d="M 4.890625 31.390625 
L 31.203125 31.390625 
L 31.203125 23.390625 
L 4.890625 23.390625 
z
" id="DejaVuSans-45"/>
     <path d="M 8.015625 75.875 
L 15.828125 75.875 
Q 23.140625 64.359375 26.78125 53.3125 
Q 30.421875 42.28125 30.421875 31.390625 
Q 30.421875 20.453125 26.78125 9.375 
Q 23.140625 -1.703125 15.828125 -13.1875 
L 8.015625 -13.1875 
Q 14.5 -2 17.703125 9.0625 
Q 20.90625 20.125 20.90625 31.390625 
Q 20.90625 42.671875 17.703125 53.65625 
Q 14.5 64.65625 8.015625 75.875 
z
" id="DejaVuSans-41"/>
    </defs>
    <g style="fill:#262626;" transform="translate(120.363636 623.198437)scale(0.1 -0.1)">
     <use xlink:href="#DejaVuSans-49"/>
     <use x="63.623047" xlink:href="#DejaVuSans-32"/>
     <use x="95.410156" xlink:href="#DejaVuSans-40"/>
     <use x="134.423828" xlink:href="#DejaVuSans-50"/>
     <use x="198.046875" xlink:href="#DejaVuSans-48"/>
     <use x="261.669922" xlink:href="#DejaVuSans-49"/>
     <use x="325.292969" xlink:href="#DejaVuSans-52"/>
     <use x="388.916016" xlink:href="#DejaVuSans-45"/>
     <use x="425" xlink:href="#DejaVuSans-48"/>
     <use x="488.623047" xlink:href="#DejaVuSans-54"/>
     <use x="552.246094" xlink:href="#DejaVuSans-45"/>
     <use x="588.330078" xlink:href="#DejaVuSans-48"/>
     <use x="651.953125" xlink:href="#DejaVuSans-57"/>
     <use x="715.576172" xlink:href="#DejaVuSans-41"/>
    </g>
   </g>
   <g id="text_16">
    <!-- 3344 (2015-08-27) -->
    <g style="fill:#262626;" transform="translate(220.534763 572.783357)scale(0.1 -0.1)">
     <use xlink:href="#DejaVuSans-51"/>
     <use x="63.623047" xlink:href="#DejaVuSans-51"/>
     <use x="127.246094" xlink:href="#DejaVuSans-52"/>
     <use x="190.869141" xlink:href="#DejaVuSans-52"/>
     <use x="254.492188" xlink:href="#DejaVuSans-32"/>
     <use x="286.279297" xlink:href="#DejaVuSans-40"/>
     <use x="325.292969" xlink:href="#DejaVuSans-50"/>
     <use x="388.916016" xlink:href="#DejaVuSans-48"/>
     <use x="452.539062" xlink:href="#DejaVuSans-49"/>
     <use x="516.162109" xlink:href="#DejaVuSans-53"/>
     <use x="579.785156" xlink:href="#DejaVuSans-45"/>
     <use x="615.869141" xlink:href="#DejaVuSans-48"/>
     <use x="679.492188" xlink:href="#DejaVuSans-56"/>
     <use x="743.115234" xlink:href="#DejaVuSans-45"/>
     <use x="779.199219" xlink:href="#DejaVuSans-50"/>
     <use x="842.822266" xlink:href="#DejaVuSans-55"/>
     <use x="906.445312" xlink:href="#DejaVuSans-41"/>
    </g>
   </g>
   <g id="text_17">
    <!-- 6686 (2016-05-14) -->
    <g style="fill:#262626;" transform="translate(279.28671 522.383357)scale(0.1 -0.1)">
     <use xlink:href="#DejaVuSans-54"/>
     <use x="63.623047" xlink:href="#DejaVuSans-54"/>
     <use x="127.246094" xlink:href="#DejaVuSans-56"/>
     <use x="190.869141" xlink:href="#DejaVuSans-54"/>
     <use x="254.492188" xlink:href="#DejaVuSans-32"/>
     <use x="286.279297" xlink:href="#DejaVuSans-40"/>
     <use x="325.292969" xlink:href="#DejaVuSans-50"/>
     <use x="388.916016" xlink:href="#DejaVuSans-48"/>
     <use x="452.539062" xlink:href="#DejaVuSans-49"/>
     <use x="516.162109" xlink:href="#DejaVuSans-54"/>
     <use x="579.785156" xlink:href="#DejaVuSans-45"/>
     <use x="615.869141" xlink:href="#DejaVuSans-48"/>
     <use x="679.492188" xlink:href="#DejaVuSans-53"/>
     <use x="743.115234" xlink:href="#DejaVuSans-45"/>
     <use x="779.199219" xlink:href="#DejaVuSans-49"/>
     <use x="842.822266" xlink:href="#DejaVuSans-52"/>
     <use x="906.445312" xlink:href="#DejaVuSans-41"/>
    </g>
   </g>
   <g id="text_18">
    <!-- 10028 (2016-11-01) -->
    <g style="fill:#262626;" transform="translate(317.637981 471.983357)scale(0.1 -0.1)">
     <use xlink:href="#DejaVuSans-49"/>
     <use x="63.623047" xlink:href="#DejaVuSans-48"/>
     <use x="127.246094" xlink:href="#DejaVuSans-48"/>
     <use x="190.869141" xlink:href="#DejaVuSans-50"/>
     <use x="254.492188" xlink:href="#DejaVuSans-56"/>
     <use x="318.115234" xlink:href="#DejaVuSans-32"/>
     <use x="349.902344" xlink:href="#DejaVuSans-40"/>
     <use x="388.916016" xlink:href="#DejaVuSans-50"/>
     <use x="452.539062" xlink:href="#DejaVuSans-48"/>
     <use x="516.162109" xlink:href="#DejaVuSans-49"/>
     <use x="579.785156" xlink:href="#DejaVuSans-54"/>
     <use x="643.408203" xlink:href="#DejaVuSans-45"/>
     <use x="679.492188" xlink:href="#DejaVuSans-49"/>
     <use x="743.115234" xlink:href="#DejaVuSans-49"/>
     <use x="806.738281" xlink:href="#DejaVuSans-45"/>
     <use x="842.822266" xlink:href="#DejaVuSans-48"/>
     <use x="906.445312" xlink:href="#DejaVuSans-49"/>
     <use x="970.068359" xlink:href="#DejaVuSans-41"/>
    </g>
   </g>
   <g id="text_19">
    <!-- 13370 (2017-04-28) -->
    <g style="fill:#262626;" transform="translate(357.887841 421.583357)scale(0.1 -0.1)">
     <use xlink:href="#DejaVuSans-49"/>
     <use x="63.623047" xlink:href="#DejaVuSans-51"/>
     <use x="127.246094" xlink:href="#DejaVuSans-51"/>
     <use x="190.869141" xlink:href="#DejaVuSans-55"/>
     <use x="254.492188" xlink:href="#DejaVuSans-48"/>
     <use x="318.115234" xlink:href="#DejaVuSans-32"/>
     <use x="349.902344" xlink:href="#DejaVuSans-40"/>
     <use x="388.916016" xlink:href="#DejaVuSans-50"/>
     <use x="452.539062" xlink:href="#DejaVuSans-48"/>
     <use x="516.162109" xlink:href="#DejaVuSans-49"/>
     <use x="579.785156" xlink:href="#DejaVuSans-55"/>
     <use x="643.408203" xlink:href="#DejaVuSans-45"/>
     <use x="679.492188" xlink:href="#DejaVuSans-48"/>
     <use x="743.115234" xlink:href="#DejaVuSans-52"/>
     <use x="806.738281" xlink:href="#DejaVuSans-45"/>
     <use x="842.822266" xlink:href="#DejaVuSans-50"/>
     <use x="906.445312" xlink:href="#DejaVuSans-56"/>
     <use x="970.068359" xlink:href="#DejaVuSans-41"/>
    </g>
   </g>
   <g id="text_20">
    <!-- 16712 (2017-09-25) -->
    <g style="fill:#262626;" transform="translate(391.647396 371.183357)scale(0.1 -0.1)">
     <use xlink:href="#DejaVuSans-49"/>
     <use x="63.623047" xlink:href="#DejaVuSans-54"/>
     <use x="127.246094" xlink:href="#DejaVuSans-55"/>
     <use x="190.869141" xlink:href="#DejaVuSans-49"/>
     <use x="254.492188" xlink:href="#DejaVuSans-50"/>
     <use x="318.115234" xlink:href="#DejaVuSans-32"/>
     <use x="349.902344" xlink:href="#DejaVuSans-40"/>
     <use x="388.916016" xlink:href="#DejaVuSans-50"/>
     <use x="452.539062" xlink:href="#DejaVuSans-48"/>
     <use x="516.162109" xlink:href="#DejaVuSans-49"/>
     <use x="579.785156" xlink:href="#DejaVuSans-55"/>
     <use x="643.408203" xlink:href="#DejaVuSans-45"/>
     <use x="679.492188" xlink:href="#DejaVuSans-48"/>
     <use x="743.115234" xlink:href="#DejaVuSans-57"/>
     <use x="806.738281" xlink:href="#DejaVuSans-45"/>
     <use x="842.822266" xlink:href="#DejaVuSans-50"/>
     <use x="906.445312" xlink:href="#DejaVuSans-53"/>
     <use x="970.068359" xlink:href="#DejaVuSans-41"/>
    </g>
   </g>
   <g id="text_21">
    <!-- 20054 (2018-02-17) -->
    <g style="fill:#262626;" transform="translate(424.385302 320.783357)scale(0.1 -0.1)">
     <use xlink:href="#DejaVuSans-50"/>
     <use x="63.623047" xlink:href="#DejaVuSans-48"/>
     <use x="127.246094" xlink:href="#DejaVuSans-48"/>
     <use x="190.869141" xlink:href="#DejaVuSans-53"/>
     <use x="254.492188" xlink:href="#DejaVuSans-52"/>
     <use x="318.115234" xlink:href="#DejaVuSans-32"/>
     <use x="349.902344" xlink:href="#DejaVuSans-40"/>
     <use x="388.916016" xlink:href="#DejaVuSans-50"/>
     <use x="452.539062" xlink:href="#DejaVuSans-48"/>
     <use x="516.162109" xlink:href="#DejaVuSans-49"/>
     <use x="579.785156" xlink:href="#DejaVuSans-56"/>
     <use x="643.408203" xlink:href="#DejaVuSans-45"/>
     <use x="679.492188" xlink:href="#DejaVuSans-48"/>
     <use x="743.115234" xlink:href="#DejaVuSans-50"/>
     <use x="806.738281" xlink:href="#DejaVuSans-45"/>
     <use x="842.822266" xlink:href="#DejaVuSans-49"/>
     <use x="906.445312" xlink:href="#DejaVuSans-55"/>
     <use x="970.068359" xlink:href="#DejaVuSans-41"/>
    </g>
   </g>
   <g id="text_22">
    <!-- 23396 (2018-06-21) -->
    <g style="fill:#262626;" transform="translate(452.156994 270.383357)scale(0.1 -0.1)">
     <use xlink:href="#DejaVuSans-50"/>
     <use x="63.623047" xlink:href="#DejaVuSans-51"/>
     <use x="127.246094" xlink:href="#DejaVuSans-51"/>
     <use x="190.869141" xlink:href="#DejaVuSans-57"/>
     <use x="254.492188" xlink:href="#DejaVuSans-54"/>
     <use x="318.115234" xlink:href="#DejaVuSans-32"/>
     <use x="349.902344" xlink:href="#DejaVuSans-40"/>
     <use x="388.916016" xlink:href="#DejaVuSans-50"/>
     <use x="452.539062" xlink:href="#DejaVuSans-48"/>
     <use x="516.162109" xlink:href="#DejaVuSans-49"/>
     <use x="579.785156" xlink:href="#DejaVuSans-56"/>
     <use x="643.408203" xlink:href="#DejaVuSans-45"/>
     <use x="679.492188" xlink:href="#DejaVuSans-48"/>
     <use x="743.115234" xlink:href="#DejaVuSans-54"/>
     <use x="806.738281" xlink:href="#DejaVuSans-45"/>
     <use x="842.822266" xlink:href="#DejaVuSans-50"/>
     <use x="906.445312" xlink:href="#DejaVuSans-49"/>
     <use x="970.068359" xlink:href="#DejaVuSans-41"/>
    </g>
   </g>
   <g id="text_23">
    <!-- 26738 (2019-02-27) -->
    <g style="fill:#262626;" transform="translate(508.807563 219.983357)scale(0.1 -0.1)">
     <use xlink:href="#DejaVuSans-50"/>
     <use x="63.623047" xlink:href="#DejaVuSans-54"/>
     <use x="127.246094" xlink:href="#DejaVuSans-55"/>
     <use x="190.869141" xlink:href="#DejaVuSans-51"/>
     <use x="254.492188" xlink:href="#DejaVuSans-56"/>
     <use x="318.115234" xlink:href="#DejaVuSans-32"/>
     <use x="349.902344" xlink:href="#DejaVuSans-40"/>
     <use x="388.916016" xlink:href="#DejaVuSans-50"/>
     <use x="452.539062" xlink:href="#DejaVuSans-48"/>
     <use x="516.162109" xlink:href="#DejaVuSans-49"/>
     <use x="579.785156" xlink:href="#DejaVuSans-57"/>
     <use x="643.408203" xlink:href="#DejaVuSans-45"/>
     <use x="679.492188" xlink:href="#DejaVuSans-48"/>
     <use x="743.115234" xlink:href="#DejaVuSans-50"/>
     <use x="806.738281" xlink:href="#DejaVuSans-45"/>
     <use x="842.822266" xlink:href="#DejaVuSans-50"/>
     <use x="906.445312" xlink:href="#DejaVuSans-55"/>
     <use x="970.068359" xlink:href="#DejaVuSans-41"/>
    </g>
   </g>
   <g id="text_24">
    <!-- 30080 (2019-11-14) -->
    <g style="fill:#262626;" transform="translate(567.238233 169.583357)scale(0.1 -0.1)">
     <use xlink:href="#DejaVuSans-51"/>
     <use x="63.623047" xlink:href="#DejaVuSans-48"/>
     <use x="127.246094" xlink:href="#DejaVuSans-48"/>
     <use x="190.869141" xlink:href="#DejaVuSans-56"/>
     <use x="254.492188" xlink:href="#DejaVuSans-48"/>
     <use x="318.115234" xlink:href="#DejaVuSans-32"/>
     <use x="349.902344" xlink:href="#DejaVuSans-40"/>
     <use x="388.916016" xlink:href="#DejaVuSans-50"/>
     <use x="452.539062" xlink:href="#DejaVuSans-48"/>
     <use x="516.162109" xlink:href="#DejaVuSans-49"/>
     <use x="579.785156" xlink:href="#DejaVuSans-57"/>
     <use x="643.408203" xlink:href="#DejaVuSans-45"/>
     <use x="679.492188" xlink:href="#DejaVuSans-49"/>
     <use x="743.115234" xlink:href="#DejaVuSans-49"/>
     <use x="806.738281" xlink:href="#DejaVuSans-45"/>
     <use x="842.822266" xlink:href="#DejaVuSans-49"/>
     <use x="906.445312" xlink:href="#DejaVuSans-52"/>
     <use x="970.068359" xlink:href="#DejaVuSans-41"/>
    </g>
   </g>
   <g id="text_25">
    <!-- 33421 (2020-08-08) -->
    <g style="fill:#262626;" transform="translate(627.636364 119.198437)scale(0.1 -0.1)">
     <use xlink:href="#DejaVuSans-51"/>
     <use x="63.623047" xlink:href="#DejaVuSans-51"/>
     <use x="127.246094" xlink:href="#DejaVuSans-52"/>
     <use x="190.869141" xlink:href="#DejaVuSans-50"/>
     <use x="254.492188" xlink:href="#DejaVuSans-49"/>
     <use x="318.115234" xlink:href="#DejaVuSans-32"/>
     <use x="349.902344" xlink:href="#DejaVuSans-40"/>
     <use x="388.916016" xlink:href="#DejaVuSans-50"/>
     <use x="452.539062" xlink:href="#DejaVuSans-48"/>
     <use x="516.162109" xlink:href="#DejaVuSans-50"/>
     <use x="579.785156" xlink:href="#DejaVuSans-48"/>
     <use x="643.408203" xlink:href="#DejaVuSans-45"/>
     <use x="679.492188" xlink:href="#DejaVuSans-48"/>
     <use x="743.115234" xlink:href="#DejaVuSans-56"/>
     <use x="806.738281" xlink:href="#DejaVuSans-45"/>
     <use x="842.822266" xlink:href="#DejaVuSans-48"/>
     <use x="906.445312" xlink:href="#DejaVuSans-56"/>
     <use x="970.068359" xlink:href="#DejaVuSans-41"/>
    </g>
   </g>
   <g id="text_26">
    <!-- Closed issues over time -->
    <defs>
     <path d="M 64.40625 67.28125 
L 64.40625 56.890625 
Q 59.421875 61.53125 53.78125 63.8125 
Q 48.140625 66.109375 41.796875 66.109375 
Q 29.296875 66.109375 22.65625 58.46875 
Q 16.015625 50.828125 16.015625 36.375 
Q 16.015625 21.96875 22.65625 14.328125 
Q 29.296875 6.6875 41.796875 6.6875 
Q 48.140625 6.6875 53.78125 8.984375 
Q 59.421875 11.28125 64.40625 15.921875 
L 64.40625 5.609375 
Q 59.234375 2.09375 53.4375 0.328125 
Q 47.65625 -1.421875 41.21875 -1.421875 
Q 24.65625 -1.421875 15.125 8.703125 
Q 5.609375 18.84375 5.609375 36.375 
Q 5.609375 53.953125 15.125 64.078125 
Q 24.65625 74.21875 41.21875 74.21875 
Q 47.75 74.21875 53.53125 72.484375 
Q 59.328125 70.75 64.40625 67.28125 
z
" id="DejaVuSans-67"/>
     <path d="M 9.421875 75.984375 
L 18.40625 75.984375 
L 18.40625 0 
L 9.421875 0 
z
" id="DejaVuSans-108"/>
     <path d="M 30.609375 48.390625 
Q 23.390625 48.390625 19.1875 42.75 
Q 14.984375 37.109375 14.984375 27.296875 
Q 14.984375 17.484375 19.15625 11.84375 
Q 23.34375 6.203125 30.609375 6.203125 
Q 37.796875 6.203125 41.984375 11.859375 
Q 46.1875 17.53125 46.1875 27.296875 
Q 46.1875 37.015625 41.984375 42.703125 
Q 37.796875 48.390625 30.609375 48.390625 
z
M 30.609375 56 
Q 42.328125 56 49.015625 48.375 
Q 55.71875 40.765625 55.71875 27.296875 
Q 55.71875 13.875 49.015625 6.21875 
Q 42.328125 -1.421875 30.609375 -1.421875 
Q 18.84375 -1.421875 12.171875 6.21875 
Q 5.515625 13.875 5.515625 27.296875 
Q 5.515625 40.765625 12.171875 48.375 
Q 18.84375 56 30.609375 56 
z
" id="DejaVuSans-111"/>
     <path d="M 44.28125 53.078125 
L 44.28125 44.578125 
Q 40.484375 46.53125 36.375 47.5 
Q 32.28125 48.484375 27.875 48.484375 
Q 21.1875 48.484375 17.84375 46.4375 
Q 14.5 44.390625 14.5 40.28125 
Q 14.5 37.15625 16.890625 35.375 
Q 19.28125 33.59375 26.515625 31.984375 
L 29.59375 31.296875 
Q 39.15625 29.25 43.1875 25.515625 
Q 47.21875 21.78125 47.21875 15.09375 
Q 47.21875 7.46875 41.1875 3.015625 
Q 35.15625 -1.421875 24.609375 -1.421875 
Q 20.21875 -1.421875 15.453125 -0.5625 
Q 10.6875 0.296875 5.421875 2 
L 5.421875 11.28125 
Q 10.40625 8.6875 15.234375 7.390625 
Q 20.0625 6.109375 24.8125 6.109375 
Q 31.15625 6.109375 34.5625 8.28125 
Q 37.984375 10.453125 37.984375 14.40625 
Q 37.984375 18.0625 35.515625 20.015625 
Q 33.0625 21.96875 24.703125 23.78125 
L 21.578125 24.515625 
Q 13.234375 26.265625 9.515625 29.90625 
Q 5.8125 33.546875 5.8125 39.890625 
Q 5.8125 47.609375 11.28125 51.796875 
Q 16.75 56 26.8125 56 
Q 31.78125 56 36.171875 55.265625 
Q 40.578125 54.546875 44.28125 53.078125 
z
" id="DejaVuSans-115"/>
     <path d="M 56.203125 29.59375 
L 56.203125 25.203125 
L 14.890625 25.203125 
Q 15.484375 15.921875 20.484375 11.0625 
Q 25.484375 6.203125 34.421875 6.203125 
Q 39.59375 6.203125 44.453125 7.46875 
Q 49.3125 8.734375 54.109375 11.28125 
L 54.109375 2.78125 
Q 49.265625 0.734375 44.1875 -0.34375 
Q 39.109375 -1.421875 33.890625 -1.421875 
Q 20.796875 -1.421875 13.15625 6.1875 
Q 5.515625 13.8125 5.515625 26.8125 
Q 5.515625 40.234375 12.765625 48.109375 
Q 20.015625 56 32.328125 56 
Q 43.359375 56 49.78125 48.890625 
Q 56.203125 41.796875 56.203125 29.59375 
z
M 47.21875 32.234375 
Q 47.125 39.59375 43.09375 43.984375 
Q 39.0625 48.390625 32.421875 48.390625 
Q 24.90625 48.390625 20.390625 44.140625 
Q 15.875 39.890625 15.1875 32.171875 
z
" id="DejaVuSans-101"/>
     <path d="M 45.40625 46.390625 
L 45.40625 75.984375 
L 54.390625 75.984375 
L 54.390625 0 
L 45.40625 0 
L 45.40625 8.203125 
Q 42.578125 3.328125 38.25 0.953125 
Q 33.9375 -1.421875 27.875 -1.421875 
Q 17.96875 -1.421875 11.734375 6.484375 
Q 5.515625 14.40625 5.515625 27.296875 
Q 5.515625 40.1875 11.734375 48.09375 
Q 17.96875 56 27.875 56 
Q 33.9375 56 38.25 53.625 
Q 42.578125 51.265625 45.40625 46.390625 
z
M 14.796875 27.296875 
Q 14.796875 17.390625 18.875 11.75 
Q 22.953125 6.109375 30.078125 6.109375 
Q 37.203125 6.109375 41.296875 11.75 
Q 45.40625 17.390625 45.40625 27.296875 
Q 45.40625 37.203125 41.296875 42.84375 
Q 37.203125 48.484375 30.078125 48.484375 
Q 22.953125 48.484375 18.875 42.84375 
Q 14.796875 37.203125 14.796875 27.296875 
z
" id="DejaVuSans-100"/>
     <path d="M 9.421875 54.6875 
L 18.40625 54.6875 
L 18.40625 0 
L 9.421875 0 
z
M 9.421875 75.984375 
L 18.40625 75.984375 
L 18.40625 64.59375 
L 9.421875 64.59375 
z
" id="DejaVuSans-105"/>
     <path d="M 8.5 21.578125 
L 8.5 54.6875 
L 17.484375 54.6875 
L 17.484375 21.921875 
Q 17.484375 14.15625 20.5 10.265625 
Q 23.53125 6.390625 29.59375 6.390625 
Q 36.859375 6.390625 41.078125 11.03125 
Q 45.3125 15.671875 45.3125 23.6875 
L 45.3125 54.6875 
L 54.296875 54.6875 
L 54.296875 0 
L 45.3125 0 
L 45.3125 8.40625 
Q 42.046875 3.421875 37.71875 1 
Q 33.40625 -1.421875 27.6875 -1.421875 
Q 18.265625 -1.421875 13.375 4.4375 
Q 8.5 10.296875 8.5 21.578125 
z
M 31.109375 56 
z
" id="DejaVuSans-117"/>
     <path d="M 2.984375 54.6875 
L 12.5 54.6875 
L 29.59375 8.796875 
L 46.6875 54.6875 
L 56.203125 54.6875 
L 35.6875 0 
L 23.484375 0 
z
" id="DejaVuSans-118"/>
     <path d="M 41.109375 46.296875 
Q 39.59375 47.171875 37.8125 47.578125 
Q 36.03125 48 33.890625 48 
Q 26.265625 48 22.1875 43.046875 
Q 18.109375 38.09375 18.109375 28.8125 
L 18.109375 0 
L 9.078125 0 
L 9.078125 54.6875 
L 18.109375 54.6875 
L 18.109375 46.1875 
Q 20.953125 51.171875 25.484375 53.578125 
Q 30.03125 56 36.53125 56 
Q 37.453125 56 38.578125 55.875 
Q 39.703125 55.765625 41.0625 55.515625 
z
" id="DejaVuSans-114"/>
     <path d="M 18.3125 70.21875 
L 18.3125 54.6875 
L 36.8125 54.6875 
L 36.8125 47.703125 
L 18.3125 47.703125 
L 18.3125 18.015625 
Q 18.3125 11.328125 20.140625 9.421875 
Q 21.96875 7.515625 27.59375 7.515625 
L 36.8125 7.515625 
L 36.8125 0 
L 27.59375 0 
Q 17.1875 0 13.234375 3.875 
Q 9.28125 7.765625 9.28125 18.015625 
L 9.28125 47.703125 
L 2.6875 47.703125 
L 2.6875 54.6875 
L 9.28125 54.6875 
L 9.28125 70.21875 
z
" id="DejaVuSans-116"/>
     <path d="M 52 44.1875 
Q 55.375 50.25 60.0625 53.125 
Q 64.75 56 71.09375 56 
Q 79.640625 56 84.28125 50.015625 
Q 88.921875 44.046875 88.921875 33.015625 
L 88.921875 0 
L 79.890625 0 
L 79.890625 32.71875 
Q 79.890625 40.578125 77.09375 44.375 
Q 74.3125 48.1875 68.609375 48.1875 
Q 61.625 48.1875 57.5625 43.546875 
Q 53.515625 38.921875 53.515625 30.90625 
L 53.515625 0 
L 44.484375 0 
L 44.484375 32.71875 
Q 44.484375 40.625 41.703125 44.40625 
Q 38.921875 48.1875 33.109375 48.1875 
Q 26.21875 48.1875 22.15625 43.53125 
Q 18.109375 38.875 18.109375 30.90625 
L 18.109375 0 
L 9.078125 0 
L 9.078125 54.6875 
L 18.109375 54.6875 
L 18.109375 46.1875 
Q 21.1875 51.21875 25.484375 53.609375 
Q 29.78125 56 35.6875 56 
Q 41.65625 56 45.828125 52.96875 
Q 50 49.953125 52 44.1875 
z
" id="DejaVuSans-109"/>
    </defs>
    <g style="fill:#262626;" transform="translate(297.650625 80.4)scale(0.12 -0.12)">
     <use xlink:href="#DejaVuSans-67"/>
     <use x="69.824219" xlink:href="#DejaVuSans-108"/>
     <use x="97.607422" xlink:href="#DejaVuSans-111"/>
     <use x="158.789062" xlink:href="#DejaVuSans-115"/>
     <use x="210.888672" xlink:href="#DejaVuSans-101"/>
     <use x="272.412109" xlink:href="#DejaVuSans-100"/>
     <use x="335.888672" xlink:href="#DejaVuSans-32"/>
     <use x="367.675781" xlink:href="#DejaVuSans-105"/>
     <use x="395.458984" xlink:href="#DejaVuSans-115"/>
     <use x="447.558594" xlink:href="#DejaVuSans-115"/>
     <use x="499.658203" xlink:href="#DejaVuSans-117"/>
     <use x="563.037109" xlink:href="#DejaVuSans-101"/>
     <use x="624.560547" xlink:href="#DejaVuSans-115"/>
     <use x="676.660156" xlink:href="#DejaVuSans-32"/>
     <use x="708.447266" xlink:href="#DejaVuSans-111"/>
     <use x="769.628906" xlink:href="#DejaVuSans-118"/>
     <use x="828.808594" xlink:href="#DejaVuSans-101"/>
     <use x="890.332031" xlink:href="#DejaVuSans-114"/>
     <use x="931.445312" xlink:href="#DejaVuSans-32"/>
     <use x="963.232422" xlink:href="#DejaVuSans-116"/>
     <use x="1002.441406" xlink:href="#DejaVuSans-105"/>
     <use x="1030.224609" xlink:href="#DejaVuSans-109"/>
     <use x="1127.636719" xlink:href="#DejaVuSans-101"/>
    </g>
   </g>
  </g>
 </g>
 <defs>
  <clipPath id="p67ddbe0ff4">
   <rect height="554.4" width="558" x="90" y="86.4"/>
  </clipPath>
 </defs>
</svg>
