<?xml version="1.0" encoding="utf-8" standalone="no"?>
<!DOCTYPE svg PUBLIC "-//W3C//DTD SVG 1.1//EN"
  "http://www.w3.org/Graphics/SVG/1.1/DTD/svg11.dtd">
<!-- Created with matplotlib (https://matplotlib.org/) -->
<svg height="720pt" version="1.1" viewBox="0 0 720 720" width="720pt" xmlns="http://www.w3.org/2000/svg" xmlns:xlink="http://www.w3.org/1999/xlink">
 <metadata>
  <rdf:RDF xmlns:cc="http://creativecommons.org/ns#" xmlns:dc="http://purl.org/dc/elements/1.1/" xmlns:rdf="http://www.w3.org/1999/02/22-rdf-syntax-ns#">
   <cc:Work>
    <dc:type rdf:resource="http://purl.org/dc/dcmitype/StillImage"/>
    <dc:date>2020-08-24T11:15:27.237878</dc:date>
    <dc:format>image/svg+xml</dc:format>
    <dc:creator>
     <cc:Agent>
      <dc:title>Matplotlib v3.3.0, https://matplotlib.org/</dc:title>
     </cc:Agent>
    </dc:creator>
   </cc:Work>
  </rdf:RDF>
 </metadata>
 <defs>
  <style type="text/css">*{stroke-linecap:butt;stroke-linejoin:round;}</style>
 </defs>
 <g id="figure_1">
  <g id="patch_1">
   <path d="M 0 720 
L 720 720 
L 720 0 
L 0 0 
z
" style="fill:#ffffff;"/>
  </g>
  <g id="axes_1">
   <g id="patch_2">
    <path d="M 90 640.8 
L 648 640.8 
L 648 86.4 
L 90 86.4 
z
" style="fill:#ffffff;"/>
   </g>
   <g id="matplotlib.axis_1">
    <g id="xtick_1">
     <g id="line2d_1">
      <path clip-path="url(#p5d7f6b8080)" d="M 161.81257 640.8 
L 161.81257 86.4 
" style="fill:none;stroke:#cccccc;stroke-linecap:round;stroke-width:0.8;"/>
     </g>
     <g id="line2d_2"/>
     <g id="text_1">
      <!-- 2015 -->
      <g style="fill:#262626;" transform="translate(149.08757 651.898438)scale(0.1 -0.1)">
       <defs>
        <path d="M 19.1875 8.296875 
L 53.609375 8.296875 
L 53.609375 0 
L 7.328125 0 
L 7.328125 8.296875 
Q 12.9375 14.109375 22.625 23.890625 
Q 32.328125 33.6875 34.8125 36.53125 
Q 39.546875 41.84375 41.421875 45.53125 
Q 43.3125 49.21875 43.3125 52.78125 
Q 43.3125 58.59375 39.234375 62.25 
Q 35.15625 65.921875 28.609375 65.921875 
Q 23.96875 65.921875 18.8125 64.3125 
Q 13.671875 62.703125 7.8125 59.421875 
L 7.8125 69.390625 
Q 13.765625 71.78125 18.9375 73 
Q 24.125 74.21875 28.421875 74.21875 
Q 39.75 74.21875 46.484375 68.546875 
Q 53.21875 62.890625 53.21875 53.421875 
Q 53.21875 48.921875 51.53125 44.890625 
Q 49.859375 40.875 45.40625 35.40625 
Q 44.1875 33.984375 37.640625 27.21875 
Q 31.109375 20.453125 19.1875 8.296875 
z
" id="DejaVuSans-50"/>
        <path d="M 31.78125 66.40625 
Q 24.171875 66.40625 20.328125 58.90625 
Q 16.5 51.421875 16.5 36.375 
Q 16.5 21.390625 20.328125 13.890625 
Q 24.171875 6.390625 31.78125 6.390625 
Q 39.453125 6.390625 43.28125 13.890625 
Q 47.125 21.390625 47.125 36.375 
Q 47.125 51.421875 43.28125 58.90625 
Q 39.453125 66.40625 31.78125 66.40625 
z
M 31.78125 74.21875 
Q 44.046875 74.21875 50.515625 64.515625 
Q 56.984375 54.828125 56.984375 36.375 
Q 56.984375 17.96875 50.515625 8.265625 
Q 44.046875 -1.421875 31.78125 -1.421875 
Q 19.53125 -1.421875 13.0625 8.265625 
Q 6.59375 17.96875 6.59375 36.375 
Q 6.59375 54.828125 13.0625 64.515625 
Q 19.53125 74.21875 31.78125 74.21875 
z
" id="DejaVuSans-48"/>
        <path d="M 12.40625 8.296875 
L 28.515625 8.296875 
L 28.515625 63.921875 
L 10.984375 60.40625 
L 10.984375 69.390625 
L 28.421875 72.90625 
L 38.28125 72.90625 
L 38.28125 8.296875 
L 54.390625 8.296875 
L 54.390625 0 
L 12.40625 0 
z
" id="DejaVuSans-49"/>
        <path d="M 10.796875 72.90625 
L 49.515625 72.90625 
L 49.515625 64.59375 
L 19.828125 64.59375 
L 19.828125 46.734375 
Q 21.96875 47.46875 24.109375 47.828125 
Q 26.265625 48.1875 28.421875 48.1875 
Q 40.625 48.1875 47.75 41.5 
Q 54.890625 34.8125 54.890625 23.390625 
Q 54.890625 11.625 47.5625 5.09375 
Q 40.234375 -1.421875 26.90625 -1.421875 
Q 22.3125 -1.421875 17.546875 -0.640625 
Q 12.796875 0.140625 7.71875 1.703125 
L 7.71875 11.625 
Q 12.109375 9.234375 16.796875 8.0625 
Q 21.484375 6.890625 26.703125 6.890625 
Q 35.15625 6.890625 40.078125 11.328125 
Q 45.015625 15.765625 45.015625 23.390625 
Q 45.015625 31 40.078125 35.4375 
Q 35.15625 39.890625 26.703125 39.890625 
Q 22.75 39.890625 18.8125 39.015625 
Q 14.890625 38.140625 10.796875 36.28125 
z
" id="DejaVuSans-53"/>
       </defs>
       <use xlink:href="#DejaVuSans-50"/>
       <use x="63.623047" xlink:href="#DejaVuSans-48"/>
       <use x="127.246094" xlink:href="#DejaVuSans-49"/>
       <use x="190.869141" xlink:href="#DejaVuSans-53"/>
      </g>
     </g>
    </g>
    <g id="xtick_2">
     <g id="line2d_3">
      <path clip-path="url(#p5d7f6b8080)" d="M 243.366917 640.8 
L 243.366917 86.4 
" style="fill:none;stroke:#cccccc;stroke-linecap:round;stroke-width:0.8;"/>
     </g>
     <g id="line2d_4"/>
     <g id="text_2">
      <!-- 2016 -->
      <g style="fill:#262626;" transform="translate(230.641917 651.898438)scale(0.1 -0.1)">
       <defs>
        <path d="M 33.015625 40.375 
Q 26.375 40.375 22.484375 35.828125 
Q 18.609375 31.296875 18.609375 23.390625 
Q 18.609375 15.53125 22.484375 10.953125 
Q 26.375 6.390625 33.015625 6.390625 
Q 39.65625 6.390625 43.53125 10.953125 
Q 47.40625 15.53125 47.40625 23.390625 
Q 47.40625 31.296875 43.53125 35.828125 
Q 39.65625 40.375 33.015625 40.375 
z
M 52.59375 71.296875 
L 52.59375 62.3125 
Q 48.875 64.0625 45.09375 64.984375 
Q 41.3125 65.921875 37.59375 65.921875 
Q 27.828125 65.921875 22.671875 59.328125 
Q 17.53125 52.734375 16.796875 39.40625 
Q 19.671875 43.65625 24.015625 45.921875 
Q 28.375 48.1875 33.59375 48.1875 
Q 44.578125 48.1875 50.953125 41.515625 
Q 57.328125 34.859375 57.328125 23.390625 
Q 57.328125 12.15625 50.6875 5.359375 
Q 44.046875 -1.421875 33.015625 -1.421875 
Q 20.359375 -1.421875 13.671875 8.265625 
Q 6.984375 17.96875 6.984375 36.375 
Q 6.984375 53.65625 15.1875 63.9375 
Q 23.390625 74.21875 37.203125 74.21875 
Q 40.921875 74.21875 44.703125 73.484375 
Q 48.484375 72.75 52.59375 71.296875 
z
" id="DejaVuSans-54"/>
       </defs>
       <use xlink:href="#DejaVuSans-50"/>
       <use x="63.623047" xlink:href="#DejaVuSans-48"/>
       <use x="127.246094" xlink:href="#DejaVuSans-49"/>
       <use x="190.869141" xlink:href="#DejaVuSans-54"/>
      </g>
     </g>
    </g>
    <g id="xtick_3">
     <g id="line2d_5">
      <path clip-path="url(#p5d7f6b8080)" d="M 325.1447 640.8 
L 325.1447 86.4 
" style="fill:none;stroke:#cccccc;stroke-linecap:round;stroke-width:0.8;"/>
     </g>
     <g id="line2d_6"/>
     <g id="text_3">
      <!-- 2017 -->
      <g style="fill:#262626;" transform="translate(312.4197 651.898438)scale(0.1 -0.1)">
       <defs>
        <path d="M 8.203125 72.90625 
L 55.078125 72.90625 
L 55.078125 68.703125 
L 28.609375 0 
L 18.3125 0 
L 43.21875 64.59375 
L 8.203125 64.59375 
z
" id="DejaVuSans-55"/>
       </defs>
       <use xlink:href="#DejaVuSans-50"/>
       <use x="63.623047" xlink:href="#DejaVuSans-48"/>
       <use x="127.246094" xlink:href="#DejaVuSans-49"/>
       <use x="190.869141" xlink:href="#DejaVuSans-55"/>
      </g>
     </g>
    </g>
    <g id="xtick_4">
     <g id="line2d_7">
      <path clip-path="url(#p5d7f6b8080)" d="M 406.699047 640.8 
L 406.699047 86.4 
" style="fill:none;stroke:#cccccc;stroke-linecap:round;stroke-width:0.8;"/>
     </g>
     <g id="line2d_8"/>
     <g id="text_4">
      <!-- 2018 -->
      <g style="fill:#262626;" transform="translate(393.974047 651.898438)scale(0.1 -0.1)">
       <defs>
        <path d="M 31.78125 34.625 
Q 24.75 34.625 20.71875 30.859375 
Q 16.703125 27.09375 16.703125 20.515625 
Q 16.703125 13.921875 20.71875 10.15625 
Q 24.75 6.390625 31.78125 6.390625 
Q 38.8125 6.390625 42.859375 10.171875 
Q 46.921875 13.96875 46.921875 20.515625 
Q 46.921875 27.09375 42.890625 30.859375 
Q 38.875 34.625 31.78125 34.625 
z
M 21.921875 38.8125 
Q 15.578125 40.375 12.03125 44.71875 
Q 8.5 49.078125 8.5 55.328125 
Q 8.5 64.0625 14.71875 69.140625 
Q 20.953125 74.21875 31.78125 74.21875 
Q 42.671875 74.21875 48.875 69.140625 
Q 55.078125 64.0625 55.078125 55.328125 
Q 55.078125 49.078125 51.53125 44.71875 
Q 48 40.375 41.703125 38.8125 
Q 48.828125 37.15625 52.796875 32.3125 
Q 56.78125 27.484375 56.78125 20.515625 
Q 56.78125 9.90625 50.3125 4.234375 
Q 43.84375 -1.421875 31.78125 -1.421875 
Q 19.734375 -1.421875 13.25 4.234375 
Q 6.78125 9.90625 6.78125 20.515625 
Q 6.78125 27.484375 10.78125 32.3125 
Q 14.796875 37.15625 21.921875 38.8125 
z
M 18.3125 54.390625 
Q 18.3125 48.734375 21.84375 45.5625 
Q 25.390625 42.390625 31.78125 42.390625 
Q 38.140625 42.390625 41.71875 45.5625 
Q 45.3125 48.734375 45.3125 54.390625 
Q 45.3125 60.0625 41.71875 63.234375 
Q 38.140625 66.40625 31.78125 66.40625 
Q 25.390625 66.40625 21.84375 63.234375 
Q 18.3125 60.0625 18.3125 54.390625 
z
" id="DejaVuSans-56"/>
       </defs>
       <use xlink:href="#DejaVuSans-50"/>
       <use x="63.623047" xlink:href="#DejaVuSans-48"/>
       <use x="127.246094" xlink:href="#DejaVuSans-49"/>
       <use x="190.869141" xlink:href="#DejaVuSans-56"/>
      </g>
     </g>
    </g>
    <g id="xtick_5">
     <g id="line2d_9">
      <path clip-path="url(#p5d7f6b8080)" d="M 488.253394 640.8 
L 488.253394 86.4 
" style="fill:none;stroke:#cccccc;stroke-linecap:round;stroke-width:0.8;"/>
     </g>
     <g id="line2d_10"/>
     <g id="text_5">
      <!-- 2019 -->
      <g style="fill:#262626;" transform="translate(475.528394 651.898438)scale(0.1 -0.1)">
       <defs>
        <path d="M 10.984375 1.515625 
L 10.984375 10.5 
Q 14.703125 8.734375 18.5 7.8125 
Q 22.3125 6.890625 25.984375 6.890625 
Q 35.75 6.890625 40.890625 13.453125 
Q 46.046875 20.015625 46.78125 33.40625 
Q 43.953125 29.203125 39.59375 26.953125 
Q 35.25 24.703125 29.984375 24.703125 
Q 19.046875 24.703125 12.671875 31.3125 
Q 6.296875 37.9375 6.296875 49.421875 
Q 6.296875 60.640625 12.9375 67.421875 
Q 19.578125 74.21875 30.609375 74.21875 
Q 43.265625 74.21875 49.921875 64.515625 
Q 56.59375 54.828125 56.59375 36.375 
Q 56.59375 19.140625 48.40625 8.859375 
Q 40.234375 -1.421875 26.421875 -1.421875 
Q 22.703125 -1.421875 18.890625 -0.6875 
Q 15.09375 0.046875 10.984375 1.515625 
z
M 30.609375 32.421875 
Q 37.25 32.421875 41.125 36.953125 
Q 45.015625 41.5 45.015625 49.421875 
Q 45.015625 57.28125 41.125 61.84375 
Q 37.25 66.40625 30.609375 66.40625 
Q 23.96875 66.40625 20.09375 61.84375 
Q 16.21875 57.28125 16.21875 49.421875 
Q 16.21875 41.5 20.09375 36.953125 
Q 23.96875 32.421875 30.609375 32.421875 
z
" id="DejaVuSans-57"/>
       </defs>
       <use xlink:href="#DejaVuSans-50"/>
       <use x="63.623047" xlink:href="#DejaVuSans-48"/>
       <use x="127.246094" xlink:href="#DejaVuSans-49"/>
       <use x="190.869141" xlink:href="#DejaVuSans-57"/>
      </g>
     </g>
    </g>
    <g id="xtick_6">
     <g id="line2d_11">
      <path clip-path="url(#p5d7f6b8080)" d="M 569.807741 640.8 
L 569.807741 86.4 
" style="fill:none;stroke:#cccccc;stroke-linecap:round;stroke-width:0.8;"/>
     </g>
     <g id="line2d_12"/>
     <g id="text_6">
      <!-- 2020 -->
      <g style="fill:#262626;" transform="translate(557.082741 651.898438)scale(0.1 -0.1)">
       <use xlink:href="#DejaVuSans-50"/>
       <use x="63.623047" xlink:href="#DejaVuSans-48"/>
       <use x="127.246094" xlink:href="#DejaVuSans-50"/>
       <use x="190.869141" xlink:href="#DejaVuSans-48"/>
      </g>
     </g>
    </g>
   </g>
   <g id="matplotlib.axis_2">
    <g id="ytick_1">
     <g id="line2d_13">
      <path clip-path="url(#p5d7f6b8080)" d="M 90 615.605574 
L 648 615.605574 
" style="fill:none;stroke:#cccccc;stroke-linecap:round;stroke-width:0.8;"/>
     </g>
     <g id="line2d_14"/>
     <g id="text_7">
      <!-- 0 -->
      <g style="fill:#262626;" transform="translate(80.1375 619.404793)scale(0.1 -0.1)">
       <use xlink:href="#DejaVuSans-48"/>
      </g>
     </g>
    </g>
    <g id="ytick_2">
     <g id="line2d_15">
      <path clip-path="url(#p5d7f6b8080)" d="M 90 504.117182 
L 648 504.117182 
" style="fill:none;stroke:#cccccc;stroke-linecap:round;stroke-width:0.8;"/>
     </g>
     <g id="line2d_16"/>
     <g id="text_8">
      <!-- 20000 -->
      <g style="fill:#262626;" transform="translate(54.6875 507.916401)scale(0.1 -0.1)">
       <use xlink:href="#DejaVuSans-50"/>
       <use x="63.623047" xlink:href="#DejaVuSans-48"/>
       <use x="127.246094" xlink:href="#DejaVuSans-48"/>
       <use x="190.869141" xlink:href="#DejaVuSans-48"/>
       <use x="254.492188" xlink:href="#DejaVuSans-48"/>
      </g>
     </g>
    </g>
    <g id="ytick_3">
     <g id="line2d_17">
      <path clip-path="url(#p5d7f6b8080)" d="M 90 392.62879 
L 648 392.62879 
" style="fill:none;stroke:#cccccc;stroke-linecap:round;stroke-width:0.8;"/>
     </g>
     <g id="line2d_18"/>
     <g id="text_9">
      <!-- 40000 -->
      <g style="fill:#262626;" transform="translate(54.6875 396.428009)scale(0.1 -0.1)">
       <defs>
        <path d="M 37.796875 64.3125 
L 12.890625 25.390625 
L 37.796875 25.390625 
z
M 35.203125 72.90625 
L 47.609375 72.90625 
L 47.609375 25.390625 
L 58.015625 25.390625 
L 58.015625 17.1875 
L 47.609375 17.1875 
L 47.609375 0 
L 37.796875 0 
L 37.796875 17.1875 
L 4.890625 17.1875 
L 4.890625 26.703125 
z
" id="DejaVuSans-52"/>
       </defs>
       <use xlink:href="#DejaVuSans-52"/>
       <use x="63.623047" xlink:href="#DejaVuSans-48"/>
       <use x="127.246094" xlink:href="#DejaVuSans-48"/>
       <use x="190.869141" xlink:href="#DejaVuSans-48"/>
       <use x="254.492188" xlink:href="#DejaVuSans-48"/>
      </g>
     </g>
    </g>
    <g id="ytick_4">
     <g id="line2d_19">
      <path clip-path="url(#p5d7f6b8080)" d="M 90 281.140398 
L 648 281.140398 
" style="fill:none;stroke:#cccccc;stroke-linecap:round;stroke-width:0.8;"/>
     </g>
     <g id="line2d_20"/>
     <g id="text_10">
      <!-- 60000 -->
      <g style="fill:#262626;" transform="translate(54.6875 284.939617)scale(0.1 -0.1)">
       <use xlink:href="#DejaVuSans-54"/>
       <use x="63.623047" xlink:href="#DejaVuSans-48"/>
       <use x="127.246094" xlink:href="#DejaVuSans-48"/>
       <use x="190.869141" xlink:href="#DejaVuSans-48"/>
       <use x="254.492188" xlink:href="#DejaVuSans-48"/>
      </g>
     </g>
    </g>
    <g id="ytick_5">
     <g id="line2d_21">
      <path clip-path="url(#p5d7f6b8080)" d="M 90 169.652006 
L 648 169.652006 
" style="fill:none;stroke:#cccccc;stroke-linecap:round;stroke-width:0.8;"/>
     </g>
     <g id="line2d_22"/>
     <g id="text_11">
      <!-- 80000 -->
      <g style="fill:#262626;" transform="translate(54.6875 173.451225)scale(0.1 -0.1)">
       <use xlink:href="#DejaVuSans-56"/>
       <use x="63.623047" xlink:href="#DejaVuSans-48"/>
       <use x="127.246094" xlink:href="#DejaVuSans-48"/>
       <use x="190.869141" xlink:href="#DejaVuSans-48"/>
       <use x="254.492188" xlink:href="#DejaVuSans-48"/>
      </g>
     </g>
    </g>
   </g>
   <g id="line2d_23">
    <path clip-path="url(#p5d7f6b8080)" d="M 115.363636 615.6 
L 116.646894 615.293407 
L 116.906944 615.137323 
L 117.7451 614.992388 
L 118.275134 614.83073 
L 118.416776 614.769411 
L 119.305652 614.635625 
L 119.408824 614.529711 
L 120.012534 614.395925 
L 120.279988 614.340181 
L 120.874392 614.223118 
L 120.972771 614.106056 
L 122.760669 613.899802 
L 123.209736 613.721421 
L 123.828112 613.58206 
L 124.248708 613.409253 
L 124.890374 613.214148 
L 125.752726 613.041341 
L 125.849054 612.980023 
L 126.083086 612.86296 
L 126.963661 612.550792 
L 127.423253 612.372411 
L 127.848315 612.244199 
L 127.854961 612.227476 
L 128.490902 612.110413 
L 128.751534 611.920883 
L 129.366339 611.792671 
L 129.412389 611.742502 
L 130.286634 611.608716 
L 130.522095 611.51395 
L 130.937675 611.391313 
L 131.397359 611.341143 
L 131.648467 611.224081 
L 131.744169 611.173911 
L 132.132215 611.017827 
L 132.143133 611.001104 
L 133.163897 610.839446 
L 133.260929 610.761404 
L 133.431048 610.644341 
L 133.493062 610.60532 
L 133.813559 610.477108 
L 134.08842 610.309876 
L 135.171042 610.192813 
L 135.286795 610.103622 
L 135.644868 609.975411 
L 135.719202 609.93639 
L 136.498137 609.791455 
L 136.588711 609.652094 
L 136.983061 609.529457 
L 137.065976 609.490436 
L 138.298239 609.300906 
L 138.393512 609.250736 
L 139.437936 609.089078 
L 139.513457 609.005462 
L 139.885857 608.871676 
L 140.185949 608.732315 
L 140.979291 608.581806 
L 141.074146 608.531636 
L 141.477276 608.392275 
L 141.643671 608.369978 
L 141.95761 608.180448 
L 142.604847 608.052236 
L 143.102404 607.723345 
L 143.30156 607.600708 
L 143.421639 607.52824 
L 143.636883 607.43905 
L 144.326001 607.316412 
L 144.384364 607.243945 
L 144.600927 607.126882 
L 146.622694 606.352038 
L 147.309966 606.234975 
L 147.351464 606.212677 
L 147.683436 606.084466 
L 147.73486 606.028722 
L 148.00483 605.911659 
L 148.112336 605.878212 
L 148.328226 605.822468 
L 148.856506 605.655235 
L 149.762653 605.18141 
L 150.419515 605.053198 
L 150.473856 605.003028 
L 150.685981 604.880391 
L 150.903395 604.774477 
L 151.266189 604.607245 
L 151.359666 604.495756 
L 151.939292 604.367544 
L 152.115724 604.244907 
L 152.882445 603.876996 
L 152.906245 603.865847 
L 153.519358 603.748784 
L 153.693406 603.687465 
L 154.252722 603.481212 
L 155.103914 603.364149 
L 155.164351 603.330702 
L 155.336283 603.21364 
L 155.477933 603.124449 
L 155.614441 603.012961 
L 155.970124 602.884749 
L 156.066541 602.82343 
L 156.857741 602.678495 
L 157.130686 602.433221 
L 157.318196 602.316158 
L 157.386078 602.243691 
L 157.62613 602.121053 
L 157.638624 602.115479 
L 158.221172 601.998416 
L 158.260713 601.886928 
L 158.458292 601.769865 
L 158.476216 601.613781 
L 158.741668 601.491144 
L 158.850912 601.4354 
L 159.174176 601.123232 
L 159.812297 600.983872 
L 159.841615 600.967149 
L 161.54506 600.772044 
L 161.605236 600.733023 
L 162.935676 600.56579 
L 162.982303 600.526769 
L 163.15769 600.409707 
L 163.2222 600.353962 
L 163.337324 600.2369 
L 163.435696 600.103113 
L 163.614835 599.980476 
L 163.639385 599.963753 
L 163.823136 599.84669 
L 163.84228 599.807669 
L 164.475087 599.690606 
L 164.552871 599.60699 
L 164.786393 599.484353 
L 164.897452 599.41746 
L 165.005632 599.194483 
L 165.155912 599.07742 
L 165.186016 598.98823 
L 165.377065 598.871167 
L 165.405889 598.848869 
L 166.259192 598.731806 
L 166.514111 598.402916 
L 166.711739 598.285853 
L 166.772897 598.202236 
L 166.953301 598.085174 
L 167.029743 598.046153 
L 167.670809 597.92909 
L 167.779833 597.856622 
L 167.851454 597.628071 
L 167.904272 597.594625 
L 168.038008 597.477562 
L 168.141153 597.327053 
L 168.291267 597.20999 
L 168.778367 596.975864 
L 169.145216 596.858801 
L 169.24005 596.708292 
L 169.379874 596.591229 
L 169.486555 596.44072 
L 169.615589 596.318083 
L 170.144992 595.688173 
L 170.758801 595.559962 
L 171.025145 595.359282 
L 171.172329 595.24222 
L 171.40394 594.941201 
L 171.486224 594.885457 
L 171.619223 594.76282 
L 171.731208 594.679203 
L 172.481623 594.56214 
L 172.58241 594.344738 
L 172.747841 594.227675 
L 172.823611 594.127336 
L 172.945407 594.010273 
L 173.011543 593.876487 
L 173.151056 593.748275 
L 173.218124 593.536447 
L 173.826867 593.402661 
L 173.897443 593.257726 
L 174.238174 593.135089 
L 174.530074 592.928835 
L 174.667097 592.817347 
L 174.772521 592.689135 
L 174.969171 592.572073 
L 175.398021 592.45501 
L 175.888982 591.836249 
L 175.948764 591.769356 
L 176.088518 591.652293 
L 176.290891 591.412593 
L 176.519184 591.301105 
L 176.956352 591.178468 
L 177.050684 591.000086 
L 177.162123 590.883023 
L 177.511206 590.180647 
L 177.614354 590.063584 
L 177.719289 589.851756 
L 177.859149 589.712395 
L 177.903149 589.545163 
L 178.501902 589.422526 
L 178.572238 589.13823 
L 178.734178 589.021167 
L 178.806764 588.853935 
L 178.977361 588.736872 
L 179.661002 588.034495 
L 180.107314 587.867262 
L 180.174413 587.7502 
L 180.283863 587.633137 
L 180.421532 587.365565 
L 180.523876 587.242927 
L 180.592578 586.98093 
L 180.747856 586.858293 
L 180.829082 586.573997 
L 180.962766 586.445785 
L 181.164624 586.222809 
L 181.633208 586.100171 
L 181.727677 585.882769 
L 181.854694 585.754557 
L 182.070218 585.44239 
L 182.153944 585.213839 
L 182.277398 585.146946 
L 182.344284 584.951841 
L 182.444202 584.790183 
L 182.576317 584.628525 
L 182.602759 584.589504 
L 183.231444 584.455718 
L 183.343051 584.349804 
L 183.454425 584.210443 
L 183.57003 584.015339 
L 183.871494 583.719894 
L 183.966028 583.491343 
L 184.12196 583.346408 
L 184.21916 583.223771 
L 184.765925 583.08441 
L 184.949761 582.906029 
L 185.037155 582.733222 
L 185.14862 582.621734 
L 185.256935 582.476799 
L 185.406162 582.370885 
L 185.476723 582.22595 
L 186.014059 581.768847 
L 186.371834 581.50685 
L 186.473648 581.322894 
L 186.579946 581.189108 
L 186.637864 581.072045 
L 186.774217 580.954982 
L 186.9247 580.726431 
L 187.026643 580.58707 
L 187.15575 580.39754 
L 187.248295 580.241456 
L 187.333356 580.163415 
L 187.888904 580.046352 
L 188.044523 579.739759 
L 188.122721 579.594824 
L 188.22508 579.410868 
L 188.343556 579.260359 
L 188.511521 579.137721 
L 188.587668 578.987212 
L 188.74553 578.803256 
L 188.8217 578.663896 
L 188.859963 578.574705 
L 189.418061 578.440919 
L 189.530653 578.123177 
L 189.693602 577.972668 
L 189.936915 577.588033 
L 190.123215 577.404077 
L 190.255033 577.169951 
L 190.380214 577.052888 
L 190.438644 576.980421 
L 190.992195 576.846635 
L 191.317988 576.216725 
L 191.475586 576.082939 
L 191.557921 575.921281 
L 191.700303 575.79307 
L 191.777468 575.603539 
L 191.924735 575.480902 
L 192.017352 575.308095 
L 192.568661 575.179883 
L 192.68489 574.750653 
L 192.824062 574.611293 
L 192.869597 574.522102 
L 193.244616 574.399465 
L 193.350863 574.087297 
L 193.506531 573.91449 
L 193.586239 573.77513 
L 194.365986 573.641344 
L 194.552302 573.396069 
L 194.618666 573.267857 
L 194.870976 572.755011 
L 194.98864 572.598927 
L 195.071262 572.481864 
L 195.166114 572.348078 
L 195.714038 572.208718 
L 195.810966 571.991315 
L 195.961975 571.863104 
L 196.067101 571.612255 
L 196.16907 571.489618 
L 196.27123 571.244343 
L 196.399109 571.110557 
L 196.59962 570.876431 
L 196.705212 570.64788 
L 197.301061 570.419329 
L 197.407661 570.296692 
L 197.514324 570.162906 
L 197.624433 569.973376 
L 197.75128 569.850738 
L 198.053235 569.365764 
L 198.203238 569.220829 
L 198.276876 568.986703 
L 198.840945 568.858492 
L 198.947907 568.663387 
L 199.105112 568.507303 
L 199.265779 568.306624 
L 199.323868 568.178412 
L 199.415239 568.033477 
L 199.547408 567.888543 
L 199.656602 567.598673 
L 199.749765 567.420291 
L 199.844715 567.236335 
L 200.64828 566.913019 
L 200.805304 566.756935 
L 200.879801 566.634298 
L 200.984806 566.467066 
L 201.081561 566.344428 
L 201.161776 566.227366 
L 201.322761 566.093579 
L 201.419315 565.954219 
L 201.975708 565.826007 
L 202.092417 565.614179 
L 202.244737 565.402351 
L 202.352411 565.246268 
L 202.431692 565.12363 
L 202.521121 564.956398 
L 203.545642 564.633082 
L 203.900229 564.058916 
L 204.033761 563.780195 
L 204.154776 563.440156 
L 204.25323 563.239477 
L 204.339807 563.127988 
L 204.445823 563.010925 
L 204.528316 562.771225 
L 205.095842 562.592844 
L 205.249974 562.275102 
L 205.336869 562.158039 
L 205.472602 561.845872 
L 205.585706 561.706511 
L 205.742399 561.5783 
L 206.017854 561.143495 
L 206.114669 560.99856 
L 206.274273 560.881497 
L 206.330999 560.747711 
L 206.661675 560.619499 
L 206.930176 560.257162 
L 207.170285 560.134525 
L 207.282233 559.978441 
L 207.391063 559.738741 
L 207.66837 559.075385 
L 208.228932 558.902578 
L 208.681528 558.478922 
L 208.801385 558.294966 
L 208.922002 558.177904 
L 209.201054 557.726376 
L 209.860808 557.458803 
L 210.143869 557.113189 
L 210.253089 557.035148 
L 210.359095 556.851192 
L 210.465005 556.700682 
L 210.580418 556.555748 
L 210.693202 556.444259 
L 211.312287 556.210133 
L 211.412202 555.886817 
L 211.583998 555.702861 
L 211.691798 555.563501 
L 211.799461 555.401843 
L 212.241612 554.838826 
L 212.854286 554.560105 
L 214.17566 552.97697 
L 214.484486 552.859907 
L 214.585141 552.6871 
L 214.740419 552.531017 
L 214.852432 551.934554 
L 214.962043 551.800768 
L 215.076133 551.393835 
L 215.191415 551.271198 
L 215.408709 550.975753 
L 215.598056 550.858691 
L 216.029413 550.741628 
L 216.597604 550.005804 
L 216.764819 549.888742 
L 216.858815 549.743807 
L 216.928306 549.615595 
L 217.035343 549.437214 
L 217.761002 549.292279 
L 218.008381 549.019132 
L 218.136001 548.80173 
L 218.625125 548.327904 
L 219.158717 548.205267 
L 219.29521 548.010162 
L 219.466281 547.781611 
L 219.575468 547.631102 
L 220.321596 546.622132 
L 220.795501 546.360134 
L 220.971776 546.153881 
L 221.66055 545.222952 
L 221.76602 545.089166 
L 222.358993 544.95538 
L 222.610419 544.648787 
L 222.720661 544.459257 
L 223.107314 543.896241 
L 223.174759 543.70671 
L 223.397309 543.388968 
L 223.875122 543.216161 
L 223.993277 542.775782 
L 224.261362 542.480338 
L 224.354416 542.335403 
L 224.671445 541.722217 
L 224.776174 541.515963 
L 225.016272 541.265115 
L 225.037827 541.237242 
L 225.443584 541.12018 
L 225.553319 540.858182 
L 225.70373 540.646354 
L 225.839654 540.451249 
L 226.008724 540.205975 
L 226.130903 539.932828 
L 226.557366 539.34194 
L 226.981355 539.141261 
L 227.697038 538.0431 
L 227.891479 537.875867 
L 228.080702 537.546977 
L 228.429524 537.385318 
L 228.592845 537.140044 
L 228.881761 536.538007 
L 229.500939 535.300486 
L 229.57149 535.222444 
L 230.171942 535.06636 
L 230.309761 534.860106 
L 230.883688 534.224623 
L 230.956331 534.113134 
L 231.182087 533.984923 
L 231.39684 533.86786 
L 231.672096 533.739648 
L 231.759645 533.617011 
L 231.92762 533.472076 
L 232.051134 533.377311 
L 232.281617 533.132036 
L 232.375168 533.009399 
L 232.577146 532.836592 
L 232.996847 532.630339 
L 233.264524 532.507701 
L 233.376444 532.407362 
L 234.285978 531.364945 
L 234.72464 531.197713 
L 234.889107 530.852099 
L 235.052725 530.707164 
L 235.242897 530.478613 
L 235.528164 530.233338 
L 235.760525 530.010361 
L 236.331762 529.871001 
L 236.891768 529.057136 
L 237.019652 528.778415 
L 237.098506 528.650203 
L 237.215976 528.516417 
L 237.340131 528.354759 
L 237.423751 528.287866 
L 237.747489 528.126208 
L 238.050558 527.91438 
L 238.335882 527.680254 
L 238.444029 527.446128 
L 238.579741 527.262172 
L 238.727835 527.055919 
L 239.641269 526.386989 
L 239.767937 526.147289 
L 239.947403 525.980056 
L 240.051758 525.757079 
L 240.168677 525.522954 
L 240.38876 525.361295 
L 240.443241 525.233084 
L 240.654967 525.071426 
L 241.033566 524.920916 
L 241.137259 524.78713 
L 241.305522 524.664493 
L 241.415696 524.569728 
L 241.557328 524.447091 
L 242.00433 524.352325 
L 242.770392 524.229688 
L 243.240741 523.96769 
L 244.135884 523.839479 
L 244.248787 523.705693 
L 244.479785 523.482716 
L 244.76041 523.321058 
L 245.072901 523.153825 
L 245.199251 523.070209 
L 245.770232 522.875104 
L 245.925169 522.685574 
L 246.040854 522.546213 
L 246.505067 522.066813 
L 246.594098 522.033367 
L 246.891966 521.849411 
L 246.985468 521.765795 
L 247.483991 521.609711 
L 247.586549 521.548392 
L 247.912872 521.28082 
L 248.043841 520.946355 
L 248.155213 520.712229 
L 248.265031 520.550571 
L 248.441732 520.400062 
L 248.886919 520.260701 
L 250.369242 518.343101 
L 250.470968 518.214889 
L 250.597742 518.008636 
L 250.969531 517.428896 
L 251.079897 517.272813 
L 251.155338 517.133452 
L 251.279785 516.882603 
L 251.371295 516.743243 
L 251.58865 516.408777 
L 251.732637 516.274991 
L 252.0099 516.14678 
L 252.075635 515.912654 
L 252.273273 515.583763 
L 252.599685 515.015173 
L 252.710405 514.820068 
L 252.900036 514.491177 
L 252.956151 514.357391 
L 253.039094 514.223605 
L 253.224766 514.089819 
L 253.629706 513.760928 
L 255.463309 511.196695 
L 255.574846 511.00159 
L 255.638784 510.839932 
L 255.759691 510.561211 
L 255.923107 510.338235 
L 256.090537 509.998195 
L 256.30434 509.591262 
L 256.71852 509.362711 
L 256.869612 509.005948 
L 256.949338 508.855439 
L 257.104398 508.537697 
L 257.670544 507.322474 
L 257.78926 507.138518 
L 259.197223 505.605552 
L 259.29441 505.427171 
L 259.909195 505.115003 
L 260.009653 505.025813 
L 260.110075 504.880878 
L 260.561353 504.133906 
L 260.640856 504.033566 
L 260.807534 503.89978 
L 261.091846 503.749271 
L 261.458694 503.60991 
L 261.753656 503.308891 
L 262.653353 502.712429 
L 263.141742 502.589791 
L 263.23737 502.522898 
L 263.463618 502.338942 
L 263.572427 502.266475 
L 263.677884 502.132689 
L 263.763204 502.082519 
L 263.918143 501.948733 
L 264.290977 501.770352 
L 264.635108 501.647714 
L 264.941382 501.486056 
L 265.025031 501.357845 
L 265.14316 501.224058 
L 265.417457 501.073549 
L 265.527378 500.856147 
L 266.13947 500.722361 
L 266.396862 500.549554 
L 266.704772 500.259684 
L 266.813716 500.086877 
L 267.15975 499.72454 
L 267.457288 499.551733 
L 268.116252 498.732293 
L 268.289964 498.526039 
L 268.590124 498.275191 
L 268.70741 498.208297 
L 269.219936 498.041065 
L 269.334543 497.884981 
L 269.356566 497.756769 
L 269.453187 497.589537 
L 269.570982 497.439028 
L 269.81901 497.138009 
L 270.145444 496.898309 
L 270.236668 496.831416 
L 270.814908 496.692055 
L 270.892074 496.608439 
L 271.079464 496.469079 
L 271.178976 496.413334 
L 271.337841 496.234953 
L 271.445194 496.140188 
L 271.711479 495.800148 
L 271.84243 495.387641 
L 272.168738 495.270578 
L 272.268332 495.192536 
L 272.395557 495.019729 
L 272.505064 494.891518 
L 273.300816 493.921569 
L 273.421743 493.849101 
L 274.138403 493.035236 
L 274.249563 492.856855 
L 274.265633 492.650601 
L 274.384271 492.516815 
L 275.093357 491.65278 
L 275.381249 491.435378 
L 275.554161 491.156657 
L 275.731622 491.006147 
L 275.839433 490.822191 
L 275.988755 490.588066 
L 276.332739 490.047347 
L 276.372999 489.885689 
L 276.618722 489.439735 
L 277.296038 488.848847 
L 277.394865 488.748507 
L 277.494671 488.592424 
L 277.701472 488.224512 
L 277.829412 487.990386 
L 277.971641 487.745112 
L 278.120384 487.56673 
L 278.863851 486.869928 
L 278.986204 486.680398 
L 279.078268 486.552186 
L 279.744305 485.559939 
L 280.159921 485.297942 
L 280.247974 485.080539 
L 280.392944 484.935604 
L 280.636914 484.617862 
L 280.839147 484.316844 
L 280.949045 484.099441 
L 281.099875 483.837444 
L 281.205725 483.642339 
L 281.375589 483.502979 
L 281.416764 483.475106 
L 281.607078 483.352469 
L 281.864708 482.945537 
L 281.972751 482.806176 
L 282.075695 482.577625 
L 282.548315 481.747036 
L 282.663258 481.607676 
L 282.76885 481.334529 
L 283.588174 480.46492 
L 283.707232 480.308836 
L 283.795753 480.152752 
L 283.893577 479.979945 
L 284.007064 479.857308 
L 284.153306 479.617608 
L 284.265924 479.411355 
L 284.526236 479.288717 
L 285.000343 479.16608 
L 285.166725 479.071315 
L 285.362013 478.892934 
L 285.982931 478.118089 
L 286.429874 477.956431 
L 286.898943 477.33767 
L 287.005166 477.187161 
L 287.083612 477.058949 
L 287.559053 476.534954 
L 287.912107 476.373296 
L 288.021316 476.23951 
L 288.218921 475.793556 
L 288.329297 475.408921 
L 288.605099 474.935096 
L 289.21876 474.266165 
L 289.574826 474.126805 
L 290.769439 473.084388 
L 291.198046 472.911581 
L 291.304988 472.749923 
L 291.564922 472.376437 
L 291.676025 472.120014 
L 292.245558 471.216958 
L 292.666539 471.083172 
L 293.422882 470.057478 
L 293.545607 469.834502 
L 293.755777 469.511185 
L 293.994549 469.410846 
L 294.274786 469.249188 
L 294.377182 469.137699 
L 294.566319 468.925871 
L 294.711017 468.624853 
L 295.534221 467.086313 
L 295.829902 466.651508 
L 295.94274 466.350489 
L 296.064686 466.183257 
L 296.215565 465.921259 
L 296.325184 465.793047 
L 296.47163 465.53105 
L 296.544881 465.352668 
L 296.786154 464.906715 
L 297.438278 464.510931 
L 297.556593 464.254508 
L 297.634292 464.059403 
L 297.740274 463.869873 
L 297.857656 463.747235 
L 297.96743 463.602301 
L 298.051441 463.451791 
L 298.147249 463.234389 
L 298.249865 463.095028 
L 298.36764 462.849754 
L 298.670955 462.715968 
L 298.929513 462.593331 
L 299.103685 462.320184 
L 299.211224 462.052612 
L 299.386609 461.87423 
L 301.725653 458.055753 
L 302.065135 457.894095 
L 302.242901 457.554055 
L 302.500166 457.158271 
L 302.599758 456.968741 
L 302.764633 456.662148 
L 303.294809 456.026664 
L 303.607144 455.898453 
L 303.746019 455.619732 
L 303.854127 455.407904 
L 303.973826 455.25182 
L 304.08308 455.01212 
L 304.249512 454.761271 
L 304.469354 454.493699 
L 304.695671 454.259573 
L 305.011777 454.136936 
L 305.258597 454.014299 
L 305.46976 453.66311 
L 305.571141 453.33422 
L 305.669922 453.178136 
L 306.148764 452.436738 
L 307.202846 451.310705 
L 307.255895 451.059856 
L 307.363149 450.658498 
L 307.554469 450.329607 
L 308.010689 449.577061 
L 308.300559 449.443275 
L 308.408207 449.242596 
L 308.602092 448.930428 
L 308.716699 448.752047 
L 309.202989 448.110988 
L 309.968896 447.547972 
L 310.07255 447.46993 
L 310.140911 447.319421 
L 310.25124 447.068572 
L 310.574091 446.550151 
L 310.680836 446.394067 
L 311.890815 444.955867 
L 312.037124 444.760762 
L 312.649599 443.969195 
L 312.75743 443.829834 
L 312.866961 443.612432 
L 313.094975 443.227797 
L 313.201273 443.049415 
L 313.276649 442.904481 
L 313.574784 442.447378 
L 313.692603 442.202104 
L 313.772264 442.04602 
L 313.881779 441.94568 
L 313.982752 441.80632 
L 314.154232 441.745001 
L 314.583088 441.56662 
L 315.223487 440.167441 
L 315.538026 439.281108 
L 315.786082 439.125024 
L 316.117081 439.002387 
L 316.229185 438.784984 
L 316.372758 438.506263 
L 316.48054 438.06031 
L 316.668333 437.87078 
L 316.756229 437.842908 
L 317.731674 437.547463 
L 317.819494 437.419252 
L 317.916133 437.296614 
L 318.023437 437.079212 
L 318.125481 436.928703 
L 318.250631 436.722449 
L 318.353389 436.477175 
L 318.463581 435.540672 
L 318.585747 435.412461 
L 318.697223 435.038974 
L 319.542273 433.968686 
L 319.641408 433.684391 
L 319.733381 433.533881 
L 319.837957 433.071204 
L 319.930075 432.864951 
L 320.354266 431.973044 
L 320.78285 431.738918 
L 320.891667 431.488069 
L 321.331048 430.780118 
L 321.434597 430.679778 
L 321.589617 430.456802 
L 321.698772 430.345313 
L 322.129888 430.083315 
L 322.396081 429.943955 
L 322.564364 429.715404 
L 322.805117 429.45898 
L 323.048544 429.185834 
L 323.100247 429.052048 
L 323.195381 428.879241 
L 324.253156 428.533627 
L 324.804424 428.160141 
L 325.513109 428.02078 
L 325.621069 427.992908 
L 325.799268 427.797803 
L 325.954119 427.535806 
L 326.351197 427.078703 
L 326.493765 426.939343 
L 326.578386 426.878024 
L 327.119209 426.727515 
L 327.206432 426.554708 
L 327.353163 426.420922 
L 327.498035 425.980543 
L 327.556087 425.835608 
L 327.708515 425.607057 
L 328.009624 425.272591 
L 328.143637 425.060763 
L 328.658586 424.882382 
L 328.763865 424.720724 
L 328.87819 424.581363 
L 329.023726 424.347238 
L 329.115359 424.219026 
L 329.23017 424.023921 
L 329.40811 423.851114 
L 329.492977 423.734052 
L 329.573026 423.616989 
L 329.704719 423.438607 
L 330.182501 423.304821 
L 330.699663 422.552275 
L 330.79111 422.162065 
L 330.916658 422.039428 
L 331.047012 421.838749 
L 331.176075 421.710537 
L 331.248663 421.604623 
L 331.698813 421.431816 
L 331.805111 421.192116 
L 331.878012 421.052756 
L 331.985373 420.8688 
L 332.12719 420.634674 
L 332.235599 420.506463 
L 332.339145 420.344804 
L 332.44484 420.171997 
L 332.571576 419.943446 
L 332.677328 419.820809 
L 332.859949 419.6703 
L 332.930525 419.648002 
L 333.340461 419.503067 
L 333.570847 419.179751 
L 333.658618 419.018093 
L 333.726482 418.895455 
L 333.833555 418.789541 
L 334.097947 418.494097 
L 334.209195 418.293418 
L 334.283221 418.159632 
L 334.463093 417.964527 
L 334.908112 417.808443 
L 335.013018 417.635636 
L 335.182052 417.36249 
L 335.320668 417.128364 
L 335.468444 416.810622 
L 335.656337 416.515178 
L 335.763302 416.359094 
L 336.205559 416.06365 
L 336.471617 415.929864 
L 336.686706 415.63442 
L 336.790511 415.528506 
L 337.034866 415.283231 
L 337.142317 415.043531 
L 337.272187 414.826129 
L 337.382144 414.709066 
L 337.555194 414.541834 
L 337.629282 414.508387 
L 337.807651 414.380175 
L 337.910869 414.151624 
L 337.972565 414.006689 
L 338.083316 413.845031 
L 338.259991 413.454822 
L 338.418078 413.13708 
L 338.528092 412.880657 
L 338.7865 412.295342 
L 338.95039 412.139259 
L 339.053129 411.726752 
L 339.565647 411.364414 
L 339.704936 410.745654 
L 339.844064 410.494805 
L 340.574934 409.039881 
L 340.667249 408.8615 
L 341.133355 408.727714 
L 341.198337 408.577205 
L 341.301674 407.930572 
L 341.378173 407.80236 
L 341.494815 407.428874 
L 341.614548 407.267216 
L 341.726693 407.055388 
L 342.028611 406.759944 
L 342.109201 406.637307 
L 342.165474 406.514669 
L 342.694439 406.36416 
L 342.799961 406.146758 
L 343.440601 405.59489 
L 343.549208 405.438806 
L 344.121883 404.730855 
L 344.312836 404.569197 
L 344.379741 404.429836 
L 344.527002 404.307199 
L 344.871873 403.939287 
L 345.092071 403.721885 
L 345.202706 403.582525 
L 345.571702 403.476611 
L 345.913159 403.270357 
L 346.146237 402.974913 
L 346.277345 402.774234 
L 346.377913 402.629299 
L 346.472664 402.506662 
L 346.580728 402.367301 
L 347.100401 401.977092 
L 347.403507 401.843306 
L 347.61594 401.547861 
L 347.746187 401.363906 
L 347.904041 401.196673 
L 348.155803 400.94025 
L 348.393626 400.589061 
L 349.041822 400.388382 
L 349.153672 400.265745 
L 349.271181 400.137533 
L 349.444559 399.936854 
L 349.644483 399.769622 
L 349.75407 399.635836 
L 349.898399 399.468603 
L 349.935791 399.318094 
L 349.972557 399.234477 
L 350.436123 399.100691 
L 350.546719 399.000352 
L 350.611516 398.838694 
L 350.679669 398.576696 
L 350.818339 398.225507 
L 350.943205 398.108445 
L 351.04281 397.957935 
L 351.150616 397.824149 
L 351.249094 397.662491 
L 351.490069 397.199814 
L 351.704997 397.060454 
L 352.14247 396.848626 
L 352.256211 396.731563 
L 352.709694 396.190844 
L 352.847648 395.900974 
L 353.005315 395.6557 
L 353.081366 395.521914 
L 353.151252 395.326809 
L 353.700231 395.170725 
L 353.800537 394.947749 
L 353.999611 394.763793 
L 354.102541 394.652304 
L 354.234079 394.462774 
L 354.334908 394.228649 
L 354.492643 394.061416 
L 354.873059 393.626611 
L 355.223283 393.503974 
L 355.332666 393.197381 
L 355.438943 393.041297 
L 355.549231 392.812746 
L 355.772978 392.444834 
L 355.976034 392.24973 
L 356.110158 391.491609 
L 356.187481 391.335525 
L 356.861218 390.621999 
L 356.971263 390.376725 
L 357.071662 390.242939 
L 357.963306 388.771292 
L 358.337611 388.631931 
L 358.486672 388.459124 
L 359.049383 386.597268 
L 359.169064 385.515831 
L 359.281967 385.387619 
L 359.392211 385.075452 
L 359.568004 384.802305 
L 359.676818 384.713114 
L 359.871467 384.562605 
L 359.980302 384.3675 
L 360.031206 384.205842 
L 360.268711 383.798909 
L 360.415235 383.653975 
L 360.505186 383.391977 
L 360.634562 383.26934 
L 360.840279 382.9293 
L 360.939494 382.723046 
L 361.120467 382.594835 
L 361.255933 382.516793 
L 361.358393 382.366284 
L 361.773589 381.463228 
L 361.870883 381.301569 
L 361.976524 381.139911 
L 362.055753 380.955955 
L 362.163636 380.777574 
L 362.228573 380.554597 
L 362.328886 380.225706 
L 362.411775 380.103069 
L 362.60428 379.796476 
L 363.057491 379.673839 
L 363.164787 379.328225 
L 363.353534 379.094099 
L 363.624449 378.558955 
L 363.785194 378.380574 
L 364.032867 377.650325 
L 364.136827 377.410625 
L 364.665518 376.942373 
L 364.768708 376.669227 
L 364.884589 376.490845 
L 365.148643 375.983573 
L 365.850332 375.158559 
L 366.220634 375.019199 
L 366.326135 374.985752 
L 366.583488 374.829668 
L 366.69019 374.645712 
L 366.851641 374.562096 
L 367.214953 374.255503 
L 367.317325 374.065973 
L 367.792575 373.887591 
L 367.836623 373.837422 
L 368.072512 373.70921 
L 368.183615 373.430489 
L 368.403263 372.984535 
L 368.575761 372.733687 
L 368.684718 372.533007 
L 369.035118 372.393647 
L 369.250434 372.265435 
L 369.380012 372.053607 
L 369.483917 371.836205 
L 369.604397 371.629951 
L 369.654241 371.457144 
L 369.755075 371.217444 
L 369.825266 371.061361 
L 369.935973 370.866256 
L 370.043419 370.693449 
L 370.278935 370.375707 
L 370.363505 370.25307 
L 370.923581 370.030093 
L 371.105614 369.740223 
L 371.151018 369.589714 
L 371.257492 369.4838 
L 371.732481 368.881763 
L 371.84355 368.647637 
L 372.088906 368.586318 
L 372.433539 368.441383 
L 372.54927 368.251853 
L 372.668667 368.123642 
L 373.032866 367.41569 
L 373.18103 367.231734 
L 373.590237 366.685441 
L 373.957048 366.490337 
L 374.060348 366.228339 
L 374.375564 365.92732 
L 374.50117 365.765662 
L 374.583963 365.620727 
L 374.649442 365.375453 
L 374.760674 365.174774 
L 375.177503 364.611757 
L 375.57907 364.461248 
L 375.743521 364.143506 
L 375.864803 363.942827 
L 375.971765 363.842487 
L 376.107516 363.625085 
L 376.221337 363.435555 
L 376.362009 363.218152 
L 376.470357 363.023048 
L 376.614913 362.956155 
L 377.157665 362.788922 
L 377.95185 361.478933 
L 378.060261 361.155617 
L 378.302511 360.726387 
L 378.378932 360.665068 
L 378.675591 360.514559 
L 378.874292 360.258135 
L 378.980465 360.096477 
L 379.073042 359.879075 
L 379.294645 359.589205 
L 379.469047 359.438696 
L 379.575228 359.126528 
L 379.663897 358.909126 
L 379.751125 358.858956 
L 379.861323 358.730744 
L 379.927423 358.563512 
L 380.055803 358.279216 
L 380.1523 358.061814 
L 380.349185 357.900156 
L 380.553107 357.587988 
L 380.594714 357.431905 
L 380.705445 357.298119 
L 381.376468 356.372765 
L 381.883175 356.244553 
L 382.092122 355.926811 
L 382.202524 355.776302 
L 382.339707 355.570049 
L 382.553467 355.430688 
L 382.663197 355.202137 
L 382.852875 355.040479 
L 383.324957 354.845374 
L 383.538882 354.706014 
L 383.640871 354.6001 
L 383.694827 354.455165 
L 383.830438 354.299081 
L 383.885705 354.154146 
L 384.517826 353.396025 
L 384.627507 352.844157 
L 385.012694 352.387055 
L 385.167155 352.297864 
L 385.228807 352.158504 
L 385.337086 351.991271 
L 385.435072 351.835187 
L 385.52754 351.595487 
L 385.715981 351.428255 
L 385.826797 351.311192 
L 385.89043 351.194129 
L 386.218763 350.976727 
L 386.511625 350.85409 
L 386.83604 350.458306 
L 386.943026 350.346817 
L 387.199215 349.990055 
L 387.306418 349.755929 
L 388.224168 349.042403 
L 388.326419 348.897468 
L 388.444204 348.758108 
L 388.548441 348.557429 
L 388.736722 348.312154 
L 388.847036 348.089177 
L 389.018591 347.855052 
L 389.123293 347.743563 
L 389.613667 347.554033 
L 389.742112 347.325482 
L 389.867342 347.180547 
L 389.975841 347.013314 
L 390.116958 346.756891 
L 390.226261 346.584084 
L 390.342717 346.361107 
L 390.500888 346.004345 
L 390.629776 345.853835 
L 390.735044 345.770219 
L 391.114817 345.61971 
L 392.274031 343.702109 
L 392.726167 343.512579 
L 392.770202 343.239432 
L 392.878747 342.787904 
L 392.903889 342.648544 
L 393.011472 342.54263 
L 393.14632 342.297355 
L 393.257353 342.146846 
L 393.478956 341.712041 
L 393.846039 341.160174 
L 394.279697 341.020813 
L 394.377329 340.758816 
L 394.487338 340.47452 
L 394.671347 340.167927 
L 394.783236 340.04529 
L 394.880361 339.905929 
L 394.990526 339.56589 
L 395.157371 339.315041 
L 395.249034 339.131085 
L 395.466301 338.969427 
L 395.545915 338.863513 
L 395.814838 338.718578 
L 395.919758 338.517899 
L 396.050086 338.322794 
L 396.160599 338.122115 
L 396.479319 337.575822 
L 396.587228 337.219059 
L 397.042659 336.711787 
L 397.133391 336.477661 
L 397.372002 336.29928 
L 398.385313 334.476445 
L 398.632968 334.403977 
L 399.007367 334.275766 
L 400.296428 333.13301 
L 400.61897 332.993649 
L 400.712793 332.84314 
L 401.087654 332.625737 
L 401.201591 332.530972 
L 402.179201 332.241102 
L 403.270958 330.540905 
L 403.378505 330.256609 
L 403.473771 330.1061 
L 403.649988 329.95559 
L 403.741331 329.805081 
L 403.848234 329.459467 
L 403.982485 329.208618 
L 404.100184 329.09713 
L 404.257182 328.868579 
L 404.35927 328.701346 
L 404.490104 328.534113 
L 404.603744 328.417051 
L 405.048965 328.171776 
L 405.413772 328.032416 
L 405.748275 327.781567 
L 405.862533 327.502846 
L 406.202906 327.224125 
L 406.999923 327.045743 
L 407.136424 326.666683 
L 407.411993 326.047922 
L 407.559898 325.847243 
L 407.875225 325.339971 
L 408.028621 325.222908 
L 408.286038 325.016655 
L 408.441094 324.715636 
L 408.548664 324.604148 
L 408.845274 324.236236 
L 408.956508 324.024408 
L 409.04888 323.873899 
L 409.206602 323.606327 
L 409.446085 323.33318 
L 409.556513 323.171522 
L 409.975413 322.842631 
L 410.694783 321.705449 
L 410.805205 321.41558 
L 410.990549 321.136859 
L 411.173695 321.097838 
L 411.553708 320.930605 
L 411.682005 320.295121 
L 411.852308 319.949507 
L 412.015133 319.815721 
L 412.158435 319.598319 
L 412.261275 319.458958 
L 412.485831 319.10777 
L 412.59635 318.946112 
L 412.700917 318.890368 
L 412.787507 318.778879 
L 412.88314 318.52803 
L 413.126233 318.371947 
L 413.835241 317.374125 
L 413.98478 317.201318 
L 414.095221 316.944895 
L 414.769081 316.432048 
L 415.068378 315.902479 
L 415.156043 315.74082 
L 415.254174 315.540141 
L 415.348974 315.406355 
L 415.480158 315.211251 
L 415.617913 315.07189 
L 415.758709 314.965976 
L 415.946538 314.821041 
L 416.062127 314.726276 
L 416.14221 314.603639 
L 416.247189 314.157685 
L 416.293656 313.990453 
L 416.397774 313.572371 
L 416.435631 313.421862 
L 416.54663 312.959185 
L 416.606997 312.797527 
L 416.713435 312.362722 
L 416.804599 312.134171 
L 416.914747 311.80528 
L 417.039585 311.286859 
L 417.15023 310.879927 
L 417.469602 310.183124 
L 417.665903 310.049338 
L 417.836276 309.748319 
L 417.940394 309.49747 
L 418.016114 309.324663 
L 418.125238 309.045943 
L 418.326375 308.616712 
L 418.435556 308.293396 
L 418.501475 308.092717 
L 418.612384 307.624466 
L 418.721568 307.167363 
L 418.78277 306.894217 
L 418.887069 306.320051 
L 418.96927 306.14167 
L 419.277664 304.736916 
L 419.312788 304.564109 
L 419.421494 303.973221 
L 419.473699 303.722372 
L 419.578406 303.092462 
L 419.610396 302.919655 
L 419.719792 302.351065 
L 419.744083 302.211704 
L 419.852299 301.598518 
L 419.927412 301.420136 
L 420.065335 301.002055 
L 420.15509 300.851546 
L 420.249753 300.751206 
L 420.352878 300.606271 
L 420.462424 300.544953 
L 420.983507 300.310827 
L 421.094051 300.182615 
L 421.395274 300.004234 
L 421.896545 299.485813 
L 422.000663 299.234964 
L 422.161566 299.011987 
L 422.265678 298.867052 
L 422.379261 298.671948 
L 422.489684 298.421099 
L 422.644711 297.924975 
L 422.750468 297.339661 
L 422.806581 297.16128 
L 423.021706 296.943878 
L 423.38193 296.63171 
L 423.49753 296.475626 
L 424.074146 296.219203 
L 424.178978 296.029673 
L 424.272128 295.856866 
L 424.375152 295.477805 
L 424.494179 295.271552 
L 424.859694 294.61377 
L 425.638383 294.089775 
L 426.168874 293.158847 
L 426.269284 293.019486 
L 426.377387 292.763063 
L 426.624628 292.450895 
L 426.685846 292.378428 
L 427.080297 292.239067 
L 427.169979 292.055112 
L 427.28577 291.910177 
L 427.42795 291.776391 
L 427.525473 291.625881 
L 427.664966 291.492095 
L 429.660293 289.161988 
L 429.76514 288.989181 
L 429.936768 288.855395 
L 430.042698 288.743906 
L 430.286968 288.537653 
L 430.400523 288.297953 
L 430.775723 287.707064 
L 430.869416 287.528683 
L 430.987403 287.378173 
L 431.095692 287.110601 
L 431.507933 286.725966 
L 431.906144 286.363629 
L 432.008935 286.201971 
L 432.146353 286.001292 
L 432.256991 285.795038 
L 432.318345 285.622231 
L 432.549964 285.304489 
L 432.744703 285.048066 
L 432.859445 284.836238 
L 432.974889 284.77492 
L 433.426348 284.518496 
L 433.65273 284.317817 
L 434.142669 283.810545 
L 434.233737 283.676759 
L 434.373072 283.537398 
L 434.972862 283.202933 
L 435.082413 283.018977 
L 435.435089 282.545152 
L 435.560715 282.377919 
L 435.653511 282.238559 
L 436.043436 281.625372 
L 436.656364 281.040058 
L 436.777027 280.850528 
L 436.863516 280.68887 
L 437.01642 280.432447 
L 437.281342 280.120279 
L 437.391705 279.992068 
L 437.539057 279.774665 
L 437.661976 279.635305 
L 437.672804 279.618581 
L 438.028919 279.495944 
L 438.139838 279.429051 
L 438.537728 278.916205 
L 438.646048 278.760121 
L 438.83021 278.514846 
L 438.916704 278.319742 
L 439.017333 278.19153 
L 439.109271 278.080042 
L 439.543301 277.873788 
L 439.650432 277.790172 
L 439.954631 277.478004 
L 440.070224 277.399962 
L 440.162595 277.243879 
L 440.269499 277.015327 
L 440.479751 276.809074 
L 440.589059 276.697586 
L 440.846922 276.318525 
L 441.238649 276.168016 
L 441.380004 275.800104 
L 441.462073 275.582702 
L 441.578325 275.315129 
L 442.032635 274.774411 
L 442.139448 274.713092 
L 442.439497 274.590455 
L 442.850524 274.356329 
L 442.946669 274.25599 
L 443.111894 274.116629 
L 443.220899 274.021864 
L 443.504723 273.843483 
L 443.849715 273.564762 
L 444.450028 273.391955 
L 444.700564 273.163403 
L 445.169271 272.087541 
L 445.278866 271.864564 
L 445.665375 271.491078 
L 446.115755 271.139889 
L 446.222699 271.061847 
L 446.329207 270.900189 
L 446.432849 270.74968 
L 446.62782 270.588022 
L 447.143193 270.075175 
L 447.466145 269.88007 
L 447.69216 269.595775 
L 447.790808 269.45084 
L 448.052226 269.250161 
L 448.154187 269.149821 
L 448.205347 269.010461 
L 448.378449 268.865526 
L 448.865814 268.436296 
L 449.074539 268.285786 
L 450.017723 267.064988 
L 450.152987 266.875458 
L 451.085967 266.295719 
L 451.200243 266.189805 
L 451.510191 265.916658 
L 451.692421 265.676958 
L 452.318184 265.370365 
L 452.509731 265.169686 
L 452.964055 264.812923 
L 453.070585 264.707009 
L 453.171091 264.550925 
L 453.257468 264.472883 
L 453.595801 264.311225 
L 453.723861 264.26663 
L 454.15658 263.698039 
L 454.449794 263.391446 
L 454.555598 263.174044 
L 455.60808 262.304434 
L 455.718143 262.209669 
L 455.844928 262.070308 
L 456.115485 261.663376 
L 456.219645 261.557462 
L 456.320468 261.345634 
L 456.413491 261.245294 
L 456.796995 261.044615 
L 456.907509 260.838362 
L 457.079733 260.738022 
L 457.235774 260.587513 
L 457.33923 260.336664 
L 457.474104 260.152708 
L 457.582758 259.985476 
L 457.755114 259.756924 
L 457.866582 259.528373 
L 458.031252 259.416885 
L 458.532777 259.193908 
L 458.878744 258.69221 
L 458.995704 258.536126 
L 459.428532 258.034429 
L 459.52296 257.956387 
L 459.948884 257.716687 
L 460.130108 257.482561 
L 460.245312 257.337626 
L 460.35618 257.181542 
L 460.705977 256.835928 
L 460.806477 256.668696 
L 460.970997 256.523761 
L 461.028535 256.350954 
L 461.122435 256.24504 
L 461.444243 256.072233 
L 461.552282 256.016489 
L 462.226103 255.302963 
L 462.333769 255.102284 
L 462.723216 254.795691 
L 463.100451 254.639607 
L 463.657512 254.149058 
L 463.758754 254.065442 
L 464.097436 253.809019 
L 464.397087 253.691956 
L 465.189006 253.101067 
L 465.297435 253.039749 
L 465.617431 252.749879 
L 465.760989 252.655114 
L 466.340212 252.370818 
L 466.508668 252.125544 
L 467.412521 250.681769 
L 467.668074 250.53126 
L 467.992078 250.235816 
L 468.125904 250.113178 
L 468.253336 249.957095 
L 468.357901 249.76199 
L 468.462256 249.583609 
L 468.571215 249.466546 
L 469.689867 248.741871 
L 469.807029 248.680553 
L 470.069329 248.401832 
L 470.248678 248.234599 
L 470.583319 247.872262 
L 470.963189 247.69388 
L 471.207521 247.420734 
L 471.313819 247.231203 
L 471.73448 246.73508 
L 471.902189 246.489806 
L 472.701601 245.898917 
L 472.890658 245.642494 
L 473.009907 245.497559 
L 473.186052 245.24671 
L 473.294972 245.096201 
L 473.445567 244.95684 
L 473.538252 244.728289 
L 473.911086 244.566631 
L 474.668176 243.635703 
L 474.8116 243.451747 
L 475.154678 242.894305 
L 475.493901 242.715924 
L 475.617738 242.660179 
L 475.725458 242.504096 
L 475.830817 242.387033 
L 476.146962 242.113886 
L 476.250854 241.935505 
L 476.620957 241.567593 
L 476.725885 241.405935 
L 477.794542 240.435986 
L 477.901404 240.330072 
L 478.220843 239.828374 
L 478.325365 239.689014 
L 478.798613 239.510632 
L 479.744983 238.969914 
L 479.951965 238.841702 
L 480.03849 238.824979 
L 480.392417 238.702341 
L 480.744862 238.445918 
L 480.933487 238.306558 
L 481.042964 238.100304 
L 481.178544 237.85503 
L 481.284818 237.693372 
L 481.637812 237.520565 
L 481.961849 237.292013 
L 482.066722 237.130355 
L 482.499292 236.779167 
L 482.62174 236.650955 
L 482.827092 236.461425 
L 482.93424 236.372234 
L 483.076213 236.283043 
L 483.444283 236.160406 
L 483.554639 235.959727 
L 483.923591 235.658708 
L 484.382386 235.285222 
L 484.884027 235.056671 
L 486.519257 233.886043 
L 487.239426 233.546003 
L 487.385448 233.445664 
L 487.590604 233.306303 
L 487.695446 233.144645 
L 488.035463 232.966264 
L 488.990481 232.275036 
L 489.10199 232.102229 
L 489.350087 231.795636 
L 489.703618 231.650701 
L 489.812102 231.37198 
L 490.072255 231.065387 
L 490.18326 230.970621 
L 490.509053 230.630582 
L 490.705949 230.474498 
L 490.799996 230.340712 
L 491.300639 230.07314 
L 491.40404 229.9728 
L 491.603365 229.772121 
L 491.705972 229.655058 
L 491.998521 229.387486 
L 492.293946 229.014 
L 492.383215 228.896937 
L 492.795952 228.690684 
L 493.136258 228.445409 
L 493.239502 228.384091 
L 493.505223 228.177837 
L 493.637289 227.949286 
L 493.834309 227.748607 
L 493.941026 227.62597 
L 494.56422 227.207888 
L 494.675129 226.984911 
L 494.997772 226.594702 
L 495.190287 226.405172 
L 495.414913 226.065132 
L 495.522401 225.964793 
L 495.86647 225.803135 
L 497.277495 224.543316 
L 497.496243 224.381658 
L 497.587549 224.275744 
L 497.762119 224.136383 
L 497.855192 224.008171 
L 498.01332 223.852088 
L 498.27848 223.512048 
L 498.441674 223.305795 
L 498.550558 223.082818 
L 499.368675 222.564397 
L 499.478285 222.39159 
L 500.328979 221.243259 
L 500.787466 220.936666 
L 501.023419 220.462841 
L 501.132019 220.295608 
L 501.437263 219.922122 
L 501.545896 219.754889 
L 501.689728 219.621103 
L 501.773445 219.543061 
L 502.277788 219.392552 
L 502.388712 219.191873 
L 503.334633 217.530696 
L 503.737118 217.385761 
L 503.988666 217.218528 
L 504.105698 217.095891 
L 504.497922 216.856191 
L 504.596703 216.761426 
L 504.875362 216.616491 
L 505.626575 216.125942 
L 505.797136 215.925263 
L 505.872453 215.791477 
L 505.977207 215.590798 
L 506.133331 215.42914 
L 506.243534 215.250758 
L 506.684795 214.98876 
L 507.011871 214.804805 
L 507.082796 214.732337 
L 507.245349 214.6097 
L 507.595506 214.236214 
L 507.825811 214.013237 
L 507.935455 213.823707 
L 508.489697 213.55056 
L 508.598625 213.400051 
L 508.926226 212.976395 
L 509.272154 212.441251 
L 509.400333 212.229423 
L 509.610477 211.989723 
L 510.182656 211.482451 
L 510.321052 211.348664 
L 510.525494 211.131262 
L 510.634934 211.00305 
L 510.892018 210.780074 
L 510.993498 210.568246 
L 511.068757 210.417736 
L 511.288775 210.250504 
L 511.724414 209.826848 
L 511.820815 209.681913 
L 511.931492 209.536978 
L 512.042672 209.397618 
L 512.216668 209.157918 
L 512.316092 209.074301 
L 512.427606 208.901494 
L 512.721045 208.600476 
L 513.004988 208.455541 
L 513.219996 208.310606 
L 513.313116 208.221415 
L 513.457043 208.065331 
L 513.684463 207.769887 
L 513.833027 207.591506 
L 513.941803 207.35738 
L 514.183864 207.089808 
L 514.353632 206.956022 
L 514.680716 206.799938 
L 514.822024 206.655003 
L 515.011047 206.437601 
L 515.112168 206.236922 
L 515.295202 206.064115 
L 515.815802 205.250249 
L 516.279575 205.032847 
L 516.389237 204.843317 
L 517.462568 203.13197 
L 517.810749 202.953589 
L 518.051261 202.607975 
L 518.539556 202.111851 
L 518.674947 201.900023 
L 518.771133 201.749514 
L 518.8825 201.571132 
L 519.451554 201.192072 
L 519.605309 201.019265 
L 520.736677 200.266718 
L 521.438849 199.726 
L 521.550935 199.491874 
L 521.656286 199.330216 
L 521.755022 199.202004 
L 521.901229 199.023623 
L 521.999199 198.912134 
L 522.061299 198.772774 
L 522.642689 198.360267 
L 522.764395 198.220906 
L 523.513233 197.680188 
L 524.912929 197.067001 
L 525.931065 196.002287 
L 526.31836 195.768162 
L 526.454051 195.606503 
L 527.529293 194.831659 
L 527.640489 194.686724 
L 527.968281 194.49162 
L 528.072291 194.229622 
L 528.183936 194.084687 
L 528.289864 193.783668 
L 528.84769 193.387884 
L 529.419492 192.66321 
L 530.040643 192.206108 
L 530.439376 192.050024 
L 530.699615 191.676538 
L 530.883893 191.487007 
L 531.101289 191.169265 
L 531.236339 190.918417 
L 531.389258 190.689865 
L 531.478297 190.622972 
L 531.895815 190.478037 
L 532.006215 190.383272 
L 532.207033 190.076679 
L 532.338178 189.915021 
L 532.56981 189.697619 
L 533.268029 189.240516 
L 533.589839 189.067709 
L 534.848819 187.774444 
L 535.092515 187.612786 
L 535.202206 187.484574 
L 535.390937 187.200279 
L 535.844746 186.447732 
L 535.952309 186.375265 
L 536.322955 186.007353 
L 536.608454 185.873567 
L 536.834079 185.605995 
L 536.965806 185.466634 
L 537.072243 185.243657 
L 537.188133 185.098723 
L 537.772745 184.323878 
L 538.550992 183.710692 
L 538.661063 183.571332 
L 538.995538 183.197845 
L 539.189822 182.924699 
L 539.553969 182.640403 
L 539.843389 182.43415 
L 540.040916 182.166578 
L 540.14739 182.016068 
L 540.254766 181.793092 
L 540.504614 181.581264 
L 540.635027 181.313692 
L 540.704711 181.157608 
L 540.811669 181.023822 
L 541.404888 180.689357 
L 541.61026 180.41621 
L 541.73509 180.282424 
L 541.846912 180.065022 
L 541.994605 179.858768 
L 542.092997 179.658089 
L 542.142264 179.529877 
L 542.251417 179.340347 
L 542.801821 178.916691 
L 543.194871 178.760607 
L 543.332369 178.621247 
L 543.590273 178.409419 
L 543.674191 178.242186 
L 543.822262 178.1084 
L 543.926299 178.013635 
L 544.40668 177.846403 
L 544.560381 177.740489 
L 544.804072 177.53981 
L 544.991994 177.210919 
L 545.09728 176.85973 
L 545.203723 176.725944 
L 545.300251 176.608881 
L 545.522751 176.452798 
L 545.781283 176.363607 
L 546.083225 176.24097 
L 546.189223 176.162928 
L 546.873376 175.499572 
L 546.983152 175.393658 
L 547.498823 175.170681 
L 547.66828 175.009023 
L 547.778268 174.886386 
L 547.901955 174.724728 
L 548.079543 174.60209 
L 548.181773 174.401411 
L 548.321036 174.245328 
L 548.421763 174.016776 
L 548.85238 173.704609 
L 549.422604 173.286527 
L 549.617032 173.11372 
L 550.201221 172.539555 
L 550.308744 172.405769 
L 551.242476 171.38565 
L 551.345761 171.307608 
L 551.427189 171.157099 
L 551.53757 170.945271 
L 551.88903 170.449148 
L 552.372623 170.159278 
L 552.473423 170.036641 
L 552.659837 169.89728 
L 552.770009 169.601836 
L 553.076487 169.194903 
L 553.183638 169.105713 
L 553.65534 168.737801 
L 553.848106 168.587292 
L 553.982903 168.425633 
L 554.083322 168.330868 
L 554.333732 168.158061 
L 554.561502 167.840319 
L 555.135315 167.321898 
L 555.443363 167.193687 
L 555.528704 167.015305 
L 555.718692 166.864796 
L 555.953996 166.664117 
L 556.105436 166.485735 
L 556.202985 166.351949 
L 556.41209 166.167994 
L 556.522898 166.101101 
L 557.020918 165.945017 
L 557.126929 165.749912 
L 557.353829 165.510212 
L 557.459857 165.303959 
L 557.544647 165.147875 
L 557.664923 164.975068 
L 557.965005 164.356307 
L 558.121708 164.155628 
L 558.235749 164.032991 
L 558.464929 163.876907 
L 558.588445 163.715249 
L 558.807097 163.486698 
L 558.907481 163.308316 
L 559.021811 163.152233 
L 559.120405 162.801044 
L 559.221683 162.64496 
L 559.592919 161.909137 
L 561.107604 161.262504 
L 561.216726 161.139867 
L 562.178168 160.448639 
L 562.289871 160.270258 
L 562.768904 159.952516 
L 563.280204 159.735113 
L 563.357091 159.562306 
L 563.468631 159.473116 
L 563.575596 159.328181 
L 563.682049 159.222267 
L 563.942445 158.982567 
L 564.046535 158.770739 
L 564.232111 158.536613 
L 564.368283 158.430699 
L 564.731272 158.269041 
L 564.919055 158.057213 
L 565.096994 157.884406 
L 565.723069 157.198752 
L 566.379991 156.797394 
L 566.810272 156.384887 
L 567.072499 156.206506 
L 567.18204 156.055996 
L 567.283 155.927785 
L 567.387105 155.816296 
L 567.950357 155.548724 
L 568.23709 155.348045 
L 568.339853 155.219833 
L 568.750707 154.941112 
L 568.853118 154.879794 
L 569.209993 154.718136 
L 569.315345 154.667966 
L 569.570288 154.53418 
L 569.817622 154.361373 
L 569.878446 154.34465 
L 570.285041 154.222012 
L 570.397099 154.010184 
L 570.558012 153.848526 
L 570.667612 153.787208 
L 570.971116 153.547508 
L 571.167993 153.402573 
L 571.277291 153.201894 
L 571.548335 152.6556 
L 571.665644 152.404752 
L 571.930331 151.958798 
L 572.028705 151.802714 
L 572.119011 151.713523 
L 572.693631 151.462675 
L 572.801043 151.373484 
L 572.995092 151.105912 
L 573.100609 150.933105 
L 573.209221 150.78817 
L 573.313021 150.648809 
L 573.552625 150.436981 
L 573.658892 150.353365 
L 574.411183 149.846093 
L 574.556171 149.67886 
L 574.712305 149.545074 
L 574.955132 149.344395 
L 575.696719 148.904016 
L 575.923794 148.764656 
L 576.53668 148.179341 
L 576.636572 148.045555 
L 576.772799 147.883897 
L 576.880584 147.805855 
L 577.471217 147.504837 
L 577.577015 147.443518 
L 577.754037 147.298583 
L 578.091444 147.008713 
L 578.202149 146.874927 
L 578.5233 146.334209 
L 578.938525 146.100083 
L 579.037313 145.994169 
L 579.259756 145.782341 
L 579.368596 145.659704 
L 579.647574 145.319664 
L 579.754128 145.191453 
L 579.92906 145.018646 
L 579.980872 144.990773 
L 580.328344 144.851413 
L 580.460622 144.756648 
L 580.802472 144.539245 
L 580.913924 144.455629 
L 581.254355 144.01525 
L 581.358946 143.870315 
L 581.459911 143.714231 
L 581.999412 143.363043 
L 582.107551 143.201385 
L 583.293899 142.119947 
L 583.599833 141.980587 
L 583.663342 141.80778 
L 583.763783 141.673994 
L 583.93173 141.540208 
L 584.042044 141.434294 
L 584.876453 140.642726 
L 585.216759 140.430898 
L 585.338072 140.21907 
L 587.006403 139.237972 
L 587.105406 139.048442 
L 587.286144 138.892358 
L 587.397748 138.658233 
L 587.524802 138.457554 
L 587.691782 138.318193 
L 587.798843 138.245726 
L 588.283506 137.888963 
L 588.387575 137.766326 
L 588.568695 137.548923 
L 588.715463 137.398414 
L 589.027105 137.0528 
L 589.137238 136.941312 
L 589.400073 136.735058 
L 589.504183 136.673739 
L 589.854394 136.495358 
L 589.969467 136.378295 
L 590.23007 136.188765 
L 590.36564 136.071702 
L 590.533538 135.904469 
L 590.771876 135.547707 
L 590.948561 135.358176 
L 591.065682 135.27456 
L 591.415895 135.112902 
L 591.79882 134.683672 
L 592.066052 134.438397 
L 592.198228 134.204272 
L 592.499555 133.964571 
L 592.799508 133.797339 
L 592.906396 133.54649 
L 593.44171 133.239897 
L 593.543074 133.106111 
L 593.66691 132.927729 
L 593.829142 132.805092 
L 594.510616 132.526371 
L 594.635415 132.409308 
L 594.989373 132.219778 
L 595.07822 132.091566 
L 595.236762 131.952206 
L 595.357487 131.851866 
L 595.489338 131.695783 
L 595.59876 131.606592 
L 596.223891 131.294424 
L 596.334024 131.182936 
L 596.544786 130.943236 
L 596.833578 130.742557 
L 596.92588 130.564176 
L 597.363479 130.357922 
L 597.595771 130.263157 
L 597.856884 130.101499 
L 597.989205 129.978861 
L 598.319995 129.817203 
L 598.428649 129.705715 
L 600.520716 127.743519 
L 600.800645 127.609733 
L 601.288608 127.057866 
L 601.337384 126.929654 
L 601.429596 126.868335 
L 601.594116 126.717826 
L 601.701014 126.662082 
L 602.691503 126.076768 
L 602.801051 125.998726 
L 603.038391 125.848217 
L 603.542612 125.424561 
L 603.986788 125.279626 
L 604.118986 125.173712 
L 604.259717 125.012054 
L 604.370947 124.922863 
L 604.634747 124.738907 
L 604.731872 124.610695 
L 605.235315 124.304102 
L 605.339707 124.198188 
L 605.566175 124.075551 
L 605.752007 123.847 
L 605.889545 123.629598 
L 606.000241 123.50696 
L 606.057776 123.311856 
L 606.147053 123.172495 
L 606.315481 123.021986 
L 606.393681 122.960667 
L 606.55777 122.821307 
L 606.795443 122.726542 
L 607.133194 122.509139 
L 607.238483 122.414374 
L 607.445423 122.263865 
L 607.741055 122.024165 
L 608.050931 121.661827 
L 608.667461 121.176853 
L 608.778135 121.00962 
L 609.100093 120.753197 
L 609.205961 120.652857 
L 610.315412 119.967204 
L 610.424513 119.816695 
L 610.539627 119.660611 
L 610.645475 119.554697 
L 610.754687 119.420911 
L 610.845117 119.259253 
L 611.176253 119.069722 
L 611.25473 119.030701 
L 611.742954 118.85232 
L 611.85631 118.796576 
L 612.169322 118.629343 
L 612.302503 118.506706 
L 612.326739 118.389643 
L 612.434871 118.18339 
L 612.695645 117.904669 
L 612.803981 117.832201 
L 612.967756 117.659394 
L 613.061401 117.492162 
L 613.326258 117.319355 
L 613.472177 117.191143 
L 614.001226 116.851103 
L 614.104821 116.773061 
L 614.451872 116.572382 
L 615.192166 115.936898 
L 615.293367 115.847708 
L 615.446159 115.663752 
L 615.537709 115.591284 
L 615.790735 115.412903 
L 615.988588 115.312563 
L 616.433842 115.111884 
L 616.533075 115.011545 
L 616.847001 114.827589 
L 616.954108 114.777419 
L 617.214937 114.643633 
L 618.212847 113.941256 
L 618.324035 113.818619 
L 618.459176 113.740577 
L 620.335826 112.603396 
L 620.422697 112.503056 
L 621.115772 112.280079 
L 621.273688 112.174165 
L 621.618253 112.006933 
L 621.718334 111.979061 
L 622.022955 111.795105 
L 622.522783 111.622298 
L 622.636364 111.6 
L 622.636364 111.6 
" style="fill:none;stroke:#92c6ff;stroke-linecap:round;stroke-width:1.5;"/>
   </g>
   <g id="line2d_24">
    <defs>
     <path d="M 0 2.5 
C 0.663008 2.5 1.29895 2.236584 1.767767 1.767767 
C 2.236584 1.29895 2.5 0.663008 2.5 0 
C 2.5 -0.663008 2.236584 -1.29895 1.767767 -1.767767 
C 1.29895 -2.236584 0.663008 -2.5 0 -2.5 
C -0.663008 -2.5 -1.29895 -2.236584 -1.767767 -1.767767 
C -2.236584 -1.29895 -2.5 -0.663008 -2.5 0 
C -2.5 0.663008 -2.236584 1.29895 -1.767767 1.767767 
C -1.29895 2.236584 -0.663008 2.5 0 2.5 
z
" id="mb3f88a5f60" style="stroke:#696969;"/>
    </defs>
    <g clip-path="url(#p5d7f6b8080)">
     <use style="fill:#696969;stroke:#696969;" x="115.363636" xlink:href="#mb3f88a5f60" y="615.6"/>
    </g>
   </g>
   <g id="line2d_25">
    <g clip-path="url(#p5d7f6b8080)">
     <use style="fill:#696969;stroke:#696969;" x="202.39987" xlink:href="#mb3f88a5f60" y="565.196098"/>
    </g>
   </g>
   <g id="line2d_26">
    <g clip-path="url(#p5d7f6b8080)">
     <use style="fill:#696969;stroke:#696969;" x="252.722585" xlink:href="#mb3f88a5f60" y="514.792196"/>
    </g>
   </g>
   <g id="line2d_27">
    <g clip-path="url(#p5d7f6b8080)">
     <use style="fill:#696969;stroke:#696969;" x="297.497856" xlink:href="#mb3f88a5f60" y="464.388294"/>
    </g>
   </g>
   <g id="line2d_28">
    <g clip-path="url(#p5d7f6b8080)">
     <use style="fill:#696969;stroke:#696969;" x="337.98203" xlink:href="#mb3f88a5f60" y="413.984392"/>
    </g>
   </g>
   <g id="line2d_29">
    <g clip-path="url(#p5d7f6b8080)">
     <use style="fill:#696969;stroke:#696969;" x="376.114672" xlink:href="#mb3f88a5f60" y="363.586064"/>
    </g>
   </g>
   <g id="line2d_30">
    <g clip-path="url(#p5d7f6b8080)">
     <use style="fill:#696969;stroke:#696969;" x="416.48277" xlink:href="#mb3f88a5f60" y="313.187736"/>
    </g>
   </g>
   <g id="line2d_31">
    <g clip-path="url(#p5d7f6b8080)">
     <use style="fill:#696969;stroke:#696969;" x="455.239324" xlink:href="#mb3f88a5f60" y="262.789409"/>
    </g>
   </g>
   <g id="line2d_32">
    <g clip-path="url(#p5d7f6b8080)">
     <use style="fill:#696969;stroke:#696969;" x="509.29493" xlink:href="#mb3f88a5f60" y="212.391081"/>
    </g>
   </g>
   <g id="line2d_33">
    <g clip-path="url(#p5d7f6b8080)">
     <use style="fill:#696969;stroke:#696969;" x="559.552982" xlink:href="#mb3f88a5f60" y="161.992753"/>
    </g>
   </g>
   <g id="line2d_34">
    <g clip-path="url(#p5d7f6b8080)">
     <use style="fill:#696969;stroke:#696969;" x="622.636364" xlink:href="#mb3f88a5f60" y="111.6"/>
    </g>
   </g>
   <g id="patch_3">
    <path d="M 90 640.8 
L 90 86.4 
" style="fill:none;stroke:#cccccc;stroke-linecap:square;stroke-linejoin:miter;"/>
   </g>
   <g id="patch_4">
    <path d="M 648 640.8 
L 648 86.4 
" style="fill:none;stroke:#cccccc;stroke-linecap:square;stroke-linejoin:miter;"/>
   </g>
   <g id="patch_5">
    <path d="M 90 640.8 
L 648 640.8 
" style="fill:none;stroke:#cccccc;stroke-linecap:square;stroke-linejoin:miter;"/>
   </g>
   <g id="patch_6">
    <path d="M 90 86.4 
L 648 86.4 
" style="fill:none;stroke:#cccccc;stroke-linecap:square;stroke-linejoin:miter;"/>
   </g>
   <g id="text_12">
    <!-- 1 (2014-06-07) -->
    <g style="fill:#262626;" transform="translate(120.363636 623.198437)scale(0.1 -0.1)">
     <defs>
      <path id="DejaVuSans-32"/>
      <path d="M 31 75.875 
Q 24.46875 64.65625 21.28125 53.65625 
Q 18.109375 42.671875 18.109375 31.390625 
Q 18.109375 20.125 21.3125 9.0625 
Q 24.515625 -2 31 -13.1875 
L 23.1875 -13.1875 
Q 15.875 -1.703125 12.234375 9.375 
Q 8.59375 20.453125 8.59375 31.390625 
Q 8.59375 42.28125 12.203125 53.3125 
Q 15.828125 64.359375 23.1875 75.875 
z
" id="DejaVuSans-40"/>
      <path d="M 4.890625 31.390625 
L 31.203125 31.390625 
L 31.203125 23.390625 
L 4.890625 23.390625 
z
" id="DejaVuSans-45"/>
      <path d="M 8.015625 75.875 
L 15.828125 75.875 
Q 23.140625 64.359375 26.78125 53.3125 
Q 30.421875 42.28125 30.421875 31.390625 
Q 30.421875 20.453125 26.78125 9.375 
Q 23.140625 -1.703125 15.828125 -13.1875 
L 8.015625 -13.1875 
Q 14.5 -2 17.703125 9.0625 
Q 20.90625 20.125 20.90625 31.390625 
Q 20.90625 42.671875 17.703125 53.65625 
Q 14.5 64.65625 8.015625 75.875 
z
" id="DejaVuSans-41"/>
     </defs>
     <use xlink:href="#DejaVuSans-49"/>
     <use x="63.623047" xlink:href="#DejaVuSans-32"/>
     <use x="95.410156" xlink:href="#DejaVuSans-40"/>
     <use x="134.423828" xlink:href="#DejaVuSans-50"/>
     <use x="198.046875" xlink:href="#DejaVuSans-48"/>
     <use x="261.669922" xlink:href="#DejaVuSans-49"/>
     <use x="325.292969" xlink:href="#DejaVuSans-52"/>
     <use x="388.916016" xlink:href="#DejaVuSans-45"/>
     <use x="425" xlink:href="#DejaVuSans-48"/>
     <use x="488.623047" xlink:href="#DejaVuSans-54"/>
     <use x="552.246094" xlink:href="#DejaVuSans-45"/>
     <use x="588.330078" xlink:href="#DejaVuSans-48"/>
     <use x="651.953125" xlink:href="#DejaVuSans-55"/>
     <use x="715.576172" xlink:href="#DejaVuSans-41"/>
    </g>
   </g>
   <g id="text_13">
    <!-- 9043 (2015-07-01) -->
    <g style="fill:#262626;" transform="translate(207.39987 572.794535)scale(0.1 -0.1)">
     <defs>
      <path d="M 40.578125 39.3125 
Q 47.65625 37.796875 51.625 33 
Q 55.609375 28.21875 55.609375 21.1875 
Q 55.609375 10.40625 48.1875 4.484375 
Q 40.765625 -1.421875 27.09375 -1.421875 
Q 22.515625 -1.421875 17.65625 -0.515625 
Q 12.796875 0.390625 7.625 2.203125 
L 7.625 11.71875 
Q 11.71875 9.328125 16.59375 8.109375 
Q 21.484375 6.890625 26.8125 6.890625 
Q 36.078125 6.890625 40.9375 10.546875 
Q 45.796875 14.203125 45.796875 21.1875 
Q 45.796875 27.640625 41.28125 31.265625 
Q 36.765625 34.90625 28.71875 34.90625 
L 20.21875 34.90625 
L 20.21875 43.015625 
L 29.109375 43.015625 
Q 36.375 43.015625 40.234375 45.921875 
Q 44.09375 48.828125 44.09375 54.296875 
Q 44.09375 59.90625 40.109375 62.90625 
Q 36.140625 65.921875 28.71875 65.921875 
Q 24.65625 65.921875 20.015625 65.03125 
Q 15.375 64.15625 9.8125 62.3125 
L 9.8125 71.09375 
Q 15.4375 72.65625 20.34375 73.4375 
Q 25.25 74.21875 29.59375 74.21875 
Q 40.828125 74.21875 47.359375 69.109375 
Q 53.90625 64.015625 53.90625 55.328125 
Q 53.90625 49.265625 50.4375 45.09375 
Q 46.96875 40.921875 40.578125 39.3125 
z
" id="DejaVuSans-51"/>
     </defs>
     <use xlink:href="#DejaVuSans-57"/>
     <use x="63.623047" xlink:href="#DejaVuSans-48"/>
     <use x="127.246094" xlink:href="#DejaVuSans-52"/>
     <use x="190.869141" xlink:href="#DejaVuSans-51"/>
     <use x="254.492188" xlink:href="#DejaVuSans-32"/>
     <use x="286.279297" xlink:href="#DejaVuSans-40"/>
     <use x="325.292969" xlink:href="#DejaVuSans-50"/>
     <use x="388.916016" xlink:href="#DejaVuSans-48"/>
     <use x="452.539062" xlink:href="#DejaVuSans-49"/>
     <use x="516.162109" xlink:href="#DejaVuSans-53"/>
     <use x="579.785156" xlink:href="#DejaVuSans-45"/>
     <use x="615.869141" xlink:href="#DejaVuSans-48"/>
     <use x="679.492188" xlink:href="#DejaVuSans-55"/>
     <use x="743.115234" xlink:href="#DejaVuSans-45"/>
     <use x="779.199219" xlink:href="#DejaVuSans-48"/>
     <use x="842.822266" xlink:href="#DejaVuSans-49"/>
     <use x="906.445312" xlink:href="#DejaVuSans-41"/>
    </g>
   </g>
   <g id="text_14">
    <!-- 18085 (2016-02-11) -->
    <g style="fill:#262626;" transform="translate(257.722585 522.390633)scale(0.1 -0.1)">
     <use xlink:href="#DejaVuSans-49"/>
     <use x="63.623047" xlink:href="#DejaVuSans-56"/>
     <use x="127.246094" xlink:href="#DejaVuSans-48"/>
     <use x="190.869141" xlink:href="#DejaVuSans-56"/>
     <use x="254.492188" xlink:href="#DejaVuSans-53"/>
     <use x="318.115234" xlink:href="#DejaVuSans-32"/>
     <use x="349.902344" xlink:href="#DejaVuSans-40"/>
     <use x="388.916016" xlink:href="#DejaVuSans-50"/>
     <use x="452.539062" xlink:href="#DejaVuSans-48"/>
     <use x="516.162109" xlink:href="#DejaVuSans-49"/>
     <use x="579.785156" xlink:href="#DejaVuSans-54"/>
     <use x="643.408203" xlink:href="#DejaVuSans-45"/>
     <use x="679.492188" xlink:href="#DejaVuSans-48"/>
     <use x="743.115234" xlink:href="#DejaVuSans-50"/>
     <use x="806.738281" xlink:href="#DejaVuSans-45"/>
     <use x="842.822266" xlink:href="#DejaVuSans-49"/>
     <use x="906.445312" xlink:href="#DejaVuSans-49"/>
     <use x="970.068359" xlink:href="#DejaVuSans-41"/>
    </g>
   </g>
   <g id="text_15">
    <!-- 27127 (2016-08-30) -->
    <g style="fill:#262626;" transform="translate(302.497856 471.986731)scale(0.1 -0.1)">
     <use xlink:href="#DejaVuSans-50"/>
     <use x="63.623047" xlink:href="#DejaVuSans-55"/>
     <use x="127.246094" xlink:href="#DejaVuSans-49"/>
     <use x="190.869141" xlink:href="#DejaVuSans-50"/>
     <use x="254.492188" xlink:href="#DejaVuSans-55"/>
     <use x="318.115234" xlink:href="#DejaVuSans-32"/>
     <use x="349.902344" xlink:href="#DejaVuSans-40"/>
     <use x="388.916016" xlink:href="#DejaVuSans-50"/>
     <use x="452.539062" xlink:href="#DejaVuSans-48"/>
     <use x="516.162109" xlink:href="#DejaVuSans-49"/>
     <use x="579.785156" xlink:href="#DejaVuSans-54"/>
     <use x="643.408203" xlink:href="#DejaVuSans-45"/>
     <use x="679.492188" xlink:href="#DejaVuSans-48"/>
     <use x="743.115234" xlink:href="#DejaVuSans-56"/>
     <use x="806.738281" xlink:href="#DejaVuSans-45"/>
     <use x="842.822266" xlink:href="#DejaVuSans-51"/>
     <use x="906.445312" xlink:href="#DejaVuSans-48"/>
     <use x="970.068359" xlink:href="#DejaVuSans-41"/>
    </g>
   </g>
   <g id="text_16">
    <!-- 36169 (2017-02-27) -->
    <g style="fill:#262626;" transform="translate(342.98203 421.582829)scale(0.1 -0.1)">
     <use xlink:href="#DejaVuSans-51"/>
     <use x="63.623047" xlink:href="#DejaVuSans-54"/>
     <use x="127.246094" xlink:href="#DejaVuSans-49"/>
     <use x="190.869141" xlink:href="#DejaVuSans-54"/>
     <use x="254.492188" xlink:href="#DejaVuSans-57"/>
     <use x="318.115234" xlink:href="#DejaVuSans-32"/>
     <use x="349.902344" xlink:href="#DejaVuSans-40"/>
     <use x="388.916016" xlink:href="#DejaVuSans-50"/>
     <use x="452.539062" xlink:href="#DejaVuSans-48"/>
     <use x="516.162109" xlink:href="#DejaVuSans-49"/>
     <use x="579.785156" xlink:href="#DejaVuSans-55"/>
     <use x="643.408203" xlink:href="#DejaVuSans-45"/>
     <use x="679.492188" xlink:href="#DejaVuSans-48"/>
     <use x="743.115234" xlink:href="#DejaVuSans-50"/>
     <use x="806.738281" xlink:href="#DejaVuSans-45"/>
     <use x="842.822266" xlink:href="#DejaVuSans-50"/>
     <use x="906.445312" xlink:href="#DejaVuSans-55"/>
     <use x="970.068359" xlink:href="#DejaVuSans-41"/>
    </g>
   </g>
   <g id="text_17">
    <!-- 45210 (2017-08-17) -->
    <g style="fill:#262626;" transform="translate(381.114672 371.184501)scale(0.1 -0.1)">
     <use xlink:href="#DejaVuSans-52"/>
     <use x="63.623047" xlink:href="#DejaVuSans-53"/>
     <use x="127.246094" xlink:href="#DejaVuSans-50"/>
     <use x="190.869141" xlink:href="#DejaVuSans-49"/>
     <use x="254.492188" xlink:href="#DejaVuSans-48"/>
     <use x="318.115234" xlink:href="#DejaVuSans-32"/>
     <use x="349.902344" xlink:href="#DejaVuSans-40"/>
     <use x="388.916016" xlink:href="#DejaVuSans-50"/>
     <use x="452.539062" xlink:href="#DejaVuSans-48"/>
     <use x="516.162109" xlink:href="#DejaVuSans-49"/>
     <use x="579.785156" xlink:href="#DejaVuSans-55"/>
     <use x="643.408203" xlink:href="#DejaVuSans-45"/>
     <use x="679.492188" xlink:href="#DejaVuSans-48"/>
     <use x="743.115234" xlink:href="#DejaVuSans-56"/>
     <use x="806.738281" xlink:href="#DejaVuSans-45"/>
     <use x="842.822266" xlink:href="#DejaVuSans-49"/>
     <use x="906.445312" xlink:href="#DejaVuSans-55"/>
     <use x="970.068359" xlink:href="#DejaVuSans-41"/>
    </g>
   </g>
   <g id="text_18">
    <!-- 54251 (2018-02-13) -->
    <g style="fill:#262626;" transform="translate(421.48277 320.786174)scale(0.1 -0.1)">
     <use xlink:href="#DejaVuSans-53"/>
     <use x="63.623047" xlink:href="#DejaVuSans-52"/>
     <use x="127.246094" xlink:href="#DejaVuSans-50"/>
     <use x="190.869141" xlink:href="#DejaVuSans-53"/>
     <use x="254.492188" xlink:href="#DejaVuSans-49"/>
     <use x="318.115234" xlink:href="#DejaVuSans-32"/>
     <use x="349.902344" xlink:href="#DejaVuSans-40"/>
     <use x="388.916016" xlink:href="#DejaVuSans-50"/>
     <use x="452.539062" xlink:href="#DejaVuSans-48"/>
     <use x="516.162109" xlink:href="#DejaVuSans-49"/>
     <use x="579.785156" xlink:href="#DejaVuSans-56"/>
     <use x="643.408203" xlink:href="#DejaVuSans-45"/>
     <use x="679.492188" xlink:href="#DejaVuSans-48"/>
     <use x="743.115234" xlink:href="#DejaVuSans-50"/>
     <use x="806.738281" xlink:href="#DejaVuSans-45"/>
     <use x="842.822266" xlink:href="#DejaVuSans-49"/>
     <use x="906.445312" xlink:href="#DejaVuSans-51"/>
     <use x="970.068359" xlink:href="#DejaVuSans-41"/>
    </g>
   </g>
   <g id="text_19">
    <!-- 63292 (2018-08-06) -->
    <g style="fill:#262626;" transform="translate(460.239324 270.387846)scale(0.1 -0.1)">
     <use xlink:href="#DejaVuSans-54"/>
     <use x="63.623047" xlink:href="#DejaVuSans-51"/>
     <use x="127.246094" xlink:href="#DejaVuSans-50"/>
     <use x="190.869141" xlink:href="#DejaVuSans-57"/>
     <use x="254.492188" xlink:href="#DejaVuSans-50"/>
     <use x="318.115234" xlink:href="#DejaVuSans-32"/>
     <use x="349.902344" xlink:href="#DejaVuSans-40"/>
     <use x="388.916016" xlink:href="#DejaVuSans-50"/>
     <use x="452.539062" xlink:href="#DejaVuSans-48"/>
     <use x="516.162109" xlink:href="#DejaVuSans-49"/>
     <use x="579.785156" xlink:href="#DejaVuSans-56"/>
     <use x="643.408203" xlink:href="#DejaVuSans-45"/>
     <use x="679.492188" xlink:href="#DejaVuSans-48"/>
     <use x="743.115234" xlink:href="#DejaVuSans-56"/>
     <use x="806.738281" xlink:href="#DejaVuSans-45"/>
     <use x="842.822266" xlink:href="#DejaVuSans-48"/>
     <use x="906.445312" xlink:href="#DejaVuSans-54"/>
     <use x="970.068359" xlink:href="#DejaVuSans-41"/>
    </g>
   </g>
   <g id="text_20">
    <!-- 72333 (2019-04-05) -->
    <g style="fill:#262626;" transform="translate(514.29493 219.989518)scale(0.1 -0.1)">
     <use xlink:href="#DejaVuSans-55"/>
     <use x="63.623047" xlink:href="#DejaVuSans-50"/>
     <use x="127.246094" xlink:href="#DejaVuSans-51"/>
     <use x="190.869141" xlink:href="#DejaVuSans-51"/>
     <use x="254.492188" xlink:href="#DejaVuSans-51"/>
     <use x="318.115234" xlink:href="#DejaVuSans-32"/>
     <use x="349.902344" xlink:href="#DejaVuSans-40"/>
     <use x="388.916016" xlink:href="#DejaVuSans-50"/>
     <use x="452.539062" xlink:href="#DejaVuSans-48"/>
     <use x="516.162109" xlink:href="#DejaVuSans-49"/>
     <use x="579.785156" xlink:href="#DejaVuSans-57"/>
     <use x="643.408203" xlink:href="#DejaVuSans-45"/>
     <use x="679.492188" xlink:href="#DejaVuSans-48"/>
     <use x="743.115234" xlink:href="#DejaVuSans-52"/>
     <use x="806.738281" xlink:href="#DejaVuSans-45"/>
     <use x="842.822266" xlink:href="#DejaVuSans-48"/>
     <use x="906.445312" xlink:href="#DejaVuSans-53"/>
     <use x="970.068359" xlink:href="#DejaVuSans-41"/>
    </g>
   </g>
   <g id="text_21">
    <!-- 81374 (2019-11-16) -->
    <g style="fill:#262626;" transform="translate(564.552982 169.591191)scale(0.1 -0.1)">
     <use xlink:href="#DejaVuSans-56"/>
     <use x="63.623047" xlink:href="#DejaVuSans-49"/>
     <use x="127.246094" xlink:href="#DejaVuSans-51"/>
     <use x="190.869141" xlink:href="#DejaVuSans-55"/>
     <use x="254.492188" xlink:href="#DejaVuSans-52"/>
     <use x="318.115234" xlink:href="#DejaVuSans-32"/>
     <use x="349.902344" xlink:href="#DejaVuSans-40"/>
     <use x="388.916016" xlink:href="#DejaVuSans-50"/>
     <use x="452.539062" xlink:href="#DejaVuSans-48"/>
     <use x="516.162109" xlink:href="#DejaVuSans-49"/>
     <use x="579.785156" xlink:href="#DejaVuSans-57"/>
     <use x="643.408203" xlink:href="#DejaVuSans-45"/>
     <use x="679.492188" xlink:href="#DejaVuSans-49"/>
     <use x="743.115234" xlink:href="#DejaVuSans-49"/>
     <use x="806.738281" xlink:href="#DejaVuSans-45"/>
     <use x="842.822266" xlink:href="#DejaVuSans-49"/>
     <use x="906.445312" xlink:href="#DejaVuSans-54"/>
     <use x="970.068359" xlink:href="#DejaVuSans-41"/>
    </g>
   </g>
   <g id="text_22">
    <!-- 90414 (2020-08-24) -->
    <g style="fill:#262626;" transform="translate(627.636364 119.198437)scale(0.1 -0.1)">
     <use xlink:href="#DejaVuSans-57"/>
     <use x="63.623047" xlink:href="#DejaVuSans-48"/>
     <use x="127.246094" xlink:href="#DejaVuSans-52"/>
     <use x="190.869141" xlink:href="#DejaVuSans-49"/>
     <use x="254.492188" xlink:href="#DejaVuSans-52"/>
     <use x="318.115234" xlink:href="#DejaVuSans-32"/>
     <use x="349.902344" xlink:href="#DejaVuSans-40"/>
     <use x="388.916016" xlink:href="#DejaVuSans-50"/>
     <use x="452.539062" xlink:href="#DejaVuSans-48"/>
     <use x="516.162109" xlink:href="#DejaVuSans-50"/>
     <use x="579.785156" xlink:href="#DejaVuSans-48"/>
     <use x="643.408203" xlink:href="#DejaVuSans-45"/>
     <use x="679.492188" xlink:href="#DejaVuSans-48"/>
     <use x="743.115234" xlink:href="#DejaVuSans-56"/>
     <use x="806.738281" xlink:href="#DejaVuSans-45"/>
     <use x="842.822266" xlink:href="#DejaVuSans-50"/>
     <use x="906.445312" xlink:href="#DejaVuSans-52"/>
     <use x="970.068359" xlink:href="#DejaVuSans-41"/>
    </g>
   </g>
   <g id="text_23">
    <!-- Closed issues and PRs over time -->
    <g style="fill:#262626;" transform="translate(271.635938 80.4)scale(0.12 -0.12)">
     <defs>
      <path d="M 64.40625 67.28125 
L 64.40625 56.890625 
Q 59.421875 61.53125 53.78125 63.8125 
Q 48.140625 66.109375 41.796875 66.109375 
Q 29.296875 66.109375 22.65625 58.46875 
Q 16.015625 50.828125 16.015625 36.375 
Q 16.015625 21.96875 22.65625 14.328125 
Q 29.296875 6.6875 41.796875 6.6875 
Q 48.140625 6.6875 53.78125 8.984375 
Q 59.421875 11.28125 64.40625 15.921875 
L 64.40625 5.609375 
Q 59.234375 2.09375 53.4375 0.328125 
Q 47.65625 -1.421875 41.21875 -1.421875 
Q 24.65625 -1.421875 15.125 8.703125 
Q 5.609375 18.84375 5.609375 36.375 
Q 5.609375 53.953125 15.125 64.078125 
Q 24.65625 74.21875 41.21875 74.21875 
Q 47.75 74.21875 53.53125 72.484375 
Q 59.328125 70.75 64.40625 67.28125 
z
" id="DejaVuSans-67"/>
      <path d="M 9.421875 75.984375 
L 18.40625 75.984375 
L 18.40625 0 
L 9.421875 0 
z
" id="DejaVuSans-108"/>
      <path d="M 30.609375 48.390625 
Q 23.390625 48.390625 19.1875 42.75 
Q 14.984375 37.109375 14.984375 27.296875 
Q 14.984375 17.484375 19.15625 11.84375 
Q 23.34375 6.203125 30.609375 6.203125 
Q 37.796875 6.203125 41.984375 11.859375 
Q 46.1875 17.53125 46.1875 27.296875 
Q 46.1875 37.015625 41.984375 42.703125 
Q 37.796875 48.390625 30.609375 48.390625 
z
M 30.609375 56 
Q 42.328125 56 49.015625 48.375 
Q 55.71875 40.765625 55.71875 27.296875 
Q 55.71875 13.875 49.015625 6.21875 
Q 42.328125 -1.421875 30.609375 -1.421875 
Q 18.84375 -1.421875 12.171875 6.21875 
Q 5.515625 13.875 5.515625 27.296875 
Q 5.515625 40.765625 12.171875 48.375 
Q 18.84375 56 30.609375 56 
z
" id="DejaVuSans-111"/>
      <path d="M 44.28125 53.078125 
L 44.28125 44.578125 
Q 40.484375 46.53125 36.375 47.5 
Q 32.28125 48.484375 27.875 48.484375 
Q 21.1875 48.484375 17.84375 46.4375 
Q 14.5 44.390625 14.5 40.28125 
Q 14.5 37.15625 16.890625 35.375 
Q 19.28125 33.59375 26.515625 31.984375 
L 29.59375 31.296875 
Q 39.15625 29.25 43.1875 25.515625 
Q 47.21875 21.78125 47.21875 15.09375 
Q 47.21875 7.46875 41.1875 3.015625 
Q 35.15625 -1.421875 24.609375 -1.421875 
Q 20.21875 -1.421875 15.453125 -0.5625 
Q 10.6875 0.296875 5.421875 2 
L 5.421875 11.28125 
Q 10.40625 8.6875 15.234375 7.390625 
Q 20.0625 6.109375 24.8125 6.109375 
Q 31.15625 6.109375 34.5625 8.28125 
Q 37.984375 10.453125 37.984375 14.40625 
Q 37.984375 18.0625 35.515625 20.015625 
Q 33.0625 21.96875 24.703125 23.78125 
L 21.578125 24.515625 
Q 13.234375 26.265625 9.515625 29.90625 
Q 5.8125 33.546875 5.8125 39.890625 
Q 5.8125 47.609375 11.28125 51.796875 
Q 16.75 56 26.8125 56 
Q 31.78125 56 36.171875 55.265625 
Q 40.578125 54.546875 44.28125 53.078125 
z
" id="DejaVuSans-115"/>
      <path d="M 56.203125 29.59375 
L 56.203125 25.203125 
L 14.890625 25.203125 
Q 15.484375 15.921875 20.484375 11.0625 
Q 25.484375 6.203125 34.421875 6.203125 
Q 39.59375 6.203125 44.453125 7.46875 
Q 49.3125 8.734375 54.109375 11.28125 
L 54.109375 2.78125 
Q 49.265625 0.734375 44.1875 -0.34375 
Q 39.109375 -1.421875 33.890625 -1.421875 
Q 20.796875 -1.421875 13.15625 6.1875 
Q 5.515625 13.8125 5.515625 26.8125 
Q 5.515625 40.234375 12.765625 48.109375 
Q 20.015625 56 32.328125 56 
Q 43.359375 56 49.78125 48.890625 
Q 56.203125 41.796875 56.203125 29.59375 
z
M 47.21875 32.234375 
Q 47.125 39.59375 43.09375 43.984375 
Q 39.0625 48.390625 32.421875 48.390625 
Q 24.90625 48.390625 20.390625 44.140625 
Q 15.875 39.890625 15.1875 32.171875 
z
" id="DejaVuSans-101"/>
      <path d="M 45.40625 46.390625 
L 45.40625 75.984375 
L 54.390625 75.984375 
L 54.390625 0 
L 45.40625 0 
L 45.40625 8.203125 
Q 42.578125 3.328125 38.25 0.953125 
Q 33.9375 -1.421875 27.875 -1.421875 
Q 17.96875 -1.421875 11.734375 6.484375 
Q 5.515625 14.40625 5.515625 27.296875 
Q 5.515625 40.1875 11.734375 48.09375 
Q 17.96875 56 27.875 56 
Q 33.9375 56 38.25 53.625 
Q 42.578125 51.265625 45.40625 46.390625 
z
M 14.796875 27.296875 
Q 14.796875 17.390625 18.875 11.75 
Q 22.953125 6.109375 30.078125 6.109375 
Q 37.203125 6.109375 41.296875 11.75 
Q 45.40625 17.390625 45.40625 27.296875 
Q 45.40625 37.203125 41.296875 42.84375 
Q 37.203125 48.484375 30.078125 48.484375 
Q 22.953125 48.484375 18.875 42.84375 
Q 14.796875 37.203125 14.796875 27.296875 
z
" id="DejaVuSans-100"/>
      <path d="M 9.421875 54.6875 
L 18.40625 54.6875 
L 18.40625 0 
L 9.421875 0 
z
M 9.421875 75.984375 
L 18.40625 75.984375 
L 18.40625 64.59375 
L 9.421875 64.59375 
z
" id="DejaVuSans-105"/>
      <path d="M 8.5 21.578125 
L 8.5 54.6875 
L 17.484375 54.6875 
L 17.484375 21.921875 
Q 17.484375 14.15625 20.5 10.265625 
Q 23.53125 6.390625 29.59375 6.390625 
Q 36.859375 6.390625 41.078125 11.03125 
Q 45.3125 15.671875 45.3125 23.6875 
L 45.3125 54.6875 
L 54.296875 54.6875 
L 54.296875 0 
L 45.3125 0 
L 45.3125 8.40625 
Q 42.046875 3.421875 37.71875 1 
Q 33.40625 -1.421875 27.6875 -1.421875 
Q 18.265625 -1.421875 13.375 4.4375 
Q 8.5 10.296875 8.5 21.578125 
z
M 31.109375 56 
z
" id="DejaVuSans-117"/>
      <path d="M 34.28125 27.484375 
Q 23.390625 27.484375 19.1875 25 
Q 14.984375 22.515625 14.984375 16.5 
Q 14.984375 11.71875 18.140625 8.90625 
Q 21.296875 6.109375 26.703125 6.109375 
Q 34.1875 6.109375 38.703125 11.40625 
Q 43.21875 16.703125 43.21875 25.484375 
L 43.21875 27.484375 
z
M 52.203125 31.203125 
L 52.203125 0 
L 43.21875 0 
L 43.21875 8.296875 
Q 40.140625 3.328125 35.546875 0.953125 
Q 30.953125 -1.421875 24.3125 -1.421875 
Q 15.921875 -1.421875 10.953125 3.296875 
Q 6 8.015625 6 15.921875 
Q 6 25.140625 12.171875 29.828125 
Q 18.359375 34.515625 30.609375 34.515625 
L 43.21875 34.515625 
L 43.21875 35.40625 
Q 43.21875 41.609375 39.140625 45 
Q 35.0625 48.390625 27.6875 48.390625 
Q 23 48.390625 18.546875 47.265625 
Q 14.109375 46.140625 10.015625 43.890625 
L 10.015625 52.203125 
Q 14.9375 54.109375 19.578125 55.046875 
Q 24.21875 56 28.609375 56 
Q 40.484375 56 46.34375 49.84375 
Q 52.203125 43.703125 52.203125 31.203125 
z
" id="DejaVuSans-97"/>
      <path d="M 54.890625 33.015625 
L 54.890625 0 
L 45.90625 0 
L 45.90625 32.71875 
Q 45.90625 40.484375 42.875 44.328125 
Q 39.84375 48.1875 33.796875 48.1875 
Q 26.515625 48.1875 22.3125 43.546875 
Q 18.109375 38.921875 18.109375 30.90625 
L 18.109375 0 
L 9.078125 0 
L 9.078125 54.6875 
L 18.109375 54.6875 
L 18.109375 46.1875 
Q 21.34375 51.125 25.703125 53.5625 
Q 30.078125 56 35.796875 56 
Q 45.21875 56 50.046875 50.171875 
Q 54.890625 44.34375 54.890625 33.015625 
z
" id="DejaVuSans-110"/>
      <path d="M 19.671875 64.796875 
L 19.671875 37.40625 
L 32.078125 37.40625 
Q 38.96875 37.40625 42.71875 40.96875 
Q 46.484375 44.53125 46.484375 51.125 
Q 46.484375 57.671875 42.71875 61.234375 
Q 38.96875 64.796875 32.078125 64.796875 
z
M 9.8125 72.90625 
L 32.078125 72.90625 
Q 44.34375 72.90625 50.609375 67.359375 
Q 56.890625 61.8125 56.890625 51.125 
Q 56.890625 40.328125 50.609375 34.8125 
Q 44.34375 29.296875 32.078125 29.296875 
L 19.671875 29.296875 
L 19.671875 0 
L 9.8125 0 
z
" id="DejaVuSans-80"/>
      <path d="M 44.390625 34.1875 
Q 47.5625 33.109375 50.5625 29.59375 
Q 53.5625 26.078125 56.59375 19.921875 
L 66.609375 0 
L 56 0 
L 46.6875 18.703125 
Q 43.0625 26.03125 39.671875 28.421875 
Q 36.28125 30.8125 30.421875 30.8125 
L 19.671875 30.8125 
L 19.671875 0 
L 9.8125 0 
L 9.8125 72.90625 
L 32.078125 72.90625 
Q 44.578125 72.90625 50.734375 67.671875 
Q 56.890625 62.453125 56.890625 51.90625 
Q 56.890625 45.015625 53.6875 40.46875 
Q 50.484375 35.9375 44.390625 34.1875 
z
M 19.671875 64.796875 
L 19.671875 38.921875 
L 32.078125 38.921875 
Q 39.203125 38.921875 42.84375 42.21875 
Q 46.484375 45.515625 46.484375 51.90625 
Q 46.484375 58.296875 42.84375 61.546875 
Q 39.203125 64.796875 32.078125 64.796875 
z
" id="DejaVuSans-82"/>
      <path d="M 2.984375 54.6875 
L 12.5 54.6875 
L 29.59375 8.796875 
L 46.6875 54.6875 
L 56.203125 54.6875 
L 35.6875 0 
L 23.484375 0 
z
" id="DejaVuSans-118"/>
      <path d="M 41.109375 46.296875 
Q 39.59375 47.171875 37.8125 47.578125 
Q 36.03125 48 33.890625 48 
Q 26.265625 48 22.1875 43.046875 
Q 18.109375 38.09375 18.109375 28.8125 
L 18.109375 0 
L 9.078125 0 
L 9.078125 54.6875 
L 18.109375 54.6875 
L 18.109375 46.1875 
Q 20.953125 51.171875 25.484375 53.578125 
Q 30.03125 56 36.53125 56 
Q 37.453125 56 38.578125 55.875 
Q 39.703125 55.765625 41.0625 55.515625 
z
" id="DejaVuSans-114"/>
      <path d="M 18.3125 70.21875 
L 18.3125 54.6875 
L 36.8125 54.6875 
L 36.8125 47.703125 
L 18.3125 47.703125 
L 18.3125 18.015625 
Q 18.3125 11.328125 20.140625 9.421875 
Q 21.96875 7.515625 27.59375 7.515625 
L 36.8125 7.515625 
L 36.8125 0 
L 27.59375 0 
Q 17.1875 0 13.234375 3.875 
Q 9.28125 7.765625 9.28125 18.015625 
L 9.28125 47.703125 
L 2.6875 47.703125 
L 2.6875 54.6875 
L 9.28125 54.6875 
L 9.28125 70.21875 
z
" id="DejaVuSans-116"/>
      <path d="M 52 44.1875 
Q 55.375 50.25 60.0625 53.125 
Q 64.75 56 71.09375 56 
Q 79.640625 56 84.28125 50.015625 
Q 88.921875 44.046875 88.921875 33.015625 
L 88.921875 0 
L 79.890625 0 
L 79.890625 32.71875 
Q 79.890625 40.578125 77.09375 44.375 
Q 74.3125 48.1875 68.609375 48.1875 
Q 61.625 48.1875 57.5625 43.546875 
Q 53.515625 38.921875 53.515625 30.90625 
L 53.515625 0 
L 44.484375 0 
L 44.484375 32.71875 
Q 44.484375 40.625 41.703125 44.40625 
Q 38.921875 48.1875 33.109375 48.1875 
Q 26.21875 48.1875 22.15625 43.53125 
Q 18.109375 38.875 18.109375 30.90625 
L 18.109375 0 
L 9.078125 0 
L 9.078125 54.6875 
L 18.109375 54.6875 
L 18.109375 46.1875 
Q 21.1875 51.21875 25.484375 53.609375 
Q 29.78125 56 35.6875 56 
Q 41.65625 56 45.828125 52.96875 
Q 50 49.953125 52 44.1875 
z
" id="DejaVuSans-109"/>
     </defs>
     <use xlink:href="#DejaVuSans-67"/>
     <use x="69.824219" xlink:href="#DejaVuSans-108"/>
     <use x="97.607422" xlink:href="#DejaVuSans-111"/>
     <use x="158.789062" xlink:href="#DejaVuSans-115"/>
     <use x="210.888672" xlink:href="#DejaVuSans-101"/>
     <use x="272.412109" xlink:href="#DejaVuSans-100"/>
     <use x="335.888672" xlink:href="#DejaVuSans-32"/>
     <use x="367.675781" xlink:href="#DejaVuSans-105"/>
     <use x="395.458984" xlink:href="#DejaVuSans-115"/>
     <use x="447.558594" xlink:href="#DejaVuSans-115"/>
     <use x="499.658203" xlink:href="#DejaVuSans-117"/>
     <use x="563.037109" xlink:href="#DejaVuSans-101"/>
     <use x="624.560547" xlink:href="#DejaVuSans-115"/>
     <use x="676.660156" xlink:href="#DejaVuSans-32"/>
     <use x="708.447266" xlink:href="#DejaVuSans-97"/>
     <use x="769.726562" xlink:href="#DejaVuSans-110"/>
     <use x="833.105469" xlink:href="#DejaVuSans-100"/>
     <use x="896.582031" xlink:href="#DejaVuSans-32"/>
     <use x="928.369141" xlink:href="#DejaVuSans-80"/>
     <use x="988.671875" xlink:href="#DejaVuSans-82"/>
     <use x="1058.154297" xlink:href="#DejaVuSans-115"/>
     <use x="1110.253906" xlink:href="#DejaVuSans-32"/>
     <use x="1142.041016" xlink:href="#DejaVuSans-111"/>
     <use x="1203.222656" xlink:href="#DejaVuSans-118"/>
     <use x="1262.402344" xlink:href="#DejaVuSans-101"/>
     <use x="1323.925781" xlink:href="#DejaVuSans-114"/>
     <use x="1365.039062" xlink:href="#DejaVuSans-32"/>
     <use x="1396.826172" xlink:href="#DejaVuSans-116"/>
     <use x="1436.035156" xlink:href="#DejaVuSans-105"/>
     <use x="1463.818359" xlink:href="#DejaVuSans-109"/>
     <use x="1561.230469" xlink:href="#DejaVuSans-101"/>
    </g>
   </g>
  </g>
 </g>
 <defs>
  <clipPath id="p5d7f6b8080">
   <rect height="554.4" width="558" x="90" y="86.4"/>
  </clipPath>
 </defs>
</svg>
