<?xml version="1.0" encoding="utf-8" standalone="no"?>
<!DOCTYPE svg PUBLIC "-//W3C//DTD SVG 1.1//EN"
  "http://www.w3.org/Graphics/SVG/1.1/DTD/svg11.dtd">
<!-- Created with matplotlib (https://matplotlib.org/) -->
<svg height="720pt" version="1.1" viewBox="0 0 720 720" width="720pt" xmlns="http://www.w3.org/2000/svg" xmlns:xlink="http://www.w3.org/1999/xlink">
 <defs>
  <style type="text/css">
*{stroke-linecap:butt;stroke-linejoin:round;}
  </style>
 </defs>
 <g id="figure_1">
  <g id="patch_1">
   <path d="M 0 720 
L 720 720 
L 720 0 
L 0 0 
z
" style="fill:#ffffff;"/>
  </g>
  <g id="axes_1">
   <g id="patch_2">
    <path d="M 90 640.8 
L 648 640.8 
L 648 86.4 
L 90 86.4 
z
" style="fill:#ffffff;"/>
   </g>
   <g id="matplotlib.axis_1">
    <g id="xtick_1">
     <g id="line2d_1">
      <path clip-path="url(#p55a72d21b5)" d="M 163.482064 640.8 
L 163.482064 86.4 
" style="fill:none;stroke:#cccccc;stroke-linecap:round;stroke-width:0.8;"/>
     </g>
     <g id="line2d_2"/>
     <g id="text_1">
      <!-- 2015 -->
      <defs>
       <path d="M 19.1875 8.296875 
L 53.609375 8.296875 
L 53.609375 0 
L 7.328125 0 
L 7.328125 8.296875 
Q 12.9375 14.109375 22.625 23.890625 
Q 32.328125 33.6875 34.8125 36.53125 
Q 39.546875 41.84375 41.421875 45.53125 
Q 43.3125 49.21875 43.3125 52.78125 
Q 43.3125 58.59375 39.234375 62.25 
Q 35.15625 65.921875 28.609375 65.921875 
Q 23.96875 65.921875 18.8125 64.3125 
Q 13.671875 62.703125 7.8125 59.421875 
L 7.8125 69.390625 
Q 13.765625 71.78125 18.9375 73 
Q 24.125 74.21875 28.421875 74.21875 
Q 39.75 74.21875 46.484375 68.546875 
Q 53.21875 62.890625 53.21875 53.421875 
Q 53.21875 48.921875 51.53125 44.890625 
Q 49.859375 40.875 45.40625 35.40625 
Q 44.1875 33.984375 37.640625 27.21875 
Q 31.109375 20.453125 19.1875 8.296875 
z
" id="DejaVuSans-50"/>
       <path d="M 31.78125 66.40625 
Q 24.171875 66.40625 20.328125 58.90625 
Q 16.5 51.421875 16.5 36.375 
Q 16.5 21.390625 20.328125 13.890625 
Q 24.171875 6.390625 31.78125 6.390625 
Q 39.453125 6.390625 43.28125 13.890625 
Q 47.125 21.390625 47.125 36.375 
Q 47.125 51.421875 43.28125 58.90625 
Q 39.453125 66.40625 31.78125 66.40625 
z
M 31.78125 74.21875 
Q 44.046875 74.21875 50.515625 64.515625 
Q 56.984375 54.828125 56.984375 36.375 
Q 56.984375 17.96875 50.515625 8.265625 
Q 44.046875 -1.421875 31.78125 -1.421875 
Q 19.53125 -1.421875 13.0625 8.265625 
Q 6.59375 17.96875 6.59375 36.375 
Q 6.59375 54.828125 13.0625 64.515625 
Q 19.53125 74.21875 31.78125 74.21875 
z
" id="DejaVuSans-48"/>
       <path d="M 12.40625 8.296875 
L 28.515625 8.296875 
L 28.515625 63.921875 
L 10.984375 60.40625 
L 10.984375 69.390625 
L 28.421875 72.90625 
L 38.28125 72.90625 
L 38.28125 8.296875 
L 54.390625 8.296875 
L 54.390625 0 
L 12.40625 0 
z
" id="DejaVuSans-49"/>
       <path d="M 10.796875 72.90625 
L 49.515625 72.90625 
L 49.515625 64.59375 
L 19.828125 64.59375 
L 19.828125 46.734375 
Q 21.96875 47.46875 24.109375 47.828125 
Q 26.265625 48.1875 28.421875 48.1875 
Q 40.625 48.1875 47.75 41.5 
Q 54.890625 34.8125 54.890625 23.390625 
Q 54.890625 11.625 47.5625 5.09375 
Q 40.234375 -1.421875 26.90625 -1.421875 
Q 22.3125 -1.421875 17.546875 -0.640625 
Q 12.796875 0.140625 7.71875 1.703125 
L 7.71875 11.625 
Q 12.109375 9.234375 16.796875 8.0625 
Q 21.484375 6.890625 26.703125 6.890625 
Q 35.15625 6.890625 40.078125 11.328125 
Q 45.015625 15.765625 45.015625 23.390625 
Q 45.015625 31 40.078125 35.4375 
Q 35.15625 39.890625 26.703125 39.890625 
Q 22.75 39.890625 18.8125 39.015625 
Q 14.890625 38.140625 10.796875 36.28125 
z
" id="DejaVuSans-53"/>
      </defs>
      <g style="fill:#262626;" transform="translate(150.757064 651.898438)scale(0.1 -0.1)">
       <use xlink:href="#DejaVuSans-50"/>
       <use x="63.623047" xlink:href="#DejaVuSans-48"/>
       <use x="127.246094" xlink:href="#DejaVuSans-49"/>
       <use x="190.869141" xlink:href="#DejaVuSans-53"/>
      </g>
     </g>
    </g>
    <g id="xtick_2">
     <g id="line2d_3">
      <path clip-path="url(#p55a72d21b5)" d="M 248.846968 640.8 
L 248.846968 86.4 
" style="fill:none;stroke:#cccccc;stroke-linecap:round;stroke-width:0.8;"/>
     </g>
     <g id="line2d_4"/>
     <g id="text_2">
      <!-- 2016 -->
      <defs>
       <path d="M 33.015625 40.375 
Q 26.375 40.375 22.484375 35.828125 
Q 18.609375 31.296875 18.609375 23.390625 
Q 18.609375 15.53125 22.484375 10.953125 
Q 26.375 6.390625 33.015625 6.390625 
Q 39.65625 6.390625 43.53125 10.953125 
Q 47.40625 15.53125 47.40625 23.390625 
Q 47.40625 31.296875 43.53125 35.828125 
Q 39.65625 40.375 33.015625 40.375 
z
M 52.59375 71.296875 
L 52.59375 62.3125 
Q 48.875 64.0625 45.09375 64.984375 
Q 41.3125 65.921875 37.59375 65.921875 
Q 27.828125 65.921875 22.671875 59.328125 
Q 17.53125 52.734375 16.796875 39.40625 
Q 19.671875 43.65625 24.015625 45.921875 
Q 28.375 48.1875 33.59375 48.1875 
Q 44.578125 48.1875 50.953125 41.515625 
Q 57.328125 34.859375 57.328125 23.390625 
Q 57.328125 12.15625 50.6875 5.359375 
Q 44.046875 -1.421875 33.015625 -1.421875 
Q 20.359375 -1.421875 13.671875 8.265625 
Q 6.984375 17.96875 6.984375 36.375 
Q 6.984375 53.65625 15.1875 63.9375 
Q 23.390625 74.21875 37.203125 74.21875 
Q 40.921875 74.21875 44.703125 73.484375 
Q 48.484375 72.75 52.59375 71.296875 
z
" id="DejaVuSans-54"/>
      </defs>
      <g style="fill:#262626;" transform="translate(236.121968 651.898438)scale(0.1 -0.1)">
       <use xlink:href="#DejaVuSans-50"/>
       <use x="63.623047" xlink:href="#DejaVuSans-48"/>
       <use x="127.246094" xlink:href="#DejaVuSans-49"/>
       <use x="190.869141" xlink:href="#DejaVuSans-54"/>
      </g>
     </g>
    </g>
    <g id="xtick_3">
     <g id="line2d_5">
      <path clip-path="url(#p55a72d21b5)" d="M 334.445749 640.8 
L 334.445749 86.4 
" style="fill:none;stroke:#cccccc;stroke-linecap:round;stroke-width:0.8;"/>
     </g>
     <g id="line2d_6"/>
     <g id="text_3">
      <!-- 2017 -->
      <defs>
       <path d="M 8.203125 72.90625 
L 55.078125 72.90625 
L 55.078125 68.703125 
L 28.609375 0 
L 18.3125 0 
L 43.21875 64.59375 
L 8.203125 64.59375 
z
" id="DejaVuSans-55"/>
      </defs>
      <g style="fill:#262626;" transform="translate(321.720749 651.898438)scale(0.1 -0.1)">
       <use xlink:href="#DejaVuSans-50"/>
       <use x="63.623047" xlink:href="#DejaVuSans-48"/>
       <use x="127.246094" xlink:href="#DejaVuSans-49"/>
       <use x="190.869141" xlink:href="#DejaVuSans-55"/>
      </g>
     </g>
    </g>
    <g id="xtick_4">
     <g id="line2d_7">
      <path clip-path="url(#p55a72d21b5)" d="M 419.810653 640.8 
L 419.810653 86.4 
" style="fill:none;stroke:#cccccc;stroke-linecap:round;stroke-width:0.8;"/>
     </g>
     <g id="line2d_8"/>
     <g id="text_4">
      <!-- 2018 -->
      <defs>
       <path d="M 31.78125 34.625 
Q 24.75 34.625 20.71875 30.859375 
Q 16.703125 27.09375 16.703125 20.515625 
Q 16.703125 13.921875 20.71875 10.15625 
Q 24.75 6.390625 31.78125 6.390625 
Q 38.8125 6.390625 42.859375 10.171875 
Q 46.921875 13.96875 46.921875 20.515625 
Q 46.921875 27.09375 42.890625 30.859375 
Q 38.875 34.625 31.78125 34.625 
z
M 21.921875 38.8125 
Q 15.578125 40.375 12.03125 44.71875 
Q 8.5 49.078125 8.5 55.328125 
Q 8.5 64.0625 14.71875 69.140625 
Q 20.953125 74.21875 31.78125 74.21875 
Q 42.671875 74.21875 48.875 69.140625 
Q 55.078125 64.0625 55.078125 55.328125 
Q 55.078125 49.078125 51.53125 44.71875 
Q 48 40.375 41.703125 38.8125 
Q 48.828125 37.15625 52.796875 32.3125 
Q 56.78125 27.484375 56.78125 20.515625 
Q 56.78125 9.90625 50.3125 4.234375 
Q 43.84375 -1.421875 31.78125 -1.421875 
Q 19.734375 -1.421875 13.25 4.234375 
Q 6.78125 9.90625 6.78125 20.515625 
Q 6.78125 27.484375 10.78125 32.3125 
Q 14.796875 37.15625 21.921875 38.8125 
z
M 18.3125 54.390625 
Q 18.3125 48.734375 21.84375 45.5625 
Q 25.390625 42.390625 31.78125 42.390625 
Q 38.140625 42.390625 41.71875 45.5625 
Q 45.3125 48.734375 45.3125 54.390625 
Q 45.3125 60.0625 41.71875 63.234375 
Q 38.140625 66.40625 31.78125 66.40625 
Q 25.390625 66.40625 21.84375 63.234375 
Q 18.3125 60.0625 18.3125 54.390625 
z
" id="DejaVuSans-56"/>
      </defs>
      <g style="fill:#262626;" transform="translate(407.085653 651.898438)scale(0.1 -0.1)">
       <use xlink:href="#DejaVuSans-50"/>
       <use x="63.623047" xlink:href="#DejaVuSans-48"/>
       <use x="127.246094" xlink:href="#DejaVuSans-49"/>
       <use x="190.869141" xlink:href="#DejaVuSans-56"/>
      </g>
     </g>
    </g>
    <g id="xtick_5">
     <g id="line2d_9">
      <path clip-path="url(#p55a72d21b5)" d="M 505.175557 640.8 
L 505.175557 86.4 
" style="fill:none;stroke:#cccccc;stroke-linecap:round;stroke-width:0.8;"/>
     </g>
     <g id="line2d_10"/>
     <g id="text_5">
      <!-- 2019 -->
      <defs>
       <path d="M 10.984375 1.515625 
L 10.984375 10.5 
Q 14.703125 8.734375 18.5 7.8125 
Q 22.3125 6.890625 25.984375 6.890625 
Q 35.75 6.890625 40.890625 13.453125 
Q 46.046875 20.015625 46.78125 33.40625 
Q 43.953125 29.203125 39.59375 26.953125 
Q 35.25 24.703125 29.984375 24.703125 
Q 19.046875 24.703125 12.671875 31.3125 
Q 6.296875 37.9375 6.296875 49.421875 
Q 6.296875 60.640625 12.9375 67.421875 
Q 19.578125 74.21875 30.609375 74.21875 
Q 43.265625 74.21875 49.921875 64.515625 
Q 56.59375 54.828125 56.59375 36.375 
Q 56.59375 19.140625 48.40625 8.859375 
Q 40.234375 -1.421875 26.421875 -1.421875 
Q 22.703125 -1.421875 18.890625 -0.6875 
Q 15.09375 0.046875 10.984375 1.515625 
z
M 30.609375 32.421875 
Q 37.25 32.421875 41.125 36.953125 
Q 45.015625 41.5 45.015625 49.421875 
Q 45.015625 57.28125 41.125 61.84375 
Q 37.25 66.40625 30.609375 66.40625 
Q 23.96875 66.40625 20.09375 61.84375 
Q 16.21875 57.28125 16.21875 49.421875 
Q 16.21875 41.5 20.09375 36.953125 
Q 23.96875 32.421875 30.609375 32.421875 
z
" id="DejaVuSans-57"/>
      </defs>
      <g style="fill:#262626;" transform="translate(492.450557 651.898438)scale(0.1 -0.1)">
       <use xlink:href="#DejaVuSans-50"/>
       <use x="63.623047" xlink:href="#DejaVuSans-48"/>
       <use x="127.246094" xlink:href="#DejaVuSans-49"/>
       <use x="190.869141" xlink:href="#DejaVuSans-57"/>
      </g>
     </g>
    </g>
    <g id="xtick_6">
     <g id="line2d_11">
      <path clip-path="url(#p55a72d21b5)" d="M 590.540461 640.8 
L 590.540461 86.4 
" style="fill:none;stroke:#cccccc;stroke-linecap:round;stroke-width:0.8;"/>
     </g>
     <g id="line2d_12"/>
     <g id="text_6">
      <!-- 2020 -->
      <g style="fill:#262626;" transform="translate(577.815461 651.898438)scale(0.1 -0.1)">
       <use xlink:href="#DejaVuSans-50"/>
       <use x="63.623047" xlink:href="#DejaVuSans-48"/>
       <use x="127.246094" xlink:href="#DejaVuSans-50"/>
       <use x="190.869141" xlink:href="#DejaVuSans-48"/>
      </g>
     </g>
    </g>
   </g>
   <g id="matplotlib.axis_2">
    <g id="ytick_1">
     <g id="line2d_13">
      <path clip-path="url(#p55a72d21b5)" d="M 90 615.61552 
L 648 615.61552 
" style="fill:none;stroke:#cccccc;stroke-linecap:round;stroke-width:0.8;"/>
     </g>
     <g id="line2d_14"/>
     <g id="text_7">
      <!-- 0 -->
      <g style="fill:#262626;" transform="translate(80.1375 619.414738)scale(0.1 -0.1)">
       <use xlink:href="#DejaVuSans-48"/>
      </g>
     </g>
    </g>
    <g id="ytick_2">
     <g id="line2d_15">
      <path clip-path="url(#p55a72d21b5)" d="M 90 538.017367 
L 648 538.017367 
" style="fill:none;stroke:#cccccc;stroke-linecap:round;stroke-width:0.8;"/>
     </g>
     <g id="line2d_16"/>
     <g id="text_8">
      <!-- 5000 -->
      <g style="fill:#262626;" transform="translate(61.05 541.816586)scale(0.1 -0.1)">
       <use xlink:href="#DejaVuSans-53"/>
       <use x="63.623047" xlink:href="#DejaVuSans-48"/>
       <use x="127.246094" xlink:href="#DejaVuSans-48"/>
       <use x="190.869141" xlink:href="#DejaVuSans-48"/>
      </g>
     </g>
    </g>
    <g id="ytick_3">
     <g id="line2d_17">
      <path clip-path="url(#p55a72d21b5)" d="M 90 460.419215 
L 648 460.419215 
" style="fill:none;stroke:#cccccc;stroke-linecap:round;stroke-width:0.8;"/>
     </g>
     <g id="line2d_18"/>
     <g id="text_9">
      <!-- 10000 -->
      <g style="fill:#262626;" transform="translate(54.6875 464.218434)scale(0.1 -0.1)">
       <use xlink:href="#DejaVuSans-49"/>
       <use x="63.623047" xlink:href="#DejaVuSans-48"/>
       <use x="127.246094" xlink:href="#DejaVuSans-48"/>
       <use x="190.869141" xlink:href="#DejaVuSans-48"/>
       <use x="254.492188" xlink:href="#DejaVuSans-48"/>
      </g>
     </g>
    </g>
    <g id="ytick_4">
     <g id="line2d_19">
      <path clip-path="url(#p55a72d21b5)" d="M 90 382.821062 
L 648 382.821062 
" style="fill:none;stroke:#cccccc;stroke-linecap:round;stroke-width:0.8;"/>
     </g>
     <g id="line2d_20"/>
     <g id="text_10">
      <!-- 15000 -->
      <g style="fill:#262626;" transform="translate(54.6875 386.620281)scale(0.1 -0.1)">
       <use xlink:href="#DejaVuSans-49"/>
       <use x="63.623047" xlink:href="#DejaVuSans-53"/>
       <use x="127.246094" xlink:href="#DejaVuSans-48"/>
       <use x="190.869141" xlink:href="#DejaVuSans-48"/>
       <use x="254.492188" xlink:href="#DejaVuSans-48"/>
      </g>
     </g>
    </g>
    <g id="ytick_5">
     <g id="line2d_21">
      <path clip-path="url(#p55a72d21b5)" d="M 90 305.22291 
L 648 305.22291 
" style="fill:none;stroke:#cccccc;stroke-linecap:round;stroke-width:0.8;"/>
     </g>
     <g id="line2d_22"/>
     <g id="text_11">
      <!-- 20000 -->
      <g style="fill:#262626;" transform="translate(54.6875 309.022129)scale(0.1 -0.1)">
       <use xlink:href="#DejaVuSans-50"/>
       <use x="63.623047" xlink:href="#DejaVuSans-48"/>
       <use x="127.246094" xlink:href="#DejaVuSans-48"/>
       <use x="190.869141" xlink:href="#DejaVuSans-48"/>
       <use x="254.492188" xlink:href="#DejaVuSans-48"/>
      </g>
     </g>
    </g>
    <g id="ytick_6">
     <g id="line2d_23">
      <path clip-path="url(#p55a72d21b5)" d="M 90 227.624758 
L 648 227.624758 
" style="fill:none;stroke:#cccccc;stroke-linecap:round;stroke-width:0.8;"/>
     </g>
     <g id="line2d_24"/>
     <g id="text_12">
      <!-- 25000 -->
      <g style="fill:#262626;" transform="translate(54.6875 231.423976)scale(0.1 -0.1)">
       <use xlink:href="#DejaVuSans-50"/>
       <use x="63.623047" xlink:href="#DejaVuSans-53"/>
       <use x="127.246094" xlink:href="#DejaVuSans-48"/>
       <use x="190.869141" xlink:href="#DejaVuSans-48"/>
       <use x="254.492188" xlink:href="#DejaVuSans-48"/>
      </g>
     </g>
    </g>
    <g id="ytick_7">
     <g id="line2d_25">
      <path clip-path="url(#p55a72d21b5)" d="M 90 150.026605 
L 648 150.026605 
" style="fill:none;stroke:#cccccc;stroke-linecap:round;stroke-width:0.8;"/>
     </g>
     <g id="line2d_26"/>
     <g id="text_13">
      <!-- 30000 -->
      <defs>
       <path d="M 40.578125 39.3125 
Q 47.65625 37.796875 51.625 33 
Q 55.609375 28.21875 55.609375 21.1875 
Q 55.609375 10.40625 48.1875 4.484375 
Q 40.765625 -1.421875 27.09375 -1.421875 
Q 22.515625 -1.421875 17.65625 -0.515625 
Q 12.796875 0.390625 7.625 2.203125 
L 7.625 11.71875 
Q 11.71875 9.328125 16.59375 8.109375 
Q 21.484375 6.890625 26.8125 6.890625 
Q 36.078125 6.890625 40.9375 10.546875 
Q 45.796875 14.203125 45.796875 21.1875 
Q 45.796875 27.640625 41.28125 31.265625 
Q 36.765625 34.90625 28.71875 34.90625 
L 20.21875 34.90625 
L 20.21875 43.015625 
L 29.109375 43.015625 
Q 36.375 43.015625 40.234375 45.921875 
Q 44.09375 48.828125 44.09375 54.296875 
Q 44.09375 59.90625 40.109375 62.90625 
Q 36.140625 65.921875 28.71875 65.921875 
Q 24.65625 65.921875 20.015625 65.03125 
Q 15.375 64.15625 9.8125 62.3125 
L 9.8125 71.09375 
Q 15.4375 72.65625 20.34375 73.4375 
Q 25.25 74.21875 29.59375 74.21875 
Q 40.828125 74.21875 47.359375 69.109375 
Q 53.90625 64.015625 53.90625 55.328125 
Q 53.90625 49.265625 50.4375 45.09375 
Q 46.96875 40.921875 40.578125 39.3125 
z
" id="DejaVuSans-51"/>
      </defs>
      <g style="fill:#262626;" transform="translate(54.6875 153.825824)scale(0.1 -0.1)">
       <use xlink:href="#DejaVuSans-51"/>
       <use x="63.623047" xlink:href="#DejaVuSans-48"/>
       <use x="127.246094" xlink:href="#DejaVuSans-48"/>
       <use x="190.869141" xlink:href="#DejaVuSans-48"/>
       <use x="254.492188" xlink:href="#DejaVuSans-48"/>
      </g>
     </g>
    </g>
   </g>
   <g id="line2d_27">
    <path clip-path="url(#p55a72d21b5)" d="M 115.363636 615.6 
L 116.989838 615.460323 
L 116.995745 615.429284 
L 118.033138 615.336166 
L 119.685546 615.19649 
L 119.794244 615.16545 
L 120.650297 615.041293 
L 120.73361 614.994734 
L 122.950017 614.855058 
L 124.133437 614.668822 
L 126.054521 614.498106 
L 126.08315 614.35843 
L 126.987315 614.218753 
L 127.031289 614.156674 
L 129.53306 613.737644 
L 129.543533 613.722125 
L 130.913946 613.582448 
L 132.008742 613.396212 
L 132.783523 613.225497 
L 133.493606 613.101339 
L 133.58707 613.008222 
L 135.852088 612.573672 
L 136.111872 612.527113 
L 136.984835 612.402956 
L 137.054126 612.309838 
L 140.065177 611.921848 
L 143.564835 611.099307 
L 143.652747 611.052748 
L 144.222279 610.897552 
L 144.298909 610.788915 
L 145.238927 610.664758 
L 146.622201 610.431963 
L 146.728141 610.385404 
L 147.572985 610.199169 
L 148.746584 610.059492 
L 149.148854 609.919815 
L 149.155194 609.888776 
L 150.06293 609.73358 
L 150.583307 609.500785 
L 150.63852 609.423187 
L 152.261969 609.190393 
L 152.266503 609.174873 
L 153.18237 608.973118 
L 153.247878 608.88 
L 156.721295 608.135058 
L 156.721552 608.119538 
L 156.892709 607.995381 
L 157.601951 607.793626 
L 158.327652 607.669469 
L 158.343767 607.498753 
L 158.769162 607.359076 
L 158.811993 607.312517 
L 159.731252 607.126282 
L 159.743685 607.002125 
L 159.977323 606.877968 
L 159.986172 606.567575 
L 160.221491 606.443418 
L 160.267676 606.396859 
L 160.633663 606.241663 
L 160.843857 606.070947 
L 161.383513 605.94679 
L 161.624653 605.869192 
L 163.085398 605.745035 
L 164.89103 605.388083 
L 164.892399 605.341524 
L 165.562057 605.170808 
L 165.60661 605.09321 
L 166.350402 604.969053 
L 166.699882 604.829376 
L 167.012768 604.518984 
L 168.105751 604.301709 
L 168.206133 604.146513 
L 168.621548 603.975797 
L 168.827655 603.913718 
L 168.938795 603.85164 
L 169.563629 603.727483 
L 169.619976 603.603326 
L 169.805136 603.199815 
L 170.021331 603.075658 
L 170.352088 602.827344 
L 171.397981 602.485912 
L 171.514608 602.284157 
L 171.637342 602.16 
L 172.20381 601.570254 
L 172.902397 601.399538 
L 173.259232 601.213303 
L 173.320126 601.011547 
L 173.604416 600.871871 
L 173.768479 600.716674 
L 173.864141 600.670115 
L 174.713648 600.545958 
L 174.739578 600.4994 
L 174.928276 600.375242 
L 175.006286 600.297644 
L 175.25265 600.142448 
L 175.405614 599.971732 
L 176.378618 599.769977 
L 176.471186 599.738938 
L 176.797366 599.583741 
L 176.89659 599.506143 
L 177.09555 599.319908 
L 177.253395 599.118152 
L 177.712913 598.993995 
L 177.818783 598.80776 
L 178.182623 598.497367 
L 178.278759 598.357691 
L 178.59014 598.218014 
L 178.646752 598.109376 
L 179.317089 597.985219 
L 179.617182 597.457552 
L 179.660084 597.364434 
L 179.784588 597.224758 
L 179.914205 596.929885 
L 180.044166 596.790208 
L 180.1601 596.666051 
L 180.308853 596.526374 
L 180.324461 596.448776 
L 180.955234 596.309099 
L 181.024812 596.045266 
L 181.224839 595.905589 
L 181.270296 595.796952 
L 181.448865 595.672794 
L 181.770001 595.191686 
L 181.935241 595.067529 
L 182.004284 595.00545 
L 182.620099 594.834734 
L 182.699839 594.61746 
L 182.832074 594.493303 
L 183.092922 594.136351 
L 183.126799 593.996674 
L 183.298159 593.856998 
L 183.456746 593.639723 
L 183.581656 593.500046 
L 183.660906 593.375889 
L 184.233435 593.236212 
L 184.36786 593.065497 
L 184.523065 592.9103 
L 184.662338 592.661986 
L 184.999126 592.367113 
L 185.188222 592.211917 
L 185.400722 592.118799 
L 186.134739 591.994642 
L 186.345518 591.622171 
L 186.601301 591.373857 
L 186.670622 591.218661 
L 186.823692 591.094503 
L 186.877167 591.016905 
L 187.543845 590.877229 
L 188.047489 590.597875 
L 188.270413 590.39612 
L 188.328717 590.318522 
L 188.461602 590.178845 
L 188.527531 590.008129 
L 189.161615 589.837413 
L 189.467297 589.480462 
L 189.839862 589.340785 
L 189.911722 589.076952 
L 190.143677 588.906236 
L 190.156074 588.890716 
L 190.765298 588.766559 
L 191.793223 587.649145 
L 192.39895 587.47843 
L 192.981185 586.795566 
L 193.131651 586.60933 
L 193.253476 586.376536 
L 193.416564 586.236859 
L 193.419958 586.221339 
L 194.083158 586.050624 
L 194.164368 585.833349 
L 194.489456 585.678152 
L 194.656244 585.507436 
L 194.79666 585.383279 
L 195.591339 585.103926 
L 195.695519 584.979769 
L 195.796866 584.809053 
L 195.96042 584.684896 
L 195.990204 584.560739 
L 196.383877 584.421062 
L 196.493956 584.234827 
L 196.73562 583.955473 
L 197.464202 583.815797 
L 197.806806 583.645081 
L 198.051695 583.381247 
L 198.259912 583.132933 
L 198.394023 583.008776 
L 198.967429 582.884619 
L 199.069006 582.651824 
L 199.238052 582.527667 
L 199.540527 582.139677 
L 199.706763 581.860323 
L 199.807996 581.751686 
L 199.919095 581.627529 
L 200.073689 581.487852 
L 200.602808 581.239538 
L 200.652753 581.130901 
L 200.842466 580.991224 
L 201.102613 580.711871 
L 201.212565 580.587714 
L 201.476393 580.432517 
L 201.582934 580.292841 
L 201.650133 580.106605 
L 202.252286 579.966928 
L 202.333799 579.811732 
L 202.507544 579.687575 
L 202.60737 579.501339 
L 202.746044 579.315104 
L 202.831677 579.221986 
L 202.982893 579.097829 
L 203.094325 578.958152 
L 203.237353 578.818476 
L 203.31326 578.678799 
L 204.119259 578.461524 
L 204.189078 578.321848 
L 204.343096 578.197691 
L 204.420158 577.933857 
L 204.585388 577.778661 
L 204.66597 577.592425 
L 204.818753 577.437229 
L 204.92325 577.219954 
L 205.527593 577.064758 
L 205.800273 576.754365 
L 205.916093 576.52157 
L 206.0913 576.319815 
L 206.177415 576.257737 
L 206.790263 576.087021 
L 207.167487 575.962864 
L 207.227566 575.71455 
L 207.441875 575.590393 
L 207.536232 575.481755 
L 207.629103 575.357598 
L 207.75427 574.736813 
L 207.851261 574.597136 
L 207.968614 574.410901 
L 208.141033 574.193626 
L 208.351624 574.053949 
L 208.817721 573.821155 
L 209.85414 572.548545 
L 210.459317 572.424388 
L 210.707751 572.300231 
L 211.076258 572.129515 
L 211.202697 571.974319 
L 211.203298 571.91224 
L 211.357467 571.788083 
L 211.480436 571.586328 
L 212.035582 571.462171 
L 212.346516 571.198337 
L 212.592865 571.07418 
L 212.66639 570.981062 
L 212.815145 570.841386 
L 212.909305 570.608591 
L 213.043034 570.468915 
L 213.109735 570.422356 
L 213.686525 570.298199 
L 214.407154 569.81709 
L 214.683415 569.677413 
L 214.755708 569.615335 
L 215.294612 569.460139 
L 215.413691 569.304942 
L 215.753511 569.072148 
L 216.02831 568.823834 
L 216.091316 568.699677 
L 216.290065 568.54448 
L 216.372222 568.497921 
L 216.832929 568.373764 
L 216.927782 568.218568 
L 217.045259 568.047852 
L 217.148508 567.954734 
L 217.425606 567.566744 
L 217.537747 567.364988 
L 217.651664 567.240831 
L 217.813738 567.054596 
L 217.959696 566.837321 
L 218.594744 566.682125 
L 218.860199 566.418291 
L 218.883871 566.247575 
L 218.96428 565.021524 
L 219.115961 564.897367 
L 219.229012 564.028268 
L 219.328023 563.888591 
L 219.415626 563.624758 
L 220.190014 563.407483 
L 220.818365 562.740139 
L 221.141318 562.584942 
L 221.232023 562.398707 
L 221.964067 562.25903 
L 222.3041 562.119353 
L 222.409862 561.964157 
L 222.847222 561.746882 
L 223.75928 561.281293 
L 224.043451 560.862263 
L 224.203962 560.707067 
L 224.543281 560.334596 
L 225.17923 560.14836 
L 225.531487 559.791409 
L 225.653642 559.651732 
L 225.804408 559.605173 
L 225.92607 559.481016 
L 226.003279 559.372379 
L 226.140789 559.232702 
L 226.236787 559.170624 
L 226.803223 558.999908 
L 226.894096 558.875751 
L 227.120488 558.580878 
L 227.206773 558.503279 
L 227.290114 558.379122 
L 227.375565 557.944573 
L 227.769371 557.603141 
L 227.824045 557.463464 
L 228.448043 557.339307 
L 229.193689 556.252933 
L 229.290142 556.082217 
L 229.373896 555.94254 
L 229.598323 555.740785 
L 229.613833 555.709746 
L 230.114007 555.585589 
L 230.268287 555.430393 
L 230.513324 555.213118 
L 230.840878 554.747529 
L 231.038211 554.452656 
L 231.110791 554.29746 
L 231.680226 554.126744 
L 231.94812 553.769792 
L 232.145026 553.257644 
L 232.634009 552.916212 
L 232.805053 552.683418 
L 233.339599 552.481663 
L 234.40696 550.991778 
L 235.099695 550.790023 
L 235.169982 550.650346 
L 235.452012 550.47963 
L 235.79803 550.215797 
L 236.193319 549.951963 
L 236.605716 549.781247 
L 236.760721 549.579492 
L 236.908055 549.470855 
L 237.181571 549.315658 
L 237.257944 549.22254 
L 237.574349 549.051824 
L 237.643199 548.912148 
L 238.271647 548.787991 
L 238.380367 548.741432 
L 238.607528 548.508637 
L 238.865079 548.368961 
L 239.095815 548.167206 
L 239.256608 547.949931 
L 239.654409 547.810254 
L 239.805974 547.670577 
L 239.915947 547.437783 
L 240.993936 546.7394 
L 241.457466 546.615242 
L 241.693086 546.227252 
L 242.072118 545.761663 
L 242.146566 545.559908 
L 242.27752 545.435751 
L 242.350899 545.280554 
L 242.538444 545.125358 
L 242.626112 545.016721 
L 243.63095 544.520092 
L 243.944133 544.178661 
L 244.736092 543.914827 
L 244.847603 543.79067 
L 245.032517 543.387159 
L 246.090892 542.673256 
L 246.453105 542.549099 
L 246.723904 542.362864 
L 247.420715 542.145589 
L 248.357609 542.005912 
L 248.714896 541.819677 
L 249.709015 541.68 
L 249.833757 541.540323 
L 251.410661 540.686744 
L 251.467682 540.547067 
L 251.657344 540.40739 
L 251.74728 540.329792 
L 252.335783 540.050439 
L 252.435237 539.926282 
L 253.47422 539.553811 
L 253.585955 539.429654 
L 253.717641 539.274457 
L 253.858993 538.870947 
L 253.967561 538.74679 
L 254.158898 538.498476 
L 254.643575 538.31224 
L 254.709114 538.063926 
L 254.873118 537.924249 
L 254.954682 537.706975 
L 255.232787 537.567298 
L 255.371534 537.396582 
L 256.012091 536.605081 
L 256.333966 536.263649 
L 256.42704 536.20157 
L 256.549817 536.015335 
L 256.630813 535.875658 
L 256.796984 535.735982 
L 256.905764 535.410069 
L 256.984619 535.270393 
L 257.088656 535.084157 
L 257.452853 534.618568 
L 257.958519 534.246097 
L 258.065888 533.997783 
L 258.345549 533.811547 
L 258.880382 532.228545 
L 258.971069 532.104388 
L 259.452389 531.902633 
L 259.574446 531.747436 
L 259.797779 531.561201 
L 259.910895 531.374965 
L 260.069057 531.204249 
L 260.180067 531.111132 
L 260.316042 530.971455 
L 260.403097 530.661062 
L 260.491296 530.505866 
L 260.636797 530.257552 
L 260.80541 530.117875 
L 260.85169 530.086836 
L 261.1664 529.947159 
L 262.388881 527.448499 
L 262.865285 527.153626 
L 263.47476 525.943095 
L 263.539244 525.787898 
L 263.836847 525.073995 
L 264.470005 524.686005 
L 264.589534 524.530808 
L 264.896047 524.344573 
L 265.045804 524.018661 
L 265.574538 523.149561 
L 266.095306 522.978845 
L 266.200071 522.730531 
L 266.377045 522.559815 
L 266.467499 522.404619 
L 266.558671 522.264942 
L 266.695293 522.171824 
L 266.837268 521.985589 
L 266.996569 521.442402 
L 268.962192 520.293949 
L 269.412773 520.169792 
L 269.606719 520.030115 
L 269.915447 519.84388 
L 269.94198 519.750762 
L 270.297957 519.580046 
L 271.356538 519.036859 
L 271.485505 518.866143 
L 271.81101 518.540231 
L 271.964892 518.416074 
L 272.042857 518.260878 
L 272.81659 518.074642 
L 273.144269 517.826328 
L 273.23374 517.671132 
L 273.463423 517.438337 
L 273.47594 517.407298 
L 273.675452 517.267621 
L 274.275329 516.848591 
L 274.41114 516.631316 
L 274.535693 516.49164 
L 274.759118 516.103649 
L 275.523358 515.607021 
L 275.954021 515.467344 
L 276.009702 515.374226 
L 276.243391 515.23455 
L 276.965734 514.474088 
L 277.588075 514.287852 
L 277.701617 514.210254 
L 277.835026 514.070577 
L 277.973238 514.024018 
L 278.54342 513.279076 
L 278.652974 513.185958 
L 279.086956 513.046282 
L 279.190814 512.922125 
L 279.45242 512.673811 
L 279.93018 512.192702 
L 280.034599 512.130624 
L 280.149645 512.006467 
L 280.190758 511.897829 
L 280.543925 511.758152 
L 280.629896 511.618476 
L 280.752567 511.44776 
L 280.865616 511.152887 
L 281.119412 510.470023 
L 281.201824 509.7406 
L 281.347864 509.569885 
L 281.494115 509.259492 
L 281.820438 508.887021 
L 281.873374 508.824942 
L 282.447059 508.576628 
L 282.691896 508.173118 
L 282.829609 507.785127 
L 283.08535 507.024665 
L 283.248727 506.791871 
L 283.362948 506.590115 
L 283.644834 505.953811 
L 283.868205 505.814134 
L 283.965629 505.674457 
L 284.250531 505.488222 
L 284.503872 505.13127 
L 284.579138 504.929515 
L 284.880784 504.153533 
L 285.340974 503.377552 
L 285.734723 503.175797 
L 285.842144 502.570531 
L 285.988379 502.446374 
L 286.035687 502.151501 
L 286.212302 501.856628 
L 286.270668 501.623834 
L 286.361967 501.468637 
L 286.439471 501.328961 
L 286.551125 500.987529 
L 287.224922 500.382263 
L 287.399509 500.08739 
L 287.721996 499.575242 
L 287.815885 499.420046 
L 288.139815 498.550947 
L 288.298328 498.41127 
L 288.453761 497.976721 
L 288.821197 497.806005 
L 288.920464 497.666328 
L 289.060132 497.433533 
L 289.180676 497.185219 
L 289.269898 497.061062 
L 289.374146 496.75067 
L 289.547359 496.424758 
L 289.82641 495.866051 
L 289.977104 495.664296 
L 290.101962 495.540139 
L 290.647146 495.214226 
L 290.684678 495.121109 
L 290.907707 494.981432 
L 291.736791 493.351871 
L 292.428678 493.165635 
L 293.27974 492.218938 
L 293.329882 492.12582 
L 293.921806 492.001663 
L 294.021098 491.784388 
L 294.210812 491.598152 
L 294.325135 491.505035 
L 294.468955 491.27224 
L 294.61417 491.086005 
L 294.887088 490.760092 
L 294.973105 490.666975 
L 295.470813 490.496259 
L 295.624459 490.247945 
L 295.860366 489.875473 
L 296.070027 489.565081 
L 296.184201 489.471963 
L 296.404096 489.270208 
L 296.597364 489.115012 
L 296.775375 489.052933 
L 297.224104 488.835658 
L 297.273925 488.711501 
L 297.658372 488.525266 
L 298.210895 488.090716 
L 298.827904 487.966559 
L 299.330013 487.345774 
L 299.463035 487.019861 
L 299.566406 486.880185 
L 299.725364 486.724988 
L 300.005147 486.430115 
L 300.483091 486.305958 
L 300.608737 486.197321 
L 300.890507 485.980046 
L 300.9972 485.623095 
L 301.187084 485.452379 
L 301.24297 485.250624 
L 301.35735 485.033349 
L 301.429295 484.893672 
L 301.540722 484.753995 
L 302.091092 484.56776 
L 302.8014 483.496905 
L 302.934495 483.186513 
L 303.036819 483.046836 
L 303.121328 482.705404 
L 303.5383 482.534688 
L 303.722274 482.395012 
L 303.761641 482.239815 
L 303.992239 481.882864 
L 304.134363 481.572471 
L 304.301601 481.277598 
L 304.473779 481.029284 
L 304.627579 480.703372 
L 304.718853 480.548176 
L 305.018708 480.315381 
L 305.376912 480.160185 
L 305.650453 479.244527 
L 305.760873 478.965173 
L 305.873486 478.809977 
L 306.186864 478.065035 
L 306.265508 477.909838 
L 306.398614 477.537367 
L 306.468003 477.490808 
L 306.964544 477.351132 
L 307.074861 477.226975 
L 307.26494 476.99418 
L 307.390816 476.497552 
L 308.170402 475.085266 
L 308.567835 474.774873 
L 308.745353 474.355843 
L 308.921348 474.200647 
L 309.068065 474.07649 
L 309.145539 473.921293 
L 309.300371 473.719538 
L 310.828887 471.701986 
L 310.926476 471.593349 
L 311.023727 471.391594 
L 311.197553 471.096721 
L 311.286932 470.910485 
L 311.374885 470.832887 
L 311.914414 470.662171 
L 312.160374 470.336259 
L 312.319134 470.181062 
L 312.452262 469.917229 
L 312.6646 469.637875 
L 312.908221 469.467159 
L 313.122023 469.234365 
L 313.637542 469.079169 
L 313.838738 468.737737 
L 314.063842 467.868637 
L 314.144521 467.666882 
L 314.253195 467.589284 
L 314.546688 467.077136 
L 314.634284 466.90642 
L 314.820107 466.704665 
L 315.522164 466.176998 
L 315.721103 465.307898 
L 315.827129 464.547436 
L 315.948637 464.314642 
L 316.087022 464.050808 
L 316.16769 463.895612 
L 316.278091 463.538661 
L 316.384681 463.398984 
L 316.887524 463.181709 
L 317.6159 462.250531 
L 317.816958 462.095335 
L 317.899608 461.971178 
L 318.475309 461.769423 
L 318.561535 461.598707 
L 318.740829 461.45903 
L 318.810613 461.195196 
L 318.99965 461.02448 
L 319.0998 460.931363 
L 319.438417 460.589931 
L 319.53713 460.512333 
L 320.356209 459.78291 
L 321.190731 458.820693 
L 321.468281 458.681016 
L 322.004865 457.765358 
L 322.117039 457.532564 
L 322.225859 457.346328 
L 322.335968 457.191132 
L 322.445933 456.942818 
L 322.815807 456.43067 
L 323.352045 456.275473 
L 323.587854 455.99612 
L 323.711153 455.235658 
L 323.867699 454.956305 
L 324.39021 451.898938 
L 324.569355 451.759261 
L 324.649856 451.712702 
L 324.996437 451.573025 
L 325.109561 451.309192 
L 325.258341 451.029838 
L 325.534521 449.757229 
L 325.665332 449.617552 
L 326.03991 449.493395 
L 326.686733 449.338199 
L 326.758301 449.229561 
L 326.886186 449.089885 
L 326.972108 448.826051 
L 327.14352 448.562217 
L 327.449482 447.444804 
L 327.529771 446.32739 
L 327.677703 446.141155 
L 327.898535 445.784203 
L 328.294255 445.644527 
L 328.348236 445.473811 
L 328.461566 445.256536 
L 328.581503 445.116859 
L 328.684712 444.744388 
L 328.802931 444.542633 
L 328.914607 443.952887 
L 329.592553 442.928591 
L 329.880094 442.773395 
L 329.985265 442.602679 
L 330.845221 441.764619 
L 330.966104 441.593903 
L 331.053694 441.562864 
L 331.572336 441.423187 
L 331.729169 441.267991 
L 331.967035 441.128314 
L 332.161218 440.973118 
L 332.305766 440.786882 
L 332.399409 440.429931 
L 333.44952 440.135058 
L 334.089572 439.653949 
L 335.07698 439.467714 
L 335.385345 438.971085 
L 335.555791 438.846928 
L 335.588374 438.660693 
L 335.849373 438.536536 
L 335.870625 438.474457 
L 336.423194 438.319261 
L 336.543821 438.117506 
L 336.637402 438.024388 
L 336.81943 437.900231 
L 336.975443 437.574319 
L 337.74066 436.891455 
L 338.114792 436.767298 
L 338.219386 436.612102 
L 338.40835 436.441386 
L 338.541789 436.23963 
L 338.611768 436.037875 
L 338.778251 435.929238 
L 339.050008 435.727483 
L 339.11937 435.603326 
L 340.033764 435.355012 
L 340.276533 434.967021 
L 340.326851 434.454873 
L 340.483118 434.330716 
L 340.599272 434.191039 
L 341.306204 433.896166 
L 341.353439 433.477136 
L 341.640953 433.30642 
L 341.760398 433.228822 
L 342.896553 432.685635 
L 343.094327 432.561478 
L 343.20249 432.437321 
L 343.293404 432.282125 
L 343.345996 432.189007 
L 343.743023 432.002771 
L 343.879546 431.785497 
L 344.011245 431.64582 
L 344.116622 431.428545 
L 344.318587 431.273349 
L 344.772014 431.133672 
L 344.88385 430.993995 
L 345.168221 430.637044 
L 345.66679 430.186975 
L 345.931711 430.047298 
L 345.993172 430.016259 
L 346.401186 429.861062 
L 346.976779 429.51963 
L 347.253517 429.193718 
L 347.941785 428.743649 
L 348.060905 428.231501 
L 348.276889 428.014226 
L 348.752876 426.881293 
L 348.872591 426.726097 
L 348.92638 426.431224 
L 349.026934 425.74836 
L 349.399872 425.577644 
L 349.502569 425.406928 
L 349.541722 425.236212 
L 349.660882 424.010162 
L 350.083498 423.094503 
L 350.154676 422.939307 
L 350.376612 421.946051 
L 350.561875 421.589099 
L 350.68319 420.688961 
L 351.181458 420.518245 
L 351.224639 420.378568 
L 351.412798 418.469654 
L 351.46751 418.035104 
L 351.603156 417.755751 
L 351.680246 417.616074 
L 351.806314 417.290162 
L 351.971113 417.150485 
L 352.338643 416.545219 
L 352.815483 416.281386 
L 352.925936 415.815797 
L 353.069006 415.6606 
L 353.596506 415.148453 
L 353.706033 415.024296 
L 353.889582 414.884619 
L 354.518415 414.651824 
L 354.573303 414.574226 
L 354.72709 414.450069 
L 354.849058 414.325912 
L 355.107405 414.031039 
L 355.202374 413.937921 
L 355.509369 413.767206 
L 355.549661 413.736166 
L 356.109987 413.59649 
L 356.269132 413.425774 
L 356.862547 412.820508 
L 357.13896 412.696351 
L 357.766193 412.510115 
L 359.018068 411.48582 
L 359.613817 411.330624 
L 359.70799 411.221986 
L 360.011856 411.035751 
L 360.173114 410.802956 
L 360.375009 410.678799 
L 360.4253 410.259769 
L 361.034654 410.073533 
L 361.172113 409.670023 
L 361.285246 409.080277 
L 361.551131 408.785404 
L 361.661608 408.583649 
L 361.811581 408.428453 
L 361.9718 408.180139 
L 362.051153 407.931824 
L 362.869209 407.605912 
L 363.057788 407.466236 
L 363.297059 407.29552 
L 363.430461 406.923048 
L 363.57806 406.736813 
L 363.688286 406.03843 
L 364.361582 405.790115 
L 364.457517 405.681478 
L 364.648879 405.526282 
L 365.229058 404.703741 
L 365.30392 404.517506 
L 365.358764 404.439908 
L 365.983731 404.222633 
L 366.104863 403.958799 
L 366.223 403.803603 
L 366.320974 403.710485 
L 366.537207 403.539769 
L 366.66046 403.462171 
L 366.757205 403.322494 
L 366.870705 401.677413 
L 367.50732 400.792794 
L 367.601233 400.637598 
L 367.746272 400.373764 
L 367.848068 400.234088 
L 367.957438 399.954734 
L 368.120461 399.659861 
L 368.17602 399.489145 
L 368.285847 399.364988 
L 368.413394 399.116674 
L 368.579495 398.914919 
L 368.650175 398.697644 
L 369.331784 398.356212 
L 369.423816 397.487113 
L 369.701479 397.161201 
L 369.847749 396.493857 
L 369.929021 395.981709 
L 370.029721 392.474273 
L 370.166549 392.288037 
L 370.274755 391.900046 
L 370.867613 391.217182 
L 371.210894 390.394642 
L 371.322389 390.270485 
L 371.415758 389.960092 
L 371.528577 389.851455 
L 371.656659 389.618661 
L 371.77334 389.401386 
L 371.80313 389.261709 
L 372.06784 388.671963 
L 372.320668 388.252933 
L 372.548844 387.383834 
L 372.655839 386.638891 
L 372.771573 386.468176 
L 372.866109 386.235381 
L 372.992722 386.018106 
L 373.089277 385.707714 
L 373.108488 385.552517 
L 373.20003 385.44388 
L 373.250676 385.288684 
L 373.349337 384.341986 
L 373.420905 384.217829 
L 373.563142 383.659122 
L 373.968352 383.566005 
L 374.126405 383.410808 
L 374.311068 382.681386 
L 374.375495 382.557229 
L 374.529645 382.0606 
L 374.638446 381.905404 
L 374.748441 381.486374 
L 374.840559 381.346697 
L 374.950804 380.989746 
L 375.02467 380.83455 
L 375.135542 380.446559 
L 375.630724 379.592979 
L 375.783821 379.437783 
L 375.933114 379.111871 
L 376.037495 378.972194 
L 376.121872 378.7394 
L 376.211904 378.599723 
L 376.334283 378.258291 
L 376.52673 378.056536 
L 376.569223 377.978938 
L 376.680856 377.854781 
L 376.794056 377.482309 
L 377.018851 377.420231 
L 377.585546 377.233995 
L 377.636945 377.187436 
L 377.908856 377.04776 
L 378.173832 376.783926 
L 378.388587 376.659769 
L 378.481705 376.597691 
L 379.023608 376.349376 
L 379.131258 376.147621 
L 379.341436 375.992425 
L 379.466389 375.821709 
L 380.057233 375.169885 
L 380.672577 375.030208 
L 381.190235 374.021432 
L 381.377807 373.773118 
L 381.49255 373.602402 
L 381.718768 373.385127 
L 381.752193 373.338568 
L 382.297185 373.198891 
L 382.44116 372.966097 
L 382.653768 372.82642 
L 382.811838 372.547067 
L 382.93472 372.40739 
L 383.092083 372.283233 
L 383.191205 372.159076 
L 383.735338 371.848684 
L 383.939379 371.724527 
L 384.125771 371.367575 
L 384.353928 371.181339 
L 385.217701 370.079446 
L 385.569655 369.924249 
L 385.678735 369.629376 
L 385.989832 369.350023 
L 386.097883 369.225866 
L 386.313507 368.713718 
L 386.424122 368.434365 
L 386.81629 368.139492 
L 387.248685 367.937737 
L 387.604835 367.39455 
L 388.445924 366.634088 
L 388.893104 366.463372 
L 388.950558 366.370254 
L 389.120078 366.246097 
L 389.233598 366.075381 
L 389.467856 365.873626 
L 389.742869 365.408037 
L 390.083841 364.84933 
L 390.667417 364.476859 
L 391.031518 364.02679 
L 391.308366 363.887113 
L 391.49181 363.468083 
L 391.812067 363.002494 
L 391.922525 362.831778 
L 392.000803 362.692102 
L 392.073489 362.474827 
L 392.231377 362.31963 
L 392.354939 362.179954 
L 392.779157 361.264296 
L 392.876459 361.09358 
L 393.08694 360.488314 
L 393.304897 360.364157 
L 393.712786 360.22448 
L 394.163134 359.758891 
L 394.274767 359.650254 
L 394.949181 358.843233 
L 395.333642 358.672517 
L 395.434572 358.501801 
L 395.725464 358.098291 
L 395.837576 357.927575 
L 396.63078 357.058476 
L 396.715018 356.437691 
L 397.074119 356.204896 
L 397.22263 356.018661 
L 397.332022 355.878984 
L 397.450571 355.568591 
L 397.596676 355.382356 
L 397.691542 355.056443 
L 397.869096 354.916767 
L 398.373443 354.575335 
L 398.735329 354.435658 
L 399.166631 354.063187 
L 399.257957 353.92351 
L 399.398875 353.783834 
L 399.521046 353.53552 
L 399.878076 353.256166 
L 400.286569 353.11649 
L 400.345839 352.945774 
L 400.648555 352.806097 
L 400.946003 352.449145 
L 401.124518 352.231871 
L 401.357073 351.983557 
L 401.960984 351.781801 
L 402.054242 351.611085 
L 402.232467 351.44037 
L 402.362666 351.223095 
L 402.584446 350.897182 
L 403.155175 350.043603 
L 403.518495 349.810808 
L 403.640566 349.671132 
L 403.988454 349.298661 
L 404.106998 349.081386 
L 404.347815 348.724434 
L 404.464377 348.600277 
L 404.642561 348.367483 
L 405.205002 348.134688 
L 405.225942 347.948453 
L 405.335306 346.768961 
L 405.370783 346.443048 
L 405.468326 346.287852 
L 405.71895 345.884342 
L 405.853308 345.713626 
L 406.326195 345.154919 
L 406.891305 344.984203 
L 406.99662 344.394457 
L 407.209558 344.115104 
L 407.93412 343.292564 
L 408.344674 343.106328 
L 408.488651 342.920092 
L 408.60062 342.826975 
L 409.43103 341.663002 
L 409.642596 341.507806 
L 410.074055 341.088776 
L 410.474682 340.49903 
L 410.584647 339.986882 
L 410.771245 339.490254 
L 411.367692 339.24194 
L 411.765531 339.117783 
L 412.064822 338.745312 
L 412.355706 338.543557 
L 412.422962 338.465958 
L 412.560982 338.326282 
L 412.64361 338.155566 
L 413.644666 337.658938 
L 413.73721 337.581339 
L 413.896381 337.441663 
L 414.4378 337.115751 
L 415.137309 336.71224 
L 415.171841 336.634642 
L 415.413281 336.510485 
L 415.425248 336.231132 
L 415.529169 335.8897 
L 416.774813 333.949746 
L 416.902733 333.670393 
L 417.009274 333.422079 
L 417.085543 333.391039 
L 417.252543 333.204804 
L 417.36155 333.018568 
L 417.467417 332.863372 
L 417.717865 332.52194 
L 417.775861 332.304665 
L 418.479859 332.08739 
L 418.751418 331.621801 
L 418.815758 331.497644 
L 418.928549 330.938938 
L 419.142733 330.550947 
L 420.207586 329.868083 
L 420.27822 329.216259 
L 420.390264 328.812748 
L 420.4643 328.673072 
L 421.550418 326.779677 
L 421.621667 326.62448 
L 421.780399 326.283048 
L 422.244057 325.724342 
L 422.327662 325.258753 
L 422.655482 324.9794 
L 422.817663 324.684527 
L 423.004994 324.54485 
L 423.12471 324.281016 
L 424.30267 321.922032 
L 424.778731 321.689238 
L 424.881422 321.549561 
L 424.896516 321.332286 
L 425.009543 320.168314 
L 425.264631 319.625127 
L 425.396914 319.454411 
L 425.510699 319.299215 
L 426.183408 318.414596 
L 426.28369 317.638614 
L 426.535982 317.3903 
L 426.745575 317.126467 
L 427.437121 316.164249 
L 427.540925 315.978014 
L 427.72408 315.900416 
L 428.114209 315.776259 
L 428.257751 315.481386 
L 428.491625 315.202032 
L 429.290091 314.115658 
L 429.592057 313.975982 
L 429.675232 313.851824 
L 429.785565 312.749931 
L 430.9729 304.524527 
L 431.15554 304.245173 
L 431.517789 302.926005 
L 431.626779 302.305219 
L 431.743333 301.917229 
L 431.983449 301.048129 
L 432.082522 300.691178 
L 432.191461 300.023834 
L 432.221267 299.77552 
L 432.33016 299.154734 
L 432.379702 298.875381 
L 432.488684 297.804527 
L 432.647198 296.625035 
L 432.756175 295.430023 
L 432.87506 294.560924 
L 432.984042 293.319353 
L 433.013761 293.071039 
L 433.123911 291.736351 
L 433.16237 291.425958 
L 433.271361 290.137829 
L 433.30108 289.889515 
L 433.410055 288.663464 
L 433.439777 288.41515 
L 433.549893 287.095982 
L 433.628012 286.73903 
L 433.736994 286.087206 
L 433.994502 285.280185 
L 434.279542 284.923233 
L 434.363277 284.845635 
L 434.608412 284.690439 
L 435.006768 284.411085 
L 435.159643 284.286928 
L 435.476074 284.023095 
L 435.599355 283.774781 
L 435.67861 283.448868 
L 435.787601 282.812564 
L 435.856938 282.502171 
L 435.965921 282.083141 
L 436.015457 281.803788 
L 436.12444 281.446836 
L 436.193788 281.136443 
L 436.302771 280.639815 
L 436.362209 280.344942 
L 436.501365 279.274088 
L 436.612062 277.846282 
L 436.649428 277.535889 
L 436.758405 277.411732 
L 437.263648 276.899584 
L 437.501428 276.635751 
L 437.898796 276.433995 
L 438.021822 276.154642 
L 438.253785 275.844249 
L 438.370433 275.502818 
L 438.541705 275.332102 
L 438.639248 275.099307 
L 439.747714 274.12157 
L 439.853762 274.012933 
L 440.08631 273.826697 
L 440.167322 273.671501 
L 440.235853 273.547344 
L 440.340834 273.267991 
L 440.622222 272.957598 
L 440.731208 272.833441 
L 441.123931 272.647206 
L 441.226514 272.507529 
L 441.33554 272.150577 
L 442.03577 271.560831 
L 442.152844 271.452194 
L 442.525392 271.234919 
L 442.682937 270.924527 
L 442.781013 270.676212 
L 443.500056 270.086467 
L 445.709357 266.827344 
L 446.214628 266.501432 
L 447.443004 265.073626 
L 447.670869 264.91843 
L 447.744643 264.871871 
L 448.126606 264.623557 
L 449.769631 263.242309 
L 449.890289 263.071594 
L 450.083995 262.900878 
L 450.322102 262.419769 
L 451.07905 261.674827 
L 451.43121 261.038522 
L 451.752522 260.805727 
L 451.851597 260.510855 
L 452.149792 260.27806 
L 452.220296 260.231501 
L 452.577629 260.091824 
L 452.788159 259.827991 
L 453.136978 259.610716 
L 453.378277 259.315843 
L 453.52635 259.098568 
L 453.644942 258.896813 
L 453.71821 258.710577 
L 453.951751 258.570901 
L 455.313139 257.515566 
L 455.403068 257.189654 
L 455.965941 256.708545 
L 456.090987 256.227436 
L 456.386816 255.575612 
L 456.479398 255.435935 
L 456.587197 255.187621 
L 456.788604 254.985866 
L 456.934531 254.768591 
L 457.696589 254.271963 
L 457.804259 254.194365 
L 458.036796 254.023649 
L 458.102787 253.899492 
L 458.271213 253.775335 
L 458.375153 253.620139 
L 458.598159 253.371824 
L 458.697153 253.216628 
L 459.567292 252.968314 
L 459.913167 252.409607 
L 460.024656 252.192333 
L 460.529921 251.540508 
L 460.965724 251.323233 
L 461.15727 251.105958 
L 461.292502 250.811085 
L 461.367621 250.655889 
L 461.609526 250.516212 
L 461.923048 250.20582 
L 462.223779 250.035104 
L 462.512219 249.724711 
L 462.636774 249.600554 
L 462.749817 249.476397 
L 462.791609 249.383279 
L 463.096044 249.243603 
L 463.684127 248.483141 
L 464.166102 248.157229 
L 464.570426 247.707159 
L 464.894546 247.427806 
L 465.154219 247.132933 
L 465.192427 247.024296 
L 465.641692 246.85358 
L 466.025417 246.450069 
L 466.424333 246.279353 
L 466.870147 245.705127 
L 467.312622 245.503372 
L 471.447009 241.561386 
L 471.578223 241.39067 
L 471.660337 241.250993 
L 471.882815 240.878522 
L 472.219662 240.676767 
L 472.320131 240.040462 
L 472.407897 239.869746 
L 472.499872 239.792148 
L 472.67571 239.652471 
L 472.931317 239.388637 
L 473.121263 239.155843 
L 473.656253 238.519538 
L 473.978367 238.379861 
L 474.105602 238.240185 
L 476.005853 236.7503 
L 476.331099 236.533025 
L 476.440081 236.191594 
L 476.568876 236.082956 
L 476.70758 235.91224 
L 476.876261 235.772564 
L 477.252342 235.586328 
L 477.529464 235.369053 
L 477.750886 235.105219 
L 477.990203 234.887945 
L 478.203575 234.593072 
L 479.40832 233.522217 
L 479.495837 233.460139 
L 479.715694 233.258383 
L 479.82416 233.180785 
L 479.897544 233.010069 
L 479.928056 232.947991 
L 480.204583 232.808314 
L 480.30355 232.746236 
L 480.566382 232.591039 
L 481.850166 231.364988 
L 482.21667 231.147714 
L 482.32683 231.054596 
L 482.512924 230.837321 
L 482.617833 230.713164 
L 482.767682 230.542448 
L 483.136771 230.201016 
L 483.305801 230.107898 
L 483.762983 229.952702 
L 483.884742 229.813025 
L 484.204119 229.642309 
L 484.350462 229.471594 
L 484.834126 229.145681 
L 486.030892 228.462818 
L 486.136177 228.338661 
L 486.362817 228.167945 
L 486.444071 228.074827 
L 487.077481 227.795473 
L 487.480111 227.360924 
L 487.809129 226.972933 
L 487.938598 226.802217 
L 488.492728 226.445266 
L 488.552172 226.383187 
L 488.768716 226.24351 
L 489.518214 225.141617 
L 489.654504 224.955381 
L 489.750959 224.536351 
L 490.167056 224.365635 
L 490.315665 224.210439 
L 490.420271 223.993164 
L 490.642762 223.806928 
L 490.715442 223.72933 
L 490.989362 223.527575 
L 491.08844 223.341339 
L 491.207251 223.108545 
L 491.316294 222.984388 
L 491.553979 222.736074 
L 491.643144 222.611917 
L 491.831463 222.379122 
L 492.083814 222.239446 
L 492.479011 221.944573 
L 492.996745 221.494503 
L 493.109433 221.370346 
L 493.228318 221.184111 
L 493.327691 221.028915 
L 494.694574 219.802864 
L 494.783647 219.709746 
L 495.204804 219.53903 
L 496.126409 218.840647 
L 496.220066 218.794088 
L 496.453116 218.499215 
L 496.527185 218.421617 
L 496.877223 218.28194 
L 497.531577 217.86291 
L 498.10449 217.195566 
L 498.466647 217.02485 
L 498.699816 216.823095 
L 499.247507 216.450624 
L 499.499306 216.18679 
L 499.932578 215.922956 
L 500.299212 215.612564 
L 500.392381 215.472887 
L 500.885901 215.255612 
L 501.163304 214.976259 
L 501.559592 214.790023 
L 502.530068 213.889885 
L 502.636087 213.781247 
L 502.837421 213.563972 
L 503.018646 213.470855 
L 503.385101 213.284619 
L 503.961733 213.036305 
L 504.046855 212.958707 
L 504.362918 212.80351 
L 504.4818 212.648314 
L 504.56105 212.4 
L 504.897905 212.198245 
L 505.857115 211.57746 
L 505.966268 211.344665 
L 506.096692 211.189469 
L 506.31465 211.018753 
L 506.562326 210.879076 
L 506.740667 210.599723 
L 507.152904 210.118614 
L 507.513237 209.854781 
L 507.820061 209.575427 
L 508.216566 209.311594 
L 508.312477 209.218476 
L 508.597116 209.001201 
L 508.725824 208.846005 
L 509.094972 208.535612 
L 510.614216 207.495797 
L 510.742672 207.3406 
L 510.839385 207.216443 
L 511.017234 206.983649 
L 511.177052 206.859492 
L 511.880579 206.207667 
L 512.20973 205.881755 
L 512.443263 205.726559 
L 512.67319 205.447206 
L 512.7842 205.338568 
L 513.159802 205.152333 
L 513.557562 204.717783 
L 514.046375 204.345312 
L 514.210224 204.205635 
L 514.699537 203.926282 
L 514.792081 203.786605 
L 515.135324 203.60037 
L 515.592209 203.227898 
L 515.698406 203.119261 
L 515.839885 202.979584 
L 516.137095 202.762309 
L 516.523497 202.622633 
L 516.810248 202.358799 
L 516.95147 202.157044 
L 517.24754 201.90873 
L 517.467511 201.644896 
L 517.761781 201.318984 
L 518.489107 200.822356 
L 518.706482 200.558522 
L 518.95725 200.325727 
L 519.417053 199.984296 
L 519.904052 199.751501 
L 520.228831 199.316952 
L 520.337568 199.130716 
L 520.534717 198.897921 
L 520.779903 198.261617 
L 521.050617 198.044342 
L 521.179409 197.997783 
L 521.469933 197.827067 
L 521.580139 197.749469 
L 521.719642 197.594273 
L 522.386393 197.035566 
L 523.561148 196.213025 
L 523.623886 196.135427 
L 523.864013 195.949192 
L 523.954618 195.700878 
L 524.115279 195.530162 
L 524.190747 195.483603 
L 524.69428 195.266328 
L 524.787265 195.142171 
L 525.493872 194.630023 
L 525.761284 194.288591 
L 525.853668 194.242032 
L 526.463428 193.993718 
L 527.139658 193.310855 
L 527.213849 193.124619 
L 527.688009 192.860785 
L 527.793411 192.690069 
L 528.153718 192.441755 
L 528.898231 191.758891 
L 528.991454 191.588176 
L 529.870604 190.99843 
L 529.981712 190.905312 
L 530.095042 190.765635 
L 530.335236 190.501801 
L 530.410158 190.362125 
L 530.637808 189.943095 
L 531.639235 189.30679 
L 531.743007 189.244711 
L 532.038298 188.949838 
L 532.183843 188.779122 
L 532.865714 188.391132 
L 532.985582 188.251455 
L 533.676732 187.646189 
L 533.722633 187.320277 
L 533.916813 187.1806 
L 534.025793 187.071963 
L 534.263562 186.947806 
L 534.719313 186.482217 
L 534.798782 186.389099 
L 535.063682 186.171824 
L 535.147672 185.92351 
L 535.244406 185.52 
L 535.808522 185.054411 
L 535.856691 184.992333 
L 536.151554 184.868176 
L 536.62137 184.464665 
L 536.828413 184.27843 
L 536.928311 184.107714 
L 537.068758 183.921478 
L 537.195642 183.735242 
L 537.771636 183.393811 
L 537.870427 183.207575 
L 538.176805 182.974781 
L 538.522872 182.726467 
L 538.628479 182.602309 
L 539.017677 182.416074 
L 539.493627 182.121201 
L 539.633758 182.028083 
L 541.868082 179.839815 
L 542.149267 179.63806 
L 542.355958 179.513903 
L 543.003945 179.187991 
L 543.539145 178.505127 
L 545.161106 177.682587 
L 545.42053 177.54291 
L 545.511181 177.449792 
L 546.153069 177.201478 
L 546.279127 177.077321 
L 546.576329 176.906605 
L 547.009831 176.239261 
L 547.161951 175.882309 
L 547.597781 175.696074 
L 548.132971 175.214965 
L 549.765378 174.237229 
L 550.559919 173.275012 
L 551.005683 173.088776 
L 551.111832 172.949099 
L 551.335295 172.700785 
L 551.634825 172.51455 
L 551.758573 172.390393 
L 551.995549 172.219677 
L 553.089387 171.397136 
L 553.184963 171.335058 
L 553.476239 170.947067 
L 553.580531 170.80739 
L 553.769445 170.683233 
L 554.08647 170.528037 
L 554.340559 170.310762 
L 554.579483 170.124527 
L 554.752419 169.96933 
L 554.90632 169.798614 
L 554.950316 169.596859 
L 555.037381 169.457182 
L 555.294964 169.286467 
L 555.582272 168.991594 
L 555.849221 168.805358 
L 555.955638 168.634642 
L 556.37425 168.30873 
L 557.305871 167.47067 
L 557.764726 167.299954 
L 557.990485 167.0206 
L 558.208112 166.834365 
L 558.383543 166.725727 
L 558.962266 166.260139 
L 559.237404 166.027344 
L 559.556575 165.76351 
L 560.393722 165.220323 
L 560.7641 165.034088 
L 561.001333 164.708176 
L 561.448852 164.289145 
L 561.670607 163.978753 
L 561.775837 163.776998 
L 562.162205 163.575242 
L 562.684125 163.389007 
L 562.806702 163.24933 
L 563.568611 162.193995 
L 564.713824 161.480092 
L 564.803744 161.278337 
L 565.173432 161.092102 
L 565.391386 161.014503 
L 565.873412 160.843788 
L 566.337925 160.533395 
L 566.580144 160.31612 
L 567.82398 159.555658 
L 567.884942 159.47806 
L 568.04126 159.338383 
L 568.150841 159.105589 
L 568.293971 158.981432 
L 569.661098 158.050254 
L 570.007937 157.755381 
L 570.116838 157.522587 
L 570.394886 157.165635 
L 570.473489 157.119076 
L 570.608404 156.96388 
L 571.091307 156.498291 
L 571.265223 156.358614 
L 571.382175 156.172379 
L 571.503869 156.001663 
L 573.197635 154.511778 
L 573.281387 154.465219 
L 573.534268 154.263464 
L 573.633352 154.201386 
L 573.75706 154.01515 
L 573.871118 153.922032 
L 574.006634 153.782356 
L 574.587551 153.223649 
L 574.756676 153.006374 
L 575.168881 152.804619 
L 575.462612 152.664942 
L 575.809634 152.385589 
L 575.915204 152.307991 
L 576.516023 151.640647 
L 577.187481 151.361293 
L 577.297595 151.206097 
L 577.542913 151.004342 
L 577.673007 150.787067 
L 578.83464 149.157506 
L 579.040121 149.002309 
L 579.147782 148.878152 
L 579.326403 148.676397 
L 579.470705 148.412564 
L 579.765016 147.993533 
L 580.273161 147.621062 
L 580.511371 147.465866 
L 581.615774 146.798522 
L 581.805628 146.705404 
L 582.528077 146.208776 
L 582.877743 145.681109 
L 583.390712 145.510393 
L 583.471554 145.479353 
L 583.707561 145.324157 
L 583.800034 145.231039 
L 584.061589 145.029284 
L 584.188605 144.905127 
L 584.383079 144.749931 
L 584.460548 144.656813 
L 584.579414 144.501617 
L 584.995424 144.299861 
L 585.183254 144.113626 
L 585.294109 143.973949 
L 586.649586 142.809977 
L 586.932582 142.654781 
L 587.035977 142.530624 
L 587.254814 142.344388 
L 587.744304 141.956397 
L 587.996836 141.537367 
L 588.250998 141.397691 
L 590.850199 139.768129 
L 591.058271 139.612933 
L 591.142277 139.33358 
L 591.325794 138.976628 
L 591.494207 138.821432 
L 591.743856 138.573118 
L 591.971932 138.402402 
L 592.078673 138.200647 
L 592.620944 137.688499 
L 592.686451 137.548822 
L 592.808676 137.424665 
L 592.940478 137.269469 
L 593.531249 136.943557 
L 593.561255 136.881478 
L 593.808628 136.741801 
L 593.965436 136.477968 
L 594.129288 136.245173 
L 594.386871 135.903741 
L 594.528399 135.841663 
L 594.951236 135.608868 
L 595.268271 135.267436 
L 595.468442 135.11224 
L 595.550826 135.019122 
L 595.730895 134.848406 
L 595.991394 134.646651 
L 596.120204 134.522494 
L 597.282914 133.87067 
L 597.422314 133.762032 
L 598.91895 132.815335 
L 599.023125 132.753256 
L 599.200736 132.427344 
L 599.591656 132.008314 
L 600.06262 131.682402 
L 601.806101 130.363233 
L 602.044617 130.176998 
L 602.201931 130.021801 
L 602.382438 129.820046 
L 602.473144 129.64933 
L 602.677624 129.478614 
L 602.855954 129.338938 
L 603.130892 129.121663 
L 603.242332 128.842309 
L 603.35547 128.687113 
L 603.442253 128.609515 
L 603.616259 128.454319 
L 604.147662 128.066328 
L 604.322013 127.895612 
L 604.470622 127.631778 
L 604.566081 127.523141 
L 605.419825 126.824758 
L 605.724002 126.452286 
L 605.958593 126.250531 
L 606.333058 126.048776 
L 606.471784 125.89358 
L 606.699657 125.707344 
L 607.016673 125.381432 
L 607.188708 125.226236 
L 607.327031 125.04 
L 607.700185 124.776166 
L 608.126114 124.496813 
L 608.236691 124.419215 
L 608.987995 123.3794 
L 609.075641 123.239723 
L 609.199886 123.084527 
L 609.463384 122.867252 
L 609.701163 122.727575 
L 610.067646 122.355104 
L 610.766644 121.656721 
L 610.867016 121.532564 
L 612.2695 120.446189 
L 612.392064 120.104758 
L 613.445366 119.266697 
L 613.495002 119.189099 
L 613.708826 119.033903 
L 613.938052 118.75455 
L 614.188635 118.568314 
L 614.606005 118.366559 
L 614.718379 117.683695 
L 615.070785 117.49746 
L 615.406948 117.342263 
L 615.541781 117.140508 
L 615.601176 117.07843 
L 616.773988 116.690439 
L 616.843233 116.612841 
L 617.071052 116.426605 
L 617.214401 116.24037 
L 617.422007 116.100693 
L 617.526618 115.992055 
L 618.411312 115.38679 
L 618.507362 115.231594 
L 618.809398 115.029838 
L 618.92567 114.874642 
L 619.765544 114.284896 
L 619.828606 114.238337 
L 620.15677 114.067621 
L 620.22127 114.021062 
L 620.47099 113.865866 
L 620.564952 113.67963 
L 620.724795 113.446836 
L 620.825621 113.322679 
L 620.917705 113.151963 
L 621.043576 112.996767 
L 621.371403 112.84157 
L 621.499619 112.655335 
L 621.717389 112.45358 
L 621.954944 112.313903 
L 622.048949 112.205266 
L 622.096293 112.065589 
L 622.209412 111.910393 
L 622.636364 111.6 
L 622.636364 111.6 
" style="fill:none;stroke:#92c6ff;stroke-linecap:round;stroke-width:1.5;"/>
   </g>
   <g id="line2d_28">
    <defs>
     <path d="M 0 2.5 
C 0.663008 2.5 1.29895 2.236584 1.767767 1.767767 
C 2.236584 1.29895 2.5 0.663008 2.5 0 
C 2.5 -0.663008 2.236584 -1.29895 1.767767 -1.767767 
C 1.29895 -2.236584 0.663008 -2.5 0 -2.5 
C -0.663008 -2.5 -1.29895 -2.236584 -1.767767 -1.767767 
C -2.236584 -1.29895 -2.5 -0.663008 -2.5 0 
C -2.5 0.663008 -2.236584 1.29895 -1.767767 1.767767 
C -1.29895 2.236584 -0.663008 2.5 0 2.5 
z
" id="mf14a4b4e14" style="stroke:#696969;"/>
    </defs>
    <g clip-path="url(#p55a72d21b5)">
     <use style="fill:#696969;stroke:#696969;" x="115.363636" xlink:href="#mf14a4b4e14" y="615.6"/>
    </g>
   </g>
   <g id="line2d_29">
    <g clip-path="url(#p55a72d21b5)">
     <use style="fill:#696969;stroke:#696969;" x="218.90404" xlink:href="#mf14a4b4e14" y="565.19224"/>
    </g>
   </g>
   <g id="line2d_30">
    <g clip-path="url(#p55a72d21b5)">
     <use style="fill:#696969;stroke:#696969;" x="276.463471" xlink:href="#mf14a4b4e14" y="514.78448"/>
    </g>
   </g>
   <g id="line2d_31">
    <g clip-path="url(#p55a72d21b5)">
     <use style="fill:#696969;stroke:#696969;" x="315.918571" xlink:href="#mf14a4b4e14" y="464.376721"/>
    </g>
   </g>
   <g id="line2d_32">
    <g clip-path="url(#p55a72d21b5)">
     <use style="fill:#696969;stroke:#696969;" x="355.171975" xlink:href="#mf14a4b4e14" y="413.968961"/>
    </g>
   </g>
   <g id="line2d_33">
    <g clip-path="url(#p55a72d21b5)">
     <use style="fill:#696969;stroke:#696969;" x="391.45796" xlink:href="#mf14a4b4e14" y="363.561201"/>
    </g>
   </g>
   <g id="line2d_34">
    <g clip-path="url(#p55a72d21b5)">
     <use style="fill:#696969;stroke:#696969;" x="429.744583" xlink:href="#mf14a4b4e14" y="313.153441"/>
    </g>
   </g>
   <g id="line2d_35">
    <g clip-path="url(#p55a72d21b5)">
     <use style="fill:#696969;stroke:#696969;" x="450.137613" xlink:href="#mf14a4b4e14" y="262.761201"/>
    </g>
   </g>
   <g id="line2d_36">
    <g clip-path="url(#p55a72d21b5)">
     <use style="fill:#696969;stroke:#696969;" x="504.785996" xlink:href="#mf14a4b4e14" y="212.368961"/>
    </g>
   </g>
   <g id="line2d_37">
    <g clip-path="url(#p55a72d21b5)">
     <use style="fill:#696969;stroke:#696969;" x="564.024351" xlink:href="#mf14a4b4e14" y="161.976721"/>
    </g>
   </g>
   <g id="line2d_38">
    <g clip-path="url(#p55a72d21b5)">
     <use style="fill:#696969;stroke:#696969;" x="622.636364" xlink:href="#mf14a4b4e14" y="111.6"/>
    </g>
   </g>
   <g id="patch_3">
    <path d="M 90 640.8 
L 90 86.4 
" style="fill:none;stroke:#cccccc;stroke-linecap:square;stroke-linejoin:miter;"/>
   </g>
   <g id="patch_4">
    <path d="M 648 640.8 
L 648 86.4 
" style="fill:none;stroke:#cccccc;stroke-linecap:square;stroke-linejoin:miter;"/>
   </g>
   <g id="patch_5">
    <path d="M 90 640.8 
L 648 640.8 
" style="fill:none;stroke:#cccccc;stroke-linecap:square;stroke-linejoin:miter;"/>
   </g>
   <g id="patch_6">
    <path d="M 90 86.4 
L 648 86.4 
" style="fill:none;stroke:#cccccc;stroke-linecap:square;stroke-linejoin:miter;"/>
   </g>
   <g id="text_14">
    <!-- 1 (2014-06-09) -->
    <defs>
     <path id="DejaVuSans-32"/>
     <path d="M 31 75.875 
Q 24.46875 64.65625 21.28125 53.65625 
Q 18.109375 42.671875 18.109375 31.390625 
Q 18.109375 20.125 21.3125 9.0625 
Q 24.515625 -2 31 -13.1875 
L 23.1875 -13.1875 
Q 15.875 -1.703125 12.234375 9.375 
Q 8.59375 20.453125 8.59375 31.390625 
Q 8.59375 42.28125 12.203125 53.3125 
Q 15.828125 64.359375 23.1875 75.875 
z
" id="DejaVuSans-40"/>
     <path d="M 37.796875 64.3125 
L 12.890625 25.390625 
L 37.796875 25.390625 
z
M 35.203125 72.90625 
L 47.609375 72.90625 
L 47.609375 25.390625 
L 58.015625 25.390625 
L 58.015625 17.1875 
L 47.609375 17.1875 
L 47.609375 0 
L 37.796875 0 
L 37.796875 17.1875 
L 4.890625 17.1875 
L 4.890625 26.703125 
z
" id="DejaVuSans-52"/>
     <path d="M 4.890625 31.390625 
L 31.203125 31.390625 
L 31.203125 23.390625 
L 4.890625 23.390625 
z
" id="DejaVuSans-45"/>
     <path d="M 8.015625 75.875 
L 15.828125 75.875 
Q 23.140625 64.359375 26.78125 53.3125 
Q 30.421875 42.28125 30.421875 31.390625 
Q 30.421875 20.453125 26.78125 9.375 
Q 23.140625 -1.703125 15.828125 -13.1875 
L 8.015625 -13.1875 
Q 14.5 -2 17.703125 9.0625 
Q 20.90625 20.125 20.90625 31.390625 
Q 20.90625 42.671875 17.703125 53.65625 
Q 14.5 64.65625 8.015625 75.875 
z
" id="DejaVuSans-41"/>
    </defs>
    <g style="fill:#262626;" transform="translate(120.363636 623.198437)scale(0.1 -0.1)">
     <use xlink:href="#DejaVuSans-49"/>
     <use x="63.623047" xlink:href="#DejaVuSans-32"/>
     <use x="95.410156" xlink:href="#DejaVuSans-40"/>
     <use x="134.423828" xlink:href="#DejaVuSans-50"/>
     <use x="198.046875" xlink:href="#DejaVuSans-48"/>
     <use x="261.669922" xlink:href="#DejaVuSans-49"/>
     <use x="325.292969" xlink:href="#DejaVuSans-52"/>
     <use x="388.916016" xlink:href="#DejaVuSans-45"/>
     <use x="425" xlink:href="#DejaVuSans-48"/>
     <use x="488.623047" xlink:href="#DejaVuSans-54"/>
     <use x="552.246094" xlink:href="#DejaVuSans-45"/>
     <use x="588.330078" xlink:href="#DejaVuSans-48"/>
     <use x="651.953125" xlink:href="#DejaVuSans-57"/>
     <use x="715.576172" xlink:href="#DejaVuSans-41"/>
    </g>
   </g>
   <g id="text_15">
    <!-- 3249 (2015-08-25) -->
    <g style="fill:#262626;" transform="translate(223.90404 572.790678)scale(0.1 -0.1)">
     <use xlink:href="#DejaVuSans-51"/>
     <use x="63.623047" xlink:href="#DejaVuSans-50"/>
     <use x="127.246094" xlink:href="#DejaVuSans-52"/>
     <use x="190.869141" xlink:href="#DejaVuSans-57"/>
     <use x="254.492188" xlink:href="#DejaVuSans-32"/>
     <use x="286.279297" xlink:href="#DejaVuSans-40"/>
     <use x="325.292969" xlink:href="#DejaVuSans-50"/>
     <use x="388.916016" xlink:href="#DejaVuSans-48"/>
     <use x="452.539062" xlink:href="#DejaVuSans-49"/>
     <use x="516.162109" xlink:href="#DejaVuSans-53"/>
     <use x="579.785156" xlink:href="#DejaVuSans-45"/>
     <use x="615.869141" xlink:href="#DejaVuSans-48"/>
     <use x="679.492188" xlink:href="#DejaVuSans-56"/>
     <use x="743.115234" xlink:href="#DejaVuSans-45"/>
     <use x="779.199219" xlink:href="#DejaVuSans-50"/>
     <use x="842.822266" xlink:href="#DejaVuSans-53"/>
     <use x="906.445312" xlink:href="#DejaVuSans-41"/>
    </g>
   </g>
   <g id="text_16">
    <!-- 6497 (2016-04-28) -->
    <g style="fill:#262626;" transform="translate(281.463471 522.382918)scale(0.1 -0.1)">
     <use xlink:href="#DejaVuSans-54"/>
     <use x="63.623047" xlink:href="#DejaVuSans-52"/>
     <use x="127.246094" xlink:href="#DejaVuSans-57"/>
     <use x="190.869141" xlink:href="#DejaVuSans-55"/>
     <use x="254.492188" xlink:href="#DejaVuSans-32"/>
     <use x="286.279297" xlink:href="#DejaVuSans-40"/>
     <use x="325.292969" xlink:href="#DejaVuSans-50"/>
     <use x="388.916016" xlink:href="#DejaVuSans-48"/>
     <use x="452.539062" xlink:href="#DejaVuSans-49"/>
     <use x="516.162109" xlink:href="#DejaVuSans-54"/>
     <use x="579.785156" xlink:href="#DejaVuSans-45"/>
     <use x="615.869141" xlink:href="#DejaVuSans-48"/>
     <use x="679.492188" xlink:href="#DejaVuSans-52"/>
     <use x="743.115234" xlink:href="#DejaVuSans-45"/>
     <use x="779.199219" xlink:href="#DejaVuSans-50"/>
     <use x="842.822266" xlink:href="#DejaVuSans-56"/>
     <use x="906.445312" xlink:href="#DejaVuSans-41"/>
    </g>
   </g>
   <g id="text_17">
    <!-- 9745 (2016-10-13) -->
    <g style="fill:#262626;" transform="translate(320.918571 471.975158)scale(0.1 -0.1)">
     <use xlink:href="#DejaVuSans-57"/>
     <use x="63.623047" xlink:href="#DejaVuSans-55"/>
     <use x="127.246094" xlink:href="#DejaVuSans-52"/>
     <use x="190.869141" xlink:href="#DejaVuSans-53"/>
     <use x="254.492188" xlink:href="#DejaVuSans-32"/>
     <use x="286.279297" xlink:href="#DejaVuSans-40"/>
     <use x="325.292969" xlink:href="#DejaVuSans-50"/>
     <use x="388.916016" xlink:href="#DejaVuSans-48"/>
     <use x="452.539062" xlink:href="#DejaVuSans-49"/>
     <use x="516.162109" xlink:href="#DejaVuSans-54"/>
     <use x="579.785156" xlink:href="#DejaVuSans-45"/>
     <use x="615.869141" xlink:href="#DejaVuSans-49"/>
     <use x="679.492188" xlink:href="#DejaVuSans-48"/>
     <use x="743.115234" xlink:href="#DejaVuSans-45"/>
     <use x="779.199219" xlink:href="#DejaVuSans-49"/>
     <use x="842.822266" xlink:href="#DejaVuSans-51"/>
     <use x="906.445312" xlink:href="#DejaVuSans-41"/>
    </g>
   </g>
   <g id="text_18">
    <!-- 12993 (2017-03-30) -->
    <g style="fill:#262626;" transform="translate(360.171975 421.567398)scale(0.1 -0.1)">
     <use xlink:href="#DejaVuSans-49"/>
     <use x="63.623047" xlink:href="#DejaVuSans-50"/>
     <use x="127.246094" xlink:href="#DejaVuSans-57"/>
     <use x="190.869141" xlink:href="#DejaVuSans-57"/>
     <use x="254.492188" xlink:href="#DejaVuSans-51"/>
     <use x="318.115234" xlink:href="#DejaVuSans-32"/>
     <use x="349.902344" xlink:href="#DejaVuSans-40"/>
     <use x="388.916016" xlink:href="#DejaVuSans-50"/>
     <use x="452.539062" xlink:href="#DejaVuSans-48"/>
     <use x="516.162109" xlink:href="#DejaVuSans-49"/>
     <use x="579.785156" xlink:href="#DejaVuSans-55"/>
     <use x="643.408203" xlink:href="#DejaVuSans-45"/>
     <use x="679.492188" xlink:href="#DejaVuSans-48"/>
     <use x="743.115234" xlink:href="#DejaVuSans-51"/>
     <use x="806.738281" xlink:href="#DejaVuSans-45"/>
     <use x="842.822266" xlink:href="#DejaVuSans-51"/>
     <use x="906.445312" xlink:href="#DejaVuSans-48"/>
     <use x="970.068359" xlink:href="#DejaVuSans-41"/>
    </g>
   </g>
   <g id="text_19">
    <!-- 16241 (2017-09-01) -->
    <g style="fill:#262626;" transform="translate(396.45796 371.159638)scale(0.1 -0.1)">
     <use xlink:href="#DejaVuSans-49"/>
     <use x="63.623047" xlink:href="#DejaVuSans-54"/>
     <use x="127.246094" xlink:href="#DejaVuSans-50"/>
     <use x="190.869141" xlink:href="#DejaVuSans-52"/>
     <use x="254.492188" xlink:href="#DejaVuSans-49"/>
     <use x="318.115234" xlink:href="#DejaVuSans-32"/>
     <use x="349.902344" xlink:href="#DejaVuSans-40"/>
     <use x="388.916016" xlink:href="#DejaVuSans-50"/>
     <use x="452.539062" xlink:href="#DejaVuSans-48"/>
     <use x="516.162109" xlink:href="#DejaVuSans-49"/>
     <use x="579.785156" xlink:href="#DejaVuSans-55"/>
     <use x="643.408203" xlink:href="#DejaVuSans-45"/>
     <use x="679.492188" xlink:href="#DejaVuSans-48"/>
     <use x="743.115234" xlink:href="#DejaVuSans-57"/>
     <use x="806.738281" xlink:href="#DejaVuSans-45"/>
     <use x="842.822266" xlink:href="#DejaVuSans-48"/>
     <use x="906.445312" xlink:href="#DejaVuSans-49"/>
     <use x="970.068359" xlink:href="#DejaVuSans-41"/>
    </g>
   </g>
   <g id="text_20">
    <!-- 19489 (2018-02-12) -->
    <g style="fill:#262626;" transform="translate(434.744583 320.751879)scale(0.1 -0.1)">
     <use xlink:href="#DejaVuSans-49"/>
     <use x="63.623047" xlink:href="#DejaVuSans-57"/>
     <use x="127.246094" xlink:href="#DejaVuSans-52"/>
     <use x="190.869141" xlink:href="#DejaVuSans-56"/>
     <use x="254.492188" xlink:href="#DejaVuSans-57"/>
     <use x="318.115234" xlink:href="#DejaVuSans-32"/>
     <use x="349.902344" xlink:href="#DejaVuSans-40"/>
     <use x="388.916016" xlink:href="#DejaVuSans-50"/>
     <use x="452.539062" xlink:href="#DejaVuSans-48"/>
     <use x="516.162109" xlink:href="#DejaVuSans-49"/>
     <use x="579.785156" xlink:href="#DejaVuSans-56"/>
     <use x="643.408203" xlink:href="#DejaVuSans-45"/>
     <use x="679.492188" xlink:href="#DejaVuSans-48"/>
     <use x="743.115234" xlink:href="#DejaVuSans-50"/>
     <use x="806.738281" xlink:href="#DejaVuSans-45"/>
     <use x="842.822266" xlink:href="#DejaVuSans-49"/>
     <use x="906.445312" xlink:href="#DejaVuSans-50"/>
     <use x="970.068359" xlink:href="#DejaVuSans-41"/>
    </g>
   </g>
   <g id="text_21">
    <!-- 22736 (2018-05-10) -->
    <g style="fill:#262626;" transform="translate(455.137613 270.359638)scale(0.1 -0.1)">
     <use xlink:href="#DejaVuSans-50"/>
     <use x="63.623047" xlink:href="#DejaVuSans-50"/>
     <use x="127.246094" xlink:href="#DejaVuSans-55"/>
     <use x="190.869141" xlink:href="#DejaVuSans-51"/>
     <use x="254.492188" xlink:href="#DejaVuSans-54"/>
     <use x="318.115234" xlink:href="#DejaVuSans-32"/>
     <use x="349.902344" xlink:href="#DejaVuSans-40"/>
     <use x="388.916016" xlink:href="#DejaVuSans-50"/>
     <use x="452.539062" xlink:href="#DejaVuSans-48"/>
     <use x="516.162109" xlink:href="#DejaVuSans-49"/>
     <use x="579.785156" xlink:href="#DejaVuSans-56"/>
     <use x="643.408203" xlink:href="#DejaVuSans-45"/>
     <use x="679.492188" xlink:href="#DejaVuSans-48"/>
     <use x="743.115234" xlink:href="#DejaVuSans-53"/>
     <use x="806.738281" xlink:href="#DejaVuSans-45"/>
     <use x="842.822266" xlink:href="#DejaVuSans-49"/>
     <use x="906.445312" xlink:href="#DejaVuSans-48"/>
     <use x="970.068359" xlink:href="#DejaVuSans-41"/>
    </g>
   </g>
   <g id="text_22">
    <!-- 25983 (2018-12-30) -->
    <g style="fill:#262626;" transform="translate(509.785996 219.967398)scale(0.1 -0.1)">
     <use xlink:href="#DejaVuSans-50"/>
     <use x="63.623047" xlink:href="#DejaVuSans-53"/>
     <use x="127.246094" xlink:href="#DejaVuSans-57"/>
     <use x="190.869141" xlink:href="#DejaVuSans-56"/>
     <use x="254.492188" xlink:href="#DejaVuSans-51"/>
     <use x="318.115234" xlink:href="#DejaVuSans-32"/>
     <use x="349.902344" xlink:href="#DejaVuSans-40"/>
     <use x="388.916016" xlink:href="#DejaVuSans-50"/>
     <use x="452.539062" xlink:href="#DejaVuSans-48"/>
     <use x="516.162109" xlink:href="#DejaVuSans-49"/>
     <use x="579.785156" xlink:href="#DejaVuSans-56"/>
     <use x="643.408203" xlink:href="#DejaVuSans-45"/>
     <use x="679.492188" xlink:href="#DejaVuSans-49"/>
     <use x="743.115234" xlink:href="#DejaVuSans-50"/>
     <use x="806.738281" xlink:href="#DejaVuSans-45"/>
     <use x="842.822266" xlink:href="#DejaVuSans-51"/>
     <use x="906.445312" xlink:href="#DejaVuSans-48"/>
     <use x="970.068359" xlink:href="#DejaVuSans-41"/>
    </g>
   </g>
   <g id="text_23">
    <!-- 29230 (2019-09-09) -->
    <g style="fill:#262626;" transform="translate(569.024351 169.575158)scale(0.1 -0.1)">
     <use xlink:href="#DejaVuSans-50"/>
     <use x="63.623047" xlink:href="#DejaVuSans-57"/>
     <use x="127.246094" xlink:href="#DejaVuSans-50"/>
     <use x="190.869141" xlink:href="#DejaVuSans-51"/>
     <use x="254.492188" xlink:href="#DejaVuSans-48"/>
     <use x="318.115234" xlink:href="#DejaVuSans-32"/>
     <use x="349.902344" xlink:href="#DejaVuSans-40"/>
     <use x="388.916016" xlink:href="#DejaVuSans-50"/>
     <use x="452.539062" xlink:href="#DejaVuSans-48"/>
     <use x="516.162109" xlink:href="#DejaVuSans-49"/>
     <use x="579.785156" xlink:href="#DejaVuSans-57"/>
     <use x="643.408203" xlink:href="#DejaVuSans-45"/>
     <use x="679.492188" xlink:href="#DejaVuSans-48"/>
     <use x="743.115234" xlink:href="#DejaVuSans-57"/>
     <use x="806.738281" xlink:href="#DejaVuSans-45"/>
     <use x="842.822266" xlink:href="#DejaVuSans-48"/>
     <use x="906.445312" xlink:href="#DejaVuSans-57"/>
     <use x="970.068359" xlink:href="#DejaVuSans-41"/>
    </g>
   </g>
   <g id="text_24">
    <!-- 32476 (2020-05-17) -->
    <g style="fill:#262626;" transform="translate(627.636364 119.198437)scale(0.1 -0.1)">
     <use xlink:href="#DejaVuSans-51"/>
     <use x="63.623047" xlink:href="#DejaVuSans-50"/>
     <use x="127.246094" xlink:href="#DejaVuSans-52"/>
     <use x="190.869141" xlink:href="#DejaVuSans-55"/>
     <use x="254.492188" xlink:href="#DejaVuSans-54"/>
     <use x="318.115234" xlink:href="#DejaVuSans-32"/>
     <use x="349.902344" xlink:href="#DejaVuSans-40"/>
     <use x="388.916016" xlink:href="#DejaVuSans-50"/>
     <use x="452.539062" xlink:href="#DejaVuSans-48"/>
     <use x="516.162109" xlink:href="#DejaVuSans-50"/>
     <use x="579.785156" xlink:href="#DejaVuSans-48"/>
     <use x="643.408203" xlink:href="#DejaVuSans-45"/>
     <use x="679.492188" xlink:href="#DejaVuSans-48"/>
     <use x="743.115234" xlink:href="#DejaVuSans-53"/>
     <use x="806.738281" xlink:href="#DejaVuSans-45"/>
     <use x="842.822266" xlink:href="#DejaVuSans-49"/>
     <use x="906.445312" xlink:href="#DejaVuSans-55"/>
     <use x="970.068359" xlink:href="#DejaVuSans-41"/>
    </g>
   </g>
   <g id="text_25">
    <!-- Closed issues over time -->
    <defs>
     <path d="M 64.40625 67.28125 
L 64.40625 56.890625 
Q 59.421875 61.53125 53.78125 63.8125 
Q 48.140625 66.109375 41.796875 66.109375 
Q 29.296875 66.109375 22.65625 58.46875 
Q 16.015625 50.828125 16.015625 36.375 
Q 16.015625 21.96875 22.65625 14.328125 
Q 29.296875 6.6875 41.796875 6.6875 
Q 48.140625 6.6875 53.78125 8.984375 
Q 59.421875 11.28125 64.40625 15.921875 
L 64.40625 5.609375 
Q 59.234375 2.09375 53.4375 0.328125 
Q 47.65625 -1.421875 41.21875 -1.421875 
Q 24.65625 -1.421875 15.125 8.703125 
Q 5.609375 18.84375 5.609375 36.375 
Q 5.609375 53.953125 15.125 64.078125 
Q 24.65625 74.21875 41.21875 74.21875 
Q 47.75 74.21875 53.53125 72.484375 
Q 59.328125 70.75 64.40625 67.28125 
z
" id="DejaVuSans-67"/>
     <path d="M 9.421875 75.984375 
L 18.40625 75.984375 
L 18.40625 0 
L 9.421875 0 
z
" id="DejaVuSans-108"/>
     <path d="M 30.609375 48.390625 
Q 23.390625 48.390625 19.1875 42.75 
Q 14.984375 37.109375 14.984375 27.296875 
Q 14.984375 17.484375 19.15625 11.84375 
Q 23.34375 6.203125 30.609375 6.203125 
Q 37.796875 6.203125 41.984375 11.859375 
Q 46.1875 17.53125 46.1875 27.296875 
Q 46.1875 37.015625 41.984375 42.703125 
Q 37.796875 48.390625 30.609375 48.390625 
z
M 30.609375 56 
Q 42.328125 56 49.015625 48.375 
Q 55.71875 40.765625 55.71875 27.296875 
Q 55.71875 13.875 49.015625 6.21875 
Q 42.328125 -1.421875 30.609375 -1.421875 
Q 18.84375 -1.421875 12.171875 6.21875 
Q 5.515625 13.875 5.515625 27.296875 
Q 5.515625 40.765625 12.171875 48.375 
Q 18.84375 56 30.609375 56 
z
" id="DejaVuSans-111"/>
     <path d="M 44.28125 53.078125 
L 44.28125 44.578125 
Q 40.484375 46.53125 36.375 47.5 
Q 32.28125 48.484375 27.875 48.484375 
Q 21.1875 48.484375 17.84375 46.4375 
Q 14.5 44.390625 14.5 40.28125 
Q 14.5 37.15625 16.890625 35.375 
Q 19.28125 33.59375 26.515625 31.984375 
L 29.59375 31.296875 
Q 39.15625 29.25 43.1875 25.515625 
Q 47.21875 21.78125 47.21875 15.09375 
Q 47.21875 7.46875 41.1875 3.015625 
Q 35.15625 -1.421875 24.609375 -1.421875 
Q 20.21875 -1.421875 15.453125 -0.5625 
Q 10.6875 0.296875 5.421875 2 
L 5.421875 11.28125 
Q 10.40625 8.6875 15.234375 7.390625 
Q 20.0625 6.109375 24.8125 6.109375 
Q 31.15625 6.109375 34.5625 8.28125 
Q 37.984375 10.453125 37.984375 14.40625 
Q 37.984375 18.0625 35.515625 20.015625 
Q 33.0625 21.96875 24.703125 23.78125 
L 21.578125 24.515625 
Q 13.234375 26.265625 9.515625 29.90625 
Q 5.8125 33.546875 5.8125 39.890625 
Q 5.8125 47.609375 11.28125 51.796875 
Q 16.75 56 26.8125 56 
Q 31.78125 56 36.171875 55.265625 
Q 40.578125 54.546875 44.28125 53.078125 
z
" id="DejaVuSans-115"/>
     <path d="M 56.203125 29.59375 
L 56.203125 25.203125 
L 14.890625 25.203125 
Q 15.484375 15.921875 20.484375 11.0625 
Q 25.484375 6.203125 34.421875 6.203125 
Q 39.59375 6.203125 44.453125 7.46875 
Q 49.3125 8.734375 54.109375 11.28125 
L 54.109375 2.78125 
Q 49.265625 0.734375 44.1875 -0.34375 
Q 39.109375 -1.421875 33.890625 -1.421875 
Q 20.796875 -1.421875 13.15625 6.1875 
Q 5.515625 13.8125 5.515625 26.8125 
Q 5.515625 40.234375 12.765625 48.109375 
Q 20.015625 56 32.328125 56 
Q 43.359375 56 49.78125 48.890625 
Q 56.203125 41.796875 56.203125 29.59375 
z
M 47.21875 32.234375 
Q 47.125 39.59375 43.09375 43.984375 
Q 39.0625 48.390625 32.421875 48.390625 
Q 24.90625 48.390625 20.390625 44.140625 
Q 15.875 39.890625 15.1875 32.171875 
z
" id="DejaVuSans-101"/>
     <path d="M 45.40625 46.390625 
L 45.40625 75.984375 
L 54.390625 75.984375 
L 54.390625 0 
L 45.40625 0 
L 45.40625 8.203125 
Q 42.578125 3.328125 38.25 0.953125 
Q 33.9375 -1.421875 27.875 -1.421875 
Q 17.96875 -1.421875 11.734375 6.484375 
Q 5.515625 14.40625 5.515625 27.296875 
Q 5.515625 40.1875 11.734375 48.09375 
Q 17.96875 56 27.875 56 
Q 33.9375 56 38.25 53.625 
Q 42.578125 51.265625 45.40625 46.390625 
z
M 14.796875 27.296875 
Q 14.796875 17.390625 18.875 11.75 
Q 22.953125 6.109375 30.078125 6.109375 
Q 37.203125 6.109375 41.296875 11.75 
Q 45.40625 17.390625 45.40625 27.296875 
Q 45.40625 37.203125 41.296875 42.84375 
Q 37.203125 48.484375 30.078125 48.484375 
Q 22.953125 48.484375 18.875 42.84375 
Q 14.796875 37.203125 14.796875 27.296875 
z
" id="DejaVuSans-100"/>
     <path d="M 9.421875 54.6875 
L 18.40625 54.6875 
L 18.40625 0 
L 9.421875 0 
z
M 9.421875 75.984375 
L 18.40625 75.984375 
L 18.40625 64.59375 
L 9.421875 64.59375 
z
" id="DejaVuSans-105"/>
     <path d="M 8.5 21.578125 
L 8.5 54.6875 
L 17.484375 54.6875 
L 17.484375 21.921875 
Q 17.484375 14.15625 20.5 10.265625 
Q 23.53125 6.390625 29.59375 6.390625 
Q 36.859375 6.390625 41.078125 11.03125 
Q 45.3125 15.671875 45.3125 23.6875 
L 45.3125 54.6875 
L 54.296875 54.6875 
L 54.296875 0 
L 45.3125 0 
L 45.3125 8.40625 
Q 42.046875 3.421875 37.71875 1 
Q 33.40625 -1.421875 27.6875 -1.421875 
Q 18.265625 -1.421875 13.375 4.4375 
Q 8.5 10.296875 8.5 21.578125 
z
M 31.109375 56 
z
" id="DejaVuSans-117"/>
     <path d="M 2.984375 54.6875 
L 12.5 54.6875 
L 29.59375 8.796875 
L 46.6875 54.6875 
L 56.203125 54.6875 
L 35.6875 0 
L 23.484375 0 
z
" id="DejaVuSans-118"/>
     <path d="M 41.109375 46.296875 
Q 39.59375 47.171875 37.8125 47.578125 
Q 36.03125 48 33.890625 48 
Q 26.265625 48 22.1875 43.046875 
Q 18.109375 38.09375 18.109375 28.8125 
L 18.109375 0 
L 9.078125 0 
L 9.078125 54.6875 
L 18.109375 54.6875 
L 18.109375 46.1875 
Q 20.953125 51.171875 25.484375 53.578125 
Q 30.03125 56 36.53125 56 
Q 37.453125 56 38.578125 55.875 
Q 39.703125 55.765625 41.0625 55.515625 
z
" id="DejaVuSans-114"/>
     <path d="M 18.3125 70.21875 
L 18.3125 54.6875 
L 36.8125 54.6875 
L 36.8125 47.703125 
L 18.3125 47.703125 
L 18.3125 18.015625 
Q 18.3125 11.328125 20.140625 9.421875 
Q 21.96875 7.515625 27.59375 7.515625 
L 36.8125 7.515625 
L 36.8125 0 
L 27.59375 0 
Q 17.1875 0 13.234375 3.875 
Q 9.28125 7.765625 9.28125 18.015625 
L 9.28125 47.703125 
L 2.6875 47.703125 
L 2.6875 54.6875 
L 9.28125 54.6875 
L 9.28125 70.21875 
z
" id="DejaVuSans-116"/>
     <path d="M 52 44.1875 
Q 55.375 50.25 60.0625 53.125 
Q 64.75 56 71.09375 56 
Q 79.640625 56 84.28125 50.015625 
Q 88.921875 44.046875 88.921875 33.015625 
L 88.921875 0 
L 79.890625 0 
L 79.890625 32.71875 
Q 79.890625 40.578125 77.09375 44.375 
Q 74.3125 48.1875 68.609375 48.1875 
Q 61.625 48.1875 57.5625 43.546875 
Q 53.515625 38.921875 53.515625 30.90625 
L 53.515625 0 
L 44.484375 0 
L 44.484375 32.71875 
Q 44.484375 40.625 41.703125 44.40625 
Q 38.921875 48.1875 33.109375 48.1875 
Q 26.21875 48.1875 22.15625 43.53125 
Q 18.109375 38.875 18.109375 30.90625 
L 18.109375 0 
L 9.078125 0 
L 9.078125 54.6875 
L 18.109375 54.6875 
L 18.109375 46.1875 
Q 21.1875 51.21875 25.484375 53.609375 
Q 29.78125 56 35.6875 56 
Q 41.65625 56 45.828125 52.96875 
Q 50 49.953125 52 44.1875 
z
" id="DejaVuSans-109"/>
    </defs>
    <g style="fill:#262626;" transform="translate(297.650625 80.4)scale(0.12 -0.12)">
     <use xlink:href="#DejaVuSans-67"/>
     <use x="69.824219" xlink:href="#DejaVuSans-108"/>
     <use x="97.607422" xlink:href="#DejaVuSans-111"/>
     <use x="158.789062" xlink:href="#DejaVuSans-115"/>
     <use x="210.888672" xlink:href="#DejaVuSans-101"/>
     <use x="272.412109" xlink:href="#DejaVuSans-100"/>
     <use x="335.888672" xlink:href="#DejaVuSans-32"/>
     <use x="367.675781" xlink:href="#DejaVuSans-105"/>
     <use x="395.458984" xlink:href="#DejaVuSans-115"/>
     <use x="447.558594" xlink:href="#DejaVuSans-115"/>
     <use x="499.658203" xlink:href="#DejaVuSans-117"/>
     <use x="563.037109" xlink:href="#DejaVuSans-101"/>
     <use x="624.560547" xlink:href="#DejaVuSans-115"/>
     <use x="676.660156" xlink:href="#DejaVuSans-32"/>
     <use x="708.447266" xlink:href="#DejaVuSans-111"/>
     <use x="769.628906" xlink:href="#DejaVuSans-118"/>
     <use x="828.808594" xlink:href="#DejaVuSans-101"/>
     <use x="890.332031" xlink:href="#DejaVuSans-114"/>
     <use x="931.445312" xlink:href="#DejaVuSans-32"/>
     <use x="963.232422" xlink:href="#DejaVuSans-116"/>
     <use x="1002.441406" xlink:href="#DejaVuSans-105"/>
     <use x="1030.224609" xlink:href="#DejaVuSans-109"/>
     <use x="1127.636719" xlink:href="#DejaVuSans-101"/>
    </g>
   </g>
  </g>
 </g>
 <defs>
  <clipPath id="p55a72d21b5">
   <rect height="554.4" width="558" x="90" y="86.4"/>
  </clipPath>
 </defs>
</svg>
