<?xml version="1.0" encoding="utf-8" standalone="no"?>
<!DOCTYPE svg PUBLIC "-//W3C//DTD SVG 1.1//EN"
  "http://www.w3.org/Graphics/SVG/1.1/DTD/svg11.dtd">
<!-- Created with matplotlib (https://matplotlib.org/) -->
<svg height="720pt" version="1.1" viewBox="0 0 720 720" width="720pt" xmlns="http://www.w3.org/2000/svg" xmlns:xlink="http://www.w3.org/1999/xlink">
 <defs>
  <style type="text/css">
*{stroke-linecap:butt;stroke-linejoin:round;}
  </style>
 </defs>
 <g id="figure_1">
  <g id="patch_1">
   <path d="M 0 720 
L 720 720 
L 720 0 
L 0 0 
z
" style="fill:#ffffff;"/>
  </g>
  <g id="axes_1">
   <g id="patch_2">
    <path d="M 90 640.8 
L 648 640.8 
L 648 86.4 
L 90 86.4 
z
" style="fill:#ffffff;"/>
   </g>
   <g id="matplotlib.axis_1">
    <g id="xtick_1">
     <g id="line2d_1">
      <path clip-path="url(#p382df9ebd5)" d="M 163.796835 640.8 
L 163.796835 86.4 
" style="fill:none;stroke:#cccccc;stroke-linecap:round;stroke-width:0.8;"/>
     </g>
     <g id="line2d_2"/>
     <g id="text_1">
      <!-- 2015 -->
      <defs>
       <path d="M 19.1875 8.296875 
L 53.609375 8.296875 
L 53.609375 0 
L 7.328125 0 
L 7.328125 8.296875 
Q 12.9375 14.109375 22.625 23.890625 
Q 32.328125 33.6875 34.8125 36.53125 
Q 39.546875 41.84375 41.421875 45.53125 
Q 43.3125 49.21875 43.3125 52.78125 
Q 43.3125 58.59375 39.234375 62.25 
Q 35.15625 65.921875 28.609375 65.921875 
Q 23.96875 65.921875 18.8125 64.3125 
Q 13.671875 62.703125 7.8125 59.421875 
L 7.8125 69.390625 
Q 13.765625 71.78125 18.9375 73 
Q 24.125 74.21875 28.421875 74.21875 
Q 39.75 74.21875 46.484375 68.546875 
Q 53.21875 62.890625 53.21875 53.421875 
Q 53.21875 48.921875 51.53125 44.890625 
Q 49.859375 40.875 45.40625 35.40625 
Q 44.1875 33.984375 37.640625 27.21875 
Q 31.109375 20.453125 19.1875 8.296875 
z
" id="DejaVuSans-50"/>
       <path d="M 31.78125 66.40625 
Q 24.171875 66.40625 20.328125 58.90625 
Q 16.5 51.421875 16.5 36.375 
Q 16.5 21.390625 20.328125 13.890625 
Q 24.171875 6.390625 31.78125 6.390625 
Q 39.453125 6.390625 43.28125 13.890625 
Q 47.125 21.390625 47.125 36.375 
Q 47.125 51.421875 43.28125 58.90625 
Q 39.453125 66.40625 31.78125 66.40625 
z
M 31.78125 74.21875 
Q 44.046875 74.21875 50.515625 64.515625 
Q 56.984375 54.828125 56.984375 36.375 
Q 56.984375 17.96875 50.515625 8.265625 
Q 44.046875 -1.421875 31.78125 -1.421875 
Q 19.53125 -1.421875 13.0625 8.265625 
Q 6.59375 17.96875 6.59375 36.375 
Q 6.59375 54.828125 13.0625 64.515625 
Q 19.53125 74.21875 31.78125 74.21875 
z
" id="DejaVuSans-48"/>
       <path d="M 12.40625 8.296875 
L 28.515625 8.296875 
L 28.515625 63.921875 
L 10.984375 60.40625 
L 10.984375 69.390625 
L 28.421875 72.90625 
L 38.28125 72.90625 
L 38.28125 8.296875 
L 54.390625 8.296875 
L 54.390625 0 
L 12.40625 0 
z
" id="DejaVuSans-49"/>
       <path d="M 10.796875 72.90625 
L 49.515625 72.90625 
L 49.515625 64.59375 
L 19.828125 64.59375 
L 19.828125 46.734375 
Q 21.96875 47.46875 24.109375 47.828125 
Q 26.265625 48.1875 28.421875 48.1875 
Q 40.625 48.1875 47.75 41.5 
Q 54.890625 34.8125 54.890625 23.390625 
Q 54.890625 11.625 47.5625 5.09375 
Q 40.234375 -1.421875 26.90625 -1.421875 
Q 22.3125 -1.421875 17.546875 -0.640625 
Q 12.796875 0.140625 7.71875 1.703125 
L 7.71875 11.625 
Q 12.109375 9.234375 16.796875 8.0625 
Q 21.484375 6.890625 26.703125 6.890625 
Q 35.15625 6.890625 40.078125 11.328125 
Q 45.015625 15.765625 45.015625 23.390625 
Q 45.015625 31 40.078125 35.4375 
Q 35.15625 39.890625 26.703125 39.890625 
Q 22.75 39.890625 18.8125 39.015625 
Q 14.890625 38.140625 10.796875 36.28125 
z
" id="DejaVuSans-53"/>
      </defs>
      <g style="fill:#262626;" transform="translate(151.071835 651.898438)scale(0.1 -0.1)">
       <use xlink:href="#DejaVuSans-50"/>
       <use x="63.623047" xlink:href="#DejaVuSans-48"/>
       <use x="127.246094" xlink:href="#DejaVuSans-49"/>
       <use x="190.869141" xlink:href="#DejaVuSans-53"/>
      </g>
     </g>
    </g>
    <g id="xtick_2">
     <g id="line2d_3">
      <path clip-path="url(#p382df9ebd5)" d="M 249.720164 640.8 
L 249.720164 86.4 
" style="fill:none;stroke:#cccccc;stroke-linecap:round;stroke-width:0.8;"/>
     </g>
     <g id="line2d_4"/>
     <g id="text_2">
      <!-- 2016 -->
      <defs>
       <path d="M 33.015625 40.375 
Q 26.375 40.375 22.484375 35.828125 
Q 18.609375 31.296875 18.609375 23.390625 
Q 18.609375 15.53125 22.484375 10.953125 
Q 26.375 6.390625 33.015625 6.390625 
Q 39.65625 6.390625 43.53125 10.953125 
Q 47.40625 15.53125 47.40625 23.390625 
Q 47.40625 31.296875 43.53125 35.828125 
Q 39.65625 40.375 33.015625 40.375 
z
M 52.59375 71.296875 
L 52.59375 62.3125 
Q 48.875 64.0625 45.09375 64.984375 
Q 41.3125 65.921875 37.59375 65.921875 
Q 27.828125 65.921875 22.671875 59.328125 
Q 17.53125 52.734375 16.796875 39.40625 
Q 19.671875 43.65625 24.015625 45.921875 
Q 28.375 48.1875 33.59375 48.1875 
Q 44.578125 48.1875 50.953125 41.515625 
Q 57.328125 34.859375 57.328125 23.390625 
Q 57.328125 12.15625 50.6875 5.359375 
Q 44.046875 -1.421875 33.015625 -1.421875 
Q 20.359375 -1.421875 13.671875 8.265625 
Q 6.984375 17.96875 6.984375 36.375 
Q 6.984375 53.65625 15.1875 63.9375 
Q 23.390625 74.21875 37.203125 74.21875 
Q 40.921875 74.21875 44.703125 73.484375 
Q 48.484375 72.75 52.59375 71.296875 
z
" id="DejaVuSans-54"/>
      </defs>
      <g style="fill:#262626;" transform="translate(236.995164 651.898438)scale(0.1 -0.1)">
       <use xlink:href="#DejaVuSans-50"/>
       <use x="63.623047" xlink:href="#DejaVuSans-48"/>
       <use x="127.246094" xlink:href="#DejaVuSans-49"/>
       <use x="190.869141" xlink:href="#DejaVuSans-54"/>
      </g>
     </g>
    </g>
    <g id="xtick_3">
     <g id="line2d_5">
      <path clip-path="url(#p382df9ebd5)" d="M 335.878899 640.8 
L 335.878899 86.4 
" style="fill:none;stroke:#cccccc;stroke-linecap:round;stroke-width:0.8;"/>
     </g>
     <g id="line2d_6"/>
     <g id="text_3">
      <!-- 2017 -->
      <defs>
       <path d="M 8.203125 72.90625 
L 55.078125 72.90625 
L 55.078125 68.703125 
L 28.609375 0 
L 18.3125 0 
L 43.21875 64.59375 
L 8.203125 64.59375 
z
" id="DejaVuSans-55"/>
      </defs>
      <g style="fill:#262626;" transform="translate(323.153899 651.898438)scale(0.1 -0.1)">
       <use xlink:href="#DejaVuSans-50"/>
       <use x="63.623047" xlink:href="#DejaVuSans-48"/>
       <use x="127.246094" xlink:href="#DejaVuSans-49"/>
       <use x="190.869141" xlink:href="#DejaVuSans-55"/>
      </g>
     </g>
    </g>
    <g id="xtick_4">
     <g id="line2d_7">
      <path clip-path="url(#p382df9ebd5)" d="M 421.802228 640.8 
L 421.802228 86.4 
" style="fill:none;stroke:#cccccc;stroke-linecap:round;stroke-width:0.8;"/>
     </g>
     <g id="line2d_8"/>
     <g id="text_4">
      <!-- 2018 -->
      <defs>
       <path d="M 31.78125 34.625 
Q 24.75 34.625 20.71875 30.859375 
Q 16.703125 27.09375 16.703125 20.515625 
Q 16.703125 13.921875 20.71875 10.15625 
Q 24.75 6.390625 31.78125 6.390625 
Q 38.8125 6.390625 42.859375 10.171875 
Q 46.921875 13.96875 46.921875 20.515625 
Q 46.921875 27.09375 42.890625 30.859375 
Q 38.875 34.625 31.78125 34.625 
z
M 21.921875 38.8125 
Q 15.578125 40.375 12.03125 44.71875 
Q 8.5 49.078125 8.5 55.328125 
Q 8.5 64.0625 14.71875 69.140625 
Q 20.953125 74.21875 31.78125 74.21875 
Q 42.671875 74.21875 48.875 69.140625 
Q 55.078125 64.0625 55.078125 55.328125 
Q 55.078125 49.078125 51.53125 44.71875 
Q 48 40.375 41.703125 38.8125 
Q 48.828125 37.15625 52.796875 32.3125 
Q 56.78125 27.484375 56.78125 20.515625 
Q 56.78125 9.90625 50.3125 4.234375 
Q 43.84375 -1.421875 31.78125 -1.421875 
Q 19.734375 -1.421875 13.25 4.234375 
Q 6.78125 9.90625 6.78125 20.515625 
Q 6.78125 27.484375 10.78125 32.3125 
Q 14.796875 37.15625 21.921875 38.8125 
z
M 18.3125 54.390625 
Q 18.3125 48.734375 21.84375 45.5625 
Q 25.390625 42.390625 31.78125 42.390625 
Q 38.140625 42.390625 41.71875 45.5625 
Q 45.3125 48.734375 45.3125 54.390625 
Q 45.3125 60.0625 41.71875 63.234375 
Q 38.140625 66.40625 31.78125 66.40625 
Q 25.390625 66.40625 21.84375 63.234375 
Q 18.3125 60.0625 18.3125 54.390625 
z
" id="DejaVuSans-56"/>
      </defs>
      <g style="fill:#262626;" transform="translate(409.077228 651.898438)scale(0.1 -0.1)">
       <use xlink:href="#DejaVuSans-50"/>
       <use x="63.623047" xlink:href="#DejaVuSans-48"/>
       <use x="127.246094" xlink:href="#DejaVuSans-49"/>
       <use x="190.869141" xlink:href="#DejaVuSans-56"/>
      </g>
     </g>
    </g>
    <g id="xtick_5">
     <g id="line2d_9">
      <path clip-path="url(#p382df9ebd5)" d="M 507.725557 640.8 
L 507.725557 86.4 
" style="fill:none;stroke:#cccccc;stroke-linecap:round;stroke-width:0.8;"/>
     </g>
     <g id="line2d_10"/>
     <g id="text_5">
      <!-- 2019 -->
      <defs>
       <path d="M 10.984375 1.515625 
L 10.984375 10.5 
Q 14.703125 8.734375 18.5 7.8125 
Q 22.3125 6.890625 25.984375 6.890625 
Q 35.75 6.890625 40.890625 13.453125 
Q 46.046875 20.015625 46.78125 33.40625 
Q 43.953125 29.203125 39.59375 26.953125 
Q 35.25 24.703125 29.984375 24.703125 
Q 19.046875 24.703125 12.671875 31.3125 
Q 6.296875 37.9375 6.296875 49.421875 
Q 6.296875 60.640625 12.9375 67.421875 
Q 19.578125 74.21875 30.609375 74.21875 
Q 43.265625 74.21875 49.921875 64.515625 
Q 56.59375 54.828125 56.59375 36.375 
Q 56.59375 19.140625 48.40625 8.859375 
Q 40.234375 -1.421875 26.421875 -1.421875 
Q 22.703125 -1.421875 18.890625 -0.6875 
Q 15.09375 0.046875 10.984375 1.515625 
z
M 30.609375 32.421875 
Q 37.25 32.421875 41.125 36.953125 
Q 45.015625 41.5 45.015625 49.421875 
Q 45.015625 57.28125 41.125 61.84375 
Q 37.25 66.40625 30.609375 66.40625 
Q 23.96875 66.40625 20.09375 61.84375 
Q 16.21875 57.28125 16.21875 49.421875 
Q 16.21875 41.5 20.09375 36.953125 
Q 23.96875 32.421875 30.609375 32.421875 
z
" id="DejaVuSans-57"/>
      </defs>
      <g style="fill:#262626;" transform="translate(495.000557 651.898438)scale(0.1 -0.1)">
       <use xlink:href="#DejaVuSans-50"/>
       <use x="63.623047" xlink:href="#DejaVuSans-48"/>
       <use x="127.246094" xlink:href="#DejaVuSans-49"/>
       <use x="190.869141" xlink:href="#DejaVuSans-57"/>
      </g>
     </g>
    </g>
    <g id="xtick_6">
     <g id="line2d_11">
      <path clip-path="url(#p382df9ebd5)" d="M 593.648886 640.8 
L 593.648886 86.4 
" style="fill:none;stroke:#cccccc;stroke-linecap:round;stroke-width:0.8;"/>
     </g>
     <g id="line2d_12"/>
     <g id="text_6">
      <!-- 2020 -->
      <g style="fill:#262626;" transform="translate(580.923886 651.898438)scale(0.1 -0.1)">
       <use xlink:href="#DejaVuSans-50"/>
       <use x="63.623047" xlink:href="#DejaVuSans-48"/>
       <use x="127.246094" xlink:href="#DejaVuSans-50"/>
       <use x="190.869141" xlink:href="#DejaVuSans-48"/>
      </g>
     </g>
    </g>
   </g>
   <g id="matplotlib.axis_2">
    <g id="ytick_1">
     <g id="line2d_13">
      <path clip-path="url(#p382df9ebd5)" d="M 90 615.615608 
L 648 615.615608 
" style="fill:none;stroke:#cccccc;stroke-linecap:round;stroke-width:0.8;"/>
     </g>
     <g id="line2d_14"/>
     <g id="text_7">
      <!-- 0 -->
      <g style="fill:#262626;" transform="translate(80.1375 619.414826)scale(0.1 -0.1)">
       <use xlink:href="#DejaVuSans-48"/>
      </g>
     </g>
    </g>
    <g id="ytick_2">
     <g id="line2d_15">
      <path clip-path="url(#p382df9ebd5)" d="M 90 537.577703 
L 648 537.577703 
" style="fill:none;stroke:#cccccc;stroke-linecap:round;stroke-width:0.8;"/>
     </g>
     <g id="line2d_16"/>
     <g id="text_8">
      <!-- 5000 -->
      <g style="fill:#262626;" transform="translate(61.05 541.376922)scale(0.1 -0.1)">
       <use xlink:href="#DejaVuSans-53"/>
       <use x="63.623047" xlink:href="#DejaVuSans-48"/>
       <use x="127.246094" xlink:href="#DejaVuSans-48"/>
       <use x="190.869141" xlink:href="#DejaVuSans-48"/>
      </g>
     </g>
    </g>
    <g id="ytick_3">
     <g id="line2d_17">
      <path clip-path="url(#p382df9ebd5)" d="M 90 459.539799 
L 648 459.539799 
" style="fill:none;stroke:#cccccc;stroke-linecap:round;stroke-width:0.8;"/>
     </g>
     <g id="line2d_18"/>
     <g id="text_9">
      <!-- 10000 -->
      <g style="fill:#262626;" transform="translate(54.6875 463.339018)scale(0.1 -0.1)">
       <use xlink:href="#DejaVuSans-49"/>
       <use x="63.623047" xlink:href="#DejaVuSans-48"/>
       <use x="127.246094" xlink:href="#DejaVuSans-48"/>
       <use x="190.869141" xlink:href="#DejaVuSans-48"/>
       <use x="254.492188" xlink:href="#DejaVuSans-48"/>
      </g>
     </g>
    </g>
    <g id="ytick_4">
     <g id="line2d_19">
      <path clip-path="url(#p382df9ebd5)" d="M 90 381.501895 
L 648 381.501895 
" style="fill:none;stroke:#cccccc;stroke-linecap:round;stroke-width:0.8;"/>
     </g>
     <g id="line2d_20"/>
     <g id="text_10">
      <!-- 15000 -->
      <g style="fill:#262626;" transform="translate(54.6875 385.301114)scale(0.1 -0.1)">
       <use xlink:href="#DejaVuSans-49"/>
       <use x="63.623047" xlink:href="#DejaVuSans-53"/>
       <use x="127.246094" xlink:href="#DejaVuSans-48"/>
       <use x="190.869141" xlink:href="#DejaVuSans-48"/>
       <use x="254.492188" xlink:href="#DejaVuSans-48"/>
      </g>
     </g>
    </g>
    <g id="ytick_5">
     <g id="line2d_21">
      <path clip-path="url(#p382df9ebd5)" d="M 90 303.463991 
L 648 303.463991 
" style="fill:none;stroke:#cccccc;stroke-linecap:round;stroke-width:0.8;"/>
     </g>
     <g id="line2d_22"/>
     <g id="text_11">
      <!-- 20000 -->
      <g style="fill:#262626;" transform="translate(54.6875 307.26321)scale(0.1 -0.1)">
       <use xlink:href="#DejaVuSans-50"/>
       <use x="63.623047" xlink:href="#DejaVuSans-48"/>
       <use x="127.246094" xlink:href="#DejaVuSans-48"/>
       <use x="190.869141" xlink:href="#DejaVuSans-48"/>
       <use x="254.492188" xlink:href="#DejaVuSans-48"/>
      </g>
     </g>
    </g>
    <g id="ytick_6">
     <g id="line2d_23">
      <path clip-path="url(#p382df9ebd5)" d="M 90 225.426087 
L 648 225.426087 
" style="fill:none;stroke:#cccccc;stroke-linecap:round;stroke-width:0.8;"/>
     </g>
     <g id="line2d_24"/>
     <g id="text_12">
      <!-- 25000 -->
      <g style="fill:#262626;" transform="translate(54.6875 229.225306)scale(0.1 -0.1)">
       <use xlink:href="#DejaVuSans-50"/>
       <use x="63.623047" xlink:href="#DejaVuSans-53"/>
       <use x="127.246094" xlink:href="#DejaVuSans-48"/>
       <use x="190.869141" xlink:href="#DejaVuSans-48"/>
       <use x="254.492188" xlink:href="#DejaVuSans-48"/>
      </g>
     </g>
    </g>
    <g id="ytick_7">
     <g id="line2d_25">
      <path clip-path="url(#p382df9ebd5)" d="M 90 147.388183 
L 648 147.388183 
" style="fill:none;stroke:#cccccc;stroke-linecap:round;stroke-width:0.8;"/>
     </g>
     <g id="line2d_26"/>
     <g id="text_13">
      <!-- 30000 -->
      <defs>
       <path d="M 40.578125 39.3125 
Q 47.65625 37.796875 51.625 33 
Q 55.609375 28.21875 55.609375 21.1875 
Q 55.609375 10.40625 48.1875 4.484375 
Q 40.765625 -1.421875 27.09375 -1.421875 
Q 22.515625 -1.421875 17.65625 -0.515625 
Q 12.796875 0.390625 7.625 2.203125 
L 7.625 11.71875 
Q 11.71875 9.328125 16.59375 8.109375 
Q 21.484375 6.890625 26.8125 6.890625 
Q 36.078125 6.890625 40.9375 10.546875 
Q 45.796875 14.203125 45.796875 21.1875 
Q 45.796875 27.640625 41.28125 31.265625 
Q 36.765625 34.90625 28.71875 34.90625 
L 20.21875 34.90625 
L 20.21875 43.015625 
L 29.109375 43.015625 
Q 36.375 43.015625 40.234375 45.921875 
Q 44.09375 48.828125 44.09375 54.296875 
Q 44.09375 59.90625 40.109375 62.90625 
Q 36.140625 65.921875 28.71875 65.921875 
Q 24.65625 65.921875 20.015625 65.03125 
Q 15.375 64.15625 9.8125 62.3125 
L 9.8125 71.09375 
Q 15.4375 72.65625 20.34375 73.4375 
Q 25.25 74.21875 29.59375 74.21875 
Q 40.828125 74.21875 47.359375 69.109375 
Q 53.90625 64.015625 53.90625 55.328125 
Q 53.90625 49.265625 50.4375 45.09375 
Q 46.96875 40.921875 40.578125 39.3125 
z
" id="DejaVuSans-51"/>
      </defs>
      <g style="fill:#262626;" transform="translate(54.6875 151.187402)scale(0.1 -0.1)">
       <use xlink:href="#DejaVuSans-51"/>
       <use x="63.623047" xlink:href="#DejaVuSans-48"/>
       <use x="127.246094" xlink:href="#DejaVuSans-48"/>
       <use x="190.869141" xlink:href="#DejaVuSans-48"/>
       <use x="254.492188" xlink:href="#DejaVuSans-48"/>
      </g>
     </g>
    </g>
   </g>
   <g id="line2d_27">
    <path clip-path="url(#p382df9ebd5)" d="M 115.363636 615.6 
L 117.000476 615.459532 
L 117.006421 615.428317 
L 118.050601 615.334671 
L 119.713818 615.194203 
L 119.823228 615.162988 
L 120.68488 615.038127 
L 120.768739 614.991304 
L 122.999644 614.850836 
L 124.190806 614.663545 
L 126.124457 614.491862 
L 126.153273 614.351394 
L 127.063353 614.210925 
L 127.107614 614.148495 
L 129.612414 613.742698 
L 129.636293 613.711483 
L 131.01567 613.571014 
L 132.016867 613.399331 
L 133.652966 613.040357 
L 133.706281 612.993534 
L 135.986115 612.556522 
L 136.247599 612.509699 
L 137.126272 612.384838 
L 137.196017 612.291193 
L 140.226765 611.901003 
L 143.749316 611.073802 
L 143.837804 611.026979 
L 144.411062 610.870903 
L 144.488193 610.76165 
L 145.43436 610.636789 
L 146.826683 610.402676 
L 146.933316 610.355853 
L 147.783686 610.168562 
L 148.964963 610.028094 
L 149.369864 609.887625 
L 149.376246 609.85641 
L 150.289919 609.700334 
L 150.813701 609.466221 
L 150.869275 609.388183 
L 152.503344 609.154069 
L 152.507908 609.138462 
L 153.424946 608.951171 
L 153.495702 608.841918 
L 156.991841 608.092754 
L 156.9921 608.077146 
L 157.164377 607.952285 
L 157.878258 607.749387 
L 158.608707 607.624526 
L 158.624926 607.452843 
L 159.053104 607.312375 
L 159.096216 607.265552 
L 160.021488 607.078261 
L 160.034002 606.9534 
L 160.269169 606.82854 
L 160.278076 606.516388 
L 160.514934 606.391527 
L 160.561422 606.344705 
L 160.929803 606.188629 
L 161.141371 606.016945 
L 161.684558 605.892085 
L 161.927275 605.814047 
L 163.397575 605.689186 
L 165.215019 605.330212 
L 165.216398 605.283389 
L 165.890436 605.111706 
L 165.935281 605.033668 
L 166.683938 604.908807 
L 167.035705 604.768339 
L 167.350637 604.456187 
L 168.45077 604.237681 
L 168.551809 604.081605 
L 168.969941 603.909922 
L 169.177396 603.847492 
L 169.289263 603.785061 
L 169.918185 603.660201 
L 169.9749 603.53534 
L 170.161272 603.129543 
L 170.378881 603.004682 
L 170.711801 602.754961 
L 171.764537 602.411594 
L 171.881926 602.208696 
L 172.005463 602.083835 
L 172.575637 601.490747 
L 173.232666 601.334671 
L 173.675178 601.069342 
L 173.699256 600.928874 
L 173.985405 600.788406 
L 174.150541 600.63233 
L 174.246829 600.585507 
L 175.101893 600.460647 
L 175.127992 600.413824 
L 175.317925 600.288963 
L 175.396446 600.210925 
L 175.644421 600.054849 
L 175.798386 599.883166 
L 176.777755 599.680268 
L 176.870929 599.649052 
L 177.199242 599.492977 
L 177.299115 599.414939 
L 177.499377 599.227648 
L 177.658254 599.024749 
L 178.120779 598.899889 
L 178.227341 598.712598 
L 178.593561 598.400446 
L 178.690326 598.259978 
L 179.003743 598.119509 
L 179.060726 598.010256 
L 179.735448 597.885396 
L 180.037504 597.354738 
L 180.080687 597.261093 
L 180.206005 597.120624 
L 180.33647 596.82408 
L 180.467282 596.683612 
L 180.583974 596.558751 
L 180.7337 596.418283 
L 180.74941 596.340245 
L 181.384309 596.199777 
L 181.454343 595.934448 
L 181.655678 595.79398 
L 181.701432 595.684727 
L 181.881169 595.559866 
L 182.204406 595.076031 
L 182.370728 594.951171 
L 182.440221 594.88874 
L 183.043475 594.732664 
L 183.092646 594.545373 
L 183.140327 594.498551 
L 183.273427 594.37369 
L 183.535981 594.014716 
L 183.570079 593.874247 
L 183.742561 593.733779 
L 183.902185 593.515273 
L 184.01485 593.390412 
L 184.107681 593.249944 
L 184.683955 593.109476 
L 184.819259 592.937793 
L 184.97548 592.781717 
L 185.115664 592.531996 
L 185.454655 592.235452 
L 185.644988 592.079376 
L 185.858878 591.98573 
L 186.597697 591.86087 
L 186.809854 591.486288 
L 187.067311 591.236566 
L 187.137085 591.080491 
L 187.291157 590.95563 
L 187.344981 590.877592 
L 188.01602 590.737124 
L 188.522959 590.456187 
L 188.747341 590.253289 
L 188.806027 590.175251 
L 188.939781 590.034783 
L 189.006141 589.863099 
L 189.644373 589.691416 
L 189.952055 589.332441 
L 190.327057 589.191973 
L 190.399387 588.926644 
L 190.632859 588.754961 
L 190.645338 588.739353 
L 191.258547 588.614493 
L 192.293196 587.490747 
L 192.902885 587.319064 
L 193.48893 586.63233 
L 193.64038 586.445039 
L 193.763001 586.210925 
L 193.927156 586.070457 
L 193.930573 586.054849 
L 194.598111 585.883166 
L 194.679852 585.66466 
L 195.007067 585.508584 
L 195.174946 585.336901 
L 195.31628 585.21204 
L 196.116158 584.931104 
L 196.22102 584.806243 
L 196.323029 584.63456 
L 196.487653 584.509699 
L 196.517632 584.384838 
L 196.91388 584.24437 
L 197.024679 584.057079 
L 197.267924 583.776143 
L 197.938405 583.651282 
L 198.374122 583.432776 
L 198.434507 583.307915 
L 198.608708 583.167447 
L 198.70035 582.964548 
L 199.509903 582.730435 
L 199.616574 582.465106 
L 199.786726 582.340245 
L 200.09118 581.950056 
L 200.258504 581.669119 
L 200.360399 581.559866 
L 200.472225 581.435006 
L 200.62783 581.294537 
L 201.16041 581.044816 
L 201.210682 580.935563 
L 201.401636 580.795095 
L 201.663485 580.514158 
L 201.774156 580.389298 
L 202.03971 580.233222 
L 202.146948 580.092754 
L 202.214586 579.905463 
L 202.820679 579.764994 
L 202.902725 579.608919 
L 203.077607 579.484058 
L 203.178085 579.296767 
L 203.310902 579.125084 
L 203.40386 579.015831 
L 203.556065 578.89097 
L 203.668226 578.750502 
L 203.812189 578.610033 
L 203.888593 578.469565 
L 204.699865 578.251059 
L 204.77014 578.110591 
L 204.925165 577.98573 
L 205.002732 577.720401 
L 205.169043 577.564326 
L 205.250152 577.377035 
L 205.403934 577.220959 
L 205.509115 577.002453 
L 206.117412 576.846377 
L 206.391875 576.534225 
L 206.508453 576.300111 
L 206.684806 576.097213 
L 206.771484 576.034783 
L 207.388342 575.863099 
L 207.768033 575.738239 
L 207.828505 575.488517 
L 208.044215 575.363657 
L 208.13919 575.254404 
L 208.232669 575.129543 
L 208.358655 574.50524 
L 208.45628 574.364771 
L 208.5744 574.17748 
L 208.747947 573.958974 
L 208.959916 573.818506 
L 209.429062 573.584392 
L 210.472261 572.304571 
L 211.081396 572.17971 
L 211.331456 572.054849 
L 211.702373 571.883166 
L 211.82964 571.72709 
L 211.830245 571.66466 
L 211.985422 571.539799 
L 212.109196 571.336901 
L 212.667973 571.21204 
L 212.980941 570.946711 
L 213.228902 570.821851 
L 213.302908 570.728205 
L 213.452636 570.587737 
L 213.547412 570.353623 
L 213.682016 570.213155 
L 213.749153 570.166332 
L 214.329716 570.041472 
L 215.055059 569.557637 
L 215.333127 569.417168 
L 215.405893 569.354738 
L 215.948323 569.198662 
L 216.068181 569.042586 
L 216.410223 568.808473 
L 216.68682 568.558751 
L 216.750238 568.433891 
L 216.950287 568.277815 
L 217.032982 568.230992 
L 217.496703 568.106132 
L 217.592176 567.950056 
L 217.710421 567.778372 
L 217.814346 567.684727 
L 218.093256 567.294537 
L 218.171749 567.107246 
L 218.386789 566.88874 
L 218.497855 566.732664 
L 218.612946 566.592196 
L 218.630841 566.560981 
L 219.270043 566.404905 
L 219.506634 566.170792 
L 219.560279 566.014716 
L 219.641996 564.734894 
L 219.794669 564.610033 
L 219.90846 563.736009 
L 220.008118 563.595541 
L 220.096295 563.330212 
L 220.875749 563.111706 
L 221.50821 562.44058 
L 221.833275 562.284504 
L 221.924574 562.097213 
L 222.661407 561.956745 
L 223.003664 561.816276 
L 223.110118 561.660201 
L 223.550338 561.441695 
L 224.468363 560.973467 
L 224.754393 560.552062 
L 224.915954 560.395987 
L 225.257492 560.021405 
L 225.897602 559.834114 
L 226.252163 559.475139 
L 226.375117 559.334671 
L 226.52687 559.287848 
L 226.649327 559.162988 
L 226.727041 559.053735 
L 226.865451 558.913266 
L 226.962077 558.850836 
L 227.532218 558.679153 
L 227.623686 558.554292 
L 227.847995 558.273356 
L 227.938409 558.17971 
L 228.022294 558.054849 
L 228.108305 557.617837 
L 228.504686 557.27447 
L 228.559718 557.134002 
L 229.187798 557.009142 
L 229.938322 555.916611 
L 230.035405 555.744928 
L 230.119708 555.604459 
L 230.192346 555.417168 
L 230.86466 555.245485 
L 231.019949 555.089409 
L 231.266589 554.870903 
L 231.596286 554.402676 
L 231.794387 554.121739 
L 231.867965 553.950056 
L 232.441125 553.778372 
L 232.710772 553.419398 
L 232.908965 552.904348 
L 233.401147 552.560981 
L 233.57331 552.326867 
L 234.111352 552.123969 
L 235.185697 550.625641 
L 235.882963 550.422742 
L 235.95371 550.282274 
L 236.237584 550.110591 
L 236.585866 549.845262 
L 236.983741 549.579933 
L 237.398835 549.40825 
L 237.554855 549.205351 
L 237.703153 549.096098 
L 237.978458 548.940022 
L 238.05533 548.846377 
L 238.373805 548.674693 
L 238.443105 548.534225 
L 239.075664 548.409365 
L 239.185096 548.362542 
L 239.413742 548.128428 
L 239.672978 547.98796 
L 239.905224 547.785061 
L 240.067069 547.566555 
L 240.377881 547.441695 
L 240.619415 547.301226 
L 240.730721 547.051505 
L 241.815762 546.349164 
L 242.282324 546.224303 
L 242.519485 545.834114 
L 242.900996 545.365886 
L 242.975931 545.162988 
L 243.107742 545.038127 
L 243.181601 544.882051 
L 243.370373 544.725975 
L 243.458615 544.616722 
L 244.470026 544.11728 
L 244.785258 543.773913 
L 245.582398 543.508584 
L 245.679775 543.399331 
L 245.841377 543.071572 
L 245.951119 542.899889 
L 246.173851 542.728205 
L 246.715291 542.3068 
L 247.310643 542.135117 
L 247.583213 541.947826 
L 248.284582 541.72932 
L 249.227605 541.588852 
L 249.58723 541.401561 
L 250.587851 541.261093 
L 250.713409 541.120624 
L 252.300629 540.262207 
L 252.358023 540.121739 
L 252.548925 539.981271 
L 252.63945 539.903233 
L 253.231803 539.622297 
L 253.331907 539.497436 
L 254.377687 539.122854 
L 254.490153 538.997993 
L 254.6227 538.841918 
L 254.764977 538.43612 
L 254.874255 538.31126 
L 255.066844 538.061538 
L 255.554691 537.874247 
L 255.62066 537.624526 
L 255.785736 537.484058 
L 255.867834 537.265552 
L 256.147757 537.125084 
L 256.287413 536.9534 
L 256.932159 536.157414 
L 257.25614 535.814047 
L 257.349823 535.751616 
L 257.473403 535.564326 
L 257.554929 535.423857 
L 257.722187 535.283389 
L 257.831679 534.95563 
L 257.911049 534.815162 
L 258.015767 534.627871 
L 258.382347 534.159643 
L 258.891321 533.785061 
L 258.999392 533.53534 
L 259.280883 533.348049 
L 259.819214 531.756076 
L 259.910494 531.631215 
L 260.394963 531.428317 
L 260.517818 531.272241 
L 260.742612 531.08495 
L 260.856468 530.897659 
L 261.015664 530.725975 
L 261.127401 530.63233 
L 261.264266 530.491862 
L 261.35189 530.17971 
L 261.440666 530.023634 
L 261.587119 529.773913 
L 261.756835 529.633445 
L 261.803417 529.60223 
L 262.120186 529.461761 
L 263.350664 526.948941 
L 263.830185 526.652397 
L 264.443647 525.435006 
L 264.508553 525.27893 
L 264.808102 524.560981 
L 265.445402 524.170792 
L 265.565713 524.014716 
L 265.874231 523.827425 
L 266.024968 523.499666 
L 266.557161 522.625641 
L 267.081335 522.453958 
L 267.186785 522.204236 
L 267.364918 522.032553 
L 267.455963 521.876477 
L 267.547731 521.736009 
L 267.685248 521.642363 
L 267.827262 521.47068 
L 267.88379 520.940022 
L 268.070319 520.799554 
L 268.34371 520.612263 
L 268.774727 520.456187 
L 269.268083 520.128428 
L 269.452493 519.98796 
L 269.674238 519.816276 
L 270.842777 519.410479 
L 270.953173 519.207581 
L 271.311478 519.035897 
L 272.376984 518.489632 
L 272.506795 518.317949 
L 272.83443 517.99019 
L 272.989318 517.865329 
L 273.067793 517.709253 
L 273.846587 517.521962 
L 274.17641 517.272241 
L 274.266466 517.116165 
L 274.497652 516.882051 
L 274.510251 516.850836 
L 274.711068 516.710368 
L 275.314869 516.288963 
L 275.451568 516.070457 
L 275.576936 515.929989 
L 275.801822 515.539799 
L 276.571062 515.040357 
L 277.004542 514.899889 
L 277.060587 514.806243 
L 277.295806 514.665775 
L 277.517325 514.213155 
L 277.68994 514.135117 
L 277.966433 513.932219 
L 278.203104 513.854181 
L 278.649286 513.713712 
L 278.76357 513.635674 
L 278.897852 513.495206 
L 279.036968 513.448384 
L 279.61088 512.69922 
L 279.721151 512.605574 
L 280.157971 512.465106 
L 280.262509 512.340245 
L 280.525826 512.090524 
L 281.006712 511.606689 
L 281.111814 511.544259 
L 281.227613 511.419398 
L 281.268994 511.310145 
L 281.624471 511.169677 
L 281.711005 511.029208 
L 281.834479 510.857525 
L 281.948267 510.560981 
L 282.203724 509.874247 
L 282.286674 509.140691 
L 282.43367 508.969008 
L 282.580878 508.656856 
L 282.909335 508.282274 
L 282.962618 508.219844 
L 283.540055 507.970123 
L 283.786494 507.564326 
L 283.925108 507.174136 
L 284.182521 506.409365 
L 284.346968 506.175251 
L 284.461936 505.972352 
L 284.745666 505.332441 
L 284.970498 505.191973 
L 285.068559 505.051505 
L 285.355325 504.864214 
L 285.610324 504.50524 
L 285.685316 504.317949 
L 285.801387 504.146265 
L 286.516303 502.725975 
L 286.759679 502.601115 
L 287.867547 500.088294 
L 288.174093 499.776143 
L 288.465291 499.635674 
L 288.5246 499.448384 
L 288.635238 499.21427 
L 288.889554 498.839688 
L 289.067492 498.402676 
L 289.199756 498.168562 
L 289.270051 497.887625 
L 289.429601 497.747157 
L 289.586051 497.310145 
L 289.95589 497.138462 
L 290.055807 496.997993 
L 290.196389 496.76388 
L 290.317721 496.514158 
L 290.407527 496.389298 
L 290.512457 496.077146 
L 290.686802 495.749387 
L 290.96768 495.187514 
L 291.119359 494.984615 
L 291.245034 494.859755 
L 291.793784 494.531996 
L 291.831561 494.43835 
L 292.05605 494.297882 
L 292.890557 492.659086 
L 293.586971 492.471795 
L 294.443599 491.519732 
L 294.49407 491.426087 
L 295.089866 491.301226 
L 295.189808 491.08272 
L 295.380762 490.895429 
L 295.495833 490.801784 
L 295.640594 490.56767 
L 295.786759 490.380379 
L 296.040684 490.068227 
L 296.379138 489.912152 
L 296.649006 489.787291 
L 296.803657 489.53757 
L 297.041107 489.162988 
L 297.252139 488.850836 
L 297.36706 488.757191 
L 297.588394 488.554292 
L 297.782926 488.398216 
L 297.962102 488.335786 
L 298.413766 488.11728 
L 298.463912 487.992419 
L 298.850875 487.805128 
L 299.407012 487.368116 
L 300.028057 487.243255 
L 300.533451 486.618952 
L 300.667343 486.291193 
L 300.770478 486.166332 
L 300.883059 486.041472 
L 300.978938 485.885396 
L 301.055846 485.760535 
L 301.816797 485.479599 
L 301.930609 485.354738 
L 302.18159 485.151839 
L 302.758621 484.012486 
L 303.312592 483.825195 
L 304.027546 482.748272 
L 304.161512 482.43612 
L 304.264506 482.295652 
L 304.349568 481.952285 
L 304.769267 481.780602 
L 304.954445 481.640134 
L 304.994069 481.484058 
L 305.164698 481.218729 
L 305.246254 481.078261 
L 305.635734 480.422742 
L 305.752549 480.094983 
L 305.865672 479.938907 
L 305.957543 479.782832 
L 306.259359 479.548718 
L 306.619907 479.392642 
L 306.895237 478.471795 
L 307.00638 478.190858 
L 307.119729 478.034783 
L 307.435157 477.285619 
L 307.514315 477.129543 
L 307.648292 476.754961 
L 307.718135 476.708138 
L 308.217924 476.56767 
L 308.328963 476.442809 
L 308.520285 476.208696 
L 308.646985 475.709253 
L 309.43167 474.288963 
L 309.831703 473.976812 
L 310.010383 473.555407 
L 310.187529 473.399331 
L 310.335206 473.27447 
L 310.413187 473.118395 
L 310.569032 472.915496 
L 312.107546 470.886511 
L 312.205774 470.777258 
L 312.303661 470.574359 
L 312.478624 470.277815 
L 312.568588 470.090524 
L 312.657116 470.012486 
L 313.200175 469.840803 
L 313.447744 469.513043 
L 313.607542 469.356968 
L 313.741541 469.091639 
L 313.955268 468.810702 
L 314.200483 468.639019 
L 314.415684 468.404905 
L 314.934575 468.248829 
L 315.137087 467.905463 
L 315.363663 467.031438 
L 315.44487 466.82854 
L 315.554255 466.750502 
L 315.849668 466.235452 
L 315.937837 466.063768 
L 316.124876 465.86087 
L 316.831525 465.330212 
L 317.031765 464.456187 
L 317.138485 463.691416 
L 317.260788 463.457302 
L 317.400078 463.191973 
L 317.481274 463.035897 
L 317.57809 462.692531 
L 317.891478 462.489632 
L 318.218728 462.255518 
L 318.324236 462.11505 
L 318.432613 461.927759 
L 319.522179 461.069342 
L 319.801286 460.928874 
L 319.890778 460.725975 
L 320.071246 460.585507 
L 320.141486 460.320178 
L 320.331759 460.148495 
L 320.432564 460.054849 
L 320.773397 459.711483 
L 320.872755 459.633445 
L 321.697193 458.899889 
L 322.537174 457.932219 
L 322.816539 457.79175 
L 323.356633 456.870903 
L 323.469541 456.636789 
L 323.579073 456.449498 
L 323.689902 456.293423 
L 323.800587 456.043701 
L 324.17288 455.528651 
L 324.712626 455.372575 
L 324.949977 455.091639 
L 325.074084 454.326867 
L 325.231653 454.045931 
L 325.757582 450.971237 
L 325.9379 450.830769 
L 326.018927 450.783946 
L 326.367775 450.643478 
L 326.459679 450.393757 
L 326.626251 450.144036 
L 326.710646 448.926644 
L 326.913724 448.786176 
L 327.041046 448.676923 
L 327.418074 448.552062 
L 328.069128 448.395987 
L 328.141164 448.286734 
L 328.269886 448.146265 
L 328.35637 447.880936 
L 328.528904 447.615608 
L 328.836867 446.491862 
L 328.917681 445.368116 
L 329.066581 445.180825 
L 329.288858 444.821851 
L 329.687166 444.681382 
L 329.74111 444.525307 
L 329.855571 444.291193 
L 329.976293 444.150725 
L 330.080177 443.776143 
L 330.199169 443.573244 
L 330.311576 442.980156 
L 330.993957 441.950056 
L 331.283379 441.79398 
L 331.389238 441.622297 
L 332.25482 440.779487 
L 332.376493 440.607804 
L 332.464656 440.576589 
L 332.986691 440.43612 
L 333.14455 440.280045 
L 333.383972 440.139576 
L 333.579425 439.983501 
L 333.724919 439.79621 
L 333.819174 439.437235 
L 334.876155 439.140691 
L 335.520394 438.656856 
L 336.514261 438.469565 
L 336.824644 437.970123 
L 336.996204 437.845262 
L 337.029 437.657971 
L 337.291707 437.53311 
L 337.313098 437.47068 
L 337.869281 437.314604 
L 337.990698 437.111706 
L 338.084891 437.01806 
L 338.26811 436.8932 
L 338.425143 436.56544 
L 339.195366 435.878707 
L 339.571945 435.753846 
L 339.677224 435.59777 
L 339.857048 435.441695 
L 340.381552 434.801784 
L 340.54592 434.645708 
L 340.683205 434.56767 
L 341.477048 434.364771 
L 341.736725 434.068227 
L 341.748462 433.584392 
L 341.798475 433.428317 
L 341.955764 433.303456 
L 342.072677 433.162988 
L 342.784234 432.882051 
L 342.831779 432.445039 
L 343.121173 432.273356 
L 343.241399 432.195318 
L 344.384987 431.649052 
L 344.584055 431.524192 
L 344.692925 431.399331 
L 344.784434 431.243255 
L 344.83737 431.14961 
L 345.236994 430.962319 
L 345.37441 430.743813 
L 345.506968 430.618952 
L 345.613037 430.384838 
L 345.816323 430.228763 
L 346.272717 430.088294 
L 346.385284 429.947826 
L 346.671515 429.588852 
L 347.173345 429.136232 
L 347.429557 429.011371 
L 347.501862 428.964548 
L 347.912546 428.808473 
L 348.491904 428.465106 
L 348.723316 428.184169 
L 349.092763 427.950056 
L 349.267081 427.872018 
L 349.557794 427.497436 
L 349.670492 427.122854 
L 349.816637 426.857525 
L 349.930006 426.576589 
L 350.27962 425.811817 
L 350.400118 425.655741 
L 350.454259 425.359197 
L 350.55547 424.672464 
L 350.930848 424.50078 
L 351.034217 424.329097 
L 351.073626 424.157414 
L 351.193566 422.924415 
L 351.618946 422.003567 
L 351.690589 421.847492 
L 351.903744 420.864214 
L 352.103986 420.364771 
L 352.222561 419.584392 
L 352.724089 419.412709 
L 352.767552 419.272241 
L 352.956942 417.352508 
L 353.003498 416.946711 
L 353.148545 416.63456 
L 353.226139 416.494091 
L 353.353032 416.166332 
L 353.518909 416.025864 
L 353.888843 415.417168 
L 354.368803 415.151839 
L 354.479978 414.683612 
L 354.623984 414.527536 
L 355.154935 414.012486 
L 355.265178 413.887625 
L 355.449928 413.747157 
L 356.082875 413.513043 
L 356.138121 413.435006 
L 356.292915 413.310145 
L 356.41568 413.185284 
L 356.675717 412.88874 
L 356.771307 412.795095 
L 357.080311 412.623411 
L 357.120867 412.592196 
L 357.684859 412.451728 
L 357.845044 412.280045 
L 358.442341 411.671349 
L 358.720562 411.546488 
L 359.351898 411.359197 
L 360.611963 410.329097 
L 361.211609 410.173021 
L 361.306398 410.063768 
L 361.612252 409.876477 
L 361.774565 409.642363 
L 361.97778 409.517503 
L 362.028401 409.096098 
L 362.64174 408.908807 
L 362.780099 408.50301 
L 362.893971 407.909922 
L 363.161596 407.613378 
L 363.272796 407.410479 
L 363.42375 407.254404 
L 363.584952 407.02029 
L 363.664889 406.754961 
L 364.488296 406.427202 
L 364.678109 406.286734 
L 364.918946 406.11505 
L 365.05322 405.740468 
L 365.201785 405.553177 
L 365.312731 404.850836 
L 365.990432 404.601115 
L 366.086995 404.491862 
L 366.279608 404.335786 
L 366.818607 403.524192 
L 366.932989 403.368116 
L 366.994137 403.243255 
L 367.623193 403.024749 
L 367.745116 402.75942 
L 367.864027 402.603344 
L 367.962641 402.509699 
L 368.180289 402.338016 
L 368.304348 402.259978 
L 368.401726 402.119509 
L 368.515969 400.465106 
L 369.156748 399.575474 
L 369.251276 399.419398 
L 369.397263 399.154069 
L 369.499725 399.013601 
L 369.60981 398.732664 
L 369.7739 398.43612 
L 369.829822 398.264437 
L 369.940368 398.139576 
L 370.068749 397.889855 
L 370.235937 397.686957 
L 370.307079 397.46845 
L 370.991011 397.140691 
L 371.233479 396.016945 
L 371.366983 395.876477 
L 371.598841 394.175251 
L 371.725762 391.194203 
L 371.8303 391.038127 
L 372.028 390.538685 
L 372.135816 390.398216 
L 373.089465 388.790635 
L 373.188529 388.587737 
L 373.342007 388.291193 
L 373.450675 388.119509 
L 373.480659 387.979041 
L 373.747102 387.385953 
L 374.001583 386.964548 
L 374.231252 386.090524 
L 374.338947 385.34136 
L 374.455438 385.169677 
L 374.550592 384.935563 
L 374.678033 384.717057 
L 374.77522 384.404905 
L 374.794557 384.248829 
L 374.886698 384.139576 
L 374.937675 383.983501 
L 375.036982 383.031438 
L 375.109018 382.906577 
L 375.252185 382.344705 
L 375.660046 382.251059 
L 375.819133 382.094983 
L 376.005003 381.361427 
L 376.069852 381.236566 
L 376.22501 380.737124 
L 376.334523 380.581048 
L 376.445238 380.159643 
L 376.537959 380.019175 
L 376.648924 379.660201 
L 376.723273 379.504125 
L 376.831661 379.129543 
L 377.048167 378.520847 
L 377.0997 378.380379 
L 377.208221 378.333556 
L 377.490859 378.068227 
L 377.601576 377.787291 
L 377.743106 377.615608 
L 377.827653 377.397101 
L 377.918274 377.256633 
L 378.041454 376.913266 
L 378.23516 376.710368 
L 378.277931 376.63233 
L 378.390294 376.507469 
L 378.504234 376.132887 
L 378.7305 376.070457 
L 379.300902 375.883166 
L 379.352637 375.836343 
L 379.621575 375.711483 
L 379.732789 375.586622 
L 379.870365 375.461761 
L 380.505194 375.102787 
L 380.748864 374.977926 
L 380.856726 374.790635 
L 381.068278 374.63456 
L 381.180083 374.478484 
L 381.788758 373.807358 
L 382.408128 373.66689 
L 382.929171 372.652397 
L 383.11797 372.402676 
L 383.233464 372.230992 
L 383.461162 372.012486 
L 383.494806 371.965663 
L 384.043363 371.825195 
L 384.188279 371.591081 
L 384.402278 371.450613 
L 384.561382 371.169677 
L 384.685069 371.029208 
L 384.843461 370.904348 
L 384.943231 370.779487 
L 385.490924 370.467336 
L 385.6963 370.342475 
L 385.883911 369.983501 
L 386.11356 369.79621 
L 386.982984 368.688071 
L 387.33724 368.531996 
L 387.447034 368.235452 
L 387.760165 367.954515 
L 387.868923 367.829654 
L 388.085958 367.314604 
L 388.197296 367.033668 
L 388.59203 366.737124 
L 389.027254 366.534225 
L 389.385733 365.98796 
L 390.232325 365.223188 
L 390.68243 365.051505 
L 390.74026 364.95786 
L 390.910889 364.832999 
L 391.025151 364.661315 
L 391.260941 364.458417 
L 391.53553 364.005797 
L 391.696473 363.631215 
L 391.964962 363.381494 
L 392.286638 363.225418 
L 393.234244 362.195318 
L 393.938278 361.009142 
L 394.045385 360.853066 
L 394.403415 360.150725 
L 394.735798 359.573244 
L 394.840227 359.136232 
L 395.830809 358.480713 
L 396.778123 357.388183 
L 397.1651 357.216499 
L 397.26669 357.044816 
L 397.559484 356.639019 
L 397.67233 356.467336 
L 398.470722 355.593311 
L 398.555512 354.969008 
L 398.916962 354.734894 
L 399.066445 354.547603 
L 399.176552 354.407135 
L 399.295876 354.094983 
L 399.442937 353.907692 
L 399.538424 353.579933 
L 399.717139 353.439465 
L 400.224786 353.096098 
L 400.589039 352.95563 
L 401.023162 352.581048 
L 401.115085 352.44058 
L 401.256926 352.300111 
L 401.379896 352.05039 
L 401.739261 351.769454 
L 402.150426 351.628986 
L 402.210085 351.457302 
L 402.514781 351.316834 
L 402.814174 350.95786 
L 402.993857 350.739353 
L 403.227934 350.489632 
L 403.835794 350.286734 
L 403.929663 350.11505 
L 404.109054 349.943367 
L 404.240105 349.724861 
L 404.442797 349.443924 
L 404.703779 348.928874 
L 404.819354 348.63233 
L 405.037797 348.538685 
L 405.403495 348.304571 
L 405.526364 348.164103 
L 405.876528 347.789521 
L 405.995847 347.571014 
L 406.238239 347.21204 
L 406.355564 347.087179 
L 406.534914 346.853066 
L 407.101034 346.618952 
L 407.122046 346.447269 
L 407.232191 345.245485 
L 407.2679 344.917726 
L 407.366081 344.76165 
L 407.618345 344.355853 
L 407.753581 344.184169 
L 408.229562 343.622297 
L 408.798368 343.450613 
L 408.904372 342.857525 
L 409.118703 342.576589 
L 409.848005 341.749387 
L 410.261244 341.562096 
L 410.406164 341.374805 
L 410.518864 341.281159 
L 411.354707 340.110591 
L 411.567657 339.954515 
L 412.001938 339.53311 
L 412.405186 338.940022 
L 412.515871 338.424972 
L 412.691175 338.065998 
L 412.927265 337.785061 
L 413.665624 337.582163 
L 413.755135 337.426087 
L 414.163012 337.051505 
L 414.320263 336.926644 
L 414.674316 336.520847 
L 414.733652 336.442809 
L 415.42342 336.208696 
L 415.603879 336.05262 
L 415.831357 335.880936 
L 416.394229 335.53757 
L 417.098315 335.131773 
L 417.133073 335.053735 
L 417.376092 334.928874 
L 417.388137 334.647938 
L 417.492738 334.304571 
L 418.74653 332.353623 
L 418.875287 332.072687 
L 418.982525 331.822965 
L 419.059293 331.79175 
L 419.227386 331.604459 
L 419.337106 331.417168 
L 419.443665 331.261093 
L 419.695752 330.917726 
L 419.754126 330.69922 
L 420.46273 330.480713 
L 420.736065 330.012486 
L 420.800827 329.887625 
L 420.914356 329.325753 
L 421.129941 328.935563 
L 422.201759 328.248829 
L 422.272855 327.593311 
L 422.385632 327.187514 
L 422.460153 327.047046 
L 423.553376 325.142921 
L 423.62509 324.986845 
L 423.784861 324.643478 
L 424.251492 324.097213 
L 424.335704 323.613378 
L 424.665668 323.332441 
L 424.82891 323.035897 
L 425.017467 322.895429 
L 425.137966 322.6301 
L 426.323632 320.257748 
L 426.802807 320.023634 
L 426.90617 319.883166 
L 426.921363 319.66466 
L 427.035129 318.494091 
L 427.291885 317.947826 
L 427.409479 317.79175 
L 427.932787 317.120624 
L 428.044115 317.011371 
L 428.216662 316.76165 
L 428.317611 315.950056 
L 428.571553 315.700334 
L 428.782517 315.435006 
L 429.478587 314.467336 
L 429.58307 314.280045 
L 429.767423 314.202007 
L 430.160105 314.077146 
L 430.304585 313.780602 
L 430.539989 313.499666 
L 431.343678 312.407135 
L 431.64762 312.266667 
L 431.731339 312.141806 
L 431.842394 311.033668 
L 433.037496 302.76165 
L 433.097325 302.574359 
L 433.336652 302.2466 
L 433.446345 302.012486 
L 433.496206 301.73155 
L 433.605896 300.935563 
L 433.695642 300.592196 
L 433.805343 300.155184 
L 433.994818 299.515273 
L 434.104437 299.047046 
L 434.214206 298.672464 
L 434.323896 297.829654 
L 434.393662 297.47068 
L 434.503393 296.534225 
L 434.543249 296.268896 
L 434.652942 295.145151 
L 434.722746 294.832999 
L 434.832436 293.615608 
L 434.952096 292.757191 
L 435.061794 291.492977 
L 435.091708 291.243255 
L 435.202578 289.901003 
L 435.241289 289.588852 
L 435.350993 288.293423 
L 435.380906 288.043701 
L 435.490593 286.810702 
L 435.52051 286.560981 
L 435.631347 285.234337 
L 435.709976 284.875362 
L 435.819672 284.219844 
L 436.078864 283.40825 
L 436.365768 283.049275 
L 436.450052 282.971237 
L 436.69679 282.815162 
L 437.097752 282.534225 
L 437.251627 282.409365 
L 437.570128 282.144036 
L 437.694215 281.894314 
L 437.773989 281.566555 
L 437.883693 280.926644 
L 437.953484 280.614493 
L 438.063179 280.193088 
L 438.11304 279.912152 
L 438.222735 279.553177 
L 438.292537 279.241026 
L 438.402233 278.741583 
L 438.46206 278.445039 
L 438.602126 277.368116 
L 438.711282 275.947826 
L 438.881671 275.479599 
L 439.219804 275.151839 
L 439.325802 275.058194 
L 439.411676 274.870903 
L 439.690186 274.683612 
L 440.027558 274.465106 
L 440.132382 274.2466 
L 440.239476 274.028094 
L 440.424572 273.73155 
L 440.532679 273.559866 
L 440.745589 273.232107 
L 440.903019 273.013601 
L 441.118413 272.795095 
L 441.214241 272.717057 
L 441.709093 272.498551 
L 441.819014 272.280045 
L 443.039128 270.812932 
L 443.356769 270.578818 
L 443.491811 270.188629 
L 443.695868 270.016945 
L 443.742524 269.970123 
L 443.93856 269.845262 
L 444.05358 269.720401 
L 444.290484 269.517503 
L 444.362771 269.455072 
L 444.714445 269.205351 
L 445.254686 268.456187 
L 445.427367 268.315719 
L 445.954118 267.707023 
L 446.081137 267.363657 
L 446.224964 267.223188 
L 446.353761 266.895429 
L 446.611643 266.645708 
L 446.75869 266.395987 
L 446.937703 266.161873 
L 447.072596 265.958974 
L 447.908245 264.835229 
L 448.251954 264.679153 
L 448.468002 264.398216 
L 448.661801 264.210925 
L 448.823823 263.992419 
L 449.531859 263.118395 
L 450.024197 262.837458 
L 450.243582 262.728205 
L 450.608301 262.431661 
L 451.180971 261.838573 
L 451.569874 261.698105 
L 452.39757 260.589967 
L 452.50726 260.433891 
L 452.746535 260.121739 
L 453.085586 259.918841 
L 453.685624 258.982386 
L 453.95305 258.810702 
L 454.052773 258.498551 
L 454.352919 258.264437 
L 454.423885 258.217614 
L 454.783555 258.077146 
L 454.995462 257.811817 
L 455.346563 257.593311 
L 455.58944 257.296767 
L 455.738482 257.078261 
L 455.85785 256.875362 
L 455.931597 256.688071 
L 456.166666 256.547603 
L 457.53696 255.486288 
L 457.627477 255.158528 
L 458.193376 254.690301 
L 458.32441 254.175251 
L 458.415709 253.98796 
L 458.608086 253.550948 
L 459.2579 252.692531 
L 459.830809 252.474025 
L 460.044375 252.146265 
L 460.278433 251.974582 
L 460.344856 251.849721 
L 460.514384 251.724861 
L 460.619004 251.568785 
L 460.843468 251.319064 
L 460.94311 251.162988 
L 461.812585 250.928874 
L 462.002482 250.663545 
L 462.099803 250.538685 
L 462.204973 250.273356 
L 462.289267 250.101672 
L 462.372419 249.836343 
L 462.508988 249.66466 
L 462.638292 249.586622 
L 463.041308 249.352508 
L 463.552127 248.868673 
L 463.734923 248.540914 
L 464.680252 247.744928 
L 464.783133 247.651282 
L 464.908503 247.526421 
L 465.011742 247.417168 
L 465.267048 247.198662 
L 465.41448 247.058194 
L 465.529897 246.870903 
L 465.622575 246.82408 
L 465.727069 246.683612 
L 465.83895 246.480713 
L 466.614747 245.887625 
L 466.745608 245.715942 
L 467.442601 245.029208 
L 467.480874 244.935563 
L 467.933077 244.76388 
L 468.275441 244.389298 
L 468.809786 244.061538 
L 469.23937 243.593311 
L 469.599125 243.437235 
L 470.15654 242.9534 
L 470.507333 242.703679 
L 470.824936 242.344705 
L 471.024372 242.188629 
L 471.360777 241.892085 
L 471.47305 241.798439 
L 471.89877 241.298997 
L 472.113843 241.142921 
L 472.200194 241.01806 
L 472.450316 240.768339 
L 472.557303 240.627871 
L 472.909026 240.456187 
L 473.121012 240.237681 
L 473.210913 240.112821 
L 473.372245 239.956745 
L 474.017605 239.08272 
L 474.149983 238.832999 
L 474.514187 238.583278 
L 474.57402 238.442809 
L 474.683715 237.896544 
L 474.915051 237.631215 
L 475.136627 237.443924 
L 475.25178 237.272241 
L 475.516939 236.913266 
L 475.631106 236.788406 
L 476.585553 236.023634 
L 476.860715 235.805128 
L 477.446026 235.336901 
L 477.555714 235.27447 
L 478.728163 234.228763 
L 478.914216 233.947826 
L 479.715112 233.370346 
L 479.898615 233.21427 
L 480.121485 232.948941 
L 480.362368 232.730435 
L 480.577136 232.433891 
L 481.390595 231.669119 
L 481.44327 231.637904 
L 481.736087 231.466221 
L 481.933158 231.263322 
L 482.03571 231.122854 
L 483.378959 229.983501 
L 484.456995 229.093868 
L 484.756092 228.859755 
L 484.9147 228.641249 
L 485.101183 228.453958 
L 485.185243 228.329097 
L 485.304368 228.188629 
L 485.397079 228.126198 
L 486.26348 227.689186 
L 486.415813 227.579933 
L 486.620148 227.439465 
L 486.76009 227.298997 
L 486.887095 227.189744 
L 487.175413 227.033668 
L 487.284027 226.940022 
L 487.825159 226.752731 
L 488.249248 226.471795 
L 488.420781 226.315719 
L 488.729918 226.003567 
L 489.568646 225.504125 
L 489.85861 225.176366 
L 490.155249 224.989075 
L 490.497081 224.536455 
L 490.823901 224.380379 
L 491.336166 223.849721 
L 491.468116 223.6 
L 491.631669 223.428317 
L 491.762906 223.131773 
L 491.921849 222.960089 
L 492.167753 222.5699 
L 492.200059 222.320178 
L 492.618878 222.148495 
L 492.768459 221.992419 
L 492.873749 221.773913 
L 493.097695 221.586622 
L 493.170851 221.508584 
L 493.446563 221.305686 
L 493.546289 221.118395 
L 493.665877 220.884281 
L 493.775633 220.75942 
L 494.014873 220.509699 
L 494.104622 220.384838 
L 494.294173 220.150725 
L 494.548175 220.010256 
L 494.945957 219.713712 
L 495.467077 219.261093 
L 495.580502 219.136232 
L 495.700165 218.948941 
L 495.800188 218.792865 
L 497.176013 217.559866 
L 497.265669 217.466221 
L 497.686297 217.310145 
L 497.799469 217.216499 
L 498.469821 216.873133 
L 498.849951 216.404905 
L 498.944732 216.264437 
L 499.020612 216.170792 
L 499.37294 216.030323 
L 500.031574 215.608919 
L 500.608235 214.937793 
L 500.972761 214.766109 
L 501.207456 214.563211 
L 501.758729 214.188629 
L 502.012175 213.9233 
L 502.448282 213.657971 
L 502.817314 213.345819 
L 502.911093 213.205351 
L 503.407841 212.986845 
L 503.687059 212.705909 
L 504.085939 212.518618 
L 505.062764 211.613378 
L 505.169476 211.504125 
L 505.372127 211.285619 
L 505.554537 211.191973 
L 505.920349 211.02029 
L 506.030045 210.973467 
L 506.488757 210.786176 
L 506.870418 210.536455 
L 507.027263 210.364771 
L 507.107031 210.11505 
L 507.44609 209.912152 
L 508.411575 209.287848 
L 508.521442 209.053735 
L 508.622803 208.913266 
L 509.275814 208.460647 
L 509.376532 208.039242 
L 513.247195 205.167447 
L 513.329092 205.042586 
L 513.426437 204.902118 
L 513.605449 204.668004 
L 513.766313 204.543144 
L 514.474442 203.887625 
L 514.805746 203.559866 
L 515.009539 203.419398 
L 515.244185 203.185284 
L 515.472837 202.982386 
L 515.762033 202.82631 
L 516.162396 202.389298 
L 516.654406 202.014716 
L 516.819327 201.874247 
L 517.311841 201.593311 
L 517.40499 201.452843 
L 517.750479 201.265552 
L 518.210352 200.89097 
L 518.317244 200.781717 
L 518.459649 200.641249 
L 518.758803 200.422742 
L 519.14773 200.297882 
L 519.233291 200.173021 
L 519.54661 199.907692 
L 520.653383 198.8932 
L 520.95218 198.721516 
L 521.929588 197.707023 
L 522.737271 197.238796 
L 522.847476 197.004682 
L 522.96694 196.817391 
L 523.314723 196.083835 
L 523.42617 195.912152 
L 523.584813 195.787291 
L 524.237453 195.381494 
L 524.377868 195.225418 
L 525.048981 194.663545 
L 526.231421 193.836343 
L 526.29457 193.758305 
L 526.536267 193.571014 
L 526.627465 193.321293 
L 526.789176 193.14961 
L 526.865139 193.102787 
L 527.371965 192.884281 
L 527.465558 192.75942 
L 528.176788 192.24437 
L 528.44595 191.901003 
L 528.538938 191.854181 
L 529.152686 191.604459 
L 529.833341 190.917726 
L 529.908017 190.730435 
L 530.385279 190.465106 
L 530.491369 190.293423 
L 530.854034 190.043701 
L 531.603417 189.356968 
L 531.69725 189.185284 
L 532.582151 188.592196 
L 532.693986 188.498551 
L 532.808057 188.358082 
L 533.049823 188.092754 
L 533.125234 187.952285 
L 533.354374 187.530881 
L 534.362352 186.89097 
L 534.466803 186.82854 
L 534.764025 186.531996 
L 534.910522 186.360312 
L 535.596854 185.970123 
L 535.713994 185.876477 
L 535.818946 185.751616 
L 536.413843 185.189744 
L 536.535137 184.877592 
L 537.052366 184.487402 
L 537.287165 184.331327 
L 537.402745 184.222074 
L 537.462575 184.065998 
L 537.542567 183.956745 
L 537.8092 183.738239 
L 537.893739 183.488517 
L 537.991106 183.08272 
L 538.558912 182.614493 
L 538.607397 182.552062 
L 538.904189 182.427202 
L 539.377078 182.021405 
L 539.585475 181.834114 
L 539.686027 181.66243 
L 539.827393 181.475139 
L 539.955106 181.287848 
L 540.534868 180.944482 
L 540.634306 180.757191 
L 540.942688 180.523077 
L 541.291019 180.273356 
L 541.397317 180.148495 
L 541.789061 179.961204 
L 542.268124 179.66466 
L 542.409172 179.571014 
L 544.658112 177.370346 
L 544.941136 177.167447 
L 545.149179 177.042586 
L 545.801405 176.714827 
L 546.306708 176.043701 
L 547.19652 175.513043 
L 547.303965 175.40379 
L 547.411225 175.356968 
L 548.169171 175.107246 
L 549.637826 174.077146 
L 550.225854 173.249944 
L 550.518611 173.093868 
L 550.637576 172.969008 
L 550.73155 172.844147 
L 550.869413 172.750502 
L 551.204692 172.531996 
L 551.751407 172.173021 
L 552.192587 172.048161 
L 552.427977 171.876477 
L 552.634963 171.673579 
L 553.486579 170.737124 
L 553.855488 170.549833 
L 554.014763 170.346934 
L 555.182019 169.504125 
L 555.470796 169.348049 
L 555.90951 168.942252 
L 556.297396 168.50524 
L 556.388371 168.349164 
L 556.486748 168.208696 
L 556.806844 168.099443 
L 557.181331 167.834114 
L 557.299347 167.678038 
L 557.825475 167.069342 
L 557.913559 166.913266 
L 558.172828 166.741583 
L 558.462015 166.445039 
L 558.730711 166.257748 
L 558.837823 166.086065 
L 559.259173 165.758305 
L 560.196889 164.915496 
L 560.658746 164.743813 
L 560.885981 164.462876 
L 561.105032 164.275585 
L 561.281611 164.166332 
L 561.864119 163.698105 
L 562.141057 163.463991 
L 562.462316 163.198662 
L 563.30494 162.652397 
L 563.67774 162.465106 
L 563.916525 162.137347 
L 564.342908 161.73155 
L 564.534344 161.481828 
L 564.638814 161.247715 
L 565.610326 160.810702 
L 565.733704 160.670234 
L 566.500598 159.593311 
L 567.653302 158.875362 
L 567.743811 158.672464 
L 568.115916 158.485173 
L 568.335296 158.407135 
L 568.820476 158.235452 
L 569.288027 157.9233 
L 569.531831 157.704794 
L 570.783803 156.940022 
L 570.845164 156.861984 
L 571.002505 156.721516 
L 571.112803 156.487402 
L 571.256869 156.362542 
L 572.63294 155.426087 
L 572.982047 155.129543 
L 573.091661 154.895429 
L 573.371527 154.536455 
L 573.450644 154.489632 
L 573.586442 154.333556 
L 574.072504 153.865329 
L 574.247558 153.724861 
L 574.365274 153.53757 
L 574.487738 153.381494 
L 574.595474 153.241026 
L 575.376198 152.679153 
L 575.524874 152.601115 
L 575.685253 152.460647 
L 575.793567 152.273356 
L 575.994867 152.101672 
L 576.194153 151.851951 
L 576.361924 151.711483 
L 576.469633 151.633445 
L 576.690994 151.477369 
L 576.820634 151.305686 
L 577.039921 151.102787 
L 578.176752 150.150725 
L 578.472405 150.010256 
L 578.821697 149.72932 
L 578.927957 149.651282 
L 579.532706 148.980156 
L 580.199176 148.69922 
L 580.483165 148.418283 
L 580.573644 148.277815 
L 581.994926 146.389298 
L 582.07506 146.264437 
L 582.181682 146.170792 
L 582.361471 145.967893 
L 582.506717 145.702564 
L 582.802953 145.281159 
L 583.314422 144.906577 
L 583.554191 144.750502 
L 584.665819 144.079376 
L 584.856915 143.98573 
L 585.584089 143.486288 
L 585.936043 142.95563 
L 586.452368 142.783946 
L 586.533738 142.752731 
L 586.771289 142.596656 
L 586.864367 142.50301 
L 587.127633 142.300111 
L 587.255479 142.175251 
L 587.451226 142.019175 
L 587.529202 141.92553 
L 587.64714 141.785061 
L 587.701092 141.738239 
L 588.04763 141.582163 
L 588.406693 141.160758 
L 588.596015 141.051505 
L 588.67143 140.911037 
L 589.493224 140.130658 
L 589.958176 139.943367 
L 590.112673 139.771683 
L 590.370704 139.53757 
L 590.988886 138.913266 
L 591.088623 138.741583 
L 591.344447 138.601115 
L 593.960651 136.962319 
L 594.170084 136.806243 
L 594.249863 136.540914 
L 594.439357 136.166332 
L 594.608872 136.010256 
L 594.860154 135.760535 
L 595.089722 135.588852 
L 595.197162 135.370346 
L 595.74298 134.855295 
L 595.808916 134.714827 
L 595.93194 134.589967 
L 596.064604 134.433891 
L 596.65924 134.106132 
L 596.689442 134.043701 
L 596.938433 133.903233 
L 597.096267 133.637904 
L 597.261191 133.40379 
L 597.520459 133.060424 
L 597.662913 132.997993 
L 598.088516 132.76388 
L 598.407625 132.420513 
L 598.609105 132.264437 
L 598.692028 132.170792 
L 598.873185 132.014716 
L 598.959942 131.936678 
L 599.444468 131.562096 
L 599.515436 131.484058 
L 599.992877 131.312375 
L 600.092584 131.249944 
L 600.440572 131.000223 
L 600.561239 130.922185 
L 600.880397 130.656856 
L 601.438719 130.469565 
L 601.67791 130.282274 
L 602.235194 129.829654 
L 602.347404 129.689186 
L 602.5153 129.314604 
L 603.013939 129.002453 
L 605.656177 126.801784 
L 605.780967 126.676923 
L 606.32168 126.239911 
L 606.433849 125.958974 
L 606.547727 125.802899 
L 606.635078 125.724861 
L 606.810222 125.568785 
L 607.345101 125.178595 
L 607.520593 125.006912 
L 607.670174 124.741583 
L 607.766258 124.63233 
L 608.607577 123.945596 
L 608.999373 123.461761 
L 609.114335 123.383724 
L 609.574707 123.118395 
L 609.684427 122.993534 
L 609.91379 122.806243 
L 610.23288 122.478484 
L 610.40604 122.322408 
L 610.545268 122.135117 
L 610.920864 121.869788 
L 611.349579 121.588852 
L 611.403188 121.526421 
L 611.636853 121.354738 
L 612.06338 120.948941 
L 612.169828 120.792865 
L 612.280521 120.340245 
L 612.655719 119.981271 
L 612.815275 119.934448 
L 612.990816 119.762765 
L 613.131643 119.544259 
L 613.407889 119.325753 
L 613.5118 119.200892 
L 613.739253 119.044816 
L 613.894316 118.88874 
L 614.131251 118.592196 
L 614.350637 118.43612 
L 614.699665 118.264437 
L 615.275002 117.843032 
L 615.527892 117.40602 
L 615.587452 117.187514 
L 615.736099 117.031438 
L 616.094428 116.82854 
L 616.28498 116.688071 
L 616.541382 116.485173 
L 616.693832 116.360312 
L 616.753588 116.251059 
L 616.968811 116.094983 
L 617.199536 115.814047 
L 617.451759 115.626756 
L 617.871858 115.423857 
L 617.984968 114.721516 
L 618.33968 114.534225 
L 618.678041 114.378149 
L 618.813756 114.175251 
L 618.87354 114.112821 
L 620.054024 113.722631 
L 620.123722 113.644593 
L 620.353031 113.457302 
L 620.497318 113.270011 
L 620.706282 113.129543 
L 620.811577 113.02029 
L 621.700659 112.411594 
L 621.798737 112.239911 
L 622.047992 112.05262 
L 622.37709 111.740468 
L 622.636364 111.6 
L 622.636364 111.6 
" style="fill:none;stroke:#92c6ff;stroke-linecap:round;stroke-width:1.5;"/>
   </g>
   <g id="line2d_28">
    <defs>
     <path d="M 0 2.5 
C 0.663008 2.5 1.29895 2.236584 1.767767 1.767767 
C 2.236584 1.29895 2.5 0.663008 2.5 0 
C 2.5 -0.663008 2.236584 -1.29895 1.767767 -1.767767 
C 1.29895 -2.236584 0.663008 -2.5 0 -2.5 
C -0.663008 -2.5 -1.29895 -2.236584 -1.767767 -1.767767 
C -2.236584 -1.29895 -2.5 -0.663008 -2.5 0 
C -2.5 0.663008 -2.236584 1.29895 -1.767767 1.767767 
C -1.29895 2.236584 -0.663008 2.5 0 2.5 
z
" id="m966e66a1a6" style="stroke:#696969;"/>
    </defs>
    <g clip-path="url(#p382df9ebd5)">
     <use style="fill:#696969;stroke:#696969;" x="115.363636" xlink:href="#m966e66a1a6" y="615.6"/>
    </g>
   </g>
   <g id="line2d_29">
    <g clip-path="url(#p382df9ebd5)">
     <use style="fill:#696969;stroke:#696969;" x="219.577175" xlink:href="#m966e66a1a6" y="565.187514"/>
    </g>
   </g>
   <g id="line2d_30">
    <g clip-path="url(#p382df9ebd5)">
     <use style="fill:#696969;stroke:#696969;" x="277.181129" xlink:href="#m966e66a1a6" y="514.775028"/>
    </g>
   </g>
   <g id="line2d_31">
    <g clip-path="url(#p382df9ebd5)">
     <use style="fill:#696969;stroke:#696969;" x="317.031768" xlink:href="#m966e66a1a6" y="464.362542"/>
    </g>
   </g>
   <g id="line2d_32">
    <g clip-path="url(#p382df9ebd5)">
     <use style="fill:#696969;stroke:#696969;" x="355.171089" xlink:href="#m966e66a1a6" y="413.965663"/>
    </g>
   </g>
   <g id="line2d_33">
    <g clip-path="url(#p382df9ebd5)">
     <use style="fill:#696969;stroke:#696969;" x="391.72637" xlink:href="#m966e66a1a6" y="363.568785"/>
    </g>
   </g>
   <g id="line2d_34">
    <g clip-path="url(#p382df9ebd5)">
     <use style="fill:#696969;stroke:#696969;" x="430.708574" xlink:href="#m966e66a1a6" y="313.171906"/>
    </g>
   </g>
   <g id="line2d_35">
    <g clip-path="url(#p382df9ebd5)">
     <use style="fill:#696969;stroke:#696969;" x="450.177478" xlink:href="#m966e66a1a6" y="262.775028"/>
    </g>
   </g>
   <g id="line2d_36">
    <g clip-path="url(#p382df9ebd5)">
     <use style="fill:#696969;stroke:#696969;" x="504.300353" xlink:href="#m966e66a1a6" y="212.378149"/>
    </g>
   </g>
   <g id="line2d_37">
    <g clip-path="url(#p382df9ebd5)">
     <use style="fill:#696969;stroke:#696969;" x="564.107338" xlink:href="#m966e66a1a6" y="161.981271"/>
    </g>
   </g>
   <g id="line2d_38">
    <g clip-path="url(#p382df9ebd5)">
     <use style="fill:#696969;stroke:#696969;" x="622.636364" xlink:href="#m966e66a1a6" y="111.6"/>
    </g>
   </g>
   <g id="patch_3">
    <path d="M 90 640.8 
L 90 86.4 
" style="fill:none;stroke:#cccccc;stroke-linecap:square;stroke-linejoin:miter;"/>
   </g>
   <g id="patch_4">
    <path d="M 648 640.8 
L 648 86.4 
" style="fill:none;stroke:#cccccc;stroke-linecap:square;stroke-linejoin:miter;"/>
   </g>
   <g id="patch_5">
    <path d="M 90 640.8 
L 648 640.8 
" style="fill:none;stroke:#cccccc;stroke-linecap:square;stroke-linejoin:miter;"/>
   </g>
   <g id="patch_6">
    <path d="M 90 86.4 
L 648 86.4 
" style="fill:none;stroke:#cccccc;stroke-linecap:square;stroke-linejoin:miter;"/>
   </g>
   <g id="text_14">
    <!-- 1 (2014-06-09) -->
    <defs>
     <path id="DejaVuSans-32"/>
     <path d="M 31 75.875 
Q 24.46875 64.65625 21.28125 53.65625 
Q 18.109375 42.671875 18.109375 31.390625 
Q 18.109375 20.125 21.3125 9.0625 
Q 24.515625 -2 31 -13.1875 
L 23.1875 -13.1875 
Q 15.875 -1.703125 12.234375 9.375 
Q 8.59375 20.453125 8.59375 31.390625 
Q 8.59375 42.28125 12.203125 53.3125 
Q 15.828125 64.359375 23.1875 75.875 
z
" id="DejaVuSans-40"/>
     <path d="M 37.796875 64.3125 
L 12.890625 25.390625 
L 37.796875 25.390625 
z
M 35.203125 72.90625 
L 47.609375 72.90625 
L 47.609375 25.390625 
L 58.015625 25.390625 
L 58.015625 17.1875 
L 47.609375 17.1875 
L 47.609375 0 
L 37.796875 0 
L 37.796875 17.1875 
L 4.890625 17.1875 
L 4.890625 26.703125 
z
" id="DejaVuSans-52"/>
     <path d="M 4.890625 31.390625 
L 31.203125 31.390625 
L 31.203125 23.390625 
L 4.890625 23.390625 
z
" id="DejaVuSans-45"/>
     <path d="M 8.015625 75.875 
L 15.828125 75.875 
Q 23.140625 64.359375 26.78125 53.3125 
Q 30.421875 42.28125 30.421875 31.390625 
Q 30.421875 20.453125 26.78125 9.375 
Q 23.140625 -1.703125 15.828125 -13.1875 
L 8.015625 -13.1875 
Q 14.5 -2 17.703125 9.0625 
Q 20.90625 20.125 20.90625 31.390625 
Q 20.90625 42.671875 17.703125 53.65625 
Q 14.5 64.65625 8.015625 75.875 
z
" id="DejaVuSans-41"/>
    </defs>
    <g style="fill:#262626;" transform="translate(120.363636 623.198437)scale(0.1 -0.1)">
     <use xlink:href="#DejaVuSans-49"/>
     <use x="63.623047" xlink:href="#DejaVuSans-32"/>
     <use x="95.410156" xlink:href="#DejaVuSans-40"/>
     <use x="134.423828" xlink:href="#DejaVuSans-50"/>
     <use x="198.046875" xlink:href="#DejaVuSans-48"/>
     <use x="261.669922" xlink:href="#DejaVuSans-49"/>
     <use x="325.292969" xlink:href="#DejaVuSans-52"/>
     <use x="388.916016" xlink:href="#DejaVuSans-45"/>
     <use x="425" xlink:href="#DejaVuSans-48"/>
     <use x="488.623047" xlink:href="#DejaVuSans-54"/>
     <use x="552.246094" xlink:href="#DejaVuSans-45"/>
     <use x="588.330078" xlink:href="#DejaVuSans-48"/>
     <use x="651.953125" xlink:href="#DejaVuSans-57"/>
     <use x="715.576172" xlink:href="#DejaVuSans-41"/>
    </g>
   </g>
   <g id="text_15">
    <!-- 3231 (2015-08-25) -->
    <g style="fill:#262626;" transform="translate(224.577175 572.785951)scale(0.1 -0.1)">
     <use xlink:href="#DejaVuSans-51"/>
     <use x="63.623047" xlink:href="#DejaVuSans-50"/>
     <use x="127.246094" xlink:href="#DejaVuSans-51"/>
     <use x="190.869141" xlink:href="#DejaVuSans-49"/>
     <use x="254.492188" xlink:href="#DejaVuSans-32"/>
     <use x="286.279297" xlink:href="#DejaVuSans-40"/>
     <use x="325.292969" xlink:href="#DejaVuSans-50"/>
     <use x="388.916016" xlink:href="#DejaVuSans-48"/>
     <use x="452.539062" xlink:href="#DejaVuSans-49"/>
     <use x="516.162109" xlink:href="#DejaVuSans-53"/>
     <use x="579.785156" xlink:href="#DejaVuSans-45"/>
     <use x="615.869141" xlink:href="#DejaVuSans-48"/>
     <use x="679.492188" xlink:href="#DejaVuSans-56"/>
     <use x="743.115234" xlink:href="#DejaVuSans-45"/>
     <use x="779.199219" xlink:href="#DejaVuSans-50"/>
     <use x="842.822266" xlink:href="#DejaVuSans-53"/>
     <use x="906.445312" xlink:href="#DejaVuSans-41"/>
    </g>
   </g>
   <g id="text_16">
    <!-- 6461 (2016-04-26) -->
    <g style="fill:#262626;" transform="translate(282.181129 522.373465)scale(0.1 -0.1)">
     <use xlink:href="#DejaVuSans-54"/>
     <use x="63.623047" xlink:href="#DejaVuSans-52"/>
     <use x="127.246094" xlink:href="#DejaVuSans-54"/>
     <use x="190.869141" xlink:href="#DejaVuSans-49"/>
     <use x="254.492188" xlink:href="#DejaVuSans-32"/>
     <use x="286.279297" xlink:href="#DejaVuSans-40"/>
     <use x="325.292969" xlink:href="#DejaVuSans-50"/>
     <use x="388.916016" xlink:href="#DejaVuSans-48"/>
     <use x="452.539062" xlink:href="#DejaVuSans-49"/>
     <use x="516.162109" xlink:href="#DejaVuSans-54"/>
     <use x="579.785156" xlink:href="#DejaVuSans-45"/>
     <use x="615.869141" xlink:href="#DejaVuSans-48"/>
     <use x="679.492188" xlink:href="#DejaVuSans-52"/>
     <use x="743.115234" xlink:href="#DejaVuSans-45"/>
     <use x="779.199219" xlink:href="#DejaVuSans-50"/>
     <use x="842.822266" xlink:href="#DejaVuSans-54"/>
     <use x="906.445312" xlink:href="#DejaVuSans-41"/>
    </g>
   </g>
   <g id="text_17">
    <!-- 9691 (2016-10-12) -->
    <g style="fill:#262626;" transform="translate(322.031768 471.960979)scale(0.1 -0.1)">
     <use xlink:href="#DejaVuSans-57"/>
     <use x="63.623047" xlink:href="#DejaVuSans-54"/>
     <use x="127.246094" xlink:href="#DejaVuSans-57"/>
     <use x="190.869141" xlink:href="#DejaVuSans-49"/>
     <use x="254.492188" xlink:href="#DejaVuSans-32"/>
     <use x="286.279297" xlink:href="#DejaVuSans-40"/>
     <use x="325.292969" xlink:href="#DejaVuSans-50"/>
     <use x="388.916016" xlink:href="#DejaVuSans-48"/>
     <use x="452.539062" xlink:href="#DejaVuSans-49"/>
     <use x="516.162109" xlink:href="#DejaVuSans-54"/>
     <use x="579.785156" xlink:href="#DejaVuSans-45"/>
     <use x="615.869141" xlink:href="#DejaVuSans-49"/>
     <use x="679.492188" xlink:href="#DejaVuSans-48"/>
     <use x="743.115234" xlink:href="#DejaVuSans-45"/>
     <use x="779.199219" xlink:href="#DejaVuSans-49"/>
     <use x="842.822266" xlink:href="#DejaVuSans-50"/>
     <use x="906.445312" xlink:href="#DejaVuSans-41"/>
    </g>
   </g>
   <g id="text_18">
    <!-- 12920 (2017-03-23) -->
    <g style="fill:#262626;" transform="translate(360.171089 421.564101)scale(0.1 -0.1)">
     <use xlink:href="#DejaVuSans-49"/>
     <use x="63.623047" xlink:href="#DejaVuSans-50"/>
     <use x="127.246094" xlink:href="#DejaVuSans-57"/>
     <use x="190.869141" xlink:href="#DejaVuSans-50"/>
     <use x="254.492188" xlink:href="#DejaVuSans-48"/>
     <use x="318.115234" xlink:href="#DejaVuSans-32"/>
     <use x="349.902344" xlink:href="#DejaVuSans-40"/>
     <use x="388.916016" xlink:href="#DejaVuSans-50"/>
     <use x="452.539062" xlink:href="#DejaVuSans-48"/>
     <use x="516.162109" xlink:href="#DejaVuSans-49"/>
     <use x="579.785156" xlink:href="#DejaVuSans-55"/>
     <use x="643.408203" xlink:href="#DejaVuSans-45"/>
     <use x="679.492188" xlink:href="#DejaVuSans-48"/>
     <use x="743.115234" xlink:href="#DejaVuSans-51"/>
     <use x="806.738281" xlink:href="#DejaVuSans-45"/>
     <use x="842.822266" xlink:href="#DejaVuSans-50"/>
     <use x="906.445312" xlink:href="#DejaVuSans-51"/>
     <use x="970.068359" xlink:href="#DejaVuSans-41"/>
    </g>
   </g>
   <g id="text_19">
    <!-- 16149 (2017-08-26) -->
    <g style="fill:#262626;" transform="translate(396.72637 371.167222)scale(0.1 -0.1)">
     <use xlink:href="#DejaVuSans-49"/>
     <use x="63.623047" xlink:href="#DejaVuSans-54"/>
     <use x="127.246094" xlink:href="#DejaVuSans-49"/>
     <use x="190.869141" xlink:href="#DejaVuSans-52"/>
     <use x="254.492188" xlink:href="#DejaVuSans-57"/>
     <use x="318.115234" xlink:href="#DejaVuSans-32"/>
     <use x="349.902344" xlink:href="#DejaVuSans-40"/>
     <use x="388.916016" xlink:href="#DejaVuSans-50"/>
     <use x="452.539062" xlink:href="#DejaVuSans-48"/>
     <use x="516.162109" xlink:href="#DejaVuSans-49"/>
     <use x="579.785156" xlink:href="#DejaVuSans-55"/>
     <use x="643.408203" xlink:href="#DejaVuSans-45"/>
     <use x="679.492188" xlink:href="#DejaVuSans-48"/>
     <use x="743.115234" xlink:href="#DejaVuSans-56"/>
     <use x="806.738281" xlink:href="#DejaVuSans-45"/>
     <use x="842.822266" xlink:href="#DejaVuSans-50"/>
     <use x="906.445312" xlink:href="#DejaVuSans-54"/>
     <use x="970.068359" xlink:href="#DejaVuSans-41"/>
    </g>
   </g>
   <g id="text_20">
    <!-- 19378 (2018-02-07) -->
    <g style="fill:#262626;" transform="translate(435.708574 320.770344)scale(0.1 -0.1)">
     <use xlink:href="#DejaVuSans-49"/>
     <use x="63.623047" xlink:href="#DejaVuSans-57"/>
     <use x="127.246094" xlink:href="#DejaVuSans-51"/>
     <use x="190.869141" xlink:href="#DejaVuSans-55"/>
     <use x="254.492188" xlink:href="#DejaVuSans-56"/>
     <use x="318.115234" xlink:href="#DejaVuSans-32"/>
     <use x="349.902344" xlink:href="#DejaVuSans-40"/>
     <use x="388.916016" xlink:href="#DejaVuSans-50"/>
     <use x="452.539062" xlink:href="#DejaVuSans-48"/>
     <use x="516.162109" xlink:href="#DejaVuSans-49"/>
     <use x="579.785156" xlink:href="#DejaVuSans-56"/>
     <use x="643.408203" xlink:href="#DejaVuSans-45"/>
     <use x="679.492188" xlink:href="#DejaVuSans-48"/>
     <use x="743.115234" xlink:href="#DejaVuSans-50"/>
     <use x="806.738281" xlink:href="#DejaVuSans-45"/>
     <use x="842.822266" xlink:href="#DejaVuSans-48"/>
     <use x="906.445312" xlink:href="#DejaVuSans-55"/>
     <use x="970.068359" xlink:href="#DejaVuSans-41"/>
    </g>
   </g>
   <g id="text_21">
    <!-- 22607 (2018-05-01) -->
    <g style="fill:#262626;" transform="translate(455.177478 270.373465)scale(0.1 -0.1)">
     <use xlink:href="#DejaVuSans-50"/>
     <use x="63.623047" xlink:href="#DejaVuSans-50"/>
     <use x="127.246094" xlink:href="#DejaVuSans-54"/>
     <use x="190.869141" xlink:href="#DejaVuSans-48"/>
     <use x="254.492188" xlink:href="#DejaVuSans-55"/>
     <use x="318.115234" xlink:href="#DejaVuSans-32"/>
     <use x="349.902344" xlink:href="#DejaVuSans-40"/>
     <use x="388.916016" xlink:href="#DejaVuSans-50"/>
     <use x="452.539062" xlink:href="#DejaVuSans-48"/>
     <use x="516.162109" xlink:href="#DejaVuSans-49"/>
     <use x="579.785156" xlink:href="#DejaVuSans-56"/>
     <use x="643.408203" xlink:href="#DejaVuSans-45"/>
     <use x="679.492188" xlink:href="#DejaVuSans-48"/>
     <use x="743.115234" xlink:href="#DejaVuSans-53"/>
     <use x="806.738281" xlink:href="#DejaVuSans-45"/>
     <use x="842.822266" xlink:href="#DejaVuSans-48"/>
     <use x="906.445312" xlink:href="#DejaVuSans-49"/>
     <use x="970.068359" xlink:href="#DejaVuSans-41"/>
    </g>
   </g>
   <g id="text_22">
    <!-- 25836 (2018-12-17) -->
    <g style="fill:#262626;" transform="translate(509.300353 219.976587)scale(0.1 -0.1)">
     <use xlink:href="#DejaVuSans-50"/>
     <use x="63.623047" xlink:href="#DejaVuSans-53"/>
     <use x="127.246094" xlink:href="#DejaVuSans-56"/>
     <use x="190.869141" xlink:href="#DejaVuSans-51"/>
     <use x="254.492188" xlink:href="#DejaVuSans-54"/>
     <use x="318.115234" xlink:href="#DejaVuSans-32"/>
     <use x="349.902344" xlink:href="#DejaVuSans-40"/>
     <use x="388.916016" xlink:href="#DejaVuSans-50"/>
     <use x="452.539062" xlink:href="#DejaVuSans-48"/>
     <use x="516.162109" xlink:href="#DejaVuSans-49"/>
     <use x="579.785156" xlink:href="#DejaVuSans-56"/>
     <use x="643.408203" xlink:href="#DejaVuSans-45"/>
     <use x="679.492188" xlink:href="#DejaVuSans-49"/>
     <use x="743.115234" xlink:href="#DejaVuSans-50"/>
     <use x="806.738281" xlink:href="#DejaVuSans-45"/>
     <use x="842.822266" xlink:href="#DejaVuSans-49"/>
     <use x="906.445312" xlink:href="#DejaVuSans-55"/>
     <use x="970.068359" xlink:href="#DejaVuSans-41"/>
    </g>
   </g>
   <g id="text_23">
    <!-- 29065 (2019-08-28) -->
    <g style="fill:#262626;" transform="translate(569.107338 169.579708)scale(0.1 -0.1)">
     <use xlink:href="#DejaVuSans-50"/>
     <use x="63.623047" xlink:href="#DejaVuSans-57"/>
     <use x="127.246094" xlink:href="#DejaVuSans-48"/>
     <use x="190.869141" xlink:href="#DejaVuSans-54"/>
     <use x="254.492188" xlink:href="#DejaVuSans-53"/>
     <use x="318.115234" xlink:href="#DejaVuSans-32"/>
     <use x="349.902344" xlink:href="#DejaVuSans-40"/>
     <use x="388.916016" xlink:href="#DejaVuSans-50"/>
     <use x="452.539062" xlink:href="#DejaVuSans-48"/>
     <use x="516.162109" xlink:href="#DejaVuSans-49"/>
     <use x="579.785156" xlink:href="#DejaVuSans-57"/>
     <use x="643.408203" xlink:href="#DejaVuSans-45"/>
     <use x="679.492188" xlink:href="#DejaVuSans-48"/>
     <use x="743.115234" xlink:href="#DejaVuSans-56"/>
     <use x="806.738281" xlink:href="#DejaVuSans-45"/>
     <use x="842.822266" xlink:href="#DejaVuSans-50"/>
     <use x="906.445312" xlink:href="#DejaVuSans-56"/>
     <use x="970.068359" xlink:href="#DejaVuSans-41"/>
    </g>
   </g>
   <g id="text_24">
    <!-- 32293 (2020-05-03) -->
    <g style="fill:#262626;" transform="translate(627.636364 119.198437)scale(0.1 -0.1)">
     <use xlink:href="#DejaVuSans-51"/>
     <use x="63.623047" xlink:href="#DejaVuSans-50"/>
     <use x="127.246094" xlink:href="#DejaVuSans-50"/>
     <use x="190.869141" xlink:href="#DejaVuSans-57"/>
     <use x="254.492188" xlink:href="#DejaVuSans-51"/>
     <use x="318.115234" xlink:href="#DejaVuSans-32"/>
     <use x="349.902344" xlink:href="#DejaVuSans-40"/>
     <use x="388.916016" xlink:href="#DejaVuSans-50"/>
     <use x="452.539062" xlink:href="#DejaVuSans-48"/>
     <use x="516.162109" xlink:href="#DejaVuSans-50"/>
     <use x="579.785156" xlink:href="#DejaVuSans-48"/>
     <use x="643.408203" xlink:href="#DejaVuSans-45"/>
     <use x="679.492188" xlink:href="#DejaVuSans-48"/>
     <use x="743.115234" xlink:href="#DejaVuSans-53"/>
     <use x="806.738281" xlink:href="#DejaVuSans-45"/>
     <use x="842.822266" xlink:href="#DejaVuSans-48"/>
     <use x="906.445312" xlink:href="#DejaVuSans-51"/>
     <use x="970.068359" xlink:href="#DejaVuSans-41"/>
    </g>
   </g>
   <g id="text_25">
    <!-- Closed issues over time -->
    <defs>
     <path d="M 64.40625 67.28125 
L 64.40625 56.890625 
Q 59.421875 61.53125 53.78125 63.8125 
Q 48.140625 66.109375 41.796875 66.109375 
Q 29.296875 66.109375 22.65625 58.46875 
Q 16.015625 50.828125 16.015625 36.375 
Q 16.015625 21.96875 22.65625 14.328125 
Q 29.296875 6.6875 41.796875 6.6875 
Q 48.140625 6.6875 53.78125 8.984375 
Q 59.421875 11.28125 64.40625 15.921875 
L 64.40625 5.609375 
Q 59.234375 2.09375 53.4375 0.328125 
Q 47.65625 -1.421875 41.21875 -1.421875 
Q 24.65625 -1.421875 15.125 8.703125 
Q 5.609375 18.84375 5.609375 36.375 
Q 5.609375 53.953125 15.125 64.078125 
Q 24.65625 74.21875 41.21875 74.21875 
Q 47.75 74.21875 53.53125 72.484375 
Q 59.328125 70.75 64.40625 67.28125 
z
" id="DejaVuSans-67"/>
     <path d="M 9.421875 75.984375 
L 18.40625 75.984375 
L 18.40625 0 
L 9.421875 0 
z
" id="DejaVuSans-108"/>
     <path d="M 30.609375 48.390625 
Q 23.390625 48.390625 19.1875 42.75 
Q 14.984375 37.109375 14.984375 27.296875 
Q 14.984375 17.484375 19.15625 11.84375 
Q 23.34375 6.203125 30.609375 6.203125 
Q 37.796875 6.203125 41.984375 11.859375 
Q 46.1875 17.53125 46.1875 27.296875 
Q 46.1875 37.015625 41.984375 42.703125 
Q 37.796875 48.390625 30.609375 48.390625 
z
M 30.609375 56 
Q 42.328125 56 49.015625 48.375 
Q 55.71875 40.765625 55.71875 27.296875 
Q 55.71875 13.875 49.015625 6.21875 
Q 42.328125 -1.421875 30.609375 -1.421875 
Q 18.84375 -1.421875 12.171875 6.21875 
Q 5.515625 13.875 5.515625 27.296875 
Q 5.515625 40.765625 12.171875 48.375 
Q 18.84375 56 30.609375 56 
z
" id="DejaVuSans-111"/>
     <path d="M 44.28125 53.078125 
L 44.28125 44.578125 
Q 40.484375 46.53125 36.375 47.5 
Q 32.28125 48.484375 27.875 48.484375 
Q 21.1875 48.484375 17.84375 46.4375 
Q 14.5 44.390625 14.5 40.28125 
Q 14.5 37.15625 16.890625 35.375 
Q 19.28125 33.59375 26.515625 31.984375 
L 29.59375 31.296875 
Q 39.15625 29.25 43.1875 25.515625 
Q 47.21875 21.78125 47.21875 15.09375 
Q 47.21875 7.46875 41.1875 3.015625 
Q 35.15625 -1.421875 24.609375 -1.421875 
Q 20.21875 -1.421875 15.453125 -0.5625 
Q 10.6875 0.296875 5.421875 2 
L 5.421875 11.28125 
Q 10.40625 8.6875 15.234375 7.390625 
Q 20.0625 6.109375 24.8125 6.109375 
Q 31.15625 6.109375 34.5625 8.28125 
Q 37.984375 10.453125 37.984375 14.40625 
Q 37.984375 18.0625 35.515625 20.015625 
Q 33.0625 21.96875 24.703125 23.78125 
L 21.578125 24.515625 
Q 13.234375 26.265625 9.515625 29.90625 
Q 5.8125 33.546875 5.8125 39.890625 
Q 5.8125 47.609375 11.28125 51.796875 
Q 16.75 56 26.8125 56 
Q 31.78125 56 36.171875 55.265625 
Q 40.578125 54.546875 44.28125 53.078125 
z
" id="DejaVuSans-115"/>
     <path d="M 56.203125 29.59375 
L 56.203125 25.203125 
L 14.890625 25.203125 
Q 15.484375 15.921875 20.484375 11.0625 
Q 25.484375 6.203125 34.421875 6.203125 
Q 39.59375 6.203125 44.453125 7.46875 
Q 49.3125 8.734375 54.109375 11.28125 
L 54.109375 2.78125 
Q 49.265625 0.734375 44.1875 -0.34375 
Q 39.109375 -1.421875 33.890625 -1.421875 
Q 20.796875 -1.421875 13.15625 6.1875 
Q 5.515625 13.8125 5.515625 26.8125 
Q 5.515625 40.234375 12.765625 48.109375 
Q 20.015625 56 32.328125 56 
Q 43.359375 56 49.78125 48.890625 
Q 56.203125 41.796875 56.203125 29.59375 
z
M 47.21875 32.234375 
Q 47.125 39.59375 43.09375 43.984375 
Q 39.0625 48.390625 32.421875 48.390625 
Q 24.90625 48.390625 20.390625 44.140625 
Q 15.875 39.890625 15.1875 32.171875 
z
" id="DejaVuSans-101"/>
     <path d="M 45.40625 46.390625 
L 45.40625 75.984375 
L 54.390625 75.984375 
L 54.390625 0 
L 45.40625 0 
L 45.40625 8.203125 
Q 42.578125 3.328125 38.25 0.953125 
Q 33.9375 -1.421875 27.875 -1.421875 
Q 17.96875 -1.421875 11.734375 6.484375 
Q 5.515625 14.40625 5.515625 27.296875 
Q 5.515625 40.1875 11.734375 48.09375 
Q 17.96875 56 27.875 56 
Q 33.9375 56 38.25 53.625 
Q 42.578125 51.265625 45.40625 46.390625 
z
M 14.796875 27.296875 
Q 14.796875 17.390625 18.875 11.75 
Q 22.953125 6.109375 30.078125 6.109375 
Q 37.203125 6.109375 41.296875 11.75 
Q 45.40625 17.390625 45.40625 27.296875 
Q 45.40625 37.203125 41.296875 42.84375 
Q 37.203125 48.484375 30.078125 48.484375 
Q 22.953125 48.484375 18.875 42.84375 
Q 14.796875 37.203125 14.796875 27.296875 
z
" id="DejaVuSans-100"/>
     <path d="M 9.421875 54.6875 
L 18.40625 54.6875 
L 18.40625 0 
L 9.421875 0 
z
M 9.421875 75.984375 
L 18.40625 75.984375 
L 18.40625 64.59375 
L 9.421875 64.59375 
z
" id="DejaVuSans-105"/>
     <path d="M 8.5 21.578125 
L 8.5 54.6875 
L 17.484375 54.6875 
L 17.484375 21.921875 
Q 17.484375 14.15625 20.5 10.265625 
Q 23.53125 6.390625 29.59375 6.390625 
Q 36.859375 6.390625 41.078125 11.03125 
Q 45.3125 15.671875 45.3125 23.6875 
L 45.3125 54.6875 
L 54.296875 54.6875 
L 54.296875 0 
L 45.3125 0 
L 45.3125 8.40625 
Q 42.046875 3.421875 37.71875 1 
Q 33.40625 -1.421875 27.6875 -1.421875 
Q 18.265625 -1.421875 13.375 4.4375 
Q 8.5 10.296875 8.5 21.578125 
z
M 31.109375 56 
z
" id="DejaVuSans-117"/>
     <path d="M 2.984375 54.6875 
L 12.5 54.6875 
L 29.59375 8.796875 
L 46.6875 54.6875 
L 56.203125 54.6875 
L 35.6875 0 
L 23.484375 0 
z
" id="DejaVuSans-118"/>
     <path d="M 41.109375 46.296875 
Q 39.59375 47.171875 37.8125 47.578125 
Q 36.03125 48 33.890625 48 
Q 26.265625 48 22.1875 43.046875 
Q 18.109375 38.09375 18.109375 28.8125 
L 18.109375 0 
L 9.078125 0 
L 9.078125 54.6875 
L 18.109375 54.6875 
L 18.109375 46.1875 
Q 20.953125 51.171875 25.484375 53.578125 
Q 30.03125 56 36.53125 56 
Q 37.453125 56 38.578125 55.875 
Q 39.703125 55.765625 41.0625 55.515625 
z
" id="DejaVuSans-114"/>
     <path d="M 18.3125 70.21875 
L 18.3125 54.6875 
L 36.8125 54.6875 
L 36.8125 47.703125 
L 18.3125 47.703125 
L 18.3125 18.015625 
Q 18.3125 11.328125 20.140625 9.421875 
Q 21.96875 7.515625 27.59375 7.515625 
L 36.8125 7.515625 
L 36.8125 0 
L 27.59375 0 
Q 17.1875 0 13.234375 3.875 
Q 9.28125 7.765625 9.28125 18.015625 
L 9.28125 47.703125 
L 2.6875 47.703125 
L 2.6875 54.6875 
L 9.28125 54.6875 
L 9.28125 70.21875 
z
" id="DejaVuSans-116"/>
     <path d="M 52 44.1875 
Q 55.375 50.25 60.0625 53.125 
Q 64.75 56 71.09375 56 
Q 79.640625 56 84.28125 50.015625 
Q 88.921875 44.046875 88.921875 33.015625 
L 88.921875 0 
L 79.890625 0 
L 79.890625 32.71875 
Q 79.890625 40.578125 77.09375 44.375 
Q 74.3125 48.1875 68.609375 48.1875 
Q 61.625 48.1875 57.5625 43.546875 
Q 53.515625 38.921875 53.515625 30.90625 
L 53.515625 0 
L 44.484375 0 
L 44.484375 32.71875 
Q 44.484375 40.625 41.703125 44.40625 
Q 38.921875 48.1875 33.109375 48.1875 
Q 26.21875 48.1875 22.15625 43.53125 
Q 18.109375 38.875 18.109375 30.90625 
L 18.109375 0 
L 9.078125 0 
L 9.078125 54.6875 
L 18.109375 54.6875 
L 18.109375 46.1875 
Q 21.1875 51.21875 25.484375 53.609375 
Q 29.78125 56 35.6875 56 
Q 41.65625 56 45.828125 52.96875 
Q 50 49.953125 52 44.1875 
z
" id="DejaVuSans-109"/>
    </defs>
    <g style="fill:#262626;" transform="translate(297.650625 80.4)scale(0.12 -0.12)">
     <use xlink:href="#DejaVuSans-67"/>
     <use x="69.824219" xlink:href="#DejaVuSans-108"/>
     <use x="97.607422" xlink:href="#DejaVuSans-111"/>
     <use x="158.789062" xlink:href="#DejaVuSans-115"/>
     <use x="210.888672" xlink:href="#DejaVuSans-101"/>
     <use x="272.412109" xlink:href="#DejaVuSans-100"/>
     <use x="335.888672" xlink:href="#DejaVuSans-32"/>
     <use x="367.675781" xlink:href="#DejaVuSans-105"/>
     <use x="395.458984" xlink:href="#DejaVuSans-115"/>
     <use x="447.558594" xlink:href="#DejaVuSans-115"/>
     <use x="499.658203" xlink:href="#DejaVuSans-117"/>
     <use x="563.037109" xlink:href="#DejaVuSans-101"/>
     <use x="624.560547" xlink:href="#DejaVuSans-115"/>
     <use x="676.660156" xlink:href="#DejaVuSans-32"/>
     <use x="708.447266" xlink:href="#DejaVuSans-111"/>
     <use x="769.628906" xlink:href="#DejaVuSans-118"/>
     <use x="828.808594" xlink:href="#DejaVuSans-101"/>
     <use x="890.332031" xlink:href="#DejaVuSans-114"/>
     <use x="931.445312" xlink:href="#DejaVuSans-32"/>
     <use x="963.232422" xlink:href="#DejaVuSans-116"/>
     <use x="1002.441406" xlink:href="#DejaVuSans-105"/>
     <use x="1030.224609" xlink:href="#DejaVuSans-109"/>
     <use x="1127.636719" xlink:href="#DejaVuSans-101"/>
    </g>
   </g>
  </g>
 </g>
 <defs>
  <clipPath id="p382df9ebd5">
   <rect height="554.4" width="558" x="90" y="86.4"/>
  </clipPath>
 </defs>
</svg>
