<?xml version="1.0" encoding="utf-8" standalone="no"?>
<!DOCTYPE svg PUBLIC "-//W3C//DTD SVG 1.1//EN"
  "http://www.w3.org/Graphics/SVG/1.1/DTD/svg11.dtd">
<!-- Created with matplotlib (https://matplotlib.org/) -->
<svg height="720pt" version="1.1" viewBox="0 0 720 720" width="720pt" xmlns="http://www.w3.org/2000/svg" xmlns:xlink="http://www.w3.org/1999/xlink">
 <defs>
  <style type="text/css">
*{stroke-linecap:butt;stroke-linejoin:round;}
  </style>
 </defs>
 <g id="figure_1">
  <g id="patch_1">
   <path d="M 0 720 
L 720 720 
L 720 0 
L 0 0 
z
" style="fill:#ffffff;"/>
  </g>
  <g id="axes_1">
   <g id="patch_2">
    <path d="M 90 640.8 
L 648 640.8 
L 648 86.4 
L 90 86.4 
z
" style="fill:#ffffff;"/>
   </g>
   <g id="matplotlib.axis_1">
    <g id="xtick_1">
     <g id="line2d_1">
      <path clip-path="url(#padd458bacf)" d="M 162.691663 640.8 
L 162.691663 86.4 
" style="fill:none;stroke:#cccccc;stroke-linecap:round;stroke-width:0.8;"/>
     </g>
     <g id="line2d_2"/>
     <g id="text_1">
      <!-- 2015 -->
      <defs>
       <path d="M 19.1875 8.296875 
L 53.609375 8.296875 
L 53.609375 0 
L 7.328125 0 
L 7.328125 8.296875 
Q 12.9375 14.109375 22.625 23.890625 
Q 32.328125 33.6875 34.8125 36.53125 
Q 39.546875 41.84375 41.421875 45.53125 
Q 43.3125 49.21875 43.3125 52.78125 
Q 43.3125 58.59375 39.234375 62.25 
Q 35.15625 65.921875 28.609375 65.921875 
Q 23.96875 65.921875 18.8125 64.3125 
Q 13.671875 62.703125 7.8125 59.421875 
L 7.8125 69.390625 
Q 13.765625 71.78125 18.9375 73 
Q 24.125 74.21875 28.421875 74.21875 
Q 39.75 74.21875 46.484375 68.546875 
Q 53.21875 62.890625 53.21875 53.421875 
Q 53.21875 48.921875 51.53125 44.890625 
Q 49.859375 40.875 45.40625 35.40625 
Q 44.1875 33.984375 37.640625 27.21875 
Q 31.109375 20.453125 19.1875 8.296875 
z
" id="DejaVuSans-50"/>
       <path d="M 31.78125 66.40625 
Q 24.171875 66.40625 20.328125 58.90625 
Q 16.5 51.421875 16.5 36.375 
Q 16.5 21.390625 20.328125 13.890625 
Q 24.171875 6.390625 31.78125 6.390625 
Q 39.453125 6.390625 43.28125 13.890625 
Q 47.125 21.390625 47.125 36.375 
Q 47.125 51.421875 43.28125 58.90625 
Q 39.453125 66.40625 31.78125 66.40625 
z
M 31.78125 74.21875 
Q 44.046875 74.21875 50.515625 64.515625 
Q 56.984375 54.828125 56.984375 36.375 
Q 56.984375 17.96875 50.515625 8.265625 
Q 44.046875 -1.421875 31.78125 -1.421875 
Q 19.53125 -1.421875 13.0625 8.265625 
Q 6.59375 17.96875 6.59375 36.375 
Q 6.59375 54.828125 13.0625 64.515625 
Q 19.53125 74.21875 31.78125 74.21875 
z
" id="DejaVuSans-48"/>
       <path d="M 12.40625 8.296875 
L 28.515625 8.296875 
L 28.515625 63.921875 
L 10.984375 60.40625 
L 10.984375 69.390625 
L 28.421875 72.90625 
L 38.28125 72.90625 
L 38.28125 8.296875 
L 54.390625 8.296875 
L 54.390625 0 
L 12.40625 0 
z
" id="DejaVuSans-49"/>
       <path d="M 10.796875 72.90625 
L 49.515625 72.90625 
L 49.515625 64.59375 
L 19.828125 64.59375 
L 19.828125 46.734375 
Q 21.96875 47.46875 24.109375 47.828125 
Q 26.265625 48.1875 28.421875 48.1875 
Q 40.625 48.1875 47.75 41.5 
Q 54.890625 34.8125 54.890625 23.390625 
Q 54.890625 11.625 47.5625 5.09375 
Q 40.234375 -1.421875 26.90625 -1.421875 
Q 22.3125 -1.421875 17.546875 -0.640625 
Q 12.796875 0.140625 7.71875 1.703125 
L 7.71875 11.625 
Q 12.109375 9.234375 16.796875 8.0625 
Q 21.484375 6.890625 26.703125 6.890625 
Q 35.15625 6.890625 40.078125 11.328125 
Q 45.015625 15.765625 45.015625 23.390625 
Q 45.015625 31 40.078125 35.4375 
Q 35.15625 39.890625 26.703125 39.890625 
Q 22.75 39.890625 18.8125 39.015625 
Q 14.890625 38.140625 10.796875 36.28125 
z
" id="DejaVuSans-53"/>
      </defs>
      <g style="fill:#262626;" transform="translate(149.966663 651.898438)scale(0.1 -0.1)">
       <use xlink:href="#DejaVuSans-50"/>
       <use x="63.623047" xlink:href="#DejaVuSans-48"/>
       <use x="127.246094" xlink:href="#DejaVuSans-49"/>
       <use x="190.869141" xlink:href="#DejaVuSans-53"/>
      </g>
     </g>
    </g>
    <g id="xtick_2">
     <g id="line2d_3">
      <path clip-path="url(#padd458bacf)" d="M 246.65435 640.8 
L 246.65435 86.4 
" style="fill:none;stroke:#cccccc;stroke-linecap:round;stroke-width:0.8;"/>
     </g>
     <g id="line2d_4"/>
     <g id="text_2">
      <!-- 2016 -->
      <defs>
       <path d="M 33.015625 40.375 
Q 26.375 40.375 22.484375 35.828125 
Q 18.609375 31.296875 18.609375 23.390625 
Q 18.609375 15.53125 22.484375 10.953125 
Q 26.375 6.390625 33.015625 6.390625 
Q 39.65625 6.390625 43.53125 10.953125 
Q 47.40625 15.53125 47.40625 23.390625 
Q 47.40625 31.296875 43.53125 35.828125 
Q 39.65625 40.375 33.015625 40.375 
z
M 52.59375 71.296875 
L 52.59375 62.3125 
Q 48.875 64.0625 45.09375 64.984375 
Q 41.3125 65.921875 37.59375 65.921875 
Q 27.828125 65.921875 22.671875 59.328125 
Q 17.53125 52.734375 16.796875 39.40625 
Q 19.671875 43.65625 24.015625 45.921875 
Q 28.375 48.1875 33.59375 48.1875 
Q 44.578125 48.1875 50.953125 41.515625 
Q 57.328125 34.859375 57.328125 23.390625 
Q 57.328125 12.15625 50.6875 5.359375 
Q 44.046875 -1.421875 33.015625 -1.421875 
Q 20.359375 -1.421875 13.671875 8.265625 
Q 6.984375 17.96875 6.984375 36.375 
Q 6.984375 53.65625 15.1875 63.9375 
Q 23.390625 74.21875 37.203125 74.21875 
Q 40.921875 74.21875 44.703125 73.484375 
Q 48.484375 72.75 52.59375 71.296875 
z
" id="DejaVuSans-54"/>
      </defs>
      <g style="fill:#262626;" transform="translate(233.92935 651.898438)scale(0.1 -0.1)">
       <use xlink:href="#DejaVuSans-50"/>
       <use x="63.623047" xlink:href="#DejaVuSans-48"/>
       <use x="127.246094" xlink:href="#DejaVuSans-49"/>
       <use x="190.869141" xlink:href="#DejaVuSans-54"/>
      </g>
     </g>
    </g>
    <g id="xtick_3">
     <g id="line2d_5">
      <path clip-path="url(#padd458bacf)" d="M 330.847071 640.8 
L 330.847071 86.4 
" style="fill:none;stroke:#cccccc;stroke-linecap:round;stroke-width:0.8;"/>
     </g>
     <g id="line2d_6"/>
     <g id="text_3">
      <!-- 2017 -->
      <defs>
       <path d="M 8.203125 72.90625 
L 55.078125 72.90625 
L 55.078125 68.703125 
L 28.609375 0 
L 18.3125 0 
L 43.21875 64.59375 
L 8.203125 64.59375 
z
" id="DejaVuSans-55"/>
      </defs>
      <g style="fill:#262626;" transform="translate(318.122071 651.898438)scale(0.1 -0.1)">
       <use xlink:href="#DejaVuSans-50"/>
       <use x="63.623047" xlink:href="#DejaVuSans-48"/>
       <use x="127.246094" xlink:href="#DejaVuSans-49"/>
       <use x="190.869141" xlink:href="#DejaVuSans-55"/>
      </g>
     </g>
    </g>
    <g id="xtick_4">
     <g id="line2d_7">
      <path clip-path="url(#padd458bacf)" d="M 414.809758 640.8 
L 414.809758 86.4 
" style="fill:none;stroke:#cccccc;stroke-linecap:round;stroke-width:0.8;"/>
     </g>
     <g id="line2d_8"/>
     <g id="text_4">
      <!-- 2018 -->
      <defs>
       <path d="M 31.78125 34.625 
Q 24.75 34.625 20.71875 30.859375 
Q 16.703125 27.09375 16.703125 20.515625 
Q 16.703125 13.921875 20.71875 10.15625 
Q 24.75 6.390625 31.78125 6.390625 
Q 38.8125 6.390625 42.859375 10.171875 
Q 46.921875 13.96875 46.921875 20.515625 
Q 46.921875 27.09375 42.890625 30.859375 
Q 38.875 34.625 31.78125 34.625 
z
M 21.921875 38.8125 
Q 15.578125 40.375 12.03125 44.71875 
Q 8.5 49.078125 8.5 55.328125 
Q 8.5 64.0625 14.71875 69.140625 
Q 20.953125 74.21875 31.78125 74.21875 
Q 42.671875 74.21875 48.875 69.140625 
Q 55.078125 64.0625 55.078125 55.328125 
Q 55.078125 49.078125 51.53125 44.71875 
Q 48 40.375 41.703125 38.8125 
Q 48.828125 37.15625 52.796875 32.3125 
Q 56.78125 27.484375 56.78125 20.515625 
Q 56.78125 9.90625 50.3125 4.234375 
Q 43.84375 -1.421875 31.78125 -1.421875 
Q 19.734375 -1.421875 13.25 4.234375 
Q 6.78125 9.90625 6.78125 20.515625 
Q 6.78125 27.484375 10.78125 32.3125 
Q 14.796875 37.15625 21.921875 38.8125 
z
M 18.3125 54.390625 
Q 18.3125 48.734375 21.84375 45.5625 
Q 25.390625 42.390625 31.78125 42.390625 
Q 38.140625 42.390625 41.71875 45.5625 
Q 45.3125 48.734375 45.3125 54.390625 
Q 45.3125 60.0625 41.71875 63.234375 
Q 38.140625 66.40625 31.78125 66.40625 
Q 25.390625 66.40625 21.84375 63.234375 
Q 18.3125 60.0625 18.3125 54.390625 
z
" id="DejaVuSans-56"/>
      </defs>
      <g style="fill:#262626;" transform="translate(402.084758 651.898438)scale(0.1 -0.1)">
       <use xlink:href="#DejaVuSans-50"/>
       <use x="63.623047" xlink:href="#DejaVuSans-48"/>
       <use x="127.246094" xlink:href="#DejaVuSans-49"/>
       <use x="190.869141" xlink:href="#DejaVuSans-56"/>
      </g>
     </g>
    </g>
    <g id="xtick_5">
     <g id="line2d_9">
      <path clip-path="url(#padd458bacf)" d="M 498.772445 640.8 
L 498.772445 86.4 
" style="fill:none;stroke:#cccccc;stroke-linecap:round;stroke-width:0.8;"/>
     </g>
     <g id="line2d_10"/>
     <g id="text_5">
      <!-- 2019 -->
      <defs>
       <path d="M 10.984375 1.515625 
L 10.984375 10.5 
Q 14.703125 8.734375 18.5 7.8125 
Q 22.3125 6.890625 25.984375 6.890625 
Q 35.75 6.890625 40.890625 13.453125 
Q 46.046875 20.015625 46.78125 33.40625 
Q 43.953125 29.203125 39.59375 26.953125 
Q 35.25 24.703125 29.984375 24.703125 
Q 19.046875 24.703125 12.671875 31.3125 
Q 6.296875 37.9375 6.296875 49.421875 
Q 6.296875 60.640625 12.9375 67.421875 
Q 19.578125 74.21875 30.609375 74.21875 
Q 43.265625 74.21875 49.921875 64.515625 
Q 56.59375 54.828125 56.59375 36.375 
Q 56.59375 19.140625 48.40625 8.859375 
Q 40.234375 -1.421875 26.421875 -1.421875 
Q 22.703125 -1.421875 18.890625 -0.6875 
Q 15.09375 0.046875 10.984375 1.515625 
z
M 30.609375 32.421875 
Q 37.25 32.421875 41.125 36.953125 
Q 45.015625 41.5 45.015625 49.421875 
Q 45.015625 57.28125 41.125 61.84375 
Q 37.25 66.40625 30.609375 66.40625 
Q 23.96875 66.40625 20.09375 61.84375 
Q 16.21875 57.28125 16.21875 49.421875 
Q 16.21875 41.5 20.09375 36.953125 
Q 23.96875 32.421875 30.609375 32.421875 
z
" id="DejaVuSans-57"/>
      </defs>
      <g style="fill:#262626;" transform="translate(486.047445 651.898438)scale(0.1 -0.1)">
       <use xlink:href="#DejaVuSans-50"/>
       <use x="63.623047" xlink:href="#DejaVuSans-48"/>
       <use x="127.246094" xlink:href="#DejaVuSans-49"/>
       <use x="190.869141" xlink:href="#DejaVuSans-57"/>
      </g>
     </g>
    </g>
    <g id="xtick_6">
     <g id="line2d_11">
      <path clip-path="url(#padd458bacf)" d="M 582.735132 640.8 
L 582.735132 86.4 
" style="fill:none;stroke:#cccccc;stroke-linecap:round;stroke-width:0.8;"/>
     </g>
     <g id="line2d_12"/>
     <g id="text_6">
      <!-- 2020 -->
      <g style="fill:#262626;" transform="translate(570.010132 651.898438)scale(0.1 -0.1)">
       <use xlink:href="#DejaVuSans-50"/>
       <use x="63.623047" xlink:href="#DejaVuSans-48"/>
       <use x="127.246094" xlink:href="#DejaVuSans-50"/>
       <use x="190.869141" xlink:href="#DejaVuSans-48"/>
      </g>
     </g>
    </g>
   </g>
   <g id="matplotlib.axis_2">
    <g id="ytick_1">
     <g id="line2d_13">
      <path clip-path="url(#padd458bacf)" d="M 90 615.615328 
L 648 615.615328 
" style="fill:none;stroke:#cccccc;stroke-linecap:round;stroke-width:0.8;"/>
     </g>
     <g id="line2d_14"/>
     <g id="text_7">
      <!-- 0 -->
      <g style="fill:#262626;" transform="translate(80.1375 619.414547)scale(0.1 -0.1)">
       <use xlink:href="#DejaVuSans-48"/>
      </g>
     </g>
    </g>
    <g id="ytick_2">
     <g id="line2d_15">
      <path clip-path="url(#padd458bacf)" d="M 90 538.975323 
L 648 538.975323 
" style="fill:none;stroke:#cccccc;stroke-linecap:round;stroke-width:0.8;"/>
     </g>
     <g id="line2d_16"/>
     <g id="text_8">
      <!-- 5000 -->
      <g style="fill:#262626;" transform="translate(61.05 542.774542)scale(0.1 -0.1)">
       <use xlink:href="#DejaVuSans-53"/>
       <use x="63.623047" xlink:href="#DejaVuSans-48"/>
       <use x="127.246094" xlink:href="#DejaVuSans-48"/>
       <use x="190.869141" xlink:href="#DejaVuSans-48"/>
      </g>
     </g>
    </g>
    <g id="ytick_3">
     <g id="line2d_17">
      <path clip-path="url(#padd458bacf)" d="M 90 462.335318 
L 648 462.335318 
" style="fill:none;stroke:#cccccc;stroke-linecap:round;stroke-width:0.8;"/>
     </g>
     <g id="line2d_18"/>
     <g id="text_9">
      <!-- 10000 -->
      <g style="fill:#262626;" transform="translate(54.6875 466.134537)scale(0.1 -0.1)">
       <use xlink:href="#DejaVuSans-49"/>
       <use x="63.623047" xlink:href="#DejaVuSans-48"/>
       <use x="127.246094" xlink:href="#DejaVuSans-48"/>
       <use x="190.869141" xlink:href="#DejaVuSans-48"/>
       <use x="254.492188" xlink:href="#DejaVuSans-48"/>
      </g>
     </g>
    </g>
    <g id="ytick_4">
     <g id="line2d_19">
      <path clip-path="url(#padd458bacf)" d="M 90 385.695313 
L 648 385.695313 
" style="fill:none;stroke:#cccccc;stroke-linecap:round;stroke-width:0.8;"/>
     </g>
     <g id="line2d_20"/>
     <g id="text_10">
      <!-- 15000 -->
      <g style="fill:#262626;" transform="translate(54.6875 389.494532)scale(0.1 -0.1)">
       <use xlink:href="#DejaVuSans-49"/>
       <use x="63.623047" xlink:href="#DejaVuSans-53"/>
       <use x="127.246094" xlink:href="#DejaVuSans-48"/>
       <use x="190.869141" xlink:href="#DejaVuSans-48"/>
       <use x="254.492188" xlink:href="#DejaVuSans-48"/>
      </g>
     </g>
    </g>
    <g id="ytick_5">
     <g id="line2d_21">
      <path clip-path="url(#padd458bacf)" d="M 90 309.055309 
L 648 309.055309 
" style="fill:none;stroke:#cccccc;stroke-linecap:round;stroke-width:0.8;"/>
     </g>
     <g id="line2d_22"/>
     <g id="text_11">
      <!-- 20000 -->
      <g style="fill:#262626;" transform="translate(54.6875 312.854527)scale(0.1 -0.1)">
       <use xlink:href="#DejaVuSans-50"/>
       <use x="63.623047" xlink:href="#DejaVuSans-48"/>
       <use x="127.246094" xlink:href="#DejaVuSans-48"/>
       <use x="190.869141" xlink:href="#DejaVuSans-48"/>
       <use x="254.492188" xlink:href="#DejaVuSans-48"/>
      </g>
     </g>
    </g>
    <g id="ytick_6">
     <g id="line2d_23">
      <path clip-path="url(#padd458bacf)" d="M 90 232.415304 
L 648 232.415304 
" style="fill:none;stroke:#cccccc;stroke-linecap:round;stroke-width:0.8;"/>
     </g>
     <g id="line2d_24"/>
     <g id="text_12">
      <!-- 25000 -->
      <g style="fill:#262626;" transform="translate(54.6875 236.214522)scale(0.1 -0.1)">
       <use xlink:href="#DejaVuSans-50"/>
       <use x="63.623047" xlink:href="#DejaVuSans-53"/>
       <use x="127.246094" xlink:href="#DejaVuSans-48"/>
       <use x="190.869141" xlink:href="#DejaVuSans-48"/>
       <use x="254.492188" xlink:href="#DejaVuSans-48"/>
      </g>
     </g>
    </g>
    <g id="ytick_7">
     <g id="line2d_25">
      <path clip-path="url(#padd458bacf)" d="M 90 155.775299 
L 648 155.775299 
" style="fill:none;stroke:#cccccc;stroke-linecap:round;stroke-width:0.8;"/>
     </g>
     <g id="line2d_26"/>
     <g id="text_13">
      <!-- 30000 -->
      <defs>
       <path d="M 40.578125 39.3125 
Q 47.65625 37.796875 51.625 33 
Q 55.609375 28.21875 55.609375 21.1875 
Q 55.609375 10.40625 48.1875 4.484375 
Q 40.765625 -1.421875 27.09375 -1.421875 
Q 22.515625 -1.421875 17.65625 -0.515625 
Q 12.796875 0.390625 7.625 2.203125 
L 7.625 11.71875 
Q 11.71875 9.328125 16.59375 8.109375 
Q 21.484375 6.890625 26.8125 6.890625 
Q 36.078125 6.890625 40.9375 10.546875 
Q 45.796875 14.203125 45.796875 21.1875 
Q 45.796875 27.640625 41.28125 31.265625 
Q 36.765625 34.90625 28.71875 34.90625 
L 20.21875 34.90625 
L 20.21875 43.015625 
L 29.109375 43.015625 
Q 36.375 43.015625 40.234375 45.921875 
Q 44.09375 48.828125 44.09375 54.296875 
Q 44.09375 59.90625 40.109375 62.90625 
Q 36.140625 65.921875 28.71875 65.921875 
Q 24.65625 65.921875 20.015625 65.03125 
Q 15.375 64.15625 9.8125 62.3125 
L 9.8125 71.09375 
Q 15.4375 72.65625 20.34375 73.4375 
Q 25.25 74.21875 29.59375 74.21875 
Q 40.828125 74.21875 47.359375 69.109375 
Q 53.90625 64.015625 53.90625 55.328125 
Q 53.90625 49.265625 50.4375 45.09375 
Q 46.96875 40.921875 40.578125 39.3125 
z
" id="DejaVuSans-51"/>
      </defs>
      <g style="fill:#262626;" transform="translate(54.6875 159.574518)scale(0.1 -0.1)">
       <use xlink:href="#DejaVuSans-51"/>
       <use x="63.623047" xlink:href="#DejaVuSans-48"/>
       <use x="127.246094" xlink:href="#DejaVuSans-48"/>
       <use x="190.869141" xlink:href="#DejaVuSans-48"/>
       <use x="254.492188" xlink:href="#DejaVuSans-48"/>
      </g>
     </g>
    </g>
   </g>
   <g id="line2d_27">
    <path clip-path="url(#padd458bacf)" d="M 115.363636 615.6 
L 116.963126 615.462048 
L 116.968936 615.431392 
L 117.989289 615.339424 
L 119.614554 615.201472 
L 119.721466 615.170816 
L 120.563458 615.048192 
L 120.645402 615.002208 
L 122.825402 614.864256 
L 123.989383 614.68032 
L 125.878911 614.511712 
L 125.907069 614.37376 
L 126.796383 614.235808 
L 126.839634 614.174496 
L 129.300311 613.76064 
L 129.310612 613.745312 
L 130.658514 613.60736 
L 131.735327 613.423424 
L 132.497381 613.254816 
L 133.1958 613.132192 
L 133.287729 613.040224 
L 135.515541 612.61104 
L 135.771058 612.565056 
L 136.629682 612.442432 
L 136.697835 612.350464 
L 139.659426 611.967264 
L 143.101598 611.15488 
L 143.188066 611.108896 
L 143.748243 610.955616 
L 143.823614 610.84832 
L 144.748191 610.725696 
L 146.108743 610.495776 
L 146.212943 610.449792 
L 147.043909 610.265856 
L 148.198231 610.127904 
L 148.593893 609.989952 
L 148.600129 609.959296 
L 149.492954 609.806016 
L 150.006142 609.560768 
L 150.059089 609.499456 
L 151.660331 609.254208 
L 152.561154 609.054944 
L 152.625585 608.962976 
L 156.041947 608.227232 
L 156.0422 608.211904 
L 156.210546 608.08928 
L 156.908137 607.890016 
L 157.621919 607.767392 
L 157.637768 607.598783 
L 158.056176 607.460831 
L 158.098304 607.414847 
L 159.002463 607.230911 
L 159.014691 607.108287 
L 159.244492 606.985663 
L 159.253195 606.679103 
L 159.484649 606.556479 
L 159.530076 606.510495 
L 159.890051 606.357215 
L 160.096792 606.188607 
L 160.627584 606.065983 
L 160.864762 605.989343 
L 162.301513 605.866719 
L 164.077485 605.514175 
L 164.078832 605.468191 
L 164.73749 605.299583 
L 164.781311 605.222943 
L 165.512886 605.100319 
L 165.856625 604.962367 
L 166.164371 604.655807 
L 167.2394 604.441215 
L 167.338134 604.287935 
L 167.746726 604.119327 
L 167.949446 604.058015 
L 168.058761 603.996703 
L 168.673332 603.874079 
L 168.728753 603.751455 
L 168.910872 603.352927 
L 169.123516 603.230303 
L 169.448839 602.985055 
L 170.477552 602.647839 
L 170.592264 602.448575 
L 170.712981 602.325951 
L 171.270145 601.743487 
L 171.957256 601.574879 
L 172.30823 601.390943 
L 172.505623 601.161023 
L 172.816588 600.869791 
L 172.903202 600.854463 
L 173.738756 600.731839 
L 173.764259 600.685855 
L 173.949858 600.563231 
L 174.026587 600.486591 
L 174.268903 600.333311 
L 174.419355 600.164703 
L 175.377003 599.950111 
L 175.788246 599.781503 
L 175.88584 599.704863 
L 176.081532 599.520927 
L 176.236784 599.321663 
L 176.688754 599.199039 
L 176.792885 599.015103 
L 177.150749 598.708543 
L 177.245305 598.570591 
L 177.551571 598.432639 
L 177.607253 598.325343 
L 178.26658 598.202719 
L 178.561743 597.681567 
L 178.673177 597.574271 
L 178.773913 597.283039 
L 178.853887 597.160415 
L 178.981714 597.022463 
L 179.095743 596.899839 
L 179.242052 596.761887 
L 179.257404 596.685247 
L 179.877816 596.547295 
L 179.946252 596.286719 
L 180.142993 596.148767 
L 180.187703 596.041471 
L 180.363339 595.918847 
L 180.6792 595.443679 
L 180.849242 595.305727 
L 181.067168 595.244415 
L 181.499122 595.106463 
L 181.54855 594.907199 
L 182.539044 593.650303 
L 183.102169 593.512351 
L 183.234386 593.343743 
L 183.387042 593.190463 
L 183.524027 592.945215 
L 183.855282 592.653983 
L 184.041272 592.500703 
L 184.250282 592.408735 
L 184.972242 592.286111 
L 185.179558 591.918238 
L 185.43114 591.67299 
L 185.499323 591.51971 
L 185.649878 591.397086 
L 185.702475 591.320446 
L 186.358202 591.182494 
L 186.853572 590.90659 
L 187.072835 590.707326 
L 187.130181 590.630686 
L 187.260883 590.492734 
L 187.325729 590.324126 
L 187.949398 590.155518 
L 188.250059 589.802974 
L 188.616504 589.665022 
L 188.687184 589.404446 
L 188.915328 589.235838 
L 188.927522 589.22051 
L 189.526739 589.097886 
L 190.537779 587.99427 
L 191.133556 587.825662 
L 191.706228 587.15123 
L 191.854222 586.967294 
L 191.974045 586.737374 
L 192.134454 586.599422 
L 192.137793 586.584094 
L 192.790099 586.415486 
L 192.869974 586.200894 
L 193.189723 586.047614 
L 193.353772 585.879006 
L 193.49188 585.756382 
L 194.273506 585.480478 
L 194.375975 585.357854 
L 194.475657 585.189246 
L 194.636524 585.066622 
L 194.665819 584.943998 
L 195.053026 584.806046 
L 195.161296 584.62211 
L 195.398991 584.346206 
L 196.115605 584.208254 
L 196.452582 584.039646 
L 196.693448 583.77907 
L 196.898245 583.533822 
L 197.030153 583.411198 
L 197.59414 583.288574 
L 197.694048 583.058654 
L 197.860318 582.93603 
L 198.157824 582.55283 
L 198.32133 582.276926 
L 198.4209 582.16963 
L 198.530174 582.047006 
L 198.682229 581.909054 
L 199.202656 581.663806 
L 199.25178 581.55651 
L 199.438377 581.418558 
L 199.694251 581.142654 
L 199.802397 581.02003 
L 200.061891 580.86675 
L 200.166682 580.728798 
L 200.232777 580.544862 
L 200.82504 580.40691 
L 200.905214 580.25363 
L 201.076105 580.131006 
L 201.207299 579.931742 
L 201.562554 579.471902 
L 201.653247 579.41059 
L 201.795262 579.25731 
L 201.868585 579.134686 
L 202.661345 578.920094 
L 202.730018 578.782142 
L 202.881505 578.659518 
L 202.957302 578.398942 
L 203.119873 578.230334 
L 203.199076 578.061726 
L 203.352384 577.893118 
L 203.45213 577.693854 
L 204.069132 577.525246 
L 204.170946 577.356638 
L 204.314747 577.234014 
L 204.428665 577.004094 
L 204.600994 576.80483 
L 204.685694 576.743518 
L 205.288475 576.57491 
L 205.659502 576.452286 
L 205.718595 576.207037 
L 205.930182 576.069085 
L 206.22383 575.563261 
L 206.334343 575.088093 
L 206.626897 574.689565 
L 206.649767 574.597597 
L 207.240991 574.428989 
L 207.411795 574.122429 
L 207.490193 573.999805 
L 207.603275 573.785213 
L 207.748966 573.601277 
L 207.838174 573.493981 
L 208.063083 573.340701 
L 208.171772 573.156765 
L 208.302024 573.080125 
L 208.89726 572.957501 
L 209.141614 572.834877 
L 209.55009 572.650941 
L 209.782721 572.313725 
L 209.901607 572.129789 
L 210.459204 571.991837 
L 210.75346 571.746589 
L 210.995763 571.623965 
L 211.06808 571.531997 
L 211.214392 571.394045 
L 211.307005 571.164125 
L 211.438537 571.026173 
L 211.504142 570.980189 
L 212.071458 570.857565 
L 212.78025 570.382397 
L 213.051973 570.244445 
L 213.123079 570.183133 
L 213.655617 570.014525 
L 214.381422 569.355421 
L 214.512398 569.248125 
L 215.23521 568.834269 
L 215.695493 568.313117 
L 215.749205 568.144509 
L 215.863048 567.929917 
L 216.130876 567.654013 
L 216.274438 567.439421 
L 216.899054 567.286141 
L 217.160149 567.025565 
L 217.183432 566.856957 
L 217.26252 565.646045 
L 217.411709 565.523421 
L 217.522903 564.665053 
L 217.620287 564.527101 
L 217.706452 564.266525 
L 218.46812 564.051933 
L 219.086149 563.392829 
L 219.403797 563.239549 
L 219.493013 563.055613 
L 220.213032 562.917661 
L 220.54748 562.779709 
L 220.651504 562.626429 
L 221.121507 562.396509 
L 221.173036 562.304541 
L 221.802237 562.151261 
L 222.59878 561.093629 
L 223.475032 560.679773 
L 223.618343 560.587805 
L 224.321147 559.9287 
L 224.415567 559.867388 
L 224.972699 559.69878 
L 225.083776 559.560828 
L 225.334668 559.223612 
L 225.451685 559.055004 
L 225.56294 558.641148 
L 225.739234 558.54918 
L 225.882199 558.411228 
L 225.976753 558.181308 
L 226.590501 558.058684 
L 227.323899 556.985724 
L 227.418767 556.817116 
L 227.501146 556.679164 
L 227.721886 556.4799 
L 227.737142 556.449244 
L 228.229099 556.32662 
L 228.380845 556.17334 
L 228.621857 555.958748 
L 228.966534 555.468252 
L 229.159994 555.146364 
L 229.20951 555.054396 
L 229.769592 554.885788 
L 230.033086 554.533244 
L 230.226757 554.02742 
L 230.707708 553.690204 
L 230.875942 553.460284 
L 231.401707 553.26102 
L 232.451536 551.789532 
L 233.132892 551.590268 
L 233.202025 551.452316 
L 233.515085 551.26838 
L 233.78946 551.03846 
L 234.684476 550.471324 
L 234.777433 550.379356 
L 235.634616 549.73558 
L 236.252741 549.612956 
L 236.359675 549.566972 
L 236.583104 549.337052 
L 236.836425 549.1991 
L 237.063371 548.999836 
L 237.221523 548.785244 
L 237.612789 548.647292 
L 237.761865 548.50934 
L 237.870032 548.27942 
L 238.930313 547.58966 
L 239.38623 547.467036 
L 239.617979 547.083836 
L 239.990784 546.623996 
L 240.064009 546.424732 
L 240.192813 546.302108 
L 240.264986 546.148828 
L 240.449589 545.98022 
L 240.535679 545.888252 
L 241.524011 545.397756 
L 241.83205 545.06054 
L 242.611 544.799964 
L 242.720679 544.677339 
L 242.902556 544.278811 
L 243.943546 543.573723 
L 244.299809 543.451099 
L 244.601237 543.251835 
L 245.251525 543.052571 
L 246.17303 542.914619 
L 246.524448 542.730683 
L 247.502237 542.592731 
L 247.62493 542.454779 
L 249.175931 541.611739 
L 249.232015 541.473787 
L 249.418562 541.335835 
L 249.507021 541.259195 
L 250.085857 540.983291 
L 250.183678 540.860667 
L 251.205594 540.492795 
L 251.315494 540.370171 
L 251.445016 540.216891 
L 251.584046 539.818363 
L 251.690831 539.695739 
L 251.879026 539.450491 
L 252.355741 539.266555 
L 252.420204 539.021307 
L 252.581513 538.883355 
L 252.661738 538.668763 
L 252.93795 538.515483 
L 253.058164 538.377531 
L 253.337417 537.902363 
L 253.437868 537.795067 
L 253.530444 537.672443 
L 253.633651 537.611131 
L 254.199352 537.089979 
L 254.310336 536.860059 
L 254.473778 536.722107 
L 254.580771 536.400219 
L 254.65833 536.262267 
L 254.768931 536.063003 
L 254.984524 535.664475 
L 255.565658 535.480539 
L 255.798666 534.974715 
L 256.020996 534.775451 
L 256.133617 534.499547 
L 256.159824 534.361595 
L 256.271092 534.192987 
L 256.612151 533.135355 
L 257.087796 532.920763 
L 257.205617 532.782811 
L 257.425281 532.598875 
L 257.536539 532.414939 
L 257.692103 532.246331 
L 257.801289 532.154363 
L 257.935032 532.016411 
L 258.020656 531.709851 
L 258.107406 531.556571 
L 258.250518 531.311323 
L 258.416361 531.173371 
L 258.461881 531.142715 
L 258.771421 531.004763 
L 259.973821 528.536954 
L 260.4424 528.245722 
L 261.041864 527.050138 
L 261.105289 526.896858 
L 261.398003 526.19177 
L 262.020761 525.80857 
L 262.138326 525.65529 
L 262.439805 525.471354 
L 262.595672 525.134138 
L 262.726078 524.950202 
L 262.847312 524.73561 
L 262.985999 524.42905 
L 263.10715 524.291098 
L 263.619364 524.12249 
L 263.722408 523.877242 
L 263.896476 523.708634 
L 263.985444 523.555354 
L 264.075117 523.417402 
L 264.209496 523.325434 
L 264.349138 523.141498 
L 264.505823 522.605018 
L 266.439159 521.470746 
L 266.891132 521.332794 
L 267.028772 521.225498 
L 267.379726 520.995578 
L 267.49145 520.918938 
L 268.196307 520.612378 
L 268.487261 520.489754 
L 268.74855 520.336474 
L 268.857476 520.152538 
L 269.128741 519.845978 
L 269.386521 519.631386 
L 269.46922 519.462778 
L 270.230243 519.278842 
L 270.552539 519.018266 
L 270.640541 518.880314 
L 270.866454 518.635066 
L 271.149796 518.420474 
L 271.565049 518.236538 
L 271.693142 518.006618 
L 272.003076 517.592762 
L 272.102159 517.37817 
L 272.795993 516.857018 
L 273.316274 516.673082 
L 273.370905 516.61177 
L 273.600756 516.473818 
L 274.311233 515.722746 
L 274.923352 515.53881 
L 275.185285 515.293562 
L 275.557696 515.140282 
L 275.862706 514.557818 
L 275.970758 514.450522 
L 276.397611 514.31257 
L 276.508981 514.15929 
L 276.721531 513.960026 
L 277.179167 513.653466 
L 277.329688 513.408218 
L 277.442845 513.285594 
L 277.483282 513.178297 
L 277.830648 513.040345 
L 277.915207 512.902393 
L 278.035863 512.733785 
L 278.147054 512.442553 
L 278.396682 511.768121 
L 278.47774 511.047705 
L 278.621381 510.879097 
L 278.76523 510.572537 
L 279.086193 510.204665 
L 279.138259 510.143353 
L 279.702521 509.898105 
L 279.943336 509.499577 
L 280.081921 509.101049 
L 280.186483 508.794489 
L 280.248686 508.579897 
L 280.353466 508.349977 
L 280.474841 508.196697 
L 280.660267 507.598905 
L 280.880621 507.307673 
L 281.100323 507.169721 
L 281.196147 507.031769 
L 281.476368 506.847833 
L 281.725549 506.495289 
L 281.799578 506.296025 
L 282.103831 505.514297 
L 282.250497 505.330361 
L 282.388589 504.947161 
L 282.610855 504.747897 
L 282.848677 504.625273 
L 283.931265 502.157465 
L 284.230816 501.850905 
L 284.51537 501.712953 
L 284.573326 501.529017 
L 284.681439 501.299097 
L 284.929952 500.931225 
L 285.10383 500.502041 
L 285.233076 500.272121 
L 285.301766 499.996217 
L 285.457676 499.858265 
L 285.610556 499.429081 
L 285.971956 499.260473 
L 286.069593 499.122521 
L 286.206967 498.892601 
L 286.32553 498.647353 
L 286.413622 498.509401 
L 286.594535 498.080217 
L 286.69086 497.880953 
L 286.799461 497.727673 
L 286.933373 497.375128 
L 287.069959 497.252504 
L 287.166321 497.068568 
L 287.271482 497.007256 
L 288.004944 496.501432 
L 288.056811 496.225528 
L 288.209941 496.010936 
L 288.283414 495.796344 
L 288.428924 495.643064 
L 288.49328 495.474456 
L 288.593428 495.152568 
L 288.72168 495.029944 
L 288.839658 494.861336 
L 289.520181 494.6774 
L 290.357853 493.727064 
L 290.406581 493.650424 
L 290.988811 493.512472 
L 291.086443 493.313208 
L 291.273788 493.113944 
L 291.630332 492.700088 
L 291.715322 492.592792 
L 291.897742 492.439512 
L 292.022812 492.209592 
L 292.512344 492.040984 
L 292.668632 491.780408 
L 293.011259 491.320568 
L 293.090988 491.15196 
L 293.214014 491.029336 
L 293.430298 490.830072 
L 293.62039 490.676792 
L 293.795478 490.61548 
L 294.236836 490.400888 
L 294.285838 490.278264 
L 294.663971 490.094328 
L 295.207417 489.665144 
L 295.814291 489.54252 
L 296.308152 488.9294 
L 296.43899 488.607512 
L 296.540663 488.46956 
L 296.69701 488.31628 
L 296.972197 488.025048 
L 297.44229 487.902424 
L 297.565873 487.795128 
L 297.843014 487.580536 
L 297.947954 487.227992 
L 298.134719 487.059384 
L 298.189687 486.86012 
L 298.302189 486.645528 
L 298.372951 486.507576 
L 298.482548 486.369624 
L 299.023878 486.185688 
L 299.722518 485.128056 
L 299.853427 484.821496 
L 299.95407 484.683544 
L 300.037191 484.346328 
L 300.447314 484.17772 
L 300.628266 484.039768 
L 300.666986 483.886488 
L 300.893797 483.533944 
L 301.033585 483.227384 
L 301.198076 482.936152 
L 301.367426 482.690904 
L 301.554154 482.353688 
L 301.903404 481.985816 
L 302.255725 481.832536 
L 302.524772 480.928183 
L 302.633379 480.652279 
L 302.744141 480.498999 
L 303.052372 479.763255 
L 303.129724 479.609975 
L 303.260644 479.242103 
L 303.328893 479.196119 
L 303.817278 479.058167 
L 303.925783 478.935543 
L 304.112739 478.705623 
L 304.243862 478.199799 
L 304.360905 478.061847 
L 304.956788 476.835607 
L 305.288736 476.621015 
L 305.400558 476.452407 
L 305.524713 476.207159 
L 306.951168 474.475095 
L 307.105143 474.352471 
L 308.155174 472.620407 
L 308.685841 472.451799 
L 308.927761 472.129911 
L 309.083913 471.976631 
L 309.221731 471.700727 
L 309.400977 471.486135 
L 309.873613 471.041623 
L 310.380664 470.888343 
L 310.578556 470.551127 
L 310.799961 469.692759 
L 310.879315 469.493495 
L 310.986204 469.416855 
L 311.274877 468.911031 
L 311.361033 468.742423 
L 311.570128 468.527831 
L 311.917984 468.389879 
L 312.246071 467.976023 
L 312.379706 467.684791 
L 312.421443 467.516183 
L 312.534285 466.412567 
L 312.653797 466.182647 
L 312.789908 465.92207 
L 312.869252 465.76879 
L 312.97986 465.354934 
L 313.150102 465.262966 
L 313.587639 465.033046 
L 313.692979 464.864438 
L 313.901762 464.61919 
L 314.010578 464.404598 
L 314.233046 464.174678 
L 314.492192 463.975414 
L 314.57272 463.868118 
L 315.138965 463.668854 
L 315.223775 463.500246 
L 315.400124 463.362294 
L 315.468762 463.101718 
L 315.654693 462.93311 
L 315.776297 462.825814 
L 315.965762 462.657206 
L 316.096142 462.47327 
L 316.453601 462.228022 
L 316.681844 462.09007 
L 316.795841 461.93679 
L 316.888718 461.78351 
L 317.043515 461.614902 
L 317.284418 461.201046 
L 317.475546 461.032438 
L 317.619094 460.879158 
L 318.155695 460.511286 
L 318.245614 460.281366 
L 318.38146 460.128086 
L 318.460481 459.928822 
L 318.604559 459.775542 
L 318.703293 459.499638 
L 318.877483 459.208406 
L 318.998515 459.039798 
L 319.23061 458.579958 
L 319.33203 458.457334 
L 319.408166 458.396022 
L 319.935595 458.242742 
L 320.167531 457.966838 
L 320.288805 457.215766 
L 320.442779 456.939862 
L 320.956707 453.920246 
L 321.147428 453.766966 
L 321.212088 453.73631 
L 321.552976 453.598358 
L 321.664242 453.337782 
L 321.810578 453.061878 
L 322.090041 451.74367 
L 322.579309 451.544406 
L 323.215507 451.391126 
L 323.285899 451.28383 
L 323.411684 451.145878 
L 323.496195 450.885302 
L 323.676005 450.578742 
L 323.93099 450.072917 
L 324.032373 448.432821 
L 324.196943 448.064949 
L 324.308952 447.926997 
L 324.825537 447.605109 
L 324.933001 447.405845 
L 325.167663 446.884693 
L 325.423894 446.041653 
L 325.544433 445.903701 
L 325.63027 445.811733 
L 325.732465 445.627797 
L 325.865768 445.183285 
L 326.356437 444.861397 
L 326.459857 444.738773 
L 327.424603 443.727125 
L 328.090386 443.497205 
L 328.175115 443.420565 
L 328.409074 443.282613 
L 328.600067 443.129333 
L 328.742241 442.945397 
L 328.834346 442.592853 
L 329.883924 442.286293 
L 330.062127 442.194325 
L 330.345168 441.949077 
L 330.407331 441.857109 
L 331.534387 441.458581 
L 331.645264 441.320629 
L 331.970928 440.845461 
L 332.227641 440.722837 
L 332.248543 440.661525 
L 332.792035 440.508245 
L 332.910681 440.308981 
L 333.002725 440.217013 
L 333.183882 440.079061 
L 333.598943 439.450613 
L 333.779206 439.282005 
L 333.879322 439.174709 
L 334.08786 439.098069 
L 334.455847 438.975445 
L 334.558723 438.822165 
L 334.744583 438.653557 
L 334.875831 438.454293 
L 334.94466 438.255029 
L 335.108408 438.147733 
L 335.378286 437.933141 
L 335.541749 437.810517 
L 336.317478 437.611253 
L 336.571229 437.320021 
L 336.5828 436.829525 
L 336.631571 436.691573 
L 336.785271 436.568949 
L 336.899516 436.430997 
L 337.594836 436.139765 
L 337.704166 435.710581 
L 338.175085 435.388693 
L 338.338663 435.342709 
L 338.552742 435.143445 
L 338.595519 435.036149 
L 339.405841 434.760245 
L 339.735035 434.361716 
L 340.21019 434.009172 
L 340.376885 433.687284 
L 340.557271 433.56466 
L 340.557737 433.549332 
L 341.003717 433.41138 
L 341.113716 433.273428 
L 341.427401 432.890228 
L 341.524881 432.706292 
L 342.133866 432.399732 
L 342.204815 432.307764 
L 342.606127 432.154484 
L 343.172266 431.817268 
L 343.444458 431.49538 
L 344.12142 431.050868 
L 344.238583 430.545044 
L 344.451019 430.330452 
L 344.919188 429.211508 
L 345.036937 429.058228 
L 345.089842 428.766996 
L 345.188744 428.092564 
L 345.555556 427.923956 
L 345.656567 427.755348 
L 345.695076 427.58674 
L 345.817594 426.3605 
L 345.940148 426.13058 
L 346.047375 425.686068 
L 346.297123 425.379508 
L 346.400577 424.90434 
L 346.459787 424.766388 
L 346.611171 424.260564 
L 346.675096 424.076628 
L 346.817795 423.095636 
L 347.307878 422.927028 
L 347.350349 422.789076 
L 347.535418 420.903732 
L 347.589231 420.474548 
L 347.722649 420.198644 
L 347.798472 420.060692 
L 347.92247 419.738804 
L 348.084562 419.600852 
L 348.446055 419.00306 
L 348.915062 418.742484 
L 349.0237 418.282643 
L 349.164421 418.129363 
L 349.683256 417.623539 
L 349.790983 417.500915 
L 349.971518 417.362963 
L 350.590021 417.133043 
L 350.644008 417.056403 
L 350.795269 416.933779 
L 350.915233 416.811155 
L 351.169336 416.519923 
L 351.262745 416.427955 
L 351.564698 416.259347 
L 351.604328 416.228691 
L 352.155451 416.090739 
L 352.311981 415.922131 
L 352.895649 415.324339 
L 353.167521 415.201715 
L 353.784451 415.017779 
L 355.015762 414.006131 
L 355.601725 413.852851 
L 355.694352 413.745555 
L 355.993226 413.561619 
L 356.151836 413.331699 
L 356.350414 413.209075 
L 356.399879 412.795219 
L 356.999224 412.611283 
L 357.134425 412.212755 
L 357.245699 411.630291 
L 357.507217 411.339059 
L 357.615879 411.139795 
L 357.785016 410.971187 
L 357.920976 410.741267 
L 357.999026 410.496019 
L 358.803644 410.174131 
L 358.989126 410.036179 
L 359.224467 409.867571 
L 359.355677 409.499699 
L 359.500852 409.315763 
L 359.609266 408.626003 
L 360.271503 408.380755 
L 360.365862 408.273459 
L 360.554081 408.120179 
L 361.124729 407.307795 
L 361.198362 407.123859 
L 361.252306 407.047219 
L 361.867007 406.832627 
L 361.986148 406.572051 
L 362.102345 406.418771 
L 362.19871 406.326803 
L 362.41139 406.158195 
L 362.532619 406.081555 
L 362.627775 405.943603 
L 362.739411 404.318835 
L 363.365569 403.445139 
L 363.457939 403.291859 
L 363.600596 403.031283 
L 363.700719 402.89333 
L 363.808293 402.617426 
L 363.968638 402.326194 
L 364.023285 402.157586 
L 364.133209 402.019634 
L 364.286877 401.774386 
L 364.410805 401.636434 
L 364.535903 401.36053 
L 365.043422 401.145938 
L 365.157976 401.05397 
L 365.394912 399.950354 
L 365.525369 399.812402 
L 365.752073 398.126322 
L 365.846536 395.22933 
L 365.981117 395.045394 
L 366.087546 394.662194 
L 366.676411 393.972434 
L 366.817746 393.527922 
L 367.167532 392.960786 
L 367.410884 392.47029 
L 367.499323 392.225042 
L 367.607852 391.93381 
L 367.822005 391.519954 
L 367.892046 391.366674 
L 368.042085 391.228722 
L 368.179339 390.753554 
L 368.30458 390.431666 
L 368.516596 389.312722 
L 368.633085 389.128786 
L 368.855836 388.546322 
L 368.874731 388.393042 
L 368.964769 388.285746 
L 369.014584 388.132466 
L 369.111624 387.197457 
L 369.182016 387.074833 
L 369.321917 386.523025 
L 369.720471 386.431057 
L 369.875928 386.277777 
L 370.057557 385.557361 
L 370.120926 385.434737 
L 370.272543 384.944241 
L 370.379558 384.790961 
L 370.487746 384.377105 
L 370.578351 384.239153 
L 370.686784 383.886609 
L 370.759437 383.733329 
L 370.868488 383.350129 
L 371.355536 382.507089 
L 371.506118 382.353809 
L 371.65296 382.031921 
L 371.755626 381.893969 
L 371.838617 381.664049 
L 371.92717 381.526097 
L 372.047539 381.188881 
L 372.236825 380.989617 
L 372.27862 380.912977 
L 372.388419 380.790353 
L 372.499759 380.422481 
L 372.720861 380.361169 
L 373.278248 380.177233 
L 373.328803 380.131249 
L 373.596248 379.993297 
L 373.856871 379.732721 
L 374.068098 379.610097 
L 374.159686 379.548785 
L 374.692688 379.303537 
L 374.798571 379.104273 
L 375.005296 378.950993 
L 375.128197 378.782385 
L 375.709335 378.138609 
L 376.314572 378.000657 
L 376.823726 377.004337 
L 377.008217 376.759089 
L 377.121075 376.590481 
L 377.343578 376.375889 
L 377.376453 376.329905 
L 377.912493 376.191953 
L 378.054103 375.962033 
L 378.263219 375.824081 
L 378.418692 375.548177 
L 378.539556 375.410225 
L 378.695059 375.272273 
L 378.839493 375.057681 
L 378.914915 374.950385 
L 379.526544 374.766449 
L 379.651521 374.459889 
L 379.854144 374.275953 
L 380.034066 373.984721 
L 380.140633 373.754801 
L 380.385092 373.524881 
L 380.510555 373.371601 
L 380.57034 373.248977 
L 381.060476 373.019057 
L 381.194636 372.804465 
L 381.296858 372.620529 
L 381.961635 371.608881 
L 382.088122 371.394288 
L 382.427732 371.179696 
L 382.747358 371.041744 
L 382.861933 370.84248 
L 383.068347 370.489936 
L 383.371476 370.244688 
L 383.555855 370.030096 
L 384.090542 369.677552 
L 384.396004 369.554928 
L 384.456577 369.447632 
L 384.623313 369.325008 
L 384.734967 369.1564 
L 384.965377 368.957136 
L 385.235873 368.497296 
L 385.571245 367.945488 
L 386.145235 367.577616 
L 386.503354 367.133104 
L 386.775655 366.995152 
L 386.956086 366.581296 
L 387.271082 366.121456 
L 387.379725 365.952848 
L 387.456718 365.814896 
L 387.52821 365.600304 
L 387.683504 365.447024 
L 387.812228 365.278416 
L 388.166122 364.420048 
L 388.299966 364.282096 
L 388.462989 363.730288 
L 389.430967 363.086512 
L 390.356665 362.013552 
L 390.734812 361.844944 
L 390.834083 361.676336 
L 391.120197 361.277808 
L 391.230467 361.1092 
L 392.010642 360.250832 
L 392.137771 359.622384 
L 392.323915 359.469104 
L 392.475762 359.331152 
L 392.573809 359.239184 
L 392.705469 358.993936 
L 392.785931 358.794672 
L 392.960672 358.595408 
L 393.05398 358.27352 
L 393.228617 358.135568 
L 393.72468 357.798352 
L 394.106165 357.645072 
L 394.368248 357.43048 
L 394.50485 357.2772 
L 395.204597 356.495472 
L 395.606381 356.35752 
L 395.664677 356.188912 
L 395.962421 356.05096 
L 396.254983 355.698415 
L 396.430565 355.483823 
L 396.659301 355.238575 
L 397.253291 355.039311 
L 397.345017 354.870703 
L 397.520315 354.702095 
L 397.648376 354.487503 
L 397.874875 354.150287 
L 397.967024 354.012335 
L 398.075277 353.905039 
L 398.096824 353.767087 
L 398.196103 353.429871 
L 398.474861 353.291919 
L 398.717406 353.169295 
L 398.797461 353.061999 
L 398.930718 352.924047 
L 399.263382 352.556175 
L 399.403368 352.295599 
L 399.586216 352.096335 
L 399.710006 351.912399 
L 399.890821 351.667151 
L 400.444022 351.437231 
L 400.464619 351.253295 
L 400.579383 350.073039 
L 400.606426 349.935087 
L 400.717982 349.597871 
L 400.85624 349.383279 
L 400.971124 349.168687 
L 401.105819 349.015407 
L 401.213981 348.846799 
L 401.85192 348.417615 
L 402.102711 348.279663 
L 402.206211 347.743183 
L 402.415652 347.467279 
L 403.128312 346.654895 
L 403.532122 346.470959 
L 403.673734 346.287023 
L 403.79364 346.179727 
L 403.897153 346.026447 
L 404.372987 345.229391 
L 404.46417 345.122095 
L 404.745989 344.953487 
L 405.729566 343.589295 
L 405.850236 343.098799 
L 405.915442 342.960847 
L 405.995379 342.853551 
L 406.946288 342.409039 
L 407.344857 342.041167 
L 407.518044 341.903215 
L 407.701587 341.673295 
L 407.863407 341.458703 
L 408.972769 340.906895 
L 409.097525 340.753615 
L 409.736463 340.508367 
L 410.12589 340.339759 
L 410.247145 340.079183 
L 410.484619 339.956558 
L 410.496389 339.680654 
L 410.598603 339.343438 
L 411.823786 337.427438 
L 411.949605 337.151534 
L 412.054396 336.906286 
L 412.165121 336.860302 
L 412.295783 336.661038 
L 412.400886 336.507758 
L 412.505014 336.354478 
L 412.751348 336.017262 
L 412.808391 335.80267 
L 413.500824 335.588078 
L 413.767923 335.128238 
L 413.831318 334.990286 
L 413.942145 334.453806 
L 414.152811 334.070606 
L 415.204469 333.380846 
L 415.379849 332.35387 
L 415.452669 332.215918 
L 416.520947 330.345902 
L 416.591025 330.192622 
L 416.74715 329.855406 
L 417.203191 329.303598 
L 417.285423 328.843758 
L 417.607858 328.567854 
L 417.767376 328.276622 
L 417.95163 328.13867 
L 418.069379 327.878094 
L 419.22799 325.548238 
L 419.69623 325.318318 
L 419.807779 325.14971 
L 419.928587 323.770189 
L 420.635297 322.743213 
L 420.754939 322.574605 
L 420.862727 322.390669 
L 421.077823 322.114765 
L 421.176469 321.317709 
L 421.424617 321.072461 
L 421.630767 320.811885 
L 422.310953 319.861549 
L 422.413053 319.677613 
L 422.593199 319.600973 
L 422.97692 319.478349 
L 423.118104 319.187117 
L 423.357659 318.895885 
L 423.746658 318.190797 
L 424.522035 317.547021 
L 424.6294 316.412749 
L 424.677955 315.937581 
L 424.786857 315.125197 
L 424.831993 314.803309 
L 425.506064 310.143597 
L 425.545042 309.883021 
L 425.652227 308.902029 
L 425.691205 308.641453 
L 425.788653 308.365548 
L 425.968293 308.089644 
L 426.324591 306.771436 
L 426.431792 306.173644 
L 426.546431 305.790444 
L 426.782603 304.932076 
L 426.880048 304.579532 
L 426.987198 303.920428 
L 427.016514 303.67518 
L 427.123619 303.06206 
L 427.172347 302.786156 
L 427.28303 301.713196 
L 427.30877 301.360652 
L 427.40621 300.76286 
L 427.435446 300.60958 
L 427.542636 299.38334 
L 427.659568 298.524972 
L 427.76676 297.298732 
L 427.795991 297.053484 
L 427.904331 295.735276 
L 427.942159 295.428716 
L 428.049359 294.156492 
L 428.07859 293.911244 
L 428.185775 292.700331 
L 428.215008 292.455083 
L 428.323316 291.152203 
L 428.400152 290.799659 
L 428.510182 290.140555 
L 428.663164 289.542763 
L 428.760622 289.358827 
L 429.04098 289.006283 
L 429.12334 288.929643 
L 429.401754 288.761035 
L 430.348858 287.826027 
L 430.417069 287.519467 
L 430.524267 286.906347 
L 430.592466 286.599787 
L 430.699658 286.185931 
L 430.748381 285.910027 
L 430.855573 285.557483 
L 430.923782 285.250923 
L 431.030975 284.760427 
L 431.089437 284.469195 
L 431.226307 283.411563 
L 431.335185 282.001387 
L 431.72987 281.418923 
L 431.810404 281.280971 
L 431.920248 281.173675 
L 432.102782 280.836459 
L 432.57049 280.652523 
L 432.687427 280.422603 
L 433.045579 279.717515 
L 433.14869 279.610219 
L 433.34911 279.273003 
L 433.442865 279.165707 
L 434.349101 278.460619 
L 434.957913 277.663563 
L 435.055358 277.387659 
L 435.562063 276.973802 
L 435.872456 276.743882 
L 436.004417 276.360682 
L 436.203817 276.192074 
L 436.249409 276.14609 
L 436.440972 276.023466 
L 436.553366 275.900842 
L 436.784866 275.701578 
L 436.894095 275.624938 
L 437.004261 275.563626 
L 437.199149 275.410346 
L 437.306342 275.134442 
L 437.42662 274.904522 
L 437.601047 274.705258 
L 437.879088 274.551978 
L 437.986201 274.475338 
L 438.743422 273.172458 
L 438.842758 273.095818 
L 439.350712 272.452042 
L 439.631852 271.992202 
L 439.861897 271.762282 
L 439.990714 271.440394 
L 441.432912 270.045546 
L 441.539972 269.86161 
L 441.625156 269.693002 
L 441.717506 269.55505 
L 443.072261 268.604714 
L 443.269061 268.40545 
L 444.019736 267.79233 
L 444.515354 267.317162 
L 444.619139 267.148554 
L 444.706959 266.918634 
L 444.814146 266.780682 
L 445.047962 266.474122 
L 445.379276 266.274858 
L 445.965622 265.355178 
L 446.226946 265.171242 
L 446.324394 264.88001 
L 446.617691 264.65009 
L 446.687037 264.604106 
L 447.0385 264.466154 
L 447.245571 264.205578 
L 447.595581 263.975658 
L 447.730252 263.791722 
L 447.825996 263.699754 
L 447.971637 263.485162 
L 448.091172 263.27057 
L 448.160345 263.101962 
L 448.39005 262.96401 
L 449.729076 261.921706 
L 449.817527 261.599818 
L 450.371155 261.124649 
L 450.494146 260.649481 
L 450.785116 260.005705 
L 450.876177 259.867753 
L 450.982206 259.622505 
L 451.180305 259.423241 
L 451.323834 259.208649 
L 452.080079 258.702825 
L 452.716508 258.135689 
L 452.804641 258.013065 
L 452.960132 257.844457 
L 453.057503 257.675849 
L 453.91335 257.430601 
L 454.253543 256.878793 
L 454.363201 256.664201 
L 454.860166 256.020425 
L 455.288811 255.805833 
L 455.47721 255.591241 
L 455.610221 255.300009 
L 455.684106 255.146729 
L 455.931785 254.993449 
L 456.036099 254.855497 
L 456.31656 254.610249 
L 456.614426 254.456969 
L 456.901155 254.181065 
L 457.066519 253.951145 
L 457.282776 253.782537 
L 457.452195 253.629257 
L 457.539624 253.475977 
L 457.630189 253.414665 
L 457.732299 253.276713 
L 457.841627 253.077449 
L 458.599722 252.494985 
L 458.727596 252.326377 
L 459.408686 251.651945 
L 459.446085 251.559977 
L 459.88797 251.391369 
L 460.265392 250.992841 
L 460.667482 250.808905 
L 460.831331 250.609641 
L 460.950057 250.441033 
L 463.569149 248.295113 
L 463.678019 248.111177 
L 464.555492 247.314121 
L 464.783453 247.160841 
L 465.529716 246.348457 
L 465.726987 246.011241 
L 465.807752 245.873289 
L 466.026575 245.505417 
L 466.357889 245.306152 
L 466.456708 244.677704 
L 466.543033 244.509096 
L 466.633497 244.432456 
L 466.81458 244.279176 
L 467.033709 244.079912 
L 467.270283 243.773352 
L 467.91806 243.129576 
L 468.143374 242.991624 
L 469.082832 242.225224 
L 469.398225 242.02596 
L 469.505409 241.903336 
L 469.632088 241.79604 
L 469.882653 241.612104 
L 470.411538 241.121608 
L 470.514836 240.861032 
L 470.772088 240.600456 
L 470.937998 240.462504 
L 471.307902 240.278568 
L 471.580472 240.063976 
L 471.798256 239.8034 
L 472.03889 239.57348 
L 472.174595 239.34356 
L 473.01312 238.57716 
L 473.169059 238.485192 
L 473.441916 238.224616 
L 473.667518 238.04068 
L 473.779077 237.948712 
L 476.074142 236.017384 
L 476.212155 235.864104 
L 476.678401 235.373608 
L 476.746467 235.28164 
L 476.862874 235.143688 
L 476.953469 235.082376 
L 477.8001 234.653192 
L 477.958795 234.530568 
L 478.253863 234.346632 
L 478.342807 234.224008 
L 479.966642 233.227688 
L 480.172044 233.013096 
L 480.989812 232.568584 
L 481.087262 232.430632 
L 481.310785 232.200712 
L 481.432959 232.124072 
L 481.544374 232.016776 
L 481.645642 231.878824 
L 482.256459 231.403656 
L 482.779898 230.851848 
L 482.885974 230.637256 
L 483.045795 230.468648 
L 483.174037 230.177416 
L 483.329353 230.008808 
L 483.569646 229.625607 
L 483.601215 229.380359 
L 484.059197 229.196423 
L 485.647544 227.249767 
L 485.89575 227.111815 
L 486.284456 226.820583 
L 486.793685 226.376071 
L 486.904522 226.253447 
L 487.021454 226.069511 
L 487.119194 225.916231 
L 488.463625 224.705319 
L 488.660627 224.598023 
L 489.578362 224.107527 
L 489.70863 224.046215 
L 489.821512 223.816295 
L 490.012776 223.617031 
L 490.190931 223.463751 
L 490.266134 223.341127 
L 490.610422 223.203175 
L 491.254027 222.789319 
L 491.817529 222.130215 
L 492.173737 221.961607 
L 492.403077 221.762343 
L 492.941771 221.394471 
L 493.189434 221.133895 
L 493.767721 220.827335 
L 493.873617 220.674055 
L 495.303578 219.693063 
L 495.50808 219.539783 
L 495.650595 219.279207 
L 495.958637 219.095271 
L 496.131898 218.987975 
L 496.472501 218.574119 
L 496.511476 218.482151 
L 497.008429 218.282887 
L 497.115621 218.236903 
L 497.563867 218.052967 
L 497.936819 217.807719 
L 498.090087 217.623783 
L 498.168033 217.393863 
L 498.499355 217.194599 
L 499.442809 216.581479 
L 499.542033 216.366887 
L 499.649217 216.228935 
L 500.287532 215.769095 
L 500.311848 215.631143 
L 500.790922 215.079335 
L 501.217894 214.788103 
L 501.480911 214.573511 
L 501.675805 214.420231 
L 501.919423 214.190311 
L 502.139535 214.037031 
L 502.406341 213.776454 
L 502.62748 213.592518 
L 504.168087 212.550214 
L 504.248115 212.42759 
L 504.343239 212.289638 
L 504.518166 212.059718 
L 504.675359 211.937094 
L 505.36733 211.293318 
L 505.691075 210.97143 
L 505.920771 210.81815 
L 506.146922 210.542246 
L 506.256108 210.43495 
L 506.62554 210.251014 
L 507.016767 209.82183 
L 507.49755 209.453958 
L 507.658708 209.316006 
L 508.139984 209.040102 
L 508.231007 208.90215 
L 508.596834 208.702886 
L 508.914666 208.44231 
L 509.020663 208.319686 
L 509.553928 207.890502 
L 509.933983 207.75255 
L 510.216023 207.491974 
L 510.354926 207.29271 
L 510.594731 207.06279 
L 510.870632 206.75623 
L 510.986576 206.572294 
L 511.181166 206.434342 
L 511.736748 206.14311 
L 511.837327 206.035814 
L 512.551656 205.284742 
L 512.905702 205.07015 
L 513.666042 204.334406 
L 514.005889 203.61399 
L 514.114793 203.445382 
L 514.269816 203.322758 
L 514.907564 202.92423 
L 515.044775 202.77095 
L 515.700574 202.219142 
L 516.856033 201.406758 
L 516.91774 201.330118 
L 517.153922 201.146182 
L 517.24304 200.900934 
L 517.61171 200.640358 
L 517.734512 200.563718 
L 518.050153 200.39511 
L 518.157888 200.287814 
L 518.475203 200.103878 
L 518.581967 199.996582 
L 518.75498 199.85863 
L 518.873597 199.70535 
L 520.34509 198.663046 
L 520.448734 198.356486 
L 520.915105 198.095909 
L 521.018775 197.927301 
L 521.373165 197.682053 
L 522.105447 197.007621 
L 522.197139 196.839013 
L 523.061849 196.256549 
L 523.171131 196.164581 
L 523.282599 196.026629 
L 523.518848 195.766053 
L 523.592539 195.628101 
L 523.81645 195.214245 
L 524.801428 194.585797 
L 524.903495 194.524485 
L 525.193935 194.233253 
L 525.337089 194.064645 
L 526.007761 193.681445 
L 526.125659 193.543493 
L 526.805515 192.930373 
L 526.924633 192.608485 
L 527.43006 192.225285 
L 527.659501 192.072005 
L 527.772444 191.964709 
L 527.830908 191.811429 
L 527.909075 191.704133 
L 528.183077 191.474213 
L 528.27359 191.152325 
L 528.396142 190.799781 
L 528.637588 190.554533 
L 528.902229 190.385925 
L 528.949607 190.324613 
L 529.239626 190.201989 
L 529.701725 189.803461 
L 529.905367 189.619525 
L 530.003624 189.450917 
L 530.141765 189.266981 
L 530.266564 189.083045 
L 530.833096 188.745829 
L 530.930265 188.561893 
L 531.23161 188.331973 
L 531.571992 188.086725 
L 531.675865 187.964101 
L 532.107798 187.749509 
L 532.390376 187.580901 
L 533.104224 186.983109 
L 533.214531 186.906469 
L 533.382699 186.676549 
L 534.085836 186.216709 
L 534.281741 185.925477 
L 534.446564 185.649573 
L 534.599005 185.542277 
L 535.13882 185.036453 
L 535.342116 184.913829 
L 535.979458 184.591941 
L 536.505868 183.917509 
L 538.101186 183.105125 
L 538.356349 182.967173 
L 538.445511 182.875205 
L 539.076855 182.629957 
L 539.200842 182.507333 
L 539.493162 182.338724 
L 539.919544 181.67962 
L 540.069165 181.327076 
L 540.510422 181.127812 
L 540.774525 180.851908 
L 540.856217 180.75994 
L 541.278176 180.484036 
L 541.764457 180.177476 
L 541.793691 180.14682 
L 542.224804 180.024196 
L 542.454822 179.855588 
L 542.670773 179.625668 
L 542.797375 179.45706 
L 542.91412 179.30378 
L 543.181194 178.859268 
L 543.225364 178.7673 
L 543.778044 178.61402 
L 543.892486 178.491396 
L 544.131273 178.246148 
L 544.230049 178.169508 
L 544.512329 177.92426 
L 544.764869 177.724996 
L 545.300126 177.479748 
L 545.408067 177.403108 
L 545.899308 176.881956 
L 546.124713 176.713348 
L 546.324846 176.39146 
L 546.441442 176.23818 
L 546.568123 176.192196 
L 546.87994 176.038916 
L 547.129856 175.824324 
L 547.364856 175.640388 
L 547.539211 175.47178 
L 547.671492 175.333828 
L 547.729597 175.119236 
L 547.815231 174.981284 
L 548.068584 174.812676 
L 548.351172 174.521444 
L 548.613737 174.337508 
L 548.718405 174.1689 
L 549.130141 173.847012 
L 550.046459 173.0193 
L 550.497777 172.850692 
L 550.719828 172.574788 
L 550.93388 172.390852 
L 551.139708 172.237572 
L 551.675646 171.823716 
L 551.946264 171.593796 
L 552.260192 171.33322 
L 553.083589 170.79674 
L 553.447883 170.612804 
L 553.681219 170.290916 
L 554.121387 169.87706 
L 554.339499 169.5705 
L 554.433709 169.386564 
L 555.047151 169.11066 
L 555.349061 168.972708 
L 555.466092 168.850084 
L 555.719271 168.589508 
L 555.81469 168.236964 
L 555.929577 168.099012 
L 556.235569 167.80778 
L 556.634463 167.669828 
L 556.713695 167.562532 
L 557.025504 167.42458 
L 557.135098 167.393924 
L 557.243547 167.240644 
L 557.866475 166.673507 
L 558.47246 166.504899 
L 558.580757 166.382275 
L 559.548394 165.799811 
L 559.835293 165.661859 
L 560.279233 165.370627 
L 560.391463 165.248003 
L 560.451757 165.140707 
L 560.605507 165.002755 
L 560.717615 164.757507 
L 561.007333 164.573571 
L 561.433768 164.251683 
L 561.536403 164.113731 
L 562.158503 163.745859 
L 562.432606 163.531267 
L 562.598349 163.270691 
L 562.812643 163.040771 
L 563.245452 162.550275 
L 563.769737 162.075107 
L 564.072169 161.645923 
L 565.181527 160.802883 
L 565.287245 160.649603 
L 565.483951 160.480995 
L 565.741574 160.220419 
L 567.049005 158.963523 
L 567.372435 158.641635 
L 567.84009 158.488355 
L 568.200621 158.181795 
L 568.411141 157.982531 
L 568.580738 157.829251 
L 568.677528 157.660643 
L 569.05798 157.354083 
L 569.604039 157.124163 
L 569.869833 156.894243 
L 569.958247 156.756291 
L 571.347098 154.901603 
L 571.425405 154.763651 
L 571.835842 154.257827 
L 571.941841 154.073891 
L 572.901688 153.276835 
L 573.282161 153.123555 
L 573.374188 153.016259 
L 573.67912 152.862979 
L 573.939142 152.648387 
L 574.252261 152.495107 
L 574.478249 152.326499 
L 574.692117 152.173219 
L 575.066603 151.682723 
L 575.180132 151.544771 
L 575.488434 151.422147 
L 575.868492 151.299523 
L 576.014471 151.176899 
L 576.105425 151.084931 
L 576.362683 150.885666 
L 576.487613 150.763042 
L 576.678893 150.609762 
L 576.75509 150.517794 
L 576.872003 150.364514 
L 577.322932 150.149922 
L 577.531422 149.904674 
L 577.622307 149.736066 
L 577.864709 149.582786 
L 578.034144 149.352866 
L 578.645563 148.78573 
L 579.119184 148.617122 
L 579.434398 148.295234 
L 579.789206 148.049986 
L 579.919183 147.94269 
L 580.135834 147.590146 
L 580.23329 147.436866 
L 580.483277 147.298914 
L 583.039783 145.689474 
L 583.244437 145.536194 
L 583.327063 145.26029 
L 583.507566 144.907746 
L 583.673212 144.754466 
L 583.918761 144.509218 
L 584.14309 144.34061 
L 584.248078 144.141346 
L 584.781663 143.620194 
L 585.329585 143.145026 
L 585.650443 142.945762 
L 585.706307 142.838466 
L 585.949616 142.700514 
L 586.103849 142.439938 
L 586.265009 142.210018 
L 586.518361 141.872802 
L 586.711199 141.796162 
L 587.248857 141.397634 
L 587.385283 141.244354 
L 587.582165 141.091074 
L 587.663197 140.999106 
L 587.89194 140.81517 
L 588.155005 140.569922 
L 588.345908 140.462626 
L 588.920446 140.186722 
L 589.218048 140.018114 
L 589.366833 139.880162 
L 589.503943 139.772866 
L 590.975996 138.837858 
L 591.07846 138.776546 
L 591.26335 138.454658 
L 591.369997 138.332034 
L 591.564898 138.102114 
L 591.921332 137.887522 
L 592.466355 137.412354 
L 592.578323 137.335714 
L 592.839637 137.197762 
L 592.943932 136.967842 
L 593.292685 136.768578 
L 593.386965 136.722594 
L 593.568053 136.569314 
L 593.721447 136.44669 
L 594.019041 136.29341 
L 594.125222 136.170786 
L 594.394562 135.848898 
L 594.471808 135.726274 
L 594.672928 135.557666 
L 594.84833 135.419714 
L 595.118751 135.205121 
L 595.228361 134.929217 
L 595.33964 134.775937 
L 595.424998 134.699297 
L 595.596145 134.546017 
L 596.118819 134.162817 
L 596.290307 133.994209 
L 596.436475 133.733633 
L 596.530366 133.641665 
L 597.370086 132.951905 
L 597.669267 132.584033 
L 597.900005 132.384769 
L 598.271449 132.170177 
L 598.638618 131.832961 
L 598.767851 131.633697 
L 599.145278 131.311809 
L 599.513067 130.959265 
L 600.031921 130.652705 
L 600.140682 130.576065 
L 600.879644 129.549089 
L 600.965851 129.411137 
L 601.088055 129.257857 
L 601.347224 129.043265 
L 601.581098 128.905313 
L 601.941561 128.537441 
L 602.629077 127.847681 
L 602.7278 127.725057 
L 604.107248 126.652097 
L 604.227797 126.314881 
L 605.263798 125.487169 
L 605.312619 125.410529 
L 605.52293 125.257249 
L 605.748391 124.981345 
L 605.994858 124.797409 
L 606.405372 124.598145 
L 606.5159 123.923713 
L 606.862518 123.724449 
L 607.193158 123.571169 
L 607.325777 123.371905 
L 607.384196 123.310593 
L 608.537744 122.912065 
L 608.605851 122.850753 
L 608.829928 122.666817 
L 608.970922 122.482881 
L 609.175118 122.344929 
L 609.278011 122.237633 
L 610.148173 121.639841 
L 610.242645 121.486561 
L 610.53972 121.287297 
L 610.654082 121.134017 
L 612.174018 120.153025 
L 612.288934 119.953761 
L 612.737199 119.309984 
L 613.059641 119.156704 
L 613.195774 118.95744 
L 613.770507 118.482272 
L 613.883885 118.26768 
L 614.643271 117.792512 
L 614.793129 117.623904 
L 614.935663 117.42464 
L 615.952725 116.566272 
L 616.577946 116.290368 
L 616.829655 116.183072 
L 617.092675 116.029792 
L 617.560319 115.799872 
L 618.076683 115.493312 
L 619.585994 114.313056 
L 619.801228 114.159776 
L 620.03856 113.761248 
L 620.144672 113.531328 
L 620.462945 113.270752 
L 620.620567 113.20944 
L 620.960624 113.05616 
L 621.271222 112.734272 
L 621.778874 112.44304 
L 622.305015 111.783936 
L 622.635743 111.615328 
L 622.636364 111.6 
L 622.636364 111.6 
" style="fill:none;stroke:#92c6ff;stroke-linecap:round;stroke-width:1.5;"/>
   </g>
   <g id="line2d_28">
    <defs>
     <path d="M 0 2.5 
C 0.663008 2.5 1.29895 2.236584 1.767767 1.767767 
C 2.236584 1.29895 2.5 0.663008 2.5 0 
C 2.5 -0.663008 2.236584 -1.29895 1.767767 -1.767767 
C 1.29895 -2.236584 0.663008 -2.5 0 -2.5 
C -0.663008 -2.5 -1.29895 -2.236584 -1.767767 -1.767767 
C -2.236584 -1.29895 -2.5 -0.663008 -2.5 0 
C -2.5 0.663008 -2.236584 1.29895 -1.767767 1.767767 
C -1.29895 2.236584 -0.663008 2.5 0 2.5 
z
" id="me9ece10cc2" style="stroke:#696969;"/>
    </defs>
    <g clip-path="url(#padd458bacf)">
     <use style="fill:#696969;stroke:#696969;" x="115.363636" xlink:href="#me9ece10cc2" y="615.6"/>
    </g>
   </g>
   <g id="line2d_29">
    <g clip-path="url(#padd458bacf)">
     <use style="fill:#696969;stroke:#696969;" x="217.432964" xlink:href="#me9ece10cc2" y="565.186205"/>
    </g>
   </g>
   <g id="line2d_30">
    <g clip-path="url(#padd458bacf)">
     <use style="fill:#696969;stroke:#696969;" x="275.839766" xlink:href="#me9ece10cc2" y="514.77241"/>
    </g>
   </g>
   <g id="line2d_31">
    <g clip-path="url(#padd458bacf)">
     <use style="fill:#696969;stroke:#696969;" x="314.025938" xlink:href="#me9ece10cc2" y="464.373942"/>
    </g>
   </g>
   <g id="line2d_32">
    <g clip-path="url(#padd458bacf)">
     <use style="fill:#696969;stroke:#696969;" x="355.29797" xlink:href="#me9ece10cc2" y="413.975475"/>
    </g>
   </g>
   <g id="line2d_33">
    <g clip-path="url(#padd458bacf)">
     <use style="fill:#696969;stroke:#696969;" x="388.560187" xlink:href="#me9ece10cc2" y="363.577008"/>
    </g>
   </g>
   <g id="line2d_34">
    <g clip-path="url(#padd458bacf)">
     <use style="fill:#696969;stroke:#696969;" x="425.057997" xlink:href="#me9ece10cc2" y="313.178541"/>
    </g>
   </g>
   <g id="line2d_35">
    <g clip-path="url(#padd458bacf)">
     <use style="fill:#696969;stroke:#696969;" x="448.696361" xlink:href="#me9ece10cc2" y="262.780074"/>
    </g>
   </g>
   <g id="line2d_36">
    <g clip-path="url(#padd458bacf)">
     <use style="fill:#696969;stroke:#696969;" x="504.254039" xlink:href="#me9ece10cc2" y="212.381606"/>
    </g>
   </g>
   <g id="line2d_37">
    <g clip-path="url(#padd458bacf)">
     <use style="fill:#696969;stroke:#696969;" x="563.82588" xlink:href="#me9ece10cc2" y="161.983139"/>
    </g>
   </g>
   <g id="line2d_38">
    <g clip-path="url(#padd458bacf)">
     <use style="fill:#696969;stroke:#696969;" x="622.636364" xlink:href="#me9ece10cc2" y="111.6"/>
    </g>
   </g>
   <g id="patch_3">
    <path d="M 90 640.8 
L 90 86.4 
" style="fill:none;stroke:#cccccc;stroke-linecap:square;stroke-linejoin:miter;"/>
   </g>
   <g id="patch_4">
    <path d="M 648 640.8 
L 648 86.4 
" style="fill:none;stroke:#cccccc;stroke-linecap:square;stroke-linejoin:miter;"/>
   </g>
   <g id="patch_5">
    <path d="M 90 640.8 
L 648 640.8 
" style="fill:none;stroke:#cccccc;stroke-linecap:square;stroke-linejoin:miter;"/>
   </g>
   <g id="patch_6">
    <path d="M 90 86.4 
L 648 86.4 
" style="fill:none;stroke:#cccccc;stroke-linecap:square;stroke-linejoin:miter;"/>
   </g>
   <g id="text_14">
    <!-- 1 (2014-06-09) -->
    <defs>
     <path id="DejaVuSans-32"/>
     <path d="M 31 75.875 
Q 24.46875 64.65625 21.28125 53.65625 
Q 18.109375 42.671875 18.109375 31.390625 
Q 18.109375 20.125 21.3125 9.0625 
Q 24.515625 -2 31 -13.1875 
L 23.1875 -13.1875 
Q 15.875 -1.703125 12.234375 9.375 
Q 8.59375 20.453125 8.59375 31.390625 
Q 8.59375 42.28125 12.203125 53.3125 
Q 15.828125 64.359375 23.1875 75.875 
z
" id="DejaVuSans-40"/>
     <path d="M 37.796875 64.3125 
L 12.890625 25.390625 
L 37.796875 25.390625 
z
M 35.203125 72.90625 
L 47.609375 72.90625 
L 47.609375 25.390625 
L 58.015625 25.390625 
L 58.015625 17.1875 
L 47.609375 17.1875 
L 47.609375 0 
L 37.796875 0 
L 37.796875 17.1875 
L 4.890625 17.1875 
L 4.890625 26.703125 
z
" id="DejaVuSans-52"/>
     <path d="M 4.890625 31.390625 
L 31.203125 31.390625 
L 31.203125 23.390625 
L 4.890625 23.390625 
z
" id="DejaVuSans-45"/>
     <path d="M 8.015625 75.875 
L 15.828125 75.875 
Q 23.140625 64.359375 26.78125 53.3125 
Q 30.421875 42.28125 30.421875 31.390625 
Q 30.421875 20.453125 26.78125 9.375 
Q 23.140625 -1.703125 15.828125 -13.1875 
L 8.015625 -13.1875 
Q 14.5 -2 17.703125 9.0625 
Q 20.90625 20.125 20.90625 31.390625 
Q 20.90625 42.671875 17.703125 53.65625 
Q 14.5 64.65625 8.015625 75.875 
z
" id="DejaVuSans-41"/>
    </defs>
    <g style="fill:#262626;" transform="translate(120.363636 623.198437)scale(0.1 -0.1)">
     <use xlink:href="#DejaVuSans-49"/>
     <use x="63.623047" xlink:href="#DejaVuSans-32"/>
     <use x="95.410156" xlink:href="#DejaVuSans-40"/>
     <use x="134.423828" xlink:href="#DejaVuSans-50"/>
     <use x="198.046875" xlink:href="#DejaVuSans-48"/>
     <use x="261.669922" xlink:href="#DejaVuSans-49"/>
     <use x="325.292969" xlink:href="#DejaVuSans-52"/>
     <use x="388.916016" xlink:href="#DejaVuSans-45"/>
     <use x="425" xlink:href="#DejaVuSans-48"/>
     <use x="488.623047" xlink:href="#DejaVuSans-54"/>
     <use x="552.246094" xlink:href="#DejaVuSans-45"/>
     <use x="588.330078" xlink:href="#DejaVuSans-48"/>
     <use x="651.953125" xlink:href="#DejaVuSans-57"/>
     <use x="715.576172" xlink:href="#DejaVuSans-41"/>
    </g>
   </g>
   <g id="text_15">
    <!-- 3290 (2015-08-26) -->
    <g style="fill:#262626;" transform="translate(222.432964 572.784642)scale(0.1 -0.1)">
     <use xlink:href="#DejaVuSans-51"/>
     <use x="63.623047" xlink:href="#DejaVuSans-50"/>
     <use x="127.246094" xlink:href="#DejaVuSans-57"/>
     <use x="190.869141" xlink:href="#DejaVuSans-48"/>
     <use x="254.492188" xlink:href="#DejaVuSans-32"/>
     <use x="286.279297" xlink:href="#DejaVuSans-40"/>
     <use x="325.292969" xlink:href="#DejaVuSans-50"/>
     <use x="388.916016" xlink:href="#DejaVuSans-48"/>
     <use x="452.539062" xlink:href="#DejaVuSans-49"/>
     <use x="516.162109" xlink:href="#DejaVuSans-53"/>
     <use x="579.785156" xlink:href="#DejaVuSans-45"/>
     <use x="615.869141" xlink:href="#DejaVuSans-48"/>
     <use x="679.492188" xlink:href="#DejaVuSans-56"/>
     <use x="743.115234" xlink:href="#DejaVuSans-45"/>
     <use x="779.199219" xlink:href="#DejaVuSans-50"/>
     <use x="842.822266" xlink:href="#DejaVuSans-54"/>
     <use x="906.445312" xlink:href="#DejaVuSans-41"/>
    </g>
   </g>
   <g id="text_16">
    <!-- 6579 (2016-05-06) -->
    <g style="fill:#262626;" transform="translate(280.839766 522.370847)scale(0.1 -0.1)">
     <use xlink:href="#DejaVuSans-54"/>
     <use x="63.623047" xlink:href="#DejaVuSans-53"/>
     <use x="127.246094" xlink:href="#DejaVuSans-55"/>
     <use x="190.869141" xlink:href="#DejaVuSans-57"/>
     <use x="254.492188" xlink:href="#DejaVuSans-32"/>
     <use x="286.279297" xlink:href="#DejaVuSans-40"/>
     <use x="325.292969" xlink:href="#DejaVuSans-50"/>
     <use x="388.916016" xlink:href="#DejaVuSans-48"/>
     <use x="452.539062" xlink:href="#DejaVuSans-49"/>
     <use x="516.162109" xlink:href="#DejaVuSans-54"/>
     <use x="579.785156" xlink:href="#DejaVuSans-45"/>
     <use x="615.869141" xlink:href="#DejaVuSans-48"/>
     <use x="679.492188" xlink:href="#DejaVuSans-53"/>
     <use x="743.115234" xlink:href="#DejaVuSans-45"/>
     <use x="779.199219" xlink:href="#DejaVuSans-48"/>
     <use x="842.822266" xlink:href="#DejaVuSans-54"/>
     <use x="906.445312" xlink:href="#DejaVuSans-41"/>
    </g>
   </g>
   <g id="text_17">
    <!-- 9867 (2016-10-19) -->
    <g style="fill:#262626;" transform="translate(319.025938 471.97238)scale(0.1 -0.1)">
     <use xlink:href="#DejaVuSans-57"/>
     <use x="63.623047" xlink:href="#DejaVuSans-56"/>
     <use x="127.246094" xlink:href="#DejaVuSans-54"/>
     <use x="190.869141" xlink:href="#DejaVuSans-55"/>
     <use x="254.492188" xlink:href="#DejaVuSans-32"/>
     <use x="286.279297" xlink:href="#DejaVuSans-40"/>
     <use x="325.292969" xlink:href="#DejaVuSans-50"/>
     <use x="388.916016" xlink:href="#DejaVuSans-48"/>
     <use x="452.539062" xlink:href="#DejaVuSans-49"/>
     <use x="516.162109" xlink:href="#DejaVuSans-54"/>
     <use x="579.785156" xlink:href="#DejaVuSans-45"/>
     <use x="615.869141" xlink:href="#DejaVuSans-49"/>
     <use x="679.492188" xlink:href="#DejaVuSans-48"/>
     <use x="743.115234" xlink:href="#DejaVuSans-45"/>
     <use x="779.199219" xlink:href="#DejaVuSans-49"/>
     <use x="842.822266" xlink:href="#DejaVuSans-57"/>
     <use x="906.445312" xlink:href="#DejaVuSans-41"/>
    </g>
   </g>
   <g id="text_18">
    <!-- 13155 (2017-04-17) -->
    <g style="fill:#262626;" transform="translate(360.29797 421.573913)scale(0.1 -0.1)">
     <use xlink:href="#DejaVuSans-49"/>
     <use x="63.623047" xlink:href="#DejaVuSans-51"/>
     <use x="127.246094" xlink:href="#DejaVuSans-49"/>
     <use x="190.869141" xlink:href="#DejaVuSans-53"/>
     <use x="254.492188" xlink:href="#DejaVuSans-53"/>
     <use x="318.115234" xlink:href="#DejaVuSans-32"/>
     <use x="349.902344" xlink:href="#DejaVuSans-40"/>
     <use x="388.916016" xlink:href="#DejaVuSans-50"/>
     <use x="452.539062" xlink:href="#DejaVuSans-48"/>
     <use x="516.162109" xlink:href="#DejaVuSans-49"/>
     <use x="579.785156" xlink:href="#DejaVuSans-55"/>
     <use x="643.408203" xlink:href="#DejaVuSans-45"/>
     <use x="679.492188" xlink:href="#DejaVuSans-48"/>
     <use x="743.115234" xlink:href="#DejaVuSans-52"/>
     <use x="806.738281" xlink:href="#DejaVuSans-45"/>
     <use x="842.822266" xlink:href="#DejaVuSans-49"/>
     <use x="906.445312" xlink:href="#DejaVuSans-55"/>
     <use x="970.068359" xlink:href="#DejaVuSans-41"/>
    </g>
   </g>
   <g id="text_19">
    <!-- 16443 (2017-09-08) -->
    <g style="fill:#262626;" transform="translate(393.560187 371.175445)scale(0.1 -0.1)">
     <use xlink:href="#DejaVuSans-49"/>
     <use x="63.623047" xlink:href="#DejaVuSans-54"/>
     <use x="127.246094" xlink:href="#DejaVuSans-52"/>
     <use x="190.869141" xlink:href="#DejaVuSans-52"/>
     <use x="254.492188" xlink:href="#DejaVuSans-51"/>
     <use x="318.115234" xlink:href="#DejaVuSans-32"/>
     <use x="349.902344" xlink:href="#DejaVuSans-40"/>
     <use x="388.916016" xlink:href="#DejaVuSans-50"/>
     <use x="452.539062" xlink:href="#DejaVuSans-48"/>
     <use x="516.162109" xlink:href="#DejaVuSans-49"/>
     <use x="579.785156" xlink:href="#DejaVuSans-55"/>
     <use x="643.408203" xlink:href="#DejaVuSans-45"/>
     <use x="679.492188" xlink:href="#DejaVuSans-48"/>
     <use x="743.115234" xlink:href="#DejaVuSans-57"/>
     <use x="806.738281" xlink:href="#DejaVuSans-45"/>
     <use x="842.822266" xlink:href="#DejaVuSans-48"/>
     <use x="906.445312" xlink:href="#DejaVuSans-56"/>
     <use x="970.068359" xlink:href="#DejaVuSans-41"/>
    </g>
   </g>
   <g id="text_20">
    <!-- 19731 (2018-02-14) -->
    <g style="fill:#262626;" transform="translate(430.057997 320.776978)scale(0.1 -0.1)">
     <use xlink:href="#DejaVuSans-49"/>
     <use x="63.623047" xlink:href="#DejaVuSans-57"/>
     <use x="127.246094" xlink:href="#DejaVuSans-55"/>
     <use x="190.869141" xlink:href="#DejaVuSans-51"/>
     <use x="254.492188" xlink:href="#DejaVuSans-49"/>
     <use x="318.115234" xlink:href="#DejaVuSans-32"/>
     <use x="349.902344" xlink:href="#DejaVuSans-40"/>
     <use x="388.916016" xlink:href="#DejaVuSans-50"/>
     <use x="452.539062" xlink:href="#DejaVuSans-48"/>
     <use x="516.162109" xlink:href="#DejaVuSans-49"/>
     <use x="579.785156" xlink:href="#DejaVuSans-56"/>
     <use x="643.408203" xlink:href="#DejaVuSans-45"/>
     <use x="679.492188" xlink:href="#DejaVuSans-48"/>
     <use x="743.115234" xlink:href="#DejaVuSans-50"/>
     <use x="806.738281" xlink:href="#DejaVuSans-45"/>
     <use x="842.822266" xlink:href="#DejaVuSans-49"/>
     <use x="906.445312" xlink:href="#DejaVuSans-52"/>
     <use x="970.068359" xlink:href="#DejaVuSans-41"/>
    </g>
   </g>
   <g id="text_21">
    <!-- 23019 (2018-05-28) -->
    <g style="fill:#262626;" transform="translate(453.696361 270.378511)scale(0.1 -0.1)">
     <use xlink:href="#DejaVuSans-50"/>
     <use x="63.623047" xlink:href="#DejaVuSans-51"/>
     <use x="127.246094" xlink:href="#DejaVuSans-48"/>
     <use x="190.869141" xlink:href="#DejaVuSans-49"/>
     <use x="254.492188" xlink:href="#DejaVuSans-57"/>
     <use x="318.115234" xlink:href="#DejaVuSans-32"/>
     <use x="349.902344" xlink:href="#DejaVuSans-40"/>
     <use x="388.916016" xlink:href="#DejaVuSans-50"/>
     <use x="452.539062" xlink:href="#DejaVuSans-48"/>
     <use x="516.162109" xlink:href="#DejaVuSans-49"/>
     <use x="579.785156" xlink:href="#DejaVuSans-56"/>
     <use x="643.408203" xlink:href="#DejaVuSans-45"/>
     <use x="679.492188" xlink:href="#DejaVuSans-48"/>
     <use x="743.115234" xlink:href="#DejaVuSans-53"/>
     <use x="806.738281" xlink:href="#DejaVuSans-45"/>
     <use x="842.822266" xlink:href="#DejaVuSans-50"/>
     <use x="906.445312" xlink:href="#DejaVuSans-56"/>
     <use x="970.068359" xlink:href="#DejaVuSans-41"/>
    </g>
   </g>
   <g id="text_22">
    <!-- 26307 (2019-01-24) -->
    <g style="fill:#262626;" transform="translate(509.254039 219.980044)scale(0.1 -0.1)">
     <use xlink:href="#DejaVuSans-50"/>
     <use x="63.623047" xlink:href="#DejaVuSans-54"/>
     <use x="127.246094" xlink:href="#DejaVuSans-51"/>
     <use x="190.869141" xlink:href="#DejaVuSans-48"/>
     <use x="254.492188" xlink:href="#DejaVuSans-55"/>
     <use x="318.115234" xlink:href="#DejaVuSans-32"/>
     <use x="349.902344" xlink:href="#DejaVuSans-40"/>
     <use x="388.916016" xlink:href="#DejaVuSans-50"/>
     <use x="452.539062" xlink:href="#DejaVuSans-48"/>
     <use x="516.162109" xlink:href="#DejaVuSans-49"/>
     <use x="579.785156" xlink:href="#DejaVuSans-57"/>
     <use x="643.408203" xlink:href="#DejaVuSans-45"/>
     <use x="679.492188" xlink:href="#DejaVuSans-48"/>
     <use x="743.115234" xlink:href="#DejaVuSans-49"/>
     <use x="806.738281" xlink:href="#DejaVuSans-45"/>
     <use x="842.822266" xlink:href="#DejaVuSans-50"/>
     <use x="906.445312" xlink:href="#DejaVuSans-52"/>
     <use x="970.068359" xlink:href="#DejaVuSans-41"/>
    </g>
   </g>
   <g id="text_23">
    <!-- 29595 (2019-10-10) -->
    <g style="fill:#262626;" transform="translate(568.82588 169.581577)scale(0.1 -0.1)">
     <use xlink:href="#DejaVuSans-50"/>
     <use x="63.623047" xlink:href="#DejaVuSans-57"/>
     <use x="127.246094" xlink:href="#DejaVuSans-53"/>
     <use x="190.869141" xlink:href="#DejaVuSans-57"/>
     <use x="254.492188" xlink:href="#DejaVuSans-53"/>
     <use x="318.115234" xlink:href="#DejaVuSans-32"/>
     <use x="349.902344" xlink:href="#DejaVuSans-40"/>
     <use x="388.916016" xlink:href="#DejaVuSans-50"/>
     <use x="452.539062" xlink:href="#DejaVuSans-48"/>
     <use x="516.162109" xlink:href="#DejaVuSans-49"/>
     <use x="579.785156" xlink:href="#DejaVuSans-57"/>
     <use x="643.408203" xlink:href="#DejaVuSans-45"/>
     <use x="679.492188" xlink:href="#DejaVuSans-49"/>
     <use x="743.115234" xlink:href="#DejaVuSans-48"/>
     <use x="806.738281" xlink:href="#DejaVuSans-45"/>
     <use x="842.822266" xlink:href="#DejaVuSans-49"/>
     <use x="906.445312" xlink:href="#DejaVuSans-48"/>
     <use x="970.068359" xlink:href="#DejaVuSans-41"/>
    </g>
   </g>
   <g id="text_24">
    <!-- 32882 (2020-06-22) -->
    <g style="fill:#262626;" transform="translate(627.636364 119.198438)scale(0.1 -0.1)">
     <use xlink:href="#DejaVuSans-51"/>
     <use x="63.623047" xlink:href="#DejaVuSans-50"/>
     <use x="127.246094" xlink:href="#DejaVuSans-56"/>
     <use x="190.869141" xlink:href="#DejaVuSans-56"/>
     <use x="254.492188" xlink:href="#DejaVuSans-50"/>
     <use x="318.115234" xlink:href="#DejaVuSans-32"/>
     <use x="349.902344" xlink:href="#DejaVuSans-40"/>
     <use x="388.916016" xlink:href="#DejaVuSans-50"/>
     <use x="452.539062" xlink:href="#DejaVuSans-48"/>
     <use x="516.162109" xlink:href="#DejaVuSans-50"/>
     <use x="579.785156" xlink:href="#DejaVuSans-48"/>
     <use x="643.408203" xlink:href="#DejaVuSans-45"/>
     <use x="679.492188" xlink:href="#DejaVuSans-48"/>
     <use x="743.115234" xlink:href="#DejaVuSans-54"/>
     <use x="806.738281" xlink:href="#DejaVuSans-45"/>
     <use x="842.822266" xlink:href="#DejaVuSans-50"/>
     <use x="906.445312" xlink:href="#DejaVuSans-50"/>
     <use x="970.068359" xlink:href="#DejaVuSans-41"/>
    </g>
   </g>
   <g id="text_25">
    <!-- Closed issues over time -->
    <defs>
     <path d="M 64.40625 67.28125 
L 64.40625 56.890625 
Q 59.421875 61.53125 53.78125 63.8125 
Q 48.140625 66.109375 41.796875 66.109375 
Q 29.296875 66.109375 22.65625 58.46875 
Q 16.015625 50.828125 16.015625 36.375 
Q 16.015625 21.96875 22.65625 14.328125 
Q 29.296875 6.6875 41.796875 6.6875 
Q 48.140625 6.6875 53.78125 8.984375 
Q 59.421875 11.28125 64.40625 15.921875 
L 64.40625 5.609375 
Q 59.234375 2.09375 53.4375 0.328125 
Q 47.65625 -1.421875 41.21875 -1.421875 
Q 24.65625 -1.421875 15.125 8.703125 
Q 5.609375 18.84375 5.609375 36.375 
Q 5.609375 53.953125 15.125 64.078125 
Q 24.65625 74.21875 41.21875 74.21875 
Q 47.75 74.21875 53.53125 72.484375 
Q 59.328125 70.75 64.40625 67.28125 
z
" id="DejaVuSans-67"/>
     <path d="M 9.421875 75.984375 
L 18.40625 75.984375 
L 18.40625 0 
L 9.421875 0 
z
" id="DejaVuSans-108"/>
     <path d="M 30.609375 48.390625 
Q 23.390625 48.390625 19.1875 42.75 
Q 14.984375 37.109375 14.984375 27.296875 
Q 14.984375 17.484375 19.15625 11.84375 
Q 23.34375 6.203125 30.609375 6.203125 
Q 37.796875 6.203125 41.984375 11.859375 
Q 46.1875 17.53125 46.1875 27.296875 
Q 46.1875 37.015625 41.984375 42.703125 
Q 37.796875 48.390625 30.609375 48.390625 
z
M 30.609375 56 
Q 42.328125 56 49.015625 48.375 
Q 55.71875 40.765625 55.71875 27.296875 
Q 55.71875 13.875 49.015625 6.21875 
Q 42.328125 -1.421875 30.609375 -1.421875 
Q 18.84375 -1.421875 12.171875 6.21875 
Q 5.515625 13.875 5.515625 27.296875 
Q 5.515625 40.765625 12.171875 48.375 
Q 18.84375 56 30.609375 56 
z
" id="DejaVuSans-111"/>
     <path d="M 44.28125 53.078125 
L 44.28125 44.578125 
Q 40.484375 46.53125 36.375 47.5 
Q 32.28125 48.484375 27.875 48.484375 
Q 21.1875 48.484375 17.84375 46.4375 
Q 14.5 44.390625 14.5 40.28125 
Q 14.5 37.15625 16.890625 35.375 
Q 19.28125 33.59375 26.515625 31.984375 
L 29.59375 31.296875 
Q 39.15625 29.25 43.1875 25.515625 
Q 47.21875 21.78125 47.21875 15.09375 
Q 47.21875 7.46875 41.1875 3.015625 
Q 35.15625 -1.421875 24.609375 -1.421875 
Q 20.21875 -1.421875 15.453125 -0.5625 
Q 10.6875 0.296875 5.421875 2 
L 5.421875 11.28125 
Q 10.40625 8.6875 15.234375 7.390625 
Q 20.0625 6.109375 24.8125 6.109375 
Q 31.15625 6.109375 34.5625 8.28125 
Q 37.984375 10.453125 37.984375 14.40625 
Q 37.984375 18.0625 35.515625 20.015625 
Q 33.0625 21.96875 24.703125 23.78125 
L 21.578125 24.515625 
Q 13.234375 26.265625 9.515625 29.90625 
Q 5.8125 33.546875 5.8125 39.890625 
Q 5.8125 47.609375 11.28125 51.796875 
Q 16.75 56 26.8125 56 
Q 31.78125 56 36.171875 55.265625 
Q 40.578125 54.546875 44.28125 53.078125 
z
" id="DejaVuSans-115"/>
     <path d="M 56.203125 29.59375 
L 56.203125 25.203125 
L 14.890625 25.203125 
Q 15.484375 15.921875 20.484375 11.0625 
Q 25.484375 6.203125 34.421875 6.203125 
Q 39.59375 6.203125 44.453125 7.46875 
Q 49.3125 8.734375 54.109375 11.28125 
L 54.109375 2.78125 
Q 49.265625 0.734375 44.1875 -0.34375 
Q 39.109375 -1.421875 33.890625 -1.421875 
Q 20.796875 -1.421875 13.15625 6.1875 
Q 5.515625 13.8125 5.515625 26.8125 
Q 5.515625 40.234375 12.765625 48.109375 
Q 20.015625 56 32.328125 56 
Q 43.359375 56 49.78125 48.890625 
Q 56.203125 41.796875 56.203125 29.59375 
z
M 47.21875 32.234375 
Q 47.125 39.59375 43.09375 43.984375 
Q 39.0625 48.390625 32.421875 48.390625 
Q 24.90625 48.390625 20.390625 44.140625 
Q 15.875 39.890625 15.1875 32.171875 
z
" id="DejaVuSans-101"/>
     <path d="M 45.40625 46.390625 
L 45.40625 75.984375 
L 54.390625 75.984375 
L 54.390625 0 
L 45.40625 0 
L 45.40625 8.203125 
Q 42.578125 3.328125 38.25 0.953125 
Q 33.9375 -1.421875 27.875 -1.421875 
Q 17.96875 -1.421875 11.734375 6.484375 
Q 5.515625 14.40625 5.515625 27.296875 
Q 5.515625 40.1875 11.734375 48.09375 
Q 17.96875 56 27.875 56 
Q 33.9375 56 38.25 53.625 
Q 42.578125 51.265625 45.40625 46.390625 
z
M 14.796875 27.296875 
Q 14.796875 17.390625 18.875 11.75 
Q 22.953125 6.109375 30.078125 6.109375 
Q 37.203125 6.109375 41.296875 11.75 
Q 45.40625 17.390625 45.40625 27.296875 
Q 45.40625 37.203125 41.296875 42.84375 
Q 37.203125 48.484375 30.078125 48.484375 
Q 22.953125 48.484375 18.875 42.84375 
Q 14.796875 37.203125 14.796875 27.296875 
z
" id="DejaVuSans-100"/>
     <path d="M 9.421875 54.6875 
L 18.40625 54.6875 
L 18.40625 0 
L 9.421875 0 
z
M 9.421875 75.984375 
L 18.40625 75.984375 
L 18.40625 64.59375 
L 9.421875 64.59375 
z
" id="DejaVuSans-105"/>
     <path d="M 8.5 21.578125 
L 8.5 54.6875 
L 17.484375 54.6875 
L 17.484375 21.921875 
Q 17.484375 14.15625 20.5 10.265625 
Q 23.53125 6.390625 29.59375 6.390625 
Q 36.859375 6.390625 41.078125 11.03125 
Q 45.3125 15.671875 45.3125 23.6875 
L 45.3125 54.6875 
L 54.296875 54.6875 
L 54.296875 0 
L 45.3125 0 
L 45.3125 8.40625 
Q 42.046875 3.421875 37.71875 1 
Q 33.40625 -1.421875 27.6875 -1.421875 
Q 18.265625 -1.421875 13.375 4.4375 
Q 8.5 10.296875 8.5 21.578125 
z
M 31.109375 56 
z
" id="DejaVuSans-117"/>
     <path d="M 2.984375 54.6875 
L 12.5 54.6875 
L 29.59375 8.796875 
L 46.6875 54.6875 
L 56.203125 54.6875 
L 35.6875 0 
L 23.484375 0 
z
" id="DejaVuSans-118"/>
     <path d="M 41.109375 46.296875 
Q 39.59375 47.171875 37.8125 47.578125 
Q 36.03125 48 33.890625 48 
Q 26.265625 48 22.1875 43.046875 
Q 18.109375 38.09375 18.109375 28.8125 
L 18.109375 0 
L 9.078125 0 
L 9.078125 54.6875 
L 18.109375 54.6875 
L 18.109375 46.1875 
Q 20.953125 51.171875 25.484375 53.578125 
Q 30.03125 56 36.53125 56 
Q 37.453125 56 38.578125 55.875 
Q 39.703125 55.765625 41.0625 55.515625 
z
" id="DejaVuSans-114"/>
     <path d="M 18.3125 70.21875 
L 18.3125 54.6875 
L 36.8125 54.6875 
L 36.8125 47.703125 
L 18.3125 47.703125 
L 18.3125 18.015625 
Q 18.3125 11.328125 20.140625 9.421875 
Q 21.96875 7.515625 27.59375 7.515625 
L 36.8125 7.515625 
L 36.8125 0 
L 27.59375 0 
Q 17.1875 0 13.234375 3.875 
Q 9.28125 7.765625 9.28125 18.015625 
L 9.28125 47.703125 
L 2.6875 47.703125 
L 2.6875 54.6875 
L 9.28125 54.6875 
L 9.28125 70.21875 
z
" id="DejaVuSans-116"/>
     <path d="M 52 44.1875 
Q 55.375 50.25 60.0625 53.125 
Q 64.75 56 71.09375 56 
Q 79.640625 56 84.28125 50.015625 
Q 88.921875 44.046875 88.921875 33.015625 
L 88.921875 0 
L 79.890625 0 
L 79.890625 32.71875 
Q 79.890625 40.578125 77.09375 44.375 
Q 74.3125 48.1875 68.609375 48.1875 
Q 61.625 48.1875 57.5625 43.546875 
Q 53.515625 38.921875 53.515625 30.90625 
L 53.515625 0 
L 44.484375 0 
L 44.484375 32.71875 
Q 44.484375 40.625 41.703125 44.40625 
Q 38.921875 48.1875 33.109375 48.1875 
Q 26.21875 48.1875 22.15625 43.53125 
Q 18.109375 38.875 18.109375 30.90625 
L 18.109375 0 
L 9.078125 0 
L 9.078125 54.6875 
L 18.109375 54.6875 
L 18.109375 46.1875 
Q 21.1875 51.21875 25.484375 53.609375 
Q 29.78125 56 35.6875 56 
Q 41.65625 56 45.828125 52.96875 
Q 50 49.953125 52 44.1875 
z
" id="DejaVuSans-109"/>
    </defs>
    <g style="fill:#262626;" transform="translate(297.650625 80.4)scale(0.12 -0.12)">
     <use xlink:href="#DejaVuSans-67"/>
     <use x="69.824219" xlink:href="#DejaVuSans-108"/>
     <use x="97.607422" xlink:href="#DejaVuSans-111"/>
     <use x="158.789062" xlink:href="#DejaVuSans-115"/>
     <use x="210.888672" xlink:href="#DejaVuSans-101"/>
     <use x="272.412109" xlink:href="#DejaVuSans-100"/>
     <use x="335.888672" xlink:href="#DejaVuSans-32"/>
     <use x="367.675781" xlink:href="#DejaVuSans-105"/>
     <use x="395.458984" xlink:href="#DejaVuSans-115"/>
     <use x="447.558594" xlink:href="#DejaVuSans-115"/>
     <use x="499.658203" xlink:href="#DejaVuSans-117"/>
     <use x="563.037109" xlink:href="#DejaVuSans-101"/>
     <use x="624.560547" xlink:href="#DejaVuSans-115"/>
     <use x="676.660156" xlink:href="#DejaVuSans-32"/>
     <use x="708.447266" xlink:href="#DejaVuSans-111"/>
     <use x="769.628906" xlink:href="#DejaVuSans-118"/>
     <use x="828.808594" xlink:href="#DejaVuSans-101"/>
     <use x="890.332031" xlink:href="#DejaVuSans-114"/>
     <use x="931.445312" xlink:href="#DejaVuSans-32"/>
     <use x="963.232422" xlink:href="#DejaVuSans-116"/>
     <use x="1002.441406" xlink:href="#DejaVuSans-105"/>
     <use x="1030.224609" xlink:href="#DejaVuSans-109"/>
     <use x="1127.636719" xlink:href="#DejaVuSans-101"/>
    </g>
   </g>
  </g>
 </g>
 <defs>
  <clipPath id="padd458bacf">
   <rect height="554.4" width="558" x="90" y="86.4"/>
  </clipPath>
 </defs>
</svg>
