<?xml version="1.0" encoding="utf-8" standalone="no"?>
<!DOCTYPE svg PUBLIC "-//W3C//DTD SVG 1.1//EN"
  "http://www.w3.org/Graphics/SVG/1.1/DTD/svg11.dtd">
<!-- Created with matplotlib (https://matplotlib.org/) -->
<svg height="720pt" version="1.1" viewBox="0 0 720 720" width="720pt" xmlns="http://www.w3.org/2000/svg" xmlns:xlink="http://www.w3.org/1999/xlink">
 <defs>
  <style type="text/css">
*{stroke-linecap:butt;stroke-linejoin:round;}
  </style>
 </defs>
 <g id="figure_1">
  <g id="patch_1">
   <path d="M 0 720 
L 720 720 
L 720 0 
L 0 0 
z
" style="fill:#ffffff;"/>
  </g>
  <g id="axes_1">
   <g id="patch_2">
    <path d="M 90 640.8 
L 648 640.8 
L 648 86.4 
L 90 86.4 
z
" style="fill:#ffffff;"/>
   </g>
   <g id="matplotlib.axis_1">
    <g id="xtick_1">
     <g id="line2d_1">
      <path clip-path="url(#pf7ca78e98b)" d="M 164.108732 640.8 
L 164.108732 86.4 
" style="fill:none;stroke:#cccccc;stroke-linecap:round;stroke-width:0.8;"/>
     </g>
     <g id="line2d_2"/>
     <g id="text_1">
      <!-- 2015 -->
      <defs>
       <path d="M 19.1875 8.296875 
L 53.609375 8.296875 
L 53.609375 0 
L 7.328125 0 
L 7.328125 8.296875 
Q 12.9375 14.109375 22.625 23.890625 
Q 32.328125 33.6875 34.8125 36.53125 
Q 39.546875 41.84375 41.421875 45.53125 
Q 43.3125 49.21875 43.3125 52.78125 
Q 43.3125 58.59375 39.234375 62.25 
Q 35.15625 65.921875 28.609375 65.921875 
Q 23.96875 65.921875 18.8125 64.3125 
Q 13.671875 62.703125 7.8125 59.421875 
L 7.8125 69.390625 
Q 13.765625 71.78125 18.9375 73 
Q 24.125 74.21875 28.421875 74.21875 
Q 39.75 74.21875 46.484375 68.546875 
Q 53.21875 62.890625 53.21875 53.421875 
Q 53.21875 48.921875 51.53125 44.890625 
Q 49.859375 40.875 45.40625 35.40625 
Q 44.1875 33.984375 37.640625 27.21875 
Q 31.109375 20.453125 19.1875 8.296875 
z
" id="DejaVuSans-50"/>
       <path d="M 31.78125 66.40625 
Q 24.171875 66.40625 20.328125 58.90625 
Q 16.5 51.421875 16.5 36.375 
Q 16.5 21.390625 20.328125 13.890625 
Q 24.171875 6.390625 31.78125 6.390625 
Q 39.453125 6.390625 43.28125 13.890625 
Q 47.125 21.390625 47.125 36.375 
Q 47.125 51.421875 43.28125 58.90625 
Q 39.453125 66.40625 31.78125 66.40625 
z
M 31.78125 74.21875 
Q 44.046875 74.21875 50.515625 64.515625 
Q 56.984375 54.828125 56.984375 36.375 
Q 56.984375 17.96875 50.515625 8.265625 
Q 44.046875 -1.421875 31.78125 -1.421875 
Q 19.53125 -1.421875 13.0625 8.265625 
Q 6.59375 17.96875 6.59375 36.375 
Q 6.59375 54.828125 13.0625 64.515625 
Q 19.53125 74.21875 31.78125 74.21875 
z
" id="DejaVuSans-48"/>
       <path d="M 12.40625 8.296875 
L 28.515625 8.296875 
L 28.515625 63.921875 
L 10.984375 60.40625 
L 10.984375 69.390625 
L 28.421875 72.90625 
L 38.28125 72.90625 
L 38.28125 8.296875 
L 54.390625 8.296875 
L 54.390625 0 
L 12.40625 0 
z
" id="DejaVuSans-49"/>
       <path d="M 10.796875 72.90625 
L 49.515625 72.90625 
L 49.515625 64.59375 
L 19.828125 64.59375 
L 19.828125 46.734375 
Q 21.96875 47.46875 24.109375 47.828125 
Q 26.265625 48.1875 28.421875 48.1875 
Q 40.625 48.1875 47.75 41.5 
Q 54.890625 34.8125 54.890625 23.390625 
Q 54.890625 11.625 47.5625 5.09375 
Q 40.234375 -1.421875 26.90625 -1.421875 
Q 22.3125 -1.421875 17.546875 -0.640625 
Q 12.796875 0.140625 7.71875 1.703125 
L 7.71875 11.625 
Q 12.109375 9.234375 16.796875 8.0625 
Q 21.484375 6.890625 26.703125 6.890625 
Q 35.15625 6.890625 40.078125 11.328125 
Q 45.015625 15.765625 45.015625 23.390625 
Q 45.015625 31 40.078125 35.4375 
Q 35.15625 39.890625 26.703125 39.890625 
Q 22.75 39.890625 18.8125 39.015625 
Q 14.890625 38.140625 10.796875 36.28125 
z
" id="DejaVuSans-53"/>
      </defs>
      <g style="fill:#262626;" transform="translate(151.383732 651.898438)scale(0.1 -0.1)">
       <use xlink:href="#DejaVuSans-50"/>
       <use x="63.623047" xlink:href="#DejaVuSans-48"/>
       <use x="127.246094" xlink:href="#DejaVuSans-49"/>
       <use x="190.869141" xlink:href="#DejaVuSans-53"/>
      </g>
     </g>
    </g>
    <g id="xtick_2">
     <g id="line2d_3">
      <path clip-path="url(#pf7ca78e98b)" d="M 249.694648 640.8 
L 249.694648 86.4 
" style="fill:none;stroke:#cccccc;stroke-linecap:round;stroke-width:0.8;"/>
     </g>
     <g id="line2d_4"/>
     <g id="text_2">
      <!-- 2016 -->
      <defs>
       <path d="M 33.015625 40.375 
Q 26.375 40.375 22.484375 35.828125 
Q 18.609375 31.296875 18.609375 23.390625 
Q 18.609375 15.53125 22.484375 10.953125 
Q 26.375 6.390625 33.015625 6.390625 
Q 39.65625 6.390625 43.53125 10.953125 
Q 47.40625 15.53125 47.40625 23.390625 
Q 47.40625 31.296875 43.53125 35.828125 
Q 39.65625 40.375 33.015625 40.375 
z
M 52.59375 71.296875 
L 52.59375 62.3125 
Q 48.875 64.0625 45.09375 64.984375 
Q 41.3125 65.921875 37.59375 65.921875 
Q 27.828125 65.921875 22.671875 59.328125 
Q 17.53125 52.734375 16.796875 39.40625 
Q 19.671875 43.65625 24.015625 45.921875 
Q 28.375 48.1875 33.59375 48.1875 
Q 44.578125 48.1875 50.953125 41.515625 
Q 57.328125 34.859375 57.328125 23.390625 
Q 57.328125 12.15625 50.6875 5.359375 
Q 44.046875 -1.421875 33.015625 -1.421875 
Q 20.359375 -1.421875 13.671875 8.265625 
Q 6.984375 17.96875 6.984375 36.375 
Q 6.984375 53.65625 15.1875 63.9375 
Q 23.390625 74.21875 37.203125 74.21875 
Q 40.921875 74.21875 44.703125 73.484375 
Q 48.484375 72.75 52.59375 71.296875 
z
" id="DejaVuSans-54"/>
      </defs>
      <g style="fill:#262626;" transform="translate(236.969648 651.898438)scale(0.1 -0.1)">
       <use xlink:href="#DejaVuSans-50"/>
       <use x="63.623047" xlink:href="#DejaVuSans-48"/>
       <use x="127.246094" xlink:href="#DejaVuSans-49"/>
       <use x="190.869141" xlink:href="#DejaVuSans-54"/>
      </g>
     </g>
    </g>
    <g id="xtick_3">
     <g id="line2d_5">
      <path clip-path="url(#pf7ca78e98b)" d="M 335.515046 640.8 
L 335.515046 86.4 
" style="fill:none;stroke:#cccccc;stroke-linecap:round;stroke-width:0.8;"/>
     </g>
     <g id="line2d_6"/>
     <g id="text_3">
      <!-- 2017 -->
      <defs>
       <path d="M 8.203125 72.90625 
L 55.078125 72.90625 
L 55.078125 68.703125 
L 28.609375 0 
L 18.3125 0 
L 43.21875 64.59375 
L 8.203125 64.59375 
z
" id="DejaVuSans-55"/>
      </defs>
      <g style="fill:#262626;" transform="translate(322.790046 651.898438)scale(0.1 -0.1)">
       <use xlink:href="#DejaVuSans-50"/>
       <use x="63.623047" xlink:href="#DejaVuSans-48"/>
       <use x="127.246094" xlink:href="#DejaVuSans-49"/>
       <use x="190.869141" xlink:href="#DejaVuSans-55"/>
      </g>
     </g>
    </g>
    <g id="xtick_4">
     <g id="line2d_7">
      <path clip-path="url(#pf7ca78e98b)" d="M 421.100961 640.8 
L 421.100961 86.4 
" style="fill:none;stroke:#cccccc;stroke-linecap:round;stroke-width:0.8;"/>
     </g>
     <g id="line2d_8"/>
     <g id="text_4">
      <!-- 2018 -->
      <defs>
       <path d="M 31.78125 34.625 
Q 24.75 34.625 20.71875 30.859375 
Q 16.703125 27.09375 16.703125 20.515625 
Q 16.703125 13.921875 20.71875 10.15625 
Q 24.75 6.390625 31.78125 6.390625 
Q 38.8125 6.390625 42.859375 10.171875 
Q 46.921875 13.96875 46.921875 20.515625 
Q 46.921875 27.09375 42.890625 30.859375 
Q 38.875 34.625 31.78125 34.625 
z
M 21.921875 38.8125 
Q 15.578125 40.375 12.03125 44.71875 
Q 8.5 49.078125 8.5 55.328125 
Q 8.5 64.0625 14.71875 69.140625 
Q 20.953125 74.21875 31.78125 74.21875 
Q 42.671875 74.21875 48.875 69.140625 
Q 55.078125 64.0625 55.078125 55.328125 
Q 55.078125 49.078125 51.53125 44.71875 
Q 48 40.375 41.703125 38.8125 
Q 48.828125 37.15625 52.796875 32.3125 
Q 56.78125 27.484375 56.78125 20.515625 
Q 56.78125 9.90625 50.3125 4.234375 
Q 43.84375 -1.421875 31.78125 -1.421875 
Q 19.734375 -1.421875 13.25 4.234375 
Q 6.78125 9.90625 6.78125 20.515625 
Q 6.78125 27.484375 10.78125 32.3125 
Q 14.796875 37.15625 21.921875 38.8125 
z
M 18.3125 54.390625 
Q 18.3125 48.734375 21.84375 45.5625 
Q 25.390625 42.390625 31.78125 42.390625 
Q 38.140625 42.390625 41.71875 45.5625 
Q 45.3125 48.734375 45.3125 54.390625 
Q 45.3125 60.0625 41.71875 63.234375 
Q 38.140625 66.40625 31.78125 66.40625 
Q 25.390625 66.40625 21.84375 63.234375 
Q 18.3125 60.0625 18.3125 54.390625 
z
" id="DejaVuSans-56"/>
      </defs>
      <g style="fill:#262626;" transform="translate(408.375961 651.898438)scale(0.1 -0.1)">
       <use xlink:href="#DejaVuSans-50"/>
       <use x="63.623047" xlink:href="#DejaVuSans-48"/>
       <use x="127.246094" xlink:href="#DejaVuSans-49"/>
       <use x="190.869141" xlink:href="#DejaVuSans-56"/>
      </g>
     </g>
    </g>
    <g id="xtick_5">
     <g id="line2d_9">
      <path clip-path="url(#pf7ca78e98b)" d="M 506.686877 640.8 
L 506.686877 86.4 
" style="fill:none;stroke:#cccccc;stroke-linecap:round;stroke-width:0.8;"/>
     </g>
     <g id="line2d_10"/>
     <g id="text_5">
      <!-- 2019 -->
      <defs>
       <path d="M 10.984375 1.515625 
L 10.984375 10.5 
Q 14.703125 8.734375 18.5 7.8125 
Q 22.3125 6.890625 25.984375 6.890625 
Q 35.75 6.890625 40.890625 13.453125 
Q 46.046875 20.015625 46.78125 33.40625 
Q 43.953125 29.203125 39.59375 26.953125 
Q 35.25 24.703125 29.984375 24.703125 
Q 19.046875 24.703125 12.671875 31.3125 
Q 6.296875 37.9375 6.296875 49.421875 
Q 6.296875 60.640625 12.9375 67.421875 
Q 19.578125 74.21875 30.609375 74.21875 
Q 43.265625 74.21875 49.921875 64.515625 
Q 56.59375 54.828125 56.59375 36.375 
Q 56.59375 19.140625 48.40625 8.859375 
Q 40.234375 -1.421875 26.421875 -1.421875 
Q 22.703125 -1.421875 18.890625 -0.6875 
Q 15.09375 0.046875 10.984375 1.515625 
z
M 30.609375 32.421875 
Q 37.25 32.421875 41.125 36.953125 
Q 45.015625 41.5 45.015625 49.421875 
Q 45.015625 57.28125 41.125 61.84375 
Q 37.25 66.40625 30.609375 66.40625 
Q 23.96875 66.40625 20.09375 61.84375 
Q 16.21875 57.28125 16.21875 49.421875 
Q 16.21875 41.5 20.09375 36.953125 
Q 23.96875 32.421875 30.609375 32.421875 
z
" id="DejaVuSans-57"/>
      </defs>
      <g style="fill:#262626;" transform="translate(493.961877 651.898438)scale(0.1 -0.1)">
       <use xlink:href="#DejaVuSans-50"/>
       <use x="63.623047" xlink:href="#DejaVuSans-48"/>
       <use x="127.246094" xlink:href="#DejaVuSans-49"/>
       <use x="190.869141" xlink:href="#DejaVuSans-57"/>
      </g>
     </g>
    </g>
    <g id="xtick_6">
     <g id="line2d_11">
      <path clip-path="url(#pf7ca78e98b)" d="M 592.272793 640.8 
L 592.272793 86.4 
" style="fill:none;stroke:#cccccc;stroke-linecap:round;stroke-width:0.8;"/>
     </g>
     <g id="line2d_12"/>
     <g id="text_6">
      <!-- 2020 -->
      <g style="fill:#262626;" transform="translate(579.547793 651.898438)scale(0.1 -0.1)">
       <use xlink:href="#DejaVuSans-50"/>
       <use x="63.623047" xlink:href="#DejaVuSans-48"/>
       <use x="127.246094" xlink:href="#DejaVuSans-50"/>
       <use x="190.869141" xlink:href="#DejaVuSans-48"/>
      </g>
     </g>
    </g>
   </g>
   <g id="matplotlib.axis_2">
    <g id="ytick_1">
     <g id="line2d_13">
      <path clip-path="url(#pf7ca78e98b)" d="M 90 615.605774 
L 648 615.605774 
" style="fill:none;stroke:#cccccc;stroke-linecap:round;stroke-width:0.8;"/>
     </g>
     <g id="line2d_14"/>
     <g id="text_7">
      <!-- 0 -->
      <g style="fill:#262626;" transform="translate(80.1375 619.404993)scale(0.1 -0.1)">
       <use xlink:href="#DejaVuSans-48"/>
      </g>
     </g>
    </g>
    <g id="ytick_2">
     <g id="line2d_15">
      <path clip-path="url(#pf7ca78e98b)" d="M 90 500.119368 
L 648 500.119368 
" style="fill:none;stroke:#cccccc;stroke-linecap:round;stroke-width:0.8;"/>
     </g>
     <g id="line2d_16"/>
     <g id="text_8">
      <!-- 20000 -->
      <g style="fill:#262626;" transform="translate(54.6875 503.918587)scale(0.1 -0.1)">
       <use xlink:href="#DejaVuSans-50"/>
       <use x="63.623047" xlink:href="#DejaVuSans-48"/>
       <use x="127.246094" xlink:href="#DejaVuSans-48"/>
       <use x="190.869141" xlink:href="#DejaVuSans-48"/>
       <use x="254.492188" xlink:href="#DejaVuSans-48"/>
      </g>
     </g>
    </g>
    <g id="ytick_3">
     <g id="line2d_17">
      <path clip-path="url(#pf7ca78e98b)" d="M 90 384.632962 
L 648 384.632962 
" style="fill:none;stroke:#cccccc;stroke-linecap:round;stroke-width:0.8;"/>
     </g>
     <g id="line2d_18"/>
     <g id="text_9">
      <!-- 40000 -->
      <defs>
       <path d="M 37.796875 64.3125 
L 12.890625 25.390625 
L 37.796875 25.390625 
z
M 35.203125 72.90625 
L 47.609375 72.90625 
L 47.609375 25.390625 
L 58.015625 25.390625 
L 58.015625 17.1875 
L 47.609375 17.1875 
L 47.609375 0 
L 37.796875 0 
L 37.796875 17.1875 
L 4.890625 17.1875 
L 4.890625 26.703125 
z
" id="DejaVuSans-52"/>
      </defs>
      <g style="fill:#262626;" transform="translate(54.6875 388.43218)scale(0.1 -0.1)">
       <use xlink:href="#DejaVuSans-52"/>
       <use x="63.623047" xlink:href="#DejaVuSans-48"/>
       <use x="127.246094" xlink:href="#DejaVuSans-48"/>
       <use x="190.869141" xlink:href="#DejaVuSans-48"/>
       <use x="254.492188" xlink:href="#DejaVuSans-48"/>
      </g>
     </g>
    </g>
    <g id="ytick_4">
     <g id="line2d_19">
      <path clip-path="url(#pf7ca78e98b)" d="M 90 269.146555 
L 648 269.146555 
" style="fill:none;stroke:#cccccc;stroke-linecap:round;stroke-width:0.8;"/>
     </g>
     <g id="line2d_20"/>
     <g id="text_10">
      <!-- 60000 -->
      <g style="fill:#262626;" transform="translate(54.6875 272.945774)scale(0.1 -0.1)">
       <use xlink:href="#DejaVuSans-54"/>
       <use x="63.623047" xlink:href="#DejaVuSans-48"/>
       <use x="127.246094" xlink:href="#DejaVuSans-48"/>
       <use x="190.869141" xlink:href="#DejaVuSans-48"/>
       <use x="254.492188" xlink:href="#DejaVuSans-48"/>
      </g>
     </g>
    </g>
    <g id="ytick_5">
     <g id="line2d_21">
      <path clip-path="url(#pf7ca78e98b)" d="M 90 153.660149 
L 648 153.660149 
" style="fill:none;stroke:#cccccc;stroke-linecap:round;stroke-width:0.8;"/>
     </g>
     <g id="line2d_22"/>
     <g id="text_11">
      <!-- 80000 -->
      <g style="fill:#262626;" transform="translate(54.6875 157.459368)scale(0.1 -0.1)">
       <use xlink:href="#DejaVuSans-56"/>
       <use x="63.623047" xlink:href="#DejaVuSans-48"/>
       <use x="127.246094" xlink:href="#DejaVuSans-48"/>
       <use x="190.869141" xlink:href="#DejaVuSans-48"/>
       <use x="254.492188" xlink:href="#DejaVuSans-48"/>
      </g>
     </g>
    </g>
   </g>
   <g id="line2d_23">
    <path clip-path="url(#pf7ca78e98b)" d="M 115.363636 615.6 
L 116.708304 615.288187 
L 116.793946 615.184249 
L 117.497954 615.045665 
L 117.626623 614.999471 
L 118.548333 614.756949 
L 118.567705 614.739626 
L 119.499157 614.606817 
L 119.608794 614.49133 
L 120.241654 614.358521 
L 120.318702 614.312327 
L 121.149728 614.162194 
L 121.250054 614.052482 
L 123.066979 613.844607 
L 123.521674 613.694474 
L 123.597601 613.654054 
L 124.244814 613.51547 
L 124.320793 613.469276 
L 124.717814 613.319143 
L 124.72414 613.301821 
L 125.155302 613.174785 
L 125.477362 613.111268 
L 126.262654 612.955361 
L 126.367392 612.886069 
L 126.612936 612.770583 
L 126.715386 612.730163 
L 127.563328 612.429898 
L 127.589111 612.41835 
L 127.982096 612.28554 
L 128.019409 612.256669 
L 128.465484 612.123859 
L 128.472459 612.106536 
L 129.134303 611.99105 
L 129.413353 611.788949 
L 130.05855 611.656139 
L 130.106877 611.60417 
L 131.012767 611.471361 
L 131.523522 611.275034 
L 132.393299 611.13645 
L 132.553927 611.01519 
L 132.961155 610.853509 
L 132.972613 610.836186 
L 134.043666 610.674505 
L 134.145666 610.58789 
L 134.324195 610.466629 
L 134.389275 610.426209 
L 134.722736 610.299174 
L 134.862304 610.183688 
L 136.184926 609.958489 
L 136.271679 609.90652 
L 136.647453 609.773711 
L 136.725461 609.733291 
L 137.417612 609.594707 
L 138.255698 609.248248 
L 139.88919 608.919111 
L 141.556031 608.457166 
L 141.604049 608.405197 
L 142.453899 608.260839 
L 142.682039 608.20887 
L 143.225019 607.960574 
L 143.27226 607.91438 
L 143.947004 607.787345 
L 144.228078 607.550597 
L 144.574533 607.423562 
L 144.875913 607.152169 
L 145.757788 607.013586 
L 145.818978 606.944294 
L 146.043107 606.828807 
L 146.110499 606.80571 
L 146.451114 606.678675 
L 146.587303 606.516994 
L 147.207261 606.401508 
L 148.094979 606.037726 
L 149.062027 605.841399 
L 149.130743 605.78943 
L 149.531254 605.662395 
L 149.618653 605.552683 
L 150.436897 605.391002 
L 150.522394 605.292838 
L 150.922771 605.165803 
L 151.016673 605.032994 
L 151.221402 604.911733 
L 151.463138 604.807795 
L 152.152472 604.674986 
L 152.209499 604.623017 
L 152.399639 604.501756 
L 152.832418 604.316978 
L 152.925522 604.259235 
L 153.095103 604.137974 
L 153.139098 604.097554 
L 153.747137 603.970519 
L 153.853679 603.843484 
L 154.254516 603.7049 
L 154.293906 603.670254 
L 154.510427 603.554768 
L 154.626262 603.520122 
L 154.762131 603.445056 
L 155.400199 603.329569 
L 155.677374 603.144791 
L 157.020182 602.977336 
L 157.089758 602.896495 
L 157.316191 602.757912 
L 157.376806 602.68862 
L 157.703873 602.55581 
L 158.078653 602.365258 
L 158.908967 602.2209 
L 158.968906 602.053445 
L 159.35065 601.926409 
L 159.463421 601.764729 
L 159.679669 601.643468 
L 160.359205 601.424044 
L 160.381293 601.395172 
L 160.588639 601.273911 
L 160.607449 601.11223 
L 160.88356 600.99097 
L 161.068494 600.81774 
L 161.463696 600.598316 
L 161.998334 600.482829 
L 162.040346 600.442409 
L 163.819678 600.246082 
L 164.028161 600.194113 
L 165.265846 600.072853 
L 165.336291 599.986238 
L 165.520348 599.864977 
L 165.588047 599.807234 
L 165.706379 599.691748 
L 165.812096 599.54739 
L 165.982609 599.426129 
L 167.172241 598.917989 
L 167.229564 598.900666 
L 167.369317 598.779405 
L 167.648942 598.392525 
L 167.846616 598.277039 
L 167.879685 598.248167 
L 168.77517 598.126907 
L 169.042691 597.786222 
L 169.245192 597.670735 
L 169.583812 597.416665 
L 170.256569 597.295405 
L 170.268795 597.226113 
L 170.40695 597.110626 
L 170.501573 596.948945 
L 170.637532 596.833459 
L 170.996544 596.487 
L 171.11632 596.365739 
L 171.15521 596.319544 
L 171.801729 596.198284 
L 171.903384 596.030828 
L 172.048793 595.915342 
L 172.162074 595.753661 
L 172.297488 595.626626 
L 172.853061 594.974128 
L 173.475949 594.847093 
L 173.712434 594.668089 
L 173.776724 594.633443 
L 173.931184 594.517957 
L 174.003726 594.367824 
L 174.150055 594.252338 
L 174.260596 594.142626 
L 174.391352 594.021365 
L 174.51769 593.928976 
L 175.305099 593.813489 
L 175.410971 593.582517 
L 175.58458 593.461256 
L 175.664095 593.357318 
L 175.791445 593.241832 
L 175.915783 593.074376 
L 176.07811 592.74524 
L 176.716946 592.606657 
L 176.791011 592.456524 
L 177.131485 592.335263 
L 177.456837 592.110065 
L 177.55799 592.006127 
L 177.709008 591.873318 
L 177.796963 591.780929 
L 178.362228 591.636571 
L 178.465815 591.463341 
L 178.646051 591.284337 
L 178.720765 591.255466 
L 178.829789 591.139979 
L 179.035623 590.909006 
L 179.255924 590.678034 
L 179.360635 590.452835 
L 179.542356 590.429738 
L 180.001067 590.308477 
L 180.10013 590.117924 
L 180.216076 590.002438 
L 180.337879 589.707948 
L 180.4554 589.586687 
L 180.55963 589.280648 
L 180.693608 589.13629 
L 180.994736 588.610827 
L 181.622803 588.489566 
L 181.696901 588.189301 
L 181.866846 588.068041 
L 181.94302 587.894811 
L 182.116053 587.779325 
L 182.617348 587.144149 
L 182.678908 587.05176 
L 183.296317 586.918951 
L 183.378277 586.751496 
L 183.492728 586.636009 
L 183.617142 586.364616 
L 183.748555 586.20871 
L 183.897492 585.948865 
L 183.98047 585.816056 
L 184.13513 585.469597 
L 184.23266 585.348336 
L 184.287055 585.203978 
L 184.417439 585.169332 
L 184.906671 585.048071 
L 185.302926 584.395573 
L 185.420574 584.256989 
L 185.710078 583.69688 
L 185.890391 583.569845 
L 185.926667 583.477456 
L 186.583619 583.344647 
L 186.858896 582.888475 
L 187.05411 582.767215 
L 187.622973 582.062748 
L 188.196605 581.924164 
L 188.269365 581.750934 
L 188.445487 581.623899 
L 188.570058 581.45067 
L 188.704342 581.300537 
L 189.107535 580.873238 
L 189.190247 580.630716 
L 189.219044 580.584522 
L 189.846563 580.451712 
L 189.98891 580.093704 
L 190.09992 579.960895 
L 190.161243 579.83386 
L 190.302915 579.718374 
L 190.46226 579.475852 
L 190.568927 579.337268 
L 190.673915 579.146716 
L 190.781348 579.013906 
L 190.891117 578.892646 
L 191.472377 578.777159 
L 191.730375 578.286342 
L 191.774976 578.153533 
L 192.081887 577.841719 
L 192.187273 577.720459 
L 192.670249 577.235416 
L 193.078926 577.102606 
L 193.148497 576.9467 
L 193.273025 576.750373 
L 193.370729 576.588692 
L 193.567656 576.334622 
L 194.149912 575.595509 
L 194.730827 575.456925 
L 195.048873 574.86217 
L 196.021729 573.851664 
L 196.385193 573.736178 
L 196.497217 573.297329 
L 196.699252 573.054808 
L 196.701038 573.049034 
L 197.094595 572.921999 
L 197.206094 572.598637 
L 197.368367 572.425407 
L 197.453106 572.275275 
L 198.259903 572.142465 
L 198.351063 571.97501 
L 198.452867 571.888395 
L 198.550237 571.732489 
L 198.663958 571.576582 
L 198.783976 571.432224 
L 198.79757 571.258994 
L 198.913128 571.068442 
L 199.025932 570.883663 
L 199.111081 570.797049 
L 199.686091 570.652691 
L 199.787811 570.427492 
L 199.93383 570.300457 
L 200.002842 570.150325 
L 200.103441 570.02329 
L 200.172149 569.884706 
L 200.270827 569.653733 
L 200.405027 569.520924 
L 200.51534 569.324597 
L 200.639371 569.151367 
L 200.763739 569.024332 
L 201.344467 568.804908 
L 201.591368 568.464223 
L 201.755891 568.319865 
L 201.827006 568.181282 
L 201.936919 568.042698 
L 202.036373 567.921437 
L 202.140924 567.707787 
L 202.298342 567.563429 
L 202.37562 567.315134 
L 202.966803 567.188098 
L 203.101296 566.974449 
L 203.236899 566.853188 
L 203.38646 566.627989 
L 203.467631 566.489406 
L 203.712054 566.096752 
L 203.83355 565.871553 
L 203.919027 565.715647 
L 204.020965 565.501997 
L 204.864253 565.167086 
L 205.029039 565.005405 
L 205.105775 564.884145 
L 205.255214 564.699366 
L 205.319018 564.572331 
L 205.444913 564.451071 
L 205.602773 564.260518 
L 205.822603 564.168129 
L 206.25713 564.046868 
L 206.372474 563.827444 
L 206.599976 563.509856 
L 206.782413 563.174946 
L 207.904632 562.822712 
L 207.973277 562.551319 
L 208.155202 562.424284 
L 208.254072 562.222183 
L 208.376136 562.077825 
L 208.418204 561.887272 
L 208.518342 561.575459 
L 208.633738 561.436875 
L 208.738267 561.246323 
L 208.849524 561.130836 
L 208.936095 560.876766 
L 209.530848 560.697762 
L 209.682624 560.368626 
L 209.790627 560.189622 
L 209.89956 559.935552 
L 210.040893 559.78542 
L 211.066602 558.705622 
L 211.204971 558.572813 
L 211.312564 558.312968 
L 211.699133 558.174384 
L 211.810675 558.024252 
L 211.944373 557.70089 
L 212.045401 557.516112 
L 212.108087 557.377528 
L 212.195706 557.059941 
L 212.855515 556.811645 
L 212.933334 556.696158 
L 213.278953 556.563349 
L 213.404276 556.25731 
L 213.868233 555.633684 
L 214.461665 555.518197 
L 214.565928 555.287224 
L 214.755668 555.148641 
L 214.858981 554.981185 
L 214.973777 554.859925 
L 215.089124 554.704018 
L 215.209611 554.548111 
L 215.366551 554.380656 
L 215.515732 554.213201 
L 215.519062 554.207426 
L 216.055426 554.074617 
L 216.17595 553.722384 
L 216.331672 553.578026 
L 216.453698 553.41057 
L 216.559464 553.254664 
L 216.661599 553.081434 
L 216.792961 552.948625 
L 216.909382 552.775395 
L 217.096303 552.584842 
L 217.152725 552.532874 
L 217.656726 552.417387 
L 217.756736 552.284578 
L 217.878745 552.122897 
L 218.059315 551.874601 
L 218.216568 551.678274 
L 218.998722 550.73706 
L 219.384708 550.592702 
L 219.490071 550.431021 
L 219.653025 550.26934 
L 219.76975 549.657262 
L 219.94048 549.247285 
L 220.137132 548.912375 
L 220.323573 548.698725 
L 220.434949 548.554367 
L 220.553058 548.537044 
L 221.005739 548.415783 
L 221.602018 547.653573 
L 221.777499 547.532312 
L 221.876142 547.38218 
L 221.948986 547.255145 
L 222.061396 547.064592 
L 222.822928 546.91446 
L 223.082451 546.637292 
L 223.191938 546.452514 
L 224.030005 545.857759 
L 224.330929 545.730724 
L 224.610904 545.384265 
L 224.731076 545.176389 
L 224.842227 545.008934 
L 225.246044 544.367985 
L 225.595617 544.125463 
L 226.192423 543.663518 
L 226.915129 542.70498 
L 227.02593 542.560622 
L 227.632291 542.427813 
L 227.815198 542.248809 
L 227.930414 541.994739 
L 228.082665 541.72912 
L 228.18315 541.573214 
L 228.36312 541.365338 
L 228.511224 541.105494 
L 228.612157 540.822552 
L 228.636732 540.805229 
L 229.231955 540.660871 
L 229.307776 540.198925 
L 229.467932 540.066116 
L 230.039715 539.124902 
L 230.459476 538.570567 
L 230.885026 538.455081 
L 231.000451 538.177913 
L 231.156677 537.964263 
L 231.360267 537.635127 
L 231.59248 537.265571 
L 231.70863 537.034598 
L 231.844814 536.792076 
L 232.113803 536.578426 
L 232.479704 536.428294 
L 233.723522 534.701772 
L 234.145953 534.447702 
L 234.245673 534.170535 
L 234.371368 534.031951 
L 234.438705 533.858722 
L 234.575945 533.57578 
L 234.681082 533.419873 
L 234.798074 533.177352 
L 234.862548 533.038768 
L 234.960257 532.767375 
L 235.085976 532.623017 
L 235.217256 532.340075 
L 235.847391 532.178394 
L 235.982254 531.970519 
L 236.33336 531.635608 
L 236.460002 531.456604 
L 236.581046 531.329569 
L 237.238553 530.919593 
L 237.451302 530.786783 
L 237.76233 530.440324 
L 237.955327 530.307515 
L 238.380575 529.851343 
L 238.467065 529.689662 
L 239.08249 529.562627 
L 239.160339 529.447141 
L 239.252064 529.32588 
L 239.353675 529.193071 
L 239.600774 528.996744 
L 239.690171 528.875483 
L 239.786121 528.748448 
L 240.389052 528.205662 
L 240.660464 528.078627 
L 240.766977 527.870751 
L 241.712241 526.941086 
L 242.311717 526.796728 
L 242.8973 525.965226 
L 243.141604 525.468634 
L 243.311131 525.335825 
L 243.407193 525.185693 
L 243.802091 524.983591 
L 243.911769 524.95472 
L 244.138657 524.758393 
L 244.309346 524.637132 
L 244.592127 524.209832 
L 244.71129 524.007731 
L 244.931746 523.788307 
L 245.68795 523.355233 
L 245.789139 523.170455 
L 245.842253 523.014548 
L 246.569269 522.125303 
L 246.625474 521.998268 
L 246.750355 521.900104 
L 247.658923 521.282252 
L 247.765072 521.189863 
L 248.264704 521.080151 
L 249.028062 520.95889 
L 249.343527 520.802983 
L 249.813772 520.675948 
L 250.544813 520.53159 
L 251.657839 519.746283 
L 252.120306 519.613473 
L 253.133127 518.649162 
L 253.413702 518.429738 
L 253.49208 518.400866 
L 253.88643 518.256508 
L 254.067261 518.221862 
L 254.579688 517.598236 
L 254.71965 517.30952 
L 254.83348 517.147839 
L 254.913564 517.043901 
L 255.445309 516.899543 
L 255.541656 516.737862 
L 255.642687 516.558858 
L 255.762175 516.391403 
L 255.860652 516.247045 
L 256.101601 516.056492 
L 256.2806 515.65229 
L 256.442118 515.484834 
L 256.557592 515.26541 
L 256.69668 515.092181 
L 256.772347 514.959371 
L 257.096266 514.79769 
L 257.180012 514.636009 
L 257.974431 513.382982 
L 258.082021 513.215527 
L 259.050293 511.985596 
L 259.179939 511.766172 
L 259.26647 511.598717 
L 259.583539 510.998188 
L 259.715872 510.853829 
L 259.844962 510.588211 
L 260.0354 510.455401 
L 260.293278 510.299495 
L 260.46477 510.108942 
L 262.388985 507.458529 
L 262.49828 507.256428 
L 262.574598 507.065875 
L 262.748787 506.748288 
L 262.960975 506.482669 
L 263.071224 506.009175 
L 263.312844 505.74933 
L 263.723622 505.506809 
L 263.838911 505.246964 
L 263.996041 504.848536 
L 264.10583 504.715727 
L 264.517563 503.913096 
L 264.623642 503.687898 
L 264.699962 503.462699 
L 264.897915 503.127789 
L 265.274573 502.879493 
L 266.306983 501.684209 
L 266.409504 501.476333 
L 267.054679 501.152971 
L 267.160104 501.060582 
L 267.256147 500.916224 
L 267.441276 500.673703 
L 267.739074 500.165563 
L 267.82251 500.032753 
L 267.995479 499.899944 
L 268.116997 499.813329 
L 268.667831 499.611228 
L 269.861952 498.675788 
L 270.468506 498.508333 
L 271.864822 497.676831 
L 272.155452 497.51515 
L 272.621675 497.099399 
L 272.867262 496.891523 
L 272.950593 496.741391 
L 273.589532 496.608581 
L 273.755875 496.545064 
L 274.314691 495.886791 
L 274.426847 495.794402 
L 275.294142 495.089935 
L 275.427213 494.968674 
L 276.287827 493.998588 
L 276.825554 493.831133 
L 276.939256 493.669452 
L 276.969926 493.501997 
L 277.070471 493.357639 
L 277.193693 493.207507 
L 277.307273 493.040051 
L 277.554597 492.820627 
L 277.65955 492.751335 
L 278.708525 492.295164 
L 278.896328 492.127709 
L 279.048291 491.954479 
L 279.158484 491.86209 
L 279.402315 491.5676 
L 279.446291 491.382821 
L 279.528444 491.082557 
L 279.994952 490.920876 
L 280.245877 490.580191 
L 280.381988 490.482027 
L 280.441806 490.349218 
L 280.572852 490.251055 
L 280.875383 489.858401 
L 281.00552 489.783335 
L 281.105311 489.569685 
L 281.235209 489.48307 
L 281.615409 489.263646 
L 281.683035 489.142385 
L 281.796194 488.998027 
L 281.97211 488.668891 
L 282.485549 487.796968 
L 282.636475 487.594867 
L 282.747043 487.456284 
L 284.151647 485.747085 
L 284.255036 485.562307 
L 284.325082 485.441046 
L 284.626771 484.886711 
L 284.796241 484.759676 
L 285.490664 484.095629 
L 285.59773 483.916625 
L 285.700753 483.702975 
L 285.81703 483.472003 
L 286.479816 482.831053 
L 286.684953 482.657823 
L 286.837078 482.38643 
L 286.945654 482.26517 
L 287.074744 482.057294 
L 287.171359 481.930259 
L 287.278371 481.722384 
L 287.461319 481.427893 
L 287.569894 481.231566 
L 287.943421 480.844687 
L 288.253952 480.677232 
L 288.345416 480.509776 
L 288.508224 480.278803 
L 289.625457 478.73706 
L 289.822137 478.615799 
L 290.812945 476.947021 
L 290.933571 476.802663 
L 291.044382 476.519721 
L 291.902084 475.630476 
L 292.029152 475.457246 
L 292.12199 475.301339 
L 292.224709 475.116561 
L 292.342441 474.9953 
L 292.517404 474.718133 
L 292.603818 474.568001 
L 292.695515 474.458289 
L 293.365165 474.296608 
L 293.841882 473.875082 
L 293.949614 473.701853 
L 294.417348 473.187938 
L 294.886377 473.026257 
L 294.985859 472.858802 
L 295.160526 472.697121 
L 295.30115 472.506568 
L 295.395472 472.339113 
L 295.521286 472.206304 
L 295.854652 471.663518 
L 295.951715 471.571128 
L 296.421222 471.432545 
L 296.629737 471.062988 
L 296.749152 470.820467 
L 296.885276 470.358521 
L 297.009815 470.116 
L 297.121246 469.94277 
L 297.428105 469.498147 
L 297.568672 469.313369 
L 297.656907 469.238303 
L 298.19707 469.018879 
L 298.321544 468.897618 
L 298.475892 468.776357 
L 299.315375 467.985275 
L 299.806539 467.852466 
L 300.087966 467.48291 
L 300.607159 466.507049 
L 300.786665 466.224108 
L 300.897081 466.085524 
L 301.08915 466.027781 
L 301.430044 465.90652 
L 301.578354 465.744839 
L 301.950062 465.265571 
L 302.730608 464.191547 
L 303.104805 464.041415 
L 303.48656 463.498629 
L 303.59215 463.325399 
L 303.692858 463.157944 
L 303.937655 462.620932 
L 304.026959 462.453477 
L 304.185457 462.020403 
L 304.340345 461.858722 
L 304.740387 461.350581 
L 304.804552 461.10806 
L 304.910894 460.957928 
L 305.050655 460.686535 
L 305.155824 460.553725 
L 305.253997 460.42669 
L 305.351126 460.276558 
L 305.468874 460.062908 
L 306.013049 459.364215 
L 306.377584 459.23718 
L 306.442134 459.063951 
L 306.684126 458.503842 
L 306.849509 458.365258 
L 306.98192 458.168931 
L 307.101943 457.926409 
L 307.212869 457.75318 
L 307.732594 457.233491 
L 308.003933 457.106456 
L 308.180647 456.829289 
L 308.284242 456.580993 
L 308.463461 456.396215 
L 308.543958 456.17679 
L 308.65525 456.020884 
L 308.734212 455.789911 
L 308.836591 455.605133 
L 308.955458 455.449226 
L 309.205249 455.073895 
L 309.416462 454.831374 
L 309.573996 454.531109 
L 309.712588 454.277039 
L 310.361755 453.220338 
L 310.429196 453.087529 
L 310.612795 452.74107 
L 311.496469 451.851825 
L 311.645368 451.574657 
L 312.02864 450.962579 
L 312.576668 450.315855 
L 313.077797 449.836587 
L 313.204295 449.64026 
L 313.297608 449.501676 
L 313.404886 449.259155 
L 313.65338 448.924244 
L 313.772933 448.756789 
L 314.305262 448.358361 
L 314.64589 448.219777 
L 314.867462 447.861769 
L 314.973885 447.51531 
L 315.077527 447.359403 
L 315.183923 447.168851 
L 315.317054 447.018718 
L 315.450255 446.79352 
L 315.658811 446.447061 
L 315.729777 446.389318 
L 316.044607 446.244959 
L 316.354911 445.921598 
L 316.461519 445.788788 
L 316.59393 445.632882 
L 316.690703 445.401909 
L 316.741925 445.13629 
L 316.848224 444.749411 
L 317.055255 444.408726 
L 317.154947 444.206624 
L 317.189669 444.085364 
L 317.300353 443.86594 
L 317.429044 443.658064 
L 317.856358 443.455963 
L 318.048378 443.167247 
L 318.157141 442.942048 
L 318.262815 442.786142 
L 318.395639 442.601363 
L 318.67521 442.226033 
L 318.79551 442.098998 
L 318.926068 441.95464 
L 319.222557 441.839153 
L 319.459335 441.712118 
L 320.271652 440.37825 
L 320.40176 440.20502 
L 320.502082 440.060662 
L 320.682539 439.898981 
L 321.173906 439.454359 
L 321.28684 439.292678 
L 321.42434 439.159868 
L 321.581283 438.888475 
L 321.769881 438.622857 
L 321.867704 438.409207 
L 321.964653 438.259075 
L 322.09209 438.03965 
L 322.57839 437.519962 
L 322.677766 437.364055 
L 322.798641 437.185051 
L 322.935416 436.959852 
L 323.042507 436.746203 
L 323.167388 436.561424 
L 323.419516 436.174545 
L 323.530156 435.943572 
L 323.695352 435.718374 
L 323.797108 435.57979 
L 323.981274 435.510498 
L 324.429528 435.331494 
L 324.612437 435.094747 
L 324.649398 434.967712 
L 324.769964 434.678996 
L 324.942913 434.424926 
L 325.442685 432.940925 
L 325.97713 432.744599 
L 326.10679 432.5194 
L 326.236431 432.351945 
L 326.343164 431.786061 
L 326.580748 431.566637 
L 326.711898 431.468474 
L 327.735563 431.162435 
L 327.827725 431.029625 
L 327.929114 430.908365 
L 328.02564 430.694715 
L 328.137423 430.538808 
L 328.304595 430.238544 
L 328.415566 429.961376 
L 328.464099 429.793921 
L 328.581164 429.020162 
L 328.644246 428.87003 
L 328.754282 428.558216 
L 329.252702 428.165563 
L 329.347586 428.021205 
L 329.460349 427.72094 
L 329.857983 426.791274 
L 329.965565 426.496784 
L 330.142947 426.034838 
L 330.253381 425.878932 
L 330.50869 425.38234 
L 330.915915 425.191788 
L 331.133438 424.741391 
L 331.277321 424.516192 
L 331.380374 424.354511 
L 331.509483 424.169733 
L 331.610467 424.054247 
L 331.759336 423.852145 
L 332.417096 423.419071 
L 332.634174 423.274713 
L 332.744255 423.101484 
L 333.056168 422.795445 
L 333.521387 422.166044 
L 334.588556 421.790713 
L 334.842066 421.623258 
L 335.066807 421.473125 
L 335.157949 421.438479 
L 335.893777 421.299896 
L 336.291465 420.872596 
L 336.395036 420.739787 
L 336.476608 420.578106 
L 336.825395 420.300938 
L 336.93222 420.15658 
L 337.019605 420.110386 
L 337.5805 419.960253 
L 337.835966 419.596471 
L 337.944102 419.22114 
L 338.717382 418.210634 
L 339.214269 418.008533 
L 339.313121 417.875724 
L 339.418049 417.73714 
L 339.502905 417.587008 
L 339.646235 417.413778 
L 339.70876 417.275194 
L 340.078276 416.853669 
L 340.16226 416.738183 
L 340.226767 416.559179 
L 340.818756 416.385949 
L 341.146859 415.906681 
L 341.251573 415.762323 
L 341.344614 415.629513 
L 341.440581 415.225311 
L 341.572308 415.10405 
L 341.652762 414.936595 
L 341.794977 414.798011 
L 341.918072 414.653653 
L 342.055192 414.613233 
L 342.393495 414.336065 
L 342.504708 414.220579 
L 342.581208 414.081995 
L 342.686277 413.891443 
L 342.864852 413.62005 
L 342.971764 413.498789 
L 343.080239 413.296688 
L 343.267469 412.996423 
L 343.405594 412.823194 
L 343.509091 412.72503 
L 343.990854 412.546026 
L 344.123356 412.465186 
L 344.195063 412.326602 
L 344.633427 411.731847 
L 344.910884 411.431582 
L 345.019842 411.229481 
L 345.128749 411.010057 
L 345.229098 410.900345 
L 345.742896 410.738664 
L 345.868764 410.553886 
L 346.005478 410.334461 
L 346.073562 410.201652 
L 346.422932 409.566477 
L 346.533947 409.427893 
L 346.644824 409.237341 
L 346.787315 409.092983 
L 347.24129 408.844687 
L 347.552722 408.619488 
L 347.664747 408.405838 
L 347.94599 408.163317 
L 349.165459 406.396375 
L 349.269947 406.223145 
L 349.397034 405.997947 
L 349.606027 405.408966 
L 349.71108 405.235737 
L 349.816062 405.022087 
L 350.03305 404.733371 
L 350.133983 404.31762 
L 350.632656 404.06355 
L 350.678353 403.740188 
L 350.77499 403.4226 
L 350.90028 403.272468 
L 351.009214 403.006849 
L 351.264061 402.712359 
L 351.386991 402.440966 
L 351.451169 402.302382 
L 351.557028 402.082958 
L 351.6509 401.9386 
L 351.77603 401.47088 
L 351.946643 401.418911 
L 352.306475 401.29765 
L 352.363584 401.118646 
L 352.470726 400.483471 
L 352.550561 400.356436 
L 352.693403 399.934911 
L 352.916755 399.588451 
L 353.027417 399.501837 
L 353.306806 399.201572 
L 353.454267 399.005245 
L 353.972523 398.808918 
L 354.997315 397.561665 
L 355.085132 397.521245 
L 355.214374 397.399984 
L 355.516489 397.117042 
L 355.639682 396.978459 
L 355.700954 396.857198 
L 355.855495 396.730163 
L 356.217414 396.349058 
L 356.448498 396.123859 
L 356.559261 395.996824 
L 356.755642 395.881338 
L 357.262824 395.708108 
L 357.528388 395.425166 
L 358.43881 394.328046 
L 358.9566 393.993135 
L 359.037996 393.894972 
L 359.151872 393.767936 
L 359.728252 393.086567 
L 359.838559 392.965306 
L 360.331883 392.815174 
L 360.59145 392.693913 
L 360.687169 392.561104 
L 360.845947 392.387874 
L 360.94897 392.266613 
L 361.222429 392.052963 
L 361.357402 391.885508 
L 361.492411 391.729601 
L 361.570246 391.475531 
L 362.049092 391.342722 
L 362.267344 391.042457 
L 362.636409 390.262924 
L 362.74984 390.08392 
L 363.297608 389.246644 
L 363.838914 389.009897 
L 364.145488 388.669212 
L 364.256452 388.524854 
L 364.442691 388.322752 
L 364.580167 388.034036 
L 364.832911 387.595188 
L 364.906078 387.427733 
L 365.482195 387.266052 
L 365.58746 387.035079 
L 365.796374 386.850301 
L 365.904393 386.72904 
L 366.042433 386.538487 
L 366.148246 386.290192 
L 366.310229 386.122736 
L 366.713 385.666565 
L 367.080529 385.545304 
L 367.190974 385.233491 
L 367.466132 384.684931 
L 367.609465 384.52325 
L 367.87072 384.234534 
L 368.197274 383.148961 
L 368.443808 383.010378 
L 368.50863 382.860245 
L 368.734778 382.738985 
L 368.914927 382.300136 
L 369.017792 382.167327 
L 369.457845 381.42244 
L 369.706629 381.029786 
L 369.855175 380.677552 
L 370.327735 380.510097 
L 370.512563 380.27335 
L 370.638356 379.730564 
L 370.749227 379.534237 
L 370.857548 379.401428 
L 370.911261 379.153132 
L 371.095498 378.396696 
L 371.221375 377.264929 
L 371.339848 377.137894 
L 371.436821 376.843404 
L 371.538758 376.693271 
L 372.037065 376.179357 
L 372.277149 375.59615 
L 372.473367 375.434469 
L 373.349809 374.181442 
L 373.494219 374.060181 
L 373.598745 373.886952 
L 373.70323 373.707948 
L 373.814075 373.274874 
L 373.967441 373.061224 
L 374.069239 372.88222 
L 374.164245 372.760959 
L 374.267428 372.501115 
L 374.413505 372.287465 
L 374.5374 371.785099 
L 374.620454 371.663838 
L 374.826407 371.340476 
L 375.301955 371.219216 
L 375.414623 370.855433 
L 375.611542 370.618686 
L 375.760408 370.399262 
L 375.819666 370.278001 
L 375.93726 370.041254 
L 376.038009 369.914219 
L 376.651999 368.684289 
L 376.960055 368.516834 
L 377.073882 368.118406 
L 377.215374 367.933627 
L 377.333483 367.714203 
L 377.443877 367.489005 
L 377.738559 367.032833 
L 377.932588 366.778763 
L 378.00617 366.559339 
L 378.770657 366.345689 
L 378.865706 366.276397 
L 379.074026 366.097394 
L 379.32975 365.826 
L 379.418511 365.779806 
L 379.664999 365.612351 
L 379.772438 365.404475 
L 380.271181 365.219697 
L 380.317408 365.167728 
L 380.564949 365.040693 
L 380.668064 364.751977 
L 380.711014 364.613393 
L 380.800549 364.411292 
L 380.912058 364.284257 
L 381.093079 364.030187 
L 381.203095 363.83386 
L 381.391704 363.741471 
L 381.7938 363.556693 
L 382.002502 363.158264 
L 382.122712 362.967712 
L 382.264479 362.592381 
L 382.37509 362.344085 
L 382.756769 361.697361 
L 382.942867 361.489486 
L 383.013057 361.443291 
L 383.553326 361.258513 
L 383.651459 361.010217 
L 383.771878 360.854311 
L 383.877053 360.681081 
L 384.004579 360.507851 
L 384.112471 360.375042 
L 384.427768 359.97084 
L 384.5369 359.780287 
L 385.19115 359.508894 
L 385.724762 358.636972 
L 385.827948 358.452193 
L 386.000463 358.203898 
L 386.111739 358.082637 
L 386.228296 357.920956 
L 386.324711 357.793921 
L 386.710591 357.609143 
L 386.807822 357.424364 
L 386.84176 357.303104 
L 387.009466 357.106777 
L 387.30031 356.846932 
L 387.409347 356.604411 
L 388.092903 355.599679 
L 388.426062 355.461096 
L 388.535485 355.305189 
L 388.643927 355.097313 
L 388.916298 354.739305 
L 389.07691 354.421718 
L 389.223144 354.248488 
L 389.333594 354.029064 
L 389.472555 353.913578 
L 390.093511 353.728799 
L 390.477478 353.186013 
L 390.577532 353.007009 
L 390.679624 352.856877 
L 391.052103 351.996503 
L 391.170514 351.794402 
L 391.753576 351.315134 
L 391.882256 351.188098 
L 391.981409 350.957126 
L 392.092693 350.78967 
L 392.200126 350.570246 
L 392.564406 350.056332 
L 394.526583 347.076782 
L 395.052919 346.949747 
L 395.424019 346.395413 
L 395.537439 346.24528 
L 395.761765 346.100922 
L 395.864862 345.869949 
L 396.89602 345.257872 
L 397.004064 345.01535 
L 397.15968 344.795926 
L 397.273002 344.645794 
L 397.418475 344.518759 
L 397.760702 344.201171 
L 397.872111 343.756548 
L 397.914915 343.594867 
L 398.017501 343.265731 
L 398.29182 343.098276 
L 398.375775 342.896175 
L 398.565185 342.757591 
L 399.48209 341.516112 
L 399.92401 341.348657 
L 400.102963 341.181201 
L 400.209473 341.002197 
L 400.403504 340.76545 
L 400.495055 340.632641 
L 400.599139 340.499832 
L 400.706138 340.320828 
L 400.780667 340.193793 
L 400.915991 340.060983 
L 401.000426 339.96282 
L 401.526331 339.772267 
L 401.636361 339.558617 
L 402.064993 338.958088 
L 402.169989 338.796407 
L 402.330262 338.623177 
L 402.428573 338.432625 
L 402.535341 338.294041 
L 402.644777 338.143909 
L 403.364414 337.66464 
L 403.464881 337.502959 
L 403.592809 337.323955 
L 403.88107 336.838913 
L 404.450267 336.059379 
L 404.760198 335.903473 
L 404.868041 335.782212 
L 405.083292 335.429978 
L 405.494403 334.702414 
L 405.590088 334.569605 
L 405.695884 334.332857 
L 405.846992 334.107659 
L 405.944682 333.963301 
L 406.477464 333.680359 
L 406.58814 333.03941 
L 406.623708 332.871954 
L 406.736753 332.750694 
L 406.878249 332.502398 
L 406.975686 332.352266 
L 407.057815 332.213682 
L 407.227317 331.913417 
L 407.32552 331.711316 
L 407.423566 331.572732 
L 407.555318 331.347534 
L 408.128189 331.110787 
L 409.084927 329.21681 
L 409.29855 329.055129 
L 409.678701 328.783736 
L 410.431603 327.38635 
L 410.542151 327.207346 
L 410.760019 326.987922 
L 410.86362 326.843564 
L 410.975311 326.66456 
L 411.083845 326.462459 
L 411.828573 325.226754 
L 411.938768 324.920715 
L 412.376245 324.395252 
L 412.636143 324.320186 
L 413.02905 324.187377 
L 414.381834 323.003641 
L 414.714424 322.865057 
L 415.368292 322.362691 
L 416.256648 322.149042 
L 416.37441 322.050878 
L 416.501586 321.894972 
L 416.700171 321.773711 
L 416.813057 321.508092 
L 417.012716 321.178956 
L 417.117167 320.976855 
L 417.248232 320.780528 
L 417.401308 320.543781 
L 417.51171 320.301259 
L 417.600949 320.070286 
L 417.704194 319.902831 
L 417.92097 319.677633 
L 418.050674 319.348496 
L 418.185514 319.071329 
L 418.495378 318.684449 
L 418.604154 318.447702 
L 419.172719 317.887593 
L 419.776349 317.702815 
L 419.888141 317.558457 
L 420.105707 317.396776 
L 420.223095 317.171578 
L 420.580294 316.882861 
L 421.409307 316.703858 
L 421.526554 316.472885 
L 421.639488 316.034036 
L 421.849151 315.66448 
L 422.004259 315.462379 
L 422.118366 315.283375 
L 422.520771 314.746363 
L 422.632549 314.717491 
L 422.850682 314.521164 
L 422.960788 314.243997 
L 423.805955 313.060261 
L 423.99138 312.835063 
L 424.099684 312.684931 
L 424.536355 312.35002 
L 425.124739 311.41458 
L 425.259105 311.258674 
L 425.369767 310.98728 
L 425.595299 310.594627 
L 425.689222 310.554206 
L 426.200064 310.282813 
L 426.338794 309.659187 
L 426.490955 309.382019 
L 426.569061 309.306953 
L 426.68767 309.179918 
L 426.815767 309.012463 
L 426.92298 308.873879 
L 427.493962 308.053926 
L 427.590759 307.874922 
L 427.84587 307.713241 
L 428.589927 306.679638 
L 428.746818 306.506408 
L 428.85351 306.269661 
L 429.593534 305.674906 
L 429.70456 305.478579 
L 429.842359 305.21296 
L 429.95301 305.051279 
L 430.014041 304.854952 
L 430.365362 304.393007 
L 430.46829 304.260197 
L 431.001009 303.838672 
L 431.11115 303.405598 
L 431.176089 303.151528 
L 431.401029 302.141022 
L 431.498702 301.933146 
L 431.606941 301.488524 
L 431.785541 300.974609 
L 431.894795 300.58773 
L 432.073585 299.912134 
L 432.182847 299.484834 
L 432.321905 299.276959 
L 432.403949 299.22499 
L 432.609954 299.092181 
L 432.719216 298.976694 
L 432.767353 298.820788 
L 433.026931 298.254904 
L 433.091242 298.070126 
L 433.196029 297.868025 
L 433.265464 297.700569 
L 433.404604 297.302141 
L 433.485305 297.082717 
L 433.59461 296.620772 
L 433.63594 296.412896 
L 433.747094 295.945176 
L 433.883607 295.263806 
L 434.129663 294.276397 
L 434.192851 294.091619 
L 434.248885 293.895292 
L 434.360126 293.254343 
L 434.387922 293.098436 
L 434.497189 292.55565 
L 434.541497 292.307354 
L 435.152754 289.697361 
L 435.242055 289.529906 
L 435.35132 289.425968 
L 435.43702 289.287385 
L 435.691264 289.189221 
L 436.028631 289.056412 
L 436.558956 288.646435 
L 436.601063 288.611789 
L 436.850954 288.490529 
L 437.05967 288.109423 
L 437.168935 287.884225 
L 437.327853 287.664801 
L 437.437116 287.508894 
L 437.556311 287.312567 
L 437.665578 287.064271 
L 437.943605 285.949828 
L 438.053062 285.695757 
L 438.510438 285.285781 
L 438.793819 284.997065 
L 439.334984 284.754543 
L 439.456054 284.546668 
L 439.563058 284.315695 
L 439.640421 284.038528 
L 439.738692 283.830652 
L 439.832707 283.686294 
L 439.914759 283.495741 
L 440.019568 283.2128 
L 440.258178 283.028021 
L 441.018054 282.450589 
L 441.112555 282.213842 
L 441.195954 282.081033 
L 441.300285 281.936675 
L 441.440024 281.734574 
L 441.985121 280.908846 
L 442.534477 280.597033 
L 442.659485 280.371834 
L 442.766109 280.262122 
L 442.916897 280.042698 
L 443.025534 279.961857 
L 443.383603 279.598075 
L 443.487643 279.447943 
L 443.620595 279.268939 
L 443.821191 279.170776 
L 443.949776 279.026418 
L 444.231119 278.743476 
L 444.437002 278.570246 
L 444.547789 278.437437 
L 444.760682 278.160269 
L 444.9032 277.969717 
L 444.993126 277.81381 
L 445.179132 277.501997 
L 445.298221 277.276798 
L 445.85641 276.791756 
L 445.968864 276.572331 
L 446.137732 276.381779 
L 446.215423 276.254744 
L 446.524488 275.706183 
L 446.648794 275.469436 
L 446.758805 275.226915 
L 447.276421 274.851584 
L 447.48387 274.649483 
L 447.59451 274.470479 
L 447.80508 274.199086 
L 448.005565 273.748689 
L 448.167504 273.540813 
L 448.350088 273.275194 
L 448.441463 273.148159 
L 448.556095 272.963381 
L 448.804855 272.865218 
L 448.973712 272.738183 
L 449.203665 272.582276 
L 450.265553 271.57177 
L 450.744352 271.375443 
L 450.985353 270.977015 
L 451.109305 270.826883 
L 451.621119 270.030026 
L 451.744963 269.862571 
L 451.983351 269.608501 
L 452.258802 269.475692 
L 452.665821 268.840516 
L 452.754351 268.678836 
L 453.00795 268.326602 
L 453.128871 268.159147 
L 453.549267 267.645232 
L 453.605879 267.564392 
L 453.979598 267.437357 
L 454.096 267.368065 
L 454.513549 266.842602 
L 454.620648 266.675146 
L 454.893443 266.288267 
L 455.002998 266.109263 
L 456.214523 265.121854 
L 456.42255 264.810041 
L 456.528479 264.683006 
L 456.707158 264.43471 
L 456.820428 264.267255 
L 457.029014 264.117122 
L 457.348849 263.972764 
L 457.479724 263.614757 
L 457.65592 263.239426 
L 457.762286 263.008453 
L 457.943377 262.771706 
L 458.132808 262.621574 
L 458.836661 262.275114 
L 459.027278 262.153854 
L 459.140454 262.003721 
L 459.313846 261.859363 
L 459.42824 261.7612 
L 459.726094 261.576422 
L 460.088141 261.287706 
L 460.705667 261.114476 
L 460.984274 260.86618 
L 461.126733 260.565915 
L 461.734875 259.289791 
L 462.421266 258.822071 
L 462.544622 258.723907 
L 462.690207 258.516032 
L 462.798969 258.371674 
L 463.002247 258.209993 
L 463.169701 257.967471 
L 464.635042 256.662475 
L 464.830107 256.437276 
L 465.458022 255.946459 
L 465.580664 255.784778 
L 465.712307 255.582677 
L 465.845683 255.432545 
L 466.067306 255.166926 
L 466.294333 254.912856 
L 466.558567 254.560622 
L 466.77254 254.32965 
L 467.909116 253.555891 
L 468.065369 253.43463 
L 468.351822 253.105494 
L 468.808737 252.96691 
L 469.520598 252.314412 
L 469.791064 252.089213 
L 469.931162 251.881338 
L 470.465137 251.609945 
L 470.671435 251.384746 
L 470.803006 251.205742 
L 470.91398 251.049836 
L 471.112351 250.859283 
L 471.232311 250.674505 
L 471.314144 250.535921 
L 471.422312 250.431983 
L 472.427759 249.629353 
L 472.493786 249.531189 
L 472.65154 249.404154 
L 472.766038 249.271345 
L 472.876117 249.080792 
L 473.546331 248.451391 
L 473.695324 248.237742 
L 473.796879 248.087609 
L 474.163455 247.758473 
L 474.271482 247.550597 
L 474.460151 247.31385 
L 474.564653 247.134846 
L 474.703434 246.93852 
L 474.819172 246.701772 
L 475.105837 246.574737 
L 475.458808 246.447702 
L 475.696194 246.107017 
L 475.799412 245.939562 
L 475.96762 245.760558 
L 476.069758 245.57578 
L 476.203161 245.425648 
L 477.803345 243.924324 
L 477.911462 243.774192 
L 478.103789 243.502799 
L 478.214723 243.341118 
L 478.534563 243.167888 
L 478.930661 242.925367 
L 479.03916 242.740589 
L 479.193036 242.55581 
L 479.299481 242.43455 
L 479.465746 242.2209 
L 479.574818 242.08809 
L 480.352875 241.631919 
L 481.374012 240.771545 
L 481.482473 240.759997 
L 482.804601 239.859203 
L 482.920162 239.737942 
L 483.102442 239.610907 
L 483.648951 239.420354 
L 483.919495 238.917989 
L 484.025788 238.675467 
L 484.165774 238.456043 
L 484.269259 238.282813 
L 484.319075 238.126907 
L 484.428337 237.907483 
L 484.533528 237.75735 
L 485.359453 237.191467 
L 485.470843 237.058657 
L 485.607084 236.931622 
L 485.771615 236.729521 
L 485.896998 236.458128 
L 486.829093 235.869147 
L 487.014 235.730564 
L 487.389326 235.424525 
L 487.551233 235.262844 
L 488.499194 234.500634 
L 488.630319 234.338953 
L 488.883514 234.06756 
L 489.170895 233.726875 
L 489.30528 233.559419 
L 489.427352 233.374641 
L 489.669335 233.149443 
L 489.772135 233.097474 
L 490.278711 232.837629 
L 490.361846 232.652851 
L 490.493305 232.416104 
L 490.702534 232.190905 
L 491.057425 231.752057 
L 491.150224 231.630796 
L 491.244304 231.405598 
L 491.609722 231.249691 
L 491.903739 230.955201 
L 492.013777 230.805069 
L 492.862556 229.592461 
L 492.97045 229.500072 
L 493.442521 229.251776 
L 493.561241 229.05545 
L 493.735271 228.905317 
L 493.832991 228.801379 
L 493.994428 228.657021 
L 494.100021 228.506889 
L 494.61932 227.935231 
L 494.719943 227.842842 
L 495.102947 227.634967 
L 495.237065 227.525255 
L 495.420898 227.363574 
L 495.546823 227.173021 
L 495.680177 227.017114 
L 495.785105 226.890079 
L 495.999482 226.624461 
L 496.119117 226.410811 
L 496.238265 226.20871 
L 496.31654 226.162515 
L 496.71504 226.018157 
L 497.404683 225.660149 
L 497.757861 225.440725 
L 497.970805 225.31369 
L 498.065876 225.290593 
L 498.437299 225.163558 
L 498.807167 224.897939 
L 499.00509 224.759355 
L 499.114594 224.55148 
L 499.274663 224.222343 
L 499.382861 224.101083 
L 499.846528 223.893207 
L 499.989686 223.812367 
L 500.115232 223.644911 
L 500.330258 223.373518 
L 500.634661 223.194514 
L 500.743481 223.079028 
L 502.286383 221.872195 
L 502.39609 221.779806 
L 502.59115 221.652771 
L 503.184186 221.364055 
L 503.402229 221.225471 
L 503.512037 221.092662 
L 503.725158 220.925207 
L 503.83379 220.792397 
L 504.05977 220.544101 
L 504.165943 220.492132 
L 504.620578 220.232288 
L 505.178523 220.04751 
L 505.748023 219.753019 
L 506.195311 219.36614 
L 506.576448 219.187136 
L 507.388979 218.632801 
L 507.480992 218.459572 
L 507.577422 218.320988 
L 507.837784 218.0034 
L 508.208789 217.859042 
L 508.31562 217.599198 
L 508.775967 217.073735 
L 508.907559 216.958248 
L 509.189719 216.721501 
L 509.282877 216.565595 
L 509.84502 216.271104 
L 509.953997 216.161392 
L 510.219171 215.884225 
L 511.139448 214.948785 
L 511.658195 214.642746 
L 512.319277 214.053765 
L 512.397454 213.967151 
L 512.529337 213.840115 
L 512.703912 213.638014 
L 513.033001 213.435913 
L 513.132322 213.389719 
L 513.32188 213.187617 
L 513.488235 212.91045 
L 514.315221 211.957687 
L 514.67 211.796006 
L 515.169538 211.189702 
L 515.283349 211.114636 
L 515.725442 210.739305 
L 516.235517 210.450589 
L 516.348804 210.323554 
L 516.539046 210.184971 
L 516.633471 210.081033 
L 516.761617 209.948224 
L 516.869022 209.803866 
L 517.074949 209.544021 
L 517.207545 209.416986 
L 517.370138 209.214885 
L 517.480589 208.995461 
L 518.242533 208.521966 
L 518.351733 208.412254 
L 518.639076 207.990729 
L 518.845249 207.777079 
L 518.944779 207.551881 
L 519.104005 207.378651 
L 519.44475 207.026418 
L 519.774506 206.899382 
L 519.874623 206.691507 
L 519.981127 206.524052 
L 520.050099 206.345048 
L 520.175107 206.102526 
L 520.369485 205.888876 
L 520.854988 205.322993 
L 521.515456 204.953437 
L 521.714551 204.618526 
L 521.792761 204.462619 
L 521.898082 204.237421 
L 521.995876 204.052643 
L 522.097617 203.833218 
L 522.212516 203.654214 
L 522.325836 203.417467 
L 522.732165 203.146074 
L 523.078585 202.972845 
L 523.251423 202.88623 
L 524.23685 202.20486 
L 524.672368 202.03163 
L 524.96839 201.731366 
L 525.053822 201.604331 
L 525.153748 201.431101 
L 525.258787 201.292517 
L 525.344253 201.182805 
L 525.437669 201.05577 
L 525.552799 200.865218 
L 525.74816 200.663117 
L 525.890358 200.628471 
L 526.794172 199.975972 
L 526.879372 199.843163 
L 527.07996 199.716128 
L 527.747352 199.213762 
L 527.956868 199.040533 
L 528.061954 198.855754 
L 528.175004 198.705622 
L 528.279816 198.590136 
L 528.483006 198.353388 
L 528.604315 198.157062 
L 528.951343 197.539209 
L 529.720053 196.921357 
L 530.337976 196.29773 
L 530.47105 196.147598 
L 530.579753 195.939723 
L 530.680577 195.778042 
L 530.941107 195.633684 
L 531.179522 195.500874 
L 531.287476 195.275676 
L 531.397286 195.113995 
L 531.500366 194.958088 
L 531.678803 194.744438 
L 532.026322 194.30559 
L 532.195084 194.080391 
L 532.304457 193.976454 
L 532.633462 193.820547 
L 533.443345 193.006368 
L 533.923275 192.35387 
L 534.566752 191.978539 
L 534.671588 191.834181 
L 534.797296 191.655177 
L 534.892058 191.49927 
L 535.035246 191.372235 
L 535.147174 191.147037 
L 535.26572 190.973807 
L 535.383325 190.783254 
L 536.23289 189.986398 
L 536.32912 189.738102 
L 536.455431 189.605293 
L 536.565236 189.432064 
L 536.682026 189.264608 
L 537.092242 188.589013 
L 537.171171 188.444655 
L 537.258146 188.323394 
L 537.636566 188.161713 
L 537.782439 188.011581 
L 537.886913 187.855674 
L 537.995307 187.711316 
L 538.421755 187.295565 
L 538.521841 187.139658 
L 538.612293 187.012623 
L 538.713234 186.856717 
L 538.819785 186.712359 
L 539.456919 186.227316 
L 539.567625 186.123378 
L 539.914626 185.800016 
L 540.209837 185.55172 
L 540.458407 185.390039 
L 541.132562 185.153292 
L 541.44248 184.864576 
L 541.553905 184.656701 
L 541.716655 184.373759 
L 541.824395 184.235175 
L 541.998101 184.021525 
L 542.100877 183.917588 
L 542.156021 183.784778 
L 542.2583 183.605774 
L 542.702731 183.380576 
L 542.903899 183.201572 
L 543.666432 182.653011 
L 544.828478 182.162194 
L 544.986031 182.098677 
L 545.177186 181.960093 
L 545.288288 181.746443 
L 545.399876 181.567439 
L 545.531525 181.39421 
L 545.642993 181.307595 
L 546.768178 180.528062 
L 546.869752 180.441447 
L 547.006085 180.302863 
L 547.092388 180.216248 
L 547.546002 180.03147 
L 547.645665 179.95063 
L 547.801799 179.794723 
L 547.904382 179.679237 
L 548.218183 179.402069 
L 548.335226 179.3501 
L 548.409981 179.199968 
L 548.513815 179.032513 
L 548.617321 178.847734 
L 548.723535 178.564793 
L 549.50096 177.923843 
L 549.612216 177.767936 
L 549.766842 177.583158 
L 549.913664 177.421477 
L 549.981173 177.294442 
L 551.038203 176.705462 
L 551.136526 176.555329 
L 551.271155 176.3821 
L 551.405113 176.243516 
L 551.506299 176.087609 
L 551.614823 175.943251 
L 551.756833 175.666084 
L 551.867496 175.521726 
L 552.048565 175.331173 
L 552.486721 175.186815 
L 552.590097 175.088652 
L 552.679213 174.926971 
L 552.786589 174.80571 
L 553.15811 174.389959 
L 553.668524 173.962659 
L 554.214826 173.772107 
L 554.724759 173.327484 
L 554.830523 173.165803 
L 555.027355 172.900184 
L 555.137727 172.709632 
L 555.353274 172.438239 
L 556.015832 172.039811 
L 556.124668 171.803064 
L 556.427736 171.41041 
L 556.535427 171.266052 
L 557.252559 170.498067 
L 557.551271 170.30174 
L 557.648261 170.134285 
L 557.807361 169.978378 
L 558.166992 169.452915 
L 558.276078 169.169974 
L 558.813101 168.725351 
L 559.191342 168.540573 
L 559.547757 168.032432 
L 559.684126 167.905397 
L 559.787406 167.795685 
L 559.939122 167.62823 
L 560.149114 167.339514 
L 560.245336 167.206705 
L 560.553261 167.039249 
L 560.65975 166.964183 
L 560.923257 166.727436 
L 561.034471 166.559981 
L 561.146172 166.409848 
L 561.258515 166.207747 
L 561.358715 166.109584 
L 561.526723 165.942128 
L 561.618827 165.75735 
L 561.731113 165.50328 
L 561.993483 165.318502 
L 562.396868 165.16837 
L 562.496224 164.966268 
L 562.612132 164.827685 
L 563.650977 163.280167 
L 564.28825 163.049194 
L 565.588696 162.073334 
L 565.986352 161.877007 
L 566.091807 161.68068 
L 566.183963 161.530548 
L 566.336363 161.051279 
L 566.809791 160.606657 
L 567.479061 160.335263 
L 567.586523 160.260197 
L 567.965643 159.936835 
L 568.080512 159.8098 
L 568.191045 159.653894 
L 568.436417 159.422921 
L 568.930013 159.243917 
L 569.045047 159.116882 
L 569.21499 158.955201 
L 569.284113 158.83394 
L 569.47048 158.712679 
L 569.577764 158.49903 
L 569.723911 158.337349 
L 569.829617 158.100601 
L 570.281489 157.783014 
L 570.324879 157.748368 
L 570.560466 157.621333 
L 570.683859 157.476975 
L 571.547925 156.795605 
L 571.633782 156.645473 
L 571.726845 156.518438 
L 571.836023 156.4145 
L 572.446938 155.877488 
L 572.542416 155.767776 
L 572.605594 155.640741 
L 572.712413 155.496383 
L 572.888782 155.30583 
L 573.220191 154.711075 
L 573.290286 154.58404 
L 573.401657 154.445457 
L 573.53615 154.376165 
L 573.812405 154.237581 
L 574.231769 153.868025 
L 574.343338 153.729441 
L 574.399655 153.504243 
L 574.505231 153.35411 
L 574.632337 153.203978 
L 574.7568 153.030748 
L 575.053715 152.753581 
L 575.161002 152.690063 
L 575.665591 152.326281 
L 575.771051 152.199246 
L 576.029158 152.026017 
L 576.875049 151.154094 
L 577.185094 151.027059 
L 577.465756 150.686374 
L 577.665864 150.518919 
L 578.503762 149.854872 
L 578.884863 149.658545 
L 578.999195 149.467993 
L 579.137051 149.335183 
L 579.248896 149.133082 
L 579.403437 148.902109 
L 579.512602 148.717331 
L 579.576824 148.578747 
L 579.687787 148.353549 
L 579.844622 148.070607 
L 579.900376 147.920475 
L 580.200456 147.706825 
L 580.416782 147.516272 
L 580.742639 147.117844 
L 580.850622 146.973486 
L 580.953865 146.788708 
L 581.057138 146.459572 
L 581.16279 146.303665 
L 581.312992 145.887914 
L 581.517512 145.610747 
L 581.621707 145.489486 
L 582.33983 145.223867 
L 583.142665 144.842762 
L 583.217357 144.738824 
L 583.692012 144.55982 
L 584.775731 143.514668 
L 585.273403 143.376085 
L 585.451487 143.231727 
L 585.559227 143.046948 
L 585.697308 142.908365 
L 586.155142 142.43487 
L 586.256585 142.250092 
L 586.380923 142.09996 
L 587.094698 141.59182 
L 587.194057 141.516754 
L 587.329175 141.360847 
L 587.986199 140.644831 
L 588.655669 140.246403 
L 588.774072 140.159788 
L 588.841616 140.038528 
L 589.039867 139.842201 
L 589.308957 139.668971 
L 589.418667 139.582356 
L 589.901357 139.137734 
L 591.045613 138.410169 
L 591.233983 138.265811 
L 591.908314 137.936675 
L 592.508715 137.676831 
L 592.791945 137.538247 
L 592.881349 137.376566 
L 592.98596 137.203336 
L 593.322373 137.001235 
L 594.091496 136.106215 
L 594.206251 135.673141 
L 594.338975 135.51146 
L 594.441577 135.21697 
L 594.582649 135.072612 
L 594.679025 134.957126 
L 595.301504 134.656861 
L 595.407222 134.604892 
L 595.680996 134.229561 
L 595.831181 134.033234 
L 595.950384 133.848456 
L 596.079697 133.704098 
L 596.35584 133.490448 
L 597.132081 132.976534 
L 597.255957 132.83795 
L 597.419785 132.705141 
L 597.529297 132.601203 
L 599.334371 131.278884 
L 599.439202 131.134526 
L 599.582135 130.972845 
L 599.684268 130.892004 
L 600.965812 130.095148 
L 601.074594 129.921918 
L 601.132305 129.742914 
L 601.240408 129.552362 
L 601.40482 129.396455 
L 601.51006 129.315615 
L 601.817573 129.148159 
L 601.988409 128.97493 
L 602.191797 128.830572 
L 602.302899 128.657342 
L 602.518449 128.495661 
L 602.598843 128.345529 
L 602.710871 128.166525 
L 602.894451 127.993295 
L 602.948824 127.958649 
L 603.269608 127.820066 
L 603.673818 127.658385 
L 604.283607 126.965466 
L 604.472756 126.694073 
L 604.783838 126.480423 
L 604.894205 126.428455 
L 605.038186 126.289871 
L 605.199794 126.058898 
L 605.311178 125.972283 
L 605.520119 125.764408 
L 605.614509 125.637373 
L 605.829348 125.48724 
L 605.933136 125.337108 
L 606.13409 125.158104 
L 606.262684 125.007972 
L 606.726771 124.840516 
L 606.891744 124.528703 
L 607.553738 123.893528 
L 607.664264 123.685652 
L 609.735123 122.369107 
L 610.04303 122.224749 
L 610.321558 122.005325 
L 610.425553 121.780127 
L 610.615201 121.62422 
L 610.723855 121.404796 
L 612.910098 119.326041 
L 613.298315 119.147037 
L 613.451187 119.002679 
L 613.640526 118.846772 
L 613.896404 118.627348 
L 614.002678 118.546507 
L 614.067484 118.402149 
L 614.191642 118.223145 
L 614.369751 118.021044 
L 614.581602 117.865138 
L 614.962149 117.680359 
L 615.068315 117.50713 
L 615.711514 116.843083 
L 615.811815 116.692951 
L 616.12902 116.479301 
L 616.240437 116.421557 
L 616.401882 116.259876 
L 616.51331 116.052001 
L 617.075125 115.734413 
L 617.181461 115.601604 
L 617.303291 115.4226 
L 617.961686 115.081915 
L 618.254648 114.926009 
L 618.699257 114.66039 
L 619.085569 114.285059 
L 619.223913 114.129152 
L 619.328819 114.030989 
L 620.381592 113.291876 
L 621.031457 112.777961 
L 621.536906 112.552763 
L 622.598453 111.628872 
L 622.636364 111.6 
L 622.636364 111.6 
" style="fill:none;stroke:#92c6ff;stroke-linecap:round;stroke-width:1.5;"/>
   </g>
   <g id="line2d_24">
    <defs>
     <path d="M 0 2.5 
C 0.663008 2.5 1.29895 2.236584 1.767767 1.767767 
C 2.236584 1.29895 2.5 0.663008 2.5 0 
C 2.5 -0.663008 2.236584 -1.29895 1.767767 -1.767767 
C 1.29895 -2.236584 0.663008 -2.5 0 -2.5 
C -0.663008 -2.5 -1.29895 -2.236584 -1.767767 -1.767767 
C -2.236584 -1.29895 -2.5 -0.663008 -2.5 0 
C -2.5 0.663008 -2.236584 1.29895 -1.767767 1.767767 
C -1.29895 2.236584 -0.663008 2.5 0 2.5 
z
" id="me69c536f87" style="stroke:#696969;"/>
    </defs>
    <g clip-path="url(#pf7ca78e98b)">
     <use style="fill:#696969;stroke:#696969;" x="115.363636" xlink:href="#me69c536f87" y="615.6"/>
    </g>
   </g>
   <g id="line2d_25">
    <g clip-path="url(#pf7ca78e98b)">
     <use style="fill:#696969;stroke:#696969;" x="204.851427" xlink:href="#me69c536f87" y="565.195958"/>
    </g>
   </g>
   <g id="line2d_26">
    <g clip-path="url(#pf7ca78e98b)">
     <use style="fill:#696969;stroke:#696969;" x="257.107957" xlink:href="#me69c536f87" y="514.791916"/>
    </g>
   </g>
   <g id="line2d_27">
    <g clip-path="url(#pf7ca78e98b)">
     <use style="fill:#696969;stroke:#696969;" x="302.469152" xlink:href="#me69c536f87" y="464.387874"/>
    </g>
   </g>
   <g id="line2d_28">
    <g clip-path="url(#pf7ca78e98b)">
     <use style="fill:#696969;stroke:#696969;" x="342.640181" xlink:href="#me69c536f87" y="413.983832"/>
    </g>
   </g>
   <g id="line2d_29">
    <g clip-path="url(#pf7ca78e98b)">
     <use style="fill:#696969;stroke:#696969;" x="381.737454" xlink:href="#me69c536f87" y="363.585564"/>
    </g>
   </g>
   <g id="line2d_30">
    <g clip-path="url(#pf7ca78e98b)">
     <use style="fill:#696969;stroke:#696969;" x="423.662785" xlink:href="#me69c536f87" y="313.187296"/>
    </g>
   </g>
   <g id="line2d_31">
    <g clip-path="url(#pf7ca78e98b)">
     <use style="fill:#696969;stroke:#696969;" x="457.943356" xlink:href="#me69c536f87" y="262.789029"/>
    </g>
   </g>
   <g id="line2d_32">
    <g clip-path="url(#pf7ca78e98b)">
     <use style="fill:#696969;stroke:#696969;" x="513.990447" xlink:href="#me69c536f87" y="212.390761"/>
    </g>
   </g>
   <g id="line2d_33">
    <g clip-path="url(#pf7ca78e98b)">
     <use style="fill:#696969;stroke:#696969;" x="565.742117" xlink:href="#me69c536f87" y="161.992493"/>
    </g>
   </g>
   <g id="line2d_34">
    <g clip-path="url(#pf7ca78e98b)">
     <use style="fill:#696969;stroke:#696969;" x="622.636364" xlink:href="#me69c536f87" y="111.6"/>
    </g>
   </g>
   <g id="patch_3">
    <path d="M 90 640.8 
L 90 86.4 
" style="fill:none;stroke:#cccccc;stroke-linecap:square;stroke-linejoin:miter;"/>
   </g>
   <g id="patch_4">
    <path d="M 648 640.8 
L 648 86.4 
" style="fill:none;stroke:#cccccc;stroke-linecap:square;stroke-linejoin:miter;"/>
   </g>
   <g id="patch_5">
    <path d="M 90 640.8 
L 648 640.8 
" style="fill:none;stroke:#cccccc;stroke-linecap:square;stroke-linejoin:miter;"/>
   </g>
   <g id="patch_6">
    <path d="M 90 86.4 
L 648 86.4 
" style="fill:none;stroke:#cccccc;stroke-linecap:square;stroke-linejoin:miter;"/>
   </g>
   <g id="text_12">
    <!-- 1 (2014-06-07) -->
    <defs>
     <path id="DejaVuSans-32"/>
     <path d="M 31 75.875 
Q 24.46875 64.65625 21.28125 53.65625 
Q 18.109375 42.671875 18.109375 31.390625 
Q 18.109375 20.125 21.3125 9.0625 
Q 24.515625 -2 31 -13.1875 
L 23.1875 -13.1875 
Q 15.875 -1.703125 12.234375 9.375 
Q 8.59375 20.453125 8.59375 31.390625 
Q 8.59375 42.28125 12.203125 53.3125 
Q 15.828125 64.359375 23.1875 75.875 
z
" id="DejaVuSans-40"/>
     <path d="M 4.890625 31.390625 
L 31.203125 31.390625 
L 31.203125 23.390625 
L 4.890625 23.390625 
z
" id="DejaVuSans-45"/>
     <path d="M 8.015625 75.875 
L 15.828125 75.875 
Q 23.140625 64.359375 26.78125 53.3125 
Q 30.421875 42.28125 30.421875 31.390625 
Q 30.421875 20.453125 26.78125 9.375 
Q 23.140625 -1.703125 15.828125 -13.1875 
L 8.015625 -13.1875 
Q 14.5 -2 17.703125 9.0625 
Q 20.90625 20.125 20.90625 31.390625 
Q 20.90625 42.671875 17.703125 53.65625 
Q 14.5 64.65625 8.015625 75.875 
z
" id="DejaVuSans-41"/>
    </defs>
    <g style="fill:#262626;" transform="translate(120.363636 623.198437)scale(0.1 -0.1)">
     <use xlink:href="#DejaVuSans-49"/>
     <use x="63.623047" xlink:href="#DejaVuSans-32"/>
     <use x="95.410156" xlink:href="#DejaVuSans-40"/>
     <use x="134.423828" xlink:href="#DejaVuSans-50"/>
     <use x="198.046875" xlink:href="#DejaVuSans-48"/>
     <use x="261.669922" xlink:href="#DejaVuSans-49"/>
     <use x="325.292969" xlink:href="#DejaVuSans-52"/>
     <use x="388.916016" xlink:href="#DejaVuSans-45"/>
     <use x="425" xlink:href="#DejaVuSans-48"/>
     <use x="488.623047" xlink:href="#DejaVuSans-54"/>
     <use x="552.246094" xlink:href="#DejaVuSans-45"/>
     <use x="588.330078" xlink:href="#DejaVuSans-48"/>
     <use x="651.953125" xlink:href="#DejaVuSans-55"/>
     <use x="715.576172" xlink:href="#DejaVuSans-41"/>
    </g>
   </g>
   <g id="text_13">
    <!-- 8730 (2015-06-23) -->
    <defs>
     <path d="M 40.578125 39.3125 
Q 47.65625 37.796875 51.625 33 
Q 55.609375 28.21875 55.609375 21.1875 
Q 55.609375 10.40625 48.1875 4.484375 
Q 40.765625 -1.421875 27.09375 -1.421875 
Q 22.515625 -1.421875 17.65625 -0.515625 
Q 12.796875 0.390625 7.625 2.203125 
L 7.625 11.71875 
Q 11.71875 9.328125 16.59375 8.109375 
Q 21.484375 6.890625 26.8125 6.890625 
Q 36.078125 6.890625 40.9375 10.546875 
Q 45.796875 14.203125 45.796875 21.1875 
Q 45.796875 27.640625 41.28125 31.265625 
Q 36.765625 34.90625 28.71875 34.90625 
L 20.21875 34.90625 
L 20.21875 43.015625 
L 29.109375 43.015625 
Q 36.375 43.015625 40.234375 45.921875 
Q 44.09375 48.828125 44.09375 54.296875 
Q 44.09375 59.90625 40.109375 62.90625 
Q 36.140625 65.921875 28.71875 65.921875 
Q 24.65625 65.921875 20.015625 65.03125 
Q 15.375 64.15625 9.8125 62.3125 
L 9.8125 71.09375 
Q 15.4375 72.65625 20.34375 73.4375 
Q 25.25 74.21875 29.59375 74.21875 
Q 40.828125 74.21875 47.359375 69.109375 
Q 53.90625 64.015625 53.90625 55.328125 
Q 53.90625 49.265625 50.4375 45.09375 
Q 46.96875 40.921875 40.578125 39.3125 
z
" id="DejaVuSans-51"/>
    </defs>
    <g style="fill:#262626;" transform="translate(209.851427 572.794395)scale(0.1 -0.1)">
     <use xlink:href="#DejaVuSans-56"/>
     <use x="63.623047" xlink:href="#DejaVuSans-55"/>
     <use x="127.246094" xlink:href="#DejaVuSans-51"/>
     <use x="190.869141" xlink:href="#DejaVuSans-48"/>
     <use x="254.492188" xlink:href="#DejaVuSans-32"/>
     <use x="286.279297" xlink:href="#DejaVuSans-40"/>
     <use x="325.292969" xlink:href="#DejaVuSans-50"/>
     <use x="388.916016" xlink:href="#DejaVuSans-48"/>
     <use x="452.539062" xlink:href="#DejaVuSans-49"/>
     <use x="516.162109" xlink:href="#DejaVuSans-53"/>
     <use x="579.785156" xlink:href="#DejaVuSans-45"/>
     <use x="615.869141" xlink:href="#DejaVuSans-48"/>
     <use x="679.492188" xlink:href="#DejaVuSans-54"/>
     <use x="743.115234" xlink:href="#DejaVuSans-45"/>
     <use x="779.199219" xlink:href="#DejaVuSans-50"/>
     <use x="842.822266" xlink:href="#DejaVuSans-51"/>
     <use x="906.445312" xlink:href="#DejaVuSans-41"/>
    </g>
   </g>
   <g id="text_14">
    <!-- 17459 (2016-02-01) -->
    <g style="fill:#262626;" transform="translate(262.107957 522.390353)scale(0.1 -0.1)">
     <use xlink:href="#DejaVuSans-49"/>
     <use x="63.623047" xlink:href="#DejaVuSans-55"/>
     <use x="127.246094" xlink:href="#DejaVuSans-52"/>
     <use x="190.869141" xlink:href="#DejaVuSans-53"/>
     <use x="254.492188" xlink:href="#DejaVuSans-57"/>
     <use x="318.115234" xlink:href="#DejaVuSans-32"/>
     <use x="349.902344" xlink:href="#DejaVuSans-40"/>
     <use x="388.916016" xlink:href="#DejaVuSans-50"/>
     <use x="452.539062" xlink:href="#DejaVuSans-48"/>
     <use x="516.162109" xlink:href="#DejaVuSans-49"/>
     <use x="579.785156" xlink:href="#DejaVuSans-54"/>
     <use x="643.408203" xlink:href="#DejaVuSans-45"/>
     <use x="679.492188" xlink:href="#DejaVuSans-48"/>
     <use x="743.115234" xlink:href="#DejaVuSans-50"/>
     <use x="806.738281" xlink:href="#DejaVuSans-45"/>
     <use x="842.822266" xlink:href="#DejaVuSans-48"/>
     <use x="906.445312" xlink:href="#DejaVuSans-49"/>
     <use x="970.068359" xlink:href="#DejaVuSans-41"/>
    </g>
   </g>
   <g id="text_15">
    <!-- 26188 (2016-08-13) -->
    <g style="fill:#262626;" transform="translate(307.469152 471.986311)scale(0.1 -0.1)">
     <use xlink:href="#DejaVuSans-50"/>
     <use x="63.623047" xlink:href="#DejaVuSans-54"/>
     <use x="127.246094" xlink:href="#DejaVuSans-49"/>
     <use x="190.869141" xlink:href="#DejaVuSans-56"/>
     <use x="254.492188" xlink:href="#DejaVuSans-56"/>
     <use x="318.115234" xlink:href="#DejaVuSans-32"/>
     <use x="349.902344" xlink:href="#DejaVuSans-40"/>
     <use x="388.916016" xlink:href="#DejaVuSans-50"/>
     <use x="452.539062" xlink:href="#DejaVuSans-48"/>
     <use x="516.162109" xlink:href="#DejaVuSans-49"/>
     <use x="579.785156" xlink:href="#DejaVuSans-54"/>
     <use x="643.408203" xlink:href="#DejaVuSans-45"/>
     <use x="679.492188" xlink:href="#DejaVuSans-48"/>
     <use x="743.115234" xlink:href="#DejaVuSans-56"/>
     <use x="806.738281" xlink:href="#DejaVuSans-45"/>
     <use x="842.822266" xlink:href="#DejaVuSans-49"/>
     <use x="906.445312" xlink:href="#DejaVuSans-51"/>
     <use x="970.068359" xlink:href="#DejaVuSans-41"/>
    </g>
   </g>
   <g id="text_16">
    <!-- 34917 (2017-01-31) -->
    <g style="fill:#262626;" transform="translate(347.640181 421.582269)scale(0.1 -0.1)">
     <use xlink:href="#DejaVuSans-51"/>
     <use x="63.623047" xlink:href="#DejaVuSans-52"/>
     <use x="127.246094" xlink:href="#DejaVuSans-57"/>
     <use x="190.869141" xlink:href="#DejaVuSans-49"/>
     <use x="254.492188" xlink:href="#DejaVuSans-55"/>
     <use x="318.115234" xlink:href="#DejaVuSans-32"/>
     <use x="349.902344" xlink:href="#DejaVuSans-40"/>
     <use x="388.916016" xlink:href="#DejaVuSans-50"/>
     <use x="452.539062" xlink:href="#DejaVuSans-48"/>
     <use x="516.162109" xlink:href="#DejaVuSans-49"/>
     <use x="579.785156" xlink:href="#DejaVuSans-55"/>
     <use x="643.408203" xlink:href="#DejaVuSans-45"/>
     <use x="679.492188" xlink:href="#DejaVuSans-48"/>
     <use x="743.115234" xlink:href="#DejaVuSans-49"/>
     <use x="806.738281" xlink:href="#DejaVuSans-45"/>
     <use x="842.822266" xlink:href="#DejaVuSans-51"/>
     <use x="906.445312" xlink:href="#DejaVuSans-49"/>
     <use x="970.068359" xlink:href="#DejaVuSans-41"/>
    </g>
   </g>
   <g id="text_17">
    <!-- 43645 (2017-07-17) -->
    <g style="fill:#262626;" transform="translate(386.737454 371.184002)scale(0.1 -0.1)">
     <use xlink:href="#DejaVuSans-52"/>
     <use x="63.623047" xlink:href="#DejaVuSans-51"/>
     <use x="127.246094" xlink:href="#DejaVuSans-54"/>
     <use x="190.869141" xlink:href="#DejaVuSans-52"/>
     <use x="254.492188" xlink:href="#DejaVuSans-53"/>
     <use x="318.115234" xlink:href="#DejaVuSans-32"/>
     <use x="349.902344" xlink:href="#DejaVuSans-40"/>
     <use x="388.916016" xlink:href="#DejaVuSans-50"/>
     <use x="452.539062" xlink:href="#DejaVuSans-48"/>
     <use x="516.162109" xlink:href="#DejaVuSans-49"/>
     <use x="579.785156" xlink:href="#DejaVuSans-55"/>
     <use x="643.408203" xlink:href="#DejaVuSans-45"/>
     <use x="679.492188" xlink:href="#DejaVuSans-48"/>
     <use x="743.115234" xlink:href="#DejaVuSans-55"/>
     <use x="806.738281" xlink:href="#DejaVuSans-45"/>
     <use x="842.822266" xlink:href="#DejaVuSans-49"/>
     <use x="906.445312" xlink:href="#DejaVuSans-55"/>
     <use x="970.068359" xlink:href="#DejaVuSans-41"/>
    </g>
   </g>
   <g id="text_18">
    <!-- 52373 (2018-01-11) -->
    <g style="fill:#262626;" transform="translate(428.662785 320.785734)scale(0.1 -0.1)">
     <use xlink:href="#DejaVuSans-53"/>
     <use x="63.623047" xlink:href="#DejaVuSans-50"/>
     <use x="127.246094" xlink:href="#DejaVuSans-51"/>
     <use x="190.869141" xlink:href="#DejaVuSans-55"/>
     <use x="254.492188" xlink:href="#DejaVuSans-51"/>
     <use x="318.115234" xlink:href="#DejaVuSans-32"/>
     <use x="349.902344" xlink:href="#DejaVuSans-40"/>
     <use x="388.916016" xlink:href="#DejaVuSans-50"/>
     <use x="452.539062" xlink:href="#DejaVuSans-48"/>
     <use x="516.162109" xlink:href="#DejaVuSans-49"/>
     <use x="579.785156" xlink:href="#DejaVuSans-56"/>
     <use x="643.408203" xlink:href="#DejaVuSans-45"/>
     <use x="679.492188" xlink:href="#DejaVuSans-48"/>
     <use x="743.115234" xlink:href="#DejaVuSans-49"/>
     <use x="806.738281" xlink:href="#DejaVuSans-45"/>
     <use x="842.822266" xlink:href="#DejaVuSans-49"/>
     <use x="906.445312" xlink:href="#DejaVuSans-49"/>
     <use x="970.068359" xlink:href="#DejaVuSans-41"/>
    </g>
   </g>
   <g id="text_19">
    <!-- 61101 (2018-06-07) -->
    <g style="fill:#262626;" transform="translate(462.943356 270.387466)scale(0.1 -0.1)">
     <use xlink:href="#DejaVuSans-54"/>
     <use x="63.623047" xlink:href="#DejaVuSans-49"/>
     <use x="127.246094" xlink:href="#DejaVuSans-49"/>
     <use x="190.869141" xlink:href="#DejaVuSans-48"/>
     <use x="254.492188" xlink:href="#DejaVuSans-49"/>
     <use x="318.115234" xlink:href="#DejaVuSans-32"/>
     <use x="349.902344" xlink:href="#DejaVuSans-40"/>
     <use x="388.916016" xlink:href="#DejaVuSans-50"/>
     <use x="452.539062" xlink:href="#DejaVuSans-48"/>
     <use x="516.162109" xlink:href="#DejaVuSans-49"/>
     <use x="579.785156" xlink:href="#DejaVuSans-56"/>
     <use x="643.408203" xlink:href="#DejaVuSans-45"/>
     <use x="679.492188" xlink:href="#DejaVuSans-48"/>
     <use x="743.115234" xlink:href="#DejaVuSans-54"/>
     <use x="806.738281" xlink:href="#DejaVuSans-45"/>
     <use x="842.822266" xlink:href="#DejaVuSans-48"/>
     <use x="906.445312" xlink:href="#DejaVuSans-55"/>
     <use x="970.068359" xlink:href="#DejaVuSans-41"/>
    </g>
   </g>
   <g id="text_20">
    <!-- 69829 (2019-02-01) -->
    <g style="fill:#262626;" transform="translate(518.990447 219.989199)scale(0.1 -0.1)">
     <use xlink:href="#DejaVuSans-54"/>
     <use x="63.623047" xlink:href="#DejaVuSans-57"/>
     <use x="127.246094" xlink:href="#DejaVuSans-56"/>
     <use x="190.869141" xlink:href="#DejaVuSans-50"/>
     <use x="254.492188" xlink:href="#DejaVuSans-57"/>
     <use x="318.115234" xlink:href="#DejaVuSans-32"/>
     <use x="349.902344" xlink:href="#DejaVuSans-40"/>
     <use x="388.916016" xlink:href="#DejaVuSans-50"/>
     <use x="452.539062" xlink:href="#DejaVuSans-48"/>
     <use x="516.162109" xlink:href="#DejaVuSans-49"/>
     <use x="579.785156" xlink:href="#DejaVuSans-57"/>
     <use x="643.408203" xlink:href="#DejaVuSans-45"/>
     <use x="679.492188" xlink:href="#DejaVuSans-48"/>
     <use x="743.115234" xlink:href="#DejaVuSans-50"/>
     <use x="806.738281" xlink:href="#DejaVuSans-45"/>
     <use x="842.822266" xlink:href="#DejaVuSans-48"/>
     <use x="906.445312" xlink:href="#DejaVuSans-49"/>
     <use x="970.068359" xlink:href="#DejaVuSans-41"/>
    </g>
   </g>
   <g id="text_21">
    <!-- 78557 (2019-09-09) -->
    <g style="fill:#262626;" transform="translate(570.742117 169.590931)scale(0.1 -0.1)">
     <use xlink:href="#DejaVuSans-55"/>
     <use x="63.623047" xlink:href="#DejaVuSans-56"/>
     <use x="127.246094" xlink:href="#DejaVuSans-53"/>
     <use x="190.869141" xlink:href="#DejaVuSans-53"/>
     <use x="254.492188" xlink:href="#DejaVuSans-55"/>
     <use x="318.115234" xlink:href="#DejaVuSans-32"/>
     <use x="349.902344" xlink:href="#DejaVuSans-40"/>
     <use x="388.916016" xlink:href="#DejaVuSans-50"/>
     <use x="452.539062" xlink:href="#DejaVuSans-48"/>
     <use x="516.162109" xlink:href="#DejaVuSans-49"/>
     <use x="579.785156" xlink:href="#DejaVuSans-57"/>
     <use x="643.408203" xlink:href="#DejaVuSans-45"/>
     <use x="679.492188" xlink:href="#DejaVuSans-48"/>
     <use x="743.115234" xlink:href="#DejaVuSans-57"/>
     <use x="806.738281" xlink:href="#DejaVuSans-45"/>
     <use x="842.822266" xlink:href="#DejaVuSans-48"/>
     <use x="906.445312" xlink:href="#DejaVuSans-57"/>
     <use x="970.068359" xlink:href="#DejaVuSans-41"/>
    </g>
   </g>
   <g id="text_22">
    <!-- 87284 (2020-05-09) -->
    <g style="fill:#262626;" transform="translate(627.636364 119.198437)scale(0.1 -0.1)">
     <use xlink:href="#DejaVuSans-56"/>
     <use x="63.623047" xlink:href="#DejaVuSans-55"/>
     <use x="127.246094" xlink:href="#DejaVuSans-50"/>
     <use x="190.869141" xlink:href="#DejaVuSans-56"/>
     <use x="254.492188" xlink:href="#DejaVuSans-52"/>
     <use x="318.115234" xlink:href="#DejaVuSans-32"/>
     <use x="349.902344" xlink:href="#DejaVuSans-40"/>
     <use x="388.916016" xlink:href="#DejaVuSans-50"/>
     <use x="452.539062" xlink:href="#DejaVuSans-48"/>
     <use x="516.162109" xlink:href="#DejaVuSans-50"/>
     <use x="579.785156" xlink:href="#DejaVuSans-48"/>
     <use x="643.408203" xlink:href="#DejaVuSans-45"/>
     <use x="679.492188" xlink:href="#DejaVuSans-48"/>
     <use x="743.115234" xlink:href="#DejaVuSans-53"/>
     <use x="806.738281" xlink:href="#DejaVuSans-45"/>
     <use x="842.822266" xlink:href="#DejaVuSans-48"/>
     <use x="906.445312" xlink:href="#DejaVuSans-57"/>
     <use x="970.068359" xlink:href="#DejaVuSans-41"/>
    </g>
   </g>
   <g id="text_23">
    <!-- Closed issues and PRs over time -->
    <defs>
     <path d="M 64.40625 67.28125 
L 64.40625 56.890625 
Q 59.421875 61.53125 53.78125 63.8125 
Q 48.140625 66.109375 41.796875 66.109375 
Q 29.296875 66.109375 22.65625 58.46875 
Q 16.015625 50.828125 16.015625 36.375 
Q 16.015625 21.96875 22.65625 14.328125 
Q 29.296875 6.6875 41.796875 6.6875 
Q 48.140625 6.6875 53.78125 8.984375 
Q 59.421875 11.28125 64.40625 15.921875 
L 64.40625 5.609375 
Q 59.234375 2.09375 53.4375 0.328125 
Q 47.65625 -1.421875 41.21875 -1.421875 
Q 24.65625 -1.421875 15.125 8.703125 
Q 5.609375 18.84375 5.609375 36.375 
Q 5.609375 53.953125 15.125 64.078125 
Q 24.65625 74.21875 41.21875 74.21875 
Q 47.75 74.21875 53.53125 72.484375 
Q 59.328125 70.75 64.40625 67.28125 
z
" id="DejaVuSans-67"/>
     <path d="M 9.421875 75.984375 
L 18.40625 75.984375 
L 18.40625 0 
L 9.421875 0 
z
" id="DejaVuSans-108"/>
     <path d="M 30.609375 48.390625 
Q 23.390625 48.390625 19.1875 42.75 
Q 14.984375 37.109375 14.984375 27.296875 
Q 14.984375 17.484375 19.15625 11.84375 
Q 23.34375 6.203125 30.609375 6.203125 
Q 37.796875 6.203125 41.984375 11.859375 
Q 46.1875 17.53125 46.1875 27.296875 
Q 46.1875 37.015625 41.984375 42.703125 
Q 37.796875 48.390625 30.609375 48.390625 
z
M 30.609375 56 
Q 42.328125 56 49.015625 48.375 
Q 55.71875 40.765625 55.71875 27.296875 
Q 55.71875 13.875 49.015625 6.21875 
Q 42.328125 -1.421875 30.609375 -1.421875 
Q 18.84375 -1.421875 12.171875 6.21875 
Q 5.515625 13.875 5.515625 27.296875 
Q 5.515625 40.765625 12.171875 48.375 
Q 18.84375 56 30.609375 56 
z
" id="DejaVuSans-111"/>
     <path d="M 44.28125 53.078125 
L 44.28125 44.578125 
Q 40.484375 46.53125 36.375 47.5 
Q 32.28125 48.484375 27.875 48.484375 
Q 21.1875 48.484375 17.84375 46.4375 
Q 14.5 44.390625 14.5 40.28125 
Q 14.5 37.15625 16.890625 35.375 
Q 19.28125 33.59375 26.515625 31.984375 
L 29.59375 31.296875 
Q 39.15625 29.25 43.1875 25.515625 
Q 47.21875 21.78125 47.21875 15.09375 
Q 47.21875 7.46875 41.1875 3.015625 
Q 35.15625 -1.421875 24.609375 -1.421875 
Q 20.21875 -1.421875 15.453125 -0.5625 
Q 10.6875 0.296875 5.421875 2 
L 5.421875 11.28125 
Q 10.40625 8.6875 15.234375 7.390625 
Q 20.0625 6.109375 24.8125 6.109375 
Q 31.15625 6.109375 34.5625 8.28125 
Q 37.984375 10.453125 37.984375 14.40625 
Q 37.984375 18.0625 35.515625 20.015625 
Q 33.0625 21.96875 24.703125 23.78125 
L 21.578125 24.515625 
Q 13.234375 26.265625 9.515625 29.90625 
Q 5.8125 33.546875 5.8125 39.890625 
Q 5.8125 47.609375 11.28125 51.796875 
Q 16.75 56 26.8125 56 
Q 31.78125 56 36.171875 55.265625 
Q 40.578125 54.546875 44.28125 53.078125 
z
" id="DejaVuSans-115"/>
     <path d="M 56.203125 29.59375 
L 56.203125 25.203125 
L 14.890625 25.203125 
Q 15.484375 15.921875 20.484375 11.0625 
Q 25.484375 6.203125 34.421875 6.203125 
Q 39.59375 6.203125 44.453125 7.46875 
Q 49.3125 8.734375 54.109375 11.28125 
L 54.109375 2.78125 
Q 49.265625 0.734375 44.1875 -0.34375 
Q 39.109375 -1.421875 33.890625 -1.421875 
Q 20.796875 -1.421875 13.15625 6.1875 
Q 5.515625 13.8125 5.515625 26.8125 
Q 5.515625 40.234375 12.765625 48.109375 
Q 20.015625 56 32.328125 56 
Q 43.359375 56 49.78125 48.890625 
Q 56.203125 41.796875 56.203125 29.59375 
z
M 47.21875 32.234375 
Q 47.125 39.59375 43.09375 43.984375 
Q 39.0625 48.390625 32.421875 48.390625 
Q 24.90625 48.390625 20.390625 44.140625 
Q 15.875 39.890625 15.1875 32.171875 
z
" id="DejaVuSans-101"/>
     <path d="M 45.40625 46.390625 
L 45.40625 75.984375 
L 54.390625 75.984375 
L 54.390625 0 
L 45.40625 0 
L 45.40625 8.203125 
Q 42.578125 3.328125 38.25 0.953125 
Q 33.9375 -1.421875 27.875 -1.421875 
Q 17.96875 -1.421875 11.734375 6.484375 
Q 5.515625 14.40625 5.515625 27.296875 
Q 5.515625 40.1875 11.734375 48.09375 
Q 17.96875 56 27.875 56 
Q 33.9375 56 38.25 53.625 
Q 42.578125 51.265625 45.40625 46.390625 
z
M 14.796875 27.296875 
Q 14.796875 17.390625 18.875 11.75 
Q 22.953125 6.109375 30.078125 6.109375 
Q 37.203125 6.109375 41.296875 11.75 
Q 45.40625 17.390625 45.40625 27.296875 
Q 45.40625 37.203125 41.296875 42.84375 
Q 37.203125 48.484375 30.078125 48.484375 
Q 22.953125 48.484375 18.875 42.84375 
Q 14.796875 37.203125 14.796875 27.296875 
z
" id="DejaVuSans-100"/>
     <path d="M 9.421875 54.6875 
L 18.40625 54.6875 
L 18.40625 0 
L 9.421875 0 
z
M 9.421875 75.984375 
L 18.40625 75.984375 
L 18.40625 64.59375 
L 9.421875 64.59375 
z
" id="DejaVuSans-105"/>
     <path d="M 8.5 21.578125 
L 8.5 54.6875 
L 17.484375 54.6875 
L 17.484375 21.921875 
Q 17.484375 14.15625 20.5 10.265625 
Q 23.53125 6.390625 29.59375 6.390625 
Q 36.859375 6.390625 41.078125 11.03125 
Q 45.3125 15.671875 45.3125 23.6875 
L 45.3125 54.6875 
L 54.296875 54.6875 
L 54.296875 0 
L 45.3125 0 
L 45.3125 8.40625 
Q 42.046875 3.421875 37.71875 1 
Q 33.40625 -1.421875 27.6875 -1.421875 
Q 18.265625 -1.421875 13.375 4.4375 
Q 8.5 10.296875 8.5 21.578125 
z
M 31.109375 56 
z
" id="DejaVuSans-117"/>
     <path d="M 34.28125 27.484375 
Q 23.390625 27.484375 19.1875 25 
Q 14.984375 22.515625 14.984375 16.5 
Q 14.984375 11.71875 18.140625 8.90625 
Q 21.296875 6.109375 26.703125 6.109375 
Q 34.1875 6.109375 38.703125 11.40625 
Q 43.21875 16.703125 43.21875 25.484375 
L 43.21875 27.484375 
z
M 52.203125 31.203125 
L 52.203125 0 
L 43.21875 0 
L 43.21875 8.296875 
Q 40.140625 3.328125 35.546875 0.953125 
Q 30.953125 -1.421875 24.3125 -1.421875 
Q 15.921875 -1.421875 10.953125 3.296875 
Q 6 8.015625 6 15.921875 
Q 6 25.140625 12.171875 29.828125 
Q 18.359375 34.515625 30.609375 34.515625 
L 43.21875 34.515625 
L 43.21875 35.40625 
Q 43.21875 41.609375 39.140625 45 
Q 35.0625 48.390625 27.6875 48.390625 
Q 23 48.390625 18.546875 47.265625 
Q 14.109375 46.140625 10.015625 43.890625 
L 10.015625 52.203125 
Q 14.9375 54.109375 19.578125 55.046875 
Q 24.21875 56 28.609375 56 
Q 40.484375 56 46.34375 49.84375 
Q 52.203125 43.703125 52.203125 31.203125 
z
" id="DejaVuSans-97"/>
     <path d="M 54.890625 33.015625 
L 54.890625 0 
L 45.90625 0 
L 45.90625 32.71875 
Q 45.90625 40.484375 42.875 44.328125 
Q 39.84375 48.1875 33.796875 48.1875 
Q 26.515625 48.1875 22.3125 43.546875 
Q 18.109375 38.921875 18.109375 30.90625 
L 18.109375 0 
L 9.078125 0 
L 9.078125 54.6875 
L 18.109375 54.6875 
L 18.109375 46.1875 
Q 21.34375 51.125 25.703125 53.5625 
Q 30.078125 56 35.796875 56 
Q 45.21875 56 50.046875 50.171875 
Q 54.890625 44.34375 54.890625 33.015625 
z
" id="DejaVuSans-110"/>
     <path d="M 19.671875 64.796875 
L 19.671875 37.40625 
L 32.078125 37.40625 
Q 38.96875 37.40625 42.71875 40.96875 
Q 46.484375 44.53125 46.484375 51.125 
Q 46.484375 57.671875 42.71875 61.234375 
Q 38.96875 64.796875 32.078125 64.796875 
z
M 9.8125 72.90625 
L 32.078125 72.90625 
Q 44.34375 72.90625 50.609375 67.359375 
Q 56.890625 61.8125 56.890625 51.125 
Q 56.890625 40.328125 50.609375 34.8125 
Q 44.34375 29.296875 32.078125 29.296875 
L 19.671875 29.296875 
L 19.671875 0 
L 9.8125 0 
z
" id="DejaVuSans-80"/>
     <path d="M 44.390625 34.1875 
Q 47.5625 33.109375 50.5625 29.59375 
Q 53.5625 26.078125 56.59375 19.921875 
L 66.609375 0 
L 56 0 
L 46.6875 18.703125 
Q 43.0625 26.03125 39.671875 28.421875 
Q 36.28125 30.8125 30.421875 30.8125 
L 19.671875 30.8125 
L 19.671875 0 
L 9.8125 0 
L 9.8125 72.90625 
L 32.078125 72.90625 
Q 44.578125 72.90625 50.734375 67.671875 
Q 56.890625 62.453125 56.890625 51.90625 
Q 56.890625 45.015625 53.6875 40.46875 
Q 50.484375 35.9375 44.390625 34.1875 
z
M 19.671875 64.796875 
L 19.671875 38.921875 
L 32.078125 38.921875 
Q 39.203125 38.921875 42.84375 42.21875 
Q 46.484375 45.515625 46.484375 51.90625 
Q 46.484375 58.296875 42.84375 61.546875 
Q 39.203125 64.796875 32.078125 64.796875 
z
" id="DejaVuSans-82"/>
     <path d="M 2.984375 54.6875 
L 12.5 54.6875 
L 29.59375 8.796875 
L 46.6875 54.6875 
L 56.203125 54.6875 
L 35.6875 0 
L 23.484375 0 
z
" id="DejaVuSans-118"/>
     <path d="M 41.109375 46.296875 
Q 39.59375 47.171875 37.8125 47.578125 
Q 36.03125 48 33.890625 48 
Q 26.265625 48 22.1875 43.046875 
Q 18.109375 38.09375 18.109375 28.8125 
L 18.109375 0 
L 9.078125 0 
L 9.078125 54.6875 
L 18.109375 54.6875 
L 18.109375 46.1875 
Q 20.953125 51.171875 25.484375 53.578125 
Q 30.03125 56 36.53125 56 
Q 37.453125 56 38.578125 55.875 
Q 39.703125 55.765625 41.0625 55.515625 
z
" id="DejaVuSans-114"/>
     <path d="M 18.3125 70.21875 
L 18.3125 54.6875 
L 36.8125 54.6875 
L 36.8125 47.703125 
L 18.3125 47.703125 
L 18.3125 18.015625 
Q 18.3125 11.328125 20.140625 9.421875 
Q 21.96875 7.515625 27.59375 7.515625 
L 36.8125 7.515625 
L 36.8125 0 
L 27.59375 0 
Q 17.1875 0 13.234375 3.875 
Q 9.28125 7.765625 9.28125 18.015625 
L 9.28125 47.703125 
L 2.6875 47.703125 
L 2.6875 54.6875 
L 9.28125 54.6875 
L 9.28125 70.21875 
z
" id="DejaVuSans-116"/>
     <path d="M 52 44.1875 
Q 55.375 50.25 60.0625 53.125 
Q 64.75 56 71.09375 56 
Q 79.640625 56 84.28125 50.015625 
Q 88.921875 44.046875 88.921875 33.015625 
L 88.921875 0 
L 79.890625 0 
L 79.890625 32.71875 
Q 79.890625 40.578125 77.09375 44.375 
Q 74.3125 48.1875 68.609375 48.1875 
Q 61.625 48.1875 57.5625 43.546875 
Q 53.515625 38.921875 53.515625 30.90625 
L 53.515625 0 
L 44.484375 0 
L 44.484375 32.71875 
Q 44.484375 40.625 41.703125 44.40625 
Q 38.921875 48.1875 33.109375 48.1875 
Q 26.21875 48.1875 22.15625 43.53125 
Q 18.109375 38.875 18.109375 30.90625 
L 18.109375 0 
L 9.078125 0 
L 9.078125 54.6875 
L 18.109375 54.6875 
L 18.109375 46.1875 
Q 21.1875 51.21875 25.484375 53.609375 
Q 29.78125 56 35.6875 56 
Q 41.65625 56 45.828125 52.96875 
Q 50 49.953125 52 44.1875 
z
" id="DejaVuSans-109"/>
    </defs>
    <g style="fill:#262626;" transform="translate(271.635938 80.4)scale(0.12 -0.12)">
     <use xlink:href="#DejaVuSans-67"/>
     <use x="69.824219" xlink:href="#DejaVuSans-108"/>
     <use x="97.607422" xlink:href="#DejaVuSans-111"/>
     <use x="158.789062" xlink:href="#DejaVuSans-115"/>
     <use x="210.888672" xlink:href="#DejaVuSans-101"/>
     <use x="272.412109" xlink:href="#DejaVuSans-100"/>
     <use x="335.888672" xlink:href="#DejaVuSans-32"/>
     <use x="367.675781" xlink:href="#DejaVuSans-105"/>
     <use x="395.458984" xlink:href="#DejaVuSans-115"/>
     <use x="447.558594" xlink:href="#DejaVuSans-115"/>
     <use x="499.658203" xlink:href="#DejaVuSans-117"/>
     <use x="563.037109" xlink:href="#DejaVuSans-101"/>
     <use x="624.560547" xlink:href="#DejaVuSans-115"/>
     <use x="676.660156" xlink:href="#DejaVuSans-32"/>
     <use x="708.447266" xlink:href="#DejaVuSans-97"/>
     <use x="769.726562" xlink:href="#DejaVuSans-110"/>
     <use x="833.105469" xlink:href="#DejaVuSans-100"/>
     <use x="896.582031" xlink:href="#DejaVuSans-32"/>
     <use x="928.369141" xlink:href="#DejaVuSans-80"/>
     <use x="988.671875" xlink:href="#DejaVuSans-82"/>
     <use x="1058.154297" xlink:href="#DejaVuSans-115"/>
     <use x="1110.253906" xlink:href="#DejaVuSans-32"/>
     <use x="1142.041016" xlink:href="#DejaVuSans-111"/>
     <use x="1203.222656" xlink:href="#DejaVuSans-118"/>
     <use x="1262.402344" xlink:href="#DejaVuSans-101"/>
     <use x="1323.925781" xlink:href="#DejaVuSans-114"/>
     <use x="1365.039062" xlink:href="#DejaVuSans-32"/>
     <use x="1396.826172" xlink:href="#DejaVuSans-116"/>
     <use x="1436.035156" xlink:href="#DejaVuSans-105"/>
     <use x="1463.818359" xlink:href="#DejaVuSans-109"/>
     <use x="1561.230469" xlink:href="#DejaVuSans-101"/>
    </g>
   </g>
  </g>
 </g>
 <defs>
  <clipPath id="pf7ca78e98b">
   <rect height="554.4" width="558" x="90" y="86.4"/>
  </clipPath>
 </defs>
</svg>
