<?xml version="1.0" encoding="utf-8" standalone="no"?>
<!DOCTYPE svg PUBLIC "-//W3C//DTD SVG 1.1//EN"
  "http://www.w3.org/Graphics/SVG/1.1/DTD/svg11.dtd">
<!-- Created with matplotlib (https://matplotlib.org/) -->
<svg height="720pt" version="1.1" viewBox="0 0 720 720" width="720pt" xmlns="http://www.w3.org/2000/svg" xmlns:xlink="http://www.w3.org/1999/xlink">
 <defs>
  <style type="text/css">
*{stroke-linecap:butt;stroke-linejoin:round;}
  </style>
 </defs>
 <g id="figure_1">
  <g id="patch_1">
   <path d="M 0 720 
L 720 720 
L 720 0 
L 0 0 
z
" style="fill:#ffffff;"/>
  </g>
  <g id="axes_1">
   <g id="patch_2">
    <path d="M 90 640.8 
L 648 640.8 
L 648 86.4 
L 90 86.4 
z
" style="fill:#ffffff;"/>
   </g>
   <g id="matplotlib.axis_1">
    <g id="xtick_1">
     <g id="line2d_1">
      <path clip-path="url(#p91a90047b1)" d="M 164.063524 640.8 
L 164.063524 86.4 
" style="fill:none;stroke:#cccccc;stroke-linecap:round;stroke-width:0.8;"/>
     </g>
     <g id="line2d_2"/>
     <g id="text_1">
      <!-- 2015 -->
      <defs>
       <path d="M 19.1875 8.296875 
L 53.609375 8.296875 
L 53.609375 0 
L 7.328125 0 
L 7.328125 8.296875 
Q 12.9375 14.109375 22.625 23.890625 
Q 32.328125 33.6875 34.8125 36.53125 
Q 39.546875 41.84375 41.421875 45.53125 
Q 43.3125 49.21875 43.3125 52.78125 
Q 43.3125 58.59375 39.234375 62.25 
Q 35.15625 65.921875 28.609375 65.921875 
Q 23.96875 65.921875 18.8125 64.3125 
Q 13.671875 62.703125 7.8125 59.421875 
L 7.8125 69.390625 
Q 13.765625 71.78125 18.9375 73 
Q 24.125 74.21875 28.421875 74.21875 
Q 39.75 74.21875 46.484375 68.546875 
Q 53.21875 62.890625 53.21875 53.421875 
Q 53.21875 48.921875 51.53125 44.890625 
Q 49.859375 40.875 45.40625 35.40625 
Q 44.1875 33.984375 37.640625 27.21875 
Q 31.109375 20.453125 19.1875 8.296875 
z
" id="DejaVuSans-50"/>
       <path d="M 31.78125 66.40625 
Q 24.171875 66.40625 20.328125 58.90625 
Q 16.5 51.421875 16.5 36.375 
Q 16.5 21.390625 20.328125 13.890625 
Q 24.171875 6.390625 31.78125 6.390625 
Q 39.453125 6.390625 43.28125 13.890625 
Q 47.125 21.390625 47.125 36.375 
Q 47.125 51.421875 43.28125 58.90625 
Q 39.453125 66.40625 31.78125 66.40625 
z
M 31.78125 74.21875 
Q 44.046875 74.21875 50.515625 64.515625 
Q 56.984375 54.828125 56.984375 36.375 
Q 56.984375 17.96875 50.515625 8.265625 
Q 44.046875 -1.421875 31.78125 -1.421875 
Q 19.53125 -1.421875 13.0625 8.265625 
Q 6.59375 17.96875 6.59375 36.375 
Q 6.59375 54.828125 13.0625 64.515625 
Q 19.53125 74.21875 31.78125 74.21875 
z
" id="DejaVuSans-48"/>
       <path d="M 12.40625 8.296875 
L 28.515625 8.296875 
L 28.515625 63.921875 
L 10.984375 60.40625 
L 10.984375 69.390625 
L 28.421875 72.90625 
L 38.28125 72.90625 
L 38.28125 8.296875 
L 54.390625 8.296875 
L 54.390625 0 
L 12.40625 0 
z
" id="DejaVuSans-49"/>
       <path d="M 10.796875 72.90625 
L 49.515625 72.90625 
L 49.515625 64.59375 
L 19.828125 64.59375 
L 19.828125 46.734375 
Q 21.96875 47.46875 24.109375 47.828125 
Q 26.265625 48.1875 28.421875 48.1875 
Q 40.625 48.1875 47.75 41.5 
Q 54.890625 34.8125 54.890625 23.390625 
Q 54.890625 11.625 47.5625 5.09375 
Q 40.234375 -1.421875 26.90625 -1.421875 
Q 22.3125 -1.421875 17.546875 -0.640625 
Q 12.796875 0.140625 7.71875 1.703125 
L 7.71875 11.625 
Q 12.109375 9.234375 16.796875 8.0625 
Q 21.484375 6.890625 26.703125 6.890625 
Q 35.15625 6.890625 40.078125 11.328125 
Q 45.015625 15.765625 45.015625 23.390625 
Q 45.015625 31 40.078125 35.4375 
Q 35.15625 39.890625 26.703125 39.890625 
Q 22.75 39.890625 18.8125 39.015625 
Q 14.890625 38.140625 10.796875 36.28125 
z
" id="DejaVuSans-53"/>
      </defs>
      <g style="fill:#262626;" transform="translate(151.338524 651.898438)scale(0.1 -0.1)">
       <use xlink:href="#DejaVuSans-50"/>
       <use x="63.623047" xlink:href="#DejaVuSans-48"/>
       <use x="127.246094" xlink:href="#DejaVuSans-49"/>
       <use x="190.869141" xlink:href="#DejaVuSans-53"/>
      </g>
     </g>
    </g>
    <g id="xtick_2">
     <g id="line2d_3">
      <path clip-path="url(#p91a90047b1)" d="M 249.570063 640.8 
L 249.570063 86.4 
" style="fill:none;stroke:#cccccc;stroke-linecap:round;stroke-width:0.8;"/>
     </g>
     <g id="line2d_4"/>
     <g id="text_2">
      <!-- 2016 -->
      <defs>
       <path d="M 33.015625 40.375 
Q 26.375 40.375 22.484375 35.828125 
Q 18.609375 31.296875 18.609375 23.390625 
Q 18.609375 15.53125 22.484375 10.953125 
Q 26.375 6.390625 33.015625 6.390625 
Q 39.65625 6.390625 43.53125 10.953125 
Q 47.40625 15.53125 47.40625 23.390625 
Q 47.40625 31.296875 43.53125 35.828125 
Q 39.65625 40.375 33.015625 40.375 
z
M 52.59375 71.296875 
L 52.59375 62.3125 
Q 48.875 64.0625 45.09375 64.984375 
Q 41.3125 65.921875 37.59375 65.921875 
Q 27.828125 65.921875 22.671875 59.328125 
Q 17.53125 52.734375 16.796875 39.40625 
Q 19.671875 43.65625 24.015625 45.921875 
Q 28.375 48.1875 33.59375 48.1875 
Q 44.578125 48.1875 50.953125 41.515625 
Q 57.328125 34.859375 57.328125 23.390625 
Q 57.328125 12.15625 50.6875 5.359375 
Q 44.046875 -1.421875 33.015625 -1.421875 
Q 20.359375 -1.421875 13.671875 8.265625 
Q 6.984375 17.96875 6.984375 36.375 
Q 6.984375 53.65625 15.1875 63.9375 
Q 23.390625 74.21875 37.203125 74.21875 
Q 40.921875 74.21875 44.703125 73.484375 
Q 48.484375 72.75 52.59375 71.296875 
z
" id="DejaVuSans-54"/>
      </defs>
      <g style="fill:#262626;" transform="translate(236.845063 651.898438)scale(0.1 -0.1)">
       <use xlink:href="#DejaVuSans-50"/>
       <use x="63.623047" xlink:href="#DejaVuSans-48"/>
       <use x="127.246094" xlink:href="#DejaVuSans-49"/>
       <use x="190.869141" xlink:href="#DejaVuSans-54"/>
      </g>
     </g>
    </g>
    <g id="xtick_3">
     <g id="line2d_5">
      <path clip-path="url(#p91a90047b1)" d="M 335.310867 640.8 
L 335.310867 86.4 
" style="fill:none;stroke:#cccccc;stroke-linecap:round;stroke-width:0.8;"/>
     </g>
     <g id="line2d_6"/>
     <g id="text_3">
      <!-- 2017 -->
      <defs>
       <path d="M 8.203125 72.90625 
L 55.078125 72.90625 
L 55.078125 68.703125 
L 28.609375 0 
L 18.3125 0 
L 43.21875 64.59375 
L 8.203125 64.59375 
z
" id="DejaVuSans-55"/>
      </defs>
      <g style="fill:#262626;" transform="translate(322.585867 651.898438)scale(0.1 -0.1)">
       <use xlink:href="#DejaVuSans-50"/>
       <use x="63.623047" xlink:href="#DejaVuSans-48"/>
       <use x="127.246094" xlink:href="#DejaVuSans-49"/>
       <use x="190.869141" xlink:href="#DejaVuSans-55"/>
      </g>
     </g>
    </g>
    <g id="xtick_4">
     <g id="line2d_7">
      <path clip-path="url(#p91a90047b1)" d="M 420.817406 640.8 
L 420.817406 86.4 
" style="fill:none;stroke:#cccccc;stroke-linecap:round;stroke-width:0.8;"/>
     </g>
     <g id="line2d_8"/>
     <g id="text_4">
      <!-- 2018 -->
      <defs>
       <path d="M 31.78125 34.625 
Q 24.75 34.625 20.71875 30.859375 
Q 16.703125 27.09375 16.703125 20.515625 
Q 16.703125 13.921875 20.71875 10.15625 
Q 24.75 6.390625 31.78125 6.390625 
Q 38.8125 6.390625 42.859375 10.171875 
Q 46.921875 13.96875 46.921875 20.515625 
Q 46.921875 27.09375 42.890625 30.859375 
Q 38.875 34.625 31.78125 34.625 
z
M 21.921875 38.8125 
Q 15.578125 40.375 12.03125 44.71875 
Q 8.5 49.078125 8.5 55.328125 
Q 8.5 64.0625 14.71875 69.140625 
Q 20.953125 74.21875 31.78125 74.21875 
Q 42.671875 74.21875 48.875 69.140625 
Q 55.078125 64.0625 55.078125 55.328125 
Q 55.078125 49.078125 51.53125 44.71875 
Q 48 40.375 41.703125 38.8125 
Q 48.828125 37.15625 52.796875 32.3125 
Q 56.78125 27.484375 56.78125 20.515625 
Q 56.78125 9.90625 50.3125 4.234375 
Q 43.84375 -1.421875 31.78125 -1.421875 
Q 19.734375 -1.421875 13.25 4.234375 
Q 6.78125 9.90625 6.78125 20.515625 
Q 6.78125 27.484375 10.78125 32.3125 
Q 14.796875 37.15625 21.921875 38.8125 
z
M 18.3125 54.390625 
Q 18.3125 48.734375 21.84375 45.5625 
Q 25.390625 42.390625 31.78125 42.390625 
Q 38.140625 42.390625 41.71875 45.5625 
Q 45.3125 48.734375 45.3125 54.390625 
Q 45.3125 60.0625 41.71875 63.234375 
Q 38.140625 66.40625 31.78125 66.40625 
Q 25.390625 66.40625 21.84375 63.234375 
Q 18.3125 60.0625 18.3125 54.390625 
z
" id="DejaVuSans-56"/>
      </defs>
      <g style="fill:#262626;" transform="translate(408.092406 651.898438)scale(0.1 -0.1)">
       <use xlink:href="#DejaVuSans-50"/>
       <use x="63.623047" xlink:href="#DejaVuSans-48"/>
       <use x="127.246094" xlink:href="#DejaVuSans-49"/>
       <use x="190.869141" xlink:href="#DejaVuSans-56"/>
      </g>
     </g>
    </g>
    <g id="xtick_5">
     <g id="line2d_9">
      <path clip-path="url(#p91a90047b1)" d="M 506.323945 640.8 
L 506.323945 86.4 
" style="fill:none;stroke:#cccccc;stroke-linecap:round;stroke-width:0.8;"/>
     </g>
     <g id="line2d_10"/>
     <g id="text_5">
      <!-- 2019 -->
      <defs>
       <path d="M 10.984375 1.515625 
L 10.984375 10.5 
Q 14.703125 8.734375 18.5 7.8125 
Q 22.3125 6.890625 25.984375 6.890625 
Q 35.75 6.890625 40.890625 13.453125 
Q 46.046875 20.015625 46.78125 33.40625 
Q 43.953125 29.203125 39.59375 26.953125 
Q 35.25 24.703125 29.984375 24.703125 
Q 19.046875 24.703125 12.671875 31.3125 
Q 6.296875 37.9375 6.296875 49.421875 
Q 6.296875 60.640625 12.9375 67.421875 
Q 19.578125 74.21875 30.609375 74.21875 
Q 43.265625 74.21875 49.921875 64.515625 
Q 56.59375 54.828125 56.59375 36.375 
Q 56.59375 19.140625 48.40625 8.859375 
Q 40.234375 -1.421875 26.421875 -1.421875 
Q 22.703125 -1.421875 18.890625 -0.6875 
Q 15.09375 0.046875 10.984375 1.515625 
z
M 30.609375 32.421875 
Q 37.25 32.421875 41.125 36.953125 
Q 45.015625 41.5 45.015625 49.421875 
Q 45.015625 57.28125 41.125 61.84375 
Q 37.25 66.40625 30.609375 66.40625 
Q 23.96875 66.40625 20.09375 61.84375 
Q 16.21875 57.28125 16.21875 49.421875 
Q 16.21875 41.5 20.09375 36.953125 
Q 23.96875 32.421875 30.609375 32.421875 
z
" id="DejaVuSans-57"/>
      </defs>
      <g style="fill:#262626;" transform="translate(493.598945 651.898438)scale(0.1 -0.1)">
       <use xlink:href="#DejaVuSans-50"/>
       <use x="63.623047" xlink:href="#DejaVuSans-48"/>
       <use x="127.246094" xlink:href="#DejaVuSans-49"/>
       <use x="190.869141" xlink:href="#DejaVuSans-57"/>
      </g>
     </g>
    </g>
    <g id="xtick_6">
     <g id="line2d_11">
      <path clip-path="url(#p91a90047b1)" d="M 591.830484 640.8 
L 591.830484 86.4 
" style="fill:none;stroke:#cccccc;stroke-linecap:round;stroke-width:0.8;"/>
     </g>
     <g id="line2d_12"/>
     <g id="text_6">
      <!-- 2020 -->
      <g style="fill:#262626;" transform="translate(579.105484 651.898438)scale(0.1 -0.1)">
       <use xlink:href="#DejaVuSans-50"/>
       <use x="63.623047" xlink:href="#DejaVuSans-48"/>
       <use x="127.246094" xlink:href="#DejaVuSans-50"/>
       <use x="190.869141" xlink:href="#DejaVuSans-48"/>
      </g>
     </g>
    </g>
   </g>
   <g id="matplotlib.axis_2">
    <g id="ytick_1">
     <g id="line2d_13">
      <path clip-path="url(#p91a90047b1)" d="M 90 615.609174 
L 648 615.609174 
" style="fill:none;stroke:#cccccc;stroke-linecap:round;stroke-width:0.8;"/>
     </g>
     <g id="line2d_14"/>
     <g id="text_7">
      <!-- 0 -->
      <g style="fill:#262626;" transform="translate(80.1375 619.408393)scale(0.1 -0.1)">
       <use xlink:href="#DejaVuSans-48"/>
      </g>
     </g>
    </g>
    <g id="ytick_2">
     <g id="line2d_15">
      <path clip-path="url(#p91a90047b1)" d="M 90 523.869395 
L 648 523.869395 
" style="fill:none;stroke:#cccccc;stroke-linecap:round;stroke-width:0.8;"/>
     </g>
     <g id="line2d_16"/>
     <g id="text_8">
      <!-- 10000 -->
      <g style="fill:#262626;" transform="translate(54.6875 527.668613)scale(0.1 -0.1)">
       <use xlink:href="#DejaVuSans-49"/>
       <use x="63.623047" xlink:href="#DejaVuSans-48"/>
       <use x="127.246094" xlink:href="#DejaVuSans-48"/>
       <use x="190.869141" xlink:href="#DejaVuSans-48"/>
       <use x="254.492188" xlink:href="#DejaVuSans-48"/>
      </g>
     </g>
    </g>
    <g id="ytick_3">
     <g id="line2d_17">
      <path clip-path="url(#p91a90047b1)" d="M 90 432.129615 
L 648 432.129615 
" style="fill:none;stroke:#cccccc;stroke-linecap:round;stroke-width:0.8;"/>
     </g>
     <g id="line2d_18"/>
     <g id="text_9">
      <!-- 20000 -->
      <g style="fill:#262626;" transform="translate(54.6875 435.928834)scale(0.1 -0.1)">
       <use xlink:href="#DejaVuSans-50"/>
       <use x="63.623047" xlink:href="#DejaVuSans-48"/>
       <use x="127.246094" xlink:href="#DejaVuSans-48"/>
       <use x="190.869141" xlink:href="#DejaVuSans-48"/>
       <use x="254.492188" xlink:href="#DejaVuSans-48"/>
      </g>
     </g>
    </g>
    <g id="ytick_4">
     <g id="line2d_19">
      <path clip-path="url(#p91a90047b1)" d="M 90 340.389836 
L 648 340.389836 
" style="fill:none;stroke:#cccccc;stroke-linecap:round;stroke-width:0.8;"/>
     </g>
     <g id="line2d_20"/>
     <g id="text_10">
      <!-- 30000 -->
      <defs>
       <path d="M 40.578125 39.3125 
Q 47.65625 37.796875 51.625 33 
Q 55.609375 28.21875 55.609375 21.1875 
Q 55.609375 10.40625 48.1875 4.484375 
Q 40.765625 -1.421875 27.09375 -1.421875 
Q 22.515625 -1.421875 17.65625 -0.515625 
Q 12.796875 0.390625 7.625 2.203125 
L 7.625 11.71875 
Q 11.71875 9.328125 16.59375 8.109375 
Q 21.484375 6.890625 26.8125 6.890625 
Q 36.078125 6.890625 40.9375 10.546875 
Q 45.796875 14.203125 45.796875 21.1875 
Q 45.796875 27.640625 41.28125 31.265625 
Q 36.765625 34.90625 28.71875 34.90625 
L 20.21875 34.90625 
L 20.21875 43.015625 
L 29.109375 43.015625 
Q 36.375 43.015625 40.234375 45.921875 
Q 44.09375 48.828125 44.09375 54.296875 
Q 44.09375 59.90625 40.109375 62.90625 
Q 36.140625 65.921875 28.71875 65.921875 
Q 24.65625 65.921875 20.015625 65.03125 
Q 15.375 64.15625 9.8125 62.3125 
L 9.8125 71.09375 
Q 15.4375 72.65625 20.34375 73.4375 
Q 25.25 74.21875 29.59375 74.21875 
Q 40.828125 74.21875 47.359375 69.109375 
Q 53.90625 64.015625 53.90625 55.328125 
Q 53.90625 49.265625 50.4375 45.09375 
Q 46.96875 40.921875 40.578125 39.3125 
z
" id="DejaVuSans-51"/>
      </defs>
      <g style="fill:#262626;" transform="translate(54.6875 344.189055)scale(0.1 -0.1)">
       <use xlink:href="#DejaVuSans-51"/>
       <use x="63.623047" xlink:href="#DejaVuSans-48"/>
       <use x="127.246094" xlink:href="#DejaVuSans-48"/>
       <use x="190.869141" xlink:href="#DejaVuSans-48"/>
       <use x="254.492188" xlink:href="#DejaVuSans-48"/>
      </g>
     </g>
    </g>
    <g id="ytick_5">
     <g id="line2d_21">
      <path clip-path="url(#p91a90047b1)" d="M 90 248.650056 
L 648 248.650056 
" style="fill:none;stroke:#cccccc;stroke-linecap:round;stroke-width:0.8;"/>
     </g>
     <g id="line2d_22"/>
     <g id="text_11">
      <!-- 40000 -->
      <defs>
       <path d="M 37.796875 64.3125 
L 12.890625 25.390625 
L 37.796875 25.390625 
z
M 35.203125 72.90625 
L 47.609375 72.90625 
L 47.609375 25.390625 
L 58.015625 25.390625 
L 58.015625 17.1875 
L 47.609375 17.1875 
L 47.609375 0 
L 37.796875 0 
L 37.796875 17.1875 
L 4.890625 17.1875 
L 4.890625 26.703125 
z
" id="DejaVuSans-52"/>
      </defs>
      <g style="fill:#262626;" transform="translate(54.6875 252.449275)scale(0.1 -0.1)">
       <use xlink:href="#DejaVuSans-52"/>
       <use x="63.623047" xlink:href="#DejaVuSans-48"/>
       <use x="127.246094" xlink:href="#DejaVuSans-48"/>
       <use x="190.869141" xlink:href="#DejaVuSans-48"/>
       <use x="254.492188" xlink:href="#DejaVuSans-48"/>
      </g>
     </g>
    </g>
    <g id="ytick_6">
     <g id="line2d_23">
      <path clip-path="url(#p91a90047b1)" d="M 90 156.910277 
L 648 156.910277 
" style="fill:none;stroke:#cccccc;stroke-linecap:round;stroke-width:0.8;"/>
     </g>
     <g id="line2d_24"/>
     <g id="text_12">
      <!-- 50000 -->
      <g style="fill:#262626;" transform="translate(54.6875 160.709496)scale(0.1 -0.1)">
       <use xlink:href="#DejaVuSans-53"/>
       <use x="63.623047" xlink:href="#DejaVuSans-48"/>
       <use x="127.246094" xlink:href="#DejaVuSans-48"/>
       <use x="190.869141" xlink:href="#DejaVuSans-48"/>
       <use x="254.492188" xlink:href="#DejaVuSans-48"/>
      </g>
     </g>
    </g>
   </g>
   <g id="line2d_25">
    <path clip-path="url(#p91a90047b1)" d="M 115.363636 615.6 
L 116.507105 615.214693 
L 116.79262 614.97617 
L 117.494158 614.820212 
L 117.608319 614.774342 
L 117.958262 614.65508 
L 118.365858 614.517471 
L 118.443881 614.471601 
L 119.346325 614.269773 
L 119.374009 614.233077 
L 119.539577 614.113816 
L 120.518239 613.792726 
L 121.135181 613.673465 
L 121.244594 613.508333 
L 123.011851 613.251462 
L 123.339377 613.095504 
L 123.710261 612.94872 
L 123.723191 612.893677 
L 124.371586 612.728545 
L 125.899728 612.09554 
L 126.275424 611.976279 
L 126.357186 611.921235 
L 126.635291 611.801973 
L 126.778518 611.746929 
L 127.457687 611.600146 
L 127.917203 611.28823 
L 128.381771 611.058881 
L 128.460301 610.994663 
L 129.106877 610.875401 
L 129.219283 610.75614 
L 129.348784 610.636878 
L 129.400323 610.591008 
L 129.867257 610.453398 
L 131.009815 610.169005 
L 131.044767 610.132309 
L 131.475952 610.003873 
L 131.508535 609.930482 
L 132.374622 609.774524 
L 132.454109 609.62774 
L 132.876021 609.490131 
L 132.956281 609.407565 
L 134.081429 609.205737 
L 134.273057 609.04978 
L 134.995838 608.554385 
L 135.945418 608.435123 
L 136.580722 608.1966 
L 136.705649 608.10486 
L 137.364982 607.948902 
L 137.787639 607.719553 
L 137.869347 607.636987 
L 138.234466 607.499377 
L 141.049013 606.792981 
L 141.150731 606.701241 
L 141.528396 606.563632 
L 141.579712 606.49024 
L 142.428698 606.35263 
L 142.503416 606.297586 
L 142.909757 606.169151 
L 143.246376 605.903105 
L 143.920494 605.765496 
L 144.156179 605.508624 
L 144.38825 605.389363 
L 144.446648 605.361841 
L 144.5969 605.242579 
L 144.660873 605.169187 
L 144.828651 605.049925 
L 144.848537 605.031577 
L 145.712729 604.87562 
L 145.790733 604.774706 
L 145.977255 604.655444 
L 146.480476 604.251789 
L 146.558345 604.187571 
L 147.176423 604.06831 
L 147.193676 604.031614 
L 147.408863 603.912352 
L 147.473416 603.83896 
L 147.859028 603.683003 
L 147.889111 603.637133 
L 148.830992 603.472001 
L 148.901621 603.389435 
L 149.236335 603.251826 
L 149.303591 603.132564 
L 149.58547 603.013302 
L 149.696404 602.967432 
L 149.81489 602.903215 
L 150.445834 602.747257 
L 150.489786 602.692213 
L 150.72149 602.572951 
L 150.778628 602.545429 
L 150.943784 602.426168 
L 150.983606 602.380298 
L 151.345879 602.242688 
L 151.429658 602.141774 
L 152.111449 602.004165 
L 152.175327 601.884903 
L 152.352321 601.756467 
L 152.420041 601.683075 
L 152.625681 601.55464 
L 153.000157 601.352812 
L 153.104063 601.187681 
L 153.696386 601.050071 
L 153.803752 600.921635 
L 154.008937 600.784026 
L 154.404706 600.65559 
L 154.674102 600.435414 
L 154.705443 600.407893 
L 155.348108 600.288631 
L 155.563084 600.160195 
L 156.07656 599.912498 
L 156.981621 599.793236 
L 157.093127 599.692322 
L 157.282805 599.573061 
L 157.463932 599.462973 
L 158.039037 599.187753 
L 158.684135 599.068492 
L 158.68663 599.050144 
L 158.903037 598.930882 
L 158.928464 598.875838 
L 159.149061 598.756577 
L 159.154752 598.738229 
L 159.35135 598.618967 
L 159.422521 598.527227 
L 159.619531 598.407965 
L 159.674206 598.371269 
L 160.285867 598.252008 
L 160.339542 598.123572 
L 160.540489 598.00431 
L 160.565488 597.930918 
L 160.845987 597.802483 
L 160.993967 597.683221 
L 161.07799 597.600655 
L 161.247786 597.481394 
L 161.272346 597.408002 
L 161.955083 597.28874 
L 161.997055 597.24287 
L 163.827599 597.004347 
L 163.846142 596.985999 
L 165.219564 596.857563 
L 165.289944 596.765823 
L 165.444149 596.646562 
L 165.541466 596.582344 
L 165.656939 596.463082 
L 165.765308 596.224559 
L 165.889501 596.105297 
L 166.171524 595.866773 
L 166.185702 595.830078 
L 166.85374 595.710816 
L 166.892283 595.573206 
L 167.121523 595.453944 
L 167.181461 595.435596 
L 167.319252 595.316335 
L 167.411325 595.105333 
L 167.555436 594.986072 
L 167.60045 594.82094 
L 167.789586 594.701678 
L 167.827256 594.655808 
L 168.725633 594.536547 
L 168.89981 594.325545 
L 169.200111 593.976934 
L 169.264233 593.87602 
L 169.436227 593.756759 
L 169.533526 593.665019 
L 170.217873 593.536583 
L 170.3559 593.417321 
L 170.816783 592.940274 
L 171.013079 592.747621 
L 171.103466 592.554967 
L 171.744885 592.426532 
L 171.823342 592.224704 
L 171.992728 592.105442 
L 172.159381 591.940311 
L 172.261403 591.793527 
L 172.323841 591.729309 
L 172.439544 591.610048 
L 172.686796 591.298132 
L 172.746902 591.133001 
L 173.420448 591.013739 
L 173.448107 590.977043 
L 173.629987 590.857781 
L 173.681666 590.775216 
L 173.873424 590.655954 
L 173.949341 590.499996 
L 174.080933 590.380735 
L 174.451125 590.004602 
L 175.246968 589.88534 
L 175.35528 589.555077 
L 175.528156 589.435815 
L 175.608169 589.316553 
L 175.733826 589.197291 
L 175.803062 588.98629 
L 175.938691 588.857854 
L 176.021801 588.536765 
L 176.654876 588.417503 
L 176.723295 588.151458 
L 177.04308 588.023022 
L 177.371723 587.848717 
L 177.485582 587.637715 
L 177.610271 587.518454 
L 177.659749 587.472584 
L 178.303843 587.3258 
L 178.407291 587.179016 
L 178.545916 587.059755 
L 178.59284 586.958841 
L 178.765504 586.839579 
L 179.117093 586.325836 
L 179.199867 586.206575 
L 179.278793 586.050617 
L 179.314038 585.968051 
L 179.943141 585.830442 
L 180.025251 585.656136 
L 180.161216 585.536874 
L 180.277619 585.252481 
L 180.39922 585.133219 
L 180.490152 584.821304 
L 180.631562 584.67452 
L 180.786244 584.408475 
L 180.873112 584.289213 
L 180.933866 584.05069 
L 181.56135 583.931428 
L 181.63449 583.619513 
L 181.786255 583.500251 
L 182.167643 583.032378 
L 182.278102 582.913117 
L 182.356752 582.775507 
L 182.533304 582.656245 
L 182.607295 582.426896 
L 183.242556 582.289286 
L 183.315197 582.179198 
L 183.42593 582.059937 
L 183.533735 581.720499 
L 183.676154 581.601238 
L 183.884601 581.252627 
L 183.972051 580.86732 
L 184.067202 580.720536 
L 184.16055 580.5921 
L 184.353395 580.399447 
L 184.835801 580.280185 
L 185.322868 579.509571 
L 185.37609 579.326091 
L 185.463224 579.133438 
L 185.551789 579.014176 
L 185.711742 578.674739 
L 185.828302 578.527955 
L 185.861224 578.445389 
L 186.497905 578.30778 
L 186.613381 578.105952 
L 186.743362 577.922473 
L 186.914698 577.738993 
L 186.992477 577.601383 
L 187.120873 577.463774 
L 187.194376 577.344512 
L 187.319414 577.151858 
L 187.458181 576.986727 
L 187.555956 576.858291 
L 188.125905 576.702334 
L 188.201748 576.454636 
L 188.357081 576.335374 
L 188.435183 576.096851 
L 188.598987 575.959241 
L 188.800481 575.729892 
L 188.874462 575.555586 
L 189.130518 575.106061 
L 189.774612 574.968452 
L 189.975114 574.518927 
L 190.821069 573.078612 
L 191.403539 572.959351 
L 191.659549 572.399738 
L 191.872876 572.15204 
L 191.972574 571.986909 
L 192.109359 571.840125 
L 192.285917 571.500688 
L 192.357853 571.372252 
L 192.417446 571.197947 
L 193.0068 571.069511 
L 193.112922 570.693378 
L 193.327718 570.390637 
L 193.432893 570.207157 
L 193.528131 570.078721 
L 193.800211 569.702588 
L 194.061549 569.427369 
L 194.210112 569.399847 
L 194.63496 569.280585 
L 194.748137 568.913626 
L 194.9988 568.464101 
L 195.161548 568.335666 
L 195.22981 568.087968 
L 195.387963 567.959533 
L 195.732056 567.299006 
L 196.305556 567.161396 
L 196.388235 566.739393 
L 196.460504 566.574262 
L 196.571875 566.455 
L 196.619319 566.354086 
L 197.017693 566.225651 
L 197.161397 565.821996 
L 197.272231 565.702734 
L 197.318181 565.537602 
L 197.376972 565.482559 
L 198.196838 565.335775 
L 198.312186 565.033034 
L 198.436216 564.904598 
L 198.487288 564.766988 
L 198.586701 564.647727 
L 198.713765 564.482595 
L 198.817566 564.051418 
L 198.93396 563.867938 
L 199.001431 563.693633 
L 199.607886 563.546849 
L 199.69346 563.3175 
L 199.84449 563.189064 
L 199.924471 562.978063 
L 200.024849 562.822105 
L 200.093613 562.656973 
L 200.395088 562.143231 
L 200.551324 561.968925 
L 200.593318 561.767097 
L 201.258659 561.629488 
L 201.355076 561.455182 
L 201.484008 561.33592 
L 201.594663 561.088223 
L 201.740132 560.959787 
L 201.817016 560.75796 
L 201.954787 560.62035 
L 202.086103 560.271739 
L 202.223419 560.060738 
L 202.292744 559.877258 
L 202.886325 559.739648 
L 202.998471 559.519473 
L 203.166727 559.326819 
L 203.628699 558.592901 
L 203.718951 558.271812 
L 203.807424 558.134202 
L 203.868707 557.923201 
L 203.918567 557.831461 
L 204.533617 557.693851 
L 205.589645 556.592974 
L 206.172831 556.473712 
L 206.270438 556.235189 
L 206.436839 556.060883 
L 206.527625 555.86823 
L 206.65088 555.721446 
L 206.725074 555.492097 
L 207.818853 555.171007 
L 207.887387 554.904962 
L 208.044574 554.767352 
L 208.160364 554.510481 
L 208.30386 554.354523 
L 208.419056 553.950868 
L 208.574191 553.703171 
L 209.103593 553.17108 
L 209.443513 553.042644 
L 209.566382 552.675685 
L 209.698839 552.556424 
L 209.811883 552.198638 
L 209.957943 552.070203 
L 210.069113 551.932593 
L 210.211949 551.804157 
L 210.455885 551.207849 
L 210.679516 551.033543 
L 210.739353 550.785846 
L 211.076393 550.648236 
L 211.223576 550.152841 
L 211.616004 550.006058 
L 212.13336 548.602439 
L 212.739582 548.400612 
L 212.795919 548.226306 
L 213.187401 548.088696 
L 213.311575 547.685041 
L 213.776875 547.042863 
L 214.369867 546.923601 
L 214.559223 546.66673 
L 214.66022 546.52912 
L 214.766704 546.281423 
L 214.873983 546.162161 
L 215.565798 545.244763 
L 215.962337 545.125501 
L 216.082452 544.666803 
L 216.232305 544.501671 
L 217.058321 543.25401 
L 217.584302 543.134748 
L 217.868529 542.813659 
L 217.96407 542.639353 
L 218.121112 542.49257 
L 218.233765 542.226524 
L 218.41821 541.841217 
L 218.543555 541.666912 
L 218.638516 541.529302 
L 218.666566 541.428388 
L 219.287784 541.309127 
L 219.393499 541.098125 
L 219.560122 540.905472 
L 219.669844 540.758688 
L 219.823805 540.455947 
L 220.038287 540.327511 
L 220.14164 540.125683 
L 220.309394 539.942204 
L 220.4555 539.868812 
L 220.866266 539.74955 
L 221.132232 539.584419 
L 221.273756 539.281678 
L 221.383871 539.134894 
L 221.503487 538.905544 
L 221.670774 538.786283 
L 222.074943 538.162452 
L 222.628998 538.034017 
L 222.800919 537.905581 
L 222.93923 537.676231 
L 223.088273 537.483578 
L 223.208366 537.309272 
L 223.537561 536.942313 
L 223.629264 536.79553 
L 224.178855 536.65792 
L 224.331821 536.391874 
L 224.720809 535.878132 
L 225.019715 535.199257 
L 225.189639 534.979082 
L 225.303943 534.81395 
L 225.852306 534.602949 
L 225.988548 534.327729 
L 226.130894 534.162598 
L 226.371788 534.034162 
L 226.481878 533.722247 
L 226.612145 533.456202 
L 226.710839 533.300244 
L 226.809984 533.125938 
L 226.896041 532.924111 
L 227.584312 532.786501 
L 228.006802 532.153497 
L 228.220153 531.869103 
L 228.394789 531.502144 
L 228.681527 531.107663 
L 229.125531 530.96088 
L 229.23954 530.382919 
L 229.4539 530.080178 
L 229.766112 529.593957 
L 230.156263 528.850865 
L 230.314896 528.704081 
L 230.35273 528.630689 
L 230.772066 528.511427 
L 230.819952 528.208686 
L 230.91996 528.08025 
L 231.013188 527.924293 
L 231.087616 527.713291 
L 231.214393 527.575682 
L 231.326075 527.447246 
L 231.399651 527.245418 
L 231.502579 526.970199 
L 231.608231 526.78672 
L 231.723199 526.594066 
L 231.889221 526.364717 
L 232.328133 526.208759 
L 233.781072 524.172136 
L 233.983299 524.0437 
L 234.135416 523.676741 
L 234.234295 523.529957 
L 234.350286 523.245564 
L 234.660944 522.575864 
L 234.824186 522.089643 
L 234.971748 521.887815 
L 235.225779 521.493334 
L 235.76546 521.282333 
L 235.924359 521.080505 
L 236.02522 520.970418 
L 236.218266 520.759416 
L 236.429871 520.456675 
L 236.866015 519.970454 
L 237.306994 519.796148 
L 237.428201 519.686061 
L 237.583805 519.493407 
L 237.648811 519.401667 
L 237.841629 519.254884 
L 237.998117 519.025534 
L 238.244271 518.713619 
L 238.320866 518.566835 
L 238.352893 518.539313 
L 238.956015 518.401704 
L 239.88053 517.144869 
L 239.976226 517.016433 
L 240.049054 516.970563 
L 240.565691 516.750388 
L 240.717516 516.484342 
L 240.808649 516.355907 
L 241.081325 515.9706 
L 241.8398 515.410987 
L 242.33422 515.154116 
L 242.51007 514.860548 
L 242.64025 514.722939 
L 243.338887 513.640409 
L 243.554473 513.475278 
L 243.682971 513.429408 
L 243.896206 513.300972 
L 243.996069 513.190884 
L 244.25549 512.970709 
L 244.357246 512.732185 
L 244.452636 512.521184 
L 244.550896 512.356052 
L 244.651915 512.145051 
L 244.787685 512.007441 
L 244.896431 511.814788 
L 244.986745 511.768918 
L 245.447273 511.640482 
L 245.557043 511.52122 
L 246.036185 510.71391 
L 246.149345 510.502909 
L 246.72669 509.713947 
L 246.997306 509.557989 
L 247.226878 509.356161 
L 247.40654 509.227726 
L 247.54734 509.062594 
L 248.015308 508.860767 
L 248.8408 508.741505 
L 249.43074 508.420416 
L 250.317493 508.282806 
L 250.742003 507.860803 
L 250.89082 507.778237 
L 251.170257 507.631454 
L 251.269065 507.558062 
L 252.103047 507.191103 
L 252.36061 506.906709 
L 252.567004 506.714056 
L 252.716546 506.548924 
L 252.831721 506.301227 
L 252.928309 506.237009 
L 253.26594 506.081051 
L 253.363973 505.980138 
L 253.748579 505.815006 
L 253.886681 505.759962 
L 254.034926 505.631526 
L 254.145285 505.585657 
L 254.311768 505.438873 
L 254.478988 504.915956 
L 254.605138 504.796694 
L 254.676719 504.659085 
L 254.784139 504.567345 
L 255.330322 504.402213 
L 255.608641 503.998558 
L 255.863315 503.677469 
L 255.943021 503.604077 
L 256.068939 503.484816 
L 256.112139 503.31051 
L 256.325447 502.897681 
L 256.545862 502.558244 
L 256.641197 502.36559 
L 257.006081 502.200459 
L 257.656821 501.191321 
L 257.773278 501.007842 
L 258.069506 500.384011 
L 258.341193 500.053748 
L 258.560049 499.925312 
L 258.805419 499.448265 
L 259.416974 498.393258 
L 259.624366 498.264822 
L 259.833813 498.035473 
L 260.069655 497.796949 
L 260.445753 497.457512 
L 261.245566 496.292417 
L 261.388689 496.017198 
L 261.74716 495.787848 
L 262.227299 494.980538 
L 262.338453 494.797059 
L 263.393166 493.090699 
L 263.584531 492.898045 
L 263.741719 492.641174 
L 264.431153 491.274251 
L 264.579119 490.843074 
L 264.973988 490.356853 
L 265.171245 490.173374 
L 265.282067 489.944024 
L 265.523954 489.723849 
L 265.721465 489.604587 
L 266.04 489.329368 
L 266.213949 488.971583 
L 266.353369 488.861495 
L 266.884998 488.705537 
L 267.004752 488.558754 
L 267.099212 488.421144 
L 267.413131 488.017489 
L 267.514651 487.870705 
L 267.886926 487.476224 
L 268.525649 487.246875 
L 269.09851 486.604696 
L 269.353766 486.430391 
L 269.455658 486.338651 
L 270.857725 485.650602 
L 270.900183 485.531341 
L 271.095243 485.402905 
L 271.329416 485.219426 
L 272.276053 484.824944 
L 272.401601 484.668987 
L 272.689364 484.522203 
L 272.800651 484.311202 
L 273.442742 484.173592 
L 273.464777 484.155244 
L 273.664924 484.035982 
L 274.150312 483.503892 
L 274.240445 483.329586 
L 274.464598 483.146107 
L 274.727132 482.925931 
L 275.210169 482.568146 
L 275.3208 482.421362 
L 276.029176 481.54066 
L 276.610206 481.348007 
L 276.735839 481.219571 
L 276.823829 480.760872 
L 276.953347 480.632437 
L 277.093247 480.504001 
L 277.962764 479.907692 
L 278.348216 479.779257 
L 278.831042 479.403124 
L 279.288725 478.742597 
L 279.376189 478.31142 
L 279.749795 478.192158 
L 280.138191 477.751807 
L 280.2504 477.614198 
L 280.50869 477.283935 
L 280.631679 477.137151 
L 280.716388 476.999541 
L 280.79731 476.935323 
L 280.900655 476.797714 
L 281.2469 476.467451 
L 281.630126 476.219753 
L 282.027667 475.70601 
L 282.258971 475.540879 
L 282.420511 475.375747 
L 282.481338 475.21979 
L 282.591803 475.091354 
L 282.990481 474.614307 
L 283.718029 473.935433 
L 283.853328 473.761127 
L 284.058629 473.440038 
L 284.183779 473.28408 
L 284.433279 472.797859 
L 284.952831 472.348334 
L 285.127402 472.219899 
L 286.321115 471.018108 
L 286.545192 470.889672 
L 286.768755 470.72454 
L 286.998003 470.513539 
L 287.179952 470.219972 
L 287.308466 470.082362 
L 287.413969 469.908056 
L 288.153819 469.302574 
L 288.292602 469.137442 
L 288.497581 468.908093 
L 288.659175 468.742961 
L 289.05721 468.265914 
L 289.161132 468.082435 
L 289.573034 467.752172 
L 289.718882 467.568692 
L 291.336232 465.201806 
L 291.659669 464.880716 
L 291.89819 464.486235 
L 292.723997 463.55049 
L 293.240303 463.422054 
L 293.590347 463.183531 
L 293.688855 462.981703 
L 293.787767 462.862441 
L 294.184164 462.348699 
L 294.731177 462.165219 
L 296.078103 460.532251 
L 296.285449 460.403815 
L 296.595638 459.789159 
L 296.705623 459.257068 
L 297.577995 457.825927 
L 298.011338 457.706666 
L 298.397655 457.275489 
L 298.548401 457.137879 
L 298.925672 456.734224 
L 299.309744 456.431483 
L 299.719113 456.275525 
L 299.825427 456.05535 
L 300.399909 454.945298 
L 300.504946 454.734297 
L 300.627644 454.514121 
L 300.817404 454.34899 
L 301.251794 454.202206 
L 301.910153 453.349026 
L 301.988323 453.202243 
L 302.556834 452.449976 
L 302.936595 452.275671 
L 303.312085 451.706884 
L 303.417577 451.541753 
L 303.525973 451.321577 
L 303.635484 451.037184 
L 303.815417 450.743616 
L 303.907681 450.413353 
L 304.010334 450.165656 
L 304.146544 449.982176 
L 304.693719 448.963865 
L 304.78793 448.771211 
L 304.924649 448.615254 
L 305.694514 447.367593 
L 306.215788 447.229983 
L 307.477153 445.734624 
L 308.007881 445.220882 
L 308.117468 445.074098 
L 308.304516 444.872271 
L 308.630342 444.312658 
L 309.03759 443.62461 
L 309.153234 443.468652 
L 309.383101 443.037475 
L 309.594899 442.624646 
L 310.130079 441.64303 
L 310.248282 441.422855 
L 310.394345 441.06507 
L 310.493363 440.92746 
L 311.29301 440.221064 
L 311.532903 439.799061 
L 311.666992 439.652277 
L 312.220925 438.64314 
L 312.704041 438.496356 
L 312.786785 438.303702 
L 312.977599 437.872525 
L 313.085827 437.69822 
L 313.61838 436.780822 
L 313.84668 436.588168 
L 314.016058 436.441385 
L 314.439822 436.312949 
L 314.590779 436.156992 
L 314.675024 435.99186 
L 315.032237 435.459769 
L 315.258498 435.147854 
L 315.364052 434.927678 
L 316.225899 434.129542 
L 316.333275 434.065325 
L 316.707171 433.368102 
L 316.812623 433.202971 
L 316.937632 432.973621 
L 317.047275 432.753446 
L 317.459646 432.322269 
L 317.650476 432.203007 
L 317.867797 431.854396 
L 318.399198 430.927824 
L 318.508402 430.771866 
L 318.814397 430.496647 
L 319.238795 430.303994 
L 319.34817 430.129688 
L 319.784902 429.39577 
L 319.896192 429.157246 
L 320.067519 428.771939 
L 320.176089 428.606808 
L 320.816065 427.918759 
L 320.94728 427.790324 
L 321.035934 427.625192 
L 321.2038 427.441712 
L 321.420608 427.065579 
L 321.878714 426.194051 
L 321.947785 426.02892 
L 322.190877 425.863788 
L 323.787791 423.579468 
L 324.234702 423.414336 
L 324.365402 423.203335 
L 324.5436 423.001507 
L 324.641859 422.891419 
L 324.758465 422.744636 
L 324.867149 422.579504 
L 325.163995 422.322633 
L 325.445679 422.074935 
L 325.891136 421.836412 
L 325.998524 421.698802 
L 326.176213 421.469453 
L 326.298174 421.368539 
L 326.389179 421.240103 
L 326.665977 421.148364 
L 327.538273 420.974058 
L 327.630675 420.717187 
L 327.73194 420.588751 
L 327.824852 420.441967 
L 327.946447 420.267662 
L 328.257636 419.4787 
L 328.364457 419.29522 
L 328.514289 418.891565 
L 328.638864 418.542954 
L 328.73533 418.414518 
L 328.813383 418.313604 
L 329.090124 418.185169 
L 329.36937 417.579686 
L 330.005032 415.864152 
L 330.093787 415.726543 
L 330.180113 415.451323 
L 330.675685 415.249496 
L 330.851728 414.873363 
L 331.080548 414.433012 
L 331.281362 414.102749 
L 331.514525 413.790833 
L 331.624741 413.561484 
L 331.994849 413.185351 
L 332.40908 413.056915 
L 332.522215 412.83674 
L 332.772932 412.543172 
L 332.901409 412.350519 
L 333.106602 412.084473 
L 333.386559 411.763384 
L 334.263795 411.625775 
L 334.432902 411.433121 
L 334.563036 411.350555 
L 334.886294 411.139554 
L 335.682286 410.99277 
L 335.914514 410.864334 
L 336.008044 410.680855 
L 336.114376 410.479027 
L 336.231015 410.295548 
L 337.03749 409.699239 
L 337.389366 409.552455 
L 337.472511 409.451542 
L 337.613536 409.323106 
L 337.722293 408.800189 
L 337.957791 408.313968 
L 338.102263 408.167185 
L 338.21331 408.002053 
L 338.510233 407.616746 
L 338.995038 407.460789 
L 339.105419 407.277309 
L 339.20339 407.121351 
L 339.300913 406.919524 
L 339.504395 406.653478 
L 339.613881 406.506695 
L 339.826924 406.176432 
L 339.94552 406.038822 
L 340.018218 405.781951 
L 340.597933 405.570949 
L 340.706072 405.350774 
L 341.142438 404.552638 
L 341.230905 404.341636 
L 341.362538 404.2132 
L 342.007346 403.5435 
L 342.248495 403.40589 
L 342.631737 402.534362 
L 342.769367 402.350883 
L 343.345869 401.341745 
L 343.873349 401.094048 
L 343.999958 400.828002 
L 344.145348 400.662871 
L 344.237376 400.506913 
L 344.299109 400.378478 
L 344.403516 400.213346 
L 344.743992 399.772995 
L 344.895016 399.41521 
L 345.080836 399.23173 
L 345.559484 399.094121 
L 345.687928 398.818901 
L 345.791569 398.626248 
L 345.847939 398.479464 
L 345.925737 398.33268 
L 345.980664 398.213419 
L 346.09162 397.947373 
L 346.331898 397.497848 
L 346.431856 397.305195 
L 347.379812 396.461189 
L 347.482432 396.250187 
L 347.650851 396.103404 
L 347.749413 395.938272 
L 347.786518 395.791489 
L 347.889898 395.571313 
L 348.634105 394.644741 
L 348.751658 394.314478 
L 350.113149 392.020984 
L 350.494198 391.855852 
L 350.712533 391.617329 
L 351.727224 390.571495 
L 352.094268 390.443059 
L 352.33235 390.250406 
L 352.443059 389.947665 
L 353.048212 389.342182 
L 353.274722 389.140355 
L 353.80884 389.011919 
L 354.540076 388.360566 
L 354.633909 388.296349 
L 354.690748 388.177087 
L 354.801075 387.810128 
L 355.197448 387.333081 
L 355.424327 386.98447 
L 355.596278 386.837686 
L 355.873721 386.571641 
L 356.019499 386.397335 
L 356.120746 386.278073 
L 356.233027 386.140464 
L 356.368076 385.929462 
L 356.576428 385.846897 
L 357.027249 385.718461 
L 357.138083 385.562503 
L 357.347939 385.213892 
L 357.491768 385.057934 
L 357.619906 384.810237 
L 358.330559 384.012101 
L 358.644994 383.865317 
L 358.893879 383.498358 
L 359.514449 382.599308 
L 359.733581 382.351611 
L 360.343404 382.204827 
L 360.842151 381.535127 
L 361.202965 381.186516 
L 361.502612 380.892948 
L 361.87016 380.736991 
L 362.243446 379.920507 
L 362.516361 379.654461 
L 363.01657 378.77376 
L 363.594504 378.562758 
L 363.703559 378.324235 
L 363.852737 378.168277 
L 364.077894 377.838014 
L 364.659255 376.984834 
L 365.250673 376.828876 
L 365.303827 376.645397 
L 365.411938 376.535309 
L 365.809936 376.012392 
L 365.915656 375.810565 
L 366.092035 375.599563 
L 366.195092 375.324344 
L 366.479886 375.13169 
L 366.847074 375.003255 
L 366.952732 374.645469 
L 367.182368 374.260162 
L 367.272175 373.902377 
L 367.421507 373.737246 
L 367.493885 373.56294 
L 367.646781 373.434504 
L 367.748537 373.260199 
L 367.823572 373.113415 
L 367.937 372.929936 
L 368.59626 372.388671 
L 368.71991 372.122626 
L 368.827862 371.975842 
L 368.932652 371.847406 
L 369.144832 371.563013 
L 369.25406 371.361185 
L 369.334871 371.18688 
L 369.440138 371.021748 
L 369.531203 370.737355 
L 369.549266 370.599745 
L 370.068322 370.452962 
L 370.401585 369.893349 
L 370.512378 369.61813 
L 370.681897 369.287866 
L 370.789279 369.122735 
L 371.344101 368.260381 
L 371.453283 368.076901 
L 371.75712 367.920944 
L 371.863767 367.72829 
L 371.976946 367.462245 
L 372.071096 367.342983 
L 372.231812 367.187025 
L 372.902963 366.361367 
L 373.375779 366.20541 
L 373.508952 366.0678 
L 373.609986 365.921016 
L 373.700281 365.783407 
L 373.794974 365.645797 
L 373.966776 365.434796 
L 374.040735 365.232968 
L 374.217208 365.104532 
L 374.297029 364.948575 
L 374.443743 364.801791 
L 374.486621 364.682529 
L 375.137963 364.49905 
L 375.570205 364.067873 
L 375.655376 363.875219 
L 375.814448 363.728436 
L 375.936132 363.46239 
L 376.041134 363.150475 
L 376.192579 362.875256 
L 376.260917 362.783516 
L 376.70612 362.645906 
L 376.760955 362.471601 
L 376.855086 362.178033 
L 376.9783 362.012902 
L 377.35548 361.352375 
L 377.461669 361.205592 
L 377.547731 361.1322 
L 377.707652 360.967068 
L 377.762582 360.710197 
L 378.354016 360.581761 
L 378.377383 360.526717 
L 378.736518 360.389108 
L 379.006551 360.012975 
L 379.322908 359.811147 
L 379.419887 359.673537 
L 379.526295 359.526754 
L 379.594072 359.407492 
L 380.269499 359.224013 
L 380.406216 358.847879 
L 380.514184 358.416702 
L 380.776099 358.113961 
L 380.872663 357.893786 
L 380.951919 357.747002 
L 381.02651 357.609392 
L 381.478887 357.407565 
L 381.629654 357.242433 
L 381.747497 356.948866 
L 381.85368 356.747038 
L 381.959802 356.563559 
L 382.068483 356.1966 
L 382.528934 355.288376 
L 382.694687 355.104896 
L 382.764826 355.022331 
L 383.312099 354.792981 
L 383.421149 354.526936 
L 383.546689 354.242543 
L 383.65457 354.104933 
L 383.86322 353.857235 
L 384.125254 353.673756 
L 384.351284 353.187535 
L 384.974431 352.949012 
L 385.076769 352.774706 
L 385.32894 352.380225 
L 385.439532 352.150876 
L 386.073408 351.132564 
L 386.459068 350.903215 
L 386.556071 350.701387 
L 386.69381 350.517907 
L 386.984206 350.17847 
L 387.133303 350.013339 
L 387.233912 349.563814 
L 387.396666 349.334464 
L 387.469711 349.242725 
L 387.557763 349.114289 
L 387.902783 348.811548 
L 388.172764 348.692286 
L 388.28215 348.508806 
L 388.703233 347.820758 
L 388.807713 347.545539 
L 388.969158 347.325363 
L 389.079501 347.096014 
L 389.170094 346.985926 
L 389.838713 346.81162 
L 389.906102 346.683185 
L 390.016708 346.536401 
L 390.155681 346.380443 
L 390.25427 346.068528 
L 390.422205 345.830005 
L 390.618236 345.398828 
L 390.67709 345.252044 
L 390.787818 344.857563 
L 390.92031 344.600692 
L 390.999044 344.463082 
L 391.12485 344.316298 
L 391.225209 344.288776 
L 391.635229 343.885121 
L 391.714952 343.692468 
L 391.822866 343.554858 
L 392.210123 342.91268 
L 392.267846 342.784244 
L 392.307308 342.591591 
L 392.417672 342.343893 
L 392.929255 341.426495 
L 393.033189 341.334756 
L 393.424804 340.848535 
L 393.535716 340.692577 
L 394.25269 339.866919 
L 394.821099 339.747657 
L 395.156476 339.206393 
L 395.249637 338.995391 
L 395.542864 338.848608 
L 395.604681 338.710998 
L 395.67614 338.582562 
L 395.953081 338.417431 
L 396.029732 338.399083 
L 396.625401 338.270647 
L 396.840564 337.912862 
L 396.898328 337.74773 
L 397.005924 337.582599 
L 397.167043 337.454163 
L 397.371317 337.362423 
L 397.455365 337.197291 
L 397.561269 336.830332 
L 397.61009 336.637679 
L 397.712782 336.298242 
L 398.029419 335.986326 
L 398.113295 335.747803 
L 398.316859 335.619367 
L 398.442857 335.472584 
L 398.858088 334.802883 
L 398.933669 334.775361 
L 398.997874 334.6561 
L 399.139821 334.481794 
L 399.646378 334.270793 
L 400.25803 333.426787 
L 400.450987 333.069001 
L 400.554101 332.968088 
L 400.714938 332.793782 
L 400.735512 332.747912 
L 401.202734 332.619477 
L 401.386087 332.280039 
L 401.777452 331.647035 
L 401.92169 331.362642 
L 402.075329 331.160814 
L 402.194961 330.940639 
L 402.315968 330.683767 
L 402.425454 330.610375 
L 402.938827 330.316808 
L 403.097338 330.096633 
L 403.352531 329.702152 
L 403.664841 329.124191 
L 403.79944 328.86732 
L 404.265271 328.454491 
L 404.50277 328.316881 
L 404.670288 328.032488 
L 404.796205 327.867356 
L 404.932702 327.573789 
L 405.04323 327.399483 
L 405.464892 326.500433 
L 405.577588 326.326128 
L 405.675182 326.1243 
L 406.279756 325.702297 
L 406.374888 325.482122 
L 406.55824 325.261946 
L 406.668345 325.105989 
L 406.861474 324.720681 
L 406.967108 324.472984 
L 407.075686 324.289505 
L 407.206196 323.913371 
L 407.418145 323.812458 
L 407.928566 323.427151 
L 408.029947 323.133583 
L 408.105248 322.959278 
L 408.206912 322.80332 
L 408.413328 322.546449 
L 408.523399 322.13362 
L 408.782199 321.601529 
L 408.945791 321.390528 
L 409.172778 321.179526 
L 409.418363 321.023568 
L 409.526507 320.803393 
L 409.654249 320.519 
L 409.768255 320.326346 
L 411.221093 317.840198 
L 411.266615 317.711762 
L 411.42508 317.454891 
L 411.499112 317.188846 
L 411.858859 316.381536 
L 412.853114 315.922837 
L 412.933095 315.821923 
L 413.110247 315.675139 
L 413.212941 315.528356 
L 414.026904 314.877003 
L 414.432594 314.721046 
L 415.090053 314.253173 
L 416.151298 313.950431 
L 416.222296 313.886214 
L 416.447051 313.757778 
L 416.55525 313.702734 
L 416.653692 313.574298 
L 416.73293 313.344949 
L 416.835429 313.143121 
L 416.933291 312.987164 
L 417.165777 312.611031 
L 417.266166 312.299115 
L 417.320622 312.143158 
L 417.423788 311.904634 
L 417.736938 311.528501 
L 417.835858 311.244108 
L 417.963168 311.04228 
L 418.554567 310.290014 
L 420.419803 309.56527 
L 421.226714 309.446008 
L 421.704267 308.583654 
L 422.362729 308.152477 
L 422.565536 307.968998 
L 422.675507 307.776344 
L 423.13395 307.09747 
L 423.263975 306.941512 
L 423.512412 306.684641 
L 423.988611 306.253464 
L 424.256944 306.125028 
L 424.95242 305.308544 
L 425.145859 304.923237 
L 425.285102 304.730584 
L 425.370134 304.5838 
L 426.043685 304.271885 
L 426.337438 303.932447 
L 426.438462 303.767316 
L 426.957176 302.96918 
L 427.018613 302.868266 
L 427.57815 302.703134 
L 427.689412 302.363697 
L 427.820598 302.235262 
L 428.080542 301.960042 
L 428.226765 301.758215 
L 428.334605 301.620605 
L 428.938677 301.005949 
L 429.21849 300.822469 
L 429.32748 300.492206 
L 429.550687 300.097725 
L 429.661139 299.950941 
L 430.709019 298.721628 
L 430.888272 298.584018 
L 430.972524 298.418887 
L 431.074518 298.281277 
L 431.211972 298.015232 
L 431.524355 297.639099 
L 431.881191 297.061138 
L 432.52307 296.877658 
L 432.994871 296.37309 
L 433.151571 296.006131 
L 433.304613 295.629997 
L 433.414991 295.345604 
L 433.568418 294.960297 
L 433.741267 294.75847 
L 433.841757 294.584164 
L 434.014586 294.409858 
L 434.245475 294.033725 
L 434.404455 293.575026 
L 434.494647 293.409895 
L 434.936753 292.749368 
L 435.13292 292.575063 
L 435.209276 292.538367 
L 435.77257 292.419105 
L 436.045361 292.143886 
L 436.517534 291.978754 
L 436.701543 291.87784 
L 437.656279 291.465011 
L 437.765565 291.327402 
L 438.552604 290.703571 
L 439.054375 290.575136 
L 439.155474 290.391656 
L 439.262379 290.107263 
L 439.624307 289.134821 
L 439.716733 288.841254 
L 439.901897 288.685296 
L 440.460436 288.400903 
L 440.791739 287.868812 
L 440.893771 287.630289 
L 441.047917 287.382591 
L 441.344275 286.969762 
L 441.446944 286.731239 
L 441.603283 286.547759 
L 442.005738 286.235844 
L 442.26539 286.098234 
L 443.338885 284.70379 
L 443.391435 284.639572 
L 443.823813 284.501962 
L 444.25673 283.979045 
L 444.364828 283.75887 
L 444.483213 283.602912 
L 444.587759 283.492825 
L 444.847779 283.098344 
L 445.001301 282.777254 
L 445.493004 282.557079 
L 445.662244 282.245164 
L 445.796485 282.080032 
L 445.911882 281.924074 
L 446.021539 281.676377 
L 446.51116 280.731457 
L 446.679692 280.584674 
L 446.699547 280.566326 
L 447.138848 280.419542 
L 447.175639 280.25441 
L 447.286383 280.006713 
L 447.49788 279.67645 
L 447.602973 279.456274 
L 447.675419 279.226925 
L 447.762927 278.970054 
L 447.907913 278.82327 
L 448.72385 278.135222 
L 448.894028 277.997612 
L 448.991807 277.896698 
L 449.106797 277.749914 
L 449.230786 277.593957 
L 449.429092 277.419651 
L 449.537906 277.25452 
L 449.954948 276.896735 
L 450.399069 276.759125 
L 450.461453 276.593993 
L 450.552114 276.428862 
L 450.71675 276.26373 
L 450.796869 276.116946 
L 451.14826 275.566508 
L 451.232167 275.392202 
L 451.608156 274.869285 
L 451.946348 274.750024 
L 452.208293 274.401413 
L 452.433526 273.961062 
L 453.076644 273.052838 
L 453.176524 272.933576 
L 453.235649 272.80514 
L 453.894453 272.383137 
L 454.001705 272.245528 
L 454.135807 272.025352 
L 454.581862 271.318956 
L 454.798255 271.089606 
L 455.470049 270.740995 
L 455.569018 270.594212 
L 455.685527 270.447428 
L 455.868334 270.318992 
L 455.962666 270.043773 
L 456.067587 269.851119 
L 456.20452 269.704336 
L 456.712137 269.153897 
L 457.110101 268.970418 
L 457.237662 268.612632 
L 457.415499 268.300717 
L 457.513541 268.190629 
L 457.848859 267.878714 
L 457.922834 267.842018 
L 458.698347 267.612669 
L 459.007923 267.24571 
L 459.380092 267.080578 
L 460.659366 266.530139 
L 460.767374 266.080615 
L 460.822668 265.915483 
L 460.919188 265.713655 
L 461.056425 265.511828 
L 461.151953 265.154043 
L 461.239455 264.988911 
L 461.338055 264.741214 
L 462.29146 263.988948 
L 462.431447 263.83299 
L 462.815415 263.401813 
L 462.904474 263.300899 
L 463.016609 263.144942 
L 463.099214 263.062376 
L 463.630235 262.869722 
L 463.735389 262.649547 
L 463.883073 262.429371 
L 464.077342 262.200022 
L 464.311083 262.025716 
L 464.414257 261.842237 
L 464.621622 261.704627 
L 464.811419 261.557843 
L 465.160812 261.328494 
L 466.526018 259.512046 
L 466.930225 259.365263 
L 467.30475 259.034999 
L 467.584034 258.768954 
L 468.415142 258.310255 
L 468.590629 258.163472 
L 468.884655 257.851556 
L 469.134543 257.658903 
L 469.554993 257.200204 
L 469.632086 257.117638 
L 470.195633 256.934159 
L 470.354985 256.713983 
L 470.471867 256.512156 
L 470.652059 256.33785 
L 470.87346 256.044283 
L 471.556016 255.475496 
L 471.823937 255.34706 
L 471.924394 255.145233 
L 472.069947 254.998449 
L 472.162566 254.833318 
L 472.320366 254.695708 
L 472.843503 253.998486 
L 472.941053 253.897572 
L 473.562353 253.741614 
L 473.817032 253.521439 
L 473.924205 253.209523 
L 474.166972 252.83339 
L 474.276705 252.714129 
L 474.370012 252.558171 
L 474.472121 252.328822 
L 474.772193 252.218734 
L 475.137855 252.099472 
L 475.287996 251.815079 
L 475.394673 251.594903 
L 475.608835 251.31051 
L 475.717692 251.099509 
L 475.939321 250.805941 
L 476.042582 250.677506 
L 476.141667 250.539896 
L 476.350062 250.494026 
L 476.62641 250.338068 
L 477.091233 249.640846 
L 477.28275 249.457366 
L 477.346999 249.393149 
L 477.4672 249.264713 
L 477.546926 249.163799 
L 477.717039 249.007842 
L 477.779051 248.815188 
L 477.868278 248.650056 
L 478.317971 248.439055 
L 479.142853 247.448265 
L 479.250406 247.374873 
L 479.556552 247.154698 
L 480.075218 246.952871 
L 480.211975 246.879479 
L 481.252085 246.246474 
L 481.67394 246.099691 
L 482.582911 245.393294 
L 482.741538 245.319902 
L 483.321728 245.136423 
L 483.495094 244.787812 
L 483.600413 244.430027 
L 483.65851 244.246547 
L 483.765428 244.108937 
L 483.846144 243.962154 
L 483.949925 243.705282 
L 483.976901 243.549325 
L 484.086045 243.292453 
L 484.167474 243.136496 
L 484.362819 242.907146 
L 484.621958 242.769537 
L 484.706372 242.714493 
L 484.947214 242.558535 
L 485.058042 242.375056 
L 485.158665 242.237446 
L 485.286776 242.072314 
L 485.388165 241.934705 
L 485.458412 241.797095 
L 485.5609 241.512702 
L 485.721629 241.265004 
L 485.823499 241.16409 
L 486.699146 240.67787 
L 487.527445 239.87056 
L 487.636709 239.613688 
L 488.225117 239.320121 
L 488.513869 238.962336 
L 488.704198 238.677942 
L 488.824207 238.494463 
L 489.06432 238.228417 
L 489.444734 237.833936 
L 489.941004 237.632109 
L 490.018373 237.430281 
L 490.129215 237.255976 
L 490.359223 236.999104 
L 490.574404 236.714711 
L 490.708987 236.613797 
L 490.817343 236.485362 
L 490.895694 236.384448 
L 491.453135 236.155098 
L 491.554574 235.971619 
L 491.647143 235.797313 
L 491.761092 235.632182 
L 492.811557 234.338651 
L 493.116321 234.210215 
L 493.210482 234.008388 
L 493.440839 233.80656 
L 493.544753 233.696472 
L 493.643291 233.558863 
L 493.748761 233.366209 
L 494.29235 232.733205 
L 494.709007 232.595595 
L 495.270933 232.00846 
L 495.406402 231.815807 
L 495.787169 231.136933 
L 495.885026 230.953453 
L 497.519498 230.34797 
L 498.12201 230.164491 
L 498.451542 229.898446 
L 498.649282 229.742488 
L 498.749788 229.485617 
L 498.883641 229.274615 
L 498.986989 229.081961 
L 499.857127 228.403087 
L 500.089594 228.146216 
L 500.292823 227.990258 
L 500.623237 227.705865 
L 500.895873 227.522385 
L 501.303498 227.403124 
L 501.927623 226.623335 
L 502.022265 226.586639 
L 502.365693 226.393986 
L 502.492971 226.320594 
L 503.027747 226.146289 
L 503.208101 226.008679 
L 503.331895 225.843547 
L 503.548265 225.577502 
L 504.10079 225.228891 
L 505.178135 224.916975 
L 505.262815 224.816062 
L 505.560038 224.632582 
L 505.66723 224.55919 
L 505.970221 224.384885 
L 506.465386 224.201405 
L 506.772685 223.962882 
L 507.069317 223.75188 
L 507.178781 223.513357 
L 507.301952 223.302355 
L 507.410372 223.201442 
L 508.230919 222.403306 
L 508.330384 222.293218 
L 508.58279 222.036346 
L 508.850283 221.770301 
L 508.917536 221.632691 
L 509.794277 221.063905 
L 509.959585 220.843729 
L 510.282029 220.513466 
L 510.44618 220.210725 
L 510.572235 220.054767 
L 510.6539 219.963027 
L 511.407163 219.632764 
L 511.767288 219.284153 
L 512.022167 218.935542 
L 512.175347 218.797932 
L 512.286599 218.641975 
L 512.386717 218.559409 
L 512.952677 218.229146 
L 513.061049 217.999796 
L 513.153163 217.807143 
L 513.249865 217.724577 
L 513.433275 217.513575 
L 513.653182 217.229182 
L 513.78187 217.01818 
L 513.844726 216.880571 
L 514.119143 216.752135 
L 514.42067 216.596178 
L 514.798738 216.018217 
L 514.912443 215.935651 
L 515.237765 215.623736 
L 515.32999 215.559518 
L 515.433297 215.40356 
L 515.518893 215.348517 
L 516.092993 215.045775 
L 516.364729 214.770556 
L 516.469288 214.559554 
L 516.70105 214.238465 
L 516.811561 214.100856 
L 517.008926 213.807288 
L 517.120118 213.550417 
L 517.422755 213.412807 
L 517.755839 213.275197 
L 517.898044 213.064196 
L 518.041043 212.908238 
L 518.149878 212.678889 
L 518.277948 212.504583 
L 518.523216 212.08258 
L 518.714816 211.834883 
L 518.851671 211.513794 
L 519.38581 211.311966 
L 519.456591 211.137661 
L 519.552542 210.853267 
L 519.658729 210.688136 
L 519.765544 210.348699 
L 519.932306 210.146871 
L 520.082159 209.981739 
L 520.735019 209.339561 
L 521.062165 209.211125 
L 521.25683 208.770774 
L 521.402223 208.532251 
L 521.50572 208.27538 
L 521.618709 208.00016 
L 521.720392 207.743289 
L 521.871956 207.532287 
L 521.96945 207.413026 
L 522.082382 207.247894 
L 522.101419 207.229546 
L 522.582013 207.082762 
L 522.673699 207.018545 
L 522.96269 206.853413 
L 523.10022 206.734151 
L 523.664085 206.440584 
L 523.751427 206.367192 
L 524.304785 206.183713 
L 525.479849 204.688354 
L 525.955113 204.550744 
L 526.062929 204.403961 
L 526.218612 204.284699 
L 526.365732 204.064524 
L 526.487197 203.835174 
L 526.603391 203.78013 
L 526.875523 203.523259 
L 526.980077 203.376475 
L 527.574141 202.991168 
L 527.679196 202.761819 
L 527.792104 202.587513 
L 527.893573 202.44073 
L 528.090244 202.183858 
L 528.19072 201.917813 
L 528.398803 201.633419 
L 528.508476 201.422418 
L 528.741179 201.064633 
L 529.473307 200.440802 
L 529.564971 200.220627 
L 529.749113 200.092191 
L 530.059733 199.816972 
L 530.166052 199.596796 
L 530.230114 199.422491 
L 530.379789 199.266533 
L 530.744808 199.055532 
L 530.870662 198.84453 
L 530.973712 198.578485 
L 531.149502 198.303265 
L 531.247419 198.12896 
L 531.384073 197.973002 
L 531.570511 197.771175 
L 531.673303 197.661087 
L 531.893024 197.41339 
L 532.041917 197.349172 
L 532.537077 197.055604 
L 532.668116 196.881299 
L 532.816655 196.706993 
L 532.921114 196.495992 
L 533.055596 196.275816 
L 533.322026 195.826291 
L 533.511027 195.606116 
L 533.655834 195.459332 
L 534.408292 194.798806 
L 534.502966 194.615326 
L 534.645919 194.477717 
L 534.757845 194.156627 
L 535.00122 193.844712 
L 535.095506 193.752972 
L 535.16614 193.597015 
L 535.276071 193.505275 
L 535.756387 193.220882 
L 536.005935 192.633747 
L 536.126774 192.422746 
L 536.223663 192.257614 
L 536.341167 192.083308 
L 536.445488 191.964047 
L 536.517098 191.826437 
L 536.608808 191.642958 
L 536.736746 191.487 
L 536.840505 191.211781 
L 537.573718 190.58795 
L 537.9154 190.202643 
L 538.077514 190.055859 
L 538.1786 189.899902 
L 538.272431 189.743944 
L 538.379856 189.523769 
L 538.451854 189.395333 
L 538.616607 189.230201 
L 539.033994 189.046722 
L 539.137094 188.945808 
L 539.303238 188.78985 
L 539.394755 188.679763 
L 539.53391 188.542153 
L 539.642059 188.377021 
L 539.876562 188.221064 
L 540.781997 187.973366 
L 540.900442 187.844931 
L 541.009288 187.725669 
L 541.11767 187.523841 
L 541.189102 187.285318 
L 541.28703 187.156882 
L 541.382023 186.955055 
L 541.548329 186.771575 
L 541.656262 186.5514 
L 541.760084 186.422964 
L 541.862377 186.147745 
L 542.57896 185.74409 
L 542.726967 185.615654 
L 543.261437 185.450522 
L 543.292504 185.423 
L 544.392493 185.221173 
L 544.816333 184.973476 
L 544.927684 184.698256 
L 545.014519 184.468907 
L 545.132636 184.257905 
L 545.572134 183.973512 
L 546.358875 183.285464 
L 546.469551 183.111158 
L 546.635692 182.946026 
L 546.731675 182.872635 
L 547.217408 182.634111 
L 547.441364 182.349718 
L 547.566769 182.157064 
L 547.672711 182.037803 
L 548.030113 181.716713 
L 548.131932 181.560756 
L 548.226296 181.368102 
L 548.371391 181.092883 
L 548.788379 180.845185 
L 548.909126 180.680054 
L 549.004589 180.524096 
L 549.16949 180.358965 
L 549.251041 180.230529 
L 549.352634 180.092919 
L 549.505849 179.854396 
L 549.558174 179.72596 
L 549.611244 179.652568 
L 549.858477 179.514959 
L 550.077612 179.377349 
L 550.512821 179.230565 
L 551.618508 177.606771 
L 552.213559 177.276508 
L 552.794893 176.487546 
L 552.967246 176.349936 
L 553.057017 176.230675 
L 554.102881 175.707758 
L 554.20212 175.606844 
L 554.359205 175.450886 
L 554.462675 175.267407 
L 554.572909 175.120623 
L 554.684014 174.872926 
L 554.787733 174.707794 
L 555.008381 174.487619 
L 555.41647 174.350009 
L 555.547935 174.157356 
L 555.641966 174.038094 
L 555.750403 173.808744 
L 555.889817 173.570221 
L 556.001071 173.405089 
L 556.253497 172.900521 
L 556.414274 172.753737 
L 556.525826 172.625301 
L 557.412669 171.882209 
L 557.508596 171.616164 
L 557.630101 171.451032 
L 557.993165 170.781332 
L 558.508178 170.487764 
L 558.752291 170.340981 
L 558.891616 170.139153 
L 558.998282 169.937326 
L 559.566663 169.102494 
L 559.680314 168.919014 
L 559.896347 168.634621 
L 560.475412 168.322706 
L 560.580739 168.084182 
L 560.709055 167.818137 
L 560.815201 167.588787 
L 561.191331 167.047523 
L 561.504687 166.469562 
L 562.029136 166.212691 
L 562.135675 166.047559 
L 562.261941 165.873253 
L 563.157062 164.185242 
L 563.315833 164.130198 
L 563.673089 163.983414 
L 563.673092 163.97424 
L 563.943478 163.845804 
L 564.031918 163.781587 
L 564.381119 163.579759 
L 564.466495 163.478845 
L 564.668787 163.341236 
L 564.674958 163.322888 
L 565.161214 163.185278 
L 565.452453 163.047668 
L 565.568715 162.919233 
L 565.673779 162.726579 
L 565.765483 162.543099 
L 565.877632 161.992661 
L 566.391097 161.4147 
L 567.231941 160.974349 
L 567.293905 160.891783 
L 567.488938 160.754174 
L 568.322575 159.965212 
L 568.618125 159.772558 
L 568.722761 159.634948 
L 569.902925 158.2772 
L 570.193825 158.130416 
L 570.287187 158.011154 
L 570.497347 157.809327 
L 570.847008 157.51576 
L 571.164656 157.1488 
L 571.262706 157.002017 
L 571.828108 156.717624 
L 571.947406 156.552492 
L 572.058844 156.38736 
L 572.168225 156.185533 
L 572.363901 155.827748 
L 572.494221 155.699312 
L 572.559194 155.552528 
L 572.655229 155.304831 
L 572.7818 155.130525 
L 572.889892 154.855306 
L 573.111218 154.699348 
L 573.461739 154.525043 
L 573.598502 154.323215 
L 573.851635 154.084692 
L 573.954253 153.781951 
L 574.11214 153.515905 
L 574.207066 153.369122 
L 574.406045 153.167294 
L 574.584975 152.956293 
L 575.26919 152.48842 
L 575.368332 152.451724 
L 575.625435 152.231548 
L 575.728888 152.011373 
L 575.899828 151.763675 
L 576.010024 151.561848 
L 576.300276 151.341672 
L 576.809848 151.093975 
L 576.92316 150.855452 
L 577.965227 150.002272 
L 578.424041 149.818792 
L 578.519949 149.626139 
L 578.665936 149.470181 
L 579.331832 148.277564 
L 579.408283 148.103258 
L 579.519182 147.883083 
L 579.938623 147.617037 
L 580.242324 147.268426 
L 580.347976 147.057425 
L 580.498139 146.892293 
L 580.838169 145.736372 
L 580.945597 145.543718 
L 581.085215 145.369413 
L 581.218906 145.231803 
L 582.708823 144.754756 
L 582.783294 144.635495 
L 583.264876 144.470363 
L 583.428064 144.277709 
L 583.528277 144.18597 
L 583.914642 143.754793 
L 584.022816 143.608009 
L 584.307187 143.442877 
L 585.020457 143.130962 
L 585.106178 142.919961 
L 585.268957 142.782351 
L 585.367868 142.626393 
L 585.671021 142.360348 
L 585.787926 142.057607 
L 585.933991 141.901649 
L 586.029698 141.6723 
L 586.425163 141.562212 
L 586.624413 141.433776 
L 587.796191 140.277855 
L 587.94307 140.140245 
L 588.436937 139.754938 
L 588.539387 139.626503 
L 588.869396 139.397153 
L 588.976027 139.305413 
L 589.624422 138.88341 
L 589.997209 138.736627 
L 590.281981 138.461407 
L 590.384176 138.378842 
L 590.678666 138.195362 
L 590.777212 138.140318 
L 591.517103 137.828403 
L 591.904615 137.599053 
L 592.361756 137.479792 
L 592.473035 137.388052 
L 592.908048 137.149529 
L 593.081311 137.011919 
L 593.189298 136.929353 
L 593.32602 136.764221 
L 593.436895 136.571568 
L 593.649511 136.030303 
L 593.762148 135.525734 
L 593.895519 135.323907 
L 593.997256 135.03034 
L 594.18576 134.837686 
L 594.288571 134.736772 
L 594.856266 134.571641 
L 594.962005 134.461553 
L 595.123721 134.241378 
L 595.234763 134.048724 
L 595.35102 133.929462 
L 595.479863 133.764331 
L 595.633856 133.544155 
L 596.754402 132.801063 
L 596.857181 132.718497 
L 597.029501 132.507496 
L 597.121129 132.452452 
L 597.358759 132.24145 
L 597.503469 132.076319 
L 598.149526 131.819447 
L 598.250905 131.75523 
L 598.642439 131.535054 
L 598.752182 131.333227 
L 598.867907 131.195617 
L 598.972676 130.911224 
L 599.096486 130.727744 
L 599.205845 130.590134 
L 599.86534 130.269045 
L 600.366099 129.966304 
L 600.515795 129.828694 
L 600.604859 129.72778 
L 600.634655 129.608519 
L 600.726121 129.360821 
L 600.876365 129.204864 
L 601.958718 128.168204 
L 602.066637 128.103986 
L 602.147033 127.929681 
L 602.25888 127.755375 
L 603.545654 126.966413 
L 603.652261 126.911369 
L 603.82752 126.663672 
L 603.908542 126.397626 
L 604.036888 126.250843 
L 604.091797 126.168277 
L 604.610066 125.975623 
L 604.745457 125.764622 
L 604.856071 125.672882 
L 605.144214 125.351793 
L 605.331541 125.140791 
L 605.438137 124.984834 
L 605.72705 124.74631 
L 605.807399 124.709614 
L 606.313096 124.544483 
L 606.415703 124.269264 
L 606.660366 124.039914 
L 606.768109 123.948174 
L 606.956588 123.773869 
L 607.381998 123.150038 
L 607.98591 122.939037 
L 608.097164 122.718861 
L 608.691222 122.452816 
L 609.349524 122.214292 
L 609.839804 122.076683 
L 609.954225 121.70055 
L 610.155804 121.553766 
L 610.254024 121.306069 
L 610.680762 120.984979 
L 611.539455 120.232713 
L 611.646322 120.104278 
L 611.920989 119.829058 
L 612.007553 119.663927 
L 612.213429 119.507969 
L 612.322677 119.397881 
L 612.391733 119.361185 
L 612.830098 119.223576 
L 612.915805 119.076792 
L 613.165115 118.884138 
L 613.706521 118.37957 
L 614.038719 117.985089 
L 614.498839 117.801609 
L 614.561939 117.663999 
L 614.97739 117.29704 
L 615.259996 116.920907 
L 615.419916 116.67321 
L 615.954435 116.370469 
L 616.048518 116.333773 
L 616.161139 116.196163 
L 616.31254 116.104423 
L 616.609774 115.966813 
L 616.71605 115.801682 
L 616.824028 115.664072 
L 616.934057 115.563158 
L 617.072015 115.480593 
L 617.457402 115.278765 
L 617.788241 115.086112 
L 618.302837 114.691631 
L 618.409416 114.563195 
L 618.988814 114.049452 
L 619.526744 113.838451 
L 619.636596 113.755885 
L 619.823856 113.480665 
L 620.143491 113.288012 
L 620.251462 113.132054 
L 620.338313 113.012793 
L 621.193365 112.664181 
L 621.377645 112.517398 
L 621.769273 112.306396 
L 622.018697 112.067873 
L 622.116269 111.939437 
L 622.472579 111.682566 
L 622.636364 111.6 
L 622.636364 111.6 
" style="fill:none;stroke:#92c6ff;stroke-linecap:round;stroke-width:1.5;"/>
   </g>
   <g id="line2d_26">
    <defs>
     <path d="M 0 2.5 
C 0.663008 2.5 1.29895 2.236584 1.767767 1.767767 
C 2.236584 1.29895 2.5 0.663008 2.5 0 
C 2.5 -0.663008 2.236584 -1.29895 1.767767 -1.767767 
C 1.29895 -2.236584 0.663008 -2.5 0 -2.5 
C -0.663008 -2.5 -1.29895 -2.236584 -1.767767 -1.767767 
C -2.236584 -1.29895 -2.5 -0.663008 -2.5 0 
C -2.5 0.663008 -2.236584 1.29895 -1.767767 1.767767 
C -1.29895 2.236584 -0.663008 2.5 0 2.5 
z
" id="m5d839be868" style="stroke:#696969;"/>
    </defs>
    <g clip-path="url(#p91a90047b1)">
     <use style="fill:#696969;stroke:#696969;" x="115.363636" xlink:href="#m5d839be868" y="615.6"/>
    </g>
   </g>
   <g id="line2d_27">
    <g clip-path="url(#p91a90047b1)">
     <use style="fill:#696969;stroke:#696969;" x="198.245573" xlink:href="#m5d839be868" y="565.198165"/>
    </g>
   </g>
   <g id="line2d_28">
    <g clip-path="url(#p91a90047b1)">
     <use style="fill:#696969;stroke:#696969;" x="242.548236" xlink:href="#m5d839be868" y="514.79633"/>
    </g>
   </g>
   <g id="line2d_29">
    <g clip-path="url(#p91a90047b1)">
     <use style="fill:#696969;stroke:#696969;" x="291.952133" xlink:href="#m5d839be868" y="464.394496"/>
    </g>
   </g>
   <g id="line2d_30">
    <g clip-path="url(#p91a90047b1)">
     <use style="fill:#696969;stroke:#696969;" x="331.320216" xlink:href="#m5d839be868" y="413.992661"/>
    </g>
   </g>
   <g id="line2d_31">
    <g clip-path="url(#p91a90047b1)">
     <use style="fill:#696969;stroke:#696969;" x="375.883108" xlink:href="#m5d839be868" y="363.590826"/>
    </g>
   </g>
   <g id="line2d_32">
    <g clip-path="url(#p91a90047b1)">
     <use style="fill:#696969;stroke:#696969;" x="416.814519" xlink:href="#m5d839be868" y="313.188991"/>
    </g>
   </g>
   <g id="line2d_33">
    <g clip-path="url(#p91a90047b1)">
     <use style="fill:#696969;stroke:#696969;" x="463.686546" xlink:href="#m5d839be868" y="262.787156"/>
    </g>
   </g>
   <g id="line2d_34">
    <g clip-path="url(#p91a90047b1)">
     <use style="fill:#696969;stroke:#696969;" x="518.349084" xlink:href="#m5d839be868" y="212.385322"/>
    </g>
   </g>
   <g id="line2d_35">
    <g clip-path="url(#p91a90047b1)">
     <use style="fill:#696969;stroke:#696969;" x="565.883811" xlink:href="#m5d839be868" y="161.983487"/>
    </g>
   </g>
   <g id="line2d_36">
    <g clip-path="url(#p91a90047b1)">
     <use style="fill:#696969;stroke:#696969;" x="622.636364" xlink:href="#m5d839be868" y="111.6"/>
    </g>
   </g>
   <g id="patch_3">
    <path d="M 90 640.8 
L 90 86.4 
" style="fill:none;stroke:#cccccc;stroke-linecap:square;stroke-linejoin:miter;"/>
   </g>
   <g id="patch_4">
    <path d="M 648 640.8 
L 648 86.4 
" style="fill:none;stroke:#cccccc;stroke-linecap:square;stroke-linejoin:miter;"/>
   </g>
   <g id="patch_5">
    <path d="M 90 640.8 
L 648 640.8 
" style="fill:none;stroke:#cccccc;stroke-linecap:square;stroke-linejoin:miter;"/>
   </g>
   <g id="patch_6">
    <path d="M 90 86.4 
L 648 86.4 
" style="fill:none;stroke:#cccccc;stroke-linecap:square;stroke-linejoin:miter;"/>
   </g>
   <g id="text_13">
    <!-- 1 (2014-06-07) -->
    <defs>
     <path id="DejaVuSans-32"/>
     <path d="M 31 75.875 
Q 24.46875 64.65625 21.28125 53.65625 
Q 18.109375 42.671875 18.109375 31.390625 
Q 18.109375 20.125 21.3125 9.0625 
Q 24.515625 -2 31 -13.1875 
L 23.1875 -13.1875 
Q 15.875 -1.703125 12.234375 9.375 
Q 8.59375 20.453125 8.59375 31.390625 
Q 8.59375 42.28125 12.203125 53.3125 
Q 15.828125 64.359375 23.1875 75.875 
z
" id="DejaVuSans-40"/>
     <path d="M 4.890625 31.390625 
L 31.203125 31.390625 
L 31.203125 23.390625 
L 4.890625 23.390625 
z
" id="DejaVuSans-45"/>
     <path d="M 8.015625 75.875 
L 15.828125 75.875 
Q 23.140625 64.359375 26.78125 53.3125 
Q 30.421875 42.28125 30.421875 31.390625 
Q 30.421875 20.453125 26.78125 9.375 
Q 23.140625 -1.703125 15.828125 -13.1875 
L 8.015625 -13.1875 
Q 14.5 -2 17.703125 9.0625 
Q 20.90625 20.125 20.90625 31.390625 
Q 20.90625 42.671875 17.703125 53.65625 
Q 14.5 64.65625 8.015625 75.875 
z
" id="DejaVuSans-41"/>
    </defs>
    <g style="fill:#262626;" transform="translate(120.363636 623.198437)scale(0.1 -0.1)">
     <use xlink:href="#DejaVuSans-49"/>
     <use x="63.623047" xlink:href="#DejaVuSans-32"/>
     <use x="95.410156" xlink:href="#DejaVuSans-40"/>
     <use x="134.423828" xlink:href="#DejaVuSans-50"/>
     <use x="198.046875" xlink:href="#DejaVuSans-48"/>
     <use x="261.669922" xlink:href="#DejaVuSans-49"/>
     <use x="325.292969" xlink:href="#DejaVuSans-52"/>
     <use x="388.916016" xlink:href="#DejaVuSans-45"/>
     <use x="425" xlink:href="#DejaVuSans-48"/>
     <use x="488.623047" xlink:href="#DejaVuSans-54"/>
     <use x="552.246094" xlink:href="#DejaVuSans-45"/>
     <use x="588.330078" xlink:href="#DejaVuSans-48"/>
     <use x="651.953125" xlink:href="#DejaVuSans-55"/>
     <use x="715.576172" xlink:href="#DejaVuSans-41"/>
    </g>
   </g>
   <g id="text_14">
    <!-- 5495 (2015-05-26) -->
    <g style="fill:#262626;" transform="translate(203.245573 572.796603)scale(0.1 -0.1)">
     <use xlink:href="#DejaVuSans-53"/>
     <use x="63.623047" xlink:href="#DejaVuSans-52"/>
     <use x="127.246094" xlink:href="#DejaVuSans-57"/>
     <use x="190.869141" xlink:href="#DejaVuSans-53"/>
     <use x="254.492188" xlink:href="#DejaVuSans-32"/>
     <use x="286.279297" xlink:href="#DejaVuSans-40"/>
     <use x="325.292969" xlink:href="#DejaVuSans-50"/>
     <use x="388.916016" xlink:href="#DejaVuSans-48"/>
     <use x="452.539062" xlink:href="#DejaVuSans-49"/>
     <use x="516.162109" xlink:href="#DejaVuSans-53"/>
     <use x="579.785156" xlink:href="#DejaVuSans-45"/>
     <use x="615.869141" xlink:href="#DejaVuSans-48"/>
     <use x="679.492188" xlink:href="#DejaVuSans-53"/>
     <use x="743.115234" xlink:href="#DejaVuSans-45"/>
     <use x="779.199219" xlink:href="#DejaVuSans-50"/>
     <use x="842.822266" xlink:href="#DejaVuSans-54"/>
     <use x="906.445312" xlink:href="#DejaVuSans-41"/>
    </g>
   </g>
   <g id="text_15">
    <!-- 10989 (2015-12-02) -->
    <g style="fill:#262626;" transform="translate(247.548236 522.394768)scale(0.1 -0.1)">
     <use xlink:href="#DejaVuSans-49"/>
     <use x="63.623047" xlink:href="#DejaVuSans-48"/>
     <use x="127.246094" xlink:href="#DejaVuSans-57"/>
     <use x="190.869141" xlink:href="#DejaVuSans-56"/>
     <use x="254.492188" xlink:href="#DejaVuSans-57"/>
     <use x="318.115234" xlink:href="#DejaVuSans-32"/>
     <use x="349.902344" xlink:href="#DejaVuSans-40"/>
     <use x="388.916016" xlink:href="#DejaVuSans-50"/>
     <use x="452.539062" xlink:href="#DejaVuSans-48"/>
     <use x="516.162109" xlink:href="#DejaVuSans-49"/>
     <use x="579.785156" xlink:href="#DejaVuSans-53"/>
     <use x="643.408203" xlink:href="#DejaVuSans-45"/>
     <use x="679.492188" xlink:href="#DejaVuSans-49"/>
     <use x="743.115234" xlink:href="#DejaVuSans-50"/>
     <use x="806.738281" xlink:href="#DejaVuSans-45"/>
     <use x="842.822266" xlink:href="#DejaVuSans-48"/>
     <use x="906.445312" xlink:href="#DejaVuSans-50"/>
     <use x="970.068359" xlink:href="#DejaVuSans-41"/>
    </g>
   </g>
   <g id="text_16">
    <!-- 16483 (2016-06-29) -->
    <g style="fill:#262626;" transform="translate(296.952133 471.992933)scale(0.1 -0.1)">
     <use xlink:href="#DejaVuSans-49"/>
     <use x="63.623047" xlink:href="#DejaVuSans-54"/>
     <use x="127.246094" xlink:href="#DejaVuSans-52"/>
     <use x="190.869141" xlink:href="#DejaVuSans-56"/>
     <use x="254.492188" xlink:href="#DejaVuSans-51"/>
     <use x="318.115234" xlink:href="#DejaVuSans-32"/>
     <use x="349.902344" xlink:href="#DejaVuSans-40"/>
     <use x="388.916016" xlink:href="#DejaVuSans-50"/>
     <use x="452.539062" xlink:href="#DejaVuSans-48"/>
     <use x="516.162109" xlink:href="#DejaVuSans-49"/>
     <use x="579.785156" xlink:href="#DejaVuSans-54"/>
     <use x="643.408203" xlink:href="#DejaVuSans-45"/>
     <use x="679.492188" xlink:href="#DejaVuSans-48"/>
     <use x="743.115234" xlink:href="#DejaVuSans-54"/>
     <use x="806.738281" xlink:href="#DejaVuSans-45"/>
     <use x="842.822266" xlink:href="#DejaVuSans-50"/>
     <use x="906.445312" xlink:href="#DejaVuSans-57"/>
     <use x="970.068359" xlink:href="#DejaVuSans-41"/>
    </g>
   </g>
   <g id="text_17">
    <!-- 21977 (2016-12-14) -->
    <g style="fill:#262626;" transform="translate(336.320216 421.591098)scale(0.1 -0.1)">
     <use xlink:href="#DejaVuSans-50"/>
     <use x="63.623047" xlink:href="#DejaVuSans-49"/>
     <use x="127.246094" xlink:href="#DejaVuSans-57"/>
     <use x="190.869141" xlink:href="#DejaVuSans-55"/>
     <use x="254.492188" xlink:href="#DejaVuSans-55"/>
     <use x="318.115234" xlink:href="#DejaVuSans-32"/>
     <use x="349.902344" xlink:href="#DejaVuSans-40"/>
     <use x="388.916016" xlink:href="#DejaVuSans-50"/>
     <use x="452.539062" xlink:href="#DejaVuSans-48"/>
     <use x="516.162109" xlink:href="#DejaVuSans-49"/>
     <use x="579.785156" xlink:href="#DejaVuSans-54"/>
     <use x="643.408203" xlink:href="#DejaVuSans-45"/>
     <use x="679.492188" xlink:href="#DejaVuSans-49"/>
     <use x="743.115234" xlink:href="#DejaVuSans-50"/>
     <use x="806.738281" xlink:href="#DejaVuSans-45"/>
     <use x="842.822266" xlink:href="#DejaVuSans-49"/>
     <use x="906.445312" xlink:href="#DejaVuSans-52"/>
     <use x="970.068359" xlink:href="#DejaVuSans-41"/>
    </g>
   </g>
   <g id="text_18">
    <!-- 27471 (2017-06-23) -->
    <g style="fill:#262626;" transform="translate(380.883108 371.189264)scale(0.1 -0.1)">
     <use xlink:href="#DejaVuSans-50"/>
     <use x="63.623047" xlink:href="#DejaVuSans-55"/>
     <use x="127.246094" xlink:href="#DejaVuSans-52"/>
     <use x="190.869141" xlink:href="#DejaVuSans-55"/>
     <use x="254.492188" xlink:href="#DejaVuSans-49"/>
     <use x="318.115234" xlink:href="#DejaVuSans-32"/>
     <use x="349.902344" xlink:href="#DejaVuSans-40"/>
     <use x="388.916016" xlink:href="#DejaVuSans-50"/>
     <use x="452.539062" xlink:href="#DejaVuSans-48"/>
     <use x="516.162109" xlink:href="#DejaVuSans-49"/>
     <use x="579.785156" xlink:href="#DejaVuSans-55"/>
     <use x="643.408203" xlink:href="#DejaVuSans-45"/>
     <use x="679.492188" xlink:href="#DejaVuSans-48"/>
     <use x="743.115234" xlink:href="#DejaVuSans-54"/>
     <use x="806.738281" xlink:href="#DejaVuSans-45"/>
     <use x="842.822266" xlink:href="#DejaVuSans-50"/>
     <use x="906.445312" xlink:href="#DejaVuSans-51"/>
     <use x="970.068359" xlink:href="#DejaVuSans-41"/>
    </g>
   </g>
   <g id="text_19">
    <!-- 32965 (2017-12-14) -->
    <g style="fill:#262626;" transform="translate(421.814519 320.787429)scale(0.1 -0.1)">
     <use xlink:href="#DejaVuSans-51"/>
     <use x="63.623047" xlink:href="#DejaVuSans-50"/>
     <use x="127.246094" xlink:href="#DejaVuSans-57"/>
     <use x="190.869141" xlink:href="#DejaVuSans-54"/>
     <use x="254.492188" xlink:href="#DejaVuSans-53"/>
     <use x="318.115234" xlink:href="#DejaVuSans-32"/>
     <use x="349.902344" xlink:href="#DejaVuSans-40"/>
     <use x="388.916016" xlink:href="#DejaVuSans-50"/>
     <use x="452.539062" xlink:href="#DejaVuSans-48"/>
     <use x="516.162109" xlink:href="#DejaVuSans-49"/>
     <use x="579.785156" xlink:href="#DejaVuSans-55"/>
     <use x="643.408203" xlink:href="#DejaVuSans-45"/>
     <use x="679.492188" xlink:href="#DejaVuSans-49"/>
     <use x="743.115234" xlink:href="#DejaVuSans-50"/>
     <use x="806.738281" xlink:href="#DejaVuSans-45"/>
     <use x="842.822266" xlink:href="#DejaVuSans-49"/>
     <use x="906.445312" xlink:href="#DejaVuSans-52"/>
     <use x="970.068359" xlink:href="#DejaVuSans-41"/>
    </g>
   </g>
   <g id="text_20">
    <!-- 38459 (2018-07-02) -->
    <g style="fill:#262626;" transform="translate(468.686546 270.385594)scale(0.1 -0.1)">
     <use xlink:href="#DejaVuSans-51"/>
     <use x="63.623047" xlink:href="#DejaVuSans-56"/>
     <use x="127.246094" xlink:href="#DejaVuSans-52"/>
     <use x="190.869141" xlink:href="#DejaVuSans-53"/>
     <use x="254.492188" xlink:href="#DejaVuSans-57"/>
     <use x="318.115234" xlink:href="#DejaVuSans-32"/>
     <use x="349.902344" xlink:href="#DejaVuSans-40"/>
     <use x="388.916016" xlink:href="#DejaVuSans-50"/>
     <use x="452.539062" xlink:href="#DejaVuSans-48"/>
     <use x="516.162109" xlink:href="#DejaVuSans-49"/>
     <use x="579.785156" xlink:href="#DejaVuSans-56"/>
     <use x="643.408203" xlink:href="#DejaVuSans-45"/>
     <use x="679.492188" xlink:href="#DejaVuSans-48"/>
     <use x="743.115234" xlink:href="#DejaVuSans-55"/>
     <use x="806.738281" xlink:href="#DejaVuSans-45"/>
     <use x="842.822266" xlink:href="#DejaVuSans-48"/>
     <use x="906.445312" xlink:href="#DejaVuSans-50"/>
     <use x="970.068359" xlink:href="#DejaVuSans-41"/>
    </g>
   </g>
   <g id="text_21">
    <!-- 43953 (2019-02-21) -->
    <g style="fill:#262626;" transform="translate(523.349084 219.983759)scale(0.1 -0.1)">
     <use xlink:href="#DejaVuSans-52"/>
     <use x="63.623047" xlink:href="#DejaVuSans-51"/>
     <use x="127.246094" xlink:href="#DejaVuSans-57"/>
     <use x="190.869141" xlink:href="#DejaVuSans-53"/>
     <use x="254.492188" xlink:href="#DejaVuSans-51"/>
     <use x="318.115234" xlink:href="#DejaVuSans-32"/>
     <use x="349.902344" xlink:href="#DejaVuSans-40"/>
     <use x="388.916016" xlink:href="#DejaVuSans-50"/>
     <use x="452.539062" xlink:href="#DejaVuSans-48"/>
     <use x="516.162109" xlink:href="#DejaVuSans-49"/>
     <use x="579.785156" xlink:href="#DejaVuSans-57"/>
     <use x="643.408203" xlink:href="#DejaVuSans-45"/>
     <use x="679.492188" xlink:href="#DejaVuSans-48"/>
     <use x="743.115234" xlink:href="#DejaVuSans-50"/>
     <use x="806.738281" xlink:href="#DejaVuSans-45"/>
     <use x="842.822266" xlink:href="#DejaVuSans-50"/>
     <use x="906.445312" xlink:href="#DejaVuSans-49"/>
     <use x="970.068359" xlink:href="#DejaVuSans-41"/>
    </g>
   </g>
   <g id="text_22">
    <!-- 49447 (2019-09-12) -->
    <g style="fill:#262626;" transform="translate(570.883811 169.581924)scale(0.1 -0.1)">
     <use xlink:href="#DejaVuSans-52"/>
     <use x="63.623047" xlink:href="#DejaVuSans-57"/>
     <use x="127.246094" xlink:href="#DejaVuSans-52"/>
     <use x="190.869141" xlink:href="#DejaVuSans-52"/>
     <use x="254.492188" xlink:href="#DejaVuSans-55"/>
     <use x="318.115234" xlink:href="#DejaVuSans-32"/>
     <use x="349.902344" xlink:href="#DejaVuSans-40"/>
     <use x="388.916016" xlink:href="#DejaVuSans-50"/>
     <use x="452.539062" xlink:href="#DejaVuSans-48"/>
     <use x="516.162109" xlink:href="#DejaVuSans-49"/>
     <use x="579.785156" xlink:href="#DejaVuSans-57"/>
     <use x="643.408203" xlink:href="#DejaVuSans-45"/>
     <use x="679.492188" xlink:href="#DejaVuSans-48"/>
     <use x="743.115234" xlink:href="#DejaVuSans-57"/>
     <use x="806.738281" xlink:href="#DejaVuSans-45"/>
     <use x="842.822266" xlink:href="#DejaVuSans-49"/>
     <use x="906.445312" xlink:href="#DejaVuSans-50"/>
     <use x="970.068359" xlink:href="#DejaVuSans-41"/>
    </g>
   </g>
   <g id="text_23">
    <!-- 54939 (2020-05-11) -->
    <g style="fill:#262626;" transform="translate(627.636364 119.198437)scale(0.1 -0.1)">
     <use xlink:href="#DejaVuSans-53"/>
     <use x="63.623047" xlink:href="#DejaVuSans-52"/>
     <use x="127.246094" xlink:href="#DejaVuSans-57"/>
     <use x="190.869141" xlink:href="#DejaVuSans-51"/>
     <use x="254.492188" xlink:href="#DejaVuSans-57"/>
     <use x="318.115234" xlink:href="#DejaVuSans-32"/>
     <use x="349.902344" xlink:href="#DejaVuSans-40"/>
     <use x="388.916016" xlink:href="#DejaVuSans-50"/>
     <use x="452.539062" xlink:href="#DejaVuSans-48"/>
     <use x="516.162109" xlink:href="#DejaVuSans-50"/>
     <use x="579.785156" xlink:href="#DejaVuSans-48"/>
     <use x="643.408203" xlink:href="#DejaVuSans-45"/>
     <use x="679.492188" xlink:href="#DejaVuSans-48"/>
     <use x="743.115234" xlink:href="#DejaVuSans-53"/>
     <use x="806.738281" xlink:href="#DejaVuSans-45"/>
     <use x="842.822266" xlink:href="#DejaVuSans-49"/>
     <use x="906.445312" xlink:href="#DejaVuSans-49"/>
     <use x="970.068359" xlink:href="#DejaVuSans-41"/>
    </g>
   </g>
   <g id="text_24">
    <!-- Closed PRs over time -->
    <defs>
     <path d="M 64.40625 67.28125 
L 64.40625 56.890625 
Q 59.421875 61.53125 53.78125 63.8125 
Q 48.140625 66.109375 41.796875 66.109375 
Q 29.296875 66.109375 22.65625 58.46875 
Q 16.015625 50.828125 16.015625 36.375 
Q 16.015625 21.96875 22.65625 14.328125 
Q 29.296875 6.6875 41.796875 6.6875 
Q 48.140625 6.6875 53.78125 8.984375 
Q 59.421875 11.28125 64.40625 15.921875 
L 64.40625 5.609375 
Q 59.234375 2.09375 53.4375 0.328125 
Q 47.65625 -1.421875 41.21875 -1.421875 
Q 24.65625 -1.421875 15.125 8.703125 
Q 5.609375 18.84375 5.609375 36.375 
Q 5.609375 53.953125 15.125 64.078125 
Q 24.65625 74.21875 41.21875 74.21875 
Q 47.75 74.21875 53.53125 72.484375 
Q 59.328125 70.75 64.40625 67.28125 
z
" id="DejaVuSans-67"/>
     <path d="M 9.421875 75.984375 
L 18.40625 75.984375 
L 18.40625 0 
L 9.421875 0 
z
" id="DejaVuSans-108"/>
     <path d="M 30.609375 48.390625 
Q 23.390625 48.390625 19.1875 42.75 
Q 14.984375 37.109375 14.984375 27.296875 
Q 14.984375 17.484375 19.15625 11.84375 
Q 23.34375 6.203125 30.609375 6.203125 
Q 37.796875 6.203125 41.984375 11.859375 
Q 46.1875 17.53125 46.1875 27.296875 
Q 46.1875 37.015625 41.984375 42.703125 
Q 37.796875 48.390625 30.609375 48.390625 
z
M 30.609375 56 
Q 42.328125 56 49.015625 48.375 
Q 55.71875 40.765625 55.71875 27.296875 
Q 55.71875 13.875 49.015625 6.21875 
Q 42.328125 -1.421875 30.609375 -1.421875 
Q 18.84375 -1.421875 12.171875 6.21875 
Q 5.515625 13.875 5.515625 27.296875 
Q 5.515625 40.765625 12.171875 48.375 
Q 18.84375 56 30.609375 56 
z
" id="DejaVuSans-111"/>
     <path d="M 44.28125 53.078125 
L 44.28125 44.578125 
Q 40.484375 46.53125 36.375 47.5 
Q 32.28125 48.484375 27.875 48.484375 
Q 21.1875 48.484375 17.84375 46.4375 
Q 14.5 44.390625 14.5 40.28125 
Q 14.5 37.15625 16.890625 35.375 
Q 19.28125 33.59375 26.515625 31.984375 
L 29.59375 31.296875 
Q 39.15625 29.25 43.1875 25.515625 
Q 47.21875 21.78125 47.21875 15.09375 
Q 47.21875 7.46875 41.1875 3.015625 
Q 35.15625 -1.421875 24.609375 -1.421875 
Q 20.21875 -1.421875 15.453125 -0.5625 
Q 10.6875 0.296875 5.421875 2 
L 5.421875 11.28125 
Q 10.40625 8.6875 15.234375 7.390625 
Q 20.0625 6.109375 24.8125 6.109375 
Q 31.15625 6.109375 34.5625 8.28125 
Q 37.984375 10.453125 37.984375 14.40625 
Q 37.984375 18.0625 35.515625 20.015625 
Q 33.0625 21.96875 24.703125 23.78125 
L 21.578125 24.515625 
Q 13.234375 26.265625 9.515625 29.90625 
Q 5.8125 33.546875 5.8125 39.890625 
Q 5.8125 47.609375 11.28125 51.796875 
Q 16.75 56 26.8125 56 
Q 31.78125 56 36.171875 55.265625 
Q 40.578125 54.546875 44.28125 53.078125 
z
" id="DejaVuSans-115"/>
     <path d="M 56.203125 29.59375 
L 56.203125 25.203125 
L 14.890625 25.203125 
Q 15.484375 15.921875 20.484375 11.0625 
Q 25.484375 6.203125 34.421875 6.203125 
Q 39.59375 6.203125 44.453125 7.46875 
Q 49.3125 8.734375 54.109375 11.28125 
L 54.109375 2.78125 
Q 49.265625 0.734375 44.1875 -0.34375 
Q 39.109375 -1.421875 33.890625 -1.421875 
Q 20.796875 -1.421875 13.15625 6.1875 
Q 5.515625 13.8125 5.515625 26.8125 
Q 5.515625 40.234375 12.765625 48.109375 
Q 20.015625 56 32.328125 56 
Q 43.359375 56 49.78125 48.890625 
Q 56.203125 41.796875 56.203125 29.59375 
z
M 47.21875 32.234375 
Q 47.125 39.59375 43.09375 43.984375 
Q 39.0625 48.390625 32.421875 48.390625 
Q 24.90625 48.390625 20.390625 44.140625 
Q 15.875 39.890625 15.1875 32.171875 
z
" id="DejaVuSans-101"/>
     <path d="M 45.40625 46.390625 
L 45.40625 75.984375 
L 54.390625 75.984375 
L 54.390625 0 
L 45.40625 0 
L 45.40625 8.203125 
Q 42.578125 3.328125 38.25 0.953125 
Q 33.9375 -1.421875 27.875 -1.421875 
Q 17.96875 -1.421875 11.734375 6.484375 
Q 5.515625 14.40625 5.515625 27.296875 
Q 5.515625 40.1875 11.734375 48.09375 
Q 17.96875 56 27.875 56 
Q 33.9375 56 38.25 53.625 
Q 42.578125 51.265625 45.40625 46.390625 
z
M 14.796875 27.296875 
Q 14.796875 17.390625 18.875 11.75 
Q 22.953125 6.109375 30.078125 6.109375 
Q 37.203125 6.109375 41.296875 11.75 
Q 45.40625 17.390625 45.40625 27.296875 
Q 45.40625 37.203125 41.296875 42.84375 
Q 37.203125 48.484375 30.078125 48.484375 
Q 22.953125 48.484375 18.875 42.84375 
Q 14.796875 37.203125 14.796875 27.296875 
z
" id="DejaVuSans-100"/>
     <path d="M 19.671875 64.796875 
L 19.671875 37.40625 
L 32.078125 37.40625 
Q 38.96875 37.40625 42.71875 40.96875 
Q 46.484375 44.53125 46.484375 51.125 
Q 46.484375 57.671875 42.71875 61.234375 
Q 38.96875 64.796875 32.078125 64.796875 
z
M 9.8125 72.90625 
L 32.078125 72.90625 
Q 44.34375 72.90625 50.609375 67.359375 
Q 56.890625 61.8125 56.890625 51.125 
Q 56.890625 40.328125 50.609375 34.8125 
Q 44.34375 29.296875 32.078125 29.296875 
L 19.671875 29.296875 
L 19.671875 0 
L 9.8125 0 
z
" id="DejaVuSans-80"/>
     <path d="M 44.390625 34.1875 
Q 47.5625 33.109375 50.5625 29.59375 
Q 53.5625 26.078125 56.59375 19.921875 
L 66.609375 0 
L 56 0 
L 46.6875 18.703125 
Q 43.0625 26.03125 39.671875 28.421875 
Q 36.28125 30.8125 30.421875 30.8125 
L 19.671875 30.8125 
L 19.671875 0 
L 9.8125 0 
L 9.8125 72.90625 
L 32.078125 72.90625 
Q 44.578125 72.90625 50.734375 67.671875 
Q 56.890625 62.453125 56.890625 51.90625 
Q 56.890625 45.015625 53.6875 40.46875 
Q 50.484375 35.9375 44.390625 34.1875 
z
M 19.671875 64.796875 
L 19.671875 38.921875 
L 32.078125 38.921875 
Q 39.203125 38.921875 42.84375 42.21875 
Q 46.484375 45.515625 46.484375 51.90625 
Q 46.484375 58.296875 42.84375 61.546875 
Q 39.203125 64.796875 32.078125 64.796875 
z
" id="DejaVuSans-82"/>
     <path d="M 2.984375 54.6875 
L 12.5 54.6875 
L 29.59375 8.796875 
L 46.6875 54.6875 
L 56.203125 54.6875 
L 35.6875 0 
L 23.484375 0 
z
" id="DejaVuSans-118"/>
     <path d="M 41.109375 46.296875 
Q 39.59375 47.171875 37.8125 47.578125 
Q 36.03125 48 33.890625 48 
Q 26.265625 48 22.1875 43.046875 
Q 18.109375 38.09375 18.109375 28.8125 
L 18.109375 0 
L 9.078125 0 
L 9.078125 54.6875 
L 18.109375 54.6875 
L 18.109375 46.1875 
Q 20.953125 51.171875 25.484375 53.578125 
Q 30.03125 56 36.53125 56 
Q 37.453125 56 38.578125 55.875 
Q 39.703125 55.765625 41.0625 55.515625 
z
" id="DejaVuSans-114"/>
     <path d="M 18.3125 70.21875 
L 18.3125 54.6875 
L 36.8125 54.6875 
L 36.8125 47.703125 
L 18.3125 47.703125 
L 18.3125 18.015625 
Q 18.3125 11.328125 20.140625 9.421875 
Q 21.96875 7.515625 27.59375 7.515625 
L 36.8125 7.515625 
L 36.8125 0 
L 27.59375 0 
Q 17.1875 0 13.234375 3.875 
Q 9.28125 7.765625 9.28125 18.015625 
L 9.28125 47.703125 
L 2.6875 47.703125 
L 2.6875 54.6875 
L 9.28125 54.6875 
L 9.28125 70.21875 
z
" id="DejaVuSans-116"/>
     <path d="M 9.421875 54.6875 
L 18.40625 54.6875 
L 18.40625 0 
L 9.421875 0 
z
M 9.421875 75.984375 
L 18.40625 75.984375 
L 18.40625 64.59375 
L 9.421875 64.59375 
z
" id="DejaVuSans-105"/>
     <path d="M 52 44.1875 
Q 55.375 50.25 60.0625 53.125 
Q 64.75 56 71.09375 56 
Q 79.640625 56 84.28125 50.015625 
Q 88.921875 44.046875 88.921875 33.015625 
L 88.921875 0 
L 79.890625 0 
L 79.890625 32.71875 
Q 79.890625 40.578125 77.09375 44.375 
Q 74.3125 48.1875 68.609375 48.1875 
Q 61.625 48.1875 57.5625 43.546875 
Q 53.515625 38.921875 53.515625 30.90625 
L 53.515625 0 
L 44.484375 0 
L 44.484375 32.71875 
Q 44.484375 40.625 41.703125 44.40625 
Q 38.921875 48.1875 33.109375 48.1875 
Q 26.21875 48.1875 22.15625 43.53125 
Q 18.109375 38.875 18.109375 30.90625 
L 18.109375 0 
L 9.078125 0 
L 9.078125 54.6875 
L 18.109375 54.6875 
L 18.109375 46.1875 
Q 21.1875 51.21875 25.484375 53.609375 
Q 29.78125 56 35.6875 56 
Q 41.65625 56 45.828125 52.96875 
Q 50 49.953125 52 44.1875 
z
" id="DejaVuSans-109"/>
    </defs>
    <g style="fill:#262626;" transform="translate(305.27625 80.4)scale(0.12 -0.12)">
     <use xlink:href="#DejaVuSans-67"/>
     <use x="69.824219" xlink:href="#DejaVuSans-108"/>
     <use x="97.607422" xlink:href="#DejaVuSans-111"/>
     <use x="158.789062" xlink:href="#DejaVuSans-115"/>
     <use x="210.888672" xlink:href="#DejaVuSans-101"/>
     <use x="272.412109" xlink:href="#DejaVuSans-100"/>
     <use x="335.888672" xlink:href="#DejaVuSans-32"/>
     <use x="367.675781" xlink:href="#DejaVuSans-80"/>
     <use x="427.978516" xlink:href="#DejaVuSans-82"/>
     <use x="497.460938" xlink:href="#DejaVuSans-115"/>
     <use x="549.560547" xlink:href="#DejaVuSans-32"/>
     <use x="581.347656" xlink:href="#DejaVuSans-111"/>
     <use x="642.529297" xlink:href="#DejaVuSans-118"/>
     <use x="701.708984" xlink:href="#DejaVuSans-101"/>
     <use x="763.232422" xlink:href="#DejaVuSans-114"/>
     <use x="804.345703" xlink:href="#DejaVuSans-32"/>
     <use x="836.132812" xlink:href="#DejaVuSans-116"/>
     <use x="875.341797" xlink:href="#DejaVuSans-105"/>
     <use x="903.125" xlink:href="#DejaVuSans-109"/>
     <use x="1000.537109" xlink:href="#DejaVuSans-101"/>
    </g>
   </g>
  </g>
 </g>
 <defs>
  <clipPath id="p91a90047b1">
   <rect height="554.4" width="558" x="90" y="86.4"/>
  </clipPath>
 </defs>
</svg>
