<?xml version="1.0" encoding="utf-8" standalone="no"?>
<!DOCTYPE svg PUBLIC "-//W3C//DTD SVG 1.1//EN"
  "http://www.w3.org/Graphics/SVG/1.1/DTD/svg11.dtd">
<!-- Created with matplotlib (https://matplotlib.org/) -->
<svg height="720pt" version="1.1" viewBox="0 0 720 720" width="720pt" xmlns="http://www.w3.org/2000/svg" xmlns:xlink="http://www.w3.org/1999/xlink">
 <defs>
  <style type="text/css">
*{stroke-linecap:butt;stroke-linejoin:round;}
  </style>
 </defs>
 <g id="figure_1">
  <g id="patch_1">
   <path d="M 0 720 
L 720 720 
L 720 0 
L 0 0 
z
" style="fill:#ffffff;"/>
  </g>
  <g id="axes_1">
   <g id="patch_2">
    <path d="M 90 640.8 
L 648 640.8 
L 648 86.4 
L 90 86.4 
z
" style="fill:#ffffff;"/>
   </g>
   <g id="matplotlib.axis_1">
    <g id="xtick_1">
     <g id="line2d_1">
      <path clip-path="url(#p04883b26e6)" d="M 163.981814 640.8 
L 163.981814 86.4 
" style="fill:none;stroke:#cccccc;stroke-linecap:round;stroke-width:0.8;"/>
     </g>
     <g id="line2d_2"/>
     <g id="text_1">
      <!-- 2015 -->
      <defs>
       <path d="M 5.03125 0 
L 5.03125 6.203125 
Q 7.515625 11.921875 11.109375 16.28125 
Q 14.703125 20.65625 18.65625 24.1875 
Q 22.609375 27.734375 26.484375 30.765625 
Q 30.375 33.796875 33.5 36.8125 
Q 36.625 39.84375 38.546875 43.15625 
Q 40.484375 46.484375 40.484375 50.6875 
Q 40.484375 53.609375 39.59375 55.828125 
Q 38.71875 58.0625 37.0625 59.5625 
Q 35.40625 61.078125 33.078125 61.828125 
Q 30.765625 62.59375 27.9375 62.59375 
Q 25.296875 62.59375 22.96875 61.859375 
Q 20.65625 61.140625 18.84375 59.671875 
Q 17.046875 58.203125 15.890625 56.03125 
Q 14.75 53.859375 14.40625 50.984375 
L 5.421875 51.8125 
Q 5.859375 55.515625 7.46875 58.78125 
Q 9.078125 62.0625 11.90625 64.53125 
Q 14.75 67 18.71875 68.40625 
Q 22.703125 69.828125 27.9375 69.828125 
Q 33.0625 69.828125 37.0625 68.609375 
Q 41.0625 67.390625 43.8125 64.984375 
Q 46.578125 62.59375 48.046875 59.078125 
Q 49.515625 55.5625 49.515625 50.984375 
Q 49.515625 47.515625 48.265625 44.390625 
Q 47.015625 41.265625 44.9375 38.421875 
Q 42.875 35.59375 40.140625 32.953125 
Q 37.40625 30.328125 34.421875 27.8125 
Q 31.453125 25.296875 28.421875 22.828125 
Q 25.390625 20.359375 22.71875 17.859375 
Q 20.0625 15.375 17.96875 12.8125 
Q 15.875 10.25 14.703125 7.46875 
L 50.59375 7.46875 
L 50.59375 0 
z
" id="LiberationSans-50"/>
       <path d="M 51.703125 34.421875 
Q 51.703125 24.515625 49.828125 17.75 
Q 47.953125 10.984375 44.703125 6.8125 
Q 41.453125 2.640625 37.0625 0.828125 
Q 32.671875 -0.984375 27.6875 -0.984375 
Q 22.65625 -0.984375 18.3125 0.828125 
Q 13.96875 2.640625 10.765625 6.78125 
Q 7.5625 10.9375 5.734375 17.703125 
Q 3.90625 24.46875 3.90625 34.421875 
Q 3.90625 44.828125 5.734375 51.640625 
Q 7.5625 58.453125 10.78125 62.5 
Q 14.015625 66.546875 18.40625 68.1875 
Q 22.796875 69.828125 27.984375 69.828125 
Q 32.90625 69.828125 37.21875 68.1875 
Q 41.546875 66.546875 44.765625 62.5 
Q 48 58.453125 49.84375 51.640625 
Q 51.703125 44.828125 51.703125 34.421875 
z
M 42.78125 34.421875 
Q 42.78125 42.625 41.796875 48.0625 
Q 40.828125 53.515625 38.921875 56.765625 
Q 37.015625 60.015625 34.25 61.359375 
Q 31.5 62.703125 27.984375 62.703125 
Q 24.265625 62.703125 21.4375 61.328125 
Q 18.609375 59.96875 16.671875 56.71875 
Q 14.75 53.46875 13.765625 48.015625 
Q 12.796875 42.578125 12.796875 34.421875 
Q 12.796875 26.515625 13.796875 21.09375 
Q 14.796875 15.671875 16.71875 12.375 
Q 18.65625 9.078125 21.4375 7.640625 
Q 24.21875 6.203125 27.78125 6.203125 
Q 31.25 6.203125 34.03125 7.640625 
Q 36.8125 9.078125 38.734375 12.375 
Q 40.671875 15.671875 41.71875 21.09375 
Q 42.78125 26.515625 42.78125 34.421875 
z
" id="LiberationSans-48"/>
       <path d="M 7.625 0 
L 7.625 7.46875 
L 25.140625 7.46875 
L 25.140625 60.40625 
L 9.625 49.3125 
L 9.625 57.625 
L 25.875 68.796875 
L 33.984375 68.796875 
L 33.984375 7.46875 
L 50.734375 7.46875 
L 50.734375 0 
z
" id="LiberationSans-49"/>
       <path d="M 51.421875 22.40625 
Q 51.421875 17.234375 49.859375 12.9375 
Q 48.296875 8.640625 45.21875 5.53125 
Q 42.140625 2.4375 37.578125 0.71875 
Q 33.015625 -0.984375 27 -0.984375 
Q 21.578125 -0.984375 17.546875 0.28125 
Q 13.53125 1.5625 10.734375 3.78125 
Q 7.953125 6 6.3125 8.984375 
Q 4.6875 11.96875 4 15.375 
L 12.890625 16.40625 
Q 13.421875 14.453125 14.390625 12.625 
Q 15.375 10.796875 17.0625 9.34375 
Q 18.75 7.90625 21.21875 7.046875 
Q 23.6875 6.203125 27.203125 6.203125 
Q 30.609375 6.203125 33.390625 7.25 
Q 36.1875 8.296875 38.15625 10.34375 
Q 40.140625 12.40625 41.203125 15.375 
Q 42.28125 18.359375 42.28125 22.21875 
Q 42.28125 25.390625 41.25 28.046875 
Q 40.234375 30.71875 38.328125 32.640625 
Q 36.421875 34.578125 33.65625 35.640625 
Q 30.90625 36.71875 27.390625 36.71875 
Q 25.203125 36.71875 23.34375 36.328125 
Q 21.484375 35.9375 19.890625 35.25 
Q 18.3125 34.578125 17.015625 33.671875 
Q 15.71875 32.765625 14.59375 31.78125 
L 6 31.78125 
L 8.296875 68.796875 
L 47.40625 68.796875 
L 47.40625 61.328125 
L 16.3125 61.328125 
L 14.984375 39.5 
Q 17.328125 41.3125 20.84375 42.59375 
Q 24.359375 43.890625 29.203125 43.890625 
Q 34.328125 43.890625 38.421875 42.328125 
Q 42.53125 40.765625 45.40625 37.90625 
Q 48.296875 35.0625 49.859375 31.109375 
Q 51.421875 27.15625 51.421875 22.40625 
z
" id="LiberationSans-53"/>
      </defs>
      <g style="fill:#262626;" transform="translate(152.859939 651.546875)scale(0.1 -0.1)">
       <use xlink:href="#LiberationSans-50"/>
       <use x="55.615234" xlink:href="#LiberationSans-48"/>
       <use x="111.230469" xlink:href="#LiberationSans-49"/>
       <use x="166.845703" xlink:href="#LiberationSans-53"/>
      </g>
     </g>
    </g>
    <g id="xtick_2">
     <g id="line2d_3">
      <path clip-path="url(#p04883b26e6)" d="M 250.233305 640.8 
L 250.233305 86.4 
" style="fill:none;stroke:#cccccc;stroke-linecap:round;stroke-width:0.8;"/>
     </g>
     <g id="line2d_4"/>
     <g id="text_2">
      <!-- 2016 -->
      <defs>
       <path d="M 51.21875 22.515625 
Q 51.21875 17.328125 49.78125 13 
Q 48.34375 8.6875 45.53125 5.578125 
Q 42.71875 2.484375 38.5625 0.75 
Q 34.421875 -0.984375 29 -0.984375 
Q 23 -0.984375 18.5 1.3125 
Q 14.015625 3.609375 11.03125 7.921875 
Q 8.0625 12.25 6.5625 18.53125 
Q 5.078125 24.8125 5.078125 32.8125 
Q 5.078125 42 6.765625 48.921875 
Q 8.453125 55.859375 11.625 60.5 
Q 14.796875 65.140625 19.359375 67.484375 
Q 23.921875 69.828125 29.6875 69.828125 
Q 33.203125 69.828125 36.28125 69.09375 
Q 39.359375 68.359375 41.875 66.71875 
Q 44.390625 65.09375 46.28125 62.40625 
Q 48.1875 59.71875 49.3125 55.8125 
L 40.921875 54.296875 
Q 39.546875 58.734375 36.546875 60.71875 
Q 33.546875 62.703125 29.59375 62.703125 
Q 25.984375 62.703125 23.046875 60.984375 
Q 20.125 59.28125 18.0625 55.875 
Q 16.015625 52.484375 14.90625 47.359375 
Q 13.8125 42.234375 13.8125 35.40625 
Q 16.21875 39.84375 20.5625 42.15625 
Q 24.90625 44.484375 30.515625 44.484375 
Q 35.203125 44.484375 39.015625 42.96875 
Q 42.828125 41.453125 45.53125 38.59375 
Q 48.25 35.75 49.734375 31.671875 
Q 51.21875 27.59375 51.21875 22.515625 
z
M 42.28125 22.125 
Q 42.28125 25.6875 41.40625 28.5625 
Q 40.53125 31.453125 38.765625 33.46875 
Q 37.015625 35.5 34.421875 36.59375 
Q 31.84375 37.703125 28.421875 37.703125 
Q 26.03125 37.703125 23.578125 36.984375 
Q 21.140625 36.28125 19.15625 34.6875 
Q 17.1875 33.109375 15.9375 30.515625 
Q 14.703125 27.9375 14.703125 24.21875 
Q 14.703125 20.40625 15.671875 17.109375 
Q 16.65625 13.8125 18.484375 11.375 
Q 20.3125 8.9375 22.890625 7.515625 
Q 25.484375 6.109375 28.71875 6.109375 
Q 31.890625 6.109375 34.40625 7.203125 
Q 36.921875 8.296875 38.671875 10.375 
Q 40.4375 12.453125 41.359375 15.421875 
Q 42.28125 18.40625 42.28125 22.125 
z
" id="LiberationSans-54"/>
      </defs>
      <g style="fill:#262626;" transform="translate(239.11143 651.546875)scale(0.1 -0.1)">
       <use xlink:href="#LiberationSans-50"/>
       <use x="55.615234" xlink:href="#LiberationSans-48"/>
       <use x="111.230469" xlink:href="#LiberationSans-49"/>
       <use x="166.845703" xlink:href="#LiberationSans-54"/>
      </g>
     </g>
    </g>
    <g id="xtick_3">
     <g id="line2d_5">
      <path clip-path="url(#p04883b26e6)" d="M 336.721102 640.8 
L 336.721102 86.4 
" style="fill:none;stroke:#cccccc;stroke-linecap:round;stroke-width:0.8;"/>
     </g>
     <g id="line2d_6"/>
     <g id="text_3">
      <!-- 2017 -->
      <defs>
       <path d="M 50.59375 61.671875 
Q 45.40625 53.765625 41.0625 46.453125 
Q 36.71875 39.15625 33.59375 31.75 
Q 30.46875 24.359375 28.734375 16.578125 
Q 27 8.796875 27 0 
L 17.828125 0 
Q 17.828125 8.25 19.78125 16.1875 
Q 21.734375 24.125 25.046875 31.765625 
Q 28.375 39.40625 32.765625 46.78125 
Q 37.15625 54.15625 42.09375 61.328125 
L 5.125 61.328125 
L 5.125 68.796875 
L 50.59375 68.796875 
z
" id="LiberationSans-55"/>
      </defs>
      <g style="fill:#262626;" transform="translate(325.599227 651.546875)scale(0.1 -0.1)">
       <use xlink:href="#LiberationSans-50"/>
       <use x="55.615234" xlink:href="#LiberationSans-48"/>
       <use x="111.230469" xlink:href="#LiberationSans-49"/>
       <use x="166.845703" xlink:href="#LiberationSans-55"/>
      </g>
     </g>
    </g>
    <g id="xtick_4">
     <g id="line2d_7">
      <path clip-path="url(#p04883b26e6)" d="M 422.972593 640.8 
L 422.972593 86.4 
" style="fill:none;stroke:#cccccc;stroke-linecap:round;stroke-width:0.8;"/>
     </g>
     <g id="line2d_8"/>
     <g id="text_4">
      <!-- 2018 -->
      <defs>
       <path d="M 51.265625 19.1875 
Q 51.265625 14.796875 49.875 11.109375 
Q 48.484375 7.421875 45.625 4.734375 
Q 42.78125 2.046875 38.328125 0.53125 
Q 33.890625 -0.984375 27.828125 -0.984375 
Q 21.78125 -0.984375 17.359375 0.53125 
Q 12.9375 2.046875 10.03125 4.703125 
Q 7.125 7.375 5.734375 11.0625 
Q 4.34375 14.75 4.34375 19.09375 
Q 4.34375 22.859375 5.484375 25.78125 
Q 6.640625 28.71875 8.5625 30.828125 
Q 10.5 32.953125 12.96875 34.25 
Q 15.4375 35.546875 18.0625 35.984375 
L 18.0625 36.1875 
Q 15.1875 36.859375 12.90625 38.375 
Q 10.640625 39.890625 9.09375 42.015625 
Q 7.5625 44.140625 6.75 46.71875 
Q 5.953125 49.3125 5.953125 52.203125 
Q 5.953125 55.8125 7.34375 59 
Q 8.734375 62.203125 11.46875 64.625 
Q 14.203125 67.046875 18.25 68.4375 
Q 22.3125 69.828125 27.640625 69.828125 
Q 33.25 69.828125 37.375 68.40625 
Q 41.5 67 44.203125 64.578125 
Q 46.921875 62.15625 48.234375 58.9375 
Q 49.5625 55.71875 49.5625 52.09375 
Q 49.5625 49.265625 48.75 46.671875 
Q 47.953125 44.09375 46.40625 41.96875 
Q 44.875 39.84375 42.59375 38.34375 
Q 40.328125 36.859375 37.359375 36.28125 
L 37.359375 36.078125 
Q 40.328125 35.59375 42.859375 34.296875 
Q 45.40625 33.015625 47.265625 30.890625 
Q 49.125 28.765625 50.1875 25.828125 
Q 51.265625 22.90625 51.265625 19.1875 
z
M 40.4375 51.609375 
Q 40.4375 54.203125 39.765625 56.34375 
Q 39.109375 58.5 37.59375 60.03125 
Q 36.078125 61.578125 33.640625 62.421875 
Q 31.203125 63.28125 27.640625 63.28125 
Q 24.171875 63.28125 21.78125 62.421875 
Q 19.390625 61.578125 17.84375 60.03125 
Q 16.3125 58.5 15.625 56.34375 
Q 14.9375 54.203125 14.9375 51.609375 
Q 14.9375 49.5625 15.46875 47.40625 
Q 16.015625 45.265625 17.421875 43.5 
Q 18.84375 41.75 21.328125 40.625 
Q 23.828125 39.5 27.734375 39.5 
Q 31.890625 39.5 34.40625 40.625 
Q 36.921875 41.75 38.25 43.5 
Q 39.59375 45.265625 40.015625 47.40625 
Q 40.4375 49.5625 40.4375 51.609375 
z
M 42.140625 20.015625 
Q 42.140625 22.515625 41.453125 24.828125 
Q 40.765625 27.15625 39.109375 28.9375 
Q 37.453125 30.71875 34.640625 31.8125 
Q 31.84375 32.90625 27.640625 32.90625 
Q 23.78125 32.90625 21.0625 31.8125 
Q 18.359375 30.71875 16.671875 28.90625 
Q 14.984375 27.09375 14.203125 24.71875 
Q 13.421875 22.359375 13.421875 19.828125 
Q 13.421875 16.65625 14.203125 14.03125 
Q 14.984375 11.421875 16.6875 9.546875 
Q 18.40625 7.671875 21.1875 6.640625 
Q 23.96875 5.609375 27.9375 5.609375 
Q 31.9375 5.609375 34.671875 6.640625 
Q 37.40625 7.671875 39.0625 9.546875 
Q 40.71875 11.421875 41.421875 14.078125 
Q 42.140625 16.75 42.140625 20.015625 
z
" id="LiberationSans-56"/>
      </defs>
      <g style="fill:#262626;" transform="translate(411.850718 651.546875)scale(0.1 -0.1)">
       <use xlink:href="#LiberationSans-50"/>
       <use x="55.615234" xlink:href="#LiberationSans-48"/>
       <use x="111.230469" xlink:href="#LiberationSans-49"/>
       <use x="166.845703" xlink:href="#LiberationSans-56"/>
      </g>
     </g>
    </g>
    <g id="xtick_5">
     <g id="line2d_9">
      <path clip-path="url(#p04883b26e6)" d="M 509.224084 640.8 
L 509.224084 86.4 
" style="fill:none;stroke:#cccccc;stroke-linecap:round;stroke-width:0.8;"/>
     </g>
     <g id="line2d_10"/>
     <g id="text_5">
      <!-- 2019 -->
      <defs>
       <path d="M 50.875 35.796875 
Q 50.875 26.609375 49.140625 19.703125 
Q 47.40625 12.796875 44.1875 8.203125 
Q 40.96875 3.609375 36.34375 1.3125 
Q 31.734375 -0.984375 25.984375 -0.984375 
Q 22.015625 -0.984375 18.84375 -0.171875 
Q 15.671875 0.640625 13.171875 2.34375 
Q 10.6875 4.046875 8.921875 6.78125 
Q 7.171875 9.515625 6.109375 13.375 
L 14.5 14.703125 
Q 15.875 10.25 18.78125 8.171875 
Q 21.6875 6.109375 26.125 6.109375 
Q 29.6875 6.109375 32.640625 7.78125 
Q 35.59375 9.46875 37.671875 12.84375 
Q 39.75 16.21875 40.921875 21.296875 
Q 42.09375 26.375 42.1875 33.203125 
Q 41.15625 30.90625 39.375 29.09375 
Q 37.59375 27.296875 35.328125 26.046875 
Q 33.0625 24.8125 30.421875 24.140625 
Q 27.78125 23.484375 25.09375 23.484375 
Q 20.40625 23.484375 16.625 25.171875 
Q 12.84375 26.859375 10.203125 29.875 
Q 7.5625 32.90625 6.125 37.171875 
Q 4.6875 41.453125 4.6875 46.6875 
Q 4.6875 52 6.21875 56.296875 
Q 7.765625 60.59375 10.6875 63.59375 
Q 13.625 66.609375 17.890625 68.21875 
Q 22.171875 69.828125 27.59375 69.828125 
Q 39.0625 69.828125 44.96875 61.328125 
Q 50.875 52.828125 50.875 35.796875 
z
M 41.3125 44.28125 
Q 41.3125 48.09375 40.40625 51.453125 
Q 39.5 54.828125 37.71875 57.3125 
Q 35.9375 59.8125 33.328125 61.25 
Q 30.71875 62.703125 27.296875 62.703125 
Q 24.125 62.703125 21.578125 61.578125 
Q 19.046875 60.453125 17.28125 58.375 
Q 15.53125 56.296875 14.578125 53.3125 
Q 13.625 50.34375 13.625 46.6875 
Q 13.625 43.21875 14.46875 40.234375 
Q 15.328125 37.25 17.03125 35.078125 
Q 18.75 32.90625 21.28125 31.65625 
Q 23.828125 30.421875 27.203125 30.421875 
Q 29.640625 30.421875 32.15625 31.25 
Q 34.671875 32.078125 36.6875 33.78125 
Q 38.71875 35.5 40.015625 38.109375 
Q 41.3125 40.71875 41.3125 44.28125 
z
" id="LiberationSans-57"/>
      </defs>
      <g style="fill:#262626;" transform="translate(498.102209 651.546875)scale(0.1 -0.1)">
       <use xlink:href="#LiberationSans-50"/>
       <use x="55.615234" xlink:href="#LiberationSans-48"/>
       <use x="111.230469" xlink:href="#LiberationSans-49"/>
       <use x="166.845703" xlink:href="#LiberationSans-57"/>
      </g>
     </g>
    </g>
    <g id="xtick_6">
     <g id="line2d_11">
      <path clip-path="url(#p04883b26e6)" d="M 595.475575 640.8 
L 595.475575 86.4 
" style="fill:none;stroke:#cccccc;stroke-linecap:round;stroke-width:0.8;"/>
     </g>
     <g id="line2d_12"/>
     <g id="text_6">
      <!-- 2020 -->
      <g style="fill:#262626;" transform="translate(584.3537 651.546875)scale(0.1 -0.1)">
       <use xlink:href="#LiberationSans-50"/>
       <use x="55.615234" xlink:href="#LiberationSans-48"/>
       <use x="111.230469" xlink:href="#LiberationSans-50"/>
       <use x="166.845703" xlink:href="#LiberationSans-48"/>
      </g>
     </g>
    </g>
   </g>
   <g id="matplotlib.axis_2">
    <g id="ytick_1">
     <g id="line2d_13">
      <path clip-path="url(#p04883b26e6)" d="M 90 615.615651 
L 648 615.615651 
" style="fill:none;stroke:#cccccc;stroke-linecap:round;stroke-width:0.8;"/>
     </g>
     <g id="line2d_14"/>
     <g id="text_7">
      <!-- 0 -->
      <g style="fill:#262626;" transform="translate(80.939063 619.239089)scale(0.1 -0.1)">
       <use xlink:href="#LiberationSans-48"/>
      </g>
     </g>
    </g>
    <g id="ytick_2">
     <g id="line2d_15">
      <path clip-path="url(#p04883b26e6)" d="M 90 537.359642 
L 648 537.359642 
" style="fill:none;stroke:#cccccc;stroke-linecap:round;stroke-width:0.8;"/>
     </g>
     <g id="line2d_16"/>
     <g id="text_8">
      <!-- 5000 -->
      <g style="fill:#262626;" transform="translate(64.25625 540.98308)scale(0.1 -0.1)">
       <use xlink:href="#LiberationSans-53"/>
       <use x="55.615234" xlink:href="#LiberationSans-48"/>
       <use x="111.230469" xlink:href="#LiberationSans-48"/>
       <use x="166.845703" xlink:href="#LiberationSans-48"/>
      </g>
     </g>
    </g>
    <g id="ytick_3">
     <g id="line2d_17">
      <path clip-path="url(#p04883b26e6)" d="M 90 459.103633 
L 648 459.103633 
" style="fill:none;stroke:#cccccc;stroke-linecap:round;stroke-width:0.8;"/>
     </g>
     <g id="line2d_18"/>
     <g id="text_9">
      <!-- 10000 -->
      <g style="fill:#262626;" transform="translate(58.695312 462.727071)scale(0.1 -0.1)">
       <use xlink:href="#LiberationSans-49"/>
       <use x="55.615234" xlink:href="#LiberationSans-48"/>
       <use x="111.230469" xlink:href="#LiberationSans-48"/>
       <use x="166.845703" xlink:href="#LiberationSans-48"/>
       <use x="222.460938" xlink:href="#LiberationSans-48"/>
      </g>
     </g>
    </g>
    <g id="ytick_4">
     <g id="line2d_19">
      <path clip-path="url(#p04883b26e6)" d="M 90 380.847624 
L 648 380.847624 
" style="fill:none;stroke:#cccccc;stroke-linecap:round;stroke-width:0.8;"/>
     </g>
     <g id="line2d_20"/>
     <g id="text_10">
      <!-- 15000 -->
      <g style="fill:#262626;" transform="translate(58.695312 384.471062)scale(0.1 -0.1)">
       <use xlink:href="#LiberationSans-49"/>
       <use x="55.615234" xlink:href="#LiberationSans-53"/>
       <use x="111.230469" xlink:href="#LiberationSans-48"/>
       <use x="166.845703" xlink:href="#LiberationSans-48"/>
       <use x="222.460938" xlink:href="#LiberationSans-48"/>
      </g>
     </g>
    </g>
    <g id="ytick_5">
     <g id="line2d_21">
      <path clip-path="url(#p04883b26e6)" d="M 90 302.591615 
L 648 302.591615 
" style="fill:none;stroke:#cccccc;stroke-linecap:round;stroke-width:0.8;"/>
     </g>
     <g id="line2d_22"/>
     <g id="text_11">
      <!-- 20000 -->
      <g style="fill:#262626;" transform="translate(58.695312 306.215053)scale(0.1 -0.1)">
       <use xlink:href="#LiberationSans-50"/>
       <use x="55.615234" xlink:href="#LiberationSans-48"/>
       <use x="111.230469" xlink:href="#LiberationSans-48"/>
       <use x="166.845703" xlink:href="#LiberationSans-48"/>
       <use x="222.460938" xlink:href="#LiberationSans-48"/>
      </g>
     </g>
    </g>
    <g id="ytick_6">
     <g id="line2d_23">
      <path clip-path="url(#p04883b26e6)" d="M 90 224.335606 
L 648 224.335606 
" style="fill:none;stroke:#cccccc;stroke-linecap:round;stroke-width:0.8;"/>
     </g>
     <g id="line2d_24"/>
     <g id="text_12">
      <!-- 25000 -->
      <g style="fill:#262626;" transform="translate(58.695312 227.959044)scale(0.1 -0.1)">
       <use xlink:href="#LiberationSans-50"/>
       <use x="55.615234" xlink:href="#LiberationSans-53"/>
       <use x="111.230469" xlink:href="#LiberationSans-48"/>
       <use x="166.845703" xlink:href="#LiberationSans-48"/>
       <use x="222.460938" xlink:href="#LiberationSans-48"/>
      </g>
     </g>
    </g>
    <g id="ytick_7">
     <g id="line2d_25">
      <path clip-path="url(#p04883b26e6)" d="M 90 146.079598 
L 648 146.079598 
" style="fill:none;stroke:#cccccc;stroke-linecap:round;stroke-width:0.8;"/>
     </g>
     <g id="line2d_26"/>
     <g id="text_13">
      <!-- 30000 -->
      <defs>
       <path d="M 51.21875 19 
Q 51.21875 14.265625 49.671875 10.546875 
Q 48.140625 6.84375 45.1875 4.265625 
Q 42.234375 1.703125 37.859375 0.359375 
Q 33.5 -0.984375 27.875 -0.984375 
Q 21.484375 -0.984375 17.109375 0.609375 
Q 12.75 2.203125 9.90625 4.8125 
Q 7.078125 7.421875 5.65625 10.765625 
Q 4.25 14.109375 3.8125 17.671875 
L 12.890625 18.5 
Q 13.28125 15.765625 14.328125 13.515625 
Q 15.375 11.28125 17.1875 9.671875 
Q 19 8.0625 21.625 7.171875 
Q 24.265625 6.296875 27.875 6.296875 
Q 34.515625 6.296875 38.296875 9.5625 
Q 42.09375 12.84375 42.09375 19.28125 
Q 42.09375 23.09375 40.40625 25.40625 
Q 38.71875 27.734375 36.203125 29.03125 
Q 33.6875 30.328125 30.734375 30.765625 
Q 27.78125 31.203125 25.296875 31.203125 
L 20.3125 31.203125 
L 20.3125 38.8125 
L 25.09375 38.8125 
Q 27.59375 38.8125 30.265625 39.328125 
Q 32.953125 39.84375 35.171875 41.1875 
Q 37.40625 42.53125 38.84375 44.828125 
Q 40.28125 47.125 40.28125 50.6875 
Q 40.28125 56.203125 37.03125 59.390625 
Q 33.796875 62.59375 27.390625 62.59375 
Q 21.578125 62.59375 17.984375 59.609375 
Q 14.40625 56.640625 13.8125 51.21875 
L 4.984375 51.90625 
Q 5.515625 56.453125 7.46875 59.8125 
Q 9.421875 63.1875 12.421875 65.40625 
Q 15.4375 67.625 19.28125 68.71875 
Q 23.140625 69.828125 27.484375 69.828125 
Q 33.25 69.828125 37.390625 68.375 
Q 41.546875 66.9375 44.1875 64.46875 
Q 46.828125 62.015625 48.0625 58.6875 
Q 49.3125 55.375 49.3125 51.609375 
Q 49.3125 48.578125 48.484375 45.9375 
Q 47.65625 43.3125 45.890625 41.203125 
Q 44.140625 39.109375 41.421875 37.59375 
Q 38.71875 36.078125 34.90625 35.296875 
L 34.90625 35.109375 
Q 39.0625 34.671875 42.140625 33.21875 
Q 45.21875 31.78125 47.21875 29.625 
Q 49.21875 27.484375 50.21875 24.75 
Q 51.21875 22.015625 51.21875 19 
z
" id="LiberationSans-51"/>
      </defs>
      <g style="fill:#262626;" transform="translate(58.695312 149.703035)scale(0.1 -0.1)">
       <use xlink:href="#LiberationSans-51"/>
       <use x="55.615234" xlink:href="#LiberationSans-48"/>
       <use x="111.230469" xlink:href="#LiberationSans-48"/>
       <use x="166.845703" xlink:href="#LiberationSans-48"/>
       <use x="222.460938" xlink:href="#LiberationSans-48"/>
      </g>
     </g>
    </g>
   </g>
   <g id="line2d_27">
    <path clip-path="url(#p04883b26e6)" d="M 115.363636 615.6 
L 117.006728 615.459139 
L 117.012696 615.427837 
L 118.060863 615.33393 
L 119.730433 615.193069 
L 119.84026 615.161766 
L 120.705204 615.036557 
L 120.789382 614.989603 
L 123.028808 614.848742 
L 124.224519 614.660928 
L 126.165555 614.488765 
L 126.194481 614.347904 
L 127.108037 614.207043 
L 127.152467 614.144438 
L 129.666834 613.737507 
L 129.690803 613.706205 
L 131.075449 613.565344 
L 132.08047 613.393181 
L 133.722817 613.033203 
L 133.776336 612.986249 
L 136.064878 612.548016 
L 136.32736 612.501062 
L 137.209389 612.375852 
L 137.2794 612.281945 
L 140.321723 611.890665 
L 143.857728 611.061151 
L 143.946553 611.014198 
L 144.522001 610.857686 
L 144.599427 610.748127 
L 145.549208 610.622918 
L 146.946848 610.38815 
L 147.053888 610.341196 
L 147.907506 610.153382 
L 149.093294 610.012521 
L 149.499743 609.87166 
L 149.506148 609.840358 
L 150.423311 609.683846 
L 150.949094 609.449078 
L 151.00488 609.370822 
L 152.64519 609.136054 
L 152.649771 609.120402 
L 153.570312 608.932588 
L 153.641338 608.82303 
L 157.150829 608.071772 
L 157.151089 608.056121 
L 157.324024 607.930911 
L 158.040631 607.727446 
L 158.77387 607.602236 
L 158.790152 607.430073 
L 159.219965 607.289212 
L 159.263241 607.242258 
L 160.192047 607.054444 
L 160.204609 606.929234 
L 160.440674 606.804025 
L 160.449615 606.491001 
L 160.687378 606.365791 
L 160.734043 606.318837 
L 161.103831 606.162325 
L 161.316208 605.990162 
L 161.861469 605.864952 
L 162.105112 605.786696 
L 163.581029 605.661487 
L 165.405413 605.301509 
L 165.406797 605.254556 
L 166.08341 605.082392 
L 166.128426 605.004136 
L 166.879943 604.878927 
L 167.233053 604.738066 
L 167.549188 604.425042 
L 168.653522 604.205925 
L 168.754948 604.049413 
L 169.174677 603.87725 
L 169.382924 603.814645 
L 169.495218 603.75204 
L 170.126542 603.626831 
L 170.183474 603.501621 
L 170.370558 603.09469 
L 170.588998 602.96948 
L 170.92319 602.719061 
L 171.979945 602.374734 
L 172.097784 602.171269 
L 172.221792 602.046059 
L 172.794144 601.451314 
L 173.453682 601.294802 
L 173.897884 601.028731 
L 173.922054 600.88787 
L 174.209296 600.74701 
L 174.375063 600.590497 
L 174.471718 600.543544 
L 175.330048 600.418334 
L 175.356247 600.371381 
L 175.546905 600.246171 
L 175.625726 600.167915 
L 175.874648 600.011403 
L 176.029201 599.83924 
L 177.012311 599.635774 
L 177.10584 599.604472 
L 177.435407 599.44796 
L 177.535662 599.369704 
L 177.736688 599.181889 
L 177.896172 598.978424 
L 178.360463 598.853214 
L 178.467433 598.6654 
L 178.835052 598.352376 
L 178.932186 598.211515 
L 179.2468 598.070654 
L 179.304001 597.961096 
L 179.9813 597.835886 
L 180.28451 597.303745 
L 180.327857 597.209838 
L 180.453654 597.068977 
L 180.584617 596.771604 
L 180.715928 596.630743 
L 180.833066 596.505534 
L 180.983364 596.364673 
L 180.999134 596.286417 
L 181.636458 596.145556 
L 181.706759 595.879486 
L 181.908863 595.738625 
L 181.954793 595.629067 
L 182.135216 595.503857 
L 182.459688 595.01867 
L 182.626644 594.89346 
L 182.696403 594.830855 
L 183.301961 594.674343 
L 183.351319 594.486529 
L 183.399182 594.439575 
L 183.532791 594.314366 
L 183.796348 593.954388 
L 183.830576 593.813527 
L 184.003717 593.672666 
L 184.16395 593.453549 
L 184.277046 593.32834 
L 184.370231 593.187479 
L 184.948706 593.046618 
L 185.084527 592.874455 
L 185.241345 592.717943 
L 185.382064 592.467524 
L 185.722349 592.170151 
L 185.913409 592.013639 
L 186.128116 591.919732 
L 186.869757 591.794522 
L 187.082725 591.418893 
L 187.341165 591.168474 
L 187.411206 591.011962 
L 187.565866 590.886752 
L 187.619896 590.808496 
L 188.293498 590.667636 
L 188.802372 590.385914 
L 189.027612 590.182448 
L 189.086521 590.104192 
L 189.220786 589.963331 
L 189.2874 589.791168 
L 189.92807 589.619005 
L 190.236927 589.259027 
L 190.613361 589.118167 
L 190.685967 588.852096 
L 190.920331 588.679933 
L 190.932857 588.664282 
L 191.548408 588.539072 
L 192.587009 587.412186 
L 193.199027 587.240022 
L 193.78731 586.551369 
L 193.939338 586.363555 
L 194.062428 586.128787 
L 194.22721 585.987926 
L 194.230639 585.972275 
L 194.900727 585.800112 
L 194.98278 585.580995 
L 195.311245 585.424483 
L 195.440356 585.267971 
L 195.848954 584.986249 
L 195.897588 584.892342 
L 196.518916 584.767132 
L 196.622174 584.563667 
L 196.827579 584.297596 
L 197.225341 584.156736 
L 197.336563 583.968921 
L 197.580737 583.6872 
L 198.253778 583.56199 
L 198.691159 583.342873 
L 198.751775 583.217663 
L 198.926641 583.076803 
L 199.018634 582.873337 
L 199.831278 582.638569 
L 199.938357 582.372499 
L 200.109159 582.247289 
L 200.414775 581.856009 
L 200.582738 581.574287 
L 200.685022 581.464729 
L 200.797275 581.339519 
L 200.953475 581.198658 
L 201.488089 580.948239 
L 201.538552 580.838681 
L 201.730236 580.69782 
L 201.993085 580.416098 
L 202.104179 580.290889 
L 202.370747 580.134377 
L 202.478394 579.993516 
L 202.546291 579.805702 
L 203.154698 579.664841 
L 203.237058 579.508329 
L 203.412608 579.383119 
L 203.51347 579.195305 
L 203.646794 579.023141 
L 203.740107 578.913583 
L 203.892893 578.788373 
L 204.005483 578.647513 
L 204.149996 578.506652 
L 204.226691 578.365791 
L 205.041061 578.146674 
L 205.111606 578.005813 
L 205.267223 577.880604 
L 205.345086 577.614533 
L 205.512031 577.458021 
L 205.59345 577.270207 
L 205.74782 577.113695 
L 205.853402 576.894578 
L 206.464022 576.738066 
L 206.739534 576.425042 
L 206.856557 576.190274 
L 207.033584 575.986808 
L 207.120593 575.924203 
L 207.739807 575.75204 
L 208.120948 575.626831 
L 208.181651 575.376411 
L 208.398185 575.251202 
L 208.493522 575.141643 
L 208.587358 575.016434 
L 208.713825 574.390386 
L 208.811824 574.249525 
L 208.930395 574.06171 
L 209.104605 573.842594 
L 209.317383 573.701733 
L 209.78832 573.466965 
L 210.835504 572.183566 
L 211.446966 572.058357 
L 211.69798 571.933147 
L 212.070315 571.760984 
L 212.198067 571.604472 
L 212.198674 571.541867 
L 212.354445 571.416657 
L 212.478691 571.213192 
L 213.039602 571.087982 
L 213.353765 570.821912 
L 213.602673 570.696702 
L 213.676962 570.602795 
L 213.827262 570.461934 
L 213.9224 570.227166 
L 214.057518 570.086305 
L 214.124911 570.039352 
L 214.707691 569.914142 
L 215.435805 569.428955 
L 215.714935 569.288094 
L 215.787979 569.225489 
L 216.33248 569.068977 
L 216.452796 568.912465 
L 216.796145 568.677697 
L 217.073798 568.427278 
L 217.137458 568.302068 
L 217.338272 568.145556 
L 217.421282 568.098603 
L 217.886774 567.973393 
L 217.982611 567.816881 
L 218.101308 567.644718 
L 218.20563 567.550811 
L 218.485606 567.15953 
L 218.564399 566.971716 
L 218.78026 566.752599 
L 218.89175 566.596087 
L 219.00728 566.455226 
L 219.025244 566.423924 
L 219.666887 566.267412 
L 219.904382 566.032644 
L 219.958232 565.876132 
L 220.04026 564.592733 
L 220.193517 564.467524 
L 220.307742 563.591056 
L 220.407781 563.450196 
L 220.496294 563.184125 
L 221.278725 562.965008 
L 221.913602 562.292007 
L 222.239909 562.135495 
L 222.331556 561.94768 
L 223.071203 561.806819 
L 223.414768 561.665959 
L 223.521628 561.509447 
L 223.96353 561.29033 
L 224.885061 560.820794 
L 225.172183 560.398211 
L 225.334361 560.241699 
L 225.677204 559.86607 
L 226.319758 559.678256 
L 226.675674 559.318278 
L 226.799097 559.177418 
L 226.951429 559.130464 
L 227.074354 559.005254 
L 227.152365 558.895696 
L 227.291304 558.754835 
L 227.388299 558.69223 
L 227.960617 558.520067 
L 228.052435 558.394857 
L 228.2776 558.113136 
L 228.368359 558.019229 
L 228.452565 557.894019 
L 228.538904 557.455785 
L 228.9368 557.111459 
L 228.992042 556.970598 
L 229.62252 556.845388 
L 230.375911 555.749804 
L 230.473365 555.577641 
L 230.557989 555.43678 
L 230.630905 555.248966 
L 231.305786 555.076803 
L 231.461669 554.920291 
L 231.709251 554.701174 
L 232.040207 554.231638 
L 232.239064 553.949916 
L 232.312924 553.777753 
L 232.888273 553.60559 
L 233.158949 553.245612 
L 233.3579 552.729122 
L 233.851961 552.384796 
L 234.024782 552.150028 
L 234.564879 551.946562 
L 235.643326 550.444047 
L 236.343255 550.240581 
L 236.414273 550.099721 
L 236.699231 549.927557 
L 237.048843 549.661487 
L 237.448238 549.395416 
L 237.864918 549.223253 
L 238.021533 549.019788 
L 238.170397 548.910229 
L 238.446754 548.753717 
L 238.52392 548.65981 
L 238.84361 548.487647 
L 238.913176 548.346786 
L 239.548151 548.221576 
L 239.658 548.174623 
L 239.88752 547.939855 
L 240.147746 547.798994 
L 240.380879 547.595528 
L 240.543341 547.376411 
L 240.855341 547.251202 
L 241.097798 547.110341 
L 241.209529 546.859922 
L 242.298713 546.155618 
L 242.767058 546.030408 
L 243.005125 545.639128 
L 243.388093 545.169592 
L 243.463314 544.966126 
L 243.595628 544.840917 
L 243.669769 544.684405 
L 243.859262 544.527893 
L 243.947841 544.418334 
L 244.963115 543.917496 
L 245.279551 543.573169 
L 246.079735 543.307099 
L 246.177484 543.197541 
L 246.339704 542.868865 
L 246.449865 542.696702 
L 246.673447 542.524539 
L 247.216955 542.101956 
L 247.814581 541.929793 
L 248.088192 541.741979 
L 248.79224 541.522862 
L 249.738865 541.382001 
L 250.099862 541.194187 
L 251.104305 541.053326 
L 251.230343 540.912465 
L 252.823624 540.051649 
L 252.881238 539.910788 
L 253.072869 539.769927 
L 253.16374 539.691671 
L 253.758355 539.40995 
L 253.858842 539.28474 
L 254.908615 538.909111 
L 255.021511 538.783902 
L 255.154564 538.62739 
L 255.297384 538.220458 
L 255.40708 538.095249 
L 255.600405 537.84483 
L 256.090115 537.657015 
L 256.156335 537.406596 
L 256.322042 537.265735 
L 256.404453 537.046618 
L 256.685446 536.905757 
L 256.825635 536.733594 
L 257.472844 535.935383 
L 257.798062 535.591056 
L 257.892103 535.528452 
L 258.016155 535.340637 
L 258.097992 535.199776 
L 258.265889 535.058916 
L 258.375799 534.73024 
L 258.455473 534.58938 
L 258.56059 534.401565 
L 258.92857 533.932029 
L 259.439488 533.5564 
L 259.547972 533.305981 
L 259.830538 533.118167 
L 260.370857 531.537395 
L 260.462554 531.396534 
L 260.948873 531.193069 
L 261.072197 531.036557 
L 261.29785 530.848742 
L 261.412141 530.660928 
L 261.571945 530.488765 
L 261.684108 530.394857 
L 261.821496 530.253997 
L 261.909454 529.940973 
L 261.994171 529.800112 
L 262.145582 529.534041 
L 262.315946 529.393181 
L 262.362707 529.361878 
L 262.680685 529.221017 
L 263.915863 526.701174 
L 264.397215 526.403801 
L 265.01302 525.183007 
L 265.078174 525.026495 
L 265.378867 524.30654 
L 266.018601 523.91526 
L 266.139371 523.758748 
L 266.449068 523.570933 
L 266.60038 523.242258 
L 267.134606 522.365791 
L 267.660782 522.193628 
L 267.766635 521.943208 
L 267.945448 521.771045 
L 268.036841 521.614533 
L 268.128959 521.473672 
L 268.267001 521.379765 
L 268.409558 521.207602 
L 268.466302 520.675461 
L 268.653544 520.5346 
L 268.927978 520.346786 
L 269.360641 520.190274 
L 269.855882 519.861599 
L 270.040996 519.720738 
L 270.263588 519.548575 
L 271.43659 519.141643 
L 271.547407 518.938178 
L 271.907081 518.766015 
L 272.976656 518.218222 
L 273.106963 518.046059 
L 273.435849 517.717384 
L 273.591329 517.592174 
L 273.670103 517.435662 
L 274.451872 517.247848 
L 274.782954 516.997429 
L 274.873355 516.840917 
L 275.105424 516.606149 
L 275.11807 516.574846 
L 275.319655 516.433985 
L 275.925762 516.011403 
L 276.062983 515.792286 
L 276.18883 515.651425 
L 276.414575 515.260145 
L 277.186752 514.759307 
L 277.621888 514.618446 
L 277.678147 514.524539 
L 277.914264 514.383678 
L 278.136629 513.929793 
L 278.309903 513.851537 
L 278.587453 513.648072 
L 278.825027 513.569816 
L 279.272914 513.428955 
L 279.387634 513.350699 
L 279.522429 513.209838 
L 279.662077 513.162884 
L 280.238181 512.411627 
L 280.348872 512.317719 
L 280.787361 512.176859 
L 280.892298 512.051649 
L 281.156621 511.80123 
L 281.639343 511.316042 
L 281.744847 511.253438 
L 281.861088 511.128228 
L 281.902627 511.01867 
L 282.259462 510.877809 
L 282.346326 510.736948 
L 282.470272 510.564785 
L 282.584494 510.267412 
L 282.840927 509.578759 
L 282.924194 508.843153 
L 283.060929 508.686641 
L 283.719242 507.872778 
L 284.137103 507.716266 
L 284.241523 507.544103 
L 284.679481 506.573728 
L 284.789459 506.229402 
L 284.962009 505.94768 
L 285.12384 505.603354 
L 285.392577 505.024259 
L 285.618268 504.883399 
L 285.716704 504.742538 
L 286.004564 504.554723 
L 286.260537 504.194746 
L 286.335816 504.006931 
L 286.45233 503.834768 
L 286.855398 502.69223 
L 287.0274 502.551369 
L 287.515204 501.972275 
L 288.476057 499.812409 
L 288.734097 499.530688 
L 288.834098 499.452432 
L 289.126408 499.311571 
L 289.185944 499.123756 
L 289.297005 498.888988 
L 289.552291 498.513359 
L 289.73091 498.075126 
L 289.863679 497.840358 
L 289.934242 497.558636 
L 290.094402 497.417775 
L 290.251449 496.979542 
L 290.6227 496.807378 
L 290.722999 496.666518 
L 290.864118 496.43175 
L 290.985913 496.18133 
L 291.076062 496.056121 
L 291.181393 495.743097 
L 291.356404 495.414421 
L 291.638354 494.850978 
L 291.790613 494.647513 
L 291.916768 494.522303 
L 292.467614 494.193628 
L 292.505535 494.099721 
L 292.730881 493.95886 
L 293.568576 492.315484 
L 294.267649 492.127669 
L 295.127549 491.172946 
L 295.178213 491.079039 
L 295.776284 490.953829 
L 295.876608 490.734712 
L 296.068291 490.546898 
L 296.183802 490.45299 
L 296.329116 490.218222 
L 296.475839 490.030408 
L 296.730734 489.717384 
L 297.070481 489.560872 
L 297.341379 489.435662 
L 297.496621 489.185243 
L 297.734978 488.809614 
L 297.946816 488.49659 
L 298.062176 488.402683 
L 298.284355 488.199217 
L 298.47963 488.042705 
L 298.65949 487.980101 
L 299.112879 487.760984 
L 299.163217 487.635774 
L 299.551658 487.44796 
L 300.109919 487.009726 
L 300.733336 486.884516 
L 301.240659 486.258468 
L 301.375064 485.929793 
L 301.478592 485.804584 
L 301.591603 485.679374 
L 301.687848 485.522862 
L 301.76505 485.397652 
L 302.528907 485.115931 
L 302.643154 484.990721 
L 302.895093 484.787255 
L 303.474328 483.644718 
L 304.030415 483.456903 
L 304.7481 482.37697 
L 304.882578 482.063946 
L 304.985964 481.923086 
L 305.071351 481.578759 
L 305.492653 481.406596 
L 305.678539 481.265735 
L 305.718314 481.109223 
L 305.889594 480.843153 
L 305.971462 480.702292 
L 306.36243 480.044941 
L 306.479691 479.716266 
L 306.593246 479.559754 
L 306.685468 479.403242 
L 306.988437 479.168474 
L 307.350361 479.011962 
L 307.626743 478.088541 
L 307.73831 477.806819 
L 307.852092 477.650307 
L 308.168725 476.89905 
L 308.248185 476.742538 
L 308.382674 476.366909 
L 308.452784 476.319955 
L 308.954482 476.179094 
L 309.058806 476.069536 
L 310.172863 473.894019 
L 310.574424 473.580995 
L 310.753786 473.158413 
L 310.931609 473.001901 
L 311.07985 472.876691 
L 311.158129 472.720179 
L 311.314569 472.516713 
L 312.858959 470.482057 
L 312.957562 470.372499 
L 313.052048 470.184684 
L 313.231455 469.87166 
L 313.321762 469.683846 
L 313.410628 469.60559 
L 313.955761 469.433426 
L 314.204275 469.104751 
L 314.364684 468.948239 
L 314.499195 468.682169 
L 314.713738 468.400447 
L 314.959889 468.228284 
L 315.175912 467.993516 
L 315.696785 467.837004 
L 315.900071 467.492677 
L 316.127512 466.61621 
L 316.209029 466.412745 
L 316.318832 466.334489 
L 316.615373 465.817999 
L 316.703878 465.645836 
L 316.891632 465.44237 
L 317.60098 464.910229 
L 317.801985 464.033762 
L 317.909113 463.266853 
L 318.031882 463.032085 
L 318.171705 462.766015 
L 318.253211 462.609503 
L 318.350397 462.265176 
L 318.664981 462.06171 
L 318.993481 461.826942 
L 319.099392 461.686082 
L 319.208183 461.498267 
L 320.301911 460.637451 
L 320.582083 460.49659 
L 320.671917 460.293125 
L 320.853074 460.152264 
L 320.923583 459.886193 
L 321.114583 459.71403 
L 321.215773 459.620123 
L 321.557907 459.275797 
L 321.657645 459.197541 
L 322.485231 458.461934 
L 323.32842 457.49156 
L 323.608852 457.350699 
L 324.150889 456.442929 
L 324.246286 456.208161 
L 324.425225 455.910788 
L 324.549556 455.738625 
L 324.787978 455.269089 
L 324.892163 455.143879 
L 324.970374 455.081274 
L 325.512181 454.924762 
L 325.750439 454.643041 
L 325.875019 453.876132 
L 326.03319 453.59441 
L 326.561128 450.511124 
L 326.742134 450.370263 
L 326.823471 450.323309 
L 327.173651 450.182448 
L 327.265906 449.932029 
L 327.433114 449.68161 
L 327.517831 448.460816 
L 327.721686 448.319955 
L 327.849493 448.210397 
L 328.227962 448.085187 
L 328.881503 447.928675 
L 328.953814 447.819117 
L 329.083027 447.678256 
L 329.169842 447.412186 
L 329.343034 447.146115 
L 329.652173 446.019229 
L 329.733296 444.892342 
L 329.882765 444.704528 
L 330.10589 444.34455 
L 330.50572 444.203689 
L 330.55987 444.047177 
L 330.674768 443.812409 
L 330.795951 443.671548 
L 330.900232 443.29592 
L 331.019679 443.092454 
L 331.132514 442.497708 
L 331.817502 441.464729 
L 332.108029 441.308217 
L 332.214293 441.136054 
L 333.08318 440.290889 
L 333.205318 440.118726 
L 333.293818 440.087423 
L 333.817847 439.946562 
L 333.976308 439.79005 
L 334.216645 439.649189 
L 334.412844 439.492677 
L 334.558894 439.304863 
L 334.653509 438.944885 
L 335.714526 438.647513 
L 336.361227 438.162325 
L 337.35889 437.974511 
L 337.670457 437.473672 
L 337.842673 437.348463 
L 337.875595 437.160648 
L 338.139305 437.035439 
L 338.160777 436.972834 
L 338.719085 436.816322 
L 338.840965 436.612856 
L 338.935517 436.518949 
L 339.119436 436.39374 
L 339.277069 436.065064 
L 340.050234 435.376411 
L 340.428251 435.251202 
L 340.533932 435.09469 
L 340.714444 434.938178 
L 341.240951 434.296478 
L 341.405946 434.139966 
L 341.543755 434.06171 
L 342.34063 433.858245 
L 342.601299 433.560872 
L 342.613081 433.075685 
L 342.663285 432.919173 
L 342.821175 432.793963 
L 342.938535 432.653102 
L 343.652809 432.371381 
L 343.700535 431.933147 
L 343.991035 431.760984 
L 344.11172 431.682728 
L 345.259675 431.134936 
L 345.459504 431.009726 
L 345.568789 430.884516 
L 345.660648 430.728004 
L 345.713786 430.634097 
L 346.114937 430.446283 
L 346.252877 430.227166 
L 346.385941 430.101956 
L 346.492416 429.867188 
L 346.696478 429.710676 
L 347.154615 429.569816 
L 347.267612 429.428955 
L 347.554937 429.068977 
L 348.058683 428.615092 
L 348.315873 428.489883 
L 348.388455 428.442929 
L 348.800707 428.286417 
L 349.382278 427.942091 
L 349.614574 427.660369 
L 349.985431 427.425601 
L 350.160415 427.347345 
L 350.452239 426.971716 
L 350.565367 426.596087 
L 350.712071 426.330017 
L 350.825872 426.048295 
L 351.176821 425.281386 
L 351.29778 425.124874 
L 351.352127 424.827501 
L 351.453725 424.138849 
L 351.830537 423.966685 
L 351.9343 423.794522 
L 351.97386 423.622359 
L 352.094258 422.385914 
L 352.521262 421.462493 
L 352.59318 421.305981 
L 352.807148 420.319955 
L 353.008156 419.819117 
L 353.127183 419.036557 
L 353.630626 418.864394 
L 353.674255 418.723533 
L 353.864369 416.798435 
L 353.911102 416.391504 
L 354.056704 416.07848 
L 354.134594 415.937619 
L 354.261972 415.608944 
L 354.428483 415.468083 
L 354.799829 414.857686 
L 355.281622 414.591615 
L 355.393221 414.122079 
L 355.537778 413.965567 
L 356.070756 413.449078 
L 356.181421 413.323868 
L 356.366877 413.183007 
L 357.00224 412.948239 
L 357.057698 412.869983 
L 357.213083 412.744774 
L 357.336317 412.619564 
L 357.597347 412.322191 
L 357.693302 412.228284 
L 358.003486 412.056121 
L 358.044197 412.024818 
L 358.610342 411.883958 
L 358.77114 411.711794 
L 359.370718 411.101397 
L 359.650002 410.976188 
L 360.283749 410.788373 
L 361.548626 409.755394 
L 362.150562 409.598882 
L 362.245713 409.489324 
L 362.552735 409.301509 
L 362.715668 409.066741 
L 362.91966 408.941532 
L 362.970473 408.518949 
L 363.586156 408.331135 
L 363.725043 407.924203 
L 363.83935 407.329458 
L 364.107997 407.032085 
L 364.219621 406.828619 
L 364.371152 406.672107 
L 364.532969 406.437339 
L 364.613212 406.171269 
L 365.439764 405.842594 
L 365.630302 405.701733 
L 365.872058 405.52957 
L 366.006845 405.153941 
L 366.155978 404.966126 
L 366.267348 404.261822 
L 366.947637 404.011403 
L 367.044568 403.901845 
L 367.237918 403.745333 
L 367.778975 402.93147 
L 367.893794 402.774958 
L 367.955176 402.649748 
L 368.586634 402.430632 
L 368.709023 402.164561 
L 368.828387 402.008049 
L 368.927378 401.914142 
L 369.145857 401.741979 
L 369.270391 401.663723 
L 369.36814 401.522862 
L 369.482819 399.863835 
L 370.126046 398.971716 
L 370.220935 398.815204 
L 370.36748 398.549134 
L 370.470333 398.408273 
L 370.580838 398.126551 
L 370.745555 397.829178 
L 370.801691 397.657015 
L 370.912659 397.531805 
L 371.04153 397.281386 
L 371.209356 397.077921 
L 371.28077 396.858804 
L 371.967314 396.530129 
L 372.210709 395.403242 
L 372.344722 395.262381 
L 372.577466 393.5564 
L 372.704872 390.567021 
L 372.809809 390.410509 
L 373.008264 389.90967 
L 373.116492 389.768809 
L 374.073783 388.156736 
L 374.173226 387.95327 
L 374.327289 387.655897 
L 374.436372 387.483734 
L 374.466471 387.342873 
L 374.733931 386.748127 
L 374.989385 386.325545 
L 375.21993 385.449078 
L 375.328037 384.69782 
L 375.444973 384.525657 
L 375.540491 384.290889 
L 375.668418 384.071772 
L 375.765976 383.758748 
L 375.785387 383.602236 
L 375.877879 383.492677 
L 375.929052 383.336165 
L 376.028738 382.381442 
L 376.101049 382.256233 
L 376.244763 381.692789 
L 376.654181 381.598882 
L 376.813876 381.44237 
L 377.000456 380.706764 
L 377.065552 380.581554 
L 377.221303 380.080715 
L 377.331235 379.924203 
L 377.442372 379.501621 
L 377.535447 379.36076 
L 377.646836 379.000783 
L 377.72147 378.844271 
L 377.830271 378.468642 
L 378.047604 377.858245 
L 378.099334 377.717384 
L 378.20827 377.67043 
L 378.491987 377.40436 
L 378.603127 377.122638 
L 378.745197 376.950475 
L 378.830068 376.731358 
L 378.921034 376.590497 
L 379.044684 376.246171 
L 379.23913 376.042705 
L 379.282065 375.964449 
L 379.394857 375.83924 
L 379.509232 375.463611 
L 379.736362 375.401006 
L 380.308943 375.213192 
L 380.360876 375.166238 
L 380.630841 375.041029 
L 380.742479 374.915819 
L 380.880581 374.790609 
L 381.517834 374.430632 
L 381.762435 374.305422 
L 381.870709 374.117608 
L 382.083069 373.961096 
L 382.195301 373.804584 
L 382.806301 373.131582 
L 383.428036 372.990721 
L 383.951069 371.973393 
L 384.030079 371.80123 
L 384.190684 371.660369 
L 384.518864 371.28474 
L 385.069516 371.143879 
L 385.214986 370.909111 
L 385.429803 370.76825 
L 385.589514 370.486529 
L 385.713673 370.345668 
L 385.87267 370.220458 
L 385.972821 370.095249 
L 386.522606 369.782225 
L 386.728766 369.657015 
L 386.917094 369.297037 
L 387.14762 369.109223 
L 388.020364 367.997988 
L 388.375974 367.841476 
L 388.486187 367.544103 
L 388.800514 367.262381 
L 388.909688 367.137172 
L 389.127551 366.620682 
L 389.239315 366.33896 
L 389.635556 366.041587 
L 390.072442 365.838122 
L 390.432291 365.29033 
L 391.282115 364.523421 
L 391.73394 364.351258 
L 391.791991 364.25735 
L 391.963271 364.132141 
L 392.07797 363.959978 
L 392.314661 363.756512 
L 392.590298 363.302627 
L 392.724787 362.973952 
L 393.514116 362.394857 
L 393.837868 361.956624 
L 394.22298 361.627949 
L 394.338658 361.346227 
L 394.64556 360.986249 
L 394.794823 360.688876 
L 394.873914 360.548016 
L 394.947355 360.328899 
L 395.106883 360.172387 
L 395.231728 360.031526 
L 395.660352 359.108105 
L 395.758665 358.935942 
L 395.971332 358.325545 
L 396.191552 358.200335 
L 396.603678 358.059475 
L 397.058703 357.589939 
L 397.171495 357.48038 
L 397.852914 356.666518 
L 398.241368 356.494354 
L 398.343346 356.322191 
L 398.637259 355.91526 
L 398.750535 355.743097 
L 399.551977 354.866629 
L 399.637091 354.240581 
L 399.999921 354.005813 
L 400.149975 353.817999 
L 400.260503 353.677138 
L 400.380283 353.364114 
L 400.527905 353.1763 
L 400.623757 352.847624 
L 400.803155 352.706764 
L 401.31274 352.362437 
L 401.678385 352.221576 
L 402.114166 351.845947 
L 402.20644 351.705087 
L 402.348458 351.579877 
L 402.446312 351.329458 
L 403.751935 350.421688 
L 403.872243 350.249525 
L 404.225257 349.873896 
L 404.327358 349.748686 
L 404.93754 349.545221 
L 405.031767 349.373058 
L 405.211843 349.200894 
L 405.343395 348.981778 
L 405.546861 348.700056 
L 405.80884 348.183566 
L 405.924857 347.886193 
L 406.144134 347.792286 
L 406.511228 347.557518 
L 406.634566 347.416657 
L 406.98231 347.05668 
L 407.146228 346.743656 
L 407.33406 346.54019 
L 407.417218 346.368027 
L 407.566838 346.211515 
L 407.646968 346.101956 
L 408.21525 345.867188 
L 408.236342 345.695025 
L 408.346908 344.489883 
L 408.382753 344.161207 
L 408.48131 344.004695 
L 408.734537 343.597764 
L 408.870289 343.425601 
L 409.348088 342.862158 
L 409.919067 342.689994 
L 410.025475 342.095249 
L 410.189593 341.860481 
L 410.2934 341.703969 
L 410.495691 341.563108 
L 410.61805 341.281386 
L 410.972713 340.984013 
L 411.38753 340.796199 
L 411.533003 340.608385 
L 411.646134 340.514477 
L 412.485169 339.340637 
L 412.698933 339.184125 
L 413.134872 338.761543 
L 413.53966 338.166797 
L 413.650768 337.650307 
L 413.826741 337.29033 
L 414.063733 337.008608 
L 414.804912 336.805143 
L 414.894765 336.648631 
L 415.3042 336.273002 
L 415.462052 336.147792 
L 415.817456 335.740861 
L 415.877019 335.662605 
L 416.569422 335.427837 
L 416.75057 335.271325 
L 416.978917 335.099162 
L 417.507232 334.770486 
L 418.252704 334.332253 
L 418.541793 333.815763 
L 418.646642 333.51839 
L 419.905223 331.56199 
L 420.034472 331.280268 
L 420.14212 331.029849 
L 420.219181 330.998547 
L 420.387915 330.810732 
L 420.498055 330.622918 
L 420.605021 330.466406 
L 420.85807 330.122079 
L 420.916668 329.902963 
L 421.627978 329.683846 
L 421.902357 329.21431 
L 421.967366 329.0891 
L 422.081329 328.525657 
L 422.297737 328.134377 
L 423.373649 327.445724 
L 423.445016 326.788373 
L 423.558224 326.381442 
L 423.633029 326.240581 
L 424.730428 324.331135 
L 424.802416 324.174623 
L 424.962797 323.830296 
L 425.43121 323.282504 
L 425.515744 322.797317 
L 425.846968 322.515595 
L 426.010834 322.218222 
L 426.200111 322.077362 
L 426.32107 321.811291 
L 427.511264 319.432309 
L 427.992269 319.197541 
L 428.096027 319.05668 
L 428.111278 318.837563 
L 428.225478 317.663723 
L 428.483215 317.115931 
L 428.601259 316.959419 
L 429.126565 316.286417 
L 429.238318 316.176859 
L 429.411524 315.926439 
L 429.512859 315.112577 
L 429.767771 314.862158 
L 429.97954 314.596087 
L 430.678269 313.625713 
L 430.783151 313.437898 
L 430.814565 313.390945 
L 431.362389 313.234433 
L 431.507422 312.93706 
L 431.743725 312.655338 
L 432.550483 311.559754 
L 432.855585 311.418893 
L 432.939624 311.293684 
L 433.049736 310.198099 
L 433.37048 307.521744 
L 433.420107 307.365232 
L 433.530224 306.520067 
L 433.740254 305.267971 
L 433.850366 304.454108 
L 433.908696 304.062828 
L 434.014048 303.233315 
L 434.060571 302.842035 
L 434.170688 302.028172 
L 434.701219 300.995193 
L 434.811333 300.103074 
L 434.901422 299.758748 
L 435.011566 299.320514 
L 435.221755 298.569257 
L 435.321288 298.209279 
L 435.441984 297.661487 
L 435.473412 297.426719 
L 435.582091 296.65981 
L 435.66217 296.331135 
L 435.772287 295.204248 
L 436.763298 285.343991 
L 436.87341 284.217105 
L 436.993524 283.497149 
L 437.145003 282.886752 
L 437.676359 282.041587 
L 437.924039 281.885075 
L 438.326533 281.603354 
L 438.480995 281.478144 
L 438.800713 281.212074 
L 438.925274 280.961655 
L 439.005353 280.632979 
L 439.115476 279.99128 
L 439.185533 279.678256 
L 439.295648 279.255674 
L 439.345698 278.973952 
L 439.455813 278.613974 
L 439.525881 278.30095 
L 439.635996 277.800112 
L 439.696051 277.502739 
L 439.836653 276.422806 
L 439.946226 274.998547 
L 440.117266 274.529011 
L 440.446679 274.215987 
L 440.847102 273.762102 
L 441.248597 273.558636 
L 441.372901 273.276914 
L 441.607273 272.96389 
L 441.725133 272.619564 
L 441.89818 272.463052 
L 441.996739 272.212633 
L 443.116718 271.226607 
L 443.223867 271.117049 
L 443.45883 270.929234 
L 443.540684 270.772722 
L 443.609926 270.647513 
L 443.715998 270.365791 
L 444.000309 270.052767 
L 444.110426 269.927557 
L 444.507228 269.739743 
L 444.610877 269.598882 
L 444.721035 269.238904 
L 445.422258 268.65981 
L 445.546827 268.5346 
L 445.923244 268.315484 
L 446.082425 268.002459 
L 446.18152 267.75204 
L 446.908031 267.157295 
L 449.140278 263.870542 
L 449.650796 263.541867 
L 450.89193 262.101956 
L 451.122161 261.945444 
L 451.196701 261.898491 
L 451.581915 261.663723 
L 451.674667 261.585467 
L 451.872223 261.460257 
L 452.663737 260.834209 
L 452.873948 260.677697 
L 453.364632 260.082951 
L 453.560349 259.910788 
L 453.80093 259.425601 
L 454.560747 258.674343 
L 454.813537 258.23611 
L 454.9026 258.048295 
L 454.977758 257.970039 
L 455.246206 257.797876 
L 455.34631 257.484852 
L 455.647602 257.250084 
L 455.718838 257.20313 
L 456.079883 257.062269 
L 456.292598 256.796199 
L 456.645041 256.577082 
L 456.888846 256.279709 
L 457.038457 256.060593 
L 457.153973 255.872778 
L 457.232309 255.669312 
L 457.468276 255.528452 
L 458.843803 254.46417 
L 458.934666 254.135495 
L 459.502726 253.665959 
L 459.634261 253.149469 
L 459.725909 252.961655 
L 459.91902 252.523421 
L 460.571316 251.662605 
L 461.146414 251.443488 
L 461.360795 251.114813 
L 461.595747 250.94265 
L 461.662424 250.81744 
L 461.832599 250.69223 
L 461.937619 250.535718 
L 462.16294 250.285299 
L 462.262962 250.128787 
L 463.135758 249.894019 
L 463.326381 249.627949 
L 463.424073 249.502739 
L 463.529644 249.236669 
L 463.61426 249.064505 
L 463.69773 248.798435 
L 463.83482 248.626272 
L 463.964619 248.548016 
L 464.369174 248.313248 
L 464.881943 247.82806 
L 465.055434 247.515036 
L 465.405787 247.17071 
L 466.229467 246.529011 
L 466.318891 246.38815 
L 466.750753 246.028172 
L 466.869458 245.809055 
L 467.052529 245.668195 
L 467.337669 245.339519 
L 467.547942 245.167356 
L 468.665038 244.165679 
L 468.825696 243.883958 
L 469.279626 243.711794 
L 469.623298 243.336165 
L 470.159684 243.00749 
L 470.590908 242.537954 
L 470.952037 242.381442 
L 471.511581 241.896255 
L 471.863714 241.645836 
L 472.182529 241.285858 
L 472.382727 241.129346 
L 472.720417 240.831973 
L 472.829722 240.769368 
L 472.956955 240.628508 
L 473.062417 240.471996 
L 473.172991 240.346786 
L 474.074384 239.532923 
L 474.308559 239.376411 
L 475.075165 238.546898 
L 475.277814 238.202571 
L 475.36078 238.06171 
L 475.585569 237.686082 
L 475.925914 237.482616 
L 476.027427 236.840917 
L 476.116104 236.668753 
L 476.209035 236.590497 
L 476.386699 236.449637 
L 476.644961 236.183566 
L 476.83688 235.948798 
L 477.377426 235.307099 
L 477.702885 235.166238 
L 477.831441 235.025377 
L 479.546762 233.710676 
L 480.090059 233.209838 
L 480.196178 232.928116 
L 480.460443 232.662046 
L 480.630876 232.521185 
L 480.992065 232.349022 
L 481.804483 231.535159 
L 481.901182 231.378647 
L 482.762565 230.596087 
L 482.912717 230.517831 
L 483.20305 230.220458 
L 483.434802 230.032644 
L 483.549402 229.938737 
L 485.90703 227.966685 
L 486.048805 227.810173 
L 486.527761 227.309335 
L 486.597682 227.215428 
L 486.717262 227.074567 
L 486.810327 227.011962 
L 487.680037 226.573728 
L 487.832952 226.46417 
L 488.038067 226.323309 
L 488.178543 226.182448 
L 488.306033 226.07289 
L 488.595453 225.916378 
L 488.704482 225.822471 
L 489.247681 225.634656 
L 489.673389 225.352935 
L 489.845577 225.196423 
L 490.155895 224.883399 
L 490.997826 224.38256 
L 491.288898 224.053885 
L 491.58667 223.86607 
L 491.929808 223.412186 
L 492.257876 223.255674 
L 492.772097 222.723533 
L 492.904551 222.473113 
L 493.068729 222.30095 
L 493.200466 222.003577 
L 493.360016 221.831414 
L 493.60686 221.440134 
L 493.639289 221.189715 
L 494.059708 221.017552 
L 494.20986 220.86104 
L 494.315552 220.641923 
L 494.540354 220.454108 
L 494.613789 220.375852 
L 494.890554 220.172387 
L 494.990661 219.984572 
L 495.110706 219.749804 
L 495.220881 219.624595 
L 495.461034 219.374176 
L 495.551126 219.248966 
L 495.741401 219.014198 
L 495.996373 218.873337 
L 496.395674 218.575964 
L 496.918785 218.122079 
L 497.032643 217.99687 
L 497.152763 217.809055 
L 497.253168 217.652543 
L 498.634247 216.416098 
L 498.724246 216.322191 
L 499.146481 216.165679 
L 499.260085 216.071772 
L 499.932998 215.727446 
L 500.314579 215.257909 
L 500.409722 215.117049 
L 500.485892 215.023141 
L 500.839565 214.882281 
L 501.500715 214.459698 
L 502.079578 213.786696 
L 502.445496 213.614533 
L 502.681088 213.411068 
L 503.234466 213.035439 
L 503.48888 212.769368 
L 503.926653 212.503298 
L 504.297094 212.190274 
L 504.391231 212.049413 
L 504.889876 211.830296 
L 505.170161 211.548575 
L 505.570565 211.36076 
L 506.551041 210.468642 
L 506.65824 210.343432 
L 506.861665 210.124315 
L 507.044772 210.030408 
L 507.41198 209.858245 
L 507.522095 209.811291 
L 507.98256 209.623477 
L 508.365678 209.373058 
L 508.523122 209.200894 
L 508.603195 208.950475 
L 508.943549 208.74701 
L 509.912721 208.120961 
L 510.023008 207.886193 
L 510.124756 207.745333 
L 510.78026 207.291448 
L 510.881363 206.868865 
L 514.76681 203.989044 
L 514.849019 203.863835 
L 514.946736 203.722974 
L 515.126432 203.488206 
L 515.28791 203.362996 
L 515.998744 202.705646 
L 516.331313 202.37697 
L 516.535884 202.23611 
L 516.771427 202.001342 
L 517.000952 201.797876 
L 517.291252 201.641364 
L 517.693144 201.20313 
L 518.187033 200.827501 
L 518.352584 200.686641 
L 518.846821 200.42057 
L 518.940484 200.264058 
L 519.287292 200.076244 
L 519.7418 199.716266 
L 519.949123 199.497149 
L 520.177819 199.309335 
L 520.299467 199.231079 
L 520.68988 199.105869 
L 520.775768 198.98066 
L 521.079046 198.73024 
L 521.860954 197.791168 
L 522.437553 197.572051 
L 522.554885 197.415539 
L 522.675907 197.274679 
L 522.89554 197.008608 
L 523.148912 196.77384 
L 523.61349 196.429514 
L 524.105547 196.194746 
L 524.4337 195.756512 
L 524.543565 195.568698 
L 524.742762 195.33393 
L 524.990494 194.69223 
L 525.264021 194.473113 
L 525.39415 194.42616 
L 525.687691 194.253997 
L 525.799042 194.175741 
L 525.939994 194.019229 
L 526.613669 193.455785 
L 527.800626 192.626272 
L 527.864015 192.548016 
L 528.106636 192.360201 
L 528.198182 192.109782 
L 528.360511 191.937619 
L 528.436763 191.890665 
L 528.945526 191.671548 
L 529.039476 191.546339 
L 529.753422 191.029849 
L 530.023612 190.685523 
L 530.116955 190.638569 
L 530.733048 190.38815 
L 531.416302 189.699497 
L 531.491263 189.511683 
L 531.970348 189.245612 
L 532.076844 189.073449 
L 532.440894 188.82303 
L 533.177789 188.150028 
L 533.749763 187.711794 
L 534.046879 187.508329 
L 534.401053 187.148351 
L 534.51108 186.976188 
L 534.697282 186.804025 
L 534.93096 186.318837 
L 535.401251 186.037116 
L 535.628646 185.896255 
L 536.392022 185.254556 
L 536.637873 185.019788 
L 537.042666 184.878927 
L 537.465757 184.471996 
L 537.585821 184.315484 
L 537.618636 184.284181 
L 537.853527 184.127669 
L 537.953506 184.080715 
L 538.021936 183.955506 
L 538.143694 183.642482 
L 538.662898 183.251202 
L 538.898594 183.09469 
L 539.014616 182.985131 
L 539.074674 182.828619 
L 539.154971 182.719061 
L 539.422623 182.499944 
L 539.507485 182.249525 
L 539.605224 181.842594 
L 540.175198 181.373058 
L 540.223868 181.310453 
L 540.521793 181.185243 
L 540.996488 180.778312 
L 541.205682 180.590497 
L 541.306617 180.418334 
L 541.448524 180.23052 
L 541.576725 180.042705 
L 542.147159 179.71403 
L 542.651494 179.197541 
L 542.939576 178.994075 
L 543.147885 178.80626 
L 543.258243 178.728004 
L 543.628297 178.587144 
L 544.2499 178.14891 
L 544.609235 177.804584 
L 544.738828 177.616769 
L 545.557613 177.037675 
L 545.701355 176.818558 
L 545.868803 176.552487 
L 545.980783 176.45858 
L 546.243996 176.239463 
L 546.837574 175.769927 
L 547.26876 175.597764 
L 547.402103 175.472554 
L 547.517625 175.316042 
L 547.592222 175.081274 
L 547.867865 174.89346 
L 548.051896 174.689994 
L 548.723116 174.361319 
L 548.952693 174.157854 
L 549.06132 174.095249 
L 549.822161 173.84483 
L 551.296425 172.81185 
L 551.886699 171.982337 
L 552.180574 171.825824 
L 552.299993 171.700615 
L 552.394326 171.575405 
L 552.532716 171.481498 
L 552.869276 171.262381 
L 553.418079 170.902404 
L 553.860944 170.777194 
L 554.097233 170.605031 
L 554.305009 170.401565 
L 555.159877 169.462493 
L 555.530196 169.274679 
L 555.690079 169.071213 
L 556.861793 168.226048 
L 557.151672 168.069536 
L 557.53903 167.693907 
L 557.750739 167.506093 
L 557.914824 167.286976 
L 558.02641 167.130464 
L 558.131785 166.989603 
L 558.322661 166.864394 
L 558.642978 166.707881 
L 558.899706 166.488765 
L 559.141113 166.30095 
L 559.315845 166.144438 
L 559.471344 165.972275 
L 559.515796 165.768809 
L 559.603765 165.627949 
L 559.864024 165.455785 
L 560.154316 165.158413 
L 560.424038 164.970598 
L 560.53156 164.798435 
L 560.954519 164.46976 
L 561.895816 163.624595 
L 562.359437 163.452432 
L 562.58754 163.17071 
L 562.807427 162.982895 
L 562.984681 162.873337 
L 563.569414 162.403801 
L 563.847409 162.169033 
L 564.169895 161.902963 
L 565.015737 161.35517 
L 565.389961 161.167356 
L 565.629658 160.838681 
L 566.03519 160.447401 
L 566.272081 160.150028 
L 566.354706 159.946562 
L 567.329928 159.508329 
L 567.453778 159.367468 
L 568.2236 158.287535 
L 569.380707 157.56758 
L 569.471561 157.364114 
L 569.845088 157.1763 
L 570.065306 157.098044 
L 570.552338 156.92588 
L 571.021676 156.612856 
L 571.26641 156.39374 
L 572.523164 155.626831 
L 572.58476 155.548575 
L 572.742701 155.407714 
L 572.85342 155.172946 
L 572.998037 155.047736 
L 574.379363 154.108664 
L 574.729803 153.811291 
L 574.839836 153.576523 
L 575.120771 153.216546 
L 575.200191 153.169592 
L 575.336507 153.01308 
L 575.824425 152.543544 
L 576.000147 152.402683 
L 576.118314 152.214869 
L 576.241245 152.058357 
L 576.349393 151.917496 
L 577.133098 151.354053 
L 577.282342 151.275797 
L 577.443334 151.134936 
L 577.552062 150.947121 
L 577.75413 150.774958 
L 577.954177 150.524539 
L 578.122589 150.383678 
L 578.23071 150.305422 
L 578.452916 150.14891 
L 578.583051 149.976747 
L 578.803176 149.773281 
L 579.944348 148.818558 
L 580.24113 148.677697 
L 580.591757 148.395975 
L 580.698422 148.317719 
L 581.305481 147.644718 
L 581.974496 147.362996 
L 582.25957 147.081274 
L 582.350394 146.940414 
L 583.777105 145.046618 
L 583.857544 144.921409 
L 583.964574 144.827501 
L 584.145049 144.624036 
L 584.29085 144.357965 
L 584.585661 143.951034 
L 584.689162 143.810173 
L 585.218765 143.497149 
L 585.374073 143.387591 
L 585.764918 143.231079 
L 585.859454 143.12152 
L 586.172698 142.965008 
L 586.439808 142.745892 
L 586.761462 142.58938 
L 586.993611 142.417216 
L 587.181851 142.276356 
L 587.490771 142.010285 
L 587.600885 141.728563 
L 588.059455 141.478144 
L 588.541876 141.305981 
L 588.869061 140.946003 
L 589.120103 140.77384 
L 590.223373 139.772163 
L 590.30248 139.740861 
L 590.476419 139.584349 
L 590.597094 139.443488 
L 590.843729 139.177418 
L 591.023899 138.94265 
L 591.54429 138.660928 
L 591.830225 138.504416 
L 591.934695 138.379206 
L 592.12811 138.207043 
L 592.255641 138.081833 
L 592.488689 137.925321 
L 592.803317 137.549693 
L 592.905533 137.361878 
L 593.162334 137.221017 
L 595.78853 135.577641 
L 595.998763 135.421129 
L 596.078847 135.155059 
L 596.269065 134.77943 
L 596.439226 134.638569 
L 596.539355 134.497708 
L 596.768687 134.341196 
L 596.889618 134.247289 
L 597.280597 133.777753 
L 597.499374 133.621241 
L 597.890508 133.057798 
L 598.030648 132.995193 
L 598.442355 132.776076 
L 598.813902 132.447401 
L 599.121698 131.977865 
L 599.448593 131.617887 
L 599.894245 131.383119 
L 599.976473 131.320514 
L 600.114889 131.148351 
L 600.242481 131.023141 
L 600.478234 130.788373 
L 600.719763 130.61621 
L 600.806914 130.522303 
L 601.293291 130.146674 
L 601.364529 130.068418 
L 601.843795 129.896255 
L 601.943883 129.83365 
L 602.293199 129.583231 
L 602.414327 129.504975 
L 602.734705 129.238904 
L 603.295159 129.05109 
L 603.535263 128.863276 
L 604.094675 128.409391 
L 604.207314 128.26853 
L 604.375851 127.892901 
L 604.876395 127.579877 
L 607.482956 125.40436 
L 607.592885 125.294802 
L 611.311285 121.741979 
L 611.47223 121.601118 
L 611.572359 121.538513 
L 611.802598 121.350699 
L 612.122907 121.022023 
L 612.296728 120.865511 
L 612.436488 120.677697 
L 612.813518 120.411627 
L 613.24387 120.129905 
L 613.297684 120.0673 
L 613.532242 119.895137 
L 613.960398 119.488206 
L 614.067252 119.331694 
L 614.178368 118.877809 
L 614.554999 118.517831 
L 614.715164 118.470878 
L 614.891376 118.298714 
L 615.032741 118.079598 
L 615.310041 117.860481 
L 615.414349 117.735271 
L 615.642671 117.578759 
L 615.798327 117.422247 
L 616.036166 117.124874 
L 616.25639 116.968362 
L 616.606751 116.796199 
L 617.184285 116.373617 
L 617.438141 115.935383 
L 617.497929 115.716266 
L 617.647143 115.559754 
L 618.006842 115.356288 
L 618.198121 115.215428 
L 618.455502 115.011962 
L 618.608534 114.886752 
L 618.668519 114.777194 
L 618.884563 114.620682 
L 619.094273 114.354612 
L 619.792307 113.728563 
L 619.903792 113.259027 
L 620.018162 113.180771 
L 620.368928 113.039911 
L 620.600321 112.89905 
L 620.736555 112.695584 
L 620.796567 112.632979 
L 621.98156 112.241699 
L 622.051524 112.163443 
L 622.281709 111.975629 
L 622.426547 111.772163 
L 622.6319 111.631302 
L 622.636364 111.6 
L 622.636364 111.6 
" style="fill:none;stroke:#92c6ff;stroke-linecap:round;stroke-width:1.5;"/>
   </g>
   <g id="line2d_28">
    <defs>
     <path d="M 0 2.5 
C 0.663008 2.5 1.29895 2.236584 1.767767 1.767767 
C 2.236584 1.29895 2.5 0.663008 2.5 0 
C 2.5 -0.663008 2.236584 -1.29895 1.767767 -1.767767 
C 1.29895 -2.236584 0.663008 -2.5 0 -2.5 
C -0.663008 -2.5 -1.29895 -2.236584 -1.767767 -1.767767 
C -2.236584 -1.29895 -2.5 -0.663008 -2.5 0 
C -2.5 0.663008 -2.236584 1.29895 -1.767767 1.767767 
C -1.29895 2.236584 -0.663008 2.5 0 2.5 
z
" id="m1ec052430d" style="stroke:#696969;"/>
    </defs>
    <g clip-path="url(#p04883b26e6)">
     <use style="fill:#696969;stroke:#696969;" x="115.363636" xlink:href="#m1ec052430d" y="615.6"/>
    </g>
   </g>
   <g id="line2d_29">
    <g clip-path="url(#p04883b26e6)">
     <use style="fill:#696969;stroke:#696969;" x="219.969918" xlink:href="#m1ec052430d" y="565.187479"/>
    </g>
   </g>
   <g id="line2d_30">
    <g clip-path="url(#p04883b26e6)">
     <use style="fill:#696969;stroke:#696969;" x="277.087564" xlink:href="#m1ec052430d" y="514.774958"/>
    </g>
   </g>
   <g id="line2d_31">
    <g clip-path="url(#p04883b26e6)">
     <use style="fill:#696969;stroke:#696969;" x="317.793854" xlink:href="#m1ec052430d" y="464.362437"/>
    </g>
   </g>
   <g id="line2d_32">
    <g clip-path="url(#p04883b26e6)">
     <use style="fill:#696969;stroke:#696969;" x="355.537778" xlink:href="#m1ec052430d" y="413.965567"/>
    </g>
   </g>
   <g id="line2d_33">
    <g clip-path="url(#p04883b26e6)">
     <use style="fill:#696969;stroke:#696969;" x="392.469747" xlink:href="#m1ec052430d" y="363.568698"/>
    </g>
   </g>
   <g id="line2d_34">
    <g clip-path="url(#p04883b26e6)">
     <use style="fill:#696969;stroke:#696969;" x="431.400868" xlink:href="#m1ec052430d" y="313.171828"/>
    </g>
   </g>
   <g id="line2d_35">
    <g clip-path="url(#p04883b26e6)">
     <use style="fill:#696969;stroke:#696969;" x="450.321488" xlink:href="#m1ec052430d" y="262.774958"/>
    </g>
   </g>
   <g id="line2d_36">
    <g clip-path="url(#p04883b26e6)">
     <use style="fill:#696969;stroke:#696969;" x="504.139128" xlink:href="#m1ec052430d" y="212.378088"/>
    </g>
   </g>
   <g id="line2d_37">
    <g clip-path="url(#p04883b26e6)">
     <use style="fill:#696969;stroke:#696969;" x="564.144257" xlink:href="#m1ec052430d" y="161.981219"/>
    </g>
   </g>
   <g id="line2d_38">
    <g clip-path="url(#p04883b26e6)">
     <use style="fill:#696969;stroke:#696969;" x="622.636364" xlink:href="#m1ec052430d" y="111.6"/>
    </g>
   </g>
   <g id="patch_3">
    <path d="M 90 640.8 
L 90 86.4 
" style="fill:none;stroke:#cccccc;stroke-linecap:square;stroke-linejoin:miter;"/>
   </g>
   <g id="patch_4">
    <path d="M 648 640.8 
L 648 86.4 
" style="fill:none;stroke:#cccccc;stroke-linecap:square;stroke-linejoin:miter;"/>
   </g>
   <g id="patch_5">
    <path d="M 90 640.8 
L 648 640.8 
" style="fill:none;stroke:#cccccc;stroke-linecap:square;stroke-linejoin:miter;"/>
   </g>
   <g id="patch_6">
    <path d="M 90 86.4 
L 648 86.4 
" style="fill:none;stroke:#cccccc;stroke-linecap:square;stroke-linejoin:miter;"/>
   </g>
   <g id="text_14">
    <!-- 1 (2014-06-09) -->
    <defs>
     <path id="LiberationSans-32"/>
     <path d="M 6.203125 25.984375 
Q 6.203125 32.765625 7.21875 38.96875 
Q 8.25 45.171875 10.4375 50.875 
Q 12.640625 56.59375 16.0625 61.953125 
Q 19.484375 67.328125 24.21875 72.46875 
L 32.71875 72.46875 
Q 28.125 67.328125 24.78125 61.9375 
Q 21.4375 56.546875 19.28125 50.796875 
Q 17.140625 45.0625 16.09375 38.859375 
Q 15.046875 32.671875 15.046875 25.875 
Q 15.046875 19.09375 16.09375 12.890625 
Q 17.140625 6.6875 19.28125 0.921875 
Q 21.4375 -4.828125 24.78125 -10.203125 
Q 28.125 -15.578125 32.71875 -20.703125 
L 24.21875 -20.703125 
Q 19.484375 -15.578125 16.0625 -10.203125 
Q 12.640625 -4.828125 10.4375 0.875 
Q 8.25 6.59375 7.21875 12.765625 
Q 6.203125 18.953125 6.203125 25.78125 
z
" id="LiberationSans-40"/>
     <path d="M 43.015625 15.578125 
L 43.015625 0 
L 34.71875 0 
L 34.71875 15.578125 
L 2.296875 15.578125 
L 2.296875 22.40625 
L 33.796875 68.796875 
L 43.015625 68.796875 
L 43.015625 22.515625 
L 52.6875 22.515625 
L 52.6875 15.578125 
z
M 34.71875 58.890625 
Q 34.625 58.640625 34.234375 57.9375 
Q 33.84375 57.234375 33.34375 56.34375 
Q 32.859375 55.46875 32.34375 54.5625 
Q 31.84375 53.65625 31.453125 53.078125 
L 13.8125 27.09375 
Q 13.578125 26.703125 13.109375 26.0625 
Q 12.640625 25.4375 12.15625 24.78125 
Q 11.671875 24.125 11.171875 23.484375 
Q 10.6875 22.859375 10.40625 22.515625 
L 34.71875 22.515625 
z
" id="LiberationSans-52"/>
     <path d="M 4.4375 22.65625 
L 4.4375 30.46875 
L 28.859375 30.46875 
L 28.859375 22.65625 
z
" id="LiberationSans-45"/>
     <path d="M 27.09375 25.78125 
Q 27.09375 18.953125 26.0625 12.765625 
Q 25.046875 6.59375 22.84375 0.875 
Q 20.65625 -4.828125 17.234375 -10.203125 
Q 13.8125 -15.578125 9.078125 -20.703125 
L 0.59375 -20.703125 
Q 5.171875 -15.578125 8.515625 -10.203125 
Q 11.859375 -4.828125 14 0.921875 
Q 16.15625 6.6875 17.203125 12.890625 
Q 18.265625 19.09375 18.265625 25.875 
Q 18.265625 32.671875 17.203125 38.859375 
Q 16.15625 45.0625 14 50.796875 
Q 11.859375 56.546875 8.515625 61.9375 
Q 5.171875 67.328125 0.59375 72.46875 
L 9.078125 72.46875 
Q 13.8125 67.328125 17.234375 61.953125 
Q 20.65625 56.59375 22.84375 50.875 
Q 25.046875 45.171875 26.0625 38.96875 
Q 27.09375 32.765625 27.09375 25.984375 
z
" id="LiberationSans-41"/>
    </defs>
    <g style="fill:#262626;" transform="translate(120.363636 622.846875)scale(0.1 -0.1)">
     <use xlink:href="#LiberationSans-49"/>
     <use x="55.615234" xlink:href="#LiberationSans-32"/>
     <use x="83.398438" xlink:href="#LiberationSans-40"/>
     <use x="116.699219" xlink:href="#LiberationSans-50"/>
     <use x="172.314453" xlink:href="#LiberationSans-48"/>
     <use x="227.929688" xlink:href="#LiberationSans-49"/>
     <use x="283.544922" xlink:href="#LiberationSans-52"/>
     <use x="339.160156" xlink:href="#LiberationSans-45"/>
     <use x="372.460938" xlink:href="#LiberationSans-48"/>
     <use x="428.076172" xlink:href="#LiberationSans-54"/>
     <use x="483.691406" xlink:href="#LiberationSans-45"/>
     <use x="516.992188" xlink:href="#LiberationSans-48"/>
     <use x="572.607422" xlink:href="#LiberationSans-57"/>
     <use x="628.222656" xlink:href="#LiberationSans-41"/>
    </g>
   </g>
   <g id="text_15">
    <!-- 3222 (2015-08-25) -->
    <g style="fill:#262626;" transform="translate(224.969918 572.434354)scale(0.1 -0.1)">
     <use xlink:href="#LiberationSans-51"/>
     <use x="55.615234" xlink:href="#LiberationSans-50"/>
     <use x="111.230469" xlink:href="#LiberationSans-50"/>
     <use x="166.845703" xlink:href="#LiberationSans-50"/>
     <use x="222.460938" xlink:href="#LiberationSans-32"/>
     <use x="250.244141" xlink:href="#LiberationSans-40"/>
     <use x="283.544922" xlink:href="#LiberationSans-50"/>
     <use x="339.160156" xlink:href="#LiberationSans-48"/>
     <use x="394.775391" xlink:href="#LiberationSans-49"/>
     <use x="450.390625" xlink:href="#LiberationSans-53"/>
     <use x="506.005859" xlink:href="#LiberationSans-45"/>
     <use x="539.306641" xlink:href="#LiberationSans-48"/>
     <use x="594.921875" xlink:href="#LiberationSans-56"/>
     <use x="650.537109" xlink:href="#LiberationSans-45"/>
     <use x="683.837891" xlink:href="#LiberationSans-50"/>
     <use x="739.453125" xlink:href="#LiberationSans-53"/>
     <use x="795.068359" xlink:href="#LiberationSans-41"/>
    </g>
   </g>
   <g id="text_16">
    <!-- 6443 (2016-04-23) -->
    <g style="fill:#262626;" transform="translate(282.087564 522.021833)scale(0.1 -0.1)">
     <use xlink:href="#LiberationSans-54"/>
     <use x="55.615234" xlink:href="#LiberationSans-52"/>
     <use x="111.230469" xlink:href="#LiberationSans-52"/>
     <use x="166.845703" xlink:href="#LiberationSans-51"/>
     <use x="222.460938" xlink:href="#LiberationSans-32"/>
     <use x="250.244141" xlink:href="#LiberationSans-40"/>
     <use x="283.544922" xlink:href="#LiberationSans-50"/>
     <use x="339.160156" xlink:href="#LiberationSans-48"/>
     <use x="394.775391" xlink:href="#LiberationSans-49"/>
     <use x="450.390625" xlink:href="#LiberationSans-54"/>
     <use x="506.005859" xlink:href="#LiberationSans-45"/>
     <use x="539.306641" xlink:href="#LiberationSans-48"/>
     <use x="594.921875" xlink:href="#LiberationSans-52"/>
     <use x="650.537109" xlink:href="#LiberationSans-45"/>
     <use x="683.837891" xlink:href="#LiberationSans-50"/>
     <use x="739.453125" xlink:href="#LiberationSans-51"/>
     <use x="795.068359" xlink:href="#LiberationSans-41"/>
    </g>
   </g>
   <g id="text_17">
    <!-- 9664 (2016-10-12) -->
    <g style="fill:#262626;" transform="translate(322.793854 471.609312)scale(0.1 -0.1)">
     <use xlink:href="#LiberationSans-57"/>
     <use x="55.615234" xlink:href="#LiberationSans-54"/>
     <use x="111.230469" xlink:href="#LiberationSans-54"/>
     <use x="166.845703" xlink:href="#LiberationSans-52"/>
     <use x="222.460938" xlink:href="#LiberationSans-32"/>
     <use x="250.244141" xlink:href="#LiberationSans-40"/>
     <use x="283.544922" xlink:href="#LiberationSans-50"/>
     <use x="339.160156" xlink:href="#LiberationSans-48"/>
     <use x="394.775391" xlink:href="#LiberationSans-49"/>
     <use x="450.390625" xlink:href="#LiberationSans-54"/>
     <use x="506.005859" xlink:href="#LiberationSans-45"/>
     <use x="539.306641" xlink:href="#LiberationSans-49"/>
     <use x="594.921875" xlink:href="#LiberationSans-48"/>
     <use x="650.537109" xlink:href="#LiberationSans-45"/>
     <use x="683.837891" xlink:href="#LiberationSans-49"/>
     <use x="739.453125" xlink:href="#LiberationSans-50"/>
     <use x="795.068359" xlink:href="#LiberationSans-41"/>
    </g>
   </g>
   <g id="text_18">
    <!-- 12884 (2017-03-21) -->
    <g style="fill:#262626;" transform="translate(360.537778 421.212442)scale(0.1 -0.1)">
     <use xlink:href="#LiberationSans-49"/>
     <use x="55.615234" xlink:href="#LiberationSans-50"/>
     <use x="111.230469" xlink:href="#LiberationSans-56"/>
     <use x="166.845703" xlink:href="#LiberationSans-56"/>
     <use x="222.460938" xlink:href="#LiberationSans-52"/>
     <use x="278.076172" xlink:href="#LiberationSans-32"/>
     <use x="305.859375" xlink:href="#LiberationSans-40"/>
     <use x="339.160156" xlink:href="#LiberationSans-50"/>
     <use x="394.775391" xlink:href="#LiberationSans-48"/>
     <use x="450.390625" xlink:href="#LiberationSans-49"/>
     <use x="506.005859" xlink:href="#LiberationSans-55"/>
     <use x="561.621094" xlink:href="#LiberationSans-45"/>
     <use x="594.921875" xlink:href="#LiberationSans-48"/>
     <use x="650.537109" xlink:href="#LiberationSans-51"/>
     <use x="706.152344" xlink:href="#LiberationSans-45"/>
     <use x="739.453125" xlink:href="#LiberationSans-50"/>
     <use x="795.068359" xlink:href="#LiberationSans-49"/>
     <use x="850.683594" xlink:href="#LiberationSans-41"/>
    </g>
   </g>
   <g id="text_19">
    <!-- 16104 (2017-08-24) -->
    <g style="fill:#262626;" transform="translate(397.469747 370.815573)scale(0.1 -0.1)">
     <use xlink:href="#LiberationSans-49"/>
     <use x="55.615234" xlink:href="#LiberationSans-54"/>
     <use x="111.230469" xlink:href="#LiberationSans-49"/>
     <use x="166.845703" xlink:href="#LiberationSans-48"/>
     <use x="222.460938" xlink:href="#LiberationSans-52"/>
     <use x="278.076172" xlink:href="#LiberationSans-32"/>
     <use x="305.859375" xlink:href="#LiberationSans-40"/>
     <use x="339.160156" xlink:href="#LiberationSans-50"/>
     <use x="394.775391" xlink:href="#LiberationSans-48"/>
     <use x="450.390625" xlink:href="#LiberationSans-49"/>
     <use x="506.005859" xlink:href="#LiberationSans-55"/>
     <use x="561.621094" xlink:href="#LiberationSans-45"/>
     <use x="594.921875" xlink:href="#LiberationSans-48"/>
     <use x="650.537109" xlink:href="#LiberationSans-56"/>
     <use x="706.152344" xlink:href="#LiberationSans-45"/>
     <use x="739.453125" xlink:href="#LiberationSans-50"/>
     <use x="795.068359" xlink:href="#LiberationSans-52"/>
     <use x="850.683594" xlink:href="#LiberationSans-41"/>
    </g>
   </g>
   <g id="text_20">
    <!-- 19324 (2018-02-05) -->
    <g style="fill:#262626;" transform="translate(436.400868 320.418703)scale(0.1 -0.1)">
     <use xlink:href="#LiberationSans-49"/>
     <use x="55.615234" xlink:href="#LiberationSans-57"/>
     <use x="111.230469" xlink:href="#LiberationSans-51"/>
     <use x="166.845703" xlink:href="#LiberationSans-50"/>
     <use x="222.460938" xlink:href="#LiberationSans-52"/>
     <use x="278.076172" xlink:href="#LiberationSans-32"/>
     <use x="305.859375" xlink:href="#LiberationSans-40"/>
     <use x="339.160156" xlink:href="#LiberationSans-50"/>
     <use x="394.775391" xlink:href="#LiberationSans-48"/>
     <use x="450.390625" xlink:href="#LiberationSans-49"/>
     <use x="506.005859" xlink:href="#LiberationSans-56"/>
     <use x="561.621094" xlink:href="#LiberationSans-45"/>
     <use x="594.921875" xlink:href="#LiberationSans-48"/>
     <use x="650.537109" xlink:href="#LiberationSans-50"/>
     <use x="706.152344" xlink:href="#LiberationSans-45"/>
     <use x="739.453125" xlink:href="#LiberationSans-48"/>
     <use x="795.068359" xlink:href="#LiberationSans-53"/>
     <use x="850.683594" xlink:href="#LiberationSans-41"/>
    </g>
   </g>
   <g id="text_21">
    <!-- 22544 (2018-04-26) -->
    <g style="fill:#262626;" transform="translate(455.321488 270.021833)scale(0.1 -0.1)">
     <use xlink:href="#LiberationSans-50"/>
     <use x="55.615234" xlink:href="#LiberationSans-50"/>
     <use x="111.230469" xlink:href="#LiberationSans-53"/>
     <use x="166.845703" xlink:href="#LiberationSans-52"/>
     <use x="222.460938" xlink:href="#LiberationSans-52"/>
     <use x="278.076172" xlink:href="#LiberationSans-32"/>
     <use x="305.859375" xlink:href="#LiberationSans-40"/>
     <use x="339.160156" xlink:href="#LiberationSans-50"/>
     <use x="394.775391" xlink:href="#LiberationSans-48"/>
     <use x="450.390625" xlink:href="#LiberationSans-49"/>
     <use x="506.005859" xlink:href="#LiberationSans-56"/>
     <use x="561.621094" xlink:href="#LiberationSans-45"/>
     <use x="594.921875" xlink:href="#LiberationSans-48"/>
     <use x="650.537109" xlink:href="#LiberationSans-52"/>
     <use x="706.152344" xlink:href="#LiberationSans-45"/>
     <use x="739.453125" xlink:href="#LiberationSans-50"/>
     <use x="795.068359" xlink:href="#LiberationSans-54"/>
     <use x="850.683594" xlink:href="#LiberationSans-41"/>
    </g>
   </g>
   <g id="text_22">
    <!-- 25764 (2018-12-10) -->
    <g style="fill:#262626;" transform="translate(509.139128 219.624963)scale(0.1 -0.1)">
     <use xlink:href="#LiberationSans-50"/>
     <use x="55.615234" xlink:href="#LiberationSans-53"/>
     <use x="111.230469" xlink:href="#LiberationSans-55"/>
     <use x="166.845703" xlink:href="#LiberationSans-54"/>
     <use x="222.460938" xlink:href="#LiberationSans-52"/>
     <use x="278.076172" xlink:href="#LiberationSans-32"/>
     <use x="305.859375" xlink:href="#LiberationSans-40"/>
     <use x="339.160156" xlink:href="#LiberationSans-50"/>
     <use x="394.775391" xlink:href="#LiberationSans-48"/>
     <use x="450.390625" xlink:href="#LiberationSans-49"/>
     <use x="506.005859" xlink:href="#LiberationSans-56"/>
     <use x="561.621094" xlink:href="#LiberationSans-45"/>
     <use x="594.921875" xlink:href="#LiberationSans-49"/>
     <use x="650.537109" xlink:href="#LiberationSans-50"/>
     <use x="706.152344" xlink:href="#LiberationSans-45"/>
     <use x="739.453125" xlink:href="#LiberationSans-49"/>
     <use x="795.068359" xlink:href="#LiberationSans-48"/>
     <use x="850.683594" xlink:href="#LiberationSans-41"/>
    </g>
   </g>
   <g id="text_23">
    <!-- 28984 (2019-08-21) -->
    <g style="fill:#262626;" transform="translate(569.144257 169.228094)scale(0.1 -0.1)">
     <use xlink:href="#LiberationSans-50"/>
     <use x="55.615234" xlink:href="#LiberationSans-56"/>
     <use x="111.230469" xlink:href="#LiberationSans-57"/>
     <use x="166.845703" xlink:href="#LiberationSans-56"/>
     <use x="222.460938" xlink:href="#LiberationSans-52"/>
     <use x="278.076172" xlink:href="#LiberationSans-32"/>
     <use x="305.859375" xlink:href="#LiberationSans-40"/>
     <use x="339.160156" xlink:href="#LiberationSans-50"/>
     <use x="394.775391" xlink:href="#LiberationSans-48"/>
     <use x="450.390625" xlink:href="#LiberationSans-49"/>
     <use x="506.005859" xlink:href="#LiberationSans-57"/>
     <use x="561.621094" xlink:href="#LiberationSans-45"/>
     <use x="594.921875" xlink:href="#LiberationSans-48"/>
     <use x="650.537109" xlink:href="#LiberationSans-56"/>
     <use x="706.152344" xlink:href="#LiberationSans-45"/>
     <use x="739.453125" xlink:href="#LiberationSans-50"/>
     <use x="795.068359" xlink:href="#LiberationSans-49"/>
     <use x="850.683594" xlink:href="#LiberationSans-41"/>
    </g>
   </g>
   <g id="text_24">
    <!-- 32203 (2020-04-24) -->
    <g style="fill:#262626;" transform="translate(627.636364 118.846875)scale(0.1 -0.1)">
     <use xlink:href="#LiberationSans-51"/>
     <use x="55.615234" xlink:href="#LiberationSans-50"/>
     <use x="111.230469" xlink:href="#LiberationSans-50"/>
     <use x="166.845703" xlink:href="#LiberationSans-48"/>
     <use x="222.460938" xlink:href="#LiberationSans-51"/>
     <use x="278.076172" xlink:href="#LiberationSans-32"/>
     <use x="305.859375" xlink:href="#LiberationSans-40"/>
     <use x="339.160156" xlink:href="#LiberationSans-50"/>
     <use x="394.775391" xlink:href="#LiberationSans-48"/>
     <use x="450.390625" xlink:href="#LiberationSans-50"/>
     <use x="506.005859" xlink:href="#LiberationSans-48"/>
     <use x="561.621094" xlink:href="#LiberationSans-45"/>
     <use x="594.921875" xlink:href="#LiberationSans-48"/>
     <use x="650.537109" xlink:href="#LiberationSans-52"/>
     <use x="706.152344" xlink:href="#LiberationSans-45"/>
     <use x="739.453125" xlink:href="#LiberationSans-50"/>
     <use x="795.068359" xlink:href="#LiberationSans-52"/>
     <use x="850.683594" xlink:href="#LiberationSans-41"/>
    </g>
   </g>
   <g id="text_25">
    <!-- Closed issues over time -->
    <defs>
     <path d="M 38.671875 62.203125 
Q 32.8125 62.203125 28.296875 60.25 
Q 23.78125 58.296875 20.71875 54.6875 
Q 17.671875 51.078125 16.109375 46 
Q 14.546875 40.921875 14.546875 34.71875 
Q 14.546875 28.515625 16.234375 23.359375 
Q 17.921875 18.21875 21.0625 14.5 
Q 24.21875 10.796875 28.78125 8.734375 
Q 33.34375 6.6875 39.0625 6.6875 
Q 43.0625 6.6875 46.359375 7.734375 
Q 49.65625 8.796875 52.3125 10.6875 
Q 54.984375 12.59375 57.078125 15.203125 
Q 59.1875 17.828125 60.796875 21 
L 68.40625 17.1875 
Q 66.546875 13.328125 63.8125 10 
Q 61.078125 6.6875 57.390625 4.25 
Q 53.71875 1.8125 49.046875 0.40625 
Q 44.390625 -0.984375 38.625 -0.984375 
Q 30.28125 -0.984375 24 1.671875 
Q 17.71875 4.34375 13.5 9.109375 
Q 9.28125 13.875 7.171875 20.40625 
Q 5.078125 26.953125 5.078125 34.71875 
Q 5.078125 42.78125 7.296875 49.265625 
Q 9.515625 55.765625 13.78125 60.328125 
Q 18.0625 64.890625 24.3125 67.359375 
Q 30.5625 69.828125 38.578125 69.828125 
Q 49.5625 69.828125 56.9375 65.53125 
Q 64.3125 61.234375 67.78125 52.78125 
L 58.9375 49.859375 
Q 57.953125 52.296875 56.296875 54.515625 
Q 54.640625 56.734375 52.140625 58.4375 
Q 49.65625 60.15625 46.3125 61.171875 
Q 42.96875 62.203125 38.671875 62.203125 
z
" id="LiberationSans-67"/>
     <path d="M 6.734375 0 
L 6.734375 72.46875 
L 15.53125 72.46875 
L 15.53125 0 
z
" id="LiberationSans-108"/>
     <path d="M 51.421875 26.46875 
Q 51.421875 12.59375 45.3125 5.796875 
Q 39.203125 -0.984375 27.59375 -0.984375 
Q 22.078125 -0.984375 17.71875 0.671875 
Q 13.375 2.34375 10.375 5.765625 
Q 7.375 9.1875 5.78125 14.328125 
Q 4.203125 19.484375 4.203125 26.46875 
Q 4.203125 53.8125 27.875 53.8125 
Q 34.03125 53.8125 38.5 52.09375 
Q 42.96875 50.390625 45.828125 46.96875 
Q 48.6875 43.5625 50.046875 38.421875 
Q 51.421875 33.296875 51.421875 26.46875 
z
M 42.1875 26.46875 
Q 42.1875 32.625 41.234375 36.625 
Q 40.28125 40.625 38.453125 43.015625 
Q 36.625 45.40625 33.984375 46.359375 
Q 31.34375 47.3125 28.03125 47.3125 
Q 24.65625 47.3125 21.9375 46.3125 
Q 19.234375 45.3125 17.328125 42.890625 
Q 15.4375 40.484375 14.421875 36.46875 
Q 13.421875 32.46875 13.421875 26.46875 
Q 13.421875 20.3125 14.5 16.28125 
Q 15.578125 12.25 17.453125 9.859375 
Q 19.34375 7.46875 21.90625 6.484375 
Q 24.46875 5.515625 27.484375 5.515625 
Q 30.859375 5.515625 33.59375 6.46875 
Q 36.328125 7.421875 38.234375 9.8125 
Q 40.140625 12.203125 41.15625 16.25 
Q 42.1875 20.3125 42.1875 26.46875 
z
" id="LiberationSans-111"/>
     <path d="M 46.390625 14.59375 
Q 46.390625 10.890625 44.9375 7.984375 
Q 43.5 5.078125 40.765625 3.09375 
Q 38.03125 1.125 34.046875 0.0625 
Q 30.078125 -0.984375 24.953125 -0.984375 
Q 20.359375 -0.984375 16.671875 -0.265625 
Q 12.984375 0.4375 10.203125 2 
Q 7.421875 3.5625 5.53125 6.125 
Q 3.65625 8.6875 2.78125 12.40625 
L 10.546875 13.921875 
Q 11.671875 9.671875 15.1875 7.6875 
Q 18.703125 5.71875 24.953125 5.71875 
Q 27.78125 5.71875 30.140625 6.109375 
Q 32.515625 6.5 34.21875 7.453125 
Q 35.9375 8.40625 36.890625 9.984375 
Q 37.84375 11.578125 37.84375 13.921875 
Q 37.84375 16.3125 36.71875 17.84375 
Q 35.59375 19.390625 33.59375 20.40625 
Q 31.59375 21.4375 28.734375 22.1875 
Q 25.875 22.953125 22.46875 23.875 
Q 19.28125 24.703125 16.15625 25.734375 
Q 13.03125 26.765625 10.515625 28.4375 
Q 8.015625 30.125 6.453125 32.609375 
Q 4.890625 35.109375 4.890625 38.875 
Q 4.890625 46.09375 10.03125 49.875 
Q 15.1875 53.65625 25.046875 53.65625 
Q 33.796875 53.65625 38.9375 50.578125 
Q 44.09375 47.515625 45.453125 40.71875 
L 37.546875 39.75 
Q 37.109375 41.796875 35.9375 43.1875 
Q 34.765625 44.578125 33.109375 45.4375 
Q 31.453125 46.296875 29.375 46.65625 
Q 27.296875 47.015625 25.046875 47.015625 
Q 19.09375 47.015625 16.25 45.203125 
Q 13.421875 43.40625 13.421875 39.75 
Q 13.421875 37.59375 14.46875 36.203125 
Q 15.53125 34.8125 17.40625 33.859375 
Q 19.28125 32.90625 21.921875 32.203125 
Q 24.5625 31.5 27.734375 30.71875 
Q 29.828125 30.171875 32.03125 29.5625 
Q 34.234375 28.953125 36.296875 28.09375 
Q 38.375 27.25 40.203125 26.09375 
Q 42.046875 24.953125 43.40625 23.34375 
Q 44.78125 21.734375 45.578125 19.578125 
Q 46.390625 17.4375 46.390625 14.59375 
z
" id="LiberationSans-115"/>
     <path d="M 13.484375 24.5625 
Q 13.484375 20.40625 14.328125 16.90625 
Q 15.1875 13.421875 16.96875 10.90625 
Q 18.75 8.40625 21.53125 7 
Q 24.3125 5.609375 28.21875 5.609375 
Q 33.9375 5.609375 37.375 7.90625 
Q 40.828125 10.203125 42.046875 13.71875 
L 49.75 11.53125 
Q 48.921875 9.328125 47.4375 7.109375 
Q 45.953125 4.890625 43.453125 3.09375 
Q 40.96875 1.3125 37.234375 0.15625 
Q 33.5 -0.984375 28.21875 -0.984375 
Q 16.5 -0.984375 10.375 6 
Q 4.25 12.984375 4.25 26.765625 
Q 4.25 34.1875 6.09375 39.328125 
Q 7.953125 44.484375 11.171875 47.703125 
Q 14.40625 50.921875 18.703125 52.359375 
Q 23 53.8125 27.875 53.8125 
Q 34.515625 53.8125 38.984375 51.65625 
Q 43.453125 49.515625 46.15625 45.71875 
Q 48.875 41.9375 50.015625 36.8125 
Q 51.171875 31.6875 51.171875 25.734375 
L 51.171875 24.5625 
z
M 42.09375 31.296875 
Q 41.359375 39.65625 37.84375 43.484375 
Q 34.328125 47.3125 27.734375 47.3125 
Q 25.53125 47.3125 23.109375 46.609375 
Q 20.703125 45.90625 18.65625 44.09375 
Q 16.609375 42.28125 15.1875 39.171875 
Q 13.765625 36.078125 13.578125 31.296875 
z
" id="LiberationSans-101"/>
     <path d="M 40.09375 8.5 
Q 37.640625 3.421875 33.609375 1.21875 
Q 29.59375 -0.984375 23.640625 -0.984375 
Q 13.625 -0.984375 8.90625 5.75 
Q 4.203125 12.5 4.203125 26.171875 
Q 4.203125 53.8125 23.640625 53.8125 
Q 29.640625 53.8125 33.640625 51.609375 
Q 37.640625 49.421875 40.09375 44.625 
L 40.1875 44.625 
Q 40.1875 45.125 40.15625 46.171875 
Q 40.140625 47.21875 40.109375 48.359375 
Q 40.09375 49.515625 40.09375 50.53125 
Q 40.09375 51.5625 40.09375 52 
L 40.09375 72.46875 
L 48.875 72.46875 
L 48.875 10.890625 
Q 48.875 8.984375 48.890625 7.21875 
Q 48.921875 5.46875 48.96875 4 
Q 49.03125 2.546875 49.078125 1.484375 
Q 49.125 0.4375 49.171875 0 
L 40.765625 0 
Q 40.671875 0.484375 40.59375 1.390625 
Q 40.53125 2.296875 40.453125 3.46875 
Q 40.375 4.640625 40.328125 5.9375 
Q 40.28125 7.234375 40.28125 8.5 
z
M 13.421875 26.46875 
Q 13.421875 21 14.109375 17.09375 
Q 14.796875 13.1875 16.3125 10.671875 
Q 17.828125 8.15625 20.171875 6.984375 
Q 22.515625 5.8125 25.875 5.8125 
Q 29.34375 5.8125 32 6.9375 
Q 34.671875 8.0625 36.453125 10.578125 
Q 38.234375 13.09375 39.15625 17.140625 
Q 40.09375 21.1875 40.09375 27.046875 
Q 40.09375 32.671875 39.15625 36.546875 
Q 38.234375 40.4375 36.421875 42.828125 
Q 34.625 45.21875 32 46.265625 
Q 29.390625 47.3125 25.984375 47.3125 
Q 22.75 47.3125 20.40625 46.1875 
Q 18.0625 45.0625 16.5 42.578125 
Q 14.9375 40.09375 14.171875 36.109375 
Q 13.421875 32.125 13.421875 26.46875 
z
" id="LiberationSans-100"/>
     <path d="M 6.6875 64.0625 
L 6.6875 72.46875 
L 15.484375 72.46875 
L 15.484375 64.0625 
z
M 6.6875 0 
L 6.6875 52.828125 
L 15.484375 52.828125 
L 15.484375 0 
z
" id="LiberationSans-105"/>
     <path d="M 15.328125 52.828125 
L 15.328125 19.34375 
Q 15.328125 15.484375 15.890625 12.890625 
Q 16.453125 10.296875 17.71875 8.703125 
Q 19 7.125 21.0625 6.46875 
Q 23.140625 5.8125 26.21875 5.8125 
Q 29.34375 5.8125 31.859375 6.90625 
Q 34.375 8.015625 36.15625 10.078125 
Q 37.9375 12.15625 38.90625 15.203125 
Q 39.890625 18.265625 39.890625 22.21875 
L 39.890625 52.828125 
L 48.6875 52.828125 
L 48.6875 11.28125 
Q 48.6875 9.625 48.703125 7.78125 
Q 48.734375 5.953125 48.78125 4.3125 
Q 48.828125 2.6875 48.875 1.515625 
Q 48.921875 0.34375 48.96875 0 
L 40.671875 0 
Q 40.625 0.25 40.578125 1.3125 
Q 40.53125 2.390625 40.453125 3.78125 
Q 40.375 5.171875 40.328125 6.609375 
Q 40.28125 8.0625 40.28125 9.03125 
L 40.140625 9.03125 
Q 38.875 6.734375 37.359375 4.875 
Q 35.84375 3.03125 33.84375 1.734375 
Q 31.84375 0.4375 29.25 -0.265625 
Q 26.65625 -0.984375 23.25 -0.984375 
Q 18.84375 -0.984375 15.671875 0.09375 
Q 12.5 1.171875 10.453125 3.421875 
Q 8.40625 5.671875 7.453125 9.1875 
Q 6.5 12.703125 6.5 17.625 
L 6.5 52.828125 
z
" id="LiberationSans-117"/>
     <path d="M 29.9375 0 
L 19.53125 0 
L 0.34375 52.828125 
L 9.71875 52.828125 
L 21.34375 18.453125 
Q 21.6875 17.390625 22.140625 15.84375 
Q 22.609375 14.3125 23.09375 12.640625 
Q 23.578125 10.984375 24 9.4375 
Q 24.421875 7.90625 24.703125 6.890625 
Q 25 7.90625 25.453125 9.4375 
Q 25.921875 10.984375 26.40625 12.59375 
Q 26.90625 14.203125 27.421875 15.734375 
Q 27.9375 17.28125 28.328125 18.359375 
L 40.328125 52.828125 
L 49.65625 52.828125 
z
" id="LiberationSans-118"/>
     <path d="M 6.9375 0 
L 6.9375 40.53125 
Q 6.9375 42.1875 6.90625 43.921875 
Q 6.890625 45.65625 6.828125 47.265625 
Q 6.78125 48.875 6.734375 50.28125 
Q 6.6875 51.703125 6.640625 52.828125 
L 14.9375 52.828125 
Q 14.984375 51.703125 15.0625 50.265625 
Q 15.140625 48.828125 15.203125 47.3125 
Q 15.28125 45.796875 15.296875 44.40625 
Q 15.328125 43.015625 15.328125 42.046875 
L 15.53125 42.046875 
Q 16.453125 45.0625 17.5 47.28125 
Q 18.5625 49.515625 19.96875 50.953125 
Q 21.390625 52.390625 23.34375 53.09375 
Q 25.296875 53.8125 28.078125 53.8125 
Q 29.15625 53.8125 30.125 53.640625 
Q 31.109375 53.46875 31.640625 53.328125 
L 31.640625 45.265625 
Q 30.765625 45.515625 29.59375 45.625 
Q 28.421875 45.75 26.953125 45.75 
Q 23.921875 45.75 21.796875 44.375 
Q 19.671875 43.015625 18.328125 40.59375 
Q 17 38.1875 16.359375 34.84375 
Q 15.71875 31.5 15.71875 27.546875 
L 15.71875 0 
z
" id="LiberationSans-114"/>
     <path d="M 27.046875 0.390625 
Q 25.046875 -0.140625 22.96875 -0.453125 
Q 20.90625 -0.78125 18.171875 -0.78125 
Q 7.625 -0.78125 7.625 11.1875 
L 7.625 46.4375 
L 1.515625 46.4375 
L 1.515625 52.828125 
L 7.953125 52.828125 
L 10.546875 64.65625 
L 16.40625 64.65625 
L 16.40625 52.828125 
L 26.171875 52.828125 
L 26.171875 46.4375 
L 16.40625 46.4375 
L 16.40625 13.09375 
Q 16.40625 9.28125 17.640625 7.734375 
Q 18.890625 6.203125 21.96875 6.203125 
Q 23.25 6.203125 24.4375 6.390625 
Q 25.640625 6.59375 27.046875 6.890625 
z
" id="LiberationSans-116"/>
     <path d="M 37.5 0 
L 37.5 33.5 
Q 37.5 37.359375 37.015625 39.9375 
Q 36.53125 42.53125 35.375 44.109375 
Q 34.234375 45.703125 32.375 46.359375 
Q 30.515625 47.015625 27.828125 47.015625 
Q 25.046875 47.015625 22.796875 45.921875 
Q 20.5625 44.828125 18.96875 42.75 
Q 17.390625 40.671875 16.53125 37.625 
Q 15.671875 34.578125 15.671875 30.609375 
L 15.671875 0 
L 6.9375 0 
L 6.9375 41.546875 
Q 6.9375 43.21875 6.90625 45.046875 
Q 6.890625 46.875 6.828125 48.5 
Q 6.78125 50.140625 6.734375 51.3125 
Q 6.6875 52.484375 6.640625 52.828125 
L 14.9375 52.828125 
Q 14.984375 52.59375 15.03125 51.515625 
Q 15.09375 50.4375 15.15625 49.046875 
Q 15.234375 47.65625 15.28125 46.21875 
Q 15.328125 44.78125 15.328125 43.796875 
L 15.484375 43.796875 
Q 16.65625 46.09375 18.015625 47.953125 
Q 19.390625 49.8125 21.21875 51.09375 
Q 23.046875 52.390625 25.40625 53.09375 
Q 27.78125 53.8125 30.90625 53.8125 
Q 36.921875 53.8125 40.40625 51.421875 
Q 43.890625 49.03125 45.265625 43.796875 
L 45.40625 43.796875 
Q 46.578125 46.09375 48.046875 47.953125 
Q 49.515625 49.8125 51.46875 51.09375 
Q 53.421875 52.390625 55.859375 53.09375 
Q 58.296875 53.8125 61.421875 53.8125 
Q 65.4375 53.8125 68.328125 52.734375 
Q 71.234375 51.65625 73.09375 49.40625 
Q 74.953125 47.171875 75.828125 43.625 
Q 76.703125 40.09375 76.703125 35.203125 
L 76.703125 0 
L 68.015625 0 
L 68.015625 33.5 
Q 68.015625 37.359375 67.53125 39.9375 
Q 67.046875 42.53125 65.890625 44.109375 
Q 64.75 45.703125 62.890625 46.359375 
Q 61.03125 47.015625 58.34375 47.015625 
Q 55.5625 47.015625 53.3125 45.96875 
Q 51.078125 44.921875 49.484375 42.875 
Q 47.90625 40.828125 47.046875 37.75 
Q 46.1875 34.671875 46.1875 30.609375 
L 46.1875 0 
z
" id="LiberationSans-109"/>
    </defs>
    <g style="fill:#262626;" transform="translate(305.311875 80.4)scale(0.12 -0.12)">
     <use xlink:href="#LiberationSans-67"/>
     <use x="72.216797" xlink:href="#LiberationSans-108"/>
     <use x="94.433594" xlink:href="#LiberationSans-111"/>
     <use x="150.048828" xlink:href="#LiberationSans-115"/>
     <use x="200.048828" xlink:href="#LiberationSans-101"/>
     <use x="255.664062" xlink:href="#LiberationSans-100"/>
     <use x="311.279297" xlink:href="#LiberationSans-32"/>
     <use x="339.0625" xlink:href="#LiberationSans-105"/>
     <use x="361.279297" xlink:href="#LiberationSans-115"/>
     <use x="411.279297" xlink:href="#LiberationSans-115"/>
     <use x="461.279297" xlink:href="#LiberationSans-117"/>
     <use x="516.894531" xlink:href="#LiberationSans-101"/>
     <use x="572.509766" xlink:href="#LiberationSans-115"/>
     <use x="622.509766" xlink:href="#LiberationSans-32"/>
     <use x="650.292969" xlink:href="#LiberationSans-111"/>
     <use x="705.908203" xlink:href="#LiberationSans-118"/>
     <use x="755.908203" xlink:href="#LiberationSans-101"/>
     <use x="811.523438" xlink:href="#LiberationSans-114"/>
     <use x="844.824219" xlink:href="#LiberationSans-32"/>
     <use x="872.607422" xlink:href="#LiberationSans-116"/>
     <use x="900.390625" xlink:href="#LiberationSans-105"/>
     <use x="922.607422" xlink:href="#LiberationSans-109"/>
     <use x="1005.908203" xlink:href="#LiberationSans-101"/>
    </g>
   </g>
  </g>
 </g>
 <defs>
  <clipPath id="p04883b26e6">
   <rect height="554.4" width="558" x="90" y="86.4"/>
  </clipPath>
 </defs>
</svg>
