<?xml version="1.0" encoding="utf-8" standalone="no"?>
<!DOCTYPE svg PUBLIC "-//W3C//DTD SVG 1.1//EN"
  "http://www.w3.org/Graphics/SVG/1.1/DTD/svg11.dtd">
<!-- Created with matplotlib (https://matplotlib.org/) -->
<svg height="720pt" version="1.1" viewBox="0 0 720 720" width="720pt" xmlns="http://www.w3.org/2000/svg" xmlns:xlink="http://www.w3.org/1999/xlink">
 <defs>
  <style type="text/css">
*{stroke-linecap:butt;stroke-linejoin:round;}
  </style>
 </defs>
 <g id="figure_1">
  <g id="patch_1">
   <path d="M 0 720 
L 720 720 
L 720 0 
L 0 0 
z
" style="fill:#ffffff;"/>
  </g>
  <g id="axes_1">
   <g id="patch_2">
    <path d="M 90 640.8 
L 648 640.8 
L 648 86.4 
L 90 86.4 
z
" style="fill:#ffffff;"/>
   </g>
   <g id="matplotlib.axis_1">
    <g id="xtick_1">
     <g id="line2d_1">
      <path clip-path="url(#p42281ae33f)" d="M 162.518222 640.8 
L 162.518222 86.4 
" style="fill:none;stroke:#cccccc;stroke-linecap:round;stroke-width:0.8;"/>
     </g>
     <g id="line2d_2"/>
     <g id="text_1">
      <!-- 2015 -->
      <defs>
       <path d="M 19.1875 8.296875 
L 53.609375 8.296875 
L 53.609375 0 
L 7.328125 0 
L 7.328125 8.296875 
Q 12.9375 14.109375 22.625 23.890625 
Q 32.328125 33.6875 34.8125 36.53125 
Q 39.546875 41.84375 41.421875 45.53125 
Q 43.3125 49.21875 43.3125 52.78125 
Q 43.3125 58.59375 39.234375 62.25 
Q 35.15625 65.921875 28.609375 65.921875 
Q 23.96875 65.921875 18.8125 64.3125 
Q 13.671875 62.703125 7.8125 59.421875 
L 7.8125 69.390625 
Q 13.765625 71.78125 18.9375 73 
Q 24.125 74.21875 28.421875 74.21875 
Q 39.75 74.21875 46.484375 68.546875 
Q 53.21875 62.890625 53.21875 53.421875 
Q 53.21875 48.921875 51.53125 44.890625 
Q 49.859375 40.875 45.40625 35.40625 
Q 44.1875 33.984375 37.640625 27.21875 
Q 31.109375 20.453125 19.1875 8.296875 
z
" id="DejaVuSans-50"/>
       <path d="M 31.78125 66.40625 
Q 24.171875 66.40625 20.328125 58.90625 
Q 16.5 51.421875 16.5 36.375 
Q 16.5 21.390625 20.328125 13.890625 
Q 24.171875 6.390625 31.78125 6.390625 
Q 39.453125 6.390625 43.28125 13.890625 
Q 47.125 21.390625 47.125 36.375 
Q 47.125 51.421875 43.28125 58.90625 
Q 39.453125 66.40625 31.78125 66.40625 
z
M 31.78125 74.21875 
Q 44.046875 74.21875 50.515625 64.515625 
Q 56.984375 54.828125 56.984375 36.375 
Q 56.984375 17.96875 50.515625 8.265625 
Q 44.046875 -1.421875 31.78125 -1.421875 
Q 19.53125 -1.421875 13.0625 8.265625 
Q 6.59375 17.96875 6.59375 36.375 
Q 6.59375 54.828125 13.0625 64.515625 
Q 19.53125 74.21875 31.78125 74.21875 
z
" id="DejaVuSans-48"/>
       <path d="M 12.40625 8.296875 
L 28.515625 8.296875 
L 28.515625 63.921875 
L 10.984375 60.40625 
L 10.984375 69.390625 
L 28.421875 72.90625 
L 38.28125 72.90625 
L 38.28125 8.296875 
L 54.390625 8.296875 
L 54.390625 0 
L 12.40625 0 
z
" id="DejaVuSans-49"/>
       <path d="M 10.796875 72.90625 
L 49.515625 72.90625 
L 49.515625 64.59375 
L 19.828125 64.59375 
L 19.828125 46.734375 
Q 21.96875 47.46875 24.109375 47.828125 
Q 26.265625 48.1875 28.421875 48.1875 
Q 40.625 48.1875 47.75 41.5 
Q 54.890625 34.8125 54.890625 23.390625 
Q 54.890625 11.625 47.5625 5.09375 
Q 40.234375 -1.421875 26.90625 -1.421875 
Q 22.3125 -1.421875 17.546875 -0.640625 
Q 12.796875 0.140625 7.71875 1.703125 
L 7.71875 11.625 
Q 12.109375 9.234375 16.796875 8.0625 
Q 21.484375 6.890625 26.703125 6.890625 
Q 35.15625 6.890625 40.078125 11.328125 
Q 45.015625 15.765625 45.015625 23.390625 
Q 45.015625 31 40.078125 35.4375 
Q 35.15625 39.890625 26.703125 39.890625 
Q 22.75 39.890625 18.8125 39.015625 
Q 14.890625 38.140625 10.796875 36.28125 
z
" id="DejaVuSans-53"/>
      </defs>
      <g style="fill:#262626;" transform="translate(149.793222 651.898438)scale(0.1 -0.1)">
       <use xlink:href="#DejaVuSans-50"/>
       <use x="63.623047" xlink:href="#DejaVuSans-48"/>
       <use x="127.246094" xlink:href="#DejaVuSans-49"/>
       <use x="190.869141" xlink:href="#DejaVuSans-53"/>
      </g>
     </g>
    </g>
    <g id="xtick_2">
     <g id="line2d_3">
      <path clip-path="url(#p42281ae33f)" d="M 245.311542 640.8 
L 245.311542 86.4 
" style="fill:none;stroke:#cccccc;stroke-linecap:round;stroke-width:0.8;"/>
     </g>
     <g id="line2d_4"/>
     <g id="text_2">
      <!-- 2016 -->
      <defs>
       <path d="M 33.015625 40.375 
Q 26.375 40.375 22.484375 35.828125 
Q 18.609375 31.296875 18.609375 23.390625 
Q 18.609375 15.53125 22.484375 10.953125 
Q 26.375 6.390625 33.015625 6.390625 
Q 39.65625 6.390625 43.53125 10.953125 
Q 47.40625 15.53125 47.40625 23.390625 
Q 47.40625 31.296875 43.53125 35.828125 
Q 39.65625 40.375 33.015625 40.375 
z
M 52.59375 71.296875 
L 52.59375 62.3125 
Q 48.875 64.0625 45.09375 64.984375 
Q 41.3125 65.921875 37.59375 65.921875 
Q 27.828125 65.921875 22.671875 59.328125 
Q 17.53125 52.734375 16.796875 39.40625 
Q 19.671875 43.65625 24.015625 45.921875 
Q 28.375 48.1875 33.59375 48.1875 
Q 44.578125 48.1875 50.953125 41.515625 
Q 57.328125 34.859375 57.328125 23.390625 
Q 57.328125 12.15625 50.6875 5.359375 
Q 44.046875 -1.421875 33.015625 -1.421875 
Q 20.359375 -1.421875 13.671875 8.265625 
Q 6.984375 17.96875 6.984375 36.375 
Q 6.984375 53.65625 15.1875 63.9375 
Q 23.390625 74.21875 37.203125 74.21875 
Q 40.921875 74.21875 44.703125 73.484375 
Q 48.484375 72.75 52.59375 71.296875 
z
" id="DejaVuSans-54"/>
      </defs>
      <g style="fill:#262626;" transform="translate(232.586542 651.898438)scale(0.1 -0.1)">
       <use xlink:href="#DejaVuSans-50"/>
       <use x="63.623047" xlink:href="#DejaVuSans-48"/>
       <use x="127.246094" xlink:href="#DejaVuSans-49"/>
       <use x="190.869141" xlink:href="#DejaVuSans-54"/>
      </g>
     </g>
    </g>
    <g id="xtick_3">
     <g id="line2d_5">
      <path clip-path="url(#p42281ae33f)" d="M 328.331693 640.8 
L 328.331693 86.4 
" style="fill:none;stroke:#cccccc;stroke-linecap:round;stroke-width:0.8;"/>
     </g>
     <g id="line2d_6"/>
     <g id="text_3">
      <!-- 2017 -->
      <defs>
       <path d="M 8.203125 72.90625 
L 55.078125 72.90625 
L 55.078125 68.703125 
L 28.609375 0 
L 18.3125 0 
L 43.21875 64.59375 
L 8.203125 64.59375 
z
" id="DejaVuSans-55"/>
      </defs>
      <g style="fill:#262626;" transform="translate(315.606693 651.898438)scale(0.1 -0.1)">
       <use xlink:href="#DejaVuSans-50"/>
       <use x="63.623047" xlink:href="#DejaVuSans-48"/>
       <use x="127.246094" xlink:href="#DejaVuSans-49"/>
       <use x="190.869141" xlink:href="#DejaVuSans-55"/>
      </g>
     </g>
    </g>
    <g id="xtick_4">
     <g id="line2d_7">
      <path clip-path="url(#p42281ae33f)" d="M 411.125013 640.8 
L 411.125013 86.4 
" style="fill:none;stroke:#cccccc;stroke-linecap:round;stroke-width:0.8;"/>
     </g>
     <g id="line2d_8"/>
     <g id="text_4">
      <!-- 2018 -->
      <defs>
       <path d="M 31.78125 34.625 
Q 24.75 34.625 20.71875 30.859375 
Q 16.703125 27.09375 16.703125 20.515625 
Q 16.703125 13.921875 20.71875 10.15625 
Q 24.75 6.390625 31.78125 6.390625 
Q 38.8125 6.390625 42.859375 10.171875 
Q 46.921875 13.96875 46.921875 20.515625 
Q 46.921875 27.09375 42.890625 30.859375 
Q 38.875 34.625 31.78125 34.625 
z
M 21.921875 38.8125 
Q 15.578125 40.375 12.03125 44.71875 
Q 8.5 49.078125 8.5 55.328125 
Q 8.5 64.0625 14.71875 69.140625 
Q 20.953125 74.21875 31.78125 74.21875 
Q 42.671875 74.21875 48.875 69.140625 
Q 55.078125 64.0625 55.078125 55.328125 
Q 55.078125 49.078125 51.53125 44.71875 
Q 48 40.375 41.703125 38.8125 
Q 48.828125 37.15625 52.796875 32.3125 
Q 56.78125 27.484375 56.78125 20.515625 
Q 56.78125 9.90625 50.3125 4.234375 
Q 43.84375 -1.421875 31.78125 -1.421875 
Q 19.734375 -1.421875 13.25 4.234375 
Q 6.78125 9.90625 6.78125 20.515625 
Q 6.78125 27.484375 10.78125 32.3125 
Q 14.796875 37.15625 21.921875 38.8125 
z
M 18.3125 54.390625 
Q 18.3125 48.734375 21.84375 45.5625 
Q 25.390625 42.390625 31.78125 42.390625 
Q 38.140625 42.390625 41.71875 45.5625 
Q 45.3125 48.734375 45.3125 54.390625 
Q 45.3125 60.0625 41.71875 63.234375 
Q 38.140625 66.40625 31.78125 66.40625 
Q 25.390625 66.40625 21.84375 63.234375 
Q 18.3125 60.0625 18.3125 54.390625 
z
" id="DejaVuSans-56"/>
      </defs>
      <g style="fill:#262626;" transform="translate(398.400013 651.898438)scale(0.1 -0.1)">
       <use xlink:href="#DejaVuSans-50"/>
       <use x="63.623047" xlink:href="#DejaVuSans-48"/>
       <use x="127.246094" xlink:href="#DejaVuSans-49"/>
       <use x="190.869141" xlink:href="#DejaVuSans-56"/>
      </g>
     </g>
    </g>
    <g id="xtick_5">
     <g id="line2d_9">
      <path clip-path="url(#p42281ae33f)" d="M 493.918333 640.8 
L 493.918333 86.4 
" style="fill:none;stroke:#cccccc;stroke-linecap:round;stroke-width:0.8;"/>
     </g>
     <g id="line2d_10"/>
     <g id="text_5">
      <!-- 2019 -->
      <defs>
       <path d="M 10.984375 1.515625 
L 10.984375 10.5 
Q 14.703125 8.734375 18.5 7.8125 
Q 22.3125 6.890625 25.984375 6.890625 
Q 35.75 6.890625 40.890625 13.453125 
Q 46.046875 20.015625 46.78125 33.40625 
Q 43.953125 29.203125 39.59375 26.953125 
Q 35.25 24.703125 29.984375 24.703125 
Q 19.046875 24.703125 12.671875 31.3125 
Q 6.296875 37.9375 6.296875 49.421875 
Q 6.296875 60.640625 12.9375 67.421875 
Q 19.578125 74.21875 30.609375 74.21875 
Q 43.265625 74.21875 49.921875 64.515625 
Q 56.59375 54.828125 56.59375 36.375 
Q 56.59375 19.140625 48.40625 8.859375 
Q 40.234375 -1.421875 26.421875 -1.421875 
Q 22.703125 -1.421875 18.890625 -0.6875 
Q 15.09375 0.046875 10.984375 1.515625 
z
M 30.609375 32.421875 
Q 37.25 32.421875 41.125 36.953125 
Q 45.015625 41.5 45.015625 49.421875 
Q 45.015625 57.28125 41.125 61.84375 
Q 37.25 66.40625 30.609375 66.40625 
Q 23.96875 66.40625 20.09375 61.84375 
Q 16.21875 57.28125 16.21875 49.421875 
Q 16.21875 41.5 20.09375 36.953125 
Q 23.96875 32.421875 30.609375 32.421875 
z
" id="DejaVuSans-57"/>
      </defs>
      <g style="fill:#262626;" transform="translate(481.193333 651.898438)scale(0.1 -0.1)">
       <use xlink:href="#DejaVuSans-50"/>
       <use x="63.623047" xlink:href="#DejaVuSans-48"/>
       <use x="127.246094" xlink:href="#DejaVuSans-49"/>
       <use x="190.869141" xlink:href="#DejaVuSans-57"/>
      </g>
     </g>
    </g>
    <g id="xtick_6">
     <g id="line2d_11">
      <path clip-path="url(#p42281ae33f)" d="M 576.711654 640.8 
L 576.711654 86.4 
" style="fill:none;stroke:#cccccc;stroke-linecap:round;stroke-width:0.8;"/>
     </g>
     <g id="line2d_12"/>
     <g id="text_6">
      <!-- 2020 -->
      <g style="fill:#262626;" transform="translate(563.986654 651.898438)scale(0.1 -0.1)">
       <use xlink:href="#DejaVuSans-50"/>
       <use x="63.623047" xlink:href="#DejaVuSans-48"/>
       <use x="127.246094" xlink:href="#DejaVuSans-50"/>
       <use x="190.869141" xlink:href="#DejaVuSans-48"/>
      </g>
     </g>
    </g>
   </g>
   <g id="matplotlib.axis_2">
    <g id="ytick_1">
     <g id="line2d_13">
      <path clip-path="url(#p42281ae33f)" d="M 90 615.60893 
L 648 615.60893 
" style="fill:none;stroke:#cccccc;stroke-linecap:round;stroke-width:0.8;"/>
     </g>
     <g id="line2d_14"/>
     <g id="text_7">
      <!-- 0 -->
      <g style="fill:#262626;" transform="translate(80.1375 619.408149)scale(0.1 -0.1)">
       <use xlink:href="#DejaVuSans-48"/>
      </g>
     </g>
    </g>
    <g id="ytick_2">
     <g id="line2d_15">
      <path clip-path="url(#p42281ae33f)" d="M 90 526.304231 
L 648 526.304231 
" style="fill:none;stroke:#cccccc;stroke-linecap:round;stroke-width:0.8;"/>
     </g>
     <g id="line2d_16"/>
     <g id="text_8">
      <!-- 10000 -->
      <g style="fill:#262626;" transform="translate(54.6875 530.10345)scale(0.1 -0.1)">
       <use xlink:href="#DejaVuSans-49"/>
       <use x="63.623047" xlink:href="#DejaVuSans-48"/>
       <use x="127.246094" xlink:href="#DejaVuSans-48"/>
       <use x="190.869141" xlink:href="#DejaVuSans-48"/>
       <use x="254.492188" xlink:href="#DejaVuSans-48"/>
      </g>
     </g>
    </g>
    <g id="ytick_3">
     <g id="line2d_17">
      <path clip-path="url(#p42281ae33f)" d="M 90 436.999532 
L 648 436.999532 
" style="fill:none;stroke:#cccccc;stroke-linecap:round;stroke-width:0.8;"/>
     </g>
     <g id="line2d_18"/>
     <g id="text_9">
      <!-- 20000 -->
      <g style="fill:#262626;" transform="translate(54.6875 440.798751)scale(0.1 -0.1)">
       <use xlink:href="#DejaVuSans-50"/>
       <use x="63.623047" xlink:href="#DejaVuSans-48"/>
       <use x="127.246094" xlink:href="#DejaVuSans-48"/>
       <use x="190.869141" xlink:href="#DejaVuSans-48"/>
       <use x="254.492188" xlink:href="#DejaVuSans-48"/>
      </g>
     </g>
    </g>
    <g id="ytick_4">
     <g id="line2d_19">
      <path clip-path="url(#p42281ae33f)" d="M 90 347.694833 
L 648 347.694833 
" style="fill:none;stroke:#cccccc;stroke-linecap:round;stroke-width:0.8;"/>
     </g>
     <g id="line2d_20"/>
     <g id="text_10">
      <!-- 30000 -->
      <defs>
       <path d="M 40.578125 39.3125 
Q 47.65625 37.796875 51.625 33 
Q 55.609375 28.21875 55.609375 21.1875 
Q 55.609375 10.40625 48.1875 4.484375 
Q 40.765625 -1.421875 27.09375 -1.421875 
Q 22.515625 -1.421875 17.65625 -0.515625 
Q 12.796875 0.390625 7.625 2.203125 
L 7.625 11.71875 
Q 11.71875 9.328125 16.59375 8.109375 
Q 21.484375 6.890625 26.8125 6.890625 
Q 36.078125 6.890625 40.9375 10.546875 
Q 45.796875 14.203125 45.796875 21.1875 
Q 45.796875 27.640625 41.28125 31.265625 
Q 36.765625 34.90625 28.71875 34.90625 
L 20.21875 34.90625 
L 20.21875 43.015625 
L 29.109375 43.015625 
Q 36.375 43.015625 40.234375 45.921875 
Q 44.09375 48.828125 44.09375 54.296875 
Q 44.09375 59.90625 40.109375 62.90625 
Q 36.140625 65.921875 28.71875 65.921875 
Q 24.65625 65.921875 20.015625 65.03125 
Q 15.375 64.15625 9.8125 62.3125 
L 9.8125 71.09375 
Q 15.4375 72.65625 20.34375 73.4375 
Q 25.25 74.21875 29.59375 74.21875 
Q 40.828125 74.21875 47.359375 69.109375 
Q 53.90625 64.015625 53.90625 55.328125 
Q 53.90625 49.265625 50.4375 45.09375 
Q 46.96875 40.921875 40.578125 39.3125 
z
" id="DejaVuSans-51"/>
      </defs>
      <g style="fill:#262626;" transform="translate(54.6875 351.494052)scale(0.1 -0.1)">
       <use xlink:href="#DejaVuSans-51"/>
       <use x="63.623047" xlink:href="#DejaVuSans-48"/>
       <use x="127.246094" xlink:href="#DejaVuSans-48"/>
       <use x="190.869141" xlink:href="#DejaVuSans-48"/>
       <use x="254.492188" xlink:href="#DejaVuSans-48"/>
      </g>
     </g>
    </g>
    <g id="ytick_5">
     <g id="line2d_21">
      <path clip-path="url(#p42281ae33f)" d="M 90 258.390134 
L 648 258.390134 
" style="fill:none;stroke:#cccccc;stroke-linecap:round;stroke-width:0.8;"/>
     </g>
     <g id="line2d_22"/>
     <g id="text_11">
      <!-- 40000 -->
      <defs>
       <path d="M 37.796875 64.3125 
L 12.890625 25.390625 
L 37.796875 25.390625 
z
M 35.203125 72.90625 
L 47.609375 72.90625 
L 47.609375 25.390625 
L 58.015625 25.390625 
L 58.015625 17.1875 
L 47.609375 17.1875 
L 47.609375 0 
L 37.796875 0 
L 37.796875 17.1875 
L 4.890625 17.1875 
L 4.890625 26.703125 
z
" id="DejaVuSans-52"/>
      </defs>
      <g style="fill:#262626;" transform="translate(54.6875 262.189353)scale(0.1 -0.1)">
       <use xlink:href="#DejaVuSans-52"/>
       <use x="63.623047" xlink:href="#DejaVuSans-48"/>
       <use x="127.246094" xlink:href="#DejaVuSans-48"/>
       <use x="190.869141" xlink:href="#DejaVuSans-48"/>
       <use x="254.492188" xlink:href="#DejaVuSans-48"/>
      </g>
     </g>
    </g>
    <g id="ytick_6">
     <g id="line2d_23">
      <path clip-path="url(#p42281ae33f)" d="M 90 169.085435 
L 648 169.085435 
" style="fill:none;stroke:#cccccc;stroke-linecap:round;stroke-width:0.8;"/>
     </g>
     <g id="line2d_24"/>
     <g id="text_12">
      <!-- 50000 -->
      <g style="fill:#262626;" transform="translate(54.6875 172.884654)scale(0.1 -0.1)">
       <use xlink:href="#DejaVuSans-53"/>
       <use x="63.623047" xlink:href="#DejaVuSans-48"/>
       <use x="127.246094" xlink:href="#DejaVuSans-48"/>
       <use x="190.869141" xlink:href="#DejaVuSans-48"/>
       <use x="254.492188" xlink:href="#DejaVuSans-48"/>
      </g>
     </g>
    </g>
   </g>
   <g id="line2d_25">
    <path clip-path="url(#p42281ae33f)" d="M 115.363636 615.6 
L 116.478844 615.21599 
L 116.514032 615.198129 
L 116.699542 615.082033 
L 116.93039 614.912354 
L 117.770857 614.751605 
L 118.108208 614.590857 
L 118.448386 614.447969 
L 118.463159 614.430108 
L 119.231709 614.287221 
L 119.392683 614.197916 
L 119.606718 614.08182 
L 119.898765 613.965724 
L 120.028395 613.947863 
L 120.354677 613.840697 
L 120.952621 613.715671 
L 121.057985 613.563853 
L 122.780685 613.304869 
L 122.881877 613.233425 
L 123.255484 613.090538 
L 123.328933 613.036955 
L 123.947904 612.885137 
L 124.19731 612.715458 
L 124.824046 612.447544 
L 124.886021 612.358239 
L 125.564007 612.206421 
L 125.565406 612.18856 
L 125.930452 612.063534 
L 126.008349 612.018882 
L 126.281772 611.893855 
L 127.093756 611.670593 
L 127.714115 611.295514 
L 128.696632 610.956156 
L 128.779628 610.884712 
L 128.90502 610.768616 
L 128.954923 610.723963 
L 129.407041 610.590006 
L 130.513344 610.313162 
L 130.547187 610.27744 
L 130.964926 610.143483 
L 130.996239 610.08097 
L 131.837635 609.920221 
L 131.911809 609.786264 
L 132.320334 609.652307 
L 132.398047 609.571933 
L 133.523803 609.366532 
L 133.532824 609.348671 
L 133.67284 609.232575 
L 133.768484 609.13434 
L 133.971726 609.009313 
L 134.328114 608.794982 
L 134.372887 608.741399 
L 135.292335 608.625303 
L 135.90748 608.393111 
L 136.028443 608.303806 
L 136.666854 608.151988 
L 137.076295 607.919796 
L 137.155216 607.848352 
L 137.508749 607.714395 
L 140.233987 607.026749 
L 140.332478 606.937444 
L 140.698159 606.803487 
L 140.747846 606.732043 
L 141.569893 606.598086 
L 141.64224 606.544504 
L 142.042917 606.410546 
L 142.361625 606.160493 
L 143.018695 606.017606 
L 143.242559 605.776483 
L 143.467267 605.660387 
L 143.523812 605.633596 
L 143.671995 605.508569 
L 143.731239 605.446056 
L 143.899356 605.321029 
L 144.06641 605.303168 
L 144.612866 605.178142 
L 145.247152 604.811992 
L 145.360891 604.713757 
L 145.488992 604.588731 
L 145.568501 604.490495 
L 146.166968 604.374399 
L 146.183673 604.338677 
L 146.392725 604.213651 
L 146.454536 604.151138 
L 146.827912 603.99932 
L 146.857041 603.954667 
L 147.769035 603.793919 
L 147.837423 603.713545 
L 148.161516 603.579587 
L 148.226638 603.463491 
L 148.499817 603.338465 
L 148.609854 603.293812 
L 148.918158 603.213438 
L 149.643676 602.900872 
L 150.058679 602.606166 
L 150.902026 602.445418 
L 151.00725 602.248947 
L 151.178628 602.123921 
L 151.244199 602.052477 
L 151.443314 601.927451 
L 151.805908 601.73098 
L 151.906517 601.570232 
L 152.480045 601.436275 
L 152.593327 601.302318 
L 152.753295 601.186222 
L 153.242877 600.927238 
L 153.274337 600.909377 
L 154.065793 600.721837 
L 154.17876 600.58788 
L 154.347594 600.462853 
L 154.361971 600.436062 
L 155.660935 600.239592 
L 155.769003 600.114565 
L 155.958042 599.989539 
L 156.09717 599.909164 
L 156.615965 599.64125 
L 156.684899 599.623389 
L 157.309527 599.507293 
L 157.311942 599.489432 
L 157.521483 599.373336 
L 157.546103 599.319753 
L 157.76504 599.194727 
L 157.76521 599.185796 
L 157.95557 599.0697 
L 158.024483 598.980395 
L 158.215389 598.855369 
L 158.268182 598.828578 
L 158.860434 598.712481 
L 158.912406 598.587455 
L 159.107672 598.462428 
L 159.131182 598.399915 
L 159.486249 598.265958 
L 159.627422 598.078418 
L 159.80079 597.953391 
L 159.81561 597.890878 
L 160.476684 597.774782 
L 160.517324 597.73013 
L 162.289783 597.497937 
L 162.307738 597.480077 
L 163.637579 597.35505 
L 163.705726 597.265745 
L 163.855038 597.149649 
L 163.949267 597.087136 
L 164.061076 596.97104 
L 164.166006 596.738848 
L 164.307193 596.613821 
L 164.37279 596.533447 
L 164.545213 596.417351 
L 164.57306 596.354837 
L 165.219901 596.238741 
L 165.257221 596.104784 
L 165.479187 595.988688 
L 165.537223 595.970827 
L 165.672416 595.845801 
L 165.759793 595.64933 
L 165.899331 595.533234 
L 165.942917 595.372486 
L 166.126052 595.25639 
L 166.162526 595.211737 
L 167.032397 595.095641 
L 167.21346 594.88131 
L 167.491819 594.550882 
L 167.553906 594.452647 
L 167.720443 594.336551 
L 167.814654 594.247246 
L 168.477287 594.12222 
L 168.610933 594.006124 
L 169.149066 593.398852 
L 169.259827 593.282756 
L 169.334779 593.16666 
L 169.955844 593.041633 
L 170.031812 592.845163 
L 170.195823 592.729067 
L 170.357188 592.568318 
L 170.455972 592.425431 
L 170.516429 592.362917 
L 170.628461 592.246821 
L 170.926067 591.782437 
L 171.57824 591.666341 
L 171.605021 591.630619 
L 171.78113 591.514523 
L 171.83117 591.434148 
L 172.016843 591.318052 
L 172.09035 591.166234 
L 172.217767 591.050138 
L 172.576212 590.683989 
L 173.346802 590.567893 
L 173.451678 590.246396 
L 173.619908 590.121369 
L 173.696542 590.014204 
L 173.818467 589.889177 
L 173.941299 589.665915 
L 174.026056 589.531958 
L 174.097049 589.255114 
L 174.710036 589.139018 
L 174.776284 588.880034 
L 175.132595 588.746077 
L 175.430862 588.478163 
L 175.514383 588.379928 
L 175.635115 588.263832 
L 175.683023 588.219179 
L 176.306679 588.076292 
L 176.406845 587.933404 
L 176.542975 587.808378 
L 176.820221 587.397576 
L 176.861699 587.352924 
L 176.997096 587.236828 
L 177.448259 586.745652 
L 177.892068 586.629556 
L 177.973465 586.450946 
L 178.105116 586.33485 
L 178.217825 586.058006 
L 178.335567 585.941909 
L 178.423614 585.638273 
L 178.561947 585.486455 
L 178.710311 585.236402 
L 178.800844 585.111376 
L 178.853249 584.888114 
L 179.460822 584.772018 
L 179.531641 584.468382 
L 179.678591 584.352286 
L 180.047876 583.896832 
L 180.157356 583.771805 
L 180.473578 583.307421 
L 181.088681 583.173464 
L 181.159017 583.066298 
L 181.266237 582.950202 
L 181.370621 582.619775 
L 181.510944 582.494748 
L 181.869668 581.726728 
L 181.958985 581.548118 
L 182.040589 581.342717 
L 182.637074 581.190899 
L 182.735879 580.958707 
L 182.851316 580.833681 
L 182.932634 580.565767 
L 183.121838 580.431809 
L 183.479517 579.654859 
L 183.592379 579.511971 
L 183.624256 579.431597 
L 184.241018 579.288709 
L 185.363535 577.877695 
L 185.817076 577.734808 
L 185.890513 577.493685 
L 186.040917 577.377589 
L 186.116541 577.145397 
L 186.275146 577.01144 
L 186.470247 576.788178 
L 186.546753 576.609568 
L 186.695083 576.466681 
L 186.96355 576.171975 
L 187.416248 576.029088 
L 187.538314 575.636147 
L 187.658398 575.50219 
L 187.717715 575.323581 
L 187.850391 575.207485 
L 187.935675 574.859196 
L 188.106009 574.716309 
L 188.42672 574.207272 
L 188.990707 574.091176 
L 189.238594 573.546417 
L 189.445729 573.296364 
L 189.541686 573.144546 
L 189.67413 573.001659 
L 189.845086 572.671231 
L 189.914739 572.546205 
L 189.972442 572.376526 
L 190.543095 572.251499 
L 190.645849 571.88535 
L 190.85383 571.590644 
L 191.009351 571.385243 
L 191.694218 570.635084 
L 191.708224 570.626154 
L 192.119592 570.510057 
L 192.233338 570.126047 
L 192.303763 570.045673 
L 192.384653 569.920646 
L 192.532718 569.706315 
L 192.906404 569.009738 
L 193.181875 568.581076 
L 193.741486 568.438188 
L 193.83827 567.89343 
L 194.00084 567.70589 
L 194.040984 567.661238 
L 194.427545 567.52728 
L 194.492357 567.152201 
L 194.685352 567.018244 
L 194.774596 566.812843 
L 195.568447 566.669955 
L 195.680135 566.37525 
L 195.80023 566.250223 
L 195.849681 566.116266 
L 195.94594 566.00017 
L 196.069171 565.830491 
L 196.198302 565.392898 
L 196.280494 565.267872 
L 196.347509 565.071401 
L 196.934757 564.919583 
L 197.01758 564.705252 
L 197.174377 564.571295 
L 197.241137 564.383755 
L 197.353626 564.214076 
L 197.596035 563.812205 
L 197.666201 563.615735 
L 197.725943 563.508569 
L 197.848222 563.392473 
L 197.888884 563.196003 
L 198.533155 563.053115 
L 198.62647 562.892367 
L 198.751312 562.77627 
L 198.858455 562.535148 
L 198.999308 562.410121 
L 199.111981 562.20472 
L 199.207153 562.079694 
L 199.334301 561.740336 
L 199.46726 561.534935 
L 199.534385 561.356326 
L 200.109276 561.213438 
L 200.196293 561.070551 
L 200.300691 560.990176 
L 200.378743 560.847289 
L 200.417795 560.659749 
L 200.590391 560.543653 
L 200.69215 560.338252 
L 200.819716 560.168573 
L 201.108619 559.364831 
L 201.704153 559.230874 
L 202.726672 558.159218 
L 203.291353 558.043121 
L 203.385863 557.810929 
L 203.546984 557.64125 
L 203.634889 557.45371 
L 203.75429 557.301892 
L 203.826073 557.087561 
L 204.885145 556.774995 
L 204.951504 556.516011 
L 205.103704 556.382054 
L 205.21582 556.132001 
L 205.354761 555.980183 
L 205.466302 555.587242 
L 205.65525 555.319328 
L 205.76175 555.238954 
L 205.864911 554.917457 
L 205.929424 554.854944 
L 206.458252 554.703126 
L 206.577223 554.345907 
L 206.705477 554.229811 
L 206.814934 553.881522 
L 206.95815 553.747565 
L 207.064001 553.622539 
L 207.202305 553.497512 
L 207.438501 552.917032 
L 207.655035 552.747353 
L 207.712974 552.50623 
L 208.041197 552.363343 
L 208.295615 551.863236 
L 208.561808 551.74714 
L 209.120143 550.371848 
L 209.606525 550.255752 
L 209.697084 550.050351 
L 209.704283 550.014629 
L 210.083343 549.880672 
L 210.210389 549.478801 
L 210.342576 549.353774 
L 210.448407 549.184095 
L 210.54423 549.050138 
L 210.654111 548.862598 
L 211.228288 548.746502 
L 211.411635 548.496449 
L 211.509427 548.362492 
L 211.612533 548.121369 
L 211.722278 547.996343 
L 211.83243 547.773081 
L 212.071196 547.362279 
L 212.660904 547.103296 
L 212.770988 546.978269 
L 212.88653 546.549607 
L 213.031629 546.388858 
L 213.831434 545.174314 
L 214.340725 545.058218 
L 214.615933 544.745652 
L 214.708443 544.575973 
L 214.860564 544.424155 
L 214.897351 544.281267 
L 215.388647 543.397151 
L 215.990154 543.281055 
L 216.092514 543.075654 
L 216.253921 542.879183 
L 216.363866 542.718435 
L 216.466806 542.566617 
L 216.509166 542.450521 
L 216.729722 542.316564 
L 217.014401 541.887901 
L 217.611029 541.727153 
L 217.714017 541.66464 
L 217.799514 541.530683 
L 217.909215 541.316351 
L 218.13555 540.941272 
L 218.30236 540.816245 
L 218.487067 540.396513 
L 218.688873 540.217903 
L 219.225347 540.092877 
L 219.391813 539.96785 
L 219.525735 539.744589 
L 219.670048 539.557049 
L 219.786331 539.38737 
L 220.112644 539.02122 
L 220.193873 538.887263 
L 220.726025 538.753306 
L 220.874138 538.494323 
L 221.253329 537.985286 
L 221.443292 537.538762 
L 221.704736 537.11903 
L 221.815413 536.958282 
L 222.346376 536.752881 
L 222.483155 536.476037 
L 222.702708 536.315288 
L 222.849773 536.181331 
L 222.955971 535.895556 
L 223.082241 535.627642 
L 223.356992 535.118605 
L 224.023424 534.984648 
L 224.450349 534.341654 
L 224.575513 534.189836 
L 225.085823 533.350372 
L 225.515738 533.207485 
L 225.629695 532.627004 
L 225.876767 532.287646 
L 226.010204 532.100106 
L 226.557759 531.135616 
L 226.667362 531.010589 
L 226.703997 530.939145 
L 227.110027 530.823049 
L 227.156577 530.519413 
L 227.369588 530.215777 
L 228.35635 528.706528 
L 228.691273 528.465405 
L 229.170343 527.786689 
L 229.285281 527.536636 
L 229.375297 527.393749 
L 230.343555 526.143483 
L 230.443563 525.982734 
L 230.55276 525.813055 
L 230.675272 525.500489 
L 230.808218 525.223644 
L 230.917433 524.937869 
L 231.213568 524.214501 
L 231.376492 524.009101 
L 231.967818 523.767978 
L 232.327166 523.339315 
L 232.467691 523.133915 
L 232.61672 522.901722 
L 232.841065 522.642739 
L 233.005714 522.517712 
L 233.159615 522.464129 
L 233.480295 522.321242 
L 233.591463 522.178354 
L 233.711605 522.026536 
L 233.968817 521.803275 
L 234.071633 521.615735 
L 234.174432 521.472847 
L 234.425687 521.133489 
L 234.78393 521.062046 
L 235.078277 520.928088 
L 235.633501 520.168999 
L 235.71557 520.035041 
L 235.877161 519.82071 
L 236.135187 519.579587 
L 236.639077 519.24023 
L 236.739896 519.115203 
L 236.831789 518.981246 
L 236.96841 518.784776 
L 237.08109 518.632958 
L 237.687123 518.097129 
L 238.216989 517.927451 
L 238.512525 517.471997 
L 238.865095 516.829003 
L 239.028162 516.641463 
L 239.129779 516.498575 
L 239.496347 516.177078 
L 239.817722 516.01633 
L 239.914417 515.909164 
L 240.175275 515.685903 
L 240.26422 515.45371 
L 240.37579 515.194727 
L 240.480888 515.016117 
L 240.873658 514.524942 
L 241.319572 514.399915 
L 241.42586 514.283819 
L 241.889798 513.497937 
L 242.007519 513.274676 
L 242.150378 513.006762 
L 242.312018 512.863874 
L 242.421191 512.676334 
L 243.042708 512.176228 
L 243.218644 512.042271 
L 243.330679 511.926175 
L 243.527452 511.747565 
L 244.286343 511.685052 
L 244.623319 511.560026 
L 244.769278 511.470721 
L 245.733565 511.184946 
L 246.173378 511.033128 
L 246.322716 510.863449 
L 246.526903 510.658048 
L 246.860959 510.4973 
L 246.956633 510.425856 
L 247.778898 510.059707 
L 248.985066 508.889815 
L 249.357468 508.729067 
L 249.491188 508.675484 
L 249.634748 508.541527 
L 249.90777 508.353987 
L 250.075756 507.809228 
L 250.186848 507.737784 
L 250.280256 507.585966 
L 250.360169 507.514523 
L 250.889021 507.353774 
L 251.170757 506.951903 
L 251.434161 506.594684 
L 251.617091 506.442866 
L 251.808734 505.960621 
L 251.945568 505.74629 
L 252.288611 505.335488 
L 252.516279 505.201531 
L 252.635604 504.942547 
L 252.750999 504.755007 
L 252.983829 504.433511 
L 253.207933 504.156666 
L 253.425242 503.710142 
L 253.910161 503.049288 
L 254.095173 502.915331 
L 254.30041 502.442016 
L 254.408496 502.227684 
L 254.845999 501.504316 
L 255.050499 501.370359 
L 255.129396 501.245333 
L 255.306655 501.102445 
L 255.493481 500.914905 
L 255.720758 500.727366 
L 255.985636 500.343355 
L 256.112068 500.218329 
L 257.775112 497.77138 
L 257.892586 497.503466 
L 258.212628 497.065873 
L 258.3258 496.63721 
L 259.043819 495.860259 
L 259.154368 495.574484 
L 259.272992 495.404805 
L 259.840393 494.172401 
L 260.16531 493.690155 
L 260.38866 493.547268 
L 260.479106 493.386519 
L 260.632492 493.20791 
L 260.759198 493.065022 
L 260.968499 492.939996 
L 261.304487 492.600638 
L 261.654849 492.216628 
L 262.080538 492.055879 
L 262.847907 491.037806 
L 263.041727 490.885988 
L 263.185412 490.814544 
L 263.686699 490.600213 
L 263.862485 490.35909 
L 264.081574 490.17155 
L 264.566144 489.769679 
L 265.923722 489.099894 
L 265.964833 488.983798 
L 266.153704 488.858771 
L 266.380445 488.680162 
L 267.297045 488.296151 
L 267.41861 488.144333 
L 267.697483 487.992515 
L 268.028942 487.778184 
L 268.426755 487.653158 
L 268.876897 487.349522 
L 268.975715 487.224495 
L 269.111599 487.028025 
L 269.226891 486.831554 
L 270.487252 485.545567 
L 270.726922 485.215139 
L 271.57314 484.822199 
L 271.69319 484.643589 
L 271.794114 484.259579 
L 271.997627 484.045248 
L 272.100541 483.911291 
L 272.262449 483.768403 
L 272.716048 483.51835 
L 273.196106 483.357602 
L 274.090671 482.285945 
L 274.171886 481.955518 
L 274.539339 481.830491 
L 274.909709 481.410759 
L 275.018357 481.276802 
L 275.269194 480.946375 
L 275.888522 480.187285 
L 276.227348 480.044397 
L 276.331758 479.928301 
L 276.470246 479.758622 
L 276.582693 479.571082 
L 276.936631 479.267446 
L 277.134982 479.088837 
L 277.29159 478.77627 
L 277.397924 478.624452 
L 278.20176 477.81178 
L 278.402468 477.677823 
L 278.572838 477.454561 
L 278.644287 477.302743 
L 278.744125 477.186647 
L 278.829438 477.05269 
L 278.939963 476.766915 
L 279.173358 476.516862 
L 280.896441 474.855794 
L 281.11914 474.721837 
L 281.208935 474.659324 
L 281.427197 474.489645 
L 281.58905 474.293175 
L 282.067107 473.64125 
L 282.177645 473.534085 
L 282.343332 473.435849 
L 282.582982 473.310823 
L 282.712903 473.105422 
L 283.301863 472.507081 
L 283.411446 472.382054 
L 283.523388 472.194514 
L 284.383018 471.221093 
L 285.752423 469.193876 
L 286.065597 468.88131 
L 286.303539 468.488369 
L 287.096153 467.586392 
L 287.596076 467.461365 
L 287.935013 467.229173 
L 288.030395 467.032703 
L 288.131584 466.907676 
L 288.224372 466.711206 
L 288.393156 466.532596 
L 288.778094 466.371848 
L 289.046238 466.22896 
L 289.778088 465.201956 
L 289.886027 465.032277 
L 290.212924 464.71078 
L 290.691613 464.308909 
L 290.888337 463.585541 
L 290.976772 463.353349 
L 291.057223 463.228322 
L 291.314944 462.692494 
L 291.796128 462.013778 
L 292.215721 461.897682 
L 292.589779 461.47795 
L 292.735741 461.343993 
L 293.217419 460.71886 
L 293.869335 460.486668 
L 293.977888 460.281267 
L 294.441427 459.450734 
L 294.545115 459.156028 
L 294.719985 458.879183 
L 294.932747 458.62913 
L 295.358856 458.477312 
L 295.497007 458.289772 
L 295.990822 457.655709 
L 296.066511 457.512822 
L 296.616983 456.780523 
L 296.984693 456.610844 
L 297.423317 455.96785 
L 297.555381 455.673145 
L 297.755953 455.262343 
L 297.924929 454.806889 
L 298.024362 454.556836 
L 298.162146 454.369296 
L 298.686034 453.404805 
L 298.777283 453.199405 
L 298.914789 453.038656 
L 299.049383 452.851116 
L 299.146272 452.717159 
L 299.79232 451.824112 
L 300.166505 451.690155 
L 300.272194 451.538337 
L 301.455758 450.180906 
L 301.731563 450.046949 
L 303.263696 447.483904 
L 303.371147 447.323155 
L 303.577232 447.019519 
L 303.714882 446.689092 
L 304.392251 445.456687 
L 304.555289 445.32273 
L 304.652695 445.287008 
L 304.923994 445.161982 
L 305.974421 443.340166 
L 306.454584 443.188348 
L 306.645804 442.723963 
L 306.748923 442.527493 
L 306.839178 442.375675 
L 306.950104 442.098831 
L 307.89291 441.178992 
L 308.13134 441.053966 
L 308.350649 440.75926 
L 308.707837 440.232362 
L 308.915608 439.937657 
L 309.017813 439.723326 
L 309.996421 438.830279 
L 310.10864 438.580225 
L 310.249485 438.348033 
L 310.83525 437.276377 
L 310.88851 437.231724 
L 311.214556 437.097767 
L 311.360492 436.892367 
L 312.311744 435.4367 
L 312.875382 435.097342 
L 312.951741 434.909802 
L 313.077703 434.784776 
L 313.192665 434.499001 
L 313.299388 434.311461 
L 313.572034 433.73098 
L 313.677159 433.570232 
L 314.296827 432.900447 
L 314.423879 432.77542 
L 314.532577 432.605741 
L 314.711899 432.382479 
L 315.268407 431.355475 
L 315.491999 430.998256 
L 315.718971 430.801786 
L 315.937456 430.417776 
L 316.098908 430.11414 
L 317.058225 428.685265 
L 317.56038 428.542377 
L 317.860844 428.176228 
L 317.965982 428.051201 
L 318.203868 427.738635 
L 318.408767 427.515373 
L 318.639239 427.283181 
L 318.809804 427.202807 
L 319.378257 426.774144 
L 319.762953 426.345482 
L 320.805707 426.149011 
L 320.895203 425.890028 
L 320.993254 425.765001 
L 321.102244 425.613183 
L 321.224892 425.425643 
L 321.332889 425.238103 
L 321.449917 424.880885 
L 321.549074 424.523666 
L 321.667898 424.380778 
L 321.796564 423.943185 
L 321.8714 423.773506 
L 321.964805 423.64848 
L 322.040381 423.550245 
L 322.308341 423.425218 
L 322.581489 422.826876 
L 322.733432 422.50538 
L 322.84309 422.282118 
L 322.99639 421.782011 
L 323.578461 420.665703 
L 323.874205 420.540676 
L 323.998022 420.254901 
L 324.106402 420.04057 
L 324.224636 419.808378 
L 324.331931 419.585116 
L 324.475722 419.335063 
L 324.607297 419.210036 
L 324.721401 418.968913 
L 324.85192 418.826026 
L 325.018345 418.567042 
L 325.529583 418.415224 
L 325.691056 418.174102 
L 326.468446 417.173889 
L 327.317847 417.039932 
L 327.500448 416.834531 
L 327.920592 416.566617 
L 328.691327 416.42373 
L 329.746713 415.200255 
L 330.373121 414.950202 
L 330.424746 414.923411 
L 330.561296 414.798384 
L 330.670637 414.271486 
L 330.973785 413.744589 
L 331.266883 413.351648 
L 331.376189 413.155178 
L 331.910216 412.931916 
L 332.00584 412.806889 
L 332.100702 412.655071 
L 332.211384 412.44074 
L 332.392161 412.190687 
L 332.844912 411.48518 
L 332.9413 411.342292 
L 333.421076 411.199405 
L 333.52676 410.958282 
L 333.709469 410.743951 
L 333.806849 410.395662 
L 333.976825 410.16347 
L 334.063882 409.949139 
L 334.191338 409.824112 
L 334.881306 409.163257 
L 335.052028 409.0293 
L 335.294866 408.511333 
L 335.394748 408.288071 
L 335.498237 408.07374 
L 335.592298 407.895131 
L 335.697572 407.618286 
L 335.865133 407.269998 
L 335.970599 407.171763 
L 336.296467 406.903849 
L 336.624379 406.769892 
L 336.732491 406.564491 
L 336.824642 406.439464 
L 336.909325 406.305507 
L 337.018488 406.126898 
L 337.119703 405.948288 
L 337.481291 405.430321 
L 337.583218 405.22492 
L 337.639107 405.082033 
L 337.70535 405.010589 
L 338.25511 404.84091 
L 338.379534 404.564065 
L 338.479831 404.385456 
L 338.534412 404.242569 
L 338.609741 404.099681 
L 338.662931 403.974654 
L 338.770361 403.724601 
L 339.003015 403.287008 
L 339.111613 403.081607 
L 339.998483 402.304657 
L 340.078317 402.117117 
L 340.26069 401.956368 
L 340.411478 401.625941 
L 340.520262 401.366957 
L 340.627432 401.206209 
L 340.73315 401.063321 
L 340.950086 400.822199 
L 341.002614 400.804338 
L 341.178269 400.679311 
L 341.242606 400.456049 
L 341.350868 400.143483 
L 341.738836 399.464767 
L 341.796021 399.312949 
L 341.899728 399.053966 
L 341.98061 398.866426 
L 342.090106 398.616373 
L 342.347123 398.348458 
L 342.451419 398.17878 
L 343.55655 397.214289 
L 343.659412 397.089262 
L 343.773636 396.910653 
L 344.22714 396.544504 
L 344.582538 396.419477 
L 344.813065 396.231937 
L 344.920261 395.937232 
L 345.59093 395.178142 
L 346.263723 395.008463 
L 346.482445 394.865575 
L 346.861554 394.57087 
L 347.132893 394.017181 
L 347.209467 393.838571 
L 347.365573 393.722475 
L 347.587251 393.392048 
L 347.810648 393.043759 
L 347.990766 392.900872 
L 348.879227 391.954242 
L 349.415666 391.73098 
L 349.875099 391.070125 
L 350.099407 390.686115 
L 350.620945 390.159218 
L 350.925403 390.01633 
L 351.180845 389.63232 
L 351.754837 388.819647 
L 351.86155 388.667829 
L 352.127783 388.533872 
L 352.569919 388.399915 
L 353.052841 387.747991 
L 353.40758 387.399702 
L 353.512132 387.16751 
L 353.692344 387.122858 
L 354.04823 386.97104 
L 354.409671 386.176228 
L 354.677833 385.908314 
L 354.772669 385.810079 
L 354.837371 385.658261 
L 354.939198 385.443929 
L 355.062585 385.229598 
L 355.158264 385.059919 
L 355.717859 384.854518 
L 355.823453 384.622326 
L 355.967898 384.470508 
L 356.239953 384.104359 
L 356.393516 383.836445 
L 356.537267 383.622114 
L 356.748824 383.318478 
L 357.321475 383.16666 
L 357.372943 382.98805 
L 357.477624 382.880885 
L 357.862998 382.362917 
L 357.965358 382.175377 
L 358.13614 381.969977 
L 358.245192 381.65741 
L 358.511684 381.514523 
L 358.867221 381.389496 
L 358.978274 381.023347 
L 359.106992 380.817946 
L 359.248084 380.371422 
L 359.423437 380.148161 
L 359.493508 379.987412 
L 359.641573 379.853455 
L 359.913114 379.433723 
L 360.013524 379.317627 
L 360.530354 378.942547 
L 360.641764 378.638911 
L 360.757346 378.487093 
L 360.85572 378.335275 
L 361.063247 378.103083 
L 361.172751 377.85303 
L 361.270377 377.701212 
L 361.475478 377.174314 
L 361.483669 377.102871 
L 361.993821 376.951053 
L 362.203522 376.772443 
L 362.308959 376.397363 
L 362.424722 376.129449 
L 362.520999 375.995492 
L 362.572716 375.870466 
L 362.684335 375.665065 
L 363.221555 374.81667 
L 363.32727 374.646991 
L 363.621465 374.495173 
L 363.724728 374.307633 
L 363.834324 374.039719 
L 363.925479 373.932554 
L 364.081095 373.780736 
L 364.73095 372.976993 
L 365.226313 372.816245 
L 365.369742 372.601914 
L 365.696013 372.208973 
L 365.76103 372.057155 
L 365.832619 371.878546 
L 366.0036 371.744589 
L 366.080781 371.601701 
L 366.222839 371.458814 
L 366.264356 371.342717 
L 366.895031 371.164108 
L 367.313573 370.735445 
L 367.396025 370.556836 
L 367.55005 370.413949 
L 367.667878 370.146034 
L 367.769543 369.851329 
L 367.916182 369.583415 
L 367.982352 369.49411 
L 368.413428 369.360153 
L 368.466523 369.190474 
L 368.557668 368.904699 
L 368.68054 368.73502 
L 368.78563 368.529619 
L 369.415583 367.556198 
L 369.436367 367.475824 
L 370.00904 367.341867 
L 370.03166 367.297215 
L 370.379399 367.163257 
L 370.640864 366.797108 
L 370.947183 366.600638 
L 371.041084 366.466681 
L 371.144116 366.323793 
L 371.209742 366.207697 
L 371.863738 366.029088 
L 371.996116 365.662939 
L 372.100658 365.243206 
L 372.354286 364.93957 
L 372.447762 364.73417 
L 372.524504 364.591282 
L 372.596727 364.457325 
L 373.03475 364.260855 
L 373.188628 364.091176 
L 373.269077 363.921497 
L 373.375469 363.644652 
L 373.509567 363.376738 
L 373.619788 363.046311 
L 373.717504 362.83198 
L 373.850381 362.590857 
L 374.485006 361.912141 
L 374.78974 361.787115 
L 374.855778 361.608505 
L 374.96656 361.385243 
L 375.036586 361.188773 
L 375.150978 361.028025 
L 375.627245 360.438614 
L 375.746877 360.17963 
L 375.857344 360.126047 
L 376.331965 359.99209 
L 376.67396 359.536636 
L 376.76622 359.340166 
L 376.858822 359.188348 
L 376.968961 358.893642 
L 377.169822 358.536424 
L 377.276432 358.438188 
L 377.425314 358.232788 
L 377.513213 358.107761 
L 377.885602 357.866638 
L 377.990467 357.616585 
L 378.517807 357.009313 
L 378.621404 356.616373 
L 378.764751 356.402041 
L 378.876573 356.303806 
L 379.254808 355.893004 
L 379.516268 355.767978 
L 379.622133 355.607229 
L 379.727024 355.41969 
L 380.10177 354.758835 
L 380.5792 354.09798 
L 381.159677 353.937232 
L 381.262937 353.731831 
L 381.355991 353.597874 
L 381.500748 353.347821 
L 381.589868 353.14242 
L 381.694287 352.990602 
L 381.901719 352.553009 
L 381.969542 352.311886 
L 382.06254 351.990389 
L 382.17117 351.829641 
L 382.485202 351.481352 
L 382.673695 351.356326 
L 382.784359 351.284882 
L 382.859691 351.159855 
L 382.946013 350.909802 
L 383.050502 350.775845 
L 383.425472 350.150712 
L 383.481363 350.025686 
L 383.519573 349.838146 
L 383.626435 349.597023 
L 385.403226 347.185796 
L 385.961437 347.06077 
L 386.095824 346.87323 
L 386.19882 346.667829 
L 386.286743 346.507081 
L 386.712335 346.042696 
L 386.781508 345.935531 
L 387.049662 345.774782 
L 387.123881 345.756921 
L 387.700648 345.631895 
L 387.908984 345.283606 
L 387.965082 345.113927 
L 388.069097 344.962109 
L 388.225103 344.837083 
L 388.422895 344.747778 
L 388.504276 344.58703 
L 388.60682 344.229811 
L 388.654092 344.042271 
L 388.753525 343.711844 
L 389.060114 343.408208 
L 389.14133 343.176015 
L 389.338434 343.050989 
L 389.467751 342.899171 
L 389.577473 342.658048 
L 389.73868 342.50623 
L 390.084367 341.979332 
L 390.204671 341.907889 
L 390.27359 341.872167 
L 390.617918 341.74714 
L 391.128167 341.005911 
L 391.234833 340.898745 
L 391.680341 340.255752 
L 392.134675 340.121795 
L 392.444798 339.603827 
L 392.552299 339.416287 
L 392.7517 339.023347 
L 392.845499 338.89832 
L 392.966785 338.755433 
L 393.061889 338.532171 
L 393.165189 338.371422 
L 393.282248 338.183883 
L 393.792568 337.94276 
L 394.473216 336.781799 
L 394.560076 336.61212 
L 394.680772 336.41565 
L 394.827666 336.22811 
L 394.918485 336.129875 
L 395.312677 335.978057 
L 395.421758 335.826239 
L 395.937605 334.852817 
L 396.250164 334.183032 
L 396.413855 333.879396 
L 396.524863 333.7633 
L 396.932642 333.611482 
L 397.094755 333.254263 
L 397.433298 332.798809 
L 397.540082 332.575548 
L 397.839703 331.950415 
L 397.952631 331.646779 
L 398.076742 331.566404 
L 398.500286 331.405656 
L 398.616103 331.244908 
L 398.764869 330.860897 
L 398.816235 330.71801 
L 398.914664 330.575122 
L 399.11453 330.325069 
L 399.22373 329.914267 
L 399.458697 329.467744 
L 399.565641 329.280204 
L 399.995491 328.940846 
L 400.09381 328.806889 
L 400.230248 328.521114 
L 400.341631 328.297852 
L 400.45135 328.137104 
L 400.629439 327.87812 
L 400.737362 327.645928 
L 400.768352 327.49411 
L 400.866606 327.172613 
L 401.041764 326.985073 
L 401.329737 326.54748 
L 401.438711 326.270636 
L 401.770669 325.859834 
L 402.087925 325.136466 
L 402.190931 324.904274 
L 402.286857 324.672082 
L 402.390826 324.395237 
L 402.851934 324.145184 
L 403.271765 324.020157 
L 403.421138 323.814757 
L 403.67003 323.609356 
L 403.779988 323.475399 
L 403.912513 323.323581 
L 404.697199 322.805613 
L 404.972113 322.671656 
L 405.304809 322.385881 
L 405.673252 322.234063 
L 406.868213 321.79647 
L 406.9981 321.716096 
L 407.093419 321.59107 
L 407.170148 321.358877 
L 407.269389 321.171337 
L 407.373209 321.010589 
L 407.538184 320.778397 
L 407.644857 320.447969 
L 407.716842 320.27829 
L 407.806721 320.010376 
L 407.858958 319.88535 
L 407.961121 319.813906 
L 408.137128 319.617436 
L 409.004917 318.322518 
L 409.705373 318.108186 
L 409.804821 318.045673 
L 410.397809 317.80455 
L 410.506737 317.706315 
L 410.740027 317.688454 
L 411.521334 317.572358 
L 411.994051 316.723963 
L 412.430288 316.348884 
L 412.805486 316.188135 
L 413.843629 314.777121 
L 414.195593 314.464555 
L 414.455411 314.339528 
L 415.128818 313.544716 
L 415.316119 313.169636 
L 415.450953 312.973166 
L 415.533279 312.839209 
L 416.185457 312.535573 
L 416.469889 312.205146 
L 416.575039 312.035467 
L 416.659631 311.91044 
L 416.767323 311.767553 
L 417.12945 311.169211 
L 417.671232 311.008463 
L 417.780378 310.669105 
L 419.021296 309.347395 
L 419.241766 309.213438 
L 419.559928 308.543653 
L 419.669054 308.365044 
L 420.630337 307.1505 
L 420.876325 306.989751 
L 420.957898 306.837933 
L 421.057535 306.695046 
L 421.183484 306.453923 
L 421.946106 305.435849 
L 422.591459 305.275101 
L 422.724061 305.096492 
L 422.81971 304.944674 
L 422.929004 304.757134 
L 423.046988 304.533872 
L 423.297552 303.908739 
L 423.360595 303.756921 
L 423.498195 303.444355 
L 423.638786 303.274676 
L 423.736087 303.104997 
L 423.903432 302.935318 
L 424.128074 302.560238 
L 424.232511 302.22088 
L 424.391101 301.899383 
L 424.520053 301.6404 
L 425.060213 301.113502 
L 425.611066 300.988475 
L 426.688256 300.416925 
L 427.1759 300.291899 
L 427.382996 300.157942 
L 427.533072 299.952541 
L 427.680896 299.773932 
L 428.677621 299.291686 
L 428.830724 299.157729 
L 428.927275 298.863024 
L 428.989118 298.737997 
L 429.078516 298.327195 
L 429.174058 298.184308 
L 429.278038 297.969977 
L 429.335158 297.791367 
L 429.424644 297.514523 
L 429.633094 297.353774 
L 430.324333 296.934042 
L 430.73716 296.067787 
L 431.067727 295.55875 
L 431.174973 295.38014 
L 431.641016 294.978269 
L 431.892428 294.844312 
L 432.934192 293.47795 
L 432.982743 293.424367 
L 433.411495 293.28148 
L 433.560781 293.102871 
L 433.650406 293.004635 
L 433.73196 292.870678 
L 434.031214 292.459877 
L 434.141106 292.308059 
L 434.392875 291.924048 
L 434.541526 291.611482 
L 435.017627 291.397151 
L 435.18314 291.084584 
L 435.337306 290.923836 
L 435.42001 290.789879 
L 435.806642 290.003997 
L 435.847592 289.87004 
L 435.958464 289.67357 
L 436.088939 289.521752 
L 436.185885 289.459239 
L 436.611246 289.316351 
L 436.64687 289.155603 
L 436.7541 288.91448 
L 436.958896 288.584053 
L 437.069114 288.360791 
L 437.30259 287.842824 
L 437.766181 287.271274 
L 438.145955 287.101595 
L 438.256871 287.02122 
L 438.368333 286.869403 
L 438.51109 286.726515 
L 438.961756 286.217478 
L 439.453746 285.87812 
L 439.827337 285.663789 
L 439.956828 285.404805 
L 440.938738 283.913417 
L 441.266199 283.797321 
L 441.522145 283.449033 
L 441.631759 283.261493 
L 441.98041 282.63636 
L 442.306831 282.216628 
L 442.42174 282.046949 
L 442.891982 281.743313 
L 443.109542 281.546842 
L 443.340718 281.278928 
L 443.447397 281.037806 
L 443.57353 280.885988 
L 443.681427 280.752031 
L 443.814866 280.493047 
L 443.920854 280.305507 
L 444.222813 280.144759 
L 444.595842 279.957219 
L 445.928813 278.340804 
L 446.261378 278.188986 
L 446.713801 277.331661 
L 446.933583 277.188773 
L 446.99553 277.081607 
L 447.803949 276.849415 
L 448.103702 276.492196 
L 448.464062 276.331448 
L 449.702809 275.786689 
L 449.807324 275.358027 
L 449.860874 275.188348 
L 449.991787 274.947225 
L 450.100073 274.759685 
L 450.166436 274.536424 
L 450.276218 274.250649 
L 450.359886 274.063109 
L 450.463895 273.938082 
L 450.683317 273.813055 
L 450.915509 273.679098 
L 451.025869 273.589794 
L 451.149628 273.437976 
L 451.340788 273.259366 
L 451.547622 273.089687 
L 452.065172 272.419902 
L 452.579343 272.232362 
L 452.68116 272.018031 
L 452.824158 271.8037 
L 453.012263 271.580438 
L 453.238595 271.401829 
L 453.338487 271.23215 
L 453.539272 271.098193 
L 453.723047 270.955305 
L 454.067428 270.723113 
L 454.178184 270.517712 
L 454.409752 270.205146 
L 454.579639 269.955092 
L 454.839455 269.633596 
L 455.250562 269.008463 
L 455.89785 268.686966 
L 456.022851 268.606592 
L 456.708925 267.981459 
L 456.820081 267.838571 
L 457.356368 267.686753 
L 457.644756 267.365256 
L 458.736585 266.534723 
L 458.960045 266.400765 
L 459.169559 266.123921 
L 459.480015 265.739911 
L 459.654594 265.471997 
L 459.764746 265.266596 
L 459.991183 265.079056 
L 460.481766 264.945099 
L 460.607636 264.739698 
L 460.737678 264.596811 
L 460.945735 264.328896 
L 461.769063 263.471571 
L 462.382686 263.266171 
L 462.487858 262.980395 
L 462.671444 262.632107 
L 462.781748 262.453498 
L 462.978482 262.185584 
L 463.090443 261.953391 
L 463.367755 261.864087 
L 463.731375 261.73906 
L 463.833121 261.524729 
L 463.941039 261.319328 
L 464.466693 260.515586 
L 464.655564 260.283394 
L 464.751426 260.21195 
L 465.135858 260.051201 
L 465.367798 259.738635 
L 465.484763 259.568956 
L 466.7019 258.211525 
L 467.09001 257.916819 
L 467.1995 257.729279 
L 467.585394 257.273825 
L 467.665956 257.157729 
L 467.799778 257.014842 
L 468.748407 256.541527 
L 468.853135 256.461152 
L 469.11141 256.255752 
L 469.642032 256.050351 
L 470.050501 255.907463 
L 470.938434 255.210887 
L 471.00175 255.166234 
L 471.654136 254.951903 
L 471.757942 254.782224 
L 471.859376 254.558962 
L 471.972124 254.094578 
L 472.120932 253.924899 
L 472.232182 253.648054 
L 472.280376 253.460515 
L 472.386067 253.17474 
L 472.46837 253.013991 
L 472.654059 252.79966 
L 472.904975 252.665703 
L 472.98671 252.61212 
L 473.236164 252.451371 
L 473.365481 252.210249 
L 473.548653 252.004848 
L 473.64687 251.85303 
L 473.714911 251.710142 
L 473.826557 251.415437 
L 473.937143 251.272549 
L 474.567302 250.861748 
L 474.826869 250.727791 
L 474.927226 250.620625 
L 475.350471 250.218754 
L 475.460113 250.13838 
L 475.623159 249.977631 
L 475.751205 249.7633 
L 475.852668 249.584691 
L 476.42289 249.245333 
L 476.52901 249.129237 
L 476.702215 248.852392 
L 476.796915 248.736296 
L 476.957358 248.539826 
L 477.129865 248.343355 
L 477.234835 248.173676 
L 477.339626 247.986137 
L 477.622763 247.852179 
L 478.026336 247.727153 
L 478.146735 247.414586 
L 478.415186 247.137742 
L 478.671324 246.762662 
L 478.7812 246.682288 
L 478.956624 246.476887 
L 479.045146 246.432235 
L 479.5167 246.235764 
L 479.740955 245.842824 
L 479.847926 245.646353 
L 479.942265 245.512396 
L 480.060892 245.351648 
L 480.706253 244.494323 
L 481.139495 244.315713 
L 481.349153 244.021008 
L 481.617688 243.788816 
L 481.719216 243.529832 
L 481.980654 243.235127 
L 482.092587 243.172613 
L 482.126777 243.029726 
L 482.494345 242.851116 
L 482.766086 242.708229 
L 483.050509 242.35994 
L 483.141769 242.252775 
L 483.25409 242.118818 
L 483.409075 241.913417 
L 483.973998 241.109675 
L 484.363614 240.957857 
L 485.578628 240.511333 
L 485.983812 240.386307 
L 486.17429 240.243419 
L 486.516041 239.87727 
L 486.615182 239.662939 
L 486.732872 239.511121 
L 486.947605 239.234276 
L 487.133759 239.144971 
L 487.503861 239.019945 
L 487.575701 238.805613 
L 487.682448 238.618074 
L 488.6625 237.823262 
L 489.057191 237.707166 
L 490.208921 236.65337 
L 490.731157 236.474761 
L 491.86931 235.563853 
L 492.693193 235.376313 
L 492.888961 235.197704 
L 493.010113 235.117329 
L 494.645885 234.108186 
L 494.853446 233.768828 
L 494.949825 233.625941 
L 495.469772 233.286583 
L 495.578546 233.116904 
L 495.979869 232.581076 
L 496.153082 232.420327 
L 496.41256 232.125622 
L 496.578514 231.973804 
L 497.04414 231.768403 
L 498.54475 230.268084 
L 498.86344 230.116266 
L 499.323584 229.634021 
L 500.216897 228.928514 
L 500.325059 228.803487 
L 500.431152 228.589156 
L 501.466182 227.33889 
L 501.75814 227.187072 
L 502.124212 226.624452 
L 502.234309 226.544078 
L 502.549307 226.240442 
L 502.661573 226.168999 
L 502.764629 225.99932 
L 503.482778 225.579587 
L 503.584014 225.44563 
L 503.710155 225.222369 
L 503.816784 225.141994 
L 504.037112 224.793706 
L 504.220973 224.543653 
L 504.320635 224.382905 
L 504.432892 224.132851 
L 504.987481 223.954242 
L 505.125173 223.748841 
L 505.263635 223.597023 
L 505.369017 223.373761 
L 505.495955 223.195152 
L 505.959053 222.427132 
L 506.048541 222.239592 
L 506.578813 222.034191 
L 506.688947 221.668042 
L 506.829989 221.435849 
L 506.933415 221.105422 
L 507.094886 220.908952 
L 507.239984 220.748203 
L 507.872128 220.12307 
L 508.190681 219.989113 
L 508.309988 219.756921 
L 508.377302 219.587242 
L 508.479466 219.435424 
L 508.556181 219.221093 
L 508.652458 218.953179 
L 508.738447 218.79243 
L 508.891138 218.515586 
L 508.993372 218.319115 
L 509.113114 218.158367 
L 509.471087 218.006549 
L 509.70444 217.881522 
L 510.41042 217.488582 
L 510.792822 217.229598 
L 511.328621 217.050989 
L 512.466399 215.595322 
L 512.926582 215.461365 
L 513.030977 215.318478 
L 513.18172 215.202381 
L 513.324172 214.98805 
L 513.441783 214.764788 
L 513.55429 214.711206 
L 513.817821 214.452222 
L 514.594691 213.764576 
L 514.706077 213.523453 
L 514.905195 213.300191 
L 515.012879 213.130512 
L 515.103228 212.88939 
L 515.272272 212.70185 
L 515.418725 212.344631 
L 515.490665 212.1303 
L 515.868643 211.987412 
L 516.180709 211.621263 
L 516.284713 211.514097 
L 516.346291 211.37121 
L 516.421896 211.246183 
L 516.618157 211.112226 
L 516.7256 210.951478 
L 517.499054 210.147735 
L 517.624436 210.013778 
L 517.822588 209.549394 
L 517.933307 209.415437 
L 518.104412 209.174314 
L 518.21007 209.022496 
L 518.857105 208.433085 
L 519.199691 208.281267 
L 519.301093 208.13838 
L 519.57046 207.807952 
L 519.671544 207.620413 
L 519.801759 207.406081 
L 520.059735 206.968488 
L 520.242738 206.754157 
L 520.382951 206.611269 
L 521.111533 205.968276 
L 521.203202 205.789666 
L 521.341619 205.655709 
L 521.449994 205.343143 
L 521.69699 205.021646 
L 521.801613 204.878758 
L 522.412671 204.441165 
L 523.112718 203.190899 
L 523.168252 203.030151 
L 523.267433 202.887263 
L 523.401985 202.672932 
L 523.492087 202.44967 
L 523.926789 202.262131 
L 524.051509 202.119243 
L 524.15451 201.895981 
L 524.664602 201.324431 
L 524.783856 201.190474 
L 525.186313 200.54748 
L 525.591758 200.35994 
L 525.690285 200.270636 
L 525.85144 200.109887 
L 525.93977 200.011652 
L 526.076055 199.868765 
L 526.816821 199.449033 
L 527.338532 199.288284 
L 527.432475 199.109675 
L 527.58551 198.948926 
L 527.67718 198.654221 
L 527.772 198.529194 
L 527.863979 198.332724 
L 528.025008 198.154114 
L 528.129516 197.939783 
L 528.230044 197.814757 
L 528.329091 197.546842 
L 529.022936 197.153902 
L 529.166247 197.028875 
L 529.683758 196.868127 
L 529.713839 196.841335 
L 530.778923 196.644865 
L 531.189348 196.394812 
L 531.297133 196.135828 
L 531.403163 195.885775 
L 531.495581 195.707166 
L 531.933669 195.421391 
L 534.30115 193.224495 
L 534.399706 193.081607 
L 534.491076 192.894068 
L 534.641021 192.617223 
L 535.073919 192.36717 
L 535.162724 192.206421 
L 535.27399 192.063534 
L 535.467552 191.80455 
L 535.592635 191.599149 
L 535.730027 191.42054 
L 535.780692 191.295514 
L 535.832078 191.22407 
L 536.071466 191.090113 
L 536.283647 190.956156 
L 536.705046 190.813268 
L 537.775649 189.232575 
L 538.357271 188.902148 
L 538.469093 188.678886 
L 538.855231 188.241293 
L 538.96452 188.116266 
L 540.556703 186.937444 
L 540.662641 186.749904 
L 540.706322 186.607017 
L 541.057957 186.196215 
L 541.455796 186.053328 
L 541.56126 185.892579 
L 541.693486 185.71397 
L 542.263564 184.651244 
L 542.41924 184.508356 
L 542.527252 184.38333 
L 543.385955 183.659962 
L 543.478837 183.400978 
L 543.624143 183.222369 
L 543.736091 182.963385 
L 543.84764 182.659749 
L 544.031793 182.499001 
L 544.314886 182.311461 
L 544.683 182.177504 
L 544.784502 182.007825 
L 544.92939 181.748841 
L 545.030044 181.552371 
L 545.381443 181.1505 
L 545.497106 180.891516 
L 545.636266 180.650393 
L 545.729224 180.525367 
L 546.171217 180.337827 
L 546.449712 179.989539 
L 546.561061 179.757346 
L 546.806275 179.346545 
L 546.963353 179.159005 
L 547.095747 178.792856 
L 547.190748 178.578524 
L 547.290478 178.435637 
L 547.852725 178.167723 
L 548.085431 177.801573 
L 548.210955 177.658686 
L 548.392423 177.230023 
L 548.513793 177.015692 
L 548.625961 176.703126 
L 548.742194 176.506655 
L 548.837872 176.229811 
L 550.097349 175.622539 
L 550.181082 175.506443 
L 550.7445 175.247459 
L 550.957304 175.158154 
L 551.282838 175.015267 
L 551.38493 174.756283 
L 551.473725 174.577674 
L 551.582315 174.041846 
L 552.079487 173.479226 
L 552.89365 173.050563 
L 552.953648 172.970189 
L 553.150437 172.827302 
L 553.713324 172.139656 
L 554.130528 171.996768 
L 554.260333 171.862811 
L 554.367768 171.693132 
L 554.448564 171.550245 
L 554.56733 171.496662 
L 554.65336 171.380566 
L 554.757143 171.157304 
L 554.913762 170.960834 
L 555.025605 170.737572 
L 555.132087 170.612545 
L 555.806778 170.228535 
L 555.886919 170.13923 
L 556.036184 169.987412 
L 556.337948 169.728429 
L 557.30077 168.960408 
L 557.49335 168.692494 
L 557.600727 168.522815 
L 557.681893 168.379928 
L 558.459656 167.013566 
L 559.014824 166.629556 
L 559.096946 166.549181 
L 559.303031 166.406294 
L 559.415084 166.013353 
L 560.198557 165.129237 
L 560.563689 164.959558 
L 560.673172 164.798809 
L 560.798081 164.736296 
L 560.94775 164.593408 
L 561.068089 164.370147 
L 561.286529 164.075441 
L 561.393195 163.887901 
L 561.674237 163.67357 
L 562.167639 163.432447 
L 562.286576 163.191325 
L 562.56888 162.994854 
L 563.570888 162.280417 
L 563.77732 162.092877 
L 563.871161 161.95892 
L 563.981956 161.816032 
L 564.154017 161.512396 
L 564.262213 161.351648 
L 564.367816 161.137317 
L 564.438827 160.985499 
L 564.548509 160.753306 
L 564.686936 160.503253 
L 564.848551 160.279991 
L 565.273969 159.994216 
L 565.40887 159.815607 
L 565.543927 159.628067 
L 565.645796 159.449458 
L 565.761826 159.261918 
L 565.861955 158.815394 
L 565.994769 158.609994 
L 566.107691 158.145609 
L 566.260253 157.940208 
L 566.396465 157.761599 
L 566.673981 157.663364 
L 567.625017 157.40438 
L 567.715689 157.332936 
L 567.87959 157.20791 
L 567.951541 157.145397 
L 568.417842 156.984648 
L 568.575886 156.788178 
L 568.917072 156.45775 
L 569.703687 155.87727 
L 570.106793 155.743313 
L 570.395861 155.252137 
L 570.657556 155.019945 
L 570.76686 154.859196 
L 570.825873 154.698448 
L 570.928538 154.618074 
L 571.026288 154.412673 
L 571.112891 154.242994 
L 571.650976 154.064384 
L 571.774216 153.912566 
L 571.937193 153.769679 
L 572.028666 153.626791 
L 572.17755 153.466043 
L 572.262386 153.394599 
L 572.386106 153.251712 
L 572.493396 153.108824 
L 572.634943 152.957006 
L 572.805373 152.903423 
L 572.947591 152.769466 
L 573.425787 152.394387 
L 573.524986 152.26936 
L 573.844524 152.046098 
L 573.947772 151.956794 
L 574.575592 151.545992 
L 574.952974 151.394174 
L 575.054762 151.3138 
L 575.211047 151.153051 
L 575.311239 151.054816 
L 575.59641 150.867276 
L 575.727718 150.804763 
L 576.383013 150.536849 
L 577.380835 150.045673 
L 577.479047 149.956368 
L 577.838464 149.786689 
L 578.159735 149.483053 
L 578.267091 149.295514 
L 578.472961 148.768616 
L 578.582024 148.27744 
L 578.711163 148.08097 
L 578.809671 147.795195 
L 578.992194 147.607655 
L 579.091742 147.50942 
L 579.641448 147.339741 
L 579.743808 147.241505 
L 579.900421 147.018244 
L 580.538229 146.259154 
L 581.026745 145.955518 
L 581.21482 145.81263 
L 581.412352 145.669743 
L 581.507669 145.562577 
L 581.745623 145.366107 
L 581.856062 145.276802 
L 582.187335 144.955305 
L 582.286502 144.883861 
L 583.481151 144.151563 
L 583.567139 143.892579 
L 583.667861 143.758622 
L 583.830263 143.490708 
L 584.737278 143.017393 
L 584.888992 142.910228 
L 585.121446 142.704827 
L 585.207608 142.633383 
L 585.236487 142.508356 
L 585.298477 142.347608 
L 585.410288 142.168999 
L 585.853499 141.82071 
L 586.024646 141.677823 
L 586.110254 141.588518 
L 586.307143 141.4367 
L 586.414486 141.258091 
L 586.700847 140.891941 
L 586.809145 140.722262 
L 588.171234 139.882798 
L 588.271932 139.775633 
L 588.329588 139.605954 
L 588.455857 139.364831 
L 589.216786 138.793281 
L 589.323924 138.695046 
L 589.602924 138.382479 
L 589.784307 138.177078 
L 589.908909 138.01633 
L 590.008578 137.944886 
L 590.77768 137.462641 
L 590.879714 137.284031 
L 591.040623 137.141144 
L 591.509173 136.551733 
L 591.613728 136.426706 
L 593.674795 135.337189 
L 594.149518 135.203232 
L 594.260308 134.837083 
L 594.45549 134.694195 
L 594.550594 134.453073 
L 595.004432 134.122645 
L 595.092927 134.060132 
L 595.509139 133.810079 
L 595.70194 133.577886 
L 596.017875 133.122432 
L 596.18012 132.952754 
L 596.967801 132.50623 
L 597.060836 132.381203 
L 597.199014 132.256177 
L 597.410214 132.068637 
L 597.519011 131.988263 
L 597.720681 131.818584 
L 597.85108 131.666766 
L 597.954025 131.55067 
L 599.368765 130.282543 
L 599.474468 130.03249 
L 599.868547 129.755645 
L 600.253532 129.523453 
L 600.536163 129.362705 
L 600.704792 129.228748 
L 600.807572 129.103721 
L 600.912125 128.969764 
L 601.021114 128.862598 
L 601.525401 128.603615 
L 601.862436 128.416075 
L 601.972586 128.31784 
L 602.752381 127.630193 
L 602.852273 127.487306 
L 603.44626 127.255114 
L 603.532296 127.165809 
L 603.673774 127.031852 
L 603.927641 126.790729 
L 604.23092 126.487093 
L 604.314897 126.41565 
L 605.142817 126.076292 
L 605.32125 125.933404 
L 605.700451 125.728003 
L 605.941961 125.495811 
L 606.036437 125.370785 
L 606.381441 125.120731 
L 606.614045 124.977844 
L 606.79913 124.790304 
L 608.055225 123.691856 
L 608.208711 123.548969 
L 608.315464 123.397151 
L 608.463697 123.263194 
L 608.538695 123.102445 
L 608.719451 122.959558 
L 608.842053 122.789879 
L 609.840196 122.388008 
L 610.076812 122.04865 
L 610.18448 121.950415 
L 610.505969 121.700361 
L 610.585966 121.646779 
L 610.736601 121.503891 
L 610.830526 121.29849 
L 611.454327 121.075229 
L 611.654939 120.887689 
L 611.764062 120.789454 
L 612.283883 120.387582 
L 612.390929 120.244695 
L 612.582735 120.173251 
L 612.933068 119.994642 
L 613.070409 119.798171 
L 613.201847 119.646353 
L 613.306129 119.458814 
L 613.341797 119.342717 
L 613.438314 119.253413 
L 613.512448 119.083734 
L 613.603031 118.967638 
L 613.853372 118.762237 
L 613.95982 118.655071 
L 614.184593 118.503253 
L 614.604081 118.297852 
L 614.697044 118.208548 
L 614.841954 118.06566 
L 614.934807 117.994216 
L 615.169541 117.797746 
L 615.257044 117.735233 
L 615.292696 117.619137 
L 615.382875 117.574484 
L 615.449047 117.449458 
L 615.545813 117.30657 
L 616.245413 116.91363 
L 616.354617 116.788603 
L 616.519792 116.601063 
L 616.601089 116.493898 
L 616.787783 116.34208 
L 616.982041 116.181331 
L 617.783154 115.725877 
L 617.88591 115.565129 
L 618.062059 115.386519 
L 618.169793 115.172188 
L 618.280583 115.038231 
L 618.367661 114.8239 
L 618.562639 114.689943 
L 618.671736 114.654221 
L 619.751296 114.207697 
L 620.153228 113.645078 
L 620.251004 113.511121 
L 620.361091 113.403955 
L 620.527431 113.189624 
L 620.622422 113.011014 
L 620.918329 112.787752 
L 621.029027 112.716309 
L 621.158528 112.627004 
L 621.586829 112.350159 
L 621.764868 112.216202 
L 622.255891 111.992941 
L 622.501622 111.742888 
L 622.636364 111.6 
L 622.636364 111.6 
" style="fill:none;stroke:#92c6ff;stroke-linecap:round;stroke-width:1.5;"/>
   </g>
   <g id="line2d_26">
    <defs>
     <path d="M 0 2.5 
C 0.663008 2.5 1.29895 2.236584 1.767767 1.767767 
C 2.236584 1.29895 2.5 0.663008 2.5 0 
C 2.5 -0.663008 2.236584 -1.29895 1.767767 -1.767767 
C 1.29895 -2.236584 0.663008 -2.5 0 -2.5 
C -0.663008 -2.5 -1.29895 -2.236584 -1.767767 -1.767767 
C -2.236584 -1.29895 -2.5 -0.663008 -2.5 0 
C -2.5 0.663008 -2.236584 1.29895 -1.767767 1.767767 
C -1.29895 2.236584 -0.663008 2.5 0 2.5 
z
" id="m76904ba6dd" style="stroke:#696969;"/>
    </defs>
    <g clip-path="url(#p42281ae33f)">
     <use style="fill:#696969;stroke:#696969;" x="115.363636" xlink:href="#m76904ba6dd" y="615.6"/>
    </g>
   </g>
   <g id="line2d_27">
    <g clip-path="url(#p42281ae33f)">
     <use style="fill:#696969;stroke:#696969;" x="196.295346" xlink:href="#m76904ba6dd" y="565.196428"/>
    </g>
   </g>
   <g id="line2d_28">
    <g clip-path="url(#p42281ae33f)">
     <use style="fill:#696969;stroke:#696969;" x="240.629158" xlink:href="#m76904ba6dd" y="514.792856"/>
    </g>
   </g>
   <g id="line2d_29">
    <g clip-path="url(#p42281ae33f)">
     <use style="fill:#696969;stroke:#696969;" x="290.658287" xlink:href="#m76904ba6dd" y="464.389283"/>
    </g>
   </g>
   <g id="line2d_30">
    <g clip-path="url(#p42281ae33f)">
     <use style="fill:#696969;stroke:#696969;" x="330.7921" xlink:href="#m76904ba6dd" y="413.985711"/>
    </g>
   </g>
   <g id="line2d_31">
    <g clip-path="url(#p42281ae33f)">
     <use style="fill:#696969;stroke:#696969;" x="373.417648" xlink:href="#m76904ba6dd" y="363.582139"/>
    </g>
   </g>
   <g id="line2d_32">
    <g clip-path="url(#p42281ae33f)">
     <use style="fill:#696969;stroke:#696969;" x="415.295009" xlink:href="#m76904ba6dd" y="313.178567"/>
    </g>
   </g>
   <g id="line2d_33">
    <g clip-path="url(#p42281ae33f)">
     <use style="fill:#696969;stroke:#696969;" x="462.601523" xlink:href="#m76904ba6dd" y="262.774995"/>
    </g>
   </g>
   <g id="line2d_34">
    <g clip-path="url(#p42281ae33f)">
     <use style="fill:#696969;stroke:#696969;" x="515.404543" xlink:href="#m76904ba6dd" y="212.380353"/>
    </g>
   </g>
   <g id="line2d_35">
    <g clip-path="url(#p42281ae33f)">
     <use style="fill:#696969;stroke:#696969;" x="563.851106" xlink:href="#m76904ba6dd" y="161.985711"/>
    </g>
   </g>
   <g id="line2d_36">
    <g clip-path="url(#p42281ae33f)">
     <use style="fill:#696969;stroke:#696969;" x="622.636364" xlink:href="#m76904ba6dd" y="111.6"/>
    </g>
   </g>
   <g id="patch_3">
    <path d="M 90 640.8 
L 90 86.4 
" style="fill:none;stroke:#cccccc;stroke-linecap:square;stroke-linejoin:miter;"/>
   </g>
   <g id="patch_4">
    <path d="M 648 640.8 
L 648 86.4 
" style="fill:none;stroke:#cccccc;stroke-linecap:square;stroke-linejoin:miter;"/>
   </g>
   <g id="patch_5">
    <path d="M 90 640.8 
L 648 640.8 
" style="fill:none;stroke:#cccccc;stroke-linecap:square;stroke-linejoin:miter;"/>
   </g>
   <g id="patch_6">
    <path d="M 90 86.4 
L 648 86.4 
" style="fill:none;stroke:#cccccc;stroke-linecap:square;stroke-linejoin:miter;"/>
   </g>
   <g id="text_13">
    <!-- 1 (2014-06-07) -->
    <defs>
     <path id="DejaVuSans-32"/>
     <path d="M 31 75.875 
Q 24.46875 64.65625 21.28125 53.65625 
Q 18.109375 42.671875 18.109375 31.390625 
Q 18.109375 20.125 21.3125 9.0625 
Q 24.515625 -2 31 -13.1875 
L 23.1875 -13.1875 
Q 15.875 -1.703125 12.234375 9.375 
Q 8.59375 20.453125 8.59375 31.390625 
Q 8.59375 42.28125 12.203125 53.3125 
Q 15.828125 64.359375 23.1875 75.875 
z
" id="DejaVuSans-40"/>
     <path d="M 4.890625 31.390625 
L 31.203125 31.390625 
L 31.203125 23.390625 
L 4.890625 23.390625 
z
" id="DejaVuSans-45"/>
     <path d="M 8.015625 75.875 
L 15.828125 75.875 
Q 23.140625 64.359375 26.78125 53.3125 
Q 30.421875 42.28125 30.421875 31.390625 
Q 30.421875 20.453125 26.78125 9.375 
Q 23.140625 -1.703125 15.828125 -13.1875 
L 8.015625 -13.1875 
Q 14.5 -2 17.703125 9.0625 
Q 20.90625 20.125 20.90625 31.390625 
Q 20.90625 42.671875 17.703125 53.65625 
Q 14.5 64.65625 8.015625 75.875 
z
" id="DejaVuSans-41"/>
    </defs>
    <g style="fill:#262626;" transform="translate(120.363636 623.198437)scale(0.1 -0.1)">
     <use xlink:href="#DejaVuSans-49"/>
     <use x="63.623047" xlink:href="#DejaVuSans-32"/>
     <use x="95.410156" xlink:href="#DejaVuSans-40"/>
     <use x="134.423828" xlink:href="#DejaVuSans-50"/>
     <use x="198.046875" xlink:href="#DejaVuSans-48"/>
     <use x="261.669922" xlink:href="#DejaVuSans-49"/>
     <use x="325.292969" xlink:href="#DejaVuSans-52"/>
     <use x="388.916016" xlink:href="#DejaVuSans-45"/>
     <use x="425" xlink:href="#DejaVuSans-48"/>
     <use x="488.623047" xlink:href="#DejaVuSans-54"/>
     <use x="552.246094" xlink:href="#DejaVuSans-45"/>
     <use x="588.330078" xlink:href="#DejaVuSans-48"/>
     <use x="651.953125" xlink:href="#DejaVuSans-55"/>
     <use x="715.576172" xlink:href="#DejaVuSans-41"/>
    </g>
   </g>
   <g id="text_14">
    <!-- 5645 (2015-05-29) -->
    <g style="fill:#262626;" transform="translate(201.295346 572.794865)scale(0.1 -0.1)">
     <use xlink:href="#DejaVuSans-53"/>
     <use x="63.623047" xlink:href="#DejaVuSans-54"/>
     <use x="127.246094" xlink:href="#DejaVuSans-52"/>
     <use x="190.869141" xlink:href="#DejaVuSans-53"/>
     <use x="254.492188" xlink:href="#DejaVuSans-32"/>
     <use x="286.279297" xlink:href="#DejaVuSans-40"/>
     <use x="325.292969" xlink:href="#DejaVuSans-50"/>
     <use x="388.916016" xlink:href="#DejaVuSans-48"/>
     <use x="452.539062" xlink:href="#DejaVuSans-49"/>
     <use x="516.162109" xlink:href="#DejaVuSans-53"/>
     <use x="579.785156" xlink:href="#DejaVuSans-45"/>
     <use x="615.869141" xlink:href="#DejaVuSans-48"/>
     <use x="679.492188" xlink:href="#DejaVuSans-53"/>
     <use x="743.115234" xlink:href="#DejaVuSans-45"/>
     <use x="779.199219" xlink:href="#DejaVuSans-50"/>
     <use x="842.822266" xlink:href="#DejaVuSans-57"/>
     <use x="906.445312" xlink:href="#DejaVuSans-41"/>
    </g>
   </g>
   <g id="text_15">
    <!-- 11289 (2015-12-11) -->
    <g style="fill:#262626;" transform="translate(245.629158 522.391293)scale(0.1 -0.1)">
     <use xlink:href="#DejaVuSans-49"/>
     <use x="63.623047" xlink:href="#DejaVuSans-49"/>
     <use x="127.246094" xlink:href="#DejaVuSans-50"/>
     <use x="190.869141" xlink:href="#DejaVuSans-56"/>
     <use x="254.492188" xlink:href="#DejaVuSans-57"/>
     <use x="318.115234" xlink:href="#DejaVuSans-32"/>
     <use x="349.902344" xlink:href="#DejaVuSans-40"/>
     <use x="388.916016" xlink:href="#DejaVuSans-50"/>
     <use x="452.539062" xlink:href="#DejaVuSans-48"/>
     <use x="516.162109" xlink:href="#DejaVuSans-49"/>
     <use x="579.785156" xlink:href="#DejaVuSans-53"/>
     <use x="643.408203" xlink:href="#DejaVuSans-45"/>
     <use x="679.492188" xlink:href="#DejaVuSans-49"/>
     <use x="743.115234" xlink:href="#DejaVuSans-50"/>
     <use x="806.738281" xlink:href="#DejaVuSans-45"/>
     <use x="842.822266" xlink:href="#DejaVuSans-49"/>
     <use x="906.445312" xlink:href="#DejaVuSans-49"/>
     <use x="970.068359" xlink:href="#DejaVuSans-41"/>
    </g>
   </g>
   <g id="text_16">
    <!-- 16933 (2016-07-18) -->
    <g style="fill:#262626;" transform="translate(295.658287 471.987721)scale(0.1 -0.1)">
     <use xlink:href="#DejaVuSans-49"/>
     <use x="63.623047" xlink:href="#DejaVuSans-54"/>
     <use x="127.246094" xlink:href="#DejaVuSans-57"/>
     <use x="190.869141" xlink:href="#DejaVuSans-51"/>
     <use x="254.492188" xlink:href="#DejaVuSans-51"/>
     <use x="318.115234" xlink:href="#DejaVuSans-32"/>
     <use x="349.902344" xlink:href="#DejaVuSans-40"/>
     <use x="388.916016" xlink:href="#DejaVuSans-50"/>
     <use x="452.539062" xlink:href="#DejaVuSans-48"/>
     <use x="516.162109" xlink:href="#DejaVuSans-49"/>
     <use x="579.785156" xlink:href="#DejaVuSans-54"/>
     <use x="643.408203" xlink:href="#DejaVuSans-45"/>
     <use x="679.492188" xlink:href="#DejaVuSans-48"/>
     <use x="743.115234" xlink:href="#DejaVuSans-55"/>
     <use x="806.738281" xlink:href="#DejaVuSans-45"/>
     <use x="842.822266" xlink:href="#DejaVuSans-49"/>
     <use x="906.445312" xlink:href="#DejaVuSans-56"/>
     <use x="970.068359" xlink:href="#DejaVuSans-41"/>
    </g>
   </g>
   <g id="text_17">
    <!-- 22577 (2017-01-11) -->
    <g style="fill:#262626;" transform="translate(335.7921 421.584149)scale(0.1 -0.1)">
     <use xlink:href="#DejaVuSans-50"/>
     <use x="63.623047" xlink:href="#DejaVuSans-50"/>
     <use x="127.246094" xlink:href="#DejaVuSans-53"/>
     <use x="190.869141" xlink:href="#DejaVuSans-55"/>
     <use x="254.492188" xlink:href="#DejaVuSans-55"/>
     <use x="318.115234" xlink:href="#DejaVuSans-32"/>
     <use x="349.902344" xlink:href="#DejaVuSans-40"/>
     <use x="388.916016" xlink:href="#DejaVuSans-50"/>
     <use x="452.539062" xlink:href="#DejaVuSans-48"/>
     <use x="516.162109" xlink:href="#DejaVuSans-49"/>
     <use x="579.785156" xlink:href="#DejaVuSans-55"/>
     <use x="643.408203" xlink:href="#DejaVuSans-45"/>
     <use x="679.492188" xlink:href="#DejaVuSans-48"/>
     <use x="743.115234" xlink:href="#DejaVuSans-49"/>
     <use x="806.738281" xlink:href="#DejaVuSans-45"/>
     <use x="842.822266" xlink:href="#DejaVuSans-49"/>
     <use x="906.445312" xlink:href="#DejaVuSans-49"/>
     <use x="970.068359" xlink:href="#DejaVuSans-41"/>
    </g>
   </g>
   <g id="text_18">
    <!-- 28221 (2017-07-18) -->
    <g style="fill:#262626;" transform="translate(378.417648 371.180577)scale(0.1 -0.1)">
     <use xlink:href="#DejaVuSans-50"/>
     <use x="63.623047" xlink:href="#DejaVuSans-56"/>
     <use x="127.246094" xlink:href="#DejaVuSans-50"/>
     <use x="190.869141" xlink:href="#DejaVuSans-50"/>
     <use x="254.492188" xlink:href="#DejaVuSans-49"/>
     <use x="318.115234" xlink:href="#DejaVuSans-32"/>
     <use x="349.902344" xlink:href="#DejaVuSans-40"/>
     <use x="388.916016" xlink:href="#DejaVuSans-50"/>
     <use x="452.539062" xlink:href="#DejaVuSans-48"/>
     <use x="516.162109" xlink:href="#DejaVuSans-49"/>
     <use x="579.785156" xlink:href="#DejaVuSans-55"/>
     <use x="643.408203" xlink:href="#DejaVuSans-45"/>
     <use x="679.492188" xlink:href="#DejaVuSans-48"/>
     <use x="743.115234" xlink:href="#DejaVuSans-55"/>
     <use x="806.738281" xlink:href="#DejaVuSans-45"/>
     <use x="842.822266" xlink:href="#DejaVuSans-49"/>
     <use x="906.445312" xlink:href="#DejaVuSans-56"/>
     <use x="970.068359" xlink:href="#DejaVuSans-41"/>
    </g>
   </g>
   <g id="text_19">
    <!-- 33865 (2018-01-19) -->
    <g style="fill:#262626;" transform="translate(420.295009 320.777004)scale(0.1 -0.1)">
     <use xlink:href="#DejaVuSans-51"/>
     <use x="63.623047" xlink:href="#DejaVuSans-51"/>
     <use x="127.246094" xlink:href="#DejaVuSans-56"/>
     <use x="190.869141" xlink:href="#DejaVuSans-54"/>
     <use x="254.492188" xlink:href="#DejaVuSans-53"/>
     <use x="318.115234" xlink:href="#DejaVuSans-32"/>
     <use x="349.902344" xlink:href="#DejaVuSans-40"/>
     <use x="388.916016" xlink:href="#DejaVuSans-50"/>
     <use x="452.539062" xlink:href="#DejaVuSans-48"/>
     <use x="516.162109" xlink:href="#DejaVuSans-49"/>
     <use x="579.785156" xlink:href="#DejaVuSans-56"/>
     <use x="643.408203" xlink:href="#DejaVuSans-45"/>
     <use x="679.492188" xlink:href="#DejaVuSans-48"/>
     <use x="743.115234" xlink:href="#DejaVuSans-49"/>
     <use x="806.738281" xlink:href="#DejaVuSans-45"/>
     <use x="842.822266" xlink:href="#DejaVuSans-49"/>
     <use x="906.445312" xlink:href="#DejaVuSans-57"/>
     <use x="970.068359" xlink:href="#DejaVuSans-41"/>
    </g>
   </g>
   <g id="text_20">
    <!-- 39509 (2018-08-15) -->
    <g style="fill:#262626;" transform="translate(467.601523 270.373432)scale(0.1 -0.1)">
     <use xlink:href="#DejaVuSans-51"/>
     <use x="63.623047" xlink:href="#DejaVuSans-57"/>
     <use x="127.246094" xlink:href="#DejaVuSans-53"/>
     <use x="190.869141" xlink:href="#DejaVuSans-48"/>
     <use x="254.492188" xlink:href="#DejaVuSans-57"/>
     <use x="318.115234" xlink:href="#DejaVuSans-32"/>
     <use x="349.902344" xlink:href="#DejaVuSans-40"/>
     <use x="388.916016" xlink:href="#DejaVuSans-50"/>
     <use x="452.539062" xlink:href="#DejaVuSans-48"/>
     <use x="516.162109" xlink:href="#DejaVuSans-49"/>
     <use x="579.785156" xlink:href="#DejaVuSans-56"/>
     <use x="643.408203" xlink:href="#DejaVuSans-45"/>
     <use x="679.492188" xlink:href="#DejaVuSans-48"/>
     <use x="743.115234" xlink:href="#DejaVuSans-56"/>
     <use x="806.738281" xlink:href="#DejaVuSans-45"/>
     <use x="842.822266" xlink:href="#DejaVuSans-49"/>
     <use x="906.445312" xlink:href="#DejaVuSans-53"/>
     <use x="970.068359" xlink:href="#DejaVuSans-41"/>
    </g>
   </g>
   <g id="text_21">
    <!-- 45152 (2019-04-05) -->
    <g style="fill:#262626;" transform="translate(520.404543 219.97879)scale(0.1 -0.1)">
     <use xlink:href="#DejaVuSans-52"/>
     <use x="63.623047" xlink:href="#DejaVuSans-53"/>
     <use x="127.246094" xlink:href="#DejaVuSans-49"/>
     <use x="190.869141" xlink:href="#DejaVuSans-53"/>
     <use x="254.492188" xlink:href="#DejaVuSans-50"/>
     <use x="318.115234" xlink:href="#DejaVuSans-32"/>
     <use x="349.902344" xlink:href="#DejaVuSans-40"/>
     <use x="388.916016" xlink:href="#DejaVuSans-50"/>
     <use x="452.539062" xlink:href="#DejaVuSans-48"/>
     <use x="516.162109" xlink:href="#DejaVuSans-49"/>
     <use x="579.785156" xlink:href="#DejaVuSans-57"/>
     <use x="643.408203" xlink:href="#DejaVuSans-45"/>
     <use x="679.492188" xlink:href="#DejaVuSans-48"/>
     <use x="743.115234" xlink:href="#DejaVuSans-52"/>
     <use x="806.738281" xlink:href="#DejaVuSans-45"/>
     <use x="842.822266" xlink:href="#DejaVuSans-48"/>
     <use x="906.445312" xlink:href="#DejaVuSans-53"/>
     <use x="970.068359" xlink:href="#DejaVuSans-41"/>
    </g>
   </g>
   <g id="text_22">
    <!-- 50795 (2019-11-05) -->
    <g style="fill:#262626;" transform="translate(568.851106 169.584149)scale(0.1 -0.1)">
     <use xlink:href="#DejaVuSans-53"/>
     <use x="63.623047" xlink:href="#DejaVuSans-48"/>
     <use x="127.246094" xlink:href="#DejaVuSans-55"/>
     <use x="190.869141" xlink:href="#DejaVuSans-57"/>
     <use x="254.492188" xlink:href="#DejaVuSans-53"/>
     <use x="318.115234" xlink:href="#DejaVuSans-32"/>
     <use x="349.902344" xlink:href="#DejaVuSans-40"/>
     <use x="388.916016" xlink:href="#DejaVuSans-50"/>
     <use x="452.539062" xlink:href="#DejaVuSans-48"/>
     <use x="516.162109" xlink:href="#DejaVuSans-49"/>
     <use x="579.785156" xlink:href="#DejaVuSans-57"/>
     <use x="643.408203" xlink:href="#DejaVuSans-45"/>
     <use x="679.492188" xlink:href="#DejaVuSans-49"/>
     <use x="743.115234" xlink:href="#DejaVuSans-49"/>
     <use x="806.738281" xlink:href="#DejaVuSans-45"/>
     <use x="842.822266" xlink:href="#DejaVuSans-48"/>
     <use x="906.445312" xlink:href="#DejaVuSans-53"/>
     <use x="970.068359" xlink:href="#DejaVuSans-41"/>
    </g>
   </g>
   <g id="text_23">
    <!-- 56437 (2020-07-21) -->
    <g style="fill:#262626;" transform="translate(627.636364 119.198438)scale(0.1 -0.1)">
     <use xlink:href="#DejaVuSans-53"/>
     <use x="63.623047" xlink:href="#DejaVuSans-54"/>
     <use x="127.246094" xlink:href="#DejaVuSans-52"/>
     <use x="190.869141" xlink:href="#DejaVuSans-51"/>
     <use x="254.492188" xlink:href="#DejaVuSans-55"/>
     <use x="318.115234" xlink:href="#DejaVuSans-32"/>
     <use x="349.902344" xlink:href="#DejaVuSans-40"/>
     <use x="388.916016" xlink:href="#DejaVuSans-50"/>
     <use x="452.539062" xlink:href="#DejaVuSans-48"/>
     <use x="516.162109" xlink:href="#DejaVuSans-50"/>
     <use x="579.785156" xlink:href="#DejaVuSans-48"/>
     <use x="643.408203" xlink:href="#DejaVuSans-45"/>
     <use x="679.492188" xlink:href="#DejaVuSans-48"/>
     <use x="743.115234" xlink:href="#DejaVuSans-55"/>
     <use x="806.738281" xlink:href="#DejaVuSans-45"/>
     <use x="842.822266" xlink:href="#DejaVuSans-50"/>
     <use x="906.445312" xlink:href="#DejaVuSans-49"/>
     <use x="970.068359" xlink:href="#DejaVuSans-41"/>
    </g>
   </g>
   <g id="text_24">
    <!-- Closed PRs over time -->
    <defs>
     <path d="M 64.40625 67.28125 
L 64.40625 56.890625 
Q 59.421875 61.53125 53.78125 63.8125 
Q 48.140625 66.109375 41.796875 66.109375 
Q 29.296875 66.109375 22.65625 58.46875 
Q 16.015625 50.828125 16.015625 36.375 
Q 16.015625 21.96875 22.65625 14.328125 
Q 29.296875 6.6875 41.796875 6.6875 
Q 48.140625 6.6875 53.78125 8.984375 
Q 59.421875 11.28125 64.40625 15.921875 
L 64.40625 5.609375 
Q 59.234375 2.09375 53.4375 0.328125 
Q 47.65625 -1.421875 41.21875 -1.421875 
Q 24.65625 -1.421875 15.125 8.703125 
Q 5.609375 18.84375 5.609375 36.375 
Q 5.609375 53.953125 15.125 64.078125 
Q 24.65625 74.21875 41.21875 74.21875 
Q 47.75 74.21875 53.53125 72.484375 
Q 59.328125 70.75 64.40625 67.28125 
z
" id="DejaVuSans-67"/>
     <path d="M 9.421875 75.984375 
L 18.40625 75.984375 
L 18.40625 0 
L 9.421875 0 
z
" id="DejaVuSans-108"/>
     <path d="M 30.609375 48.390625 
Q 23.390625 48.390625 19.1875 42.75 
Q 14.984375 37.109375 14.984375 27.296875 
Q 14.984375 17.484375 19.15625 11.84375 
Q 23.34375 6.203125 30.609375 6.203125 
Q 37.796875 6.203125 41.984375 11.859375 
Q 46.1875 17.53125 46.1875 27.296875 
Q 46.1875 37.015625 41.984375 42.703125 
Q 37.796875 48.390625 30.609375 48.390625 
z
M 30.609375 56 
Q 42.328125 56 49.015625 48.375 
Q 55.71875 40.765625 55.71875 27.296875 
Q 55.71875 13.875 49.015625 6.21875 
Q 42.328125 -1.421875 30.609375 -1.421875 
Q 18.84375 -1.421875 12.171875 6.21875 
Q 5.515625 13.875 5.515625 27.296875 
Q 5.515625 40.765625 12.171875 48.375 
Q 18.84375 56 30.609375 56 
z
" id="DejaVuSans-111"/>
     <path d="M 44.28125 53.078125 
L 44.28125 44.578125 
Q 40.484375 46.53125 36.375 47.5 
Q 32.28125 48.484375 27.875 48.484375 
Q 21.1875 48.484375 17.84375 46.4375 
Q 14.5 44.390625 14.5 40.28125 
Q 14.5 37.15625 16.890625 35.375 
Q 19.28125 33.59375 26.515625 31.984375 
L 29.59375 31.296875 
Q 39.15625 29.25 43.1875 25.515625 
Q 47.21875 21.78125 47.21875 15.09375 
Q 47.21875 7.46875 41.1875 3.015625 
Q 35.15625 -1.421875 24.609375 -1.421875 
Q 20.21875 -1.421875 15.453125 -0.5625 
Q 10.6875 0.296875 5.421875 2 
L 5.421875 11.28125 
Q 10.40625 8.6875 15.234375 7.390625 
Q 20.0625 6.109375 24.8125 6.109375 
Q 31.15625 6.109375 34.5625 8.28125 
Q 37.984375 10.453125 37.984375 14.40625 
Q 37.984375 18.0625 35.515625 20.015625 
Q 33.0625 21.96875 24.703125 23.78125 
L 21.578125 24.515625 
Q 13.234375 26.265625 9.515625 29.90625 
Q 5.8125 33.546875 5.8125 39.890625 
Q 5.8125 47.609375 11.28125 51.796875 
Q 16.75 56 26.8125 56 
Q 31.78125 56 36.171875 55.265625 
Q 40.578125 54.546875 44.28125 53.078125 
z
" id="DejaVuSans-115"/>
     <path d="M 56.203125 29.59375 
L 56.203125 25.203125 
L 14.890625 25.203125 
Q 15.484375 15.921875 20.484375 11.0625 
Q 25.484375 6.203125 34.421875 6.203125 
Q 39.59375 6.203125 44.453125 7.46875 
Q 49.3125 8.734375 54.109375 11.28125 
L 54.109375 2.78125 
Q 49.265625 0.734375 44.1875 -0.34375 
Q 39.109375 -1.421875 33.890625 -1.421875 
Q 20.796875 -1.421875 13.15625 6.1875 
Q 5.515625 13.8125 5.515625 26.8125 
Q 5.515625 40.234375 12.765625 48.109375 
Q 20.015625 56 32.328125 56 
Q 43.359375 56 49.78125 48.890625 
Q 56.203125 41.796875 56.203125 29.59375 
z
M 47.21875 32.234375 
Q 47.125 39.59375 43.09375 43.984375 
Q 39.0625 48.390625 32.421875 48.390625 
Q 24.90625 48.390625 20.390625 44.140625 
Q 15.875 39.890625 15.1875 32.171875 
z
" id="DejaVuSans-101"/>
     <path d="M 45.40625 46.390625 
L 45.40625 75.984375 
L 54.390625 75.984375 
L 54.390625 0 
L 45.40625 0 
L 45.40625 8.203125 
Q 42.578125 3.328125 38.25 0.953125 
Q 33.9375 -1.421875 27.875 -1.421875 
Q 17.96875 -1.421875 11.734375 6.484375 
Q 5.515625 14.40625 5.515625 27.296875 
Q 5.515625 40.1875 11.734375 48.09375 
Q 17.96875 56 27.875 56 
Q 33.9375 56 38.25 53.625 
Q 42.578125 51.265625 45.40625 46.390625 
z
M 14.796875 27.296875 
Q 14.796875 17.390625 18.875 11.75 
Q 22.953125 6.109375 30.078125 6.109375 
Q 37.203125 6.109375 41.296875 11.75 
Q 45.40625 17.390625 45.40625 27.296875 
Q 45.40625 37.203125 41.296875 42.84375 
Q 37.203125 48.484375 30.078125 48.484375 
Q 22.953125 48.484375 18.875 42.84375 
Q 14.796875 37.203125 14.796875 27.296875 
z
" id="DejaVuSans-100"/>
     <path d="M 19.671875 64.796875 
L 19.671875 37.40625 
L 32.078125 37.40625 
Q 38.96875 37.40625 42.71875 40.96875 
Q 46.484375 44.53125 46.484375 51.125 
Q 46.484375 57.671875 42.71875 61.234375 
Q 38.96875 64.796875 32.078125 64.796875 
z
M 9.8125 72.90625 
L 32.078125 72.90625 
Q 44.34375 72.90625 50.609375 67.359375 
Q 56.890625 61.8125 56.890625 51.125 
Q 56.890625 40.328125 50.609375 34.8125 
Q 44.34375 29.296875 32.078125 29.296875 
L 19.671875 29.296875 
L 19.671875 0 
L 9.8125 0 
z
" id="DejaVuSans-80"/>
     <path d="M 44.390625 34.1875 
Q 47.5625 33.109375 50.5625 29.59375 
Q 53.5625 26.078125 56.59375 19.921875 
L 66.609375 0 
L 56 0 
L 46.6875 18.703125 
Q 43.0625 26.03125 39.671875 28.421875 
Q 36.28125 30.8125 30.421875 30.8125 
L 19.671875 30.8125 
L 19.671875 0 
L 9.8125 0 
L 9.8125 72.90625 
L 32.078125 72.90625 
Q 44.578125 72.90625 50.734375 67.671875 
Q 56.890625 62.453125 56.890625 51.90625 
Q 56.890625 45.015625 53.6875 40.46875 
Q 50.484375 35.9375 44.390625 34.1875 
z
M 19.671875 64.796875 
L 19.671875 38.921875 
L 32.078125 38.921875 
Q 39.203125 38.921875 42.84375 42.21875 
Q 46.484375 45.515625 46.484375 51.90625 
Q 46.484375 58.296875 42.84375 61.546875 
Q 39.203125 64.796875 32.078125 64.796875 
z
" id="DejaVuSans-82"/>
     <path d="M 2.984375 54.6875 
L 12.5 54.6875 
L 29.59375 8.796875 
L 46.6875 54.6875 
L 56.203125 54.6875 
L 35.6875 0 
L 23.484375 0 
z
" id="DejaVuSans-118"/>
     <path d="M 41.109375 46.296875 
Q 39.59375 47.171875 37.8125 47.578125 
Q 36.03125 48 33.890625 48 
Q 26.265625 48 22.1875 43.046875 
Q 18.109375 38.09375 18.109375 28.8125 
L 18.109375 0 
L 9.078125 0 
L 9.078125 54.6875 
L 18.109375 54.6875 
L 18.109375 46.1875 
Q 20.953125 51.171875 25.484375 53.578125 
Q 30.03125 56 36.53125 56 
Q 37.453125 56 38.578125 55.875 
Q 39.703125 55.765625 41.0625 55.515625 
z
" id="DejaVuSans-114"/>
     <path d="M 18.3125 70.21875 
L 18.3125 54.6875 
L 36.8125 54.6875 
L 36.8125 47.703125 
L 18.3125 47.703125 
L 18.3125 18.015625 
Q 18.3125 11.328125 20.140625 9.421875 
Q 21.96875 7.515625 27.59375 7.515625 
L 36.8125 7.515625 
L 36.8125 0 
L 27.59375 0 
Q 17.1875 0 13.234375 3.875 
Q 9.28125 7.765625 9.28125 18.015625 
L 9.28125 47.703125 
L 2.6875 47.703125 
L 2.6875 54.6875 
L 9.28125 54.6875 
L 9.28125 70.21875 
z
" id="DejaVuSans-116"/>
     <path d="M 9.421875 54.6875 
L 18.40625 54.6875 
L 18.40625 0 
L 9.421875 0 
z
M 9.421875 75.984375 
L 18.40625 75.984375 
L 18.40625 64.59375 
L 9.421875 64.59375 
z
" id="DejaVuSans-105"/>
     <path d="M 52 44.1875 
Q 55.375 50.25 60.0625 53.125 
Q 64.75 56 71.09375 56 
Q 79.640625 56 84.28125 50.015625 
Q 88.921875 44.046875 88.921875 33.015625 
L 88.921875 0 
L 79.890625 0 
L 79.890625 32.71875 
Q 79.890625 40.578125 77.09375 44.375 
Q 74.3125 48.1875 68.609375 48.1875 
Q 61.625 48.1875 57.5625 43.546875 
Q 53.515625 38.921875 53.515625 30.90625 
L 53.515625 0 
L 44.484375 0 
L 44.484375 32.71875 
Q 44.484375 40.625 41.703125 44.40625 
Q 38.921875 48.1875 33.109375 48.1875 
Q 26.21875 48.1875 22.15625 43.53125 
Q 18.109375 38.875 18.109375 30.90625 
L 18.109375 0 
L 9.078125 0 
L 9.078125 54.6875 
L 18.109375 54.6875 
L 18.109375 46.1875 
Q 21.1875 51.21875 25.484375 53.609375 
Q 29.78125 56 35.6875 56 
Q 41.65625 56 45.828125 52.96875 
Q 50 49.953125 52 44.1875 
z
" id="DejaVuSans-109"/>
    </defs>
    <g style="fill:#262626;" transform="translate(305.27625 80.4)scale(0.12 -0.12)">
     <use xlink:href="#DejaVuSans-67"/>
     <use x="69.824219" xlink:href="#DejaVuSans-108"/>
     <use x="97.607422" xlink:href="#DejaVuSans-111"/>
     <use x="158.789062" xlink:href="#DejaVuSans-115"/>
     <use x="210.888672" xlink:href="#DejaVuSans-101"/>
     <use x="272.412109" xlink:href="#DejaVuSans-100"/>
     <use x="335.888672" xlink:href="#DejaVuSans-32"/>
     <use x="367.675781" xlink:href="#DejaVuSans-80"/>
     <use x="427.978516" xlink:href="#DejaVuSans-82"/>
     <use x="497.460938" xlink:href="#DejaVuSans-115"/>
     <use x="549.560547" xlink:href="#DejaVuSans-32"/>
     <use x="581.347656" xlink:href="#DejaVuSans-111"/>
     <use x="642.529297" xlink:href="#DejaVuSans-118"/>
     <use x="701.708984" xlink:href="#DejaVuSans-101"/>
     <use x="763.232422" xlink:href="#DejaVuSans-114"/>
     <use x="804.345703" xlink:href="#DejaVuSans-32"/>
     <use x="836.132812" xlink:href="#DejaVuSans-116"/>
     <use x="875.341797" xlink:href="#DejaVuSans-105"/>
     <use x="903.125" xlink:href="#DejaVuSans-109"/>
     <use x="1000.537109" xlink:href="#DejaVuSans-101"/>
    </g>
   </g>
  </g>
 </g>
 <defs>
  <clipPath id="p42281ae33f">
   <rect height="554.4" width="558" x="90" y="86.4"/>
  </clipPath>
 </defs>
</svg>
