<?xml version="1.0" encoding="utf-8" standalone="no"?>
<!DOCTYPE svg PUBLIC "-//W3C//DTD SVG 1.1//EN"
  "http://www.w3.org/Graphics/SVG/1.1/DTD/svg11.dtd">
<!-- Created with matplotlib (https://matplotlib.org/) -->
<svg height="720pt" version="1.1" viewBox="0 0 720 720" width="720pt" xmlns="http://www.w3.org/2000/svg" xmlns:xlink="http://www.w3.org/1999/xlink">
 <defs>
  <style type="text/css">
*{stroke-linecap:butt;stroke-linejoin:round;}
  </style>
 </defs>
 <g id="figure_1">
  <g id="patch_1">
   <path d="M 0 720 
L 720 720 
L 720 0 
L 0 0 
z
" style="fill:#ffffff;"/>
  </g>
  <g id="axes_1">
   <g id="patch_2">
    <path d="M 90 640.8 
L 648 640.8 
L 648 86.4 
L 90 86.4 
z
" style="fill:#ffffff;"/>
   </g>
   <g id="matplotlib.axis_1">
    <g id="xtick_1">
     <g id="line2d_1">
      <path clip-path="url(#p66e180b3fa)" d="M 162.645519 640.8 
L 162.645519 86.4 
" style="fill:none;stroke:#cccccc;stroke-linecap:round;stroke-width:0.8;"/>
     </g>
     <g id="line2d_2"/>
     <g id="text_1">
      <!-- 2015 -->
      <defs>
       <path d="M 19.1875 8.296875 
L 53.609375 8.296875 
L 53.609375 0 
L 7.328125 0 
L 7.328125 8.296875 
Q 12.9375 14.109375 22.625 23.890625 
Q 32.328125 33.6875 34.8125 36.53125 
Q 39.546875 41.84375 41.421875 45.53125 
Q 43.3125 49.21875 43.3125 52.78125 
Q 43.3125 58.59375 39.234375 62.25 
Q 35.15625 65.921875 28.609375 65.921875 
Q 23.96875 65.921875 18.8125 64.3125 
Q 13.671875 62.703125 7.8125 59.421875 
L 7.8125 69.390625 
Q 13.765625 71.78125 18.9375 73 
Q 24.125 74.21875 28.421875 74.21875 
Q 39.75 74.21875 46.484375 68.546875 
Q 53.21875 62.890625 53.21875 53.421875 
Q 53.21875 48.921875 51.53125 44.890625 
Q 49.859375 40.875 45.40625 35.40625 
Q 44.1875 33.984375 37.640625 27.21875 
Q 31.109375 20.453125 19.1875 8.296875 
z
" id="DejaVuSans-50"/>
       <path d="M 31.78125 66.40625 
Q 24.171875 66.40625 20.328125 58.90625 
Q 16.5 51.421875 16.5 36.375 
Q 16.5 21.390625 20.328125 13.890625 
Q 24.171875 6.390625 31.78125 6.390625 
Q 39.453125 6.390625 43.28125 13.890625 
Q 47.125 21.390625 47.125 36.375 
Q 47.125 51.421875 43.28125 58.90625 
Q 39.453125 66.40625 31.78125 66.40625 
z
M 31.78125 74.21875 
Q 44.046875 74.21875 50.515625 64.515625 
Q 56.984375 54.828125 56.984375 36.375 
Q 56.984375 17.96875 50.515625 8.265625 
Q 44.046875 -1.421875 31.78125 -1.421875 
Q 19.53125 -1.421875 13.0625 8.265625 
Q 6.59375 17.96875 6.59375 36.375 
Q 6.59375 54.828125 13.0625 64.515625 
Q 19.53125 74.21875 31.78125 74.21875 
z
" id="DejaVuSans-48"/>
       <path d="M 12.40625 8.296875 
L 28.515625 8.296875 
L 28.515625 63.921875 
L 10.984375 60.40625 
L 10.984375 69.390625 
L 28.421875 72.90625 
L 38.28125 72.90625 
L 38.28125 8.296875 
L 54.390625 8.296875 
L 54.390625 0 
L 12.40625 0 
z
" id="DejaVuSans-49"/>
       <path d="M 10.796875 72.90625 
L 49.515625 72.90625 
L 49.515625 64.59375 
L 19.828125 64.59375 
L 19.828125 46.734375 
Q 21.96875 47.46875 24.109375 47.828125 
Q 26.265625 48.1875 28.421875 48.1875 
Q 40.625 48.1875 47.75 41.5 
Q 54.890625 34.8125 54.890625 23.390625 
Q 54.890625 11.625 47.5625 5.09375 
Q 40.234375 -1.421875 26.90625 -1.421875 
Q 22.3125 -1.421875 17.546875 -0.640625 
Q 12.796875 0.140625 7.71875 1.703125 
L 7.71875 11.625 
Q 12.109375 9.234375 16.796875 8.0625 
Q 21.484375 6.890625 26.703125 6.890625 
Q 35.15625 6.890625 40.078125 11.328125 
Q 45.015625 15.765625 45.015625 23.390625 
Q 45.015625 31 40.078125 35.4375 
Q 35.15625 39.890625 26.703125 39.890625 
Q 22.75 39.890625 18.8125 39.015625 
Q 14.890625 38.140625 10.796875 36.28125 
z
" id="DejaVuSans-53"/>
      </defs>
      <g style="fill:#262626;" transform="translate(149.920519 651.898438)scale(0.1 -0.1)">
       <use xlink:href="#DejaVuSans-50"/>
       <use x="63.623047" xlink:href="#DejaVuSans-48"/>
       <use x="127.246094" xlink:href="#DejaVuSans-49"/>
       <use x="190.869141" xlink:href="#DejaVuSans-53"/>
      </g>
     </g>
    </g>
    <g id="xtick_2">
     <g id="line2d_3">
      <path clip-path="url(#p66e180b3fa)" d="M 245.662348 640.8 
L 245.662348 86.4 
" style="fill:none;stroke:#cccccc;stroke-linecap:round;stroke-width:0.8;"/>
     </g>
     <g id="line2d_4"/>
     <g id="text_2">
      <!-- 2016 -->
      <defs>
       <path d="M 33.015625 40.375 
Q 26.375 40.375 22.484375 35.828125 
Q 18.609375 31.296875 18.609375 23.390625 
Q 18.609375 15.53125 22.484375 10.953125 
Q 26.375 6.390625 33.015625 6.390625 
Q 39.65625 6.390625 43.53125 10.953125 
Q 47.40625 15.53125 47.40625 23.390625 
Q 47.40625 31.296875 43.53125 35.828125 
Q 39.65625 40.375 33.015625 40.375 
z
M 52.59375 71.296875 
L 52.59375 62.3125 
Q 48.875 64.0625 45.09375 64.984375 
Q 41.3125 65.921875 37.59375 65.921875 
Q 27.828125 65.921875 22.671875 59.328125 
Q 17.53125 52.734375 16.796875 39.40625 
Q 19.671875 43.65625 24.015625 45.921875 
Q 28.375 48.1875 33.59375 48.1875 
Q 44.578125 48.1875 50.953125 41.515625 
Q 57.328125 34.859375 57.328125 23.390625 
Q 57.328125 12.15625 50.6875 5.359375 
Q 44.046875 -1.421875 33.015625 -1.421875 
Q 20.359375 -1.421875 13.671875 8.265625 
Q 6.984375 17.96875 6.984375 36.375 
Q 6.984375 53.65625 15.1875 63.9375 
Q 23.390625 74.21875 37.203125 74.21875 
Q 40.921875 74.21875 44.703125 73.484375 
Q 48.484375 72.75 52.59375 71.296875 
z
" id="DejaVuSans-54"/>
      </defs>
      <g style="fill:#262626;" transform="translate(232.937348 651.898438)scale(0.1 -0.1)">
       <use xlink:href="#DejaVuSans-50"/>
       <use x="63.623047" xlink:href="#DejaVuSans-48"/>
       <use x="127.246094" xlink:href="#DejaVuSans-49"/>
       <use x="190.869141" xlink:href="#DejaVuSans-54"/>
      </g>
     </g>
    </g>
    <g id="xtick_3">
     <g id="line2d_5">
      <path clip-path="url(#p66e180b3fa)" d="M 328.906621 640.8 
L 328.906621 86.4 
" style="fill:none;stroke:#cccccc;stroke-linecap:round;stroke-width:0.8;"/>
     </g>
     <g id="line2d_6"/>
     <g id="text_3">
      <!-- 2017 -->
      <defs>
       <path d="M 8.203125 72.90625 
L 55.078125 72.90625 
L 55.078125 68.703125 
L 28.609375 0 
L 18.3125 0 
L 43.21875 64.59375 
L 8.203125 64.59375 
z
" id="DejaVuSans-55"/>
      </defs>
      <g style="fill:#262626;" transform="translate(316.181621 651.898438)scale(0.1 -0.1)">
       <use xlink:href="#DejaVuSans-50"/>
       <use x="63.623047" xlink:href="#DejaVuSans-48"/>
       <use x="127.246094" xlink:href="#DejaVuSans-49"/>
       <use x="190.869141" xlink:href="#DejaVuSans-55"/>
      </g>
     </g>
    </g>
    <g id="xtick_4">
     <g id="line2d_7">
      <path clip-path="url(#p66e180b3fa)" d="M 411.923449 640.8 
L 411.923449 86.4 
" style="fill:none;stroke:#cccccc;stroke-linecap:round;stroke-width:0.8;"/>
     </g>
     <g id="line2d_8"/>
     <g id="text_4">
      <!-- 2018 -->
      <defs>
       <path d="M 31.78125 34.625 
Q 24.75 34.625 20.71875 30.859375 
Q 16.703125 27.09375 16.703125 20.515625 
Q 16.703125 13.921875 20.71875 10.15625 
Q 24.75 6.390625 31.78125 6.390625 
Q 38.8125 6.390625 42.859375 10.171875 
Q 46.921875 13.96875 46.921875 20.515625 
Q 46.921875 27.09375 42.890625 30.859375 
Q 38.875 34.625 31.78125 34.625 
z
M 21.921875 38.8125 
Q 15.578125 40.375 12.03125 44.71875 
Q 8.5 49.078125 8.5 55.328125 
Q 8.5 64.0625 14.71875 69.140625 
Q 20.953125 74.21875 31.78125 74.21875 
Q 42.671875 74.21875 48.875 69.140625 
Q 55.078125 64.0625 55.078125 55.328125 
Q 55.078125 49.078125 51.53125 44.71875 
Q 48 40.375 41.703125 38.8125 
Q 48.828125 37.15625 52.796875 32.3125 
Q 56.78125 27.484375 56.78125 20.515625 
Q 56.78125 9.90625 50.3125 4.234375 
Q 43.84375 -1.421875 31.78125 -1.421875 
Q 19.734375 -1.421875 13.25 4.234375 
Q 6.78125 9.90625 6.78125 20.515625 
Q 6.78125 27.484375 10.78125 32.3125 
Q 14.796875 37.15625 21.921875 38.8125 
z
M 18.3125 54.390625 
Q 18.3125 48.734375 21.84375 45.5625 
Q 25.390625 42.390625 31.78125 42.390625 
Q 38.140625 42.390625 41.71875 45.5625 
Q 45.3125 48.734375 45.3125 54.390625 
Q 45.3125 60.0625 41.71875 63.234375 
Q 38.140625 66.40625 31.78125 66.40625 
Q 25.390625 66.40625 21.84375 63.234375 
Q 18.3125 60.0625 18.3125 54.390625 
z
" id="DejaVuSans-56"/>
      </defs>
      <g style="fill:#262626;" transform="translate(399.198449 651.898438)scale(0.1 -0.1)">
       <use xlink:href="#DejaVuSans-50"/>
       <use x="63.623047" xlink:href="#DejaVuSans-48"/>
       <use x="127.246094" xlink:href="#DejaVuSans-49"/>
       <use x="190.869141" xlink:href="#DejaVuSans-56"/>
      </g>
     </g>
    </g>
    <g id="xtick_5">
     <g id="line2d_9">
      <path clip-path="url(#p66e180b3fa)" d="M 494.940278 640.8 
L 494.940278 86.4 
" style="fill:none;stroke:#cccccc;stroke-linecap:round;stroke-width:0.8;"/>
     </g>
     <g id="line2d_10"/>
     <g id="text_5">
      <!-- 2019 -->
      <defs>
       <path d="M 10.984375 1.515625 
L 10.984375 10.5 
Q 14.703125 8.734375 18.5 7.8125 
Q 22.3125 6.890625 25.984375 6.890625 
Q 35.75 6.890625 40.890625 13.453125 
Q 46.046875 20.015625 46.78125 33.40625 
Q 43.953125 29.203125 39.59375 26.953125 
Q 35.25 24.703125 29.984375 24.703125 
Q 19.046875 24.703125 12.671875 31.3125 
Q 6.296875 37.9375 6.296875 49.421875 
Q 6.296875 60.640625 12.9375 67.421875 
Q 19.578125 74.21875 30.609375 74.21875 
Q 43.265625 74.21875 49.921875 64.515625 
Q 56.59375 54.828125 56.59375 36.375 
Q 56.59375 19.140625 48.40625 8.859375 
Q 40.234375 -1.421875 26.421875 -1.421875 
Q 22.703125 -1.421875 18.890625 -0.6875 
Q 15.09375 0.046875 10.984375 1.515625 
z
M 30.609375 32.421875 
Q 37.25 32.421875 41.125 36.953125 
Q 45.015625 41.5 45.015625 49.421875 
Q 45.015625 57.28125 41.125 61.84375 
Q 37.25 66.40625 30.609375 66.40625 
Q 23.96875 66.40625 20.09375 61.84375 
Q 16.21875 57.28125 16.21875 49.421875 
Q 16.21875 41.5 20.09375 36.953125 
Q 23.96875 32.421875 30.609375 32.421875 
z
" id="DejaVuSans-57"/>
      </defs>
      <g style="fill:#262626;" transform="translate(482.215278 651.898438)scale(0.1 -0.1)">
       <use xlink:href="#DejaVuSans-50"/>
       <use x="63.623047" xlink:href="#DejaVuSans-48"/>
       <use x="127.246094" xlink:href="#DejaVuSans-49"/>
       <use x="190.869141" xlink:href="#DejaVuSans-57"/>
      </g>
     </g>
    </g>
    <g id="xtick_6">
     <g id="line2d_11">
      <path clip-path="url(#p66e180b3fa)" d="M 577.957107 640.8 
L 577.957107 86.4 
" style="fill:none;stroke:#cccccc;stroke-linecap:round;stroke-width:0.8;"/>
     </g>
     <g id="line2d_12"/>
     <g id="text_6">
      <!-- 2020 -->
      <g style="fill:#262626;" transform="translate(565.232107 651.898438)scale(0.1 -0.1)">
       <use xlink:href="#DejaVuSans-50"/>
       <use x="63.623047" xlink:href="#DejaVuSans-48"/>
       <use x="127.246094" xlink:href="#DejaVuSans-50"/>
       <use x="190.869141" xlink:href="#DejaVuSans-48"/>
      </g>
     </g>
    </g>
   </g>
   <g id="matplotlib.axis_2">
    <g id="ytick_1">
     <g id="line2d_13">
      <path clip-path="url(#p66e180b3fa)" d="M 90 615.608947 
L 648 615.608947 
" style="fill:none;stroke:#cccccc;stroke-linecap:round;stroke-width:0.8;"/>
     </g>
     <g id="line2d_14"/>
     <g id="text_7">
      <!-- 0 -->
      <g style="fill:#262626;" transform="translate(80.1375 619.408166)scale(0.1 -0.1)">
       <use xlink:href="#DejaVuSans-48"/>
      </g>
     </g>
    </g>
    <g id="ytick_2">
     <g id="line2d_15">
      <path clip-path="url(#p66e180b3fa)" d="M 90 526.136197 
L 648 526.136197 
" style="fill:none;stroke:#cccccc;stroke-linecap:round;stroke-width:0.8;"/>
     </g>
     <g id="line2d_16"/>
     <g id="text_8">
      <!-- 10000 -->
      <g style="fill:#262626;" transform="translate(54.6875 529.935416)scale(0.1 -0.1)">
       <use xlink:href="#DejaVuSans-49"/>
       <use x="63.623047" xlink:href="#DejaVuSans-48"/>
       <use x="127.246094" xlink:href="#DejaVuSans-48"/>
       <use x="190.869141" xlink:href="#DejaVuSans-48"/>
       <use x="254.492188" xlink:href="#DejaVuSans-48"/>
      </g>
     </g>
    </g>
    <g id="ytick_3">
     <g id="line2d_17">
      <path clip-path="url(#p66e180b3fa)" d="M 90 436.663448 
L 648 436.663448 
" style="fill:none;stroke:#cccccc;stroke-linecap:round;stroke-width:0.8;"/>
     </g>
     <g id="line2d_18"/>
     <g id="text_9">
      <!-- 20000 -->
      <g style="fill:#262626;" transform="translate(54.6875 440.462666)scale(0.1 -0.1)">
       <use xlink:href="#DejaVuSans-50"/>
       <use x="63.623047" xlink:href="#DejaVuSans-48"/>
       <use x="127.246094" xlink:href="#DejaVuSans-48"/>
       <use x="190.869141" xlink:href="#DejaVuSans-48"/>
       <use x="254.492188" xlink:href="#DejaVuSans-48"/>
      </g>
     </g>
    </g>
    <g id="ytick_4">
     <g id="line2d_19">
      <path clip-path="url(#p66e180b3fa)" d="M 90 347.190698 
L 648 347.190698 
" style="fill:none;stroke:#cccccc;stroke-linecap:round;stroke-width:0.8;"/>
     </g>
     <g id="line2d_20"/>
     <g id="text_10">
      <!-- 30000 -->
      <defs>
       <path d="M 40.578125 39.3125 
Q 47.65625 37.796875 51.625 33 
Q 55.609375 28.21875 55.609375 21.1875 
Q 55.609375 10.40625 48.1875 4.484375 
Q 40.765625 -1.421875 27.09375 -1.421875 
Q 22.515625 -1.421875 17.65625 -0.515625 
Q 12.796875 0.390625 7.625 2.203125 
L 7.625 11.71875 
Q 11.71875 9.328125 16.59375 8.109375 
Q 21.484375 6.890625 26.8125 6.890625 
Q 36.078125 6.890625 40.9375 10.546875 
Q 45.796875 14.203125 45.796875 21.1875 
Q 45.796875 27.640625 41.28125 31.265625 
Q 36.765625 34.90625 28.71875 34.90625 
L 20.21875 34.90625 
L 20.21875 43.015625 
L 29.109375 43.015625 
Q 36.375 43.015625 40.234375 45.921875 
Q 44.09375 48.828125 44.09375 54.296875 
Q 44.09375 59.90625 40.109375 62.90625 
Q 36.140625 65.921875 28.71875 65.921875 
Q 24.65625 65.921875 20.015625 65.03125 
Q 15.375 64.15625 9.8125 62.3125 
L 9.8125 71.09375 
Q 15.4375 72.65625 20.34375 73.4375 
Q 25.25 74.21875 29.59375 74.21875 
Q 40.828125 74.21875 47.359375 69.109375 
Q 53.90625 64.015625 53.90625 55.328125 
Q 53.90625 49.265625 50.4375 45.09375 
Q 46.96875 40.921875 40.578125 39.3125 
z
" id="DejaVuSans-51"/>
      </defs>
      <g style="fill:#262626;" transform="translate(54.6875 350.989916)scale(0.1 -0.1)">
       <use xlink:href="#DejaVuSans-51"/>
       <use x="63.623047" xlink:href="#DejaVuSans-48"/>
       <use x="127.246094" xlink:href="#DejaVuSans-48"/>
       <use x="190.869141" xlink:href="#DejaVuSans-48"/>
       <use x="254.492188" xlink:href="#DejaVuSans-48"/>
      </g>
     </g>
    </g>
    <g id="ytick_5">
     <g id="line2d_21">
      <path clip-path="url(#p66e180b3fa)" d="M 90 257.717948 
L 648 257.717948 
" style="fill:none;stroke:#cccccc;stroke-linecap:round;stroke-width:0.8;"/>
     </g>
     <g id="line2d_22"/>
     <g id="text_11">
      <!-- 40000 -->
      <defs>
       <path d="M 37.796875 64.3125 
L 12.890625 25.390625 
L 37.796875 25.390625 
z
M 35.203125 72.90625 
L 47.609375 72.90625 
L 47.609375 25.390625 
L 58.015625 25.390625 
L 58.015625 17.1875 
L 47.609375 17.1875 
L 47.609375 0 
L 37.796875 0 
L 37.796875 17.1875 
L 4.890625 17.1875 
L 4.890625 26.703125 
z
" id="DejaVuSans-52"/>
      </defs>
      <g style="fill:#262626;" transform="translate(54.6875 261.517167)scale(0.1 -0.1)">
       <use xlink:href="#DejaVuSans-52"/>
       <use x="63.623047" xlink:href="#DejaVuSans-48"/>
       <use x="127.246094" xlink:href="#DejaVuSans-48"/>
       <use x="190.869141" xlink:href="#DejaVuSans-48"/>
       <use x="254.492188" xlink:href="#DejaVuSans-48"/>
      </g>
     </g>
    </g>
    <g id="ytick_6">
     <g id="line2d_23">
      <path clip-path="url(#p66e180b3fa)" d="M 90 168.245198 
L 648 168.245198 
" style="fill:none;stroke:#cccccc;stroke-linecap:round;stroke-width:0.8;"/>
     </g>
     <g id="line2d_24"/>
     <g id="text_12">
      <!-- 50000 -->
      <g style="fill:#262626;" transform="translate(54.6875 172.044417)scale(0.1 -0.1)">
       <use xlink:href="#DejaVuSans-53"/>
       <use x="63.623047" xlink:href="#DejaVuSans-48"/>
       <use x="127.246094" xlink:href="#DejaVuSans-48"/>
       <use x="190.869141" xlink:href="#DejaVuSans-48"/>
       <use x="254.492188" xlink:href="#DejaVuSans-48"/>
      </g>
     </g>
    </g>
   </g>
   <g id="line2d_25">
    <path clip-path="url(#p66e180b3fa)" d="M 115.363636 615.6 
L 116.481855 615.215267 
L 116.517138 615.197373 
L 116.703149 615.081058 
L 116.93462 614.91106 
L 117.777355 614.750009 
L 118.115617 614.588958 
L 118.456713 614.445802 
L 118.471526 614.427907 
L 119.242151 614.284751 
L 119.40356 614.195278 
L 119.618173 614.078963 
L 119.911008 613.962649 
L 120.040988 613.944754 
L 120.368151 613.837387 
L 120.967709 613.712125 
L 121.073357 613.560021 
L 122.800708 613.30055 
L 122.902173 613.228972 
L 123.276789 613.085816 
L 123.350437 613.032132 
L 123.971078 612.880028 
L 124.221158 612.71003 
L 124.849586 612.441612 
L 124.911727 612.352139 
L 125.588537 612.208983 
L 125.592947 612.182141 
L 125.958978 612.056879 
L 126.037085 612.012143 
L 126.307092 611.895828 
L 126.446149 611.842145 
L 127.105542 611.698988 
L 127.551679 611.394781 
L 128.00272 611.171099 
L 128.078963 611.108468 
L 128.706712 610.992153 
L 128.815845 610.875839 
L 128.941576 610.759524 
L 128.991614 610.714788 
L 129.444953 610.580579 
L 130.554242 610.303213 
L 130.588177 610.267424 
L 131.007044 610.133215 
L 131.038441 610.070584 
L 131.882108 609.909533 
L 131.956483 609.775324 
L 132.36611 609.641115 
L 132.444033 609.560589 
L 133.572829 609.354802 
L 133.581874 609.336908 
L 133.722267 609.220593 
L 133.81817 609.122173 
L 134.021961 608.996911 
L 134.37931 608.782176 
L 134.424204 608.728493 
L 135.346134 608.612178 
L 135.96294 608.379549 
L 136.08423 608.290076 
L 136.724365 608.137973 
L 137.13491 607.905344 
L 137.214044 607.833765 
L 137.568532 607.699556 
L 140.301127 607.010616 
L 140.399884 606.921143 
L 140.766552 606.786934 
L 140.816373 606.715356 
L 141.64064 606.581147 
L 141.713182 606.527463 
L 142.114941 606.393254 
L 142.434509 606.14273 
L 143.088999 606.008521 
L 143.317821 605.757998 
L 143.543135 605.641683 
L 143.599833 605.614841 
L 143.748416 605.489579 
L 143.80782 605.426948 
L 143.976391 605.301686 
L 144.143896 605.283792 
L 144.691827 605.15853 
L 145.327826 604.791692 
L 145.441871 604.693272 
L 145.570319 604.56801 
L 145.650042 604.46959 
L 146.250124 604.353275 
L 146.266875 604.317486 
L 146.475796 604.201172 
L 146.538469 604.129593 
L 146.912853 603.97749 
L 146.94206 603.932753 
L 147.856517 603.771702 
L 147.92509 603.691177 
L 148.250057 603.556968 
L 148.315355 603.440653 
L 148.589272 603.315391 
L 148.699605 603.270655 
L 149.008741 603.19013 
L 149.736218 602.876975 
L 150.152342 602.581715 
L 150.997965 602.420664 
L 151.103474 602.223824 
L 151.275315 602.098562 
L 151.341062 602.026984 
L 151.540715 601.901722 
L 151.904288 601.704882 
L 152.005168 601.543831 
L 152.580245 601.409622 
L 152.684484 601.28436 
L 152.883694 601.150151 
L 153.29035 601.015942 
L 153.55992 600.783313 
L 154.183873 600.666998 
L 154.392589 600.541736 
L 154.891114 600.30016 
L 155.769822 600.183845 
L 155.878081 600.085425 
L 156.06763 599.960163 
L 156.207134 599.879638 
L 156.727329 599.61122 
L 156.79645 599.593325 
L 157.422764 599.47701 
L 157.425186 599.459116 
L 157.635292 599.342801 
L 157.659979 599.289118 
L 157.879506 599.163856 
L 157.879678 599.154909 
L 158.070551 599.038594 
L 158.13965 598.949121 
L 158.331071 598.823859 
L 158.384007 598.797018 
L 158.977858 598.680703 
L 159.02997 598.555441 
L 159.225763 598.430179 
L 159.249337 598.367548 
L 159.605362 598.233339 
L 159.746917 598.045446 
L 159.911768 597.929132 
L 159.935613 597.857554 
L 160.598471 597.741239 
L 160.639221 597.696503 
L 162.416465 597.463874 
L 162.434468 597.445979 
L 163.767899 597.320717 
L 163.83623 597.231244 
L 163.985945 597.11493 
L 164.080429 597.052299 
L 164.192539 596.935984 
L 164.297753 596.703355 
L 164.439321 596.578093 
L 164.505095 596.497568 
L 164.677984 596.381253 
L 164.705906 596.318622 
L 165.354493 596.202308 
L 165.391913 596.068099 
L 165.614479 595.951784 
L 165.672672 595.93389 
L 165.80823 595.808628 
L 165.895843 595.611788 
L 166.035757 595.495473 
L 166.079461 595.334422 
L 166.26309 595.218108 
L 166.299663 595.173371 
L 167.171882 595.057057 
L 167.353434 594.842322 
L 167.632544 594.511273 
L 167.694799 594.412853 
L 167.861785 594.296538 
L 167.956251 594.207066 
L 168.620672 594.081804 
L 168.754679 593.965489 
L 169.294265 593.357074 
L 169.405325 593.24076 
L 169.480479 593.124445 
L 170.103221 592.999183 
L 170.179394 592.802343 
L 170.343848 592.686029 
L 170.505649 592.524978 
L 170.6047 592.381821 
L 170.66532 592.31919 
L 170.777654 592.202876 
L 171.076063 591.737618 
L 171.729997 591.621303 
L 171.75685 591.585514 
L 171.933435 591.469199 
L 171.983609 591.388674 
L 172.169784 591.272359 
L 172.24349 591.120256 
L 172.37125 591.003941 
L 172.730663 590.637103 
L 173.503334 590.520788 
L 173.608492 590.198686 
L 173.777177 590.073424 
L 173.854018 589.966057 
L 173.976271 589.840795 
L 174.099435 589.617113 
L 174.184421 589.482904 
L 174.255605 589.205539 
L 174.870247 589.089224 
L 174.936674 588.829753 
L 175.247148 588.704491 
L 175.566221 588.534493 
L 175.676766 588.328706 
L 175.797824 588.212391 
L 175.845861 588.167655 
L 176.471201 588.024498 
L 176.571637 587.881342 
L 176.708134 587.75608 
L 176.986129 587.344506 
L 177.027719 587.299769 
L 177.163482 587.183455 
L 177.615863 586.691355 
L 178.06087 586.57504 
L 178.142486 586.396094 
L 178.274493 586.27978 
L 178.387506 586.002414 
L 178.505566 585.8861 
L 178.593851 585.581892 
L 178.732557 585.429789 
L 178.881322 585.179265 
L 178.972099 585.054003 
L 179.024645 584.830321 
L 179.633859 584.714007 
L 179.704869 584.409799 
L 179.852215 584.293485 
L 180.222498 583.837174 
L 180.332273 583.711912 
L 180.649349 583.246654 
L 181.266113 583.112445 
L 181.336639 583.005077 
L 181.444148 582.888763 
L 181.548814 582.557713 
L 181.689515 582.432452 
L 182.049208 581.662986 
L 182.138766 581.48404 
L 182.22059 581.278253 
L 182.818685 581.126149 
L 182.917757 580.89352 
L 183.033506 580.768258 
L 183.115043 580.49984 
L 183.304758 580.365631 
L 183.663403 579.587218 
L 183.776569 579.444062 
L 183.808532 579.363536 
L 184.42696 579.22038 
L 185.552507 577.80671 
L 186.007272 577.663554 
L 186.080907 577.421978 
L 186.231717 577.305663 
L 186.307545 577.073034 
L 186.466579 576.938825 
L 186.662207 576.715143 
L 186.738919 576.536197 
L 186.887649 576.393041 
L 187.156841 576.097781 
L 187.610761 575.954625 
L 187.733157 575.560944 
L 187.853565 575.426735 
L 187.913042 575.24779 
L 188.046076 575.131475 
L 188.131591 574.782532 
L 188.302384 574.639375 
L 188.623961 574.12938 
L 189.189471 574.013066 
L 189.438027 573.467282 
L 189.645721 573.216758 
L 189.741937 573.064655 
L 189.874739 572.921498 
L 190.046156 572.590449 
L 190.115997 572.465187 
L 190.173856 572.295189 
L 190.74605 572.169927 
L 190.849081 571.803089 
L 191.057623 571.507829 
L 191.213564 571.302042 
L 191.90028 570.55047 
L 191.914324 570.541523 
L 192.326802 570.425209 
L 192.439847 570.049423 
L 192.511471 569.95995 
L 192.592579 569.834688 
L 192.741044 569.619954 
L 193.115738 568.922066 
L 193.391953 568.492597 
L 193.953075 568.349441 
L 194.05012 567.803657 
L 194.213129 567.615764 
L 194.253382 567.571028 
L 194.640986 567.436819 
L 194.705973 567.061033 
L 194.899489 566.926824 
L 194.988974 566.721037 
L 195.784968 566.57788 
L 195.896957 566.28262 
L 196.017376 566.157358 
L 196.066961 566.023149 
L 196.163479 565.906835 
L 196.287044 565.736836 
L 196.416523 565.29842 
L 196.498937 565.173158 
L 196.566133 564.976318 
L 197.154967 564.824214 
L 197.238013 564.60948 
L 197.384645 564.484218 
L 197.462297 564.278431 
L 197.574966 564.11738 
L 197.81803 563.714752 
L 197.888385 563.517912 
L 197.948289 563.410545 
L 198.070897 563.29423 
L 198.111669 563.09739 
L 198.757679 562.954234 
L 198.851247 562.793183 
L 198.976425 562.676868 
L 199.083858 562.435292 
L 199.225091 562.31003 
L 199.338068 562.104243 
L 199.433496 561.978981 
L 199.560988 561.638985 
L 199.694306 561.433197 
L 199.761612 561.254252 
L 200.338055 561.111095 
L 200.425308 560.967939 
L 200.529987 560.887413 
L 200.608249 560.744257 
L 200.647407 560.556364 
L 200.820469 560.44005 
L 200.922503 560.234262 
L 201.050413 560.064264 
L 201.340096 559.259009 
L 201.937237 559.1248 
L 202.962517 558.051127 
L 203.528722 557.934813 
L 203.623488 557.702184 
L 203.785044 557.532185 
L 203.873186 557.344293 
L 203.992909 557.192189 
L 204.064886 556.977454 
L 205.126817 556.6643 
L 205.193355 556.404829 
L 205.345966 556.27062 
L 205.458384 556.020096 
L 205.597701 555.867992 
L 205.709543 555.474312 
L 205.899001 555.205894 
L 206.005788 555.125368 
L 206.109228 554.803266 
L 206.173915 554.740636 
L 206.704171 554.588532 
L 206.823463 554.230641 
L 206.952063 554.114326 
L 207.061815 553.765383 
L 207.205418 553.631173 
L 207.311556 553.505912 
L 207.450233 553.38065 
L 207.687066 552.799077 
L 207.904185 552.629079 
L 207.962281 552.387502 
L 208.291389 552.244346 
L 208.546494 551.743298 
L 208.813406 551.626984 
L 209.373248 550.249103 
L 209.860943 550.132789 
L 209.951747 549.927002 
L 209.958965 549.891212 
L 210.339048 549.757003 
L 210.466437 549.354376 
L 210.598981 549.229114 
L 210.705097 549.059116 
L 210.801179 548.924907 
L 210.911358 548.737014 
L 211.487084 548.620699 
L 211.670926 548.370176 
L 211.768982 548.235967 
L 211.872366 547.99439 
L 211.982408 547.869128 
L 212.092857 547.645446 
L 212.332268 547.233872 
L 212.923568 546.974401 
L 213.033949 546.849139 
L 213.149803 546.41967 
L 213.295293 546.258619 
L 214.097257 545.041789 
L 214.607923 544.925475 
L 214.883874 544.61232 
L 214.976634 544.442322 
L 215.129166 544.290218 
L 215.166052 544.147062 
L 215.658674 543.261282 
L 216.261805 543.144967 
L 216.364441 542.93918 
L 216.526284 542.74234 
L 216.636526 542.581289 
L 216.739744 542.429185 
L 216.782218 542.312871 
L 217.00337 542.178661 
L 217.288817 541.749192 
L 217.887056 541.588141 
L 217.990322 541.52551 
L 218.07605 541.391301 
L 218.186047 541.176567 
L 218.412993 540.800781 
L 218.580253 540.675519 
L 218.765459 540.254997 
L 218.96781 540.076052 
L 219.505732 539.95079 
L 219.672647 539.825528 
L 219.806931 539.601846 
L 219.951634 539.413953 
L 220.06823 539.243955 
L 220.395425 538.877117 
L 220.476873 538.742908 
L 221.010462 538.608699 
L 221.158974 538.349228 
L 221.539189 537.839233 
L 221.729664 537.391869 
L 221.991814 536.971347 
L 222.10279 536.810296 
L 222.635186 536.604509 
L 222.772334 536.327144 
L 222.992481 536.166093 
L 223.139942 536.031884 
L 223.246427 535.745571 
L 223.373038 535.477152 
L 223.648531 534.967158 
L 224.316762 534.832949 
L 224.74484 534.188745 
L 224.870341 534.036641 
L 225.382028 533.195597 
L 225.813105 533.052441 
L 225.927369 532.470868 
L 226.175108 532.130872 
L 226.308905 531.942979 
L 226.857938 530.976673 
L 226.967838 530.851411 
L 227.004571 530.779833 
L 227.411697 530.663519 
L 227.458373 530.359311 
L 227.671959 530.055104 
L 228.661385 528.543014 
L 228.997212 528.301438 
L 229.477575 527.621445 
L 229.592824 527.370921 
L 229.683083 527.227765 
L 230.653955 525.975146 
L 230.754233 525.814096 
L 230.863724 525.644097 
L 230.986567 525.330943 
L 231.119872 525.053577 
L 231.229382 524.767264 
L 231.526316 524.042535 
L 231.689681 523.836748 
L 232.282602 523.595171 
L 232.642921 523.165702 
L 232.783607 522.968862 
L 232.883903 522.834653 
L 232.955737 522.664655 
L 233.158207 522.467815 
L 233.3233 522.342553 
L 233.477617 522.288869 
L 233.799163 522.145713 
L 233.910631 522.002556 
L 234.031097 521.850453 
L 234.289003 521.626771 
L 234.392097 521.438878 
L 234.495173 521.295722 
L 234.747106 520.955725 
L 235.106317 520.884147 
L 235.401459 520.749938 
L 235.958182 519.989419 
L 236.040472 519.85521 
L 236.202499 519.640476 
L 236.461221 519.398899 
L 236.966472 519.058903 
L 237.067563 518.933641 
L 237.159704 518.799432 
L 237.296694 518.602592 
L 237.409679 518.450488 
L 238.017347 517.913652 
L 238.548643 517.743653 
L 238.844978 517.287342 
L 239.190436 516.661033 
L 239.306011 516.47314 
L 239.450193 516.329984 
L 239.831456 515.989988 
L 240.153699 515.828937 
L 240.250654 515.721569 
L 240.512217 515.497887 
L 240.601401 515.265258 
L 240.713272 515.005787 
L 240.818655 514.826842 
L 241.212484 514.334742 
L 241.659603 514.20948 
L 241.766177 514.093165 
L 242.231367 513.305805 
L 242.346474 513.09107 
L 242.547866 512.786863 
L 242.654765 512.661601 
L 242.764196 512.482656 
L 243.38739 511.981608 
L 243.563801 511.847399 
L 243.676138 511.731085 
L 243.873443 511.552139 
L 244.634383 511.489508 
L 244.972268 511.364246 
L 245.118621 511.274774 
L 246.085511 510.988461 
L 246.526512 510.836357 
L 246.676253 510.666359 
L 246.880992 510.460572 
L 247.215949 510.299521 
L 247.311881 510.227942 
L 248.121579 509.870051 
L 248.371643 509.592686 
L 248.599542 509.386899 
L 248.744911 509.199006 
L 248.856774 508.966377 
L 249.261566 508.769537 
L 249.423232 508.653222 
L 249.997134 508.357962 
L 250.104354 508.304278 
L 250.270985 508.152175 
L 250.430501 507.624285 
L 250.529473 507.54376 
L 250.644476 507.382709 
L 250.724606 507.311131 
L 251.254886 507.15008 
L 251.537381 506.747453 
L 251.801497 506.389562 
L 251.984921 506.237458 
L 252.177082 505.754305 
L 252.314285 505.53957 
L 252.658253 505.127996 
L 252.886536 504.993787 
L 253.006184 504.734316 
L 253.12189 504.546423 
L 253.355349 504.224321 
L 253.580057 503.946955 
L 253.797952 503.499592 
L 254.284181 502.837493 
L 254.469692 502.703284 
L 254.675484 502.229079 
L 254.783862 502.014344 
L 255.222546 501.289615 
L 255.427597 501.155406 
L 255.506708 501.030144 
L 255.684445 500.886987 
L 255.871775 500.699095 
L 256.099666 500.511202 
L 256.365259 500.126469 
L 256.492032 500.001207 
L 258.159566 497.549654 
L 258.277357 497.281236 
L 258.598263 496.842819 
L 258.71174 496.41335 
L 259.431698 495.634937 
L 259.542545 495.348624 
L 259.66149 495.178626 
L 260.230422 493.943902 
L 260.556216 493.460749 
L 260.780169 493.317593 
L 260.870859 493.156542 
L 261.02466 492.977596 
L 261.151707 492.83444 
L 261.361574 492.709178 
L 261.698469 492.369182 
L 262.049777 491.984449 
L 262.476615 491.823398 
L 263.246055 490.803408 
L 263.440398 490.651305 
L 263.584472 490.579727 
L 264.087111 490.364992 
L 264.263372 490.123416 
L 264.483052 489.935523 
L 264.911959 489.541843 
L 265.28186 489.371844 
L 265.495533 489.35395 
L 265.942538 489.183952 
L 266.031357 489.103426 
L 266.29636 488.924481 
L 266.646781 488.539748 
L 267.31741 488.235541 
L 267.403723 488.217646 
L 267.708502 488.047648 
L 267.817464 487.913439 
L 268.441078 487.537653 
L 268.839964 487.412391 
L 269.291321 487.108184 
L 269.390406 486.982922 
L 269.526656 486.786082 
L 269.64226 486.589242 
L 270.906024 485.300834 
L 271.14634 484.969785 
L 271.994843 484.576105 
L 272.115217 484.39716 
L 272.216414 484.012427 
L 272.420476 483.797692 
L 272.523668 483.663483 
L 272.686013 483.520327 
L 273.140837 483.269803 
L 273.622158 483.117699 
L 273.723313 483.046121 
L 273.961183 482.911912 
L 274.07133 482.768756 
L 274.516603 482.115604 
L 274.600605 481.70403 
L 274.96905 481.578768 
L 275.340419 481.158246 
L 275.449361 481.024037 
L 275.700875 480.692988 
L 276.321874 479.932469 
L 276.661615 479.789313 
L 276.766308 479.672998 
L 276.905169 479.503 
L 277.01792 479.315107 
L 277.372813 479.0109 
L 277.571699 478.831955 
L 277.72873 478.5188 
L 277.835352 478.366696 
L 278.641357 477.552494 
L 278.842608 477.418285 
L 279.013438 477.194603 
L 279.08508 477.0425 
L 279.185186 476.926185 
L 279.27073 476.791976 
L 279.381554 476.505663 
L 279.615578 476.255139 
L 281.343313 474.590946 
L 281.566613 474.456737 
L 281.656651 474.394106 
L 281.875502 474.224108 
L 282.037792 474.027268 
L 282.51714 473.374117 
L 282.627976 473.26675 
L 282.79411 473.168329 
L 283.034407 473.043068 
L 283.164679 472.83728 
L 283.755229 472.237813 
L 283.865107 472.112551 
L 283.977352 471.924658 
L 284.839302 470.949405 
L 286.212405 468.918374 
L 286.526424 468.605219 
L 286.765008 468.211539 
L 287.559762 467.307864 
L 288.061035 467.182603 
L 288.400886 466.949973 
L 288.496526 466.753133 
L 288.597988 466.627871 
L 288.691027 466.431031 
L 288.860267 466.252086 
L 289.246244 466.091035 
L 289.515111 465.947879 
L 290.248937 464.918942 
L 290.357168 464.748944 
L 290.684947 464.426842 
L 291.164929 464.024214 
L 291.362183 463.299485 
L 291.450857 463.066856 
L 291.531526 462.941594 
L 291.789942 462.404758 
L 292.272425 461.724765 
L 292.693151 461.60845 
L 293.068219 461.187928 
L 293.214575 461.053719 
L 293.697553 460.42741 
L 294.351228 460.194781 
L 294.460075 459.988993 
L 294.924865 459.156897 
L 295.028833 458.861637 
L 295.204175 458.584271 
L 295.417511 458.333748 
L 295.844771 458.181644 
L 295.983295 457.993751 
L 296.478443 457.358495 
L 296.554336 457.215338 
L 297.106294 456.481662 
L 297.474997 456.311663 
L 297.914805 455.66746 
L 298.047225 455.3722 
L 298.248339 454.960625 
L 298.417771 454.504314 
L 298.517472 454.25379 
L 298.655628 454.065897 
L 299.18093 453.099592 
L 299.272426 452.893804 
L 299.410303 452.732753 
L 299.545261 452.544861 
L 299.642411 452.410652 
L 300.290204 451.515924 
L 300.665399 451.381715 
L 300.771373 451.229611 
L 301.958132 449.869625 
L 302.234681 449.735416 
L 303.770951 447.167548 
L 303.878692 447.006497 
L 304.085333 446.70229 
L 304.223355 446.371241 
L 304.902553 445.136517 
L 305.06603 445.002308 
L 305.163699 444.966519 
L 305.435731 444.841257 
L 306.488994 443.016013 
L 306.970452 442.863909 
L 307.162189 442.398651 
L 307.265587 442.201811 
L 307.356085 442.049707 
L 307.467311 441.772342 
L 308.412662 440.850772 
L 308.651735 440.72551 
L 308.871637 440.43025 
L 309.229789 439.902361 
L 309.438121 439.607101 
L 309.540602 439.392366 
L 310.521852 438.497639 
L 310.62457 438.26501 
L 310.812266 437.942908 
L 311.348837 436.967655 
L 311.416349 436.896077 
L 311.743275 436.761868 
L 311.889605 436.55608 
L 312.843425 435.097674 
L 313.408584 434.757678 
L 313.485149 434.569785 
L 313.611451 434.444523 
L 313.726724 434.158211 
L 313.833735 433.970318 
L 314.107117 433.388745 
L 314.212526 433.227694 
L 314.833867 432.556648 
L 314.961262 432.431386 
L 315.070253 432.261388 
L 315.25006 432.037706 
L 315.80807 431.00877 
L 316.032265 430.650879 
L 316.25985 430.454039 
L 316.478925 430.069306 
L 316.640813 429.765099 
L 317.602719 428.333535 
L 318.10623 428.190378 
L 318.407505 427.82354 
L 318.512927 427.698278 
L 318.751456 427.385123 
L 318.956907 427.161442 
L 319.188002 426.928812 
L 319.359027 426.848287 
L 319.929015 426.418818 
L 320.31475 425.989348 
L 321.360318 425.792508 
L 321.450055 425.533037 
L 321.548372 425.407776 
L 321.657655 425.255672 
L 321.780635 425.067779 
L 321.888924 424.879886 
L 322.006268 424.521995 
L 322.105692 424.164104 
L 322.224837 424.020948 
L 322.35385 423.582532 
L 322.428888 423.412533 
L 322.522546 423.287271 
L 322.598326 423.188851 
L 322.867009 423.06359 
L 323.140894 422.464122 
L 323.293247 422.14202 
L 323.403202 421.918338 
L 323.556915 421.417291 
L 324.140558 420.298882 
L 324.4371 420.17362 
L 324.561252 419.887307 
L 324.669924 419.672572 
L 324.788476 419.439943 
L 324.896062 419.216261 
L 325.040241 418.965738 
L 325.172171 418.840476 
L 325.286583 418.598899 
L 325.417455 418.455743 
L 325.584328 418.196272 
L 326.096947 418.044168 
L 326.258856 417.802592 
L 327.038344 416.800497 
L 327.890038 416.666288 
L 328.073132 416.460501 
L 328.494411 416.192082 
L 329.267226 416.048926 
L 330.325461 414.823149 
L 330.953561 414.572626 
L 331.005325 414.545784 
L 331.142244 414.420522 
L 331.25188 413.892633 
L 331.555846 413.364743 
L 331.849735 412.971063 
L 331.959337 412.774223 
L 332.494805 412.550541 
L 332.590687 412.42528 
L 332.685805 412.273176 
L 332.796786 412.058441 
L 332.978046 411.816865 
L 333.087219 411.664761 
L 333.528672 410.957927 
L 334.009744 410.81477 
L 334.115713 410.573194 
L 334.298915 410.358459 
L 334.396558 410.009515 
L 334.566993 409.776886 
L 334.654285 409.562152 
L 334.782085 409.43689 
L 335.473916 408.774791 
L 335.645099 408.640582 
L 335.888592 408.12164 
L 335.988743 407.897958 
L 336.092512 407.683224 
L 336.186827 407.504278 
L 336.292386 407.226913 
L 336.460399 406.877969 
L 336.566149 406.779549 
L 336.892897 406.511131 
L 337.221694 406.376922 
L 337.330099 406.171134 
L 337.422497 406.045873 
L 337.50741 405.911663 
L 337.616867 405.732718 
L 337.718355 405.553772 
L 338.08092 405.03483 
L 338.183122 404.829043 
L 338.239161 404.685887 
L 338.305583 404.614309 
L 338.856828 404.44431 
L 338.981587 404.166945 
L 339.082155 403.987999 
L 339.136883 403.844843 
L 339.212416 403.701686 
L 339.26575 403.576425 
L 339.373469 403.325901 
L 339.606751 402.887484 
L 339.715642 402.681697 
L 340.604907 401.903284 
L 340.684957 401.715391 
L 340.867822 401.55434 
L 341.019011 401.232239 
L 341.128095 400.96382 
L 341.235554 400.802769 
L 341.341557 400.659613 
L 341.552361 400.426984 
L 341.611749 400.400142 
L 341.787878 400.27488 
L 341.852389 400.051198 
L 341.960943 399.738044 
L 342.342382 399.075945 
L 342.482059 398.709107 
L 342.592414 398.431742 
L 342.676523 398.270691 
L 342.778354 398.091745 
L 343.086714 397.71596 
L 343.185388 397.608592 
L 343.75049 397.259648 
L 343.859834 397.152281 
L 344.84498 396.132292 
L 345.201337 396.00703 
L 345.432487 395.819137 
L 345.539972 395.523877 
L 346.212452 394.763359 
L 346.887061 394.593361 
L 347.106373 394.450204 
L 347.486506 394.154944 
L 347.756682 393.60916 
L 347.835358 393.421268 
L 347.991885 393.304953 
L 348.214161 392.973904 
L 348.438161 392.62496 
L 348.618766 392.481804 
L 349.509625 391.533393 
L 350.047513 391.309711 
L 350.508186 390.647612 
L 350.733099 390.262879 
L 351.256045 389.73499 
L 351.561325 389.591834 
L 351.817457 389.207101 
L 352.392999 388.392899 
L 352.5 388.240795 
L 352.766951 388.106586 
L 353.210281 387.972377 
L 353.694507 387.319226 
L 354.050203 386.970282 
L 354.155037 386.737653 
L 354.335736 386.692917 
L 354.692583 386.540813 
L 355.055 385.744506 
L 355.323886 385.476087 
L 355.418977 385.377667 
L 355.483854 385.225564 
L 355.585956 385.010829 
L 355.709676 384.796094 
L 355.805613 384.626096 
L 356.366719 384.420309 
L 356.472598 384.18768 
L 356.617433 384.035576 
L 356.890223 383.668738 
L 357.0442 383.40032 
L 357.188339 383.185585 
L 357.400467 382.881378 
L 357.974664 382.729274 
L 358.026271 382.550328 
L 358.131234 382.442961 
L 358.517649 381.924019 
L 358.620285 381.736126 
L 358.791528 381.530339 
L 358.900875 381.217184 
L 359.168087 381.074028 
L 359.524583 380.948766 
L 359.635935 380.581928 
L 359.765002 380.376141 
L 359.906475 379.928777 
L 360.082301 379.705095 
L 360.152561 379.544044 
L 360.301026 379.409835 
L 360.5733 378.989313 
L 360.67398 378.872998 
L 361.192206 378.497213 
L 361.303917 378.193006 
L 361.41981 378.040902 
L 361.518451 377.888798 
L 361.726538 377.656169 
L 361.836337 377.405645 
L 361.934227 377.253542 
L 362.139882 376.725652 
L 362.148095 376.654074 
L 362.659624 376.501971 
L 362.869891 376.323025 
L 362.975612 375.947239 
L 363.091687 375.678821 
L 363.188224 375.544612 
L 363.240081 375.41935 
L 363.352002 375.213563 
L 363.890672 374.363572 
L 363.996672 374.193574 
L 364.291662 374.04147 
L 364.395204 373.853577 
L 364.505095 373.585159 
L 364.596496 373.477792 
L 364.752532 373.325688 
L 365.404141 372.520433 
L 365.900842 372.359382 
L 366.044658 372.144648 
L 366.37181 371.750968 
L 366.437003 371.598864 
L 366.508784 371.419918 
L 366.68012 371.294656 
L 366.757616 371.142553 
L 366.900058 370.999396 
L 366.941688 370.883082 
L 367.574064 370.704136 
L 367.993737 370.274667 
L 368.076411 370.095722 
L 368.230852 369.952565 
L 368.348999 369.684147 
L 368.450937 369.388887 
L 368.597973 369.120469 
L 368.664321 369.030996 
L 369.096561 368.896787 
L 369.149799 368.726789 
L 369.24119 368.440476 
L 369.364394 368.270478 
L 369.469768 368.06469 
L 370.101421 367.089437 
L 370.122262 367.008912 
L 370.69648 366.874703 
L 370.719161 366.829966 
L 371.067839 366.695757 
L 371.33001 366.328919 
L 371.637156 366.132079 
L 371.731311 365.99787 
L 371.834621 365.854713 
L 371.900424 365.738399 
L 372.556185 365.559453 
L 372.688921 365.192615 
L 372.793745 364.772093 
L 373.048058 364.467886 
L 373.141786 364.262098 
L 373.218735 364.118942 
L 373.291153 363.984733 
L 373.730359 363.787893 
L 373.884652 363.617895 
L 373.965318 363.447896 
L 374.071998 363.170531 
L 374.206458 362.902113 
L 374.316976 362.571063 
L 374.414955 362.356329 
L 374.548191 362.114752 
L 375.18453 361.434759 
L 375.490086 361.309498 
L 375.556303 361.130552 
L 375.667384 360.90687 
L 375.737599 360.71003 
L 375.8523 360.548979 
L 376.329852 359.958459 
L 376.449807 359.698988 
L 376.560573 359.645304 
L 377.036474 359.511095 
L 377.379393 359.054784 
L 377.471902 358.857944 
L 377.564754 358.705841 
L 377.67519 358.410581 
L 377.876593 358.05269 
L 377.983492 357.954269 
L 378.132775 357.748482 
L 378.220912 357.62322 
L 378.594306 357.381644 
L 378.699454 357.13112 
L 379.228218 356.522705 
L 379.332094 356.129025 
L 379.475828 355.914291 
L 379.587952 355.815871 
L 379.967209 355.404296 
L 380.229374 355.279034 
L 380.335525 355.117983 
L 380.440699 354.930091 
L 380.816457 354.267992 
L 381.295175 353.605894 
L 381.87722 353.444843 
L 381.980759 353.239056 
L 382.074063 353.104846 
L 382.219211 352.854323 
L 382.308572 352.648535 
L 382.413272 352.496432 
L 382.621265 352.058015 
L 382.689271 351.816439 
L 382.78252 351.494337 
L 382.891443 351.333286 
L 383.206323 350.984342 
L 383.395325 350.85908 
L 383.506288 350.787502 
L 383.581823 350.66224 
L 383.668378 350.411717 
L 383.77315 350.277508 
L 384.149131 349.651198 
L 384.205173 349.525936 
L 384.243486 349.338044 
L 384.350637 349.096467 
L 384.847325 348.20174 
L 384.958459 348.094372 
L 385.279188 347.763323 
L 385.406585 347.494905 
L 385.528394 347.342801 
L 386.132224 346.680703 
L 386.691943 346.555441 
L 386.826693 346.367548 
L 386.929966 346.161761 
L 387.018127 346.00071 
L 387.444867 345.535452 
L 387.514227 345.428085 
L 387.783105 345.267034 
L 387.857524 345.249139 
L 388.435849 345.123877 
L 388.644747 344.774933 
L 388.700997 344.604935 
L 388.805292 344.452832 
L 388.96172 344.32757 
L 389.160046 344.238097 
L 389.241646 344.077046 
L 389.344467 343.719155 
L 389.391867 343.531262 
L 389.491568 343.200213 
L 389.798985 342.896006 
L 389.88042 342.663377 
L 390.078056 342.538115 
L 390.207722 342.386011 
L 390.31774 342.144435 
L 390.479383 341.992331 
L 390.826003 341.464442 
L 390.946632 341.392863 
L 391.015736 341.357074 
L 391.360995 341.231813 
L 391.872621 340.489189 
L 391.979575 340.381821 
L 392.426285 339.737618 
L 392.881846 339.603408 
L 393.192806 339.084467 
L 393.300597 338.896574 
L 393.500536 338.502894 
L 393.594588 338.377632 
L 393.716202 338.234475 
L 393.811563 338.010794 
L 393.915141 337.849743 
L 394.032517 337.66185 
L 394.544215 337.420273 
L 395.2267 336.257128 
L 395.313794 336.087129 
L 395.434816 335.890289 
L 395.582107 335.702397 
L 395.673171 335.603977 
L 396.068427 335.451873 
L 396.177803 335.299769 
L 396.695042 334.324516 
L 397.000429 333.671365 
L 397.589294 333.152423 
L 397.779478 332.991372 
L 397.997629 332.597692 
L 398.079472 332.436641 
L 398.18637 332.284538 
L 398.373876 331.908752 
L 398.476434 331.667176 
L 398.582361 331.479283 
L 398.946913 330.99613 
L 399.286764 330.861921 
L 399.481373 330.432452 
L 399.680138 330.038772 
L 399.880544 329.788248 
L 399.990038 329.376673 
L 400.225639 328.929309 
L 400.332872 328.741417 
L 400.763882 328.40142 
L 400.862468 328.267211 
L 400.999273 327.980898 
L 401.110957 327.757216 
L 401.220973 327.596165 
L 401.399542 327.336694 
L 401.507757 327.104065 
L 401.53883 326.951962 
L 401.637349 326.62986 
L 401.812981 326.441967 
L 402.101731 326.003551 
L 402.210999 325.726185 
L 402.541874 325.323558 
L 402.730691 324.965667 
L 402.852526 324.661459 
L 402.99913 324.303568 
L 403.04907 324.151465 
L 403.165684 323.847257 
L 403.628037 323.596734 
L 404.049002 323.471472 
L 404.198777 323.265684 
L 404.448341 323.059897 
L 404.558596 322.925688 
L 404.691479 322.773584 
L 405.478283 322.254642 
L 405.75394 322.120433 
L 406.087534 321.83412 
L 406.456972 321.682017 
L 407.655158 321.2436 
L 407.785396 321.163075 
L 407.880972 321.037813 
L 407.957908 320.805184 
L 408.057417 320.617291 
L 408.161517 320.45624 
L 408.326938 320.223611 
L 408.433899 319.892562 
L 408.506078 319.722563 
L 408.5962 319.454145 
L 408.648578 319.328883 
L 408.751017 319.257305 
L 408.927499 319.060465 
L 409.79763 317.76311 
L 410.499977 317.548376 
L 410.599695 317.485745 
L 411.194283 317.244168 
L 411.303505 317.145748 
L 411.537425 317.127854 
L 412.320841 317.011539 
L 412.794834 316.161548 
L 413.232249 315.785762 
L 413.60846 315.624712 
L 414.649405 314.211042 
L 415.002319 313.897887 
L 415.262839 313.772626 
L 415.938064 312.976318 
L 416.125871 312.600533 
L 416.261068 312.403693 
L 416.343616 312.269483 
L 416.997555 311.965276 
L 417.282755 311.634227 
L 417.388189 311.464229 
L 417.473009 311.338967 
L 417.580992 311.19581 
L 417.944096 310.596343 
L 418.487341 310.435292 
L 418.596782 310.095296 
L 419.84105 308.771099 
L 420.062115 308.63689 
L 420.381136 307.965844 
L 420.490556 307.786899 
L 421.454434 306.570069 
L 421.701087 306.409018 
L 421.78288 306.256915 
L 421.882786 306.113758 
L 422.009075 305.872182 
L 422.773756 304.852192 
L 423.420851 304.691141 
L 423.55381 304.512196 
L 423.649718 304.360092 
L 423.759307 304.1722 
L 423.877609 303.948518 
L 424.12885 303.322208 
L 424.192063 303.170105 
L 424.330035 302.85695 
L 424.471005 302.686952 
L 424.568569 302.516954 
L 424.736366 302.346955 
L 424.961614 301.97117 
L 425.066333 301.631173 
L 425.225351 301.309072 
L 425.354651 301.049601 
L 425.896269 300.521711 
L 426.443163 300.405397 
L 426.70801 300.136979 
L 427.166435 299.975928 
L 427.345086 299.877508 
L 428.272023 299.47488 
L 428.378126 299.340671 
L 429.142249 298.732256 
L 429.62941 298.606994 
L 429.727574 298.419102 
L 429.836465 298.105947 
L 430.520396 296.737014 
L 430.985122 296.495438 
L 431.274465 296.074916 
L 431.379702 295.851234 
L 432.494838 294.374933 
L 432.746929 294.240724 
L 433.791505 292.871791 
L 433.840187 292.818108 
L 434.259975 292.683898 
L 434.680298 292.164957 
L 434.785238 291.959169 
L 434.900176 291.807066 
L 435.011202 291.690751 
L 435.09684 291.502858 
L 435.231266 291.368649 
L 435.331655 291.109178 
L 435.403178 291.001811 
L 435.880564 290.787076 
L 436.046524 290.473922 
L 436.201107 290.312871 
L 436.284034 290.178661 
L 436.671709 289.391301 
L 436.71277 289.257092 
L 436.823941 289.060252 
L 436.954768 288.908148 
L 437.051977 288.845517 
L 437.478486 288.702361 
L 437.514205 288.54131 
L 437.621725 288.299734 
L 437.827074 287.968685 
L 437.93759 287.745003 
L 438.171696 287.226061 
L 438.636538 286.653435 
L 439.017337 286.483437 
L 439.121632 286.411859 
L 440.017554 285.418711 
L 440.697262 285.06082 
L 440.985023 284.631351 
L 441.151999 284.318196 
L 441.262764 284.094514 
L 441.485422 283.736623 
L 441.614401 283.566625 
L 441.697873 283.423469 
L 441.79406 283.316102 
L 442.378003 282.89558 
L 442.487376 282.671898 
L 442.655968 282.314007 
L 442.766978 282.117167 
L 443.015623 281.812959 
L 443.168574 281.660856 
L 443.313845 281.410332 
L 443.427043 281.258228 
L 444.226133 280.640866 
L 444.333092 280.408237 
L 444.459565 280.256133 
L 444.567753 280.121924 
L 444.701553 279.862453 
L 444.807827 279.674561 
L 445.110601 279.51351 
L 445.484637 279.325617 
L 446.821206 277.70616 
L 447.154669 277.554056 
L 447.608313 276.695118 
L 447.828688 276.551962 
L 447.890804 276.444594 
L 448.701405 276.211965 
L 449.001967 275.854074 
L 449.363299 275.693023 
L 450.60539 275.147239 
L 450.710188 274.71777 
L 450.763882 274.547772 
L 450.895149 274.306196 
L 451.003727 274.118303 
L 451.07027 273.894621 
L 451.180348 273.608308 
L 451.264241 273.420415 
L 451.368531 273.295154 
L 451.588546 273.169892 
L 451.821365 273.035683 
L 451.932022 272.94621 
L 452.056116 272.794106 
L 452.247792 272.615161 
L 452.427401 272.45411 
L 452.56825 272.293059 
L 452.698348 272.114113 
L 452.810627 271.997799 
L 453.114799 271.720433 
L 453.489691 271.586224 
L 453.591782 271.371489 
L 453.735166 271.156755 
L 453.923778 270.933073 
L 454.150722 270.754127 
L 454.250883 270.584129 
L 454.45221 270.44992 
L 454.636482 270.306764 
L 454.981793 270.074135 
L 455.092848 269.868347 
L 455.32504 269.555193 
L 455.495386 269.304669 
L 455.755903 268.982567 
L 456.168121 268.356258 
L 456.817155 268.034156 
L 456.942494 267.95363 
L 457.630421 267.327321 
L 457.723673 267.193112 
L 458.03528 267.157323 
L 458.293239 267.023114 
L 459.241944 266.047861 
L 459.316784 265.976283 
L 459.863923 265.797337 
L 460.018634 265.582603 
L 460.135588 265.376815 
L 460.241199 265.251553 
L 460.42099 265.072608 
L 460.542441 264.875768 
L 460.702881 264.598402 
L 461.456971 264.231564 
L 461.935355 263.605255 
L 462.109402 263.381573 
L 462.219554 263.229469 
L 462.529403 262.835789 
L 463.132613 262.683685 
L 463.379876 262.468951 
L 463.483929 262.164743 
L 463.719627 261.797905 
L 463.826165 261.681591 
L 463.916903 261.52054 
L 464.029166 261.287911 
L 464.307226 261.198438 
L 464.671828 261.073176 
L 464.773848 260.858441 
L 464.882058 260.652654 
L 465.409131 259.847399 
L 465.598512 259.61477 
L 465.694633 259.543192 
L 466.080102 259.382141 
L 466.312669 259.068986 
L 466.429949 258.898988 
L 467.650372 257.539002 
L 468.03953 257.243742 
L 468.149316 257.055849 
L 468.536251 256.599538 
L 468.61703 256.483224 
L 468.751214 256.340067 
L 469.702404 255.865862 
L 469.807415 255.785336 
L 470.066387 255.579549 
L 470.598441 255.373762 
L 471.008013 255.230605 
L 471.898343 254.532718 
L 471.96183 254.487982 
L 472.615977 254.273247 
L 472.720064 254.103249 
L 472.821771 253.879567 
L 472.934824 253.414309 
L 473.084034 253.24431 
L 473.195584 252.966945 
L 473.243908 252.779052 
L 473.349885 252.492739 
L 473.432409 252.331688 
L 473.6186 252.116954 
L 473.870193 251.982745 
L 473.952149 251.929061 
L 474.202276 251.76801 
L 474.331943 251.526434 
L 474.515608 251.320646 
L 474.614091 251.168543 
L 474.682316 251.025386 
L 474.781796 250.756968 
L 474.937845 250.515391 
L 475.036749 250.416971 
L 475.897903 249.933819 
L 476.322291 249.531191 
L 476.432229 249.450666 
L 476.595715 249.289615 
L 476.724107 249.07488 
L 476.825843 248.895935 
L 477.397605 248.555938 
L 477.504012 248.439624 
L 477.677685 248.162258 
L 477.77264 248.045944 
L 477.933516 247.849103 
L 478.106489 247.652263 
L 478.211742 247.482265 
L 478.316816 247.294372 
L 478.600718 247.160163 
L 479.00538 247.034901 
L 479.126104 246.721747 
L 479.395279 246.444381 
L 479.652109 246.068596 
L 479.762282 245.98807 
L 479.938179 245.782283 
L 480.02694 245.737547 
L 480.499767 245.540707 
L 480.724628 245.147026 
L 480.831887 244.950186 
L 480.926481 244.815977 
L 481.045428 244.654926 
L 481.692531 243.795988 
L 482.126943 243.617042 
L 482.337167 243.321782 
L 482.606427 243.089153 
L 482.708229 242.829682 
L 482.970373 242.534422 
L 483.082608 242.471791 
L 483.11689 242.328635 
L 483.485451 242.149689 
L 483.757925 242.006533 
L 484.043116 241.657589 
L 484.134623 241.550222 
L 484.247247 241.416013 
L 484.402651 241.210225 
L 484.969098 240.404971 
L 485.359766 240.252867 
L 486.578059 239.805503 
L 486.984338 239.680241 
L 487.17533 239.537085 
L 487.518003 239.170247 
L 487.617412 238.955512 
L 487.73542 238.803408 
L 487.937584 238.53499 
L 488.137389 238.43657 
L 488.50849 238.311308 
L 488.580525 238.096574 
L 488.68756 237.908681 
L 489.670257 237.112374 
L 490.066014 236.996059 
L 491.220852 235.94028 
L 491.744499 235.761335 
L 492.885725 234.848713 
L 493.711831 234.66082 
L 493.908127 234.481875 
L 494.029607 234.401349 
L 495.669795 233.390307 
L 495.877916 233.050311 
L 495.974556 232.907154 
L 496.495906 232.567158 
L 496.604974 232.39716 
L 497.00738 231.860323 
L 497.181061 231.699272 
L 497.441239 231.404012 
L 497.607641 231.251908 
L 498.074524 231.046121 
L 499.579186 229.542979 
L 499.898736 229.390875 
L 500.360122 228.907722 
L 501.255846 228.200888 
L 501.3643 228.075626 
L 501.47068 227.860891 
L 502.508503 226.608273 
L 502.80125 226.456169 
L 503.16831 225.892491 
L 503.278705 225.811965 
L 503.594553 225.507758 
L 503.684093 225.445127 
L 503.784392 225.293023 
L 503.89496 225.230392 
L 504.304127 225.069341 
L 505.715924 223.351465 
L 506.039309 223.217255 
L 506.177373 223.011468 
L 506.316208 222.859364 
L 506.421875 222.635683 
L 506.549156 222.456737 
L 507.013504 221.687271 
L 507.103233 221.499379 
L 507.634937 221.293591 
L 507.745369 220.926753 
L 507.873719 220.712018 
L 507.977324 220.380969 
L 508.215697 220.085709 
L 508.458922 219.718871 
L 508.697643 219.441505 
L 509.248303 219.26256 
L 509.39054 218.985194 
L 510.364018 217.312054 
L 511.139732 216.909427 
L 512.002469 216.444168 
L 512.389104 216.309959 
L 512.875293 215.638914 
L 512.979004 215.370495 
L 513.176234 215.200497 
L 513.27254 215.039446 
L 514.296151 214.359453 
L 514.398506 214.234191 
L 514.516434 214.010509 
L 514.629245 213.956826 
L 514.893487 213.697355 
L 515.672454 213.008415 
L 515.784141 212.766838 
L 515.983796 212.543156 
L 516.091771 212.373158 
L 516.182364 212.131582 
L 516.351865 211.943689 
L 516.498713 211.585798 
L 516.570848 211.371063 
L 516.949846 211.227907 
L 517.262755 210.861069 
L 517.367039 210.753701 
L 517.428778 210.619492 
L 517.504592 210.485283 
L 517.701383 210.351074 
L 517.809116 210.190023 
L 518.584659 209.384768 
L 518.710379 209.250559 
L 518.909066 208.785301 
L 519.020084 208.651092 
L 519.191651 208.409515 
L 519.297594 208.257412 
L 519.946376 207.666892 
L 520.289886 207.514788 
L 520.391562 207.371631 
L 520.661656 207.040582 
L 520.763013 206.85269 
L 520.89358 206.637955 
L 521.152252 206.199538 
L 521.335749 205.984804 
L 521.47634 205.841647 
L 522.206889 205.197444 
L 522.298806 205.018498 
L 522.437597 204.884289 
L 522.546264 204.571134 
L 522.793927 204.249032 
L 522.898833 204.105876 
L 523.51154 203.66746 
L 524.213477 202.414841 
L 524.269161 202.25379 
L 524.368609 202.110634 
L 524.503525 201.895899 
L 524.59387 201.672217 
L 525.029746 201.484325 
L 525.154803 201.341168 
L 525.258081 201.117486 
L 525.76935 200.553808 
L 525.867416 200.419599 
L 525.958515 200.267495 
L 526.062812 200.052761 
L 526.135976 199.918551 
L 526.514974 199.703817 
L 526.713445 199.56066 
L 527.114177 199.158033 
L 527.220625 199.032771 
L 527.927579 198.665933 
L 528.450699 198.504882 
L 528.544896 198.325936 
L 528.698344 198.164885 
L 528.790261 197.869625 
L 528.885337 197.744364 
L 528.977565 197.547524 
L 529.139029 197.368578 
L 529.243818 197.153843 
L 529.344617 197.028582 
L 529.443932 196.760163 
L 530.13965 196.366483 
L 530.283348 196.241221 
L 530.802256 196.08017 
L 530.832418 196.053329 
L 531.900378 195.856489 
L 532.311877 195.614912 
L 532.419986 195.346494 
L 532.526303 195.09597 
L 532.61897 194.917025 
L 533.058241 194.630712 
L 535.432081 192.43863 
L 535.530935 192.286526 
L 535.622552 192.098633 
L 535.772901 191.821268 
L 536.206968 191.570744 
L 536.296013 191.409693 
L 536.407579 191.266536 
L 536.601664 191.007066 
L 536.727084 190.801278 
L 536.864848 190.622333 
L 536.915649 190.497071 
L 536.967174 190.425493 
L 537.207208 190.291284 
L 537.419963 190.157074 
L 537.842499 190.013918 
L 538.915992 188.43025 
L 539.499185 188.099201 
L 539.610692 187.884467 
L 539.712381 187.768152 
L 539.818492 187.598154 
L 539.935178 187.499734 
L 540.244725 187.159737 
L 540.501752 186.95395 
L 541.089724 186.739215 
L 541.272706 186.622901 
L 541.576888 186.327641 
L 541.677344 186.148695 
L 541.784403 185.996592 
L 541.892239 185.763962 
L 541.992938 185.602911 
L 542.207161 185.388177 
L 542.603368 185.253968 
L 542.731005 185.066075 
L 542.82233 184.940813 
L 542.927577 184.726078 
L 543.062933 184.493449 
L 543.173477 184.323451 
L 543.393905 183.849246 
L 543.645996 183.634511 
L 543.74873 183.500302 
L 544.307893 183.169253 
L 544.417526 183.052938 
L 544.634577 182.58768 
L 544.780275 182.408734 
L 544.880424 182.185052 
L 544.97015 181.988212 
L 545.072842 181.80032 
L 545.999824 181.084538 
L 546.159076 180.789277 
L 546.268347 180.646121 
L 546.628236 180.145074 
L 546.999869 179.644026 
L 547.519985 179.321924 
L 547.741848 178.883508 
L 547.853611 178.650879 
L 548.144573 178.292988 
L 548.236619 178.015622 
L 548.293727 177.881413 
L 548.398872 177.657731 
L 549.020272 177.344577 
L 549.253607 176.977738 
L 549.379469 176.834582 
L 549.561427 176.405113 
L 549.683125 176.190378 
L 549.795596 175.877224 
L 549.9121 175.689331 
L 550.008079 175.403018 
L 551.270956 174.794603 
L 551.354915 174.678289 
L 551.919854 174.418818 
L 552.133232 174.329345 
L 552.459645 174.186189 
L 552.562013 173.926718 
L 552.651047 173.747772 
L 552.75993 173.210936 
L 553.258445 172.647257 
L 554.074806 172.217788 
L 554.134965 172.137263 
L 554.332285 171.994106 
L 554.896692 171.305166 
L 555.315022 171.16201 
L 555.445178 171.0278 
L 555.552903 170.857802 
L 555.633917 170.714646 
L 555.753004 170.660962 
L 555.839266 170.544648 
L 555.943329 170.320966 
L 556.100371 170.124126 
L 556.208406 169.909391 
L 556.366361 169.757287 
L 556.802921 169.5515 
L 556.914228 169.470975 
L 557.221988 169.175715 
L 557.332179 169.050453 
L 557.460698 168.934138 
L 557.760634 168.719404 
L 558.17383 168.200462 
L 558.538319 168.057305 
L 558.65297 167.905201 
L 558.761163 167.744151 
L 558.867359 167.54731 
L 559.058919 167.189419 
L 559.163135 167.090999 
L 559.260567 166.903107 
L 559.376542 166.607847 
L 559.95443 166.026274 
L 560.191453 165.87417 
L 560.294848 165.704172 
L 560.501489 165.561015 
L 560.613845 165.167335 
L 561.399433 164.281555 
L 561.765551 164.111557 
L 561.875329 163.950506 
L 562.000575 163.887875 
L 562.150649 163.744719 
L 562.271312 163.521037 
L 562.490342 163.225777 
L 562.597296 163.037884 
L 562.879096 162.823149 
L 563.373831 162.581573 
L 563.493088 162.339996 
L 563.776155 162.143156 
L 564.780868 161.427374 
L 564.987857 161.239482 
L 565.081951 161.105273 
L 565.193046 160.962116 
L 565.365571 160.657909 
L 565.474059 160.496858 
L 565.579947 160.282123 
L 565.651149 160.13002 
L 565.761128 159.89739 
L 565.899929 159.646867 
L 566.061979 159.423185 
L 566.488546 159.136872 
L 566.623812 158.957927 
L 566.759233 158.770034 
L 566.861377 158.591088 
L 566.977721 158.403195 
L 567.07812 157.955832 
L 567.211292 157.750044 
L 567.314576 157.293733 
L 567.543499 156.94479 
L 567.654509 156.864264 
L 569.101044 156.399006 
L 569.173347 156.282691 
L 569.640906 156.12164 
L 569.799343 155.933748 
L 569.909205 155.82638 
L 570.257054 155.459542 
L 570.358203 155.289544 
L 571.39078 154.672182 
L 571.495028 154.582709 
L 571.5867 154.457447 
L 571.986645 154.010083 
L 572.057015 153.795349 
L 572.514442 153.330091 
L 572.882769 153.195881 
L 573.006341 153.043778 
L 573.169758 152.900621 
L 573.261478 152.757465 
L 573.410764 152.596414 
L 573.495829 152.524836 
L 573.619883 152.381679 
L 573.727463 152.238523 
L 573.869392 152.086419 
L 574.040282 152.032736 
L 574.182884 151.898527 
L 574.662371 151.522741 
L 574.761838 151.397479 
L 575.082239 151.173797 
L 575.185765 151.084325 
L 575.81528 150.67275 
L 576.193681 150.520646 
L 576.295744 150.440121 
L 576.452451 150.27907 
L 576.552913 150.18065 
L 576.838854 149.992757 
L 576.970516 149.930126 
L 577.62758 149.661708 
L 578.628096 149.169608 
L 578.726574 149.080135 
L 579.086961 148.910137 
L 579.409099 148.605929 
L 579.516745 148.418037 
L 579.72317 147.890147 
L 579.832528 147.398047 
L 579.962015 147.201207 
L 580.06079 146.914894 
L 580.243805 146.727002 
L 580.343622 146.628582 
L 580.894812 146.458583 
L 580.997448 146.360163 
L 581.154484 146.136481 
L 581.794013 145.375963 
L 582.283848 145.071756 
L 582.472432 144.928599 
L 582.670497 144.785443 
L 582.766071 144.678076 
L 583.004668 144.481236 
L 583.115404 144.391763 
L 583.447571 144.069661 
L 583.547007 143.998083 
L 584.74488 143.264406 
L 584.831101 143.004935 
L 584.932095 142.870726 
L 585.094935 142.602308 
L 586.004398 142.128102 
L 586.156522 142.020735 
L 586.389604 141.814948 
L 586.475998 141.743369 
L 586.504955 141.618108 
L 586.567113 141.457057 
L 586.655536 141.287058 
L 586.815694 141.108113 
L 586.917094 141.000746 
L 587.257945 140.839695 
L 587.36577 140.714433 
L 587.533757 140.616013 
L 587.602712 140.472856 
L 587.921638 140.150754 
L 587.973307 139.989704 
L 588.081859 139.828653 
L 589.447625 138.987609 
L 589.548595 138.880241 
L 589.606406 138.710243 
L 589.733016 138.468667 
L 590.495999 137.896041 
L 590.603427 137.797621 
L 590.883179 137.484467 
L 591.065053 137.278679 
L 591.189991 137.117628 
L 591.289929 137.04605 
L 592.061107 136.562897 
L 592.163417 136.383952 
L 592.32476 136.240795 
L 592.794575 135.650275 
L 592.899412 135.525013 
L 594.966043 134.433446 
L 595.442047 134.299237 
L 595.553137 133.932398 
L 595.748846 133.789242 
L 595.844206 133.547666 
L 596.299269 133.216616 
L 596.388004 133.153985 
L 596.805339 132.903462 
L 596.99866 132.670833 
L 597.315449 132.214522 
L 597.478132 132.044523 
L 598.267939 131.59716 
L 598.361225 131.471898 
L 598.499776 131.346636 
L 598.711546 131.158743 
L 598.820637 131.078218 
L 599.022851 130.908219 
L 599.153602 130.756116 
L 599.256826 130.639801 
L 600.675385 129.369288 
L 600.781373 129.118764 
L 601.176516 128.841399 
L 601.562541 128.60877 
L 601.845934 128.447719 
L 602.015019 128.31351 
L 602.118076 128.188248 
L 602.222911 128.054039 
L 602.332194 127.946671 
L 602.837842 127.6872 
L 603.175788 127.499308 
L 603.286235 127.400888 
L 604.068135 126.711947 
L 604.168297 126.568791 
L 604.763888 126.336162 
L 604.850155 126.246689 
L 604.992015 126.11248 
L 605.246568 125.870904 
L 605.550665 125.566696 
L 605.634869 125.495118 
L 606.465024 125.155122 
L 606.643939 125.011965 
L 607.024164 124.806178 
L 607.266325 124.573549 
L 607.361057 124.448287 
L 607.706992 124.197763 
L 607.940224 124.054607 
L 608.125782 123.875661 
L 608.225655 123.804083 
L 608.424949 123.598296 
L 608.508292 123.490928 
L 608.723274 123.347772 
L 608.755042 123.213563 
L 608.864863 123.141985 
L 608.991981 123.043565 
L 609.13582 122.900408 
L 609.220846 122.819883 
L 609.525872 122.667779 
L 610.42231 121.719368 
L 611.09918 121.513581 
L 611.359382 121.227268 
L 611.46747 121.05727 
L 612.164434 120.422013 
L 612.257444 120.33254 
L 612.94497 120.064122 
L 613.188832 119.822546 
L 613.408702 119.6436 
L 613.501725 119.536233 
L 613.709609 119.330446 
L 613.800565 119.285709 
L 614.392795 118.95466 
L 614.499667 118.775715 
L 614.685915 118.480454 
L 614.782915 118.319404 
L 614.85725 118.149405 
L 614.948078 118.033091 
L 615.199095 117.827303 
L 615.30583 117.719936 
L 615.531209 117.567832 
L 615.951829 117.362045 
L 616.045044 117.272572 
L 616.190345 117.129416 
L 616.283449 117.057838 
L 616.518816 116.860998 
L 616.606556 116.798367 
L 616.642304 116.682052 
L 616.732726 116.637316 
L 616.799077 116.512054 
L 616.896104 116.368898 
L 617.597593 115.975217 
L 617.707092 115.849956 
L 617.872712 115.662063 
L 617.954229 115.554696 
L 618.141427 115.402592 
L 618.33621 115.241541 
L 619.139485 114.78523 
L 619.242519 114.624179 
L 619.419143 114.445233 
L 619.527168 114.230499 
L 619.638257 114.09629 
L 619.72557 113.881555 
L 619.921074 113.747346 
L 620.030465 113.711557 
L 621.108668 113.264193 
L 621.47521 112.718409 
L 621.613971 112.566306 
L 621.724382 112.449991 
L 621.891171 112.235257 
L 621.986418 112.056311 
L 622.283124 111.832629 
L 622.394121 111.761051 
L 622.523971 111.671578 
L 622.636364 111.6 
L 622.636364 111.6 
" style="fill:none;stroke:#92c6ff;stroke-linecap:round;stroke-width:1.5;"/>
   </g>
   <g id="line2d_26">
    <defs>
     <path d="M 0 2.5 
C 0.663008 2.5 1.29895 2.236584 1.767767 1.767767 
C 2.236584 1.29895 2.5 0.663008 2.5 0 
C 2.5 -0.663008 2.236584 -1.29895 1.767767 -1.767767 
C 1.29895 -2.236584 0.663008 -2.5 0 -2.5 
C -0.663008 -2.5 -1.29895 -2.236584 -1.767767 -1.767767 
C -2.236584 -1.29895 -2.5 -0.663008 -2.5 0 
C -2.5 0.663008 -2.236584 1.29895 -1.767767 1.767767 
C -1.29895 2.236584 -0.663008 2.5 0 2.5 
z
" id="m73422942c7" style="stroke:#696969;"/>
    </defs>
    <g clip-path="url(#p66e180b3fa)">
     <use style="fill:#696969;stroke:#696969;" x="115.363636" xlink:href="#m73422942c7" y="615.6"/>
    </g>
   </g>
   <g id="line2d_27">
    <g clip-path="url(#p66e180b3fa)">
     <use style="fill:#696969;stroke:#696969;" x="196.48106" xlink:href="#m73422942c7" y="565.191053"/>
    </g>
   </g>
   <g id="line2d_28">
    <g clip-path="url(#p66e180b3fa)">
     <use style="fill:#696969;stroke:#696969;" x="240.840891" xlink:href="#m73422942c7" y="514.791053"/>
    </g>
   </g>
   <g id="line2d_29">
    <g clip-path="url(#p66e180b3fa)">
     <use style="fill:#696969;stroke:#696969;" x="290.732218" xlink:href="#m73422942c7" y="464.391053"/>
    </g>
   </g>
   <g id="line2d_30">
    <g clip-path="url(#p66e180b3fa)">
     <use style="fill:#696969;stroke:#696969;" x="331.233213" xlink:href="#m73422942c7" y="413.991053"/>
    </g>
   </g>
   <g id="line2d_31">
    <g clip-path="url(#p66e180b3fa)">
     <use style="fill:#696969;stroke:#696969;" x="373.906264" xlink:href="#m73422942c7" y="363.591053"/>
    </g>
   </g>
   <g id="line2d_32">
    <g clip-path="url(#p66e180b3fa)">
     <use style="fill:#696969;stroke:#696969;" x="415.76292" xlink:href="#m73422942c7" y="313.191053"/>
    </g>
   </g>
   <g id="line2d_33">
    <g clip-path="url(#p66e180b3fa)">
     <use style="fill:#696969;stroke:#696969;" x="462.900515" xlink:href="#m73422942c7" y="262.791053"/>
    </g>
   </g>
   <g id="line2d_34">
    <g clip-path="url(#p66e180b3fa)">
     <use style="fill:#696969;stroke:#696969;" x="516.072836" xlink:href="#m73422942c7" y="212.391053"/>
    </g>
   </g>
   <g id="line2d_35">
    <g clip-path="url(#p66e180b3fa)">
     <use style="fill:#696969;stroke:#696969;" x="563.910644" xlink:href="#m73422942c7" y="161.991053"/>
    </g>
   </g>
   <g id="line2d_36">
    <g clip-path="url(#p66e180b3fa)">
     <use style="fill:#696969;stroke:#696969;" x="622.636364" xlink:href="#m73422942c7" y="111.6"/>
    </g>
   </g>
   <g id="patch_3">
    <path d="M 90 640.8 
L 90 86.4 
" style="fill:none;stroke:#cccccc;stroke-linecap:square;stroke-linejoin:miter;"/>
   </g>
   <g id="patch_4">
    <path d="M 648 640.8 
L 648 86.4 
" style="fill:none;stroke:#cccccc;stroke-linecap:square;stroke-linejoin:miter;"/>
   </g>
   <g id="patch_5">
    <path d="M 90 640.8 
L 648 640.8 
" style="fill:none;stroke:#cccccc;stroke-linecap:square;stroke-linejoin:miter;"/>
   </g>
   <g id="patch_6">
    <path d="M 90 86.4 
L 648 86.4 
" style="fill:none;stroke:#cccccc;stroke-linecap:square;stroke-linejoin:miter;"/>
   </g>
   <g id="text_13">
    <!-- 1 (2014-06-07) -->
    <defs>
     <path id="DejaVuSans-32"/>
     <path d="M 31 75.875 
Q 24.46875 64.65625 21.28125 53.65625 
Q 18.109375 42.671875 18.109375 31.390625 
Q 18.109375 20.125 21.3125 9.0625 
Q 24.515625 -2 31 -13.1875 
L 23.1875 -13.1875 
Q 15.875 -1.703125 12.234375 9.375 
Q 8.59375 20.453125 8.59375 31.390625 
Q 8.59375 42.28125 12.203125 53.3125 
Q 15.828125 64.359375 23.1875 75.875 
z
" id="DejaVuSans-40"/>
     <path d="M 4.890625 31.390625 
L 31.203125 31.390625 
L 31.203125 23.390625 
L 4.890625 23.390625 
z
" id="DejaVuSans-45"/>
     <path d="M 8.015625 75.875 
L 15.828125 75.875 
Q 23.140625 64.359375 26.78125 53.3125 
Q 30.421875 42.28125 30.421875 31.390625 
Q 30.421875 20.453125 26.78125 9.375 
Q 23.140625 -1.703125 15.828125 -13.1875 
L 8.015625 -13.1875 
Q 14.5 -2 17.703125 9.0625 
Q 20.90625 20.125 20.90625 31.390625 
Q 20.90625 42.671875 17.703125 53.65625 
Q 14.5 64.65625 8.015625 75.875 
z
" id="DejaVuSans-41"/>
    </defs>
    <g style="fill:#262626;" transform="translate(120.363636 623.198437)scale(0.1 -0.1)">
     <use xlink:href="#DejaVuSans-49"/>
     <use x="63.623047" xlink:href="#DejaVuSans-32"/>
     <use x="95.410156" xlink:href="#DejaVuSans-40"/>
     <use x="134.423828" xlink:href="#DejaVuSans-50"/>
     <use x="198.046875" xlink:href="#DejaVuSans-48"/>
     <use x="261.669922" xlink:href="#DejaVuSans-49"/>
     <use x="325.292969" xlink:href="#DejaVuSans-52"/>
     <use x="388.916016" xlink:href="#DejaVuSans-45"/>
     <use x="425" xlink:href="#DejaVuSans-48"/>
     <use x="488.623047" xlink:href="#DejaVuSans-54"/>
     <use x="552.246094" xlink:href="#DejaVuSans-45"/>
     <use x="588.330078" xlink:href="#DejaVuSans-48"/>
     <use x="651.953125" xlink:href="#DejaVuSans-55"/>
     <use x="715.576172" xlink:href="#DejaVuSans-41"/>
    </g>
   </g>
   <g id="text_14">
    <!-- 5635 (2015-05-29) -->
    <g style="fill:#262626;" transform="translate(201.48106 572.78949)scale(0.1 -0.1)">
     <use xlink:href="#DejaVuSans-53"/>
     <use x="63.623047" xlink:href="#DejaVuSans-54"/>
     <use x="127.246094" xlink:href="#DejaVuSans-51"/>
     <use x="190.869141" xlink:href="#DejaVuSans-53"/>
     <use x="254.492188" xlink:href="#DejaVuSans-32"/>
     <use x="286.279297" xlink:href="#DejaVuSans-40"/>
     <use x="325.292969" xlink:href="#DejaVuSans-50"/>
     <use x="388.916016" xlink:href="#DejaVuSans-48"/>
     <use x="452.539062" xlink:href="#DejaVuSans-49"/>
     <use x="516.162109" xlink:href="#DejaVuSans-53"/>
     <use x="579.785156" xlink:href="#DejaVuSans-45"/>
     <use x="615.869141" xlink:href="#DejaVuSans-48"/>
     <use x="679.492188" xlink:href="#DejaVuSans-53"/>
     <use x="743.115234" xlink:href="#DejaVuSans-45"/>
     <use x="779.199219" xlink:href="#DejaVuSans-50"/>
     <use x="842.822266" xlink:href="#DejaVuSans-57"/>
     <use x="906.445312" xlink:href="#DejaVuSans-41"/>
    </g>
   </g>
   <g id="text_15">
    <!-- 11268 (2015-12-10) -->
    <g style="fill:#262626;" transform="translate(245.840891 522.38949)scale(0.1 -0.1)">
     <use xlink:href="#DejaVuSans-49"/>
     <use x="63.623047" xlink:href="#DejaVuSans-49"/>
     <use x="127.246094" xlink:href="#DejaVuSans-50"/>
     <use x="190.869141" xlink:href="#DejaVuSans-54"/>
     <use x="254.492188" xlink:href="#DejaVuSans-56"/>
     <use x="318.115234" xlink:href="#DejaVuSans-32"/>
     <use x="349.902344" xlink:href="#DejaVuSans-40"/>
     <use x="388.916016" xlink:href="#DejaVuSans-50"/>
     <use x="452.539062" xlink:href="#DejaVuSans-48"/>
     <use x="516.162109" xlink:href="#DejaVuSans-49"/>
     <use x="579.785156" xlink:href="#DejaVuSans-53"/>
     <use x="643.408203" xlink:href="#DejaVuSans-45"/>
     <use x="679.492188" xlink:href="#DejaVuSans-49"/>
     <use x="743.115234" xlink:href="#DejaVuSans-50"/>
     <use x="806.738281" xlink:href="#DejaVuSans-45"/>
     <use x="842.822266" xlink:href="#DejaVuSans-49"/>
     <use x="906.445312" xlink:href="#DejaVuSans-48"/>
     <use x="970.068359" xlink:href="#DejaVuSans-41"/>
    </g>
   </g>
   <g id="text_16">
    <!-- 16901 (2016-07-17) -->
    <g style="fill:#262626;" transform="translate(295.732218 471.98949)scale(0.1 -0.1)">
     <use xlink:href="#DejaVuSans-49"/>
     <use x="63.623047" xlink:href="#DejaVuSans-54"/>
     <use x="127.246094" xlink:href="#DejaVuSans-57"/>
     <use x="190.869141" xlink:href="#DejaVuSans-48"/>
     <use x="254.492188" xlink:href="#DejaVuSans-49"/>
     <use x="318.115234" xlink:href="#DejaVuSans-32"/>
     <use x="349.902344" xlink:href="#DejaVuSans-40"/>
     <use x="388.916016" xlink:href="#DejaVuSans-50"/>
     <use x="452.539062" xlink:href="#DejaVuSans-48"/>
     <use x="516.162109" xlink:href="#DejaVuSans-49"/>
     <use x="579.785156" xlink:href="#DejaVuSans-54"/>
     <use x="643.408203" xlink:href="#DejaVuSans-45"/>
     <use x="679.492188" xlink:href="#DejaVuSans-48"/>
     <use x="743.115234" xlink:href="#DejaVuSans-55"/>
     <use x="806.738281" xlink:href="#DejaVuSans-45"/>
     <use x="842.822266" xlink:href="#DejaVuSans-49"/>
     <use x="906.445312" xlink:href="#DejaVuSans-55"/>
     <use x="970.068359" xlink:href="#DejaVuSans-41"/>
    </g>
   </g>
   <g id="text_17">
    <!-- 22534 (2017-01-11) -->
    <g style="fill:#262626;" transform="translate(336.233213 421.58949)scale(0.1 -0.1)">
     <use xlink:href="#DejaVuSans-50"/>
     <use x="63.623047" xlink:href="#DejaVuSans-50"/>
     <use x="127.246094" xlink:href="#DejaVuSans-53"/>
     <use x="190.869141" xlink:href="#DejaVuSans-51"/>
     <use x="254.492188" xlink:href="#DejaVuSans-52"/>
     <use x="318.115234" xlink:href="#DejaVuSans-32"/>
     <use x="349.902344" xlink:href="#DejaVuSans-40"/>
     <use x="388.916016" xlink:href="#DejaVuSans-50"/>
     <use x="452.539062" xlink:href="#DejaVuSans-48"/>
     <use x="516.162109" xlink:href="#DejaVuSans-49"/>
     <use x="579.785156" xlink:href="#DejaVuSans-55"/>
     <use x="643.408203" xlink:href="#DejaVuSans-45"/>
     <use x="679.492188" xlink:href="#DejaVuSans-48"/>
     <use x="743.115234" xlink:href="#DejaVuSans-49"/>
     <use x="806.738281" xlink:href="#DejaVuSans-45"/>
     <use x="842.822266" xlink:href="#DejaVuSans-49"/>
     <use x="906.445312" xlink:href="#DejaVuSans-49"/>
     <use x="970.068359" xlink:href="#DejaVuSans-41"/>
    </g>
   </g>
   <g id="text_18">
    <!-- 28167 (2017-07-17) -->
    <g style="fill:#262626;" transform="translate(378.906264 371.18949)scale(0.1 -0.1)">
     <use xlink:href="#DejaVuSans-50"/>
     <use x="63.623047" xlink:href="#DejaVuSans-56"/>
     <use x="127.246094" xlink:href="#DejaVuSans-49"/>
     <use x="190.869141" xlink:href="#DejaVuSans-54"/>
     <use x="254.492188" xlink:href="#DejaVuSans-55"/>
     <use x="318.115234" xlink:href="#DejaVuSans-32"/>
     <use x="349.902344" xlink:href="#DejaVuSans-40"/>
     <use x="388.916016" xlink:href="#DejaVuSans-50"/>
     <use x="452.539062" xlink:href="#DejaVuSans-48"/>
     <use x="516.162109" xlink:href="#DejaVuSans-49"/>
     <use x="579.785156" xlink:href="#DejaVuSans-55"/>
     <use x="643.408203" xlink:href="#DejaVuSans-45"/>
     <use x="679.492188" xlink:href="#DejaVuSans-48"/>
     <use x="743.115234" xlink:href="#DejaVuSans-55"/>
     <use x="806.738281" xlink:href="#DejaVuSans-45"/>
     <use x="842.822266" xlink:href="#DejaVuSans-49"/>
     <use x="906.445312" xlink:href="#DejaVuSans-55"/>
     <use x="970.068359" xlink:href="#DejaVuSans-41"/>
    </g>
   </g>
   <g id="text_19">
    <!-- 33800 (2018-01-17) -->
    <g style="fill:#262626;" transform="translate(420.76292 320.78949)scale(0.1 -0.1)">
     <use xlink:href="#DejaVuSans-51"/>
     <use x="63.623047" xlink:href="#DejaVuSans-51"/>
     <use x="127.246094" xlink:href="#DejaVuSans-56"/>
     <use x="190.869141" xlink:href="#DejaVuSans-48"/>
     <use x="254.492188" xlink:href="#DejaVuSans-48"/>
     <use x="318.115234" xlink:href="#DejaVuSans-32"/>
     <use x="349.902344" xlink:href="#DejaVuSans-40"/>
     <use x="388.916016" xlink:href="#DejaVuSans-50"/>
     <use x="452.539062" xlink:href="#DejaVuSans-48"/>
     <use x="516.162109" xlink:href="#DejaVuSans-49"/>
     <use x="579.785156" xlink:href="#DejaVuSans-56"/>
     <use x="643.408203" xlink:href="#DejaVuSans-45"/>
     <use x="679.492188" xlink:href="#DejaVuSans-48"/>
     <use x="743.115234" xlink:href="#DejaVuSans-49"/>
     <use x="806.738281" xlink:href="#DejaVuSans-45"/>
     <use x="842.822266" xlink:href="#DejaVuSans-49"/>
     <use x="906.445312" xlink:href="#DejaVuSans-55"/>
     <use x="970.068359" xlink:href="#DejaVuSans-41"/>
    </g>
   </g>
   <g id="text_20">
    <!-- 39433 (2018-08-13) -->
    <g style="fill:#262626;" transform="translate(467.900515 270.38949)scale(0.1 -0.1)">
     <use xlink:href="#DejaVuSans-51"/>
     <use x="63.623047" xlink:href="#DejaVuSans-57"/>
     <use x="127.246094" xlink:href="#DejaVuSans-52"/>
     <use x="190.869141" xlink:href="#DejaVuSans-51"/>
     <use x="254.492188" xlink:href="#DejaVuSans-51"/>
     <use x="318.115234" xlink:href="#DejaVuSans-32"/>
     <use x="349.902344" xlink:href="#DejaVuSans-40"/>
     <use x="388.916016" xlink:href="#DejaVuSans-50"/>
     <use x="452.539062" xlink:href="#DejaVuSans-48"/>
     <use x="516.162109" xlink:href="#DejaVuSans-49"/>
     <use x="579.785156" xlink:href="#DejaVuSans-56"/>
     <use x="643.408203" xlink:href="#DejaVuSans-45"/>
     <use x="679.492188" xlink:href="#DejaVuSans-48"/>
     <use x="743.115234" xlink:href="#DejaVuSans-56"/>
     <use x="806.738281" xlink:href="#DejaVuSans-45"/>
     <use x="842.822266" xlink:href="#DejaVuSans-49"/>
     <use x="906.445312" xlink:href="#DejaVuSans-51"/>
     <use x="970.068359" xlink:href="#DejaVuSans-41"/>
    </g>
   </g>
   <g id="text_21">
    <!-- 45066 (2019-04-03) -->
    <g style="fill:#262626;" transform="translate(521.072836 219.98949)scale(0.1 -0.1)">
     <use xlink:href="#DejaVuSans-52"/>
     <use x="63.623047" xlink:href="#DejaVuSans-53"/>
     <use x="127.246094" xlink:href="#DejaVuSans-48"/>
     <use x="190.869141" xlink:href="#DejaVuSans-54"/>
     <use x="254.492188" xlink:href="#DejaVuSans-54"/>
     <use x="318.115234" xlink:href="#DejaVuSans-32"/>
     <use x="349.902344" xlink:href="#DejaVuSans-40"/>
     <use x="388.916016" xlink:href="#DejaVuSans-50"/>
     <use x="452.539062" xlink:href="#DejaVuSans-48"/>
     <use x="516.162109" xlink:href="#DejaVuSans-49"/>
     <use x="579.785156" xlink:href="#DejaVuSans-57"/>
     <use x="643.408203" xlink:href="#DejaVuSans-45"/>
     <use x="679.492188" xlink:href="#DejaVuSans-48"/>
     <use x="743.115234" xlink:href="#DejaVuSans-52"/>
     <use x="806.738281" xlink:href="#DejaVuSans-45"/>
     <use x="842.822266" xlink:href="#DejaVuSans-48"/>
     <use x="906.445312" xlink:href="#DejaVuSans-51"/>
     <use x="970.068359" xlink:href="#DejaVuSans-41"/>
    </g>
   </g>
   <g id="text_22">
    <!-- 50699 (2019-10-31) -->
    <g style="fill:#262626;" transform="translate(568.910644 169.58949)scale(0.1 -0.1)">
     <use xlink:href="#DejaVuSans-53"/>
     <use x="63.623047" xlink:href="#DejaVuSans-48"/>
     <use x="127.246094" xlink:href="#DejaVuSans-54"/>
     <use x="190.869141" xlink:href="#DejaVuSans-57"/>
     <use x="254.492188" xlink:href="#DejaVuSans-57"/>
     <use x="318.115234" xlink:href="#DejaVuSans-32"/>
     <use x="349.902344" xlink:href="#DejaVuSans-40"/>
     <use x="388.916016" xlink:href="#DejaVuSans-50"/>
     <use x="452.539062" xlink:href="#DejaVuSans-48"/>
     <use x="516.162109" xlink:href="#DejaVuSans-49"/>
     <use x="579.785156" xlink:href="#DejaVuSans-57"/>
     <use x="643.408203" xlink:href="#DejaVuSans-45"/>
     <use x="679.492188" xlink:href="#DejaVuSans-49"/>
     <use x="743.115234" xlink:href="#DejaVuSans-48"/>
     <use x="806.738281" xlink:href="#DejaVuSans-45"/>
     <use x="842.822266" xlink:href="#DejaVuSans-51"/>
     <use x="906.445312" xlink:href="#DejaVuSans-49"/>
     <use x="970.068359" xlink:href="#DejaVuSans-41"/>
    </g>
   </g>
   <g id="text_23">
    <!-- 56331 (2020-07-15) -->
    <g style="fill:#262626;" transform="translate(627.636364 119.198437)scale(0.1 -0.1)">
     <use xlink:href="#DejaVuSans-53"/>
     <use x="63.623047" xlink:href="#DejaVuSans-54"/>
     <use x="127.246094" xlink:href="#DejaVuSans-51"/>
     <use x="190.869141" xlink:href="#DejaVuSans-51"/>
     <use x="254.492188" xlink:href="#DejaVuSans-49"/>
     <use x="318.115234" xlink:href="#DejaVuSans-32"/>
     <use x="349.902344" xlink:href="#DejaVuSans-40"/>
     <use x="388.916016" xlink:href="#DejaVuSans-50"/>
     <use x="452.539062" xlink:href="#DejaVuSans-48"/>
     <use x="516.162109" xlink:href="#DejaVuSans-50"/>
     <use x="579.785156" xlink:href="#DejaVuSans-48"/>
     <use x="643.408203" xlink:href="#DejaVuSans-45"/>
     <use x="679.492188" xlink:href="#DejaVuSans-48"/>
     <use x="743.115234" xlink:href="#DejaVuSans-55"/>
     <use x="806.738281" xlink:href="#DejaVuSans-45"/>
     <use x="842.822266" xlink:href="#DejaVuSans-49"/>
     <use x="906.445312" xlink:href="#DejaVuSans-53"/>
     <use x="970.068359" xlink:href="#DejaVuSans-41"/>
    </g>
   </g>
   <g id="text_24">
    <!-- Closed PRs over time -->
    <defs>
     <path d="M 64.40625 67.28125 
L 64.40625 56.890625 
Q 59.421875 61.53125 53.78125 63.8125 
Q 48.140625 66.109375 41.796875 66.109375 
Q 29.296875 66.109375 22.65625 58.46875 
Q 16.015625 50.828125 16.015625 36.375 
Q 16.015625 21.96875 22.65625 14.328125 
Q 29.296875 6.6875 41.796875 6.6875 
Q 48.140625 6.6875 53.78125 8.984375 
Q 59.421875 11.28125 64.40625 15.921875 
L 64.40625 5.609375 
Q 59.234375 2.09375 53.4375 0.328125 
Q 47.65625 -1.421875 41.21875 -1.421875 
Q 24.65625 -1.421875 15.125 8.703125 
Q 5.609375 18.84375 5.609375 36.375 
Q 5.609375 53.953125 15.125 64.078125 
Q 24.65625 74.21875 41.21875 74.21875 
Q 47.75 74.21875 53.53125 72.484375 
Q 59.328125 70.75 64.40625 67.28125 
z
" id="DejaVuSans-67"/>
     <path d="M 9.421875 75.984375 
L 18.40625 75.984375 
L 18.40625 0 
L 9.421875 0 
z
" id="DejaVuSans-108"/>
     <path d="M 30.609375 48.390625 
Q 23.390625 48.390625 19.1875 42.75 
Q 14.984375 37.109375 14.984375 27.296875 
Q 14.984375 17.484375 19.15625 11.84375 
Q 23.34375 6.203125 30.609375 6.203125 
Q 37.796875 6.203125 41.984375 11.859375 
Q 46.1875 17.53125 46.1875 27.296875 
Q 46.1875 37.015625 41.984375 42.703125 
Q 37.796875 48.390625 30.609375 48.390625 
z
M 30.609375 56 
Q 42.328125 56 49.015625 48.375 
Q 55.71875 40.765625 55.71875 27.296875 
Q 55.71875 13.875 49.015625 6.21875 
Q 42.328125 -1.421875 30.609375 -1.421875 
Q 18.84375 -1.421875 12.171875 6.21875 
Q 5.515625 13.875 5.515625 27.296875 
Q 5.515625 40.765625 12.171875 48.375 
Q 18.84375 56 30.609375 56 
z
" id="DejaVuSans-111"/>
     <path d="M 44.28125 53.078125 
L 44.28125 44.578125 
Q 40.484375 46.53125 36.375 47.5 
Q 32.28125 48.484375 27.875 48.484375 
Q 21.1875 48.484375 17.84375 46.4375 
Q 14.5 44.390625 14.5 40.28125 
Q 14.5 37.15625 16.890625 35.375 
Q 19.28125 33.59375 26.515625 31.984375 
L 29.59375 31.296875 
Q 39.15625 29.25 43.1875 25.515625 
Q 47.21875 21.78125 47.21875 15.09375 
Q 47.21875 7.46875 41.1875 3.015625 
Q 35.15625 -1.421875 24.609375 -1.421875 
Q 20.21875 -1.421875 15.453125 -0.5625 
Q 10.6875 0.296875 5.421875 2 
L 5.421875 11.28125 
Q 10.40625 8.6875 15.234375 7.390625 
Q 20.0625 6.109375 24.8125 6.109375 
Q 31.15625 6.109375 34.5625 8.28125 
Q 37.984375 10.453125 37.984375 14.40625 
Q 37.984375 18.0625 35.515625 20.015625 
Q 33.0625 21.96875 24.703125 23.78125 
L 21.578125 24.515625 
Q 13.234375 26.265625 9.515625 29.90625 
Q 5.8125 33.546875 5.8125 39.890625 
Q 5.8125 47.609375 11.28125 51.796875 
Q 16.75 56 26.8125 56 
Q 31.78125 56 36.171875 55.265625 
Q 40.578125 54.546875 44.28125 53.078125 
z
" id="DejaVuSans-115"/>
     <path d="M 56.203125 29.59375 
L 56.203125 25.203125 
L 14.890625 25.203125 
Q 15.484375 15.921875 20.484375 11.0625 
Q 25.484375 6.203125 34.421875 6.203125 
Q 39.59375 6.203125 44.453125 7.46875 
Q 49.3125 8.734375 54.109375 11.28125 
L 54.109375 2.78125 
Q 49.265625 0.734375 44.1875 -0.34375 
Q 39.109375 -1.421875 33.890625 -1.421875 
Q 20.796875 -1.421875 13.15625 6.1875 
Q 5.515625 13.8125 5.515625 26.8125 
Q 5.515625 40.234375 12.765625 48.109375 
Q 20.015625 56 32.328125 56 
Q 43.359375 56 49.78125 48.890625 
Q 56.203125 41.796875 56.203125 29.59375 
z
M 47.21875 32.234375 
Q 47.125 39.59375 43.09375 43.984375 
Q 39.0625 48.390625 32.421875 48.390625 
Q 24.90625 48.390625 20.390625 44.140625 
Q 15.875 39.890625 15.1875 32.171875 
z
" id="DejaVuSans-101"/>
     <path d="M 45.40625 46.390625 
L 45.40625 75.984375 
L 54.390625 75.984375 
L 54.390625 0 
L 45.40625 0 
L 45.40625 8.203125 
Q 42.578125 3.328125 38.25 0.953125 
Q 33.9375 -1.421875 27.875 -1.421875 
Q 17.96875 -1.421875 11.734375 6.484375 
Q 5.515625 14.40625 5.515625 27.296875 
Q 5.515625 40.1875 11.734375 48.09375 
Q 17.96875 56 27.875 56 
Q 33.9375 56 38.25 53.625 
Q 42.578125 51.265625 45.40625 46.390625 
z
M 14.796875 27.296875 
Q 14.796875 17.390625 18.875 11.75 
Q 22.953125 6.109375 30.078125 6.109375 
Q 37.203125 6.109375 41.296875 11.75 
Q 45.40625 17.390625 45.40625 27.296875 
Q 45.40625 37.203125 41.296875 42.84375 
Q 37.203125 48.484375 30.078125 48.484375 
Q 22.953125 48.484375 18.875 42.84375 
Q 14.796875 37.203125 14.796875 27.296875 
z
" id="DejaVuSans-100"/>
     <path d="M 19.671875 64.796875 
L 19.671875 37.40625 
L 32.078125 37.40625 
Q 38.96875 37.40625 42.71875 40.96875 
Q 46.484375 44.53125 46.484375 51.125 
Q 46.484375 57.671875 42.71875 61.234375 
Q 38.96875 64.796875 32.078125 64.796875 
z
M 9.8125 72.90625 
L 32.078125 72.90625 
Q 44.34375 72.90625 50.609375 67.359375 
Q 56.890625 61.8125 56.890625 51.125 
Q 56.890625 40.328125 50.609375 34.8125 
Q 44.34375 29.296875 32.078125 29.296875 
L 19.671875 29.296875 
L 19.671875 0 
L 9.8125 0 
z
" id="DejaVuSans-80"/>
     <path d="M 44.390625 34.1875 
Q 47.5625 33.109375 50.5625 29.59375 
Q 53.5625 26.078125 56.59375 19.921875 
L 66.609375 0 
L 56 0 
L 46.6875 18.703125 
Q 43.0625 26.03125 39.671875 28.421875 
Q 36.28125 30.8125 30.421875 30.8125 
L 19.671875 30.8125 
L 19.671875 0 
L 9.8125 0 
L 9.8125 72.90625 
L 32.078125 72.90625 
Q 44.578125 72.90625 50.734375 67.671875 
Q 56.890625 62.453125 56.890625 51.90625 
Q 56.890625 45.015625 53.6875 40.46875 
Q 50.484375 35.9375 44.390625 34.1875 
z
M 19.671875 64.796875 
L 19.671875 38.921875 
L 32.078125 38.921875 
Q 39.203125 38.921875 42.84375 42.21875 
Q 46.484375 45.515625 46.484375 51.90625 
Q 46.484375 58.296875 42.84375 61.546875 
Q 39.203125 64.796875 32.078125 64.796875 
z
" id="DejaVuSans-82"/>
     <path d="M 2.984375 54.6875 
L 12.5 54.6875 
L 29.59375 8.796875 
L 46.6875 54.6875 
L 56.203125 54.6875 
L 35.6875 0 
L 23.484375 0 
z
" id="DejaVuSans-118"/>
     <path d="M 41.109375 46.296875 
Q 39.59375 47.171875 37.8125 47.578125 
Q 36.03125 48 33.890625 48 
Q 26.265625 48 22.1875 43.046875 
Q 18.109375 38.09375 18.109375 28.8125 
L 18.109375 0 
L 9.078125 0 
L 9.078125 54.6875 
L 18.109375 54.6875 
L 18.109375 46.1875 
Q 20.953125 51.171875 25.484375 53.578125 
Q 30.03125 56 36.53125 56 
Q 37.453125 56 38.578125 55.875 
Q 39.703125 55.765625 41.0625 55.515625 
z
" id="DejaVuSans-114"/>
     <path d="M 18.3125 70.21875 
L 18.3125 54.6875 
L 36.8125 54.6875 
L 36.8125 47.703125 
L 18.3125 47.703125 
L 18.3125 18.015625 
Q 18.3125 11.328125 20.140625 9.421875 
Q 21.96875 7.515625 27.59375 7.515625 
L 36.8125 7.515625 
L 36.8125 0 
L 27.59375 0 
Q 17.1875 0 13.234375 3.875 
Q 9.28125 7.765625 9.28125 18.015625 
L 9.28125 47.703125 
L 2.6875 47.703125 
L 2.6875 54.6875 
L 9.28125 54.6875 
L 9.28125 70.21875 
z
" id="DejaVuSans-116"/>
     <path d="M 9.421875 54.6875 
L 18.40625 54.6875 
L 18.40625 0 
L 9.421875 0 
z
M 9.421875 75.984375 
L 18.40625 75.984375 
L 18.40625 64.59375 
L 9.421875 64.59375 
z
" id="DejaVuSans-105"/>
     <path d="M 52 44.1875 
Q 55.375 50.25 60.0625 53.125 
Q 64.75 56 71.09375 56 
Q 79.640625 56 84.28125 50.015625 
Q 88.921875 44.046875 88.921875 33.015625 
L 88.921875 0 
L 79.890625 0 
L 79.890625 32.71875 
Q 79.890625 40.578125 77.09375 44.375 
Q 74.3125 48.1875 68.609375 48.1875 
Q 61.625 48.1875 57.5625 43.546875 
Q 53.515625 38.921875 53.515625 30.90625 
L 53.515625 0 
L 44.484375 0 
L 44.484375 32.71875 
Q 44.484375 40.625 41.703125 44.40625 
Q 38.921875 48.1875 33.109375 48.1875 
Q 26.21875 48.1875 22.15625 43.53125 
Q 18.109375 38.875 18.109375 30.90625 
L 18.109375 0 
L 9.078125 0 
L 9.078125 54.6875 
L 18.109375 54.6875 
L 18.109375 46.1875 
Q 21.1875 51.21875 25.484375 53.609375 
Q 29.78125 56 35.6875 56 
Q 41.65625 56 45.828125 52.96875 
Q 50 49.953125 52 44.1875 
z
" id="DejaVuSans-109"/>
    </defs>
    <g style="fill:#262626;" transform="translate(305.27625 80.4)scale(0.12 -0.12)">
     <use xlink:href="#DejaVuSans-67"/>
     <use x="69.824219" xlink:href="#DejaVuSans-108"/>
     <use x="97.607422" xlink:href="#DejaVuSans-111"/>
     <use x="158.789062" xlink:href="#DejaVuSans-115"/>
     <use x="210.888672" xlink:href="#DejaVuSans-101"/>
     <use x="272.412109" xlink:href="#DejaVuSans-100"/>
     <use x="335.888672" xlink:href="#DejaVuSans-32"/>
     <use x="367.675781" xlink:href="#DejaVuSans-80"/>
     <use x="427.978516" xlink:href="#DejaVuSans-82"/>
     <use x="497.460938" xlink:href="#DejaVuSans-115"/>
     <use x="549.560547" xlink:href="#DejaVuSans-32"/>
     <use x="581.347656" xlink:href="#DejaVuSans-111"/>
     <use x="642.529297" xlink:href="#DejaVuSans-118"/>
     <use x="701.708984" xlink:href="#DejaVuSans-101"/>
     <use x="763.232422" xlink:href="#DejaVuSans-114"/>
     <use x="804.345703" xlink:href="#DejaVuSans-32"/>
     <use x="836.132812" xlink:href="#DejaVuSans-116"/>
     <use x="875.341797" xlink:href="#DejaVuSans-105"/>
     <use x="903.125" xlink:href="#DejaVuSans-109"/>
     <use x="1000.537109" xlink:href="#DejaVuSans-101"/>
    </g>
   </g>
  </g>
 </g>
 <defs>
  <clipPath id="p66e180b3fa">
   <rect height="554.4" width="558" x="90" y="86.4"/>
  </clipPath>
 </defs>
</svg>
