<?xml version="1.0" encoding="utf-8" standalone="no"?>
<!DOCTYPE svg PUBLIC "-//W3C//DTD SVG 1.1//EN"
  "http://www.w3.org/Graphics/SVG/1.1/DTD/svg11.dtd">
<!-- Created with matplotlib (https://matplotlib.org/) -->
<svg height="720pt" version="1.1" viewBox="0 0 720 720" width="720pt" xmlns="http://www.w3.org/2000/svg" xmlns:xlink="http://www.w3.org/1999/xlink">
 <defs>
  <style type="text/css">
*{stroke-linecap:butt;stroke-linejoin:round;}
  </style>
 </defs>
 <g id="figure_1">
  <g id="patch_1">
   <path d="M 0 720 
L 720 720 
L 720 0 
L 0 0 
z
" style="fill:#ffffff;"/>
  </g>
  <g id="axes_1">
   <g id="patch_2">
    <path d="M 90 640.8 
L 648 640.8 
L 648 86.4 
L 90 86.4 
z
" style="fill:#ffffff;"/>
   </g>
   <g id="matplotlib.axis_1">
    <g id="xtick_1">
     <g id="line2d_1">
      <path clip-path="url(#p0fbfa547b9)" d="M 163.779781 640.8 
L 163.779781 86.4 
" style="fill:none;stroke:#cccccc;stroke-linecap:round;stroke-width:0.8;"/>
     </g>
     <g id="line2d_2"/>
     <g id="text_1">
      <!-- 2015 -->
      <defs>
       <path d="M 19.1875 8.296875 
L 53.609375 8.296875 
L 53.609375 0 
L 7.328125 0 
L 7.328125 8.296875 
Q 12.9375 14.109375 22.625 23.890625 
Q 32.328125 33.6875 34.8125 36.53125 
Q 39.546875 41.84375 41.421875 45.53125 
Q 43.3125 49.21875 43.3125 52.78125 
Q 43.3125 58.59375 39.234375 62.25 
Q 35.15625 65.921875 28.609375 65.921875 
Q 23.96875 65.921875 18.8125 64.3125 
Q 13.671875 62.703125 7.8125 59.421875 
L 7.8125 69.390625 
Q 13.765625 71.78125 18.9375 73 
Q 24.125 74.21875 28.421875 74.21875 
Q 39.75 74.21875 46.484375 68.546875 
Q 53.21875 62.890625 53.21875 53.421875 
Q 53.21875 48.921875 51.53125 44.890625 
Q 49.859375 40.875 45.40625 35.40625 
Q 44.1875 33.984375 37.640625 27.21875 
Q 31.109375 20.453125 19.1875 8.296875 
z
" id="DejaVuSans-50"/>
       <path d="M 31.78125 66.40625 
Q 24.171875 66.40625 20.328125 58.90625 
Q 16.5 51.421875 16.5 36.375 
Q 16.5 21.390625 20.328125 13.890625 
Q 24.171875 6.390625 31.78125 6.390625 
Q 39.453125 6.390625 43.28125 13.890625 
Q 47.125 21.390625 47.125 36.375 
Q 47.125 51.421875 43.28125 58.90625 
Q 39.453125 66.40625 31.78125 66.40625 
z
M 31.78125 74.21875 
Q 44.046875 74.21875 50.515625 64.515625 
Q 56.984375 54.828125 56.984375 36.375 
Q 56.984375 17.96875 50.515625 8.265625 
Q 44.046875 -1.421875 31.78125 -1.421875 
Q 19.53125 -1.421875 13.0625 8.265625 
Q 6.59375 17.96875 6.59375 36.375 
Q 6.59375 54.828125 13.0625 64.515625 
Q 19.53125 74.21875 31.78125 74.21875 
z
" id="DejaVuSans-48"/>
       <path d="M 12.40625 8.296875 
L 28.515625 8.296875 
L 28.515625 63.921875 
L 10.984375 60.40625 
L 10.984375 69.390625 
L 28.421875 72.90625 
L 38.28125 72.90625 
L 38.28125 8.296875 
L 54.390625 8.296875 
L 54.390625 0 
L 12.40625 0 
z
" id="DejaVuSans-49"/>
       <path d="M 10.796875 72.90625 
L 49.515625 72.90625 
L 49.515625 64.59375 
L 19.828125 64.59375 
L 19.828125 46.734375 
Q 21.96875 47.46875 24.109375 47.828125 
Q 26.265625 48.1875 28.421875 48.1875 
Q 40.625 48.1875 47.75 41.5 
Q 54.890625 34.8125 54.890625 23.390625 
Q 54.890625 11.625 47.5625 5.09375 
Q 40.234375 -1.421875 26.90625 -1.421875 
Q 22.3125 -1.421875 17.546875 -0.640625 
Q 12.796875 0.140625 7.71875 1.703125 
L 7.71875 11.625 
Q 12.109375 9.234375 16.796875 8.0625 
Q 21.484375 6.890625 26.703125 6.890625 
Q 35.15625 6.890625 40.078125 11.328125 
Q 45.015625 15.765625 45.015625 23.390625 
Q 45.015625 31 40.078125 35.4375 
Q 35.15625 39.890625 26.703125 39.890625 
Q 22.75 39.890625 18.8125 39.015625 
Q 14.890625 38.140625 10.796875 36.28125 
z
" id="DejaVuSans-53"/>
      </defs>
      <g style="fill:#262626;" transform="translate(151.054781 651.898438)scale(0.1 -0.1)">
       <use xlink:href="#DejaVuSans-50"/>
       <use x="63.623047" xlink:href="#DejaVuSans-48"/>
       <use x="127.246094" xlink:href="#DejaVuSans-49"/>
       <use x="190.869141" xlink:href="#DejaVuSans-53"/>
      </g>
     </g>
    </g>
    <g id="xtick_2">
     <g id="line2d_3">
      <path clip-path="url(#p0fbfa547b9)" d="M 248.788129 640.8 
L 248.788129 86.4 
" style="fill:none;stroke:#cccccc;stroke-linecap:round;stroke-width:0.8;"/>
     </g>
     <g id="line2d_4"/>
     <g id="text_2">
      <!-- 2016 -->
      <defs>
       <path d="M 33.015625 40.375 
Q 26.375 40.375 22.484375 35.828125 
Q 18.609375 31.296875 18.609375 23.390625 
Q 18.609375 15.53125 22.484375 10.953125 
Q 26.375 6.390625 33.015625 6.390625 
Q 39.65625 6.390625 43.53125 10.953125 
Q 47.40625 15.53125 47.40625 23.390625 
Q 47.40625 31.296875 43.53125 35.828125 
Q 39.65625 40.375 33.015625 40.375 
z
M 52.59375 71.296875 
L 52.59375 62.3125 
Q 48.875 64.0625 45.09375 64.984375 
Q 41.3125 65.921875 37.59375 65.921875 
Q 27.828125 65.921875 22.671875 59.328125 
Q 17.53125 52.734375 16.796875 39.40625 
Q 19.671875 43.65625 24.015625 45.921875 
Q 28.375 48.1875 33.59375 48.1875 
Q 44.578125 48.1875 50.953125 41.515625 
Q 57.328125 34.859375 57.328125 23.390625 
Q 57.328125 12.15625 50.6875 5.359375 
Q 44.046875 -1.421875 33.015625 -1.421875 
Q 20.359375 -1.421875 13.671875 8.265625 
Q 6.984375 17.96875 6.984375 36.375 
Q 6.984375 53.65625 15.1875 63.9375 
Q 23.390625 74.21875 37.203125 74.21875 
Q 40.921875 74.21875 44.703125 73.484375 
Q 48.484375 72.75 52.59375 71.296875 
z
" id="DejaVuSans-54"/>
      </defs>
      <g style="fill:#262626;" transform="translate(236.063129 651.898438)scale(0.1 -0.1)">
       <use xlink:href="#DejaVuSans-50"/>
       <use x="63.623047" xlink:href="#DejaVuSans-48"/>
       <use x="127.246094" xlink:href="#DejaVuSans-49"/>
       <use x="190.869141" xlink:href="#DejaVuSans-54"/>
      </g>
     </g>
    </g>
    <g id="xtick_3">
     <g id="line2d_5">
      <path clip-path="url(#p0fbfa547b9)" d="M 334.029376 640.8 
L 334.029376 86.4 
" style="fill:none;stroke:#cccccc;stroke-linecap:round;stroke-width:0.8;"/>
     </g>
     <g id="line2d_6"/>
     <g id="text_3">
      <!-- 2017 -->
      <defs>
       <path d="M 8.203125 72.90625 
L 55.078125 72.90625 
L 55.078125 68.703125 
L 28.609375 0 
L 18.3125 0 
L 43.21875 64.59375 
L 8.203125 64.59375 
z
" id="DejaVuSans-55"/>
      </defs>
      <g style="fill:#262626;" transform="translate(321.304376 651.898438)scale(0.1 -0.1)">
       <use xlink:href="#DejaVuSans-50"/>
       <use x="63.623047" xlink:href="#DejaVuSans-48"/>
       <use x="127.246094" xlink:href="#DejaVuSans-49"/>
       <use x="190.869141" xlink:href="#DejaVuSans-55"/>
      </g>
     </g>
    </g>
    <g id="xtick_4">
     <g id="line2d_7">
      <path clip-path="url(#p0fbfa547b9)" d="M 419.037723 640.8 
L 419.037723 86.4 
" style="fill:none;stroke:#cccccc;stroke-linecap:round;stroke-width:0.8;"/>
     </g>
     <g id="line2d_8"/>
     <g id="text_4">
      <!-- 2018 -->
      <defs>
       <path d="M 31.78125 34.625 
Q 24.75 34.625 20.71875 30.859375 
Q 16.703125 27.09375 16.703125 20.515625 
Q 16.703125 13.921875 20.71875 10.15625 
Q 24.75 6.390625 31.78125 6.390625 
Q 38.8125 6.390625 42.859375 10.171875 
Q 46.921875 13.96875 46.921875 20.515625 
Q 46.921875 27.09375 42.890625 30.859375 
Q 38.875 34.625 31.78125 34.625 
z
M 21.921875 38.8125 
Q 15.578125 40.375 12.03125 44.71875 
Q 8.5 49.078125 8.5 55.328125 
Q 8.5 64.0625 14.71875 69.140625 
Q 20.953125 74.21875 31.78125 74.21875 
Q 42.671875 74.21875 48.875 69.140625 
Q 55.078125 64.0625 55.078125 55.328125 
Q 55.078125 49.078125 51.53125 44.71875 
Q 48 40.375 41.703125 38.8125 
Q 48.828125 37.15625 52.796875 32.3125 
Q 56.78125 27.484375 56.78125 20.515625 
Q 56.78125 9.90625 50.3125 4.234375 
Q 43.84375 -1.421875 31.78125 -1.421875 
Q 19.734375 -1.421875 13.25 4.234375 
Q 6.78125 9.90625 6.78125 20.515625 
Q 6.78125 27.484375 10.78125 32.3125 
Q 14.796875 37.15625 21.921875 38.8125 
z
M 18.3125 54.390625 
Q 18.3125 48.734375 21.84375 45.5625 
Q 25.390625 42.390625 31.78125 42.390625 
Q 38.140625 42.390625 41.71875 45.5625 
Q 45.3125 48.734375 45.3125 54.390625 
Q 45.3125 60.0625 41.71875 63.234375 
Q 38.140625 66.40625 31.78125 66.40625 
Q 25.390625 66.40625 21.84375 63.234375 
Q 18.3125 60.0625 18.3125 54.390625 
z
" id="DejaVuSans-56"/>
      </defs>
      <g style="fill:#262626;" transform="translate(406.312723 651.898438)scale(0.1 -0.1)">
       <use xlink:href="#DejaVuSans-50"/>
       <use x="63.623047" xlink:href="#DejaVuSans-48"/>
       <use x="127.246094" xlink:href="#DejaVuSans-49"/>
       <use x="190.869141" xlink:href="#DejaVuSans-56"/>
      </g>
     </g>
    </g>
    <g id="xtick_5">
     <g id="line2d_9">
      <path clip-path="url(#p0fbfa547b9)" d="M 504.046071 640.8 
L 504.046071 86.4 
" style="fill:none;stroke:#cccccc;stroke-linecap:round;stroke-width:0.8;"/>
     </g>
     <g id="line2d_10"/>
     <g id="text_5">
      <!-- 2019 -->
      <defs>
       <path d="M 10.984375 1.515625 
L 10.984375 10.5 
Q 14.703125 8.734375 18.5 7.8125 
Q 22.3125 6.890625 25.984375 6.890625 
Q 35.75 6.890625 40.890625 13.453125 
Q 46.046875 20.015625 46.78125 33.40625 
Q 43.953125 29.203125 39.59375 26.953125 
Q 35.25 24.703125 29.984375 24.703125 
Q 19.046875 24.703125 12.671875 31.3125 
Q 6.296875 37.9375 6.296875 49.421875 
Q 6.296875 60.640625 12.9375 67.421875 
Q 19.578125 74.21875 30.609375 74.21875 
Q 43.265625 74.21875 49.921875 64.515625 
Q 56.59375 54.828125 56.59375 36.375 
Q 56.59375 19.140625 48.40625 8.859375 
Q 40.234375 -1.421875 26.421875 -1.421875 
Q 22.703125 -1.421875 18.890625 -0.6875 
Q 15.09375 0.046875 10.984375 1.515625 
z
M 30.609375 32.421875 
Q 37.25 32.421875 41.125 36.953125 
Q 45.015625 41.5 45.015625 49.421875 
Q 45.015625 57.28125 41.125 61.84375 
Q 37.25 66.40625 30.609375 66.40625 
Q 23.96875 66.40625 20.09375 61.84375 
Q 16.21875 57.28125 16.21875 49.421875 
Q 16.21875 41.5 20.09375 36.953125 
Q 23.96875 32.421875 30.609375 32.421875 
z
" id="DejaVuSans-57"/>
      </defs>
      <g style="fill:#262626;" transform="translate(491.321071 651.898438)scale(0.1 -0.1)">
       <use xlink:href="#DejaVuSans-50"/>
       <use x="63.623047" xlink:href="#DejaVuSans-48"/>
       <use x="127.246094" xlink:href="#DejaVuSans-49"/>
       <use x="190.869141" xlink:href="#DejaVuSans-57"/>
      </g>
     </g>
    </g>
    <g id="xtick_6">
     <g id="line2d_11">
      <path clip-path="url(#p0fbfa547b9)" d="M 589.054418 640.8 
L 589.054418 86.4 
" style="fill:none;stroke:#cccccc;stroke-linecap:round;stroke-width:0.8;"/>
     </g>
     <g id="line2d_12"/>
     <g id="text_6">
      <!-- 2020 -->
      <g style="fill:#262626;" transform="translate(576.329418 651.898438)scale(0.1 -0.1)">
       <use xlink:href="#DejaVuSans-50"/>
       <use x="63.623047" xlink:href="#DejaVuSans-48"/>
       <use x="127.246094" xlink:href="#DejaVuSans-50"/>
       <use x="190.869141" xlink:href="#DejaVuSans-48"/>
      </g>
     </g>
    </g>
   </g>
   <g id="matplotlib.axis_2">
    <g id="ytick_1">
     <g id="line2d_13">
      <path clip-path="url(#p0fbfa547b9)" d="M 90 615.609128 
L 648 615.609128 
" style="fill:none;stroke:#cccccc;stroke-linecap:round;stroke-width:0.8;"/>
     </g>
     <g id="line2d_14"/>
     <g id="text_7">
      <!-- 0 -->
      <g style="fill:#262626;" transform="translate(80.1375 619.408347)scale(0.1 -0.1)">
       <use xlink:href="#DejaVuSans-48"/>
      </g>
     </g>
    </g>
    <g id="ytick_2">
     <g id="line2d_15">
      <path clip-path="url(#p0fbfa547b9)" d="M 90 524.327931 
L 648 524.327931 
" style="fill:none;stroke:#cccccc;stroke-linecap:round;stroke-width:0.8;"/>
     </g>
     <g id="line2d_16"/>
     <g id="text_8">
      <!-- 10000 -->
      <g style="fill:#262626;" transform="translate(54.6875 528.12715)scale(0.1 -0.1)">
       <use xlink:href="#DejaVuSans-49"/>
       <use x="63.623047" xlink:href="#DejaVuSans-48"/>
       <use x="127.246094" xlink:href="#DejaVuSans-48"/>
       <use x="190.869141" xlink:href="#DejaVuSans-48"/>
       <use x="254.492188" xlink:href="#DejaVuSans-48"/>
      </g>
     </g>
    </g>
    <g id="ytick_3">
     <g id="line2d_17">
      <path clip-path="url(#p0fbfa547b9)" d="M 90 433.046735 
L 648 433.046735 
" style="fill:none;stroke:#cccccc;stroke-linecap:round;stroke-width:0.8;"/>
     </g>
     <g id="line2d_18"/>
     <g id="text_9">
      <!-- 20000 -->
      <g style="fill:#262626;" transform="translate(54.6875 436.845953)scale(0.1 -0.1)">
       <use xlink:href="#DejaVuSans-50"/>
       <use x="63.623047" xlink:href="#DejaVuSans-48"/>
       <use x="127.246094" xlink:href="#DejaVuSans-48"/>
       <use x="190.869141" xlink:href="#DejaVuSans-48"/>
       <use x="254.492188" xlink:href="#DejaVuSans-48"/>
      </g>
     </g>
    </g>
    <g id="ytick_4">
     <g id="line2d_19">
      <path clip-path="url(#p0fbfa547b9)" d="M 90 341.765538 
L 648 341.765538 
" style="fill:none;stroke:#cccccc;stroke-linecap:round;stroke-width:0.8;"/>
     </g>
     <g id="line2d_20"/>
     <g id="text_10">
      <!-- 30000 -->
      <defs>
       <path d="M 40.578125 39.3125 
Q 47.65625 37.796875 51.625 33 
Q 55.609375 28.21875 55.609375 21.1875 
Q 55.609375 10.40625 48.1875 4.484375 
Q 40.765625 -1.421875 27.09375 -1.421875 
Q 22.515625 -1.421875 17.65625 -0.515625 
Q 12.796875 0.390625 7.625 2.203125 
L 7.625 11.71875 
Q 11.71875 9.328125 16.59375 8.109375 
Q 21.484375 6.890625 26.8125 6.890625 
Q 36.078125 6.890625 40.9375 10.546875 
Q 45.796875 14.203125 45.796875 21.1875 
Q 45.796875 27.640625 41.28125 31.265625 
Q 36.765625 34.90625 28.71875 34.90625 
L 20.21875 34.90625 
L 20.21875 43.015625 
L 29.109375 43.015625 
Q 36.375 43.015625 40.234375 45.921875 
Q 44.09375 48.828125 44.09375 54.296875 
Q 44.09375 59.90625 40.109375 62.90625 
Q 36.140625 65.921875 28.71875 65.921875 
Q 24.65625 65.921875 20.015625 65.03125 
Q 15.375 64.15625 9.8125 62.3125 
L 9.8125 71.09375 
Q 15.4375 72.65625 20.34375 73.4375 
Q 25.25 74.21875 29.59375 74.21875 
Q 40.828125 74.21875 47.359375 69.109375 
Q 53.90625 64.015625 53.90625 55.328125 
Q 53.90625 49.265625 50.4375 45.09375 
Q 46.96875 40.921875 40.578125 39.3125 
z
" id="DejaVuSans-51"/>
      </defs>
      <g style="fill:#262626;" transform="translate(54.6875 345.564756)scale(0.1 -0.1)">
       <use xlink:href="#DejaVuSans-51"/>
       <use x="63.623047" xlink:href="#DejaVuSans-48"/>
       <use x="127.246094" xlink:href="#DejaVuSans-48"/>
       <use x="190.869141" xlink:href="#DejaVuSans-48"/>
       <use x="254.492188" xlink:href="#DejaVuSans-48"/>
      </g>
     </g>
    </g>
    <g id="ytick_5">
     <g id="line2d_21">
      <path clip-path="url(#p0fbfa547b9)" d="M 90 250.484341 
L 648 250.484341 
" style="fill:none;stroke:#cccccc;stroke-linecap:round;stroke-width:0.8;"/>
     </g>
     <g id="line2d_22"/>
     <g id="text_11">
      <!-- 40000 -->
      <defs>
       <path d="M 37.796875 64.3125 
L 12.890625 25.390625 
L 37.796875 25.390625 
z
M 35.203125 72.90625 
L 47.609375 72.90625 
L 47.609375 25.390625 
L 58.015625 25.390625 
L 58.015625 17.1875 
L 47.609375 17.1875 
L 47.609375 0 
L 37.796875 0 
L 37.796875 17.1875 
L 4.890625 17.1875 
L 4.890625 26.703125 
z
" id="DejaVuSans-52"/>
      </defs>
      <g style="fill:#262626;" transform="translate(54.6875 254.28356)scale(0.1 -0.1)">
       <use xlink:href="#DejaVuSans-52"/>
       <use x="63.623047" xlink:href="#DejaVuSans-48"/>
       <use x="127.246094" xlink:href="#DejaVuSans-48"/>
       <use x="190.869141" xlink:href="#DejaVuSans-48"/>
       <use x="254.492188" xlink:href="#DejaVuSans-48"/>
      </g>
     </g>
    </g>
    <g id="ytick_6">
     <g id="line2d_23">
      <path clip-path="url(#p0fbfa547b9)" d="M 90 159.203144 
L 648 159.203144 
" style="fill:none;stroke:#cccccc;stroke-linecap:round;stroke-width:0.8;"/>
     </g>
     <g id="line2d_24"/>
     <g id="text_12">
      <!-- 50000 -->
      <g style="fill:#262626;" transform="translate(54.6875 163.002363)scale(0.1 -0.1)">
       <use xlink:href="#DejaVuSans-53"/>
       <use x="63.623047" xlink:href="#DejaVuSans-48"/>
       <use x="127.246094" xlink:href="#DejaVuSans-48"/>
       <use x="190.869141" xlink:href="#DejaVuSans-48"/>
       <use x="254.492188" xlink:href="#DejaVuSans-48"/>
      </g>
     </g>
    </g>
   </g>
   <g id="line2d_25">
    <path clip-path="url(#p0fbfa547b9)" d="M 115.363636 615.6 
L 116.500442 615.216619 
L 116.784294 614.979288 
L 117.481745 614.82411 
L 117.59524 614.778469 
L 117.943145 614.659804 
L 118.348366 614.522882 
L 118.425934 614.477241 
L 119.323121 614.276423 
L 119.350643 614.23991 
L 119.515247 614.121245 
L 120.488206 613.80176 
L 121.101554 613.683095 
L 121.21033 613.518789 
L 122.96729 613.263201 
L 123.292907 613.108023 
L 123.66163 612.961973 
L 123.674485 612.907205 
L 124.319102 612.742899 
L 125.838341 612.113058 
L 126.211848 611.994393 
L 126.293134 611.939624 
L 126.569619 611.820958 
L 126.712011 611.76619 
L 127.387223 611.62014 
L 127.844062 611.309784 
L 128.305923 611.081581 
L 128.383995 611.017684 
L 129.026804 610.899018 
L 129.138555 610.780353 
L 129.267302 610.661687 
L 129.31854 610.616047 
L 129.782754 610.479125 
L 130.918654 610.196153 
L 130.953403 610.159641 
L 131.382076 610.031847 
L 131.414469 609.958822 
L 132.27551 609.803644 
L 132.354534 609.657594 
L 132.773988 609.520672 
L 132.85378 609.438519 
L 133.972372 609.237701 
L 134.162884 609.082523 
L 134.881454 608.589604 
L 135.825501 608.470939 
L 136.457104 608.233607 
L 136.581303 608.142326 
L 137.236794 607.987148 
L 137.656989 607.758945 
L 137.738221 607.676792 
L 138.101213 607.53987 
L 140.899361 606.837005 
L 141.000486 606.745724 
L 141.375951 606.608802 
L 141.426968 606.535777 
L 142.271008 606.398855 
L 142.34529 606.344087 
L 142.749263 606.216293 
L 143.083921 605.951577 
L 143.754112 605.814656 
L 143.988424 605.559068 
L 144.219142 605.440403 
L 144.2772 605.413018 
L 144.426577 605.294353 
L 144.490177 605.221328 
L 144.656978 605.102662 
L 144.676747 605.084406 
L 145.535904 604.929228 
L 145.613454 604.828819 
L 145.798889 604.710153 
L 146.299726 604.299388 
L 146.376593 604.244619 
L 146.991071 604.125954 
L 147.008223 604.089441 
L 147.222156 603.970776 
L 147.286333 603.897751 
L 147.669698 603.742573 
L 147.699606 603.696932 
L 148.636 603.532626 
L 148.706217 603.450473 
L 149.03898 603.313551 
L 149.105845 603.194885 
L 149.386082 603.07622 
L 149.496369 603.030579 
L 149.614164 602.966682 
L 150.241432 602.811504 
L 150.285128 602.756736 
L 150.51806 602.628942 
L 150.739552 602.473764 
L 150.776072 602.44638 
L 151.136233 602.309458 
L 151.219524 602.209048 
L 151.898049 602.062999 
L 152.054232 601.935205 
L 152.672039 601.460543 
L 152.819596 601.341877 
L 153.051366 601.250596 
L 153.47272 601.13193 
L 153.579786 600.995009 
L 153.783776 600.858087 
L 154.177239 600.730293 
L 154.445065 600.511218 
L 154.476223 600.483834 
L 155.115145 600.365168 
L 155.328868 600.237375 
L 155.839352 599.990915 
L 156.739139 599.87225 
L 156.849996 599.77184 
L 157.038569 599.653175 
L 157.2402 599.525381 
L 157.790395 599.269794 
L 158.431734 599.151128 
L 158.434214 599.132872 
L 158.649361 599.014207 
L 158.67464 598.959438 
L 158.893951 598.840772 
L 158.899609 598.822516 
L 159.095061 598.70385 
L 159.165818 598.612569 
L 159.36168 598.493904 
L 159.416037 598.457391 
L 160.024134 598.338726 
L 160.077496 598.210932 
L 160.277272 598.092266 
L 160.302126 598.019241 
L 160.58099 597.891448 
L 160.728108 597.772782 
L 160.811642 597.690629 
L 160.980448 597.571964 
L 161.004865 597.498939 
L 161.683624 597.380273 
L 161.725352 597.334633 
L 163.545231 597.097301 
L 163.563666 597.079045 
L 164.929085 596.951251 
L 164.999055 596.85997 
L 165.152362 596.741305 
L 165.249112 596.677408 
L 165.363912 596.558742 
L 165.47165 596.321411 
L 165.595119 596.202746 
L 165.875499 595.965415 
L 165.889594 595.928902 
L 166.553741 595.810237 
L 166.592059 595.673315 
L 166.819963 595.554649 
L 166.879552 595.536393 
L 167.018362 595.408599 
L 167.108077 595.207781 
L 167.251348 595.089115 
L 167.2961 594.924809 
L 167.484134 594.806143 
L 167.521584 594.760503 
L 168.414727 594.641837 
L 168.600634 594.422762 
L 168.881577 594.09415 
L 169.161267 593.792922 
L 169.217912 593.774666 
L 169.898273 593.646872 
L 170.035495 593.528207 
L 170.493693 593.053544 
L 170.688846 592.861854 
L 170.778706 592.670163 
L 171.416387 592.54237 
L 171.494387 592.341551 
L 171.662787 592.222886 
L 171.828469 592.058579 
L 171.929896 591.912529 
L 171.99197 591.848633 
L 172.106999 591.729967 
L 172.352811 591.419611 
L 172.412567 591.255305 
L 173.082188 591.136639 
L 173.109686 591.100127 
L 173.290507 590.981461 
L 173.341885 590.899308 
L 173.532525 590.780643 
L 173.607999 590.625465 
L 173.738825 590.506799 
L 174.10686 590.132546 
L 174.898066 590.013881 
L 175.005747 589.685268 
L 175.178479 589.557475 
L 175.257163 589.447937 
L 175.382088 589.329272 
L 175.45092 589.119325 
L 175.585759 588.991531 
L 175.668384 588.672047 
L 176.297771 588.553381 
L 176.365792 588.288666 
L 176.683713 588.160872 
L 177.010441 587.987438 
L 177.123638 587.777491 
L 177.2476 587.658826 
L 177.296789 587.613185 
L 177.937131 587.467135 
L 178.039976 587.321085 
L 178.177794 587.20242 
L 178.224444 587.10201 
L 178.396102 586.983345 
L 178.745643 586.47217 
L 178.827934 586.353505 
L 178.9064 586.198327 
L 178.94144 586.116173 
L 179.566878 585.979252 
L 179.648509 585.805817 
L 179.783682 585.687152 
L 179.899407 585.40418 
L 180.020299 585.285515 
L 180.110701 584.975158 
L 180.251288 584.829109 
L 180.405069 584.564393 
L 180.498024 584.436599 
L 180.55183 584.208396 
L 181.175659 584.089731 
L 181.248373 583.779375 
L 181.399253 583.660709 
L 181.778419 583.195175 
L 181.888235 583.07651 
L 181.966426 582.939588 
L 182.14195 582.820922 
L 182.21551 582.592719 
L 182.847069 582.455797 
L 182.919287 582.34626 
L 183.029375 582.227594 
L 183.136552 581.889854 
L 183.278141 581.771188 
L 183.485373 581.42432 
L 183.572314 581.040939 
L 183.666911 580.894889 
L 183.759715 580.767095 
L 183.951436 580.575405 
L 184.431032 580.456739 
L 184.915261 579.689977 
L 184.968173 579.507415 
L 185.054798 579.315724 
L 185.142847 579.197059 
L 185.301869 578.859318 
L 185.41775 578.713268 
L 185.45048 578.631115 
L 186.083452 578.494194 
L 186.198254 578.293375 
L 186.327479 578.110812 
L 186.497816 577.92825 
L 186.575142 577.791328 
L 186.702789 577.654406 
L 186.775864 577.535741 
L 186.900174 577.34405 
L 187.038132 577.179744 
L 187.135338 577.051951 
L 187.701966 576.896773 
L 187.777367 576.650313 
L 187.931795 576.531648 
L 188.009442 576.294317 
L 188.172291 576.157395 
L 188.372612 575.929192 
L 188.446161 575.755758 
L 188.700725 575.30848 
L 189.341067 575.171558 
L 189.546674 574.706024 
L 189.605033 574.53259 
L 189.653454 574.43218 
L 189.789679 574.313515 
L 189.877246 573.957518 
L 190.051085 573.820596 
L 190.100481 573.601521 
L 190.256381 573.482856 
L 190.381427 573.291165 
L 190.960504 573.1725 
L 191.215022 572.615684 
L 191.427106 572.369225 
L 191.526223 572.204919 
L 191.662211 572.058869 
L 191.83774 571.721129 
L 191.909257 571.593335 
L 191.968503 571.419901 
L 192.554424 571.292107 
L 192.659927 570.917854 
L 192.873472 570.616626 
L 192.978034 570.434064 
L 193.072717 570.30627 
L 193.343212 569.932017 
L 193.603027 569.658174 
L 193.750724 569.630789 
L 194.173097 569.512124 
L 194.285614 569.146999 
L 194.534817 568.699721 
L 194.696617 568.571927 
L 194.764482 568.325468 
L 194.925064 568.188546 
L 195.013757 567.905575 
L 195.163934 567.777781 
L 195.2638 567.54045 
L 195.83396 567.403528 
L 195.916157 566.983635 
L 195.988005 566.819328 
L 196.098727 566.700663 
L 196.145894 566.600254 
L 196.541947 566.47246 
L 196.684814 566.070823 
L 196.795002 565.952157 
L 196.840684 565.787851 
L 196.899133 565.733082 
L 197.714222 565.587032 
L 197.828898 565.285804 
L 197.952206 565.158011 
L 198.00298 565.021089 
L 198.101814 564.902423 
L 198.228138 564.738117 
L 198.331333 564.309096 
L 198.44705 564.126533 
L 198.514127 563.953099 
L 199.117049 563.807049 
L 199.202124 563.578846 
L 199.352274 563.451052 
L 199.431789 563.241106 
L 199.531583 563.085927 
L 199.599946 562.921621 
L 199.899664 562.410447 
L 200.05499 562.237012 
L 200.096739 562.036194 
L 200.758204 561.899272 
L 200.854059 561.725838 
L 200.98224 561.607172 
L 201.09225 561.360713 
L 201.236871 561.232919 
L 201.313308 561.032101 
L 201.45091 560.886051 
L 201.555316 560.557438 
L 201.712191 560.384004 
L 201.786264 560.155801 
L 202.376387 560.018879 
L 202.487879 559.799804 
L 202.655154 559.608114 
L 203.114436 558.877864 
L 203.204161 558.55838 
L 203.292119 558.421458 
L 203.353045 558.211512 
L 203.402614 558.12023 
L 204.01408 557.983309 
L 205.063956 556.887934 
L 205.643744 556.769269 
L 205.740783 556.531938 
L 205.906214 556.358503 
L 205.996471 556.166813 
L 206.119007 556.020763 
L 206.19277 555.79256 
L 207.280176 555.473076 
L 207.34831 555.20836 
L 207.504582 555.071438 
L 207.619697 554.815851 
L 207.762357 554.660673 
L 207.876882 554.259036 
L 208.031113 554.012577 
L 208.557431 553.483146 
L 208.89537 553.355352 
L 209.017524 552.990227 
L 209.149209 552.871562 
L 209.261594 552.515565 
L 209.406803 552.387771 
L 209.517325 552.250849 
L 209.659329 552.123056 
L 209.901844 551.529728 
L 210.124171 551.356294 
L 210.18366 551.109834 
L 210.518737 550.972913 
L 210.665062 550.479994 
L 211.055204 550.333944 
L 211.569545 548.937342 
L 212.172235 548.736523 
L 212.228244 548.563089 
L 212.617445 548.426167 
L 212.740895 548.02453 
L 213.203484 547.385562 
L 213.793022 547.266896 
L 213.981274 547.011309 
L 214.081682 546.874387 
L 214.187547 546.627928 
L 214.300228 546.500134 
L 214.412222 546.281059 
L 214.561898 545.915934 
L 214.771828 545.660347 
L 214.981985 545.59645 
L 215.376213 545.477785 
L 215.495628 545.021379 
L 215.644608 544.857072 
L 216.465811 543.615648 
L 216.988727 543.496983 
L 217.271299 543.177498 
L 217.366283 543.004064 
L 217.52241 542.858014 
L 217.634406 542.593299 
L 217.819624 542.20079 
L 217.942392 542.036484 
L 218.0368 541.899562 
L 218.064686 541.799152 
L 218.682285 541.680487 
L 218.787383 541.47054 
L 218.953036 541.27885 
L 219.065175 541.114543 
L 219.193742 540.849828 
L 219.669615 540.384294 
L 219.733934 540.2565 
L 220.345851 540.101322 
L 220.452268 540.028297 
L 220.540052 539.891375 
L 220.650747 539.681429 
L 220.832827 539.343688 
L 221.453205 538.549542 
L 222.004031 538.421748 
L 222.174951 538.293954 
L 222.312456 538.065751 
L 222.46063 537.874061 
L 222.580024 537.700627 
L 222.915068 537.326374 
L 222.998469 537.189452 
L 223.544859 537.05253 
L 223.696934 536.787815 
L 224.083655 536.27664 
L 224.38082 535.601159 
L 224.549753 535.382084 
L 224.663391 535.217778 
L 225.20856 535.007831 
L 225.344008 534.733988 
L 225.485524 534.569682 
L 225.725014 534.441888 
L 225.834464 534.131532 
L 225.963971 533.866816 
L 226.062091 533.711638 
L 226.161105 533.529076 
L 226.246214 533.337385 
L 226.930475 533.200464 
L 227.350503 532.570623 
L 227.562611 532.287652 
L 227.736229 531.922527 
L 228.021296 531.530018 
L 228.462714 531.383968 
L 228.576058 530.808896 
L 228.78917 530.507668 
L 229.099562 530.023878 
L 229.48744 529.2845 
L 229.645148 529.13845 
L 229.682763 529.065425 
L 230.099656 528.94676 
L 230.147263 528.645532 
L 230.246687 528.517738 
L 230.339372 528.36256 
L 230.413367 528.152613 
L 230.539405 528.015692 
L 230.650436 527.887898 
L 230.723584 527.687079 
L 230.825912 527.413236 
L 230.930948 527.230673 
L 231.049358 527.029855 
L 231.294697 526.792524 
L 231.652683 526.646474 
L 231.761788 526.463911 
L 231.996771 526.117043 
L 232.143172 525.93448 
L 232.292058 525.614996 
L 232.403334 525.478074 
L 232.967714 524.665672 
L 233.288089 524.510494 
L 234.527419 521.963748 
L 235.063956 521.753802 
L 235.221929 521.552983 
L 235.322202 521.443446 
L 235.514124 521.233499 
L 235.724496 520.932271 
L 236.158099 520.44848 
L 236.596508 520.275046 
L 236.717009 520.165509 
L 236.871707 519.973818 
L 236.936334 519.882537 
L 237.128029 519.736487 
L 237.28767 519.499156 
L 237.636313 519.024494 
L 238.235922 518.887572 
L 239.15505 517.63702 
L 239.250189 517.509226 
L 239.322592 517.463585 
L 239.83622 517.24451 
L 239.987159 516.979795 
L 240.077761 516.852001 
L 240.388345 516.377339 
L 241.203491 515.884421 
L 241.50377 515.765755 
L 241.788789 515.318477 
L 241.956495 515.099402 
L 242.22829 514.542587 
L 242.433713 514.314384 
L 242.817356 513.976644 
L 243.147329 513.812337 
L 243.246611 513.7028 
L 243.50452 513.483725 
L 243.605683 513.246394 
L 243.700517 513.036447 
L 243.798205 512.872141 
L 243.898635 512.662194 
L 244.033614 512.525273 
L 244.141727 512.333582 
L 244.231514 512.287941 
L 244.689359 512.160148 
L 244.79849 512.041482 
L 245.27484 511.238208 
L 245.387341 511.028261 
L 245.961322 510.243243 
L 246.230362 510.088065 
L 246.458595 509.887246 
L 246.637211 509.759452 
L 246.77719 509.595146 
L 247.242432 509.394328 
L 248.063114 509.275662 
L 248.649617 508.956178 
L 249.531204 508.819256 
L 249.95324 508.399362 
L 250.10119 508.317209 
L 250.378999 508.171159 
L 250.477232 508.098135 
L 251.306354 507.73301 
L 251.562417 507.450038 
L 251.795783 507.240091 
L 251.944639 507.048401 
L 252.034082 506.838454 
L 252.484745 506.555482 
L 252.639232 506.491585 
L 253.226902 506.190358 
L 253.336694 506.135589 
L 253.502206 505.989539 
L 253.668452 505.469236 
L 253.793867 505.350571 
L 253.865031 505.213649 
L 253.971825 505.122368 
L 254.514826 504.958061 
L 254.791524 504.556424 
L 255.044713 504.23694 
L 255.123956 504.163915 
L 255.249139 504.045249 
L 255.292088 503.871815 
L 255.504153 503.46105 
L 255.723284 503.123309 
L 255.818064 502.931619 
L 256.180821 502.767313 
L 256.82777 501.763219 
L 256.946203 501.571529 
L 257.133278 501.215532 
L 257.183475 501.042098 
L 258.118777 499.736777 
L 258.233214 499.499446 
L 258.577668 498.979143 
L 258.783851 498.851349 
L 258.992078 498.623146 
L 259.226546 498.385815 
L 259.600453 498.048075 
L 260.395605 496.888804 
L 260.537895 496.61496 
L 260.894277 496.386757 
L 261.371619 495.583482 
L 261.482125 495.40092 
L 262.530693 493.70309 
L 262.720943 493.511399 
L 262.877215 493.255812 
L 263.562633 491.895722 
L 263.709737 491.4667 
L 264.102305 490.98291 
L 264.298412 490.800348 
L 264.408589 490.572145 
L 264.649066 490.35307 
L 264.845427 490.234404 
L 265.162106 489.960561 
L 265.338303 489.595436 
L 266.154271 489.184671 
L 266.249407 489.002108 
L 266.756384 488.299243 
L 266.992661 488.125809 
L 267.140191 488.052784 
L 267.654889 487.833709 
L 267.835378 487.58725 
L 268.012823 487.413815 
L 268.480642 487.039562 
L 268.581616 486.966537 
L 269.40046 486.738334 
L 269.500138 486.656181 
L 269.939278 486.327569 
L 269.993971 486.181519 
L 270.187895 486.053726 
L 270.420703 485.871163 
L 271.361825 485.478654 
L 271.486642 485.323476 
L 271.772728 485.177426 
L 271.883366 484.967479 
L 272.521716 484.830557 
L 272.543623 484.812301 
L 272.742604 484.693636 
L 273.225165 484.164205 
L 273.314772 483.99077 
L 273.537619 483.808208 
L 273.798623 483.589133 
L 274.278846 483.233137 
L 274.388832 483.087087 
L 275.093081 482.210787 
L 275.670726 482.019097 
L 275.795627 481.891303 
L 275.883104 481.434897 
L 276.011867 481.307103 
L 276.150952 481.17931 
L 277.015403 480.585982 
L 277.398609 480.458188 
L 277.878622 480.083935 
L 278.333639 479.426711 
L 278.420594 478.997689 
L 278.792023 478.879023 
L 279.178156 478.440874 
L 279.289711 478.303952 
L 279.547259 477.966211 
L 280.183155 477.190321 
L 280.531046 477.044271 
L 280.63825 476.925606 
L 280.780443 476.752172 
L 280.892432 476.569609 
L 281.056623 476.405303 
L 281.286579 476.240997 
L 281.447177 476.076691 
L 281.507651 475.921513 
L 281.617472 475.793719 
L 282.013827 475.319057 
L 282.737137 474.643576 
L 282.871647 474.470142 
L 283.075752 474.150657 
L 283.200173 473.995479 
L 283.448219 473.511689 
L 283.964744 473.064411 
L 284.138297 472.936618 
L 285.325055 471.740834 
L 285.553712 471.603912 
L 285.645909 471.540015 
L 285.870011 471.366581 
L 286.036194 471.165762 
L 286.51683 470.517666 
L 286.647518 470.380744 
L 286.810655 470.289463 
L 287.056718 470.161669 
L 287.18661 469.960851 
L 287.343629 469.805672 
L 287.484326 469.650494 
L 287.744693 469.367523 
L 287.992402 469.084551 
L 288.102216 468.892861 
L 288.306553 468.692042 
L 288.838437 468.098714 
L 289.673862 466.839034 
L 289.748821 466.683856 
L 289.858818 466.355243 
L 290.228505 466.017503 
L 290.451089 465.844069 
L 290.680813 465.515456 
L 290.775135 465.360278 
L 290.915419 465.168588 
L 291.007325 464.976897 
L 291.205735 464.776079 
L 291.321899 464.630029 
L 291.424679 464.465722 
L 291.626412 464.337929 
L 292.423527 464.064085 
L 293.142292 463.114761 
L 293.686118 462.932198 
L 295.025196 461.307393 
L 295.231334 461.179599 
L 295.539716 460.568015 
L 295.64906 460.038584 
L 296.516349 458.614598 
L 296.947168 458.495932 
L 297.331234 458.066911 
L 297.481101 457.929989 
L 297.863657 457.519223 
L 298.238008 457.227124 
L 298.644992 457.071946 
L 298.756479 456.843743 
L 299.221157 456.013084 
L 299.835799 455.136784 
L 300.168743 455.00899 
L 300.823266 454.160075 
L 300.90098 454.014025 
L 301.46618 453.26552 
L 301.843728 453.092085 
L 302.21703 452.526142 
L 302.321908 452.361836 
L 302.429672 452.142761 
L 302.538545 451.859789 
L 302.71743 451.567689 
L 302.809191 451.229949 
L 302.911211 450.992618 
L 303.046627 450.810055 
L 303.590615 449.796834 
L 303.684276 449.605144 
L 303.820199 449.449966 
L 304.585578 448.208541 
L 305.103815 448.07162 
L 306.357831 446.583736 
L 306.885467 446.072561 
L 306.994415 445.926511 
L 307.180374 445.725693 
L 307.504301 445.168877 
L 307.909177 444.484268 
L 308.03205 444.319962 
L 308.482207 443.452791 
L 308.603506 443.306741 
L 308.736011 442.996385 
L 308.982345 442.530851 
L 309.232763 442.00142 
L 309.33267 441.818858 
L 310.009761 441.344195 
L 310.120289 441.152505 
L 310.74439 440.020618 
L 310.918177 439.765031 
L 311.245795 439.491187 
L 311.393085 439.463803 
L 311.585947 439.326881 
L 311.81814 438.788322 
L 312.582269 437.556026 
L 312.755114 437.409976 
L 312.858638 437.336951 
L 313.279933 437.209157 
L 313.43001 437.053979 
L 313.517916 436.880545 
L 313.684628 436.615829 
L 313.794792 436.415011 
L 313.961237 436.232448 
L 314.485881 435.511327 
L 314.833683 435.392661 
L 315.952666 433.530525 
L 316.057357 433.338834 
L 316.253106 433.256681 
L 316.530324 433.037606 
L 316.694478 432.763763 
L 316.854847 432.426022 
L 317.075986 432.106538 
L 317.787125 431.32152 
L 318.08608 431.157214 
L 318.302908 430.901626 
L 318.3901 430.728192 
L 318.492239 430.463477 
L 318.601278 430.290042 
L 318.711795 430.070968 
L 318.88885 429.651074 
L 319.007295 429.505024 
L 319.331367 429.085131 
L 319.526836 428.911696 
L 319.749498 428.720006 
L 319.889483 428.519187 
L 320.09806 428.254472 
L 320.675484 427.140841 
L 320.787165 426.940022 
L 321.058862 426.739204 
L 321.153677 426.56577 
L 322.4543 424.548455 
L 322.96989 424.402405 
L 323.271198 424.03728 
L 324.108459 423.0697 
L 324.578862 422.92365 
L 324.670696 422.786728 
L 325.069194 422.33945 
L 325.159669 422.211656 
L 325.434854 422.120375 
L 326.302068 421.946941 
L 326.393931 421.691354 
L 326.494607 421.56356 
L 326.586977 421.41751 
L 326.707863 421.244076 
L 327.01724 420.459057 
L 327.123438 420.276495 
L 327.272397 419.874858 
L 327.396246 419.527989 
L 327.49215 419.400196 
L 327.569748 419.299786 
L 327.844877 419.171993 
L 328.122496 418.569537 
L 328.754455 416.862578 
L 328.842693 416.725657 
L 328.928515 416.451813 
L 329.4212 416.250994 
L 329.596217 415.876741 
L 329.826111 415.429464 
L 330.144456 414.909161 
L 330.280263 414.71747 
L 330.492285 414.407114 
L 330.732678 414.197167 
L 331.144495 414.069374 
L 331.256972 413.850299 
L 331.506228 413.558199 
L 331.633956 413.366508 
L 331.837954 413.101793 
L 332.11628 412.782309 
L 332.988405 412.645387 
L 333.156527 412.453697 
L 333.285902 412.371543 
L 333.607276 412.161597 
L 334.398631 412.015547 
L 334.629506 411.887753 
L 334.736063 411.696063 
L 335.195193 411.020582 
L 335.436983 410.828891 
L 335.523781 410.755866 
L 336.095765 410.582432 
L 336.178426 410.482023 
L 336.318629 410.354229 
L 336.429561 409.824798 
L 336.596054 409.423161 
L 337.379673 408.60163 
L 337.692095 408.473836 
L 337.899217 408.172608 
L 338.009857 407.953534 
L 338.229958 407.634049 
L 338.654199 407.031593 
L 338.762306 406.821647 
L 339.254919 406.675597 
L 339.36343 406.429138 
L 339.551027 406.210063 
L 339.651012 405.854066 
L 339.825536 405.616735 
L 339.914922 405.39766 
L 340.045788 405.269866 
L 340.686839 404.603514 
L 340.926582 404.466592 
L 341.307591 403.59942 
L 341.44442 403.416858 
L 342.017563 402.412765 
L 342.54197 402.166306 
L 342.667841 401.90159 
L 342.812384 401.737284 
L 342.903875 401.582106 
L 342.965249 401.454312 
L 343.069048 401.290006 
L 343.40754 400.851856 
L 343.578195 400.468475 
L 343.653812 400.34981 
L 344.218281 400.176376 
L 344.345977 399.902532 
L 344.449013 399.710841 
L 344.505055 399.564792 
L 344.582399 399.418742 
L 344.637007 399.300076 
L 344.747316 399.035361 
L 344.986194 398.588083 
L 345.08557 398.396392 
L 346.028002 397.556605 
L 346.130025 397.346658 
L 346.297462 397.200609 
L 346.39545 397.036302 
L 346.432339 396.890252 
L 346.535117 396.671178 
L 347.274988 395.749238 
L 347.391856 395.420625 
L 348.745415 393.138595 
L 349.141387 392.965161 
L 349.243127 392.819111 
L 349.364243 392.700446 
L 350.350085 391.696352 
L 350.71499 391.568559 
L 350.951685 391.376868 
L 351.061749 391.07564 
L 351.750361 390.29975 
L 352.441154 390.126316 
L 352.665727 389.980266 
L 353.054979 389.679038 
L 353.331636 389.122223 
L 353.412199 388.930532 
L 353.572482 388.811867 
L 353.80009 388.474126 
L 354.025647 388.127258 
L 354.196597 387.981208 
L 354.472424 387.716492 
L 354.617352 387.543058 
L 354.718127 387.415264 
L 354.830935 387.260086 
L 354.93688 387.104908 
L 355.171036 386.995371 
L 355.61923 386.867577 
L 355.729418 386.712399 
L 355.938052 386.36553 
L 356.081043 386.210352 
L 356.208434 385.963893 
L 356.914947 385.169747 
L 357.22755 385.023697 
L 357.482759 384.649444 
L 357.910676 384.101757 
L 358.067703 383.855298 
L 358.165222 383.672735 
L 358.653154 383.490173 
L 358.921159 383.362379 
L 359.047213 383.152432 
L 359.249782 382.869461 
L 359.609043 382.540848 
L 359.715573 382.403927 
L 360.022019 382.075314 
L 360.477688 381.874496 
L 360.573565 381.600652 
L 360.639402 381.445474 
L 360.749065 381.235527 
L 361.280895 380.423125 
L 361.37929 380.331843 
L 361.45171 380.20405 
L 361.895831 379.857181 
L 362.170558 379.665491 
L 363.057671 378.36017 
L 363.147092 378.186735 
L 363.820247 377.976788 
L 363.898848 377.748586 
L 364.025663 377.620792 
L 364.123222 377.492998 
L 364.314032 377.33782 
L 364.416333 377.036592 
L 364.641633 376.735364 
L 365.016793 376.333727 
L 365.381842 376.205933 
L 365.486884 375.849937 
L 365.715182 375.466556 
L 365.804465 375.110559 
L 365.952928 374.946253 
L 366.024884 374.772818 
L 366.176911 374.635897 
L 366.428132 374.243388 
L 366.49105 374.106466 
L 367.015217 373.905647 
L 367.125583 373.54965 
L 367.467778 373.038476 
L 367.614427 372.901554 
L 367.695969 372.718992 
L 367.799938 372.554685 
L 367.855138 372.417764 
L 367.959797 372.244329 
L 368.050337 371.95223 
L 368.06829 371.824436 
L 368.584321 371.678386 
L 368.915643 371.121571 
L 369.02579 370.847727 
L 369.194322 370.519115 
L 369.301078 370.354809 
L 369.852667 369.496765 
L 369.961214 369.314203 
L 370.263279 369.159025 
L 370.369305 368.967334 
L 370.481825 368.702619 
L 370.575427 368.583953 
L 370.735206 368.428775 
L 371.402447 367.607245 
L 371.872508 367.452067 
L 372.004905 367.315145 
L 372.105351 367.169095 
L 372.195119 367.032173 
L 372.28926 366.895251 
L 372.460062 366.685304 
L 372.533589 366.484486 
L 372.709035 366.356692 
L 372.788391 366.201514 
L 372.934249 366.055464 
L 372.976878 365.936799 
L 373.624425 365.754236 
L 374.054149 365.325215 
L 374.138823 365.133524 
L 374.296968 364.987474 
L 374.417944 364.722759 
L 374.522333 364.412403 
L 374.672896 364.138559 
L 374.740836 364.047278 
L 375.183445 363.910356 
L 375.237961 363.736922 
L 375.331544 363.444822 
L 375.45404 363.280516 
L 375.829021 362.623291 
L 375.934592 362.477241 
L 376.020153 362.404216 
L 376.179142 362.23991 
L 376.233752 361.984323 
L 376.82174 361.856529 
L 376.84497 361.80176 
L 377.202013 361.664839 
L 377.470473 361.290586 
L 377.784987 361.089767 
L 377.8814 360.952845 
L 377.987189 360.806795 
L 378.054571 360.68813 
L 378.726063 360.505567 
L 378.861983 360.131315 
L 378.969322 359.702293 
L 379.229711 359.401065 
L 379.325712 359.18199 
L 379.404507 359.03594 
L 379.478663 358.899018 
L 379.928404 358.6982 
L 380.078293 358.533894 
L 380.195449 358.241794 
L 380.301014 358.040975 
L 380.406517 357.858413 
L 380.514565 357.493288 
L 380.972334 356.589604 
L 381.137121 356.407042 
L 381.206851 356.324889 
L 381.750935 356.096686 
L 381.85935 355.83197 
L 381.984158 355.548998 
L 382.095142 355.402949 
L 382.401709 355.110849 
L 382.559353 354.983055 
L 382.784066 354.499265 
L 383.403587 354.252805 
L 383.514675 354.079371 
L 383.756042 353.677734 
L 384.218426 352.810563 
L 385.141603 351.742573 
L 385.245715 351.678676 
L 385.47342 351.432216 
L 385.584487 351.140117 
L 385.71652 350.838889 
L 385.992498 350.382483 
L 386.089596 350.19992 
L 386.618585 349.980845 
L 386.7276 349.761771 
L 387.5748 348.328656 
L 388.239523 348.155222 
L 388.306519 348.027428 
L 388.416481 347.881378 
L 388.554644 347.7262 
L 388.652658 347.415844 
L 388.819616 347.178513 
L 389.014505 346.749491 
L 389.073015 346.603441 
L 389.183098 346.210932 
L 389.314818 345.955345 
L 389.393093 345.818423 
L 389.518166 345.672373 
L 389.617941 345.644989 
L 390.025572 345.243351 
L 390.10483 345.051661 
L 390.212115 344.914739 
L 390.597117 344.275771 
L 390.654503 344.147977 
L 390.693735 343.956286 
L 390.803456 343.709827 
L 391.312059 342.797015 
L 391.415387 342.705734 
L 391.80472 342.221944 
L 391.914986 342.066766 
L 392.627783 341.245235 
L 393.192879 341.126569 
L 393.526303 340.58801 
L 393.618921 340.378064 
L 393.910439 340.232014 
L 393.971896 340.095092 
L 394.042939 339.967298 
L 394.318267 339.802992 
L 394.394471 339.784736 
L 394.98667 339.656942 
L 395.200579 339.300945 
L 395.258006 339.136639 
L 395.364975 338.972333 
L 395.525156 338.844539 
L 395.728239 338.753258 
L 395.811797 338.588952 
L 395.917085 338.223827 
L 395.965622 338.032137 
L 396.067715 337.694396 
L 396.382507 337.38404 
L 396.465895 337.146709 
L 396.668272 337.018915 
L 396.793537 336.872866 
L 397.434161 335.923541 
L 397.557684 335.850516 
L 397.628447 335.814004 
L 397.961695 335.695338 
L 398.148654 335.49452 
L 398.780537 334.517811 
L 398.891094 334.390017 
L 399.027238 334.225711 
L 399.666844 333.787561 
L 399.753186 333.641511 
L 399.857743 333.495461 
L 399.96812 333.303771 
L 400.172856 332.902134 
L 400.269164 332.77434 
L 400.393695 332.62829 
L 400.491343 332.400087 
L 400.597407 332.235781 
L 400.717598 332.04409 
L 401.241571 331.797631 
L 401.92805 330.647488 
L 402.537016 329.90811 
L 402.944409 329.561242 
L 403.150746 329.205245 
L 403.255228 328.98617 
L 403.381487 328.776223 
L 403.517773 328.474995 
L 403.797814 327.890796 
L 403.894855 327.744746 
L 404.046965 327.525671 
L 404.458033 327.379621 
L 404.679344 326.941471 
L 404.77783 326.877575 
L 404.861636 326.713268 
L 404.971099 326.55809 
L 405.163104 326.174709 
L 405.268122 325.92825 
L 405.37659 325.73656 
L 405.749887 325.243641 
L 406.097891 325.106719 
L 406.297168 324.66857 
L 406.500702 324.266932 
L 406.705915 324.011345 
L 406.815346 323.60058 
L 407.072638 323.071149 
L 407.235277 322.861202 
L 407.460941 322.651255 
L 407.705095 322.496077 
L 407.812609 322.277002 
L 407.939607 321.99403 
L 408.052948 321.80234 
L 409.497322 319.32862 
L 409.542578 319.200826 
L 409.707471 318.93611 
L 409.949732 318.297142 
L 410.0574 317.959402 
L 410.543308 317.694686 
L 410.974372 317.566892 
L 411.12774 317.356946 
L 411.383283 317.156127 
L 411.487098 317.019205 
L 412.218465 316.389365 
L 412.700141 316.215931 
L 412.797938 316.033368 
L 413.993322 315.613475 
L 414.378 315.485681 
L 414.574045 315.376144 
L 414.898252 315.1023 
L 415.005747 314.791944 
L 415.132454 314.627638 
L 415.235712 314.408563 
L 415.351482 314.280769 
L 415.859529 313.231036 
L 415.975208 313.039345 
L 416.073546 312.765502 
L 416.200115 312.564683 
L 416.788068 311.816177 
L 418.642437 311.095056 
L 419.444646 310.97639 
L 419.919416 310.118347 
L 420.574042 309.689325 
L 420.775667 309.506763 
L 420.884998 309.315072 
L 421.34077 308.639591 
L 421.470037 308.484413 
L 421.717027 308.228826 
L 422.190452 307.799804 
L 422.457221 307.672011 
L 423.148645 306.859608 
L 423.340957 306.476227 
L 423.479389 306.284537 
L 423.563926 306.138487 
L 424.233552 305.828131 
L 424.525593 305.49039 
L 424.633557 305.316956 
L 424.720412 305.189162 
L 424.830986 305.043112 
L 425.2028 304.431528 
L 425.759077 304.267222 
L 425.869691 303.929482 
L 426.000112 303.801688 
L 426.258541 303.527844 
L 426.403912 303.327026 
L 426.511124 303.190104 
L 427.111676 302.57852 
L 427.389859 302.395958 
L 427.498214 302.067345 
L 427.720121 301.674836 
L 427.829929 301.528786 
L 428.871704 300.305618 
L 429.049918 300.159568 
L 429.133673 300.00439 
L 429.235074 299.867468 
L 429.371727 299.602753 
L 429.682289 299.2285 
L 430.037046 298.653428 
L 430.675186 298.470866 
L 431.144238 297.96882 
L 431.300025 297.603695 
L 431.452175 297.229442 
L 431.562945 296.937342 
L 431.921589 296.243605 
L 432.032729 296.17058 
L 432.388663 295.632021 
L 432.495894 295.285152 
L 432.658727 294.95654 
L 432.791129 294.691825 
L 433.34574 294.153265 
L 433.905753 294.0346 
L 434.176955 293.760756 
L 434.646377 293.59645 
L 434.829313 293.496041 
L 435.778487 293.085275 
L 435.887136 292.948354 
L 436.669589 292.327642 
L 437.168437 292.199848 
L 437.268947 292.017285 
L 437.37999 291.697801 
L 437.500626 291.250523 
L 437.588731 291.086217 
L 437.688024 290.931039 
L 437.735048 290.766733 
L 437.826936 290.474633 
L 438.011021 290.319455 
L 438.566306 290.036484 
L 438.895678 289.507053 
L 438.997116 289.269721 
L 439.150364 289.023262 
L 439.444995 288.612497 
L 439.547067 288.375166 
L 439.702495 288.192603 
L 440.102605 287.882247 
L 440.360743 287.745325 
L 441.427984 286.357851 
L 441.480227 286.293954 
L 441.910086 286.157033 
L 442.340481 285.63673 
L 442.447949 285.417655 
L 442.565645 285.262477 
L 442.669581 285.152939 
L 442.928086 284.76043 
L 443.080714 284.440946 
L 443.569552 284.221871 
L 443.737806 283.911515 
L 443.871265 283.747209 
L 443.98599 283.592031 
L 444.095008 283.345572 
L 444.581776 282.405375 
L 444.749326 282.259326 
L 444.769066 282.241069 
L 445.205807 282.095019 
L 445.242383 281.930713 
L 445.352482 281.684254 
L 445.562747 281.355642 
L 445.667228 281.136567 
L 445.739252 280.908364 
L 445.826249 280.652776 
L 445.970391 280.506727 
L 446.781574 279.822118 
L 446.950761 279.685196 
L 447.04797 279.584786 
L 447.16229 279.438737 
L 447.285557 279.283559 
L 447.482707 279.110124 
L 447.590887 278.945818 
L 448.0055 278.589821 
L 448.462117 278.443772 
L 448.508994 278.297722 
L 448.599186 278.124287 
L 448.762863 277.959981 
L 448.842515 277.813931 
L 449.191859 277.266244 
L 449.275277 277.09281 
L 449.649075 276.572507 
L 449.985297 276.453841 
L 450.245716 276.106973 
L 450.469636 275.668823 
L 451.109008 274.765139 
L 451.208305 274.646474 
L 451.267086 274.51868 
L 451.922051 274.098787 
L 452.028678 273.961865 
L 452.162 273.74279 
L 452.605455 273.039925 
L 452.820588 272.811722 
L 453.488468 272.464853 
L 453.58686 272.318803 
L 453.70269 272.172753 
L 454.082523 271.579426 
L 454.218659 271.433376 
L 454.723318 270.885688 
L 455.118964 270.703126 
L 455.245781 270.347129 
L 455.422583 270.036773 
L 455.520053 269.927236 
L 455.853418 269.61688 
L 455.926961 269.580367 
L 456.697956 269.352164 
L 457.005729 268.98704 
L 457.375729 268.822733 
L 458.647549 268.275046 
L 458.754928 267.827768 
L 458.8099 267.663462 
L 458.905858 267.462644 
L 459.042295 267.261825 
L 459.137267 266.905828 
L 459.224259 266.741522 
L 459.322284 266.495063 
L 460.270134 265.746557 
L 460.409305 265.591379 
L 460.791053 265.153229 
L 460.879576 265.061948 
L 460.991058 264.90677 
L 461.073182 264.824617 
L 461.60111 264.632926 
L 461.70565 264.413852 
L 461.852474 264.194777 
L 462.045611 263.966574 
L 462.27799 263.793139 
L 462.380563 263.610577 
L 462.58672 263.473655 
L 462.775411 263.327605 
L 463.122769 263.099402 
L 464.480021 261.292035 
L 464.881872 261.145985 
L 465.272181 260.808244 
L 465.650134 260.48876 
L 465.804012 260.34271 
L 465.899528 260.169276 
L 466.753018 259.740254 
L 466.853432 259.630717 
L 467.287585 259.247336 
L 467.387691 259.174311 
L 467.477945 259.028261 
L 467.567992 258.909595 
L 468.128255 258.727033 
L 468.286678 258.507958 
L 468.40288 258.307139 
L 468.582021 258.133705 
L 468.802133 257.841605 
L 469.480712 257.275662 
L 469.747072 257.147868 
L 469.846944 256.94705 
L 469.991649 256.801 
L 470.083728 256.636694 
L 470.240609 256.499772 
L 470.760697 255.806035 
L 470.857679 255.705625 
L 471.475359 255.550447 
L 471.728554 255.331372 
L 471.835103 255.021016 
L 472.076456 254.646764 
L 472.185549 254.528098 
L 472.278464 254.363792 
L 472.379826 254.144717 
L 472.678151 254.035179 
L 473.041682 253.916514 
L 473.190948 253.633542 
L 473.297003 253.414467 
L 473.509918 253.131496 
L 473.61814 252.921549 
L 473.838479 252.629449 
L 473.941138 252.501655 
L 474.039646 252.364734 
L 474.246826 252.319093 
L 474.521564 252.163915 
L 474.983679 251.470178 
L 475.174079 251.287615 
L 475.291656 251.214591 
L 475.483531 250.977259 
L 475.927192 250.429572 
L 476.512416 249.973166 
L 476.623518 249.799732 
L 476.761021 249.644554 
L 476.98083 249.388967 
L 477.091344 249.22466 
L 477.228747 249.07861 
L 478.202755 248.59482 
L 478.310285 248.512667 
L 478.57547 248.30272 
L 479.051224 248.11103 
L 479.627012 247.901083 
L 480.849414 247.116065 
L 481.177872 246.988271 
L 481.350229 246.641403 
L 481.454934 246.285406 
L 481.512692 246.102843 
L 481.618988 245.965922 
L 481.699233 245.819872 
L 481.80241 245.564284 
L 481.829228 245.409106 
L 481.937737 245.153519 
L 482.018691 244.998341 
L 482.212898 244.770138 
L 482.470527 244.633216 
L 482.554449 244.578447 
L 482.810576 244.414141 
L 482.943353 244.167682 
L 483.131396 243.966863 
L 483.23227 243.802557 
L 483.302108 243.665636 
L 483.403999 243.382664 
L 483.563791 243.136205 
L 483.665067 243.035795 
L 484.535613 242.552005 
L 485.359085 241.74873 
L 485.467713 241.493143 
L 486.052692 241.201043 
L 486.339763 240.845047 
L 486.529516 240.552947 
L 486.638249 240.397769 
L 486.808449 240.215206 
L 486.916227 240.041772 
L 487.023821 239.850082 
L 487.314534 239.71316 
L 487.719676 239.594494 
L 487.83184 239.329779 
L 488.065953 239.019423 
L 488.187379 238.882501 
L 488.298028 238.736451 
L 488.450108 238.526504 
L 488.629788 238.389582 
L 488.70771 238.280045 
L 489.261903 238.051842 
L 489.362751 237.86928 
L 489.454781 237.695845 
L 489.568066 237.531539 
L 490.61241 236.244474 
L 490.915398 236.116681 
L 491.009011 235.915862 
L 491.238026 235.715043 
L 491.341335 235.605506 
L 491.439298 235.468584 
L 491.544154 235.276894 
L 492.084576 234.647053 
L 492.510208 234.501003 
L 492.845165 234.218032 
L 493.096519 233.852907 
L 493.255651 233.64296 
L 493.835687 232.821429 
L 494.235727 232.666251 
L 495.483246 232.209845 
L 495.899271 232.082052 
L 496.094845 231.936002 
L 496.445739 231.561749 
L 496.547533 231.342674 
L 496.668371 231.187496 
L 496.875385 230.913652 
L 497.079983 230.813243 
L 497.459987 230.685449 
L 497.533749 230.466374 
L 497.643352 230.274684 
L 498.649624 229.462281 
L 499.054875 229.343616 
L 499.675363 228.567726 
L 499.769453 228.531213 
L 500.11088 228.339523 
L 500.237417 228.266498 
L 500.769078 228.093063 
L 500.948381 227.956142 
L 501.071454 227.791835 
L 501.286562 227.52712 
L 501.835868 227.180251 
L 502.906937 226.869895 
L 502.991123 226.769486 
L 503.286614 226.586924 
L 503.393182 226.513899 
L 503.694407 226.340464 
L 504.186688 226.157902 
L 504.520254 225.902315 
L 504.760351 225.738008 
L 504.869385 225.528062 
L 505.27252 225.026015 
L 505.588293 224.898221 
L 505.7191 224.697403 
L 505.829848 224.51484 
L 506.175836 224.085819 
L 506.340607 223.939769 
L 506.607 223.647669 
L 506.700526 223.510747 
L 507.222367 223.328185 
L 507.330153 223.182135 
L 507.630124 222.853523 
L 507.823932 222.62532 
L 508.001143 222.406245 
L 508.100428 222.232811 
L 509.644738 220.991386 
L 510.146973 220.498468 
L 510.572972 220.361546 
L 510.805864 219.886884 
L 510.950614 219.695193 
L 511.091831 219.530887 
L 511.338775 219.202275 
L 511.484634 218.974072 
L 511.595838 218.83715 
L 511.795851 218.745869 
L 512.095621 218.590691 
L 512.471486 218.015619 
L 512.584529 217.933466 
L 512.907955 217.62311 
L 512.999643 217.559213 
L 513.102348 217.404035 
L 513.187445 217.349266 
L 513.7582 217.048039 
L 514.028353 216.774195 
L 514.132303 216.564248 
L 514.362715 216.244764 
L 514.472582 216.107842 
L 514.668797 215.815742 
L 514.779341 215.560155 
L 515.080215 215.423233 
L 515.411359 215.286311 
L 515.552734 215.076365 
L 515.6949 214.921187 
L 515.803102 214.692984 
L 515.930425 214.519549 
L 516.188634 214.090528 
L 516.36322 213.862325 
L 516.500806 213.533712 
L 517.045265 213.323766 
L 517.144902 212.986025 
L 517.289713 212.748694 
L 517.395865 212.392698 
L 517.636342 212.100598 
L 517.901538 211.680704 
L 518.039164 211.534654 
L 518.373181 211.370348 
L 518.698421 211.242554 
L 518.891951 210.804405 
L 519.036497 210.567074 
L 519.148025 210.302358 
L 519.334471 209.80944 
L 519.503782 209.544724 
L 519.600419 209.453443 
L 519.712693 209.289137 
L 519.731619 209.270881 
L 520.209413 209.124831 
L 520.300565 209.060934 
L 520.587872 208.896628 
L 520.724601 208.777962 
L 521.28518 208.485862 
L 521.372014 208.412837 
L 521.922147 208.230275 
L 523.090365 206.742391 
L 523.56286 206.60547 
L 523.670048 206.45942 
L 523.824824 206.340754 
L 523.971087 206.121679 
L 524.091844 205.893476 
L 524.207361 205.838708 
L 524.477907 205.58312 
L 524.581852 205.43707 
L 525.172455 205.053689 
L 525.276899 204.825486 
L 525.389149 204.652052 
L 525.490026 204.506002 
L 525.685551 204.250415 
L 525.785442 203.985699 
L 525.992313 203.702728 
L 526.101347 203.492781 
L 526.332694 203.136784 
L 527.060556 202.516072 
L 527.151686 202.296997 
L 527.334755 202.169203 
L 527.643565 201.89536 
L 527.749265 201.676285 
L 527.812954 201.502851 
L 527.961756 201.347673 
L 528.338798 201.128598 
L 528.576768 200.608295 
L 528.741202 200.361836 
L 528.824331 200.215786 
L 528.960189 200.060608 
L 529.145541 199.859789 
L 529.247734 199.750252 
L 529.466174 199.503793 
L 529.6142 199.439896 
L 530.106476 199.147796 
L 530.236751 198.974362 
L 530.384424 198.800927 
L 530.488275 198.590981 
L 530.621974 198.371906 
L 530.886851 197.924628 
L 531.07475 197.705553 
L 531.218714 197.559503 
L 531.966788 196.902278 
L 532.06091 196.719716 
L 532.20303 196.582794 
L 532.314304 196.26331 
L 532.556261 195.952954 
L 532.667277 195.834288 
L 533.1507 195.441779 
L 533.351899 195.259217 
L 533.463249 194.821067 
L 533.675225 194.547224 
L 533.771582 194.373789 
L 533.888401 194.200355 
L 533.992114 194.081689 
L 534.063308 193.944768 
L 534.154483 193.762205 
L 534.281675 193.607027 
L 534.38483 193.333184 
L 535.113771 192.712471 
L 535.453462 192.32909 
L 535.614632 192.183041 
L 535.715129 192.027862 
L 535.808413 191.872684 
L 535.915212 191.65361 
L 535.986791 191.525816 
L 536.150584 191.36151 
L 536.566876 191.169819 
L 536.668039 191.078538 
L 536.833214 190.92336 
L 536.924199 190.813823 
L 537.062542 190.676901 
L 537.170061 190.512595 
L 537.403198 190.357417 
L 538.303358 190.110957 
L 538.421112 189.983164 
L 538.529324 189.864498 
L 538.637075 189.66368 
L 538.708091 189.426348 
L 538.805448 189.298555 
L 538.899888 189.097736 
L 539.065225 188.915174 
L 539.172529 188.696099 
L 539.275746 188.568305 
L 539.377443 188.294462 
L 540.089851 187.892824 
L 540.236996 187.765031 
L 540.768352 187.600724 
L 540.799238 187.57334 
L 541.892817 187.372521 
L 542.314188 187.126062 
L 542.42489 186.852219 
L 542.51122 186.624016 
L 542.628648 186.414069 
L 543.065585 186.131097 
L 543.847742 185.446488 
L 543.957774 185.273054 
L 544.122947 185.108748 
L 544.218371 185.035723 
L 544.701274 184.798392 
L 544.940432 184.506292 
L 545.036671 184.351114 
L 545.624419 183.721274 
L 545.731132 183.429174 
L 546.136741 183.073177 
L 546.35444 182.927127 
L 546.976382 182.032571 
L 547.028401 181.904778 
L 547.081162 181.831753 
L 547.326955 181.694831 
L 547.544813 181.557909 
L 547.977486 181.411859 
L 549.076732 179.796182 
L 549.668315 179.46757 
L 550.246262 178.682552 
L 550.417643 178.536502 
L 550.751641 178.280914 
L 550.945721 178.244402 
L 551.265311 178.10748 
L 551.559926 177.879277 
L 551.645291 177.806252 
L 551.80146 177.651074 
L 551.904327 177.468512 
L 552.013919 177.322462 
L 552.124376 177.076002 
L 552.227491 176.911696 
L 552.446853 176.692621 
L 552.852565 176.5557 
L 552.983264 176.364009 
L 553.076747 176.245344 
L 553.184552 176.017141 
L 553.323154 175.779809 
L 553.43376 175.615503 
L 553.684715 175.113457 
L 553.844555 174.967407 
L 553.955458 174.839613 
L 554.837133 174.100235 
L 554.932501 173.83552 
L 555.053299 173.671214 
L 555.414247 173.004861 
L 555.92626 172.712761 
L 556.16895 172.566711 
L 556.307463 172.365893 
L 556.413508 172.165074 
L 556.978578 171.334415 
L 557.091566 171.151853 
L 557.306341 170.868881 
L 557.882031 170.558525 
L 557.986744 170.321194 
L 558.114314 170.056478 
L 558.219841 169.828275 
L 558.593779 169.289716 
L 558.90531 168.714645 
L 559.426703 168.459057 
L 559.532621 168.294751 
L 559.658152 168.121317 
L 560.548058 166.441743 
L 560.705904 166.386974 
L 561.061078 166.240924 
L 561.061081 166.231796 
L 561.329891 166.104003 
L 561.417816 166.040106 
L 561.764982 165.839287 
L 561.849861 165.738878 
L 562.050974 165.601956 
L 562.057109 165.5837 
L 562.540532 165.446778 
L 562.830075 165.309856 
L 562.945659 165.182063 
L 563.050111 164.990372 
L 563.141281 164.80781 
L 563.252777 164.260122 
L 563.76325 163.685051 
L 564.599195 163.246901 
L 564.660797 163.164748 
L 564.854694 163.027826 
L 565.683475 162.242808 
L 565.977303 162.051117 
L 566.088499 161.905068 
L 566.197571 161.685993 
L 566.405881 161.567327 
L 566.512543 161.31174 
L 566.673352 161.110921 
L 566.783979 160.891846 
L 566.945723 160.736668 
L 567.392755 160.526721 
L 567.494975 160.453697 
L 568.421131 159.595653 
L 568.524229 159.413091 
L 568.636833 159.267041 
L 568.729596 159.184888 
L 569.18702 158.956685 
L 569.309012 158.819763 
L 569.478314 158.564176 
L 569.586578 158.317717 
L 569.861073 157.943464 
L 569.990885 157.605723 
L 570.116718 157.432289 
L 570.224181 157.158445 
L 570.444217 157.003267 
L 570.792696 156.829833 
L 570.928662 156.629014 
L 571.18032 156.391683 
L 571.28234 156.090455 
L 571.439307 155.82574 
L 571.53368 155.67969 
L 571.734524 155.469743 
L 573.112497 154.246575 
L 573.223181 154.0275 
L 573.325921 153.890578 
L 573.436799 153.726272 
L 574.121187 153.443301 
L 574.232137 153.187713 
L 574.344042 153.123816 
L 574.566319 152.922998 
L 574.821446 152.649154 
L 574.924755 152.557873 
L 575.439449 152.274901 
L 575.733127 152.128851 
L 575.821434 151.955417 
L 575.970746 151.791111 
L 576.073454 151.535524 
L 576.24071 151.362089 
L 576.341127 151.188655 
L 576.410425 151.051733 
L 576.518076 150.759633 
L 576.642955 150.577071 
L 576.75468 150.275843 
L 576.952321 150.102409 
L 577.312121 149.892462 
L 577.533775 149.60949 
L 577.638811 149.399544 
L 577.788099 149.235237 
L 578.126148 148.085094 
L 578.23295 147.893404 
L 578.371755 147.71997 
L 578.504667 147.583048 
L 579.985903 147.108386 
L 580.05994 146.98972 
L 580.538716 146.825414 
L 580.700953 146.633723 
L 580.800582 146.542442 
L 581.184697 146.113421 
L 581.29224 145.967371 
L 581.574954 145.803064 
L 582.284069 145.492708 
L 582.36929 145.282762 
L 582.53112 145.14584 
L 582.629456 144.990662 
L 582.930842 144.725946 
L 583.047066 144.424718 
L 583.19228 144.26954 
L 583.287429 144.041337 
L 583.68059 143.9318 
L 583.878679 143.804006 
L 585.04363 142.653863 
L 585.189653 142.516941 
L 585.680642 142.13356 
L 585.782496 142.005767 
L 586.110582 141.777564 
L 586.216592 141.686282 
L 586.861209 141.266389 
L 587.248687 141.111211 
L 587.353198 141.029058 
L 587.513665 140.864752 
L 587.616537 140.764342 
L 587.909311 140.58178 
L 588.007282 140.527011 
L 588.742862 140.216655 
L 589.128117 139.988452 
L 589.582595 139.869787 
L 589.693225 139.778505 
L 590.125703 139.541174 
L 590.297957 139.404253 
L 590.405315 139.322099 
L 590.54127 139.148665 
L 590.651469 138.966103 
L 590.862847 138.427544 
L 590.974827 137.925497 
L 591.107421 137.724679 
L 591.208565 137.432579 
L 591.395971 137.240888 
L 591.498183 137.140479 
L 592.062571 136.976173 
L 592.167694 136.866635 
L 592.328467 136.64756 
L 592.43962 136.446742 
L 592.599833 136.291564 
L 592.701373 136.118129 
L 592.957905 135.889926 
L 593.068673 135.780389 
L 593.678061 135.406136 
L 593.880878 135.260086 
L 593.978744 135.150549 
L 594.223065 134.94973 
L 594.314238 134.867577 
L 594.550483 134.65763 
L 594.69435 134.493324 
L 595.336643 134.237737 
L 595.437431 134.17384 
L 595.826684 133.954765 
L 595.935788 133.753946 
L 596.050839 133.617025 
L 596.154996 133.334053 
L 596.278086 133.151491 
L 596.386807 133.014569 
L 597.04246 132.695085 
L 597.540302 132.393857 
L 597.689125 132.256935 
L 597.77767 132.156526 
L 597.807292 132.03786 
L 597.898226 131.791401 
L 598.047594 131.636223 
L 599.123641 130.604745 
L 599.230931 130.540848 
L 599.310859 130.367414 
L 599.422055 130.19398 
L 600.701331 129.408961 
L 600.807317 129.354193 
L 600.981555 129.107734 
L 601.062104 128.843018 
L 601.189703 128.696968 
L 601.300535 128.605687 
L 601.894216 128.194922 
L 602.019944 128.094512 
L 602.212345 127.884566 
L 602.306098 127.747644 
L 602.519487 127.574209 
L 602.622575 127.391647 
L 603.496905 126.816576 
L 603.601527 126.679654 
L 603.74873 126.542732 
L 604.000987 126.296273 
L 604.108665 126.186735 
L 604.232458 126.004173 
L 604.342021 125.812482 
L 604.900578 125.520383 
L 605.116018 125.392589 
L 605.226322 125.182642 
L 605.816919 124.917927 
L 606.471386 124.680596 
L 606.958809 124.543674 
L 607.072563 124.169421 
L 607.272968 124.023371 
L 607.370616 123.776912 
L 607.794867 123.457427 
L 608.648558 122.708922 
L 608.754802 122.581128 
L 609.027869 122.307284 
L 609.113928 122.142978 
L 609.318605 121.9878 
L 609.427216 121.878263 
L 609.49587 121.84175 
L 609.931681 121.704828 
L 610.016888 121.558779 
L 610.264746 121.367088 
L 610.802997 120.865041 
L 611.133259 120.472532 
L 611.590699 120.28997 
L 611.653431 120.153048 
L 612.174835 119.651002 
L 612.30982 119.523208 
L 612.434588 119.240236 
L 613.226129 118.729061 
L 613.516321 118.564755 
L 613.689462 118.427834 
L 613.794991 118.30004 
L 613.902341 118.163118 
L 614.011728 118.062709 
L 614.148883 117.980556 
L 614.532024 117.788865 
L 614.860936 117.597175 
L 615.372533 117.204665 
L 615.478492 117.076872 
L 616.054514 116.565697 
L 616.589309 116.35575 
L 616.698521 116.273597 
L 616.88469 115.999754 
L 617.202463 115.808063 
L 617.309829 115.652885 
L 617.39615 115.543348 
L 618.24622 115.196479 
L 618.429426 115.050429 
L 618.818773 114.840482 
L 619.066744 114.603151 
L 619.163747 114.475358 
L 619.517981 114.21977 
L 619.750598 114.082849 
L 620.018815 113.827261 
L 620.252998 113.644699 
L 620.338505 113.489521 
L 620.558643 113.343471 
L 620.591174 113.206549 
L 620.670567 113.15178 
L 620.870527 112.987474 
L 620.981159 112.859681 
L 621.695207 112.220712 
L 621.803133 112.120303 
L 621.919488 111.901228 
L 621.995316 111.837331 
L 622.636364 111.6 
L 622.636364 111.6 
" style="fill:none;stroke:#92c6ff;stroke-linecap:round;stroke-width:1.5;"/>
   </g>
   <g id="line2d_26">
    <defs>
     <path d="M 0 2.5 
C 0.663008 2.5 1.29895 2.236584 1.767767 1.767767 
C 2.236584 1.29895 2.5 0.663008 2.5 0 
C 2.5 -0.663008 2.236584 -1.29895 1.767767 -1.767767 
C 1.29895 -2.236584 0.663008 -2.5 0 -2.5 
C -0.663008 -2.5 -1.29895 -2.236584 -1.767767 -1.767767 
C -2.236584 -1.29895 -2.5 -0.663008 -2.5 0 
C -2.5 0.663008 -2.236584 1.29895 -1.767767 1.767767 
C -1.29895 2.236584 -0.663008 2.5 0 2.5 
z
" id="m57fc513cbd" style="stroke:#696969;"/>
    </defs>
    <g clip-path="url(#p0fbfa547b9)">
     <use style="fill:#696969;stroke:#696969;" x="115.363636" xlink:href="#m57fc513cbd" y="615.6"/>
    </g>
   </g>
   <g id="line2d_27">
    <g clip-path="url(#p0fbfa547b9)">
     <use style="fill:#696969;stroke:#696969;" x="197.944108" xlink:href="#m57fc513cbd" y="565.194523"/>
    </g>
   </g>
   <g id="line2d_28">
    <g clip-path="url(#p0fbfa547b9)">
     <use style="fill:#696969;stroke:#696969;" x="242.115775" xlink:href="#m57fc513cbd" y="514.789046"/>
    </g>
   </g>
   <g id="line2d_29">
    <g clip-path="url(#p0fbfa547b9)">
     <use style="fill:#696969;stroke:#696969;" x="291.572495" xlink:href="#m57fc513cbd" y="464.383569"/>
    </g>
   </g>
   <g id="line2d_30">
    <g clip-path="url(#p0fbfa547b9)">
     <use style="fill:#696969;stroke:#696969;" x="331.208869" xlink:href="#m57fc513cbd" y="413.978093"/>
    </g>
   </g>
   <g id="line2d_31">
    <g clip-path="url(#p0fbfa547b9)">
     <use style="fill:#696969;stroke:#696969;" x="375.26389" xlink:href="#m57fc513cbd" y="363.572616"/>
    </g>
   </g>
   <g id="line2d_32">
    <g clip-path="url(#p0fbfa547b9)">
     <use style="fill:#696969;stroke:#696969;" x="415.904877" xlink:href="#m57fc513cbd" y="313.176267"/>
    </g>
   </g>
   <g id="line2d_33">
    <g clip-path="url(#p0fbfa547b9)">
     <use style="fill:#696969;stroke:#696969;" x="463.314186" xlink:href="#m57fc513cbd" y="262.779918"/>
    </g>
   </g>
   <g id="line2d_34">
    <g clip-path="url(#p0fbfa547b9)">
     <use style="fill:#696969;stroke:#696969;" x="517.409322" xlink:href="#m57fc513cbd" y="212.383569"/>
    </g>
   </g>
   <g id="line2d_35">
    <g clip-path="url(#p0fbfa547b9)">
     <use style="fill:#696969;stroke:#696969;" x="566.005208" xlink:href="#m57fc513cbd" y="161.987221"/>
    </g>
   </g>
   <g id="line2d_36">
    <g clip-path="url(#p0fbfa547b9)">
     <use style="fill:#696969;stroke:#696969;" x="622.636364" xlink:href="#m57fc513cbd" y="111.6"/>
    </g>
   </g>
   <g id="patch_3">
    <path d="M 90 640.8 
L 90 86.4 
" style="fill:none;stroke:#cccccc;stroke-linecap:square;stroke-linejoin:miter;"/>
   </g>
   <g id="patch_4">
    <path d="M 648 640.8 
L 648 86.4 
" style="fill:none;stroke:#cccccc;stroke-linecap:square;stroke-linejoin:miter;"/>
   </g>
   <g id="patch_5">
    <path d="M 90 640.8 
L 648 640.8 
" style="fill:none;stroke:#cccccc;stroke-linecap:square;stroke-linejoin:miter;"/>
   </g>
   <g id="patch_6">
    <path d="M 90 86.4 
L 648 86.4 
" style="fill:none;stroke:#cccccc;stroke-linecap:square;stroke-linejoin:miter;"/>
   </g>
   <g id="text_13">
    <!-- 1 (2014-06-07) -->
    <defs>
     <path id="DejaVuSans-32"/>
     <path d="M 31 75.875 
Q 24.46875 64.65625 21.28125 53.65625 
Q 18.109375 42.671875 18.109375 31.390625 
Q 18.109375 20.125 21.3125 9.0625 
Q 24.515625 -2 31 -13.1875 
L 23.1875 -13.1875 
Q 15.875 -1.703125 12.234375 9.375 
Q 8.59375 20.453125 8.59375 31.390625 
Q 8.59375 42.28125 12.203125 53.3125 
Q 15.828125 64.359375 23.1875 75.875 
z
" id="DejaVuSans-40"/>
     <path d="M 4.890625 31.390625 
L 31.203125 31.390625 
L 31.203125 23.390625 
L 4.890625 23.390625 
z
" id="DejaVuSans-45"/>
     <path d="M 8.015625 75.875 
L 15.828125 75.875 
Q 23.140625 64.359375 26.78125 53.3125 
Q 30.421875 42.28125 30.421875 31.390625 
Q 30.421875 20.453125 26.78125 9.375 
Q 23.140625 -1.703125 15.828125 -13.1875 
L 8.015625 -13.1875 
Q 14.5 -2 17.703125 9.0625 
Q 20.90625 20.125 20.90625 31.390625 
Q 20.90625 42.671875 17.703125 53.65625 
Q 14.5 64.65625 8.015625 75.875 
z
" id="DejaVuSans-41"/>
    </defs>
    <g style="fill:#262626;" transform="translate(120.363636 623.198437)scale(0.1 -0.1)">
     <use xlink:href="#DejaVuSans-49"/>
     <use x="63.623047" xlink:href="#DejaVuSans-32"/>
     <use x="95.410156" xlink:href="#DejaVuSans-40"/>
     <use x="134.423828" xlink:href="#DejaVuSans-50"/>
     <use x="198.046875" xlink:href="#DejaVuSans-48"/>
     <use x="261.669922" xlink:href="#DejaVuSans-49"/>
     <use x="325.292969" xlink:href="#DejaVuSans-52"/>
     <use x="388.916016" xlink:href="#DejaVuSans-45"/>
     <use x="425" xlink:href="#DejaVuSans-48"/>
     <use x="488.623047" xlink:href="#DejaVuSans-54"/>
     <use x="552.246094" xlink:href="#DejaVuSans-45"/>
     <use x="588.330078" xlink:href="#DejaVuSans-48"/>
     <use x="651.953125" xlink:href="#DejaVuSans-55"/>
     <use x="715.576172" xlink:href="#DejaVuSans-41"/>
    </g>
   </g>
   <g id="text_14">
    <!-- 5523 (2015-05-27) -->
    <g style="fill:#262626;" transform="translate(202.944108 572.792961)scale(0.1 -0.1)">
     <use xlink:href="#DejaVuSans-53"/>
     <use x="63.623047" xlink:href="#DejaVuSans-53"/>
     <use x="127.246094" xlink:href="#DejaVuSans-50"/>
     <use x="190.869141" xlink:href="#DejaVuSans-51"/>
     <use x="254.492188" xlink:href="#DejaVuSans-32"/>
     <use x="286.279297" xlink:href="#DejaVuSans-40"/>
     <use x="325.292969" xlink:href="#DejaVuSans-50"/>
     <use x="388.916016" xlink:href="#DejaVuSans-48"/>
     <use x="452.539062" xlink:href="#DejaVuSans-49"/>
     <use x="516.162109" xlink:href="#DejaVuSans-53"/>
     <use x="579.785156" xlink:href="#DejaVuSans-45"/>
     <use x="615.869141" xlink:href="#DejaVuSans-48"/>
     <use x="679.492188" xlink:href="#DejaVuSans-53"/>
     <use x="743.115234" xlink:href="#DejaVuSans-45"/>
     <use x="779.199219" xlink:href="#DejaVuSans-50"/>
     <use x="842.822266" xlink:href="#DejaVuSans-55"/>
     <use x="906.445312" xlink:href="#DejaVuSans-41"/>
    </g>
   </g>
   <g id="text_15">
    <!-- 11045 (2015-12-03) -->
    <g style="fill:#262626;" transform="translate(247.115775 522.387484)scale(0.1 -0.1)">
     <use xlink:href="#DejaVuSans-49"/>
     <use x="63.623047" xlink:href="#DejaVuSans-49"/>
     <use x="127.246094" xlink:href="#DejaVuSans-48"/>
     <use x="190.869141" xlink:href="#DejaVuSans-52"/>
     <use x="254.492188" xlink:href="#DejaVuSans-53"/>
     <use x="318.115234" xlink:href="#DejaVuSans-32"/>
     <use x="349.902344" xlink:href="#DejaVuSans-40"/>
     <use x="388.916016" xlink:href="#DejaVuSans-50"/>
     <use x="452.539062" xlink:href="#DejaVuSans-48"/>
     <use x="516.162109" xlink:href="#DejaVuSans-49"/>
     <use x="579.785156" xlink:href="#DejaVuSans-53"/>
     <use x="643.408203" xlink:href="#DejaVuSans-45"/>
     <use x="679.492188" xlink:href="#DejaVuSans-49"/>
     <use x="743.115234" xlink:href="#DejaVuSans-50"/>
     <use x="806.738281" xlink:href="#DejaVuSans-45"/>
     <use x="842.822266" xlink:href="#DejaVuSans-48"/>
     <use x="906.445312" xlink:href="#DejaVuSans-51"/>
     <use x="970.068359" xlink:href="#DejaVuSans-41"/>
    </g>
   </g>
   <g id="text_16">
    <!-- 16567 (2016-07-02) -->
    <g style="fill:#262626;" transform="translate(296.572495 471.982007)scale(0.1 -0.1)">
     <use xlink:href="#DejaVuSans-49"/>
     <use x="63.623047" xlink:href="#DejaVuSans-54"/>
     <use x="127.246094" xlink:href="#DejaVuSans-53"/>
     <use x="190.869141" xlink:href="#DejaVuSans-54"/>
     <use x="254.492188" xlink:href="#DejaVuSans-55"/>
     <use x="318.115234" xlink:href="#DejaVuSans-32"/>
     <use x="349.902344" xlink:href="#DejaVuSans-40"/>
     <use x="388.916016" xlink:href="#DejaVuSans-50"/>
     <use x="452.539062" xlink:href="#DejaVuSans-48"/>
     <use x="516.162109" xlink:href="#DejaVuSans-49"/>
     <use x="579.785156" xlink:href="#DejaVuSans-54"/>
     <use x="643.408203" xlink:href="#DejaVuSans-45"/>
     <use x="679.492188" xlink:href="#DejaVuSans-48"/>
     <use x="743.115234" xlink:href="#DejaVuSans-55"/>
     <use x="806.738281" xlink:href="#DejaVuSans-45"/>
     <use x="842.822266" xlink:href="#DejaVuSans-48"/>
     <use x="906.445312" xlink:href="#DejaVuSans-50"/>
     <use x="970.068359" xlink:href="#DejaVuSans-41"/>
    </g>
   </g>
   <g id="text_17">
    <!-- 22089 (2016-12-19) -->
    <g style="fill:#262626;" transform="translate(336.208869 421.57653)scale(0.1 -0.1)">
     <use xlink:href="#DejaVuSans-50"/>
     <use x="63.623047" xlink:href="#DejaVuSans-50"/>
     <use x="127.246094" xlink:href="#DejaVuSans-48"/>
     <use x="190.869141" xlink:href="#DejaVuSans-56"/>
     <use x="254.492188" xlink:href="#DejaVuSans-57"/>
     <use x="318.115234" xlink:href="#DejaVuSans-32"/>
     <use x="349.902344" xlink:href="#DejaVuSans-40"/>
     <use x="388.916016" xlink:href="#DejaVuSans-50"/>
     <use x="452.539062" xlink:href="#DejaVuSans-48"/>
     <use x="516.162109" xlink:href="#DejaVuSans-49"/>
     <use x="579.785156" xlink:href="#DejaVuSans-54"/>
     <use x="643.408203" xlink:href="#DejaVuSans-45"/>
     <use x="679.492188" xlink:href="#DejaVuSans-49"/>
     <use x="743.115234" xlink:href="#DejaVuSans-50"/>
     <use x="806.738281" xlink:href="#DejaVuSans-45"/>
     <use x="842.822266" xlink:href="#DejaVuSans-49"/>
     <use x="906.445312" xlink:href="#DejaVuSans-57"/>
     <use x="970.068359" xlink:href="#DejaVuSans-41"/>
    </g>
   </g>
   <g id="text_18">
    <!-- 27611 (2017-06-27) -->
    <g style="fill:#262626;" transform="translate(380.26389 371.171053)scale(0.1 -0.1)">
     <use xlink:href="#DejaVuSans-50"/>
     <use x="63.623047" xlink:href="#DejaVuSans-55"/>
     <use x="127.246094" xlink:href="#DejaVuSans-54"/>
     <use x="190.869141" xlink:href="#DejaVuSans-49"/>
     <use x="254.492188" xlink:href="#DejaVuSans-49"/>
     <use x="318.115234" xlink:href="#DejaVuSans-32"/>
     <use x="349.902344" xlink:href="#DejaVuSans-40"/>
     <use x="388.916016" xlink:href="#DejaVuSans-50"/>
     <use x="452.539062" xlink:href="#DejaVuSans-48"/>
     <use x="516.162109" xlink:href="#DejaVuSans-49"/>
     <use x="579.785156" xlink:href="#DejaVuSans-55"/>
     <use x="643.408203" xlink:href="#DejaVuSans-45"/>
     <use x="679.492188" xlink:href="#DejaVuSans-48"/>
     <use x="743.115234" xlink:href="#DejaVuSans-54"/>
     <use x="806.738281" xlink:href="#DejaVuSans-45"/>
     <use x="842.822266" xlink:href="#DejaVuSans-50"/>
     <use x="906.445312" xlink:href="#DejaVuSans-55"/>
     <use x="970.068359" xlink:href="#DejaVuSans-41"/>
    </g>
   </g>
   <g id="text_19">
    <!-- 33132 (2017-12-18) -->
    <g style="fill:#262626;" transform="translate(420.904877 320.774704)scale(0.1 -0.1)">
     <use xlink:href="#DejaVuSans-51"/>
     <use x="63.623047" xlink:href="#DejaVuSans-51"/>
     <use x="127.246094" xlink:href="#DejaVuSans-49"/>
     <use x="190.869141" xlink:href="#DejaVuSans-51"/>
     <use x="254.492188" xlink:href="#DejaVuSans-50"/>
     <use x="318.115234" xlink:href="#DejaVuSans-32"/>
     <use x="349.902344" xlink:href="#DejaVuSans-40"/>
     <use x="388.916016" xlink:href="#DejaVuSans-50"/>
     <use x="452.539062" xlink:href="#DejaVuSans-48"/>
     <use x="516.162109" xlink:href="#DejaVuSans-49"/>
     <use x="579.785156" xlink:href="#DejaVuSans-55"/>
     <use x="643.408203" xlink:href="#DejaVuSans-45"/>
     <use x="679.492188" xlink:href="#DejaVuSans-49"/>
     <use x="743.115234" xlink:href="#DejaVuSans-50"/>
     <use x="806.738281" xlink:href="#DejaVuSans-45"/>
     <use x="842.822266" xlink:href="#DejaVuSans-49"/>
     <use x="906.445312" xlink:href="#DejaVuSans-56"/>
     <use x="970.068359" xlink:href="#DejaVuSans-41"/>
    </g>
   </g>
   <g id="text_20">
    <!-- 38653 (2018-07-10) -->
    <g style="fill:#262626;" transform="translate(468.314186 270.378356)scale(0.1 -0.1)">
     <use xlink:href="#DejaVuSans-51"/>
     <use x="63.623047" xlink:href="#DejaVuSans-56"/>
     <use x="127.246094" xlink:href="#DejaVuSans-54"/>
     <use x="190.869141" xlink:href="#DejaVuSans-53"/>
     <use x="254.492188" xlink:href="#DejaVuSans-51"/>
     <use x="318.115234" xlink:href="#DejaVuSans-32"/>
     <use x="349.902344" xlink:href="#DejaVuSans-40"/>
     <use x="388.916016" xlink:href="#DejaVuSans-50"/>
     <use x="452.539062" xlink:href="#DejaVuSans-48"/>
     <use x="516.162109" xlink:href="#DejaVuSans-49"/>
     <use x="579.785156" xlink:href="#DejaVuSans-56"/>
     <use x="643.408203" xlink:href="#DejaVuSans-45"/>
     <use x="679.492188" xlink:href="#DejaVuSans-48"/>
     <use x="743.115234" xlink:href="#DejaVuSans-55"/>
     <use x="806.738281" xlink:href="#DejaVuSans-45"/>
     <use x="842.822266" xlink:href="#DejaVuSans-49"/>
     <use x="906.445312" xlink:href="#DejaVuSans-48"/>
     <use x="970.068359" xlink:href="#DejaVuSans-41"/>
    </g>
   </g>
   <g id="text_21">
    <!-- 44174 (2019-02-27) -->
    <g style="fill:#262626;" transform="translate(522.409322 219.982007)scale(0.1 -0.1)">
     <use xlink:href="#DejaVuSans-52"/>
     <use x="63.623047" xlink:href="#DejaVuSans-52"/>
     <use x="127.246094" xlink:href="#DejaVuSans-49"/>
     <use x="190.869141" xlink:href="#DejaVuSans-55"/>
     <use x="254.492188" xlink:href="#DejaVuSans-52"/>
     <use x="318.115234" xlink:href="#DejaVuSans-32"/>
     <use x="349.902344" xlink:href="#DejaVuSans-40"/>
     <use x="388.916016" xlink:href="#DejaVuSans-50"/>
     <use x="452.539062" xlink:href="#DejaVuSans-48"/>
     <use x="516.162109" xlink:href="#DejaVuSans-49"/>
     <use x="579.785156" xlink:href="#DejaVuSans-57"/>
     <use x="643.408203" xlink:href="#DejaVuSans-45"/>
     <use x="679.492188" xlink:href="#DejaVuSans-48"/>
     <use x="743.115234" xlink:href="#DejaVuSans-50"/>
     <use x="806.738281" xlink:href="#DejaVuSans-45"/>
     <use x="842.822266" xlink:href="#DejaVuSans-50"/>
     <use x="906.445312" xlink:href="#DejaVuSans-55"/>
     <use x="970.068359" xlink:href="#DejaVuSans-41"/>
    </g>
   </g>
   <g id="text_22">
    <!-- 49695 (2019-09-24) -->
    <g style="fill:#262626;" transform="translate(571.005208 169.585658)scale(0.1 -0.1)">
     <use xlink:href="#DejaVuSans-52"/>
     <use x="63.623047" xlink:href="#DejaVuSans-57"/>
     <use x="127.246094" xlink:href="#DejaVuSans-54"/>
     <use x="190.869141" xlink:href="#DejaVuSans-57"/>
     <use x="254.492188" xlink:href="#DejaVuSans-53"/>
     <use x="318.115234" xlink:href="#DejaVuSans-32"/>
     <use x="349.902344" xlink:href="#DejaVuSans-40"/>
     <use x="388.916016" xlink:href="#DejaVuSans-50"/>
     <use x="452.539062" xlink:href="#DejaVuSans-48"/>
     <use x="516.162109" xlink:href="#DejaVuSans-49"/>
     <use x="579.785156" xlink:href="#DejaVuSans-57"/>
     <use x="643.408203" xlink:href="#DejaVuSans-45"/>
     <use x="679.492188" xlink:href="#DejaVuSans-48"/>
     <use x="743.115234" xlink:href="#DejaVuSans-57"/>
     <use x="806.738281" xlink:href="#DejaVuSans-45"/>
     <use x="842.822266" xlink:href="#DejaVuSans-50"/>
     <use x="906.445312" xlink:href="#DejaVuSans-52"/>
     <use x="970.068359" xlink:href="#DejaVuSans-41"/>
    </g>
   </g>
   <g id="text_23">
    <!-- 55215 (2020-05-24) -->
    <g style="fill:#262626;" transform="translate(627.636364 119.198437)scale(0.1 -0.1)">
     <use xlink:href="#DejaVuSans-53"/>
     <use x="63.623047" xlink:href="#DejaVuSans-53"/>
     <use x="127.246094" xlink:href="#DejaVuSans-50"/>
     <use x="190.869141" xlink:href="#DejaVuSans-49"/>
     <use x="254.492188" xlink:href="#DejaVuSans-53"/>
     <use x="318.115234" xlink:href="#DejaVuSans-32"/>
     <use x="349.902344" xlink:href="#DejaVuSans-40"/>
     <use x="388.916016" xlink:href="#DejaVuSans-50"/>
     <use x="452.539062" xlink:href="#DejaVuSans-48"/>
     <use x="516.162109" xlink:href="#DejaVuSans-50"/>
     <use x="579.785156" xlink:href="#DejaVuSans-48"/>
     <use x="643.408203" xlink:href="#DejaVuSans-45"/>
     <use x="679.492188" xlink:href="#DejaVuSans-48"/>
     <use x="743.115234" xlink:href="#DejaVuSans-53"/>
     <use x="806.738281" xlink:href="#DejaVuSans-45"/>
     <use x="842.822266" xlink:href="#DejaVuSans-50"/>
     <use x="906.445312" xlink:href="#DejaVuSans-52"/>
     <use x="970.068359" xlink:href="#DejaVuSans-41"/>
    </g>
   </g>
   <g id="text_24">
    <!-- Closed PRs over time -->
    <defs>
     <path d="M 64.40625 67.28125 
L 64.40625 56.890625 
Q 59.421875 61.53125 53.78125 63.8125 
Q 48.140625 66.109375 41.796875 66.109375 
Q 29.296875 66.109375 22.65625 58.46875 
Q 16.015625 50.828125 16.015625 36.375 
Q 16.015625 21.96875 22.65625 14.328125 
Q 29.296875 6.6875 41.796875 6.6875 
Q 48.140625 6.6875 53.78125 8.984375 
Q 59.421875 11.28125 64.40625 15.921875 
L 64.40625 5.609375 
Q 59.234375 2.09375 53.4375 0.328125 
Q 47.65625 -1.421875 41.21875 -1.421875 
Q 24.65625 -1.421875 15.125 8.703125 
Q 5.609375 18.84375 5.609375 36.375 
Q 5.609375 53.953125 15.125 64.078125 
Q 24.65625 74.21875 41.21875 74.21875 
Q 47.75 74.21875 53.53125 72.484375 
Q 59.328125 70.75 64.40625 67.28125 
z
" id="DejaVuSans-67"/>
     <path d="M 9.421875 75.984375 
L 18.40625 75.984375 
L 18.40625 0 
L 9.421875 0 
z
" id="DejaVuSans-108"/>
     <path d="M 30.609375 48.390625 
Q 23.390625 48.390625 19.1875 42.75 
Q 14.984375 37.109375 14.984375 27.296875 
Q 14.984375 17.484375 19.15625 11.84375 
Q 23.34375 6.203125 30.609375 6.203125 
Q 37.796875 6.203125 41.984375 11.859375 
Q 46.1875 17.53125 46.1875 27.296875 
Q 46.1875 37.015625 41.984375 42.703125 
Q 37.796875 48.390625 30.609375 48.390625 
z
M 30.609375 56 
Q 42.328125 56 49.015625 48.375 
Q 55.71875 40.765625 55.71875 27.296875 
Q 55.71875 13.875 49.015625 6.21875 
Q 42.328125 -1.421875 30.609375 -1.421875 
Q 18.84375 -1.421875 12.171875 6.21875 
Q 5.515625 13.875 5.515625 27.296875 
Q 5.515625 40.765625 12.171875 48.375 
Q 18.84375 56 30.609375 56 
z
" id="DejaVuSans-111"/>
     <path d="M 44.28125 53.078125 
L 44.28125 44.578125 
Q 40.484375 46.53125 36.375 47.5 
Q 32.28125 48.484375 27.875 48.484375 
Q 21.1875 48.484375 17.84375 46.4375 
Q 14.5 44.390625 14.5 40.28125 
Q 14.5 37.15625 16.890625 35.375 
Q 19.28125 33.59375 26.515625 31.984375 
L 29.59375 31.296875 
Q 39.15625 29.25 43.1875 25.515625 
Q 47.21875 21.78125 47.21875 15.09375 
Q 47.21875 7.46875 41.1875 3.015625 
Q 35.15625 -1.421875 24.609375 -1.421875 
Q 20.21875 -1.421875 15.453125 -0.5625 
Q 10.6875 0.296875 5.421875 2 
L 5.421875 11.28125 
Q 10.40625 8.6875 15.234375 7.390625 
Q 20.0625 6.109375 24.8125 6.109375 
Q 31.15625 6.109375 34.5625 8.28125 
Q 37.984375 10.453125 37.984375 14.40625 
Q 37.984375 18.0625 35.515625 20.015625 
Q 33.0625 21.96875 24.703125 23.78125 
L 21.578125 24.515625 
Q 13.234375 26.265625 9.515625 29.90625 
Q 5.8125 33.546875 5.8125 39.890625 
Q 5.8125 47.609375 11.28125 51.796875 
Q 16.75 56 26.8125 56 
Q 31.78125 56 36.171875 55.265625 
Q 40.578125 54.546875 44.28125 53.078125 
z
" id="DejaVuSans-115"/>
     <path d="M 56.203125 29.59375 
L 56.203125 25.203125 
L 14.890625 25.203125 
Q 15.484375 15.921875 20.484375 11.0625 
Q 25.484375 6.203125 34.421875 6.203125 
Q 39.59375 6.203125 44.453125 7.46875 
Q 49.3125 8.734375 54.109375 11.28125 
L 54.109375 2.78125 
Q 49.265625 0.734375 44.1875 -0.34375 
Q 39.109375 -1.421875 33.890625 -1.421875 
Q 20.796875 -1.421875 13.15625 6.1875 
Q 5.515625 13.8125 5.515625 26.8125 
Q 5.515625 40.234375 12.765625 48.109375 
Q 20.015625 56 32.328125 56 
Q 43.359375 56 49.78125 48.890625 
Q 56.203125 41.796875 56.203125 29.59375 
z
M 47.21875 32.234375 
Q 47.125 39.59375 43.09375 43.984375 
Q 39.0625 48.390625 32.421875 48.390625 
Q 24.90625 48.390625 20.390625 44.140625 
Q 15.875 39.890625 15.1875 32.171875 
z
" id="DejaVuSans-101"/>
     <path d="M 45.40625 46.390625 
L 45.40625 75.984375 
L 54.390625 75.984375 
L 54.390625 0 
L 45.40625 0 
L 45.40625 8.203125 
Q 42.578125 3.328125 38.25 0.953125 
Q 33.9375 -1.421875 27.875 -1.421875 
Q 17.96875 -1.421875 11.734375 6.484375 
Q 5.515625 14.40625 5.515625 27.296875 
Q 5.515625 40.1875 11.734375 48.09375 
Q 17.96875 56 27.875 56 
Q 33.9375 56 38.25 53.625 
Q 42.578125 51.265625 45.40625 46.390625 
z
M 14.796875 27.296875 
Q 14.796875 17.390625 18.875 11.75 
Q 22.953125 6.109375 30.078125 6.109375 
Q 37.203125 6.109375 41.296875 11.75 
Q 45.40625 17.390625 45.40625 27.296875 
Q 45.40625 37.203125 41.296875 42.84375 
Q 37.203125 48.484375 30.078125 48.484375 
Q 22.953125 48.484375 18.875 42.84375 
Q 14.796875 37.203125 14.796875 27.296875 
z
" id="DejaVuSans-100"/>
     <path d="M 19.671875 64.796875 
L 19.671875 37.40625 
L 32.078125 37.40625 
Q 38.96875 37.40625 42.71875 40.96875 
Q 46.484375 44.53125 46.484375 51.125 
Q 46.484375 57.671875 42.71875 61.234375 
Q 38.96875 64.796875 32.078125 64.796875 
z
M 9.8125 72.90625 
L 32.078125 72.90625 
Q 44.34375 72.90625 50.609375 67.359375 
Q 56.890625 61.8125 56.890625 51.125 
Q 56.890625 40.328125 50.609375 34.8125 
Q 44.34375 29.296875 32.078125 29.296875 
L 19.671875 29.296875 
L 19.671875 0 
L 9.8125 0 
z
" id="DejaVuSans-80"/>
     <path d="M 44.390625 34.1875 
Q 47.5625 33.109375 50.5625 29.59375 
Q 53.5625 26.078125 56.59375 19.921875 
L 66.609375 0 
L 56 0 
L 46.6875 18.703125 
Q 43.0625 26.03125 39.671875 28.421875 
Q 36.28125 30.8125 30.421875 30.8125 
L 19.671875 30.8125 
L 19.671875 0 
L 9.8125 0 
L 9.8125 72.90625 
L 32.078125 72.90625 
Q 44.578125 72.90625 50.734375 67.671875 
Q 56.890625 62.453125 56.890625 51.90625 
Q 56.890625 45.015625 53.6875 40.46875 
Q 50.484375 35.9375 44.390625 34.1875 
z
M 19.671875 64.796875 
L 19.671875 38.921875 
L 32.078125 38.921875 
Q 39.203125 38.921875 42.84375 42.21875 
Q 46.484375 45.515625 46.484375 51.90625 
Q 46.484375 58.296875 42.84375 61.546875 
Q 39.203125 64.796875 32.078125 64.796875 
z
" id="DejaVuSans-82"/>
     <path d="M 2.984375 54.6875 
L 12.5 54.6875 
L 29.59375 8.796875 
L 46.6875 54.6875 
L 56.203125 54.6875 
L 35.6875 0 
L 23.484375 0 
z
" id="DejaVuSans-118"/>
     <path d="M 41.109375 46.296875 
Q 39.59375 47.171875 37.8125 47.578125 
Q 36.03125 48 33.890625 48 
Q 26.265625 48 22.1875 43.046875 
Q 18.109375 38.09375 18.109375 28.8125 
L 18.109375 0 
L 9.078125 0 
L 9.078125 54.6875 
L 18.109375 54.6875 
L 18.109375 46.1875 
Q 20.953125 51.171875 25.484375 53.578125 
Q 30.03125 56 36.53125 56 
Q 37.453125 56 38.578125 55.875 
Q 39.703125 55.765625 41.0625 55.515625 
z
" id="DejaVuSans-114"/>
     <path d="M 18.3125 70.21875 
L 18.3125 54.6875 
L 36.8125 54.6875 
L 36.8125 47.703125 
L 18.3125 47.703125 
L 18.3125 18.015625 
Q 18.3125 11.328125 20.140625 9.421875 
Q 21.96875 7.515625 27.59375 7.515625 
L 36.8125 7.515625 
L 36.8125 0 
L 27.59375 0 
Q 17.1875 0 13.234375 3.875 
Q 9.28125 7.765625 9.28125 18.015625 
L 9.28125 47.703125 
L 2.6875 47.703125 
L 2.6875 54.6875 
L 9.28125 54.6875 
L 9.28125 70.21875 
z
" id="DejaVuSans-116"/>
     <path d="M 9.421875 54.6875 
L 18.40625 54.6875 
L 18.40625 0 
L 9.421875 0 
z
M 9.421875 75.984375 
L 18.40625 75.984375 
L 18.40625 64.59375 
L 9.421875 64.59375 
z
" id="DejaVuSans-105"/>
     <path d="M 52 44.1875 
Q 55.375 50.25 60.0625 53.125 
Q 64.75 56 71.09375 56 
Q 79.640625 56 84.28125 50.015625 
Q 88.921875 44.046875 88.921875 33.015625 
L 88.921875 0 
L 79.890625 0 
L 79.890625 32.71875 
Q 79.890625 40.578125 77.09375 44.375 
Q 74.3125 48.1875 68.609375 48.1875 
Q 61.625 48.1875 57.5625 43.546875 
Q 53.515625 38.921875 53.515625 30.90625 
L 53.515625 0 
L 44.484375 0 
L 44.484375 32.71875 
Q 44.484375 40.625 41.703125 44.40625 
Q 38.921875 48.1875 33.109375 48.1875 
Q 26.21875 48.1875 22.15625 43.53125 
Q 18.109375 38.875 18.109375 30.90625 
L 18.109375 0 
L 9.078125 0 
L 9.078125 54.6875 
L 18.109375 54.6875 
L 18.109375 46.1875 
Q 21.1875 51.21875 25.484375 53.609375 
Q 29.78125 56 35.6875 56 
Q 41.65625 56 45.828125 52.96875 
Q 50 49.953125 52 44.1875 
z
" id="DejaVuSans-109"/>
    </defs>
    <g style="fill:#262626;" transform="translate(305.27625 80.4)scale(0.12 -0.12)">
     <use xlink:href="#DejaVuSans-67"/>
     <use x="69.824219" xlink:href="#DejaVuSans-108"/>
     <use x="97.607422" xlink:href="#DejaVuSans-111"/>
     <use x="158.789062" xlink:href="#DejaVuSans-115"/>
     <use x="210.888672" xlink:href="#DejaVuSans-101"/>
     <use x="272.412109" xlink:href="#DejaVuSans-100"/>
     <use x="335.888672" xlink:href="#DejaVuSans-32"/>
     <use x="367.675781" xlink:href="#DejaVuSans-80"/>
     <use x="427.978516" xlink:href="#DejaVuSans-82"/>
     <use x="497.460938" xlink:href="#DejaVuSans-115"/>
     <use x="549.560547" xlink:href="#DejaVuSans-32"/>
     <use x="581.347656" xlink:href="#DejaVuSans-111"/>
     <use x="642.529297" xlink:href="#DejaVuSans-118"/>
     <use x="701.708984" xlink:href="#DejaVuSans-101"/>
     <use x="763.232422" xlink:href="#DejaVuSans-114"/>
     <use x="804.345703" xlink:href="#DejaVuSans-32"/>
     <use x="836.132812" xlink:href="#DejaVuSans-116"/>
     <use x="875.341797" xlink:href="#DejaVuSans-105"/>
     <use x="903.125" xlink:href="#DejaVuSans-109"/>
     <use x="1000.537109" xlink:href="#DejaVuSans-101"/>
    </g>
   </g>
  </g>
 </g>
 <defs>
  <clipPath id="p0fbfa547b9">
   <rect height="554.4" width="558" x="90" y="86.4"/>
  </clipPath>
 </defs>
</svg>
