<?xml version="1.0" encoding="utf-8" standalone="no"?>
<!DOCTYPE svg PUBLIC "-//W3C//DTD SVG 1.1//EN"
  "http://www.w3.org/Graphics/SVG/1.1/DTD/svg11.dtd">
<!-- Created with matplotlib (https://matplotlib.org/) -->
<svg height="720pt" version="1.1" viewBox="0 0 720 720" width="720pt" xmlns="http://www.w3.org/2000/svg" xmlns:xlink="http://www.w3.org/1999/xlink">
 <defs>
  <style type="text/css">
*{stroke-linecap:butt;stroke-linejoin:round;}
  </style>
 </defs>
 <g id="figure_1">
  <g id="patch_1">
   <path d="M 0 720 
L 720 720 
L 720 0 
L 0 0 
z
" style="fill:#ffffff;"/>
  </g>
  <g id="axes_1">
   <g id="patch_2">
    <path d="M 90 640.8 
L 648 640.8 
L 648 86.4 
L 90 86.4 
z
" style="fill:#ffffff;"/>
   </g>
   <g id="matplotlib.axis_1">
    <g id="xtick_1">
     <g id="line2d_1">
      <path clip-path="url(#p47603f9eb1)" d="M 162.624963 640.8 
L 162.624963 86.4 
" style="fill:none;stroke:#cccccc;stroke-linecap:round;stroke-width:0.8;"/>
     </g>
     <g id="line2d_2"/>
     <g id="text_1">
      <!-- 2015 -->
      <defs>
       <path d="M 19.1875 8.296875 
L 53.609375 8.296875 
L 53.609375 0 
L 7.328125 0 
L 7.328125 8.296875 
Q 12.9375 14.109375 22.625 23.890625 
Q 32.328125 33.6875 34.8125 36.53125 
Q 39.546875 41.84375 41.421875 45.53125 
Q 43.3125 49.21875 43.3125 52.78125 
Q 43.3125 58.59375 39.234375 62.25 
Q 35.15625 65.921875 28.609375 65.921875 
Q 23.96875 65.921875 18.8125 64.3125 
Q 13.671875 62.703125 7.8125 59.421875 
L 7.8125 69.390625 
Q 13.765625 71.78125 18.9375 73 
Q 24.125 74.21875 28.421875 74.21875 
Q 39.75 74.21875 46.484375 68.546875 
Q 53.21875 62.890625 53.21875 53.421875 
Q 53.21875 48.921875 51.53125 44.890625 
Q 49.859375 40.875 45.40625 35.40625 
Q 44.1875 33.984375 37.640625 27.21875 
Q 31.109375 20.453125 19.1875 8.296875 
z
" id="DejaVuSans-50"/>
       <path d="M 31.78125 66.40625 
Q 24.171875 66.40625 20.328125 58.90625 
Q 16.5 51.421875 16.5 36.375 
Q 16.5 21.390625 20.328125 13.890625 
Q 24.171875 6.390625 31.78125 6.390625 
Q 39.453125 6.390625 43.28125 13.890625 
Q 47.125 21.390625 47.125 36.375 
Q 47.125 51.421875 43.28125 58.90625 
Q 39.453125 66.40625 31.78125 66.40625 
z
M 31.78125 74.21875 
Q 44.046875 74.21875 50.515625 64.515625 
Q 56.984375 54.828125 56.984375 36.375 
Q 56.984375 17.96875 50.515625 8.265625 
Q 44.046875 -1.421875 31.78125 -1.421875 
Q 19.53125 -1.421875 13.0625 8.265625 
Q 6.59375 17.96875 6.59375 36.375 
Q 6.59375 54.828125 13.0625 64.515625 
Q 19.53125 74.21875 31.78125 74.21875 
z
" id="DejaVuSans-48"/>
       <path d="M 12.40625 8.296875 
L 28.515625 8.296875 
L 28.515625 63.921875 
L 10.984375 60.40625 
L 10.984375 69.390625 
L 28.421875 72.90625 
L 38.28125 72.90625 
L 38.28125 8.296875 
L 54.390625 8.296875 
L 54.390625 0 
L 12.40625 0 
z
" id="DejaVuSans-49"/>
       <path d="M 10.796875 72.90625 
L 49.515625 72.90625 
L 49.515625 64.59375 
L 19.828125 64.59375 
L 19.828125 46.734375 
Q 21.96875 47.46875 24.109375 47.828125 
Q 26.265625 48.1875 28.421875 48.1875 
Q 40.625 48.1875 47.75 41.5 
Q 54.890625 34.8125 54.890625 23.390625 
Q 54.890625 11.625 47.5625 5.09375 
Q 40.234375 -1.421875 26.90625 -1.421875 
Q 22.3125 -1.421875 17.546875 -0.640625 
Q 12.796875 0.140625 7.71875 1.703125 
L 7.71875 11.625 
Q 12.109375 9.234375 16.796875 8.0625 
Q 21.484375 6.890625 26.703125 6.890625 
Q 35.15625 6.890625 40.078125 11.328125 
Q 45.015625 15.765625 45.015625 23.390625 
Q 45.015625 31 40.078125 35.4375 
Q 35.15625 39.890625 26.703125 39.890625 
Q 22.75 39.890625 18.8125 39.015625 
Q 14.890625 38.140625 10.796875 36.28125 
z
" id="DejaVuSans-53"/>
      </defs>
      <g style="fill:#262626;" transform="translate(149.899963 651.898438)scale(0.1 -0.1)">
       <use xlink:href="#DejaVuSans-50"/>
       <use x="63.623047" xlink:href="#DejaVuSans-48"/>
       <use x="127.246094" xlink:href="#DejaVuSans-49"/>
       <use x="190.869141" xlink:href="#DejaVuSans-53"/>
      </g>
     </g>
    </g>
    <g id="xtick_2">
     <g id="line2d_3">
      <path clip-path="url(#p47603f9eb1)" d="M 245.605698 640.8 
L 245.605698 86.4 
" style="fill:none;stroke:#cccccc;stroke-linecap:round;stroke-width:0.8;"/>
     </g>
     <g id="line2d_4"/>
     <g id="text_2">
      <!-- 2016 -->
      <defs>
       <path d="M 33.015625 40.375 
Q 26.375 40.375 22.484375 35.828125 
Q 18.609375 31.296875 18.609375 23.390625 
Q 18.609375 15.53125 22.484375 10.953125 
Q 26.375 6.390625 33.015625 6.390625 
Q 39.65625 6.390625 43.53125 10.953125 
Q 47.40625 15.53125 47.40625 23.390625 
Q 47.40625 31.296875 43.53125 35.828125 
Q 39.65625 40.375 33.015625 40.375 
z
M 52.59375 71.296875 
L 52.59375 62.3125 
Q 48.875 64.0625 45.09375 64.984375 
Q 41.3125 65.921875 37.59375 65.921875 
Q 27.828125 65.921875 22.671875 59.328125 
Q 17.53125 52.734375 16.796875 39.40625 
Q 19.671875 43.65625 24.015625 45.921875 
Q 28.375 48.1875 33.59375 48.1875 
Q 44.578125 48.1875 50.953125 41.515625 
Q 57.328125 34.859375 57.328125 23.390625 
Q 57.328125 12.15625 50.6875 5.359375 
Q 44.046875 -1.421875 33.015625 -1.421875 
Q 20.359375 -1.421875 13.671875 8.265625 
Q 6.984375 17.96875 6.984375 36.375 
Q 6.984375 53.65625 15.1875 63.9375 
Q 23.390625 74.21875 37.203125 74.21875 
Q 40.921875 74.21875 44.703125 73.484375 
Q 48.484375 72.75 52.59375 71.296875 
z
" id="DejaVuSans-54"/>
      </defs>
      <g style="fill:#262626;" transform="translate(232.880698 651.898438)scale(0.1 -0.1)">
       <use xlink:href="#DejaVuSans-50"/>
       <use x="63.623047" xlink:href="#DejaVuSans-48"/>
       <use x="127.246094" xlink:href="#DejaVuSans-49"/>
       <use x="190.869141" xlink:href="#DejaVuSans-54"/>
      </g>
     </g>
    </g>
    <g id="xtick_3">
     <g id="line2d_5">
      <path clip-path="url(#p47603f9eb1)" d="M 328.813778 640.8 
L 328.813778 86.4 
" style="fill:none;stroke:#cccccc;stroke-linecap:round;stroke-width:0.8;"/>
     </g>
     <g id="line2d_6"/>
     <g id="text_3">
      <!-- 2017 -->
      <defs>
       <path d="M 8.203125 72.90625 
L 55.078125 72.90625 
L 55.078125 68.703125 
L 28.609375 0 
L 18.3125 0 
L 43.21875 64.59375 
L 8.203125 64.59375 
z
" id="DejaVuSans-55"/>
      </defs>
      <g style="fill:#262626;" transform="translate(316.088778 651.898438)scale(0.1 -0.1)">
       <use xlink:href="#DejaVuSans-50"/>
       <use x="63.623047" xlink:href="#DejaVuSans-48"/>
       <use x="127.246094" xlink:href="#DejaVuSans-49"/>
       <use x="190.869141" xlink:href="#DejaVuSans-55"/>
      </g>
     </g>
    </g>
    <g id="xtick_4">
     <g id="line2d_7">
      <path clip-path="url(#p47603f9eb1)" d="M 411.794514 640.8 
L 411.794514 86.4 
" style="fill:none;stroke:#cccccc;stroke-linecap:round;stroke-width:0.8;"/>
     </g>
     <g id="line2d_8"/>
     <g id="text_4">
      <!-- 2018 -->
      <defs>
       <path d="M 31.78125 34.625 
Q 24.75 34.625 20.71875 30.859375 
Q 16.703125 27.09375 16.703125 20.515625 
Q 16.703125 13.921875 20.71875 10.15625 
Q 24.75 6.390625 31.78125 6.390625 
Q 38.8125 6.390625 42.859375 10.171875 
Q 46.921875 13.96875 46.921875 20.515625 
Q 46.921875 27.09375 42.890625 30.859375 
Q 38.875 34.625 31.78125 34.625 
z
M 21.921875 38.8125 
Q 15.578125 40.375 12.03125 44.71875 
Q 8.5 49.078125 8.5 55.328125 
Q 8.5 64.0625 14.71875 69.140625 
Q 20.953125 74.21875 31.78125 74.21875 
Q 42.671875 74.21875 48.875 69.140625 
Q 55.078125 64.0625 55.078125 55.328125 
Q 55.078125 49.078125 51.53125 44.71875 
Q 48 40.375 41.703125 38.8125 
Q 48.828125 37.15625 52.796875 32.3125 
Q 56.78125 27.484375 56.78125 20.515625 
Q 56.78125 9.90625 50.3125 4.234375 
Q 43.84375 -1.421875 31.78125 -1.421875 
Q 19.734375 -1.421875 13.25 4.234375 
Q 6.78125 9.90625 6.78125 20.515625 
Q 6.78125 27.484375 10.78125 32.3125 
Q 14.796875 37.15625 21.921875 38.8125 
z
M 18.3125 54.390625 
Q 18.3125 48.734375 21.84375 45.5625 
Q 25.390625 42.390625 31.78125 42.390625 
Q 38.140625 42.390625 41.71875 45.5625 
Q 45.3125 48.734375 45.3125 54.390625 
Q 45.3125 60.0625 41.71875 63.234375 
Q 38.140625 66.40625 31.78125 66.40625 
Q 25.390625 66.40625 21.84375 63.234375 
Q 18.3125 60.0625 18.3125 54.390625 
z
" id="DejaVuSans-56"/>
      </defs>
      <g style="fill:#262626;" transform="translate(399.069514 651.898438)scale(0.1 -0.1)">
       <use xlink:href="#DejaVuSans-50"/>
       <use x="63.623047" xlink:href="#DejaVuSans-48"/>
       <use x="127.246094" xlink:href="#DejaVuSans-49"/>
       <use x="190.869141" xlink:href="#DejaVuSans-56"/>
      </g>
     </g>
    </g>
    <g id="xtick_5">
     <g id="line2d_9">
      <path clip-path="url(#p47603f9eb1)" d="M 494.77525 640.8 
L 494.77525 86.4 
" style="fill:none;stroke:#cccccc;stroke-linecap:round;stroke-width:0.8;"/>
     </g>
     <g id="line2d_10"/>
     <g id="text_5">
      <!-- 2019 -->
      <defs>
       <path d="M 10.984375 1.515625 
L 10.984375 10.5 
Q 14.703125 8.734375 18.5 7.8125 
Q 22.3125 6.890625 25.984375 6.890625 
Q 35.75 6.890625 40.890625 13.453125 
Q 46.046875 20.015625 46.78125 33.40625 
Q 43.953125 29.203125 39.59375 26.953125 
Q 35.25 24.703125 29.984375 24.703125 
Q 19.046875 24.703125 12.671875 31.3125 
Q 6.296875 37.9375 6.296875 49.421875 
Q 6.296875 60.640625 12.9375 67.421875 
Q 19.578125 74.21875 30.609375 74.21875 
Q 43.265625 74.21875 49.921875 64.515625 
Q 56.59375 54.828125 56.59375 36.375 
Q 56.59375 19.140625 48.40625 8.859375 
Q 40.234375 -1.421875 26.421875 -1.421875 
Q 22.703125 -1.421875 18.890625 -0.6875 
Q 15.09375 0.046875 10.984375 1.515625 
z
M 30.609375 32.421875 
Q 37.25 32.421875 41.125 36.953125 
Q 45.015625 41.5 45.015625 49.421875 
Q 45.015625 57.28125 41.125 61.84375 
Q 37.25 66.40625 30.609375 66.40625 
Q 23.96875 66.40625 20.09375 61.84375 
Q 16.21875 57.28125 16.21875 49.421875 
Q 16.21875 41.5 20.09375 36.953125 
Q 23.96875 32.421875 30.609375 32.421875 
z
" id="DejaVuSans-57"/>
      </defs>
      <g style="fill:#262626;" transform="translate(482.05025 651.898438)scale(0.1 -0.1)">
       <use xlink:href="#DejaVuSans-50"/>
       <use x="63.623047" xlink:href="#DejaVuSans-48"/>
       <use x="127.246094" xlink:href="#DejaVuSans-49"/>
       <use x="190.869141" xlink:href="#DejaVuSans-57"/>
      </g>
     </g>
    </g>
    <g id="xtick_6">
     <g id="line2d_11">
      <path clip-path="url(#p47603f9eb1)" d="M 577.755985 640.8 
L 577.755985 86.4 
" style="fill:none;stroke:#cccccc;stroke-linecap:round;stroke-width:0.8;"/>
     </g>
     <g id="line2d_12"/>
     <g id="text_6">
      <!-- 2020 -->
      <g style="fill:#262626;" transform="translate(565.030985 651.898438)scale(0.1 -0.1)">
       <use xlink:href="#DejaVuSans-50"/>
       <use x="63.623047" xlink:href="#DejaVuSans-48"/>
       <use x="127.246094" xlink:href="#DejaVuSans-50"/>
       <use x="190.869141" xlink:href="#DejaVuSans-48"/>
      </g>
     </g>
    </g>
   </g>
   <g id="matplotlib.axis_2">
    <g id="ytick_1">
     <g id="line2d_13">
      <path clip-path="url(#p47603f9eb1)" d="M 90 615.608945 
L 648 615.608945 
" style="fill:none;stroke:#cccccc;stroke-linecap:round;stroke-width:0.8;"/>
     </g>
     <g id="line2d_14"/>
     <g id="text_7">
      <!-- 0 -->
      <g style="fill:#262626;" transform="translate(80.1375 619.408164)scale(0.1 -0.1)">
       <use xlink:href="#DejaVuSans-48"/>
      </g>
     </g>
    </g>
    <g id="ytick_2">
     <g id="line2d_15">
      <path clip-path="url(#p47603f9eb1)" d="M 90 526.156839 
L 648 526.156839 
" style="fill:none;stroke:#cccccc;stroke-linecap:round;stroke-width:0.8;"/>
     </g>
     <g id="line2d_16"/>
     <g id="text_8">
      <!-- 10000 -->
      <g style="fill:#262626;" transform="translate(54.6875 529.956058)scale(0.1 -0.1)">
       <use xlink:href="#DejaVuSans-49"/>
       <use x="63.623047" xlink:href="#DejaVuSans-48"/>
       <use x="127.246094" xlink:href="#DejaVuSans-48"/>
       <use x="190.869141" xlink:href="#DejaVuSans-48"/>
       <use x="254.492188" xlink:href="#DejaVuSans-48"/>
      </g>
     </g>
    </g>
    <g id="ytick_3">
     <g id="line2d_17">
      <path clip-path="url(#p47603f9eb1)" d="M 90 436.704734 
L 648 436.704734 
" style="fill:none;stroke:#cccccc;stroke-linecap:round;stroke-width:0.8;"/>
     </g>
     <g id="line2d_18"/>
     <g id="text_9">
      <!-- 20000 -->
      <g style="fill:#262626;" transform="translate(54.6875 440.503952)scale(0.1 -0.1)">
       <use xlink:href="#DejaVuSans-50"/>
       <use x="63.623047" xlink:href="#DejaVuSans-48"/>
       <use x="127.246094" xlink:href="#DejaVuSans-48"/>
       <use x="190.869141" xlink:href="#DejaVuSans-48"/>
       <use x="254.492188" xlink:href="#DejaVuSans-48"/>
      </g>
     </g>
    </g>
    <g id="ytick_4">
     <g id="line2d_19">
      <path clip-path="url(#p47603f9eb1)" d="M 90 347.252628 
L 648 347.252628 
" style="fill:none;stroke:#cccccc;stroke-linecap:round;stroke-width:0.8;"/>
     </g>
     <g id="line2d_20"/>
     <g id="text_10">
      <!-- 30000 -->
      <defs>
       <path d="M 40.578125 39.3125 
Q 47.65625 37.796875 51.625 33 
Q 55.609375 28.21875 55.609375 21.1875 
Q 55.609375 10.40625 48.1875 4.484375 
Q 40.765625 -1.421875 27.09375 -1.421875 
Q 22.515625 -1.421875 17.65625 -0.515625 
Q 12.796875 0.390625 7.625 2.203125 
L 7.625 11.71875 
Q 11.71875 9.328125 16.59375 8.109375 
Q 21.484375 6.890625 26.8125 6.890625 
Q 36.078125 6.890625 40.9375 10.546875 
Q 45.796875 14.203125 45.796875 21.1875 
Q 45.796875 27.640625 41.28125 31.265625 
Q 36.765625 34.90625 28.71875 34.90625 
L 20.21875 34.90625 
L 20.21875 43.015625 
L 29.109375 43.015625 
Q 36.375 43.015625 40.234375 45.921875 
Q 44.09375 48.828125 44.09375 54.296875 
Q 44.09375 59.90625 40.109375 62.90625 
Q 36.140625 65.921875 28.71875 65.921875 
Q 24.65625 65.921875 20.015625 65.03125 
Q 15.375 64.15625 9.8125 62.3125 
L 9.8125 71.09375 
Q 15.4375 72.65625 20.34375 73.4375 
Q 25.25 74.21875 29.59375 74.21875 
Q 40.828125 74.21875 47.359375 69.109375 
Q 53.90625 64.015625 53.90625 55.328125 
Q 53.90625 49.265625 50.4375 45.09375 
Q 46.96875 40.921875 40.578125 39.3125 
z
" id="DejaVuSans-51"/>
      </defs>
      <g style="fill:#262626;" transform="translate(54.6875 351.051846)scale(0.1 -0.1)">
       <use xlink:href="#DejaVuSans-51"/>
       <use x="63.623047" xlink:href="#DejaVuSans-48"/>
       <use x="127.246094" xlink:href="#DejaVuSans-48"/>
       <use x="190.869141" xlink:href="#DejaVuSans-48"/>
       <use x="254.492188" xlink:href="#DejaVuSans-48"/>
      </g>
     </g>
    </g>
    <g id="ytick_5">
     <g id="line2d_21">
      <path clip-path="url(#p47603f9eb1)" d="M 90 257.800522 
L 648 257.800522 
" style="fill:none;stroke:#cccccc;stroke-linecap:round;stroke-width:0.8;"/>
     </g>
     <g id="line2d_22"/>
     <g id="text_11">
      <!-- 40000 -->
      <defs>
       <path d="M 37.796875 64.3125 
L 12.890625 25.390625 
L 37.796875 25.390625 
z
M 35.203125 72.90625 
L 47.609375 72.90625 
L 47.609375 25.390625 
L 58.015625 25.390625 
L 58.015625 17.1875 
L 47.609375 17.1875 
L 47.609375 0 
L 37.796875 0 
L 37.796875 17.1875 
L 4.890625 17.1875 
L 4.890625 26.703125 
z
" id="DejaVuSans-52"/>
      </defs>
      <g style="fill:#262626;" transform="translate(54.6875 261.599741)scale(0.1 -0.1)">
       <use xlink:href="#DejaVuSans-52"/>
       <use x="63.623047" xlink:href="#DejaVuSans-48"/>
       <use x="127.246094" xlink:href="#DejaVuSans-48"/>
       <use x="190.869141" xlink:href="#DejaVuSans-48"/>
       <use x="254.492188" xlink:href="#DejaVuSans-48"/>
      </g>
     </g>
    </g>
    <g id="ytick_6">
     <g id="line2d_23">
      <path clip-path="url(#p47603f9eb1)" d="M 90 168.348416 
L 648 168.348416 
" style="fill:none;stroke:#cccccc;stroke-linecap:round;stroke-width:0.8;"/>
     </g>
     <g id="line2d_24"/>
     <g id="text_12">
      <!-- 50000 -->
      <g style="fill:#262626;" transform="translate(54.6875 172.147635)scale(0.1 -0.1)">
       <use xlink:href="#DejaVuSans-53"/>
       <use x="63.623047" xlink:href="#DejaVuSans-48"/>
       <use x="127.246094" xlink:href="#DejaVuSans-48"/>
       <use x="190.869141" xlink:href="#DejaVuSans-48"/>
       <use x="254.492188" xlink:href="#DejaVuSans-48"/>
      </g>
     </g>
    </g>
   </g>
   <g id="line2d_25">
    <path clip-path="url(#p47603f9eb1)" d="M 115.363636 615.6 
L 116.481369 615.215356 
L 116.516636 615.197466 
L 116.702566 615.081178 
L 116.933937 614.911219 
L 117.776306 614.750205 
L 118.11442 614.589191 
L 118.455369 614.446068 
L 118.470175 614.428177 
L 119.240465 614.285054 
L 119.401803 614.195602 
L 119.616323 614.079314 
L 119.909031 613.963026 
L 120.038955 613.945136 
L 120.365975 613.837794 
L 120.965273 613.712561 
L 121.070875 613.560492 
L 122.797475 613.301081 
L 122.898896 613.229519 
L 123.273348 613.086396 
L 123.346964 613.032725 
L 123.967336 612.880656 
L 124.217307 612.710697 
L 124.845462 612.442341 
L 124.907576 612.352889 
L 125.584092 612.209765 
L 125.588499 612.18293 
L 125.954371 612.057697 
L 126.032444 612.012971 
L 126.302334 611.896683 
L 126.44133 611.843012 
L 127.100437 611.699888 
L 127.54638 611.395751 
L 127.997224 611.172121 
L 128.073435 611.109504 
L 128.700911 610.993217 
L 128.809997 610.876929 
L 128.935673 610.760641 
L 128.985689 610.715915 
L 129.438831 610.581737 
L 130.547637 610.304435 
L 130.581558 610.268654 
L 131.000242 610.134476 
L 131.031626 610.07186 
L 131.874927 609.910846 
L 131.949269 609.776668 
L 132.358718 609.64249 
L 132.436607 609.561983 
L 133.564912 609.356243 
L 133.573953 609.338353 
L 133.714286 609.222065 
L 133.810147 609.123668 
L 134.013849 608.998435 
L 134.371043 608.78375 
L 134.415917 608.730078 
L 135.337446 608.613791 
L 135.953984 608.381215 
L 136.075221 608.291763 
L 136.715077 608.139694 
L 137.125445 607.907119 
L 137.204544 607.835557 
L 137.558878 607.701379 
L 140.290285 607.012598 
L 140.388998 606.923146 
L 140.755507 606.788968 
L 140.805307 606.717406 
L 141.629215 606.583228 
L 141.701726 606.529556 
L 142.10331 606.395378 
L 142.42274 606.144912 
L 143.081297 606.001789 
L 143.305668 605.760268 
L 143.530883 605.643981 
L 143.587556 605.617145 
L 143.736075 605.491912 
L 143.795453 605.429296 
L 143.963951 605.304063 
L 144.131383 605.286172 
L 144.679076 605.160939 
L 145.314798 604.794186 
L 145.428794 604.695788 
L 145.557186 604.570555 
L 145.636875 604.472158 
L 146.236696 604.35587 
L 146.253439 604.320089 
L 146.462269 604.203802 
L 146.524916 604.13224 
L 146.899137 603.980171 
L 146.928331 603.935445 
L 147.84239 603.774432 
L 147.910933 603.693925 
L 148.235759 603.559747 
L 148.301028 603.443459 
L 148.574826 603.318226 
L 148.685112 603.2735 
L 148.994113 603.192993 
L 149.721274 602.879911 
L 150.137217 602.584719 
L 150.982472 602.423705 
L 151.087935 602.22691 
L 151.259701 602.101677 
L 151.325421 602.030116 
L 151.524986 601.904883 
L 151.888401 601.708088 
L 151.989237 601.547074 
L 152.564064 601.412896 
L 152.668258 601.287663 
L 152.867382 601.153485 
L 153.27386 601.019307 
L 153.543313 600.786731 
L 154.166995 600.670444 
L 154.37562 600.545211 
L 154.873928 600.30369 
L 155.752254 600.187402 
L 155.860467 600.089005 
L 156.049934 599.963772 
L 156.189377 599.883265 
L 156.709346 599.614909 
L 156.778436 599.597018 
L 157.404478 599.480731 
L 157.406899 599.46284 
L 157.616913 599.346552 
L 157.64159 599.292881 
L 157.861022 599.167648 
L 157.861193 599.158703 
L 158.051983 599.042415 
L 158.121052 598.952963 
L 158.31239 598.82773 
L 158.365303 598.800895 
L 158.958896 598.684607 
L 159.010985 598.559374 
L 159.206693 598.434141 
L 159.230257 598.371524 
L 159.586127 598.237346 
L 159.72762 598.049497 
L 159.8924 597.933209 
L 159.916234 597.861647 
L 160.578804 597.74536 
L 160.619537 597.700634 
L 162.396007 597.468058 
L 162.414003 597.450168 
L 163.746855 597.324935 
L 163.815155 597.235483 
L 163.964805 597.119195 
L 164.059248 597.056578 
L 164.17131 596.940291 
L 164.276478 596.707715 
L 164.417984 596.582482 
L 164.48373 596.501975 
L 164.656543 596.385688 
L 164.684453 596.323071 
L 165.332759 596.206783 
L 165.370163 596.072605 
L 165.592631 595.956318 
L 165.650799 595.938427 
L 165.786298 595.813194 
L 165.873873 595.6164 
L 166.013726 595.500112 
L 166.057411 595.339098 
L 166.24096 595.22281 
L 166.277517 595.178084 
L 167.149357 595.061796 
L 167.33083 594.847111 
L 167.609819 594.516139 
L 167.672047 594.417741 
L 167.838961 594.301454 
L 167.933385 594.212001 
L 168.597518 594.086769 
L 168.731467 593.970481 
L 169.270818 593.362206 
L 169.38183 593.245919 
L 169.456951 593.129631 
L 170.079422 593.004398 
L 170.155561 592.807603 
L 170.319944 592.691316 
L 170.481674 592.530302 
L 170.580682 592.387179 
L 170.641276 592.324562 
L 170.753562 592.208274 
L 171.051841 591.743123 
L 171.70549 591.626836 
L 171.732332 591.591055 
L 171.90884 591.474767 
L 171.958992 591.39426 
L 172.145086 591.277972 
L 172.21876 591.125904 
L 172.346465 591.009616 
L 172.705722 590.642862 
L 173.478056 590.526575 
L 173.583169 590.204547 
L 173.75178 590.079314 
L 173.828588 589.971972 
L 173.950788 589.846739 
L 174.073899 589.623108 
L 174.158848 589.48893 
L 174.230001 589.211629 
L 174.844375 589.095341 
L 174.910774 588.83593 
L 175.221112 588.710697 
L 175.540047 588.540738 
L 175.650543 588.334998 
L 175.771549 588.21871 
L 175.819565 588.173984 
L 176.444633 588.030861 
L 176.545025 587.887738 
L 176.681464 587.762505 
L 176.959337 587.351025 
L 177.000909 587.306299 
L 177.136613 587.190011 
L 177.588797 586.698025 
L 178.033611 586.581737 
L 178.115192 586.402833 
L 178.247141 586.286545 
L 178.360105 586.009243 
L 178.478114 585.892956 
L 178.56636 585.588818 
L 178.705006 585.43675 
L 178.853706 585.186284 
L 178.944444 585.061051 
L 178.996967 584.837421 
L 179.605916 584.721133 
L 179.676896 584.416996 
L 179.824177 584.300708 
L 180.194299 583.844502 
L 180.304027 583.719269 
L 180.620965 583.254119 
L 181.23746 583.11994 
L 181.307955 583.012598 
L 181.415418 582.89631 
L 181.520038 582.565337 
L 181.660679 582.440104 
L 182.020215 581.670816 
L 182.109734 581.491912 
L 182.191523 581.286172 
L 182.789357 581.134104 
L 182.888386 580.901528 
L 183.004085 580.776295 
L 183.085587 580.507939 
L 183.275219 580.373761 
L 183.633708 579.595527 
L 183.746825 579.452404 
L 183.778774 579.371897 
L 184.396933 579.228774 
L 185.521991 577.81543 
L 185.976558 577.672307 
L 186.050161 577.430786 
L 186.200906 577.314499 
L 186.276701 577.081923 
L 186.435665 576.947745 
L 186.631208 576.724115 
L 186.707887 576.545211 
L 186.856553 576.402087 
L 187.125627 576.106895 
L 187.57935 575.963772 
L 187.701693 575.570183 
L 187.822048 575.436004 
L 187.8815 575.2571 
L 188.014475 575.140813 
L 188.099953 574.791949 
L 188.270672 574.648826 
L 188.592109 574.138949 
L 189.157374 574.022661 
L 189.405821 573.477003 
L 189.613426 573.226537 
L 189.7096 573.074469 
L 189.842344 572.931346 
L 190.013686 572.600373 
L 190.083497 572.47514 
L 190.14133 572.305181 
L 190.713275 572.179948 
L 190.816262 571.813194 
L 191.024714 571.518002 
L 191.180587 571.312262 
L 191.867004 570.560865 
L 191.881042 570.551919 
L 192.293341 570.435632 
L 192.406337 570.059933 
L 192.477929 569.970481 
L 192.559002 569.845248 
L 192.707402 569.630563 
L 193.081934 568.932836 
L 193.358029 568.503466 
L 193.918906 568.360343 
L 194.015909 567.814685 
L 194.178847 567.626836 
L 194.219083 567.58211 
L 194.606518 567.447931 
L 194.671477 567.072233 
L 194.864909 566.938054 
L 194.954355 566.732315 
L 195.750003 566.589191 
L 195.861944 566.293999 
L 195.98231 566.168766 
L 196.031873 566.034588 
L 196.12835 565.9183 
L 196.251861 565.748341 
L 196.381284 565.310026 
L 196.463662 565.184793 
L 196.530829 564.987999 
L 197.119406 564.83593 
L 197.202416 564.621245 
L 197.348985 564.496012 
L 197.426603 564.290272 
L 197.539222 564.129258 
L 197.782181 563.726724 
L 197.852505 563.529929 
L 197.912383 563.422587 
L 198.034939 563.306299 
L 198.075692 563.109504 
L 198.721422 562.966381 
L 198.814949 562.805367 
L 198.940072 562.689079 
L 199.047458 562.447559 
L 199.18863 562.322326 
L 199.301558 562.116586 
L 199.396945 561.991353 
L 199.524382 561.651435 
L 199.657642 561.445695 
L 199.724919 561.266791 
L 200.301111 561.123668 
L 200.388325 560.980544 
L 200.492959 560.900037 
L 200.571187 560.756914 
L 200.610328 560.569064 
L 200.783315 560.452777 
L 200.885304 560.247037 
L 201.013159 560.077078 
L 201.302716 559.272009 
L 201.899598 559.137831 
L 202.924432 558.064406 
L 203.490391 557.948118 
L 203.585115 557.715542 
L 203.7466 557.545583 
L 203.834704 557.357734 
L 203.954376 557.205665 
L 204.026321 556.99098 
L 205.087791 556.677898 
L 205.1543 556.418487 
L 205.306844 556.284309 
L 205.419214 556.033843 
L 205.55847 555.881774 
L 205.670264 555.488185 
L 205.859638 555.219829 
L 205.96638 555.139322 
L 206.069774 554.817294 
L 206.134433 554.754678 
L 206.664459 554.602609 
L 206.783699 554.244801 
L 206.912243 554.128513 
L 207.021948 553.77965 
L 207.165488 553.645471 
L 207.271579 553.520239 
L 207.410196 553.395006 
L 207.646927 552.813567 
L 207.863951 552.643608 
L 207.922021 552.402087 
L 208.250987 552.258964 
L 208.505981 551.758032 
L 208.772776 551.641744 
L 209.332375 550.264182 
L 209.819858 550.147894 
L 209.910622 549.942154 
L 209.917837 549.906373 
L 210.297755 549.772195 
L 210.425089 549.369661 
L 210.557575 549.244428 
L 210.663646 549.074469 
L 210.759686 548.940291 
L 210.869816 548.752441 
L 211.445292 548.636154 
L 211.629055 548.385688 
L 211.727068 548.25151 
L 211.830407 548.009989 
L 211.940401 547.884756 
L 212.050802 547.661126 
L 212.290109 547.249646 
L 212.881152 546.990235 
L 212.991485 546.865002 
L 213.107288 546.435632 
L 213.252715 546.274618 
L 214.054331 545.058069 
L 214.564774 544.941782 
L 214.840606 544.628699 
L 214.933325 544.45874 
L 215.085791 544.306672 
L 215.12266 544.163548 
L 215.615069 543.277972 
L 216.217937 543.161685 
L 216.320529 542.955945 
L 216.482301 542.75915 
L 216.592495 542.598136 
L 216.695668 542.446068 
L 216.738124 542.32978 
L 216.95918 542.195602 
L 217.244503 541.766232 
L 217.842482 541.605218 
L 217.945703 541.542602 
L 218.031394 541.408423 
L 218.141342 541.193738 
L 218.36819 540.81804 
L 218.535377 540.692807 
L 218.720503 540.272382 
L 218.922765 540.093477 
L 219.460454 539.968245 
L 219.627297 539.843012 
L 219.761522 539.619381 
L 219.906162 539.431532 
L 220.022708 539.261573 
L 220.34976 538.894819 
L 220.431172 538.760641 
L 220.964529 538.626463 
L 221.112977 538.367052 
L 221.493026 537.857175 
L 221.683419 537.409914 
L 221.945455 536.989489 
L 222.056383 536.828476 
L 222.588548 536.622736 
L 222.725636 536.345434 
L 222.945687 536.18442 
L 223.093084 536.050242 
L 223.199523 535.763996 
L 223.326078 535.495639 
L 223.601452 534.985762 
L 224.269392 534.851584 
L 224.697284 534.207529 
L 224.822731 534.05546 
L 225.334196 533.214611 
L 225.765084 533.071487 
L 225.879299 532.490048 
L 226.126931 532.15013 
L 226.260669 531.962281 
L 226.809464 530.996198 
L 226.919316 530.870965 
L 226.956033 530.799404 
L 227.362982 530.683116 
L 227.409638 530.378979 
L 227.623131 530.074842 
L 228.612127 528.563101 
L 228.947807 528.32158 
L 229.427962 527.641744 
L 229.54316 527.391278 
L 229.63338 527.248155 
L 230.60383 525.995826 
L 230.704064 525.834812 
L 230.813508 525.664853 
L 230.936298 525.35177 
L 231.069544 525.074469 
L 231.179006 524.788222 
L 231.475812 524.06366 
L 231.639105 523.85792 
L 232.231769 523.6164 
L 232.591931 523.187029 
L 232.732556 522.990235 
L 232.832809 522.856057 
L 232.904612 522.686098 
L 233.106993 522.489303 
L 233.272015 522.36407 
L 233.426265 522.310399 
L 233.74767 522.167275 
L 233.85909 522.024152 
L 233.979504 521.872083 
L 234.237298 521.648453 
L 234.340347 521.460604 
L 234.443378 521.31748 
L 234.695202 520.977562 
L 235.054256 520.906001 
L 235.34927 520.771823 
L 235.905751 520.01148 
L 235.988005 519.877302 
L 236.149962 519.662616 
L 236.408572 519.421096 
L 236.913603 519.081178 
L 237.01465 518.955945 
L 237.106751 518.821767 
L 237.243681 518.624972 
L 237.356616 518.472903 
L 237.964021 517.936191 
L 238.495086 517.766232 
L 238.791292 517.310026 
L 239.1366 516.683861 
L 239.252125 516.496012 
L 239.396244 516.352889 
L 239.77734 516.012971 
L 240.099443 515.851957 
L 240.196357 515.744614 
L 240.457806 515.520984 
L 240.546952 515.288408 
L 240.658774 515.028997 
L 240.76411 514.850093 
L 241.157769 514.358107 
L 241.604693 514.232874 
L 241.711221 514.116586 
L 242.176209 513.329407 
L 242.291265 513.114722 
L 242.49257 512.810585 
L 242.599422 512.685352 
L 242.708805 512.506448 
L 243.331729 512.005516 
L 243.508063 511.871338 
L 243.620352 511.75505 
L 243.81757 511.576146 
L 244.57818 511.51353 
L 244.915918 511.388297 
L 245.062208 511.298845 
L 246.028677 511.012598 
L 246.469486 510.860529 
L 246.619162 510.69057 
L 246.823812 510.48483 
L 247.158624 510.323817 
L 247.254514 510.252255 
L 248.07864 509.885501 
L 249.287539 508.713679 
L 249.660784 508.552665 
L 249.794807 508.498994 
L 249.938691 508.364816 
L 250.212331 508.176966 
L 250.371777 507.649199 
L 250.470707 507.568692 
L 250.58566 507.407678 
L 250.665754 507.336116 
L 251.195804 507.175102 
L 251.478177 506.772568 
L 251.742178 506.41476 
L 251.925522 506.262691 
L 252.117599 505.77965 
L 252.254742 505.564965 
L 252.598561 505.153485 
L 252.826745 505.019307 
L 252.946341 504.759896 
L 253.061997 504.572046 
L 253.295354 504.250019 
L 253.519964 503.972717 
L 253.737765 503.525457 
L 254.223782 502.863511 
L 254.409213 502.729333 
L 254.614915 502.255237 
L 254.723246 502.040552 
L 255.161739 501.31599 
L 255.366701 501.181811 
L 255.445777 501.056578 
L 255.623438 500.913455 
L 255.810686 500.725606 
L 256.038478 500.537756 
L 256.303955 500.153112 
L 256.430674 500.027879 
L 258.097482 497.576892 
L 258.215223 497.308535 
L 258.535989 496.87022 
L 258.649416 496.44085 
L 259.369062 495.662616 
L 259.47986 495.37637 
L 259.598753 495.206411 
L 260.167438 493.971972 
L 260.493091 493.48893 
L 260.716946 493.345807 
L 260.807597 493.184793 
L 260.961331 493.005889 
L 261.088323 492.862766 
L 261.298098 492.737533 
L 261.634847 492.397615 
L 261.986002 492.012971 
L 262.412654 491.851957 
L 263.18176 490.832203 
L 263.376019 490.680134 
L 263.52003 490.608572 
L 264.022451 490.393887 
L 264.198635 490.152367 
L 264.418219 489.964517 
L 264.84694 489.570928 
L 265.21668 489.400969 
L 265.43026 489.383079 
L 265.877071 489.21312 
L 265.965851 489.132613 
L 266.230739 488.953709 
L 266.581007 488.569064 
L 267.251345 488.264927 
L 267.33762 488.247037 
L 267.642456 488.068133 
L 267.751182 487.9429 
L 268.374524 487.567201 
L 268.773237 487.441968 
L 269.224397 487.137831 
L 269.32344 487.012598 
L 269.459631 486.815803 
L 269.575184 486.619009 
L 270.838399 485.330898 
L 271.07861 484.999925 
L 271.926744 484.606336 
L 272.047066 484.427432 
L 272.148219 484.042788 
L 272.352192 483.828103 
L 272.455339 483.693925 
L 272.617614 483.550801 
L 273.07224 483.300335 
L 273.553352 483.148267 
L 273.654463 483.076705 
L 273.89223 482.942527 
L 274.002329 482.799404 
L 274.447408 482.146403 
L 274.531373 481.734924 
L 274.899658 481.609691 
L 275.270866 481.189266 
L 275.37976 481.055088 
L 275.631165 480.724115 
L 276.251894 479.963772 
L 276.591487 479.820649 
L 276.696134 479.704361 
L 276.834936 479.534402 
L 276.947637 479.346552 
L 277.302376 479.042415 
L 277.501176 478.863511 
L 277.658138 478.550429 
L 277.764714 478.39836 
L 278.570369 477.584346 
L 278.771532 477.450168 
L 278.942287 477.226537 
L 279.013898 477.074469 
L 279.113961 476.958181 
L 279.199468 476.824003 
L 279.310243 476.537756 
L 279.544166 476.28729 
L 281.27115 474.623481 
L 281.494353 474.489303 
L 281.584351 474.426687 
L 281.803107 474.256728 
L 281.965327 474.059933 
L 282.444466 473.406933 
L 282.555254 473.29959 
L 282.721316 473.201193 
L 282.961509 473.07596 
L 283.091724 472.87022 
L 283.682017 472.270891 
L 283.791848 472.145658 
L 283.904044 471.957808 
L 284.765619 470.98278 
L 286.138124 468.952218 
L 286.452007 468.639135 
L 286.690487 468.245546 
L 287.484896 467.34208 
L 287.985951 467.216847 
L 288.325654 466.984271 
L 288.421252 466.787477 
L 288.522671 466.662244 
L 288.615669 466.465449 
L 288.784835 466.286545 
L 289.170644 466.125531 
L 289.439395 465.982408 
L 290.172902 464.953709 
L 290.281085 464.78375 
L 290.608722 464.461722 
L 291.088495 464.059187 
L 291.285664 463.334625 
L 291.374299 463.10205 
L 291.454933 462.976817 
L 291.713237 462.440104 
L 292.19551 461.760268 
L 292.616053 461.643981 
L 292.990958 461.223556 
L 293.13725 461.089378 
L 293.620018 460.463213 
L 294.27341 460.230637 
L 294.382209 460.024898 
L 294.846797 459.192993 
L 294.95072 458.897801 
L 295.125986 458.620499 
L 295.339229 458.370034 
L 295.766303 458.217965 
L 295.904767 458.030116 
L 296.399699 457.395006 
L 296.475559 457.251882 
L 297.027278 456.518375 
L 297.39582 456.348416 
L 297.835437 455.704361 
L 297.9678 455.409169 
L 298.168826 454.997689 
L 298.338184 454.541483 
L 298.437842 454.291018 
L 298.575938 454.103168 
L 299.101012 453.137085 
L 299.192468 452.931346 
L 299.330285 452.770332 
L 299.465184 452.582482 
L 299.562292 452.448304 
L 300.209803 451.553783 
L 300.584835 451.419605 
L 300.690763 451.267536 
L 301.877006 449.907864 
L 302.153435 449.773686 
L 303.689037 447.206411 
L 303.796731 447.045397 
L 304.003283 446.74126 
L 304.141244 446.410287 
L 304.820147 445.175848 
L 304.983553 445.04167 
L 305.08118 445.005889 
L 305.353093 444.880656 
L 306.405898 443.055833 
L 306.887147 442.903764 
L 307.078801 442.438613 
L 307.182153 442.241819 
L 307.272612 442.08975 
L 307.38379 441.812449 
L 308.32873 440.891092 
L 308.567699 440.765859 
L 308.787505 440.470667 
L 309.145502 439.9429 
L 309.353743 439.647708 
L 309.456179 439.433023 
L 310.437002 438.538502 
L 310.539676 438.305926 
L 310.72729 437.983899 
L 311.263629 437.008871 
L 311.331111 436.937309 
L 311.657895 436.803131 
L 311.804161 436.597391 
L 312.757566 435.139322 
L 313.32248 434.799404 
L 313.399012 434.611554 
L 313.525259 434.486321 
L 313.640481 434.200075 
L 313.747446 434.012225 
L 314.020709 433.430786 
L 314.126072 433.269773 
L 314.747143 432.598882 
L 314.874482 432.473649 
L 314.983426 432.30369 
L 315.163155 432.08006 
L 315.720922 431.05136 
L 315.94502 430.693552 
L 316.172506 430.496757 
L 316.391486 430.112113 
L 316.553303 429.807976 
L 317.514791 428.376742 
L 318.018083 428.233619 
L 318.319228 427.866865 
L 318.424603 427.741633 
L 318.663028 427.42855 
L 318.868391 427.20492 
L 319.099385 426.972344 
L 319.270335 426.891837 
L 319.840075 426.462467 
L 320.225643 426.033097 
L 321.270756 425.836303 
L 321.360455 425.576892 
L 321.458729 425.451659 
L 321.567964 425.29959 
L 321.690891 425.111741 
L 321.799132 424.923891 
L 321.916425 424.566083 
L 322.015807 424.208274 
L 322.1349 424.065151 
L 322.263857 423.626836 
L 322.338862 423.456877 
L 322.432479 423.331644 
L 322.508226 423.233246 
L 322.776792 423.108013 
L 323.050558 422.508684 
L 323.202845 422.186657 
L 323.312752 421.963026 
L 323.466399 421.462095 
L 324.049787 420.343943 
L 324.346201 420.21871 
L 324.470298 419.932464 
L 324.578924 419.717779 
L 324.697424 419.485203 
L 324.804963 419.261573 
L 324.949079 419.011107 
L 325.080952 418.885874 
L 325.195314 418.644353 
L 325.326129 418.50123 
L 325.49293 418.241819 
L 326.005326 418.08975 
L 326.167164 417.84823 
L 326.946314 416.846366 
L 327.797637 416.712188 
L 327.980652 416.506448 
L 328.401747 416.238092 
L 329.174227 416.094968 
L 330.232002 414.869474 
L 330.859828 414.619009 
L 330.91157 414.592173 
L 331.048429 414.46694 
L 331.158018 413.939173 
L 331.461852 413.411405 
L 331.755613 413.017816 
L 331.865167 412.821021 
L 332.400403 412.597391 
L 332.496243 412.472158 
L 332.591319 412.320089 
L 332.702253 412.105404 
L 332.883439 411.854939 
L 333.337215 411.148267 
L 333.43382 411.005143 
L 333.914683 410.86202 
L 334.020606 410.620499 
L 334.203729 410.405814 
L 334.301329 410.056951 
L 334.47169 409.824376 
L 334.558944 409.609691 
L 334.686688 409.484458 
L 335.378218 408.822512 
L 335.549326 408.688334 
L 335.792714 408.169512 
L 335.892822 407.945881 
L 335.996545 407.731196 
L 336.090819 407.552292 
L 336.196332 407.274991 
L 336.364272 406.926127 
L 336.469977 406.82773 
L 336.796582 406.559374 
L 337.125237 406.425196 
L 337.233594 406.219456 
L 337.325952 406.094223 
L 337.410828 405.960045 
L 337.520237 405.781141 
L 337.621682 405.602236 
L 337.984088 405.083414 
L 338.086246 404.877674 
L 338.142261 404.734551 
L 338.208654 404.662989 
L 338.759659 404.49303 
L 338.884365 404.215729 
L 338.984888 404.036824 
L 339.039593 403.893701 
L 339.115093 403.750578 
L 339.168403 403.625345 
L 339.276076 403.374879 
L 339.509257 402.936564 
L 339.618101 402.730824 
L 340.506978 401.95259 
L 340.586993 401.764741 
L 340.769779 401.603727 
L 340.920903 401.2817 
L 341.029939 401.013343 
L 341.137351 400.852329 
L 341.243308 400.709206 
L 341.45402 400.476631 
L 341.513383 400.449795 
L 341.689435 400.324562 
L 341.753918 400.100932 
L 341.862425 399.787849 
L 342.251271 399.108013 
L 342.308586 398.955945 
L 342.412527 398.696534 
L 342.493593 398.508684 
L 342.603336 398.258218 
L 342.860935 397.989862 
L 342.965467 397.819903 
L 344.0731 396.85382 
L 344.176194 396.728587 
L 344.290677 396.549683 
L 344.745208 396.18293 
L 345.10141 396.057697 
L 345.332459 395.869847 
L 345.439898 395.574655 
L 346.112085 394.814312 
L 346.786401 394.644353 
L 347.005617 394.50123 
L 347.385585 394.206038 
L 347.657538 393.651435 
L 347.734285 393.472531 
L 347.890745 393.356243 
L 348.112924 393.02527 
L 348.336827 392.676407 
L 348.517353 392.533284 
L 349.407825 391.585091 
L 349.945479 391.361461 
L 350.405951 390.699515 
L 350.630767 390.314871 
L 351.153486 389.787104 
L 351.458633 389.643981 
L 351.714653 389.259337 
L 352.289945 388.445322 
L 352.3969 388.293254 
L 352.663735 388.159076 
L 353.106872 388.024898 
L 353.590887 387.371897 
L 353.946429 387.023034 
L 354.051218 386.790458 
L 354.231838 386.745732 
L 354.588529 386.593664 
L 354.950789 385.79754 
L 355.219558 385.529184 
L 355.314608 385.430786 
L 355.379457 385.278718 
L 355.481514 385.064033 
L 355.60518 384.849348 
L 355.701075 384.679389 
L 356.261937 384.473649 
L 356.367771 384.241073 
L 356.512543 384.089005 
L 356.785214 383.722251 
L 356.939124 383.453895 
L 357.083201 383.23921 
L 357.295236 382.935073 
L 357.869184 382.783004 
L 357.920768 382.6041 
L 358.025686 382.496757 
L 358.411932 381.977935 
L 358.514524 381.790086 
L 358.685693 381.584346 
L 358.794992 381.271264 
L 359.062087 381.12814 
L 359.418429 381.002907 
L 359.529733 380.636154 
L 359.658743 380.430414 
L 359.800154 379.983153 
L 359.975904 379.759523 
L 360.046134 379.598509 
L 360.194534 379.464331 
L 360.466689 379.043906 
L 360.567326 378.927618 
L 361.085327 378.551919 
L 361.196989 378.247782 
L 361.312832 378.095714 
L 361.411429 377.943645 
L 361.619426 377.71107 
L 361.729177 377.460604 
L 361.827025 377.308535 
L 362.03259 376.780768 
L 362.0408 376.709206 
L 362.552107 376.557138 
L 362.762282 376.378233 
L 362.867958 376.002534 
L 362.983982 375.734178 
L 363.080477 375.6 
L 363.132311 375.474767 
L 363.244184 375.269027 
L 363.782619 374.419232 
L 363.888574 374.249273 
L 364.183435 374.097205 
L 364.286932 373.909355 
L 364.396776 373.640999 
L 364.488137 373.533656 
L 364.644105 373.381588 
L 365.295431 372.576519 
L 365.791915 372.415505 
L 365.935669 372.20082 
L 366.262679 371.807231 
L 366.327843 371.655162 
L 366.399594 371.476258 
L 366.570962 371.34208 
L 366.648317 371.198956 
L 366.790697 371.055833 
L 366.832309 370.939545 
L 367.46441 370.760641 
L 367.8839 370.331271 
L 367.966539 370.152367 
L 368.120912 370.009243 
L 368.239008 369.740887 
L 368.340902 369.445695 
L 368.487874 369.177339 
L 368.554193 369.087887 
L 368.986245 368.953709 
L 369.03946 368.78375 
L 369.130811 368.497503 
L 369.253961 368.327544 
L 369.35929 368.121804 
L 369.990668 367.146776 
L 370.0115 367.066269 
L 370.585469 366.932091 
L 370.60814 366.887365 
L 370.956666 366.753187 
L 371.218723 366.386433 
L 371.525735 366.189638 
L 371.619849 366.05546 
L 371.723115 365.912337 
L 371.788889 365.796049 
L 372.444365 365.617145 
L 372.577043 365.250391 
L 372.681822 364.829966 
L 372.936024 364.525829 
L 373.029711 364.320089 
L 373.106627 364.176966 
L 373.179014 364.042788 
L 373.618028 363.845993 
L 373.772254 363.676034 
L 373.852885 363.506075 
L 373.959519 363.228774 
L 374.09392 362.960417 
L 374.20439 362.629445 
L 374.302327 362.41476 
L 374.435505 362.173239 
L 375.071567 361.493403 
L 375.37699 361.36817 
L 375.443178 361.189266 
L 375.554211 360.965635 
L 375.624396 360.768841 
L 375.739047 360.607827 
L 376.216391 360.017443 
L 376.336295 359.758032 
L 376.447012 359.704361 
L 376.922707 359.570183 
L 377.265476 359.113977 
L 377.357945 358.917182 
L 377.450756 358.765114 
L 377.561145 358.469922 
L 377.76246 358.112113 
L 377.869312 358.013716 
L 378.018531 357.807976 
L 378.106629 357.682743 
L 378.479861 357.441223 
L 378.584963 357.190757 
L 379.113497 356.582482 
L 379.217328 356.188893 
L 379.361 355.974208 
L 379.473075 355.875811 
L 379.852166 355.464331 
L 380.114218 355.339098 
L 380.220322 355.178084 
L 380.325451 354.990235 
L 380.701045 354.328289 
L 381.179556 353.666344 
L 381.761347 353.50533 
L 381.864841 353.29959 
L 381.958105 353.165412 
L 382.10319 352.914946 
L 382.192512 352.709206 
L 382.297167 352.557138 
L 382.505069 352.118822 
L 382.573046 351.877302 
L 382.666254 351.555274 
L 382.77513 351.39426 
L 383.089873 351.045397 
L 383.278792 350.920164 
L 383.389707 350.848602 
L 383.46521 350.723369 
L 383.551727 350.472903 
L 383.656453 350.338725 
L 384.032271 349.712561 
L 384.088289 349.587328 
L 384.126585 349.399478 
L 384.233689 349.157958 
L 384.730161 348.263436 
L 384.841246 348.156094 
L 385.161836 347.825121 
L 385.289178 347.556765 
L 385.410934 347.404696 
L 386.014502 346.742751 
L 386.573977 346.617518 
L 386.708668 346.429668 
L 386.811897 346.223928 
L 386.900019 346.062915 
L 387.326574 345.597764 
L 387.395904 345.490421 
L 387.664665 345.329407 
L 387.739052 345.311517 
L 388.317125 345.186284 
L 388.525932 344.837421 
L 388.582158 344.667462 
L 388.686407 344.515393 
L 388.842767 344.39016 
L 389.041007 344.300708 
L 389.122572 344.139694 
L 389.225348 343.781886 
L 389.272727 343.594037 
L 389.372385 343.263064 
L 389.679668 342.958927 
L 389.761068 342.726351 
L 389.958618 342.601118 
L 390.088228 342.44905 
L 390.198198 342.207529 
L 390.35977 342.05546 
L 390.706239 341.527693 
L 390.826816 341.456131 
L 390.89589 341.42035 
L 391.240999 341.295117 
L 391.752403 340.552665 
L 391.85931 340.445322 
L 392.305826 339.801267 
L 392.761189 339.667089 
L 393.072014 339.148267 
L 393.179758 338.960417 
L 393.37961 338.566828 
L 393.473622 338.441595 
L 393.595182 338.298472 
L 393.690501 338.074842 
L 393.794035 337.913828 
L 393.91136 337.725978 
L 394.422835 337.484458 
L 395.105023 336.32158 
L 395.19208 336.151621 
L 395.313049 335.954827 
L 395.460275 335.766977 
L 395.5513 335.66858 
L 395.946385 335.516511 
L 396.055713 335.364443 
L 396.572727 334.389415 
L 396.877981 333.736414 
L 397.466591 333.217592 
L 397.656692 333.056578 
L 397.874748 332.662989 
L 397.956555 332.501975 
L 398.063407 332.349907 
L 398.250832 331.974208 
L 398.353345 331.732687 
L 398.459225 331.544838 
L 398.823619 331.061796 
L 399.163322 330.927618 
L 399.357847 330.498248 
L 399.556526 330.104659 
L 399.756844 329.854193 
L 399.86629 329.442713 
L 400.101789 328.995453 
L 400.208975 328.807603 
L 400.639798 328.467685 
L 400.738341 328.333507 
L 400.875087 328.047261 
L 400.986722 327.82363 
L 401.09669 327.662616 
L 401.275182 327.403205 
L 401.383349 327.17063 
L 401.414409 327.018561 
L 401.512885 326.696534 
L 401.688441 326.508684 
L 401.977066 326.070369 
L 402.086286 325.793067 
L 402.417017 325.390533 
L 402.605752 325.032725 
L 402.727534 324.728587 
L 402.874074 324.370779 
L 402.923992 324.21871 
L 403.040556 323.914573 
L 403.502708 323.664107 
L 403.92349 323.538874 
L 404.0732 323.333135 
L 404.322655 323.127395 
L 404.432862 322.993217 
L 404.565688 322.841148 
L 405.35215 322.322326 
L 405.627686 322.188148 
L 405.961136 321.901901 
L 406.330412 321.749832 
L 407.528078 321.311517 
L 407.658259 321.23101 
L 407.753794 321.105777 
L 407.830697 320.873202 
L 407.930162 320.685352 
L 408.034217 320.524338 
L 408.199566 320.291763 
L 408.306481 319.96079 
L 408.378628 319.790831 
L 408.468711 319.522475 
L 408.521066 319.397242 
L 408.62346 319.32568 
L 408.799866 319.128886 
L 409.669619 317.83183 
L 410.371661 317.617145 
L 410.471334 317.554529 
L 411.065664 317.313008 
L 411.174839 317.214611 
L 411.408657 317.19672 
L 412.191732 317.080432 
L 412.665519 316.230637 
L 413.102744 315.854939 
L 413.478791 315.693925 
L 414.519284 314.280581 
L 414.872045 313.967499 
L 415.132451 313.842266 
L 415.807383 313.046142 
L 415.995108 312.670444 
L 416.130246 312.473649 
L 416.212759 312.339471 
L 416.866413 312.035334 
L 417.151489 311.704361 
L 417.256878 311.534402 
L 417.341661 311.409169 
L 417.449597 311.266045 
L 417.812543 310.666716 
L 418.355551 310.505703 
L 418.464945 310.165785 
L 419.708672 308.841893 
L 419.929641 308.707715 
L 420.248523 308.036824 
L 420.357896 307.85792 
L 421.321355 306.641372 
L 421.5679 306.480358 
L 421.649657 306.328289 
L 421.74952 306.185166 
L 421.875754 305.943645 
L 422.640103 304.923891 
L 423.286916 304.762877 
L 423.419818 304.583973 
L 423.515684 304.431905 
L 423.625225 304.244055 
L 423.743476 304.020425 
L 423.994608 303.39426 
L 424.057793 303.242192 
L 424.195705 302.929109 
L 424.336614 302.75915 
L 424.434135 302.589191 
L 424.601859 302.419232 
L 424.827009 302.043533 
L 424.931683 301.703615 
L 425.090632 301.381588 
L 425.219876 301.122177 
L 425.761258 300.594409 
L 426.307914 300.478122 
L 426.572647 300.209765 
L 427.030872 300.048751 
L 427.209445 299.950354 
L 428.135979 299.54782 
L 428.242037 299.413641 
L 429.005827 298.805367 
L 429.492776 298.680134 
L 429.590897 298.492285 
L 429.699741 298.179202 
L 430.383374 296.810585 
L 430.847899 296.569064 
L 431.137116 296.14864 
L 431.242308 295.925009 
L 432.356959 294.44905 
L 432.60894 294.314871 
L 433.653062 292.946254 
L 433.701722 292.892583 
L 434.121328 292.758405 
L 434.541468 292.239583 
L 434.646362 292.033843 
L 434.76125 291.881774 
L 434.872228 291.765486 
L 434.957829 291.577637 
L 435.092197 291.443459 
L 435.192542 291.184048 
L 435.264034 291.076705 
L 435.741213 290.86202 
L 435.907101 290.548938 
L 436.061616 290.387924 
L 436.144507 290.253746 
L 436.532014 289.466567 
L 436.573057 289.332389 
L 436.684179 289.135594 
L 436.81495 288.983526 
L 436.912116 288.920909 
L 437.338439 288.777786 
L 437.374143 288.616772 
L 437.481616 288.375252 
L 437.686876 288.044279 
L 437.797344 287.820649 
L 438.031348 287.301826 
L 438.495988 286.729333 
L 438.876622 286.559374 
L 438.980872 286.487812 
L 439.876404 285.494894 
L 440.555816 285.137085 
L 440.843452 284.707715 
L 441.010355 284.394633 
L 441.121073 284.171003 
L 441.343633 283.813194 
L 441.472557 283.643235 
L 441.555993 283.500112 
L 441.652138 283.392769 
L 442.235826 282.972344 
L 442.345152 282.748714 
L 442.513671 282.390906 
L 442.624633 282.194111 
L 442.87317 281.889974 
L 443.026054 281.737905 
L 443.171262 281.487439 
L 443.284411 281.335371 
L 444.083153 280.718151 
L 444.190065 280.485576 
L 444.316483 280.333507 
L 444.424625 280.199329 
L 444.558366 279.939918 
L 444.664594 279.752069 
L 444.967236 279.591055 
L 445.34111 279.403205 
L 446.677098 277.784122 
L 447.010416 277.632054 
L 447.463863 276.773313 
L 447.684142 276.63019 
L 447.74623 276.522848 
L 448.556479 276.290272 
L 448.856911 275.932464 
L 449.218086 275.77145 
L 450.459637 275.225792 
L 450.564389 274.796422 
L 450.618059 274.626463 
L 450.749269 274.384942 
L 450.8578 274.197093 
L 450.924314 273.973463 
L 451.034344 273.687216 
L 451.118201 273.499366 
L 451.222446 273.374133 
L 451.442365 273.2489 
L 451.675082 273.114722 
L 451.785692 273.02527 
L 451.909731 272.873202 
L 452.101324 272.694297 
L 452.280855 272.533284 
L 452.421643 272.37227 
L 452.551685 272.193366 
L 452.663915 272.077078 
L 452.967954 271.799776 
L 453.342683 271.665598 
L 453.44473 271.450913 
L 453.588052 271.236228 
L 453.776582 271.012598 
L 454.003426 270.833694 
L 454.103545 270.663735 
L 454.304784 270.529556 
L 454.488975 270.386433 
L 454.834136 270.153858 
L 454.945143 269.948118 
L 455.177234 269.635035 
L 455.347506 269.38457 
L 455.60791 269.062542 
L 456.019948 268.436377 
L 456.668701 268.11435 
L 456.793985 268.033843 
L 457.481613 267.407678 
L 457.574824 267.2735 
L 457.886297 267.237719 
L 458.144143 267.103541 
L 459.092435 266.128513 
L 459.167243 266.056951 
L 459.714144 265.878047 
L 459.868788 265.663362 
L 459.985691 265.457622 
L 460.091256 265.332389 
L 460.270969 265.153485 
L 460.392367 264.95669 
L 460.552737 264.679389 
L 461.3065 264.312635 
L 461.784676 263.68647 
L 461.958647 263.46284 
L 462.068751 263.310772 
L 462.378466 262.917182 
L 462.981413 262.765114 
L 463.228568 262.550429 
L 463.332576 262.246291 
L 463.568172 261.879538 
L 463.674663 261.76325 
L 463.765362 261.602236 
L 463.877576 261.369661 
L 464.155515 261.280209 
L 464.519959 261.154976 
L 464.621935 260.940291 
L 464.730097 260.734551 
L 465.256941 259.929482 
L 465.44624 259.696906 
L 465.542319 259.625345 
L 465.927621 259.464331 
L 466.160086 259.151249 
L 466.277316 258.98129 
L 467.497208 257.621618 
L 467.886196 257.326426 
L 467.995935 257.138576 
L 468.382702 256.68237 
L 468.463446 256.566083 
L 468.597571 256.422959 
L 469.548347 255.948863 
L 469.653313 255.868356 
L 469.912172 255.662616 
L 470.443995 255.456877 
L 470.853389 255.313753 
L 471.743332 254.616027 
L 471.806791 254.571301 
L 472.460654 254.356616 
L 472.564696 254.186657 
L 472.666359 253.963026 
L 472.779362 253.497876 
L 472.928507 253.327917 
L 473.040009 253.050615 
L 473.088312 252.862766 
L 473.194242 252.576519 
L 473.276731 252.415505 
L 473.462841 252.20082 
L 473.714325 252.066642 
L 473.796245 252.012971 
L 474.046263 251.851957 
L 474.175873 251.610436 
L 474.359459 251.404696 
L 474.457899 251.252628 
L 474.526094 251.109504 
L 474.625531 250.841148 
L 474.781512 250.599627 
L 474.880373 250.50123 
L 475.741153 250.018189 
L 476.165356 249.615654 
L 476.275247 249.535147 
L 476.438661 249.374133 
L 476.566998 249.159448 
L 476.66869 248.980544 
L 477.240203 248.640626 
L 477.346563 248.524338 
L 477.520161 248.247037 
L 477.615074 248.130749 
L 477.775881 247.933955 
L 477.948779 247.73716 
L 478.053986 247.567201 
L 478.159014 247.379351 
L 478.442792 247.245173 
L 478.847279 247.11994 
L 478.96795 246.806858 
L 479.237009 246.529556 
L 479.493726 246.153858 
L 479.603852 246.073351 
L 479.779673 245.867611 
L 479.868395 245.822885 
L 480.341016 245.62609 
L 480.565779 245.232501 
L 480.672992 245.035706 
L 480.767545 244.901528 
L 480.88644 244.740514 
L 481.533262 243.881774 
L 481.967484 243.70287 
L 482.177618 243.407678 
L 482.44676 243.175102 
L 482.548518 242.915691 
L 482.810548 242.620499 
L 482.922734 242.557883 
L 482.957001 242.41476 
L 483.325402 242.235855 
L 483.597757 242.092732 
L 483.882825 241.743869 
L 483.974292 241.636526 
L 484.086867 241.502348 
L 484.242203 241.296608 
L 484.808404 240.491539 
L 485.198902 240.339471 
L 486.416666 239.89221 
L 486.822768 239.766977 
L 487.013677 239.623854 
L 487.356201 239.2571 
L 487.455567 239.042415 
L 487.573523 238.890347 
L 487.775599 238.62199 
L 487.975318 238.523593 
L 488.346257 238.39836 
L 488.41826 238.183675 
L 488.525249 237.995826 
L 489.507519 237.199702 
L 489.903104 237.083414 
L 491.05744 236.027879 
L 491.580859 235.848975 
L 492.721589 234.936564 
L 493.547336 234.748714 
L 493.743547 234.56981 
L 493.864974 234.489303 
L 495.504448 233.478494 
L 495.712479 233.138576 
L 495.809077 232.995453 
L 496.330201 232.655535 
L 496.439221 232.485576 
L 496.841452 231.948863 
L 497.015058 231.787849 
L 497.275122 231.492657 
L 497.441452 231.340589 
L 497.908132 231.134849 
L 499.41214 229.632054 
L 499.731551 229.479985 
L 500.192736 228.996944 
L 501.088071 228.290272 
L 501.196478 228.165039 
L 501.302812 227.950354 
L 502.340184 226.698025 
L 502.632803 226.545956 
L 502.999704 225.982408 
L 503.11005 225.901901 
L 503.425762 225.597764 
L 503.515263 225.535147 
L 503.615518 225.383079 
L 503.726038 225.320462 
L 504.135026 225.159448 
L 505.546209 223.441968 
L 505.869454 223.30779 
L 506.007458 223.10205 
L 506.146233 222.949981 
L 506.251854 222.726351 
L 506.37908 222.547447 
L 506.843225 221.778159 
L 506.932916 221.590309 
L 507.464389 221.38457 
L 507.574772 221.017816 
L 507.703066 220.803131 
L 507.806627 220.472158 
L 508.044896 220.176966 
L 508.288015 219.810212 
L 508.526632 219.532911 
L 509.077053 219.354007 
L 509.219228 219.076705 
L 510.192283 217.403951 
L 510.96766 217.001416 
L 511.830021 216.536265 
L 512.216489 216.402087 
L 512.702466 215.731196 
L 512.806132 215.46284 
L 513.003277 215.292881 
L 513.09954 215.131867 
L 514.122706 214.452031 
L 514.225017 214.326798 
L 514.342894 214.103168 
L 514.455655 214.049497 
L 514.719783 213.790086 
L 515.498411 213.101305 
L 515.61005 212.859784 
L 515.809618 212.636154 
L 515.917546 212.466195 
L 516.0081 212.224674 
L 516.177527 212.036824 
L 516.324311 211.679016 
L 516.396414 211.464331 
L 516.775248 211.321208 
L 517.08802 210.954454 
L 517.192259 210.847111 
L 517.253971 210.712933 
L 517.329753 210.578755 
L 517.526458 210.444577 
L 517.634144 210.283563 
L 518.40935 209.478494 
L 518.535015 209.344316 
L 518.733615 208.879165 
L 518.844585 208.744987 
L 519.016078 208.503466 
L 519.121975 208.351398 
L 519.770475 207.761014 
L 520.113836 207.608945 
L 520.215467 207.465822 
L 520.485444 207.134849 
L 520.586757 206.947 
L 520.717267 206.732315 
L 520.975827 206.293999 
L 521.159244 206.079314 
L 521.299774 205.936191 
L 522.030005 205.292136 
L 522.121882 205.113231 
L 522.260612 204.979053 
L 522.369233 204.665971 
L 522.616788 204.343943 
L 522.721648 204.20082 
L 523.334089 203.762505 
L 524.03572 202.510175 
L 524.09138 202.349161 
L 524.190786 202.206038 
L 524.325642 201.991353 
L 524.415949 201.767723 
L 524.851634 201.579873 
L 524.976637 201.43675 
L 525.079871 201.21312 
L 525.590917 200.649571 
L 525.688941 200.515393 
L 525.78 200.363325 
L 525.884252 200.14864 
L 525.957384 200.014461 
L 526.336218 199.799776 
L 526.534602 199.656653 
L 526.93516 199.254119 
L 527.041562 199.128886 
L 527.748208 198.762132 
L 528.271101 198.601118 
L 528.365256 198.422214 
L 528.518638 198.2612 
L 528.610515 197.966008 
L 528.70555 197.840775 
L 528.797737 197.643981 
L 528.959131 197.465076 
L 529.063875 197.250391 
L 529.16463 197.125158 
L 529.263901 196.856802 
L 529.959318 196.463213 
L 530.102952 196.33798 
L 530.621635 196.176966 
L 530.651784 196.15013 
L 531.71928 195.953336 
L 532.130599 195.711815 
L 532.238662 195.443459 
L 532.344932 195.192993 
L 532.437559 195.014089 
L 532.876639 194.727842 
L 535.249479 192.52732 
L 535.348258 192.384197 
L 535.439835 192.196347 
L 535.590119 191.919046 
L 536.023997 191.66858 
L 536.113004 191.507566 
L 536.224521 191.364443 
L 536.418522 191.105032 
L 536.543887 190.899292 
L 536.681591 190.720388 
L 536.73237 190.595155 
L 536.783873 190.523593 
L 537.023803 190.389415 
L 537.236464 190.255237 
L 537.658817 190.112113 
L 538.731844 188.528811 
L 539.314782 188.197838 
L 539.426242 187.983153 
L 539.527886 187.866865 
L 539.633951 187.696906 
L 539.750587 187.598509 
L 540.059999 187.258591 
L 540.316914 187.052851 
L 540.904631 186.838166 
L 541.087533 186.721878 
L 541.391582 186.426687 
L 541.491995 186.247782 
L 541.599008 186.095714 
L 541.706796 185.863138 
L 541.807451 185.702124 
L 542.021582 185.487439 
L 542.417616 185.353261 
L 542.545197 185.165412 
L 542.636483 185.040179 
L 542.741685 184.825494 
L 542.876981 184.592918 
L 542.987477 184.422959 
L 543.207809 183.948863 
L 543.459791 183.734178 
L 543.56248 183.6 
L 544.1214 183.269027 
L 544.230986 183.152739 
L 544.447942 182.687589 
L 544.593577 182.508684 
L 544.693682 182.285054 
L 544.78337 182.088259 
L 544.886017 181.90041 
L 545.812596 181.184793 
L 545.971779 180.889601 
L 546.081001 180.746478 
L 546.440735 180.245546 
L 546.812206 179.744614 
L 547.332096 179.422587 
L 547.553862 178.984271 
L 547.665577 178.751696 
L 547.956412 178.393887 
L 548.048418 178.116586 
L 548.105501 177.982408 
L 548.210601 177.758777 
L 548.83173 177.445695 
L 549.064964 177.078941 
L 549.190771 176.935818 
L 549.37265 176.506448 
L 549.494295 176.291763 
L 549.606717 175.978681 
L 549.723171 175.790831 
L 549.819108 175.504584 
L 551.081435 174.89631 
L 551.165358 174.780022 
L 551.730051 174.520611 
L 551.943337 174.431159 
L 552.269608 174.288036 
L 552.371931 174.028625 
L 552.460927 173.84972 
L 552.569763 173.313008 
L 553.06806 172.74946 
L 553.884067 172.320089 
L 553.9442 172.239583 
L 554.141434 172.096459 
L 554.705596 171.407678 
L 555.123744 171.264555 
L 555.253843 171.130376 
L 555.361522 170.960417 
L 555.4425 170.817294 
L 555.561535 170.763623 
L 555.64776 170.647335 
L 555.751778 170.423705 
L 555.908751 170.22691 
L 556.020847 170.00328 
L 556.12757 169.878047 
L 556.803788 169.493403 
L 556.884111 169.403951 
L 557.033714 169.251882 
L 557.336161 168.992471 
L 558.301162 168.223183 
L 558.494179 167.954827 
L 558.601799 167.784868 
L 558.683148 167.641744 
L 559.438119 166.291018 
L 560.016324 165.933209 
L 560.101404 165.807976 
L 560.307956 165.664853 
L 560.420263 165.271264 
L 561.205509 164.385688 
L 561.571468 164.215729 
L 561.681198 164.054715 
L 561.80639 163.992098 
L 561.956398 163.848975 
L 562.077009 163.625345 
L 562.295944 163.330153 
L 562.402851 163.142303 
L 562.684529 162.927618 
L 563.179048 162.686098 
L 563.298254 162.444577 
L 563.581198 162.247782 
L 564.585474 161.532165 
L 564.792373 161.344316 
L 564.886426 161.210138 
L 564.997473 161.067015 
L 565.169923 160.762877 
L 565.278364 160.601864 
L 565.384206 160.387179 
L 565.455377 160.23511 
L 565.565308 160.002534 
L 565.704048 159.752069 
L 565.866029 159.528438 
L 566.29241 159.242192 
L 566.427617 159.063287 
L 566.562979 158.875438 
L 566.665079 158.696534 
L 566.781372 158.508684 
L 566.881727 158.061424 
L 567.014842 157.855684 
L 567.118081 157.399478 
L 567.346904 157.050615 
L 567.457866 156.970108 
L 568.903772 156.504957 
L 568.976043 156.388669 
L 569.443399 156.227656 
L 569.601801 156.030861 
L 569.94376 155.699888 
L 570.732156 155.118449 
L 571.136174 154.984271 
L 571.425896 154.492285 
L 571.688184 154.259709 
L 571.797736 154.098695 
L 571.856882 153.937682 
L 571.959779 153.857175 
L 572.05775 153.651435 
L 572.144549 153.481476 
L 572.683853 153.302572 
L 572.807371 153.150503 
L 572.970717 153.00738 
L 573.062397 152.864256 
L 573.211618 152.703243 
L 573.296646 152.631681 
L 573.420646 152.488558 
L 573.52818 152.345434 
L 573.670046 152.193366 
L 573.840862 152.139694 
L 573.983403 152.005516 
L 574.462681 151.629817 
L 574.562105 151.504584 
L 574.882366 151.280954 
L 574.985847 151.191502 
L 575.615089 150.780022 
L 575.993325 150.627954 
L 576.095344 150.547447 
L 576.251982 150.386433 
L 576.352401 150.288036 
L 576.638218 150.100186 
L 576.769822 150.03757 
L 577.426601 149.769214 
L 578.426682 149.277227 
L 578.525117 149.187775 
L 578.885347 149.017816 
L 579.207345 148.713679 
L 579.314944 148.525829 
L 579.52128 147.998062 
L 579.63059 147.506075 
L 579.760021 147.309281 
L 579.858752 147.023034 
L 580.041688 146.835184 
L 580.141462 146.736787 
L 580.692412 146.566828 
L 580.795004 146.468431 
L 580.951972 146.244801 
L 581.591223 145.484458 
L 582.080845 145.180321 
L 582.269346 145.037197 
L 582.467325 144.894074 
L 582.562857 144.786731 
L 582.80135 144.589937 
L 582.912039 144.500485 
L 583.244062 144.178457 
L 583.343454 144.106895 
L 584.540807 143.373388 
L 584.62699 143.113977 
L 584.72794 142.979799 
L 584.890709 142.711442 
L 585.799777 142.237346 
L 585.951835 142.130004 
L 586.184815 141.924264 
L 586.271172 141.852702 
L 586.300116 141.727469 
L 586.362247 141.566455 
L 586.450632 141.396496 
L 586.61072 141.217592 
L 586.712076 141.11025 
L 587.052779 140.949236 
L 587.160557 140.824003 
L 587.328471 140.725606 
L 587.397395 140.582482 
L 587.716183 140.260455 
L 587.76783 140.099441 
L 587.876335 139.938427 
L 589.241507 139.097577 
L 589.342433 138.990235 
L 589.400219 138.820276 
L 589.526774 138.578755 
L 590.289425 138.006262 
L 590.396806 137.907864 
L 590.676437 137.594782 
L 590.858231 137.389042 
L 590.983115 137.228028 
L 591.08301 137.156467 
L 591.853853 136.673425 
L 591.956118 136.494521 
L 592.117391 136.351398 
L 592.587002 135.761014 
L 592.691793 135.635781 
L 594.757526 134.544465 
L 595.233323 134.410287 
L 595.344364 134.043533 
L 595.539988 133.90041 
L 595.635307 133.658889 
L 596.090172 133.327917 
L 596.178868 133.2653 
L 596.596022 133.014834 
L 596.789259 132.782259 
L 597.10591 132.326053 
L 597.268522 132.156094 
L 598.057986 131.708833 
L 598.151231 131.5836 
L 598.289722 131.458367 
L 598.5014 131.270518 
L 598.610444 131.190011 
L 598.81257 131.020052 
L 598.943264 130.867984 
L 599.046442 130.751696 
L 600.464385 129.481476 
L 600.570327 129.23101 
L 600.965298 128.953709 
L 601.351155 128.721133 
L 601.634425 128.560119 
L 601.803436 128.425941 
L 601.906449 128.300708 
L 602.011238 128.16653 
L 602.120474 128.059187 
L 602.625902 127.799776 
L 602.963701 127.611927 
L 603.0741 127.51353 
L 603.85566 126.824748 
L 603.955778 126.681625 
L 604.55111 126.44905 
L 604.637341 126.359597 
L 604.779139 126.225419 
L 605.03358 125.983899 
L 605.337546 125.679761 
L 605.421713 125.6082 
L 606.251507 125.268282 
L 606.430344 125.125158 
L 606.810404 124.919419 
L 607.05246 124.686843 
L 607.14715 124.56161 
L 607.492935 124.311144 
L 607.726065 124.168021 
L 607.911543 123.989117 
L 608.011372 123.917555 
L 608.21058 123.711815 
L 608.293887 123.604473 
L 608.508775 123.461349 
L 608.54053 123.327171 
L 608.650302 123.255609 
L 608.777365 123.157212 
L 608.921142 123.014089 
L 609.006131 122.933582 
L 609.311025 122.781513 
L 610.207072 121.833321 
L 610.883649 121.627581 
L 611.143737 121.341334 
L 611.251778 121.171375 
L 611.948439 120.536265 
L 612.041408 120.446813 
L 612.728636 120.178457 
L 612.972392 119.936936 
L 613.192166 119.758032 
L 613.285148 119.65069 
L 613.492942 119.44495 
L 613.583859 119.400224 
L 614.175831 119.069251 
L 614.282656 118.890347 
L 614.468824 118.595155 
L 614.565782 118.434141 
L 614.640085 118.264182 
L 614.730872 118.147894 
L 614.98178 117.942154 
L 615.088469 117.834812 
L 615.313751 117.682743 
L 615.734188 117.477003 
L 615.827362 117.387551 
L 615.9726 117.244428 
L 616.065663 117.172866 
L 616.300928 116.976072 
L 616.388629 116.913455 
L 616.424363 116.797167 
L 616.514745 116.752441 
L 616.581067 116.627208 
L 616.678052 116.484085 
L 617.379236 116.090496 
L 617.488687 115.965263 
L 617.654236 115.777413 
L 617.735717 115.670071 
L 617.922834 115.518002 
L 618.117532 115.356988 
L 618.920458 114.900783 
L 619.023447 114.739769 
L 619.199994 114.560865 
L 619.307972 114.34618 
L 619.419013 114.212001 
L 619.506288 113.997316 
L 619.701707 113.863138 
L 619.811051 113.827357 
L 620.888785 113.380097 
L 621.255167 112.834439 
L 621.393868 112.68237 
L 621.50423 112.566083 
L 621.670947 112.351398 
L 621.766153 112.172493 
L 622.062729 111.948863 
L 622.173678 111.877302 
L 622.303472 111.787849 
L 622.636364 111.6 
L 622.636364 111.6 
" style="fill:none;stroke:#92c6ff;stroke-linecap:round;stroke-width:1.5;"/>
   </g>
   <g id="line2d_26">
    <defs>
     <path d="M 0 2.5 
C 0.663008 2.5 1.29895 2.236584 1.767767 1.767767 
C 2.236584 1.29895 2.5 0.663008 2.5 0 
C 2.5 -0.663008 2.236584 -1.29895 1.767767 -1.767767 
C 1.29895 -2.236584 0.663008 -2.5 0 -2.5 
C -0.663008 -2.5 -1.29895 -2.236584 -1.767767 -1.767767 
C -2.236584 -1.29895 -2.5 -0.663008 -2.5 0 
C -2.5 0.663008 -2.236584 1.29895 -1.767767 1.767767 
C -1.29895 2.236584 -0.663008 2.5 0 2.5 
z
" id="m216d0852a4" style="stroke:#696969;"/>
    </defs>
    <g clip-path="url(#p47603f9eb1)">
     <use style="fill:#696969;stroke:#696969;" x="115.363636" xlink:href="#m216d0852a4" y="615.6"/>
    </g>
   </g>
   <g id="line2d_27">
    <g clip-path="url(#p47603f9eb1)">
     <use style="fill:#696969;stroke:#696969;" x="196.44614" xlink:href="#m216d0852a4" y="565.193738"/>
    </g>
   </g>
   <g id="line2d_28">
    <g clip-path="url(#p47603f9eb1)">
     <use style="fill:#696969;stroke:#696969;" x="240.786958" xlink:href="#m216d0852a4" y="514.787477"/>
    </g>
   </g>
   <g id="line2d_29">
    <g clip-path="url(#p47603f9eb1)">
     <use style="fill:#696969;stroke:#696969;" x="290.855254" xlink:href="#m216d0852a4" y="464.381215"/>
    </g>
   </g>
   <g id="line2d_30">
    <g clip-path="url(#p47603f9eb1)">
     <use style="fill:#696969;stroke:#696969;" x="331.147893" xlink:href="#m216d0852a4" y="413.974953"/>
    </g>
   </g>
   <g id="line2d_31">
    <g clip-path="url(#p47603f9eb1)">
     <use style="fill:#696969;stroke:#696969;" x="373.822751" xlink:href="#m216d0852a4" y="363.577637"/>
    </g>
   </g>
   <g id="line2d_32">
    <g clip-path="url(#p47603f9eb1)">
     <use style="fill:#696969;stroke:#696969;" x="415.67621" xlink:href="#m216d0852a4" y="313.180321"/>
    </g>
   </g>
   <g id="line2d_33">
    <g clip-path="url(#p47603f9eb1)">
     <use style="fill:#696969;stroke:#696969;" x="462.896482" xlink:href="#m216d0852a4" y="262.783004"/>
    </g>
   </g>
   <g id="line2d_34">
    <g clip-path="url(#p47603f9eb1)">
     <use style="fill:#696969;stroke:#696969;" x="515.957284" xlink:href="#m216d0852a4" y="212.385688"/>
    </g>
   </g>
   <g id="line2d_35">
    <g clip-path="url(#p47603f9eb1)">
     <use style="fill:#696969;stroke:#696969;" x="563.82512" xlink:href="#m216d0852a4" y="161.988371"/>
    </g>
   </g>
   <g id="line2d_36">
    <g clip-path="url(#p47603f9eb1)">
     <use style="fill:#696969;stroke:#696969;" x="622.636364" xlink:href="#m216d0852a4" y="111.6"/>
    </g>
   </g>
   <g id="patch_3">
    <path d="M 90 640.8 
L 90 86.4 
" style="fill:none;stroke:#cccccc;stroke-linecap:square;stroke-linejoin:miter;"/>
   </g>
   <g id="patch_4">
    <path d="M 648 640.8 
L 648 86.4 
" style="fill:none;stroke:#cccccc;stroke-linecap:square;stroke-linejoin:miter;"/>
   </g>
   <g id="patch_5">
    <path d="M 90 640.8 
L 648 640.8 
" style="fill:none;stroke:#cccccc;stroke-linecap:square;stroke-linejoin:miter;"/>
   </g>
   <g id="patch_6">
    <path d="M 90 86.4 
L 648 86.4 
" style="fill:none;stroke:#cccccc;stroke-linecap:square;stroke-linejoin:miter;"/>
   </g>
   <g id="text_13">
    <!-- 1 (2014-06-07) -->
    <defs>
     <path id="DejaVuSans-32"/>
     <path d="M 31 75.875 
Q 24.46875 64.65625 21.28125 53.65625 
Q 18.109375 42.671875 18.109375 31.390625 
Q 18.109375 20.125 21.3125 9.0625 
Q 24.515625 -2 31 -13.1875 
L 23.1875 -13.1875 
Q 15.875 -1.703125 12.234375 9.375 
Q 8.59375 20.453125 8.59375 31.390625 
Q 8.59375 42.28125 12.203125 53.3125 
Q 15.828125 64.359375 23.1875 75.875 
z
" id="DejaVuSans-40"/>
     <path d="M 4.890625 31.390625 
L 31.203125 31.390625 
L 31.203125 23.390625 
L 4.890625 23.390625 
z
" id="DejaVuSans-45"/>
     <path d="M 8.015625 75.875 
L 15.828125 75.875 
Q 23.140625 64.359375 26.78125 53.3125 
Q 30.421875 42.28125 30.421875 31.390625 
Q 30.421875 20.453125 26.78125 9.375 
Q 23.140625 -1.703125 15.828125 -13.1875 
L 8.015625 -13.1875 
Q 14.5 -2 17.703125 9.0625 
Q 20.90625 20.125 20.90625 31.390625 
Q 20.90625 42.671875 17.703125 53.65625 
Q 14.5 64.65625 8.015625 75.875 
z
" id="DejaVuSans-41"/>
    </defs>
    <g style="fill:#262626;" transform="translate(120.363636 623.198437)scale(0.1 -0.1)">
     <use xlink:href="#DejaVuSans-49"/>
     <use x="63.623047" xlink:href="#DejaVuSans-32"/>
     <use x="95.410156" xlink:href="#DejaVuSans-40"/>
     <use x="134.423828" xlink:href="#DejaVuSans-50"/>
     <use x="198.046875" xlink:href="#DejaVuSans-48"/>
     <use x="261.669922" xlink:href="#DejaVuSans-49"/>
     <use x="325.292969" xlink:href="#DejaVuSans-52"/>
     <use x="388.916016" xlink:href="#DejaVuSans-45"/>
     <use x="425" xlink:href="#DejaVuSans-48"/>
     <use x="488.623047" xlink:href="#DejaVuSans-54"/>
     <use x="552.246094" xlink:href="#DejaVuSans-45"/>
     <use x="588.330078" xlink:href="#DejaVuSans-48"/>
     <use x="651.953125" xlink:href="#DejaVuSans-55"/>
     <use x="715.576172" xlink:href="#DejaVuSans-41"/>
    </g>
   </g>
   <g id="text_14">
    <!-- 5636 (2015-05-29) -->
    <g style="fill:#262626;" transform="translate(201.44614 572.792176)scale(0.1 -0.1)">
     <use xlink:href="#DejaVuSans-53"/>
     <use x="63.623047" xlink:href="#DejaVuSans-54"/>
     <use x="127.246094" xlink:href="#DejaVuSans-51"/>
     <use x="190.869141" xlink:href="#DejaVuSans-54"/>
     <use x="254.492188" xlink:href="#DejaVuSans-32"/>
     <use x="286.279297" xlink:href="#DejaVuSans-40"/>
     <use x="325.292969" xlink:href="#DejaVuSans-50"/>
     <use x="388.916016" xlink:href="#DejaVuSans-48"/>
     <use x="452.539062" xlink:href="#DejaVuSans-49"/>
     <use x="516.162109" xlink:href="#DejaVuSans-53"/>
     <use x="579.785156" xlink:href="#DejaVuSans-45"/>
     <use x="615.869141" xlink:href="#DejaVuSans-48"/>
     <use x="679.492188" xlink:href="#DejaVuSans-53"/>
     <use x="743.115234" xlink:href="#DejaVuSans-45"/>
     <use x="779.199219" xlink:href="#DejaVuSans-50"/>
     <use x="842.822266" xlink:href="#DejaVuSans-57"/>
     <use x="906.445312" xlink:href="#DejaVuSans-41"/>
    </g>
   </g>
   <g id="text_15">
    <!-- 11271 (2015-12-10) -->
    <g style="fill:#262626;" transform="translate(245.786958 522.385914)scale(0.1 -0.1)">
     <use xlink:href="#DejaVuSans-49"/>
     <use x="63.623047" xlink:href="#DejaVuSans-49"/>
     <use x="127.246094" xlink:href="#DejaVuSans-50"/>
     <use x="190.869141" xlink:href="#DejaVuSans-55"/>
     <use x="254.492188" xlink:href="#DejaVuSans-49"/>
     <use x="318.115234" xlink:href="#DejaVuSans-32"/>
     <use x="349.902344" xlink:href="#DejaVuSans-40"/>
     <use x="388.916016" xlink:href="#DejaVuSans-50"/>
     <use x="452.539062" xlink:href="#DejaVuSans-48"/>
     <use x="516.162109" xlink:href="#DejaVuSans-49"/>
     <use x="579.785156" xlink:href="#DejaVuSans-53"/>
     <use x="643.408203" xlink:href="#DejaVuSans-45"/>
     <use x="679.492188" xlink:href="#DejaVuSans-49"/>
     <use x="743.115234" xlink:href="#DejaVuSans-50"/>
     <use x="806.738281" xlink:href="#DejaVuSans-45"/>
     <use x="842.822266" xlink:href="#DejaVuSans-49"/>
     <use x="906.445312" xlink:href="#DejaVuSans-48"/>
     <use x="970.068359" xlink:href="#DejaVuSans-41"/>
    </g>
   </g>
   <g id="text_16">
    <!-- 16906 (2016-07-18) -->
    <g style="fill:#262626;" transform="translate(295.855254 471.979653)scale(0.1 -0.1)">
     <use xlink:href="#DejaVuSans-49"/>
     <use x="63.623047" xlink:href="#DejaVuSans-54"/>
     <use x="127.246094" xlink:href="#DejaVuSans-57"/>
     <use x="190.869141" xlink:href="#DejaVuSans-48"/>
     <use x="254.492188" xlink:href="#DejaVuSans-54"/>
     <use x="318.115234" xlink:href="#DejaVuSans-32"/>
     <use x="349.902344" xlink:href="#DejaVuSans-40"/>
     <use x="388.916016" xlink:href="#DejaVuSans-50"/>
     <use x="452.539062" xlink:href="#DejaVuSans-48"/>
     <use x="516.162109" xlink:href="#DejaVuSans-49"/>
     <use x="579.785156" xlink:href="#DejaVuSans-54"/>
     <use x="643.408203" xlink:href="#DejaVuSans-45"/>
     <use x="679.492188" xlink:href="#DejaVuSans-48"/>
     <use x="743.115234" xlink:href="#DejaVuSans-55"/>
     <use x="806.738281" xlink:href="#DejaVuSans-45"/>
     <use x="842.822266" xlink:href="#DejaVuSans-49"/>
     <use x="906.445312" xlink:href="#DejaVuSans-56"/>
     <use x="970.068359" xlink:href="#DejaVuSans-41"/>
    </g>
   </g>
   <g id="text_17">
    <!-- 22541 (2017-01-11) -->
    <g style="fill:#262626;" transform="translate(336.147893 421.573391)scale(0.1 -0.1)">
     <use xlink:href="#DejaVuSans-50"/>
     <use x="63.623047" xlink:href="#DejaVuSans-50"/>
     <use x="127.246094" xlink:href="#DejaVuSans-53"/>
     <use x="190.869141" xlink:href="#DejaVuSans-52"/>
     <use x="254.492188" xlink:href="#DejaVuSans-49"/>
     <use x="318.115234" xlink:href="#DejaVuSans-32"/>
     <use x="349.902344" xlink:href="#DejaVuSans-40"/>
     <use x="388.916016" xlink:href="#DejaVuSans-50"/>
     <use x="452.539062" xlink:href="#DejaVuSans-48"/>
     <use x="516.162109" xlink:href="#DejaVuSans-49"/>
     <use x="579.785156" xlink:href="#DejaVuSans-55"/>
     <use x="643.408203" xlink:href="#DejaVuSans-45"/>
     <use x="679.492188" xlink:href="#DejaVuSans-48"/>
     <use x="743.115234" xlink:href="#DejaVuSans-49"/>
     <use x="806.738281" xlink:href="#DejaVuSans-45"/>
     <use x="842.822266" xlink:href="#DejaVuSans-49"/>
     <use x="906.445312" xlink:href="#DejaVuSans-49"/>
     <use x="970.068359" xlink:href="#DejaVuSans-41"/>
    </g>
   </g>
   <g id="text_18">
    <!-- 28175 (2017-07-17) -->
    <g style="fill:#262626;" transform="translate(378.822751 371.176074)scale(0.1 -0.1)">
     <use xlink:href="#DejaVuSans-50"/>
     <use x="63.623047" xlink:href="#DejaVuSans-56"/>
     <use x="127.246094" xlink:href="#DejaVuSans-49"/>
     <use x="190.869141" xlink:href="#DejaVuSans-55"/>
     <use x="254.492188" xlink:href="#DejaVuSans-53"/>
     <use x="318.115234" xlink:href="#DejaVuSans-32"/>
     <use x="349.902344" xlink:href="#DejaVuSans-40"/>
     <use x="388.916016" xlink:href="#DejaVuSans-50"/>
     <use x="452.539062" xlink:href="#DejaVuSans-48"/>
     <use x="516.162109" xlink:href="#DejaVuSans-49"/>
     <use x="579.785156" xlink:href="#DejaVuSans-55"/>
     <use x="643.408203" xlink:href="#DejaVuSans-45"/>
     <use x="679.492188" xlink:href="#DejaVuSans-48"/>
     <use x="743.115234" xlink:href="#DejaVuSans-55"/>
     <use x="806.738281" xlink:href="#DejaVuSans-45"/>
     <use x="842.822266" xlink:href="#DejaVuSans-49"/>
     <use x="906.445312" xlink:href="#DejaVuSans-55"/>
     <use x="970.068359" xlink:href="#DejaVuSans-41"/>
    </g>
   </g>
   <g id="text_19">
    <!-- 33809 (2018-01-18) -->
    <g style="fill:#262626;" transform="translate(420.67621 320.778758)scale(0.1 -0.1)">
     <use xlink:href="#DejaVuSans-51"/>
     <use x="63.623047" xlink:href="#DejaVuSans-51"/>
     <use x="127.246094" xlink:href="#DejaVuSans-56"/>
     <use x="190.869141" xlink:href="#DejaVuSans-48"/>
     <use x="254.492188" xlink:href="#DejaVuSans-57"/>
     <use x="318.115234" xlink:href="#DejaVuSans-32"/>
     <use x="349.902344" xlink:href="#DejaVuSans-40"/>
     <use x="388.916016" xlink:href="#DejaVuSans-50"/>
     <use x="452.539062" xlink:href="#DejaVuSans-48"/>
     <use x="516.162109" xlink:href="#DejaVuSans-49"/>
     <use x="579.785156" xlink:href="#DejaVuSans-56"/>
     <use x="643.408203" xlink:href="#DejaVuSans-45"/>
     <use x="679.492188" xlink:href="#DejaVuSans-48"/>
     <use x="743.115234" xlink:href="#DejaVuSans-49"/>
     <use x="806.738281" xlink:href="#DejaVuSans-45"/>
     <use x="842.822266" xlink:href="#DejaVuSans-49"/>
     <use x="906.445312" xlink:href="#DejaVuSans-56"/>
     <use x="970.068359" xlink:href="#DejaVuSans-41"/>
    </g>
   </g>
   <g id="text_20">
    <!-- 39443 (2018-08-13) -->
    <g style="fill:#262626;" transform="translate(467.896482 270.381442)scale(0.1 -0.1)">
     <use xlink:href="#DejaVuSans-51"/>
     <use x="63.623047" xlink:href="#DejaVuSans-57"/>
     <use x="127.246094" xlink:href="#DejaVuSans-52"/>
     <use x="190.869141" xlink:href="#DejaVuSans-52"/>
     <use x="254.492188" xlink:href="#DejaVuSans-51"/>
     <use x="318.115234" xlink:href="#DejaVuSans-32"/>
     <use x="349.902344" xlink:href="#DejaVuSans-40"/>
     <use x="388.916016" xlink:href="#DejaVuSans-50"/>
     <use x="452.539062" xlink:href="#DejaVuSans-48"/>
     <use x="516.162109" xlink:href="#DejaVuSans-49"/>
     <use x="579.785156" xlink:href="#DejaVuSans-56"/>
     <use x="643.408203" xlink:href="#DejaVuSans-45"/>
     <use x="679.492188" xlink:href="#DejaVuSans-48"/>
     <use x="743.115234" xlink:href="#DejaVuSans-56"/>
     <use x="806.738281" xlink:href="#DejaVuSans-45"/>
     <use x="842.822266" xlink:href="#DejaVuSans-49"/>
     <use x="906.445312" xlink:href="#DejaVuSans-51"/>
     <use x="970.068359" xlink:href="#DejaVuSans-41"/>
    </g>
   </g>
   <g id="text_21">
    <!-- 45077 (2019-04-04) -->
    <g style="fill:#262626;" transform="translate(520.957284 219.984125)scale(0.1 -0.1)">
     <use xlink:href="#DejaVuSans-52"/>
     <use x="63.623047" xlink:href="#DejaVuSans-53"/>
     <use x="127.246094" xlink:href="#DejaVuSans-48"/>
     <use x="190.869141" xlink:href="#DejaVuSans-55"/>
     <use x="254.492188" xlink:href="#DejaVuSans-55"/>
     <use x="318.115234" xlink:href="#DejaVuSans-32"/>
     <use x="349.902344" xlink:href="#DejaVuSans-40"/>
     <use x="388.916016" xlink:href="#DejaVuSans-50"/>
     <use x="452.539062" xlink:href="#DejaVuSans-48"/>
     <use x="516.162109" xlink:href="#DejaVuSans-49"/>
     <use x="579.785156" xlink:href="#DejaVuSans-57"/>
     <use x="643.408203" xlink:href="#DejaVuSans-45"/>
     <use x="679.492188" xlink:href="#DejaVuSans-48"/>
     <use x="743.115234" xlink:href="#DejaVuSans-52"/>
     <use x="806.738281" xlink:href="#DejaVuSans-45"/>
     <use x="842.822266" xlink:href="#DejaVuSans-48"/>
     <use x="906.445312" xlink:href="#DejaVuSans-52"/>
     <use x="970.068359" xlink:href="#DejaVuSans-41"/>
    </g>
   </g>
   <g id="text_22">
    <!-- 50711 (2019-10-31) -->
    <g style="fill:#262626;" transform="translate(568.82512 169.586809)scale(0.1 -0.1)">
     <use xlink:href="#DejaVuSans-53"/>
     <use x="63.623047" xlink:href="#DejaVuSans-48"/>
     <use x="127.246094" xlink:href="#DejaVuSans-55"/>
     <use x="190.869141" xlink:href="#DejaVuSans-49"/>
     <use x="254.492188" xlink:href="#DejaVuSans-49"/>
     <use x="318.115234" xlink:href="#DejaVuSans-32"/>
     <use x="349.902344" xlink:href="#DejaVuSans-40"/>
     <use x="388.916016" xlink:href="#DejaVuSans-50"/>
     <use x="452.539062" xlink:href="#DejaVuSans-48"/>
     <use x="516.162109" xlink:href="#DejaVuSans-49"/>
     <use x="579.785156" xlink:href="#DejaVuSans-57"/>
     <use x="643.408203" xlink:href="#DejaVuSans-45"/>
     <use x="679.492188" xlink:href="#DejaVuSans-49"/>
     <use x="743.115234" xlink:href="#DejaVuSans-48"/>
     <use x="806.738281" xlink:href="#DejaVuSans-45"/>
     <use x="842.822266" xlink:href="#DejaVuSans-51"/>
     <use x="906.445312" xlink:href="#DejaVuSans-49"/>
     <use x="970.068359" xlink:href="#DejaVuSans-41"/>
    </g>
   </g>
   <g id="text_23">
    <!-- 56344 (2020-07-16) -->
    <g style="fill:#262626;" transform="translate(627.636364 119.198438)scale(0.1 -0.1)">
     <use xlink:href="#DejaVuSans-53"/>
     <use x="63.623047" xlink:href="#DejaVuSans-54"/>
     <use x="127.246094" xlink:href="#DejaVuSans-51"/>
     <use x="190.869141" xlink:href="#DejaVuSans-52"/>
     <use x="254.492188" xlink:href="#DejaVuSans-52"/>
     <use x="318.115234" xlink:href="#DejaVuSans-32"/>
     <use x="349.902344" xlink:href="#DejaVuSans-40"/>
     <use x="388.916016" xlink:href="#DejaVuSans-50"/>
     <use x="452.539062" xlink:href="#DejaVuSans-48"/>
     <use x="516.162109" xlink:href="#DejaVuSans-50"/>
     <use x="579.785156" xlink:href="#DejaVuSans-48"/>
     <use x="643.408203" xlink:href="#DejaVuSans-45"/>
     <use x="679.492188" xlink:href="#DejaVuSans-48"/>
     <use x="743.115234" xlink:href="#DejaVuSans-55"/>
     <use x="806.738281" xlink:href="#DejaVuSans-45"/>
     <use x="842.822266" xlink:href="#DejaVuSans-49"/>
     <use x="906.445312" xlink:href="#DejaVuSans-54"/>
     <use x="970.068359" xlink:href="#DejaVuSans-41"/>
    </g>
   </g>
   <g id="text_24">
    <!-- Closed PRs over time -->
    <defs>
     <path d="M 64.40625 67.28125 
L 64.40625 56.890625 
Q 59.421875 61.53125 53.78125 63.8125 
Q 48.140625 66.109375 41.796875 66.109375 
Q 29.296875 66.109375 22.65625 58.46875 
Q 16.015625 50.828125 16.015625 36.375 
Q 16.015625 21.96875 22.65625 14.328125 
Q 29.296875 6.6875 41.796875 6.6875 
Q 48.140625 6.6875 53.78125 8.984375 
Q 59.421875 11.28125 64.40625 15.921875 
L 64.40625 5.609375 
Q 59.234375 2.09375 53.4375 0.328125 
Q 47.65625 -1.421875 41.21875 -1.421875 
Q 24.65625 -1.421875 15.125 8.703125 
Q 5.609375 18.84375 5.609375 36.375 
Q 5.609375 53.953125 15.125 64.078125 
Q 24.65625 74.21875 41.21875 74.21875 
Q 47.75 74.21875 53.53125 72.484375 
Q 59.328125 70.75 64.40625 67.28125 
z
" id="DejaVuSans-67"/>
     <path d="M 9.421875 75.984375 
L 18.40625 75.984375 
L 18.40625 0 
L 9.421875 0 
z
" id="DejaVuSans-108"/>
     <path d="M 30.609375 48.390625 
Q 23.390625 48.390625 19.1875 42.75 
Q 14.984375 37.109375 14.984375 27.296875 
Q 14.984375 17.484375 19.15625 11.84375 
Q 23.34375 6.203125 30.609375 6.203125 
Q 37.796875 6.203125 41.984375 11.859375 
Q 46.1875 17.53125 46.1875 27.296875 
Q 46.1875 37.015625 41.984375 42.703125 
Q 37.796875 48.390625 30.609375 48.390625 
z
M 30.609375 56 
Q 42.328125 56 49.015625 48.375 
Q 55.71875 40.765625 55.71875 27.296875 
Q 55.71875 13.875 49.015625 6.21875 
Q 42.328125 -1.421875 30.609375 -1.421875 
Q 18.84375 -1.421875 12.171875 6.21875 
Q 5.515625 13.875 5.515625 27.296875 
Q 5.515625 40.765625 12.171875 48.375 
Q 18.84375 56 30.609375 56 
z
" id="DejaVuSans-111"/>
     <path d="M 44.28125 53.078125 
L 44.28125 44.578125 
Q 40.484375 46.53125 36.375 47.5 
Q 32.28125 48.484375 27.875 48.484375 
Q 21.1875 48.484375 17.84375 46.4375 
Q 14.5 44.390625 14.5 40.28125 
Q 14.5 37.15625 16.890625 35.375 
Q 19.28125 33.59375 26.515625 31.984375 
L 29.59375 31.296875 
Q 39.15625 29.25 43.1875 25.515625 
Q 47.21875 21.78125 47.21875 15.09375 
Q 47.21875 7.46875 41.1875 3.015625 
Q 35.15625 -1.421875 24.609375 -1.421875 
Q 20.21875 -1.421875 15.453125 -0.5625 
Q 10.6875 0.296875 5.421875 2 
L 5.421875 11.28125 
Q 10.40625 8.6875 15.234375 7.390625 
Q 20.0625 6.109375 24.8125 6.109375 
Q 31.15625 6.109375 34.5625 8.28125 
Q 37.984375 10.453125 37.984375 14.40625 
Q 37.984375 18.0625 35.515625 20.015625 
Q 33.0625 21.96875 24.703125 23.78125 
L 21.578125 24.515625 
Q 13.234375 26.265625 9.515625 29.90625 
Q 5.8125 33.546875 5.8125 39.890625 
Q 5.8125 47.609375 11.28125 51.796875 
Q 16.75 56 26.8125 56 
Q 31.78125 56 36.171875 55.265625 
Q 40.578125 54.546875 44.28125 53.078125 
z
" id="DejaVuSans-115"/>
     <path d="M 56.203125 29.59375 
L 56.203125 25.203125 
L 14.890625 25.203125 
Q 15.484375 15.921875 20.484375 11.0625 
Q 25.484375 6.203125 34.421875 6.203125 
Q 39.59375 6.203125 44.453125 7.46875 
Q 49.3125 8.734375 54.109375 11.28125 
L 54.109375 2.78125 
Q 49.265625 0.734375 44.1875 -0.34375 
Q 39.109375 -1.421875 33.890625 -1.421875 
Q 20.796875 -1.421875 13.15625 6.1875 
Q 5.515625 13.8125 5.515625 26.8125 
Q 5.515625 40.234375 12.765625 48.109375 
Q 20.015625 56 32.328125 56 
Q 43.359375 56 49.78125 48.890625 
Q 56.203125 41.796875 56.203125 29.59375 
z
M 47.21875 32.234375 
Q 47.125 39.59375 43.09375 43.984375 
Q 39.0625 48.390625 32.421875 48.390625 
Q 24.90625 48.390625 20.390625 44.140625 
Q 15.875 39.890625 15.1875 32.171875 
z
" id="DejaVuSans-101"/>
     <path d="M 45.40625 46.390625 
L 45.40625 75.984375 
L 54.390625 75.984375 
L 54.390625 0 
L 45.40625 0 
L 45.40625 8.203125 
Q 42.578125 3.328125 38.25 0.953125 
Q 33.9375 -1.421875 27.875 -1.421875 
Q 17.96875 -1.421875 11.734375 6.484375 
Q 5.515625 14.40625 5.515625 27.296875 
Q 5.515625 40.1875 11.734375 48.09375 
Q 17.96875 56 27.875 56 
Q 33.9375 56 38.25 53.625 
Q 42.578125 51.265625 45.40625 46.390625 
z
M 14.796875 27.296875 
Q 14.796875 17.390625 18.875 11.75 
Q 22.953125 6.109375 30.078125 6.109375 
Q 37.203125 6.109375 41.296875 11.75 
Q 45.40625 17.390625 45.40625 27.296875 
Q 45.40625 37.203125 41.296875 42.84375 
Q 37.203125 48.484375 30.078125 48.484375 
Q 22.953125 48.484375 18.875 42.84375 
Q 14.796875 37.203125 14.796875 27.296875 
z
" id="DejaVuSans-100"/>
     <path d="M 19.671875 64.796875 
L 19.671875 37.40625 
L 32.078125 37.40625 
Q 38.96875 37.40625 42.71875 40.96875 
Q 46.484375 44.53125 46.484375 51.125 
Q 46.484375 57.671875 42.71875 61.234375 
Q 38.96875 64.796875 32.078125 64.796875 
z
M 9.8125 72.90625 
L 32.078125 72.90625 
Q 44.34375 72.90625 50.609375 67.359375 
Q 56.890625 61.8125 56.890625 51.125 
Q 56.890625 40.328125 50.609375 34.8125 
Q 44.34375 29.296875 32.078125 29.296875 
L 19.671875 29.296875 
L 19.671875 0 
L 9.8125 0 
z
" id="DejaVuSans-80"/>
     <path d="M 44.390625 34.1875 
Q 47.5625 33.109375 50.5625 29.59375 
Q 53.5625 26.078125 56.59375 19.921875 
L 66.609375 0 
L 56 0 
L 46.6875 18.703125 
Q 43.0625 26.03125 39.671875 28.421875 
Q 36.28125 30.8125 30.421875 30.8125 
L 19.671875 30.8125 
L 19.671875 0 
L 9.8125 0 
L 9.8125 72.90625 
L 32.078125 72.90625 
Q 44.578125 72.90625 50.734375 67.671875 
Q 56.890625 62.453125 56.890625 51.90625 
Q 56.890625 45.015625 53.6875 40.46875 
Q 50.484375 35.9375 44.390625 34.1875 
z
M 19.671875 64.796875 
L 19.671875 38.921875 
L 32.078125 38.921875 
Q 39.203125 38.921875 42.84375 42.21875 
Q 46.484375 45.515625 46.484375 51.90625 
Q 46.484375 58.296875 42.84375 61.546875 
Q 39.203125 64.796875 32.078125 64.796875 
z
" id="DejaVuSans-82"/>
     <path d="M 2.984375 54.6875 
L 12.5 54.6875 
L 29.59375 8.796875 
L 46.6875 54.6875 
L 56.203125 54.6875 
L 35.6875 0 
L 23.484375 0 
z
" id="DejaVuSans-118"/>
     <path d="M 41.109375 46.296875 
Q 39.59375 47.171875 37.8125 47.578125 
Q 36.03125 48 33.890625 48 
Q 26.265625 48 22.1875 43.046875 
Q 18.109375 38.09375 18.109375 28.8125 
L 18.109375 0 
L 9.078125 0 
L 9.078125 54.6875 
L 18.109375 54.6875 
L 18.109375 46.1875 
Q 20.953125 51.171875 25.484375 53.578125 
Q 30.03125 56 36.53125 56 
Q 37.453125 56 38.578125 55.875 
Q 39.703125 55.765625 41.0625 55.515625 
z
" id="DejaVuSans-114"/>
     <path d="M 18.3125 70.21875 
L 18.3125 54.6875 
L 36.8125 54.6875 
L 36.8125 47.703125 
L 18.3125 47.703125 
L 18.3125 18.015625 
Q 18.3125 11.328125 20.140625 9.421875 
Q 21.96875 7.515625 27.59375 7.515625 
L 36.8125 7.515625 
L 36.8125 0 
L 27.59375 0 
Q 17.1875 0 13.234375 3.875 
Q 9.28125 7.765625 9.28125 18.015625 
L 9.28125 47.703125 
L 2.6875 47.703125 
L 2.6875 54.6875 
L 9.28125 54.6875 
L 9.28125 70.21875 
z
" id="DejaVuSans-116"/>
     <path d="M 9.421875 54.6875 
L 18.40625 54.6875 
L 18.40625 0 
L 9.421875 0 
z
M 9.421875 75.984375 
L 18.40625 75.984375 
L 18.40625 64.59375 
L 9.421875 64.59375 
z
" id="DejaVuSans-105"/>
     <path d="M 52 44.1875 
Q 55.375 50.25 60.0625 53.125 
Q 64.75 56 71.09375 56 
Q 79.640625 56 84.28125 50.015625 
Q 88.921875 44.046875 88.921875 33.015625 
L 88.921875 0 
L 79.890625 0 
L 79.890625 32.71875 
Q 79.890625 40.578125 77.09375 44.375 
Q 74.3125 48.1875 68.609375 48.1875 
Q 61.625 48.1875 57.5625 43.546875 
Q 53.515625 38.921875 53.515625 30.90625 
L 53.515625 0 
L 44.484375 0 
L 44.484375 32.71875 
Q 44.484375 40.625 41.703125 44.40625 
Q 38.921875 48.1875 33.109375 48.1875 
Q 26.21875 48.1875 22.15625 43.53125 
Q 18.109375 38.875 18.109375 30.90625 
L 18.109375 0 
L 9.078125 0 
L 9.078125 54.6875 
L 18.109375 54.6875 
L 18.109375 46.1875 
Q 21.1875 51.21875 25.484375 53.609375 
Q 29.78125 56 35.6875 56 
Q 41.65625 56 45.828125 52.96875 
Q 50 49.953125 52 44.1875 
z
" id="DejaVuSans-109"/>
    </defs>
    <g style="fill:#262626;" transform="translate(305.27625 80.4)scale(0.12 -0.12)">
     <use xlink:href="#DejaVuSans-67"/>
     <use x="69.824219" xlink:href="#DejaVuSans-108"/>
     <use x="97.607422" xlink:href="#DejaVuSans-111"/>
     <use x="158.789062" xlink:href="#DejaVuSans-115"/>
     <use x="210.888672" xlink:href="#DejaVuSans-101"/>
     <use x="272.412109" xlink:href="#DejaVuSans-100"/>
     <use x="335.888672" xlink:href="#DejaVuSans-32"/>
     <use x="367.675781" xlink:href="#DejaVuSans-80"/>
     <use x="427.978516" xlink:href="#DejaVuSans-82"/>
     <use x="497.460938" xlink:href="#DejaVuSans-115"/>
     <use x="549.560547" xlink:href="#DejaVuSans-32"/>
     <use x="581.347656" xlink:href="#DejaVuSans-111"/>
     <use x="642.529297" xlink:href="#DejaVuSans-118"/>
     <use x="701.708984" xlink:href="#DejaVuSans-101"/>
     <use x="763.232422" xlink:href="#DejaVuSans-114"/>
     <use x="804.345703" xlink:href="#DejaVuSans-32"/>
     <use x="836.132812" xlink:href="#DejaVuSans-116"/>
     <use x="875.341797" xlink:href="#DejaVuSans-105"/>
     <use x="903.125" xlink:href="#DejaVuSans-109"/>
     <use x="1000.537109" xlink:href="#DejaVuSans-101"/>
    </g>
   </g>
  </g>
 </g>
 <defs>
  <clipPath id="p47603f9eb1">
   <rect height="554.4" width="558" x="90" y="86.4"/>
  </clipPath>
 </defs>
</svg>
