<?xml version="1.0" encoding="utf-8" standalone="no"?>
<!DOCTYPE svg PUBLIC "-//W3C//DTD SVG 1.1//EN"
  "http://www.w3.org/Graphics/SVG/1.1/DTD/svg11.dtd">
<!-- Created with matplotlib (https://matplotlib.org/) -->
<svg height="720pt" version="1.1" viewBox="0 0 720 720" width="720pt" xmlns="http://www.w3.org/2000/svg" xmlns:xlink="http://www.w3.org/1999/xlink">
 <defs>
  <style type="text/css">
*{stroke-linecap:butt;stroke-linejoin:round;}
  </style>
 </defs>
 <g id="figure_1">
  <g id="patch_1">
   <path d="M 0 720 
L 720 720 
L 720 0 
L 0 0 
z
" style="fill:#ffffff;"/>
  </g>
  <g id="axes_1">
   <g id="patch_2">
    <path d="M 90 640.8 
L 648 640.8 
L 648 86.4 
L 90 86.4 
z
" style="fill:#ffffff;"/>
   </g>
   <g id="matplotlib.axis_1">
    <g id="xtick_1">
     <g id="line2d_1">
      <path clip-path="url(#pb7b8ab8a1d)" d="M 162.753998 640.8 
L 162.753998 86.4 
" style="fill:none;stroke:#cccccc;stroke-linecap:round;stroke-width:0.8;"/>
     </g>
     <g id="line2d_2"/>
     <g id="text_1">
      <!-- 2015 -->
      <defs>
       <path d="M 19.1875 8.296875 
L 53.609375 8.296875 
L 53.609375 0 
L 7.328125 0 
L 7.328125 8.296875 
Q 12.9375 14.109375 22.625 23.890625 
Q 32.328125 33.6875 34.8125 36.53125 
Q 39.546875 41.84375 41.421875 45.53125 
Q 43.3125 49.21875 43.3125 52.78125 
Q 43.3125 58.59375 39.234375 62.25 
Q 35.15625 65.921875 28.609375 65.921875 
Q 23.96875 65.921875 18.8125 64.3125 
Q 13.671875 62.703125 7.8125 59.421875 
L 7.8125 69.390625 
Q 13.765625 71.78125 18.9375 73 
Q 24.125 74.21875 28.421875 74.21875 
Q 39.75 74.21875 46.484375 68.546875 
Q 53.21875 62.890625 53.21875 53.421875 
Q 53.21875 48.921875 51.53125 44.890625 
Q 49.859375 40.875 45.40625 35.40625 
Q 44.1875 33.984375 37.640625 27.21875 
Q 31.109375 20.453125 19.1875 8.296875 
z
" id="DejaVuSans-50"/>
       <path d="M 31.78125 66.40625 
Q 24.171875 66.40625 20.328125 58.90625 
Q 16.5 51.421875 16.5 36.375 
Q 16.5 21.390625 20.328125 13.890625 
Q 24.171875 6.390625 31.78125 6.390625 
Q 39.453125 6.390625 43.28125 13.890625 
Q 47.125 21.390625 47.125 36.375 
Q 47.125 51.421875 43.28125 58.90625 
Q 39.453125 66.40625 31.78125 66.40625 
z
M 31.78125 74.21875 
Q 44.046875 74.21875 50.515625 64.515625 
Q 56.984375 54.828125 56.984375 36.375 
Q 56.984375 17.96875 50.515625 8.265625 
Q 44.046875 -1.421875 31.78125 -1.421875 
Q 19.53125 -1.421875 13.0625 8.265625 
Q 6.59375 17.96875 6.59375 36.375 
Q 6.59375 54.828125 13.0625 64.515625 
Q 19.53125 74.21875 31.78125 74.21875 
z
" id="DejaVuSans-48"/>
       <path d="M 12.40625 8.296875 
L 28.515625 8.296875 
L 28.515625 63.921875 
L 10.984375 60.40625 
L 10.984375 69.390625 
L 28.421875 72.90625 
L 38.28125 72.90625 
L 38.28125 8.296875 
L 54.390625 8.296875 
L 54.390625 0 
L 12.40625 0 
z
" id="DejaVuSans-49"/>
       <path d="M 10.796875 72.90625 
L 49.515625 72.90625 
L 49.515625 64.59375 
L 19.828125 64.59375 
L 19.828125 46.734375 
Q 21.96875 47.46875 24.109375 47.828125 
Q 26.265625 48.1875 28.421875 48.1875 
Q 40.625 48.1875 47.75 41.5 
Q 54.890625 34.8125 54.890625 23.390625 
Q 54.890625 11.625 47.5625 5.09375 
Q 40.234375 -1.421875 26.90625 -1.421875 
Q 22.3125 -1.421875 17.546875 -0.640625 
Q 12.796875 0.140625 7.71875 1.703125 
L 7.71875 11.625 
Q 12.109375 9.234375 16.796875 8.0625 
Q 21.484375 6.890625 26.703125 6.890625 
Q 35.15625 6.890625 40.078125 11.328125 
Q 45.015625 15.765625 45.015625 23.390625 
Q 45.015625 31 40.078125 35.4375 
Q 35.15625 39.890625 26.703125 39.890625 
Q 22.75 39.890625 18.8125 39.015625 
Q 14.890625 38.140625 10.796875 36.28125 
z
" id="DejaVuSans-53"/>
      </defs>
      <g style="fill:#262626;" transform="translate(150.028998 651.898438)scale(0.1 -0.1)">
       <use xlink:href="#DejaVuSans-50"/>
       <use x="63.623047" xlink:href="#DejaVuSans-48"/>
       <use x="127.246094" xlink:href="#DejaVuSans-49"/>
       <use x="190.869141" xlink:href="#DejaVuSans-53"/>
      </g>
     </g>
    </g>
    <g id="xtick_2">
     <g id="line2d_3">
      <path clip-path="url(#pb7b8ab8a1d)" d="M 245.96129 640.8 
L 245.96129 86.4 
" style="fill:none;stroke:#cccccc;stroke-linecap:round;stroke-width:0.8;"/>
     </g>
     <g id="line2d_4"/>
     <g id="text_2">
      <!-- 2016 -->
      <defs>
       <path d="M 33.015625 40.375 
Q 26.375 40.375 22.484375 35.828125 
Q 18.609375 31.296875 18.609375 23.390625 
Q 18.609375 15.53125 22.484375 10.953125 
Q 26.375 6.390625 33.015625 6.390625 
Q 39.65625 6.390625 43.53125 10.953125 
Q 47.40625 15.53125 47.40625 23.390625 
Q 47.40625 31.296875 43.53125 35.828125 
Q 39.65625 40.375 33.015625 40.375 
z
M 52.59375 71.296875 
L 52.59375 62.3125 
Q 48.875 64.0625 45.09375 64.984375 
Q 41.3125 65.921875 37.59375 65.921875 
Q 27.828125 65.921875 22.671875 59.328125 
Q 17.53125 52.734375 16.796875 39.40625 
Q 19.671875 43.65625 24.015625 45.921875 
Q 28.375 48.1875 33.59375 48.1875 
Q 44.578125 48.1875 50.953125 41.515625 
Q 57.328125 34.859375 57.328125 23.390625 
Q 57.328125 12.15625 50.6875 5.359375 
Q 44.046875 -1.421875 33.015625 -1.421875 
Q 20.359375 -1.421875 13.671875 8.265625 
Q 6.984375 17.96875 6.984375 36.375 
Q 6.984375 53.65625 15.1875 63.9375 
Q 23.390625 74.21875 37.203125 74.21875 
Q 40.921875 74.21875 44.703125 73.484375 
Q 48.484375 72.75 52.59375 71.296875 
z
" id="DejaVuSans-54"/>
      </defs>
      <g style="fill:#262626;" transform="translate(233.23629 651.898438)scale(0.1 -0.1)">
       <use xlink:href="#DejaVuSans-50"/>
       <use x="63.623047" xlink:href="#DejaVuSans-48"/>
       <use x="127.246094" xlink:href="#DejaVuSans-49"/>
       <use x="190.869141" xlink:href="#DejaVuSans-54"/>
      </g>
     </g>
    </g>
    <g id="xtick_3">
     <g id="line2d_5">
      <path clip-path="url(#pb7b8ab8a1d)" d="M 329.396546 640.8 
L 329.396546 86.4 
" style="fill:none;stroke:#cccccc;stroke-linecap:round;stroke-width:0.8;"/>
     </g>
     <g id="line2d_6"/>
     <g id="text_3">
      <!-- 2017 -->
      <defs>
       <path d="M 8.203125 72.90625 
L 55.078125 72.90625 
L 55.078125 68.703125 
L 28.609375 0 
L 18.3125 0 
L 43.21875 64.59375 
L 8.203125 64.59375 
z
" id="DejaVuSans-55"/>
      </defs>
      <g style="fill:#262626;" transform="translate(316.671546 651.898438)scale(0.1 -0.1)">
       <use xlink:href="#DejaVuSans-50"/>
       <use x="63.623047" xlink:href="#DejaVuSans-48"/>
       <use x="127.246094" xlink:href="#DejaVuSans-49"/>
       <use x="190.869141" xlink:href="#DejaVuSans-55"/>
      </g>
     </g>
    </g>
    <g id="xtick_4">
     <g id="line2d_7">
      <path clip-path="url(#pb7b8ab8a1d)" d="M 412.603838 640.8 
L 412.603838 86.4 
" style="fill:none;stroke:#cccccc;stroke-linecap:round;stroke-width:0.8;"/>
     </g>
     <g id="line2d_8"/>
     <g id="text_4">
      <!-- 2018 -->
      <defs>
       <path d="M 31.78125 34.625 
Q 24.75 34.625 20.71875 30.859375 
Q 16.703125 27.09375 16.703125 20.515625 
Q 16.703125 13.921875 20.71875 10.15625 
Q 24.75 6.390625 31.78125 6.390625 
Q 38.8125 6.390625 42.859375 10.171875 
Q 46.921875 13.96875 46.921875 20.515625 
Q 46.921875 27.09375 42.890625 30.859375 
Q 38.875 34.625 31.78125 34.625 
z
M 21.921875 38.8125 
Q 15.578125 40.375 12.03125 44.71875 
Q 8.5 49.078125 8.5 55.328125 
Q 8.5 64.0625 14.71875 69.140625 
Q 20.953125 74.21875 31.78125 74.21875 
Q 42.671875 74.21875 48.875 69.140625 
Q 55.078125 64.0625 55.078125 55.328125 
Q 55.078125 49.078125 51.53125 44.71875 
Q 48 40.375 41.703125 38.8125 
Q 48.828125 37.15625 52.796875 32.3125 
Q 56.78125 27.484375 56.78125 20.515625 
Q 56.78125 9.90625 50.3125 4.234375 
Q 43.84375 -1.421875 31.78125 -1.421875 
Q 19.734375 -1.421875 13.25 4.234375 
Q 6.78125 9.90625 6.78125 20.515625 
Q 6.78125 27.484375 10.78125 32.3125 
Q 14.796875 37.15625 21.921875 38.8125 
z
M 18.3125 54.390625 
Q 18.3125 48.734375 21.84375 45.5625 
Q 25.390625 42.390625 31.78125 42.390625 
Q 38.140625 42.390625 41.71875 45.5625 
Q 45.3125 48.734375 45.3125 54.390625 
Q 45.3125 60.0625 41.71875 63.234375 
Q 38.140625 66.40625 31.78125 66.40625 
Q 25.390625 66.40625 21.84375 63.234375 
Q 18.3125 60.0625 18.3125 54.390625 
z
" id="DejaVuSans-56"/>
      </defs>
      <g style="fill:#262626;" transform="translate(399.878838 651.898438)scale(0.1 -0.1)">
       <use xlink:href="#DejaVuSans-50"/>
       <use x="63.623047" xlink:href="#DejaVuSans-48"/>
       <use x="127.246094" xlink:href="#DejaVuSans-49"/>
       <use x="190.869141" xlink:href="#DejaVuSans-56"/>
      </g>
     </g>
    </g>
    <g id="xtick_5">
     <g id="line2d_9">
      <path clip-path="url(#pb7b8ab8a1d)" d="M 495.811129 640.8 
L 495.811129 86.4 
" style="fill:none;stroke:#cccccc;stroke-linecap:round;stroke-width:0.8;"/>
     </g>
     <g id="line2d_10"/>
     <g id="text_5">
      <!-- 2019 -->
      <defs>
       <path d="M 10.984375 1.515625 
L 10.984375 10.5 
Q 14.703125 8.734375 18.5 7.8125 
Q 22.3125 6.890625 25.984375 6.890625 
Q 35.75 6.890625 40.890625 13.453125 
Q 46.046875 20.015625 46.78125 33.40625 
Q 43.953125 29.203125 39.59375 26.953125 
Q 35.25 24.703125 29.984375 24.703125 
Q 19.046875 24.703125 12.671875 31.3125 
Q 6.296875 37.9375 6.296875 49.421875 
Q 6.296875 60.640625 12.9375 67.421875 
Q 19.578125 74.21875 30.609375 74.21875 
Q 43.265625 74.21875 49.921875 64.515625 
Q 56.59375 54.828125 56.59375 36.375 
Q 56.59375 19.140625 48.40625 8.859375 
Q 40.234375 -1.421875 26.421875 -1.421875 
Q 22.703125 -1.421875 18.890625 -0.6875 
Q 15.09375 0.046875 10.984375 1.515625 
z
M 30.609375 32.421875 
Q 37.25 32.421875 41.125 36.953125 
Q 45.015625 41.5 45.015625 49.421875 
Q 45.015625 57.28125 41.125 61.84375 
Q 37.25 66.40625 30.609375 66.40625 
Q 23.96875 66.40625 20.09375 61.84375 
Q 16.21875 57.28125 16.21875 49.421875 
Q 16.21875 41.5 20.09375 36.953125 
Q 23.96875 32.421875 30.609375 32.421875 
z
" id="DejaVuSans-57"/>
      </defs>
      <g style="fill:#262626;" transform="translate(483.086129 651.898438)scale(0.1 -0.1)">
       <use xlink:href="#DejaVuSans-50"/>
       <use x="63.623047" xlink:href="#DejaVuSans-48"/>
       <use x="127.246094" xlink:href="#DejaVuSans-49"/>
       <use x="190.869141" xlink:href="#DejaVuSans-57"/>
      </g>
     </g>
    </g>
    <g id="xtick_6">
     <g id="line2d_11">
      <path clip-path="url(#pb7b8ab8a1d)" d="M 579.018421 640.8 
L 579.018421 86.4 
" style="fill:none;stroke:#cccccc;stroke-linecap:round;stroke-width:0.8;"/>
     </g>
     <g id="line2d_12"/>
     <g id="text_6">
      <!-- 2020 -->
      <g style="fill:#262626;" transform="translate(566.293421 651.898438)scale(0.1 -0.1)">
       <use xlink:href="#DejaVuSans-50"/>
       <use x="63.623047" xlink:href="#DejaVuSans-48"/>
       <use x="127.246094" xlink:href="#DejaVuSans-50"/>
       <use x="190.869141" xlink:href="#DejaVuSans-48"/>
      </g>
     </g>
    </g>
   </g>
   <g id="matplotlib.axis_2">
    <g id="ytick_1">
     <g id="line2d_13">
      <path clip-path="url(#pb7b8ab8a1d)" d="M 90 615.608967 
L 648 615.608967 
" style="fill:none;stroke:#cccccc;stroke-linecap:round;stroke-width:0.8;"/>
     </g>
     <g id="line2d_14"/>
     <g id="text_7">
      <!-- 0 -->
      <g style="fill:#262626;" transform="translate(80.1375 619.408186)scale(0.1 -0.1)">
       <use xlink:href="#DejaVuSans-48"/>
      </g>
     </g>
    </g>
    <g id="ytick_2">
     <g id="line2d_15">
      <path clip-path="url(#pb7b8ab8a1d)" d="M 90 525.93723 
L 648 525.93723 
" style="fill:none;stroke:#cccccc;stroke-linecap:round;stroke-width:0.8;"/>
     </g>
     <g id="line2d_16"/>
     <g id="text_8">
      <!-- 10000 -->
      <g style="fill:#262626;" transform="translate(54.6875 529.736449)scale(0.1 -0.1)">
       <use xlink:href="#DejaVuSans-49"/>
       <use x="63.623047" xlink:href="#DejaVuSans-48"/>
       <use x="127.246094" xlink:href="#DejaVuSans-48"/>
       <use x="190.869141" xlink:href="#DejaVuSans-48"/>
       <use x="254.492188" xlink:href="#DejaVuSans-48"/>
      </g>
     </g>
    </g>
    <g id="ytick_3">
     <g id="line2d_17">
      <path clip-path="url(#pb7b8ab8a1d)" d="M 90 436.265492 
L 648 436.265492 
" style="fill:none;stroke:#cccccc;stroke-linecap:round;stroke-width:0.8;"/>
     </g>
     <g id="line2d_18"/>
     <g id="text_9">
      <!-- 20000 -->
      <g style="fill:#262626;" transform="translate(54.6875 440.064711)scale(0.1 -0.1)">
       <use xlink:href="#DejaVuSans-50"/>
       <use x="63.623047" xlink:href="#DejaVuSans-48"/>
       <use x="127.246094" xlink:href="#DejaVuSans-48"/>
       <use x="190.869141" xlink:href="#DejaVuSans-48"/>
       <use x="254.492188" xlink:href="#DejaVuSans-48"/>
      </g>
     </g>
    </g>
    <g id="ytick_4">
     <g id="line2d_19">
      <path clip-path="url(#pb7b8ab8a1d)" d="M 90 346.593755 
L 648 346.593755 
" style="fill:none;stroke:#cccccc;stroke-linecap:round;stroke-width:0.8;"/>
     </g>
     <g id="line2d_20"/>
     <g id="text_10">
      <!-- 30000 -->
      <defs>
       <path d="M 40.578125 39.3125 
Q 47.65625 37.796875 51.625 33 
Q 55.609375 28.21875 55.609375 21.1875 
Q 55.609375 10.40625 48.1875 4.484375 
Q 40.765625 -1.421875 27.09375 -1.421875 
Q 22.515625 -1.421875 17.65625 -0.515625 
Q 12.796875 0.390625 7.625 2.203125 
L 7.625 11.71875 
Q 11.71875 9.328125 16.59375 8.109375 
Q 21.484375 6.890625 26.8125 6.890625 
Q 36.078125 6.890625 40.9375 10.546875 
Q 45.796875 14.203125 45.796875 21.1875 
Q 45.796875 27.640625 41.28125 31.265625 
Q 36.765625 34.90625 28.71875 34.90625 
L 20.21875 34.90625 
L 20.21875 43.015625 
L 29.109375 43.015625 
Q 36.375 43.015625 40.234375 45.921875 
Q 44.09375 48.828125 44.09375 54.296875 
Q 44.09375 59.90625 40.109375 62.90625 
Q 36.140625 65.921875 28.71875 65.921875 
Q 24.65625 65.921875 20.015625 65.03125 
Q 15.375 64.15625 9.8125 62.3125 
L 9.8125 71.09375 
Q 15.4375 72.65625 20.34375 73.4375 
Q 25.25 74.21875 29.59375 74.21875 
Q 40.828125 74.21875 47.359375 69.109375 
Q 53.90625 64.015625 53.90625 55.328125 
Q 53.90625 49.265625 50.4375 45.09375 
Q 46.96875 40.921875 40.578125 39.3125 
z
" id="DejaVuSans-51"/>
      </defs>
      <g style="fill:#262626;" transform="translate(54.6875 350.392974)scale(0.1 -0.1)">
       <use xlink:href="#DejaVuSans-51"/>
       <use x="63.623047" xlink:href="#DejaVuSans-48"/>
       <use x="127.246094" xlink:href="#DejaVuSans-48"/>
       <use x="190.869141" xlink:href="#DejaVuSans-48"/>
       <use x="254.492188" xlink:href="#DejaVuSans-48"/>
      </g>
     </g>
    </g>
    <g id="ytick_5">
     <g id="line2d_21">
      <path clip-path="url(#pb7b8ab8a1d)" d="M 90 256.922018 
L 648 256.922018 
" style="fill:none;stroke:#cccccc;stroke-linecap:round;stroke-width:0.8;"/>
     </g>
     <g id="line2d_22"/>
     <g id="text_11">
      <!-- 40000 -->
      <defs>
       <path d="M 37.796875 64.3125 
L 12.890625 25.390625 
L 37.796875 25.390625 
z
M 35.203125 72.90625 
L 47.609375 72.90625 
L 47.609375 25.390625 
L 58.015625 25.390625 
L 58.015625 17.1875 
L 47.609375 17.1875 
L 47.609375 0 
L 37.796875 0 
L 37.796875 17.1875 
L 4.890625 17.1875 
L 4.890625 26.703125 
z
" id="DejaVuSans-52"/>
      </defs>
      <g style="fill:#262626;" transform="translate(54.6875 260.721236)scale(0.1 -0.1)">
       <use xlink:href="#DejaVuSans-52"/>
       <use x="63.623047" xlink:href="#DejaVuSans-48"/>
       <use x="127.246094" xlink:href="#DejaVuSans-48"/>
       <use x="190.869141" xlink:href="#DejaVuSans-48"/>
       <use x="254.492188" xlink:href="#DejaVuSans-48"/>
      </g>
     </g>
    </g>
    <g id="ytick_6">
     <g id="line2d_23">
      <path clip-path="url(#pb7b8ab8a1d)" d="M 90 167.25028 
L 648 167.25028 
" style="fill:none;stroke:#cccccc;stroke-linecap:round;stroke-width:0.8;"/>
     </g>
     <g id="line2d_24"/>
     <g id="text_12">
      <!-- 50000 -->
      <g style="fill:#262626;" transform="translate(54.6875 171.049499)scale(0.1 -0.1)">
       <use xlink:href="#DejaVuSans-53"/>
       <use x="63.623047" xlink:href="#DejaVuSans-48"/>
       <use x="127.246094" xlink:href="#DejaVuSans-48"/>
       <use x="190.869141" xlink:href="#DejaVuSans-48"/>
       <use x="254.492188" xlink:href="#DejaVuSans-48"/>
      </g>
     </g>
    </g>
   </g>
   <g id="line2d_25">
    <path clip-path="url(#pb7b8ab8a1d)" d="M 115.363636 615.6 
L 116.48442 615.214412 
L 116.519784 615.196477 
L 116.706222 615.079904 
L 116.938224 614.909528 
L 117.782893 614.748118 
L 118.121931 614.586709 
L 118.46381 614.443235 
L 118.478657 614.4253 
L 119.25105 614.281825 
L 119.412828 614.192154 
L 119.627934 614.07558 
L 119.921441 613.959007 
L 120.051719 613.941073 
L 120.379633 613.833467 
L 120.980567 613.707926 
L 121.086457 613.555484 
L 122.817771 613.295436 
L 122.919468 613.223699 
L 123.294943 613.080224 
L 123.36876 613.026421 
L 123.990826 612.873979 
L 124.241479 612.703603 
L 124.871349 612.434588 
L 124.933633 612.344916 
L 125.611996 612.201441 
L 125.616415 612.17454 
L 125.983286 612.048999 
L 126.061573 612.004163 
L 126.3322 611.88759 
L 126.471575 611.833787 
L 127.132481 611.690312 
L 127.579641 611.385428 
L 128.031717 611.161249 
L 128.108135 611.098479 
L 128.737325 610.981906 
L 128.846708 610.865332 
L 128.972728 610.748759 
L 129.02288 610.703923 
L 129.477259 610.569416 
L 130.589093 610.291433 
L 130.623106 610.255564 
L 131.042934 610.121057 
L 131.074403 610.058287 
L 131.917201 609.905845 
L 131.994551 609.76237 
L 132.405118 609.627862 
L 132.48322 609.547158 
L 133.614605 609.340913 
L 133.623671 609.322978 
L 133.764387 609.206405 
L 133.86051 609.107766 
L 134.064768 608.982226 
L 134.422937 608.767014 
L 134.467934 608.713211 
L 135.391979 608.596637 
L 136.0102 608.363491 
L 136.131768 608.273819 
L 136.773372 608.121377 
L 137.184859 607.888231 
L 137.264175 607.816493 
L 137.619476 607.681986 
L 140.35834 606.991513 
L 140.457323 606.901841 
L 140.824833 606.767334 
L 140.874769 606.695596 
L 141.700926 606.561089 
L 141.773635 606.507286 
L 142.176315 606.372778 
L 142.496617 606.121697 
L 143.152608 605.98719 
L 143.381956 605.736109 
L 143.607786 605.619536 
L 143.664614 605.592634 
L 143.813538 605.467094 
L 143.873078 605.404323 
L 144.042036 605.278783 
L 144.209926 605.260849 
L 144.759113 605.135308 
L 145.396572 604.767654 
L 145.510879 604.669015 
L 145.639621 604.543475 
L 145.719527 604.444836 
L 146.320986 604.328263 
L 146.337775 604.292394 
L 146.547176 604.175821 
L 146.609993 604.104083 
L 146.985236 603.951641 
L 147.01451 603.906805 
L 147.931064 603.745396 
L 147.999794 603.664692 
L 148.325507 603.530184 
L 148.390955 603.413611 
L 148.6655 603.28807 
L 148.776087 603.243235 
L 149.085932 603.16253 
L 149.815078 602.848679 
L 150.232156 602.552762 
L 151.07972 602.391353 
L 151.18547 602.194075 
L 151.357705 602.068535 
L 151.423604 601.996797 
L 151.623715 601.871257 
L 151.988121 601.673979 
L 152.089234 601.51257 
L 152.665629 601.378062 
L 152.770108 601.252522 
L 152.969775 601.118014 
L 153.354902 600.992474 
L 153.642877 600.759327 
L 153.647552 600.75036 
L 154.272937 600.633787 
L 154.482132 600.508247 
L 154.9818 600.266133 
L 155.862524 600.14956 
L 155.971032 600.050921 
L 156.161016 599.92538 
L 156.30084 599.844676 
L 156.822229 599.575661 
L 156.891507 599.557726 
L 157.519259 599.441153 
L 157.521686 599.423219 
L 157.732274 599.306645 
L 157.757018 599.252842 
L 157.977049 599.127302 
L 157.977221 599.118335 
L 158.168532 599.001761 
L 158.23779 598.91209 
L 158.42965 598.786549 
L 158.482707 598.759648 
L 159.07792 598.643074 
L 159.130152 598.517534 
L 159.326395 598.391994 
L 159.350022 598.329223 
L 159.706864 598.194716 
L 159.848744 598.006405 
L 160.013973 597.889832 
L 160.037873 597.818094 
L 160.702251 597.701521 
L 160.743095 597.656685 
L 162.524416 597.423539 
L 162.542461 597.405604 
L 163.878952 597.280064 
L 163.947439 597.190392 
L 164.097497 597.073819 
L 164.192198 597.011049 
L 164.304566 596.894476 
L 164.410021 596.661329 
L 164.551913 596.535789 
L 164.617838 596.455084 
L 164.791124 596.338511 
L 164.81911 596.275741 
L 165.469186 596.159167 
L 165.506692 596.02466 
L 165.729768 595.908086 
L 165.788094 595.890152 
L 165.923963 595.764612 
L 166.011777 595.567334 
L 166.152012 595.450761 
L 166.195817 595.289351 
L 166.379867 595.172778 
L 166.416523 595.127942 
L 167.290743 595.011369 
L 167.472712 594.796157 
L 167.752463 594.464371 
L 167.81486 594.365733 
L 167.98223 594.249159 
L 168.076912 594.159488 
L 168.742858 594.033947 
L 168.877173 593.917374 
L 169.417996 593.307606 
L 169.529311 593.191033 
L 169.604637 593.07446 
L 170.228808 592.948919 
L 170.305156 592.751641 
L 170.469987 592.635068 
L 170.632159 592.473659 
L 170.731437 592.330184 
L 170.792196 592.267414 
L 170.904788 592.150841 
L 171.203882 591.684548 
L 171.859316 591.567974 
L 171.886231 591.532106 
L 172.063221 591.415532 
L 172.11351 591.334828 
L 172.300112 591.218255 
L 172.373987 591.065813 
L 172.502041 590.949239 
L 172.862278 590.581585 
L 173.636722 590.465012 
L 173.742121 590.142194 
L 173.911193 590.016653 
L 173.98821 589.909047 
L 174.110488 589.792474 
L 174.177862 589.586229 
L 174.309844 589.460689 
L 174.390719 589.146837 
L 175.006771 589.030264 
L 175.073351 588.770216 
L 175.384536 588.644676 
L 175.704342 588.474299 
L 175.81514 588.268054 
L 175.936476 588.151481 
L 175.984623 588.106645 
L 176.611398 587.963171 
L 176.712064 587.819696 
L 176.848875 587.694155 
L 177.127507 587.281665 
L 177.169192 587.236829 
L 177.305267 587.120256 
L 177.758686 586.627062 
L 178.204714 586.510488 
L 178.286517 586.331145 
L 178.418827 586.214572 
L 178.5321 585.936589 
L 178.65043 585.820016 
L 178.738917 585.515132 
L 178.877942 585.36269 
L 179.027048 585.111609 
L 179.118034 584.986069 
L 179.1707 584.76189 
L 179.781312 584.645316 
L 179.852485 584.340432 
L 180.000169 584.223859 
L 180.371301 583.766533 
L 180.47879 583.64996 
L 180.555325 583.515452 
L 180.72713 583.398879 
L 180.799132 583.1747 
L 181.41731 583.040192 
L 181.487998 582.932586 
L 181.595754 582.816013 
L 181.70066 582.484227 
L 181.841684 582.358687 
L 182.202202 581.58751 
L 182.291966 581.408167 
L 182.373978 581.201922 
L 182.973445 581.04948 
L 183.072744 580.816333 
L 183.188758 580.690793 
L 183.270483 580.421777 
L 183.460633 580.28727 
L 183.8201 579.507126 
L 183.933526 579.363651 
L 183.965563 579.282946 
L 184.585409 579.139472 
L 185.713539 577.722658 
L 186.169348 577.579183 
L 186.243151 577.33707 
L 186.394307 577.220496 
L 186.470309 576.98735 
L 186.629708 576.852842 
L 186.825784 576.628663 
L 186.902672 576.449319 
L 187.051744 576.305845 
L 187.321553 576.009928 
L 187.776515 575.866453 
L 187.899192 575.471898 
L 188.015372 575.346357 
L 188.792039 574.03715 
L 189.358847 573.920576 
L 189.607973 573.373579 
L 189.816144 573.122498 
L 189.912581 572.970056 
L 190.045687 572.826581 
L 190.217497 572.494796 
L 190.287499 572.369255 
L 190.34549 572.198879 
L 190.918997 572.073339 
L 191.022264 571.705685 
L 191.231285 571.409768 
L 191.387584 571.203523 
L 192.075875 570.45028 
L 192.089952 570.441313 
L 192.503376 570.32474 
L 192.61668 569.948118 
L 192.688468 569.858447 
L 192.76976 569.741873 
L 192.857432 569.526661 
L 193.016007 569.392154 
L 193.140343 569.15004 
L 193.250775 568.943795 
L 193.326225 568.746517 
L 193.47322 568.620977 
L 193.570971 568.38783 
L 194.13338 568.244355 
L 194.230648 567.697358 
L 194.39403 567.509047 
L 194.434376 567.464211 
L 194.822869 567.329704 
L 194.888005 566.953082 
L 195.081966 566.818575 
L 195.171656 566.61233 
L 195.969476 566.468855 
L 196.081722 566.172938 
L 196.202417 566.047398 
L 196.252116 565.91289 
L 196.348856 565.796317 
L 196.472704 565.625941 
L 196.60248 565.186549 
L 196.685083 565.061009 
L 196.752433 564.863731 
L 197.342618 564.711289 
L 197.425854 564.496077 
L 197.572823 564.370536 
L 197.650653 564.164291 
L 197.76358 564.002882 
L 198.007202 563.599359 
L 198.077718 563.402082 
L 198.13776 563.294476 
L 198.26065 563.177902 
L 198.301515 562.980624 
L 198.949007 562.83715 
L 199.042789 562.675741 
L 199.168255 562.559167 
L 199.275934 562.317054 
L 199.417491 562.191513 
L 199.530727 561.985268 
L 199.626375 561.859728 
L 199.754159 561.518975 
L 199.887783 561.31273 
L 199.955244 561.133387 
L 200.533009 560.989912 
L 200.620461 560.846437 
L 200.725381 560.765733 
L 200.803823 560.622258 
L 200.843071 560.433947 
L 201.01653 560.317374 
L 201.118798 560.111129 
L 201.247002 559.940753 
L 201.537348 559.133707 
L 202.13586 558.999199 
L 203.163492 557.923139 
L 203.730996 557.806565 
L 203.825979 557.573419 
L 203.987906 557.403042 
L 204.07625 557.214732 
L 204.196248 557.06229 
L 204.26839 556.847078 
L 205.332758 556.533227 
L 205.399448 556.273179 
L 205.552409 556.138671 
L 205.665086 555.88759 
L 205.804722 555.735148 
L 205.916821 555.340592 
L 206.106713 555.071577 
L 206.213745 554.990873 
L 206.317422 554.668054 
L 206.382258 554.605284 
L 206.913731 554.452842 
L 207.033296 554.094155 
L 207.162191 553.977582 
L 207.272195 553.627862 
L 207.416127 553.493355 
L 207.522508 553.367814 
L 207.661504 553.242274 
L 207.89888 552.659408 
L 208.116498 552.489031 
L 208.174726 552.246918 
L 208.502703 552.11241 
L 208.645928 551.628183 
L 209.027804 551.484708 
L 209.588931 550.103763 
L 210.077745 549.98719 
L 210.168757 549.780945 
L 210.175991 549.745076 
L 210.556947 549.610568 
L 210.684628 549.207046 
L 210.817476 549.081505 
L 210.923836 548.911129 
L 211.020138 548.776621 
L 211.130569 548.588311 
L 211.707617 548.471737 
L 211.891881 548.220657 
L 211.990162 548.086149 
L 212.093783 547.844035 
L 212.204077 547.718495 
L 212.31478 547.494315 
L 212.55474 547.081825 
L 213.147396 546.821777 
L 213.258031 546.696237 
L 213.37415 546.265813 
L 213.519974 546.104404 
L 214.323778 544.884868 
L 214.835616 544.768295 
L 215.1122 544.454444 
L 215.205172 544.284067 
L 215.358054 544.131625 
L 215.395025 543.988151 
L 215.888778 543.1004 
L 216.493292 542.983827 
L 216.596164 542.777582 
L 216.758378 542.580304 
L 216.868872 542.418895 
L 216.972327 542.266453 
L 217.014899 542.14988 
L 217.236559 542.015372 
L 217.52266 541.584948 
L 218.122272 541.423539 
L 218.225774 541.360769 
L 218.311699 541.226261 
L 218.421949 541.011049 
L 218.649415 540.634428 
L 218.817059 540.508887 
L 219.00269 540.08743 
L 219.205505 539.908086 
L 219.744661 539.782546 
L 219.91196 539.657006 
L 220.046551 539.432826 
L 220.191586 539.244516 
L 220.30845 539.074139 
L 220.636395 538.706485 
L 220.71803 538.571978 
L 221.252843 538.43747 
L 221.401696 538.177422 
L 221.782783 537.666293 
L 221.973696 537.217934 
L 222.236447 536.796477 
L 222.347678 536.635068 
L 222.881296 536.428823 
L 223.018758 536.150841 
L 223.23941 535.989432 
L 223.38721 535.854924 
L 223.493939 535.567974 
L 223.62084 535.298959 
L 223.896965 534.78783 
L 224.566729 534.653323 
L 224.995789 534.007686 
L 225.121579 533.855244 
L 225.63444 533.01233 
L 226.066505 532.868855 
L 226.181031 532.285989 
L 226.429339 531.945236 
L 226.563443 531.756926 
L 227.113736 530.788471 
L 227.223887 530.66293 
L 227.260705 530.591193 
L 227.668765 530.47462 
L 227.715548 530.169736 
L 227.929624 529.864852 
L 228.92132 528.3494 
L 229.257917 528.107286 
L 229.739383 527.425781 
L 229.854896 527.1747 
L 229.945362 527.031225 
L 230.918462 525.775821 
L 231.018969 525.614412 
L 231.128712 525.444035 
L 231.251837 525.130184 
L 231.385447 524.852202 
L 231.495208 524.565252 
L 231.792824 523.838911 
L 231.956563 523.632666 
L 232.550845 523.390552 
L 232.911991 522.960128 
L 233.052999 522.76285 
L 233.153526 522.628343 
L 233.225525 522.457966 
L 233.428458 522.260689 
L 233.593931 522.135148 
L 233.748602 522.081345 
L 234.070885 521.93787 
L 234.182609 521.794396 
L 234.303351 521.641954 
L 234.561849 521.417774 
L 234.66518 521.229464 
L 234.768493 521.085989 
L 235.021004 520.745236 
L 235.381038 520.673499 
L 235.676857 520.538991 
L 236.234858 519.776781 
L 236.313999 519.651241 
L 236.532305 519.364291 
L 236.625449 519.229784 
L 236.696297 519.193915 
L 237.199042 518.978703 
L 237.346784 518.718655 
L 237.439136 518.584147 
L 237.576441 518.386869 
L 237.689684 518.234428 
L 238.298747 517.696397 
L 238.831262 517.526021 
L 239.110243 517.086629 
L 239.274396 516.871417 
L 239.540432 516.32442 
L 239.748616 516.091273 
L 240.117018 515.768455 
L 240.44 515.607046 
L 240.537178 515.49944 
L 240.789623 515.284227 
L 240.88873 515.042114 
L 241.000858 514.782066 
L 241.106481 514.602722 
L 241.501215 514.109528 
L 241.949359 513.983987 
L 242.056178 513.867414 
L 242.522435 513.078303 
L 242.637806 512.86309 
L 242.839661 512.558207 
L 242.946804 512.432666 
L 243.056486 512.253323 
L 243.681111 511.751161 
L 243.857926 511.616653 
L 243.957065 511.509047 
L 244.44834 511.266934 
L 245.264313 511.141393 
L 245.438551 511.02482 
L 246.859262 510.558527 
L 246.982574 510.424019 
L 247.518686 510.047398 
L 247.650805 509.975661 
L 248.225576 509.751481 
L 248.440982 509.625941 
L 249.653181 508.451241 
L 250.027445 508.289832 
L 250.161834 508.236029 
L 250.306111 508.101521 
L 250.580498 507.913211 
L 250.74038 507.384147 
L 250.839579 507.303443 
L 250.954846 507.142034 
L 251.035159 507.070296 
L 251.566656 506.908887 
L 251.837491 506.514331 
L 252.085316 506.20048 
L 252.16288 506.128743 
L 252.296398 506.003203 
L 252.526215 505.447238 
L 252.776774 505.034748 
L 252.842282 504.918175 
L 253.20205 504.747798 
L 253.321972 504.48775 
L 253.437944 504.29944 
L 253.671938 503.976621 
L 253.897162 503.698639 
L 254.115557 503.25028 
L 254.602902 502.586709 
L 254.788838 502.452202 
L 254.995102 501.976942 
L 255.103728 501.761729 
L 255.543419 501.035388 
L 255.748941 500.900881 
L 255.828233 500.77534 
L 256.006378 500.631865 
L 256.194138 500.443555 
L 256.422552 500.255244 
L 256.688754 499.869656 
L 256.815818 499.744115 
L 258.487178 497.28711 
L 258.605239 497.018094 
L 258.926881 496.578703 
L 259.040618 496.148279 
L 259.762229 495.368135 
L 259.87333 495.081185 
L 259.992547 494.910809 
L 260.562785 493.673339 
L 260.889326 493.189111 
L 261.113793 493.045637 
L 261.204691 492.884227 
L 261.358845 492.704884 
L 261.486184 492.561409 
L 261.696532 492.435869 
L 262.0342 492.095116 
L 262.386314 491.709528 
L 262.814131 491.548118 
L 263.585337 490.525861 
L 263.780125 490.373419 
L 263.92453 490.301681 
L 264.428322 490.086469 
L 264.604987 489.844355 
L 264.825172 489.656045 
L 265.255063 489.261489 
L 265.625812 489.091113 
L 265.839976 489.073179 
L 266.288006 488.902802 
L 266.377029 488.822098 
L 266.64264 488.642754 
L 266.993865 488.257166 
L 267.666032 487.952282 
L 267.752543 487.934347 
L 268.058021 487.763971 
L 268.167234 487.629464 
L 268.792278 487.252842 
L 269.19208 487.127302 
L 269.644472 486.822418 
L 269.743784 486.696878 
L 269.880347 486.4996 
L 269.96829 486.311289 
L 270.19215 486.122978 
L 270.285769 486.024339 
L 270.545578 485.827062 
L 270.748715 485.701521 
L 271.202199 485.127622 
L 271.382556 484.885508 
L 271.778397 484.544756 
L 272.474126 484.141233 
L 272.59528 483.701841 
L 273.166204 483.154844 
L 274.446374 482.43747 
L 274.819511 481.917374 
L 274.883988 481.755965 
L 274.965936 481.406245 
L 275.335227 481.280705 
L 275.707448 480.859247 
L 275.81664 480.72474 
L 276.068731 480.392954 
L 276.691155 479.630745 
L 277.031675 479.48727 
L 277.136608 479.370697 
L 277.275788 479.20032 
L 277.385404 479.020977 
L 277.546117 478.859568 
L 277.771201 478.698159 
L 277.928397 478.536749 
L 277.987596 478.37534 
L 279.879633 476.034908 
L 279.98454 475.954203 
L 280.501963 475.523779 
L 280.709089 475.317534 
L 280.810657 475.147158 
L 280.948413 475.01265 
L 281.057422 474.824339 
L 282.678378 473.380624 
L 282.787583 473.192314 
L 283.507538 472.60048 
L 283.642589 472.439071 
L 283.842056 472.214892 
L 283.999305 472.053483 
L 284.412813 471.560288 
L 284.519239 471.36301 
L 285.61057 469.955164 
L 285.718882 469.802722 
L 285.833387 469.641313 
L 285.959143 469.479904 
L 286.0542 469.273659 
L 286.161821 468.986709 
L 286.523676 468.654924 
L 286.741544 468.484548 
L 286.966411 468.152762 
L 287.767065 467.058767 
L 288.438541 466.870456 
L 288.979175 466.35036 
L 289.088685 466.099279 
L 289.258314 465.919936 
L 289.645176 465.758527 
L 289.914661 465.615052 
L 290.65017 464.583827 
L 290.758649 464.413451 
L 291.08718 464.090633 
L 291.568263 463.68711 
L 291.765949 462.969736 
L 291.854848 462.727622 
L 291.935701 462.602082 
L 292.194711 462.064051 
L 292.678301 461.382546 
L 293.099991 461.265973 
L 293.47592 460.844516 
L 293.622612 460.710008 
L 294.005171 460.297518 
L 294.202944 460.046437 
L 294.687397 459.902962 
L 295.634302 458.190232 
L 295.763725 457.992954 
L 296.260116 457.822578 
L 296.799088 457.033467 
L 296.959624 456.898959 
L 297.057897 456.719616 
L 297.177895 456.513371 
L 297.52326 456.127782 
L 297.892809 455.957406 
L 298.333626 455.311769 
L 298.46635 455.015853 
L 298.667925 454.603363 
L 298.837746 454.146037 
L 298.937676 453.894956 
L 299.076149 453.706645 
L 299.602656 452.738191 
L 299.694362 452.531946 
L 299.832555 452.370536 
L 299.967822 452.182226 
L 300.065196 452.047718 
L 300.714474 451.151001 
L 301.09053 451.016493 
L 301.196747 450.864051 
L 302.38623 449.501041 
L 302.663413 449.366533 
L 304.203207 446.792954 
L 304.311195 446.631545 
L 304.518311 446.326661 
L 304.656649 445.994876 
L 305.337405 444.757406 
L 305.501258 444.622898 
L 305.599151 444.58703 
L 305.871807 444.461489 
L 306.927486 442.632186 
L 307.410049 442.479744 
L 307.602226 442.013451 
L 307.70586 441.816173 
L 307.796566 441.663731 
L 307.908048 441.385749 
L 308.855567 440.46213 
L 309.095189 440.336589 
L 309.315595 440.040673 
L 309.674569 439.511609 
L 309.883379 439.215693 
L 309.986095 439.00048 
L 310.824767 438.220336 
L 310.935805 438.148599 
L 311.040812 437.951321 
L 311.839204 436.52554 
L 312.025339 436.453803 
L 312.220769 436.328263 
L 312.327467 436.166853 
L 312.435423 435.960608 
L 312.842293 435.243235 
L 313.24481 434.714171 
L 313.766518 434.445156 
L 313.876962 434.283747 
L 314.088659 433.978863 
L 314.188591 433.727782 
L 314.295321 433.557406 
L 314.403496 433.342194 
L 314.5768 432.929704 
L 314.692735 432.786229 
L 315.009941 432.373739 
L 315.201268 432.203363 
L 315.420463 432.006085 
L 315.563773 431.79984 
L 315.697452 431.656365 
L 317.884595 428.141233 
L 318.8663 427.414892 
L 319.685821 426.464371 
L 320.177131 426.31193 
L 320.306575 426.096717 
L 320.507496 425.854604 
L 320.578542 425.755965 
L 320.714759 425.621457 
L 320.984115 425.531785 
L 321.832955 425.361409 
L 321.922872 425.110328 
L 322.021414 424.984788 
L 322.130948 424.832346 
L 322.25421 424.644035 
L 322.362747 424.455725 
L 322.48036 424.097038 
L 322.580013 423.738351 
L 322.699431 423.594876 
L 322.828741 423.155484 
L 322.903951 422.985108 
L 322.997823 422.859568 
L 323.073777 422.760929 
L 323.343077 422.635388 
L 323.61759 422.034588 
L 323.770292 421.711769 
L 323.880499 421.48759 
L 324.034566 420.985428 
L 324.619547 419.864532 
L 324.91677 419.738991 
L 325.041206 419.452042 
L 325.150128 419.236829 
L 325.268952 419.003683 
L 325.376785 418.779504 
L 325.521294 418.528423 
L 325.653527 418.402882 
L 325.768201 418.160769 
L 325.899374 418.017294 
L 326.06663 417.757246 
L 326.580425 417.604804 
L 326.742705 417.36269 
L 327.523982 416.358367 
L 328.37763 416.223859 
L 328.561144 416.017614 
L 328.983389 415.748599 
L 329.757977 415.605124 
L 329.983961 415.479584 
L 330.08826 415.291273 
L 330.537663 414.627702 
L 330.77433 414.439392 
L 330.859289 414.367654 
L 331.419155 414.197278 
L 331.500064 414.098639 
L 331.637297 413.973098 
L 331.747185 413.444035 
L 332.051848 412.914972 
L 332.346411 412.520416 
L 332.456264 412.323139 
L 332.992961 412.098959 
L 333.089063 411.973419 
L 333.184399 411.820977 
L 333.295635 411.605765 
L 333.477311 411.363651 
L 333.586734 411.211209 
L 333.829351 410.888391 
L 333.906569 410.771817 
L 333.977317 410.511769 
L 334.541444 410.305524 
L 334.646675 410.090312 
L 335.072724 409.301201 
L 335.157396 409.103923 
L 335.285489 408.978383 
L 335.978907 408.314812 
L 336.150482 408.180304 
L 336.394534 407.660208 
L 336.494916 407.436029 
L 336.598922 407.220817 
L 336.693454 407.041473 
L 336.799254 406.763491 
L 336.967653 406.413771 
L 337.073646 406.315132 
L 337.401143 406.046117 
L 337.730695 405.911609 
L 337.839348 405.705364 
L 337.931959 405.579824 
L 338.017066 405.445316 
L 338.126774 405.265973 
L 338.228496 405.086629 
L 338.591892 404.566533 
L 338.694328 404.360288 
L 338.750497 404.216813 
L 338.817071 404.145076 
L 339.36958 403.9747 
L 339.494626 403.696717 
L 339.595424 403.517374 
L 339.650278 403.373899 
L 339.725984 403.230424 
L 339.77944 403.104884 
L 339.887407 402.853803 
L 340.121224 402.414412 
L 340.230365 402.208167 
L 341.12167 401.428022 
L 341.201903 401.239712 
L 341.385188 401.078303 
L 341.536724 400.755484 
L 341.646058 400.486469 
L 341.753764 400.32506 
L 341.86001 400.181585 
L 342.071298 399.948439 
L 342.130822 399.921537 
L 342.307355 399.795997 
L 342.372014 399.571817 
L 342.480817 399.257966 
L 342.863131 398.594396 
L 343.003129 398.226741 
L 343.113737 397.948759 
L 343.198039 397.78735 
L 343.300104 397.608006 
L 343.609171 397.231385 
L 343.708072 397.123779 
L 344.27447 396.774059 
L 344.384065 396.666453 
L 345.371471 395.644195 
L 345.728645 395.518655 
L 345.960326 395.330344 
L 346.068058 395.034428 
L 346.74208 394.272218 
L 347.418237 394.101841 
L 347.638052 393.958367 
L 348.019057 393.66245 
L 348.289853 393.115452 
L 348.368709 392.927142 
L 348.525596 392.810568 
L 348.748382 392.478783 
L 348.972896 392.129063 
L 349.153915 391.985588 
L 350.046818 391.035068 
L 350.58594 390.810889 
L 351.047669 390.147318 
L 351.273099 389.761729 
L 351.797245 389.232666 
L 352.103225 389.089191 
L 352.359944 388.703603 
L 352.936807 387.88759 
L 353.044053 387.735148 
L 353.311617 387.600641 
L 353.755964 387.466133 
L 354.241301 386.811529 
L 354.597813 386.461809 
L 354.702888 386.228663 
L 354.884001 386.183827 
L 355.241667 386.031385 
L 355.604915 385.233307 
L 355.874418 384.964291 
L 355.969728 384.865653 
L 356.02716 384.722178 
L 356.261093 384.282786 
L 356.35725 384.11241 
L 356.919643 383.906165 
L 357.025766 383.673018 
L 357.170933 383.520576 
L 357.444349 383.152922 
L 357.598679 382.883907 
L 357.743149 382.668695 
L 357.955764 382.363811 
L 358.531278 382.211369 
L 358.583003 382.032026 
L 358.688207 381.92442 
L 359.075508 381.404323 
L 359.17838 381.216013 
L 359.350016 381.009768 
L 359.459614 380.695917 
L 359.727438 380.552442 
L 360.084753 380.426902 
L 360.187569 380.077182 
L 360.411044 379.691593 
L 360.498422 379.350841 
L 360.64375 379.180464 
L 360.714171 379.019055 
L 360.862977 378.884548 
L 361.13587 378.472058 
L 361.236787 378.346517 
L 361.756202 377.969896 
L 361.868169 377.665012 
L 361.984328 377.51257 
L 362.083195 377.360128 
L 362.291759 377.126982 
L 362.40181 376.875901 
L 362.499925 376.723459 
L 362.706052 376.194396 
L 362.714284 376.122658 
L 363.219382 375.979183 
L 363.543684 375.432186 
L 363.651498 375.163171 
L 363.816466 374.831385 
L 363.920953 374.678943 
L 364.460858 373.827062 
L 364.567102 373.656685 
L 364.862768 373.504243 
L 364.966548 373.315933 
L 365.076684 373.055885 
L 365.168302 372.939311 
L 365.324696 372.786869 
L 365.9778 371.979824 
L 366.437902 371.827382 
L 366.567499 371.683907 
L 366.665812 371.5494 
L 366.753679 371.414892 
L 366.862965 371.271417 
L 367.175082 370.832026 
L 367.266017 370.688551 
L 367.373895 370.589912 
L 367.615356 370.320897 
L 368.132583 370.204323 
L 368.30362 370.02498 
L 368.831909 369.379343 
L 368.940029 369.065492 
L 369.051201 368.796477 
L 369.134466 368.653002 
L 369.188144 368.527462 
L 369.732047 368.186709 
L 369.823652 367.890793 
L 369.947139 367.720416 
L 370.052755 367.514171 
L 370.685857 366.536749 
L 370.706746 366.456045 
L 371.282281 366.321537 
L 371.305014 366.276701 
L 371.654492 366.142194 
L 371.917264 365.77454 
L 372.225115 365.577262 
L 372.319486 365.442754 
L 372.423033 365.299279 
L 372.488987 365.182706 
L 373.146253 365.003363 
L 373.279293 364.635709 
L 373.384358 364.214251 
L 373.639254 363.909367 
L 373.733197 363.703122 
L 373.810323 363.559648 
L 373.882907 363.42514 
L 374.32312 363.227862 
L 374.477767 363.057486 
L 374.558618 362.88711 
L 374.665543 362.609127 
L 374.800312 362.340112 
L 374.911083 362.008327 
L 375.009288 361.793114 
L 375.142829 361.551001 
L 375.780628 360.869496 
L 376.083376 360.752922 
L 376.573382 359.802402 
L 376.744023 359.703763 
L 376.900826 359.569255 
L 377.010547 359.1747 
L 377.962194 358.53803 
L 378.073248 358.28695 
L 378.166312 358.134508 
L 378.277002 357.838591 
L 378.478867 357.479904 
L 378.586011 357.381265 
L 378.735637 357.17502 
L 378.823976 357.04948 
L 379.198227 356.807366 
L 379.303616 356.556285 
L 379.833593 355.946517 
L 379.937707 355.551962 
L 380.081771 355.336749 
L 380.152852 355.247078 
L 380.238537 355.121537 
L 380.574279 354.82562 
L 380.837046 354.70008 
L 380.94344 354.538671 
L 381.048856 354.35036 
L 381.422035 353.695757 
L 381.773806 353.05012 
L 382.523738 352.736269 
L 382.631361 352.601761 
L 382.766597 352.449319 
L 382.876197 352.135468 
L 383.044781 351.839552 
L 383.17266 351.534668 
L 383.253247 351.40016 
L 383.35942 351.05044 
L 383.478666 350.781425 
L 383.587282 350.57518 
L 383.709705 350.431705 
L 383.820825 350.395837 
L 384.010261 350.270296 
L 384.113528 350.207526 
L 384.275716 349.857806 
L 384.381065 349.696397 
L 384.440571 349.463251 
L 384.548958 349.21217 
L 384.808498 348.996958 
L 384.956116 348.530665 
L 385.325203 347.902962 
L 385.447655 347.68775 
L 385.944696 347.060048 
L 386.178136 346.710328 
L 386.60594 346.172298 
L 386.706054 346.10056 
L 387.077384 346.073659 
L 387.377159 345.921217 
L 387.479677 345.670136 
L 387.604863 345.490793 
L 387.931597 345.159007 
L 388.060368 345.015532 
L 388.138612 344.827222 
L 388.408107 344.665813 
L 388.482697 344.647878 
L 389.062349 344.522338 
L 389.271726 344.172618 
L 389.328105 344.002242 
L 389.432639 343.8498 
L 389.589426 343.724259 
L 389.788207 343.634588 
L 389.869995 343.473179 
L 389.973051 343.114492 
L 390.02056 342.926181 
L 390.12049 342.594396 
L 390.428612 342.289512 
L 390.510234 342.056365 
L 390.708324 341.930825 
L 390.838287 341.778383 
L 390.948558 341.536269 
L 391.110571 341.383827 
L 391.457986 340.854764 
L 391.578892 340.783026 
L 391.648155 340.747158 
L 391.994205 340.621617 
L 392.507006 339.877342 
L 392.614205 339.769736 
L 393.06194 339.124099 
L 393.518546 338.989592 
L 393.83022 338.469496 
L 393.938258 338.281185 
L 394.138656 337.886629 
L 394.232924 337.761089 
L 394.354817 337.617614 
L 394.450396 337.393435 
L 394.554212 337.232026 
L 394.671857 337.043715 
L 395.184729 336.801601 
L 395.86878 335.635869 
L 395.956074 335.465492 
L 396.077373 335.268215 
L 396.225002 335.079904 
L 396.316275 334.981265 
L 396.712438 334.828823 
L 396.822065 334.676381 
L 397.34049 333.698959 
L 397.646578 333.044355 
L 398.236794 332.524259 
L 398.427415 332.36285 
L 398.646066 331.968295 
L 398.728096 331.806886 
L 398.83524 331.654444 
L 399.023177 331.277822 
L 399.12597 331.035709 
L 399.23214 330.847398 
L 399.597528 330.363171 
L 399.938159 330.228663 
L 400.133214 329.798239 
L 400.332436 329.403683 
L 400.533301 329.152602 
L 400.643046 328.740112 
L 400.879188 328.291753 
L 400.986667 328.103443 
L 401.418666 327.76269 
L 401.517477 327.628183 
L 401.654597 327.341233 
L 401.766537 327.117054 
L 401.876805 326.955645 
L 402.055784 326.695596 
L 402.164247 326.46245 
L 402.195391 326.310008 
L 402.294137 325.98719 
L 402.470171 325.798879 
L 402.759584 325.359488 
L 402.869102 325.081505 
L 403.200736 324.677982 
L 403.389987 324.319295 
L 403.512101 324.014412 
L 403.659041 323.655725 
L 403.709096 323.503283 
L 403.825978 323.198399 
L 404.289391 322.947318 
L 404.711322 322.821777 
L 404.861442 322.615532 
L 405.111578 322.409287 
L 405.222086 322.27478 
L 405.355274 322.122338 
L 406.143883 321.602242 
L 406.420172 321.467734 
L 406.754531 321.180785 
L 407.124817 321.028343 
L 408.325752 320.588951 
L 408.456289 320.508247 
L 408.552084 320.382706 
L 408.629197 320.14956 
L 408.728934 319.961249 
L 408.824165 319.808807 
L 409.050407 319.432186 
L 409.148089 319.136269 
L 409.201081 318.983827 
L 409.301472 318.750681 
L 409.606202 318.383026 
L 409.702462 318.105044 
L 409.826349 317.907766 
L 410.401845 317.172458 
L 412.216926 316.464051 
L 413.002139 316.347478 
L 413.477219 315.495596 
L 413.915638 315.118975 
L 414.292712 314.957566 
L 415.336046 313.540753 
L 415.689769 313.226902 
L 415.950887 313.101361 
L 416.627661 312.303283 
L 416.815899 311.926661 
L 416.951406 311.729384 
L 417.034144 311.594876 
L 417.689583 311.289992 
L 417.975437 310.958207 
L 418.081113 310.78783 
L 418.166128 310.66229 
L 418.274359 310.518815 
L 418.638296 309.918014 
L 419.182787 309.756605 
L 419.292479 309.415853 
L 420.539602 308.088711 
L 420.761174 307.954203 
L 421.080927 307.281665 
L 421.190598 307.102322 
L 422.156688 305.882786 
L 422.403906 305.721377 
L 422.485886 305.568935 
L 422.586022 305.42546 
L 422.712601 305.183347 
L 423.479036 304.161089 
L 424.127616 303.99968 
L 424.26088 303.820336 
L 424.357008 303.667894 
L 424.466848 303.479584 
L 424.585422 303.255404 
L 424.837239 302.627702 
L 424.900597 302.47526 
L 425.038885 302.161409 
L 425.180179 301.991033 
L 425.277966 301.820657 
L 425.446149 301.65028 
L 425.671913 301.273659 
L 425.776872 300.932906 
L 425.936255 300.610088 
L 426.065853 300.35004 
L 426.608713 299.820977 
L 427.156861 299.704404 
L 427.422317 299.435388 
L 427.881793 299.273979 
L 428.060854 299.17534 
L 428.989918 298.771817 
L 429.096264 298.63731 
L 429.86214 298.027542 
L 430.350419 297.902002 
L 430.448808 297.713691 
L 430.557949 297.39984 
L 431.243448 296.027862 
L 431.709241 295.785749 
L 431.999248 295.364291 
L 432.104727 295.140112 
L 433.222421 293.660528 
L 433.47509 293.526021 
L 434.522063 292.154043 
L 434.570856 292.10024 
L 434.991608 291.965733 
L 435.412895 291.445637 
L 435.518075 291.239392 
L 435.633277 291.08695 
L 435.735012 290.979343 
L 435.98804 290.593755 
L 436.137433 290.279904 
L 436.615915 290.064692 
L 436.782256 289.750841 
L 436.937193 289.589432 
L 437.02031 289.454924 
L 437.408875 288.665813 
L 437.45003 288.531305 
L 437.55411 288.342994 
L 437.790015 288.118815 
L 438.217502 287.97534 
L 438.253304 287.813931 
L 438.36107 287.571817 
L 438.566891 287.240032 
L 438.677659 287.015853 
L 438.908574 286.504724 
L 439.15751 286.181906 
L 439.26611 286.029464 
L 439.517445 285.894956 
L 439.750225 285.760448 
L 440.618875 284.809928 
L 440.6966 284.711289 
L 440.835342 284.576781 
L 440.890497 284.540913 
L 441.425241 284.361569 
L 441.451597 284.209127 
L 441.538987 284.07462 
L 441.722981 283.904243 
L 441.899443 283.581425 
L 442.010463 283.357246 
L 442.233631 282.998559 
L 442.362907 282.828183 
L 442.44657 282.684708 
L 442.542978 282.577102 
L 443.12826 282.155645 
L 443.237884 281.931465 
L 443.406863 281.572778 
L 443.518128 281.3755 
L 443.767344 281.070616 
L 443.920645 280.918175 
L 444.06625 280.667094 
L 444.179707 280.514652 
L 444.98063 279.895917 
L 445.087835 279.66277 
L 445.214598 279.510328 
L 445.323035 279.375821 
L 445.457141 279.115773 
L 445.563659 278.927462 
L 445.867127 278.766053 
L 446.242022 278.577742 
L 447.581658 276.954684 
L 447.915885 276.802242 
L 448.37057 275.941393 
L 448.591451 275.797918 
L 448.653709 275.690312 
L 449.46617 275.457166 
L 449.767422 275.098479 
L 450.129583 274.93707 
L 451.374523 274.390072 
L 451.479561 273.959648 
L 451.533379 273.789271 
L 451.664947 273.547158 
L 451.773774 273.358847 
L 451.840469 273.134668 
L 451.9508 272.847718 
L 452.034886 272.659408 
L 452.139415 272.533867 
L 452.359934 272.408327 
L 452.593287 272.273819 
L 452.704199 272.184147 
L 452.828577 272.031705 
L 453.020693 271.852362 
L 453.200714 271.690953 
L 453.341887 271.529544 
L 453.472283 271.3502 
L 453.58482 271.233627 
L 453.889689 270.955645 
L 454.265441 270.821137 
L 454.367767 270.605925 
L 454.51148 270.390713 
L 454.700525 270.166533 
L 454.927989 269.98719 
L 455.02838 269.816813 
L 455.230169 269.682306 
L 455.414863 269.538831 
L 455.760967 269.305685 
L 455.872276 269.09944 
L 456.105001 268.785588 
L 456.275738 268.534508 
L 456.536845 268.220657 
L 456.638614 268.041313 
L 456.794591 267.853002 
L 456.899217 267.646757 
L 457.183971 267.530184 
L 457.483357 267.386709 
L 457.677671 267.198399 
L 457.890858 267.028022 
L 458.442425 266.472058 
L 458.527382 266.409287 
L 459.066351 266.256845 
L 459.356181 265.934027 
L 460.453469 265.10008 
L 460.672189 264.97454 
L 461.660589 263.656365 
L 461.978099 263.593595 
L 462.238816 263.468054 
L 462.336572 263.270777 
L 462.478211 263.127302 
L 462.568339 262.965893 
L 462.721897 262.831385 
L 463.230974 262.140913 
L 463.325893 262.051241 
L 463.930487 261.898799 
L 464.178317 261.683587 
L 464.282608 261.378703 
L 464.518848 261.011049 
L 464.62563 260.894476 
L 464.716576 260.733066 
L 464.829097 260.49992 
L 465.107795 260.410248 
L 465.473233 260.284708 
L 465.575488 260.069496 
L 465.683945 259.863251 
L 466.212228 259.056205 
L 466.402044 258.823058 
L 466.498385 258.751321 
L 466.884739 258.589912 
L 467.117838 258.276061 
L 467.235388 258.105685 
L 468.458611 256.742674 
L 468.848661 256.446757 
L 468.958699 256.258447 
L 469.346523 255.801121 
L 469.427487 255.684548 
L 469.561979 255.541073 
L 470.515351 255.065813 
L 470.620603 254.985108 
L 470.880169 254.778863 
L 471.413444 254.572618 
L 471.823955 254.429143 
L 472.716328 253.729704 
L 472.77996 253.684868 
L 473.435608 253.469656 
L 473.539934 253.299279 
L 473.641875 253.0751 
L 473.755187 252.608807 
L 473.904739 252.438431 
L 474.016545 252.160448 
L 474.06498 251.972138 
L 474.1712 251.685188 
L 474.253914 251.523779 
L 474.440531 251.308567 
L 474.692702 251.174059 
L 474.774846 251.120256 
L 475.025547 250.958847 
L 475.155511 250.716733 
L 475.339598 250.510488 
L 475.438306 250.358046 
L 475.506688 250.214572 
L 475.606396 249.945556 
L 475.762803 249.703443 
L 475.861934 249.604804 
L 476.725064 249.120576 
L 477.150425 248.717054 
L 477.260616 248.636349 
L 477.424477 248.47494 
L 477.553164 248.259728 
L 477.655133 248.080384 
L 478.228207 247.739632 
L 478.334857 247.623058 
L 478.508929 247.345076 
L 478.604102 247.228503 
L 478.765347 247.031225 
L 478.938717 246.833947 
L 479.044212 246.663571 
L 479.149527 246.47526 
L 479.434079 246.340753 
L 479.83967 246.215212 
L 479.960671 245.901361 
L 480.230464 245.623379 
L 480.487883 245.246757 
L 480.598309 245.166053 
L 480.77461 244.959808 
L 480.863574 244.914972 
L 481.337486 244.717694 
L 481.562863 244.323139 
L 481.670368 244.125861 
L 481.765179 243.991353 
L 481.884399 243.829944 
L 482.532986 242.969095 
L 482.968395 242.789752 
L 483.179102 242.493835 
L 483.448979 242.260689 
L 483.551015 242.000641 
L 483.802731 241.713691 
L 485.246455 240.404484 
L 485.369517 240.243074 
L 485.469355 239.974059 
L 485.729006 239.579504 
L 486.205408 239.427062 
L 486.261154 239.391193 
L 486.597273 239.256685 
L 486.730285 239.158046 
L 487.429723 238.969736 
L 487.836934 238.844195 
L 488.028364 238.700721 
L 488.371824 238.333066 
L 488.471461 238.117854 
L 488.589739 237.965412 
L 488.792367 237.696397 
L 488.992631 237.597758 
L 489.364583 237.472218 
L 489.436783 237.257006 
L 489.544064 237.068695 
L 490.529016 236.270616 
L 490.92568 236.154043 
L 492.083168 235.095917 
L 492.608016 234.916573 
L 493.75186 234.001922 
L 494.579862 233.813611 
L 494.776609 233.634267 
L 494.898367 233.553563 
L 496.542318 232.540272 
L 496.750916 232.19952 
L 496.847778 232.056045 
L 497.370325 231.715292 
L 497.479642 231.544916 
L 497.882972 231.006886 
L 498.057051 230.845476 
L 498.317826 230.54956 
L 498.48461 230.397118 
L 498.952564 230.190873 
L 500.460678 228.684388 
L 500.780961 228.531946 
L 501.243406 228.047718 
L 502.141185 227.339311 
L 502.249888 227.213771 
L 502.356511 226.998559 
L 503.396716 225.743155 
L 503.690134 225.590713 
L 504.058037 225.025781 
L 504.168684 224.945076 
L 504.485258 224.640192 
L 504.575003 224.577422 
L 504.675532 224.42498 
L 504.786354 224.36221 
L 505.192813 224.209768 
L 505.375789 224.039392 
L 505.605812 223.761409 
L 505.710288 223.573098 
L 506.133375 222.981265 
L 506.240598 222.792954 
L 506.611495 222.479103 
L 506.935622 222.344596 
L 507.074003 222.138351 
L 507.213157 221.985909 
L 507.319065 221.761729 
L 507.446639 221.582386 
L 507.912052 220.811209 
L 508.001987 220.622898 
L 508.534911 220.416653 
L 508.645596 220.048999 
L 508.774241 219.833787 
L 508.878083 219.502002 
L 509.117004 219.206085 
L 509.360787 218.838431 
L 509.600055 218.560448 
L 510.151979 218.381105 
L 510.294541 218.103122 
L 511.270254 216.426261 
L 512.047747 216.022738 
L 512.912463 215.556445 
L 513.299985 215.421938 
L 513.78729 214.7494 
L 513.891238 214.480384 
L 514.088922 214.310008 
L 514.185448 214.148599 
L 515.205645 213.476061 
L 515.619716 213.018735 
L 515.822705 212.794556 
L 515.931419 212.660048 
L 516.11321 212.534508 
L 516.417372 212.382066 
L 517.051057 211.377742 
L 517.154829 211.180464 
L 517.2924 210.965252 
L 517.402182 210.75004 
L 517.580755 210.46309 
L 518.118639 210.104404 
L 518.338058 209.790552 
L 518.42721 209.584307 
L 518.624453 209.4498 
L 518.732433 209.288391 
L 519.509754 208.481345 
L 519.635763 208.346837 
L 519.834905 207.880544 
L 519.946178 207.746037 
L 520.118139 207.503923 
L 520.224325 207.351481 
L 520.874596 206.759648 
L 521.218894 206.607206 
L 521.320803 206.463731 
L 521.591517 206.131946 
L 521.693107 205.943635 
L 521.823973 205.728423 
L 522.083238 205.289031 
L 522.267157 205.073819 
L 522.40807 204.930344 
L 523.140295 204.284708 
L 523.232423 204.105364 
L 523.371532 203.970857 
L 523.480449 203.657006 
L 523.72868 203.334187 
L 523.833826 203.190713 
L 524.447939 202.751321 
L 525.151486 201.495917 
L 525.207298 201.334508 
L 525.306975 201.191033 
L 525.4422 200.975821 
L 525.532753 200.751641 
L 525.969628 200.563331 
L 526.094972 200.419856 
L 526.198488 200.195677 
L 526.710929 199.630745 
L 526.80922 199.496237 
L 526.900528 199.343795 
L 527.005065 199.128583 
L 527.078396 198.994075 
L 527.458264 198.778863 
L 527.65719 198.635388 
L 528.058842 198.231865 
L 528.165534 198.106325 
L 528.87411 197.738671 
L 529.39843 197.577262 
L 529.492843 197.397918 
L 529.646643 197.236509 
L 529.738771 196.940592 
L 529.834065 196.815052 
L 529.926505 196.617774 
L 530.088339 196.438431 
L 530.193369 196.223219 
L 530.294399 196.097678 
L 530.393941 195.828663 
L 531.091256 195.434107 
L 531.235283 195.308567 
L 531.755382 195.147158 
L 531.785613 195.120256 
L 532.856023 194.922978 
L 533.268466 194.680865 
L 533.376824 194.411849 
L 533.483384 194.160769 
L 533.576264 193.981425 
L 534.016543 193.694476 
L 536.395829 191.497518 
L 536.49491 191.345076 
L 536.586737 191.156765 
L 536.737431 190.878783 
L 537.172494 190.627702 
L 537.261743 190.466293 
L 537.344101 190.331785 
L 537.504568 190.170376 
L 537.583926 190.044836 
L 537.682788 189.910328 
L 537.831883 189.677182 
L 537.882801 189.551641 
L 537.934444 189.479904 
L 538.175029 189.345396 
L 538.388271 189.210889 
L 538.811777 189.067414 
L 539.887733 187.480224 
L 540.472264 187.148439 
L 540.584027 186.933227 
L 540.685949 186.816653 
L 540.792304 186.646277 
L 540.909258 186.547638 
L 541.219514 186.206886 
L 541.477131 186.000641 
L 542.066453 185.785428 
L 542.249854 185.668855 
L 542.554733 185.372938 
L 542.655421 185.193595 
L 542.762691 185.05012 
L 542.870808 184.808006 
L 542.971738 184.646597 
L 543.186453 184.431385 
L 543.583569 184.296878 
L 543.711498 184.108567 
L 543.803033 183.983026 
L 543.908522 183.767814 
L 544.044188 183.534668 
L 544.154986 183.364291 
L 544.375919 182.889031 
L 544.628589 182.673819 
L 544.731558 182.539311 
L 545.292004 182.207526 
L 545.401889 182.090953 
L 545.619438 181.62466 
L 545.76547 181.445316 
L 545.865849 181.221137 
L 545.955781 181.023859 
L 546.058709 180.835548 
L 546.987783 180.127142 
L 547.083689 179.920897 
L 547.202714 179.741553 
L 547.291185 179.62498 
L 547.421938 179.481505 
L 547.531907 179.355965 
L 547.617571 179.203523 
L 547.72791 179.015212 
L 547.881077 178.73723 
L 548.325279 178.548919 
L 548.605167 178.199199 
L 548.714142 177.97502 
L 548.963513 177.553563 
L 549.121376 177.365252 
L 549.229744 177.042434 
L 549.286983 176.907926 
L 549.39237 176.683747 
L 550.015195 176.369896 
L 550.249065 176.002242 
L 550.375216 175.858767 
L 550.557591 175.428343 
L 550.679568 175.213131 
L 550.786385 174.944115 
L 550.971691 174.450921 
L 551.067734 174.397118 
L 552.307356 173.760448 
L 552.390241 173.670777 
L 552.592687 173.536269 
L 552.593098 173.527302 
L 553.066279 173.392794 
L 553.349687 173.258287 
L 553.462823 173.132746 
L 553.565061 172.944436 
L 553.6543 172.765092 
L 553.763433 172.227062 
L 554.263091 171.66213 
L 555.081325 171.231705 
L 555.141622 171.151001 
L 555.339395 171.007526 
L 555.905097 170.317054 
L 556.324387 170.173579 
L 556.454842 170.039071 
L 556.562814 169.868695 
L 556.638884 169.734187 
L 556.763373 169.671417 
L 556.849834 169.554844 
L 556.954136 169.330665 
L 557.111537 169.133387 
L 557.219821 168.918175 
L 557.378138 168.765733 
L 557.815699 168.559488 
L 557.915753 168.48775 
L 558.822287 167.644836 
L 558.923201 167.465492 
L 559.033418 167.322018 
L 559.124216 167.241313 
L 559.573097 167.008167 
L 559.704121 166.828823 
L 559.811906 166.694315 
L 559.915401 166.497038 
L 560.075288 166.201121 
L 560.202104 166.07558 
L 560.26533 165.932106 
L 560.358782 165.689992 
L 560.481981 165.510649 
L 560.549622 165.331305 
L 561.622776 164.228343 
L 561.730246 164.040032 
L 561.791003 163.878623 
L 561.901244 163.779984 
L 562.065479 163.591673 
L 563.414257 162.390072 
L 563.522596 162.17486 
L 563.623159 162.040352 
L 563.731688 161.878943 
L 564.401576 161.600961 
L 564.511949 161.340913 
L 565.525996 160.506966 
L 565.972473 160.327622 
L 566.093569 160.121377 
L 566.247833 159.906165 
L 566.351132 159.708887 
L 566.506732 159.484708 
L 566.612862 159.269496 
L 566.684228 159.117054 
L 566.794459 158.883907 
L 566.930565 158.641793 
L 567.129982 158.390713 
L 567.331987 158.283106 
L 567.523546 158.121697 
L 567.659122 157.942354 
L 567.794854 157.754043 
L 567.897232 157.5747 
L 568.013843 157.386389 
L 568.114472 156.93803 
L 568.24795 156.731785 
L 568.351471 156.27446 
L 568.580919 155.92474 
L 568.692184 155.844035 
L 570.142038 155.377742 
L 570.214506 155.261169 
L 570.683138 155.09976 
L 570.841938 154.911449 
L 570.952053 154.803843 
L 571.3007 154.436189 
L 571.402081 154.265813 
L 572.437027 153.647078 
L 572.541514 153.557406 
L 572.633396 153.431865 
L 573.034259 152.983507 
L 573.104791 152.768295 
L 573.563267 152.302002 
L 573.932439 152.167494 
L 574.056295 152.015052 
L 574.220087 151.871577 
L 574.312017 151.728102 
L 574.461645 151.566693 
L 574.546905 151.494956 
L 574.671244 151.351481 
L 574.779071 151.208006 
L 574.921325 151.055564 
L 575.092608 151.001761 
L 575.235537 150.867254 
L 575.716124 150.490633 
L 575.815819 150.365092 
L 576.136955 150.140913 
L 576.240718 150.051241 
L 576.871678 149.638751 
L 577.250947 149.486309 
L 577.353244 149.405604 
L 577.51031 149.244195 
L 577.611003 149.145556 
L 577.8976 148.957246 
L 578.029564 148.894476 
L 578.688136 148.62546 
L 579.690948 148.132266 
L 579.789651 148.042594 
L 580.150865 147.872218 
L 580.473683 147.576301 
L 580.581634 147.379023 
L 580.788534 146.84996 
L 580.898142 146.356765 
L 581.027926 146.159488 
L 581.126928 145.872538 
L 581.310363 145.684227 
L 581.410409 145.585588 
L 581.962863 145.415212 
L 582.065735 145.316573 
L 582.223132 145.092394 
L 582.864128 144.330184 
L 583.355087 144.0253 
L 583.544103 143.881825 
L 583.742622 143.738351 
L 583.838415 143.630745 
L 584.07756 143.433467 
L 584.18855 143.343795 
L 584.52148 143.020977 
L 584.621143 142.949239 
L 585.821765 142.213931 
L 585.908183 141.953883 
L 586.009409 141.819376 
L 586.172623 141.55036 
L 587.084172 141.0751 
L 587.236645 140.967494 
L 587.470262 140.761249 
L 587.556855 140.689512 
L 587.585878 140.563971 
L 587.648178 140.402562 
L 587.736805 140.232186 
L 587.89733 140.052842 
L 587.998962 139.945236 
L 588.340596 139.783827 
L 588.448668 139.658287 
L 588.61704 139.559648 
L 588.686153 139.416173 
L 589.005811 139.093355 
L 589.057599 138.931946 
L 589.1664 138.770536 
L 590.535299 137.927622 
L 590.636501 137.820016 
L 590.694444 137.64964 
L 590.821345 137.407526 
L 591.586078 136.833627 
L 591.693752 136.734988 
L 591.974147 136.421137 
L 592.156437 136.214892 
L 592.281662 136.053483 
L 592.38183 135.981745 
L 593.154777 135.497518 
L 593.257322 135.318175 
L 593.419035 135.1747 
L 593.889907 134.591833 
L 593.995005 134.457326 
L 594.935396 133.793755 
L 595.071518 133.739952 
L 595.551353 133.533707 
L 595.995432 133.372298 
L 596.552973 133.192954 
L 596.654818 132.861169 
L 596.850977 132.717694 
L 596.946556 132.47558 
L 597.402663 132.143795 
L 597.491601 132.081025 
L 597.909893 131.829944 
L 598.103658 131.596797 
L 598.421174 131.139472 
L 598.58423 130.969095 
L 599.375849 130.520737 
L 599.469349 130.395196 
L 599.608218 130.269656 
L 599.820474 130.081345 
L 599.929815 130.000641 
L 600.132493 129.830264 
L 600.263544 129.677822 
L 600.367004 129.561249 
L 601.78166 128.296878 
L 602.368227 127.722978 
L 602.6505 127.579504 
L 603.361166 126.9249 
L 603.864671 126.620016 
L 604.262697 126.44964 
L 604.3493 126.333066 
L 604.778838 126.064051 
L 604.890417 125.902642 
L 605.009671 125.81297 
L 605.206156 125.597758 
L 606.675078 124.548599 
L 606.759681 124.405124 
L 607.591741 124.064371 
L 607.771065 123.920897 
L 608.152163 123.714652 
L 608.39488 123.481505 
L 608.489829 123.355965 
L 608.836557 123.104884 
L 609.070325 122.961409 
L 609.256309 122.782066 
L 609.35641 122.710328 
L 609.556162 122.504083 
L 609.639697 122.396477 
L 609.855171 122.253002 
L 609.887012 122.118495 
L 609.997085 122.046757 
L 610.124495 121.948118 
L 610.268664 121.804644 
L 610.353885 121.723939 
L 610.659611 121.571497 
L 611.558105 120.620977 
L 612.236529 120.414732 
L 612.497327 120.127782 
L 612.605663 119.957406 
L 613.304226 119.320737 
L 613.397449 119.231065 
L 614.086553 118.96205 
L 614.330975 118.719936 
L 614.551349 118.540592 
L 614.644585 118.432986 
L 614.852946 118.226741 
L 614.944111 118.181906 
L 615.537699 117.85012 
L 615.644817 117.670777 
L 615.831453 117.383827 
L 615.928715 117.213451 
L 616.003197 117.052042 
L 616.094256 116.926501 
L 616.345849 116.720256 
L 616.452829 116.61265 
L 616.678726 116.460208 
L 617.100311 116.253963 
L 617.19374 116.164291 
L 617.339374 116.020817 
L 617.432692 115.949079 
L 617.668599 115.751801 
L 617.756539 115.689031 
L 617.79237 115.572458 
L 617.882999 115.527622 
L 617.949502 115.402082 
L 618.046752 115.258607 
L 618.74985 114.864051 
L 618.859601 114.738511 
L 619.025601 114.5502 
L 619.107304 114.442594 
L 619.294932 114.290152 
L 619.490162 114.128743 
L 620.29528 113.671417 
L 620.39855 113.510008 
L 620.575579 113.330665 
L 620.683852 113.115452 
L 620.795197 112.980945 
L 620.88271 112.765733 
L 621.078662 112.631225 
L 621.188305 112.595356 
L 622.268981 112.146998 
L 622.636364 111.6 
L 622.636364 111.6 
" style="fill:none;stroke:#92c6ff;stroke-linecap:round;stroke-width:1.5;"/>
   </g>
   <g id="line2d_26">
    <defs>
     <path d="M 0 2.5 
C 0.663008 2.5 1.29895 2.236584 1.767767 1.767767 
C 2.236584 1.29895 2.5 0.663008 2.5 0 
C 2.5 -0.663008 2.236584 -1.29895 1.767767 -1.767767 
C 1.29895 -2.236584 0.663008 -2.5 0 -2.5 
C -0.663008 -2.5 -1.29895 -2.236584 -1.767767 -1.767767 
C -2.236584 -1.29895 -2.5 -0.663008 -2.5 0 
C -2.5 0.663008 -2.236584 1.29895 -1.767767 1.767767 
C -1.29895 2.236584 -0.663008 2.5 0 2.5 
z
" id="m5baf1f5309" style="stroke:#696969;"/>
    </defs>
    <g clip-path="url(#pb7b8ab8a1d)">
     <use style="fill:#696969;stroke:#696969;" x="115.363636" xlink:href="#m5baf1f5309" y="615.6"/>
    </g>
   </g>
   <g id="line2d_27">
    <g clip-path="url(#pb7b8ab8a1d)">
     <use style="fill:#696969;stroke:#696969;" x="196.601728" xlink:href="#m5baf1f5309" y="565.195516"/>
    </g>
   </g>
   <g id="line2d_28">
    <g clip-path="url(#pb7b8ab8a1d)">
     <use style="fill:#696969;stroke:#696969;" x="241.000831" xlink:href="#m5baf1f5309" y="514.791033"/>
    </g>
   </g>
   <g id="line2d_29">
    <g clip-path="url(#pb7b8ab8a1d)">
     <use style="fill:#696969;stroke:#696969;" x="290.769588" xlink:href="#m5baf1f5309" y="464.386549"/>
    </g>
   </g>
   <g id="line2d_30">
    <g clip-path="url(#pb7b8ab8a1d)">
     <use style="fill:#696969;stroke:#696969;" x="331.637292" xlink:href="#m5baf1f5309" y="413.982066"/>
    </g>
   </g>
   <g id="line2d_31">
    <g clip-path="url(#pb7b8ab8a1d)">
     <use style="fill:#696969;stroke:#696969;" x="373.810307" xlink:href="#m5baf1f5309" y="363.577582"/>
    </g>
   </g>
   <g id="line2d_32">
    <g clip-path="url(#pb7b8ab8a1d)">
     <use style="fill:#696969;stroke:#696969;" x="415.871226" xlink:href="#m5baf1f5309" y="313.173098"/>
    </g>
   </g>
   <g id="line2d_33">
    <g clip-path="url(#pb7b8ab8a1d)">
     <use style="fill:#696969;stroke:#696969;" x="462.752366" xlink:href="#m5baf1f5309" y="262.777582"/>
    </g>
   </g>
   <g id="line2d_34">
    <g clip-path="url(#pb7b8ab8a1d)">
     <use style="fill:#696969;stroke:#696969;" x="516.417372" xlink:href="#m5baf1f5309" y="212.382066"/>
    </g>
   </g>
   <g id="line2d_35">
    <g clip-path="url(#pb7b8ab8a1d)">
     <use style="fill:#696969;stroke:#696969;" x="563.663995" xlink:href="#m5baf1f5309" y="161.986549"/>
    </g>
   </g>
   <g id="line2d_36">
    <g clip-path="url(#pb7b8ab8a1d)">
     <use style="fill:#696969;stroke:#696969;" x="622.636364" xlink:href="#m5baf1f5309" y="111.6"/>
    </g>
   </g>
   <g id="patch_3">
    <path d="M 90 640.8 
L 90 86.4 
" style="fill:none;stroke:#cccccc;stroke-linecap:square;stroke-linejoin:miter;"/>
   </g>
   <g id="patch_4">
    <path d="M 648 640.8 
L 648 86.4 
" style="fill:none;stroke:#cccccc;stroke-linecap:square;stroke-linejoin:miter;"/>
   </g>
   <g id="patch_5">
    <path d="M 90 640.8 
L 648 640.8 
" style="fill:none;stroke:#cccccc;stroke-linecap:square;stroke-linejoin:miter;"/>
   </g>
   <g id="patch_6">
    <path d="M 90 86.4 
L 648 86.4 
" style="fill:none;stroke:#cccccc;stroke-linecap:square;stroke-linejoin:miter;"/>
   </g>
   <g id="text_13">
    <!-- 1 (2014-06-07) -->
    <defs>
     <path id="DejaVuSans-32"/>
     <path d="M 31 75.875 
Q 24.46875 64.65625 21.28125 53.65625 
Q 18.109375 42.671875 18.109375 31.390625 
Q 18.109375 20.125 21.3125 9.0625 
Q 24.515625 -2 31 -13.1875 
L 23.1875 -13.1875 
Q 15.875 -1.703125 12.234375 9.375 
Q 8.59375 20.453125 8.59375 31.390625 
Q 8.59375 42.28125 12.203125 53.3125 
Q 15.828125 64.359375 23.1875 75.875 
z
" id="DejaVuSans-40"/>
     <path d="M 4.890625 31.390625 
L 31.203125 31.390625 
L 31.203125 23.390625 
L 4.890625 23.390625 
z
" id="DejaVuSans-45"/>
     <path d="M 8.015625 75.875 
L 15.828125 75.875 
Q 23.140625 64.359375 26.78125 53.3125 
Q 30.421875 42.28125 30.421875 31.390625 
Q 30.421875 20.453125 26.78125 9.375 
Q 23.140625 -1.703125 15.828125 -13.1875 
L 8.015625 -13.1875 
Q 14.5 -2 17.703125 9.0625 
Q 20.90625 20.125 20.90625 31.390625 
Q 20.90625 42.671875 17.703125 53.65625 
Q 14.5 64.65625 8.015625 75.875 
z
" id="DejaVuSans-41"/>
    </defs>
    <g style="fill:#262626;" transform="translate(120.363636 623.198437)scale(0.1 -0.1)">
     <use xlink:href="#DejaVuSans-49"/>
     <use x="63.623047" xlink:href="#DejaVuSans-32"/>
     <use x="95.410156" xlink:href="#DejaVuSans-40"/>
     <use x="134.423828" xlink:href="#DejaVuSans-50"/>
     <use x="198.046875" xlink:href="#DejaVuSans-48"/>
     <use x="261.669922" xlink:href="#DejaVuSans-49"/>
     <use x="325.292969" xlink:href="#DejaVuSans-52"/>
     <use x="388.916016" xlink:href="#DejaVuSans-45"/>
     <use x="425" xlink:href="#DejaVuSans-48"/>
     <use x="488.623047" xlink:href="#DejaVuSans-54"/>
     <use x="552.246094" xlink:href="#DejaVuSans-45"/>
     <use x="588.330078" xlink:href="#DejaVuSans-48"/>
     <use x="651.953125" xlink:href="#DejaVuSans-55"/>
     <use x="715.576172" xlink:href="#DejaVuSans-41"/>
    </g>
   </g>
   <g id="text_14">
    <!-- 5622 (2015-05-29) -->
    <g style="fill:#262626;" transform="translate(201.601728 572.793954)scale(0.1 -0.1)">
     <use xlink:href="#DejaVuSans-53"/>
     <use x="63.623047" xlink:href="#DejaVuSans-54"/>
     <use x="127.246094" xlink:href="#DejaVuSans-50"/>
     <use x="190.869141" xlink:href="#DejaVuSans-50"/>
     <use x="254.492188" xlink:href="#DejaVuSans-32"/>
     <use x="286.279297" xlink:href="#DejaVuSans-40"/>
     <use x="325.292969" xlink:href="#DejaVuSans-50"/>
     <use x="388.916016" xlink:href="#DejaVuSans-48"/>
     <use x="452.539062" xlink:href="#DejaVuSans-49"/>
     <use x="516.162109" xlink:href="#DejaVuSans-53"/>
     <use x="579.785156" xlink:href="#DejaVuSans-45"/>
     <use x="615.869141" xlink:href="#DejaVuSans-48"/>
     <use x="679.492188" xlink:href="#DejaVuSans-53"/>
     <use x="743.115234" xlink:href="#DejaVuSans-45"/>
     <use x="779.199219" xlink:href="#DejaVuSans-50"/>
     <use x="842.822266" xlink:href="#DejaVuSans-57"/>
     <use x="906.445312" xlink:href="#DejaVuSans-41"/>
    </g>
   </g>
   <g id="text_15">
    <!-- 11243 (2015-12-10) -->
    <g style="fill:#262626;" transform="translate(246.000831 522.38947)scale(0.1 -0.1)">
     <use xlink:href="#DejaVuSans-49"/>
     <use x="63.623047" xlink:href="#DejaVuSans-49"/>
     <use x="127.246094" xlink:href="#DejaVuSans-50"/>
     <use x="190.869141" xlink:href="#DejaVuSans-52"/>
     <use x="254.492188" xlink:href="#DejaVuSans-51"/>
     <use x="318.115234" xlink:href="#DejaVuSans-32"/>
     <use x="349.902344" xlink:href="#DejaVuSans-40"/>
     <use x="388.916016" xlink:href="#DejaVuSans-50"/>
     <use x="452.539062" xlink:href="#DejaVuSans-48"/>
     <use x="516.162109" xlink:href="#DejaVuSans-49"/>
     <use x="579.785156" xlink:href="#DejaVuSans-53"/>
     <use x="643.408203" xlink:href="#DejaVuSans-45"/>
     <use x="679.492188" xlink:href="#DejaVuSans-49"/>
     <use x="743.115234" xlink:href="#DejaVuSans-50"/>
     <use x="806.738281" xlink:href="#DejaVuSans-45"/>
     <use x="842.822266" xlink:href="#DejaVuSans-49"/>
     <use x="906.445312" xlink:href="#DejaVuSans-48"/>
     <use x="970.068359" xlink:href="#DejaVuSans-41"/>
    </g>
   </g>
   <g id="text_16">
    <!-- 16864 (2016-07-15) -->
    <g style="fill:#262626;" transform="translate(295.769588 471.984987)scale(0.1 -0.1)">
     <use xlink:href="#DejaVuSans-49"/>
     <use x="63.623047" xlink:href="#DejaVuSans-54"/>
     <use x="127.246094" xlink:href="#DejaVuSans-56"/>
     <use x="190.869141" xlink:href="#DejaVuSans-54"/>
     <use x="254.492188" xlink:href="#DejaVuSans-52"/>
     <use x="318.115234" xlink:href="#DejaVuSans-32"/>
     <use x="349.902344" xlink:href="#DejaVuSans-40"/>
     <use x="388.916016" xlink:href="#DejaVuSans-50"/>
     <use x="452.539062" xlink:href="#DejaVuSans-48"/>
     <use x="516.162109" xlink:href="#DejaVuSans-49"/>
     <use x="579.785156" xlink:href="#DejaVuSans-54"/>
     <use x="643.408203" xlink:href="#DejaVuSans-45"/>
     <use x="679.492188" xlink:href="#DejaVuSans-48"/>
     <use x="743.115234" xlink:href="#DejaVuSans-55"/>
     <use x="806.738281" xlink:href="#DejaVuSans-45"/>
     <use x="842.822266" xlink:href="#DejaVuSans-49"/>
     <use x="906.445312" xlink:href="#DejaVuSans-53"/>
     <use x="970.068359" xlink:href="#DejaVuSans-41"/>
    </g>
   </g>
   <g id="text_17">
    <!-- 22485 (2017-01-10) -->
    <g style="fill:#262626;" transform="translate(336.637292 421.580503)scale(0.1 -0.1)">
     <use xlink:href="#DejaVuSans-50"/>
     <use x="63.623047" xlink:href="#DejaVuSans-50"/>
     <use x="127.246094" xlink:href="#DejaVuSans-52"/>
     <use x="190.869141" xlink:href="#DejaVuSans-56"/>
     <use x="254.492188" xlink:href="#DejaVuSans-53"/>
     <use x="318.115234" xlink:href="#DejaVuSans-32"/>
     <use x="349.902344" xlink:href="#DejaVuSans-40"/>
     <use x="388.916016" xlink:href="#DejaVuSans-50"/>
     <use x="452.539062" xlink:href="#DejaVuSans-48"/>
     <use x="516.162109" xlink:href="#DejaVuSans-49"/>
     <use x="579.785156" xlink:href="#DejaVuSans-55"/>
     <use x="643.408203" xlink:href="#DejaVuSans-45"/>
     <use x="679.492188" xlink:href="#DejaVuSans-48"/>
     <use x="743.115234" xlink:href="#DejaVuSans-49"/>
     <use x="806.738281" xlink:href="#DejaVuSans-45"/>
     <use x="842.822266" xlink:href="#DejaVuSans-49"/>
     <use x="906.445312" xlink:href="#DejaVuSans-48"/>
     <use x="970.068359" xlink:href="#DejaVuSans-41"/>
    </g>
   </g>
   <g id="text_18">
    <!-- 28106 (2017-07-14) -->
    <g style="fill:#262626;" transform="translate(378.810307 371.17602)scale(0.1 -0.1)">
     <use xlink:href="#DejaVuSans-50"/>
     <use x="63.623047" xlink:href="#DejaVuSans-56"/>
     <use x="127.246094" xlink:href="#DejaVuSans-49"/>
     <use x="190.869141" xlink:href="#DejaVuSans-48"/>
     <use x="254.492188" xlink:href="#DejaVuSans-54"/>
     <use x="318.115234" xlink:href="#DejaVuSans-32"/>
     <use x="349.902344" xlink:href="#DejaVuSans-40"/>
     <use x="388.916016" xlink:href="#DejaVuSans-50"/>
     <use x="452.539062" xlink:href="#DejaVuSans-48"/>
     <use x="516.162109" xlink:href="#DejaVuSans-49"/>
     <use x="579.785156" xlink:href="#DejaVuSans-55"/>
     <use x="643.408203" xlink:href="#DejaVuSans-45"/>
     <use x="679.492188" xlink:href="#DejaVuSans-48"/>
     <use x="743.115234" xlink:href="#DejaVuSans-55"/>
     <use x="806.738281" xlink:href="#DejaVuSans-45"/>
     <use x="842.822266" xlink:href="#DejaVuSans-49"/>
     <use x="906.445312" xlink:href="#DejaVuSans-52"/>
     <use x="970.068359" xlink:href="#DejaVuSans-41"/>
    </g>
   </g>
   <g id="text_19">
    <!-- 33727 (2018-01-15) -->
    <g style="fill:#262626;" transform="translate(420.871226 320.771536)scale(0.1 -0.1)">
     <use xlink:href="#DejaVuSans-51"/>
     <use x="63.623047" xlink:href="#DejaVuSans-51"/>
     <use x="127.246094" xlink:href="#DejaVuSans-55"/>
     <use x="190.869141" xlink:href="#DejaVuSans-50"/>
     <use x="254.492188" xlink:href="#DejaVuSans-55"/>
     <use x="318.115234" xlink:href="#DejaVuSans-32"/>
     <use x="349.902344" xlink:href="#DejaVuSans-40"/>
     <use x="388.916016" xlink:href="#DejaVuSans-50"/>
     <use x="452.539062" xlink:href="#DejaVuSans-48"/>
     <use x="516.162109" xlink:href="#DejaVuSans-49"/>
     <use x="579.785156" xlink:href="#DejaVuSans-56"/>
     <use x="643.408203" xlink:href="#DejaVuSans-45"/>
     <use x="679.492188" xlink:href="#DejaVuSans-48"/>
     <use x="743.115234" xlink:href="#DejaVuSans-49"/>
     <use x="806.738281" xlink:href="#DejaVuSans-45"/>
     <use x="842.822266" xlink:href="#DejaVuSans-49"/>
     <use x="906.445312" xlink:href="#DejaVuSans-53"/>
     <use x="970.068359" xlink:href="#DejaVuSans-41"/>
    </g>
   </g>
   <g id="text_20">
    <!-- 39347 (2018-08-08) -->
    <g style="fill:#262626;" transform="translate(467.752366 270.37602)scale(0.1 -0.1)">
     <use xlink:href="#DejaVuSans-51"/>
     <use x="63.623047" xlink:href="#DejaVuSans-57"/>
     <use x="127.246094" xlink:href="#DejaVuSans-51"/>
     <use x="190.869141" xlink:href="#DejaVuSans-52"/>
     <use x="254.492188" xlink:href="#DejaVuSans-55"/>
     <use x="318.115234" xlink:href="#DejaVuSans-32"/>
     <use x="349.902344" xlink:href="#DejaVuSans-40"/>
     <use x="388.916016" xlink:href="#DejaVuSans-50"/>
     <use x="452.539062" xlink:href="#DejaVuSans-48"/>
     <use x="516.162109" xlink:href="#DejaVuSans-49"/>
     <use x="579.785156" xlink:href="#DejaVuSans-56"/>
     <use x="643.408203" xlink:href="#DejaVuSans-45"/>
     <use x="679.492188" xlink:href="#DejaVuSans-48"/>
     <use x="743.115234" xlink:href="#DejaVuSans-56"/>
     <use x="806.738281" xlink:href="#DejaVuSans-45"/>
     <use x="842.822266" xlink:href="#DejaVuSans-48"/>
     <use x="906.445312" xlink:href="#DejaVuSans-56"/>
     <use x="970.068359" xlink:href="#DejaVuSans-41"/>
    </g>
   </g>
   <g id="text_21">
    <!-- 44967 (2019-04-01) -->
    <g style="fill:#262626;" transform="translate(521.417372 219.980503)scale(0.1 -0.1)">
     <use xlink:href="#DejaVuSans-52"/>
     <use x="63.623047" xlink:href="#DejaVuSans-52"/>
     <use x="127.246094" xlink:href="#DejaVuSans-57"/>
     <use x="190.869141" xlink:href="#DejaVuSans-54"/>
     <use x="254.492188" xlink:href="#DejaVuSans-55"/>
     <use x="318.115234" xlink:href="#DejaVuSans-32"/>
     <use x="349.902344" xlink:href="#DejaVuSans-40"/>
     <use x="388.916016" xlink:href="#DejaVuSans-50"/>
     <use x="452.539062" xlink:href="#DejaVuSans-48"/>
     <use x="516.162109" xlink:href="#DejaVuSans-49"/>
     <use x="579.785156" xlink:href="#DejaVuSans-57"/>
     <use x="643.408203" xlink:href="#DejaVuSans-45"/>
     <use x="679.492188" xlink:href="#DejaVuSans-48"/>
     <use x="743.115234" xlink:href="#DejaVuSans-52"/>
     <use x="806.738281" xlink:href="#DejaVuSans-45"/>
     <use x="842.822266" xlink:href="#DejaVuSans-48"/>
     <use x="906.445312" xlink:href="#DejaVuSans-49"/>
     <use x="970.068359" xlink:href="#DejaVuSans-41"/>
    </g>
   </g>
   <g id="text_22">
    <!-- 50587 (2019-10-25) -->
    <g style="fill:#262626;" transform="translate(568.663995 169.584987)scale(0.1 -0.1)">
     <use xlink:href="#DejaVuSans-53"/>
     <use x="63.623047" xlink:href="#DejaVuSans-48"/>
     <use x="127.246094" xlink:href="#DejaVuSans-53"/>
     <use x="190.869141" xlink:href="#DejaVuSans-56"/>
     <use x="254.492188" xlink:href="#DejaVuSans-55"/>
     <use x="318.115234" xlink:href="#DejaVuSans-32"/>
     <use x="349.902344" xlink:href="#DejaVuSans-40"/>
     <use x="388.916016" xlink:href="#DejaVuSans-50"/>
     <use x="452.539062" xlink:href="#DejaVuSans-48"/>
     <use x="516.162109" xlink:href="#DejaVuSans-49"/>
     <use x="579.785156" xlink:href="#DejaVuSans-57"/>
     <use x="643.408203" xlink:href="#DejaVuSans-45"/>
     <use x="679.492188" xlink:href="#DejaVuSans-49"/>
     <use x="743.115234" xlink:href="#DejaVuSans-48"/>
     <use x="806.738281" xlink:href="#DejaVuSans-45"/>
     <use x="842.822266" xlink:href="#DejaVuSans-50"/>
     <use x="906.445312" xlink:href="#DejaVuSans-53"/>
     <use x="970.068359" xlink:href="#DejaVuSans-41"/>
    </g>
   </g>
   <g id="text_23">
    <!-- 56206 (2020-07-10) -->
    <g style="fill:#262626;" transform="translate(627.636364 119.198437)scale(0.1 -0.1)">
     <use xlink:href="#DejaVuSans-53"/>
     <use x="63.623047" xlink:href="#DejaVuSans-54"/>
     <use x="127.246094" xlink:href="#DejaVuSans-50"/>
     <use x="190.869141" xlink:href="#DejaVuSans-48"/>
     <use x="254.492188" xlink:href="#DejaVuSans-54"/>
     <use x="318.115234" xlink:href="#DejaVuSans-32"/>
     <use x="349.902344" xlink:href="#DejaVuSans-40"/>
     <use x="388.916016" xlink:href="#DejaVuSans-50"/>
     <use x="452.539062" xlink:href="#DejaVuSans-48"/>
     <use x="516.162109" xlink:href="#DejaVuSans-50"/>
     <use x="579.785156" xlink:href="#DejaVuSans-48"/>
     <use x="643.408203" xlink:href="#DejaVuSans-45"/>
     <use x="679.492188" xlink:href="#DejaVuSans-48"/>
     <use x="743.115234" xlink:href="#DejaVuSans-55"/>
     <use x="806.738281" xlink:href="#DejaVuSans-45"/>
     <use x="842.822266" xlink:href="#DejaVuSans-49"/>
     <use x="906.445312" xlink:href="#DejaVuSans-48"/>
     <use x="970.068359" xlink:href="#DejaVuSans-41"/>
    </g>
   </g>
   <g id="text_24">
    <!-- Closed PRs over time -->
    <defs>
     <path d="M 64.40625 67.28125 
L 64.40625 56.890625 
Q 59.421875 61.53125 53.78125 63.8125 
Q 48.140625 66.109375 41.796875 66.109375 
Q 29.296875 66.109375 22.65625 58.46875 
Q 16.015625 50.828125 16.015625 36.375 
Q 16.015625 21.96875 22.65625 14.328125 
Q 29.296875 6.6875 41.796875 6.6875 
Q 48.140625 6.6875 53.78125 8.984375 
Q 59.421875 11.28125 64.40625 15.921875 
L 64.40625 5.609375 
Q 59.234375 2.09375 53.4375 0.328125 
Q 47.65625 -1.421875 41.21875 -1.421875 
Q 24.65625 -1.421875 15.125 8.703125 
Q 5.609375 18.84375 5.609375 36.375 
Q 5.609375 53.953125 15.125 64.078125 
Q 24.65625 74.21875 41.21875 74.21875 
Q 47.75 74.21875 53.53125 72.484375 
Q 59.328125 70.75 64.40625 67.28125 
z
" id="DejaVuSans-67"/>
     <path d="M 9.421875 75.984375 
L 18.40625 75.984375 
L 18.40625 0 
L 9.421875 0 
z
" id="DejaVuSans-108"/>
     <path d="M 30.609375 48.390625 
Q 23.390625 48.390625 19.1875 42.75 
Q 14.984375 37.109375 14.984375 27.296875 
Q 14.984375 17.484375 19.15625 11.84375 
Q 23.34375 6.203125 30.609375 6.203125 
Q 37.796875 6.203125 41.984375 11.859375 
Q 46.1875 17.53125 46.1875 27.296875 
Q 46.1875 37.015625 41.984375 42.703125 
Q 37.796875 48.390625 30.609375 48.390625 
z
M 30.609375 56 
Q 42.328125 56 49.015625 48.375 
Q 55.71875 40.765625 55.71875 27.296875 
Q 55.71875 13.875 49.015625 6.21875 
Q 42.328125 -1.421875 30.609375 -1.421875 
Q 18.84375 -1.421875 12.171875 6.21875 
Q 5.515625 13.875 5.515625 27.296875 
Q 5.515625 40.765625 12.171875 48.375 
Q 18.84375 56 30.609375 56 
z
" id="DejaVuSans-111"/>
     <path d="M 44.28125 53.078125 
L 44.28125 44.578125 
Q 40.484375 46.53125 36.375 47.5 
Q 32.28125 48.484375 27.875 48.484375 
Q 21.1875 48.484375 17.84375 46.4375 
Q 14.5 44.390625 14.5 40.28125 
Q 14.5 37.15625 16.890625 35.375 
Q 19.28125 33.59375 26.515625 31.984375 
L 29.59375 31.296875 
Q 39.15625 29.25 43.1875 25.515625 
Q 47.21875 21.78125 47.21875 15.09375 
Q 47.21875 7.46875 41.1875 3.015625 
Q 35.15625 -1.421875 24.609375 -1.421875 
Q 20.21875 -1.421875 15.453125 -0.5625 
Q 10.6875 0.296875 5.421875 2 
L 5.421875 11.28125 
Q 10.40625 8.6875 15.234375 7.390625 
Q 20.0625 6.109375 24.8125 6.109375 
Q 31.15625 6.109375 34.5625 8.28125 
Q 37.984375 10.453125 37.984375 14.40625 
Q 37.984375 18.0625 35.515625 20.015625 
Q 33.0625 21.96875 24.703125 23.78125 
L 21.578125 24.515625 
Q 13.234375 26.265625 9.515625 29.90625 
Q 5.8125 33.546875 5.8125 39.890625 
Q 5.8125 47.609375 11.28125 51.796875 
Q 16.75 56 26.8125 56 
Q 31.78125 56 36.171875 55.265625 
Q 40.578125 54.546875 44.28125 53.078125 
z
" id="DejaVuSans-115"/>
     <path d="M 56.203125 29.59375 
L 56.203125 25.203125 
L 14.890625 25.203125 
Q 15.484375 15.921875 20.484375 11.0625 
Q 25.484375 6.203125 34.421875 6.203125 
Q 39.59375 6.203125 44.453125 7.46875 
Q 49.3125 8.734375 54.109375 11.28125 
L 54.109375 2.78125 
Q 49.265625 0.734375 44.1875 -0.34375 
Q 39.109375 -1.421875 33.890625 -1.421875 
Q 20.796875 -1.421875 13.15625 6.1875 
Q 5.515625 13.8125 5.515625 26.8125 
Q 5.515625 40.234375 12.765625 48.109375 
Q 20.015625 56 32.328125 56 
Q 43.359375 56 49.78125 48.890625 
Q 56.203125 41.796875 56.203125 29.59375 
z
M 47.21875 32.234375 
Q 47.125 39.59375 43.09375 43.984375 
Q 39.0625 48.390625 32.421875 48.390625 
Q 24.90625 48.390625 20.390625 44.140625 
Q 15.875 39.890625 15.1875 32.171875 
z
" id="DejaVuSans-101"/>
     <path d="M 45.40625 46.390625 
L 45.40625 75.984375 
L 54.390625 75.984375 
L 54.390625 0 
L 45.40625 0 
L 45.40625 8.203125 
Q 42.578125 3.328125 38.25 0.953125 
Q 33.9375 -1.421875 27.875 -1.421875 
Q 17.96875 -1.421875 11.734375 6.484375 
Q 5.515625 14.40625 5.515625 27.296875 
Q 5.515625 40.1875 11.734375 48.09375 
Q 17.96875 56 27.875 56 
Q 33.9375 56 38.25 53.625 
Q 42.578125 51.265625 45.40625 46.390625 
z
M 14.796875 27.296875 
Q 14.796875 17.390625 18.875 11.75 
Q 22.953125 6.109375 30.078125 6.109375 
Q 37.203125 6.109375 41.296875 11.75 
Q 45.40625 17.390625 45.40625 27.296875 
Q 45.40625 37.203125 41.296875 42.84375 
Q 37.203125 48.484375 30.078125 48.484375 
Q 22.953125 48.484375 18.875 42.84375 
Q 14.796875 37.203125 14.796875 27.296875 
z
" id="DejaVuSans-100"/>
     <path d="M 19.671875 64.796875 
L 19.671875 37.40625 
L 32.078125 37.40625 
Q 38.96875 37.40625 42.71875 40.96875 
Q 46.484375 44.53125 46.484375 51.125 
Q 46.484375 57.671875 42.71875 61.234375 
Q 38.96875 64.796875 32.078125 64.796875 
z
M 9.8125 72.90625 
L 32.078125 72.90625 
Q 44.34375 72.90625 50.609375 67.359375 
Q 56.890625 61.8125 56.890625 51.125 
Q 56.890625 40.328125 50.609375 34.8125 
Q 44.34375 29.296875 32.078125 29.296875 
L 19.671875 29.296875 
L 19.671875 0 
L 9.8125 0 
z
" id="DejaVuSans-80"/>
     <path d="M 44.390625 34.1875 
Q 47.5625 33.109375 50.5625 29.59375 
Q 53.5625 26.078125 56.59375 19.921875 
L 66.609375 0 
L 56 0 
L 46.6875 18.703125 
Q 43.0625 26.03125 39.671875 28.421875 
Q 36.28125 30.8125 30.421875 30.8125 
L 19.671875 30.8125 
L 19.671875 0 
L 9.8125 0 
L 9.8125 72.90625 
L 32.078125 72.90625 
Q 44.578125 72.90625 50.734375 67.671875 
Q 56.890625 62.453125 56.890625 51.90625 
Q 56.890625 45.015625 53.6875 40.46875 
Q 50.484375 35.9375 44.390625 34.1875 
z
M 19.671875 64.796875 
L 19.671875 38.921875 
L 32.078125 38.921875 
Q 39.203125 38.921875 42.84375 42.21875 
Q 46.484375 45.515625 46.484375 51.90625 
Q 46.484375 58.296875 42.84375 61.546875 
Q 39.203125 64.796875 32.078125 64.796875 
z
" id="DejaVuSans-82"/>
     <path d="M 2.984375 54.6875 
L 12.5 54.6875 
L 29.59375 8.796875 
L 46.6875 54.6875 
L 56.203125 54.6875 
L 35.6875 0 
L 23.484375 0 
z
" id="DejaVuSans-118"/>
     <path d="M 41.109375 46.296875 
Q 39.59375 47.171875 37.8125 47.578125 
Q 36.03125 48 33.890625 48 
Q 26.265625 48 22.1875 43.046875 
Q 18.109375 38.09375 18.109375 28.8125 
L 18.109375 0 
L 9.078125 0 
L 9.078125 54.6875 
L 18.109375 54.6875 
L 18.109375 46.1875 
Q 20.953125 51.171875 25.484375 53.578125 
Q 30.03125 56 36.53125 56 
Q 37.453125 56 38.578125 55.875 
Q 39.703125 55.765625 41.0625 55.515625 
z
" id="DejaVuSans-114"/>
     <path d="M 18.3125 70.21875 
L 18.3125 54.6875 
L 36.8125 54.6875 
L 36.8125 47.703125 
L 18.3125 47.703125 
L 18.3125 18.015625 
Q 18.3125 11.328125 20.140625 9.421875 
Q 21.96875 7.515625 27.59375 7.515625 
L 36.8125 7.515625 
L 36.8125 0 
L 27.59375 0 
Q 17.1875 0 13.234375 3.875 
Q 9.28125 7.765625 9.28125 18.015625 
L 9.28125 47.703125 
L 2.6875 47.703125 
L 2.6875 54.6875 
L 9.28125 54.6875 
L 9.28125 70.21875 
z
" id="DejaVuSans-116"/>
     <path d="M 9.421875 54.6875 
L 18.40625 54.6875 
L 18.40625 0 
L 9.421875 0 
z
M 9.421875 75.984375 
L 18.40625 75.984375 
L 18.40625 64.59375 
L 9.421875 64.59375 
z
" id="DejaVuSans-105"/>
     <path d="M 52 44.1875 
Q 55.375 50.25 60.0625 53.125 
Q 64.75 56 71.09375 56 
Q 79.640625 56 84.28125 50.015625 
Q 88.921875 44.046875 88.921875 33.015625 
L 88.921875 0 
L 79.890625 0 
L 79.890625 32.71875 
Q 79.890625 40.578125 77.09375 44.375 
Q 74.3125 48.1875 68.609375 48.1875 
Q 61.625 48.1875 57.5625 43.546875 
Q 53.515625 38.921875 53.515625 30.90625 
L 53.515625 0 
L 44.484375 0 
L 44.484375 32.71875 
Q 44.484375 40.625 41.703125 44.40625 
Q 38.921875 48.1875 33.109375 48.1875 
Q 26.21875 48.1875 22.15625 43.53125 
Q 18.109375 38.875 18.109375 30.90625 
L 18.109375 0 
L 9.078125 0 
L 9.078125 54.6875 
L 18.109375 54.6875 
L 18.109375 46.1875 
Q 21.1875 51.21875 25.484375 53.609375 
Q 29.78125 56 35.6875 56 
Q 41.65625 56 45.828125 52.96875 
Q 50 49.953125 52 44.1875 
z
" id="DejaVuSans-109"/>
    </defs>
    <g style="fill:#262626;" transform="translate(305.27625 80.4)scale(0.12 -0.12)">
     <use xlink:href="#DejaVuSans-67"/>
     <use x="69.824219" xlink:href="#DejaVuSans-108"/>
     <use x="97.607422" xlink:href="#DejaVuSans-111"/>
     <use x="158.789062" xlink:href="#DejaVuSans-115"/>
     <use x="210.888672" xlink:href="#DejaVuSans-101"/>
     <use x="272.412109" xlink:href="#DejaVuSans-100"/>
     <use x="335.888672" xlink:href="#DejaVuSans-32"/>
     <use x="367.675781" xlink:href="#DejaVuSans-80"/>
     <use x="427.978516" xlink:href="#DejaVuSans-82"/>
     <use x="497.460938" xlink:href="#DejaVuSans-115"/>
     <use x="549.560547" xlink:href="#DejaVuSans-32"/>
     <use x="581.347656" xlink:href="#DejaVuSans-111"/>
     <use x="642.529297" xlink:href="#DejaVuSans-118"/>
     <use x="701.708984" xlink:href="#DejaVuSans-101"/>
     <use x="763.232422" xlink:href="#DejaVuSans-114"/>
     <use x="804.345703" xlink:href="#DejaVuSans-32"/>
     <use x="836.132812" xlink:href="#DejaVuSans-116"/>
     <use x="875.341797" xlink:href="#DejaVuSans-105"/>
     <use x="903.125" xlink:href="#DejaVuSans-109"/>
     <use x="1000.537109" xlink:href="#DejaVuSans-101"/>
    </g>
   </g>
  </g>
 </g>
 <defs>
  <clipPath id="pb7b8ab8a1d">
   <rect height="554.4" width="558" x="90" y="86.4"/>
  </clipPath>
 </defs>
</svg>
