<?xml version="1.0" encoding="utf-8" standalone="no"?>
<!DOCTYPE svg PUBLIC "-//W3C//DTD SVG 1.1//EN"
  "http://www.w3.org/Graphics/SVG/1.1/DTD/svg11.dtd">
<!-- Created with matplotlib (https://matplotlib.org/) -->
<svg height="720pt" version="1.1" viewBox="0 0 720 720" width="720pt" xmlns="http://www.w3.org/2000/svg" xmlns:xlink="http://www.w3.org/1999/xlink">
 <defs>
  <style type="text/css">
*{stroke-linecap:butt;stroke-linejoin:round;}
  </style>
 </defs>
 <g id="figure_1">
  <g id="patch_1">
   <path d="M 0 720 
L 720 720 
L 720 0 
L 0 0 
z
" style="fill:#ffffff;"/>
  </g>
  <g id="axes_1">
   <g id="patch_2">
    <path d="M 90 640.8 
L 648 640.8 
L 648 86.4 
L 90 86.4 
z
" style="fill:#ffffff;"/>
   </g>
   <g id="matplotlib.axis_1">
    <g id="xtick_1">
     <g id="line2d_1">
      <path clip-path="url(#p5a2d1a878b)" d="M 163.666391 640.8 
L 163.666391 86.4 
" style="fill:none;stroke:#cccccc;stroke-linecap:round;stroke-width:0.8;"/>
     </g>
     <g id="line2d_2"/>
     <g id="text_1">
      <!-- 2015 -->
      <defs>
       <path d="M 19.1875 8.296875 
L 53.609375 8.296875 
L 53.609375 0 
L 7.328125 0 
L 7.328125 8.296875 
Q 12.9375 14.109375 22.625 23.890625 
Q 32.328125 33.6875 34.8125 36.53125 
Q 39.546875 41.84375 41.421875 45.53125 
Q 43.3125 49.21875 43.3125 52.78125 
Q 43.3125 58.59375 39.234375 62.25 
Q 35.15625 65.921875 28.609375 65.921875 
Q 23.96875 65.921875 18.8125 64.3125 
Q 13.671875 62.703125 7.8125 59.421875 
L 7.8125 69.390625 
Q 13.765625 71.78125 18.9375 73 
Q 24.125 74.21875 28.421875 74.21875 
Q 39.75 74.21875 46.484375 68.546875 
Q 53.21875 62.890625 53.21875 53.421875 
Q 53.21875 48.921875 51.53125 44.890625 
Q 49.859375 40.875 45.40625 35.40625 
Q 44.1875 33.984375 37.640625 27.21875 
Q 31.109375 20.453125 19.1875 8.296875 
z
" id="DejaVuSans-50"/>
       <path d="M 31.78125 66.40625 
Q 24.171875 66.40625 20.328125 58.90625 
Q 16.5 51.421875 16.5 36.375 
Q 16.5 21.390625 20.328125 13.890625 
Q 24.171875 6.390625 31.78125 6.390625 
Q 39.453125 6.390625 43.28125 13.890625 
Q 47.125 21.390625 47.125 36.375 
Q 47.125 51.421875 43.28125 58.90625 
Q 39.453125 66.40625 31.78125 66.40625 
z
M 31.78125 74.21875 
Q 44.046875 74.21875 50.515625 64.515625 
Q 56.984375 54.828125 56.984375 36.375 
Q 56.984375 17.96875 50.515625 8.265625 
Q 44.046875 -1.421875 31.78125 -1.421875 
Q 19.53125 -1.421875 13.0625 8.265625 
Q 6.59375 17.96875 6.59375 36.375 
Q 6.59375 54.828125 13.0625 64.515625 
Q 19.53125 74.21875 31.78125 74.21875 
z
" id="DejaVuSans-48"/>
       <path d="M 12.40625 8.296875 
L 28.515625 8.296875 
L 28.515625 63.921875 
L 10.984375 60.40625 
L 10.984375 69.390625 
L 28.421875 72.90625 
L 38.28125 72.90625 
L 38.28125 8.296875 
L 54.390625 8.296875 
L 54.390625 0 
L 12.40625 0 
z
" id="DejaVuSans-49"/>
       <path d="M 10.796875 72.90625 
L 49.515625 72.90625 
L 49.515625 64.59375 
L 19.828125 64.59375 
L 19.828125 46.734375 
Q 21.96875 47.46875 24.109375 47.828125 
Q 26.265625 48.1875 28.421875 48.1875 
Q 40.625 48.1875 47.75 41.5 
Q 54.890625 34.8125 54.890625 23.390625 
Q 54.890625 11.625 47.5625 5.09375 
Q 40.234375 -1.421875 26.90625 -1.421875 
Q 22.3125 -1.421875 17.546875 -0.640625 
Q 12.796875 0.140625 7.71875 1.703125 
L 7.71875 11.625 
Q 12.109375 9.234375 16.796875 8.0625 
Q 21.484375 6.890625 26.703125 6.890625 
Q 35.15625 6.890625 40.078125 11.328125 
Q 45.015625 15.765625 45.015625 23.390625 
Q 45.015625 31 40.078125 35.4375 
Q 35.15625 39.890625 26.703125 39.890625 
Q 22.75 39.890625 18.8125 39.015625 
Q 14.890625 38.140625 10.796875 36.28125 
z
" id="DejaVuSans-53"/>
      </defs>
      <g style="fill:#262626;" transform="translate(150.941391 651.898438)scale(0.1 -0.1)">
       <use xlink:href="#DejaVuSans-50"/>
       <use x="63.623047" xlink:href="#DejaVuSans-48"/>
       <use x="127.246094" xlink:href="#DejaVuSans-49"/>
       <use x="190.869141" xlink:href="#DejaVuSans-53"/>
      </g>
     </g>
    </g>
    <g id="xtick_2">
     <g id="line2d_3">
      <path clip-path="url(#p5a2d1a878b)" d="M 248.426407 640.8 
L 248.426407 86.4 
" style="fill:none;stroke:#cccccc;stroke-linecap:round;stroke-width:0.8;"/>
     </g>
     <g id="line2d_4"/>
     <g id="text_2">
      <!-- 2016 -->
      <defs>
       <path d="M 33.015625 40.375 
Q 26.375 40.375 22.484375 35.828125 
Q 18.609375 31.296875 18.609375 23.390625 
Q 18.609375 15.53125 22.484375 10.953125 
Q 26.375 6.390625 33.015625 6.390625 
Q 39.65625 6.390625 43.53125 10.953125 
Q 47.40625 15.53125 47.40625 23.390625 
Q 47.40625 31.296875 43.53125 35.828125 
Q 39.65625 40.375 33.015625 40.375 
z
M 52.59375 71.296875 
L 52.59375 62.3125 
Q 48.875 64.0625 45.09375 64.984375 
Q 41.3125 65.921875 37.59375 65.921875 
Q 27.828125 65.921875 22.671875 59.328125 
Q 17.53125 52.734375 16.796875 39.40625 
Q 19.671875 43.65625 24.015625 45.921875 
Q 28.375 48.1875 33.59375 48.1875 
Q 44.578125 48.1875 50.953125 41.515625 
Q 57.328125 34.859375 57.328125 23.390625 
Q 57.328125 12.15625 50.6875 5.359375 
Q 44.046875 -1.421875 33.015625 -1.421875 
Q 20.359375 -1.421875 13.671875 8.265625 
Q 6.984375 17.96875 6.984375 36.375 
Q 6.984375 53.65625 15.1875 63.9375 
Q 23.390625 74.21875 37.203125 74.21875 
Q 40.921875 74.21875 44.703125 73.484375 
Q 48.484375 72.75 52.59375 71.296875 
z
" id="DejaVuSans-54"/>
      </defs>
      <g style="fill:#262626;" transform="translate(235.701407 651.898438)scale(0.1 -0.1)">
       <use xlink:href="#DejaVuSans-50"/>
       <use x="63.623047" xlink:href="#DejaVuSans-48"/>
       <use x="127.246094" xlink:href="#DejaVuSans-49"/>
       <use x="190.869141" xlink:href="#DejaVuSans-54"/>
      </g>
     </g>
    </g>
    <g id="xtick_3">
     <g id="line2d_5">
      <path clip-path="url(#p5a2d1a878b)" d="M 333.418643 640.8 
L 333.418643 86.4 
" style="fill:none;stroke:#cccccc;stroke-linecap:round;stroke-width:0.8;"/>
     </g>
     <g id="line2d_6"/>
     <g id="text_3">
      <!-- 2017 -->
      <defs>
       <path d="M 8.203125 72.90625 
L 55.078125 72.90625 
L 55.078125 68.703125 
L 28.609375 0 
L 18.3125 0 
L 43.21875 64.59375 
L 8.203125 64.59375 
z
" id="DejaVuSans-55"/>
      </defs>
      <g style="fill:#262626;" transform="translate(320.693643 651.898438)scale(0.1 -0.1)">
       <use xlink:href="#DejaVuSans-50"/>
       <use x="63.623047" xlink:href="#DejaVuSans-48"/>
       <use x="127.246094" xlink:href="#DejaVuSans-49"/>
       <use x="190.869141" xlink:href="#DejaVuSans-55"/>
      </g>
     </g>
    </g>
    <g id="xtick_4">
     <g id="line2d_7">
      <path clip-path="url(#p5a2d1a878b)" d="M 418.178659 640.8 
L 418.178659 86.4 
" style="fill:none;stroke:#cccccc;stroke-linecap:round;stroke-width:0.8;"/>
     </g>
     <g id="line2d_8"/>
     <g id="text_4">
      <!-- 2018 -->
      <defs>
       <path d="M 31.78125 34.625 
Q 24.75 34.625 20.71875 30.859375 
Q 16.703125 27.09375 16.703125 20.515625 
Q 16.703125 13.921875 20.71875 10.15625 
Q 24.75 6.390625 31.78125 6.390625 
Q 38.8125 6.390625 42.859375 10.171875 
Q 46.921875 13.96875 46.921875 20.515625 
Q 46.921875 27.09375 42.890625 30.859375 
Q 38.875 34.625 31.78125 34.625 
z
M 21.921875 38.8125 
Q 15.578125 40.375 12.03125 44.71875 
Q 8.5 49.078125 8.5 55.328125 
Q 8.5 64.0625 14.71875 69.140625 
Q 20.953125 74.21875 31.78125 74.21875 
Q 42.671875 74.21875 48.875 69.140625 
Q 55.078125 64.0625 55.078125 55.328125 
Q 55.078125 49.078125 51.53125 44.71875 
Q 48 40.375 41.703125 38.8125 
Q 48.828125 37.15625 52.796875 32.3125 
Q 56.78125 27.484375 56.78125 20.515625 
Q 56.78125 9.90625 50.3125 4.234375 
Q 43.84375 -1.421875 31.78125 -1.421875 
Q 19.734375 -1.421875 13.25 4.234375 
Q 6.78125 9.90625 6.78125 20.515625 
Q 6.78125 27.484375 10.78125 32.3125 
Q 14.796875 37.15625 21.921875 38.8125 
z
M 18.3125 54.390625 
Q 18.3125 48.734375 21.84375 45.5625 
Q 25.390625 42.390625 31.78125 42.390625 
Q 38.140625 42.390625 41.71875 45.5625 
Q 45.3125 48.734375 45.3125 54.390625 
Q 45.3125 60.0625 41.71875 63.234375 
Q 38.140625 66.40625 31.78125 66.40625 
Q 25.390625 66.40625 21.84375 63.234375 
Q 18.3125 60.0625 18.3125 54.390625 
z
" id="DejaVuSans-56"/>
      </defs>
      <g style="fill:#262626;" transform="translate(405.453659 651.898438)scale(0.1 -0.1)">
       <use xlink:href="#DejaVuSans-50"/>
       <use x="63.623047" xlink:href="#DejaVuSans-48"/>
       <use x="127.246094" xlink:href="#DejaVuSans-49"/>
       <use x="190.869141" xlink:href="#DejaVuSans-56"/>
      </g>
     </g>
    </g>
    <g id="xtick_5">
     <g id="line2d_9">
      <path clip-path="url(#p5a2d1a878b)" d="M 502.938675 640.8 
L 502.938675 86.4 
" style="fill:none;stroke:#cccccc;stroke-linecap:round;stroke-width:0.8;"/>
     </g>
     <g id="line2d_10"/>
     <g id="text_5">
      <!-- 2019 -->
      <defs>
       <path d="M 10.984375 1.515625 
L 10.984375 10.5 
Q 14.703125 8.734375 18.5 7.8125 
Q 22.3125 6.890625 25.984375 6.890625 
Q 35.75 6.890625 40.890625 13.453125 
Q 46.046875 20.015625 46.78125 33.40625 
Q 43.953125 29.203125 39.59375 26.953125 
Q 35.25 24.703125 29.984375 24.703125 
Q 19.046875 24.703125 12.671875 31.3125 
Q 6.296875 37.9375 6.296875 49.421875 
Q 6.296875 60.640625 12.9375 67.421875 
Q 19.578125 74.21875 30.609375 74.21875 
Q 43.265625 74.21875 49.921875 64.515625 
Q 56.59375 54.828125 56.59375 36.375 
Q 56.59375 19.140625 48.40625 8.859375 
Q 40.234375 -1.421875 26.421875 -1.421875 
Q 22.703125 -1.421875 18.890625 -0.6875 
Q 15.09375 0.046875 10.984375 1.515625 
z
M 30.609375 32.421875 
Q 37.25 32.421875 41.125 36.953125 
Q 45.015625 41.5 45.015625 49.421875 
Q 45.015625 57.28125 41.125 61.84375 
Q 37.25 66.40625 30.609375 66.40625 
Q 23.96875 66.40625 20.09375 61.84375 
Q 16.21875 57.28125 16.21875 49.421875 
Q 16.21875 41.5 20.09375 36.953125 
Q 23.96875 32.421875 30.609375 32.421875 
z
" id="DejaVuSans-57"/>
      </defs>
      <g style="fill:#262626;" transform="translate(490.213675 651.898438)scale(0.1 -0.1)">
       <use xlink:href="#DejaVuSans-50"/>
       <use x="63.623047" xlink:href="#DejaVuSans-48"/>
       <use x="127.246094" xlink:href="#DejaVuSans-49"/>
       <use x="190.869141" xlink:href="#DejaVuSans-57"/>
      </g>
     </g>
    </g>
    <g id="xtick_6">
     <g id="line2d_11">
      <path clip-path="url(#p5a2d1a878b)" d="M 587.698692 640.8 
L 587.698692 86.4 
" style="fill:none;stroke:#cccccc;stroke-linecap:round;stroke-width:0.8;"/>
     </g>
     <g id="line2d_12"/>
     <g id="text_6">
      <!-- 2020 -->
      <g style="fill:#262626;" transform="translate(574.973692 651.898438)scale(0.1 -0.1)">
       <use xlink:href="#DejaVuSans-50"/>
       <use x="63.623047" xlink:href="#DejaVuSans-48"/>
       <use x="127.246094" xlink:href="#DejaVuSans-50"/>
       <use x="190.869141" xlink:href="#DejaVuSans-48"/>
      </g>
     </g>
    </g>
   </g>
   <g id="matplotlib.axis_2">
    <g id="ytick_1">
     <g id="line2d_13">
      <path clip-path="url(#p5a2d1a878b)" d="M 90 615.605543 
L 648 615.605543 
" style="fill:none;stroke:#cccccc;stroke-linecap:round;stroke-width:0.8;"/>
     </g>
     <g id="line2d_14"/>
     <g id="text_7">
      <!-- 0 -->
      <g style="fill:#262626;" transform="translate(80.1375 619.404762)scale(0.1 -0.1)">
       <use xlink:href="#DejaVuSans-48"/>
      </g>
     </g>
    </g>
    <g id="ytick_2">
     <g id="line2d_15">
      <path clip-path="url(#p5a2d1a878b)" d="M 90 504.742505 
L 648 504.742505 
" style="fill:none;stroke:#cccccc;stroke-linecap:round;stroke-width:0.8;"/>
     </g>
     <g id="line2d_16"/>
     <g id="text_8">
      <!-- 20000 -->
      <g style="fill:#262626;" transform="translate(54.6875 508.541724)scale(0.1 -0.1)">
       <use xlink:href="#DejaVuSans-50"/>
       <use x="63.623047" xlink:href="#DejaVuSans-48"/>
       <use x="127.246094" xlink:href="#DejaVuSans-48"/>
       <use x="190.869141" xlink:href="#DejaVuSans-48"/>
       <use x="254.492188" xlink:href="#DejaVuSans-48"/>
      </g>
     </g>
    </g>
    <g id="ytick_3">
     <g id="line2d_17">
      <path clip-path="url(#p5a2d1a878b)" d="M 90 393.879467 
L 648 393.879467 
" style="fill:none;stroke:#cccccc;stroke-linecap:round;stroke-width:0.8;"/>
     </g>
     <g id="line2d_18"/>
     <g id="text_9">
      <!-- 40000 -->
      <defs>
       <path d="M 37.796875 64.3125 
L 12.890625 25.390625 
L 37.796875 25.390625 
z
M 35.203125 72.90625 
L 47.609375 72.90625 
L 47.609375 25.390625 
L 58.015625 25.390625 
L 58.015625 17.1875 
L 47.609375 17.1875 
L 47.609375 0 
L 37.796875 0 
L 37.796875 17.1875 
L 4.890625 17.1875 
L 4.890625 26.703125 
z
" id="DejaVuSans-52"/>
      </defs>
      <g style="fill:#262626;" transform="translate(54.6875 397.678686)scale(0.1 -0.1)">
       <use xlink:href="#DejaVuSans-52"/>
       <use x="63.623047" xlink:href="#DejaVuSans-48"/>
       <use x="127.246094" xlink:href="#DejaVuSans-48"/>
       <use x="190.869141" xlink:href="#DejaVuSans-48"/>
       <use x="254.492188" xlink:href="#DejaVuSans-48"/>
      </g>
     </g>
    </g>
    <g id="ytick_4">
     <g id="line2d_19">
      <path clip-path="url(#p5a2d1a878b)" d="M 90 283.016429 
L 648 283.016429 
" style="fill:none;stroke:#cccccc;stroke-linecap:round;stroke-width:0.8;"/>
     </g>
     <g id="line2d_20"/>
     <g id="text_10">
      <!-- 60000 -->
      <g style="fill:#262626;" transform="translate(54.6875 286.815648)scale(0.1 -0.1)">
       <use xlink:href="#DejaVuSans-54"/>
       <use x="63.623047" xlink:href="#DejaVuSans-48"/>
       <use x="127.246094" xlink:href="#DejaVuSans-48"/>
       <use x="190.869141" xlink:href="#DejaVuSans-48"/>
       <use x="254.492188" xlink:href="#DejaVuSans-48"/>
      </g>
     </g>
    </g>
    <g id="ytick_5">
     <g id="line2d_21">
      <path clip-path="url(#p5a2d1a878b)" d="M 90 172.153391 
L 648 172.153391 
" style="fill:none;stroke:#cccccc;stroke-linecap:round;stroke-width:0.8;"/>
     </g>
     <g id="line2d_22"/>
     <g id="text_11">
      <!-- 80000 -->
      <g style="fill:#262626;" transform="translate(54.6875 175.95261)scale(0.1 -0.1)">
       <use xlink:href="#DejaVuSans-56"/>
       <use x="63.623047" xlink:href="#DejaVuSans-48"/>
       <use x="127.246094" xlink:href="#DejaVuSans-48"/>
       <use x="190.869141" xlink:href="#DejaVuSans-48"/>
       <use x="254.492188" xlink:href="#DejaVuSans-48"/>
      </g>
     </g>
    </g>
   </g>
   <g id="line2d_23">
    <path clip-path="url(#p5a2d1a878b)" d="M 115.363636 615.6 
L 115.450474 615.539025 
L 116.705974 615.173177 
L 117.227472 614.979167 
L 117.859767 614.857218 
L 118.032115 614.757441 
L 118.39049 614.613319 
L 118.743437 614.513542 
L 119.525967 614.325075 
L 119.597727 614.253014 
L 120.214019 614.114435 
L 120.307057 614.042374 
L 120.890448 613.903796 
L 122.390136 613.598922 
L 123.078623 613.449257 
L 124.413271 612.96146 
L 124.487946 612.911571 
L 125.045557 612.75082 
L 125.13634 612.673216 
L 126.050865 612.45149 
L 126.120469 612.407145 
L 126.463014 612.268566 
L 127.213743 611.969236 
L 127.48598 611.847286 
L 128.074887 611.614474 
L 128.367601 611.509154 
L 129.023134 611.320687 
L 130.230843 610.927123 
L 130.887056 610.794087 
L 130.967747 610.755285 
L 131.354806 610.627793 
L 131.398978 610.561275 
L 132.262541 610.417153 
L 133.258044 610.012503 
L 133.937895 609.879467 
L 133.99488 609.851751 
L 134.379222 609.724259 
L 134.461937 609.618939 
L 134.671576 609.48036 
L 134.817917 609.419386 
L 134.940077 609.386127 
L 135.818986 609.264177 
L 136.055791 609.131142 
L 137.386579 608.759751 
L 137.507271 608.654431 
L 138.023303 608.421618 
L 139.457445 608.050227 
L 139.547683 607.972623 
L 140.583214 607.800785 
L 140.683012 607.712095 
L 141.090064 607.584602 
L 141.205067 607.518085 
L 142.5374 607.113434 
L 142.615323 607.085719 
L 142.813972 606.958226 
L 142.920234 606.936054 
L 143.884863 606.570206 
L 144.76978 605.91057 
L 145.508629 605.744276 
L 145.649536 605.600154 
L 145.928089 605.456032 
L 146.310608 605.140072 
L 146.924973 604.99595 
L 147.002844 604.934976 
L 147.181484 604.813026 
L 147.361964 604.729879 
L 148.571644 604.408376 
L 148.804387 604.264254 
L 149.250412 604.064701 
L 149.493696 603.926122 
L 150.174096 603.743198 
L 150.25909 603.682223 
L 150.593117 603.549188 
L 150.740905 603.416152 
L 150.906791 603.294203 
L 150.999009 603.244314 
L 151.876602 602.9727 
L 152.365509 602.617938 
L 152.581105 602.473816 
L 152.681661 602.429471 
L 153.888856 601.897329 
L 153.965715 601.792009 
L 154.179004 601.670059 
L 154.290475 601.647887 
L 155.040763 601.326384 
L 155.158862 601.204435 
L 156.018108 600.833043 
L 156.639243 600.711094 
L 156.758368 600.61686 
L 157.124839 600.400677 
L 157.59976 600.251012 
L 157.674957 600.21221 
L 158.331673 600.079175 
L 158.451833 600.040373 
L 159.576701 599.397367 
L 159.923463 599.275418 
L 160.024223 599.203357 
L 160.161041 599.081407 
L 160.441881 598.870768 
L 160.670929 598.710016 
L 160.753378 598.671214 
L 161.536865 598.438402 
L 161.857427 598.17233 
L 163.421856 597.983863 
L 163.531486 597.945061 
L 164.809664 597.712249 
L 165.259941 597.412919 
L 165.356043 597.252167 
L 165.504 597.119132 
L 165.625299 597.002725 
L 166.63842 596.57036 
L 166.845684 596.420694 
L 166.918908 596.259943 
L 166.995231 596.110278 
L 167.131496 595.993872 
L 167.263531 595.894095 
L 167.369698 595.755516 
L 167.432277 595.688998 
L 168.106452 595.555963 
L 169.260613 594.596997 
L 169.689103 594.469505 
L 170.15241 594.009423 
L 170.268466 593.820956 
L 170.384057 593.699007 
L 170.461426 593.577058 
L 170.631016 593.455108 
L 170.682515 593.394133 
L 171.312531 593.255555 
L 171.426773 593.155778 
L 171.532572 593.022742 
L 171.749313 592.756671 
L 171.877074 592.557118 
L 172.007108 592.396366 
L 172.112325 592.268874 
L 172.268495 592.146924 
L 173.049343 591.903026 
L 173.18439 591.764447 
L 173.29703 591.709015 
L 173.380099 591.587066 
L 173.478362 591.354254 
L 173.667723 591.182416 
L 173.969345 590.96069 
L 174.608412 590.822111 
L 175.069768 590.24008 
L 175.213545 590.095958 
L 175.70779 589.547186 
L 176.205186 589.270028 
L 176.447876 589.153622 
L 176.664335 588.981785 
L 176.776883 588.942983 
L 176.882013 588.748972 
L 177.023955 588.615937 
L 177.183767 588.438556 
L 177.791431 588.30552 
L 177.913021 588.161398 
L 178.071008 587.98956 
L 178.228441 587.867611 
L 178.288829 587.662514 
L 178.396881 587.523936 
L 178.532638 587.396443 
L 178.718435 587.252321 
L 179.492991 586.764524 
L 179.895593 586.215752 
L 180.007165 586.043914 
L 180.077678 585.916422 
L 180.216093 585.66698 
L 180.342064 585.528401 
L 180.460334 585.373193 
L 181.055208 585.145923 
L 181.207467 585.029517 
L 181.3161 584.846593 
L 181.422883 584.757903 
L 181.533337 584.602695 
L 181.859968 584.142613 
L 181.981727 583.992948 
L 182.10135 583.843283 
L 182.549208 583.699161 
L 182.657784 583.571668 
L 182.860973 583.31114 
L 183.141832 582.773454 
L 183.239267 582.579444 
L 183.356172 582.457495 
L 183.480767 582.224682 
L 183.584725 582.08056 
L 183.669217 581.759058 
L 184.284778 581.531788 
L 184.446622 581.304519 
L 184.542065 581.143768 
L 184.706073 580.872153 
L 184.802269 580.667057 
L 184.920026 580.550651 
L 184.994662 580.400985 
L 185.167934 580.212518 
L 186.019114 579.680376 
L 186.168113 579.502995 
L 186.348468 579.297898 
L 186.47479 579.076172 
L 187.337326 578.355562 
L 187.523072 578.22807 
L 187.645081 578.056232 
L 187.794707 577.906567 
L 187.908285 577.756902 
L 188.041321 577.618323 
L 188.160896 577.479744 
L 188.262317 577.29682 
L 188.449245 577.003033 
L 188.830485 576.764678 
L 189.151069 576.648272 
L 189.830095 575.700393 
L 189.898226 575.48421 
L 190.098192 575.262484 
L 190.383228 575.107275 
L 190.699906 574.985326 
L 190.779554 574.857834 
L 190.829476 574.708168 
L 191.156115 574.153853 
L 191.284817 574.026361 
L 191.399953 573.84898 
L 191.496695 573.704858 
L 191.605637 573.510848 
L 191.717137 573.394441 
L 191.869775 573.200431 
L 192.361932 573.061852 
L 192.429553 572.901101 
L 192.536231 572.751436 
L 192.662734 572.551882 
L 192.810524 572.330156 
L 192.907997 572.163862 
L 193.046189 572.00311 
L 193.127167 571.864532 
L 193.267689 571.653892 
L 193.333783 571.537486 
L 193.694688 571.19381 
L 194.027807 571.021972 
L 194.516725 570.290276 
L 195.172715 569.309139 
L 195.65343 569.076326 
L 195.780677 568.682762 
L 196.431375 567.790315 
L 196.566758 567.651736 
L 196.700306 567.352406 
L 197.013248 567.21937 
L 197.146129 567.147309 
L 197.380031 566.992101 
L 197.783017 566.471045 
L 197.876846 566.360182 
L 197.985137 566.221603 
L 198.109834 565.9001 
L 198.255194 565.711633 
L 198.342862 565.645115 
L 198.901822 565.484364 
L 199.301508 564.874617 
L 199.386967 564.697236 
L 199.503071 564.481053 
L 199.628929 564.348018 
L 200.158085 563.793702 
L 200.519304 563.655124 
L 200.732586 563.206128 
L 200.800257 562.989945 
L 200.934152 562.701701 
L 201.035124 562.424544 
L 201.151615 562.208361 
L 201.272587 562.03098 
L 201.381359 561.931203 
L 201.48722 561.770452 
L 201.526297 561.642959 
L 202.186845 561.526553 
L 202.484949 560.90572 
L 202.613626 560.783771 
L 202.756521 560.456725 
L 202.854451 560.284887 
L 202.944619 560.057618 
L 203.088657 559.919039 
L 203.272637 559.652968 
L 203.79134 559.464501 
L 203.9024 559.337008 
L 204.018797 559.165171 
L 204.535813 558.450104 
L 204.996432 557.978936 
L 205.396069 557.840357 
L 205.534162 557.557656 
L 205.68365 557.280499 
L 206.434748 556.559889 
L 206.957106 556.410224 
L 207.215125 555.933513 
L 207.292768 555.711787 
L 207.400874 555.451259 
L 207.71073 555.002263 
L 207.878732 554.708476 
L 207.986252 554.547725 
L 208.175728 554.337085 
L 208.400967 554.259481 
L 208.626185 554.137532 
L 208.756459 553.843745 
L 208.904918 553.58876 
L 209.236032 552.967927 
L 209.4056 552.701855 
L 209.64695 552.236231 
L 209.705722 552.169713 
L 209.87242 552.053307 
L 209.96499 551.914728 
L 210.198223 551.792779 
L 210.358116 551.421387 
L 210.512203 551.255093 
L 211.472367 550.174178 
L 211.929084 549.985711 
L 212.049669 549.863762 
L 212.169469 549.697467 
L 212.313732 549.564431 
L 212.474552 549.387051 
L 212.960868 548.760674 
L 213.505533 548.616552 
L 214.790527 546.964693 
L 215.164406 546.709708 
L 215.282469 546.571129 
L 215.426996 546.36049 
L 215.576821 546.188652 
L 215.976982 545.495758 
L 216.287559 545.163169 
L 216.761351 545.002417 
L 216.954811 544.703087 
L 217.918604 543.516853 
L 218.434289 543.30067 
L 219.603287 541.909339 
L 219.95694 541.781846 
L 220.322379 541.238617 
L 220.486935 541.033521 
L 220.829302 540.678759 
L 221.806959 540.22422 
L 221.915897 540.041296 
L 222.154317 539.664362 
L 222.404157 539.231996 
L 222.939683 538.893864 
L 223.290635 538.738656 
L 223.437519 538.550189 
L 223.546614 538.378351 
L 223.709528 538.11228 
L 223.788197 537.912726 
L 223.904223 537.779691 
L 224.15859 537.402756 
L 224.282916 537.131142 
L 224.635058 536.998106 
L 224.844117 536.86507 
L 226.016166 534.936054 
L 226.471773 534.758673 
L 226.549657 534.609008 
L 226.722244 534.492601 
L 226.872488 534.093494 
L 227.013773 533.882855 
L 227.172126 533.577981 
L 227.275259 533.350712 
L 227.382881 533.178874 
L 227.477029 533.007037 
L 227.583845 532.757595 
L 228.126318 532.613473 
L 229.251711 530.590222 
L 229.706672 530.457187 
L 230.118275 529.719948 
L 230.206269 529.570283 
L 230.810227 528.52817 
L 231.383397 528.328617 
L 231.451147 528.10689 
L 231.66631 527.657895 
L 232.097133 526.898483 
L 232.155257 526.732189 
L 232.266615 526.615783 
L 232.364378 526.477204 
L 232.497902 526.166787 
L 232.976658 526.006036 
L 233.291981 525.351944 
L 233.477517 525.091416 
L 233.604738 524.775456 
L 233.737447 524.598075 
L 233.858204 524.287659 
L 234.12836 523.910724 
L 234.645481 523.766603 
L 234.793703 523.494988 
L 234.934903 523.289891 
L 235.41465 522.574825 
L 235.525755 522.414073 
L 235.620589 522.242236 
L 235.697934 522.131373 
L 236.033085 521.998337 
L 236.304166 521.798784 
L 236.58338 521.488367 
L 236.768867 521.244468 
L 236.897577 521.083717 
L 237.102709 520.78993 
L 237.227344 520.667981 
L 237.388148 520.390823 
L 237.821947 520.207899 
L 238.407835 519.409685 
L 238.512855 519.243391 
L 238.627229 519.043837 
L 239.010452 518.506151 
L 239.475823 518.350943 
L 239.659892 518.001725 
L 239.83704 517.796628 
L 239.9445 517.674679 
L 240.10288 517.419694 
L 240.250301 517.242313 
L 240.439388 517.070475 
L 240.73876 516.898637 
L 241.162847 516.615937 
L 241.330981 516.316606 
L 241.453361 516.172484 
L 241.585863 515.995104 
L 241.809707 515.562738 
L 241.935519 515.346555 
L 242.066277 515.202433 
L 242.372809 514.980707 
L 242.761368 514.770067 
L 243.877361 512.962999 
L 244.376243 512.791162 
L 245.177165 511.566125 
L 245.287182 511.449719 
L 245.408659 511.300054 
L 245.513407 511.244622 
L 246.015278 511.017353 
L 246.125122 510.895404 
L 246.332859 510.645962 
L 246.448514 510.529556 
L 248.999268 509.542875 
L 249.301341 509.387666 
L 249.977698 508.811179 
L 250.071951 508.6726 
L 250.31096 508.412072 
L 250.835533 508.256863 
L 250.936103 508.112742 
L 251.044638 507.913188 
L 251.169166 507.763523 
L 251.288665 507.56397 
L 251.444458 507.386589 
L 251.573165 507.242467 
L 251.654797 507.137147 
L 251.906271 507.020741 
L 252.008861 506.865532 
L 252.492095 506.699238 
L 252.802965 506.466425 
L 252.989541 506.272415 
L 253.1221 506.011887 
L 253.263358 505.862222 
L 253.606344 505.219216 
L 254.092475 505.064008 
L 254.20995 504.914343 
L 254.841035 504.027439 
L 254.912894 503.88886 
L 255.242683 503.473123 
L 255.627616 503.329001 
L 255.806084 503.16825 
L 255.950643 502.86892 
L 256.037456 502.735884 
L 256.155982 502.480899 
L 256.297246 502.275803 
L 256.419398 502.009731 
L 256.506913 501.876696 
L 256.662978 501.621711 
L 256.7152 501.494218 
L 256.800616 501.261406 
L 257.326343 501.078482 
L 257.569394 500.574055 
L 257.671989 500.429933 
L 257.78732 500.191577 
L 257.926568 499.980938 
L 258.29717 499.221526 
L 258.351663 499.082947 
L 258.706467 498.744815 
L 258.966703 498.59515 
L 259.141373 498.378967 
L 259.30313 498.140611 
L 259.426484 497.924428 
L 259.508706 497.76922 
L 260.015697 496.743737 
L 260.233308 496.494295 
L 260.625178 496.23931 
L 260.720294 496.023127 
L 261.929154 493.667288 
L 262.508928 492.89679 
L 262.640123 492.58083 
L 262.739093 492.442251 
L 262.950155 492.043144 
L 263.024212 491.893479 
L 263.179324 491.555347 
L 263.273563 491.311448 
L 263.445924 491.189499 
L 263.808076 490.973316 
L 263.95525 490.740504 
L 265.374104 489.288198 
L 265.57932 489.149619 
L 265.784501 488.911263 
L 265.950621 488.650735 
L 266.043565 488.473354 
L 266.158301 488.301517 
L 266.413377 487.863608 
L 266.514158 487.702856 
L 266.682144 487.536562 
L 267.138331 487.342551 
L 267.215286 487.215059 
L 267.337792 487.104196 
L 268.447945 485.956763 
L 268.84271 485.807098 
L 269.05709 485.579829 
L 269.180624 485.435707 
L 269.323914 485.252783 
L 269.450672 485.153006 
L 269.525402 485.014428 
L 269.637292 484.881392 
L 269.8953 484.537717 
L 270.426455 484.338163 
L 270.647362 484.038833 
L 270.865672 483.811564 
L 271.042944 483.484518 
L 271.185345 483.301594 
L 271.301495 483.113126 
L 271.392272 482.985634 
L 271.464806 482.913573 
L 272.06169 482.774994 
L 272.647192 482.010039 
L 272.771372 481.821572 
L 273.01642 481.383663 
L 273.32045 481.228455 
L 273.670526 481.084333 
L 273.909881 480.679683 
L 274.521381 479.898098 
L 274.6396 479.731804 
L 274.713408 479.620941 
L 275.293093 479.449103 
L 275.359504 479.277265 
L 275.524667 479.061082 
L 275.768242 478.689691 
L 275.969531 478.379275 
L 276.754647 477.819416 
L 276.988947 477.675294 
L 277.124217 477.575518 
L 277.224555 477.359335 
L 277.337168 477.281731 
L 277.761264 476.616552 
L 278.42841 476.162014 
L 278.522139 476.012349 
L 278.639713 475.823882 
L 278.819089 475.635415 
L 278.939467 475.430318 
L 279.041732 475.269567 
L 279.155275 475.070013 
L 279.480342 474.798399 
L 279.686304 474.587759 
L 280.12504 474.332774 
L 280.321464 473.983555 
L 280.409665 473.784002 
L 280.632146 473.456956 
L 280.708193 473.301748 
L 280.848758 473.096651 
L 281.452068 472.248549 
L 281.740074 472.093341 
L 281.978773 471.572284 
L 282.055798 471.339472 
L 282.221246 470.990253 
L 282.311341 470.724182 
L 282.475179 470.469197 
L 283.187902 469.637724 
L 283.417852 469.465887 
L 284.605842 467.741966 
L 284.961312 467.608931 
L 285.068512 467.437093 
L 285.145972 467.270798 
L 285.323294 466.916037 
L 285.690101 466.245315 
L 285.819588 466.00696 
L 285.93423 465.896097 
L 286.033549 465.729802 
L 286.174273 465.60231 
L 286.688144 465.302979 
L 286.797868 465.031365 
L 286.885544 464.892786 
L 287.110998 464.465964 
L 287.167787 464.327385 
L 287.290788 463.972623 
L 287.83674 463.213211 
L 288.534747 462.553576 
L 288.647763 462.259789 
L 288.739352 462.065779 
L 288.859582 461.799707 
L 288.979465 461.677758 
L 289.271717 461.10127 
L 289.392305 460.984864 
L 289.860323 460.779767 
L 290.005369 460.5913 
L 290.193179 460.352945 
L 290.400002 460.08133 
L 290.67927 459.610162 
L 290.792584 459.438325 
L 290.917063 459.199969 
L 291.021567 459.050304 
L 291.425408 458.88401 
L 292.296257 457.819724 
L 292.618789 457.343013 
L 293.239102 456.905104 
L 293.967674 455.91288 
L 294.099286 455.752129 
L 294.255988 455.497144 
L 294.677883 455.358565 
L 294.809119 455.136839 
L 295.02705 454.660128 
L 296.088373 452.936208 
L 296.426316 452.769913 
L 296.517417 452.548187 
L 296.750431 452.431781 
L 297.482855 451.494988 
L 297.986598 451.345323 
L 298.088272 451.173485 
L 298.521829 450.469505 
L 298.694458 450.120286 
L 298.97127 449.687921 
L 299.45631 449.410763 
L 299.627622 449.272184 
L 299.744863 449.08926 
L 300.218394 448.196813 
L 300.427884 447.819878 
L 300.655802 447.47066 
L 300.762113 447.332081 
L 301.093985 447.193502 
L 301.221452 447.088182 
L 302.558973 444.566048 
L 302.833081 444.433013 
L 302.911874 444.255632 
L 302.971227 444.050535 
L 303.233344 443.202433 
L 303.458232 442.797783 
L 303.57089 442.592686 
L 303.643838 442.454107 
L 303.775458 442.17695 
L 303.903692 441.894249 
L 304.076209 441.722411 
L 304.533304 441.54503 
L 304.831432 440.835507 
L 304.937683 440.663669 
L 305.049293 440.469659 
L 305.242035 440.020664 
L 305.590748 439.272338 
L 306.122662 439.01181 
L 306.315748 438.845515 
L 306.429001 438.612703 
L 306.570789 438.357718 
L 306.6794 438.158165 
L 306.833342 437.853291 
L 306.939475 437.57059 
L 307.048763 437.343321 
L 307.155954 437.110509 
L 307.252172 436.977473 
L 307.617192 436.827808 
L 308.056769 436.129371 
L 308.271679 435.624944 
L 308.296562 435.453106 
L 308.414002 435.175949 
L 308.482595 435.009654 
L 308.595273 434.743583 
L 308.715274 434.566202 
L 308.799685 434.266872 
L 308.917689 434.167095 
L 309.007008 434.022973 
L 309.104585 433.923197 
L 309.443515 433.695927 
L 309.561033 433.479744 
L 309.709882 433.152698 
L 309.841572 432.942059 
L 309.91785 432.764678 
L 309.95321 432.587297 
L 310.782412 431.367804 
L 310.991103 431.234768 
L 311.123917 430.97424 
L 311.263719 430.752514 
L 311.732845 429.660513 
L 311.791351 429.499761 
L 312.19259 428.984248 
L 312.625943 428.806867 
L 312.771564 428.402217 
L 313.152003 427.659435 
L 313.260581 427.171638 
L 313.417614 426.816876 
L 313.742519 426.196043 
L 314.323175 425.713789 
L 314.493292 425.353484 
L 314.568844 425.17056 
L 315.033545 424.355716 
L 315.448726 423.601848 
L 315.848038 423.391208 
L 315.959329 423.13068 
L 316.045562 422.908954 
L 316.266767 422.51539 
L 316.352266 422.376811 
L 316.510659 422.038679 
L 316.643537 421.772608 
L 317.230369 420.841358 
L 317.491621 420.708322 
L 317.607386 420.403449 
L 317.838463 419.899022 
L 317.912413 419.743814 
L 318.02304 419.433397 
L 318.288326 418.989945 
L 318.400095 418.73496 
L 318.509727 418.479975 
L 318.63604 418.313681 
L 318.940486 418.152929 
L 319.143638 418.025437 
L 319.341317 417.681761 
L 319.465358 417.376888 
L 320.182784 415.935669 
L 320.256959 415.858065 
L 320.57135 415.713943 
L 320.747216 415.508846 
L 320.942753 415.126368 
L 321.287903 414.616398 
L 321.399427 414.350327 
L 322.219978 413.463423 
L 322.392906 413.33593 
L 322.517103 413.092032 
L 323.367571 411.345939 
L 323.486922 411.124213 
L 323.84788 410.896944 
L 324.14379 410.492293 
L 324.550927 409.721795 
L 324.66172 409.516699 
L 325.437864 408.984556 
L 325.67261 408.823805 
L 325.87095 408.480129 
L 325.984488 408.247317 
L 326.119323 408.092109 
L 326.239709 407.770606 
L 326.345933 407.410301 
L 326.410683 407.227377 
L 326.528421 406.778382 
L 326.760167 406.146462 
L 327.214715 405.897021 
L 327.384703 405.520086 
L 327.49917 405.31499 
L 327.595853 405.143152 
L 327.735633 404.793933 
L 328.130347 403.912572 
L 328.192054 403.696389 
L 328.303122 403.402602 
L 328.548102 403.203049 
L 328.808387 403.058927 
L 328.940074 402.876003 
L 329.077296 402.632104 
L 329.157527 402.44918 
L 329.280033 402.232997 
L 329.433556 402.061159 
L 329.769011 401.595535 
L 329.8883 401.456956 
L 330.002824 401.274032 
L 330.490527 401.085565 
L 330.602398 400.891554 
L 330.964846 400.4093 
L 331.098901 400.19866 
L 331.213758 400.010193 
L 331.423511 399.733036 
L 332.382713 399.466964 
L 332.50794 399.383817 
L 333.147628 399.006883 
L 334.011175 398.779614 
L 334.199608 398.541258 
L 334.376375 398.291816 
L 334.540723 398.153237 
L 334.544416 398.142151 
L 334.785226 398.025745 
L 334.938918 397.892709 
L 335.365209 397.726415 
L 335.489199 397.510232 
L 335.774471 397.105582 
L 335.913851 396.917114 
L 336.031617 396.695388 
L 336.187811 396.445947 
L 336.480482 395.996951 
L 337.048506 395.753053 
L 337.192645 395.531327 
L 337.287941 395.376118 
L 337.39878 395.182108 
L 337.556155 394.965925 
L 337.818256 394.489214 
L 337.95132 394.317376 
L 338.064411 394.11228 
L 338.757701 393.657741 
L 339.84292 391.900562 
L 340.31611 391.66775 
L 340.418246 391.506998 
L 340.561663 391.35179 
L 340.873043 390.847363 
L 341.047528 390.581292 
L 341.207106 390.409454 
L 341.406949 390.148926 
L 341.711129 390.038063 
L 341.956174 389.82188 
L 342.096148 389.616783 
L 342.22343 389.400601 
L 342.334259 389.256479 
L 343.177349 388.314143 
L 343.550531 388.131219 
L 343.686721 387.837432 
L 343.822953 387.565817 
L 344.597493 386.1634 
L 344.898023 385.997105 
L 345.241291 385.719948 
L 345.39247 385.509308 
L 345.832604 384.594688 
L 346.290247 383.879621 
L 346.81692 383.497144 
L 346.994143 383.075864 
L 347.066131 382.915113 
L 347.19637 382.637955 
L 347.602869 381.850828 
L 347.746738 381.712249 
L 347.892315 381.518239 
L 348.198971 381.37966 
L 348.40441 381.252167 
L 348.498303 381.096959 
L 348.620204 380.886319 
L 348.735535 380.631334 
L 348.842874 380.415151 
L 348.956933 380.221141 
L 349.168059 379.783232 
L 349.301926 379.528247 
L 349.396196 379.389668 
L 350.303133 378.397444 
L 350.638515 377.80987 
L 350.756764 377.626946 
L 351.00369 377.150235 
L 351.272046 376.934052 
L 351.725741 376.640265 
L 351.863307 376.418539 
L 352.05749 376.080406 
L 352.192346 375.886396 
L 352.622014 375.387513 
L 353.47046 374.788852 
L 353.647071 374.495065 
L 353.773773 374.362029 
L 353.953963 374.145846 
L 354.192635 373.852059 
L 354.337595 373.691308 
L 354.916856 373.41415 
L 355.956824 372.050535 
L 356.49721 371.862068 
L 356.683294 371.595997 
L 357.187995 370.914189 
L 357.280756 370.77561 
L 357.446688 370.56497 
L 358.362269 370.215752 
L 358.48617 370.010655 
L 358.640383 369.816645 
L 358.87779 369.522858 
L 359.32396 369.123751 
L 359.670767 368.957456 
L 359.81255 368.774532 
L 360.115467 368.386512 
L 360.344891 368.13707 
L 360.453696 367.92643 
L 360.535007 367.771222 
L 360.650625 367.577211 
L 360.782409 367.338856 
L 361.135375 367.144846 
L 361.492616 366.967465 
L 362.182119 365.908723 
L 362.315164 365.753515 
L 362.48059 365.537332 
L 362.990059 365.382123 
L 363.110375 365.171484 
L 363.847418 364.151544 
L 363.962961 363.96862 
L 364.977756 362.943137 
L 365.075796 362.776842 
L 365.161414 362.621634 
L 365.566916 361.950912 
L 365.644161 361.790161 
L 365.753761 361.568435 
L 366.224048 361.368881 
L 366.371579 361.086181 
L 366.483335 360.936516 
L 366.704658 360.642728 
L 366.805956 360.415459 
L 366.956452 360.105043 
L 367.323893 359.401062 
L 367.431141 359.323458 
L 368.102919 359.051844 
L 368.220251 358.880006 
L 369.31201 357.278035 
L 369.532462 357.133913 
L 369.627489 356.967619 
L 369.743416 356.729263 
L 369.816318 356.585141 
L 369.984835 356.247009 
L 370.104283 356.10843 
L 370.224642 355.953222 
L 370.330984 355.792471 
L 370.455888 355.592917 
L 370.973578 355.21044 
L 371.142268 355.071861 
L 371.760729 353.747048 
L 371.889388 353.614012 
L 372.058026 353.375656 
L 372.189319 353.137301 
L 372.336197 353.026438 
L 372.886861 352.738194 
L 373.956195 351.269259 
L 374.356109 351.136223 
L 374.471069 350.903411 
L 374.681001 350.581908 
L 374.818156 350.404527 
L 375.176217 349.789237 
L 375.344444 349.49545 
L 375.456079 349.295897 
L 375.615402 349.240465 
L 376.033525 349.007653 
L 376.357146 348.724952 
L 376.591281 348.519855 
L 376.775401 348.303672 
L 376.922984 348.120748 
L 377.030321 347.893479 
L 377.376311 347.682839 
L 377.623851 347.549804 
L 377.753606 347.300362 
L 378.085916 346.96223 
L 378.250622 346.679529 
L 378.406663 346.457803 
L 378.648795 346.069782 
L 379.336053 345.642959 
L 379.896546 344.39575 
L 380.035334 344.11305 
L 380.185656 343.808176 
L 380.509798 343.353638 
L 380.735749 343.303749 
L 380.887998 343.165171 
L 381.029155 342.926815 
L 381.213914 342.810409 
L 381.353232 342.605312 
L 381.497772 342.311525 
L 381.888667 341.657433 
L 382.010157 341.474509 
L 382.616868 341.075402 
L 382.920975 340.504458 
L 383.047739 340.360336 
L 383.913102 339.357025 
L 384.124279 339.20736 
L 384.277141 338.969005 
L 384.39374 338.791624 
L 384.532458 338.564354 
L 384.681291 338.359258 
L 384.807662 338.104273 
L 385.678514 337.28943 
L 385.839842 337.039988 
L 385.992472 336.790546 
L 386.501898 335.803865 
L 386.687598 335.54888 
L 386.819399 335.332697 
L 387.012208 335.14423 
L 387.321715 335.016737 
L 388.181364 333.375964 
L 388.264267 333.231842 
L 388.420523 332.976857 
L 388.555673 332.744045 
L 388.956584 332.516776 
L 389.212888 332.211902 
L 389.469649 331.596613 
L 389.554476 331.430318 
L 389.799155 330.914805 
L 389.900625 330.742967 
L 390.008857 330.510155 
L 390.503172 330.116591 
L 390.736101 329.917037 
L 390.93152 329.678682 
L 390.988618 329.551189 
L 391.379566 328.91927 
L 391.452094 328.769605 
L 391.61254 328.481361 
L 391.937153 328.104427 
L 392.28825 327.938132 
L 393.146488 326.546801 
L 393.265963 326.352791 
L 393.422351 326.147694 
L 393.819897 325.9814 
L 393.977239 325.715328 
L 394.177923 325.382739 
L 394.295524 325.216445 
L 394.455041 324.94483 
L 394.8872 324.357256 
L 395.51399 324.013581 
L 395.715986 323.664362 
L 395.836901 323.498068 
L 395.967855 323.215367 
L 396.911563 322.189884 
L 397.212088 322.023589 
L 397.33811 321.857295 
L 398.205198 320.815182 
L 398.765642 320.659974 
L 398.886488 320.47705 
L 399.010069 320.299669 
L 399.114264 320.127831 
L 399.520365 319.407221 
L 399.609109 319.196582 
L 399.861107 318.75313 
L 400.315337 318.620094 
L 400.437532 318.409454 
L 400.562199 318.171099 
L 400.625995 318.03252 
L 400.735875 317.844053 
L 400.856545 317.600154 
L 401.031742 317.256479 
L 401.526022 316.48598 
L 401.812361 316.352945 
L 402.281995 315.687767 
L 402.402082 315.432782 
L 402.498851 315.266487 
L 402.51236 315.244314 
L 402.710396 315.127908 
L 402.844089 314.878466 
L 403.050194 314.584679 
L 403.217067 314.396212 
L 403.633207 314.246547 
L 403.749599 314.030364 
L 404.021508 313.592455 
L 404.319359 313.110201 
L 405.134289 312.339703 
L 405.248993 312.21221 
L 405.396813 311.996027 
L 405.585854 311.574748 
L 405.720917 311.325306 
L 405.834602 311.153468 
L 405.929105 310.953915 
L 406.043688 310.693387 
L 406.190903 310.416229 
L 406.575234 310.061467 
L 406.815059 309.878543 
L 406.94085 309.629102 
L 407.087812 309.318685 
L 407.14613 309.141304 
L 407.504213 308.409608 
L 407.604551 308.193425 
L 408.02118 307.528247 
L 408.298327 307.389668 
L 408.427811 307.328694 
L 408.542959 307.190115 
L 408.624055 306.979475 
L 408.761726 306.663515 
L 408.861222 306.53048 
L 408.989378 306.353099 
L 409.215999 305.904103 
L 409.785528 305.410763 
L 410.133405 305.272184 
L 410.252431 305.011656 
L 410.944465 303.886396 
L 411.053415 303.725645 
L 411.16943 303.520548 
L 411.470939 303.298822 
L 411.768043 303.160243 
L 411.864328 302.993949 
L 412.387049 302.43409 
L 412.683709 302.184649 
L 412.80359 302.073786 
L 413.252628 301.907491 
L 413.833286 301.197968 
L 413.996667 301.020587 
L 414.848224 300.355408 
L 415.015905 300.189114 
L 415.896479 298.947448 
L 416.075677 298.758981 
L 416.185065 298.631488 
L 417.050603 298.387589 
L 417.181258 298.276726 
L 417.351442 298.138148 
L 417.631014 298.005112 
L 417.768171 297.977396 
L 418.498589 297.838817 
L 419.489697 296.757903 
L 419.990791 296.514004 
L 421.076725 295.078328 
L 421.506016 294.862145 
L 421.825632 294.479667 
L 421.945002 294.330002 
L 422.185273 293.99187 
L 422.298706 293.803403 
L 422.573286 293.382123 
L 422.679202 293.254631 
L 423.091251 293.116052 
L 423.41124 292.583909 
L 423.586835 292.306752 
L 423.719909 292.151544 
L 423.847963 291.946447 
L 424.074388 291.586142 
L 424.18928 291.480822 
L 424.588793 291.259096 
L 424.773467 291.109431 
L 424.871523 290.965309 
L 426.153763 289.091724 
L 426.444499 288.919886 
L 426.792712 288.343398 
L 426.998702 287.99418 
L 427.080928 287.838971 
L 427.225543 287.545184 
L 427.371264 287.428778 
L 427.48203 287.262484 
L 427.614395 287.16825 
L 427.814525 287.040758 
L 428.309736 286.580676 
L 428.720605 286.009731 
L 428.834831 285.821264 
L 428.904402 285.704858 
L 429.075298 285.582909 
L 429.18073 285.449873 
L 429.707263 285.294665 
L 429.819472 285.156086 
L 429.971181 285.028593 
L 430.139024 284.779152 
L 430.249172 284.612857 
L 430.361169 284.374502 
L 430.427363 284.241466 
L 430.604446 283.864532 
L 430.747766 283.620633 
L 431.116022 283.343475 
L 431.278051 283.215983 
L 431.581885 282.68384 
L 432.226798 281.619555 
L 432.302931 281.480976 
L 432.428893 281.386743 
L 432.917578 281.148387 
L 433.294356 280.721564 
L 433.700581 280.278112 
L 433.927164 279.995412 
L 434.187446 279.917807 
L 434.568033 279.762599 
L 435.674351 278.227146 
L 436.155662 278.077481 
L 436.409701 277.744892 
L 436.575716 277.451105 
L 436.722189 277.234922 
L 436.887113 276.968851 
L 437.161005 276.630718 
L 437.272626 276.508769 
L 437.77641 276.109662 
L 437.943296 275.810332 
L 438.056455 275.677296 
L 438.233068 275.427854 
L 438.435416 275.100808 
L 438.55704 274.940057 
L 438.786451 274.723874 
L 438.967577 274.529864 
L 439.398736 274.34694 
L 439.507863 274.213904 
L 439.806697 273.920117 
L 439.93596 273.73165 
L 440.350587 273.360259 
L 440.463337 273.20505 
L 440.569986 273.121903 
L 440.951721 272.988868 
L 441.103762 272.850289 
L 441.526791 272.257171 
L 441.772419 271.813719 
L 441.951841 271.508846 
L 442.11018 271.276034 
L 442.638602 270.965617 
L 442.798565 270.627485 
L 442.854383 270.483363 
L 443.00513 270.256094 
L 443.195751 269.995565 
L 443.815056 269.236154 
L 444.217701 269.075402 
L 444.352031 268.792702 
L 444.483146 268.548803 
L 444.589077 268.371422 
L 444.694226 268.199584 
L 444.814967 268.022203 
L 445.09639 267.684071 
L 445.242288 267.517777 
L 445.373817 267.384741 
L 446.00355 267.140842 
L 446.10702 267.068781 
L 446.359534 266.924659 
L 446.497556 266.780537 
L 446.715939 266.614243 
L 447.210472 266.314913 
L 447.591398 266.165248 
L 448.251728 265.18411 
L 448.670002 264.76283 
L 449.252141 264.363723 
L 449.463829 264.025591 
L 449.589284 263.853753 
L 450.466624 262.955763 
L 450.828284 262.806097 
L 450.943506 262.650889 
L 451.314619 262.179721 
L 452.13607 261.309446 
L 452.454143 261.126522 
L 452.592623 261.043375 
L 452.677816 260.871537 
L 452.968181 260.422542 
L 453.13518 260.272877 
L 453.277723 260.056694 
L 453.442645 259.840511 
L 454.054894 259.724105 
L 454.707097 258.742967 
L 454.852412 258.593302 
L 454.958585 258.499068 
L 455.656417 258.221911 
L 455.795708 258.04453 
L 456.241961 257.628794 
L 456.37635 257.479128 
L 456.865462 257.107737 
L 457.342917 256.991331 
L 457.46334 256.897098 
L 457.614399 256.714174 
L 457.720512 256.575595 
L 457.952893 256.381584 
L 458.088456 256.143229 
L 458.525889 255.755208 
L 458.909983 255.622173 
L 459.014871 255.522396 
L 459.189017 255.345015 
L 459.311217 255.151005 
L 459.521453 254.901563 
L 459.847049 254.530172 
L 460.090589 254.313989 
L 460.537939 254.153237 
L 460.651068 253.992486 
L 460.815922 253.77076 
L 461.085256 253.382739 
L 461.262248 253.26079 
L 461.576088 252.889399 
L 462.254883 252.534637 
L 462.345027 252.401601 
L 462.474661 252.274109 
L 462.990282 251.680992 
L 463.202475 251.475895 
L 463.319985 251.3096 
L 463.814649 251.154392 
L 464.045742 250.860605 
L 464.177048 250.683224 
L 464.288323 250.611163 
L 464.603485 250.189884 
L 464.81803 249.90164 
L 465.470845 249.663284 
L 465.637229 249.402756 
L 465.75498 249.253091 
L 465.883706 249.120055 
L 466.048482 248.931588 
L 466.397945 248.482593 
L 467.030797 248.249781 
L 468.242328 247.019201 
L 468.651531 246.891708 
L 469.02631 246.365109 
L 469.164222 246.187728 
L 469.944363 245.234306 
L 470.284631 245.095727 
L 470.403327 244.984864 
L 470.539557 244.824113 
L 470.670623 244.668904 
L 471.419925 243.831889 
L 471.906478 243.682223 
L 472.058821 243.48267 
L 472.165873 243.305289 
L 472.312626 243.144538 
L 472.641181 242.689999 
L 472.734773 242.573593 
L 472.847318 242.435014 
L 472.957459 242.241004 
L 473.589573 241.991562 
L 473.69884 241.852983 
L 473.810122 241.686689 
L 473.923652 241.53148 
L 474.23475 241.110201 
L 474.489361 240.683378 
L 474.7509 240.456109 
L 475.243791 240.31753 
L 475.439471 240.173408 
L 476.350407 238.99826 
L 476.791309 238.848595 
L 476.968317 238.660128 
L 477.140821 238.493833 
L 477.378765 238.155701 
L 477.511933 237.972777 
L 477.814552 237.590299 
L 477.974834 237.473893 
L 478.46346 237.318685 
L 478.747495 236.969466 
L 479.100638 236.531557 
L 479.53034 236.021587 
L 480.356036 235.633567 
L 480.512708 235.350866 
L 480.622512 235.206744 
L 480.748784 235.057079 
L 481.238724 234.40853 
L 481.734332 234.253322 
L 482.210868 233.754438 
L 482.305822 233.582601 
L 482.46056 233.444022 
L 482.667966 233.250012 
L 483.480897 232.795473 
L 484.605459 231.742274 
L 484.987672 231.548264 
L 485.097342 231.359797 
L 485.25115 231.110355 
L 485.354221 230.949604 
L 485.547664 230.755593 
L 485.941967 230.312141 
L 486.063143 230.25671 
L 486.574399 230.051613 
L 486.685001 229.935207 
L 486.939639 229.64142 
L 487.043264 229.475125 
L 487.204769 229.292201 
L 487.326163 229.142536 
L 487.634705 228.7268 
L 488.247406 228.421926 
L 488.393344 228.211286 
L 488.632925 227.873154 
L 488.768042 227.69023 
L 489.238485 227.158088 
L 489.873981 226.853214 
L 490.171292 226.531711 
L 490.454857 226.16032 
L 490.583271 225.999569 
L 490.693113 225.783386 
L 490.80979 225.633721 
L 491.014196 225.500685 
L 491.334108 225.356563 
L 491.610871 225.123751 
L 491.830579 224.874309 
L 491.974934 224.746817 
L 492.108341 224.613781 
L 492.423299 224.203588 
L 492.487493 224.065009 
L 492.713229 223.992948 
L 493.034418 223.865455 
L 493.188972 223.660359 
L 493.577741 223.200277 
L 493.767585 223.056155 
L 494.033471 222.873231 
L 494.749625 222.623789 
L 495.865487 221.487443 
L 496.356211 221.326692 
L 496.542119 221.110509 
L 496.694945 220.927585 
L 496.898801 220.77792 
L 497.072111 220.522935 
L 497.688376 220.05731 
L 498.021973 219.907645 
L 498.148568 219.763523 
L 498.259353 219.613858 
L 498.843768 219.181492 
L 498.954263 219.109431 
L 499.357769 218.954223 
L 499.615381 218.832273 
L 499.720673 218.677065 
L 499.909219 218.499684 
L 500.483975 217.934283 
L 500.89872 217.779075 
L 501.618576 217.618323 
L 501.970326 217.363338 
L 502.78806 216.947602 
L 503.558243 216.576211 
L 503.695946 216.365571 
L 504.019747 216.060698 
L 504.441007 215.933205 
L 504.734369 215.633875 
L 504.949591 215.401062 
L 505.115375 215.18488 
L 505.974802 214.619478 
L 506.162251 214.486442 
L 506.388152 214.270259 
L 506.501308 214.170483 
L 507.306044 213.311294 
L 507.710457 213.167172 
L 507.970978 212.928817 
L 508.172321 212.745893 
L 508.312427 212.557426 
L 508.54359 212.258095 
L 508.705138 212.097344 
L 508.820635 212.025283 
L 509.531879 211.365648 
L 509.95469 210.794703 
L 510.073791 210.59515 
L 510.275018 210.38451 
L 510.710157 210.179413 
L 510.979373 210.035291 
L 511.279586 209.68053 
L 511.410347 209.586296 
L 511.587758 209.436631 
L 511.717196 209.347941 
L 512.95626 208.444407 
L 513.261215 207.978782 
L 513.921784 207.418924 
L 514.162472 207.291431 
L 514.273233 207.147309 
L 514.643408 206.753745 
L 514.827036 206.526476 
L 514.9624 206.376811 
L 515.216608 205.966618 
L 515.367521 205.866841 
L 515.774047 205.622942 
L 516.032256 205.146231 
L 516.193689 204.846901 
L 516.418463 204.724952 
L 516.994109 203.86022 
L 517.39766 203.677296 
L 517.74422 203.145154 
L 517.851046 202.917884 
L 517.998952 202.685072 
L 518.128916 202.502148 
L 518.369116 202.064239 
L 518.474262 201.803711 
L 518.644612 201.703934 
L 519.147386 201.52101 
L 519.408493 201.321457 
L 520.488194 200.617476 
L 520.795352 200.495527 
L 520.91666 200.390207 
L 521.093216 200.262715 
L 521.363703 200.029902 
L 521.93618 199.503303 
L 522.411579 199.209516 
L 522.577312 198.954531 
L 522.858684 198.666287 
L 522.982038 198.499992 
L 523.146744 198.289353 
L 523.325362 198.034368 
L 523.689253 197.895789 
L 523.924315 197.762753 
L 524.174228 197.369189 
L 524.443694 196.997798 
L 524.663724 196.665209 
L 524.948163 196.288275 
L 525.633151 195.961229 
L 525.765765 195.706244 
L 526.678328 194.508923 
L 527.006082 194.353715 
L 527.204057 194.165248 
L 527.945949 193.178566 
L 528.052899 192.990099 
L 528.235541 192.77946 
L 528.410732 192.679683 
L 529.022409 192.341551 
L 530.171555 190.944676 
L 530.532761 190.695234 
L 530.819993 190.33493 
L 531.205538 190.007884 
L 531.370014 189.791701 
L 531.779399 189.409223 
L 532.050177 189.226299 
L 532.166636 189.060005 
L 532.43365 188.793933 
L 533.360439 187.596613 
L 533.706029 187.46912 
L 533.892796 187.208592 
L 534.231296 186.698622 
L 534.408078 186.537871 
L 534.612686 186.299515 
L 534.849074 186.016814 
L 535.342865 185.756286 
L 535.49116 185.606621 
L 535.571856 185.462499 
L 536.457813 184.547879 
L 536.852027 184.348326 
L 537.017147 184.148772 
L 537.224026 183.921503 
L 537.337034 183.838356 
L 537.480965 183.68869 
L 538.045131 182.979167 
L 538.578351 182.796243 
L 538.852684 182.519085 
L 539.006021 182.413765 
L 540.889069 181.000262 
L 541.0009 180.861683 
L 541.159516 180.673216 
L 541.294977 180.512464 
L 541.751785 180.357256 
L 541.858485 180.279652 
L 542.03574 180.118901 
L 542.139527 180.04684 
L 542.327116 179.897175 
L 542.803434 179.304057 
L 543.503721 178.943752 
L 543.61546 178.860605 
L 543.765177 178.727569 
L 544.656063 177.724259 
L 545.082688 177.541335 
L 545.362904 177.153314 
L 545.556114 177.036908 
L 546.262695 176.338471 
L 546.854676 175.972623 
L 546.996792 175.817415 
L 547.137363 175.673293 
L 547.545031 175.107891 
L 547.664906 174.958226 
L 547.773431 174.847363 
L 548.1922 174.697698 
L 548.346427 174.559119 
L 548.776798 174.126753 
L 549.097699 173.71656 
L 549.475539 173.350712 
L 549.917078 173.201047 
L 550.024754 173.068011 
L 550.162462 172.934976 
L 550.379479 172.69662 
L 550.630701 172.358488 
L 550.930984 171.942752 
L 551.177109 171.770914 
L 551.543822 171.621249 
L 551.708875 171.449411 
L 551.962354 171.194426 
L 552.118129 170.967157 
L 552.507956 170.540334 
L 552.628944 170.351867 
L 552.84676 170.229918 
L 553.218773 170.074709 
L 553.385578 169.941674 
L 553.507343 169.803095 
L 554.362969 168.566972 
L 554.87914 168.339703 
L 556.193821 166.859681 
L 556.469103 166.676757 
L 557.07902 165.756594 
L 557.208848 165.590299 
L 557.343709 165.401832 
L 557.448759 165.263254 
L 557.543493 165.102502 
L 558.007867 164.886319 
L 558.166155 164.664593 
L 558.430342 164.182339 
L 558.636746 163.927354 
L 558.828469 163.694542 
L 559.043732 163.478359 
L 559.139078 163.328694 
L 559.674411 163.184572 
L 559.974517 162.93513 
L 560.13388 162.696774 
L 560.638341 162.142459 
L 560.757171 161.987251 
L 561.611512 161.482824 
L 561.880402 161.133605 
L 561.996829 161.006113 
L 562.495861 160.462884 
L 562.977998 160.285503 
L 564.40924 158.938517 
L 564.603726 158.811025 
L 564.809025 158.589299 
L 564.904227 158.45072 
L 565.221709 158.084872 
L 565.337727 157.791085 
L 565.564579 157.525013 
L 565.671096 157.436323 
L 566.125375 157.286658 
L 567.612513 155.911956 
L 567.886669 155.745662 
L 568.016596 155.562738 
L 568.212069 155.329925 
L 569.237873 154.204665 
L 569.438533 154.010655 
L 569.568933 153.805559 
L 570.048334 153.2457 
L 570.444666 152.885395 
L 570.916025 152.641497 
L 571.094186 152.514004 
L 571.218244 152.441943 
L 571.529312 152.159242 
L 571.670324 151.915344 
L 571.796964 151.765679 
L 572.359034 151.11713 
L 572.657804 150.967465 
L 573.631197 149.858834 
L 574.17906 149.720256 
L 574.350916 149.565047 
L 574.48828 149.315606 
L 574.912714 148.667057 
L 575.195439 148.218061 
L 575.451036 147.857757 
L 575.694874 147.685919 
L 575.796319 147.619401 
L 576.042662 147.436477 
L 576.186246 147.297898 
L 576.315356 147.126061 
L 576.488378 146.760212 
L 576.630236 146.555116 
L 576.740457 146.322303 
L 576.892155 146.12275 
L 577.02008 145.945369 
L 577.322835 145.828963 
L 577.710771 145.618323 
L 577.82334 145.529633 
L 578.00112 145.374425 
L 579.588319 144.343398 
L 579.925478 143.983093 
L 580.891292 143.523012 
L 581.097373 143.317915 
L 582.176564 142.303518 
L 582.430922 142.142767 
L 583.470976 141.017507 
L 584.114646 140.756979 
L 585.257578 139.653892 
L 585.663 139.498684 
L 585.854266 139.326846 
L 585.978377 139.199353 
L 586.326703 139.016429 
L 586.451964 138.89448 
L 586.71968 138.739272 
L 589.269087 137.347941 
L 589.377257 137.253707 
L 589.529186 137.06524 
L 589.643167 136.910032 
L 589.804799 136.655047 
L 590.903153 135.779229 
L 591.011879 135.646193 
L 591.145523 135.496528 
L 591.266638 135.391208 
L 591.411476 135.263715 
L 591.60718 135.086335 
L 591.712566 134.986558 
L 592.415015 134.642882 
L 592.622878 134.454415 
L 592.997388 134.149542 
L 593.148578 134.071938 
L 593.814434 133.822496 
L 593.966449 133.650658 
L 594.061275 133.573054 
L 594.200262 133.428932 
L 594.410429 133.201663 
L 594.531833 133.124059 
L 596.179103 131.998799 
L 596.299761 131.882393 
L 597.203104 131.377966 
L 597.397435 131.211671 
L 597.572674 130.984402 
L 598.209046 130.33031 
L 598.593452 130.186188 
L 598.977875 129.897944 
L 599.298646 129.448949 
L 599.50999 129.299284 
L 599.93018 129.022126 
L 600.448666 128.683994 
L 600.565114 128.550959 
L 600.715955 128.318146 
L 600.876291 128.162938 
L 601.144195 127.880237 
L 601.253392 127.79709 
L 602.050904 127.298206 
L 602.120024 127.226145 
L 602.303195 127.098653 
L 602.556263 126.843668 
L 602.72345 126.638571 
L 602.850574 126.455647 
L 602.993996 126.300439 
L 603.098169 126.195119 
L 603.628366 126.039911 
L 603.733783 125.912418 
L 604.023961 125.690692 
L 604.144908 125.491139 
L 604.649797 125.202895 
L 605.297812 124.992255 
L 605.651207 124.676295 
L 605.819795 124.521087 
L 606.050253 124.327077 
L 606.182035 124.177412 
L 606.894505 123.789391 
L 607.043313 123.562122 
L 607.410569 123.140842 
L 607.524502 123.035522 
L 608.197472 122.392517 
L 608.547916 122.192963 
L 608.632752 122.159704 
L 608.881 122.021126 
L 609.128849 121.793856 
L 609.836491 121.189653 
L 610.127555 121.067703 
L 610.883424 120.308292 
L 611.007489 120.214058 
L 611.410599 119.981246 
L 612.006378 119.693002 
L 612.154937 119.559966 
L 612.347292 119.415844 
L 612.468804 119.282809 
L 613.000666 118.977935 
L 613.331823 118.850443 
L 613.692685 118.556656 
L 613.928637 118.379275 
L 614.050743 118.246239 
L 614.285881 117.985711 
L 614.708203 117.697467 
L 615.074279 117.514543 
L 615.437966 117.181954 
L 615.564834 117.043375 
L 615.794266 116.827192 
L 616.395155 116.588837 
L 616.663446 116.40037 
L 617.053013 116.08441 
L 617.219272 115.8904 
L 617.362824 115.757364 
L 617.717426 115.341628 
L 618.141038 115.164247 
L 618.423963 114.892632 
L 618.59297 114.720795 
L 618.793058 114.515698 
L 619.162894 114.155393 
L 619.236844 114.066703 
L 619.764323 113.894865 
L 621.226919 112.752976 
L 621.57148 112.608854 
L 621.762867 112.376041 
L 621.995264 112.159858 
L 622.216404 111.971391 
L 622.327716 111.843899 
L 622.468405 111.677604 
L 622.563397 111.616629 
L 622.636364 111.6 
L 622.636364 111.6 
" style="fill:none;stroke:#92c6ff;stroke-linecap:round;stroke-width:1.5;"/>
   </g>
   <g id="line2d_24">
    <defs>
     <path d="M 0 2.5 
C 0.663008 2.5 1.29895 2.236584 1.767767 1.767767 
C 2.236584 1.29895 2.5 0.663008 2.5 0 
C 2.5 -0.663008 2.236584 -1.29895 1.767767 -1.767767 
C 1.29895 -2.236584 0.663008 -2.5 0 -2.5 
C -0.663008 -2.5 -1.29895 -2.236584 -1.767767 -1.767767 
C -2.236584 -1.29895 -2.5 -0.663008 -2.5 0 
C -2.5 0.663008 -2.236584 1.29895 -1.767767 1.767767 
C -1.29895 2.236584 -0.663008 2.5 0 2.5 
z
" id="m1c6ebee208" style="stroke:#696969;"/>
    </defs>
    <g clip-path="url(#p5a2d1a878b)">
     <use style="fill:#696969;stroke:#696969;" x="115.363636" xlink:href="#m1c6ebee208" y="615.6"/>
    </g>
   </g>
   <g id="line2d_25">
    <g clip-path="url(#p5a2d1a878b)">
     <use style="fill:#696969;stroke:#696969;" x="199.10195" xlink:href="#m1c6ebee208" y="565.19612"/>
    </g>
   </g>
   <g id="line2d_26">
    <g clip-path="url(#p5a2d1a878b)">
     <use style="fill:#696969;stroke:#696969;" x="242.745349" xlink:href="#m1c6ebee208" y="514.79224"/>
    </g>
   </g>
   <g id="line2d_27">
    <g clip-path="url(#p5a2d1a878b)">
     <use style="fill:#696969;stroke:#696969;" x="287.152013" xlink:href="#m1c6ebee208" y="464.388359"/>
    </g>
   </g>
   <g id="line2d_28">
    <g clip-path="url(#p5a2d1a878b)">
     <use style="fill:#696969;stroke:#696969;" x="321.602922" xlink:href="#m1c6ebee208" y="413.984479"/>
    </g>
   </g>
   <g id="line2d_29">
    <g clip-path="url(#p5a2d1a878b)">
     <use style="fill:#696969;stroke:#696969;" x="364.555845" xlink:href="#m1c6ebee208" y="363.586142"/>
    </g>
   </g>
   <g id="line2d_30">
    <g clip-path="url(#p5a2d1a878b)">
     <use style="fill:#696969;stroke:#696969;" x="404.261954" xlink:href="#m1c6ebee208" y="313.187805"/>
    </g>
   </g>
   <g id="line2d_31">
    <g clip-path="url(#p5a2d1a878b)">
     <use style="fill:#696969;stroke:#696969;" x="450.837465" xlink:href="#m1c6ebee208" y="262.789468"/>
    </g>
   </g>
   <g id="line2d_32">
    <g clip-path="url(#p5a2d1a878b)">
     <use style="fill:#696969;stroke:#696969;" x="508.423728" xlink:href="#m1c6ebee208" y="212.391131"/>
    </g>
   </g>
   <g id="line2d_33">
    <g clip-path="url(#p5a2d1a878b)">
     <use style="fill:#696969;stroke:#696969;" x="560.756824" xlink:href="#m1c6ebee208" y="161.992794"/>
    </g>
   </g>
   <g id="line2d_34">
    <g clip-path="url(#p5a2d1a878b)">
     <use style="fill:#696969;stroke:#696969;" x="622.636364" xlink:href="#m1c6ebee208" y="111.6"/>
    </g>
   </g>
   <g id="patch_3">
    <path d="M 90 640.8 
L 90 86.4 
" style="fill:none;stroke:#cccccc;stroke-linecap:square;stroke-linejoin:miter;"/>
   </g>
   <g id="patch_4">
    <path d="M 648 640.8 
L 648 86.4 
" style="fill:none;stroke:#cccccc;stroke-linecap:square;stroke-linejoin:miter;"/>
   </g>
   <g id="patch_5">
    <path d="M 90 640.8 
L 648 640.8 
" style="fill:none;stroke:#cccccc;stroke-linecap:square;stroke-linejoin:miter;"/>
   </g>
   <g id="patch_6">
    <path d="M 90 86.4 
L 648 86.4 
" style="fill:none;stroke:#cccccc;stroke-linecap:square;stroke-linejoin:miter;"/>
   </g>
   <g id="text_12">
    <!-- 1 (2014-06-06) -->
    <defs>
     <path id="DejaVuSans-32"/>
     <path d="M 31 75.875 
Q 24.46875 64.65625 21.28125 53.65625 
Q 18.109375 42.671875 18.109375 31.390625 
Q 18.109375 20.125 21.3125 9.0625 
Q 24.515625 -2 31 -13.1875 
L 23.1875 -13.1875 
Q 15.875 -1.703125 12.234375 9.375 
Q 8.59375 20.453125 8.59375 31.390625 
Q 8.59375 42.28125 12.203125 53.3125 
Q 15.828125 64.359375 23.1875 75.875 
z
" id="DejaVuSans-40"/>
     <path d="M 4.890625 31.390625 
L 31.203125 31.390625 
L 31.203125 23.390625 
L 4.890625 23.390625 
z
" id="DejaVuSans-45"/>
     <path d="M 8.015625 75.875 
L 15.828125 75.875 
Q 23.140625 64.359375 26.78125 53.3125 
Q 30.421875 42.28125 30.421875 31.390625 
Q 30.421875 20.453125 26.78125 9.375 
Q 23.140625 -1.703125 15.828125 -13.1875 
L 8.015625 -13.1875 
Q 14.5 -2 17.703125 9.0625 
Q 20.90625 20.125 20.90625 31.390625 
Q 20.90625 42.671875 17.703125 53.65625 
Q 14.5 64.65625 8.015625 75.875 
z
" id="DejaVuSans-41"/>
    </defs>
    <g style="fill:#262626;" transform="translate(120.363636 623.198437)scale(0.1 -0.1)">
     <use xlink:href="#DejaVuSans-49"/>
     <use x="63.623047" xlink:href="#DejaVuSans-32"/>
     <use x="95.410156" xlink:href="#DejaVuSans-40"/>
     <use x="134.423828" xlink:href="#DejaVuSans-50"/>
     <use x="198.046875" xlink:href="#DejaVuSans-48"/>
     <use x="261.669922" xlink:href="#DejaVuSans-49"/>
     <use x="325.292969" xlink:href="#DejaVuSans-52"/>
     <use x="388.916016" xlink:href="#DejaVuSans-45"/>
     <use x="425" xlink:href="#DejaVuSans-48"/>
     <use x="488.623047" xlink:href="#DejaVuSans-54"/>
     <use x="552.246094" xlink:href="#DejaVuSans-45"/>
     <use x="588.330078" xlink:href="#DejaVuSans-48"/>
     <use x="651.953125" xlink:href="#DejaVuSans-54"/>
     <use x="715.576172" xlink:href="#DejaVuSans-41"/>
    </g>
   </g>
   <g id="text_13">
    <!-- 9094 (2015-06-02) -->
    <g style="fill:#262626;" transform="translate(204.10195 572.794557)scale(0.1 -0.1)">
     <use xlink:href="#DejaVuSans-57"/>
     <use x="63.623047" xlink:href="#DejaVuSans-48"/>
     <use x="127.246094" xlink:href="#DejaVuSans-57"/>
     <use x="190.869141" xlink:href="#DejaVuSans-52"/>
     <use x="254.492188" xlink:href="#DejaVuSans-32"/>
     <use x="286.279297" xlink:href="#DejaVuSans-40"/>
     <use x="325.292969" xlink:href="#DejaVuSans-50"/>
     <use x="388.916016" xlink:href="#DejaVuSans-48"/>
     <use x="452.539062" xlink:href="#DejaVuSans-49"/>
     <use x="516.162109" xlink:href="#DejaVuSans-53"/>
     <use x="579.785156" xlink:href="#DejaVuSans-45"/>
     <use x="615.869141" xlink:href="#DejaVuSans-48"/>
     <use x="679.492188" xlink:href="#DejaVuSans-54"/>
     <use x="743.115234" xlink:href="#DejaVuSans-45"/>
     <use x="779.199219" xlink:href="#DejaVuSans-48"/>
     <use x="842.822266" xlink:href="#DejaVuSans-50"/>
     <use x="906.445312" xlink:href="#DejaVuSans-41"/>
    </g>
   </g>
   <g id="text_14">
    <!-- 18187 (2015-12-07) -->
    <g style="fill:#262626;" transform="translate(247.745349 522.390677)scale(0.1 -0.1)">
     <use xlink:href="#DejaVuSans-49"/>
     <use x="63.623047" xlink:href="#DejaVuSans-56"/>
     <use x="127.246094" xlink:href="#DejaVuSans-49"/>
     <use x="190.869141" xlink:href="#DejaVuSans-56"/>
     <use x="254.492188" xlink:href="#DejaVuSans-55"/>
     <use x="318.115234" xlink:href="#DejaVuSans-32"/>
     <use x="349.902344" xlink:href="#DejaVuSans-40"/>
     <use x="388.916016" xlink:href="#DejaVuSans-50"/>
     <use x="452.539062" xlink:href="#DejaVuSans-48"/>
     <use x="516.162109" xlink:href="#DejaVuSans-49"/>
     <use x="579.785156" xlink:href="#DejaVuSans-53"/>
     <use x="643.408203" xlink:href="#DejaVuSans-45"/>
     <use x="679.492188" xlink:href="#DejaVuSans-49"/>
     <use x="743.115234" xlink:href="#DejaVuSans-50"/>
     <use x="806.738281" xlink:href="#DejaVuSans-45"/>
     <use x="842.822266" xlink:href="#DejaVuSans-48"/>
     <use x="906.445312" xlink:href="#DejaVuSans-55"/>
     <use x="970.068359" xlink:href="#DejaVuSans-41"/>
    </g>
   </g>
   <g id="text_15">
    <!-- 27280 (2016-06-15) -->
    <g style="fill:#262626;" transform="translate(292.152013 471.986797)scale(0.1 -0.1)">
     <use xlink:href="#DejaVuSans-50"/>
     <use x="63.623047" xlink:href="#DejaVuSans-55"/>
     <use x="127.246094" xlink:href="#DejaVuSans-50"/>
     <use x="190.869141" xlink:href="#DejaVuSans-56"/>
     <use x="254.492188" xlink:href="#DejaVuSans-48"/>
     <use x="318.115234" xlink:href="#DejaVuSans-32"/>
     <use x="349.902344" xlink:href="#DejaVuSans-40"/>
     <use x="388.916016" xlink:href="#DejaVuSans-50"/>
     <use x="452.539062" xlink:href="#DejaVuSans-48"/>
     <use x="516.162109" xlink:href="#DejaVuSans-49"/>
     <use x="579.785156" xlink:href="#DejaVuSans-54"/>
     <use x="643.408203" xlink:href="#DejaVuSans-45"/>
     <use x="679.492188" xlink:href="#DejaVuSans-48"/>
     <use x="743.115234" xlink:href="#DejaVuSans-54"/>
     <use x="806.738281" xlink:href="#DejaVuSans-45"/>
     <use x="842.822266" xlink:href="#DejaVuSans-49"/>
     <use x="906.445312" xlink:href="#DejaVuSans-53"/>
     <use x="970.068359" xlink:href="#DejaVuSans-41"/>
    </g>
   </g>
   <g id="text_16">
    <!-- 36373 (2016-11-11) -->
    <defs>
     <path d="M 40.578125 39.3125 
Q 47.65625 37.796875 51.625 33 
Q 55.609375 28.21875 55.609375 21.1875 
Q 55.609375 10.40625 48.1875 4.484375 
Q 40.765625 -1.421875 27.09375 -1.421875 
Q 22.515625 -1.421875 17.65625 -0.515625 
Q 12.796875 0.390625 7.625 2.203125 
L 7.625 11.71875 
Q 11.71875 9.328125 16.59375 8.109375 
Q 21.484375 6.890625 26.8125 6.890625 
Q 36.078125 6.890625 40.9375 10.546875 
Q 45.796875 14.203125 45.796875 21.1875 
Q 45.796875 27.640625 41.28125 31.265625 
Q 36.765625 34.90625 28.71875 34.90625 
L 20.21875 34.90625 
L 20.21875 43.015625 
L 29.109375 43.015625 
Q 36.375 43.015625 40.234375 45.921875 
Q 44.09375 48.828125 44.09375 54.296875 
Q 44.09375 59.90625 40.109375 62.90625 
Q 36.140625 65.921875 28.71875 65.921875 
Q 24.65625 65.921875 20.015625 65.03125 
Q 15.375 64.15625 9.8125 62.3125 
L 9.8125 71.09375 
Q 15.4375 72.65625 20.34375 73.4375 
Q 25.25 74.21875 29.59375 74.21875 
Q 40.828125 74.21875 47.359375 69.109375 
Q 53.90625 64.015625 53.90625 55.328125 
Q 53.90625 49.265625 50.4375 45.09375 
Q 46.96875 40.921875 40.578125 39.3125 
z
" id="DejaVuSans-51"/>
    </defs>
    <g style="fill:#262626;" transform="translate(326.602922 421.582917)scale(0.1 -0.1)">
     <use xlink:href="#DejaVuSans-51"/>
     <use x="63.623047" xlink:href="#DejaVuSans-54"/>
     <use x="127.246094" xlink:href="#DejaVuSans-51"/>
     <use x="190.869141" xlink:href="#DejaVuSans-55"/>
     <use x="254.492188" xlink:href="#DejaVuSans-51"/>
     <use x="318.115234" xlink:href="#DejaVuSans-32"/>
     <use x="349.902344" xlink:href="#DejaVuSans-40"/>
     <use x="388.916016" xlink:href="#DejaVuSans-50"/>
     <use x="452.539062" xlink:href="#DejaVuSans-48"/>
     <use x="516.162109" xlink:href="#DejaVuSans-49"/>
     <use x="579.785156" xlink:href="#DejaVuSans-54"/>
     <use x="643.408203" xlink:href="#DejaVuSans-45"/>
     <use x="679.492188" xlink:href="#DejaVuSans-49"/>
     <use x="743.115234" xlink:href="#DejaVuSans-49"/>
     <use x="806.738281" xlink:href="#DejaVuSans-45"/>
     <use x="842.822266" xlink:href="#DejaVuSans-49"/>
     <use x="906.445312" xlink:href="#DejaVuSans-49"/>
     <use x="970.068359" xlink:href="#DejaVuSans-41"/>
    </g>
   </g>
   <g id="text_17">
    <!-- 45465 (2017-05-15) -->
    <g style="fill:#262626;" transform="translate(369.555845 371.18458)scale(0.1 -0.1)">
     <use xlink:href="#DejaVuSans-52"/>
     <use x="63.623047" xlink:href="#DejaVuSans-53"/>
     <use x="127.246094" xlink:href="#DejaVuSans-52"/>
     <use x="190.869141" xlink:href="#DejaVuSans-54"/>
     <use x="254.492188" xlink:href="#DejaVuSans-53"/>
     <use x="318.115234" xlink:href="#DejaVuSans-32"/>
     <use x="349.902344" xlink:href="#DejaVuSans-40"/>
     <use x="388.916016" xlink:href="#DejaVuSans-50"/>
     <use x="452.539062" xlink:href="#DejaVuSans-48"/>
     <use x="516.162109" xlink:href="#DejaVuSans-49"/>
     <use x="579.785156" xlink:href="#DejaVuSans-55"/>
     <use x="643.408203" xlink:href="#DejaVuSans-45"/>
     <use x="679.492188" xlink:href="#DejaVuSans-48"/>
     <use x="743.115234" xlink:href="#DejaVuSans-53"/>
     <use x="806.738281" xlink:href="#DejaVuSans-45"/>
     <use x="842.822266" xlink:href="#DejaVuSans-49"/>
     <use x="906.445312" xlink:href="#DejaVuSans-53"/>
     <use x="970.068359" xlink:href="#DejaVuSans-41"/>
    </g>
   </g>
   <g id="text_18">
    <!-- 54557 (2017-11-02) -->
    <g style="fill:#262626;" transform="translate(409.261954 320.786243)scale(0.1 -0.1)">
     <use xlink:href="#DejaVuSans-53"/>
     <use x="63.623047" xlink:href="#DejaVuSans-52"/>
     <use x="127.246094" xlink:href="#DejaVuSans-53"/>
     <use x="190.869141" xlink:href="#DejaVuSans-53"/>
     <use x="254.492188" xlink:href="#DejaVuSans-55"/>
     <use x="318.115234" xlink:href="#DejaVuSans-32"/>
     <use x="349.902344" xlink:href="#DejaVuSans-40"/>
     <use x="388.916016" xlink:href="#DejaVuSans-50"/>
     <use x="452.539062" xlink:href="#DejaVuSans-48"/>
     <use x="516.162109" xlink:href="#DejaVuSans-49"/>
     <use x="579.785156" xlink:href="#DejaVuSans-55"/>
     <use x="643.408203" xlink:href="#DejaVuSans-45"/>
     <use x="679.492188" xlink:href="#DejaVuSans-49"/>
     <use x="743.115234" xlink:href="#DejaVuSans-49"/>
     <use x="806.738281" xlink:href="#DejaVuSans-45"/>
     <use x="842.822266" xlink:href="#DejaVuSans-48"/>
     <use x="906.445312" xlink:href="#DejaVuSans-50"/>
     <use x="970.068359" xlink:href="#DejaVuSans-41"/>
    </g>
   </g>
   <g id="text_19">
    <!-- 63649 (2018-05-21) -->
    <g style="fill:#262626;" transform="translate(455.837465 270.387906)scale(0.1 -0.1)">
     <use xlink:href="#DejaVuSans-54"/>
     <use x="63.623047" xlink:href="#DejaVuSans-51"/>
     <use x="127.246094" xlink:href="#DejaVuSans-54"/>
     <use x="190.869141" xlink:href="#DejaVuSans-52"/>
     <use x="254.492188" xlink:href="#DejaVuSans-57"/>
     <use x="318.115234" xlink:href="#DejaVuSans-32"/>
     <use x="349.902344" xlink:href="#DejaVuSans-40"/>
     <use x="388.916016" xlink:href="#DejaVuSans-50"/>
     <use x="452.539062" xlink:href="#DejaVuSans-48"/>
     <use x="516.162109" xlink:href="#DejaVuSans-49"/>
     <use x="579.785156" xlink:href="#DejaVuSans-56"/>
     <use x="643.408203" xlink:href="#DejaVuSans-45"/>
     <use x="679.492188" xlink:href="#DejaVuSans-48"/>
     <use x="743.115234" xlink:href="#DejaVuSans-53"/>
     <use x="806.738281" xlink:href="#DejaVuSans-45"/>
     <use x="842.822266" xlink:href="#DejaVuSans-50"/>
     <use x="906.445312" xlink:href="#DejaVuSans-49"/>
     <use x="970.068359" xlink:href="#DejaVuSans-41"/>
    </g>
   </g>
   <g id="text_20">
    <!-- 72741 (2019-01-24) -->
    <g style="fill:#262626;" transform="translate(513.423728 219.989568)scale(0.1 -0.1)">
     <use xlink:href="#DejaVuSans-55"/>
     <use x="63.623047" xlink:href="#DejaVuSans-50"/>
     <use x="127.246094" xlink:href="#DejaVuSans-55"/>
     <use x="190.869141" xlink:href="#DejaVuSans-52"/>
     <use x="254.492188" xlink:href="#DejaVuSans-49"/>
     <use x="318.115234" xlink:href="#DejaVuSans-32"/>
     <use x="349.902344" xlink:href="#DejaVuSans-40"/>
     <use x="388.916016" xlink:href="#DejaVuSans-50"/>
     <use x="452.539062" xlink:href="#DejaVuSans-48"/>
     <use x="516.162109" xlink:href="#DejaVuSans-49"/>
     <use x="579.785156" xlink:href="#DejaVuSans-57"/>
     <use x="643.408203" xlink:href="#DejaVuSans-45"/>
     <use x="679.492188" xlink:href="#DejaVuSans-48"/>
     <use x="743.115234" xlink:href="#DejaVuSans-49"/>
     <use x="806.738281" xlink:href="#DejaVuSans-45"/>
     <use x="842.822266" xlink:href="#DejaVuSans-50"/>
     <use x="906.445312" xlink:href="#DejaVuSans-52"/>
     <use x="970.068359" xlink:href="#DejaVuSans-41"/>
    </g>
   </g>
   <g id="text_21">
    <!-- 81833 (2019-09-06) -->
    <g style="fill:#262626;" transform="translate(565.756824 169.591231)scale(0.1 -0.1)">
     <use xlink:href="#DejaVuSans-56"/>
     <use x="63.623047" xlink:href="#DejaVuSans-49"/>
     <use x="127.246094" xlink:href="#DejaVuSans-56"/>
     <use x="190.869141" xlink:href="#DejaVuSans-51"/>
     <use x="254.492188" xlink:href="#DejaVuSans-51"/>
     <use x="318.115234" xlink:href="#DejaVuSans-32"/>
     <use x="349.902344" xlink:href="#DejaVuSans-40"/>
     <use x="388.916016" xlink:href="#DejaVuSans-50"/>
     <use x="452.539062" xlink:href="#DejaVuSans-48"/>
     <use x="516.162109" xlink:href="#DejaVuSans-49"/>
     <use x="579.785156" xlink:href="#DejaVuSans-57"/>
     <use x="643.408203" xlink:href="#DejaVuSans-45"/>
     <use x="679.492188" xlink:href="#DejaVuSans-48"/>
     <use x="743.115234" xlink:href="#DejaVuSans-57"/>
     <use x="806.738281" xlink:href="#DejaVuSans-45"/>
     <use x="842.822266" xlink:href="#DejaVuSans-48"/>
     <use x="906.445312" xlink:href="#DejaVuSans-54"/>
     <use x="970.068359" xlink:href="#DejaVuSans-41"/>
    </g>
   </g>
   <g id="text_22">
    <!-- 90924 (2020-05-30) -->
    <g style="fill:#262626;" transform="translate(627.636364 119.198437)scale(0.1 -0.1)">
     <use xlink:href="#DejaVuSans-57"/>
     <use x="63.623047" xlink:href="#DejaVuSans-48"/>
     <use x="127.246094" xlink:href="#DejaVuSans-57"/>
     <use x="190.869141" xlink:href="#DejaVuSans-50"/>
     <use x="254.492188" xlink:href="#DejaVuSans-52"/>
     <use x="318.115234" xlink:href="#DejaVuSans-32"/>
     <use x="349.902344" xlink:href="#DejaVuSans-40"/>
     <use x="388.916016" xlink:href="#DejaVuSans-50"/>
     <use x="452.539062" xlink:href="#DejaVuSans-48"/>
     <use x="516.162109" xlink:href="#DejaVuSans-50"/>
     <use x="579.785156" xlink:href="#DejaVuSans-48"/>
     <use x="643.408203" xlink:href="#DejaVuSans-45"/>
     <use x="679.492188" xlink:href="#DejaVuSans-48"/>
     <use x="743.115234" xlink:href="#DejaVuSans-53"/>
     <use x="806.738281" xlink:href="#DejaVuSans-45"/>
     <use x="842.822266" xlink:href="#DejaVuSans-51"/>
     <use x="906.445312" xlink:href="#DejaVuSans-48"/>
     <use x="970.068359" xlink:href="#DejaVuSans-41"/>
    </g>
   </g>
   <g id="text_23">
    <!-- Created issues and PRs over time -->
    <defs>
     <path d="M 64.40625 67.28125 
L 64.40625 56.890625 
Q 59.421875 61.53125 53.78125 63.8125 
Q 48.140625 66.109375 41.796875 66.109375 
Q 29.296875 66.109375 22.65625 58.46875 
Q 16.015625 50.828125 16.015625 36.375 
Q 16.015625 21.96875 22.65625 14.328125 
Q 29.296875 6.6875 41.796875 6.6875 
Q 48.140625 6.6875 53.78125 8.984375 
Q 59.421875 11.28125 64.40625 15.921875 
L 64.40625 5.609375 
Q 59.234375 2.09375 53.4375 0.328125 
Q 47.65625 -1.421875 41.21875 -1.421875 
Q 24.65625 -1.421875 15.125 8.703125 
Q 5.609375 18.84375 5.609375 36.375 
Q 5.609375 53.953125 15.125 64.078125 
Q 24.65625 74.21875 41.21875 74.21875 
Q 47.75 74.21875 53.53125 72.484375 
Q 59.328125 70.75 64.40625 67.28125 
z
" id="DejaVuSans-67"/>
     <path d="M 41.109375 46.296875 
Q 39.59375 47.171875 37.8125 47.578125 
Q 36.03125 48 33.890625 48 
Q 26.265625 48 22.1875 43.046875 
Q 18.109375 38.09375 18.109375 28.8125 
L 18.109375 0 
L 9.078125 0 
L 9.078125 54.6875 
L 18.109375 54.6875 
L 18.109375 46.1875 
Q 20.953125 51.171875 25.484375 53.578125 
Q 30.03125 56 36.53125 56 
Q 37.453125 56 38.578125 55.875 
Q 39.703125 55.765625 41.0625 55.515625 
z
" id="DejaVuSans-114"/>
     <path d="M 56.203125 29.59375 
L 56.203125 25.203125 
L 14.890625 25.203125 
Q 15.484375 15.921875 20.484375 11.0625 
Q 25.484375 6.203125 34.421875 6.203125 
Q 39.59375 6.203125 44.453125 7.46875 
Q 49.3125 8.734375 54.109375 11.28125 
L 54.109375 2.78125 
Q 49.265625 0.734375 44.1875 -0.34375 
Q 39.109375 -1.421875 33.890625 -1.421875 
Q 20.796875 -1.421875 13.15625 6.1875 
Q 5.515625 13.8125 5.515625 26.8125 
Q 5.515625 40.234375 12.765625 48.109375 
Q 20.015625 56 32.328125 56 
Q 43.359375 56 49.78125 48.890625 
Q 56.203125 41.796875 56.203125 29.59375 
z
M 47.21875 32.234375 
Q 47.125 39.59375 43.09375 43.984375 
Q 39.0625 48.390625 32.421875 48.390625 
Q 24.90625 48.390625 20.390625 44.140625 
Q 15.875 39.890625 15.1875 32.171875 
z
" id="DejaVuSans-101"/>
     <path d="M 34.28125 27.484375 
Q 23.390625 27.484375 19.1875 25 
Q 14.984375 22.515625 14.984375 16.5 
Q 14.984375 11.71875 18.140625 8.90625 
Q 21.296875 6.109375 26.703125 6.109375 
Q 34.1875 6.109375 38.703125 11.40625 
Q 43.21875 16.703125 43.21875 25.484375 
L 43.21875 27.484375 
z
M 52.203125 31.203125 
L 52.203125 0 
L 43.21875 0 
L 43.21875 8.296875 
Q 40.140625 3.328125 35.546875 0.953125 
Q 30.953125 -1.421875 24.3125 -1.421875 
Q 15.921875 -1.421875 10.953125 3.296875 
Q 6 8.015625 6 15.921875 
Q 6 25.140625 12.171875 29.828125 
Q 18.359375 34.515625 30.609375 34.515625 
L 43.21875 34.515625 
L 43.21875 35.40625 
Q 43.21875 41.609375 39.140625 45 
Q 35.0625 48.390625 27.6875 48.390625 
Q 23 48.390625 18.546875 47.265625 
Q 14.109375 46.140625 10.015625 43.890625 
L 10.015625 52.203125 
Q 14.9375 54.109375 19.578125 55.046875 
Q 24.21875 56 28.609375 56 
Q 40.484375 56 46.34375 49.84375 
Q 52.203125 43.703125 52.203125 31.203125 
z
" id="DejaVuSans-97"/>
     <path d="M 18.3125 70.21875 
L 18.3125 54.6875 
L 36.8125 54.6875 
L 36.8125 47.703125 
L 18.3125 47.703125 
L 18.3125 18.015625 
Q 18.3125 11.328125 20.140625 9.421875 
Q 21.96875 7.515625 27.59375 7.515625 
L 36.8125 7.515625 
L 36.8125 0 
L 27.59375 0 
Q 17.1875 0 13.234375 3.875 
Q 9.28125 7.765625 9.28125 18.015625 
L 9.28125 47.703125 
L 2.6875 47.703125 
L 2.6875 54.6875 
L 9.28125 54.6875 
L 9.28125 70.21875 
z
" id="DejaVuSans-116"/>
     <path d="M 45.40625 46.390625 
L 45.40625 75.984375 
L 54.390625 75.984375 
L 54.390625 0 
L 45.40625 0 
L 45.40625 8.203125 
Q 42.578125 3.328125 38.25 0.953125 
Q 33.9375 -1.421875 27.875 -1.421875 
Q 17.96875 -1.421875 11.734375 6.484375 
Q 5.515625 14.40625 5.515625 27.296875 
Q 5.515625 40.1875 11.734375 48.09375 
Q 17.96875 56 27.875 56 
Q 33.9375 56 38.25 53.625 
Q 42.578125 51.265625 45.40625 46.390625 
z
M 14.796875 27.296875 
Q 14.796875 17.390625 18.875 11.75 
Q 22.953125 6.109375 30.078125 6.109375 
Q 37.203125 6.109375 41.296875 11.75 
Q 45.40625 17.390625 45.40625 27.296875 
Q 45.40625 37.203125 41.296875 42.84375 
Q 37.203125 48.484375 30.078125 48.484375 
Q 22.953125 48.484375 18.875 42.84375 
Q 14.796875 37.203125 14.796875 27.296875 
z
" id="DejaVuSans-100"/>
     <path d="M 9.421875 54.6875 
L 18.40625 54.6875 
L 18.40625 0 
L 9.421875 0 
z
M 9.421875 75.984375 
L 18.40625 75.984375 
L 18.40625 64.59375 
L 9.421875 64.59375 
z
" id="DejaVuSans-105"/>
     <path d="M 44.28125 53.078125 
L 44.28125 44.578125 
Q 40.484375 46.53125 36.375 47.5 
Q 32.28125 48.484375 27.875 48.484375 
Q 21.1875 48.484375 17.84375 46.4375 
Q 14.5 44.390625 14.5 40.28125 
Q 14.5 37.15625 16.890625 35.375 
Q 19.28125 33.59375 26.515625 31.984375 
L 29.59375 31.296875 
Q 39.15625 29.25 43.1875 25.515625 
Q 47.21875 21.78125 47.21875 15.09375 
Q 47.21875 7.46875 41.1875 3.015625 
Q 35.15625 -1.421875 24.609375 -1.421875 
Q 20.21875 -1.421875 15.453125 -0.5625 
Q 10.6875 0.296875 5.421875 2 
L 5.421875 11.28125 
Q 10.40625 8.6875 15.234375 7.390625 
Q 20.0625 6.109375 24.8125 6.109375 
Q 31.15625 6.109375 34.5625 8.28125 
Q 37.984375 10.453125 37.984375 14.40625 
Q 37.984375 18.0625 35.515625 20.015625 
Q 33.0625 21.96875 24.703125 23.78125 
L 21.578125 24.515625 
Q 13.234375 26.265625 9.515625 29.90625 
Q 5.8125 33.546875 5.8125 39.890625 
Q 5.8125 47.609375 11.28125 51.796875 
Q 16.75 56 26.8125 56 
Q 31.78125 56 36.171875 55.265625 
Q 40.578125 54.546875 44.28125 53.078125 
z
" id="DejaVuSans-115"/>
     <path d="M 8.5 21.578125 
L 8.5 54.6875 
L 17.484375 54.6875 
L 17.484375 21.921875 
Q 17.484375 14.15625 20.5 10.265625 
Q 23.53125 6.390625 29.59375 6.390625 
Q 36.859375 6.390625 41.078125 11.03125 
Q 45.3125 15.671875 45.3125 23.6875 
L 45.3125 54.6875 
L 54.296875 54.6875 
L 54.296875 0 
L 45.3125 0 
L 45.3125 8.40625 
Q 42.046875 3.421875 37.71875 1 
Q 33.40625 -1.421875 27.6875 -1.421875 
Q 18.265625 -1.421875 13.375 4.4375 
Q 8.5 10.296875 8.5 21.578125 
z
M 31.109375 56 
z
" id="DejaVuSans-117"/>
     <path d="M 54.890625 33.015625 
L 54.890625 0 
L 45.90625 0 
L 45.90625 32.71875 
Q 45.90625 40.484375 42.875 44.328125 
Q 39.84375 48.1875 33.796875 48.1875 
Q 26.515625 48.1875 22.3125 43.546875 
Q 18.109375 38.921875 18.109375 30.90625 
L 18.109375 0 
L 9.078125 0 
L 9.078125 54.6875 
L 18.109375 54.6875 
L 18.109375 46.1875 
Q 21.34375 51.125 25.703125 53.5625 
Q 30.078125 56 35.796875 56 
Q 45.21875 56 50.046875 50.171875 
Q 54.890625 44.34375 54.890625 33.015625 
z
" id="DejaVuSans-110"/>
     <path d="M 19.671875 64.796875 
L 19.671875 37.40625 
L 32.078125 37.40625 
Q 38.96875 37.40625 42.71875 40.96875 
Q 46.484375 44.53125 46.484375 51.125 
Q 46.484375 57.671875 42.71875 61.234375 
Q 38.96875 64.796875 32.078125 64.796875 
z
M 9.8125 72.90625 
L 32.078125 72.90625 
Q 44.34375 72.90625 50.609375 67.359375 
Q 56.890625 61.8125 56.890625 51.125 
Q 56.890625 40.328125 50.609375 34.8125 
Q 44.34375 29.296875 32.078125 29.296875 
L 19.671875 29.296875 
L 19.671875 0 
L 9.8125 0 
z
" id="DejaVuSans-80"/>
     <path d="M 44.390625 34.1875 
Q 47.5625 33.109375 50.5625 29.59375 
Q 53.5625 26.078125 56.59375 19.921875 
L 66.609375 0 
L 56 0 
L 46.6875 18.703125 
Q 43.0625 26.03125 39.671875 28.421875 
Q 36.28125 30.8125 30.421875 30.8125 
L 19.671875 30.8125 
L 19.671875 0 
L 9.8125 0 
L 9.8125 72.90625 
L 32.078125 72.90625 
Q 44.578125 72.90625 50.734375 67.671875 
Q 56.890625 62.453125 56.890625 51.90625 
Q 56.890625 45.015625 53.6875 40.46875 
Q 50.484375 35.9375 44.390625 34.1875 
z
M 19.671875 64.796875 
L 19.671875 38.921875 
L 32.078125 38.921875 
Q 39.203125 38.921875 42.84375 42.21875 
Q 46.484375 45.515625 46.484375 51.90625 
Q 46.484375 58.296875 42.84375 61.546875 
Q 39.203125 64.796875 32.078125 64.796875 
z
" id="DejaVuSans-82"/>
     <path d="M 30.609375 48.390625 
Q 23.390625 48.390625 19.1875 42.75 
Q 14.984375 37.109375 14.984375 27.296875 
Q 14.984375 17.484375 19.15625 11.84375 
Q 23.34375 6.203125 30.609375 6.203125 
Q 37.796875 6.203125 41.984375 11.859375 
Q 46.1875 17.53125 46.1875 27.296875 
Q 46.1875 37.015625 41.984375 42.703125 
Q 37.796875 48.390625 30.609375 48.390625 
z
M 30.609375 56 
Q 42.328125 56 49.015625 48.375 
Q 55.71875 40.765625 55.71875 27.296875 
Q 55.71875 13.875 49.015625 6.21875 
Q 42.328125 -1.421875 30.609375 -1.421875 
Q 18.84375 -1.421875 12.171875 6.21875 
Q 5.515625 13.875 5.515625 27.296875 
Q 5.515625 40.765625 12.171875 48.375 
Q 18.84375 56 30.609375 56 
z
" id="DejaVuSans-111"/>
     <path d="M 2.984375 54.6875 
L 12.5 54.6875 
L 29.59375 8.796875 
L 46.6875 54.6875 
L 56.203125 54.6875 
L 35.6875 0 
L 23.484375 0 
z
" id="DejaVuSans-118"/>
     <path d="M 52 44.1875 
Q 55.375 50.25 60.0625 53.125 
Q 64.75 56 71.09375 56 
Q 79.640625 56 84.28125 50.015625 
Q 88.921875 44.046875 88.921875 33.015625 
L 88.921875 0 
L 79.890625 0 
L 79.890625 32.71875 
Q 79.890625 40.578125 77.09375 44.375 
Q 74.3125 48.1875 68.609375 48.1875 
Q 61.625 48.1875 57.5625 43.546875 
Q 53.515625 38.921875 53.515625 30.90625 
L 53.515625 0 
L 44.484375 0 
L 44.484375 32.71875 
Q 44.484375 40.625 41.703125 44.40625 
Q 38.921875 48.1875 33.109375 48.1875 
Q 26.21875 48.1875 22.15625 43.53125 
Q 18.109375 38.875 18.109375 30.90625 
L 18.109375 0 
L 9.078125 0 
L 9.078125 54.6875 
L 18.109375 54.6875 
L 18.109375 46.1875 
Q 21.1875 51.21875 25.484375 53.609375 
Q 29.78125 56 35.6875 56 
Q 41.65625 56 45.828125 52.96875 
Q 50 49.953125 52 44.1875 
z
" id="DejaVuSans-109"/>
    </defs>
    <g style="fill:#262626;" transform="translate(268.047188 80.4)scale(0.12 -0.12)">
     <use xlink:href="#DejaVuSans-67"/>
     <use x="69.824219" xlink:href="#DejaVuSans-114"/>
     <use x="108.6875" xlink:href="#DejaVuSans-101"/>
     <use x="170.210938" xlink:href="#DejaVuSans-97"/>
     <use x="231.490234" xlink:href="#DejaVuSans-116"/>
     <use x="270.699219" xlink:href="#DejaVuSans-101"/>
     <use x="332.222656" xlink:href="#DejaVuSans-100"/>
     <use x="395.699219" xlink:href="#DejaVuSans-32"/>
     <use x="427.486328" xlink:href="#DejaVuSans-105"/>
     <use x="455.269531" xlink:href="#DejaVuSans-115"/>
     <use x="507.369141" xlink:href="#DejaVuSans-115"/>
     <use x="559.46875" xlink:href="#DejaVuSans-117"/>
     <use x="622.847656" xlink:href="#DejaVuSans-101"/>
     <use x="684.371094" xlink:href="#DejaVuSans-115"/>
     <use x="736.470703" xlink:href="#DejaVuSans-32"/>
     <use x="768.257812" xlink:href="#DejaVuSans-97"/>
     <use x="829.537109" xlink:href="#DejaVuSans-110"/>
     <use x="892.916016" xlink:href="#DejaVuSans-100"/>
     <use x="956.392578" xlink:href="#DejaVuSans-32"/>
     <use x="988.179688" xlink:href="#DejaVuSans-80"/>
     <use x="1048.482422" xlink:href="#DejaVuSans-82"/>
     <use x="1117.964844" xlink:href="#DejaVuSans-115"/>
     <use x="1170.064453" xlink:href="#DejaVuSans-32"/>
     <use x="1201.851562" xlink:href="#DejaVuSans-111"/>
     <use x="1263.033203" xlink:href="#DejaVuSans-118"/>
     <use x="1322.212891" xlink:href="#DejaVuSans-101"/>
     <use x="1383.736328" xlink:href="#DejaVuSans-114"/>
     <use x="1424.849609" xlink:href="#DejaVuSans-32"/>
     <use x="1456.636719" xlink:href="#DejaVuSans-116"/>
     <use x="1495.845703" xlink:href="#DejaVuSans-105"/>
     <use x="1523.628906" xlink:href="#DejaVuSans-109"/>
     <use x="1621.041016" xlink:href="#DejaVuSans-101"/>
    </g>
   </g>
  </g>
 </g>
 <defs>
  <clipPath id="p5a2d1a878b">
   <rect height="554.4" width="558" x="90" y="86.4"/>
  </clipPath>
 </defs>
</svg>
