<?xml version="1.0" encoding="utf-8" standalone="no"?>
<!DOCTYPE svg PUBLIC "-//W3C//DTD SVG 1.1//EN"
  "http://www.w3.org/Graphics/SVG/1.1/DTD/svg11.dtd">
<!-- Created with matplotlib (https://matplotlib.org/) -->
<svg height="720pt" version="1.1" viewBox="0 0 720 720" width="720pt" xmlns="http://www.w3.org/2000/svg" xmlns:xlink="http://www.w3.org/1999/xlink">
 <defs>
  <style type="text/css">
*{stroke-linecap:butt;stroke-linejoin:round;}
  </style>
 </defs>
 <g id="figure_1">
  <g id="patch_1">
   <path d="M 0 720 
L 720 720 
L 720 0 
L 0 0 
z
" style="fill:#ffffff;"/>
  </g>
  <g id="axes_1">
   <g id="patch_2">
    <path d="M 90 640.8 
L 648 640.8 
L 648 86.4 
L 90 86.4 
z
" style="fill:#ffffff;"/>
   </g>
   <g id="matplotlib.axis_1">
    <g id="xtick_1">
     <g id="line2d_1">
      <path clip-path="url(#p5c1a10c419)" d="M 162.712693 640.8 
L 162.712693 86.4 
" style="fill:none;stroke:#cccccc;stroke-linecap:round;stroke-width:0.8;"/>
     </g>
     <g id="line2d_2"/>
     <g id="text_1">
      <!-- 2015 -->
      <defs>
       <path d="M 19.1875 8.296875 
L 53.609375 8.296875 
L 53.609375 0 
L 7.328125 0 
L 7.328125 8.296875 
Q 12.9375 14.109375 22.625 23.890625 
Q 32.328125 33.6875 34.8125 36.53125 
Q 39.546875 41.84375 41.421875 45.53125 
Q 43.3125 49.21875 43.3125 52.78125 
Q 43.3125 58.59375 39.234375 62.25 
Q 35.15625 65.921875 28.609375 65.921875 
Q 23.96875 65.921875 18.8125 64.3125 
Q 13.671875 62.703125 7.8125 59.421875 
L 7.8125 69.390625 
Q 13.765625 71.78125 18.9375 73 
Q 24.125 74.21875 28.421875 74.21875 
Q 39.75 74.21875 46.484375 68.546875 
Q 53.21875 62.890625 53.21875 53.421875 
Q 53.21875 48.921875 51.53125 44.890625 
Q 49.859375 40.875 45.40625 35.40625 
Q 44.1875 33.984375 37.640625 27.21875 
Q 31.109375 20.453125 19.1875 8.296875 
z
" id="DejaVuSans-50"/>
       <path d="M 31.78125 66.40625 
Q 24.171875 66.40625 20.328125 58.90625 
Q 16.5 51.421875 16.5 36.375 
Q 16.5 21.390625 20.328125 13.890625 
Q 24.171875 6.390625 31.78125 6.390625 
Q 39.453125 6.390625 43.28125 13.890625 
Q 47.125 21.390625 47.125 36.375 
Q 47.125 51.421875 43.28125 58.90625 
Q 39.453125 66.40625 31.78125 66.40625 
z
M 31.78125 74.21875 
Q 44.046875 74.21875 50.515625 64.515625 
Q 56.984375 54.828125 56.984375 36.375 
Q 56.984375 17.96875 50.515625 8.265625 
Q 44.046875 -1.421875 31.78125 -1.421875 
Q 19.53125 -1.421875 13.0625 8.265625 
Q 6.59375 17.96875 6.59375 36.375 
Q 6.59375 54.828125 13.0625 64.515625 
Q 19.53125 74.21875 31.78125 74.21875 
z
" id="DejaVuSans-48"/>
       <path d="M 12.40625 8.296875 
L 28.515625 8.296875 
L 28.515625 63.921875 
L 10.984375 60.40625 
L 10.984375 69.390625 
L 28.421875 72.90625 
L 38.28125 72.90625 
L 38.28125 8.296875 
L 54.390625 8.296875 
L 54.390625 0 
L 12.40625 0 
z
" id="DejaVuSans-49"/>
       <path d="M 10.796875 72.90625 
L 49.515625 72.90625 
L 49.515625 64.59375 
L 19.828125 64.59375 
L 19.828125 46.734375 
Q 21.96875 47.46875 24.109375 47.828125 
Q 26.265625 48.1875 28.421875 48.1875 
Q 40.625 48.1875 47.75 41.5 
Q 54.890625 34.8125 54.890625 23.390625 
Q 54.890625 11.625 47.5625 5.09375 
Q 40.234375 -1.421875 26.90625 -1.421875 
Q 22.3125 -1.421875 17.546875 -0.640625 
Q 12.796875 0.140625 7.71875 1.703125 
L 7.71875 11.625 
Q 12.109375 9.234375 16.796875 8.0625 
Q 21.484375 6.890625 26.703125 6.890625 
Q 35.15625 6.890625 40.078125 11.328125 
Q 45.015625 15.765625 45.015625 23.390625 
Q 45.015625 31 40.078125 35.4375 
Q 35.15625 39.890625 26.703125 39.890625 
Q 22.75 39.890625 18.8125 39.015625 
Q 14.890625 38.140625 10.796875 36.28125 
z
" id="DejaVuSans-53"/>
      </defs>
      <g style="fill:#262626;" transform="translate(149.987693 651.898438)scale(0.1 -0.1)">
       <use xlink:href="#DejaVuSans-50"/>
       <use x="63.623047" xlink:href="#DejaVuSans-48"/>
       <use x="127.246094" xlink:href="#DejaVuSans-49"/>
       <use x="190.869141" xlink:href="#DejaVuSans-53"/>
      </g>
     </g>
    </g>
    <g id="xtick_2">
     <g id="line2d_3">
      <path clip-path="url(#p5c1a10c419)" d="M 245.799189 640.8 
L 245.799189 86.4 
" style="fill:none;stroke:#cccccc;stroke-linecap:round;stroke-width:0.8;"/>
     </g>
     <g id="line2d_4"/>
     <g id="text_2">
      <!-- 2016 -->
      <defs>
       <path d="M 33.015625 40.375 
Q 26.375 40.375 22.484375 35.828125 
Q 18.609375 31.296875 18.609375 23.390625 
Q 18.609375 15.53125 22.484375 10.953125 
Q 26.375 6.390625 33.015625 6.390625 
Q 39.65625 6.390625 43.53125 10.953125 
Q 47.40625 15.53125 47.40625 23.390625 
Q 47.40625 31.296875 43.53125 35.828125 
Q 39.65625 40.375 33.015625 40.375 
z
M 52.59375 71.296875 
L 52.59375 62.3125 
Q 48.875 64.0625 45.09375 64.984375 
Q 41.3125 65.921875 37.59375 65.921875 
Q 27.828125 65.921875 22.671875 59.328125 
Q 17.53125 52.734375 16.796875 39.40625 
Q 19.671875 43.65625 24.015625 45.921875 
Q 28.375 48.1875 33.59375 48.1875 
Q 44.578125 48.1875 50.953125 41.515625 
Q 57.328125 34.859375 57.328125 23.390625 
Q 57.328125 12.15625 50.6875 5.359375 
Q 44.046875 -1.421875 33.015625 -1.421875 
Q 20.359375 -1.421875 13.671875 8.265625 
Q 6.984375 17.96875 6.984375 36.375 
Q 6.984375 53.65625 15.1875 63.9375 
Q 23.390625 74.21875 37.203125 74.21875 
Q 40.921875 74.21875 44.703125 73.484375 
Q 48.484375 72.75 52.59375 71.296875 
z
" id="DejaVuSans-54"/>
      </defs>
      <g style="fill:#262626;" transform="translate(233.074189 651.898438)scale(0.1 -0.1)">
       <use xlink:href="#DejaVuSans-50"/>
       <use x="63.623047" xlink:href="#DejaVuSans-48"/>
       <use x="127.246094" xlink:href="#DejaVuSans-49"/>
       <use x="190.869141" xlink:href="#DejaVuSans-54"/>
      </g>
     </g>
    </g>
    <g id="xtick_3">
     <g id="line2d_5">
      <path clip-path="url(#p5c1a10c419)" d="M 329.113319 640.8 
L 329.113319 86.4 
" style="fill:none;stroke:#cccccc;stroke-linecap:round;stroke-width:0.8;"/>
     </g>
     <g id="line2d_6"/>
     <g id="text_3">
      <!-- 2017 -->
      <defs>
       <path d="M 8.203125 72.90625 
L 55.078125 72.90625 
L 55.078125 68.703125 
L 28.609375 0 
L 18.3125 0 
L 43.21875 64.59375 
L 8.203125 64.59375 
z
" id="DejaVuSans-55"/>
      </defs>
      <g style="fill:#262626;" transform="translate(316.388319 651.898438)scale(0.1 -0.1)">
       <use xlink:href="#DejaVuSans-50"/>
       <use x="63.623047" xlink:href="#DejaVuSans-48"/>
       <use x="127.246094" xlink:href="#DejaVuSans-49"/>
       <use x="190.869141" xlink:href="#DejaVuSans-55"/>
      </g>
     </g>
    </g>
    <g id="xtick_4">
     <g id="line2d_7">
      <path clip-path="url(#p5c1a10c419)" d="M 412.199815 640.8 
L 412.199815 86.4 
" style="fill:none;stroke:#cccccc;stroke-linecap:round;stroke-width:0.8;"/>
     </g>
     <g id="line2d_8"/>
     <g id="text_4">
      <!-- 2018 -->
      <defs>
       <path d="M 31.78125 34.625 
Q 24.75 34.625 20.71875 30.859375 
Q 16.703125 27.09375 16.703125 20.515625 
Q 16.703125 13.921875 20.71875 10.15625 
Q 24.75 6.390625 31.78125 6.390625 
Q 38.8125 6.390625 42.859375 10.171875 
Q 46.921875 13.96875 46.921875 20.515625 
Q 46.921875 27.09375 42.890625 30.859375 
Q 38.875 34.625 31.78125 34.625 
z
M 21.921875 38.8125 
Q 15.578125 40.375 12.03125 44.71875 
Q 8.5 49.078125 8.5 55.328125 
Q 8.5 64.0625 14.71875 69.140625 
Q 20.953125 74.21875 31.78125 74.21875 
Q 42.671875 74.21875 48.875 69.140625 
Q 55.078125 64.0625 55.078125 55.328125 
Q 55.078125 49.078125 51.53125 44.71875 
Q 48 40.375 41.703125 38.8125 
Q 48.828125 37.15625 52.796875 32.3125 
Q 56.78125 27.484375 56.78125 20.515625 
Q 56.78125 9.90625 50.3125 4.234375 
Q 43.84375 -1.421875 31.78125 -1.421875 
Q 19.734375 -1.421875 13.25 4.234375 
Q 6.78125 9.90625 6.78125 20.515625 
Q 6.78125 27.484375 10.78125 32.3125 
Q 14.796875 37.15625 21.921875 38.8125 
z
M 18.3125 54.390625 
Q 18.3125 48.734375 21.84375 45.5625 
Q 25.390625 42.390625 31.78125 42.390625 
Q 38.140625 42.390625 41.71875 45.5625 
Q 45.3125 48.734375 45.3125 54.390625 
Q 45.3125 60.0625 41.71875 63.234375 
Q 38.140625 66.40625 31.78125 66.40625 
Q 25.390625 66.40625 21.84375 63.234375 
Q 18.3125 60.0625 18.3125 54.390625 
z
" id="DejaVuSans-56"/>
      </defs>
      <g style="fill:#262626;" transform="translate(399.474815 651.898438)scale(0.1 -0.1)">
       <use xlink:href="#DejaVuSans-50"/>
       <use x="63.623047" xlink:href="#DejaVuSans-48"/>
       <use x="127.246094" xlink:href="#DejaVuSans-49"/>
       <use x="190.869141" xlink:href="#DejaVuSans-56"/>
      </g>
     </g>
    </g>
    <g id="xtick_5">
     <g id="line2d_9">
      <path clip-path="url(#p5c1a10c419)" d="M 495.286311 640.8 
L 495.286311 86.4 
" style="fill:none;stroke:#cccccc;stroke-linecap:round;stroke-width:0.8;"/>
     </g>
     <g id="line2d_10"/>
     <g id="text_5">
      <!-- 2019 -->
      <defs>
       <path d="M 10.984375 1.515625 
L 10.984375 10.5 
Q 14.703125 8.734375 18.5 7.8125 
Q 22.3125 6.890625 25.984375 6.890625 
Q 35.75 6.890625 40.890625 13.453125 
Q 46.046875 20.015625 46.78125 33.40625 
Q 43.953125 29.203125 39.59375 26.953125 
Q 35.25 24.703125 29.984375 24.703125 
Q 19.046875 24.703125 12.671875 31.3125 
Q 6.296875 37.9375 6.296875 49.421875 
Q 6.296875 60.640625 12.9375 67.421875 
Q 19.578125 74.21875 30.609375 74.21875 
Q 43.265625 74.21875 49.921875 64.515625 
Q 56.59375 54.828125 56.59375 36.375 
Q 56.59375 19.140625 48.40625 8.859375 
Q 40.234375 -1.421875 26.421875 -1.421875 
Q 22.703125 -1.421875 18.890625 -0.6875 
Q 15.09375 0.046875 10.984375 1.515625 
z
M 30.609375 32.421875 
Q 37.25 32.421875 41.125 36.953125 
Q 45.015625 41.5 45.015625 49.421875 
Q 45.015625 57.28125 41.125 61.84375 
Q 37.25 66.40625 30.609375 66.40625 
Q 23.96875 66.40625 20.09375 61.84375 
Q 16.21875 57.28125 16.21875 49.421875 
Q 16.21875 41.5 20.09375 36.953125 
Q 23.96875 32.421875 30.609375 32.421875 
z
" id="DejaVuSans-57"/>
      </defs>
      <g style="fill:#262626;" transform="translate(482.561311 651.898438)scale(0.1 -0.1)">
       <use xlink:href="#DejaVuSans-50"/>
       <use x="63.623047" xlink:href="#DejaVuSans-48"/>
       <use x="127.246094" xlink:href="#DejaVuSans-49"/>
       <use x="190.869141" xlink:href="#DejaVuSans-57"/>
      </g>
     </g>
    </g>
    <g id="xtick_6">
     <g id="line2d_11">
      <path clip-path="url(#p5c1a10c419)" d="M 578.372807 640.8 
L 578.372807 86.4 
" style="fill:none;stroke:#cccccc;stroke-linecap:round;stroke-width:0.8;"/>
     </g>
     <g id="line2d_12"/>
     <g id="text_6">
      <!-- 2020 -->
      <g style="fill:#262626;" transform="translate(565.647807 651.898438)scale(0.1 -0.1)">
       <use xlink:href="#DejaVuSans-50"/>
       <use x="63.623047" xlink:href="#DejaVuSans-48"/>
       <use x="127.246094" xlink:href="#DejaVuSans-50"/>
       <use x="190.869141" xlink:href="#DejaVuSans-48"/>
      </g>
     </g>
    </g>
   </g>
   <g id="matplotlib.axis_2">
    <g id="ytick_1">
     <g id="line2d_13">
      <path clip-path="url(#p5c1a10c419)" d="M 90 615.614337 
L 648 615.614337 
" style="fill:none;stroke:#cccccc;stroke-linecap:round;stroke-width:0.8;"/>
     </g>
     <g id="line2d_14"/>
     <g id="text_7">
      <!-- 0 -->
      <g style="fill:#262626;" transform="translate(80.1375 619.413555)scale(0.1 -0.1)">
       <use xlink:href="#DejaVuSans-48"/>
      </g>
     </g>
    </g>
    <g id="ytick_2">
     <g id="line2d_15">
      <path clip-path="url(#p5c1a10c419)" d="M 90 543.931788 
L 648 543.931788 
" style="fill:none;stroke:#cccccc;stroke-linecap:round;stroke-width:0.8;"/>
     </g>
     <g id="line2d_16"/>
     <g id="text_8">
      <!-- 5000 -->
      <g style="fill:#262626;" transform="translate(61.05 547.731007)scale(0.1 -0.1)">
       <use xlink:href="#DejaVuSans-53"/>
       <use x="63.623047" xlink:href="#DejaVuSans-48"/>
       <use x="127.246094" xlink:href="#DejaVuSans-48"/>
       <use x="190.869141" xlink:href="#DejaVuSans-48"/>
      </g>
     </g>
    </g>
    <g id="ytick_3">
     <g id="line2d_17">
      <path clip-path="url(#p5c1a10c419)" d="M 90 472.249239 
L 648 472.249239 
" style="fill:none;stroke:#cccccc;stroke-linecap:round;stroke-width:0.8;"/>
     </g>
     <g id="line2d_18"/>
     <g id="text_9">
      <!-- 10000 -->
      <g style="fill:#262626;" transform="translate(54.6875 476.048458)scale(0.1 -0.1)">
       <use xlink:href="#DejaVuSans-49"/>
       <use x="63.623047" xlink:href="#DejaVuSans-48"/>
       <use x="127.246094" xlink:href="#DejaVuSans-48"/>
       <use x="190.869141" xlink:href="#DejaVuSans-48"/>
       <use x="254.492188" xlink:href="#DejaVuSans-48"/>
      </g>
     </g>
    </g>
    <g id="ytick_4">
     <g id="line2d_19">
      <path clip-path="url(#p5c1a10c419)" d="M 90 400.56669 
L 648 400.56669 
" style="fill:none;stroke:#cccccc;stroke-linecap:round;stroke-width:0.8;"/>
     </g>
     <g id="line2d_20"/>
     <g id="text_10">
      <!-- 15000 -->
      <g style="fill:#262626;" transform="translate(54.6875 404.365909)scale(0.1 -0.1)">
       <use xlink:href="#DejaVuSans-49"/>
       <use x="63.623047" xlink:href="#DejaVuSans-53"/>
       <use x="127.246094" xlink:href="#DejaVuSans-48"/>
       <use x="190.869141" xlink:href="#DejaVuSans-48"/>
       <use x="254.492188" xlink:href="#DejaVuSans-48"/>
      </g>
     </g>
    </g>
    <g id="ytick_5">
     <g id="line2d_21">
      <path clip-path="url(#p5c1a10c419)" d="M 90 328.884142 
L 648 328.884142 
" style="fill:none;stroke:#cccccc;stroke-linecap:round;stroke-width:0.8;"/>
     </g>
     <g id="line2d_22"/>
     <g id="text_11">
      <!-- 20000 -->
      <g style="fill:#262626;" transform="translate(54.6875 332.68336)scale(0.1 -0.1)">
       <use xlink:href="#DejaVuSans-50"/>
       <use x="63.623047" xlink:href="#DejaVuSans-48"/>
       <use x="127.246094" xlink:href="#DejaVuSans-48"/>
       <use x="190.869141" xlink:href="#DejaVuSans-48"/>
       <use x="254.492188" xlink:href="#DejaVuSans-48"/>
      </g>
     </g>
    </g>
    <g id="ytick_6">
     <g id="line2d_23">
      <path clip-path="url(#p5c1a10c419)" d="M 90 257.201593 
L 648 257.201593 
" style="fill:none;stroke:#cccccc;stroke-linecap:round;stroke-width:0.8;"/>
     </g>
     <g id="line2d_24"/>
     <g id="text_12">
      <!-- 25000 -->
      <g style="fill:#262626;" transform="translate(54.6875 261.000812)scale(0.1 -0.1)">
       <use xlink:href="#DejaVuSans-50"/>
       <use x="63.623047" xlink:href="#DejaVuSans-53"/>
       <use x="127.246094" xlink:href="#DejaVuSans-48"/>
       <use x="190.869141" xlink:href="#DejaVuSans-48"/>
       <use x="254.492188" xlink:href="#DejaVuSans-48"/>
      </g>
     </g>
    </g>
    <g id="ytick_7">
     <g id="line2d_25">
      <path clip-path="url(#p5c1a10c419)" d="M 90 185.519044 
L 648 185.519044 
" style="fill:none;stroke:#cccccc;stroke-linecap:round;stroke-width:0.8;"/>
     </g>
     <g id="line2d_26"/>
     <g id="text_13">
      <!-- 30000 -->
      <defs>
       <path d="M 40.578125 39.3125 
Q 47.65625 37.796875 51.625 33 
Q 55.609375 28.21875 55.609375 21.1875 
Q 55.609375 10.40625 48.1875 4.484375 
Q 40.765625 -1.421875 27.09375 -1.421875 
Q 22.515625 -1.421875 17.65625 -0.515625 
Q 12.796875 0.390625 7.625 2.203125 
L 7.625 11.71875 
Q 11.71875 9.328125 16.59375 8.109375 
Q 21.484375 6.890625 26.8125 6.890625 
Q 36.078125 6.890625 40.9375 10.546875 
Q 45.796875 14.203125 45.796875 21.1875 
Q 45.796875 27.640625 41.28125 31.265625 
Q 36.765625 34.90625 28.71875 34.90625 
L 20.21875 34.90625 
L 20.21875 43.015625 
L 29.109375 43.015625 
Q 36.375 43.015625 40.234375 45.921875 
Q 44.09375 48.828125 44.09375 54.296875 
Q 44.09375 59.90625 40.109375 62.90625 
Q 36.140625 65.921875 28.71875 65.921875 
Q 24.65625 65.921875 20.015625 65.03125 
Q 15.375 64.15625 9.8125 62.3125 
L 9.8125 71.09375 
Q 15.4375 72.65625 20.34375 73.4375 
Q 25.25 74.21875 29.59375 74.21875 
Q 40.828125 74.21875 47.359375 69.109375 
Q 53.90625 64.015625 53.90625 55.328125 
Q 53.90625 49.265625 50.4375 45.09375 
Q 46.96875 40.921875 40.578125 39.3125 
z
" id="DejaVuSans-51"/>
      </defs>
      <g style="fill:#262626;" transform="translate(54.6875 189.318263)scale(0.1 -0.1)">
       <use xlink:href="#DejaVuSans-51"/>
       <use x="63.623047" xlink:href="#DejaVuSans-48"/>
       <use x="127.246094" xlink:href="#DejaVuSans-48"/>
       <use x="190.869141" xlink:href="#DejaVuSans-48"/>
       <use x="254.492188" xlink:href="#DejaVuSans-48"/>
      </g>
     </g>
    </g>
    <g id="ytick_8">
     <g id="line2d_27">
      <path clip-path="url(#p5c1a10c419)" d="M 90 113.836496 
L 648 113.836496 
" style="fill:none;stroke:#cccccc;stroke-linecap:round;stroke-width:0.8;"/>
     </g>
     <g id="line2d_28"/>
     <g id="text_14">
      <!-- 35000 -->
      <g style="fill:#262626;" transform="translate(54.6875 117.635714)scale(0.1 -0.1)">
       <use xlink:href="#DejaVuSans-51"/>
       <use x="63.623047" xlink:href="#DejaVuSans-53"/>
       <use x="127.246094" xlink:href="#DejaVuSans-48"/>
       <use x="190.869141" xlink:href="#DejaVuSans-48"/>
       <use x="254.492188" xlink:href="#DejaVuSans-48"/>
      </g>
     </g>
    </g>
   </g>
   <g id="line2d_29">
    <path clip-path="url(#p5c1a10c419)" d="M 115.363636 615.6 
L 115.407119 615.499644 
L 117.979428 615.012203 
L 120.768656 614.238032 
L 120.832976 614.209359 
L 122.396038 614.051657 
L 122.627392 614.022984 
L 124.648205 613.535543 
L 124.731367 613.50687 
L 125.975807 613.234476 
L 126.503379 612.919073 
L 127.546373 612.718362 
L 128.608698 612.460304 
L 134.27112 611.04099 
L 134.406536 610.983644 
L 135.45671 610.854615 
L 135.637039 610.71125 
L 135.809614 610.639568 
L 136.085207 610.553549 
L 136.951753 610.367174 
L 136.952241 610.352837 
L 137.381163 610.195136 
L 137.452522 610.109117 
L 138.515911 609.80805 
L 141.705246 608.990869 
L 141.815567 608.876177 
L 142.211659 608.732812 
L 142.219518 608.718475 
L 142.468285 608.589447 
L 142.535832 608.560774 
L 143.295277 608.417409 
L 143.356227 608.245371 
L 143.765044 608.102005 
L 144.041743 607.643237 
L 144.921997 607.456862 
L 145.80163 606.955085 
L 146.284525 606.81172 
L 146.365454 606.711364 
L 146.603105 606.582335 
L 146.779848 606.524989 
L 147.590042 606.352951 
L 150.135401 605.306386 
L 150.201657 605.177357 
L 151.281718 604.890627 
L 151.419603 604.747262 
L 151.766263 604.560887 
L 151.960603 604.446195 
L 151.981167 604.388849 
L 152.656545 604.245484 
L 153.169581 603.815389 
L 153.179959 603.786716 
L 153.590082 603.643351 
L 153.612988 603.586005 
L 154.25395 603.39963 
L 154.401772 603.227592 
L 154.71674 603.026881 
L 155.13329 602.926525 
L 155.202589 602.897852 
L 155.852761 602.768824 
L 156.174861 602.568113 
L 156.765841 602.338728 
L 156.770011 602.324392 
L 157.84728 602.138017 
L 157.940499 602.008989 
L 158.081604 601.865624 
L 159.501804 601.062779 
L 159.676901 600.890741 
L 159.938991 600.718703 
L 160.031702 600.632684 
L 160.641095 600.517992 
L 160.734999 600.460646 
L 160.853554 600.317281 
L 160.871013 600.116569 
L 162.435833 599.887185 
L 162.636464 599.815503 
L 163.443928 599.672138 
L 164.195361 599.442754 
L 164.30686 599.328061 
L 164.535313 598.940976 
L 164.903962 598.797611 
L 165.452368 598.596899 
L 165.721952 598.381852 
L 166.169174 597.89441 
L 166.326987 597.736709 
L 166.352688 597.636353 
L 167.065086 597.492988 
L 167.2171 597.306614 
L 167.314224 597.191921 
L 167.467161 596.99121 
L 167.571016 596.862182 
L 167.880267 596.647134 
L 167.978063 596.503769 
L 168.329802 596.475096 
L 168.629384 596.346067 
L 169.277504 595.528886 
L 169.373563 595.328175 
L 169.793411 595.156137 
L 169.799505 595.141801 
L 170.246195 595.012772 
L 170.350293 594.941089 
L 170.474918 594.726042 
L 170.595501 594.554004 
L 170.89328 594.123908 
L 170.991866 594.052226 
L 171.797992 593.779832 
L 171.960805 593.693813 
L 172.234609 593.421419 
L 172.28128 593.278054 
L 172.554109 593.134689 
L 172.607158 593.077343 
L 173.615788 592.776276 
L 173.842305 592.47521 
L 173.925971 592.231489 
L 174.058829 592.102461 
L 174.340574 591.772721 
L 174.992443 591.557673 
L 175.04399 591.457318 
L 175.404039 591.328289 
L 175.544711 591.24227 
L 175.638018 591.070232 
L 175.75629 590.840848 
L 175.924371 590.6258 
L 175.960834 590.597127 
L 176.558258 590.468098 
L 176.663702 590.310397 
L 177.298625 589.751273 
L 178.107043 589.536225 
L 178.215991 589.349851 
L 178.399896 589.220822 
L 178.500418 589.10613 
L 178.604698 588.962765 
L 178.930423 588.360631 
L 179.092312 588.217266 
L 179.245156 588.145584 
L 180.016417 587.772835 
L 180.908238 586.525558 
L 181.32249 586.35352 
L 181.443189 586.167145 
L 181.574094 585.966434 
L 181.70682 585.665368 
L 181.797624 585.522003 
L 181.870875 585.321291 
L 182.04344 585.192263 
L 182.348654 584.518447 
L 182.930863 584.26039 
L 183.02888 584.160034 
L 183.180228 583.959323 
L 183.346337 583.715602 
L 183.576477 583.471882 
L 183.73976 583.299844 
L 184.317772 583.070459 
L 184.59728 582.798066 
L 184.712707 582.69771 
L 184.797677 582.496999 
L 185.019099 582.12425 
L 185.247663 581.823183 
L 185.362015 581.737164 
L 185.829361 581.50778 
L 186.09834 581.378751 
L 186.178539 581.292732 
L 186.50197 581.063348 
L 186.618203 580.905646 
L 186.792651 580.661926 
L 186.901874 580.489888 
L 187.058665 580.31785 
L 187.10235 580.260503 
L 187.676259 580.102802 
L 187.829978 579.844745 
L 188.150455 579.586688 
L 188.290463 579.385976 
L 188.710994 578.798179 
L 189.168692 578.654814 
L 190.033119 577.278509 
L 190.217598 577.135144 
L 190.296498 577.006116 
L 190.827442 576.848414 
L 190.932535 576.590357 
L 191.032336 576.533011 
L 191.136524 576.375309 
L 191.254356 576.160262 
L 191.345099 576.016897 
L 191.709166 575.486446 
L 191.786109 575.357417 
L 191.858678 575.128033 
L 192.503064 574.970331 
L 192.783244 574.540236 
L 192.936478 574.325188 
L 193.064923 573.966776 
L 193.337934 573.637036 
L 193.448597 573.235614 
L 193.962729 573.00623 
L 194.168127 572.604807 
L 194.31283 572.447106 
L 194.4669 572.131702 
L 194.634448 571.930991 
L 194.763757 571.816299 
L 195.227056 571.070801 
L 195.419314 570.927436 
L 195.531398 570.841417 
L 195.891002 570.54035 
L 196.159207 570.181937 
L 196.36108 569.92388 
L 196.517175 569.680159 
L 197.262525 569.250064 
L 197.388972 569.063689 
L 197.64422 568.73395 
L 197.742812 568.518902 
L 197.892426 568.289518 
L 197.989663 568.11748 
L 198.297968 567.630038 
L 198.839184 567.458 
L 199.002825 566.88454 
L 199.071176 566.726838 
L 199.444217 565.995676 
L 199.744283 565.723283 
L 199.824785 565.522571 
L 200.474217 565.407879 
L 200.638938 565.207168 
L 201.585607 563.501124 
L 202.064635 563.314749 
L 202.187955 563.214393 
L 202.278411 563.028019 
L 202.957946 561.823752 
L 203.052557 561.608704 
L 203.46639 561.451003 
L 203.662503 561.264628 
L 204.420984 560.175053 
L 205.171832 559.974342 
L 205.502618 559.271853 
L 205.606637 559.128488 
L 206.441954 558.239625 
L 206.787568 558.110596 
L 207.148261 557.307751 
L 207.266412 557.164386 
L 207.843011 556.189504 
L 208.386804 556.046139 
L 208.500845 555.831091 
L 208.86104 555.487015 
L 209.028938 555.30064 
L 209.124697 555.114265 
L 209.278387 554.942227 
L 209.437652 554.712843 
L 209.516521 554.655497 
L 209.95297 554.483459 
L 210.203341 554.211065 
L 211.033887 553.121491 
L 211.517052 552.935116 
L 211.683185 552.648386 
L 212.818276 551.343763 
L 213.496279 550.813312 
L 214.22666 549.623382 
L 214.42036 549.580373 
L 214.726837 549.451344 
L 215.950544 548.132385 
L 216.404127 547.98902 
L 216.495887 547.888664 
L 216.640318 547.759636 
L 216.746801 547.587598 
L 217.513765 546.698734 
L 217.920945 546.555369 
L 218.247874 545.996245 
L 218.434975 545.695178 
L 218.719017 545.494467 
L 219.071702 545.265083 
L 219.491785 545.121718 
L 219.561058 545.064372 
L 219.807849 544.90667 
L 220.622179 543.817096 
L 221.186071 543.630721 
L 221.617296 543.071597 
L 221.7377 542.799204 
L 221.876878 542.498137 
L 222.010837 542.369108 
L 222.105985 542.211407 
L 222.132316 542.111051 
L 222.668213 541.953349 
L 223.00303 541.150505 
L 223.491395 540.318987 
L 223.603813 540.204295 
L 223.899366 539.888892 
L 224.257937 539.716854 
L 224.347352 539.573489 
L 224.540325 539.44446 
L 225.119562 537.982136 
L 225.368144 537.623724 
L 225.930369 537.423012 
L 226.044263 537.050263 
L 226.138889 536.964244 
L 226.216343 536.806542 
L 226.331633 536.69185 
L 226.907502 535.78865 
L 226.986842 535.688295 
L 227.472272 535.559266 
L 227.556958 535.415901 
L 228.589927 533.523482 
L 229.092678 533.294098 
L 229.517513 532.433907 
L 229.59513 532.290542 
L 229.70689 532.075494 
L 229.802536 531.932129 
L 229.936418 531.702745 
L 230.070775 531.487697 
L 230.173506 531.301323 
L 230.685029 531.100612 
L 231.166131 530.32644 
L 231.325994 530.140065 
L 231.394755 529.9967 
L 231.482123 529.70997 
L 231.629361 529.580942 
L 231.690021 529.494922 
L 232.281739 529.294211 
L 232.394963 529.050491 
L 232.550257 528.864116 
L 233.299398 527.760205 
L 233.556493 527.61684 
L 233.678491 527.530821 
L 233.879083 527.387456 
L 233.969001 527.215417 
L 234.189991 527.029043 
L 234.29294 526.857005 
L 234.484342 526.541601 
L 234.633888 526.312217 
L 234.7821 526.09717 
L 234.866665 525.939468 
L 234.948018 525.853449 
L 235.302574 525.695747 
L 235.409093 525.638401 
L 235.608934 525.351671 
L 236.569142 523.760319 
L 237.025304 523.530934 
L 237.135646 523.244204 
L 237.396482 522.900128 
L 237.532834 522.756763 
L 238.228059 522.011264 
L 238.680513 521.695861 
L 238.790247 521.509487 
L 239.205065 520.835671 
L 239.682491 520.190528 
L 240.211475 520.01849 
L 240.315654 519.875124 
L 240.439162 519.746096 
L 240.586921 519.35901 
L 240.709311 519.201308 
L 240.895455 518.914578 
L 240.983247 518.771213 
L 241.460736 518.12607 
L 241.850944 517.954032 
L 242.341459 517.22287 
L 242.48147 516.907467 
L 242.564462 516.764102 
L 242.740989 516.549054 
L 242.943702 516.36268 
L 243.663585 515.803556 
L 243.943082 515.359124 
L 244.308585 515.101067 
L 244.952735 514.943365 
L 245.918418 514.369905 
L 246.565231 514.22654 
L 247.120882 513.681752 
L 247.191955 513.595733 
L 247.476479 513.452368 
L 247.735115 513.222984 
L 248.250955 512.95059 
L 248.38519 512.678197 
L 248.487689 512.549168 
L 248.96017 511.803669 
L 249.20549 511.688977 
L 249.301858 511.516939 
L 249.762135 511.330565 
L 250.289082 510.871796 
L 250.428853 510.642412 
L 250.56175 510.499047 
L 250.666423 510.341345 
L 250.760698 510.183644 
L 250.845856 509.968596 
L 251.353646 509.782222 
L 251.483669 509.567174 
L 251.586811 509.423809 
L 251.709282 509.280444 
L 251.929524 508.979377 
L 252.042208 508.821675 
L 252.20797 508.606628 
L 252.480881 508.305561 
L 252.850947 508.162196 
L 254.129854 505.825345 
L 254.610373 505.567288 
L 254.761652 505.223211 
L 254.847766 505.06551 
L 255.184989 504.190983 
L 255.306459 503.918589 
L 255.472203 503.560176 
L 255.533909 503.373802 
L 255.646849 503.201764 
L 256.111531 502.958043 
L 256.357368 502.64264 
L 256.441619 502.499275 
L 256.516615 502.298564 
L 256.64683 502.169535 
L 256.796104 501.69643 
L 256.943798 501.251998 
L 257.346244 500.492163 
L 258.030345 499.6033 
L 258.102 499.115858 
L 258.236375 498.671427 
L 258.38056 498.097966 
L 258.479947 497.897255 
L 258.626207 497.567515 
L 258.716881 497.438487 
L 258.785293 497.223439 
L 258.872666 497.09441 
L 259.376143 496.721661 
L 259.486061 496.248556 
L 259.639008 495.976163 
L 259.732264 495.775452 
L 259.834278 495.589077 
L 260.248064 494.614194 
L 260.315545 494.485166 
L 260.426362 494.284455 
L 260.862426 493.940378 
L 261.054258 493.610639 
L 261.171953 493.4386 
L 261.265107 493.280899 
L 261.371207 493.166207 
L 261.543927 492.994169 
L 261.673652 492.750448 
L 261.949092 492.377699 
L 262.11189 492.205661 
L 262.332129 492.105305 
L 262.719827 491.761229 
L 263.001187 491.216441 
L 263.109787 491.030067 
L 263.350547 490.470943 
L 263.472421 490.327578 
L 263.544579 490.11253 
L 263.694478 489.897483 
L 264.082571 489.711108 
L 264.430959 489.080302 
L 264.615005 488.807908 
L 264.689938 488.492505 
L 264.808178 488.377813 
L 265.040323 488.105419 
L 265.15354 487.847362 
L 265.914829 487.388593 
L 266.22037 486.886816 
L 266.314661 486.614422 
L 266.471966 486.399374 
L 266.529844 486.198663 
L 266.670016 486.069634 
L 266.83425 485.768568 
L 267.374483 485.481838 
L 267.733737 484.922714 
L 267.812576 484.793685 
L 268.030836 484.449609 
L 268.129552 484.248898 
L 268.356003 483.861812 
L 268.891815 483.732783 
L 269.112052 483.489063 
L 269.218958 483.288352 
L 269.358592 483.073304 
L 269.480911 482.829583 
L 270.125103 481.725672 
L 270.501532 481.553634 
L 270.668545 481.166548 
L 270.78368 480.99451 
L 270.915028 480.808135 
L 271.016562 480.66477 
L 271.128477 480.37804 
L 271.391772 480.076973 
L 271.530362 479.732897 
L 271.834012 479.632542 
L 272.158069 479.417494 
L 272.294855 479.087754 
L 272.456467 478.829697 
L 272.828602 478.227564 
L 273.523801 477.697113 
L 273.930381 477.453392 
L 274.032745 477.224008 
L 274.787128 476.091424 
L 275.208824 475.948059 
L 275.282702 475.790357 
L 275.597385 475.216897 
L 275.727403 474.958839 
L 275.81221 474.772465 
L 275.933022 474.614763 
L 276.938541 473.582534 
L 277.075709 473.367487 
L 277.413548 472.679334 
L 277.700143 471.862153 
L 277.869741 471.58976 
L 277.96451 471.460731 
L 278.400324 471.274356 
L 278.495583 471.087982 
L 278.624399 470.672223 
L 278.995977 469.381937 
L 279.103031 468.980515 
L 279.349351 468.55042 
L 279.403135 468.421391 
L 279.497421 468.120324 
L 279.687598 467.876604 
L 279.816694 467.776248 
L 280.084788 467.546864 
L 280.603265 466.801365 
L 280.702478 466.514635 
L 280.793698 466.356934 
L 281.00501 465.969848 
L 281.059877 465.769137 
L 281.171062 465.597099 
L 281.677633 465.296032 
L 281.822465 464.980629 
L 281.935484 464.794254 
L 282.107411 464.378495 
L 282.184548 464.149111 
L 282.311604 463.848044 
L 282.552947 463.489632 
L 282.656873 463.360603 
L 282.801751 463.188565 
L 283.178079 462.973517 
L 283.305489 462.801479 
L 283.356451 462.615105 
L 283.457933 462.285365 
L 283.530296 462.041644 
L 283.653234 461.81226 
L 283.801726 461.281809 
L 283.902552 460.980742 
L 284.034311 460.751358 
L 284.25696 460.134888 
L 284.408811 459.96285 
L 284.540763 459.776476 
L 284.673491 459.67612 
L 284.960967 459.303371 
L 285.07931 459.116996 
L 285.234394 458.787256 
L 285.29928 458.643891 
L 285.894119 457.410952 
L 286.304957 457.195904 
L 286.422737 457.038202 
L 286.557204 456.866164 
L 286.769352 456.493415 
L 286.906799 456.35005 
L 287.009709 456.120666 
L 287.695563 454.644005 
L 288.260609 454.113554 
L 288.376468 453.984526 
L 288.563155 453.755142 
L 288.679635 453.482748 
L 288.828372 452.952297 
L 288.930233 452.765922 
L 289.040438 452.507865 
L 289.07677 452.436183 
L 289.398791 452.278481 
L 289.698017 451.920068 
L 290.114379 451.217579 
L 290.337956 450.902176 
L 290.613438 450.486417 
L 290.723899 450.257033 
L 291.10336 450.070659 
L 291.762019 448.794709 
L 291.899919 448.407623 
L 291.995913 448.163903 
L 292.145901 447.877173 
L 292.399276 447.604779 
L 292.819156 447.375395 
L 292.940677 447.146011 
L 293.156792 447.016982 
L 293.328024 446.715915 
L 293.576978 446.28582 
L 293.729232 446.099445 
L 294.247972 445.71236 
L 294.451515 445.583331 
L 294.640944 445.239255 
L 295.512965 443.53321 
L 295.960358 443.346835 
L 296.101721 443.117451 
L 296.906803 441.569108 
L 296.97654 441.382734 
L 297.101565 441.124676 
L 297.399852 440.952638 
L 297.591149 440.708918 
L 297.665636 440.551216 
L 297.757589 440.379178 
L 297.872157 440.221476 
L 297.981732 439.949083 
L 298.106796 439.533324 
L 298.244067 439.26093 
L 298.313077 439.045883 
L 298.563851 438.271711 
L 299.206399 437.698251 
L 299.542157 436.192917 
L 299.656788 435.977869 
L 300.09094 434.974314 
L 300.195556 434.730593 
L 300.350227 434.572891 
L 300.798086 434.400853 
L 300.994653 433.970758 
L 301.051614 433.841729 
L 301.186024 433.51199 
L 301.267529 433.311279 
L 301.435475 432.809501 
L 302.144227 431.70559 
L 302.364963 431.562224 
L 302.52719 431.418859 
L 302.664716 431.218148 
L 302.786835 431.060447 
L 302.901121 430.845399 
L 303.021722 430.601678 
L 303.133018 430.386631 
L 303.456235 429.598123 
L 303.97356 429.354402 
L 304.442879 428.264827 
L 304.481003 428.078453 
L 304.581763 427.43331 
L 304.685334 427.232598 
L 304.97049 426.659138 
L 305.062419 426.401081 
L 305.173709 426.243379 
L 305.277219 425.899303 
L 305.641295 425.497881 
L 305.741427 425.340179 
L 305.830431 425.182478 
L 305.966127 424.92442 
L 306.051481 424.795392 
L 306.158456 424.479989 
L 306.288274 424.236268 
L 306.427618 423.605462 
L 306.849561 423.003328 
L 307.049057 422.8743 
L 307.154757 422.745271 
L 307.286097 422.444204 
L 307.421234 422.186147 
L 307.773909 421.153918 
L 307.99743 420.379747 
L 308.428794 419.863632 
L 308.729804 419.705931 
L 308.848184 419.089461 
L 308.95802 418.860077 
L 309.343007 417.139696 
L 309.449333 416.695264 
L 309.681581 415.949765 
L 309.791831 415.749054 
L 310.144774 415.476661 
L 310.300251 415.318959 
L 310.475245 414.688152 
L 310.622524 414.530451 
L 310.924272 413.870971 
L 311.111532 413.197155 
L 311.560509 412.236609 
L 311.868042 412.021562 
L 312.019817 411.591466 
L 312.209791 411.132698 
L 312.371483 410.802958 
L 312.725211 410.000114 
L 312.846369 409.713384 
L 312.936982 409.44099 
L 313.043631 409.211606 
L 313.466711 408.953549 
L 314.712685 406.588024 
L 314.975998 406.387313 
L 315.404535 405.842526 
L 315.523692 405.512786 
L 316.079989 404.509231 
L 316.858501 403.448329 
L 317.018045 403.204608 
L 317.18963 402.960887 
L 317.363048 402.645484 
L 317.76232 401.928659 
L 317.903616 401.84264 
L 318.337863 401.55591 
L 318.636649 400.93944 
L 319.134585 399.176049 
L 319.279802 398.889319 
L 319.3365 398.659935 
L 319.515836 398.502233 
L 319.613745 398.301522 
L 319.862614 398.100811 
L 320.160986 397.584696 
L 320.285627 397.312303 
L 320.730046 396.351757 
L 321.565685 395.577585 
L 321.962514 394.77474 
L 322.047882 394.617039 
L 322.076413 394.143934 
L 322.172472 393.642156 
L 322.203258 393.484455 
L 322.411156 392.380543 
L 322.520181 391.850092 
L 322.643938 391.348315 
L 322.897271 391.176276 
L 323.08366 390.946892 
L 323.212711 390.602816 
L 323.32643 390.430778 
L 323.400917 390.244403 
L 323.515048 389.699616 
L 323.989502 388.73907 
L 324.088591 388.108263 
L 324.792695 387.377101 
L 324.963874 387.133381 
L 325.212209 386.774968 
L 326.031152 385.972123 
L 326.295568 385.843095 
L 327.100925 384.739184 
L 327.306014 384.538472 
L 328.227514 384.237406 
L 328.400656 384.13705 
L 329.829408 383.52058 
L 331.38968 382.201621 
L 331.503452 382.058256 
L 331.695843 381.699844 
L 331.89874 381.298421 
L 332.003755 381.155056 
L 332.114703 380.940009 
L 332.786311 380.438231 
L 332.945855 380.251856 
L 333.06407 380.079818 
L 333.329996 379.57804 
L 333.530456 379.362992 
L 333.649793 379.162281 
L 333.800303 379.104935 
L 334.342644 378.703513 
L 334.456825 378.588821 
L 334.659314 378.273418 
L 334.955481 377.241189 
L 335.029926 377.083487 
L 335.167492 376.911449 
L 336.206868 375.907894 
L 336.316815 375.778865 
L 336.634341 375.320097 
L 337.504291 374.646281 
L 337.65312 374.488579 
L 338.609814 373.657062 
L 339.036444 373.528033 
L 339.329823 373.155284 
L 339.721249 372.624833 
L 339.891542 372.252084 
L 340.182909 371.922344 
L 340.627098 371.69296 
L 340.784161 371.578268 
L 341.091393 371.090826 
L 341.644247 370.302318 
L 342.111579 370.13028 
L 342.405088 369.657175 
L 342.617836 369.198407 
L 342.727369 369.040705 
L 342.832089 368.682293 
L 342.929202 368.467245 
L 342.995983 368.28087 
L 343.105508 368.166178 
L 343.226634 367.951131 
L 343.297008 367.850775 
L 343.498404 367.693074 
L 343.601819 367.635727 
L 343.817935 367.463689 
L 343.956312 367.105277 
L 344.07098 366.933239 
L 344.728024 365.513924 
L 344.809804 365.313213 
L 344.867007 365.155511 
L 345.354271 364.9548 
L 346.569588 362.57494 
L 346.976771 362.331219 
L 347.058956 362.159181 
L 347.217426 361.829441 
L 348.23762 360.381454 
L 348.606371 360.180742 
L 348.712595 360.008704 
L 348.812952 359.879676 
L 349.10293 359.263206 
L 349.588431 358.661072 
L 349.682931 358.603726 
L 350.20673 358.216641 
L 350.368121 357.97292 
L 351.160045 356.811663 
L 351.766293 356.438913 
L 351.881356 356.252539 
L 352.770197 355.105618 
L 353.468733 354.976589 
L 353.796429 354.632513 
L 353.915555 354.532158 
L 354.061489 354.302773 
L 354.209693 354.130735 
L 355.022811 353.428246 
L 355.181913 353.256208 
L 355.387216 353.112843 
L 355.522173 352.912132 
L 355.751288 352.51071 
L 356.155958 351.994595 
L 356.630939 351.822557 
L 356.771261 351.478481 
L 357.55784 350.474925 
L 358.109555 350.345897 
L 358.309062 350.030494 
L 358.429505 349.887128 
L 358.667141 349.686417 
L 358.745506 349.571725 
L 358.881876 349.42836 
L 359.003439 349.284995 
L 359.149517 349.069947 
L 359.337824 348.926582 
L 359.821594 348.48215 
L 359.925855 348.367458 
L 360.091254 348.19542 
L 360.498872 347.57895 
L 360.650665 347.435585 
L 360.877888 347.177528 
L 361.269967 346.976817 
L 361.3748 346.819115 
L 362.307075 345.629185 
L 362.349135 345.557502 
L 363.117084 345.313782 
L 363.21155 345.15608 
L 363.373154 344.91236 
L 363.46562 344.754658 
L 364.20515 343.822785 
L 364.526219 343.650747 
L 364.637602 343.321007 
L 364.800155 343.005604 
L 364.912051 342.790556 
L 365.018012 342.546835 
L 365.533878 341.629299 
L 366.092119 341.285223 
L 366.227113 340.941146 
L 366.776526 339.851572 
L 366.897454 339.708207 
L 367.021436 339.536168 
L 367.19552 339.263775 
L 367.285473 339.206429 
L 367.692938 339.063064 
L 367.802266 338.819343 
L 368.044009 338.389248 
L 368.181551 338.245883 
L 368.283264 337.987825 
L 368.468183 337.787114 
L 368.592196 337.60074 
L 369.82663 336.267444 
L 369.9316 336.109743 
L 370.760979 335.177869 
L 370.886802 335.005831 
L 371.247494 334.704765 
L 371.429852 334.532726 
L 372.160776 333.715545 
L 372.443177 333.57218 
L 372.609933 333.213768 
L 373.807892 331.952155 
L 374.089244 331.80879 
L 374.628429 330.633196 
L 374.738307 330.403812 
L 374.883909 330.102745 
L 375.064378 329.773005 
L 375.170567 329.586631 
L 375.682571 329.256891 
L 375.783797 329.027507 
L 375.97433 328.898478 
L 376.173159 328.468383 
L 377.026276 327.335799 
L 377.309671 327.178097 
L 377.44325 326.862694 
L 377.55419 326.604637 
L 377.679542 326.489945 
L 377.794026 326.332243 
L 377.899117 326.088522 
L 378.64659 325.40037 
L 378.819225 325.271341 
L 379.188349 324.654871 
L 379.356906 324.439824 
L 379.887857 323.479277 
L 380.389504 323.307239 
L 380.692668 322.776789 
L 380.866379 322.432712 
L 381.027396 322.045627 
L 381.646877 321.12809 
L 381.96933 320.984725 
L 383.502057 318.94894 
L 383.606344 318.805575 
L 383.805949 318.604864 
L 384.300123 317.672991 
L 384.600479 316.941829 
L 384.713334 316.655099 
L 384.972785 316.554743 
L 385.199623 316.425715 
L 385.470345 316.124648 
L 385.542273 315.981283 
L 385.628029 315.780572 
L 385.747769 315.608534 
L 385.908944 315.307467 
L 386.234458 314.461613 
L 386.324613 314.303911 
L 386.78967 314.117537 
L 386.862555 313.945499 
L 386.983211 313.759124 
L 387.117774 313.601422 
L 387.732942 312.597867 
L 387.828809 312.411492 
L 387.932299 312.325473 
L 388.307371 312.153435 
L 388.598845 311.737676 
L 388.736469 311.450946 
L 389.691938 310.504736 
L 390.023538 310.375708 
L 391.185835 308.856038 
L 391.621699 308.64099 
L 391.780803 308.397269 
L 392.091237 307.938501 
L 392.200643 307.723453 
L 392.336976 307.580088 
L 392.434277 307.40805 
L 392.597978 307.221675 
L 392.620713 307.164329 
L 393.234524 307.020964 
L 393.293019 306.877599 
L 393.409692 306.748571 
L 393.955427 305.874044 
L 394.120367 305.544304 
L 394.778728 305.171555 
L 394.886414 304.970843 
L 395.498639 303.766577 
L 395.754359 303.479846 
L 395.875969 303.350818 
L 396.354552 303.164443 
L 396.465811 302.949396 
L 396.601137 302.791694 
L 397.619745 301.472735 
L 398.106701 301.186005 
L 398.210928 301.028303 
L 398.347708 300.870602 
L 398.446624 300.655554 
L 398.583494 300.483516 
L 398.811571 300.182449 
L 398.903518 300.125103 
L 398.968185 299.981738 
L 399.072257 299.795363 
L 399.534576 299.637662 
L 399.826446 299.107211 
L 400.783466 297.902944 
L 400.925073 297.759579 
L 401.548404 296.569649 
L 401.648247 296.340265 
L 401.834029 296.024861 
L 401.941866 295.838487 
L 402.341654 295.394055 
L 402.724406 295.193344 
L 402.856863 294.691566 
L 402.965287 294.376163 
L 403.064745 294.204125 
L 403.193591 294.003413 
L 403.273431 293.802702 
L 403.391416 293.515972 
L 403.669786 293.171896 
L 403.76622 293.085877 
L 404.303534 292.928175 
L 405.223432 291.408505 
L 405.328976 291.207794 
L 405.992846 290.619997 
L 406.100448 290.476632 
L 406.444953 290.132556 
L 406.56875 289.888835 
L 406.813125 289.731134 
L 406.918229 289.602105 
L 407.362153 289.387057 
L 407.55971 289.157673 
L 407.941767 288.655895 
L 408.30684 288.18279 
L 408.430229 288.010752 
L 409.295798 287.3226 
L 409.419126 287.107552 
L 409.568316 286.892505 
L 409.709268 286.720467 
L 410.205747 286.218689 
L 410.4266 286.118333 
L 411.171623 285.831603 
L 411.320149 285.673901 
L 411.651904 285.444517 
L 411.714343 285.387171 
L 412.540179 285.229469 
L 412.695078 285.071768 
L 412.920994 284.89973 
L 413.021754 284.742028 
L 413.190625 284.512644 
L 413.347108 284.254587 
L 413.433269 284.182904 
L 413.907557 284.039539 
L 414.039572 283.881838 
L 414.263831 283.595107 
L 414.659548 282.835272 
L 414.779359 282.663234 
L 414.906141 282.491196 
L 415.726534 281.889063 
L 415.898382 281.559323 
L 416.11006 281.301266 
L 416.214564 281.172237 
L 417.186214 280.312047 
L 417.327648 280.053989 
L 417.93237 279.179462 
L 418.108241 279.007424 
L 418.19254 278.878396 
L 418.658239 278.720694 
L 418.998589 278.147234 
L 419.194805 277.860503 
L 419.299013 277.688465 
L 419.929726 277.25837 
L 420.312591 277.086332 
L 420.522813 276.699246 
L 420.635972 276.512872 
L 420.810489 276.240478 
L 420.92542 276.011094 
L 421.032788 275.767373 
L 421.067689 275.710027 
L 421.296425 275.566662 
L 421.396296 275.480643 
L 421.863392 275.337278 
L 422.14461 275.050548 
L 422.410033 274.720808 
L 422.695403 274.477087 
L 422.876715 274.348059 
L 422.912251 274.190357 
L 423.441796 274.032655 
L 423.766854 273.731589 
L 423.988205 273.444858 
L 424.110497 273.201138 
L 424.418634 272.900071 
L 424.664255 272.599004 
L 425.259384 272.011208 
L 425.685811 271.366065 
L 425.865175 271.093671 
L 426.025088 270.935969 
L 426.168688 270.749595 
L 426.586552 270.591893 
L 426.702261 270.419855 
L 427.415267 269.61701 
L 427.535745 269.459309 
L 428.302414 269.08656 
L 428.4032 268.986204 
L 428.547328 268.785493 
L 428.729755 268.47009 
L 428.83615 268.183359 
L 429.022689 268.025658 
L 429.137718 267.824947 
L 429.44342 267.581226 
L 429.828928 267.409188 
L 430.808822 265.946864 
L 431.300812 265.703143 
L 431.461331 264.971981 
L 431.664129 264.799943 
L 431.887242 264.412857 
L 432.190775 264.040108 
L 432.842681 263.610013 
L 433.000958 263.480984 
L 433.102076 263.323283 
L 433.323548 263.122571 
L 433.485029 262.936197 
L 433.581215 262.735486 
L 433.828735 262.577784 
L 434.044498 262.448756 
L 434.112632 262.377073 
L 434.532328 262.219371 
L 434.865765 261.760603 
L 434.983355 261.588565 
L 435.104957 261.273162 
L 435.290777 261.015105 
L 435.503612 260.656692 
L 435.807161 260.312616 
L 436.1698 260.068895 
L 436.884079 258.936311 
L 437.076209 258.778609 
L 437.233472 258.577898 
L 437.790193 258.305504 
L 438.928045 256.929199 
L 439.451259 256.785834 
L 440.05327 256.327066 
L 440.080688 256.26972 
L 440.353986 256.140691 
L 440.508894 256.097682 
L 441.073693 255.767942 
L 441.180573 255.696259 
L 441.326917 255.552894 
L 441.537845 255.280501 
L 441.988076 254.879078 
L 442.019086 254.850405 
L 442.573057 254.678367 
L 442.763055 254.391637 
L 442.910959 254.219599 
L 443.524181 253.588792 
L 443.645446 253.431091 
L 444.172957 253.259053 
L 444.478084 252.90064 
L 444.718064 252.556564 
L 444.848013 252.441872 
L 445.371382 251.99744 
L 445.798555 251.854075 
L 445.8936 251.768056 
L 446.038643 251.624691 
L 446.230831 251.33796 
L 446.335959 251.208932 
L 446.537702 251.036894 
L 446.766951 250.649808 
L 447.403542 250.535116 
L 447.512153 250.291395 
L 447.595656 250.133694 
L 448.187853 249.388195 
L 448.330201 249.216157 
L 448.432062 249.158811 
L 448.683089 249.101465 
L 449.143993 248.814735 
L 449.297082 248.62836 
L 449.555131 248.427649 
L 449.931789 247.925871 
L 450.070575 247.839852 
L 450.568804 247.710823 
L 450.686386 247.596131 
L 450.827864 247.43843 
L 451.265939 246.936652 
L 451.444535 246.735941 
L 452.299288 246.219826 
L 453.347293 245.359636 
L 453.751879 245.187598 
L 454.698758 244.055014 
L 455.406011 243.696601 
L 455.49415 243.639255 
L 455.654801 243.467217 
L 455.852031 243.266505 
L 456.007526 243.094467 
L 456.421884 242.650036 
L 456.925024 242.50667 
L 457.740458 241.35975 
L 457.964206 241.044346 
L 458.60321 240.829299 
L 458.71161 240.585578 
L 458.867244 240.298848 
L 459.189147 239.911762 
L 459.29354 239.782734 
L 460.12814 239.209273 
L 460.212913 238.979889 
L 460.38641 238.836524 
L 460.526685 238.721832 
L 460.856433 238.435102 
L 461.000504 238.291737 
L 461.164714 238.177045 
L 461.652088 238.005006 
L 462.266696 237.159152 
L 462.422596 237.015787 
L 462.605225 236.700384 
L 462.868164 236.528346 
L 463.005925 236.471 
L 463.91188 235.754174 
L 464.005415 235.610809 
L 464.191409 235.467444 
L 464.241596 235.381425 
L 464.924707 235.152041 
L 465.041006 235.023012 
L 465.397839 234.62159 
L 465.476857 234.449552 
L 465.783415 234.263177 
L 465.883235 234.04813 
L 466.535106 233.689717 
L 466.680631 233.575025 
L 467.033944 233.14493 
L 467.241884 232.901209 
L 467.349613 232.714834 
L 467.528861 232.514123 
L 467.602866 232.48545 
L 468.318223 232.184383 
L 468.443229 231.86898 
L 468.618565 231.696942 
L 468.768651 231.338529 
L 468.868315 231.137818 
L 469.088356 230.908434 
L 469.330905 230.836752 
L 469.674322 230.707723 
L 470.890861 229.345755 
L 471.731643 228.686275 
L 471.859706 228.485564 
L 472.278437 227.912104 
L 472.356717 227.797411 
L 472.954018 227.539354 
L 473.058648 227.438999 
L 473.303125 227.238288 
L 473.60541 226.894211 
L 473.945309 226.521462 
L 474.783467 226.091367 
L 476.394717 224.801081 
L 476.462196 224.729398 
L 476.789707 224.514351 
L 477.011208 224.27063 
L 477.076676 224.213284 
L 477.309169 224.084255 
L 477.35737 224.055582 
L 477.653445 223.912217 
L 477.853715 223.539468 
L 478.017496 223.267074 
L 478.196697 223.123709 
L 478.358592 222.922998 
L 478.485219 222.822643 
L 479.296461 222.349538 
L 479.419979 222.206173 
L 479.768367 221.704395 
L 479.910862 221.532357 
L 482.003264 219.941004 
L 482.479567 219.783303 
L 482.673206 219.66861 
L 483.279586 219.09515 
L 483.416393 218.923112 
L 484.194559 218.507353 
L 484.277817 218.392661 
L 484.604867 218.14894 
L 484.735839 218.019912 
L 485.24232 217.561144 
L 485.578707 217.417778 
L 485.72335 217.274413 
L 485.818284 217.174058 
L 485.893604 217.030693 
L 486.095271 216.844318 
L 486.32389 216.686616 
L 486.500934 216.557588 
L 486.890526 216.414223 
L 487.256933 216.299531 
L 487.325204 216.170502 
L 487.479145 216.0128 
L 487.622383 215.840762 
L 487.904676 215.468013 
L 488.11318 215.281638 
L 488.242196 215.1096 
L 488.827572 214.923226 
L 489.118333 214.507467 
L 489.440577 214.192064 
L 489.818195 213.675949 
L 489.891525 213.546921 
L 490.370645 213.403556 
L 490.653038 213.188508 
L 490.866434 213.045143 
L 491.390249 212.701067 
L 491.991369 212.500356 
L 492.102112 212.213625 
L 493.106956 211.324762 
L 493.767538 211.152724 
L 494.680601 210.607936 
L 495.504706 210.450235 
L 495.96673 209.93412 
L 496.221451 209.747746 
L 496.789501 209.518362 
L 497.139818 209.260304 
L 497.307919 209.088266 
L 497.433769 208.959238 
L 498.130928 208.600825 
L 498.446238 208.471796 
L 499.642361 207.396558 
L 499.961692 207.26753 
L 500.02329 207.18151 
L 500.210158 207.038145 
L 500.37014 206.880444 
L 500.626611 206.60805 
L 500.745842 206.493358 
L 501.499814 205.962907 
L 501.679119 205.575821 
L 501.809545 205.403783 
L 501.983224 205.102717 
L 502.195045 204.902005 
L 502.353938 204.715631 
L 502.535711 204.557929 
L 503.151886 204.357218 
L 503.269144 204.199516 
L 503.414866 204.070488 
L 503.62654 203.812431 
L 503.790958 203.654729 
L 504.264601 203.411008 
L 505.394439 202.679846 
L 505.678194 202.436126 
L 506.373906 202.120723 
L 506.614007 201.805319 
L 506.715284 201.733637 
L 506.9794 201.47558 
L 507.117322 201.303541 
L 507.359157 200.930792 
L 507.859931 200.773091 
L 508.259735 200.228303 
L 508.525932 200.084938 
L 508.67934 199.841217 
L 508.911058 199.568824 
L 508.964023 199.511478 
L 509.517941 199.33944 
L 509.63733 199.081382 
L 509.820046 198.751643 
L 510.474313 197.748087 
L 510.566091 197.590385 
L 511.341233 197.246309 
L 511.40339 197.088608 
L 511.653073 196.930906 
L 511.927718 196.644176 
L 512.137618 196.429128 
L 512.767251 196.25709 
L 514.081148 195.196188 
L 514.333978 195.052823 
L 515.302993 193.920239 
L 515.853302 193.733864 
L 515.963396 193.54749 
L 516.084975 193.404125 
L 516.294448 193.189077 
L 516.465785 193.002702 
L 516.617847 192.830664 
L 516.777136 192.687299 
L 517.46966 192.400569 
L 517.951104 191.898791 
L 518.6757 191.325331 
L 519.039746 191.196302 
L 519.176896 191.024264 
L 519.363013 190.895235 
L 519.634791 190.364785 
L 519.818666 190.207083 
L 520.087836 189.920353 
L 520.749472 189.748315 
L 520.863081 189.690969 
L 521.069277 189.432911 
L 521.19803 189.318219 
L 521.364911 189.146181 
L 521.473968 188.888124 
L 521.591808 188.744759 
L 521.69276 188.644403 
L 522.163584 188.501038 
L 522.356643 188.329 
L 522.617132 188.04227 
L 523.022302 187.784213 
L 523.160271 187.698194 
L 523.937186 187.153406 
L 524.156598 187.010041 
L 524.340478 186.80933 
L 524.493478 186.579946 
L 524.662768 186.321889 
L 524.77449 186.164187 
L 524.993978 186.063832 
L 525.271363 186.006486 
L 525.643215 185.86312 
L 525.730064 185.748428 
L 525.918276 185.6194 
L 525.967091 185.504708 
L 526.191671 185.375679 
L 527.464331 184.314777 
L 527.563249 184.243095 
L 527.934072 183.913355 
L 528.047728 183.76999 
L 528.498023 183.612288 
L 528.81837 183.425914 
L 528.964415 183.253876 
L 529.346158 183.010155 
L 529.472953 182.852453 
L 530.053544 182.436695 
L 530.31677 182.307666 
L 530.507854 182.049609 
L 531.455721 181.490485 
L 531.707789 181.361456 
L 531.832403 181.203755 
L 533.04886 179.927805 
L 533.526674 179.78444 
L 533.71317 179.669748 
L 534.139687 179.311336 
L 534.36397 179.096288 
L 534.595756 179.024605 
L 535.310799 178.623183 
L 536.088354 177.791665 
L 536.627906 177.605291 
L 536.781735 177.332897 
L 537.056398 177.132186 
L 537.145347 176.974484 
L 537.264905 176.831119 
L 537.796525 176.558726 
L 538.206183 176.415361 
L 539.235838 175.297113 
L 539.791236 175.053392 
L 540.085701 174.623297 
L 540.239138 174.479932 
L 540.475688 174.207538 
L 540.585232 173.99249 
L 540.803258 173.70576 
L 541.33716 173.505049 
L 541.581208 173.246992 
L 541.987425 172.80256 
L 542.083784 172.673532 
L 542.229051 172.51583 
L 542.478999 172.329455 
L 543.009813 172.200427 
L 543.093247 172.143081 
L 543.302787 171.985379 
L 543.457201 171.784668 
L 543.900429 171.411919 
L 544.15172 171.254217 
L 544.528244 171.125188 
L 545.157732 170.236325 
L 545.256039 169.791893 
L 545.53787 169.505163 
L 545.584949 169.447817 
L 546.229183 169.232769 
L 546.606065 168.774001 
L 548.043723 167.842128 
L 548.192228 167.698763 
L 548.795069 167.024947 
L 549.352733 166.867245 
L 549.498714 166.72388 
L 550.130038 166.035727 
L 550.376639 165.720324 
L 551.201655 165.462267 
L 551.391353 165.20421 
L 551.691767 164.87447 
L 551.807328 164.731105 
L 551.920671 164.516057 
L 552.187543 164.372692 
L 552.746204 164.01428 
L 552.850183 163.813568 
L 553.026974 163.670203 
L 553.406706 163.197099 
L 554.24673 162.881695 
L 555.127442 161.806457 
L 555.637066 161.634419 
L 555.748978 161.519727 
L 556.019768 161.204324 
L 556.087384 161.103968 
L 556.233826 160.97494 
L 556.342688 160.731219 
L 556.45334 160.35847 
L 556.599922 160.215105 
L 556.730319 160.043066 
L 557.113917 159.942711 
L 557.290318 159.813682 
L 557.401382 159.670317 
L 557.627475 159.526952 
L 557.64314 159.469606 
L 557.796327 159.340577 
L 558.409274 158.681098 
L 558.96927 158.494723 
L 559.644401 157.691879 
L 559.813925 157.56285 
L 560.338733 157.261784 
L 560.481937 157.132755 
L 560.631006 156.917707 
L 560.780111 156.731333 
L 561.020542 156.559295 
L 561.340895 156.32991 
L 561.675549 156.114863 
L 562.100566 155.971498 
L 562.522678 155.613085 
L 563.067024 154.881923 
L 563.719647 154.56652 
L 563.839439 154.437491 
L 564.161549 154.165097 
L 564.352773 154.021732 
L 565.406833 153.405262 
L 565.536592 153.175878 
L 566.581412 152.086304 
L 566.906168 151.942938 
L 567.302185 151.656208 
L 567.683304 151.125757 
L 567.789431 150.953719 
L 568.182592 150.709999 
L 568.486455 150.494951 
L 568.694696 150.351586 
L 569.744424 149.692106 
L 570.112512 149.563078 
L 570.208429 149.477059 
L 570.47948 149.247675 
L 570.976276 148.803243 
L 571.670094 148.588195 
L 572.10433 148.129427 
L 572.225387 147.957389 
L 572.523767 147.570303 
L 572.719714 147.412601 
L 573.254407 147.125871 
L 573.912849 146.337363 
L 574.175082 146.165325 
L 574.323281 146.064969 
L 574.78911 145.907268 
L 574.946427 145.749566 
L 575.063593 145.606201 
L 575.484229 145.11876 
L 575.793648 144.588309 
L 577.737033 143.513071 
L 578.137765 143.384042 
L 578.720247 143.111648 
L 579.482822 142.738899 
L 579.67703 142.595534 
L 579.792286 142.466505 
L 580.294915 141.807026 
L 581.468846 140.903826 
L 581.564603 140.80347 
L 581.957725 140.402048 
L 582.125144 140.258683 
L 584.279824 139.025743 
L 584.599634 138.868042 
L 584.781976 138.782022 
L 584.952024 138.638657 
L 585.110707 138.523965 
L 586.028961 138.151216 
L 586.149894 137.993514 
L 586.3219 137.821476 
L 587.222339 137.262352 
L 587.572995 137.133324 
L 587.924132 136.803584 
L 588.03141 136.631546 
L 588.266764 136.445171 
L 588.477054 136.316143 
L 588.761244 136.101095 
L 589.171733 135.914721 
L 589.405095 135.714009 
L 589.667449 135.34126 
L 589.790817 135.226568 
L 590.833787 134.710454 
L 590.943239 134.624435 
L 591.108163 134.495406 
L 591.188254 134.352041 
L 591.54355 134.15133 
L 591.761133 133.979292 
L 592.621346 133.592206 
L 593.362986 132.732015 
L 593.468232 132.617323 
L 593.988197 132.445285 
L 594.054251 132.359266 
L 594.274042 132.215901 
L 594.38681 132.043863 
L 594.549052 131.800142 
L 594.788922 131.656777 
L 594.938915 131.513412 
L 595.471529 131.370047 
L 595.583979 131.298364 
L 596.282379 130.767914 
L 596.507091 130.481183 
L 596.715706 130.352155 
L 597.153014 130.20879 
L 597.335482 130.008079 
L 597.522474 129.850377 
L 598.069529 129.190897 
L 598.548172 128.904167 
L 598.619845 128.861158 
L 598.812294 128.732129 
L 599.373781 128.302034 
L 599.585183 128.07265 
L 600.674242 127.384497 
L 601.099327 126.940065 
L 601.356035 126.7967 
L 601.701673 126.653335 
L 601.975643 126.50997 
L 603.0835 125.721462 
L 603.504054 125.578097 
L 604.014487 125.248357 
L 604.410431 124.904281 
L 604.523149 124.732243 
L 605.091974 124.545868 
L 605.27445 124.431176 
L 605.508661 124.259138 
L 605.708099 123.986744 
L 605.888517 123.814706 
L 606.799924 123.398948 
L 607.241484 122.940179 
L 607.439845 122.811151 
L 607.762258 122.366719 
L 607.942729 122.23769 
L 608.336792 122.036979 
L 608.44123 121.907951 
L 608.781264 121.606884 
L 608.930114 121.449182 
L 609.371769 121.00475 
L 610.062876 120.76103 
L 610.197841 120.531646 
L 611.03998 119.915176 
L 611.622513 119.757474 
L 612.129094 119.341715 
L 612.410372 119.141004 
L 612.432762 119.097995 
L 613.112577 118.925956 
L 613.234999 118.753918 
L 613.324622 118.610553 
L 613.515497 118.409842 
L 613.762567 118.194794 
L 613.911968 118.065766 
L 614.149603 117.850718 
L 614.225163 117.807709 
L 614.610394 117.621334 
L 614.808207 117.363277 
L 614.990938 117.176902 
L 615.138724 117.076547 
L 615.690532 116.517423 
L 615.787126 116.359721 
L 616.181426 116.273702 
L 616.381626 116.130337 
L 616.490445 115.986972 
L 617.142422 115.399175 
L 617.27015 115.141118 
L 617.561129 115.055099 
L 617.86035 114.911734 
L 618.176039 114.596331 
L 618.514155 114.395619 
L 619.021437 114.037207 
L 619.386034 113.893842 
L 619.519956 113.779149 
L 620.06123 113.11967 
L 620.289592 112.961968 
L 620.526539 112.83294 
L 621.555641 112.144787 
L 621.675054 112.044432 
L 621.926182 111.872394 
L 622.024892 111.786375 
L 622.636364 111.6 
L 622.636364 111.6 
" style="fill:none;stroke:#92c6ff;stroke-linecap:round;stroke-width:1.5;"/>
   </g>
   <g id="line2d_30">
    <defs>
     <path d="M 0 2.5 
C 0.663008 2.5 1.29895 2.236584 1.767767 1.767767 
C 2.236584 1.29895 2.5 0.663008 2.5 0 
C 2.5 -0.663008 2.236584 -1.29895 1.767767 -1.767767 
C 1.29895 -2.236584 0.663008 -2.5 0 -2.5 
C -0.663008 -2.5 -1.29895 -2.236584 -1.767767 -1.767767 
C -2.236584 -1.29895 -2.5 -0.663008 -2.5 0 
C -2.5 0.663008 -2.236584 1.29895 -1.767767 1.767767 
C -1.29895 2.236584 -0.663008 2.5 0 2.5 
z
" id="mba11fe5e3b" style="stroke:#696969;"/>
    </defs>
    <g clip-path="url(#p5c1a10c419)">
     <use style="fill:#696969;stroke:#696969;" x="115.363636" xlink:href="#mba11fe5e3b" y="615.6"/>
    </g>
   </g>
   <g id="line2d_31">
    <g clip-path="url(#p5c1a10c419)">
     <use style="fill:#696969;stroke:#696969;" x="200.646326" xlink:href="#mba11fe5e3b" y="565.192832"/>
    </g>
   </g>
   <g id="line2d_32">
    <g clip-path="url(#p5c1a10c419)">
     <use style="fill:#696969;stroke:#696969;" x="245.126596" xlink:href="#mba11fe5e3b" y="514.785663"/>
    </g>
   </g>
   <g id="line2d_33">
    <g clip-path="url(#p5c1a10c419)">
     <use style="fill:#696969;stroke:#696969;" x="282.107411" xlink:href="#mba11fe5e3b" y="464.378495"/>
    </g>
   </g>
   <g id="line2d_34">
    <g clip-path="url(#p5c1a10c419)">
     <use style="fill:#696969;stroke:#696969;" x="310.91569" xlink:href="#mba11fe5e3b" y="413.971327"/>
    </g>
   </g>
   <g id="line2d_35">
    <g clip-path="url(#p5c1a10c419)">
     <use style="fill:#696969;stroke:#696969;" x="346.061191" xlink:href="#mba11fe5e3b" y="363.564159"/>
    </g>
   </g>
   <g id="line2d_36">
    <g clip-path="url(#p5c1a10c419)">
     <use style="fill:#696969;stroke:#696969;" x="387.351602" xlink:href="#mba11fe5e3b" y="313.15699"/>
    </g>
   </g>
   <g id="line2d_37">
    <g clip-path="url(#p5c1a10c419)">
     <use style="fill:#696969;stroke:#696969;" x="433.553279" xlink:href="#mba11fe5e3b" y="262.764159"/>
    </g>
   </g>
   <g id="line2d_38">
    <g clip-path="url(#p5c1a10c419)">
     <use style="fill:#696969;stroke:#696969;" x="492.036859" xlink:href="#mba11fe5e3b" y="212.371327"/>
    </g>
   </g>
   <g id="line2d_39">
    <g clip-path="url(#p5c1a10c419)">
     <use style="fill:#696969;stroke:#696969;" x="555.00952" xlink:href="#mba11fe5e3b" y="161.978495"/>
    </g>
   </g>
   <g id="line2d_40">
    <g clip-path="url(#p5c1a10c419)">
     <use style="fill:#696969;stroke:#696969;" x="622.636364" xlink:href="#mba11fe5e3b" y="111.6"/>
    </g>
   </g>
   <g id="patch_3">
    <path d="M 90 640.8 
L 90 86.4 
" style="fill:none;stroke:#cccccc;stroke-linecap:square;stroke-linejoin:miter;"/>
   </g>
   <g id="patch_4">
    <path d="M 648 640.8 
L 648 86.4 
" style="fill:none;stroke:#cccccc;stroke-linecap:square;stroke-linejoin:miter;"/>
   </g>
   <g id="patch_5">
    <path d="M 90 640.8 
L 648 640.8 
" style="fill:none;stroke:#cccccc;stroke-linecap:square;stroke-linejoin:miter;"/>
   </g>
   <g id="patch_6">
    <path d="M 90 86.4 
L 648 86.4 
" style="fill:none;stroke:#cccccc;stroke-linecap:square;stroke-linejoin:miter;"/>
   </g>
   <g id="text_15">
    <!-- 1 (2014-06-06) -->
    <defs>
     <path id="DejaVuSans-32"/>
     <path d="M 31 75.875 
Q 24.46875 64.65625 21.28125 53.65625 
Q 18.109375 42.671875 18.109375 31.390625 
Q 18.109375 20.125 21.3125 9.0625 
Q 24.515625 -2 31 -13.1875 
L 23.1875 -13.1875 
Q 15.875 -1.703125 12.234375 9.375 
Q 8.59375 20.453125 8.59375 31.390625 
Q 8.59375 42.28125 12.203125 53.3125 
Q 15.828125 64.359375 23.1875 75.875 
z
" id="DejaVuSans-40"/>
     <path d="M 37.796875 64.3125 
L 12.890625 25.390625 
L 37.796875 25.390625 
z
M 35.203125 72.90625 
L 47.609375 72.90625 
L 47.609375 25.390625 
L 58.015625 25.390625 
L 58.015625 17.1875 
L 47.609375 17.1875 
L 47.609375 0 
L 37.796875 0 
L 37.796875 17.1875 
L 4.890625 17.1875 
L 4.890625 26.703125 
z
" id="DejaVuSans-52"/>
     <path d="M 4.890625 31.390625 
L 31.203125 31.390625 
L 31.203125 23.390625 
L 4.890625 23.390625 
z
" id="DejaVuSans-45"/>
     <path d="M 8.015625 75.875 
L 15.828125 75.875 
Q 23.140625 64.359375 26.78125 53.3125 
Q 30.421875 42.28125 30.421875 31.390625 
Q 30.421875 20.453125 26.78125 9.375 
Q 23.140625 -1.703125 15.828125 -13.1875 
L 8.015625 -13.1875 
Q 14.5 -2 17.703125 9.0625 
Q 20.90625 20.125 20.90625 31.390625 
Q 20.90625 42.671875 17.703125 53.65625 
Q 14.5 64.65625 8.015625 75.875 
z
" id="DejaVuSans-41"/>
    </defs>
    <g style="fill:#262626;" transform="translate(120.363636 623.198437)scale(0.1 -0.1)">
     <use xlink:href="#DejaVuSans-49"/>
     <use x="63.623047" xlink:href="#DejaVuSans-32"/>
     <use x="95.410156" xlink:href="#DejaVuSans-40"/>
     <use x="134.423828" xlink:href="#DejaVuSans-50"/>
     <use x="198.046875" xlink:href="#DejaVuSans-48"/>
     <use x="261.669922" xlink:href="#DejaVuSans-49"/>
     <use x="325.292969" xlink:href="#DejaVuSans-52"/>
     <use x="388.916016" xlink:href="#DejaVuSans-45"/>
     <use x="425" xlink:href="#DejaVuSans-48"/>
     <use x="488.623047" xlink:href="#DejaVuSans-54"/>
     <use x="552.246094" xlink:href="#DejaVuSans-45"/>
     <use x="588.330078" xlink:href="#DejaVuSans-48"/>
     <use x="651.953125" xlink:href="#DejaVuSans-54"/>
     <use x="715.576172" xlink:href="#DejaVuSans-41"/>
    </g>
   </g>
   <g id="text_16">
    <!-- 3517 (2015-06-16) -->
    <g style="fill:#262626;" transform="translate(205.646326 572.791269)scale(0.1 -0.1)">
     <use xlink:href="#DejaVuSans-51"/>
     <use x="63.623047" xlink:href="#DejaVuSans-53"/>
     <use x="127.246094" xlink:href="#DejaVuSans-49"/>
     <use x="190.869141" xlink:href="#DejaVuSans-55"/>
     <use x="254.492188" xlink:href="#DejaVuSans-32"/>
     <use x="286.279297" xlink:href="#DejaVuSans-40"/>
     <use x="325.292969" xlink:href="#DejaVuSans-50"/>
     <use x="388.916016" xlink:href="#DejaVuSans-48"/>
     <use x="452.539062" xlink:href="#DejaVuSans-49"/>
     <use x="516.162109" xlink:href="#DejaVuSans-53"/>
     <use x="579.785156" xlink:href="#DejaVuSans-45"/>
     <use x="615.869141" xlink:href="#DejaVuSans-48"/>
     <use x="679.492188" xlink:href="#DejaVuSans-54"/>
     <use x="743.115234" xlink:href="#DejaVuSans-45"/>
     <use x="779.199219" xlink:href="#DejaVuSans-49"/>
     <use x="842.822266" xlink:href="#DejaVuSans-54"/>
     <use x="906.445312" xlink:href="#DejaVuSans-41"/>
    </g>
   </g>
   <g id="text_17">
    <!-- 7033 (2015-12-29) -->
    <g style="fill:#262626;" transform="translate(250.126596 522.384101)scale(0.1 -0.1)">
     <use xlink:href="#DejaVuSans-55"/>
     <use x="63.623047" xlink:href="#DejaVuSans-48"/>
     <use x="127.246094" xlink:href="#DejaVuSans-51"/>
     <use x="190.869141" xlink:href="#DejaVuSans-51"/>
     <use x="254.492188" xlink:href="#DejaVuSans-32"/>
     <use x="286.279297" xlink:href="#DejaVuSans-40"/>
     <use x="325.292969" xlink:href="#DejaVuSans-50"/>
     <use x="388.916016" xlink:href="#DejaVuSans-48"/>
     <use x="452.539062" xlink:href="#DejaVuSans-49"/>
     <use x="516.162109" xlink:href="#DejaVuSans-53"/>
     <use x="579.785156" xlink:href="#DejaVuSans-45"/>
     <use x="615.869141" xlink:href="#DejaVuSans-49"/>
     <use x="679.492188" xlink:href="#DejaVuSans-50"/>
     <use x="743.115234" xlink:href="#DejaVuSans-45"/>
     <use x="779.199219" xlink:href="#DejaVuSans-50"/>
     <use x="842.822266" xlink:href="#DejaVuSans-57"/>
     <use x="906.445312" xlink:href="#DejaVuSans-41"/>
    </g>
   </g>
   <g id="text_18">
    <!-- 10549 (2016-06-08) -->
    <g style="fill:#262626;" transform="translate(287.107411 471.976933)scale(0.1 -0.1)">
     <use xlink:href="#DejaVuSans-49"/>
     <use x="63.623047" xlink:href="#DejaVuSans-48"/>
     <use x="127.246094" xlink:href="#DejaVuSans-53"/>
     <use x="190.869141" xlink:href="#DejaVuSans-52"/>
     <use x="254.492188" xlink:href="#DejaVuSans-57"/>
     <use x="318.115234" xlink:href="#DejaVuSans-32"/>
     <use x="349.902344" xlink:href="#DejaVuSans-40"/>
     <use x="388.916016" xlink:href="#DejaVuSans-50"/>
     <use x="452.539062" xlink:href="#DejaVuSans-48"/>
     <use x="516.162109" xlink:href="#DejaVuSans-49"/>
     <use x="579.785156" xlink:href="#DejaVuSans-54"/>
     <use x="643.408203" xlink:href="#DejaVuSans-45"/>
     <use x="679.492188" xlink:href="#DejaVuSans-48"/>
     <use x="743.115234" xlink:href="#DejaVuSans-54"/>
     <use x="806.738281" xlink:href="#DejaVuSans-45"/>
     <use x="842.822266" xlink:href="#DejaVuSans-48"/>
     <use x="906.445312" xlink:href="#DejaVuSans-56"/>
     <use x="970.068359" xlink:href="#DejaVuSans-41"/>
    </g>
   </g>
   <g id="text_19">
    <!-- 14065 (2016-10-13) -->
    <g style="fill:#262626;" transform="translate(315.91569 421.569764)scale(0.1 -0.1)">
     <use xlink:href="#DejaVuSans-49"/>
     <use x="63.623047" xlink:href="#DejaVuSans-52"/>
     <use x="127.246094" xlink:href="#DejaVuSans-48"/>
     <use x="190.869141" xlink:href="#DejaVuSans-54"/>
     <use x="254.492188" xlink:href="#DejaVuSans-53"/>
     <use x="318.115234" xlink:href="#DejaVuSans-32"/>
     <use x="349.902344" xlink:href="#DejaVuSans-40"/>
     <use x="388.916016" xlink:href="#DejaVuSans-50"/>
     <use x="452.539062" xlink:href="#DejaVuSans-48"/>
     <use x="516.162109" xlink:href="#DejaVuSans-49"/>
     <use x="579.785156" xlink:href="#DejaVuSans-54"/>
     <use x="643.408203" xlink:href="#DejaVuSans-45"/>
     <use x="679.492188" xlink:href="#DejaVuSans-49"/>
     <use x="743.115234" xlink:href="#DejaVuSans-48"/>
     <use x="806.738281" xlink:href="#DejaVuSans-45"/>
     <use x="842.822266" xlink:href="#DejaVuSans-49"/>
     <use x="906.445312" xlink:href="#DejaVuSans-51"/>
     <use x="970.068359" xlink:href="#DejaVuSans-41"/>
    </g>
   </g>
   <g id="text_20">
    <!-- 17581 (2017-03-16) -->
    <g style="fill:#262626;" transform="translate(351.061191 371.162596)scale(0.1 -0.1)">
     <use xlink:href="#DejaVuSans-49"/>
     <use x="63.623047" xlink:href="#DejaVuSans-55"/>
     <use x="127.246094" xlink:href="#DejaVuSans-53"/>
     <use x="190.869141" xlink:href="#DejaVuSans-56"/>
     <use x="254.492188" xlink:href="#DejaVuSans-49"/>
     <use x="318.115234" xlink:href="#DejaVuSans-32"/>
     <use x="349.902344" xlink:href="#DejaVuSans-40"/>
     <use x="388.916016" xlink:href="#DejaVuSans-50"/>
     <use x="452.539062" xlink:href="#DejaVuSans-48"/>
     <use x="516.162109" xlink:href="#DejaVuSans-49"/>
     <use x="579.785156" xlink:href="#DejaVuSans-55"/>
     <use x="643.408203" xlink:href="#DejaVuSans-45"/>
     <use x="679.492188" xlink:href="#DejaVuSans-48"/>
     <use x="743.115234" xlink:href="#DejaVuSans-51"/>
     <use x="806.738281" xlink:href="#DejaVuSans-45"/>
     <use x="842.822266" xlink:href="#DejaVuSans-49"/>
     <use x="906.445312" xlink:href="#DejaVuSans-54"/>
     <use x="970.068359" xlink:href="#DejaVuSans-41"/>
    </g>
   </g>
   <g id="text_21">
    <!-- 21097 (2017-09-13) -->
    <g style="fill:#262626;" transform="translate(392.351602 320.755428)scale(0.1 -0.1)">
     <use xlink:href="#DejaVuSans-50"/>
     <use x="63.623047" xlink:href="#DejaVuSans-49"/>
     <use x="127.246094" xlink:href="#DejaVuSans-48"/>
     <use x="190.869141" xlink:href="#DejaVuSans-57"/>
     <use x="254.492188" xlink:href="#DejaVuSans-55"/>
     <use x="318.115234" xlink:href="#DejaVuSans-32"/>
     <use x="349.902344" xlink:href="#DejaVuSans-40"/>
     <use x="388.916016" xlink:href="#DejaVuSans-50"/>
     <use x="452.539062" xlink:href="#DejaVuSans-48"/>
     <use x="516.162109" xlink:href="#DejaVuSans-49"/>
     <use x="579.785156" xlink:href="#DejaVuSans-55"/>
     <use x="643.408203" xlink:href="#DejaVuSans-45"/>
     <use x="679.492188" xlink:href="#DejaVuSans-48"/>
     <use x="743.115234" xlink:href="#DejaVuSans-57"/>
     <use x="806.738281" xlink:href="#DejaVuSans-45"/>
     <use x="842.822266" xlink:href="#DejaVuSans-49"/>
     <use x="906.445312" xlink:href="#DejaVuSans-51"/>
     <use x="970.068359" xlink:href="#DejaVuSans-41"/>
    </g>
   </g>
   <g id="text_22">
    <!-- 24612 (2018-04-04) -->
    <g style="fill:#262626;" transform="translate(438.553279 270.362596)scale(0.1 -0.1)">
     <use xlink:href="#DejaVuSans-50"/>
     <use x="63.623047" xlink:href="#DejaVuSans-52"/>
     <use x="127.246094" xlink:href="#DejaVuSans-54"/>
     <use x="190.869141" xlink:href="#DejaVuSans-49"/>
     <use x="254.492188" xlink:href="#DejaVuSans-50"/>
     <use x="318.115234" xlink:href="#DejaVuSans-32"/>
     <use x="349.902344" xlink:href="#DejaVuSans-40"/>
     <use x="388.916016" xlink:href="#DejaVuSans-50"/>
     <use x="452.539062" xlink:href="#DejaVuSans-48"/>
     <use x="516.162109" xlink:href="#DejaVuSans-49"/>
     <use x="579.785156" xlink:href="#DejaVuSans-56"/>
     <use x="643.408203" xlink:href="#DejaVuSans-45"/>
     <use x="679.492188" xlink:href="#DejaVuSans-48"/>
     <use x="743.115234" xlink:href="#DejaVuSans-52"/>
     <use x="806.738281" xlink:href="#DejaVuSans-45"/>
     <use x="842.822266" xlink:href="#DejaVuSans-48"/>
     <use x="906.445312" xlink:href="#DejaVuSans-52"/>
     <use x="970.068359" xlink:href="#DejaVuSans-41"/>
    </g>
   </g>
   <g id="text_23">
    <!-- 28127 (2018-12-17) -->
    <g style="fill:#262626;" transform="translate(497.036859 219.969764)scale(0.1 -0.1)">
     <use xlink:href="#DejaVuSans-50"/>
     <use x="63.623047" xlink:href="#DejaVuSans-56"/>
     <use x="127.246094" xlink:href="#DejaVuSans-49"/>
     <use x="190.869141" xlink:href="#DejaVuSans-50"/>
     <use x="254.492188" xlink:href="#DejaVuSans-55"/>
     <use x="318.115234" xlink:href="#DejaVuSans-32"/>
     <use x="349.902344" xlink:href="#DejaVuSans-40"/>
     <use x="388.916016" xlink:href="#DejaVuSans-50"/>
     <use x="452.539062" xlink:href="#DejaVuSans-48"/>
     <use x="516.162109" xlink:href="#DejaVuSans-49"/>
     <use x="579.785156" xlink:href="#DejaVuSans-56"/>
     <use x="643.408203" xlink:href="#DejaVuSans-45"/>
     <use x="679.492188" xlink:href="#DejaVuSans-49"/>
     <use x="743.115234" xlink:href="#DejaVuSans-50"/>
     <use x="806.738281" xlink:href="#DejaVuSans-45"/>
     <use x="842.822266" xlink:href="#DejaVuSans-49"/>
     <use x="906.445312" xlink:href="#DejaVuSans-55"/>
     <use x="970.068359" xlink:href="#DejaVuSans-41"/>
    </g>
   </g>
   <g id="text_24">
    <!-- 31642 (2019-09-20) -->
    <g style="fill:#262626;" transform="translate(560.00952 169.576933)scale(0.1 -0.1)">
     <use xlink:href="#DejaVuSans-51"/>
     <use x="63.623047" xlink:href="#DejaVuSans-49"/>
     <use x="127.246094" xlink:href="#DejaVuSans-54"/>
     <use x="190.869141" xlink:href="#DejaVuSans-52"/>
     <use x="254.492188" xlink:href="#DejaVuSans-50"/>
     <use x="318.115234" xlink:href="#DejaVuSans-32"/>
     <use x="349.902344" xlink:href="#DejaVuSans-40"/>
     <use x="388.916016" xlink:href="#DejaVuSans-50"/>
     <use x="452.539062" xlink:href="#DejaVuSans-48"/>
     <use x="516.162109" xlink:href="#DejaVuSans-49"/>
     <use x="579.785156" xlink:href="#DejaVuSans-57"/>
     <use x="643.408203" xlink:href="#DejaVuSans-45"/>
     <use x="679.492188" xlink:href="#DejaVuSans-48"/>
     <use x="743.115234" xlink:href="#DejaVuSans-57"/>
     <use x="806.738281" xlink:href="#DejaVuSans-45"/>
     <use x="842.822266" xlink:href="#DejaVuSans-50"/>
     <use x="906.445312" xlink:href="#DejaVuSans-48"/>
     <use x="970.068359" xlink:href="#DejaVuSans-41"/>
    </g>
   </g>
   <g id="text_25">
    <!-- 35156 (2020-07-13) -->
    <g style="fill:#262626;" transform="translate(627.636364 119.198437)scale(0.1 -0.1)">
     <use xlink:href="#DejaVuSans-51"/>
     <use x="63.623047" xlink:href="#DejaVuSans-53"/>
     <use x="127.246094" xlink:href="#DejaVuSans-49"/>
     <use x="190.869141" xlink:href="#DejaVuSans-53"/>
     <use x="254.492188" xlink:href="#DejaVuSans-54"/>
     <use x="318.115234" xlink:href="#DejaVuSans-32"/>
     <use x="349.902344" xlink:href="#DejaVuSans-40"/>
     <use x="388.916016" xlink:href="#DejaVuSans-50"/>
     <use x="452.539062" xlink:href="#DejaVuSans-48"/>
     <use x="516.162109" xlink:href="#DejaVuSans-50"/>
     <use x="579.785156" xlink:href="#DejaVuSans-48"/>
     <use x="643.408203" xlink:href="#DejaVuSans-45"/>
     <use x="679.492188" xlink:href="#DejaVuSans-48"/>
     <use x="743.115234" xlink:href="#DejaVuSans-55"/>
     <use x="806.738281" xlink:href="#DejaVuSans-45"/>
     <use x="842.822266" xlink:href="#DejaVuSans-49"/>
     <use x="906.445312" xlink:href="#DejaVuSans-51"/>
     <use x="970.068359" xlink:href="#DejaVuSans-41"/>
    </g>
   </g>
   <g id="text_26">
    <!-- Created issues over time -->
    <defs>
     <path d="M 64.40625 67.28125 
L 64.40625 56.890625 
Q 59.421875 61.53125 53.78125 63.8125 
Q 48.140625 66.109375 41.796875 66.109375 
Q 29.296875 66.109375 22.65625 58.46875 
Q 16.015625 50.828125 16.015625 36.375 
Q 16.015625 21.96875 22.65625 14.328125 
Q 29.296875 6.6875 41.796875 6.6875 
Q 48.140625 6.6875 53.78125 8.984375 
Q 59.421875 11.28125 64.40625 15.921875 
L 64.40625 5.609375 
Q 59.234375 2.09375 53.4375 0.328125 
Q 47.65625 -1.421875 41.21875 -1.421875 
Q 24.65625 -1.421875 15.125 8.703125 
Q 5.609375 18.84375 5.609375 36.375 
Q 5.609375 53.953125 15.125 64.078125 
Q 24.65625 74.21875 41.21875 74.21875 
Q 47.75 74.21875 53.53125 72.484375 
Q 59.328125 70.75 64.40625 67.28125 
z
" id="DejaVuSans-67"/>
     <path d="M 41.109375 46.296875 
Q 39.59375 47.171875 37.8125 47.578125 
Q 36.03125 48 33.890625 48 
Q 26.265625 48 22.1875 43.046875 
Q 18.109375 38.09375 18.109375 28.8125 
L 18.109375 0 
L 9.078125 0 
L 9.078125 54.6875 
L 18.109375 54.6875 
L 18.109375 46.1875 
Q 20.953125 51.171875 25.484375 53.578125 
Q 30.03125 56 36.53125 56 
Q 37.453125 56 38.578125 55.875 
Q 39.703125 55.765625 41.0625 55.515625 
z
" id="DejaVuSans-114"/>
     <path d="M 56.203125 29.59375 
L 56.203125 25.203125 
L 14.890625 25.203125 
Q 15.484375 15.921875 20.484375 11.0625 
Q 25.484375 6.203125 34.421875 6.203125 
Q 39.59375 6.203125 44.453125 7.46875 
Q 49.3125 8.734375 54.109375 11.28125 
L 54.109375 2.78125 
Q 49.265625 0.734375 44.1875 -0.34375 
Q 39.109375 -1.421875 33.890625 -1.421875 
Q 20.796875 -1.421875 13.15625 6.1875 
Q 5.515625 13.8125 5.515625 26.8125 
Q 5.515625 40.234375 12.765625 48.109375 
Q 20.015625 56 32.328125 56 
Q 43.359375 56 49.78125 48.890625 
Q 56.203125 41.796875 56.203125 29.59375 
z
M 47.21875 32.234375 
Q 47.125 39.59375 43.09375 43.984375 
Q 39.0625 48.390625 32.421875 48.390625 
Q 24.90625 48.390625 20.390625 44.140625 
Q 15.875 39.890625 15.1875 32.171875 
z
" id="DejaVuSans-101"/>
     <path d="M 34.28125 27.484375 
Q 23.390625 27.484375 19.1875 25 
Q 14.984375 22.515625 14.984375 16.5 
Q 14.984375 11.71875 18.140625 8.90625 
Q 21.296875 6.109375 26.703125 6.109375 
Q 34.1875 6.109375 38.703125 11.40625 
Q 43.21875 16.703125 43.21875 25.484375 
L 43.21875 27.484375 
z
M 52.203125 31.203125 
L 52.203125 0 
L 43.21875 0 
L 43.21875 8.296875 
Q 40.140625 3.328125 35.546875 0.953125 
Q 30.953125 -1.421875 24.3125 -1.421875 
Q 15.921875 -1.421875 10.953125 3.296875 
Q 6 8.015625 6 15.921875 
Q 6 25.140625 12.171875 29.828125 
Q 18.359375 34.515625 30.609375 34.515625 
L 43.21875 34.515625 
L 43.21875 35.40625 
Q 43.21875 41.609375 39.140625 45 
Q 35.0625 48.390625 27.6875 48.390625 
Q 23 48.390625 18.546875 47.265625 
Q 14.109375 46.140625 10.015625 43.890625 
L 10.015625 52.203125 
Q 14.9375 54.109375 19.578125 55.046875 
Q 24.21875 56 28.609375 56 
Q 40.484375 56 46.34375 49.84375 
Q 52.203125 43.703125 52.203125 31.203125 
z
" id="DejaVuSans-97"/>
     <path d="M 18.3125 70.21875 
L 18.3125 54.6875 
L 36.8125 54.6875 
L 36.8125 47.703125 
L 18.3125 47.703125 
L 18.3125 18.015625 
Q 18.3125 11.328125 20.140625 9.421875 
Q 21.96875 7.515625 27.59375 7.515625 
L 36.8125 7.515625 
L 36.8125 0 
L 27.59375 0 
Q 17.1875 0 13.234375 3.875 
Q 9.28125 7.765625 9.28125 18.015625 
L 9.28125 47.703125 
L 2.6875 47.703125 
L 2.6875 54.6875 
L 9.28125 54.6875 
L 9.28125 70.21875 
z
" id="DejaVuSans-116"/>
     <path d="M 45.40625 46.390625 
L 45.40625 75.984375 
L 54.390625 75.984375 
L 54.390625 0 
L 45.40625 0 
L 45.40625 8.203125 
Q 42.578125 3.328125 38.25 0.953125 
Q 33.9375 -1.421875 27.875 -1.421875 
Q 17.96875 -1.421875 11.734375 6.484375 
Q 5.515625 14.40625 5.515625 27.296875 
Q 5.515625 40.1875 11.734375 48.09375 
Q 17.96875 56 27.875 56 
Q 33.9375 56 38.25 53.625 
Q 42.578125 51.265625 45.40625 46.390625 
z
M 14.796875 27.296875 
Q 14.796875 17.390625 18.875 11.75 
Q 22.953125 6.109375 30.078125 6.109375 
Q 37.203125 6.109375 41.296875 11.75 
Q 45.40625 17.390625 45.40625 27.296875 
Q 45.40625 37.203125 41.296875 42.84375 
Q 37.203125 48.484375 30.078125 48.484375 
Q 22.953125 48.484375 18.875 42.84375 
Q 14.796875 37.203125 14.796875 27.296875 
z
" id="DejaVuSans-100"/>
     <path d="M 9.421875 54.6875 
L 18.40625 54.6875 
L 18.40625 0 
L 9.421875 0 
z
M 9.421875 75.984375 
L 18.40625 75.984375 
L 18.40625 64.59375 
L 9.421875 64.59375 
z
" id="DejaVuSans-105"/>
     <path d="M 44.28125 53.078125 
L 44.28125 44.578125 
Q 40.484375 46.53125 36.375 47.5 
Q 32.28125 48.484375 27.875 48.484375 
Q 21.1875 48.484375 17.84375 46.4375 
Q 14.5 44.390625 14.5 40.28125 
Q 14.5 37.15625 16.890625 35.375 
Q 19.28125 33.59375 26.515625 31.984375 
L 29.59375 31.296875 
Q 39.15625 29.25 43.1875 25.515625 
Q 47.21875 21.78125 47.21875 15.09375 
Q 47.21875 7.46875 41.1875 3.015625 
Q 35.15625 -1.421875 24.609375 -1.421875 
Q 20.21875 -1.421875 15.453125 -0.5625 
Q 10.6875 0.296875 5.421875 2 
L 5.421875 11.28125 
Q 10.40625 8.6875 15.234375 7.390625 
Q 20.0625 6.109375 24.8125 6.109375 
Q 31.15625 6.109375 34.5625 8.28125 
Q 37.984375 10.453125 37.984375 14.40625 
Q 37.984375 18.0625 35.515625 20.015625 
Q 33.0625 21.96875 24.703125 23.78125 
L 21.578125 24.515625 
Q 13.234375 26.265625 9.515625 29.90625 
Q 5.8125 33.546875 5.8125 39.890625 
Q 5.8125 47.609375 11.28125 51.796875 
Q 16.75 56 26.8125 56 
Q 31.78125 56 36.171875 55.265625 
Q 40.578125 54.546875 44.28125 53.078125 
z
" id="DejaVuSans-115"/>
     <path d="M 8.5 21.578125 
L 8.5 54.6875 
L 17.484375 54.6875 
L 17.484375 21.921875 
Q 17.484375 14.15625 20.5 10.265625 
Q 23.53125 6.390625 29.59375 6.390625 
Q 36.859375 6.390625 41.078125 11.03125 
Q 45.3125 15.671875 45.3125 23.6875 
L 45.3125 54.6875 
L 54.296875 54.6875 
L 54.296875 0 
L 45.3125 0 
L 45.3125 8.40625 
Q 42.046875 3.421875 37.71875 1 
Q 33.40625 -1.421875 27.6875 -1.421875 
Q 18.265625 -1.421875 13.375 4.4375 
Q 8.5 10.296875 8.5 21.578125 
z
M 31.109375 56 
z
" id="DejaVuSans-117"/>
     <path d="M 30.609375 48.390625 
Q 23.390625 48.390625 19.1875 42.75 
Q 14.984375 37.109375 14.984375 27.296875 
Q 14.984375 17.484375 19.15625 11.84375 
Q 23.34375 6.203125 30.609375 6.203125 
Q 37.796875 6.203125 41.984375 11.859375 
Q 46.1875 17.53125 46.1875 27.296875 
Q 46.1875 37.015625 41.984375 42.703125 
Q 37.796875 48.390625 30.609375 48.390625 
z
M 30.609375 56 
Q 42.328125 56 49.015625 48.375 
Q 55.71875 40.765625 55.71875 27.296875 
Q 55.71875 13.875 49.015625 6.21875 
Q 42.328125 -1.421875 30.609375 -1.421875 
Q 18.84375 -1.421875 12.171875 6.21875 
Q 5.515625 13.875 5.515625 27.296875 
Q 5.515625 40.765625 12.171875 48.375 
Q 18.84375 56 30.609375 56 
z
" id="DejaVuSans-111"/>
     <path d="M 2.984375 54.6875 
L 12.5 54.6875 
L 29.59375 8.796875 
L 46.6875 54.6875 
L 56.203125 54.6875 
L 35.6875 0 
L 23.484375 0 
z
" id="DejaVuSans-118"/>
     <path d="M 52 44.1875 
Q 55.375 50.25 60.0625 53.125 
Q 64.75 56 71.09375 56 
Q 79.640625 56 84.28125 50.015625 
Q 88.921875 44.046875 88.921875 33.015625 
L 88.921875 0 
L 79.890625 0 
L 79.890625 32.71875 
Q 79.890625 40.578125 77.09375 44.375 
Q 74.3125 48.1875 68.609375 48.1875 
Q 61.625 48.1875 57.5625 43.546875 
Q 53.515625 38.921875 53.515625 30.90625 
L 53.515625 0 
L 44.484375 0 
L 44.484375 32.71875 
Q 44.484375 40.625 41.703125 44.40625 
Q 38.921875 48.1875 33.109375 48.1875 
Q 26.21875 48.1875 22.15625 43.53125 
Q 18.109375 38.875 18.109375 30.90625 
L 18.109375 0 
L 9.078125 0 
L 9.078125 54.6875 
L 18.109375 54.6875 
L 18.109375 46.1875 
Q 21.1875 51.21875 25.484375 53.609375 
Q 29.78125 56 35.6875 56 
Q 41.65625 56 45.828125 52.96875 
Q 50 49.953125 52 44.1875 
z
" id="DejaVuSans-109"/>
    </defs>
    <g style="fill:#262626;" transform="translate(294.061875 80.4)scale(0.12 -0.12)">
     <use xlink:href="#DejaVuSans-67"/>
     <use x="69.824219" xlink:href="#DejaVuSans-114"/>
     <use x="108.6875" xlink:href="#DejaVuSans-101"/>
     <use x="170.210938" xlink:href="#DejaVuSans-97"/>
     <use x="231.490234" xlink:href="#DejaVuSans-116"/>
     <use x="270.699219" xlink:href="#DejaVuSans-101"/>
     <use x="332.222656" xlink:href="#DejaVuSans-100"/>
     <use x="395.699219" xlink:href="#DejaVuSans-32"/>
     <use x="427.486328" xlink:href="#DejaVuSans-105"/>
     <use x="455.269531" xlink:href="#DejaVuSans-115"/>
     <use x="507.369141" xlink:href="#DejaVuSans-115"/>
     <use x="559.46875" xlink:href="#DejaVuSans-117"/>
     <use x="622.847656" xlink:href="#DejaVuSans-101"/>
     <use x="684.371094" xlink:href="#DejaVuSans-115"/>
     <use x="736.470703" xlink:href="#DejaVuSans-32"/>
     <use x="768.257812" xlink:href="#DejaVuSans-111"/>
     <use x="829.439453" xlink:href="#DejaVuSans-118"/>
     <use x="888.619141" xlink:href="#DejaVuSans-101"/>
     <use x="950.142578" xlink:href="#DejaVuSans-114"/>
     <use x="991.255859" xlink:href="#DejaVuSans-32"/>
     <use x="1023.042969" xlink:href="#DejaVuSans-116"/>
     <use x="1062.251953" xlink:href="#DejaVuSans-105"/>
     <use x="1090.035156" xlink:href="#DejaVuSans-109"/>
     <use x="1187.447266" xlink:href="#DejaVuSans-101"/>
    </g>
   </g>
  </g>
 </g>
 <defs>
  <clipPath id="p5c1a10c419">
   <rect height="554.4" width="558" x="90" y="86.4"/>
  </clipPath>
 </defs>
</svg>
