<?xml version="1.0" encoding="utf-8" standalone="no"?>
<!DOCTYPE svg PUBLIC "-//W3C//DTD SVG 1.1//EN"
  "http://www.w3.org/Graphics/SVG/1.1/DTD/svg11.dtd">
<!-- Created with matplotlib (https://matplotlib.org/) -->
<svg height="720pt" version="1.1" viewBox="0 0 720 720" width="720pt" xmlns="http://www.w3.org/2000/svg" xmlns:xlink="http://www.w3.org/1999/xlink">
 <defs>
  <style type="text/css">
*{stroke-linecap:butt;stroke-linejoin:round;}
  </style>
 </defs>
 <g id="figure_1">
  <g id="patch_1">
   <path d="M 0 720 
L 720 720 
L 720 0 
L 0 0 
z
" style="fill:#ffffff;"/>
  </g>
  <g id="axes_1">
   <g id="patch_2">
    <path d="M 90 640.8 
L 648 640.8 
L 648 86.4 
L 90 86.4 
z
" style="fill:#ffffff;"/>
   </g>
   <g id="matplotlib.axis_1">
    <g id="xtick_1">
     <g id="line2d_1">
      <path clip-path="url(#p7a39cd57f0)" d="M 164.429562 640.8 
L 164.429562 86.4 
" style="fill:none;stroke:#cccccc;stroke-linecap:round;stroke-width:0.8;"/>
     </g>
     <g id="line2d_2"/>
     <g id="text_1">
      <!-- 2015 -->
      <defs>
       <path d="M 5.03125 0 
L 5.03125 6.203125 
Q 7.515625 11.921875 11.109375 16.28125 
Q 14.703125 20.65625 18.65625 24.1875 
Q 22.609375 27.734375 26.484375 30.765625 
Q 30.375 33.796875 33.5 36.8125 
Q 36.625 39.84375 38.546875 43.15625 
Q 40.484375 46.484375 40.484375 50.6875 
Q 40.484375 53.609375 39.59375 55.828125 
Q 38.71875 58.0625 37.0625 59.5625 
Q 35.40625 61.078125 33.078125 61.828125 
Q 30.765625 62.59375 27.9375 62.59375 
Q 25.296875 62.59375 22.96875 61.859375 
Q 20.65625 61.140625 18.84375 59.671875 
Q 17.046875 58.203125 15.890625 56.03125 
Q 14.75 53.859375 14.40625 50.984375 
L 5.421875 51.8125 
Q 5.859375 55.515625 7.46875 58.78125 
Q 9.078125 62.0625 11.90625 64.53125 
Q 14.75 67 18.71875 68.40625 
Q 22.703125 69.828125 27.9375 69.828125 
Q 33.0625 69.828125 37.0625 68.609375 
Q 41.0625 67.390625 43.8125 64.984375 
Q 46.578125 62.59375 48.046875 59.078125 
Q 49.515625 55.5625 49.515625 50.984375 
Q 49.515625 47.515625 48.265625 44.390625 
Q 47.015625 41.265625 44.9375 38.421875 
Q 42.875 35.59375 40.140625 32.953125 
Q 37.40625 30.328125 34.421875 27.8125 
Q 31.453125 25.296875 28.421875 22.828125 
Q 25.390625 20.359375 22.71875 17.859375 
Q 20.0625 15.375 17.96875 12.8125 
Q 15.875 10.25 14.703125 7.46875 
L 50.59375 7.46875 
L 50.59375 0 
z
" id="LiberationSans-50"/>
       <path d="M 51.703125 34.421875 
Q 51.703125 24.515625 49.828125 17.75 
Q 47.953125 10.984375 44.703125 6.8125 
Q 41.453125 2.640625 37.0625 0.828125 
Q 32.671875 -0.984375 27.6875 -0.984375 
Q 22.65625 -0.984375 18.3125 0.828125 
Q 13.96875 2.640625 10.765625 6.78125 
Q 7.5625 10.9375 5.734375 17.703125 
Q 3.90625 24.46875 3.90625 34.421875 
Q 3.90625 44.828125 5.734375 51.640625 
Q 7.5625 58.453125 10.78125 62.5 
Q 14.015625 66.546875 18.40625 68.1875 
Q 22.796875 69.828125 27.984375 69.828125 
Q 32.90625 69.828125 37.21875 68.1875 
Q 41.546875 66.546875 44.765625 62.5 
Q 48 58.453125 49.84375 51.640625 
Q 51.703125 44.828125 51.703125 34.421875 
z
M 42.78125 34.421875 
Q 42.78125 42.625 41.796875 48.0625 
Q 40.828125 53.515625 38.921875 56.765625 
Q 37.015625 60.015625 34.25 61.359375 
Q 31.5 62.703125 27.984375 62.703125 
Q 24.265625 62.703125 21.4375 61.328125 
Q 18.609375 59.96875 16.671875 56.71875 
Q 14.75 53.46875 13.765625 48.015625 
Q 12.796875 42.578125 12.796875 34.421875 
Q 12.796875 26.515625 13.796875 21.09375 
Q 14.796875 15.671875 16.71875 12.375 
Q 18.65625 9.078125 21.4375 7.640625 
Q 24.21875 6.203125 27.78125 6.203125 
Q 31.25 6.203125 34.03125 7.640625 
Q 36.8125 9.078125 38.734375 12.375 
Q 40.671875 15.671875 41.71875 21.09375 
Q 42.78125 26.515625 42.78125 34.421875 
z
" id="LiberationSans-48"/>
       <path d="M 7.625 0 
L 7.625 7.46875 
L 25.140625 7.46875 
L 25.140625 60.40625 
L 9.625 49.3125 
L 9.625 57.625 
L 25.875 68.796875 
L 33.984375 68.796875 
L 33.984375 7.46875 
L 50.734375 7.46875 
L 50.734375 0 
z
" id="LiberationSans-49"/>
       <path d="M 51.421875 22.40625 
Q 51.421875 17.234375 49.859375 12.9375 
Q 48.296875 8.640625 45.21875 5.53125 
Q 42.140625 2.4375 37.578125 0.71875 
Q 33.015625 -0.984375 27 -0.984375 
Q 21.578125 -0.984375 17.546875 0.28125 
Q 13.53125 1.5625 10.734375 3.78125 
Q 7.953125 6 6.3125 8.984375 
Q 4.6875 11.96875 4 15.375 
L 12.890625 16.40625 
Q 13.421875 14.453125 14.390625 12.625 
Q 15.375 10.796875 17.0625 9.34375 
Q 18.75 7.90625 21.21875 7.046875 
Q 23.6875 6.203125 27.203125 6.203125 
Q 30.609375 6.203125 33.390625 7.25 
Q 36.1875 8.296875 38.15625 10.34375 
Q 40.140625 12.40625 41.203125 15.375 
Q 42.28125 18.359375 42.28125 22.21875 
Q 42.28125 25.390625 41.25 28.046875 
Q 40.234375 30.71875 38.328125 32.640625 
Q 36.421875 34.578125 33.65625 35.640625 
Q 30.90625 36.71875 27.390625 36.71875 
Q 25.203125 36.71875 23.34375 36.328125 
Q 21.484375 35.9375 19.890625 35.25 
Q 18.3125 34.578125 17.015625 33.671875 
Q 15.71875 32.765625 14.59375 31.78125 
L 6 31.78125 
L 8.296875 68.796875 
L 47.40625 68.796875 
L 47.40625 61.328125 
L 16.3125 61.328125 
L 14.984375 39.5 
Q 17.328125 41.3125 20.84375 42.59375 
Q 24.359375 43.890625 29.203125 43.890625 
Q 34.328125 43.890625 38.421875 42.328125 
Q 42.53125 40.765625 45.40625 37.90625 
Q 48.296875 35.0625 49.859375 31.109375 
Q 51.421875 27.15625 51.421875 22.40625 
z
" id="LiberationSans-53"/>
      </defs>
      <g style="fill:#262626;" transform="translate(153.307687 651.546875)scale(0.1 -0.1)">
       <use xlink:href="#LiberationSans-50"/>
       <use x="55.615234" xlink:href="#LiberationSans-48"/>
       <use x="111.230469" xlink:href="#LiberationSans-49"/>
       <use x="166.845703" xlink:href="#LiberationSans-53"/>
      </g>
     </g>
    </g>
    <g id="xtick_2">
     <g id="line2d_3">
      <path clip-path="url(#p7a39cd57f0)" d="M 250.549555 640.8 
L 250.549555 86.4 
" style="fill:none;stroke:#cccccc;stroke-linecap:round;stroke-width:0.8;"/>
     </g>
     <g id="line2d_4"/>
     <g id="text_2">
      <!-- 2016 -->
      <defs>
       <path d="M 51.21875 22.515625 
Q 51.21875 17.328125 49.78125 13 
Q 48.34375 8.6875 45.53125 5.578125 
Q 42.71875 2.484375 38.5625 0.75 
Q 34.421875 -0.984375 29 -0.984375 
Q 23 -0.984375 18.5 1.3125 
Q 14.015625 3.609375 11.03125 7.921875 
Q 8.0625 12.25 6.5625 18.53125 
Q 5.078125 24.8125 5.078125 32.8125 
Q 5.078125 42 6.765625 48.921875 
Q 8.453125 55.859375 11.625 60.5 
Q 14.796875 65.140625 19.359375 67.484375 
Q 23.921875 69.828125 29.6875 69.828125 
Q 33.203125 69.828125 36.28125 69.09375 
Q 39.359375 68.359375 41.875 66.71875 
Q 44.390625 65.09375 46.28125 62.40625 
Q 48.1875 59.71875 49.3125 55.8125 
L 40.921875 54.296875 
Q 39.546875 58.734375 36.546875 60.71875 
Q 33.546875 62.703125 29.59375 62.703125 
Q 25.984375 62.703125 23.046875 60.984375 
Q 20.125 59.28125 18.0625 55.875 
Q 16.015625 52.484375 14.90625 47.359375 
Q 13.8125 42.234375 13.8125 35.40625 
Q 16.21875 39.84375 20.5625 42.15625 
Q 24.90625 44.484375 30.515625 44.484375 
Q 35.203125 44.484375 39.015625 42.96875 
Q 42.828125 41.453125 45.53125 38.59375 
Q 48.25 35.75 49.734375 31.671875 
Q 51.21875 27.59375 51.21875 22.515625 
z
M 42.28125 22.125 
Q 42.28125 25.6875 41.40625 28.5625 
Q 40.53125 31.453125 38.765625 33.46875 
Q 37.015625 35.5 34.421875 36.59375 
Q 31.84375 37.703125 28.421875 37.703125 
Q 26.03125 37.703125 23.578125 36.984375 
Q 21.140625 36.28125 19.15625 34.6875 
Q 17.1875 33.109375 15.9375 30.515625 
Q 14.703125 27.9375 14.703125 24.21875 
Q 14.703125 20.40625 15.671875 17.109375 
Q 16.65625 13.8125 18.484375 11.375 
Q 20.3125 8.9375 22.890625 7.515625 
Q 25.484375 6.109375 28.71875 6.109375 
Q 31.890625 6.109375 34.40625 7.203125 
Q 36.921875 8.296875 38.671875 10.375 
Q 40.4375 12.453125 41.359375 15.421875 
Q 42.28125 18.40625 42.28125 22.125 
z
" id="LiberationSans-54"/>
      </defs>
      <g style="fill:#262626;" transform="translate(239.42768 651.546875)scale(0.1 -0.1)">
       <use xlink:href="#LiberationSans-50"/>
       <use x="55.615234" xlink:href="#LiberationSans-48"/>
       <use x="111.230469" xlink:href="#LiberationSans-49"/>
       <use x="166.845703" xlink:href="#LiberationSans-54"/>
      </g>
     </g>
    </g>
    <g id="xtick_3">
     <g id="line2d_5">
      <path clip-path="url(#p7a39cd57f0)" d="M 336.905493 640.8 
L 336.905493 86.4 
" style="fill:none;stroke:#cccccc;stroke-linecap:round;stroke-width:0.8;"/>
     </g>
     <g id="line2d_6"/>
     <g id="text_3">
      <!-- 2017 -->
      <defs>
       <path d="M 50.59375 61.671875 
Q 45.40625 53.765625 41.0625 46.453125 
Q 36.71875 39.15625 33.59375 31.75 
Q 30.46875 24.359375 28.734375 16.578125 
Q 27 8.796875 27 0 
L 17.828125 0 
Q 17.828125 8.25 19.78125 16.1875 
Q 21.734375 24.125 25.046875 31.765625 
Q 28.375 39.40625 32.765625 46.78125 
Q 37.15625 54.15625 42.09375 61.328125 
L 5.125 61.328125 
L 5.125 68.796875 
L 50.59375 68.796875 
z
" id="LiberationSans-55"/>
      </defs>
      <g style="fill:#262626;" transform="translate(325.783618 651.546875)scale(0.1 -0.1)">
       <use xlink:href="#LiberationSans-50"/>
       <use x="55.615234" xlink:href="#LiberationSans-48"/>
       <use x="111.230469" xlink:href="#LiberationSans-49"/>
       <use x="166.845703" xlink:href="#LiberationSans-55"/>
      </g>
     </g>
    </g>
    <g id="xtick_4">
     <g id="line2d_7">
      <path clip-path="url(#p7a39cd57f0)" d="M 423.025486 640.8 
L 423.025486 86.4 
" style="fill:none;stroke:#cccccc;stroke-linecap:round;stroke-width:0.8;"/>
     </g>
     <g id="line2d_8"/>
     <g id="text_4">
      <!-- 2018 -->
      <defs>
       <path d="M 51.265625 19.1875 
Q 51.265625 14.796875 49.875 11.109375 
Q 48.484375 7.421875 45.625 4.734375 
Q 42.78125 2.046875 38.328125 0.53125 
Q 33.890625 -0.984375 27.828125 -0.984375 
Q 21.78125 -0.984375 17.359375 0.53125 
Q 12.9375 2.046875 10.03125 4.703125 
Q 7.125 7.375 5.734375 11.0625 
Q 4.34375 14.75 4.34375 19.09375 
Q 4.34375 22.859375 5.484375 25.78125 
Q 6.640625 28.71875 8.5625 30.828125 
Q 10.5 32.953125 12.96875 34.25 
Q 15.4375 35.546875 18.0625 35.984375 
L 18.0625 36.1875 
Q 15.1875 36.859375 12.90625 38.375 
Q 10.640625 39.890625 9.09375 42.015625 
Q 7.5625 44.140625 6.75 46.71875 
Q 5.953125 49.3125 5.953125 52.203125 
Q 5.953125 55.8125 7.34375 59 
Q 8.734375 62.203125 11.46875 64.625 
Q 14.203125 67.046875 18.25 68.4375 
Q 22.3125 69.828125 27.640625 69.828125 
Q 33.25 69.828125 37.375 68.40625 
Q 41.5 67 44.203125 64.578125 
Q 46.921875 62.15625 48.234375 58.9375 
Q 49.5625 55.71875 49.5625 52.09375 
Q 49.5625 49.265625 48.75 46.671875 
Q 47.953125 44.09375 46.40625 41.96875 
Q 44.875 39.84375 42.59375 38.34375 
Q 40.328125 36.859375 37.359375 36.28125 
L 37.359375 36.078125 
Q 40.328125 35.59375 42.859375 34.296875 
Q 45.40625 33.015625 47.265625 30.890625 
Q 49.125 28.765625 50.1875 25.828125 
Q 51.265625 22.90625 51.265625 19.1875 
z
M 40.4375 51.609375 
Q 40.4375 54.203125 39.765625 56.34375 
Q 39.109375 58.5 37.59375 60.03125 
Q 36.078125 61.578125 33.640625 62.421875 
Q 31.203125 63.28125 27.640625 63.28125 
Q 24.171875 63.28125 21.78125 62.421875 
Q 19.390625 61.578125 17.84375 60.03125 
Q 16.3125 58.5 15.625 56.34375 
Q 14.9375 54.203125 14.9375 51.609375 
Q 14.9375 49.5625 15.46875 47.40625 
Q 16.015625 45.265625 17.421875 43.5 
Q 18.84375 41.75 21.328125 40.625 
Q 23.828125 39.5 27.734375 39.5 
Q 31.890625 39.5 34.40625 40.625 
Q 36.921875 41.75 38.25 43.5 
Q 39.59375 45.265625 40.015625 47.40625 
Q 40.4375 49.5625 40.4375 51.609375 
z
M 42.140625 20.015625 
Q 42.140625 22.515625 41.453125 24.828125 
Q 40.765625 27.15625 39.109375 28.9375 
Q 37.453125 30.71875 34.640625 31.8125 
Q 31.84375 32.90625 27.640625 32.90625 
Q 23.78125 32.90625 21.0625 31.8125 
Q 18.359375 30.71875 16.671875 28.90625 
Q 14.984375 27.09375 14.203125 24.71875 
Q 13.421875 22.359375 13.421875 19.828125 
Q 13.421875 16.65625 14.203125 14.03125 
Q 14.984375 11.421875 16.6875 9.546875 
Q 18.40625 7.671875 21.1875 6.640625 
Q 23.96875 5.609375 27.9375 5.609375 
Q 31.9375 5.609375 34.671875 6.640625 
Q 37.40625 7.671875 39.0625 9.546875 
Q 40.71875 11.421875 41.421875 14.078125 
Q 42.140625 16.75 42.140625 20.015625 
z
" id="LiberationSans-56"/>
      </defs>
      <g style="fill:#262626;" transform="translate(411.903611 651.546875)scale(0.1 -0.1)">
       <use xlink:href="#LiberationSans-50"/>
       <use x="55.615234" xlink:href="#LiberationSans-48"/>
       <use x="111.230469" xlink:href="#LiberationSans-49"/>
       <use x="166.845703" xlink:href="#LiberationSans-56"/>
      </g>
     </g>
    </g>
    <g id="xtick_5">
     <g id="line2d_9">
      <path clip-path="url(#p7a39cd57f0)" d="M 509.14548 640.8 
L 509.14548 86.4 
" style="fill:none;stroke:#cccccc;stroke-linecap:round;stroke-width:0.8;"/>
     </g>
     <g id="line2d_10"/>
     <g id="text_5">
      <!-- 2019 -->
      <defs>
       <path d="M 50.875 35.796875 
Q 50.875 26.609375 49.140625 19.703125 
Q 47.40625 12.796875 44.1875 8.203125 
Q 40.96875 3.609375 36.34375 1.3125 
Q 31.734375 -0.984375 25.984375 -0.984375 
Q 22.015625 -0.984375 18.84375 -0.171875 
Q 15.671875 0.640625 13.171875 2.34375 
Q 10.6875 4.046875 8.921875 6.78125 
Q 7.171875 9.515625 6.109375 13.375 
L 14.5 14.703125 
Q 15.875 10.25 18.78125 8.171875 
Q 21.6875 6.109375 26.125 6.109375 
Q 29.6875 6.109375 32.640625 7.78125 
Q 35.59375 9.46875 37.671875 12.84375 
Q 39.75 16.21875 40.921875 21.296875 
Q 42.09375 26.375 42.1875 33.203125 
Q 41.15625 30.90625 39.375 29.09375 
Q 37.59375 27.296875 35.328125 26.046875 
Q 33.0625 24.8125 30.421875 24.140625 
Q 27.78125 23.484375 25.09375 23.484375 
Q 20.40625 23.484375 16.625 25.171875 
Q 12.84375 26.859375 10.203125 29.875 
Q 7.5625 32.90625 6.125 37.171875 
Q 4.6875 41.453125 4.6875 46.6875 
Q 4.6875 52 6.21875 56.296875 
Q 7.765625 60.59375 10.6875 63.59375 
Q 13.625 66.609375 17.890625 68.21875 
Q 22.171875 69.828125 27.59375 69.828125 
Q 39.0625 69.828125 44.96875 61.328125 
Q 50.875 52.828125 50.875 35.796875 
z
M 41.3125 44.28125 
Q 41.3125 48.09375 40.40625 51.453125 
Q 39.5 54.828125 37.71875 57.3125 
Q 35.9375 59.8125 33.328125 61.25 
Q 30.71875 62.703125 27.296875 62.703125 
Q 24.125 62.703125 21.578125 61.578125 
Q 19.046875 60.453125 17.28125 58.375 
Q 15.53125 56.296875 14.578125 53.3125 
Q 13.625 50.34375 13.625 46.6875 
Q 13.625 43.21875 14.46875 40.234375 
Q 15.328125 37.25 17.03125 35.078125 
Q 18.75 32.90625 21.28125 31.65625 
Q 23.828125 30.421875 27.203125 30.421875 
Q 29.640625 30.421875 32.15625 31.25 
Q 34.671875 32.078125 36.6875 33.78125 
Q 38.71875 35.5 40.015625 38.109375 
Q 41.3125 40.71875 41.3125 44.28125 
z
" id="LiberationSans-57"/>
      </defs>
      <g style="fill:#262626;" transform="translate(498.023605 651.546875)scale(0.1 -0.1)">
       <use xlink:href="#LiberationSans-50"/>
       <use x="55.615234" xlink:href="#LiberationSans-48"/>
       <use x="111.230469" xlink:href="#LiberationSans-49"/>
       <use x="166.845703" xlink:href="#LiberationSans-57"/>
      </g>
     </g>
    </g>
    <g id="xtick_6">
     <g id="line2d_11">
      <path clip-path="url(#p7a39cd57f0)" d="M 595.265473 640.8 
L 595.265473 86.4 
" style="fill:none;stroke:#cccccc;stroke-linecap:round;stroke-width:0.8;"/>
     </g>
     <g id="line2d_12"/>
     <g id="text_6">
      <!-- 2020 -->
      <g style="fill:#262626;" transform="translate(584.143598 651.546875)scale(0.1 -0.1)">
       <use xlink:href="#LiberationSans-50"/>
       <use x="55.615234" xlink:href="#LiberationSans-48"/>
       <use x="111.230469" xlink:href="#LiberationSans-50"/>
       <use x="166.845703" xlink:href="#LiberationSans-48"/>
      </g>
     </g>
    </g>
   </g>
   <g id="matplotlib.axis_2">
    <g id="ytick_1">
     <g id="line2d_13">
      <path clip-path="url(#p7a39cd57f0)" d="M 90 615.609069 
L 648 615.609069 
" style="fill:none;stroke:#cccccc;stroke-linecap:round;stroke-width:0.8;"/>
     </g>
     <g id="line2d_14"/>
     <g id="text_7">
      <!-- 0 -->
      <g style="fill:#262626;" transform="translate(80.939063 619.232507)scale(0.1 -0.1)">
       <use xlink:href="#LiberationSans-48"/>
      </g>
     </g>
    </g>
    <g id="ytick_2">
     <g id="line2d_15">
      <path clip-path="url(#p7a39cd57f0)" d="M 90 524.915914 
L 648 524.915914 
" style="fill:none;stroke:#cccccc;stroke-linecap:round;stroke-width:0.8;"/>
     </g>
     <g id="line2d_16"/>
     <g id="text_8">
      <!-- 10000 -->
      <g style="fill:#262626;" transform="translate(58.695312 528.539352)scale(0.1 -0.1)">
       <use xlink:href="#LiberationSans-49"/>
       <use x="55.615234" xlink:href="#LiberationSans-48"/>
       <use x="111.230469" xlink:href="#LiberationSans-48"/>
       <use x="166.845703" xlink:href="#LiberationSans-48"/>
       <use x="222.460938" xlink:href="#LiberationSans-48"/>
      </g>
     </g>
    </g>
    <g id="ytick_3">
     <g id="line2d_17">
      <path clip-path="url(#p7a39cd57f0)" d="M 90 434.22276 
L 648 434.22276 
" style="fill:none;stroke:#cccccc;stroke-linecap:round;stroke-width:0.8;"/>
     </g>
     <g id="line2d_18"/>
     <g id="text_9">
      <!-- 20000 -->
      <g style="fill:#262626;" transform="translate(58.695312 437.846197)scale(0.1 -0.1)">
       <use xlink:href="#LiberationSans-50"/>
       <use x="55.615234" xlink:href="#LiberationSans-48"/>
       <use x="111.230469" xlink:href="#LiberationSans-48"/>
       <use x="166.845703" xlink:href="#LiberationSans-48"/>
       <use x="222.460938" xlink:href="#LiberationSans-48"/>
      </g>
     </g>
    </g>
    <g id="ytick_4">
     <g id="line2d_19">
      <path clip-path="url(#p7a39cd57f0)" d="M 90 343.529605 
L 648 343.529605 
" style="fill:none;stroke:#cccccc;stroke-linecap:round;stroke-width:0.8;"/>
     </g>
     <g id="line2d_20"/>
     <g id="text_10">
      <!-- 30000 -->
      <defs>
       <path d="M 51.21875 19 
Q 51.21875 14.265625 49.671875 10.546875 
Q 48.140625 6.84375 45.1875 4.265625 
Q 42.234375 1.703125 37.859375 0.359375 
Q 33.5 -0.984375 27.875 -0.984375 
Q 21.484375 -0.984375 17.109375 0.609375 
Q 12.75 2.203125 9.90625 4.8125 
Q 7.078125 7.421875 5.65625 10.765625 
Q 4.25 14.109375 3.8125 17.671875 
L 12.890625 18.5 
Q 13.28125 15.765625 14.328125 13.515625 
Q 15.375 11.28125 17.1875 9.671875 
Q 19 8.0625 21.625 7.171875 
Q 24.265625 6.296875 27.875 6.296875 
Q 34.515625 6.296875 38.296875 9.5625 
Q 42.09375 12.84375 42.09375 19.28125 
Q 42.09375 23.09375 40.40625 25.40625 
Q 38.71875 27.734375 36.203125 29.03125 
Q 33.6875 30.328125 30.734375 30.765625 
Q 27.78125 31.203125 25.296875 31.203125 
L 20.3125 31.203125 
L 20.3125 38.8125 
L 25.09375 38.8125 
Q 27.59375 38.8125 30.265625 39.328125 
Q 32.953125 39.84375 35.171875 41.1875 
Q 37.40625 42.53125 38.84375 44.828125 
Q 40.28125 47.125 40.28125 50.6875 
Q 40.28125 56.203125 37.03125 59.390625 
Q 33.796875 62.59375 27.390625 62.59375 
Q 21.578125 62.59375 17.984375 59.609375 
Q 14.40625 56.640625 13.8125 51.21875 
L 4.984375 51.90625 
Q 5.515625 56.453125 7.46875 59.8125 
Q 9.421875 63.1875 12.421875 65.40625 
Q 15.4375 67.625 19.28125 68.71875 
Q 23.140625 69.828125 27.484375 69.828125 
Q 33.25 69.828125 37.390625 68.375 
Q 41.546875 66.9375 44.1875 64.46875 
Q 46.828125 62.015625 48.0625 58.6875 
Q 49.3125 55.375 49.3125 51.609375 
Q 49.3125 48.578125 48.484375 45.9375 
Q 47.65625 43.3125 45.890625 41.203125 
Q 44.140625 39.109375 41.421875 37.59375 
Q 38.71875 36.078125 34.90625 35.296875 
L 34.90625 35.109375 
Q 39.0625 34.671875 42.140625 33.21875 
Q 45.21875 31.78125 47.21875 29.625 
Q 49.21875 27.484375 50.21875 24.75 
Q 51.21875 22.015625 51.21875 19 
z
" id="LiberationSans-51"/>
      </defs>
      <g style="fill:#262626;" transform="translate(58.695312 347.153042)scale(0.1 -0.1)">
       <use xlink:href="#LiberationSans-51"/>
       <use x="55.615234" xlink:href="#LiberationSans-48"/>
       <use x="111.230469" xlink:href="#LiberationSans-48"/>
       <use x="166.845703" xlink:href="#LiberationSans-48"/>
       <use x="222.460938" xlink:href="#LiberationSans-48"/>
      </g>
     </g>
    </g>
    <g id="ytick_5">
     <g id="line2d_21">
      <path clip-path="url(#p7a39cd57f0)" d="M 90 252.83645 
L 648 252.83645 
" style="fill:none;stroke:#cccccc;stroke-linecap:round;stroke-width:0.8;"/>
     </g>
     <g id="line2d_22"/>
     <g id="text_11">
      <!-- 40000 -->
      <defs>
       <path d="M 43.015625 15.578125 
L 43.015625 0 
L 34.71875 0 
L 34.71875 15.578125 
L 2.296875 15.578125 
L 2.296875 22.40625 
L 33.796875 68.796875 
L 43.015625 68.796875 
L 43.015625 22.515625 
L 52.6875 22.515625 
L 52.6875 15.578125 
z
M 34.71875 58.890625 
Q 34.625 58.640625 34.234375 57.9375 
Q 33.84375 57.234375 33.34375 56.34375 
Q 32.859375 55.46875 32.34375 54.5625 
Q 31.84375 53.65625 31.453125 53.078125 
L 13.8125 27.09375 
Q 13.578125 26.703125 13.109375 26.0625 
Q 12.640625 25.4375 12.15625 24.78125 
Q 11.671875 24.125 11.171875 23.484375 
Q 10.6875 22.859375 10.40625 22.515625 
L 34.71875 22.515625 
z
" id="LiberationSans-52"/>
      </defs>
      <g style="fill:#262626;" transform="translate(58.695312 256.459888)scale(0.1 -0.1)">
       <use xlink:href="#LiberationSans-52"/>
       <use x="55.615234" xlink:href="#LiberationSans-48"/>
       <use x="111.230469" xlink:href="#LiberationSans-48"/>
       <use x="166.845703" xlink:href="#LiberationSans-48"/>
       <use x="222.460938" xlink:href="#LiberationSans-48"/>
      </g>
     </g>
    </g>
    <g id="ytick_6">
     <g id="line2d_23">
      <path clip-path="url(#p7a39cd57f0)" d="M 90 162.143295 
L 648 162.143295 
" style="fill:none;stroke:#cccccc;stroke-linecap:round;stroke-width:0.8;"/>
     </g>
     <g id="line2d_24"/>
     <g id="text_12">
      <!-- 50000 -->
      <g style="fill:#262626;" transform="translate(58.695312 165.766733)scale(0.1 -0.1)">
       <use xlink:href="#LiberationSans-53"/>
       <use x="55.615234" xlink:href="#LiberationSans-48"/>
       <use x="111.230469" xlink:href="#LiberationSans-48"/>
       <use x="166.845703" xlink:href="#LiberationSans-48"/>
       <use x="222.460938" xlink:href="#LiberationSans-48"/>
      </g>
     </g>
    </g>
   </g>
   <g id="line2d_25">
    <path clip-path="url(#p7a39cd57f0)" d="M 115.363636 615.6 
L 116.353189 615.237227 
L 116.553311 615.137465 
L 116.741199 615.019564 
L 116.81835 614.93794 
L 117.527254 614.783762 
L 117.653596 614.747484 
L 118.400278 614.466336 
L 118.866729 614.321227 
L 119.530245 614.185187 
L 119.860416 613.976593 
L 120.306044 613.840553 
L 120.374525 613.795206 
L 121.008636 613.641028 
L 121.066191 613.604751 
L 121.237724 613.486849 
L 121.346843 613.432434 
L 123.330383 613.0878 
L 123.433696 613.033384 
L 123.667613 612.879205 
L 123.78857 612.797582 
L 124.613687 612.452948 
L 124.794428 612.371324 
L 125.226306 612.244353 
L 125.328096 612.171799 
L 125.75807 612.035759 
L 127.175241 611.518808 
L 127.352921 611.437184 
L 127.835459 611.192313 
L 127.921289 611.146966 
L 128.275546 610.947441 
L 128.459162 610.883956 
L 132.074528 609.623321 
L 132.56267 609.50542 
L 132.628355 609.451004 
L 133.023142 609.314964 
L 133.258683 609.197063 
L 133.703208 609.088231 
L 134.216517 608.97033 
L 134.28197 608.915914 
L 134.651303 608.779875 
L 135.242332 608.362686 
L 136.091962 608.235716 
L 136.870969 607.900151 
L 137.535761 607.78225 
L 137.757074 607.619002 
L 137.858828 607.564586 
L 138.221449 607.419477 
L 138.283636 607.374131 
L 139.405192 607.156467 
L 140.071213 606.875319 
L 141.293119 606.512546 
L 141.368524 606.449061 
L 141.751159 606.313021 
L 141.936166 606.240466 
L 142.916207 606.05908 
L 143.260539 605.805139 
L 144.093483 605.614684 
L 144.205713 605.487713 
L 145.304578 604.789376 
L 145.901773 604.653336 
L 146.022955 604.517296 
L 146.123625 604.490089 
L 146.406647 604.33591 
L 146.604611 604.190801 
L 146.698329 604.054761 
L 146.907416 603.93686 
L 147.464842 603.80989 
L 148.388289 603.374563 
L 149.078407 603.256662 
L 149.19177 603.156899 
L 149.477796 603.020859 
L 149.86068 602.775988 
L 150.323913 602.630879 
L 150.340752 602.61274 
L 150.762476 602.4767 
L 150.807139 602.431354 
L 151.199748 602.277176 
L 151.719106 601.887195 
L 152.374446 601.769294 
L 152.474354 601.642323 
L 152.627997 601.515353 
L 152.738097 601.406521 
L 153.045735 601.243274 
L 153.346336 601.034679 
L 153.498769 600.989333 
L 154.024356 600.826085 
L 155.375595 600.10054 
L 155.926817 599.774044 
L 155.976655 599.719629 
L 156.422662 599.556381 
L 156.507911 599.520104 
L 157.291107 599.338717 
L 157.419293 599.220816 
L 157.640964 599.075707 
L 157.78305 599.021291 
L 158.266066 598.876182 
L 158.341994 598.830836 
L 159.005489 598.685727 
L 159.140426 598.622241 
L 159.442217 598.449924 
L 159.938778 598.041805 
L 160.008182 597.987389 
L 160.608761 597.85135 
L 160.724044 597.742518 
L 160.891854 597.615547 
L 160.941635 597.597409 
L 161.18695 597.470438 
L 161.374452 597.31626 
L 161.516964 597.270913 
L 162.958794 596.862794 
L 164.181102 596.735824 
L 164.202384 596.708616 
L 165.61356 596.463744 
L 165.677148 596.373051 
L 165.919715 596.237011 
L 166.566869 595.556813 
L 167.494229 595.266595 
L 167.559537 595.19404 
L 167.713573 595.06707 
L 167.811813 594.813129 
L 167.955275 594.686158 
L 168.084417 594.577327 
L 168.212078 594.432218 
L 168.25587 594.39594 
L 168.961898 594.241762 
L 169.153008 594.114792 
L 169.279556 593.996891 
L 169.569217 593.770158 
L 169.70716 593.543425 
L 169.867646 593.407385 
L 170.000679 593.352969 
L 170.56978 593.180652 
L 170.813431 592.962989 
L 171.045362 592.67277 
L 171.116435 592.591147 
L 171.272984 592.464176 
L 171.324182 592.400691 
L 171.501176 592.273721 
L 171.532477 592.183027 
L 172.198383 592.037918 
L 172.301369 591.947225 
L 172.416198 591.811185 
L 172.557047 591.638868 
L 172.682797 591.511898 
L 172.829179 591.321442 
L 172.935581 591.140056 
L 172.986885 591.067502 
L 173.165477 590.940531 
L 173.221228 590.895185 
L 173.871284 590.750076 
L 174.045272 590.586828 
L 174.897826 589.616411 
L 175.512455 589.480371 
L 175.637246 589.389678 
L 175.754831 589.190153 
L 176.054315 588.827381 
L 176.18438 588.655064 
L 176.301276 588.364846 
L 176.440309 588.210667 
L 176.580754 588.110905 
L 177.109713 587.91138 
L 177.221001 587.666508 
L 177.463795 587.584884 
L 177.647865 587.439775 
L 177.86866 587.231181 
L 178.063694 587.077003 
L 178.163823 586.98631 
L 178.785954 586.841201 
L 178.920112 586.71423 
L 179.281127 586.179141 
L 179.354516 585.952408 
L 179.529815 585.825437 
L 179.703532 585.680328 
L 179.960081 585.453595 
L 180.432335 585.290348 
L 180.760149 584.700842 
L 180.881734 584.564802 
L 180.994718 584.283654 
L 181.104167 584.147614 
L 181.244803 583.866465 
L 181.356683 583.712287 
L 181.521602 583.503693 
L 181.605045 583.476485 
L 182.048622 583.340445 
L 182.285783 583.050227 
L 182.401675 582.841632 
L 182.573838 582.696523 
L 183.079468 582.052602 
L 183.106645 582.007255 
L 183.634881 581.862146 
L 183.725671 581.726107 
L 184.016487 581.272641 
L 184.267422 580.801036 
L 184.696334 580.09363 
L 184.735112 579.894105 
L 185.343927 579.739927 
L 185.447809 579.476916 
L 185.641341 579.232045 
L 185.760417 578.978104 
L 185.861431 578.842064 
L 185.910914 578.642539 
L 186.183794 578.198143 
L 186.559198 577.953271 
L 187.02874 577.808162 
L 187.216335 577.554222 
L 187.315517 577.409113 
L 187.889145 576.719845 
L 187.983299 576.592874 
L 188.084504 576.402418 
L 188.721586 575.967091 
L 188.851515 575.876398 
L 188.928399 575.731289 
L 189.090936 575.522695 
L 189.419545 575.078298 
L 189.610057 574.724595 
L 189.997414 574.452516 
L 190.335957 574.325545 
L 190.944794 573.282574 
L 191.046657 573.137465 
L 191.34391 572.702138 
L 192.000829 572.40285 
L 192.332337 571.767998 
L 192.491125 571.604751 
L 192.817092 570.997106 
L 192.922296 570.870136 
L 192.985949 570.697819 
L 193.085469 570.652472 
L 193.610185 570.498294 
L 193.872693 570.01762 
L 194.005254 569.781818 
L 194.155287 569.582293 
L 194.505813 569.083481 
L 194.580753 568.95651 
L 194.673042 568.766055 
L 194.907346 568.639084 
L 195.018125 568.557461 
L 195.269541 568.421421 
L 195.401924 568.131203 
L 195.560283 567.940747 
L 195.754282 567.668668 
L 195.832158 567.496351 
L 196.313565 566.743597 
L 196.857203 566.58035 
L 197.505793 565.401339 
L 197.688722 565.192745 
L 197.82259 565.083913 
L 197.922496 564.911596 
L 198.07199 564.793695 
L 198.501703 564.59417 
L 198.602627 564.512546 
L 198.826777 564.358368 
L 198.979612 564.140704 
L 199.318237 563.614684 
L 199.42565 563.315396 
L 199.960975 562.988901 
L 200.243426 562.86193 
L 200.540903 562.390326 
L 200.676148 562.20894 
L 201.301963 561.28387 
L 201.787439 561.129691 
L 202.172199 560.458562 
L 202.28288 560.22276 
L 202.396579 559.878126 
L 202.490272 559.651393 
L 202.618277 559.488145 
L 202.731564 559.333967 
L 202.89693 559.007471 
L 203.567211 558.88957 
L 203.660609 558.680976 
L 203.749244 558.554006 
L 203.870963 558.200302 
L 204.01572 558.073332 
L 204.133573 557.728698 
L 204.2474 557.57452 
L 204.401149 557.329648 
L 204.49092 557.17547 
L 204.61773 557.003153 
L 205.182076 556.867113 
L 205.871068 556.005528 
L 206.11005 555.760656 
L 206.289134 555.570201 
L 206.422743 555.524854 
L 206.834828 555.388815 
L 207.103503 554.899071 
L 207.247445 554.645131 
L 207.342596 554.500022 
L 207.432032 554.345843 
L 207.692478 554.173526 
L 207.779491 554.100972 
L 208.452271 553.883308 
L 208.701914 553.402634 
L 208.758917 553.19404 
L 208.884861 552.876614 
L 208.972647 552.731505 
L 209.072842 552.522911 
L 209.204095 552.368732 
L 209.293229 552.096653 
L 209.43436 551.951544 
L 209.581151 551.670395 
L 210.182281 551.198791 
L 210.356422 551.008335 
L 210.414209 550.863226 
L 210.609599 550.509523 
L 211.198189 549.412136 
L 211.370702 549.294235 
L 211.471023 549.022155 
L 211.694925 548.895185 
L 211.833458 548.577759 
L 211.927943 548.251263 
L 212.290241 548.042669 
L 212.374985 547.870352 
L 212.4806 547.752451 
L 212.751145 547.380609 
L 213.002585 547.117599 
L 213.654679 546.83645 
L 213.828984 546.57344 
L 214.039016 546.392054 
L 214.174905 546.228806 
L 214.335075 545.983934 
L 214.448086 545.829756 
L 214.499322 545.77534 
L 215.117616 545.630231 
L 215.263336 545.412567 
L 215.375629 545.24025 
L 215.657919 544.659814 
L 215.831142 544.460289 
L 216.082287 544.097517 
L 216.256278 543.997754 
L 216.748756 543.761952 
L 216.905157 543.471734 
L 217.003604 543.335694 
L 217.706071 542.256446 
L 217.948188 542.111337 
L 218.357613 541.984366 
L 218.862669 541.186266 
L 218.98612 540.914187 
L 219.194273 540.651177 
L 219.333981 540.496998 
L 219.412361 540.34282 
L 219.996965 540.20678 
L 220.204315 539.898424 
L 220.322299 539.744245 
L 220.446872 539.535651 
L 220.833543 539.027769 
L 221.026685 538.773829 
L 221.223391 538.637789 
L 221.735335 538.411056 
L 221.858059 538.238739 
L 221.972309 538.057353 
L 222.339794 537.549471 
L 222.542445 537.386223 
L 222.658457 537.268322 
L 223.310105 537.041589 
L 223.758294 536.542777 
L 223.873255 536.252559 
L 224.022861 536.089311 
L 224.223723 535.753746 
L 224.697525 535.527014 
L 224.9717 535.400043 
L 225.547275 534.402418 
L 225.703769 534.24824 
L 225.811646 534.094062 
L 225.990328 533.785705 
L 226.090077 533.658735 
L 226.637273 533.350378 
L 226.714748 533.18713 
L 226.822463 533.005744 
L 227.654738 531.672555 
L 227.748941 531.527445 
L 228.311957 531.246297 
L 228.321791 531.191881 
L 228.487739 531.07398 
L 228.610963 530.8019 
L 228.770507 530.53889 
L 228.885785 530.284949 
L 229.015833 530.14891 
L 229.360217 529.396156 
L 229.926579 529.232909 
L 230.072665 528.924552 
L 230.179319 528.761304 
L 231.178645 527.047204 
L 231.532497 526.883956 
L 231.70841 526.521183 
L 231.846807 526.385144 
L 232.733879 525.024746 
L 233.2245 524.888707 
L 233.280736 524.743597 
L 233.397682 524.426171 
L 233.550385 524.099676 
L 233.651804 523.836666 
L 233.760155 523.673418 
L 233.904961 523.428547 
L 234.121933 523.111121 
L 234.283375 522.675794 
L 234.874016 522.430922 
L 235.084507 521.850486 
L 235.193624 521.641892 
L 235.653266 520.762168 
L 235.935526 520.109177 
L 236.22123 520.054761 
L 236.578848 519.927791 
L 236.72408 519.646642 
L 237.547109 518.34973 
L 237.616852 518.249968 
L 238.122028 518.095789 
L 238.290254 517.923472 
L 238.414327 517.796502 
L 238.587802 517.569769 
L 238.877165 517.28862 
L 239.000624 517.116303 
L 239.172301 516.925848 
L 239.469338 516.563075 
L 239.855819 516.408897 
L 239.972101 516.22751 
L 240.132806 516.037055 
L 240.346885 515.710559 
L 241.090754 514.830836 
L 241.465626 514.694796 
L 241.569556 514.558756 
L 241.739986 514.313885 
L 241.833853 514.168776 
L 242.795698 513.31626 
L 243.111679 513.171151 
L 243.170611 513.035111 
L 243.268446 512.753962 
L 243.42869 512.599784 
L 243.544712 512.39119 
L 243.710756 512.11911 
L 244.437 511.339149 
L 244.723706 511.212179 
L 245.056408 510.704297 
L 245.698829 509.525286 
L 245.814005 509.389246 
L 245.908766 509.298553 
L 246.325788 509.20786 
L 246.488527 509.07182 
L 246.749006 508.736256 
L 247.248178 507.992572 
L 247.446525 507.7477 
L 247.790863 507.62073 
L 248.088083 507.48469 
L 248.760685 506.95867 
L 249.995085 506.468927 
L 250.090788 506.43265 
L 250.38177 506.278471 
L 250.674637 506.224055 
L 251.404169 506.078946 
L 251.819548 505.670827 
L 251.957625 505.534787 
L 252.111049 505.425956 
L 252.200913 505.289916 
L 252.349062 505.162945 
L 252.578589 504.97249 
L 253.094493 504.763895 
L 253.266902 504.500885 
L 253.337584 504.346707 
L 253.536625 504.138113 
L 253.829549 503.820687 
L 253.829743 503.811617 
L 254.090282 503.693716 
L 254.189489 503.548607 
L 254.749828 503.330944 
L 255.04107 503.067933 
L 255.175772 502.968171 
L 255.318576 502.705161 
L 255.514938 502.32425 
L 255.714164 502.061239 
L 256.064338 501.78916 
L 256.387367 501.634982 
L 256.450275 501.453595 
L 256.603675 501.281278 
L 256.789962 500.945714 
L 256.882415 500.809674 
L 257.12965 500.510387 
L 257.241136 500.310862 
L 257.538138 500.020643 
L 257.979071 499.821119 
L 258.08815 499.639732 
L 258.162737 499.494623 
L 258.281013 499.367653 
L 258.472535 499.104643 
L 258.54939 498.950464 
L 258.662837 498.723731 
L 258.761096 498.587692 
L 258.918281 498.34282 
L 258.970904 498.197711 
L 259.058127 497.970978 
L 259.664556 497.726107 
L 259.904704 497.181948 
L 260.006764 496.964284 
L 260.651648 495.885036 
L 260.758126 495.612956 
L 261.258969 495.485986 
L 261.377963 495.286461 
L 261.54627 495.141352 
L 261.897613 494.379529 
L 262.059809 494.252559 
L 262.760727 493.517944 
L 263.027479 493.209588 
L 263.388298 492.484042 
L 263.479686 492.293587 
L 263.599411 492.030577 
L 263.755679 491.740358 
L 263.915054 491.531764 
L 264.008186 491.341309 
L 264.032098 491.241546 
L 264.386332 491.105506 
L 264.672768 490.869704 
L 265.56052 489.173742 
L 265.611988 489.037702 
L 265.878871 488.774692 
L 266.317139 488.484474 
L 266.402888 488.366573 
L 266.60603 488.212395 
L 266.694963 488.112632 
L 266.914758 487.940315 
L 267.467531 487.223839 
L 267.92791 487.033384 
L 268.174413 486.797582 
L 268.409214 486.480155 
L 268.623192 486.108314 
L 269.233294 485.564155 
L 269.608108 485.419046 
L 269.712579 485.273937 
L 270.125734 484.983718 
L 270.246539 484.893025 
L 270.351007 484.729778 
L 270.472126 484.620946 
L 270.595448 484.475837 
L 270.633803 484.439559 
L 271.305493 484.258173 
L 271.335011 484.221896 
L 271.506456 484.103995 
L 271.569323 483.995163 
L 271.788413 483.868193 
L 272.211935 483.460073 
L 272.362915 483.305895 
L 272.897834 483.133578 
L 273.412462 482.544073 
L 273.708038 482.099676 
L 273.868958 481.954567 
L 273.957604 481.854805 
L 274.604823 481.691557 
L 274.855387 481.437616 
L 275.331221 480.766487 
L 275.441033 480.703002 
L 275.565041 480.548823 
L 275.650031 480.485338 
L 276.281951 480.204189 
L 276.601843 479.750723 
L 276.703441 479.596545 
L 276.80611 479.433297 
L 277.141941 479.242842 
L 277.25833 479.088663 
L 277.883514 478.898208 
L 278.15422 478.490089 
L 279.161561 477.483395 
L 279.513111 477.347355 
L 279.640994 477.211315 
L 279.743172 477.075275 
L 279.870915 476.88482 
L 280.015601 476.694364 
L 280.133688 476.540186 
L 280.319454 476.286245 
L 280.519396 476.041373 
L 280.82113 475.859987 
L 281.116949 475.733017 
L 281.355887 475.479076 
L 281.44772 475.333967 
L 281.578615 475.179788 
L 282.345259 474.408897 
L 282.751757 474.245649 
L 283.037324 473.656143 
L 283.141135 473.483826 
L 283.478495 473.148262 
L 283.848948 472.50434 
L 284.504625 471.914835 
L 284.616841 471.769726 
L 284.706369 471.57927 
L 284.81882 471.361607 
L 285.141147 470.953487 
L 285.797034 470.345843 
L 286.277338 470.110041 
L 286.391353 469.901447 
L 286.591707 469.620298 
L 287.309489 468.622673 
L 287.674122 468.477564 
L 288.13022 467.688534 
L 288.265935 467.461801 
L 288.345741 467.271345 
L 288.476052 467.135306 
L 288.633469 466.926711 
L 288.757793 466.745325 
L 288.825177 466.609285 
L 289.366229 466.455107 
L 289.607469 466.074196 
L 289.717651 465.901879 
L 289.898911 465.638868 
L 290.029803 465.330512 
L 290.182403 465.058432 
L 290.469909 464.768214 
L 290.969247 464.623105 
L 291.077113 464.541481 
L 291.21126 464.378234 
L 291.329214 464.169639 
L 291.861909 463.090391 
L 292.03603 462.890866 
L 292.077867 462.736688 
L 292.658672 462.564371 
L 292.977717 462.201598 
L 294.072112 461.167696 
L 294.427616 461.004448 
L 294.93645 460.569121 
L 295.123297 460.251695 
L 295.325237 460.006824 
L 295.462028 459.888922 
L 295.956421 459.716605 
L 296.80951 458.60108 
L 296.953237 458.455971 
L 297.6983 457.830188 
L 298.924188 455.798661 
L 299.331852 455.608206 
L 299.411816 455.399611 
L 299.6552 455.28171 
L 300.130832 454.75569 
L 300.325044 454.583373 
L 300.362127 454.49268 
L 300.932256 454.338501 
L 301.10995 454.075491 
L 301.48058 453.449708 
L 301.595036 453.213906 
L 301.885535 452.832995 
L 302.190803 452.615331 
L 302.589517 452.452084 
L 302.691416 452.288836 
L 302.879793 452.080242 
L 303.295521 451.282142 
L 303.391758 451.118894 
L 303.63609 450.737983 
L 303.677107 450.674498 
L 304.159885 450.529389 
L 304.770506 449.613388 
L 305.153627 448.534139 
L 305.25377 448.370892 
L 305.39375 448.116951 
L 305.870472 447.953703 
L 306.065118 447.491168 
L 307.131375 445.631959 
L 307.529723 445.486849 
L 307.770759 444.95176 
L 307.850101 444.797582 
L 308.038996 444.507363 
L 308.193702 444.253423 
L 308.840664 443.273937 
L 309.019155 443.219521 
L 309.174084 443.074412 
L 309.707571 442.203757 
L 309.802411 441.995163 
L 309.889364 441.850054 
L 310.31918 441.024746 
L 310.658029 440.879637 
L 310.677109 440.861499 
L 310.833459 440.743597 
L 311.878843 438.566962 
L 311.987692 438.45813 
L 312.362017 438.303952 
L 312.464531 438.267674 
L 312.553455 438.140704 
L 312.844258 437.551198 
L 312.950127 437.378881 
L 313.049301 437.124941 
L 313.236478 436.689613 
L 313.325408 436.526366 
L 313.746893 436.081969 
L 314.169885 435.837098 
L 314.295124 435.655712 
L 314.398781 435.474325 
L 314.498878 435.14783 
L 314.636463 434.957374 
L 314.783765 434.712503 
L 315.215138 434.050443 
L 315.821181 433.896264 
L 316.648483 432.617491 
L 316.765093 432.436105 
L 317.060175 432.082401 
L 317.467967 431.855668 
L 317.61463 431.520104 
L 318.177878 430.821766 
L 318.549532 430.10529 
L 319.069737 429.914835 
L 319.196533 429.633686 
L 319.41857 429.289052 
L 320.131829 427.8561 
L 320.262694 427.710991 
L 320.718584 427.511466 
L 321.305738 426.123861 
L 321.402656 425.942475 
L 321.507436 425.706672 
L 321.705897 425.33483 
L 321.757363 425.189721 
L 321.885702 424.990197 
L 322.195033 424.863226 
L 322.434476 424.663701 
L 322.547872 424.455107 
L 322.720385 424.14675 
L 322.83028 423.892809 
L 322.946945 423.638868 
L 323.071244 423.330512 
L 323.372299 422.759145 
L 323.493799 422.523343 
L 323.868185 422.396372 
L 325.411922 420.201598 
L 325.668209 420.056489 
L 325.785824 419.875103 
L 325.892532 419.693716 
L 326.012962 419.557677 
L 326.480622 418.886547 
L 326.607506 418.677953 
L 326.742713 418.378666 
L 326.846739 418.287972 
L 327.327507 418.124725 
L 328.09703 416.827813 
L 328.344032 416.691773 
L 328.45515 416.628288 
L 328.989189 416.474109 
L 329.414612 415.920881 
L 329.49976 415.739495 
L 329.672988 415.440207 
L 330.096728 414.750939 
L 330.611957 414.515137 
L 330.789296 414.134226 
L 331.12238 413.644483 
L 331.476164 412.837314 
L 331.586359 412.574304 
L 331.856874 412.2206 
L 332.221264 412.075491 
L 332.371573 411.82155 
L 332.507299 411.540402 
L 332.603643 411.29553 
L 332.716367 411.105074 
L 332.865149 410.950896 
L 332.992499 410.778579 
L 333.125366 410.542777 
L 333.263271 410.452084 
L 333.331001 410.297905 
L 333.470012 410.143727 
L 333.930324 409.944202 
L 334.03958 409.717469 
L 334.627799 408.810538 
L 334.765122 408.638221 
L 334.934304 408.493112 
L 335.305158 408.393349 
L 335.920751 408.239171 
L 336.114559 408.066854 
L 336.422268 407.903606 
L 336.63013 407.776636 
L 337.532322 407.522695 
L 337.657676 407.350378 
L 337.81248 407.150853 
L 337.995985 406.942259 
L 338.894305 406.497862 
L 338.955419 406.352753 
L 339.560391 405.364198 
L 339.715957 405.20095 
L 339.830155 404.965148 
L 339.953071 404.838177 
L 340.04072 404.747484 
L 340.554788 404.584237 
L 341.867195 402.734096 
L 342.248877 402.561779 
L 342.373224 402.298769 
L 342.567193 402.01762 
L 343.454473 400.775124 
L 343.913629 400.584669 
L 344.017404 400.385144 
L 344.168275 400.203757 
L 344.296789 400.013302 
L 344.374102 399.877262 
L 344.495736 399.659598 
L 344.655491 399.414727 
L 344.758384 399.24241 
L 344.878828 399.070093 
L 345.164171 398.870568 
L 345.474437 398.725459 
L 345.658127 398.417102 
L 345.787684 398.281062 
L 346.858231 396.775556 
L 347.179018 396.639516 
L 347.30988 396.240466 
L 347.383465 396.095357 
L 347.530338 395.750723 
L 347.704829 395.415159 
L 347.818814 395.224703 
L 347.941757 394.943554 
L 348.117809 394.617059 
L 348.225891 394.399395 
L 348.327541 394.299633 
L 348.566225 394.145455 
L 348.69342 394.054761 
L 348.88545 393.900583 
L 349.009611 393.800821 
L 349.569762 392.440423 
L 349.627602 392.204621 
L 349.777512 391.996027 
L 349.847091 391.81464 
L 350.023359 391.624185 
L 350.650692 390.862362 
L 350.77536 390.581214 
L 351.076734 390.027985 
L 351.181041 389.882876 
L 351.286594 389.755906 
L 351.396964 389.56545 
L 352.252967 388.985014 
L 353.381697 387.143943 
L 353.761479 386.962557 
L 353.878823 386.753962 
L 354.002902 386.536299 
L 354.114001 386.345843 
L 354.254312 386.155388 
L 354.358333 385.964932 
L 354.605578 385.574951 
L 354.746662 385.411704 
L 354.964734 385.19404 
L 355.43661 385.06707 
L 355.612674 384.813129 
L 356.007267 384.250831 
L 356.143782 384.142 
L 356.684605 383.661326 
L 357.07099 383.507147 
L 357.28881 383.262276 
L 357.602243 383.008335 
L 357.711985 382.872295 
L 357.913407 382.654632 
L 358.014402 382.500453 
L 358.182982 382.355344 
L 358.343155 382.273721 
L 358.815042 382.092334 
L 358.945569 381.920017 
L 359.347964 381.366789 
L 359.572948 381.049363 
L 359.888612 380.867977 
L 360.43083 380.641244 
L 360.654882 380.332887 
L 361.430399 379.289916 
L 362.127582 379.172015 
L 362.259091 378.990628 
L 362.582683 378.519024 
L 362.706303 378.382984 
L 363.773045 377.457914 
L 363.967149 377.176765 
L 364.229165 376.931894 
L 364.769919 375.943338 
L 365.376293 375.771021 
L 365.545794 375.562427 
L 365.723651 375.26314 
L 365.918257 374.963852 
L 366.081362 374.628288 
L 366.273999 374.365277 
L 366.43374 374.183891 
L 366.951383 374.002505 
L 367.516095 373.249752 
L 367.72676 372.805355 
L 368.27897 372.152365 
L 368.624742 371.925632 
L 369.854399 369.730857 
L 370.284502 369.522263 
L 370.460622 369.132282 
L 370.63606 368.778579 
L 371.423677 367.17331 
L 371.589623 367.118894 
L 372.012156 366.892162 
L 372.273514 366.656359 
L 372.388505 366.348003 
L 372.506221 366.103131 
L 372.596284 365.958022 
L 372.897035 365.32317 
L 373.727813 364.497862 
L 374.72664 363.101188 
L 375.159984 362.93794 
L 375.32005 362.702138 
L 375.476893 362.393781 
L 375.625763 362.01287 
L 376.370118 360.879205 
L 377.073865 360.534571 
L 377.243276 360.298769 
L 377.406704 360.15366 
L 377.629732 359.827165 
L 378.182499 359.183243 
L 378.526933 359.038134 
L 378.906447 358.240035 
L 379.136275 357.931678 
L 379.250493 357.759361 
L 379.329676 357.605182 
L 379.621008 357.124509 
L 380.161645 356.9794 
L 380.465154 356.680112 
L 380.893657 356.326409 
L 381.007784 356.108745 
L 381.653395 355.51924 
L 381.875683 355.374131 
L 382.212132 354.975081 
L 382.361288 354.820903 
L 382.526258 354.530685 
L 382.672113 354.149773 
L 382.968778 353.814209 
L 383.621514 353.333535 
L 384.050161 352.408465 
L 384.220394 351.973138 
L 384.29777 351.80989 
L 384.389021 351.619434 
L 384.60401 351.211315 
L 385.137939 350.957374 
L 385.276434 350.757849 
L 385.46764 350.639948 
L 385.69163 350.313453 
L 386.053254 349.705809 
L 386.530972 349.252343 
L 386.796194 349.107234 
L 387.071084 348.662837 
L 387.202091 348.372619 
L 387.321953 348.23658 
L 388.040092 347.229886 
L 388.402525 347.084777 
L 388.531585 346.876182 
L 389.041781 346.087152 
L 389.157847 345.85135 
L 389.314112 345.706241 
L 389.594824 345.31626 
L 390.003875 345.125804 
L 390.349704 344.563507 
L 390.510867 344.25515 
L 390.646503 343.955863 
L 391.218826 343.121486 
L 391.679544 342.876614 
L 391.7867 342.704297 
L 391.868205 342.550119 
L 391.994976 342.205485 
L 392.182028 341.697603 
L 392.947182 340.309998 
L 393.487766 339.974433 
L 394.555798 337.843144 
L 395.042115 337.661758 
L 395.245214 337.407817 
L 395.387204 337.153876 
L 395.546407 336.890866 
L 395.664882 336.727618 
L 395.908078 336.337638 
L 396.362933 335.838825 
L 396.681702 335.702786 
L 396.788793 335.51233 
L 396.921244 335.367221 
L 397.118368 335.022587 
L 397.211986 334.786785 
L 397.308907 334.623537 
L 397.438133 334.45122 
L 397.693129 334.079378 
L 397.91743 333.852645 
L 398.286845 333.689398 
L 398.391581 333.508011 
L 398.5195 333.299417 
L 398.640807 333.072684 
L 398.777688 332.891298 
L 398.994957 332.555733 
L 399.151592 332.329 
L 399.332058 332.002505 
L 400.044634 331.494623 
L 400.637135 330.442583 
L 400.750203 330.252127 
L 401.272133 329.662621 
L 401.700631 329.508443 
L 402.801785 328.401987 
L 403.339335 328.202462 
L 403.45298 327.948521 
L 403.584055 327.776204 
L 404.009062 326.959965 
L 404.115368 326.733233 
L 404.186431 326.551846 
L 404.367366 326.189074 
L 404.651991 326.089311 
L 404.923317 325.953271 
L 405.159751 325.43632 
L 405.359338 325.037271 
L 405.668311 324.465904 
L 405.779997 324.184755 
L 405.892036 324.012438 
L 406.21013 323.713151 
L 406.393433 323.577111 
L 406.492006 323.495487 
L 406.622554 323.295962 
L 406.722344 323.032952 
L 406.831354 322.869704 
L 407.095061 322.370892 
L 407.681724 321.618139 
L 407.780864 321.491168 
L 408.22398 321.346059 
L 408.349599 321.119326 
L 408.707512 320.430058 
L 408.885686 320.121702 
L 409.058155 319.786137 
L 409.273701 319.486849 
L 409.363898 319.387087 
L 409.83439 319.196631 
L 410.014553 318.870136 
L 410.124103 318.697819 
L 410.293192 318.271561 
L 410.500832 317.836234 
L 410.659532 317.419046 
L 410.759235 317.237659 
L 410.887596 317.001857 
L 411.063867 316.70257 
L 411.255204 316.657223 
L 411.539362 316.403282 
L 411.6768 316.158411 
L 411.780427 315.949816 
L 412.086504 315.187994 
L 412.986624 313.927359 
L 413.214373 313.755042 
L 413.370739 313.428547 
L 413.494176 313.319715 
L 413.999781 312.530685 
L 414.152018 312.403714 
L 414.38719 312.176981 
L 414.843605 311.995595 
L 416.077254 310.036623 
L 416.507704 309.873375 
L 416.786868 309.474325 
L 416.902666 309.347355 
L 417.032671 309.2748 
L 417.866112 308.757849 
L 418.209429 308.549255 
L 419.450596 307.206996 
L 419.785146 307.080026 
L 420.032728 306.653768 
L 420.362568 306.145886 
L 420.440525 305.973569 
L 420.568711 305.83753 
L 420.856597 305.547312 
L 420.992388 305.393133 
L 421.082332 305.356856 
L 421.760073 305.184539 
L 421.856786 305.157331 
L 423.121739 304.76735 
L 423.396454 304.595033 
L 423.502851 304.458994 
L 423.689373 304.277607 
L 424.053652 303.833211 
L 424.201882 303.660894 
L 424.298112 303.588339 
L 424.790866 303.406953 
L 424.866693 303.31626 
L 425.097586 303.171151 
L 425.241677 302.871864 
L 425.970051 301.946793 
L 426.426045 301.72006 
L 426.971313 301.058 
L 427.232852 300.604535 
L 427.48738 300.160138 
L 427.598239 299.987821 
L 428.021815 299.833643 
L 428.228882 299.625049 
L 428.35488 299.33483 
L 428.64103 298.899503 
L 428.747093 298.727186 
L 428.889873 298.554869 
L 429.042221 298.273721 
L 429.182344 298.128612 
L 429.360651 298.001641 
L 429.712185 297.856532 
L 429.825737 297.647938 
L 429.89436 297.48469 
L 430.069885 297.140056 
L 430.284112 296.731937 
L 430.393652 296.496135 
L 431.005826 295.453163 
L 431.400002 295.262708 
L 432.141779 293.993004 
L 432.217527 293.866033 
L 432.335265 293.748132 
L 432.488258 293.494191 
L 432.725869 293.321874 
L 432.831648 293.167696 
L 433.064928 293.022587 
L 433.192857 292.868409 
L 433.302121 292.741438 
L 433.415539 292.487497 
L 433.55988 292.306111 
L 434.343609 291.362902 
L 434.787992 291.199655 
L 434.922966 291.136169 
L 435.205421 290.682704 
L 435.62445 289.630663 
L 435.724566 289.440207 
L 435.820973 289.295098 
L 435.978414 289.068365 
L 436.347887 288.86884 
L 436.461998 288.596761 
L 436.586331 288.424444 
L 436.785347 287.970978 
L 437.256117 287.200086 
L 437.369497 287.0187 
L 437.525909 286.918938 
L 437.974445 286.764759 
L 438.162524 286.501749 
L 438.340692 286.311293 
L 438.466393 286.193392 
L 439.166654 285.458778 
L 439.638006 285.313669 
L 439.75026 285.114144 
L 439.999032 284.642539 
L 440.112895 284.479292 
L 440.269899 284.343252 
L 440.348441 284.252559 
L 440.50887 284.10745 
L 440.723692 283.780954 
L 441.4592 283.427251 
L 441.593503 283.218657 
L 441.82297 282.819607 
L 442.012863 282.493112 
L 442.443954 282.021507 
L 442.956548 281.821982 
L 443.107247 281.513626 
L 443.234821 281.359447 
L 443.492902 280.996675 
L 443.608002 280.760872 
L 444.403361 280.089743 
L 444.629096 279.962773 
L 444.770647 279.835802 
L 444.935251 279.654416 
L 445.224169 279.246297 
L 445.365461 279.119326 
L 445.68083 278.738415 
L 445.776082 278.702138 
L 446.09449 278.575167 
L 446.562989 278.103563 
L 446.718117 277.931246 
L 446.831194 277.74079 
L 446.997808 277.441503 
L 447.109254 277.251047 
L 447.286123 276.933621 
L 447.928953 276.516433 
L 448.119403 276.02669 
L 448.286618 275.809026 
L 448.412925 275.636709 
L 449.119406 274.766055 
L 449.479075 274.639084 
L 449.586282 274.321658 
L 449.871462 273.750292 
L 449.966821 273.559836 
L 450.065041 273.414727 
L 450.1809 273.260548 
L 450.329103 273.079162 
L 450.926437 272.652904 
L 451.296828 272.453379 
L 451.534543 272.290132 
L 451.793107 272.117815 
L 452.090355 271.827597 
L 452.974057 271.319715 
L 453.126184 271.129259 
L 453.459451 270.557892 
L 453.609126 270.231397 
L 454.239157 269.678169 
L 454.511054 269.551198 
L 454.634597 269.26098 
L 454.784395 269.016109 
L 455.151462 268.426603 
L 455.26275 268.290564 
L 455.366915 268.100108 
L 455.532836 267.864306 
L 455.60419 267.782682 
L 456.198974 267.601296 
L 456.316045 267.438048 
L 457.47174 265.977888 
L 457.845 265.742086 
L 458.503099 264.817016 
L 458.62871 264.662837 
L 458.855283 264.390758 
L 459.456167 264.272857 
L 459.687093 263.928223 
L 460.586883 262.90339 
L 461.220928 262.613172 
L 461.417298 262.458994 
L 462.333019 261.697171 
L 462.830962 261.57927 
L 463.557173 260.78117 
L 463.79036 260.427467 
L 464.693856 259.910516 
L 464.812445 259.692853 
L 465.466587 258.758713 
L 465.577874 258.704297 
L 465.922242 258.66802 
L 466.040504 258.541049 
L 466.377729 258.087584 
L 467.343927 257.07182 
L 467.767776 256.908573 
L 467.883586 256.663701 
L 468.179935 256.364414 
L 468.313023 256.219305 
L 468.632554 255.874671 
L 468.761239 255.738631 
L 468.963054 255.475621 
L 469.479231 255.248888 
L 469.863712 254.804491 
L 470.36399 254.260333 
L 470.536689 254.124293 
L 471.020431 253.988253 
L 471.246272 253.698035 
L 471.363144 253.607342 
L 471.485276 253.462233 
L 472.125818 252.691341 
L 472.775855 252.446469 
L 472.903131 252.346707 
L 473.28705 251.983934 
L 473.44317 251.702786 
L 473.515357 251.530469 
L 473.798355 251.321874 
L 474.381795 251.149557 
L 474.491286 250.950032 
L 474.680959 250.668884 
L 474.792468 250.550983 
L 474.891234 250.378666 
L 475.094109 250.088447 
L 475.269364 249.834507 
L 475.519796 249.508011 
L 475.735091 249.435457 
L 475.971708 249.299417 
L 476.128453 249.181516 
L 476.241578 248.963852 
L 477.121009 247.866465 
L 477.614656 247.703217 
L 477.736949 247.549039 
L 477.920924 247.249752 
L 478.25167 246.841632 
L 478.390343 246.560484 
L 478.55214 246.379097 
L 478.818214 246.052602 
L 479.449305 245.726107 
L 479.636373 245.41775 
L 479.740831 245.263572 
L 479.875579 245.000561 
L 480.010437 244.828244 
L 480.126533 244.592442 
L 480.265451 244.35664 
L 481.217359 243.903174 
L 481.335659 243.721788 
L 481.489138 243.458778 
L 481.633412 243.313669 
L 481.754806 243.141352 
L 482.013245 242.814856 
L 482.5247 242.669747 
L 483.041792 242.180004 
L 483.159841 242.043965 
L 483.781092 241.254934 
L 484.282465 241.127964 
L 484.595772 240.719845 
L 484.757485 240.574735 
L 484.868644 240.375211 
L 485.197536 239.994299 
L 486.202387 239.495487 
L 486.961458 238.216713 
L 487.498651 237.99905 
L 487.621179 237.872079 
L 487.737579 237.717901 
L 487.90785 237.491168 
L 488.295799 236.992356 
L 489.438143 236.257741 
L 489.58202 236.058216 
L 490.653211 235.178493 
L 490.897851 235.042453 
L 491.923009 233.718333 
L 492.639818 233.382768 
L 492.76571 233.237659 
L 492.894016 233.083481 
L 493.206624 232.657223 
L 493.355955 232.512114 
L 493.67532 232.122133 
L 494.100332 231.986094 
L 494.366767 231.532628 
L 495.48107 230.199439 
L 495.792351 230.027122 
L 495.922146 229.854805 
L 497.186443 228.240466 
L 497.408661 228.104427 
L 497.665956 227.868624 
L 497.809361 227.66003 
L 498.261747 227.206564 
L 498.560384 226.73496 
L 499.151132 226.417534 
L 499.279162 226.245217 
L 499.449742 226.063831 
L 499.722365 225.719197 
L 500.069478 225.501533 
L 500.260916 225.428979 
L 500.944886 225.175038 
L 501.089933 225.020859 
L 501.665082 224.367869 
L 501.800406 224.21369 
L 501.914739 224.141136 
L 502.560535 223.869056 
L 502.701089 223.723947 
L 502.859205 223.5607 
L 503.198316 223.179788 
L 503.326081 223.107234 
L 503.882958 222.771669 
L 504.179771 222.62656 
L 504.318832 222.445174 
L 504.388534 222.318203 
L 504.47721 222.154956 
L 504.770156 221.955431 
L 504.829718 221.928223 
L 505.009187 221.792183 
L 505.33628 221.57452 
L 505.793331 221.42941 
L 506.265953 220.975945 
L 506.376126 220.848974 
L 506.622328 220.604103 
L 508.067973 220.150637 
L 508.23325 219.960181 
L 508.512446 219.815072 
L 508.600458 219.688102 
L 509.026826 219.533924 
L 509.030138 219.515785 
L 509.540719 219.388815 
L 509.797935 219.171151 
L 510.243896 218.663269 
L 510.659241 218.52723 
L 511.02787 218.12818 
L 511.131948 218.037487 
L 511.211571 217.883308 
L 511.409457 217.620298 
L 511.606122 217.420773 
L 511.718998 217.248456 
L 512.014258 217.039862 
L 512.081614 217.012654 
L 512.435958 216.840337 
L 512.661512 216.631743 
L 512.77408 216.513842 
L 512.987187 216.214554 
L 513.16147 215.924336 
L 513.398174 215.679464 
L 514.041212 215.425524 
L 514.223849 215.253207 
L 514.463934 215.026474 
L 514.634232 214.772533 
L 515.212017 214.183027 
L 515.693107 213.847463 
L 516.487573 212.722868 
L 516.60728 212.577759 
L 516.711872 212.487065 
L 517.287627 212.233125 
L 517.416089 212.006392 
L 518.045656 211.561995 
L 518.157202 211.398748 
L 518.867665 211.035975 
L 518.989944 210.890866 
L 520.304812 209.203973 
L 520.525188 209.077003 
L 520.689334 208.859339 
L 520.816163 208.7233 
L 521.384236 207.997754 
L 521.663176 207.580566 
L 522.146175 207.353833 
L 522.361145 206.873159 
L 522.459808 206.646426 
L 522.613169 206.301792 
L 522.83451 206.183891 
L 523.497366 205.104643 
L 523.956063 204.850702 
L 524.009465 204.669315 
L 524.103215 204.515137 
L 524.194177 204.370028 
L 524.338398 204.061671 
L 524.481667 203.8168 
L 524.68843 203.363334 
L 524.814161 203.218225 
L 524.984369 202.864522 
L 525.582056 202.692205 
L 525.691836 202.637789 
L 526.337387 202.057353 
L 526.464054 201.95759 
L 526.805959 201.848758 
L 527.31633 201.685511 
L 527.417491 201.56761 
L 527.70766 201.377154 
L 527.843066 201.204837 
L 528.10123 201.005312 
L 528.289942 200.751371 
L 528.740644 200.597193 
L 529.184819 199.953271 
L 529.41181 199.699331 
L 529.926561 199.028201 
L 530.470693 198.801468 
L 530.622083 198.484042 
L 531.58765 197.014813 
L 532.100935 196.878773 
L 532.406148 196.289268 
L 532.604036 196.062535 
L 532.904741 195.536515 
L 533.020135 195.318851 
L 534.321695 193.822414 
L 534.432524 193.713582 
L 535.194097 192.851997 
L 535.475107 192.697819 
L 535.660892 192.462017 
L 535.944621 191.926927 
L 536.071338 191.718333 
L 536.753045 190.96558 
L 537.102678 190.766055 
L 537.21816 190.548391 
L 539.532673 187.673418 
L 539.739488 187.337854 
L 540.461532 186.775556 
L 540.613286 186.494407 
L 540.771541 186.267674 
L 541.622841 185.088663 
L 542.069594 184.798445 
L 542.174426 184.671475 
L 542.285222 184.544504 
L 542.700161 184.136385 
L 542.952221 183.846167 
L 543.137506 183.54688 
L 543.718622 183.075275 
L 544.092456 182.667156 
L 544.225483 182.503908 
L 544.566225 182.005096 
L 544.706727 181.869056 
L 544.913305 181.669531 
L 545.601759 181.297689 
L 545.923614 180.962125 
L 546.168285 180.817016 
L 546.245111 180.753531 
L 546.463099 180.617491 
L 546.622708 180.544936 
L 547.041962 180.36355 
L 547.169724 180.118678 
L 547.63709 179.83753 
L 547.980966 179.456618 
L 548.117208 179.275232 
L 548.561686 179.093846 
L 549.912945 177.697171 
L 550.226719 177.561132 
L 550.872507 176.844656 
L 551.007692 176.708616 
L 551.231248 176.445606 
L 551.442509 176.164457 
L 552.04128 175.837962 
L 552.250405 175.520536 
L 552.454047 175.402634 
L 552.857503 174.785921 
L 553.237852 174.568257 
L 553.575975 174.414079 
L 553.69478 174.305247 
L 553.885 174.096653 
L 554.017231 173.888059 
L 554.189899 173.679464 
L 554.654121 173.017404 
L 554.905665 172.926711 
L 555.221196 172.754394 
L 555.659229 172.328136 
L 555.820797 172.183027 
L 556.042334 171.920017 
L 556.183306 171.765839 
L 556.413762 171.557245 
L 556.878011 171.412136 
L 556.986546 171.276096 
L 557.120948 171.130987 
L 557.562012 170.541481 
L 558.025008 169.843144 
L 558.381438 169.698035 
L 558.515233 169.62548 
L 558.866778 169.289916 
L 559.114018 168.872727 
L 560.009766 167.929518 
L 560.336088 167.748132 
L 560.732531 167.231181 
L 560.869964 167.067933 
L 560.994477 166.931894 
L 561.152041 166.650745 
L 561.281093 166.478428 
L 561.3238 166.424012 
L 561.811052 166.251695 
L 561.950418 166.079378 
L 562.071665 165.861715 
L 562.260227 165.471734 
L 562.373199 165.335694 
L 562.518478 165.163377 
L 562.630522 164.963852 
L 562.744799 164.836882 
L 563.920265 163.431138 
L 564.06024 163.258821 
L 564.215388 162.995811 
L 564.323199 162.750939 
L 564.500813 162.524206 
L 564.810737 162.152365 
L 565.120388 161.95284 
L 565.441456 161.28171 
L 566.04206 160.420125 
L 566.207145 160.256878 
L 566.247619 160.193392 
L 566.735173 160.048283 
L 567.129521 159.622025 
L 567.579827 159.105074 
L 567.818126 158.860203 
L 568.030925 158.742302 
L 568.478084 158.569985 
L 569.219302 157.644915 
L 569.347682 157.345627 
L 569.698921 157.17331 
L 570.08016 157.04634 
L 570.201194 156.928439 
L 570.511924 156.665429 
L 570.658931 156.502181 
L 570.789842 156.366141 
L 571.377458 155.758497 
L 571.908405 155.341309 
L 572.058845 155.132714 
L 572.239996 154.951328 
L 572.3579 154.769942 
L 572.508378 154.588555 
L 572.793156 154.216713 
L 573.750673 153.536515 
L 574.162181 153.101188 
L 574.418594 152.81097 
L 575.012231 152.448197 
L 575.146452 152.312157 
L 575.291865 152.076355 
L 575.407623 151.949385 
L 575.527387 151.74986 
L 575.637893 151.604751 
L 575.831775 151.34174 
L 575.943469 151.187562 
L 576.121095 150.942691 
L 576.3131 150.598057 
L 576.547003 150.471086 
L 576.712995 150.353185 
L 576.977614 150.044828 
L 577.183621 149.691125 
L 577.491485 149.292075 
L 577.639822 149.137897 
L 578.020481 148.929303 
L 578.097638 148.865817 
L 578.355894 148.729778 
L 578.539885 148.584669 
L 578.686504 148.421421 
L 578.865189 148.230965 
L 579.352413 147.451004 
L 579.558024 147.160786 
L 579.955878 146.961261 
L 580.282228 146.435241 
L 580.366396 146.281062 
L 581.129971 145.673418 
L 581.672481 145.455755 
L 581.785087 145.174606 
L 581.908994 144.975081 
L 582.064133 144.712071 
L 582.208538 144.439991 
L 582.319934 144.267674 
L 582.805951 143.460505 
L 583.075715 143.179357 
L 583.19253 143.124941 
L 583.601748 142.725891 
L 583.82515 142.245217 
L 583.900748 142.054761 
L 584.082008 141.682919 
L 584.334699 141.320147 
L 584.540515 141.138761 
L 584.723134 141.066206 
L 585.079483 140.930166 
L 585.314357 140.694364 
L 586.483641 139.977888 
L 586.702242 139.850918 
L 586.92399 139.606046 
L 587.172975 139.415591 
L 587.301756 139.270482 
L 587.403365 139.107234 
L 587.517201 139.052818 
L 588.348298 138.662837 
L 588.528242 138.463312 
L 588.648989 138.272857 
L 588.939734 137.955431 
L 589.116393 137.728698 
L 589.393798 137.465688 
L 590.072987 137.066638 
L 590.256262 136.839905 
L 590.474345 136.649449 
L 590.630131 136.440855 
L 590.964048 136.123429 
L 591.00364 136.078082 
L 591.53843 135.932973 
L 591.695812 135.769726 
L 591.792839 135.688102 
L 592.110215 135.44323 
L 594.65108 133.765407 
L 594.952743 133.602159 
L 595.184971 133.429842 
L 595.628081 133.293803 
L 596.24918 132.949169 
L 596.489754 132.80406 
L 596.820719 132.568257 
L 597.008533 132.359663 
L 597.12556 132.223623 
L 597.804209 131.380177 
L 598.208901 131.20786 
L 598.366537 131.044612 
L 598.900029 130.446038 
L 599.112416 130.273721 
L 599.216939 130.173958 
L 600.084958 129.657007 
L 600.554341 129.267027 
L 600.802802 129.08564 
L 601.184099 128.867977 
L 601.588991 128.68659 
L 602.08204 128.051738 
L 602.217569 127.961045 
L 602.337169 127.797797 
L 602.436348 127.716174 
L 603.258439 127.380609 
L 603.654434 127.017836 
L 603.809401 126.881797 
L 604.144416 126.555301 
L 604.331086 126.373915 
L 604.495175 126.319499 
L 604.880773 126.17439 
L 604.956532 126.002073 
L 605.139327 125.875103 
L 605.253312 125.720924 
L 605.552187 125.448845 
L 605.666885 125.194904 
L 606.988271 124.133794 
L 607.177664 123.952408 
L 607.30766 123.798229 
L 607.462824 123.634982 
L 607.693215 123.553358 
L 608.089084 123.399179 
L 609.408504 121.784841 
L 609.75377 121.639732 
L 610.120638 121.249752 
L 610.417915 120.950464 
L 610.526938 120.814425 
L 610.842324 120.388167 
L 611.438195 120.243058 
L 611.975402 119.707968 
L 612.05523 119.635414 
L 612.456096 119.481235 
L 613.464887 119.027769 
L 613.574891 118.89173 
L 613.942081 118.528957 
L 614.101246 118.374779 
L 614.290868 118.247808 
L 614.685153 118.102699 
L 614.78901 117.993867 
L 614.887298 117.767135 
L 615.008586 117.603887 
L 615.144932 117.395293 
L 615.309624 117.259253 
L 615.518517 117.041589 
L 615.681735 116.787648 
L 615.746625 116.642539 
L 615.940458 116.533708 
L 616.336589 116.379529 
L 616.592456 116.24349 
L 616.787651 116.116519 
L 617.164254 115.717469 
L 617.606037 115.273073 
L 618.084593 115.073548 
L 618.813656 114.375211 
L 618.923359 114.211963 
L 619.095831 114.048715 
L 619.203126 114.003369 
L 620.049533 113.649665 
L 620.321739 113.422932 
L 620.534715 113.214338 
L 620.646537 113.150853 
L 620.973417 112.960397 
L 621.324467 112.824358 
L 622.636364 111.6 
L 622.636364 111.6 
" style="fill:none;stroke:#92c6ff;stroke-linecap:round;stroke-width:1.5;"/>
   </g>
   <g id="line2d_26">
    <defs>
     <path d="M 0 2.5 
C 0.663008 2.5 1.29895 2.236584 1.767767 1.767767 
C 2.236584 1.29895 2.5 0.663008 2.5 0 
C 2.5 -0.663008 2.236584 -1.29895 1.767767 -1.767767 
C 1.29895 -2.236584 0.663008 -2.5 0 -2.5 
C -0.663008 -2.5 -1.29895 -2.236584 -1.767767 -1.767767 
C -2.236584 -1.29895 -2.5 -0.663008 -2.5 0 
C -2.5 0.663008 -2.236584 1.29895 -1.767767 1.767767 
C -1.29895 2.236584 -0.663008 2.5 0 2.5 
z
" id="m10c8c6f933" style="stroke:#696969;"/>
    </defs>
    <g clip-path="url(#p7a39cd57f0)">
     <use style="fill:#696969;stroke:#696969;" x="115.363636" xlink:href="#m10c8c6f933" y="615.6"/>
    </g>
   </g>
   <g id="line2d_27">
    <g clip-path="url(#p7a39cd57f0)">
     <use style="fill:#696969;stroke:#696969;" x="197.688722" xlink:href="#m10c8c6f933" y="565.192745"/>
    </g>
   </g>
   <g id="line2d_28">
    <g clip-path="url(#p7a39cd57f0)">
     <use style="fill:#696969;stroke:#696969;" x="241.430392" xlink:href="#m10c8c6f933" y="514.785489"/>
    </g>
   </g>
   <g id="line2d_29">
    <g clip-path="url(#p7a39cd57f0)">
     <use style="fill:#696969;stroke:#696969;" x="291.21126" xlink:href="#m10c8c6f933" y="464.378234"/>
    </g>
   </g>
   <g id="line2d_30">
    <g clip-path="url(#p7a39cd57f0)">
     <use style="fill:#696969;stroke:#696969;" x="330.901861" xlink:href="#m10c8c6f933" y="413.980048"/>
    </g>
   </g>
   <g id="line2d_31">
    <g clip-path="url(#p7a39cd57f0)">
     <use style="fill:#696969;stroke:#696969;" x="374.351905" xlink:href="#m10c8c6f933" y="363.581861"/>
    </g>
   </g>
   <g id="line2d_32">
    <g clip-path="url(#p7a39cd57f0)">
     <use style="fill:#696969;stroke:#696969;" x="413.602626" xlink:href="#m10c8c6f933" y="313.183675"/>
    </g>
   </g>
   <g id="line2d_33">
    <g clip-path="url(#p7a39cd57f0)">
     <use style="fill:#696969;stroke:#696969;" x="461.106713" xlink:href="#m10c8c6f933" y="262.785489"/>
    </g>
   </g>
   <g id="line2d_34">
    <g clip-path="url(#p7a39cd57f0)">
     <use style="fill:#696969;stroke:#696969;" x="516.959303" xlink:href="#m10c8c6f933" y="212.387303"/>
    </g>
   </g>
   <g id="line2d_35">
    <g clip-path="url(#p7a39cd57f0)">
     <use style="fill:#696969;stroke:#696969;" x="565.093631" xlink:href="#m10c8c6f933" y="161.989117"/>
    </g>
   </g>
   <g id="line2d_36">
    <g clip-path="url(#p7a39cd57f0)">
     <use style="fill:#696969;stroke:#696969;" x="622.636364" xlink:href="#m10c8c6f933" y="111.6"/>
    </g>
   </g>
   <g id="patch_3">
    <path d="M 90 640.8 
L 90 86.4 
" style="fill:none;stroke:#cccccc;stroke-linecap:square;stroke-linejoin:miter;"/>
   </g>
   <g id="patch_4">
    <path d="M 648 640.8 
L 648 86.4 
" style="fill:none;stroke:#cccccc;stroke-linecap:square;stroke-linejoin:miter;"/>
   </g>
   <g id="patch_5">
    <path d="M 90 640.8 
L 648 640.8 
" style="fill:none;stroke:#cccccc;stroke-linecap:square;stroke-linejoin:miter;"/>
   </g>
   <g id="patch_6">
    <path d="M 90 86.4 
L 648 86.4 
" style="fill:none;stroke:#cccccc;stroke-linecap:square;stroke-linejoin:miter;"/>
   </g>
   <g id="text_13">
    <!-- 1 (2014-06-07) -->
    <defs>
     <path id="LiberationSans-32"/>
     <path d="M 6.203125 25.984375 
Q 6.203125 32.765625 7.21875 38.96875 
Q 8.25 45.171875 10.4375 50.875 
Q 12.640625 56.59375 16.0625 61.953125 
Q 19.484375 67.328125 24.21875 72.46875 
L 32.71875 72.46875 
Q 28.125 67.328125 24.78125 61.9375 
Q 21.4375 56.546875 19.28125 50.796875 
Q 17.140625 45.0625 16.09375 38.859375 
Q 15.046875 32.671875 15.046875 25.875 
Q 15.046875 19.09375 16.09375 12.890625 
Q 17.140625 6.6875 19.28125 0.921875 
Q 21.4375 -4.828125 24.78125 -10.203125 
Q 28.125 -15.578125 32.71875 -20.703125 
L 24.21875 -20.703125 
Q 19.484375 -15.578125 16.0625 -10.203125 
Q 12.640625 -4.828125 10.4375 0.875 
Q 8.25 6.59375 7.21875 12.765625 
Q 6.203125 18.953125 6.203125 25.78125 
z
" id="LiberationSans-40"/>
     <path d="M 4.4375 22.65625 
L 4.4375 30.46875 
L 28.859375 30.46875 
L 28.859375 22.65625 
z
" id="LiberationSans-45"/>
     <path d="M 27.09375 25.78125 
Q 27.09375 18.953125 26.0625 12.765625 
Q 25.046875 6.59375 22.84375 0.875 
Q 20.65625 -4.828125 17.234375 -10.203125 
Q 13.8125 -15.578125 9.078125 -20.703125 
L 0.59375 -20.703125 
Q 5.171875 -15.578125 8.515625 -10.203125 
Q 11.859375 -4.828125 14 0.921875 
Q 16.15625 6.6875 17.203125 12.890625 
Q 18.265625 19.09375 18.265625 25.875 
Q 18.265625 32.671875 17.203125 38.859375 
Q 16.15625 45.0625 14 50.796875 
Q 11.859375 56.546875 8.515625 61.9375 
Q 5.171875 67.328125 0.59375 72.46875 
L 9.078125 72.46875 
Q 13.8125 67.328125 17.234375 61.953125 
Q 20.65625 56.59375 22.84375 50.875 
Q 25.046875 45.171875 26.0625 38.96875 
Q 27.09375 32.765625 27.09375 25.984375 
z
" id="LiberationSans-41"/>
    </defs>
    <g style="fill:#262626;" transform="translate(120.363636 622.846875)scale(0.1 -0.1)">
     <use xlink:href="#LiberationSans-49"/>
     <use x="55.615234" xlink:href="#LiberationSans-32"/>
     <use x="83.398438" xlink:href="#LiberationSans-40"/>
     <use x="116.699219" xlink:href="#LiberationSans-50"/>
     <use x="172.314453" xlink:href="#LiberationSans-48"/>
     <use x="227.929688" xlink:href="#LiberationSans-49"/>
     <use x="283.544922" xlink:href="#LiberationSans-52"/>
     <use x="339.160156" xlink:href="#LiberationSans-45"/>
     <use x="372.460938" xlink:href="#LiberationSans-48"/>
     <use x="428.076172" xlink:href="#LiberationSans-54"/>
     <use x="483.691406" xlink:href="#LiberationSans-45"/>
     <use x="516.992188" xlink:href="#LiberationSans-48"/>
     <use x="572.607422" xlink:href="#LiberationSans-55"/>
     <use x="628.222656" xlink:href="#LiberationSans-41"/>
    </g>
   </g>
   <g id="text_14">
    <!-- 5559 (2015-05-21) -->
    <g style="fill:#262626;" transform="translate(202.688722 572.43962)scale(0.1 -0.1)">
     <use xlink:href="#LiberationSans-53"/>
     <use x="55.615234" xlink:href="#LiberationSans-53"/>
     <use x="111.230469" xlink:href="#LiberationSans-53"/>
     <use x="166.845703" xlink:href="#LiberationSans-57"/>
     <use x="222.460938" xlink:href="#LiberationSans-32"/>
     <use x="250.244141" xlink:href="#LiberationSans-40"/>
     <use x="283.544922" xlink:href="#LiberationSans-50"/>
     <use x="339.160156" xlink:href="#LiberationSans-48"/>
     <use x="394.775391" xlink:href="#LiberationSans-49"/>
     <use x="450.390625" xlink:href="#LiberationSans-53"/>
     <use x="506.005859" xlink:href="#LiberationSans-45"/>
     <use x="539.306641" xlink:href="#LiberationSans-48"/>
     <use x="594.921875" xlink:href="#LiberationSans-53"/>
     <use x="650.537109" xlink:href="#LiberationSans-45"/>
     <use x="683.837891" xlink:href="#LiberationSans-50"/>
     <use x="739.453125" xlink:href="#LiberationSans-49"/>
     <use x="795.068359" xlink:href="#LiberationSans-41"/>
    </g>
   </g>
   <g id="text_15">
    <!-- 11117 (2015-11-23) -->
    <g style="fill:#262626;" transform="translate(246.430392 522.032364)scale(0.1 -0.1)">
     <use xlink:href="#LiberationSans-49"/>
     <use x="55.615234" xlink:href="#LiberationSans-49"/>
     <use x="111.230469" xlink:href="#LiberationSans-49"/>
     <use x="166.845703" xlink:href="#LiberationSans-49"/>
     <use x="222.460938" xlink:href="#LiberationSans-55"/>
     <use x="278.076172" xlink:href="#LiberationSans-32"/>
     <use x="305.859375" xlink:href="#LiberationSans-40"/>
     <use x="339.160156" xlink:href="#LiberationSans-50"/>
     <use x="394.775391" xlink:href="#LiberationSans-48"/>
     <use x="450.390625" xlink:href="#LiberationSans-49"/>
     <use x="506.005859" xlink:href="#LiberationSans-53"/>
     <use x="561.621094" xlink:href="#LiberationSans-45"/>
     <use x="594.921875" xlink:href="#LiberationSans-49"/>
     <use x="650.537109" xlink:href="#LiberationSans-49"/>
     <use x="706.152344" xlink:href="#LiberationSans-45"/>
     <use x="739.453125" xlink:href="#LiberationSans-50"/>
     <use x="795.068359" xlink:href="#LiberationSans-51"/>
     <use x="850.683594" xlink:href="#LiberationSans-41"/>
    </g>
   </g>
   <g id="text_16">
    <!-- 16675 (2016-06-21) -->
    <g style="fill:#262626;" transform="translate(296.21126 471.625109)scale(0.1 -0.1)">
     <use xlink:href="#LiberationSans-49"/>
     <use x="55.615234" xlink:href="#LiberationSans-54"/>
     <use x="111.230469" xlink:href="#LiberationSans-54"/>
     <use x="166.845703" xlink:href="#LiberationSans-55"/>
     <use x="222.460938" xlink:href="#LiberationSans-53"/>
     <use x="278.076172" xlink:href="#LiberationSans-32"/>
     <use x="305.859375" xlink:href="#LiberationSans-40"/>
     <use x="339.160156" xlink:href="#LiberationSans-50"/>
     <use x="394.775391" xlink:href="#LiberationSans-48"/>
     <use x="450.390625" xlink:href="#LiberationSans-49"/>
     <use x="506.005859" xlink:href="#LiberationSans-54"/>
     <use x="561.621094" xlink:href="#LiberationSans-45"/>
     <use x="594.921875" xlink:href="#LiberationSans-48"/>
     <use x="650.537109" xlink:href="#LiberationSans-54"/>
     <use x="706.152344" xlink:href="#LiberationSans-45"/>
     <use x="739.453125" xlink:href="#LiberationSans-50"/>
     <use x="795.068359" xlink:href="#LiberationSans-49"/>
     <use x="850.683594" xlink:href="#LiberationSans-41"/>
    </g>
   </g>
   <g id="text_17">
    <!-- 22232 (2016-12-06) -->
    <g style="fill:#262626;" transform="translate(335.901861 421.226923)scale(0.1 -0.1)">
     <use xlink:href="#LiberationSans-50"/>
     <use x="55.615234" xlink:href="#LiberationSans-50"/>
     <use x="111.230469" xlink:href="#LiberationSans-50"/>
     <use x="166.845703" xlink:href="#LiberationSans-51"/>
     <use x="222.460938" xlink:href="#LiberationSans-50"/>
     <use x="278.076172" xlink:href="#LiberationSans-32"/>
     <use x="305.859375" xlink:href="#LiberationSans-40"/>
     <use x="339.160156" xlink:href="#LiberationSans-50"/>
     <use x="394.775391" xlink:href="#LiberationSans-48"/>
     <use x="450.390625" xlink:href="#LiberationSans-49"/>
     <use x="506.005859" xlink:href="#LiberationSans-54"/>
     <use x="561.621094" xlink:href="#LiberationSans-45"/>
     <use x="594.921875" xlink:href="#LiberationSans-49"/>
     <use x="650.537109" xlink:href="#LiberationSans-50"/>
     <use x="706.152344" xlink:href="#LiberationSans-45"/>
     <use x="739.453125" xlink:href="#LiberationSans-48"/>
     <use x="795.068359" xlink:href="#LiberationSans-54"/>
     <use x="850.683594" xlink:href="#LiberationSans-41"/>
    </g>
   </g>
   <g id="text_18">
    <!-- 27789 (2017-06-08) -->
    <g style="fill:#262626;" transform="translate(379.351905 370.828736)scale(0.1 -0.1)">
     <use xlink:href="#LiberationSans-50"/>
     <use x="55.615234" xlink:href="#LiberationSans-55"/>
     <use x="111.230469" xlink:href="#LiberationSans-55"/>
     <use x="166.845703" xlink:href="#LiberationSans-56"/>
     <use x="222.460938" xlink:href="#LiberationSans-57"/>
     <use x="278.076172" xlink:href="#LiberationSans-32"/>
     <use x="305.859375" xlink:href="#LiberationSans-40"/>
     <use x="339.160156" xlink:href="#LiberationSans-50"/>
     <use x="394.775391" xlink:href="#LiberationSans-48"/>
     <use x="450.390625" xlink:href="#LiberationSans-49"/>
     <use x="506.005859" xlink:href="#LiberationSans-55"/>
     <use x="561.621094" xlink:href="#LiberationSans-45"/>
     <use x="594.921875" xlink:href="#LiberationSans-48"/>
     <use x="650.537109" xlink:href="#LiberationSans-54"/>
     <use x="706.152344" xlink:href="#LiberationSans-45"/>
     <use x="739.453125" xlink:href="#LiberationSans-48"/>
     <use x="795.068359" xlink:href="#LiberationSans-56"/>
     <use x="850.683594" xlink:href="#LiberationSans-41"/>
    </g>
   </g>
   <g id="text_19">
    <!-- 33346 (2017-11-22) -->
    <g style="fill:#262626;" transform="translate(418.602626 320.43055)scale(0.1 -0.1)">
     <use xlink:href="#LiberationSans-51"/>
     <use x="55.615234" xlink:href="#LiberationSans-51"/>
     <use x="111.230469" xlink:href="#LiberationSans-51"/>
     <use x="166.845703" xlink:href="#LiberationSans-52"/>
     <use x="222.460938" xlink:href="#LiberationSans-54"/>
     <use x="278.076172" xlink:href="#LiberationSans-32"/>
     <use x="305.859375" xlink:href="#LiberationSans-40"/>
     <use x="339.160156" xlink:href="#LiberationSans-50"/>
     <use x="394.775391" xlink:href="#LiberationSans-48"/>
     <use x="450.390625" xlink:href="#LiberationSans-49"/>
     <use x="506.005859" xlink:href="#LiberationSans-55"/>
     <use x="561.621094" xlink:href="#LiberationSans-45"/>
     <use x="594.921875" xlink:href="#LiberationSans-49"/>
     <use x="650.537109" xlink:href="#LiberationSans-49"/>
     <use x="706.152344" xlink:href="#LiberationSans-45"/>
     <use x="739.453125" xlink:href="#LiberationSans-50"/>
     <use x="795.068359" xlink:href="#LiberationSans-50"/>
     <use x="850.683594" xlink:href="#LiberationSans-41"/>
    </g>
   </g>
   <g id="text_20">
    <!-- 38903 (2018-06-11) -->
    <g style="fill:#262626;" transform="translate(466.106713 270.032364)scale(0.1 -0.1)">
     <use xlink:href="#LiberationSans-51"/>
     <use x="55.615234" xlink:href="#LiberationSans-56"/>
     <use x="111.230469" xlink:href="#LiberationSans-57"/>
     <use x="166.845703" xlink:href="#LiberationSans-48"/>
     <use x="222.460938" xlink:href="#LiberationSans-51"/>
     <use x="278.076172" xlink:href="#LiberationSans-32"/>
     <use x="305.859375" xlink:href="#LiberationSans-40"/>
     <use x="339.160156" xlink:href="#LiberationSans-50"/>
     <use x="394.775391" xlink:href="#LiberationSans-48"/>
     <use x="450.390625" xlink:href="#LiberationSans-49"/>
     <use x="506.005859" xlink:href="#LiberationSans-56"/>
     <use x="561.621094" xlink:href="#LiberationSans-45"/>
     <use x="594.921875" xlink:href="#LiberationSans-48"/>
     <use x="650.537109" xlink:href="#LiberationSans-54"/>
     <use x="706.152344" xlink:href="#LiberationSans-45"/>
     <use x="739.453125" xlink:href="#LiberationSans-49"/>
     <use x="795.068359" xlink:href="#LiberationSans-49"/>
     <use x="850.683594" xlink:href="#LiberationSans-41"/>
    </g>
   </g>
   <g id="text_21">
    <!-- 44460 (2019-02-03) -->
    <g style="fill:#262626;" transform="translate(521.959303 219.634178)scale(0.1 -0.1)">
     <use xlink:href="#LiberationSans-52"/>
     <use x="55.615234" xlink:href="#LiberationSans-52"/>
     <use x="111.230469" xlink:href="#LiberationSans-52"/>
     <use x="166.845703" xlink:href="#LiberationSans-54"/>
     <use x="222.460938" xlink:href="#LiberationSans-48"/>
     <use x="278.076172" xlink:href="#LiberationSans-32"/>
     <use x="305.859375" xlink:href="#LiberationSans-40"/>
     <use x="339.160156" xlink:href="#LiberationSans-50"/>
     <use x="394.775391" xlink:href="#LiberationSans-48"/>
     <use x="450.390625" xlink:href="#LiberationSans-49"/>
     <use x="506.005859" xlink:href="#LiberationSans-57"/>
     <use x="561.621094" xlink:href="#LiberationSans-45"/>
     <use x="594.921875" xlink:href="#LiberationSans-48"/>
     <use x="650.537109" xlink:href="#LiberationSans-50"/>
     <use x="706.152344" xlink:href="#LiberationSans-45"/>
     <use x="739.453125" xlink:href="#LiberationSans-48"/>
     <use x="795.068359" xlink:href="#LiberationSans-51"/>
     <use x="850.683594" xlink:href="#LiberationSans-41"/>
    </g>
   </g>
   <g id="text_22">
    <!-- 50017 (2019-08-26) -->
    <g style="fill:#262626;" transform="translate(570.093631 169.235992)scale(0.1 -0.1)">
     <use xlink:href="#LiberationSans-53"/>
     <use x="55.615234" xlink:href="#LiberationSans-48"/>
     <use x="111.230469" xlink:href="#LiberationSans-48"/>
     <use x="166.845703" xlink:href="#LiberationSans-49"/>
     <use x="222.460938" xlink:href="#LiberationSans-55"/>
     <use x="278.076172" xlink:href="#LiberationSans-32"/>
     <use x="305.859375" xlink:href="#LiberationSans-40"/>
     <use x="339.160156" xlink:href="#LiberationSans-50"/>
     <use x="394.775391" xlink:href="#LiberationSans-48"/>
     <use x="450.390625" xlink:href="#LiberationSans-49"/>
     <use x="506.005859" xlink:href="#LiberationSans-57"/>
     <use x="561.621094" xlink:href="#LiberationSans-45"/>
     <use x="594.921875" xlink:href="#LiberationSans-48"/>
     <use x="650.537109" xlink:href="#LiberationSans-56"/>
     <use x="706.152344" xlink:href="#LiberationSans-45"/>
     <use x="739.453125" xlink:href="#LiberationSans-50"/>
     <use x="795.068359" xlink:href="#LiberationSans-54"/>
     <use x="850.683594" xlink:href="#LiberationSans-41"/>
    </g>
   </g>
   <g id="text_23">
    <!-- 55573 (2020-04-26) -->
    <g style="fill:#262626;" transform="translate(627.636364 118.846875)scale(0.1 -0.1)">
     <use xlink:href="#LiberationSans-53"/>
     <use x="55.615234" xlink:href="#LiberationSans-53"/>
     <use x="111.230469" xlink:href="#LiberationSans-53"/>
     <use x="166.845703" xlink:href="#LiberationSans-55"/>
     <use x="222.460938" xlink:href="#LiberationSans-51"/>
     <use x="278.076172" xlink:href="#LiberationSans-32"/>
     <use x="305.859375" xlink:href="#LiberationSans-40"/>
     <use x="339.160156" xlink:href="#LiberationSans-50"/>
     <use x="394.775391" xlink:href="#LiberationSans-48"/>
     <use x="450.390625" xlink:href="#LiberationSans-50"/>
     <use x="506.005859" xlink:href="#LiberationSans-48"/>
     <use x="561.621094" xlink:href="#LiberationSans-45"/>
     <use x="594.921875" xlink:href="#LiberationSans-48"/>
     <use x="650.537109" xlink:href="#LiberationSans-52"/>
     <use x="706.152344" xlink:href="#LiberationSans-45"/>
     <use x="739.453125" xlink:href="#LiberationSans-50"/>
     <use x="795.068359" xlink:href="#LiberationSans-54"/>
     <use x="850.683594" xlink:href="#LiberationSans-41"/>
    </g>
   </g>
   <g id="text_24">
    <!-- Created PRs over time -->
    <defs>
     <path d="M 38.671875 62.203125 
Q 32.8125 62.203125 28.296875 60.25 
Q 23.78125 58.296875 20.71875 54.6875 
Q 17.671875 51.078125 16.109375 46 
Q 14.546875 40.921875 14.546875 34.71875 
Q 14.546875 28.515625 16.234375 23.359375 
Q 17.921875 18.21875 21.0625 14.5 
Q 24.21875 10.796875 28.78125 8.734375 
Q 33.34375 6.6875 39.0625 6.6875 
Q 43.0625 6.6875 46.359375 7.734375 
Q 49.65625 8.796875 52.3125 10.6875 
Q 54.984375 12.59375 57.078125 15.203125 
Q 59.1875 17.828125 60.796875 21 
L 68.40625 17.1875 
Q 66.546875 13.328125 63.8125 10 
Q 61.078125 6.6875 57.390625 4.25 
Q 53.71875 1.8125 49.046875 0.40625 
Q 44.390625 -0.984375 38.625 -0.984375 
Q 30.28125 -0.984375 24 1.671875 
Q 17.71875 4.34375 13.5 9.109375 
Q 9.28125 13.875 7.171875 20.40625 
Q 5.078125 26.953125 5.078125 34.71875 
Q 5.078125 42.78125 7.296875 49.265625 
Q 9.515625 55.765625 13.78125 60.328125 
Q 18.0625 64.890625 24.3125 67.359375 
Q 30.5625 69.828125 38.578125 69.828125 
Q 49.5625 69.828125 56.9375 65.53125 
Q 64.3125 61.234375 67.78125 52.78125 
L 58.9375 49.859375 
Q 57.953125 52.296875 56.296875 54.515625 
Q 54.640625 56.734375 52.140625 58.4375 
Q 49.65625 60.15625 46.3125 61.171875 
Q 42.96875 62.203125 38.671875 62.203125 
z
" id="LiberationSans-67"/>
     <path d="M 6.9375 0 
L 6.9375 40.53125 
Q 6.9375 42.1875 6.90625 43.921875 
Q 6.890625 45.65625 6.828125 47.265625 
Q 6.78125 48.875 6.734375 50.28125 
Q 6.6875 51.703125 6.640625 52.828125 
L 14.9375 52.828125 
Q 14.984375 51.703125 15.0625 50.265625 
Q 15.140625 48.828125 15.203125 47.3125 
Q 15.28125 45.796875 15.296875 44.40625 
Q 15.328125 43.015625 15.328125 42.046875 
L 15.53125 42.046875 
Q 16.453125 45.0625 17.5 47.28125 
Q 18.5625 49.515625 19.96875 50.953125 
Q 21.390625 52.390625 23.34375 53.09375 
Q 25.296875 53.8125 28.078125 53.8125 
Q 29.15625 53.8125 30.125 53.640625 
Q 31.109375 53.46875 31.640625 53.328125 
L 31.640625 45.265625 
Q 30.765625 45.515625 29.59375 45.625 
Q 28.421875 45.75 26.953125 45.75 
Q 23.921875 45.75 21.796875 44.375 
Q 19.671875 43.015625 18.328125 40.59375 
Q 17 38.1875 16.359375 34.84375 
Q 15.71875 31.5 15.71875 27.546875 
L 15.71875 0 
z
" id="LiberationSans-114"/>
     <path d="M 13.484375 24.5625 
Q 13.484375 20.40625 14.328125 16.90625 
Q 15.1875 13.421875 16.96875 10.90625 
Q 18.75 8.40625 21.53125 7 
Q 24.3125 5.609375 28.21875 5.609375 
Q 33.9375 5.609375 37.375 7.90625 
Q 40.828125 10.203125 42.046875 13.71875 
L 49.75 11.53125 
Q 48.921875 9.328125 47.4375 7.109375 
Q 45.953125 4.890625 43.453125 3.09375 
Q 40.96875 1.3125 37.234375 0.15625 
Q 33.5 -0.984375 28.21875 -0.984375 
Q 16.5 -0.984375 10.375 6 
Q 4.25 12.984375 4.25 26.765625 
Q 4.25 34.1875 6.09375 39.328125 
Q 7.953125 44.484375 11.171875 47.703125 
Q 14.40625 50.921875 18.703125 52.359375 
Q 23 53.8125 27.875 53.8125 
Q 34.515625 53.8125 38.984375 51.65625 
Q 43.453125 49.515625 46.15625 45.71875 
Q 48.875 41.9375 50.015625 36.8125 
Q 51.171875 31.6875 51.171875 25.734375 
L 51.171875 24.5625 
z
M 42.09375 31.296875 
Q 41.359375 39.65625 37.84375 43.484375 
Q 34.328125 47.3125 27.734375 47.3125 
Q 25.53125 47.3125 23.109375 46.609375 
Q 20.703125 45.90625 18.65625 44.09375 
Q 16.609375 42.28125 15.1875 39.171875 
Q 13.765625 36.078125 13.578125 31.296875 
z
" id="LiberationSans-101"/>
     <path d="M 20.21875 -0.984375 
Q 12.25 -0.984375 8.25 3.21875 
Q 4.25 7.421875 4.25 14.75 
Q 4.25 19.96875 6.21875 23.3125 
Q 8.203125 26.65625 11.390625 28.5625 
Q 14.59375 30.46875 18.6875 31.203125 
Q 22.796875 31.9375 27.046875 32.03125 
L 38.921875 32.234375 
L 38.921875 35.109375 
Q 38.921875 38.375 38.234375 40.671875 
Q 37.546875 42.96875 36.125 44.375 
Q 34.71875 45.796875 32.59375 46.453125 
Q 30.46875 47.125 27.59375 47.125 
Q 25.046875 47.125 23 46.75 
Q 20.953125 46.390625 19.4375 45.4375 
Q 17.921875 44.484375 16.984375 42.84375 
Q 16.0625 41.21875 15.765625 38.71875 
L 6.59375 39.546875 
Q 7.078125 42.671875 8.4375 45.28125 
Q 9.8125 47.90625 12.328125 49.796875 
Q 14.84375 51.703125 18.625 52.75 
Q 22.40625 53.8125 27.78125 53.8125 
Q 37.75 53.8125 42.765625 49.234375 
Q 47.796875 44.671875 47.796875 36.03125 
L 47.796875 13.28125 
Q 47.796875 9.375 48.828125 7.390625 
Q 49.859375 5.421875 52.734375 5.421875 
Q 53.46875 5.421875 54.203125 5.515625 
Q 54.9375 5.609375 55.609375 5.765625 
L 55.609375 0.296875 
Q 53.953125 -0.09375 52.3125 -0.28125 
Q 50.6875 -0.484375 48.828125 -0.484375 
Q 46.34375 -0.484375 44.5625 0.171875 
Q 42.78125 0.828125 41.65625 2.171875 
Q 40.53125 3.515625 39.9375 5.484375 
Q 39.359375 7.46875 39.203125 10.109375 
L 38.921875 10.109375 
Q 37.5 7.5625 35.8125 5.515625 
Q 34.125 3.46875 31.875 2.03125 
Q 29.640625 0.59375 26.78125 -0.1875 
Q 23.921875 -0.984375 20.21875 -0.984375 
z
M 22.21875 5.609375 
Q 26.421875 5.609375 29.5625 7.140625 
Q 32.71875 8.6875 34.78125 11.078125 
Q 36.859375 13.484375 37.890625 16.3125 
Q 38.921875 19.140625 38.921875 21.734375 
L 38.921875 26.078125 
L 29.296875 25.875 
Q 26.078125 25.828125 23.171875 25.40625 
Q 20.265625 25 18.0625 23.78125 
Q 15.875 22.5625 14.578125 20.359375 
Q 13.28125 18.171875 13.28125 14.59375 
Q 13.28125 10.296875 15.59375 7.953125 
Q 17.921875 5.609375 22.21875 5.609375 
z
" id="LiberationSans-97"/>
     <path d="M 27.046875 0.390625 
Q 25.046875 -0.140625 22.96875 -0.453125 
Q 20.90625 -0.78125 18.171875 -0.78125 
Q 7.625 -0.78125 7.625 11.1875 
L 7.625 46.4375 
L 1.515625 46.4375 
L 1.515625 52.828125 
L 7.953125 52.828125 
L 10.546875 64.65625 
L 16.40625 64.65625 
L 16.40625 52.828125 
L 26.171875 52.828125 
L 26.171875 46.4375 
L 16.40625 46.4375 
L 16.40625 13.09375 
Q 16.40625 9.28125 17.640625 7.734375 
Q 18.890625 6.203125 21.96875 6.203125 
Q 23.25 6.203125 24.4375 6.390625 
Q 25.640625 6.59375 27.046875 6.890625 
z
" id="LiberationSans-116"/>
     <path d="M 40.09375 8.5 
Q 37.640625 3.421875 33.609375 1.21875 
Q 29.59375 -0.984375 23.640625 -0.984375 
Q 13.625 -0.984375 8.90625 5.75 
Q 4.203125 12.5 4.203125 26.171875 
Q 4.203125 53.8125 23.640625 53.8125 
Q 29.640625 53.8125 33.640625 51.609375 
Q 37.640625 49.421875 40.09375 44.625 
L 40.1875 44.625 
Q 40.1875 45.125 40.15625 46.171875 
Q 40.140625 47.21875 40.109375 48.359375 
Q 40.09375 49.515625 40.09375 50.53125 
Q 40.09375 51.5625 40.09375 52 
L 40.09375 72.46875 
L 48.875 72.46875 
L 48.875 10.890625 
Q 48.875 8.984375 48.890625 7.21875 
Q 48.921875 5.46875 48.96875 4 
Q 49.03125 2.546875 49.078125 1.484375 
Q 49.125 0.4375 49.171875 0 
L 40.765625 0 
Q 40.671875 0.484375 40.59375 1.390625 
Q 40.53125 2.296875 40.453125 3.46875 
Q 40.375 4.640625 40.328125 5.9375 
Q 40.28125 7.234375 40.28125 8.5 
z
M 13.421875 26.46875 
Q 13.421875 21 14.109375 17.09375 
Q 14.796875 13.1875 16.3125 10.671875 
Q 17.828125 8.15625 20.171875 6.984375 
Q 22.515625 5.8125 25.875 5.8125 
Q 29.34375 5.8125 32 6.9375 
Q 34.671875 8.0625 36.453125 10.578125 
Q 38.234375 13.09375 39.15625 17.140625 
Q 40.09375 21.1875 40.09375 27.046875 
Q 40.09375 32.671875 39.15625 36.546875 
Q 38.234375 40.4375 36.421875 42.828125 
Q 34.625 45.21875 32 46.265625 
Q 29.390625 47.3125 25.984375 47.3125 
Q 22.75 47.3125 20.40625 46.1875 
Q 18.0625 45.0625 16.5 42.578125 
Q 14.9375 40.09375 14.171875 36.109375 
Q 13.421875 32.125 13.421875 26.46875 
z
" id="LiberationSans-100"/>
     <path d="M 61.421875 48.09375 
Q 61.421875 43.609375 59.9375 39.71875 
Q 58.453125 35.84375 55.5 32.984375 
Q 52.546875 30.125 48.09375 28.46875 
Q 43.65625 26.8125 37.75 26.8125 
L 17.53125 26.8125 
L 17.53125 0 
L 8.203125 0 
L 8.203125 68.796875 
L 37.15625 68.796875 
Q 43.265625 68.796875 47.796875 67.3125 
Q 52.34375 65.828125 55.375 63.109375 
Q 58.40625 60.40625 59.90625 56.5625 
Q 61.421875 52.734375 61.421875 48.09375 
z
M 52.046875 48 
Q 52.046875 54.546875 48.046875 57.9375 
Q 44.046875 61.328125 36.03125 61.328125 
L 17.53125 61.328125 
L 17.53125 34.1875 
L 36.421875 34.1875 
Q 44.484375 34.1875 48.265625 37.75 
Q 52.046875 41.3125 52.046875 48 
z
" id="LiberationSans-80"/>
     <path d="M 56.84375 0 
L 38.96875 28.5625 
L 17.53125 28.5625 
L 17.53125 0 
L 8.203125 0 
L 8.203125 68.796875 
L 40.578125 68.796875 
Q 46.4375 68.796875 50.953125 67.453125 
Q 55.46875 66.109375 58.546875 63.5625 
Q 61.625 61.03125 63.234375 57.375 
Q 64.84375 53.71875 64.84375 49.125 
Q 64.84375 45.84375 63.890625 42.671875 
Q 62.9375 39.5 60.890625 36.859375 
Q 58.84375 34.234375 55.65625 32.328125 
Q 52.484375 30.421875 48.046875 29.640625 
L 67.578125 0 
z
M 55.46875 49.03125 
Q 55.46875 52.15625 54.390625 54.4375 
Q 53.328125 56.734375 51.265625 58.265625 
Q 49.21875 59.8125 46.28125 60.5625 
Q 43.359375 61.328125 39.65625 61.328125 
L 17.53125 61.328125 
L 17.53125 35.9375 
L 40.046875 35.9375 
Q 44.046875 35.9375 46.96875 36.9375 
Q 49.90625 37.9375 51.78125 39.6875 
Q 53.65625 41.453125 54.5625 43.84375 
Q 55.46875 46.234375 55.46875 49.03125 
z
" id="LiberationSans-82"/>
     <path d="M 46.390625 14.59375 
Q 46.390625 10.890625 44.9375 7.984375 
Q 43.5 5.078125 40.765625 3.09375 
Q 38.03125 1.125 34.046875 0.0625 
Q 30.078125 -0.984375 24.953125 -0.984375 
Q 20.359375 -0.984375 16.671875 -0.265625 
Q 12.984375 0.4375 10.203125 2 
Q 7.421875 3.5625 5.53125 6.125 
Q 3.65625 8.6875 2.78125 12.40625 
L 10.546875 13.921875 
Q 11.671875 9.671875 15.1875 7.6875 
Q 18.703125 5.71875 24.953125 5.71875 
Q 27.78125 5.71875 30.140625 6.109375 
Q 32.515625 6.5 34.21875 7.453125 
Q 35.9375 8.40625 36.890625 9.984375 
Q 37.84375 11.578125 37.84375 13.921875 
Q 37.84375 16.3125 36.71875 17.84375 
Q 35.59375 19.390625 33.59375 20.40625 
Q 31.59375 21.4375 28.734375 22.1875 
Q 25.875 22.953125 22.46875 23.875 
Q 19.28125 24.703125 16.15625 25.734375 
Q 13.03125 26.765625 10.515625 28.4375 
Q 8.015625 30.125 6.453125 32.609375 
Q 4.890625 35.109375 4.890625 38.875 
Q 4.890625 46.09375 10.03125 49.875 
Q 15.1875 53.65625 25.046875 53.65625 
Q 33.796875 53.65625 38.9375 50.578125 
Q 44.09375 47.515625 45.453125 40.71875 
L 37.546875 39.75 
Q 37.109375 41.796875 35.9375 43.1875 
Q 34.765625 44.578125 33.109375 45.4375 
Q 31.453125 46.296875 29.375 46.65625 
Q 27.296875 47.015625 25.046875 47.015625 
Q 19.09375 47.015625 16.25 45.203125 
Q 13.421875 43.40625 13.421875 39.75 
Q 13.421875 37.59375 14.46875 36.203125 
Q 15.53125 34.8125 17.40625 33.859375 
Q 19.28125 32.90625 21.921875 32.203125 
Q 24.5625 31.5 27.734375 30.71875 
Q 29.828125 30.171875 32.03125 29.5625 
Q 34.234375 28.953125 36.296875 28.09375 
Q 38.375 27.25 40.203125 26.09375 
Q 42.046875 24.953125 43.40625 23.34375 
Q 44.78125 21.734375 45.578125 19.578125 
Q 46.390625 17.4375 46.390625 14.59375 
z
" id="LiberationSans-115"/>
     <path d="M 51.421875 26.46875 
Q 51.421875 12.59375 45.3125 5.796875 
Q 39.203125 -0.984375 27.59375 -0.984375 
Q 22.078125 -0.984375 17.71875 0.671875 
Q 13.375 2.34375 10.375 5.765625 
Q 7.375 9.1875 5.78125 14.328125 
Q 4.203125 19.484375 4.203125 26.46875 
Q 4.203125 53.8125 27.875 53.8125 
Q 34.03125 53.8125 38.5 52.09375 
Q 42.96875 50.390625 45.828125 46.96875 
Q 48.6875 43.5625 50.046875 38.421875 
Q 51.421875 33.296875 51.421875 26.46875 
z
M 42.1875 26.46875 
Q 42.1875 32.625 41.234375 36.625 
Q 40.28125 40.625 38.453125 43.015625 
Q 36.625 45.40625 33.984375 46.359375 
Q 31.34375 47.3125 28.03125 47.3125 
Q 24.65625 47.3125 21.9375 46.3125 
Q 19.234375 45.3125 17.328125 42.890625 
Q 15.4375 40.484375 14.421875 36.46875 
Q 13.421875 32.46875 13.421875 26.46875 
Q 13.421875 20.3125 14.5 16.28125 
Q 15.578125 12.25 17.453125 9.859375 
Q 19.34375 7.46875 21.90625 6.484375 
Q 24.46875 5.515625 27.484375 5.515625 
Q 30.859375 5.515625 33.59375 6.46875 
Q 36.328125 7.421875 38.234375 9.8125 
Q 40.140625 12.203125 41.15625 16.25 
Q 42.1875 20.3125 42.1875 26.46875 
z
" id="LiberationSans-111"/>
     <path d="M 29.9375 0 
L 19.53125 0 
L 0.34375 52.828125 
L 9.71875 52.828125 
L 21.34375 18.453125 
Q 21.6875 17.390625 22.140625 15.84375 
Q 22.609375 14.3125 23.09375 12.640625 
Q 23.578125 10.984375 24 9.4375 
Q 24.421875 7.90625 24.703125 6.890625 
Q 25 7.90625 25.453125 9.4375 
Q 25.921875 10.984375 26.40625 12.59375 
Q 26.90625 14.203125 27.421875 15.734375 
Q 27.9375 17.28125 28.328125 18.359375 
L 40.328125 52.828125 
L 49.65625 52.828125 
z
" id="LiberationSans-118"/>
     <path d="M 6.6875 64.0625 
L 6.6875 72.46875 
L 15.484375 72.46875 
L 15.484375 64.0625 
z
M 6.6875 0 
L 6.6875 52.828125 
L 15.484375 52.828125 
L 15.484375 0 
z
" id="LiberationSans-105"/>
     <path d="M 37.5 0 
L 37.5 33.5 
Q 37.5 37.359375 37.015625 39.9375 
Q 36.53125 42.53125 35.375 44.109375 
Q 34.234375 45.703125 32.375 46.359375 
Q 30.515625 47.015625 27.828125 47.015625 
Q 25.046875 47.015625 22.796875 45.921875 
Q 20.5625 44.828125 18.96875 42.75 
Q 17.390625 40.671875 16.53125 37.625 
Q 15.671875 34.578125 15.671875 30.609375 
L 15.671875 0 
L 6.9375 0 
L 6.9375 41.546875 
Q 6.9375 43.21875 6.90625 45.046875 
Q 6.890625 46.875 6.828125 48.5 
Q 6.78125 50.140625 6.734375 51.3125 
Q 6.6875 52.484375 6.640625 52.828125 
L 14.9375 52.828125 
Q 14.984375 52.59375 15.03125 51.515625 
Q 15.09375 50.4375 15.15625 49.046875 
Q 15.234375 47.65625 15.28125 46.21875 
Q 15.328125 44.78125 15.328125 43.796875 
L 15.484375 43.796875 
Q 16.65625 46.09375 18.015625 47.953125 
Q 19.390625 49.8125 21.21875 51.09375 
Q 23.046875 52.390625 25.40625 53.09375 
Q 27.78125 53.8125 30.90625 53.8125 
Q 36.921875 53.8125 40.40625 51.421875 
Q 43.890625 49.03125 45.265625 43.796875 
L 45.40625 43.796875 
Q 46.578125 46.09375 48.046875 47.953125 
Q 49.515625 49.8125 51.46875 51.09375 
Q 53.421875 52.390625 55.859375 53.09375 
Q 58.296875 53.8125 61.421875 53.8125 
Q 65.4375 53.8125 68.328125 52.734375 
Q 71.234375 51.65625 73.09375 49.40625 
Q 74.953125 47.171875 75.828125 43.625 
Q 76.703125 40.09375 76.703125 35.203125 
L 76.703125 0 
L 68.015625 0 
L 68.015625 33.5 
Q 68.015625 37.359375 67.53125 39.9375 
Q 67.046875 42.53125 65.890625 44.109375 
Q 64.75 45.703125 62.890625 46.359375 
Q 61.03125 47.015625 58.34375 47.015625 
Q 55.5625 47.015625 53.3125 45.96875 
Q 51.078125 44.921875 49.484375 42.875 
Q 47.90625 40.828125 47.046875 37.75 
Q 46.1875 34.671875 46.1875 30.609375 
L 46.1875 0 
z
" id="LiberationSans-109"/>
    </defs>
    <g style="fill:#262626;" transform="translate(308.314687 80.4)scale(0.12 -0.12)">
     <use xlink:href="#LiberationSans-67"/>
     <use x="72.216797" xlink:href="#LiberationSans-114"/>
     <use x="105.517578" xlink:href="#LiberationSans-101"/>
     <use x="161.132812" xlink:href="#LiberationSans-97"/>
     <use x="216.748047" xlink:href="#LiberationSans-116"/>
     <use x="244.53125" xlink:href="#LiberationSans-101"/>
     <use x="300.146484" xlink:href="#LiberationSans-100"/>
     <use x="355.761719" xlink:href="#LiberationSans-32"/>
     <use x="383.544922" xlink:href="#LiberationSans-80"/>
     <use x="450.244141" xlink:href="#LiberationSans-82"/>
     <use x="522.460938" xlink:href="#LiberationSans-115"/>
     <use x="572.460938" xlink:href="#LiberationSans-32"/>
     <use x="600.244141" xlink:href="#LiberationSans-111"/>
     <use x="655.859375" xlink:href="#LiberationSans-118"/>
     <use x="705.859375" xlink:href="#LiberationSans-101"/>
     <use x="761.474609" xlink:href="#LiberationSans-114"/>
     <use x="794.775391" xlink:href="#LiberationSans-32"/>
     <use x="822.558594" xlink:href="#LiberationSans-116"/>
     <use x="850.341797" xlink:href="#LiberationSans-105"/>
     <use x="872.558594" xlink:href="#LiberationSans-109"/>
     <use x="955.859375" xlink:href="#LiberationSans-101"/>
    </g>
   </g>
  </g>
 </g>
 <defs>
  <clipPath id="p7a39cd57f0">
   <rect height="554.4" width="558" x="90" y="86.4"/>
  </clipPath>
 </defs>
</svg>
