<?xml version="1.0" encoding="utf-8" standalone="no"?>
<!DOCTYPE svg PUBLIC "-//W3C//DTD SVG 1.1//EN"
  "http://www.w3.org/Graphics/SVG/1.1/DTD/svg11.dtd">
<!-- Created with matplotlib (https://matplotlib.org/) -->
<svg height="720pt" version="1.1" viewBox="0 0 720 720" width="720pt" xmlns="http://www.w3.org/2000/svg" xmlns:xlink="http://www.w3.org/1999/xlink">
 <defs>
  <style type="text/css">
*{stroke-linecap:butt;stroke-linejoin:round;}
  </style>
 </defs>
 <g id="figure_1">
  <g id="patch_1">
   <path d="M 0 720 
L 720 720 
L 720 0 
L 0 0 
z
" style="fill:#ffffff;"/>
  </g>
  <g id="axes_1">
   <g id="patch_2">
    <path d="M 90 640.8 
L 648 640.8 
L 648 86.4 
L 90 86.4 
z
" style="fill:#ffffff;"/>
   </g>
   <g id="matplotlib.axis_1">
    <g id="xtick_1">
     <g id="line2d_1">
      <path clip-path="url(#pd31dcbe3c3)" d="M 163.140117 640.8 
L 163.140117 86.4 
" style="fill:none;stroke:#cccccc;stroke-linecap:round;stroke-width:0.8;"/>
     </g>
     <g id="line2d_2"/>
     <g id="text_1">
      <!-- 2015 -->
      <defs>
       <path d="M 19.1875 8.296875 
L 53.609375 8.296875 
L 53.609375 0 
L 7.328125 0 
L 7.328125 8.296875 
Q 12.9375 14.109375 22.625 23.890625 
Q 32.328125 33.6875 34.8125 36.53125 
Q 39.546875 41.84375 41.421875 45.53125 
Q 43.3125 49.21875 43.3125 52.78125 
Q 43.3125 58.59375 39.234375 62.25 
Q 35.15625 65.921875 28.609375 65.921875 
Q 23.96875 65.921875 18.8125 64.3125 
Q 13.671875 62.703125 7.8125 59.421875 
L 7.8125 69.390625 
Q 13.765625 71.78125 18.9375 73 
Q 24.125 74.21875 28.421875 74.21875 
Q 39.75 74.21875 46.484375 68.546875 
Q 53.21875 62.890625 53.21875 53.421875 
Q 53.21875 48.921875 51.53125 44.890625 
Q 49.859375 40.875 45.40625 35.40625 
Q 44.1875 33.984375 37.640625 27.21875 
Q 31.109375 20.453125 19.1875 8.296875 
z
" id="DejaVuSans-50"/>
       <path d="M 31.78125 66.40625 
Q 24.171875 66.40625 20.328125 58.90625 
Q 16.5 51.421875 16.5 36.375 
Q 16.5 21.390625 20.328125 13.890625 
Q 24.171875 6.390625 31.78125 6.390625 
Q 39.453125 6.390625 43.28125 13.890625 
Q 47.125 21.390625 47.125 36.375 
Q 47.125 51.421875 43.28125 58.90625 
Q 39.453125 66.40625 31.78125 66.40625 
z
M 31.78125 74.21875 
Q 44.046875 74.21875 50.515625 64.515625 
Q 56.984375 54.828125 56.984375 36.375 
Q 56.984375 17.96875 50.515625 8.265625 
Q 44.046875 -1.421875 31.78125 -1.421875 
Q 19.53125 -1.421875 13.0625 8.265625 
Q 6.59375 17.96875 6.59375 36.375 
Q 6.59375 54.828125 13.0625 64.515625 
Q 19.53125 74.21875 31.78125 74.21875 
z
" id="DejaVuSans-48"/>
       <path d="M 12.40625 8.296875 
L 28.515625 8.296875 
L 28.515625 63.921875 
L 10.984375 60.40625 
L 10.984375 69.390625 
L 28.421875 72.90625 
L 38.28125 72.90625 
L 38.28125 8.296875 
L 54.390625 8.296875 
L 54.390625 0 
L 12.40625 0 
z
" id="DejaVuSans-49"/>
       <path d="M 10.796875 72.90625 
L 49.515625 72.90625 
L 49.515625 64.59375 
L 19.828125 64.59375 
L 19.828125 46.734375 
Q 21.96875 47.46875 24.109375 47.828125 
Q 26.265625 48.1875 28.421875 48.1875 
Q 40.625 48.1875 47.75 41.5 
Q 54.890625 34.8125 54.890625 23.390625 
Q 54.890625 11.625 47.5625 5.09375 
Q 40.234375 -1.421875 26.90625 -1.421875 
Q 22.3125 -1.421875 17.546875 -0.640625 
Q 12.796875 0.140625 7.71875 1.703125 
L 7.71875 11.625 
Q 12.109375 9.234375 16.796875 8.0625 
Q 21.484375 6.890625 26.703125 6.890625 
Q 35.15625 6.890625 40.078125 11.328125 
Q 45.015625 15.765625 45.015625 23.390625 
Q 45.015625 31 40.078125 35.4375 
Q 35.15625 39.890625 26.703125 39.890625 
Q 22.75 39.890625 18.8125 39.015625 
Q 14.890625 38.140625 10.796875 36.28125 
z
" id="DejaVuSans-53"/>
      </defs>
      <g style="fill:#262626;" transform="translate(150.415117 651.898438)scale(0.1 -0.1)">
       <use xlink:href="#DejaVuSans-50"/>
       <use x="63.623047" xlink:href="#DejaVuSans-48"/>
       <use x="127.246094" xlink:href="#DejaVuSans-49"/>
       <use x="190.869141" xlink:href="#DejaVuSans-53"/>
      </g>
     </g>
    </g>
    <g id="xtick_2">
     <g id="line2d_3">
      <path clip-path="url(#pd31dcbe3c3)" d="M 246.976646 640.8 
L 246.976646 86.4 
" style="fill:none;stroke:#cccccc;stroke-linecap:round;stroke-width:0.8;"/>
     </g>
     <g id="line2d_4"/>
     <g id="text_2">
      <!-- 2016 -->
      <defs>
       <path d="M 33.015625 40.375 
Q 26.375 40.375 22.484375 35.828125 
Q 18.609375 31.296875 18.609375 23.390625 
Q 18.609375 15.53125 22.484375 10.953125 
Q 26.375 6.390625 33.015625 6.390625 
Q 39.65625 6.390625 43.53125 10.953125 
Q 47.40625 15.53125 47.40625 23.390625 
Q 47.40625 31.296875 43.53125 35.828125 
Q 39.65625 40.375 33.015625 40.375 
z
M 52.59375 71.296875 
L 52.59375 62.3125 
Q 48.875 64.0625 45.09375 64.984375 
Q 41.3125 65.921875 37.59375 65.921875 
Q 27.828125 65.921875 22.671875 59.328125 
Q 17.53125 52.734375 16.796875 39.40625 
Q 19.671875 43.65625 24.015625 45.921875 
Q 28.375 48.1875 33.59375 48.1875 
Q 44.578125 48.1875 50.953125 41.515625 
Q 57.328125 34.859375 57.328125 23.390625 
Q 57.328125 12.15625 50.6875 5.359375 
Q 44.046875 -1.421875 33.015625 -1.421875 
Q 20.359375 -1.421875 13.671875 8.265625 
Q 6.984375 17.96875 6.984375 36.375 
Q 6.984375 53.65625 15.1875 63.9375 
Q 23.390625 74.21875 37.203125 74.21875 
Q 40.921875 74.21875 44.703125 73.484375 
Q 48.484375 72.75 52.59375 71.296875 
z
" id="DejaVuSans-54"/>
      </defs>
      <g style="fill:#262626;" transform="translate(234.251646 651.898438)scale(0.1 -0.1)">
       <use xlink:href="#DejaVuSans-50"/>
       <use x="63.623047" xlink:href="#DejaVuSans-48"/>
       <use x="127.246094" xlink:href="#DejaVuSans-49"/>
       <use x="190.869141" xlink:href="#DejaVuSans-54"/>
      </g>
     </g>
    </g>
    <g id="xtick_3">
     <g id="line2d_5">
      <path clip-path="url(#pd31dcbe3c3)" d="M 331.042864 640.8 
L 331.042864 86.4 
" style="fill:none;stroke:#cccccc;stroke-linecap:round;stroke-width:0.8;"/>
     </g>
     <g id="line2d_6"/>
     <g id="text_3">
      <!-- 2017 -->
      <defs>
       <path d="M 8.203125 72.90625 
L 55.078125 72.90625 
L 55.078125 68.703125 
L 28.609375 0 
L 18.3125 0 
L 43.21875 64.59375 
L 8.203125 64.59375 
z
" id="DejaVuSans-55"/>
      </defs>
      <g style="fill:#262626;" transform="translate(318.317864 651.898438)scale(0.1 -0.1)">
       <use xlink:href="#DejaVuSans-50"/>
       <use x="63.623047" xlink:href="#DejaVuSans-48"/>
       <use x="127.246094" xlink:href="#DejaVuSans-49"/>
       <use x="190.869141" xlink:href="#DejaVuSans-55"/>
      </g>
     </g>
    </g>
    <g id="xtick_4">
     <g id="line2d_7">
      <path clip-path="url(#pd31dcbe3c3)" d="M 414.879393 640.8 
L 414.879393 86.4 
" style="fill:none;stroke:#cccccc;stroke-linecap:round;stroke-width:0.8;"/>
     </g>
     <g id="line2d_8"/>
     <g id="text_4">
      <!-- 2018 -->
      <defs>
       <path d="M 31.78125 34.625 
Q 24.75 34.625 20.71875 30.859375 
Q 16.703125 27.09375 16.703125 20.515625 
Q 16.703125 13.921875 20.71875 10.15625 
Q 24.75 6.390625 31.78125 6.390625 
Q 38.8125 6.390625 42.859375 10.171875 
Q 46.921875 13.96875 46.921875 20.515625 
Q 46.921875 27.09375 42.890625 30.859375 
Q 38.875 34.625 31.78125 34.625 
z
M 21.921875 38.8125 
Q 15.578125 40.375 12.03125 44.71875 
Q 8.5 49.078125 8.5 55.328125 
Q 8.5 64.0625 14.71875 69.140625 
Q 20.953125 74.21875 31.78125 74.21875 
Q 42.671875 74.21875 48.875 69.140625 
Q 55.078125 64.0625 55.078125 55.328125 
Q 55.078125 49.078125 51.53125 44.71875 
Q 48 40.375 41.703125 38.8125 
Q 48.828125 37.15625 52.796875 32.3125 
Q 56.78125 27.484375 56.78125 20.515625 
Q 56.78125 9.90625 50.3125 4.234375 
Q 43.84375 -1.421875 31.78125 -1.421875 
Q 19.734375 -1.421875 13.25 4.234375 
Q 6.78125 9.90625 6.78125 20.515625 
Q 6.78125 27.484375 10.78125 32.3125 
Q 14.796875 37.15625 21.921875 38.8125 
z
M 18.3125 54.390625 
Q 18.3125 48.734375 21.84375 45.5625 
Q 25.390625 42.390625 31.78125 42.390625 
Q 38.140625 42.390625 41.71875 45.5625 
Q 45.3125 48.734375 45.3125 54.390625 
Q 45.3125 60.0625 41.71875 63.234375 
Q 38.140625 66.40625 31.78125 66.40625 
Q 25.390625 66.40625 21.84375 63.234375 
Q 18.3125 60.0625 18.3125 54.390625 
z
" id="DejaVuSans-56"/>
      </defs>
      <g style="fill:#262626;" transform="translate(402.154393 651.898438)scale(0.1 -0.1)">
       <use xlink:href="#DejaVuSans-50"/>
       <use x="63.623047" xlink:href="#DejaVuSans-48"/>
       <use x="127.246094" xlink:href="#DejaVuSans-49"/>
       <use x="190.869141" xlink:href="#DejaVuSans-56"/>
      </g>
     </g>
    </g>
    <g id="xtick_5">
     <g id="line2d_9">
      <path clip-path="url(#pd31dcbe3c3)" d="M 498.715922 640.8 
L 498.715922 86.4 
" style="fill:none;stroke:#cccccc;stroke-linecap:round;stroke-width:0.8;"/>
     </g>
     <g id="line2d_10"/>
     <g id="text_5">
      <!-- 2019 -->
      <defs>
       <path d="M 10.984375 1.515625 
L 10.984375 10.5 
Q 14.703125 8.734375 18.5 7.8125 
Q 22.3125 6.890625 25.984375 6.890625 
Q 35.75 6.890625 40.890625 13.453125 
Q 46.046875 20.015625 46.78125 33.40625 
Q 43.953125 29.203125 39.59375 26.953125 
Q 35.25 24.703125 29.984375 24.703125 
Q 19.046875 24.703125 12.671875 31.3125 
Q 6.296875 37.9375 6.296875 49.421875 
Q 6.296875 60.640625 12.9375 67.421875 
Q 19.578125 74.21875 30.609375 74.21875 
Q 43.265625 74.21875 49.921875 64.515625 
Q 56.59375 54.828125 56.59375 36.375 
Q 56.59375 19.140625 48.40625 8.859375 
Q 40.234375 -1.421875 26.421875 -1.421875 
Q 22.703125 -1.421875 18.890625 -0.6875 
Q 15.09375 0.046875 10.984375 1.515625 
z
M 30.609375 32.421875 
Q 37.25 32.421875 41.125 36.953125 
Q 45.015625 41.5 45.015625 49.421875 
Q 45.015625 57.28125 41.125 61.84375 
Q 37.25 66.40625 30.609375 66.40625 
Q 23.96875 66.40625 20.09375 61.84375 
Q 16.21875 57.28125 16.21875 49.421875 
Q 16.21875 41.5 20.09375 36.953125 
Q 23.96875 32.421875 30.609375 32.421875 
z
" id="DejaVuSans-57"/>
      </defs>
      <g style="fill:#262626;" transform="translate(485.990922 651.898438)scale(0.1 -0.1)">
       <use xlink:href="#DejaVuSans-50"/>
       <use x="63.623047" xlink:href="#DejaVuSans-48"/>
       <use x="127.246094" xlink:href="#DejaVuSans-49"/>
       <use x="190.869141" xlink:href="#DejaVuSans-57"/>
      </g>
     </g>
    </g>
    <g id="xtick_6">
     <g id="line2d_11">
      <path clip-path="url(#pd31dcbe3c3)" d="M 582.552451 640.8 
L 582.552451 86.4 
" style="fill:none;stroke:#cccccc;stroke-linecap:round;stroke-width:0.8;"/>
     </g>
     <g id="line2d_12"/>
     <g id="text_6">
      <!-- 2020 -->
      <g style="fill:#262626;" transform="translate(569.827451 651.898438)scale(0.1 -0.1)">
       <use xlink:href="#DejaVuSans-50"/>
       <use x="63.623047" xlink:href="#DejaVuSans-48"/>
       <use x="127.246094" xlink:href="#DejaVuSans-50"/>
       <use x="190.869141" xlink:href="#DejaVuSans-48"/>
      </g>
     </g>
    </g>
   </g>
   <g id="matplotlib.axis_2">
    <g id="ytick_1">
     <g id="line2d_13">
      <path clip-path="url(#pd31dcbe3c3)" d="M 90 615.605493 
L 648 615.605493 
" style="fill:none;stroke:#cccccc;stroke-linecap:round;stroke-width:0.8;"/>
     </g>
     <g id="line2d_14"/>
     <g id="text_7">
      <!-- 0 -->
      <g style="fill:#262626;" transform="translate(80.1375 619.404712)scale(0.1 -0.1)">
       <use xlink:href="#DejaVuSans-48"/>
      </g>
     </g>
    </g>
    <g id="ytick_2">
     <g id="line2d_15">
      <path clip-path="url(#pd31dcbe3c3)" d="M 90 505.74293 
L 648 505.74293 
" style="fill:none;stroke:#cccccc;stroke-linecap:round;stroke-width:0.8;"/>
     </g>
     <g id="line2d_16"/>
     <g id="text_8">
      <!-- 20000 -->
      <g style="fill:#262626;" transform="translate(54.6875 509.542149)scale(0.1 -0.1)">
       <use xlink:href="#DejaVuSans-50"/>
       <use x="63.623047" xlink:href="#DejaVuSans-48"/>
       <use x="127.246094" xlink:href="#DejaVuSans-48"/>
       <use x="190.869141" xlink:href="#DejaVuSans-48"/>
       <use x="254.492188" xlink:href="#DejaVuSans-48"/>
      </g>
     </g>
    </g>
    <g id="ytick_3">
     <g id="line2d_17">
      <path clip-path="url(#pd31dcbe3c3)" d="M 90 395.880368 
L 648 395.880368 
" style="fill:none;stroke:#cccccc;stroke-linecap:round;stroke-width:0.8;"/>
     </g>
     <g id="line2d_18"/>
     <g id="text_9">
      <!-- 40000 -->
      <defs>
       <path d="M 37.796875 64.3125 
L 12.890625 25.390625 
L 37.796875 25.390625 
z
M 35.203125 72.90625 
L 47.609375 72.90625 
L 47.609375 25.390625 
L 58.015625 25.390625 
L 58.015625 17.1875 
L 47.609375 17.1875 
L 47.609375 0 
L 37.796875 0 
L 37.796875 17.1875 
L 4.890625 17.1875 
L 4.890625 26.703125 
z
" id="DejaVuSans-52"/>
      </defs>
      <g style="fill:#262626;" transform="translate(54.6875 399.679586)scale(0.1 -0.1)">
       <use xlink:href="#DejaVuSans-52"/>
       <use x="63.623047" xlink:href="#DejaVuSans-48"/>
       <use x="127.246094" xlink:href="#DejaVuSans-48"/>
       <use x="190.869141" xlink:href="#DejaVuSans-48"/>
       <use x="254.492188" xlink:href="#DejaVuSans-48"/>
      </g>
     </g>
    </g>
    <g id="ytick_4">
     <g id="line2d_19">
      <path clip-path="url(#pd31dcbe3c3)" d="M 90 286.017805 
L 648 286.017805 
" style="fill:none;stroke:#cccccc;stroke-linecap:round;stroke-width:0.8;"/>
     </g>
     <g id="line2d_20"/>
     <g id="text_10">
      <!-- 60000 -->
      <g style="fill:#262626;" transform="translate(54.6875 289.817023)scale(0.1 -0.1)">
       <use xlink:href="#DejaVuSans-54"/>
       <use x="63.623047" xlink:href="#DejaVuSans-48"/>
       <use x="127.246094" xlink:href="#DejaVuSans-48"/>
       <use x="190.869141" xlink:href="#DejaVuSans-48"/>
       <use x="254.492188" xlink:href="#DejaVuSans-48"/>
      </g>
     </g>
    </g>
    <g id="ytick_5">
     <g id="line2d_21">
      <path clip-path="url(#pd31dcbe3c3)" d="M 90 176.155242 
L 648 176.155242 
" style="fill:none;stroke:#cccccc;stroke-linecap:round;stroke-width:0.8;"/>
     </g>
     <g id="line2d_22"/>
     <g id="text_11">
      <!-- 80000 -->
      <g style="fill:#262626;" transform="translate(54.6875 179.954461)scale(0.1 -0.1)">
       <use xlink:href="#DejaVuSans-56"/>
       <use x="63.623047" xlink:href="#DejaVuSans-48"/>
       <use x="127.246094" xlink:href="#DejaVuSans-48"/>
       <use x="190.869141" xlink:href="#DejaVuSans-48"/>
       <use x="254.492188" xlink:href="#DejaVuSans-48"/>
      </g>
     </g>
    </g>
   </g>
   <g id="line2d_23">
    <path clip-path="url(#pd31dcbe3c3)" d="M 115.363636 615.6 
L 115.476663 615.534082 
L 116.689224 615.182522 
L 116.791314 615.083646 
L 117.494755 614.940825 
L 117.919938 614.803496 
L 118.78538 614.501374 
L 119.449992 614.375032 
L 119.551595 614.26517 
L 120.16378 614.122349 
L 120.368334 614.050938 
L 121.093508 613.781775 
L 121.199734 613.748816 
L 122.770826 613.523598 
L 122.860296 613.507118 
L 123.396327 613.309366 
L 123.608157 613.204996 
L 124.242482 613.045695 
L 127.736101 611.738331 
L 128.056225 611.590016 
L 128.84747 611.414236 
L 128.964542 611.276908 
L 129.82523 611.002252 
L 130.67302 610.85943 
L 130.797735 610.799006 
L 131.180577 610.672664 
L 131.224268 610.606747 
L 132.078422 610.463925 
L 133.063079 610.062927 
L 133.735523 609.931092 
L 133.791887 609.903626 
L 134.172041 609.777284 
L 134.253855 609.672915 
L 134.46121 609.535587 
L 134.605957 609.475162 
L 134.726785 609.442203 
L 135.596119 609.321355 
L 135.830343 609.189519 
L 137.146632 608.82148 
L 137.266009 608.71711 
L 137.776419 608.486399 
L 139.197886 608.112866 
L 139.660915 607.964552 
L 140.365204 607.832717 
L 140.522384 607.777786 
L 140.856239 607.618485 
L 141.158044 607.492143 
L 141.933672 607.327349 
L 142.054352 607.250445 
L 142.410612 607.124103 
L 142.741766 606.904378 
L 142.979337 606.882406 
L 143.397196 606.756064 
L 143.562336 606.662681 
L 144.057249 606.283655 
L 144.44939 605.998012 
L 145.18019 605.833218 
L 145.319561 605.690397 
L 145.595079 605.547576 
L 145.973431 605.234467 
L 146.583335 605.086153 
L 146.76484 605.020235 
L 146.870755 604.877414 
L 147.070787 604.795017 
L 148.391839 604.43247 
L 148.777566 604.240211 
L 149.065631 604.08091 
L 149.173208 604.025979 
L 149.741359 603.888651 
L 150.01593 603.745829 
L 150.332404 603.542584 
L 150.450933 603.493146 
L 151.232581 603.223982 
L 151.586974 603.02623 
L 151.884031 602.76256 
L 152.192625 602.5703 
L 152.633033 602.421986 
L 152.633591 602.416492 
L 153.010805 602.295644 
L 153.545133 601.916618 
L 153.756098 601.795769 
L 153.866355 601.773796 
L 154.608468 601.455195 
L 154.72528 601.334346 
L 155.575165 600.966307 
L 156.190045 600.839965 
L 156.315726 600.741088 
L 157.139584 600.389528 
L 157.213962 600.351076 
L 157.86454 600.213748 
L 157.991223 600.175296 
L 158.314112 600.021489 
L 158.513885 599.834722 
L 159.015687 599.554573 
L 159.451783 599.406258 
L 159.537632 599.351327 
L 159.677189 599.224985 
L 159.79185 599.148081 
L 159.948964 599.027232 
L 160.082197 598.950329 
L 160.364183 598.758069 
L 160.434926 598.686658 
L 161.050366 598.56581 
L 161.144573 598.516371 
L 161.277152 598.395523 
L 161.350862 598.329605 
L 162.89827 598.137346 
L 163.411572 598.093401 
L 164.237648 597.917621 
L 164.361834 597.791279 
L 164.662509 597.65395 
L 164.81136 597.417746 
L 164.957705 597.285911 
L 165.077683 597.170555 
L 166.08286 596.736598 
L 166.432689 596.286161 
L 166.569367 596.165313 
L 166.833395 595.874177 
L 167.702341 595.610507 
L 168.178055 595.07218 
L 168.277781 594.989783 
L 168.411352 594.868934 
L 168.807935 594.781044 
L 169.165846 594.577799 
L 169.288392 594.517374 
L 169.626824 594.039472 
L 170.079799 593.594529 
L 170.70295 593.4572 
L 170.815947 593.358324 
L 170.920594 593.226489 
L 171.134973 592.962819 
L 171.261342 592.765066 
L 171.38996 592.605766 
L 171.49403 592.479424 
L 171.680854 592.353082 
L 171.729432 592.320123 
L 172.327474 592.182795 
L 172.522051 592.007015 
L 172.749884 591.78729 
L 172.863721 591.567564 
L 173.009364 591.430236 
L 173.330817 591.183045 
L 173.962922 591.045717 
L 174.42042 590.463446 
L 175.033762 589.787791 
L 175.546998 589.502148 
L 175.64695 589.408765 
L 175.991257 589.227492 
L 176.65076 588.678179 
L 177.315309 588.365071 
L 177.462592 588.178304 
L 177.569626 588.057456 
L 177.710114 587.777306 
L 177.844391 587.650964 
L 178.028164 587.508143 
L 178.799861 587.019254 
L 178.989517 586.777557 
L 179.181549 586.541352 
L 179.336249 586.294161 
L 179.443971 586.014012 
L 179.54039 585.920629 
L 179.634826 585.794287 
L 179.751085 585.645972 
L 180.339477 585.420754 
L 180.490078 585.305398 
L 180.597527 585.124125 
L 180.703146 585.036235 
L 180.812398 584.882427 
L 181.13547 584.426498 
L 181.255902 584.278183 
L 181.374221 584.129869 
L 181.8172 583.987048 
L 181.924593 583.860706 
L 182.125568 583.602529 
L 182.403367 583.069695 
L 182.499741 582.877436 
L 182.615372 582.756587 
L 182.738609 582.525875 
L 182.841467 582.377561 
L 182.953337 582.05896 
L 183.505808 581.894166 
L 183.616987 581.668947 
L 183.841372 581.300908 
L 184.013057 581.092169 
L 184.162187 580.866951 
L 184.23786 580.713143 
L 184.358923 580.542856 
L 184.664 580.361583 
L 185.177727 580.097913 
L 185.292888 579.982557 
L 185.450323 579.729873 
L 185.647888 579.466203 
L 186.404942 578.719138 
L 186.726632 578.576316 
L 186.97451 578.312646 
L 187.474209 577.626005 
L 188.030041 577.115144 
L 188.350324 576.994295 
L 188.451446 576.752598 
L 188.59016 576.620763 
L 188.694081 576.439489 
L 188.808525 576.307654 
L 188.96264 576.076943 
L 189.065939 575.928629 
L 189.170686 575.730876 
L 189.29755 575.604534 
L 189.422145 575.478192 
L 189.879094 575.35185 
L 189.957874 575.225508 
L 190.007252 575.077194 
L 190.330332 574.527881 
L 190.457631 574.401539 
L 190.571513 574.225759 
L 190.667201 574.082938 
L 190.774956 573.890678 
L 190.887068 573.769829 
L 191.135727 573.566583 
L 191.535522 573.434748 
L 191.915583 572.742614 
L 192.057102 572.57782 
L 192.199813 572.396547 
L 192.279909 572.259219 
L 192.4189 572.05048 
L 192.484274 571.935124 
L 192.841246 571.59455 
L 193.170736 571.424263 
L 193.657352 570.693677 
L 193.78815 570.468459 
L 193.88102 570.320145 
L 193.983399 570.116899 
L 194.094171 569.979571 
L 194.228388 569.759846 
L 194.702852 569.578572 
L 195.056239 568.85348 
L 195.189017 568.721644 
L 195.515024 568.282194 
L 195.631565 568.166839 
L 195.814117 567.787813 
L 196.12365 567.655978 
L 196.255083 567.584567 
L 196.492349 567.425266 
L 196.89322 566.88694 
L 197.438777 566.095929 
L 197.991647 565.936628 
L 198.396344 565.326891 
L 198.4787 565.145618 
L 198.586345 564.942372 
L 198.710832 564.810537 
L 199.234223 564.261224 
L 199.591506 564.123896 
L 199.802464 563.678953 
L 199.869847 563.459228 
L 199.989759 563.190064 
L 200.09384 562.95386 
L 200.306432 562.574834 
L 200.587528 562.129891 
L 201.240879 562.014535 
L 201.535734 561.399305 
L 201.66301 561.278456 
L 201.804348 560.954361 
L 201.901349 560.778581 
L 202.027155 560.54787 
L 202.136709 560.410542 
L 202.363944 560.141378 
L 202.816102 560.00405 
L 202.997286 559.789818 
L 203.059052 559.641504 
L 204.005113 558.509919 
L 204.475271 558.218783 
L 204.581699 558.048496 
L 204.663156 557.922155 
L 204.811237 557.642005 
L 204.919999 557.460732 
L 205.066162 557.312417 
L 206.099341 556.636763 
L 206.239858 556.417037 
L 206.291198 556.24675 
L 206.870751 555.257987 
L 206.977099 555.098687 
L 207.170482 554.884455 
L 207.598129 554.714168 
L 207.8016 554.313169 
L 207.953163 553.961609 
L 208.109312 553.719911 
L 208.256321 553.4892 
L 208.350459 553.362858 
L 208.474491 553.115667 
L 209.032854 552.483958 
L 209.240161 552.308178 
L 209.35336 551.956617 
L 209.435052 551.846755 
L 209.674638 551.703933 
L 209.877285 551.423784 
L 210.211582 550.923909 
L 210.348156 550.786581 
L 210.918567 550.500938 
L 211.598452 549.737394 
L 211.815535 549.424285 
L 212.019676 549.336395 
L 212.455479 549.171601 
L 212.667065 548.885959 
L 212.753661 548.732151 
L 212.893651 548.517919 
L 213.560688 547.639019 
L 214.010993 547.441266 
L 214.135541 547.243513 
L 214.318189 547.029281 
L 214.438576 546.858994 
L 214.586154 546.62279 
L 214.773744 546.298695 
L 214.953107 546.024039 
L 215.314559 545.787834 
L 215.632588 545.666986 
L 216.462015 544.463991 
L 216.589849 544.315676 
L 216.665054 544.183841 
L 217.243022 544.030033 
L 217.367038 543.84876 
L 217.55507 543.640021 
L 218.062324 542.931408 
L 218.215756 542.772107 
L 218.958792 542.233781 
L 219.616245 541.398825 
L 219.793736 541.261497 
L 219.917106 541.195579 
L 220.019945 541.168114 
L 220.397209 541.030785 
L 220.695449 540.838526 
L 221.00542 540.300199 
L 221.120555 540.201323 
L 221.176443 540.063995 
L 221.411468 539.778352 
L 221.587517 539.619052 
L 222.06912 539.47623 
L 222.347445 539.146643 
L 222.507877 538.84452 
L 222.609815 538.602823 
L 222.721639 538.481974 
L 222.973556 538.102948 
L 223.08706 537.87773 
L 223.246479 537.795333 
L 223.715765 537.460252 
L 223.868261 537.130665 
L 223.991661 536.927419 
L 224.567011 536.026546 
L 224.653139 535.867245 
L 224.810572 535.663999 
L 225.261214 535.488219 
L 225.33825 535.339905 
L 225.508957 535.224549 
L 225.657563 534.829044 
L 225.79731 534.620305 
L 225.960519 534.31269 
L 226.255518 533.752391 
L 226.36117 533.5052 
L 226.897733 533.362379 
L 228.010864 531.357387 
L 228.460869 531.225552 
L 228.8846 530.483979 
L 228.980251 530.319186 
L 229.173463 529.907201 
L 229.27522 529.703955 
L 229.414738 529.495216 
L 230.16571 528.95689 
L 230.287517 528.638288 
L 230.927943 527.495718 
L 231.096769 527.25402 
L 231.221687 526.973871 
L 231.696904 526.809077 
L 231.772595 526.660762 
L 231.981067 526.19934 
L 232.21551 525.814821 
L 232.328868 525.589602 
L 232.440432 525.457767 
L 232.620347 525.051276 
L 232.699423 524.919441 
L 232.809075 524.743661 
L 233.402936 524.501963 
L 233.639585 524.111951 
L 233.866892 523.815322 
L 233.979905 523.617569 
L 234.1063 523.419817 
L 234.226938 523.24953 
L 234.510747 522.936421 
L 234.951431 522.689231 
L 235.717636 521.749906 
L 235.84586 521.601591 
L 235.952724 521.332428 
L 236.058652 521.250031 
L 236.49276 521.063265 
L 236.628433 520.909457 
L 236.75015 520.75565 
L 236.86219 520.590856 
L 236.972254 520.442541 
L 237.046111 520.316199 
L 237.807448 519.349409 
L 238.126126 519.217574 
L 238.237993 518.992355 
L 238.529842 518.618823 
L 238.620441 518.492481 
L 238.745178 518.300221 
L 238.845539 518.173879 
L 239.50778 517.756402 
L 239.757479 517.619073 
L 241.026166 515.872259 
L 241.315184 515.75141 
L 241.567919 515.405343 
L 241.697021 515.070262 
L 242.477163 513.889239 
L 242.97061 513.718952 
L 243.762806 512.504971 
L 243.871624 512.389615 
L 243.991777 512.241301 
L 244.095384 512.18637 
L 244.591787 511.961151 
L 244.700434 511.840303 
L 244.914901 511.582126 
L 245.595371 511.214086 
L 246.173885 511.032813 
L 246.648443 510.703225 
L 246.865385 510.593362 
L 247.816202 510.373637 
L 248.413418 509.807845 
L 248.586655 509.67601 
L 248.734203 509.544175 
L 249.154513 509.302477 
L 249.450546 509.143177 
L 249.660683 508.841055 
L 249.697704 508.70922 
L 250.169861 508.115962 
L 250.418596 508.000606 
L 250.56532 507.841305 
L 251.345564 507.396362 
L 251.499873 507.242554 
L 251.619218 507.00635 
L 251.868819 506.621831 
L 252.011245 506.396613 
L 252.100146 506.215339 
L 252.58098 506.061532 
L 252.697176 505.913217 
L 253.321385 505.034317 
L 253.392461 504.896989 
L 253.718657 504.485004 
L 254.099396 504.342183 
L 254.275919 504.182882 
L 254.418903 503.886253 
L 254.504962 503.748925 
L 254.635422 503.490748 
L 254.744522 503.364406 
L 254.861536 503.062284 
L 255.225907 502.425081 
L 255.322201 502.276766 
L 255.683985 502.133945 
L 255.874688 501.974644 
L 256.139724 501.408852 
L 256.349863 501.051799 
L 256.397629 500.919964 
L 256.786142 500.161912 
L 256.964978 499.848804 
L 257.395602 499.662037 
L 257.767212 499.112725 
L 257.903795 498.931451 
L 257.977223 498.717219 
L 258.09584 498.492001 
L 258.217639 498.228331 
L 258.345505 498.080017 
L 258.431784 497.838319 
L 258.555623 497.640566 
L 258.816742 497.497745 
L 259.391624 496.454051 
L 259.508351 496.228832 
L 259.563346 496.064039 
L 259.703244 495.695999 
L 260.288422 494.800619 
L 260.71784 494.471031 
L 260.84112 494.102992 
L 260.91692 493.938198 
L 262.029261 492.180397 
L 262.26217 492.026589 
L 262.637374 491.499249 
L 262.836148 491.334455 
L 263.658834 490.466541 
L 263.942672 490.290761 
L 264.145618 490.054556 
L 264.309928 489.796379 
L 264.402 489.615106 
L 265.064278 488.686767 
L 265.478551 488.51648 
L 265.862065 488.016606 
L 266.006852 487.879278 
L 266.204579 487.643073 
L 266.780043 487.126719 
L 267.181675 486.972911 
L 267.28688 486.890515 
L 267.379561 486.758679 
L 267.714264 486.341202 
L 267.838588 486.21486 
L 268.505386 485.638081 
L 268.753835 485.473287 
L 269.239258 484.830591 
L 269.369408 484.665798 
L 269.474575 484.533963 
L 269.634574 484.292265 
L 269.764034 484.110992 
L 270.354415 483.973664 
L 270.950753 483.199132 
L 271.043461 483.07279 
L 271.20813 482.73771 
L 271.298546 482.600381 
L 271.411586 482.479533 
L 271.953992 482.276287 
L 272.107823 481.996137 
L 272.246838 481.73796 
L 273.040842 480.837087 
L 273.571722 480.644828 
L 273.811391 480.254816 
L 274.081368 479.798886 
L 274.354068 479.41986 
L 274.497233 479.26056 
L 274.730849 479.145204 
L 275.204769 478.958438 
L 275.382047 478.782657 
L 275.633365 478.403632 
L 275.838596 478.123482 
L 275.922151 477.914743 
L 276.111068 477.700511 
L 276.997503 476.964432 
L 277.182974 476.656817 
L 277.277237 476.448078 
L 277.419756 476.31075 
L 277.577598 476.151449 
L 278.531794 475.256069 
L 278.704064 474.920988 
L 278.861023 474.706756 
L 278.993228 474.492524 
L 279.067821 474.349703 
L 279.260425 473.943212 
L 279.336706 473.805883 
L 279.437139 473.674048 
L 279.617176 473.553199 
L 279.994467 473.256571 
L 280.145416 472.90501 
L 280.220206 472.723737 
L 280.427945 472.256821 
L 280.473109 472.119493 
L 280.581129 471.844837 
L 280.94127 471.262565 
L 281.046912 471.119744 
L 281.287365 470.987909 
L 281.388088 470.943964 
L 281.568199 470.823115 
L 282.761894 469.0763 
L 283.113492 468.944465 
L 283.219523 468.774178 
L 283.314778 468.598398 
L 283.505539 468.158948 
L 283.612629 468.027113 
L 283.688748 467.856826 
L 283.860872 467.554703 
L 284.095184 467.225116 
L 284.695778 466.807638 
L 284.817732 466.675803 
L 285.061067 466.110011 
L 285.23386 465.846341 
L 285.651455 464.901523 
L 285.737706 464.764194 
L 286.201874 464.4401 
L 286.45373 464.24784 
L 286.599662 464.011636 
L 286.691102 463.819376 
L 286.969289 463.187667 
L 287.087866 463.066818 
L 287.376934 462.495532 
L 287.496207 462.380177 
L 287.959126 462.176931 
L 288.102592 461.990165 
L 288.288356 461.75396 
L 288.492925 461.484797 
L 288.76915 461.017881 
L 288.88123 460.847594 
L 289.004478 460.605896 
L 289.25683 460.402651 
L 289.771735 460.095035 
L 289.920384 459.924749 
L 290.198981 459.595161 
L 290.363767 459.254587 
L 290.74017 458.760205 
L 291.148894 458.573439 
L 291.260876 458.425125 
L 291.478424 458.068071 
L 291.712337 457.760456 
L 292.3069 456.94198 
L 292.732242 456.799159 
L 292.959961 456.332243 
L 293.037035 456.183928 
L 293.318784 455.596164 
L 293.520216 455.162206 
L 294.079369 454.420634 
L 294.423565 454.25584 
L 295.498608 452.975941 
L 295.996863 452.827627 
L 296.097429 452.65734 
L 296.527217 451.95422 
L 296.857264 451.32251 
L 297.043722 451.036867 
L 297.248632 450.937991 
L 297.592562 450.800663 
L 297.761897 450.558965 
L 297.986723 450.157967 
L 298.17287 449.773448 
L 298.427174 449.317518 
L 298.551434 449.218642 
L 298.970971 448.768205 
L 299.311301 448.444111 
L 299.438021 448.273824 
L 299.640222 447.872825 
L 299.841912 447.339992 
L 300.012592 446.878569 
L 300.281243 446.235873 
L 300.503316 446.126011 
L 300.849352 445.87882 
L 301.001369 445.318521 
L 301.077401 445.181193 
L 302.020126 443.291556 
L 302.472241 443.115776 
L 302.76712 442.407163 
L 302.872214 442.242369 
L 302.982608 442.05011 
L 303.176568 441.588687 
L 303.739931 440.764718 
L 304.040082 440.61091 
L 304.617301 439.677078 
L 304.732374 439.501298 
L 305.351894 438.512535 
L 305.650553 438.342248 
L 305.729972 438.171961 
L 305.844319 437.94125 
L 306.193989 437.106294 
L 306.28986 436.809665 
L 306.364844 436.67783 
L 306.477599 436.392188 
L 306.682219 435.963724 
L 306.785757 435.809916 
L 306.896832 435.672588 
L 307.010061 435.557232 
L 307.126043 435.496808 
L 307.765142 434.502551 
L 307.9605 434.030142 
L 308.653263 433.030393 
L 308.85968 432.898558 
L 308.991047 432.640381 
L 309.129325 432.420656 
L 309.59334 431.33851 
L 309.651209 431.179209 
L 310.048077 430.668348 
L 310.477205 430.487075 
L 310.605684 430.102556 
L 310.773086 429.805927 
L 310.914377 429.54775 
L 310.997036 429.349997 
L 311.109113 428.866602 
L 311.431903 428.190947 
L 311.54696 427.938263 
L 312.086573 427.575717 
L 312.251048 427.136267 
L 312.396254 426.900062 
L 312.519837 426.729775 
L 312.873769 426.026655 
L 312.987935 425.79045 
L 313.294041 425.323534 
L 313.754892 424.944509 
L 313.907378 424.581962 
L 314.228092 423.9118 
L 314.558512 423.285584 
L 314.618568 423.159242 
L 314.873662 422.703312 
L 315.092233 422.587957 
L 315.294583 422.456121 
L 315.444 422.082589 
L 315.622541 421.720042 
L 315.734884 421.41792 
L 316.358506 420.099569 
L 316.592978 419.967734 
L 316.952218 419.753502 
L 317.474139 418.682342 
L 317.599827 418.407686 
L 317.71926 418.155002 
L 317.843202 417.984715 
L 317.986781 417.6771 
L 318.465864 417.380471 
L 318.553866 417.215677 
L 318.762126 416.836651 
L 319.556345 415.512807 
L 319.674555 415.408438 
L 320.217581 415.012933 
L 320.329164 414.83166 
L 320.465699 414.584469 
L 320.843311 413.804445 
L 320.909961 413.601199 
L 321.017928 413.381474 
L 321.099601 413.200201 
L 321.24268 412.958503 
L 321.827494 412.431163 
L 322.111586 411.898329 
L 322.238545 411.640152 
L 322.33674 411.4424 
L 322.464084 411.261126 
L 322.75852 410.991963 
L 323.264655 410.821676 
L 323.465635 410.508568 
L 323.630291 410.250391 
L 323.942176 409.624174 
L 324.047214 409.289093 
L 324.111258 409.10782 
L 324.228836 408.657384 
L 324.403189 408.146523 
L 324.507826 408.003701 
L 325.065638 407.443402 
L 325.429121 406.679857 
L 325.737689 405.993216 
L 326.088395 405.19122 
L 326.640213 404.73529 
L 326.949347 404.158512 
L 327.101197 403.988225 
L 327.468808 403.48835 
L 327.557999 403.351022 
L 327.698476 403.202707 
L 328.155688 403.015941 
L 328.433476 402.614943 
L 329.295307 401.576741 
L 330.040949 401.400961 
L 330.270739 401.230674 
L 330.365156 401.175743 
L 330.64014 401.021935 
L 330.774803 400.961511 
L 331.628941 400.736293 
L 331.815321 400.500088 
L 331.990161 400.252898 
L 332.15272 400.115569 
L 332.156372 400.104583 
L 332.394558 399.989227 
L 332.546575 399.857392 
L 332.968222 399.692598 
L 333.093493 399.46738 
L 333.325968 399.159765 
L 333.458736 398.94004 
L 334.363461 397.890852 
L 334.608679 397.759017 
L 335.740666 396.083613 
L 336.167077 395.896847 
L 336.289043 395.743039 
L 336.410191 395.556273 
L 336.554446 395.331055 
L 336.745821 394.990481 
L 336.856272 394.693852 
L 337.174115 394.12806 
L 337.278995 393.957773 
L 337.571793 393.875376 
L 337.871288 393.677623 
L 337.966204 393.529309 
L 338.108059 393.375501 
L 338.416047 392.875626 
L 338.58863 392.611956 
L 338.74647 392.441669 
L 338.950752 392.177999 
L 339.363932 392.029685 
L 339.49247 391.831932 
L 339.641252 391.639673 
L 339.729196 391.491358 
L 340.122424 390.936552 
L 340.287237 390.694855 
L 340.43049 390.535554 
L 341.092029 390.112583 
L 341.248709 389.788488 
L 341.330555 389.640174 
L 341.44101 389.469887 
L 342.162058 388.206468 
L 342.715194 387.821949 
L 342.913724 387.519826 
L 343.961649 385.866395 
L 344.217492 385.690615 
L 344.387767 385.322575 
L 344.551998 384.987494 
L 344.620561 384.833687 
L 345.56351 383.520829 
L 345.855728 383.383501 
L 346.172186 382.828695 
L 346.360794 382.471642 
L 346.544205 382.114588 
L 347.036676 381.263154 
L 347.530959 380.961031 
L 347.599523 380.757786 
L 347.88542 380.279884 
L 347.990877 380.137062 
L 348.154618 379.823954 
L 348.230822 379.686626 
L 348.357808 379.455914 
L 348.468947 379.21971 
L 348.579291 379.11534 
L 349.082632 378.923081 
L 349.167417 378.758287 
L 349.3139 378.516589 
L 349.574039 378.121084 
L 349.683606 377.967277 
L 349.832075 377.807976 
L 350.060809 377.538813 
L 350.20781 377.368526 
L 350.66696 377.181759 
L 350.98399 376.780761 
L 351.297675 376.385256 
L 351.445473 376.225955 
L 351.805386 375.824957 
L 352.329822 375.572273 
L 352.504215 375.330575 
L 353.177523 374.40773 
L 354.160909 373.644185 
L 354.352508 373.380515 
L 354.49697 373.171776 
L 354.809116 372.776271 
L 355.707288 372.430203 
L 355.848603 372.188506 
L 355.99789 372.023712 
L 356.148286 371.875398 
L 356.286169 371.661166 
L 356.445949 371.518344 
L 357.653018 370.397746 
L 358.162048 369.485887 
L 358.4261 369.397997 
L 358.810963 369.205737 
L 359.493703 368.151057 
L 359.604076 368.041194 
L 359.860764 367.777524 
L 360.302568 367.618223 
L 360.483714 367.360046 
L 360.805991 366.975527 
L 360.931517 366.777775 
L 361.423645 366.041695 
L 361.758523 365.887888 
L 363.297094 363.756554 
L 363.518587 363.613733 
L 363.636768 363.377528 
L 363.749268 363.223721 
L 364.536267 361.828466 
L 364.645803 361.658179 
L 364.967243 361.542824 
L 365.238528 361.405495 
L 365.426711 361.268167 
L 366.071369 360.065172 
L 366.222305 359.790516 
L 366.869382 359.241203 
L 367.053758 358.856684 
L 367.190756 358.620479 
L 367.827476 357.697634 
L 368.406316 357.346074 
L 368.560902 356.978034 
L 368.71017 356.664926 
L 368.863068 356.37379 
L 368.956911 356.154065 
L 369.048542 356.000257 
L 369.148728 355.862929 
L 369.5364 355.39052 
L 370.081063 355.104877 
L 371.138747 353.649198 
L 371.541211 353.51187 
L 371.654801 353.264679 
L 371.806398 353.039461 
L 372.223741 352.396765 
L 372.431054 352.006753 
L 372.534829 351.852945 
L 372.692451 351.677165 
L 373.104783 351.512372 
L 373.690516 350.985031 
L 373.797989 350.853196 
L 373.939926 350.704882 
L 374.041202 350.556567 
L 374.121736 350.424732 
L 374.5216 350.095144 
L 374.766987 349.957816 
L 374.964252 349.628229 
L 375.123473 349.474421 
L 375.241976 349.337093 
L 375.618007 348.721862 
L 375.778273 348.50763 
L 375.884787 348.397768 
L 376.455131 348.090153 
L 376.941128 347.0135 
L 377.055962 346.782788 
L 377.269597 346.299393 
L 377.347313 346.156572 
L 377.769309 345.772053 
L 377.983441 345.640218 
L 378.292715 345.31063 
L 378.429364 345.107384 
L 379.325245 343.838472 
L 379.674293 343.640719 
L 379.767304 343.399021 
L 379.864983 343.272679 
L 380.105904 342.882667 
L 380.323845 342.487162 
L 380.446412 342.322368 
L 380.593674 342.108136 
L 380.821635 341.899397 
L 381.175659 341.723617 
L 381.277172 341.564316 
L 381.80677 340.723868 
L 381.909753 340.515129 
L 382.067608 340.311883 
L 382.275753 339.998775 
L 382.792658 339.724119 
L 382.964111 339.416503 
L 383.078352 339.224244 
L 383.217075 338.977053 
L 383.269382 338.823246 
L 383.385468 338.592534 
L 383.618863 338.219001 
L 383.746314 338.043221 
L 383.857859 337.872934 
L 384.05251 337.669689 
L 384.361118 337.537854 
L 384.750281 336.713884 
L 384.913425 336.433735 
L 384.987382 336.290913 
L 385.946337 335.109891 
L 386.238553 334.741851 
L 386.775214 333.582801 
L 386.888746 333.324624 
L 386.969961 333.170817 
L 387.164577 332.813763 
L 387.630408 332.637983 
L 388.00987 332.066698 
L 388.131247 331.879932 
L 388.244619 331.671193 
L 388.770615 330.737361 
L 389.234114 330.561581 
L 390.178878 329.083929 
L 390.274592 328.89167 
L 390.335741 328.759835 
L 390.748086 328.61152 
L 390.85826 328.457713 
L 391.608389 327.326128 
L 391.781882 327.045979 
L 391.903409 326.908651 
L 392.012323 326.848226 
L 392.450601 326.66146 
L 392.959549 325.777066 
L 393.152411 325.441985 
L 393.464873 325.06296 
L 393.844009 324.832248 
L 394.141259 324.667454 
L 394.269992 324.497167 
L 394.654561 323.958841 
L 394.786609 323.832499 
L 395.079497 323.541363 
L 395.332057 323.4315 
L 395.738325 323.2722 
L 395.871217 323.057968 
L 395.946063 322.909653 
L 396.527732 321.811028 
L 396.646407 321.602289 
L 396.715992 321.470454 
L 397.141866 321.316646 
L 397.284943 321.190304 
L 397.454871 320.84973 
L 397.517971 320.712402 
L 397.626654 320.525636 
L 397.74601 320.283938 
L 397.919297 319.943364 
L 398.408192 319.179819 
L 398.691412 319.047984 
L 399.155929 318.388809 
L 399.274708 318.136125 
L 399.370422 317.971331 
L 399.430957 317.943865 
L 399.579662 317.82851 
L 399.711898 317.581319 
L 399.915758 317.290183 
L 400.080813 317.103417 
L 400.492419 316.955102 
L 400.612846 316.735377 
L 400.878541 316.30142 
L 401.04614 316.004791 
L 401.175967 315.823518 
L 401.282406 315.625765 
L 401.400116 315.455478 
L 401.549685 315.274205 
L 401.633724 315.169836 
L 402.037894 315.032508 
L 402.154135 314.818276 
L 402.586508 314.010786 
L 402.68683 313.845992 
L 402.884086 313.417528 
L 403.120788 312.967091 
L 403.298098 312.840749 
L 403.647651 312.615531 
L 404.469723 310.830265 
L 404.581111 310.698429 
L 405.117845 310.143624 
L 405.336533 309.97883 
L 405.477981 309.605297 
L 405.663992 309.303175 
L 405.891969 308.874711 
L 406.047261 308.616534 
L 406.241205 308.435261 
L 406.577708 308.199056 
L 406.921795 308.061728 
L 407.039524 307.803551 
L 407.724019 306.688446 
L 407.831781 306.529145 
L 407.946533 306.325899 
L 408.244756 306.106174 
L 408.550046 305.963353 
L 408.789914 305.584327 
L 409.171355 305.227274 
L 409.372636 305.067973 
L 410.139981 304.612043 
L 410.261012 304.452743 
L 410.351699 304.304428 
L 411.354643 303.244255 
L 411.743833 303.046502 
L 411.877678 302.793818 
L 411.984845 302.629024 
L 412.141897 302.403806 
L 412.332547 302.145629 
L 412.54271 301.870973 
L 412.667367 301.733644 
L 413.4582 301.360112 
L 413.809193 301.211797 
L 413.962067 301.068976 
L 414.877886 300.794319 
L 415.229584 300.656991 
L 415.348347 300.51417 
L 415.649652 300.190075 
L 415.891408 299.854994 
L 416.001252 299.750625 
L 416.22564 299.607804 
L 416.668339 299.393572 
L 416.787586 299.311175 
L 417.905542 297.871975 
L 418.205884 297.707181 
L 418.974856 296.663487 
L 419.091012 296.471228 
L 419.231502 296.262489 
L 419.330901 296.152626 
L 419.738461 296.015298 
L 420.056203 295.482464 
L 420.276893 295.163863 
L 420.646283 294.625537 
L 420.763513 294.45525 
L 421.520421 293.834526 
L 421.954637 292.988584 
L 422.067091 292.818297 
L 422.355192 292.318423 
L 422.603349 292.060246 
L 423.006969 291.900945 
L 423.588915 290.967113 
L 423.751252 290.621046 
L 424.05093 290.263993 
L 425.170037 289.121422 
L 425.316565 288.967615 
L 425.419463 288.786341 
L 425.488276 288.670986 
L 425.65731 288.550137 
L 425.761593 288.418302 
L 426.282389 288.264494 
L 426.393376 288.127166 
L 426.543432 288.000824 
L 426.709446 287.753633 
L 426.818394 287.588839 
L 426.929171 287.352635 
L 426.995662 287.215307 
L 427.244547 286.720925 
L 427.317638 286.58909 
L 427.733891 286.319927 
L 427.848553 286.177105 
L 427.965298 285.946394 
L 428.199235 285.567368 
L 428.352739 285.281726 
L 428.486123 285.072987 
L 428.648445 284.79833 
L 428.937771 284.402825 
L 429.238334 284.353387 
L 429.410112 284.238031 
L 429.574214 283.979854 
L 429.69646 283.853512 
L 430.811213 282.903201 
L 431.093757 282.776859 
L 431.721943 281.799082 
L 431.953865 281.540905 
L 432.184464 281.260756 
L 432.660532 281.112441 
L 432.91286 280.77736 
L 433.063785 280.497211 
L 433.196888 280.315938 
L 433.436642 279.931419 
L 433.831609 279.524927 
L 434.158557 279.387599 
L 434.270493 279.134915 
L 434.355361 278.953642 
L 434.50724 278.805327 
L 434.610895 278.618561 
L 434.744543 278.420808 
L 435.708607 277.514442 
L 435.880608 277.393594 
L 436.00731 277.256265 
L 436.167792 277.113444 
L 436.356753 276.882733 
L 436.871068 276.382858 
L 437.94088 275.421561 
L 438.091967 275.091973 
L 438.192528 274.965631 
L 438.304682 274.740413 
L 438.793901 274.251524 
L 439.067423 274.08673 
L 439.219488 273.740663 
L 439.400004 273.433048 
L 439.513437 273.273747 
L 439.608128 273.130926 
L 439.774711 272.861763 
L 439.873206 272.696969 
L 440.100481 272.460764 
L 440.684883 272.026807 
L 441.778251 270.516197 
L 442.401124 270.274499 
L 442.543738 270.197596 
L 442.816818 269.99435 
L 443.0554 269.791104 
L 443.225335 269.648283 
L 444.031435 269.18686 
L 444.234798 268.967135 
L 444.368366 268.818821 
L 444.756314 268.181618 
L 444.909884 268.038796 
L 445.014446 267.923441 
L 445.532956 267.692729 
L 445.662212 267.440045 
L 446.719383 266.138174 
L 447.161056 266.000846 
L 447.273726 265.830559 
L 447.439078 265.643792 
L 448.028175 264.858275 
L 448.152042 264.682495 
L 448.27114 264.561646 
L 448.783089 264.308962 
L 448.894321 264.243045 
L 449.005008 264.056278 
L 449.289873 263.616828 
L 449.455052 263.468514 
L 449.598541 263.243295 
L 449.741658 263.078502 
L 449.759167 263.04005 
L 450.364746 262.924694 
L 451.009843 261.95241 
L 451.153574 261.804096 
L 451.25859 261.710713 
L 451.948819 261.436056 
L 452.086593 261.260276 
L 452.528848 260.842798 
L 452.961379 260.397855 
L 453.144691 260.331938 
L 453.617489 260.211089 
L 453.800534 260.062774 
L 454.013812 259.782625 
L 454.414351 259.321202 
L 455.779614 258.134686 
L 455.888788 258.041303 
L 456.091172 257.788619 
L 456.278632 257.590867 
L 456.806401 257.365648 
L 456.920201 257.200854 
L 457.231781 256.78887 
L 457.429856 256.59661 
L 458.087147 256.025325 
L 458.431614 255.866024 
L 458.53751 255.690244 
L 458.837355 255.399108 
L 458.952809 255.272767 
L 459.084904 255.080507 
L 459.202779 254.954165 
L 459.41266 254.750919 
L 459.52889 254.586125 
L 460.018165 254.432318 
L 460.24674 254.141182 
L 460.376671 253.959909 
L 460.497776 253.877512 
L 460.705499 253.657787 
L 461.402079 253.081008 
L 461.704787 252.888749 
L 462.035043 252.449299 
L 462.18621 252.284505 
L 462.356964 251.998862 
L 463.518034 251.163907 
L 464.046239 250.53769 
L 464.173323 250.416841 
L 464.306025 250.345431 
L 464.807858 250.202609 
L 465.188294 249.664283 
L 465.303665 249.526954 
L 466.081094 248.565657 
L 466.417655 248.428329 
L 466.535057 248.318466 
L 466.669802 248.159166 
L 466.799441 248.005358 
L 467.540579 247.175896 
L 468.023102 247.022088 
L 468.149617 246.851801 
L 468.319284 246.599117 
L 468.532461 246.368406 
L 468.841101 245.928956 
L 468.95262 245.786134 
L 469.308601 245.527957 
L 469.635894 245.385136 
L 469.775393 245.231328 
L 469.897793 245.077521 
L 470.928736 243.825087 
L 471.411436 243.6548 
L 471.548716 243.468034 
L 472.20175 242.528709 
L 472.773902 242.303491 
L 472.934895 242.133204 
L 473.06204 242.028835 
L 473.283451 241.809109 
L 474.100253 240.864291 
L 474.550117 240.644566 
L 474.766599 240.413855 
L 474.888959 240.298499 
L 475.789465 239.359174 
L 476.234993 239.183394 
L 476.355529 239.073532 
L 477.312062 237.832085 
L 477.741546 237.689263 
L 477.875651 237.513483 
L 478.0461 237.33221 
L 478.271815 237.041074 
L 478.688171 236.673035 
L 478.92063 236.546693 
L 479.294883 236.425844 
L 479.531798 236.167667 
L 479.671187 235.964421 
L 480.094374 235.601875 
L 480.582452 235.195383 
L 480.960501 235.003124 
L 481.068976 234.816357 
L 481.221204 234.563673 
L 481.654455 234.047319 
L 482.127513 233.684773 
L 482.482646 233.558431 
L 482.635801 233.410117 
L 483.284455 232.586147 
L 483.432334 232.437833 
L 483.561566 232.223601 
L 484.188255 231.894013 
L 484.345627 231.668795 
L 484.463752 231.471042 
L 484.598567 231.339207 
L 485.644383 230.487772 
L 485.790863 230.355937 
L 486.067833 230.042829 
L 486.46381 229.559434 
L 486.577953 229.317736 
L 487.077359 228.933217 
L 487.46275 228.680533 
L 487.800962 228.307 
L 488.104226 228.015865 
L 488.730055 227.494018 
L 488.955926 227.356689 
L 489.782621 226.499761 
L 490.127955 226.329474 
L 490.245524 226.302009 
L 490.609528 226.186653 
L 490.712716 226.09327 
L 490.838348 225.939462 
L 491.173325 225.505505 
L 491.527445 225.181411 
L 491.608221 225.060562 
L 492.165146 224.901261 
L 492.277127 224.796892 
L 492.821918 224.220113 
L 493.321527 223.681787 
L 493.923693 223.390651 
L 494.040826 223.286281 
L 494.135116 223.148953 
L 494.256149 223.039091 
L 494.58826 222.819365 
L 494.706744 222.693024 
L 495.112958 222.544709 
L 495.516688 222.259066 
L 495.629044 222.16019 
L 495.802063 221.967931 
L 495.974617 221.781164 
L 496.212188 221.583412 
L 496.303014 221.501015 
L 497.426079 221.187906 
L 497.595502 221.094523 
L 497.766341 220.940716 
L 498.003498 220.73747 
L 499.294257 220.188157 
L 499.430093 219.973925 
L 499.600898 219.803638 
L 499.753641 219.66631 
L 499.927561 219.638844 
L 500.212158 219.507009 
L 500.589797 219.127983 
L 500.761889 218.913751 
L 500.905524 218.743464 
L 501.58622 218.238097 
L 501.919506 218.078796 
L 502.111878 217.914002 
L 502.248312 217.760194 
L 502.67026 217.194402 
L 502.826464 217.024115 
L 502.938331 216.958198 
L 503.111297 216.919746 
L 503.435715 216.787911 
L 503.693397 216.551706 
L 503.892546 216.370433 
L 504.031125 216.183667 
L 504.259769 215.887038 
L 504.419558 215.727737 
L 504.541253 215.650833 
L 504.954582 215.414629 
L 505.111727 215.20589 
L 505.23305 215.01363 
L 505.543591 214.601646 
L 505.75084 214.261072 
L 505.917141 214.101771 
L 506.907705 213.41513 
L 507.01304 213.283295 
L 507.408089 212.992159 
L 507.523402 212.904269 
L 508.579174 212.157204 
L 508.728892 211.948465 
L 508.99413 211.55296 
L 509.136809 211.37718 
L 509.273567 211.206893 
L 509.556196 211.09703 
L 509.830964 210.92125 
L 510.29483 210.426868 
L 510.465315 210.223623 
L 510.81963 209.701775 
L 510.979798 209.564447 
L 511.554042 209.048093 
L 511.71534 208.734985 
L 512.359211 207.834112 
L 512.563892 207.581428 
L 513.091486 207.350717 
L 513.164835 207.213388 
L 513.293496 206.982677 
L 513.370075 206.817883 
L 513.522403 206.537734 
L 513.766517 206.147722 
L 513.957967 205.807148 
L 514.043152 205.642354 
L 514.216298 205.439108 
L 514.790141 205.224876 
L 514.891156 205.158958 
L 515.048544 205.010644 
L 515.174038 204.878809 
L 515.451989 204.615139 
L 515.58923 204.527249 
L 516.404975 204.208647 
L 516.553603 204.082305 
L 517.086229 203.620883 
L 517.205506 203.467075 
L 517.635737 203.214391 
L 517.974999 202.9672 
L 518.157139 202.692544 
L 518.313043 202.538736 
L 518.551377 202.247601 
L 518.664451 202.0883 
L 518.842213 201.852095 
L 519.08079 201.676315 
L 519.472917 201.522508 
L 519.720107 201.132496 
L 519.986637 200.764456 
L 520.208039 200.418389 
L 520.458502 200.127253 
L 520.563042 199.984432 
L 521.065567 199.85809 
L 521.484135 199.259339 
L 521.589965 199.100038 
L 521.804451 198.819889 
L 521.902539 198.638615 
L 522.17542 198.303535 
L 522.647466 198.072823 
L 522.884287 197.748729 
L 523.024783 197.545483 
L 523.186406 197.358717 
L 523.455713 196.963211 
L 523.608345 196.754472 
L 524.606256 196.0129 
L 524.822959 195.672326 
L 525.02902 195.359218 
L 525.142719 195.172452 
L 525.258124 195.04611 
L 525.389932 194.892302 
L 525.9548 194.59018 
L 526.228672 194.23862 
L 526.471702 194.007908 
L 526.526463 193.941991 
L 526.680791 193.821142 
L 526.765568 193.667334 
L 526.892277 193.535499 
L 526.998344 193.376199 
L 528.024389 192.480819 
L 528.169881 192.261094 
L 528.624737 191.525014 
L 529.109671 191.3767 
L 529.466983 190.882318 
L 529.574964 190.750483 
L 529.741276 190.475827 
L 529.894221 190.343992 
L 530.456146 189.805665 
L 530.770727 189.613406 
L 530.935718 189.448612 
L 531.09796 189.190435 
L 531.243658 189.086066 
L 531.43942 188.893806 
L 532.006922 188.344493 
L 532.278009 188.207165 
L 532.898199 187.54799 
L 532.99554 187.454606 
L 533.101774 187.322771 
L 533.22923 187.168964 
L 533.313561 187.026142 
L 533.806428 186.735007 
L 534.067226 186.608665 
L 534.247994 186.405419 
L 535.252727 185.762723 
L 535.538528 185.625395 
L 536.481681 184.664097 
L 536.65432 184.427893 
L 537.106151 184.274085 
L 537.211688 184.197182 
L 537.387013 184.037881 
L 537.489668 183.96647 
L 537.678484 183.812663 
L 538.284283 183.169967 
L 538.715995 182.9832 
L 538.840899 182.867844 
L 539.055834 182.714037 
L 539.641135 182.010917 
L 539.758755 181.82415 
L 539.95834 181.675836 
L 540.677341 181.110043 
L 540.677926 181.099057 
L 540.86903 180.983702 
L 541.567913 180.291567 
L 542.153445 179.929021 
L 542.294012 179.775213 
L 542.435885 179.626899 
L 542.565994 179.467598 
L 543.27358 178.753492 
L 543.577908 178.588698 
L 543.762927 178.401931 
L 544.652071 177.36373 
L 545.205747 177.154991 
L 545.571078 176.73202 
L 545.753473 176.517788 
L 545.858702 176.369474 
L 545.970179 176.221159 
L 546.124389 176.012421 
L 547.273981 175.084082 
L 547.42624 174.875343 
L 548.317461 174.177716 
L 548.611941 173.957991 
L 548.779253 173.7108 
L 548.923781 173.540513 
L 549.639138 172.573722 
L 550.088752 172.370477 
L 550.330768 171.963985 
L 551.264627 170.925784 
L 551.688622 170.689579 
L 551.997256 170.206184 
L 552.128899 170.035897 
L 552.528196 169.453626 
L 552.632181 169.310804 
L 552.783356 169.140517 
L 553.122788 168.98671 
L 553.283193 168.805436 
L 553.479365 168.448383 
L 553.581074 168.305562 
L 553.844211 167.91555 
L 553.992007 167.772728 
L 554.455751 167.366237 
L 554.868806 167.212429 
L 556.305854 165.938024 
L 556.509514 165.806188 
L 556.973683 165.289834 
L 557.177205 165.026164 
L 557.244876 164.866864 
L 557.409521 164.674604 
L 557.889106 164.498824 
L 558.106457 164.377975 
L 558.852654 163.597951 
L 559.121263 163.273856 
L 559.491767 163.08709 
L 561.077342 161.450138 
L 561.314066 161.268865 
L 562.674304 160.054883 
L 563.019569 159.758254 
L 563.257698 159.489091 
L 563.553833 159.143024 
L 563.678144 158.923299 
L 563.847864 158.753012 
L 564.154065 158.379479 
L 564.429841 158.236658 
L 564.548062 158.060878 
L 565.083995 157.423675 
L 566.698274 156.094338 
L 566.818021 155.962503 
L 567.261485 155.336286 
L 567.663186 155.171492 
L 568.341989 154.369496 
L 568.446224 154.243154 
L 568.543608 154.116812 
L 569.365039 153.7268 
L 569.780415 153.023679 
L 569.902155 152.875365 
L 570.644732 151.947026 
L 571.302778 151.331796 
L 571.445571 151.007701 
L 571.567585 150.809949 
L 571.686066 150.595717 
L 571.841109 150.392471 
L 571.95611 150.227677 
L 572.481777 150.007952 
L 572.751829 149.79372 
L 572.877839 149.678364 
L 573.285117 149.414694 
L 573.396352 149.343283 
L 573.545541 149.172996 
L 573.677588 149.0906 
L 574.151508 148.947778 
L 575.182971 148.052398 
L 575.722674 147.882111 
L 576.276084 147.222936 
L 576.410064 147.074622 
L 576.52879 146.942786 
L 576.667258 146.767006 
L 576.971683 146.58024 
L 577.381926 146.355022 
L 578.049247 145.585984 
L 578.278973 145.382738 
L 578.924232 145.113575 
L 579.159953 144.888357 
L 579.383632 144.679618 
L 579.625345 144.43792 
L 579.842707 144.168757 
L 579.950012 144.058894 
L 580.573855 143.756772 
L 580.736243 143.575499 
L 581.117737 143.350281 
L 581.422827 143.163514 
L 581.786403 142.921817 
L 582.140545 142.789982 
L 582.256272 142.73505 
L 582.376125 142.66364 
L 584.087112 141.685863 
L 584.269385 141.482617 
L 584.369138 141.345289 
L 584.707443 140.839921 
L 585.419208 140.455402 
L 585.527393 140.312581 
L 585.661668 140.175253 
L 585.802236 139.982993 
L 585.957164 139.829186 
L 586.070948 139.724816 
L 586.659487 139.279873 
L 588.265941 138.219699 
L 588.708303 138.060398 
L 589.178424 137.582496 
L 589.320215 137.461647 
L 589.443627 137.318826 
L 590.355575 136.879376 
L 590.488872 136.769513 
L 590.668221 136.599226 
L 590.789669 136.505843 
L 591.158001 136.159776 
L 591.267798 136.104845 
L 591.487278 135.978503 
L 591.912541 135.824695 
L 592.001559 135.681874 
L 592.165058 135.544546 
L 592.387088 135.231437 
L 592.666564 134.956781 
L 592.915939 134.715083 
L 593.010173 134.693111 
L 593.490423 134.451413 
L 594.602886 133.413212 
L 595.133776 133.133062 
L 595.669782 132.451914 
L 595.979652 132.166272 
L 596.095182 132.050916 
L 597.021909 131.446672 
L 597.216472 131.265399 
L 597.458483 130.95229 
L 597.570533 130.847921 
L 599.692848 129.535063 
L 600.141422 129.309845 
L 600.307885 129.112093 
L 600.416456 129.00223 
L 600.850263 128.590245 
L 600.902485 128.496862 
L 601.425605 128.359534 
L 601.540083 128.211219 
L 601.653787 128.029946 
L 601.766656 127.892618 
L 602.624345 126.914841 
L 602.982264 126.766527 
L 603.313952 126.585254 
L 604.331996 125.684381 
L 604.824049 125.409724 
L 604.942491 125.3493 
L 605.151122 125.195492 
L 605.973625 124.45392 
L 606.386254 124.26166 
L 606.931389 123.888128 
L 607.067695 123.728827 
L 607.28716 123.575019 
L 608.479411 122.871899 
L 609.215918 122.201737 
L 611.077182 121.026208 
L 611.200807 120.899866 
L 611.326828 120.806483 
L 611.473717 120.663661 
L 611.642993 120.487881 
L 611.881883 120.262663 
L 611.996613 120.086883 
L 612.244122 119.845185 
L 612.673659 119.663912 
L 612.788315 119.543063 
L 613.298791 119.032202 
L 613.660201 118.691628 
L 613.807186 118.57078 
L 614.142582 118.460917 
L 614.380358 118.301616 
L 615.526002 117.356798 
L 616.46378 116.703116 
L 616.834807 116.368035 
L 617.381172 116.098872 
L 617.609062 115.97253 
L 617.872287 115.62097 
L 618.078693 115.406738 
L 618.885102 114.676152 
L 619.395384 114.28614 
L 619.567499 114.082894 
L 620.612117 113.264418 
L 620.861273 113.121596 
L 621.045562 112.918351 
L 621.209521 112.770036 
L 621.454688 112.58327 
L 621.673363 112.374531 
L 621.820749 112.149313 
L 622.411026 111.86367 
L 622.636364 111.6 
L 622.636364 111.6 
" style="fill:none;stroke:#92c6ff;stroke-linecap:round;stroke-width:1.5;"/>
   </g>
   <g id="line2d_24">
    <defs>
     <path d="M 0 2.5 
C 0.663008 2.5 1.29895 2.236584 1.767767 1.767767 
C 2.236584 1.29895 2.5 0.663008 2.5 0 
C 2.5 -0.663008 2.236584 -1.29895 1.767767 -1.767767 
C 1.29895 -2.236584 0.663008 -2.5 0 -2.5 
C -0.663008 -2.5 -1.29895 -2.236584 -1.767767 -1.767767 
C -2.236584 -1.29895 -2.5 -0.663008 -2.5 0 
C -2.5 0.663008 -2.236584 1.29895 -1.767767 1.767767 
C -1.29895 2.236584 -0.663008 2.5 0 2.5 
z
" id="m138c47219f" style="stroke:#696969;"/>
    </defs>
    <g clip-path="url(#pd31dcbe3c3)">
     <use style="fill:#696969;stroke:#696969;" x="115.363636" xlink:href="#m138c47219f" y="615.6"/>
    </g>
   </g>
   <g id="line2d_25">
    <g clip-path="url(#pd31dcbe3c3)">
     <use style="fill:#696969;stroke:#696969;" x="198.464469" xlink:href="#m138c47219f" y="565.195056"/>
    </g>
   </g>
   <g id="line2d_26">
    <g clip-path="url(#pd31dcbe3c3)">
     <use style="fill:#696969;stroke:#696969;" x="241.88045" xlink:href="#m138c47219f" y="514.790112"/>
    </g>
   </g>
   <g id="line2d_27">
    <g clip-path="url(#pd31dcbe3c3)">
     <use style="fill:#696969;stroke:#696969;" x="286.3141" xlink:href="#m138c47219f" y="464.390662"/>
    </g>
   </g>
   <g id="line2d_28">
    <g clip-path="url(#pd31dcbe3c3)">
     <use style="fill:#696969;stroke:#696969;" x="320.715549" xlink:href="#m138c47219f" y="413.991211"/>
    </g>
   </g>
   <g id="line2d_29">
    <g clip-path="url(#pd31dcbe3c3)">
     <use style="fill:#696969;stroke:#696969;" x="363.540248" xlink:href="#m138c47219f" y="363.59176"/>
    </g>
   </g>
   <g id="line2d_30">
    <g clip-path="url(#pd31dcbe3c3)">
     <use style="fill:#696969;stroke:#696969;" x="403.010832" xlink:href="#m138c47219f" y="313.19231"/>
    </g>
   </g>
   <g id="line2d_31">
    <g clip-path="url(#pd31dcbe3c3)">
     <use style="fill:#696969;stroke:#696969;" x="450.44577" xlink:href="#m138c47219f" y="262.792859"/>
    </g>
   </g>
   <g id="line2d_32">
    <g clip-path="url(#pd31dcbe3c3)">
     <use style="fill:#696969;stroke:#696969;" x="508.343384" xlink:href="#m138c47219f" y="212.393408"/>
    </g>
   </g>
   <g id="line2d_33">
    <g clip-path="url(#pd31dcbe3c3)">
     <use style="fill:#696969;stroke:#696969;" x="560.385646" xlink:href="#m138c47219f" y="161.993958"/>
    </g>
   </g>
   <g id="line2d_34">
    <g clip-path="url(#pd31dcbe3c3)">
     <use style="fill:#696969;stroke:#696969;" x="622.636364" xlink:href="#m138c47219f" y="111.6"/>
    </g>
   </g>
   <g id="patch_3">
    <path d="M 90 640.8 
L 90 86.4 
" style="fill:none;stroke:#cccccc;stroke-linecap:square;stroke-linejoin:miter;"/>
   </g>
   <g id="patch_4">
    <path d="M 648 640.8 
L 648 86.4 
" style="fill:none;stroke:#cccccc;stroke-linecap:square;stroke-linejoin:miter;"/>
   </g>
   <g id="patch_5">
    <path d="M 90 640.8 
L 648 640.8 
" style="fill:none;stroke:#cccccc;stroke-linecap:square;stroke-linejoin:miter;"/>
   </g>
   <g id="patch_6">
    <path d="M 90 86.4 
L 648 86.4 
" style="fill:none;stroke:#cccccc;stroke-linecap:square;stroke-linejoin:miter;"/>
   </g>
   <g id="text_12">
    <!-- 1 (2014-06-06) -->
    <defs>
     <path id="DejaVuSans-32"/>
     <path d="M 31 75.875 
Q 24.46875 64.65625 21.28125 53.65625 
Q 18.109375 42.671875 18.109375 31.390625 
Q 18.109375 20.125 21.3125 9.0625 
Q 24.515625 -2 31 -13.1875 
L 23.1875 -13.1875 
Q 15.875 -1.703125 12.234375 9.375 
Q 8.59375 20.453125 8.59375 31.390625 
Q 8.59375 42.28125 12.203125 53.3125 
Q 15.828125 64.359375 23.1875 75.875 
z
" id="DejaVuSans-40"/>
     <path d="M 4.890625 31.390625 
L 31.203125 31.390625 
L 31.203125 23.390625 
L 4.890625 23.390625 
z
" id="DejaVuSans-45"/>
     <path d="M 8.015625 75.875 
L 15.828125 75.875 
Q 23.140625 64.359375 26.78125 53.3125 
Q 30.421875 42.28125 30.421875 31.390625 
Q 30.421875 20.453125 26.78125 9.375 
Q 23.140625 -1.703125 15.828125 -13.1875 
L 8.015625 -13.1875 
Q 14.5 -2 17.703125 9.0625 
Q 20.90625 20.125 20.90625 31.390625 
Q 20.90625 42.671875 17.703125 53.65625 
Q 14.5 64.65625 8.015625 75.875 
z
" id="DejaVuSans-41"/>
    </defs>
    <g style="fill:#262626;" transform="translate(120.363636 623.198437)scale(0.1 -0.1)">
     <use xlink:href="#DejaVuSans-49"/>
     <use x="63.623047" xlink:href="#DejaVuSans-32"/>
     <use x="95.410156" xlink:href="#DejaVuSans-40"/>
     <use x="134.423828" xlink:href="#DejaVuSans-50"/>
     <use x="198.046875" xlink:href="#DejaVuSans-48"/>
     <use x="261.669922" xlink:href="#DejaVuSans-49"/>
     <use x="325.292969" xlink:href="#DejaVuSans-52"/>
     <use x="388.916016" xlink:href="#DejaVuSans-45"/>
     <use x="425" xlink:href="#DejaVuSans-48"/>
     <use x="488.623047" xlink:href="#DejaVuSans-54"/>
     <use x="552.246094" xlink:href="#DejaVuSans-45"/>
     <use x="588.330078" xlink:href="#DejaVuSans-48"/>
     <use x="651.953125" xlink:href="#DejaVuSans-54"/>
     <use x="715.576172" xlink:href="#DejaVuSans-41"/>
    </g>
   </g>
   <g id="text_13">
    <!-- 9177 (2015-06-03) -->
    <defs>
     <path d="M 40.578125 39.3125 
Q 47.65625 37.796875 51.625 33 
Q 55.609375 28.21875 55.609375 21.1875 
Q 55.609375 10.40625 48.1875 4.484375 
Q 40.765625 -1.421875 27.09375 -1.421875 
Q 22.515625 -1.421875 17.65625 -0.515625 
Q 12.796875 0.390625 7.625 2.203125 
L 7.625 11.71875 
Q 11.71875 9.328125 16.59375 8.109375 
Q 21.484375 6.890625 26.8125 6.890625 
Q 36.078125 6.890625 40.9375 10.546875 
Q 45.796875 14.203125 45.796875 21.1875 
Q 45.796875 27.640625 41.28125 31.265625 
Q 36.765625 34.90625 28.71875 34.90625 
L 20.21875 34.90625 
L 20.21875 43.015625 
L 29.109375 43.015625 
Q 36.375 43.015625 40.234375 45.921875 
Q 44.09375 48.828125 44.09375 54.296875 
Q 44.09375 59.90625 40.109375 62.90625 
Q 36.140625 65.921875 28.71875 65.921875 
Q 24.65625 65.921875 20.015625 65.03125 
Q 15.375 64.15625 9.8125 62.3125 
L 9.8125 71.09375 
Q 15.4375 72.65625 20.34375 73.4375 
Q 25.25 74.21875 29.59375 74.21875 
Q 40.828125 74.21875 47.359375 69.109375 
Q 53.90625 64.015625 53.90625 55.328125 
Q 53.90625 49.265625 50.4375 45.09375 
Q 46.96875 40.921875 40.578125 39.3125 
z
" id="DejaVuSans-51"/>
    </defs>
    <g style="fill:#262626;" transform="translate(203.464469 572.793494)scale(0.1 -0.1)">
     <use xlink:href="#DejaVuSans-57"/>
     <use x="63.623047" xlink:href="#DejaVuSans-49"/>
     <use x="127.246094" xlink:href="#DejaVuSans-55"/>
     <use x="190.869141" xlink:href="#DejaVuSans-55"/>
     <use x="254.492188" xlink:href="#DejaVuSans-32"/>
     <use x="286.279297" xlink:href="#DejaVuSans-40"/>
     <use x="325.292969" xlink:href="#DejaVuSans-50"/>
     <use x="388.916016" xlink:href="#DejaVuSans-48"/>
     <use x="452.539062" xlink:href="#DejaVuSans-49"/>
     <use x="516.162109" xlink:href="#DejaVuSans-53"/>
     <use x="579.785156" xlink:href="#DejaVuSans-45"/>
     <use x="615.869141" xlink:href="#DejaVuSans-48"/>
     <use x="679.492188" xlink:href="#DejaVuSans-54"/>
     <use x="743.115234" xlink:href="#DejaVuSans-45"/>
     <use x="779.199219" xlink:href="#DejaVuSans-48"/>
     <use x="842.822266" xlink:href="#DejaVuSans-51"/>
     <use x="906.445312" xlink:href="#DejaVuSans-41"/>
    </g>
   </g>
   <g id="text_14">
    <!-- 18353 (2015-12-09) -->
    <g style="fill:#262626;" transform="translate(246.88045 522.38855)scale(0.1 -0.1)">
     <use xlink:href="#DejaVuSans-49"/>
     <use x="63.623047" xlink:href="#DejaVuSans-56"/>
     <use x="127.246094" xlink:href="#DejaVuSans-51"/>
     <use x="190.869141" xlink:href="#DejaVuSans-53"/>
     <use x="254.492188" xlink:href="#DejaVuSans-51"/>
     <use x="318.115234" xlink:href="#DejaVuSans-32"/>
     <use x="349.902344" xlink:href="#DejaVuSans-40"/>
     <use x="388.916016" xlink:href="#DejaVuSans-50"/>
     <use x="452.539062" xlink:href="#DejaVuSans-48"/>
     <use x="516.162109" xlink:href="#DejaVuSans-49"/>
     <use x="579.785156" xlink:href="#DejaVuSans-53"/>
     <use x="643.408203" xlink:href="#DejaVuSans-45"/>
     <use x="679.492188" xlink:href="#DejaVuSans-49"/>
     <use x="743.115234" xlink:href="#DejaVuSans-50"/>
     <use x="806.738281" xlink:href="#DejaVuSans-45"/>
     <use x="842.822266" xlink:href="#DejaVuSans-48"/>
     <use x="906.445312" xlink:href="#DejaVuSans-57"/>
     <use x="970.068359" xlink:href="#DejaVuSans-41"/>
    </g>
   </g>
   <g id="text_15">
    <!-- 27528 (2016-06-20) -->
    <g style="fill:#262626;" transform="translate(291.3141 471.989099)scale(0.1 -0.1)">
     <use xlink:href="#DejaVuSans-50"/>
     <use x="63.623047" xlink:href="#DejaVuSans-55"/>
     <use x="127.246094" xlink:href="#DejaVuSans-53"/>
     <use x="190.869141" xlink:href="#DejaVuSans-50"/>
     <use x="254.492188" xlink:href="#DejaVuSans-56"/>
     <use x="318.115234" xlink:href="#DejaVuSans-32"/>
     <use x="349.902344" xlink:href="#DejaVuSans-40"/>
     <use x="388.916016" xlink:href="#DejaVuSans-50"/>
     <use x="452.539062" xlink:href="#DejaVuSans-48"/>
     <use x="516.162109" xlink:href="#DejaVuSans-49"/>
     <use x="579.785156" xlink:href="#DejaVuSans-54"/>
     <use x="643.408203" xlink:href="#DejaVuSans-45"/>
     <use x="679.492188" xlink:href="#DejaVuSans-48"/>
     <use x="743.115234" xlink:href="#DejaVuSans-54"/>
     <use x="806.738281" xlink:href="#DejaVuSans-45"/>
     <use x="842.822266" xlink:href="#DejaVuSans-50"/>
     <use x="906.445312" xlink:href="#DejaVuSans-48"/>
     <use x="970.068359" xlink:href="#DejaVuSans-41"/>
    </g>
   </g>
   <g id="text_16">
    <!-- 36703 (2016-11-17) -->
    <g style="fill:#262626;" transform="translate(325.715549 421.589648)scale(0.1 -0.1)">
     <use xlink:href="#DejaVuSans-51"/>
     <use x="63.623047" xlink:href="#DejaVuSans-54"/>
     <use x="127.246094" xlink:href="#DejaVuSans-55"/>
     <use x="190.869141" xlink:href="#DejaVuSans-48"/>
     <use x="254.492188" xlink:href="#DejaVuSans-51"/>
     <use x="318.115234" xlink:href="#DejaVuSans-32"/>
     <use x="349.902344" xlink:href="#DejaVuSans-40"/>
     <use x="388.916016" xlink:href="#DejaVuSans-50"/>
     <use x="452.539062" xlink:href="#DejaVuSans-48"/>
     <use x="516.162109" xlink:href="#DejaVuSans-49"/>
     <use x="579.785156" xlink:href="#DejaVuSans-54"/>
     <use x="643.408203" xlink:href="#DejaVuSans-45"/>
     <use x="679.492188" xlink:href="#DejaVuSans-49"/>
     <use x="743.115234" xlink:href="#DejaVuSans-49"/>
     <use x="806.738281" xlink:href="#DejaVuSans-45"/>
     <use x="842.822266" xlink:href="#DejaVuSans-49"/>
     <use x="906.445312" xlink:href="#DejaVuSans-55"/>
     <use x="970.068359" xlink:href="#DejaVuSans-41"/>
    </g>
   </g>
   <g id="text_17">
    <!-- 45878 (2017-05-22) -->
    <g style="fill:#262626;" transform="translate(368.540248 371.190198)scale(0.1 -0.1)">
     <use xlink:href="#DejaVuSans-52"/>
     <use x="63.623047" xlink:href="#DejaVuSans-53"/>
     <use x="127.246094" xlink:href="#DejaVuSans-56"/>
     <use x="190.869141" xlink:href="#DejaVuSans-55"/>
     <use x="254.492188" xlink:href="#DejaVuSans-56"/>
     <use x="318.115234" xlink:href="#DejaVuSans-32"/>
     <use x="349.902344" xlink:href="#DejaVuSans-40"/>
     <use x="388.916016" xlink:href="#DejaVuSans-50"/>
     <use x="452.539062" xlink:href="#DejaVuSans-48"/>
     <use x="516.162109" xlink:href="#DejaVuSans-49"/>
     <use x="579.785156" xlink:href="#DejaVuSans-55"/>
     <use x="643.408203" xlink:href="#DejaVuSans-45"/>
     <use x="679.492188" xlink:href="#DejaVuSans-48"/>
     <use x="743.115234" xlink:href="#DejaVuSans-53"/>
     <use x="806.738281" xlink:href="#DejaVuSans-45"/>
     <use x="842.822266" xlink:href="#DejaVuSans-50"/>
     <use x="906.445312" xlink:href="#DejaVuSans-50"/>
     <use x="970.068359" xlink:href="#DejaVuSans-41"/>
    </g>
   </g>
   <g id="text_18">
    <!-- 55053 (2017-11-10) -->
    <g style="fill:#262626;" transform="translate(408.010832 320.790747)scale(0.1 -0.1)">
     <use xlink:href="#DejaVuSans-53"/>
     <use x="63.623047" xlink:href="#DejaVuSans-53"/>
     <use x="127.246094" xlink:href="#DejaVuSans-48"/>
     <use x="190.869141" xlink:href="#DejaVuSans-53"/>
     <use x="254.492188" xlink:href="#DejaVuSans-51"/>
     <use x="318.115234" xlink:href="#DejaVuSans-32"/>
     <use x="349.902344" xlink:href="#DejaVuSans-40"/>
     <use x="388.916016" xlink:href="#DejaVuSans-50"/>
     <use x="452.539062" xlink:href="#DejaVuSans-48"/>
     <use x="516.162109" xlink:href="#DejaVuSans-49"/>
     <use x="579.785156" xlink:href="#DejaVuSans-55"/>
     <use x="643.408203" xlink:href="#DejaVuSans-45"/>
     <use x="679.492188" xlink:href="#DejaVuSans-49"/>
     <use x="743.115234" xlink:href="#DejaVuSans-49"/>
     <use x="806.738281" xlink:href="#DejaVuSans-45"/>
     <use x="842.822266" xlink:href="#DejaVuSans-49"/>
     <use x="906.445312" xlink:href="#DejaVuSans-48"/>
     <use x="970.068359" xlink:href="#DejaVuSans-41"/>
    </g>
   </g>
   <g id="text_19">
    <!-- 64228 (2018-06-04) -->
    <g style="fill:#262626;" transform="translate(455.44577 270.391296)scale(0.1 -0.1)">
     <use xlink:href="#DejaVuSans-54"/>
     <use x="63.623047" xlink:href="#DejaVuSans-52"/>
     <use x="127.246094" xlink:href="#DejaVuSans-50"/>
     <use x="190.869141" xlink:href="#DejaVuSans-50"/>
     <use x="254.492188" xlink:href="#DejaVuSans-56"/>
     <use x="318.115234" xlink:href="#DejaVuSans-32"/>
     <use x="349.902344" xlink:href="#DejaVuSans-40"/>
     <use x="388.916016" xlink:href="#DejaVuSans-50"/>
     <use x="452.539062" xlink:href="#DejaVuSans-48"/>
     <use x="516.162109" xlink:href="#DejaVuSans-49"/>
     <use x="579.785156" xlink:href="#DejaVuSans-56"/>
     <use x="643.408203" xlink:href="#DejaVuSans-45"/>
     <use x="679.492188" xlink:href="#DejaVuSans-48"/>
     <use x="743.115234" xlink:href="#DejaVuSans-54"/>
     <use x="806.738281" xlink:href="#DejaVuSans-45"/>
     <use x="842.822266" xlink:href="#DejaVuSans-48"/>
     <use x="906.445312" xlink:href="#DejaVuSans-52"/>
     <use x="970.068359" xlink:href="#DejaVuSans-41"/>
    </g>
   </g>
   <g id="text_20">
    <!-- 73403 (2019-02-11) -->
    <g style="fill:#262626;" transform="translate(513.343384 219.991846)scale(0.1 -0.1)">
     <use xlink:href="#DejaVuSans-55"/>
     <use x="63.623047" xlink:href="#DejaVuSans-51"/>
     <use x="127.246094" xlink:href="#DejaVuSans-52"/>
     <use x="190.869141" xlink:href="#DejaVuSans-48"/>
     <use x="254.492188" xlink:href="#DejaVuSans-51"/>
     <use x="318.115234" xlink:href="#DejaVuSans-32"/>
     <use x="349.902344" xlink:href="#DejaVuSans-40"/>
     <use x="388.916016" xlink:href="#DejaVuSans-50"/>
     <use x="452.539062" xlink:href="#DejaVuSans-48"/>
     <use x="516.162109" xlink:href="#DejaVuSans-49"/>
     <use x="579.785156" xlink:href="#DejaVuSans-57"/>
     <use x="643.408203" xlink:href="#DejaVuSans-45"/>
     <use x="679.492188" xlink:href="#DejaVuSans-48"/>
     <use x="743.115234" xlink:href="#DejaVuSans-50"/>
     <use x="806.738281" xlink:href="#DejaVuSans-45"/>
     <use x="842.822266" xlink:href="#DejaVuSans-49"/>
     <use x="906.445312" xlink:href="#DejaVuSans-49"/>
     <use x="970.068359" xlink:href="#DejaVuSans-41"/>
    </g>
   </g>
   <g id="text_21">
    <!-- 82578 (2019-09-26) -->
    <g style="fill:#262626;" transform="translate(565.385646 169.592395)scale(0.1 -0.1)">
     <use xlink:href="#DejaVuSans-56"/>
     <use x="63.623047" xlink:href="#DejaVuSans-50"/>
     <use x="127.246094" xlink:href="#DejaVuSans-53"/>
     <use x="190.869141" xlink:href="#DejaVuSans-55"/>
     <use x="254.492188" xlink:href="#DejaVuSans-56"/>
     <use x="318.115234" xlink:href="#DejaVuSans-32"/>
     <use x="349.902344" xlink:href="#DejaVuSans-40"/>
     <use x="388.916016" xlink:href="#DejaVuSans-50"/>
     <use x="452.539062" xlink:href="#DejaVuSans-48"/>
     <use x="516.162109" xlink:href="#DejaVuSans-49"/>
     <use x="579.785156" xlink:href="#DejaVuSans-57"/>
     <use x="643.408203" xlink:href="#DejaVuSans-45"/>
     <use x="679.492188" xlink:href="#DejaVuSans-48"/>
     <use x="743.115234" xlink:href="#DejaVuSans-57"/>
     <use x="806.738281" xlink:href="#DejaVuSans-45"/>
     <use x="842.822266" xlink:href="#DejaVuSans-50"/>
     <use x="906.445312" xlink:href="#DejaVuSans-54"/>
     <use x="970.068359" xlink:href="#DejaVuSans-41"/>
    </g>
   </g>
   <g id="text_22">
    <!-- 91752 (2020-06-23) -->
    <g style="fill:#262626;" transform="translate(627.636364 119.198438)scale(0.1 -0.1)">
     <use xlink:href="#DejaVuSans-57"/>
     <use x="63.623047" xlink:href="#DejaVuSans-49"/>
     <use x="127.246094" xlink:href="#DejaVuSans-55"/>
     <use x="190.869141" xlink:href="#DejaVuSans-53"/>
     <use x="254.492188" xlink:href="#DejaVuSans-50"/>
     <use x="318.115234" xlink:href="#DejaVuSans-32"/>
     <use x="349.902344" xlink:href="#DejaVuSans-40"/>
     <use x="388.916016" xlink:href="#DejaVuSans-50"/>
     <use x="452.539062" xlink:href="#DejaVuSans-48"/>
     <use x="516.162109" xlink:href="#DejaVuSans-50"/>
     <use x="579.785156" xlink:href="#DejaVuSans-48"/>
     <use x="643.408203" xlink:href="#DejaVuSans-45"/>
     <use x="679.492188" xlink:href="#DejaVuSans-48"/>
     <use x="743.115234" xlink:href="#DejaVuSans-54"/>
     <use x="806.738281" xlink:href="#DejaVuSans-45"/>
     <use x="842.822266" xlink:href="#DejaVuSans-50"/>
     <use x="906.445312" xlink:href="#DejaVuSans-51"/>
     <use x="970.068359" xlink:href="#DejaVuSans-41"/>
    </g>
   </g>
   <g id="text_23">
    <!-- Created issues and PRs over time -->
    <defs>
     <path d="M 64.40625 67.28125 
L 64.40625 56.890625 
Q 59.421875 61.53125 53.78125 63.8125 
Q 48.140625 66.109375 41.796875 66.109375 
Q 29.296875 66.109375 22.65625 58.46875 
Q 16.015625 50.828125 16.015625 36.375 
Q 16.015625 21.96875 22.65625 14.328125 
Q 29.296875 6.6875 41.796875 6.6875 
Q 48.140625 6.6875 53.78125 8.984375 
Q 59.421875 11.28125 64.40625 15.921875 
L 64.40625 5.609375 
Q 59.234375 2.09375 53.4375 0.328125 
Q 47.65625 -1.421875 41.21875 -1.421875 
Q 24.65625 -1.421875 15.125 8.703125 
Q 5.609375 18.84375 5.609375 36.375 
Q 5.609375 53.953125 15.125 64.078125 
Q 24.65625 74.21875 41.21875 74.21875 
Q 47.75 74.21875 53.53125 72.484375 
Q 59.328125 70.75 64.40625 67.28125 
z
" id="DejaVuSans-67"/>
     <path d="M 41.109375 46.296875 
Q 39.59375 47.171875 37.8125 47.578125 
Q 36.03125 48 33.890625 48 
Q 26.265625 48 22.1875 43.046875 
Q 18.109375 38.09375 18.109375 28.8125 
L 18.109375 0 
L 9.078125 0 
L 9.078125 54.6875 
L 18.109375 54.6875 
L 18.109375 46.1875 
Q 20.953125 51.171875 25.484375 53.578125 
Q 30.03125 56 36.53125 56 
Q 37.453125 56 38.578125 55.875 
Q 39.703125 55.765625 41.0625 55.515625 
z
" id="DejaVuSans-114"/>
     <path d="M 56.203125 29.59375 
L 56.203125 25.203125 
L 14.890625 25.203125 
Q 15.484375 15.921875 20.484375 11.0625 
Q 25.484375 6.203125 34.421875 6.203125 
Q 39.59375 6.203125 44.453125 7.46875 
Q 49.3125 8.734375 54.109375 11.28125 
L 54.109375 2.78125 
Q 49.265625 0.734375 44.1875 -0.34375 
Q 39.109375 -1.421875 33.890625 -1.421875 
Q 20.796875 -1.421875 13.15625 6.1875 
Q 5.515625 13.8125 5.515625 26.8125 
Q 5.515625 40.234375 12.765625 48.109375 
Q 20.015625 56 32.328125 56 
Q 43.359375 56 49.78125 48.890625 
Q 56.203125 41.796875 56.203125 29.59375 
z
M 47.21875 32.234375 
Q 47.125 39.59375 43.09375 43.984375 
Q 39.0625 48.390625 32.421875 48.390625 
Q 24.90625 48.390625 20.390625 44.140625 
Q 15.875 39.890625 15.1875 32.171875 
z
" id="DejaVuSans-101"/>
     <path d="M 34.28125 27.484375 
Q 23.390625 27.484375 19.1875 25 
Q 14.984375 22.515625 14.984375 16.5 
Q 14.984375 11.71875 18.140625 8.90625 
Q 21.296875 6.109375 26.703125 6.109375 
Q 34.1875 6.109375 38.703125 11.40625 
Q 43.21875 16.703125 43.21875 25.484375 
L 43.21875 27.484375 
z
M 52.203125 31.203125 
L 52.203125 0 
L 43.21875 0 
L 43.21875 8.296875 
Q 40.140625 3.328125 35.546875 0.953125 
Q 30.953125 -1.421875 24.3125 -1.421875 
Q 15.921875 -1.421875 10.953125 3.296875 
Q 6 8.015625 6 15.921875 
Q 6 25.140625 12.171875 29.828125 
Q 18.359375 34.515625 30.609375 34.515625 
L 43.21875 34.515625 
L 43.21875 35.40625 
Q 43.21875 41.609375 39.140625 45 
Q 35.0625 48.390625 27.6875 48.390625 
Q 23 48.390625 18.546875 47.265625 
Q 14.109375 46.140625 10.015625 43.890625 
L 10.015625 52.203125 
Q 14.9375 54.109375 19.578125 55.046875 
Q 24.21875 56 28.609375 56 
Q 40.484375 56 46.34375 49.84375 
Q 52.203125 43.703125 52.203125 31.203125 
z
" id="DejaVuSans-97"/>
     <path d="M 18.3125 70.21875 
L 18.3125 54.6875 
L 36.8125 54.6875 
L 36.8125 47.703125 
L 18.3125 47.703125 
L 18.3125 18.015625 
Q 18.3125 11.328125 20.140625 9.421875 
Q 21.96875 7.515625 27.59375 7.515625 
L 36.8125 7.515625 
L 36.8125 0 
L 27.59375 0 
Q 17.1875 0 13.234375 3.875 
Q 9.28125 7.765625 9.28125 18.015625 
L 9.28125 47.703125 
L 2.6875 47.703125 
L 2.6875 54.6875 
L 9.28125 54.6875 
L 9.28125 70.21875 
z
" id="DejaVuSans-116"/>
     <path d="M 45.40625 46.390625 
L 45.40625 75.984375 
L 54.390625 75.984375 
L 54.390625 0 
L 45.40625 0 
L 45.40625 8.203125 
Q 42.578125 3.328125 38.25 0.953125 
Q 33.9375 -1.421875 27.875 -1.421875 
Q 17.96875 -1.421875 11.734375 6.484375 
Q 5.515625 14.40625 5.515625 27.296875 
Q 5.515625 40.1875 11.734375 48.09375 
Q 17.96875 56 27.875 56 
Q 33.9375 56 38.25 53.625 
Q 42.578125 51.265625 45.40625 46.390625 
z
M 14.796875 27.296875 
Q 14.796875 17.390625 18.875 11.75 
Q 22.953125 6.109375 30.078125 6.109375 
Q 37.203125 6.109375 41.296875 11.75 
Q 45.40625 17.390625 45.40625 27.296875 
Q 45.40625 37.203125 41.296875 42.84375 
Q 37.203125 48.484375 30.078125 48.484375 
Q 22.953125 48.484375 18.875 42.84375 
Q 14.796875 37.203125 14.796875 27.296875 
z
" id="DejaVuSans-100"/>
     <path d="M 9.421875 54.6875 
L 18.40625 54.6875 
L 18.40625 0 
L 9.421875 0 
z
M 9.421875 75.984375 
L 18.40625 75.984375 
L 18.40625 64.59375 
L 9.421875 64.59375 
z
" id="DejaVuSans-105"/>
     <path d="M 44.28125 53.078125 
L 44.28125 44.578125 
Q 40.484375 46.53125 36.375 47.5 
Q 32.28125 48.484375 27.875 48.484375 
Q 21.1875 48.484375 17.84375 46.4375 
Q 14.5 44.390625 14.5 40.28125 
Q 14.5 37.15625 16.890625 35.375 
Q 19.28125 33.59375 26.515625 31.984375 
L 29.59375 31.296875 
Q 39.15625 29.25 43.1875 25.515625 
Q 47.21875 21.78125 47.21875 15.09375 
Q 47.21875 7.46875 41.1875 3.015625 
Q 35.15625 -1.421875 24.609375 -1.421875 
Q 20.21875 -1.421875 15.453125 -0.5625 
Q 10.6875 0.296875 5.421875 2 
L 5.421875 11.28125 
Q 10.40625 8.6875 15.234375 7.390625 
Q 20.0625 6.109375 24.8125 6.109375 
Q 31.15625 6.109375 34.5625 8.28125 
Q 37.984375 10.453125 37.984375 14.40625 
Q 37.984375 18.0625 35.515625 20.015625 
Q 33.0625 21.96875 24.703125 23.78125 
L 21.578125 24.515625 
Q 13.234375 26.265625 9.515625 29.90625 
Q 5.8125 33.546875 5.8125 39.890625 
Q 5.8125 47.609375 11.28125 51.796875 
Q 16.75 56 26.8125 56 
Q 31.78125 56 36.171875 55.265625 
Q 40.578125 54.546875 44.28125 53.078125 
z
" id="DejaVuSans-115"/>
     <path d="M 8.5 21.578125 
L 8.5 54.6875 
L 17.484375 54.6875 
L 17.484375 21.921875 
Q 17.484375 14.15625 20.5 10.265625 
Q 23.53125 6.390625 29.59375 6.390625 
Q 36.859375 6.390625 41.078125 11.03125 
Q 45.3125 15.671875 45.3125 23.6875 
L 45.3125 54.6875 
L 54.296875 54.6875 
L 54.296875 0 
L 45.3125 0 
L 45.3125 8.40625 
Q 42.046875 3.421875 37.71875 1 
Q 33.40625 -1.421875 27.6875 -1.421875 
Q 18.265625 -1.421875 13.375 4.4375 
Q 8.5 10.296875 8.5 21.578125 
z
M 31.109375 56 
z
" id="DejaVuSans-117"/>
     <path d="M 54.890625 33.015625 
L 54.890625 0 
L 45.90625 0 
L 45.90625 32.71875 
Q 45.90625 40.484375 42.875 44.328125 
Q 39.84375 48.1875 33.796875 48.1875 
Q 26.515625 48.1875 22.3125 43.546875 
Q 18.109375 38.921875 18.109375 30.90625 
L 18.109375 0 
L 9.078125 0 
L 9.078125 54.6875 
L 18.109375 54.6875 
L 18.109375 46.1875 
Q 21.34375 51.125 25.703125 53.5625 
Q 30.078125 56 35.796875 56 
Q 45.21875 56 50.046875 50.171875 
Q 54.890625 44.34375 54.890625 33.015625 
z
" id="DejaVuSans-110"/>
     <path d="M 19.671875 64.796875 
L 19.671875 37.40625 
L 32.078125 37.40625 
Q 38.96875 37.40625 42.71875 40.96875 
Q 46.484375 44.53125 46.484375 51.125 
Q 46.484375 57.671875 42.71875 61.234375 
Q 38.96875 64.796875 32.078125 64.796875 
z
M 9.8125 72.90625 
L 32.078125 72.90625 
Q 44.34375 72.90625 50.609375 67.359375 
Q 56.890625 61.8125 56.890625 51.125 
Q 56.890625 40.328125 50.609375 34.8125 
Q 44.34375 29.296875 32.078125 29.296875 
L 19.671875 29.296875 
L 19.671875 0 
L 9.8125 0 
z
" id="DejaVuSans-80"/>
     <path d="M 44.390625 34.1875 
Q 47.5625 33.109375 50.5625 29.59375 
Q 53.5625 26.078125 56.59375 19.921875 
L 66.609375 0 
L 56 0 
L 46.6875 18.703125 
Q 43.0625 26.03125 39.671875 28.421875 
Q 36.28125 30.8125 30.421875 30.8125 
L 19.671875 30.8125 
L 19.671875 0 
L 9.8125 0 
L 9.8125 72.90625 
L 32.078125 72.90625 
Q 44.578125 72.90625 50.734375 67.671875 
Q 56.890625 62.453125 56.890625 51.90625 
Q 56.890625 45.015625 53.6875 40.46875 
Q 50.484375 35.9375 44.390625 34.1875 
z
M 19.671875 64.796875 
L 19.671875 38.921875 
L 32.078125 38.921875 
Q 39.203125 38.921875 42.84375 42.21875 
Q 46.484375 45.515625 46.484375 51.90625 
Q 46.484375 58.296875 42.84375 61.546875 
Q 39.203125 64.796875 32.078125 64.796875 
z
" id="DejaVuSans-82"/>
     <path d="M 30.609375 48.390625 
Q 23.390625 48.390625 19.1875 42.75 
Q 14.984375 37.109375 14.984375 27.296875 
Q 14.984375 17.484375 19.15625 11.84375 
Q 23.34375 6.203125 30.609375 6.203125 
Q 37.796875 6.203125 41.984375 11.859375 
Q 46.1875 17.53125 46.1875 27.296875 
Q 46.1875 37.015625 41.984375 42.703125 
Q 37.796875 48.390625 30.609375 48.390625 
z
M 30.609375 56 
Q 42.328125 56 49.015625 48.375 
Q 55.71875 40.765625 55.71875 27.296875 
Q 55.71875 13.875 49.015625 6.21875 
Q 42.328125 -1.421875 30.609375 -1.421875 
Q 18.84375 -1.421875 12.171875 6.21875 
Q 5.515625 13.875 5.515625 27.296875 
Q 5.515625 40.765625 12.171875 48.375 
Q 18.84375 56 30.609375 56 
z
" id="DejaVuSans-111"/>
     <path d="M 2.984375 54.6875 
L 12.5 54.6875 
L 29.59375 8.796875 
L 46.6875 54.6875 
L 56.203125 54.6875 
L 35.6875 0 
L 23.484375 0 
z
" id="DejaVuSans-118"/>
     <path d="M 52 44.1875 
Q 55.375 50.25 60.0625 53.125 
Q 64.75 56 71.09375 56 
Q 79.640625 56 84.28125 50.015625 
Q 88.921875 44.046875 88.921875 33.015625 
L 88.921875 0 
L 79.890625 0 
L 79.890625 32.71875 
Q 79.890625 40.578125 77.09375 44.375 
Q 74.3125 48.1875 68.609375 48.1875 
Q 61.625 48.1875 57.5625 43.546875 
Q 53.515625 38.921875 53.515625 30.90625 
L 53.515625 0 
L 44.484375 0 
L 44.484375 32.71875 
Q 44.484375 40.625 41.703125 44.40625 
Q 38.921875 48.1875 33.109375 48.1875 
Q 26.21875 48.1875 22.15625 43.53125 
Q 18.109375 38.875 18.109375 30.90625 
L 18.109375 0 
L 9.078125 0 
L 9.078125 54.6875 
L 18.109375 54.6875 
L 18.109375 46.1875 
Q 21.1875 51.21875 25.484375 53.609375 
Q 29.78125 56 35.6875 56 
Q 41.65625 56 45.828125 52.96875 
Q 50 49.953125 52 44.1875 
z
" id="DejaVuSans-109"/>
    </defs>
    <g style="fill:#262626;" transform="translate(268.047188 80.4)scale(0.12 -0.12)">
     <use xlink:href="#DejaVuSans-67"/>
     <use x="69.824219" xlink:href="#DejaVuSans-114"/>
     <use x="108.6875" xlink:href="#DejaVuSans-101"/>
     <use x="170.210938" xlink:href="#DejaVuSans-97"/>
     <use x="231.490234" xlink:href="#DejaVuSans-116"/>
     <use x="270.699219" xlink:href="#DejaVuSans-101"/>
     <use x="332.222656" xlink:href="#DejaVuSans-100"/>
     <use x="395.699219" xlink:href="#DejaVuSans-32"/>
     <use x="427.486328" xlink:href="#DejaVuSans-105"/>
     <use x="455.269531" xlink:href="#DejaVuSans-115"/>
     <use x="507.369141" xlink:href="#DejaVuSans-115"/>
     <use x="559.46875" xlink:href="#DejaVuSans-117"/>
     <use x="622.847656" xlink:href="#DejaVuSans-101"/>
     <use x="684.371094" xlink:href="#DejaVuSans-115"/>
     <use x="736.470703" xlink:href="#DejaVuSans-32"/>
     <use x="768.257812" xlink:href="#DejaVuSans-97"/>
     <use x="829.537109" xlink:href="#DejaVuSans-110"/>
     <use x="892.916016" xlink:href="#DejaVuSans-100"/>
     <use x="956.392578" xlink:href="#DejaVuSans-32"/>
     <use x="988.179688" xlink:href="#DejaVuSans-80"/>
     <use x="1048.482422" xlink:href="#DejaVuSans-82"/>
     <use x="1117.964844" xlink:href="#DejaVuSans-115"/>
     <use x="1170.064453" xlink:href="#DejaVuSans-32"/>
     <use x="1201.851562" xlink:href="#DejaVuSans-111"/>
     <use x="1263.033203" xlink:href="#DejaVuSans-118"/>
     <use x="1322.212891" xlink:href="#DejaVuSans-101"/>
     <use x="1383.736328" xlink:href="#DejaVuSans-114"/>
     <use x="1424.849609" xlink:href="#DejaVuSans-32"/>
     <use x="1456.636719" xlink:href="#DejaVuSans-116"/>
     <use x="1495.845703" xlink:href="#DejaVuSans-105"/>
     <use x="1523.628906" xlink:href="#DejaVuSans-109"/>
     <use x="1621.041016" xlink:href="#DejaVuSans-101"/>
    </g>
   </g>
  </g>
 </g>
 <defs>
  <clipPath id="pd31dcbe3c3">
   <rect height="554.4" width="558" x="90" y="86.4"/>
  </clipPath>
 </defs>
</svg>
