<?xml version="1.0" encoding="utf-8" standalone="no"?>
<!DOCTYPE svg PUBLIC "-//W3C//DTD SVG 1.1//EN"
  "http://www.w3.org/Graphics/SVG/1.1/DTD/svg11.dtd">
<!-- Created with matplotlib (https://matplotlib.org/) -->
<svg height="720pt" version="1.1" viewBox="0 0 720 720" width="720pt" xmlns="http://www.w3.org/2000/svg" xmlns:xlink="http://www.w3.org/1999/xlink">
 <metadata>
  <rdf:RDF xmlns:cc="http://creativecommons.org/ns#" xmlns:dc="http://purl.org/dc/elements/1.1/" xmlns:rdf="http://www.w3.org/1999/02/22-rdf-syntax-ns#">
   <cc:Work>
    <dc:type rdf:resource="http://purl.org/dc/dcmitype/StillImage"/>
    <dc:date>2020-08-09T11:14:36.217834</dc:date>
    <dc:format>image/svg+xml</dc:format>
    <dc:creator>
     <cc:Agent>
      <dc:title>Matplotlib v3.3.0, https://matplotlib.org/</dc:title>
     </cc:Agent>
    </dc:creator>
   </cc:Work>
  </rdf:RDF>
 </metadata>
 <defs>
  <style type="text/css">*{stroke-linecap:butt;stroke-linejoin:round;}</style>
 </defs>
 <g id="figure_1">
  <g id="patch_1">
   <path d="M 0 720 
L 720 720 
L 720 0 
L 0 0 
z
" style="fill:#ffffff;"/>
  </g>
  <g id="axes_1">
   <g id="patch_2">
    <path d="M 90 640.8 
L 648 640.8 
L 648 86.4 
L 90 86.4 
z
" style="fill:#ffffff;"/>
   </g>
   <g id="matplotlib.axis_1">
    <g id="xtick_1">
     <g id="line2d_1">
      <path clip-path="url(#p003a45e1be)" d="M 162.145998 640.8 
L 162.145998 86.4 
" style="fill:none;stroke:#cccccc;stroke-linecap:round;stroke-width:0.8;"/>
     </g>
     <g id="line2d_2"/>
     <g id="text_1">
      <!-- 2015 -->
      <g style="fill:#262626;" transform="translate(149.420998 651.898438)scale(0.1 -0.1)">
       <defs>
        <path d="M 19.1875 8.296875 
L 53.609375 8.296875 
L 53.609375 0 
L 7.328125 0 
L 7.328125 8.296875 
Q 12.9375 14.109375 22.625 23.890625 
Q 32.328125 33.6875 34.8125 36.53125 
Q 39.546875 41.84375 41.421875 45.53125 
Q 43.3125 49.21875 43.3125 52.78125 
Q 43.3125 58.59375 39.234375 62.25 
Q 35.15625 65.921875 28.609375 65.921875 
Q 23.96875 65.921875 18.8125 64.3125 
Q 13.671875 62.703125 7.8125 59.421875 
L 7.8125 69.390625 
Q 13.765625 71.78125 18.9375 73 
Q 24.125 74.21875 28.421875 74.21875 
Q 39.75 74.21875 46.484375 68.546875 
Q 53.21875 62.890625 53.21875 53.421875 
Q 53.21875 48.921875 51.53125 44.890625 
Q 49.859375 40.875 45.40625 35.40625 
Q 44.1875 33.984375 37.640625 27.21875 
Q 31.109375 20.453125 19.1875 8.296875 
z
" id="DejaVuSans-50"/>
        <path d="M 31.78125 66.40625 
Q 24.171875 66.40625 20.328125 58.90625 
Q 16.5 51.421875 16.5 36.375 
Q 16.5 21.390625 20.328125 13.890625 
Q 24.171875 6.390625 31.78125 6.390625 
Q 39.453125 6.390625 43.28125 13.890625 
Q 47.125 21.390625 47.125 36.375 
Q 47.125 51.421875 43.28125 58.90625 
Q 39.453125 66.40625 31.78125 66.40625 
z
M 31.78125 74.21875 
Q 44.046875 74.21875 50.515625 64.515625 
Q 56.984375 54.828125 56.984375 36.375 
Q 56.984375 17.96875 50.515625 8.265625 
Q 44.046875 -1.421875 31.78125 -1.421875 
Q 19.53125 -1.421875 13.0625 8.265625 
Q 6.59375 17.96875 6.59375 36.375 
Q 6.59375 54.828125 13.0625 64.515625 
Q 19.53125 74.21875 31.78125 74.21875 
z
" id="DejaVuSans-48"/>
        <path d="M 12.40625 8.296875 
L 28.515625 8.296875 
L 28.515625 63.921875 
L 10.984375 60.40625 
L 10.984375 69.390625 
L 28.421875 72.90625 
L 38.28125 72.90625 
L 38.28125 8.296875 
L 54.390625 8.296875 
L 54.390625 0 
L 12.40625 0 
z
" id="DejaVuSans-49"/>
        <path d="M 10.796875 72.90625 
L 49.515625 72.90625 
L 49.515625 64.59375 
L 19.828125 64.59375 
L 19.828125 46.734375 
Q 21.96875 47.46875 24.109375 47.828125 
Q 26.265625 48.1875 28.421875 48.1875 
Q 40.625 48.1875 47.75 41.5 
Q 54.890625 34.8125 54.890625 23.390625 
Q 54.890625 11.625 47.5625 5.09375 
Q 40.234375 -1.421875 26.90625 -1.421875 
Q 22.3125 -1.421875 17.546875 -0.640625 
Q 12.796875 0.140625 7.71875 1.703125 
L 7.71875 11.625 
Q 12.109375 9.234375 16.796875 8.0625 
Q 21.484375 6.890625 26.703125 6.890625 
Q 35.15625 6.890625 40.078125 11.328125 
Q 45.015625 15.765625 45.015625 23.390625 
Q 45.015625 31 40.078125 35.4375 
Q 35.15625 39.890625 26.703125 39.890625 
Q 22.75 39.890625 18.8125 39.015625 
Q 14.890625 38.140625 10.796875 36.28125 
z
" id="DejaVuSans-53"/>
       </defs>
       <use xlink:href="#DejaVuSans-50"/>
       <use x="63.623047" xlink:href="#DejaVuSans-48"/>
       <use x="127.246094" xlink:href="#DejaVuSans-49"/>
       <use x="190.869141" xlink:href="#DejaVuSans-53"/>
      </g>
     </g>
    </g>
    <g id="xtick_2">
     <g id="line2d_3">
      <path clip-path="url(#p003a45e1be)" d="M 244.238082 640.8 
L 244.238082 86.4 
" style="fill:none;stroke:#cccccc;stroke-linecap:round;stroke-width:0.8;"/>
     </g>
     <g id="line2d_4"/>
     <g id="text_2">
      <!-- 2016 -->
      <g style="fill:#262626;" transform="translate(231.513082 651.898438)scale(0.1 -0.1)">
       <defs>
        <path d="M 33.015625 40.375 
Q 26.375 40.375 22.484375 35.828125 
Q 18.609375 31.296875 18.609375 23.390625 
Q 18.609375 15.53125 22.484375 10.953125 
Q 26.375 6.390625 33.015625 6.390625 
Q 39.65625 6.390625 43.53125 10.953125 
Q 47.40625 15.53125 47.40625 23.390625 
Q 47.40625 31.296875 43.53125 35.828125 
Q 39.65625 40.375 33.015625 40.375 
z
M 52.59375 71.296875 
L 52.59375 62.3125 
Q 48.875 64.0625 45.09375 64.984375 
Q 41.3125 65.921875 37.59375 65.921875 
Q 27.828125 65.921875 22.671875 59.328125 
Q 17.53125 52.734375 16.796875 39.40625 
Q 19.671875 43.65625 24.015625 45.921875 
Q 28.375 48.1875 33.59375 48.1875 
Q 44.578125 48.1875 50.953125 41.515625 
Q 57.328125 34.859375 57.328125 23.390625 
Q 57.328125 12.15625 50.6875 5.359375 
Q 44.046875 -1.421875 33.015625 -1.421875 
Q 20.359375 -1.421875 13.671875 8.265625 
Q 6.984375 17.96875 6.984375 36.375 
Q 6.984375 53.65625 15.1875 63.9375 
Q 23.390625 74.21875 37.203125 74.21875 
Q 40.921875 74.21875 44.703125 73.484375 
Q 48.484375 72.75 52.59375 71.296875 
z
" id="DejaVuSans-54"/>
       </defs>
       <use xlink:href="#DejaVuSans-50"/>
       <use x="63.623047" xlink:href="#DejaVuSans-48"/>
       <use x="127.246094" xlink:href="#DejaVuSans-49"/>
       <use x="190.869141" xlink:href="#DejaVuSans-54"/>
      </g>
     </g>
    </g>
    <g id="xtick_3">
     <g id="line2d_5">
      <path clip-path="url(#p003a45e1be)" d="M 326.555075 640.8 
L 326.555075 86.4 
" style="fill:none;stroke:#cccccc;stroke-linecap:round;stroke-width:0.8;"/>
     </g>
     <g id="line2d_6"/>
     <g id="text_3">
      <!-- 2017 -->
      <g style="fill:#262626;" transform="translate(313.830075 651.898438)scale(0.1 -0.1)">
       <defs>
        <path d="M 8.203125 72.90625 
L 55.078125 72.90625 
L 55.078125 68.703125 
L 28.609375 0 
L 18.3125 0 
L 43.21875 64.59375 
L 8.203125 64.59375 
z
" id="DejaVuSans-55"/>
       </defs>
       <use xlink:href="#DejaVuSans-50"/>
       <use x="63.623047" xlink:href="#DejaVuSans-48"/>
       <use x="127.246094" xlink:href="#DejaVuSans-49"/>
       <use x="190.869141" xlink:href="#DejaVuSans-55"/>
      </g>
     </g>
    </g>
    <g id="xtick_4">
     <g id="line2d_7">
      <path clip-path="url(#p003a45e1be)" d="M 408.647158 640.8 
L 408.647158 86.4 
" style="fill:none;stroke:#cccccc;stroke-linecap:round;stroke-width:0.8;"/>
     </g>
     <g id="line2d_8"/>
     <g id="text_4">
      <!-- 2018 -->
      <g style="fill:#262626;" transform="translate(395.922158 651.898438)scale(0.1 -0.1)">
       <defs>
        <path d="M 31.78125 34.625 
Q 24.75 34.625 20.71875 30.859375 
Q 16.703125 27.09375 16.703125 20.515625 
Q 16.703125 13.921875 20.71875 10.15625 
Q 24.75 6.390625 31.78125 6.390625 
Q 38.8125 6.390625 42.859375 10.171875 
Q 46.921875 13.96875 46.921875 20.515625 
Q 46.921875 27.09375 42.890625 30.859375 
Q 38.875 34.625 31.78125 34.625 
z
M 21.921875 38.8125 
Q 15.578125 40.375 12.03125 44.71875 
Q 8.5 49.078125 8.5 55.328125 
Q 8.5 64.0625 14.71875 69.140625 
Q 20.953125 74.21875 31.78125 74.21875 
Q 42.671875 74.21875 48.875 69.140625 
Q 55.078125 64.0625 55.078125 55.328125 
Q 55.078125 49.078125 51.53125 44.71875 
Q 48 40.375 41.703125 38.8125 
Q 48.828125 37.15625 52.796875 32.3125 
Q 56.78125 27.484375 56.78125 20.515625 
Q 56.78125 9.90625 50.3125 4.234375 
Q 43.84375 -1.421875 31.78125 -1.421875 
Q 19.734375 -1.421875 13.25 4.234375 
Q 6.78125 9.90625 6.78125 20.515625 
Q 6.78125 27.484375 10.78125 32.3125 
Q 14.796875 37.15625 21.921875 38.8125 
z
M 18.3125 54.390625 
Q 18.3125 48.734375 21.84375 45.5625 
Q 25.390625 42.390625 31.78125 42.390625 
Q 38.140625 42.390625 41.71875 45.5625 
Q 45.3125 48.734375 45.3125 54.390625 
Q 45.3125 60.0625 41.71875 63.234375 
Q 38.140625 66.40625 31.78125 66.40625 
Q 25.390625 66.40625 21.84375 63.234375 
Q 18.3125 60.0625 18.3125 54.390625 
z
" id="DejaVuSans-56"/>
       </defs>
       <use xlink:href="#DejaVuSans-50"/>
       <use x="63.623047" xlink:href="#DejaVuSans-48"/>
       <use x="127.246094" xlink:href="#DejaVuSans-49"/>
       <use x="190.869141" xlink:href="#DejaVuSans-56"/>
      </g>
     </g>
    </g>
    <g id="xtick_5">
     <g id="line2d_9">
      <path clip-path="url(#p003a45e1be)" d="M 490.739241 640.8 
L 490.739241 86.4 
" style="fill:none;stroke:#cccccc;stroke-linecap:round;stroke-width:0.8;"/>
     </g>
     <g id="line2d_10"/>
     <g id="text_5">
      <!-- 2019 -->
      <g style="fill:#262626;" transform="translate(478.014241 651.898438)scale(0.1 -0.1)">
       <defs>
        <path d="M 10.984375 1.515625 
L 10.984375 10.5 
Q 14.703125 8.734375 18.5 7.8125 
Q 22.3125 6.890625 25.984375 6.890625 
Q 35.75 6.890625 40.890625 13.453125 
Q 46.046875 20.015625 46.78125 33.40625 
Q 43.953125 29.203125 39.59375 26.953125 
Q 35.25 24.703125 29.984375 24.703125 
Q 19.046875 24.703125 12.671875 31.3125 
Q 6.296875 37.9375 6.296875 49.421875 
Q 6.296875 60.640625 12.9375 67.421875 
Q 19.578125 74.21875 30.609375 74.21875 
Q 43.265625 74.21875 49.921875 64.515625 
Q 56.59375 54.828125 56.59375 36.375 
Q 56.59375 19.140625 48.40625 8.859375 
Q 40.234375 -1.421875 26.421875 -1.421875 
Q 22.703125 -1.421875 18.890625 -0.6875 
Q 15.09375 0.046875 10.984375 1.515625 
z
M 30.609375 32.421875 
Q 37.25 32.421875 41.125 36.953125 
Q 45.015625 41.5 45.015625 49.421875 
Q 45.015625 57.28125 41.125 61.84375 
Q 37.25 66.40625 30.609375 66.40625 
Q 23.96875 66.40625 20.09375 61.84375 
Q 16.21875 57.28125 16.21875 49.421875 
Q 16.21875 41.5 20.09375 36.953125 
Q 23.96875 32.421875 30.609375 32.421875 
z
" id="DejaVuSans-57"/>
       </defs>
       <use xlink:href="#DejaVuSans-50"/>
       <use x="63.623047" xlink:href="#DejaVuSans-48"/>
       <use x="127.246094" xlink:href="#DejaVuSans-49"/>
       <use x="190.869141" xlink:href="#DejaVuSans-57"/>
      </g>
     </g>
    </g>
    <g id="xtick_6">
     <g id="line2d_11">
      <path clip-path="url(#p003a45e1be)" d="M 572.831325 640.8 
L 572.831325 86.4 
" style="fill:none;stroke:#cccccc;stroke-linecap:round;stroke-width:0.8;"/>
     </g>
     <g id="line2d_12"/>
     <g id="text_6">
      <!-- 2020 -->
      <g style="fill:#262626;" transform="translate(560.106325 651.898438)scale(0.1 -0.1)">
       <use xlink:href="#DejaVuSans-50"/>
       <use x="63.623047" xlink:href="#DejaVuSans-48"/>
       <use x="127.246094" xlink:href="#DejaVuSans-50"/>
       <use x="190.869141" xlink:href="#DejaVuSans-48"/>
      </g>
     </g>
    </g>
   </g>
   <g id="matplotlib.axis_2">
    <g id="ytick_1">
     <g id="line2d_13">
      <path clip-path="url(#p003a45e1be)" d="M 90 615.60541 
L 648 615.60541 
" style="fill:none;stroke:#cccccc;stroke-linecap:round;stroke-width:0.8;"/>
     </g>
     <g id="line2d_14"/>
     <g id="text_7">
      <!-- 0 -->
      <g style="fill:#262626;" transform="translate(80.1375 619.404629)scale(0.1 -0.1)">
       <use xlink:href="#DejaVuSans-48"/>
      </g>
     </g>
    </g>
    <g id="ytick_2">
     <g id="line2d_15">
      <path clip-path="url(#p003a45e1be)" d="M 90 507.409111 
L 648 507.409111 
" style="fill:none;stroke:#cccccc;stroke-linecap:round;stroke-width:0.8;"/>
     </g>
     <g id="line2d_16"/>
     <g id="text_8">
      <!-- 20000 -->
      <g style="fill:#262626;" transform="translate(54.6875 511.20833)scale(0.1 -0.1)">
       <use xlink:href="#DejaVuSans-50"/>
       <use x="63.623047" xlink:href="#DejaVuSans-48"/>
       <use x="127.246094" xlink:href="#DejaVuSans-48"/>
       <use x="190.869141" xlink:href="#DejaVuSans-48"/>
       <use x="254.492188" xlink:href="#DejaVuSans-48"/>
      </g>
     </g>
    </g>
    <g id="ytick_3">
     <g id="line2d_17">
      <path clip-path="url(#p003a45e1be)" d="M 90 399.212812 
L 648 399.212812 
" style="fill:none;stroke:#cccccc;stroke-linecap:round;stroke-width:0.8;"/>
     </g>
     <g id="line2d_18"/>
     <g id="text_9">
      <!-- 40000 -->
      <g style="fill:#262626;" transform="translate(54.6875 403.012031)scale(0.1 -0.1)">
       <defs>
        <path d="M 37.796875 64.3125 
L 12.890625 25.390625 
L 37.796875 25.390625 
z
M 35.203125 72.90625 
L 47.609375 72.90625 
L 47.609375 25.390625 
L 58.015625 25.390625 
L 58.015625 17.1875 
L 47.609375 17.1875 
L 47.609375 0 
L 37.796875 0 
L 37.796875 17.1875 
L 4.890625 17.1875 
L 4.890625 26.703125 
z
" id="DejaVuSans-52"/>
       </defs>
       <use xlink:href="#DejaVuSans-52"/>
       <use x="63.623047" xlink:href="#DejaVuSans-48"/>
       <use x="127.246094" xlink:href="#DejaVuSans-48"/>
       <use x="190.869141" xlink:href="#DejaVuSans-48"/>
       <use x="254.492188" xlink:href="#DejaVuSans-48"/>
      </g>
     </g>
    </g>
    <g id="ytick_4">
     <g id="line2d_19">
      <path clip-path="url(#p003a45e1be)" d="M 90 291.016513 
L 648 291.016513 
" style="fill:none;stroke:#cccccc;stroke-linecap:round;stroke-width:0.8;"/>
     </g>
     <g id="line2d_20"/>
     <g id="text_10">
      <!-- 60000 -->
      <g style="fill:#262626;" transform="translate(54.6875 294.815732)scale(0.1 -0.1)">
       <use xlink:href="#DejaVuSans-54"/>
       <use x="63.623047" xlink:href="#DejaVuSans-48"/>
       <use x="127.246094" xlink:href="#DejaVuSans-48"/>
       <use x="190.869141" xlink:href="#DejaVuSans-48"/>
       <use x="254.492188" xlink:href="#DejaVuSans-48"/>
      </g>
     </g>
    </g>
    <g id="ytick_5">
     <g id="line2d_21">
      <path clip-path="url(#p003a45e1be)" d="M 90 182.820214 
L 648 182.820214 
" style="fill:none;stroke:#cccccc;stroke-linecap:round;stroke-width:0.8;"/>
     </g>
     <g id="line2d_22"/>
     <g id="text_11">
      <!-- 80000 -->
      <g style="fill:#262626;" transform="translate(54.6875 186.619433)scale(0.1 -0.1)">
       <use xlink:href="#DejaVuSans-56"/>
       <use x="63.623047" xlink:href="#DejaVuSans-48"/>
       <use x="127.246094" xlink:href="#DejaVuSans-48"/>
       <use x="190.869141" xlink:href="#DejaVuSans-48"/>
       <use x="254.492188" xlink:href="#DejaVuSans-48"/>
      </g>
     </g>
    </g>
   </g>
   <g id="line2d_23">
    <path clip-path="url(#p003a45e1be)" d="M 115.363636 615.6 
L 115.474311 615.535082 
L 116.663722 615.183444 
L 117.168806 614.994101 
L 117.785087 614.869675 
L 118.269193 614.653282 
L 118.381637 614.610004 
L 119.356905 614.404431 
L 119.464453 614.285415 
L 120.0639 614.14476 
L 120.264197 614.074432 
L 120.977963 613.803941 
L 121.078298 613.776892 
L 122.616699 613.55509 
L 122.704308 613.538861 
L 123.229186 613.344107 
L 123.436608 613.241321 
L 124.057734 613.084436 
L 127.478659 611.7969 
L 127.792122 611.650835 
L 128.567402 611.472311 
L 128.69394 611.337066 
L 129.080881 611.20723 
L 129.762878 611.039526 
L 130.398436 610.90969 
L 130.476587 610.871822 
L 130.852126 610.741986 
L 130.894245 610.682478 
L 131.730626 610.541823 
L 132.694794 610.146907 
L 133.353246 610.017071 
L 133.408437 609.990022 
L 133.780681 609.865596 
L 133.860792 609.76281 
L 134.06622 609.622154 
L 134.797813 609.513958 
L 135.287666 609.389532 
L 136.040934 609.086583 
L 136.553286 608.972977 
L 136.669205 608.940518 
L 136.810271 608.821502 
L 137.31006 608.59429 
L 138.70195 608.226422 
L 139.155344 608.080357 
L 139.844979 607.950522 
L 140.036428 607.891014 
L 140.416185 607.70708 
L 141.194865 607.523146 
L 142.269559 607.020033 
L 142.813882 606.890198 
L 142.975586 606.798231 
L 143.465017 606.419544 
L 143.611367 606.289708 
L 144.122951 606.127414 
L 144.535057 606.002988 
L 144.852325 605.716268 
L 145.051839 605.591842 
L 145.191819 605.564793 
L 146.854991 604.823649 
L 147.512831 604.704633 
L 147.800492 604.515289 
L 148.146275 604.363814 
L 148.260433 604.271847 
L 148.694915 604.142012 
L 148.847161 604.104143 
L 149.240602 603.958078 
L 149.514898 603.812013 
L 149.791144 603.579391 
L 150.676404 603.3089 
L 150.777702 603.249392 
L 150.889316 603.124967 
L 151.234938 602.924804 
L 151.534284 602.73005 
L 151.642425 602.659723 
L 152.210208 602.513658 
L 152.750663 602.124151 
L 152.957239 602.005135 
L 153.065201 601.983496 
L 153.792248 601.664317 
L 153.934548 601.539891 
L 154.189149 601.393826 
L 154.420093 601.27481 
L 155.335817 601.080057 
L 155.428704 600.9935 
L 155.682113 600.820386 
L 155.768404 600.777107 
L 157.161496 600.3876 
L 157.338818 600.306453 
L 157.439562 600.182027 
L 158.357402 599.770881 
L 158.695165 599.559899 
L 158.780147 599.413834 
L 159.048799 599.267769 
L 159.186978 599.181212 
L 159.497096 598.94318 
L 160.09973 598.824164 
L 160.191976 598.775476 
L 160.322875 598.65105 
L 160.393974 598.591542 
L 161.909184 598.402198 
L 162.411805 598.35892 
L 163.220692 598.185806 
L 163.342294 598.06138 
L 163.636712 597.926135 
L 163.782466 597.693513 
L 163.925766 597.563677 
L 164.043247 597.450071 
L 165.027509 597.022695 
L 165.370059 596.579091 
L 165.503893 596.460075 
L 165.762428 596.173355 
L 166.613292 595.913683 
L 167.079108 595.383522 
L 167.176759 595.302374 
L 167.317817 595.177949 
L 167.412383 595.118441 
L 168.00728 594.934507 
L 168.089489 594.864179 
L 168.258726 594.739754 
L 168.443428 594.458443 
L 168.540264 594.344837 
L 168.652217 594.225821 
L 168.72715 594.106805 
L 168.891402 593.987789 
L 168.941281 593.928281 
L 169.551466 593.793036 
L 169.662112 593.695659 
L 169.764581 593.565824 
L 169.974499 593.306153 
L 170.098239 593.111399 
L 170.22418 592.954515 
L 170.326085 592.830089 
L 170.509022 592.705663 
L 170.556589 592.673204 
L 171.142187 592.537959 
L 171.332715 592.364845 
L 171.555808 592.148452 
L 171.697889 591.92665 
L 172.060741 591.558782 
L 172.807158 591.385668 
L 172.948919 591.207144 
L 173.262775 590.795998 
L 173.351814 590.655343 
L 173.573369 590.314525 
L 174.290118 589.903379 
L 174.525169 589.789773 
L 174.734814 589.622069 
L 174.84382 589.5842 
L 174.946802 589.389447 
L 175.065791 589.28125 
L 175.235582 589.097317 
L 175.237897 589.091907 
L 175.826434 588.962071 
L 175.944197 588.821416 
L 176.099043 588.648302 
L 176.170455 588.594204 
L 176.275262 588.475188 
L 176.412827 588.199287 
L 176.54431 588.074862 
L 176.724259 587.934206 
L 177.479899 587.452733 
L 177.675034 587.209291 
L 177.824521 587.057816 
L 178.060197 586.570933 
L 178.23444 586.36536 
L 178.31307 586.197656 
L 178.445295 586.089459 
L 178.977246 585.900116 
L 179.077771 585.79192 
L 179.193438 585.662084 
L 180.165218 584.563892 
L 180.532867 584.385368 
L 180.633598 584.185205 
L 180.76308 584.03373 
L 180.939709 583.763239 
L 181.653756 582.535211 
L 182.120134 582.307999 
L 182.284623 582.124065 
L 182.366294 581.961771 
L 182.57548 581.626362 
L 182.634876 581.458658 
L 182.74877 581.38292 
L 183.386561 580.858168 
L 183.695807 580.701284 
L 183.837821 580.52276 
L 183.99198 580.273908 
L 184.196794 579.987188 
L 184.602673 579.511124 
L 184.711978 579.370469 
L 185.177166 579.224404 
L 185.392252 578.953914 
L 185.54309 578.742931 
L 185.738512 578.548177 
L 185.926012 578.304736 
L 186.118021 577.996376 
L 186.518019 577.698836 
L 186.831638 577.579821 
L 186.930656 577.341789 
L 187.066706 577.206543 
L 187.168243 577.033429 
L 187.280305 576.903594 
L 187.431213 576.676381 
L 187.532363 576.530316 
L 187.634931 576.335563 
L 187.760165 576.205728 
L 187.881158 576.086712 
L 188.328598 575.962286 
L 188.405739 575.83786 
L 188.456203 575.686385 
L 189.461644 574.220325 
L 189.9481 574.07967 
L 190.403802 573.343935 
L 190.883225 572.591971 
L 190.974964 572.386398 
L 191.229115 572.261972 
L 191.551748 572.094268 
L 192.02824 571.374763 
L 192.156316 571.15296 
L 192.247339 571.001486 
L 192.369736 570.801322 
L 192.492218 570.601159 
L 192.660619 570.422635 
L 193.126203 570.195423 
L 193.252689 569.805916 
L 193.376147 569.654442 
L 193.549044 569.40559 
L 193.847258 568.999854 
L 193.962573 568.880838 
L 194.283551 568.464282 
L 194.56957 568.323627 
L 194.683722 568.204611 
L 194.923732 568.058546 
L 195.129775 567.782646 
L 195.364975 567.474286 
L 195.493119 567.101009 
L 195.646073 566.911665 
L 195.730981 566.846748 
L 196.272348 566.689863 
L 196.668624 566.089374 
L 196.749266 565.91085 
L 196.854672 565.710687 
L 196.98052 565.575441 
L 197.117556 565.353639 
L 197.234392 565.142656 
L 197.305376 565.093968 
L 197.779275 564.953312 
L 197.859113 564.791018 
L 197.981051 564.547576 
L 198.063916 564.401511 
L 198.527454 563.389876 
L 198.761407 563.119385 
L 198.814214 562.940861 
L 199.45397 562.827255 
L 199.742691 562.221356 
L 199.867318 562.10234 
L 200.005715 561.783161 
L 200.100698 561.610047 
L 200.223886 561.382835 
L 200.33116 561.247589 
L 200.553668 560.982508 
L 200.998117 560.841853 
L 201.115526 560.690378 
L 201.228259 560.522674 
L 201.769628 559.75448 
L 201.892688 559.613825 
L 202.450761 559.283826 
L 202.600493 559.143171 
L 202.899016 558.58596 
L 203.682017 557.936782 
L 204.106272 557.790717 
L 204.41527 557.103671 
L 204.538507 556.865639 
L 204.628484 556.681705 
L 205.472495 555.734988 
L 205.690623 555.615972 
L 205.823695 555.323842 
L 206.146935 554.744992 
L 206.198946 554.604336 
L 207.12907 553.397948 
L 207.302394 553.235653 
L 207.4419 552.840737 
L 207.779921 552.586475 
L 208.123119 552.077953 
L 208.233289 551.915658 
L 208.480239 551.737135 
L 208.864192 551.612709 
L 209.105335 551.331398 
L 209.212805 551.174514 
L 209.371332 551.023039 
L 209.818882 550.41714 
L 210.081732 550.319763 
L 210.426087 550.195337 
L 210.583682 549.973535 
L 210.709265 549.789601 
L 210.819517 549.594848 
L 211.063552 549.162063 
L 211.170986 549.026817 
L 211.281522 548.896982 
L 212.293853 547.998952 
L 212.426667 547.852887 
L 212.520036 547.674363 
L 212.748306 547.263218 
L 212.917489 547.025186 
L 213.049792 546.873711 
L 213.607444 546.60863 
L 214.25047 545.71601 
L 214.431009 545.488798 
L 214.539541 545.272406 
L 215.220349 544.947817 
L 215.412509 544.763883 
L 216.291191 543.68733 
L 216.7181 543.503396 
L 216.927787 543.200447 
L 217.011553 543.048972 
L 217.159264 542.832579 
L 217.255653 542.691924 
L 218.035541 542.21045 
L 218.444684 542.064385 
L 218.592054 541.826354 
L 218.77856 541.517994 
L 219.377242 540.77144 
L 219.848824 540.630784 
L 220.121358 540.306196 
L 220.278451 540.008656 
L 220.378268 539.770624 
L 220.493685 539.646198 
L 220.947232 538.980791 
L 221.335181 538.834726 
L 221.639286 538.288335 
L 221.727422 538.13686 
L 221.854835 537.942106 
L 222.294739 537.233421 
L 222.380426 537.071126 
L 223.270314 536.324572 
L 223.429375 535.962114 
L 223.501362 535.826869 
L 223.59004 535.572607 
L 223.705621 535.448182 
L 223.816358 535.20474 
L 223.975133 534.896381 
L 224.051566 534.750316 
L 224.576965 534.60966 
L 225.666934 532.635078 
L 226.109785 532.499833 
L 226.254433 532.202293 
L 226.457671 531.877704 
L 226.603324 531.623443 
L 226.640916 531.482787 
L 226.837181 531.169018 
L 226.917471 530.979675 
L 227.051306 530.795741 
L 227.767105 530.330497 
L 227.882264 529.973449 
L 228.031889 529.697548 
L 228.338383 529.102469 
L 228.441792 528.978043 
L 228.555744 528.794109 
L 228.689729 528.588536 
L 228.858711 528.312636 
L 229.317954 528.085424 
L 229.705926 527.338869 
L 229.783122 527.187394 
L 229.924169 526.949362 
L 230.03532 526.705921 
L 230.136157 526.462479 
L 230.257934 526.294775 
L 230.365305 526.121661 
L 230.946809 525.883629 
L 231.178534 525.499532 
L 231.401111 525.207402 
L 231.511772 525.012649 
L 231.635538 524.817895 
L 231.756445 524.644781 
L 231.858365 524.406749 
L 231.980103 524.37429 
L 232.387697 524.179537 
L 232.535857 524.001013 
L 233.205021 523.21118 
L 233.328518 523.038066 
L 233.609116 522.670199 
L 234.06794 522.432167 
L 234.244794 522.161676 
L 234.601817 521.609875 
L 234.713699 521.46381 
L 235.230099 520.814632 
L 235.579017 520.641518 
L 235.701595 520.419716 
L 235.885623 520.187094 
L 236.06017 519.954472 
L 236.25164 519.71103 
L 237.449834 518.623657 
L 237.562297 518.428904 
L 237.67697 518.23956 
L 237.798804 518.006938 
L 237.945398 517.790546 
L 238.12038 517.579563 
L 238.411417 517.38481 
L 238.694421 517.265794 
L 238.941897 516.924975 
L 239.071335 516.589567 
L 240.010638 515.377768 
L 240.349322 515.210064 
L 241.008464 514.284986 
L 241.180716 513.971216 
L 241.508816 513.722365 
L 241.873266 513.56007 
L 242.031645 513.397776 
L 242.245869 513.132695 
L 242.478591 512.948761 
L 242.761103 512.813516 
L 242.885548 512.797287 
L 243.452024 512.618763 
L 243.921781 512.288764 
L 244.278692 512.169748 
L 245.045765 511.991224 
L 245.239955 511.82893 
L 245.368136 511.693684 
L 245.472573 511.585488 
L 245.584374 511.450243 
L 246.125798 510.984998 
L 246.660505 510.757786 
L 246.866269 510.460246 
L 246.905839 510.325001 
L 247.023821 510.157297 
L 247.147951 510.011232 
L 247.621399 509.567627 
L 247.707773 509.48107 
L 248.179792 509.313366 
L 248.304604 509.19435 
L 248.522597 508.999596 
L 248.622151 508.934679 
L 248.720781 508.794023 
L 248.846257 508.620909 
L 248.953904 508.382878 
L 249.22435 507.895994 
L 249.885337 507.43075 
L 250.024703 507.295505 
L 250.828444 506.181083 
L 251.416687 505.775347 
L 251.525482 505.580593 
L 251.60975 505.445348 
L 251.737496 505.191087 
L 251.844325 505.066661 
L 251.963166 504.763711 
L 252.330362 504.082075 
L 252.469044 503.984698 
L 252.948513 503.708797 
L 253.185475 503.211094 
L 253.259284 503.005521 
L 253.381308 502.886506 
L 253.456236 502.707982 
L 254.061041 501.57733 
L 254.430153 501.447495 
L 254.891916 500.755038 
L 254.974885 500.598154 
L 255.673345 499.359306 
L 256.0597 499.105045 
L 256.246589 498.764227 
L 256.396052 498.223245 
L 256.50903 498.039311 
L 256.562881 497.877017 
L 256.702671 497.509149 
L 256.826544 497.227839 
L 256.992071 497.006037 
L 257.065841 496.827513 
L 257.182419 496.692267 
L 257.581842 496.470465 
L 257.698759 496.275712 
L 258.244186 495.096372 
L 258.362319 494.912438 
L 258.475008 494.631128 
L 258.580981 494.441784 
L 258.725048 494.203753 
L 258.874085 494.073917 
L 258.977486 494.052278 
L 259.205548 493.900803 
L 259.572945 493.381461 
L 259.771868 493.213756 
L 259.904245 493.046052 
L 260.387147 492.440153 
L 260.847853 492.202121 
L 260.962747 492.050646 
L 261.074916 491.909991 
L 261.228365 491.682779 
L 261.411841 491.3636 
L 261.67189 490.930814 
L 261.756497 490.77934 
L 261.919194 490.617045 
L 262.383615 490.422292 
L 262.633145 490.065244 
L 262.784238 489.924589 
L 262.886101 489.767704 
L 263.019566 489.621639 
L 263.12028 489.459345 
L 263.560794 489.113117 
L 264.219387 488.707381 
L 264.339031 488.566725 
L 264.479074 488.382792 
L 264.60058 488.290825 
L 264.672957 488.155579 
L 264.783746 488.020334 
L 264.873489 487.895908 
L 264.980126 487.711975 
L 265.579646 487.409025 
L 265.799612 487.154764 
L 266.032139 486.835585 
L 266.551316 486.10526 
L 267.132656 485.964604 
L 267.271928 485.818539 
L 267.377219 485.677884 
L 267.499275 485.50477 
L 267.609756 485.337066 
L 268.128501 484.509364 
L 268.745801 484.190185 
L 268.852844 484.017071 
L 268.934829 483.876416 
L 269.161941 483.557237 
L 269.289653 483.330024 
L 269.578459 483.102812 
L 269.759941 482.88101 
L 270.279774 482.691666 
L 270.538223 482.231832 
L 270.715092 481.9938 
L 270.819875 481.777408 
L 270.947202 481.625933 
L 271.084332 481.469048 
L 271.71011 481.12282 
L 271.901577 480.992984 
L 272.03935 480.890198 
L 272.300305 480.479052 
L 272.438539 480.268069 
L 272.544262 480.105775 
L 272.704216 479.889382 
L 272.973845 479.613482 
L 273.338207 479.467417 
L 273.500384 479.186106 
L 273.674114 479.002173 
L 273.790702 478.802009 
L 273.889749 478.645125 
L 274.011262 478.444962 
L 274.202298 478.266438 
L 275.13761 477.379228 
L 275.257409 477.103327 
L 275.449071 476.854476 
L 275.713556 476.318904 
L 275.850108 476.091692 
L 275.924802 475.956447 
L 276.023146 475.826611 
L 276.210995 475.702185 
L 276.543153 475.447924 
L 276.686901 475.128745 
L 276.765812 474.961041 
L 277.148028 474.014323 
L 277.926906 473.143343 
L 278.537573 472.499575 
L 278.651267 472.266953 
L 278.787563 472.039741 
L 278.919625 471.77466 
L 279.047157 471.585316 
L 279.229772 471.320235 
L 279.797388 470.849581 
L 280.006892 470.395157 
L 280.111754 470.265321 
L 280.187346 470.092207 
L 280.319775 469.843356 
L 280.441603 469.643193 
L 280.551958 469.513357 
L 280.684246 469.269915 
L 280.812712 469.204998 
L 281.319332 468.869589 
L 281.503909 468.480082 
L 281.764716 467.928281 
L 281.906823 467.587463 
L 281.999827 467.408939 
L 282.108156 467.187137 
L 282.192612 467.051891 
L 282.647123 466.732712 
L 282.894557 466.537959 
L 283.034553 466.316156 
L 283.502186 465.385668 
L 283.56224 465.239603 
L 283.709598 464.985342 
L 283.797404 464.823048 
L 283.914523 464.704032 
L 284.36781 464.503868 
L 284.50829 464.319935 
L 284.69198 464.081903 
L 284.809115 463.919608 
L 284.955379 463.681577 
L 285.173404 463.319119 
L 285.374649 462.99453 
L 285.492503 462.816006 
L 285.883632 462.653712 
L 286.729392 461.609617 
L 286.997701 461.160603 
L 287.474455 460.976669 
L 287.875867 460.36536 
L 288.047413 460.143558 
L 288.191202 459.932575 
L 288.361084 459.748641 
L 288.490342 459.559298 
L 288.625116 459.348315 
L 289.041608 459.20766 
L 289.264589 458.747825 
L 289.343877 458.596351 
L 289.417889 458.434056 
L 289.549975 458.163565 
L 289.619645 457.985041 
L 290.258383 456.897669 
L 291.097039 456.28636 
L 291.211048 456.080787 
L 291.528827 455.69669 
L 291.678189 455.534395 
L 291.750413 455.442428 
L 292.249462 455.290954 
L 292.50177 454.917676 
L 292.642222 454.620137 
L 292.756244 454.447022 
L 292.885046 454.160302 
L 292.99496 453.981778 
L 293.148964 453.732927 
L 293.247703 453.559813 
L 293.441365 453.446207 
L 293.849113 453.229814 
L 294.119848 452.851127 
L 294.25363 452.575226 
L 294.362206 452.326375 
L 294.490658 452.082933 
L 294.578648 451.926049 
L 294.726152 451.758344 
L 294.802923 451.574411 
L 294.880811 451.385067 
L 295.276046 451.228183 
L 295.484413 450.968511 
L 295.612531 450.806217 
L 295.722536 450.606054 
L 296.650984 448.696389 
L 296.989819 448.452947 
L 297.138674 447.901146 
L 297.213123 447.765901 
L 298.136232 445.904925 
L 298.57894 445.731811 
L 298.867684 445.033944 
L 298.979477 444.86624 
L 299.305636 444.135915 
L 299.462901 443.800507 
L 299.861743 443.40559 
L 300.114158 443.264935 
L 300.679556 442.339857 
L 300.789608 442.177562 
L 301.33617 441.220025 
L 301.724127 440.981993 
L 301.923633 440.570847 
L 302.177482 440.008226 
L 302.392734 439.380688 
L 302.492975 439.142656 
L 302.612825 438.942493 
L 302.698944 438.704461 
L 302.802702 438.536757 
L 302.911466 438.401511 
L 303.022945 438.282495 
L 303.300313 438.14184 
L 303.441032 437.871349 
L 303.58298 437.590039 
L 303.75198 437.28168 
L 303.825519 437.022009 
L 303.977182 436.735288 
L 304.033602 436.475617 
L 304.140887 436.286274 
L 304.272678 436.086111 
L 304.373432 435.923816 
L 304.720545 435.750702 
L 304.941886 435.442343 
L 305.391344 434.484805 
L 305.52056 434.203495 
L 305.599503 434.003332 
L 306.125674 433.424482 
L 306.417339 433.294646 
L 306.543145 432.915959 
L 306.707795 432.618419 
L 306.926117 432.191044 
L 307.036098 431.698751 
L 307.352451 431.027934 
L 307.498283 430.752033 
L 308.061617 430.275969 
L 308.254472 429.864823 
L 308.677745 429.172367 
L 308.910128 428.604336 
L 309.212346 428.182371 
L 309.533618 428.025486 
L 309.645315 427.760405 
L 309.773514 427.500734 
L 310.142501 426.73254 
L 310.265996 426.532377 
L 310.384149 426.245657 
L 310.496989 426.034674 
L 310.936339 425.515332 
L 311.134479 425.385497 
L 311.285605 425.012219 
L 311.542065 424.438779 
L 311.61109 424.244026 
L 312.162483 423.080915 
L 312.270755 423.053866 
L 312.703654 422.799605 
L 312.845602 422.534524 
L 312.949571 422.399279 
L 313.08023 422.042231 
L 313.182303 421.885346 
L 313.288058 421.571577 
L 313.397873 421.393053 
L 313.523817 421.117153 
L 313.641924 420.960268 
L 313.807672 420.662728 
L 314.112167 420.522073 
L 314.282498 420.32191 
L 314.477107 419.943223 
L 315.535352 418.385196 
L 315.889879 418.174213 
L 316.276032 417.476347 
L 316.450126 417.005693 
L 316.669231 416.540449 
L 316.819402 416.264549 
L 316.975332 416.021107 
L 317.188356 415.869632 
L 317.430803 415.691108 
L 317.603132 415.377339 
L 318.264734 414.279146 
L 318.913753 413.932918 
L 319.065504 413.786853 
L 319.5457 412.959152 
L 319.765533 412.255876 
L 319.88283 411.796041 
L 320.053559 411.287519 
L 320.163124 411.146864 
L 320.550883 410.935881 
L 320.733518 410.497686 
L 320.914989 410.210966 
L 321.061587 409.843098 
L 321.127571 409.659164 
L 321.291578 409.296707 
L 321.379732 409.118183 
L 321.623955 408.441956 
L 321.820413 408.32294 
L 322.186841 408.079499 
L 322.371585 407.711631 
L 322.592259 407.343764 
L 322.703504 407.181469 
L 322.808696 407.062453 
L 322.925358 406.889339 
L 323.453667 406.364587 
L 323.750378 406.213112 
L 323.90611 405.958851 
L 324.277053 405.444919 
L 324.400284 405.206887 
L 324.55074 405.012133 
L 324.67608 404.887708 
L 326.094451 404.308857 
L 326.357177 404.200661 
L 327.18225 403.95181 
L 327.316623 403.740827 
L 327.425082 403.605582 
L 327.551586 403.486566 
L 328.178288 403.07542 
L 328.453375 402.940174 
L 328.534947 402.78329 
L 329.441609 401.387557 
L 329.545258 401.268541 
L 330.018797 401.117067 
L 330.613405 400.14871 
L 330.816204 399.807891 
L 330.945392 399.634777 
L 331.213628 399.396746 
L 331.636922 399.201992 
L 331.989645 398.617732 
L 332.129654 398.433798 
L 332.626699 397.351835 
L 333.330113 396.902821 
L 334.609579 395.447581 
L 334.77616 395.323155 
L 335.060663 394.89037 
L 335.44571 394.343978 
L 335.607093 394.105947 
L 335.747365 393.949062 
L 336.395139 393.532506 
L 336.548559 393.213327 
L 336.628701 393.067262 
L 336.739428 392.894148 
L 336.841012 392.715624 
L 337.522684 391.617432 
L 337.861012 391.417268 
L 338.148384 391.054811 
L 338.40685 390.50301 
L 338.524173 390.21629 
L 338.685502 389.870061 
L 338.863368 389.637439 
L 338.99261 389.469735 
L 339.389199 389.258752 
L 339.55748 388.977442 
L 339.703268 388.669082 
L 339.77299 388.512198 
L 339.902688 388.230887 
L 340.109855 387.841381 
L 340.268448 387.549251 
L 340.637909 387.132695 
L 341.199561 386.640402 
L 341.374168 386.342862 
L 341.838651 385.396144 
L 341.938411 385.206801 
L 342.035497 385.066146 
L 342.132458 384.844343 
L 342.599708 384.66041 
L 342.948855 384.005822 
L 343.167291 383.681233 
L 343.355413 383.329595 
L 343.884779 382.664188 
L 344.204448 382.534352 
L 344.327625 382.290911 
L 344.421095 382.161075 
L 345.166078 381.15485 
L 345.828679 380.716655 
L 345.945669 380.603048 
L 346.238088 380.218952 
L 346.94072 379.434528 
L 347.418984 379.196497 
L 347.534162 379.017973 
L 347.760907 378.720433 
L 347.870923 378.574368 
L 347.992366 378.412073 
L 348.107968 378.190271 
L 348.373094 377.91978 
L 348.72899 377.789945 
L 348.940051 377.670929 
L 349.243716 377.200275 
L 349.932929 376.340114 
L 350.601062 376.221098 
L 351.217117 375.431265 
L 351.325767 375.323069 
L 351.48279 375.155365 
L 351.794818 375.00389 
L 352.053683 374.809137 
L 353.428517 373.110455 
L 353.721725 372.986029 
L 353.962504 372.65062 
L 354.913271 371.519969 
L 355.221806 371.352265 
L 355.789287 370.578661 
L 356.450506 369.74555 
L 357.147641 368.955717 
L 357.338397 368.57162 
L 357.468033 368.409325 
L 357.719252 368.008999 
L 357.939474 367.651951 
L 358.351447 367.446378 
L 358.783568 366.775561 
L 358.871772 366.602447 
L 359.101534 366.131793 
L 359.259023 365.866712 
L 359.519736 365.477206 
L 359.993007 365.314911 
L 360.412384 364.725242 
L 361.133183 363.6 
L 361.379118 363.453935 
L 361.56135 363.286231 
L 361.697564 362.994101 
L 361.791711 362.842626 
L 361.919404 362.572135 
L 362.67545 361.576729 
L 363.248728 361.024928 
L 363.425777 360.630012 
L 363.562464 360.354111 
L 363.790073 359.932145 
L 363.894331 359.759031 
L 364.27037 359.326246 
L 364.703093 359.196411 
L 364.859272 358.942149 
L 365.199534 358.444446 
L 365.326517 358.292972 
L 365.614904 357.914284 
L 365.743787 357.632974 
L 366.232716 357.45986 
L 366.352866 357.129861 
L 367.272747 355.690851 
L 367.792344 355.490687 
L 367.922429 355.306754 
L 368.077412 355.171508 
L 368.360413 354.960526 
L 368.943874 354.154463 
L 369.368574 353.997578 
L 369.489491 353.754137 
L 370.136401 352.899386 
L 370.343604 352.601846 
L 370.715601 352.342175 
L 370.974151 352.223159 
L 371.091325 351.958078 
L 371.834705 350.378412 
L 371.933915 350.1512 
L 372.170778 349.891529 
L 372.527979 349.718415 
L 372.666983 349.480383 
L 372.855235 349.361367 
L 373.044922 349.025959 
L 373.894592 347.943996 
L 374.174594 347.765472 
L 374.26567 347.52744 
L 374.366801 347.397604 
L 374.544121 347.094655 
L 374.634988 346.94318 
L 374.824269 346.624001 
L 375.023741 346.33728 
L 375.168016 346.120888 
L 375.610295 345.936954 
L 376.904039 344.086797 
L 377.239202 343.875815 
L 378.328124 341.97697 
L 378.753954 341.782216 
L 379.076546 341.154678 
L 379.521771 340.283698 
L 379.654103 340.072715 
L 379.835181 339.731896 
L 380.161256 339.418127 
L 380.392031 339.255833 
L 380.821322 338.466 
L 381.406481 337.265021 
L 381.547906 337.097317 
L 382.001446 336.859285 
L 382.113422 336.751088 
L 382.237598 336.567155 
L 382.861387 335.485192 
L 382.951598 335.295848 
L 383.266605 335.009128 
L 383.538478 334.879292 
L 384.196935 333.759461 
L 384.310551 333.618806 
L 384.451984 333.434872 
L 384.554326 333.240119 
L 384.614203 333.110283 
L 385.017968 332.964218 
L 385.128827 332.807333 
L 385.549848 332.147336 
L 385.874739 331.682092 
L 386.287308 331.222258 
L 386.961946 330.610948 
L 387.094294 330.329638 
L 387.189087 330.167344 
L 387.306719 329.945541 
L 387.678224 329.469477 
L 388.081422 329.231446 
L 388.413289 328.988004 
L 388.972458 328.257679 
L 389.265004 327.965549 
L 389.474275 327.873582 
L 389.92822 327.64096 
L 390.608161 326.46703 
L 390.750464 326.109982 
L 391.065223 325.855721 
L 391.415905 325.677197 
L 391.52843 325.428346 
L 391.62851 325.228183 
L 391.987298 324.546546 
L 392.093516 324.319334 
L 392.237831 324.043433 
L 392.376629 323.864909 
L 392.699232 323.626877 
L 392.919568 323.475403 
L 393.066584 323.215731 
L 393.473976 322.463767 
L 393.668098 322.333932 
L 394.062734 321.673934 
L 394.333207 321.592787 
L 394.575654 321.441312 
L 395.224097 320.375579 
L 396.013377 319.623614 
L 396.12447 319.499189 
L 396.267637 319.288206 
L 396.459859 318.86624 
L 396.691646 318.465914 
L 396.783357 318.265751 
L 397.040624 317.740999 
L 397.79921 316.886248 
L 398.006192 316.410184 
L 398.092249 316.24789 
L 399.088724 314.77642 
L 399.302862 314.614126 
L 399.445274 314.219209 
L 399.580215 314.035275 
L 399.710256 313.845932 
L 399.828485 313.580851 
L 400.247749 313.002001 
L 400.412883 312.904624 
L 400.845384 312.747739 
L 401.495317 311.595449 
L 401.602268 311.427745 
L 401.813418 311.092336 
L 401.968517 310.875943 
L 402.531578 310.502666 
L 403.085226 309.896767 
L 403.320345 309.729063 
L 403.605457 309.561358 
L 404.030803 309.285458 
L 404.735103 308.403658 
L 404.887355 308.241364 
L 405.470928 307.905955 
L 405.583956 307.7653 
L 406.45033 306.548092 
L 406.616961 306.358748 
L 406.794887 306.223503 
L 407.3888 306.066618 
L 408.193597 305.612194 
L 408.990449 305.42826 
L 409.136495 305.271375 
L 409.27932 305.13613 
L 409.41165 304.946786 
L 409.599184 304.762853 
L 409.780721 304.481542 
L 410.186584 304.346297 
L 410.35756 304.221871 
L 410.569157 304.043347 
L 411.610339 302.690893 
L 411.909136 302.523189 
L 413.182956 300.932704 
L 413.454323 300.792048 
L 413.575829 300.618934 
L 414.020167 299.894019 
L 414.132747 299.731725 
L 414.855525 299.050088 
L 415.052105 298.898613 
L 415.236697 298.519926 
L 415.362085 298.303534 
L 416.003549 297.162063 
L 416.491543 296.886162 
L 416.674813 296.745507 
L 416.853822 296.420918 
L 417.23714 295.78797 
L 417.409279 295.425512 
L 417.562575 295.306496 
L 417.686767 295.122562 
L 418.147626 294.846662 
L 418.300333 294.678958 
L 418.716903 294.089288 
L 418.830131 293.948633 
L 418.937948 293.813387 
L 419.107911 293.602404 
L 419.220819 293.456339 
L 419.385966 293.348143 
L 419.832414 293.191258 
L 419.921561 293.093882 
L 420.068494 292.969456 
L 420.231054 292.726014 
L 420.337735 292.56372 
L 420.446207 292.331098 
L 420.511314 292.195852 
L 420.755021 291.708969 
L 420.832006 291.573724 
L 420.946067 291.416839 
L 421.095577 291.346512 
L 421.340841 291.189627 
L 421.460775 290.946185 
L 421.690672 290.567498 
L 421.800495 290.313237 
L 422.024686 289.988648 
L 422.469383 289.409798 
L 422.874361 289.274552 
L 423.017406 289.031111 
L 423.246059 288.809308 
L 423.392768 288.657833 
L 424.207332 287.959967 
L 424.540217 287.803083 
L 424.670347 287.5921 
L 424.759035 287.418986 
L 424.937263 287.116036 
L 425.021826 286.975381 
L 425.15509 286.845545 
L 425.775196 286.293744 
L 426.073912 286.169319 
L 426.342171 285.796041 
L 426.676805 285.228011 
L 426.803372 285.049487 
L 427.358061 284.589653 
L 427.525968 284.470637 
L 427.647624 284.216375 
L 427.856634 283.918836 
L 427.968012 283.734902 
L 428.080297 283.556378 
L 428.384103 283.123593 
L 428.606292 282.91261 
L 428.781717 282.723266 
L 429.199304 282.544743 
L 429.304996 282.414907 
L 429.645274 282.095728 
L 430.333688 281.349174 
L 430.703407 281.219338 
L 430.863106 281.057043 
L 430.990617 280.87852 
L 431.109801 280.694586 
L 431.320646 280.359177 
L 432.138956 279.40705 
L 432.336047 279.255575 
L 432.513564 278.871478 
L 432.603723 278.692954 
L 432.904485 278.24935 
L 433.093852 277.968039 
L 433.353545 277.65968 
L 433.892162 277.302632 
L 434.007397 277.102469 
L 434.36201 276.507389 
L 435.283755 275.674278 
L 435.575331 275.549852 
L 435.676923 275.447065 
L 435.98354 275.246902 
L 436.891176 274.673462 
L 437.169525 274.511167 
L 437.902408 273.450844 
L 438.052783 273.310188 
L 438.155169 273.196582 
L 438.66289 272.96937 
L 438.789456 272.720519 
L 439.82463 271.438393 
L 440.257196 271.297737 
L 440.653066 270.810854 
L 440.776217 270.583642 
L 440.910674 270.432167 
L 440.992334 270.264463 
L 441.421716 269.853317 
L 441.843776 269.642334 
L 441.977897 269.561187 
L 442.062696 269.388073 
L 442.341634 268.955287 
L 442.503376 268.809222 
L 442.64388 268.58742 
L 442.793557 268.419716 
L 442.801163 268.387257 
L 443.394141 268.273651 
L 444.047002 267.310704 
L 444.566364 266.915787 
L 445.054574 266.656116 
L 445.201672 266.515461 
L 445.379361 266.342347 
L 445.562712 266.180052 
L 445.667735 266.055627 
L 446.064667 265.725628 
L 446.607944 265.557924 
L 446.739417 265.476776 
L 446.848923 265.309072 
L 446.959951 265.195466 
L 447.178278 264.984483 
L 447.276181 264.827599 
L 447.394951 264.697763 
L 447.916049 264.389404 
L 448.242046 264.129733 
L 448.574666 263.740226 
L 448.850789 263.410227 
L 448.995598 263.231703 
L 449.302168 262.982852 
L 449.670052 262.847606 
L 449.979199 262.393182 
L 450.150976 262.198429 
L 450.203213 262.084822 
L 450.374634 261.965807 
L 450.678595 261.603349 
L 451.336024 261.257121 
L 451.423331 261.127285 
L 451.552383 260.99745 
L 452.50719 260.034503 
L 452.879924 259.877618 
L 453.122967 259.558439 
L 453.268143 259.401554 
L 453.448323 259.206801 
L 453.573174 259.076965 
L 453.713686 258.844343 
L 453.866135 258.655 
L 454.426723 258.481886 
L 455.650052 257.18353 
L 455.977463 257.053695 
L 456.322502 256.653368 
L 456.491699 256.501893 
L 456.729188 256.188124 
L 456.920712 255.939273 
L 457.561458 255.72288 
L 457.75222 255.44157 
L 457.905315 255.225177 
L 458.619346 254.208132 
L 459.10921 254.002559 
L 460.004002 252.915186 
L 460.801737 252.449942 
L 460.994644 252.168632 
L 461.09029 252.076665 
L 461.196906 251.941419 
L 461.556109 251.486995 
L 461.623931 251.34093 
L 462.451718 250.805358 
L 462.718484 250.410442 
L 463.216922 249.631428 
L 464.035607 249.263561 
L 464.157584 249.079627 
L 464.290695 248.868645 
L 464.401746 248.744219 
L 464.522414 248.511597 
L 464.711351 248.251926 
L 464.875931 248.073402 
L 464.984307 248.051762 
L 465.094482 248.024713 
L 465.429176 247.889468 
L 465.529539 247.737993 
L 465.728798 247.591928 
L 466.482485 246.569473 
L 467.123595 246.293573 
L 467.80003 245.465871 
L 467.921291 245.346855 
L 468.006749 245.18997 
L 468.08408 245.130462 
L 468.627739 244.968168 
L 469.187809 244.270302 
L 469.318179 244.086368 
L 469.41956 243.891615 
L 469.541381 243.761779 
L 469.909895 243.534567 
L 470.209433 243.410141 
L 470.376991 243.215388 
L 470.507913 243.058503 
L 470.846917 242.696046 
L 471.355843 242.295719 
L 471.722308 242.176703 
L 471.955189 241.917032 
L 472.055331 241.743918 
L 472.40271 241.527526 
L 472.559225 241.289494 
L 472.691904 241.154248 
L 472.824143 241.035232 
L 473.23654 240.878348 
L 473.418438 240.656545 
L 473.583513 240.359006 
L 473.675153 240.22376 
L 473.846394 240.061466 
L 474.173169 239.699008 
L 474.295469 239.542124 
L 475.011635 239.179666 
L 475.144494 239.033601 
L 475.409996 238.671143 
L 475.966797 237.994916 
L 476.449551 237.783934 
L 476.717785 237.410656 
L 476.829352 237.253772 
L 476.940575 237.107707 
L 477.104473 236.907544 
L 477.895102 236.355743 
L 478.14048 236.117711 
L 478.249243 236.014924 
L 478.601574 235.56591 
L 478.936916 235.084436 
L 479.035509 234.927551 
L 479.116612 234.878863 
L 479.535824 234.700339 
L 479.730631 234.521815 
L 479.897294 234.343291 
L 480.051396 234.175587 
L 480.353288 233.883457 
L 480.47799 233.715753 
L 480.594488 233.51018 
L 480.686141 233.434442 
L 481.138392 233.288377 
L 481.261239 233.104444 
L 481.422055 232.942149 
L 481.552034 232.741986 
L 482.336766 232.222644 
L 482.801522 232.087399 
L 482.902562 231.995432 
L 483.025581 231.843957 
L 483.363112 231.411172 
L 483.664892 231.146091 
L 484.624638 230.496913 
L 484.73729 230.377897 
L 485.02228 230.091177 
L 485.130903 229.928882 
L 485.336586 229.70167 
L 485.409024 229.625933 
L 485.882409 229.463638 
L 486.022207 229.355442 
L 486.203577 229.187738 
L 486.319747 229.020033 
L 486.498548 228.906427 
L 486.767583 228.711674 
L 486.930611 228.565609 
L 487.484236 228.403315 
L 487.603834 228.230201 
L 487.819664 228.013808 
L 488.022692 227.802825 
L 488.13719 227.683809 
L 488.585971 227.35922 
L 489.716205 226.996763 
L 490.708623 226.47742 
L 491.094114 226.352995 
L 491.323199 226.163651 
L 491.41151 226.017586 
L 491.518785 225.89857 
L 492.525363 225.195294 
L 492.743648 224.919394 
L 493.50932 224.270216 
L 493.917227 224.080872 
L 494.072198 223.923988 
L 494.19669 223.799562 
L 494.33483 223.57235 
L 494.499168 223.404646 
L 494.91056 222.98268 
L 495.368002 222.820386 
L 495.562187 222.647271 
L 496.219947 221.900717 
L 496.391586 221.733013 
L 496.505332 221.668095 
L 496.916128 221.419243 
L 497.024127 221.208261 
L 497.240904 220.894491 
L 497.390467 220.710558 
L 497.546852 220.499575 
L 497.951747 220.034331 
L 498.446054 219.844987 
L 498.751697 219.531218 
L 499.781118 218.784664 
L 500.034604 218.649418 
L 500.504905 218.086797 
L 500.66625 217.870405 
L 500.861533 217.616144 
L 500.990458 217.4268 
L 501.588726 217.113031 
L 502.474577 216.047297 
L 502.671474 215.738938 
L 503.117152 215.560414 
L 503.184526 215.419759 
L 503.310228 215.208776 
L 503.46817 214.900416 
L 504.098644 214.007797 
L 504.299066 213.758946 
L 504.832993 213.526323 
L 505.619089 212.071083 
L 505.732728 211.903379 
L 506.019187 211.622069 
L 506.372938 211.503053 
L 506.577905 211.373217 
L 506.732018 211.227152 
L 506.854901 211.097317 
L 507.127068 210.837645 
L 507.261454 210.751088 
L 508.060225 210.437319 
L 508.20576 210.312893 
L 508.727619 209.853059 
L 508.849861 209.701584 
L 509.56962 209.25257 
L 509.67545 209.068636 
L 509.859431 208.852243 
L 510.09316 208.576343 
L 510.333803 208.257164 
L 510.498383 208.035361 
L 510.908882 207.905526 
L 511.073418 207.764871 
L 511.194179 207.564707 
L 511.383218 207.256348 
L 511.816914 206.666678 
L 512.016152 206.423236 
L 512.720549 206.0175 
L 512.865288 205.73619 
L 513.112517 205.465699 
L 513.34735 205.130291 
L 513.443397 204.951767 
L 513.7106 204.621768 
L 514.174838 204.389146 
L 514.259643 204.243081 
L 514.404717 204.075377 
L 514.54374 203.869804 
L 514.65084 203.745378 
L 514.751828 203.566854 
L 515.275629 202.906857 
L 515.748259 202.733743 
L 516.109698 202.328007 
L 516.225224 202.144073 
L 516.422919 201.851943 
L 516.531539 201.668009 
L 516.899878 201.251453 
L 517.169296 201.105388 
L 517.279984 201.078339 
L 517.464766 200.894406 
L 517.742957 200.542768 
L 518.11764 200.218179 
L 518.491225 199.731295 
L 518.743558 199.58523 
L 518.951894 199.401297 
L 519.36143 198.963102 
L 519.456366 198.827856 
L 519.808012 198.211137 
L 519.958756 197.983925 
L 520.749335 197.448353 
L 520.850443 197.313108 
L 520.95741 197.177863 
L 521.087137 196.934421 
L 521.442341 196.566554 
L 521.574111 196.360981 
L 522.155185 196.025572 
L 522.51262 195.614426 
L 522.9032 195.235739 
L 523.058963 195.030166 
L 524.402315 193.823777 
L 524.650757 193.482959 
L 525.461794 192.990666 
L 525.722833 192.725585 
L 525.952392 192.5687 
L 526.283686 192.341488 
L 526.801879 192.130505 
L 527.844347 190.989034 
L 527.952749 190.929526 
L 528.153163 190.864609 
L 528.433019 190.734773 
L 528.558144 190.615757 
L 528.88664 190.361496 
L 529.053565 190.128874 
L 529.233149 189.912481 
L 529.364412 189.771826 
L 529.830069 189.582483 
L 530.017486 189.441827 
L 530.13567 189.344451 
L 530.280674 189.214615 
L 531.143519 188.235439 
L 531.556715 188.056915 
L 531.828111 187.678228 
L 532.015239 187.564622 
L 532.717955 186.872165 
L 532.938913 186.801838 
L 533.241263 186.580035 
L 534.162764 185.427745 
L 534.597165 185.27627 
L 534.854981 185.011189 
L 535.077501 184.773157 
L 535.215107 184.643321 
L 536.080198 183.902177 
L 536.29626 183.739882 
L 536.480462 183.539719 
L 536.619448 183.377425 
L 536.798269 183.161032 
L 536.961621 182.960869 
L 537.321885 182.446937 
L 538.205369 181.878906 
L 539.159101 180.89973 
L 539.446819 180.753665 
L 539.570502 180.667107 
L 539.723786 180.477764 
L 539.842804 180.29924 
L 539.977279 180.136946 
L 540.372594 179.455309 
L 540.863845 179.206457 
L 541.043119 179.082032 
L 541.287961 178.665476 
L 541.637683 178.194822 
L 541.856452 177.9622 
L 542.889718 176.999253 
L 543.022649 176.79368 
L 543.114505 176.653025 
L 543.23358 176.479911 
L 543.335979 176.312206 
L 543.451524 176.20401 
L 543.861492 175.803684 
L 544.101617 175.679258 
L 544.320907 175.311391 
L 544.513837 174.997621 
L 544.85848 174.575656 
L 545.018523 174.391722 
L 546.101586 173.607299 
L 546.209314 173.461234 
L 546.611285 173.066317 
L 546.756698 172.866154 
L 546.992843 172.795827 
L 547.339912 172.606483 
L 547.479833 172.503697 
L 547.942163 171.914027 
L 548.114276 171.573209 
L 548.602549 171.362226 
L 548.925008 171.189112 
L 549.056261 171.086325 
L 549.378124 170.740097 
L 549.507705 170.599442 
L 549.616559 170.453377 
L 550.038947 170.053051 
L 550.407825 169.847478 
L 550.781811 169.376824 
L 550.950691 169.219939 
L 551.13127 168.852072 
L 551.611988 168.419286 
L 552.116604 168.056829 
L 552.229855 167.975682 
L 553.45496 166.893719 
L 553.655359 166.758473 
L 554.444782 165.768477 
L 554.588808 165.525035 
L 554.717066 165.368151 
L 554.996449 165.200447 
L 555.313738 164.859628 
L 555.463881 164.664875 
L 555.778903 164.313237 
L 555.89045 164.167172 
L 556.007653 164.058976 
L 556.912569 163.539633 
L 557.791586 162.338654 
L 558.159207 162.18718 
L 558.867782 161.364888 
L 559.02866 161.202593 
L 559.151325 161.061938 
L 559.307528 161.034889 
L 559.87226 160.834726 
L 560.177476 160.272105 
L 560.29345 160.082762 
L 560.407959 159.925877 
L 560.638111 159.574239 
L 560.760895 159.363256 
L 561.153407 158.97375 
L 561.454378 158.768177 
L 561.571885 158.622112 
L 561.786867 158.405719 
L 561.950348 158.08654 
L 562.116961 157.78359 
L 562.2655 157.518509 
L 562.622573 157.150642 
L 563.072112 156.961298 
L 563.325307 156.761135 
L 563.487471 156.647529 
L 563.835499 156.436546 
L 563.944278 156.301301 
L 564.224626 156.139006 
L 564.369136 156.095728 
L 564.668605 155.955073 
L 564.810256 155.819827 
L 565.338729 155.262616 
L 565.445447 155.213928 
L 566.156224 154.954257 
L 566.442784 154.651307 
L 567.25525 153.71 
L 567.728831 153.520656 
L 567.848941 153.358362 
L 568.325724 152.83361 
L 568.44074 152.687545 
L 568.769585 152.384595 
L 569.294604 152.22771 
L 569.561718 151.962629 
L 570.731952 150.994272 
L 570.903326 150.864437 
L 572.081216 150.080014 
L 572.427988 149.950178 
L 572.542046 149.89067 
L 572.982008 149.728376 
L 573.309281 149.522803 
L 573.516843 149.355099 
L 574.159604 149.01969 
L 574.271684 148.949362 
L 574.424253 148.765429 
L 574.752015 148.332644 
L 574.879081 148.14871 
L 575.136048 147.872809 
L 575.383733 147.824121 
L 575.62675 147.678056 
L 575.744364 147.510352 
L 575.875845 147.375106 
L 576.013488 147.185763 
L 576.165193 147.034288 
L 576.281857 146.926092 
L 576.830913 146.498716 
L 577.276268 146.276914 
L 577.541779 146.038882 
L 577.653552 145.957735 
L 577.788987 145.822489 
L 578.043195 145.654785 
L 578.233173 145.4979 
L 578.304142 145.454622 
L 578.821258 145.324786 
L 579.285415 144.875772 
L 579.449384 144.708067 
L 581.044804 143.609875 
L 581.174239 143.490859 
L 581.543791 143.269057 
L 582.026579 143.031025 
L 582.115747 142.944468 
L 582.243914 142.814632 
L 582.663975 142.343978 
L 583.071444 141.976111 
L 583.541701 141.738079 
L 584.631017 140.715624 
L 585.15086 140.439723 
L 585.687007 139.758087 
L 585.836086 139.617432 
L 585.942587 139.520055 
L 586.115783 139.341531 
L 586.324853 139.249564 
L 586.666794 139.114319 
L 587.022873 138.735632 
L 587.21289 138.584157 
L 587.396822 138.335305 
L 587.524099 138.19465 
L 587.649239 138.021536 
L 587.809443 137.940389 
L 588.28363 137.751045 
L 588.44512 137.61039 
L 588.697873 137.377768 
L 588.789339 137.204654 
L 589.189564 137.004491 
L 589.574404 136.901705 
L 589.896913 136.75023 
L 591.056862 135.808922 
L 591.39299 135.635808 
L 591.562131 135.381547 
L 592.785224 134.180568 
L 593.15658 133.991224 
L 593.468606 133.693684 
L 593.675916 133.498931 
L 593.795157 133.352866 
L 593.928692 133.195981 
L 594.021673 133.087785 
L 594.496795 132.94713 
L 595.609336 131.903036 
L 596.1813 131.648774 
L 596.29256 131.600086 
L 596.517777 131.416152 
L 596.704696 131.270087 
L 597.042647 130.983367 
L 597.169055 130.913039 
L 597.634462 130.734515 
L 598.65247 129.787798 
L 598.7937 129.690421 
L 599.246198 129.517307 
L 599.662982 129.14403 
L 599.765826 129.035834 
L 599.960146 128.83567 
L 600.137992 128.700425 
L 600.978452 128.26223 
L 601.618151 127.613052 
L 601.727685 127.477807 
L 602.600194 126.834039 
L 602.833432 126.628466 
L 603.048166 126.374205 
L 603.280164 126.174041 
L 604.691226 125.097488 
L 604.79654 125.010931 
L 605.53532 124.707982 
L 605.881129 124.350934 
L 606.262963 124.004706 
L 606.412445 123.847821 
L 606.532459 123.690936 
L 606.669287 123.647658 
L 607.156107 123.496183 
L 607.340054 123.2852 
L 607.42817 123.133725 
L 607.551639 122.99307 
L 607.72143 122.825366 
L 608.517582 122.159959 
L 608.717283 122.019304 
L 608.876743 121.873239 
L 609.454485 121.213241 
L 609.558394 121.148323 
L 609.701464 121.002258 
L 609.807575 120.883242 
L 610.46079 120.564063 
L 610.591852 120.396359 
L 610.780966 120.244884 
L 611.154455 119.914886 
L 611.270064 119.736362 
L 612.069606 119.249478 
L 612.190029 119.081774 
L 612.627127 118.638169 
L 612.824946 118.481285 
L 613.039391 118.405547 
L 613.369889 118.270302 
L 613.542638 118.118827 
L 613.646861 117.999811 
L 613.870053 117.72932 
L 614.216919 117.323584 
L 614.95851 117.074733 
L 615.146088 116.885389 
L 615.319735 116.685226 
L 615.558774 116.501292 
L 615.792098 116.349818 
L 616.147531 116.144245 
L 616.235529 116.106376 
L 616.619597 115.933262 
L 616.843608 115.754738 
L 616.988641 115.543755 
L 617.109666 115.440969 
L 617.384852 115.175888 
L 617.498559 115.067691 
L 617.759403 114.937856 
L 618.10756 114.764742 
L 618.243891 114.634906 
L 618.41616 114.456382 
L 618.755191 114.050646 
L 619.010474 113.861303 
L 619.122015 113.742287 
L 619.284408 113.671959 
L 619.817114 113.466386 
L 619.970151 113.34737 
L 620.232291 113.152617 
L 620.502558 112.898356 
L 620.631829 112.833438 
L 621.370652 112.508849 
L 621.74626 112.222129 
L 621.980541 112.032785 
L 622.077864 111.946228 
L 622.247613 111.810983 
L 622.364233 111.719016 
L 622.636364 111.6 
L 622.636364 111.6 
" style="fill:none;stroke:#92c6ff;stroke-linecap:round;stroke-width:1.5;"/>
   </g>
   <g id="line2d_24">
    <defs>
     <path d="M 0 2.5 
C 0.663008 2.5 1.29895 2.236584 1.767767 1.767767 
C 2.236584 1.29895 2.5 0.663008 2.5 0 
C 2.5 -0.663008 2.236584 -1.29895 1.767767 -1.767767 
C 1.29895 -2.236584 0.663008 -2.5 0 -2.5 
C -0.663008 -2.5 -1.29895 -2.236584 -1.767767 -1.767767 
C -2.236584 -1.29895 -2.5 -0.663008 -2.5 0 
C -2.5 0.663008 -2.236584 1.29895 -1.767767 1.767767 
C -1.29895 2.236584 -0.663008 2.5 0 2.5 
z
" id="m298416aade" style="stroke:#696969;"/>
    </defs>
    <g clip-path="url(#p003a45e1be)">
     <use style="fill:#696969;stroke:#696969;" x="115.363636" xlink:href="#m298416aade" y="615.6"/>
    </g>
   </g>
   <g id="line2d_25">
    <g clip-path="url(#p003a45e1be)">
     <use style="fill:#696969;stroke:#696969;" x="197.216469" xlink:href="#m298416aade" y="565.196754"/>
    </g>
   </g>
   <g id="line2d_26">
    <g clip-path="url(#p003a45e1be)">
     <use style="fill:#696969;stroke:#696969;" x="240.637957" xlink:href="#m298416aade" y="514.793508"/>
    </g>
   </g>
   <g id="line2d_27">
    <g clip-path="url(#p003a45e1be)">
     <use style="fill:#696969;stroke:#696969;" x="284.451118" xlink:href="#m298416aade" y="464.390262"/>
    </g>
   </g>
   <g id="line2d_28">
    <g clip-path="url(#p003a45e1be)">
     <use style="fill:#696969;stroke:#696969;" x="318.769092" xlink:href="#m298416aade" y="413.987016"/>
    </g>
   </g>
   <g id="line2d_29">
    <g clip-path="url(#p003a45e1be)">
     <use style="fill:#696969;stroke:#696969;" x="361.17331" xlink:href="#m298416aade" y="363.583771"/>
    </g>
   </g>
   <g id="line2d_30">
    <g clip-path="url(#p003a45e1be)">
     <use style="fill:#696969;stroke:#696969;" x="400.146121" xlink:href="#m298416aade" y="313.185934"/>
    </g>
   </g>
   <g id="line2d_31">
    <g clip-path="url(#p003a45e1be)">
     <use style="fill:#696969;stroke:#696969;" x="449.701912" xlink:href="#m298416aade" y="262.788098"/>
    </g>
   </g>
   <g id="line2d_32">
    <g clip-path="url(#p003a45e1be)">
     <use style="fill:#696969;stroke:#696969;" x="505.456607" xlink:href="#m298416aade" y="212.390262"/>
    </g>
   </g>
   <g id="line2d_33">
    <g clip-path="url(#p003a45e1be)">
     <use style="fill:#696969;stroke:#696969;" x="558.355214" xlink:href="#m298416aade" y="161.992426"/>
    </g>
   </g>
   <g id="line2d_34">
    <g clip-path="url(#p003a45e1be)">
     <use style="fill:#696969;stroke:#696969;" x="622.636364" xlink:href="#m298416aade" y="111.6"/>
    </g>
   </g>
   <g id="patch_3">
    <path d="M 90 640.8 
L 90 86.4 
" style="fill:none;stroke:#cccccc;stroke-linecap:square;stroke-linejoin:miter;"/>
   </g>
   <g id="patch_4">
    <path d="M 648 640.8 
L 648 86.4 
" style="fill:none;stroke:#cccccc;stroke-linecap:square;stroke-linejoin:miter;"/>
   </g>
   <g id="patch_5">
    <path d="M 90 640.8 
L 648 640.8 
" style="fill:none;stroke:#cccccc;stroke-linecap:square;stroke-linejoin:miter;"/>
   </g>
   <g id="patch_6">
    <path d="M 90 86.4 
L 648 86.4 
" style="fill:none;stroke:#cccccc;stroke-linecap:square;stroke-linejoin:miter;"/>
   </g>
   <g id="text_12">
    <!-- 1 (2014-06-06) -->
    <g style="fill:#262626;" transform="translate(120.363636 623.198437)scale(0.1 -0.1)">
     <defs>
      <path id="DejaVuSans-32"/>
      <path d="M 31 75.875 
Q 24.46875 64.65625 21.28125 53.65625 
Q 18.109375 42.671875 18.109375 31.390625 
Q 18.109375 20.125 21.3125 9.0625 
Q 24.515625 -2 31 -13.1875 
L 23.1875 -13.1875 
Q 15.875 -1.703125 12.234375 9.375 
Q 8.59375 20.453125 8.59375 31.390625 
Q 8.59375 42.28125 12.203125 53.3125 
Q 15.828125 64.359375 23.1875 75.875 
z
" id="DejaVuSans-40"/>
      <path d="M 4.890625 31.390625 
L 31.203125 31.390625 
L 31.203125 23.390625 
L 4.890625 23.390625 
z
" id="DejaVuSans-45"/>
      <path d="M 8.015625 75.875 
L 15.828125 75.875 
Q 23.140625 64.359375 26.78125 53.3125 
Q 30.421875 42.28125 30.421875 31.390625 
Q 30.421875 20.453125 26.78125 9.375 
Q 23.140625 -1.703125 15.828125 -13.1875 
L 8.015625 -13.1875 
Q 14.5 -2 17.703125 9.0625 
Q 20.90625 20.125 20.90625 31.390625 
Q 20.90625 42.671875 17.703125 53.65625 
Q 14.5 64.65625 8.015625 75.875 
z
" id="DejaVuSans-41"/>
     </defs>
     <use xlink:href="#DejaVuSans-49"/>
     <use x="63.623047" xlink:href="#DejaVuSans-32"/>
     <use x="95.410156" xlink:href="#DejaVuSans-40"/>
     <use x="134.423828" xlink:href="#DejaVuSans-50"/>
     <use x="198.046875" xlink:href="#DejaVuSans-48"/>
     <use x="261.669922" xlink:href="#DejaVuSans-49"/>
     <use x="325.292969" xlink:href="#DejaVuSans-52"/>
     <use x="388.916016" xlink:href="#DejaVuSans-45"/>
     <use x="425" xlink:href="#DejaVuSans-48"/>
     <use x="488.623047" xlink:href="#DejaVuSans-54"/>
     <use x="552.246094" xlink:href="#DejaVuSans-45"/>
     <use x="588.330078" xlink:href="#DejaVuSans-48"/>
     <use x="651.953125" xlink:href="#DejaVuSans-54"/>
     <use x="715.576172" xlink:href="#DejaVuSans-41"/>
    </g>
   </g>
   <g id="text_13">
    <!-- 9318 (2015-06-05) -->
    <g style="fill:#262626;" transform="translate(202.216469 572.795192)scale(0.1 -0.1)">
     <defs>
      <path d="M 40.578125 39.3125 
Q 47.65625 37.796875 51.625 33 
Q 55.609375 28.21875 55.609375 21.1875 
Q 55.609375 10.40625 48.1875 4.484375 
Q 40.765625 -1.421875 27.09375 -1.421875 
Q 22.515625 -1.421875 17.65625 -0.515625 
Q 12.796875 0.390625 7.625 2.203125 
L 7.625 11.71875 
Q 11.71875 9.328125 16.59375 8.109375 
Q 21.484375 6.890625 26.8125 6.890625 
Q 36.078125 6.890625 40.9375 10.546875 
Q 45.796875 14.203125 45.796875 21.1875 
Q 45.796875 27.640625 41.28125 31.265625 
Q 36.765625 34.90625 28.71875 34.90625 
L 20.21875 34.90625 
L 20.21875 43.015625 
L 29.109375 43.015625 
Q 36.375 43.015625 40.234375 45.921875 
Q 44.09375 48.828125 44.09375 54.296875 
Q 44.09375 59.90625 40.109375 62.90625 
Q 36.140625 65.921875 28.71875 65.921875 
Q 24.65625 65.921875 20.015625 65.03125 
Q 15.375 64.15625 9.8125 62.3125 
L 9.8125 71.09375 
Q 15.4375 72.65625 20.34375 73.4375 
Q 25.25 74.21875 29.59375 74.21875 
Q 40.828125 74.21875 47.359375 69.109375 
Q 53.90625 64.015625 53.90625 55.328125 
Q 53.90625 49.265625 50.4375 45.09375 
Q 46.96875 40.921875 40.578125 39.3125 
z
" id="DejaVuSans-51"/>
     </defs>
     <use xlink:href="#DejaVuSans-57"/>
     <use x="63.623047" xlink:href="#DejaVuSans-51"/>
     <use x="127.246094" xlink:href="#DejaVuSans-49"/>
     <use x="190.869141" xlink:href="#DejaVuSans-56"/>
     <use x="254.492188" xlink:href="#DejaVuSans-32"/>
     <use x="286.279297" xlink:href="#DejaVuSans-40"/>
     <use x="325.292969" xlink:href="#DejaVuSans-50"/>
     <use x="388.916016" xlink:href="#DejaVuSans-48"/>
     <use x="452.539062" xlink:href="#DejaVuSans-49"/>
     <use x="516.162109" xlink:href="#DejaVuSans-53"/>
     <use x="579.785156" xlink:href="#DejaVuSans-45"/>
     <use x="615.869141" xlink:href="#DejaVuSans-48"/>
     <use x="679.492188" xlink:href="#DejaVuSans-54"/>
     <use x="743.115234" xlink:href="#DejaVuSans-45"/>
     <use x="779.199219" xlink:href="#DejaVuSans-48"/>
     <use x="842.822266" xlink:href="#DejaVuSans-53"/>
     <use x="906.445312" xlink:href="#DejaVuSans-41"/>
    </g>
   </g>
   <g id="text_14">
    <!-- 18635 (2015-12-15) -->
    <g style="fill:#262626;" transform="translate(245.637957 522.391946)scale(0.1 -0.1)">
     <use xlink:href="#DejaVuSans-49"/>
     <use x="63.623047" xlink:href="#DejaVuSans-56"/>
     <use x="127.246094" xlink:href="#DejaVuSans-54"/>
     <use x="190.869141" xlink:href="#DejaVuSans-51"/>
     <use x="254.492188" xlink:href="#DejaVuSans-53"/>
     <use x="318.115234" xlink:href="#DejaVuSans-32"/>
     <use x="349.902344" xlink:href="#DejaVuSans-40"/>
     <use x="388.916016" xlink:href="#DejaVuSans-50"/>
     <use x="452.539062" xlink:href="#DejaVuSans-48"/>
     <use x="516.162109" xlink:href="#DejaVuSans-49"/>
     <use x="579.785156" xlink:href="#DejaVuSans-53"/>
     <use x="643.408203" xlink:href="#DejaVuSans-45"/>
     <use x="679.492188" xlink:href="#DejaVuSans-49"/>
     <use x="743.115234" xlink:href="#DejaVuSans-50"/>
     <use x="806.738281" xlink:href="#DejaVuSans-45"/>
     <use x="842.822266" xlink:href="#DejaVuSans-49"/>
     <use x="906.445312" xlink:href="#DejaVuSans-53"/>
     <use x="970.068359" xlink:href="#DejaVuSans-41"/>
    </g>
   </g>
   <g id="text_15">
    <!-- 27952 (2016-06-27) -->
    <g style="fill:#262626;" transform="translate(289.451118 471.9887)scale(0.1 -0.1)">
     <use xlink:href="#DejaVuSans-50"/>
     <use x="63.623047" xlink:href="#DejaVuSans-55"/>
     <use x="127.246094" xlink:href="#DejaVuSans-57"/>
     <use x="190.869141" xlink:href="#DejaVuSans-53"/>
     <use x="254.492188" xlink:href="#DejaVuSans-50"/>
     <use x="318.115234" xlink:href="#DejaVuSans-32"/>
     <use x="349.902344" xlink:href="#DejaVuSans-40"/>
     <use x="388.916016" xlink:href="#DejaVuSans-50"/>
     <use x="452.539062" xlink:href="#DejaVuSans-48"/>
     <use x="516.162109" xlink:href="#DejaVuSans-49"/>
     <use x="579.785156" xlink:href="#DejaVuSans-54"/>
     <use x="643.408203" xlink:href="#DejaVuSans-45"/>
     <use x="679.492188" xlink:href="#DejaVuSans-48"/>
     <use x="743.115234" xlink:href="#DejaVuSans-54"/>
     <use x="806.738281" xlink:href="#DejaVuSans-45"/>
     <use x="842.822266" xlink:href="#DejaVuSans-50"/>
     <use x="906.445312" xlink:href="#DejaVuSans-55"/>
     <use x="970.068359" xlink:href="#DejaVuSans-41"/>
    </g>
   </g>
   <g id="text_16">
    <!-- 37269 (2016-11-27) -->
    <g style="fill:#262626;" transform="translate(323.769092 421.585454)scale(0.1 -0.1)">
     <use xlink:href="#DejaVuSans-51"/>
     <use x="63.623047" xlink:href="#DejaVuSans-55"/>
     <use x="127.246094" xlink:href="#DejaVuSans-50"/>
     <use x="190.869141" xlink:href="#DejaVuSans-54"/>
     <use x="254.492188" xlink:href="#DejaVuSans-57"/>
     <use x="318.115234" xlink:href="#DejaVuSans-32"/>
     <use x="349.902344" xlink:href="#DejaVuSans-40"/>
     <use x="388.916016" xlink:href="#DejaVuSans-50"/>
     <use x="452.539062" xlink:href="#DejaVuSans-48"/>
     <use x="516.162109" xlink:href="#DejaVuSans-49"/>
     <use x="579.785156" xlink:href="#DejaVuSans-54"/>
     <use x="643.408203" xlink:href="#DejaVuSans-45"/>
     <use x="679.492188" xlink:href="#DejaVuSans-49"/>
     <use x="743.115234" xlink:href="#DejaVuSans-49"/>
     <use x="806.738281" xlink:href="#DejaVuSans-45"/>
     <use x="842.822266" xlink:href="#DejaVuSans-50"/>
     <use x="906.445312" xlink:href="#DejaVuSans-55"/>
     <use x="970.068359" xlink:href="#DejaVuSans-41"/>
    </g>
   </g>
   <g id="text_17">
    <!-- 46586 (2017-06-03) -->
    <g style="fill:#262626;" transform="translate(366.17331 371.182208)scale(0.1 -0.1)">
     <use xlink:href="#DejaVuSans-52"/>
     <use x="63.623047" xlink:href="#DejaVuSans-54"/>
     <use x="127.246094" xlink:href="#DejaVuSans-53"/>
     <use x="190.869141" xlink:href="#DejaVuSans-56"/>
     <use x="254.492188" xlink:href="#DejaVuSans-54"/>
     <use x="318.115234" xlink:href="#DejaVuSans-32"/>
     <use x="349.902344" xlink:href="#DejaVuSans-40"/>
     <use x="388.916016" xlink:href="#DejaVuSans-50"/>
     <use x="452.539062" xlink:href="#DejaVuSans-48"/>
     <use x="516.162109" xlink:href="#DejaVuSans-49"/>
     <use x="579.785156" xlink:href="#DejaVuSans-55"/>
     <use x="643.408203" xlink:href="#DejaVuSans-45"/>
     <use x="679.492188" xlink:href="#DejaVuSans-48"/>
     <use x="743.115234" xlink:href="#DejaVuSans-54"/>
     <use x="806.738281" xlink:href="#DejaVuSans-45"/>
     <use x="842.822266" xlink:href="#DejaVuSans-48"/>
     <use x="906.445312" xlink:href="#DejaVuSans-51"/>
     <use x="970.068359" xlink:href="#DejaVuSans-41"/>
    </g>
   </g>
   <g id="text_18">
    <!-- 55902 (2017-11-24) -->
    <g style="fill:#262626;" transform="translate(405.146121 320.784372)scale(0.1 -0.1)">
     <use xlink:href="#DejaVuSans-53"/>
     <use x="63.623047" xlink:href="#DejaVuSans-53"/>
     <use x="127.246094" xlink:href="#DejaVuSans-57"/>
     <use x="190.869141" xlink:href="#DejaVuSans-48"/>
     <use x="254.492188" xlink:href="#DejaVuSans-50"/>
     <use x="318.115234" xlink:href="#DejaVuSans-32"/>
     <use x="349.902344" xlink:href="#DejaVuSans-40"/>
     <use x="388.916016" xlink:href="#DejaVuSans-50"/>
     <use x="452.539062" xlink:href="#DejaVuSans-48"/>
     <use x="516.162109" xlink:href="#DejaVuSans-49"/>
     <use x="579.785156" xlink:href="#DejaVuSans-55"/>
     <use x="643.408203" xlink:href="#DejaVuSans-45"/>
     <use x="679.492188" xlink:href="#DejaVuSans-49"/>
     <use x="743.115234" xlink:href="#DejaVuSans-49"/>
     <use x="806.738281" xlink:href="#DejaVuSans-45"/>
     <use x="842.822266" xlink:href="#DejaVuSans-50"/>
     <use x="906.445312" xlink:href="#DejaVuSans-52"/>
     <use x="970.068359" xlink:href="#DejaVuSans-41"/>
    </g>
   </g>
   <g id="text_19">
    <!-- 65218 (2018-07-02) -->
    <g style="fill:#262626;" transform="translate(454.701912 270.386536)scale(0.1 -0.1)">
     <use xlink:href="#DejaVuSans-54"/>
     <use x="63.623047" xlink:href="#DejaVuSans-53"/>
     <use x="127.246094" xlink:href="#DejaVuSans-50"/>
     <use x="190.869141" xlink:href="#DejaVuSans-49"/>
     <use x="254.492188" xlink:href="#DejaVuSans-56"/>
     <use x="318.115234" xlink:href="#DejaVuSans-32"/>
     <use x="349.902344" xlink:href="#DejaVuSans-40"/>
     <use x="388.916016" xlink:href="#DejaVuSans-50"/>
     <use x="452.539062" xlink:href="#DejaVuSans-48"/>
     <use x="516.162109" xlink:href="#DejaVuSans-49"/>
     <use x="579.785156" xlink:href="#DejaVuSans-56"/>
     <use x="643.408203" xlink:href="#DejaVuSans-45"/>
     <use x="679.492188" xlink:href="#DejaVuSans-48"/>
     <use x="743.115234" xlink:href="#DejaVuSans-55"/>
     <use x="806.738281" xlink:href="#DejaVuSans-45"/>
     <use x="842.822266" xlink:href="#DejaVuSans-48"/>
     <use x="906.445312" xlink:href="#DejaVuSans-50"/>
     <use x="970.068359" xlink:href="#DejaVuSans-41"/>
    </g>
   </g>
   <g id="text_20">
    <!-- 74534 (2019-03-07) -->
    <g style="fill:#262626;" transform="translate(510.456607 219.9887)scale(0.1 -0.1)">
     <use xlink:href="#DejaVuSans-55"/>
     <use x="63.623047" xlink:href="#DejaVuSans-52"/>
     <use x="127.246094" xlink:href="#DejaVuSans-53"/>
     <use x="190.869141" xlink:href="#DejaVuSans-51"/>
     <use x="254.492188" xlink:href="#DejaVuSans-52"/>
     <use x="318.115234" xlink:href="#DejaVuSans-32"/>
     <use x="349.902344" xlink:href="#DejaVuSans-40"/>
     <use x="388.916016" xlink:href="#DejaVuSans-50"/>
     <use x="452.539062" xlink:href="#DejaVuSans-48"/>
     <use x="516.162109" xlink:href="#DejaVuSans-49"/>
     <use x="579.785156" xlink:href="#DejaVuSans-57"/>
     <use x="643.408203" xlink:href="#DejaVuSans-45"/>
     <use x="679.492188" xlink:href="#DejaVuSans-48"/>
     <use x="743.115234" xlink:href="#DejaVuSans-51"/>
     <use x="806.738281" xlink:href="#DejaVuSans-45"/>
     <use x="842.822266" xlink:href="#DejaVuSans-48"/>
     <use x="906.445312" xlink:href="#DejaVuSans-55"/>
     <use x="970.068359" xlink:href="#DejaVuSans-41"/>
    </g>
   </g>
   <g id="text_21">
    <!-- 83850 (2019-10-28) -->
    <g style="fill:#262626;" transform="translate(563.355214 169.590864)scale(0.1 -0.1)">
     <use xlink:href="#DejaVuSans-56"/>
     <use x="63.623047" xlink:href="#DejaVuSans-51"/>
     <use x="127.246094" xlink:href="#DejaVuSans-56"/>
     <use x="190.869141" xlink:href="#DejaVuSans-53"/>
     <use x="254.492188" xlink:href="#DejaVuSans-48"/>
     <use x="318.115234" xlink:href="#DejaVuSans-32"/>
     <use x="349.902344" xlink:href="#DejaVuSans-40"/>
     <use x="388.916016" xlink:href="#DejaVuSans-50"/>
     <use x="452.539062" xlink:href="#DejaVuSans-48"/>
     <use x="516.162109" xlink:href="#DejaVuSans-49"/>
     <use x="579.785156" xlink:href="#DejaVuSans-57"/>
     <use x="643.408203" xlink:href="#DejaVuSans-45"/>
     <use x="679.492188" xlink:href="#DejaVuSans-49"/>
     <use x="743.115234" xlink:href="#DejaVuSans-48"/>
     <use x="806.738281" xlink:href="#DejaVuSans-45"/>
     <use x="842.822266" xlink:href="#DejaVuSans-50"/>
     <use x="906.445312" xlink:href="#DejaVuSans-56"/>
     <use x="970.068359" xlink:href="#DejaVuSans-41"/>
    </g>
   </g>
   <g id="text_22">
    <!-- 93165 (2020-08-09) -->
    <g style="fill:#262626;" transform="translate(627.636364 119.198437)scale(0.1 -0.1)">
     <use xlink:href="#DejaVuSans-57"/>
     <use x="63.623047" xlink:href="#DejaVuSans-51"/>
     <use x="127.246094" xlink:href="#DejaVuSans-49"/>
     <use x="190.869141" xlink:href="#DejaVuSans-54"/>
     <use x="254.492188" xlink:href="#DejaVuSans-53"/>
     <use x="318.115234" xlink:href="#DejaVuSans-32"/>
     <use x="349.902344" xlink:href="#DejaVuSans-40"/>
     <use x="388.916016" xlink:href="#DejaVuSans-50"/>
     <use x="452.539062" xlink:href="#DejaVuSans-48"/>
     <use x="516.162109" xlink:href="#DejaVuSans-50"/>
     <use x="579.785156" xlink:href="#DejaVuSans-48"/>
     <use x="643.408203" xlink:href="#DejaVuSans-45"/>
     <use x="679.492188" xlink:href="#DejaVuSans-48"/>
     <use x="743.115234" xlink:href="#DejaVuSans-56"/>
     <use x="806.738281" xlink:href="#DejaVuSans-45"/>
     <use x="842.822266" xlink:href="#DejaVuSans-48"/>
     <use x="906.445312" xlink:href="#DejaVuSans-57"/>
     <use x="970.068359" xlink:href="#DejaVuSans-41"/>
    </g>
   </g>
   <g id="text_23">
    <!-- Created issues and PRs over time -->
    <g style="fill:#262626;" transform="translate(268.047188 80.4)scale(0.12 -0.12)">
     <defs>
      <path d="M 64.40625 67.28125 
L 64.40625 56.890625 
Q 59.421875 61.53125 53.78125 63.8125 
Q 48.140625 66.109375 41.796875 66.109375 
Q 29.296875 66.109375 22.65625 58.46875 
Q 16.015625 50.828125 16.015625 36.375 
Q 16.015625 21.96875 22.65625 14.328125 
Q 29.296875 6.6875 41.796875 6.6875 
Q 48.140625 6.6875 53.78125 8.984375 
Q 59.421875 11.28125 64.40625 15.921875 
L 64.40625 5.609375 
Q 59.234375 2.09375 53.4375 0.328125 
Q 47.65625 -1.421875 41.21875 -1.421875 
Q 24.65625 -1.421875 15.125 8.703125 
Q 5.609375 18.84375 5.609375 36.375 
Q 5.609375 53.953125 15.125 64.078125 
Q 24.65625 74.21875 41.21875 74.21875 
Q 47.75 74.21875 53.53125 72.484375 
Q 59.328125 70.75 64.40625 67.28125 
z
" id="DejaVuSans-67"/>
      <path d="M 41.109375 46.296875 
Q 39.59375 47.171875 37.8125 47.578125 
Q 36.03125 48 33.890625 48 
Q 26.265625 48 22.1875 43.046875 
Q 18.109375 38.09375 18.109375 28.8125 
L 18.109375 0 
L 9.078125 0 
L 9.078125 54.6875 
L 18.109375 54.6875 
L 18.109375 46.1875 
Q 20.953125 51.171875 25.484375 53.578125 
Q 30.03125 56 36.53125 56 
Q 37.453125 56 38.578125 55.875 
Q 39.703125 55.765625 41.0625 55.515625 
z
" id="DejaVuSans-114"/>
      <path d="M 56.203125 29.59375 
L 56.203125 25.203125 
L 14.890625 25.203125 
Q 15.484375 15.921875 20.484375 11.0625 
Q 25.484375 6.203125 34.421875 6.203125 
Q 39.59375 6.203125 44.453125 7.46875 
Q 49.3125 8.734375 54.109375 11.28125 
L 54.109375 2.78125 
Q 49.265625 0.734375 44.1875 -0.34375 
Q 39.109375 -1.421875 33.890625 -1.421875 
Q 20.796875 -1.421875 13.15625 6.1875 
Q 5.515625 13.8125 5.515625 26.8125 
Q 5.515625 40.234375 12.765625 48.109375 
Q 20.015625 56 32.328125 56 
Q 43.359375 56 49.78125 48.890625 
Q 56.203125 41.796875 56.203125 29.59375 
z
M 47.21875 32.234375 
Q 47.125 39.59375 43.09375 43.984375 
Q 39.0625 48.390625 32.421875 48.390625 
Q 24.90625 48.390625 20.390625 44.140625 
Q 15.875 39.890625 15.1875 32.171875 
z
" id="DejaVuSans-101"/>
      <path d="M 34.28125 27.484375 
Q 23.390625 27.484375 19.1875 25 
Q 14.984375 22.515625 14.984375 16.5 
Q 14.984375 11.71875 18.140625 8.90625 
Q 21.296875 6.109375 26.703125 6.109375 
Q 34.1875 6.109375 38.703125 11.40625 
Q 43.21875 16.703125 43.21875 25.484375 
L 43.21875 27.484375 
z
M 52.203125 31.203125 
L 52.203125 0 
L 43.21875 0 
L 43.21875 8.296875 
Q 40.140625 3.328125 35.546875 0.953125 
Q 30.953125 -1.421875 24.3125 -1.421875 
Q 15.921875 -1.421875 10.953125 3.296875 
Q 6 8.015625 6 15.921875 
Q 6 25.140625 12.171875 29.828125 
Q 18.359375 34.515625 30.609375 34.515625 
L 43.21875 34.515625 
L 43.21875 35.40625 
Q 43.21875 41.609375 39.140625 45 
Q 35.0625 48.390625 27.6875 48.390625 
Q 23 48.390625 18.546875 47.265625 
Q 14.109375 46.140625 10.015625 43.890625 
L 10.015625 52.203125 
Q 14.9375 54.109375 19.578125 55.046875 
Q 24.21875 56 28.609375 56 
Q 40.484375 56 46.34375 49.84375 
Q 52.203125 43.703125 52.203125 31.203125 
z
" id="DejaVuSans-97"/>
      <path d="M 18.3125 70.21875 
L 18.3125 54.6875 
L 36.8125 54.6875 
L 36.8125 47.703125 
L 18.3125 47.703125 
L 18.3125 18.015625 
Q 18.3125 11.328125 20.140625 9.421875 
Q 21.96875 7.515625 27.59375 7.515625 
L 36.8125 7.515625 
L 36.8125 0 
L 27.59375 0 
Q 17.1875 0 13.234375 3.875 
Q 9.28125 7.765625 9.28125 18.015625 
L 9.28125 47.703125 
L 2.6875 47.703125 
L 2.6875 54.6875 
L 9.28125 54.6875 
L 9.28125 70.21875 
z
" id="DejaVuSans-116"/>
      <path d="M 45.40625 46.390625 
L 45.40625 75.984375 
L 54.390625 75.984375 
L 54.390625 0 
L 45.40625 0 
L 45.40625 8.203125 
Q 42.578125 3.328125 38.25 0.953125 
Q 33.9375 -1.421875 27.875 -1.421875 
Q 17.96875 -1.421875 11.734375 6.484375 
Q 5.515625 14.40625 5.515625 27.296875 
Q 5.515625 40.1875 11.734375 48.09375 
Q 17.96875 56 27.875 56 
Q 33.9375 56 38.25 53.625 
Q 42.578125 51.265625 45.40625 46.390625 
z
M 14.796875 27.296875 
Q 14.796875 17.390625 18.875 11.75 
Q 22.953125 6.109375 30.078125 6.109375 
Q 37.203125 6.109375 41.296875 11.75 
Q 45.40625 17.390625 45.40625 27.296875 
Q 45.40625 37.203125 41.296875 42.84375 
Q 37.203125 48.484375 30.078125 48.484375 
Q 22.953125 48.484375 18.875 42.84375 
Q 14.796875 37.203125 14.796875 27.296875 
z
" id="DejaVuSans-100"/>
      <path d="M 9.421875 54.6875 
L 18.40625 54.6875 
L 18.40625 0 
L 9.421875 0 
z
M 9.421875 75.984375 
L 18.40625 75.984375 
L 18.40625 64.59375 
L 9.421875 64.59375 
z
" id="DejaVuSans-105"/>
      <path d="M 44.28125 53.078125 
L 44.28125 44.578125 
Q 40.484375 46.53125 36.375 47.5 
Q 32.28125 48.484375 27.875 48.484375 
Q 21.1875 48.484375 17.84375 46.4375 
Q 14.5 44.390625 14.5 40.28125 
Q 14.5 37.15625 16.890625 35.375 
Q 19.28125 33.59375 26.515625 31.984375 
L 29.59375 31.296875 
Q 39.15625 29.25 43.1875 25.515625 
Q 47.21875 21.78125 47.21875 15.09375 
Q 47.21875 7.46875 41.1875 3.015625 
Q 35.15625 -1.421875 24.609375 -1.421875 
Q 20.21875 -1.421875 15.453125 -0.5625 
Q 10.6875 0.296875 5.421875 2 
L 5.421875 11.28125 
Q 10.40625 8.6875 15.234375 7.390625 
Q 20.0625 6.109375 24.8125 6.109375 
Q 31.15625 6.109375 34.5625 8.28125 
Q 37.984375 10.453125 37.984375 14.40625 
Q 37.984375 18.0625 35.515625 20.015625 
Q 33.0625 21.96875 24.703125 23.78125 
L 21.578125 24.515625 
Q 13.234375 26.265625 9.515625 29.90625 
Q 5.8125 33.546875 5.8125 39.890625 
Q 5.8125 47.609375 11.28125 51.796875 
Q 16.75 56 26.8125 56 
Q 31.78125 56 36.171875 55.265625 
Q 40.578125 54.546875 44.28125 53.078125 
z
" id="DejaVuSans-115"/>
      <path d="M 8.5 21.578125 
L 8.5 54.6875 
L 17.484375 54.6875 
L 17.484375 21.921875 
Q 17.484375 14.15625 20.5 10.265625 
Q 23.53125 6.390625 29.59375 6.390625 
Q 36.859375 6.390625 41.078125 11.03125 
Q 45.3125 15.671875 45.3125 23.6875 
L 45.3125 54.6875 
L 54.296875 54.6875 
L 54.296875 0 
L 45.3125 0 
L 45.3125 8.40625 
Q 42.046875 3.421875 37.71875 1 
Q 33.40625 -1.421875 27.6875 -1.421875 
Q 18.265625 -1.421875 13.375 4.4375 
Q 8.5 10.296875 8.5 21.578125 
z
M 31.109375 56 
z
" id="DejaVuSans-117"/>
      <path d="M 54.890625 33.015625 
L 54.890625 0 
L 45.90625 0 
L 45.90625 32.71875 
Q 45.90625 40.484375 42.875 44.328125 
Q 39.84375 48.1875 33.796875 48.1875 
Q 26.515625 48.1875 22.3125 43.546875 
Q 18.109375 38.921875 18.109375 30.90625 
L 18.109375 0 
L 9.078125 0 
L 9.078125 54.6875 
L 18.109375 54.6875 
L 18.109375 46.1875 
Q 21.34375 51.125 25.703125 53.5625 
Q 30.078125 56 35.796875 56 
Q 45.21875 56 50.046875 50.171875 
Q 54.890625 44.34375 54.890625 33.015625 
z
" id="DejaVuSans-110"/>
      <path d="M 19.671875 64.796875 
L 19.671875 37.40625 
L 32.078125 37.40625 
Q 38.96875 37.40625 42.71875 40.96875 
Q 46.484375 44.53125 46.484375 51.125 
Q 46.484375 57.671875 42.71875 61.234375 
Q 38.96875 64.796875 32.078125 64.796875 
z
M 9.8125 72.90625 
L 32.078125 72.90625 
Q 44.34375 72.90625 50.609375 67.359375 
Q 56.890625 61.8125 56.890625 51.125 
Q 56.890625 40.328125 50.609375 34.8125 
Q 44.34375 29.296875 32.078125 29.296875 
L 19.671875 29.296875 
L 19.671875 0 
L 9.8125 0 
z
" id="DejaVuSans-80"/>
      <path d="M 44.390625 34.1875 
Q 47.5625 33.109375 50.5625 29.59375 
Q 53.5625 26.078125 56.59375 19.921875 
L 66.609375 0 
L 56 0 
L 46.6875 18.703125 
Q 43.0625 26.03125 39.671875 28.421875 
Q 36.28125 30.8125 30.421875 30.8125 
L 19.671875 30.8125 
L 19.671875 0 
L 9.8125 0 
L 9.8125 72.90625 
L 32.078125 72.90625 
Q 44.578125 72.90625 50.734375 67.671875 
Q 56.890625 62.453125 56.890625 51.90625 
Q 56.890625 45.015625 53.6875 40.46875 
Q 50.484375 35.9375 44.390625 34.1875 
z
M 19.671875 64.796875 
L 19.671875 38.921875 
L 32.078125 38.921875 
Q 39.203125 38.921875 42.84375 42.21875 
Q 46.484375 45.515625 46.484375 51.90625 
Q 46.484375 58.296875 42.84375 61.546875 
Q 39.203125 64.796875 32.078125 64.796875 
z
" id="DejaVuSans-82"/>
      <path d="M 30.609375 48.390625 
Q 23.390625 48.390625 19.1875 42.75 
Q 14.984375 37.109375 14.984375 27.296875 
Q 14.984375 17.484375 19.15625 11.84375 
Q 23.34375 6.203125 30.609375 6.203125 
Q 37.796875 6.203125 41.984375 11.859375 
Q 46.1875 17.53125 46.1875 27.296875 
Q 46.1875 37.015625 41.984375 42.703125 
Q 37.796875 48.390625 30.609375 48.390625 
z
M 30.609375 56 
Q 42.328125 56 49.015625 48.375 
Q 55.71875 40.765625 55.71875 27.296875 
Q 55.71875 13.875 49.015625 6.21875 
Q 42.328125 -1.421875 30.609375 -1.421875 
Q 18.84375 -1.421875 12.171875 6.21875 
Q 5.515625 13.875 5.515625 27.296875 
Q 5.515625 40.765625 12.171875 48.375 
Q 18.84375 56 30.609375 56 
z
" id="DejaVuSans-111"/>
      <path d="M 2.984375 54.6875 
L 12.5 54.6875 
L 29.59375 8.796875 
L 46.6875 54.6875 
L 56.203125 54.6875 
L 35.6875 0 
L 23.484375 0 
z
" id="DejaVuSans-118"/>
      <path d="M 52 44.1875 
Q 55.375 50.25 60.0625 53.125 
Q 64.75 56 71.09375 56 
Q 79.640625 56 84.28125 50.015625 
Q 88.921875 44.046875 88.921875 33.015625 
L 88.921875 0 
L 79.890625 0 
L 79.890625 32.71875 
Q 79.890625 40.578125 77.09375 44.375 
Q 74.3125 48.1875 68.609375 48.1875 
Q 61.625 48.1875 57.5625 43.546875 
Q 53.515625 38.921875 53.515625 30.90625 
L 53.515625 0 
L 44.484375 0 
L 44.484375 32.71875 
Q 44.484375 40.625 41.703125 44.40625 
Q 38.921875 48.1875 33.109375 48.1875 
Q 26.21875 48.1875 22.15625 43.53125 
Q 18.109375 38.875 18.109375 30.90625 
L 18.109375 0 
L 9.078125 0 
L 9.078125 54.6875 
L 18.109375 54.6875 
L 18.109375 46.1875 
Q 21.1875 51.21875 25.484375 53.609375 
Q 29.78125 56 35.6875 56 
Q 41.65625 56 45.828125 52.96875 
Q 50 49.953125 52 44.1875 
z
" id="DejaVuSans-109"/>
     </defs>
     <use xlink:href="#DejaVuSans-67"/>
     <use x="69.824219" xlink:href="#DejaVuSans-114"/>
     <use x="108.6875" xlink:href="#DejaVuSans-101"/>
     <use x="170.210938" xlink:href="#DejaVuSans-97"/>
     <use x="231.490234" xlink:href="#DejaVuSans-116"/>
     <use x="270.699219" xlink:href="#DejaVuSans-101"/>
     <use x="332.222656" xlink:href="#DejaVuSans-100"/>
     <use x="395.699219" xlink:href="#DejaVuSans-32"/>
     <use x="427.486328" xlink:href="#DejaVuSans-105"/>
     <use x="455.269531" xlink:href="#DejaVuSans-115"/>
     <use x="507.369141" xlink:href="#DejaVuSans-115"/>
     <use x="559.46875" xlink:href="#DejaVuSans-117"/>
     <use x="622.847656" xlink:href="#DejaVuSans-101"/>
     <use x="684.371094" xlink:href="#DejaVuSans-115"/>
     <use x="736.470703" xlink:href="#DejaVuSans-32"/>
     <use x="768.257812" xlink:href="#DejaVuSans-97"/>
     <use x="829.537109" xlink:href="#DejaVuSans-110"/>
     <use x="892.916016" xlink:href="#DejaVuSans-100"/>
     <use x="956.392578" xlink:href="#DejaVuSans-32"/>
     <use x="988.179688" xlink:href="#DejaVuSans-80"/>
     <use x="1048.482422" xlink:href="#DejaVuSans-82"/>
     <use x="1117.964844" xlink:href="#DejaVuSans-115"/>
     <use x="1170.064453" xlink:href="#DejaVuSans-32"/>
     <use x="1201.851562" xlink:href="#DejaVuSans-111"/>
     <use x="1263.033203" xlink:href="#DejaVuSans-118"/>
     <use x="1322.212891" xlink:href="#DejaVuSans-101"/>
     <use x="1383.736328" xlink:href="#DejaVuSans-114"/>
     <use x="1424.849609" xlink:href="#DejaVuSans-32"/>
     <use x="1456.636719" xlink:href="#DejaVuSans-116"/>
     <use x="1495.845703" xlink:href="#DejaVuSans-105"/>
     <use x="1523.628906" xlink:href="#DejaVuSans-109"/>
     <use x="1621.041016" xlink:href="#DejaVuSans-101"/>
    </g>
   </g>
  </g>
 </g>
 <defs>
  <clipPath id="p003a45e1be">
   <rect height="554.4" width="558" x="90" y="86.4"/>
  </clipPath>
 </defs>
</svg>
