<?xml version="1.0" encoding="utf-8" standalone="no"?>
<!DOCTYPE svg PUBLIC "-//W3C//DTD SVG 1.1//EN"
  "http://www.w3.org/Graphics/SVG/1.1/DTD/svg11.dtd">
<!-- Created with matplotlib (https://matplotlib.org/) -->
<svg height="720pt" version="1.1" viewBox="0 0 720 720" width="720pt" xmlns="http://www.w3.org/2000/svg" xmlns:xlink="http://www.w3.org/1999/xlink">
 <metadata>
  <rdf:RDF xmlns:cc="http://creativecommons.org/ns#" xmlns:dc="http://purl.org/dc/elements/1.1/" xmlns:rdf="http://www.w3.org/1999/02/22-rdf-syntax-ns#">
   <cc:Work>
    <dc:type rdf:resource="http://purl.org/dc/dcmitype/StillImage"/>
    <dc:date>2020-08-11T11:15:08.960784</dc:date>
    <dc:format>image/svg+xml</dc:format>
    <dc:creator>
     <cc:Agent>
      <dc:title>Matplotlib v3.3.0, https://matplotlib.org/</dc:title>
     </cc:Agent>
    </dc:creator>
   </cc:Work>
  </rdf:RDF>
 </metadata>
 <defs>
  <style type="text/css">*{stroke-linecap:butt;stroke-linejoin:round;}</style>
 </defs>
 <g id="figure_1">
  <g id="patch_1">
   <path d="M 0 720 
L 720 720 
L 720 0 
L 0 0 
z
" style="fill:#ffffff;"/>
  </g>
  <g id="axes_1">
   <g id="patch_2">
    <path d="M 90 640.8 
L 648 640.8 
L 648 86.4 
L 90 86.4 
z
" style="fill:#ffffff;"/>
   </g>
   <g id="matplotlib.axis_1">
    <g id="xtick_1">
     <g id="line2d_1">
      <path clip-path="url(#p3a6c35823e)" d="M 162.104343 640.8 
L 162.104343 86.4 
" style="fill:none;stroke:#cccccc;stroke-linecap:round;stroke-width:0.8;"/>
     </g>
     <g id="line2d_2"/>
     <g id="text_1">
      <!-- 2015 -->
      <g style="fill:#262626;" transform="translate(149.379343 651.898438)scale(0.1 -0.1)">
       <defs>
        <path d="M 19.1875 8.296875 
L 53.609375 8.296875 
L 53.609375 0 
L 7.328125 0 
L 7.328125 8.296875 
Q 12.9375 14.109375 22.625 23.890625 
Q 32.328125 33.6875 34.8125 36.53125 
Q 39.546875 41.84375 41.421875 45.53125 
Q 43.3125 49.21875 43.3125 52.78125 
Q 43.3125 58.59375 39.234375 62.25 
Q 35.15625 65.921875 28.609375 65.921875 
Q 23.96875 65.921875 18.8125 64.3125 
Q 13.671875 62.703125 7.8125 59.421875 
L 7.8125 69.390625 
Q 13.765625 71.78125 18.9375 73 
Q 24.125 74.21875 28.421875 74.21875 
Q 39.75 74.21875 46.484375 68.546875 
Q 53.21875 62.890625 53.21875 53.421875 
Q 53.21875 48.921875 51.53125 44.890625 
Q 49.859375 40.875 45.40625 35.40625 
Q 44.1875 33.984375 37.640625 27.21875 
Q 31.109375 20.453125 19.1875 8.296875 
z
" id="DejaVuSans-50"/>
        <path d="M 31.78125 66.40625 
Q 24.171875 66.40625 20.328125 58.90625 
Q 16.5 51.421875 16.5 36.375 
Q 16.5 21.390625 20.328125 13.890625 
Q 24.171875 6.390625 31.78125 6.390625 
Q 39.453125 6.390625 43.28125 13.890625 
Q 47.125 21.390625 47.125 36.375 
Q 47.125 51.421875 43.28125 58.90625 
Q 39.453125 66.40625 31.78125 66.40625 
z
M 31.78125 74.21875 
Q 44.046875 74.21875 50.515625 64.515625 
Q 56.984375 54.828125 56.984375 36.375 
Q 56.984375 17.96875 50.515625 8.265625 
Q 44.046875 -1.421875 31.78125 -1.421875 
Q 19.53125 -1.421875 13.0625 8.265625 
Q 6.59375 17.96875 6.59375 36.375 
Q 6.59375 54.828125 13.0625 64.515625 
Q 19.53125 74.21875 31.78125 74.21875 
z
" id="DejaVuSans-48"/>
        <path d="M 12.40625 8.296875 
L 28.515625 8.296875 
L 28.515625 63.921875 
L 10.984375 60.40625 
L 10.984375 69.390625 
L 28.421875 72.90625 
L 38.28125 72.90625 
L 38.28125 8.296875 
L 54.390625 8.296875 
L 54.390625 0 
L 12.40625 0 
z
" id="DejaVuSans-49"/>
        <path d="M 10.796875 72.90625 
L 49.515625 72.90625 
L 49.515625 64.59375 
L 19.828125 64.59375 
L 19.828125 46.734375 
Q 21.96875 47.46875 24.109375 47.828125 
Q 26.265625 48.1875 28.421875 48.1875 
Q 40.625 48.1875 47.75 41.5 
Q 54.890625 34.8125 54.890625 23.390625 
Q 54.890625 11.625 47.5625 5.09375 
Q 40.234375 -1.421875 26.90625 -1.421875 
Q 22.3125 -1.421875 17.546875 -0.640625 
Q 12.796875 0.140625 7.71875 1.703125 
L 7.71875 11.625 
Q 12.109375 9.234375 16.796875 8.0625 
Q 21.484375 6.890625 26.703125 6.890625 
Q 35.15625 6.890625 40.078125 11.328125 
Q 45.015625 15.765625 45.015625 23.390625 
Q 45.015625 31 40.078125 35.4375 
Q 35.15625 39.890625 26.703125 39.890625 
Q 22.75 39.890625 18.8125 39.015625 
Q 14.890625 38.140625 10.796875 36.28125 
z
" id="DejaVuSans-53"/>
       </defs>
       <use xlink:href="#DejaVuSans-50"/>
       <use x="63.623047" xlink:href="#DejaVuSans-48"/>
       <use x="127.246094" xlink:href="#DejaVuSans-49"/>
       <use x="190.869141" xlink:href="#DejaVuSans-53"/>
      </g>
     </g>
    </g>
    <g id="xtick_2">
     <g id="line2d_3">
      <path clip-path="url(#p3a6c35823e)" d="M 244.123332 640.8 
L 244.123332 86.4 
" style="fill:none;stroke:#cccccc;stroke-linecap:round;stroke-width:0.8;"/>
     </g>
     <g id="line2d_4"/>
     <g id="text_2">
      <!-- 2016 -->
      <g style="fill:#262626;" transform="translate(231.398332 651.898438)scale(0.1 -0.1)">
       <defs>
        <path d="M 33.015625 40.375 
Q 26.375 40.375 22.484375 35.828125 
Q 18.609375 31.296875 18.609375 23.390625 
Q 18.609375 15.53125 22.484375 10.953125 
Q 26.375 6.390625 33.015625 6.390625 
Q 39.65625 6.390625 43.53125 10.953125 
Q 47.40625 15.53125 47.40625 23.390625 
Q 47.40625 31.296875 43.53125 35.828125 
Q 39.65625 40.375 33.015625 40.375 
z
M 52.59375 71.296875 
L 52.59375 62.3125 
Q 48.875 64.0625 45.09375 64.984375 
Q 41.3125 65.921875 37.59375 65.921875 
Q 27.828125 65.921875 22.671875 59.328125 
Q 17.53125 52.734375 16.796875 39.40625 
Q 19.671875 43.65625 24.015625 45.921875 
Q 28.375 48.1875 33.59375 48.1875 
Q 44.578125 48.1875 50.953125 41.515625 
Q 57.328125 34.859375 57.328125 23.390625 
Q 57.328125 12.15625 50.6875 5.359375 
Q 44.046875 -1.421875 33.015625 -1.421875 
Q 20.359375 -1.421875 13.671875 8.265625 
Q 6.984375 17.96875 6.984375 36.375 
Q 6.984375 53.65625 15.1875 63.9375 
Q 23.390625 74.21875 37.203125 74.21875 
Q 40.921875 74.21875 44.703125 73.484375 
Q 48.484375 72.75 52.59375 71.296875 
z
" id="DejaVuSans-54"/>
       </defs>
       <use xlink:href="#DejaVuSans-50"/>
       <use x="63.623047" xlink:href="#DejaVuSans-48"/>
       <use x="127.246094" xlink:href="#DejaVuSans-49"/>
       <use x="190.869141" xlink:href="#DejaVuSans-54"/>
      </g>
     </g>
    </g>
    <g id="xtick_3">
     <g id="line2d_5">
      <path clip-path="url(#p3a6c35823e)" d="M 326.367031 640.8 
L 326.367031 86.4 
" style="fill:none;stroke:#cccccc;stroke-linecap:round;stroke-width:0.8;"/>
     </g>
     <g id="line2d_6"/>
     <g id="text_3">
      <!-- 2017 -->
      <g style="fill:#262626;" transform="translate(313.642031 651.898438)scale(0.1 -0.1)">
       <defs>
        <path d="M 8.203125 72.90625 
L 55.078125 72.90625 
L 55.078125 68.703125 
L 28.609375 0 
L 18.3125 0 
L 43.21875 64.59375 
L 8.203125 64.59375 
z
" id="DejaVuSans-55"/>
       </defs>
       <use xlink:href="#DejaVuSans-50"/>
       <use x="63.623047" xlink:href="#DejaVuSans-48"/>
       <use x="127.246094" xlink:href="#DejaVuSans-49"/>
       <use x="190.869141" xlink:href="#DejaVuSans-55"/>
      </g>
     </g>
    </g>
    <g id="xtick_4">
     <g id="line2d_7">
      <path clip-path="url(#p3a6c35823e)" d="M 408.38602 640.8 
L 408.38602 86.4 
" style="fill:none;stroke:#cccccc;stroke-linecap:round;stroke-width:0.8;"/>
     </g>
     <g id="line2d_8"/>
     <g id="text_4">
      <!-- 2018 -->
      <g style="fill:#262626;" transform="translate(395.66102 651.898438)scale(0.1 -0.1)">
       <defs>
        <path d="M 31.78125 34.625 
Q 24.75 34.625 20.71875 30.859375 
Q 16.703125 27.09375 16.703125 20.515625 
Q 16.703125 13.921875 20.71875 10.15625 
Q 24.75 6.390625 31.78125 6.390625 
Q 38.8125 6.390625 42.859375 10.171875 
Q 46.921875 13.96875 46.921875 20.515625 
Q 46.921875 27.09375 42.890625 30.859375 
Q 38.875 34.625 31.78125 34.625 
z
M 21.921875 38.8125 
Q 15.578125 40.375 12.03125 44.71875 
Q 8.5 49.078125 8.5 55.328125 
Q 8.5 64.0625 14.71875 69.140625 
Q 20.953125 74.21875 31.78125 74.21875 
Q 42.671875 74.21875 48.875 69.140625 
Q 55.078125 64.0625 55.078125 55.328125 
Q 55.078125 49.078125 51.53125 44.71875 
Q 48 40.375 41.703125 38.8125 
Q 48.828125 37.15625 52.796875 32.3125 
Q 56.78125 27.484375 56.78125 20.515625 
Q 56.78125 9.90625 50.3125 4.234375 
Q 43.84375 -1.421875 31.78125 -1.421875 
Q 19.734375 -1.421875 13.25 4.234375 
Q 6.78125 9.90625 6.78125 20.515625 
Q 6.78125 27.484375 10.78125 32.3125 
Q 14.796875 37.15625 21.921875 38.8125 
z
M 18.3125 54.390625 
Q 18.3125 48.734375 21.84375 45.5625 
Q 25.390625 42.390625 31.78125 42.390625 
Q 38.140625 42.390625 41.71875 45.5625 
Q 45.3125 48.734375 45.3125 54.390625 
Q 45.3125 60.0625 41.71875 63.234375 
Q 38.140625 66.40625 31.78125 66.40625 
Q 25.390625 66.40625 21.84375 63.234375 
Q 18.3125 60.0625 18.3125 54.390625 
z
" id="DejaVuSans-56"/>
       </defs>
       <use xlink:href="#DejaVuSans-50"/>
       <use x="63.623047" xlink:href="#DejaVuSans-48"/>
       <use x="127.246094" xlink:href="#DejaVuSans-49"/>
       <use x="190.869141" xlink:href="#DejaVuSans-56"/>
      </g>
     </g>
    </g>
    <g id="xtick_5">
     <g id="line2d_9">
      <path clip-path="url(#p3a6c35823e)" d="M 490.405009 640.8 
L 490.405009 86.4 
" style="fill:none;stroke:#cccccc;stroke-linecap:round;stroke-width:0.8;"/>
     </g>
     <g id="line2d_10"/>
     <g id="text_5">
      <!-- 2019 -->
      <g style="fill:#262626;" transform="translate(477.680009 651.898438)scale(0.1 -0.1)">
       <defs>
        <path d="M 10.984375 1.515625 
L 10.984375 10.5 
Q 14.703125 8.734375 18.5 7.8125 
Q 22.3125 6.890625 25.984375 6.890625 
Q 35.75 6.890625 40.890625 13.453125 
Q 46.046875 20.015625 46.78125 33.40625 
Q 43.953125 29.203125 39.59375 26.953125 
Q 35.25 24.703125 29.984375 24.703125 
Q 19.046875 24.703125 12.671875 31.3125 
Q 6.296875 37.9375 6.296875 49.421875 
Q 6.296875 60.640625 12.9375 67.421875 
Q 19.578125 74.21875 30.609375 74.21875 
Q 43.265625 74.21875 49.921875 64.515625 
Q 56.59375 54.828125 56.59375 36.375 
Q 56.59375 19.140625 48.40625 8.859375 
Q 40.234375 -1.421875 26.421875 -1.421875 
Q 22.703125 -1.421875 18.890625 -0.6875 
Q 15.09375 0.046875 10.984375 1.515625 
z
M 30.609375 32.421875 
Q 37.25 32.421875 41.125 36.953125 
Q 45.015625 41.5 45.015625 49.421875 
Q 45.015625 57.28125 41.125 61.84375 
Q 37.25 66.40625 30.609375 66.40625 
Q 23.96875 66.40625 20.09375 61.84375 
Q 16.21875 57.28125 16.21875 49.421875 
Q 16.21875 41.5 20.09375 36.953125 
Q 23.96875 32.421875 30.609375 32.421875 
z
" id="DejaVuSans-57"/>
       </defs>
       <use xlink:href="#DejaVuSans-50"/>
       <use x="63.623047" xlink:href="#DejaVuSans-48"/>
       <use x="127.246094" xlink:href="#DejaVuSans-49"/>
       <use x="190.869141" xlink:href="#DejaVuSans-57"/>
      </g>
     </g>
    </g>
    <g id="xtick_6">
     <g id="line2d_11">
      <path clip-path="url(#p3a6c35823e)" d="M 572.423998 640.8 
L 572.423998 86.4 
" style="fill:none;stroke:#cccccc;stroke-linecap:round;stroke-width:0.8;"/>
     </g>
     <g id="line2d_12"/>
     <g id="text_6">
      <!-- 2020 -->
      <g style="fill:#262626;" transform="translate(559.698998 651.898438)scale(0.1 -0.1)">
       <use xlink:href="#DejaVuSans-50"/>
       <use x="63.623047" xlink:href="#DejaVuSans-48"/>
       <use x="127.246094" xlink:href="#DejaVuSans-50"/>
       <use x="190.869141" xlink:href="#DejaVuSans-48"/>
      </g>
     </g>
    </g>
   </g>
   <g id="matplotlib.axis_2">
    <g id="ytick_1">
     <g id="line2d_13">
      <path clip-path="url(#p3a6c35823e)" d="M 90 615.614202 
L 648 615.614202 
" style="fill:none;stroke:#cccccc;stroke-linecap:round;stroke-width:0.8;"/>
     </g>
     <g id="line2d_14"/>
     <g id="text_7">
      <!-- 0 -->
      <g style="fill:#262626;" transform="translate(80.1375 619.413421)scale(0.1 -0.1)">
       <use xlink:href="#DejaVuSans-48"/>
      </g>
     </g>
    </g>
    <g id="ytick_2">
     <g id="line2d_15">
      <path clip-path="url(#p3a6c35823e)" d="M 90 544.602283 
L 648 544.602283 
" style="fill:none;stroke:#cccccc;stroke-linecap:round;stroke-width:0.8;"/>
     </g>
     <g id="line2d_16"/>
     <g id="text_8">
      <!-- 5000 -->
      <g style="fill:#262626;" transform="translate(61.05 548.401501)scale(0.1 -0.1)">
       <use xlink:href="#DejaVuSans-53"/>
       <use x="63.623047" xlink:href="#DejaVuSans-48"/>
       <use x="127.246094" xlink:href="#DejaVuSans-48"/>
       <use x="190.869141" xlink:href="#DejaVuSans-48"/>
      </g>
     </g>
    </g>
    <g id="ytick_3">
     <g id="line2d_17">
      <path clip-path="url(#p3a6c35823e)" d="M 90 473.590363 
L 648 473.590363 
" style="fill:none;stroke:#cccccc;stroke-linecap:round;stroke-width:0.8;"/>
     </g>
     <g id="line2d_18"/>
     <g id="text_9">
      <!-- 10000 -->
      <g style="fill:#262626;" transform="translate(54.6875 477.389581)scale(0.1 -0.1)">
       <use xlink:href="#DejaVuSans-49"/>
       <use x="63.623047" xlink:href="#DejaVuSans-48"/>
       <use x="127.246094" xlink:href="#DejaVuSans-48"/>
       <use x="190.869141" xlink:href="#DejaVuSans-48"/>
       <use x="254.492188" xlink:href="#DejaVuSans-48"/>
      </g>
     </g>
    </g>
    <g id="ytick_4">
     <g id="line2d_19">
      <path clip-path="url(#p3a6c35823e)" d="M 90 402.578443 
L 648 402.578443 
" style="fill:none;stroke:#cccccc;stroke-linecap:round;stroke-width:0.8;"/>
     </g>
     <g id="line2d_20"/>
     <g id="text_10">
      <!-- 15000 -->
      <g style="fill:#262626;" transform="translate(54.6875 406.377662)scale(0.1 -0.1)">
       <use xlink:href="#DejaVuSans-49"/>
       <use x="63.623047" xlink:href="#DejaVuSans-53"/>
       <use x="127.246094" xlink:href="#DejaVuSans-48"/>
       <use x="190.869141" xlink:href="#DejaVuSans-48"/>
       <use x="254.492188" xlink:href="#DejaVuSans-48"/>
      </g>
     </g>
    </g>
    <g id="ytick_5">
     <g id="line2d_21">
      <path clip-path="url(#p3a6c35823e)" d="M 90 331.566523 
L 648 331.566523 
" style="fill:none;stroke:#cccccc;stroke-linecap:round;stroke-width:0.8;"/>
     </g>
     <g id="line2d_22"/>
     <g id="text_11">
      <!-- 20000 -->
      <g style="fill:#262626;" transform="translate(54.6875 335.365742)scale(0.1 -0.1)">
       <use xlink:href="#DejaVuSans-50"/>
       <use x="63.623047" xlink:href="#DejaVuSans-48"/>
       <use x="127.246094" xlink:href="#DejaVuSans-48"/>
       <use x="190.869141" xlink:href="#DejaVuSans-48"/>
       <use x="254.492188" xlink:href="#DejaVuSans-48"/>
      </g>
     </g>
    </g>
    <g id="ytick_6">
     <g id="line2d_23">
      <path clip-path="url(#p3a6c35823e)" d="M 90 260.554603 
L 648 260.554603 
" style="fill:none;stroke:#cccccc;stroke-linecap:round;stroke-width:0.8;"/>
     </g>
     <g id="line2d_24"/>
     <g id="text_12">
      <!-- 25000 -->
      <g style="fill:#262626;" transform="translate(54.6875 264.353822)scale(0.1 -0.1)">
       <use xlink:href="#DejaVuSans-50"/>
       <use x="63.623047" xlink:href="#DejaVuSans-53"/>
       <use x="127.246094" xlink:href="#DejaVuSans-48"/>
       <use x="190.869141" xlink:href="#DejaVuSans-48"/>
       <use x="254.492188" xlink:href="#DejaVuSans-48"/>
      </g>
     </g>
    </g>
    <g id="ytick_7">
     <g id="line2d_25">
      <path clip-path="url(#p3a6c35823e)" d="M 90 189.542683 
L 648 189.542683 
" style="fill:none;stroke:#cccccc;stroke-linecap:round;stroke-width:0.8;"/>
     </g>
     <g id="line2d_26"/>
     <g id="text_13">
      <!-- 30000 -->
      <g style="fill:#262626;" transform="translate(54.6875 193.341902)scale(0.1 -0.1)">
       <defs>
        <path d="M 40.578125 39.3125 
Q 47.65625 37.796875 51.625 33 
Q 55.609375 28.21875 55.609375 21.1875 
Q 55.609375 10.40625 48.1875 4.484375 
Q 40.765625 -1.421875 27.09375 -1.421875 
Q 22.515625 -1.421875 17.65625 -0.515625 
Q 12.796875 0.390625 7.625 2.203125 
L 7.625 11.71875 
Q 11.71875 9.328125 16.59375 8.109375 
Q 21.484375 6.890625 26.8125 6.890625 
Q 36.078125 6.890625 40.9375 10.546875 
Q 45.796875 14.203125 45.796875 21.1875 
Q 45.796875 27.640625 41.28125 31.265625 
Q 36.765625 34.90625 28.71875 34.90625 
L 20.21875 34.90625 
L 20.21875 43.015625 
L 29.109375 43.015625 
Q 36.375 43.015625 40.234375 45.921875 
Q 44.09375 48.828125 44.09375 54.296875 
Q 44.09375 59.90625 40.109375 62.90625 
Q 36.140625 65.921875 28.71875 65.921875 
Q 24.65625 65.921875 20.015625 65.03125 
Q 15.375 64.15625 9.8125 62.3125 
L 9.8125 71.09375 
Q 15.4375 72.65625 20.34375 73.4375 
Q 25.25 74.21875 29.59375 74.21875 
Q 40.828125 74.21875 47.359375 69.109375 
Q 53.90625 64.015625 53.90625 55.328125 
Q 53.90625 49.265625 50.4375 45.09375 
Q 46.96875 40.921875 40.578125 39.3125 
z
" id="DejaVuSans-51"/>
       </defs>
       <use xlink:href="#DejaVuSans-51"/>
       <use x="63.623047" xlink:href="#DejaVuSans-48"/>
       <use x="127.246094" xlink:href="#DejaVuSans-48"/>
       <use x="190.869141" xlink:href="#DejaVuSans-48"/>
       <use x="254.492188" xlink:href="#DejaVuSans-48"/>
      </g>
     </g>
    </g>
    <g id="ytick_8">
     <g id="line2d_27">
      <path clip-path="url(#p3a6c35823e)" d="M 90 118.530763 
L 648 118.530763 
" style="fill:none;stroke:#cccccc;stroke-linecap:round;stroke-width:0.8;"/>
     </g>
     <g id="line2d_28"/>
     <g id="text_14">
      <!-- 35000 -->
      <g style="fill:#262626;" transform="translate(54.6875 122.329982)scale(0.1 -0.1)">
       <use xlink:href="#DejaVuSans-51"/>
       <use x="63.623047" xlink:href="#DejaVuSans-53"/>
       <use x="127.246094" xlink:href="#DejaVuSans-48"/>
       <use x="190.869141" xlink:href="#DejaVuSans-48"/>
       <use x="254.492188" xlink:href="#DejaVuSans-48"/>
      </g>
     </g>
    </g>
   </g>
   <g id="line2d_29">
    <path clip-path="url(#p3a6c35823e)" d="M 115.363636 615.6 
L 115.40656 615.500583 
L 117.94582 615.017702 
L 120.699211 614.250774 
L 120.762705 614.222369 
L 122.305684 614.066143 
L 122.534066 614.037738 
L 124.528915 613.554857 
L 124.61101 613.526452 
L 125.839461 613.256607 
L 126.360254 612.944154 
L 127.389848 612.745321 
L 128.438523 612.489678 
L 134.028194 611.083642 
L 134.161871 611.026832 
L 135.198552 610.899011 
L 135.376564 610.756987 
L 135.572214 610.671773 
L 136.022523 610.572356 
L 136.546018 610.444535 
L 137.097719 610.259904 
L 137.168721 610.160487 
L 138.218448 609.862237 
L 141.366805 609.052701 
L 141.475709 608.939082 
L 141.866711 608.797058 
L 141.87447 608.782856 
L 142.12004 608.655034 
L 142.18672 608.626629 
L 142.936407 608.484606 
L 142.996574 608.314177 
L 143.400138 608.172153 
L 143.673283 607.717677 
L 144.542227 607.533046 
L 145.410558 607.035962 
L 145.887249 606.893939 
L 145.967138 606.794522 
L 146.201736 606.6667 
L 146.376208 606.609891 
L 147.175992 606.439462 
L 149.688648 605.402688 
L 149.754053 605.274867 
L 150.820238 604.990819 
L 150.956351 604.848795 
L 151.298557 604.664164 
L 151.4904 604.550545 
L 151.5107 604.493736 
L 152.1774 604.351712 
L 152.683845 603.92564 
L 152.694089 603.897236 
L 153.098944 603.755212 
L 153.121555 603.698402 
L 153.754281 603.513771 
L 153.900205 603.343343 
L 154.211126 603.144509 
L 154.622324 603.045093 
L 154.690733 603.016688 
L 155.332551 602.888866 
L 155.650513 602.690033 
L 156.233899 602.462795 
L 156.238017 602.448592 
L 157.301444 602.263961 
L 157.393466 602.13614 
L 157.532757 601.994116 
L 158.934711 601.198783 
L 159.107558 601.028354 
L 159.36628 600.857925 
L 159.4578 600.772711 
L 160.059364 600.659092 
L 160.152062 600.602283 
L 160.269093 600.460259 
L 160.286328 600.261425 
L 161.831043 600.034187 
L 162.029097 599.963175 
L 162.826186 599.821151 
L 163.567964 599.593913 
L 163.67803 599.480294 
L 163.903549 599.09683 
L 164.354177 598.940604 
L 165.074941 598.542937 
L 165.565827 598.045853 
L 165.680403 597.889627 
L 165.697574 597.804413 
L 166.400818 597.662389 
L 166.55088 597.477758 
L 166.646756 597.364139 
L 166.797727 597.165306 
L 166.900248 597.037484 
L 167.205526 596.824448 
L 167.302065 596.682425 
L 167.649285 596.65402 
L 167.945018 596.526198 
L 168.584811 595.716662 
L 168.679636 595.517829 
L 169.09409 595.3474 
L 169.100106 595.333198 
L 169.541056 595.205377 
L 169.643817 595.134365 
L 169.76684 594.921329 
L 169.885874 594.7509 
L 170.179827 594.324829 
L 170.277147 594.253817 
L 171.072915 593.983972 
L 171.233637 593.898757 
L 171.503923 593.628912 
L 171.549994 593.486888 
L 171.819318 593.344864 
L 171.871685 593.288055 
L 172.867356 592.989805 
L 173.091525 592.677352 
L 173.58283 591.995638 
L 174.226324 591.782602 
L 174.277208 591.683185 
L 174.632632 591.555364 
L 174.771497 591.47015 
L 174.863604 591.299721 
L 174.980357 591.072483 
L 175.146278 590.859447 
L 175.182273 590.831042 
L 175.772021 590.703221 
L 175.876111 590.546995 
L 176.502876 589.993102 
L 177.300907 589.780066 
L 177.408455 589.595435 
L 177.589997 589.467613 
L 177.689228 589.353994 
L 177.792168 589.211971 
L 178.113708 588.61547 
L 178.273517 588.473447 
L 178.424398 588.402435 
L 179.185749 588.033173 
L 180.066112 586.797565 
L 180.475041 586.627137 
L 180.594189 586.442506 
L 180.723413 586.243672 
L 180.854434 585.945422 
L 180.944071 585.803398 
L 181.016381 585.604565 
L 181.186728 585.476744 
L 181.488021 584.809232 
L 182.06275 584.553589 
L 182.159507 584.454172 
L 182.308911 584.255339 
L 182.472886 584.013898 
L 182.700069 583.772458 
L 182.861254 583.602029 
L 183.458623 583.360588 
L 183.494077 583.303779 
L 183.658897 583.161755 
L 183.932676 582.707279 
L 184.074519 582.579457 
L 184.571354 581.897743 
L 185.151193 581.741517 
L 185.339369 581.58529 
L 185.550869 581.400659 
L 185.7237 581.216028 
L 185.833438 581.074005 
L 186.180641 580.591124 
L 186.747177 580.434897 
L 186.898921 580.179254 
L 187.21528 579.923611 
L 187.353489 579.724778 
L 187.768617 579.14248 
L 188.220434 579.000457 
L 189.073755 577.637028 
L 189.255864 577.495004 
L 189.33375 577.367182 
L 189.857872 577.210956 
L 189.961616 576.955313 
L 190.060134 576.898504 
L 190.162983 576.742277 
L 190.279301 576.529242 
L 190.368878 576.387218 
L 190.728268 575.86173 
L 190.804222 575.733908 
L 190.875859 575.50667 
L 191.511966 575.350444 
L 191.788546 574.924372 
L 191.939811 574.711337 
L 192.066606 574.356277 
L 192.33639 574.01542 
L 192.428971 573.773979 
L 192.554301 573.589348 
L 192.626957 573.489932 
L 193.021481 573.333705 
L 193.20018 572.992848 
L 193.300381 572.836622 
L 193.564165 572.367943 
L 193.750143 572.211717 
L 194.154597 571.501598 
L 194.436275 571.302764 
L 194.591202 571.174943 
L 194.782169 571.032919 
L 194.877483 570.890895 
L 195.026842 570.763074 
L 195.117824 570.62105 
L 195.229489 570.521633 
L 195.31561 570.393812 
L 195.446383 570.138169 
L 196.233005 569.612681 
L 196.358324 569.470657 
L 197.354901 568.050418 
L 197.768465 567.894192 
L 197.888474 567.439716 
L 198.009622 567.155668 
L 198.206285 566.729597 
L 198.270574 566.587573 
L 198.363938 566.459751 
L 198.660149 566.189906 
L 198.739616 565.991073 
L 199.380704 565.877454 
L 199.543309 565.67862 
L 200.477815 563.988537 
L 200.950688 563.803906 
L 201.072424 563.704489 
L 201.161718 563.519858 
L 201.832561 562.312655 
L 201.925917 562.113822 
L 202.334434 561.957596 
L 202.528027 561.772965 
L 203.276762 560.693584 
L 204.017963 560.49475 
L 204.3445 559.798833 
L 204.447182 559.65681 
L 205.271767 558.776262 
L 205.612941 558.64844 
L 205.968999 557.853107 
L 206.085632 557.711083 
L 206.654823 556.745321 
L 207.191629 556.603297 
L 207.304205 556.390261 
L 207.659772 556.049404 
L 207.825513 555.864773 
L 207.920042 555.680142 
L 208.071758 555.509713 
L 208.228976 555.282475 
L 208.306831 555.225666 
L 208.761249 555.041035 
L 209.24 554.41613 
L 209.351346 554.288308 
L 209.483508 554.160487 
L 209.965019 553.649201 
L 210.281659 553.52138 
L 210.445658 553.237332 
L 211.566165 551.944915 
L 212.235457 551.419427 
L 212.956454 550.240629 
L 213.147666 550.198022 
L 213.450204 550.0702 
L 214.65819 548.763581 
L 215.105944 548.621557 
L 215.196525 548.522141 
L 215.339603 548.380117 
L 215.503712 548.124474 
L 215.741831 547.741009 
L 216.017438 547.456962 
L 216.091969 547.371747 
L 216.615043 547.187116 
L 217.172497 546.306569 
L 217.390042 546.164545 
L 217.503382 546.050926 
L 218.026583 545.83789 
L 218.455139 545.610652 
L 218.566948 545.454426 
L 218.714117 545.18458 
L 218.826867 545.056759 
L 218.912394 544.88633 
L 219.040565 544.744306 
L 220.139478 543.99158 
L 220.257356 543.707532 
L 220.303659 543.508699 
L 220.406044 543.437687 
L 220.482165 543.253056 
L 220.610598 543.082627 
L 220.760537 542.79858 
L 221.289548 542.642354 
L 221.620064 541.84702 
L 222.102154 541.023282 
L 222.213128 540.909663 
L 222.504884 540.59721 
L 222.858848 540.426782 
L 222.947114 540.284758 
L 223.137608 540.156936 
L 223.709402 538.708293 
L 223.954791 538.353234 
L 224.509792 538.1544 
L 224.623021 537.770936 
L 224.957518 537.344864 
L 225.114992 537.174436 
L 225.213331 537.032412 
L 225.795547 536.421709 
L 226.085963 536.265483 
L 226.356104 535.725793 
L 226.522191 535.342328 
L 226.619781 534.916257 
L 226.80551 534.660614 
L 226.937103 534.475983 
L 227.248229 534.248745 
L 227.256021 534.22034 
L 227.599258 534.092518 
L 227.667021 533.936292 
L 227.776357 533.581233 
L 227.940483 533.32559 
L 228.050848 533.211971 
L 228.127468 533.069947 
L 228.237792 532.856911 
L 228.332209 532.714887 
L 228.464371 532.487649 
L 228.597002 532.274613 
L 228.698412 532.089982 
L 229.203364 531.891149 
L 229.678284 531.12422 
L 229.836093 530.939589 
L 229.903971 530.797565 
L 229.990217 530.513518 
L 230.135563 530.385696 
L 230.195444 530.300482 
L 230.779558 530.101648 
L 230.891328 529.860208 
L 231.044627 529.675577 
L 231.784143 528.581993 
L 232.037935 528.43997 
L 232.158365 528.354755 
L 232.35638 528.212731 
L 232.488264 528.0281 
L 233.642595 526.565255 
L 233.978419 526.409029 
L 234.100066 526.110779 
L 234.236967 525.94035 
L 234.325228 525.840933 
L 234.406969 525.698909 
L 234.539194 525.414862 
L 235.011877 524.619528 
L 235.462178 524.39229 
L 235.571102 524.108242 
L 235.828587 523.767385 
L 235.963187 523.625361 
L 236.649479 522.886837 
L 237.096121 522.574385 
L 237.204444 522.389754 
L 237.62224 521.70804 
L 237.720608 521.637028 
L 237.84682 521.381385 
L 237.968881 521.225159 
L 238.815989 520.685468 
L 238.954198 520.287801 
L 239.132405 520.017956 
L 239.44426 519.492468 
L 239.574704 519.336241 
L 239.643695 519.123206 
L 240.173448 518.952777 
L 240.245495 518.796551 
L 240.314575 518.668729 
L 240.455685 518.540908 
L 240.680207 518.228455 
L 240.82741 517.901801 
L 241.396497 517.234289 
L 241.790176 516.978646 
L 241.896468 516.836622 
L 242.093438 516.566777 
L 242.251489 516.325336 
L 243.753568 515.473193 
L 243.853337 515.416383 
L 245.174141 514.961907 
L 246.169882 514.138169 
L 246.531225 513.925133 
L 246.789165 513.470657 
L 246.906592 513.286026 
L 247.028366 513.1298 
L 247.134622 512.945169 
L 247.758327 512.41968 
L 248.156003 512.249252 
L 249.387076 510.900025 
L 249.661362 510.715394 
L 250.020855 510.204109 
L 250.151072 510.03368 
L 250.27587 509.834847 
L 250.719179 509.309358 
L 251.084491 509.167335 
L 252.346966 506.852346 
L 252.823264 506.582501 
L 253.001443 506.241643 
L 253.06276 506.04281 
L 253.521539 504.892417 
L 253.641564 504.665179 
L 253.937546 504.168095 
L 254.303182 504.011869 
L 254.545861 503.699417 
L 254.629029 503.557393 
L 254.703061 503.358559 
L 254.831604 503.230738 
L 254.988448 502.733655 
L 255.264227 502.094547 
L 255.377364 501.611666 
L 255.572687 501.45544 
L 255.646878 501.427035 
L 255.900069 501.256607 
L 256.219159 500.589095 
L 256.344908 499.850571 
L 256.412989 499.708547 
L 256.731929 498.728582 
L 256.942687 498.316713 
L 257.028842 498.203094 
L 257.526053 497.81963 
L 257.601066 497.549784 
L 257.708224 497.279939 
L 258.657138 495.348415 
L 258.954943 495.121177 
L 259.167515 494.78032 
L 259.495281 494.311641 
L 259.665782 494.141212 
L 259.793841 493.899772 
L 260.065742 493.53051 
L 260.238199 493.345879 
L 260.377123 493.274867 
L 260.714788 493.090236 
L 260.908897 492.749379 
L 261.448554 491.655795 
L 261.564461 491.513771 
L 261.788703 491.073497 
L 262.171809 490.888866 
L 262.515721 490.263961 
L 262.697403 489.994116 
L 262.771373 489.681664 
L 262.888094 489.568045 
L 263.117256 489.298199 
L 263.229018 489.042556 
L 263.980526 488.58808 
L 264.282141 488.090997 
L 264.375221 487.821151 
L 264.530505 487.608116 
L 264.58764 487.409282 
L 264.72601 487.281461 
L 264.888134 486.983211 
L 265.428402 486.684961 
L 265.853891 486.017449 
L 266.069347 485.676591 
L 266.166794 485.477758 
L 266.390336 485.094294 
L 266.925563 484.95227 
L 267.212286 484.625615 
L 267.363814 484.327365 
L 267.508034 484.05752 
L 268.136706 482.978138 
L 268.508299 482.80771 
L 268.673166 482.424245 
L 268.786821 482.253817 
L 268.916482 482.069186 
L 269.016712 481.927162 
L 269.127189 481.643114 
L 269.3871 481.344864 
L 269.52391 481.004007 
L 269.823658 480.90459 
L 270.143552 480.691555 
L 270.278581 480.3649 
L 270.438117 480.109257 
L 270.80547 479.512757 
L 271.491737 478.987269 
L 271.893093 478.745828 
L 271.994142 478.51859 
L 272.738833 477.396602 
L 273.15511 477.254578 
L 273.228039 477.098352 
L 273.53868 476.530256 
L 273.667027 476.274613 
L 273.750744 476.089982 
L 273.870004 475.933756 
L 274.862604 474.911184 
L 274.998009 474.698149 
L 275.331508 474.016434 
L 275.614421 473.206898 
L 275.78184 472.937053 
L 275.875391 472.809232 
L 276.305606 472.624601 
L 276.399641 472.43997 
L 276.526802 472.0281 
L 276.893606 470.749886 
L 277.003977 470.323814 
L 277.29553 469.812529 
L 277.388607 469.500076 
L 277.576341 469.258636 
L 277.703778 469.159219 
L 277.968428 468.931981 
L 278.480243 468.193457 
L 278.578182 467.909409 
L 278.668229 467.753183 
L 278.876827 467.369718 
L 278.931035 467.156683 
L 279.040745 467.000457 
L 279.540807 466.702206 
L 279.683779 466.389754 
L 279.795345 466.205123 
L 279.965063 465.793254 
L 280.04121 465.566016 
L 280.166634 465.267766 
L 280.404875 464.912706 
L 280.507467 464.784885 
L 280.650482 464.614456 
L 281.021976 464.40142 
L 281.147748 464.230992 
L 281.198056 464.046361 
L 281.298234 463.719706 
L 281.369667 463.478265 
L 281.491026 463.251027 
L 281.637659 462.711337 
L 282.105864 461.560943 
L 282.277138 461.376312 
L 282.36996 461.220086 
L 283.161364 459.984479 
L 283.248663 459.828253 
L 283.339556 459.686229 
L 283.395385 459.544205 
L 283.528335 459.174943 
L 283.646854 458.990312 
L 283.759573 458.876693 
L 284.21733 458.550038 
L 284.335623 458.379609 
L 284.54163 458.067157 
L 284.809929 457.598478 
L 284.883524 457.442252 
L 285.429922 456.206645 
L 285.763839 455.951002 
L 285.962463 455.737966 
L 286.287628 455.368704 
L 287.038861 453.863251 
L 287.337945 453.67862 
L 287.515645 453.408775 
L 287.719041 453.053715 
L 287.831167 452.812275 
L 287.958992 452.599239 
L 288.089862 452.443013 
L 288.361804 452.031144 
L 288.470846 451.803906 
L 288.845432 451.619275 
L 289.496697 450.34106 
L 289.962485 449.304286 
L 290.517019 448.977631 
L 290.659142 448.721988 
L 290.872481 448.594167 
L 291.041513 448.295917 
L 291.287268 447.869845 
L 291.452442 447.671012 
L 291.949641 447.30175 
L 292.150569 447.173928 
L 292.344048 446.818869 
L 292.402756 446.662643 
L 292.625751 446.236571 
L 292.717349 446.05194 
L 292.788801 445.909916 
L 292.971008 445.498047 
L 293.061311 445.356023 
L 293.384703 445.10038 
L 293.640026 444.958357 
L 293.779573 444.731118 
L 294.574311 443.197261 
L 294.643152 443.01263 
L 294.76657 442.756987 
L 295.065803 442.572356 
L 295.361047 442.046868 
L 295.587431 441.649201 
L 295.7166 441.407761 
L 296.255523 439.873903 
L 296.503801 439.731879 
L 296.621662 439.575653 
L 296.841464 439.37682 
L 297.295882 437.629926 
L 297.370189 437.459498 
L 297.905399 436.2807 
L 298.429607 436.067664 
L 299.537578 433.553842 
L 300.213187 433.028354 
L 300.327731 432.829521 
L 300.466354 432.673294 
L 300.573658 432.389247 
L 300.73346 432.090997 
L 300.976567 431.409282 
L 301.260294 431.253056 
L 301.558193 431.068425 
L 301.924738 430.159472 
L 302.051196 429.832818 
L 302.150662 429.19371 
L 302.263266 428.980675 
L 302.397941 428.668222 
L 302.534395 428.426782 
L 302.625142 428.171139 
L 302.735003 428.014913 
L 302.837183 427.674055 
L 303.197062 427.262186 
L 303.481348 426.722496 
L 303.601718 426.566269 
L 303.774979 426.140198 
L 303.851357 425.955567 
L 303.985519 425.373269 
L 304.093037 425.231245 
L 304.389323 424.805174 
L 304.586256 424.677352 
L 304.690597 424.549531 
L 304.82025 424.251281 
L 304.953651 423.995638 
L 305.303839 422.958864 
L 305.419733 422.419173 
L 306.160419 421.581233 
L 306.247226 421.453411 
L 306.362268 420.927923 
L 306.50158 420.67228 
L 306.669865 420.089982 
L 306.755535 419.834339 
L 306.865435 418.797565 
L 307.270833 417.647172 
L 307.893081 416.866041 
L 308.049901 416.510981 
L 308.249292 416.113315 
L 308.425447 415.701446 
L 308.490998 415.559422 
L 308.69578 414.792493 
L 308.779146 414.607862 
L 308.878965 414.352219 
L 309.426994 413.684707 
L 309.57169 413.258636 
L 309.718648 412.98879 
L 309.808178 412.761552 
L 309.893368 412.591124 
L 310.005829 412.363885 
L 310.648389 411.014659 
L 310.921455 410.886837 
L 312.15142 408.543444 
L 312.41135 408.344611 
L 312.834761 407.790718 
L 313.004947 407.393051 
L 313.0964 407.180015 
L 313.23876 406.867563 
L 313.554394 406.342075 
L 313.630979 406.200051 
L 313.837465 406.029622 
L 314.079886 405.816586 
L 314.179754 405.631955 
L 314.339012 405.319503 
L 314.518793 405.092265 
L 314.660479 404.836622 
L 315.376978 403.785645 
L 315.759288 403.501598 
L 316.049793 402.819883 
L 316.160879 402.592645 
L 316.268178 401.839919 
L 316.415089 401.598478 
L 317.171143 400.164038 
L 317.272205 400.022014 
L 317.715224 399.184073 
L 317.881642 398.758002 
L 318.077852 398.417144 
L 318.988453 397.309358 
L 319.098043 397.110525 
L 319.420535 396.229977 
L 319.515363 395.718691 
L 319.545754 395.562465 
L 319.750981 394.468882 
L 319.858605 393.943393 
L 319.980772 393.44631 
L 320.23085 393.275881 
L 320.414844 393.048643 
L 320.542237 392.707786 
L 320.654495 392.537357 
L 320.728025 392.352726 
L 320.840689 391.813036 
L 321.309048 390.861476 
L 321.406864 390.236571 
L 322.101921 389.51225 
L 322.270901 389.270809 
L 322.516045 388.915749 
L 323.324466 388.120416 
L 323.585485 387.992594 
L 324.380494 386.899011 
L 324.582949 386.700178 
L 325.492609 386.401927 
L 325.663526 386.302511 
L 327.073922 385.691808 
L 328.614147 384.385189 
L 328.726458 384.243165 
L 328.916376 383.888106 
L 329.116667 383.490439 
L 329.220333 383.348415 
L 329.329855 383.135379 
L 329.996603 382.624093 
L 330.217564 382.354248 
L 331.072889 381.289069 
L 331.350379 381.118641 
L 331.498089 380.948212 
L 331.695155 380.720974 
L 331.782581 380.550545 
L 331.938567 380.351712 
L 332.030065 379.598986 
L 332.167136 379.428557 
L 332.583556 378.860462 
L 333.025646 378.590616 
L 333.204189 378.420188 
L 333.314887 378.263961 
L 333.602707 377.809485 
L 334.103479 377.312402 
L 334.470801 377.156176 
L 334.775054 376.758509 
L 335.088805 376.431854 
L 335.225891 376.304032 
L 335.515293 376.062592 
L 335.636545 375.93477 
L 336.175385 375.750139 
L 336.300749 375.593913 
L 336.452274 375.423485 
L 336.838671 374.897996 
L 337.006776 374.528734 
L 337.294399 374.20208 
L 337.732882 373.974841 
L 337.887926 373.861222 
L 338.191211 373.378341 
L 338.736962 372.59721 
L 339.19829 372.426782 
L 339.488028 371.958103 
L 339.698043 371.503627 
L 339.806168 371.3474 
L 339.909543 370.992341 
L 340.005408 370.779305 
L 340.071331 370.594674 
L 340.179449 370.481055 
L 340.299018 370.268019 
L 340.368488 370.168603 
L 340.567297 370.012376 
L 340.713602 369.941364 
L 340.944161 369.643114 
L 341.146389 369.231245 
L 341.373674 368.691555 
L 342.152597 367.427542 
L 342.43274 367.257114 
L 342.832502 366.447578 
L 342.943348 366.305554 
L 343.107342 365.893685 
L 343.182362 365.723256 
L 343.582335 364.956328 
L 344.21522 364.274613 
L 344.354376 363.976363 
L 344.490585 363.791732 
L 344.598997 363.578696 
L 344.698811 363.450875 
L 345.178834 362.82597 
L 345.605998 362.58453 
L 345.714495 362.399899 
L 345.813563 362.272077 
L 346.099815 361.661375 
L 346.579078 361.064874 
L 346.672364 361.008065 
L 347.189433 360.624601 
L 347.363109 360.340553 
L 347.540112 360.099112 
L 347.867127 359.616231 
L 347.973916 359.4316 
L 348.165049 359.19016 
L 348.342505 359.048136 
L 348.729809 358.849303 
L 349.142312 358.252802 
L 349.25772 358.110779 
L 349.360782 357.982957 
L 349.554501 357.755719 
L 349.719964 357.542683 
L 350.409526 357.414862 
L 350.733011 357.074005 
L 350.850607 356.974588 
L 350.994665 356.74735 
L 351.161013 356.562719 
L 351.4688 356.321278 
L 352.009479 355.809992 
L 352.128684 355.682171 
L 352.352189 355.49754 
L 352.921212 354.54598 
L 353.481553 354.375552 
L 353.758427 353.892671 
L 354.446095 352.955313 
L 354.996262 352.813289 
L 356.416639 351.293634 
L 356.637591 351.123206 
L 356.680764 350.966979 
L 356.783686 350.867563 
L 356.954683 350.682932 
L 357.081852 350.441491 
L 357.164009 350.25686 
L 357.41622 350.043824 
L 357.813469 349.617753 
L 358.11071 349.475729 
L 358.231931 349.305301 
L 359.302342 348.041288 
L 360.024135 347.714634 
L 360.159286 347.487395 
L 360.464946 347.061324 
L 360.603974 346.834086 
L 361.416846 345.925133 
L 361.678796 345.385443 
L 361.807968 345.1298 
L 361.942294 344.959371 
L 362.110964 344.618514 
L 362.427014 344.149835 
L 362.750232 343.979407 
L 363.386625 342.843216 
L 363.694958 342.260918 
L 363.852916 342.019478 
L 363.962581 341.820644 
L 364.471085 341.621811 
L 364.628452 341.266751 
L 364.968138 340.769668 
L 365.062932 340.570834 
L 365.233259 340.300989 
L 365.593653 339.874918 
L 366.012078 339.690287 
L 366.466595 339.122191 
L 366.90101 338.326858 
L 367.010426 338.170631 
L 367.113672 338.014405 
L 367.567583 337.74456 
L 367.678357 337.545727 
L 367.812285 337.417905 
L 367.905095 337.346893 
L 368.138218 337.176465 
L 368.21637 337.062846 
L 368.37228 336.920822 
L 368.482669 336.764595 
L 368.610436 336.480548 
L 368.669557 336.381131 
L 369.139525 336.224905 
L 369.25853 335.926655 
L 369.452218 335.699417 
L 369.531618 335.585798 
L 369.656826 335.429571 
L 369.869176 335.216536 
L 370.355592 334.662643 
L 370.765101 334.463809 
L 371.297359 333.299214 
L 371.408296 333.043571 
L 371.579036 332.745321 
L 371.671635 332.589095 
L 371.787699 332.305047 
L 371.972369 332.20563 
L 372.384402 331.822166 
L 372.437882 331.708547 
L 372.625967 331.580725 
L 372.822242 331.154654 
L 373.664398 330.032665 
L 373.944151 329.876439 
L 374.076015 329.563987 
L 374.185529 329.308344 
L 374.30927 329.194725 
L 374.422283 329.038499 
L 374.526024 328.797058 
L 375.263893 328.115344 
L 375.434311 327.987522 
L 375.798692 327.37682 
L 375.965083 327.163784 
L 376.489213 326.212224 
L 376.984414 326.041796 
L 377.283684 325.516307 
L 377.455163 325.17545 
L 377.614111 324.791986 
L 378.225633 323.883033 
L 378.543943 323.741009 
L 380.056977 321.724271 
L 380.19252 321.568045 
L 381.17589 319.608116 
L 381.271782 319.437687 
L 381.793844 319.139437 
L 381.906805 319.04002 
L 382.155634 318.585544 
L 382.273836 318.415115 
L 382.44042 318.102663 
L 382.989086 317.094294 
L 383.350972 316.852853 
L 383.493405 316.583008 
L 383.626239 316.426782 
L 384.233503 315.432615 
L 384.328139 315.233781 
L 384.594849 315.077555 
L 384.943294 314.821912 
L 385.252831 314.253817 
L 385.382146 314.111793 
L 386.01331 313.430079 
L 386.482245 313.25965 
L 386.787884 312.748364 
L 386.899245 312.478519 
L 386.991093 312.322293 
L 387.202307 312.038245 
L 387.326344 311.924626 
L 387.486088 311.782602 
L 387.856388 311.626376 
L 388.139044 311.427542 
L 388.331001 311.11509 
L 388.419052 310.944661 
L 389.058475 310.049911 
L 389.6644 309.907887 
L 389.722143 309.765864 
L 389.837317 309.638042 
L 390.399585 308.743292 
L 390.50917 308.487649 
L 390.757053 308.260411 
L 391.170212 308.089982 
L 391.452534 307.734923 
L 392.244318 306.286279 
L 392.961631 305.803398 
L 393.106399 305.391529 
L 393.773308 304.525184 
L 393.850412 304.43997 
L 394.420779 304.198529 
L 394.487279 304.08491 
L 394.622705 303.942886 
L 395.427129 302.749886 
L 395.883508 302.59366 
L 396.181565 302.053969 
L 396.512773 301.627898 
L 396.626254 301.429064 
L 396.736366 301.187624 
L 396.885093 301.017195 
L 397.545414 300.278671 
L 397.712074 299.838397 
L 397.807016 299.667969 
L 397.919663 299.398123 
L 398.082858 299.170885 
L 398.153865 299.000457 
L 398.32982 298.759016 
L 398.459564 298.560183 
L 398.55312 298.446564 
L 398.829905 298.290337 
L 398.977943 298.219325 
L 399.082051 298.020492 
L 399.211118 297.537611 
L 399.368321 297.210956 
L 399.495511 297.012123 
L 399.574326 296.813289 
L 399.690795 296.529242 
L 399.965588 296.188384 
L 400.060783 296.10317 
L 400.591194 295.946944 
L 401.537947 294.384682 
L 401.636564 294.200051 
L 402.479776 293.376312 
L 402.573925 293.262693 
L 402.730439 293.106467 
L 403.262829 292.609384 
L 403.592148 292.453157 
L 403.917233 292.069693 
L 404.097784 291.785645 
L 404.273924 291.601014 
L 404.600629 291.189145 
L 405.328823 290.720467 
L 405.449381 290.493229 
L 405.775113 290.02455 
L 405.915851 289.825716 
L 406.094048 289.683693 
L 406.279482 289.484859 
L 406.446004 289.271823 
L 407.452162 288.845752 
L 407.562824 288.732133 
L 407.906788 288.47649 
L 408.722013 288.320264 
L 408.874922 288.164038 
L 409.097936 287.993609 
L 409.197401 287.837383 
L 409.364102 287.610145 
L 409.527082 287.340299 
L 409.603629 287.28349 
L 410.112408 287.127264 
L 410.366632 286.758002 
L 410.536714 286.431347 
L 410.651966 286.289323 
L 410.720973 286.104692 
L 410.814152 285.948466 
L 410.932424 285.778037 
L 411.057577 285.607608 
L 411.867429 285.011108 
L 412.037069 284.684453 
L 412.246028 284.428811 
L 412.349189 284.300989 
L 413.308356 283.448846 
L 413.462838 283.122191 
L 414.434941 282.000203 
L 414.767202 281.858179 
L 414.879408 281.659346 
L 414.990653 281.460512 
L 415.115777 281.290084 
L 415.540554 280.679381 
L 416.10322 280.409536 
L 416.458105 280.125488 
L 416.618421 279.841441 
L 416.886065 279.415369 
L 416.99952 279.188131 
L 417.105508 278.94669 
L 417.139961 278.889881 
L 417.365757 278.747857 
L 417.464346 278.662643 
L 417.92544 278.520619 
L 418.203045 278.236571 
L 418.465058 277.909916 
L 418.746761 277.668476 
L 418.929993 277.526452 
L 418.960823 277.384428 
L 419.483564 277.228202 
L 419.804446 276.929952 
L 420.022953 276.645904 
L 420.143675 276.404464 
L 420.447852 276.106214 
L 420.690317 275.807963 
L 421.2778 275.225666 
L 421.698748 274.586558 
L 421.875808 274.316713 
L 422.033667 274.160487 
L 422.175421 273.975856 
L 422.587916 273.81963 
L 422.702139 273.649201 
L 423.405984 272.853868 
L 423.524914 272.697641 
L 424.281732 272.328379 
L 424.381224 272.228963 
L 424.523501 272.030129 
L 424.703583 271.717677 
L 424.808611 271.433629 
L 424.992753 271.277403 
L 425.106305 271.07857 
L 425.408079 270.837129 
L 425.788634 270.6667 
L 426.755938 269.218057 
L 427.241607 268.976617 
L 427.400064 268.252295 
L 427.600256 268.081867 
L 427.820502 267.698402 
L 428.120136 267.32914 
L 428.763666 266.903069 
L 428.919909 266.775247 
L 429.019728 266.619021 
L 429.238355 266.420188 
L 429.39776 266.235557 
L 429.492711 266.036723 
L 429.737051 265.880497 
L 429.950041 265.752676 
L 430.017301 265.681664 
L 430.431604 265.525437 
L 430.760757 265.070961 
L 430.876836 264.900533 
L 430.996876 264.58808 
L 431.180308 264.332437 
L 431.390409 263.977378 
L 431.690058 263.63652 
L 432.048038 263.39508 
L 432.75314 262.273092 
L 432.942801 262.116865 
L 433.098043 261.918032 
L 433.647611 261.648187 
L 434.770844 260.284758 
L 435.287336 260.142734 
L 435.881612 259.688258 
L 435.908678 259.631448 
L 436.178465 259.503627 
L 436.331382 259.46102 
L 436.890337 259.120162 
L 436.994431 259.063353 
L 437.138896 258.921329 
L 437.347113 258.651484 
L 437.79156 258.253817 
L 437.822171 258.225412 
L 438.369024 258.054984 
L 438.556581 257.770936 
L 438.702585 257.600507 
L 439.307928 256.975602 
L 439.427635 256.819376 
L 439.948368 256.648948 
L 440.266395 256.279686 
L 440.48074 255.967233 
L 440.677697 255.754197 
L 441.317937 255.384935 
L 441.553081 255.257114 
L 441.646905 255.1719 
L 441.790084 255.029876 
L 441.979803 254.745828 
L 442.08358 254.618007 
L 442.282731 254.447578 
L 442.509035 254.064114 
L 443.13861 253.936292 
L 443.28414 253.680649 
L 443.547001 253.155161 
L 443.761734 252.942125 
L 444.291385 252.544459 
L 444.660091 252.388232 
L 444.959852 252.07578 
L 445.238016 251.876946 
L 445.392717 251.663911 
L 445.534841 251.47928 
L 446.458816 250.967994 
L 446.621821 250.712351 
L 446.778592 250.556125 
L 446.882833 250.485113 
L 446.984225 250.314684 
L 447.107032 250.201065 
L 447.514217 249.973827 
L 447.834618 249.831803 
L 448.57772 249.121684 
L 448.702707 248.97966 
L 448.798997 248.908648 
L 449.594044 248.38316 
L 449.764808 248.099112 
L 449.871917 247.957089 
L 450.00565 247.886077 
L 450.529221 247.403196 
L 450.975329 247.261172 
L 451.054074 247.13335 
L 451.218156 246.991326 
L 451.306654 246.906112 
L 451.445833 246.778291 
L 451.531642 246.693076 
L 451.643905 246.551052 
L 451.742315 246.423231 
L 451.997706 246.195993 
L 452.03992 246.139183 
L 452.536595 245.99716 
L 453.362712 244.832564 
L 453.495458 244.576921 
L 454.236905 244.250266 
L 454.375019 243.8526 
L 454.627708 243.611159 
L 454.917169 243.270302 
L 455.695538 242.759016 
L 455.782241 242.503373 
L 455.95351 242.361349 
L 456.104031 242.219325 
L 456.484865 241.906873 
L 456.614351 241.750647 
L 457.371164 241.338778 
L 457.477607 241.154147 
L 457.684325 240.941111 
L 457.800523 240.713873 
L 458.310318 240.117373 
L 459.054322 239.662896 
L 459.834897 238.924372 
L 460.422972 238.753944 
L 460.502604 238.597717 
L 460.619567 238.455694 
L 461.133406 237.916003 
L 461.724938 237.504134 
L 462.006493 237.305301 
L 462.142674 237.163277 
L 462.306405 236.950241 
L 462.411852 236.850824 
L 462.73772 236.438955 
L 462.880928 236.254324 
L 463.12879 236.055491 
L 463.63571 235.899265 
L 463.79979 235.686229 
L 463.906813 235.458991 
L 464.079897 235.288562 
L 464.241768 234.905098 
L 464.355551 234.720467 
L 464.444454 234.606848 
L 465.120653 234.3228 
L 465.213957 234.166574 
L 465.392034 234.038752 
L 466.160673 232.987776 
L 466.68962 232.83155 
L 466.780737 232.646919 
L 466.976658 232.462288 
L 467.065709 232.391276 
L 467.184447 232.249252 
L 467.40132 232.050418 
L 467.575114 231.851585 
L 467.729687 231.468121 
L 468.084312 231.340299 
L 468.537411 231.013644 
L 468.704269 230.871621 
L 469.091549 230.459751 
L 469.289101 230.189906 
L 469.92047 229.891656 
L 470.26201 229.664418 
L 470.7704 229.295156 
L 470.883983 229.110525 
L 471.479952 228.78387 
L 471.581519 228.712858 
L 472.198804 228.073751 
L 472.319341 227.960132 
L 473.238192 227.136394 
L 473.365255 226.923358 
L 473.641156 226.710322 
L 474.023786 226.312655 
L 474.570109 226.113822 
L 475.630218 224.793 
L 476.087699 224.622572 
L 477.140188 223.699417 
L 477.744938 223.514786 
L 477.847474 223.415369 
L 478.273335 223.088714 
L 479.42319 222.236571 
L 479.655512 222.023535 
L 479.726681 221.924119 
L 479.957757 221.767892 
L 480.11773 221.569059 
L 480.24969 221.427035 
L 480.299633 221.299214 
L 480.821042 221.15719 
L 480.925337 221.043571 
L 481.09671 220.844738 
L 481.199371 220.645904 
L 481.557741 220.418666 
L 481.73251 220.290845 
L 482.117096 220.148821 
L 482.479071 220.020999 
L 482.819712 219.594928 
L 482.993703 219.339285 
L 483.094565 219.225666 
L 483.432243 218.899011 
L 483.4514 218.856404 
L 484.029255 218.671773 
L 484.31628 218.259904 
L 484.634384 217.947451 
L 485.00715 217.436165 
L 485.079538 217.308344 
L 485.552502 217.16632 
L 485.831267 216.953284 
L 486.041922 216.81126 
L 486.559006 216.470403 
L 487.152403 216.27157 
L 487.261723 215.987522 
L 488.253657 215.106974 
L 488.905752 214.936546 
L 489.807084 214.396855 
L 490.6206 214.240629 
L 491.076688 213.729343 
L 491.328136 213.544712 
L 491.888888 213.317474 
L 492.234704 213.061831 
L 492.400646 212.891402 
L 492.524879 212.763581 
L 493.21308 212.408521 
L 493.524339 212.2807 
L 494.705094 211.215521 
L 495.020322 211.0877 
L 495.081129 211.002485 
L 495.265597 210.860462 
L 495.423523 210.704235 
L 495.676698 210.43439 
L 495.794397 210.320771 
L 496.538683 209.795283 
L 496.715683 209.411818 
L 496.847622 209.227187 
L 496.957977 209.028354 
L 497.269098 208.64489 
L 497.438338 208.531271 
L 497.969703 208.28983 
L 498.20737 208.162009 
L 498.382659 208.019985 
L 498.677411 207.579711 
L 499.099953 207.366675 
L 499.251289 207.281461 
L 499.542386 207.125235 
L 499.910767 206.983211 
L 500.127201 206.74177 
L 500.93892 206.159472 
L 501.341064 206.017449 
L 501.452212 205.90383 
L 501.587168 205.676591 
L 501.687143 205.60558 
L 502.010072 205.307329 
L 502.12832 205.080091 
L 502.27403 204.881258 
L 502.322743 204.810246 
L 502.817084 204.65402 
L 503.211751 204.114329 
L 503.474528 203.972305 
L 503.625965 203.730865 
L 503.854706 203.46102 
L 503.90699 203.40421 
L 504.453791 203.233781 
L 504.571646 202.978138 
L 504.752015 202.651484 
L 505.397875 201.657317 
L 505.488474 201.501091 
L 506.253657 201.160233 
L 506.315016 201.004007 
L 506.561491 200.847781 
L 506.947659 200.492721 
L 507.03981 200.350697 
L 507.661353 200.180269 
L 508.95837 199.129292 
L 509.207951 198.987269 
L 510.164517 197.86528 
L 510.707755 197.680649 
L 510.816434 197.496018 
L 510.936451 197.353994 
L 511.143233 197.140959 
L 511.312369 196.956328 
L 511.462477 196.785899 
L 511.619719 196.643875 
L 512.303346 196.359828 
L 512.778604 195.862744 
L 513.49389 195.294649 
L 513.853259 195.166827 
L 513.988647 194.996399 
L 514.172373 194.868577 
L 514.440659 194.343089 
L 514.622172 194.186863 
L 514.887883 193.902815 
L 515.541018 193.732387 
L 515.653167 193.675577 
L 515.856714 193.419934 
L 515.983813 193.306315 
L 516.149052 193.121684 
L 516.256205 192.880243 
L 516.372532 192.73822 
L 516.472187 192.638803 
L 516.936961 192.496779 
L 517.12754 192.32635 
L 517.384682 192.042303 
L 517.784647 191.78666 
L 517.920843 191.701446 
L 518.687776 191.161755 
L 518.904369 191.019731 
L 519.085887 190.820898 
L 519.241139 190.579457 
L 519.842973 190.053969 
L 520.347932 189.897743 
L 520.671785 189.58529 
L 520.6916 189.528481 
L 520.913295 189.400659 
L 522.169604 188.349683 
L 522.267251 188.278671 
L 522.633309 187.952016 
L 522.745505 187.809992 
L 523.24828 187.639564 
L 523.94146 187.114076 
L 524.187954 186.858433 
L 524.326467 186.631195 
L 524.499936 186.588587 
L 524.902496 186.418159 
L 525.450135 185.821659 
L 525.80155 185.65123 
L 526.480186 185.281968 
L 526.595056 185.196754 
L 526.759513 184.983718 
L 526.960555 184.799087 
L 527.108996 184.586051 
L 527.249767 184.330408 
L 528.043166 183.932742 
L 528.239012 183.790718 
L 528.338157 183.748111 
L 528.759194 183.393051 
L 528.980595 183.180015 
L 529.209403 183.109003 
L 529.915259 182.711337 
L 530.682824 181.887598 
L 531.215443 181.702967 
L 531.367297 181.433122 
L 531.63843 181.234289 
L 531.726236 181.078062 
L 531.844258 180.936039 
L 532.369049 180.666193 
L 532.773443 180.524169 
L 533.789868 179.416383 
L 534.338131 179.174943 
L 534.628813 178.748871 
L 534.802846 178.592645 
L 535.013789 178.337002 
L 535.121925 178.123967 
L 535.33715 177.839919 
L 535.864193 177.641085 
L 536.105105 177.385443 
L 536.506102 176.945169 
L 536.601224 176.817347 
L 536.744625 176.661121 
L 536.991361 176.47649 
L 537.515355 176.348669 
L 537.597718 176.291859 
L 537.804565 176.135633 
L 537.956995 175.936799 
L 538.406989 175.553335 
L 538.495939 175.453918 
L 539.166219 175.169871 
L 539.635794 174.218311 
L 539.732721 173.962668 
L 540.010932 173.67862 
L 540.057406 173.621811 
L 540.693362 173.408775 
L 541.065402 172.954299 
L 542.484589 172.031144 
L 542.631186 171.88912 
L 543.226281 171.221608 
L 543.77678 171.065382 
L 543.920886 170.923358 
L 544.544099 170.241643 
L 544.787531 169.929191 
L 545.601947 169.673548 
L 545.789208 169.417905 
L 546.085762 169.09125 
L 546.199839 168.949226 
L 546.311725 168.736191 
L 546.575169 168.594167 
L 547.126651 168.239107 
L 547.229295 168.040274 
L 547.403814 167.89825 
L 547.778668 167.429571 
L 548.607898 167.117119 
L 549.477295 166.05194 
L 549.980372 165.881512 
L 550.090846 165.767892 
L 550.358157 165.45544 
L 550.424904 165.356023 
L 550.58508 165.213999 
L 550.761042 164.631702 
L 551.010038 164.376059 
L 551.106242 164.276642 
L 551.601336 164.120416 
L 551.722019 163.935785 
L 551.945207 163.793761 
L 551.960671 163.736952 
L 552.11189 163.60913 
L 552.716962 162.95582 
L 553.269763 162.771189 
L 553.93622 161.975856 
L 554.103566 161.848034 
L 554.621631 161.549784 
L 554.762995 161.421963 
L 554.910148 161.208927 
L 555.057338 161.024296 
L 555.29468 160.853868 
L 555.610917 160.626629 
L 555.941271 160.413594 
L 556.360828 160.27157 
L 556.777516 159.91651 
L 557.314868 159.192189 
L 557.960778 158.865534 
L 558.077359 158.751915 
L 558.395331 158.482069 
L 558.584098 158.340046 
L 559.624615 157.729343 
L 559.752707 157.502105 
L 560.784103 156.422724 
L 561.104686 156.2807 
L 561.495616 155.996652 
L 561.871838 155.471164 
L 561.976601 155.300735 
L 562.364711 155.059295 
L 562.66467 154.846259 
L 562.892253 154.690033 
L 563.123595 154.619021 
L 563.281113 154.462795 
L 563.448235 154.334973 
L 563.589929 154.19295 
L 563.710248 154.107735 
L 564.242149 153.937307 
L 564.631643 153.624854 
L 564.744591 153.383414 
L 565.415973 153.070961 
L 565.826141 152.94314 
L 565.926859 152.786914 
L 566.209143 152.602283 
L 566.504673 152.119401 
L 566.656984 151.93477 
L 566.843539 151.792747 
L 567.371362 151.508699 
L 568.021345 150.727568 
L 568.280208 150.557139 
L 568.426504 150.457723 
L 568.886347 150.301496 
L 569.041643 150.14527 
L 569.17429 149.989044 
L 569.311584 149.832818 
L 569.650492 149.278925 
L 569.756909 149.151103 
L 570.110278 148.867056 
L 570.430523 148.725032 
L 571.796395 147.929698 
L 572.243893 147.787674 
L 572.48378 147.688258 
L 572.763591 147.546234 
L 572.904273 147.432615 
L 573.943771 146.736698 
L 574.023902 146.637281 
L 574.180041 146.466853 
L 574.342979 146.225412 
L 574.64893 145.955567 
L 575.210054 145.714126 
L 575.502717 145.31646 
L 575.624211 145.174436 
L 575.81815 144.9614 
L 575.991585 144.805174 
L 576.597508 144.407507 
L 576.864985 144.265483 
L 577.350152 143.896221 
L 577.483826 143.754197 
L 578.91153 143.11509 
L 579.075331 142.987269 
L 579.981787 142.618007 
L 580.101167 142.46178 
L 580.291285 142.262947 
L 580.510018 142.064114 
L 580.621934 141.92209 
L 580.717042 141.851078 
L 581.505984 141.609637 
L 581.852609 141.282983 
L 581.958508 141.112554 
L 582.190838 140.927923 
L 582.398427 140.800101 
L 582.678965 140.587066 
L 583.084181 140.402435 
L 583.314544 140.203601 
L 583.573527 139.834339 
L 583.69531 139.72072 
L 584.72488 139.209434 
L 584.832926 139.12422 
L 584.995744 138.982196 
L 585.074793 138.854375 
L 585.425524 138.655541 
L 585.640312 138.485113 
L 586.504317 138.087446 
L 586.629653 137.945422 
L 586.936301 137.675577 
L 587.441078 137.107482 
L 587.840494 136.951255 
L 588.017552 136.809232 
L 588.172508 136.667208 
L 588.491754 136.297946 
L 588.777265 136.042303 
L 589.303036 135.900279 
L 589.414041 135.829267 
L 590.103468 135.303779 
L 590.325293 135.019731 
L 590.531227 134.89191 
L 590.969138 134.735683 
L 591.668502 133.954552 
L 591.781257 133.812529 
L 592.972483 133.059802 
L 593.32477 132.662135 
L 594.135665 132.207659 
L 594.214415 132.09404 
L 594.438903 131.952016 
L 594.858527 131.511742 
L 595.111937 131.369718 
L 595.453134 131.227695 
L 595.741095 131.071468 
L 598.23444 129.324575 
L 598.363258 129.267766 
L 598.831944 129.068932 
L 599.931312 128.245194 
L 600.430997 128.060563 
L 600.695902 127.748111 
L 600.877901 127.620289 
L 601.062126 127.464063 
L 601.581322 126.867563 
L 602.131999 126.498301 
L 602.445227 126.200051 
L 602.600261 126.029622 
L 602.942248 125.646158 
L 603.731723 125.347908 
L 603.869362 125.106467 
L 606.301167 123.686229 
L 606.717429 123.558407 
L 606.838278 123.387979 
L 606.926749 123.245955 
L 607.115172 123.047121 
L 607.359068 122.834086 
L 607.506549 122.706264 
L 607.741132 122.493229 
L 607.81572 122.450621 
L 608.196002 122.26599 
L 608.391273 122.010347 
L 608.571657 121.825716 
L 608.717544 121.7263 
L 609.262262 121.172407 
L 609.357615 121.016181 
L 609.746849 120.930966 
L 609.944476 120.788942 
L 610.051897 120.646919 
L 610.695498 120.064621 
L 610.821585 119.808978 
L 611.108826 119.723764 
L 611.404202 119.58174 
L 611.715835 119.269287 
L 612.049607 119.070454 
L 612.550371 118.715394 
L 612.910284 118.573371 
L 613.042485 118.459751 
L 613.576805 117.806442 
L 613.802232 117.650216 
L 614.036136 117.522394 
L 615.052015 116.84068 
L 615.169894 116.741263 
L 615.417795 116.570834 
L 615.515237 116.48562 
L 616.145646 116.229977 
L 616.244199 116.087953 
L 616.407787 115.945929 
L 616.644012 115.704489 
L 617.062854 115.448846 
L 617.19252 115.363632 
L 617.843746 115.122191 
L 617.979763 114.923358 
L 618.18869 114.738727 
L 618.303545 114.454679 
L 618.425197 114.355262 
L 618.676856 114.071215 
L 619.367953 113.900786 
L 619.48914 113.787167 
L 619.79901 113.531524 
L 620.066669 113.275881 
L 621.529453 112.338524 
L 621.593261 112.1965 
L 621.796691 112.068679 
L 622.337838 111.770429 
L 622.636364 111.6 
L 622.636364 111.6 
" style="fill:none;stroke:#92c6ff;stroke-linecap:round;stroke-width:1.5;"/>
   </g>
   <g id="line2d_30">
    <defs>
     <path d="M 0 2.5 
C 0.663008 2.5 1.29895 2.236584 1.767767 1.767767 
C 2.236584 1.29895 2.5 0.663008 2.5 0 
C 2.5 -0.663008 2.236584 -1.29895 1.767767 -1.767767 
C 1.29895 -2.236584 0.663008 -2.5 0 -2.5 
C -0.663008 -2.5 -1.29895 -2.236584 -1.767767 -1.767767 
C -2.236584 -1.29895 -2.5 -0.663008 -2.5 0 
C -2.5 0.663008 -2.236584 1.29895 -1.767767 1.767767 
C -1.29895 2.236584 -0.663008 2.5 0 2.5 
z
" id="m13d515513f" style="stroke:#696969;"/>
    </defs>
    <g clip-path="url(#p3a6c35823e)">
     <use style="fill:#696969;stroke:#696969;" x="115.363636" xlink:href="#m13d515513f" y="615.6"/>
    </g>
   </g>
   <g id="line2d_31">
    <g clip-path="url(#p3a6c35823e)">
     <use style="fill:#696969;stroke:#696969;" x="199.792625" xlink:href="#m13d515513f" y="565.195739"/>
    </g>
   </g>
   <g id="line2d_32">
    <g clip-path="url(#p3a6c35823e)">
     <use style="fill:#696969;stroke:#696969;" x="245.284974" xlink:href="#m13d515513f" y="514.791479"/>
    </g>
   </g>
   <g id="line2d_33">
    <g clip-path="url(#p3a6c35823e)">
     <use style="fill:#696969;stroke:#696969;" x="281.054413" xlink:href="#m13d515513f" y="464.387218"/>
    </g>
   </g>
   <g id="line2d_34">
    <g clip-path="url(#p3a6c35823e)">
     <use style="fill:#696969;stroke:#696969;" x="309.307445" xlink:href="#m13d515513f" y="413.982957"/>
    </g>
   </g>
   <g id="line2d_35">
    <g clip-path="url(#p3a6c35823e)">
     <use style="fill:#696969;stroke:#696969;" x="344.598997" xlink:href="#m13d515513f" y="363.578696"/>
    </g>
   </g>
   <g id="line2d_36">
    <g clip-path="url(#p3a6c35823e)">
     <use style="fill:#696969;stroke:#696969;" x="386.519782" xlink:href="#m13d515513f" y="313.174436"/>
    </g>
   </g>
   <g id="line2d_37">
    <g clip-path="url(#p3a6c35823e)">
     <use style="fill:#696969;stroke:#696969;" x="432.486008" xlink:href="#m13d515513f" y="262.770175"/>
    </g>
   </g>
   <g id="line2d_38">
    <g clip-path="url(#p3a6c35823e)">
     <use style="fill:#696969;stroke:#696969;" x="493.419821" xlink:href="#m13d515513f" y="212.365914"/>
    </g>
   </g>
   <g id="line2d_39">
    <g clip-path="url(#p3a6c35823e)">
     <use style="fill:#696969;stroke:#696969;" x="553.93622" xlink:href="#m13d515513f" y="161.975856"/>
    </g>
   </g>
   <g id="line2d_40">
    <g clip-path="url(#p3a6c35823e)">
     <use style="fill:#696969;stroke:#696969;" x="622.636364" xlink:href="#m13d515513f" y="111.6"/>
    </g>
   </g>
   <g id="patch_3">
    <path d="M 90 640.8 
L 90 86.4 
" style="fill:none;stroke:#cccccc;stroke-linecap:square;stroke-linejoin:miter;"/>
   </g>
   <g id="patch_4">
    <path d="M 648 640.8 
L 648 86.4 
" style="fill:none;stroke:#cccccc;stroke-linecap:square;stroke-linejoin:miter;"/>
   </g>
   <g id="patch_5">
    <path d="M 90 640.8 
L 648 640.8 
" style="fill:none;stroke:#cccccc;stroke-linecap:square;stroke-linejoin:miter;"/>
   </g>
   <g id="patch_6">
    <path d="M 90 86.4 
L 648 86.4 
" style="fill:none;stroke:#cccccc;stroke-linecap:square;stroke-linejoin:miter;"/>
   </g>
   <g id="text_15">
    <!-- 1 (2014-06-06) -->
    <g style="fill:#262626;" transform="translate(120.363636 623.198437)scale(0.1 -0.1)">
     <defs>
      <path id="DejaVuSans-32"/>
      <path d="M 31 75.875 
Q 24.46875 64.65625 21.28125 53.65625 
Q 18.109375 42.671875 18.109375 31.390625 
Q 18.109375 20.125 21.3125 9.0625 
Q 24.515625 -2 31 -13.1875 
L 23.1875 -13.1875 
Q 15.875 -1.703125 12.234375 9.375 
Q 8.59375 20.453125 8.59375 31.390625 
Q 8.59375 42.28125 12.203125 53.3125 
Q 15.828125 64.359375 23.1875 75.875 
z
" id="DejaVuSans-40"/>
      <path d="M 37.796875 64.3125 
L 12.890625 25.390625 
L 37.796875 25.390625 
z
M 35.203125 72.90625 
L 47.609375 72.90625 
L 47.609375 25.390625 
L 58.015625 25.390625 
L 58.015625 17.1875 
L 47.609375 17.1875 
L 47.609375 0 
L 37.796875 0 
L 37.796875 17.1875 
L 4.890625 17.1875 
L 4.890625 26.703125 
z
" id="DejaVuSans-52"/>
      <path d="M 4.890625 31.390625 
L 31.203125 31.390625 
L 31.203125 23.390625 
L 4.890625 23.390625 
z
" id="DejaVuSans-45"/>
      <path d="M 8.015625 75.875 
L 15.828125 75.875 
Q 23.140625 64.359375 26.78125 53.3125 
Q 30.421875 42.28125 30.421875 31.390625 
Q 30.421875 20.453125 26.78125 9.375 
Q 23.140625 -1.703125 15.828125 -13.1875 
L 8.015625 -13.1875 
Q 14.5 -2 17.703125 9.0625 
Q 20.90625 20.125 20.90625 31.390625 
Q 20.90625 42.671875 17.703125 53.65625 
Q 14.5 64.65625 8.015625 75.875 
z
" id="DejaVuSans-41"/>
     </defs>
     <use xlink:href="#DejaVuSans-49"/>
     <use x="63.623047" xlink:href="#DejaVuSans-32"/>
     <use x="95.410156" xlink:href="#DejaVuSans-40"/>
     <use x="134.423828" xlink:href="#DejaVuSans-50"/>
     <use x="198.046875" xlink:href="#DejaVuSans-48"/>
     <use x="261.669922" xlink:href="#DejaVuSans-49"/>
     <use x="325.292969" xlink:href="#DejaVuSans-52"/>
     <use x="388.916016" xlink:href="#DejaVuSans-45"/>
     <use x="425" xlink:href="#DejaVuSans-48"/>
     <use x="488.623047" xlink:href="#DejaVuSans-54"/>
     <use x="552.246094" xlink:href="#DejaVuSans-45"/>
     <use x="588.330078" xlink:href="#DejaVuSans-48"/>
     <use x="651.953125" xlink:href="#DejaVuSans-54"/>
     <use x="715.576172" xlink:href="#DejaVuSans-41"/>
    </g>
   </g>
   <g id="text_16">
    <!-- 3550 (2015-06-17) -->
    <g style="fill:#262626;" transform="translate(204.792625 572.794177)scale(0.1 -0.1)">
     <use xlink:href="#DejaVuSans-51"/>
     <use x="63.623047" xlink:href="#DejaVuSans-53"/>
     <use x="127.246094" xlink:href="#DejaVuSans-53"/>
     <use x="190.869141" xlink:href="#DejaVuSans-48"/>
     <use x="254.492188" xlink:href="#DejaVuSans-32"/>
     <use x="286.279297" xlink:href="#DejaVuSans-40"/>
     <use x="325.292969" xlink:href="#DejaVuSans-50"/>
     <use x="388.916016" xlink:href="#DejaVuSans-48"/>
     <use x="452.539062" xlink:href="#DejaVuSans-49"/>
     <use x="516.162109" xlink:href="#DejaVuSans-53"/>
     <use x="579.785156" xlink:href="#DejaVuSans-45"/>
     <use x="615.869141" xlink:href="#DejaVuSans-48"/>
     <use x="679.492188" xlink:href="#DejaVuSans-54"/>
     <use x="743.115234" xlink:href="#DejaVuSans-45"/>
     <use x="779.199219" xlink:href="#DejaVuSans-49"/>
     <use x="842.822266" xlink:href="#DejaVuSans-55"/>
     <use x="906.445312" xlink:href="#DejaVuSans-41"/>
    </g>
   </g>
   <g id="text_17">
    <!-- 7099 (2016-01-06) -->
    <g style="fill:#262626;" transform="translate(250.284974 522.389916)scale(0.1 -0.1)">
     <use xlink:href="#DejaVuSans-55"/>
     <use x="63.623047" xlink:href="#DejaVuSans-48"/>
     <use x="127.246094" xlink:href="#DejaVuSans-57"/>
     <use x="190.869141" xlink:href="#DejaVuSans-57"/>
     <use x="254.492188" xlink:href="#DejaVuSans-32"/>
     <use x="286.279297" xlink:href="#DejaVuSans-40"/>
     <use x="325.292969" xlink:href="#DejaVuSans-50"/>
     <use x="388.916016" xlink:href="#DejaVuSans-48"/>
     <use x="452.539062" xlink:href="#DejaVuSans-49"/>
     <use x="516.162109" xlink:href="#DejaVuSans-54"/>
     <use x="579.785156" xlink:href="#DejaVuSans-45"/>
     <use x="615.869141" xlink:href="#DejaVuSans-48"/>
     <use x="679.492188" xlink:href="#DejaVuSans-49"/>
     <use x="743.115234" xlink:href="#DejaVuSans-45"/>
     <use x="779.199219" xlink:href="#DejaVuSans-48"/>
     <use x="842.822266" xlink:href="#DejaVuSans-54"/>
     <use x="906.445312" xlink:href="#DejaVuSans-41"/>
    </g>
   </g>
   <g id="text_18">
    <!-- 10648 (2016-06-13) -->
    <g style="fill:#262626;" transform="translate(286.054413 471.985655)scale(0.1 -0.1)">
     <use xlink:href="#DejaVuSans-49"/>
     <use x="63.623047" xlink:href="#DejaVuSans-48"/>
     <use x="127.246094" xlink:href="#DejaVuSans-54"/>
     <use x="190.869141" xlink:href="#DejaVuSans-52"/>
     <use x="254.492188" xlink:href="#DejaVuSans-56"/>
     <use x="318.115234" xlink:href="#DejaVuSans-32"/>
     <use x="349.902344" xlink:href="#DejaVuSans-40"/>
     <use x="388.916016" xlink:href="#DejaVuSans-50"/>
     <use x="452.539062" xlink:href="#DejaVuSans-48"/>
     <use x="516.162109" xlink:href="#DejaVuSans-49"/>
     <use x="579.785156" xlink:href="#DejaVuSans-54"/>
     <use x="643.408203" xlink:href="#DejaVuSans-45"/>
     <use x="679.492188" xlink:href="#DejaVuSans-48"/>
     <use x="743.115234" xlink:href="#DejaVuSans-54"/>
     <use x="806.738281" xlink:href="#DejaVuSans-45"/>
     <use x="842.822266" xlink:href="#DejaVuSans-49"/>
     <use x="906.445312" xlink:href="#DejaVuSans-51"/>
     <use x="970.068359" xlink:href="#DejaVuSans-41"/>
    </g>
   </g>
   <g id="text_19">
    <!-- 14197 (2016-10-17) -->
    <g style="fill:#262626;" transform="translate(314.307445 421.581395)scale(0.1 -0.1)">
     <use xlink:href="#DejaVuSans-49"/>
     <use x="63.623047" xlink:href="#DejaVuSans-52"/>
     <use x="127.246094" xlink:href="#DejaVuSans-49"/>
     <use x="190.869141" xlink:href="#DejaVuSans-57"/>
     <use x="254.492188" xlink:href="#DejaVuSans-55"/>
     <use x="318.115234" xlink:href="#DejaVuSans-32"/>
     <use x="349.902344" xlink:href="#DejaVuSans-40"/>
     <use x="388.916016" xlink:href="#DejaVuSans-50"/>
     <use x="452.539062" xlink:href="#DejaVuSans-48"/>
     <use x="516.162109" xlink:href="#DejaVuSans-49"/>
     <use x="579.785156" xlink:href="#DejaVuSans-54"/>
     <use x="643.408203" xlink:href="#DejaVuSans-45"/>
     <use x="679.492188" xlink:href="#DejaVuSans-49"/>
     <use x="743.115234" xlink:href="#DejaVuSans-48"/>
     <use x="806.738281" xlink:href="#DejaVuSans-45"/>
     <use x="842.822266" xlink:href="#DejaVuSans-49"/>
     <use x="906.445312" xlink:href="#DejaVuSans-55"/>
     <use x="970.068359" xlink:href="#DejaVuSans-41"/>
    </g>
   </g>
   <g id="text_20">
    <!-- 17746 (2017-03-23) -->
    <g style="fill:#262626;" transform="translate(349.598997 371.177134)scale(0.1 -0.1)">
     <use xlink:href="#DejaVuSans-49"/>
     <use x="63.623047" xlink:href="#DejaVuSans-55"/>
     <use x="127.246094" xlink:href="#DejaVuSans-55"/>
     <use x="190.869141" xlink:href="#DejaVuSans-52"/>
     <use x="254.492188" xlink:href="#DejaVuSans-54"/>
     <use x="318.115234" xlink:href="#DejaVuSans-32"/>
     <use x="349.902344" xlink:href="#DejaVuSans-40"/>
     <use x="388.916016" xlink:href="#DejaVuSans-50"/>
     <use x="452.539062" xlink:href="#DejaVuSans-48"/>
     <use x="516.162109" xlink:href="#DejaVuSans-49"/>
     <use x="579.785156" xlink:href="#DejaVuSans-55"/>
     <use x="643.408203" xlink:href="#DejaVuSans-45"/>
     <use x="679.492188" xlink:href="#DejaVuSans-48"/>
     <use x="743.115234" xlink:href="#DejaVuSans-51"/>
     <use x="806.738281" xlink:href="#DejaVuSans-45"/>
     <use x="842.822266" xlink:href="#DejaVuSans-50"/>
     <use x="906.445312" xlink:href="#DejaVuSans-51"/>
     <use x="970.068359" xlink:href="#DejaVuSans-41"/>
    </g>
   </g>
   <g id="text_21">
    <!-- 21295 (2017-09-25) -->
    <g style="fill:#262626;" transform="translate(391.519782 320.772873)scale(0.1 -0.1)">
     <use xlink:href="#DejaVuSans-50"/>
     <use x="63.623047" xlink:href="#DejaVuSans-49"/>
     <use x="127.246094" xlink:href="#DejaVuSans-50"/>
     <use x="190.869141" xlink:href="#DejaVuSans-57"/>
     <use x="254.492188" xlink:href="#DejaVuSans-53"/>
     <use x="318.115234" xlink:href="#DejaVuSans-32"/>
     <use x="349.902344" xlink:href="#DejaVuSans-40"/>
     <use x="388.916016" xlink:href="#DejaVuSans-50"/>
     <use x="452.539062" xlink:href="#DejaVuSans-48"/>
     <use x="516.162109" xlink:href="#DejaVuSans-49"/>
     <use x="579.785156" xlink:href="#DejaVuSans-55"/>
     <use x="643.408203" xlink:href="#DejaVuSans-45"/>
     <use x="679.492188" xlink:href="#DejaVuSans-48"/>
     <use x="743.115234" xlink:href="#DejaVuSans-57"/>
     <use x="806.738281" xlink:href="#DejaVuSans-45"/>
     <use x="842.822266" xlink:href="#DejaVuSans-50"/>
     <use x="906.445312" xlink:href="#DejaVuSans-53"/>
     <use x="970.068359" xlink:href="#DejaVuSans-41"/>
    </g>
   </g>
   <g id="text_22">
    <!-- 24844 (2018-04-18) -->
    <g style="fill:#262626;" transform="translate(437.486008 270.368612)scale(0.1 -0.1)">
     <use xlink:href="#DejaVuSans-50"/>
     <use x="63.623047" xlink:href="#DejaVuSans-52"/>
     <use x="127.246094" xlink:href="#DejaVuSans-56"/>
     <use x="190.869141" xlink:href="#DejaVuSans-52"/>
     <use x="254.492188" xlink:href="#DejaVuSans-52"/>
     <use x="318.115234" xlink:href="#DejaVuSans-32"/>
     <use x="349.902344" xlink:href="#DejaVuSans-40"/>
     <use x="388.916016" xlink:href="#DejaVuSans-50"/>
     <use x="452.539062" xlink:href="#DejaVuSans-48"/>
     <use x="516.162109" xlink:href="#DejaVuSans-49"/>
     <use x="579.785156" xlink:href="#DejaVuSans-56"/>
     <use x="643.408203" xlink:href="#DejaVuSans-45"/>
     <use x="679.492188" xlink:href="#DejaVuSans-48"/>
     <use x="743.115234" xlink:href="#DejaVuSans-52"/>
     <use x="806.738281" xlink:href="#DejaVuSans-45"/>
     <use x="842.822266" xlink:href="#DejaVuSans-49"/>
     <use x="906.445312" xlink:href="#DejaVuSans-56"/>
     <use x="970.068359" xlink:href="#DejaVuSans-41"/>
    </g>
   </g>
   <g id="text_23">
    <!-- 28393 (2019-01-14) -->
    <g style="fill:#262626;" transform="translate(498.419821 219.964352)scale(0.1 -0.1)">
     <use xlink:href="#DejaVuSans-50"/>
     <use x="63.623047" xlink:href="#DejaVuSans-56"/>
     <use x="127.246094" xlink:href="#DejaVuSans-51"/>
     <use x="190.869141" xlink:href="#DejaVuSans-57"/>
     <use x="254.492188" xlink:href="#DejaVuSans-51"/>
     <use x="318.115234" xlink:href="#DejaVuSans-32"/>
     <use x="349.902344" xlink:href="#DejaVuSans-40"/>
     <use x="388.916016" xlink:href="#DejaVuSans-50"/>
     <use x="452.539062" xlink:href="#DejaVuSans-48"/>
     <use x="516.162109" xlink:href="#DejaVuSans-49"/>
     <use x="579.785156" xlink:href="#DejaVuSans-57"/>
     <use x="643.408203" xlink:href="#DejaVuSans-45"/>
     <use x="679.492188" xlink:href="#DejaVuSans-48"/>
     <use x="743.115234" xlink:href="#DejaVuSans-49"/>
     <use x="806.738281" xlink:href="#DejaVuSans-45"/>
     <use x="842.822266" xlink:href="#DejaVuSans-49"/>
     <use x="906.445312" xlink:href="#DejaVuSans-52"/>
     <use x="970.068359" xlink:href="#DejaVuSans-41"/>
    </g>
   </g>
   <g id="text_24">
    <!-- 31941 (2019-10-10) -->
    <g style="fill:#262626;" transform="translate(558.93622 169.574293)scale(0.1 -0.1)">
     <use xlink:href="#DejaVuSans-51"/>
     <use x="63.623047" xlink:href="#DejaVuSans-49"/>
     <use x="127.246094" xlink:href="#DejaVuSans-57"/>
     <use x="190.869141" xlink:href="#DejaVuSans-52"/>
     <use x="254.492188" xlink:href="#DejaVuSans-49"/>
     <use x="318.115234" xlink:href="#DejaVuSans-32"/>
     <use x="349.902344" xlink:href="#DejaVuSans-40"/>
     <use x="388.916016" xlink:href="#DejaVuSans-50"/>
     <use x="452.539062" xlink:href="#DejaVuSans-48"/>
     <use x="516.162109" xlink:href="#DejaVuSans-49"/>
     <use x="579.785156" xlink:href="#DejaVuSans-57"/>
     <use x="643.408203" xlink:href="#DejaVuSans-45"/>
     <use x="679.492188" xlink:href="#DejaVuSans-49"/>
     <use x="743.115234" xlink:href="#DejaVuSans-48"/>
     <use x="806.738281" xlink:href="#DejaVuSans-45"/>
     <use x="842.822266" xlink:href="#DejaVuSans-49"/>
     <use x="906.445312" xlink:href="#DejaVuSans-48"/>
     <use x="970.068359" xlink:href="#DejaVuSans-41"/>
    </g>
   </g>
   <g id="text_25">
    <!-- 35488 (2020-08-11) -->
    <g style="fill:#262626;" transform="translate(627.636364 119.198437)scale(0.1 -0.1)">
     <use xlink:href="#DejaVuSans-51"/>
     <use x="63.623047" xlink:href="#DejaVuSans-53"/>
     <use x="127.246094" xlink:href="#DejaVuSans-52"/>
     <use x="190.869141" xlink:href="#DejaVuSans-56"/>
     <use x="254.492188" xlink:href="#DejaVuSans-56"/>
     <use x="318.115234" xlink:href="#DejaVuSans-32"/>
     <use x="349.902344" xlink:href="#DejaVuSans-40"/>
     <use x="388.916016" xlink:href="#DejaVuSans-50"/>
     <use x="452.539062" xlink:href="#DejaVuSans-48"/>
     <use x="516.162109" xlink:href="#DejaVuSans-50"/>
     <use x="579.785156" xlink:href="#DejaVuSans-48"/>
     <use x="643.408203" xlink:href="#DejaVuSans-45"/>
     <use x="679.492188" xlink:href="#DejaVuSans-48"/>
     <use x="743.115234" xlink:href="#DejaVuSans-56"/>
     <use x="806.738281" xlink:href="#DejaVuSans-45"/>
     <use x="842.822266" xlink:href="#DejaVuSans-49"/>
     <use x="906.445312" xlink:href="#DejaVuSans-49"/>
     <use x="970.068359" xlink:href="#DejaVuSans-41"/>
    </g>
   </g>
   <g id="text_26">
    <!-- Created issues over time -->
    <g style="fill:#262626;" transform="translate(294.061875 80.4)scale(0.12 -0.12)">
     <defs>
      <path d="M 64.40625 67.28125 
L 64.40625 56.890625 
Q 59.421875 61.53125 53.78125 63.8125 
Q 48.140625 66.109375 41.796875 66.109375 
Q 29.296875 66.109375 22.65625 58.46875 
Q 16.015625 50.828125 16.015625 36.375 
Q 16.015625 21.96875 22.65625 14.328125 
Q 29.296875 6.6875 41.796875 6.6875 
Q 48.140625 6.6875 53.78125 8.984375 
Q 59.421875 11.28125 64.40625 15.921875 
L 64.40625 5.609375 
Q 59.234375 2.09375 53.4375 0.328125 
Q 47.65625 -1.421875 41.21875 -1.421875 
Q 24.65625 -1.421875 15.125 8.703125 
Q 5.609375 18.84375 5.609375 36.375 
Q 5.609375 53.953125 15.125 64.078125 
Q 24.65625 74.21875 41.21875 74.21875 
Q 47.75 74.21875 53.53125 72.484375 
Q 59.328125 70.75 64.40625 67.28125 
z
" id="DejaVuSans-67"/>
      <path d="M 41.109375 46.296875 
Q 39.59375 47.171875 37.8125 47.578125 
Q 36.03125 48 33.890625 48 
Q 26.265625 48 22.1875 43.046875 
Q 18.109375 38.09375 18.109375 28.8125 
L 18.109375 0 
L 9.078125 0 
L 9.078125 54.6875 
L 18.109375 54.6875 
L 18.109375 46.1875 
Q 20.953125 51.171875 25.484375 53.578125 
Q 30.03125 56 36.53125 56 
Q 37.453125 56 38.578125 55.875 
Q 39.703125 55.765625 41.0625 55.515625 
z
" id="DejaVuSans-114"/>
      <path d="M 56.203125 29.59375 
L 56.203125 25.203125 
L 14.890625 25.203125 
Q 15.484375 15.921875 20.484375 11.0625 
Q 25.484375 6.203125 34.421875 6.203125 
Q 39.59375 6.203125 44.453125 7.46875 
Q 49.3125 8.734375 54.109375 11.28125 
L 54.109375 2.78125 
Q 49.265625 0.734375 44.1875 -0.34375 
Q 39.109375 -1.421875 33.890625 -1.421875 
Q 20.796875 -1.421875 13.15625 6.1875 
Q 5.515625 13.8125 5.515625 26.8125 
Q 5.515625 40.234375 12.765625 48.109375 
Q 20.015625 56 32.328125 56 
Q 43.359375 56 49.78125 48.890625 
Q 56.203125 41.796875 56.203125 29.59375 
z
M 47.21875 32.234375 
Q 47.125 39.59375 43.09375 43.984375 
Q 39.0625 48.390625 32.421875 48.390625 
Q 24.90625 48.390625 20.390625 44.140625 
Q 15.875 39.890625 15.1875 32.171875 
z
" id="DejaVuSans-101"/>
      <path d="M 34.28125 27.484375 
Q 23.390625 27.484375 19.1875 25 
Q 14.984375 22.515625 14.984375 16.5 
Q 14.984375 11.71875 18.140625 8.90625 
Q 21.296875 6.109375 26.703125 6.109375 
Q 34.1875 6.109375 38.703125 11.40625 
Q 43.21875 16.703125 43.21875 25.484375 
L 43.21875 27.484375 
z
M 52.203125 31.203125 
L 52.203125 0 
L 43.21875 0 
L 43.21875 8.296875 
Q 40.140625 3.328125 35.546875 0.953125 
Q 30.953125 -1.421875 24.3125 -1.421875 
Q 15.921875 -1.421875 10.953125 3.296875 
Q 6 8.015625 6 15.921875 
Q 6 25.140625 12.171875 29.828125 
Q 18.359375 34.515625 30.609375 34.515625 
L 43.21875 34.515625 
L 43.21875 35.40625 
Q 43.21875 41.609375 39.140625 45 
Q 35.0625 48.390625 27.6875 48.390625 
Q 23 48.390625 18.546875 47.265625 
Q 14.109375 46.140625 10.015625 43.890625 
L 10.015625 52.203125 
Q 14.9375 54.109375 19.578125 55.046875 
Q 24.21875 56 28.609375 56 
Q 40.484375 56 46.34375 49.84375 
Q 52.203125 43.703125 52.203125 31.203125 
z
" id="DejaVuSans-97"/>
      <path d="M 18.3125 70.21875 
L 18.3125 54.6875 
L 36.8125 54.6875 
L 36.8125 47.703125 
L 18.3125 47.703125 
L 18.3125 18.015625 
Q 18.3125 11.328125 20.140625 9.421875 
Q 21.96875 7.515625 27.59375 7.515625 
L 36.8125 7.515625 
L 36.8125 0 
L 27.59375 0 
Q 17.1875 0 13.234375 3.875 
Q 9.28125 7.765625 9.28125 18.015625 
L 9.28125 47.703125 
L 2.6875 47.703125 
L 2.6875 54.6875 
L 9.28125 54.6875 
L 9.28125 70.21875 
z
" id="DejaVuSans-116"/>
      <path d="M 45.40625 46.390625 
L 45.40625 75.984375 
L 54.390625 75.984375 
L 54.390625 0 
L 45.40625 0 
L 45.40625 8.203125 
Q 42.578125 3.328125 38.25 0.953125 
Q 33.9375 -1.421875 27.875 -1.421875 
Q 17.96875 -1.421875 11.734375 6.484375 
Q 5.515625 14.40625 5.515625 27.296875 
Q 5.515625 40.1875 11.734375 48.09375 
Q 17.96875 56 27.875 56 
Q 33.9375 56 38.25 53.625 
Q 42.578125 51.265625 45.40625 46.390625 
z
M 14.796875 27.296875 
Q 14.796875 17.390625 18.875 11.75 
Q 22.953125 6.109375 30.078125 6.109375 
Q 37.203125 6.109375 41.296875 11.75 
Q 45.40625 17.390625 45.40625 27.296875 
Q 45.40625 37.203125 41.296875 42.84375 
Q 37.203125 48.484375 30.078125 48.484375 
Q 22.953125 48.484375 18.875 42.84375 
Q 14.796875 37.203125 14.796875 27.296875 
z
" id="DejaVuSans-100"/>
      <path d="M 9.421875 54.6875 
L 18.40625 54.6875 
L 18.40625 0 
L 9.421875 0 
z
M 9.421875 75.984375 
L 18.40625 75.984375 
L 18.40625 64.59375 
L 9.421875 64.59375 
z
" id="DejaVuSans-105"/>
      <path d="M 44.28125 53.078125 
L 44.28125 44.578125 
Q 40.484375 46.53125 36.375 47.5 
Q 32.28125 48.484375 27.875 48.484375 
Q 21.1875 48.484375 17.84375 46.4375 
Q 14.5 44.390625 14.5 40.28125 
Q 14.5 37.15625 16.890625 35.375 
Q 19.28125 33.59375 26.515625 31.984375 
L 29.59375 31.296875 
Q 39.15625 29.25 43.1875 25.515625 
Q 47.21875 21.78125 47.21875 15.09375 
Q 47.21875 7.46875 41.1875 3.015625 
Q 35.15625 -1.421875 24.609375 -1.421875 
Q 20.21875 -1.421875 15.453125 -0.5625 
Q 10.6875 0.296875 5.421875 2 
L 5.421875 11.28125 
Q 10.40625 8.6875 15.234375 7.390625 
Q 20.0625 6.109375 24.8125 6.109375 
Q 31.15625 6.109375 34.5625 8.28125 
Q 37.984375 10.453125 37.984375 14.40625 
Q 37.984375 18.0625 35.515625 20.015625 
Q 33.0625 21.96875 24.703125 23.78125 
L 21.578125 24.515625 
Q 13.234375 26.265625 9.515625 29.90625 
Q 5.8125 33.546875 5.8125 39.890625 
Q 5.8125 47.609375 11.28125 51.796875 
Q 16.75 56 26.8125 56 
Q 31.78125 56 36.171875 55.265625 
Q 40.578125 54.546875 44.28125 53.078125 
z
" id="DejaVuSans-115"/>
      <path d="M 8.5 21.578125 
L 8.5 54.6875 
L 17.484375 54.6875 
L 17.484375 21.921875 
Q 17.484375 14.15625 20.5 10.265625 
Q 23.53125 6.390625 29.59375 6.390625 
Q 36.859375 6.390625 41.078125 11.03125 
Q 45.3125 15.671875 45.3125 23.6875 
L 45.3125 54.6875 
L 54.296875 54.6875 
L 54.296875 0 
L 45.3125 0 
L 45.3125 8.40625 
Q 42.046875 3.421875 37.71875 1 
Q 33.40625 -1.421875 27.6875 -1.421875 
Q 18.265625 -1.421875 13.375 4.4375 
Q 8.5 10.296875 8.5 21.578125 
z
M 31.109375 56 
z
" id="DejaVuSans-117"/>
      <path d="M 30.609375 48.390625 
Q 23.390625 48.390625 19.1875 42.75 
Q 14.984375 37.109375 14.984375 27.296875 
Q 14.984375 17.484375 19.15625 11.84375 
Q 23.34375 6.203125 30.609375 6.203125 
Q 37.796875 6.203125 41.984375 11.859375 
Q 46.1875 17.53125 46.1875 27.296875 
Q 46.1875 37.015625 41.984375 42.703125 
Q 37.796875 48.390625 30.609375 48.390625 
z
M 30.609375 56 
Q 42.328125 56 49.015625 48.375 
Q 55.71875 40.765625 55.71875 27.296875 
Q 55.71875 13.875 49.015625 6.21875 
Q 42.328125 -1.421875 30.609375 -1.421875 
Q 18.84375 -1.421875 12.171875 6.21875 
Q 5.515625 13.875 5.515625 27.296875 
Q 5.515625 40.765625 12.171875 48.375 
Q 18.84375 56 30.609375 56 
z
" id="DejaVuSans-111"/>
      <path d="M 2.984375 54.6875 
L 12.5 54.6875 
L 29.59375 8.796875 
L 46.6875 54.6875 
L 56.203125 54.6875 
L 35.6875 0 
L 23.484375 0 
z
" id="DejaVuSans-118"/>
      <path d="M 52 44.1875 
Q 55.375 50.25 60.0625 53.125 
Q 64.75 56 71.09375 56 
Q 79.640625 56 84.28125 50.015625 
Q 88.921875 44.046875 88.921875 33.015625 
L 88.921875 0 
L 79.890625 0 
L 79.890625 32.71875 
Q 79.890625 40.578125 77.09375 44.375 
Q 74.3125 48.1875 68.609375 48.1875 
Q 61.625 48.1875 57.5625 43.546875 
Q 53.515625 38.921875 53.515625 30.90625 
L 53.515625 0 
L 44.484375 0 
L 44.484375 32.71875 
Q 44.484375 40.625 41.703125 44.40625 
Q 38.921875 48.1875 33.109375 48.1875 
Q 26.21875 48.1875 22.15625 43.53125 
Q 18.109375 38.875 18.109375 30.90625 
L 18.109375 0 
L 9.078125 0 
L 9.078125 54.6875 
L 18.109375 54.6875 
L 18.109375 46.1875 
Q 21.1875 51.21875 25.484375 53.609375 
Q 29.78125 56 35.6875 56 
Q 41.65625 56 45.828125 52.96875 
Q 50 49.953125 52 44.1875 
z
" id="DejaVuSans-109"/>
     </defs>
     <use xlink:href="#DejaVuSans-67"/>
     <use x="69.824219" xlink:href="#DejaVuSans-114"/>
     <use x="108.6875" xlink:href="#DejaVuSans-101"/>
     <use x="170.210938" xlink:href="#DejaVuSans-97"/>
     <use x="231.490234" xlink:href="#DejaVuSans-116"/>
     <use x="270.699219" xlink:href="#DejaVuSans-101"/>
     <use x="332.222656" xlink:href="#DejaVuSans-100"/>
     <use x="395.699219" xlink:href="#DejaVuSans-32"/>
     <use x="427.486328" xlink:href="#DejaVuSans-105"/>
     <use x="455.269531" xlink:href="#DejaVuSans-115"/>
     <use x="507.369141" xlink:href="#DejaVuSans-115"/>
     <use x="559.46875" xlink:href="#DejaVuSans-117"/>
     <use x="622.847656" xlink:href="#DejaVuSans-101"/>
     <use x="684.371094" xlink:href="#DejaVuSans-115"/>
     <use x="736.470703" xlink:href="#DejaVuSans-32"/>
     <use x="768.257812" xlink:href="#DejaVuSans-111"/>
     <use x="829.439453" xlink:href="#DejaVuSans-118"/>
     <use x="888.619141" xlink:href="#DejaVuSans-101"/>
     <use x="950.142578" xlink:href="#DejaVuSans-114"/>
     <use x="991.255859" xlink:href="#DejaVuSans-32"/>
     <use x="1023.042969" xlink:href="#DejaVuSans-116"/>
     <use x="1062.251953" xlink:href="#DejaVuSans-105"/>
     <use x="1090.035156" xlink:href="#DejaVuSans-109"/>
     <use x="1187.447266" xlink:href="#DejaVuSans-101"/>
    </g>
   </g>
  </g>
 </g>
 <defs>
  <clipPath id="p3a6c35823e">
   <rect height="554.4" width="558" x="90" y="86.4"/>
  </clipPath>
 </defs>
</svg>
