<?xml version="1.0" encoding="utf-8" standalone="no"?>
<!DOCTYPE svg PUBLIC "-//W3C//DTD SVG 1.1//EN"
  "http://www.w3.org/Graphics/SVG/1.1/DTD/svg11.dtd">
<!-- Created with matplotlib (https://matplotlib.org/) -->
<svg height="720pt" version="1.1" viewBox="0 0 720 720" width="720pt" xmlns="http://www.w3.org/2000/svg" xmlns:xlink="http://www.w3.org/1999/xlink">
 <defs>
  <style type="text/css">
*{stroke-linecap:butt;stroke-linejoin:round;}
  </style>
 </defs>
 <g id="figure_1">
  <g id="patch_1">
   <path d="M 0 720 
L 720 720 
L 720 0 
L 0 0 
z
" style="fill:#ffffff;"/>
  </g>
  <g id="axes_1">
   <g id="patch_2">
    <path d="M 90 640.8 
L 648 640.8 
L 648 86.4 
L 90 86.4 
z
" style="fill:#ffffff;"/>
   </g>
   <g id="matplotlib.axis_1">
    <g id="xtick_1">
     <g id="line2d_1">
      <path clip-path="url(#pb045edb478)" d="M 164.130808 640.8 
L 164.130808 86.4 
" style="fill:none;stroke:#cccccc;stroke-linecap:round;stroke-width:0.8;"/>
     </g>
     <g id="line2d_2"/>
     <g id="text_1">
      <!-- 2015 -->
      <defs>
       <path d="M 19.1875 8.296875 
L 53.609375 8.296875 
L 53.609375 0 
L 7.328125 0 
L 7.328125 8.296875 
Q 12.9375 14.109375 22.625 23.890625 
Q 32.328125 33.6875 34.8125 36.53125 
Q 39.546875 41.84375 41.421875 45.53125 
Q 43.3125 49.21875 43.3125 52.78125 
Q 43.3125 58.59375 39.234375 62.25 
Q 35.15625 65.921875 28.609375 65.921875 
Q 23.96875 65.921875 18.8125 64.3125 
Q 13.671875 62.703125 7.8125 59.421875 
L 7.8125 69.390625 
Q 13.765625 71.78125 18.9375 73 
Q 24.125 74.21875 28.421875 74.21875 
Q 39.75 74.21875 46.484375 68.546875 
Q 53.21875 62.890625 53.21875 53.421875 
Q 53.21875 48.921875 51.53125 44.890625 
Q 49.859375 40.875 45.40625 35.40625 
Q 44.1875 33.984375 37.640625 27.21875 
Q 31.109375 20.453125 19.1875 8.296875 
z
" id="DejaVuSans-50"/>
       <path d="M 31.78125 66.40625 
Q 24.171875 66.40625 20.328125 58.90625 
Q 16.5 51.421875 16.5 36.375 
Q 16.5 21.390625 20.328125 13.890625 
Q 24.171875 6.390625 31.78125 6.390625 
Q 39.453125 6.390625 43.28125 13.890625 
Q 47.125 21.390625 47.125 36.375 
Q 47.125 51.421875 43.28125 58.90625 
Q 39.453125 66.40625 31.78125 66.40625 
z
M 31.78125 74.21875 
Q 44.046875 74.21875 50.515625 64.515625 
Q 56.984375 54.828125 56.984375 36.375 
Q 56.984375 17.96875 50.515625 8.265625 
Q 44.046875 -1.421875 31.78125 -1.421875 
Q 19.53125 -1.421875 13.0625 8.265625 
Q 6.59375 17.96875 6.59375 36.375 
Q 6.59375 54.828125 13.0625 64.515625 
Q 19.53125 74.21875 31.78125 74.21875 
z
" id="DejaVuSans-48"/>
       <path d="M 12.40625 8.296875 
L 28.515625 8.296875 
L 28.515625 63.921875 
L 10.984375 60.40625 
L 10.984375 69.390625 
L 28.421875 72.90625 
L 38.28125 72.90625 
L 38.28125 8.296875 
L 54.390625 8.296875 
L 54.390625 0 
L 12.40625 0 
z
" id="DejaVuSans-49"/>
       <path d="M 10.796875 72.90625 
L 49.515625 72.90625 
L 49.515625 64.59375 
L 19.828125 64.59375 
L 19.828125 46.734375 
Q 21.96875 47.46875 24.109375 47.828125 
Q 26.265625 48.1875 28.421875 48.1875 
Q 40.625 48.1875 47.75 41.5 
Q 54.890625 34.8125 54.890625 23.390625 
Q 54.890625 11.625 47.5625 5.09375 
Q 40.234375 -1.421875 26.90625 -1.421875 
Q 22.3125 -1.421875 17.546875 -0.640625 
Q 12.796875 0.140625 7.71875 1.703125 
L 7.71875 11.625 
Q 12.109375 9.234375 16.796875 8.0625 
Q 21.484375 6.890625 26.703125 6.890625 
Q 35.15625 6.890625 40.078125 11.328125 
Q 45.015625 15.765625 45.015625 23.390625 
Q 45.015625 31 40.078125 35.4375 
Q 35.15625 39.890625 26.703125 39.890625 
Q 22.75 39.890625 18.8125 39.015625 
Q 14.890625 38.140625 10.796875 36.28125 
z
" id="DejaVuSans-53"/>
      </defs>
      <g style="fill:#262626;" transform="translate(151.405808 651.898438)scale(0.1 -0.1)">
       <use xlink:href="#DejaVuSans-50"/>
       <use x="63.623047" xlink:href="#DejaVuSans-48"/>
       <use x="127.246094" xlink:href="#DejaVuSans-49"/>
       <use x="190.869141" xlink:href="#DejaVuSans-53"/>
      </g>
     </g>
    </g>
    <g id="xtick_2">
     <g id="line2d_3">
      <path clip-path="url(#pb045edb478)" d="M 249.705766 640.8 
L 249.705766 86.4 
" style="fill:none;stroke:#cccccc;stroke-linecap:round;stroke-width:0.8;"/>
     </g>
     <g id="line2d_4"/>
     <g id="text_2">
      <!-- 2016 -->
      <defs>
       <path d="M 33.015625 40.375 
Q 26.375 40.375 22.484375 35.828125 
Q 18.609375 31.296875 18.609375 23.390625 
Q 18.609375 15.53125 22.484375 10.953125 
Q 26.375 6.390625 33.015625 6.390625 
Q 39.65625 6.390625 43.53125 10.953125 
Q 47.40625 15.53125 47.40625 23.390625 
Q 47.40625 31.296875 43.53125 35.828125 
Q 39.65625 40.375 33.015625 40.375 
z
M 52.59375 71.296875 
L 52.59375 62.3125 
Q 48.875 64.0625 45.09375 64.984375 
Q 41.3125 65.921875 37.59375 65.921875 
Q 27.828125 65.921875 22.671875 59.328125 
Q 17.53125 52.734375 16.796875 39.40625 
Q 19.671875 43.65625 24.015625 45.921875 
Q 28.375 48.1875 33.59375 48.1875 
Q 44.578125 48.1875 50.953125 41.515625 
Q 57.328125 34.859375 57.328125 23.390625 
Q 57.328125 12.15625 50.6875 5.359375 
Q 44.046875 -1.421875 33.015625 -1.421875 
Q 20.359375 -1.421875 13.671875 8.265625 
Q 6.984375 17.96875 6.984375 36.375 
Q 6.984375 53.65625 15.1875 63.9375 
Q 23.390625 74.21875 37.203125 74.21875 
Q 40.921875 74.21875 44.703125 73.484375 
Q 48.484375 72.75 52.59375 71.296875 
z
" id="DejaVuSans-54"/>
      </defs>
      <g style="fill:#262626;" transform="translate(236.980766 651.898438)scale(0.1 -0.1)">
       <use xlink:href="#DejaVuSans-50"/>
       <use x="63.623047" xlink:href="#DejaVuSans-48"/>
       <use x="127.246094" xlink:href="#DejaVuSans-49"/>
       <use x="190.869141" xlink:href="#DejaVuSans-54"/>
      </g>
     </g>
    </g>
    <g id="xtick_3">
     <g id="line2d_5">
      <path clip-path="url(#pb045edb478)" d="M 335.515176 640.8 
L 335.515176 86.4 
" style="fill:none;stroke:#cccccc;stroke-linecap:round;stroke-width:0.8;"/>
     </g>
     <g id="line2d_6"/>
     <g id="text_3">
      <!-- 2017 -->
      <defs>
       <path d="M 8.203125 72.90625 
L 55.078125 72.90625 
L 55.078125 68.703125 
L 28.609375 0 
L 18.3125 0 
L 43.21875 64.59375 
L 8.203125 64.59375 
z
" id="DejaVuSans-55"/>
      </defs>
      <g style="fill:#262626;" transform="translate(322.790176 651.898438)scale(0.1 -0.1)">
       <use xlink:href="#DejaVuSans-50"/>
       <use x="63.623047" xlink:href="#DejaVuSans-48"/>
       <use x="127.246094" xlink:href="#DejaVuSans-49"/>
       <use x="190.869141" xlink:href="#DejaVuSans-55"/>
      </g>
     </g>
    </g>
    <g id="xtick_4">
     <g id="line2d_7">
      <path clip-path="url(#pb045edb478)" d="M 421.090135 640.8 
L 421.090135 86.4 
" style="fill:none;stroke:#cccccc;stroke-linecap:round;stroke-width:0.8;"/>
     </g>
     <g id="line2d_8"/>
     <g id="text_4">
      <!-- 2018 -->
      <defs>
       <path d="M 31.78125 34.625 
Q 24.75 34.625 20.71875 30.859375 
Q 16.703125 27.09375 16.703125 20.515625 
Q 16.703125 13.921875 20.71875 10.15625 
Q 24.75 6.390625 31.78125 6.390625 
Q 38.8125 6.390625 42.859375 10.171875 
Q 46.921875 13.96875 46.921875 20.515625 
Q 46.921875 27.09375 42.890625 30.859375 
Q 38.875 34.625 31.78125 34.625 
z
M 21.921875 38.8125 
Q 15.578125 40.375 12.03125 44.71875 
Q 8.5 49.078125 8.5 55.328125 
Q 8.5 64.0625 14.71875 69.140625 
Q 20.953125 74.21875 31.78125 74.21875 
Q 42.671875 74.21875 48.875 69.140625 
Q 55.078125 64.0625 55.078125 55.328125 
Q 55.078125 49.078125 51.53125 44.71875 
Q 48 40.375 41.703125 38.8125 
Q 48.828125 37.15625 52.796875 32.3125 
Q 56.78125 27.484375 56.78125 20.515625 
Q 56.78125 9.90625 50.3125 4.234375 
Q 43.84375 -1.421875 31.78125 -1.421875 
Q 19.734375 -1.421875 13.25 4.234375 
Q 6.78125 9.90625 6.78125 20.515625 
Q 6.78125 27.484375 10.78125 32.3125 
Q 14.796875 37.15625 21.921875 38.8125 
z
M 18.3125 54.390625 
Q 18.3125 48.734375 21.84375 45.5625 
Q 25.390625 42.390625 31.78125 42.390625 
Q 38.140625 42.390625 41.71875 45.5625 
Q 45.3125 48.734375 45.3125 54.390625 
Q 45.3125 60.0625 41.71875 63.234375 
Q 38.140625 66.40625 31.78125 66.40625 
Q 25.390625 66.40625 21.84375 63.234375 
Q 18.3125 60.0625 18.3125 54.390625 
z
" id="DejaVuSans-56"/>
      </defs>
      <g style="fill:#262626;" transform="translate(408.365135 651.898438)scale(0.1 -0.1)">
       <use xlink:href="#DejaVuSans-50"/>
       <use x="63.623047" xlink:href="#DejaVuSans-48"/>
       <use x="127.246094" xlink:href="#DejaVuSans-49"/>
       <use x="190.869141" xlink:href="#DejaVuSans-56"/>
      </g>
     </g>
    </g>
    <g id="xtick_5">
     <g id="line2d_9">
      <path clip-path="url(#pb045edb478)" d="M 506.665093 640.8 
L 506.665093 86.4 
" style="fill:none;stroke:#cccccc;stroke-linecap:round;stroke-width:0.8;"/>
     </g>
     <g id="line2d_10"/>
     <g id="text_5">
      <!-- 2019 -->
      <defs>
       <path d="M 10.984375 1.515625 
L 10.984375 10.5 
Q 14.703125 8.734375 18.5 7.8125 
Q 22.3125 6.890625 25.984375 6.890625 
Q 35.75 6.890625 40.890625 13.453125 
Q 46.046875 20.015625 46.78125 33.40625 
Q 43.953125 29.203125 39.59375 26.953125 
Q 35.25 24.703125 29.984375 24.703125 
Q 19.046875 24.703125 12.671875 31.3125 
Q 6.296875 37.9375 6.296875 49.421875 
Q 6.296875 60.640625 12.9375 67.421875 
Q 19.578125 74.21875 30.609375 74.21875 
Q 43.265625 74.21875 49.921875 64.515625 
Q 56.59375 54.828125 56.59375 36.375 
Q 56.59375 19.140625 48.40625 8.859375 
Q 40.234375 -1.421875 26.421875 -1.421875 
Q 22.703125 -1.421875 18.890625 -0.6875 
Q 15.09375 0.046875 10.984375 1.515625 
z
M 30.609375 32.421875 
Q 37.25 32.421875 41.125 36.953125 
Q 45.015625 41.5 45.015625 49.421875 
Q 45.015625 57.28125 41.125 61.84375 
Q 37.25 66.40625 30.609375 66.40625 
Q 23.96875 66.40625 20.09375 61.84375 
Q 16.21875 57.28125 16.21875 49.421875 
Q 16.21875 41.5 20.09375 36.953125 
Q 23.96875 32.421875 30.609375 32.421875 
z
" id="DejaVuSans-57"/>
      </defs>
      <g style="fill:#262626;" transform="translate(493.940093 651.898438)scale(0.1 -0.1)">
       <use xlink:href="#DejaVuSans-50"/>
       <use x="63.623047" xlink:href="#DejaVuSans-48"/>
       <use x="127.246094" xlink:href="#DejaVuSans-49"/>
       <use x="190.869141" xlink:href="#DejaVuSans-57"/>
      </g>
     </g>
    </g>
    <g id="xtick_6">
     <g id="line2d_11">
      <path clip-path="url(#pb045edb478)" d="M 592.240051 640.8 
L 592.240051 86.4 
" style="fill:none;stroke:#cccccc;stroke-linecap:round;stroke-width:0.8;"/>
     </g>
     <g id="line2d_12"/>
     <g id="text_6">
      <!-- 2020 -->
      <g style="fill:#262626;" transform="translate(579.515051 651.898438)scale(0.1 -0.1)">
       <use xlink:href="#DejaVuSans-50"/>
       <use x="63.623047" xlink:href="#DejaVuSans-48"/>
       <use x="127.246094" xlink:href="#DejaVuSans-50"/>
       <use x="190.869141" xlink:href="#DejaVuSans-48"/>
      </g>
     </g>
    </g>
   </g>
   <g id="matplotlib.axis_2">
    <g id="ytick_1">
     <g id="line2d_13">
      <path clip-path="url(#pb045edb478)" d="M 90 615.605584 
L 648 615.605584 
" style="fill:none;stroke:#cccccc;stroke-linecap:round;stroke-width:0.8;"/>
     </g>
     <g id="line2d_14"/>
     <g id="text_7">
      <!-- 0 -->
      <g style="fill:#262626;" transform="translate(80.1375 619.404803)scale(0.1 -0.1)">
       <use xlink:href="#DejaVuSans-48"/>
      </g>
     </g>
    </g>
    <g id="ytick_2">
     <g id="line2d_15">
      <path clip-path="url(#pb045edb478)" d="M 90 503.917071 
L 648 503.917071 
" style="fill:none;stroke:#cccccc;stroke-linecap:round;stroke-width:0.8;"/>
     </g>
     <g id="line2d_16"/>
     <g id="text_8">
      <!-- 20000 -->
      <g style="fill:#262626;" transform="translate(54.6875 507.71629)scale(0.1 -0.1)">
       <use xlink:href="#DejaVuSans-50"/>
       <use x="63.623047" xlink:href="#DejaVuSans-48"/>
       <use x="127.246094" xlink:href="#DejaVuSans-48"/>
       <use x="190.869141" xlink:href="#DejaVuSans-48"/>
       <use x="254.492188" xlink:href="#DejaVuSans-48"/>
      </g>
     </g>
    </g>
    <g id="ytick_3">
     <g id="line2d_17">
      <path clip-path="url(#pb045edb478)" d="M 90 392.228558 
L 648 392.228558 
" style="fill:none;stroke:#cccccc;stroke-linecap:round;stroke-width:0.8;"/>
     </g>
     <g id="line2d_18"/>
     <g id="text_9">
      <!-- 40000 -->
      <defs>
       <path d="M 37.796875 64.3125 
L 12.890625 25.390625 
L 37.796875 25.390625 
z
M 35.203125 72.90625 
L 47.609375 72.90625 
L 47.609375 25.390625 
L 58.015625 25.390625 
L 58.015625 17.1875 
L 47.609375 17.1875 
L 47.609375 0 
L 37.796875 0 
L 37.796875 17.1875 
L 4.890625 17.1875 
L 4.890625 26.703125 
z
" id="DejaVuSans-52"/>
      </defs>
      <g style="fill:#262626;" transform="translate(54.6875 396.027777)scale(0.1 -0.1)">
       <use xlink:href="#DejaVuSans-52"/>
       <use x="63.623047" xlink:href="#DejaVuSans-48"/>
       <use x="127.246094" xlink:href="#DejaVuSans-48"/>
       <use x="190.869141" xlink:href="#DejaVuSans-48"/>
       <use x="254.492188" xlink:href="#DejaVuSans-48"/>
      </g>
     </g>
    </g>
    <g id="ytick_4">
     <g id="line2d_19">
      <path clip-path="url(#pb045edb478)" d="M 90 280.540045 
L 648 280.540045 
" style="fill:none;stroke:#cccccc;stroke-linecap:round;stroke-width:0.8;"/>
     </g>
     <g id="line2d_20"/>
     <g id="text_10">
      <!-- 60000 -->
      <g style="fill:#262626;" transform="translate(54.6875 284.339264)scale(0.1 -0.1)">
       <use xlink:href="#DejaVuSans-54"/>
       <use x="63.623047" xlink:href="#DejaVuSans-48"/>
       <use x="127.246094" xlink:href="#DejaVuSans-48"/>
       <use x="190.869141" xlink:href="#DejaVuSans-48"/>
       <use x="254.492188" xlink:href="#DejaVuSans-48"/>
      </g>
     </g>
    </g>
    <g id="ytick_5">
     <g id="line2d_21">
      <path clip-path="url(#pb045edb478)" d="M 90 168.851532 
L 648 168.851532 
" style="fill:none;stroke:#cccccc;stroke-linecap:round;stroke-width:0.8;"/>
     </g>
     <g id="line2d_22"/>
     <g id="text_11">
      <!-- 80000 -->
      <g style="fill:#262626;" transform="translate(54.6875 172.650751)scale(0.1 -0.1)">
       <use xlink:href="#DejaVuSans-56"/>
       <use x="63.623047" xlink:href="#DejaVuSans-48"/>
       <use x="127.246094" xlink:href="#DejaVuSans-48"/>
       <use x="190.869141" xlink:href="#DejaVuSans-48"/>
       <use x="254.492188" xlink:href="#DejaVuSans-48"/>
      </g>
     </g>
    </g>
   </g>
   <g id="line2d_23">
    <path clip-path="url(#pb045edb478)" d="M 115.363636 615.6 
L 115.451309 615.538571 
L 116.71888 615.169999 
L 117.245393 614.974544 
L 117.883767 614.851687 
L 118.057771 614.751167 
L 118.419593 614.605972 
L 118.775932 614.505453 
L 119.565987 614.315582 
L 119.638436 614.242985 
L 120.260654 614.103374 
L 120.354586 614.030776 
L 120.934141 613.89675 
L 121.51702 613.651035 
L 123.310814 613.377399 
L 125.7389 612.539735 
L 126.207049 612.405709 
L 126.331396 612.310773 
L 127.306569 611.95337 
L 130.530232 610.886745 
L 131.039875 610.752719 
L 131.117776 610.719212 
L 131.508556 610.59077 
L 131.553153 610.523757 
L 132.425019 610.378562 
L 133.430093 609.970899 
L 134.112058 609.842457 
L 134.174014 609.808951 
L 134.562051 609.680509 
L 134.645561 609.574405 
L 134.857216 609.434794 
L 135.004964 609.373365 
L 135.128299 609.339859 
L 136.015658 609.217001 
L 136.25474 609.082975 
L 137.598323 608.708819 
L 137.669402 608.608299 
L 138.06831 608.45752 
L 138.197489 608.384922 
L 139.727741 607.954921 
L 139.991233 607.848817 
L 140.883635 607.703622 
L 141.044075 607.647778 
L 141.365759 607.491414 
L 143.234396 606.832452 
L 143.349646 606.748685 
L 144.034951 606.575568 
L 144.638524 606.173489 
L 144.744041 606.011541 
L 144.90066 605.866346 
L 144.945718 605.849593 
L 145.772696 605.693229 
L 146.103425 605.397254 
L 146.30716 605.274397 
L 146.595696 605.067773 
L 146.929328 605.039851 
L 147.440526 604.827643 
L 147.557079 604.676863 
L 148.121555 604.503746 
L 148.191057 604.475824 
L 148.87671 604.358551 
L 148.954358 604.285954 
L 149.293087 604.124005 
L 149.385986 604.062577 
L 149.607367 603.939719 
L 149.821847 603.8392 
L 150.508788 603.654914 
L 150.594599 603.593485 
L 150.931838 603.459459 
L 151.081046 603.325432 
L 151.245065 603.208159 
L 151.439381 603.102055 
L 151.500794 603.040627 
L 152.166673 602.923354 
L 152.440683 602.672055 
L 155.691185 600.991142 
L 155.841981 600.929714 
L 156.408988 600.72309 
L 157.036096 600.600233 
L 157.156366 600.505297 
L 157.526361 600.287505 
L 158.005848 600.136725 
L 158.081768 600.097634 
L 158.744797 599.963608 
L 158.765504 599.930102 
L 159.165267 599.80166 
L 159.448006 599.494516 
L 159.497399 599.449841 
L 159.66914 599.332568 
L 159.737411 599.304646 
L 160.351892 599.153866 
L 160.453621 599.081269 
L 160.591755 598.958412 
L 160.875295 598.746203 
L 161.100825 598.589839 
L 161.369522 598.405553 
L 161.997167 598.28828 
L 162.093883 598.232436 
L 162.229212 598.109579 
L 162.304451 598.042566 
L 163.883921 597.852695 
L 163.994605 597.813604 
L 165.285073 597.579058 
L 165.739679 597.277499 
L 165.836705 597.115551 
L 165.985487 596.987109 
L 166.10855 596.864252 
L 167.131412 596.428667 
L 167.340668 596.277887 
L 167.414597 596.115939 
L 167.491654 595.965159 
L 167.629229 595.847886 
L 167.762532 595.747367 
L 167.869721 595.607756 
L 167.932901 595.540743 
L 168.613558 595.406717 
L 169.778816 594.440611 
L 170.211426 594.312169 
L 170.679188 593.848662 
L 170.79636 593.658792 
L 170.913062 593.535934 
L 170.991174 593.413077 
L 171.162395 593.290219 
L 171.21439 593.228791 
L 171.850463 593.08918 
L 171.965803 592.988661 
L 172.072269 592.860219 
L 172.181954 592.659179 
L 172.33418 592.513984 
L 172.519622 592.290607 
L 173.018421 591.92762 
L 173.639187 591.715411 
L 173.955939 591.313333 
L 174.056039 591.168138 
L 174.197793 591.034112 
L 174.663468 590.771644 
L 175.244282 590.604111 
L 175.390828 590.425409 
L 175.527904 590.313721 
L 175.835011 589.794369 
L 175.993755 589.576576 
L 176.139289 589.397875 
L 176.728251 589.224758 
L 176.924865 588.967874 
L 177.20401 588.845017 
L 177.271374 588.76125 
L 177.444103 588.638393 
L 177.550896 588.454107 
L 177.739127 588.264236 
L 177.778148 588.236314 
L 178.391655 588.102288 
L 178.514414 587.957093 
L 178.67392 587.783976 
L 178.832867 587.661118 
L 178.893836 587.454495 
L 179.002926 587.314884 
L 179.139989 587.186442 
L 179.308113 587.080338 
L 179.674094 586.884883 
L 180.040922 586.734104 
L 180.318685 586.292934 
L 180.474137 586.142155 
L 180.601726 585.829427 
L 180.699867 585.700985 
L 180.787423 585.472024 
L 180.950204 585.337997 
L 181.07578 585.153711 
L 181.40893 585.086698 
L 181.67074 584.947088 
L 182.41262 584.025657 
L 182.517741 583.9028 
L 182.636961 583.707345 
L 182.743013 583.606825 
L 183.195177 583.46163 
L 183.304797 583.333189 
L 183.509939 583.070721 
L 183.793499 582.529031 
L 183.891871 582.333576 
L 184.0099 582.210719 
L 184.135693 581.976173 
L 184.240651 581.830978 
L 184.325954 581.507081 
L 184.947434 581.27812 
L 185.110834 581.049158 
L 185.207195 580.88721 
L 185.372779 580.613573 
L 185.469901 580.40695 
L 185.58879 580.289677 
L 185.664143 580.138897 
L 185.839081 579.949027 
L 186.698445 579.412922 
L 186.848877 579.23422 
L 187.030965 579.027596 
L 187.139057 578.815388 
L 187.287183 578.659024 
L 187.809739 578.134088 
L 188.198112 577.983309 
L 188.340045 577.776685 
L 188.487699 577.63149 
L 189.250943 576.55928 
L 189.872121 576.335903 
L 190.034102 576.084604 
L 190.957818 574.811355 
L 191.424242 574.682913 
L 191.504164 574.560056 
L 191.617366 574.280835 
L 191.745764 574.141224 
L 192.33868 573.197456 
L 192.451252 573.080183 
L 192.605359 572.884728 
L 193.102247 572.745118 
L 193.170518 572.583169 
L 193.278222 572.43239 
L 193.405941 572.23135 
L 193.555152 572.007973 
L 193.653562 571.840441 
L 193.793083 571.678492 
L 193.874283 571.544466 
L 193.995734 571.332258 
L 194.08729 571.198232 
L 194.182884 570.991608 
L 194.418323 570.86875 
L 194.784139 570.690049 
L 195.277758 569.952905 
L 195.940055 568.964461 
L 196.423824 568.7355 
L 196.742787 568.009525 
L 196.888489 567.875498 
L 197.73632 566.875886 
L 198.38445 566.328612 
L 198.531712 566.205755 
L 198.627957 566.032638 
L 198.999387 565.440689 
L 199.43735 565.211727 
L 199.714888 565.077701 
L 199.841039 564.904584 
L 200.204668 564.290297 
L 200.342199 564.094842 
L 200.479696 563.860296 
L 200.973358 563.407958 
L 201.33805 563.268347 
L 201.548221 562.821593 
L 201.624565 562.575878 
L 201.750973 562.31341 
L 201.854262 562.067696 
L 201.962452 561.821981 
L 202.098575 561.63211 
L 202.208393 561.531591 
L 202.315272 561.369642 
L 202.354725 561.241201 
L 203.021624 561.123928 
L 203.322594 560.498472 
L 203.452508 560.375615 
L 203.596778 560.046134 
L 203.695649 559.873016 
L 203.786684 559.644055 
L 203.93177 559.510029 
L 204.044966 559.247561 
L 204.691823 558.951586 
L 204.828242 558.845482 
L 204.891397 558.700287 
L 205.054982 558.499248 
L 205.135713 558.354053 
L 205.858224 557.549895 
L 206.245829 557.415869 
L 206.31747 557.276258 
L 207.072129 556.215218 
L 207.921287 555.807554 
L 208.092708 555.517164 
L 208.962709 553.925603 
L 209.502437 553.724564 
L 209.598877 553.46768 
L 209.844409 552.976251 
L 210.0271 552.730536 
L 210.182538 552.456899 
L 210.278628 552.328457 
L 210.405232 552.077158 
L 210.975173 551.434949 
L 211.186223 551.261832 
L 211.337499 550.826247 
L 211.728626 550.474428 
L 211.860666 550.334817 
L 211.988928 550.094687 
L 212.162183 549.876894 
L 212.430845 549.675855 
L 212.831088 549.547413 
L 213.08244 549.262608 
L 213.190833 549.100659 
L 213.513579 548.804685 
L 213.582856 548.65949 
L 213.835313 548.290918 
L 214.24765 548.201567 
L 214.487773 548.045203 
L 214.821506 547.548189 
L 215.243514 546.861305 
L 215.800848 546.442473 
L 216.056539 546.308446 
L 216.183669 546.107407 
L 216.365429 545.895199 
L 216.824453 545.174808 
L 216.944349 544.973769 
L 217.257912 544.638703 
L 217.736259 544.476755 
L 217.911246 544.18078 
L 218.032518 544.035585 
L 218.139267 543.907143 
L 218.271124 543.65026 
L 218.380348 543.505065 
L 218.688636 543.136493 
L 218.765634 542.996882 
L 219.355587 542.840518 
L 219.482175 542.656232 
L 219.674105 542.444024 
L 220.177821 541.729217 
L 220.363312 541.539347 
L 220.45909 541.394152 
L 220.953271 541.243372 
L 221.217374 540.902722 
L 221.478091 540.48389 
L 221.573988 540.34428 
L 222.007629 539.981292 
L 222.638709 539.7635 
L 223.170014 539.121291 
L 223.313524 538.948173 
L 223.370536 538.814147 
L 223.470655 538.613108 
L 223.63593 538.484666 
L 223.754342 538.378562 
L 223.870331 538.35064 
L 224.017349 538.317133 
L 224.317461 538.177523 
L 224.603555 537.741937 
L 224.729613 537.56882 
L 224.831044 537.32869 
L 225.173626 536.859598 
L 225.303266 536.619468 
L 225.401087 536.513364 
L 225.886058 536.295571 
L 226.650936 534.983231 
L 227.320147 534.290762 
L 227.610469 534.039463 
L 227.618677 534.005957 
L 227.792923 533.888684 
L 227.940685 533.497774 
L 228.598504 532.202187 
L 228.662808 532.140759 
L 229.210497 531.995563 
L 230.34671 529.957248 
L 230.806046 529.823222 
L 231.221607 529.080493 
L 231.306077 528.935298 
L 231.442499 528.583479 
L 231.560715 528.449453 
L 231.683819 528.181401 
L 231.956828 527.874257 
L 232.522155 527.634127 
L 232.8352 526.818801 
L 233.006445 526.589839 
L 233.1315 526.310618 
L 233.239296 526.182176 
L 233.358082 525.992306 
L 233.496604 525.785682 
L 233.624112 525.500876 
L 234.107471 525.338928 
L 234.417436 524.68555 
L 234.611638 524.423082 
L 234.83066 524.032172 
L 234.918387 523.736198 
L 235.07925 523.52399 
L 235.139024 523.378795 
L 235.270247 523.228015 
L 235.792339 523.08282 
L 235.941987 522.809183 
L 236.084544 522.60256 
L 236.568904 521.882169 
L 236.681078 521.72022 
L 236.776823 521.547103 
L 236.854911 521.435415 
L 237.193285 521.301388 
L 237.462324 521.105933 
L 238.800472 519.592554 
L 239.079708 519.464112 
L 239.210312 519.251904 
L 239.609 518.659955 
L 239.978598 518.095928 
L 240.059164 517.967486 
L 240.442439 517.738525 
L 240.671775 517.610083 
L 240.833846 517.280602 
L 240.99473 517.124238 
L 241.111772 517.001381 
L 241.832304 516.202808 
L 242.135968 516.124626 
L 242.354261 515.945924 
L 242.470738 515.622027 
L 242.65077 515.443326 
L 242.86341 515.113845 
L 243.037197 514.801117 
L 243.631897 514.214752 
L 243.926031 514.097479 
L 244.063193 513.89644 
L 244.247385 513.628387 
L 245.237377 512.154099 
L 245.639272 511.980982 
L 245.84867 511.712929 
L 246.029355 511.483968 
L 246.15219 511.282929 
L 246.467425 510.741239 
L 246.61403 510.596044 
L 247.12821 510.378252 
L 247.271454 510.238641 
L 247.382354 510.115784 
L 247.592088 509.864485 
L 247.708856 509.747212 
L 250.284134 508.753184 
L 250.589111 508.59682 
L 251.271972 508.01604 
L 251.367131 507.876429 
L 251.608437 507.613961 
L 252.138055 507.457597 
L 252.239591 507.312402 
L 252.34917 507.111363 
L 252.47483 506.966168 
L 252.587445 506.770713 
L 252.716356 506.647855 
L 252.925783 506.390972 
L 252.965195 506.329543 
L 253.219087 506.21227 
L 253.322664 506.055906 
L 253.810544 505.888374 
L 254.114346 505.659412 
L 254.332346 505.413697 
L 254.446606 505.195905 
L 254.589222 505.045125 
L 254.935506 504.397332 
L 255.426311 504.240968 
L 255.537814 504.095773 
L 255.644641 503.872396 
L 256.170226 503.202265 
L 256.260433 503.040316 
L 256.65012 502.632653 
L 257.067466 502.470705 
L 257.519457 501.633041 
L 258.074253 500.644598 
L 258.16049 500.410052 
L 258.676987 500.23135 
L 258.795651 500.069402 
L 258.955765 499.711999 
L 259.043969 499.555635 
L 259.783128 497.99758 
L 259.901214 497.924983 
L 260.340768 497.735112 
L 260.717677 497.182254 
L 261.28117 496.149135 
L 261.358053 496.015109 
L 261.472213 495.71355 
L 261.715525 495.551602 
L 262.050924 495.294718 
L 262.184412 495.015497 
L 262.288706 494.864717 
L 262.427882 494.328612 
L 262.525657 494.177833 
L 263.013205 493.161467 
L 263.061919 493.021857 
L 263.199285 492.854324 
L 263.595132 492.636531 
L 263.778943 492.240037 
L 263.886026 492.027829 
L 263.960185 491.854712 
L 264.13134 491.575491 
L 264.201432 491.407958 
L 264.400005 491.078477 
L 264.709612 490.36367 
L 264.995787 490.134709 
L 265.28765 490.006267 
L 265.447074 489.710292 
L 265.653145 489.4925 
L 265.881136 489.280292 
L 266.056511 489.056915 
L 266.381908 488.531979 
L 266.787944 488.37003 
L 267.0726 488.135484 
L 267.255643 487.923276 
L 267.424449 487.666393 
L 267.529282 487.459769 
L 267.643219 487.308989 
L 267.8032 486.968339 
L 268.238046 486.560676 
L 268.597598 486.387559 
L 268.675293 486.259117 
L 268.794343 486.153013 
L 269.881711 485.01379 
L 269.973166 484.985868 
L 270.30398 484.868595 
L 270.437151 484.751322 
L 270.531205 484.622881 
L 270.654998 484.472101 
L 271.501196 483.517164 
L 271.89996 483.383138 
L 271.978504 483.215605 
L 272.112641 483.098332 
L 272.371933 482.807942 
L 272.460376 482.556643 
L 272.965671 481.925603 
L 273.568294 481.785992 
L 274.159425 481.015342 
L 274.2848 480.825471 
L 274.524828 480.39547 
L 274.893089 480.222353 
L 275.153056 480.099496 
L 275.240013 479.971054 
L 276.101588 478.843 
L 276.17455 478.703389 
L 276.310427 478.597285 
L 276.851422 478.407415 
L 276.999618 478.128194 
L 277.107316 477.97183 
L 277.252907 477.759622 
L 277.347573 477.603258 
L 278.136693 476.843776 
L 278.488909 476.715334 
L 278.807044 476.290918 
L 278.947802 476.145722 
L 279.533571 475.285721 
L 280.040506 475.073513 
L 280.209563 474.783123 
L 280.390664 474.593252 
L 280.512199 474.386628 
L 280.614905 474.230264 
L 280.742117 474.018056 
L 280.933914 473.839355 
L 281.845517 473.007275 
L 281.998907 472.716885 
L 282.221153 472.398573 
L 282.29793 472.242209 
L 282.439847 472.035585 
L 283.048958 471.181168 
L 283.339733 471.024804 
L 283.580727 470.499868 
L 283.658492 470.265322 
L 283.825531 469.913503 
L 283.916493 469.645451 
L 284.081906 469.388567 
L 284.801481 468.550904 
L 285.031333 468.383371 
L 285.173587 468.316358 
L 285.284466 468.154409 
L 285.447144 467.90311 
L 285.575609 467.646227 
L 286.320317 466.624277 
L 286.69217 466.35064 
L 287.48325 464.859598 
L 288.207039 464.334662 
L 288.331521 464.200636 
L 288.579902 463.62544 
L 288.756205 463.362972 
L 288.867882 462.932971 
L 289.038068 462.687257 
L 289.43157 462.100892 
L 289.683245 461.955697 
L 290.001443 461.73232 
L 290.150402 461.49219 
L 290.243737 461.296735 
L 290.527693 460.654526 
L 290.648729 460.531668 
L 290.943449 459.956473 
L 291.060452 459.8392 
L 291.259978 459.783355 
L 291.622334 459.526472 
L 291.760617 459.375692 
L 292.063242 458.951276 
L 292.149623 458.783743 
L 292.293854 458.582704 
L 292.405637 458.37608 
L 292.609919 458.007508 
L 292.710465 457.884651 
L 293.118189 457.717118 
L 293.995671 456.650493 
L 294.253574 456.186985 
L 294.803765 455.94127 
L 294.977116 455.695556 
L 295.090187 455.533607 
L 295.402193 455.086853 
L 295.605908 454.785294 
L 295.821718 454.550748 
L 296.053372 454.293865 
L 296.571082 453.841526 
L 296.800042 453.36685 
L 297.477991 452.037757 
L 298.045861 451.658016 
L 298.194901 451.496068 
L 298.259155 451.334119 
L 298.49441 451.216846 
L 299.233876 450.273078 
L 299.742463 450.122299 
L 299.842903 449.954766 
L 300.163521 449.424246 
L 300.281404 449.251129 
L 300.457129 448.888141 
L 300.724312 448.463725 
L 300.815088 448.296192 
L 300.908484 448.223594 
L 301.358906 448.083984 
L 301.860258 447.279826 
L 302.171287 446.676708 
L 302.321125 446.475669 
L 302.404456 446.330474 
L 302.497086 446.084759 
L 302.884879 445.928395 
L 303.070041 445.772031 
L 304.316984 443.320468 
L 304.700817 443.041247 
L 305.31611 441.377088 
L 305.423057 441.243062 
L 305.667761 440.706957 
L 305.774906 440.472411 
L 305.983405 440.416567 
L 306.372441 440.209943 
L 306.477119 439.925138 
L 306.55435 439.785527 
L 306.696101 439.411371 
L 306.827044 439.260591 
L 306.942962 438.942279 
L 307.042175 438.785915 
L 307.215333 438.378252 
L 307.318701 438.154875 
L 307.440155 437.953835 
L 307.867484 437.786303 
L 308.12127 437.551757 
L 308.400208 437.049158 
L 308.705919 436.429287 
L 308.889877 436.021624 
L 309.097122 435.647468 
L 309.465651 435.496688 
L 309.909287 434.798635 
L 310.026116 434.474738 
L 310.145117 434.206686 
L 310.248895 433.838114 
L 310.325433 433.704087 
L 310.440526 433.413697 
L 310.649389 432.978112 
L 310.755075 432.821748 
L 310.868453 432.682138 
L 310.967346 432.570449 
L 311.309534 432.341488 
L 311.428182 432.123695 
L 311.578462 431.794214 
L 311.711419 431.582006 
L 311.786207 431.408889 
L 312.392445 430.124471 
L 312.753069 429.951353 
L 312.887524 429.834081 
L 313.033882 429.566028 
L 313.159504 429.314729 
L 313.826672 427.868363 
L 314.461478 427.471868 
L 314.529808 427.354596 
L 314.684923 426.997192 
L 315.07715 426.165113 
L 315.388236 425.249267 
L 315.494054 425.081734 
L 315.862016 424.646149 
L 316.123354 424.506538 
L 316.368785 423.970434 
L 316.459643 423.830823 
L 316.968879 422.881471 
L 317.101048 422.613418 
L 317.422182 422.144326 
L 317.846277 421.809261 
L 318.182637 421.094454 
L 318.30196 420.882246 
L 318.415841 420.630947 
L 318.638366 420.150686 
L 318.770704 419.932894 
L 319.023028 419.480555 
L 319.48082 419.139905 
L 319.630758 418.776918 
L 319.750876 418.56471 
L 320.103501 417.788474 
L 320.233996 417.54276 
L 320.405887 417.163019 
L 320.510818 416.872629 
L 320.624823 416.839122 
L 321.06569 416.582238 
L 321.173541 416.403537 
L 321.294786 416.224835 
L 321.412321 415.984705 
L 321.971426 414.811975 
L 322.11346 414.543923 
L 322.226946 414.370806 
L 322.54286 414.231195 
L 322.698686 414.058078 
L 322.799514 413.857039 
L 323.213455 413.209245 
L 323.268092 413.019375 
L 323.376513 412.863011 
L 323.970371 412.047685 
L 324.325321 411.885736 
L 324.973716 410.623656 
L 325.084202 410.467292 
L 325.701722 409.434174 
L 325.997376 409.266641 
L 326.129736 408.993004 
L 326.472247 408.339626 
L 326.585807 408.15534 
L 326.737579 407.892872 
L 326.948488 407.697417 
L 327.250101 407.513131 
L 327.648973 407.340014 
L 327.952879 406.831831 
L 328.096122 406.630792 
L 328.208418 406.418584 
L 328.395711 405.787544 
L 328.52365 405.435725 
L 328.543255 405.318452 
L 328.648661 405.028062 
L 328.717401 404.821438 
L 328.963741 404.50871 
L 329.29424 404.251827 
L 329.439738 403.883254 
L 329.635801 403.581695 
L 329.785026 403.207539 
L 330.082142 402.542992 
L 330.219465 402.241433 
L 330.270645 402.012472 
L 330.503629 401.649484 
L 330.8306 401.504289 
L 330.977417 401.336756 
L 331.181163 400.951431 
L 331.638884 400.298053 
L 331.739017 400.141689 
L 332.324631 399.605584 
L 332.618728 399.387792 
L 332.90522 398.974544 
L 333.046904 398.801427 
L 333.731381 398.019608 
L 334.492484 397.840906 
L 334.727039 397.667789 
L 334.823414 397.611944 
L 335.1041 397.455581 
L 335.241555 397.394152 
L 336.113405 397.16519 
L 336.30365 396.92506 
L 336.482116 396.673761 
L 336.648045 396.53415 
L 336.651773 396.522981 
L 336.894898 396.405709 
L 337.050067 396.271682 
L 337.480458 396.10415 
L 337.60564 395.886357 
L 337.893655 395.478694 
L 338.034375 395.288823 
L 338.153272 395.065446 
L 338.310968 394.814147 
L 338.606454 394.361809 
L 339.179938 394.116094 
L 339.325464 393.892717 
L 339.421676 393.736353 
L 339.533581 393.540898 
L 339.692468 393.323106 
L 339.95709 392.842845 
L 340.091433 392.669728 
L 340.205611 392.463104 
L 340.905567 392.005181 
L 342.00122 390.234918 
L 342.478959 390.000372 
L 342.582077 389.838424 
L 342.726322 389.687644 
L 342.859694 389.458683 
L 343.019056 389.224137 
L 343.130356 389.067773 
L 343.234329 388.894656 
L 343.649591 388.459071 
L 344.018923 388.308291 
L 344.145457 388.090499 
L 344.914418 386.995951 
L 345.075444 386.828419 
L 345.296328 386.627379 
L 345.723682 386.487769 
L 345.867536 386.158287 
L 345.981484 385.968417 
L 346.131615 385.705949 
L 346.235656 385.527247 
L 346.586625 384.818025 
L 346.78446 384.48296 
L 346.973373 384.376856 
L 347.1955 384.242829 
L 347.347205 384.131141 
L 347.562966 383.930102 
L 347.685008 383.595036 
L 347.79478 383.388412 
L 348.61077 382.081657 
L 349.020242 381.785682 
L 349.269423 381.271915 
L 349.380872 380.97594 
L 349.790552 380.249965 
L 350.0651 379.825549 
L 350.182629 379.76412 
L 350.701723 379.417886 
L 350.820133 379.194509 
L 350.931372 379.03256 
L 351.060489 378.697495 
L 351.218625 378.435027 
L 351.891955 377.346064 
L 352.244018 377.195284 
L 352.410941 376.865803 
L 353.178092 375.542294 
L 353.294794 375.318917 
L 353.44953 375.179307 
L 354.103963 374.710215 
L 354.39086 374.22437 
L 354.847138 373.638005 
L 354.962033 373.487226 
L 355.269884 373.353199 
L 355.540505 373.224758 
L 356.068491 372.554627 
L 356.207879 372.403847 
L 356.817164 371.795145 
L 357.219164 371.622027 
L 357.331311 371.432157 
L 358.556002 370.119817 
L 358.855351 369.985791 
L 359.102704 369.628387 
L 359.213417 369.438517 
L 359.348981 369.31566 
L 359.884869 368.617606 
L 360.580831 368.505918 
L 360.698979 368.383061 
L 360.825719 368.170852 
L 361.727789 367.266175 
L 362.095599 367.042798 
L 363.528763 365.289289 
L 363.83441 365.160847 
L 364.069004 364.83695 
L 364.206467 364.635911 
L 364.296495 364.501885 
L 364.506398 364.133313 
L 364.608208 363.971364 
L 364.747365 363.798247 
L 364.930642 363.664221 
L 365.381606 363.502273 
L 365.566508 363.239805 
L 365.891059 362.854479 
L 366.371598 362.067075 
L 366.580038 361.888374 
L 366.921546 361.726425 
L 367.113932 361.519801 
L 367.311696 361.184736 
L 367.428968 360.966943 
L 367.582445 360.693306 
L 367.712463 360.469929 
L 367.86948 360.229799 
L 368.255555 359.649019 
L 368.63537 359.481486 
L 368.772674 359.235771 
L 369.705839 357.59395 
L 369.854694 357.415249 
L 370.53293 357.141612 
L 370.651391 356.968495 
L 371.753646 355.354596 
L 371.976218 355.2094 
L 372.072159 355.041868 
L 372.187727 354.807322 
L 372.429063 354.321477 
L 373.212781 353.36654 
L 373.521853 353.204592 
L 373.770153 352.808097 
L 373.917947 352.461863 
L 374.013182 352.24407 
L 374.129912 352.0542 
L 374.775718 351.088094 
L 375.333583 350.836795 
L 375.502785 350.607834 
L 375.81574 350.121989 
L 375.909337 350.004716 
L 376.028318 349.859521 
L 376.144923 349.697572 
L 376.258195 349.524455 
L 376.442484 349.301078 
L 376.846244 349.167052 
L 376.958129 348.93809 
L 377.687408 347.782114 
L 377.828594 347.530815 
L 377.939262 347.340945 
L 378.07119 347.290685 
L 379.288177 346.318995 
L 379.405124 346.157046 
L 379.486957 346.028605 
L 379.614063 345.771721 
L 380.158884 345.526006 
L 380.576816 345.006655 
L 380.706655 344.833538 
L 381.239368 343.984705 
L 381.795065 343.755743 
L 381.928367 343.476522 
L 382.107758 343.102366 
L 382.246738 342.784053 
L 383.121637 341.298596 
L 383.427787 341.170154 
L 383.54021 340.952362 
L 383.919574 340.561452 
L 384.028915 340.33249 
L 384.214563 339.980672 
L 384.377556 339.723788 
L 384.452057 339.595346 
L 384.586099 339.422229 
L 385.290955 338.858202 
L 385.424352 338.562228 
L 385.557807 338.417032 
L 385.639638 338.260669 
L 385.901524 337.847421 
L 386.138255 337.484433 
L 386.356998 337.350407 
L 386.68716 337.182874 
L 386.809355 336.998588 
L 387.132915 336.490406 
L 387.272316 336.283782 
L 387.413068 336.010145 
L 387.528522 335.837028 
L 387.646902 335.647157 
L 387.797548 335.446118 
L 387.95932 335.340014 
L 388.327097 335.178066 
L 388.566491 334.770403 
L 388.675299 334.535857 
L 388.80691 334.318064 
L 389.70828 333.050399 
L 389.946278 332.905204 
L 390.224036 332.402606 
L 390.324256 332.123385 
L 390.487344 331.82741 
L 390.584582 331.63754 
L 390.999562 330.995331 
L 391.072364 330.799876 
L 391.217105 330.61559 
L 391.911838 329.956628 
L 392.490375 328.694547 
L 392.636582 328.426495 
L 392.899806 328.080261 
L 393.340388 327.84013 
L 393.468343 327.711689 
L 393.851803 327.052726 
L 394.632774 325.958179 
L 394.916182 325.824153 
L 395.602575 324.668177 
L 395.721011 324.522981 
L 395.861381 324.338695 
L 395.98284 324.10415 
L 396.140982 323.981292 
L 396.482106 323.830513 
L 396.594329 323.674149 
L 397.799393 322.032328 
L 398.319944 321.613496 
L 398.541246 321.295183 
L 398.660903 321.055053 
L 399.148251 320.323493 
L 399.261328 320.183883 
L 399.509353 320.038688 
L 399.898522 319.871155 
L 400.087567 319.614271 
L 400.213764 319.418816 
L 400.566946 318.9944 
L 400.827771 318.771023 
L 400.924634 318.620244 
L 401.490467 318.46388 
L 401.612474 318.279594 
L 401.737243 318.100892 
L 401.84244 317.927775 
L 402.252446 317.201799 
L 402.342043 316.989591 
L 402.596464 316.542837 
L 403.055061 316.408811 
L 403.166925 316.202187 
L 403.256658 316.040239 
L 403.363214 315.822446 
L 403.574595 315.453874 
L 403.685941 315.230497 
L 403.754499 315.079718 
L 403.902676 314.783743 
L 405.091917 313.320624 
L 405.179712 313.169844 
L 405.253054 313.041402 
L 405.273208 313.007896 
L 405.473148 312.890623 
L 405.604935 312.661661 
L 405.98469 312.153479 
L 406.38293 312.008284 
L 406.495872 311.868673 
L 406.672017 311.533607 
L 406.875448 311.192957 
L 407.00689 310.980749 
L 407.13684 310.82997 
L 407.280344 310.556333 
L 407.400864 310.411138 
L 408.248742 309.601396 
L 408.372668 309.333344 
L 408.512888 309.054122 
L 408.662232 308.78607 
L 408.846092 308.406329 
L 409.085437 307.953991 
L 409.244329 307.825549 
L 409.554916 307.641263 
L 409.828763 307.18334 
L 409.890709 307.043729 
L 410.344886 306.072039 
L 410.42578 305.871 
L 410.941355 305.184115 
L 411.326119 304.977492 
L 411.51745 304.469309 
L 411.803788 304.06723 
L 411.902683 303.821516 
L 412.01928 303.620476 
L 412.232883 303.425021 
L 412.387258 303.190475 
L 413.031776 302.860994 
L 413.164141 302.604111 
L 413.335166 302.319305 
L 414.090587 301.068394 
L 414.196747 301.006965 
L 414.49694 300.928783 
L 414.663355 300.755666 
L 415.34399 300.018522 
L 415.563946 299.811898 
L 415.724741 299.716963 
L 416.251702 299.460079 
L 416.375986 299.292546 
L 416.468315 299.147351 
L 416.585524 298.996572 
L 416.71685 298.840208 
L 417.335638 298.147739 
L 417.91386 297.812674 
L 418.179914 297.337997 
L 418.331502 297.170465 
L 419.077371 296.271372 
L 419.951231 296.025657 
L 420.036825 295.919553 
L 420.244272 295.785527 
L 420.61733 295.617994 
L 421.44799 295.428124 
L 421.5983 295.27176 
L 421.772795 295.098643 
L 421.886646 294.936694 
L 422.001229 294.858512 
L 422.0912 294.707733 
L 422.320781 294.411758 
L 422.92561 294.121368 
L 423.303989 293.641108 
L 423.516122 293.222276 
L 423.902867 292.719677 
L 424.392145 292.54656 
L 424.980312 291.837338 
L 425.211188 291.479935 
L 425.326088 291.273311 
L 425.441051 291.128116 
L 425.633947 290.854479 
L 426.041085 290.720453 
L 426.225263 290.474738 
L 426.355891 290.21227 
L 426.444855 290.044737 
L 427.125227 289.084216 
L 427.777275 288.670969 
L 428.084567 288.07902 
L 428.302887 287.693694 
L 428.525226 287.274862 
L 428.974253 286.694082 
L 429.386242 286.532134 
L 429.980174 285.588366 
L 430.094512 285.348235 
L 430.224001 285.102521 
L 430.371122 284.985248 
L 430.482954 284.817715 
L 430.616591 284.72278 
L 430.818646 284.594338 
L 431.316436 284.136415 
L 431.606152 283.684077 
L 431.807414 283.471868 
L 431.919002 283.248491 
L 432.091541 283.125634 
L 432.197986 282.991608 
L 432.729581 282.835244 
L 432.84287 282.695633 
L 432.996037 282.567191 
L 433.165494 282.315892 
L 433.276701 282.14836 
L 433.389775 281.908229 
L 433.456605 281.774203 
L 433.635391 281.394462 
L 433.780089 281.148747 
L 434.151885 280.869526 
L 434.315472 280.741084 
L 434.621804 280.210564 
L 434.747504 279.959265 
L 434.952579 279.657706 
L 435.07349 279.439913 
L 435.227813 279.194198 
L 435.344651 279.015497 
L 435.498787 278.892639 
L 435.916768 278.758613 
L 436.723766 277.859521 
L 436.942343 277.591468 
L 437.065075 277.463026 
L 437.586554 277.295494 
L 437.716529 277.105623 
L 437.949266 276.720298 
L 438.153529 276.401986 
L 438.323602 276.228868 
L 438.429393 276.089258 
L 438.562862 275.927309 
L 438.818531 275.709517 
L 438.944853 275.67601 
L 439.253589 275.553153 
L 439.708477 274.849515 
L 439.830178 274.665229 
L 440.231254 274.129124 
L 440.385707 273.97276 
L 440.498542 273.944838 
L 440.594874 273.916916 
L 440.769701 273.799643 
L 440.883326 273.553928 
L 440.967666 273.375227 
L 441.218038 273.056915 
L 441.603655 272.498472 
L 442.351261 271.906523 
L 442.515782 271.78925 
L 442.812765 271.515613 
L 442.951539 271.359249 
L 443.036954 271.225223 
L 443.475238 270.811975 
L 443.589072 270.655612 
L 443.696746 270.571845 
L 444.082151 270.437819 
L 444.235655 270.298208 
L 444.662751 269.700675 
L 444.910741 269.253921 
L 445.091887 268.946777 
L 445.251749 268.712231 
L 445.785062 268.405088 
L 445.903978 268.170542 
L 446.092815 267.790801 
L 446.597546 267.025735 
L 446.703945 266.886124 
L 447.29055 266.584565 
L 447.381547 266.456123 
L 447.503481 266.227162 
L 448.501334 264.814302 
L 449.610026 264.25586 
L 449.733235 264.138587 
L 449.958133 263.959885 
L 450.374171 263.725339 
L 450.82589 263.507547 
L 450.938874 263.351183 
L 451.193043 263.060793 
L 451.358579 262.736896 
L 451.537761 262.463259 
L 451.702029 262.329233 
L 452.44862 261.776375 
L 453.739482 260.31884 
L 454.05403 260.173645 
L 454.416893 259.732475 
L 454.525672 259.592864 
L 454.650585 259.369487 
L 454.779162 259.207539 
L 455.110111 258.744032 
L 455.580374 258.593252 
L 455.761931 258.425719 
L 455.885211 258.291693 
L 456.014802 258.029225 
L 456.586884 257.336756 
L 456.693172 257.191561 
L 457.311308 257.074288 
L 457.969782 256.085845 
L 458.116493 255.935066 
L 458.223687 255.84013 
L 458.928229 255.560909 
L 459.050912 255.387792 
L 459.249639 255.214675 
L 459.398744 255.052726 
L 459.639033 254.851687 
L 459.789446 254.667401 
L 460.046616 254.449608 
L 460.661461 254.270907 
L 460.798512 254.18714 
L 460.912664 254.014023 
L 461.01217 253.902335 
L 461.246785 253.70688 
L 461.381703 253.472334 
L 461.58445 253.221035 
L 462.585237 252.528566 
L 463.556478 251.607136 
L 463.853483 251.473109 
L 464.175746 251.004018 
L 464.354811 250.802978 
L 464.409265 250.685705 
L 464.587958 250.562848 
L 464.904816 250.188692 
L 465.589111 249.836873 
L 465.721031 249.680509 
L 465.859825 249.512976 
L 466.005985 249.384534 
L 466.223697 249.066222 
L 466.332606 248.971287 
L 466.546839 248.764663 
L 466.665479 248.59713 
L 467.1649 248.440766 
L 467.398215 248.144792 
L 467.530783 247.96609 
L 467.639231 247.899077 
L 468.309259 247.122842 
L 468.844441 246.932971 
L 468.984969 246.75427 
L 469.773034 245.749073 
L 470.41197 245.514527 
L 471.635149 244.274785 
L 472.048287 244.146343 
L 472.426669 243.615823 
L 472.565907 243.437121 
L 473.353549 242.4766 
L 473.697089 242.336989 
L 473.816925 242.225301 
L 473.954465 242.063352 
L 474.074671 241.918157 
L 474.242689 241.722702 
L 474.377013 241.516078 
L 474.814752 241.069324 
L 475.390603 240.845947 
L 475.98848 240.025037 
L 476.082499 239.896595 
L 476.468509 239.421919 
L 477.124454 239.086853 
L 477.246236 238.936074 
L 477.993291 237.824773 
L 478.928767 237.31659 
L 479.048175 237.121135 
L 479.17622 236.953603 
L 479.447769 236.518018 
L 479.735342 236.20529 
L 480.249912 236.060095 
L 480.38187 235.886977 
L 480.492312 235.819964 
L 480.698538 235.641263 
L 480.978558 235.166587 
L 481.142243 234.993469 
L 481.270177 234.814768 
L 481.997312 234.429442 
L 482.122673 234.289832 
L 482.255592 234.133468 
L 482.371048 234.044117 
L 483.376671 233.105933 
L 483.718474 232.932816 
L 484.079652 232.452556 
L 484.257334 232.234763 
L 484.464414 231.871775 
L 485.749254 230.860994 
L 486.055783 230.509176 
L 486.239402 230.375149 
L 486.36694 230.308136 
L 486.459326 230.257876 
L 486.833361 230.140603 
L 487.145573 229.788785 
L 487.414677 229.570992 
L 487.558433 229.453719 
L 487.669548 229.263849 
L 487.786595 229.140991 
L 488.703438 228.426185 
L 488.814219 228.23073 
L 489.117096 227.878911 
L 489.235134 227.7393 
L 489.380239 227.616443 
L 490.298563 227.002156 
L 490.87227 226.298519 
L 491.186067 225.885271 
L 491.29284 225.818258 
L 491.715163 225.673063 
L 492.165056 225.058776 
L 492.277264 224.913581 
L 492.833179 224.265788 
L 493.472019 223.964229 
L 493.741512 223.668254 
L 494.582795 222.601629 
L 494.952505 222.445265 
L 495.6509 221.780718 
L 495.763421 221.680199 
L 495.931803 221.440068 
L 496.04676 221.300458 
L 496.185475 221.116172 
L 496.652762 220.970976 
L 497.447456 220.060715 
L 497.830275 219.898767 
L 498.019052 219.842923 
L 498.390604 219.72565 
L 498.495931 219.630714 
L 498.62415 219.479935 
L 498.723607 219.340324 
L 498.911047 219.150454 
L 499.031255 218.982921 
L 499.605676 218.541751 
L 500.036975 218.368634 
L 501.412486 217.106554 
L 501.745383 216.916683 
L 501.844252 216.804995 
L 502.024541 216.615124 
L 502.144171 216.50902 
L 502.676703 216.118111 
L 502.834806 216.039929 
L 503.309978 215.872396 
L 503.71676 215.408889 
L 504.10944 215.045901 
L 504.202149 214.962134 
L 505.348503 214.643822 
L 505.521438 214.548887 
L 505.687432 214.398108 
L 506.513029 213.979276 
L 507.290617 213.605119 
L 507.419044 213.398495 
L 507.605306 213.175118 
L 507.731647 213.091352 
L 508.260502 212.86239 
L 509.633793 211.639401 
L 509.891777 211.516544 
L 510.139455 211.298751 
L 510.261978 211.181478 
L 511.074451 210.315892 
L 511.48255 210.176282 
L 511.594316 210.081346 
L 512.083069 209.567579 
L 512.289919 209.282774 
L 512.479242 209.120825 
L 512.558103 209.031474 
L 512.861857 208.880695 
L 512.972901 208.830435 
L 513.337284 208.339006 
L 514.183599 207.283549 
L 514.690707 207.093679 
L 515.030052 206.730691 
L 515.152854 206.596665 
L 515.536973 206.317444 
L 515.655203 206.222508 
L 516.732867 205.463026 
L 516.878911 205.256403 
L 517.092151 204.93809 
L 517.271996 204.69796 
L 517.42891 204.513674 
L 517.549238 204.435492 
L 517.972033 204.279128 
L 518.105573 204.11718 
L 518.287428 203.910556 
L 518.507047 203.681595 
L 518.667755 203.480555 
L 518.796457 203.33536 
L 518.932518 203.106399 
L 519.143451 202.838346 
L 519.58351 202.659645 
L 519.952365 201.956007 
L 520.303337 201.626526 
L 520.473874 201.330551 
L 520.585024 201.084837 
L 520.718116 200.878213 
L 521.080035 200.727433 
L 521.356792 200.57107 
L 522.161787 199.085612 
L 522.30798 198.851066 
L 522.450494 198.644443 
L 523.029644 198.437819 
L 523.293261 198.23678 
L 524.383344 197.527558 
L 524.692921 197.410285 
L 524.808079 197.304181 
L 525.504577 196.67314 
L 525.688394 196.455348 
L 526.140848 196.310153 
L 526.450827 195.908074 
L 526.571646 195.768464 
L 527.090981 195.131839 
L 527.262544 194.902878 
L 527.690459 194.768851 
L 527.856836 194.629241 
L 528.16577 194.132227 
L 528.456574 193.746901 
L 528.645883 193.46768 
L 528.78399 193.333654 
L 529.141641 193.082355 
L 529.510786 192.903653 
L 529.769215 192.501574 
L 529.993192 192.239106 
L 530.407895 191.630404 
L 530.532766 191.462871 
L 530.816262 191.261832 
L 531.1235 191.105468 
L 531.459334 190.669883 
L 531.559907 190.513519 
L 531.669776 190.357155 
L 531.848869 190.11144 
L 531.945282 189.966245 
L 532.242471 189.608842 
L 532.735154 189.43014 
L 533.108481 189.022477 
L 533.220437 188.854945 
L 533.935632 187.900008 
L 534.195817 187.754813 
L 534.51037 187.559358 
L 534.857438 187.140526 
L 535.171989 186.900396 
L 535.286938 186.677019 
L 535.594493 186.330784 
L 535.850149 186.185589 
L 536.453374 185.59364 
L 536.710322 185.258574 
L 536.822636 185.06312 
L 537.194093 184.487924 
L 537.689083 184.337144 
L 538.053805 183.834546 
L 538.164024 183.70052 
L 538.333785 183.421298 
L 538.489902 183.287272 
L 539.063479 182.739998 
L 539.384583 182.544544 
L 539.530559 182.404933 
L 539.612031 182.259738 
L 540.506506 181.338308 
L 540.873111 181.148437 
L 541.082278 180.930645 
L 541.235518 180.785449 
L 542.405075 179.651811 
L 542.760137 179.461941 
L 542.910094 179.316746 
L 543.201072 179.037524 
L 543.31813 178.970511 
L 543.747077 178.69129 
L 543.959522 178.629861 
L 544.234723 178.495835 
L 544.394104 178.328302 
L 544.864205 177.881548 
L 544.999335 177.736353 
L 545.506595 177.222586 
L 546.035941 176.976871 
L 546.984169 176.010766 
L 547.451762 175.848817 
L 547.908794 175.429985 
L 548.060895 175.262452 
L 548.896119 174.447126 
L 549.294405 174.167905 
L 549.408654 174.011541 
L 549.85808 173.531281 
L 549.976166 173.285566 
L 550.159372 173.140371 
L 550.290695 173.084526 
L 550.789622 172.928163 
L 550.991349 172.715954 
L 551.992051 171.548809 
L 552.393971 171.403614 
L 552.694083 171.090887 
L 553.201148 170.571535 
L 553.355894 170.303483 
L 553.489002 170.158287 
L 553.929704 169.990755 
L 554.136866 169.834391 
L 555.570189 168.388025 
L 555.874776 168.186985 
L 556.38491 167.567114 
L 556.508705 167.433088 
L 557.139235 166.891398 
L 557.431163 166.746203 
L 557.78966 166.360878 
L 558.513188 165.249577 
L 559.0401 165.07646 
L 559.238581 164.802823 
L 559.383081 164.551524 
L 559.739586 164.071263 
L 559.873338 163.931653 
L 560.055282 163.758536 
L 560.213795 163.585418 
L 560.750153 163.283859 
L 561.010487 162.887365 
L 561.131414 162.708664 
L 561.305712 162.446196 
L 562.041131 161.630869 
L 562.288524 161.508012 
L 562.936517 160.486062 
L 563.087378 160.340867 
L 563.560738 159.92762 
L 563.982358 159.771256 
L 565.449205 158.475669 
L 565.657088 158.341643 
L 566.126309 157.822291 
L 566.87788 157.057225 
L 567.250724 156.928783 
L 567.363426 156.828263 
L 567.721815 156.515536 
L 567.83706 156.375925 
L 568.248298 155.817482 
L 568.359763 155.756054 
L 568.671188 155.610859 
L 570.346911 153.89644 
L 570.547112 153.74566 
L 570.68895 153.60605 
L 570.852163 153.466439 
L 570.977535 153.343582 
L 571.080607 153.203971 
L 571.217748 153.058776 
L 571.640421 152.600853 
L 572.083839 152.427736 
L 572.485753 152.036826 
L 572.594385 151.846956 
L 572.862154 151.528643 
L 573.230502 151.003707 
L 573.407624 150.797084 
L 573.731176 150.651889 
L 573.86677 150.456434 
L 574.015262 150.283317 
L 574.670563 149.535003 
L 575.431381 149.138509 
L 576.201512 148.284092 
L 576.323816 148.105391 
L 576.426285 147.943442 
L 576.562229 147.731234 
L 576.945447 147.57487 
L 577.585913 146.854479 
L 577.835371 146.60318 
L 578.018347 146.396556 
L 578.588787 146.26253 
L 578.721947 146.201101 
L 579.835062 144.391747 
L 580.119063 144.213046 
L 580.257075 144.129279 
L 580.471951 143.956162 
L 580.616915 143.816552 
L 580.747267 143.643434 
L 580.921953 143.274862 
L 581.065175 143.068239 
L 581.176455 142.833693 
L 581.329611 142.632653 
L 581.458766 142.453952 
L 581.764433 142.336679 
L 582.156098 142.124471 
L 582.26975 142.03512 
L 582.449239 141.878756 
L 584.051699 140.840053 
L 584.392099 140.477065 
L 585.367199 140.013558 
L 585.562169 139.818103 
L 585.768259 139.589141 
L 586.664828 138.784984 
L 586.921632 138.623036 
L 587.971686 137.489397 
L 588.621544 137.226929 
L 589.775466 136.115629 
L 590.184785 135.959265 
L 590.377891 135.786148 
L 590.503195 135.657706 
L 590.85487 135.47342 
L 590.981336 135.350562 
L 591.251626 135.194198 
L 593.825544 133.792508 
L 593.934754 133.697572 
L 594.088144 133.507702 
L 594.196084 133.356922 
L 594.377624 133.077701 
L 594.529565 132.887831 
L 595.172425 132.547181 
L 595.471904 132.228868 
L 595.609558 132.055751 
L 596.724486 131.273932 
L 596.952634 131.117568 
L 597.94506 130.307826 
L 598.484115 130.1738 
L 598.966885 129.715877 
L 599.073254 129.548344 
L 599.266992 129.414318 
L 599.37906 129.352889 
L 600.17075 128.995486 
L 600.427222 128.721849 
L 600.665908 128.543147 
L 600.802848 128.397952 
L 601.41134 128.018211 
L 601.770399 127.88977 
L 603.059211 126.655612 
L 603.410067 126.465741 
L 603.575874 126.331715 
L 603.708095 126.18652 
L 603.816358 126.030156 
L 604.176578 125.667168 
L 604.423901 125.449376 
L 604.863121 125.337687 
L 605.047003 125.186908 
L 605.130977 125.019375 
L 605.238686 124.918855 
L 605.354699 124.762491 
L 605.544348 124.539114 
L 605.814828 124.254309 
L 605.925074 124.170542 
L 606.172755 123.935996 
L 606.214218 123.913659 
L 606.649577 123.774048 
L 606.962093 123.494827 
L 607.305915 123.131839 
L 607.409266 123.003397 
L 607.537613 122.819111 
L 607.682414 122.662747 
L 607.787589 122.556643 
L 608.322883 122.400279 
L 608.429314 122.271837 
L 608.722281 122.04846 
L 608.844392 121.847421 
L 609.354135 121.557031 
L 610.007594 121.350407 
L 610.123362 121.27781 
L 610.317374 121.110277 
L 610.96222 120.451315 
L 611.073712 120.406639 
L 611.720203 119.976638 
L 611.908641 119.736508 
L 612.072996 119.563391 
L 612.240596 119.407027 
L 613.027628 118.675467 
L 613.725432 118.256635 
L 613.835651 118.1617 
L 614.006782 117.943908 
L 614.561893 117.53066 
L 614.905059 117.351958 
L 615.001735 117.279361 
L 615.177777 117.150919 
L 615.603752 116.737672 
L 615.956999 116.380268 
L 616.544846 116.151307 
L 616.631941 116.084294 
L 616.87325 115.933514 
L 617.240859 115.620786 
L 617.487655 115.425332 
L 618.697886 114.71611 
L 619.163224 114.191174 
L 619.250899 114.12416 
L 619.775613 113.923121 
L 620.181389 113.554549 
L 621.212421 112.890002 
L 621.482456 112.705716 
L 621.590125 112.616365 
L 621.845547 112.437664 
L 622.010241 112.208702 
L 622.636364 111.6 
L 622.636364 111.6 
" style="fill:none;stroke:#92c6ff;stroke-linecap:round;stroke-width:1.5;"/>
   </g>
   <g id="line2d_24">
    <defs>
     <path d="M 0 2.5 
C 0.663008 2.5 1.29895 2.236584 1.767767 1.767767 
C 2.236584 1.29895 2.5 0.663008 2.5 0 
C 2.5 -0.663008 2.236584 -1.29895 1.767767 -1.767767 
C 1.29895 -2.236584 0.663008 -2.5 0 -2.5 
C -0.663008 -2.5 -1.29895 -2.236584 -1.767767 -1.767767 
C -2.236584 -1.29895 -2.5 -0.663008 -2.5 0 
C -2.5 0.663008 -2.236584 1.29895 -1.767767 1.767767 
C -1.29895 2.236584 -0.663008 2.5 0 2.5 
z
" id="m1a211932da" style="stroke:#696969;"/>
    </defs>
    <g clip-path="url(#pb045edb478)">
     <use style="fill:#696969;stroke:#696969;" x="115.363636" xlink:href="#m1a211932da" y="615.6"/>
    </g>
   </g>
   <g id="line2d_25">
    <g clip-path="url(#pb045edb478)">
     <use style="fill:#696969;stroke:#696969;" x="199.577756" xlink:href="#m1a211932da" y="565.194974"/>
    </g>
   </g>
   <g id="line2d_26">
    <g clip-path="url(#pb045edb478)">
     <use style="fill:#696969;stroke:#696969;" x="243.043303" xlink:href="#m1a211932da" y="514.789948"/>
    </g>
   </g>
   <g id="line2d_27">
    <g clip-path="url(#pb045edb478)">
     <use style="fill:#696969;stroke:#696969;" x="288.018259" xlink:href="#m1a211932da" y="464.390506"/>
    </g>
   </g>
   <g id="line2d_28">
    <g clip-path="url(#pb045edb478)">
     <use style="fill:#696969;stroke:#696969;" x="322.735672" xlink:href="#m1a211932da" y="413.991065"/>
    </g>
   </g>
   <g id="line2d_29">
    <g clip-path="url(#pb045edb478)">
     <use style="fill:#696969;stroke:#696969;" x="365.296039" xlink:href="#m1a211932da" y="363.591623"/>
    </g>
   </g>
   <g id="line2d_30">
    <g clip-path="url(#pb045edb478)">
     <use style="fill:#696969;stroke:#696969;" x="405.174108" xlink:href="#m1a211932da" y="313.192182"/>
    </g>
   </g>
   <g id="line2d_31">
    <g clip-path="url(#pb045edb478)">
     <use style="fill:#696969;stroke:#696969;" x="451.330827" xlink:href="#m1a211932da" y="262.79274"/>
    </g>
   </g>
   <g id="line2d_32">
    <g clip-path="url(#pb045edb478)">
     <use style="fill:#696969;stroke:#696969;" x="508.705591" xlink:href="#m1a211932da" y="212.393299"/>
    </g>
   </g>
   <g id="line2d_33">
    <g clip-path="url(#pb045edb478)">
     <use style="fill:#696969;stroke:#696969;" x="561.656499" xlink:href="#m1a211932da" y="161.993857"/>
    </g>
   </g>
   <g id="line2d_34">
    <g clip-path="url(#pb045edb478)">
     <use style="fill:#696969;stroke:#696969;" x="622.636364" xlink:href="#m1a211932da" y="111.6"/>
    </g>
   </g>
   <g id="patch_3">
    <path d="M 90 640.8 
L 90 86.4 
" style="fill:none;stroke:#cccccc;stroke-linecap:square;stroke-linejoin:miter;"/>
   </g>
   <g id="patch_4">
    <path d="M 648 640.8 
L 648 86.4 
" style="fill:none;stroke:#cccccc;stroke-linecap:square;stroke-linejoin:miter;"/>
   </g>
   <g id="patch_5">
    <path d="M 90 640.8 
L 648 640.8 
" style="fill:none;stroke:#cccccc;stroke-linecap:square;stroke-linejoin:miter;"/>
   </g>
   <g id="patch_6">
    <path d="M 90 86.4 
L 648 86.4 
" style="fill:none;stroke:#cccccc;stroke-linecap:square;stroke-linejoin:miter;"/>
   </g>
   <g id="text_12">
    <!-- 1 (2014-06-06) -->
    <defs>
     <path id="DejaVuSans-32"/>
     <path d="M 31 75.875 
Q 24.46875 64.65625 21.28125 53.65625 
Q 18.109375 42.671875 18.109375 31.390625 
Q 18.109375 20.125 21.3125 9.0625 
Q 24.515625 -2 31 -13.1875 
L 23.1875 -13.1875 
Q 15.875 -1.703125 12.234375 9.375 
Q 8.59375 20.453125 8.59375 31.390625 
Q 8.59375 42.28125 12.203125 53.3125 
Q 15.828125 64.359375 23.1875 75.875 
z
" id="DejaVuSans-40"/>
     <path d="M 4.890625 31.390625 
L 31.203125 31.390625 
L 31.203125 23.390625 
L 4.890625 23.390625 
z
" id="DejaVuSans-45"/>
     <path d="M 8.015625 75.875 
L 15.828125 75.875 
Q 23.140625 64.359375 26.78125 53.3125 
Q 30.421875 42.28125 30.421875 31.390625 
Q 30.421875 20.453125 26.78125 9.375 
Q 23.140625 -1.703125 15.828125 -13.1875 
L 8.015625 -13.1875 
Q 14.5 -2 17.703125 9.0625 
Q 20.90625 20.125 20.90625 31.390625 
Q 20.90625 42.671875 17.703125 53.65625 
Q 14.5 64.65625 8.015625 75.875 
z
" id="DejaVuSans-41"/>
    </defs>
    <g style="fill:#262626;" transform="translate(120.363636 623.198437)scale(0.1 -0.1)">
     <use xlink:href="#DejaVuSans-49"/>
     <use x="63.623047" xlink:href="#DejaVuSans-32"/>
     <use x="95.410156" xlink:href="#DejaVuSans-40"/>
     <use x="134.423828" xlink:href="#DejaVuSans-50"/>
     <use x="198.046875" xlink:href="#DejaVuSans-48"/>
     <use x="261.669922" xlink:href="#DejaVuSans-49"/>
     <use x="325.292969" xlink:href="#DejaVuSans-52"/>
     <use x="388.916016" xlink:href="#DejaVuSans-45"/>
     <use x="425" xlink:href="#DejaVuSans-48"/>
     <use x="488.623047" xlink:href="#DejaVuSans-54"/>
     <use x="552.246094" xlink:href="#DejaVuSans-45"/>
     <use x="588.330078" xlink:href="#DejaVuSans-48"/>
     <use x="651.953125" xlink:href="#DejaVuSans-54"/>
     <use x="715.576172" xlink:href="#DejaVuSans-41"/>
    </g>
   </g>
   <g id="text_13">
    <!-- 9027 (2015-06-01) -->
    <g style="fill:#262626;" transform="translate(204.577756 572.793412)scale(0.1 -0.1)">
     <use xlink:href="#DejaVuSans-57"/>
     <use x="63.623047" xlink:href="#DejaVuSans-48"/>
     <use x="127.246094" xlink:href="#DejaVuSans-50"/>
     <use x="190.869141" xlink:href="#DejaVuSans-55"/>
     <use x="254.492188" xlink:href="#DejaVuSans-32"/>
     <use x="286.279297" xlink:href="#DejaVuSans-40"/>
     <use x="325.292969" xlink:href="#DejaVuSans-50"/>
     <use x="388.916016" xlink:href="#DejaVuSans-48"/>
     <use x="452.539062" xlink:href="#DejaVuSans-49"/>
     <use x="516.162109" xlink:href="#DejaVuSans-53"/>
     <use x="579.785156" xlink:href="#DejaVuSans-45"/>
     <use x="615.869141" xlink:href="#DejaVuSans-48"/>
     <use x="679.492188" xlink:href="#DejaVuSans-54"/>
     <use x="743.115234" xlink:href="#DejaVuSans-45"/>
     <use x="779.199219" xlink:href="#DejaVuSans-48"/>
     <use x="842.822266" xlink:href="#DejaVuSans-49"/>
     <use x="906.445312" xlink:href="#DejaVuSans-41"/>
    </g>
   </g>
   <g id="text_14">
    <!-- 18053 (2015-12-03) -->
    <defs>
     <path d="M 40.578125 39.3125 
Q 47.65625 37.796875 51.625 33 
Q 55.609375 28.21875 55.609375 21.1875 
Q 55.609375 10.40625 48.1875 4.484375 
Q 40.765625 -1.421875 27.09375 -1.421875 
Q 22.515625 -1.421875 17.65625 -0.515625 
Q 12.796875 0.390625 7.625 2.203125 
L 7.625 11.71875 
Q 11.71875 9.328125 16.59375 8.109375 
Q 21.484375 6.890625 26.8125 6.890625 
Q 36.078125 6.890625 40.9375 10.546875 
Q 45.796875 14.203125 45.796875 21.1875 
Q 45.796875 27.640625 41.28125 31.265625 
Q 36.765625 34.90625 28.71875 34.90625 
L 20.21875 34.90625 
L 20.21875 43.015625 
L 29.109375 43.015625 
Q 36.375 43.015625 40.234375 45.921875 
Q 44.09375 48.828125 44.09375 54.296875 
Q 44.09375 59.90625 40.109375 62.90625 
Q 36.140625 65.921875 28.71875 65.921875 
Q 24.65625 65.921875 20.015625 65.03125 
Q 15.375 64.15625 9.8125 62.3125 
L 9.8125 71.09375 
Q 15.4375 72.65625 20.34375 73.4375 
Q 25.25 74.21875 29.59375 74.21875 
Q 40.828125 74.21875 47.359375 69.109375 
Q 53.90625 64.015625 53.90625 55.328125 
Q 53.90625 49.265625 50.4375 45.09375 
Q 46.96875 40.921875 40.578125 39.3125 
z
" id="DejaVuSans-51"/>
    </defs>
    <g style="fill:#262626;" transform="translate(248.043303 522.388386)scale(0.1 -0.1)">
     <use xlink:href="#DejaVuSans-49"/>
     <use x="63.623047" xlink:href="#DejaVuSans-56"/>
     <use x="127.246094" xlink:href="#DejaVuSans-48"/>
     <use x="190.869141" xlink:href="#DejaVuSans-53"/>
     <use x="254.492188" xlink:href="#DejaVuSans-51"/>
     <use x="318.115234" xlink:href="#DejaVuSans-32"/>
     <use x="349.902344" xlink:href="#DejaVuSans-40"/>
     <use x="388.916016" xlink:href="#DejaVuSans-50"/>
     <use x="452.539062" xlink:href="#DejaVuSans-48"/>
     <use x="516.162109" xlink:href="#DejaVuSans-49"/>
     <use x="579.785156" xlink:href="#DejaVuSans-53"/>
     <use x="643.408203" xlink:href="#DejaVuSans-45"/>
     <use x="679.492188" xlink:href="#DejaVuSans-49"/>
     <use x="743.115234" xlink:href="#DejaVuSans-50"/>
     <use x="806.738281" xlink:href="#DejaVuSans-45"/>
     <use x="842.822266" xlink:href="#DejaVuSans-48"/>
     <use x="906.445312" xlink:href="#DejaVuSans-51"/>
     <use x="970.068359" xlink:href="#DejaVuSans-41"/>
    </g>
   </g>
   <g id="text_15">
    <!-- 27078 (2016-06-12) -->
    <g style="fill:#262626;" transform="translate(293.018259 471.988944)scale(0.1 -0.1)">
     <use xlink:href="#DejaVuSans-50"/>
     <use x="63.623047" xlink:href="#DejaVuSans-55"/>
     <use x="127.246094" xlink:href="#DejaVuSans-48"/>
     <use x="190.869141" xlink:href="#DejaVuSans-55"/>
     <use x="254.492188" xlink:href="#DejaVuSans-56"/>
     <use x="318.115234" xlink:href="#DejaVuSans-32"/>
     <use x="349.902344" xlink:href="#DejaVuSans-40"/>
     <use x="388.916016" xlink:href="#DejaVuSans-50"/>
     <use x="452.539062" xlink:href="#DejaVuSans-48"/>
     <use x="516.162109" xlink:href="#DejaVuSans-49"/>
     <use x="579.785156" xlink:href="#DejaVuSans-54"/>
     <use x="643.408203" xlink:href="#DejaVuSans-45"/>
     <use x="679.492188" xlink:href="#DejaVuSans-48"/>
     <use x="743.115234" xlink:href="#DejaVuSans-54"/>
     <use x="806.738281" xlink:href="#DejaVuSans-45"/>
     <use x="842.822266" xlink:href="#DejaVuSans-49"/>
     <use x="906.445312" xlink:href="#DejaVuSans-50"/>
     <use x="970.068359" xlink:href="#DejaVuSans-41"/>
    </g>
   </g>
   <g id="text_16">
    <!-- 36103 (2016-11-07) -->
    <g style="fill:#262626;" transform="translate(327.735672 421.589502)scale(0.1 -0.1)">
     <use xlink:href="#DejaVuSans-51"/>
     <use x="63.623047" xlink:href="#DejaVuSans-54"/>
     <use x="127.246094" xlink:href="#DejaVuSans-49"/>
     <use x="190.869141" xlink:href="#DejaVuSans-48"/>
     <use x="254.492188" xlink:href="#DejaVuSans-51"/>
     <use x="318.115234" xlink:href="#DejaVuSans-32"/>
     <use x="349.902344" xlink:href="#DejaVuSans-40"/>
     <use x="388.916016" xlink:href="#DejaVuSans-50"/>
     <use x="452.539062" xlink:href="#DejaVuSans-48"/>
     <use x="516.162109" xlink:href="#DejaVuSans-49"/>
     <use x="579.785156" xlink:href="#DejaVuSans-54"/>
     <use x="643.408203" xlink:href="#DejaVuSans-45"/>
     <use x="679.492188" xlink:href="#DejaVuSans-49"/>
     <use x="743.115234" xlink:href="#DejaVuSans-49"/>
     <use x="806.738281" xlink:href="#DejaVuSans-45"/>
     <use x="842.822266" xlink:href="#DejaVuSans-48"/>
     <use x="906.445312" xlink:href="#DejaVuSans-55"/>
     <use x="970.068359" xlink:href="#DejaVuSans-41"/>
    </g>
   </g>
   <g id="text_17">
    <!-- 45128 (2017-05-08) -->
    <g style="fill:#262626;" transform="translate(370.296039 371.190061)scale(0.1 -0.1)">
     <use xlink:href="#DejaVuSans-52"/>
     <use x="63.623047" xlink:href="#DejaVuSans-53"/>
     <use x="127.246094" xlink:href="#DejaVuSans-49"/>
     <use x="190.869141" xlink:href="#DejaVuSans-50"/>
     <use x="254.492188" xlink:href="#DejaVuSans-56"/>
     <use x="318.115234" xlink:href="#DejaVuSans-32"/>
     <use x="349.902344" xlink:href="#DejaVuSans-40"/>
     <use x="388.916016" xlink:href="#DejaVuSans-50"/>
     <use x="452.539062" xlink:href="#DejaVuSans-48"/>
     <use x="516.162109" xlink:href="#DejaVuSans-49"/>
     <use x="579.785156" xlink:href="#DejaVuSans-55"/>
     <use x="643.408203" xlink:href="#DejaVuSans-45"/>
     <use x="679.492188" xlink:href="#DejaVuSans-48"/>
     <use x="743.115234" xlink:href="#DejaVuSans-53"/>
     <use x="806.738281" xlink:href="#DejaVuSans-45"/>
     <use x="842.822266" xlink:href="#DejaVuSans-48"/>
     <use x="906.445312" xlink:href="#DejaVuSans-56"/>
     <use x="970.068359" xlink:href="#DejaVuSans-41"/>
    </g>
   </g>
   <g id="text_18">
    <!-- 54153 (2017-10-25) -->
    <g style="fill:#262626;" transform="translate(410.174108 320.790619)scale(0.1 -0.1)">
     <use xlink:href="#DejaVuSans-53"/>
     <use x="63.623047" xlink:href="#DejaVuSans-52"/>
     <use x="127.246094" xlink:href="#DejaVuSans-49"/>
     <use x="190.869141" xlink:href="#DejaVuSans-53"/>
     <use x="254.492188" xlink:href="#DejaVuSans-51"/>
     <use x="318.115234" xlink:href="#DejaVuSans-32"/>
     <use x="349.902344" xlink:href="#DejaVuSans-40"/>
     <use x="388.916016" xlink:href="#DejaVuSans-50"/>
     <use x="452.539062" xlink:href="#DejaVuSans-48"/>
     <use x="516.162109" xlink:href="#DejaVuSans-49"/>
     <use x="579.785156" xlink:href="#DejaVuSans-55"/>
     <use x="643.408203" xlink:href="#DejaVuSans-45"/>
     <use x="679.492188" xlink:href="#DejaVuSans-49"/>
     <use x="743.115234" xlink:href="#DejaVuSans-48"/>
     <use x="806.738281" xlink:href="#DejaVuSans-45"/>
     <use x="842.822266" xlink:href="#DejaVuSans-50"/>
     <use x="906.445312" xlink:href="#DejaVuSans-53"/>
     <use x="970.068359" xlink:href="#DejaVuSans-41"/>
    </g>
   </g>
   <g id="text_19">
    <!-- 63178 (2018-05-09) -->
    <g style="fill:#262626;" transform="translate(456.330827 270.391178)scale(0.1 -0.1)">
     <use xlink:href="#DejaVuSans-54"/>
     <use x="63.623047" xlink:href="#DejaVuSans-51"/>
     <use x="127.246094" xlink:href="#DejaVuSans-49"/>
     <use x="190.869141" xlink:href="#DejaVuSans-55"/>
     <use x="254.492188" xlink:href="#DejaVuSans-56"/>
     <use x="318.115234" xlink:href="#DejaVuSans-32"/>
     <use x="349.902344" xlink:href="#DejaVuSans-40"/>
     <use x="388.916016" xlink:href="#DejaVuSans-50"/>
     <use x="452.539062" xlink:href="#DejaVuSans-48"/>
     <use x="516.162109" xlink:href="#DejaVuSans-49"/>
     <use x="579.785156" xlink:href="#DejaVuSans-56"/>
     <use x="643.408203" xlink:href="#DejaVuSans-45"/>
     <use x="679.492188" xlink:href="#DejaVuSans-48"/>
     <use x="743.115234" xlink:href="#DejaVuSans-53"/>
     <use x="806.738281" xlink:href="#DejaVuSans-45"/>
     <use x="842.822266" xlink:href="#DejaVuSans-48"/>
     <use x="906.445312" xlink:href="#DejaVuSans-57"/>
     <use x="970.068359" xlink:href="#DejaVuSans-41"/>
    </g>
   </g>
   <g id="text_20">
    <!-- 72203 (2019-01-09) -->
    <g style="fill:#262626;" transform="translate(513.705591 219.991736)scale(0.1 -0.1)">
     <use xlink:href="#DejaVuSans-55"/>
     <use x="63.623047" xlink:href="#DejaVuSans-50"/>
     <use x="127.246094" xlink:href="#DejaVuSans-50"/>
     <use x="190.869141" xlink:href="#DejaVuSans-48"/>
     <use x="254.492188" xlink:href="#DejaVuSans-51"/>
     <use x="318.115234" xlink:href="#DejaVuSans-32"/>
     <use x="349.902344" xlink:href="#DejaVuSans-40"/>
     <use x="388.916016" xlink:href="#DejaVuSans-50"/>
     <use x="452.539062" xlink:href="#DejaVuSans-48"/>
     <use x="516.162109" xlink:href="#DejaVuSans-49"/>
     <use x="579.785156" xlink:href="#DejaVuSans-57"/>
     <use x="643.408203" xlink:href="#DejaVuSans-45"/>
     <use x="679.492188" xlink:href="#DejaVuSans-48"/>
     <use x="743.115234" xlink:href="#DejaVuSans-49"/>
     <use x="806.738281" xlink:href="#DejaVuSans-45"/>
     <use x="842.822266" xlink:href="#DejaVuSans-48"/>
     <use x="906.445312" xlink:href="#DejaVuSans-57"/>
     <use x="970.068359" xlink:href="#DejaVuSans-41"/>
    </g>
   </g>
   <g id="text_21">
    <!-- 81228 (2019-08-23) -->
    <g style="fill:#262626;" transform="translate(566.656499 169.592295)scale(0.1 -0.1)">
     <use xlink:href="#DejaVuSans-56"/>
     <use x="63.623047" xlink:href="#DejaVuSans-49"/>
     <use x="127.246094" xlink:href="#DejaVuSans-50"/>
     <use x="190.869141" xlink:href="#DejaVuSans-50"/>
     <use x="254.492188" xlink:href="#DejaVuSans-56"/>
     <use x="318.115234" xlink:href="#DejaVuSans-32"/>
     <use x="349.902344" xlink:href="#DejaVuSans-40"/>
     <use x="388.916016" xlink:href="#DejaVuSans-50"/>
     <use x="452.539062" xlink:href="#DejaVuSans-48"/>
     <use x="516.162109" xlink:href="#DejaVuSans-49"/>
     <use x="579.785156" xlink:href="#DejaVuSans-57"/>
     <use x="643.408203" xlink:href="#DejaVuSans-45"/>
     <use x="679.492188" xlink:href="#DejaVuSans-48"/>
     <use x="743.115234" xlink:href="#DejaVuSans-56"/>
     <use x="806.738281" xlink:href="#DejaVuSans-45"/>
     <use x="842.822266" xlink:href="#DejaVuSans-50"/>
     <use x="906.445312" xlink:href="#DejaVuSans-51"/>
     <use x="970.068359" xlink:href="#DejaVuSans-41"/>
    </g>
   </g>
   <g id="text_22">
    <!-- 90252 (2020-05-09) -->
    <g style="fill:#262626;" transform="translate(627.636364 119.198437)scale(0.1 -0.1)">
     <use xlink:href="#DejaVuSans-57"/>
     <use x="63.623047" xlink:href="#DejaVuSans-48"/>
     <use x="127.246094" xlink:href="#DejaVuSans-50"/>
     <use x="190.869141" xlink:href="#DejaVuSans-53"/>
     <use x="254.492188" xlink:href="#DejaVuSans-50"/>
     <use x="318.115234" xlink:href="#DejaVuSans-32"/>
     <use x="349.902344" xlink:href="#DejaVuSans-40"/>
     <use x="388.916016" xlink:href="#DejaVuSans-50"/>
     <use x="452.539062" xlink:href="#DejaVuSans-48"/>
     <use x="516.162109" xlink:href="#DejaVuSans-50"/>
     <use x="579.785156" xlink:href="#DejaVuSans-48"/>
     <use x="643.408203" xlink:href="#DejaVuSans-45"/>
     <use x="679.492188" xlink:href="#DejaVuSans-48"/>
     <use x="743.115234" xlink:href="#DejaVuSans-53"/>
     <use x="806.738281" xlink:href="#DejaVuSans-45"/>
     <use x="842.822266" xlink:href="#DejaVuSans-48"/>
     <use x="906.445312" xlink:href="#DejaVuSans-57"/>
     <use x="970.068359" xlink:href="#DejaVuSans-41"/>
    </g>
   </g>
   <g id="text_23">
    <!-- Created issues and PRs over time -->
    <defs>
     <path d="M 64.40625 67.28125 
L 64.40625 56.890625 
Q 59.421875 61.53125 53.78125 63.8125 
Q 48.140625 66.109375 41.796875 66.109375 
Q 29.296875 66.109375 22.65625 58.46875 
Q 16.015625 50.828125 16.015625 36.375 
Q 16.015625 21.96875 22.65625 14.328125 
Q 29.296875 6.6875 41.796875 6.6875 
Q 48.140625 6.6875 53.78125 8.984375 
Q 59.421875 11.28125 64.40625 15.921875 
L 64.40625 5.609375 
Q 59.234375 2.09375 53.4375 0.328125 
Q 47.65625 -1.421875 41.21875 -1.421875 
Q 24.65625 -1.421875 15.125 8.703125 
Q 5.609375 18.84375 5.609375 36.375 
Q 5.609375 53.953125 15.125 64.078125 
Q 24.65625 74.21875 41.21875 74.21875 
Q 47.75 74.21875 53.53125 72.484375 
Q 59.328125 70.75 64.40625 67.28125 
z
" id="DejaVuSans-67"/>
     <path d="M 41.109375 46.296875 
Q 39.59375 47.171875 37.8125 47.578125 
Q 36.03125 48 33.890625 48 
Q 26.265625 48 22.1875 43.046875 
Q 18.109375 38.09375 18.109375 28.8125 
L 18.109375 0 
L 9.078125 0 
L 9.078125 54.6875 
L 18.109375 54.6875 
L 18.109375 46.1875 
Q 20.953125 51.171875 25.484375 53.578125 
Q 30.03125 56 36.53125 56 
Q 37.453125 56 38.578125 55.875 
Q 39.703125 55.765625 41.0625 55.515625 
z
" id="DejaVuSans-114"/>
     <path d="M 56.203125 29.59375 
L 56.203125 25.203125 
L 14.890625 25.203125 
Q 15.484375 15.921875 20.484375 11.0625 
Q 25.484375 6.203125 34.421875 6.203125 
Q 39.59375 6.203125 44.453125 7.46875 
Q 49.3125 8.734375 54.109375 11.28125 
L 54.109375 2.78125 
Q 49.265625 0.734375 44.1875 -0.34375 
Q 39.109375 -1.421875 33.890625 -1.421875 
Q 20.796875 -1.421875 13.15625 6.1875 
Q 5.515625 13.8125 5.515625 26.8125 
Q 5.515625 40.234375 12.765625 48.109375 
Q 20.015625 56 32.328125 56 
Q 43.359375 56 49.78125 48.890625 
Q 56.203125 41.796875 56.203125 29.59375 
z
M 47.21875 32.234375 
Q 47.125 39.59375 43.09375 43.984375 
Q 39.0625 48.390625 32.421875 48.390625 
Q 24.90625 48.390625 20.390625 44.140625 
Q 15.875 39.890625 15.1875 32.171875 
z
" id="DejaVuSans-101"/>
     <path d="M 34.28125 27.484375 
Q 23.390625 27.484375 19.1875 25 
Q 14.984375 22.515625 14.984375 16.5 
Q 14.984375 11.71875 18.140625 8.90625 
Q 21.296875 6.109375 26.703125 6.109375 
Q 34.1875 6.109375 38.703125 11.40625 
Q 43.21875 16.703125 43.21875 25.484375 
L 43.21875 27.484375 
z
M 52.203125 31.203125 
L 52.203125 0 
L 43.21875 0 
L 43.21875 8.296875 
Q 40.140625 3.328125 35.546875 0.953125 
Q 30.953125 -1.421875 24.3125 -1.421875 
Q 15.921875 -1.421875 10.953125 3.296875 
Q 6 8.015625 6 15.921875 
Q 6 25.140625 12.171875 29.828125 
Q 18.359375 34.515625 30.609375 34.515625 
L 43.21875 34.515625 
L 43.21875 35.40625 
Q 43.21875 41.609375 39.140625 45 
Q 35.0625 48.390625 27.6875 48.390625 
Q 23 48.390625 18.546875 47.265625 
Q 14.109375 46.140625 10.015625 43.890625 
L 10.015625 52.203125 
Q 14.9375 54.109375 19.578125 55.046875 
Q 24.21875 56 28.609375 56 
Q 40.484375 56 46.34375 49.84375 
Q 52.203125 43.703125 52.203125 31.203125 
z
" id="DejaVuSans-97"/>
     <path d="M 18.3125 70.21875 
L 18.3125 54.6875 
L 36.8125 54.6875 
L 36.8125 47.703125 
L 18.3125 47.703125 
L 18.3125 18.015625 
Q 18.3125 11.328125 20.140625 9.421875 
Q 21.96875 7.515625 27.59375 7.515625 
L 36.8125 7.515625 
L 36.8125 0 
L 27.59375 0 
Q 17.1875 0 13.234375 3.875 
Q 9.28125 7.765625 9.28125 18.015625 
L 9.28125 47.703125 
L 2.6875 47.703125 
L 2.6875 54.6875 
L 9.28125 54.6875 
L 9.28125 70.21875 
z
" id="DejaVuSans-116"/>
     <path d="M 45.40625 46.390625 
L 45.40625 75.984375 
L 54.390625 75.984375 
L 54.390625 0 
L 45.40625 0 
L 45.40625 8.203125 
Q 42.578125 3.328125 38.25 0.953125 
Q 33.9375 -1.421875 27.875 -1.421875 
Q 17.96875 -1.421875 11.734375 6.484375 
Q 5.515625 14.40625 5.515625 27.296875 
Q 5.515625 40.1875 11.734375 48.09375 
Q 17.96875 56 27.875 56 
Q 33.9375 56 38.25 53.625 
Q 42.578125 51.265625 45.40625 46.390625 
z
M 14.796875 27.296875 
Q 14.796875 17.390625 18.875 11.75 
Q 22.953125 6.109375 30.078125 6.109375 
Q 37.203125 6.109375 41.296875 11.75 
Q 45.40625 17.390625 45.40625 27.296875 
Q 45.40625 37.203125 41.296875 42.84375 
Q 37.203125 48.484375 30.078125 48.484375 
Q 22.953125 48.484375 18.875 42.84375 
Q 14.796875 37.203125 14.796875 27.296875 
z
" id="DejaVuSans-100"/>
     <path d="M 9.421875 54.6875 
L 18.40625 54.6875 
L 18.40625 0 
L 9.421875 0 
z
M 9.421875 75.984375 
L 18.40625 75.984375 
L 18.40625 64.59375 
L 9.421875 64.59375 
z
" id="DejaVuSans-105"/>
     <path d="M 44.28125 53.078125 
L 44.28125 44.578125 
Q 40.484375 46.53125 36.375 47.5 
Q 32.28125 48.484375 27.875 48.484375 
Q 21.1875 48.484375 17.84375 46.4375 
Q 14.5 44.390625 14.5 40.28125 
Q 14.5 37.15625 16.890625 35.375 
Q 19.28125 33.59375 26.515625 31.984375 
L 29.59375 31.296875 
Q 39.15625 29.25 43.1875 25.515625 
Q 47.21875 21.78125 47.21875 15.09375 
Q 47.21875 7.46875 41.1875 3.015625 
Q 35.15625 -1.421875 24.609375 -1.421875 
Q 20.21875 -1.421875 15.453125 -0.5625 
Q 10.6875 0.296875 5.421875 2 
L 5.421875 11.28125 
Q 10.40625 8.6875 15.234375 7.390625 
Q 20.0625 6.109375 24.8125 6.109375 
Q 31.15625 6.109375 34.5625 8.28125 
Q 37.984375 10.453125 37.984375 14.40625 
Q 37.984375 18.0625 35.515625 20.015625 
Q 33.0625 21.96875 24.703125 23.78125 
L 21.578125 24.515625 
Q 13.234375 26.265625 9.515625 29.90625 
Q 5.8125 33.546875 5.8125 39.890625 
Q 5.8125 47.609375 11.28125 51.796875 
Q 16.75 56 26.8125 56 
Q 31.78125 56 36.171875 55.265625 
Q 40.578125 54.546875 44.28125 53.078125 
z
" id="DejaVuSans-115"/>
     <path d="M 8.5 21.578125 
L 8.5 54.6875 
L 17.484375 54.6875 
L 17.484375 21.921875 
Q 17.484375 14.15625 20.5 10.265625 
Q 23.53125 6.390625 29.59375 6.390625 
Q 36.859375 6.390625 41.078125 11.03125 
Q 45.3125 15.671875 45.3125 23.6875 
L 45.3125 54.6875 
L 54.296875 54.6875 
L 54.296875 0 
L 45.3125 0 
L 45.3125 8.40625 
Q 42.046875 3.421875 37.71875 1 
Q 33.40625 -1.421875 27.6875 -1.421875 
Q 18.265625 -1.421875 13.375 4.4375 
Q 8.5 10.296875 8.5 21.578125 
z
M 31.109375 56 
z
" id="DejaVuSans-117"/>
     <path d="M 54.890625 33.015625 
L 54.890625 0 
L 45.90625 0 
L 45.90625 32.71875 
Q 45.90625 40.484375 42.875 44.328125 
Q 39.84375 48.1875 33.796875 48.1875 
Q 26.515625 48.1875 22.3125 43.546875 
Q 18.109375 38.921875 18.109375 30.90625 
L 18.109375 0 
L 9.078125 0 
L 9.078125 54.6875 
L 18.109375 54.6875 
L 18.109375 46.1875 
Q 21.34375 51.125 25.703125 53.5625 
Q 30.078125 56 35.796875 56 
Q 45.21875 56 50.046875 50.171875 
Q 54.890625 44.34375 54.890625 33.015625 
z
" id="DejaVuSans-110"/>
     <path d="M 19.671875 64.796875 
L 19.671875 37.40625 
L 32.078125 37.40625 
Q 38.96875 37.40625 42.71875 40.96875 
Q 46.484375 44.53125 46.484375 51.125 
Q 46.484375 57.671875 42.71875 61.234375 
Q 38.96875 64.796875 32.078125 64.796875 
z
M 9.8125 72.90625 
L 32.078125 72.90625 
Q 44.34375 72.90625 50.609375 67.359375 
Q 56.890625 61.8125 56.890625 51.125 
Q 56.890625 40.328125 50.609375 34.8125 
Q 44.34375 29.296875 32.078125 29.296875 
L 19.671875 29.296875 
L 19.671875 0 
L 9.8125 0 
z
" id="DejaVuSans-80"/>
     <path d="M 44.390625 34.1875 
Q 47.5625 33.109375 50.5625 29.59375 
Q 53.5625 26.078125 56.59375 19.921875 
L 66.609375 0 
L 56 0 
L 46.6875 18.703125 
Q 43.0625 26.03125 39.671875 28.421875 
Q 36.28125 30.8125 30.421875 30.8125 
L 19.671875 30.8125 
L 19.671875 0 
L 9.8125 0 
L 9.8125 72.90625 
L 32.078125 72.90625 
Q 44.578125 72.90625 50.734375 67.671875 
Q 56.890625 62.453125 56.890625 51.90625 
Q 56.890625 45.015625 53.6875 40.46875 
Q 50.484375 35.9375 44.390625 34.1875 
z
M 19.671875 64.796875 
L 19.671875 38.921875 
L 32.078125 38.921875 
Q 39.203125 38.921875 42.84375 42.21875 
Q 46.484375 45.515625 46.484375 51.90625 
Q 46.484375 58.296875 42.84375 61.546875 
Q 39.203125 64.796875 32.078125 64.796875 
z
" id="DejaVuSans-82"/>
     <path d="M 30.609375 48.390625 
Q 23.390625 48.390625 19.1875 42.75 
Q 14.984375 37.109375 14.984375 27.296875 
Q 14.984375 17.484375 19.15625 11.84375 
Q 23.34375 6.203125 30.609375 6.203125 
Q 37.796875 6.203125 41.984375 11.859375 
Q 46.1875 17.53125 46.1875 27.296875 
Q 46.1875 37.015625 41.984375 42.703125 
Q 37.796875 48.390625 30.609375 48.390625 
z
M 30.609375 56 
Q 42.328125 56 49.015625 48.375 
Q 55.71875 40.765625 55.71875 27.296875 
Q 55.71875 13.875 49.015625 6.21875 
Q 42.328125 -1.421875 30.609375 -1.421875 
Q 18.84375 -1.421875 12.171875 6.21875 
Q 5.515625 13.875 5.515625 27.296875 
Q 5.515625 40.765625 12.171875 48.375 
Q 18.84375 56 30.609375 56 
z
" id="DejaVuSans-111"/>
     <path d="M 2.984375 54.6875 
L 12.5 54.6875 
L 29.59375 8.796875 
L 46.6875 54.6875 
L 56.203125 54.6875 
L 35.6875 0 
L 23.484375 0 
z
" id="DejaVuSans-118"/>
     <path d="M 52 44.1875 
Q 55.375 50.25 60.0625 53.125 
Q 64.75 56 71.09375 56 
Q 79.640625 56 84.28125 50.015625 
Q 88.921875 44.046875 88.921875 33.015625 
L 88.921875 0 
L 79.890625 0 
L 79.890625 32.71875 
Q 79.890625 40.578125 77.09375 44.375 
Q 74.3125 48.1875 68.609375 48.1875 
Q 61.625 48.1875 57.5625 43.546875 
Q 53.515625 38.921875 53.515625 30.90625 
L 53.515625 0 
L 44.484375 0 
L 44.484375 32.71875 
Q 44.484375 40.625 41.703125 44.40625 
Q 38.921875 48.1875 33.109375 48.1875 
Q 26.21875 48.1875 22.15625 43.53125 
Q 18.109375 38.875 18.109375 30.90625 
L 18.109375 0 
L 9.078125 0 
L 9.078125 54.6875 
L 18.109375 54.6875 
L 18.109375 46.1875 
Q 21.1875 51.21875 25.484375 53.609375 
Q 29.78125 56 35.6875 56 
Q 41.65625 56 45.828125 52.96875 
Q 50 49.953125 52 44.1875 
z
" id="DejaVuSans-109"/>
    </defs>
    <g style="fill:#262626;" transform="translate(268.047188 80.4)scale(0.12 -0.12)">
     <use xlink:href="#DejaVuSans-67"/>
     <use x="69.824219" xlink:href="#DejaVuSans-114"/>
     <use x="108.6875" xlink:href="#DejaVuSans-101"/>
     <use x="170.210938" xlink:href="#DejaVuSans-97"/>
     <use x="231.490234" xlink:href="#DejaVuSans-116"/>
     <use x="270.699219" xlink:href="#DejaVuSans-101"/>
     <use x="332.222656" xlink:href="#DejaVuSans-100"/>
     <use x="395.699219" xlink:href="#DejaVuSans-32"/>
     <use x="427.486328" xlink:href="#DejaVuSans-105"/>
     <use x="455.269531" xlink:href="#DejaVuSans-115"/>
     <use x="507.369141" xlink:href="#DejaVuSans-115"/>
     <use x="559.46875" xlink:href="#DejaVuSans-117"/>
     <use x="622.847656" xlink:href="#DejaVuSans-101"/>
     <use x="684.371094" xlink:href="#DejaVuSans-115"/>
     <use x="736.470703" xlink:href="#DejaVuSans-32"/>
     <use x="768.257812" xlink:href="#DejaVuSans-97"/>
     <use x="829.537109" xlink:href="#DejaVuSans-110"/>
     <use x="892.916016" xlink:href="#DejaVuSans-100"/>
     <use x="956.392578" xlink:href="#DejaVuSans-32"/>
     <use x="988.179688" xlink:href="#DejaVuSans-80"/>
     <use x="1048.482422" xlink:href="#DejaVuSans-82"/>
     <use x="1117.964844" xlink:href="#DejaVuSans-115"/>
     <use x="1170.064453" xlink:href="#DejaVuSans-32"/>
     <use x="1201.851562" xlink:href="#DejaVuSans-111"/>
     <use x="1263.033203" xlink:href="#DejaVuSans-118"/>
     <use x="1322.212891" xlink:href="#DejaVuSans-101"/>
     <use x="1383.736328" xlink:href="#DejaVuSans-114"/>
     <use x="1424.849609" xlink:href="#DejaVuSans-32"/>
     <use x="1456.636719" xlink:href="#DejaVuSans-116"/>
     <use x="1495.845703" xlink:href="#DejaVuSans-105"/>
     <use x="1523.628906" xlink:href="#DejaVuSans-109"/>
     <use x="1621.041016" xlink:href="#DejaVuSans-101"/>
    </g>
   </g>
  </g>
 </g>
 <defs>
  <clipPath id="pb045edb478">
   <rect height="554.4" width="558" x="90" y="86.4"/>
  </clipPath>
 </defs>
</svg>
