<?xml version="1.0" encoding="utf-8" standalone="no"?>
<!DOCTYPE svg PUBLIC "-//W3C//DTD SVG 1.1//EN"
  "http://www.w3.org/Graphics/SVG/1.1/DTD/svg11.dtd">
<!-- Created with matplotlib (https://matplotlib.org/) -->
<svg height="720pt" version="1.1" viewBox="0 0 720 720" width="720pt" xmlns="http://www.w3.org/2000/svg" xmlns:xlink="http://www.w3.org/1999/xlink">
 <defs>
  <style type="text/css">
*{stroke-linecap:butt;stroke-linejoin:round;}
  </style>
 </defs>
 <g id="figure_1">
  <g id="patch_1">
   <path d="M 0 720 
L 720 720 
L 720 0 
L 0 0 
z
" style="fill:#ffffff;"/>
  </g>
  <g id="axes_1">
   <g id="patch_2">
    <path d="M 90 640.8 
L 648 640.8 
L 648 86.4 
L 90 86.4 
z
" style="fill:#ffffff;"/>
   </g>
   <g id="matplotlib.axis_1">
    <g id="xtick_1">
     <g id="line2d_1">
      <path clip-path="url(#p056656ff55)" d="M 164.590938 640.8 
L 164.590938 86.4 
" style="fill:none;stroke:#cccccc;stroke-linecap:round;stroke-width:0.8;"/>
     </g>
     <g id="line2d_2"/>
     <g id="text_1">
      <!-- 2015 -->
      <defs>
       <path d="M 5.03125 0 
L 5.03125 6.203125 
Q 7.515625 11.921875 11.109375 16.28125 
Q 14.703125 20.65625 18.65625 24.1875 
Q 22.609375 27.734375 26.484375 30.765625 
Q 30.375 33.796875 33.5 36.8125 
Q 36.625 39.84375 38.546875 43.15625 
Q 40.484375 46.484375 40.484375 50.6875 
Q 40.484375 53.609375 39.59375 55.828125 
Q 38.71875 58.0625 37.0625 59.5625 
Q 35.40625 61.078125 33.078125 61.828125 
Q 30.765625 62.59375 27.9375 62.59375 
Q 25.296875 62.59375 22.96875 61.859375 
Q 20.65625 61.140625 18.84375 59.671875 
Q 17.046875 58.203125 15.890625 56.03125 
Q 14.75 53.859375 14.40625 50.984375 
L 5.421875 51.8125 
Q 5.859375 55.515625 7.46875 58.78125 
Q 9.078125 62.0625 11.90625 64.53125 
Q 14.75 67 18.71875 68.40625 
Q 22.703125 69.828125 27.9375 69.828125 
Q 33.0625 69.828125 37.0625 68.609375 
Q 41.0625 67.390625 43.8125 64.984375 
Q 46.578125 62.59375 48.046875 59.078125 
Q 49.515625 55.5625 49.515625 50.984375 
Q 49.515625 47.515625 48.265625 44.390625 
Q 47.015625 41.265625 44.9375 38.421875 
Q 42.875 35.59375 40.140625 32.953125 
Q 37.40625 30.328125 34.421875 27.8125 
Q 31.453125 25.296875 28.421875 22.828125 
Q 25.390625 20.359375 22.71875 17.859375 
Q 20.0625 15.375 17.96875 12.8125 
Q 15.875 10.25 14.703125 7.46875 
L 50.59375 7.46875 
L 50.59375 0 
z
" id="LiberationSans-50"/>
       <path d="M 51.703125 34.421875 
Q 51.703125 24.515625 49.828125 17.75 
Q 47.953125 10.984375 44.703125 6.8125 
Q 41.453125 2.640625 37.0625 0.828125 
Q 32.671875 -0.984375 27.6875 -0.984375 
Q 22.65625 -0.984375 18.3125 0.828125 
Q 13.96875 2.640625 10.765625 6.78125 
Q 7.5625 10.9375 5.734375 17.703125 
Q 3.90625 24.46875 3.90625 34.421875 
Q 3.90625 44.828125 5.734375 51.640625 
Q 7.5625 58.453125 10.78125 62.5 
Q 14.015625 66.546875 18.40625 68.1875 
Q 22.796875 69.828125 27.984375 69.828125 
Q 32.90625 69.828125 37.21875 68.1875 
Q 41.546875 66.546875 44.765625 62.5 
Q 48 58.453125 49.84375 51.640625 
Q 51.703125 44.828125 51.703125 34.421875 
z
M 42.78125 34.421875 
Q 42.78125 42.625 41.796875 48.0625 
Q 40.828125 53.515625 38.921875 56.765625 
Q 37.015625 60.015625 34.25 61.359375 
Q 31.5 62.703125 27.984375 62.703125 
Q 24.265625 62.703125 21.4375 61.328125 
Q 18.609375 59.96875 16.671875 56.71875 
Q 14.75 53.46875 13.765625 48.015625 
Q 12.796875 42.578125 12.796875 34.421875 
Q 12.796875 26.515625 13.796875 21.09375 
Q 14.796875 15.671875 16.71875 12.375 
Q 18.65625 9.078125 21.4375 7.640625 
Q 24.21875 6.203125 27.78125 6.203125 
Q 31.25 6.203125 34.03125 7.640625 
Q 36.8125 9.078125 38.734375 12.375 
Q 40.671875 15.671875 41.71875 21.09375 
Q 42.78125 26.515625 42.78125 34.421875 
z
" id="LiberationSans-48"/>
       <path d="M 7.625 0 
L 7.625 7.46875 
L 25.140625 7.46875 
L 25.140625 60.40625 
L 9.625 49.3125 
L 9.625 57.625 
L 25.875 68.796875 
L 33.984375 68.796875 
L 33.984375 7.46875 
L 50.734375 7.46875 
L 50.734375 0 
z
" id="LiberationSans-49"/>
       <path d="M 51.421875 22.40625 
Q 51.421875 17.234375 49.859375 12.9375 
Q 48.296875 8.640625 45.21875 5.53125 
Q 42.140625 2.4375 37.578125 0.71875 
Q 33.015625 -0.984375 27 -0.984375 
Q 21.578125 -0.984375 17.546875 0.28125 
Q 13.53125 1.5625 10.734375 3.78125 
Q 7.953125 6 6.3125 8.984375 
Q 4.6875 11.96875 4 15.375 
L 12.890625 16.40625 
Q 13.421875 14.453125 14.390625 12.625 
Q 15.375 10.796875 17.0625 9.34375 
Q 18.75 7.90625 21.21875 7.046875 
Q 23.6875 6.203125 27.203125 6.203125 
Q 30.609375 6.203125 33.390625 7.25 
Q 36.1875 8.296875 38.15625 10.34375 
Q 40.140625 12.40625 41.203125 15.375 
Q 42.28125 18.359375 42.28125 22.21875 
Q 42.28125 25.390625 41.25 28.046875 
Q 40.234375 30.71875 38.328125 32.640625 
Q 36.421875 34.578125 33.65625 35.640625 
Q 30.90625 36.71875 27.390625 36.71875 
Q 25.203125 36.71875 23.34375 36.328125 
Q 21.484375 35.9375 19.890625 35.25 
Q 18.3125 34.578125 17.015625 33.671875 
Q 15.71875 32.765625 14.59375 31.78125 
L 6 31.78125 
L 8.296875 68.796875 
L 47.40625 68.796875 
L 47.40625 61.328125 
L 16.3125 61.328125 
L 14.984375 39.5 
Q 17.328125 41.3125 20.84375 42.59375 
Q 24.359375 43.890625 29.203125 43.890625 
Q 34.328125 43.890625 38.421875 42.328125 
Q 42.53125 40.765625 45.40625 37.90625 
Q 48.296875 35.0625 49.859375 31.109375 
Q 51.421875 27.15625 51.421875 22.40625 
z
" id="LiberationSans-53"/>
      </defs>
      <g style="fill:#262626;" transform="translate(153.469063 651.546875)scale(0.1 -0.1)">
       <use xlink:href="#LiberationSans-50"/>
       <use x="55.615234" xlink:href="#LiberationSans-48"/>
       <use x="111.230469" xlink:href="#LiberationSans-49"/>
       <use x="166.845703" xlink:href="#LiberationSans-53"/>
      </g>
     </g>
    </g>
    <g id="xtick_2">
     <g id="line2d_3">
      <path clip-path="url(#p056656ff55)" d="M 250.994179 640.8 
L 250.994179 86.4 
" style="fill:none;stroke:#cccccc;stroke-linecap:round;stroke-width:0.8;"/>
     </g>
     <g id="line2d_4"/>
     <g id="text_2">
      <!-- 2016 -->
      <defs>
       <path d="M 51.21875 22.515625 
Q 51.21875 17.328125 49.78125 13 
Q 48.34375 8.6875 45.53125 5.578125 
Q 42.71875 2.484375 38.5625 0.75 
Q 34.421875 -0.984375 29 -0.984375 
Q 23 -0.984375 18.5 1.3125 
Q 14.015625 3.609375 11.03125 7.921875 
Q 8.0625 12.25 6.5625 18.53125 
Q 5.078125 24.8125 5.078125 32.8125 
Q 5.078125 42 6.765625 48.921875 
Q 8.453125 55.859375 11.625 60.5 
Q 14.796875 65.140625 19.359375 67.484375 
Q 23.921875 69.828125 29.6875 69.828125 
Q 33.203125 69.828125 36.28125 69.09375 
Q 39.359375 68.359375 41.875 66.71875 
Q 44.390625 65.09375 46.28125 62.40625 
Q 48.1875 59.71875 49.3125 55.8125 
L 40.921875 54.296875 
Q 39.546875 58.734375 36.546875 60.71875 
Q 33.546875 62.703125 29.59375 62.703125 
Q 25.984375 62.703125 23.046875 60.984375 
Q 20.125 59.28125 18.0625 55.875 
Q 16.015625 52.484375 14.90625 47.359375 
Q 13.8125 42.234375 13.8125 35.40625 
Q 16.21875 39.84375 20.5625 42.15625 
Q 24.90625 44.484375 30.515625 44.484375 
Q 35.203125 44.484375 39.015625 42.96875 
Q 42.828125 41.453125 45.53125 38.59375 
Q 48.25 35.75 49.734375 31.671875 
Q 51.21875 27.59375 51.21875 22.515625 
z
M 42.28125 22.125 
Q 42.28125 25.6875 41.40625 28.5625 
Q 40.53125 31.453125 38.765625 33.46875 
Q 37.015625 35.5 34.421875 36.59375 
Q 31.84375 37.703125 28.421875 37.703125 
Q 26.03125 37.703125 23.578125 36.984375 
Q 21.140625 36.28125 19.15625 34.6875 
Q 17.1875 33.109375 15.9375 30.515625 
Q 14.703125 27.9375 14.703125 24.21875 
Q 14.703125 20.40625 15.671875 17.109375 
Q 16.65625 13.8125 18.484375 11.375 
Q 20.3125 8.9375 22.890625 7.515625 
Q 25.484375 6.109375 28.71875 6.109375 
Q 31.890625 6.109375 34.40625 7.203125 
Q 36.921875 8.296875 38.671875 10.375 
Q 40.4375 12.453125 41.359375 15.421875 
Q 42.28125 18.40625 42.28125 22.125 
z
" id="LiberationSans-54"/>
      </defs>
      <g style="fill:#262626;" transform="translate(239.872304 651.546875)scale(0.1 -0.1)">
       <use xlink:href="#LiberationSans-50"/>
       <use x="55.615234" xlink:href="#LiberationSans-48"/>
       <use x="111.230469" xlink:href="#LiberationSans-49"/>
       <use x="166.845703" xlink:href="#LiberationSans-54"/>
      </g>
     </g>
    </g>
    <g id="xtick_3">
     <g id="line2d_5">
      <path clip-path="url(#p056656ff55)" d="M 337.634141 640.8 
L 337.634141 86.4 
" style="fill:none;stroke:#cccccc;stroke-linecap:round;stroke-width:0.8;"/>
     </g>
     <g id="line2d_6"/>
     <g id="text_3">
      <!-- 2017 -->
      <defs>
       <path d="M 50.59375 61.671875 
Q 45.40625 53.765625 41.0625 46.453125 
Q 36.71875 39.15625 33.59375 31.75 
Q 30.46875 24.359375 28.734375 16.578125 
Q 27 8.796875 27 0 
L 17.828125 0 
Q 17.828125 8.25 19.78125 16.1875 
Q 21.734375 24.125 25.046875 31.765625 
Q 28.375 39.40625 32.765625 46.78125 
Q 37.15625 54.15625 42.09375 61.328125 
L 5.125 61.328125 
L 5.125 68.796875 
L 50.59375 68.796875 
z
" id="LiberationSans-55"/>
      </defs>
      <g style="fill:#262626;" transform="translate(326.512266 651.546875)scale(0.1 -0.1)">
       <use xlink:href="#LiberationSans-50"/>
       <use x="55.615234" xlink:href="#LiberationSans-48"/>
       <use x="111.230469" xlink:href="#LiberationSans-49"/>
       <use x="166.845703" xlink:href="#LiberationSans-55"/>
      </g>
     </g>
    </g>
    <g id="xtick_4">
     <g id="line2d_7">
      <path clip-path="url(#p056656ff55)" d="M 424.037382 640.8 
L 424.037382 86.4 
" style="fill:none;stroke:#cccccc;stroke-linecap:round;stroke-width:0.8;"/>
     </g>
     <g id="line2d_8"/>
     <g id="text_4">
      <!-- 2018 -->
      <defs>
       <path d="M 51.265625 19.1875 
Q 51.265625 14.796875 49.875 11.109375 
Q 48.484375 7.421875 45.625 4.734375 
Q 42.78125 2.046875 38.328125 0.53125 
Q 33.890625 -0.984375 27.828125 -0.984375 
Q 21.78125 -0.984375 17.359375 0.53125 
Q 12.9375 2.046875 10.03125 4.703125 
Q 7.125 7.375 5.734375 11.0625 
Q 4.34375 14.75 4.34375 19.09375 
Q 4.34375 22.859375 5.484375 25.78125 
Q 6.640625 28.71875 8.5625 30.828125 
Q 10.5 32.953125 12.96875 34.25 
Q 15.4375 35.546875 18.0625 35.984375 
L 18.0625 36.1875 
Q 15.1875 36.859375 12.90625 38.375 
Q 10.640625 39.890625 9.09375 42.015625 
Q 7.5625 44.140625 6.75 46.71875 
Q 5.953125 49.3125 5.953125 52.203125 
Q 5.953125 55.8125 7.34375 59 
Q 8.734375 62.203125 11.46875 64.625 
Q 14.203125 67.046875 18.25 68.4375 
Q 22.3125 69.828125 27.640625 69.828125 
Q 33.25 69.828125 37.375 68.40625 
Q 41.5 67 44.203125 64.578125 
Q 46.921875 62.15625 48.234375 58.9375 
Q 49.5625 55.71875 49.5625 52.09375 
Q 49.5625 49.265625 48.75 46.671875 
Q 47.953125 44.09375 46.40625 41.96875 
Q 44.875 39.84375 42.59375 38.34375 
Q 40.328125 36.859375 37.359375 36.28125 
L 37.359375 36.078125 
Q 40.328125 35.59375 42.859375 34.296875 
Q 45.40625 33.015625 47.265625 30.890625 
Q 49.125 28.765625 50.1875 25.828125 
Q 51.265625 22.90625 51.265625 19.1875 
z
M 40.4375 51.609375 
Q 40.4375 54.203125 39.765625 56.34375 
Q 39.109375 58.5 37.59375 60.03125 
Q 36.078125 61.578125 33.640625 62.421875 
Q 31.203125 63.28125 27.640625 63.28125 
Q 24.171875 63.28125 21.78125 62.421875 
Q 19.390625 61.578125 17.84375 60.03125 
Q 16.3125 58.5 15.625 56.34375 
Q 14.9375 54.203125 14.9375 51.609375 
Q 14.9375 49.5625 15.46875 47.40625 
Q 16.015625 45.265625 17.421875 43.5 
Q 18.84375 41.75 21.328125 40.625 
Q 23.828125 39.5 27.734375 39.5 
Q 31.890625 39.5 34.40625 40.625 
Q 36.921875 41.75 38.25 43.5 
Q 39.59375 45.265625 40.015625 47.40625 
Q 40.4375 49.5625 40.4375 51.609375 
z
M 42.140625 20.015625 
Q 42.140625 22.515625 41.453125 24.828125 
Q 40.765625 27.15625 39.109375 28.9375 
Q 37.453125 30.71875 34.640625 31.8125 
Q 31.84375 32.90625 27.640625 32.90625 
Q 23.78125 32.90625 21.0625 31.8125 
Q 18.359375 30.71875 16.671875 28.90625 
Q 14.984375 27.09375 14.203125 24.71875 
Q 13.421875 22.359375 13.421875 19.828125 
Q 13.421875 16.65625 14.203125 14.03125 
Q 14.984375 11.421875 16.6875 9.546875 
Q 18.40625 7.671875 21.1875 6.640625 
Q 23.96875 5.609375 27.9375 5.609375 
Q 31.9375 5.609375 34.671875 6.640625 
Q 37.40625 7.671875 39.0625 9.546875 
Q 40.71875 11.421875 41.421875 14.078125 
Q 42.140625 16.75 42.140625 20.015625 
z
" id="LiberationSans-56"/>
      </defs>
      <g style="fill:#262626;" transform="translate(412.915507 651.546875)scale(0.1 -0.1)">
       <use xlink:href="#LiberationSans-50"/>
       <use x="55.615234" xlink:href="#LiberationSans-48"/>
       <use x="111.230469" xlink:href="#LiberationSans-49"/>
       <use x="166.845703" xlink:href="#LiberationSans-56"/>
      </g>
     </g>
    </g>
    <g id="xtick_5">
     <g id="line2d_9">
      <path clip-path="url(#p056656ff55)" d="M 510.440623 640.8 
L 510.440623 86.4 
" style="fill:none;stroke:#cccccc;stroke-linecap:round;stroke-width:0.8;"/>
     </g>
     <g id="line2d_10"/>
     <g id="text_5">
      <!-- 2019 -->
      <defs>
       <path d="M 50.875 35.796875 
Q 50.875 26.609375 49.140625 19.703125 
Q 47.40625 12.796875 44.1875 8.203125 
Q 40.96875 3.609375 36.34375 1.3125 
Q 31.734375 -0.984375 25.984375 -0.984375 
Q 22.015625 -0.984375 18.84375 -0.171875 
Q 15.671875 0.640625 13.171875 2.34375 
Q 10.6875 4.046875 8.921875 6.78125 
Q 7.171875 9.515625 6.109375 13.375 
L 14.5 14.703125 
Q 15.875 10.25 18.78125 8.171875 
Q 21.6875 6.109375 26.125 6.109375 
Q 29.6875 6.109375 32.640625 7.78125 
Q 35.59375 9.46875 37.671875 12.84375 
Q 39.75 16.21875 40.921875 21.296875 
Q 42.09375 26.375 42.1875 33.203125 
Q 41.15625 30.90625 39.375 29.09375 
Q 37.59375 27.296875 35.328125 26.046875 
Q 33.0625 24.8125 30.421875 24.140625 
Q 27.78125 23.484375 25.09375 23.484375 
Q 20.40625 23.484375 16.625 25.171875 
Q 12.84375 26.859375 10.203125 29.875 
Q 7.5625 32.90625 6.125 37.171875 
Q 4.6875 41.453125 4.6875 46.6875 
Q 4.6875 52 6.21875 56.296875 
Q 7.765625 60.59375 10.6875 63.59375 
Q 13.625 66.609375 17.890625 68.21875 
Q 22.171875 69.828125 27.59375 69.828125 
Q 39.0625 69.828125 44.96875 61.328125 
Q 50.875 52.828125 50.875 35.796875 
z
M 41.3125 44.28125 
Q 41.3125 48.09375 40.40625 51.453125 
Q 39.5 54.828125 37.71875 57.3125 
Q 35.9375 59.8125 33.328125 61.25 
Q 30.71875 62.703125 27.296875 62.703125 
Q 24.125 62.703125 21.578125 61.578125 
Q 19.046875 60.453125 17.28125 58.375 
Q 15.53125 56.296875 14.578125 53.3125 
Q 13.625 50.34375 13.625 46.6875 
Q 13.625 43.21875 14.46875 40.234375 
Q 15.328125 37.25 17.03125 35.078125 
Q 18.75 32.90625 21.28125 31.65625 
Q 23.828125 30.421875 27.203125 30.421875 
Q 29.640625 30.421875 32.15625 31.25 
Q 34.671875 32.078125 36.6875 33.78125 
Q 38.71875 35.5 40.015625 38.109375 
Q 41.3125 40.71875 41.3125 44.28125 
z
" id="LiberationSans-57"/>
      </defs>
      <g style="fill:#262626;" transform="translate(499.318748 651.546875)scale(0.1 -0.1)">
       <use xlink:href="#LiberationSans-50"/>
       <use x="55.615234" xlink:href="#LiberationSans-48"/>
       <use x="111.230469" xlink:href="#LiberationSans-49"/>
       <use x="166.845703" xlink:href="#LiberationSans-57"/>
      </g>
     </g>
    </g>
    <g id="xtick_6">
     <g id="line2d_11">
      <path clip-path="url(#p056656ff55)" d="M 596.843865 640.8 
L 596.843865 86.4 
" style="fill:none;stroke:#cccccc;stroke-linecap:round;stroke-width:0.8;"/>
     </g>
     <g id="line2d_12"/>
     <g id="text_6">
      <!-- 2020 -->
      <g style="fill:#262626;" transform="translate(585.72199 651.546875)scale(0.1 -0.1)">
       <use xlink:href="#LiberationSans-50"/>
       <use x="55.615234" xlink:href="#LiberationSans-48"/>
       <use x="111.230469" xlink:href="#LiberationSans-50"/>
       <use x="166.845703" xlink:href="#LiberationSans-48"/>
      </g>
     </g>
    </g>
   </g>
   <g id="matplotlib.axis_2">
    <g id="ytick_1">
     <g id="line2d_13">
      <path clip-path="url(#p056656ff55)" d="M 90 615.609094 
L 648 615.609094 
" style="fill:none;stroke:#cccccc;stroke-linecap:round;stroke-width:0.8;"/>
     </g>
     <g id="line2d_14"/>
     <g id="text_7">
      <!-- 0 -->
      <g style="fill:#262626;" transform="translate(80.939063 619.232532)scale(0.1 -0.1)">
       <use xlink:href="#LiberationSans-48"/>
      </g>
     </g>
    </g>
    <g id="ytick_2">
     <g id="line2d_15">
      <path clip-path="url(#p056656ff55)" d="M 90 524.667196 
L 648 524.667196 
" style="fill:none;stroke:#cccccc;stroke-linecap:round;stroke-width:0.8;"/>
     </g>
     <g id="line2d_16"/>
     <g id="text_8">
      <!-- 10000 -->
      <g style="fill:#262626;" transform="translate(58.695312 528.290633)scale(0.1 -0.1)">
       <use xlink:href="#LiberationSans-49"/>
       <use x="55.615234" xlink:href="#LiberationSans-48"/>
       <use x="111.230469" xlink:href="#LiberationSans-48"/>
       <use x="166.845703" xlink:href="#LiberationSans-48"/>
       <use x="222.460938" xlink:href="#LiberationSans-48"/>
      </g>
     </g>
    </g>
    <g id="ytick_3">
     <g id="line2d_17">
      <path clip-path="url(#p056656ff55)" d="M 90 433.725298 
L 648 433.725298 
" style="fill:none;stroke:#cccccc;stroke-linecap:round;stroke-width:0.8;"/>
     </g>
     <g id="line2d_18"/>
     <g id="text_9">
      <!-- 20000 -->
      <g style="fill:#262626;" transform="translate(58.695312 437.348735)scale(0.1 -0.1)">
       <use xlink:href="#LiberationSans-50"/>
       <use x="55.615234" xlink:href="#LiberationSans-48"/>
       <use x="111.230469" xlink:href="#LiberationSans-48"/>
       <use x="166.845703" xlink:href="#LiberationSans-48"/>
       <use x="222.460938" xlink:href="#LiberationSans-48"/>
      </g>
     </g>
    </g>
    <g id="ytick_4">
     <g id="line2d_19">
      <path clip-path="url(#p056656ff55)" d="M 90 342.783399 
L 648 342.783399 
" style="fill:none;stroke:#cccccc;stroke-linecap:round;stroke-width:0.8;"/>
     </g>
     <g id="line2d_20"/>
     <g id="text_10">
      <!-- 30000 -->
      <defs>
       <path d="M 51.21875 19 
Q 51.21875 14.265625 49.671875 10.546875 
Q 48.140625 6.84375 45.1875 4.265625 
Q 42.234375 1.703125 37.859375 0.359375 
Q 33.5 -0.984375 27.875 -0.984375 
Q 21.484375 -0.984375 17.109375 0.609375 
Q 12.75 2.203125 9.90625 4.8125 
Q 7.078125 7.421875 5.65625 10.765625 
Q 4.25 14.109375 3.8125 17.671875 
L 12.890625 18.5 
Q 13.28125 15.765625 14.328125 13.515625 
Q 15.375 11.28125 17.1875 9.671875 
Q 19 8.0625 21.625 7.171875 
Q 24.265625 6.296875 27.875 6.296875 
Q 34.515625 6.296875 38.296875 9.5625 
Q 42.09375 12.84375 42.09375 19.28125 
Q 42.09375 23.09375 40.40625 25.40625 
Q 38.71875 27.734375 36.203125 29.03125 
Q 33.6875 30.328125 30.734375 30.765625 
Q 27.78125 31.203125 25.296875 31.203125 
L 20.3125 31.203125 
L 20.3125 38.8125 
L 25.09375 38.8125 
Q 27.59375 38.8125 30.265625 39.328125 
Q 32.953125 39.84375 35.171875 41.1875 
Q 37.40625 42.53125 38.84375 44.828125 
Q 40.28125 47.125 40.28125 50.6875 
Q 40.28125 56.203125 37.03125 59.390625 
Q 33.796875 62.59375 27.390625 62.59375 
Q 21.578125 62.59375 17.984375 59.609375 
Q 14.40625 56.640625 13.8125 51.21875 
L 4.984375 51.90625 
Q 5.515625 56.453125 7.46875 59.8125 
Q 9.421875 63.1875 12.421875 65.40625 
Q 15.4375 67.625 19.28125 68.71875 
Q 23.140625 69.828125 27.484375 69.828125 
Q 33.25 69.828125 37.390625 68.375 
Q 41.546875 66.9375 44.1875 64.46875 
Q 46.828125 62.015625 48.0625 58.6875 
Q 49.3125 55.375 49.3125 51.609375 
Q 49.3125 48.578125 48.484375 45.9375 
Q 47.65625 43.3125 45.890625 41.203125 
Q 44.140625 39.109375 41.421875 37.59375 
Q 38.71875 36.078125 34.90625 35.296875 
L 34.90625 35.109375 
Q 39.0625 34.671875 42.140625 33.21875 
Q 45.21875 31.78125 47.21875 29.625 
Q 49.21875 27.484375 50.21875 24.75 
Q 51.21875 22.015625 51.21875 19 
z
" id="LiberationSans-51"/>
      </defs>
      <g style="fill:#262626;" transform="translate(58.695312 346.406837)scale(0.1 -0.1)">
       <use xlink:href="#LiberationSans-51"/>
       <use x="55.615234" xlink:href="#LiberationSans-48"/>
       <use x="111.230469" xlink:href="#LiberationSans-48"/>
       <use x="166.845703" xlink:href="#LiberationSans-48"/>
       <use x="222.460938" xlink:href="#LiberationSans-48"/>
      </g>
     </g>
    </g>
    <g id="ytick_5">
     <g id="line2d_21">
      <path clip-path="url(#p056656ff55)" d="M 90 251.841501 
L 648 251.841501 
" style="fill:none;stroke:#cccccc;stroke-linecap:round;stroke-width:0.8;"/>
     </g>
     <g id="line2d_22"/>
     <g id="text_11">
      <!-- 40000 -->
      <defs>
       <path d="M 43.015625 15.578125 
L 43.015625 0 
L 34.71875 0 
L 34.71875 15.578125 
L 2.296875 15.578125 
L 2.296875 22.40625 
L 33.796875 68.796875 
L 43.015625 68.796875 
L 43.015625 22.515625 
L 52.6875 22.515625 
L 52.6875 15.578125 
z
M 34.71875 58.890625 
Q 34.625 58.640625 34.234375 57.9375 
Q 33.84375 57.234375 33.34375 56.34375 
Q 32.859375 55.46875 32.34375 54.5625 
Q 31.84375 53.65625 31.453125 53.078125 
L 13.8125 27.09375 
Q 13.578125 26.703125 13.109375 26.0625 
Q 12.640625 25.4375 12.15625 24.78125 
Q 11.671875 24.125 11.171875 23.484375 
Q 10.6875 22.859375 10.40625 22.515625 
L 34.71875 22.515625 
z
" id="LiberationSans-52"/>
      </defs>
      <g style="fill:#262626;" transform="translate(58.695312 255.464939)scale(0.1 -0.1)">
       <use xlink:href="#LiberationSans-52"/>
       <use x="55.615234" xlink:href="#LiberationSans-48"/>
       <use x="111.230469" xlink:href="#LiberationSans-48"/>
       <use x="166.845703" xlink:href="#LiberationSans-48"/>
       <use x="222.460938" xlink:href="#LiberationSans-48"/>
      </g>
     </g>
    </g>
    <g id="ytick_6">
     <g id="line2d_23">
      <path clip-path="url(#p056656ff55)" d="M 90 160.899603 
L 648 160.899603 
" style="fill:none;stroke:#cccccc;stroke-linecap:round;stroke-width:0.8;"/>
     </g>
     <g id="line2d_24"/>
     <g id="text_12">
      <!-- 50000 -->
      <g style="fill:#262626;" transform="translate(58.695312 164.523041)scale(0.1 -0.1)">
       <use xlink:href="#LiberationSans-53"/>
       <use x="55.615234" xlink:href="#LiberationSans-48"/>
       <use x="111.230469" xlink:href="#LiberationSans-48"/>
       <use x="166.845703" xlink:href="#LiberationSans-48"/>
       <use x="222.460938" xlink:href="#LiberationSans-48"/>
      </g>
     </g>
    </g>
   </g>
   <g id="line2d_25">
    <path clip-path="url(#p056656ff55)" d="M 115.363636 615.6 
L 116.356443 615.236232 
L 116.557224 615.136196 
L 116.745729 615.017972 
L 116.823135 614.936124 
L 117.53437 614.781523 
L 117.661128 614.745146 
L 118.410266 614.463226 
L 118.87825 614.317719 
L 119.543949 614.181306 
L 119.875206 613.97214 
L 120.322299 613.835727 
L 120.391006 613.790256 
L 121.027202 613.635655 
L 121.084947 613.599278 
L 121.257044 613.481054 
L 121.366522 613.426489 
L 123.356586 613.080909 
L 123.460239 613.026344 
L 123.694924 612.871743 
L 123.816279 612.789895 
L 124.644111 612.444316 
L 124.825446 612.362468 
L 125.258745 612.23515 
L 125.360869 612.162396 
L 125.792258 612.025983 
L 127.214089 611.507615 
L 127.392353 611.425767 
L 127.876478 611.180224 
L 127.962591 611.134753 
L 128.318013 610.934681 
L 128.502233 610.871021 
L 132.12949 609.606929 
L 132.619237 609.488704 
L 132.685138 609.434139 
L 133.081224 609.297726 
L 133.31754 609.179502 
L 133.763527 609.070372 
L 134.278524 608.952147 
L 134.344192 608.897582 
L 134.71474 608.761169 
L 135.307713 608.342837 
L 136.160137 608.215518 
L 136.941706 607.879033 
L 137.608685 607.760808 
L 137.830726 607.597113 
L 137.932814 607.542548 
L 138.296628 607.397041 
L 138.35902 607.35157 
L 139.484264 607.133309 
L 140.152476 606.851389 
L 141.378401 606.487622 
L 141.454053 606.423962 
L 141.837947 606.28755 
L 142.023562 606.214796 
L 143.006827 606.032912 
L 143.352292 605.778275 
L 144.187975 605.587297 
L 144.300574 605.459978 
L 145.403054 604.759726 
L 145.99153 604.632407 
L 146.707363 604.159509 
L 146.801388 604.023096 
L 147.011163 603.904872 
L 147.570423 603.777553 
L 148.496907 603.341032 
L 149.189294 603.222808 
L 149.30303 603.122772 
L 149.589997 602.986359 
L 149.97414 602.740816 
L 150.438897 602.595309 
L 150.455791 602.57712 
L 150.878903 602.440707 
L 150.923713 602.395236 
L 151.315706 602.249729 
L 151.40055 602.131505 
L 151.618942 602.004186 
L 151.838679 601.849585 
L 152.496174 601.731361 
L 152.596411 601.604042 
L 152.750559 601.476723 
L 152.861021 601.367593 
L 153.169671 601.203898 
L 153.47126 600.994731 
L 153.624195 600.94926 
L 154.151511 600.785565 
L 155.507194 600.05803 
L 156.060229 599.730639 
L 156.110231 599.676074 
L 156.557705 599.512378 
L 156.643234 599.476001 
L 157.429006 599.294118 
L 157.557614 599.175893 
L 157.780014 599.030386 
L 157.922567 598.975821 
L 158.407172 598.830314 
L 158.48335 598.784843 
L 159.149027 598.639336 
L 159.284407 598.575677 
L 159.587191 598.402887 
L 160.085385 597.993649 
L 160.155018 597.939083 
L 160.757572 597.802671 
L 160.873234 597.69354 
L 161.041596 597.566222 
L 161.091541 597.548033 
L 161.337662 597.420715 
L 161.525782 597.266113 
L 161.668762 597.220642 
L 163.115334 596.811404 
L 164.341663 596.684085 
L 164.363014 596.656803 
L 165.778832 596.411259 
L 165.842629 596.320318 
L 166.085994 596.183905 
L 166.735276 595.50184 
L 167.665686 595.210826 
L 167.731209 595.138073 
L 167.885752 595.010754 
L 167.984314 594.756117 
L 168.128249 594.628798 
L 168.257815 594.519668 
L 168.385897 594.374161 
L 168.429832 594.337784 
L 169.138182 594.183183 
L 169.325855 594.064958 
L 169.538296 593.837604 
L 169.783322 593.573872 
L 169.885895 593.48293 
L 170.04691 593.346518 
L 170.18038 593.291952 
L 170.751352 593.119163 
L 170.995805 592.900902 
L 171.228499 592.609888 
L 171.299806 592.52804 
L 171.456869 592.400722 
L 171.508236 592.337062 
L 171.685812 592.209744 
L 171.717216 592.118802 
L 172.385312 591.973295 
L 172.488637 591.882353 
L 172.603844 591.74594 
L 172.745156 591.57315 
L 172.87132 591.445832 
L 173.018183 591.254854 
L 173.124935 591.07297 
L 173.176408 591.000217 
L 173.355587 590.872898 
L 173.411521 590.827427 
L 174.063715 590.68192 
L 174.238275 590.518224 
L 175.093633 589.545146 
L 175.710284 589.408733 
L 175.835486 589.317791 
L 175.953457 589.117719 
L 176.253926 588.753952 
L 176.384419 588.581162 
L 176.5017 588.290148 
L 176.64119 588.135547 
L 176.782096 588.035511 
L 177.312796 587.835438 
L 177.424449 587.589895 
L 177.668042 587.508048 
L 177.852717 587.362541 
L 178.074238 587.153374 
L 178.269914 586.998773 
L 178.370372 586.907831 
L 178.994549 586.762324 
L 179.129149 586.635005 
L 179.491351 586.098448 
L 179.564982 585.871093 
L 179.740857 585.743775 
L 179.915145 585.598268 
L 180.172539 585.370913 
L 180.646346 585.207218 
L 180.975237 584.616095 
L 181.097223 584.479682 
L 181.210578 584.197763 
L 181.320387 584.06135 
L 181.461486 583.77943 
L 181.573734 583.624829 
L 181.739195 583.415662 
L 181.822913 583.38838 
L 182.267949 583.251967 
L 182.505889 582.960953 
L 182.622162 582.751786 
L 182.794892 582.606279 
L 183.302185 581.960592 
L 183.329452 581.915121 
L 183.859425 581.769614 
L 183.950513 581.633201 
L 184.242286 581.178492 
L 184.494046 580.705594 
L 184.924369 579.996247 
L 184.963275 579.796175 
L 185.574092 579.641573 
L 185.678315 579.377842 
L 185.872484 579.132299 
L 185.991952 578.877661 
L 186.093298 578.741249 
L 186.1413 578.550271 
L 186.256613 578.450235 
L 186.328057 578.295633 
L 186.649467 577.877301 
L 187.259054 577.722699 
L 187.619963 577.258896 
L 187.724806 577.131577 
L 187.821886 576.949693 
L 187.987295 576.749621 
L 188.222186 576.476795 
L 188.341996 576.285817 
L 188.814819 576.122122 
L 188.947739 575.931144 
L 189.127198 575.740166 
L 189.200324 575.521905 
L 189.302804 575.421869 
L 189.44341 575.267268 
L 190.242884 574.339661 
L 190.58254 574.212342 
L 191.193379 573.16651 
L 191.295578 573.021003 
L 191.593808 572.584482 
L 192.252888 572.284374 
L 192.585487 571.647781 
L 192.744797 571.484085 
L 193.071836 570.874774 
L 193.177385 570.747456 
L 193.241248 570.574666 
L 193.341096 570.529195 
L 193.867537 570.374594 
L 194.130909 569.892602 
L 194.263906 569.656153 
L 194.414432 569.456081 
L 194.766111 568.9559 
L 194.841297 568.828582 
L 194.93389 568.637604 
L 195.168964 568.510285 
L 195.280108 568.428437 
L 195.53235 568.292025 
L 195.665169 568.00101 
L 195.824049 567.810032 
L 196.018687 567.537207 
L 196.096818 567.364417 
L 196.579809 566.609599 
L 197.095941 566.454998 
L 197.212531 566.309491 
L 197.407917 565.836593 
L 197.501589 565.654709 
L 197.612719 565.59105 
L 197.975719 565.018116 
L 198.252784 564.672537 
L 198.664528 564.52703 
L 198.93421 564.35424 
L 199.13976 564.117791 
L 199.368977 563.799495 
L 199.881429 562.935547 
L 200.239215 562.844605 
L 200.522595 562.717286 
L 200.82105 562.244388 
L 200.95674 562.062505 
L 201.584613 561.134897 
L 202.071686 560.980296 
L 202.457712 560.307326 
L 202.568757 560.070877 
L 202.68283 559.725298 
L 202.77683 559.497943 
L 202.905257 559.334248 
L 203.018916 559.179646 
L 203.184827 558.852256 
L 203.857312 558.734031 
L 203.951017 558.524865 
L 204.039944 558.397546 
L 204.162063 558.042873 
L 204.307296 557.915554 
L 204.425536 557.569975 
L 204.539738 557.415374 
L 204.693993 557.16983 
L 204.784059 557.015229 
L 204.911286 556.84244 
L 205.477488 556.706027 
L 206.168747 555.842079 
L 206.408515 555.596536 
L 206.56489 555.414652 
L 207.21586 555.04179 
L 207.672252 554.241501 
L 207.772821 554.168748 
L 208.783702 553.659473 
L 209.063091 553.041068 
L 209.173292 552.731866 
L 210.192774 551.358643 
L 210.418745 551.231324 
L 210.858619 550.421942 
L 211.01951 550.112739 
L 211.135303 550.030891 
L 211.229457 549.776254 
L 211.355267 549.576182 
L 211.44206 549.403392 
L 211.513388 549.230603 
L 211.686469 549.112378 
L 211.787119 548.839553 
L 212.011758 548.712234 
L 212.150746 548.393937 
L 212.245542 548.066546 
L 212.609032 547.85738 
L 212.694055 547.68459 
L 212.800017 547.566366 
L 213.071452 547.193504 
L 213.323719 546.929773 
L 213.977957 546.647853 
L 214.152835 546.384121 
L 214.363558 546.202237 
L 214.499895 546.038542 
L 214.660591 545.792999 
L 214.773974 545.638398 
L 214.825378 545.583833 
L 215.445706 545.438326 
L 215.591906 545.220065 
L 215.704567 545.047275 
L 215.987786 544.465247 
L 216.161579 544.265175 
L 216.41355 543.901407 
L 216.588113 543.801371 
L 217.082211 543.564922 
L 217.239126 543.273908 
L 217.337897 543.137495 
L 218.029783 542.073475 
L 218.285588 541.90978 
L 218.696359 541.782461 
L 219.203077 540.982173 
L 219.326933 540.709347 
L 219.535771 540.445615 
L 219.675938 540.291014 
L 219.754577 540.136413 
L 220.341103 540 
L 220.549135 539.690798 
L 220.667507 539.536196 
L 220.79249 539.32703 
L 221.180433 538.817755 
L 221.37421 538.563118 
L 221.571563 538.426705 
L 222.08519 538.19935 
L 222.208318 538.026561 
L 222.322944 537.844677 
L 222.691638 537.335402 
L 222.894955 537.171707 
L 223.011348 537.053482 
L 223.66514 536.826128 
L 224.114803 536.325947 
L 224.230142 536.034933 
L 224.380241 535.871238 
L 224.581763 535.534753 
L 225.057124 535.307398 
L 225.3322 535.180079 
L 225.909668 534.179719 
L 226.066677 534.025117 
L 226.174908 533.870516 
L 226.354178 533.561314 
L 226.454256 533.433995 
L 227.003252 533.124792 
L 227.08098 532.961097 
L 227.18905 532.779213 
L 228.024062 531.442367 
L 228.118576 531.29686 
L 228.683443 531.01494 
L 228.693309 530.960375 
L 228.859803 530.842151 
L 228.983433 530.569325 
L 229.143502 530.305594 
L 229.259158 530.050956 
L 229.389634 529.914543 
L 229.735151 529.159726 
L 230.296019 529.005125 
L 230.567709 528.49585 
L 230.839697 527.950198 
L 231.331452 527.022591 
L 231.447747 526.831613 
L 231.907477 526.686106 
L 232.034128 526.41328 
L 233.119908 524.776326 
L 233.612143 524.639913 
L 233.668565 524.494406 
L 233.785895 524.17611 
L 233.939101 523.848719 
L 234.040853 523.584987 
L 234.149561 523.421292 
L 234.294843 523.175749 
L 234.512528 522.857452 
L 234.674501 522.420931 
L 235.267085 522.175388 
L 235.478268 521.59336 
L 235.587743 521.384193 
L 236.048898 520.502057 
L 236.332086 519.847275 
L 236.61873 519.79271 
L 236.977524 519.665392 
L 237.123234 519.383472 
L 237.947344 518.092097 
L 238.018941 517.982966 
L 238.52578 517.828365 
L 238.694559 517.655576 
L 238.81904 517.528257 
L 238.993085 517.300902 
L 239.2834 517.018982 
L 239.407265 516.846193 
L 239.579507 516.655215 
L 239.877521 516.291447 
L 240.265272 516.136846 
L 240.381937 515.954962 
L 240.54317 515.763984 
L 240.757954 515.436593 
L 241.504269 514.554457 
L 241.880374 514.418044 
L 241.984646 514.281631 
L 242.155636 514.036088 
L 242.249813 513.890581 
L 243.214821 513.035727 
L 243.531841 512.89022 
L 243.590967 512.753807 
L 243.689124 512.471887 
L 243.849894 512.317286 
L 243.957466 512.117214 
L 244.22987 511.680693 
L 244.351494 511.516997 
L 244.735782 511.089571 
L 245.185772 510.880404 
L 245.563271 510.171057 
L 245.695418 510.016456 
L 246.300121 509.016095 
L 246.931196 508.752364 
L 247.041422 508.57048 
L 247.195371 508.406785 
L 247.502215 508.052111 
L 247.611742 507.915698 
L 247.92342 507.370047 
L 248.56289 507.142692 
L 248.99098 506.733454 
L 249.570616 506.542476 
L 250.19013 506.360592 
L 251.119674 505.924071 
L 251.851606 505.778564 
L 252.26835 505.369325 
L 252.406881 505.232912 
L 252.56081 505.123782 
L 252.65097 504.987369 
L 252.799606 504.860051 
L 253.029888 504.669073 
L 253.547488 504.459906 
L 253.720465 504.196175 
L 253.79138 504.041573 
L 253.991075 503.832407 
L 254.284963 503.51411 
L 254.285157 503.505016 
L 254.546553 503.386792 
L 254.646086 503.241285 
L 255.208268 503.023024 
L 255.500468 502.759293 
L 255.635613 502.659257 
L 255.778887 502.395525 
L 255.975895 502.013569 
L 256.175776 501.749838 
L 256.527102 501.477012 
L 256.851193 501.322411 
L 256.914308 501.140527 
L 257.026197 500.976831 
L 257.133719 500.840419 
L 258.087352 499.667268 
L 258.515847 499.458102 
L 258.632402 499.176182 
L 258.751067 499.048863 
L 258.94322 498.785132 
L 259.020327 498.63053 
L 259.134147 498.403176 
L 259.232729 498.266763 
L 259.390431 498.02122 
L 259.443227 497.875713 
L 259.530737 497.648358 
L 260.13916 497.402815 
L 260.380098 496.857163 
L 260.481998 496.647997 
L 260.595386 496.557055 
L 260.722673 496.256947 
L 260.933308 495.847708 
L 261.102558 495.665825 
L 261.236327 495.283869 
L 261.738818 495.15655 
L 261.858203 494.956478 
L 262.027064 494.810971 
L 262.379562 494.047059 
L 262.542292 493.91974 
L 263.245515 493.183111 
L 263.513144 492.873908 
L 263.87515 492.146373 
L 263.966838 491.955395 
L 264.086958 491.691664 
L 264.243739 491.40065 
L 264.403638 491.191483 
L 264.496477 491.009599 
L 264.521067 490.900469 
L 264.876467 490.764056 
L 265.163845 490.527607 
L 266.054516 488.826994 
L 266.106154 488.690581 
L 266.373915 488.42685 
L 266.813624 488.135835 
L 266.899655 488.017611 
L 267.103465 487.86301 
L 267.192691 487.762974 
L 267.413208 487.590184 
L 267.967799 486.871743 
L 268.429693 486.680765 
L 268.677007 486.444316 
L 268.91258 486.126019 
L 269.127262 485.753158 
L 269.73937 485.207506 
L 270.115417 485.061999 
L 270.220232 484.916492 
L 270.634746 484.625478 
L 270.755948 484.534536 
L 270.86076 484.370841 
L 270.982277 484.261711 
L 271.106005 484.116204 
L 271.144485 484.079827 
L 271.818385 483.897943 
L 271.848 483.861566 
L 272.020009 483.743342 
L 272.083082 483.634211 
L 272.302893 483.506893 
L 272.727808 483.097654 
L 272.879285 482.943053 
L 273.415962 482.770263 
L 273.932283 482.179141 
L 274.228831 481.733526 
L 274.390281 481.588019 
L 274.479219 481.487983 
L 275.128566 481.324287 
L 275.379954 481.06965 
L 275.857353 480.39668 
L 275.967527 480.333021 
L 276.091942 480.178419 
L 276.177211 480.11476 
L 276.81121 479.83284 
L 277.132154 479.378131 
L 277.234086 479.223529 
L 277.337093 479.059834 
L 277.674029 478.868856 
L 277.790801 478.714255 
L 278.41804 478.523277 
L 278.689637 478.114038 
L 279.683907 477.113677 
L 280.327309 476.631685 
L 280.43011 476.495272 
L 280.540731 476.35886 
L 281.365318 475.476723 
L 281.66211 475.349405 
L 281.901834 475.094767 
L 281.993969 474.94926 
L 282.125295 474.794659 
L 282.89446 474.021653 
L 283.302295 473.857957 
L 283.588802 473.266835 
L 283.692953 473.094045 
L 284.031424 472.75756 
L 284.403095 472.111873 
L 285.060928 471.520751 
L 285.173513 471.375244 
L 285.263336 471.184266 
L 285.368348 470.975099 
L 286.405304 469.929267 
L 286.651889 469.811043 
L 286.681718 469.756478 
L 286.887969 469.638253 
L 286.974507 469.45637 
L 287.586447 468.556045 
L 287.9978 468.183183 
L 288.267259 468.001299 
L 288.596266 467.428365 
L 288.76156 467.20101 
L 288.844725 467.028221 
L 288.914678 466.864525 
L 289.045417 466.728113 
L 289.203352 466.518946 
L 289.328085 466.337062 
L 289.395691 466.20065 
L 289.938522 466.046048 
L 290.180556 465.664092 
L 290.2911 465.491303 
L 290.472956 465.227571 
L 290.604278 464.918369 
L 290.753303 464.654637 
L 290.995614 464.372717 
L 291.297047 464.281776 
L 291.608349 464.136268 
L 291.726425 464.00895 
L 291.838621 463.890725 
L 291.914095 463.72703 
L 292.211224 463.026777 
L 292.341513 462.899459 
L 292.628264 462.435655 
L 292.754274 462.299242 
L 293.275776 462.117358 
L 293.388692 461.980946 
L 293.536849 461.844533 
L 293.648225 461.671743 
L 293.823892 461.435294 
L 294.659883 460.744136 
L 295.016556 460.58044 
L 295.527063 460.143919 
L 295.714525 459.825623 
L 295.91713 459.580079 
L 296.054371 459.461855 
L 296.550389 459.289065 
L 297.406284 458.17048 
L 297.550484 458.024973 
L 298.297997 457.397474 
L 299.527917 455.360375 
L 299.936922 455.169397 
L 300.017149 454.960231 
L 300.261334 454.842006 
L 300.73853 454.314543 
L 300.933381 454.141754 
L 300.970585 454.050812 
L 301.54259 453.896211 
L 301.720868 453.632479 
L 302.092718 453.00498 
L 302.207549 452.768531 
L 302.499004 452.386575 
L 302.805276 452.168315 
L 303.205302 452.004619 
L 303.307536 451.840924 
L 303.496532 451.631757 
L 303.913627 450.831469 
L 304.010181 450.667773 
L 304.25413 450.294912 
L 304.296469 450.222158 
L 304.780835 450.076651 
L 305.393463 449.158138 
L 305.777845 448.075929 
L 305.878317 447.912234 
L 306.018758 447.657597 
L 306.497047 447.493901 
L 306.692334 447.030097 
L 307.762097 445.165789 
L 308.161756 445.020281 
L 308.403584 444.483724 
L 308.483187 444.329123 
L 308.672704 444.038109 
L 308.827918 443.783472 
L 309.477008 442.801299 
L 309.656086 442.746734 
L 309.811525 442.601227 
L 310.346767 441.728185 
L 310.441918 441.519018 
L 310.529157 441.373511 
L 310.960387 440.54594 
L 311.300351 440.400433 
L 311.319494 440.382245 
L 311.476357 440.26402 
L 312.52518 438.081415 
L 312.634387 437.972284 
L 313.009944 437.817683 
L 313.112794 437.781306 
L 313.202011 437.653988 
L 313.49377 437.062865 
L 313.599988 436.890076 
L 313.699487 436.635438 
L 313.887281 436.198917 
L 313.976503 436.035222 
L 314.399374 435.589607 
L 314.823757 435.344064 
L 314.949408 435.16218 
L 315.053407 434.980296 
L 315.153832 434.652905 
L 315.29187 434.461927 
L 315.439657 434.216384 
L 315.872448 433.552508 
L 316.480485 433.397907 
L 317.310508 432.115626 
L 317.427501 431.933742 
L 317.723553 431.579069 
L 318.132601 431.360808 
L 318.241474 431.0607 
L 318.393085 430.860628 
L 318.498193 430.678744 
L 318.726306 430.49686 
L 319.277124 429.587441 
L 319.736758 429.414652 
L 320.025404 428.887189 
L 320.292458 428.332443 
L 320.398311 428.186936 
L 320.524683 427.97777 
L 320.845684 427.250235 
L 321.102033 427.104728 
L 321.354605 427.013786 
L 321.444589 426.877373 
L 321.58289 426.468134 
L 322.564951 424.467412 
L 322.8753 424.340094 
L 323.115531 424.140022 
L 323.2293 423.930855 
L 323.40238 423.621653 
L 323.512636 423.367016 
L 323.629684 423.112378 
L 323.754393 422.803176 
L 324.056437 422.230242 
L 324.178338 421.993793 
L 324.553955 421.866474 
L 326.102769 419.66568 
L 326.359899 419.520173 
L 326.477901 419.338289 
L 326.58496 419.156406 
L 326.705786 419.019993 
L 327.174984 418.347023 
L 327.302285 418.137856 
L 327.437937 417.837748 
L 327.542305 417.746806 
L 328.024655 417.583111 
L 328.796708 416.282642 
L 329.044523 416.146229 
L 329.156007 416.082569 
L 329.691802 415.927968 
L 330.118624 415.373223 
L 330.204052 415.191339 
L 330.37785 414.891231 
L 330.802984 414.200072 
L 331.319907 413.963623 
L 331.497829 413.581667 
L 331.832009 413.090581 
L 332.186956 412.281198 
L 332.297514 412.017467 
L 332.568918 411.662793 
L 332.925148 411.52638 
L 333.105103 411.19899 
L 333.415298 410.553302 
L 333.609598 410.316853 
L 333.875359 409.953086 
L 334.06133 409.68026 
L 334.238373 409.562035 
L 334.701478 409.261927 
L 335.128924 408.625334 
L 335.455775 408.079682 
L 336.80996 407.570408 
L 337.357873 407.20664 
L 338.263033 406.952003 
L 338.3888 406.779213 
L 338.544112 406.579141 
L 338.728221 406.369975 
L 339.629496 405.924359 
L 339.69081 405.778852 
L 340.297773 404.787586 
L 340.45385 404.62389 
L 340.566928 404.40563 
L 340.706906 404.23284 
L 340.932333 404.132804 
L 341.303567 403.987297 
L 341.458871 403.759942 
L 341.545195 403.596247 
L 341.660361 403.368892 
L 341.885375 403.096066 
L 342.040172 402.8869 
L 342.419748 402.204836 
L 342.982868 402.004764 
L 343.759478 400.731577 
L 343.862627 400.549693 
L 343.948973 400.385998 
L 344.101748 400.19502 
L 344.647237 400.040419 
L 344.769444 399.794875 
L 344.920812 399.612992 
L 345.049748 399.422014 
L 345.127315 399.285601 
L 345.24935 399.06734 
L 345.40963 398.821797 
L 345.512861 398.649008 
L 345.633702 398.476218 
L 345.919984 398.276146 
L 346.231269 398.130639 
L 346.415564 397.821436 
L 346.545547 397.685023 
L 347.619614 396.175388 
L 347.941457 396.038975 
L 348.072749 395.638831 
L 348.146577 395.493324 
L 348.293933 395.147744 
L 348.468997 394.811259 
L 348.583357 394.620281 
L 348.706705 394.338362 
L 348.883336 394.010971 
L 348.991773 393.79271 
L 349.093757 393.692674 
L 349.332399 393.547167 
L 349.427521 393.465319 
L 349.654658 393.283436 
L 349.89547 392.765067 
L 350.022474 392.474053 
L 350.153293 392.210321 
L 350.390576 391.646481 
L 350.548497 391.38275 
L 350.618305 391.200866 
L 350.795153 391.009888 
L 351.424549 390.245976 
L 351.549628 389.964056 
L 351.851992 389.409311 
L 351.956643 389.263804 
L 352.062543 389.136485 
L 352.173276 388.945507 
L 353.032094 388.363479 
L 354.164537 386.517358 
L 354.544499 386.344569 
L 354.691261 386.035366 
L 355.392443 384.944064 
L 355.533991 384.780368 
L 355.75278 384.562108 
L 356.226209 384.434789 
L 356.402851 384.180152 
L 356.798742 383.616312 
L 356.913012 383.516276 
L 357.080216 383.334392 
L 357.552738 383.016095 
L 357.852415 382.888777 
L 358.291483 382.46135 
L 358.449095 382.306748 
L 358.987361 381.706532 
L 359.82896 381.188163 
L 359.960987 380.978997 
L 360.329351 380.460628 
L 360.427892 380.360592 
L 360.789771 380.187802 
L 361.491072 379.623962 
L 362.239711 378.64179 
L 362.939186 378.523565 
L 363.071128 378.341682 
L 363.326653 377.941537 
L 363.458809 377.786936 
L 363.584394 377.650523 
L 363.740811 377.495922 
L 363.915379 377.304944 
L 364.466266 377.032118 
L 364.596424 376.786575 
L 365.056173 376.250018 
L 365.183528 376.022663 
L 365.750815 375.258751 
L 366.223362 375.095056 
L 366.341936 374.940455 
L 366.508307 374.7131 
L 366.803808 374.194731 
L 367.563152 373.458102 
L 367.787459 373.330783 
L 367.939157 373.103428 
L 368.082919 372.948827 
L 368.26257 372.703284 
L 368.384656 372.512306 
L 368.49711 372.248575 
L 368.791951 371.712017 
L 369.055556 371.530134 
L 369.166675 371.466474 
L 369.398566 371.339156 
L 369.632769 371.020859 
L 369.745992 370.793504 
L 369.855084 370.575244 
L 369.966412 370.384266 
L 370.122272 370.084157 
L 370.239792 369.929556 
L 370.659794 369.065608 
L 371.128751 368.820065 
L 371.236037 368.547239 
L 371.421691 368.265319 
L 372.290732 366.46467 
L 372.779098 366.310069 
L 373.582147 365.027788 
L 373.720073 364.700397 
L 373.814372 364.482136 
L 373.917828 364.363912 
L 374.306621 364.172934 
L 375.579682 362.408661 
L 376.014452 362.244966 
L 376.175044 362.008517 
L 376.332404 361.699314 
L 376.481763 361.317358 
L 377.228566 360.180585 
L 377.934628 359.835005 
L 378.104596 359.598556 
L 378.268561 359.453049 
L 378.492323 359.125659 
L 379.046908 358.479971 
L 379.392475 358.334464 
L 379.773237 357.534175 
L 380.003821 357.224973 
L 380.118414 357.052183 
L 380.197858 356.897582 
L 380.490149 356.41559 
L 381.032564 356.270083 
L 381.337071 355.969975 
L 381.766983 355.615301 
L 381.881486 355.397041 
L 382.52922 354.805918 
L 382.749908 354.669506 
L 382.921026 354.405774 
L 383.265828 354.069289 
L 383.392 353.851029 
L 383.511396 353.578203 
L 383.615452 353.396319 
L 383.797755 353.123493 
L 383.922061 353.05074 
L 384.361976 352.905233 
L 384.482592 352.705161 
L 384.773373 351.959437 
L 384.883744 351.804836 
L 385.009058 351.486539 
L 385.12252 351.240996 
L 385.262218 350.922699 
L 385.695344 350.377048 
L 386.021365 350.240635 
L 386.164175 350.031469 
L 386.35601 349.913244 
L 386.580736 349.585853 
L 386.94355 348.976543 
L 387.422839 348.521833 
L 387.688934 348.376326 
L 387.964728 347.930711 
L 388.096166 347.639697 
L 388.200844 347.512378 
L 388.375113 347.285023 
L 388.490419 347.057669 
L 388.936923 346.493829 
L 389.300548 346.348322 
L 389.430032 346.139156 
L 389.941906 345.347961 
L 390.058354 345.111512 
L 390.215133 344.966005 
L 390.496768 344.574955 
L 390.907164 344.383977 
L 391.254131 343.820137 
L 391.415824 343.510935 
L 391.551906 343.210826 
L 392.126111 342.374161 
L 392.588345 342.128618 
L 392.695853 341.955828 
L 392.777626 341.801227 
L 392.904815 341.455648 
L 393.092482 340.946373 
L 393.860152 339.554962 
L 394.402515 339.218477 
L 395.474059 337.081342 
L 395.961976 336.899459 
L 396.165742 336.644821 
L 396.3082 336.390184 
L 396.467926 336.126453 
L 396.586791 335.962757 
L 396.830786 335.571707 
L 397.287138 335.071527 
L 397.606955 334.935114 
L 397.714398 334.744136 
L 397.847285 334.598629 
L 398.045057 334.253049 
L 398.138983 334.016601 
L 398.225198 333.861999 
L 398.604546 333.40729 
L 398.74231 333.098087 
L 399.165633 332.95258 
L 399.337026 332.725226 
L 400.06136 331.588452 
L 400.630608 330.942764 
L 400.911824 330.82454 
L 401.08642 330.524432 
L 401.220266 330.315265 
L 401.323717 330.160664 
L 401.495997 329.815085 
L 401.579337 329.633201 
L 402.190048 328.896572 
L 402.823844 328.496427 
L 402.937166 328.323638 
L 403.159805 328.078095 
L 403.250888 327.923493 
L 403.567878 327.759798 
L 403.939445 327.56882 
L 404.258917 327.432407 
L 404.347364 327.277806 
L 404.465815 327.11411 
L 405.603458 325.295272 
L 405.875676 325.15886 
L 406.112809 324.649585 
L 406.220777 324.358571 
L 406.682764 323.540094 
L 406.80178 323.276362 
L 406.912389 323.121761 
L 407.130663 322.930783 
L 407.353795 322.748899 
L 408.067364 321.539372 
L 408.267174 321.421148 
L 408.371477 321.239264 
L 408.653753 320.784554 
L 408.742622 320.684518 
L 409.187195 320.539011 
L 409.313227 320.311656 
L 409.664657 319.638686 
L 410.241418 318.665608 
L 410.78885 318.410971 
L 412.044946 315.873692 
L 412.377211 315.737279 
L 412.526068 315.537207 
L 412.68888 315.291664 
L 412.832233 314.900613 
L 413.282946 313.918441 
L 413.682983 313.245471 
L 414.009447 313.081776 
L 414.349649 312.608878 
L 414.474725 312.490653 
L 414.981993 311.699459 
L 415.134731 311.57214 
L 415.370676 311.344785 
L 415.828592 311.162901 
L 417.066299 309.198556 
L 417.498164 309.034861 
L 417.778246 308.634717 
L 417.894426 308.507398 
L 418.024858 308.434645 
L 418.86104 307.916276 
L 419.205486 307.707109 
L 420.450735 306.361169 
L 420.786386 306.233851 
L 421.034782 305.806424 
L 421.365707 305.297149 
L 421.443921 305.124359 
L 421.572528 304.987947 
L 421.861361 304.696933 
L 421.997599 304.542331 
L 422.087838 304.505955 
L 422.767809 304.333165 
L 422.86484 304.305882 
L 424.133953 303.914832 
L 424.409572 303.742043 
L 424.516318 303.60563 
L 424.703454 303.423746 
L 425.068931 302.978131 
L 425.21155 302.814435 
L 425.395507 302.714399 
L 426.025964 302.377914 
L 426.147807 302.25969 
L 426.245339 302.077806 
L 426.360859 301.777698 
L 426.490006 301.559437 
L 426.639414 301.368459 
L 426.858962 301.122916 
L 426.991633 301.086539 
L 427.449127 300.859184 
L 427.996188 300.195309 
L 428.258587 299.740599 
L 428.513953 299.294984 
L 428.625176 299.122194 
L 429.050146 298.967593 
L 429.253381 298.767521 
L 429.881117 297.739877 
L 429.986449 297.539805 
L 430.073907 297.403392 
L 430.214491 297.257885 
L 430.393385 297.130567 
L 430.746075 296.98506 
L 430.86 296.775893 
L 430.928849 296.612198 
L 431.099516 296.275713 
L 431.635267 295.166222 
L 431.758346 294.911584 
L 432.087312 294.566005 
L 432.44569 294.375027 
L 432.613597 294.093107 
L 433.013459 293.474702 
L 433.120687 293.220065 
L 433.247742 293.010899 
L 433.354441 292.947239 
L 433.587919 292.556189 
L 433.656047 292.510718 
L 433.799022 292.383399 
L 433.994816 292.237892 
L 434.296438 291.946878 
L 434.494687 291.546734 
L 434.900143 290.901047 
L 435.044239 290.719163 
L 435.252304 290.519091 
L 435.339579 290.482714 
L 435.896827 290.282642 
L 436.006409 290.209888 
L 436.499754 289.327752 
L 436.611673 288.909419 
L 436.862132 288.418333 
L 437.12966 288.136413 
L 437.39073 288 
L 437.704785 287.408878 
L 438.018666 286.82685 
L 438.164153 286.554024 
L 438.437966 286.081126 
L 438.777305 285.999278 
L 439.031306 285.881054 
L 439.1623 285.653699 
L 439.602506 285.208084 
L 440.414717 284.516925 
L 440.724323 284.389607 
L 440.81031 284.235005 
L 440.996668 283.871238 
L 441.87226 282.8345 
L 442.410274 282.652616 
L 443.230516 281.37943 
L 443.872129 281.024756 
L 444.03568 280.897438 
L 444.393475 280.342692 
L 444.656991 279.906171 
L 444.872342 279.633345 
L 446.165673 278.560231 
L 446.280135 278.360159 
L 446.47264 278.169181 
L 446.694805 277.987297 
L 446.862806 277.778131 
L 447.182262 277.650812 
L 447.652301 277.177914 
L 447.80794 277.005125 
L 447.921388 276.814147 
L 448.08855 276.514038 
L 448.200363 276.32306 
L 448.377813 276.004764 
L 449.022758 275.586431 
L 449.213834 275.095345 
L 449.381599 274.877084 
L 449.508321 274.704294 
L 450.217126 273.831252 
L 450.577978 273.703934 
L 450.685538 273.385637 
L 450.971656 272.812703 
L 451.067328 272.621725 
L 451.165871 272.476218 
L 451.282111 272.321617 
L 451.430802 272.139733 
L 452.030101 271.712306 
L 452.401709 271.512234 
L 452.640206 271.348538 
L 452.899621 271.175749 
L 453.197846 270.884735 
L 454.084455 270.37546 
L 454.237082 270.184482 
L 454.571446 269.611548 
L 454.721613 269.284157 
L 455.353716 268.729412 
L 455.626507 268.602093 
L 455.750457 268.311079 
L 455.900747 268.065536 
L 456.269022 267.474414 
L 456.380675 267.338001 
L 456.485183 267.147023 
L 456.65165 266.910574 
L 456.723239 266.828726 
L 457.319979 266.646842 
L 457.437435 266.483147 
L 458.596931 265.018982 
L 458.971419 264.782533 
L 459.631682 263.854926 
L 459.757706 263.700325 
L 459.985024 263.427499 
L 460.587885 263.309275 
L 460.817515 262.97279 
L 460.990262 262.672681 
L 461.114959 262.51808 
L 461.351777 262.272537 
L 461.508262 262.090653 
L 461.904077 261.890581 
L 462.279617 261.772357 
L 462.397221 261.599567 
L 463.176122 260.89022 
L 464.120198 260.508264 
L 464.695053 259.835294 
L 464.794078 259.707975 
L 464.896693 259.54428 
L 465.093931 259.344208 
L 465.558428 259.171418 
L 465.664716 259.089571 
L 465.84323 258.925875 
L 465.952916 258.734897 
L 466.751015 257.716348 
L 466.811664 257.69816 
L 467.190639 257.579935 
L 467.35629 257.343486 
L 467.775801 256.761458 
L 467.959367 256.634139 
L 468.039564 256.506821 
L 468.217678 256.370408 
L 468.32914 256.170336 
L 468.923085 255.933887 
L 469.165483 255.606496 
L 469.32518 255.406424 
L 470.200774 254.460628 
L 470.593082 254.324215 
L 471.70485 253.132876 
L 472.190183 252.996463 
L 472.416767 252.705449 
L 472.534023 252.614507 
L 472.656557 252.469 
L 473.299206 251.695994 
L 473.951381 251.450451 
L 474.079076 251.350415 
L 474.464258 250.986647 
L 474.620891 250.704728 
L 474.693315 250.531938 
L 474.977244 250.322772 
L 475.562603 250.149982 
L 475.672454 249.94991 
L 475.862751 249.66799 
L 475.974626 249.549765 
L 476.073718 249.376976 
L 476.27726 249.085962 
L 476.453091 248.831324 
L 476.704347 248.503934 
L 476.92035 248.43118 
L 477.157745 248.294767 
L 477.315006 248.176543 
L 477.428503 247.958282 
L 478.310826 246.857885 
L 478.806097 246.69419 
L 478.928792 246.539589 
L 479.096009 246.248575 
L 479.312576 246.012126 
L 479.522516 245.684735 
L 479.647329 245.475568 
L 479.841021 245.129989 
L 480.040584 245.029953 
L 480.490708 244.89354 
L 480.771324 244.50249 
L 480.881205 244.356983 
L 480.945386 244.229664 
L 481.153711 243.929556 
L 481.242745 243.729484 
L 481.644639 243.165644 
L 481.886418 243.129267 
L 482.318092 242.98376 
L 483.159537 241.883363 
L 483.395875 241.774233 
L 483.801805 241.583255 
L 484.039293 241.3559 
L 484.228087 241.219488 
L 484.342831 241.055792 
L 484.435862 240.85572 
L 484.568787 240.710213 
L 484.722864 240.482858 
L 484.992814 240.228221 
L 485.495836 240.100902 
L 485.810174 239.691664 
L 485.964092 239.555251 
L 486.78847 238.754962 
L 487.271426 238.627643 
L 487.374668 238.500325 
L 487.523621 238.309347 
L 487.734602 237.918297 
L 487.893693 237.663659 
L 488.025065 237.336268 
L 488.722601 236.963407 
L 488.845531 236.836088 
L 488.962314 236.681487 
L 489.133145 236.454132 
L 489.52237 235.953952 
L 490.667139 235.226416 
L 490.772732 235.026344 
L 491.134225 234.835366 
L 491.512848 234.280621 
L 492.132975 234.007795 
L 492.236119 233.816817 
L 492.359532 233.616745 
L 492.46876 233.480332 
L 492.788975 233.098376 
L 492.986845 232.916492 
L 493.133289 232.689137 
L 493.565399 232.54363 
L 493.775798 232.416312 
L 493.936684 232.252616 
L 494.206045 231.916131 
L 494.362798 231.752436 
L 494.595098 231.470516 
L 494.857951 231.097654 
L 495.434444 230.833923 
L 496.642437 229.151498 
L 497.013816 229.005991 
L 497.321263 228.61494 
L 497.817328 227.860123 
L 497.94013 227.569109 
L 498.067452 227.432696 
L 498.1637 227.259906 
L 498.785945 226.968892 
L 500.016939 225.595669 
L 500.347971 225.459257 
L 500.898211 224.74991 
L 501.048622 224.595309 
L 501.52684 224.35886 
L 502.212992 224.113316 
L 502.321872 223.967809 
L 502.654781 223.558571 
L 502.846056 223.376687 
L 503.041308 223.194803 
L 503.102633 223.085673 
L 503.741742 222.894695 
L 503.928239 222.676435 
L 504.123474 222.503645 
L 505.160795 221.694262 
L 505.458585 221.548755 
L 505.598102 221.366871 
L 505.668003 221.248647 
L 505.757001 221.075857 
L 506.050911 220.875785 
L 506.110669 220.848502 
L 506.290728 220.712089 
L 506.618897 220.493829 
L 507.077451 220.348322 
L 507.551627 219.893612 
L 507.662163 219.766294 
L 507.909175 219.520751 
L 509.359575 219.066041 
L 509.525395 218.875063 
L 509.805509 218.729556 
L 509.893811 218.602237 
L 510.321581 218.447636 
L 510.324904 218.429448 
L 510.837164 218.302129 
L 511.095226 218.083869 
L 511.542654 217.574594 
L 511.959365 217.438181 
L 512.329207 217.038037 
L 512.433627 216.947095 
L 512.513512 216.792494 
L 512.712048 216.528762 
L 512.90936 216.32869 
L 513.022608 216.1559 
L 513.318838 215.946734 
L 513.386416 215.919451 
L 513.741925 215.746662 
L 513.968222 215.537495 
L 514.08116 215.419271 
L 514.294968 215.119163 
L 514.469824 214.828149 
L 514.707307 214.582606 
L 515.35246 214.327968 
L 515.535697 214.155179 
L 515.776572 213.927824 
L 515.94743 213.673187 
L 516.527115 213.082064 
L 517.009788 212.745579 
L 517.806867 211.6179 
L 517.926967 211.472393 
L 518.031903 211.381451 
L 518.609552 211.126813 
L 518.738436 210.899459 
L 519.370074 210.453843 
L 519.481987 210.290148 
L 520.194787 209.92638 
L 520.317468 209.780873 
L 521.63666 208.089354 
L 521.857761 207.962035 
L 522.022447 207.743775 
L 522.149693 207.607362 
L 522.719635 206.879827 
L 522.999492 206.461494 
L 523.48408 206.234139 
L 523.699756 205.752147 
L 523.798744 205.524792 
L 523.95261 205.179213 
L 524.174678 205.060989 
L 524.839714 203.97878 
L 525.299921 203.724143 
L 525.353498 203.542259 
L 525.447556 203.387658 
L 525.538817 203.242151 
L 525.683513 202.932948 
L 525.827253 202.687405 
L 526.034696 202.232696 
L 526.160841 202.087189 
L 526.331609 201.732515 
L 526.931261 201.559726 
L 527.041402 201.505161 
L 527.689076 200.923132 
L 527.81616 200.823096 
L 528.15919 200.713966 
L 528.671239 200.550271 
L 528.772733 200.432046 
L 529.063856 200.241068 
L 529.199708 200.068279 
L 529.45872 199.868206 
L 529.648054 199.613569 
L 530.100238 199.458968 
L 530.545874 198.81328 
L 530.773611 198.558643 
L 531.290055 197.885673 
L 531.835977 197.658318 
L 531.987865 197.340022 
L 532.956608 195.866763 
L 533.471581 195.73035 
L 533.777798 195.139228 
L 533.976336 194.911873 
L 534.27803 194.38441 
L 534.393804 194.166149 
L 535.699645 192.665608 
L 535.810838 192.556478 
L 536.574916 191.69253 
L 536.85685 191.537929 
L 537.043246 191.30148 
L 537.327909 190.764922 
L 537.455042 190.555756 
L 538.138991 189.800938 
L 538.489774 189.600866 
L 538.605636 189.382606 
L 540.927762 186.499747 
L 541.135257 186.163262 
L 541.859676 185.599423 
L 542.011928 185.317503 
L 542.170704 185.090148 
L 543.024805 183.907903 
L 543.473027 183.616889 
L 543.578204 183.489571 
L 543.689364 183.362252 
L 544.105667 182.953013 
L 544.358556 182.661999 
L 544.544451 182.361891 
L 545.127478 181.888993 
L 545.502541 181.479755 
L 545.636007 181.316059 
L 545.977869 180.815879 
L 546.118833 180.679466 
L 546.32609 180.479394 
L 547.016809 180.106532 
L 547.339723 179.770047 
L 547.585198 179.62454 
L 547.662277 179.560881 
L 547.880981 179.424468 
L 548.041116 179.351714 
L 548.461748 179.16983 
L 548.589931 178.924287 
L 549.058834 178.642367 
L 549.403841 178.260411 
L 549.540531 178.078528 
L 549.986471 177.896644 
L 551.342174 176.496139 
L 551.656981 176.359726 
L 552.304893 175.641285 
L 552.440522 175.504872 
L 552.664813 175.24114 
L 552.876769 174.95922 
L 553.477509 174.63183 
L 553.687322 174.313533 
L 553.891634 174.195309 
L 554.296417 173.576904 
L 554.678017 173.358643 
L 555.017252 173.204042 
L 555.136448 173.094912 
L 555.327294 172.885745 
L 555.459959 172.676579 
L 555.633195 172.467412 
L 556.098944 171.803537 
L 556.351316 171.712595 
L 556.667884 171.539805 
L 557.107358 171.112378 
L 557.269457 170.966871 
L 557.491723 170.70314 
L 557.633158 170.548538 
L 557.864372 170.339372 
L 558.323398 170.202959 
L 559.614246 168.602382 
L 559.933195 168.438686 
L 560.172221 168.174955 
L 560.364663 167.974883 
L 560.615155 167.583833 
L 560.781906 167.338289 
L 560.896204 167.201877 
L 560.984281 167.074558 
L 561.137881 166.865392 
L 561.450452 166.71079 
L 561.989656 166.365211 
L 562.245605 165.955973 
L 562.449287 165.737712 
L 562.594358 165.437604 
L 562.743498 165.25572 
L 562.887542 165.173872 
L 563.366883 164.937423 
L 563.699019 164.309924 
L 564.163874 163.618766 
L 564.362249 163.391411 
L 564.617995 163.12768 
L 564.958425 162.95489 
L 565.0924 162.736629 
L 565.217092 162.545651 
L 565.299328 162.400144 
L 565.459213 162.081848 
L 565.575637 161.936341 
L 565.685888 161.763551 
L 566.35265 160.87232 
L 566.572789 160.745002 
L 567.463152 159.226272 
L 567.68802 159.017106 
L 567.730573 158.944352 
L 568.219731 158.798845 
L 568.615376 158.371418 
L 569.067162 157.853049 
L 569.306245 157.607506 
L 569.519744 157.489282 
L 569.968374 157.316492 
L 570.71203 156.388885 
L 570.840832 156.088777 
L 571.193226 155.915987 
L 571.575719 155.788668 
L 571.697151 155.670444 
L 571.96132 155.415807 
L 572.131601 155.2703 
L 572.804155 154.560953 
L 573.086198 154.342692 
L 573.102906 154.31541 
L 573.291518 154.188091 
L 573.885751 153.478744 
L 573.998408 153.342331 
L 574.389225 152.896716 
L 574.731427 152.742115 
L 575.12268 152.423818 
L 575.26417 152.260123 
L 575.37555 152.132804 
L 575.498187 151.996391 
L 575.621803 151.869073 
L 576.36828 151.27795 
L 576.627021 151.086972 
L 576.804565 150.805052 
L 576.920704 150.677734 
L 577.040861 150.477661 
L 577.151731 150.332154 
L 577.346133 150.077517 
L 577.458313 149.913822 
L 577.636522 149.668279 
L 577.82916 149.322699 
L 578.063831 149.195381 
L 578.230369 149.077156 
L 578.495859 148.767954 
L 578.702543 148.41328 
L 579.01142 148.013136 
L 579.160245 147.858535 
L 579.542155 147.649368 
L 579.619566 147.585709 
L 579.878672 147.449296 
L 580.063268 147.303789 
L 580.210369 147.140094 
L 580.389642 146.949116 
L 580.878468 146.167016 
L 581.084756 145.876001 
L 581.483919 145.675929 
L 581.811342 145.148466 
L 581.895786 144.993865 
L 582.661872 144.393649 
L 583.206167 144.175388 
L 583.319144 143.893468 
L 583.443458 143.693396 
L 583.599108 143.429664 
L 583.743987 143.156839 
L 583.85575 142.984049 
L 584.343366 142.174666 
L 584.614017 141.892746 
L 584.731216 141.838181 
L 585.141779 141.438037 
L 585.365916 140.956045 
L 585.441763 140.765067 
L 585.623619 140.392205 
L 585.877141 140.028437 
L 586.083634 139.846554 
L 586.266854 139.7738 
L 586.624374 139.637387 
L 586.84092 139.428221 
L 587.448909 139.000794 
L 587.563267 138.873475 
L 588.787395 138.045904 
L 589.097363 137.736702 
L 589.39158 137.654854 
L 589.783263 137.509347 
L 589.914525 137.318369 
L 590.084477 137.163768 
L 590.205621 136.97279 
L 590.484078 136.663587 
L 590.82105 136.29982 
L 590.923686 136.172501 
L 591.528389 135.872393 
L 591.885032 135.490437 
L 592.137294 135.244894 
L 592.265849 135.06301 
L 592.409931 134.917503 
L 592.531618 134.799278 
L 593.263818 134.444605 
L 593.691146 134.126308 
L 593.865369 133.980801 
L 594.96518 133.271454 
L 595.073683 133.125947 
L 598.576143 131.07066 
L 599.012321 130.388596 
L 599.126189 130.206712 
L 599.484355 130.043017 
L 599.786339 129.906604 
L 599.897628 129.78838 
L 600.164449 129.4428 
L 600.312811 129.306388 
L 600.445052 129.151786 
L 600.97391 128.724359 
L 601.429185 128.560664 
L 601.534972 128.469722 
L 601.79268 128.242367 
L 601.919337 128.115049 
L 602.202334 127.924071 
L 602.329443 127.796752 
L 602.528864 127.605774 
L 602.604094 127.560303 
L 603.137761 127.414796 
L 604.072133 126.378058 
L 605.496463 125.486828 
L 605.634715 125.323132 
L 605.859611 125.150343 
L 605.946633 125.032118 
L 606.49052 124.850235 
L 606.566799 124.668351 
L 606.750195 124.541032 
L 606.864556 124.386431 
L 607.164413 124.113605 
L 607.279489 123.858968 
L 608.605221 122.794948 
L 608.795236 122.613064 
L 608.92566 122.458463 
L 609.081335 122.294767 
L 609.312483 122.21292 
L 609.696295 122.067412 
L 609.8367 121.840058 
L 610.247787 121.230747 
L 610.683085 120.69419 
L 611.033413 120.439553 
L 611.379815 120.294045 
L 611.747889 119.902995 
L 612.046144 119.602887 
L 612.155527 119.466474 
L 612.471949 119.039047 
L 613.06978 118.89354 
L 613.608754 118.356983 
L 613.688844 118.28423 
L 614.091029 118.129628 
L 615.103139 117.674919 
L 615.213504 117.538506 
L 615.581902 117.174738 
L 615.74159 117.020137 
L 615.931835 116.892818 
L 616.327417 116.747311 
L 616.431616 116.638181 
L 616.530228 116.410826 
L 616.651914 116.247131 
L 616.788709 116.037965 
L 616.953942 115.901552 
L 617.163523 115.683291 
L 617.327277 115.428654 
L 617.392381 115.283147 
L 617.586851 115.174017 
L 617.984285 115.019415 
L 618.236525 114.892097 
L 618.436831 114.764778 
L 618.814672 114.364634 
L 619.257908 113.919018 
L 619.738038 113.718946 
L 620.469499 113.018694 
L 620.579563 112.854998 
L 620.752603 112.691303 
L 620.86025 112.645832 
L 621.709441 112.291158 
L 621.982542 112.063804 
L 622.196218 111.854637 
L 622.308409 111.790978 
L 622.636364 111.6 
L 622.636364 111.6 
" style="fill:none;stroke:#92c6ff;stroke-linecap:round;stroke-width:1.5;"/>
   </g>
   <g id="line2d_26">
    <defs>
     <path d="M 0 2.5 
C 0.663008 2.5 1.29895 2.236584 1.767767 1.767767 
C 2.236584 1.29895 2.5 0.663008 2.5 0 
C 2.5 -0.663008 2.236584 -1.29895 1.767767 -1.767767 
C 1.29895 -2.236584 0.663008 -2.5 0 -2.5 
C -0.663008 -2.5 -1.29895 -2.236584 -1.767767 -1.767767 
C -2.236584 -1.29895 -2.5 -0.663008 -2.5 0 
C -2.5 0.663008 -2.236584 1.29895 -1.767767 1.767767 
C -1.29895 2.236584 -0.663008 2.5 0 2.5 
z
" id="mc3aa65885c" style="stroke:#696969;"/>
    </defs>
    <g clip-path="url(#p056656ff55)">
     <use style="fill:#696969;stroke:#696969;" x="115.363636" xlink:href="#mc3aa65885c" y="615.6"/>
    </g>
   </g>
   <g id="line2d_27">
    <g clip-path="url(#p056656ff55)">
     <use style="fill:#696969;stroke:#696969;" x="197.882121" xlink:href="#mc3aa65885c" y="565.190906"/>
    </g>
   </g>
   <g id="line2d_28">
    <g clip-path="url(#p056656ff55)">
     <use style="fill:#696969;stroke:#696969;" x="241.246186" xlink:href="#mc3aa65885c" y="514.790906"/>
    </g>
   </g>
   <g id="line2d_29">
    <g clip-path="url(#p056656ff55)">
     <use style="fill:#696969;stroke:#696969;" x="290.971884" xlink:href="#mc3aa65885c" y="464.390906"/>
    </g>
   </g>
   <g id="line2d_30">
    <g clip-path="url(#p056656ff55)">
     <use style="fill:#696969;stroke:#696969;" x="331.3158" xlink:href="#mc3aa65885c" y="413.990906"/>
    </g>
   </g>
   <g id="line2d_31">
    <g clip-path="url(#p056656ff55)">
     <use style="fill:#696969;stroke:#696969;" x="374.714686" xlink:href="#mc3aa65885c" y="363.590906"/>
    </g>
   </g>
   <g id="line2d_32">
    <g clip-path="url(#p056656ff55)">
     <use style="fill:#696969;stroke:#696969;" x="413.813604" xlink:href="#mc3aa65885c" y="313.190906"/>
    </g>
   </g>
   <g id="line2d_33">
    <g clip-path="url(#p056656ff55)">
     <use style="fill:#696969;stroke:#696969;" x="460.916023" xlink:href="#mc3aa65885c" y="262.790906"/>
    </g>
   </g>
   <g id="line2d_34">
    <g clip-path="url(#p056656ff55)">
     <use style="fill:#696969;stroke:#696969;" x="517.258367" xlink:href="#mc3aa65885c" y="212.390906"/>
    </g>
   </g>
   <g id="line2d_35">
    <g clip-path="url(#p056656ff55)">
     <use style="fill:#696969;stroke:#696969;" x="565.555658" xlink:href="#mc3aa65885c" y="161.990906"/>
    </g>
   </g>
   <g id="line2d_36">
    <g clip-path="url(#p056656ff55)">
     <use style="fill:#696969;stroke:#696969;" x="622.636364" xlink:href="#mc3aa65885c" y="111.6"/>
    </g>
   </g>
   <g id="patch_3">
    <path d="M 90 640.8 
L 90 86.4 
" style="fill:none;stroke:#cccccc;stroke-linecap:square;stroke-linejoin:miter;"/>
   </g>
   <g id="patch_4">
    <path d="M 648 640.8 
L 648 86.4 
" style="fill:none;stroke:#cccccc;stroke-linecap:square;stroke-linejoin:miter;"/>
   </g>
   <g id="patch_5">
    <path d="M 90 640.8 
L 648 640.8 
" style="fill:none;stroke:#cccccc;stroke-linecap:square;stroke-linejoin:miter;"/>
   </g>
   <g id="patch_6">
    <path d="M 90 86.4 
L 648 86.4 
" style="fill:none;stroke:#cccccc;stroke-linecap:square;stroke-linejoin:miter;"/>
   </g>
   <g id="text_13">
    <!-- 1 (2014-06-07) -->
    <defs>
     <path id="LiberationSans-32"/>
     <path d="M 6.203125 25.984375 
Q 6.203125 32.765625 7.21875 38.96875 
Q 8.25 45.171875 10.4375 50.875 
Q 12.640625 56.59375 16.0625 61.953125 
Q 19.484375 67.328125 24.21875 72.46875 
L 32.71875 72.46875 
Q 28.125 67.328125 24.78125 61.9375 
Q 21.4375 56.546875 19.28125 50.796875 
Q 17.140625 45.0625 16.09375 38.859375 
Q 15.046875 32.671875 15.046875 25.875 
Q 15.046875 19.09375 16.09375 12.890625 
Q 17.140625 6.6875 19.28125 0.921875 
Q 21.4375 -4.828125 24.78125 -10.203125 
Q 28.125 -15.578125 32.71875 -20.703125 
L 24.21875 -20.703125 
Q 19.484375 -15.578125 16.0625 -10.203125 
Q 12.640625 -4.828125 10.4375 0.875 
Q 8.25 6.59375 7.21875 12.765625 
Q 6.203125 18.953125 6.203125 25.78125 
z
" id="LiberationSans-40"/>
     <path d="M 4.4375 22.65625 
L 4.4375 30.46875 
L 28.859375 30.46875 
L 28.859375 22.65625 
z
" id="LiberationSans-45"/>
     <path d="M 27.09375 25.78125 
Q 27.09375 18.953125 26.0625 12.765625 
Q 25.046875 6.59375 22.84375 0.875 
Q 20.65625 -4.828125 17.234375 -10.203125 
Q 13.8125 -15.578125 9.078125 -20.703125 
L 0.59375 -20.703125 
Q 5.171875 -15.578125 8.515625 -10.203125 
Q 11.859375 -4.828125 14 0.921875 
Q 16.15625 6.6875 17.203125 12.890625 
Q 18.265625 19.09375 18.265625 25.875 
Q 18.265625 32.671875 17.203125 38.859375 
Q 16.15625 45.0625 14 50.796875 
Q 11.859375 56.546875 8.515625 61.9375 
Q 5.171875 67.328125 0.59375 72.46875 
L 9.078125 72.46875 
Q 13.8125 67.328125 17.234375 61.953125 
Q 20.65625 56.59375 22.84375 50.875 
Q 25.046875 45.171875 26.0625 38.96875 
Q 27.09375 32.765625 27.09375 25.984375 
z
" id="LiberationSans-41"/>
    </defs>
    <g style="fill:#262626;" transform="translate(120.363636 622.846875)scale(0.1 -0.1)">
     <use xlink:href="#LiberationSans-49"/>
     <use x="55.615234" xlink:href="#LiberationSans-32"/>
     <use x="83.398438" xlink:href="#LiberationSans-40"/>
     <use x="116.699219" xlink:href="#LiberationSans-50"/>
     <use x="172.314453" xlink:href="#LiberationSans-48"/>
     <use x="227.929688" xlink:href="#LiberationSans-49"/>
     <use x="283.544922" xlink:href="#LiberationSans-52"/>
     <use x="339.160156" xlink:href="#LiberationSans-45"/>
     <use x="372.460938" xlink:href="#LiberationSans-48"/>
     <use x="428.076172" xlink:href="#LiberationSans-54"/>
     <use x="483.691406" xlink:href="#LiberationSans-45"/>
     <use x="516.992188" xlink:href="#LiberationSans-48"/>
     <use x="572.607422" xlink:href="#LiberationSans-55"/>
     <use x="628.222656" xlink:href="#LiberationSans-41"/>
    </g>
   </g>
   <g id="text_14">
    <!-- 5544 (2015-05-21) -->
    <g style="fill:#262626;" transform="translate(202.882121 572.437781)scale(0.1 -0.1)">
     <use xlink:href="#LiberationSans-53"/>
     <use x="55.615234" xlink:href="#LiberationSans-53"/>
     <use x="111.230469" xlink:href="#LiberationSans-52"/>
     <use x="166.845703" xlink:href="#LiberationSans-52"/>
     <use x="222.460938" xlink:href="#LiberationSans-32"/>
     <use x="250.244141" xlink:href="#LiberationSans-40"/>
     <use x="283.544922" xlink:href="#LiberationSans-50"/>
     <use x="339.160156" xlink:href="#LiberationSans-48"/>
     <use x="394.775391" xlink:href="#LiberationSans-49"/>
     <use x="450.390625" xlink:href="#LiberationSans-53"/>
     <use x="506.005859" xlink:href="#LiberationSans-45"/>
     <use x="539.306641" xlink:href="#LiberationSans-48"/>
     <use x="594.921875" xlink:href="#LiberationSans-53"/>
     <use x="650.537109" xlink:href="#LiberationSans-45"/>
     <use x="683.837891" xlink:href="#LiberationSans-50"/>
     <use x="739.453125" xlink:href="#LiberationSans-49"/>
     <use x="795.068359" xlink:href="#LiberationSans-41"/>
    </g>
   </g>
   <g id="text_15">
    <!-- 11086 (2015-11-20) -->
    <g style="fill:#262626;" transform="translate(246.246186 522.037781)scale(0.1 -0.1)">
     <use xlink:href="#LiberationSans-49"/>
     <use x="55.615234" xlink:href="#LiberationSans-49"/>
     <use x="111.230469" xlink:href="#LiberationSans-48"/>
     <use x="166.845703" xlink:href="#LiberationSans-56"/>
     <use x="222.460938" xlink:href="#LiberationSans-54"/>
     <use x="278.076172" xlink:href="#LiberationSans-32"/>
     <use x="305.859375" xlink:href="#LiberationSans-40"/>
     <use x="339.160156" xlink:href="#LiberationSans-50"/>
     <use x="394.775391" xlink:href="#LiberationSans-48"/>
     <use x="450.390625" xlink:href="#LiberationSans-49"/>
     <use x="506.005859" xlink:href="#LiberationSans-53"/>
     <use x="561.621094" xlink:href="#LiberationSans-45"/>
     <use x="594.921875" xlink:href="#LiberationSans-49"/>
     <use x="650.537109" xlink:href="#LiberationSans-49"/>
     <use x="706.152344" xlink:href="#LiberationSans-45"/>
     <use x="739.453125" xlink:href="#LiberationSans-50"/>
     <use x="795.068359" xlink:href="#LiberationSans-48"/>
     <use x="850.683594" xlink:href="#LiberationSans-41"/>
    </g>
   </g>
   <g id="text_16">
    <!-- 16628 (2016-06-17) -->
    <g style="fill:#262626;" transform="translate(295.971884 471.637781)scale(0.1 -0.1)">
     <use xlink:href="#LiberationSans-49"/>
     <use x="55.615234" xlink:href="#LiberationSans-54"/>
     <use x="111.230469" xlink:href="#LiberationSans-54"/>
     <use x="166.845703" xlink:href="#LiberationSans-50"/>
     <use x="222.460938" xlink:href="#LiberationSans-56"/>
     <use x="278.076172" xlink:href="#LiberationSans-32"/>
     <use x="305.859375" xlink:href="#LiberationSans-40"/>
     <use x="339.160156" xlink:href="#LiberationSans-50"/>
     <use x="394.775391" xlink:href="#LiberationSans-48"/>
     <use x="450.390625" xlink:href="#LiberationSans-49"/>
     <use x="506.005859" xlink:href="#LiberationSans-54"/>
     <use x="561.621094" xlink:href="#LiberationSans-45"/>
     <use x="594.921875" xlink:href="#LiberationSans-48"/>
     <use x="650.537109" xlink:href="#LiberationSans-54"/>
     <use x="706.152344" xlink:href="#LiberationSans-45"/>
     <use x="739.453125" xlink:href="#LiberationSans-49"/>
     <use x="795.068359" xlink:href="#LiberationSans-55"/>
     <use x="850.683594" xlink:href="#LiberationSans-41"/>
    </g>
   </g>
   <g id="text_17">
    <!-- 22170 (2016-12-05) -->
    <g style="fill:#262626;" transform="translate(336.3158 421.237781)scale(0.1 -0.1)">
     <use xlink:href="#LiberationSans-50"/>
     <use x="55.615234" xlink:href="#LiberationSans-50"/>
     <use x="111.230469" xlink:href="#LiberationSans-49"/>
     <use x="166.845703" xlink:href="#LiberationSans-55"/>
     <use x="222.460938" xlink:href="#LiberationSans-48"/>
     <use x="278.076172" xlink:href="#LiberationSans-32"/>
     <use x="305.859375" xlink:href="#LiberationSans-40"/>
     <use x="339.160156" xlink:href="#LiberationSans-50"/>
     <use x="394.775391" xlink:href="#LiberationSans-48"/>
     <use x="450.390625" xlink:href="#LiberationSans-49"/>
     <use x="506.005859" xlink:href="#LiberationSans-54"/>
     <use x="561.621094" xlink:href="#LiberationSans-45"/>
     <use x="594.921875" xlink:href="#LiberationSans-49"/>
     <use x="650.537109" xlink:href="#LiberationSans-50"/>
     <use x="706.152344" xlink:href="#LiberationSans-45"/>
     <use x="739.453125" xlink:href="#LiberationSans-48"/>
     <use x="795.068359" xlink:href="#LiberationSans-53"/>
     <use x="850.683594" xlink:href="#LiberationSans-41"/>
    </g>
   </g>
   <g id="text_18">
    <!-- 27712 (2017-06-06) -->
    <g style="fill:#262626;" transform="translate(379.714686 370.837781)scale(0.1 -0.1)">
     <use xlink:href="#LiberationSans-50"/>
     <use x="55.615234" xlink:href="#LiberationSans-55"/>
     <use x="111.230469" xlink:href="#LiberationSans-55"/>
     <use x="166.845703" xlink:href="#LiberationSans-49"/>
     <use x="222.460938" xlink:href="#LiberationSans-50"/>
     <use x="278.076172" xlink:href="#LiberationSans-32"/>
     <use x="305.859375" xlink:href="#LiberationSans-40"/>
     <use x="339.160156" xlink:href="#LiberationSans-50"/>
     <use x="394.775391" xlink:href="#LiberationSans-48"/>
     <use x="450.390625" xlink:href="#LiberationSans-49"/>
     <use x="506.005859" xlink:href="#LiberationSans-55"/>
     <use x="561.621094" xlink:href="#LiberationSans-45"/>
     <use x="594.921875" xlink:href="#LiberationSans-48"/>
     <use x="650.537109" xlink:href="#LiberationSans-54"/>
     <use x="706.152344" xlink:href="#LiberationSans-45"/>
     <use x="739.453125" xlink:href="#LiberationSans-48"/>
     <use x="795.068359" xlink:href="#LiberationSans-54"/>
     <use x="850.683594" xlink:href="#LiberationSans-41"/>
    </g>
   </g>
   <g id="text_19">
    <!-- 33254 (2017-11-18) -->
    <g style="fill:#262626;" transform="translate(418.813604 320.437781)scale(0.1 -0.1)">
     <use xlink:href="#LiberationSans-51"/>
     <use x="55.615234" xlink:href="#LiberationSans-51"/>
     <use x="111.230469" xlink:href="#LiberationSans-50"/>
     <use x="166.845703" xlink:href="#LiberationSans-53"/>
     <use x="222.460938" xlink:href="#LiberationSans-52"/>
     <use x="278.076172" xlink:href="#LiberationSans-32"/>
     <use x="305.859375" xlink:href="#LiberationSans-40"/>
     <use x="339.160156" xlink:href="#LiberationSans-50"/>
     <use x="394.775391" xlink:href="#LiberationSans-48"/>
     <use x="450.390625" xlink:href="#LiberationSans-49"/>
     <use x="506.005859" xlink:href="#LiberationSans-55"/>
     <use x="561.621094" xlink:href="#LiberationSans-45"/>
     <use x="594.921875" xlink:href="#LiberationSans-49"/>
     <use x="650.537109" xlink:href="#LiberationSans-49"/>
     <use x="706.152344" xlink:href="#LiberationSans-45"/>
     <use x="739.453125" xlink:href="#LiberationSans-49"/>
     <use x="795.068359" xlink:href="#LiberationSans-56"/>
     <use x="850.683594" xlink:href="#LiberationSans-41"/>
    </g>
   </g>
   <g id="text_20">
    <!-- 38796 (2018-06-05) -->
    <g style="fill:#262626;" transform="translate(465.916023 270.037781)scale(0.1 -0.1)">
     <use xlink:href="#LiberationSans-51"/>
     <use x="55.615234" xlink:href="#LiberationSans-56"/>
     <use x="111.230469" xlink:href="#LiberationSans-55"/>
     <use x="166.845703" xlink:href="#LiberationSans-57"/>
     <use x="222.460938" xlink:href="#LiberationSans-54"/>
     <use x="278.076172" xlink:href="#LiberationSans-32"/>
     <use x="305.859375" xlink:href="#LiberationSans-40"/>
     <use x="339.160156" xlink:href="#LiberationSans-50"/>
     <use x="394.775391" xlink:href="#LiberationSans-48"/>
     <use x="450.390625" xlink:href="#LiberationSans-49"/>
     <use x="506.005859" xlink:href="#LiberationSans-56"/>
     <use x="561.621094" xlink:href="#LiberationSans-45"/>
     <use x="594.921875" xlink:href="#LiberationSans-48"/>
     <use x="650.537109" xlink:href="#LiberationSans-54"/>
     <use x="706.152344" xlink:href="#LiberationSans-45"/>
     <use x="739.453125" xlink:href="#LiberationSans-48"/>
     <use x="795.068359" xlink:href="#LiberationSans-53"/>
     <use x="850.683594" xlink:href="#LiberationSans-41"/>
    </g>
   </g>
   <g id="text_21">
    <!-- 44338 (2019-01-29) -->
    <g style="fill:#262626;" transform="translate(522.258367 219.637781)scale(0.1 -0.1)">
     <use xlink:href="#LiberationSans-52"/>
     <use x="55.615234" xlink:href="#LiberationSans-52"/>
     <use x="111.230469" xlink:href="#LiberationSans-51"/>
     <use x="166.845703" xlink:href="#LiberationSans-51"/>
     <use x="222.460938" xlink:href="#LiberationSans-56"/>
     <use x="278.076172" xlink:href="#LiberationSans-32"/>
     <use x="305.859375" xlink:href="#LiberationSans-40"/>
     <use x="339.160156" xlink:href="#LiberationSans-50"/>
     <use x="394.775391" xlink:href="#LiberationSans-48"/>
     <use x="450.390625" xlink:href="#LiberationSans-49"/>
     <use x="506.005859" xlink:href="#LiberationSans-57"/>
     <use x="561.621094" xlink:href="#LiberationSans-45"/>
     <use x="594.921875" xlink:href="#LiberationSans-48"/>
     <use x="650.537109" xlink:href="#LiberationSans-49"/>
     <use x="706.152344" xlink:href="#LiberationSans-45"/>
     <use x="739.453125" xlink:href="#LiberationSans-50"/>
     <use x="795.068359" xlink:href="#LiberationSans-57"/>
     <use x="850.683594" xlink:href="#LiberationSans-41"/>
    </g>
   </g>
   <g id="text_22">
    <!-- 49880 (2019-08-21) -->
    <g style="fill:#262626;" transform="translate(570.555658 169.237781)scale(0.1 -0.1)">
     <use xlink:href="#LiberationSans-52"/>
     <use x="55.615234" xlink:href="#LiberationSans-57"/>
     <use x="111.230469" xlink:href="#LiberationSans-56"/>
     <use x="166.845703" xlink:href="#LiberationSans-56"/>
     <use x="222.460938" xlink:href="#LiberationSans-48"/>
     <use x="278.076172" xlink:href="#LiberationSans-32"/>
     <use x="305.859375" xlink:href="#LiberationSans-40"/>
     <use x="339.160156" xlink:href="#LiberationSans-50"/>
     <use x="394.775391" xlink:href="#LiberationSans-48"/>
     <use x="450.390625" xlink:href="#LiberationSans-49"/>
     <use x="506.005859" xlink:href="#LiberationSans-57"/>
     <use x="561.621094" xlink:href="#LiberationSans-45"/>
     <use x="594.921875" xlink:href="#LiberationSans-48"/>
     <use x="650.537109" xlink:href="#LiberationSans-56"/>
     <use x="706.152344" xlink:href="#LiberationSans-45"/>
     <use x="739.453125" xlink:href="#LiberationSans-50"/>
     <use x="795.068359" xlink:href="#LiberationSans-49"/>
     <use x="850.683594" xlink:href="#LiberationSans-41"/>
    </g>
   </g>
   <g id="text_23">
    <!-- 55421 (2020-04-18) -->
    <g style="fill:#262626;" transform="translate(627.636364 118.846875)scale(0.1 -0.1)">
     <use xlink:href="#LiberationSans-53"/>
     <use x="55.615234" xlink:href="#LiberationSans-53"/>
     <use x="111.230469" xlink:href="#LiberationSans-52"/>
     <use x="166.845703" xlink:href="#LiberationSans-50"/>
     <use x="222.460938" xlink:href="#LiberationSans-49"/>
     <use x="278.076172" xlink:href="#LiberationSans-32"/>
     <use x="305.859375" xlink:href="#LiberationSans-40"/>
     <use x="339.160156" xlink:href="#LiberationSans-50"/>
     <use x="394.775391" xlink:href="#LiberationSans-48"/>
     <use x="450.390625" xlink:href="#LiberationSans-50"/>
     <use x="506.005859" xlink:href="#LiberationSans-48"/>
     <use x="561.621094" xlink:href="#LiberationSans-45"/>
     <use x="594.921875" xlink:href="#LiberationSans-48"/>
     <use x="650.537109" xlink:href="#LiberationSans-52"/>
     <use x="706.152344" xlink:href="#LiberationSans-45"/>
     <use x="739.453125" xlink:href="#LiberationSans-49"/>
     <use x="795.068359" xlink:href="#LiberationSans-56"/>
     <use x="850.683594" xlink:href="#LiberationSans-41"/>
    </g>
   </g>
   <g id="text_24">
    <!-- Created PRs over time -->
    <defs>
     <path d="M 38.671875 62.203125 
Q 32.8125 62.203125 28.296875 60.25 
Q 23.78125 58.296875 20.71875 54.6875 
Q 17.671875 51.078125 16.109375 46 
Q 14.546875 40.921875 14.546875 34.71875 
Q 14.546875 28.515625 16.234375 23.359375 
Q 17.921875 18.21875 21.0625 14.5 
Q 24.21875 10.796875 28.78125 8.734375 
Q 33.34375 6.6875 39.0625 6.6875 
Q 43.0625 6.6875 46.359375 7.734375 
Q 49.65625 8.796875 52.3125 10.6875 
Q 54.984375 12.59375 57.078125 15.203125 
Q 59.1875 17.828125 60.796875 21 
L 68.40625 17.1875 
Q 66.546875 13.328125 63.8125 10 
Q 61.078125 6.6875 57.390625 4.25 
Q 53.71875 1.8125 49.046875 0.40625 
Q 44.390625 -0.984375 38.625 -0.984375 
Q 30.28125 -0.984375 24 1.671875 
Q 17.71875 4.34375 13.5 9.109375 
Q 9.28125 13.875 7.171875 20.40625 
Q 5.078125 26.953125 5.078125 34.71875 
Q 5.078125 42.78125 7.296875 49.265625 
Q 9.515625 55.765625 13.78125 60.328125 
Q 18.0625 64.890625 24.3125 67.359375 
Q 30.5625 69.828125 38.578125 69.828125 
Q 49.5625 69.828125 56.9375 65.53125 
Q 64.3125 61.234375 67.78125 52.78125 
L 58.9375 49.859375 
Q 57.953125 52.296875 56.296875 54.515625 
Q 54.640625 56.734375 52.140625 58.4375 
Q 49.65625 60.15625 46.3125 61.171875 
Q 42.96875 62.203125 38.671875 62.203125 
z
" id="LiberationSans-67"/>
     <path d="M 6.9375 0 
L 6.9375 40.53125 
Q 6.9375 42.1875 6.90625 43.921875 
Q 6.890625 45.65625 6.828125 47.265625 
Q 6.78125 48.875 6.734375 50.28125 
Q 6.6875 51.703125 6.640625 52.828125 
L 14.9375 52.828125 
Q 14.984375 51.703125 15.0625 50.265625 
Q 15.140625 48.828125 15.203125 47.3125 
Q 15.28125 45.796875 15.296875 44.40625 
Q 15.328125 43.015625 15.328125 42.046875 
L 15.53125 42.046875 
Q 16.453125 45.0625 17.5 47.28125 
Q 18.5625 49.515625 19.96875 50.953125 
Q 21.390625 52.390625 23.34375 53.09375 
Q 25.296875 53.8125 28.078125 53.8125 
Q 29.15625 53.8125 30.125 53.640625 
Q 31.109375 53.46875 31.640625 53.328125 
L 31.640625 45.265625 
Q 30.765625 45.515625 29.59375 45.625 
Q 28.421875 45.75 26.953125 45.75 
Q 23.921875 45.75 21.796875 44.375 
Q 19.671875 43.015625 18.328125 40.59375 
Q 17 38.1875 16.359375 34.84375 
Q 15.71875 31.5 15.71875 27.546875 
L 15.71875 0 
z
" id="LiberationSans-114"/>
     <path d="M 13.484375 24.5625 
Q 13.484375 20.40625 14.328125 16.90625 
Q 15.1875 13.421875 16.96875 10.90625 
Q 18.75 8.40625 21.53125 7 
Q 24.3125 5.609375 28.21875 5.609375 
Q 33.9375 5.609375 37.375 7.90625 
Q 40.828125 10.203125 42.046875 13.71875 
L 49.75 11.53125 
Q 48.921875 9.328125 47.4375 7.109375 
Q 45.953125 4.890625 43.453125 3.09375 
Q 40.96875 1.3125 37.234375 0.15625 
Q 33.5 -0.984375 28.21875 -0.984375 
Q 16.5 -0.984375 10.375 6 
Q 4.25 12.984375 4.25 26.765625 
Q 4.25 34.1875 6.09375 39.328125 
Q 7.953125 44.484375 11.171875 47.703125 
Q 14.40625 50.921875 18.703125 52.359375 
Q 23 53.8125 27.875 53.8125 
Q 34.515625 53.8125 38.984375 51.65625 
Q 43.453125 49.515625 46.15625 45.71875 
Q 48.875 41.9375 50.015625 36.8125 
Q 51.171875 31.6875 51.171875 25.734375 
L 51.171875 24.5625 
z
M 42.09375 31.296875 
Q 41.359375 39.65625 37.84375 43.484375 
Q 34.328125 47.3125 27.734375 47.3125 
Q 25.53125 47.3125 23.109375 46.609375 
Q 20.703125 45.90625 18.65625 44.09375 
Q 16.609375 42.28125 15.1875 39.171875 
Q 13.765625 36.078125 13.578125 31.296875 
z
" id="LiberationSans-101"/>
     <path d="M 20.21875 -0.984375 
Q 12.25 -0.984375 8.25 3.21875 
Q 4.25 7.421875 4.25 14.75 
Q 4.25 19.96875 6.21875 23.3125 
Q 8.203125 26.65625 11.390625 28.5625 
Q 14.59375 30.46875 18.6875 31.203125 
Q 22.796875 31.9375 27.046875 32.03125 
L 38.921875 32.234375 
L 38.921875 35.109375 
Q 38.921875 38.375 38.234375 40.671875 
Q 37.546875 42.96875 36.125 44.375 
Q 34.71875 45.796875 32.59375 46.453125 
Q 30.46875 47.125 27.59375 47.125 
Q 25.046875 47.125 23 46.75 
Q 20.953125 46.390625 19.4375 45.4375 
Q 17.921875 44.484375 16.984375 42.84375 
Q 16.0625 41.21875 15.765625 38.71875 
L 6.59375 39.546875 
Q 7.078125 42.671875 8.4375 45.28125 
Q 9.8125 47.90625 12.328125 49.796875 
Q 14.84375 51.703125 18.625 52.75 
Q 22.40625 53.8125 27.78125 53.8125 
Q 37.75 53.8125 42.765625 49.234375 
Q 47.796875 44.671875 47.796875 36.03125 
L 47.796875 13.28125 
Q 47.796875 9.375 48.828125 7.390625 
Q 49.859375 5.421875 52.734375 5.421875 
Q 53.46875 5.421875 54.203125 5.515625 
Q 54.9375 5.609375 55.609375 5.765625 
L 55.609375 0.296875 
Q 53.953125 -0.09375 52.3125 -0.28125 
Q 50.6875 -0.484375 48.828125 -0.484375 
Q 46.34375 -0.484375 44.5625 0.171875 
Q 42.78125 0.828125 41.65625 2.171875 
Q 40.53125 3.515625 39.9375 5.484375 
Q 39.359375 7.46875 39.203125 10.109375 
L 38.921875 10.109375 
Q 37.5 7.5625 35.8125 5.515625 
Q 34.125 3.46875 31.875 2.03125 
Q 29.640625 0.59375 26.78125 -0.1875 
Q 23.921875 -0.984375 20.21875 -0.984375 
z
M 22.21875 5.609375 
Q 26.421875 5.609375 29.5625 7.140625 
Q 32.71875 8.6875 34.78125 11.078125 
Q 36.859375 13.484375 37.890625 16.3125 
Q 38.921875 19.140625 38.921875 21.734375 
L 38.921875 26.078125 
L 29.296875 25.875 
Q 26.078125 25.828125 23.171875 25.40625 
Q 20.265625 25 18.0625 23.78125 
Q 15.875 22.5625 14.578125 20.359375 
Q 13.28125 18.171875 13.28125 14.59375 
Q 13.28125 10.296875 15.59375 7.953125 
Q 17.921875 5.609375 22.21875 5.609375 
z
" id="LiberationSans-97"/>
     <path d="M 27.046875 0.390625 
Q 25.046875 -0.140625 22.96875 -0.453125 
Q 20.90625 -0.78125 18.171875 -0.78125 
Q 7.625 -0.78125 7.625 11.1875 
L 7.625 46.4375 
L 1.515625 46.4375 
L 1.515625 52.828125 
L 7.953125 52.828125 
L 10.546875 64.65625 
L 16.40625 64.65625 
L 16.40625 52.828125 
L 26.171875 52.828125 
L 26.171875 46.4375 
L 16.40625 46.4375 
L 16.40625 13.09375 
Q 16.40625 9.28125 17.640625 7.734375 
Q 18.890625 6.203125 21.96875 6.203125 
Q 23.25 6.203125 24.4375 6.390625 
Q 25.640625 6.59375 27.046875 6.890625 
z
" id="LiberationSans-116"/>
     <path d="M 40.09375 8.5 
Q 37.640625 3.421875 33.609375 1.21875 
Q 29.59375 -0.984375 23.640625 -0.984375 
Q 13.625 -0.984375 8.90625 5.75 
Q 4.203125 12.5 4.203125 26.171875 
Q 4.203125 53.8125 23.640625 53.8125 
Q 29.640625 53.8125 33.640625 51.609375 
Q 37.640625 49.421875 40.09375 44.625 
L 40.1875 44.625 
Q 40.1875 45.125 40.15625 46.171875 
Q 40.140625 47.21875 40.109375 48.359375 
Q 40.09375 49.515625 40.09375 50.53125 
Q 40.09375 51.5625 40.09375 52 
L 40.09375 72.46875 
L 48.875 72.46875 
L 48.875 10.890625 
Q 48.875 8.984375 48.890625 7.21875 
Q 48.921875 5.46875 48.96875 4 
Q 49.03125 2.546875 49.078125 1.484375 
Q 49.125 0.4375 49.171875 0 
L 40.765625 0 
Q 40.671875 0.484375 40.59375 1.390625 
Q 40.53125 2.296875 40.453125 3.46875 
Q 40.375 4.640625 40.328125 5.9375 
Q 40.28125 7.234375 40.28125 8.5 
z
M 13.421875 26.46875 
Q 13.421875 21 14.109375 17.09375 
Q 14.796875 13.1875 16.3125 10.671875 
Q 17.828125 8.15625 20.171875 6.984375 
Q 22.515625 5.8125 25.875 5.8125 
Q 29.34375 5.8125 32 6.9375 
Q 34.671875 8.0625 36.453125 10.578125 
Q 38.234375 13.09375 39.15625 17.140625 
Q 40.09375 21.1875 40.09375 27.046875 
Q 40.09375 32.671875 39.15625 36.546875 
Q 38.234375 40.4375 36.421875 42.828125 
Q 34.625 45.21875 32 46.265625 
Q 29.390625 47.3125 25.984375 47.3125 
Q 22.75 47.3125 20.40625 46.1875 
Q 18.0625 45.0625 16.5 42.578125 
Q 14.9375 40.09375 14.171875 36.109375 
Q 13.421875 32.125 13.421875 26.46875 
z
" id="LiberationSans-100"/>
     <path d="M 61.421875 48.09375 
Q 61.421875 43.609375 59.9375 39.71875 
Q 58.453125 35.84375 55.5 32.984375 
Q 52.546875 30.125 48.09375 28.46875 
Q 43.65625 26.8125 37.75 26.8125 
L 17.53125 26.8125 
L 17.53125 0 
L 8.203125 0 
L 8.203125 68.796875 
L 37.15625 68.796875 
Q 43.265625 68.796875 47.796875 67.3125 
Q 52.34375 65.828125 55.375 63.109375 
Q 58.40625 60.40625 59.90625 56.5625 
Q 61.421875 52.734375 61.421875 48.09375 
z
M 52.046875 48 
Q 52.046875 54.546875 48.046875 57.9375 
Q 44.046875 61.328125 36.03125 61.328125 
L 17.53125 61.328125 
L 17.53125 34.1875 
L 36.421875 34.1875 
Q 44.484375 34.1875 48.265625 37.75 
Q 52.046875 41.3125 52.046875 48 
z
" id="LiberationSans-80"/>
     <path d="M 56.84375 0 
L 38.96875 28.5625 
L 17.53125 28.5625 
L 17.53125 0 
L 8.203125 0 
L 8.203125 68.796875 
L 40.578125 68.796875 
Q 46.4375 68.796875 50.953125 67.453125 
Q 55.46875 66.109375 58.546875 63.5625 
Q 61.625 61.03125 63.234375 57.375 
Q 64.84375 53.71875 64.84375 49.125 
Q 64.84375 45.84375 63.890625 42.671875 
Q 62.9375 39.5 60.890625 36.859375 
Q 58.84375 34.234375 55.65625 32.328125 
Q 52.484375 30.421875 48.046875 29.640625 
L 67.578125 0 
z
M 55.46875 49.03125 
Q 55.46875 52.15625 54.390625 54.4375 
Q 53.328125 56.734375 51.265625 58.265625 
Q 49.21875 59.8125 46.28125 60.5625 
Q 43.359375 61.328125 39.65625 61.328125 
L 17.53125 61.328125 
L 17.53125 35.9375 
L 40.046875 35.9375 
Q 44.046875 35.9375 46.96875 36.9375 
Q 49.90625 37.9375 51.78125 39.6875 
Q 53.65625 41.453125 54.5625 43.84375 
Q 55.46875 46.234375 55.46875 49.03125 
z
" id="LiberationSans-82"/>
     <path d="M 46.390625 14.59375 
Q 46.390625 10.890625 44.9375 7.984375 
Q 43.5 5.078125 40.765625 3.09375 
Q 38.03125 1.125 34.046875 0.0625 
Q 30.078125 -0.984375 24.953125 -0.984375 
Q 20.359375 -0.984375 16.671875 -0.265625 
Q 12.984375 0.4375 10.203125 2 
Q 7.421875 3.5625 5.53125 6.125 
Q 3.65625 8.6875 2.78125 12.40625 
L 10.546875 13.921875 
Q 11.671875 9.671875 15.1875 7.6875 
Q 18.703125 5.71875 24.953125 5.71875 
Q 27.78125 5.71875 30.140625 6.109375 
Q 32.515625 6.5 34.21875 7.453125 
Q 35.9375 8.40625 36.890625 9.984375 
Q 37.84375 11.578125 37.84375 13.921875 
Q 37.84375 16.3125 36.71875 17.84375 
Q 35.59375 19.390625 33.59375 20.40625 
Q 31.59375 21.4375 28.734375 22.1875 
Q 25.875 22.953125 22.46875 23.875 
Q 19.28125 24.703125 16.15625 25.734375 
Q 13.03125 26.765625 10.515625 28.4375 
Q 8.015625 30.125 6.453125 32.609375 
Q 4.890625 35.109375 4.890625 38.875 
Q 4.890625 46.09375 10.03125 49.875 
Q 15.1875 53.65625 25.046875 53.65625 
Q 33.796875 53.65625 38.9375 50.578125 
Q 44.09375 47.515625 45.453125 40.71875 
L 37.546875 39.75 
Q 37.109375 41.796875 35.9375 43.1875 
Q 34.765625 44.578125 33.109375 45.4375 
Q 31.453125 46.296875 29.375 46.65625 
Q 27.296875 47.015625 25.046875 47.015625 
Q 19.09375 47.015625 16.25 45.203125 
Q 13.421875 43.40625 13.421875 39.75 
Q 13.421875 37.59375 14.46875 36.203125 
Q 15.53125 34.8125 17.40625 33.859375 
Q 19.28125 32.90625 21.921875 32.203125 
Q 24.5625 31.5 27.734375 30.71875 
Q 29.828125 30.171875 32.03125 29.5625 
Q 34.234375 28.953125 36.296875 28.09375 
Q 38.375 27.25 40.203125 26.09375 
Q 42.046875 24.953125 43.40625 23.34375 
Q 44.78125 21.734375 45.578125 19.578125 
Q 46.390625 17.4375 46.390625 14.59375 
z
" id="LiberationSans-115"/>
     <path d="M 51.421875 26.46875 
Q 51.421875 12.59375 45.3125 5.796875 
Q 39.203125 -0.984375 27.59375 -0.984375 
Q 22.078125 -0.984375 17.71875 0.671875 
Q 13.375 2.34375 10.375 5.765625 
Q 7.375 9.1875 5.78125 14.328125 
Q 4.203125 19.484375 4.203125 26.46875 
Q 4.203125 53.8125 27.875 53.8125 
Q 34.03125 53.8125 38.5 52.09375 
Q 42.96875 50.390625 45.828125 46.96875 
Q 48.6875 43.5625 50.046875 38.421875 
Q 51.421875 33.296875 51.421875 26.46875 
z
M 42.1875 26.46875 
Q 42.1875 32.625 41.234375 36.625 
Q 40.28125 40.625 38.453125 43.015625 
Q 36.625 45.40625 33.984375 46.359375 
Q 31.34375 47.3125 28.03125 47.3125 
Q 24.65625 47.3125 21.9375 46.3125 
Q 19.234375 45.3125 17.328125 42.890625 
Q 15.4375 40.484375 14.421875 36.46875 
Q 13.421875 32.46875 13.421875 26.46875 
Q 13.421875 20.3125 14.5 16.28125 
Q 15.578125 12.25 17.453125 9.859375 
Q 19.34375 7.46875 21.90625 6.484375 
Q 24.46875 5.515625 27.484375 5.515625 
Q 30.859375 5.515625 33.59375 6.46875 
Q 36.328125 7.421875 38.234375 9.8125 
Q 40.140625 12.203125 41.15625 16.25 
Q 42.1875 20.3125 42.1875 26.46875 
z
" id="LiberationSans-111"/>
     <path d="M 29.9375 0 
L 19.53125 0 
L 0.34375 52.828125 
L 9.71875 52.828125 
L 21.34375 18.453125 
Q 21.6875 17.390625 22.140625 15.84375 
Q 22.609375 14.3125 23.09375 12.640625 
Q 23.578125 10.984375 24 9.4375 
Q 24.421875 7.90625 24.703125 6.890625 
Q 25 7.90625 25.453125 9.4375 
Q 25.921875 10.984375 26.40625 12.59375 
Q 26.90625 14.203125 27.421875 15.734375 
Q 27.9375 17.28125 28.328125 18.359375 
L 40.328125 52.828125 
L 49.65625 52.828125 
z
" id="LiberationSans-118"/>
     <path d="M 6.6875 64.0625 
L 6.6875 72.46875 
L 15.484375 72.46875 
L 15.484375 64.0625 
z
M 6.6875 0 
L 6.6875 52.828125 
L 15.484375 52.828125 
L 15.484375 0 
z
" id="LiberationSans-105"/>
     <path d="M 37.5 0 
L 37.5 33.5 
Q 37.5 37.359375 37.015625 39.9375 
Q 36.53125 42.53125 35.375 44.109375 
Q 34.234375 45.703125 32.375 46.359375 
Q 30.515625 47.015625 27.828125 47.015625 
Q 25.046875 47.015625 22.796875 45.921875 
Q 20.5625 44.828125 18.96875 42.75 
Q 17.390625 40.671875 16.53125 37.625 
Q 15.671875 34.578125 15.671875 30.609375 
L 15.671875 0 
L 6.9375 0 
L 6.9375 41.546875 
Q 6.9375 43.21875 6.90625 45.046875 
Q 6.890625 46.875 6.828125 48.5 
Q 6.78125 50.140625 6.734375 51.3125 
Q 6.6875 52.484375 6.640625 52.828125 
L 14.9375 52.828125 
Q 14.984375 52.59375 15.03125 51.515625 
Q 15.09375 50.4375 15.15625 49.046875 
Q 15.234375 47.65625 15.28125 46.21875 
Q 15.328125 44.78125 15.328125 43.796875 
L 15.484375 43.796875 
Q 16.65625 46.09375 18.015625 47.953125 
Q 19.390625 49.8125 21.21875 51.09375 
Q 23.046875 52.390625 25.40625 53.09375 
Q 27.78125 53.8125 30.90625 53.8125 
Q 36.921875 53.8125 40.40625 51.421875 
Q 43.890625 49.03125 45.265625 43.796875 
L 45.40625 43.796875 
Q 46.578125 46.09375 48.046875 47.953125 
Q 49.515625 49.8125 51.46875 51.09375 
Q 53.421875 52.390625 55.859375 53.09375 
Q 58.296875 53.8125 61.421875 53.8125 
Q 65.4375 53.8125 68.328125 52.734375 
Q 71.234375 51.65625 73.09375 49.40625 
Q 74.953125 47.171875 75.828125 43.625 
Q 76.703125 40.09375 76.703125 35.203125 
L 76.703125 0 
L 68.015625 0 
L 68.015625 33.5 
Q 68.015625 37.359375 67.53125 39.9375 
Q 67.046875 42.53125 65.890625 44.109375 
Q 64.75 45.703125 62.890625 46.359375 
Q 61.03125 47.015625 58.34375 47.015625 
Q 55.5625 47.015625 53.3125 45.96875 
Q 51.078125 44.921875 49.484375 42.875 
Q 47.90625 40.828125 47.046875 37.75 
Q 46.1875 34.671875 46.1875 30.609375 
L 46.1875 0 
z
" id="LiberationSans-109"/>
    </defs>
    <g style="fill:#262626;" transform="translate(308.314687 80.4)scale(0.12 -0.12)">
     <use xlink:href="#LiberationSans-67"/>
     <use x="72.216797" xlink:href="#LiberationSans-114"/>
     <use x="105.517578" xlink:href="#LiberationSans-101"/>
     <use x="161.132812" xlink:href="#LiberationSans-97"/>
     <use x="216.748047" xlink:href="#LiberationSans-116"/>
     <use x="244.53125" xlink:href="#LiberationSans-101"/>
     <use x="300.146484" xlink:href="#LiberationSans-100"/>
     <use x="355.761719" xlink:href="#LiberationSans-32"/>
     <use x="383.544922" xlink:href="#LiberationSans-80"/>
     <use x="450.244141" xlink:href="#LiberationSans-82"/>
     <use x="522.460938" xlink:href="#LiberationSans-115"/>
     <use x="572.460938" xlink:href="#LiberationSans-32"/>
     <use x="600.244141" xlink:href="#LiberationSans-111"/>
     <use x="655.859375" xlink:href="#LiberationSans-118"/>
     <use x="705.859375" xlink:href="#LiberationSans-101"/>
     <use x="761.474609" xlink:href="#LiberationSans-114"/>
     <use x="794.775391" xlink:href="#LiberationSans-32"/>
     <use x="822.558594" xlink:href="#LiberationSans-116"/>
     <use x="850.341797" xlink:href="#LiberationSans-105"/>
     <use x="872.558594" xlink:href="#LiberationSans-109"/>
     <use x="955.859375" xlink:href="#LiberationSans-101"/>
    </g>
   </g>
  </g>
 </g>
 <defs>
  <clipPath id="p056656ff55">
   <rect height="554.4" width="558" x="90" y="86.4"/>
  </clipPath>
 </defs>
</svg>
