<?xml version="1.0" encoding="utf-8" standalone="no"?>
<!DOCTYPE svg PUBLIC "-//W3C//DTD SVG 1.1//EN"
  "http://www.w3.org/Graphics/SVG/1.1/DTD/svg11.dtd">
<!-- Created with matplotlib (https://matplotlib.org/) -->
<svg height="720pt" version="1.1" viewBox="0 0 720 720" width="720pt" xmlns="http://www.w3.org/2000/svg" xmlns:xlink="http://www.w3.org/1999/xlink">
 <defs>
  <style type="text/css">
*{stroke-linecap:butt;stroke-linejoin:round;}
  </style>
 </defs>
 <g id="figure_1">
  <g id="patch_1">
   <path d="M 0 720 
L 720 720 
L 720 0 
L 0 0 
z
" style="fill:#ffffff;"/>
  </g>
  <g id="axes_1">
   <g id="patch_2">
    <path d="M 90 640.8 
L 648 640.8 
L 648 86.4 
L 90 86.4 
z
" style="fill:#ffffff;"/>
   </g>
   <g id="matplotlib.axis_1">
    <g id="xtick_1">
     <g id="line2d_1">
      <path clip-path="url(#pf0a8105376)" d="M 164.237412 640.8 
L 164.237412 86.4 
" style="fill:none;stroke:#cccccc;stroke-linecap:round;stroke-width:0.8;"/>
     </g>
     <g id="line2d_2"/>
     <g id="text_1">
      <!-- 2015 -->
      <defs>
       <path d="M 19.1875 8.296875 
L 53.609375 8.296875 
L 53.609375 0 
L 7.328125 0 
L 7.328125 8.296875 
Q 12.9375 14.109375 22.625 23.890625 
Q 32.328125 33.6875 34.8125 36.53125 
Q 39.546875 41.84375 41.421875 45.53125 
Q 43.3125 49.21875 43.3125 52.78125 
Q 43.3125 58.59375 39.234375 62.25 
Q 35.15625 65.921875 28.609375 65.921875 
Q 23.96875 65.921875 18.8125 64.3125 
Q 13.671875 62.703125 7.8125 59.421875 
L 7.8125 69.390625 
Q 13.765625 71.78125 18.9375 73 
Q 24.125 74.21875 28.421875 74.21875 
Q 39.75 74.21875 46.484375 68.546875 
Q 53.21875 62.890625 53.21875 53.421875 
Q 53.21875 48.921875 51.53125 44.890625 
Q 49.859375 40.875 45.40625 35.40625 
Q 44.1875 33.984375 37.640625 27.21875 
Q 31.109375 20.453125 19.1875 8.296875 
z
" id="DejaVuSans-50"/>
       <path d="M 31.78125 66.40625 
Q 24.171875 66.40625 20.328125 58.90625 
Q 16.5 51.421875 16.5 36.375 
Q 16.5 21.390625 20.328125 13.890625 
Q 24.171875 6.390625 31.78125 6.390625 
Q 39.453125 6.390625 43.28125 13.890625 
Q 47.125 21.390625 47.125 36.375 
Q 47.125 51.421875 43.28125 58.90625 
Q 39.453125 66.40625 31.78125 66.40625 
z
M 31.78125 74.21875 
Q 44.046875 74.21875 50.515625 64.515625 
Q 56.984375 54.828125 56.984375 36.375 
Q 56.984375 17.96875 50.515625 8.265625 
Q 44.046875 -1.421875 31.78125 -1.421875 
Q 19.53125 -1.421875 13.0625 8.265625 
Q 6.59375 17.96875 6.59375 36.375 
Q 6.59375 54.828125 13.0625 64.515625 
Q 19.53125 74.21875 31.78125 74.21875 
z
" id="DejaVuSans-48"/>
       <path d="M 12.40625 8.296875 
L 28.515625 8.296875 
L 28.515625 63.921875 
L 10.984375 60.40625 
L 10.984375 69.390625 
L 28.421875 72.90625 
L 38.28125 72.90625 
L 38.28125 8.296875 
L 54.390625 8.296875 
L 54.390625 0 
L 12.40625 0 
z
" id="DejaVuSans-49"/>
       <path d="M 10.796875 72.90625 
L 49.515625 72.90625 
L 49.515625 64.59375 
L 19.828125 64.59375 
L 19.828125 46.734375 
Q 21.96875 47.46875 24.109375 47.828125 
Q 26.265625 48.1875 28.421875 48.1875 
Q 40.625 48.1875 47.75 41.5 
Q 54.890625 34.8125 54.890625 23.390625 
Q 54.890625 11.625 47.5625 5.09375 
Q 40.234375 -1.421875 26.90625 -1.421875 
Q 22.3125 -1.421875 17.546875 -0.640625 
Q 12.796875 0.140625 7.71875 1.703125 
L 7.71875 11.625 
Q 12.109375 9.234375 16.796875 8.0625 
Q 21.484375 6.890625 26.703125 6.890625 
Q 35.15625 6.890625 40.078125 11.328125 
Q 45.015625 15.765625 45.015625 23.390625 
Q 45.015625 31 40.078125 35.4375 
Q 35.15625 39.890625 26.703125 39.890625 
Q 22.75 39.890625 18.8125 39.015625 
Q 14.890625 38.140625 10.796875 36.28125 
z
" id="DejaVuSans-53"/>
      </defs>
      <g style="fill:#262626;" transform="translate(151.512412 651.898438)scale(0.1 -0.1)">
       <use xlink:href="#DejaVuSans-50"/>
       <use x="63.623047" xlink:href="#DejaVuSans-48"/>
       <use x="127.246094" xlink:href="#DejaVuSans-49"/>
       <use x="190.869141" xlink:href="#DejaVuSans-53"/>
      </g>
     </g>
    </g>
    <g id="xtick_2">
     <g id="line2d_3">
      <path clip-path="url(#pf0a8105376)" d="M 250.020144 640.8 
L 250.020144 86.4 
" style="fill:none;stroke:#cccccc;stroke-linecap:round;stroke-width:0.8;"/>
     </g>
     <g id="line2d_4"/>
     <g id="text_2">
      <!-- 2016 -->
      <defs>
       <path d="M 33.015625 40.375 
Q 26.375 40.375 22.484375 35.828125 
Q 18.609375 31.296875 18.609375 23.390625 
Q 18.609375 15.53125 22.484375 10.953125 
Q 26.375 6.390625 33.015625 6.390625 
Q 39.65625 6.390625 43.53125 10.953125 
Q 47.40625 15.53125 47.40625 23.390625 
Q 47.40625 31.296875 43.53125 35.828125 
Q 39.65625 40.375 33.015625 40.375 
z
M 52.59375 71.296875 
L 52.59375 62.3125 
Q 48.875 64.0625 45.09375 64.984375 
Q 41.3125 65.921875 37.59375 65.921875 
Q 27.828125 65.921875 22.671875 59.328125 
Q 17.53125 52.734375 16.796875 39.40625 
Q 19.671875 43.65625 24.015625 45.921875 
Q 28.375 48.1875 33.59375 48.1875 
Q 44.578125 48.1875 50.953125 41.515625 
Q 57.328125 34.859375 57.328125 23.390625 
Q 57.328125 12.15625 50.6875 5.359375 
Q 44.046875 -1.421875 33.015625 -1.421875 
Q 20.359375 -1.421875 13.671875 8.265625 
Q 6.984375 17.96875 6.984375 36.375 
Q 6.984375 53.65625 15.1875 63.9375 
Q 23.390625 74.21875 37.203125 74.21875 
Q 40.921875 74.21875 44.703125 73.484375 
Q 48.484375 72.75 52.59375 71.296875 
z
" id="DejaVuSans-54"/>
      </defs>
      <g style="fill:#262626;" transform="translate(237.295144 651.898438)scale(0.1 -0.1)">
       <use xlink:href="#DejaVuSans-50"/>
       <use x="63.623047" xlink:href="#DejaVuSans-48"/>
       <use x="127.246094" xlink:href="#DejaVuSans-49"/>
       <use x="190.869141" xlink:href="#DejaVuSans-54"/>
      </g>
     </g>
    </g>
    <g id="xtick_3">
     <g id="line2d_5">
      <path clip-path="url(#pf0a8105376)" d="M 336.037898 640.8 
L 336.037898 86.4 
" style="fill:none;stroke:#cccccc;stroke-linecap:round;stroke-width:0.8;"/>
     </g>
     <g id="line2d_6"/>
     <g id="text_3">
      <!-- 2017 -->
      <defs>
       <path d="M 8.203125 72.90625 
L 55.078125 72.90625 
L 55.078125 68.703125 
L 28.609375 0 
L 18.3125 0 
L 43.21875 64.59375 
L 8.203125 64.59375 
z
" id="DejaVuSans-55"/>
      </defs>
      <g style="fill:#262626;" transform="translate(323.312898 651.898438)scale(0.1 -0.1)">
       <use xlink:href="#DejaVuSans-50"/>
       <use x="63.623047" xlink:href="#DejaVuSans-48"/>
       <use x="127.246094" xlink:href="#DejaVuSans-49"/>
       <use x="190.869141" xlink:href="#DejaVuSans-55"/>
      </g>
     </g>
    </g>
    <g id="xtick_4">
     <g id="line2d_7">
      <path clip-path="url(#pf0a8105376)" d="M 421.82063 640.8 
L 421.82063 86.4 
" style="fill:none;stroke:#cccccc;stroke-linecap:round;stroke-width:0.8;"/>
     </g>
     <g id="line2d_8"/>
     <g id="text_4">
      <!-- 2018 -->
      <defs>
       <path d="M 31.78125 34.625 
Q 24.75 34.625 20.71875 30.859375 
Q 16.703125 27.09375 16.703125 20.515625 
Q 16.703125 13.921875 20.71875 10.15625 
Q 24.75 6.390625 31.78125 6.390625 
Q 38.8125 6.390625 42.859375 10.171875 
Q 46.921875 13.96875 46.921875 20.515625 
Q 46.921875 27.09375 42.890625 30.859375 
Q 38.875 34.625 31.78125 34.625 
z
M 21.921875 38.8125 
Q 15.578125 40.375 12.03125 44.71875 
Q 8.5 49.078125 8.5 55.328125 
Q 8.5 64.0625 14.71875 69.140625 
Q 20.953125 74.21875 31.78125 74.21875 
Q 42.671875 74.21875 48.875 69.140625 
Q 55.078125 64.0625 55.078125 55.328125 
Q 55.078125 49.078125 51.53125 44.71875 
Q 48 40.375 41.703125 38.8125 
Q 48.828125 37.15625 52.796875 32.3125 
Q 56.78125 27.484375 56.78125 20.515625 
Q 56.78125 9.90625 50.3125 4.234375 
Q 43.84375 -1.421875 31.78125 -1.421875 
Q 19.734375 -1.421875 13.25 4.234375 
Q 6.78125 9.90625 6.78125 20.515625 
Q 6.78125 27.484375 10.78125 32.3125 
Q 14.796875 37.15625 21.921875 38.8125 
z
M 18.3125 54.390625 
Q 18.3125 48.734375 21.84375 45.5625 
Q 25.390625 42.390625 31.78125 42.390625 
Q 38.140625 42.390625 41.71875 45.5625 
Q 45.3125 48.734375 45.3125 54.390625 
Q 45.3125 60.0625 41.71875 63.234375 
Q 38.140625 66.40625 31.78125 66.40625 
Q 25.390625 66.40625 21.84375 63.234375 
Q 18.3125 60.0625 18.3125 54.390625 
z
" id="DejaVuSans-56"/>
      </defs>
      <g style="fill:#262626;" transform="translate(409.09563 651.898438)scale(0.1 -0.1)">
       <use xlink:href="#DejaVuSans-50"/>
       <use x="63.623047" xlink:href="#DejaVuSans-48"/>
       <use x="127.246094" xlink:href="#DejaVuSans-49"/>
       <use x="190.869141" xlink:href="#DejaVuSans-56"/>
      </g>
     </g>
    </g>
    <g id="xtick_5">
     <g id="line2d_9">
      <path clip-path="url(#pf0a8105376)" d="M 507.603362 640.8 
L 507.603362 86.4 
" style="fill:none;stroke:#cccccc;stroke-linecap:round;stroke-width:0.8;"/>
     </g>
     <g id="line2d_10"/>
     <g id="text_5">
      <!-- 2019 -->
      <defs>
       <path d="M 10.984375 1.515625 
L 10.984375 10.5 
Q 14.703125 8.734375 18.5 7.8125 
Q 22.3125 6.890625 25.984375 6.890625 
Q 35.75 6.890625 40.890625 13.453125 
Q 46.046875 20.015625 46.78125 33.40625 
Q 43.953125 29.203125 39.59375 26.953125 
Q 35.25 24.703125 29.984375 24.703125 
Q 19.046875 24.703125 12.671875 31.3125 
Q 6.296875 37.9375 6.296875 49.421875 
Q 6.296875 60.640625 12.9375 67.421875 
Q 19.578125 74.21875 30.609375 74.21875 
Q 43.265625 74.21875 49.921875 64.515625 
Q 56.59375 54.828125 56.59375 36.375 
Q 56.59375 19.140625 48.40625 8.859375 
Q 40.234375 -1.421875 26.421875 -1.421875 
Q 22.703125 -1.421875 18.890625 -0.6875 
Q 15.09375 0.046875 10.984375 1.515625 
z
M 30.609375 32.421875 
Q 37.25 32.421875 41.125 36.953125 
Q 45.015625 41.5 45.015625 49.421875 
Q 45.015625 57.28125 41.125 61.84375 
Q 37.25 66.40625 30.609375 66.40625 
Q 23.96875 66.40625 20.09375 61.84375 
Q 16.21875 57.28125 16.21875 49.421875 
Q 16.21875 41.5 20.09375 36.953125 
Q 23.96875 32.421875 30.609375 32.421875 
z
" id="DejaVuSans-57"/>
      </defs>
      <g style="fill:#262626;" transform="translate(494.878362 651.898438)scale(0.1 -0.1)">
       <use xlink:href="#DejaVuSans-50"/>
       <use x="63.623047" xlink:href="#DejaVuSans-48"/>
       <use x="127.246094" xlink:href="#DejaVuSans-49"/>
       <use x="190.869141" xlink:href="#DejaVuSans-57"/>
      </g>
     </g>
    </g>
    <g id="xtick_6">
     <g id="line2d_11">
      <path clip-path="url(#pf0a8105376)" d="M 593.386094 640.8 
L 593.386094 86.4 
" style="fill:none;stroke:#cccccc;stroke-linecap:round;stroke-width:0.8;"/>
     </g>
     <g id="line2d_12"/>
     <g id="text_6">
      <!-- 2020 -->
      <g style="fill:#262626;" transform="translate(580.661094 651.898438)scale(0.1 -0.1)">
       <use xlink:href="#DejaVuSans-50"/>
       <use x="63.623047" xlink:href="#DejaVuSans-48"/>
       <use x="127.246094" xlink:href="#DejaVuSans-50"/>
       <use x="190.869141" xlink:href="#DejaVuSans-48"/>
      </g>
     </g>
    </g>
   </g>
   <g id="matplotlib.axis_2">
    <g id="ytick_1">
     <g id="line2d_13">
      <path clip-path="url(#pf0a8105376)" d="M 90 615.609046 
L 648 615.609046 
" style="fill:none;stroke:#cccccc;stroke-linecap:round;stroke-width:0.8;"/>
     </g>
     <g id="line2d_14"/>
     <g id="text_7">
      <!-- 0 -->
      <g style="fill:#262626;" transform="translate(80.1375 619.408264)scale(0.1 -0.1)">
       <use xlink:href="#DejaVuSans-48"/>
      </g>
     </g>
    </g>
    <g id="ytick_2">
     <g id="line2d_15">
      <path clip-path="url(#pf0a8105376)" d="M 90 525.153537 
L 648 525.153537 
" style="fill:none;stroke:#cccccc;stroke-linecap:round;stroke-width:0.8;"/>
     </g>
     <g id="line2d_16"/>
     <g id="text_8">
      <!-- 10000 -->
      <g style="fill:#262626;" transform="translate(54.6875 528.952756)scale(0.1 -0.1)">
       <use xlink:href="#DejaVuSans-49"/>
       <use x="63.623047" xlink:href="#DejaVuSans-48"/>
       <use x="127.246094" xlink:href="#DejaVuSans-48"/>
       <use x="190.869141" xlink:href="#DejaVuSans-48"/>
       <use x="254.492188" xlink:href="#DejaVuSans-48"/>
      </g>
     </g>
    </g>
    <g id="ytick_3">
     <g id="line2d_17">
      <path clip-path="url(#pf0a8105376)" d="M 90 434.698029 
L 648 434.698029 
" style="fill:none;stroke:#cccccc;stroke-linecap:round;stroke-width:0.8;"/>
     </g>
     <g id="line2d_18"/>
     <g id="text_9">
      <!-- 20000 -->
      <g style="fill:#262626;" transform="translate(54.6875 438.497248)scale(0.1 -0.1)">
       <use xlink:href="#DejaVuSans-50"/>
       <use x="63.623047" xlink:href="#DejaVuSans-48"/>
       <use x="127.246094" xlink:href="#DejaVuSans-48"/>
       <use x="190.869141" xlink:href="#DejaVuSans-48"/>
       <use x="254.492188" xlink:href="#DejaVuSans-48"/>
      </g>
     </g>
    </g>
    <g id="ytick_4">
     <g id="line2d_19">
      <path clip-path="url(#pf0a8105376)" d="M 90 344.242521 
L 648 344.242521 
" style="fill:none;stroke:#cccccc;stroke-linecap:round;stroke-width:0.8;"/>
     </g>
     <g id="line2d_20"/>
     <g id="text_10">
      <!-- 30000 -->
      <defs>
       <path d="M 40.578125 39.3125 
Q 47.65625 37.796875 51.625 33 
Q 55.609375 28.21875 55.609375 21.1875 
Q 55.609375 10.40625 48.1875 4.484375 
Q 40.765625 -1.421875 27.09375 -1.421875 
Q 22.515625 -1.421875 17.65625 -0.515625 
Q 12.796875 0.390625 7.625 2.203125 
L 7.625 11.71875 
Q 11.71875 9.328125 16.59375 8.109375 
Q 21.484375 6.890625 26.8125 6.890625 
Q 36.078125 6.890625 40.9375 10.546875 
Q 45.796875 14.203125 45.796875 21.1875 
Q 45.796875 27.640625 41.28125 31.265625 
Q 36.765625 34.90625 28.71875 34.90625 
L 20.21875 34.90625 
L 20.21875 43.015625 
L 29.109375 43.015625 
Q 36.375 43.015625 40.234375 45.921875 
Q 44.09375 48.828125 44.09375 54.296875 
Q 44.09375 59.90625 40.109375 62.90625 
Q 36.140625 65.921875 28.71875 65.921875 
Q 24.65625 65.921875 20.015625 65.03125 
Q 15.375 64.15625 9.8125 62.3125 
L 9.8125 71.09375 
Q 15.4375 72.65625 20.34375 73.4375 
Q 25.25 74.21875 29.59375 74.21875 
Q 40.828125 74.21875 47.359375 69.109375 
Q 53.90625 64.015625 53.90625 55.328125 
Q 53.90625 49.265625 50.4375 45.09375 
Q 46.96875 40.921875 40.578125 39.3125 
z
" id="DejaVuSans-51"/>
      </defs>
      <g style="fill:#262626;" transform="translate(54.6875 348.04174)scale(0.1 -0.1)">
       <use xlink:href="#DejaVuSans-51"/>
       <use x="63.623047" xlink:href="#DejaVuSans-48"/>
       <use x="127.246094" xlink:href="#DejaVuSans-48"/>
       <use x="190.869141" xlink:href="#DejaVuSans-48"/>
       <use x="254.492188" xlink:href="#DejaVuSans-48"/>
      </g>
     </g>
    </g>
    <g id="ytick_5">
     <g id="line2d_21">
      <path clip-path="url(#pf0a8105376)" d="M 90 253.787013 
L 648 253.787013 
" style="fill:none;stroke:#cccccc;stroke-linecap:round;stroke-width:0.8;"/>
     </g>
     <g id="line2d_22"/>
     <g id="text_11">
      <!-- 40000 -->
      <defs>
       <path d="M 37.796875 64.3125 
L 12.890625 25.390625 
L 37.796875 25.390625 
z
M 35.203125 72.90625 
L 47.609375 72.90625 
L 47.609375 25.390625 
L 58.015625 25.390625 
L 58.015625 17.1875 
L 47.609375 17.1875 
L 47.609375 0 
L 37.796875 0 
L 37.796875 17.1875 
L 4.890625 17.1875 
L 4.890625 26.703125 
z
" id="DejaVuSans-52"/>
      </defs>
      <g style="fill:#262626;" transform="translate(54.6875 257.586232)scale(0.1 -0.1)">
       <use xlink:href="#DejaVuSans-52"/>
       <use x="63.623047" xlink:href="#DejaVuSans-48"/>
       <use x="127.246094" xlink:href="#DejaVuSans-48"/>
       <use x="190.869141" xlink:href="#DejaVuSans-48"/>
       <use x="254.492188" xlink:href="#DejaVuSans-48"/>
      </g>
     </g>
    </g>
    <g id="ytick_6">
     <g id="line2d_23">
      <path clip-path="url(#pf0a8105376)" d="M 90 163.331505 
L 648 163.331505 
" style="fill:none;stroke:#cccccc;stroke-linecap:round;stroke-width:0.8;"/>
     </g>
     <g id="line2d_24"/>
     <g id="text_12">
      <!-- 50000 -->
      <g style="fill:#262626;" transform="translate(54.6875 167.130724)scale(0.1 -0.1)">
       <use xlink:href="#DejaVuSans-53"/>
       <use x="63.623047" xlink:href="#DejaVuSans-48"/>
       <use x="127.246094" xlink:href="#DejaVuSans-48"/>
       <use x="190.869141" xlink:href="#DejaVuSans-48"/>
       <use x="254.492188" xlink:href="#DejaVuSans-48"/>
      </g>
     </g>
    </g>
   </g>
   <g id="line2d_25">
    <path clip-path="url(#pf0a8105376)" d="M 115.363636 615.6 
L 116.349314 615.238178 
L 116.548652 615.138677 
L 116.735804 615.021085 
L 116.812653 614.939675 
L 117.518781 614.7859 
L 117.644628 614.749718 
L 118.388386 614.469306 
L 118.85301 614.324577 
L 119.513928 614.188894 
L 119.842806 613.980846 
L 120.286688 613.845163 
L 120.354901 613.799935 
L 120.986529 613.646161 
L 121.043859 613.609979 
L 121.21472 613.492387 
L 121.323412 613.438113 
L 123.299184 613.094382 
L 123.402093 613.040109 
L 123.635093 612.886335 
L 123.755576 612.804925 
L 124.577462 612.461194 
L 124.757496 612.379784 
L 125.187682 612.253146 
L 125.289073 612.180782 
L 125.717364 612.045099 
L 127.128985 611.529502 
L 127.305969 611.448092 
L 127.786617 611.203862 
L 127.872111 611.158635 
L 128.22498 610.959632 
L 128.407878 610.896314 
L 132.009085 609.638982 
L 132.495315 609.52139 
L 132.560743 609.467117 
L 132.953985 609.331433 
L 133.188603 609.213841 
L 133.631387 609.105295 
L 134.142686 608.987702 
L 134.207882 608.933429 
L 134.575769 608.797746 
L 135.164484 608.38165 
L 136.010786 608.255013 
L 136.786742 607.920327 
L 137.448931 607.802735 
L 137.669377 607.639915 
L 137.770733 607.585642 
L 138.131934 607.440913 
L 138.193877 607.395685 
L 139.311041 607.178592 
L 139.974454 606.89818 
L 141.191575 606.536358 
L 141.266684 606.473039 
L 141.647821 606.337356 
L 141.832103 606.264992 
L 142.808306 606.084081 
L 143.15129 605.830805 
L 143.980972 605.640849 
L 144.092762 605.514211 
L 145.187324 604.817703 
L 145.782181 604.68202 
L 145.902887 604.546337 
L 146.003163 604.5192 
L 146.285077 604.365426 
L 146.482266 604.220697 
L 146.575617 604.085014 
L 146.783885 603.967422 
L 147.339128 603.840784 
L 148.258959 603.406598 
L 148.946374 603.289005 
L 149.059293 603.189504 
L 149.344199 603.053821 
L 149.725583 602.809591 
L 150.187003 602.664862 
L 150.203775 602.646771 
L 150.623848 602.511088 
L 150.668336 602.46586 
L 151.059407 602.312086 
L 151.576731 601.923127 
L 152.229505 601.805535 
L 152.329022 601.678897 
L 152.482063 601.55226 
L 152.591732 601.443713 
L 152.898165 601.280893 
L 153.197589 601.072845 
L 153.349425 601.027618 
L 153.872954 600.864798 
L 155.218901 600.141154 
L 155.767964 599.815514 
L 155.817607 599.761241 
L 156.261868 599.598421 
L 156.346783 599.562238 
L 157.126912 599.381327 
L 157.254596 599.263735 
L 157.475399 599.119006 
L 157.616928 599.064733 
L 158.098052 598.920004 
L 158.173684 598.874777 
L 158.83458 598.730048 
L 158.968988 598.666729 
L 159.269598 598.494863 
L 159.764214 598.087814 
L 159.833347 598.03354 
L 160.431573 597.897857 
L 160.546405 597.78931 
L 160.713558 597.662673 
L 160.763144 597.644582 
L 161.007498 597.517944 
L 161.194266 597.36417 
L 161.33622 597.318942 
L 162.772403 596.911892 
L 163.989925 596.785254 
L 164.100877 596.749072 
L 165.352925 596.622434 
L 165.480111 596.423432 
L 165.721729 596.287749 
L 166.366348 595.609333 
L 167.290076 595.319875 
L 167.355129 595.247511 
L 167.508562 595.120873 
L 167.606417 594.867598 
L 167.749317 594.74096 
L 167.877953 594.632413 
L 168.005115 594.487684 
L 168.048735 594.451502 
L 168.751998 594.297728 
L 168.94236 594.17109 
L 169.068412 594.053498 
L 169.358943 593.818314 
L 169.684659 593.438401 
L 170.422827 593.157988 
L 170.756933 592.922804 
L 170.898098 592.651438 
L 171.054033 592.5248 
L 171.105031 592.461481 
L 171.281332 592.334843 
L 171.31251 592.244388 
L 171.975809 592.099659 
L 172.078391 592.009203 
L 172.192771 591.87352 
L 172.333068 591.701655 
L 172.458326 591.575017 
L 172.604134 591.38506 
L 172.710119 591.204149 
L 172.761223 591.131785 
L 172.939115 591.005147 
L 172.994647 590.95992 
L 173.642158 590.815191 
L 173.815464 590.652371 
L 174.664679 589.684497 
L 175.276901 589.548814 
L 175.401204 589.458358 
L 175.518329 589.259356 
L 175.81664 588.897534 
L 175.946195 588.725669 
L 176.062634 588.436211 
L 176.201122 588.282437 
L 176.341017 588.182935 
L 176.867905 587.983933 
L 176.978757 587.739704 
L 177.2206 587.658294 
L 177.403949 587.513565 
L 177.623879 587.305517 
L 177.81815 587.151743 
L 177.917887 587.061287 
L 178.537581 586.916558 
L 178.671214 586.789921 
L 179.030815 586.256233 
L 179.103917 586.030094 
L 179.278529 585.903457 
L 179.451566 585.758728 
L 179.707111 585.532589 
L 180.177515 585.369769 
L 180.504045 584.781808 
L 180.625154 584.646125 
L 180.737695 584.365713 
L 180.846716 584.23003 
L 180.986801 583.949618 
L 181.098243 583.795843 
L 181.262516 583.587796 
L 181.345633 583.560659 
L 181.787472 583.424976 
L 182.023704 583.135518 
L 182.139142 582.92747 
L 182.310631 582.782742 
L 182.814281 582.140508 
L 182.841352 582.09528 
L 183.367519 581.950551 
L 183.457953 581.814868 
L 183.747631 581.36259 
L 183.997583 580.892222 
L 184.424815 580.186669 
L 184.463442 579.987666 
L 185.069872 579.833892 
L 185.187927 579.562526 
L 185.317044 579.444933 
L 185.41685 579.164521 
L 185.585349 578.938383 
L 185.634639 578.73938 
L 185.90645 578.296148 
L 186.280384 578.051919 
L 186.748087 577.90719 
L 186.934948 577.653914 
L 187.033741 577.509186 
L 187.605123 576.821724 
L 187.698908 576.695086 
L 187.799717 576.505129 
L 188.434304 576.070943 
L 188.563723 575.980487 
L 188.640307 575.835759 
L 188.802207 575.627711 
L 189.129529 575.184479 
L 189.319295 574.831703 
L 189.705135 574.560336 
L 190.042352 574.433698 
L 190.648805 573.39346 
L 190.750269 573.248731 
L 191.046358 572.814545 
L 191.700704 572.516041 
L 192.030914 571.882853 
L 192.192717 571.710987 
L 192.292381 571.511985 
L 192.408939 571.303938 
L 192.513771 571.113981 
L 192.618562 570.987343 
L 192.681966 570.815478 
L 192.781097 570.77025 
L 193.303758 570.616476 
L 193.565238 570.137062 
L 193.69728 569.901877 
L 193.846725 569.702875 
L 194.195878 569.20537 
L 194.270525 569.078732 
L 194.362452 568.888776 
L 194.595839 568.762138 
L 194.706184 568.680728 
L 194.956615 568.545045 
L 195.08848 568.255587 
L 195.246219 568.06563 
L 195.439459 567.794264 
L 195.517029 567.622399 
L 195.996551 566.871618 
L 196.53806 566.708798 
L 197.18411 565.532876 
L 197.368278 565.315783 
L 197.996835 564.818278 
L 198.23178 564.682594 
L 198.350601 564.619276 
L 198.50167 564.483592 
L 198.773898 564.058451 
L 198.860083 563.95895 
L 198.963212 563.814222 
L 199.019185 563.569992 
L 199.152249 563.380035 
L 199.243562 563.244352 
L 199.41574 563.162942 
L 199.902769 563.027259 
L 200.100535 562.764938 
L 200.193472 562.602118 
L 200.337996 562.357888 
L 200.731632 561.679472 
L 200.87085 561.543788 
L 201.169414 561.353832 
L 201.524535 561.209103 
L 201.594408 561.028192 
L 201.849305 560.539732 
L 201.965012 560.322639 
L 202.034806 560.186956 
L 202.149069 559.797997 
L 202.276573 559.635177 
L 202.391869 559.472357 
L 202.554135 559.155763 
L 203.221791 559.038171 
L 203.314823 558.830123 
L 203.403111 558.703485 
L 203.524353 558.350709 
L 203.668543 558.224071 
L 203.785934 557.88034 
L 203.899315 557.726566 
L 204.052463 557.482336 
L 204.141882 557.328562 
L 204.268195 557.156696 
L 204.830331 557.021013 
L 205.516626 556.161686 
L 205.754672 555.917456 
L 205.933054 555.727499 
L 206.06614 555.682271 
L 206.476611 555.546588 
L 206.744233 555.058128 
L 206.887612 554.804853 
L 206.982391 554.660124 
L 207.071476 554.50635 
L 207.330902 554.334484 
L 207.417574 554.26212 
L 208.087719 554.045027 
L 208.336385 553.565613 
L 208.393165 553.357565 
L 208.518616 553.040971 
L 208.606058 552.896242 
L 208.70586 552.688194 
L 208.836599 552.53442 
L 208.925385 552.263053 
L 209.065962 552.118324 
L 209.212179 551.837912 
L 209.810955 551.367544 
L 209.984414 551.177587 
L 210.041975 551.032858 
L 210.236599 550.680082 
L 210.822884 549.58557 
L 210.994722 549.467978 
L 211.094649 549.196612 
L 211.317675 549.069974 
L 211.455665 548.75338 
L 211.54978 548.42774 
L 211.91066 548.219692 
L 211.995072 548.047827 
L 212.100274 547.930234 
L 212.369759 547.559367 
L 212.620214 547.297046 
L 213.269754 547.016634 
L 213.443376 546.754313 
L 213.652586 546.573402 
L 213.787943 546.410582 
L 213.947486 546.166352 
L 214.060054 546.012578 
L 214.111089 545.958304 
L 214.726962 545.813576 
L 214.872112 545.596482 
L 214.983964 545.424617 
L 215.265149 544.845702 
L 215.437694 544.646699 
L 215.693388 544.275832 
L 215.978411 544.149194 
L 216.310126 544.013511 
L 216.640652 543.42555 
L 216.888321 543.045637 
L 217.02131 542.900908 
L 217.152285 542.647633 
L 217.429708 542.321993 
L 217.986126 542.132036 
L 218.648089 541.064661 
L 218.778316 540.874705 
L 218.98165 540.549065 
L 219.347541 540.494792 
L 219.596957 540.368154 
L 220.527962 539.110822 
L 220.629685 538.948002 
L 220.697985 538.866592 
L 221.212521 538.694727 
L 221.545965 538.296723 
L 221.750118 537.99822 
L 222.135273 537.545942 
L 222.552479 537.365031 
L 223.121856 537.075573 
L 223.227613 536.894662 
L 223.330434 536.758979 
L 223.721334 536.017244 
L 223.893446 535.872515 
L 224.269355 535.736832 
L 224.542456 535.610194 
L 225.115777 534.615184 
L 225.27187 534.452364 
L 225.415173 534.271453 
L 225.870736 533.792038 
L 226.11734 533.656355 
L 226.392502 533.213123 
L 226.630602 532.91462 
L 226.851748 532.516616 
L 226.927545 532.353796 
L 227.149044 532.037202 
L 228.202217 530.94269 
L 228.441212 530.508504 
L 228.570751 530.37282 
L 228.913787 529.62204 
L 229.47793 529.45922 
L 229.623445 529.151671 
L 229.72968 528.988851 
L 230.725093 527.279242 
L 231.07756 527.116422 
L 231.252784 526.7546 
L 231.390638 526.618917 
L 232.274236 525.262084 
L 232.762936 525.126401 
L 232.818952 524.981672 
L 232.93544 524.665078 
L 233.08757 524.330392 
L 233.210165 524.068071 
L 233.788937 523.036879 
L 233.899443 522.855968 
L 234.408667 522.656965 
L 234.654892 522.005686 
L 234.978862 521.453907 
L 235.118267 521.209677 
L 235.179814 521.037812 
L 235.300063 520.739309 
L 235.439969 520.43176 
L 235.523682 520.323213 
L 236.098276 520.18753 
L 237.358955 518.441739 
L 237.805593 518.188463 
L 238.005002 517.953279 
L 238.983319 516.822585 
L 239.368285 516.668811 
L 239.484112 516.4879 
L 239.644188 516.297943 
L 239.857429 515.972303 
L 240.598385 515.094885 
L 241.005641 514.950156 
L 241.192194 514.59738 
L 241.331411 514.461696 
L 241.435892 514.335059 
L 242.112318 513.611415 
L 242.583664 513.466686 
L 242.696343 513.240547 
L 242.801844 513.014408 
L 242.938562 512.842543 
L 243.054174 512.652586 
L 243.204664 512.408356 
L 243.359 512.155081 
L 243.931526 511.612348 
L 244.21711 511.48571 
L 244.548509 510.979159 
L 245.188414 509.803238 
L 245.303139 509.667554 
L 245.416207 509.568053 
L 245.929639 509.396188 
L 246.163988 509.097685 
L 246.433224 508.808227 
L 246.814907 508.184084 
L 247.118068 507.912718 
L 247.567916 507.777034 
L 247.674897 507.650397 
L 247.862365 507.469486 
L 248.018384 507.324757 
L 248.460676 507.143846 
L 249.185039 506.990071 
L 249.301839 506.881525 
L 250.144736 506.510657 
L 250.871411 506.365928 
L 251.285162 505.958879 
L 251.422699 505.823195 
L 251.575522 505.714649 
L 251.665034 505.578966 
L 251.812603 505.452328 
L 252.041232 505.262371 
L 252.555115 505.054324 
L 252.726849 504.792003 
L 252.797254 504.638228 
L 252.995516 504.430181 
L 253.556838 503.932675 
L 253.645822 503.84222 
L 254.203968 503.625127 
L 254.494069 503.362806 
L 254.628244 503.263304 
L 254.770489 503.000984 
L 254.966081 502.62107 
L 255.164527 502.358749 
L 255.51333 502.087383 
L 255.835094 501.933609 
L 255.897755 501.752698 
L 256.055111 501.54465 
L 256.348729 501.083327 
L 256.45583 500.956689 
L 256.571784 500.821006 
L 256.774863 500.522503 
L 257.328798 500.187817 
L 257.529485 499.925496 
L 257.603511 499.798859 
L 257.721324 499.672221 
L 257.912096 499.4099 
L 257.988649 499.256125 
L 258.101653 499.029987 
L 258.199527 498.894303 
L 258.356096 498.650074 
L 258.408513 498.505345 
L 258.495395 498.279206 
L 259.099448 498.034976 
L 259.338656 497.492243 
L 259.440316 497.27515 
L 260.082675 496.198729 
L 260.188736 495.927363 
L 260.687617 495.800725 
L 260.806145 495.601723 
L 260.973794 495.456994 
L 261.32376 494.697168 
L 261.485321 494.57053 
L 262.183495 493.837841 
L 262.449202 493.530292 
L 262.808607 492.806648 
L 262.899637 492.616691 
L 263.018894 492.35437 
L 263.17455 492.064913 
L 263.3333 491.856865 
L 263.426069 491.666908 
L 263.449886 491.567407 
L 263.802733 491.431724 
L 264.092163 491.187494 
L 264.316929 490.62667 
L 264.383013 490.481941 
L 264.501048 490.373395 
L 264.719134 489.993481 
L 264.806813 489.821616 
L 264.956921 489.514067 
L 265.032966 489.342202 
L 265.342405 489.06179 
L 265.654276 488.935152 
L 266.102323 488.446692 
L 266.321257 488.274827 
L 266.871865 487.560228 
L 267.330442 487.370272 
L 267.57598 487.135087 
L 267.809861 486.818493 
L 268.023001 486.447626 
L 268.630713 485.904892 
L 269.00406 485.760164 
L 269.108122 485.615435 
L 269.519659 485.325977 
L 269.639991 485.235522 
L 269.745475 485.063656 
L 269.852603 484.982246 
L 270.224445 484.756108 
L 270.578903 484.71088 
L 270.702145 484.584242 
L 271.239168 484.177192 
L 271.373759 484.041509 
L 271.530951 483.923917 
L 271.606468 483.788234 
L 271.748079 483.65255 
L 272.280902 483.480685 
L 272.793515 482.892724 
L 273.087934 482.449492 
L 273.248542 482.295718 
L 273.336523 482.205262 
L 273.981207 482.042442 
L 274.243729 481.771076 
L 274.47371 481.481618 
L 274.583751 481.409254 
L 274.663645 481.27357 
L 274.884186 480.966022 
L 275.696348 480.52279 
L 276.222104 479.772009 
L 276.766042 479.428278 
L 277.232603 479.292595 
L 277.466128 478.939818 
L 277.565925 478.767953 
L 277.796986 478.397085 
L 277.944214 478.234265 
L 279.165769 477.311619 
L 279.244678 477.239255 
L 279.361808 477.094526 
L 279.531907 476.859342 
L 279.614649 476.705567 
L 279.758863 476.569884 
L 280.173169 476.226153 
L 280.46783 476.099515 
L 280.705832 475.84624 
L 280.798598 475.692466 
L 281.432132 475.005004 
L 282.283401 474.28136 
L 282.434019 473.919538 
L 282.911664 473.295395 
L 283.053365 473.096393 
L 283.136553 472.942618 
L 283.234182 472.843117 
L 283.366743 472.716479 
L 283.481123 472.662206 
L 283.734469 472.535568 
L 283.879557 472.237065 
L 283.997753 472.056154 
L 284.108153 471.784788 
L 284.315108 471.540558 
L 284.423715 471.359647 
L 284.541278 471.223964 
L 284.823918 470.807868 
L 285.39599 470.654094 
L 285.451389 470.536502 
L 285.656159 470.41891 
L 285.742075 470.237998 
L 286.356435 469.333443 
L 286.436051 469.134441 
L 286.541811 469.025895 
L 286.996844 468.87212 
L 287.201837 468.537435 
L 287.644392 467.71429 
L 287.767618 467.578607 
L 288.071002 467.171557 
L 288.322548 466.972555 
L 288.743625 466.73737 
L 289.081109 466.230819 
L 289.212683 466.040863 
L 289.504253 465.443857 
L 289.784162 465.163444 
L 290.281545 465.018716 
L 290.388988 464.937306 
L 290.52261 464.774486 
L 290.640102 464.566438 
L 291.170711 463.490018 
L 291.344151 463.291015 
L 291.385823 463.137241 
L 291.964354 462.965376 
L 292.290742 462.594508 
L 292.399662 462.449779 
L 292.768482 461.988456 
L 293.016057 461.762317 
L 293.28183 461.599497 
L 293.860297 461.31004 
L 294.104752 461.129129 
L 294.277966 460.893945 
L 294.830149 460.287893 
L 295.256345 460.106982 
L 295.73164 459.509975 
L 295.832332 459.356201 
L 296.03173 459.057698 
L 296.241456 458.876787 
L 296.364404 458.713967 
L 296.399051 458.668739 
L 296.862598 458.52401 
L 297.18307 457.791321 
L 297.533183 457.067677 
L 297.637232 456.931993 
L 298.257198 456.199304 
L 298.599693 456.06362 
L 298.691052 455.819391 
L 298.933482 455.701798 
L 299.407251 455.177156 
L 299.600703 455.005291 
L 299.63764 454.914835 
L 300.205537 454.761061 
L 300.382535 454.49874 
L 300.751714 453.874597 
L 300.865721 453.639413 
L 301.155083 453.2595 
L 301.459155 453.042406 
L 301.856308 452.879586 
L 301.957808 452.716767 
L 302.145447 452.508719 
L 302.559547 451.71271 
L 302.655407 451.549891 
L 302.898782 451.169977 
L 302.939639 451.106659 
L 303.420527 450.96193 
L 304.028755 450.048329 
L 304.410376 448.971909 
L 304.510127 448.809089 
L 304.649559 448.555813 
L 305.126062 448.383948 
L 305.281854 447.949761 
L 305.443888 447.587939 
L 305.532467 447.388937 
L 305.66984 447.235163 
L 305.846914 446.891432 
L 306.105845 446.375835 
L 306.21146 446.113514 
L 306.815571 445.869285 
L 306.911029 445.616009 
L 307.130053 445.127549 
L 307.284446 444.955684 
L 307.438546 444.702409 
L 308.082974 443.725489 
L 308.260766 443.671216 
L 308.415088 443.526487 
L 308.946487 442.658114 
L 309.040955 442.450066 
L 309.127567 442.305338 
L 309.5557 441.482192 
L 309.893222 441.337464 
L 309.912228 441.319373 
L 310.067965 441.20178 
L 311.109255 439.030848 
L 311.217678 438.922302 
L 311.590538 438.768527 
L 311.692649 438.732345 
L 311.787694 438.596662 
L 312.423916 437.266966 
L 312.503551 437.086055 
L 313.084562 436.498094 
L 313.380926 436.326229 
L 313.955792 435.231717 
L 314.133801 435.032715 
L 314.432485 434.526164 
L 315.036155 434.37239 
L 315.860217 433.096967 
L 315.981353 432.90701 
L 316.142762 432.626598 
L 316.270296 432.563279 
L 316.676491 432.337141 
L 316.83185 431.99341 
L 317.380211 431.314993 
L 317.753821 430.591349 
L 318.271988 430.401393 
L 318.398288 430.120981 
L 318.619455 429.77725 
L 319.329921 428.348053 
L 319.460274 428.203324 
L 319.914379 428.004322 
L 320.499233 426.620352 
L 320.595771 426.439441 
L 320.700141 426.204257 
L 320.897825 425.83339 
L 320.949089 425.688661 
L 321.076926 425.489659 
L 321.385045 425.363021 
L 321.623551 425.164019 
L 321.736503 424.955971 
L 321.90834 424.648422 
L 322.017805 424.395147 
L 322.134012 424.141872 
L 322.257825 423.834323 
L 322.5577 423.264453 
L 322.678725 423.029269 
L 323.051645 422.902631 
L 324.589336 420.713608 
L 324.84462 420.568879 
L 324.961774 420.387968 
L 325.068064 420.207057 
L 325.188023 420.071374 
L 325.653852 419.402003 
L 325.780238 419.193955 
L 325.914915 418.895452 
L 326.018534 418.804997 
L 326.49742 418.642177 
L 327.263929 417.348663 
L 327.509964 417.21298 
L 327.620647 417.149661 
L 328.152595 416.995886 
L 328.576351 416.444108 
L 328.661165 416.263197 
L 328.833715 415.964694 
L 329.255796 415.277232 
L 329.769007 415.042047 
L 329.945651 414.662134 
L 330.282787 414.164629 
L 330.907701 412.807796 
L 331.36272 412.61784 
L 331.541382 412.2922 
L 331.84935 411.649966 
L 332.042255 411.414782 
L 332.306107 411.05296 
L 332.490743 410.781593 
L 332.666514 410.664001 
L 333.126293 410.365498 
L 333.563631 409.714218 
L 333.949112 409.108166 
L 335.074904 408.764435 
L 335.431851 408.502114 
L 335.588175 408.420704 
L 335.903172 408.294067 
L 336.536916 408.149338 
L 336.739276 407.968427 
L 336.941331 407.69706 
L 337.124118 407.489013 
L 338.01892 407.045781 
L 338.079794 406.901052 
L 338.682398 405.915087 
L 338.837354 405.752267 
L 338.951105 405.517082 
L 339.073539 405.390445 
L 339.160845 405.299989 
L 339.672901 405.137169 
L 340.980168 403.291877 
L 341.360355 403.120011 
L 341.484215 402.857691 
L 341.677425 402.577278 
L 342.561229 401.338038 
L 343.018588 401.148081 
L 343.121956 400.949079 
L 343.272236 400.768168 
L 343.400247 400.578212 
L 343.477257 400.442528 
L 343.598415 400.225435 
L 343.757544 399.981205 
L 343.860034 399.80934 
L 343.980006 399.637474 
L 344.264233 399.438472 
L 344.573283 399.293743 
L 344.756254 398.986195 
L 344.891315 398.841466 
L 345.098612 398.452507 
L 345.951657 397.34895 
L 346.271188 397.213267 
L 346.401538 396.815263 
L 346.474835 396.670534 
L 346.621133 396.326803 
L 346.79494 395.992117 
L 346.908479 395.802161 
L 347.030941 395.521749 
L 347.206303 395.196109 
L 347.313962 394.979016 
L 347.415214 394.879515 
L 347.652963 394.72574 
L 347.77966 394.635285 
L 347.970938 394.48151 
L 348.094613 394.382009 
L 348.65257 393.025177 
L 348.710183 392.789992 
L 348.859506 392.581945 
L 348.928813 392.401034 
L 349.10439 392.211077 
L 349.729267 391.451251 
L 349.853447 391.170839 
L 350.15364 390.61906 
L 350.257539 390.474331 
L 350.362679 390.347694 
L 350.472616 390.157737 
L 351.325267 389.578822 
L 352.449577 387.742575 
L 352.827871 387.561664 
L 352.944756 387.353616 
L 353.068349 387.136523 
L 353.179013 386.946567 
L 353.333896 386.747565 
L 353.58718 386.340515 
L 353.82252 385.987738 
L 353.94479 385.806827 
L 354.524991 385.634962 
L 354.662095 385.43596 
L 355.143703 384.793726 
L 355.287205 384.639951 
L 355.681986 384.287175 
L 356.33325 383.898216 
L 356.577833 383.699214 
L 356.711539 383.536394 
L 356.869338 383.38262 
L 357.391605 382.885114 
L 357.861644 382.704203 
L 357.991659 382.532338 
L 358.392479 381.980559 
L 358.616582 381.663965 
L 358.93101 381.483054 
L 359.471104 381.256915 
L 359.694279 380.949366 
L 360.466759 379.909128 
L 361.161211 379.791536 
L 361.292206 379.610625 
L 361.61453 379.140256 
L 361.737666 379.004573 
L 362.800231 378.081927 
L 362.993574 377.801515 
L 363.254564 377.557285 
L 363.793201 376.57132 
L 364.3972 376.399454 
L 364.566037 376.191407 
L 364.743198 375.892904 
L 364.937041 375.5944 
L 365.099508 375.259715 
L 365.29139 374.997394 
L 365.450506 374.816483 
L 365.966121 374.635572 
L 366.528622 373.884791 
L 366.738462 373.441559 
L 367.28851 372.79028 
L 367.632927 372.564141 
L 368.857769 370.375118 
L 369.286187 370.16707 
L 369.461618 369.778111 
L 369.636369 369.425335 
L 370.420902 367.824272 
L 370.586197 367.769999 
L 371.007075 367.54386 
L 371.26741 367.308676 
L 371.381951 367.001127 
L 371.499205 366.756897 
L 371.588916 366.612168 
L 371.888489 365.97898 
L 372.716014 365.155835 
L 373.710929 363.76282 
L 374.142576 363.6 
L 374.302015 363.364816 
L 374.458245 363.057267 
L 374.606531 362.677354 
L 375.347971 361.54666 
L 376.048963 361.202929 
L 376.21771 360.967745 
L 376.380498 360.823016 
L 376.602652 360.497376 
L 377.153255 359.855142 
L 377.49634 359.710413 
L 377.874367 358.914405 
L 378.103295 358.606856 
L 378.217066 358.43499 
L 378.295939 358.281216 
L 378.586131 357.801802 
L 379.12465 357.657073 
L 379.426971 357.35857 
L 379.853795 357.005793 
L 379.967476 356.7887 
L 380.610558 356.200739 
L 380.831976 356.056011 
L 381.167107 355.658006 
L 381.315679 355.504232 
L 381.480003 355.214774 
L 381.625286 354.834861 
L 381.92079 354.500176 
L 382.570969 354.020762 
L 382.999317 353.08907 
L 383.30967 352.347335 
L 383.431302 352.139287 
L 384.01413 351.750328 
L 384.127476 351.569417 
L 384.219409 351.451825 
L 384.409866 351.334233 
L 384.632978 351.008593 
L 384.993186 350.402541 
L 385.469033 349.950264 
L 385.733217 349.805535 
L 386.007031 349.362303 
L 386.137524 349.072845 
L 386.256917 348.937162 
L 386.972244 347.933106 
L 387.333257 347.788377 
L 387.461812 347.58033 
L 387.97001 346.793367 
L 388.085622 346.558182 
L 388.241274 346.413453 
L 388.520887 346.024495 
L 388.928336 345.834538 
L 389.27281 345.273714 
L 389.433343 344.966165 
L 389.568447 344.667662 
L 390.138529 343.835471 
L 390.597443 343.591242 
L 390.704179 343.419376 
L 390.785365 343.265602 
L 390.913114 342.90378 
L 391.138332 342.370092 
L 391.209306 342.198227 
L 391.935434 340.940895 
L 392.306431 340.778075 
L 392.412215 340.669529 
L 392.621267 340.226297 
L 392.758977 339.846384 
L 393.561855 338.534779 
L 393.945733 338.399095 
L 394.065461 338.22723 
L 394.179985 338.055365 
L 394.397627 337.747816 
L 395.262491 336.571894 
L 395.580012 336.436211 
L 395.686683 336.246254 
L 395.818616 336.101526 
L 396.014967 335.757795 
L 396.108219 335.52261 
L 396.20476 335.35979 
L 396.333481 335.187925 
L 396.587478 334.817057 
L 396.8109 334.590919 
L 397.178869 334.428099 
L 397.283195 334.247188 
L 397.410612 334.03914 
L 397.550681 333.803956 
L 397.74941 333.451179 
L 398.173302 332.827036 
L 398.311274 332.655171 
L 398.903571 332.293349 
L 399.278353 331.669206 
L 399.485498 331.244065 
L 399.5848 331.072199 
L 399.825471 330.737514 
L 399.938822 330.574694 
L 400.130191 330.429965 
L 400.759435 330.031961 
L 400.871944 329.860095 
L 401.092983 329.615866 
L 401.183412 329.462091 
L 401.509702 329.290226 
L 402.245425 328.87413 
L 402.437304 328.548491 
L 403.094148 327.22784 
L 403.256087 326.929337 
L 403.853533 326.531333 
L 403.97159 326.278057 
L 404.938738 324.505129 
L 405.253236 324.369446 
L 405.351896 324.2609 
L 405.481933 324.061897 
L 405.581333 323.799576 
L 405.689916 323.636757 
L 405.95259 323.139251 
L 406.536955 322.388471 
L 406.635708 322.261833 
L 407.077088 322.117104 
L 407.202215 321.890965 
L 407.558726 321.203503 
L 407.736202 320.895955 
L 407.907996 320.561269 
L 408.122698 320.262766 
L 408.212542 320.163265 
L 408.681192 319.973308 
L 408.860648 319.647669 
L 408.96977 319.475803 
L 409.14686 319.032571 
L 409.905853 317.485782 
L 410.096441 317.440554 
L 410.379486 317.187279 
L 410.516386 316.943049 
L 410.619608 316.735001 
L 410.924485 315.975175 
L 411.82108 314.717843 
L 412.047938 314.545978 
L 412.237508 314.17511 
L 412.43467 313.976108 
L 412.531094 313.813288 
L 413.310064 312.926824 
L 413.676088 312.782096 
L 413.875391 312.438365 
L 413.960083 312.212226 
L 414.217722 311.687584 
L 414.369104 311.497627 
L 414.486699 311.334807 
L 414.702424 311.04535 
L 414.899607 310.837302 
L 415.332661 310.665437 
L 415.46325 310.448343 
L 415.589786 310.285524 
L 416.093518 309.887519 
L 416.380703 309.652335 
L 416.957639 309.444287 
L 417.095034 309.245285 
L 417.19698 309.064374 
L 417.332501 308.919645 
L 417.451388 308.774917 
L 417.732698 308.476413 
L 417.902931 308.277411 
L 418.022294 308.141728 
L 418.654269 307.752769 
L 418.82772 307.481403 
L 419.150335 306.983897 
L 419.660233 306.359754 
L 419.795493 306.20598 
L 419.885084 306.169798 
L 420.560171 305.997932 
L 420.656506 305.970796 
L 421.916505 305.581837 
L 422.190144 305.409972 
L 422.296124 305.274288 
L 422.481916 305.093377 
L 422.844768 304.650145 
L 422.992418 304.47828 
L 423.08827 304.405916 
L 423.579095 304.225004 
L 423.654625 304.134549 
L 423.884614 303.98982 
L 424.0341 303.682271 
L 424.325039 303.121447 
L 424.506699 302.949582 
L 424.625853 302.795807 
L 424.977873 302.66917 
L 425.224341 302.524441 
L 425.564485 302.117391 
L 425.727841 301.954571 
L 426.375474 300.814832 
L 426.797392 300.661057 
L 427.003647 300.45301 
L 427.129152 300.163552 
L 427.414181 299.729366 
L 427.519829 299.5575 
L 427.662049 299.385635 
L 427.813801 299.105223 
L 427.953375 298.960494 
L 428.130985 298.833856 
L 428.481142 298.689127 
L 428.594248 298.48108 
L 428.662603 298.31826 
L 428.837441 297.974529 
L 429.050829 297.567479 
L 429.159939 297.332295 
L 429.769716 296.292056 
L 430.162348 296.1021 
L 430.901221 294.835723 
L 430.976672 294.709085 
L 431.093949 294.591493 
L 431.246343 294.338217 
L 431.483023 294.166352 
L 431.588388 294.012578 
L 431.820755 293.867849 
L 431.948183 293.714074 
L 432.057019 293.587437 
L 432.169992 293.334161 
L 432.313769 293.15325 
L 433.094428 292.212513 
L 433.53707 292.049693 
L 433.671516 291.986374 
L 433.952865 291.534097 
L 434.370726 290.475767 
L 434.495899 290.258674 
L 434.818882 289.887806 
L 435.078077 289.752123 
L 435.389878 289.164162 
L 435.701504 288.585247 
L 435.849072 288.304835 
L 435.992876 288.069651 
L 436.1623 287.798284 
L 436.723479 287.590237 
L 436.953245 287.309824 
L 437.142439 287.110822 
L 437.521523 286.712818 
L 437.653075 286.568089 
L 438.599244 285.790172 
L 438.729714 285.500714 
L 439.19906 285.003209 
L 439.311535 284.849435 
L 439.425833 284.722797 
L 439.527423 284.61425 
L 440.061574 284.433339 
L 440.875925 283.166962 
L 441.51293 282.814186 
L 441.675307 282.687548 
L 442.030532 282.135769 
L 442.29554 281.692537 
L 442.548223 281.394034 
L 442.763221 281.15885 
L 442.894507 281.050303 
L 443.642059 280.543752 
L 443.818948 280.308568 
L 444.712594 279.476377 
L 444.994201 279.340694 
L 445.449573 278.77987 
L 445.715468 278.309501 
L 445.800778 278.146682 
L 446.450293 277.667267 
L 446.574509 277.54063 
L 446.737598 277.079307 
L 446.816083 276.925532 
L 446.929173 276.771758 
L 447.12612 276.500391 
L 447.34237 276.183797 
L 447.428063 275.91243 
L 447.730429 275.722474 
L 447.81236 275.659155 
L 448.170621 275.532517 
L 448.277408 275.215923 
L 448.561841 274.637008 
L 448.656456 274.456097 
L 448.754714 274.302322 
L 449.04778 273.931455 
L 449.163773 273.795772 
L 449.650675 273.542496 
L 449.957617 273.424904 
L 450.085973 273.289221 
L 450.361277 273.117355 
L 450.641265 272.900262 
L 450.751703 272.746488 
L 451.365149 272.429893 
L 451.613341 272.303256 
L 451.757455 272.059026 
L 451.857496 271.941434 
L 452.001452 271.778614 
L 452.133312 271.471065 
L 452.293635 271.127334 
L 452.465108 270.97356 
L 452.833349 270.611738 
L 453.18359 270.448918 
L 453.403457 270.005686 
L 453.953861 269.146358 
L 454.154722 268.893083 
L 454.341736 268.685035 
L 454.897906 268.449851 
L 455.61996 267.382476 
L 455.923205 266.94829 
L 456.306301 266.78547 
L 456.793309 266.233691 
L 456.934446 266.016598 
L 457.423815 265.392455 
L 458.217529 265.057769 
L 458.434423 264.677856 
L 458.665587 264.334125 
L 458.817293 264.207488 
L 458.922777 264.071804 
L 459.102101 263.908985 
L 459.86441 263.556208 
L 459.977816 263.438616 
L 460.120384 263.284842 
L 460.356328 263.040612 
L 460.567069 262.859701 
L 460.814543 262.660699 
L 460.974227 262.624516 
L 461.470219 262.506924 
L 462.193587 261.710916 
L 462.425861 261.358139 
L 463.325818 260.842543 
L 463.443943 260.62545 
L 464.095523 259.693758 
L 464.206375 259.639485 
L 464.549394 259.603302 
L 464.667193 259.476665 
L 465.003096 259.024387 
L 465.965511 258.011285 
L 466.3877 257.848465 
L 466.503056 257.604236 
L 466.798245 257.305732 
L 466.930811 257.161004 
L 467.249091 256.817273 
L 467.377273 256.681589 
L 467.578297 256.419268 
L 468.092453 256.19313 
L 468.475428 255.749898 
L 468.973747 255.207165 
L 469.145769 255.071481 
L 469.627617 254.935798 
L 469.852574 254.646341 
L 469.968988 254.555885 
L 470.090641 254.411156 
L 470.728675 253.642284 
L 471.376166 253.398054 
L 471.502944 253.298553 
L 471.88536 252.936731 
L 472.040868 252.656319 
L 472.112773 252.484454 
L 472.394662 252.276406 
L 472.975817 252.104541 
L 473.096772 251.896493 
L 473.24385 251.6794 
L 474.323813 250.394932 
L 474.559504 250.259248 
L 474.715635 250.141656 
L 474.828317 249.924563 
L 475.704305 248.830051 
L 476.196018 248.667231 
L 476.319943 248.504412 
L 476.940296 247.590811 
L 477.033314 247.446082 
L 477.143195 247.292308 
L 477.241653 247.075214 
L 477.689257 246.966668 
L 477.899742 246.849076 
L 478.023482 246.695301 
L 478.209818 246.387753 
L 478.313867 246.233978 
L 478.448087 245.971657 
L 478.582416 245.799792 
L 478.699288 245.555562 
L 478.930822 245.238968 
L 479.027186 245.148512 
L 479.623982 245.003783 
L 480.526988 243.873089 
L 480.799237 243.764543 
L 481.137769 243.619814 
L 481.300717 243.429857 
L 481.601274 243.167537 
L 481.719487 243.022808 
L 482.338305 242.235845 
L 482.837714 242.109207 
L 483.149795 241.702157 
L 483.310874 241.557428 
L 483.421598 241.358426 
L 483.749202 240.978513 
L 484.750118 240.481008 
L 485.520748 239.19654 
L 486.18641 238.780444 
L 486.641097 238.228666 
L 486.752014 238.083937 
L 486.922056 237.839707 
L 487.044449 237.785434 
L 487.348535 237.640705 
L 487.747737 237.514067 
L 487.866104 237.360293 
L 488.064357 237.107017 
L 488.185668 236.962289 
L 488.210119 236.944198 
L 488.443807 236.826605 
L 488.882845 236.256736 
L 489.427189 236.048688 
L 489.529592 235.858731 
L 489.652118 235.659729 
L 489.760562 235.524046 
L 490.078478 235.144133 
L 490.274927 234.963222 
L 490.420319 234.737083 
L 490.849325 234.592354 
L 491.058214 234.465717 
L 491.217944 234.302897 
L 491.48537 233.968211 
L 491.640999 233.805391 
L 491.871629 233.524979 
L 492.132595 233.154112 
L 492.704948 232.891791 
L 493.904266 231.218364 
L 494.272977 231.073635 
L 494.578217 230.684676 
L 495.070719 229.933896 
L 495.192639 229.644438 
L 495.319047 229.508755 
L 495.414604 229.336889 
L 496.03238 229.047432 
L 497.254534 227.681554 
L 497.583188 227.54587 
L 498.129476 226.840317 
L 498.278807 226.686543 
L 498.753591 226.451359 
L 499.434883 226.198083 
L 499.579361 226.044309 
L 500.152258 225.393029 
L 500.287053 225.239255 
L 500.400937 225.16689 
L 501.044204 224.895524 
L 501.184208 224.750795 
L 501.341705 224.587975 
L 501.679488 224.208062 
L 501.806753 224.135698 
L 502.361449 223.801012 
L 502.6571 223.656283 
L 502.795615 223.475372 
L 502.865044 223.348735 
L 502.953373 223.185915 
L 503.245172 222.986913 
L 503.304501 222.959776 
L 503.483267 222.824093 
L 503.809079 222.607 
L 504.26434 222.462271 
L 504.735111 222.009993 
L 504.844853 221.883355 
L 505.090091 221.639126 
L 506.530075 221.186848 
L 506.694704 220.996891 
L 506.972807 220.852163 
L 507.060475 220.725525 
L 507.485172 220.571751 
L 507.488472 220.553659 
L 507.997053 220.427022 
L 508.253261 220.209929 
L 508.697476 219.703378 
L 509.111195 219.567694 
L 509.47838 219.16969 
L 509.582051 219.079235 
L 509.661362 218.92546 
L 509.858472 218.663139 
L 510.054367 218.464137 
L 510.166802 218.292272 
L 510.460905 218.084224 
L 510.527997 218.057087 
L 510.880953 217.885222 
L 511.105624 217.677174 
L 511.220719 217.550537 
L 511.317663 217.414853 
L 511.614005 216.95353 
L 511.823979 216.745483 
L 511.962211 216.664073 
L 512.477789 216.483162 
L 512.608005 216.383661 
L 512.911381 216.03993 
L 513.044283 215.868064 
L 514.62295 214.221774 
L 514.752245 214.013726 
L 515.110413 213.552403 
L 515.769522 213.235809 
L 515.859113 213.054898 
L 516.007941 212.910169 
L 516.111731 212.828759 
L 516.344728 212.68403 
L 517.695254 211.625701 
L 517.809459 211.372425 
L 517.906969 211.218651 
L 518.023462 210.974421 
L 518.216495 210.675918 
L 518.334506 210.504053 
L 519.218882 209.7985 
L 519.780447 209.111038 
L 519.90883 208.884899 
L 520.64175 208.134118 
L 520.97041 207.473793 
L 521.018309 207.374292 
L 521.238783 207.2567 
L 521.899043 206.180279 
L 522.355944 205.927004 
L 522.409137 205.746093 
L 522.50252 205.592318 
L 522.593125 205.44759 
L 522.736782 205.140041 
L 522.879489 204.895811 
L 523.085443 204.443534 
L 523.210682 204.298805 
L 523.380223 203.946028 
L 523.975569 203.774163 
L 524.08492 203.719889 
L 524.727942 203.140974 
L 524.854113 203.041473 
L 525.194679 202.932927 
L 525.703051 202.770107 
L 525.838322 202.643469 
L 526.594176 201.919825 
L 526.672851 201.838415 
L 527.121788 201.684641 
L 527.564223 201.042406 
L 527.790325 200.789131 
L 528.30306 200.11976 
L 528.845061 199.893621 
L 528.995859 199.577027 
L 529.957645 198.111648 
L 530.468919 197.975965 
L 530.772937 197.388004 
L 530.97005 197.161865 
L 531.269577 196.637223 
L 531.38452 196.42013 
L 532.680983 194.927614 
L 532.791377 194.819067 
L 533.549968 193.95974 
L 533.829877 193.805966 
L 534.014935 193.570781 
L 534.297553 193.037094 
L 534.423773 192.829046 
L 535.102811 192.078266 
L 535.451074 191.879263 
L 535.566104 191.66217 
L 537.871553 188.794731 
L 538.077559 188.460045 
L 538.796775 187.899221 
L 538.947934 187.618809 
L 539.10557 187.39267 
L 539.953536 186.216749 
L 540.39854 185.927291 
L 540.502961 185.800653 
L 540.613323 185.674016 
L 541.026637 185.266966 
L 541.277709 184.977508 
L 541.462269 184.679005 
L 542.041109 184.208636 
L 542.459365 183.747313 
L 542.579153 183.584493 
L 543.133411 182.824667 
L 543.702627 182.607574 
L 544.114127 182.245752 
L 544.237467 182.101023 
L 544.481179 181.956294 
L 544.557705 181.892975 
L 544.774838 181.757292 
L 544.933823 181.684928 
L 545.351434 181.504017 
L 545.478697 181.259787 
L 545.944232 180.979375 
L 546.286762 180.599462 
L 546.42247 180.418551 
L 546.865207 180.23764 
L 548.211174 178.844625 
L 548.52372 178.708941 
L 549.166979 177.994343 
L 549.301634 177.85866 
L 549.524314 177.596339 
L 549.734748 177.315927 
L 550.331174 176.990287 
L 550.539481 176.673693 
L 550.742325 176.5561 
L 551.144201 175.941003 
L 551.523061 175.72391 
L 551.859859 175.570135 
L 551.978199 175.461589 
L 552.167674 175.253541 
L 552.299387 175.045493 
L 552.471379 174.837446 
L 552.933784 174.17712 
L 553.184342 174.086665 
L 553.498637 173.9148 
L 553.934955 173.489659 
L 554.09589 173.34493 
L 554.316559 173.082609 
L 554.456979 172.928834 
L 554.686533 172.720787 
L 555.148964 172.576058 
L 555.257074 172.440375 
L 555.390949 172.295646 
L 555.830286 171.707685 
L 556.291469 171.011178 
L 556.646503 170.866449 
L 556.779775 170.794084 
L 557.129943 170.459399 
L 557.376214 170.043304 
L 558.268454 169.102566 
L 558.593499 168.921655 
L 558.988389 168.406059 
L 559.125283 168.243239 
L 559.250778 168.09851 
L 559.38255 167.845235 
L 559.530619 167.664324 
L 559.673628 167.582914 
L 560.149527 167.34773 
L 560.479277 166.723587 
L 560.940795 166.036125 
L 561.137745 165.809986 
L 561.391655 165.547665 
L 561.729639 165.3758 
L 561.862652 165.158706 
L 561.986449 164.96875 
L 562.069917 164.814975 
L 562.258948 164.48029 
L 562.346197 164.335561 
L 562.564995 163.937557 
L 562.741914 163.711418 
L 563.050624 163.340551 
L 563.359062 163.141549 
L 563.686063 162.454087 
L 563.983022 161.965627 
L 564.120944 161.793761 
L 564.274119 161.630942 
L 564.408154 161.495258 
L 565.103297 161.097254 
L 565.224382 161.015844 
L 565.342219 160.853024 
L 565.454719 160.690204 
L 565.85095 160.256018 
L 566.323384 159.930378 
L 566.703609 159.767558 
L 567.441924 158.844912 
L 567.569801 158.546409 
L 567.919665 158.374543 
L 568.299411 158.247906 
L 568.419971 158.130313 
L 568.729484 157.867992 
L 568.875915 157.705172 
L 569.006314 157.569489 
L 569.591628 156.963437 
L 570.120496 156.547342 
L 570.270347 156.339294 
L 570.450788 156.158383 
L 570.568231 155.977472 
L 570.718119 155.796561 
L 571.001782 155.425694 
L 571.955549 154.747277 
L 572.365447 154.313091 
L 572.620855 154.023633 
L 573.212167 153.661811 
L 573.348026 153.517082 
L 573.60601 153.164306 
L 573.741093 152.947213 
L 573.903375 152.793438 
L 575.092541 151.355196 
L 575.25763 151.092875 
L 575.375053 150.911964 
L 575.681712 150.51396 
L 575.829468 150.360185 
L 576.208636 150.152138 
L 576.285491 150.088819 
L 576.542736 149.953135 
L 576.726006 149.808407 
L 576.872051 149.645587 
L 577.050036 149.45563 
L 577.535352 148.677713 
L 577.740158 148.388255 
L 578.136454 148.189253 
L 578.461526 147.664611 
L 578.545364 147.510837 
L 579.305949 146.904785 
L 579.846334 146.687692 
L 579.9585 146.40728 
L 580.081921 146.208277 
L 580.248133 145.927865 
L 580.451304 145.584134 
L 580.734127 145.10472 
L 580.851107 144.914764 
L 581.240113 144.435349 
L 581.360431 144.362985 
L 581.768046 143.964981 
L 581.990573 143.485567 
L 582.065875 143.29561 
L 582.246425 142.924742 
L 582.498127 142.56292 
L 582.703136 142.382009 
L 582.885041 142.309645 
L 583.239994 142.173962 
L 583.486891 141.929732 
L 585.067691 140.880448 
L 585.181244 140.771901 
L 585.398348 140.545763 
L 585.539252 140.382943 
L 585.634141 140.310578 
L 586.452905 139.984938 
L 586.597021 139.749754 
L 586.77388 139.568843 
L 586.895512 139.451251 
L 587.242244 139.017065 
L 587.378252 138.881381 
L 587.559332 138.709516 
L 588.001702 138.555741 
L 588.244737 138.266284 
L 588.36645 138.112509 
L 588.937666 137.54264 
L 589.082645 137.397911 
L 589.355623 137.29841 
L 589.798488 137.072271 
L 590.087385 136.80995 
L 590.256015 136.692358 
L 590.445868 136.538584 
L 590.837676 136.212944 
L 591.410007 135.950623 
L 591.682292 135.661165 
L 591.988706 135.507391 
L 592.249449 135.281252 
L 592.774107 135.027977 
L 593.074588 134.865157 
L 593.305908 134.693291 
L 593.747282 134.557608 
L 594.365948 134.213877 
L 594.60558 134.069148 
L 594.935249 133.833964 
L 595.122328 133.625916 
L 595.238897 133.490233 
L 595.914887 132.648997 
L 596.317995 132.477131 
L 596.475013 132.314311 
L 597.006417 131.717305 
L 597.217971 131.54544 
L 597.322085 131.445938 
L 598.186705 130.930342 
L 598.65425 130.541383 
L 598.901737 130.360472 
L 599.281541 130.143379 
L 599.684848 129.962468 
L 600.175966 129.32928 
L 600.310964 129.238824 
L 600.430096 129.076004 
L 600.528886 128.994594 
L 601.347758 128.659909 
L 601.742202 128.298087 
L 601.896563 128.162404 
L 602.230266 127.836764 
L 602.416205 127.655853 
L 602.57965 127.601579 
L 602.963739 127.456851 
L 603.039201 127.284985 
L 603.22128 127.158347 
L 603.334819 127.004573 
L 603.632523 126.733207 
L 603.746773 126.479931 
L 605.062984 125.421602 
L 605.251634 125.240691 
L 605.381122 125.086916 
L 605.535678 124.924096 
L 605.765167 124.842686 
L 606.159485 124.688912 
L 607.473738 123.078804 
L 607.817652 122.934075 
L 608.183083 122.545116 
L 608.479196 122.246613 
L 608.587793 122.11093 
L 608.901943 121.685789 
L 609.495481 121.54106 
L 610.030584 121.007373 
L 610.110099 120.935008 
L 610.509396 120.781234 
L 611.514236 120.328957 
L 611.62381 120.193273 
L 611.989561 119.831451 
L 612.148103 119.677677 
L 612.336982 119.551039 
L 612.729723 119.40631 
L 612.833173 119.297764 
L 612.953208 119.044488 
L 613.371029 118.556029 
L 613.504727 118.4113 
L 613.6358 118.158024 
L 613.761267 118.00425 
L 613.853592 117.850476 
L 614.35333 117.705747 
L 615.150071 117.144923 
L 615.319757 116.900693 
L 615.433818 116.737873 
L 615.703146 116.556962 
L 616.11585 116.385096 
L 616.842058 115.688589 
L 616.951332 115.525769 
L 617.123128 115.362949 
L 617.230003 115.317721 
L 618.033917 114.97399 
L 618.137427 114.874489 
L 618.365561 114.693578 
L 618.547343 114.521713 
L 618.794921 114.322711 
L 619.153108 114.168936 
L 619.258073 114.114663 
L 619.465928 113.988025 
L 619.573711 113.861388 
L 619.897855 113.635249 
L 620.068404 113.445292 
L 620.368091 113.074425 
L 620.507453 112.956833 
L 621.024029 112.757831 
L 621.182671 112.604056 
L 621.326202 112.423145 
L 621.895843 111.907549 
L 622.248367 111.744729 
L 622.333184 111.68141 
L 622.636364 111.6 
L 622.636364 111.6 
" style="fill:none;stroke:#92c6ff;stroke-linecap:round;stroke-width:1.5;"/>
   </g>
   <g id="line2d_26">
    <defs>
     <path d="M 0 2.5 
C 0.663008 2.5 1.29895 2.236584 1.767767 1.767767 
C 2.236584 1.29895 2.5 0.663008 2.5 0 
C 2.5 -0.663008 2.236584 -1.29895 1.767767 -1.767767 
C 1.29895 -2.236584 0.663008 -2.5 0 -2.5 
C -0.663008 -2.5 -1.29895 -2.236584 -1.767767 -1.767767 
C -2.236584 -1.29895 -2.5 -0.663008 -2.5 0 
C -2.5 0.663008 -2.236584 1.29895 -1.767767 1.767767 
C -1.29895 2.236584 -0.663008 2.5 0 2.5 
z
" id="m36928850d1" style="stroke:#696969;"/>
    </defs>
    <g clip-path="url(#pf0a8105376)">
     <use style="fill:#696969;stroke:#696969;" x="115.363636" xlink:href="#m36928850d1" y="615.6"/>
    </g>
   </g>
   <g id="line2d_27">
    <g clip-path="url(#pf0a8105376)">
     <use style="fill:#696969;stroke:#696969;" x="197.52374" xlink:href="#m36928850d1" y="565.198191"/>
    </g>
   </g>
   <g id="line2d_28">
    <g clip-path="url(#pf0a8105376)">
     <use style="fill:#696969;stroke:#696969;" x="241.078628" xlink:href="#m36928850d1" y="514.796382"/>
    </g>
   </g>
   <g id="line2d_29">
    <g clip-path="url(#pf0a8105376)">
     <use style="fill:#696969;stroke:#696969;" x="290.680958" xlink:href="#m36928850d1" y="464.394573"/>
    </g>
   </g>
   <g id="line2d_30">
    <g clip-path="url(#pf0a8105376)">
     <use style="fill:#696969;stroke:#696969;" x="330.350717" xlink:href="#m36928850d1" y="413.992764"/>
    </g>
   </g>
   <g id="line2d_31">
    <g clip-path="url(#pf0a8105376)">
     <use style="fill:#696969;stroke:#696969;" x="374.14444" xlink:href="#m36928850d1" y="363.590954"/>
    </g>
   </g>
   <g id="line2d_32">
    <g clip-path="url(#pf0a8105376)">
     <use style="fill:#696969;stroke:#696969;" x="412.98746" xlink:href="#m36928850d1" y="313.189145"/>
    </g>
   </g>
   <g id="line2d_33">
    <g clip-path="url(#pf0a8105376)">
     <use style="fill:#696969;stroke:#696969;" x="460.67829" xlink:href="#m36928850d1" y="262.787336"/>
    </g>
   </g>
   <g id="line2d_34">
    <g clip-path="url(#pf0a8105376)">
     <use style="fill:#696969;stroke:#696969;" x="516.668753" xlink:href="#m36928850d1" y="212.385527"/>
    </g>
   </g>
   <g id="line2d_35">
    <g clip-path="url(#pf0a8105376)">
     <use style="fill:#696969;stroke:#696969;" x="563.975438" xlink:href="#m36928850d1" y="161.983718"/>
    </g>
   </g>
   <g id="line2d_36">
    <g clip-path="url(#pf0a8105376)">
     <use style="fill:#696969;stroke:#696969;" x="622.636364" xlink:href="#m36928850d1" y="111.6"/>
    </g>
   </g>
   <g id="patch_3">
    <path d="M 90 640.8 
L 90 86.4 
" style="fill:none;stroke:#cccccc;stroke-linecap:square;stroke-linejoin:miter;"/>
   </g>
   <g id="patch_4">
    <path d="M 648 640.8 
L 648 86.4 
" style="fill:none;stroke:#cccccc;stroke-linecap:square;stroke-linejoin:miter;"/>
   </g>
   <g id="patch_5">
    <path d="M 90 640.8 
L 648 640.8 
" style="fill:none;stroke:#cccccc;stroke-linecap:square;stroke-linejoin:miter;"/>
   </g>
   <g id="patch_6">
    <path d="M 90 86.4 
L 648 86.4 
" style="fill:none;stroke:#cccccc;stroke-linecap:square;stroke-linejoin:miter;"/>
   </g>
   <g id="text_13">
    <!-- 1 (2014-06-07) -->
    <defs>
     <path id="DejaVuSans-32"/>
     <path d="M 31 75.875 
Q 24.46875 64.65625 21.28125 53.65625 
Q 18.109375 42.671875 18.109375 31.390625 
Q 18.109375 20.125 21.3125 9.0625 
Q 24.515625 -2 31 -13.1875 
L 23.1875 -13.1875 
Q 15.875 -1.703125 12.234375 9.375 
Q 8.59375 20.453125 8.59375 31.390625 
Q 8.59375 42.28125 12.203125 53.3125 
Q 15.828125 64.359375 23.1875 75.875 
z
" id="DejaVuSans-40"/>
     <path d="M 4.890625 31.390625 
L 31.203125 31.390625 
L 31.203125 23.390625 
L 4.890625 23.390625 
z
" id="DejaVuSans-45"/>
     <path d="M 8.015625 75.875 
L 15.828125 75.875 
Q 23.140625 64.359375 26.78125 53.3125 
Q 30.421875 42.28125 30.421875 31.390625 
Q 30.421875 20.453125 26.78125 9.375 
Q 23.140625 -1.703125 15.828125 -13.1875 
L 8.015625 -13.1875 
Q 14.5 -2 17.703125 9.0625 
Q 20.90625 20.125 20.90625 31.390625 
Q 20.90625 42.671875 17.703125 53.65625 
Q 14.5 64.65625 8.015625 75.875 
z
" id="DejaVuSans-41"/>
    </defs>
    <g style="fill:#262626;" transform="translate(120.363636 623.198437)scale(0.1 -0.1)">
     <use xlink:href="#DejaVuSans-49"/>
     <use x="63.623047" xlink:href="#DejaVuSans-32"/>
     <use x="95.410156" xlink:href="#DejaVuSans-40"/>
     <use x="134.423828" xlink:href="#DejaVuSans-50"/>
     <use x="198.046875" xlink:href="#DejaVuSans-48"/>
     <use x="261.669922" xlink:href="#DejaVuSans-49"/>
     <use x="325.292969" xlink:href="#DejaVuSans-52"/>
     <use x="388.916016" xlink:href="#DejaVuSans-45"/>
     <use x="425" xlink:href="#DejaVuSans-48"/>
     <use x="488.623047" xlink:href="#DejaVuSans-54"/>
     <use x="552.246094" xlink:href="#DejaVuSans-45"/>
     <use x="588.330078" xlink:href="#DejaVuSans-48"/>
     <use x="651.953125" xlink:href="#DejaVuSans-55"/>
     <use x="715.576172" xlink:href="#DejaVuSans-41"/>
    </g>
   </g>
   <g id="text_14">
    <!-- 5573 (2015-05-22) -->
    <g style="fill:#262626;" transform="translate(202.52374 572.796628)scale(0.1 -0.1)">
     <use xlink:href="#DejaVuSans-53"/>
     <use x="63.623047" xlink:href="#DejaVuSans-53"/>
     <use x="127.246094" xlink:href="#DejaVuSans-55"/>
     <use x="190.869141" xlink:href="#DejaVuSans-51"/>
     <use x="254.492188" xlink:href="#DejaVuSans-32"/>
     <use x="286.279297" xlink:href="#DejaVuSans-40"/>
     <use x="325.292969" xlink:href="#DejaVuSans-50"/>
     <use x="388.916016" xlink:href="#DejaVuSans-48"/>
     <use x="452.539062" xlink:href="#DejaVuSans-49"/>
     <use x="516.162109" xlink:href="#DejaVuSans-53"/>
     <use x="579.785156" xlink:href="#DejaVuSans-45"/>
     <use x="615.869141" xlink:href="#DejaVuSans-48"/>
     <use x="679.492188" xlink:href="#DejaVuSans-53"/>
     <use x="743.115234" xlink:href="#DejaVuSans-45"/>
     <use x="779.199219" xlink:href="#DejaVuSans-50"/>
     <use x="842.822266" xlink:href="#DejaVuSans-50"/>
     <use x="906.445312" xlink:href="#DejaVuSans-41"/>
    </g>
   </g>
   <g id="text_15">
    <!-- 11145 (2015-11-23) -->
    <g style="fill:#262626;" transform="translate(246.078628 522.394819)scale(0.1 -0.1)">
     <use xlink:href="#DejaVuSans-49"/>
     <use x="63.623047" xlink:href="#DejaVuSans-49"/>
     <use x="127.246094" xlink:href="#DejaVuSans-49"/>
     <use x="190.869141" xlink:href="#DejaVuSans-52"/>
     <use x="254.492188" xlink:href="#DejaVuSans-53"/>
     <use x="318.115234" xlink:href="#DejaVuSans-32"/>
     <use x="349.902344" xlink:href="#DejaVuSans-40"/>
     <use x="388.916016" xlink:href="#DejaVuSans-50"/>
     <use x="452.539062" xlink:href="#DejaVuSans-48"/>
     <use x="516.162109" xlink:href="#DejaVuSans-49"/>
     <use x="579.785156" xlink:href="#DejaVuSans-53"/>
     <use x="643.408203" xlink:href="#DejaVuSans-45"/>
     <use x="679.492188" xlink:href="#DejaVuSans-49"/>
     <use x="743.115234" xlink:href="#DejaVuSans-49"/>
     <use x="806.738281" xlink:href="#DejaVuSans-45"/>
     <use x="842.822266" xlink:href="#DejaVuSans-50"/>
     <use x="906.445312" xlink:href="#DejaVuSans-51"/>
     <use x="970.068359" xlink:href="#DejaVuSans-41"/>
    </g>
   </g>
   <g id="text_16">
    <!-- 16717 (2016-06-22) -->
    <g style="fill:#262626;" transform="translate(295.680958 471.99301)scale(0.1 -0.1)">
     <use xlink:href="#DejaVuSans-49"/>
     <use x="63.623047" xlink:href="#DejaVuSans-54"/>
     <use x="127.246094" xlink:href="#DejaVuSans-55"/>
     <use x="190.869141" xlink:href="#DejaVuSans-49"/>
     <use x="254.492188" xlink:href="#DejaVuSans-55"/>
     <use x="318.115234" xlink:href="#DejaVuSans-32"/>
     <use x="349.902344" xlink:href="#DejaVuSans-40"/>
     <use x="388.916016" xlink:href="#DejaVuSans-50"/>
     <use x="452.539062" xlink:href="#DejaVuSans-48"/>
     <use x="516.162109" xlink:href="#DejaVuSans-49"/>
     <use x="579.785156" xlink:href="#DejaVuSans-54"/>
     <use x="643.408203" xlink:href="#DejaVuSans-45"/>
     <use x="679.492188" xlink:href="#DejaVuSans-48"/>
     <use x="743.115234" xlink:href="#DejaVuSans-54"/>
     <use x="806.738281" xlink:href="#DejaVuSans-45"/>
     <use x="842.822266" xlink:href="#DejaVuSans-50"/>
     <use x="906.445312" xlink:href="#DejaVuSans-50"/>
     <use x="970.068359" xlink:href="#DejaVuSans-41"/>
    </g>
   </g>
   <g id="text_17">
    <!-- 22289 (2016-12-07) -->
    <g style="fill:#262626;" transform="translate(335.350717 421.591201)scale(0.1 -0.1)">
     <use xlink:href="#DejaVuSans-50"/>
     <use x="63.623047" xlink:href="#DejaVuSans-50"/>
     <use x="127.246094" xlink:href="#DejaVuSans-50"/>
     <use x="190.869141" xlink:href="#DejaVuSans-56"/>
     <use x="254.492188" xlink:href="#DejaVuSans-57"/>
     <use x="318.115234" xlink:href="#DejaVuSans-32"/>
     <use x="349.902344" xlink:href="#DejaVuSans-40"/>
     <use x="388.916016" xlink:href="#DejaVuSans-50"/>
     <use x="452.539062" xlink:href="#DejaVuSans-48"/>
     <use x="516.162109" xlink:href="#DejaVuSans-49"/>
     <use x="579.785156" xlink:href="#DejaVuSans-54"/>
     <use x="643.408203" xlink:href="#DejaVuSans-45"/>
     <use x="679.492188" xlink:href="#DejaVuSans-49"/>
     <use x="743.115234" xlink:href="#DejaVuSans-50"/>
     <use x="806.738281" xlink:href="#DejaVuSans-45"/>
     <use x="842.822266" xlink:href="#DejaVuSans-48"/>
     <use x="906.445312" xlink:href="#DejaVuSans-55"/>
     <use x="970.068359" xlink:href="#DejaVuSans-41"/>
    </g>
   </g>
   <g id="text_18">
    <!-- 27861 (2017-06-12) -->
    <g style="fill:#262626;" transform="translate(379.14444 371.189392)scale(0.1 -0.1)">
     <use xlink:href="#DejaVuSans-50"/>
     <use x="63.623047" xlink:href="#DejaVuSans-55"/>
     <use x="127.246094" xlink:href="#DejaVuSans-56"/>
     <use x="190.869141" xlink:href="#DejaVuSans-54"/>
     <use x="254.492188" xlink:href="#DejaVuSans-49"/>
     <use x="318.115234" xlink:href="#DejaVuSans-32"/>
     <use x="349.902344" xlink:href="#DejaVuSans-40"/>
     <use x="388.916016" xlink:href="#DejaVuSans-50"/>
     <use x="452.539062" xlink:href="#DejaVuSans-48"/>
     <use x="516.162109" xlink:href="#DejaVuSans-49"/>
     <use x="579.785156" xlink:href="#DejaVuSans-55"/>
     <use x="643.408203" xlink:href="#DejaVuSans-45"/>
     <use x="679.492188" xlink:href="#DejaVuSans-48"/>
     <use x="743.115234" xlink:href="#DejaVuSans-54"/>
     <use x="806.738281" xlink:href="#DejaVuSans-45"/>
     <use x="842.822266" xlink:href="#DejaVuSans-49"/>
     <use x="906.445312" xlink:href="#DejaVuSans-50"/>
     <use x="970.068359" xlink:href="#DejaVuSans-41"/>
    </g>
   </g>
   <g id="text_19">
    <!-- 33433 (2017-11-24) -->
    <g style="fill:#262626;" transform="translate(417.98746 320.787583)scale(0.1 -0.1)">
     <use xlink:href="#DejaVuSans-51"/>
     <use x="63.623047" xlink:href="#DejaVuSans-51"/>
     <use x="127.246094" xlink:href="#DejaVuSans-52"/>
     <use x="190.869141" xlink:href="#DejaVuSans-51"/>
     <use x="254.492188" xlink:href="#DejaVuSans-51"/>
     <use x="318.115234" xlink:href="#DejaVuSans-32"/>
     <use x="349.902344" xlink:href="#DejaVuSans-40"/>
     <use x="388.916016" xlink:href="#DejaVuSans-50"/>
     <use x="452.539062" xlink:href="#DejaVuSans-48"/>
     <use x="516.162109" xlink:href="#DejaVuSans-49"/>
     <use x="579.785156" xlink:href="#DejaVuSans-55"/>
     <use x="643.408203" xlink:href="#DejaVuSans-45"/>
     <use x="679.492188" xlink:href="#DejaVuSans-49"/>
     <use x="743.115234" xlink:href="#DejaVuSans-49"/>
     <use x="806.738281" xlink:href="#DejaVuSans-45"/>
     <use x="842.822266" xlink:href="#DejaVuSans-50"/>
     <use x="906.445312" xlink:href="#DejaVuSans-52"/>
     <use x="970.068359" xlink:href="#DejaVuSans-41"/>
    </g>
   </g>
   <g id="text_20">
    <!-- 39005 (2018-06-15) -->
    <g style="fill:#262626;" transform="translate(465.67829 270.385774)scale(0.1 -0.1)">
     <use xlink:href="#DejaVuSans-51"/>
     <use x="63.623047" xlink:href="#DejaVuSans-57"/>
     <use x="127.246094" xlink:href="#DejaVuSans-48"/>
     <use x="190.869141" xlink:href="#DejaVuSans-48"/>
     <use x="254.492188" xlink:href="#DejaVuSans-53"/>
     <use x="318.115234" xlink:href="#DejaVuSans-32"/>
     <use x="349.902344" xlink:href="#DejaVuSans-40"/>
     <use x="388.916016" xlink:href="#DejaVuSans-50"/>
     <use x="452.539062" xlink:href="#DejaVuSans-48"/>
     <use x="516.162109" xlink:href="#DejaVuSans-49"/>
     <use x="579.785156" xlink:href="#DejaVuSans-56"/>
     <use x="643.408203" xlink:href="#DejaVuSans-45"/>
     <use x="679.492188" xlink:href="#DejaVuSans-48"/>
     <use x="743.115234" xlink:href="#DejaVuSans-54"/>
     <use x="806.738281" xlink:href="#DejaVuSans-45"/>
     <use x="842.822266" xlink:href="#DejaVuSans-49"/>
     <use x="906.445312" xlink:href="#DejaVuSans-53"/>
     <use x="970.068359" xlink:href="#DejaVuSans-41"/>
    </g>
   </g>
   <g id="text_21">
    <!-- 44577 (2019-02-08) -->
    <g style="fill:#262626;" transform="translate(521.668753 219.983965)scale(0.1 -0.1)">
     <use xlink:href="#DejaVuSans-52"/>
     <use x="63.623047" xlink:href="#DejaVuSans-52"/>
     <use x="127.246094" xlink:href="#DejaVuSans-53"/>
     <use x="190.869141" xlink:href="#DejaVuSans-55"/>
     <use x="254.492188" xlink:href="#DejaVuSans-55"/>
     <use x="318.115234" xlink:href="#DejaVuSans-32"/>
     <use x="349.902344" xlink:href="#DejaVuSans-40"/>
     <use x="388.916016" xlink:href="#DejaVuSans-50"/>
     <use x="452.539062" xlink:href="#DejaVuSans-48"/>
     <use x="516.162109" xlink:href="#DejaVuSans-49"/>
     <use x="579.785156" xlink:href="#DejaVuSans-57"/>
     <use x="643.408203" xlink:href="#DejaVuSans-45"/>
     <use x="679.492188" xlink:href="#DejaVuSans-48"/>
     <use x="743.115234" xlink:href="#DejaVuSans-50"/>
     <use x="806.738281" xlink:href="#DejaVuSans-45"/>
     <use x="842.822266" xlink:href="#DejaVuSans-48"/>
     <use x="906.445312" xlink:href="#DejaVuSans-56"/>
     <use x="970.068359" xlink:href="#DejaVuSans-41"/>
    </g>
   </g>
   <g id="text_22">
    <!-- 50149 (2019-08-28) -->
    <g style="fill:#262626;" transform="translate(568.975438 169.582156)scale(0.1 -0.1)">
     <use xlink:href="#DejaVuSans-53"/>
     <use x="63.623047" xlink:href="#DejaVuSans-48"/>
     <use x="127.246094" xlink:href="#DejaVuSans-49"/>
     <use x="190.869141" xlink:href="#DejaVuSans-52"/>
     <use x="254.492188" xlink:href="#DejaVuSans-57"/>
     <use x="318.115234" xlink:href="#DejaVuSans-32"/>
     <use x="349.902344" xlink:href="#DejaVuSans-40"/>
     <use x="388.916016" xlink:href="#DejaVuSans-50"/>
     <use x="452.539062" xlink:href="#DejaVuSans-48"/>
     <use x="516.162109" xlink:href="#DejaVuSans-49"/>
     <use x="579.785156" xlink:href="#DejaVuSans-57"/>
     <use x="643.408203" xlink:href="#DejaVuSans-45"/>
     <use x="679.492188" xlink:href="#DejaVuSans-48"/>
     <use x="743.115234" xlink:href="#DejaVuSans-56"/>
     <use x="806.738281" xlink:href="#DejaVuSans-45"/>
     <use x="842.822266" xlink:href="#DejaVuSans-50"/>
     <use x="906.445312" xlink:href="#DejaVuSans-56"/>
     <use x="970.068359" xlink:href="#DejaVuSans-41"/>
    </g>
   </g>
   <g id="text_23">
    <!-- 55719 (2020-05-04) -->
    <g style="fill:#262626;" transform="translate(627.636364 119.198438)scale(0.1 -0.1)">
     <use xlink:href="#DejaVuSans-53"/>
     <use x="63.623047" xlink:href="#DejaVuSans-53"/>
     <use x="127.246094" xlink:href="#DejaVuSans-55"/>
     <use x="190.869141" xlink:href="#DejaVuSans-49"/>
     <use x="254.492188" xlink:href="#DejaVuSans-57"/>
     <use x="318.115234" xlink:href="#DejaVuSans-32"/>
     <use x="349.902344" xlink:href="#DejaVuSans-40"/>
     <use x="388.916016" xlink:href="#DejaVuSans-50"/>
     <use x="452.539062" xlink:href="#DejaVuSans-48"/>
     <use x="516.162109" xlink:href="#DejaVuSans-50"/>
     <use x="579.785156" xlink:href="#DejaVuSans-48"/>
     <use x="643.408203" xlink:href="#DejaVuSans-45"/>
     <use x="679.492188" xlink:href="#DejaVuSans-48"/>
     <use x="743.115234" xlink:href="#DejaVuSans-53"/>
     <use x="806.738281" xlink:href="#DejaVuSans-45"/>
     <use x="842.822266" xlink:href="#DejaVuSans-48"/>
     <use x="906.445312" xlink:href="#DejaVuSans-52"/>
     <use x="970.068359" xlink:href="#DejaVuSans-41"/>
    </g>
   </g>
   <g id="text_24">
    <!-- Created PRs over time -->
    <defs>
     <path d="M 64.40625 67.28125 
L 64.40625 56.890625 
Q 59.421875 61.53125 53.78125 63.8125 
Q 48.140625 66.109375 41.796875 66.109375 
Q 29.296875 66.109375 22.65625 58.46875 
Q 16.015625 50.828125 16.015625 36.375 
Q 16.015625 21.96875 22.65625 14.328125 
Q 29.296875 6.6875 41.796875 6.6875 
Q 48.140625 6.6875 53.78125 8.984375 
Q 59.421875 11.28125 64.40625 15.921875 
L 64.40625 5.609375 
Q 59.234375 2.09375 53.4375 0.328125 
Q 47.65625 -1.421875 41.21875 -1.421875 
Q 24.65625 -1.421875 15.125 8.703125 
Q 5.609375 18.84375 5.609375 36.375 
Q 5.609375 53.953125 15.125 64.078125 
Q 24.65625 74.21875 41.21875 74.21875 
Q 47.75 74.21875 53.53125 72.484375 
Q 59.328125 70.75 64.40625 67.28125 
z
" id="DejaVuSans-67"/>
     <path d="M 41.109375 46.296875 
Q 39.59375 47.171875 37.8125 47.578125 
Q 36.03125 48 33.890625 48 
Q 26.265625 48 22.1875 43.046875 
Q 18.109375 38.09375 18.109375 28.8125 
L 18.109375 0 
L 9.078125 0 
L 9.078125 54.6875 
L 18.109375 54.6875 
L 18.109375 46.1875 
Q 20.953125 51.171875 25.484375 53.578125 
Q 30.03125 56 36.53125 56 
Q 37.453125 56 38.578125 55.875 
Q 39.703125 55.765625 41.0625 55.515625 
z
" id="DejaVuSans-114"/>
     <path d="M 56.203125 29.59375 
L 56.203125 25.203125 
L 14.890625 25.203125 
Q 15.484375 15.921875 20.484375 11.0625 
Q 25.484375 6.203125 34.421875 6.203125 
Q 39.59375 6.203125 44.453125 7.46875 
Q 49.3125 8.734375 54.109375 11.28125 
L 54.109375 2.78125 
Q 49.265625 0.734375 44.1875 -0.34375 
Q 39.109375 -1.421875 33.890625 -1.421875 
Q 20.796875 -1.421875 13.15625 6.1875 
Q 5.515625 13.8125 5.515625 26.8125 
Q 5.515625 40.234375 12.765625 48.109375 
Q 20.015625 56 32.328125 56 
Q 43.359375 56 49.78125 48.890625 
Q 56.203125 41.796875 56.203125 29.59375 
z
M 47.21875 32.234375 
Q 47.125 39.59375 43.09375 43.984375 
Q 39.0625 48.390625 32.421875 48.390625 
Q 24.90625 48.390625 20.390625 44.140625 
Q 15.875 39.890625 15.1875 32.171875 
z
" id="DejaVuSans-101"/>
     <path d="M 34.28125 27.484375 
Q 23.390625 27.484375 19.1875 25 
Q 14.984375 22.515625 14.984375 16.5 
Q 14.984375 11.71875 18.140625 8.90625 
Q 21.296875 6.109375 26.703125 6.109375 
Q 34.1875 6.109375 38.703125 11.40625 
Q 43.21875 16.703125 43.21875 25.484375 
L 43.21875 27.484375 
z
M 52.203125 31.203125 
L 52.203125 0 
L 43.21875 0 
L 43.21875 8.296875 
Q 40.140625 3.328125 35.546875 0.953125 
Q 30.953125 -1.421875 24.3125 -1.421875 
Q 15.921875 -1.421875 10.953125 3.296875 
Q 6 8.015625 6 15.921875 
Q 6 25.140625 12.171875 29.828125 
Q 18.359375 34.515625 30.609375 34.515625 
L 43.21875 34.515625 
L 43.21875 35.40625 
Q 43.21875 41.609375 39.140625 45 
Q 35.0625 48.390625 27.6875 48.390625 
Q 23 48.390625 18.546875 47.265625 
Q 14.109375 46.140625 10.015625 43.890625 
L 10.015625 52.203125 
Q 14.9375 54.109375 19.578125 55.046875 
Q 24.21875 56 28.609375 56 
Q 40.484375 56 46.34375 49.84375 
Q 52.203125 43.703125 52.203125 31.203125 
z
" id="DejaVuSans-97"/>
     <path d="M 18.3125 70.21875 
L 18.3125 54.6875 
L 36.8125 54.6875 
L 36.8125 47.703125 
L 18.3125 47.703125 
L 18.3125 18.015625 
Q 18.3125 11.328125 20.140625 9.421875 
Q 21.96875 7.515625 27.59375 7.515625 
L 36.8125 7.515625 
L 36.8125 0 
L 27.59375 0 
Q 17.1875 0 13.234375 3.875 
Q 9.28125 7.765625 9.28125 18.015625 
L 9.28125 47.703125 
L 2.6875 47.703125 
L 2.6875 54.6875 
L 9.28125 54.6875 
L 9.28125 70.21875 
z
" id="DejaVuSans-116"/>
     <path d="M 45.40625 46.390625 
L 45.40625 75.984375 
L 54.390625 75.984375 
L 54.390625 0 
L 45.40625 0 
L 45.40625 8.203125 
Q 42.578125 3.328125 38.25 0.953125 
Q 33.9375 -1.421875 27.875 -1.421875 
Q 17.96875 -1.421875 11.734375 6.484375 
Q 5.515625 14.40625 5.515625 27.296875 
Q 5.515625 40.1875 11.734375 48.09375 
Q 17.96875 56 27.875 56 
Q 33.9375 56 38.25 53.625 
Q 42.578125 51.265625 45.40625 46.390625 
z
M 14.796875 27.296875 
Q 14.796875 17.390625 18.875 11.75 
Q 22.953125 6.109375 30.078125 6.109375 
Q 37.203125 6.109375 41.296875 11.75 
Q 45.40625 17.390625 45.40625 27.296875 
Q 45.40625 37.203125 41.296875 42.84375 
Q 37.203125 48.484375 30.078125 48.484375 
Q 22.953125 48.484375 18.875 42.84375 
Q 14.796875 37.203125 14.796875 27.296875 
z
" id="DejaVuSans-100"/>
     <path d="M 19.671875 64.796875 
L 19.671875 37.40625 
L 32.078125 37.40625 
Q 38.96875 37.40625 42.71875 40.96875 
Q 46.484375 44.53125 46.484375 51.125 
Q 46.484375 57.671875 42.71875 61.234375 
Q 38.96875 64.796875 32.078125 64.796875 
z
M 9.8125 72.90625 
L 32.078125 72.90625 
Q 44.34375 72.90625 50.609375 67.359375 
Q 56.890625 61.8125 56.890625 51.125 
Q 56.890625 40.328125 50.609375 34.8125 
Q 44.34375 29.296875 32.078125 29.296875 
L 19.671875 29.296875 
L 19.671875 0 
L 9.8125 0 
z
" id="DejaVuSans-80"/>
     <path d="M 44.390625 34.1875 
Q 47.5625 33.109375 50.5625 29.59375 
Q 53.5625 26.078125 56.59375 19.921875 
L 66.609375 0 
L 56 0 
L 46.6875 18.703125 
Q 43.0625 26.03125 39.671875 28.421875 
Q 36.28125 30.8125 30.421875 30.8125 
L 19.671875 30.8125 
L 19.671875 0 
L 9.8125 0 
L 9.8125 72.90625 
L 32.078125 72.90625 
Q 44.578125 72.90625 50.734375 67.671875 
Q 56.890625 62.453125 56.890625 51.90625 
Q 56.890625 45.015625 53.6875 40.46875 
Q 50.484375 35.9375 44.390625 34.1875 
z
M 19.671875 64.796875 
L 19.671875 38.921875 
L 32.078125 38.921875 
Q 39.203125 38.921875 42.84375 42.21875 
Q 46.484375 45.515625 46.484375 51.90625 
Q 46.484375 58.296875 42.84375 61.546875 
Q 39.203125 64.796875 32.078125 64.796875 
z
" id="DejaVuSans-82"/>
     <path d="M 44.28125 53.078125 
L 44.28125 44.578125 
Q 40.484375 46.53125 36.375 47.5 
Q 32.28125 48.484375 27.875 48.484375 
Q 21.1875 48.484375 17.84375 46.4375 
Q 14.5 44.390625 14.5 40.28125 
Q 14.5 37.15625 16.890625 35.375 
Q 19.28125 33.59375 26.515625 31.984375 
L 29.59375 31.296875 
Q 39.15625 29.25 43.1875 25.515625 
Q 47.21875 21.78125 47.21875 15.09375 
Q 47.21875 7.46875 41.1875 3.015625 
Q 35.15625 -1.421875 24.609375 -1.421875 
Q 20.21875 -1.421875 15.453125 -0.5625 
Q 10.6875 0.296875 5.421875 2 
L 5.421875 11.28125 
Q 10.40625 8.6875 15.234375 7.390625 
Q 20.0625 6.109375 24.8125 6.109375 
Q 31.15625 6.109375 34.5625 8.28125 
Q 37.984375 10.453125 37.984375 14.40625 
Q 37.984375 18.0625 35.515625 20.015625 
Q 33.0625 21.96875 24.703125 23.78125 
L 21.578125 24.515625 
Q 13.234375 26.265625 9.515625 29.90625 
Q 5.8125 33.546875 5.8125 39.890625 
Q 5.8125 47.609375 11.28125 51.796875 
Q 16.75 56 26.8125 56 
Q 31.78125 56 36.171875 55.265625 
Q 40.578125 54.546875 44.28125 53.078125 
z
" id="DejaVuSans-115"/>
     <path d="M 30.609375 48.390625 
Q 23.390625 48.390625 19.1875 42.75 
Q 14.984375 37.109375 14.984375 27.296875 
Q 14.984375 17.484375 19.15625 11.84375 
Q 23.34375 6.203125 30.609375 6.203125 
Q 37.796875 6.203125 41.984375 11.859375 
Q 46.1875 17.53125 46.1875 27.296875 
Q 46.1875 37.015625 41.984375 42.703125 
Q 37.796875 48.390625 30.609375 48.390625 
z
M 30.609375 56 
Q 42.328125 56 49.015625 48.375 
Q 55.71875 40.765625 55.71875 27.296875 
Q 55.71875 13.875 49.015625 6.21875 
Q 42.328125 -1.421875 30.609375 -1.421875 
Q 18.84375 -1.421875 12.171875 6.21875 
Q 5.515625 13.875 5.515625 27.296875 
Q 5.515625 40.765625 12.171875 48.375 
Q 18.84375 56 30.609375 56 
z
" id="DejaVuSans-111"/>
     <path d="M 2.984375 54.6875 
L 12.5 54.6875 
L 29.59375 8.796875 
L 46.6875 54.6875 
L 56.203125 54.6875 
L 35.6875 0 
L 23.484375 0 
z
" id="DejaVuSans-118"/>
     <path d="M 9.421875 54.6875 
L 18.40625 54.6875 
L 18.40625 0 
L 9.421875 0 
z
M 9.421875 75.984375 
L 18.40625 75.984375 
L 18.40625 64.59375 
L 9.421875 64.59375 
z
" id="DejaVuSans-105"/>
     <path d="M 52 44.1875 
Q 55.375 50.25 60.0625 53.125 
Q 64.75 56 71.09375 56 
Q 79.640625 56 84.28125 50.015625 
Q 88.921875 44.046875 88.921875 33.015625 
L 88.921875 0 
L 79.890625 0 
L 79.890625 32.71875 
Q 79.890625 40.578125 77.09375 44.375 
Q 74.3125 48.1875 68.609375 48.1875 
Q 61.625 48.1875 57.5625 43.546875 
Q 53.515625 38.921875 53.515625 30.90625 
L 53.515625 0 
L 44.484375 0 
L 44.484375 32.71875 
Q 44.484375 40.625 41.703125 44.40625 
Q 38.921875 48.1875 33.109375 48.1875 
Q 26.21875 48.1875 22.15625 43.53125 
Q 18.109375 38.875 18.109375 30.90625 
L 18.109375 0 
L 9.078125 0 
L 9.078125 54.6875 
L 18.109375 54.6875 
L 18.109375 46.1875 
Q 21.1875 51.21875 25.484375 53.609375 
Q 29.78125 56 35.6875 56 
Q 41.65625 56 45.828125 52.96875 
Q 50 49.953125 52 44.1875 
z
" id="DejaVuSans-109"/>
    </defs>
    <g style="fill:#262626;" transform="translate(301.6875 80.4)scale(0.12 -0.12)">
     <use xlink:href="#DejaVuSans-67"/>
     <use x="69.824219" xlink:href="#DejaVuSans-114"/>
     <use x="108.6875" xlink:href="#DejaVuSans-101"/>
     <use x="170.210938" xlink:href="#DejaVuSans-97"/>
     <use x="231.490234" xlink:href="#DejaVuSans-116"/>
     <use x="270.699219" xlink:href="#DejaVuSans-101"/>
     <use x="332.222656" xlink:href="#DejaVuSans-100"/>
     <use x="395.699219" xlink:href="#DejaVuSans-32"/>
     <use x="427.486328" xlink:href="#DejaVuSans-80"/>
     <use x="487.789062" xlink:href="#DejaVuSans-82"/>
     <use x="557.271484" xlink:href="#DejaVuSans-115"/>
     <use x="609.371094" xlink:href="#DejaVuSans-32"/>
     <use x="641.158203" xlink:href="#DejaVuSans-111"/>
     <use x="702.339844" xlink:href="#DejaVuSans-118"/>
     <use x="761.519531" xlink:href="#DejaVuSans-101"/>
     <use x="823.042969" xlink:href="#DejaVuSans-114"/>
     <use x="864.15625" xlink:href="#DejaVuSans-32"/>
     <use x="895.943359" xlink:href="#DejaVuSans-116"/>
     <use x="935.152344" xlink:href="#DejaVuSans-105"/>
     <use x="962.935547" xlink:href="#DejaVuSans-109"/>
     <use x="1060.347656" xlink:href="#DejaVuSans-101"/>
    </g>
   </g>
  </g>
 </g>
 <defs>
  <clipPath id="pf0a8105376">
   <rect height="554.4" width="558" x="90" y="86.4"/>
  </clipPath>
 </defs>
</svg>
