<?xml version="1.0" encoding="utf-8" standalone="no"?>
<!DOCTYPE svg PUBLIC "-//W3C//DTD SVG 1.1//EN"
  "http://www.w3.org/Graphics/SVG/1.1/DTD/svg11.dtd">
<!-- Created with matplotlib (https://matplotlib.org/) -->
<svg height="720pt" version="1.1" viewBox="0 0 720 720" width="720pt" xmlns="http://www.w3.org/2000/svg" xmlns:xlink="http://www.w3.org/1999/xlink">
 <defs>
  <style type="text/css">
*{stroke-linecap:butt;stroke-linejoin:round;}
  </style>
 </defs>
 <g id="figure_1">
  <g id="patch_1">
   <path d="M 0 720 
L 720 720 
L 720 0 
L 0 0 
z
" style="fill:#ffffff;"/>
  </g>
  <g id="axes_1">
   <g id="patch_2">
    <path d="M 90 640.8 
L 648 640.8 
L 648 86.4 
L 90 86.4 
z
" style="fill:#ffffff;"/>
   </g>
   <g id="matplotlib.axis_1">
    <g id="xtick_1">
     <g id="line2d_1">
      <path clip-path="url(#p267855af8c)" d="M 162.776753 640.8 
L 162.776753 86.4 
" style="fill:none;stroke:#cccccc;stroke-linecap:round;stroke-width:0.8;"/>
     </g>
     <g id="line2d_2"/>
     <g id="text_1">
      <!-- 2015 -->
      <defs>
       <path d="M 19.1875 8.296875 
L 53.609375 8.296875 
L 53.609375 0 
L 7.328125 0 
L 7.328125 8.296875 
Q 12.9375 14.109375 22.625 23.890625 
Q 32.328125 33.6875 34.8125 36.53125 
Q 39.546875 41.84375 41.421875 45.53125 
Q 43.3125 49.21875 43.3125 52.78125 
Q 43.3125 58.59375 39.234375 62.25 
Q 35.15625 65.921875 28.609375 65.921875 
Q 23.96875 65.921875 18.8125 64.3125 
Q 13.671875 62.703125 7.8125 59.421875 
L 7.8125 69.390625 
Q 13.765625 71.78125 18.9375 73 
Q 24.125 74.21875 28.421875 74.21875 
Q 39.75 74.21875 46.484375 68.546875 
Q 53.21875 62.890625 53.21875 53.421875 
Q 53.21875 48.921875 51.53125 44.890625 
Q 49.859375 40.875 45.40625 35.40625 
Q 44.1875 33.984375 37.640625 27.21875 
Q 31.109375 20.453125 19.1875 8.296875 
z
" id="DejaVuSans-50"/>
       <path d="M 31.78125 66.40625 
Q 24.171875 66.40625 20.328125 58.90625 
Q 16.5 51.421875 16.5 36.375 
Q 16.5 21.390625 20.328125 13.890625 
Q 24.171875 6.390625 31.78125 6.390625 
Q 39.453125 6.390625 43.28125 13.890625 
Q 47.125 21.390625 47.125 36.375 
Q 47.125 51.421875 43.28125 58.90625 
Q 39.453125 66.40625 31.78125 66.40625 
z
M 31.78125 74.21875 
Q 44.046875 74.21875 50.515625 64.515625 
Q 56.984375 54.828125 56.984375 36.375 
Q 56.984375 17.96875 50.515625 8.265625 
Q 44.046875 -1.421875 31.78125 -1.421875 
Q 19.53125 -1.421875 13.0625 8.265625 
Q 6.59375 17.96875 6.59375 36.375 
Q 6.59375 54.828125 13.0625 64.515625 
Q 19.53125 74.21875 31.78125 74.21875 
z
" id="DejaVuSans-48"/>
       <path d="M 12.40625 8.296875 
L 28.515625 8.296875 
L 28.515625 63.921875 
L 10.984375 60.40625 
L 10.984375 69.390625 
L 28.421875 72.90625 
L 38.28125 72.90625 
L 38.28125 8.296875 
L 54.390625 8.296875 
L 54.390625 0 
L 12.40625 0 
z
" id="DejaVuSans-49"/>
       <path d="M 10.796875 72.90625 
L 49.515625 72.90625 
L 49.515625 64.59375 
L 19.828125 64.59375 
L 19.828125 46.734375 
Q 21.96875 47.46875 24.109375 47.828125 
Q 26.265625 48.1875 28.421875 48.1875 
Q 40.625 48.1875 47.75 41.5 
Q 54.890625 34.8125 54.890625 23.390625 
Q 54.890625 11.625 47.5625 5.09375 
Q 40.234375 -1.421875 26.90625 -1.421875 
Q 22.3125 -1.421875 17.546875 -0.640625 
Q 12.796875 0.140625 7.71875 1.703125 
L 7.71875 11.625 
Q 12.109375 9.234375 16.796875 8.0625 
Q 21.484375 6.890625 26.703125 6.890625 
Q 35.15625 6.890625 40.078125 11.328125 
Q 45.015625 15.765625 45.015625 23.390625 
Q 45.015625 31 40.078125 35.4375 
Q 35.15625 39.890625 26.703125 39.890625 
Q 22.75 39.890625 18.8125 39.015625 
Q 14.890625 38.140625 10.796875 36.28125 
z
" id="DejaVuSans-53"/>
      </defs>
      <g style="fill:#262626;" transform="translate(150.051753 651.898438)scale(0.1 -0.1)">
       <use xlink:href="#DejaVuSans-50"/>
       <use x="63.623047" xlink:href="#DejaVuSans-48"/>
       <use x="127.246094" xlink:href="#DejaVuSans-49"/>
       <use x="190.869141" xlink:href="#DejaVuSans-53"/>
      </g>
     </g>
    </g>
    <g id="xtick_2">
     <g id="line2d_3">
      <path clip-path="url(#p267855af8c)" d="M 245.975663 640.8 
L 245.975663 86.4 
" style="fill:none;stroke:#cccccc;stroke-linecap:round;stroke-width:0.8;"/>
     </g>
     <g id="line2d_4"/>
     <g id="text_2">
      <!-- 2016 -->
      <defs>
       <path d="M 33.015625 40.375 
Q 26.375 40.375 22.484375 35.828125 
Q 18.609375 31.296875 18.609375 23.390625 
Q 18.609375 15.53125 22.484375 10.953125 
Q 26.375 6.390625 33.015625 6.390625 
Q 39.65625 6.390625 43.53125 10.953125 
Q 47.40625 15.53125 47.40625 23.390625 
Q 47.40625 31.296875 43.53125 35.828125 
Q 39.65625 40.375 33.015625 40.375 
z
M 52.59375 71.296875 
L 52.59375 62.3125 
Q 48.875 64.0625 45.09375 64.984375 
Q 41.3125 65.921875 37.59375 65.921875 
Q 27.828125 65.921875 22.671875 59.328125 
Q 17.53125 52.734375 16.796875 39.40625 
Q 19.671875 43.65625 24.015625 45.921875 
Q 28.375 48.1875 33.59375 48.1875 
Q 44.578125 48.1875 50.953125 41.515625 
Q 57.328125 34.859375 57.328125 23.390625 
Q 57.328125 12.15625 50.6875 5.359375 
Q 44.046875 -1.421875 33.015625 -1.421875 
Q 20.359375 -1.421875 13.671875 8.265625 
Q 6.984375 17.96875 6.984375 36.375 
Q 6.984375 53.65625 15.1875 63.9375 
Q 23.390625 74.21875 37.203125 74.21875 
Q 40.921875 74.21875 44.703125 73.484375 
Q 48.484375 72.75 52.59375 71.296875 
z
" id="DejaVuSans-54"/>
      </defs>
      <g style="fill:#262626;" transform="translate(233.250663 651.898438)scale(0.1 -0.1)">
       <use xlink:href="#DejaVuSans-50"/>
       <use x="63.623047" xlink:href="#DejaVuSans-48"/>
       <use x="127.246094" xlink:href="#DejaVuSans-49"/>
       <use x="190.869141" xlink:href="#DejaVuSans-54"/>
      </g>
     </g>
    </g>
    <g id="xtick_3">
     <g id="line2d_5">
      <path clip-path="url(#p267855af8c)" d="M 329.402514 640.8 
L 329.402514 86.4 
" style="fill:none;stroke:#cccccc;stroke-linecap:round;stroke-width:0.8;"/>
     </g>
     <g id="line2d_6"/>
     <g id="text_3">
      <!-- 2017 -->
      <defs>
       <path d="M 8.203125 72.90625 
L 55.078125 72.90625 
L 55.078125 68.703125 
L 28.609375 0 
L 18.3125 0 
L 43.21875 64.59375 
L 8.203125 64.59375 
z
" id="DejaVuSans-55"/>
      </defs>
      <g style="fill:#262626;" transform="translate(316.677514 651.898438)scale(0.1 -0.1)">
       <use xlink:href="#DejaVuSans-50"/>
       <use x="63.623047" xlink:href="#DejaVuSans-48"/>
       <use x="127.246094" xlink:href="#DejaVuSans-49"/>
       <use x="190.869141" xlink:href="#DejaVuSans-55"/>
      </g>
     </g>
    </g>
    <g id="xtick_4">
     <g id="line2d_7">
      <path clip-path="url(#p267855af8c)" d="M 412.601424 640.8 
L 412.601424 86.4 
" style="fill:none;stroke:#cccccc;stroke-linecap:round;stroke-width:0.8;"/>
     </g>
     <g id="line2d_8"/>
     <g id="text_4">
      <!-- 2018 -->
      <defs>
       <path d="M 31.78125 34.625 
Q 24.75 34.625 20.71875 30.859375 
Q 16.703125 27.09375 16.703125 20.515625 
Q 16.703125 13.921875 20.71875 10.15625 
Q 24.75 6.390625 31.78125 6.390625 
Q 38.8125 6.390625 42.859375 10.171875 
Q 46.921875 13.96875 46.921875 20.515625 
Q 46.921875 27.09375 42.890625 30.859375 
Q 38.875 34.625 31.78125 34.625 
z
M 21.921875 38.8125 
Q 15.578125 40.375 12.03125 44.71875 
Q 8.5 49.078125 8.5 55.328125 
Q 8.5 64.0625 14.71875 69.140625 
Q 20.953125 74.21875 31.78125 74.21875 
Q 42.671875 74.21875 48.875 69.140625 
Q 55.078125 64.0625 55.078125 55.328125 
Q 55.078125 49.078125 51.53125 44.71875 
Q 48 40.375 41.703125 38.8125 
Q 48.828125 37.15625 52.796875 32.3125 
Q 56.78125 27.484375 56.78125 20.515625 
Q 56.78125 9.90625 50.3125 4.234375 
Q 43.84375 -1.421875 31.78125 -1.421875 
Q 19.734375 -1.421875 13.25 4.234375 
Q 6.78125 9.90625 6.78125 20.515625 
Q 6.78125 27.484375 10.78125 32.3125 
Q 14.796875 37.15625 21.921875 38.8125 
z
M 18.3125 54.390625 
Q 18.3125 48.734375 21.84375 45.5625 
Q 25.390625 42.390625 31.78125 42.390625 
Q 38.140625 42.390625 41.71875 45.5625 
Q 45.3125 48.734375 45.3125 54.390625 
Q 45.3125 60.0625 41.71875 63.234375 
Q 38.140625 66.40625 31.78125 66.40625 
Q 25.390625 66.40625 21.84375 63.234375 
Q 18.3125 60.0625 18.3125 54.390625 
z
" id="DejaVuSans-56"/>
      </defs>
      <g style="fill:#262626;" transform="translate(399.876424 651.898438)scale(0.1 -0.1)">
       <use xlink:href="#DejaVuSans-50"/>
       <use x="63.623047" xlink:href="#DejaVuSans-48"/>
       <use x="127.246094" xlink:href="#DejaVuSans-49"/>
       <use x="190.869141" xlink:href="#DejaVuSans-56"/>
      </g>
     </g>
    </g>
    <g id="xtick_5">
     <g id="line2d_9">
      <path clip-path="url(#p267855af8c)" d="M 495.800334 640.8 
L 495.800334 86.4 
" style="fill:none;stroke:#cccccc;stroke-linecap:round;stroke-width:0.8;"/>
     </g>
     <g id="line2d_10"/>
     <g id="text_5">
      <!-- 2019 -->
      <defs>
       <path d="M 10.984375 1.515625 
L 10.984375 10.5 
Q 14.703125 8.734375 18.5 7.8125 
Q 22.3125 6.890625 25.984375 6.890625 
Q 35.75 6.890625 40.890625 13.453125 
Q 46.046875 20.015625 46.78125 33.40625 
Q 43.953125 29.203125 39.59375 26.953125 
Q 35.25 24.703125 29.984375 24.703125 
Q 19.046875 24.703125 12.671875 31.3125 
Q 6.296875 37.9375 6.296875 49.421875 
Q 6.296875 60.640625 12.9375 67.421875 
Q 19.578125 74.21875 30.609375 74.21875 
Q 43.265625 74.21875 49.921875 64.515625 
Q 56.59375 54.828125 56.59375 36.375 
Q 56.59375 19.140625 48.40625 8.859375 
Q 40.234375 -1.421875 26.421875 -1.421875 
Q 22.703125 -1.421875 18.890625 -0.6875 
Q 15.09375 0.046875 10.984375 1.515625 
z
M 30.609375 32.421875 
Q 37.25 32.421875 41.125 36.953125 
Q 45.015625 41.5 45.015625 49.421875 
Q 45.015625 57.28125 41.125 61.84375 
Q 37.25 66.40625 30.609375 66.40625 
Q 23.96875 66.40625 20.09375 61.84375 
Q 16.21875 57.28125 16.21875 49.421875 
Q 16.21875 41.5 20.09375 36.953125 
Q 23.96875 32.421875 30.609375 32.421875 
z
" id="DejaVuSans-57"/>
      </defs>
      <g style="fill:#262626;" transform="translate(483.075334 651.898438)scale(0.1 -0.1)">
       <use xlink:href="#DejaVuSans-50"/>
       <use x="63.623047" xlink:href="#DejaVuSans-48"/>
       <use x="127.246094" xlink:href="#DejaVuSans-49"/>
       <use x="190.869141" xlink:href="#DejaVuSans-57"/>
      </g>
     </g>
    </g>
    <g id="xtick_6">
     <g id="line2d_11">
      <path clip-path="url(#p267855af8c)" d="M 578.999243 640.8 
L 578.999243 86.4 
" style="fill:none;stroke:#cccccc;stroke-linecap:round;stroke-width:0.8;"/>
     </g>
     <g id="line2d_12"/>
     <g id="text_6">
      <!-- 2020 -->
      <g style="fill:#262626;" transform="translate(566.274243 651.898438)scale(0.1 -0.1)">
       <use xlink:href="#DejaVuSans-50"/>
       <use x="63.623047" xlink:href="#DejaVuSans-48"/>
       <use x="127.246094" xlink:href="#DejaVuSans-50"/>
       <use x="190.869141" xlink:href="#DejaVuSans-48"/>
      </g>
     </g>
    </g>
   </g>
   <g id="matplotlib.axis_2">
    <g id="ytick_1">
     <g id="line2d_13">
      <path clip-path="url(#p267855af8c)" d="M 90 615.614343 
L 648 615.614343 
" style="fill:none;stroke:#cccccc;stroke-linecap:round;stroke-width:0.8;"/>
     </g>
     <g id="line2d_14"/>
     <g id="text_7">
      <!-- 0 -->
      <g style="fill:#262626;" transform="translate(80.1375 619.413561)scale(0.1 -0.1)">
       <use xlink:href="#DejaVuSans-48"/>
      </g>
     </g>
    </g>
    <g id="ytick_2">
     <g id="line2d_15">
      <path clip-path="url(#p267855af8c)" d="M 90 543.901195 
L 648 543.901195 
" style="fill:none;stroke:#cccccc;stroke-linecap:round;stroke-width:0.8;"/>
     </g>
     <g id="line2d_16"/>
     <g id="text_8">
      <!-- 5000 -->
      <g style="fill:#262626;" transform="translate(61.05 547.700414)scale(0.1 -0.1)">
       <use xlink:href="#DejaVuSans-53"/>
       <use x="63.623047" xlink:href="#DejaVuSans-48"/>
       <use x="127.246094" xlink:href="#DejaVuSans-48"/>
       <use x="190.869141" xlink:href="#DejaVuSans-48"/>
      </g>
     </g>
    </g>
    <g id="ytick_3">
     <g id="line2d_17">
      <path clip-path="url(#p267855af8c)" d="M 90 472.188048 
L 648 472.188048 
" style="fill:none;stroke:#cccccc;stroke-linecap:round;stroke-width:0.8;"/>
     </g>
     <g id="line2d_18"/>
     <g id="text_9">
      <!-- 10000 -->
      <g style="fill:#262626;" transform="translate(54.6875 475.987267)scale(0.1 -0.1)">
       <use xlink:href="#DejaVuSans-49"/>
       <use x="63.623047" xlink:href="#DejaVuSans-48"/>
       <use x="127.246094" xlink:href="#DejaVuSans-48"/>
       <use x="190.869141" xlink:href="#DejaVuSans-48"/>
       <use x="254.492188" xlink:href="#DejaVuSans-48"/>
      </g>
     </g>
    </g>
    <g id="ytick_4">
     <g id="line2d_19">
      <path clip-path="url(#p267855af8c)" d="M 90 400.4749 
L 648 400.4749 
" style="fill:none;stroke:#cccccc;stroke-linecap:round;stroke-width:0.8;"/>
     </g>
     <g id="line2d_20"/>
     <g id="text_10">
      <!-- 15000 -->
      <g style="fill:#262626;" transform="translate(54.6875 404.274119)scale(0.1 -0.1)">
       <use xlink:href="#DejaVuSans-49"/>
       <use x="63.623047" xlink:href="#DejaVuSans-53"/>
       <use x="127.246094" xlink:href="#DejaVuSans-48"/>
       <use x="190.869141" xlink:href="#DejaVuSans-48"/>
       <use x="254.492188" xlink:href="#DejaVuSans-48"/>
      </g>
     </g>
    </g>
    <g id="ytick_5">
     <g id="line2d_21">
      <path clip-path="url(#p267855af8c)" d="M 90 328.761753 
L 648 328.761753 
" style="fill:none;stroke:#cccccc;stroke-linecap:round;stroke-width:0.8;"/>
     </g>
     <g id="line2d_22"/>
     <g id="text_11">
      <!-- 20000 -->
      <g style="fill:#262626;" transform="translate(54.6875 332.560972)scale(0.1 -0.1)">
       <use xlink:href="#DejaVuSans-50"/>
       <use x="63.623047" xlink:href="#DejaVuSans-48"/>
       <use x="127.246094" xlink:href="#DejaVuSans-48"/>
       <use x="190.869141" xlink:href="#DejaVuSans-48"/>
       <use x="254.492188" xlink:href="#DejaVuSans-48"/>
      </g>
     </g>
    </g>
    <g id="ytick_6">
     <g id="line2d_23">
      <path clip-path="url(#p267855af8c)" d="M 90 257.048606 
L 648 257.048606 
" style="fill:none;stroke:#cccccc;stroke-linecap:round;stroke-width:0.8;"/>
     </g>
     <g id="line2d_24"/>
     <g id="text_12">
      <!-- 25000 -->
      <g style="fill:#262626;" transform="translate(54.6875 260.847824)scale(0.1 -0.1)">
       <use xlink:href="#DejaVuSans-50"/>
       <use x="63.623047" xlink:href="#DejaVuSans-53"/>
       <use x="127.246094" xlink:href="#DejaVuSans-48"/>
       <use x="190.869141" xlink:href="#DejaVuSans-48"/>
       <use x="254.492188" xlink:href="#DejaVuSans-48"/>
      </g>
     </g>
    </g>
    <g id="ytick_7">
     <g id="line2d_25">
      <path clip-path="url(#p267855af8c)" d="M 90 185.335458 
L 648 185.335458 
" style="fill:none;stroke:#cccccc;stroke-linecap:round;stroke-width:0.8;"/>
     </g>
     <g id="line2d_26"/>
     <g id="text_13">
      <!-- 30000 -->
      <defs>
       <path d="M 40.578125 39.3125 
Q 47.65625 37.796875 51.625 33 
Q 55.609375 28.21875 55.609375 21.1875 
Q 55.609375 10.40625 48.1875 4.484375 
Q 40.765625 -1.421875 27.09375 -1.421875 
Q 22.515625 -1.421875 17.65625 -0.515625 
Q 12.796875 0.390625 7.625 2.203125 
L 7.625 11.71875 
Q 11.71875 9.328125 16.59375 8.109375 
Q 21.484375 6.890625 26.8125 6.890625 
Q 36.078125 6.890625 40.9375 10.546875 
Q 45.796875 14.203125 45.796875 21.1875 
Q 45.796875 27.640625 41.28125 31.265625 
Q 36.765625 34.90625 28.71875 34.90625 
L 20.21875 34.90625 
L 20.21875 43.015625 
L 29.109375 43.015625 
Q 36.375 43.015625 40.234375 45.921875 
Q 44.09375 48.828125 44.09375 54.296875 
Q 44.09375 59.90625 40.109375 62.90625 
Q 36.140625 65.921875 28.71875 65.921875 
Q 24.65625 65.921875 20.015625 65.03125 
Q 15.375 64.15625 9.8125 62.3125 
L 9.8125 71.09375 
Q 15.4375 72.65625 20.34375 73.4375 
Q 25.25 74.21875 29.59375 74.21875 
Q 40.828125 74.21875 47.359375 69.109375 
Q 53.90625 64.015625 53.90625 55.328125 
Q 53.90625 49.265625 50.4375 45.09375 
Q 46.96875 40.921875 40.578125 39.3125 
z
" id="DejaVuSans-51"/>
      </defs>
      <g style="fill:#262626;" transform="translate(54.6875 189.134677)scale(0.1 -0.1)">
       <use xlink:href="#DejaVuSans-51"/>
       <use x="63.623047" xlink:href="#DejaVuSans-48"/>
       <use x="127.246094" xlink:href="#DejaVuSans-48"/>
       <use x="190.869141" xlink:href="#DejaVuSans-48"/>
       <use x="254.492188" xlink:href="#DejaVuSans-48"/>
      </g>
     </g>
    </g>
    <g id="ytick_8">
     <g id="line2d_27">
      <path clip-path="url(#p267855af8c)" d="M 90 113.622311 
L 648 113.622311 
" style="fill:none;stroke:#cccccc;stroke-linecap:round;stroke-width:0.8;"/>
     </g>
     <g id="line2d_28"/>
     <g id="text_14">
      <!-- 35000 -->
      <g style="fill:#262626;" transform="translate(54.6875 117.42153)scale(0.1 -0.1)">
       <use xlink:href="#DejaVuSans-51"/>
       <use x="63.623047" xlink:href="#DejaVuSans-53"/>
       <use x="127.246094" xlink:href="#DejaVuSans-48"/>
       <use x="190.869141" xlink:href="#DejaVuSans-48"/>
       <use x="254.492188" xlink:href="#DejaVuSans-48"/>
      </g>
     </g>
    </g>
   </g>
   <g id="line2d_29">
    <path clip-path="url(#p267855af8c)" d="M 115.363636 615.6 
L 115.407178 615.499602 
L 117.982967 615.011952 
L 120.775969 614.23745 
L 120.840376 614.208765 
L 122.405552 614.050996 
L 122.63722 614.022311 
L 124.660766 613.534661 
L 124.744042 613.505976 
L 125.990165 613.233466 
L 126.51845 612.917928 
L 127.562856 612.717131 
L 128.626618 612.458964 
L 134.296702 611.039044 
L 134.432301 610.981673 
L 135.483895 610.85259 
L 135.664468 610.709163 
L 135.837277 610.63745 
L 136.113243 610.551394 
L 136.980961 610.36494 
L 136.981449 610.350598 
L 137.410952 610.192829 
L 137.482408 610.106773 
L 138.544948 609.81992 
L 138.611503 609.791235 
L 139.040287 609.647809 
L 139.074487 609.604781 
L 140.72912 609.317928 
L 140.961864 609.21753 
L 141.521072 609.088446 
L 142.247983 608.72988 
L 142.255853 608.715538 
L 142.504956 608.586454 
L 142.572595 608.557769 
L 143.333067 608.414343 
L 143.3941 608.242231 
L 143.80347 608.098805 
L 144.080544 607.639841 
L 144.961989 607.453386 
L 145.842811 606.951394 
L 146.32636 606.807968 
L 146.407398 606.70757 
L 146.645371 606.578486 
L 146.822353 606.521116 
L 147.633643 606.349004 
L 150.182446 605.301992 
L 150.248792 605.172908 
L 151.330314 604.886056 
L 151.468386 604.742629 
L 151.815515 604.556175 
L 151.994339 604.455777 
L 152.030709 604.384064 
L 152.707001 604.240637 
L 153.220731 603.810359 
L 153.231123 603.781673 
L 153.641802 603.638247 
L 153.664738 603.580876 
L 154.306567 603.394422 
L 154.45459 603.222311 
L 154.769984 603.021514 
L 155.187097 602.921116 
L 155.25649 602.89243 
L 155.907542 602.763347 
L 156.230078 602.56255 
L 156.821857 602.333068 
L 156.826033 602.318725 
L 157.904759 602.132271 
L 157.998105 602.003187 
L 158.1394 601.859761 
L 159.561522 601.056574 
L 159.736855 600.884462 
L 159.9993 600.712351 
L 160.092136 600.626295 
L 160.702354 600.511554 
L 160.796385 600.454183 
L 160.9151 600.310757 
L 160.932584 600.10996 
L 162.49952 599.880478 
L 162.64276 599.823108 
L 164.384407 599.278088 
L 164.473017 599.192032 
L 164.588128 599.034263 
L 164.601841 598.933865 
L 164.970989 598.790438 
L 165.520137 598.589641 
L 165.790085 598.374502 
L 166.237912 597.886853 
L 166.395939 597.729084 
L 166.421675 597.628685 
L 167.135036 597.485259 
L 167.287256 597.298805 
L 167.384512 597.184064 
L 167.537655 596.983267 
L 167.641651 596.854183 
L 167.95132 596.639044 
L 168.049248 596.495618 
L 168.401464 596.466932 
L 168.701451 596.337849 
L 169.350447 595.520319 
L 169.446637 595.319522 
L 169.867053 595.14741 
L 169.873155 595.133068 
L 170.32045 595.003984 
L 170.424688 594.932271 
L 170.549482 594.717131 
L 170.670228 594.54502 
L 170.96841 594.114741 
L 171.067129 594.043028 
L 171.874346 593.770518 
L 172.03738 593.684462 
L 172.311554 593.411952 
L 172.358287 593.268526 
L 172.631486 593.1251 
L 172.684606 593.067729 
L 173.694601 592.766534 
L 173.921425 592.465339 
L 174.005204 592.221514 
L 174.138242 592.09243 
L 174.420368 591.76255 
L 175.073119 591.54741 
L 175.124736 591.447012 
L 175.485272 591.317928 
L 175.626135 591.231873 
L 175.719567 591.059761 
L 175.838 590.830279 
L 176.006307 590.615139 
L 176.04282 590.586454 
L 176.641053 590.457371 
L 176.74664 590.299602 
L 177.382422 589.740239 
L 178.191933 589.5251 
L 178.301029 589.338645 
L 178.485182 589.209562 
L 178.58584 589.094821 
L 178.690261 588.951394 
L 179.016427 588.349004 
L 179.178535 588.205578 
L 179.331586 588.133865 
L 180.103891 587.760956 
L 180.996918 586.513147 
L 181.41173 586.341036 
L 181.532592 586.154582 
L 181.663675 585.953785 
L 181.796581 585.65259 
L 181.887507 585.509163 
L 181.960857 585.308367 
L 182.133655 585.179283 
L 182.439283 584.505179 
L 183.022279 584.247012 
L 183.120429 584.146614 
L 183.271981 583.945817 
L 183.438316 583.701992 
L 183.668767 583.458167 
L 183.832271 583.286056 
L 184.411065 583.056574 
L 184.690951 582.784064 
L 184.806534 582.683665 
L 184.891619 582.482869 
L 185.11334 582.10996 
L 185.342214 581.808765 
L 185.456721 581.722709 
L 185.924699 581.493227 
L 186.194042 581.364143 
L 186.27435 581.278088 
L 186.598218 581.048606 
L 186.714608 580.890837 
L 186.889293 580.647012 
L 186.998663 580.4749 
L 187.155666 580.302789 
L 187.19941 580.245418 
L 187.774096 580.087649 
L 187.928023 579.829482 
L 188.248934 579.571315 
L 188.389131 579.370518 
L 188.810231 578.78247 
L 189.268548 578.639044 
L 190.134145 577.262151 
L 190.318873 577.118725 
L 190.39788 576.989641 
L 190.929542 576.831873 
L 191.034778 576.573705 
L 191.134714 576.516335 
L 191.239042 576.358566 
L 191.357034 576.143426 
L 191.4479 576 
L 191.812459 575.469323 
L 191.889506 575.340239 
L 191.962173 575.110757 
L 192.607432 574.952988 
L 192.88799 574.522709 
L 193.041432 574.30757 
L 193.17005 573.949004 
L 193.443431 573.619124 
L 193.554244 573.21753 
L 194.069071 572.988048 
L 194.274747 572.586454 
L 194.419646 572.428685 
L 194.573924 572.113147 
L 194.741699 571.912351 
L 194.871183 571.79761 
L 195.335108 571.051793 
L 195.527627 570.908367 
L 195.639862 570.822311 
L 195.999953 570.521116 
L 196.268521 570.16255 
L 196.470667 569.904382 
L 196.626974 569.660558 
L 197.373331 569.230279 
L 197.49995 569.043825 
L 197.755543 568.713944 
L 197.854268 568.498805 
L 198.004085 568.269323 
L 198.101454 568.097211 
L 198.410176 567.609562 
L 198.952124 567.43745 
L 199.115987 566.863745 
L 199.18443 566.705976 
L 199.557975 565.974502 
L 199.858448 565.701992 
L 199.939058 565.501195 
L 200.589369 565.386454 
L 200.754313 565.185657 
L 201.702263 563.478884 
L 202.181939 563.29243 
L 202.305426 563.192032 
L 202.396004 563.005578 
L 203.076459 561.800797 
L 203.171197 561.585657 
L 203.58559 561.427888 
L 203.781969 561.241434 
L 204.541476 560.151394 
L 205.293339 559.950598 
L 205.624573 559.247809 
L 205.728733 559.104382 
L 206.56518 558.215139 
L 206.911262 558.086056 
L 207.272442 557.282869 
L 207.390753 557.139442 
L 207.968133 556.164143 
L 208.512662 556.020717 
L 208.626857 555.805578 
L 208.987539 555.461355 
L 209.155665 555.2749 
L 209.251553 555.088446 
L 209.405451 554.916335 
L 209.564932 554.686853 
L 209.643907 554.629482 
L 210.080946 554.457371 
L 210.331656 554.184861 
L 211.163326 553.094821 
L 211.647144 552.908367 
L 211.813503 552.621514 
L 212.95013 551.316335 
L 213.629049 550.785657 
L 214.360419 549.595219 
L 214.554381 549.552191 
L 214.861272 549.423108 
L 216.086636 548.103586 
L 216.540832 547.960159 
L 216.632715 547.859761 
L 216.777343 547.730677 
L 216.883969 547.558566 
L 217.651971 546.669323 
L 218.059702 546.525896 
L 218.387074 545.966534 
L 218.574427 545.665339 
L 218.858854 545.464542 
L 219.212016 545.23506 
L 219.632667 545.091633 
L 219.702034 545.034263 
L 219.949159 544.876494 
L 220.76459 543.786454 
L 221.329246 543.6 
L 221.761054 543.040637 
L 221.881621 542.768127 
L 222.020987 542.466932 
L 222.155128 542.337849 
L 222.250404 542.18008 
L 222.276771 542.079681 
L 222.813392 541.921912 
L 223.148663 541.118725 
L 223.637689 540.286853 
L 223.750259 540.172112 
L 224.046212 539.856574 
L 224.405268 539.684462 
L 224.494804 539.541036 
L 224.688038 539.411952 
L 225.268058 537.949004 
L 225.516977 537.590438 
L 226.079963 537.389641 
L 226.19401 537.016733 
L 226.288765 536.930677 
L 226.366323 536.772908 
L 226.481769 536.658167 
L 227.058418 535.754582 
L 227.137865 535.654183 
L 227.623952 535.5251 
L 227.708752 535.381673 
L 228.743119 533.488446 
L 229.24655 533.258964 
L 229.67196 532.398406 
L 229.749682 532.25498 
L 229.861593 532.039841 
L 229.957368 531.896414 
L 230.091432 531.666932 
L 230.225971 531.451793 
L 230.32884 531.265339 
L 230.841056 531.064542 
L 231.322808 530.29004 
L 231.482887 530.103586 
L 231.551742 529.960159 
L 231.639228 529.673307 
L 231.786665 529.544223 
L 231.847407 529.458167 
L 232.439925 529.257371 
L 232.553303 529.013546 
L 232.708807 528.827092 
L 233.458962 527.722709 
L 233.716404 527.579283 
L 233.838567 527.493227 
L 234.039431 527.349801 
L 234.12947 527.177689 
L 234.350759 526.991235 
L 234.453848 526.819124 
L 234.645509 526.503586 
L 234.795257 526.274104 
L 234.94367 526.058964 
L 235.028349 525.901195 
L 235.109812 525.815139 
L 235.464848 525.657371 
L 235.571511 525.6 
L 235.771623 525.313147 
L 236.73313 523.721116 
L 237.189909 523.491633 
L 237.3004 523.204781 
L 237.561589 522.860558 
L 237.698125 522.717131 
L 238.39429 521.971315 
L 238.847357 521.655777 
L 238.957239 521.469323 
L 239.372619 520.795219 
L 239.850691 520.149801 
L 240.38039 519.977689 
L 240.484711 519.834263 
L 240.608385 519.705179 
L 240.756344 519.317928 
L 240.8789 519.160159 
L 241.065296 518.873307 
L 241.153206 518.72988 
L 241.631342 518.084462 
L 242.022078 517.912351 
L 242.513256 517.180876 
L 242.653457 516.865339 
L 242.736561 516.721912 
L 242.913327 516.506773 
L 243.116314 516.320319 
L 243.837171 515.760956 
L 244.117046 515.316335 
L 244.483044 515.058167 
L 245.128065 514.900398 
L 246.095054 514.326693 
L 246.742743 514.183267 
L 247.299146 513.638247 
L 247.370315 513.552191 
L 247.655224 513.408765 
L 247.91421 513.179283 
L 248.430747 512.906773 
L 248.565165 512.634263 
L 248.667802 512.505179 
L 249.140922 511.759363 
L 249.386574 511.644622 
L 249.483073 511.47251 
L 249.943972 511.286056 
L 250.471632 510.827092 
L 250.611592 510.59761 
L 250.744669 510.454183 
L 250.849483 510.296414 
L 250.943887 510.138645 
L 251.029159 509.923506 
L 251.537637 509.737052 
L 251.667835 509.521912 
L 251.771116 509.378486 
L 251.893754 509.23506 
L 252.114293 508.933865 
L 252.22713 508.776096 
L 252.393116 508.560956 
L 252.666396 508.259761 
L 253.036963 508.116335 
L 254.3176 505.778486 
L 254.79877 505.520319 
L 254.950253 505.176096 
L 255.036484 505.018327 
L 255.374163 504.143426 
L 255.495798 503.870916 
L 255.661766 503.512351 
L 255.723555 503.325896 
L 255.836648 503.153785 
L 256.301959 502.90996 
L 256.548128 502.594422 
L 256.632493 502.450996 
L 256.70759 502.250199 
L 256.837982 502.121116 
L 256.987458 501.647809 
L 257.135351 501.203187 
L 257.538342 500.443028 
L 258.223369 499.553785 
L 258.295121 499.066135 
L 258.421558 498.650199 
L 258.515705 498.234263 
L 258.625706 497.933068 
L 258.688144 497.789641 
L 258.820037 497.517131 
L 258.910834 497.388048 
L 258.979338 497.172908 
L 259.066829 497.043825 
L 259.570988 496.670916 
L 259.681054 496.19761 
L 259.834208 495.9251 
L 259.927591 495.724303 
L 260.029743 495.537849 
L 260.444088 494.56255 
L 260.511661 494.433466 
L 260.622627 494.232669 
L 261.059282 493.888446 
L 261.251373 493.558566 
L 261.369228 493.386454 
L 261.462507 493.228685 
L 261.568751 493.113944 
L 261.741705 492.941833 
L 261.871605 492.698008 
L 262.147418 492.3251 
L 262.310436 492.152988 
L 262.530973 492.05259 
L 262.919195 491.708367 
L 263.200936 491.163347 
L 263.309683 490.976892 
L 263.550769 490.41753 
L 263.672808 490.274104 
L 263.745064 490.058964 
L 263.895165 489.843825 
L 264.283783 489.657371 
L 264.632643 489.026295 
L 264.816938 488.753785 
L 264.891972 488.438247 
L 265.010372 488.323506 
L 265.242831 488.050996 
L 265.356201 487.792829 
L 266.11852 487.333865 
L 266.424474 486.831873 
L 266.518894 486.559363 
L 266.676411 486.344223 
L 266.734368 486.143426 
L 266.874729 486.014343 
L 267.039185 485.713147 
L 267.580149 485.426295 
L 267.939889 484.866932 
L 268.018835 484.737849 
L 268.237391 484.393625 
L 268.336239 484.192829 
L 268.562997 483.805578 
L 269.099535 483.676494 
L 269.320069 483.432669 
L 269.42712 483.231873 
L 269.566943 483.016733 
L 269.689427 482.772908 
L 270.334491 481.668526 
L 270.711429 481.496414 
L 270.878668 481.109163 
L 270.993959 480.937052 
L 271.125484 480.750598 
L 271.227156 480.607171 
L 271.339222 480.320319 
L 271.602873 480.019124 
L 271.741651 479.6749 
L 272.045711 479.574502 
L 272.370207 479.359363 
L 272.507178 479.029482 
L 272.669009 478.771315 
L 273.041647 478.168924 
L 273.737787 477.638247 
L 274.144917 477.394422 
L 274.24742 477.16494 
L 275.002824 476.031873 
L 275.425089 475.888446 
L 275.499068 475.730677 
L 275.814177 475.156972 
L 275.94437 474.898805 
L 276.029292 474.712351 
L 276.150267 474.554582 
L 277.157147 473.521912 
L 277.2945 473.306773 
L 277.632797 472.618327 
L 277.91978 471.800797 
L 278.089607 471.528287 
L 278.184504 471.399203 
L 278.620908 471.212749 
L 278.716295 471.026295 
L 278.845286 470.610359 
L 279.217367 469.319522 
L 279.324566 468.917928 
L 279.571218 468.487649 
L 279.625075 468.358566 
L 279.719489 468.057371 
L 279.909924 467.813546 
L 280.039194 467.713147 
L 280.307651 467.483665 
L 280.826829 466.737849 
L 280.926177 466.450996 
L 281.01752 466.293227 
L 281.229118 465.905976 
L 281.284059 465.705179 
L 281.395395 465.533068 
L 281.902651 465.231873 
L 282.047679 464.916335 
L 282.160851 464.72988 
L 282.33301 464.313944 
L 282.410252 464.084462 
L 282.53748 463.783267 
L 282.779149 463.424701 
L 282.883216 463.295618 
L 283.028289 463.123506 
L 283.405127 462.908367 
L 283.532709 462.736255 
L 283.58374 462.549801 
L 283.685359 462.21992 
L 283.757821 461.976096 
L 283.880925 461.746614 
L 284.029618 461.215936 
L 284.13058 460.914741 
L 284.262517 460.685259 
L 284.485468 460.068526 
L 284.637524 459.896414 
L 284.769654 459.70996 
L 284.902563 459.609562 
L 285.190427 459.236653 
L 285.30893 459.050199 
L 285.464224 458.720319 
L 285.529198 458.576892 
L 286.124842 457.343426 
L 286.536236 457.128287 
L 286.654175 456.970518 
L 286.788824 456.798406 
L 287.001259 456.425498 
L 287.138892 456.282072 
L 287.241941 456.05259 
L 287.928723 454.575299 
L 288.494534 454.044622 
L 288.610549 453.915538 
L 288.797488 453.686056 
L 288.914127 453.413546 
L 289.063065 452.882869 
L 289.165064 452.696414 
L 289.275418 452.438247 
L 289.311799 452.366534 
L 289.634255 452.208765 
L 289.933886 451.850199 
L 290.350812 451.14741 
L 290.574691 450.831873 
L 290.850546 450.415936 
L 290.961156 450.186454 
L 291.341131 450 
L 292.000681 448.723506 
L 292.138768 448.336255 
L 292.234891 448.09243 
L 292.385083 447.805578 
L 292.6388 447.533068 
L 293.059248 447.303586 
L 293.180933 447.074104 
L 293.397341 446.94502 
L 293.568804 446.643825 
L 293.818095 446.213546 
L 293.970555 446.027092 
L 294.489997 445.639841 
L 294.693815 445.510757 
L 294.883501 445.166534 
L 295.756702 443.459761 
L 296.2047 443.273307 
L 296.346254 443.043825 
L 297.152426 441.494821 
L 297.220568 441.322709 
L 297.347451 441.050199 
L 297.646142 440.878088 
L 297.837698 440.634263 
L 297.912286 440.476494 
L 298.004362 440.304382 
L 298.119085 440.146614 
L 298.228809 439.874104 
L 298.354042 439.458167 
L 298.491499 439.185657 
L 298.560602 438.970518 
L 298.811716 438.196016 
L 299.455133 437.622311 
L 299.791345 436.116335 
L 299.906131 435.901195 
L 300.34087 434.897211 
L 300.445629 434.653386 
L 300.600508 434.495618 
L 301.048974 434.323506 
L 301.245806 433.893227 
L 301.302844 433.764143 
L 301.437436 433.434263 
L 301.519052 433.233466 
L 301.687225 432.731474 
L 302.396935 431.627092 
L 302.617971 431.483665 
L 302.780416 431.340239 
L 302.918129 431.139442 
L 303.040413 430.981673 
L 303.154854 430.766534 
L 303.275618 430.522709 
L 303.387065 430.30757 
L 303.710719 429.518725 
L 304.228744 429.2749 
L 304.698698 428.184861 
L 304.736873 427.998406 
L 304.837769 427.352988 
L 304.94148 427.152191 
L 305.227023 426.578486 
L 305.319075 426.320319 
L 305.430517 426.16255 
L 305.534167 425.818327 
L 305.898735 425.416733 
L 305.999003 425.258964 
L 306.088127 425.101195 
L 306.224006 424.843028 
L 306.309476 424.713944 
L 306.416596 424.398406 
L 306.546589 424.154582 
L 306.686122 423.523506 
L 307.108636 422.921116 
L 307.308402 422.792032 
L 307.414244 422.662948 
L 307.545762 422.361753 
L 307.681082 422.103586 
L 308.034234 421.070916 
L 308.258058 420.296414 
L 308.690006 419.78008 
L 308.991422 419.622311 
L 309.109963 419.005578 
L 309.219948 418.776096 
L 309.605455 417.05498 
L 309.711926 416.610359 
L 309.944487 415.864542 
L 310.054886 415.663745 
L 310.408308 415.391235 
L 310.563994 415.233466 
L 310.739225 414.60239 
L 310.886704 414.444622 
L 311.188859 413.784861 
L 311.376373 413.110757 
L 311.825958 412.149801 
L 312.133907 411.934661 
L 312.285887 411.504382 
L 312.476118 411.045418 
L 312.638028 410.715538 
L 312.992236 409.912351 
L 313.113557 409.625498 
L 313.204293 409.352988 
L 313.311086 409.123506 
L 313.734739 408.865339 
L 314.982398 406.498805 
L 315.246067 406.298008 
L 315.675184 405.752988 
L 315.794503 405.423108 
L 316.351553 404.419124 
L 317.131118 403.357769 
L 317.290878 403.113944 
L 317.462694 402.87012 
L 317.636347 402.554582 
L 318.036159 401.83745 
L 318.177647 401.751394 
L 318.612481 401.464542 
L 318.911671 400.847809 
L 319.410281 399.083665 
L 319.555695 398.796813 
L 319.612469 398.567331 
L 319.792048 398.409562 
L 319.890089 398.208765 
L 320.139295 398.007968 
L 320.438071 397.491633 
L 320.56288 397.219124 
L 321.0079 396.258167 
L 321.84467 395.483665 
L 322.242036 394.680478 
L 322.32752 394.522709 
L 322.356089 394.049402 
L 322.452278 393.54741 
L 322.483106 393.389641 
L 322.691285 392.285259 
L 322.800458 391.754582 
L 322.924383 391.25259 
L 323.178058 391.080478 
L 323.364699 390.850996 
L 323.493924 390.506773 
L 323.607798 390.334661 
L 323.682385 390.148207 
L 323.796671 389.603187 
L 324.271767 388.642231 
L 324.37099 388.011155 
L 325.076046 387.279681 
L 325.247457 387.035857 
L 325.496128 386.677291 
L 326.316179 385.874104 
L 326.580953 385.74502 
L 327.387399 384.640637 
L 327.592766 384.439841 
L 328.515512 384.138645 
L 328.688888 384.038247 
L 330.119574 383.421514 
L 331.681957 382.101992 
L 331.795883 381.958566 
L 331.988534 381.6 
L 332.191706 381.198406 
L 332.296863 381.05498 
L 332.407961 380.839841 
L 333.080477 380.337849 
L 333.240237 380.151394 
L 333.358612 379.979283 
L 333.624898 379.477291 
L 333.82563 379.262151 
L 333.945128 379.061355 
L 334.095841 379.003984 
L 334.638916 378.60239 
L 334.753251 378.487649 
L 334.956015 378.172112 
L 335.252582 377.139442 
L 335.327128 376.981673 
L 335.46488 376.809562 
L 336.505663 375.805578 
L 336.615758 375.676494 
L 336.933714 375.21753 
L 337.804841 374.543426 
L 337.953872 374.385657 
L 338.911859 373.553785 
L 339.339066 373.424701 
L 339.632843 373.051793 
L 340.024798 372.521116 
L 340.195322 372.148207 
L 340.487083 371.818327 
L 340.931873 371.588845 
L 341.089148 371.474104 
L 341.396796 370.986454 
L 341.950398 370.19761 
L 342.418363 370.025498 
L 342.712268 369.552191 
L 342.925304 369.093227 
L 343.034986 368.935458 
L 343.139847 368.576892 
L 343.237092 368.361753 
L 343.303963 368.175299 
L 343.413636 368.060558 
L 343.534926 367.845418 
L 343.605395 367.74502 
L 343.807064 367.587251 
L 343.910619 367.52988 
L 344.127027 367.357769 
L 344.265592 366.999203 
L 344.380415 366.827092 
L 345.038347 365.407171 
L 345.120238 365.206375 
L 345.177519 365.048606 
L 345.665442 364.847809 
L 346.882402 362.466932 
L 347.290137 362.223108 
L 347.362353 362.065339 
L 347.80217 361.247809 
L 347.896764 361.09004 
L 347.998013 360.960956 
L 348.484942 360.32988 
L 348.918251 360.086056 
L 349.02831 359.899602 
L 349.128802 359.770518 
L 349.419172 359.153785 
L 349.905331 358.551394 
L 349.999958 358.494024 
L 350.524465 358.106773 
L 350.686075 357.862948 
L 351.479071 356.701195 
L 352.086139 356.328287 
L 352.201358 356.141833 
L 353.091401 354.994422 
L 353.790883 354.865339 
L 354.119022 354.521116 
L 354.238309 354.420717 
L 354.38444 354.191235 
L 354.532845 354.019124 
L 355.347063 353.316335 
L 355.50638 353.144223 
L 355.711961 353.000797 
L 355.847101 352.8 
L 356.076526 352.398406 
L 356.481743 351.882072 
L 356.957367 351.70996 
L 357.097878 351.365737 
L 357.885522 350.361753 
L 358.437983 350.232669 
L 358.63776 349.917131 
L 358.758366 349.773705 
L 358.996323 349.572908 
L 359.074794 349.458167 
L 359.211349 349.314741 
L 359.333076 349.171315 
L 359.479352 348.956175 
L 359.667914 348.812749 
L 360.152338 348.368127 
L 360.256741 348.253386 
L 360.422363 348.081275 
L 360.830532 347.464542 
L 360.982531 347.321116 
L 361.210062 347.062948 
L 361.602671 346.862151 
L 361.707646 346.704382 
L 362.641182 345.513944 
L 362.683299 345.442231 
L 363.452287 345.198406 
L 363.546881 345.040637 
L 363.708704 344.796813 
L 363.801295 344.639044 
L 364.541825 343.706773 
L 364.863329 343.534661 
L 364.974862 343.204781 
L 365.137635 342.889243 
L 365.249683 342.674104 
L 365.355787 342.430279 
L 365.87235 341.512351 
L 366.431347 341.168127 
L 366.566524 340.823904 
L 367.11668 339.733865 
L 367.237772 339.590438 
L 367.361921 339.418327 
L 367.536242 339.145817 
L 367.626316 339.088446 
L 368.034332 338.94502 
L 368.143808 338.701195 
L 368.385878 338.270916 
L 368.523606 338.12749 
L 368.625457 337.869323 
L 368.810626 337.668526 
L 368.934807 337.482072 
L 370.170911 336.148207 
L 370.276023 335.990438 
L 371.106524 335.058167 
L 371.232517 334.886056 
L 371.593698 334.584861 
L 371.776302 334.412749 
L 372.508215 333.595219 
L 372.790998 333.451793 
L 372.957979 333.093227 
L 374.157559 331.831076 
L 374.439292 331.687649 
L 374.979207 330.511554 
L 375.089234 330.282072 
L 375.235032 329.980876 
L 375.415745 329.650996 
L 375.522079 329.464542 
L 376.034774 329.134661 
L 376.136137 328.905179 
L 376.326928 328.776096 
L 376.526027 328.345817 
L 377.380298 327.212749 
L 377.664076 327.05498 
L 377.797836 326.739442 
L 377.908926 326.481275 
L 378.034448 326.366534 
L 378.149086 326.208765 
L 378.25432 325.96494 
L 379.002804 325.276494 
L 379.175673 325.14741 
L 379.545296 324.530677 
L 379.704074 324.32988 
L 380.008335 323.713147 
L 380.102058 323.584064 
L 380.239535 323.368924 
L 380.360991 323.325896 
L 380.758724 323.139442 
L 382.007151 321.00239 
L 382.33004 320.858964 
L 383.86484 318.822311 
L 383.969269 318.678884 
L 384.169143 318.478088 
L 384.663986 317.545817 
L 384.964748 316.814343 
L 385.077757 316.52749 
L 385.337558 316.427092 
L 385.564703 316.298008 
L 385.835791 315.996813 
L 385.907817 315.853386 
L 385.993689 315.65259 
L 386.11359 315.480478 
L 386.274984 315.179283 
L 386.600938 314.333068 
L 386.691216 314.175299 
L 387.156901 313.988845 
L 387.229885 313.816733 
L 387.350705 313.630279 
L 387.485449 313.47251 
L 388.10145 312.468526 
L 388.197447 312.282072 
L 388.301076 312.196016 
L 388.676656 312.023904 
L 388.968525 311.607968 
L 389.106335 311.321116 
L 390.063096 310.374502 
L 390.395145 310.245418 
L 391.559014 308.7251 
L 391.995468 308.50996 
L 392.154787 308.266135 
L 392.465641 307.807171 
L 392.575196 307.592032 
L 392.711713 307.448606 
L 392.809145 307.276494 
L 392.973068 307.09004 
L 392.995833 307.032669 
L 393.610475 306.889243 
L 393.669049 306.745817 
L 393.78588 306.616733 
L 394.332353 305.741833 
L 394.497516 305.411952 
L 395.156768 305.039044 
L 395.2646 304.838247 
L 395.877654 303.633466 
L 396.133719 303.346614 
L 396.255494 303.21753 
L 396.734724 303.031076 
L 396.846134 302.815936 
L 396.981643 302.658167 
L 398.001629 301.338645 
L 398.489244 301.051793 
L 398.593612 300.894024 
L 398.730577 300.736255 
L 398.829627 300.521116 
L 398.966682 300.349004 
L 399.195068 300.047809 
L 399.287139 299.990438 
L 399.351894 299.847012 
L 399.456106 299.660558 
L 399.919051 299.502789 
L 400.207089 298.986454 
L 400.402032 298.699602 
L 400.555036 298.541833 
L 400.712778 298.25498 
L 400.905523 297.968127 
L 401.45355 297.494821 
L 402.051875 296.175299 
L 402.178773 296.01753 
L 402.400555 295.630279 
L 402.532166 295.429482 
L 402.627068 295.314741 
L 402.907835 295.156972 
L 403.058002 295.085259 
L 403.163608 294.884462 
L 403.294532 294.396813 
L 403.453997 294.066932 
L 403.583016 293.866135 
L 403.662965 293.665339 
L 403.781109 293.378486 
L 404.059856 293.034263 
L 404.15642 292.948207 
L 404.694461 292.790438 
L 405.615604 291.27012 
L 405.721291 291.069323 
L 406.386059 290.481275 
L 406.493807 290.337849 
L 406.838778 289.993625 
L 406.962742 289.749801 
L 407.207448 289.592032 
L 407.312694 289.462948 
L 407.757219 289.247809 
L 407.955043 289.018327 
L 408.337616 288.516335 
L 408.703184 288.043028 
L 408.82674 287.870916 
L 409.693479 287.18247 
L 409.816975 286.967331 
L 409.966366 286.752191 
L 410.107509 286.58008 
L 410.60466 286.078088 
L 410.825811 285.977689 
L 411.571842 285.690837 
L 411.720569 285.533068 
L 412.052774 285.303586 
L 412.115297 285.246215 
L 412.94225 285.088446 
L 413.097359 284.930677 
L 413.323581 284.758566 
L 413.424477 284.600797 
L 413.593576 284.371315 
L 413.750271 284.113147 
L 413.836548 284.041434 
L 414.311478 283.898008 
L 414.443671 283.740239 
L 414.668234 283.453386 
L 415.064487 282.693227 
L 415.18446 282.521116 
L 415.311414 282.349004 
L 416.132916 281.746614 
L 416.304996 281.416733 
L 416.516961 281.158566 
L 416.621606 281.029482 
L 417.593973 280.183267 
L 417.713046 279.953785 
L 418.212928 279.250996 
L 418.329627 279.078884 
L 418.457322 278.906773 
L 418.557406 278.763347 
L 418.602258 278.734661 
L 419.068587 278.576892 
L 419.409398 278.003187 
L 419.605879 277.716335 
L 419.710229 277.544223 
L 420.341795 277.113944 
L 420.725178 276.941833 
L 420.935685 276.554582 
L 421.048996 276.368127 
L 421.223749 276.095618 
L 421.338836 275.866135 
L 421.446349 275.622311 
L 421.481298 275.56494 
L 421.710343 275.421514 
L 421.81035 275.335458 
L 422.278077 275.192032 
L 422.559675 274.905179 
L 422.825458 274.575299 
L 423.111214 274.331474 
L 423.292771 274.20239 
L 423.328355 274.044622 
L 423.858616 273.886853 
L 424.184115 273.585657 
L 424.405765 273.298805 
L 424.528223 273.05498 
L 424.836776 272.753785 
L 425.082729 272.45259 
L 425.678664 271.864542 
L 426.105667 271.219124 
L 426.285275 270.946614 
L 426.445404 270.788845 
L 426.589198 270.60239 
L 427.007627 270.444622 
L 427.123493 270.27251 
L 427.837464 269.469323 
L 427.958104 269.311554 
L 428.72581 268.938645 
L 428.826733 268.838247 
L 428.971057 268.63745 
L 429.15373 268.321912 
L 429.260269 268.03506 
L 429.44706 267.877291 
L 429.562245 267.676494 
L 429.86836 267.432669 
L 430.25439 267.260558 
L 431.23561 265.79761 
L 431.728266 265.553785 
L 431.889002 264.822311 
L 432.092074 264.650199 
L 432.315489 264.262948 
L 432.619433 263.89004 
L 433.272221 263.459761 
L 433.430712 263.330677 
L 433.531967 263.172908 
L 433.753738 262.972112 
L 433.915437 262.785657 
L 434.011754 262.584861 
L 434.259609 262.427092 
L 434.475663 262.298008 
L 434.54389 262.226295 
L 434.964154 262.068526 
L 435.298042 261.609562 
L 435.415791 261.43745 
L 435.537558 261.121912 
L 435.723629 260.863745 
L 435.936752 260.505179 
L 436.240712 260.160956 
L 436.603842 259.917131 
L 437.319087 258.784064 
L 437.511477 258.626295 
L 437.668952 258.425498 
L 438.226426 258.152988 
L 439.365818 256.776096 
L 439.88974 256.632669 
L 440.492565 256.173705 
L 440.520021 256.116335 
L 440.793689 255.987251 
L 440.948806 255.944223 
L 441.514369 255.614343 
L 441.621393 255.542629 
L 441.767936 255.399203 
L 441.979149 255.126693 
L 442.429989 254.7251 
L 442.461041 254.696414 
L 443.015761 254.524303 
L 443.206017 254.23745 
L 443.354121 254.065339 
L 443.968172 253.434263 
L 444.089601 253.276494 
L 444.617826 253.104382 
L 444.923366 252.745817 
L 445.163671 252.401594 
L 445.293796 252.286853 
L 445.817873 251.842231 
L 446.245623 251.698805 
L 446.340797 251.612749 
L 446.486037 251.469323 
L 446.678484 251.18247 
L 446.783754 251.053386 
L 446.985771 250.881275 
L 447.21533 250.494024 
L 447.852782 250.379283 
L 447.96154 250.135458 
L 448.045156 249.977689 
L 448.638154 249.231873 
L 448.780694 249.059761 
L 448.882693 249.00239 
L 449.13406 248.94502 
L 449.595588 248.658167 
L 449.748884 248.471713 
L 450.007282 248.270916 
L 450.38445 247.768924 
L 450.523424 247.682869 
L 451.022327 247.553785 
L 451.140068 247.439044 
L 451.281738 247.281275 
L 451.720405 246.779283 
L 451.899242 246.578486 
L 452.755152 246.062151 
L 453.804575 245.201594 
L 454.209708 245.029482 
L 455.157869 243.896414 
L 455.866078 243.537849 
L 455.954337 243.480478 
L 456.115205 243.308367 
L 456.312702 243.10757 
L 456.468407 242.935458 
L 456.883325 242.490837 
L 457.387146 242.34741 
L 458.203683 241.2 
L 458.427734 240.884462 
L 459.067603 240.669323 
L 459.17615 240.425498 
L 459.331995 240.138645 
L 459.654332 239.751394 
L 459.758867 239.622311 
L 460.594597 239.048606 
L 460.679484 238.819124 
L 460.853216 238.675697 
L 460.99368 238.560956 
L 461.323875 238.274104 
L 461.46814 238.130677 
L 461.632573 238.015936 
L 462.120606 237.843825 
L 462.736045 236.99761 
L 462.892157 236.854183 
L 463.075033 236.538645 
L 463.338327 236.366534 
L 463.476274 236.309163 
L 464.383455 235.592032 
L 464.477117 235.448606 
L 464.663363 235.305179 
L 464.713618 235.219124 
L 465.397653 234.989641 
L 465.514109 234.860558 
L 465.871425 234.458964 
L 465.95055 234.286853 
L 466.257523 234.100398 
L 466.357477 233.885259 
L 467.010231 233.526693 
L 467.155953 233.411952 
L 467.509744 232.981673 
L 467.717965 232.737849 
L 467.825839 232.551394 
L 468.005331 232.350598 
L 468.079436 232.321912 
L 468.79576 232.020717 
L 468.920935 231.705179 
L 469.096509 231.533068 
L 469.246798 231.174502 
L 469.346596 230.973705 
L 469.566935 230.744223 
L 469.809812 230.67251 
L 470.153694 230.543426 
L 471.371879 229.180876 
L 472.213798 228.521116 
L 472.342034 228.320319 
L 472.761332 227.746614 
L 472.839719 227.631873 
L 473.437827 227.373705 
L 473.542598 227.273307 
L 473.787407 227.07251 
L 474.0901 226.728287 
L 474.43046 226.355378 
L 475.269751 225.9251 
L 476.883181 224.634263 
L 476.950751 224.56255 
L 477.262473 224.361753 
L 478.006786 223.845418 
L 478.247123 223.601594 
L 478.457196 223.171315 
L 478.81978 222.827092 
L 478.917312 222.683665 
L 479.109974 222.511554 
L 479.26517 222.454183 
L 479.717287 222.310757 
L 480.041207 221.880478 
L 480.156548 221.665339 
L 480.26801 221.50757 
L 480.744879 220.991235 
L 480.812992 220.933865 
L 481.277055 220.761753 
L 482.344685 219.829482 
L 482.958134 219.643028 
L 483.062146 219.542629 
L 483.494134 219.212749 
L 484.66053 218.352191 
L 484.896195 218.137052 
L 484.968387 218.036653 
L 485.202787 217.878884 
L 485.365062 217.678088 
L 485.49892 217.534661 
L 485.549581 217.405578 
L 486.078492 217.262151 
L 486.184287 217.14741 
L 486.358125 216.946614 
L 486.462263 216.745817 
L 486.825789 216.516335 
L 487.003072 216.387251 
L 487.393191 216.243825 
L 487.760093 216.129084 
L 487.828458 216 
L 487.982606 215.842231 
L 488.126038 215.67012 
L 488.408713 215.297211 
L 488.617499 215.110757 
L 488.74669 214.938645 
L 489.332858 214.752191 
L 489.624012 214.336255 
L 489.946692 214.020717 
L 490.324821 213.504382 
L 490.39825 213.375299 
L 490.878018 213.231873 
L 491.160793 213.016733 
L 491.374479 212.873307 
L 491.899002 212.529084 
L 492.500935 212.328287 
L 492.611828 212.041434 
L 493.618032 211.152191 
L 494.279507 210.98008 
L 495.193806 210.43506 
L 496.019026 210.277291 
L 496.481674 209.760956 
L 496.73674 209.574502 
L 497.305559 209.34502 
L 497.65635 209.086853 
L 497.824679 208.914741 
L 497.950699 208.785657 
L 498.648801 208.427092 
L 498.964538 208.298008 
L 500.162279 207.222311 
L 500.482042 207.093227 
L 500.543723 207.007171 
L 500.730844 206.863745 
L 500.891042 206.705976 
L 501.14786 206.433466 
L 501.267253 206.318725 
L 502.022245 205.788048 
L 502.201792 205.400797 
L 502.332394 205.228685 
L 502.506309 204.92749 
L 502.718416 204.726693 
L 502.877525 204.540239 
L 503.059543 204.38247 
L 503.676552 204.181673 
L 503.793968 204.023904 
L 503.939888 203.894821 
L 504.151848 203.636653 
L 504.316489 203.478884 
L 504.790772 203.23506 
L 505.908074 202.517928 
L 506.432196 202.130677 
L 507.003176 201.87251 
L 507.180562 201.585657 
L 507.370751 201.413546 
L 508.076304 200.696414 
L 508.445504 200.50996 
L 508.696805 200.151394 
L 509.087652 199.850199 
L 509.211485 199.663745 
L 509.443516 199.391235 
L 509.496552 199.333865 
L 510.05122 199.161753 
L 510.170771 198.903586 
L 510.353734 198.573705 
L 511.008886 197.569721 
L 511.100788 197.411952 
L 511.876979 197.067729 
L 511.93922 196.90996 
L 512.189241 196.752191 
L 512.464257 196.465339 
L 512.674442 196.250199 
L 513.304926 196.078088 
L 514.620601 195.016733 
L 514.873773 194.873307 
L 515.844099 193.740239 
L 516.395152 193.553785 
L 516.505396 193.367331 
L 516.627139 193.223904 
L 516.836896 193.008765 
L 517.008465 192.822311 
L 517.152802 192.664542 
L 517.320236 192.506773 
L 518.013698 192.21992 
L 518.495793 191.717928 
L 519.221369 191.144223 
L 519.585908 191.015139 
L 519.723243 190.843028 
L 519.909613 190.713944 
L 520.181758 190.183267 
L 520.365882 190.025498 
L 520.635416 189.738645 
L 521.297947 189.566534 
L 521.41171 189.509163 
L 521.618185 189.250996 
L 521.747112 189.136255 
L 521.914219 188.964143 
L 522.023423 188.705976 
L 522.141423 188.56255 
L 522.242511 188.462151 
L 522.713972 188.318725 
L 522.907293 188.146614 
L 523.168134 187.859761 
L 523.573852 187.601594 
L 523.712008 187.515538 
L 524.489974 186.970518 
L 524.709683 186.827092 
L 524.893812 186.626295 
L 525.04089 186.425498 
L 525.216537 186.138645 
L 525.328411 185.980876 
L 525.548196 185.880478 
L 525.825956 185.823108 
L 526.198311 185.679681 
L 526.285278 185.56494 
L 526.473744 185.435857 
L 526.522625 185.321116 
L 526.74751 185.192032 
L 528.021891 184.130677 
L 528.120943 184.058964 
L 528.492268 183.729084 
L 528.606078 183.585657 
L 529.056981 183.427888 
L 529.377762 183.241434 
L 529.524004 183.069323 
L 529.906264 182.825498 
L 530.033231 182.667729 
L 530.614607 182.251793 
L 530.878189 182.122709 
L 531.069532 181.864542 
L 532.018681 181.305179 
L 532.27109 181.176096 
L 532.395873 181.018327 
L 533.613976 179.741833 
L 534.092436 179.598406 
L 534.279185 179.483665 
L 534.706278 179.1251 
L 534.914999 178.924303 
L 535.162965 178.838247 
L 535.878975 178.436653 
L 536.657583 177.604781 
L 537.197864 177.418327 
L 537.351901 177.145817 
L 537.626936 176.94502 
L 537.716005 176.787251 
L 537.835725 176.643825 
L 538.368065 176.371315 
L 538.778276 176.227888 
L 539.809324 175.109163 
L 540.365474 174.865339 
L 540.660338 174.43506 
L 540.813982 174.291633 
L 541.050852 174.019124 
L 541.160544 173.803984 
L 541.378865 173.517131 
L 541.91349 173.316335 
L 542.157868 173.058167 
L 542.564634 172.613546 
L 542.661124 172.484462 
L 542.806588 172.326693 
L 543.056873 172.140239 
L 543.588406 172.011155 
L 543.671953 171.953785 
L 543.881776 171.796016 
L 544.036399 171.595219 
L 544.480227 171.222311 
L 544.731858 171.064542 
L 545.108891 170.935458 
L 545.739231 170.046215 
L 545.83767 169.601594 
L 546.119884 169.314741 
L 546.167026 169.257371 
L 546.812131 169.042231 
L 547.189523 168.583267 
L 548.629126 167.650996 
L 548.777832 167.50757 
L 549.381489 166.833466 
L 549.939908 166.675697 
L 550.086086 166.532271 
L 550.718264 165.843825 
L 550.965199 165.528287 
L 551.791331 165.27012 
L 551.981286 165.011952 
L 552.282106 164.682072 
L 552.397824 164.538645 
L 552.51132 164.323506 
L 552.778553 164.18008 
L 553.337969 163.821514 
L 553.442089 163.620717 
L 553.619119 163.477291 
L 553.999366 163.003984 
L 554.840525 162.688446 
L 555.72243 161.612749 
L 556.232743 161.440637 
L 556.344807 161.325896 
L 556.615963 161.010359 
L 556.68367 160.90996 
L 556.830311 160.780876 
L 556.939319 160.537052 
L 557.050122 160.164143 
L 557.196902 160.020717 
L 557.327475 159.848606 
L 557.711592 159.748207 
L 557.888232 159.619124 
L 557.999446 159.475697 
L 558.225845 159.332271 
L 558.241531 159.2749 
L 558.394925 159.145817 
L 559.008702 158.486056 
L 559.569456 158.299602 
L 560.2455 157.496414 
L 560.415253 157.367331 
L 560.940771 157.066135 
L 561.084169 156.937052 
L 561.233439 156.721912 
L 561.382747 156.535458 
L 561.623503 156.363347 
L 561.944289 156.133865 
L 562.279396 155.918725 
L 562.704988 155.775299 
L 563.127671 155.416733 
L 563.672753 154.685259 
L 564.326259 154.369721 
L 564.446214 154.240637 
L 564.76876 153.968127 
L 564.960242 153.824701 
L 566.015728 153.207968 
L 566.145663 152.978486 
L 567.191896 151.888446 
L 567.517091 151.74502 
L 567.913645 151.458167 
L 568.295279 150.92749 
L 568.401549 150.755378 
L 568.795243 150.511554 
L 569.099517 150.296414 
L 569.308039 150.152988 
L 570.359188 149.493227 
L 570.727774 149.364143 
L 570.823821 149.278088 
L 571.095238 149.048606 
L 571.592706 148.603984 
L 572.287463 148.388845 
L 572.722286 147.92988 
L 572.843507 147.757769 
L 573.142291 147.370518 
L 573.338503 147.212749 
L 573.87392 146.925896 
L 574.533253 146.137052 
L 574.79584 145.96494 
L 574.94424 145.864542 
L 575.410699 145.706773 
L 575.568229 145.549004 
L 575.685554 145.405578 
L 576.106759 144.917928 
L 576.416597 144.387251 
L 578.362611 143.311554 
L 578.763884 143.18247 
L 579.347155 142.90996 
L 580.110762 142.537052 
L 580.305233 142.393625 
L 580.420644 142.264542 
L 580.923953 141.604781 
L 582.09626 140.715538 
L 582.251408 140.514741 
L 582.835109 139.955378 
L 582.981404 139.826295 
L 583.466652 139.682869 
L 583.576206 139.58247 
L 583.976683 139.281275 
L 584.13186 139.094821 
L 585.576753 138.463745 
L 585.642719 138.349004 
L 586.040256 138.191235 
L 586.230055 138.133865 
L 586.64301 137.990438 
L 586.757609 137.803984 
L 587.121948 137.502789 
L 587.254352 137.316335 
L 588.236321 136.914741 
L 588.408845 136.785657 
L 588.563492 136.599203 
L 588.670915 136.427092 
L 588.906588 136.240637 
L 589.117162 136.111554 
L 589.401737 135.896414 
L 589.812782 135.70996 
L 590.04646 135.509163 
L 590.309168 135.136255 
L 590.432703 135.021514 
L 591.477085 134.505179 
L 591.586684 134.419124 
L 591.751831 134.29004 
L 591.832031 134.146614 
L 592.187808 133.945817 
L 592.405685 133.773705 
L 593.267061 133.386454 
L 594.009705 132.525896 
L 594.115094 132.411155 
L 594.635762 132.239044 
L 594.701905 132.152988 
L 594.921993 132.009562 
L 595.034914 131.83745 
L 595.197376 131.593625 
L 595.43757 131.450199 
L 595.587767 131.306773 
L 596.121101 131.163347 
L 596.233703 131.091633 
L 596.933048 130.560956 
L 597.158064 130.274104 
L 597.366961 130.14502 
L 597.804861 130.001594 
L 597.987576 129.800797 
L 598.174821 129.643028 
L 598.722616 128.983267 
L 599.201906 128.696414 
L 599.273677 128.653386 
L 599.466385 128.524303 
L 600.028632 128.094024 
L 600.24032 127.864542 
L 601.330852 127.176096 
L 601.756513 126.731474 
L 602.013568 126.588048 
L 602.359674 126.444622 
L 602.634015 126.301195 
L 603.74337 125.512351 
L 604.164493 125.368924 
L 604.675617 125.039044 
L 605.072097 124.694821 
L 605.184968 124.522709 
L 605.754562 124.336255 
L 605.937285 124.221514 
L 606.171812 124.049402 
L 606.37152 123.776892 
L 606.552183 123.604781 
L 607.464822 123.188845 
L 607.90698 122.72988 
L 608.105609 122.600797 
L 608.428459 122.156175 
L 608.609174 122.027092 
L 609.00377 121.826295 
L 609.108349 121.697211 
L 609.448843 121.396016 
L 609.597895 121.238247 
L 610.040147 120.793625 
L 610.732189 120.549801 
L 610.867338 120.320319 
L 611.710616 119.703586 
L 612.293937 119.545817 
L 612.801203 119.12988 
L 613.082862 118.929084 
L 613.105282 118.886056 
L 613.786016 118.713944 
L 613.908604 118.541833 
L 613.998348 118.398406 
L 614.189482 118.19761 
L 614.436886 117.98247 
L 614.586489 117.853386 
L 614.824446 117.638247 
L 614.900108 117.595219 
L 615.28586 117.408765 
L 615.48394 117.150598 
L 615.66692 116.964143 
L 615.814905 116.863745 
L 616.367459 116.304382 
L 616.464184 116.146614 
L 616.859018 116.060558 
L 617.059488 115.917131 
L 617.168455 115.773705 
L 617.821314 115.185657 
L 617.949215 114.92749 
L 618.240588 114.841434 
L 618.540213 114.698008 
L 618.85633 114.38247 
L 619.194903 114.181673 
L 619.702871 113.823108 
L 620.067961 113.679681 
L 620.202065 113.56494 
L 620.744071 112.905179 
L 620.972742 112.74741 
L 621.21001 112.618327 
L 622.232679 111.944223 
L 622.417608 111.815139 
L 622.620555 111.628685 
L 622.636364 111.6 
L 622.636364 111.6 
" style="fill:none;stroke:#92c6ff;stroke-linecap:round;stroke-width:1.5;"/>
   </g>
   <g id="line2d_30">
    <defs>
     <path d="M 0 2.5 
C 0.663008 2.5 1.29895 2.236584 1.767767 1.767767 
C 2.236584 1.29895 2.5 0.663008 2.5 0 
C 2.5 -0.663008 2.236584 -1.29895 1.767767 -1.767767 
C 1.29895 -2.236584 0.663008 -2.5 0 -2.5 
C -0.663008 -2.5 -1.29895 -2.236584 -1.767767 -1.767767 
C -2.236584 -1.29895 -2.5 -0.663008 -2.5 0 
C -2.5 0.663008 -2.236584 1.29895 -1.767767 1.767767 
C -1.29895 2.236584 -0.663008 2.5 0 2.5 
z
" id="m4d6fe936b2" style="stroke:#696969;"/>
    </defs>
    <g clip-path="url(#p267855af8c)">
     <use style="fill:#696969;stroke:#696969;" x="115.363636" xlink:href="#m4d6fe936b2" y="615.6"/>
    </g>
   </g>
   <g id="line2d_31">
    <g clip-path="url(#p267855af8c)">
     <use style="fill:#696969;stroke:#696969;" x="200.754313" xlink:href="#m4d6fe936b2" y="565.185657"/>
    </g>
   </g>
   <g id="line2d_32">
    <g clip-path="url(#p267855af8c)">
     <use style="fill:#696969;stroke:#696969;" x="245.289421" xlink:href="#m4d6fe936b2" y="514.785657"/>
    </g>
   </g>
   <g id="line2d_33">
    <g clip-path="url(#p267855af8c)">
     <use style="fill:#696969;stroke:#696969;" x="282.265878" xlink:href="#m4d6fe936b2" y="464.385657"/>
    </g>
   </g>
   <g id="line2d_34">
    <g clip-path="url(#p267855af8c)">
     <use style="fill:#696969;stroke:#696969;" x="311.16502" xlink:href="#m4d6fe936b2" y="413.985657"/>
    </g>
   </g>
   <g id="line2d_35">
    <g clip-path="url(#p267855af8c)">
     <use style="fill:#696969;stroke:#696969;" x="346.322071" xlink:href="#m4d6fe936b2" y="363.585657"/>
    </g>
   </g>
   <g id="line2d_36">
    <g clip-path="url(#p267855af8c)">
     <use style="fill:#696969;stroke:#696969;" x="387.620167" xlink:href="#m4d6fe936b2" y="313.185657"/>
    </g>
   </g>
   <g id="line2d_37">
    <g clip-path="url(#p267855af8c)">
     <use style="fill:#696969;stroke:#696969;" x="433.915437" xlink:href="#m4d6fe936b2" y="262.785657"/>
    </g>
   </g>
   <g id="line2d_38">
    <g clip-path="url(#p267855af8c)">
     <use style="fill:#696969;stroke:#696969;" x="492.440589" xlink:href="#m4d6fe936b2" y="212.385657"/>
    </g>
   </g>
   <g id="line2d_39">
    <g clip-path="url(#p267855af8c)">
     <use style="fill:#696969;stroke:#696969;" x="555.435418" xlink:href="#m4d6fe936b2" y="161.985657"/>
    </g>
   </g>
   <g id="line2d_40">
    <g clip-path="url(#p267855af8c)">
     <use style="fill:#696969;stroke:#696969;" x="622.636364" xlink:href="#m4d6fe936b2" y="111.6"/>
    </g>
   </g>
   <g id="patch_3">
    <path d="M 90 640.8 
L 90 86.4 
" style="fill:none;stroke:#cccccc;stroke-linecap:square;stroke-linejoin:miter;"/>
   </g>
   <g id="patch_4">
    <path d="M 648 640.8 
L 648 86.4 
" style="fill:none;stroke:#cccccc;stroke-linecap:square;stroke-linejoin:miter;"/>
   </g>
   <g id="patch_5">
    <path d="M 90 640.8 
L 648 640.8 
" style="fill:none;stroke:#cccccc;stroke-linecap:square;stroke-linejoin:miter;"/>
   </g>
   <g id="patch_6">
    <path d="M 90 86.4 
L 648 86.4 
" style="fill:none;stroke:#cccccc;stroke-linecap:square;stroke-linejoin:miter;"/>
   </g>
   <g id="text_15">
    <!-- 1 (2014-06-06) -->
    <defs>
     <path id="DejaVuSans-32"/>
     <path d="M 31 75.875 
Q 24.46875 64.65625 21.28125 53.65625 
Q 18.109375 42.671875 18.109375 31.390625 
Q 18.109375 20.125 21.3125 9.0625 
Q 24.515625 -2 31 -13.1875 
L 23.1875 -13.1875 
Q 15.875 -1.703125 12.234375 9.375 
Q 8.59375 20.453125 8.59375 31.390625 
Q 8.59375 42.28125 12.203125 53.3125 
Q 15.828125 64.359375 23.1875 75.875 
z
" id="DejaVuSans-40"/>
     <path d="M 37.796875 64.3125 
L 12.890625 25.390625 
L 37.796875 25.390625 
z
M 35.203125 72.90625 
L 47.609375 72.90625 
L 47.609375 25.390625 
L 58.015625 25.390625 
L 58.015625 17.1875 
L 47.609375 17.1875 
L 47.609375 0 
L 37.796875 0 
L 37.796875 17.1875 
L 4.890625 17.1875 
L 4.890625 26.703125 
z
" id="DejaVuSans-52"/>
     <path d="M 4.890625 31.390625 
L 31.203125 31.390625 
L 31.203125 23.390625 
L 4.890625 23.390625 
z
" id="DejaVuSans-45"/>
     <path d="M 8.015625 75.875 
L 15.828125 75.875 
Q 23.140625 64.359375 26.78125 53.3125 
Q 30.421875 42.28125 30.421875 31.390625 
Q 30.421875 20.453125 26.78125 9.375 
Q 23.140625 -1.703125 15.828125 -13.1875 
L 8.015625 -13.1875 
Q 14.5 -2 17.703125 9.0625 
Q 20.90625 20.125 20.90625 31.390625 
Q 20.90625 42.671875 17.703125 53.65625 
Q 14.5 64.65625 8.015625 75.875 
z
" id="DejaVuSans-41"/>
    </defs>
    <g style="fill:#262626;" transform="translate(120.363636 623.198437)scale(0.1 -0.1)">
     <use xlink:href="#DejaVuSans-49"/>
     <use x="63.623047" xlink:href="#DejaVuSans-32"/>
     <use x="95.410156" xlink:href="#DejaVuSans-40"/>
     <use x="134.423828" xlink:href="#DejaVuSans-50"/>
     <use x="198.046875" xlink:href="#DejaVuSans-48"/>
     <use x="261.669922" xlink:href="#DejaVuSans-49"/>
     <use x="325.292969" xlink:href="#DejaVuSans-52"/>
     <use x="388.916016" xlink:href="#DejaVuSans-45"/>
     <use x="425" xlink:href="#DejaVuSans-48"/>
     <use x="488.623047" xlink:href="#DejaVuSans-54"/>
     <use x="552.246094" xlink:href="#DejaVuSans-45"/>
     <use x="588.330078" xlink:href="#DejaVuSans-48"/>
     <use x="651.953125" xlink:href="#DejaVuSans-54"/>
     <use x="715.576172" xlink:href="#DejaVuSans-41"/>
    </g>
   </g>
   <g id="text_16">
    <!-- 3516 (2015-06-16) -->
    <g style="fill:#262626;" transform="translate(205.754313 572.784095)scale(0.1 -0.1)">
     <use xlink:href="#DejaVuSans-51"/>
     <use x="63.623047" xlink:href="#DejaVuSans-53"/>
     <use x="127.246094" xlink:href="#DejaVuSans-49"/>
     <use x="190.869141" xlink:href="#DejaVuSans-54"/>
     <use x="254.492188" xlink:href="#DejaVuSans-32"/>
     <use x="286.279297" xlink:href="#DejaVuSans-40"/>
     <use x="325.292969" xlink:href="#DejaVuSans-50"/>
     <use x="388.916016" xlink:href="#DejaVuSans-48"/>
     <use x="452.539062" xlink:href="#DejaVuSans-49"/>
     <use x="516.162109" xlink:href="#DejaVuSans-53"/>
     <use x="579.785156" xlink:href="#DejaVuSans-45"/>
     <use x="615.869141" xlink:href="#DejaVuSans-48"/>
     <use x="679.492188" xlink:href="#DejaVuSans-54"/>
     <use x="743.115234" xlink:href="#DejaVuSans-45"/>
     <use x="779.199219" xlink:href="#DejaVuSans-49"/>
     <use x="842.822266" xlink:href="#DejaVuSans-54"/>
     <use x="906.445312" xlink:href="#DejaVuSans-41"/>
    </g>
   </g>
   <g id="text_17">
    <!-- 7030 (2015-12-28) -->
    <g style="fill:#262626;" transform="translate(250.289421 522.384095)scale(0.1 -0.1)">
     <use xlink:href="#DejaVuSans-55"/>
     <use x="63.623047" xlink:href="#DejaVuSans-48"/>
     <use x="127.246094" xlink:href="#DejaVuSans-51"/>
     <use x="190.869141" xlink:href="#DejaVuSans-48"/>
     <use x="254.492188" xlink:href="#DejaVuSans-32"/>
     <use x="286.279297" xlink:href="#DejaVuSans-40"/>
     <use x="325.292969" xlink:href="#DejaVuSans-50"/>
     <use x="388.916016" xlink:href="#DejaVuSans-48"/>
     <use x="452.539062" xlink:href="#DejaVuSans-49"/>
     <use x="516.162109" xlink:href="#DejaVuSans-53"/>
     <use x="579.785156" xlink:href="#DejaVuSans-45"/>
     <use x="615.869141" xlink:href="#DejaVuSans-49"/>
     <use x="679.492188" xlink:href="#DejaVuSans-50"/>
     <use x="743.115234" xlink:href="#DejaVuSans-45"/>
     <use x="779.199219" xlink:href="#DejaVuSans-50"/>
     <use x="842.822266" xlink:href="#DejaVuSans-56"/>
     <use x="906.445312" xlink:href="#DejaVuSans-41"/>
    </g>
   </g>
   <g id="text_18">
    <!-- 10544 (2016-06-08) -->
    <g style="fill:#262626;" transform="translate(287.265878 471.984095)scale(0.1 -0.1)">
     <use xlink:href="#DejaVuSans-49"/>
     <use x="63.623047" xlink:href="#DejaVuSans-48"/>
     <use x="127.246094" xlink:href="#DejaVuSans-53"/>
     <use x="190.869141" xlink:href="#DejaVuSans-52"/>
     <use x="254.492188" xlink:href="#DejaVuSans-52"/>
     <use x="318.115234" xlink:href="#DejaVuSans-32"/>
     <use x="349.902344" xlink:href="#DejaVuSans-40"/>
     <use x="388.916016" xlink:href="#DejaVuSans-50"/>
     <use x="452.539062" xlink:href="#DejaVuSans-48"/>
     <use x="516.162109" xlink:href="#DejaVuSans-49"/>
     <use x="579.785156" xlink:href="#DejaVuSans-54"/>
     <use x="643.408203" xlink:href="#DejaVuSans-45"/>
     <use x="679.492188" xlink:href="#DejaVuSans-48"/>
     <use x="743.115234" xlink:href="#DejaVuSans-54"/>
     <use x="806.738281" xlink:href="#DejaVuSans-45"/>
     <use x="842.822266" xlink:href="#DejaVuSans-48"/>
     <use x="906.445312" xlink:href="#DejaVuSans-56"/>
     <use x="970.068359" xlink:href="#DejaVuSans-41"/>
    </g>
   </g>
   <g id="text_19">
    <!-- 14058 (2016-10-12) -->
    <g style="fill:#262626;" transform="translate(316.16502 421.584095)scale(0.1 -0.1)">
     <use xlink:href="#DejaVuSans-49"/>
     <use x="63.623047" xlink:href="#DejaVuSans-52"/>
     <use x="127.246094" xlink:href="#DejaVuSans-48"/>
     <use x="190.869141" xlink:href="#DejaVuSans-53"/>
     <use x="254.492188" xlink:href="#DejaVuSans-56"/>
     <use x="318.115234" xlink:href="#DejaVuSans-32"/>
     <use x="349.902344" xlink:href="#DejaVuSans-40"/>
     <use x="388.916016" xlink:href="#DejaVuSans-50"/>
     <use x="452.539062" xlink:href="#DejaVuSans-48"/>
     <use x="516.162109" xlink:href="#DejaVuSans-49"/>
     <use x="579.785156" xlink:href="#DejaVuSans-54"/>
     <use x="643.408203" xlink:href="#DejaVuSans-45"/>
     <use x="679.492188" xlink:href="#DejaVuSans-49"/>
     <use x="743.115234" xlink:href="#DejaVuSans-48"/>
     <use x="806.738281" xlink:href="#DejaVuSans-45"/>
     <use x="842.822266" xlink:href="#DejaVuSans-49"/>
     <use x="906.445312" xlink:href="#DejaVuSans-50"/>
     <use x="970.068359" xlink:href="#DejaVuSans-41"/>
    </g>
   </g>
   <g id="text_20">
    <!-- 17572 (2017-03-16) -->
    <g style="fill:#262626;" transform="translate(351.322071 371.184095)scale(0.1 -0.1)">
     <use xlink:href="#DejaVuSans-49"/>
     <use x="63.623047" xlink:href="#DejaVuSans-55"/>
     <use x="127.246094" xlink:href="#DejaVuSans-53"/>
     <use x="190.869141" xlink:href="#DejaVuSans-55"/>
     <use x="254.492188" xlink:href="#DejaVuSans-50"/>
     <use x="318.115234" xlink:href="#DejaVuSans-32"/>
     <use x="349.902344" xlink:href="#DejaVuSans-40"/>
     <use x="388.916016" xlink:href="#DejaVuSans-50"/>
     <use x="452.539062" xlink:href="#DejaVuSans-48"/>
     <use x="516.162109" xlink:href="#DejaVuSans-49"/>
     <use x="579.785156" xlink:href="#DejaVuSans-55"/>
     <use x="643.408203" xlink:href="#DejaVuSans-45"/>
     <use x="679.492188" xlink:href="#DejaVuSans-48"/>
     <use x="743.115234" xlink:href="#DejaVuSans-51"/>
     <use x="806.738281" xlink:href="#DejaVuSans-45"/>
     <use x="842.822266" xlink:href="#DejaVuSans-49"/>
     <use x="906.445312" xlink:href="#DejaVuSans-54"/>
     <use x="970.068359" xlink:href="#DejaVuSans-41"/>
    </g>
   </g>
   <g id="text_21">
    <!-- 21086 (2017-09-13) -->
    <g style="fill:#262626;" transform="translate(392.620167 320.784095)scale(0.1 -0.1)">
     <use xlink:href="#DejaVuSans-50"/>
     <use x="63.623047" xlink:href="#DejaVuSans-49"/>
     <use x="127.246094" xlink:href="#DejaVuSans-48"/>
     <use x="190.869141" xlink:href="#DejaVuSans-56"/>
     <use x="254.492188" xlink:href="#DejaVuSans-54"/>
     <use x="318.115234" xlink:href="#DejaVuSans-32"/>
     <use x="349.902344" xlink:href="#DejaVuSans-40"/>
     <use x="388.916016" xlink:href="#DejaVuSans-50"/>
     <use x="452.539062" xlink:href="#DejaVuSans-48"/>
     <use x="516.162109" xlink:href="#DejaVuSans-49"/>
     <use x="579.785156" xlink:href="#DejaVuSans-55"/>
     <use x="643.408203" xlink:href="#DejaVuSans-45"/>
     <use x="679.492188" xlink:href="#DejaVuSans-48"/>
     <use x="743.115234" xlink:href="#DejaVuSans-57"/>
     <use x="806.738281" xlink:href="#DejaVuSans-45"/>
     <use x="842.822266" xlink:href="#DejaVuSans-49"/>
     <use x="906.445312" xlink:href="#DejaVuSans-51"/>
     <use x="970.068359" xlink:href="#DejaVuSans-41"/>
    </g>
   </g>
   <g id="text_22">
    <!-- 24600 (2018-04-04) -->
    <g style="fill:#262626;" transform="translate(438.915437 270.384095)scale(0.1 -0.1)">
     <use xlink:href="#DejaVuSans-50"/>
     <use x="63.623047" xlink:href="#DejaVuSans-52"/>
     <use x="127.246094" xlink:href="#DejaVuSans-54"/>
     <use x="190.869141" xlink:href="#DejaVuSans-48"/>
     <use x="254.492188" xlink:href="#DejaVuSans-48"/>
     <use x="318.115234" xlink:href="#DejaVuSans-32"/>
     <use x="349.902344" xlink:href="#DejaVuSans-40"/>
     <use x="388.916016" xlink:href="#DejaVuSans-50"/>
     <use x="452.539062" xlink:href="#DejaVuSans-48"/>
     <use x="516.162109" xlink:href="#DejaVuSans-49"/>
     <use x="579.785156" xlink:href="#DejaVuSans-56"/>
     <use x="643.408203" xlink:href="#DejaVuSans-45"/>
     <use x="679.492188" xlink:href="#DejaVuSans-48"/>
     <use x="743.115234" xlink:href="#DejaVuSans-52"/>
     <use x="806.738281" xlink:href="#DejaVuSans-45"/>
     <use x="842.822266" xlink:href="#DejaVuSans-48"/>
     <use x="906.445312" xlink:href="#DejaVuSans-52"/>
     <use x="970.068359" xlink:href="#DejaVuSans-41"/>
    </g>
   </g>
   <g id="text_23">
    <!-- 28114 (2018-12-17) -->
    <g style="fill:#262626;" transform="translate(497.440589 219.984095)scale(0.1 -0.1)">
     <use xlink:href="#DejaVuSans-50"/>
     <use x="63.623047" xlink:href="#DejaVuSans-56"/>
     <use x="127.246094" xlink:href="#DejaVuSans-49"/>
     <use x="190.869141" xlink:href="#DejaVuSans-49"/>
     <use x="254.492188" xlink:href="#DejaVuSans-52"/>
     <use x="318.115234" xlink:href="#DejaVuSans-32"/>
     <use x="349.902344" xlink:href="#DejaVuSans-40"/>
     <use x="388.916016" xlink:href="#DejaVuSans-50"/>
     <use x="452.539062" xlink:href="#DejaVuSans-48"/>
     <use x="516.162109" xlink:href="#DejaVuSans-49"/>
     <use x="579.785156" xlink:href="#DejaVuSans-56"/>
     <use x="643.408203" xlink:href="#DejaVuSans-45"/>
     <use x="679.492188" xlink:href="#DejaVuSans-49"/>
     <use x="743.115234" xlink:href="#DejaVuSans-50"/>
     <use x="806.738281" xlink:href="#DejaVuSans-45"/>
     <use x="842.822266" xlink:href="#DejaVuSans-49"/>
     <use x="906.445312" xlink:href="#DejaVuSans-55"/>
     <use x="970.068359" xlink:href="#DejaVuSans-41"/>
    </g>
   </g>
   <g id="text_24">
    <!-- 31628 (2019-09-19) -->
    <g style="fill:#262626;" transform="translate(560.435418 169.584095)scale(0.1 -0.1)">
     <use xlink:href="#DejaVuSans-51"/>
     <use x="63.623047" xlink:href="#DejaVuSans-49"/>
     <use x="127.246094" xlink:href="#DejaVuSans-54"/>
     <use x="190.869141" xlink:href="#DejaVuSans-50"/>
     <use x="254.492188" xlink:href="#DejaVuSans-56"/>
     <use x="318.115234" xlink:href="#DejaVuSans-32"/>
     <use x="349.902344" xlink:href="#DejaVuSans-40"/>
     <use x="388.916016" xlink:href="#DejaVuSans-50"/>
     <use x="452.539062" xlink:href="#DejaVuSans-48"/>
     <use x="516.162109" xlink:href="#DejaVuSans-49"/>
     <use x="579.785156" xlink:href="#DejaVuSans-57"/>
     <use x="643.408203" xlink:href="#DejaVuSans-45"/>
     <use x="679.492188" xlink:href="#DejaVuSans-48"/>
     <use x="743.115234" xlink:href="#DejaVuSans-57"/>
     <use x="806.738281" xlink:href="#DejaVuSans-45"/>
     <use x="842.822266" xlink:href="#DejaVuSans-49"/>
     <use x="906.445312" xlink:href="#DejaVuSans-57"/>
     <use x="970.068359" xlink:href="#DejaVuSans-41"/>
    </g>
   </g>
   <g id="text_25">
    <!-- 35141 (2020-07-10) -->
    <g style="fill:#262626;" transform="translate(627.636364 119.198437)scale(0.1 -0.1)">
     <use xlink:href="#DejaVuSans-51"/>
     <use x="63.623047" xlink:href="#DejaVuSans-53"/>
     <use x="127.246094" xlink:href="#DejaVuSans-49"/>
     <use x="190.869141" xlink:href="#DejaVuSans-52"/>
     <use x="254.492188" xlink:href="#DejaVuSans-49"/>
     <use x="318.115234" xlink:href="#DejaVuSans-32"/>
     <use x="349.902344" xlink:href="#DejaVuSans-40"/>
     <use x="388.916016" xlink:href="#DejaVuSans-50"/>
     <use x="452.539062" xlink:href="#DejaVuSans-48"/>
     <use x="516.162109" xlink:href="#DejaVuSans-50"/>
     <use x="579.785156" xlink:href="#DejaVuSans-48"/>
     <use x="643.408203" xlink:href="#DejaVuSans-45"/>
     <use x="679.492188" xlink:href="#DejaVuSans-48"/>
     <use x="743.115234" xlink:href="#DejaVuSans-55"/>
     <use x="806.738281" xlink:href="#DejaVuSans-45"/>
     <use x="842.822266" xlink:href="#DejaVuSans-49"/>
     <use x="906.445312" xlink:href="#DejaVuSans-48"/>
     <use x="970.068359" xlink:href="#DejaVuSans-41"/>
    </g>
   </g>
   <g id="text_26">
    <!-- Created issues over time -->
    <defs>
     <path d="M 64.40625 67.28125 
L 64.40625 56.890625 
Q 59.421875 61.53125 53.78125 63.8125 
Q 48.140625 66.109375 41.796875 66.109375 
Q 29.296875 66.109375 22.65625 58.46875 
Q 16.015625 50.828125 16.015625 36.375 
Q 16.015625 21.96875 22.65625 14.328125 
Q 29.296875 6.6875 41.796875 6.6875 
Q 48.140625 6.6875 53.78125 8.984375 
Q 59.421875 11.28125 64.40625 15.921875 
L 64.40625 5.609375 
Q 59.234375 2.09375 53.4375 0.328125 
Q 47.65625 -1.421875 41.21875 -1.421875 
Q 24.65625 -1.421875 15.125 8.703125 
Q 5.609375 18.84375 5.609375 36.375 
Q 5.609375 53.953125 15.125 64.078125 
Q 24.65625 74.21875 41.21875 74.21875 
Q 47.75 74.21875 53.53125 72.484375 
Q 59.328125 70.75 64.40625 67.28125 
z
" id="DejaVuSans-67"/>
     <path d="M 41.109375 46.296875 
Q 39.59375 47.171875 37.8125 47.578125 
Q 36.03125 48 33.890625 48 
Q 26.265625 48 22.1875 43.046875 
Q 18.109375 38.09375 18.109375 28.8125 
L 18.109375 0 
L 9.078125 0 
L 9.078125 54.6875 
L 18.109375 54.6875 
L 18.109375 46.1875 
Q 20.953125 51.171875 25.484375 53.578125 
Q 30.03125 56 36.53125 56 
Q 37.453125 56 38.578125 55.875 
Q 39.703125 55.765625 41.0625 55.515625 
z
" id="DejaVuSans-114"/>
     <path d="M 56.203125 29.59375 
L 56.203125 25.203125 
L 14.890625 25.203125 
Q 15.484375 15.921875 20.484375 11.0625 
Q 25.484375 6.203125 34.421875 6.203125 
Q 39.59375 6.203125 44.453125 7.46875 
Q 49.3125 8.734375 54.109375 11.28125 
L 54.109375 2.78125 
Q 49.265625 0.734375 44.1875 -0.34375 
Q 39.109375 -1.421875 33.890625 -1.421875 
Q 20.796875 -1.421875 13.15625 6.1875 
Q 5.515625 13.8125 5.515625 26.8125 
Q 5.515625 40.234375 12.765625 48.109375 
Q 20.015625 56 32.328125 56 
Q 43.359375 56 49.78125 48.890625 
Q 56.203125 41.796875 56.203125 29.59375 
z
M 47.21875 32.234375 
Q 47.125 39.59375 43.09375 43.984375 
Q 39.0625 48.390625 32.421875 48.390625 
Q 24.90625 48.390625 20.390625 44.140625 
Q 15.875 39.890625 15.1875 32.171875 
z
" id="DejaVuSans-101"/>
     <path d="M 34.28125 27.484375 
Q 23.390625 27.484375 19.1875 25 
Q 14.984375 22.515625 14.984375 16.5 
Q 14.984375 11.71875 18.140625 8.90625 
Q 21.296875 6.109375 26.703125 6.109375 
Q 34.1875 6.109375 38.703125 11.40625 
Q 43.21875 16.703125 43.21875 25.484375 
L 43.21875 27.484375 
z
M 52.203125 31.203125 
L 52.203125 0 
L 43.21875 0 
L 43.21875 8.296875 
Q 40.140625 3.328125 35.546875 0.953125 
Q 30.953125 -1.421875 24.3125 -1.421875 
Q 15.921875 -1.421875 10.953125 3.296875 
Q 6 8.015625 6 15.921875 
Q 6 25.140625 12.171875 29.828125 
Q 18.359375 34.515625 30.609375 34.515625 
L 43.21875 34.515625 
L 43.21875 35.40625 
Q 43.21875 41.609375 39.140625 45 
Q 35.0625 48.390625 27.6875 48.390625 
Q 23 48.390625 18.546875 47.265625 
Q 14.109375 46.140625 10.015625 43.890625 
L 10.015625 52.203125 
Q 14.9375 54.109375 19.578125 55.046875 
Q 24.21875 56 28.609375 56 
Q 40.484375 56 46.34375 49.84375 
Q 52.203125 43.703125 52.203125 31.203125 
z
" id="DejaVuSans-97"/>
     <path d="M 18.3125 70.21875 
L 18.3125 54.6875 
L 36.8125 54.6875 
L 36.8125 47.703125 
L 18.3125 47.703125 
L 18.3125 18.015625 
Q 18.3125 11.328125 20.140625 9.421875 
Q 21.96875 7.515625 27.59375 7.515625 
L 36.8125 7.515625 
L 36.8125 0 
L 27.59375 0 
Q 17.1875 0 13.234375 3.875 
Q 9.28125 7.765625 9.28125 18.015625 
L 9.28125 47.703125 
L 2.6875 47.703125 
L 2.6875 54.6875 
L 9.28125 54.6875 
L 9.28125 70.21875 
z
" id="DejaVuSans-116"/>
     <path d="M 45.40625 46.390625 
L 45.40625 75.984375 
L 54.390625 75.984375 
L 54.390625 0 
L 45.40625 0 
L 45.40625 8.203125 
Q 42.578125 3.328125 38.25 0.953125 
Q 33.9375 -1.421875 27.875 -1.421875 
Q 17.96875 -1.421875 11.734375 6.484375 
Q 5.515625 14.40625 5.515625 27.296875 
Q 5.515625 40.1875 11.734375 48.09375 
Q 17.96875 56 27.875 56 
Q 33.9375 56 38.25 53.625 
Q 42.578125 51.265625 45.40625 46.390625 
z
M 14.796875 27.296875 
Q 14.796875 17.390625 18.875 11.75 
Q 22.953125 6.109375 30.078125 6.109375 
Q 37.203125 6.109375 41.296875 11.75 
Q 45.40625 17.390625 45.40625 27.296875 
Q 45.40625 37.203125 41.296875 42.84375 
Q 37.203125 48.484375 30.078125 48.484375 
Q 22.953125 48.484375 18.875 42.84375 
Q 14.796875 37.203125 14.796875 27.296875 
z
" id="DejaVuSans-100"/>
     <path d="M 9.421875 54.6875 
L 18.40625 54.6875 
L 18.40625 0 
L 9.421875 0 
z
M 9.421875 75.984375 
L 18.40625 75.984375 
L 18.40625 64.59375 
L 9.421875 64.59375 
z
" id="DejaVuSans-105"/>
     <path d="M 44.28125 53.078125 
L 44.28125 44.578125 
Q 40.484375 46.53125 36.375 47.5 
Q 32.28125 48.484375 27.875 48.484375 
Q 21.1875 48.484375 17.84375 46.4375 
Q 14.5 44.390625 14.5 40.28125 
Q 14.5 37.15625 16.890625 35.375 
Q 19.28125 33.59375 26.515625 31.984375 
L 29.59375 31.296875 
Q 39.15625 29.25 43.1875 25.515625 
Q 47.21875 21.78125 47.21875 15.09375 
Q 47.21875 7.46875 41.1875 3.015625 
Q 35.15625 -1.421875 24.609375 -1.421875 
Q 20.21875 -1.421875 15.453125 -0.5625 
Q 10.6875 0.296875 5.421875 2 
L 5.421875 11.28125 
Q 10.40625 8.6875 15.234375 7.390625 
Q 20.0625 6.109375 24.8125 6.109375 
Q 31.15625 6.109375 34.5625 8.28125 
Q 37.984375 10.453125 37.984375 14.40625 
Q 37.984375 18.0625 35.515625 20.015625 
Q 33.0625 21.96875 24.703125 23.78125 
L 21.578125 24.515625 
Q 13.234375 26.265625 9.515625 29.90625 
Q 5.8125 33.546875 5.8125 39.890625 
Q 5.8125 47.609375 11.28125 51.796875 
Q 16.75 56 26.8125 56 
Q 31.78125 56 36.171875 55.265625 
Q 40.578125 54.546875 44.28125 53.078125 
z
" id="DejaVuSans-115"/>
     <path d="M 8.5 21.578125 
L 8.5 54.6875 
L 17.484375 54.6875 
L 17.484375 21.921875 
Q 17.484375 14.15625 20.5 10.265625 
Q 23.53125 6.390625 29.59375 6.390625 
Q 36.859375 6.390625 41.078125 11.03125 
Q 45.3125 15.671875 45.3125 23.6875 
L 45.3125 54.6875 
L 54.296875 54.6875 
L 54.296875 0 
L 45.3125 0 
L 45.3125 8.40625 
Q 42.046875 3.421875 37.71875 1 
Q 33.40625 -1.421875 27.6875 -1.421875 
Q 18.265625 -1.421875 13.375 4.4375 
Q 8.5 10.296875 8.5 21.578125 
z
M 31.109375 56 
z
" id="DejaVuSans-117"/>
     <path d="M 30.609375 48.390625 
Q 23.390625 48.390625 19.1875 42.75 
Q 14.984375 37.109375 14.984375 27.296875 
Q 14.984375 17.484375 19.15625 11.84375 
Q 23.34375 6.203125 30.609375 6.203125 
Q 37.796875 6.203125 41.984375 11.859375 
Q 46.1875 17.53125 46.1875 27.296875 
Q 46.1875 37.015625 41.984375 42.703125 
Q 37.796875 48.390625 30.609375 48.390625 
z
M 30.609375 56 
Q 42.328125 56 49.015625 48.375 
Q 55.71875 40.765625 55.71875 27.296875 
Q 55.71875 13.875 49.015625 6.21875 
Q 42.328125 -1.421875 30.609375 -1.421875 
Q 18.84375 -1.421875 12.171875 6.21875 
Q 5.515625 13.875 5.515625 27.296875 
Q 5.515625 40.765625 12.171875 48.375 
Q 18.84375 56 30.609375 56 
z
" id="DejaVuSans-111"/>
     <path d="M 2.984375 54.6875 
L 12.5 54.6875 
L 29.59375 8.796875 
L 46.6875 54.6875 
L 56.203125 54.6875 
L 35.6875 0 
L 23.484375 0 
z
" id="DejaVuSans-118"/>
     <path d="M 52 44.1875 
Q 55.375 50.25 60.0625 53.125 
Q 64.75 56 71.09375 56 
Q 79.640625 56 84.28125 50.015625 
Q 88.921875 44.046875 88.921875 33.015625 
L 88.921875 0 
L 79.890625 0 
L 79.890625 32.71875 
Q 79.890625 40.578125 77.09375 44.375 
Q 74.3125 48.1875 68.609375 48.1875 
Q 61.625 48.1875 57.5625 43.546875 
Q 53.515625 38.921875 53.515625 30.90625 
L 53.515625 0 
L 44.484375 0 
L 44.484375 32.71875 
Q 44.484375 40.625 41.703125 44.40625 
Q 38.921875 48.1875 33.109375 48.1875 
Q 26.21875 48.1875 22.15625 43.53125 
Q 18.109375 38.875 18.109375 30.90625 
L 18.109375 0 
L 9.078125 0 
L 9.078125 54.6875 
L 18.109375 54.6875 
L 18.109375 46.1875 
Q 21.1875 51.21875 25.484375 53.609375 
Q 29.78125 56 35.6875 56 
Q 41.65625 56 45.828125 52.96875 
Q 50 49.953125 52 44.1875 
z
" id="DejaVuSans-109"/>
    </defs>
    <g style="fill:#262626;" transform="translate(294.061875 80.4)scale(0.12 -0.12)">
     <use xlink:href="#DejaVuSans-67"/>
     <use x="69.824219" xlink:href="#DejaVuSans-114"/>
     <use x="108.6875" xlink:href="#DejaVuSans-101"/>
     <use x="170.210938" xlink:href="#DejaVuSans-97"/>
     <use x="231.490234" xlink:href="#DejaVuSans-116"/>
     <use x="270.699219" xlink:href="#DejaVuSans-101"/>
     <use x="332.222656" xlink:href="#DejaVuSans-100"/>
     <use x="395.699219" xlink:href="#DejaVuSans-32"/>
     <use x="427.486328" xlink:href="#DejaVuSans-105"/>
     <use x="455.269531" xlink:href="#DejaVuSans-115"/>
     <use x="507.369141" xlink:href="#DejaVuSans-115"/>
     <use x="559.46875" xlink:href="#DejaVuSans-117"/>
     <use x="622.847656" xlink:href="#DejaVuSans-101"/>
     <use x="684.371094" xlink:href="#DejaVuSans-115"/>
     <use x="736.470703" xlink:href="#DejaVuSans-32"/>
     <use x="768.257812" xlink:href="#DejaVuSans-111"/>
     <use x="829.439453" xlink:href="#DejaVuSans-118"/>
     <use x="888.619141" xlink:href="#DejaVuSans-101"/>
     <use x="950.142578" xlink:href="#DejaVuSans-114"/>
     <use x="991.255859" xlink:href="#DejaVuSans-32"/>
     <use x="1023.042969" xlink:href="#DejaVuSans-116"/>
     <use x="1062.251953" xlink:href="#DejaVuSans-105"/>
     <use x="1090.035156" xlink:href="#DejaVuSans-109"/>
     <use x="1187.447266" xlink:href="#DejaVuSans-101"/>
    </g>
   </g>
  </g>
 </g>
 <defs>
  <clipPath id="p267855af8c">
   <rect height="554.4" width="558" x="90" y="86.4"/>
  </clipPath>
 </defs>
</svg>
