<?xml version="1.0" encoding="utf-8" standalone="no"?>
<!DOCTYPE svg PUBLIC "-//W3C//DTD SVG 1.1//EN"
  "http://www.w3.org/Graphics/SVG/1.1/DTD/svg11.dtd">
<!-- Created with matplotlib (https://matplotlib.org/) -->
<svg height="720pt" version="1.1" viewBox="0 0 720 720" width="720pt" xmlns="http://www.w3.org/2000/svg" xmlns:xlink="http://www.w3.org/1999/xlink">
 <defs>
  <style type="text/css">
*{stroke-linecap:butt;stroke-linejoin:round;}
  </style>
 </defs>
 <g id="figure_1">
  <g id="patch_1">
   <path d="M 0 720 
L 720 720 
L 720 0 
L 0 0 
z
" style="fill:#ffffff;"/>
  </g>
  <g id="axes_1">
   <g id="patch_2">
    <path d="M 90 640.8 
L 648 640.8 
L 648 86.4 
L 90 86.4 
z
" style="fill:#ffffff;"/>
   </g>
   <g id="matplotlib.axis_1">
    <g id="xtick_1">
     <g id="line2d_1">
      <path clip-path="url(#p4864a14195)" d="M 164.161184 640.8 
L 164.161184 86.4 
" style="fill:none;stroke:#cccccc;stroke-linecap:round;stroke-width:0.8;"/>
     </g>
     <g id="line2d_2"/>
     <g id="text_1">
      <!-- 2015 -->
      <defs>
       <path d="M 19.1875 8.296875 
L 53.609375 8.296875 
L 53.609375 0 
L 7.328125 0 
L 7.328125 8.296875 
Q 12.9375 14.109375 22.625 23.890625 
Q 32.328125 33.6875 34.8125 36.53125 
Q 39.546875 41.84375 41.421875 45.53125 
Q 43.3125 49.21875 43.3125 52.78125 
Q 43.3125 58.59375 39.234375 62.25 
Q 35.15625 65.921875 28.609375 65.921875 
Q 23.96875 65.921875 18.8125 64.3125 
Q 13.671875 62.703125 7.8125 59.421875 
L 7.8125 69.390625 
Q 13.765625 71.78125 18.9375 73 
Q 24.125 74.21875 28.421875 74.21875 
Q 39.75 74.21875 46.484375 68.546875 
Q 53.21875 62.890625 53.21875 53.421875 
Q 53.21875 48.921875 51.53125 44.890625 
Q 49.859375 40.875 45.40625 35.40625 
Q 44.1875 33.984375 37.640625 27.21875 
Q 31.109375 20.453125 19.1875 8.296875 
z
" id="DejaVuSans-50"/>
       <path d="M 31.78125 66.40625 
Q 24.171875 66.40625 20.328125 58.90625 
Q 16.5 51.421875 16.5 36.375 
Q 16.5 21.390625 20.328125 13.890625 
Q 24.171875 6.390625 31.78125 6.390625 
Q 39.453125 6.390625 43.28125 13.890625 
Q 47.125 21.390625 47.125 36.375 
Q 47.125 51.421875 43.28125 58.90625 
Q 39.453125 66.40625 31.78125 66.40625 
z
M 31.78125 74.21875 
Q 44.046875 74.21875 50.515625 64.515625 
Q 56.984375 54.828125 56.984375 36.375 
Q 56.984375 17.96875 50.515625 8.265625 
Q 44.046875 -1.421875 31.78125 -1.421875 
Q 19.53125 -1.421875 13.0625 8.265625 
Q 6.59375 17.96875 6.59375 36.375 
Q 6.59375 54.828125 13.0625 64.515625 
Q 19.53125 74.21875 31.78125 74.21875 
z
" id="DejaVuSans-48"/>
       <path d="M 12.40625 8.296875 
L 28.515625 8.296875 
L 28.515625 63.921875 
L 10.984375 60.40625 
L 10.984375 69.390625 
L 28.421875 72.90625 
L 38.28125 72.90625 
L 38.28125 8.296875 
L 54.390625 8.296875 
L 54.390625 0 
L 12.40625 0 
z
" id="DejaVuSans-49"/>
       <path d="M 10.796875 72.90625 
L 49.515625 72.90625 
L 49.515625 64.59375 
L 19.828125 64.59375 
L 19.828125 46.734375 
Q 21.96875 47.46875 24.109375 47.828125 
Q 26.265625 48.1875 28.421875 48.1875 
Q 40.625 48.1875 47.75 41.5 
Q 54.890625 34.8125 54.890625 23.390625 
Q 54.890625 11.625 47.5625 5.09375 
Q 40.234375 -1.421875 26.90625 -1.421875 
Q 22.3125 -1.421875 17.546875 -0.640625 
Q 12.796875 0.140625 7.71875 1.703125 
L 7.71875 11.625 
Q 12.109375 9.234375 16.796875 8.0625 
Q 21.484375 6.890625 26.703125 6.890625 
Q 35.15625 6.890625 40.078125 11.328125 
Q 45.015625 15.765625 45.015625 23.390625 
Q 45.015625 31 40.078125 35.4375 
Q 35.15625 39.890625 26.703125 39.890625 
Q 22.75 39.890625 18.8125 39.015625 
Q 14.890625 38.140625 10.796875 36.28125 
z
" id="DejaVuSans-53"/>
      </defs>
      <g style="fill:#262626;" transform="translate(151.436184 651.898438)scale(0.1 -0.1)">
       <use xlink:href="#DejaVuSans-50"/>
       <use x="63.623047" xlink:href="#DejaVuSans-48"/>
       <use x="127.246094" xlink:href="#DejaVuSans-49"/>
       <use x="190.869141" xlink:href="#DejaVuSans-53"/>
      </g>
     </g>
    </g>
    <g id="xtick_2">
     <g id="line2d_3">
      <path clip-path="url(#p4864a14195)" d="M 249.789447 640.8 
L 249.789447 86.4 
" style="fill:none;stroke:#cccccc;stroke-linecap:round;stroke-width:0.8;"/>
     </g>
     <g id="line2d_4"/>
     <g id="text_2">
      <!-- 2016 -->
      <defs>
       <path d="M 33.015625 40.375 
Q 26.375 40.375 22.484375 35.828125 
Q 18.609375 31.296875 18.609375 23.390625 
Q 18.609375 15.53125 22.484375 10.953125 
Q 26.375 6.390625 33.015625 6.390625 
Q 39.65625 6.390625 43.53125 10.953125 
Q 47.40625 15.53125 47.40625 23.390625 
Q 47.40625 31.296875 43.53125 35.828125 
Q 39.65625 40.375 33.015625 40.375 
z
M 52.59375 71.296875 
L 52.59375 62.3125 
Q 48.875 64.0625 45.09375 64.984375 
Q 41.3125 65.921875 37.59375 65.921875 
Q 27.828125 65.921875 22.671875 59.328125 
Q 17.53125 52.734375 16.796875 39.40625 
Q 19.671875 43.65625 24.015625 45.921875 
Q 28.375 48.1875 33.59375 48.1875 
Q 44.578125 48.1875 50.953125 41.515625 
Q 57.328125 34.859375 57.328125 23.390625 
Q 57.328125 12.15625 50.6875 5.359375 
Q 44.046875 -1.421875 33.015625 -1.421875 
Q 20.359375 -1.421875 13.671875 8.265625 
Q 6.984375 17.96875 6.984375 36.375 
Q 6.984375 53.65625 15.1875 63.9375 
Q 23.390625 74.21875 37.203125 74.21875 
Q 40.921875 74.21875 44.703125 73.484375 
Q 48.484375 72.75 52.59375 71.296875 
z
" id="DejaVuSans-54"/>
      </defs>
      <g style="fill:#262626;" transform="translate(237.064447 651.898438)scale(0.1 -0.1)">
       <use xlink:href="#DejaVuSans-50"/>
       <use x="63.623047" xlink:href="#DejaVuSans-48"/>
       <use x="127.246094" xlink:href="#DejaVuSans-49"/>
       <use x="190.869141" xlink:href="#DejaVuSans-54"/>
      </g>
     </g>
    </g>
    <g id="xtick_3">
     <g id="line2d_5">
      <path clip-path="url(#p4864a14195)" d="M 335.652307 640.8 
L 335.652307 86.4 
" style="fill:none;stroke:#cccccc;stroke-linecap:round;stroke-width:0.8;"/>
     </g>
     <g id="line2d_6"/>
     <g id="text_3">
      <!-- 2017 -->
      <defs>
       <path d="M 8.203125 72.90625 
L 55.078125 72.90625 
L 55.078125 68.703125 
L 28.609375 0 
L 18.3125 0 
L 43.21875 64.59375 
L 8.203125 64.59375 
z
" id="DejaVuSans-55"/>
      </defs>
      <g style="fill:#262626;" transform="translate(322.927307 651.898438)scale(0.1 -0.1)">
       <use xlink:href="#DejaVuSans-50"/>
       <use x="63.623047" xlink:href="#DejaVuSans-48"/>
       <use x="127.246094" xlink:href="#DejaVuSans-49"/>
       <use x="190.869141" xlink:href="#DejaVuSans-55"/>
      </g>
     </g>
    </g>
    <g id="xtick_4">
     <g id="line2d_7">
      <path clip-path="url(#p4864a14195)" d="M 421.28057 640.8 
L 421.28057 86.4 
" style="fill:none;stroke:#cccccc;stroke-linecap:round;stroke-width:0.8;"/>
     </g>
     <g id="line2d_8"/>
     <g id="text_4">
      <!-- 2018 -->
      <defs>
       <path d="M 31.78125 34.625 
Q 24.75 34.625 20.71875 30.859375 
Q 16.703125 27.09375 16.703125 20.515625 
Q 16.703125 13.921875 20.71875 10.15625 
Q 24.75 6.390625 31.78125 6.390625 
Q 38.8125 6.390625 42.859375 10.171875 
Q 46.921875 13.96875 46.921875 20.515625 
Q 46.921875 27.09375 42.890625 30.859375 
Q 38.875 34.625 31.78125 34.625 
z
M 21.921875 38.8125 
Q 15.578125 40.375 12.03125 44.71875 
Q 8.5 49.078125 8.5 55.328125 
Q 8.5 64.0625 14.71875 69.140625 
Q 20.953125 74.21875 31.78125 74.21875 
Q 42.671875 74.21875 48.875 69.140625 
Q 55.078125 64.0625 55.078125 55.328125 
Q 55.078125 49.078125 51.53125 44.71875 
Q 48 40.375 41.703125 38.8125 
Q 48.828125 37.15625 52.796875 32.3125 
Q 56.78125 27.484375 56.78125 20.515625 
Q 56.78125 9.90625 50.3125 4.234375 
Q 43.84375 -1.421875 31.78125 -1.421875 
Q 19.734375 -1.421875 13.25 4.234375 
Q 6.78125 9.90625 6.78125 20.515625 
Q 6.78125 27.484375 10.78125 32.3125 
Q 14.796875 37.15625 21.921875 38.8125 
z
M 18.3125 54.390625 
Q 18.3125 48.734375 21.84375 45.5625 
Q 25.390625 42.390625 31.78125 42.390625 
Q 38.140625 42.390625 41.71875 45.5625 
Q 45.3125 48.734375 45.3125 54.390625 
Q 45.3125 60.0625 41.71875 63.234375 
Q 38.140625 66.40625 31.78125 66.40625 
Q 25.390625 66.40625 21.84375 63.234375 
Q 18.3125 60.0625 18.3125 54.390625 
z
" id="DejaVuSans-56"/>
      </defs>
      <g style="fill:#262626;" transform="translate(408.55557 651.898438)scale(0.1 -0.1)">
       <use xlink:href="#DejaVuSans-50"/>
       <use x="63.623047" xlink:href="#DejaVuSans-48"/>
       <use x="127.246094" xlink:href="#DejaVuSans-49"/>
       <use x="190.869141" xlink:href="#DejaVuSans-56"/>
      </g>
     </g>
    </g>
    <g id="xtick_5">
     <g id="line2d_9">
      <path clip-path="url(#p4864a14195)" d="M 506.908833 640.8 
L 506.908833 86.4 
" style="fill:none;stroke:#cccccc;stroke-linecap:round;stroke-width:0.8;"/>
     </g>
     <g id="line2d_10"/>
     <g id="text_5">
      <!-- 2019 -->
      <defs>
       <path d="M 10.984375 1.515625 
L 10.984375 10.5 
Q 14.703125 8.734375 18.5 7.8125 
Q 22.3125 6.890625 25.984375 6.890625 
Q 35.75 6.890625 40.890625 13.453125 
Q 46.046875 20.015625 46.78125 33.40625 
Q 43.953125 29.203125 39.59375 26.953125 
Q 35.25 24.703125 29.984375 24.703125 
Q 19.046875 24.703125 12.671875 31.3125 
Q 6.296875 37.9375 6.296875 49.421875 
Q 6.296875 60.640625 12.9375 67.421875 
Q 19.578125 74.21875 30.609375 74.21875 
Q 43.265625 74.21875 49.921875 64.515625 
Q 56.59375 54.828125 56.59375 36.375 
Q 56.59375 19.140625 48.40625 8.859375 
Q 40.234375 -1.421875 26.421875 -1.421875 
Q 22.703125 -1.421875 18.890625 -0.6875 
Q 15.09375 0.046875 10.984375 1.515625 
z
M 30.609375 32.421875 
Q 37.25 32.421875 41.125 36.953125 
Q 45.015625 41.5 45.015625 49.421875 
Q 45.015625 57.28125 41.125 61.84375 
Q 37.25 66.40625 30.609375 66.40625 
Q 23.96875 66.40625 20.09375 61.84375 
Q 16.21875 57.28125 16.21875 49.421875 
Q 16.21875 41.5 20.09375 36.953125 
Q 23.96875 32.421875 30.609375 32.421875 
z
" id="DejaVuSans-57"/>
      </defs>
      <g style="fill:#262626;" transform="translate(494.183833 651.898438)scale(0.1 -0.1)">
       <use xlink:href="#DejaVuSans-50"/>
       <use x="63.623047" xlink:href="#DejaVuSans-48"/>
       <use x="127.246094" xlink:href="#DejaVuSans-49"/>
       <use x="190.869141" xlink:href="#DejaVuSans-57"/>
      </g>
     </g>
    </g>
    <g id="xtick_6">
     <g id="line2d_11">
      <path clip-path="url(#p4864a14195)" d="M 592.537096 640.8 
L 592.537096 86.4 
" style="fill:none;stroke:#cccccc;stroke-linecap:round;stroke-width:0.8;"/>
     </g>
     <g id="line2d_12"/>
     <g id="text_6">
      <!-- 2020 -->
      <g style="fill:#262626;" transform="translate(579.812096 651.898438)scale(0.1 -0.1)">
       <use xlink:href="#DejaVuSans-50"/>
       <use x="63.623047" xlink:href="#DejaVuSans-48"/>
       <use x="127.246094" xlink:href="#DejaVuSans-50"/>
       <use x="190.869141" xlink:href="#DejaVuSans-48"/>
      </g>
     </g>
    </g>
   </g>
   <g id="matplotlib.axis_2">
    <g id="ytick_1">
     <g id="line2d_13">
      <path clip-path="url(#p4864a14195)" d="M 90 615.61466 
L 648 615.61466 
" style="fill:none;stroke:#cccccc;stroke-linecap:round;stroke-width:0.8;"/>
     </g>
     <g id="line2d_14"/>
     <g id="text_7">
      <!-- 0 -->
      <g style="fill:#262626;" transform="translate(80.1375 619.413879)scale(0.1 -0.1)">
       <use xlink:href="#DejaVuSans-48"/>
      </g>
     </g>
    </g>
    <g id="ytick_2">
     <g id="line2d_15">
      <path clip-path="url(#p4864a14195)" d="M 90 542.314099 
L 648 542.314099 
" style="fill:none;stroke:#cccccc;stroke-linecap:round;stroke-width:0.8;"/>
     </g>
     <g id="line2d_16"/>
     <g id="text_8">
      <!-- 5000 -->
      <g style="fill:#262626;" transform="translate(61.05 546.113317)scale(0.1 -0.1)">
       <use xlink:href="#DejaVuSans-53"/>
       <use x="63.623047" xlink:href="#DejaVuSans-48"/>
       <use x="127.246094" xlink:href="#DejaVuSans-48"/>
       <use x="190.869141" xlink:href="#DejaVuSans-48"/>
      </g>
     </g>
    </g>
    <g id="ytick_3">
     <g id="line2d_17">
      <path clip-path="url(#p4864a14195)" d="M 90 469.013537 
L 648 469.013537 
" style="fill:none;stroke:#cccccc;stroke-linecap:round;stroke-width:0.8;"/>
     </g>
     <g id="line2d_18"/>
     <g id="text_9">
      <!-- 10000 -->
      <g style="fill:#262626;" transform="translate(54.6875 472.812756)scale(0.1 -0.1)">
       <use xlink:href="#DejaVuSans-49"/>
       <use x="63.623047" xlink:href="#DejaVuSans-48"/>
       <use x="127.246094" xlink:href="#DejaVuSans-48"/>
       <use x="190.869141" xlink:href="#DejaVuSans-48"/>
       <use x="254.492188" xlink:href="#DejaVuSans-48"/>
      </g>
     </g>
    </g>
    <g id="ytick_4">
     <g id="line2d_19">
      <path clip-path="url(#p4864a14195)" d="M 90 395.712976 
L 648 395.712976 
" style="fill:none;stroke:#cccccc;stroke-linecap:round;stroke-width:0.8;"/>
     </g>
     <g id="line2d_20"/>
     <g id="text_10">
      <!-- 15000 -->
      <g style="fill:#262626;" transform="translate(54.6875 399.512195)scale(0.1 -0.1)">
       <use xlink:href="#DejaVuSans-49"/>
       <use x="63.623047" xlink:href="#DejaVuSans-53"/>
       <use x="127.246094" xlink:href="#DejaVuSans-48"/>
       <use x="190.869141" xlink:href="#DejaVuSans-48"/>
       <use x="254.492188" xlink:href="#DejaVuSans-48"/>
      </g>
     </g>
    </g>
    <g id="ytick_5">
     <g id="line2d_21">
      <path clip-path="url(#p4864a14195)" d="M 90 322.412415 
L 648 322.412415 
" style="fill:none;stroke:#cccccc;stroke-linecap:round;stroke-width:0.8;"/>
     </g>
     <g id="line2d_22"/>
     <g id="text_11">
      <!-- 20000 -->
      <g style="fill:#262626;" transform="translate(54.6875 326.211633)scale(0.1 -0.1)">
       <use xlink:href="#DejaVuSans-50"/>
       <use x="63.623047" xlink:href="#DejaVuSans-48"/>
       <use x="127.246094" xlink:href="#DejaVuSans-48"/>
       <use x="190.869141" xlink:href="#DejaVuSans-48"/>
       <use x="254.492188" xlink:href="#DejaVuSans-48"/>
      </g>
     </g>
    </g>
    <g id="ytick_6">
     <g id="line2d_23">
      <path clip-path="url(#p4864a14195)" d="M 90 249.111853 
L 648 249.111853 
" style="fill:none;stroke:#cccccc;stroke-linecap:round;stroke-width:0.8;"/>
     </g>
     <g id="line2d_24"/>
     <g id="text_12">
      <!-- 25000 -->
      <g style="fill:#262626;" transform="translate(54.6875 252.911072)scale(0.1 -0.1)">
       <use xlink:href="#DejaVuSans-50"/>
       <use x="63.623047" xlink:href="#DejaVuSans-53"/>
       <use x="127.246094" xlink:href="#DejaVuSans-48"/>
       <use x="190.869141" xlink:href="#DejaVuSans-48"/>
       <use x="254.492188" xlink:href="#DejaVuSans-48"/>
      </g>
     </g>
    </g>
    <g id="ytick_7">
     <g id="line2d_25">
      <path clip-path="url(#p4864a14195)" d="M 90 175.811292 
L 648 175.811292 
" style="fill:none;stroke:#cccccc;stroke-linecap:round;stroke-width:0.8;"/>
     </g>
     <g id="line2d_26"/>
     <g id="text_13">
      <!-- 30000 -->
      <defs>
       <path d="M 40.578125 39.3125 
Q 47.65625 37.796875 51.625 33 
Q 55.609375 28.21875 55.609375 21.1875 
Q 55.609375 10.40625 48.1875 4.484375 
Q 40.765625 -1.421875 27.09375 -1.421875 
Q 22.515625 -1.421875 17.65625 -0.515625 
Q 12.796875 0.390625 7.625 2.203125 
L 7.625 11.71875 
Q 11.71875 9.328125 16.59375 8.109375 
Q 21.484375 6.890625 26.8125 6.890625 
Q 36.078125 6.890625 40.9375 10.546875 
Q 45.796875 14.203125 45.796875 21.1875 
Q 45.796875 27.640625 41.28125 31.265625 
Q 36.765625 34.90625 28.71875 34.90625 
L 20.21875 34.90625 
L 20.21875 43.015625 
L 29.109375 43.015625 
Q 36.375 43.015625 40.234375 45.921875 
Q 44.09375 48.828125 44.09375 54.296875 
Q 44.09375 59.90625 40.109375 62.90625 
Q 36.140625 65.921875 28.71875 65.921875 
Q 24.65625 65.921875 20.015625 65.03125 
Q 15.375 64.15625 9.8125 62.3125 
L 9.8125 71.09375 
Q 15.4375 72.65625 20.34375 73.4375 
Q 25.25 74.21875 29.59375 74.21875 
Q 40.828125 74.21875 47.359375 69.109375 
Q 53.90625 64.015625 53.90625 55.328125 
Q 53.90625 49.265625 50.4375 45.09375 
Q 46.96875 40.921875 40.578125 39.3125 
z
" id="DejaVuSans-51"/>
      </defs>
      <g style="fill:#262626;" transform="translate(54.6875 179.610511)scale(0.1 -0.1)">
       <use xlink:href="#DejaVuSans-51"/>
       <use x="63.623047" xlink:href="#DejaVuSans-48"/>
       <use x="127.246094" xlink:href="#DejaVuSans-48"/>
       <use x="190.869141" xlink:href="#DejaVuSans-48"/>
       <use x="254.492188" xlink:href="#DejaVuSans-48"/>
      </g>
     </g>
    </g>
    <g id="ytick_8">
     <g id="line2d_27">
      <path clip-path="url(#p4864a14195)" d="M 90 102.51073 
L 648 102.51073 
" style="fill:none;stroke:#cccccc;stroke-linecap:round;stroke-width:0.8;"/>
     </g>
     <g id="line2d_28"/>
     <g id="text_14">
      <!-- 35000 -->
      <g style="fill:#262626;" transform="translate(54.6875 106.309949)scale(0.1 -0.1)">
       <use xlink:href="#DejaVuSans-51"/>
       <use x="63.623047" xlink:href="#DejaVuSans-53"/>
       <use x="127.246094" xlink:href="#DejaVuSans-48"/>
       <use x="190.869141" xlink:href="#DejaVuSans-48"/>
       <use x="254.492188" xlink:href="#DejaVuSans-48"/>
      </g>
     </g>
    </g>
   </g>
   <g id="line2d_29">
    <path clip-path="url(#p4864a14195)" d="M 115.363636 615.6 
L 115.408449 615.497379 
L 117.988055 615.013596 
L 118.632053 614.779034 
L 118.632184 614.764374 
L 119.748745 614.588452 
L 119.824691 614.544472 
L 120.500947 614.397871 
L 120.544988 614.368551 
L 120.820516 614.25127 
L 120.907064 614.221949 
L 121.000293 614.177969 
L 122.611172 614.016708 
L 122.849604 613.987388 
L 124.893886 613.503604 
L 125.510615 613.386323 
L 126.213804 613.225062 
L 126.386483 613.122441 
L 127.000818 612.843899 
L 127.730567 612.667978 
L 128.252563 612.521376 
L 128.258773 612.506716 
L 129.151674 612.330795 
L 129.239985 612.272155 
L 129.956261 612.096233 
L 129.960638 612.081573 
L 131.532352 611.803031 
L 131.777928 611.759051 
L 132.714557 611.583129 
L 133.125229 611.436528 
L 133.205684 611.377888 
L 134.504548 611.172646 
L 134.610465 611.084685 
L 135.553345 610.864784 
L 136.145908 610.732843 
L 136.516131 610.498281 
L 136.931624 610.41032 
L 137.466738 610.293039 
L 137.612675 610.234399 
L 138.054719 610.073138 
L 138.128261 609.985177 
L 139.221827 609.691975 
L 139.290325 609.662655 
L 139.73163 609.516053 
L 139.766828 609.472073 
L 141.372811 609.193531 
L 142.284852 608.944309 
L 143.032988 608.577806 
L 143.041088 608.563146 
L 143.297465 608.431205 
L 143.367079 608.401885 
L 144.026731 608.269944 
L 144.189038 608.152663 
L 144.212571 608.079362 
L 144.631746 607.947421 
L 144.762342 607.683539 
L 144.886798 607.536938 
L 144.919058 607.463638 
L 145.826241 607.273056 
L 146.732783 606.759952 
L 147.229637 606.628011 
L 147.313856 606.51073 
L 147.558777 606.378789 
L 147.740927 606.320149 
L 148.158398 606.188208 
L 148.174844 606.173548 
L 148.873199 606.041607 
L 151.452677 604.854138 
L 151.471613 604.810157 
L 152.373387 604.678216 
L 152.585674 604.487635 
L 152.946073 604.238413 
L 153.777744 604.003851 
L 154.783105 603.314826 
L 155.44163 603.138905 
L 155.577007 602.962983 
L 156.03579 602.684441 
L 157.057666 602.50852 
L 157.178641 602.435219 
L 158.24531 602.010076 
L 158.951705 601.878135 
L 159.23789 601.731534 
L 159.334165 601.570273 
L 159.678008 601.365031 
L 159.758201 601.306391 
L 160.544017 601.071829 
L 160.646485 600.837267 
L 160.878047 600.690666 
L 160.999976 600.602705 
L 161.218331 600.441444 
L 162.189703 600.089601 
L 162.245284 599.95766 
L 162.263167 599.767079 
L 163.875857 599.532517 
L 164.023279 599.473876 
L 165.815781 598.916792 
L 165.906978 598.828832 
L 166.02545 598.66757 
L 166.039564 598.56495 
L 166.419491 598.418348 
L 166.950562 598.227767 
L 167.273115 597.978545 
L 167.373045 597.905244 
L 167.511892 597.685343 
L 167.649868 597.553402 
L 167.774992 597.480101 
L 167.886048 597.3335 
L 167.912536 597.230879 
L 168.646727 597.084278 
L 168.803392 596.893697 
L 168.903487 596.776416 
L 169.061102 596.571174 
L 169.168135 596.439233 
L 169.486846 596.219332 
L 169.587633 596.07273 
L 169.950133 596.04341 
L 170.258879 595.911469 
L 170.926827 595.075843 
L 171.025825 594.870601 
L 171.388857 594.70934 
L 172.053212 594.460118 
L 172.125286 594.328177 
L 172.3822 593.888374 
L 172.567915 593.756433 
L 172.693634 593.565851 
L 173.524421 593.287309 
L 173.692215 593.199348 
L 173.974396 592.920806 
L 174.022494 592.774205 
L 174.264966 592.642264 
L 175.580876 592.026539 
L 175.68657 591.733337 
L 175.877881 591.513436 
L 176.045339 591.366834 
L 176.237802 591.220233 
L 176.833222 590.985671 
L 176.86972 590.912371 
L 177.240784 590.78043 
L 177.38576 590.692469 
L 177.479088 590.531208 
L 177.637507 590.252666 
L 177.814612 590.032764 
L 178.430313 589.900823 
L 178.538983 589.739562 
L 179.193329 589.167818 
L 180.026478 588.947916 
L 180.138759 588.757334 
L 180.328289 588.625393 
L 180.431887 588.508113 
L 180.539357 588.361511 
L 180.875046 587.745787 
L 181.041888 587.599186 
L 181.199408 587.525885 
L 181.994263 587.144722 
L 182.913366 585.869292 
L 183.340291 585.693371 
L 183.464682 585.502789 
L 183.599592 585.297548 
L 183.710035 585.004346 
L 183.834549 584.813764 
L 184.00284 584.623183 
L 184.250433 584.30066 
L 184.532019 583.772896 
L 184.969286 583.626295 
L 185.130094 583.421054 
L 185.223206 583.289113 
L 185.383493 583.069211 
L 185.670867 582.732028 
L 185.755287 582.600087 
L 186.455166 582.321545 
L 186.49218 582.262905 
L 186.663415 582.130964 
L 186.716506 582.043003 
L 186.856763 581.911062 
L 187.052304 581.573879 
L 187.316773 581.251357 
L 187.616863 580.811554 
L 188.222218 580.650292 
L 188.418675 580.489031 
L 188.638081 580.31311 
L 188.708276 580.210489 
L 188.829218 580.078548 
L 189.26824 579.477483 
L 189.483068 579.418843 
L 189.891358 579.286902 
L 190.046855 579.03768 
L 190.377136 578.773798 
L 190.51046 578.583216 
L 190.954823 577.967492 
L 191.423962 577.835551 
L 191.571069 577.600989 
L 192.58883 576.134978 
L 193.136016 575.973717 
L 193.244325 575.709834 
L 193.347179 575.651194 
L 193.445116 575.504593 
L 194.373651 574.185183 
L 194.882167 574.023922 
L 194.963738 573.891981 
L 195.094551 573.730719 
L 195.195521 573.569458 
L 195.309572 573.393537 
L 195.441946 573.027034 
L 195.603705 572.777812 
L 195.957646 572.220728 
L 196.528048 571.766264 
L 196.691314 571.575683 
L 196.740639 571.385101 
L 196.839162 571.17986 
L 196.974333 571.018599 
L 197.147783 570.857337 
L 197.372039 570.622776 
L 197.670222 570.065691 
L 197.868363 569.91909 
L 197.983875 569.831129 
L 198.35448 569.523267 
L 198.63089 569.156764 
L 198.838939 568.892882 
L 198.970452 568.672981 
L 199.791689 568.130556 
L 199.922523 567.983955 
L 200.962954 566.517944 
L 201.392853 566.371343 
L 201.5615 565.784938 
L 201.620372 565.638337 
L 201.732819 565.330475 
L 201.844215 565.183874 
L 202.045426 564.861351 
L 202.394757 564.436208 
L 202.408605 564.392228 
L 203.077904 564.274947 
L 203.235261 564.099026 
L 204.320062 562.281172 
L 204.87017 562.00263 
L 204.968335 561.724087 
L 205.320172 561.152343 
L 205.424758 560.976422 
L 205.619597 560.668559 
L 205.73512 560.390017 
L 206.161613 560.228756 
L 206.363726 560.038174 
L 207.14541 558.924006 
L 207.919227 558.718764 
L 208.25865 558.015079 
L 208.379783 557.839158 
L 209.015861 557.032851 
L 209.583882 556.82761 
L 209.701316 556.607708 
L 209.826859 556.285186 
L 209.956119 555.991983 
L 210.077884 555.845382 
L 210.672123 554.848495 
L 211.232552 554.701894 
L 211.350081 554.481992 
L 211.721295 554.130149 
L 211.89433 553.939568 
L 211.993018 553.748986 
L 212.086086 553.602385 
L 212.193893 553.470444 
L 212.31798 553.323843 
L 212.489272 553.265203 
L 212.841093 553.133262 
L 212.996324 552.88404 
L 213.136415 552.722778 
L 214.127985 551.65259 
L 214.458559 551.520649 
L 214.629775 551.227447 
L 215.799591 549.893377 
L 216.498334 549.350953 
L 217.25106 548.134163 
L 217.450685 548.090183 
L 217.766537 547.958242 
L 219.02768 546.609512 
L 219.495139 546.46291 
L 219.589706 546.36029 
L 219.738556 546.228349 
L 219.848295 546.052427 
L 220.638722 545.1435 
L 221.058359 544.996899 
L 221.39529 544.425155 
L 221.575928 544.131953 
L 221.972127 543.82409 
L 222.829284 543.457587 
L 223.013253 543.296326 
L 223.128445 543.164385 
L 223.842228 542.196818 
L 224.423372 542.006236 
L 224.867788 541.434492 
L 224.991875 541.15595 
L 225.135311 540.848087 
L 225.273368 540.716146 
L 225.356222 540.569545 
L 225.694385 540.334984 
L 226.004556 540.188382 
L 226.134302 539.777899 
L 226.266636 539.543338 
L 226.396813 539.264795 
L 226.549277 539.000913 
L 226.732818 538.766352 
L 226.812318 538.57577 
L 226.981049 538.399849 
L 227.061684 538.194607 
L 227.549933 538.048006 
L 227.680387 537.872085 
L 227.681362 537.857425 
L 227.880238 537.725484 
L 228.444039 536.244812 
L 228.624766 536.054231 
L 228.733382 535.863649 
L 229.312078 535.673068 
L 229.431017 535.262585 
L 229.775228 534.837441 
L 229.944638 534.64686 
L 230.047304 534.500259 
L 230.32139 533.972495 
L 230.401599 533.884534 
L 230.901879 533.752593 
L 230.989155 533.605992 
L 232.053725 531.670857 
L 232.571855 531.436295 
L 233.009687 530.556689 
L 233.089679 530.410088 
L 233.204857 530.190186 
L 233.303429 530.043585 
L 233.427962 529.823683 
L 233.988159 529.295919 
L 234.22869 529.163978 
L 235.344937 527.536706 
L 235.858641 527.331464 
L 236.131888 526.920981 
L 236.282422 526.671759 
L 236.404475 526.481177 
L 236.652036 526.085354 
L 236.851026 525.850793 
L 236.907267 525.777492 
L 237.172227 525.630891 
L 237.297957 525.54293 
L 237.504685 525.396329 
L 237.597354 525.220408 
L 237.825104 525.029826 
L 237.931203 524.853905 
L 238.128461 524.531383 
L 238.282581 524.296821 
L 238.435328 524.076919 
L 238.522479 523.915658 
L 238.606321 523.827697 
L 238.971724 523.666436 
L 239.081501 523.607795 
L 239.287456 523.314593 
L 240.19052 521.701981 
L 240.740182 521.496739 
L 240.906459 521.071596 
L 241.008539 520.939655 
L 241.129688 520.807714 
L 241.261052 520.675773 
L 241.74352 520.104029 
L 242.271176 519.810826 
L 242.436486 519.664225 
L 242.664331 519.297722 
L 242.943913 518.91656 
L 243.089811 518.623357 
L 243.29395 518.271515 
L 243.59366 518.022293 
L 244.050194 517.831711 
L 244.138163 517.71443 
L 244.265449 517.582489 
L 244.417728 517.186666 
L 244.543863 517.025405 
L 244.735701 516.732203 
L 244.826179 516.585602 
L 245.318275 515.925897 
L 245.718237 515.764635 
L 245.813084 515.544734 
L 245.960403 515.412793 
L 246.194805 515.09027 
L 246.343142 514.767748 
L 246.618065 514.327944 
L 247.653921 513.419017 
L 247.755767 513.257756 
L 248.031574 512.993874 
L 248.104713 512.949894 
L 248.9171 512.671352 
L 249.912325 512.084947 
L 250.578926 511.938346 
L 251.118626 511.410582 
L 251.224822 511.293301 
L 251.486127 511.16136 
L 251.651047 510.970779 
L 251.835049 510.882818 
L 252.257015 510.706897 
L 252.329176 510.530975 
L 252.822673 509.81263 
L 252.950934 509.607388 
L 253.304957 509.284866 
L 253.399271 509.167585 
L 253.873629 508.977003 
L 254.416696 508.50788 
L 254.560743 508.273318 
L 254.697706 508.126717 
L 254.80558 507.965456 
L 254.90274 507.804194 
L 254.990503 507.584293 
L 255.513827 507.393711 
L 255.647111 507.18847 
L 255.754125 507.027208 
L 255.880343 506.880607 
L 256.107322 506.572745 
L 256.212728 506.426144 
L 256.675546 505.88372 
L 257.056933 505.737119 
L 258.374964 503.34752 
L 258.870183 503.083638 
L 259.02609 502.731796 
L 259.114838 502.570534 
L 259.342493 502.130731 
L 259.879389 500.67938 
L 260.320031 500.459478 
L 260.451637 500.298217 
L 260.670622 500.092975 
L 260.757451 499.946374 
L 260.83474 499.741133 
L 260.968939 499.609192 
L 261.12278 499.125408 
L 261.273596 498.685605 
L 261.394104 498.539003 
L 261.50014 498.06988 
L 261.6008 497.923279 
L 261.740688 497.791338 
L 261.82009 497.747357 
L 262.07925 497.586096 
L 262.341 497.175613 
L 262.457805 496.647849 
L 262.588976 496.105425 
L 262.67435 495.768242 
L 262.965466 494.947276 
L 263.477663 494.287571 
L 263.724903 494.12631 
L 263.804525 493.965048 
L 264.439238 492.455057 
L 264.569961 492.117874 
L 264.813622 491.56079 
L 265.017307 491.399529 
L 265.088993 491.326228 
L 265.349361 491.164967 
L 265.458767 490.974386 
L 265.564393 490.769144 
L 266.450978 489.537695 
L 266.475977 489.449734 
L 266.853802 489.303133 
L 266.964696 489.244492 
L 267.178191 489.039251 
L 267.333047 488.746048 
L 267.552834 488.364886 
L 267.633262 488.203624 
L 267.741932 488.057023 
L 268.125986 487.133436 
L 268.302719 487.045475 
L 268.6436 486.854894 
L 268.770791 486.591012 
L 268.88122 486.488391 
L 269.257131 485.638105 
L 269.35702 485.520824 
L 269.619205 485.227622 
L 269.735884 484.963739 
L 270.511386 484.509276 
L 271.698821 482.750063 
L 272.020893 482.559481 
L 272.179008 482.339579 
L 272.263694 482.178318 
L 272.343704 482.002397 
L 272.475134 481.855796 
L 272.57559 481.606574 
L 272.732871 481.430652 
L 272.992262 480.946869 
L 273.036317 480.888228 
L 273.588521 480.756287 
L 273.815494 480.507065 
L 273.925321 480.316484 
L 274.040331 480.125902 
L 274.938494 478.689211 
L 275.194252 478.55727 
L 275.334932 478.308049 
L 276.398766 476.636796 
L 276.940359 476.358254 
L 277.081155 476.065051 
L 277.183007 475.90379 
L 277.41136 475.522627 
L 277.541038 475.302726 
L 277.957134 474.716321 
L 278.513308 474.55506 
L 279.048173 473.910015 
L 279.169734 473.660793 
L 279.288038 473.528852 
L 279.36696 473.29429 
L 279.528449 473.133029 
L 279.597403 472.957108 
L 280.141475 472.737206 
L 280.280303 472.444004 
L 280.678857 471.681678 
L 280.78306 471.447116 
L 280.964075 471.300515 
L 281.05477 471.168574 
L 281.192338 471.036633 
L 281.301975 470.890032 
L 281.699458 470.69945 
L 281.981063 470.186346 
L 282.100328 470.025085 
L 282.237445 469.805183 
L 282.57124 468.940237 
L 282.753626 468.515094 
L 282.813 468.368492 
L 282.938766 468.207231 
L 283.387912 468.01665 
L 283.486085 467.826068 
L 283.614641 467.415585 
L 284.296387 465.319189 
L 284.412492 465.187248 
L 284.669819 464.644824 
L 284.797029 464.468903 
L 284.936321 464.380942 
L 285.103445 464.249001 
L 285.20915 464.13172 
L 285.380401 463.941138 
L 285.693828 463.281433 
L 285.914348 462.739009 
L 286.086867 462.577748 
L 286.307867 462.152605 
L 286.6986 461.991344 
L 287.61171 460.144169 
L 287.774677 459.924268 
L 287.893627 459.763006 
L 288.432771 459.381844 
L 288.502202 459.015341 
L 288.812208 458.311655 
L 288.91245 458.077094 
L 289.017359 457.57865 
L 289.190112 457.270787 
L 289.517656 456.479141 
L 289.998321 456.039338 
L 290.636501 454.807889 
L 290.720215 454.675948 
L 290.821027 454.368085 
L 290.961229 454.104203 
L 292.189838 452.682172 
L 292.389795 452.271689 
L 292.485054 451.963827 
L 292.668657 451.421403 
L 292.730185 451.201501 
L 292.861978 451.09888 
L 293.07004 450.981599 
L 293.237172 450.834998 
L 293.967618 449.867431 
L 294.085583 449.544908 
L 294.14496 449.207726 
L 294.39097 448.753262 
L 294.722842 448.592001 
L 295.02817 448.240158 
L 295.156161 448.108217 
L 295.235368 447.961616 
L 295.752306 447.11133 
L 295.93018 446.876768 
L 296.088487 446.524925 
L 296.475137 446.349004 
L 296.665552 446.099782 
L 296.821267 445.86522 
L 296.955552 445.528037 
L 297.128555 445.176195 
L 297.25949 444.663091 
L 297.36164 444.51649 
L 297.454114 444.223287 
L 297.614327 444.018046 
L 297.722639 443.871445 
L 298.250389 443.548922 
L 298.373081 443.343681 
L 298.575655 443.2264 
L 298.752293 442.962518 
L 299.255324 442.112231 
L 299.348408 442.024271 
L 299.901172 441.804369 
L 300.375426 440.910102 
L 300.66384 440.250397 
L 300.773493 440.045155 
L 301.134323 439.620012 
L 301.48514 439.458751 
L 301.622298 439.238849 
L 302.086566 438.227302 
L 302.279365 437.890119 
L 302.795725 437.113133 
L 303.664055 435.735082 
L 304.215733 434.210431 
L 304.474936 434.06383 
L 304.597983 433.902568 
L 304.827458 433.697327 
L 305.301872 431.894133 
L 305.37693 431.732872 
L 305.552002 431.337049 
L 305.839137 430.706664 
L 305.938211 430.501422 
L 306.485487 430.281521 
L 307.642215 427.686681 
L 308.341521 427.158917 
L 308.588989 426.821734 
L 308.639982 426.645813 
L 308.762524 426.425911 
L 308.877224 426.206009 
L 309.210329 425.399703 
L 309.74348 425.150481 
L 310.194997 424.109613 
L 310.264201 423.919032 
L 310.39153 423.171366 
L 310.495698 422.922144 
L 311.305797 421.441473 
L 311.435265 421.309532 
L 311.565429 421.04565 
L 311.657156 420.884389 
L 311.797002 420.620507 
L 311.884969 420.488566 
L 311.995216 420.166043 
L 312.129005 419.916821 
L 312.244129 419.286436 
L 312.40592 419.081195 
L 312.599748 418.729352 
L 312.999116 418.45081 
L 313.222182 417.996347 
L 313.355645 417.600524 
L 314.093092 415.636069 
L 314.258079 415.489467 
L 314.335008 415.445487 
L 314.644463 415.298886 
L 314.784602 414.639181 
L 314.955503 414.155397 
L 315.275526 413.055889 
L 315.386767 412.205602 
L 315.625346 411.457937 
L 315.739742 411.238035 
L 316.103483 410.959493 
L 316.263715 410.798231 
L 316.444063 410.153187 
L 316.595335 410.006585 
L 316.712886 409.728043 
L 316.979571 409.170959 
L 317.134025 408.511254 
L 317.297092 408.086111 
L 317.394673 407.866209 
L 317.966818 407.177184 
L 318.117881 406.73738 
L 318.271307 406.458838 
L 318.364777 406.224276 
L 318.439291 406.063015 
L 318.615585 405.725833 
L 318.807735 405.242049 
L 318.876996 405.095448 
L 319.241961 404.421083 
L 319.527044 404.289142 
L 320.811134 401.870223 
L 321.082502 401.664982 
L 321.524149 401.107897 
L 321.637565 400.785375 
L 321.994091 400.023049 
L 322.077686 399.905768 
L 322.203188 399.759167 
L 322.283709 399.553925 
L 322.355801 399.451305 
L 322.571243 399.290043 
L 322.671911 399.231403 
L 323.005285 398.703639 
L 323.119624 398.527718 
L 323.229492 398.366456 
L 323.358925 398.175875 
L 323.67255 397.57481 
L 323.782198 397.413549 
L 323.90083 397.193647 
L 324.227934 396.929765 
L 324.516348 396.797824 
L 324.687686 396.489962 
L 324.797863 396.28472 
L 324.858669 396.064819 
L 325.5764 393.763181 
L 325.761219 393.61658 
L 325.862126 393.396678 
L 326.118609 393.191437 
L 326.426109 392.663673 
L 326.554562 392.38513 
L 327.012577 391.402903 
L 327.873779 390.611257 
L 328.282748 389.790291 
L 328.370728 389.629029 
L 328.400131 389.145246 
L 328.49913 388.632142 
L 328.530857 388.47088 
L 328.740282 387.356712 
L 328.870731 386.609046 
L 328.977604 386.301184 
L 329.13921 386.198563 
L 329.39039 385.964001 
L 329.473453 385.78808 
L 329.58695 385.465557 
L 329.751272 385.245656 
L 329.861715 384.644591 
L 329.991903 384.366049 
L 330.249966 383.838285 
L 330.371743 383.633043 
L 330.473866 382.973338 
L 331.186482 382.240333 
L 331.940076 381.228785 
L 332.049428 381.067524 
L 332.84156 380.51044 
L 332.958378 380.422479 
L 333.093845 380.231897 
L 333.380714 379.850734 
L 333.53685 379.630833 
L 333.863775 379.29365 
L 334.721176 379.044428 
L 334.803901 378.941807 
L 335.153243 378.765886 
L 336.307379 378.443364 
L 336.441273 378.238122 
L 336.559791 378.091521 
L 337.028194 377.812979 
L 337.345442 377.593077 
L 337.569535 377.461136 
L 337.762508 377.167934 
L 338.352628 376.332308 
L 338.832823 375.613962 
L 339.280199 375.423381 
L 339.434285 375.188819 
L 339.549262 375.027558 
L 339.835626 374.499793 
L 339.963816 374.323872 
L 340.126514 374.10397 
L 340.25746 373.957369 
L 340.511532 373.752128 
L 340.904114 373.532226 
L 341.131028 373.253684 
L 341.233689 373.077763 
L 341.496691 372.139515 
L 341.599863 371.978254 
L 341.743345 371.729032 
L 341.985472 371.303889 
L 342.878767 370.673504 
L 342.990861 370.438942 
L 343.218562 370.13108 
L 343.376269 369.955159 
L 343.545878 369.808558 
L 343.957412 369.544676 
L 344.287867 369.251473 
L 344.357584 369.075552 
L 344.543106 368.928951 
L 344.684088 368.81167 
L 344.777373 368.665069 
L 344.901004 368.591768 
L 345.203141 368.342546 
L 345.329729 368.210605 
L 345.886951 368.034684 
L 346.064773 367.814782 
L 346.196531 367.668181 
L 346.309971 367.53624 
L 346.468338 367.272358 
L 346.666308 366.905855 
L 346.8026 366.700614 
L 347.113991 366.407412 
L 347.457791 366.26081 
L 347.584848 366.114209 
L 347.74075 365.967608 
L 348.427997 364.9414 
L 348.552239 364.780139 
L 348.769077 364.692178 
L 349.108263 364.560237 
L 349.248172 364.311015 
L 349.362015 364.091114 
L 349.439978 363.915192 
L 349.738873 363.284808 
L 349.926123 362.845004 
L 350.651104 362.009378 
L 350.808102 361.848117 
L 351.887932 359.502499 
L 352.390102 359.297257 
L 353.642597 356.863678 
L 354.062237 356.614456 
L 354.136562 356.453195 
L 354.584443 355.632229 
L 354.799431 355.309707 
L 354.890181 355.119125 
L 355.29193 354.679322 
L 355.737891 354.4301 
L 355.851163 354.239518 
L 355.95459 354.107577 
L 356.241394 353.506513 
L 356.580231 353.09603 
L 357.317241 352.480305 
L 357.44501 352.304383 
L 357.723282 351.90856 
L 358.036981 351.527398 
L 358.505607 350.838372 
L 359.063456 350.50119 
L 359.2273 350.266628 
L 359.356057 350.002746 
L 359.579479 349.768184 
L 359.684603 349.665563 
L 359.960383 349.387021 
L 360.032894 349.22576 
L 360.7528 349.108479 
L 361.090521 348.756636 
L 361.213291 348.654016 
L 361.363689 348.419454 
L 361.516428 348.243532 
L 362.35442 347.525187 
L 362.498885 347.363926 
L 362.906947 346.924122 
L 363.115346 346.57228 
L 363.522232 346.059176 
L 364.011744 345.883254 
L 364.156358 345.531412 
L 364.967 344.505204 
L 365.535593 344.373263 
L 365.741203 344.05074 
L 365.865331 343.904139 
L 366.110236 343.698898 
L 366.190999 343.581617 
L 366.33154 343.435016 
L 366.456822 343.288414 
L 366.607369 343.068513 
L 366.742654 342.965892 
L 367.195333 342.71667 
L 367.407457 342.350167 
L 367.577915 342.174246 
L 367.998003 341.543861 
L 368.15444 341.39726 
L 368.388614 341.133378 
L 368.792688 340.928136 
L 368.900728 340.766875 
L 369.861523 339.550086 
L 369.904869 339.476785 
L 370.696312 339.227563 
L 370.792426 339.080962 
L 370.898701 338.934361 
L 371.04668 338.699799 
L 371.209628 338.450577 
L 371.340775 338.289316 
L 371.529452 337.981454 
L 371.817663 337.702912 
L 372.148555 337.52699 
L 372.263345 337.189808 
L 372.430871 336.867285 
L 372.54619 336.647384 
L 372.655392 336.398162 
L 373.08876 335.679816 
L 373.565964 335.269333 
L 373.762358 335.108072 
L 373.900326 334.770889 
L 374.020782 334.565648 
L 374.177629 334.257785 
L 374.296424 334.081864 
L 374.594092 333.480799 
L 374.762088 333.275558 
L 374.992219 332.982356 
L 375.412149 332.835754 
L 375.524821 332.586532 
L 375.77396 332.146729 
L 375.905997 332.014788 
L 376.7356 330.9446 
L 377.057938 330.797999 
L 377.156478 330.592757 
L 377.407696 330.446156 
L 377.533732 330.182274 
L 378.156723 329.097426 
L 378.681802 328.760243 
L 378.781552 328.598982 
L 378.921374 328.467041 
L 379.018268 328.39374 
L 379.26165 328.217819 
L 379.34324 328.100538 
L 379.506012 327.953937 
L 379.621258 327.792676 
L 379.754648 327.499474 
L 379.816371 327.396853 
L 380.30702 327.235591 
L 380.431262 326.927729 
L 380.633472 326.707827 
L 380.716366 326.575886 
L 380.847084 326.414625 
L 381.023106 326.209384 
L 381.152648 326.062783 
L 381.362825 325.74026 
L 382.082264 325.183176 
L 383.153682 323.13076 
L 383.690194 322.705617 
L 383.750522 322.573676 
L 383.946884 322.441735 
L 384.128453 322.075232 
L 384.411705 321.474167 
L 384.519164 321.371547 
L 384.657721 321.063684 
L 384.839966 320.902423 
L 385.337751 320.638541 
L 385.536757 320.228058 
L 385.617034 320.052136 
L 385.789784 319.876215 
L 385.95161 319.495052 
L 386.151122 319.24583 
L 386.260253 319.113889 
L 386.62817 318.893988 
L 386.87881 318.732726 
L 387.17689 318.204962 
L 388.240189 316.841572 
L 388.522579 316.63633 
L 388.823231 316.167207 
L 388.990496 315.815364 
L 389.111667 315.522162 
L 389.311819 315.170319 
L 389.995474 314.437313 
L 390.189172 314.188092 
L 390.347868 314.01217 
L 390.603639 313.587027 
L 391.10522 312.868681 
L 391.250168 312.560819 
L 391.792255 312.179656 
L 391.907521 312.077035 
L 392.117426 311.769173 
L 392.374316 311.256069 
L 392.469456 311.050828 
L 392.570939 310.830926 
L 392.943548 309.936659 
L 393.091692 309.848698 
L 393.487074 309.643457 
L 393.641118 309.482196 
L 393.816385 309.145013 
L 394.076564 308.690549 
L 394.185415 308.543948 
L 394.520888 307.679002 
L 394.613801 307.51774 
L 395.093084 307.327159 
L 395.168199 307.151238 
L 395.292547 306.960656 
L 395.431226 306.799395 
L 396.065213 305.773187 
L 396.164013 305.582606 
L 396.270668 305.494645 
L 396.633535 305.333384 
L 396.831241 305.084162 
L 397.129397 304.556398 
L 397.25015 304.424457 
L 398.084138 303.632811 
L 398.425883 303.50087 
L 398.938417 302.577283 
L 399.140986 302.357381 
L 399.925887 301.800297 
L 400.107266 301.668356 
L 400.299161 301.433794 
L 400.624554 300.86205 
L 400.723884 300.759429 
L 401.089827 300.246325 
L 401.10251 300.217005 
L 401.735099 300.070403 
L 401.795383 299.923802 
L 401.915625 299.791861 
L 402.478055 298.897594 
L 402.648041 298.560412 
L 403.307174 298.193909 
L 403.537259 297.886047 
L 403.757518 297.402263 
L 403.855984 297.226342 
L 403.92973 297.05042 
L 404.068477 296.742558 
L 404.33202 296.449356 
L 404.428547 296.332075 
L 405.177425 295.833631 
L 405.328564 295.408488 
L 405.600473 295.276547 
L 405.704209 295.115285 
L 405.849279 294.807423 
L 405.992821 294.631502 
L 406.105317 294.44092 
L 406.700783 294.191698 
L 406.77021 294.074418 
L 406.911596 293.927816 
L 407.577517 293.03355 
L 407.644163 292.886948 
L 407.751418 292.696367 
L 408.22788 292.535106 
L 408.524329 292.007342 
L 408.724965 291.714139 
L 408.882436 291.552878 
L 409.028104 291.274336 
L 409.267896 290.922493 
L 409.356134 290.834533 
L 409.594148 290.673271 
L 409.705829 290.570651 
L 409.876993 290.380069 
L 410.053552 289.954926 
L 410.336924 289.295221 
L 410.422982 289.13396 
L 410.553585 288.972698 
L 410.781843 288.576875 
L 410.917296 288.371634 
L 411.01497 288.254353 
L 411.303935 288.093092 
L 411.429839 288.049111 
L 411.562742 287.84387 
L 411.811717 287.110864 
L 412.08002 286.5831 
L 412.202709 286.275238 
L 412.489594 285.923395 
L 412.588978 285.835434 
L 413.14273 285.674173 
L 414.090769 284.120201 
L 414.199542 283.91496 
L 414.880207 283.328555 
L 415.029625 283.108654 
L 415.358863 282.786131 
L 415.477243 282.566229 
L 415.729094 282.404968 
L 415.837413 282.273027 
L 416.294917 282.053125 
L 416.46906 281.833224 
L 416.650401 281.627982 
L 416.803629 281.37876 
L 416.987519 281.188179 
L 417.328601 280.763036 
L 418.08884 280.279252 
L 418.214703 280.04469 
L 418.543173 279.590227 
L 418.656469 279.414305 
L 418.887738 279.209064 
L 419.081333 279.003822 
L 419.255183 278.78392 
L 420.305617 278.344117 
L 420.414387 278.241496 
L 420.561668 278.153536 
L 421.006579 277.948294 
L 421.653773 277.757713 
L 421.917786 277.567131 
L 422.55176 276.731505 
L 423.040557 276.584904 
L 423.17661 276.423642 
L 423.40773 276.13044 
L 423.815553 275.353454 
L 423.939029 275.177533 
L 424.06969 275.001611 
L 424.91518 274.385887 
L 425.085494 274.063364 
L 425.351111 273.740842 
L 425.576757 273.49162 
L 425.713532 273.345019 
L 425.756075 273.271718 
L 426.249475 273.125117 
L 426.374716 272.934536 
L 426.549608 272.524052 
L 426.957216 271.996288 
L 427.188496 271.615126 
L 427.369748 271.439204 
L 427.456625 271.307263 
L 427.936571 271.146002 
L 428.287333 270.559597 
L 428.489551 270.266395 
L 428.596948 270.090474 
L 429.246955 269.65067 
L 429.641533 269.474749 
L 429.846033 269.093586 
L 430.218669 268.477861 
L 430.419731 268.067378 
L 430.648119 267.935437 
L 430.758391 267.832817 
L 431.239775 267.686215 
L 431.529596 267.393013 
L 431.803139 267.055831 
L 432.097239 266.806609 
L 432.284098 266.674668 
L 432.320721 266.513406 
L 432.866465 266.352145 
L 433.137755 266.102923 
L 433.257704 265.941662 
L 433.315851 265.853701 
L 433.457742 265.7071 
L 433.605596 265.457878 
L 433.84188 265.237977 
L 434.146102 264.856814 
L 434.598572 264.548951 
L 434.712493 264.34371 
L 435.676778 262.994979 
L 436.1071 262.848378 
L 436.213312 262.672457 
L 437.202493 261.572949 
L 437.653361 261.441008 
L 437.681562 261.411687 
L 437.875784 261.279746 
L 437.979648 261.191786 
L 438.121297 261.001204 
L 438.585388 260.224218 
L 438.72281 260.048297 
L 438.830579 259.813735 
L 439.569443 259.403252 
L 440.6237 257.951901 
L 440.970978 257.77598 
L 441.082915 257.204235 
L 441.232968 257.013654 
L 442.350613 255.752884 
L 442.691714 255.606283 
L 443.460579 254.697356 
L 444.522656 254.022991 
L 444.683128 253.729789 
L 444.867705 253.465907 
L 444.974667 253.143384 
L 445.122366 252.996783 
L 445.579867 252.337078 
L 446.004843 252.014555 
L 446.109872 251.911935 
L 446.202603 251.721353 
L 446.32414 251.545432 
L 446.441086 251.428151 
L 446.537801 251.222909 
L 446.66166 251.032328 
L 446.803948 250.841746 
L 447.040677 250.577864 
L 447.729295 250.182041 
L 448.010118 249.800878 
L 448.389672 249.317095 
L 448.563712 249.126513 
L 448.69705 248.950592 
L 448.826467 248.862631 
L 449.357031 248.73069 
L 449.474664 248.628069 
L 449.750118 248.481468 
L 449.830902 248.334867 
L 450.245562 248.100305 
L 450.741221 247.924384 
L 450.994601 247.792443 
L 452.195566 246.707595 
L 452.587643 246.546334 
L 452.698822 246.326432 
L 452.875398 246.15051 
L 453.012952 246.018569 
L 453.128386 245.886628 
L 453.193533 245.813328 
L 453.372023 245.652067 
L 453.56813 245.432165 
L 453.688182 245.285564 
L 454.23183 245.109643 
L 454.539449 244.7578 
L 454.843343 244.317996 
L 455.19101 244.054114 
L 455.290421 243.863533 
L 455.886957 243.687612 
L 456.226994 243.306449 
L 456.402491 243.086547 
L 456.627247 242.910626 
L 456.722066 242.720044 
L 456.834116 242.558783 
L 456.90518 242.441502 
L 457.561245 242.324221 
L 457.673179 242.074999 
L 457.759236 241.913738 
L 458.369549 241.151412 
L 458.516252 240.975491 
L 458.621229 240.91685 
L 458.879936 240.85821 
L 459.35494 240.565008 
L 459.463846 240.389086 
L 459.73466 240.198505 
L 459.930286 239.919963 
L 460.226015 239.58278 
L 460.873606 239.362879 
L 461.254895 238.937735 
L 461.37041 238.791134 
L 461.5418 238.644533 
L 461.725859 238.439291 
L 462.606761 237.911527 
L 463.686827 237.031921 
L 464.103789 236.855999 
L 465.063604 235.712511 
L 465.278297 235.565909 
L 465.729059 235.433968 
L 467.11508 234.231839 
L 467.393901 234.085238 
L 467.502785 233.997277 
L 467.591341 233.850676 
L 467.781362 233.557474 
L 467.905561 233.425533 
L 468.566087 232.589907 
L 469.092749 232.413985 
L 469.247825 232.018162 
L 469.623543 231.549039 
L 469.925523 231.241176 
L 469.993795 231.138556 
L 470.560243 230.977294 
L 470.915713 230.37623 
L 471.361002 229.995067 
L 471.631205 229.731185 
L 472.421322 229.306041 
L 472.532449 229.11546 
L 472.730723 228.910218 
L 473.017323 228.529056 
L 473.401803 228.045272 
L 474.178548 227.576148 
L 474.993472 226.813822 
L 475.607426 226.637901 
L 475.690562 226.47664 
L 475.812672 226.330039 
L 476.314543 225.787615 
L 476.568876 225.567713 
L 476.82313 225.377131 
L 477.26063 225.14257 
L 477.402804 224.995968 
L 477.57374 224.776067 
L 477.683827 224.673446 
L 478.016533 224.262963 
L 478.302248 223.8818 
L 479.020802 223.632578 
L 479.132842 223.471317 
L 479.244574 223.236755 
L 479.425275 223.060834 
L 479.579952 222.694331 
L 479.682664 222.489089 
L 479.903102 222.269188 
L 480.044486 222.210547 
L 480.538437 222.005306 
L 480.795153 221.770744 
L 481.597617 220.685895 
L 482.14984 220.524634 
L 482.244966 220.334053 
L 482.449509 220.143471 
L 482.542479 220.070171 
L 482.666441 219.92357 
L 482.892858 219.718328 
L 482.990575 219.557067 
L 483.197062 219.263865 
L 483.277783 219.073283 
L 483.893356 218.809401 
L 484.001187 218.70678 
L 484.253144 218.501539 
L 484.491638 218.208336 
L 484.609857 218.120376 
L 484.814066 217.856494 
L 485.047535 217.695233 
L 485.536101 217.475331 
L 485.639335 217.41669 
L 486.428117 216.830286 
L 486.528777 216.683685 
L 487.150972 216.346502 
L 487.257008 216.273202 
L 487.901457 215.628157 
L 488.027298 215.510876 
L 488.982625 214.675249 
L 489.173372 214.382047 
L 489.463266 214.103505 
L 489.593767 214.000884 
L 490.416787 213.531761 
L 491.654338 212.212351 
L 491.961485 212.065749 
L 493.060288 211.112842 
L 493.69165 210.922261 
L 493.798699 210.81964 
L 494.2433 210.482457 
L 495.327165 209.690811 
L 495.643682 209.441589 
L 495.760601 209.280328 
L 496.001846 209.119067 
L 496.168858 208.913825 
L 496.306625 208.767224 
L 496.358766 208.635283 
L 496.90312 208.488682 
L 497.012005 208.371401 
L 497.190918 208.16616 
L 497.298097 207.960918 
L 497.672238 207.726356 
L 497.784611 207.667716 
L 498.670664 207.286553 
L 499.76319 206.099084 
L 500.252335 205.937823 
L 500.33944 205.820542 
L 500.448612 205.65928 
L 500.722573 205.336758 
L 500.949943 205.072876 
L 501.114939 204.852974 
L 501.273461 204.603752 
L 501.349012 204.515792 
L 501.84279 204.36919 
L 502.133821 204.149289 
L 502.353746 204.002688 
L 502.893585 203.650845 
L 503.511199 203.460264 
L 503.641521 203.137741 
L 503.810757 202.97648 
L 503.970672 202.771238 
L 504.159442 202.624637 
L 505.159101 202.126193 
L 505.575211 201.979592 
L 506.232028 201.525129 
L 507.367928 201.099985 
L 507.517946 200.982705 
L 508.146367 200.557561 
L 508.433738 200.44028 
L 508.538224 200.293679 
L 508.781465 200.147078 
L 508.992288 199.956497 
L 509.121988 199.824556 
L 509.840474 199.458053 
L 510.16543 199.326112 
L 511.398145 198.226603 
L 511.727244 198.094662 
L 511.790727 198.006702 
L 511.983312 197.860101 
L 512.148187 197.698839 
L 512.412504 197.420297 
L 512.535383 197.303016 
L 513.312421 196.760592 
L 513.463696 196.379429 
L 513.631626 196.188848 
L 513.810618 195.880985 
L 514.028919 195.675744 
L 514.192674 195.485162 
L 514.380007 195.323901 
L 515.015032 195.11866 
L 515.135877 194.957398 
L 515.286058 194.825457 
L 515.501358 194.576235 
L 515.614419 194.444294 
L 516.956925 193.711289 
L 517.080637 193.564688 
L 517.378194 193.359446 
L 517.683872 193.080904 
L 517.799759 193.036924 
L 518.442172 192.743721 
L 518.583066 192.50916 
L 518.68744 192.435859 
L 518.959637 192.171977 
L 519.092114 192.010716 
L 519.492435 191.600233 
L 519.943289 191.336351 
L 520.179408 191.013828 
L 520.279139 190.896547 
L 520.55667 190.749946 
L 520.711581 190.515384 
L 520.950388 190.236842 
L 521.004973 190.178202 
L 521.514354 190.016941 
L 521.651958 189.870339 
L 521.769156 189.665098 
L 522.16062 188.961412 
L 522.309641 188.785491 
L 522.737883 188.184427 
L 523.512467 187.729963 
L 523.63745 187.656662 
L 524.206298 187.099578 
L 524.275654 187.026278 
L 524.924548 186.850356 
L 525.854756 185.912109 
L 525.908478 185.868129 
L 526.502722 185.677547 
L 526.649951 185.428325 
L 526.934295 185.252404 
L 527.152295 184.929882 
L 527.252944 184.76862 
L 527.448155 184.548719 
L 527.708933 184.416778 
L 528.103878 184.284837 
L 528.218469 184.079595 
L 528.343768 183.932994 
L 528.559649 183.713092 
L 528.736228 183.522511 
L 528.884779 183.36125 
L 529.057103 183.199988 
L 529.768758 182.921446 
L 529.89657 182.804165 
L 530.045874 182.672224 
L 530.244945 182.437663 
L 530.405265 182.335042 
L 530.776777 181.924559 
L 530.99098 181.821938 
L 531.013748 181.807278 
L 531.376853 181.689997 
L 532.629751 180.341266 
L 533.153466 180.180005 
L 533.291053 180.121365 
L 533.785227 179.578941 
L 533.89762 179.315059 
L 534.019065 179.168457 
L 534.123105 179.065837 
L 534.608332 178.919236 
L 534.807298 178.743314 
L 535.075755 178.450112 
L 535.485158 178.20089 
L 535.716093 177.995649 
L 536.308774 177.761087 
L 536.446632 177.526525 
L 536.85448 177.174682 
L 536.962107 177.072061 
L 537.554695 176.412356 
L 538.200318 176.192455 
L 538.528195 175.855272 
L 538.759646 175.723331 
L 540.068095 174.653143 
L 540.19995 174.550522 
L 540.392671 174.359941 
L 540.469513 174.28664 
L 540.592582 174.154699 
L 540.898341 173.993438 
L 541.299645 173.832177 
L 541.659554 173.538974 
L 542.010634 173.304413 
L 542.13278 173.157811 
L 542.415997 172.835289 
L 542.924393 172.644708 
L 543.496131 172.028983 
L 543.86301 171.853061 
L 544.57151 171.471899 
L 544.691435 171.383938 
L 544.843489 171.178696 
L 545.227991 170.753553 
L 545.374956 170.489671 
L 546.203269 170.079188 
L 546.407733 169.932587 
L 546.511242 169.888606 
L 546.945508 169.536764 
L 547.093753 169.448803 
L 547.457456 169.214241 
L 547.855572 169.06764 
L 548.002294 168.921039 
L 548.209362 168.759778 
L 548.335181 168.642497 
L 548.60413 168.290654 
L 548.703239 168.217354 
L 549.087353 167.938811 
L 549.466478 167.821531 
L 549.623257 167.557649 
L 549.764062 167.411047 
L 549.956745 167.293767 
L 550.048414 167.132505 
L 550.17163 166.985904 
L 550.719514 166.707362 
L 551.141703 166.560761 
L 552.202857 165.417272 
L 552.775247 165.16805 
L 553.07872 164.728247 
L 553.236851 164.581646 
L 553.480637 164.303104 
L 553.593532 164.083202 
L 553.818227 163.79 
L 554.368237 163.599418 
L 554.477241 163.467477 
L 554.629882 163.306216 
L 554.746193 163.174275 
L 554.9133 163.027674 
L 555.250331 162.617191 
L 556.397662 162.016126 
L 556.884694 161.561663 
L 557.023398 161.415062 
L 557.116021 161.327101 
L 557.815796 161.033899 
L 558.306027 160.066331 
L 558.407227 159.787789 
L 558.502563 159.611868 
L 558.639618 159.553227 
L 558.946976 159.391966 
L 559.392712 159.260025 
L 559.752731 158.761581 
L 559.984119 158.571 
L 560.388486 158.307118 
L 560.964842 158.160517 
L 561.074834 158.028576 
L 561.234182 157.837994 
L 561.87117 157.148969 
L 562.033379 157.002368 
L 562.054523 156.958387 
L 562.629247 156.797126 
L 562.779694 156.650525 
L 563.387373 155.99082 
L 563.768144 155.609657 
L 564.453273 155.463056 
L 564.576519 155.257814 
L 564.665902 155.140533 
L 564.917498 154.964612 
L 565.647923 154.202286 
L 566.107224 153.909084 
L 567.159128 152.882876 
L 567.67296 152.721615 
L 568.580615 151.622107 
L 569.105829 151.446185 
L 569.221165 151.328904 
L 569.500239 151.006382 
L 569.569923 150.903761 
L 569.720845 150.77182 
L 569.833037 150.522598 
L 569.947075 150.141435 
L 570.098141 149.994834 
L 570.221581 149.833573 
L 570.281244 149.789592 
L 570.798125 149.628331 
L 570.924118 149.43775 
L 571.157128 149.291149 
L 571.173273 149.232508 
L 571.331146 149.100567 
L 571.962844 148.426202 
L 572.525396 148.250281 
L 573.887172 147.018831 
L 574.097512 146.85757 
L 574.221624 146.637668 
L 574.53447 146.373786 
L 574.775223 146.183205 
L 575.279997 145.846022 
L 575.482422 145.787382 
L 575.887829 145.58214 
L 576.763083 144.541272 
L 577.43567 144.21875 
L 577.559127 144.086809 
L 577.885683 143.822927 
L 578.022931 143.734966 
L 578.149923 143.573705 
L 578.306534 143.456424 
L 578.953359 143.295163 
L 579.267109 142.89934 
L 579.378448 142.664778 
L 579.637133 142.444876 
L 579.739775 142.268955 
L 579.868318 142.093034 
L 580.280225 141.711871 
L 580.670486 141.550609 
L 580.976921 141.345368 
L 581.500303 140.744303 
L 581.760864 140.33382 
L 582.306014 140.128578 
L 582.475842 139.967317 
L 583.299037 139.424893 
L 583.439893 139.292952 
L 583.995201 139.117031 
L 584.401835 138.794508 
L 584.519753 138.545286 
L 585.220679 138.222764 
L 585.648897 138.090823 
L 585.754048 137.929562 
L 586.048753 137.73898 
L 586.357288 137.240536 
L 586.516301 137.049955 
L 586.711066 136.903354 
L 587.262116 136.610152 
L 587.668777 136.199668 
L 587.779177 136.038407 
L 587.93765 135.818505 
L 588.026088 135.759865 
L 588.266073 135.569284 
L 588.545967 135.481323 
L 588.85104 135.334722 
L 589.36343 134.821618 
L 589.512956 134.645697 
L 589.631192 134.367154 
L 589.741258 134.205893 
L 590.069086 133.898031 
L 590.522887 133.663469 
L 590.617465 133.531528 
L 591.152736 133.296966 
L 591.320843 133.223666 
L 591.584033 133.062404 
L 591.696947 132.974444 
L 592.142387 132.827843 
L 592.918895 132.49066 
L 593.167645 132.270758 
L 593.790351 132.050857 
L 594.859936 130.878048 
L 595.445752 130.628826 
L 595.751294 130.218343 
L 595.878134 130.071741 
L 596.080608 129.85184 
L 596.261675 129.690579 
L 596.894261 129.280095 
L 597.172322 129.148154 
L 597.280642 129.089514 
L 598.474034 128.371168 
L 599.050532 128.121947 
L 599.142334 128.077966 
L 599.317585 127.931365 
L 599.481122 127.814084 
L 600.415493 127.447581 
L 601.195078 126.641275 
L 602.018736 126.392053 
L 602.380615 126.054871 
L 602.491174 125.878949 
L 602.733728 125.688368 
L 602.912283 125.571087 
L 603.450088 125.248565 
L 603.58164 125.189924 
L 603.76133 124.999343 
L 604.009463 124.794101 
L 604.173427 124.574199 
L 604.304405 124.442258 
L 605.379282 123.914494 
L 605.492082 123.826534 
L 605.662051 123.694593 
L 605.744592 123.547992 
L 606.110758 123.34275 
L 606.334997 123.166829 
L 607.221525 122.771006 
L 607.956009 121.935379 
L 608.043932 121.803438 
L 608.366827 121.715477 
L 608.631999 121.583536 
L 608.816848 121.436935 
L 608.978623 121.290334 
L 609.297907 120.923831 
L 609.609993 120.645289 
L 610.14397 120.513348 
L 610.798137 120.000244 
L 611.00026 119.868303 
L 611.441139 119.45782 
L 611.891825 119.311219 
L 612.079875 119.105977 
L 612.272588 118.944716 
L 612.836378 118.270351 
L 613.329664 117.977149 
L 613.403529 117.933169 
L 613.601865 117.801227 
L 614.256996 117.317444 
L 614.357613 117.200163 
L 615.181815 116.745699 
L 615.639726 116.320556 
L 615.882565 116.085994 
L 617.02513 115.45561 
L 617.229627 115.294348 
L 617.506428 115.089107 
L 618.003735 114.781244 
L 618.432802 114.649303 
L 618.571036 114.546683 
L 618.762814 114.400081 
L 619.455242 113.813677 
L 619.617821 113.725716 
L 620.107131 113.520475 
L 621.254877 112.670188 
L 621.776551 112.479607 
L 622.053113 112.157084 
L 622.243121 112.025143 
L 622.416146 111.878542 
L 622.636364 111.6 
L 622.636364 111.6 
" style="fill:none;stroke:#92c6ff;stroke-linecap:round;stroke-width:1.5;"/>
   </g>
   <g id="line2d_30">
    <defs>
     <path d="M 0 2.5 
C 0.663008 2.5 1.29895 2.236584 1.767767 1.767767 
C 2.236584 1.29895 2.5 0.663008 2.5 0 
C 2.5 -0.663008 2.236584 -1.29895 1.767767 -1.767767 
C 1.29895 -2.236584 0.663008 -2.5 0 -2.5 
C -0.663008 -2.5 -1.29895 -2.236584 -1.767767 -1.767767 
C -2.236584 -1.29895 -2.5 -0.663008 -2.5 0 
C -2.5 0.663008 -2.236584 1.29895 -1.767767 1.767767 
C -1.29895 2.236584 -0.663008 2.5 0 2.5 
z
" id="m0b6a677e21" style="stroke:#696969;"/>
    </defs>
    <g clip-path="url(#p4864a14195)">
     <use style="fill:#696969;stroke:#696969;" x="115.363636" xlink:href="#m0b6a677e21" y="615.6"/>
    </g>
   </g>
   <g id="line2d_31">
    <g clip-path="url(#p4864a14195)">
     <use style="fill:#696969;stroke:#696969;" x="201.839797" xlink:href="#m0b6a677e21" y="565.198534"/>
    </g>
   </g>
   <g id="line2d_32">
    <g clip-path="url(#p4864a14195)">
     <use style="fill:#696969;stroke:#696969;" x="246.311534" xlink:href="#m0b6a677e21" y="514.797068"/>
    </g>
   </g>
   <g id="line2d_33">
    <g clip-path="url(#p4864a14195)">
     <use style="fill:#696969;stroke:#696969;" x="284.929443" xlink:href="#m0b6a677e21" y="464.395602"/>
    </g>
   </g>
   <g id="line2d_34">
    <g clip-path="url(#p4864a14195)">
     <use style="fill:#696969;stroke:#696969;" x="315.004842" xlink:href="#m0b6a677e21" y="413.994136"/>
    </g>
   </g>
   <g id="line2d_35">
    <g clip-path="url(#p4864a14195)">
     <use style="fill:#696969;stroke:#696969;" x="349.63868" xlink:href="#m0b6a677e21" y="363.59267"/>
    </g>
   </g>
   <g id="line2d_36">
    <g clip-path="url(#p4864a14195)">
     <use style="fill:#696969;stroke:#696969;" x="390.926795" xlink:href="#m0b6a677e21" y="313.191204"/>
    </g>
   </g>
   <g id="line2d_37">
    <g clip-path="url(#p4864a14195)">
     <use style="fill:#696969;stroke:#696969;" x="436.11644" xlink:href="#m0b6a677e21" y="262.789738"/>
    </g>
   </g>
   <g id="line2d_38">
    <g clip-path="url(#p4864a14195)">
     <use style="fill:#696969;stroke:#696969;" x="491.322493" xlink:href="#m0b6a677e21" y="212.388272"/>
    </g>
   </g>
   <g id="line2d_39">
    <g clip-path="url(#p4864a14195)">
     <use style="fill:#696969;stroke:#696969;" x="556.435841" xlink:href="#m0b6a677e21" y="161.986806"/>
    </g>
   </g>
   <g id="line2d_40">
    <g clip-path="url(#p4864a14195)">
     <use style="fill:#696969;stroke:#696969;" x="622.636364" xlink:href="#m0b6a677e21" y="111.6"/>
    </g>
   </g>
   <g id="patch_3">
    <path d="M 90 640.8 
L 90 86.4 
" style="fill:none;stroke:#cccccc;stroke-linecap:square;stroke-linejoin:miter;"/>
   </g>
   <g id="patch_4">
    <path d="M 648 640.8 
L 648 86.4 
" style="fill:none;stroke:#cccccc;stroke-linecap:square;stroke-linejoin:miter;"/>
   </g>
   <g id="patch_5">
    <path d="M 90 640.8 
L 648 640.8 
" style="fill:none;stroke:#cccccc;stroke-linecap:square;stroke-linejoin:miter;"/>
   </g>
   <g id="patch_6">
    <path d="M 90 86.4 
L 648 86.4 
" style="fill:none;stroke:#cccccc;stroke-linecap:square;stroke-linejoin:miter;"/>
   </g>
   <g id="text_15">
    <!-- 1 (2014-06-06) -->
    <defs>
     <path id="DejaVuSans-32"/>
     <path d="M 31 75.875 
Q 24.46875 64.65625 21.28125 53.65625 
Q 18.109375 42.671875 18.109375 31.390625 
Q 18.109375 20.125 21.3125 9.0625 
Q 24.515625 -2 31 -13.1875 
L 23.1875 -13.1875 
Q 15.875 -1.703125 12.234375 9.375 
Q 8.59375 20.453125 8.59375 31.390625 
Q 8.59375 42.28125 12.203125 53.3125 
Q 15.828125 64.359375 23.1875 75.875 
z
" id="DejaVuSans-40"/>
     <path d="M 37.796875 64.3125 
L 12.890625 25.390625 
L 37.796875 25.390625 
z
M 35.203125 72.90625 
L 47.609375 72.90625 
L 47.609375 25.390625 
L 58.015625 25.390625 
L 58.015625 17.1875 
L 47.609375 17.1875 
L 47.609375 0 
L 37.796875 0 
L 37.796875 17.1875 
L 4.890625 17.1875 
L 4.890625 26.703125 
z
" id="DejaVuSans-52"/>
     <path d="M 4.890625 31.390625 
L 31.203125 31.390625 
L 31.203125 23.390625 
L 4.890625 23.390625 
z
" id="DejaVuSans-45"/>
     <path d="M 8.015625 75.875 
L 15.828125 75.875 
Q 23.140625 64.359375 26.78125 53.3125 
Q 30.421875 42.28125 30.421875 31.390625 
Q 30.421875 20.453125 26.78125 9.375 
Q 23.140625 -1.703125 15.828125 -13.1875 
L 8.015625 -13.1875 
Q 14.5 -2 17.703125 9.0625 
Q 20.90625 20.125 20.90625 31.390625 
Q 20.90625 42.671875 17.703125 53.65625 
Q 14.5 64.65625 8.015625 75.875 
z
" id="DejaVuSans-41"/>
    </defs>
    <g style="fill:#262626;" transform="translate(120.363636 623.198437)scale(0.1 -0.1)">
     <use xlink:href="#DejaVuSans-49"/>
     <use x="63.623047" xlink:href="#DejaVuSans-32"/>
     <use x="95.410156" xlink:href="#DejaVuSans-40"/>
     <use x="134.423828" xlink:href="#DejaVuSans-50"/>
     <use x="198.046875" xlink:href="#DejaVuSans-48"/>
     <use x="261.669922" xlink:href="#DejaVuSans-49"/>
     <use x="325.292969" xlink:href="#DejaVuSans-52"/>
     <use x="388.916016" xlink:href="#DejaVuSans-45"/>
     <use x="425" xlink:href="#DejaVuSans-48"/>
     <use x="488.623047" xlink:href="#DejaVuSans-54"/>
     <use x="552.246094" xlink:href="#DejaVuSans-45"/>
     <use x="588.330078" xlink:href="#DejaVuSans-48"/>
     <use x="651.953125" xlink:href="#DejaVuSans-54"/>
     <use x="715.576172" xlink:href="#DejaVuSans-41"/>
    </g>
   </g>
   <g id="text_16">
    <!-- 3439 (2015-06-10) -->
    <g style="fill:#262626;" transform="translate(206.839797 572.796971)scale(0.1 -0.1)">
     <use xlink:href="#DejaVuSans-51"/>
     <use x="63.623047" xlink:href="#DejaVuSans-52"/>
     <use x="127.246094" xlink:href="#DejaVuSans-51"/>
     <use x="190.869141" xlink:href="#DejaVuSans-57"/>
     <use x="254.492188" xlink:href="#DejaVuSans-32"/>
     <use x="286.279297" xlink:href="#DejaVuSans-40"/>
     <use x="325.292969" xlink:href="#DejaVuSans-50"/>
     <use x="388.916016" xlink:href="#DejaVuSans-48"/>
     <use x="452.539062" xlink:href="#DejaVuSans-49"/>
     <use x="516.162109" xlink:href="#DejaVuSans-53"/>
     <use x="579.785156" xlink:href="#DejaVuSans-45"/>
     <use x="615.869141" xlink:href="#DejaVuSans-48"/>
     <use x="679.492188" xlink:href="#DejaVuSans-54"/>
     <use x="743.115234" xlink:href="#DejaVuSans-45"/>
     <use x="779.199219" xlink:href="#DejaVuSans-49"/>
     <use x="842.822266" xlink:href="#DejaVuSans-48"/>
     <use x="906.445312" xlink:href="#DejaVuSans-41"/>
    </g>
   </g>
   <g id="text_17">
    <!-- 6877 (2015-12-17) -->
    <g style="fill:#262626;" transform="translate(251.311534 522.395505)scale(0.1 -0.1)">
     <use xlink:href="#DejaVuSans-54"/>
     <use x="63.623047" xlink:href="#DejaVuSans-56"/>
     <use x="127.246094" xlink:href="#DejaVuSans-55"/>
     <use x="190.869141" xlink:href="#DejaVuSans-55"/>
     <use x="254.492188" xlink:href="#DejaVuSans-32"/>
     <use x="286.279297" xlink:href="#DejaVuSans-40"/>
     <use x="325.292969" xlink:href="#DejaVuSans-50"/>
     <use x="388.916016" xlink:href="#DejaVuSans-48"/>
     <use x="452.539062" xlink:href="#DejaVuSans-49"/>
     <use x="516.162109" xlink:href="#DejaVuSans-53"/>
     <use x="579.785156" xlink:href="#DejaVuSans-45"/>
     <use x="615.869141" xlink:href="#DejaVuSans-49"/>
     <use x="679.492188" xlink:href="#DejaVuSans-50"/>
     <use x="743.115234" xlink:href="#DejaVuSans-45"/>
     <use x="779.199219" xlink:href="#DejaVuSans-49"/>
     <use x="842.822266" xlink:href="#DejaVuSans-55"/>
     <use x="906.445312" xlink:href="#DejaVuSans-41"/>
    </g>
   </g>
   <g id="text_18">
    <!-- 10315 (2016-05-29) -->
    <g style="fill:#262626;" transform="translate(289.929443 471.994039)scale(0.1 -0.1)">
     <use xlink:href="#DejaVuSans-49"/>
     <use x="63.623047" xlink:href="#DejaVuSans-48"/>
     <use x="127.246094" xlink:href="#DejaVuSans-51"/>
     <use x="190.869141" xlink:href="#DejaVuSans-49"/>
     <use x="254.492188" xlink:href="#DejaVuSans-53"/>
     <use x="318.115234" xlink:href="#DejaVuSans-32"/>
     <use x="349.902344" xlink:href="#DejaVuSans-40"/>
     <use x="388.916016" xlink:href="#DejaVuSans-50"/>
     <use x="452.539062" xlink:href="#DejaVuSans-48"/>
     <use x="516.162109" xlink:href="#DejaVuSans-49"/>
     <use x="579.785156" xlink:href="#DejaVuSans-54"/>
     <use x="643.408203" xlink:href="#DejaVuSans-45"/>
     <use x="679.492188" xlink:href="#DejaVuSans-48"/>
     <use x="743.115234" xlink:href="#DejaVuSans-53"/>
     <use x="806.738281" xlink:href="#DejaVuSans-45"/>
     <use x="842.822266" xlink:href="#DejaVuSans-50"/>
     <use x="906.445312" xlink:href="#DejaVuSans-57"/>
     <use x="970.068359" xlink:href="#DejaVuSans-41"/>
    </g>
   </g>
   <g id="text_19">
    <!-- 13753 (2016-10-04) -->
    <g style="fill:#262626;" transform="translate(320.004842 421.592573)scale(0.1 -0.1)">
     <use xlink:href="#DejaVuSans-49"/>
     <use x="63.623047" xlink:href="#DejaVuSans-51"/>
     <use x="127.246094" xlink:href="#DejaVuSans-55"/>
     <use x="190.869141" xlink:href="#DejaVuSans-53"/>
     <use x="254.492188" xlink:href="#DejaVuSans-51"/>
     <use x="318.115234" xlink:href="#DejaVuSans-32"/>
     <use x="349.902344" xlink:href="#DejaVuSans-40"/>
     <use x="388.916016" xlink:href="#DejaVuSans-50"/>
     <use x="452.539062" xlink:href="#DejaVuSans-48"/>
     <use x="516.162109" xlink:href="#DejaVuSans-49"/>
     <use x="579.785156" xlink:href="#DejaVuSans-54"/>
     <use x="643.408203" xlink:href="#DejaVuSans-45"/>
     <use x="679.492188" xlink:href="#DejaVuSans-49"/>
     <use x="743.115234" xlink:href="#DejaVuSans-48"/>
     <use x="806.738281" xlink:href="#DejaVuSans-45"/>
     <use x="842.822266" xlink:href="#DejaVuSans-48"/>
     <use x="906.445312" xlink:href="#DejaVuSans-52"/>
     <use x="970.068359" xlink:href="#DejaVuSans-41"/>
    </g>
   </g>
   <g id="text_20">
    <!-- 17191 (2017-03-01) -->
    <g style="fill:#262626;" transform="translate(354.63868 371.191107)scale(0.1 -0.1)">
     <use xlink:href="#DejaVuSans-49"/>
     <use x="63.623047" xlink:href="#DejaVuSans-55"/>
     <use x="127.246094" xlink:href="#DejaVuSans-49"/>
     <use x="190.869141" xlink:href="#DejaVuSans-57"/>
     <use x="254.492188" xlink:href="#DejaVuSans-49"/>
     <use x="318.115234" xlink:href="#DejaVuSans-32"/>
     <use x="349.902344" xlink:href="#DejaVuSans-40"/>
     <use x="388.916016" xlink:href="#DejaVuSans-50"/>
     <use x="452.539062" xlink:href="#DejaVuSans-48"/>
     <use x="516.162109" xlink:href="#DejaVuSans-49"/>
     <use x="579.785156" xlink:href="#DejaVuSans-55"/>
     <use x="643.408203" xlink:href="#DejaVuSans-45"/>
     <use x="679.492188" xlink:href="#DejaVuSans-48"/>
     <use x="743.115234" xlink:href="#DejaVuSans-51"/>
     <use x="806.738281" xlink:href="#DejaVuSans-45"/>
     <use x="842.822266" xlink:href="#DejaVuSans-48"/>
     <use x="906.445312" xlink:href="#DejaVuSans-49"/>
     <use x="970.068359" xlink:href="#DejaVuSans-41"/>
    </g>
   </g>
   <g id="text_21">
    <!-- 20629 (2017-08-24) -->
    <g style="fill:#262626;" transform="translate(395.926795 320.789641)scale(0.1 -0.1)">
     <use xlink:href="#DejaVuSans-50"/>
     <use x="63.623047" xlink:href="#DejaVuSans-48"/>
     <use x="127.246094" xlink:href="#DejaVuSans-54"/>
     <use x="190.869141" xlink:href="#DejaVuSans-50"/>
     <use x="254.492188" xlink:href="#DejaVuSans-57"/>
     <use x="318.115234" xlink:href="#DejaVuSans-32"/>
     <use x="349.902344" xlink:href="#DejaVuSans-40"/>
     <use x="388.916016" xlink:href="#DejaVuSans-50"/>
     <use x="452.539062" xlink:href="#DejaVuSans-48"/>
     <use x="516.162109" xlink:href="#DejaVuSans-49"/>
     <use x="579.785156" xlink:href="#DejaVuSans-55"/>
     <use x="643.408203" xlink:href="#DejaVuSans-45"/>
     <use x="679.492188" xlink:href="#DejaVuSans-48"/>
     <use x="743.115234" xlink:href="#DejaVuSans-56"/>
     <use x="806.738281" xlink:href="#DejaVuSans-45"/>
     <use x="842.822266" xlink:href="#DejaVuSans-50"/>
     <use x="906.445312" xlink:href="#DejaVuSans-52"/>
     <use x="970.068359" xlink:href="#DejaVuSans-41"/>
    </g>
   </g>
   <g id="text_22">
    <!-- 24067 (2018-03-05) -->
    <g style="fill:#262626;" transform="translate(441.11644 270.388175)scale(0.1 -0.1)">
     <use xlink:href="#DejaVuSans-50"/>
     <use x="63.623047" xlink:href="#DejaVuSans-52"/>
     <use x="127.246094" xlink:href="#DejaVuSans-48"/>
     <use x="190.869141" xlink:href="#DejaVuSans-54"/>
     <use x="254.492188" xlink:href="#DejaVuSans-55"/>
     <use x="318.115234" xlink:href="#DejaVuSans-32"/>
     <use x="349.902344" xlink:href="#DejaVuSans-40"/>
     <use x="388.916016" xlink:href="#DejaVuSans-50"/>
     <use x="452.539062" xlink:href="#DejaVuSans-48"/>
     <use x="516.162109" xlink:href="#DejaVuSans-49"/>
     <use x="579.785156" xlink:href="#DejaVuSans-56"/>
     <use x="643.408203" xlink:href="#DejaVuSans-45"/>
     <use x="679.492188" xlink:href="#DejaVuSans-48"/>
     <use x="743.115234" xlink:href="#DejaVuSans-51"/>
     <use x="806.738281" xlink:href="#DejaVuSans-45"/>
     <use x="842.822266" xlink:href="#DejaVuSans-48"/>
     <use x="906.445312" xlink:href="#DejaVuSans-53"/>
     <use x="970.068359" xlink:href="#DejaVuSans-41"/>
    </g>
   </g>
   <g id="text_23">
    <!-- 27505 (2018-10-26) -->
    <g style="fill:#262626;" transform="translate(496.322493 219.986709)scale(0.1 -0.1)">
     <use xlink:href="#DejaVuSans-50"/>
     <use x="63.623047" xlink:href="#DejaVuSans-55"/>
     <use x="127.246094" xlink:href="#DejaVuSans-53"/>
     <use x="190.869141" xlink:href="#DejaVuSans-48"/>
     <use x="254.492188" xlink:href="#DejaVuSans-53"/>
     <use x="318.115234" xlink:href="#DejaVuSans-32"/>
     <use x="349.902344" xlink:href="#DejaVuSans-40"/>
     <use x="388.916016" xlink:href="#DejaVuSans-50"/>
     <use x="452.539062" xlink:href="#DejaVuSans-48"/>
     <use x="516.162109" xlink:href="#DejaVuSans-49"/>
     <use x="579.785156" xlink:href="#DejaVuSans-56"/>
     <use x="643.408203" xlink:href="#DejaVuSans-45"/>
     <use x="679.492188" xlink:href="#DejaVuSans-49"/>
     <use x="743.115234" xlink:href="#DejaVuSans-48"/>
     <use x="806.738281" xlink:href="#DejaVuSans-45"/>
     <use x="842.822266" xlink:href="#DejaVuSans-50"/>
     <use x="906.445312" xlink:href="#DejaVuSans-54"/>
     <use x="970.068359" xlink:href="#DejaVuSans-41"/>
    </g>
   </g>
   <g id="text_24">
    <!-- 30943 (2019-07-31) -->
    <g style="fill:#262626;" transform="translate(561.435841 169.585243)scale(0.1 -0.1)">
     <use xlink:href="#DejaVuSans-51"/>
     <use x="63.623047" xlink:href="#DejaVuSans-48"/>
     <use x="127.246094" xlink:href="#DejaVuSans-57"/>
     <use x="190.869141" xlink:href="#DejaVuSans-52"/>
     <use x="254.492188" xlink:href="#DejaVuSans-51"/>
     <use x="318.115234" xlink:href="#DejaVuSans-32"/>
     <use x="349.902344" xlink:href="#DejaVuSans-40"/>
     <use x="388.916016" xlink:href="#DejaVuSans-50"/>
     <use x="452.539062" xlink:href="#DejaVuSans-48"/>
     <use x="516.162109" xlink:href="#DejaVuSans-49"/>
     <use x="579.785156" xlink:href="#DejaVuSans-57"/>
     <use x="643.408203" xlink:href="#DejaVuSans-45"/>
     <use x="679.492188" xlink:href="#DejaVuSans-48"/>
     <use x="743.115234" xlink:href="#DejaVuSans-55"/>
     <use x="806.738281" xlink:href="#DejaVuSans-45"/>
     <use x="842.822266" xlink:href="#DejaVuSans-51"/>
     <use x="906.445312" xlink:href="#DejaVuSans-49"/>
     <use x="970.068359" xlink:href="#DejaVuSans-41"/>
    </g>
   </g>
   <g id="text_25">
    <!-- 34380 (2020-05-08) -->
    <g style="fill:#262626;" transform="translate(627.636364 119.198437)scale(0.1 -0.1)">
     <use xlink:href="#DejaVuSans-51"/>
     <use x="63.623047" xlink:href="#DejaVuSans-52"/>
     <use x="127.246094" xlink:href="#DejaVuSans-51"/>
     <use x="190.869141" xlink:href="#DejaVuSans-56"/>
     <use x="254.492188" xlink:href="#DejaVuSans-48"/>
     <use x="318.115234" xlink:href="#DejaVuSans-32"/>
     <use x="349.902344" xlink:href="#DejaVuSans-40"/>
     <use x="388.916016" xlink:href="#DejaVuSans-50"/>
     <use x="452.539062" xlink:href="#DejaVuSans-48"/>
     <use x="516.162109" xlink:href="#DejaVuSans-50"/>
     <use x="579.785156" xlink:href="#DejaVuSans-48"/>
     <use x="643.408203" xlink:href="#DejaVuSans-45"/>
     <use x="679.492188" xlink:href="#DejaVuSans-48"/>
     <use x="743.115234" xlink:href="#DejaVuSans-53"/>
     <use x="806.738281" xlink:href="#DejaVuSans-45"/>
     <use x="842.822266" xlink:href="#DejaVuSans-48"/>
     <use x="906.445312" xlink:href="#DejaVuSans-56"/>
     <use x="970.068359" xlink:href="#DejaVuSans-41"/>
    </g>
   </g>
   <g id="text_26">
    <!-- Created issues over time -->
    <defs>
     <path d="M 64.40625 67.28125 
L 64.40625 56.890625 
Q 59.421875 61.53125 53.78125 63.8125 
Q 48.140625 66.109375 41.796875 66.109375 
Q 29.296875 66.109375 22.65625 58.46875 
Q 16.015625 50.828125 16.015625 36.375 
Q 16.015625 21.96875 22.65625 14.328125 
Q 29.296875 6.6875 41.796875 6.6875 
Q 48.140625 6.6875 53.78125 8.984375 
Q 59.421875 11.28125 64.40625 15.921875 
L 64.40625 5.609375 
Q 59.234375 2.09375 53.4375 0.328125 
Q 47.65625 -1.421875 41.21875 -1.421875 
Q 24.65625 -1.421875 15.125 8.703125 
Q 5.609375 18.84375 5.609375 36.375 
Q 5.609375 53.953125 15.125 64.078125 
Q 24.65625 74.21875 41.21875 74.21875 
Q 47.75 74.21875 53.53125 72.484375 
Q 59.328125 70.75 64.40625 67.28125 
z
" id="DejaVuSans-67"/>
     <path d="M 41.109375 46.296875 
Q 39.59375 47.171875 37.8125 47.578125 
Q 36.03125 48 33.890625 48 
Q 26.265625 48 22.1875 43.046875 
Q 18.109375 38.09375 18.109375 28.8125 
L 18.109375 0 
L 9.078125 0 
L 9.078125 54.6875 
L 18.109375 54.6875 
L 18.109375 46.1875 
Q 20.953125 51.171875 25.484375 53.578125 
Q 30.03125 56 36.53125 56 
Q 37.453125 56 38.578125 55.875 
Q 39.703125 55.765625 41.0625 55.515625 
z
" id="DejaVuSans-114"/>
     <path d="M 56.203125 29.59375 
L 56.203125 25.203125 
L 14.890625 25.203125 
Q 15.484375 15.921875 20.484375 11.0625 
Q 25.484375 6.203125 34.421875 6.203125 
Q 39.59375 6.203125 44.453125 7.46875 
Q 49.3125 8.734375 54.109375 11.28125 
L 54.109375 2.78125 
Q 49.265625 0.734375 44.1875 -0.34375 
Q 39.109375 -1.421875 33.890625 -1.421875 
Q 20.796875 -1.421875 13.15625 6.1875 
Q 5.515625 13.8125 5.515625 26.8125 
Q 5.515625 40.234375 12.765625 48.109375 
Q 20.015625 56 32.328125 56 
Q 43.359375 56 49.78125 48.890625 
Q 56.203125 41.796875 56.203125 29.59375 
z
M 47.21875 32.234375 
Q 47.125 39.59375 43.09375 43.984375 
Q 39.0625 48.390625 32.421875 48.390625 
Q 24.90625 48.390625 20.390625 44.140625 
Q 15.875 39.890625 15.1875 32.171875 
z
" id="DejaVuSans-101"/>
     <path d="M 34.28125 27.484375 
Q 23.390625 27.484375 19.1875 25 
Q 14.984375 22.515625 14.984375 16.5 
Q 14.984375 11.71875 18.140625 8.90625 
Q 21.296875 6.109375 26.703125 6.109375 
Q 34.1875 6.109375 38.703125 11.40625 
Q 43.21875 16.703125 43.21875 25.484375 
L 43.21875 27.484375 
z
M 52.203125 31.203125 
L 52.203125 0 
L 43.21875 0 
L 43.21875 8.296875 
Q 40.140625 3.328125 35.546875 0.953125 
Q 30.953125 -1.421875 24.3125 -1.421875 
Q 15.921875 -1.421875 10.953125 3.296875 
Q 6 8.015625 6 15.921875 
Q 6 25.140625 12.171875 29.828125 
Q 18.359375 34.515625 30.609375 34.515625 
L 43.21875 34.515625 
L 43.21875 35.40625 
Q 43.21875 41.609375 39.140625 45 
Q 35.0625 48.390625 27.6875 48.390625 
Q 23 48.390625 18.546875 47.265625 
Q 14.109375 46.140625 10.015625 43.890625 
L 10.015625 52.203125 
Q 14.9375 54.109375 19.578125 55.046875 
Q 24.21875 56 28.609375 56 
Q 40.484375 56 46.34375 49.84375 
Q 52.203125 43.703125 52.203125 31.203125 
z
" id="DejaVuSans-97"/>
     <path d="M 18.3125 70.21875 
L 18.3125 54.6875 
L 36.8125 54.6875 
L 36.8125 47.703125 
L 18.3125 47.703125 
L 18.3125 18.015625 
Q 18.3125 11.328125 20.140625 9.421875 
Q 21.96875 7.515625 27.59375 7.515625 
L 36.8125 7.515625 
L 36.8125 0 
L 27.59375 0 
Q 17.1875 0 13.234375 3.875 
Q 9.28125 7.765625 9.28125 18.015625 
L 9.28125 47.703125 
L 2.6875 47.703125 
L 2.6875 54.6875 
L 9.28125 54.6875 
L 9.28125 70.21875 
z
" id="DejaVuSans-116"/>
     <path d="M 45.40625 46.390625 
L 45.40625 75.984375 
L 54.390625 75.984375 
L 54.390625 0 
L 45.40625 0 
L 45.40625 8.203125 
Q 42.578125 3.328125 38.25 0.953125 
Q 33.9375 -1.421875 27.875 -1.421875 
Q 17.96875 -1.421875 11.734375 6.484375 
Q 5.515625 14.40625 5.515625 27.296875 
Q 5.515625 40.1875 11.734375 48.09375 
Q 17.96875 56 27.875 56 
Q 33.9375 56 38.25 53.625 
Q 42.578125 51.265625 45.40625 46.390625 
z
M 14.796875 27.296875 
Q 14.796875 17.390625 18.875 11.75 
Q 22.953125 6.109375 30.078125 6.109375 
Q 37.203125 6.109375 41.296875 11.75 
Q 45.40625 17.390625 45.40625 27.296875 
Q 45.40625 37.203125 41.296875 42.84375 
Q 37.203125 48.484375 30.078125 48.484375 
Q 22.953125 48.484375 18.875 42.84375 
Q 14.796875 37.203125 14.796875 27.296875 
z
" id="DejaVuSans-100"/>
     <path d="M 9.421875 54.6875 
L 18.40625 54.6875 
L 18.40625 0 
L 9.421875 0 
z
M 9.421875 75.984375 
L 18.40625 75.984375 
L 18.40625 64.59375 
L 9.421875 64.59375 
z
" id="DejaVuSans-105"/>
     <path d="M 44.28125 53.078125 
L 44.28125 44.578125 
Q 40.484375 46.53125 36.375 47.5 
Q 32.28125 48.484375 27.875 48.484375 
Q 21.1875 48.484375 17.84375 46.4375 
Q 14.5 44.390625 14.5 40.28125 
Q 14.5 37.15625 16.890625 35.375 
Q 19.28125 33.59375 26.515625 31.984375 
L 29.59375 31.296875 
Q 39.15625 29.25 43.1875 25.515625 
Q 47.21875 21.78125 47.21875 15.09375 
Q 47.21875 7.46875 41.1875 3.015625 
Q 35.15625 -1.421875 24.609375 -1.421875 
Q 20.21875 -1.421875 15.453125 -0.5625 
Q 10.6875 0.296875 5.421875 2 
L 5.421875 11.28125 
Q 10.40625 8.6875 15.234375 7.390625 
Q 20.0625 6.109375 24.8125 6.109375 
Q 31.15625 6.109375 34.5625 8.28125 
Q 37.984375 10.453125 37.984375 14.40625 
Q 37.984375 18.0625 35.515625 20.015625 
Q 33.0625 21.96875 24.703125 23.78125 
L 21.578125 24.515625 
Q 13.234375 26.265625 9.515625 29.90625 
Q 5.8125 33.546875 5.8125 39.890625 
Q 5.8125 47.609375 11.28125 51.796875 
Q 16.75 56 26.8125 56 
Q 31.78125 56 36.171875 55.265625 
Q 40.578125 54.546875 44.28125 53.078125 
z
" id="DejaVuSans-115"/>
     <path d="M 8.5 21.578125 
L 8.5 54.6875 
L 17.484375 54.6875 
L 17.484375 21.921875 
Q 17.484375 14.15625 20.5 10.265625 
Q 23.53125 6.390625 29.59375 6.390625 
Q 36.859375 6.390625 41.078125 11.03125 
Q 45.3125 15.671875 45.3125 23.6875 
L 45.3125 54.6875 
L 54.296875 54.6875 
L 54.296875 0 
L 45.3125 0 
L 45.3125 8.40625 
Q 42.046875 3.421875 37.71875 1 
Q 33.40625 -1.421875 27.6875 -1.421875 
Q 18.265625 -1.421875 13.375 4.4375 
Q 8.5 10.296875 8.5 21.578125 
z
M 31.109375 56 
z
" id="DejaVuSans-117"/>
     <path d="M 30.609375 48.390625 
Q 23.390625 48.390625 19.1875 42.75 
Q 14.984375 37.109375 14.984375 27.296875 
Q 14.984375 17.484375 19.15625 11.84375 
Q 23.34375 6.203125 30.609375 6.203125 
Q 37.796875 6.203125 41.984375 11.859375 
Q 46.1875 17.53125 46.1875 27.296875 
Q 46.1875 37.015625 41.984375 42.703125 
Q 37.796875 48.390625 30.609375 48.390625 
z
M 30.609375 56 
Q 42.328125 56 49.015625 48.375 
Q 55.71875 40.765625 55.71875 27.296875 
Q 55.71875 13.875 49.015625 6.21875 
Q 42.328125 -1.421875 30.609375 -1.421875 
Q 18.84375 -1.421875 12.171875 6.21875 
Q 5.515625 13.875 5.515625 27.296875 
Q 5.515625 40.765625 12.171875 48.375 
Q 18.84375 56 30.609375 56 
z
" id="DejaVuSans-111"/>
     <path d="M 2.984375 54.6875 
L 12.5 54.6875 
L 29.59375 8.796875 
L 46.6875 54.6875 
L 56.203125 54.6875 
L 35.6875 0 
L 23.484375 0 
z
" id="DejaVuSans-118"/>
     <path d="M 52 44.1875 
Q 55.375 50.25 60.0625 53.125 
Q 64.75 56 71.09375 56 
Q 79.640625 56 84.28125 50.015625 
Q 88.921875 44.046875 88.921875 33.015625 
L 88.921875 0 
L 79.890625 0 
L 79.890625 32.71875 
Q 79.890625 40.578125 77.09375 44.375 
Q 74.3125 48.1875 68.609375 48.1875 
Q 61.625 48.1875 57.5625 43.546875 
Q 53.515625 38.921875 53.515625 30.90625 
L 53.515625 0 
L 44.484375 0 
L 44.484375 32.71875 
Q 44.484375 40.625 41.703125 44.40625 
Q 38.921875 48.1875 33.109375 48.1875 
Q 26.21875 48.1875 22.15625 43.53125 
Q 18.109375 38.875 18.109375 30.90625 
L 18.109375 0 
L 9.078125 0 
L 9.078125 54.6875 
L 18.109375 54.6875 
L 18.109375 46.1875 
Q 21.1875 51.21875 25.484375 53.609375 
Q 29.78125 56 35.6875 56 
Q 41.65625 56 45.828125 52.96875 
Q 50 49.953125 52 44.1875 
z
" id="DejaVuSans-109"/>
    </defs>
    <g style="fill:#262626;" transform="translate(294.061875 80.4)scale(0.12 -0.12)">
     <use xlink:href="#DejaVuSans-67"/>
     <use x="69.824219" xlink:href="#DejaVuSans-114"/>
     <use x="108.6875" xlink:href="#DejaVuSans-101"/>
     <use x="170.210938" xlink:href="#DejaVuSans-97"/>
     <use x="231.490234" xlink:href="#DejaVuSans-116"/>
     <use x="270.699219" xlink:href="#DejaVuSans-101"/>
     <use x="332.222656" xlink:href="#DejaVuSans-100"/>
     <use x="395.699219" xlink:href="#DejaVuSans-32"/>
     <use x="427.486328" xlink:href="#DejaVuSans-105"/>
     <use x="455.269531" xlink:href="#DejaVuSans-115"/>
     <use x="507.369141" xlink:href="#DejaVuSans-115"/>
     <use x="559.46875" xlink:href="#DejaVuSans-117"/>
     <use x="622.847656" xlink:href="#DejaVuSans-101"/>
     <use x="684.371094" xlink:href="#DejaVuSans-115"/>
     <use x="736.470703" xlink:href="#DejaVuSans-32"/>
     <use x="768.257812" xlink:href="#DejaVuSans-111"/>
     <use x="829.439453" xlink:href="#DejaVuSans-118"/>
     <use x="888.619141" xlink:href="#DejaVuSans-101"/>
     <use x="950.142578" xlink:href="#DejaVuSans-114"/>
     <use x="991.255859" xlink:href="#DejaVuSans-32"/>
     <use x="1023.042969" xlink:href="#DejaVuSans-116"/>
     <use x="1062.251953" xlink:href="#DejaVuSans-105"/>
     <use x="1090.035156" xlink:href="#DejaVuSans-109"/>
     <use x="1187.447266" xlink:href="#DejaVuSans-101"/>
    </g>
   </g>
  </g>
 </g>
 <defs>
  <clipPath id="p4864a14195">
   <rect height="554.4" width="558" x="90" y="86.4"/>
  </clipPath>
 </defs>
</svg>
