<?xml version="1.0" encoding="utf-8" standalone="no"?>
<!DOCTYPE svg PUBLIC "-//W3C//DTD SVG 1.1//EN"
  "http://www.w3.org/Graphics/SVG/1.1/DTD/svg11.dtd">
<!-- Created with matplotlib (https://matplotlib.org/) -->
<svg height="720pt" version="1.1" viewBox="0 0 720 720" width="720pt" xmlns="http://www.w3.org/2000/svg" xmlns:xlink="http://www.w3.org/1999/xlink">
 <defs>
  <style type="text/css">
*{stroke-linecap:butt;stroke-linejoin:round;}
  </style>
 </defs>
 <g id="figure_1">
  <g id="patch_1">
   <path d="M 0 720 
L 720 720 
L 720 0 
L 0 0 
z
" style="fill:#ffffff;"/>
  </g>
  <g id="axes_1">
   <g id="patch_2">
    <path d="M 90 640.8 
L 648 640.8 
L 648 86.4 
L 90 86.4 
z
" style="fill:#ffffff;"/>
   </g>
   <g id="matplotlib.axis_1">
    <g id="xtick_1">
     <g id="line2d_1">
      <path clip-path="url(#pf496a157ee)" d="M 163.641975 640.8 
L 163.641975 86.4 
" style="fill:none;stroke:#cccccc;stroke-linecap:round;stroke-width:0.8;"/>
     </g>
     <g id="line2d_2"/>
     <g id="text_1">
      <!-- 2015 -->
      <defs>
       <path d="M 19.1875 8.296875 
L 53.609375 8.296875 
L 53.609375 0 
L 7.328125 0 
L 7.328125 8.296875 
Q 12.9375 14.109375 22.625 23.890625 
Q 32.328125 33.6875 34.8125 36.53125 
Q 39.546875 41.84375 41.421875 45.53125 
Q 43.3125 49.21875 43.3125 52.78125 
Q 43.3125 58.59375 39.234375 62.25 
Q 35.15625 65.921875 28.609375 65.921875 
Q 23.96875 65.921875 18.8125 64.3125 
Q 13.671875 62.703125 7.8125 59.421875 
L 7.8125 69.390625 
Q 13.765625 71.78125 18.9375 73 
Q 24.125 74.21875 28.421875 74.21875 
Q 39.75 74.21875 46.484375 68.546875 
Q 53.21875 62.890625 53.21875 53.421875 
Q 53.21875 48.921875 51.53125 44.890625 
Q 49.859375 40.875 45.40625 35.40625 
Q 44.1875 33.984375 37.640625 27.21875 
Q 31.109375 20.453125 19.1875 8.296875 
z
" id="DejaVuSans-50"/>
       <path d="M 31.78125 66.40625 
Q 24.171875 66.40625 20.328125 58.90625 
Q 16.5 51.421875 16.5 36.375 
Q 16.5 21.390625 20.328125 13.890625 
Q 24.171875 6.390625 31.78125 6.390625 
Q 39.453125 6.390625 43.28125 13.890625 
Q 47.125 21.390625 47.125 36.375 
Q 47.125 51.421875 43.28125 58.90625 
Q 39.453125 66.40625 31.78125 66.40625 
z
M 31.78125 74.21875 
Q 44.046875 74.21875 50.515625 64.515625 
Q 56.984375 54.828125 56.984375 36.375 
Q 56.984375 17.96875 50.515625 8.265625 
Q 44.046875 -1.421875 31.78125 -1.421875 
Q 19.53125 -1.421875 13.0625 8.265625 
Q 6.59375 17.96875 6.59375 36.375 
Q 6.59375 54.828125 13.0625 64.515625 
Q 19.53125 74.21875 31.78125 74.21875 
z
" id="DejaVuSans-48"/>
       <path d="M 12.40625 8.296875 
L 28.515625 8.296875 
L 28.515625 63.921875 
L 10.984375 60.40625 
L 10.984375 69.390625 
L 28.421875 72.90625 
L 38.28125 72.90625 
L 38.28125 8.296875 
L 54.390625 8.296875 
L 54.390625 0 
L 12.40625 0 
z
" id="DejaVuSans-49"/>
       <path d="M 10.796875 72.90625 
L 49.515625 72.90625 
L 49.515625 64.59375 
L 19.828125 64.59375 
L 19.828125 46.734375 
Q 21.96875 47.46875 24.109375 47.828125 
Q 26.265625 48.1875 28.421875 48.1875 
Q 40.625 48.1875 47.75 41.5 
Q 54.890625 34.8125 54.890625 23.390625 
Q 54.890625 11.625 47.5625 5.09375 
Q 40.234375 -1.421875 26.90625 -1.421875 
Q 22.3125 -1.421875 17.546875 -0.640625 
Q 12.796875 0.140625 7.71875 1.703125 
L 7.71875 11.625 
Q 12.109375 9.234375 16.796875 8.0625 
Q 21.484375 6.890625 26.703125 6.890625 
Q 35.15625 6.890625 40.078125 11.328125 
Q 45.015625 15.765625 45.015625 23.390625 
Q 45.015625 31 40.078125 35.4375 
Q 35.15625 39.890625 26.703125 39.890625 
Q 22.75 39.890625 18.8125 39.015625 
Q 14.890625 38.140625 10.796875 36.28125 
z
" id="DejaVuSans-53"/>
      </defs>
      <g style="fill:#262626;" transform="translate(150.916975 651.898438)scale(0.1 -0.1)">
       <use xlink:href="#DejaVuSans-50"/>
       <use x="63.623047" xlink:href="#DejaVuSans-48"/>
       <use x="127.246094" xlink:href="#DejaVuSans-49"/>
       <use x="190.869141" xlink:href="#DejaVuSans-53"/>
      </g>
     </g>
    </g>
    <g id="xtick_2">
     <g id="line2d_3">
      <path clip-path="url(#pf496a157ee)" d="M 248.379604 640.8 
L 248.379604 86.4 
" style="fill:none;stroke:#cccccc;stroke-linecap:round;stroke-width:0.8;"/>
     </g>
     <g id="line2d_4"/>
     <g id="text_2">
      <!-- 2016 -->
      <defs>
       <path d="M 33.015625 40.375 
Q 26.375 40.375 22.484375 35.828125 
Q 18.609375 31.296875 18.609375 23.390625 
Q 18.609375 15.53125 22.484375 10.953125 
Q 26.375 6.390625 33.015625 6.390625 
Q 39.65625 6.390625 43.53125 10.953125 
Q 47.40625 15.53125 47.40625 23.390625 
Q 47.40625 31.296875 43.53125 35.828125 
Q 39.65625 40.375 33.015625 40.375 
z
M 52.59375 71.296875 
L 52.59375 62.3125 
Q 48.875 64.0625 45.09375 64.984375 
Q 41.3125 65.921875 37.59375 65.921875 
Q 27.828125 65.921875 22.671875 59.328125 
Q 17.53125 52.734375 16.796875 39.40625 
Q 19.671875 43.65625 24.015625 45.921875 
Q 28.375 48.1875 33.59375 48.1875 
Q 44.578125 48.1875 50.953125 41.515625 
Q 57.328125 34.859375 57.328125 23.390625 
Q 57.328125 12.15625 50.6875 5.359375 
Q 44.046875 -1.421875 33.015625 -1.421875 
Q 20.359375 -1.421875 13.671875 8.265625 
Q 6.984375 17.96875 6.984375 36.375 
Q 6.984375 53.65625 15.1875 63.9375 
Q 23.390625 74.21875 37.203125 74.21875 
Q 40.921875 74.21875 44.703125 73.484375 
Q 48.484375 72.75 52.59375 71.296875 
z
" id="DejaVuSans-54"/>
      </defs>
      <g style="fill:#262626;" transform="translate(235.654604 651.898438)scale(0.1 -0.1)">
       <use xlink:href="#DejaVuSans-50"/>
       <use x="63.623047" xlink:href="#DejaVuSans-48"/>
       <use x="127.246094" xlink:href="#DejaVuSans-49"/>
       <use x="190.869141" xlink:href="#DejaVuSans-54"/>
      </g>
     </g>
    </g>
    <g id="xtick_3">
     <g id="line2d_5">
      <path clip-path="url(#pf496a157ee)" d="M 333.34939 640.8 
L 333.34939 86.4 
" style="fill:none;stroke:#cccccc;stroke-linecap:round;stroke-width:0.8;"/>
     </g>
     <g id="line2d_6"/>
     <g id="text_3">
      <!-- 2017 -->
      <defs>
       <path d="M 8.203125 72.90625 
L 55.078125 72.90625 
L 55.078125 68.703125 
L 28.609375 0 
L 18.3125 0 
L 43.21875 64.59375 
L 8.203125 64.59375 
z
" id="DejaVuSans-55"/>
      </defs>
      <g style="fill:#262626;" transform="translate(320.62439 651.898438)scale(0.1 -0.1)">
       <use xlink:href="#DejaVuSans-50"/>
       <use x="63.623047" xlink:href="#DejaVuSans-48"/>
       <use x="127.246094" xlink:href="#DejaVuSans-49"/>
       <use x="190.869141" xlink:href="#DejaVuSans-55"/>
      </g>
     </g>
    </g>
    <g id="xtick_4">
     <g id="line2d_7">
      <path clip-path="url(#pf496a157ee)" d="M 418.087018 640.8 
L 418.087018 86.4 
" style="fill:none;stroke:#cccccc;stroke-linecap:round;stroke-width:0.8;"/>
     </g>
     <g id="line2d_8"/>
     <g id="text_4">
      <!-- 2018 -->
      <defs>
       <path d="M 31.78125 34.625 
Q 24.75 34.625 20.71875 30.859375 
Q 16.703125 27.09375 16.703125 20.515625 
Q 16.703125 13.921875 20.71875 10.15625 
Q 24.75 6.390625 31.78125 6.390625 
Q 38.8125 6.390625 42.859375 10.171875 
Q 46.921875 13.96875 46.921875 20.515625 
Q 46.921875 27.09375 42.890625 30.859375 
Q 38.875 34.625 31.78125 34.625 
z
M 21.921875 38.8125 
Q 15.578125 40.375 12.03125 44.71875 
Q 8.5 49.078125 8.5 55.328125 
Q 8.5 64.0625 14.71875 69.140625 
Q 20.953125 74.21875 31.78125 74.21875 
Q 42.671875 74.21875 48.875 69.140625 
Q 55.078125 64.0625 55.078125 55.328125 
Q 55.078125 49.078125 51.53125 44.71875 
Q 48 40.375 41.703125 38.8125 
Q 48.828125 37.15625 52.796875 32.3125 
Q 56.78125 27.484375 56.78125 20.515625 
Q 56.78125 9.90625 50.3125 4.234375 
Q 43.84375 -1.421875 31.78125 -1.421875 
Q 19.734375 -1.421875 13.25 4.234375 
Q 6.78125 9.90625 6.78125 20.515625 
Q 6.78125 27.484375 10.78125 32.3125 
Q 14.796875 37.15625 21.921875 38.8125 
z
M 18.3125 54.390625 
Q 18.3125 48.734375 21.84375 45.5625 
Q 25.390625 42.390625 31.78125 42.390625 
Q 38.140625 42.390625 41.71875 45.5625 
Q 45.3125 48.734375 45.3125 54.390625 
Q 45.3125 60.0625 41.71875 63.234375 
Q 38.140625 66.40625 31.78125 66.40625 
Q 25.390625 66.40625 21.84375 63.234375 
Q 18.3125 60.0625 18.3125 54.390625 
z
" id="DejaVuSans-56"/>
      </defs>
      <g style="fill:#262626;" transform="translate(405.362018 651.898438)scale(0.1 -0.1)">
       <use xlink:href="#DejaVuSans-50"/>
       <use x="63.623047" xlink:href="#DejaVuSans-48"/>
       <use x="127.246094" xlink:href="#DejaVuSans-49"/>
       <use x="190.869141" xlink:href="#DejaVuSans-56"/>
      </g>
     </g>
    </g>
    <g id="xtick_5">
     <g id="line2d_9">
      <path clip-path="url(#pf496a157ee)" d="M 502.824647 640.8 
L 502.824647 86.4 
" style="fill:none;stroke:#cccccc;stroke-linecap:round;stroke-width:0.8;"/>
     </g>
     <g id="line2d_10"/>
     <g id="text_5">
      <!-- 2019 -->
      <defs>
       <path d="M 10.984375 1.515625 
L 10.984375 10.5 
Q 14.703125 8.734375 18.5 7.8125 
Q 22.3125 6.890625 25.984375 6.890625 
Q 35.75 6.890625 40.890625 13.453125 
Q 46.046875 20.015625 46.78125 33.40625 
Q 43.953125 29.203125 39.59375 26.953125 
Q 35.25 24.703125 29.984375 24.703125 
Q 19.046875 24.703125 12.671875 31.3125 
Q 6.296875 37.9375 6.296875 49.421875 
Q 6.296875 60.640625 12.9375 67.421875 
Q 19.578125 74.21875 30.609375 74.21875 
Q 43.265625 74.21875 49.921875 64.515625 
Q 56.59375 54.828125 56.59375 36.375 
Q 56.59375 19.140625 48.40625 8.859375 
Q 40.234375 -1.421875 26.421875 -1.421875 
Q 22.703125 -1.421875 18.890625 -0.6875 
Q 15.09375 0.046875 10.984375 1.515625 
z
M 30.609375 32.421875 
Q 37.25 32.421875 41.125 36.953125 
Q 45.015625 41.5 45.015625 49.421875 
Q 45.015625 57.28125 41.125 61.84375 
Q 37.25 66.40625 30.609375 66.40625 
Q 23.96875 66.40625 20.09375 61.84375 
Q 16.21875 57.28125 16.21875 49.421875 
Q 16.21875 41.5 20.09375 36.953125 
Q 23.96875 32.421875 30.609375 32.421875 
z
" id="DejaVuSans-57"/>
      </defs>
      <g style="fill:#262626;" transform="translate(490.099647 651.898438)scale(0.1 -0.1)">
       <use xlink:href="#DejaVuSans-50"/>
       <use x="63.623047" xlink:href="#DejaVuSans-48"/>
       <use x="127.246094" xlink:href="#DejaVuSans-49"/>
       <use x="190.869141" xlink:href="#DejaVuSans-57"/>
      </g>
     </g>
    </g>
    <g id="xtick_6">
     <g id="line2d_11">
      <path clip-path="url(#pf496a157ee)" d="M 587.562275 640.8 
L 587.562275 86.4 
" style="fill:none;stroke:#cccccc;stroke-linecap:round;stroke-width:0.8;"/>
     </g>
     <g id="line2d_12"/>
     <g id="text_6">
      <!-- 2020 -->
      <g style="fill:#262626;" transform="translate(574.837275 651.898438)scale(0.1 -0.1)">
       <use xlink:href="#DejaVuSans-50"/>
       <use x="63.623047" xlink:href="#DejaVuSans-48"/>
       <use x="127.246094" xlink:href="#DejaVuSans-50"/>
       <use x="190.869141" xlink:href="#DejaVuSans-48"/>
      </g>
     </g>
    </g>
   </g>
   <g id="matplotlib.axis_2">
    <g id="ytick_1">
     <g id="line2d_13">
      <path clip-path="url(#pf496a157ee)" d="M 90 615.608952 
L 648 615.608952 
" style="fill:none;stroke:#cccccc;stroke-linecap:round;stroke-width:0.8;"/>
     </g>
     <g id="line2d_14"/>
     <g id="text_7">
      <!-- 0 -->
      <g style="fill:#262626;" transform="translate(80.1375 619.408171)scale(0.1 -0.1)">
       <use xlink:href="#DejaVuSans-48"/>
      </g>
     </g>
    </g>
    <g id="ytick_2">
     <g id="line2d_15">
      <path clip-path="url(#pf496a157ee)" d="M 90 526.086936 
L 648 526.086936 
" style="fill:none;stroke:#cccccc;stroke-linecap:round;stroke-width:0.8;"/>
     </g>
     <g id="line2d_16"/>
     <g id="text_8">
      <!-- 10000 -->
      <g style="fill:#262626;" transform="translate(54.6875 529.886155)scale(0.1 -0.1)">
       <use xlink:href="#DejaVuSans-49"/>
       <use x="63.623047" xlink:href="#DejaVuSans-48"/>
       <use x="127.246094" xlink:href="#DejaVuSans-48"/>
       <use x="190.869141" xlink:href="#DejaVuSans-48"/>
       <use x="254.492188" xlink:href="#DejaVuSans-48"/>
      </g>
     </g>
    </g>
    <g id="ytick_3">
     <g id="line2d_17">
      <path clip-path="url(#pf496a157ee)" d="M 90 436.564919 
L 648 436.564919 
" style="fill:none;stroke:#cccccc;stroke-linecap:round;stroke-width:0.8;"/>
     </g>
     <g id="line2d_18"/>
     <g id="text_9">
      <!-- 20000 -->
      <g style="fill:#262626;" transform="translate(54.6875 440.364138)scale(0.1 -0.1)">
       <use xlink:href="#DejaVuSans-50"/>
       <use x="63.623047" xlink:href="#DejaVuSans-48"/>
       <use x="127.246094" xlink:href="#DejaVuSans-48"/>
       <use x="190.869141" xlink:href="#DejaVuSans-48"/>
       <use x="254.492188" xlink:href="#DejaVuSans-48"/>
      </g>
     </g>
    </g>
    <g id="ytick_4">
     <g id="line2d_19">
      <path clip-path="url(#pf496a157ee)" d="M 90 347.042903 
L 648 347.042903 
" style="fill:none;stroke:#cccccc;stroke-linecap:round;stroke-width:0.8;"/>
     </g>
     <g id="line2d_20"/>
     <g id="text_10">
      <!-- 30000 -->
      <defs>
       <path d="M 40.578125 39.3125 
Q 47.65625 37.796875 51.625 33 
Q 55.609375 28.21875 55.609375 21.1875 
Q 55.609375 10.40625 48.1875 4.484375 
Q 40.765625 -1.421875 27.09375 -1.421875 
Q 22.515625 -1.421875 17.65625 -0.515625 
Q 12.796875 0.390625 7.625 2.203125 
L 7.625 11.71875 
Q 11.71875 9.328125 16.59375 8.109375 
Q 21.484375 6.890625 26.8125 6.890625 
Q 36.078125 6.890625 40.9375 10.546875 
Q 45.796875 14.203125 45.796875 21.1875 
Q 45.796875 27.640625 41.28125 31.265625 
Q 36.765625 34.90625 28.71875 34.90625 
L 20.21875 34.90625 
L 20.21875 43.015625 
L 29.109375 43.015625 
Q 36.375 43.015625 40.234375 45.921875 
Q 44.09375 48.828125 44.09375 54.296875 
Q 44.09375 59.90625 40.109375 62.90625 
Q 36.140625 65.921875 28.71875 65.921875 
Q 24.65625 65.921875 20.015625 65.03125 
Q 15.375 64.15625 9.8125 62.3125 
L 9.8125 71.09375 
Q 15.4375 72.65625 20.34375 73.4375 
Q 25.25 74.21875 29.59375 74.21875 
Q 40.828125 74.21875 47.359375 69.109375 
Q 53.90625 64.015625 53.90625 55.328125 
Q 53.90625 49.265625 50.4375 45.09375 
Q 46.96875 40.921875 40.578125 39.3125 
z
" id="DejaVuSans-51"/>
      </defs>
      <g style="fill:#262626;" transform="translate(54.6875 350.842122)scale(0.1 -0.1)">
       <use xlink:href="#DejaVuSans-51"/>
       <use x="63.623047" xlink:href="#DejaVuSans-48"/>
       <use x="127.246094" xlink:href="#DejaVuSans-48"/>
       <use x="190.869141" xlink:href="#DejaVuSans-48"/>
       <use x="254.492188" xlink:href="#DejaVuSans-48"/>
      </g>
     </g>
    </g>
    <g id="ytick_5">
     <g id="line2d_21">
      <path clip-path="url(#pf496a157ee)" d="M 90 257.520887 
L 648 257.520887 
" style="fill:none;stroke:#cccccc;stroke-linecap:round;stroke-width:0.8;"/>
     </g>
     <g id="line2d_22"/>
     <g id="text_11">
      <!-- 40000 -->
      <defs>
       <path d="M 37.796875 64.3125 
L 12.890625 25.390625 
L 37.796875 25.390625 
z
M 35.203125 72.90625 
L 47.609375 72.90625 
L 47.609375 25.390625 
L 58.015625 25.390625 
L 58.015625 17.1875 
L 47.609375 17.1875 
L 47.609375 0 
L 37.796875 0 
L 37.796875 17.1875 
L 4.890625 17.1875 
L 4.890625 26.703125 
z
" id="DejaVuSans-52"/>
      </defs>
      <g style="fill:#262626;" transform="translate(54.6875 261.320105)scale(0.1 -0.1)">
       <use xlink:href="#DejaVuSans-52"/>
       <use x="63.623047" xlink:href="#DejaVuSans-48"/>
       <use x="127.246094" xlink:href="#DejaVuSans-48"/>
       <use x="190.869141" xlink:href="#DejaVuSans-48"/>
       <use x="254.492188" xlink:href="#DejaVuSans-48"/>
      </g>
     </g>
    </g>
    <g id="ytick_6">
     <g id="line2d_23">
      <path clip-path="url(#pf496a157ee)" d="M 90 167.99887 
L 648 167.99887 
" style="fill:none;stroke:#cccccc;stroke-linecap:round;stroke-width:0.8;"/>
     </g>
     <g id="line2d_24"/>
     <g id="text_12">
      <!-- 50000 -->
      <g style="fill:#262626;" transform="translate(54.6875 171.798089)scale(0.1 -0.1)">
       <use xlink:href="#DejaVuSans-53"/>
       <use x="63.623047" xlink:href="#DejaVuSans-48"/>
       <use x="127.246094" xlink:href="#DejaVuSans-48"/>
       <use x="190.869141" xlink:href="#DejaVuSans-48"/>
       <use x="254.492188" xlink:href="#DejaVuSans-48"/>
      </g>
     </g>
    </g>
   </g>
   <g id="line2d_25">
    <path clip-path="url(#pf496a157ee)" d="M 115.363636 615.6 
L 116.337305 615.241912 
L 116.534215 615.143438 
L 116.721986 615.018107 
L 116.795 614.946489 
L 117.492524 614.794302 
L 117.616839 614.758493 
L 118.351535 614.480975 
L 118.810498 614.33774 
L 119.463365 614.203457 
L 119.788235 613.997556 
L 120.22671 613.863273 
L 120.294092 613.818512 
L 120.918025 613.666324 
L 120.974656 613.630516 
L 121.147235 613.505185 
L 121.250803 613.460424 
L 123.202504 613.12024 
L 123.304159 613.066527 
L 123.53432 612.91434 
L 123.653336 612.83377 
L 124.465209 612.493586 
L 124.643049 612.413016 
L 125.067995 612.287685 
L 125.16815 612.216068 
L 125.591223 612.081785 
L 126.985646 611.571509 
L 127.160473 611.490939 
L 127.635266 611.24923 
L 127.719719 611.204469 
L 128.068289 611.007521 
L 128.248958 610.944855 
L 131.806291 609.700499 
L 132.286597 609.58412 
L 132.351228 609.530407 
L 132.739679 609.396124 
L 132.971439 609.279746 
L 133.408828 609.172319 
L 133.91695 609.046988 
L 133.9783 609.002227 
L 134.341705 608.867944 
L 134.923247 608.456143 
L 135.759239 608.330812 
L 136.525741 607.999581 
L 137.179862 607.883202 
L 137.397623 607.722063 
L 137.497744 607.668349 
L 137.854544 607.525114 
L 137.915733 607.480353 
L 139.019286 607.2655 
L 139.674616 606.987982 
L 140.876909 606.629894 
L 140.951103 606.567229 
L 141.327597 606.432946 
L 141.509634 606.361328 
L 142.473943 606.182284 
L 142.812749 605.931622 
L 143.632323 605.743626 
L 143.742751 605.618295 
L 144.823978 604.928976 
L 145.411587 604.794693 
L 145.70176 604.615649 
L 145.790985 604.508222 
L 145.975384 604.373939 
L 146.223 604.123278 
L 146.401087 604.087469 
L 146.949566 603.962138 
L 147.85819 603.532432 
L 148.53723 603.416054 
L 148.648773 603.317579 
L 148.930208 603.183296 
L 149.306946 602.941587 
L 149.762744 602.798352 
L 149.779313 602.780447 
L 150.194268 602.646164 
L 150.238214 602.601403 
L 150.62452 602.449216 
L 151.135542 602.064271 
L 151.782085 601.93894 
L 152.799907 601.195908 
L 153.394943 601.025816 
L 153.724685 600.846772 
L 153.921184 600.721441 
L 153.94386 600.685632 
L 154.139165 600.560301 
L 154.184551 600.506588 
L 154.471411 600.372305 
L 155.492277 599.835173 
L 155.604044 599.799364 
L 156.618103 599.548702 
L 156.744232 599.432324 
L 156.962345 599.289089 
L 157.10215 599.235375 
L 157.577413 599.09214 
L 157.652122 599.047379 
L 158.308664 598.895192 
L 158.326283 598.859383 
L 158.56141 598.734052 
L 158.672386 598.707196 
L 158.939054 598.546056 
L 159.053902 598.367012 
L 159.223963 598.250633 
L 159.291565 598.214824 
L 159.882504 598.080541 
L 159.995936 597.973115 
L 160.161053 597.847784 
L 160.210035 597.82988 
L 160.451412 597.704549 
L 160.641639 597.543409 
L 160.776129 597.5076 
L 162.194815 597.104751 
L 163.397527 596.970468 
L 163.507104 596.943612 
L 164.743898 596.818281 
L 164.869535 596.621333 
L 165.108209 596.48705 
L 165.744974 595.815634 
L 166.657449 595.529164 
L 166.721709 595.457546 
L 166.873272 595.332215 
L 166.969935 595.081554 
L 167.111094 594.956223 
L 167.238163 594.848797 
L 167.363776 594.705561 
L 167.406865 594.669753 
L 168.211345 594.508613 
L 168.511552 594.159477 
L 168.569575 594.105764 
L 168.715725 593.980433 
L 168.996348 593.68501 
L 169.498564 593.577584 
L 169.6887 593.461205 
L 169.84004 593.362731 
L 170.084255 593.147878 
L 170.221513 592.888264 
L 170.375549 592.762934 
L 170.425925 592.700268 
L 170.600078 592.574937 
L 170.630877 592.485415 
L 171.286094 592.34218 
L 171.387427 592.252658 
L 171.500413 592.118375 
L 171.639001 591.948283 
L 171.762732 591.822952 
L 171.906764 591.634956 
L 172.011458 591.455912 
L 172.061939 591.384295 
L 172.237664 591.258964 
L 172.29252 591.214203 
L 172.932142 591.070968 
L 173.111126 590.900876 
L 173.411639 590.435361 
L 173.505472 590.363744 
L 173.617298 590.220508 
L 173.876234 589.960895 
L 174.661465 589.746042 
L 175.708194 588.394259 
L 176.132701 588.224167 
L 176.310845 587.99141 
L 176.5874 587.866079 
L 176.653963 587.78551 
L 176.836414 587.660179 
L 176.947769 587.534848 
L 177.11646 587.391613 
L 177.155779 587.355804 
L 177.767923 587.212569 
L 177.899928 587.087238 
L 178.255149 586.559058 
L 178.327359 586.335253 
L 178.499844 586.209922 
L 178.670773 586.066687 
L 178.923204 585.842882 
L 179.387877 585.681742 
L 179.710429 585.099849 
L 179.830063 584.965566 
L 179.941233 584.688048 
L 180.048926 584.553765 
L 180.187304 584.276246 
L 180.297388 584.124059 
L 180.466541 583.909206 
L 181.021106 583.712258 
L 181.393775 583.237791 
L 181.510929 583.094556 
L 181.582253 583.013986 
L 181.745067 582.879703 
L 182.241891 582.405236 
L 182.627896 582.172479 
L 182.748521 581.966578 
L 183.172416 581.232498 
L 183.286437 581.142976 
L 183.352763 580.963932 
L 183.468549 580.758031 
L 183.616776 580.373087 
L 183.729208 580.337278 
L 184.321566 579.952333 
L 184.441017 579.853859 
L 184.523086 579.647958 
L 185.069888 578.654264 
L 185.976236 578.10818 
L 186.191044 577.86647 
L 186.345061 577.714283 
L 186.46563 577.526286 
L 186.806563 577.114485 
L 187.043542 576.836967 
L 187.503873 576.577353 
L 188.736618 575.010718 
L 189.167999 574.7332 
L 189.848987 573.623127 
L 189.951456 573.43513 
L 190.102262 573.291895 
L 190.206489 573.202373 
L 190.713087 573.085994 
L 190.826272 572.78162 
L 191.000243 572.548862 
L 191.124437 572.307153 
L 191.256697 572.163918 
L 191.368211 571.958017 
L 191.467985 571.787925 
L 191.57384 571.573072 
L 191.677354 571.447742 
L 191.739986 571.27765 
L 191.837908 571.232889 
L 192.354202 571.080701 
L 192.612496 570.606235 
L 192.742929 570.373477 
L 192.890554 570.176529 
L 193.235453 569.684158 
L 193.30919 569.558827 
L 193.399998 569.370831 
L 193.630541 569.2455 
L 193.739542 569.16493 
L 193.986922 569.030647 
L 194.11718 568.744177 
L 194.272997 568.55618 
L 194.463883 568.287614 
L 194.540508 568.117523 
L 195.014188 567.37449 
L 195.5491 567.21335 
L 196.187279 566.049564 
L 196.369203 565.834711 
L 196.990102 565.34234 
L 197.222184 565.208057 
L 197.339559 565.145392 
L 197.488787 565.011109 
L 197.757698 564.590355 
L 197.842833 564.491881 
L 197.944706 564.348646 
L 197.999997 564.106936 
L 198.13144 563.91894 
L 198.227425 563.775705 
L 198.39172 563.704087 
L 198.875769 563.560852 
L 199.037667 563.354951 
L 199.143044 563.184859 
L 199.228864 562.952102 
L 199.338008 562.826771 
L 199.691581 562.235926 
L 199.829103 562.101643 
L 200.124029 561.913647 
L 200.474824 561.770412 
L 200.543845 561.591368 
L 200.795847 561.098996 
L 201.34698 560.033684 
L 201.469862 559.818832 
L 201.49188 559.738262 
L 202.151402 559.621883 
L 202.2433 559.415983 
L 202.330512 559.290652 
L 202.450278 558.941516 
L 202.593136 558.807233 
L 202.766945 558.440193 
L 202.829507 558.270101 
L 203.11717 557.804586 
L 203.793577 557.509164 
L 203.906244 557.392785 
L 203.987179 557.240598 
L 204.165715 557.034697 
L 204.316806 556.891462 
L 204.435862 556.766131 
L 204.749987 556.372234 
L 204.841821 556.327473 
L 205.366474 556.175286 
L 205.465337 555.960433 
L 205.619314 555.736628 
L 205.760986 555.450157 
L 205.892801 555.199496 
L 205.99143 555.127878 
L 206.988731 554.617602 
L 207.073356 554.420654 
L 207.185117 554.250562 
L 207.28765 553.838761 
L 207.383695 553.686573 
L 207.470072 553.543338 
L 207.568658 553.337438 
L 207.697804 553.18525 
L 207.785508 552.916684 
L 207.924373 552.773449 
L 208.068808 552.495931 
L 208.660289 552.030416 
L 208.831635 551.84242 
L 208.888494 551.699185 
L 209.105377 551.260527 
L 209.365815 550.848726 
L 209.65989 550.266832 
L 209.829634 550.150454 
L 209.928344 549.881888 
L 210.148652 549.756557 
L 210.284962 549.44323 
L 210.411552 549.111998 
L 210.993234 548.494297 
L 211.290243 548.046686 
L 212.11863 547.634885 
L 212.253373 547.455841 
L 212.418861 547.321558 
L 212.591125 547.115657 
L 213.122511 546.632239 
L 213.536795 546.497956 
L 213.699209 546.256246 
L 213.788273 546.104059 
L 213.907041 545.916062 
L 214.636788 544.922368 
L 215.121361 544.689611 
L 215.275252 544.40314 
L 215.372119 544.268857 
L 216.080173 543.176689 
L 216.30154 543.06031 
L 216.704393 542.934979 
L 217.201343 542.147186 
L 217.326445 541.869667 
L 217.496159 541.699575 
L 217.920065 541.287774 
L 218.326392 541.153491 
L 218.451741 540.938638 
L 218.610291 540.759594 
L 219.564095 539.622665 
L 219.917655 539.497334 
L 220.563685 538.575257 
L 220.770305 538.42307 
L 220.991291 538.26193 
L 221.762017 537.966507 
L 221.964951 537.671085 
L 222.099017 537.36671 
L 222.219081 537.232427 
L 222.370491 536.874339 
L 222.488454 536.775865 
L 222.642393 536.623677 
L 223.281233 536.346159 
L 223.419418 536.113402 
L 223.50418 535.94331 
L 223.637552 535.728457 
L 223.774614 535.468843 
L 223.919764 535.325608 
L 224.454111 534.654193 
L 224.768011 534.502005 
L 225.039821 534.063347 
L 225.27502 533.767925 
L 225.493472 533.374028 
L 225.571344 533.203936 
L 226.043635 532.586234 
L 226.446808 532.40719 
L 226.900303 531.691014 
L 226.992612 531.529874 
L 227.063571 531.386639 
L 227.191532 531.252356 
L 227.530388 530.509323 
L 228.087659 530.348184 
L 228.2314 530.043809 
L 228.336342 529.882669 
L 229.319627 528.190703 
L 229.670011 528.020611 
L 229.79439 527.778902 
L 230.849897 526.194362 
L 231.332643 526.060079 
L 231.387977 525.916844 
L 231.503045 525.603517 
L 231.653322 525.272285 
L 231.780597 525.003719 
L 232.124903 524.421826 
L 232.303127 524.23383 
L 232.455304 523.813077 
L 232.958323 523.616128 
L 233.20908 522.962617 
L 233.400643 522.667195 
L 233.561848 522.273298 
L 233.688258 522.139015 
L 233.83886 521.718261 
L 233.977061 521.413887 
L 234.059754 521.30646 
L 234.633149 521.163225 
L 234.776049 520.885707 
L 235.585867 519.605542 
L 235.65449 519.507068 
L 236.151558 519.35488 
L 236.317083 519.184788 
L 236.439165 519.059458 
L 236.615199 518.8267 
L 236.853817 518.576039 
L 237.009803 518.414899 
L 237.14643 518.253759 
L 237.212305 518.110524 
L 237.344258 517.886719 
L 237.883056 517.627105 
L 238.043188 517.448061 
L 238.188042 517.215304 
L 238.305685 517.063117 
L 238.570052 516.731885 
L 238.675265 516.481223 
L 238.833135 516.329036 
L 238.895514 516.158944 
L 239.505941 515.953044 
L 239.615402 515.711334 
L 239.910939 515.353246 
L 240.026338 515.183154 
L 240.393464 514.789257 
L 240.512488 514.681831 
L 241.140118 514.305838 
L 241.988335 512.963008 
L 242.099962 512.810821 
L 242.209259 512.739203 
L 242.788248 512.39902 
L 243.108564 511.745509 
L 243.230447 511.54856 
L 243.452246 511.154663 
L 243.942734 510.644388 
L 244.378505 510.456392 
L 244.758559 509.972973 
L 244.860797 509.847642 
L 244.99539 509.713359 
L 245.076495 509.534315 
L 245.213417 509.292606 
L 245.512884 509.02404 
L 245.957252 508.889756 
L 246.062929 508.764426 
L 246.248113 508.585382 
L 246.402232 508.442146 
L 246.839134 508.263102 
L 247.554672 508.110915 
L 247.67005 508.003489 
L 248.502677 507.636448 
L 249.220499 507.493213 
L 249.62921 507.090364 
L 249.765071 506.956081 
L 249.916033 506.848655 
L 250.004454 506.714371 
L 250.15605 506.580088 
L 250.376068 506.401044 
L 250.88369 506.195144 
L 251.053332 505.93553 
L 251.126435 505.77439 
L 251.233085 505.613251 
L 251.396856 505.470015 
L 251.514445 505.344685 
L 252.049472 504.95974 
L 252.462442 504.825457 
L 252.745046 504.619556 
L 252.873187 504.458417 
L 252.986004 504.333086 
L 253.164488 504.091376 
L 253.421141 503.643766 
L 253.620869 503.29463 
L 254.053196 503.151395 
L 254.180794 502.954447 
L 254.356114 502.703785 
L 254.636571 502.238271 
L 254.736882 502.139796 
L 254.851424 502.005513 
L 255.052029 501.710091 
L 255.612599 501.369907 
L 255.763399 501.235624 
L 256.120697 500.617922 
L 256.236047 500.492591 
L 256.362654 500.232977 
L 256.461173 500.089742 
L 256.586633 499.892794 
L 256.814857 499.463088 
L 257.3333 499.275092 
L 257.386876 499.096048 
L 257.69876 498.451489 
L 257.848927 498.317206 
L 257.986566 497.950166 
L 258.328951 497.377225 
L 258.42431 497.162372 
L 258.917114 497.037042 
L 259.034197 496.840093 
L 259.199803 496.696858 
L 259.545506 495.944873 
L 259.711964 495.81059 
L 260.004674 495.291362 
L 260.629012 494.8348 
L 260.804463 494.530425 
L 260.881967 494.351381 
L 261.012263 494.073863 
L 261.10263 493.876914 
L 261.219988 493.626253 
L 261.376018 493.33083 
L 261.645729 492.847411 
L 261.994278 492.713128 
L 262.280181 492.471419 
L 262.502209 491.916382 
L 262.567487 491.773147 
L 262.684085 491.665721 
L 262.899513 491.289728 
L 262.986124 491.119636 
L 263.134404 490.815261 
L 263.209522 490.64517 
L 263.515191 490.367651 
L 263.823263 490.24232 
L 264.265851 489.758902 
L 264.482118 489.58881 
L 265.026018 488.881586 
L 265.498327 488.684637 
L 266.237422 487.628278 
L 266.352513 487.502947 
L 266.504246 487.305998 
L 267.150335 487.064289 
L 267.315132 486.912101 
L 267.641553 486.670392 
L 267.760419 486.58087 
L 267.864618 486.410778 
L 267.979047 486.321256 
L 268.141466 486.13326 
L 268.802375 485.954216 
L 268.938273 485.900503 
L 269.061277 485.703554 
L 269.168945 485.676698 
L 269.509527 485.327562 
L 269.587383 485.291753 
L 269.698665 485.15747 
L 269.842824 485.014235 
L 270.369156 484.844143 
L 270.87936 484.253298 
L 270.972927 484.10111 
L 271.130061 483.939971 
L 271.307818 483.707213 
L 271.589081 483.563978 
L 272.03706 483.438647 
L 273.127476 482.212196 
L 273.661149 482.033152 
L 273.879348 481.70192 
L 274.144486 481.25431 
L 274.283596 481.155836 
L 274.799653 480.833557 
L 275.260529 480.699274 
L 275.526567 480.27852 
L 275.77309 479.920432 
L 275.923896 479.723484 
L 276.19537 479.410156 
L 277.115543 478.828263 
L 277.248091 478.667124 
L 277.363793 478.523889 
L 277.53182 478.291131 
L 277.613554 478.138944 
L 277.763102 477.995709 
L 277.955186 477.753999 
L 278.460739 477.530194 
L 278.622879 477.333246 
L 278.77678 477.154202 
L 279.218329 476.590213 
L 280.276292 475.668136 
L 280.407598 475.372714 
L 280.85623 474.835581 
L 280.968743 474.593872 
L 281.093988 474.396924 
L 281.18899 474.316354 
L 281.319936 474.191023 
L 281.432922 474.13731 
L 281.683182 474.011979 
L 281.826502 473.716556 
L 281.943258 473.537512 
L 282.052313 473.268946 
L 282.256747 473.027237 
L 282.364031 472.848193 
L 282.480161 472.71391 
L 282.759358 472.302108 
L 283.324461 472.149921 
L 283.379184 472.033542 
L 283.596091 471.908212 
L 283.748463 471.630693 
L 284.376662 470.574333 
L 284.456322 470.538525 
L 284.90581 470.386337 
L 285.108306 470.055106 
L 285.554388 469.222551 
L 285.66027 469.115125 
L 286.245684 468.497423 
L 286.585658 468.345235 
L 286.964683 467.772294 
L 287.094654 467.584298 
L 287.398055 466.93974 
L 288.476517 466.196707 
L 288.629169 465.811762 
L 288.753569 465.525292 
L 288.938267 465.27463 
L 289.219774 464.800163 
L 289.334679 464.692737 
L 289.846128 464.513693 
L 289.956867 464.37941 
L 290.102194 464.236175 
L 290.397583 463.824373 
L 290.546653 463.663234 
L 290.866091 463.32305 
L 290.963511 463.224576 
L 291.430326 463.081341 
L 291.989837 462.660587 
L 292.149056 462.42783 
L 292.353105 462.132407 
L 292.643681 461.890698 
L 293.064685 461.711654 
L 293.534189 461.120809 
L 293.633654 460.968621 
L 293.830623 460.673198 
L 294.038431 460.485202 
L 294.771534 459.8675 
L 295.977745 457.862207 
L 296.378865 457.674211 
L 296.457546 457.46831 
L 296.697023 457.351932 
L 297.16502 456.832704 
L 297.356115 456.662612 
L 297.392602 456.57309 
L 297.953581 456.420903 
L 298.135671 456.152337 
L 298.258301 455.973293 
L 298.452981 455.651013 
L 299.168538 454.728937 
L 299.677404 454.41561 
L 300.251646 453.430867 
L 300.364925 453.260776 
L 300.517173 453.099636 
L 300.595202 452.929544 
L 300.654372 452.804213 
L 301.129401 452.660978 
L 301.732566 451.747853 
L 301.862174 451.416622 
L 301.954892 451.076438 
L 302.065691 450.772063 
L 302.228913 450.396071 
L 302.343461 450.279692 
L 302.814158 450.109601 
L 302.968051 449.679895 
L 303.128111 449.321807 
L 303.215611 449.124858 
L 303.353046 448.963719 
L 303.418384 448.739914 
L 303.862364 447.898407 
L 303.933903 447.835741 
L 304.424334 447.692506 
L 304.532989 447.531366 
L 304.716026 447.110613 
L 304.784998 446.913665 
L 304.908101 446.779382 
L 305.017715 446.546624 
L 305.275983 446.018444 
L 305.635803 445.508169 
L 306.039774 445.364934 
L 307.157214 443.288023 
L 307.663668 443.037361 
L 307.757608 442.876222 
L 307.845895 442.715082 
L 307.958016 442.571847 
L 308.329536 441.73034 
L 308.403698 441.596057 
L 308.532575 441.309586 
L 308.634045 441.166351 
L 308.76351 440.772454 
L 308.955868 440.718741 
L 309.345826 440.521793 
L 309.49808 440.262179 
L 309.877911 439.420672 
L 310.00473 439.152106 
L 310.431949 438.471738 
L 310.818535 438.310599 
L 310.968451 438.176316 
L 311.539146 437.084147 
L 311.839417 436.654441 
L 311.942394 436.493302 
L 312.007199 436.394828 
L 312.603514 436.24264 
L 313.418021 434.971428 
L 313.532275 434.801336 
L 313.855206 434.443248 
L 314.113774 434.335821 
L 314.25021 434.183634 
L 315.508495 432.437954 
L 315.808752 432.303671 
L 316.10962 431.739683 
L 316.263016 431.497973 
L 316.635774 430.71018 
L 316.750255 430.522183 
L 316.836062 430.343139 
L 316.954269 430.164095 
L 317.16539 430.029812 
L 317.446148 429.877625 
L 317.50369 429.707533 
L 317.61156 429.41211 
L 317.719331 429.277827 
L 317.810372 429.054022 
L 317.899307 428.812313 
L 318.056261 428.472129 
L 318.173194 428.23042 
L 318.352378 427.836523 
L 318.436132 427.684335 
L 318.57069 427.451578 
L 318.875056 427.326247 
L 319.110655 427.129299 
L 319.222231 426.923398 
L 319.391975 426.619023 
L 319.500106 426.368362 
L 319.614898 426.1177 
L 319.744113 425.786469 
L 319.887181 425.499998 
L 320.068111 425.14191 
L 320.895571 424.309355 
L 321.175329 423.897554 
L 321.222008 423.745367 
L 321.333347 423.512609 
L 321.614099 423.073952 
L 321.757057 422.859099 
L 322.292481 422.58158 
L 322.408208 422.402536 
L 322.513203 422.223492 
L 322.631701 422.089209 
L 323.092679 421.417794 
L 323.188885 421.256655 
L 323.267784 421.104467 
L 323.52776 420.826949 
L 323.964257 420.621048 
L 324.124282 420.34353 
L 324.791879 419.358788 
L 324.965309 419.224505 
L 325.034688 419.197648 
L 325.560155 419.045461 
L 325.978748 418.499377 
L 326.062529 418.320333 
L 326.232977 418.02491 
L 326.649916 417.344543 
L 327.158535 417.102833 
L 327.795875 415.867429 
L 327.907932 415.652576 
L 328.480134 414.828974 
L 328.790006 414.64993 
L 328.946865 414.300794 
L 329.057783 414.103846 
L 329.313135 413.656235 
L 329.42331 413.495096 
L 329.629745 413.199673 
L 329.729404 413.119103 
L 329.821026 412.975868 
L 330.060774 412.752063 
L 330.419098 412.608828 
L 330.632025 412.268644 
L 330.752266 412.080648 
L 330.896239 411.847891 
L 331.106296 411.489803 
L 331.259878 411.27495 
L 331.894919 411.060097 
L 332.36201 410.925814 
L 334.206598 409.914215 
L 334.306867 409.708315 
L 334.467392 409.574032 
L 334.474864 409.547175 
L 334.71561 409.430796 
L 334.869261 409.278609 
L 335.362479 409.072708 
L 335.521499 408.822047 
L 335.609359 408.669859 
L 335.742471 408.437102 
L 335.895453 408.159584 
L 336.227106 407.685117 
L 336.35102 407.550834 
L 336.543192 407.443408 
L 336.973982 407.237507 
L 337.410616 406.583996 
L 337.5213 406.396 
L 337.746646 405.966294 
L 337.884842 405.751441 
L 338.390253 405.438114 
L 338.644503 405.241166 
L 339.350381 404.131093 
L 339.475586 403.898336 
L 339.54092 403.764053 
L 339.66747 403.576056 
L 340.292561 403.226921 
L 340.403943 403.128446 
L 340.666053 402.725597 
L 340.929692 402.304844 
L 341.00194 402.161609 
L 341.13764 401.991517 
L 341.202827 401.857234 
L 341.311672 401.705046 
L 342.064579 401.141058 
L 342.202299 400.774017 
L 342.342168 400.639734 
L 342.475863 400.371168 
L 343.034835 399.628135 
L 343.458007 399.466996 
L 343.586769 399.073099 
L 343.659173 398.929864 
L 343.812445 398.571776 
L 343.975574 398.249496 
L 344.100189 398.043596 
L 344.217123 397.739221 
L 344.404209 397.45275 
L 344.915424 396.933523 
L 345.138182 396.754479 
L 345.37508 396.235251 
L 345.75142 395.420601 
L 345.859326 395.152035 
L 345.976055 394.901373 
L 346.057385 394.758138 
L 346.314019 394.471667 
L 346.608287 394.310528 
L 346.932032 393.657017 
L 347.015517 393.469021 
L 347.819238 392.269426 
L 348.318533 392.08143 
L 348.472171 391.848672 
L 348.603053 391.669628 
L 348.662439 391.490584 
L 348.839867 391.248875 
L 349.077472 390.819169 
L 349.251964 390.452129 
L 349.371283 390.246228 
L 349.561123 390.094041 
L 349.934809 389.914997 
L 350.05027 389.709096 
L 350.188135 389.485291 
L 350.368678 389.163012 
L 350.7898 388.536358 
L 350.933738 388.285696 
L 351.11875 388.169317 
L 351.583052 388.043987 
L 351.76492 387.784373 
L 351.977645 387.444189 
L 352.132207 387.247241 
L 352.596735 386.781726 
L 352.695749 386.683252 
L 353.195047 386.495256 
L 353.318327 386.35202 
L 353.501109 386.199833 
L 353.670791 386.06555 
L 354.019302 385.671653 
L 354.119465 385.510514 
L 354.290977 385.358326 
L 355.116353 384.848051 
L 355.245834 384.64215 
L 355.621605 384.11397 
L 355.703739 384.0334 
L 356.073026 383.854356 
L 356.237893 383.809595 
L 356.487366 383.684264 
L 356.754033 383.290368 
L 356.897232 383.093419 
L 357.480631 382.341434 
L 358.166622 382.225056 
L 358.296021 382.046011 
L 358.614418 381.580497 
L 358.736054 381.446214 
L 359.785674 380.533089 
L 359.976661 380.255571 
L 360.238312 380.00491 
L 360.475019 379.539395 
L 360.605419 379.351399 
L 360.766546 379.038072 
L 361.363186 378.86798 
L 361.529967 378.662079 
L 361.704969 378.366657 
L 361.896451 378.071234 
L 362.056938 377.740002 
L 362.249557 377.471436 
L 362.40366 377.301345 
L 362.912994 377.122301 
L 363.486547 376.352411 
L 363.599103 376.128606 
L 363.959093 375.475095 
L 364.274062 375.278147 
L 364.512881 375.143864 
L 365.072414 374.194931 
L 365.124752 374.042743 
L 365.24269 373.863699 
L 365.479459 373.425041 
L 365.848453 372.887909 
L 366.181059 372.708865 
L 366.266611 372.502965 
L 366.602845 371.903167 
L 366.717263 371.688314 
L 366.837985 371.374987 
L 367.028355 370.954234 
L 367.157608 370.721476 
L 367.337896 370.354436 
L 367.816848 370.202249 
L 368.605311 368.931036 
L 368.774069 368.546091 
L 369.184814 368.179051 
L 369.473552 367.955246 
L 369.639663 367.650871 
L 369.717899 367.498684 
L 370.035146 367.033169 
L 370.18793 366.854125 
L 370.299156 366.71089 
L 370.436121 366.540798 
L 370.641484 366.34385 
L 371.066166 366.128997 
L 371.413511 365.394916 
L 371.64784 364.911498 
L 371.756919 364.741406 
L 372.180543 364.168465 
L 372.872994 363.828281 
L 373.039686 363.595524 
L 373.20049 363.452289 
L 373.427518 363.112105 
L 373.738115 362.610782 
L 373.798974 362.503355 
L 374.292212 362.369072 
L 375.379251 360.462253 
L 375.91656 360.310066 
L 376.049871 360.139974 
L 376.314617 359.969882 
L 376.43263 359.835599 
L 376.859357 359.316372 
L 376.984295 359.038853 
L 377.439021 358.868761 
L 377.595448 358.743431 
L 377.777961 358.474865 
L 378.060987 358.215251 
L 378.239783 357.875067 
L 378.502022 357.418505 
L 378.585494 357.27527 
L 378.745006 357.149939 
L 379.176924 356.997751 
L 379.326623 356.693376 
L 379.438368 356.442715 
L 379.743417 355.7713 
L 379.848046 355.547495 
L 379.953767 355.314737 
L 380.088225 355.010363 
L 380.206241 354.741796 
L 380.354924 354.598561 
L 380.8686 354.258378 
L 381.208945 353.927146 
L 381.331446 353.766007 
L 381.515198 353.452679 
L 381.651249 353.166209 
L 381.733663 353.040878 
L 381.811269 352.906595 
L 381.95568 352.772312 
L 382.101364 352.709647 
L 382.427799 352.557459 
L 382.578543 352.306798 
L 382.686002 352.15461 
L 382.751562 351.993471 
L 382.838645 351.823379 
L 382.956584 351.689096 
L 383.663196 350.695401 
L 384.01981 350.552166 
L 384.146799 350.346265 
L 384.648805 349.567424 
L 384.763009 349.334667 
L 384.916765 349.191431 
L 385.192971 348.806487 
L 385.595456 348.618491 
L 385.935734 348.063454 
L 386.09431 347.759079 
L 386.227769 347.463657 
L 386.790905 346.640054 
L 387.244228 346.398345 
L 387.349664 346.228253 
L 387.42986 346.076065 
L 387.55805 345.709025 
L 387.731015 345.252463 
L 388.16712 344.455717 
L 388.297935 344.267721 
L 388.401057 343.999155 
L 388.544081 343.802206 
L 389.092828 343.408309 
L 389.200075 343.175552 
L 389.302313 342.915938 
L 389.68694 342.11024 
L 389.832278 341.805865 
L 390.356498 341.358255 
L 390.749393 341.009119 
L 391.049022 340.489891 
L 391.168505 340.3198 
L 391.852441 339.451436 
L 392.166094 339.317153 
L 392.271465 339.129157 
L 392.414425 338.959065 
L 392.661732 338.493551 
L 392.818121 338.20708 
L 392.97406 338.036988 
L 393.121012 337.857944 
L 393.176179 337.696805 
L 393.381986 337.490904 
L 393.745471 337.329764 
L 393.862813 337.141768 
L 394.600739 335.96903 
L 394.718025 335.772081 
L 394.826564 335.619894 
L 395.058625 335.413993 
L 395.131459 335.387137 
L 395.417153 335.261806 
L 395.630276 334.903718 
L 395.751595 334.697817 
L 396.120465 334.01745 
L 396.279262 333.757836 
L 396.8815 333.301274 
L 397.125983 333.175943 
L 397.244289 333.050612 
L 397.423473 332.773094 
L 397.701227 332.415006 
L 398.023542 332.244914 
L 398.759996 331.82416 
L 399.938476 329.863628 
L 400.303456 329.639823 
L 400.455436 329.263831 
L 401.410801 327.509199 
L 401.721468 327.374916 
L 401.818926 327.26749 
L 401.947378 327.070541 
L 402.066284 326.801975 
L 402.203013 326.551314 
L 403.311776 325.244292 
L 403.56062 325.065248 
L 403.720645 324.742969 
L 403.866902 324.510212 
L 403.991356 324.25955 
L 404.557 323.301664 
L 405.098158 323.04205 
L 405.227183 322.764532 
L 405.347825 322.603393 
L 405.64381 321.923025 
L 405.787436 321.591794 
L 406.32576 320.553338 
L 406.668072 320.410103 
L 406.79555 320.240011 
L 406.951404 319.98935 
L 407.188928 319.425361 
L 407.311045 319.09413 
L 407.875686 318.019865 
L 408.442038 317.634921 
L 408.559324 317.437972 
L 408.721082 317.205215 
L 408.929903 316.90084 
L 409.149881 316.515895 
L 409.20619 316.444278 
L 409.355982 316.318947 
L 409.58738 316.095142 
L 410.036468 315.916098 
L 411.250316 313.982422 
L 411.678093 313.812331 
L 411.807091 313.597478 
L 411.932086 313.436338 
L 412.42968 313.042441 
L 412.713367 312.809684 
L 413.283274 312.603783 
L 413.418995 312.406835 
L 413.519699 312.227791 
L 413.653569 312.084556 
L 413.771007 311.94132 
L 414.04889 311.645898 
L 414.217049 311.448949 
L 414.334958 311.314666 
L 414.959234 310.929722 
L 415.139103 310.652203 
L 415.38598 310.285163 
L 416.270921 309.345182 
L 416.810247 309.210899 
L 416.842784 309.184042 
L 417.041013 309.058712 
L 417.120068 309.022903 
L 418.476842 308.584245 
L 418.581397 308.467866 
L 418.687499 308.333583 
L 418.874372 308.109778 
L 418.989197 308.056065 
L 419.098679 307.859117 
L 419.247623 307.680072 
L 419.339215 307.617407 
L 419.824059 307.438363 
L 419.89867 307.348841 
L 420.125857 307.205606 
L 420.273521 306.901231 
L 420.560916 306.346194 
L 420.740363 306.176103 
L 420.858065 306.023915 
L 421.205797 305.898584 
L 421.449261 305.755349 
L 421.785262 305.3525 
L 421.946627 305.19136 
L 422.58637 304.063383 
L 423.003147 303.911196 
L 423.20689 303.705295 
L 423.330866 303.418824 
L 423.612422 302.989119 
L 423.716783 302.819027 
L 423.857271 302.648935 
L 424.007174 302.371417 
L 424.145047 302.228182 
L 424.320493 302.102851 
L 424.666384 301.959616 
L 424.778113 301.753715 
L 424.845635 301.592575 
L 425.018342 301.252392 
L 425.229195 300.84059 
L 425.403265 300.401933 
L 425.538935 300.160223 
L 426.156491 299.515665 
L 426.335059 299.381382 
L 427.059273 298.119121 
L 427.131511 298.020647 
L 427.247359 297.904268 
L 427.397896 297.653607 
L 427.631693 297.483515 
L 427.735774 297.331327 
L 427.96531 297.188092 
L 428.091186 297.035905 
L 428.198696 296.910574 
L 428.310293 296.659912 
L 428.452317 296.480868 
L 429.223466 295.549839 
L 429.660715 295.3887 
L 429.793524 295.326034 
L 430.096256 294.851568 
L 430.22908 294.609858 
L 430.926911 293.249123 
L 431.182948 293.11484 
L 431.507615 292.506091 
L 431.970662 291.646679 
L 432.056319 291.494492 
L 432.181445 291.288591 
L 432.446599 291.154308 
L 432.796021 291.011073 
L 433.002472 290.733555 
L 433.397678 290.330706 
L 433.51754 290.223279 
L 433.747022 289.945761 
L 434.148642 289.686147 
L 434.452279 289.560816 
L 434.536609 289.408629 
L 434.719374 289.050541 
L 435.578087 288.02999 
L 436.10573 287.850946 
L 436.91016 286.597638 
L 437.539404 286.248502 
L 437.699803 286.123171 
L 438.0507 285.577087 
L 438.312479 285.138429 
L 438.580506 284.825102 
L 440.347341 283.195801 
L 440.472429 283.052566 
L 440.785727 282.927235 
L 441.246705 282.46172 
L 441.399344 282.291629 
L 441.510605 282.103632 
L 441.690742 281.790305 
L 441.775012 281.629166 
L 442.416614 281.154699 
L 442.540311 281.020416 
L 442.655683 280.742898 
L 443.023422 280.089387 
L 443.12989 279.901391 
L 443.430357 279.391115 
L 444.120809 278.943505 
L 444.241915 278.665987 
L 444.637325 277.940859 
L 444.710619 277.797623 
L 444.847584 277.654388 
L 445.229202 277.179921 
L 445.578005 277.072495 
L 445.882992 276.947164 
L 445.960496 276.830786 
L 446.27406 276.660694 
L 446.536148 276.454793 
L 446.705608 276.257845 
L 447.071834 276.016135 
L 447.538251 275.801282 
L 448.581908 274.243599 
L 449.070052 274.00189 
L 449.434183 273.276762 
L 449.803266 272.793343 
L 450.014008 272.488968 
L 450.416899 272.229354 
L 450.722412 272.104023 
L 451.774117 270.54634 
L 452.152545 270.3852 
L 452.63362 269.839116 
L 452.773038 269.624263 
L 453.256445 269.006561 
L 454.042968 268.666378 
L 454.246528 268.317242 
L 454.790256 267.645827 
L 455.592636 267.287739 
L 455.725917 267.081838 
L 455.899124 266.947555 
L 456.180729 266.670037 
L 456.318242 266.544706 
L 456.613811 266.294044 
L 457.420119 266.03443 
L 457.549297 265.82853 
L 457.645344 265.739008 
L 457.851312 265.577868 
L 457.96279 265.371968 
L 458.352109 264.906453 
L 458.807652 264.736361 
L 458.911892 264.655791 
L 459.086964 264.494652 
L 459.194536 264.306656 
L 459.987876 263.295057 
L 460.452033 263.098108 
L 460.699198 262.757925 
L 460.888391 262.53412 
L 460.98228 262.364028 
L 461.162308 262.238697 
L 461.240959 262.113366 
L 461.415639 261.979083 
L 461.524952 261.782135 
L 462.107448 261.549377 
L 462.345174 261.227098 
L 462.501791 261.03015 
L 463.360507 260.099121 
L 463.745252 259.964838 
L 464.835588 258.792099 
L 465.324498 258.648864 
L 465.996412 257.86107 
L 466.176184 257.592504 
L 466.342317 257.431365 
L 466.487496 257.323938 
L 467.067617 257.118038 
L 467.403117 256.840519 
L 467.652257 256.527192 
L 467.85715 256.1512 
L 468.289831 256.007965 
L 468.65594 255.811016 
L 468.835523 255.506641 
L 469.125183 255.067983 
L 469.254609 254.871035 
L 469.400785 254.674087 
L 469.59493 254.378664 
L 469.766562 254.19962 
L 470.329212 253.922102 
L 470.58985 253.483444 
L 470.75516 253.250687 
L 470.879389 253.026881 
L 470.983457 252.874694 
L 471.2621 252.659841 
L 471.31422 252.61508 
L 471.799943 252.453941 
L 471.922358 252.292801 
L 472.535153 251.388629 
L 472.627038 251.245393 
L 472.73558 251.093206 
L 472.832839 250.878353 
L 473.274989 250.770927 
L 473.483668 250.645596 
L 473.614768 250.484456 
L 473.724231 250.305412 
L 473.981488 249.857802 
L 474.135441 249.651901 
L 474.236042 249.437049 
L 474.379596 249.231148 
L 474.491228 249.070008 
L 474.783492 248.95363 
L 475.34246 248.71192 
L 475.523753 248.389641 
L 475.663738 248.246406 
L 476.110634 247.65556 
L 476.127928 247.628704 
L 476.631173 247.485469 
L 477.139964 247.00205 
L 477.265848 246.84091 
L 477.472632 246.545487 
L 477.731741 246.187399 
L 477.867398 246.088925 
L 478.360722 245.963594 
L 478.669001 245.560745 
L 478.828117 245.41751 
L 478.942474 245.211609 
L 479.422493 244.710286 
L 480.099386 244.52229 
L 480.29464 244.235819 
L 480.379451 244.012014 
L 481.32404 242.928798 
L 481.62483 242.794515 
L 481.756292 242.606519 
L 481.982461 242.337953 
L 482.10365 242.185765 
L 482.197242 241.988817 
L 482.350259 241.827677 
L 482.462047 241.693394 
L 483.176999 241.469589 
L 483.402622 241.174167 
L 483.515648 241.030931 
L 483.667674 240.851887 
L 483.898515 240.735509 
L 484.332205 240.17152 
L 484.869916 239.965619 
L 484.971071 239.777623 
L 485.092105 239.580675 
L 485.199228 239.446392 
L 485.51327 239.070399 
L 485.707326 238.891355 
L 485.850947 238.66755 
L 486.274727 238.524315 
L 486.48107 238.398984 
L 486.643084 238.228892 
L 486.864738 237.978231 
L 486.971778 237.861852 
L 487.10424 237.655951 
L 487.220214 237.539573 
L 487.430153 237.297863 
L 487.602807 237.074058 
L 488.020997 236.939775 
L 488.289887 236.483213 
L 488.817871 235.704371 
L 489.074747 235.355235 
L 489.379572 235.176191 
L 489.685857 235.0061 
L 489.819869 234.827056 
L 490.007847 234.576394 
L 490.149442 234.39735 
L 490.332427 234.075071 
L 490.956975 233.278325 
L 491.2753 233.117185 
L 491.394636 233.036615 
L 492.6019 231.684833 
L 492.92655 231.55055 
L 493.466183 230.852278 
L 493.625469 230.691138 
L 494.8624 230.082389 
L 495.192755 229.670587 
L 495.752142 229.178216 
L 496.315445 228.972316 
L 496.437801 228.811176 
L 496.639174 228.632132 
L 496.738891 228.578419 
L 496.886795 228.399375 
L 497.012722 228.211379 
L 497.281856 227.987573 
L 497.412681 227.924908 
L 497.896722 227.72796 
L 498.267818 227.208732 
L 498.447289 227.083401 
L 498.878374 226.761122 
L 499.031837 226.6716 
L 499.607492 226.447795 
L 499.87834 226.179229 
L 500.003206 226.044946 
L 500.229219 225.830093 
L 500.422517 225.668953 
L 500.514512 225.588383 
L 501.570003 225.400387 
L 501.62844 225.346674 
L 501.814427 225.212391 
L 502.288373 224.80059 
L 502.707896 224.648402 
L 502.711156 224.630498 
L 503.213541 224.505167 
L 503.466628 224.290314 
L 503.905431 223.788991 
L 504.314109 223.654708 
L 504.676821 223.260811 
L 504.779228 223.171289 
L 504.857574 223.019102 
L 505.052283 222.759488 
L 505.24579 222.562539 
L 505.356855 222.392447 
L 505.647375 222.186547 
L 505.71365 222.15969 
L 506.062306 221.989598 
L 506.28424 221.783698 
L 506.397933 221.658367 
L 506.493696 221.524084 
L 506.786427 221.067522 
L 506.993843 220.861621 
L 507.130391 220.781051 
L 507.641794 220.593055 
L 507.821499 220.422963 
L 508.05773 220.199158 
L 508.231999 219.939544 
L 509.781777 218.328148 
L 509.903025 218.113295 
L 510.240237 217.701494 
L 510.891317 217.388167 
L 510.979816 217.209123 
L 511.126831 217.065887 
L 511.229356 216.985318 
L 511.459515 216.842082 
L 512.793587 215.794675 
L 512.906401 215.544013 
L 513.002723 215.391826 
L 513.117797 215.150116 
L 513.309187 214.845741 
L 513.536302 214.550319 
L 514.059154 214.236992 
L 514.237835 214.084804 
L 514.459691 213.825191 
L 514.781762 213.422341 
L 514.93817 213.189584 
L 515.086909 212.938923 
L 515.72701 212.321221 
L 515.875771 212.061607 
L 515.939657 211.900467 
L 516.076157 211.58714 
L 516.293945 211.470761 
L 516.946161 210.405449 
L 517.397496 210.154788 
L 517.450484 209.966792 
L 517.919206 209.10738 
L 518.048809 208.883575 
L 518.117518 208.695579 
L 518.230515 208.552344 
L 518.338676 208.328539 
L 518.565204 208.176351 
L 518.929743 208.05102 
L 519.322372 207.809311 
L 519.492339 207.594458 
L 520.201646 207.191609 
L 520.703824 207.030469 
L 520.837447 206.905139 
L 521.584092 206.188963 
L 521.661809 206.108393 
L 522.105276 205.956205 
L 522.561012 205.302695 
L 522.758575 205.096794 
L 522.862713 204.980415 
L 523.062358 204.667088 
L 523.188121 204.532805 
L 523.458026 204.344809 
L 523.80877 204.174717 
L 523.926079 203.959864 
L 525.148847 202.393229 
L 525.495539 202.160472 
L 526.080703 201.211538 
L 526.187136 200.996686 
L 526.310685 200.754976 
L 526.712777 200.271557 
L 527.058405 200.0388 
L 527.252778 199.734425 
L 527.595834 199.277863 
L 527.712727 199.152532 
L 527.846672 198.919775 
L 528.096831 198.53483 
L 529.021241 197.747036 
L 529.193618 197.3979 
L 529.318301 197.192 
L 529.989065 196.448967 
L 530.333086 196.252019 
L 530.454343 196.028214 
L 530.623348 195.84917 
L 530.786643 195.705934 
L 530.885786 195.562699 
L 531.166433 195.141946 
L 531.429452 194.730144 
L 531.698199 194.5511 
L 532.566297 193.548454 
L 532.910939 192.885991 
L 533.770589 192.053436 
L 534.726615 190.665845 
L 535.190651 190.459944 
L 535.323425 190.236139 
L 535.432442 190.110808 
L 535.84072 189.707959 
L 536.088734 189.421489 
L 536.271045 189.126066 
L 536.842833 188.660552 
L 537.255994 188.203989 
L 537.374322 188.04285 
L 537.921827 187.290865 
L 538.499804 187.06706 
L 539.00313 186.592593 
L 539.107888 186.556784 
L 539.324526 186.37774 
L 539.500203 186.252409 
L 540.049458 186.037557 
L 540.188675 185.867465 
L 540.296899 185.72423 
L 540.490504 185.580994 
L 541.002877 185.160241 
L 541.237416 184.87377 
L 541.686741 184.66787 
L 541.921483 184.42616 
L 542.2413 184.148642 
L 542.401679 183.862172 
L 542.66412 183.521988 
L 543.073279 183.316087 
L 543.173274 183.271326 
L 543.369466 183.119139 
L 543.52991 183.029617 
L 543.653225 182.841621 
L 544.239029 182.071731 
L 544.442739 181.838974 
L 545.031899 181.516695 
L 545.237668 181.203368 
L 545.438041 181.086989 
L 545.83502 180.478239 
L 546.209265 180.263387 
L 546.54196 180.111199 
L 546.658858 180.003773 
L 546.846025 179.797872 
L 546.976133 179.591971 
L 547.14603 179.386071 
L 547.602801 178.73256 
L 547.850307 178.643038 
L 548.167664 178.463994 
L 548.275886 178.36552 
L 548.47533 178.159619 
L 548.591774 178.052193 
L 548.750749 177.908958 
L 549.023564 177.586678 
L 549.208737 177.38973 
L 549.458059 177.273351 
L 549.817358 177.103259 
L 550.202101 176.646697 
L 550.330844 176.476605 
L 550.846355 175.706716 
L 550.919579 175.59929 
L 551.270288 175.456054 
L 551.401935 175.384437 
L 551.747837 175.053205 
L 551.998533 174.632452 
L 552.476418 173.952084 
L 552.544601 173.871515 
L 552.872478 173.710375 
L 553.193563 173.531331 
L 553.583642 173.021055 
L 553.718868 172.859916 
L 553.842834 172.716681 
L 553.973001 172.466019 
L 554.119266 172.286975 
L 554.260533 172.206405 
L 554.730633 171.973648 
L 555.060789 171.346994 
L 555.261998 171.069475 
L 555.354687 170.935192 
L 555.494527 170.693483 
L 555.718137 170.424917 
L 556.590927 169.547601 
L 556.705351 169.323796 
L 557.371564 168.168962 
L 557.473211 168.097345 
L 557.803912 167.918301 
L 558.036433 167.55126 
L 558.172632 167.202124 
L 558.279503 167.040985 
L 558.46683 166.73661 
L 559.010203 166.074147 
L 559.489932 165.930912 
L 559.87795 165.510158 
L 560.338023 164.990931 
L 560.915881 164.614938 
L 561.544209 164.167328 
L 562.102788 163.236299 
L 563.134889 162.636502 
L 563.248759 162.564884 
L 563.563121 162.197844 
L 563.700935 161.991943 
L 564.715661 161.114627 
L 564.867257 160.935583 
L 565.046728 160.693874 
L 565.157212 160.559591 
L 565.540496 160.120933 
L 565.883353 159.959793 
L 566.139823 159.762845 
L 566.579104 159.306283 
L 566.710515 159.136191 
L 567.040263 158.804959 
L 567.24889 158.634867 
L 567.5582 158.455823 
L 567.674827 158.411062 
L 567.772721 158.267827 
L 567.909275 158.061926 
L 568.023174 157.936596 
L 568.156611 157.721743 
L 568.323475 157.560603 
L 569.019602 156.593765 
L 569.144266 156.477387 
L 569.307593 156.361008 
L 569.567965 156.056633 
L 569.770665 155.707497 
L 570.073588 155.313601 
L 570.219544 155.161413 
L 570.594092 154.955513 
L 570.670011 154.892847 
L 570.924122 154.758564 
L 571.105159 154.615329 
L 571.249425 154.454189 
L 571.432413 154.257241 
L 572.106955 153.209833 
L 572.498423 153.012885 
L 572.819535 152.493657 
L 572.902351 152.34147 
L 573.699709 151.723768 
L 574.187471 151.517867 
L 574.29827 151.240349 
L 574.420188 151.0434 
L 574.589943 150.730073 
L 574.829772 150.327224 
L 575.048186 149.987041 
L 575.177249 149.772188 
L 575.370491 149.512574 
L 575.780545 149.17239 
L 575.933484 148.96649 
L 576.048531 148.876968 
L 576.915614 147.283476 
L 577.442228 147.104432 
L 577.657068 146.943292 
L 578.012111 146.638917 
L 578.322776 146.459873 
L 578.553491 146.24502 
L 579.152326 145.95855 
L 579.555722 145.582557 
L 579.746686 145.403513 
L 579.938374 145.197613 
L 580.759012 144.803716 
L 581.000129 144.490389 
L 581.214695 144.266584 
L 581.325085 144.123349 
L 581.655561 143.76526 
L 581.756219 143.63993 
L 582.349264 143.344507 
L 582.699033 142.968515 
L 582.94853 142.717853 
L 583.072508 142.547761 
L 583.213813 142.404526 
L 583.333154 142.288147 
L 584.051239 141.939011 
L 584.47033 141.625684 
L 584.65787 141.473497 
L 585.044905 141.151218 
L 585.610263 140.891604 
L 585.87923 140.605133 
L 586.181911 140.452946 
L 586.439478 140.229141 
L 586.957743 139.978479 
L 587.254564 139.81734 
L 587.483065 139.647248 
L 587.919062 139.512965 
L 588.530191 139.172781 
L 588.766903 139.029546 
L 589.092556 138.796789 
L 589.277355 138.590888 
L 589.398298 138.447653 
L 589.613815 138.062708 
L 589.710875 137.919473 
L 589.862269 137.713572 
L 590.151862 137.606146 
L 590.448025 137.471863 
L 590.557169 137.355484 
L 590.818846 137.0153 
L 590.964348 136.881017 
L 591.094039 136.72883 
L 591.612702 136.308077 
L 592.0592 136.146937 
L 592.162949 136.057415 
L 592.415689 135.83361 
L 592.539904 135.708279 
L 592.817446 135.520283 
L 592.942104 135.394952 
L 593.137681 135.206956 
L 593.211461 135.162195 
L 593.73484 135.018959 
L 594.6512 133.998408 
L 596.071133 133.103188 
L 596.555513 132.66453 
L 597.078392 132.360156 
L 597.22836 132.243777 
L 597.374496 132.064733 
L 598.064402 131.250083 
L 598.553691 131.079991 
L 598.890847 130.784568 
L 599.052398 130.542859 
L 599.552263 130.014679 
L 599.666813 129.916205 
L 600.163787 129.764017 
L 600.433721 129.307455 
L 600.548599 129.119459 
L 600.717792 128.92251 
L 600.820592 128.752418 
L 602.665804 127.024643 
L 602.779706 126.944074 
L 603.281294 126.711316 
L 603.573439 126.487511 
L 603.944298 126.201041 
L 604.032539 126.048853 
L 604.61884 125.816096 
L 604.740266 125.798192 
L 605.183841 125.646004 
L 605.311882 125.583339 
L 605.462715 125.440104 
L 606.107074 124.73288 
L 606.63335 124.580692 
L 607.210765 123.748138 
L 607.406973 123.569094 
L 607.516007 123.39005 
L 607.905392 122.969296 
L 608.295165 122.817109 
L 608.552312 122.673873 
L 608.738987 122.548543 
L 609.116023 122.145694 
L 609.435514 121.733892 
L 609.975494 121.581705 
L 611.4504 120.364205 
L 611.701152 120.212018 
L 612.555786 119.549555 
L 612.73351 119.460033 
L 613.21254 119.254132 
L 614.215546 118.242534 
L 614.353209 118.126155 
L 614.863492 117.929207 
L 615.020201 117.777019 
L 615.161984 117.597975 
L 615.724685 117.0877 
L 616.072914 116.92656 
L 616.156697 116.863895 
L 616.498029 116.720659 
L 616.597924 116.604281 
L 616.908841 116.335715 
L 617.573078 115.628491 
L 618.011693 115.458399 
L 618.424262 115.046598 
L 618.589008 114.867554 
L 619.160847 114.375183 
L 619.519593 114.222995 
L 619.761314 113.972333 
L 619.97904 113.802242 
L 620.321553 113.435201 
L 621.081645 112.978639 
L 621.405016 112.853308 
L 621.564006 112.665312 
L 621.882071 112.271415 
L 622.41777 111.644761 
L 622.636364 111.6 
L 622.636364 111.6 
" style="fill:none;stroke:#92c6ff;stroke-linecap:round;stroke-width:1.5;"/>
   </g>
   <g id="line2d_26">
    <defs>
     <path d="M 0 2.5 
C 0.663008 2.5 1.29895 2.236584 1.767767 1.767767 
C 2.236584 1.29895 2.5 0.663008 2.5 0 
C 2.5 -0.663008 2.236584 -1.29895 1.767767 -1.767767 
C 1.29895 -2.236584 0.663008 -2.5 0 -2.5 
C -0.663008 -2.5 -1.29895 -2.236584 -1.767767 -1.767767 
C -2.236584 -1.29895 -2.5 -0.663008 -2.5 0 
C -2.5 0.663008 -2.236584 1.29895 -1.767767 1.767767 
C -1.29895 2.236584 -0.663008 2.5 0 2.5 
z
" id="md64c8f0ecb" style="stroke:#696969;"/>
    </defs>
    <g clip-path="url(#pf496a157ee)">
     <use style="fill:#696969;stroke:#696969;" x="115.363636" xlink:href="#md64c8f0ecb" y="615.6"/>
    </g>
   </g>
   <g id="line2d_27">
    <g clip-path="url(#pf496a157ee)">
     <use style="fill:#696969;stroke:#696969;" x="197.2246" xlink:href="#md64c8f0ecb" y="565.199105"/>
    </g>
   </g>
   <g id="line2d_28">
    <g clip-path="url(#pf496a157ee)">
     <use style="fill:#696969;stroke:#696969;" x="240.391559" xlink:href="#md64c8f0ecb" y="514.79821"/>
    </g>
   </g>
   <g id="line2d_29">
    <g clip-path="url(#pf496a157ee)">
     <use style="fill:#696969;stroke:#696969;" x="289.92928" xlink:href="#md64c8f0ecb" y="464.397314"/>
    </g>
   </g>
   <g id="line2d_30">
    <g clip-path="url(#pf496a157ee)">
     <use style="fill:#696969;stroke:#696969;" x="329.087719" xlink:href="#md64c8f0ecb" y="413.996419"/>
    </g>
   </g>
   <g id="line2d_31">
    <g clip-path="url(#pf496a157ee)">
     <use style="fill:#696969;stroke:#696969;" x="373.039686" xlink:href="#md64c8f0ecb" y="363.595524"/>
    </g>
   </g>
   <g id="line2d_32">
    <g clip-path="url(#pf496a157ee)">
     <use style="fill:#696969;stroke:#696969;" x="412.267414" xlink:href="#md64c8f0ecb" y="313.194629"/>
    </g>
   </g>
   <g id="line2d_33">
    <g clip-path="url(#pf496a157ee)">
     <use style="fill:#696969;stroke:#696969;" x="460.682708" xlink:href="#md64c8f0ecb" y="262.793733"/>
    </g>
   </g>
   <g id="line2d_34">
    <g clip-path="url(#pf496a157ee)">
     <use style="fill:#696969;stroke:#696969;" x="515.680573" xlink:href="#md64c8f0ecb" y="212.392838"/>
    </g>
   </g>
   <g id="line2d_35">
    <g clip-path="url(#pf496a157ee)">
     <use style="fill:#696969;stroke:#696969;" x="563.700935" xlink:href="#md64c8f0ecb" y="161.991943"/>
    </g>
   </g>
   <g id="line2d_36">
    <g clip-path="url(#pf496a157ee)">
     <use style="fill:#696969;stroke:#696969;" x="622.636364" xlink:href="#md64c8f0ecb" y="111.6"/>
    </g>
   </g>
   <g id="patch_3">
    <path d="M 90 640.8 
L 90 86.4 
" style="fill:none;stroke:#cccccc;stroke-linecap:square;stroke-linejoin:miter;"/>
   </g>
   <g id="patch_4">
    <path d="M 648 640.8 
L 648 86.4 
" style="fill:none;stroke:#cccccc;stroke-linecap:square;stroke-linejoin:miter;"/>
   </g>
   <g id="patch_5">
    <path d="M 90 640.8 
L 648 640.8 
" style="fill:none;stroke:#cccccc;stroke-linecap:square;stroke-linejoin:miter;"/>
   </g>
   <g id="patch_6">
    <path d="M 90 86.4 
L 648 86.4 
" style="fill:none;stroke:#cccccc;stroke-linecap:square;stroke-linejoin:miter;"/>
   </g>
   <g id="text_13">
    <!-- 1 (2014-06-07) -->
    <defs>
     <path id="DejaVuSans-32"/>
     <path d="M 31 75.875 
Q 24.46875 64.65625 21.28125 53.65625 
Q 18.109375 42.671875 18.109375 31.390625 
Q 18.109375 20.125 21.3125 9.0625 
Q 24.515625 -2 31 -13.1875 
L 23.1875 -13.1875 
Q 15.875 -1.703125 12.234375 9.375 
Q 8.59375 20.453125 8.59375 31.390625 
Q 8.59375 42.28125 12.203125 53.3125 
Q 15.828125 64.359375 23.1875 75.875 
z
" id="DejaVuSans-40"/>
     <path d="M 4.890625 31.390625 
L 31.203125 31.390625 
L 31.203125 23.390625 
L 4.890625 23.390625 
z
" id="DejaVuSans-45"/>
     <path d="M 8.015625 75.875 
L 15.828125 75.875 
Q 23.140625 64.359375 26.78125 53.3125 
Q 30.421875 42.28125 30.421875 31.390625 
Q 30.421875 20.453125 26.78125 9.375 
Q 23.140625 -1.703125 15.828125 -13.1875 
L 8.015625 -13.1875 
Q 14.5 -2 17.703125 9.0625 
Q 20.90625 20.125 20.90625 31.390625 
Q 20.90625 42.671875 17.703125 53.65625 
Q 14.5 64.65625 8.015625 75.875 
z
" id="DejaVuSans-41"/>
    </defs>
    <g style="fill:#262626;" transform="translate(120.363636 623.198437)scale(0.1 -0.1)">
     <use xlink:href="#DejaVuSans-49"/>
     <use x="63.623047" xlink:href="#DejaVuSans-32"/>
     <use x="95.410156" xlink:href="#DejaVuSans-40"/>
     <use x="134.423828" xlink:href="#DejaVuSans-50"/>
     <use x="198.046875" xlink:href="#DejaVuSans-48"/>
     <use x="261.669922" xlink:href="#DejaVuSans-49"/>
     <use x="325.292969" xlink:href="#DejaVuSans-52"/>
     <use x="388.916016" xlink:href="#DejaVuSans-45"/>
     <use x="425" xlink:href="#DejaVuSans-48"/>
     <use x="488.623047" xlink:href="#DejaVuSans-54"/>
     <use x="552.246094" xlink:href="#DejaVuSans-45"/>
     <use x="588.330078" xlink:href="#DejaVuSans-48"/>
     <use x="651.953125" xlink:href="#DejaVuSans-55"/>
     <use x="715.576172" xlink:href="#DejaVuSans-41"/>
    </g>
   </g>
   <g id="text_14">
    <!-- 5631 (2015-05-25) -->
    <g style="fill:#262626;" transform="translate(202.2246 572.797542)scale(0.1 -0.1)">
     <use xlink:href="#DejaVuSans-53"/>
     <use x="63.623047" xlink:href="#DejaVuSans-54"/>
     <use x="127.246094" xlink:href="#DejaVuSans-51"/>
     <use x="190.869141" xlink:href="#DejaVuSans-49"/>
     <use x="254.492188" xlink:href="#DejaVuSans-32"/>
     <use x="286.279297" xlink:href="#DejaVuSans-40"/>
     <use x="325.292969" xlink:href="#DejaVuSans-50"/>
     <use x="388.916016" xlink:href="#DejaVuSans-48"/>
     <use x="452.539062" xlink:href="#DejaVuSans-49"/>
     <use x="516.162109" xlink:href="#DejaVuSans-53"/>
     <use x="579.785156" xlink:href="#DejaVuSans-45"/>
     <use x="615.869141" xlink:href="#DejaVuSans-48"/>
     <use x="679.492188" xlink:href="#DejaVuSans-53"/>
     <use x="743.115234" xlink:href="#DejaVuSans-45"/>
     <use x="779.199219" xlink:href="#DejaVuSans-50"/>
     <use x="842.822266" xlink:href="#DejaVuSans-53"/>
     <use x="906.445312" xlink:href="#DejaVuSans-41"/>
    </g>
   </g>
   <g id="text_15">
    <!-- 11261 (2015-11-27) -->
    <g style="fill:#262626;" transform="translate(245.391559 522.396647)scale(0.1 -0.1)">
     <use xlink:href="#DejaVuSans-49"/>
     <use x="63.623047" xlink:href="#DejaVuSans-49"/>
     <use x="127.246094" xlink:href="#DejaVuSans-50"/>
     <use x="190.869141" xlink:href="#DejaVuSans-54"/>
     <use x="254.492188" xlink:href="#DejaVuSans-49"/>
     <use x="318.115234" xlink:href="#DejaVuSans-32"/>
     <use x="349.902344" xlink:href="#DejaVuSans-40"/>
     <use x="388.916016" xlink:href="#DejaVuSans-50"/>
     <use x="452.539062" xlink:href="#DejaVuSans-48"/>
     <use x="516.162109" xlink:href="#DejaVuSans-49"/>
     <use x="579.785156" xlink:href="#DejaVuSans-53"/>
     <use x="643.408203" xlink:href="#DejaVuSans-45"/>
     <use x="679.492188" xlink:href="#DejaVuSans-49"/>
     <use x="743.115234" xlink:href="#DejaVuSans-49"/>
     <use x="806.738281" xlink:href="#DejaVuSans-45"/>
     <use x="842.822266" xlink:href="#DejaVuSans-50"/>
     <use x="906.445312" xlink:href="#DejaVuSans-55"/>
     <use x="970.068359" xlink:href="#DejaVuSans-41"/>
    </g>
   </g>
   <g id="text_16">
    <!-- 16891 (2016-06-27) -->
    <g style="fill:#262626;" transform="translate(294.92928 471.995752)scale(0.1 -0.1)">
     <use xlink:href="#DejaVuSans-49"/>
     <use x="63.623047" xlink:href="#DejaVuSans-54"/>
     <use x="127.246094" xlink:href="#DejaVuSans-56"/>
     <use x="190.869141" xlink:href="#DejaVuSans-57"/>
     <use x="254.492188" xlink:href="#DejaVuSans-49"/>
     <use x="318.115234" xlink:href="#DejaVuSans-32"/>
     <use x="349.902344" xlink:href="#DejaVuSans-40"/>
     <use x="388.916016" xlink:href="#DejaVuSans-50"/>
     <use x="452.539062" xlink:href="#DejaVuSans-48"/>
     <use x="516.162109" xlink:href="#DejaVuSans-49"/>
     <use x="579.785156" xlink:href="#DejaVuSans-54"/>
     <use x="643.408203" xlink:href="#DejaVuSans-45"/>
     <use x="679.492188" xlink:href="#DejaVuSans-48"/>
     <use x="743.115234" xlink:href="#DejaVuSans-54"/>
     <use x="806.738281" xlink:href="#DejaVuSans-45"/>
     <use x="842.822266" xlink:href="#DejaVuSans-50"/>
     <use x="906.445312" xlink:href="#DejaVuSans-55"/>
     <use x="970.068359" xlink:href="#DejaVuSans-41"/>
    </g>
   </g>
   <g id="text_17">
    <!-- 22521 (2016-12-13) -->
    <g style="fill:#262626;" transform="translate(334.087719 421.594857)scale(0.1 -0.1)">
     <use xlink:href="#DejaVuSans-50"/>
     <use x="63.623047" xlink:href="#DejaVuSans-50"/>
     <use x="127.246094" xlink:href="#DejaVuSans-53"/>
     <use x="190.869141" xlink:href="#DejaVuSans-50"/>
     <use x="254.492188" xlink:href="#DejaVuSans-49"/>
     <use x="318.115234" xlink:href="#DejaVuSans-32"/>
     <use x="349.902344" xlink:href="#DejaVuSans-40"/>
     <use x="388.916016" xlink:href="#DejaVuSans-50"/>
     <use x="452.539062" xlink:href="#DejaVuSans-48"/>
     <use x="516.162109" xlink:href="#DejaVuSans-49"/>
     <use x="579.785156" xlink:href="#DejaVuSans-54"/>
     <use x="643.408203" xlink:href="#DejaVuSans-45"/>
     <use x="679.492188" xlink:href="#DejaVuSans-49"/>
     <use x="743.115234" xlink:href="#DejaVuSans-50"/>
     <use x="806.738281" xlink:href="#DejaVuSans-45"/>
     <use x="842.822266" xlink:href="#DejaVuSans-49"/>
     <use x="906.445312" xlink:href="#DejaVuSans-51"/>
     <use x="970.068359" xlink:href="#DejaVuSans-41"/>
    </g>
   </g>
   <g id="text_18">
    <!-- 28151 (2017-06-20) -->
    <g style="fill:#262626;" transform="translate(378.039686 371.193961)scale(0.1 -0.1)">
     <use xlink:href="#DejaVuSans-50"/>
     <use x="63.623047" xlink:href="#DejaVuSans-56"/>
     <use x="127.246094" xlink:href="#DejaVuSans-49"/>
     <use x="190.869141" xlink:href="#DejaVuSans-53"/>
     <use x="254.492188" xlink:href="#DejaVuSans-49"/>
     <use x="318.115234" xlink:href="#DejaVuSans-32"/>
     <use x="349.902344" xlink:href="#DejaVuSans-40"/>
     <use x="388.916016" xlink:href="#DejaVuSans-50"/>
     <use x="452.539062" xlink:href="#DejaVuSans-48"/>
     <use x="516.162109" xlink:href="#DejaVuSans-49"/>
     <use x="579.785156" xlink:href="#DejaVuSans-55"/>
     <use x="643.408203" xlink:href="#DejaVuSans-45"/>
     <use x="679.492188" xlink:href="#DejaVuSans-48"/>
     <use x="743.115234" xlink:href="#DejaVuSans-54"/>
     <use x="806.738281" xlink:href="#DejaVuSans-45"/>
     <use x="842.822266" xlink:href="#DejaVuSans-50"/>
     <use x="906.445312" xlink:href="#DejaVuSans-48"/>
     <use x="970.068359" xlink:href="#DejaVuSans-41"/>
    </g>
   </g>
   <g id="text_19">
    <!-- 33781 (2017-12-06) -->
    <g style="fill:#262626;" transform="translate(417.267414 320.793066)scale(0.1 -0.1)">
     <use xlink:href="#DejaVuSans-51"/>
     <use x="63.623047" xlink:href="#DejaVuSans-51"/>
     <use x="127.246094" xlink:href="#DejaVuSans-55"/>
     <use x="190.869141" xlink:href="#DejaVuSans-56"/>
     <use x="254.492188" xlink:href="#DejaVuSans-49"/>
     <use x="318.115234" xlink:href="#DejaVuSans-32"/>
     <use x="349.902344" xlink:href="#DejaVuSans-40"/>
     <use x="388.916016" xlink:href="#DejaVuSans-50"/>
     <use x="452.539062" xlink:href="#DejaVuSans-48"/>
     <use x="516.162109" xlink:href="#DejaVuSans-49"/>
     <use x="579.785156" xlink:href="#DejaVuSans-55"/>
     <use x="643.408203" xlink:href="#DejaVuSans-45"/>
     <use x="679.492188" xlink:href="#DejaVuSans-49"/>
     <use x="743.115234" xlink:href="#DejaVuSans-50"/>
     <use x="806.738281" xlink:href="#DejaVuSans-45"/>
     <use x="842.822266" xlink:href="#DejaVuSans-48"/>
     <use x="906.445312" xlink:href="#DejaVuSans-54"/>
     <use x="970.068359" xlink:href="#DejaVuSans-41"/>
    </g>
   </g>
   <g id="text_20">
    <!-- 39411 (2018-07-03) -->
    <g style="fill:#262626;" transform="translate(465.682708 270.392171)scale(0.1 -0.1)">
     <use xlink:href="#DejaVuSans-51"/>
     <use x="63.623047" xlink:href="#DejaVuSans-57"/>
     <use x="127.246094" xlink:href="#DejaVuSans-52"/>
     <use x="190.869141" xlink:href="#DejaVuSans-49"/>
     <use x="254.492188" xlink:href="#DejaVuSans-49"/>
     <use x="318.115234" xlink:href="#DejaVuSans-32"/>
     <use x="349.902344" xlink:href="#DejaVuSans-40"/>
     <use x="388.916016" xlink:href="#DejaVuSans-50"/>
     <use x="452.539062" xlink:href="#DejaVuSans-48"/>
     <use x="516.162109" xlink:href="#DejaVuSans-49"/>
     <use x="579.785156" xlink:href="#DejaVuSans-56"/>
     <use x="643.408203" xlink:href="#DejaVuSans-45"/>
     <use x="679.492188" xlink:href="#DejaVuSans-48"/>
     <use x="743.115234" xlink:href="#DejaVuSans-55"/>
     <use x="806.738281" xlink:href="#DejaVuSans-45"/>
     <use x="842.822266" xlink:href="#DejaVuSans-48"/>
     <use x="906.445312" xlink:href="#DejaVuSans-51"/>
     <use x="970.068359" xlink:href="#DejaVuSans-41"/>
    </g>
   </g>
   <g id="text_21">
    <!-- 45041 (2019-02-25) -->
    <g style="fill:#262626;" transform="translate(520.680573 219.991276)scale(0.1 -0.1)">
     <use xlink:href="#DejaVuSans-52"/>
     <use x="63.623047" xlink:href="#DejaVuSans-53"/>
     <use x="127.246094" xlink:href="#DejaVuSans-48"/>
     <use x="190.869141" xlink:href="#DejaVuSans-52"/>
     <use x="254.492188" xlink:href="#DejaVuSans-49"/>
     <use x="318.115234" xlink:href="#DejaVuSans-32"/>
     <use x="349.902344" xlink:href="#DejaVuSans-40"/>
     <use x="388.916016" xlink:href="#DejaVuSans-50"/>
     <use x="452.539062" xlink:href="#DejaVuSans-48"/>
     <use x="516.162109" xlink:href="#DejaVuSans-49"/>
     <use x="579.785156" xlink:href="#DejaVuSans-57"/>
     <use x="643.408203" xlink:href="#DejaVuSans-45"/>
     <use x="679.492188" xlink:href="#DejaVuSans-48"/>
     <use x="743.115234" xlink:href="#DejaVuSans-50"/>
     <use x="806.738281" xlink:href="#DejaVuSans-45"/>
     <use x="842.822266" xlink:href="#DejaVuSans-50"/>
     <use x="906.445312" xlink:href="#DejaVuSans-53"/>
     <use x="970.068359" xlink:href="#DejaVuSans-41"/>
    </g>
   </g>
   <g id="text_22">
    <!-- 50671 (2019-09-20) -->
    <g style="fill:#262626;" transform="translate(568.700935 169.590381)scale(0.1 -0.1)">
     <use xlink:href="#DejaVuSans-53"/>
     <use x="63.623047" xlink:href="#DejaVuSans-48"/>
     <use x="127.246094" xlink:href="#DejaVuSans-54"/>
     <use x="190.869141" xlink:href="#DejaVuSans-55"/>
     <use x="254.492188" xlink:href="#DejaVuSans-49"/>
     <use x="318.115234" xlink:href="#DejaVuSans-32"/>
     <use x="349.902344" xlink:href="#DejaVuSans-40"/>
     <use x="388.916016" xlink:href="#DejaVuSans-50"/>
     <use x="452.539062" xlink:href="#DejaVuSans-48"/>
     <use x="516.162109" xlink:href="#DejaVuSans-49"/>
     <use x="579.785156" xlink:href="#DejaVuSans-57"/>
     <use x="643.408203" xlink:href="#DejaVuSans-45"/>
     <use x="679.492188" xlink:href="#DejaVuSans-48"/>
     <use x="743.115234" xlink:href="#DejaVuSans-57"/>
     <use x="806.738281" xlink:href="#DejaVuSans-45"/>
     <use x="842.822266" xlink:href="#DejaVuSans-50"/>
     <use x="906.445312" xlink:href="#DejaVuSans-48"/>
     <use x="970.068359" xlink:href="#DejaVuSans-41"/>
    </g>
   </g>
   <g id="text_23">
    <!-- 56300 (2020-05-31) -->
    <g style="fill:#262626;" transform="translate(627.636364 119.198437)scale(0.1 -0.1)">
     <use xlink:href="#DejaVuSans-53"/>
     <use x="63.623047" xlink:href="#DejaVuSans-54"/>
     <use x="127.246094" xlink:href="#DejaVuSans-51"/>
     <use x="190.869141" xlink:href="#DejaVuSans-48"/>
     <use x="254.492188" xlink:href="#DejaVuSans-48"/>
     <use x="318.115234" xlink:href="#DejaVuSans-32"/>
     <use x="349.902344" xlink:href="#DejaVuSans-40"/>
     <use x="388.916016" xlink:href="#DejaVuSans-50"/>
     <use x="452.539062" xlink:href="#DejaVuSans-48"/>
     <use x="516.162109" xlink:href="#DejaVuSans-50"/>
     <use x="579.785156" xlink:href="#DejaVuSans-48"/>
     <use x="643.408203" xlink:href="#DejaVuSans-45"/>
     <use x="679.492188" xlink:href="#DejaVuSans-48"/>
     <use x="743.115234" xlink:href="#DejaVuSans-53"/>
     <use x="806.738281" xlink:href="#DejaVuSans-45"/>
     <use x="842.822266" xlink:href="#DejaVuSans-51"/>
     <use x="906.445312" xlink:href="#DejaVuSans-49"/>
     <use x="970.068359" xlink:href="#DejaVuSans-41"/>
    </g>
   </g>
   <g id="text_24">
    <!-- Created PRs over time -->
    <defs>
     <path d="M 64.40625 67.28125 
L 64.40625 56.890625 
Q 59.421875 61.53125 53.78125 63.8125 
Q 48.140625 66.109375 41.796875 66.109375 
Q 29.296875 66.109375 22.65625 58.46875 
Q 16.015625 50.828125 16.015625 36.375 
Q 16.015625 21.96875 22.65625 14.328125 
Q 29.296875 6.6875 41.796875 6.6875 
Q 48.140625 6.6875 53.78125 8.984375 
Q 59.421875 11.28125 64.40625 15.921875 
L 64.40625 5.609375 
Q 59.234375 2.09375 53.4375 0.328125 
Q 47.65625 -1.421875 41.21875 -1.421875 
Q 24.65625 -1.421875 15.125 8.703125 
Q 5.609375 18.84375 5.609375 36.375 
Q 5.609375 53.953125 15.125 64.078125 
Q 24.65625 74.21875 41.21875 74.21875 
Q 47.75 74.21875 53.53125 72.484375 
Q 59.328125 70.75 64.40625 67.28125 
z
" id="DejaVuSans-67"/>
     <path d="M 41.109375 46.296875 
Q 39.59375 47.171875 37.8125 47.578125 
Q 36.03125 48 33.890625 48 
Q 26.265625 48 22.1875 43.046875 
Q 18.109375 38.09375 18.109375 28.8125 
L 18.109375 0 
L 9.078125 0 
L 9.078125 54.6875 
L 18.109375 54.6875 
L 18.109375 46.1875 
Q 20.953125 51.171875 25.484375 53.578125 
Q 30.03125 56 36.53125 56 
Q 37.453125 56 38.578125 55.875 
Q 39.703125 55.765625 41.0625 55.515625 
z
" id="DejaVuSans-114"/>
     <path d="M 56.203125 29.59375 
L 56.203125 25.203125 
L 14.890625 25.203125 
Q 15.484375 15.921875 20.484375 11.0625 
Q 25.484375 6.203125 34.421875 6.203125 
Q 39.59375 6.203125 44.453125 7.46875 
Q 49.3125 8.734375 54.109375 11.28125 
L 54.109375 2.78125 
Q 49.265625 0.734375 44.1875 -0.34375 
Q 39.109375 -1.421875 33.890625 -1.421875 
Q 20.796875 -1.421875 13.15625 6.1875 
Q 5.515625 13.8125 5.515625 26.8125 
Q 5.515625 40.234375 12.765625 48.109375 
Q 20.015625 56 32.328125 56 
Q 43.359375 56 49.78125 48.890625 
Q 56.203125 41.796875 56.203125 29.59375 
z
M 47.21875 32.234375 
Q 47.125 39.59375 43.09375 43.984375 
Q 39.0625 48.390625 32.421875 48.390625 
Q 24.90625 48.390625 20.390625 44.140625 
Q 15.875 39.890625 15.1875 32.171875 
z
" id="DejaVuSans-101"/>
     <path d="M 34.28125 27.484375 
Q 23.390625 27.484375 19.1875 25 
Q 14.984375 22.515625 14.984375 16.5 
Q 14.984375 11.71875 18.140625 8.90625 
Q 21.296875 6.109375 26.703125 6.109375 
Q 34.1875 6.109375 38.703125 11.40625 
Q 43.21875 16.703125 43.21875 25.484375 
L 43.21875 27.484375 
z
M 52.203125 31.203125 
L 52.203125 0 
L 43.21875 0 
L 43.21875 8.296875 
Q 40.140625 3.328125 35.546875 0.953125 
Q 30.953125 -1.421875 24.3125 -1.421875 
Q 15.921875 -1.421875 10.953125 3.296875 
Q 6 8.015625 6 15.921875 
Q 6 25.140625 12.171875 29.828125 
Q 18.359375 34.515625 30.609375 34.515625 
L 43.21875 34.515625 
L 43.21875 35.40625 
Q 43.21875 41.609375 39.140625 45 
Q 35.0625 48.390625 27.6875 48.390625 
Q 23 48.390625 18.546875 47.265625 
Q 14.109375 46.140625 10.015625 43.890625 
L 10.015625 52.203125 
Q 14.9375 54.109375 19.578125 55.046875 
Q 24.21875 56 28.609375 56 
Q 40.484375 56 46.34375 49.84375 
Q 52.203125 43.703125 52.203125 31.203125 
z
" id="DejaVuSans-97"/>
     <path d="M 18.3125 70.21875 
L 18.3125 54.6875 
L 36.8125 54.6875 
L 36.8125 47.703125 
L 18.3125 47.703125 
L 18.3125 18.015625 
Q 18.3125 11.328125 20.140625 9.421875 
Q 21.96875 7.515625 27.59375 7.515625 
L 36.8125 7.515625 
L 36.8125 0 
L 27.59375 0 
Q 17.1875 0 13.234375 3.875 
Q 9.28125 7.765625 9.28125 18.015625 
L 9.28125 47.703125 
L 2.6875 47.703125 
L 2.6875 54.6875 
L 9.28125 54.6875 
L 9.28125 70.21875 
z
" id="DejaVuSans-116"/>
     <path d="M 45.40625 46.390625 
L 45.40625 75.984375 
L 54.390625 75.984375 
L 54.390625 0 
L 45.40625 0 
L 45.40625 8.203125 
Q 42.578125 3.328125 38.25 0.953125 
Q 33.9375 -1.421875 27.875 -1.421875 
Q 17.96875 -1.421875 11.734375 6.484375 
Q 5.515625 14.40625 5.515625 27.296875 
Q 5.515625 40.1875 11.734375 48.09375 
Q 17.96875 56 27.875 56 
Q 33.9375 56 38.25 53.625 
Q 42.578125 51.265625 45.40625 46.390625 
z
M 14.796875 27.296875 
Q 14.796875 17.390625 18.875 11.75 
Q 22.953125 6.109375 30.078125 6.109375 
Q 37.203125 6.109375 41.296875 11.75 
Q 45.40625 17.390625 45.40625 27.296875 
Q 45.40625 37.203125 41.296875 42.84375 
Q 37.203125 48.484375 30.078125 48.484375 
Q 22.953125 48.484375 18.875 42.84375 
Q 14.796875 37.203125 14.796875 27.296875 
z
" id="DejaVuSans-100"/>
     <path d="M 19.671875 64.796875 
L 19.671875 37.40625 
L 32.078125 37.40625 
Q 38.96875 37.40625 42.71875 40.96875 
Q 46.484375 44.53125 46.484375 51.125 
Q 46.484375 57.671875 42.71875 61.234375 
Q 38.96875 64.796875 32.078125 64.796875 
z
M 9.8125 72.90625 
L 32.078125 72.90625 
Q 44.34375 72.90625 50.609375 67.359375 
Q 56.890625 61.8125 56.890625 51.125 
Q 56.890625 40.328125 50.609375 34.8125 
Q 44.34375 29.296875 32.078125 29.296875 
L 19.671875 29.296875 
L 19.671875 0 
L 9.8125 0 
z
" id="DejaVuSans-80"/>
     <path d="M 44.390625 34.1875 
Q 47.5625 33.109375 50.5625 29.59375 
Q 53.5625 26.078125 56.59375 19.921875 
L 66.609375 0 
L 56 0 
L 46.6875 18.703125 
Q 43.0625 26.03125 39.671875 28.421875 
Q 36.28125 30.8125 30.421875 30.8125 
L 19.671875 30.8125 
L 19.671875 0 
L 9.8125 0 
L 9.8125 72.90625 
L 32.078125 72.90625 
Q 44.578125 72.90625 50.734375 67.671875 
Q 56.890625 62.453125 56.890625 51.90625 
Q 56.890625 45.015625 53.6875 40.46875 
Q 50.484375 35.9375 44.390625 34.1875 
z
M 19.671875 64.796875 
L 19.671875 38.921875 
L 32.078125 38.921875 
Q 39.203125 38.921875 42.84375 42.21875 
Q 46.484375 45.515625 46.484375 51.90625 
Q 46.484375 58.296875 42.84375 61.546875 
Q 39.203125 64.796875 32.078125 64.796875 
z
" id="DejaVuSans-82"/>
     <path d="M 44.28125 53.078125 
L 44.28125 44.578125 
Q 40.484375 46.53125 36.375 47.5 
Q 32.28125 48.484375 27.875 48.484375 
Q 21.1875 48.484375 17.84375 46.4375 
Q 14.5 44.390625 14.5 40.28125 
Q 14.5 37.15625 16.890625 35.375 
Q 19.28125 33.59375 26.515625 31.984375 
L 29.59375 31.296875 
Q 39.15625 29.25 43.1875 25.515625 
Q 47.21875 21.78125 47.21875 15.09375 
Q 47.21875 7.46875 41.1875 3.015625 
Q 35.15625 -1.421875 24.609375 -1.421875 
Q 20.21875 -1.421875 15.453125 -0.5625 
Q 10.6875 0.296875 5.421875 2 
L 5.421875 11.28125 
Q 10.40625 8.6875 15.234375 7.390625 
Q 20.0625 6.109375 24.8125 6.109375 
Q 31.15625 6.109375 34.5625 8.28125 
Q 37.984375 10.453125 37.984375 14.40625 
Q 37.984375 18.0625 35.515625 20.015625 
Q 33.0625 21.96875 24.703125 23.78125 
L 21.578125 24.515625 
Q 13.234375 26.265625 9.515625 29.90625 
Q 5.8125 33.546875 5.8125 39.890625 
Q 5.8125 47.609375 11.28125 51.796875 
Q 16.75 56 26.8125 56 
Q 31.78125 56 36.171875 55.265625 
Q 40.578125 54.546875 44.28125 53.078125 
z
" id="DejaVuSans-115"/>
     <path d="M 30.609375 48.390625 
Q 23.390625 48.390625 19.1875 42.75 
Q 14.984375 37.109375 14.984375 27.296875 
Q 14.984375 17.484375 19.15625 11.84375 
Q 23.34375 6.203125 30.609375 6.203125 
Q 37.796875 6.203125 41.984375 11.859375 
Q 46.1875 17.53125 46.1875 27.296875 
Q 46.1875 37.015625 41.984375 42.703125 
Q 37.796875 48.390625 30.609375 48.390625 
z
M 30.609375 56 
Q 42.328125 56 49.015625 48.375 
Q 55.71875 40.765625 55.71875 27.296875 
Q 55.71875 13.875 49.015625 6.21875 
Q 42.328125 -1.421875 30.609375 -1.421875 
Q 18.84375 -1.421875 12.171875 6.21875 
Q 5.515625 13.875 5.515625 27.296875 
Q 5.515625 40.765625 12.171875 48.375 
Q 18.84375 56 30.609375 56 
z
" id="DejaVuSans-111"/>
     <path d="M 2.984375 54.6875 
L 12.5 54.6875 
L 29.59375 8.796875 
L 46.6875 54.6875 
L 56.203125 54.6875 
L 35.6875 0 
L 23.484375 0 
z
" id="DejaVuSans-118"/>
     <path d="M 9.421875 54.6875 
L 18.40625 54.6875 
L 18.40625 0 
L 9.421875 0 
z
M 9.421875 75.984375 
L 18.40625 75.984375 
L 18.40625 64.59375 
L 9.421875 64.59375 
z
" id="DejaVuSans-105"/>
     <path d="M 52 44.1875 
Q 55.375 50.25 60.0625 53.125 
Q 64.75 56 71.09375 56 
Q 79.640625 56 84.28125 50.015625 
Q 88.921875 44.046875 88.921875 33.015625 
L 88.921875 0 
L 79.890625 0 
L 79.890625 32.71875 
Q 79.890625 40.578125 77.09375 44.375 
Q 74.3125 48.1875 68.609375 48.1875 
Q 61.625 48.1875 57.5625 43.546875 
Q 53.515625 38.921875 53.515625 30.90625 
L 53.515625 0 
L 44.484375 0 
L 44.484375 32.71875 
Q 44.484375 40.625 41.703125 44.40625 
Q 38.921875 48.1875 33.109375 48.1875 
Q 26.21875 48.1875 22.15625 43.53125 
Q 18.109375 38.875 18.109375 30.90625 
L 18.109375 0 
L 9.078125 0 
L 9.078125 54.6875 
L 18.109375 54.6875 
L 18.109375 46.1875 
Q 21.1875 51.21875 25.484375 53.609375 
Q 29.78125 56 35.6875 56 
Q 41.65625 56 45.828125 52.96875 
Q 50 49.953125 52 44.1875 
z
" id="DejaVuSans-109"/>
    </defs>
    <g style="fill:#262626;" transform="translate(301.6875 80.4)scale(0.12 -0.12)">
     <use xlink:href="#DejaVuSans-67"/>
     <use x="69.824219" xlink:href="#DejaVuSans-114"/>
     <use x="108.6875" xlink:href="#DejaVuSans-101"/>
     <use x="170.210938" xlink:href="#DejaVuSans-97"/>
     <use x="231.490234" xlink:href="#DejaVuSans-116"/>
     <use x="270.699219" xlink:href="#DejaVuSans-101"/>
     <use x="332.222656" xlink:href="#DejaVuSans-100"/>
     <use x="395.699219" xlink:href="#DejaVuSans-32"/>
     <use x="427.486328" xlink:href="#DejaVuSans-80"/>
     <use x="487.789062" xlink:href="#DejaVuSans-82"/>
     <use x="557.271484" xlink:href="#DejaVuSans-115"/>
     <use x="609.371094" xlink:href="#DejaVuSans-32"/>
     <use x="641.158203" xlink:href="#DejaVuSans-111"/>
     <use x="702.339844" xlink:href="#DejaVuSans-118"/>
     <use x="761.519531" xlink:href="#DejaVuSans-101"/>
     <use x="823.042969" xlink:href="#DejaVuSans-114"/>
     <use x="864.15625" xlink:href="#DejaVuSans-32"/>
     <use x="895.943359" xlink:href="#DejaVuSans-116"/>
     <use x="935.152344" xlink:href="#DejaVuSans-105"/>
     <use x="962.935547" xlink:href="#DejaVuSans-109"/>
     <use x="1060.347656" xlink:href="#DejaVuSans-101"/>
    </g>
   </g>
  </g>
 </g>
 <defs>
  <clipPath id="pf496a157ee">
   <rect height="554.4" width="558" x="90" y="86.4"/>
  </clipPath>
 </defs>
</svg>
