<?xml version="1.0" encoding="utf-8" standalone="no"?>
<!DOCTYPE svg PUBLIC "-//W3C//DTD SVG 1.1//EN"
  "http://www.w3.org/Graphics/SVG/1.1/DTD/svg11.dtd">
<!-- Created with matplotlib (https://matplotlib.org/) -->
<svg height="720pt" version="1.1" viewBox="0 0 720 720" width="720pt" xmlns="http://www.w3.org/2000/svg" xmlns:xlink="http://www.w3.org/1999/xlink">
 <defs>
  <style type="text/css">
*{stroke-linecap:butt;stroke-linejoin:round;}
  </style>
 </defs>
 <g id="figure_1">
  <g id="patch_1">
   <path d="M 0 720 
L 720 720 
L 720 0 
L 0 0 
z
" style="fill:#ffffff;"/>
  </g>
  <g id="axes_1">
   <g id="patch_2">
    <path d="M 90 640.8 
L 648 640.8 
L 648 86.4 
L 90 86.4 
z
" style="fill:#ffffff;"/>
   </g>
   <g id="matplotlib.axis_1">
    <g id="xtick_1">
     <g id="line2d_1">
      <path clip-path="url(#p296ccd28b3)" d="M 164.174947 640.8 
L 164.174947 86.4 
" style="fill:none;stroke:#cccccc;stroke-linecap:round;stroke-width:0.8;"/>
     </g>
     <g id="line2d_2"/>
     <g id="text_1">
      <!-- 2015 -->
      <defs>
       <path d="M 19.1875 8.296875 
L 53.609375 8.296875 
L 53.609375 0 
L 7.328125 0 
L 7.328125 8.296875 
Q 12.9375 14.109375 22.625 23.890625 
Q 32.328125 33.6875 34.8125 36.53125 
Q 39.546875 41.84375 41.421875 45.53125 
Q 43.3125 49.21875 43.3125 52.78125 
Q 43.3125 58.59375 39.234375 62.25 
Q 35.15625 65.921875 28.609375 65.921875 
Q 23.96875 65.921875 18.8125 64.3125 
Q 13.671875 62.703125 7.8125 59.421875 
L 7.8125 69.390625 
Q 13.765625 71.78125 18.9375 73 
Q 24.125 74.21875 28.421875 74.21875 
Q 39.75 74.21875 46.484375 68.546875 
Q 53.21875 62.890625 53.21875 53.421875 
Q 53.21875 48.921875 51.53125 44.890625 
Q 49.859375 40.875 45.40625 35.40625 
Q 44.1875 33.984375 37.640625 27.21875 
Q 31.109375 20.453125 19.1875 8.296875 
z
" id="DejaVuSans-50"/>
       <path d="M 31.78125 66.40625 
Q 24.171875 66.40625 20.328125 58.90625 
Q 16.5 51.421875 16.5 36.375 
Q 16.5 21.390625 20.328125 13.890625 
Q 24.171875 6.390625 31.78125 6.390625 
Q 39.453125 6.390625 43.28125 13.890625 
Q 47.125 21.390625 47.125 36.375 
Q 47.125 51.421875 43.28125 58.90625 
Q 39.453125 66.40625 31.78125 66.40625 
z
M 31.78125 74.21875 
Q 44.046875 74.21875 50.515625 64.515625 
Q 56.984375 54.828125 56.984375 36.375 
Q 56.984375 17.96875 50.515625 8.265625 
Q 44.046875 -1.421875 31.78125 -1.421875 
Q 19.53125 -1.421875 13.0625 8.265625 
Q 6.59375 17.96875 6.59375 36.375 
Q 6.59375 54.828125 13.0625 64.515625 
Q 19.53125 74.21875 31.78125 74.21875 
z
" id="DejaVuSans-48"/>
       <path d="M 12.40625 8.296875 
L 28.515625 8.296875 
L 28.515625 63.921875 
L 10.984375 60.40625 
L 10.984375 69.390625 
L 28.421875 72.90625 
L 38.28125 72.90625 
L 38.28125 8.296875 
L 54.390625 8.296875 
L 54.390625 0 
L 12.40625 0 
z
" id="DejaVuSans-49"/>
       <path d="M 10.796875 72.90625 
L 49.515625 72.90625 
L 49.515625 64.59375 
L 19.828125 64.59375 
L 19.828125 46.734375 
Q 21.96875 47.46875 24.109375 47.828125 
Q 26.265625 48.1875 28.421875 48.1875 
Q 40.625 48.1875 47.75 41.5 
Q 54.890625 34.8125 54.890625 23.390625 
Q 54.890625 11.625 47.5625 5.09375 
Q 40.234375 -1.421875 26.90625 -1.421875 
Q 22.3125 -1.421875 17.546875 -0.640625 
Q 12.796875 0.140625 7.71875 1.703125 
L 7.71875 11.625 
Q 12.109375 9.234375 16.796875 8.0625 
Q 21.484375 6.890625 26.703125 6.890625 
Q 35.15625 6.890625 40.078125 11.328125 
Q 45.015625 15.765625 45.015625 23.390625 
Q 45.015625 31 40.078125 35.4375 
Q 35.15625 39.890625 26.703125 39.890625 
Q 22.75 39.890625 18.8125 39.015625 
Q 14.890625 38.140625 10.796875 36.28125 
z
" id="DejaVuSans-53"/>
      </defs>
      <g style="fill:#262626;" transform="translate(151.449947 651.898438)scale(0.1 -0.1)">
       <use xlink:href="#DejaVuSans-50"/>
       <use x="63.623047" xlink:href="#DejaVuSans-48"/>
       <use x="127.246094" xlink:href="#DejaVuSans-49"/>
       <use x="190.869141" xlink:href="#DejaVuSans-53"/>
      </g>
     </g>
    </g>
    <g id="xtick_2">
     <g id="line2d_3">
      <path clip-path="url(#p296ccd28b3)" d="M 249.827358 640.8 
L 249.827358 86.4 
" style="fill:none;stroke:#cccccc;stroke-linecap:round;stroke-width:0.8;"/>
     </g>
     <g id="line2d_4"/>
     <g id="text_2">
      <!-- 2016 -->
      <defs>
       <path d="M 33.015625 40.375 
Q 26.375 40.375 22.484375 35.828125 
Q 18.609375 31.296875 18.609375 23.390625 
Q 18.609375 15.53125 22.484375 10.953125 
Q 26.375 6.390625 33.015625 6.390625 
Q 39.65625 6.390625 43.53125 10.953125 
Q 47.40625 15.53125 47.40625 23.390625 
Q 47.40625 31.296875 43.53125 35.828125 
Q 39.65625 40.375 33.015625 40.375 
z
M 52.59375 71.296875 
L 52.59375 62.3125 
Q 48.875 64.0625 45.09375 64.984375 
Q 41.3125 65.921875 37.59375 65.921875 
Q 27.828125 65.921875 22.671875 59.328125 
Q 17.53125 52.734375 16.796875 39.40625 
Q 19.671875 43.65625 24.015625 45.921875 
Q 28.375 48.1875 33.59375 48.1875 
Q 44.578125 48.1875 50.953125 41.515625 
Q 57.328125 34.859375 57.328125 23.390625 
Q 57.328125 12.15625 50.6875 5.359375 
Q 44.046875 -1.421875 33.015625 -1.421875 
Q 20.359375 -1.421875 13.671875 8.265625 
Q 6.984375 17.96875 6.984375 36.375 
Q 6.984375 53.65625 15.1875 63.9375 
Q 23.390625 74.21875 37.203125 74.21875 
Q 40.921875 74.21875 44.703125 73.484375 
Q 48.484375 72.75 52.59375 71.296875 
z
" id="DejaVuSans-54"/>
      </defs>
      <g style="fill:#262626;" transform="translate(237.102358 651.898438)scale(0.1 -0.1)">
       <use xlink:href="#DejaVuSans-50"/>
       <use x="63.623047" xlink:href="#DejaVuSans-48"/>
       <use x="127.246094" xlink:href="#DejaVuSans-49"/>
       <use x="190.869141" xlink:href="#DejaVuSans-54"/>
      </g>
     </g>
    </g>
    <g id="xtick_3">
     <g id="line2d_5">
      <path clip-path="url(#p296ccd28b3)" d="M 335.714432 640.8 
L 335.714432 86.4 
" style="fill:none;stroke:#cccccc;stroke-linecap:round;stroke-width:0.8;"/>
     </g>
     <g id="line2d_6"/>
     <g id="text_3">
      <!-- 2017 -->
      <defs>
       <path d="M 8.203125 72.90625 
L 55.078125 72.90625 
L 55.078125 68.703125 
L 28.609375 0 
L 18.3125 0 
L 43.21875 64.59375 
L 8.203125 64.59375 
z
" id="DejaVuSans-55"/>
      </defs>
      <g style="fill:#262626;" transform="translate(322.989432 651.898438)scale(0.1 -0.1)">
       <use xlink:href="#DejaVuSans-50"/>
       <use x="63.623047" xlink:href="#DejaVuSans-48"/>
       <use x="127.246094" xlink:href="#DejaVuSans-49"/>
       <use x="190.869141" xlink:href="#DejaVuSans-55"/>
      </g>
     </g>
    </g>
    <g id="xtick_4">
     <g id="line2d_7">
      <path clip-path="url(#p296ccd28b3)" d="M 421.366843 640.8 
L 421.366843 86.4 
" style="fill:none;stroke:#cccccc;stroke-linecap:round;stroke-width:0.8;"/>
     </g>
     <g id="line2d_8"/>
     <g id="text_4">
      <!-- 2018 -->
      <defs>
       <path d="M 31.78125 34.625 
Q 24.75 34.625 20.71875 30.859375 
Q 16.703125 27.09375 16.703125 20.515625 
Q 16.703125 13.921875 20.71875 10.15625 
Q 24.75 6.390625 31.78125 6.390625 
Q 38.8125 6.390625 42.859375 10.171875 
Q 46.921875 13.96875 46.921875 20.515625 
Q 46.921875 27.09375 42.890625 30.859375 
Q 38.875 34.625 31.78125 34.625 
z
M 21.921875 38.8125 
Q 15.578125 40.375 12.03125 44.71875 
Q 8.5 49.078125 8.5 55.328125 
Q 8.5 64.0625 14.71875 69.140625 
Q 20.953125 74.21875 31.78125 74.21875 
Q 42.671875 74.21875 48.875 69.140625 
Q 55.078125 64.0625 55.078125 55.328125 
Q 55.078125 49.078125 51.53125 44.71875 
Q 48 40.375 41.703125 38.8125 
Q 48.828125 37.15625 52.796875 32.3125 
Q 56.78125 27.484375 56.78125 20.515625 
Q 56.78125 9.90625 50.3125 4.234375 
Q 43.84375 -1.421875 31.78125 -1.421875 
Q 19.734375 -1.421875 13.25 4.234375 
Q 6.78125 9.90625 6.78125 20.515625 
Q 6.78125 27.484375 10.78125 32.3125 
Q 14.796875 37.15625 21.921875 38.8125 
z
M 18.3125 54.390625 
Q 18.3125 48.734375 21.84375 45.5625 
Q 25.390625 42.390625 31.78125 42.390625 
Q 38.140625 42.390625 41.71875 45.5625 
Q 45.3125 48.734375 45.3125 54.390625 
Q 45.3125 60.0625 41.71875 63.234375 
Q 38.140625 66.40625 31.78125 66.40625 
Q 25.390625 66.40625 21.84375 63.234375 
Q 18.3125 60.0625 18.3125 54.390625 
z
" id="DejaVuSans-56"/>
      </defs>
      <g style="fill:#262626;" transform="translate(408.641843 651.898438)scale(0.1 -0.1)">
       <use xlink:href="#DejaVuSans-50"/>
       <use x="63.623047" xlink:href="#DejaVuSans-48"/>
       <use x="127.246094" xlink:href="#DejaVuSans-49"/>
       <use x="190.869141" xlink:href="#DejaVuSans-56"/>
      </g>
     </g>
    </g>
    <g id="xtick_5">
     <g id="line2d_9">
      <path clip-path="url(#p296ccd28b3)" d="M 507.019254 640.8 
L 507.019254 86.4 
" style="fill:none;stroke:#cccccc;stroke-linecap:round;stroke-width:0.8;"/>
     </g>
     <g id="line2d_10"/>
     <g id="text_5">
      <!-- 2019 -->
      <defs>
       <path d="M 10.984375 1.515625 
L 10.984375 10.5 
Q 14.703125 8.734375 18.5 7.8125 
Q 22.3125 6.890625 25.984375 6.890625 
Q 35.75 6.890625 40.890625 13.453125 
Q 46.046875 20.015625 46.78125 33.40625 
Q 43.953125 29.203125 39.59375 26.953125 
Q 35.25 24.703125 29.984375 24.703125 
Q 19.046875 24.703125 12.671875 31.3125 
Q 6.296875 37.9375 6.296875 49.421875 
Q 6.296875 60.640625 12.9375 67.421875 
Q 19.578125 74.21875 30.609375 74.21875 
Q 43.265625 74.21875 49.921875 64.515625 
Q 56.59375 54.828125 56.59375 36.375 
Q 56.59375 19.140625 48.40625 8.859375 
Q 40.234375 -1.421875 26.421875 -1.421875 
Q 22.703125 -1.421875 18.890625 -0.6875 
Q 15.09375 0.046875 10.984375 1.515625 
z
M 30.609375 32.421875 
Q 37.25 32.421875 41.125 36.953125 
Q 45.015625 41.5 45.015625 49.421875 
Q 45.015625 57.28125 41.125 61.84375 
Q 37.25 66.40625 30.609375 66.40625 
Q 23.96875 66.40625 20.09375 61.84375 
Q 16.21875 57.28125 16.21875 49.421875 
Q 16.21875 41.5 20.09375 36.953125 
Q 23.96875 32.421875 30.609375 32.421875 
z
" id="DejaVuSans-57"/>
      </defs>
      <g style="fill:#262626;" transform="translate(494.294254 651.898438)scale(0.1 -0.1)">
       <use xlink:href="#DejaVuSans-50"/>
       <use x="63.623047" xlink:href="#DejaVuSans-48"/>
       <use x="127.246094" xlink:href="#DejaVuSans-49"/>
       <use x="190.869141" xlink:href="#DejaVuSans-57"/>
      </g>
     </g>
    </g>
    <g id="xtick_6">
     <g id="line2d_11">
      <path clip-path="url(#p296ccd28b3)" d="M 592.671664 640.8 
L 592.671664 86.4 
" style="fill:none;stroke:#cccccc;stroke-linecap:round;stroke-width:0.8;"/>
     </g>
     <g id="line2d_12"/>
     <g id="text_6">
      <!-- 2020 -->
      <g style="fill:#262626;" transform="translate(579.946664 651.898438)scale(0.1 -0.1)">
       <use xlink:href="#DejaVuSans-50"/>
       <use x="63.623047" xlink:href="#DejaVuSans-48"/>
       <use x="127.246094" xlink:href="#DejaVuSans-50"/>
       <use x="190.869141" xlink:href="#DejaVuSans-48"/>
      </g>
     </g>
    </g>
   </g>
   <g id="matplotlib.axis_2">
    <g id="ytick_1">
     <g id="line2d_13">
      <path clip-path="url(#p296ccd28b3)" d="M 90 615.614667 
L 648 615.614667 
" style="fill:none;stroke:#cccccc;stroke-linecap:round;stroke-width:0.8;"/>
     </g>
     <g id="line2d_14"/>
     <g id="text_7">
      <!-- 0 -->
      <g style="fill:#262626;" transform="translate(80.1375 619.413885)scale(0.1 -0.1)">
       <use xlink:href="#DejaVuSans-48"/>
      </g>
     </g>
    </g>
    <g id="ytick_2">
     <g id="line2d_15">
      <path clip-path="url(#p296ccd28b3)" d="M 90 542.282109 
L 648 542.282109 
" style="fill:none;stroke:#cccccc;stroke-linecap:round;stroke-width:0.8;"/>
     </g>
     <g id="line2d_16"/>
     <g id="text_8">
      <!-- 5000 -->
      <g style="fill:#262626;" transform="translate(61.05 546.081328)scale(0.1 -0.1)">
       <use xlink:href="#DejaVuSans-53"/>
       <use x="63.623047" xlink:href="#DejaVuSans-48"/>
       <use x="127.246094" xlink:href="#DejaVuSans-48"/>
       <use x="190.869141" xlink:href="#DejaVuSans-48"/>
      </g>
     </g>
    </g>
    <g id="ytick_3">
     <g id="line2d_17">
      <path clip-path="url(#p296ccd28b3)" d="M 90 468.949552 
L 648 468.949552 
" style="fill:none;stroke:#cccccc;stroke-linecap:round;stroke-width:0.8;"/>
     </g>
     <g id="line2d_18"/>
     <g id="text_9">
      <!-- 10000 -->
      <g style="fill:#262626;" transform="translate(54.6875 472.748771)scale(0.1 -0.1)">
       <use xlink:href="#DejaVuSans-49"/>
       <use x="63.623047" xlink:href="#DejaVuSans-48"/>
       <use x="127.246094" xlink:href="#DejaVuSans-48"/>
       <use x="190.869141" xlink:href="#DejaVuSans-48"/>
       <use x="254.492188" xlink:href="#DejaVuSans-48"/>
      </g>
     </g>
    </g>
    <g id="ytick_4">
     <g id="line2d_19">
      <path clip-path="url(#p296ccd28b3)" d="M 90 395.616995 
L 648 395.616995 
" style="fill:none;stroke:#cccccc;stroke-linecap:round;stroke-width:0.8;"/>
     </g>
     <g id="line2d_20"/>
     <g id="text_10">
      <!-- 15000 -->
      <g style="fill:#262626;" transform="translate(54.6875 399.416213)scale(0.1 -0.1)">
       <use xlink:href="#DejaVuSans-49"/>
       <use x="63.623047" xlink:href="#DejaVuSans-53"/>
       <use x="127.246094" xlink:href="#DejaVuSans-48"/>
       <use x="190.869141" xlink:href="#DejaVuSans-48"/>
       <use x="254.492188" xlink:href="#DejaVuSans-48"/>
      </g>
     </g>
    </g>
    <g id="ytick_5">
     <g id="line2d_21">
      <path clip-path="url(#p296ccd28b3)" d="M 90 322.284437 
L 648 322.284437 
" style="fill:none;stroke:#cccccc;stroke-linecap:round;stroke-width:0.8;"/>
     </g>
     <g id="line2d_22"/>
     <g id="text_11">
      <!-- 20000 -->
      <g style="fill:#262626;" transform="translate(54.6875 326.083656)scale(0.1 -0.1)">
       <use xlink:href="#DejaVuSans-50"/>
       <use x="63.623047" xlink:href="#DejaVuSans-48"/>
       <use x="127.246094" xlink:href="#DejaVuSans-48"/>
       <use x="190.869141" xlink:href="#DejaVuSans-48"/>
       <use x="254.492188" xlink:href="#DejaVuSans-48"/>
      </g>
     </g>
    </g>
    <g id="ytick_6">
     <g id="line2d_23">
      <path clip-path="url(#p296ccd28b3)" d="M 90 248.95188 
L 648 248.95188 
" style="fill:none;stroke:#cccccc;stroke-linecap:round;stroke-width:0.8;"/>
     </g>
     <g id="line2d_24"/>
     <g id="text_12">
      <!-- 25000 -->
      <g style="fill:#262626;" transform="translate(54.6875 252.751099)scale(0.1 -0.1)">
       <use xlink:href="#DejaVuSans-50"/>
       <use x="63.623047" xlink:href="#DejaVuSans-53"/>
       <use x="127.246094" xlink:href="#DejaVuSans-48"/>
       <use x="190.869141" xlink:href="#DejaVuSans-48"/>
       <use x="254.492188" xlink:href="#DejaVuSans-48"/>
      </g>
     </g>
    </g>
    <g id="ytick_7">
     <g id="line2d_25">
      <path clip-path="url(#p296ccd28b3)" d="M 90 175.619323 
L 648 175.619323 
" style="fill:none;stroke:#cccccc;stroke-linecap:round;stroke-width:0.8;"/>
     </g>
     <g id="line2d_26"/>
     <g id="text_13">
      <!-- 30000 -->
      <defs>
       <path d="M 40.578125 39.3125 
Q 47.65625 37.796875 51.625 33 
Q 55.609375 28.21875 55.609375 21.1875 
Q 55.609375 10.40625 48.1875 4.484375 
Q 40.765625 -1.421875 27.09375 -1.421875 
Q 22.515625 -1.421875 17.65625 -0.515625 
Q 12.796875 0.390625 7.625 2.203125 
L 7.625 11.71875 
Q 11.71875 9.328125 16.59375 8.109375 
Q 21.484375 6.890625 26.8125 6.890625 
Q 36.078125 6.890625 40.9375 10.546875 
Q 45.796875 14.203125 45.796875 21.1875 
Q 45.796875 27.640625 41.28125 31.265625 
Q 36.765625 34.90625 28.71875 34.90625 
L 20.21875 34.90625 
L 20.21875 43.015625 
L 29.109375 43.015625 
Q 36.375 43.015625 40.234375 45.921875 
Q 44.09375 48.828125 44.09375 54.296875 
Q 44.09375 59.90625 40.109375 62.90625 
Q 36.140625 65.921875 28.71875 65.921875 
Q 24.65625 65.921875 20.015625 65.03125 
Q 15.375 64.15625 9.8125 62.3125 
L 9.8125 71.09375 
Q 15.4375 72.65625 20.34375 73.4375 
Q 25.25 74.21875 29.59375 74.21875 
Q 40.828125 74.21875 47.359375 69.109375 
Q 53.90625 64.015625 53.90625 55.328125 
Q 53.90625 49.265625 50.4375 45.09375 
Q 46.96875 40.921875 40.578125 39.3125 
z
" id="DejaVuSans-51"/>
      </defs>
      <g style="fill:#262626;" transform="translate(54.6875 179.418541)scale(0.1 -0.1)">
       <use xlink:href="#DejaVuSans-51"/>
       <use x="63.623047" xlink:href="#DejaVuSans-48"/>
       <use x="127.246094" xlink:href="#DejaVuSans-48"/>
       <use x="190.869141" xlink:href="#DejaVuSans-48"/>
       <use x="254.492188" xlink:href="#DejaVuSans-48"/>
      </g>
     </g>
    </g>
    <g id="ytick_8">
     <g id="line2d_27">
      <path clip-path="url(#p296ccd28b3)" d="M 90 102.286765 
L 648 102.286765 
" style="fill:none;stroke:#cccccc;stroke-linecap:round;stroke-width:0.8;"/>
     </g>
     <g id="line2d_28"/>
     <g id="text_14">
      <!-- 35000 -->
      <g style="fill:#262626;" transform="translate(54.6875 106.085984)scale(0.1 -0.1)">
       <use xlink:href="#DejaVuSans-51"/>
       <use x="63.623047" xlink:href="#DejaVuSans-53"/>
       <use x="127.246094" xlink:href="#DejaVuSans-48"/>
       <use x="190.869141" xlink:href="#DejaVuSans-48"/>
       <use x="254.492188" xlink:href="#DejaVuSans-48"/>
      </g>
     </g>
    </g>
   </g>
   <g id="line2d_29">
    <path clip-path="url(#p296ccd28b3)" d="M 115.363636 615.6 
L 115.408462 615.497334 
L 117.988795 615.01334 
L 118.632975 614.778675 
L 118.633105 614.764009 
L 119.749982 614.588011 
L 119.825949 614.544011 
L 120.502395 614.397346 
L 120.546449 614.368013 
L 120.822055 614.250681 
L 120.908628 614.221348 
L 121.001882 614.177348 
L 122.613216 614.016017 
L 122.851715 613.986684 
L 124.896574 613.502689 
L 125.513477 613.385357 
L 126.216864 613.224025 
L 126.389592 613.12136 
L 127.004099 612.842696 
L 127.734054 612.666698 
L 128.256198 612.520033 
L 128.26241 612.505366 
L 129.155562 612.329368 
L 129.243898 612.270702 
L 129.960376 612.094704 
L 129.964754 612.080037 
L 131.536912 611.801374 
L 131.782557 611.757374 
L 132.71945 611.581376 
L 133.130238 611.434711 
L 133.210716 611.376045 
L 134.509946 611.170714 
L 134.615892 611.082714 
L 135.559039 610.862717 
L 136.151769 610.730718 
L 136.522096 610.496054 
L 136.937707 610.408055 
L 137.472972 610.290723 
L 137.61895 610.232057 
L 138.061118 610.070725 
L 138.134681 609.982726 
L 139.228556 609.689396 
L 139.297073 609.660063 
L 139.738502 609.513398 
L 139.77371 609.469398 
L 141.380146 609.190734 
L 142.292444 608.941404 
L 143.040791 608.574741 
L 143.048893 608.560074 
L 143.305343 608.428076 
L 143.374976 608.398743 
L 144.034814 608.266744 
L 144.197167 608.149412 
L 144.220706 608.07608 
L 144.64 607.944081 
L 144.770633 607.680084 
L 144.895124 607.533419 
L 144.927393 607.460086 
L 145.834832 607.269421 
L 146.741629 606.756094 
L 147.238623 606.624095 
L 147.322866 606.506763 
L 147.567856 606.374764 
L 147.750058 606.316098 
L 148.167646 606.1841 
L 148.184097 606.169433 
L 148.882649 606.037435 
L 151.462855 604.849447 
L 151.481796 604.805448 
L 152.383824 604.673449 
L 152.596171 604.482784 
L 152.956671 604.233454 
L 153.788577 603.998789 
L 154.794222 603.309463 
L 155.452933 603.133465 
L 155.588348 602.957467 
L 156.04726 602.678803 
L 157.069424 602.502805 
L 157.190433 602.429473 
L 158.257403 602.004144 
L 158.963997 601.872145 
L 159.250263 601.72548 
L 159.346565 601.564149 
L 159.690505 601.358817 
L 159.77072 601.300151 
L 160.556758 601.065487 
L 160.659255 600.830823 
L 160.890883 600.684158 
L 161.012846 600.596159 
L 161.231263 600.434827 
L 162.202908 600.082831 
L 162.258505 599.950832 
L 162.276393 599.760168 
L 163.889538 599.525503 
L 164.037001 599.466837 
L 165.830009 598.90951 
L 165.921232 598.821511 
L 166.039737 598.660179 
L 166.053855 598.557514 
L 166.433889 598.410849 
L 166.96511 598.220184 
L 167.287754 597.970853 
L 167.387712 597.897521 
L 167.526598 597.677523 
L 167.664613 597.545524 
L 167.789772 597.472192 
L 167.90086 597.325527 
L 167.927355 597.222861 
L 168.661753 597.076196 
L 168.818462 596.885531 
L 168.918586 596.768199 
L 169.076245 596.562868 
L 169.183308 596.43087 
L 169.502109 596.210872 
L 169.602925 596.064207 
L 169.965527 596.034874 
L 170.27436 595.902875 
L 170.942496 595.066884 
L 171.041522 594.861553 
L 171.404657 594.700221 
L 172.069199 594.45089 
L 172.141293 594.318892 
L 172.39828 593.878897 
L 172.584048 593.746898 
L 172.709802 593.556233 
L 173.540823 593.27757 
L 173.708665 593.18957 
L 173.990924 592.910907 
L 174.039036 592.764242 
L 174.281576 592.632243 
L 175.597858 592.01625 
L 175.703581 591.722919 
L 175.894947 591.502922 
L 176.062452 591.356257 
L 176.254969 591.209591 
L 176.850557 590.974927 
L 176.887065 590.901595 
L 177.258234 590.769596 
L 177.403251 590.681597 
L 177.496606 590.520265 
L 177.655069 590.241602 
L 177.832224 590.021604 
L 178.448098 589.889605 
L 178.556799 589.728274 
L 179.21133 589.15628 
L 180.044713 588.936282 
L 180.157026 588.745618 
L 180.34661 588.613619 
L 180.450237 588.496287 
L 180.557737 588.349622 
L 180.893521 587.733628 
L 181.06041 587.586963 
L 181.217974 587.513631 
L 182.013054 587.132301 
L 182.932416 585.856315 
L 183.359461 585.680317 
L 183.483887 585.489652 
L 183.618835 585.284321 
L 183.72931 584.990991 
L 183.853858 584.800326 
L 184.022197 584.609661 
L 184.26986 584.286998 
L 184.551525 583.759004 
L 184.988915 583.612338 
L 185.149769 583.407007 
L 185.242907 583.275009 
L 185.403239 583.055011 
L 185.690694 582.717681 
L 185.775138 582.585683 
L 186.475214 582.307019 
L 186.512239 582.248353 
L 186.683522 582.116354 
L 186.736628 582.028355 
L 186.876924 581.896357 
L 187.072521 581.559027 
L 187.337064 581.236364 
L 187.637239 580.796368 
L 188.242765 580.635037 
L 188.439277 580.473705 
L 188.658745 580.297707 
L 188.728959 580.195041 
L 188.849936 580.063043 
L 189.289081 579.461716 
L 189.50397 579.40305 
L 189.912376 579.271051 
L 190.067917 579.02172 
L 190.398291 578.757723 
L 190.531653 578.567059 
L 190.97614 577.951065 
L 191.445411 577.819066 
L 191.59256 577.584402 
L 192.610608 576.117751 
L 193.157949 575.95642 
L 193.266288 575.692422 
L 193.369171 575.633756 
L 193.467135 575.487091 
L 194.395933 574.167105 
L 194.904592 574.005773 
L 194.986186 573.873775 
L 195.117036 573.712443 
L 195.218034 573.551112 
L 195.332118 573.375113 
L 195.464529 573.008451 
L 195.626333 572.75912 
L 195.980375 572.201793 
L 196.550937 571.747131 
L 196.714249 571.556466 
L 196.763588 571.365801 
L 196.862139 571.16047 
L 196.997348 570.999139 
L 197.170847 570.837807 
L 197.395166 570.603143 
L 197.693434 570.045815 
L 197.89163 569.89915 
L 198.007175 569.811151 
L 198.377884 569.503154 
L 198.654372 569.136492 
L 198.862479 568.872494 
L 198.99403 568.652497 
L 199.815498 568.109836 
L 199.94637 567.963171 
L 200.987094 566.49652 
L 201.417114 566.349854 
L 201.585808 565.763194 
L 201.644697 565.616529 
L 201.757176 565.308532 
L 201.868603 565.161867 
L 202.069871 564.839204 
L 202.419301 564.413875 
L 202.433152 564.369875 
L 203.10264 564.252543 
L 203.260042 564.076545 
L 204.345149 562.257898 
L 204.895412 561.979234 
L 204.993604 561.70057 
L 205.345541 561.128576 
L 205.450156 560.952578 
L 205.64505 560.644582 
L 205.760606 560.365918 
L 206.187219 560.204586 
L 206.389389 560.013922 
L 207.171293 558.899267 
L 207.945329 558.693936 
L 208.284847 557.989943 
L 208.406015 557.813945 
L 209.042272 557.007287 
L 209.610453 556.801956 
L 209.727921 556.581958 
L 209.853498 556.259295 
L 209.982795 555.965964 
L 210.104595 555.819299 
L 210.699001 554.821976 
L 211.259588 554.675311 
L 211.37715 554.455314 
L 211.748468 554.103317 
L 211.921552 553.912653 
L 212.020269 553.721988 
L 212.113363 553.575323 
L 212.2212 553.443324 
L 212.345322 553.296659 
L 212.516662 553.237993 
L 212.868582 553.105995 
L 213.023857 552.856664 
L 213.163988 552.695332 
L 214.155837 551.624677 
L 214.486505 551.492678 
L 214.657769 551.199348 
L 215.827914 549.864696 
L 216.526855 549.322035 
L 217.279793 548.104714 
L 217.479475 548.060715 
L 217.795416 547.928716 
L 219.056915 546.579397 
L 219.524505 546.432732 
L 219.619098 546.330066 
L 219.76799 546.198068 
L 219.877761 546.02207 
L 220.668411 545.112746 
L 221.088166 544.966081 
L 221.425192 544.394087 
L 221.605881 544.100757 
L 222.002191 543.79276 
L 222.85959 543.426097 
L 223.043611 543.264765 
L 223.158836 543.132767 
L 223.87282 542.164777 
L 224.454127 541.974112 
L 224.898669 541.402118 
L 225.022791 541.123455 
L 225.166268 540.815458 
L 225.304364 540.683459 
L 225.387241 540.536794 
L 225.725499 540.30213 
L 226.035758 540.155465 
L 226.165541 539.744803 
L 226.297911 539.510139 
L 226.428125 539.231475 
L 226.580633 538.967478 
L 226.764225 538.732813 
L 226.843747 538.542149 
L 227.012526 538.366151 
L 227.093184 538.160819 
L 227.58157 538.014154 
L 227.712061 537.838156 
L 227.713036 537.82349 
L 227.911969 537.691491 
L 228.475928 536.210173 
L 228.656707 536.019509 
L 228.765353 535.828844 
L 229.344213 535.638179 
L 229.463186 535.227517 
L 229.807493 534.802188 
L 229.976951 534.611524 
L 230.079646 534.464859 
L 230.353809 533.936864 
L 230.43404 533.848865 
L 230.934462 533.716866 
L 231.021763 533.570201 
L 232.086633 531.634222 
L 232.604909 531.399558 
L 233.042865 530.519567 
L 233.122879 530.372902 
L 233.23809 530.152904 
L 233.336689 530.006239 
L 233.461257 529.786241 
L 234.021612 529.258247 
L 234.262211 529.126248 
L 235.378772 527.498266 
L 235.892622 527.292934 
L 236.165946 526.882272 
L 236.316522 526.632941 
L 236.43861 526.442277 
L 236.68624 526.046281 
L 236.885286 525.811617 
L 236.941543 525.738284 
L 237.206578 525.591619 
L 237.332343 525.50362 
L 237.53913 525.356955 
L 237.631825 525.180957 
L 237.859639 524.990292 
L 237.965768 524.814294 
L 238.163081 524.491631 
L 238.317245 524.256967 
L 238.470035 524.036969 
L 238.557211 523.875637 
L 238.641077 523.787638 
L 239.006582 523.626307 
L 239.116391 523.567641 
L 239.322404 523.27431 
L 240.225722 521.660994 
L 240.77554 521.455663 
L 240.941863 521.030334 
L 241.043972 520.898335 
L 241.165155 520.766337 
L 241.296557 520.634338 
L 241.779161 520.062344 
L 242.306965 519.769014 
L 242.472322 519.622349 
L 242.700231 519.255686 
L 242.979891 518.874357 
L 243.125831 518.581027 
L 243.330027 518.22903 
L 243.629822 517.9797 
L 244.086485 517.789035 
L 244.174479 517.671703 
L 244.3018 517.539704 
L 244.454123 517.143709 
L 244.580293 516.982377 
L 244.772185 516.689047 
L 244.862688 516.542382 
L 245.354923 515.882389 
L 245.754999 515.721057 
L 245.849872 515.501059 
L 245.997232 515.369061 
L 246.231701 515.046397 
L 246.38008 514.723734 
L 246.65508 514.283739 
L 247.691228 513.374415 
L 247.793103 513.213083 
L 248.068988 512.949086 
L 248.142147 512.905087 
L 248.954764 512.626423 
L 249.950269 512.039763 
L 250.617058 511.893097 
L 251.15691 511.365103 
L 251.263136 511.247771 
L 251.524515 511.115772 
L 251.689481 510.925108 
L 251.873535 510.837109 
L 252.295621 510.66111 
L 252.367801 510.485112 
L 252.861438 509.766453 
L 252.989735 509.561122 
L 253.343858 509.238459 
L 253.438199 509.121127 
L 253.91269 508.930462 
L 254.45591 508.461134 
L 254.599998 508.22647 
L 254.736999 508.079804 
L 254.844904 507.918473 
L 254.942092 507.757141 
L 255.029879 507.537144 
L 255.553351 507.346479 
L 255.686672 507.141148 
L 255.793716 506.979816 
L 255.91997 506.833151 
L 256.147013 506.525154 
L 256.252449 506.378489 
L 256.715397 505.835828 
L 257.096892 505.689163 
L 258.415295 503.298522 
L 258.910653 503.034525 
L 259.066604 502.682528 
L 259.155377 502.521197 
L 259.383097 502.081201 
L 259.920144 500.629217 
L 260.36091 500.409219 
L 260.492553 500.247887 
L 260.7116 500.042556 
L 260.798453 499.895891 
L 260.875764 499.69056 
L 261.010001 499.558561 
L 261.163885 499.074566 
L 261.314744 498.634571 
L 261.435286 498.487906 
L 261.541352 498.018578 
L 261.642041 497.871912 
L 261.781967 497.739914 
L 261.861392 497.695914 
L 262.120625 497.534583 
L 262.382449 497.12392 
L 262.499287 496.595926 
L 262.630495 496.053265 
L 262.715892 495.715935 
L 263.007091 494.894611 
L 263.519432 494.234618 
L 263.766742 494.073286 
L 263.846387 493.911954 
L 264.481278 492.401304 
L 264.612038 492.063974 
L 264.855769 491.506646 
L 265.059511 491.345315 
L 265.131217 491.271982 
L 265.391658 491.110651 
L 265.501095 490.919986 
L 265.606751 490.714655 
L 266.493586 489.482668 
L 266.518592 489.394669 
L 266.896524 489.248004 
L 267.007449 489.189338 
L 267.221004 488.984007 
L 267.375904 488.690676 
L 267.595752 488.309347 
L 267.676203 488.148015 
L 267.784904 488.00135 
L 268.169066 487.07736 
L 268.345849 486.989361 
L 268.686826 486.798696 
L 268.814053 486.534699 
L 268.924513 486.432034 
L 269.30053 485.581376 
L 269.400447 485.464044 
L 269.662706 485.170714 
L 269.779419 484.906716 
L 270.555139 484.452054 
L 271.742909 482.692073 
L 272.065072 482.501408 
L 272.223231 482.281411 
L 272.307941 482.120079 
L 272.387974 481.944081 
L 272.51944 481.797416 
L 272.619925 481.548085 
L 272.777251 481.372087 
L 273.036715 480.888092 
L 273.080782 480.829426 
L 273.633142 480.697428 
L 273.860179 480.448097 
L 273.970037 480.257432 
L 274.085079 480.066768 
L 274.983495 478.629449 
L 275.239325 478.497451 
L 275.380045 478.24812 
L 276.444179 476.576138 
L 276.985925 476.297474 
L 277.126761 476.004144 
L 277.228642 475.842812 
L 277.457059 475.461483 
L 277.586774 475.241485 
L 278.002987 474.654825 
L 278.559318 474.493493 
L 279.094333 473.848167 
L 279.215929 473.598836 
L 279.334266 473.466837 
L 279.41321 473.232173 
L 279.574745 473.070842 
L 279.643719 472.894843 
L 280.187944 472.674846 
L 280.326811 472.381516 
L 280.725477 471.618857 
L 280.82971 471.384193 
L 281.010776 471.237528 
L 281.101496 471.105529 
L 281.239104 470.97353 
L 281.348771 470.826865 
L 281.746366 470.636201 
L 282.02805 470.122873 
L 282.147349 469.961541 
L 282.284505 469.741543 
L 282.618394 468.876219 
L 282.800831 468.45089 
L 282.860223 468.304225 
L 282.986023 468.142894 
L 283.435296 467.952229 
L 283.533497 467.761564 
L 283.66209 467.350902 
L 284.344028 465.253591 
L 284.460165 465.121592 
L 284.717565 464.578931 
L 284.84481 464.402933 
L 284.984142 464.314934 
L 285.151313 464.182936 
L 285.257048 464.065604 
L 285.428347 463.874939 
L 285.741863 463.214946 
L 285.962445 462.672285 
L 286.135012 462.510953 
L 286.356075 462.085624 
L 286.746918 461.924293 
L 287.660286 460.076312 
L 287.823299 459.856315 
L 287.942282 459.694983 
L 288.481578 459.313654 
L 288.551029 458.946991 
L 288.861122 458.242998 
L 288.961392 458.008334 
L 289.066331 457.509673 
L 289.239133 457.201676 
L 289.566769 456.409685 
L 290.04757 455.969689 
L 290.685929 454.737702 
L 290.769667 454.605704 
L 290.870507 454.297707 
L 291.010749 454.03371 
L 292.239705 452.611058 
L 292.439718 452.200396 
L 292.535004 451.892399 
L 292.718659 451.349738 
L 292.780204 451.12974 
L 292.912034 451.027075 
L 293.120154 450.909743 
L 293.287334 450.763078 
L 294.017986 449.795088 
L 294.135984 449.472425 
L 294.195378 449.135095 
L 294.441457 448.680433 
L 294.773423 448.519101 
L 295.078837 448.167105 
L 295.206864 448.035107 
L 295.286093 447.888441 
L 295.803178 447.037784 
L 295.981101 446.80312 
L 296.139453 446.451123 
L 296.526212 446.275125 
L 296.716681 446.025794 
L 296.872439 445.79113 
L 297.006763 445.4538 
L 297.179814 445.101804 
L 297.310786 444.588476 
L 297.412965 444.441811 
L 297.505465 444.148481 
L 297.665724 443.94315 
L 297.774066 443.796485 
L 298.301965 443.473821 
L 298.424691 443.26849 
L 298.627322 443.151158 
L 298.80401 442.887161 
L 299.307183 442.036503 
L 299.400294 441.948504 
L 299.953213 441.728507 
L 300.397912 440.907182 
L 301.15707 439.557863 
L 301.656584 439.1912 
L 301.77651 439.029868 
L 301.849112 438.868537 
L 302.220234 437.988546 
L 302.308404 437.856548 
L 302.411254 437.63655 
L 302.583195 437.401886 
L 302.648352 437.123222 
L 303.021577 436.932557 
L 303.218782 436.683227 
L 303.295569 436.521895 
L 303.390361 436.345897 
L 303.508467 436.184565 
L 303.620017 435.920568 
L 303.787101 435.304575 
L 304.019603 434.717914 
L 304.123846 434.468583 
L 304.217707 434.204586 
L 304.268991 434.131254 
L 304.528267 433.984589 
L 304.651349 433.823257 
L 304.880888 433.617926 
L 305.355437 431.813945 
L 305.430516 431.652613 
L 305.605636 431.256617 
L 305.892853 430.625957 
L 305.991955 430.420626 
L 306.539385 430.200629 
L 307.69644 427.604656 
L 308.395942 427.076662 
L 308.64348 426.739332 
L 308.694487 426.563334 
L 308.817064 426.343336 
L 308.931797 426.123338 
L 309.264995 425.31668 
L 309.798297 425.06735 
L 310.249941 424.026027 
L 310.319164 423.835363 
L 310.446529 423.087371 
L 310.550727 422.83804 
L 311.361054 421.356722 
L 311.490559 421.224724 
L 311.62076 420.960726 
L 311.712513 420.799395 
L 311.852398 420.535398 
L 311.940389 420.403399 
L 312.050668 420.080736 
L 312.184494 419.831405 
L 312.299651 419.200745 
L 312.461488 418.995414 
L 312.655371 418.643418 
L 313.054851 418.364754 
L 313.27798 417.910092 
L 313.411481 417.514096 
L 314.149136 415.548784 
L 314.314169 415.402118 
L 314.39112 415.358119 
L 314.700662 415.211454 
L 314.840841 414.551461 
L 315.01179 414.067466 
L 315.331903 412.967478 
L 315.433645 412.131486 
L 315.502268 411.82349 
L 315.682761 411.339495 
L 315.79625 411.14883 
L 316.160093 410.870166 
L 316.320371 410.708835 
L 316.500769 410.063508 
L 316.652084 409.916843 
L 316.769669 409.638179 
L 317.036428 409.080852 
L 317.190926 408.420859 
L 317.354039 407.99553 
L 317.451648 407.775533 
L 318.023954 407.086206 
L 318.17506 406.646211 
L 318.328528 406.367547 
L 318.422025 406.132883 
L 318.49656 405.971552 
L 318.672904 405.634222 
L 318.865108 405.150227 
L 318.934388 405.003562 
L 319.299457 404.328902 
L 319.58462 404.196904 
L 320.869072 401.776929 
L 321.140516 401.571598 
L 321.582288 401.014271 
L 321.695736 400.691607 
L 322.052363 399.928949 
L 322.135981 399.811617 
L 322.261518 399.664952 
L 322.342062 399.459621 
L 322.414175 399.356955 
L 322.629678 399.195623 
L 322.730374 399.136957 
L 323.063842 398.608963 
L 323.178213 398.432965 
L 323.288112 398.271633 
L 323.417582 398.080968 
L 323.731295 397.479641 
L 323.840974 397.31831 
L 323.959639 397.098312 
L 324.286836 396.834315 
L 324.575331 396.702316 
L 324.746718 396.39432 
L 324.856926 396.188988 
L 324.917748 395.968991 
L 325.635682 393.666349 
L 325.820553 393.519683 
L 325.921489 393.299686 
L 326.178044 393.094355 
L 326.48563 392.56636 
L 326.61412 392.287696 
L 327.072264 391.30504 
L 327.933709 390.513049 
L 328.342793 389.691724 
L 328.430798 389.530392 
L 328.46021 389.046397 
L 328.559236 388.533069 
L 328.590972 388.371738 
L 328.800456 387.257083 
L 328.930942 386.509091 
L 329.037845 386.201094 
L 329.199497 386.098429 
L 329.450748 385.863764 
L 329.533833 385.687766 
L 329.647363 385.365103 
L 329.811731 385.145105 
L 329.922205 384.543778 
L 330.05243 384.265115 
L 330.310566 383.73712 
L 330.432377 383.531789 
L 330.534529 382.871796 
L 331.247346 382.13847 
L 332.001153 381.126481 
L 332.110535 380.96515 
L 332.902891 380.407822 
L 333.019742 380.319823 
L 333.155247 380.129158 
L 333.442197 379.747829 
L 333.598377 379.527831 
L 333.925394 379.190502 
L 334.783037 378.941171 
L 334.865786 378.838505 
L 335.215226 378.662507 
L 336.369687 378.339844 
L 336.503619 378.134513 
L 336.622171 377.987848 
L 337.090706 377.709184 
L 337.408043 377.489186 
L 337.632199 377.357188 
L 337.825226 377.063858 
L 338.415513 376.227866 
L 338.895843 375.509207 
L 339.343346 375.318543 
L 339.497474 375.083878 
L 339.612484 374.922547 
L 339.898929 374.394552 
L 340.027155 374.218554 
L 340.189899 373.998557 
L 340.320882 373.851892 
L 340.575026 373.64656 
L 340.967719 373.426563 
L 341.194696 373.147899 
L 341.297386 372.971901 
L 341.560463 372.033244 
L 341.663663 371.871912 
L 341.807186 371.622582 
L 342.049382 371.197253 
L 342.942928 370.566593 
L 343.055053 370.331929 
L 343.282819 370.023932 
L 343.440571 369.847934 
L 343.610227 369.701269 
L 344.021878 369.437272 
L 344.352426 369.143941 
L 344.422162 368.967943 
L 344.607737 368.821278 
L 344.748758 368.703946 
L 344.84207 368.557281 
L 344.965736 368.483948 
L 345.267958 368.234618 
L 345.394582 368.102619 
L 345.951961 367.926621 
L 346.129833 367.706623 
L 346.261628 367.559958 
L 346.3751 367.427959 
L 346.533512 367.163962 
L 346.731537 366.797299 
L 346.867868 366.591968 
L 347.179346 366.298638 
L 347.523243 366.151973 
L 347.650337 366.005308 
L 347.806283 365.858643 
L 348.493723 364.831987 
L 348.618 364.670655 
L 348.834899 364.582656 
L 349.174182 364.450658 
L 349.31413 364.201327 
L 349.428005 363.981329 
L 349.50599 363.805331 
L 349.804969 363.174671 
L 349.992271 362.734676 
L 350.717457 361.898685 
L 350.8745 361.737353 
L 351.954634 359.390711 
L 352.454919 359.200047 
L 352.593154 358.921383 
L 352.659487 358.745385 
L 353.692368 356.765406 
L 354.345229 356.07608 
L 355.247146 354.594762 
L 355.805679 354.316098 
L 355.918983 354.125434 
L 356.022439 353.993435 
L 356.309324 353.392108 
L 356.648256 352.981446 
L 357.385474 352.365452 
L 357.513279 352.189454 
L 357.79163 351.793458 
L 358.105417 351.412129 
L 358.574175 350.722803 
L 359.132181 350.385473 
L 359.296072 350.150809 
L 359.424865 349.886812 
L 359.64835 349.652148 
L 359.753504 349.549482 
L 360.029362 349.270818 
L 360.101893 349.109487 
L 360.822002 348.992155 
L 361.159818 348.640158 
L 361.282623 348.537493 
L 361.433063 348.302829 
L 361.585845 348.12683 
L 362.424074 347.408171 
L 362.56858 347.24684 
L 362.976757 346.806844 
L 363.185214 346.454848 
L 363.592215 345.94152 
L 364.081865 345.765522 
L 364.22652 345.413526 
L 365.03739 344.38687 
L 365.606144 344.254871 
L 365.811812 343.932208 
L 365.935975 343.785543 
L 366.180949 343.580212 
L 366.261734 343.46288 
L 366.402316 343.316215 
L 366.527633 343.16955 
L 366.678222 342.949552 
L 366.813545 342.846886 
L 367.266352 342.597556 
L 367.478536 342.230893 
L 367.649042 342.054895 
L 368.069248 341.424235 
L 368.225729 341.27757 
L 368.45997 341.013572 
L 368.864157 340.808241 
L 368.972227 340.64691 
L 369.933294 339.429589 
L 369.976652 339.356257 
L 370.768318 339.106926 
L 370.86446 338.960261 
L 370.970765 338.813596 
L 371.118785 338.578931 
L 371.281779 338.329601 
L 371.412963 338.168269 
L 371.601693 337.860272 
L 371.889985 337.581609 
L 372.22097 337.405611 
L 372.335793 337.068281 
L 372.503366 336.745618 
L 372.618718 336.52562 
L 372.727951 336.276289 
L 373.161441 335.55763 
L 373.638779 335.146968 
L 373.835229 334.985636 
L 373.973235 334.648306 
L 374.093726 334.442975 
L 374.250617 334.134978 
L 374.369445 333.95898 
L 374.667197 333.357653 
L 374.83524 333.152322 
L 375.065437 332.858992 
L 375.485485 332.712327 
L 375.598189 332.462996 
L 375.847398 332.023001 
L 375.979472 331.891002 
L 376.809309 330.820347 
L 377.131738 330.673682 
L 377.230306 330.468351 
L 377.481594 330.321685 
L 377.602639 330.072355 
L 377.853078 329.58836 
L 377.944111 329.441695 
L 378.194457 328.987033 
L 378.748246 328.649703 
L 379.061463 328.28304 
L 379.356756 328.03371 
L 379.47712 327.960377 
L 379.675014 327.740379 
L 379.830661 327.315051 
L 380.385609 327.051053 
L 380.622221 326.699057 
L 380.708283 326.552392 
L 380.791198 326.449726 
L 380.921953 326.288395 
L 381.098024 326.083064 
L 381.227603 325.936399 
L 381.437839 325.613735 
L 382.157481 325.056408 
L 383.229201 323.003096 
L 383.765865 322.577767 
L 383.826209 322.445769 
L 384.022626 322.31377 
L 384.204247 321.947107 
L 384.487579 321.34578 
L 384.595068 321.243115 
L 384.733664 320.935118 
L 384.915961 320.773787 
L 385.413886 320.509789 
L 385.612949 320.099127 
L 385.693248 319.923129 
L 385.866046 319.747131 
L 386.027918 319.365801 
L 386.227486 319.116471 
L 386.336648 318.984472 
L 386.704669 318.764474 
L 386.95538 318.603143 
L 387.253544 318.075148 
L 388.317143 316.711163 
L 388.599612 316.505832 
L 388.900349 316.036503 
L 389.067661 315.684507 
L 389.188866 315.391177 
L 389.389075 315.039181 
L 390.072922 314.305855 
L 390.266675 314.056524 
L 390.425416 313.880526 
L 390.681259 313.455197 
L 391.182982 312.736538 
L 391.327971 312.428541 
L 391.870211 312.047212 
L 391.985509 311.944547 
L 392.195473 311.63655 
L 392.452436 311.123222 
L 392.547603 310.917891 
L 392.649114 310.697893 
L 393.021828 309.803236 
L 393.170014 309.715237 
L 393.565507 309.509906 
L 393.719595 309.348574 
L 393.894911 309.011244 
L 394.155163 308.556582 
L 394.264046 308.409917 
L 394.599613 307.544593 
L 394.692552 307.383262 
L 395.171971 307.192597 
L 395.247107 307.016599 
L 395.371489 306.825934 
L 395.510207 306.664602 
L 396.144374 305.637947 
L 396.243201 305.447282 
L 396.349887 305.359283 
L 396.712856 305.197951 
L 396.910617 304.948621 
L 397.208858 304.420626 
L 397.329645 304.288628 
L 398.163868 303.496636 
L 398.505709 303.364637 
L 399.018387 302.440647 
L 399.221013 302.22065 
L 400.006136 301.663322 
L 400.187566 301.531323 
L 400.379515 301.296659 
L 400.705001 300.724665 
L 400.804358 300.622 
L 401.170404 300.108672 
L 401.183091 300.079339 
L 401.815858 299.932674 
L 401.876159 299.786009 
L 401.996436 299.65401 
L 402.559024 298.759353 
L 402.729058 298.422023 
L 403.388377 298.05536 
L 403.618527 297.747364 
L 403.838848 297.263369 
L 403.937342 297.087371 
L 404.011109 296.911372 
L 404.149895 296.603376 
L 404.413511 296.310045 
L 404.510066 296.192713 
L 405.259155 295.694052 
L 405.410337 295.268723 
L 405.682322 295.136724 
L 405.786088 294.975393 
L 405.931199 294.667396 
L 406.074781 294.491398 
L 406.187309 294.300733 
L 406.782943 294.051403 
L 406.852389 293.934071 
L 406.993815 293.787405 
L 407.659924 292.892748 
L 407.726589 292.746083 
L 407.833874 292.555418 
L 408.310471 292.394087 
L 408.607003 291.866092 
L 408.807695 291.572762 
L 408.965211 291.411431 
L 409.11092 291.132767 
L 409.35078 290.780771 
L 409.439042 290.692772 
L 409.677123 290.53144 
L 409.788836 290.428774 
L 409.960048 290.23811 
L 410.136657 289.812781 
L 410.420109 289.152788 
L 410.506191 288.991456 
L 410.636832 288.830125 
L 410.865154 288.434129 
L 410.994781 288.243464 
L 411.098346 288.111465 
L 411.387393 287.950134 
L 411.513332 287.906134 
L 411.646273 287.700803 
L 411.895319 286.967478 
L 412.163697 286.439483 
L 412.28642 286.131486 
L 412.573387 285.77949 
L 412.672798 285.691491 
L 413.226706 285.530159 
L 414.175013 283.975509 
L 414.283817 283.770178 
L 414.964674 283.183518 
L 415.114134 282.96352 
L 415.443465 282.640857 
L 415.561878 282.420859 
L 415.8138 282.259527 
L 415.92215 282.127529 
L 416.379783 281.907531 
L 416.553975 281.687533 
L 416.735367 281.482202 
L 416.888637 281.232872 
L 417.07258 281.042207 
L 417.413758 280.616878 
L 418.174211 280.132883 
L 418.30011 279.898219 
L 418.628672 279.443557 
L 418.742001 279.267559 
L 418.973335 279.062228 
L 419.166984 278.856897 
L 419.340883 278.636899 
L 420.391613 278.196904 
L 420.500414 278.094238 
L 420.647737 278.006239 
L 421.092773 277.800908 
L 421.74015 277.610243 
L 422.004237 277.419579 
L 422.638389 276.583587 
L 423.127325 276.436922 
L 423.263416 276.275591 
L 423.494601 275.982261 
L 423.902539 275.204935 
L 424.02605 275.028937 
L 424.156748 274.852939 
L 425.002476 274.236946 
L 425.172838 273.914282 
L 425.43853 273.591619 
L 425.66424 273.342288 
L 425.801054 273.195623 
L 425.843608 273.122291 
L 426.337147 272.975626 
L 426.462424 272.784961 
L 426.637365 272.374299 
L 427.045089 271.846304 
L 427.276434 271.464975 
L 427.457736 271.288977 
L 427.544638 271.156978 
L 428.024719 270.995647 
L 428.37558 270.408986 
L 428.577856 270.115656 
L 428.685282 269.939658 
L 429.335473 269.499662 
L 429.730162 269.323664 
L 429.93472 268.942335 
L 430.307461 268.326342 
L 430.508579 267.915679 
L 430.737032 267.783681 
L 430.847335 267.681015 
L 431.328855 267.53435 
L 431.618758 267.24102 
L 431.892378 266.90369 
L 432.186561 266.654359 
L 432.373472 266.522361 
L 432.410106 266.361029 
L 432.956004 266.199697 
L 433.22737 265.950367 
L 433.347353 265.789035 
L 433.405516 265.701036 
L 433.547447 265.554371 
L 433.695343 265.30504 
L 433.931693 265.085042 
L 434.236002 264.703713 
L 434.688599 264.395716 
L 434.802553 264.190385 
L 435.767109 262.841066 
L 436.197552 262.694401 
L 436.303795 262.518403 
L 437.293255 261.418415 
L 437.74425 261.286416 
L 437.772458 261.257083 
L 437.966735 261.125084 
L 438.070628 261.037085 
L 438.212318 260.846421 
L 438.67654 260.069096 
L 438.814 259.893097 
L 438.921799 259.658433 
L 439.660872 259.247771 
L 440.715426 257.795786 
L 441.062803 257.619788 
L 441.174771 257.047794 
L 441.324866 256.85713 
L 442.442826 255.59581 
L 442.784023 255.449144 
L 443.553105 254.539821 
L 444.615482 253.865161 
L 444.775999 253.571831 
L 444.960628 253.307834 
L 445.06762 252.985171 
L 445.215361 252.838505 
L 445.672991 252.178512 
L 446.098087 251.855849 
L 446.203145 251.753184 
L 446.295903 251.562519 
L 446.417474 251.386521 
L 446.534453 251.269189 
L 446.631195 251.063858 
L 446.755089 250.873193 
L 446.897417 250.682528 
L 447.134213 250.418531 
L 447.823026 250.022535 
L 448.103927 249.641206 
L 448.483589 249.157211 
L 448.657678 248.966546 
L 448.791053 248.790548 
L 448.920507 248.702549 
L 449.45122 248.570551 
L 449.568886 248.467885 
L 449.844418 248.32122 
L 449.925225 248.174555 
L 450.340002 247.939891 
L 450.835801 247.763892 
L 451.089252 247.631894 
L 452.290555 246.546572 
L 452.682743 246.38524 
L 452.793954 246.165243 
L 452.970579 245.989245 
L 453.108173 245.857246 
L 453.223639 245.725247 
L 453.288804 245.651915 
L 453.467345 245.490583 
L 453.663506 245.270585 
L 453.783592 245.12392 
L 454.327394 244.947922 
L 454.6351 244.595926 
L 454.93908 244.155931 
L 455.286844 243.891933 
L 455.386283 243.701269 
L 455.982988 243.525271 
L 456.32312 243.143941 
L 456.498667 242.923944 
L 456.723486 242.747946 
L 456.818332 242.557281 
L 456.930414 242.395949 
L 457.001498 242.278617 
L 457.657748 242.161285 
L 457.769713 241.911954 
L 457.855795 241.750623 
L 458.46628 240.987964 
L 458.613024 240.811966 
L 458.718031 240.7533 
L 458.97681 240.694634 
L 459.451948 240.401304 
L 459.560885 240.225306 
L 459.831775 240.034641 
L 460.027457 239.755977 
L 460.323269 239.418647 
L 460.971043 239.19865 
L 461.35244 238.773321 
L 461.467987 238.626656 
L 461.639425 238.479991 
L 461.823536 238.27466 
L 462.704686 237.746665 
L 463.785057 236.866674 
L 464.202137 236.690676 
L 465.162223 235.546688 
L 465.376976 235.400023 
L 465.827865 235.268025 
L 467.214277 234.065371 
L 467.493177 233.918706 
L 467.602092 233.830707 
L 467.690672 233.684041 
L 467.880747 233.390711 
L 468.004981 233.258713 
L 468.665693 232.422721 
L 469.192504 232.246723 
L 469.347624 231.850728 
L 469.723447 231.381399 
L 470.025512 231.073402 
L 470.093804 230.970737 
L 470.660412 230.809405 
L 471.015982 230.208078 
L 471.461396 229.826749 
L 471.731675 229.562752 
L 472.522016 229.137423 
L 472.633174 228.946758 
L 472.831503 228.741427 
L 473.118185 228.360098 
L 473.502773 227.876103 
L 474.279737 227.406775 
L 475.094891 226.644116 
L 475.709018 226.468118 
L 475.792177 226.306786 
L 475.914322 226.160121 
L 476.416335 225.61746 
L 476.670739 225.397462 
L 476.925064 225.206798 
L 477.362689 224.972134 
L 477.504902 224.825469 
L 477.675886 224.605471 
L 477.786005 224.502805 
L 478.118804 224.092143 
L 478.4046 223.710814 
L 479.123357 223.461483 
L 479.235428 223.300151 
L 479.347192 223.065487 
L 479.527943 222.889489 
L 479.682664 222.522826 
L 479.785406 222.317495 
L 480.005906 222.097497 
L 480.147329 222.038831 
L 480.641419 221.8335 
L 480.898208 221.598836 
L 481.700898 220.513514 
L 482.253277 220.352183 
L 482.34843 220.161518 
L 482.55303 219.970853 
L 482.646027 219.897521 
L 482.770024 219.750856 
L 482.996505 219.545524 
L 483.094249 219.384193 
L 483.300794 219.090863 
L 483.381539 218.900198 
L 483.997285 218.636201 
L 484.105146 218.533535 
L 484.357174 218.328204 
L 484.595735 218.034874 
L 484.713988 217.946875 
L 484.918255 217.682877 
L 485.151789 217.521546 
L 485.640493 217.301548 
L 485.743756 217.242882 
L 486.53276 216.656222 
L 486.633448 216.509557 
L 487.255819 216.172227 
L 487.361885 216.098894 
L 488.006516 215.453568 
L 488.132393 215.336236 
L 489.087989 214.500244 
L 489.27879 214.206914 
L 489.568765 213.92825 
L 489.699303 213.825585 
L 490.522556 213.356257 
L 491.760455 212.036271 
L 492.067689 211.889605 
L 493.166802 210.936282 
L 493.798342 210.745618 
L 493.905421 210.642952 
L 494.350148 210.305622 
L 495.434318 209.513631 
L 495.750924 209.2643 
L 495.867876 209.102968 
L 496.109189 208.941637 
L 496.276249 208.736305 
L 496.414054 208.58964 
L 496.46621 208.457642 
L 497.010718 208.310977 
L 497.119633 208.193645 
L 497.298597 207.988313 
L 497.405806 207.782982 
L 497.780052 207.548318 
L 497.892457 207.489652 
L 498.77876 207.108323 
L 499.871594 205.920335 
L 500.360877 205.759004 
L 500.448007 205.641672 
L 500.55721 205.48034 
L 500.831248 205.157677 
L 501.058682 204.893679 
L 501.223724 204.673682 
L 501.382291 204.424351 
L 501.457864 204.336352 
L 501.95178 204.189687 
L 502.242894 203.969689 
L 502.462881 203.823024 
L 503.002872 203.471028 
L 503.620661 203.280363 
L 503.751019 202.9577 
L 503.920303 202.796368 
L 504.080263 202.591037 
L 504.269086 202.444372 
L 505.269027 201.945711 
L 505.685254 201.799046 
L 506.342257 201.344384 
L 507.478477 200.919055 
L 507.628537 200.801723 
L 508.257135 200.376394 
L 508.544588 200.259062 
L 508.649103 200.112397 
L 508.892412 199.965732 
L 509.103295 199.775067 
L 509.233031 199.643068 
L 509.95172 199.276406 
L 510.276768 199.144407 
L 511.50983 198.044419 
L 511.839022 197.91242 
L 511.902523 197.824421 
L 512.095162 197.677756 
L 512.260084 197.516424 
L 512.524475 197.23776 
L 512.647389 197.120428 
L 513.424646 196.577767 
L 513.575963 196.196438 
L 513.743941 196.005773 
L 513.922984 195.697777 
L 514.141346 195.492446 
L 514.305147 195.301781 
L 514.492533 195.140449 
L 515.127737 194.935118 
L 515.248616 194.773787 
L 515.398839 194.641788 
L 515.614201 194.392457 
L 515.727293 194.260459 
L 517.070178 193.527133 
L 517.193925 193.380468 
L 517.491565 193.175137 
L 517.79733 192.896473 
L 517.913249 192.852474 
L 518.555843 192.559143 
L 518.696778 192.324479 
L 518.801181 192.251147 
L 519.073454 191.987149 
L 519.205969 191.825818 
L 519.606403 191.415155 
L 520.057384 191.151158 
L 520.293569 190.828495 
L 520.393329 190.711163 
L 520.670939 190.564498 
L 520.825893 190.329834 
L 521.064767 190.05117 
L 521.119367 189.992504 
L 521.628892 189.831172 
L 521.766535 189.684507 
L 521.883767 189.479176 
L 522.275341 188.775183 
L 522.424404 188.599185 
L 522.852766 187.997858 
L 523.627568 187.543196 
L 523.752587 187.469864 
L 524.321596 186.912536 
L 524.390971 186.839204 
L 525.040048 186.663206 
L 525.970519 185.724549 
L 526.024255 185.680549 
L 526.618667 185.489885 
L 526.765938 185.240554 
L 527.050362 185.064556 
L 527.268423 184.741893 
L 527.369101 184.580561 
L 527.564366 184.360563 
L 527.825218 184.228565 
L 528.220274 184.096566 
L 528.334898 183.891235 
L 528.460232 183.74457 
L 528.676174 183.524572 
L 528.852803 183.333908 
L 529.001396 183.172576 
L 529.173768 183.011244 
L 529.885624 182.732581 
L 530.013472 182.615249 
L 530.162818 182.48325 
L 530.361946 182.248586 
L 530.52231 182.14592 
L 530.893927 181.735258 
L 531.108191 181.632592 
L 531.130965 181.617926 
L 531.494173 181.500594 
L 532.747423 180.151275 
L 533.271287 179.989943 
L 533.408913 179.931277 
L 533.903226 179.388616 
L 534.01565 179.124619 
L 534.137129 178.977954 
L 534.241199 178.875288 
L 534.726563 178.728623 
L 534.925585 178.552625 
L 535.194117 178.259295 
L 535.603636 178.009964 
L 535.834636 177.804633 
L 536.427484 177.569969 
L 536.565382 177.335304 
L 536.973344 176.983308 
L 537.081002 176.880643 
L 537.673757 176.22065 
L 538.319561 176.000652 
L 538.647532 175.663322 
L 538.879048 175.531323 
L 540.187865 174.460668 
L 540.319758 174.358003 
L 540.512533 174.167338 
L 540.589396 174.094005 
L 540.7125 173.962007 
L 541.018346 173.800675 
L 541.419762 173.639343 
L 541.779774 173.346013 
L 542.130952 173.111349 
L 542.253133 172.964684 
L 542.53643 172.642021 
L 543.044969 172.451356 
L 543.616868 171.835363 
L 543.983851 171.659364 
L 544.69255 171.278035 
L 544.812509 171.190036 
L 544.964606 170.984705 
L 545.349216 170.559376 
L 545.496224 170.295379 
L 546.32477 169.884717 
L 546.529292 169.738051 
L 546.632829 169.694052 
L 547.067218 169.342056 
L 547.215505 169.254057 
L 547.57931 169.019392 
L 547.977539 168.872727 
L 548.124302 168.726062 
L 548.331428 168.564731 
L 548.457283 168.447398 
L 548.726307 168.095402 
L 548.825445 168.02207 
L 549.209667 167.743406 
L 549.588899 167.626074 
L 549.745722 167.362077 
L 549.886567 167.215411 
L 550.079304 167.098079 
L 550.170999 166.936748 
L 550.29425 166.790083 
L 550.842288 166.511419 
L 551.264597 166.364754 
L 552.32605 165.220766 
L 552.898601 164.971435 
L 553.202159 164.53144 
L 553.360335 164.384775 
L 553.60419 164.106111 
L 553.717117 163.886113 
L 553.941875 163.592783 
L 554.492041 163.402118 
L 554.601075 163.27012 
L 554.753759 163.108788 
L 554.870103 162.97679 
L 555.037257 162.830125 
L 555.374383 162.419462 
L 556.522038 161.818135 
L 557.009207 161.363473 
L 557.14795 161.216808 
L 557.240599 161.128809 
L 557.940571 160.835479 
L 558.430941 159.867489 
L 558.53217 159.588826 
L 558.627532 159.412827 
L 558.764626 159.354161 
L 559.072071 159.19283 
L 559.517933 159.060831 
L 559.878053 158.56217 
L 560.109506 158.371505 
L 560.513987 158.107508 
L 561.090506 157.960843 
L 561.200529 157.828844 
L 561.359921 157.638179 
L 561.997089 156.948853 
L 562.159344 156.802188 
L 562.180493 156.758189 
L 562.75538 156.596857 
L 562.905869 156.450192 
L 563.51372 155.790199 
L 563.894598 155.40887 
L 564.579921 155.262205 
L 564.703201 155.056873 
L 564.792609 154.939541 
L 565.044276 154.763543 
L 565.774907 154.000885 
L 566.234338 153.707554 
L 567.286538 152.680899 
L 567.800515 152.519567 
L 568.708426 151.419579 
L 569.233789 151.24358 
L 569.335857 151.140915 
L 569.961489 150.290257 
L 570.049043 149.952927 
L 570.309069 149.68893 
L 570.409535 149.586265 
L 570.926562 149.424933 
L 571.05259 149.234268 
L 571.285666 149.087603 
L 571.301815 149.028937 
L 571.459733 148.896939 
L 572.091609 148.222279 
L 572.65432 148.046281 
L 574.01648 146.814294 
L 574.226879 146.652962 
L 574.351026 146.432965 
L 574.66396 146.168968 
L 574.904782 145.978303 
L 575.409698 145.640973 
L 575.61218 145.582307 
L 576.017701 145.376976 
L 576.893202 144.335654 
L 577.565979 144.01299 
L 577.689471 143.880992 
L 578.016118 143.616995 
L 578.153405 143.528995 
L 578.280433 143.367664 
L 578.437088 143.250332 
L 579.084096 143.089 
L 579.397934 142.693004 
L 579.509305 142.45834 
L 579.768063 142.238342 
L 579.870734 142.062344 
L 579.999313 141.886346 
L 580.411336 141.505017 
L 580.801707 141.343685 
L 581.108229 141.138354 
L 581.631758 140.537027 
L 581.892392 140.126365 
L 582.437696 139.921034 
L 582.607572 139.759702 
L 583.430999 139.217041 
L 583.571895 139.085042 
L 584.127359 138.909044 
L 584.534108 138.586381 
L 584.652059 138.33705 
L 585.353183 138.014387 
L 585.781521 137.882389 
L 585.886702 137.721057 
L 586.181491 137.530392 
L 586.490112 137.031731 
L 586.64917 136.841066 
L 586.84399 136.694401 
L 587.395196 136.401071 
L 587.801971 135.990409 
L 587.912402 135.829077 
L 588.07092 135.609079 
L 588.159383 135.550413 
L 588.399436 135.359749 
L 588.679409 135.27175 
L 588.984567 135.125084 
L 589.497102 134.611756 
L 589.646671 134.435758 
L 589.7641 134.171761 
L 589.886422 133.96643 
L 590.255445 133.6731 
L 590.589877 133.526435 
L 592.016257 132.70511 
L 592.429364 132.573111 
L 593.026299 132.309114 
L 593.107597 132.206449 
L 593.728091 131.957118 
L 594.016166 131.766453 
L 594.134981 131.634455 
L 594.653132 130.959795 
L 595.860009 130.050471 
L 596.019733 129.84514 
L 596.620647 129.273146 
L 596.771256 129.141148 
L 597.230741 129.009149 
L 597.526228 128.789151 
L 597.697085 128.642486 
L 597.819976 128.510488 
L 597.94182 128.407822 
L 598.082958 128.33449 
L 598.338997 128.202491 
L 598.356999 128.173158 
L 598.986053 128.026493 
L 599.278764 127.865161 
L 599.454064 127.718496 
L 599.617648 127.601164 
L 600.552282 127.234501 
L 601.332086 126.427843 
L 602.155978 126.178512 
L 602.517958 125.841183 
L 602.628549 125.665184 
L 602.871171 125.47452 
L 603.049776 125.357188 
L 603.587733 125.034525 
L 603.719321 124.975858 
L 603.899062 124.785194 
L 604.147266 124.579863 
L 604.311275 124.359865 
L 604.442291 124.227866 
L 605.517471 123.699872 
L 605.630302 123.611873 
L 605.80032 123.479874 
L 605.882884 123.333209 
L 606.249153 123.127878 
L 606.473456 122.95188 
L 607.360233 122.555884 
L 608.094925 121.719893 
L 608.182872 121.587894 
L 608.505859 121.499895 
L 608.771105 121.367897 
L 608.956007 121.221232 
L 609.117827 121.074566 
L 609.437201 120.707904 
L 609.749375 120.42924 
L 610.283502 120.297241 
L 610.937854 119.783913 
L 611.140034 119.651915 
L 611.581037 119.241252 
L 612.03185 119.094587 
L 612.219954 118.889256 
L 612.412721 118.727925 
L 612.97667 118.053265 
L 613.470094 117.759935 
L 613.543981 117.715935 
L 613.941014 117.554604 
L 614.161338 117.378606 
L 614.282353 117.23194 
L 616.084948 115.823955 
L 616.437556 115.633291 
L 617.682639 114.841299 
L 617.80077 114.767966 
L 618.144167 114.591968 
L 618.145484 114.577302 
L 618.574672 114.445303 
L 618.712945 114.342638 
L 618.904777 114.195973 
L 619.597401 113.609312 
L 619.760025 113.521313 
L 620.249474 113.315982 
L 621.397543 112.465324 
L 621.919364 112.27466 
L 622.196004 111.951996 
L 622.386066 111.819998 
L 622.559139 111.673333 
L 622.636364 111.6 
L 622.636364 111.6 
" style="fill:none;stroke:#92c6ff;stroke-linecap:round;stroke-width:1.5;"/>
   </g>
   <g id="line2d_30">
    <defs>
     <path d="M 0 2.5 
C 0.663008 2.5 1.29895 2.236584 1.767767 1.767767 
C 2.236584 1.29895 2.5 0.663008 2.5 0 
C 2.5 -0.663008 2.236584 -1.29895 1.767767 -1.767767 
C 1.29895 -2.236584 0.663008 -2.5 0 -2.5 
C -0.663008 -2.5 -1.29895 -2.236584 -1.767767 -1.767767 
C -2.236584 -1.29895 -2.5 -0.663008 -2.5 0 
C -2.5 0.663008 -2.236584 1.29895 -1.767767 1.767767 
C -1.29895 2.236584 -0.663008 2.5 0 2.5 
z
" id="m94a83594ac" style="stroke:#696969;"/>
    </defs>
    <g clip-path="url(#p296ccd28b3)">
     <use style="fill:#696969;stroke:#696969;" x="115.363636" xlink:href="#m94a83594ac" y="615.6"/>
    </g>
   </g>
   <g id="line2d_31">
    <g clip-path="url(#p296ccd28b3)">
     <use style="fill:#696969;stroke:#696969;" x="201.851253" xlink:href="#m94a83594ac" y="565.1912"/>
    </g>
   </g>
   <g id="line2d_32">
    <g clip-path="url(#p296ccd28b3)">
     <use style="fill:#696969;stroke:#696969;" x="246.340841" xlink:href="#m94a83594ac" y="514.7824"/>
    </g>
   </g>
   <g id="line2d_33">
    <g clip-path="url(#p296ccd28b3)">
     <use style="fill:#696969;stroke:#696969;" x="284.895407" xlink:href="#m94a83594ac" y="464.3736"/>
    </g>
   </g>
   <g id="line2d_34">
    <g clip-path="url(#p296ccd28b3)">
     <use style="fill:#696969;stroke:#696969;" x="315.053272" xlink:href="#m94a83594ac" y="413.9648"/>
    </g>
   </g>
   <g id="line2d_35">
    <g clip-path="url(#p296ccd28b3)">
     <use style="fill:#696969;stroke:#696969;" x="349.629617" xlink:href="#m94a83594ac" y="363.556"/>
    </g>
   </g>
   <g id="line2d_36">
    <g clip-path="url(#p296ccd28b3)">
     <use style="fill:#696969;stroke:#696969;" x="390.945381" xlink:href="#m94a83594ac" y="313.161867"/>
    </g>
   </g>
   <g id="line2d_37">
    <g clip-path="url(#p296ccd28b3)">
     <use style="fill:#696969;stroke:#696969;" x="436.192962" xlink:href="#m94a83594ac" y="262.767734"/>
    </g>
   </g>
   <g id="line2d_38">
    <g clip-path="url(#p296ccd28b3)">
     <use style="fill:#696969;stroke:#696969;" x="491.293574" xlink:href="#m94a83594ac" y="212.3736"/>
    </g>
   </g>
   <g id="line2d_39">
    <g clip-path="url(#p296ccd28b3)">
     <use style="fill:#696969;stroke:#696969;" x="556.361491" xlink:href="#m94a83594ac" y="161.979467"/>
    </g>
   </g>
   <g id="line2d_40">
    <g clip-path="url(#p296ccd28b3)">
     <use style="fill:#696969;stroke:#696969;" x="622.636364" xlink:href="#m94a83594ac" y="111.6"/>
    </g>
   </g>
   <g id="patch_3">
    <path d="M 90 640.8 
L 90 86.4 
" style="fill:none;stroke:#cccccc;stroke-linecap:square;stroke-linejoin:miter;"/>
   </g>
   <g id="patch_4">
    <path d="M 648 640.8 
L 648 86.4 
" style="fill:none;stroke:#cccccc;stroke-linecap:square;stroke-linejoin:miter;"/>
   </g>
   <g id="patch_5">
    <path d="M 90 640.8 
L 648 640.8 
" style="fill:none;stroke:#cccccc;stroke-linecap:square;stroke-linejoin:miter;"/>
   </g>
   <g id="patch_6">
    <path d="M 90 86.4 
L 648 86.4 
" style="fill:none;stroke:#cccccc;stroke-linecap:square;stroke-linejoin:miter;"/>
   </g>
   <g id="text_15">
    <!-- 1 (2014-06-06) -->
    <defs>
     <path id="DejaVuSans-32"/>
     <path d="M 31 75.875 
Q 24.46875 64.65625 21.28125 53.65625 
Q 18.109375 42.671875 18.109375 31.390625 
Q 18.109375 20.125 21.3125 9.0625 
Q 24.515625 -2 31 -13.1875 
L 23.1875 -13.1875 
Q 15.875 -1.703125 12.234375 9.375 
Q 8.59375 20.453125 8.59375 31.390625 
Q 8.59375 42.28125 12.203125 53.3125 
Q 15.828125 64.359375 23.1875 75.875 
z
" id="DejaVuSans-40"/>
     <path d="M 37.796875 64.3125 
L 12.890625 25.390625 
L 37.796875 25.390625 
z
M 35.203125 72.90625 
L 47.609375 72.90625 
L 47.609375 25.390625 
L 58.015625 25.390625 
L 58.015625 17.1875 
L 47.609375 17.1875 
L 47.609375 0 
L 37.796875 0 
L 37.796875 17.1875 
L 4.890625 17.1875 
L 4.890625 26.703125 
z
" id="DejaVuSans-52"/>
     <path d="M 4.890625 31.390625 
L 31.203125 31.390625 
L 31.203125 23.390625 
L 4.890625 23.390625 
z
" id="DejaVuSans-45"/>
     <path d="M 8.015625 75.875 
L 15.828125 75.875 
Q 23.140625 64.359375 26.78125 53.3125 
Q 30.421875 42.28125 30.421875 31.390625 
Q 30.421875 20.453125 26.78125 9.375 
Q 23.140625 -1.703125 15.828125 -13.1875 
L 8.015625 -13.1875 
Q 14.5 -2 17.703125 9.0625 
Q 20.90625 20.125 20.90625 31.390625 
Q 20.90625 42.671875 17.703125 53.65625 
Q 14.5 64.65625 8.015625 75.875 
z
" id="DejaVuSans-41"/>
    </defs>
    <g style="fill:#262626;" transform="translate(120.363636 623.198437)scale(0.1 -0.1)">
     <use xlink:href="#DejaVuSans-49"/>
     <use x="63.623047" xlink:href="#DejaVuSans-32"/>
     <use x="95.410156" xlink:href="#DejaVuSans-40"/>
     <use x="134.423828" xlink:href="#DejaVuSans-50"/>
     <use x="198.046875" xlink:href="#DejaVuSans-48"/>
     <use x="261.669922" xlink:href="#DejaVuSans-49"/>
     <use x="325.292969" xlink:href="#DejaVuSans-52"/>
     <use x="388.916016" xlink:href="#DejaVuSans-45"/>
     <use x="425" xlink:href="#DejaVuSans-48"/>
     <use x="488.623047" xlink:href="#DejaVuSans-54"/>
     <use x="552.246094" xlink:href="#DejaVuSans-45"/>
     <use x="588.330078" xlink:href="#DejaVuSans-48"/>
     <use x="651.953125" xlink:href="#DejaVuSans-54"/>
     <use x="715.576172" xlink:href="#DejaVuSans-41"/>
    </g>
   </g>
   <g id="text_16">
    <!-- 3438 (2015-06-10) -->
    <g style="fill:#262626;" transform="translate(206.851253 572.789638)scale(0.1 -0.1)">
     <use xlink:href="#DejaVuSans-51"/>
     <use x="63.623047" xlink:href="#DejaVuSans-52"/>
     <use x="127.246094" xlink:href="#DejaVuSans-51"/>
     <use x="190.869141" xlink:href="#DejaVuSans-56"/>
     <use x="254.492188" xlink:href="#DejaVuSans-32"/>
     <use x="286.279297" xlink:href="#DejaVuSans-40"/>
     <use x="325.292969" xlink:href="#DejaVuSans-50"/>
     <use x="388.916016" xlink:href="#DejaVuSans-48"/>
     <use x="452.539062" xlink:href="#DejaVuSans-49"/>
     <use x="516.162109" xlink:href="#DejaVuSans-53"/>
     <use x="579.785156" xlink:href="#DejaVuSans-45"/>
     <use x="615.869141" xlink:href="#DejaVuSans-48"/>
     <use x="679.492188" xlink:href="#DejaVuSans-54"/>
     <use x="743.115234" xlink:href="#DejaVuSans-45"/>
     <use x="779.199219" xlink:href="#DejaVuSans-49"/>
     <use x="842.822266" xlink:href="#DejaVuSans-48"/>
     <use x="906.445312" xlink:href="#DejaVuSans-41"/>
    </g>
   </g>
   <g id="text_17">
    <!-- 6875 (2015-12-17) -->
    <g style="fill:#262626;" transform="translate(251.340841 522.380838)scale(0.1 -0.1)">
     <use xlink:href="#DejaVuSans-54"/>
     <use x="63.623047" xlink:href="#DejaVuSans-56"/>
     <use x="127.246094" xlink:href="#DejaVuSans-55"/>
     <use x="190.869141" xlink:href="#DejaVuSans-53"/>
     <use x="254.492188" xlink:href="#DejaVuSans-32"/>
     <use x="286.279297" xlink:href="#DejaVuSans-40"/>
     <use x="325.292969" xlink:href="#DejaVuSans-50"/>
     <use x="388.916016" xlink:href="#DejaVuSans-48"/>
     <use x="452.539062" xlink:href="#DejaVuSans-49"/>
     <use x="516.162109" xlink:href="#DejaVuSans-53"/>
     <use x="579.785156" xlink:href="#DejaVuSans-45"/>
     <use x="615.869141" xlink:href="#DejaVuSans-49"/>
     <use x="679.492188" xlink:href="#DejaVuSans-50"/>
     <use x="743.115234" xlink:href="#DejaVuSans-45"/>
     <use x="779.199219" xlink:href="#DejaVuSans-49"/>
     <use x="842.822266" xlink:href="#DejaVuSans-55"/>
     <use x="906.445312" xlink:href="#DejaVuSans-41"/>
    </g>
   </g>
   <g id="text_18">
    <!-- 10312 (2016-05-29) -->
    <g style="fill:#262626;" transform="translate(289.895407 471.972038)scale(0.1 -0.1)">
     <use xlink:href="#DejaVuSans-49"/>
     <use x="63.623047" xlink:href="#DejaVuSans-48"/>
     <use x="127.246094" xlink:href="#DejaVuSans-51"/>
     <use x="190.869141" xlink:href="#DejaVuSans-49"/>
     <use x="254.492188" xlink:href="#DejaVuSans-50"/>
     <use x="318.115234" xlink:href="#DejaVuSans-32"/>
     <use x="349.902344" xlink:href="#DejaVuSans-40"/>
     <use x="388.916016" xlink:href="#DejaVuSans-50"/>
     <use x="452.539062" xlink:href="#DejaVuSans-48"/>
     <use x="516.162109" xlink:href="#DejaVuSans-49"/>
     <use x="579.785156" xlink:href="#DejaVuSans-54"/>
     <use x="643.408203" xlink:href="#DejaVuSans-45"/>
     <use x="679.492188" xlink:href="#DejaVuSans-48"/>
     <use x="743.115234" xlink:href="#DejaVuSans-53"/>
     <use x="806.738281" xlink:href="#DejaVuSans-45"/>
     <use x="842.822266" xlink:href="#DejaVuSans-50"/>
     <use x="906.445312" xlink:href="#DejaVuSans-57"/>
     <use x="970.068359" xlink:href="#DejaVuSans-41"/>
    </g>
   </g>
   <g id="text_19">
    <!-- 13749 (2016-10-04) -->
    <g style="fill:#262626;" transform="translate(320.053272 421.563238)scale(0.1 -0.1)">
     <use xlink:href="#DejaVuSans-49"/>
     <use x="63.623047" xlink:href="#DejaVuSans-51"/>
     <use x="127.246094" xlink:href="#DejaVuSans-55"/>
     <use x="190.869141" xlink:href="#DejaVuSans-52"/>
     <use x="254.492188" xlink:href="#DejaVuSans-57"/>
     <use x="318.115234" xlink:href="#DejaVuSans-32"/>
     <use x="349.902344" xlink:href="#DejaVuSans-40"/>
     <use x="388.916016" xlink:href="#DejaVuSans-50"/>
     <use x="452.539062" xlink:href="#DejaVuSans-48"/>
     <use x="516.162109" xlink:href="#DejaVuSans-49"/>
     <use x="579.785156" xlink:href="#DejaVuSans-54"/>
     <use x="643.408203" xlink:href="#DejaVuSans-45"/>
     <use x="679.492188" xlink:href="#DejaVuSans-49"/>
     <use x="743.115234" xlink:href="#DejaVuSans-48"/>
     <use x="806.738281" xlink:href="#DejaVuSans-45"/>
     <use x="842.822266" xlink:href="#DejaVuSans-48"/>
     <use x="906.445312" xlink:href="#DejaVuSans-52"/>
     <use x="970.068359" xlink:href="#DejaVuSans-41"/>
    </g>
   </g>
   <g id="text_20">
    <!-- 17186 (2017-03-01) -->
    <g style="fill:#262626;" transform="translate(354.629617 371.154438)scale(0.1 -0.1)">
     <use xlink:href="#DejaVuSans-49"/>
     <use x="63.623047" xlink:href="#DejaVuSans-55"/>
     <use x="127.246094" xlink:href="#DejaVuSans-49"/>
     <use x="190.869141" xlink:href="#DejaVuSans-56"/>
     <use x="254.492188" xlink:href="#DejaVuSans-54"/>
     <use x="318.115234" xlink:href="#DejaVuSans-32"/>
     <use x="349.902344" xlink:href="#DejaVuSans-40"/>
     <use x="388.916016" xlink:href="#DejaVuSans-50"/>
     <use x="452.539062" xlink:href="#DejaVuSans-48"/>
     <use x="516.162109" xlink:href="#DejaVuSans-49"/>
     <use x="579.785156" xlink:href="#DejaVuSans-55"/>
     <use x="643.408203" xlink:href="#DejaVuSans-45"/>
     <use x="679.492188" xlink:href="#DejaVuSans-48"/>
     <use x="743.115234" xlink:href="#DejaVuSans-51"/>
     <use x="806.738281" xlink:href="#DejaVuSans-45"/>
     <use x="842.822266" xlink:href="#DejaVuSans-48"/>
     <use x="906.445312" xlink:href="#DejaVuSans-49"/>
     <use x="970.068359" xlink:href="#DejaVuSans-41"/>
    </g>
   </g>
   <g id="text_21">
    <!-- 20622 (2017-08-24) -->
    <g style="fill:#262626;" transform="translate(395.945381 320.760305)scale(0.1 -0.1)">
     <use xlink:href="#DejaVuSans-50"/>
     <use x="63.623047" xlink:href="#DejaVuSans-48"/>
     <use x="127.246094" xlink:href="#DejaVuSans-54"/>
     <use x="190.869141" xlink:href="#DejaVuSans-50"/>
     <use x="254.492188" xlink:href="#DejaVuSans-50"/>
     <use x="318.115234" xlink:href="#DejaVuSans-32"/>
     <use x="349.902344" xlink:href="#DejaVuSans-40"/>
     <use x="388.916016" xlink:href="#DejaVuSans-50"/>
     <use x="452.539062" xlink:href="#DejaVuSans-48"/>
     <use x="516.162109" xlink:href="#DejaVuSans-49"/>
     <use x="579.785156" xlink:href="#DejaVuSans-55"/>
     <use x="643.408203" xlink:href="#DejaVuSans-45"/>
     <use x="679.492188" xlink:href="#DejaVuSans-48"/>
     <use x="743.115234" xlink:href="#DejaVuSans-56"/>
     <use x="806.738281" xlink:href="#DejaVuSans-45"/>
     <use x="842.822266" xlink:href="#DejaVuSans-50"/>
     <use x="906.445312" xlink:href="#DejaVuSans-52"/>
     <use x="970.068359" xlink:href="#DejaVuSans-41"/>
    </g>
   </g>
   <g id="text_22">
    <!-- 24058 (2018-03-05) -->
    <g style="fill:#262626;" transform="translate(441.192962 270.366171)scale(0.1 -0.1)">
     <use xlink:href="#DejaVuSans-50"/>
     <use x="63.623047" xlink:href="#DejaVuSans-52"/>
     <use x="127.246094" xlink:href="#DejaVuSans-48"/>
     <use x="190.869141" xlink:href="#DejaVuSans-53"/>
     <use x="254.492188" xlink:href="#DejaVuSans-56"/>
     <use x="318.115234" xlink:href="#DejaVuSans-32"/>
     <use x="349.902344" xlink:href="#DejaVuSans-40"/>
     <use x="388.916016" xlink:href="#DejaVuSans-50"/>
     <use x="452.539062" xlink:href="#DejaVuSans-48"/>
     <use x="516.162109" xlink:href="#DejaVuSans-49"/>
     <use x="579.785156" xlink:href="#DejaVuSans-56"/>
     <use x="643.408203" xlink:href="#DejaVuSans-45"/>
     <use x="679.492188" xlink:href="#DejaVuSans-48"/>
     <use x="743.115234" xlink:href="#DejaVuSans-51"/>
     <use x="806.738281" xlink:href="#DejaVuSans-45"/>
     <use x="842.822266" xlink:href="#DejaVuSans-48"/>
     <use x="906.445312" xlink:href="#DejaVuSans-53"/>
     <use x="970.068359" xlink:href="#DejaVuSans-41"/>
    </g>
   </g>
   <g id="text_23">
    <!-- 27494 (2018-10-25) -->
    <g style="fill:#262626;" transform="translate(496.293574 219.972038)scale(0.1 -0.1)">
     <use xlink:href="#DejaVuSans-50"/>
     <use x="63.623047" xlink:href="#DejaVuSans-55"/>
     <use x="127.246094" xlink:href="#DejaVuSans-52"/>
     <use x="190.869141" xlink:href="#DejaVuSans-57"/>
     <use x="254.492188" xlink:href="#DejaVuSans-52"/>
     <use x="318.115234" xlink:href="#DejaVuSans-32"/>
     <use x="349.902344" xlink:href="#DejaVuSans-40"/>
     <use x="388.916016" xlink:href="#DejaVuSans-50"/>
     <use x="452.539062" xlink:href="#DejaVuSans-48"/>
     <use x="516.162109" xlink:href="#DejaVuSans-49"/>
     <use x="579.785156" xlink:href="#DejaVuSans-56"/>
     <use x="643.408203" xlink:href="#DejaVuSans-45"/>
     <use x="679.492188" xlink:href="#DejaVuSans-49"/>
     <use x="743.115234" xlink:href="#DejaVuSans-48"/>
     <use x="806.738281" xlink:href="#DejaVuSans-45"/>
     <use x="842.822266" xlink:href="#DejaVuSans-50"/>
     <use x="906.445312" xlink:href="#DejaVuSans-53"/>
     <use x="970.068359" xlink:href="#DejaVuSans-41"/>
    </g>
   </g>
   <g id="text_24">
    <!-- 30930 (2019-07-30) -->
    <g style="fill:#262626;" transform="translate(561.361491 169.577904)scale(0.1 -0.1)">
     <use xlink:href="#DejaVuSans-51"/>
     <use x="63.623047" xlink:href="#DejaVuSans-48"/>
     <use x="127.246094" xlink:href="#DejaVuSans-57"/>
     <use x="190.869141" xlink:href="#DejaVuSans-51"/>
     <use x="254.492188" xlink:href="#DejaVuSans-48"/>
     <use x="318.115234" xlink:href="#DejaVuSans-32"/>
     <use x="349.902344" xlink:href="#DejaVuSans-40"/>
     <use x="388.916016" xlink:href="#DejaVuSans-50"/>
     <use x="452.539062" xlink:href="#DejaVuSans-48"/>
     <use x="516.162109" xlink:href="#DejaVuSans-49"/>
     <use x="579.785156" xlink:href="#DejaVuSans-57"/>
     <use x="643.408203" xlink:href="#DejaVuSans-45"/>
     <use x="679.492188" xlink:href="#DejaVuSans-48"/>
     <use x="743.115234" xlink:href="#DejaVuSans-55"/>
     <use x="806.738281" xlink:href="#DejaVuSans-45"/>
     <use x="842.822266" xlink:href="#DejaVuSans-51"/>
     <use x="906.445312" xlink:href="#DejaVuSans-48"/>
     <use x="970.068359" xlink:href="#DejaVuSans-41"/>
    </g>
   </g>
   <g id="text_25">
    <!-- 34365 (2020-05-07) -->
    <g style="fill:#262626;" transform="translate(627.636364 119.198437)scale(0.1 -0.1)">
     <use xlink:href="#DejaVuSans-51"/>
     <use x="63.623047" xlink:href="#DejaVuSans-52"/>
     <use x="127.246094" xlink:href="#DejaVuSans-51"/>
     <use x="190.869141" xlink:href="#DejaVuSans-54"/>
     <use x="254.492188" xlink:href="#DejaVuSans-53"/>
     <use x="318.115234" xlink:href="#DejaVuSans-32"/>
     <use x="349.902344" xlink:href="#DejaVuSans-40"/>
     <use x="388.916016" xlink:href="#DejaVuSans-50"/>
     <use x="452.539062" xlink:href="#DejaVuSans-48"/>
     <use x="516.162109" xlink:href="#DejaVuSans-50"/>
     <use x="579.785156" xlink:href="#DejaVuSans-48"/>
     <use x="643.408203" xlink:href="#DejaVuSans-45"/>
     <use x="679.492188" xlink:href="#DejaVuSans-48"/>
     <use x="743.115234" xlink:href="#DejaVuSans-53"/>
     <use x="806.738281" xlink:href="#DejaVuSans-45"/>
     <use x="842.822266" xlink:href="#DejaVuSans-48"/>
     <use x="906.445312" xlink:href="#DejaVuSans-55"/>
     <use x="970.068359" xlink:href="#DejaVuSans-41"/>
    </g>
   </g>
   <g id="text_26">
    <!-- Created issues over time -->
    <defs>
     <path d="M 64.40625 67.28125 
L 64.40625 56.890625 
Q 59.421875 61.53125 53.78125 63.8125 
Q 48.140625 66.109375 41.796875 66.109375 
Q 29.296875 66.109375 22.65625 58.46875 
Q 16.015625 50.828125 16.015625 36.375 
Q 16.015625 21.96875 22.65625 14.328125 
Q 29.296875 6.6875 41.796875 6.6875 
Q 48.140625 6.6875 53.78125 8.984375 
Q 59.421875 11.28125 64.40625 15.921875 
L 64.40625 5.609375 
Q 59.234375 2.09375 53.4375 0.328125 
Q 47.65625 -1.421875 41.21875 -1.421875 
Q 24.65625 -1.421875 15.125 8.703125 
Q 5.609375 18.84375 5.609375 36.375 
Q 5.609375 53.953125 15.125 64.078125 
Q 24.65625 74.21875 41.21875 74.21875 
Q 47.75 74.21875 53.53125 72.484375 
Q 59.328125 70.75 64.40625 67.28125 
z
" id="DejaVuSans-67"/>
     <path d="M 41.109375 46.296875 
Q 39.59375 47.171875 37.8125 47.578125 
Q 36.03125 48 33.890625 48 
Q 26.265625 48 22.1875 43.046875 
Q 18.109375 38.09375 18.109375 28.8125 
L 18.109375 0 
L 9.078125 0 
L 9.078125 54.6875 
L 18.109375 54.6875 
L 18.109375 46.1875 
Q 20.953125 51.171875 25.484375 53.578125 
Q 30.03125 56 36.53125 56 
Q 37.453125 56 38.578125 55.875 
Q 39.703125 55.765625 41.0625 55.515625 
z
" id="DejaVuSans-114"/>
     <path d="M 56.203125 29.59375 
L 56.203125 25.203125 
L 14.890625 25.203125 
Q 15.484375 15.921875 20.484375 11.0625 
Q 25.484375 6.203125 34.421875 6.203125 
Q 39.59375 6.203125 44.453125 7.46875 
Q 49.3125 8.734375 54.109375 11.28125 
L 54.109375 2.78125 
Q 49.265625 0.734375 44.1875 -0.34375 
Q 39.109375 -1.421875 33.890625 -1.421875 
Q 20.796875 -1.421875 13.15625 6.1875 
Q 5.515625 13.8125 5.515625 26.8125 
Q 5.515625 40.234375 12.765625 48.109375 
Q 20.015625 56 32.328125 56 
Q 43.359375 56 49.78125 48.890625 
Q 56.203125 41.796875 56.203125 29.59375 
z
M 47.21875 32.234375 
Q 47.125 39.59375 43.09375 43.984375 
Q 39.0625 48.390625 32.421875 48.390625 
Q 24.90625 48.390625 20.390625 44.140625 
Q 15.875 39.890625 15.1875 32.171875 
z
" id="DejaVuSans-101"/>
     <path d="M 34.28125 27.484375 
Q 23.390625 27.484375 19.1875 25 
Q 14.984375 22.515625 14.984375 16.5 
Q 14.984375 11.71875 18.140625 8.90625 
Q 21.296875 6.109375 26.703125 6.109375 
Q 34.1875 6.109375 38.703125 11.40625 
Q 43.21875 16.703125 43.21875 25.484375 
L 43.21875 27.484375 
z
M 52.203125 31.203125 
L 52.203125 0 
L 43.21875 0 
L 43.21875 8.296875 
Q 40.140625 3.328125 35.546875 0.953125 
Q 30.953125 -1.421875 24.3125 -1.421875 
Q 15.921875 -1.421875 10.953125 3.296875 
Q 6 8.015625 6 15.921875 
Q 6 25.140625 12.171875 29.828125 
Q 18.359375 34.515625 30.609375 34.515625 
L 43.21875 34.515625 
L 43.21875 35.40625 
Q 43.21875 41.609375 39.140625 45 
Q 35.0625 48.390625 27.6875 48.390625 
Q 23 48.390625 18.546875 47.265625 
Q 14.109375 46.140625 10.015625 43.890625 
L 10.015625 52.203125 
Q 14.9375 54.109375 19.578125 55.046875 
Q 24.21875 56 28.609375 56 
Q 40.484375 56 46.34375 49.84375 
Q 52.203125 43.703125 52.203125 31.203125 
z
" id="DejaVuSans-97"/>
     <path d="M 18.3125 70.21875 
L 18.3125 54.6875 
L 36.8125 54.6875 
L 36.8125 47.703125 
L 18.3125 47.703125 
L 18.3125 18.015625 
Q 18.3125 11.328125 20.140625 9.421875 
Q 21.96875 7.515625 27.59375 7.515625 
L 36.8125 7.515625 
L 36.8125 0 
L 27.59375 0 
Q 17.1875 0 13.234375 3.875 
Q 9.28125 7.765625 9.28125 18.015625 
L 9.28125 47.703125 
L 2.6875 47.703125 
L 2.6875 54.6875 
L 9.28125 54.6875 
L 9.28125 70.21875 
z
" id="DejaVuSans-116"/>
     <path d="M 45.40625 46.390625 
L 45.40625 75.984375 
L 54.390625 75.984375 
L 54.390625 0 
L 45.40625 0 
L 45.40625 8.203125 
Q 42.578125 3.328125 38.25 0.953125 
Q 33.9375 -1.421875 27.875 -1.421875 
Q 17.96875 -1.421875 11.734375 6.484375 
Q 5.515625 14.40625 5.515625 27.296875 
Q 5.515625 40.1875 11.734375 48.09375 
Q 17.96875 56 27.875 56 
Q 33.9375 56 38.25 53.625 
Q 42.578125 51.265625 45.40625 46.390625 
z
M 14.796875 27.296875 
Q 14.796875 17.390625 18.875 11.75 
Q 22.953125 6.109375 30.078125 6.109375 
Q 37.203125 6.109375 41.296875 11.75 
Q 45.40625 17.390625 45.40625 27.296875 
Q 45.40625 37.203125 41.296875 42.84375 
Q 37.203125 48.484375 30.078125 48.484375 
Q 22.953125 48.484375 18.875 42.84375 
Q 14.796875 37.203125 14.796875 27.296875 
z
" id="DejaVuSans-100"/>
     <path d="M 9.421875 54.6875 
L 18.40625 54.6875 
L 18.40625 0 
L 9.421875 0 
z
M 9.421875 75.984375 
L 18.40625 75.984375 
L 18.40625 64.59375 
L 9.421875 64.59375 
z
" id="DejaVuSans-105"/>
     <path d="M 44.28125 53.078125 
L 44.28125 44.578125 
Q 40.484375 46.53125 36.375 47.5 
Q 32.28125 48.484375 27.875 48.484375 
Q 21.1875 48.484375 17.84375 46.4375 
Q 14.5 44.390625 14.5 40.28125 
Q 14.5 37.15625 16.890625 35.375 
Q 19.28125 33.59375 26.515625 31.984375 
L 29.59375 31.296875 
Q 39.15625 29.25 43.1875 25.515625 
Q 47.21875 21.78125 47.21875 15.09375 
Q 47.21875 7.46875 41.1875 3.015625 
Q 35.15625 -1.421875 24.609375 -1.421875 
Q 20.21875 -1.421875 15.453125 -0.5625 
Q 10.6875 0.296875 5.421875 2 
L 5.421875 11.28125 
Q 10.40625 8.6875 15.234375 7.390625 
Q 20.0625 6.109375 24.8125 6.109375 
Q 31.15625 6.109375 34.5625 8.28125 
Q 37.984375 10.453125 37.984375 14.40625 
Q 37.984375 18.0625 35.515625 20.015625 
Q 33.0625 21.96875 24.703125 23.78125 
L 21.578125 24.515625 
Q 13.234375 26.265625 9.515625 29.90625 
Q 5.8125 33.546875 5.8125 39.890625 
Q 5.8125 47.609375 11.28125 51.796875 
Q 16.75 56 26.8125 56 
Q 31.78125 56 36.171875 55.265625 
Q 40.578125 54.546875 44.28125 53.078125 
z
" id="DejaVuSans-115"/>
     <path d="M 8.5 21.578125 
L 8.5 54.6875 
L 17.484375 54.6875 
L 17.484375 21.921875 
Q 17.484375 14.15625 20.5 10.265625 
Q 23.53125 6.390625 29.59375 6.390625 
Q 36.859375 6.390625 41.078125 11.03125 
Q 45.3125 15.671875 45.3125 23.6875 
L 45.3125 54.6875 
L 54.296875 54.6875 
L 54.296875 0 
L 45.3125 0 
L 45.3125 8.40625 
Q 42.046875 3.421875 37.71875 1 
Q 33.40625 -1.421875 27.6875 -1.421875 
Q 18.265625 -1.421875 13.375 4.4375 
Q 8.5 10.296875 8.5 21.578125 
z
M 31.109375 56 
z
" id="DejaVuSans-117"/>
     <path d="M 30.609375 48.390625 
Q 23.390625 48.390625 19.1875 42.75 
Q 14.984375 37.109375 14.984375 27.296875 
Q 14.984375 17.484375 19.15625 11.84375 
Q 23.34375 6.203125 30.609375 6.203125 
Q 37.796875 6.203125 41.984375 11.859375 
Q 46.1875 17.53125 46.1875 27.296875 
Q 46.1875 37.015625 41.984375 42.703125 
Q 37.796875 48.390625 30.609375 48.390625 
z
M 30.609375 56 
Q 42.328125 56 49.015625 48.375 
Q 55.71875 40.765625 55.71875 27.296875 
Q 55.71875 13.875 49.015625 6.21875 
Q 42.328125 -1.421875 30.609375 -1.421875 
Q 18.84375 -1.421875 12.171875 6.21875 
Q 5.515625 13.875 5.515625 27.296875 
Q 5.515625 40.765625 12.171875 48.375 
Q 18.84375 56 30.609375 56 
z
" id="DejaVuSans-111"/>
     <path d="M 2.984375 54.6875 
L 12.5 54.6875 
L 29.59375 8.796875 
L 46.6875 54.6875 
L 56.203125 54.6875 
L 35.6875 0 
L 23.484375 0 
z
" id="DejaVuSans-118"/>
     <path d="M 52 44.1875 
Q 55.375 50.25 60.0625 53.125 
Q 64.75 56 71.09375 56 
Q 79.640625 56 84.28125 50.015625 
Q 88.921875 44.046875 88.921875 33.015625 
L 88.921875 0 
L 79.890625 0 
L 79.890625 32.71875 
Q 79.890625 40.578125 77.09375 44.375 
Q 74.3125 48.1875 68.609375 48.1875 
Q 61.625 48.1875 57.5625 43.546875 
Q 53.515625 38.921875 53.515625 30.90625 
L 53.515625 0 
L 44.484375 0 
L 44.484375 32.71875 
Q 44.484375 40.625 41.703125 44.40625 
Q 38.921875 48.1875 33.109375 48.1875 
Q 26.21875 48.1875 22.15625 43.53125 
Q 18.109375 38.875 18.109375 30.90625 
L 18.109375 0 
L 9.078125 0 
L 9.078125 54.6875 
L 18.109375 54.6875 
L 18.109375 46.1875 
Q 21.1875 51.21875 25.484375 53.609375 
Q 29.78125 56 35.6875 56 
Q 41.65625 56 45.828125 52.96875 
Q 50 49.953125 52 44.1875 
z
" id="DejaVuSans-109"/>
    </defs>
    <g style="fill:#262626;" transform="translate(294.061875 80.4)scale(0.12 -0.12)">
     <use xlink:href="#DejaVuSans-67"/>
     <use x="69.824219" xlink:href="#DejaVuSans-114"/>
     <use x="108.6875" xlink:href="#DejaVuSans-101"/>
     <use x="170.210938" xlink:href="#DejaVuSans-97"/>
     <use x="231.490234" xlink:href="#DejaVuSans-116"/>
     <use x="270.699219" xlink:href="#DejaVuSans-101"/>
     <use x="332.222656" xlink:href="#DejaVuSans-100"/>
     <use x="395.699219" xlink:href="#DejaVuSans-32"/>
     <use x="427.486328" xlink:href="#DejaVuSans-105"/>
     <use x="455.269531" xlink:href="#DejaVuSans-115"/>
     <use x="507.369141" xlink:href="#DejaVuSans-115"/>
     <use x="559.46875" xlink:href="#DejaVuSans-117"/>
     <use x="622.847656" xlink:href="#DejaVuSans-101"/>
     <use x="684.371094" xlink:href="#DejaVuSans-115"/>
     <use x="736.470703" xlink:href="#DejaVuSans-32"/>
     <use x="768.257812" xlink:href="#DejaVuSans-111"/>
     <use x="829.439453" xlink:href="#DejaVuSans-118"/>
     <use x="888.619141" xlink:href="#DejaVuSans-101"/>
     <use x="950.142578" xlink:href="#DejaVuSans-114"/>
     <use x="991.255859" xlink:href="#DejaVuSans-32"/>
     <use x="1023.042969" xlink:href="#DejaVuSans-116"/>
     <use x="1062.251953" xlink:href="#DejaVuSans-105"/>
     <use x="1090.035156" xlink:href="#DejaVuSans-109"/>
     <use x="1187.447266" xlink:href="#DejaVuSans-101"/>
    </g>
   </g>
  </g>
 </g>
 <defs>
  <clipPath id="p296ccd28b3">
   <rect height="554.4" width="558" x="90" y="86.4"/>
  </clipPath>
 </defs>
</svg>
