<?xml version="1.0" encoding="utf-8" standalone="no"?>
<!DOCTYPE svg PUBLIC "-//W3C//DTD SVG 1.1//EN"
  "http://www.w3.org/Graphics/SVG/1.1/DTD/svg11.dtd">
<!-- Created with matplotlib (https://matplotlib.org/) -->
<svg height="720pt" version="1.1" viewBox="0 0 720 720" width="720pt" xmlns="http://www.w3.org/2000/svg" xmlns:xlink="http://www.w3.org/1999/xlink">
 <defs>
  <style type="text/css">
*{stroke-linecap:butt;stroke-linejoin:round;}
  </style>
 </defs>
 <g id="figure_1">
  <g id="patch_1">
   <path d="M 0 720 
L 720 720 
L 720 0 
L 0 0 
z
" style="fill:#ffffff;"/>
  </g>
  <g id="axes_1">
   <g id="patch_2">
    <path d="M 90 640.8 
L 648 640.8 
L 648 86.4 
L 90 86.4 
z
" style="fill:#ffffff;"/>
   </g>
   <g id="matplotlib.axis_1">
    <g id="xtick_1">
     <g id="line2d_1">
      <path clip-path="url(#p62ee19b940)" d="M 162.230099 640.8 
L 162.230099 86.4 
" style="fill:none;stroke:#cccccc;stroke-linecap:round;stroke-width:0.8;"/>
     </g>
     <g id="line2d_2"/>
     <g id="text_1">
      <!-- 2015 -->
      <defs>
       <path d="M 19.1875 8.296875 
L 53.609375 8.296875 
L 53.609375 0 
L 7.328125 0 
L 7.328125 8.296875 
Q 12.9375 14.109375 22.625 23.890625 
Q 32.328125 33.6875 34.8125 36.53125 
Q 39.546875 41.84375 41.421875 45.53125 
Q 43.3125 49.21875 43.3125 52.78125 
Q 43.3125 58.59375 39.234375 62.25 
Q 35.15625 65.921875 28.609375 65.921875 
Q 23.96875 65.921875 18.8125 64.3125 
Q 13.671875 62.703125 7.8125 59.421875 
L 7.8125 69.390625 
Q 13.765625 71.78125 18.9375 73 
Q 24.125 74.21875 28.421875 74.21875 
Q 39.75 74.21875 46.484375 68.546875 
Q 53.21875 62.890625 53.21875 53.421875 
Q 53.21875 48.921875 51.53125 44.890625 
Q 49.859375 40.875 45.40625 35.40625 
Q 44.1875 33.984375 37.640625 27.21875 
Q 31.109375 20.453125 19.1875 8.296875 
z
" id="DejaVuSans-50"/>
       <path d="M 31.78125 66.40625 
Q 24.171875 66.40625 20.328125 58.90625 
Q 16.5 51.421875 16.5 36.375 
Q 16.5 21.390625 20.328125 13.890625 
Q 24.171875 6.390625 31.78125 6.390625 
Q 39.453125 6.390625 43.28125 13.890625 
Q 47.125 21.390625 47.125 36.375 
Q 47.125 51.421875 43.28125 58.90625 
Q 39.453125 66.40625 31.78125 66.40625 
z
M 31.78125 74.21875 
Q 44.046875 74.21875 50.515625 64.515625 
Q 56.984375 54.828125 56.984375 36.375 
Q 56.984375 17.96875 50.515625 8.265625 
Q 44.046875 -1.421875 31.78125 -1.421875 
Q 19.53125 -1.421875 13.0625 8.265625 
Q 6.59375 17.96875 6.59375 36.375 
Q 6.59375 54.828125 13.0625 64.515625 
Q 19.53125 74.21875 31.78125 74.21875 
z
" id="DejaVuSans-48"/>
       <path d="M 12.40625 8.296875 
L 28.515625 8.296875 
L 28.515625 63.921875 
L 10.984375 60.40625 
L 10.984375 69.390625 
L 28.421875 72.90625 
L 38.28125 72.90625 
L 38.28125 8.296875 
L 54.390625 8.296875 
L 54.390625 0 
L 12.40625 0 
z
" id="DejaVuSans-49"/>
       <path d="M 10.796875 72.90625 
L 49.515625 72.90625 
L 49.515625 64.59375 
L 19.828125 64.59375 
L 19.828125 46.734375 
Q 21.96875 47.46875 24.109375 47.828125 
Q 26.265625 48.1875 28.421875 48.1875 
Q 40.625 48.1875 47.75 41.5 
Q 54.890625 34.8125 54.890625 23.390625 
Q 54.890625 11.625 47.5625 5.09375 
Q 40.234375 -1.421875 26.90625 -1.421875 
Q 22.3125 -1.421875 17.546875 -0.640625 
Q 12.796875 0.140625 7.71875 1.703125 
L 7.71875 11.625 
Q 12.109375 9.234375 16.796875 8.0625 
Q 21.484375 6.890625 26.703125 6.890625 
Q 35.15625 6.890625 40.078125 11.328125 
Q 45.015625 15.765625 45.015625 23.390625 
Q 45.015625 31 40.078125 35.4375 
Q 35.15625 39.890625 26.703125 39.890625 
Q 22.75 39.890625 18.8125 39.015625 
Q 14.890625 38.140625 10.796875 36.28125 
z
" id="DejaVuSans-53"/>
      </defs>
      <g style="fill:#262626;" transform="translate(149.505099 651.898438)scale(0.1 -0.1)">
       <use xlink:href="#DejaVuSans-50"/>
       <use x="63.623047" xlink:href="#DejaVuSans-48"/>
       <use x="127.246094" xlink:href="#DejaVuSans-49"/>
       <use x="190.869141" xlink:href="#DejaVuSans-53"/>
      </g>
     </g>
    </g>
    <g id="xtick_2">
     <g id="line2d_3">
      <path clip-path="url(#p62ee19b940)" d="M 244.469758 640.8 
L 244.469758 86.4 
" style="fill:none;stroke:#cccccc;stroke-linecap:round;stroke-width:0.8;"/>
     </g>
     <g id="line2d_4"/>
     <g id="text_2">
      <!-- 2016 -->
      <defs>
       <path d="M 33.015625 40.375 
Q 26.375 40.375 22.484375 35.828125 
Q 18.609375 31.296875 18.609375 23.390625 
Q 18.609375 15.53125 22.484375 10.953125 
Q 26.375 6.390625 33.015625 6.390625 
Q 39.65625 6.390625 43.53125 10.953125 
Q 47.40625 15.53125 47.40625 23.390625 
Q 47.40625 31.296875 43.53125 35.828125 
Q 39.65625 40.375 33.015625 40.375 
z
M 52.59375 71.296875 
L 52.59375 62.3125 
Q 48.875 64.0625 45.09375 64.984375 
Q 41.3125 65.921875 37.59375 65.921875 
Q 27.828125 65.921875 22.671875 59.328125 
Q 17.53125 52.734375 16.796875 39.40625 
Q 19.671875 43.65625 24.015625 45.921875 
Q 28.375 48.1875 33.59375 48.1875 
Q 44.578125 48.1875 50.953125 41.515625 
Q 57.328125 34.859375 57.328125 23.390625 
Q 57.328125 12.15625 50.6875 5.359375 
Q 44.046875 -1.421875 33.015625 -1.421875 
Q 20.359375 -1.421875 13.671875 8.265625 
Q 6.984375 17.96875 6.984375 36.375 
Q 6.984375 53.65625 15.1875 63.9375 
Q 23.390625 74.21875 37.203125 74.21875 
Q 40.921875 74.21875 44.703125 73.484375 
Q 48.484375 72.75 52.59375 71.296875 
z
" id="DejaVuSans-54"/>
      </defs>
      <g style="fill:#262626;" transform="translate(231.744758 651.898438)scale(0.1 -0.1)">
       <use xlink:href="#DejaVuSans-50"/>
       <use x="63.623047" xlink:href="#DejaVuSans-48"/>
       <use x="127.246094" xlink:href="#DejaVuSans-49"/>
       <use x="190.869141" xlink:href="#DejaVuSans-54"/>
      </g>
     </g>
    </g>
    <g id="xtick_3">
     <g id="line2d_5">
      <path clip-path="url(#p62ee19b940)" d="M 326.934731 640.8 
L 326.934731 86.4 
" style="fill:none;stroke:#cccccc;stroke-linecap:round;stroke-width:0.8;"/>
     </g>
     <g id="line2d_6"/>
     <g id="text_3">
      <!-- 2017 -->
      <defs>
       <path d="M 8.203125 72.90625 
L 55.078125 72.90625 
L 55.078125 68.703125 
L 28.609375 0 
L 18.3125 0 
L 43.21875 64.59375 
L 8.203125 64.59375 
z
" id="DejaVuSans-55"/>
      </defs>
      <g style="fill:#262626;" transform="translate(314.209731 651.898438)scale(0.1 -0.1)">
       <use xlink:href="#DejaVuSans-50"/>
       <use x="63.623047" xlink:href="#DejaVuSans-48"/>
       <use x="127.246094" xlink:href="#DejaVuSans-49"/>
       <use x="190.869141" xlink:href="#DejaVuSans-55"/>
      </g>
     </g>
    </g>
    <g id="xtick_4">
     <g id="line2d_7">
      <path clip-path="url(#p62ee19b940)" d="M 409.174389 640.8 
L 409.174389 86.4 
" style="fill:none;stroke:#cccccc;stroke-linecap:round;stroke-width:0.8;"/>
     </g>
     <g id="line2d_8"/>
     <g id="text_4">
      <!-- 2018 -->
      <defs>
       <path d="M 31.78125 34.625 
Q 24.75 34.625 20.71875 30.859375 
Q 16.703125 27.09375 16.703125 20.515625 
Q 16.703125 13.921875 20.71875 10.15625 
Q 24.75 6.390625 31.78125 6.390625 
Q 38.8125 6.390625 42.859375 10.171875 
Q 46.921875 13.96875 46.921875 20.515625 
Q 46.921875 27.09375 42.890625 30.859375 
Q 38.875 34.625 31.78125 34.625 
z
M 21.921875 38.8125 
Q 15.578125 40.375 12.03125 44.71875 
Q 8.5 49.078125 8.5 55.328125 
Q 8.5 64.0625 14.71875 69.140625 
Q 20.953125 74.21875 31.78125 74.21875 
Q 42.671875 74.21875 48.875 69.140625 
Q 55.078125 64.0625 55.078125 55.328125 
Q 55.078125 49.078125 51.53125 44.71875 
Q 48 40.375 41.703125 38.8125 
Q 48.828125 37.15625 52.796875 32.3125 
Q 56.78125 27.484375 56.78125 20.515625 
Q 56.78125 9.90625 50.3125 4.234375 
Q 43.84375 -1.421875 31.78125 -1.421875 
Q 19.734375 -1.421875 13.25 4.234375 
Q 6.78125 9.90625 6.78125 20.515625 
Q 6.78125 27.484375 10.78125 32.3125 
Q 14.796875 37.15625 21.921875 38.8125 
z
M 18.3125 54.390625 
Q 18.3125 48.734375 21.84375 45.5625 
Q 25.390625 42.390625 31.78125 42.390625 
Q 38.140625 42.390625 41.71875 45.5625 
Q 45.3125 48.734375 45.3125 54.390625 
Q 45.3125 60.0625 41.71875 63.234375 
Q 38.140625 66.40625 31.78125 66.40625 
Q 25.390625 66.40625 21.84375 63.234375 
Q 18.3125 60.0625 18.3125 54.390625 
z
" id="DejaVuSans-56"/>
      </defs>
      <g style="fill:#262626;" transform="translate(396.449389 651.898438)scale(0.1 -0.1)">
       <use xlink:href="#DejaVuSans-50"/>
       <use x="63.623047" xlink:href="#DejaVuSans-48"/>
       <use x="127.246094" xlink:href="#DejaVuSans-49"/>
       <use x="190.869141" xlink:href="#DejaVuSans-56"/>
      </g>
     </g>
    </g>
    <g id="xtick_5">
     <g id="line2d_9">
      <path clip-path="url(#p62ee19b940)" d="M 491.414048 640.8 
L 491.414048 86.4 
" style="fill:none;stroke:#cccccc;stroke-linecap:round;stroke-width:0.8;"/>
     </g>
     <g id="line2d_10"/>
     <g id="text_5">
      <!-- 2019 -->
      <defs>
       <path d="M 10.984375 1.515625 
L 10.984375 10.5 
Q 14.703125 8.734375 18.5 7.8125 
Q 22.3125 6.890625 25.984375 6.890625 
Q 35.75 6.890625 40.890625 13.453125 
Q 46.046875 20.015625 46.78125 33.40625 
Q 43.953125 29.203125 39.59375 26.953125 
Q 35.25 24.703125 29.984375 24.703125 
Q 19.046875 24.703125 12.671875 31.3125 
Q 6.296875 37.9375 6.296875 49.421875 
Q 6.296875 60.640625 12.9375 67.421875 
Q 19.578125 74.21875 30.609375 74.21875 
Q 43.265625 74.21875 49.921875 64.515625 
Q 56.59375 54.828125 56.59375 36.375 
Q 56.59375 19.140625 48.40625 8.859375 
Q 40.234375 -1.421875 26.421875 -1.421875 
Q 22.703125 -1.421875 18.890625 -0.6875 
Q 15.09375 0.046875 10.984375 1.515625 
z
M 30.609375 32.421875 
Q 37.25 32.421875 41.125 36.953125 
Q 45.015625 41.5 45.015625 49.421875 
Q 45.015625 57.28125 41.125 61.84375 
Q 37.25 66.40625 30.609375 66.40625 
Q 23.96875 66.40625 20.09375 61.84375 
Q 16.21875 57.28125 16.21875 49.421875 
Q 16.21875 41.5 20.09375 36.953125 
Q 23.96875 32.421875 30.609375 32.421875 
z
" id="DejaVuSans-57"/>
      </defs>
      <g style="fill:#262626;" transform="translate(478.689048 651.898438)scale(0.1 -0.1)">
       <use xlink:href="#DejaVuSans-50"/>
       <use x="63.623047" xlink:href="#DejaVuSans-48"/>
       <use x="127.246094" xlink:href="#DejaVuSans-49"/>
       <use x="190.869141" xlink:href="#DejaVuSans-57"/>
      </g>
     </g>
    </g>
    <g id="xtick_6">
     <g id="line2d_11">
      <path clip-path="url(#p62ee19b940)" d="M 573.653706 640.8 
L 573.653706 86.4 
" style="fill:none;stroke:#cccccc;stroke-linecap:round;stroke-width:0.8;"/>
     </g>
     <g id="line2d_12"/>
     <g id="text_6">
      <!-- 2020 -->
      <g style="fill:#262626;" transform="translate(560.928706 651.898438)scale(0.1 -0.1)">
       <use xlink:href="#DejaVuSans-50"/>
       <use x="63.623047" xlink:href="#DejaVuSans-48"/>
       <use x="127.246094" xlink:href="#DejaVuSans-50"/>
       <use x="190.869141" xlink:href="#DejaVuSans-48"/>
      </g>
     </g>
    </g>
   </g>
   <g id="matplotlib.axis_2">
    <g id="ytick_1">
     <g id="line2d_13">
      <path clip-path="url(#p62ee19b940)" d="M 90 615.605417 
L 648 615.605417 
" style="fill:none;stroke:#cccccc;stroke-linecap:round;stroke-width:0.8;"/>
     </g>
     <g id="line2d_14"/>
     <g id="text_7">
      <!-- 0 -->
      <g style="fill:#262626;" transform="translate(80.1375 619.404635)scale(0.1 -0.1)">
       <use xlink:href="#DejaVuSans-48"/>
      </g>
     </g>
    </g>
    <g id="ytick_2">
     <g id="line2d_15">
      <path clip-path="url(#p62ee19b940)" d="M 90 507.274233 
L 648 507.274233 
" style="fill:none;stroke:#cccccc;stroke-linecap:round;stroke-width:0.8;"/>
     </g>
     <g id="line2d_16"/>
     <g id="text_8">
      <!-- 20000 -->
      <g style="fill:#262626;" transform="translate(54.6875 511.073451)scale(0.1 -0.1)">
       <use xlink:href="#DejaVuSans-50"/>
       <use x="63.623047" xlink:href="#DejaVuSans-48"/>
       <use x="127.246094" xlink:href="#DejaVuSans-48"/>
       <use x="190.869141" xlink:href="#DejaVuSans-48"/>
       <use x="254.492188" xlink:href="#DejaVuSans-48"/>
      </g>
     </g>
    </g>
    <g id="ytick_3">
     <g id="line2d_17">
      <path clip-path="url(#p62ee19b940)" d="M 90 398.943049 
L 648 398.943049 
" style="fill:none;stroke:#cccccc;stroke-linecap:round;stroke-width:0.8;"/>
     </g>
     <g id="line2d_18"/>
     <g id="text_9">
      <!-- 40000 -->
      <defs>
       <path d="M 37.796875 64.3125 
L 12.890625 25.390625 
L 37.796875 25.390625 
z
M 35.203125 72.90625 
L 47.609375 72.90625 
L 47.609375 25.390625 
L 58.015625 25.390625 
L 58.015625 17.1875 
L 47.609375 17.1875 
L 47.609375 0 
L 37.796875 0 
L 37.796875 17.1875 
L 4.890625 17.1875 
L 4.890625 26.703125 
z
" id="DejaVuSans-52"/>
      </defs>
      <g style="fill:#262626;" transform="translate(54.6875 402.742267)scale(0.1 -0.1)">
       <use xlink:href="#DejaVuSans-52"/>
       <use x="63.623047" xlink:href="#DejaVuSans-48"/>
       <use x="127.246094" xlink:href="#DejaVuSans-48"/>
       <use x="190.869141" xlink:href="#DejaVuSans-48"/>
       <use x="254.492188" xlink:href="#DejaVuSans-48"/>
      </g>
     </g>
    </g>
    <g id="ytick_4">
     <g id="line2d_19">
      <path clip-path="url(#p62ee19b940)" d="M 90 290.611865 
L 648 290.611865 
" style="fill:none;stroke:#cccccc;stroke-linecap:round;stroke-width:0.8;"/>
     </g>
     <g id="line2d_20"/>
     <g id="text_10">
      <!-- 60000 -->
      <g style="fill:#262626;" transform="translate(54.6875 294.411084)scale(0.1 -0.1)">
       <use xlink:href="#DejaVuSans-54"/>
       <use x="63.623047" xlink:href="#DejaVuSans-48"/>
       <use x="127.246094" xlink:href="#DejaVuSans-48"/>
       <use x="190.869141" xlink:href="#DejaVuSans-48"/>
       <use x="254.492188" xlink:href="#DejaVuSans-48"/>
      </g>
     </g>
    </g>
    <g id="ytick_5">
     <g id="line2d_21">
      <path clip-path="url(#p62ee19b940)" d="M 90 182.280681 
L 648 182.280681 
" style="fill:none;stroke:#cccccc;stroke-linecap:round;stroke-width:0.8;"/>
     </g>
     <g id="line2d_22"/>
     <g id="text_11">
      <!-- 80000 -->
      <g style="fill:#262626;" transform="translate(54.6875 186.0799)scale(0.1 -0.1)">
       <use xlink:href="#DejaVuSans-56"/>
       <use x="63.623047" xlink:href="#DejaVuSans-48"/>
       <use x="127.246094" xlink:href="#DejaVuSans-48"/>
       <use x="190.869141" xlink:href="#DejaVuSans-48"/>
       <use x="254.492188" xlink:href="#DejaVuSans-48"/>
      </g>
     </g>
    </g>
   </g>
   <g id="line2d_23">
    <path clip-path="url(#p62ee19b940)" d="M 115.363636 615.6 
L 115.47451 615.535001 
L 116.666059 615.182925 
L 117.172051 614.993345 
L 117.78944 614.868765 
L 118.274416 614.652102 
L 118.387063 614.60877 
L 119.364084 614.40294 
L 119.471825 614.283776 
L 120.07235 614.142946 
L 120.273007 614.07253 
L 120.988056 613.801702 
L 121.088571 613.77462 
L 122.629738 613.552541 
L 122.717504 613.536291 
L 123.243325 613.341295 
L 123.45112 613.23838 
L 124.073363 613.0813 
L 127.500438 611.792159 
L 127.814464 611.645912 
L 128.591138 611.467165 
L 128.717903 611.331751 
L 129.10554 611.201754 
L 129.788764 611.033841 
L 130.425464 610.903843 
L 130.503755 610.865927 
L 130.87997 610.73593 
L 130.922164 610.676348 
L 131.760048 610.535517 
L 132.72595 610.140108 
L 133.385586 610.010111 
L 133.440876 609.983028 
L 133.813789 609.858447 
L 133.894044 609.755533 
L 134.099842 609.614702 
L 134.832749 609.506371 
L 135.323483 609.38179 
L 136.078105 609.078463 
L 136.591378 608.964715 
L 136.70367 608.937632 
L 136.941898 608.791385 
L 137.46482 608.520557 
L 138.549668 608.314728 
L 139.031368 608.081816 
L 139.893414 607.935569 
L 140.107322 607.85432 
L 141.09564 607.550993 
L 141.436766 607.426412 
L 141.545963 607.36683 
L 141.895437 607.242249 
L 142.220283 607.025587 
L 142.453329 607.003921 
L 142.863229 606.87934 
L 143.025223 606.787258 
L 143.515534 606.408099 
L 143.662147 606.278102 
L 144.174651 606.115605 
L 144.587497 605.991024 
L 144.905336 605.703946 
L 145.105209 605.579365 
L 145.245441 605.552283 
L 146.911602 604.810214 
L 147.570625 604.69105 
L 147.858803 604.50147 
L 148.205208 604.349807 
L 148.319571 604.257725 
L 148.754834 604.127728 
L 148.907354 604.089812 
L 149.2948 603.948981 
L 150.092342 603.418158 
L 150.73546 603.298994 
L 151.115735 603.0065 
L 151.923694 602.600258 
L 152.300092 602.475677 
L 152.692149 602.264431 
L 152.96087 602.058602 
L 153.771328 601.728192 
L 153.884139 601.603611 
L 154.053922 601.51153 
L 154.809238 601.170286 
L 155.412407 601.045705 
L 155.535694 600.948207 
L 156.34386 600.601548 
L 156.416821 600.563632 
L 157.055007 600.428218 
L 157.179277 600.390302 
L 157.496015 600.238638 
L 157.691984 600.054475 
L 158.184228 599.778231 
L 158.612017 599.631983 
L 158.69623 599.577818 
L 158.83313 599.453237 
L 158.945607 599.377405 
L 159.099728 599.258241 
L 159.230423 599.182409 
L 159.511307 598.987413 
L 159.885941 598.916998 
L 160.402617 598.635337 
L 160.474924 598.570338 
L 161.992858 598.380758 
L 162.496383 598.337426 
L 163.306723 598.164096 
L 163.428544 598.039515 
L 163.723492 597.904101 
L 163.869508 597.671189 
L 164.013065 597.541192 
L 164.130758 597.427444 
L 165.116789 596.999536 
L 165.459955 596.555378 
L 165.59403 596.436214 
L 165.853029 596.149136 
L 166.705423 595.889141 
L 167.172076 595.358318 
L 167.269903 595.27707 
L 167.411214 595.152489 
L 167.50595 595.092907 
L 168.101917 594.908744 
L 168.184274 594.838329 
L 168.353815 594.713748 
L 168.538849 594.432087 
L 168.635859 594.318339 
L 168.748013 594.199175 
L 168.823081 594.08001 
L 168.987628 593.960846 
L 169.037596 593.901264 
L 169.648878 593.76585 
L 169.759723 593.668352 
L 169.862376 593.538354 
L 170.072672 593.27836 
L 170.196634 593.083363 
L 170.322802 592.926283 
L 170.42489 592.801702 
L 170.608156 592.677121 
L 170.655808 592.644622 
L 171.242459 592.509208 
L 171.43333 592.335878 
L 171.656824 592.119216 
L 171.768492 591.902554 
L 171.911361 591.76714 
L 172.226691 591.523394 
L 172.846756 591.38798 
L 173.304324 590.802992 
L 173.770547 590.185504 
L 174.33857 590.012174 
L 174.455825 589.784679 
L 174.836457 589.595099 
L 175.501392 589.048027 
L 175.93586 588.923446 
L 176.279766 588.560536 
L 176.384762 588.441372 
L 176.522574 588.165128 
L 176.654294 588.040547 
L 176.834566 587.899716 
L 177.591564 587.417643 
L 177.78705 587.173897 
L 177.936806 587.022234 
L 178.172906 586.534743 
L 178.347462 586.328914 
L 178.426233 586.161001 
L 178.558696 586.05267 
L 179.091603 585.86309 
L 179.192309 585.754759 
L 179.308184 585.624761 
L 180.28171 584.5252 
L 180.650021 584.346453 
L 180.750932 584.146041 
L 180.880647 583.994377 
L 181.057594 583.723549 
L 181.772925 582.49399 
L 182.240141 582.266495 
L 182.404926 582.082332 
L 182.486743 581.919835 
L 182.696306 581.584008 
L 182.755808 581.416095 
L 182.869907 581.340263 
L 183.508845 580.814857 
L 183.818647 580.657777 
L 183.960915 580.47903 
L 184.115352 580.229868 
L 184.320534 579.942791 
L 184.727143 579.466134 
L 184.836644 579.325303 
L 185.302669 579.179056 
L 185.518141 578.908228 
L 185.66925 578.696982 
L 185.865023 578.501986 
L 186.052861 578.258241 
L 186.245215 577.949497 
L 186.645932 577.651586 
L 186.960115 577.532422 
L 187.059311 577.294093 
L 187.195605 577.158679 
L 187.297325 576.985349 
L 187.409588 576.855352 
L 187.560768 576.627857 
L 187.662099 576.481609 
L 187.764852 576.286613 
L 187.89031 576.156616 
L 188.011521 576.037452 
L 188.459766 575.912871 
L 188.537045 575.78829 
L 188.5876 575.636626 
L 189.594848 574.168739 
L 190.082179 574.027908 
L 190.538701 573.291256 
L 190.854412 572.738767 
L 190.951195 572.657519 
L 191.018985 572.538354 
L 191.110889 572.332525 
L 191.365497 572.207944 
L 191.68871 572.040031 
L 192.166058 571.319629 
L 192.294365 571.09755 
L 192.385552 570.945886 
L 192.508168 570.745473 
L 192.63087 570.545061 
L 192.799574 570.366314 
L 193.265995 570.138819 
L 193.392708 569.748826 
L 193.516389 569.597163 
L 193.689596 569.348001 
L 193.988346 568.941759 
L 194.103869 568.822595 
L 194.425424 568.40552 
L 194.711957 568.264689 
L 194.826314 568.145525 
L 195.066756 567.999278 
L 195.273169 567.723033 
L 195.503936 567.419706 
L 195.567337 567.186794 
L 195.670973 567.013464 
L 196.61541 566.330978 
L 196.74882 566.054733 
L 196.880355 565.903069 
L 197.051273 565.626825 
L 197.143829 565.464328 
L 197.264523 565.290998 
L 197.381569 565.079752 
L 197.452681 565.031003 
L 197.927432 564.890173 
L 198.007413 564.727676 
L 198.12957 564.483931 
L 198.212585 564.337684 
L 198.676956 563.324787 
L 198.91133 563.053959 
L 198.964231 562.875213 
L 199.605138 562.761465 
L 199.894377 562.15481 
L 200.019228 562.035646 
L 200.157875 561.716069 
L 200.253028 561.542739 
L 200.376437 561.315244 
L 200.483905 561.17983 
L 200.706812 560.914418 
L 201.15206 560.773588 
L 201.26968 560.621924 
L 201.382616 560.454011 
L 201.924958 559.684859 
L 202.04824 559.544029 
L 202.607316 559.213619 
L 202.757317 559.072788 
L 203.056377 558.514883 
L 203.840786 557.864896 
L 204.265803 557.718648 
L 204.575357 557.030745 
L 204.698815 556.792417 
L 204.788954 556.608254 
L 205.634482 555.660356 
L 205.853002 555.541192 
L 205.986313 555.248697 
L 206.310135 554.669126 
L 206.362239 554.528295 
L 207.294035 553.320402 
L 207.46767 553.157906 
L 207.607428 552.762497 
L 207.946056 552.507918 
L 208.289871 551.998762 
L 208.400239 551.836265 
L 208.647633 551.657519 
L 209.032276 551.532938 
L 209.273853 551.251277 
L 209.381516 551.094197 
L 209.540328 550.942533 
L 209.988683 550.335878 
L 210.252005 550.23838 
L 210.596979 550.113799 
L 210.754857 549.89172 
L 210.880666 549.707557 
L 210.991117 549.512561 
L 211.23559 549.079237 
L 211.343217 548.943823 
L 211.453952 548.813825 
L 212.465743 547.920093 
L 212.749164 547.54635 
L 212.826219 547.416353 
L 212.947034 547.150941 
L 213.063386 546.977612 
L 213.245079 546.782615 
L 213.748456 546.603869 
L 213.914434 546.327624 
L 214.031037 546.181377 
L 214.15769 546.024297 
L 214.412546 545.634305 
L 214.518308 545.482641 
L 214.735522 545.179314 
L 215.302482 545.02765 
L 215.435542 544.843487 
L 215.613079 544.621408 
L 215.725376 544.464328 
L 216.092669 543.949755 
L 216.272396 543.760175 
L 216.362976 543.624761 
L 216.837896 543.478514 
L 217.093742 543.142688 
L 217.251047 542.828527 
L 217.470092 542.573949 
L 217.608942 542.449368 
L 217.96201 542.221873 
L 218.41643 542.064792 
L 218.72885 541.826464 
L 218.92455 541.523136 
L 219.664399 540.661904 
L 220.082607 540.488574 
L 220.293396 540.239412 
L 220.855909 539.264431 
L 221.005506 539.031519 
L 221.112358 538.890689 
L 221.578427 538.679443 
L 222.401911 537.211555 
L 222.556874 537.038225 
L 222.793144 536.761981 
L 223.164333 536.610317 
L 223.713231 535.592004 
L 223.828387 535.467423 
L 223.909482 535.321176 
L 224.131398 534.920351 
L 224.246952 534.649523 
L 224.773295 534.508692 
L 225.865224 532.531648 
L 226.308871 532.396234 
L 226.453779 532.098323 
L 226.657383 531.77333 
L 226.803297 531.518752 
L 226.840957 531.377921 
L 227.037575 531.063761 
L 227.11801 530.874181 
L 227.252085 530.690018 
L 227.96917 530.224194 
L 228.084537 529.866701 
L 228.234431 529.590457 
L 228.541476 528.994635 
L 228.645071 528.870054 
L 228.759227 528.685891 
L 228.893454 528.480062 
L 229.062739 528.203817 
L 229.522808 527.976322 
L 229.911477 527.228837 
L 229.988812 527.077173 
L 230.130113 526.838844 
L 230.241463 526.595099 
L 230.342482 526.351354 
L 230.464477 526.183441 
L 230.572041 526.010111 
L 231.15459 525.771782 
L 231.386732 525.387207 
L 231.609709 525.094712 
L 231.72057 524.899716 
L 231.844558 524.70472 
L 231.965682 524.53139 
L 232.067786 524.293062 
L 232.189742 524.260562 
L 232.598069 524.065566 
L 232.746495 523.88682 
L 233.416862 523.096002 
L 233.540581 522.922672 
L 233.821684 522.554346 
L 234.281333 522.316018 
L 234.458504 522.04519 
L 234.816169 521.492701 
L 234.928253 521.346453 
L 235.445581 520.696466 
L 235.795125 520.523136 
L 235.917924 520.301058 
L 236.102283 520.068145 
L 236.277144 519.835233 
L 236.468958 519.591488 
L 237.669306 518.50276 
L 237.781971 518.307764 
L 237.89685 518.118184 
L 238.016006 517.890689 
L 238.435267 517.32195 
L 238.972034 517.078205 
L 239.122251 516.899458 
L 239.288425 516.4878 
L 239.543928 515.994893 
L 239.687654 515.848646 
L 239.817356 515.599484 
L 240.055977 515.30699 
L 240.540025 515.139077 
L 241.317494 513.9366 
L 241.423877 513.828269 
L 241.541742 513.682022 
L 241.643375 513.627857 
L 242.130323 513.405778 
L 242.236901 513.286613 
L 242.454856 513.026619 
L 242.595518 512.864122 
L 243.114791 512.669126 
L 243.682286 512.490379 
L 244.152887 512.159969 
L 244.51044 512.040805 
L 245.278892 511.862058 
L 245.473431 511.699562 
L 245.601842 511.564148 
L 245.706467 511.455816 
L 245.81847 511.320402 
L 246.360867 510.854578 
L 246.896535 510.627083 
L 247.102669 510.329172 
L 247.14231 510.193758 
L 247.260504 510.025845 
L 247.384857 509.879598 
L 247.859156 509.43544 
L 247.945686 509.348775 
L 248.418553 509.180861 
L 248.543589 509.061697 
L 248.761975 508.866701 
L 248.861707 508.801702 
L 248.960514 508.660872 
L 249.086216 508.487542 
L 249.194056 508.249213 
L 249.464989 507.761723 
L 250.127164 507.295899 
L 250.266781 507.160485 
L 251.071966 506.044674 
L 251.661267 505.638432 
L 251.770257 505.443436 
L 251.854677 505.308022 
L 251.982652 505.053443 
L 252.089674 504.928863 
L 252.208728 504.625535 
L 252.576585 503.943049 
L 252.715515 503.845551 
L 253.195846 503.569306 
L 253.433235 503.070983 
L 253.507176 502.865153 
L 253.62942 502.745989 
L 253.704483 502.567243 
L 254.310374 501.435182 
L 254.679861 501.310601 
L 254.799017 501.115605 
L 255.954296 499.17106 
L 256.287842 498.99773 
L 256.648822 498.098581 
L 256.762765 497.892752 
L 256.816712 497.730255 
L 256.956754 497.361929 
L 257.080849 497.080268 
L 257.246674 496.858189 
L 257.320576 496.679443 
L 257.437364 496.544029 
L 257.837505 496.32195 
L 257.954632 496.126954 
L 258.50104 494.946144 
L 258.619385 494.761981 
L 258.732276 494.48032 
L 258.838336 494.296157 
L 258.947848 494.063245 
L 259.159166 493.911581 
L 259.356892 493.851999 
L 259.512805 493.662419 
L 259.707962 493.429507 
L 259.802771 493.267011 
L 259.887697 493.196595 
L 260.031468 493.061181 
L 260.164082 492.893268 
L 260.647853 492.286613 
L 261.109387 492.048285 
L 261.224488 491.896621 
L 261.336858 491.755791 
L 261.490583 491.528295 
L 261.674389 491.208718 
L 261.92188 490.78081 
L 262.019664 490.62373 
L 262.182655 490.461233 
L 262.64791 490.266237 
L 262.897889 489.908744 
L 263.049253 489.767913 
L 263.151299 489.610833 
L 263.285004 489.464586 
L 263.3859 489.302089 
L 263.827205 488.955429 
L 264.486982 488.549188 
L 264.606842 488.408357 
L 264.745871 488.229611 
L 264.868861 488.132112 
L 264.941368 487.996698 
L 265.052356 487.861284 
L 265.14226 487.736704 
L 265.249089 487.552541 
L 265.849686 487.249213 
L 266.070048 486.994635 
L 266.302993 486.675058 
L 266.823103 485.943823 
L 267.405488 485.802992 
L 267.545011 485.656745 
L 267.648543 485.521331 
L 267.90246 485.136755 
L 268.094311 484.865927 
L 268.239693 484.589683 
L 268.328387 484.454269 
L 268.439273 484.335104 
L 268.971349 484.134692 
L 269.128769 483.853031 
L 269.210901 483.7122 
L 269.438422 483.392623 
L 269.566363 483.165128 
L 269.855688 482.937632 
L 270.037496 482.715553 
L 270.558264 482.525974 
L 270.817177 482.065566 
L 270.994364 481.827238 
L 271.099336 481.610575 
L 271.226892 481.458912 
L 271.361905 481.307248 
L 271.569859 481.090586 
L 272.041723 480.949755 
L 272.210959 480.781842 
L 272.347989 480.641011 
L 272.487235 480.456848 
L 272.583249 480.305184 
L 272.706136 480.115605 
L 272.876786 479.823111 
L 273.03976 479.633531 
L 273.162246 479.487284 
L 273.753985 479.081042 
L 274.912945 477.753985 
L 275.184527 477.607738 
L 275.540145 476.941501 
L 275.680106 476.784421 
L 276.31196 475.65236 
L 276.500147 475.527779 
L 276.832903 475.273201 
L 276.976908 474.953624 
L 277.055961 474.785711 
L 277.43416 473.848646 
L 277.787442 473.274491 
L 277.891071 473.13366 
L 278.126944 473.003663 
L 278.225748 472.96033 
L 278.40243 472.841166 
L 279.573388 471.1187 
L 279.918288 470.988703 
L 280.0223 470.820789 
L 280.119774 470.642043 
L 280.295097 470.235801 
L 281.289014 468.935827 
L 281.549541 468.800413 
L 281.810577 468.26959 
L 281.945127 468.031261 
L 282.102552 467.538354 
L 282.220591 467.392107 
L 282.334889 467.110446 
L 282.497754 466.861284 
L 282.933695 466.552541 
L 283.219513 466.325045 
L 283.426841 465.940469 
L 283.603945 465.534227 
L 283.841231 465.133402 
L 284.126916 464.548414 
L 284.972133 463.952592 
L 285.099994 463.746763 
L 286.037588 462.53887 
L 286.244715 462.408873 
L 286.409627 462.278875 
L 286.635012 462.056796 
L 286.787268 461.943049 
L 286.98143 461.574723 
L 287.399698 460.946402 
L 287.800637 460.762239 
L 287.912569 460.605159 
L 288.161421 460.215166 
L 288.367151 459.944338 
L 289.22862 459.077689 
L 289.399327 458.926025 
L 289.51068 458.693113 
L 289.785446 458.108125 
L 290.045866 457.51772 
L 290.161449 457.32814 
L 290.334086 457.019396 
L 290.435649 456.84065 
L 290.594887 456.688986 
L 290.985251 456.537323 
L 291.130769 456.271911 
L 291.356855 456.158164 
L 292.0675 455.242765 
L 292.567447 455.091101 
L 292.820208 454.717359 
L 292.960912 454.419448 
L 293.075139 454.246118 
L 293.204173 453.95904 
L 293.314285 453.780294 
L 293.468565 453.531132 
L 293.567482 453.357802 
L 293.761492 453.244055 
L 294.169973 453.027392 
L 294.441195 452.648233 
L 294.575217 452.371989 
L 294.683989 452.122827 
L 294.812671 451.879082 
L 294.90082 451.722002 
L 295.048588 451.554088 
L 295.125498 451.369925 
L 295.203526 451.180346 
L 295.599471 451.023265 
L 295.808212 450.763271 
L 295.936561 450.600774 
L 296.046764 450.400361 
L 296.976881 448.488316 
L 297.316325 448.244571 
L 297.465447 447.692082 
L 297.540031 447.556668 
L 298.464799 445.693371 
L 298.908303 445.520041 
L 299.197565 444.821305 
L 299.30956 444.653392 
L 299.636305 443.922156 
L 299.793853 443.58633 
L 300.193412 443.190921 
L 300.44628 443.05009 
L 301.012695 442.123859 
L 301.122945 441.961362 
L 301.67049 441.002631 
L 302.059144 440.764302 
L 302.259008 440.352644 
L 302.513313 439.789322 
L 302.718839 439.198917 
L 302.827817 438.933505 
L 302.976657 438.684344 
L 303.025692 438.53268 
L 303.435586 438.034356 
L 303.670982 437.85561 
L 303.961765 437.221873 
L 304.152481 436.869796 
L 304.278245 436.582719 
L 304.372869 436.246892 
L 304.493 436.051896 
L 304.656364 435.753985 
L 304.971592 435.575239 
L 305.174078 435.445241 
L 305.302942 435.190663 
L 305.438587 434.974001 
L 305.893763 433.906938 
L 305.953417 433.744442 
L 306.098119 433.500696 
L 306.173497 433.343616 
L 306.283661 433.278617 
L 306.701603 433.126954 
L 306.767922 433.00779 
L 306.905314 432.671963 
L 307.024029 432.493216 
L 307.225104 432.086974 
L 307.364329 431.680733 
L 307.472621 431.301573 
L 307.571149 431.041579 
L 307.70658 430.759917 
L 307.780871 430.597421 
L 307.917877 430.44034 
L 308.250661 430.304926 
L 308.377604 430.14243 
L 308.556337 429.714522 
L 308.634209 429.557441 
L 308.778715 429.340779 
L 308.942248 429.107867 
L 309.631696 427.92164 
L 309.882739 427.786226 
L 310.047638 427.363735 
L 310.557343 426.432087 
L 310.714169 426.042094 
L 310.833577 425.825432 
L 310.913893 425.603353 
L 311.029856 425.408357 
L 311.51436 425.067114 
L 311.716384 424.639206 
L 311.889581 424.216714 
L 312.001964 423.90797 
L 312.133181 423.723807 
L 312.249137 423.496312 
L 312.419987 423.117152 
L 312.911628 422.640495 
L 313.140489 422.423833 
L 313.285368 422.169255 
L 313.38357 421.979675 
L 313.598315 421.513851 
L 313.699868 421.237606 
L 314.164411 420.419706 
L 314.469454 420.278875 
L 314.64009 420.078463 
L 314.83505 419.699304 
L 315.895197 418.139335 
L 316.250361 417.928089 
L 316.632717 417.234769 
L 316.801192 416.861027 
L 316.910305 416.633531 
L 317.503757 415.631468 
L 317.787888 415.468971 
L 317.919011 415.198143 
L 318.877086 413.81692 
L 319.369197 413.605674 
L 319.536318 413.302347 
L 319.696635 413.047769 
L 320.234687 411.617797 
L 320.347584 411.33072 
L 320.553009 410.886562 
L 320.873828 410.724065 
L 322.286297 408.032035 
L 322.509716 407.880371 
L 322.618213 407.663709 
L 322.793317 407.344132 
L 322.903882 407.12747 
L 323.076433 406.916224 
L 323.209517 406.769977 
L 323.310178 406.612897 
L 323.592728 406.174155 
L 324.124926 405.957493 
L 324.238428 405.735414 
L 324.374751 405.589167 
L 324.494486 405.405004 
L 325.220459 404.560021 
L 325.97234 404.381274 
L 326.26993 404.164612 
L 326.539675 404.012948 
L 326.671774 403.953366 
L 327.518691 403.725871 
L 327.641592 403.563374 
L 327.747714 403.422543 
L 327.854842 403.27088 
L 327.955303 403.189631 
L 328.256168 403.000052 
L 328.519942 402.815889 
L 328.854353 402.664225 
L 328.979979 402.425896 
L 329.103422 402.290482 
L 329.20226 402.127986 
L 329.293562 401.970905 
L 329.490879 401.678411 
L 329.598281 401.505081 
L 330.192078 400.925509 
L 330.432624 400.795512 
L 331.54305 399.143461 
L 331.961339 398.959298 
L 332.080982 398.807635 
L 332.199822 398.623472 
L 332.346808 398.395976 
L 332.54079 397.957235 
L 332.649055 397.756822 
L 332.748924 397.605159 
L 332.999752 397.096002 
L 333.417721 396.933505 
L 333.610648 396.814341 
L 333.726198 396.624761 
L 333.86535 396.473098 
L 334.168726 395.974774 
L 334.469896 395.563116 
L 334.563284 395.422285 
L 334.677177 395.303121 
L 335.416713 394.69105 
L 336.284501 393.542739 
L 336.765344 393.326077 
L 336.897484 393.038999 
L 337.032223 392.768171 
L 337.865925 391.365282 
L 338.161644 391.191953 
L 338.458637 390.948207 
L 338.539711 390.823627 
L 339.519921 389.101161 
L 339.91747 388.808666 
L 340.274674 387.996183 
L 340.390729 387.855352 
L 340.510018 387.573691 
L 340.952502 386.874955 
L 341.462601 386.63121 
L 341.888747 385.802476 
L 342.029068 385.553314 
L 342.143216 385.363735 
L 342.24073 385.11999 
L 342.511123 384.578334 
L 343.096029 384.26959 
L 343.390041 383.652102 
L 343.501858 383.532938 
L 343.583472 383.381274 
L 343.693453 383.159195 
L 344.213081 382.390044 
L 344.629493 382.227547 
L 344.841113 381.848388 
L 345.919494 380.635079 
L 346.179568 380.510498 
L 346.722666 379.817178 
L 347.034463 379.459685 
L 347.160477 379.286355 
L 347.406468 379.123859 
L 347.792801 378.955945 
L 347.905023 378.766366 
L 348.088787 378.53887 
L 348.840603 377.607222 
L 349.580706 377.065566 
L 349.70044 376.843487 
L 349.918434 376.583492 
L 350.064247 376.410162 
L 350.343292 376.085169 
L 350.35461 376.041836 
L 351.023944 375.922672 
L 351.641107 375.131855 
L 351.749951 375.023523 
L 351.907257 374.85561 
L 352.219846 374.703946 
L 352.479176 374.50895 
L 353.856482 372.808151 
L 354.150217 372.68357 
L 354.391157 372.35316 
L 354.507773 372.174413 
L 354.59582 372.038999 
L 355.249361 371.221099 
L 355.626833 371.091101 
L 355.753896 370.874439 
L 355.911047 370.717359 
L 356.310479 370.143204 
L 356.497915 369.850709 
L 356.583977 369.693629 
L 356.807802 369.493216 
L 357.158974 369.325303 
L 357.286731 369.168223 
L 357.394673 368.956977 
L 357.604676 368.615734 
L 357.754119 368.339489 
L 357.867225 368.14991 
L 358.574599 367.267011 
L 358.79856 367.120763 
L 358.880166 366.958267 
L 359.066162 366.671189 
L 359.141535 366.535775 
L 359.56578 365.766624 
L 359.697469 365.555378 
L 359.958651 365.165386 
L 360.432773 365.002889 
L 360.852903 364.412484 
L 361.574998 363.28584 
L 361.821376 363.139592 
L 362.003935 362.971679 
L 362.140393 362.679185 
L 362.23471 362.527521 
L 362.362633 362.256693 
L 363.120038 361.260046 
L 363.694346 360.707557 
L 363.871713 360.312149 
L 364.008647 360.035904 
L 364.236665 359.613412 
L 364.34111 359.440083 
L 364.717825 359.006758 
L 365.151326 358.87676 
L 365.307786 358.622182 
L 365.64866 358.123859 
L 365.775871 357.972195 
L 366.064776 357.593036 
L 366.193891 357.311375 
L 366.683699 357.138045 
L 366.804065 356.807635 
L 367.7256 355.36683 
L 368.24613 355.166417 
L 368.37645 354.982254 
L 368.53171 354.84684 
L 368.81522 354.635595 
L 369.39973 353.828527 
L 369.825193 353.671447 
L 369.946328 353.427702 
L 370.594401 352.571885 
L 370.801977 352.273975 
L 371.174643 352.01398 
L 371.433657 351.894816 
L 371.551042 351.629404 
L 372.295758 350.047769 
L 372.395146 349.820273 
L 372.632435 349.560279 
L 372.990278 349.386949 
L 373.129532 349.14862 
L 373.318123 349.029456 
L 373.508151 348.693629 
L 374.359348 347.610317 
L 374.639854 347.431571 
L 374.731093 347.193242 
L 374.832406 347.063245 
L 375.010045 346.759917 
L 375.101075 346.608254 
L 375.290696 346.288677 
L 375.490527 346.001599 
L 375.635062 345.784937 
L 376.078135 345.600774 
L 377.374205 343.748311 
L 377.70997 343.537065 
L 378.800851 341.635852 
L 379.227445 341.440856 
L 379.545381 340.823369 
L 379.764348 340.352128 
L 379.860268 340.162548 
L 380.202795 339.59381 
L 380.294936 339.447563 
L 380.432247 339.198401 
L 380.829147 338.970905 
L 381.008113 338.775909 
L 381.583358 337.57885 
L 381.773239 337.150941 
L 381.887962 336.90178 
L 382.047992 336.733866 
L 382.511268 336.463038 
L 382.912901 335.888883 
L 383.228649 335.37431 
L 383.37232 335.087232 
L 383.473673 334.85432 
L 383.562914 334.708073 
L 384.017585 334.534743 
L 384.944353 333.077689 
L 385.038362 332.882693 
L 385.098229 332.758112 
L 385.50272 332.611865 
L 385.613779 332.454785 
L 386.021788 331.815631 
L 386.129613 331.620635 
L 386.548522 331.024813 
L 386.855607 330.808151 
L 386.895918 330.781068 
L 387.185022 330.661904 
L 387.261654 330.504823 
L 387.456778 330.233995 
L 387.533187 330.066082 
L 387.641043 329.844003 
L 387.739886 329.692339 
L 388.009502 329.259015 
L 388.96292 328.549445 
L 389.092506 328.359866 
L 389.473942 327.894042 
L 389.757392 327.606964 
L 389.967038 327.514883 
L 390.4218 327.281971 
L 391.102963 326.106577 
L 391.245521 325.749084 
L 391.560846 325.494506 
L 391.912159 325.31576 
L 392.024886 325.066598 
L 392.125146 324.866185 
L 392.484579 324.183699 
L 392.590988 323.956203 
L 392.735562 323.679959 
L 392.87461 323.501212 
L 393.197793 323.262884 
L 393.418525 323.11122 
L 393.565806 322.851225 
L 393.973929 322.098323 
L 394.168401 321.968326 
L 394.559459 321.323755 
L 394.715247 321.258757 
L 395.076214 321.08001 
L 395.259464 320.771266 
L 395.379099 320.59252 
L 395.640041 320.126696 
L 395.771003 319.975032 
L 395.863314 319.75837 
L 396.025428 319.56879 
L 396.794497 318.870054 
L 396.944383 318.545061 
L 397.161326 318.149652 
L 397.245587 317.960072 
L 397.416122 317.607996 
L 397.574387 317.337168 
L 398.023534 316.936343 
L 398.201141 316.763013 
L 399.318944 314.553056 
L 399.58785 314.417643 
L 399.713484 314.35806 
L 399.831669 314.21723 
L 399.926664 313.951818 
L 400.037469 313.708073 
L 400.134516 313.572659 
L 400.359186 313.144751 
L 400.555358 312.84684 
L 400.700735 312.716843 
L 401.030828 312.483931 
L 401.368361 312.348517 
L 401.48766 312.083105 
L 401.602544 311.909776 
L 401.798101 311.50895 
L 401.930027 311.324787 
L 402.557175 310.447305 
L 402.95028 310.290224 
L 403.754993 309.407325 
L 404.602422 308.844003 
L 404.791788 308.556925 
L 405.2993 307.971937 
L 405.419567 307.82569 
L 405.79399 307.571112 
L 406.084835 307.441114 
L 407.016147 306.097808 
L 407.158199 305.95156 
L 407.389172 305.832396 
L 408.257208 305.469487 
L 408.601412 305.263657 
L 409.629339 304.916998 
L 409.757169 304.781584 
L 409.910534 304.61367 
L 410.028784 304.505339 
L 410.142046 304.332009 
L 410.633883 303.9691 
L 410.876831 303.844519 
L 410.991804 303.757854 
L 412.049889 302.322466 
L 412.402565 302.181635 
L 412.517507 302.024555 
L 413.229565 301.049574 
L 413.541106 300.605417 
L 413.940903 300.470003 
L 414.254397 299.93918 
L 415.239583 298.682538 
L 415.56125 298.552541 
L 415.694911 298.308795 
L 416.876378 296.548414 
L 417.182873 296.3805 
L 417.566551 295.763013 
L 417.802401 295.351354 
L 418.157104 294.804282 
L 418.482931 294.560536 
L 418.605088 294.495538 
L 418.843553 294.284292 
L 418.987986 294.138045 
L 419.048902 293.975548 
L 419.982547 292.940985 
L 420.375246 292.800155 
L 421.075861 291.711426 
L 421.22346 291.440598 
L 421.449919 291.039773 
L 422.025513 290.519783 
L 422.358328 289.896879 
L 422.495316 289.750632 
L 422.683474 289.403972 
L 422.773496 289.263142 
L 422.974417 289.01398 
L 423.459567 288.802734 
L 423.58931 288.602321 
L 423.714782 288.472324 
L 424.38445 287.773588 
L 425.13744 287.307764 
L 425.303286 287.01527 
L 425.396322 286.852773 
L 425.880048 286.229868 
L 426.132035 285.931958 
L 426.752371 285.596131 
L 426.865276 285.439051 
L 427.197797 284.875729 
L 427.50853 284.442404 
L 427.655711 284.263657 
L 427.841364 284.193242 
L 428.08694 284.063245 
L 428.205595 283.814083 
L 428.418397 283.505339 
L 428.529975 283.321176 
L 428.642462 283.14243 
L 428.946814 282.709105 
L 429.169403 282.497859 
L 429.345142 282.30828 
L 429.763481 282.129533 
L 429.869363 281.999536 
L 430.210252 281.679959 
L 430.899904 280.932474 
L 431.270287 280.802476 
L 431.430273 280.639979 
L 431.558014 280.461233 
L 431.677412 280.27707 
L 431.888636 279.941243 
L 432.708417 278.987929 
L 432.905862 278.836265 
L 433.083698 278.451689 
L 433.17402 278.272943 
L 433.475323 277.828785 
L 433.66503 277.547124 
L 433.925189 277.23838 
L 434.464775 276.880887 
L 434.580217 276.680475 
L 434.935468 276.084653 
L 435.85887 275.250503 
L 436.15097 275.125922 
L 436.252744 275.023007 
L 436.543626 274.828011 
L 436.804016 274.627599 
L 436.929672 274.508434 
L 437.628923 274.205107 
L 437.757433 274.037194 
L 438.237081 273.376373 
L 438.40408 273.116379 
L 438.587095 272.953882 
L 438.689965 272.775135 
L 439.209145 272.601806 
L 439.323893 272.37431 
L 439.529735 272.038483 
L 439.912785 271.567243 
L 439.985302 271.426412 
L 440.671564 270.966005 
L 440.856606 270.841424 
L 441.347639 270.20227 
L 441.48983 270.007274 
L 441.78828 269.595615 
L 441.950016 269.449368 
L 442.41694 269.238122 
L 442.541418 269.140624 
L 442.649997 268.956461 
L 442.929436 268.523136 
L 443.091469 268.376889 
L 443.232225 268.15481 
L 443.382171 267.986897 
L 443.389791 267.954398 
L 443.983836 267.84065 
L 444.63787 266.876502 
L 445.158165 266.481094 
L 445.647254 266.221099 
L 445.794615 266.080268 
L 445.972624 265.906938 
L 446.156304 265.744442 
L 446.261516 265.619861 
L 446.659162 265.289451 
L 447.203415 265.121537 
L 447.335125 265.040289 
L 447.444828 264.872376 
L 447.556056 264.758628 
L 447.75682 264.579881 
L 447.873368 264.384885 
L 448.019118 264.233222 
L 448.178392 264.016559 
L 448.407858 263.956977 
L 448.694557 263.832396 
L 448.796326 263.734898 
L 448.965622 263.556152 
L 449.07854 263.377405 
L 450.046371 262.532422 
L 450.269636 262.413258 
L 450.443858 262.147846 
L 450.560419 261.985349 
L 450.805148 261.644106 
L 450.976877 261.524942 
L 451.281385 261.162032 
L 451.939996 260.815373 
L 452.027459 260.685375 
L 452.156743 260.555378 
L 453.113267 259.59123 
L 453.48667 259.43415 
L 453.73015 259.114573 
L 453.875588 258.957493 
L 454.056092 258.762497 
L 454.181167 258.632499 
L 454.321931 258.399587 
L 454.474655 258.210008 
L 455.03625 258.036678 
L 456.261779 256.736704 
L 456.589778 256.606706 
L 456.935437 256.205881 
L 457.104939 256.054217 
L 457.338173 255.745473 
L 457.749403 255.425896 
L 458.146438 255.301315 
L 458.525033 254.765076 
L 458.638207 254.629662 
L 459.400827 253.681764 
L 459.731935 253.540934 
L 459.963088 253.286355 
L 460.111628 253.118442 
L 460.832513 252.311375 
L 461.305845 252.159711 
L 461.431189 251.986381 
L 461.933061 251.303895 
L 462.026431 251.173897 
L 462.518938 250.691824 
L 462.907352 250.54016 
L 463.108747 250.301831 
L 463.4753 249.749342 
L 463.627426 249.527263 
L 463.879707 249.142688 
L 464.720825 248.752695 
L 464.908149 248.433118 
L 465.533888 247.598968 
L 466.028403 247.458138 
L 466.155218 247.290224 
L 466.261356 247.225226 
L 466.459544 247.051896 
L 466.728651 246.591488 
L 466.886696 246.418158 
L 467.008903 246.250245 
L 467.719157 245.865669 
L 468.151687 245.378179 
L 468.248934 245.215682 
L 468.398831 245.069435 
L 468.718159 244.66861 
L 469.262796 244.506113 
L 469.823872 243.807377 
L 469.954476 243.623214 
L 470.05604 243.428218 
L 470.17808 243.29822 
L 470.547256 243.070725 
L 470.847333 242.946144 
L 471.015192 242.751148 
L 471.146349 242.594068 
L 471.485963 242.231158 
L 471.995804 241.830333 
L 472.362928 241.711168 
L 472.596227 241.451174 
L 472.696549 241.277844 
L 473.044553 241.061181 
L 473.201349 240.822853 
L 473.334266 240.687439 
L 473.466743 240.568274 
L 473.879881 240.411194 
L 474.062107 240.189115 
L 474.227478 239.891205 
L 474.319283 239.755791 
L 474.490832 239.593294 
L 474.818195 239.230384 
L 474.940714 239.073304 
L 475.658168 238.710395 
L 475.791265 238.564148 
L 476.057245 238.201238 
L 476.615046 237.524168 
L 477.098668 237.312922 
L 477.367384 236.93918 
L 477.479152 236.7821 
L 477.590576 236.635852 
L 477.754768 236.43544 
L 478.546818 235.882951 
L 478.792637 235.644622 
L 478.901596 235.541708 
L 479.249732 235.09755 
L 479.703378 234.425896 
L 479.80266 234.398814 
L 480.165079 234.241733 
L 480.354257 234.084653 
L 480.468565 233.932989 
L 480.608956 233.797575 
L 480.841472 233.58633 
L 481.121983 233.266753 
L 481.250026 233.039257 
L 481.342875 232.958009 
L 481.795939 232.811762 
L 481.919006 232.627599 
L 482.080111 232.465102 
L 482.210324 232.264689 
L 482.996467 231.7447 
L 483.462058 231.609286 
L 483.56328 231.517204 
L 483.68652 231.36554 
L 484.024658 230.932216 
L 484.32698 230.666804 
L 485.288451 230.016817 
L 485.401306 229.897653 
L 485.686809 229.610575 
L 485.795627 229.448078 
L 486.00168 229.220583 
L 486.074247 229.144751 
L 486.548484 228.982254 
L 486.688533 228.873923 
L 486.870229 228.70601 
L 486.986608 228.538096 
L 487.16573 228.424349 
L 487.435249 228.229353 
L 487.59857 228.083105 
L 488.15319 227.920609 
L 488.273003 227.747279 
L 488.489221 227.530616 
L 488.692614 227.319371 
L 488.807318 227.200206 
L 489.256906 226.875213 
L 490.389172 226.512303 
L 491.383373 225.992314 
L 491.769557 225.867733 
L 491.999054 225.678153 
L 492.087524 225.531906 
L 492.194992 225.412742 
L 493.203379 224.708589 
L 493.422057 224.432345 
L 494.189105 223.782357 
L 494.597745 223.592778 
L 494.752996 223.435698 
L 494.875155 223.316533 
L 495.25536 222.769461 
L 495.566925 222.498633 
L 496.123062 222.271137 
L 496.569586 221.854062 
L 496.65207 221.707815 
L 496.885615 221.415321 
L 497.070542 221.247408 
L 497.42417 221.063245 
L 497.611272 220.911581 
L 498.493854 219.676606 
L 499.272745 219.189115 
L 499.389199 219.091617 
L 500.549562 218.273717 
L 500.735354 218.12747 
L 500.846105 218.024555 
L 501.15102 217.683312 
L 501.289053 217.488316 
L 501.791973 216.816662 
L 502.634304 216.210008 
L 502.869504 215.93918 
L 503.061248 215.733351 
L 503.260148 215.413774 
L 503.36773 215.240444 
L 503.814209 215.061697 
L 503.881705 214.920867 
L 504.007633 214.709621 
L 504.165859 214.400877 
L 504.796462 213.512561 
L 504.952354 213.2634 
L 505.435655 213.095486 
L 505.568303 212.960072 
L 506.53928 211.161775 
L 507.110036 210.983028 
L 507.227301 210.912613 
L 507.519125 210.636368 
L 507.739213 210.425123 
L 508.029352 210.175961 
L 508.093603 210.132628 
L 508.716427 209.991798 
L 508.831572 209.888883 
L 509.454675 209.309311 
L 509.620628 209.087232 
L 510.236583 208.794738 
L 510.318439 208.643075 
L 510.449875 208.464328 
L 510.640122 208.280165 
L 510.772283 208.096002 
L 510.945436 207.890173 
L 511.16434 207.592262 
L 511.547601 207.413516 
L 511.775674 207.283518 
L 512.034357 206.861027 
L 512.281285 206.530616 
L 512.436559 206.308538 
L 512.845035 205.766882 
L 513.337988 205.642301 
L 513.748583 205.051896 
L 513.852397 204.894816 
L 514.07235 204.613155 
L 514.159018 204.439825 
L 514.426701 204.109414 
L 514.891774 203.876502 
L 514.976731 203.730255 
L 515.122066 203.562342 
L 515.261338 203.356513 
L 515.368631 203.231932 
L 515.469801 203.053185 
L 515.994543 202.392365 
L 516.468023 202.219035 
L 516.830111 201.812793 
L 516.945846 201.62863 
L 517.143895 201.336136 
L 517.252711 201.151973 
L 517.621712 200.734898 
L 517.891615 200.588651 
L 518.002501 200.561568 
L 518.187616 200.377405 
L 518.466307 200.025329 
L 518.841663 199.700335 
L 519.21592 199.212845 
L 519.468707 199.066598 
L 519.677417 198.882435 
L 520.08769 198.443694 
L 520.182796 198.30828 
L 520.535074 197.690792 
L 520.686089 197.463296 
L 521.478089 196.927057 
L 521.579379 196.791643 
L 521.686539 196.656229 
L 521.816498 196.412484 
L 522.172341 196.044158 
L 522.304348 195.838329 
L 522.886467 195.502502 
L 523.244544 195.090843 
L 523.635827 194.711684 
L 523.79187 194.505855 
L 525.137637 193.297962 
L 525.386525 192.956719 
L 526.19902 192.463812 
L 526.460528 192.198401 
L 526.690499 192.041321 
L 527.022389 191.813825 
L 527.541514 191.602579 
L 528.585855 190.459685 
L 528.694452 190.400103 
L 528.895227 190.335104 
L 529.175587 190.205107 
L 529.300936 190.085943 
L 529.630022 189.831364 
L 529.797248 189.598452 
L 529.977155 189.38179 
L 530.108653 189.24096 
L 530.575147 189.05138 
L 530.756728 188.915966 
L 531.419082 188.190147 
L 531.501431 188.06015 
L 531.607454 187.935569 
L 531.719161 187.805571 
L 532.399271 187.388496 
L 532.56792 187.17725 
L 533.585594 186.310601 
L 533.975756 186.066856 
L 534.094674 185.909776 
L 534.255695 185.758112 
L 534.408948 185.546866 
L 534.548982 185.384369 
L 534.694023 185.146041 
L 534.810735 184.994377 
L 534.915631 184.891462 
L 535.350813 184.739799 
L 535.609093 184.474387 
L 535.832013 184.236059 
L 535.969866 184.106061 
L 536.836512 183.363993 
L 537.052962 183.201496 
L 537.237496 183.001083 
L 537.376732 182.838587 
L 537.555875 182.621924 
L 537.719519 182.421511 
L 538.080431 181.906938 
L 538.965504 181.3382 
L 539.920951 180.357802 
L 540.209186 180.211555 
L 540.315435 180.130307 
L 540.476165 179.96781 
L 541.2074 178.770751 
L 541.778676 178.570338 
L 541.999682 178.212845 
L 542.090986 178.061181 
L 542.24347 177.855352 
L 543.052499 177.091617 
L 543.332165 176.934537 
L 543.605361 176.528295 
L 543.781411 176.252051 
L 543.90911 176.057054 
L 544.024161 175.899974 
L 544.157967 175.694145 
L 544.275219 175.585814 
L 544.631794 175.255404 
L 544.872351 175.130823 
L 545.092035 174.762497 
L 545.285312 174.448336 
L 545.630575 174.025845 
L 545.790905 173.841682 
L 546.875915 173.056281 
L 546.983837 172.910034 
L 547.386531 172.514625 
L 547.532205 172.314212 
L 547.768775 172.243797 
L 548.116468 172.054217 
L 548.25664 171.951303 
L 548.719801 171.360898 
L 548.892224 171.019654 
L 549.381375 170.808409 
L 549.704414 170.635079 
L 549.83339 170.537581 
L 550.039365 170.353418 
L 550.18747 170.174671 
L 550.305538 170.017591 
L 550.597036 169.616766 
L 550.704156 169.557183 
L 551.008281 169.410936 
L 551.436224 169.026361 
L 551.564554 168.820531 
L 551.733738 168.663451 
L 551.914641 168.295125 
L 552.396224 167.8618 
L 552.901746 167.498891 
L 553.015201 167.417643 
L 554.242509 166.334331 
L 554.443268 166.198917 
L 555.23411 165.207686 
L 555.378395 164.963941 
L 555.506884 164.806861 
L 555.786769 164.638948 
L 556.104628 164.297704 
L 556.255041 164.102708 
L 556.57063 163.750632 
L 556.682377 163.604385 
L 556.79979 163.496054 
L 557.706333 162.976064 
L 558.58693 161.773588 
L 558.955212 161.621924 
L 559.665061 160.798607 
L 559.826229 160.63611 
L 559.949113 160.49528 
L 560.105597 160.468197 
L 560.671344 160.267784 
L 560.977109 159.704462 
L 561.093292 159.514883 
L 561.208007 159.357802 
L 561.438573 159.005726 
L 561.561578 158.79448 
L 561.954795 158.404488 
L 562.256307 158.198659 
L 562.374025 158.052412 
L 562.589393 157.835749 
L 562.753169 157.516172 
L 562.920081 157.212845 
L 563.068888 156.947434 
L 563.426602 156.579108 
L 563.876949 156.389528 
L 564.1306 156.189115 
L 564.293055 156.075368 
L 564.641708 155.864122 
L 564.750683 155.728708 
L 565.031535 155.566211 
L 565.176305 155.522879 
L 565.476312 155.382048 
L 565.618218 155.246634 
L 566.147641 154.688728 
L 566.25455 154.639979 
L 566.966606 154.379985 
L 567.25368 154.076657 
L 568.067607 153.134176 
L 568.542039 152.944596 
L 568.662366 152.7821 
L 569.140006 152.256693 
L 569.255229 152.110446 
L 569.584665 151.807119 
L 570.110627 151.650039 
L 570.378221 151.384627 
L 571.550559 150.415063 
L 571.722241 150.285066 
L 572.902248 149.499665 
L 573.249644 149.369667 
L 573.363907 149.310085 
L 573.80466 149.147588 
L 574.132521 148.941759 
L 574.340457 148.773846 
L 574.984372 148.438019 
L 575.096654 148.367604 
L 575.239092 148.188857 
L 575.429897 147.966778 
L 575.541498 147.815115 
L 575.837445 147.38179 
L 576.466827 147.056796 
L 576.620888 146.883467 
L 576.812971 146.645138 
L 576.95549 146.482641 
L 577.115557 146.336394 
L 577.256089 146.211813 
L 577.445974 146.038483 
L 577.548226 145.940985 
L 578.232377 145.599742 
L 579.536991 144.808924 
L 579.716504 144.678927 
L 580.865079 143.779778 
L 581.231827 143.649781 
L 581.363276 143.492701 
L 581.571572 143.308538 
L 583.300605 141.921898 
L 583.416584 141.851483 
L 583.603736 141.629404 
L 583.708231 141.537323 
L 584.401726 141.093165 
L 584.547714 141.011916 
L 584.674789 140.865669 
L 584.778825 140.719422 
L 585.127986 140.361929 
L 585.252063 140.242765 
L 585.956707 139.912355 
L 586.224789 139.522363 
L 586.483451 139.202786 
L 586.596779 139.121537 
L 586.776962 138.942791 
L 586.884495 138.807377 
L 587.425872 138.590714 
L 587.540149 138.460717 
L 587.704902 138.341553 
L 587.840562 138.200722 
L 588.700097 137.328656 
L 589.545966 136.792417 
L 589.765173 136.570338 
L 590.879607 136.093681 
L 590.997404 135.9691 
L 591.177446 135.774104 
L 591.618321 135.351612 
L 591.77685 135.248697 
L 592.248252 135.042868 
L 592.376376 134.842456 
L 592.599223 134.566211 
L 592.848962 134.306216 
L 592.949985 134.165386 
L 593.094773 133.959556 
L 593.218652 133.802476 
L 593.668625 133.574981 
L 594.015499 133.390818 
L 594.328086 133.092907 
L 594.535769 132.897911 
L 594.655225 132.751664 
L 594.789 132.594583 
L 594.882148 132.486252 
L 595.358124 132.345422 
L 596.472665 131.300026 
L 597.045656 131.045448 
L 597.157116 130.996698 
L 597.382738 130.812535 
L 597.569994 130.666288 
L 597.908552 130.379211 
L 598.035187 130.308795 
L 598.501431 130.130049 
L 599.521269 129.182151 
L 599.662753 129.084653 
L 600.107803 128.91674 
L 600.609636 128.456332 
L 600.735814 128.293835 
L 600.868421 128.180088 
L 601.401125 127.925509 
L 601.562829 127.871344 
L 601.745016 127.746763 
L 602.522631 126.955945 
L 602.630589 126.820531 
L 603.486897 126.20846 
L 604.187908 125.509724 
L 604.815028 125.244313 
L 605.093872 124.973485 
L 605.275855 124.773072 
L 606.250065 124.150168 
L 606.519279 124.02017 
L 606.729053 123.776425 
L 606.850107 123.68976 
L 607.066257 123.478514 
L 607.213095 123.321434 
L 607.622019 123.018107 
L 608.06715 122.833944 
L 608.160575 122.731029 
L 608.26866 122.601032 
L 608.525143 122.292288 
L 608.684451 122.129791 
L 608.923107 121.86438 
L 609.678584 121.322724 
L 609.851891 121.143977 
L 610.149134 120.8244 
L 610.279925 120.694403 
L 610.470073 120.52649 
L 610.590603 120.369409 
L 610.696428 120.266495 
L 611.347667 119.952334 
L 611.638314 119.670673 
L 612.671911 118.885272 
L 612.828043 118.749858 
L 612.933886 118.663193 
L 613.053915 118.49528 
L 613.15533 118.381532 
L 613.285496 118.235285 
L 613.576949 117.97529 
L 613.827567 117.81821 
L 613.934054 117.785711 
L 614.265146 117.650297 
L 614.438205 117.498633 
L 614.542616 117.379469 
L 614.766209 117.108641 
L 615.113698 116.702399 
L 615.852416 116.458654 
L 616.414525 115.911581 
L 616.727 115.716585 
L 616.845167 115.635337 
L 617.779908 115.061181 
L 617.891702 114.909518 
L 618.091645 114.719938 
L 618.300185 114.530359 
L 618.42626 114.394945 
L 619.101281 114.059118 
L 619.232535 113.94537 
L 619.400477 113.77204 
L 619.546642 113.59871 
L 619.660128 113.42538 
L 619.91587 113.235801 
L 620.027612 113.116637 
L 620.190297 113.046221 
L 620.72396 112.840392 
L 620.877273 112.721228 
L 621.139884 112.526232 
L 621.410636 112.271653 
L 621.54014 112.206655 
L 622.280292 111.881661 
L 622.636364 111.6 
L 622.636364 111.6 
" style="fill:none;stroke:#92c6ff;stroke-linecap:round;stroke-width:1.5;"/>
   </g>
   <g id="line2d_24">
    <defs>
     <path d="M 0 2.5 
C 0.663008 2.5 1.29895 2.236584 1.767767 1.767767 
C 2.236584 1.29895 2.5 0.663008 2.5 0 
C 2.5 -0.663008 2.236584 -1.29895 1.767767 -1.767767 
C 1.29895 -2.236584 0.663008 -2.5 0 -2.5 
C -0.663008 -2.5 -1.29895 -2.236584 -1.767767 -1.767767 
C -2.236584 -1.29895 -2.5 -0.663008 -2.5 0 
C -2.5 0.663008 -2.236584 1.29895 -1.767767 1.767767 
C -1.29895 2.236584 -0.663008 2.5 0 2.5 
z
" id="m65a41742da" style="stroke:#696969;"/>
    </defs>
    <g clip-path="url(#p62ee19b940)">
     <use style="fill:#696969;stroke:#696969;" x="115.363636" xlink:href="#m65a41742da" y="615.6"/>
    </g>
   </g>
   <g id="line2d_25">
    <g clip-path="url(#p62ee19b940)">
     <use style="fill:#696969;stroke:#696969;" x="197.340322" xlink:href="#m65a41742da" y="565.198917"/>
    </g>
   </g>
   <g id="line2d_26">
    <g clip-path="url(#p62ee19b940)">
     <use style="fill:#696969;stroke:#696969;" x="240.78943" xlink:href="#m65a41742da" y="514.797833"/>
    </g>
   </g>
   <g id="line2d_27">
    <g clip-path="url(#p62ee19b940)">
     <use style="fill:#696969;stroke:#696969;" x="284.563287" xlink:href="#m65a41742da" y="464.39675"/>
    </g>
   </g>
   <g id="line2d_28">
    <g clip-path="url(#p62ee19b940)">
     <use style="fill:#696969;stroke:#696969;" x="318.673278" xlink:href="#m65a41742da" y="413.995667"/>
    </g>
   </g>
   <g id="line2d_29">
    <g clip-path="url(#p62ee19b940)">
     <use style="fill:#696969;stroke:#696969;" x="361.315131" xlink:href="#m65a41742da" y="363.594583"/>
    </g>
   </g>
   <g id="line2d_30">
    <g clip-path="url(#p62ee19b940)">
     <use style="fill:#696969;stroke:#696969;" x="400.344024" xlink:href="#m65a41742da" y="313.1935"/>
    </g>
   </g>
   <g id="line2d_31">
    <g clip-path="url(#p62ee19b940)">
     <use style="fill:#696969;stroke:#696969;" x="449.595362" xlink:href="#m65a41742da" y="262.792417"/>
    </g>
   </g>
   <g id="line2d_32">
    <g clip-path="url(#p62ee19b940)">
     <use style="fill:#696969;stroke:#696969;" x="505.83171" xlink:href="#m65a41742da" y="212.391334"/>
    </g>
   </g>
   <g id="line2d_33">
    <g clip-path="url(#p62ee19b940)">
     <use style="fill:#696969;stroke:#696969;" x="558.45218" xlink:href="#m65a41742da" y="161.99025"/>
    </g>
   </g>
   <g id="line2d_34">
    <g clip-path="url(#p62ee19b940)">
     <use style="fill:#696969;stroke:#696969;" x="622.636364" xlink:href="#m65a41742da" y="111.6"/>
    </g>
   </g>
   <g id="patch_3">
    <path d="M 90 640.8 
L 90 86.4 
" style="fill:none;stroke:#cccccc;stroke-linecap:square;stroke-linejoin:miter;"/>
   </g>
   <g id="patch_4">
    <path d="M 648 640.8 
L 648 86.4 
" style="fill:none;stroke:#cccccc;stroke-linecap:square;stroke-linejoin:miter;"/>
   </g>
   <g id="patch_5">
    <path d="M 90 640.8 
L 648 640.8 
" style="fill:none;stroke:#cccccc;stroke-linecap:square;stroke-linejoin:miter;"/>
   </g>
   <g id="patch_6">
    <path d="M 90 86.4 
L 648 86.4 
" style="fill:none;stroke:#cccccc;stroke-linecap:square;stroke-linejoin:miter;"/>
   </g>
   <g id="text_12">
    <!-- 1 (2014-06-06) -->
    <defs>
     <path id="DejaVuSans-32"/>
     <path d="M 31 75.875 
Q 24.46875 64.65625 21.28125 53.65625 
Q 18.109375 42.671875 18.109375 31.390625 
Q 18.109375 20.125 21.3125 9.0625 
Q 24.515625 -2 31 -13.1875 
L 23.1875 -13.1875 
Q 15.875 -1.703125 12.234375 9.375 
Q 8.59375 20.453125 8.59375 31.390625 
Q 8.59375 42.28125 12.203125 53.3125 
Q 15.828125 64.359375 23.1875 75.875 
z
" id="DejaVuSans-40"/>
     <path d="M 4.890625 31.390625 
L 31.203125 31.390625 
L 31.203125 23.390625 
L 4.890625 23.390625 
z
" id="DejaVuSans-45"/>
     <path d="M 8.015625 75.875 
L 15.828125 75.875 
Q 23.140625 64.359375 26.78125 53.3125 
Q 30.421875 42.28125 30.421875 31.390625 
Q 30.421875 20.453125 26.78125 9.375 
Q 23.140625 -1.703125 15.828125 -13.1875 
L 8.015625 -13.1875 
Q 14.5 -2 17.703125 9.0625 
Q 20.90625 20.125 20.90625 31.390625 
Q 20.90625 42.671875 17.703125 53.65625 
Q 14.5 64.65625 8.015625 75.875 
z
" id="DejaVuSans-41"/>
    </defs>
    <g style="fill:#262626;" transform="translate(120.363636 623.198437)scale(0.1 -0.1)">
     <use xlink:href="#DejaVuSans-49"/>
     <use x="63.623047" xlink:href="#DejaVuSans-32"/>
     <use x="95.410156" xlink:href="#DejaVuSans-40"/>
     <use x="134.423828" xlink:href="#DejaVuSans-50"/>
     <use x="198.046875" xlink:href="#DejaVuSans-48"/>
     <use x="261.669922" xlink:href="#DejaVuSans-49"/>
     <use x="325.292969" xlink:href="#DejaVuSans-52"/>
     <use x="388.916016" xlink:href="#DejaVuSans-45"/>
     <use x="425" xlink:href="#DejaVuSans-48"/>
     <use x="488.623047" xlink:href="#DejaVuSans-54"/>
     <use x="552.246094" xlink:href="#DejaVuSans-45"/>
     <use x="588.330078" xlink:href="#DejaVuSans-48"/>
     <use x="651.953125" xlink:href="#DejaVuSans-54"/>
     <use x="715.576172" xlink:href="#DejaVuSans-41"/>
    </g>
   </g>
   <g id="text_13">
    <!-- 9306 (2015-06-05) -->
    <defs>
     <path d="M 40.578125 39.3125 
Q 47.65625 37.796875 51.625 33 
Q 55.609375 28.21875 55.609375 21.1875 
Q 55.609375 10.40625 48.1875 4.484375 
Q 40.765625 -1.421875 27.09375 -1.421875 
Q 22.515625 -1.421875 17.65625 -0.515625 
Q 12.796875 0.390625 7.625 2.203125 
L 7.625 11.71875 
Q 11.71875 9.328125 16.59375 8.109375 
Q 21.484375 6.890625 26.8125 6.890625 
Q 36.078125 6.890625 40.9375 10.546875 
Q 45.796875 14.203125 45.796875 21.1875 
Q 45.796875 27.640625 41.28125 31.265625 
Q 36.765625 34.90625 28.71875 34.90625 
L 20.21875 34.90625 
L 20.21875 43.015625 
L 29.109375 43.015625 
Q 36.375 43.015625 40.234375 45.921875 
Q 44.09375 48.828125 44.09375 54.296875 
Q 44.09375 59.90625 40.109375 62.90625 
Q 36.140625 65.921875 28.71875 65.921875 
Q 24.65625 65.921875 20.015625 65.03125 
Q 15.375 64.15625 9.8125 62.3125 
L 9.8125 71.09375 
Q 15.4375 72.65625 20.34375 73.4375 
Q 25.25 74.21875 29.59375 74.21875 
Q 40.828125 74.21875 47.359375 69.109375 
Q 53.90625 64.015625 53.90625 55.328125 
Q 53.90625 49.265625 50.4375 45.09375 
Q 46.96875 40.921875 40.578125 39.3125 
z
" id="DejaVuSans-51"/>
    </defs>
    <g style="fill:#262626;" transform="translate(202.340322 572.797354)scale(0.1 -0.1)">
     <use xlink:href="#DejaVuSans-57"/>
     <use x="63.623047" xlink:href="#DejaVuSans-51"/>
     <use x="127.246094" xlink:href="#DejaVuSans-48"/>
     <use x="190.869141" xlink:href="#DejaVuSans-54"/>
     <use x="254.492188" xlink:href="#DejaVuSans-32"/>
     <use x="286.279297" xlink:href="#DejaVuSans-40"/>
     <use x="325.292969" xlink:href="#DejaVuSans-50"/>
     <use x="388.916016" xlink:href="#DejaVuSans-48"/>
     <use x="452.539062" xlink:href="#DejaVuSans-49"/>
     <use x="516.162109" xlink:href="#DejaVuSans-53"/>
     <use x="579.785156" xlink:href="#DejaVuSans-45"/>
     <use x="615.869141" xlink:href="#DejaVuSans-48"/>
     <use x="679.492188" xlink:href="#DejaVuSans-54"/>
     <use x="743.115234" xlink:href="#DejaVuSans-45"/>
     <use x="779.199219" xlink:href="#DejaVuSans-48"/>
     <use x="842.822266" xlink:href="#DejaVuSans-53"/>
     <use x="906.445312" xlink:href="#DejaVuSans-41"/>
    </g>
   </g>
   <g id="text_14">
    <!-- 18611 (2015-12-15) -->
    <g style="fill:#262626;" transform="translate(245.78943 522.396271)scale(0.1 -0.1)">
     <use xlink:href="#DejaVuSans-49"/>
     <use x="63.623047" xlink:href="#DejaVuSans-56"/>
     <use x="127.246094" xlink:href="#DejaVuSans-54"/>
     <use x="190.869141" xlink:href="#DejaVuSans-49"/>
     <use x="254.492188" xlink:href="#DejaVuSans-49"/>
     <use x="318.115234" xlink:href="#DejaVuSans-32"/>
     <use x="349.902344" xlink:href="#DejaVuSans-40"/>
     <use x="388.916016" xlink:href="#DejaVuSans-50"/>
     <use x="452.539062" xlink:href="#DejaVuSans-48"/>
     <use x="516.162109" xlink:href="#DejaVuSans-49"/>
     <use x="579.785156" xlink:href="#DejaVuSans-53"/>
     <use x="643.408203" xlink:href="#DejaVuSans-45"/>
     <use x="679.492188" xlink:href="#DejaVuSans-49"/>
     <use x="743.115234" xlink:href="#DejaVuSans-50"/>
     <use x="806.738281" xlink:href="#DejaVuSans-45"/>
     <use x="842.822266" xlink:href="#DejaVuSans-49"/>
     <use x="906.445312" xlink:href="#DejaVuSans-53"/>
     <use x="970.068359" xlink:href="#DejaVuSans-41"/>
    </g>
   </g>
   <g id="text_15">
    <!-- 27916 (2016-06-26) -->
    <g style="fill:#262626;" transform="translate(289.563287 471.995188)scale(0.1 -0.1)">
     <use xlink:href="#DejaVuSans-50"/>
     <use x="63.623047" xlink:href="#DejaVuSans-55"/>
     <use x="127.246094" xlink:href="#DejaVuSans-57"/>
     <use x="190.869141" xlink:href="#DejaVuSans-49"/>
     <use x="254.492188" xlink:href="#DejaVuSans-54"/>
     <use x="318.115234" xlink:href="#DejaVuSans-32"/>
     <use x="349.902344" xlink:href="#DejaVuSans-40"/>
     <use x="388.916016" xlink:href="#DejaVuSans-50"/>
     <use x="452.539062" xlink:href="#DejaVuSans-48"/>
     <use x="516.162109" xlink:href="#DejaVuSans-49"/>
     <use x="579.785156" xlink:href="#DejaVuSans-54"/>
     <use x="643.408203" xlink:href="#DejaVuSans-45"/>
     <use x="679.492188" xlink:href="#DejaVuSans-48"/>
     <use x="743.115234" xlink:href="#DejaVuSans-54"/>
     <use x="806.738281" xlink:href="#DejaVuSans-45"/>
     <use x="842.822266" xlink:href="#DejaVuSans-50"/>
     <use x="906.445312" xlink:href="#DejaVuSans-54"/>
     <use x="970.068359" xlink:href="#DejaVuSans-41"/>
    </g>
   </g>
   <g id="text_16">
    <!-- 37221 (2016-11-25) -->
    <g style="fill:#262626;" transform="translate(323.673278 421.594104)scale(0.1 -0.1)">
     <use xlink:href="#DejaVuSans-51"/>
     <use x="63.623047" xlink:href="#DejaVuSans-55"/>
     <use x="127.246094" xlink:href="#DejaVuSans-50"/>
     <use x="190.869141" xlink:href="#DejaVuSans-50"/>
     <use x="254.492188" xlink:href="#DejaVuSans-49"/>
     <use x="318.115234" xlink:href="#DejaVuSans-32"/>
     <use x="349.902344" xlink:href="#DejaVuSans-40"/>
     <use x="388.916016" xlink:href="#DejaVuSans-50"/>
     <use x="452.539062" xlink:href="#DejaVuSans-48"/>
     <use x="516.162109" xlink:href="#DejaVuSans-49"/>
     <use x="579.785156" xlink:href="#DejaVuSans-54"/>
     <use x="643.408203" xlink:href="#DejaVuSans-45"/>
     <use x="679.492188" xlink:href="#DejaVuSans-49"/>
     <use x="743.115234" xlink:href="#DejaVuSans-49"/>
     <use x="806.738281" xlink:href="#DejaVuSans-45"/>
     <use x="842.822266" xlink:href="#DejaVuSans-50"/>
     <use x="906.445312" xlink:href="#DejaVuSans-53"/>
     <use x="970.068359" xlink:href="#DejaVuSans-41"/>
    </g>
   </g>
   <g id="text_17">
    <!-- 46526 (2017-06-02) -->
    <g style="fill:#262626;" transform="translate(366.315131 371.193021)scale(0.1 -0.1)">
     <use xlink:href="#DejaVuSans-52"/>
     <use x="63.623047" xlink:href="#DejaVuSans-54"/>
     <use x="127.246094" xlink:href="#DejaVuSans-53"/>
     <use x="190.869141" xlink:href="#DejaVuSans-50"/>
     <use x="254.492188" xlink:href="#DejaVuSans-54"/>
     <use x="318.115234" xlink:href="#DejaVuSans-32"/>
     <use x="349.902344" xlink:href="#DejaVuSans-40"/>
     <use x="388.916016" xlink:href="#DejaVuSans-50"/>
     <use x="452.539062" xlink:href="#DejaVuSans-48"/>
     <use x="516.162109" xlink:href="#DejaVuSans-49"/>
     <use x="579.785156" xlink:href="#DejaVuSans-55"/>
     <use x="643.408203" xlink:href="#DejaVuSans-45"/>
     <use x="679.492188" xlink:href="#DejaVuSans-48"/>
     <use x="743.115234" xlink:href="#DejaVuSans-54"/>
     <use x="806.738281" xlink:href="#DejaVuSans-45"/>
     <use x="842.822266" xlink:href="#DejaVuSans-48"/>
     <use x="906.445312" xlink:href="#DejaVuSans-50"/>
     <use x="970.068359" xlink:href="#DejaVuSans-41"/>
    </g>
   </g>
   <g id="text_18">
    <!-- 55831 (2017-11-22) -->
    <g style="fill:#262626;" transform="translate(405.344024 320.791938)scale(0.1 -0.1)">
     <use xlink:href="#DejaVuSans-53"/>
     <use x="63.623047" xlink:href="#DejaVuSans-53"/>
     <use x="127.246094" xlink:href="#DejaVuSans-56"/>
     <use x="190.869141" xlink:href="#DejaVuSans-51"/>
     <use x="254.492188" xlink:href="#DejaVuSans-49"/>
     <use x="318.115234" xlink:href="#DejaVuSans-32"/>
     <use x="349.902344" xlink:href="#DejaVuSans-40"/>
     <use x="388.916016" xlink:href="#DejaVuSans-50"/>
     <use x="452.539062" xlink:href="#DejaVuSans-48"/>
     <use x="516.162109" xlink:href="#DejaVuSans-49"/>
     <use x="579.785156" xlink:href="#DejaVuSans-55"/>
     <use x="643.408203" xlink:href="#DejaVuSans-45"/>
     <use x="679.492188" xlink:href="#DejaVuSans-49"/>
     <use x="743.115234" xlink:href="#DejaVuSans-49"/>
     <use x="806.738281" xlink:href="#DejaVuSans-45"/>
     <use x="842.822266" xlink:href="#DejaVuSans-50"/>
     <use x="906.445312" xlink:href="#DejaVuSans-50"/>
     <use x="970.068359" xlink:href="#DejaVuSans-41"/>
    </g>
   </g>
   <g id="text_19">
    <!-- 65136 (2018-06-29) -->
    <g style="fill:#262626;" transform="translate(454.595362 270.390854)scale(0.1 -0.1)">
     <use xlink:href="#DejaVuSans-54"/>
     <use x="63.623047" xlink:href="#DejaVuSans-53"/>
     <use x="127.246094" xlink:href="#DejaVuSans-49"/>
     <use x="190.869141" xlink:href="#DejaVuSans-51"/>
     <use x="254.492188" xlink:href="#DejaVuSans-54"/>
     <use x="318.115234" xlink:href="#DejaVuSans-32"/>
     <use x="349.902344" xlink:href="#DejaVuSans-40"/>
     <use x="388.916016" xlink:href="#DejaVuSans-50"/>
     <use x="452.539062" xlink:href="#DejaVuSans-48"/>
     <use x="516.162109" xlink:href="#DejaVuSans-49"/>
     <use x="579.785156" xlink:href="#DejaVuSans-56"/>
     <use x="643.408203" xlink:href="#DejaVuSans-45"/>
     <use x="679.492188" xlink:href="#DejaVuSans-48"/>
     <use x="743.115234" xlink:href="#DejaVuSans-54"/>
     <use x="806.738281" xlink:href="#DejaVuSans-45"/>
     <use x="842.822266" xlink:href="#DejaVuSans-50"/>
     <use x="906.445312" xlink:href="#DejaVuSans-57"/>
     <use x="970.068359" xlink:href="#DejaVuSans-41"/>
    </g>
   </g>
   <g id="text_20">
    <!-- 74441 (2019-03-05) -->
    <g style="fill:#262626;" transform="translate(510.83171 219.989771)scale(0.1 -0.1)">
     <use xlink:href="#DejaVuSans-55"/>
     <use x="63.623047" xlink:href="#DejaVuSans-52"/>
     <use x="127.246094" xlink:href="#DejaVuSans-52"/>
     <use x="190.869141" xlink:href="#DejaVuSans-52"/>
     <use x="254.492188" xlink:href="#DejaVuSans-49"/>
     <use x="318.115234" xlink:href="#DejaVuSans-32"/>
     <use x="349.902344" xlink:href="#DejaVuSans-40"/>
     <use x="388.916016" xlink:href="#DejaVuSans-50"/>
     <use x="452.539062" xlink:href="#DejaVuSans-48"/>
     <use x="516.162109" xlink:href="#DejaVuSans-49"/>
     <use x="579.785156" xlink:href="#DejaVuSans-57"/>
     <use x="643.408203" xlink:href="#DejaVuSans-45"/>
     <use x="679.492188" xlink:href="#DejaVuSans-48"/>
     <use x="743.115234" xlink:href="#DejaVuSans-51"/>
     <use x="806.738281" xlink:href="#DejaVuSans-45"/>
     <use x="842.822266" xlink:href="#DejaVuSans-48"/>
     <use x="906.445312" xlink:href="#DejaVuSans-53"/>
     <use x="970.068359" xlink:href="#DejaVuSans-41"/>
    </g>
   </g>
   <g id="text_21">
    <!-- 83746 (2019-10-25) -->
    <g style="fill:#262626;" transform="translate(563.45218 169.588688)scale(0.1 -0.1)">
     <use xlink:href="#DejaVuSans-56"/>
     <use x="63.623047" xlink:href="#DejaVuSans-51"/>
     <use x="127.246094" xlink:href="#DejaVuSans-55"/>
     <use x="190.869141" xlink:href="#DejaVuSans-52"/>
     <use x="254.492188" xlink:href="#DejaVuSans-54"/>
     <use x="318.115234" xlink:href="#DejaVuSans-32"/>
     <use x="349.902344" xlink:href="#DejaVuSans-40"/>
     <use x="388.916016" xlink:href="#DejaVuSans-50"/>
     <use x="452.539062" xlink:href="#DejaVuSans-48"/>
     <use x="516.162109" xlink:href="#DejaVuSans-49"/>
     <use x="579.785156" xlink:href="#DejaVuSans-57"/>
     <use x="643.408203" xlink:href="#DejaVuSans-45"/>
     <use x="679.492188" xlink:href="#DejaVuSans-49"/>
     <use x="743.115234" xlink:href="#DejaVuSans-48"/>
     <use x="806.738281" xlink:href="#DejaVuSans-45"/>
     <use x="842.822266" xlink:href="#DejaVuSans-50"/>
     <use x="906.445312" xlink:href="#DejaVuSans-53"/>
     <use x="970.068359" xlink:href="#DejaVuSans-41"/>
    </g>
   </g>
   <g id="text_22">
    <!-- 93049 (2020-08-05) -->
    <g style="fill:#262626;" transform="translate(627.636364 119.198437)scale(0.1 -0.1)">
     <use xlink:href="#DejaVuSans-57"/>
     <use x="63.623047" xlink:href="#DejaVuSans-51"/>
     <use x="127.246094" xlink:href="#DejaVuSans-48"/>
     <use x="190.869141" xlink:href="#DejaVuSans-52"/>
     <use x="254.492188" xlink:href="#DejaVuSans-57"/>
     <use x="318.115234" xlink:href="#DejaVuSans-32"/>
     <use x="349.902344" xlink:href="#DejaVuSans-40"/>
     <use x="388.916016" xlink:href="#DejaVuSans-50"/>
     <use x="452.539062" xlink:href="#DejaVuSans-48"/>
     <use x="516.162109" xlink:href="#DejaVuSans-50"/>
     <use x="579.785156" xlink:href="#DejaVuSans-48"/>
     <use x="643.408203" xlink:href="#DejaVuSans-45"/>
     <use x="679.492188" xlink:href="#DejaVuSans-48"/>
     <use x="743.115234" xlink:href="#DejaVuSans-56"/>
     <use x="806.738281" xlink:href="#DejaVuSans-45"/>
     <use x="842.822266" xlink:href="#DejaVuSans-48"/>
     <use x="906.445312" xlink:href="#DejaVuSans-53"/>
     <use x="970.068359" xlink:href="#DejaVuSans-41"/>
    </g>
   </g>
   <g id="text_23">
    <!-- Created issues and PRs over time -->
    <defs>
     <path d="M 64.40625 67.28125 
L 64.40625 56.890625 
Q 59.421875 61.53125 53.78125 63.8125 
Q 48.140625 66.109375 41.796875 66.109375 
Q 29.296875 66.109375 22.65625 58.46875 
Q 16.015625 50.828125 16.015625 36.375 
Q 16.015625 21.96875 22.65625 14.328125 
Q 29.296875 6.6875 41.796875 6.6875 
Q 48.140625 6.6875 53.78125 8.984375 
Q 59.421875 11.28125 64.40625 15.921875 
L 64.40625 5.609375 
Q 59.234375 2.09375 53.4375 0.328125 
Q 47.65625 -1.421875 41.21875 -1.421875 
Q 24.65625 -1.421875 15.125 8.703125 
Q 5.609375 18.84375 5.609375 36.375 
Q 5.609375 53.953125 15.125 64.078125 
Q 24.65625 74.21875 41.21875 74.21875 
Q 47.75 74.21875 53.53125 72.484375 
Q 59.328125 70.75 64.40625 67.28125 
z
" id="DejaVuSans-67"/>
     <path d="M 41.109375 46.296875 
Q 39.59375 47.171875 37.8125 47.578125 
Q 36.03125 48 33.890625 48 
Q 26.265625 48 22.1875 43.046875 
Q 18.109375 38.09375 18.109375 28.8125 
L 18.109375 0 
L 9.078125 0 
L 9.078125 54.6875 
L 18.109375 54.6875 
L 18.109375 46.1875 
Q 20.953125 51.171875 25.484375 53.578125 
Q 30.03125 56 36.53125 56 
Q 37.453125 56 38.578125 55.875 
Q 39.703125 55.765625 41.0625 55.515625 
z
" id="DejaVuSans-114"/>
     <path d="M 56.203125 29.59375 
L 56.203125 25.203125 
L 14.890625 25.203125 
Q 15.484375 15.921875 20.484375 11.0625 
Q 25.484375 6.203125 34.421875 6.203125 
Q 39.59375 6.203125 44.453125 7.46875 
Q 49.3125 8.734375 54.109375 11.28125 
L 54.109375 2.78125 
Q 49.265625 0.734375 44.1875 -0.34375 
Q 39.109375 -1.421875 33.890625 -1.421875 
Q 20.796875 -1.421875 13.15625 6.1875 
Q 5.515625 13.8125 5.515625 26.8125 
Q 5.515625 40.234375 12.765625 48.109375 
Q 20.015625 56 32.328125 56 
Q 43.359375 56 49.78125 48.890625 
Q 56.203125 41.796875 56.203125 29.59375 
z
M 47.21875 32.234375 
Q 47.125 39.59375 43.09375 43.984375 
Q 39.0625 48.390625 32.421875 48.390625 
Q 24.90625 48.390625 20.390625 44.140625 
Q 15.875 39.890625 15.1875 32.171875 
z
" id="DejaVuSans-101"/>
     <path d="M 34.28125 27.484375 
Q 23.390625 27.484375 19.1875 25 
Q 14.984375 22.515625 14.984375 16.5 
Q 14.984375 11.71875 18.140625 8.90625 
Q 21.296875 6.109375 26.703125 6.109375 
Q 34.1875 6.109375 38.703125 11.40625 
Q 43.21875 16.703125 43.21875 25.484375 
L 43.21875 27.484375 
z
M 52.203125 31.203125 
L 52.203125 0 
L 43.21875 0 
L 43.21875 8.296875 
Q 40.140625 3.328125 35.546875 0.953125 
Q 30.953125 -1.421875 24.3125 -1.421875 
Q 15.921875 -1.421875 10.953125 3.296875 
Q 6 8.015625 6 15.921875 
Q 6 25.140625 12.171875 29.828125 
Q 18.359375 34.515625 30.609375 34.515625 
L 43.21875 34.515625 
L 43.21875 35.40625 
Q 43.21875 41.609375 39.140625 45 
Q 35.0625 48.390625 27.6875 48.390625 
Q 23 48.390625 18.546875 47.265625 
Q 14.109375 46.140625 10.015625 43.890625 
L 10.015625 52.203125 
Q 14.9375 54.109375 19.578125 55.046875 
Q 24.21875 56 28.609375 56 
Q 40.484375 56 46.34375 49.84375 
Q 52.203125 43.703125 52.203125 31.203125 
z
" id="DejaVuSans-97"/>
     <path d="M 18.3125 70.21875 
L 18.3125 54.6875 
L 36.8125 54.6875 
L 36.8125 47.703125 
L 18.3125 47.703125 
L 18.3125 18.015625 
Q 18.3125 11.328125 20.140625 9.421875 
Q 21.96875 7.515625 27.59375 7.515625 
L 36.8125 7.515625 
L 36.8125 0 
L 27.59375 0 
Q 17.1875 0 13.234375 3.875 
Q 9.28125 7.765625 9.28125 18.015625 
L 9.28125 47.703125 
L 2.6875 47.703125 
L 2.6875 54.6875 
L 9.28125 54.6875 
L 9.28125 70.21875 
z
" id="DejaVuSans-116"/>
     <path d="M 45.40625 46.390625 
L 45.40625 75.984375 
L 54.390625 75.984375 
L 54.390625 0 
L 45.40625 0 
L 45.40625 8.203125 
Q 42.578125 3.328125 38.25 0.953125 
Q 33.9375 -1.421875 27.875 -1.421875 
Q 17.96875 -1.421875 11.734375 6.484375 
Q 5.515625 14.40625 5.515625 27.296875 
Q 5.515625 40.1875 11.734375 48.09375 
Q 17.96875 56 27.875 56 
Q 33.9375 56 38.25 53.625 
Q 42.578125 51.265625 45.40625 46.390625 
z
M 14.796875 27.296875 
Q 14.796875 17.390625 18.875 11.75 
Q 22.953125 6.109375 30.078125 6.109375 
Q 37.203125 6.109375 41.296875 11.75 
Q 45.40625 17.390625 45.40625 27.296875 
Q 45.40625 37.203125 41.296875 42.84375 
Q 37.203125 48.484375 30.078125 48.484375 
Q 22.953125 48.484375 18.875 42.84375 
Q 14.796875 37.203125 14.796875 27.296875 
z
" id="DejaVuSans-100"/>
     <path d="M 9.421875 54.6875 
L 18.40625 54.6875 
L 18.40625 0 
L 9.421875 0 
z
M 9.421875 75.984375 
L 18.40625 75.984375 
L 18.40625 64.59375 
L 9.421875 64.59375 
z
" id="DejaVuSans-105"/>
     <path d="M 44.28125 53.078125 
L 44.28125 44.578125 
Q 40.484375 46.53125 36.375 47.5 
Q 32.28125 48.484375 27.875 48.484375 
Q 21.1875 48.484375 17.84375 46.4375 
Q 14.5 44.390625 14.5 40.28125 
Q 14.5 37.15625 16.890625 35.375 
Q 19.28125 33.59375 26.515625 31.984375 
L 29.59375 31.296875 
Q 39.15625 29.25 43.1875 25.515625 
Q 47.21875 21.78125 47.21875 15.09375 
Q 47.21875 7.46875 41.1875 3.015625 
Q 35.15625 -1.421875 24.609375 -1.421875 
Q 20.21875 -1.421875 15.453125 -0.5625 
Q 10.6875 0.296875 5.421875 2 
L 5.421875 11.28125 
Q 10.40625 8.6875 15.234375 7.390625 
Q 20.0625 6.109375 24.8125 6.109375 
Q 31.15625 6.109375 34.5625 8.28125 
Q 37.984375 10.453125 37.984375 14.40625 
Q 37.984375 18.0625 35.515625 20.015625 
Q 33.0625 21.96875 24.703125 23.78125 
L 21.578125 24.515625 
Q 13.234375 26.265625 9.515625 29.90625 
Q 5.8125 33.546875 5.8125 39.890625 
Q 5.8125 47.609375 11.28125 51.796875 
Q 16.75 56 26.8125 56 
Q 31.78125 56 36.171875 55.265625 
Q 40.578125 54.546875 44.28125 53.078125 
z
" id="DejaVuSans-115"/>
     <path d="M 8.5 21.578125 
L 8.5 54.6875 
L 17.484375 54.6875 
L 17.484375 21.921875 
Q 17.484375 14.15625 20.5 10.265625 
Q 23.53125 6.390625 29.59375 6.390625 
Q 36.859375 6.390625 41.078125 11.03125 
Q 45.3125 15.671875 45.3125 23.6875 
L 45.3125 54.6875 
L 54.296875 54.6875 
L 54.296875 0 
L 45.3125 0 
L 45.3125 8.40625 
Q 42.046875 3.421875 37.71875 1 
Q 33.40625 -1.421875 27.6875 -1.421875 
Q 18.265625 -1.421875 13.375 4.4375 
Q 8.5 10.296875 8.5 21.578125 
z
M 31.109375 56 
z
" id="DejaVuSans-117"/>
     <path d="M 54.890625 33.015625 
L 54.890625 0 
L 45.90625 0 
L 45.90625 32.71875 
Q 45.90625 40.484375 42.875 44.328125 
Q 39.84375 48.1875 33.796875 48.1875 
Q 26.515625 48.1875 22.3125 43.546875 
Q 18.109375 38.921875 18.109375 30.90625 
L 18.109375 0 
L 9.078125 0 
L 9.078125 54.6875 
L 18.109375 54.6875 
L 18.109375 46.1875 
Q 21.34375 51.125 25.703125 53.5625 
Q 30.078125 56 35.796875 56 
Q 45.21875 56 50.046875 50.171875 
Q 54.890625 44.34375 54.890625 33.015625 
z
" id="DejaVuSans-110"/>
     <path d="M 19.671875 64.796875 
L 19.671875 37.40625 
L 32.078125 37.40625 
Q 38.96875 37.40625 42.71875 40.96875 
Q 46.484375 44.53125 46.484375 51.125 
Q 46.484375 57.671875 42.71875 61.234375 
Q 38.96875 64.796875 32.078125 64.796875 
z
M 9.8125 72.90625 
L 32.078125 72.90625 
Q 44.34375 72.90625 50.609375 67.359375 
Q 56.890625 61.8125 56.890625 51.125 
Q 56.890625 40.328125 50.609375 34.8125 
Q 44.34375 29.296875 32.078125 29.296875 
L 19.671875 29.296875 
L 19.671875 0 
L 9.8125 0 
z
" id="DejaVuSans-80"/>
     <path d="M 44.390625 34.1875 
Q 47.5625 33.109375 50.5625 29.59375 
Q 53.5625 26.078125 56.59375 19.921875 
L 66.609375 0 
L 56 0 
L 46.6875 18.703125 
Q 43.0625 26.03125 39.671875 28.421875 
Q 36.28125 30.8125 30.421875 30.8125 
L 19.671875 30.8125 
L 19.671875 0 
L 9.8125 0 
L 9.8125 72.90625 
L 32.078125 72.90625 
Q 44.578125 72.90625 50.734375 67.671875 
Q 56.890625 62.453125 56.890625 51.90625 
Q 56.890625 45.015625 53.6875 40.46875 
Q 50.484375 35.9375 44.390625 34.1875 
z
M 19.671875 64.796875 
L 19.671875 38.921875 
L 32.078125 38.921875 
Q 39.203125 38.921875 42.84375 42.21875 
Q 46.484375 45.515625 46.484375 51.90625 
Q 46.484375 58.296875 42.84375 61.546875 
Q 39.203125 64.796875 32.078125 64.796875 
z
" id="DejaVuSans-82"/>
     <path d="M 30.609375 48.390625 
Q 23.390625 48.390625 19.1875 42.75 
Q 14.984375 37.109375 14.984375 27.296875 
Q 14.984375 17.484375 19.15625 11.84375 
Q 23.34375 6.203125 30.609375 6.203125 
Q 37.796875 6.203125 41.984375 11.859375 
Q 46.1875 17.53125 46.1875 27.296875 
Q 46.1875 37.015625 41.984375 42.703125 
Q 37.796875 48.390625 30.609375 48.390625 
z
M 30.609375 56 
Q 42.328125 56 49.015625 48.375 
Q 55.71875 40.765625 55.71875 27.296875 
Q 55.71875 13.875 49.015625 6.21875 
Q 42.328125 -1.421875 30.609375 -1.421875 
Q 18.84375 -1.421875 12.171875 6.21875 
Q 5.515625 13.875 5.515625 27.296875 
Q 5.515625 40.765625 12.171875 48.375 
Q 18.84375 56 30.609375 56 
z
" id="DejaVuSans-111"/>
     <path d="M 2.984375 54.6875 
L 12.5 54.6875 
L 29.59375 8.796875 
L 46.6875 54.6875 
L 56.203125 54.6875 
L 35.6875 0 
L 23.484375 0 
z
" id="DejaVuSans-118"/>
     <path d="M 52 44.1875 
Q 55.375 50.25 60.0625 53.125 
Q 64.75 56 71.09375 56 
Q 79.640625 56 84.28125 50.015625 
Q 88.921875 44.046875 88.921875 33.015625 
L 88.921875 0 
L 79.890625 0 
L 79.890625 32.71875 
Q 79.890625 40.578125 77.09375 44.375 
Q 74.3125 48.1875 68.609375 48.1875 
Q 61.625 48.1875 57.5625 43.546875 
Q 53.515625 38.921875 53.515625 30.90625 
L 53.515625 0 
L 44.484375 0 
L 44.484375 32.71875 
Q 44.484375 40.625 41.703125 44.40625 
Q 38.921875 48.1875 33.109375 48.1875 
Q 26.21875 48.1875 22.15625 43.53125 
Q 18.109375 38.875 18.109375 30.90625 
L 18.109375 0 
L 9.078125 0 
L 9.078125 54.6875 
L 18.109375 54.6875 
L 18.109375 46.1875 
Q 21.1875 51.21875 25.484375 53.609375 
Q 29.78125 56 35.6875 56 
Q 41.65625 56 45.828125 52.96875 
Q 50 49.953125 52 44.1875 
z
" id="DejaVuSans-109"/>
    </defs>
    <g style="fill:#262626;" transform="translate(268.047188 80.4)scale(0.12 -0.12)">
     <use xlink:href="#DejaVuSans-67"/>
     <use x="69.824219" xlink:href="#DejaVuSans-114"/>
     <use x="108.6875" xlink:href="#DejaVuSans-101"/>
     <use x="170.210938" xlink:href="#DejaVuSans-97"/>
     <use x="231.490234" xlink:href="#DejaVuSans-116"/>
     <use x="270.699219" xlink:href="#DejaVuSans-101"/>
     <use x="332.222656" xlink:href="#DejaVuSans-100"/>
     <use x="395.699219" xlink:href="#DejaVuSans-32"/>
     <use x="427.486328" xlink:href="#DejaVuSans-105"/>
     <use x="455.269531" xlink:href="#DejaVuSans-115"/>
     <use x="507.369141" xlink:href="#DejaVuSans-115"/>
     <use x="559.46875" xlink:href="#DejaVuSans-117"/>
     <use x="622.847656" xlink:href="#DejaVuSans-101"/>
     <use x="684.371094" xlink:href="#DejaVuSans-115"/>
     <use x="736.470703" xlink:href="#DejaVuSans-32"/>
     <use x="768.257812" xlink:href="#DejaVuSans-97"/>
     <use x="829.537109" xlink:href="#DejaVuSans-110"/>
     <use x="892.916016" xlink:href="#DejaVuSans-100"/>
     <use x="956.392578" xlink:href="#DejaVuSans-32"/>
     <use x="988.179688" xlink:href="#DejaVuSans-80"/>
     <use x="1048.482422" xlink:href="#DejaVuSans-82"/>
     <use x="1117.964844" xlink:href="#DejaVuSans-115"/>
     <use x="1170.064453" xlink:href="#DejaVuSans-32"/>
     <use x="1201.851562" xlink:href="#DejaVuSans-111"/>
     <use x="1263.033203" xlink:href="#DejaVuSans-118"/>
     <use x="1322.212891" xlink:href="#DejaVuSans-101"/>
     <use x="1383.736328" xlink:href="#DejaVuSans-114"/>
     <use x="1424.849609" xlink:href="#DejaVuSans-32"/>
     <use x="1456.636719" xlink:href="#DejaVuSans-116"/>
     <use x="1495.845703" xlink:href="#DejaVuSans-105"/>
     <use x="1523.628906" xlink:href="#DejaVuSans-109"/>
     <use x="1621.041016" xlink:href="#DejaVuSans-101"/>
    </g>
   </g>
  </g>
 </g>
 <defs>
  <clipPath id="p62ee19b940">
   <rect height="554.4" width="558" x="90" y="86.4"/>
  </clipPath>
 </defs>
</svg>
