<?xml version="1.0" encoding="utf-8" standalone="no"?>
<!DOCTYPE svg PUBLIC "-//W3C//DTD SVG 1.1//EN"
  "http://www.w3.org/Graphics/SVG/1.1/DTD/svg11.dtd">
<!-- Created with matplotlib (https://matplotlib.org/) -->
<svg height="720pt" version="1.1" viewBox="0 0 720 720" width="720pt" xmlns="http://www.w3.org/2000/svg" xmlns:xlink="http://www.w3.org/1999/xlink">
 <defs>
  <style type="text/css">
*{stroke-linecap:butt;stroke-linejoin:round;}
  </style>
 </defs>
 <g id="figure_1">
  <g id="patch_1">
   <path d="M 0 720 
L 720 720 
L 720 0 
L 0 0 
z
" style="fill:#ffffff;"/>
  </g>
  <g id="axes_1">
   <g id="patch_2">
    <path d="M 90 640.8 
L 648 640.8 
L 648 86.4 
L 90 86.4 
z
" style="fill:#ffffff;"/>
   </g>
   <g id="matplotlib.axis_1">
    <g id="xtick_1">
     <g id="line2d_1">
      <path clip-path="url(#p18ba09fe6d)" d="M 164.426321 640.8 
L 164.426321 86.4 
" style="fill:none;stroke:#cccccc;stroke-linecap:round;stroke-width:0.8;"/>
     </g>
     <g id="line2d_2"/>
     <g id="text_1">
      <!-- 2015 -->
      <defs>
       <path d="M 5.03125 0 
L 5.03125 6.203125 
Q 7.515625 11.921875 11.109375 16.28125 
Q 14.703125 20.65625 18.65625 24.1875 
Q 22.609375 27.734375 26.484375 30.765625 
Q 30.375 33.796875 33.5 36.8125 
Q 36.625 39.84375 38.546875 43.15625 
Q 40.484375 46.484375 40.484375 50.6875 
Q 40.484375 53.609375 39.59375 55.828125 
Q 38.71875 58.0625 37.0625 59.5625 
Q 35.40625 61.078125 33.078125 61.828125 
Q 30.765625 62.59375 27.9375 62.59375 
Q 25.296875 62.59375 22.96875 61.859375 
Q 20.65625 61.140625 18.84375 59.671875 
Q 17.046875 58.203125 15.890625 56.03125 
Q 14.75 53.859375 14.40625 50.984375 
L 5.421875 51.8125 
Q 5.859375 55.515625 7.46875 58.78125 
Q 9.078125 62.0625 11.90625 64.53125 
Q 14.75 67 18.71875 68.40625 
Q 22.703125 69.828125 27.9375 69.828125 
Q 33.0625 69.828125 37.0625 68.609375 
Q 41.0625 67.390625 43.8125 64.984375 
Q 46.578125 62.59375 48.046875 59.078125 
Q 49.515625 55.5625 49.515625 50.984375 
Q 49.515625 47.515625 48.265625 44.390625 
Q 47.015625 41.265625 44.9375 38.421875 
Q 42.875 35.59375 40.140625 32.953125 
Q 37.40625 30.328125 34.421875 27.8125 
Q 31.453125 25.296875 28.421875 22.828125 
Q 25.390625 20.359375 22.71875 17.859375 
Q 20.0625 15.375 17.96875 12.8125 
Q 15.875 10.25 14.703125 7.46875 
L 50.59375 7.46875 
L 50.59375 0 
z
" id="LiberationSans-50"/>
       <path d="M 51.703125 34.421875 
Q 51.703125 24.515625 49.828125 17.75 
Q 47.953125 10.984375 44.703125 6.8125 
Q 41.453125 2.640625 37.0625 0.828125 
Q 32.671875 -0.984375 27.6875 -0.984375 
Q 22.65625 -0.984375 18.3125 0.828125 
Q 13.96875 2.640625 10.765625 6.78125 
Q 7.5625 10.9375 5.734375 17.703125 
Q 3.90625 24.46875 3.90625 34.421875 
Q 3.90625 44.828125 5.734375 51.640625 
Q 7.5625 58.453125 10.78125 62.5 
Q 14.015625 66.546875 18.40625 68.1875 
Q 22.796875 69.828125 27.984375 69.828125 
Q 32.90625 69.828125 37.21875 68.1875 
Q 41.546875 66.546875 44.765625 62.5 
Q 48 58.453125 49.84375 51.640625 
Q 51.703125 44.828125 51.703125 34.421875 
z
M 42.78125 34.421875 
Q 42.78125 42.625 41.796875 48.0625 
Q 40.828125 53.515625 38.921875 56.765625 
Q 37.015625 60.015625 34.25 61.359375 
Q 31.5 62.703125 27.984375 62.703125 
Q 24.265625 62.703125 21.4375 61.328125 
Q 18.609375 59.96875 16.671875 56.71875 
Q 14.75 53.46875 13.765625 48.015625 
Q 12.796875 42.578125 12.796875 34.421875 
Q 12.796875 26.515625 13.796875 21.09375 
Q 14.796875 15.671875 16.71875 12.375 
Q 18.65625 9.078125 21.4375 7.640625 
Q 24.21875 6.203125 27.78125 6.203125 
Q 31.25 6.203125 34.03125 7.640625 
Q 36.8125 9.078125 38.734375 12.375 
Q 40.671875 15.671875 41.71875 21.09375 
Q 42.78125 26.515625 42.78125 34.421875 
z
" id="LiberationSans-48"/>
       <path d="M 7.625 0 
L 7.625 7.46875 
L 25.140625 7.46875 
L 25.140625 60.40625 
L 9.625 49.3125 
L 9.625 57.625 
L 25.875 68.796875 
L 33.984375 68.796875 
L 33.984375 7.46875 
L 50.734375 7.46875 
L 50.734375 0 
z
" id="LiberationSans-49"/>
       <path d="M 51.421875 22.40625 
Q 51.421875 17.234375 49.859375 12.9375 
Q 48.296875 8.640625 45.21875 5.53125 
Q 42.140625 2.4375 37.578125 0.71875 
Q 33.015625 -0.984375 27 -0.984375 
Q 21.578125 -0.984375 17.546875 0.28125 
Q 13.53125 1.5625 10.734375 3.78125 
Q 7.953125 6 6.3125 8.984375 
Q 4.6875 11.96875 4 15.375 
L 12.890625 16.40625 
Q 13.421875 14.453125 14.390625 12.625 
Q 15.375 10.796875 17.0625 9.34375 
Q 18.75 7.90625 21.21875 7.046875 
Q 23.6875 6.203125 27.203125 6.203125 
Q 30.609375 6.203125 33.390625 7.25 
Q 36.1875 8.296875 38.15625 10.34375 
Q 40.140625 12.40625 41.203125 15.375 
Q 42.28125 18.359375 42.28125 22.21875 
Q 42.28125 25.390625 41.25 28.046875 
Q 40.234375 30.71875 38.328125 32.640625 
Q 36.421875 34.578125 33.65625 35.640625 
Q 30.90625 36.71875 27.390625 36.71875 
Q 25.203125 36.71875 23.34375 36.328125 
Q 21.484375 35.9375 19.890625 35.25 
Q 18.3125 34.578125 17.015625 33.671875 
Q 15.71875 32.765625 14.59375 31.78125 
L 6 31.78125 
L 8.296875 68.796875 
L 47.40625 68.796875 
L 47.40625 61.328125 
L 16.3125 61.328125 
L 14.984375 39.5 
Q 17.328125 41.3125 20.84375 42.59375 
Q 24.359375 43.890625 29.203125 43.890625 
Q 34.328125 43.890625 38.421875 42.328125 
Q 42.53125 40.765625 45.40625 37.90625 
Q 48.296875 35.0625 49.859375 31.109375 
Q 51.421875 27.15625 51.421875 22.40625 
z
" id="LiberationSans-53"/>
      </defs>
      <g style="fill:#262626;" transform="translate(153.304446 651.546875)scale(0.1 -0.1)">
       <use xlink:href="#LiberationSans-50"/>
       <use x="55.615234" xlink:href="#LiberationSans-48"/>
       <use x="111.230469" xlink:href="#LiberationSans-49"/>
       <use x="166.845703" xlink:href="#LiberationSans-53"/>
      </g>
     </g>
    </g>
    <g id="xtick_2">
     <g id="line2d_3">
      <path clip-path="url(#p18ba09fe6d)" d="M 250.519833 640.8 
L 250.519833 86.4 
" style="fill:none;stroke:#cccccc;stroke-linecap:round;stroke-width:0.8;"/>
     </g>
     <g id="line2d_4"/>
     <g id="text_2">
      <!-- 2016 -->
      <defs>
       <path d="M 51.21875 22.515625 
Q 51.21875 17.328125 49.78125 13 
Q 48.34375 8.6875 45.53125 5.578125 
Q 42.71875 2.484375 38.5625 0.75 
Q 34.421875 -0.984375 29 -0.984375 
Q 23 -0.984375 18.5 1.3125 
Q 14.015625 3.609375 11.03125 7.921875 
Q 8.0625 12.25 6.5625 18.53125 
Q 5.078125 24.8125 5.078125 32.8125 
Q 5.078125 42 6.765625 48.921875 
Q 8.453125 55.859375 11.625 60.5 
Q 14.796875 65.140625 19.359375 67.484375 
Q 23.921875 69.828125 29.6875 69.828125 
Q 33.203125 69.828125 36.28125 69.09375 
Q 39.359375 68.359375 41.875 66.71875 
Q 44.390625 65.09375 46.28125 62.40625 
Q 48.1875 59.71875 49.3125 55.8125 
L 40.921875 54.296875 
Q 39.546875 58.734375 36.546875 60.71875 
Q 33.546875 62.703125 29.59375 62.703125 
Q 25.984375 62.703125 23.046875 60.984375 
Q 20.125 59.28125 18.0625 55.875 
Q 16.015625 52.484375 14.90625 47.359375 
Q 13.8125 42.234375 13.8125 35.40625 
Q 16.21875 39.84375 20.5625 42.15625 
Q 24.90625 44.484375 30.515625 44.484375 
Q 35.203125 44.484375 39.015625 42.96875 
Q 42.828125 41.453125 45.53125 38.59375 
Q 48.25 35.75 49.734375 31.671875 
Q 51.21875 27.59375 51.21875 22.515625 
z
M 42.28125 22.125 
Q 42.28125 25.6875 41.40625 28.5625 
Q 40.53125 31.453125 38.765625 33.46875 
Q 37.015625 35.5 34.421875 36.59375 
Q 31.84375 37.703125 28.421875 37.703125 
Q 26.03125 37.703125 23.578125 36.984375 
Q 21.140625 36.28125 19.15625 34.6875 
Q 17.1875 33.109375 15.9375 30.515625 
Q 14.703125 27.9375 14.703125 24.21875 
Q 14.703125 20.40625 15.671875 17.109375 
Q 16.65625 13.8125 18.484375 11.375 
Q 20.3125 8.9375 22.890625 7.515625 
Q 25.484375 6.109375 28.71875 6.109375 
Q 31.890625 6.109375 34.40625 7.203125 
Q 36.921875 8.296875 38.671875 10.375 
Q 40.4375 12.453125 41.359375 15.421875 
Q 42.28125 18.40625 42.28125 22.125 
z
" id="LiberationSans-54"/>
      </defs>
      <g style="fill:#262626;" transform="translate(239.397958 651.546875)scale(0.1 -0.1)">
       <use xlink:href="#LiberationSans-50"/>
       <use x="55.615234" xlink:href="#LiberationSans-48"/>
       <use x="111.230469" xlink:href="#LiberationSans-49"/>
       <use x="166.845703" xlink:href="#LiberationSans-54"/>
      </g>
     </g>
    </g>
    <g id="xtick_3">
     <g id="line2d_5">
      <path clip-path="url(#p18ba09fe6d)" d="M 336.849219 640.8 
L 336.849219 86.4 
" style="fill:none;stroke:#cccccc;stroke-linecap:round;stroke-width:0.8;"/>
     </g>
     <g id="line2d_6"/>
     <g id="text_3">
      <!-- 2017 -->
      <defs>
       <path d="M 50.59375 61.671875 
Q 45.40625 53.765625 41.0625 46.453125 
Q 36.71875 39.15625 33.59375 31.75 
Q 30.46875 24.359375 28.734375 16.578125 
Q 27 8.796875 27 0 
L 17.828125 0 
Q 17.828125 8.25 19.78125 16.1875 
Q 21.734375 24.125 25.046875 31.765625 
Q 28.375 39.40625 32.765625 46.78125 
Q 37.15625 54.15625 42.09375 61.328125 
L 5.125 61.328125 
L 5.125 68.796875 
L 50.59375 68.796875 
z
" id="LiberationSans-55"/>
      </defs>
      <g style="fill:#262626;" transform="translate(325.727344 651.546875)scale(0.1 -0.1)">
       <use xlink:href="#LiberationSans-50"/>
       <use x="55.615234" xlink:href="#LiberationSans-48"/>
       <use x="111.230469" xlink:href="#LiberationSans-49"/>
       <use x="166.845703" xlink:href="#LiberationSans-55"/>
      </g>
     </g>
    </g>
    <g id="xtick_4">
     <g id="line2d_7">
      <path clip-path="url(#p18ba09fe6d)" d="M 422.942731 640.8 
L 422.942731 86.4 
" style="fill:none;stroke:#cccccc;stroke-linecap:round;stroke-width:0.8;"/>
     </g>
     <g id="line2d_8"/>
     <g id="text_4">
      <!-- 2018 -->
      <defs>
       <path d="M 51.265625 19.1875 
Q 51.265625 14.796875 49.875 11.109375 
Q 48.484375 7.421875 45.625 4.734375 
Q 42.78125 2.046875 38.328125 0.53125 
Q 33.890625 -0.984375 27.828125 -0.984375 
Q 21.78125 -0.984375 17.359375 0.53125 
Q 12.9375 2.046875 10.03125 4.703125 
Q 7.125 7.375 5.734375 11.0625 
Q 4.34375 14.75 4.34375 19.09375 
Q 4.34375 22.859375 5.484375 25.78125 
Q 6.640625 28.71875 8.5625 30.828125 
Q 10.5 32.953125 12.96875 34.25 
Q 15.4375 35.546875 18.0625 35.984375 
L 18.0625 36.1875 
Q 15.1875 36.859375 12.90625 38.375 
Q 10.640625 39.890625 9.09375 42.015625 
Q 7.5625 44.140625 6.75 46.71875 
Q 5.953125 49.3125 5.953125 52.203125 
Q 5.953125 55.8125 7.34375 59 
Q 8.734375 62.203125 11.46875 64.625 
Q 14.203125 67.046875 18.25 68.4375 
Q 22.3125 69.828125 27.640625 69.828125 
Q 33.25 69.828125 37.375 68.40625 
Q 41.5 67 44.203125 64.578125 
Q 46.921875 62.15625 48.234375 58.9375 
Q 49.5625 55.71875 49.5625 52.09375 
Q 49.5625 49.265625 48.75 46.671875 
Q 47.953125 44.09375 46.40625 41.96875 
Q 44.875 39.84375 42.59375 38.34375 
Q 40.328125 36.859375 37.359375 36.28125 
L 37.359375 36.078125 
Q 40.328125 35.59375 42.859375 34.296875 
Q 45.40625 33.015625 47.265625 30.890625 
Q 49.125 28.765625 50.1875 25.828125 
Q 51.265625 22.90625 51.265625 19.1875 
z
M 40.4375 51.609375 
Q 40.4375 54.203125 39.765625 56.34375 
Q 39.109375 58.5 37.59375 60.03125 
Q 36.078125 61.578125 33.640625 62.421875 
Q 31.203125 63.28125 27.640625 63.28125 
Q 24.171875 63.28125 21.78125 62.421875 
Q 19.390625 61.578125 17.84375 60.03125 
Q 16.3125 58.5 15.625 56.34375 
Q 14.9375 54.203125 14.9375 51.609375 
Q 14.9375 49.5625 15.46875 47.40625 
Q 16.015625 45.265625 17.421875 43.5 
Q 18.84375 41.75 21.328125 40.625 
Q 23.828125 39.5 27.734375 39.5 
Q 31.890625 39.5 34.40625 40.625 
Q 36.921875 41.75 38.25 43.5 
Q 39.59375 45.265625 40.015625 47.40625 
Q 40.4375 49.5625 40.4375 51.609375 
z
M 42.140625 20.015625 
Q 42.140625 22.515625 41.453125 24.828125 
Q 40.765625 27.15625 39.109375 28.9375 
Q 37.453125 30.71875 34.640625 31.8125 
Q 31.84375 32.90625 27.640625 32.90625 
Q 23.78125 32.90625 21.0625 31.8125 
Q 18.359375 30.71875 16.671875 28.90625 
Q 14.984375 27.09375 14.203125 24.71875 
Q 13.421875 22.359375 13.421875 19.828125 
Q 13.421875 16.65625 14.203125 14.03125 
Q 14.984375 11.421875 16.6875 9.546875 
Q 18.40625 7.671875 21.1875 6.640625 
Q 23.96875 5.609375 27.9375 5.609375 
Q 31.9375 5.609375 34.671875 6.640625 
Q 37.40625 7.671875 39.0625 9.546875 
Q 40.71875 11.421875 41.421875 14.078125 
Q 42.140625 16.75 42.140625 20.015625 
z
" id="LiberationSans-56"/>
      </defs>
      <g style="fill:#262626;" transform="translate(411.820856 651.546875)scale(0.1 -0.1)">
       <use xlink:href="#LiberationSans-50"/>
       <use x="55.615234" xlink:href="#LiberationSans-48"/>
       <use x="111.230469" xlink:href="#LiberationSans-49"/>
       <use x="166.845703" xlink:href="#LiberationSans-56"/>
      </g>
     </g>
    </g>
    <g id="xtick_5">
     <g id="line2d_9">
      <path clip-path="url(#p18ba09fe6d)" d="M 509.036244 640.8 
L 509.036244 86.4 
" style="fill:none;stroke:#cccccc;stroke-linecap:round;stroke-width:0.8;"/>
     </g>
     <g id="line2d_10"/>
     <g id="text_5">
      <!-- 2019 -->
      <defs>
       <path d="M 50.875 35.796875 
Q 50.875 26.609375 49.140625 19.703125 
Q 47.40625 12.796875 44.1875 8.203125 
Q 40.96875 3.609375 36.34375 1.3125 
Q 31.734375 -0.984375 25.984375 -0.984375 
Q 22.015625 -0.984375 18.84375 -0.171875 
Q 15.671875 0.640625 13.171875 2.34375 
Q 10.6875 4.046875 8.921875 6.78125 
Q 7.171875 9.515625 6.109375 13.375 
L 14.5 14.703125 
Q 15.875 10.25 18.78125 8.171875 
Q 21.6875 6.109375 26.125 6.109375 
Q 29.6875 6.109375 32.640625 7.78125 
Q 35.59375 9.46875 37.671875 12.84375 
Q 39.75 16.21875 40.921875 21.296875 
Q 42.09375 26.375 42.1875 33.203125 
Q 41.15625 30.90625 39.375 29.09375 
Q 37.59375 27.296875 35.328125 26.046875 
Q 33.0625 24.8125 30.421875 24.140625 
Q 27.78125 23.484375 25.09375 23.484375 
Q 20.40625 23.484375 16.625 25.171875 
Q 12.84375 26.859375 10.203125 29.875 
Q 7.5625 32.90625 6.125 37.171875 
Q 4.6875 41.453125 4.6875 46.6875 
Q 4.6875 52 6.21875 56.296875 
Q 7.765625 60.59375 10.6875 63.59375 
Q 13.625 66.609375 17.890625 68.21875 
Q 22.171875 69.828125 27.59375 69.828125 
Q 39.0625 69.828125 44.96875 61.328125 
Q 50.875 52.828125 50.875 35.796875 
z
M 41.3125 44.28125 
Q 41.3125 48.09375 40.40625 51.453125 
Q 39.5 54.828125 37.71875 57.3125 
Q 35.9375 59.8125 33.328125 61.25 
Q 30.71875 62.703125 27.296875 62.703125 
Q 24.125 62.703125 21.578125 61.578125 
Q 19.046875 60.453125 17.28125 58.375 
Q 15.53125 56.296875 14.578125 53.3125 
Q 13.625 50.34375 13.625 46.6875 
Q 13.625 43.21875 14.46875 40.234375 
Q 15.328125 37.25 17.03125 35.078125 
Q 18.75 32.90625 21.28125 31.65625 
Q 23.828125 30.421875 27.203125 30.421875 
Q 29.640625 30.421875 32.15625 31.25 
Q 34.671875 32.078125 36.6875 33.78125 
Q 38.71875 35.5 40.015625 38.109375 
Q 41.3125 40.71875 41.3125 44.28125 
z
" id="LiberationSans-57"/>
      </defs>
      <g style="fill:#262626;" transform="translate(497.914369 651.546875)scale(0.1 -0.1)">
       <use xlink:href="#LiberationSans-50"/>
       <use x="55.615234" xlink:href="#LiberationSans-48"/>
       <use x="111.230469" xlink:href="#LiberationSans-49"/>
       <use x="166.845703" xlink:href="#LiberationSans-57"/>
      </g>
     </g>
    </g>
    <g id="xtick_6">
     <g id="line2d_11">
      <path clip-path="url(#p18ba09fe6d)" d="M 595.129756 640.8 
L 595.129756 86.4 
" style="fill:none;stroke:#cccccc;stroke-linecap:round;stroke-width:0.8;"/>
     </g>
     <g id="line2d_12"/>
     <g id="text_6">
      <!-- 2020 -->
      <g style="fill:#262626;" transform="translate(584.007881 651.546875)scale(0.1 -0.1)">
       <use xlink:href="#LiberationSans-50"/>
       <use x="55.615234" xlink:href="#LiberationSans-48"/>
       <use x="111.230469" xlink:href="#LiberationSans-50"/>
       <use x="166.845703" xlink:href="#LiberationSans-48"/>
      </g>
     </g>
    </g>
   </g>
   <g id="matplotlib.axis_2">
    <g id="ytick_1">
     <g id="line2d_13">
      <path clip-path="url(#p18ba09fe6d)" d="M 90 615.605611 
L 648 615.605611 
" style="fill:none;stroke:#cccccc;stroke-linecap:round;stroke-width:0.8;"/>
     </g>
     <g id="line2d_14"/>
     <g id="text_7">
      <!-- 0 -->
      <g style="fill:#262626;" transform="translate(80.939063 619.229049)scale(0.1 -0.1)">
       <use xlink:href="#LiberationSans-48"/>
      </g>
     </g>
    </g>
    <g id="ytick_2">
     <g id="line2d_15">
      <path clip-path="url(#p18ba09fe6d)" d="M 90 503.377414 
L 648 503.377414 
" style="fill:none;stroke:#cccccc;stroke-linecap:round;stroke-width:0.8;"/>
     </g>
     <g id="line2d_16"/>
     <g id="text_8">
      <!-- 20000 -->
      <g style="fill:#262626;" transform="translate(58.695312 507.000852)scale(0.1 -0.1)">
       <use xlink:href="#LiberationSans-50"/>
       <use x="55.615234" xlink:href="#LiberationSans-48"/>
       <use x="111.230469" xlink:href="#LiberationSans-48"/>
       <use x="166.845703" xlink:href="#LiberationSans-48"/>
       <use x="222.460938" xlink:href="#LiberationSans-48"/>
      </g>
     </g>
    </g>
    <g id="ytick_3">
     <g id="line2d_17">
      <path clip-path="url(#p18ba09fe6d)" d="M 90 391.149217 
L 648 391.149217 
" style="fill:none;stroke:#cccccc;stroke-linecap:round;stroke-width:0.8;"/>
     </g>
     <g id="line2d_18"/>
     <g id="text_9">
      <!-- 40000 -->
      <defs>
       <path d="M 43.015625 15.578125 
L 43.015625 0 
L 34.71875 0 
L 34.71875 15.578125 
L 2.296875 15.578125 
L 2.296875 22.40625 
L 33.796875 68.796875 
L 43.015625 68.796875 
L 43.015625 22.515625 
L 52.6875 22.515625 
L 52.6875 15.578125 
z
M 34.71875 58.890625 
Q 34.625 58.640625 34.234375 57.9375 
Q 33.84375 57.234375 33.34375 56.34375 
Q 32.859375 55.46875 32.34375 54.5625 
Q 31.84375 53.65625 31.453125 53.078125 
L 13.8125 27.09375 
Q 13.578125 26.703125 13.109375 26.0625 
Q 12.640625 25.4375 12.15625 24.78125 
Q 11.671875 24.125 11.171875 23.484375 
Q 10.6875 22.859375 10.40625 22.515625 
L 34.71875 22.515625 
z
" id="LiberationSans-52"/>
      </defs>
      <g style="fill:#262626;" transform="translate(58.695312 394.772654)scale(0.1 -0.1)">
       <use xlink:href="#LiberationSans-52"/>
       <use x="55.615234" xlink:href="#LiberationSans-48"/>
       <use x="111.230469" xlink:href="#LiberationSans-48"/>
       <use x="166.845703" xlink:href="#LiberationSans-48"/>
       <use x="222.460938" xlink:href="#LiberationSans-48"/>
      </g>
     </g>
    </g>
    <g id="ytick_4">
     <g id="line2d_19">
      <path clip-path="url(#p18ba09fe6d)" d="M 90 278.921019 
L 648 278.921019 
" style="fill:none;stroke:#cccccc;stroke-linecap:round;stroke-width:0.8;"/>
     </g>
     <g id="line2d_20"/>
     <g id="text_10">
      <!-- 60000 -->
      <g style="fill:#262626;" transform="translate(58.695312 282.544457)scale(0.1 -0.1)">
       <use xlink:href="#LiberationSans-54"/>
       <use x="55.615234" xlink:href="#LiberationSans-48"/>
       <use x="111.230469" xlink:href="#LiberationSans-48"/>
       <use x="166.845703" xlink:href="#LiberationSans-48"/>
       <use x="222.460938" xlink:href="#LiberationSans-48"/>
      </g>
     </g>
    </g>
    <g id="ytick_5">
     <g id="line2d_21">
      <path clip-path="url(#p18ba09fe6d)" d="M 90 166.692822 
L 648 166.692822 
" style="fill:none;stroke:#cccccc;stroke-linecap:round;stroke-width:0.8;"/>
     </g>
     <g id="line2d_22"/>
     <g id="text_11">
      <!-- 80000 -->
      <g style="fill:#262626;" transform="translate(58.695312 170.31626)scale(0.1 -0.1)">
       <use xlink:href="#LiberationSans-56"/>
       <use x="55.615234" xlink:href="#LiberationSans-48"/>
       <use x="111.230469" xlink:href="#LiberationSans-48"/>
       <use x="166.845703" xlink:href="#LiberationSans-48"/>
       <use x="222.460938" xlink:href="#LiberationSans-48"/>
      </g>
     </g>
    </g>
   </g>
   <g id="line2d_23">
    <path clip-path="url(#p18ba09fe6d)" d="M 115.363636 615.6 
L 115.45184 615.538274 
L 116.724911 615.173533 
L 116.829749 615.072527 
L 117.541748 614.932242 
L 118.074097 614.747066 
L 118.438111 614.601169 
L 118.79661 614.500164 
L 119.591451 614.309376 
L 119.66434 614.236427 
L 120.290328 614.096142 
L 120.38483 614.023194 
L 120.967897 613.88852 
L 121.554308 613.641618 
L 123.358971 613.366659 
L 125.80177 612.524947 
L 126.271804 612.395885 
L 126.397857 612.29488 
L 127.368601 611.941361 
L 128.397926 611.503671 
L 129.210471 611.324106 
L 129.330695 611.18382 
L 130.214554 610.90325 
L 131.049442 610.762965 
L 131.606389 610.566565 
L 131.651256 610.499228 
L 132.528405 610.353332 
L 133.53957 609.943699 
L 134.225667 609.814636 
L 134.287998 609.780968 
L 134.672837 609.657517 
L 135.147656 609.326444 
L 136.523861 609.006593 
L 136.63106 608.950479 
L 137.733562 608.669909 
L 138.053061 608.479121 
L 138.288434 608.35567 
L 139.398744 608.114379 
L 139.928161 607.8787 
L 140.965984 607.710358 
L 142.301474 607.261445 
L 142.658059 607.137994 
L 142.772899 607.070657 
L 143.138513 606.947206 
L 143.247511 606.846201 
L 143.878872 606.677858 
L 144.154649 606.560019 
L 144.823659 606.105495 
L 145.015767 605.914707 
L 145.307217 605.785644 
L 145.904229 605.662193 
L 146.026973 605.533131 
L 146.126012 605.477017 
L 146.408947 605.33112 
L 146.797485 605.01127 
L 147.421515 604.865373 
L 147.500612 604.803647 
L 147.682062 604.680196 
L 147.858895 604.601637 
L 147.954243 604.556745 
L 148.336584 604.433294 
L 148.38998 604.422072 
L 149.079787 604.304232 
L 149.157906 604.231284 
L 149.498688 604.068553 
L 149.592149 604.006827 
L 149.814872 603.883376 
L 150.030651 603.782371 
L 150.721755 603.597194 
L 150.808086 603.535469 
L 151.147369 603.400795 
L 151.297481 603.266121 
L 151.462494 603.148282 
L 151.657987 603.041665 
L 151.719772 602.979939 
L 152.389686 602.8621 
L 152.665357 602.609586 
L 155.935556 600.920552 
L 156.087266 600.858826 
L 156.657709 600.651204 
L 157.288616 600.527753 
L 157.408589 600.437971 
L 157.53373 600.365022 
L 157.737861 600.224737 
L 159.025572 599.859995 
L 159.13881 599.843161 
L 159.470165 599.691653 
L 159.573073 599.556979 
L 159.701219 599.433528 
L 160.272288 599.197849 
L 160.624505 599.074398 
L 160.72685 599.00145 
L 160.865821 598.877999 
L 161.15108 598.664765 
L 161.377976 598.507646 
L 161.648301 598.322469 
L 162.279749 598.204629 
L 162.377052 598.148515 
L 162.513201 598.025064 
L 162.588895 597.957727 
L 164.177937 597.766939 
L 164.287664 597.733271 
L 164.347334 597.722048 
L 165.385146 597.598597 
L 165.476241 597.576152 
L 165.616793 597.4527 
L 165.787872 597.362918 
L 166.087575 597.076736 
L 166.230089 596.992565 
L 166.563388 596.622212 
L 167.244292 596.431424 
L 168.192692 595.494318 
L 168.251452 595.443816 
L 168.936234 595.309142 
L 170.108553 594.338368 
L 170.541306 594.214917 
L 170.659515 594.091466 
L 170.821481 593.968015 
L 170.986333 593.794061 
L 171.111138 593.558382 
L 171.251861 593.406874 
L 171.328258 593.305869 
L 171.500513 593.188029 
L 171.552826 593.120692 
L 172.192753 592.980407 
L 172.308792 592.879401 
L 172.415904 592.750339 
L 172.526253 592.548328 
L 172.679401 592.402432 
L 172.855219 592.211644 
L 173.163757 591.858125 
L 173.954372 591.616834 
L 174.136816 591.431658 
L 174.292849 591.291372 
L 174.392658 591.055693 
L 174.584365 590.887351 
L 174.7014 590.825625 
L 174.891365 590.657283 
L 175.530345 590.522609 
L 175.764877 590.270096 
L 175.875339 590.202759 
L 175.967351 590.056862 
L 176.120857 589.84924 
L 176.191649 589.703343 
L 176.507568 589.271265 
L 177.1001 589.097311 
L 177.297905 588.839186 
L 177.578741 588.715735 
L 177.646513 588.631564 
L 177.820289 588.508113 
L 177.927729 588.322937 
L 178.117101 588.132149 
L 178.156358 588.104092 
L 178.773583 587.969418 
L 178.897086 587.823521 
L 179.057558 587.649567 
L 179.20974 587.531728 
L 179.273387 587.352163 
L 179.388558 587.178209 
L 179.525419 587.054758 
L 179.633331 586.98181 
L 179.76563 586.830302 
L 179.85721 586.796633 
L 180.391014 586.650736 
L 180.925479 585.786579 
L 181.073685 585.646294 
L 181.14347 585.427449 
L 181.268108 585.281552 
L 181.365086 585.15249 
L 181.484475 585.000982 
L 182.088708 584.770914 
L 182.243362 584.653075 
L 182.353704 584.467898 
L 182.462167 584.378116 
L 182.572377 584.226607 
L 182.76958 583.990928 
L 182.82151 583.856254 
L 183.323853 583.407342 
L 183.709423 583.222165 
L 183.815063 583.014543 
L 183.950521 582.863035 
L 184.057403 582.610521 
L 184.175023 582.470236 
L 184.235523 582.268225 
L 184.353972 582.16722 
L 184.437003 582.026935 
L 184.963086 581.286229 
L 185.369087 581.112275 
L 185.533477 580.882207 
L 185.630387 580.725088 
L 185.739462 580.511854 
L 185.909145 580.197615 
L 186.379736 579.636474 
L 187.045402 579.361515 
L 187.187362 579.204396 
L 187.475323 578.828431 
L 187.663814 578.575918 
L 187.736238 578.452467 
L 187.850519 578.30657 
L 187.979048 578.160673 
L 188.092237 578.020388 
L 188.563365 577.874491 
L 188.692893 577.717372 
L 189.02437 577.318962 
L 189.390383 576.864438 
L 189.946703 576.297685 
L 190.331897 576.112509 
L 190.457723 575.904887 
L 190.564062 575.75899 
L 190.668228 575.596259 
L 190.784712 575.467197 
L 190.940958 575.231517 
L 191.391775 574.619874 
L 191.965304 574.372972 
L 192.079437 574.081178 
L 192.208613 573.940893 
L 192.805122 572.992565 
L 192.918376 572.874725 
L 193.073416 572.678326 
L 193.573316 572.538041 
L 193.642 572.37531 
L 193.750357 572.223802 
L 193.87885 572.021791 
L 194.028965 571.797335 
L 194.127972 571.628992 
L 194.268338 571.466261 
L 194.350031 571.331588 
L 194.472218 571.118354 
L 194.564328 570.98368 
L 194.660501 570.776058 
L 194.897367 570.652607 
L 195.265399 570.473042 
L 195.759536 569.737947 
L 196.17521 569.064578 
L 196.25394 568.907458 
L 196.351525 568.772785 
L 196.838763 568.587608 
L 197.019735 568.121861 
L 197.133197 568.03769 
L 197.200186 567.858125 
L 197.322662 567.734674 
L 197.450841 567.493383 
L 197.598163 567.364321 
L 197.90856 566.848071 
L 197.979944 566.758289 
L 198.292434 566.629226 
L 198.682296 566.382324 
L 198.849604 566.152256 
L 199.005266 566.011971 
L 199.106424 565.80996 
L 199.207781 565.737012 
L 199.285289 565.607949 
L 199.619264 565.046809 
L 199.826054 564.996306 
L 200.226027 564.833575 
L 200.352943 564.659621 
L 200.717402 564.047978 
L 200.879258 563.829133 
L 200.971958 563.666402 
L 201.492123 563.155763 
L 201.859025 563.015478 
L 202.07047 562.566565 
L 202.147093 562.325275 
L 202.25884 562.072761 
L 202.368584 561.865139 
L 202.512821 561.545289 
L 202.881861 560.978536 
L 203.551935 560.866308 
L 203.692312 560.669909 
L 203.758376 560.490344 
L 204.000937 560.063877 
L 204.150847 559.766472 
L 204.505399 559.12116 
L 204.602131 558.969652 
L 205.172214 558.801309 
L 205.291237 558.655413 
L 206.406589 557.269394 
L 206.796544 557.134721 
L 206.868619 556.994435 
L 207.62785 555.928267 
L 208.482154 555.518635 
L 208.652468 555.232453 
L 209.114284 554.323404 
L 209.208901 554.155062 
L 209.864687 553.504138 
L 210.089847 553.386299 
L 210.430052 552.651204 
L 210.592502 552.449193 
L 210.902155 551.87683 
L 211.02366 551.742156 
L 211.097307 551.596259 
L 211.715078 550.990227 
L 211.799913 550.866776 
L 212.099845 550.401029 
L 212.268448 550.266355 
L 212.441462 550.025064 
L 213.019039 549.357307 
L 213.421706 549.228244 
L 213.674582 548.942062 
L 213.783632 548.779331 
L 214.108333 548.481927 
L 214.17803 548.33603 
L 214.432017 547.965677 
L 214.846852 547.875894 
L 215.088431 547.718775 
L 215.379015 547.269862 
L 215.491306 547.112743 
L 216.409462 546.1083 
L 216.666702 545.973626 
L 216.794603 545.771616 
L 216.977465 545.558382 
L 217.435907 544.840122 
L 217.875356 544.295815 
L 218.35098 544.138695 
L 218.655278 543.67856 
L 218.969794 543.184756 
L 219.119027 543.038859 
L 219.234547 542.887351 
L 219.328476 542.752677 
L 219.392213 542.64606 
L 219.985703 542.494552 
L 220.087683 542.314987 
L 220.289111 542.129811 
L 220.398426 541.995137 
L 220.508473 541.753846 
L 220.600362 541.658452 
L 220.715429 541.52939 
L 220.8271 541.366659 
L 220.978009 541.209539 
L 221.402252 540.985083 
L 221.660361 540.811129 
L 221.779654 540.620341 
L 221.909403 540.480056 
L 222.018743 540.21632 
L 223.103566 539.470002 
L 223.524096 539.256769 
L 223.682521 539.037924 
L 223.785819 538.841524 
L 223.88159 538.628291 
L 224.004708 538.493617 
L 224.172377 538.229881 
L 224.447196 537.982979 
L 224.939329 537.842693 
L 225.176709 537.567734 
L 225.262963 537.376946 
L 225.646117 536.782137 
L 225.911247 536.378116 
L 226.093713 536.125602 
L 226.500571 535.974094 
L 226.819499 535.407342 
L 226.909846 535.255834 
L 227.211637 534.762029 
L 227.329598 534.588076 
L 227.436156 534.380454 
L 227.580084 534.212111 
L 227.827426 533.925929 
L 228.210301 533.774421 
L 228.560621 533.275006 
L 228.776903 532.786813 
L 228.865339 532.590414 
L 228.983396 532.466963 
L 229.501267 531.686977 
L 229.920599 531.54108 
L 229.964519 531.395184 
L 230.287517 530.811597 
L 230.396868 530.682534 
L 231.154879 529.526584 
L 231.518229 529.380687 
L 232.042546 528.426748 
L 232.183286 528.112509 
L 232.321979 527.921721 
L 232.626503 527.455974 
L 233.200105 527.259574 
L 233.256324 527.091232 
L 233.373234 526.776993 
L 233.516103 526.518868 
L 233.891515 525.845499 
L 233.974769 525.68838 
L 234.328635 525.071125 
L 234.919136 524.678326 
L 235.038211 524.437035 
L 235.16728 524.212579 
L 235.315492 523.999345 
L 235.38093 523.853449 
L 235.662413 523.224971 
L 235.777043 523.10152 
L 235.858248 522.966846 
L 235.970852 522.787281 
L 236.578879 522.54599 
L 236.82372 522.141969 
L 237.055577 521.844564 
L 237.242337 521.586439 
L 237.321349 521.384428 
L 237.444862 521.244143 
L 237.504622 521.115081 
L 237.887598 520.851344 
L 238.16797 520.705448 
L 238.264301 520.565162 
L 238.422333 520.4361 
L 238.667897 520.110638 
L 239.548456 519.128642 
L 239.829384 518.999579 
L 239.96078 518.786346 
L 240.361883 518.191536 
L 240.733721 517.624784 
L 240.814775 517.495721 
L 241.200372 517.265653 
L 241.431099 517.136591 
L 241.594151 516.805518 
L 241.756011 516.648398 
L 241.845629 516.530559 
L 241.938667 516.401496 
L 242.066762 516.205097 
L 242.168193 516.081646 
L 242.309088 515.963806 
L 242.521098 515.773018 
L 242.635756 515.705682 
L 243.084244 515.520505 
L 243.15832 515.335329 
L 243.372855 515.037924 
L 243.468471 514.880804 
L 243.636014 514.628291 
L 243.807377 514.325275 
L 244.064 513.960533 
L 244.274361 513.769745 
L 244.597296 513.70802 
L 244.785202 513.494786 
L 245.899217 511.699135 
L 246.405653 511.530793 
L 246.521864 511.306336 
L 246.733704 511.070657 
L 246.849508 510.930372 
L 246.940712 510.806921 
L 247.040385 510.64419 
L 247.149056 510.48707 
L 247.261868 510.234557 
L 247.409362 510.08866 
L 247.926657 509.869815 
L 248.070769 509.72953 
L 248.182342 509.606079 
L 248.393347 509.353566 
L 248.510822 509.235726 
L 251.101705 508.236895 
L 251.408531 508.079776 
L 252.080847 507.5018 
L 252.225731 507.327847 
L 252.343948 507.22123 
L 252.632333 507.047276 
L 253.028855 506.873322 
L 253.236344 506.570306 
L 253.305741 506.435632 
L 253.42712 506.233622 
L 253.585365 506.054057 
L 253.716097 505.90816 
L 253.799012 505.801543 
L 254.054443 505.683704 
L 254.158647 505.526584 
L 254.649483 505.358242 
L 254.955127 505.128174 
L 255.174447 504.881272 
L 255.2894 504.662427 
L 255.431521 504.51653 
L 255.616466 504.224737 
L 255.670244 504.073229 
L 255.781263 503.859995 
L 256.272183 503.708487 
L 256.745023 503.012672 
L 256.864226 502.84433 
L 257.073659 502.60304 
L 257.73393 501.985784 
L 257.964078 501.856722 
L 258.138618 501.497592 
L 258.250622 501.346084 
L 258.368671 501.09357 
L 258.832584 500.268693 
L 258.935893 500.117185 
L 259.025789 499.853449 
L 259.545416 499.673884 
L 259.664799 499.511153 
L 259.825883 499.152022 
L 259.914622 498.994903 
L 260.65826 497.42932 
L 260.777061 497.356371 
L 261.219279 497.165583 
L 261.59819 496.615665 
L 261.712168 496.452934 
L 261.803561 496.250924 
L 262.038622 495.762731 
L 262.242729 495.437269 
L 262.35758 495.134253 
L 262.602366 494.971522 
L 262.939798 494.713397 
L 263.074095 494.432827 
L 263.17902 494.281319 
L 263.319039 493.742623 
L 263.417407 493.591115 
L 263.90791 492.569839 
L 263.956919 492.429553 
L 264.095118 492.261211 
L 264.493363 492.042366 
L 264.678288 491.643956 
L 264.78602 491.430722 
L 264.860628 491.256769 
L 265.032821 490.976198 
L 265.099668 490.813467 
L 265.56909 489.893196 
L 265.712939 489.679963 
L 265.868208 489.5509 
L 265.977682 489.522843 
L 266.216781 489.371335 
L 266.329099 489.146879 
L 266.660276 488.79336 
L 266.806291 488.658686 
L 267.651124 487.772083 
L 267.939719 487.59813 
L 268.329518 487.08188 
L 269.19888 485.925929 
L 269.549836 485.757587 
L 269.809438 485.392845 
L 269.984014 485.235726 
L 270.077672 485.072995 
L 270.21076 484.93271 
L 270.910046 484.354735 
L 271.242864 484.236895 
L 271.376842 484.119055 
L 271.471467 483.989993 
L 271.59601 483.838485 
L 272.447335 482.878934 
L 272.848515 482.74426 
L 272.927535 482.575918 
L 273.062485 482.458078 
L 273.323348 482.166285 
L 273.411486 481.919383 
L 273.515434 481.846434 
L 273.623433 481.711761 
L 273.782481 481.476081 
L 274.028878 481.274071 
L 274.541619 481.122563 
L 274.813105 480.763432 
L 274.931885 480.645593 
L 275.029906 480.494085 
L 275.139352 480.348188 
L 275.234555 480.219126 
L 275.39767 479.882441 
L 275.859782 479.568202 
L 276.121324 479.444751 
L 276.208808 479.315689 
L 277.075604 478.182184 
L 277.146095 478.04751 
L 277.322517 477.92967 
L 277.82557 477.750105 
L 278.338656 476.919617 
L 278.545069 476.605378 
L 279.123041 476.173299 
L 279.477391 476.044237 
L 279.797454 475.617769 
L 279.939065 475.471873 
L 280.528384 474.607716 
L 281.03839 474.394482 
L 281.208472 474.102689 
L 281.39067 473.911901 
L 281.512942 473.704279 
L 281.61627 473.547159 
L 281.744252 473.333926 
L 281.937212 473.154361 
L 282.854339 472.31826 
L 283.006269 472.03769 
L 283.232251 471.706617 
L 283.307659 471.555109 
L 283.611408 470.960299 
L 283.731258 470.775123 
L 283.999973 470.505775 
L 284.356302 470.331821 
L 284.581546 469.832406 
L 284.65835 469.647229 
L 284.871681 469.17026 
L 284.918061 469.029974 
L 285.028989 468.749404 
L 285.385804 468.171429 
L 285.507311 468.008698 
L 285.730672 467.879635 
L 286.046924 467.694459 
L 286.22497 467.576619 
L 286.331809 467.402665 
L 286.647111 466.875193 
L 286.786358 466.622679 
L 286.990628 466.297218 
L 287.050745 466.134487 
L 287.159921 465.966144 
L 287.765005 465.562123 
L 288.583027 464.091934 
L 288.720134 463.8787 
L 288.831046 463.76086 
L 289.327798 463.55885 
L 289.570272 463.048211 
L 289.650518 462.851812 
L 289.754864 462.711527 
L 289.85099 462.548796 
L 290.024668 462.071826 
L 290.12116 461.892261 
L 290.285089 461.617302 
L 290.486361 461.359177 
L 290.739561 461.21328 
L 291.059687 460.988824 
L 291.207367 460.753145 
L 291.697794 459.787982 
L 291.755028 459.647697 
L 291.882389 459.406406 
L 291.993552 459.243675 
L 292.115092 459.092167 
L 292.9042 458.525415 
L 293.692951 457.195511 
L 293.785125 457.122563 
L 294.187528 456.959832 
L 294.832639 456.359411 
L 295.132793 455.742156 
L 295.301605 455.512088 
L 295.522605 455.366191 
L 295.918825 455.147346 
L 296.084613 454.872387 
L 296.248839 454.636708 
L 296.51336 454.277578 
L 296.624024 454.114847 
L 296.922883 453.761328 
L 297.053503 453.536872 
L 297.623176 453.177741 
L 298.890618 450.950012 
L 299.24408 450.781669 
L 300.348065 449.474211 
L 300.859734 449.322703 
L 300.960782 449.154361 
L 301.283344 448.621277 
L 301.401941 448.447323 
L 301.568231 448.088193 
L 301.670139 447.908628 
L 301.794153 447.71784 
L 302.318486 447.369932 
L 302.526575 447.224036 
L 302.642885 447.04447 
L 303.439198 445.669675 
L 303.537847 445.518167 
L 303.631049 445.265653 
L 304.021192 445.108534 
L 304.204602 444.957026 
L 305.014229 443.133318 
L 305.347164 442.527285 
L 305.687673 442.370166 
L 305.812805 442.280383 
L 305.871675 442.128875 
L 306.934481 439.620575 
L 307.536101 439.340005 
L 307.68728 438.997709 
L 307.976077 438.419733 
L 308.043686 438.257003 
L 308.180817 437.976432 
L 308.275389 437.72953 
L 308.393293 437.493851 
L 308.659084 437.078606 
L 309.152904 436.769979 
L 309.391062 436.506243 
L 309.659659 436.046107 
L 309.783129 435.782371 
L 309.8716 435.58036 
L 309.999801 435.266121 
L 310.129507 435.013608 
L 310.346772 434.761094 
L 310.821899 434.418798 
L 311.003688 434.065279 
L 311.319989 433.369465 
L 311.984091 431.921721 
L 312.053267 431.792658 
L 312.16942 431.68043 
L 312.28713 431.624316 
L 312.415771 431.556979 
L 312.50324 431.422305 
L 312.61469 431.24274 
L 312.875102 430.709656 
L 312.960464 430.541314 
L 313.334811 429.60982 
L 313.480752 429.368529 
L 313.58637 429.228244 
L 313.94918 429.05429 
L 314.084449 428.936451 
L 314.231695 428.667103 
L 314.358078 428.41459 
L 315.029289 426.961235 
L 315.667941 426.562824 
L 315.736685 426.444985 
L 315.881198 426.091466 
L 316.004444 425.911901 
L 316.186446 425.535936 
L 316.263481 425.35076 
L 316.392712 424.828899 
L 316.504729 424.598831 
L 316.658939 424.250924 
L 316.736133 424.093804 
L 316.849548 423.88057 
L 317.453328 423.375544 
L 317.626121 423.010802 
L 317.701089 422.831237 
L 317.886359 422.578723 
L 317.99385 422.460884 
L 318.295142 421.725789 
L 318.42565 421.41155 
L 318.596586 421.237596 
L 319.002181 421.024363 
L 319.115222 420.760627 
L 319.191733 420.547393 
L 319.531696 419.941361 
L 319.636643 419.694459 
L 319.763236 419.492448 
L 320.406259 418.443114 
L 320.671621 418.30844 
L 320.788212 418.005424 
L 320.93967 417.719242 
L 320.996973 417.584569 
L 322.030687 415.749638 
L 322.322634 415.614964 
L 322.471502 415.340005 
L 322.569514 415.205331 
L 322.657309 415.036989 
L 322.772488 414.778864 
L 323.149769 413.937152 
L 323.316739 413.679027 
L 323.539737 413.387234 
L 323.874133 413.168389 
L 323.983109 413.028104 
L 324.103082 412.786813 
L 324.207308 412.601637 
L 324.330344 412.410849 
L 325.124091 411.109002 
L 325.709271 410.738649 
L 325.974123 410.295347 
L 326.359917 409.464859 
L 326.421123 409.324573 
L 326.761244 408.606313 
L 327.127881 408.376245 
L 327.428417 407.972224 
L 327.535089 407.809493 
L 327.623105 407.646762 
L 327.794852 407.265186 
L 327.893455 407.074398 
L 328.018432 406.889221 
L 328.230619 406.692822 
L 328.534059 406.507646 
L 328.935348 406.333692 
L 329.241095 405.823054 
L 329.385207 405.621043 
L 329.498183 405.407809 
L 329.686611 404.77372 
L 329.815325 404.420201 
L 329.835049 404.302361 
L 329.941094 404.010568 
L 330.01025 403.802946 
L 330.258083 403.488707 
L 330.587005 403.236194 
L 330.96085 402.444985 
L 331.217269 401.799673 
L 331.320692 401.63133 
L 331.463087 401.333926 
L 331.807302 400.615665 
L 332.136255 400.469769 
L 332.283962 400.301426 
L 332.486998 399.91985 
L 332.729092 399.555109 
L 333.683718 398.545055 
L 333.907314 398.421604 
L 334.026564 398.185925 
L 334.167473 398.040028 
L 334.381028 397.737012 
L 334.976505 396.996306 
L 335.896938 396.743792 
L 336.714005 396.311714 
L 337.417618 396.132149 
L 337.700064 395.795464 
L 337.81797 395.62151 
L 337.992702 395.464391 
L 338.2373 395.346551 
L 338.39341 395.211877 
L 338.826408 395.043535 
L 338.945461 394.830302 
L 339.207965 394.476783 
L 339.348454 394.252326 
L 339.429898 394.10643 
L 339.626221 393.820248 
L 339.716611 393.640683 
L 339.985151 393.281552 
L 340.477587 393.130044 
L 341.280668 391.867477 
L 341.585203 391.368062 
L 342.111379 391.166051 
L 342.236416 391.014543 
L 342.348431 390.834978 
L 342.598803 390.481459 
L 342.793578 389.959598 
L 342.926448 389.791256 
L 343.060892 389.499462 
L 343.151597 389.342343 
L 343.293639 389.157166 
L 343.79426 389.01127 
L 343.930572 388.769979 
L 344.32945 388.220061 
L 344.422208 388.074164 
L 344.737491 387.647697 
L 344.834057 387.507412 
L 344.969995 387.367126 
L 345.372551 387.22123 
L 345.496457 387.075333 
L 345.553599 386.935048 
L 345.772248 386.654477 
L 345.898099 386.486135 
L 346.007569 386.317793 
L 346.564128 385.582698 
L 346.798895 385.504138 
L 347.12023 385.375076 
L 348.439512 383.24274 
L 348.751 383.023895 
L 348.867845 382.88361 
L 348.995584 382.754548 
L 349.119423 382.384195 
L 349.269939 382.148515 
L 349.381487 381.851111 
L 349.790715 381.13285 
L 349.91655 381.031845 
L 350.553381 380.364087 
L 350.71482 380.033014 
L 350.812915 379.814169 
L 351.026863 379.404536 
L 351.356107 378.882675 
L 351.466833 378.714332 
L 351.550598 378.635773 
L 351.862078 378.495487 
L 352.070749 378.366425 
L 352.166119 378.209306 
L 352.279382 378.001683 
L 352.38583 377.822118 
L 352.489729 377.547159 
L 352.611763 377.373206 
L 353.297069 376.206032 
L 353.740883 375.987187 
L 353.888366 375.644891 
L 354.042082 375.375544 
L 354.257185 375.055693 
L 354.574818 374.455272 
L 354.744431 374.129811 
L 354.857746 374.023194 
L 355.374637 373.826794 
L 355.458822 373.664064 
L 355.991791 372.850409 
L 356.142749 372.69329 
L 356.316681 372.463222 
L 356.431456 372.29488 
L 356.530107 372.238765 
L 356.995893 372.053589 
L 357.527078 371.38022 
L 357.649312 371.234323 
L 357.801089 371.071592 
L 358.163274 370.673182 
L 358.435401 370.572177 
L 358.793305 370.274772 
L 358.979975 370.022259 
L 359.105143 369.859528 
L 359.316325 369.601403 
L 360.029663 368.933645 
L 360.325309 368.804583 
L 360.628359 368.338836 
L 360.786385 368.164882 
L 360.934736 367.951648 
L 361.255286 367.547627 
L 362.185271 367.194108 
L 362.301689 366.992097 
L 362.523612 366.733972 
L 362.708903 366.492682 
L 363.162092 366.08866 
L 363.511959 365.925929 
L 363.841662 365.432125 
L 364.052113 365.258172 
L 364.213847 365.061772 
L 364.444819 364.640917 
L 364.592075 364.365957 
L 364.705076 364.186392 
L 365.032557 364.079776 
L 365.340057 363.950713 
L 365.576071 363.625251 
L 365.714368 363.423241 
L 365.804941 363.288567 
L 366.016116 362.918214 
L 366.118543 362.755483 
L 366.258543 362.581529 
L 366.44293 362.446855 
L 366.896628 362.284124 
L 367.08265 362.020388 
L 367.408125 361.638812 
L 367.565744 361.39191 
L 367.690871 361.189899 
L 367.79777 361.015946 
L 367.887396 360.858826 
L 368.002764 360.690484 
L 368.511356 360.437971 
L 369.110803 359.461585 
L 369.241608 359.237129 
L 369.399578 358.995838 
L 369.787992 358.412252 
L 370.170108 358.243909 
L 370.308244 357.997007 
L 371.247064 356.347253 
L 371.396821 356.167688 
L 372.077461 355.89834 
L 372.34296 355.404536 
L 373.370695 354.063409 
L 373.56092 353.895067 
L 373.720172 353.575216 
L 373.824223 353.367594 
L 373.990691 353.053355 
L 374.111169 352.918681 
L 374.250197 352.733505 
L 374.548314 352.239701 
L 374.738022 352.110638 
L 375.084938 351.947907 
L 375.210338 351.807622 
L 375.293216 351.594389 
L 375.84064 350.477718 
L 375.954806 350.309376 
L 376.125155 350.101754 
L 376.402876 349.781903 
L 376.848272 349.652841 
L 376.962067 349.445219 
L 377.111966 349.260042 
L 377.831017 348.266823 
L 377.99037 348.019921 
L 378.466822 347.829133 
L 378.577592 347.526116 
L 378.715684 347.38022 
L 378.833645 347.200655 
L 379.584574 346.005424 
L 380.08134 345.814636 
L 380.180677 345.640683 
L 380.305225 345.584569 
L 381.191894 344.490344 
L 381.304181 344.417395 
L 381.747794 344.260276 
L 381.973762 343.901146 
L 382.138534 343.721581 
L 382.921438 342.621744 
L 383.408152 342.459013 
L 383.548998 342.150386 
L 383.921715 341.381623 
L 384.048631 341.078606 
L 384.833595 339.967547 
L 385.053492 339.832874 
L 385.330006 339.552303 
L 385.428753 339.406406 
L 385.756561 338.834043 
L 385.841609 338.660089 
L 386.007687 338.390741 
L 386.082639 338.261679 
L 386.217493 338.087725 
L 386.926621 337.520973 
L 387.05447 337.229179 
L 387.346935 336.825158 
L 387.514561 336.533365 
L 387.696516 336.286462 
L 387.821143 336.112509 
L 387.999123 336.005892 
L 388.331286 335.83755 
L 388.454221 335.652373 
L 388.779742 335.141735 
L 388.912903 334.956558 
L 389.063862 334.636708 
L 389.421629 334.114847 
L 389.77709 333.918448 
L 389.931272 333.862333 
L 390.085944 333.621043 
L 390.309037 333.222633 
L 390.420443 333.05429 
L 390.578718 332.700772 
L 390.660201 332.515595 
L 390.77619 332.347253 
L 391.14585 331.786112 
L 391.588013 331.589712 
L 391.894685 331.02296 
L 392.029747 330.66383 
L 392.41259 330.012906 
L 392.551839 329.766004 
L 392.734337 329.434931 
L 393.548857 328.649334 
L 393.935257 327.785177 
L 394.063987 327.571943 
L 394.663208 326.679729 
L 394.990719 326.488941 
L 395.795525 325.243208 
L 395.912918 325.024363 
L 396.288376 324.564227 
L 396.635057 324.401496 
L 396.707462 324.233154 
L 397.300725 323.26238 
L 397.419879 323.116484 
L 397.5611 322.931307 
L 397.683295 322.695628 
L 397.842394 322.572177 
L 398.185586 322.420669 
L 398.298488 322.263549 
L 399.510855 320.613795 
L 400.03456 320.192939 
L 400.257203 319.873089 
L 400.377585 319.631798 
L 400.867887 318.896703 
L 400.981649 318.756418 
L 401.231177 318.610521 
L 401.622704 318.442179 
L 401.812895 318.184054 
L 401.939857 317.987655 
L 402.295178 317.561188 
L 402.557584 317.336731 
L 402.655034 317.185223 
L 403.220416 317.033715 
L 404.037936 315.65892 
L 404.154215 315.383961 
L 404.336994 315.097779 
L 404.798371 314.963105 
L 404.910913 314.755483 
L 405.001189 314.592752 
L 405.108391 314.373907 
L 405.321053 314.003554 
L 405.426794 313.784709 
L 405.562882 313.515361 
L 406.125559 312.780267 
L 406.637915 312.230348 
L 406.824894 311.932944 
L 407.029958 311.545756 
L 407.231111 311.427917 
L 407.363696 311.197849 
L 407.745752 310.687211 
L 408.146406 310.541314 
L 408.260031 310.401029 
L 408.437244 310.064344 
L 408.641907 309.722048 
L 408.774146 309.508815 
L 408.904884 309.357307 
L 409.009407 309.121627 
L 409.134581 308.981342 
L 409.25116 308.829834 
L 409.34047 308.711994 
L 409.755521 308.571709 
L 409.872229 308.358476 
L 410.923145 306.383259 
L 411.400351 306.113912 
L 411.52812 305.861398 
L 411.67544 305.552771 
L 412.132369 304.576385 
L 412.213754 304.374375 
L 412.732452 303.684171 
L 413.119548 303.476549 
L 413.304705 302.982745 
L 413.414351 302.836848 
L 413.713352 302.281319 
L 413.872825 302.017582 
L 414.070751 301.838017 
L 414.205127 301.669675 
L 414.824359 301.377882 
L 415.996635 299.498059 
L 416.21966 299.430722 
L 416.447602 299.296049 
L 416.657821 298.959364 
L 417.720181 298.128875 
L 418.063425 297.954922 
L 418.405678 297.47234 
L 419.403921 296.501567 
L 419.703387 296.372504 
L 419.969249 295.912368 
L 420.086628 295.704746 
L 420.212894 295.542015 
L 420.591412 295.076268 
L 420.766255 294.907926 
L 421.000173 294.705915 
L 421.620013 294.548796 
L 421.753396 294.503905 
L 421.962479 294.335562 
L 422.075015 294.257003 
L 422.243271 294.195277 
L 422.684489 294.054992 
L 423.289909 293.909095 
L 423.455918 293.718307 
L 423.598722 293.583633 
L 423.949567 293.162778 
L 424.061685 292.994435 
L 424.723395 292.652139 
L 424.849071 292.545523 
L 425.044431 292.349123 
L 425.153268 292.119055 
L 425.342288 291.743091 
L 425.448144 291.563526 
L 425.738999 291.198784 
L 425.886389 291.131447 
L 426.322434 290.912602 
L 426.646208 290.531026 
L 426.779345 290.362684 
L 426.918029 290.155062 
L 427.035387 289.981108 
L 427.204524 289.700538 
L 427.325936 289.543418 
L 427.452076 289.31335 
L 427.514077 289.285293 
L 427.923682 289.15062 
L 428.108976 288.903718 
L 428.240396 288.639981 
L 428.327273 288.47725 
L 428.671813 288.000281 
L 428.805313 287.820715 
L 429.026867 287.500865 
L 429.152516 287.349357 
L 429.275947 287.304466 
L 429.503846 287.248352 
L 429.641291 287.113678 
L 429.74089 286.967781 
L 430.354898 285.772551 
L 430.460899 285.626654 
L 430.580285 285.424643 
L 430.792595 285.138462 
L 431.417444 284.756886 
L 431.568004 284.504372 
L 431.674049 284.352864 
L 432.526914 283.123965 
L 432.730193 282.994903 
L 433.230999 282.534767 
L 433.522471 282.080243 
L 433.724953 281.86701 
L 433.837216 281.642553 
L 434.010801 281.519102 
L 434.117891 281.384428 
L 434.652708 281.227309 
L 434.766683 281.087024 
L 434.920778 280.957961 
L 435.091262 280.705448 
L 435.196858 280.542717 
L 435.360427 280.250924 
L 435.474473 279.964742 
L 435.683136 279.571943 
L 435.928378 279.296984 
L 436.233748 279.151087 
L 437.34494 277.288099 
L 437.885992 277.0917 
L 438.033153 276.850409 
L 438.15869 276.721347 
L 439.303453 275.750573 
L 439.589951 275.627122 
L 440.713674 274.072761 
L 441.202558 273.921253 
L 441.460593 273.584569 
L 441.62922 273.287164 
L 441.777997 273.068319 
L 441.945516 272.798971 
L 442.223177 272.462287 
L 442.347468 272.327613 
L 442.565662 272.265887 
L 442.741548 272.148048 
L 442.855861 271.901146 
L 442.940713 271.721581 
L 443.189231 271.407342 
L 443.811746 270.582464 
L 444.723569 269.920318 
L 444.870986 269.757587 
L 445.019332 269.572411 
L 445.161279 269.3704 
L 445.305445 269.235726 
L 445.560384 269.039327 
L 445.68633 268.904653 
L 446.07407 268.769979 
L 446.228504 268.629694 
L 446.658188 268.029273 
L 446.907681 267.58036 
L 447.087894 267.277344 
L 447.299402 266.991162 
L 447.762034 266.805986 
L 448.207847 265.94744 
L 448.336728 265.773486 
L 448.461724 265.565864 
L 448.586827 265.386299 
L 448.711752 265.201122 
L 449.301911 264.898106 
L 449.393459 264.769044 
L 449.516132 264.538976 
L 450.487133 263.158569 
L 451.415122 262.737713 
L 451.778407 262.434697 
L 452.047938 262.215852 
L 452.291062 262.053121 
L 452.858909 261.800608 
L 452.972343 261.6491 
L 453.228052 261.357307 
L 453.394591 261.031845 
L 453.574859 260.756886 
L 453.740122 260.622212 
L 454.486531 260.072294 
L 455.208547 259.039794 
L 455.581657 258.641384 
L 456.106018 258.461819 
L 456.223053 258.3047 
L 456.592663 257.838953 
L 456.706546 257.648165 
L 456.835901 257.485434 
L 457.168856 257.019687 
L 457.641969 256.868179 
L 457.824626 256.699836 
L 457.948652 256.565162 
L 458.079029 256.301426 
L 458.653499 255.611223 
L 458.761509 255.459715 
L 459.383391 255.341875 
L 460.045855 254.348656 
L 460.193456 254.197148 
L 460.301299 254.101754 
L 461.01011 253.821183 
L 461.133536 253.647229 
L 461.333469 253.473276 
L 461.483477 253.310545 
L 461.725222 253.108534 
L 461.876546 252.923357 
L 462.135274 252.704513 
L 462.753845 252.524947 
L 462.886365 252.451999 
L 464.014729 251.318494 
L 464.312106 251.195043 
L 464.540313 250.976198 
L 464.697648 250.751742 
L 464.805052 250.645125 
L 464.943767 250.454337 
L 465.056148 250.353332 
L 465.263617 250.100818 
L 465.383653 249.926865 
L 465.730025 249.842693 
L 465.963752 249.719242 
L 466.146138 249.444283 
L 466.268121 249.281552 
L 466.377124 249.135656 
L 466.495025 248.972925 
L 466.683267 248.821417 
L 466.908179 248.59696 
L 467.19261 248.31639 
L 467.65022 248.153659 
L 467.766365 247.962871 
L 468.228009 247.485901 
L 468.611706 247.08188 
L 468.724448 246.947206 
L 468.866173 246.812532 
L 469.330348 246.638578 
L 469.472732 246.481459 
L 469.83642 246.038158 
L 469.985083 245.892261 
L 470.090139 245.72953 
L 470.257693 245.493851 
L 470.595524 245.319897 
L 471.028721 245.089829 
L 471.358165 244.652139 
L 471.632672 244.298621 
L 471.752891 244.130278 
L 472.027964 243.894599 
L 472.569742 243.715034 
L 473.699987 242.491747 
L 474.21533 242.34585 
L 474.590346 241.818377 
L 474.730428 241.638812 
L 475.480399 240.679261 
L 475.872672 240.51653 
L 476.248334 240.112509 
L 476.417371 239.916109 
L 476.541392 239.71971 
L 476.68237 239.523311 
L 476.91987 239.315689 
L 477.519404 239.074398 
L 477.63737 238.934113 
L 477.875853 238.591817 
L 478.042776 238.423474 
L 478.17374 238.210241 
L 478.268329 238.081178 
L 478.656678 237.604209 
L 479.316598 237.267524 
L 479.439118 237.116016 
L 480.1907 235.999345 
L 481.131845 235.488707 
L 481.251976 235.292308 
L 481.380797 235.123965 
L 481.649485 234.691887 
L 482.029671 234.360814 
L 482.477509 234.209306 
L 482.593756 234.046575 
L 482.880093 233.822118 
L 482.978531 233.664999 
L 483.188138 233.333926 
L 483.781347 232.800842 
L 484.15493 232.677391 
L 484.305072 232.492214 
L 484.9594 231.71784 
L 485.075556 231.588777 
L 485.344681 231.31943 
L 485.885383 231.151087 
L 486.00413 231.033248 
L 487.131462 229.697732 
L 487.505746 229.551835 
L 487.676137 229.355436 
L 488.708036 228.395885 
L 489.084337 228.278045 
L 489.398441 227.924527 
L 489.580003 227.711293 
L 489.813804 227.593453 
L 489.925592 227.402665 
L 490.043348 227.279214 
L 490.965747 226.560954 
L 491.077199 226.364555 
L 491.381912 226.011036 
L 491.500664 225.870751 
L 491.646649 225.7473 
L 492.570538 225.130044 
L 493.141093 224.428618 
L 493.457318 224.018985 
L 493.57084 223.940426 
L 493.995722 223.794529 
L 494.448341 223.177274 
L 494.561229 223.031377 
L 495.120512 222.380454 
L 495.763224 222.077437 
L 496.034349 221.780033 
L 496.880731 220.708253 
L 497.252681 220.551134 
L 497.955308 219.883376 
L 498.068511 219.782371 
L 498.237913 219.54108 
L 498.353567 219.400795 
L 498.493122 219.215618 
L 498.96324 219.069722 
L 499.76275 218.155062 
L 500.147889 217.992331 
L 500.33781 217.936217 
L 500.711614 217.818377 
L 500.817579 217.722983 
L 500.946574 217.571475 
L 501.046635 217.43119 
L 501.23521 217.240402 
L 501.356146 217.07206 
L 501.934048 216.628758 
L 502.367961 216.454805 
L 503.751807 215.186626 
L 504.086722 214.995838 
L 504.186189 214.88361 
L 504.355327 214.698433 
L 504.797457 214.378583 
L 504.919131 214.249521 
L 505.336282 214.098013 
L 505.750634 213.811831 
L 505.866261 213.705214 
L 506.042794 213.514426 
L 506.174948 213.385364 
L 506.465104 213.116016 
L 506.558375 213.031845 
L 507.711675 212.711994 
L 507.885658 212.6166 
L 508.052658 212.465092 
L 508.883257 212.044237 
L 509.642773 211.679495 
L 510.35849 211.123965 
L 510.572758 210.994903 
L 510.960564 210.607716 
L 511.137288 210.388871 
L 511.270064 210.231751 
L 511.505959 210.007295 
L 511.637327 209.861398 
L 512.120134 209.687444 
L 512.310533 209.552771 
L 512.539987 209.333926 
L 512.654924 209.23292 
L 513.47232 208.363152 
L 513.882892 208.222866 
L 513.995335 208.127473 
L 514.485186 207.616834 
L 514.695154 207.325041 
L 514.885623 207.16231 
L 514.964963 207.072527 
L 515.270557 206.921019 
L 515.382275 206.870517 
L 515.744194 206.382324 
L 516.849877 205.220762 
L 517.263749 204.940192 
L 517.549314 204.642787 
L 518.518848 204.019921 
L 518.780025 203.885247 
L 520.116722 202.409446 
L 520.43681 202.263549 
L 520.592417 202.100818 
L 520.688429 201.971756 
L 520.8036 201.848305 
L 521.811406 200.731634 
L 522.073547 200.580126 
L 522.334741 200.103156 
L 522.499791 199.794529 
L 522.728102 199.671078 
L 523.312804 198.795698 
L 523.722704 198.610521 
L 524.073551 198.077437 
L 524.253281 197.735141 
L 524.339792 197.589245 
L 524.494496 197.336731 
L 524.574414 197.129109 
L 524.953907 196.624082 
L 525.520662 196.410849 
L 525.760439 196.236895 
L 526.287505 195.720645 
L 527.093528 195.46252 
L 527.289169 195.288567 
L 527.989888 194.654477 
L 528.174819 194.435632 
L 528.630015 194.289736 
L 528.941664 193.891326 
L 529.04716 193.767875 
L 529.270068 193.532195 
L 529.389694 193.375076 
L 530.11328 192.757821 
L 530.352041 192.623147 
L 530.601954 192.23596 
L 531.471513 191.051952 
L 531.98464 190.928501 
L 532.431594 190.305635 
L 532.689812 189.974562 
L 532.867303 189.660323 
L 533.099048 189.362918 
L 533.190749 189.323638 
L 533.550509 189.149684 
L 535.076851 187.426982 
L 535.357774 187.292308 
L 535.497288 187.157634 
L 535.756139 186.792892 
L 536.00766 186.422539 
L 536.084622 186.276643 
L 536.224805 186.119523 
L 536.362875 185.939958 
L 536.472032 185.838953 
L 536.733793 185.693056 
L 537.050253 185.496657 
L 537.399424 185.075801 
L 537.715881 184.83451 
L 537.831527 184.610054 
L 538.140946 184.262146 
L 538.39815 184.11625 
L 539.005031 183.52144 
L 539.263536 183.184756 
L 539.376531 182.988356 
L 539.750239 182.410381 
L 540.248227 182.258873 
L 540.615159 181.753846 
L 540.726047 181.619172 
L 540.896836 181.338602 
L 541.053899 181.203928 
L 541.630952 180.65401 
L 541.954001 180.45761 
L 542.100862 180.317325 
L 542.182828 180.171429 
L 543.082723 179.245546 
L 543.45155 179.054758 
L 543.661984 178.835913 
L 543.816153 178.690016 
L 544.992797 177.5509 
L 545.348326 177.365724 
L 545.517423 177.186159 
L 546.556663 176.524012 
L 546.833532 176.389338 
L 546.993879 176.220996 
L 547.466828 175.772083 
L 547.602777 175.626187 
L 548.105003 175.12116 
L 548.356098 175.048211 
L 548.589847 174.919149 
L 549.044366 174.537573 
L 549.528178 173.937152 
L 550.239481 173.572411 
L 550.352978 173.488239 
L 550.504931 173.359177 
L 550.619121 173.190835 
L 550.817888 172.943933 
L 551.082802 172.663362 
L 551.208866 172.472574 
L 551.409953 172.3379 
L 551.825118 172.158335 
L 551.943543 172.006827 
L 552.127914 171.759925 
L 552.324164 171.642086 
L 553.041861 170.935048 
L 553.643156 170.564695 
L 553.787508 170.407575 
L 553.93029 170.261679 
L 554.344372 169.689315 
L 554.466133 169.537807 
L 554.576365 169.425579 
L 554.983792 169.279682 
L 555.23596 169.088894 
L 555.368911 168.91494 
L 555.697208 168.572644 
L 556.305252 167.910498 
L 556.753737 167.75899 
L 556.863107 167.624316 
L 556.997811 167.495254 
L 557.793059 166.468366 
L 557.900742 166.32808 
L 558.421242 166.137292 
L 559.973115 164.689549 
L 560.275523 164.465092 
L 560.441669 164.21819 
L 560.712622 163.797335 
L 560.817512 163.584101 
L 560.895393 163.432593 
L 561.088882 163.230582 
L 561.604079 162.972457 
L 561.792091 162.843395 
L 562.036351 162.439373 
L 562.312644 162.057798 
L 562.407973 161.934347 
L 562.592824 161.732336 
L 562.74918 161.586439 
L 562.882317 161.434931 
L 563.019404 161.361983 
L 563.360503 161.216086 
L 563.492108 161.03091 
L 563.677956 160.750339 
L 563.789286 160.587608 
L 563.991459 160.267758 
L 564.111732 160.110638 
L 564.249857 159.903016 
L 564.481558 159.571943 
L 564.74784 159.442881 
L 564.996732 159.31943 
L 565.648653 158.292542 
L 565.800428 158.146645 
L 566.276655 157.731401 
L 566.69302 157.579892 
L 567.107126 157.147814 
L 567.296264 156.93458 
L 567.456417 156.783072 
L 567.68556 156.508113 
L 567.791979 156.384662 
L 568.345463 156.210708 
L 568.475289 156.047978 
L 568.651508 155.885247 
L 569.153278 155.150152 
L 569.296347 154.987421 
L 570.278131 154.46556 
L 571.226405 153.477952 
L 571.611576 153.27033 
L 571.752507 153.118822 
L 571.873588 152.978536 
L 571.997492 152.79336 
L 572.329557 152.293944 
L 572.437422 152.136825 
L 572.61837 151.934814 
L 572.755607 151.80014 
L 573.217033 151.648632 
L 574.727568 150.257003 
L 574.991238 150.094272 
L 575.093072 149.937152 
L 575.1691 149.869815 
L 575.268817 149.746364 
L 575.404566 149.555576 
L 575.650422 149.263783 
L 575.782476 149.072995 
L 576.009465 148.753145 
L 576.125755 148.635305 
L 576.236061 148.551134 
L 576.519261 148.405237 
L 576.628693 148.236895 
L 576.862032 147.989993 
L 577.191026 147.574749 
L 578.84636 146.222399 
L 579.117073 145.852046 
L 579.220164 145.689315 
L 579.356932 145.476081 
L 579.742471 145.318962 
L 580.377089 144.611924 
L 581.160855 144.067617 
L 581.529736 143.938555 
L 582.649596 142.120458 
L 582.93424 141.946505 
L 583.060525 141.862333 
L 583.314894 141.637877 
L 583.436188 141.542483 
L 583.564834 141.374141 
L 584.092058 140.431424 
L 584.19822 140.29675 
L 584.483072 140.089128 
L 584.885603 139.915174 
L 586.015968 139.067851 
L 586.502647 138.921955 
L 587.561879 138.007295 
L 588.116111 137.833341 
L 588.681687 137.165583 
L 588.965455 136.823287 
L 589.23097 136.559551 
L 589.333855 136.520271 
L 589.765169 136.351929 
L 589.872554 136.183587 
L 590.031179 136.015244 
L 590.870033 135.156699 
L 591.41636 134.999579 
L 591.894985 134.550666 
L 592.13436 134.303764 
L 592.375766 134.000748 
L 592.702908 133.787515 
L 593.042284 133.652841 
L 593.219136 133.49011 
L 593.511624 133.293711 
L 593.737873 133.153425 
L 593.906894 133.024363 
L 594.13346 132.884078 
L 594.270361 132.805518 
L 595.669476 132.154594 
L 595.84011 132.019921 
L 596.174378 131.930138 
L 596.483543 131.716904 
L 596.89291 131.296049 
L 596.995348 131.155763 
L 597.342761 130.639514 
L 598.073687 130.246715 
L 598.184785 130.100818 
L 598.318686 129.966144 
L 598.836211 129.427449 
L 599.608872 128.956091 
L 599.855757 128.798971 
L 600.448805 128.282722 
L 600.711855 128.097545 
L 600.820061 127.990928 
L 600.997058 127.962871 
L 601.451329 127.80014 
L 601.930756 127.317559 
L 602.222261 127.036989 
L 603.123123 126.627356 
L 603.464876 126.301894 
L 603.621988 126.16722 
L 603.762692 126.032546 
L 604.782842 125.437737 
L 604.866729 125.364788 
L 605.000573 125.235726 
L 605.114524 125.061772 
L 605.229151 124.910264 
L 605.501868 124.646528 
L 605.746518 124.410849 
L 605.894165 124.3379 
L 606.293357 124.192004 
L 606.489634 123.984382 
L 606.667292 123.827262 
L 606.776211 123.670143 
L 607.138614 123.305401 
L 607.387435 123.086556 
L 607.829317 122.974328 
L 608.014313 122.82282 
L 608.098796 122.654477 
L 608.207158 122.553472 
L 608.323874 122.396353 
L 608.514672 122.171896 
L 608.786791 121.885714 
L 608.897705 121.801543 
L 609.146887 121.565864 
L 609.188601 121.543418 
L 609.626598 121.403133 
L 609.935943 121.128174 
L 610.93666 120.146177 
L 611.314324 120.005892 
L 611.863561 119.422305 
L 611.91435 119.394248 
L 612.195508 119.259574 
L 612.384533 119.169792 
L 612.963825 118.995838 
L 613.555658 118.473977 
L 613.707236 118.339303 
L 613.889974 118.159738 
L 614.102172 118.002619 
L 614.591551 117.794996 
L 615.671405 116.420201 
L 616.043298 116.279916 
L 616.75405 115.853449 
L 617.555443 115.146411 
L 617.932105 114.955623 
L 618.029367 114.882675 
L 618.206476 114.753612 
L 618.635033 114.338368 
L 618.99042 113.979238 
L 619.581829 113.74917 
L 619.669452 113.681833 
L 619.959635 113.524714 
L 620.101961 113.406874 
L 620.779773 112.946738 
L 621.170538 112.784007 
L 621.737566 112.346318 
L 621.945535 112.138695 
L 622.101129 111.987187 
L 622.226516 111.779565 
L 622.459585 111.684171 
L 622.636364 111.6 
L 622.636364 111.6 
" style="fill:none;stroke:#92c6ff;stroke-linecap:round;stroke-width:1.5;"/>
   </g>
   <g id="line2d_24">
    <defs>
     <path d="M 0 2.5 
C 0.663008 2.5 1.29895 2.236584 1.767767 1.767767 
C 2.236584 1.29895 2.5 0.663008 2.5 0 
C 2.5 -0.663008 2.236584 -1.29895 1.767767 -1.767767 
C 1.29895 -2.236584 0.663008 -2.5 0 -2.5 
C -0.663008 -2.5 -1.29895 -2.236584 -1.767767 -1.767767 
C -2.236584 -1.29895 -2.5 -0.663008 -2.5 0 
C -2.5 0.663008 -2.236584 1.29895 -1.767767 1.767767 
C -1.29895 2.236584 -0.663008 2.5 0 2.5 
z
" id="mbbddde83b3" style="stroke:#696969;"/>
    </defs>
    <g clip-path="url(#p18ba09fe6d)">
     <use style="fill:#696969;stroke:#696969;" x="115.363636" xlink:href="#mbbddde83b3" y="615.6"/>
    </g>
   </g>
   <g id="line2d_25">
    <g clip-path="url(#p18ba09fe6d)">
     <use style="fill:#696969;stroke:#696969;" x="199.50619" xlink:href="#mbbddde83b3" y="565.198317"/>
    </g>
   </g>
   <g id="line2d_26">
    <g clip-path="url(#p18ba09fe6d)">
     <use style="fill:#696969;stroke:#696969;" x="243.531583" xlink:href="#mbbddde83b3" y="514.796633"/>
    </g>
   </g>
   <g id="line2d_27">
    <g clip-path="url(#p18ba09fe6d)">
     <use style="fill:#696969;stroke:#696969;" x="288.3817" xlink:href="#mbbddde83b3" y="464.39495"/>
    </g>
   </g>
   <g id="line2d_28">
    <g clip-path="url(#p18ba09fe6d)">
     <use style="fill:#696969;stroke:#696969;" x="323.108505" xlink:href="#mbbddde83b3" y="413.993266"/>
    </g>
   </g>
   <g id="line2d_29">
    <g clip-path="url(#p18ba09fe6d)">
     <use style="fill:#696969;stroke:#696969;" x="365.601356" xlink:href="#mbbddde83b3" y="363.591583"/>
    </g>
   </g>
   <g id="line2d_30">
    <g clip-path="url(#p18ba09fe6d)">
     <use style="fill:#696969;stroke:#696969;" x="405.729448" xlink:href="#mbbddde83b3" y="313.189899"/>
    </g>
   </g>
   <g id="line2d_31">
    <g clip-path="url(#p18ba09fe6d)">
     <use style="fill:#696969;stroke:#696969;" x="451.27082" xlink:href="#mbbddde83b3" y="262.788216"/>
    </g>
   </g>
   <g id="line2d_32">
    <g clip-path="url(#p18ba09fe6d)">
     <use style="fill:#696969;stroke:#696969;" x="508.124293" xlink:href="#mbbddde83b3" y="212.386533"/>
    </g>
   </g>
   <g id="line2d_33">
    <g clip-path="url(#p18ba09fe6d)">
     <use style="fill:#696969;stroke:#696969;" x="562.389341" xlink:href="#mbbddde83b3" y="161.990461"/>
    </g>
   </g>
   <g id="line2d_34">
    <g clip-path="url(#p18ba09fe6d)">
     <use style="fill:#696969;stroke:#696969;" x="622.636364" xlink:href="#mbbddde83b3" y="111.6"/>
    </g>
   </g>
   <g id="patch_3">
    <path d="M 90 640.8 
L 90 86.4 
" style="fill:none;stroke:#cccccc;stroke-linecap:square;stroke-linejoin:miter;"/>
   </g>
   <g id="patch_4">
    <path d="M 648 640.8 
L 648 86.4 
" style="fill:none;stroke:#cccccc;stroke-linecap:square;stroke-linejoin:miter;"/>
   </g>
   <g id="patch_5">
    <path d="M 90 640.8 
L 648 640.8 
" style="fill:none;stroke:#cccccc;stroke-linecap:square;stroke-linejoin:miter;"/>
   </g>
   <g id="patch_6">
    <path d="M 90 86.4 
L 648 86.4 
" style="fill:none;stroke:#cccccc;stroke-linecap:square;stroke-linejoin:miter;"/>
   </g>
   <g id="text_12">
    <!-- 1 (2014-06-06) -->
    <defs>
     <path id="LiberationSans-32"/>
     <path d="M 6.203125 25.984375 
Q 6.203125 32.765625 7.21875 38.96875 
Q 8.25 45.171875 10.4375 50.875 
Q 12.640625 56.59375 16.0625 61.953125 
Q 19.484375 67.328125 24.21875 72.46875 
L 32.71875 72.46875 
Q 28.125 67.328125 24.78125 61.9375 
Q 21.4375 56.546875 19.28125 50.796875 
Q 17.140625 45.0625 16.09375 38.859375 
Q 15.046875 32.671875 15.046875 25.875 
Q 15.046875 19.09375 16.09375 12.890625 
Q 17.140625 6.6875 19.28125 0.921875 
Q 21.4375 -4.828125 24.78125 -10.203125 
Q 28.125 -15.578125 32.71875 -20.703125 
L 24.21875 -20.703125 
Q 19.484375 -15.578125 16.0625 -10.203125 
Q 12.640625 -4.828125 10.4375 0.875 
Q 8.25 6.59375 7.21875 12.765625 
Q 6.203125 18.953125 6.203125 25.78125 
z
" id="LiberationSans-40"/>
     <path d="M 4.4375 22.65625 
L 4.4375 30.46875 
L 28.859375 30.46875 
L 28.859375 22.65625 
z
" id="LiberationSans-45"/>
     <path d="M 27.09375 25.78125 
Q 27.09375 18.953125 26.0625 12.765625 
Q 25.046875 6.59375 22.84375 0.875 
Q 20.65625 -4.828125 17.234375 -10.203125 
Q 13.8125 -15.578125 9.078125 -20.703125 
L 0.59375 -20.703125 
Q 5.171875 -15.578125 8.515625 -10.203125 
Q 11.859375 -4.828125 14 0.921875 
Q 16.15625 6.6875 17.203125 12.890625 
Q 18.265625 19.09375 18.265625 25.875 
Q 18.265625 32.671875 17.203125 38.859375 
Q 16.15625 45.0625 14 50.796875 
Q 11.859375 56.546875 8.515625 61.9375 
Q 5.171875 67.328125 0.59375 72.46875 
L 9.078125 72.46875 
Q 13.8125 67.328125 17.234375 61.953125 
Q 20.65625 56.59375 22.84375 50.875 
Q 25.046875 45.171875 26.0625 38.96875 
Q 27.09375 32.765625 27.09375 25.984375 
z
" id="LiberationSans-41"/>
    </defs>
    <g style="fill:#262626;" transform="translate(120.363636 622.846875)scale(0.1 -0.1)">
     <use xlink:href="#LiberationSans-49"/>
     <use x="55.615234" xlink:href="#LiberationSans-32"/>
     <use x="83.398438" xlink:href="#LiberationSans-40"/>
     <use x="116.699219" xlink:href="#LiberationSans-50"/>
     <use x="172.314453" xlink:href="#LiberationSans-48"/>
     <use x="227.929688" xlink:href="#LiberationSans-49"/>
     <use x="283.544922" xlink:href="#LiberationSans-52"/>
     <use x="339.160156" xlink:href="#LiberationSans-45"/>
     <use x="372.460938" xlink:href="#LiberationSans-48"/>
     <use x="428.076172" xlink:href="#LiberationSans-54"/>
     <use x="483.691406" xlink:href="#LiberationSans-45"/>
     <use x="516.992188" xlink:href="#LiberationSans-48"/>
     <use x="572.607422" xlink:href="#LiberationSans-54"/>
     <use x="628.222656" xlink:href="#LiberationSans-41"/>
    </g>
   </g>
   <g id="text_13">
    <!-- 8983 (2015-05-29) -->
    <defs>
     <path d="M 51.21875 19 
Q 51.21875 14.265625 49.671875 10.546875 
Q 48.140625 6.84375 45.1875 4.265625 
Q 42.234375 1.703125 37.859375 0.359375 
Q 33.5 -0.984375 27.875 -0.984375 
Q 21.484375 -0.984375 17.109375 0.609375 
Q 12.75 2.203125 9.90625 4.8125 
Q 7.078125 7.421875 5.65625 10.765625 
Q 4.25 14.109375 3.8125 17.671875 
L 12.890625 18.5 
Q 13.28125 15.765625 14.328125 13.515625 
Q 15.375 11.28125 17.1875 9.671875 
Q 19 8.0625 21.625 7.171875 
Q 24.265625 6.296875 27.875 6.296875 
Q 34.515625 6.296875 38.296875 9.5625 
Q 42.09375 12.84375 42.09375 19.28125 
Q 42.09375 23.09375 40.40625 25.40625 
Q 38.71875 27.734375 36.203125 29.03125 
Q 33.6875 30.328125 30.734375 30.765625 
Q 27.78125 31.203125 25.296875 31.203125 
L 20.3125 31.203125 
L 20.3125 38.8125 
L 25.09375 38.8125 
Q 27.59375 38.8125 30.265625 39.328125 
Q 32.953125 39.84375 35.171875 41.1875 
Q 37.40625 42.53125 38.84375 44.828125 
Q 40.28125 47.125 40.28125 50.6875 
Q 40.28125 56.203125 37.03125 59.390625 
Q 33.796875 62.59375 27.390625 62.59375 
Q 21.578125 62.59375 17.984375 59.609375 
Q 14.40625 56.640625 13.8125 51.21875 
L 4.984375 51.90625 
Q 5.515625 56.453125 7.46875 59.8125 
Q 9.421875 63.1875 12.421875 65.40625 
Q 15.4375 67.625 19.28125 68.71875 
Q 23.140625 69.828125 27.484375 69.828125 
Q 33.25 69.828125 37.390625 68.375 
Q 41.546875 66.9375 44.1875 64.46875 
Q 46.828125 62.015625 48.0625 58.6875 
Q 49.3125 55.375 49.3125 51.609375 
Q 49.3125 48.578125 48.484375 45.9375 
Q 47.65625 43.3125 45.890625 41.203125 
Q 44.140625 39.109375 41.421875 37.59375 
Q 38.71875 36.078125 34.90625 35.296875 
L 34.90625 35.109375 
Q 39.0625 34.671875 42.140625 33.21875 
Q 45.21875 31.78125 47.21875 29.625 
Q 49.21875 27.484375 50.21875 24.75 
Q 51.21875 22.015625 51.21875 19 
z
" id="LiberationSans-51"/>
    </defs>
    <g style="fill:#262626;" transform="translate(204.50619 572.445192)scale(0.1 -0.1)">
     <use xlink:href="#LiberationSans-56"/>
     <use x="55.615234" xlink:href="#LiberationSans-57"/>
     <use x="111.230469" xlink:href="#LiberationSans-56"/>
     <use x="166.845703" xlink:href="#LiberationSans-51"/>
     <use x="222.460938" xlink:href="#LiberationSans-32"/>
     <use x="250.244141" xlink:href="#LiberationSans-40"/>
     <use x="283.544922" xlink:href="#LiberationSans-50"/>
     <use x="339.160156" xlink:href="#LiberationSans-48"/>
     <use x="394.775391" xlink:href="#LiberationSans-49"/>
     <use x="450.390625" xlink:href="#LiberationSans-53"/>
     <use x="506.005859" xlink:href="#LiberationSans-45"/>
     <use x="539.306641" xlink:href="#LiberationSans-48"/>
     <use x="594.921875" xlink:href="#LiberationSans-53"/>
     <use x="650.537109" xlink:href="#LiberationSans-45"/>
     <use x="683.837891" xlink:href="#LiberationSans-50"/>
     <use x="739.453125" xlink:href="#LiberationSans-57"/>
     <use x="795.068359" xlink:href="#LiberationSans-41"/>
    </g>
   </g>
   <g id="text_14">
    <!-- 17965 (2015-12-02) -->
    <g style="fill:#262626;" transform="translate(248.531583 522.043508)scale(0.1 -0.1)">
     <use xlink:href="#LiberationSans-49"/>
     <use x="55.615234" xlink:href="#LiberationSans-55"/>
     <use x="111.230469" xlink:href="#LiberationSans-57"/>
     <use x="166.845703" xlink:href="#LiberationSans-54"/>
     <use x="222.460938" xlink:href="#LiberationSans-53"/>
     <use x="278.076172" xlink:href="#LiberationSans-32"/>
     <use x="305.859375" xlink:href="#LiberationSans-40"/>
     <use x="339.160156" xlink:href="#LiberationSans-50"/>
     <use x="394.775391" xlink:href="#LiberationSans-48"/>
     <use x="450.390625" xlink:href="#LiberationSans-49"/>
     <use x="506.005859" xlink:href="#LiberationSans-53"/>
     <use x="561.621094" xlink:href="#LiberationSans-45"/>
     <use x="594.921875" xlink:href="#LiberationSans-49"/>
     <use x="650.537109" xlink:href="#LiberationSans-50"/>
     <use x="706.152344" xlink:href="#LiberationSans-45"/>
     <use x="739.453125" xlink:href="#LiberationSans-48"/>
     <use x="795.068359" xlink:href="#LiberationSans-50"/>
     <use x="850.683594" xlink:href="#LiberationSans-41"/>
    </g>
   </g>
   <g id="text_15">
    <!-- 26947 (2016-06-09) -->
    <g style="fill:#262626;" transform="translate(293.3817 471.641825)scale(0.1 -0.1)">
     <use xlink:href="#LiberationSans-50"/>
     <use x="55.615234" xlink:href="#LiberationSans-54"/>
     <use x="111.230469" xlink:href="#LiberationSans-57"/>
     <use x="166.845703" xlink:href="#LiberationSans-52"/>
     <use x="222.460938" xlink:href="#LiberationSans-55"/>
     <use x="278.076172" xlink:href="#LiberationSans-32"/>
     <use x="305.859375" xlink:href="#LiberationSans-40"/>
     <use x="339.160156" xlink:href="#LiberationSans-50"/>
     <use x="394.775391" xlink:href="#LiberationSans-48"/>
     <use x="450.390625" xlink:href="#LiberationSans-49"/>
     <use x="506.005859" xlink:href="#LiberationSans-54"/>
     <use x="561.621094" xlink:href="#LiberationSans-45"/>
     <use x="594.921875" xlink:href="#LiberationSans-48"/>
     <use x="650.537109" xlink:href="#LiberationSans-54"/>
     <use x="706.152344" xlink:href="#LiberationSans-45"/>
     <use x="739.453125" xlink:href="#LiberationSans-48"/>
     <use x="795.068359" xlink:href="#LiberationSans-57"/>
     <use x="850.683594" xlink:href="#LiberationSans-41"/>
    </g>
   </g>
   <g id="text_16">
    <!-- 35929 (2016-11-03) -->
    <g style="fill:#262626;" transform="translate(328.108505 421.240141)scale(0.1 -0.1)">
     <use xlink:href="#LiberationSans-51"/>
     <use x="55.615234" xlink:href="#LiberationSans-53"/>
     <use x="111.230469" xlink:href="#LiberationSans-57"/>
     <use x="166.845703" xlink:href="#LiberationSans-50"/>
     <use x="222.460938" xlink:href="#LiberationSans-57"/>
     <use x="278.076172" xlink:href="#LiberationSans-32"/>
     <use x="305.859375" xlink:href="#LiberationSans-40"/>
     <use x="339.160156" xlink:href="#LiberationSans-50"/>
     <use x="394.775391" xlink:href="#LiberationSans-48"/>
     <use x="450.390625" xlink:href="#LiberationSans-49"/>
     <use x="506.005859" xlink:href="#LiberationSans-54"/>
     <use x="561.621094" xlink:href="#LiberationSans-45"/>
     <use x="594.921875" xlink:href="#LiberationSans-49"/>
     <use x="650.537109" xlink:href="#LiberationSans-49"/>
     <use x="706.152344" xlink:href="#LiberationSans-45"/>
     <use x="739.453125" xlink:href="#LiberationSans-48"/>
     <use x="795.068359" xlink:href="#LiberationSans-51"/>
     <use x="850.683594" xlink:href="#LiberationSans-41"/>
    </g>
   </g>
   <g id="text_17">
    <!-- 44911 (2017-05-02) -->
    <g style="fill:#262626;" transform="translate(370.601356 370.838458)scale(0.1 -0.1)">
     <use xlink:href="#LiberationSans-52"/>
     <use x="55.615234" xlink:href="#LiberationSans-52"/>
     <use x="111.230469" xlink:href="#LiberationSans-57"/>
     <use x="166.845703" xlink:href="#LiberationSans-49"/>
     <use x="222.460938" xlink:href="#LiberationSans-49"/>
     <use x="278.076172" xlink:href="#LiberationSans-32"/>
     <use x="305.859375" xlink:href="#LiberationSans-40"/>
     <use x="339.160156" xlink:href="#LiberationSans-50"/>
     <use x="394.775391" xlink:href="#LiberationSans-48"/>
     <use x="450.390625" xlink:href="#LiberationSans-49"/>
     <use x="506.005859" xlink:href="#LiberationSans-55"/>
     <use x="561.621094" xlink:href="#LiberationSans-45"/>
     <use x="594.921875" xlink:href="#LiberationSans-48"/>
     <use x="650.537109" xlink:href="#LiberationSans-53"/>
     <use x="706.152344" xlink:href="#LiberationSans-45"/>
     <use x="739.453125" xlink:href="#LiberationSans-48"/>
     <use x="795.068359" xlink:href="#LiberationSans-50"/>
     <use x="850.683594" xlink:href="#LiberationSans-41"/>
    </g>
   </g>
   <g id="text_18">
    <!-- 53893 (2017-10-20) -->
    <g style="fill:#262626;" transform="translate(410.729448 320.436774)scale(0.1 -0.1)">
     <use xlink:href="#LiberationSans-53"/>
     <use x="55.615234" xlink:href="#LiberationSans-51"/>
     <use x="111.230469" xlink:href="#LiberationSans-56"/>
     <use x="166.845703" xlink:href="#LiberationSans-57"/>
     <use x="222.460938" xlink:href="#LiberationSans-51"/>
     <use x="278.076172" xlink:href="#LiberationSans-32"/>
     <use x="305.859375" xlink:href="#LiberationSans-40"/>
     <use x="339.160156" xlink:href="#LiberationSans-50"/>
     <use x="394.775391" xlink:href="#LiberationSans-48"/>
     <use x="450.390625" xlink:href="#LiberationSans-49"/>
     <use x="506.005859" xlink:href="#LiberationSans-55"/>
     <use x="561.621094" xlink:href="#LiberationSans-45"/>
     <use x="594.921875" xlink:href="#LiberationSans-49"/>
     <use x="650.537109" xlink:href="#LiberationSans-48"/>
     <use x="706.152344" xlink:href="#LiberationSans-45"/>
     <use x="739.453125" xlink:href="#LiberationSans-50"/>
     <use x="795.068359" xlink:href="#LiberationSans-48"/>
     <use x="850.683594" xlink:href="#LiberationSans-41"/>
    </g>
   </g>
   <g id="text_19">
    <!-- 62875 (2018-05-01) -->
    <g style="fill:#262626;" transform="translate(456.27082 270.035091)scale(0.1 -0.1)">
     <use xlink:href="#LiberationSans-54"/>
     <use x="55.615234" xlink:href="#LiberationSans-50"/>
     <use x="111.230469" xlink:href="#LiberationSans-56"/>
     <use x="166.845703" xlink:href="#LiberationSans-55"/>
     <use x="222.460938" xlink:href="#LiberationSans-53"/>
     <use x="278.076172" xlink:href="#LiberationSans-32"/>
     <use x="305.859375" xlink:href="#LiberationSans-40"/>
     <use x="339.160156" xlink:href="#LiberationSans-50"/>
     <use x="394.775391" xlink:href="#LiberationSans-48"/>
     <use x="450.390625" xlink:href="#LiberationSans-49"/>
     <use x="506.005859" xlink:href="#LiberationSans-56"/>
     <use x="561.621094" xlink:href="#LiberationSans-45"/>
     <use x="594.921875" xlink:href="#LiberationSans-48"/>
     <use x="650.537109" xlink:href="#LiberationSans-53"/>
     <use x="706.152344" xlink:href="#LiberationSans-45"/>
     <use x="739.453125" xlink:href="#LiberationSans-48"/>
     <use x="795.068359" xlink:href="#LiberationSans-49"/>
     <use x="850.683594" xlink:href="#LiberationSans-41"/>
    </g>
   </g>
   <g id="text_20">
    <!-- 71857 (2018-12-28) -->
    <g style="fill:#262626;" transform="translate(513.124293 219.633408)scale(0.1 -0.1)">
     <use xlink:href="#LiberationSans-55"/>
     <use x="55.615234" xlink:href="#LiberationSans-49"/>
     <use x="111.230469" xlink:href="#LiberationSans-56"/>
     <use x="166.845703" xlink:href="#LiberationSans-53"/>
     <use x="222.460938" xlink:href="#LiberationSans-55"/>
     <use x="278.076172" xlink:href="#LiberationSans-32"/>
     <use x="305.859375" xlink:href="#LiberationSans-40"/>
     <use x="339.160156" xlink:href="#LiberationSans-50"/>
     <use x="394.775391" xlink:href="#LiberationSans-48"/>
     <use x="450.390625" xlink:href="#LiberationSans-49"/>
     <use x="506.005859" xlink:href="#LiberationSans-56"/>
     <use x="561.621094" xlink:href="#LiberationSans-45"/>
     <use x="594.921875" xlink:href="#LiberationSans-49"/>
     <use x="650.537109" xlink:href="#LiberationSans-50"/>
     <use x="706.152344" xlink:href="#LiberationSans-45"/>
     <use x="739.453125" xlink:href="#LiberationSans-50"/>
     <use x="795.068359" xlink:href="#LiberationSans-56"/>
     <use x="850.683594" xlink:href="#LiberationSans-41"/>
    </g>
   </g>
   <g id="text_21">
    <!-- 80838 (2019-08-15) -->
    <g style="fill:#262626;" transform="translate(567.389341 169.237336)scale(0.1 -0.1)">
     <use xlink:href="#LiberationSans-56"/>
     <use x="55.615234" xlink:href="#LiberationSans-48"/>
     <use x="111.230469" xlink:href="#LiberationSans-56"/>
     <use x="166.845703" xlink:href="#LiberationSans-51"/>
     <use x="222.460938" xlink:href="#LiberationSans-56"/>
     <use x="278.076172" xlink:href="#LiberationSans-32"/>
     <use x="305.859375" xlink:href="#LiberationSans-40"/>
     <use x="339.160156" xlink:href="#LiberationSans-50"/>
     <use x="394.775391" xlink:href="#LiberationSans-48"/>
     <use x="450.390625" xlink:href="#LiberationSans-49"/>
     <use x="506.005859" xlink:href="#LiberationSans-57"/>
     <use x="561.621094" xlink:href="#LiberationSans-45"/>
     <use x="594.921875" xlink:href="#LiberationSans-48"/>
     <use x="650.537109" xlink:href="#LiberationSans-56"/>
     <use x="706.152344" xlink:href="#LiberationSans-45"/>
     <use x="739.453125" xlink:href="#LiberationSans-49"/>
     <use x="795.068359" xlink:href="#LiberationSans-53"/>
     <use x="850.683594" xlink:href="#LiberationSans-41"/>
    </g>
   </g>
   <g id="text_22">
    <!-- 89818 (2020-04-26) -->
    <g style="fill:#262626;" transform="translate(627.636364 118.846875)scale(0.1 -0.1)">
     <use xlink:href="#LiberationSans-56"/>
     <use x="55.615234" xlink:href="#LiberationSans-57"/>
     <use x="111.230469" xlink:href="#LiberationSans-56"/>
     <use x="166.845703" xlink:href="#LiberationSans-49"/>
     <use x="222.460938" xlink:href="#LiberationSans-56"/>
     <use x="278.076172" xlink:href="#LiberationSans-32"/>
     <use x="305.859375" xlink:href="#LiberationSans-40"/>
     <use x="339.160156" xlink:href="#LiberationSans-50"/>
     <use x="394.775391" xlink:href="#LiberationSans-48"/>
     <use x="450.390625" xlink:href="#LiberationSans-50"/>
     <use x="506.005859" xlink:href="#LiberationSans-48"/>
     <use x="561.621094" xlink:href="#LiberationSans-45"/>
     <use x="594.921875" xlink:href="#LiberationSans-48"/>
     <use x="650.537109" xlink:href="#LiberationSans-52"/>
     <use x="706.152344" xlink:href="#LiberationSans-45"/>
     <use x="739.453125" xlink:href="#LiberationSans-50"/>
     <use x="795.068359" xlink:href="#LiberationSans-54"/>
     <use x="850.683594" xlink:href="#LiberationSans-41"/>
    </g>
   </g>
   <g id="text_23">
    <!-- Created issues and PRs over time -->
    <defs>
     <path d="M 38.671875 62.203125 
Q 32.8125 62.203125 28.296875 60.25 
Q 23.78125 58.296875 20.71875 54.6875 
Q 17.671875 51.078125 16.109375 46 
Q 14.546875 40.921875 14.546875 34.71875 
Q 14.546875 28.515625 16.234375 23.359375 
Q 17.921875 18.21875 21.0625 14.5 
Q 24.21875 10.796875 28.78125 8.734375 
Q 33.34375 6.6875 39.0625 6.6875 
Q 43.0625 6.6875 46.359375 7.734375 
Q 49.65625 8.796875 52.3125 10.6875 
Q 54.984375 12.59375 57.078125 15.203125 
Q 59.1875 17.828125 60.796875 21 
L 68.40625 17.1875 
Q 66.546875 13.328125 63.8125 10 
Q 61.078125 6.6875 57.390625 4.25 
Q 53.71875 1.8125 49.046875 0.40625 
Q 44.390625 -0.984375 38.625 -0.984375 
Q 30.28125 -0.984375 24 1.671875 
Q 17.71875 4.34375 13.5 9.109375 
Q 9.28125 13.875 7.171875 20.40625 
Q 5.078125 26.953125 5.078125 34.71875 
Q 5.078125 42.78125 7.296875 49.265625 
Q 9.515625 55.765625 13.78125 60.328125 
Q 18.0625 64.890625 24.3125 67.359375 
Q 30.5625 69.828125 38.578125 69.828125 
Q 49.5625 69.828125 56.9375 65.53125 
Q 64.3125 61.234375 67.78125 52.78125 
L 58.9375 49.859375 
Q 57.953125 52.296875 56.296875 54.515625 
Q 54.640625 56.734375 52.140625 58.4375 
Q 49.65625 60.15625 46.3125 61.171875 
Q 42.96875 62.203125 38.671875 62.203125 
z
" id="LiberationSans-67"/>
     <path d="M 6.9375 0 
L 6.9375 40.53125 
Q 6.9375 42.1875 6.90625 43.921875 
Q 6.890625 45.65625 6.828125 47.265625 
Q 6.78125 48.875 6.734375 50.28125 
Q 6.6875 51.703125 6.640625 52.828125 
L 14.9375 52.828125 
Q 14.984375 51.703125 15.0625 50.265625 
Q 15.140625 48.828125 15.203125 47.3125 
Q 15.28125 45.796875 15.296875 44.40625 
Q 15.328125 43.015625 15.328125 42.046875 
L 15.53125 42.046875 
Q 16.453125 45.0625 17.5 47.28125 
Q 18.5625 49.515625 19.96875 50.953125 
Q 21.390625 52.390625 23.34375 53.09375 
Q 25.296875 53.8125 28.078125 53.8125 
Q 29.15625 53.8125 30.125 53.640625 
Q 31.109375 53.46875 31.640625 53.328125 
L 31.640625 45.265625 
Q 30.765625 45.515625 29.59375 45.625 
Q 28.421875 45.75 26.953125 45.75 
Q 23.921875 45.75 21.796875 44.375 
Q 19.671875 43.015625 18.328125 40.59375 
Q 17 38.1875 16.359375 34.84375 
Q 15.71875 31.5 15.71875 27.546875 
L 15.71875 0 
z
" id="LiberationSans-114"/>
     <path d="M 13.484375 24.5625 
Q 13.484375 20.40625 14.328125 16.90625 
Q 15.1875 13.421875 16.96875 10.90625 
Q 18.75 8.40625 21.53125 7 
Q 24.3125 5.609375 28.21875 5.609375 
Q 33.9375 5.609375 37.375 7.90625 
Q 40.828125 10.203125 42.046875 13.71875 
L 49.75 11.53125 
Q 48.921875 9.328125 47.4375 7.109375 
Q 45.953125 4.890625 43.453125 3.09375 
Q 40.96875 1.3125 37.234375 0.15625 
Q 33.5 -0.984375 28.21875 -0.984375 
Q 16.5 -0.984375 10.375 6 
Q 4.25 12.984375 4.25 26.765625 
Q 4.25 34.1875 6.09375 39.328125 
Q 7.953125 44.484375 11.171875 47.703125 
Q 14.40625 50.921875 18.703125 52.359375 
Q 23 53.8125 27.875 53.8125 
Q 34.515625 53.8125 38.984375 51.65625 
Q 43.453125 49.515625 46.15625 45.71875 
Q 48.875 41.9375 50.015625 36.8125 
Q 51.171875 31.6875 51.171875 25.734375 
L 51.171875 24.5625 
z
M 42.09375 31.296875 
Q 41.359375 39.65625 37.84375 43.484375 
Q 34.328125 47.3125 27.734375 47.3125 
Q 25.53125 47.3125 23.109375 46.609375 
Q 20.703125 45.90625 18.65625 44.09375 
Q 16.609375 42.28125 15.1875 39.171875 
Q 13.765625 36.078125 13.578125 31.296875 
z
" id="LiberationSans-101"/>
     <path d="M 20.21875 -0.984375 
Q 12.25 -0.984375 8.25 3.21875 
Q 4.25 7.421875 4.25 14.75 
Q 4.25 19.96875 6.21875 23.3125 
Q 8.203125 26.65625 11.390625 28.5625 
Q 14.59375 30.46875 18.6875 31.203125 
Q 22.796875 31.9375 27.046875 32.03125 
L 38.921875 32.234375 
L 38.921875 35.109375 
Q 38.921875 38.375 38.234375 40.671875 
Q 37.546875 42.96875 36.125 44.375 
Q 34.71875 45.796875 32.59375 46.453125 
Q 30.46875 47.125 27.59375 47.125 
Q 25.046875 47.125 23 46.75 
Q 20.953125 46.390625 19.4375 45.4375 
Q 17.921875 44.484375 16.984375 42.84375 
Q 16.0625 41.21875 15.765625 38.71875 
L 6.59375 39.546875 
Q 7.078125 42.671875 8.4375 45.28125 
Q 9.8125 47.90625 12.328125 49.796875 
Q 14.84375 51.703125 18.625 52.75 
Q 22.40625 53.8125 27.78125 53.8125 
Q 37.75 53.8125 42.765625 49.234375 
Q 47.796875 44.671875 47.796875 36.03125 
L 47.796875 13.28125 
Q 47.796875 9.375 48.828125 7.390625 
Q 49.859375 5.421875 52.734375 5.421875 
Q 53.46875 5.421875 54.203125 5.515625 
Q 54.9375 5.609375 55.609375 5.765625 
L 55.609375 0.296875 
Q 53.953125 -0.09375 52.3125 -0.28125 
Q 50.6875 -0.484375 48.828125 -0.484375 
Q 46.34375 -0.484375 44.5625 0.171875 
Q 42.78125 0.828125 41.65625 2.171875 
Q 40.53125 3.515625 39.9375 5.484375 
Q 39.359375 7.46875 39.203125 10.109375 
L 38.921875 10.109375 
Q 37.5 7.5625 35.8125 5.515625 
Q 34.125 3.46875 31.875 2.03125 
Q 29.640625 0.59375 26.78125 -0.1875 
Q 23.921875 -0.984375 20.21875 -0.984375 
z
M 22.21875 5.609375 
Q 26.421875 5.609375 29.5625 7.140625 
Q 32.71875 8.6875 34.78125 11.078125 
Q 36.859375 13.484375 37.890625 16.3125 
Q 38.921875 19.140625 38.921875 21.734375 
L 38.921875 26.078125 
L 29.296875 25.875 
Q 26.078125 25.828125 23.171875 25.40625 
Q 20.265625 25 18.0625 23.78125 
Q 15.875 22.5625 14.578125 20.359375 
Q 13.28125 18.171875 13.28125 14.59375 
Q 13.28125 10.296875 15.59375 7.953125 
Q 17.921875 5.609375 22.21875 5.609375 
z
" id="LiberationSans-97"/>
     <path d="M 27.046875 0.390625 
Q 25.046875 -0.140625 22.96875 -0.453125 
Q 20.90625 -0.78125 18.171875 -0.78125 
Q 7.625 -0.78125 7.625 11.1875 
L 7.625 46.4375 
L 1.515625 46.4375 
L 1.515625 52.828125 
L 7.953125 52.828125 
L 10.546875 64.65625 
L 16.40625 64.65625 
L 16.40625 52.828125 
L 26.171875 52.828125 
L 26.171875 46.4375 
L 16.40625 46.4375 
L 16.40625 13.09375 
Q 16.40625 9.28125 17.640625 7.734375 
Q 18.890625 6.203125 21.96875 6.203125 
Q 23.25 6.203125 24.4375 6.390625 
Q 25.640625 6.59375 27.046875 6.890625 
z
" id="LiberationSans-116"/>
     <path d="M 40.09375 8.5 
Q 37.640625 3.421875 33.609375 1.21875 
Q 29.59375 -0.984375 23.640625 -0.984375 
Q 13.625 -0.984375 8.90625 5.75 
Q 4.203125 12.5 4.203125 26.171875 
Q 4.203125 53.8125 23.640625 53.8125 
Q 29.640625 53.8125 33.640625 51.609375 
Q 37.640625 49.421875 40.09375 44.625 
L 40.1875 44.625 
Q 40.1875 45.125 40.15625 46.171875 
Q 40.140625 47.21875 40.109375 48.359375 
Q 40.09375 49.515625 40.09375 50.53125 
Q 40.09375 51.5625 40.09375 52 
L 40.09375 72.46875 
L 48.875 72.46875 
L 48.875 10.890625 
Q 48.875 8.984375 48.890625 7.21875 
Q 48.921875 5.46875 48.96875 4 
Q 49.03125 2.546875 49.078125 1.484375 
Q 49.125 0.4375 49.171875 0 
L 40.765625 0 
Q 40.671875 0.484375 40.59375 1.390625 
Q 40.53125 2.296875 40.453125 3.46875 
Q 40.375 4.640625 40.328125 5.9375 
Q 40.28125 7.234375 40.28125 8.5 
z
M 13.421875 26.46875 
Q 13.421875 21 14.109375 17.09375 
Q 14.796875 13.1875 16.3125 10.671875 
Q 17.828125 8.15625 20.171875 6.984375 
Q 22.515625 5.8125 25.875 5.8125 
Q 29.34375 5.8125 32 6.9375 
Q 34.671875 8.0625 36.453125 10.578125 
Q 38.234375 13.09375 39.15625 17.140625 
Q 40.09375 21.1875 40.09375 27.046875 
Q 40.09375 32.671875 39.15625 36.546875 
Q 38.234375 40.4375 36.421875 42.828125 
Q 34.625 45.21875 32 46.265625 
Q 29.390625 47.3125 25.984375 47.3125 
Q 22.75 47.3125 20.40625 46.1875 
Q 18.0625 45.0625 16.5 42.578125 
Q 14.9375 40.09375 14.171875 36.109375 
Q 13.421875 32.125 13.421875 26.46875 
z
" id="LiberationSans-100"/>
     <path d="M 6.6875 64.0625 
L 6.6875 72.46875 
L 15.484375 72.46875 
L 15.484375 64.0625 
z
M 6.6875 0 
L 6.6875 52.828125 
L 15.484375 52.828125 
L 15.484375 0 
z
" id="LiberationSans-105"/>
     <path d="M 46.390625 14.59375 
Q 46.390625 10.890625 44.9375 7.984375 
Q 43.5 5.078125 40.765625 3.09375 
Q 38.03125 1.125 34.046875 0.0625 
Q 30.078125 -0.984375 24.953125 -0.984375 
Q 20.359375 -0.984375 16.671875 -0.265625 
Q 12.984375 0.4375 10.203125 2 
Q 7.421875 3.5625 5.53125 6.125 
Q 3.65625 8.6875 2.78125 12.40625 
L 10.546875 13.921875 
Q 11.671875 9.671875 15.1875 7.6875 
Q 18.703125 5.71875 24.953125 5.71875 
Q 27.78125 5.71875 30.140625 6.109375 
Q 32.515625 6.5 34.21875 7.453125 
Q 35.9375 8.40625 36.890625 9.984375 
Q 37.84375 11.578125 37.84375 13.921875 
Q 37.84375 16.3125 36.71875 17.84375 
Q 35.59375 19.390625 33.59375 20.40625 
Q 31.59375 21.4375 28.734375 22.1875 
Q 25.875 22.953125 22.46875 23.875 
Q 19.28125 24.703125 16.15625 25.734375 
Q 13.03125 26.765625 10.515625 28.4375 
Q 8.015625 30.125 6.453125 32.609375 
Q 4.890625 35.109375 4.890625 38.875 
Q 4.890625 46.09375 10.03125 49.875 
Q 15.1875 53.65625 25.046875 53.65625 
Q 33.796875 53.65625 38.9375 50.578125 
Q 44.09375 47.515625 45.453125 40.71875 
L 37.546875 39.75 
Q 37.109375 41.796875 35.9375 43.1875 
Q 34.765625 44.578125 33.109375 45.4375 
Q 31.453125 46.296875 29.375 46.65625 
Q 27.296875 47.015625 25.046875 47.015625 
Q 19.09375 47.015625 16.25 45.203125 
Q 13.421875 43.40625 13.421875 39.75 
Q 13.421875 37.59375 14.46875 36.203125 
Q 15.53125 34.8125 17.40625 33.859375 
Q 19.28125 32.90625 21.921875 32.203125 
Q 24.5625 31.5 27.734375 30.71875 
Q 29.828125 30.171875 32.03125 29.5625 
Q 34.234375 28.953125 36.296875 28.09375 
Q 38.375 27.25 40.203125 26.09375 
Q 42.046875 24.953125 43.40625 23.34375 
Q 44.78125 21.734375 45.578125 19.578125 
Q 46.390625 17.4375 46.390625 14.59375 
z
" id="LiberationSans-115"/>
     <path d="M 15.328125 52.828125 
L 15.328125 19.34375 
Q 15.328125 15.484375 15.890625 12.890625 
Q 16.453125 10.296875 17.71875 8.703125 
Q 19 7.125 21.0625 6.46875 
Q 23.140625 5.8125 26.21875 5.8125 
Q 29.34375 5.8125 31.859375 6.90625 
Q 34.375 8.015625 36.15625 10.078125 
Q 37.9375 12.15625 38.90625 15.203125 
Q 39.890625 18.265625 39.890625 22.21875 
L 39.890625 52.828125 
L 48.6875 52.828125 
L 48.6875 11.28125 
Q 48.6875 9.625 48.703125 7.78125 
Q 48.734375 5.953125 48.78125 4.3125 
Q 48.828125 2.6875 48.875 1.515625 
Q 48.921875 0.34375 48.96875 0 
L 40.671875 0 
Q 40.625 0.25 40.578125 1.3125 
Q 40.53125 2.390625 40.453125 3.78125 
Q 40.375 5.171875 40.328125 6.609375 
Q 40.28125 8.0625 40.28125 9.03125 
L 40.140625 9.03125 
Q 38.875 6.734375 37.359375 4.875 
Q 35.84375 3.03125 33.84375 1.734375 
Q 31.84375 0.4375 29.25 -0.265625 
Q 26.65625 -0.984375 23.25 -0.984375 
Q 18.84375 -0.984375 15.671875 0.09375 
Q 12.5 1.171875 10.453125 3.421875 
Q 8.40625 5.671875 7.453125 9.1875 
Q 6.5 12.703125 6.5 17.625 
L 6.5 52.828125 
z
" id="LiberationSans-117"/>
     <path d="M 40.28125 0 
L 40.28125 33.5 
Q 40.28125 37.359375 39.71875 39.9375 
Q 39.15625 42.53125 37.890625 44.109375 
Q 36.625 45.703125 34.546875 46.359375 
Q 32.46875 47.015625 29.390625 47.015625 
Q 26.265625 47.015625 23.75 45.921875 
Q 21.234375 44.828125 19.453125 42.75 
Q 17.671875 40.671875 16.6875 37.625 
Q 15.71875 34.578125 15.71875 30.609375 
L 15.71875 0 
L 6.9375 0 
L 6.9375 41.546875 
Q 6.9375 43.21875 6.90625 45.046875 
Q 6.890625 46.875 6.828125 48.5 
Q 6.78125 50.140625 6.734375 51.3125 
Q 6.6875 52.484375 6.640625 52.828125 
L 14.9375 52.828125 
Q 14.984375 52.59375 15.03125 51.515625 
Q 15.09375 50.4375 15.15625 49.046875 
Q 15.234375 47.65625 15.28125 46.21875 
Q 15.328125 44.78125 15.328125 43.796875 
L 15.484375 43.796875 
Q 16.75 46.09375 18.265625 47.953125 
Q 19.78125 49.8125 21.78125 51.09375 
Q 23.78125 52.390625 26.359375 53.09375 
Q 28.953125 53.8125 32.375 53.8125 
Q 36.765625 53.8125 39.9375 52.734375 
Q 43.109375 51.65625 45.15625 49.40625 
Q 47.21875 47.171875 48.171875 43.625 
Q 49.125 40.09375 49.125 35.203125 
L 49.125 0 
z
" id="LiberationSans-110"/>
     <path d="M 61.421875 48.09375 
Q 61.421875 43.609375 59.9375 39.71875 
Q 58.453125 35.84375 55.5 32.984375 
Q 52.546875 30.125 48.09375 28.46875 
Q 43.65625 26.8125 37.75 26.8125 
L 17.53125 26.8125 
L 17.53125 0 
L 8.203125 0 
L 8.203125 68.796875 
L 37.15625 68.796875 
Q 43.265625 68.796875 47.796875 67.3125 
Q 52.34375 65.828125 55.375 63.109375 
Q 58.40625 60.40625 59.90625 56.5625 
Q 61.421875 52.734375 61.421875 48.09375 
z
M 52.046875 48 
Q 52.046875 54.546875 48.046875 57.9375 
Q 44.046875 61.328125 36.03125 61.328125 
L 17.53125 61.328125 
L 17.53125 34.1875 
L 36.421875 34.1875 
Q 44.484375 34.1875 48.265625 37.75 
Q 52.046875 41.3125 52.046875 48 
z
" id="LiberationSans-80"/>
     <path d="M 56.84375 0 
L 38.96875 28.5625 
L 17.53125 28.5625 
L 17.53125 0 
L 8.203125 0 
L 8.203125 68.796875 
L 40.578125 68.796875 
Q 46.4375 68.796875 50.953125 67.453125 
Q 55.46875 66.109375 58.546875 63.5625 
Q 61.625 61.03125 63.234375 57.375 
Q 64.84375 53.71875 64.84375 49.125 
Q 64.84375 45.84375 63.890625 42.671875 
Q 62.9375 39.5 60.890625 36.859375 
Q 58.84375 34.234375 55.65625 32.328125 
Q 52.484375 30.421875 48.046875 29.640625 
L 67.578125 0 
z
M 55.46875 49.03125 
Q 55.46875 52.15625 54.390625 54.4375 
Q 53.328125 56.734375 51.265625 58.265625 
Q 49.21875 59.8125 46.28125 60.5625 
Q 43.359375 61.328125 39.65625 61.328125 
L 17.53125 61.328125 
L 17.53125 35.9375 
L 40.046875 35.9375 
Q 44.046875 35.9375 46.96875 36.9375 
Q 49.90625 37.9375 51.78125 39.6875 
Q 53.65625 41.453125 54.5625 43.84375 
Q 55.46875 46.234375 55.46875 49.03125 
z
" id="LiberationSans-82"/>
     <path d="M 51.421875 26.46875 
Q 51.421875 12.59375 45.3125 5.796875 
Q 39.203125 -0.984375 27.59375 -0.984375 
Q 22.078125 -0.984375 17.71875 0.671875 
Q 13.375 2.34375 10.375 5.765625 
Q 7.375 9.1875 5.78125 14.328125 
Q 4.203125 19.484375 4.203125 26.46875 
Q 4.203125 53.8125 27.875 53.8125 
Q 34.03125 53.8125 38.5 52.09375 
Q 42.96875 50.390625 45.828125 46.96875 
Q 48.6875 43.5625 50.046875 38.421875 
Q 51.421875 33.296875 51.421875 26.46875 
z
M 42.1875 26.46875 
Q 42.1875 32.625 41.234375 36.625 
Q 40.28125 40.625 38.453125 43.015625 
Q 36.625 45.40625 33.984375 46.359375 
Q 31.34375 47.3125 28.03125 47.3125 
Q 24.65625 47.3125 21.9375 46.3125 
Q 19.234375 45.3125 17.328125 42.890625 
Q 15.4375 40.484375 14.421875 36.46875 
Q 13.421875 32.46875 13.421875 26.46875 
Q 13.421875 20.3125 14.5 16.28125 
Q 15.578125 12.25 17.453125 9.859375 
Q 19.34375 7.46875 21.90625 6.484375 
Q 24.46875 5.515625 27.484375 5.515625 
Q 30.859375 5.515625 33.59375 6.46875 
Q 36.328125 7.421875 38.234375 9.8125 
Q 40.140625 12.203125 41.15625 16.25 
Q 42.1875 20.3125 42.1875 26.46875 
z
" id="LiberationSans-111"/>
     <path d="M 29.9375 0 
L 19.53125 0 
L 0.34375 52.828125 
L 9.71875 52.828125 
L 21.34375 18.453125 
Q 21.6875 17.390625 22.140625 15.84375 
Q 22.609375 14.3125 23.09375 12.640625 
Q 23.578125 10.984375 24 9.4375 
Q 24.421875 7.90625 24.703125 6.890625 
Q 25 7.90625 25.453125 9.4375 
Q 25.921875 10.984375 26.40625 12.59375 
Q 26.90625 14.203125 27.421875 15.734375 
Q 27.9375 17.28125 28.328125 18.359375 
L 40.328125 52.828125 
L 49.65625 52.828125 
z
" id="LiberationSans-118"/>
     <path d="M 37.5 0 
L 37.5 33.5 
Q 37.5 37.359375 37.015625 39.9375 
Q 36.53125 42.53125 35.375 44.109375 
Q 34.234375 45.703125 32.375 46.359375 
Q 30.515625 47.015625 27.828125 47.015625 
Q 25.046875 47.015625 22.796875 45.921875 
Q 20.5625 44.828125 18.96875 42.75 
Q 17.390625 40.671875 16.53125 37.625 
Q 15.671875 34.578125 15.671875 30.609375 
L 15.671875 0 
L 6.9375 0 
L 6.9375 41.546875 
Q 6.9375 43.21875 6.90625 45.046875 
Q 6.890625 46.875 6.828125 48.5 
Q 6.78125 50.140625 6.734375 51.3125 
Q 6.6875 52.484375 6.640625 52.828125 
L 14.9375 52.828125 
Q 14.984375 52.59375 15.03125 51.515625 
Q 15.09375 50.4375 15.15625 49.046875 
Q 15.234375 47.65625 15.28125 46.21875 
Q 15.328125 44.78125 15.328125 43.796875 
L 15.484375 43.796875 
Q 16.65625 46.09375 18.015625 47.953125 
Q 19.390625 49.8125 21.21875 51.09375 
Q 23.046875 52.390625 25.40625 53.09375 
Q 27.78125 53.8125 30.90625 53.8125 
Q 36.921875 53.8125 40.40625 51.421875 
Q 43.890625 49.03125 45.265625 43.796875 
L 45.40625 43.796875 
Q 46.578125 46.09375 48.046875 47.953125 
Q 49.515625 49.8125 51.46875 51.09375 
Q 53.421875 52.390625 55.859375 53.09375 
Q 58.296875 53.8125 61.421875 53.8125 
Q 65.4375 53.8125 68.328125 52.734375 
Q 71.234375 51.65625 73.09375 49.40625 
Q 74.953125 47.171875 75.828125 43.625 
Q 76.703125 40.09375 76.703125 35.203125 
L 76.703125 0 
L 68.015625 0 
L 68.015625 33.5 
Q 68.015625 37.359375 67.53125 39.9375 
Q 67.046875 42.53125 65.890625 44.109375 
Q 64.75 45.703125 62.890625 46.359375 
Q 61.03125 47.015625 58.34375 47.015625 
Q 55.5625 47.015625 53.3125 45.96875 
Q 51.078125 44.921875 49.484375 42.875 
Q 47.90625 40.828125 47.046875 37.75 
Q 46.1875 34.671875 46.1875 30.609375 
L 46.1875 0 
z
" id="LiberationSans-109"/>
    </defs>
    <g style="fill:#262626;" transform="translate(277.965 80.4)scale(0.12 -0.12)">
     <use xlink:href="#LiberationSans-67"/>
     <use x="72.216797" xlink:href="#LiberationSans-114"/>
     <use x="105.517578" xlink:href="#LiberationSans-101"/>
     <use x="161.132812" xlink:href="#LiberationSans-97"/>
     <use x="216.748047" xlink:href="#LiberationSans-116"/>
     <use x="244.53125" xlink:href="#LiberationSans-101"/>
     <use x="300.146484" xlink:href="#LiberationSans-100"/>
     <use x="355.761719" xlink:href="#LiberationSans-32"/>
     <use x="383.544922" xlink:href="#LiberationSans-105"/>
     <use x="405.761719" xlink:href="#LiberationSans-115"/>
     <use x="455.761719" xlink:href="#LiberationSans-115"/>
     <use x="505.761719" xlink:href="#LiberationSans-117"/>
     <use x="561.376953" xlink:href="#LiberationSans-101"/>
     <use x="616.992188" xlink:href="#LiberationSans-115"/>
     <use x="666.992188" xlink:href="#LiberationSans-32"/>
     <use x="694.775391" xlink:href="#LiberationSans-97"/>
     <use x="750.390625" xlink:href="#LiberationSans-110"/>
     <use x="806.005859" xlink:href="#LiberationSans-100"/>
     <use x="861.621094" xlink:href="#LiberationSans-32"/>
     <use x="889.404297" xlink:href="#LiberationSans-80"/>
     <use x="956.103516" xlink:href="#LiberationSans-82"/>
     <use x="1028.320312" xlink:href="#LiberationSans-115"/>
     <use x="1078.320312" xlink:href="#LiberationSans-32"/>
     <use x="1106.103516" xlink:href="#LiberationSans-111"/>
     <use x="1161.71875" xlink:href="#LiberationSans-118"/>
     <use x="1211.71875" xlink:href="#LiberationSans-101"/>
     <use x="1267.333984" xlink:href="#LiberationSans-114"/>
     <use x="1300.634766" xlink:href="#LiberationSans-32"/>
     <use x="1328.417969" xlink:href="#LiberationSans-116"/>
     <use x="1356.201172" xlink:href="#LiberationSans-105"/>
     <use x="1378.417969" xlink:href="#LiberationSans-109"/>
     <use x="1461.71875" xlink:href="#LiberationSans-101"/>
    </g>
   </g>
  </g>
 </g>
 <defs>
  <clipPath id="p18ba09fe6d">
   <rect height="554.4" width="558" x="90" y="86.4"/>
  </clipPath>
 </defs>
</svg>
