<?xml version="1.0" encoding="utf-8" standalone="no"?>
<!DOCTYPE svg PUBLIC "-//W3C//DTD SVG 1.1//EN"
  "http://www.w3.org/Graphics/SVG/1.1/DTD/svg11.dtd">
<!-- Created with matplotlib (https://matplotlib.org/) -->
<svg height="720pt" version="1.1" viewBox="0 0 720 720" width="720pt" xmlns="http://www.w3.org/2000/svg" xmlns:xlink="http://www.w3.org/1999/xlink">
 <defs>
  <style type="text/css">
*{stroke-linecap:butt;stroke-linejoin:round;}
  </style>
 </defs>
 <g id="figure_1">
  <g id="patch_1">
   <path d="M 0 720 
L 720 720 
L 720 0 
L 0 0 
z
" style="fill:#ffffff;"/>
  </g>
  <g id="axes_1">
   <g id="patch_2">
    <path d="M 90 640.8 
L 648 640.8 
L 648 86.4 
L 90 86.4 
z
" style="fill:#ffffff;"/>
   </g>
   <g id="matplotlib.axis_1">
    <g id="xtick_1">
     <g id="line2d_1">
      <path clip-path="url(#p9c16dbf080)" d="M 163.142092 640.8 
L 163.142092 86.4 
" style="fill:none;stroke:#cccccc;stroke-linecap:round;stroke-width:0.8;"/>
     </g>
     <g id="line2d_2"/>
     <g id="text_1">
      <!-- 2015 -->
      <defs>
       <path d="M 19.1875 8.296875 
L 53.609375 8.296875 
L 53.609375 0 
L 7.328125 0 
L 7.328125 8.296875 
Q 12.9375 14.109375 22.625 23.890625 
Q 32.328125 33.6875 34.8125 36.53125 
Q 39.546875 41.84375 41.421875 45.53125 
Q 43.3125 49.21875 43.3125 52.78125 
Q 43.3125 58.59375 39.234375 62.25 
Q 35.15625 65.921875 28.609375 65.921875 
Q 23.96875 65.921875 18.8125 64.3125 
Q 13.671875 62.703125 7.8125 59.421875 
L 7.8125 69.390625 
Q 13.765625 71.78125 18.9375 73 
Q 24.125 74.21875 28.421875 74.21875 
Q 39.75 74.21875 46.484375 68.546875 
Q 53.21875 62.890625 53.21875 53.421875 
Q 53.21875 48.921875 51.53125 44.890625 
Q 49.859375 40.875 45.40625 35.40625 
Q 44.1875 33.984375 37.640625 27.21875 
Q 31.109375 20.453125 19.1875 8.296875 
z
" id="DejaVuSans-50"/>
       <path d="M 31.78125 66.40625 
Q 24.171875 66.40625 20.328125 58.90625 
Q 16.5 51.421875 16.5 36.375 
Q 16.5 21.390625 20.328125 13.890625 
Q 24.171875 6.390625 31.78125 6.390625 
Q 39.453125 6.390625 43.28125 13.890625 
Q 47.125 21.390625 47.125 36.375 
Q 47.125 51.421875 43.28125 58.90625 
Q 39.453125 66.40625 31.78125 66.40625 
z
M 31.78125 74.21875 
Q 44.046875 74.21875 50.515625 64.515625 
Q 56.984375 54.828125 56.984375 36.375 
Q 56.984375 17.96875 50.515625 8.265625 
Q 44.046875 -1.421875 31.78125 -1.421875 
Q 19.53125 -1.421875 13.0625 8.265625 
Q 6.59375 17.96875 6.59375 36.375 
Q 6.59375 54.828125 13.0625 64.515625 
Q 19.53125 74.21875 31.78125 74.21875 
z
" id="DejaVuSans-48"/>
       <path d="M 12.40625 8.296875 
L 28.515625 8.296875 
L 28.515625 63.921875 
L 10.984375 60.40625 
L 10.984375 69.390625 
L 28.421875 72.90625 
L 38.28125 72.90625 
L 38.28125 8.296875 
L 54.390625 8.296875 
L 54.390625 0 
L 12.40625 0 
z
" id="DejaVuSans-49"/>
       <path d="M 10.796875 72.90625 
L 49.515625 72.90625 
L 49.515625 64.59375 
L 19.828125 64.59375 
L 19.828125 46.734375 
Q 21.96875 47.46875 24.109375 47.828125 
Q 26.265625 48.1875 28.421875 48.1875 
Q 40.625 48.1875 47.75 41.5 
Q 54.890625 34.8125 54.890625 23.390625 
Q 54.890625 11.625 47.5625 5.09375 
Q 40.234375 -1.421875 26.90625 -1.421875 
Q 22.3125 -1.421875 17.546875 -0.640625 
Q 12.796875 0.140625 7.71875 1.703125 
L 7.71875 11.625 
Q 12.109375 9.234375 16.796875 8.0625 
Q 21.484375 6.890625 26.703125 6.890625 
Q 35.15625 6.890625 40.078125 11.328125 
Q 45.015625 15.765625 45.015625 23.390625 
Q 45.015625 31 40.078125 35.4375 
Q 35.15625 39.890625 26.703125 39.890625 
Q 22.75 39.890625 18.8125 39.015625 
Q 14.890625 38.140625 10.796875 36.28125 
z
" id="DejaVuSans-53"/>
      </defs>
      <g style="fill:#262626;" transform="translate(150.417092 651.898438)scale(0.1 -0.1)">
       <use xlink:href="#DejaVuSans-50"/>
       <use x="63.623047" xlink:href="#DejaVuSans-48"/>
       <use x="127.246094" xlink:href="#DejaVuSans-49"/>
       <use x="190.869141" xlink:href="#DejaVuSans-53"/>
      </g>
     </g>
    </g>
    <g id="xtick_2">
     <g id="line2d_3">
      <path clip-path="url(#p9c16dbf080)" d="M 246.982086 640.8 
L 246.982086 86.4 
" style="fill:none;stroke:#cccccc;stroke-linecap:round;stroke-width:0.8;"/>
     </g>
     <g id="line2d_4"/>
     <g id="text_2">
      <!-- 2016 -->
      <defs>
       <path d="M 33.015625 40.375 
Q 26.375 40.375 22.484375 35.828125 
Q 18.609375 31.296875 18.609375 23.390625 
Q 18.609375 15.53125 22.484375 10.953125 
Q 26.375 6.390625 33.015625 6.390625 
Q 39.65625 6.390625 43.53125 10.953125 
Q 47.40625 15.53125 47.40625 23.390625 
Q 47.40625 31.296875 43.53125 35.828125 
Q 39.65625 40.375 33.015625 40.375 
z
M 52.59375 71.296875 
L 52.59375 62.3125 
Q 48.875 64.0625 45.09375 64.984375 
Q 41.3125 65.921875 37.59375 65.921875 
Q 27.828125 65.921875 22.671875 59.328125 
Q 17.53125 52.734375 16.796875 39.40625 
Q 19.671875 43.65625 24.015625 45.921875 
Q 28.375 48.1875 33.59375 48.1875 
Q 44.578125 48.1875 50.953125 41.515625 
Q 57.328125 34.859375 57.328125 23.390625 
Q 57.328125 12.15625 50.6875 5.359375 
Q 44.046875 -1.421875 33.015625 -1.421875 
Q 20.359375 -1.421875 13.671875 8.265625 
Q 6.984375 17.96875 6.984375 36.375 
Q 6.984375 53.65625 15.1875 63.9375 
Q 23.390625 74.21875 37.203125 74.21875 
Q 40.921875 74.21875 44.703125 73.484375 
Q 48.484375 72.75 52.59375 71.296875 
z
" id="DejaVuSans-54"/>
      </defs>
      <g style="fill:#262626;" transform="translate(234.257086 651.898438)scale(0.1 -0.1)">
       <use xlink:href="#DejaVuSans-50"/>
       <use x="63.623047" xlink:href="#DejaVuSans-48"/>
       <use x="127.246094" xlink:href="#DejaVuSans-49"/>
       <use x="190.869141" xlink:href="#DejaVuSans-54"/>
      </g>
     </g>
    </g>
    <g id="xtick_3">
     <g id="line2d_5">
      <path clip-path="url(#p9c16dbf080)" d="M 331.051779 640.8 
L 331.051779 86.4 
" style="fill:none;stroke:#cccccc;stroke-linecap:round;stroke-width:0.8;"/>
     </g>
     <g id="line2d_6"/>
     <g id="text_3">
      <!-- 2017 -->
      <defs>
       <path d="M 8.203125 72.90625 
L 55.078125 72.90625 
L 55.078125 68.703125 
L 28.609375 0 
L 18.3125 0 
L 43.21875 64.59375 
L 8.203125 64.59375 
z
" id="DejaVuSans-55"/>
      </defs>
      <g style="fill:#262626;" transform="translate(318.326779 651.898438)scale(0.1 -0.1)">
       <use xlink:href="#DejaVuSans-50"/>
       <use x="63.623047" xlink:href="#DejaVuSans-48"/>
       <use x="127.246094" xlink:href="#DejaVuSans-49"/>
       <use x="190.869141" xlink:href="#DejaVuSans-55"/>
      </g>
     </g>
    </g>
    <g id="xtick_4">
     <g id="line2d_7">
      <path clip-path="url(#p9c16dbf080)" d="M 414.891773 640.8 
L 414.891773 86.4 
" style="fill:none;stroke:#cccccc;stroke-linecap:round;stroke-width:0.8;"/>
     </g>
     <g id="line2d_8"/>
     <g id="text_4">
      <!-- 2018 -->
      <defs>
       <path d="M 31.78125 34.625 
Q 24.75 34.625 20.71875 30.859375 
Q 16.703125 27.09375 16.703125 20.515625 
Q 16.703125 13.921875 20.71875 10.15625 
Q 24.75 6.390625 31.78125 6.390625 
Q 38.8125 6.390625 42.859375 10.171875 
Q 46.921875 13.96875 46.921875 20.515625 
Q 46.921875 27.09375 42.890625 30.859375 
Q 38.875 34.625 31.78125 34.625 
z
M 21.921875 38.8125 
Q 15.578125 40.375 12.03125 44.71875 
Q 8.5 49.078125 8.5 55.328125 
Q 8.5 64.0625 14.71875 69.140625 
Q 20.953125 74.21875 31.78125 74.21875 
Q 42.671875 74.21875 48.875 69.140625 
Q 55.078125 64.0625 55.078125 55.328125 
Q 55.078125 49.078125 51.53125 44.71875 
Q 48 40.375 41.703125 38.8125 
Q 48.828125 37.15625 52.796875 32.3125 
Q 56.78125 27.484375 56.78125 20.515625 
Q 56.78125 9.90625 50.3125 4.234375 
Q 43.84375 -1.421875 31.78125 -1.421875 
Q 19.734375 -1.421875 13.25 4.234375 
Q 6.78125 9.90625 6.78125 20.515625 
Q 6.78125 27.484375 10.78125 32.3125 
Q 14.796875 37.15625 21.921875 38.8125 
z
M 18.3125 54.390625 
Q 18.3125 48.734375 21.84375 45.5625 
Q 25.390625 42.390625 31.78125 42.390625 
Q 38.140625 42.390625 41.71875 45.5625 
Q 45.3125 48.734375 45.3125 54.390625 
Q 45.3125 60.0625 41.71875 63.234375 
Q 38.140625 66.40625 31.78125 66.40625 
Q 25.390625 66.40625 21.84375 63.234375 
Q 18.3125 60.0625 18.3125 54.390625 
z
" id="DejaVuSans-56"/>
      </defs>
      <g style="fill:#262626;" transform="translate(402.166773 651.898438)scale(0.1 -0.1)">
       <use xlink:href="#DejaVuSans-50"/>
       <use x="63.623047" xlink:href="#DejaVuSans-48"/>
       <use x="127.246094" xlink:href="#DejaVuSans-49"/>
       <use x="190.869141" xlink:href="#DejaVuSans-56"/>
      </g>
     </g>
    </g>
    <g id="xtick_5">
     <g id="line2d_9">
      <path clip-path="url(#p9c16dbf080)" d="M 498.731767 640.8 
L 498.731767 86.4 
" style="fill:none;stroke:#cccccc;stroke-linecap:round;stroke-width:0.8;"/>
     </g>
     <g id="line2d_10"/>
     <g id="text_5">
      <!-- 2019 -->
      <defs>
       <path d="M 10.984375 1.515625 
L 10.984375 10.5 
Q 14.703125 8.734375 18.5 7.8125 
Q 22.3125 6.890625 25.984375 6.890625 
Q 35.75 6.890625 40.890625 13.453125 
Q 46.046875 20.015625 46.78125 33.40625 
Q 43.953125 29.203125 39.59375 26.953125 
Q 35.25 24.703125 29.984375 24.703125 
Q 19.046875 24.703125 12.671875 31.3125 
Q 6.296875 37.9375 6.296875 49.421875 
Q 6.296875 60.640625 12.9375 67.421875 
Q 19.578125 74.21875 30.609375 74.21875 
Q 43.265625 74.21875 49.921875 64.515625 
Q 56.59375 54.828125 56.59375 36.375 
Q 56.59375 19.140625 48.40625 8.859375 
Q 40.234375 -1.421875 26.421875 -1.421875 
Q 22.703125 -1.421875 18.890625 -0.6875 
Q 15.09375 0.046875 10.984375 1.515625 
z
M 30.609375 32.421875 
Q 37.25 32.421875 41.125 36.953125 
Q 45.015625 41.5 45.015625 49.421875 
Q 45.015625 57.28125 41.125 61.84375 
Q 37.25 66.40625 30.609375 66.40625 
Q 23.96875 66.40625 20.09375 61.84375 
Q 16.21875 57.28125 16.21875 49.421875 
Q 16.21875 41.5 20.09375 36.953125 
Q 23.96875 32.421875 30.609375 32.421875 
z
" id="DejaVuSans-57"/>
      </defs>
      <g style="fill:#262626;" transform="translate(486.006767 651.898438)scale(0.1 -0.1)">
       <use xlink:href="#DejaVuSans-50"/>
       <use x="63.623047" xlink:href="#DejaVuSans-48"/>
       <use x="127.246094" xlink:href="#DejaVuSans-49"/>
       <use x="190.869141" xlink:href="#DejaVuSans-57"/>
      </g>
     </g>
    </g>
    <g id="xtick_6">
     <g id="line2d_11">
      <path clip-path="url(#p9c16dbf080)" d="M 582.571761 640.8 
L 582.571761 86.4 
" style="fill:none;stroke:#cccccc;stroke-linecap:round;stroke-width:0.8;"/>
     </g>
     <g id="line2d_12"/>
     <g id="text_6">
      <!-- 2020 -->
      <g style="fill:#262626;" transform="translate(569.846761 651.898438)scale(0.1 -0.1)">
       <use xlink:href="#DejaVuSans-50"/>
       <use x="63.623047" xlink:href="#DejaVuSans-48"/>
       <use x="127.246094" xlink:href="#DejaVuSans-50"/>
       <use x="190.869141" xlink:href="#DejaVuSans-48"/>
      </g>
     </g>
    </g>
   </g>
   <g id="matplotlib.axis_2">
    <g id="ytick_1">
     <g id="line2d_13">
      <path clip-path="url(#p9c16dbf080)" d="M 90 615.614426 
L 648 615.614426 
" style="fill:none;stroke:#cccccc;stroke-linecap:round;stroke-width:0.8;"/>
     </g>
     <g id="line2d_14"/>
     <g id="text_7">
      <!-- 0 -->
      <g style="fill:#262626;" transform="translate(80.1375 619.413645)scale(0.1 -0.1)">
       <use xlink:href="#DejaVuSans-48"/>
      </g>
     </g>
    </g>
    <g id="ytick_2">
     <g id="line2d_15">
      <path clip-path="url(#p9c16dbf080)" d="M 90 543.484592 
L 648 543.484592 
" style="fill:none;stroke:#cccccc;stroke-linecap:round;stroke-width:0.8;"/>
     </g>
     <g id="line2d_16"/>
     <g id="text_8">
      <!-- 5000 -->
      <g style="fill:#262626;" transform="translate(61.05 547.283811)scale(0.1 -0.1)">
       <use xlink:href="#DejaVuSans-53"/>
       <use x="63.623047" xlink:href="#DejaVuSans-48"/>
       <use x="127.246094" xlink:href="#DejaVuSans-48"/>
       <use x="190.869141" xlink:href="#DejaVuSans-48"/>
      </g>
     </g>
    </g>
    <g id="ytick_3">
     <g id="line2d_17">
      <path clip-path="url(#p9c16dbf080)" d="M 90 471.354759 
L 648 471.354759 
" style="fill:none;stroke:#cccccc;stroke-linecap:round;stroke-width:0.8;"/>
     </g>
     <g id="line2d_18"/>
     <g id="text_9">
      <!-- 10000 -->
      <g style="fill:#262626;" transform="translate(54.6875 475.153977)scale(0.1 -0.1)">
       <use xlink:href="#DejaVuSans-49"/>
       <use x="63.623047" xlink:href="#DejaVuSans-48"/>
       <use x="127.246094" xlink:href="#DejaVuSans-48"/>
       <use x="190.869141" xlink:href="#DejaVuSans-48"/>
       <use x="254.492188" xlink:href="#DejaVuSans-48"/>
      </g>
     </g>
    </g>
    <g id="ytick_4">
     <g id="line2d_19">
      <path clip-path="url(#p9c16dbf080)" d="M 90 399.224925 
L 648 399.224925 
" style="fill:none;stroke:#cccccc;stroke-linecap:round;stroke-width:0.8;"/>
     </g>
     <g id="line2d_20"/>
     <g id="text_10">
      <!-- 15000 -->
      <g style="fill:#262626;" transform="translate(54.6875 403.024144)scale(0.1 -0.1)">
       <use xlink:href="#DejaVuSans-49"/>
       <use x="63.623047" xlink:href="#DejaVuSans-53"/>
       <use x="127.246094" xlink:href="#DejaVuSans-48"/>
       <use x="190.869141" xlink:href="#DejaVuSans-48"/>
       <use x="254.492188" xlink:href="#DejaVuSans-48"/>
      </g>
     </g>
    </g>
    <g id="ytick_5">
     <g id="line2d_21">
      <path clip-path="url(#p9c16dbf080)" d="M 90 327.095091 
L 648 327.095091 
" style="fill:none;stroke:#cccccc;stroke-linecap:round;stroke-width:0.8;"/>
     </g>
     <g id="line2d_22"/>
     <g id="text_11">
      <!-- 20000 -->
      <g style="fill:#262626;" transform="translate(54.6875 330.89431)scale(0.1 -0.1)">
       <use xlink:href="#DejaVuSans-50"/>
       <use x="63.623047" xlink:href="#DejaVuSans-48"/>
       <use x="127.246094" xlink:href="#DejaVuSans-48"/>
       <use x="190.869141" xlink:href="#DejaVuSans-48"/>
       <use x="254.492188" xlink:href="#DejaVuSans-48"/>
      </g>
     </g>
    </g>
    <g id="ytick_6">
     <g id="line2d_23">
      <path clip-path="url(#p9c16dbf080)" d="M 90 254.965257 
L 648 254.965257 
" style="fill:none;stroke:#cccccc;stroke-linecap:round;stroke-width:0.8;"/>
     </g>
     <g id="line2d_24"/>
     <g id="text_12">
      <!-- 25000 -->
      <g style="fill:#262626;" transform="translate(54.6875 258.764476)scale(0.1 -0.1)">
       <use xlink:href="#DejaVuSans-50"/>
       <use x="63.623047" xlink:href="#DejaVuSans-53"/>
       <use x="127.246094" xlink:href="#DejaVuSans-48"/>
       <use x="190.869141" xlink:href="#DejaVuSans-48"/>
       <use x="254.492188" xlink:href="#DejaVuSans-48"/>
      </g>
     </g>
    </g>
    <g id="ytick_7">
     <g id="line2d_25">
      <path clip-path="url(#p9c16dbf080)" d="M 90 182.835424 
L 648 182.835424 
" style="fill:none;stroke:#cccccc;stroke-linecap:round;stroke-width:0.8;"/>
     </g>
     <g id="line2d_26"/>
     <g id="text_13">
      <!-- 30000 -->
      <defs>
       <path d="M 40.578125 39.3125 
Q 47.65625 37.796875 51.625 33 
Q 55.609375 28.21875 55.609375 21.1875 
Q 55.609375 10.40625 48.1875 4.484375 
Q 40.765625 -1.421875 27.09375 -1.421875 
Q 22.515625 -1.421875 17.65625 -0.515625 
Q 12.796875 0.390625 7.625 2.203125 
L 7.625 11.71875 
Q 11.71875 9.328125 16.59375 8.109375 
Q 21.484375 6.890625 26.8125 6.890625 
Q 36.078125 6.890625 40.9375 10.546875 
Q 45.796875 14.203125 45.796875 21.1875 
Q 45.796875 27.640625 41.28125 31.265625 
Q 36.765625 34.90625 28.71875 34.90625 
L 20.21875 34.90625 
L 20.21875 43.015625 
L 29.109375 43.015625 
Q 36.375 43.015625 40.234375 45.921875 
Q 44.09375 48.828125 44.09375 54.296875 
Q 44.09375 59.90625 40.109375 62.90625 
Q 36.140625 65.921875 28.71875 65.921875 
Q 24.65625 65.921875 20.015625 65.03125 
Q 15.375 64.15625 9.8125 62.3125 
L 9.8125 71.09375 
Q 15.4375 72.65625 20.34375 73.4375 
Q 25.25 74.21875 29.59375 74.21875 
Q 40.828125 74.21875 47.359375 69.109375 
Q 53.90625 64.015625 53.90625 55.328125 
Q 53.90625 49.265625 50.4375 45.09375 
Q 46.96875 40.921875 40.578125 39.3125 
z
" id="DejaVuSans-51"/>
      </defs>
      <g style="fill:#262626;" transform="translate(54.6875 186.634643)scale(0.1 -0.1)">
       <use xlink:href="#DejaVuSans-51"/>
       <use x="63.623047" xlink:href="#DejaVuSans-48"/>
       <use x="127.246094" xlink:href="#DejaVuSans-48"/>
       <use x="190.869141" xlink:href="#DejaVuSans-48"/>
       <use x="254.492188" xlink:href="#DejaVuSans-48"/>
      </g>
     </g>
    </g>
    <g id="ytick_8">
     <g id="line2d_27">
      <path clip-path="url(#p9c16dbf080)" d="M 90 110.70559 
L 648 110.70559 
" style="fill:none;stroke:#cccccc;stroke-linecap:round;stroke-width:0.8;"/>
     </g>
     <g id="line2d_28"/>
     <g id="text_14">
      <!-- 35000 -->
      <g style="fill:#262626;" transform="translate(54.6875 114.504809)scale(0.1 -0.1)">
       <use xlink:href="#DejaVuSans-51"/>
       <use x="63.623047" xlink:href="#DejaVuSans-53"/>
       <use x="127.246094" xlink:href="#DejaVuSans-48"/>
       <use x="190.869141" xlink:href="#DejaVuSans-48"/>
       <use x="254.492188" xlink:href="#DejaVuSans-48"/>
      </g>
     </g>
    </g>
   </g>
   <g id="line2d_29">
    <path clip-path="url(#p9c16dbf080)" d="M 115.363636 615.6 
L 115.407513 615.499018 
L 118.00315 615.008535 
L 120.817673 614.229533 
L 120.882576 614.200681 
L 122.459813 614.041996 
L 122.693266 614.013144 
L 124.732405 613.522661 
L 124.816322 613.493809 
L 126.072047 613.219715 
L 126.604403 612.902344 
L 127.656856 612.700381 
L 128.728815 612.440713 
L 134.442589 611.012543 
L 134.579233 610.954839 
L 135.638931 610.825005 
L 135.820895 610.680745 
L 135.995036 610.608616 
L 136.273128 610.52206 
L 137.147532 610.334522 
L 137.148024 610.320096 
L 137.580836 610.161411 
L 137.652843 610.074855 
L 138.723571 609.786335 
L 138.790638 609.757483 
L 139.222726 609.613224 
L 139.257189 609.569946 
L 140.924573 609.281427 
L 141.15911 609.180445 
L 141.722626 609.050611 
L 142.455139 608.689962 
L 142.463069 608.675536 
L 142.714092 608.545702 
L 142.782252 608.51685 
L 143.548584 608.372591 
L 143.610087 608.199479 
L 144.022611 608.055219 
L 144.30182 607.593588 
L 145.190057 607.406051 
L 146.077667 606.901142 
L 146.564942 606.756882 
L 146.646604 606.655901 
L 146.886411 606.526067 
L 147.064757 606.468363 
L 147.882298 606.295251 
L 150.45074 605.242156 
L 150.517598 605.112322 
L 151.607246 604.838229 
L 151.688975 604.693969 
L 152.104733 604.47758 
L 152.313245 604.318894 
L 152.994748 604.174634 
L 153.512437 603.741855 
L 153.522909 603.713003 
L 153.936752 603.568744 
L 153.959865 603.51104 
L 154.604638 603.337928 
L 154.737188 603.164817 
L 155.186389 602.890723 
L 156.186924 602.717612 
L 156.305372 602.645482 
L 157.349765 602.227129 
L 158.041407 602.097295 
L 158.322164 601.938609 
L 158.469006 601.779924 
L 159.902086 600.97207 
L 160.07877 600.798958 
L 160.343238 600.625847 
L 160.436789 600.539291 
L 161.051709 600.423883 
L 161.146465 600.366179 
L 161.266094 600.221919 
L 161.283712 600.019956 
L 162.862723 599.78914 
L 163.007066 599.731437 
L 164.762134 599.18325 
L 164.851426 599.096694 
L 164.967424 598.938008 
L 164.981243 598.837027 
L 165.353235 598.692767 
L 165.906615 598.490803 
L 166.178643 598.274414 
L 166.629921 597.783931 
L 166.789165 597.625245 
L 166.8151 597.524264 
L 167.533958 597.380004 
L 167.687351 597.192466 
L 167.785356 597.077059 
L 167.939679 596.875095 
L 168.044476 596.745261 
L 168.356532 596.528872 
L 168.455214 596.384612 
L 168.810144 596.35576 
L 169.112442 596.225927 
L 169.76644 595.403647 
L 169.86337 595.201683 
L 170.287026 595.028571 
L 170.293175 595.014145 
L 170.743916 594.884312 
L 170.848958 594.812182 
L 170.974713 594.595792 
L 171.096389 594.422681 
L 171.396869 593.989902 
L 171.496349 593.917772 
L 172.309786 593.643679 
L 172.474076 593.557123 
L 172.750363 593.283029 
L 172.797456 593.13877 
L 173.034865 593.008936 
L 174.323293 592.403045 
L 174.42678 592.114526 
L 174.614096 591.898137 
L 174.796483 591.696173 
L 175.406256 591.523062 
L 175.55494 591.364376 
L 175.585221 591.306672 
L 175.948536 591.176838 
L 176.090484 591.090283 
L 176.181863 590.931597 
L 176.336974 590.657504 
L 176.51038 590.441114 
L 177.113222 590.31128 
L 177.219623 590.152595 
L 177.860304 589.589982 
L 178.676053 589.373592 
L 178.785989 589.186055 
L 178.971561 589.056221 
L 179.072995 588.940813 
L 179.178221 588.796554 
L 179.5069 588.190663 
L 179.670257 588.046404 
L 179.824487 587.974274 
L 180.602743 587.599199 
L 181.502651 586.344139 
L 181.92066 586.171028 
L 182.042453 585.98349 
L 182.174546 585.781527 
L 182.308476 585.478581 
L 182.400103 585.334322 
L 182.474018 585.132358 
L 182.648148 585.002525 
L 182.95613 584.324504 
L 183.543619 584.064837 
L 183.642525 583.963855 
L 183.795245 583.761891 
L 183.962861 583.51665 
L 184.195088 583.271409 
L 184.359852 583.098297 
L 184.943106 582.867481 
L 185.225148 582.593388 
L 185.341622 582.492406 
L 185.427363 582.290443 
L 185.650793 581.915368 
L 185.88143 581.612422 
L 185.996819 581.525867 
L 186.468403 581.295051 
L 186.739822 581.165217 
L 186.820748 581.078662 
L 187.147112 580.847846 
L 187.264399 580.68916 
L 187.440429 580.443919 
L 187.550642 580.270807 
L 187.708855 580.097696 
L 187.752936 580.039992 
L 188.332051 579.881306 
L 188.487164 579.621639 
L 188.810547 579.361972 
L 188.951825 579.160008 
L 189.376169 578.568543 
L 189.838018 578.424284 
L 190.710285 577.039391 
L 190.896436 576.895131 
L 190.976052 576.765298 
L 191.511811 576.606612 
L 191.617858 576.346945 
L 191.718563 576.289241 
L 191.823696 576.130555 
L 191.942597 575.914165 
L 192.034162 575.769906 
L 192.401531 575.236145 
L 192.479172 575.106311 
L 192.552399 574.875496 
L 193.202629 574.71681 
L 193.48535 574.284031 
L 193.639974 574.067642 
L 193.769583 573.706993 
L 194.04507 573.375195 
L 194.156737 572.971268 
L 194.675532 572.740453 
L 194.882792 572.336526 
L 195.028808 572.17784 
L 195.177365 571.874895 
L 195.39469 571.615227 
L 195.55143 571.442116 
L 195.680646 571.28343 
L 195.764362 570.850651 
L 196.146618 570.634262 
L 196.313833 570.490002 
L 196.621292 570.259187 
L 196.891929 569.898537 
L 197.095632 569.63887 
L 197.253144 569.393629 
L 198.005252 568.96085 
L 198.132847 568.773312 
L 198.39041 568.441515 
L 198.489895 568.225125 
L 198.640866 567.99431 
L 198.738985 567.821198 
L 199.050086 567.330715 
L 199.59621 567.157604 
L 199.761335 566.580565 
L 199.830306 566.421879 
L 200.20673 565.686155 
L 200.509518 565.412062 
L 200.590749 565.210098 
L 201.246071 565.09469 
L 201.407809 564.907153 
L 201.716089 564.257984 
L 201.890658 564.027169 
L 202.030736 563.709798 
L 202.159867 563.507834 
L 202.36754 563.176037 
L 202.850912 562.988499 
L 202.975351 562.887518 
L 203.066627 562.69998 
L 203.752325 561.488199 
L 203.847793 561.271809 
L 204.26538 561.113124 
L 204.463271 560.925586 
L 205.22863 559.829213 
L 205.986287 559.627249 
L 206.320074 558.920377 
L 206.425036 558.776117 
L 207.267929 557.881707 
L 207.616677 557.751873 
L 207.98064 556.944019 
L 208.099863 556.79976 
L 208.681692 555.818794 
L 209.230416 555.674534 
L 209.345491 555.458145 
L 209.708952 555.111921 
L 209.878374 554.924384 
L 209.975001 554.736846 
L 210.130085 554.563735 
L 210.290794 554.332919 
L 210.370378 554.275215 
L 210.810785 554.102104 
L 211.063427 553.82801 
L 211.901505 552.731637 
L 212.389051 552.544099 
L 212.556691 552.25558 
L 213.702077 550.942817 
L 214.386228 550.409056 
L 215.123233 549.211701 
L 215.31869 549.168423 
L 215.627945 549.038589 
L 216.862751 547.711401 
L 217.320447 547.567141 
L 217.413038 547.466159 
L 217.55878 547.336325 
L 217.666228 547.163214 
L 218.440148 546.268804 
L 218.851021 546.124544 
L 219.180915 545.561931 
L 219.35778 545.273412 
L 219.745705 544.970467 
L 220.584961 544.609818 
L 220.765088 544.451132 
L 220.877875 544.321298 
L 221.576751 543.369185 
L 222.145758 543.181647 
L 222.580893 542.619034 
L 222.702389 542.344941 
L 222.842829 542.041996 
L 222.978003 541.912162 
L 223.074014 541.753476 
L 223.100584 541.652494 
L 223.64134 541.493809 
L 223.974379 540.700381 
L 224.257294 540.195472 
L 224.434845 539.935804 
L 224.593885 539.719415 
L 224.683483 539.503025 
L 224.728971 539.430896 
L 225.238368 539.27221 
L 225.335708 539.099098 
L 225.530431 538.969265 
L 226.082457 537.512242 
L 226.264408 537.310279 
L 226.365757 537.137167 
L 226.932368 536.949629 
L 227.048824 536.545702 
L 227.390747 536.112923 
L 227.551717 535.939812 
L 227.65224 535.795552 
L 228.247382 535.175235 
L 228.544247 535.01655 
L 228.820385 534.468363 
L 228.988977 534.093288 
L 229.125102 533.602805 
L 229.267864 533.429693 
L 229.414283 533.198878 
L 229.732317 532.968063 
L 229.740282 532.939211 
L 230.091139 532.809377 
L 230.160408 532.650691 
L 230.27217 532.290042 
L 230.439941 532.030375 
L 230.552756 531.914967 
L 230.631077 531.770707 
L 230.74385 531.554318 
L 230.840363 531.410058 
L 230.97546 531.179243 
L 231.111036 530.962853 
L 231.214698 530.775316 
L 231.73086 530.573352 
L 232.216325 529.79435 
L 232.377637 529.606812 
L 232.447023 529.462553 
L 232.535183 529.174033 
L 232.683756 529.0442 
L 232.744966 528.957644 
L 233.34205 528.75568 
L 233.45537 528.539291 
L 233.568292 528.438309 
L 233.813894 528.034382 
L 233.919601 527.832418 
L 233.994575 527.717011 
L 234.092837 527.587177 
L 234.23185 527.385213 
L 234.322507 527.25538 
L 234.558751 527.082268 
L 234.877 526.909156 
L 235.020673 526.692767 
L 235.444696 526.159006 
L 235.798036 525.625245 
L 235.93347 525.423282 
L 236.032509 525.293448 
L 236.390281 525.134763 
L 236.497766 525.077059 
L 236.699419 524.788539 
L 237.668335 523.187257 
L 238.128634 522.956442 
L 238.239977 522.667922 
L 238.503178 522.321699 
L 238.631799 522.191865 
L 239.104191 521.629253 
L 239.620827 521.340733 
L 239.782685 521.196474 
L 240.005771 520.835824 
L 240.281274 520.446323 
L 240.362623 520.201082 
L 240.519331 520.02797 
L 241.015414 519.551913 
L 241.343699 519.42208 
L 241.448824 519.27782 
L 241.573451 519.147986 
L 241.722551 518.758485 
L 241.846051 518.5998 
L 242.033883 518.31128 
L 242.122471 518.167021 
L 242.60429 517.517852 
L 242.9959 517.359166 
L 243.088765 517.142777 
L 243.233008 517.012943 
L 243.462515 516.695572 
L 243.607754 516.378201 
L 243.876935 515.945422 
L 244.891158 515.051012 
L 244.990877 514.892326 
L 245.260925 514.632659 
L 245.332535 514.589381 
L 246.127957 514.315288 
L 247.102398 513.738249 
L 247.755077 513.593989 
L 248.283506 513.074654 
L 248.387484 512.959247 
L 248.643333 512.829413 
L 248.818834 512.627449 
L 248.935571 512.584172 
L 249.456088 512.310078 
L 249.591541 512.035985 
L 249.690963 511.920577 
L 249.893839 511.574354 
L 249.993617 511.430094 
L 250.106744 511.271409 
L 250.171735 511.156001 
L 250.41928 511.040593 
L 250.516522 510.867481 
L 250.980973 510.679944 
L 251.512699 510.218313 
L 251.653738 509.987497 
L 251.78784 509.843238 
L 251.893462 509.684552 
L 251.988592 509.525867 
L 252.074522 509.309477 
L 252.586917 509.121939 
L 252.717418 508.919976 
L 252.822196 508.76129 
L 252.945779 508.617031 
L 253.168018 508.314085 
L 253.281724 508.1554 
L 253.448989 507.93901 
L 253.724375 507.636065 
L 254.097797 507.491805 
L 255.388302 505.140373 
L 255.873179 504.880705 
L 256.02583 504.534482 
L 256.112725 504.375796 
L 256.453006 503.495812 
L 256.575578 503.221719 
L 256.742825 502.86107 
L 256.805091 502.673532 
L 256.919055 502.500421 
L 257.387951 502.255179 
L 257.636017 501.937808 
L 257.721032 501.793548 
L 257.796708 501.591585 
L 257.928104 501.461751 
L 258.078732 500.985694 
L 258.227765 500.538489 
L 258.62299 499.788339 
L 258.906198 499.57195 
L 259.064674 499.398838 
L 259.374889 498.663114 
L 259.398407 498.288038 
L 259.514309 498.013945 
L 259.597899 497.682148 
L 259.882935 496.874294 
L 260.384436 496.225125 
L 260.654114 496.052014 
L 260.998547 495.056622 
L 261.115194 494.88351 
L 261.229708 494.594991 
L 261.337656 494.393027 
L 261.630091 493.729433 
L 261.741912 493.527469 
L 262.181931 493.181246 
L 262.375503 492.849449 
L 262.494265 492.676337 
L 262.588264 492.517652 
L 262.695326 492.402244 
L 262.869613 492.229132 
L 263.000514 491.983891 
L 263.278452 491.608816 
L 263.442727 491.435704 
L 263.664963 491.334723 
L 264.056176 490.988499 
L 264.340088 490.440313 
L 264.449673 490.252775 
L 264.692617 489.690162 
L 264.815596 489.545903 
L 264.888408 489.329513 
L 265.039666 489.113124 
L 265.431278 488.925586 
L 265.781665 488.305269 
L 265.90034 488.146584 
L 266.014952 487.886916 
L 266.141007 487.598397 
L 266.397717 487.309878 
L 266.51196 487.05021 
L 267.271265 486.603005 
L 268.433902 484.871889 
L 268.749248 484.684352 
L 268.904061 484.467962 
L 268.986978 484.309277 
L 269.065318 484.136165 
L 269.194002 483.991905 
L 269.292361 483.746664 
L 269.446357 483.573552 
L 269.700331 483.097495 
L 269.743466 483.039792 
L 270.284138 482.909958 
L 270.506371 482.664716 
L 270.614247 482.462753 
L 270.755147 482.246363 
L 270.878576 482.001122 
L 271.52861 480.890323 
L 271.908452 480.717211 
L 272.07698 480.32771 
L 272.192361 480.169024 
L 272.292727 479.995913 
L 272.436626 479.793949 
L 272.640811 479.390022 
L 272.793813 479.245762 
L 272.918996 478.942817 
L 273.035693 478.856261 
L 273.565975 478.582168 
L 273.703831 478.293649 
L 273.803556 478.134963 
L 274.02714 477.759888 
L 274.162947 477.529072 
L 274.457767 477.125145 
L 274.561517 476.96646 
L 275.12142 476.793348 
L 275.38866 476.562533 
L 275.748793 475.92779 
L 275.864626 475.797956 
L 275.941899 475.567141 
L 276.100016 475.408455 
L 276.16753 475.235344 
L 276.701813 475.004528 
L 276.822652 474.744861 
L 277.050519 474.340934 
L 277.181716 474.081266 
L 277.267292 473.893729 
L 277.3892 473.735043 
L 278.403837 472.696373 
L 278.542249 472.479984 
L 278.883152 471.787538 
L 279.172347 470.965257 
L 279.343483 470.691164 
L 279.439111 470.56133 
L 279.878877 470.373793 
L 279.975 470.186255 
L 280.100871 469.782328 
L 280.76838 467.719415 
L 280.886313 467.575155 
L 281.036734 467.113524 
L 281.864986 466.276818 
L 281.998836 466.103707 
L 282.110697 465.800761 
L 282.42259 465.122741 
L 282.545162 464.920777 
L 282.656824 464.675536 
L 282.938694 464.545702 
L 283.171155 464.401443 
L 283.332053 464.040793 
L 283.446097 463.853256 
L 283.619583 463.434903 
L 283.69742 463.204087 
L 283.825629 462.901142 
L 284.06916 462.540493 
L 284.174029 462.410659 
L 284.32022 462.237548 
L 284.699961 462.021158 
L 284.828526 461.848046 
L 284.87995 461.660509 
L 284.982352 461.328712 
L 285.055372 461.08347 
L 285.179425 460.852655 
L 285.329264 460.318894 
L 285.431004 460.015949 
L 285.563958 459.785133 
L 285.78566 459.179243 
L 285.902482 459.006131 
L 286.068635 458.833019 
L 286.186133 458.732038 
L 287.747009 456.236345 
L 287.96626 456.07766 
L 288.087179 455.904548 
L 288.29776 455.587177 
L 288.572015 455.11112 
L 288.647244 454.952434 
L 289.166653 453.711801 
L 289.522444 453.46656 
L 290.237636 452.514446 
L 290.353137 452.197075 
L 290.411274 451.865277 
L 290.652146 451.418073 
L 290.977087 451.259387 
L 291.279027 450.898738 
L 291.699165 450.191865 
L 291.92477 449.874494 
L 292.20275 449.456141 
L 292.314213 449.225326 
L 292.697115 449.037788 
L 293.361747 447.753877 
L 293.500898 447.364376 
L 293.597763 447.119134 
L 293.749111 446.830615 
L 294.004784 446.556522 
L 294.428471 446.325706 
L 294.551094 446.094891 
L 294.76917 445.965057 
L 294.940604 445.676538 
L 295.072789 445.445722 
L 295.279749 445.070647 
L 295.400275 444.926387 
L 295.506053 444.796554 
L 296.047272 444.580164 
L 296.511622 443.70018 
L 296.794013 443.051012 
L 296.901376 442.849048 
L 297.254671 442.430695 
L 297.600093 442.257584 
L 298.204483 441.002525 
L 298.39626 440.641875 
L 299.083035 439.819595 
L 299.234367 439.646484 
L 299.361499 439.30026 
L 299.513501 439.141575 
L 299.637866 438.853055 
L 299.764064 438.434702 
L 299.90258 438.160609 
L 299.972215 437.94422 
L 300.225264 437.165217 
L 300.870677 436.602605 
L 301.335184 434.828211 
L 301.411142 434.655099 
L 301.958234 433.457744 
L 302.49408 433.241354 
L 303.626651 430.687958 
L 304.31726 430.154198 
L 304.434348 429.952234 
L 304.576048 429.793548 
L 304.685735 429.505029 
L 304.840061 429.21651 
L 304.978406 428.798157 
L 305.111313 428.495211 
L 305.352052 428.365378 
L 305.702656 428.10571 
L 305.912743 427.557524 
L 306.018946 427.35556 
L 306.202285 426.67754 
L 306.297751 426.259187 
L 306.402261 426.057223 
L 306.690004 425.480184 
L 306.782766 425.220517 
L 306.895066 425.061831 
L 306.999515 424.715608 
L 307.366892 424.311681 
L 307.467933 424.152995 
L 307.557744 423.99431 
L 307.69467 423.734642 
L 307.780799 423.604809 
L 307.888744 423.287437 
L 308.019738 423.042196 
L 308.160346 422.407453 
L 308.586116 421.801563 
L 308.787421 421.671729 
L 308.894079 421.541895 
L 309.02661 421.23895 
L 309.162973 420.979283 
L 309.518846 419.940613 
L 309.739487 419.176037 
L 309.942808 418.829814 
L 310.113625 418.671128 
L 310.484197 418.454739 
L 310.602864 417.863274 
L 310.713696 417.632458 
L 311.102174 415.901342 
L 311.209465 415.454137 
L 311.443819 414.703987 
L 311.555068 414.502024 
L 311.911213 414.22793 
L 312.068099 414.069245 
L 312.24468 413.434502 
L 312.393296 413.275816 
L 312.697779 412.612222 
L 312.883641 411.963053 
L 313.053684 411.501423 
L 313.266363 411.039792 
L 313.386085 410.93881 
L 313.677688 410.650291 
L 313.949629 409.97227 
L 314.184846 409.452935 
L 314.359888 409.121138 
L 314.765681 408.024765 
L 315.290707 407.620838 
L 316.520549 405.283831 
L 316.78625 405.081867 
L 317.218673 404.533681 
L 317.329721 404.216309 
L 317.678802 403.466159 
L 317.76065 403.350751 
L 317.900253 403.192066 
L 318.685825 402.124544 
L 318.838064 401.893729 
L 319.850437 400.436706 
L 320.450512 399.729834 
L 320.569609 399.268203 
L 320.721037 398.84985 
L 320.825117 398.373793 
L 321.129093 397.522661 
L 321.186297 397.306271 
L 321.367256 397.162012 
L 321.466056 396.945622 
L 321.717182 396.743659 
L 322.01826 396.224324 
L 322.144031 395.95023 
L 322.59248 394.983691 
L 323.435698 394.204688 
L 323.836126 393.396834 
L 323.922268 393.238149 
L 323.951057 392.762092 
L 324.047988 392.257183 
L 324.079053 392.098497 
L 324.284104 391.002124 
L 324.411829 390.2664 
L 324.516469 389.963454 
L 324.674701 389.862472 
L 324.944408 389.617231 
L 325.669889 387.713003 
L 325.798448 387.51104 
L 326.216306 386.385814 
L 326.490873 386.212703 
L 326.639634 386.054017 
L 326.747805 385.880906 
L 326.881554 385.693368 
L 327.003712 385.563534 
L 327.107954 385.390423 
L 327.225632 385.275015 
L 327.417074 384.97207 
L 327.524141 384.813384 
L 328.299731 384.265197 
L 328.414109 384.178642 
L 328.564049 383.976678 
L 328.766798 383.717011 
L 328.906005 383.486195 
L 329.013482 383.313084 
L 329.228085 383.096694 
L 330.157942 382.793749 
L 330.332654 382.692767 
L 331.751144 382.086876 
L 332.941296 381.221318 
L 333.549971 380.456742 
L 333.862462 379.836426 
L 333.968429 379.692166 
L 334.080383 379.475776 
L 334.758082 378.970868 
L 334.919073 378.78333 
L 335.038359 378.610218 
L 335.306697 378.10531 
L 335.508976 377.88892 
L 335.629395 377.686957 
L 335.78127 377.629253 
L 336.328529 377.225326 
L 336.443745 377.109918 
L 336.648071 376.792547 
L 336.946924 375.753877 
L 337.022044 375.595191 
L 337.160857 375.42208 
L 338.20966 374.412262 
L 338.320604 374.282428 
L 338.630394 373.835223 
L 338.959993 373.56113 
L 339.33547 373.402444 
L 339.646478 372.998517 
L 339.967195 372.66672 
L 340.107324 372.536886 
L 340.403151 372.291645 
L 340.527096 372.161811 
L 341.07268 371.9887 
L 341.246789 371.77231 
L 341.377696 371.613625 
L 341.486866 371.498217 
L 341.641926 371.238549 
L 341.835761 370.8779 
L 341.979564 370.661511 
L 342.221758 370.401843 
L 342.669976 370.171028 
L 342.828463 370.05562 
L 343.138482 369.565137 
L 343.696349 368.771709 
L 344.165894 368.613023 
L 344.288804 368.439912 
L 344.428792 368.180244 
L 345.10841 366.679944 
L 345.23621 366.492406 
L 345.573024 366.131757 
L 345.874883 365.94422 
L 345.985003 365.670126 
L 346.159271 365.352755 
L 346.389201 364.818994 
L 346.561988 364.443919 
L 346.890614 363.751473 
L 346.948336 363.592787 
L 347.440019 363.390823 
L 348.666357 360.996113 
L 349.077233 360.750872 
L 349.150005 360.592186 
L 349.593212 359.769906 
L 349.688534 359.61122 
L 349.790564 359.481386 
L 350.281245 358.846644 
L 350.717893 358.601403 
L 350.828799 358.413865 
L 350.930066 358.284031 
L 351.222674 357.663715 
L 351.712578 357.057824 
L 351.807935 357.00012 
L 352.336483 356.610619 
L 352.499338 356.365378 
L 353.298445 355.196874 
L 353.91019 354.821799 
L 354.026297 354.634262 
L 354.923198 353.480184 
L 355.62807 353.350351 
L 355.958738 353.004127 
L 356.078944 352.903146 
L 356.226201 352.67233 
L 356.37575 352.499219 
L 357.196242 351.792346 
L 357.356786 351.619235 
L 357.563951 351.474975 
L 357.700132 351.273011 
L 357.931325 350.869084 
L 358.339665 350.34975 
L 358.818953 350.176638 
L 358.960548 349.830415 
L 359.75426 348.820597 
L 360.310979 348.690763 
L 360.512295 348.373392 
L 360.63383 348.229132 
L 360.873621 348.027169 
L 360.952696 347.911761 
L 361.090303 347.767502 
L 361.212968 347.623242 
L 361.360372 347.406852 
L 361.492831 347.305871 
L 361.936056 347.060629 
L 362.14375 346.69998 
L 362.310649 346.526868 
L 362.721963 345.906552 
L 362.875133 345.762292 
L 363.104417 345.502625 
L 363.500051 345.300661 
L 363.605835 345.141976 
L 364.546565 343.94462 
L 364.589006 343.87249 
L 365.36392 343.627249 
L 365.459242 343.468563 
L 365.622312 343.223322 
L 365.715617 343.064636 
L 366.461853 342.126949 
L 366.785834 341.953837 
L 366.898227 341.62204 
L 367.062254 341.304668 
L 367.175165 341.088279 
L 367.282087 340.843037 
L 367.802631 339.919776 
L 368.365935 339.573552 
L 368.502154 339.227329 
L 369.056549 338.130956 
L 369.178573 337.986696 
L 369.303679 337.813584 
L 369.479343 337.539491 
L 369.570111 337.481787 
L 369.981272 337.337528 
L 370.091591 337.092286 
L 370.335526 336.659507 
L 370.474316 336.515247 
L 370.576951 336.25558 
L 370.763547 336.053617 
L 370.888685 335.866079 
L 372.134311 334.53889 
L 372.240235 334.365778 
L 373.077136 333.428091 
L 373.2041 333.254979 
L 373.568063 332.952034 
L 373.752075 332.778922 
L 374.418815 331.971068 
L 374.776866 331.797956 
L 374.887985 331.538289 
L 375.174715 331.17764 
L 375.302703 331.018954 
L 375.475048 330.816991 
L 375.606561 330.658305 
L 376.151681 330.182248 
L 376.435585 330.037988 
L 376.979659 328.855059 
L 377.090534 328.624244 
L 377.237456 328.321298 
L 377.419561 327.989501 
L 377.526714 327.801964 
L 378.043361 327.470166 
L 378.145505 327.239351 
L 378.337766 327.109517 
L 378.525489 326.734442 
L 378.792976 326.142977 
L 378.975102 325.95544 
L 379.336154 325.551513 
L 379.68657 325.363975 
L 380.49597 323.964656 
L 380.602823 323.834823 
L 380.963056 323.618433 
L 381.208461 323.459748 
L 381.580932 322.839431 
L 381.740934 322.637467 
L 382.047539 322.017151 
L 382.141984 321.887317 
L 382.280521 321.670928 
L 382.402913 321.62765 
L 382.80371 321.440112 
L 384.061757 319.290643 
L 384.387134 319.146383 
L 385.933761 317.097896 
L 386.038994 316.953637 
L 386.240408 316.751673 
L 386.739064 315.813985 
L 387.042144 315.078261 
L 387.156023 314.789742 
L 387.417826 314.68876 
L 387.646722 314.558926 
L 387.919899 314.255981 
L 387.987463 314.126147 
L 388.293127 313.476979 
L 388.418626 313.332719 
L 388.690936 312.669124 
L 388.781914 312.423883 
L 389.251188 312.236345 
L 389.324734 312.063234 
L 389.446485 311.875696 
L 389.582268 311.717011 
L 390.203015 310.707193 
L 390.299752 310.519655 
L 390.40418 310.4331 
L 390.759468 310.274414 
L 390.953045 310.029173 
L 391.244975 309.509838 
L 391.363206 309.380004 
L 392.179776 308.601002 
L 392.514384 308.471168 
L 393.687221 306.942016 
L 394.127038 306.725626 
L 394.277435 306.494811 
L 395.135112 305.239752 
L 395.75449 305.095492 
L 395.813515 304.951232 
L 395.931247 304.821399 
L 396.48193 303.941415 
L 396.648366 303.609617 
L 397.312698 303.234542 
L 397.421361 303.032579 
L 398.039138 301.820797 
L 398.297177 301.532278 
L 398.391688 301.41687 
L 399.124927 300.926387 
L 399.272909 300.508034 
L 399.954625 299.62805 
L 400.033441 299.541495 
L 400.616471 299.296253 
L 400.684447 299.180846 
L 400.822881 299.036586 
L 401.645164 297.824805 
L 402.111676 297.666119 
L 402.401934 297.146784 
L 402.598379 296.858265 
L 402.752562 296.699579 
L 402.911519 296.41106 
L 403.10575 296.122541 
L 403.658 295.646484 
L 404.260934 294.319295 
L 404.388811 294.160609 
L 404.612302 293.771108 
L 404.744926 293.569144 
L 404.840559 293.453737 
L 405.12349 293.295051 
L 405.246764 293.251773 
L 405.376892 293.04981 
L 405.620668 292.328511 
L 405.883367 291.809177 
L 406.003494 291.506231 
L 406.284388 291.160008 
L 406.381696 291.073452 
L 406.923883 290.914767 
L 407.852123 289.385614 
L 407.958625 289.183651 
L 408.628515 288.592186 
L 408.737093 288.447926 
L 409.084722 288.101703 
L 409.209642 287.856462 
L 409.456233 287.697776 
L 409.562291 287.567942 
L 410.01024 287.351553 
L 410.209589 287.120737 
L 410.59511 286.615828 
L 410.963495 286.139772 
L 411.088003 285.96666 
L 411.961421 285.274214 
L 412.085868 285.057824 
L 412.236411 284.841435 
L 412.37864 284.668323 
L 412.879623 284.163414 
L 413.102478 284.062432 
L 413.854257 283.773913 
L 414.00413 283.615227 
L 414.338895 283.384412 
L 414.4019 283.326708 
L 415.235224 283.168022 
L 415.391528 283.009337 
L 415.619494 282.836225 
L 415.721167 282.67754 
L 415.89157 282.446724 
L 416.049471 282.187057 
L 416.136414 282.114927 
L 416.615003 281.970667 
L 416.748215 281.811982 
L 416.974508 281.523462 
L 417.373814 280.758886 
L 417.494712 280.585774 
L 417.622644 280.412663 
L 418.450476 279.806772 
L 418.623882 279.474975 
L 418.837481 279.215308 
L 418.942932 279.085474 
L 419.922791 278.234342 
L 420.042782 278.003526 
L 420.5346 277.31108 
L 421.074993 276.748467 
L 421.408768 276.618634 
L 421.752205 276.041595 
L 421.9502 275.753076 
L 422.055354 275.579964 
L 422.691786 275.147185 
L 423.078124 274.974073 
L 423.290252 274.584572 
L 423.404437 274.397035 
L 423.580537 274.122941 
L 423.69651 273.892126 
L 423.804852 273.646884 
L 423.840069 273.589181 
L 424.070879 273.444921 
L 424.171657 273.358365 
L 424.642988 273.214105 
L 424.926757 272.925586 
L 425.194587 272.593789 
L 425.482545 272.348547 
L 425.665501 272.218714 
L 425.701359 272.060028 
L 426.235706 271.901342 
L 426.563713 271.598397 
L 426.787071 271.309878 
L 426.910473 271.064636 
L 427.221403 270.761691 
L 427.469252 270.458746 
L 428.069778 269.867281 
L 428.500072 269.218113 
L 428.681063 268.944019 
L 428.842427 268.785334 
L 428.987328 268.597796 
L 429.408982 268.43911 
L 429.512658 268.280425 
L 430.48118 267.198477 
L 430.924929 267.054218 
L 431.324926 266.707994 
L 431.729566 265.986696 
L 431.869948 265.82801 
L 432.174599 265.438509 
L 432.672686 265.265398 
L 432.787219 265.07786 
L 433.533965 263.967061 
L 433.644821 263.793949 
L 433.906691 263.620838 
L 434.16872 263.491004 
L 434.375808 262.769705 
L 434.622293 262.423482 
L 434.757743 262.221519 
L 435.064029 261.846444 
L 435.721847 261.413665 
L 435.881559 261.283831 
L 435.983594 261.125145 
L 436.207075 260.923182 
L 436.37002 260.735644 
L 436.43889 260.562533 
L 436.528746 260.504829 
L 436.918606 260.288439 
L 437.003315 260.173031 
L 437.426817 260.014346 
L 437.763278 259.552715 
L 437.881934 259.379603 
L 438.00403 259.076658 
L 438.091039 258.903546 
L 438.235654 258.759287 
L 438.683601 258.110118 
L 439.099701 257.792747 
L 439.202536 257.691765 
L 439.293331 257.504228 
L 439.414064 257.31669 
L 439.593595 257.071449 
L 440.113903 256.379002 
L 440.794191 255.975075 
L 440.917574 255.686556 
L 441.110659 255.542296 
L 441.568052 254.994109 
L 442.200778 254.662312 
L 442.768139 254.301663 
L 442.894181 254.157403 
L 443.251857 253.941014 
L 443.737164 253.767902 
L 443.985252 253.638069 
L 445.161136 252.570547 
L 445.545025 252.411861 
L 445.653882 252.195472 
L 445.82677 252.02236 
L 445.961452 251.892527 
L 446.074475 251.762693 
L 446.138262 251.690563 
L 446.313024 251.531877 
L 446.505035 251.315488 
L 446.62258 251.171228 
L 447.154875 250.998117 
L 447.45607 250.651893 
L 447.753617 250.219114 
L 448.094023 249.959447 
L 448.191358 249.771909 
L 448.795215 249.584372 
L 448.891123 249.497816 
L 449.037481 249.353556 
L 449.231412 249.065037 
L 449.337493 248.935203 
L 449.541066 248.762092 
L 449.772394 248.372591 
L 450.414758 248.257183 
L 450.524354 248.011941 
L 450.608614 247.853256 
L 451.206182 247.103106 
L 451.34982 246.929994 
L 451.452605 246.87229 
L 451.705909 246.814586 
L 452.170993 246.526067 
L 452.32547 246.338529 
L 452.585859 246.136566 
L 452.965933 245.631657 
L 453.105978 245.545101 
L 453.608725 245.415267 
L 453.727374 245.29986 
L 453.870135 245.141174 
L 454.312183 244.636265 
L 454.492398 244.434302 
L 455.354903 243.914967 
L 456.412412 243.049409 
L 456.820667 242.876297 
L 457.776133 241.736646 
L 458.4898 241.375997 
L 458.578739 241.318293 
L 458.68008 241.174033 
L 458.76534 241.101903 
L 458.907609 240.97207 
L 458.995323 240.885514 
L 459.110079 240.741254 
L 459.210673 240.611421 
L 459.471735 240.380605 
L 459.514886 240.322901 
L 460.022589 240.178642 
L 460.845417 239.024564 
L 461.071195 238.707193 
L 461.715994 238.490803 
L 461.825377 238.245562 
L 461.982423 237.957043 
L 462.307244 237.567542 
L 462.412584 237.437708 
L 463.254754 236.860669 
L 463.340295 236.629854 
L 463.515366 236.485594 
L 463.656912 236.370186 
L 463.989651 236.081667 
L 464.135029 235.937407 
L 464.300728 235.822 
L 464.792522 235.648888 
L 465.267435 235.057423 
L 465.54805 234.682348 
L 465.9245 234.206291 
L 466.685023 233.74466 
L 467.482928 232.99451 
L 468.084061 232.821399 
L 468.16546 232.662713 
L 468.285021 232.518453 
L 468.776411 231.984692 
L 469.035811 231.753877 
L 469.147395 231.609617 
L 469.323229 231.566339 
L 469.645913 231.407654 
L 469.741775 231.263394 
L 469.930149 231.061431 
L 470.332451 230.657504 
L 470.541716 230.325706 
L 470.722591 230.123743 
L 470.797267 230.094891 
L 471.519111 229.791946 
L 471.645251 229.474574 
L 471.822177 229.301463 
L 471.973624 228.940813 
L 472.074192 228.73885 
L 472.296228 228.508034 
L 472.540977 228.435905 
L 472.887508 228.306071 
L 474.11508 226.935604 
L 474.963486 226.27201 
L 475.092711 226.070046 
L 475.515239 225.493007 
L 475.59423 225.3776 
L 476.196947 225.117932 
L 476.302526 225.016951 
L 476.54922 224.814987 
L 476.854246 224.468764 
L 477.197228 224.093689 
L 478.042987 223.66091 
L 479.650037 222.376999 
L 481.162863 221.078662 
L 481.279332 220.876698 
L 482.384607 220.140974 
L 482.582382 219.93901 
L 482.705601 219.780325 
L 482.96546 219.405249 
L 483.097845 219.217712 
L 483.328052 218.986896 
L 483.628941 218.655099 
L 484.09658 218.481988 
L 485.172436 217.5443 
L 485.790612 217.356762 
L 485.895426 217.25578 
L 486.330742 216.923983 
L 487.391971 216.144981 
L 487.701878 215.89974 
L 487.816355 215.741054 
L 488.052562 215.582368 
L 488.216086 215.380405 
L 488.350976 215.236145 
L 488.402028 215.106311 
L 488.935014 214.962052 
L 489.041624 214.846644 
L 489.216801 214.64468 
L 489.321742 214.442717 
L 489.688069 214.211901 
L 489.851663 214.125346 
L 489.96657 214.024364 
L 490.665644 213.779122 
L 491.735353 212.610619 
L 492.214283 212.451933 
L 492.299569 212.336526 
L 492.413584 212.163414 
L 492.598292 211.947025 
L 492.800687 211.759487 
L 493.091663 211.326708 
L 493.288058 211.052615 
L 493.771523 210.908355 
L 494.056477 210.691966 
L 494.271808 210.547706 
L 494.800373 210.201483 
L 495.406945 209.999519 
L 495.518692 209.711 
L 496.532649 208.81659 
L 497.199221 208.643478 
L 498.120565 208.095292 
L 498.952144 207.936606 
L 499.418357 207.417271 
L 499.675388 207.229734 
L 500.24859 206.998918 
L 500.602084 206.739251 
L 500.77171 206.566139 
L 500.898701 206.436305 
L 501.602182 206.075656 
L 501.920352 205.945822 
L 503.127323 204.863875 
L 503.449549 204.734041 
L 503.511706 204.647485 
L 503.700269 204.503226 
L 503.861702 204.34454 
L 504.120498 204.070447 
L 504.240811 203.955039 
L 505.001621 203.421278 
L 505.182551 203.031777 
L 505.31416 202.858666 
L 505.489414 202.55572 
L 505.703156 202.353757 
L 505.86349 202.166219 
L 506.046912 202.007534 
L 506.668674 201.80557 
L 506.786996 201.646884 
L 506.93404 201.517051 
L 507.147633 201.257383 
L 507.313543 201.098698 
L 507.791481 200.853456 
L 508.917392 200.132158 
L 509.445553 199.742657 
L 510.020932 199.482989 
L 510.199684 199.19447 
L 510.391339 199.021358 
L 511.102328 198.30006 
L 511.474374 198.112523 
L 511.727611 197.751873 
L 512.12147 197.463354 
L 512.246257 197.275816 
L 512.480076 197.001723 
L 512.533521 196.944019 
L 513.032264 196.785334 
L 513.166994 196.641074 
L 513.281745 196.43911 
L 513.665034 195.746664 
L 513.810943 195.573552 
L 514.230241 194.982088 
L 514.988648 194.534883 
L 515.111021 194.462753 
L 515.716064 193.871288 
L 515.735897 193.842436 
L 516.37124 193.669325 
L 517.697053 192.601803 
L 517.952175 192.457544 
L 518.929978 191.317892 
L 519.485278 191.130355 
L 519.59637 190.942817 
L 519.719052 190.798557 
L 519.930425 190.582168 
L 520.103316 190.39463 
L 520.248765 190.235945 
L 520.41749 190.077259 
L 521.116295 189.78874 
L 521.589872 189.298257 
L 522.177579 188.764496 
L 522.688794 188.591384 
L 523.915526 187.264196 
L 524.428304 187.10551 
L 524.563018 187.047806 
L 525.047384 186.499619 
L 525.156916 186.254378 
L 525.275825 186.110118 
L 525.377693 186.009136 
L 525.852786 185.864877 
L 526.047597 185.691765 
L 526.310447 185.403246 
L 526.719292 185.143578 
L 526.858513 185.057023 
L 527.642473 184.508836 
L 527.863875 184.364576 
L 528.049423 184.162613 
L 528.197634 183.960649 
L 528.374635 183.67213 
L 528.487371 183.513444 
L 528.708849 183.412462 
L 528.988749 183.354759 
L 529.363974 183.210499 
L 529.451611 183.095091 
L 529.641529 182.965257 
L 529.690787 182.84985 
L 529.917404 182.720016 
L 531.201606 181.652494 
L 531.301421 181.580365 
L 531.675606 181.248567 
L 531.790293 181.104308 
L 532.244671 180.945622 
L 532.567924 180.758085 
L 532.715293 180.584973 
L 533.100498 180.339732 
L 533.228443 180.181046 
L 533.8143 179.762693 
L 534.079913 179.632859 
L 534.272729 179.373192 
L 535.229193 178.810579 
L 535.483547 178.680745 
L 535.607892 178.536486 
L 535.725312 178.44993 
L 535.89342 178.23354 
L 536.098926 178.046003 
L 536.250663 177.829613 
L 536.39456 177.569946 
L 537.205574 177.166019 
L 537.405768 177.021759 
L 537.507114 176.978481 
L 537.937499 176.617832 
L 538.147827 176.415869 
L 538.397704 176.329313 
L 539.119232 175.925386 
L 539.903839 175.08868 
L 540.448283 174.901142 
L 540.603508 174.627049 
L 540.880661 174.425085 
L 540.970416 174.2664 
L 541.091059 174.12214 
L 541.627501 173.848046 
L 542.040873 173.703787 
L 543.079866 172.578561 
L 543.640301 172.33332 
L 543.937437 171.900541 
L 544.092265 171.756281 
L 544.33096 171.482188 
L 544.441498 171.265798 
L 544.6615 170.977279 
L 545.200245 170.775316 
L 545.445257 170.530074 
L 545.570086 170.371388 
L 545.733704 170.227129 
L 546.063696 169.823202 
L 547.187066 169.231737 
L 547.663927 168.784532 
L 547.799734 168.640272 
L 547.890422 168.553717 
L 548.575583 168.265197 
L 549.055576 167.313084 
L 549.154663 167.03899 
L 549.439051 166.750471 
L 549.486556 166.692767 
L 550.136633 166.476377 
L 550.516933 166.014747 
L 551.933349 165.105911 
L 552.041563 164.990503 
L 552.176141 164.846243 
L 552.339078 164.615428 
L 552.963757 164.197075 
L 553.362774 164.038389 
L 554.185403 163.143979 
L 554.321702 162.942016 
L 555.153032 162.696774 
L 555.282631 162.465959 
L 555.528973 162.292847 
L 556.244143 161.542697 
L 556.693853 161.254178 
L 557.723788 160.24436 
L 558.226889 160.085674 
L 559.115589 159.003727 
L 559.629835 158.830615 
L 559.742762 158.715207 
L 560.016007 158.397836 
L 560.084236 158.296854 
L 560.232006 158.167021 
L 560.341855 157.921779 
L 560.453511 157.546704 
L 560.601422 157.402444 
L 560.722285 157.243759 
L 560.780702 157.200481 
L 561.286788 157.041795 
L 561.41015 156.854258 
L 561.638294 156.709998 
L 561.654101 156.652294 
L 561.808677 156.52246 
L 562.427183 155.858866 
L 562.977987 155.685754 
L 564.311324 154.473973 
L 564.517271 154.315288 
L 564.63879 154.098898 
L 564.945103 153.839231 
L 565.180829 153.651693 
L 565.675061 153.319896 
L 565.873258 153.262192 
L 566.270198 153.060228 
L 567.171826 152.021559 
L 567.879867 151.632058 
L 568.100064 151.401242 
L 568.401317 151.228131 
L 568.638391 150.968463 
L 569.271708 150.809778 
L 569.578906 150.420276 
L 569.687919 150.189461 
L 569.941202 149.973072 
L 570.0417 149.79996 
L 570.180049 149.612422 
L 570.31246 149.424885 
L 570.497182 149.295051 
L 570.673433 149.222921 
L 571.001133 149.078662 
L 571.400743 148.790142 
L 571.785318 148.256381 
L 571.892407 148.08327 
L 572.289134 147.838028 
L 572.595752 147.621639 
L 572.805881 147.477379 
L 573.86513 146.813785 
L 574.236555 146.683951 
L 574.333343 146.597395 
L 574.606851 146.36658 
L 575.108153 145.919375 
L 575.808263 145.702985 
L 576.246437 145.241354 
L 576.368592 145.068243 
L 576.669678 144.678742 
L 576.867402 144.520056 
L 577.406944 144.231537 
L 578.071358 143.438109 
L 578.335969 143.264997 
L 578.485512 143.164015 
L 578.955565 143.00533 
L 579.114309 142.846644 
L 579.232538 142.702384 
L 579.656988 142.211901 
L 579.969213 141.678141 
L 581.930223 140.596193 
L 582.334588 140.466359 
L 582.922353 140.192266 
L 583.691844 139.817191 
L 583.887813 139.672931 
L 584.004114 139.543098 
L 584.511301 138.879503 
L 585.692641 137.985093 
L 585.848985 137.78313 
L 586.437183 137.220517 
L 586.584605 137.090683 
L 587.073592 136.946424 
L 587.183991 136.845442 
L 587.579775 136.556922 
L 587.78741 136.326107 
L 588.12152 136.152995 
L 588.136794 136.138569 
L 588.752537 135.99431 
L 589.039055 135.835624 
L 589.210645 135.691364 
L 589.370767 135.575957 
L 590.297348 135.200882 
L 590.389908 135.056622 
L 590.757054 134.753677 
L 590.890479 134.566139 
L 591.880014 134.162212 
L 592.053867 134.032378 
L 592.197363 133.859267 
L 592.802898 133.31108 
L 593.256845 133.051413 
L 593.420064 132.979283 
L 593.528931 132.835023 
L 593.984814 132.330114 
L 594.09332 132.257984 
L 595.145749 131.73865 
L 595.256193 131.652094 
L 595.422613 131.52226 
L 595.50343 131.378 
L 595.861949 131.176037 
L 596.081505 131.002925 
L 596.949519 130.613424 
L 597.689276 129.762292 
L 597.804085 129.632458 
L 598.328766 129.459347 
L 598.395418 129.372791 
L 598.617202 129.228531 
L 598.730994 129.05542 
L 598.869554 128.824604 
L 600.798281 127.598397 
L 600.922552 127.396434 
L 601.522284 127.208896 
L 601.706407 127.006932 
L 601.895095 126.848247 
L 602.44711 126.184652 
L 602.930094 125.896133 
L 603.002417 125.852855 
L 603.196611 125.723021 
L 603.837441 125.246965 
L 603.936576 125.117131 
L 604.743565 124.669926 
L 605.199881 124.237147 
L 605.250808 124.150591 
L 605.469819 123.991905 
L 605.504386 123.948628 
L 605.763421 123.804368 
L 606.112194 123.660108 
L 606.388648 123.515849 
L 607.506552 122.736846 
L 607.93092 122.592587 
L 608.445982 122.260789 
L 608.845517 121.914566 
L 608.959257 121.741455 
L 609.533241 121.553917 
L 609.686243 121.452935 
L 609.989985 121.193268 
L 610.109502 121.049008 
L 610.558194 120.688359 
L 611.200576 120.47197 
L 611.471363 120.154598 
L 611.657403 120.024765 
L 611.826813 119.880505 
L 612.204492 119.462152 
L 612.351813 119.274614 
L 613.029793 118.75528 
L 613.107497 118.68315 
L 613.394493 118.46676 
L 613.556199 118.264797 
L 613.767583 118.019555 
L 614.574586 117.71661 
L 614.701659 117.50022 
L 615.200456 117.081867 
L 616.245289 116.60581 
L 616.416697 116.504829 
L 616.794317 116.201883 
L 616.940601 116.07205 
L 617.618225 115.913364 
L 618.033156 115.379603 
L 618.282466 115.163214 
L 618.433222 115.03338 
L 618.673012 114.816991 
L 618.749257 114.773713 
L 619.137982 114.586175 
L 619.337588 114.326508 
L 619.514369 114.153396 
L 619.72206 113.980285 
L 619.92425 113.850451 
L 620.139923 113.691765 
L 620.226942 113.561931 
L 620.325386 113.31669 
L 620.723261 113.230134 
L 620.925276 113.085875 
L 621.035082 112.941615 
L 621.683941 112.364576 
L 622.0114 112.018353 
L 622.417411 111.859667 
L 622.636364 111.6 
L 622.636364 111.6 
" style="fill:none;stroke:#92c6ff;stroke-linecap:round;stroke-width:1.5;"/>
   </g>
   <g id="line2d_30">
    <defs>
     <path d="M 0 2.5 
C 0.663008 2.5 1.29895 2.236584 1.767767 1.767767 
C 2.236584 1.29895 2.5 0.663008 2.5 0 
C 2.5 -0.663008 2.236584 -1.29895 1.767767 -1.767767 
C 1.29895 -2.236584 0.663008 -2.5 0 -2.5 
C -0.663008 -2.5 -1.29895 -2.236584 -1.767767 -1.767767 
C -2.236584 -1.29895 -2.5 -0.663008 -2.5 0 
C -2.5 0.663008 -2.236584 1.29895 -1.767767 1.767767 
C -1.29895 2.236584 -0.663008 2.5 0 2.5 
z
" id="md5287ddeda" style="stroke:#696969;"/>
    </defs>
    <g clip-path="url(#p9c16dbf080)">
     <use style="fill:#696969;stroke:#696969;" x="115.363636" xlink:href="#md5287ddeda" y="615.6"/>
    </g>
   </g>
   <g id="line2d_31">
    <g clip-path="url(#p9c16dbf080)">
     <use style="fill:#696969;stroke:#696969;" x="201.179118" xlink:href="#md5287ddeda" y="565.195672"/>
    </g>
   </g>
   <g id="line2d_32">
    <g clip-path="url(#p9c16dbf080)">
     <use style="fill:#696969;stroke:#696969;" x="245.059213" xlink:href="#md5287ddeda" y="514.791344"/>
    </g>
   </g>
   <g id="line2d_33">
    <g clip-path="url(#p9c16dbf080)">
     <use style="fill:#696969;stroke:#696969;" x="283.173537" xlink:href="#md5287ddeda" y="464.387017"/>
    </g>
   </g>
   <g id="line2d_34">
    <g clip-path="url(#p9c16dbf080)">
     <use style="fill:#696969;stroke:#696969;" x="312.118872" xlink:href="#md5287ddeda" y="413.982689"/>
    </g>
   </g>
   <g id="line2d_35">
    <g clip-path="url(#p9c16dbf080)">
     <use style="fill:#696969;stroke:#696969;" x="347.026447" xlink:href="#md5287ddeda" y="363.578361"/>
    </g>
   </g>
   <g id="line2d_36">
    <g clip-path="url(#p9c16dbf080)">
     <use style="fill:#696969;stroke:#696969;" x="388.465438" xlink:href="#md5287ddeda" y="313.174033"/>
    </g>
   </g>
   <g id="line2d_37">
    <g clip-path="url(#p9c16dbf080)">
     <use style="fill:#696969;stroke:#696969;" x="434.375808" xlink:href="#md5287ddeda" y="262.769705"/>
    </g>
   </g>
   <g id="line2d_38">
    <g clip-path="url(#p9c16dbf080)">
     <use style="fill:#696969;stroke:#696969;" x="492.271689" xlink:href="#md5287ddeda" y="212.365378"/>
    </g>
   </g>
   <g id="line2d_39">
    <g clip-path="url(#p9c16dbf080)">
     <use style="fill:#696969;stroke:#696969;" x="555.7457" xlink:href="#md5287ddeda" y="161.975476"/>
    </g>
   </g>
   <g id="line2d_40">
    <g clip-path="url(#p9c16dbf080)">
     <use style="fill:#696969;stroke:#696969;" x="622.636364" xlink:href="#md5287ddeda" y="111.6"/>
    </g>
   </g>
   <g id="patch_3">
    <path d="M 90 640.8 
L 90 86.4 
" style="fill:none;stroke:#cccccc;stroke-linecap:square;stroke-linejoin:miter;"/>
   </g>
   <g id="patch_4">
    <path d="M 648 640.8 
L 648 86.4 
" style="fill:none;stroke:#cccccc;stroke-linecap:square;stroke-linejoin:miter;"/>
   </g>
   <g id="patch_5">
    <path d="M 90 640.8 
L 648 640.8 
" style="fill:none;stroke:#cccccc;stroke-linecap:square;stroke-linejoin:miter;"/>
   </g>
   <g id="patch_6">
    <path d="M 90 86.4 
L 648 86.4 
" style="fill:none;stroke:#cccccc;stroke-linecap:square;stroke-linejoin:miter;"/>
   </g>
   <g id="text_15">
    <!-- 1 (2014-06-06) -->
    <defs>
     <path id="DejaVuSans-32"/>
     <path d="M 31 75.875 
Q 24.46875 64.65625 21.28125 53.65625 
Q 18.109375 42.671875 18.109375 31.390625 
Q 18.109375 20.125 21.3125 9.0625 
Q 24.515625 -2 31 -13.1875 
L 23.1875 -13.1875 
Q 15.875 -1.703125 12.234375 9.375 
Q 8.59375 20.453125 8.59375 31.390625 
Q 8.59375 42.28125 12.203125 53.3125 
Q 15.828125 64.359375 23.1875 75.875 
z
" id="DejaVuSans-40"/>
     <path d="M 37.796875 64.3125 
L 12.890625 25.390625 
L 37.796875 25.390625 
z
M 35.203125 72.90625 
L 47.609375 72.90625 
L 47.609375 25.390625 
L 58.015625 25.390625 
L 58.015625 17.1875 
L 47.609375 17.1875 
L 47.609375 0 
L 37.796875 0 
L 37.796875 17.1875 
L 4.890625 17.1875 
L 4.890625 26.703125 
z
" id="DejaVuSans-52"/>
     <path d="M 4.890625 31.390625 
L 31.203125 31.390625 
L 31.203125 23.390625 
L 4.890625 23.390625 
z
" id="DejaVuSans-45"/>
     <path d="M 8.015625 75.875 
L 15.828125 75.875 
Q 23.140625 64.359375 26.78125 53.3125 
Q 30.421875 42.28125 30.421875 31.390625 
Q 30.421875 20.453125 26.78125 9.375 
Q 23.140625 -1.703125 15.828125 -13.1875 
L 8.015625 -13.1875 
Q 14.5 -2 17.703125 9.0625 
Q 20.90625 20.125 20.90625 31.390625 
Q 20.90625 42.671875 17.703125 53.65625 
Q 14.5 64.65625 8.015625 75.875 
z
" id="DejaVuSans-41"/>
    </defs>
    <g style="fill:#262626;" transform="translate(120.363636 623.198437)scale(0.1 -0.1)">
     <use xlink:href="#DejaVuSans-49"/>
     <use x="63.623047" xlink:href="#DejaVuSans-32"/>
     <use x="95.410156" xlink:href="#DejaVuSans-40"/>
     <use x="134.423828" xlink:href="#DejaVuSans-50"/>
     <use x="198.046875" xlink:href="#DejaVuSans-48"/>
     <use x="261.669922" xlink:href="#DejaVuSans-49"/>
     <use x="325.292969" xlink:href="#DejaVuSans-52"/>
     <use x="388.916016" xlink:href="#DejaVuSans-45"/>
     <use x="425" xlink:href="#DejaVuSans-48"/>
     <use x="488.623047" xlink:href="#DejaVuSans-54"/>
     <use x="552.246094" xlink:href="#DejaVuSans-45"/>
     <use x="588.330078" xlink:href="#DejaVuSans-48"/>
     <use x="651.953125" xlink:href="#DejaVuSans-54"/>
     <use x="715.576172" xlink:href="#DejaVuSans-41"/>
    </g>
   </g>
   <g id="text_16">
    <!-- 3495 (2015-06-15) -->
    <g style="fill:#262626;" transform="translate(206.179118 572.79411)scale(0.1 -0.1)">
     <use xlink:href="#DejaVuSans-51"/>
     <use x="63.623047" xlink:href="#DejaVuSans-52"/>
     <use x="127.246094" xlink:href="#DejaVuSans-57"/>
     <use x="190.869141" xlink:href="#DejaVuSans-53"/>
     <use x="254.492188" xlink:href="#DejaVuSans-32"/>
     <use x="286.279297" xlink:href="#DejaVuSans-40"/>
     <use x="325.292969" xlink:href="#DejaVuSans-50"/>
     <use x="388.916016" xlink:href="#DejaVuSans-48"/>
     <use x="452.539062" xlink:href="#DejaVuSans-49"/>
     <use x="516.162109" xlink:href="#DejaVuSans-53"/>
     <use x="579.785156" xlink:href="#DejaVuSans-45"/>
     <use x="615.869141" xlink:href="#DejaVuSans-48"/>
     <use x="679.492188" xlink:href="#DejaVuSans-54"/>
     <use x="743.115234" xlink:href="#DejaVuSans-45"/>
     <use x="779.199219" xlink:href="#DejaVuSans-49"/>
     <use x="842.822266" xlink:href="#DejaVuSans-53"/>
     <use x="906.445312" xlink:href="#DejaVuSans-41"/>
    </g>
   </g>
   <g id="text_17">
    <!-- 6989 (2015-12-23) -->
    <g style="fill:#262626;" transform="translate(250.059213 522.389782)scale(0.1 -0.1)">
     <use xlink:href="#DejaVuSans-54"/>
     <use x="63.623047" xlink:href="#DejaVuSans-57"/>
     <use x="127.246094" xlink:href="#DejaVuSans-56"/>
     <use x="190.869141" xlink:href="#DejaVuSans-57"/>
     <use x="254.492188" xlink:href="#DejaVuSans-32"/>
     <use x="286.279297" xlink:href="#DejaVuSans-40"/>
     <use x="325.292969" xlink:href="#DejaVuSans-50"/>
     <use x="388.916016" xlink:href="#DejaVuSans-48"/>
     <use x="452.539062" xlink:href="#DejaVuSans-49"/>
     <use x="516.162109" xlink:href="#DejaVuSans-53"/>
     <use x="579.785156" xlink:href="#DejaVuSans-45"/>
     <use x="615.869141" xlink:href="#DejaVuSans-49"/>
     <use x="679.492188" xlink:href="#DejaVuSans-50"/>
     <use x="743.115234" xlink:href="#DejaVuSans-45"/>
     <use x="779.199219" xlink:href="#DejaVuSans-50"/>
     <use x="842.822266" xlink:href="#DejaVuSans-51"/>
     <use x="906.445312" xlink:href="#DejaVuSans-41"/>
    </g>
   </g>
   <g id="text_18">
    <!-- 10483 (2016-06-06) -->
    <g style="fill:#262626;" transform="translate(288.173537 471.985454)scale(0.1 -0.1)">
     <use xlink:href="#DejaVuSans-49"/>
     <use x="63.623047" xlink:href="#DejaVuSans-48"/>
     <use x="127.246094" xlink:href="#DejaVuSans-52"/>
     <use x="190.869141" xlink:href="#DejaVuSans-56"/>
     <use x="254.492188" xlink:href="#DejaVuSans-51"/>
     <use x="318.115234" xlink:href="#DejaVuSans-32"/>
     <use x="349.902344" xlink:href="#DejaVuSans-40"/>
     <use x="388.916016" xlink:href="#DejaVuSans-50"/>
     <use x="452.539062" xlink:href="#DejaVuSans-48"/>
     <use x="516.162109" xlink:href="#DejaVuSans-49"/>
     <use x="579.785156" xlink:href="#DejaVuSans-54"/>
     <use x="643.408203" xlink:href="#DejaVuSans-45"/>
     <use x="679.492188" xlink:href="#DejaVuSans-48"/>
     <use x="743.115234" xlink:href="#DejaVuSans-54"/>
     <use x="806.738281" xlink:href="#DejaVuSans-45"/>
     <use x="842.822266" xlink:href="#DejaVuSans-48"/>
     <use x="906.445312" xlink:href="#DejaVuSans-54"/>
     <use x="970.068359" xlink:href="#DejaVuSans-41"/>
    </g>
   </g>
   <g id="text_19">
    <!-- 13977 (2016-10-10) -->
    <g style="fill:#262626;" transform="translate(317.118872 421.581126)scale(0.1 -0.1)">
     <use xlink:href="#DejaVuSans-49"/>
     <use x="63.623047" xlink:href="#DejaVuSans-51"/>
     <use x="127.246094" xlink:href="#DejaVuSans-57"/>
     <use x="190.869141" xlink:href="#DejaVuSans-55"/>
     <use x="254.492188" xlink:href="#DejaVuSans-55"/>
     <use x="318.115234" xlink:href="#DejaVuSans-32"/>
     <use x="349.902344" xlink:href="#DejaVuSans-40"/>
     <use x="388.916016" xlink:href="#DejaVuSans-50"/>
     <use x="452.539062" xlink:href="#DejaVuSans-48"/>
     <use x="516.162109" xlink:href="#DejaVuSans-49"/>
     <use x="579.785156" xlink:href="#DejaVuSans-54"/>
     <use x="643.408203" xlink:href="#DejaVuSans-45"/>
     <use x="679.492188" xlink:href="#DejaVuSans-49"/>
     <use x="743.115234" xlink:href="#DejaVuSans-48"/>
     <use x="806.738281" xlink:href="#DejaVuSans-45"/>
     <use x="842.822266" xlink:href="#DejaVuSans-49"/>
     <use x="906.445312" xlink:href="#DejaVuSans-48"/>
     <use x="970.068359" xlink:href="#DejaVuSans-41"/>
    </g>
   </g>
   <g id="text_20">
    <!-- 17471 (2017-03-11) -->
    <g style="fill:#262626;" transform="translate(352.026447 371.176799)scale(0.1 -0.1)">
     <use xlink:href="#DejaVuSans-49"/>
     <use x="63.623047" xlink:href="#DejaVuSans-55"/>
     <use x="127.246094" xlink:href="#DejaVuSans-52"/>
     <use x="190.869141" xlink:href="#DejaVuSans-55"/>
     <use x="254.492188" xlink:href="#DejaVuSans-49"/>
     <use x="318.115234" xlink:href="#DejaVuSans-32"/>
     <use x="349.902344" xlink:href="#DejaVuSans-40"/>
     <use x="388.916016" xlink:href="#DejaVuSans-50"/>
     <use x="452.539062" xlink:href="#DejaVuSans-48"/>
     <use x="516.162109" xlink:href="#DejaVuSans-49"/>
     <use x="579.785156" xlink:href="#DejaVuSans-55"/>
     <use x="643.408203" xlink:href="#DejaVuSans-45"/>
     <use x="679.492188" xlink:href="#DejaVuSans-48"/>
     <use x="743.115234" xlink:href="#DejaVuSans-51"/>
     <use x="806.738281" xlink:href="#DejaVuSans-45"/>
     <use x="842.822266" xlink:href="#DejaVuSans-49"/>
     <use x="906.445312" xlink:href="#DejaVuSans-49"/>
     <use x="970.068359" xlink:href="#DejaVuSans-41"/>
    </g>
   </g>
   <g id="text_21">
    <!-- 20965 (2017-09-07) -->
    <g style="fill:#262626;" transform="translate(393.465438 320.772471)scale(0.1 -0.1)">
     <use xlink:href="#DejaVuSans-50"/>
     <use x="63.623047" xlink:href="#DejaVuSans-48"/>
     <use x="127.246094" xlink:href="#DejaVuSans-57"/>
     <use x="190.869141" xlink:href="#DejaVuSans-54"/>
     <use x="254.492188" xlink:href="#DejaVuSans-53"/>
     <use x="318.115234" xlink:href="#DejaVuSans-32"/>
     <use x="349.902344" xlink:href="#DejaVuSans-40"/>
     <use x="388.916016" xlink:href="#DejaVuSans-50"/>
     <use x="452.539062" xlink:href="#DejaVuSans-48"/>
     <use x="516.162109" xlink:href="#DejaVuSans-49"/>
     <use x="579.785156" xlink:href="#DejaVuSans-55"/>
     <use x="643.408203" xlink:href="#DejaVuSans-45"/>
     <use x="679.492188" xlink:href="#DejaVuSans-48"/>
     <use x="743.115234" xlink:href="#DejaVuSans-57"/>
     <use x="806.738281" xlink:href="#DejaVuSans-45"/>
     <use x="842.822266" xlink:href="#DejaVuSans-48"/>
     <use x="906.445312" xlink:href="#DejaVuSans-55"/>
     <use x="970.068359" xlink:href="#DejaVuSans-41"/>
    </g>
   </g>
   <g id="text_22">
    <!-- 24459 (2018-03-26) -->
    <g style="fill:#262626;" transform="translate(439.375808 270.368143)scale(0.1 -0.1)">
     <use xlink:href="#DejaVuSans-50"/>
     <use x="63.623047" xlink:href="#DejaVuSans-52"/>
     <use x="127.246094" xlink:href="#DejaVuSans-52"/>
     <use x="190.869141" xlink:href="#DejaVuSans-53"/>
     <use x="254.492188" xlink:href="#DejaVuSans-57"/>
     <use x="318.115234" xlink:href="#DejaVuSans-32"/>
     <use x="349.902344" xlink:href="#DejaVuSans-40"/>
     <use x="388.916016" xlink:href="#DejaVuSans-50"/>
     <use x="452.539062" xlink:href="#DejaVuSans-48"/>
     <use x="516.162109" xlink:href="#DejaVuSans-49"/>
     <use x="579.785156" xlink:href="#DejaVuSans-56"/>
     <use x="643.408203" xlink:href="#DejaVuSans-45"/>
     <use x="679.492188" xlink:href="#DejaVuSans-48"/>
     <use x="743.115234" xlink:href="#DejaVuSans-51"/>
     <use x="806.738281" xlink:href="#DejaVuSans-45"/>
     <use x="842.822266" xlink:href="#DejaVuSans-50"/>
     <use x="906.445312" xlink:href="#DejaVuSans-54"/>
     <use x="970.068359" xlink:href="#DejaVuSans-41"/>
    </g>
   </g>
   <g id="text_23">
    <!-- 27953 (2018-12-03) -->
    <g style="fill:#262626;" transform="translate(497.271689 219.963815)scale(0.1 -0.1)">
     <use xlink:href="#DejaVuSans-50"/>
     <use x="63.623047" xlink:href="#DejaVuSans-55"/>
     <use x="127.246094" xlink:href="#DejaVuSans-57"/>
     <use x="190.869141" xlink:href="#DejaVuSans-53"/>
     <use x="254.492188" xlink:href="#DejaVuSans-51"/>
     <use x="318.115234" xlink:href="#DejaVuSans-32"/>
     <use x="349.902344" xlink:href="#DejaVuSans-40"/>
     <use x="388.916016" xlink:href="#DejaVuSans-50"/>
     <use x="452.539062" xlink:href="#DejaVuSans-48"/>
     <use x="516.162109" xlink:href="#DejaVuSans-49"/>
     <use x="579.785156" xlink:href="#DejaVuSans-56"/>
     <use x="643.408203" xlink:href="#DejaVuSans-45"/>
     <use x="679.492188" xlink:href="#DejaVuSans-49"/>
     <use x="743.115234" xlink:href="#DejaVuSans-50"/>
     <use x="806.738281" xlink:href="#DejaVuSans-45"/>
     <use x="842.822266" xlink:href="#DejaVuSans-48"/>
     <use x="906.445312" xlink:href="#DejaVuSans-51"/>
     <use x="970.068359" xlink:href="#DejaVuSans-41"/>
    </g>
   </g>
   <g id="text_24">
    <!-- 31446 (2019-09-06) -->
    <g style="fill:#262626;" transform="translate(560.7457 169.573913)scale(0.1 -0.1)">
     <use xlink:href="#DejaVuSans-51"/>
     <use x="63.623047" xlink:href="#DejaVuSans-49"/>
     <use x="127.246094" xlink:href="#DejaVuSans-52"/>
     <use x="190.869141" xlink:href="#DejaVuSans-52"/>
     <use x="254.492188" xlink:href="#DejaVuSans-54"/>
     <use x="318.115234" xlink:href="#DejaVuSans-32"/>
     <use x="349.902344" xlink:href="#DejaVuSans-40"/>
     <use x="388.916016" xlink:href="#DejaVuSans-50"/>
     <use x="452.539062" xlink:href="#DejaVuSans-48"/>
     <use x="516.162109" xlink:href="#DejaVuSans-49"/>
     <use x="579.785156" xlink:href="#DejaVuSans-57"/>
     <use x="643.408203" xlink:href="#DejaVuSans-45"/>
     <use x="679.492188" xlink:href="#DejaVuSans-48"/>
     <use x="743.115234" xlink:href="#DejaVuSans-57"/>
     <use x="806.738281" xlink:href="#DejaVuSans-45"/>
     <use x="842.822266" xlink:href="#DejaVuSans-48"/>
     <use x="906.445312" xlink:href="#DejaVuSans-54"/>
     <use x="970.068359" xlink:href="#DejaVuSans-41"/>
    </g>
   </g>
   <g id="text_25">
    <!-- 34938 (2020-06-23) -->
    <g style="fill:#262626;" transform="translate(627.636364 119.198437)scale(0.1 -0.1)">
     <use xlink:href="#DejaVuSans-51"/>
     <use x="63.623047" xlink:href="#DejaVuSans-52"/>
     <use x="127.246094" xlink:href="#DejaVuSans-57"/>
     <use x="190.869141" xlink:href="#DejaVuSans-51"/>
     <use x="254.492188" xlink:href="#DejaVuSans-56"/>
     <use x="318.115234" xlink:href="#DejaVuSans-32"/>
     <use x="349.902344" xlink:href="#DejaVuSans-40"/>
     <use x="388.916016" xlink:href="#DejaVuSans-50"/>
     <use x="452.539062" xlink:href="#DejaVuSans-48"/>
     <use x="516.162109" xlink:href="#DejaVuSans-50"/>
     <use x="579.785156" xlink:href="#DejaVuSans-48"/>
     <use x="643.408203" xlink:href="#DejaVuSans-45"/>
     <use x="679.492188" xlink:href="#DejaVuSans-48"/>
     <use x="743.115234" xlink:href="#DejaVuSans-54"/>
     <use x="806.738281" xlink:href="#DejaVuSans-45"/>
     <use x="842.822266" xlink:href="#DejaVuSans-50"/>
     <use x="906.445312" xlink:href="#DejaVuSans-51"/>
     <use x="970.068359" xlink:href="#DejaVuSans-41"/>
    </g>
   </g>
   <g id="text_26">
    <!-- Created issues over time -->
    <defs>
     <path d="M 64.40625 67.28125 
L 64.40625 56.890625 
Q 59.421875 61.53125 53.78125 63.8125 
Q 48.140625 66.109375 41.796875 66.109375 
Q 29.296875 66.109375 22.65625 58.46875 
Q 16.015625 50.828125 16.015625 36.375 
Q 16.015625 21.96875 22.65625 14.328125 
Q 29.296875 6.6875 41.796875 6.6875 
Q 48.140625 6.6875 53.78125 8.984375 
Q 59.421875 11.28125 64.40625 15.921875 
L 64.40625 5.609375 
Q 59.234375 2.09375 53.4375 0.328125 
Q 47.65625 -1.421875 41.21875 -1.421875 
Q 24.65625 -1.421875 15.125 8.703125 
Q 5.609375 18.84375 5.609375 36.375 
Q 5.609375 53.953125 15.125 64.078125 
Q 24.65625 74.21875 41.21875 74.21875 
Q 47.75 74.21875 53.53125 72.484375 
Q 59.328125 70.75 64.40625 67.28125 
z
" id="DejaVuSans-67"/>
     <path d="M 41.109375 46.296875 
Q 39.59375 47.171875 37.8125 47.578125 
Q 36.03125 48 33.890625 48 
Q 26.265625 48 22.1875 43.046875 
Q 18.109375 38.09375 18.109375 28.8125 
L 18.109375 0 
L 9.078125 0 
L 9.078125 54.6875 
L 18.109375 54.6875 
L 18.109375 46.1875 
Q 20.953125 51.171875 25.484375 53.578125 
Q 30.03125 56 36.53125 56 
Q 37.453125 56 38.578125 55.875 
Q 39.703125 55.765625 41.0625 55.515625 
z
" id="DejaVuSans-114"/>
     <path d="M 56.203125 29.59375 
L 56.203125 25.203125 
L 14.890625 25.203125 
Q 15.484375 15.921875 20.484375 11.0625 
Q 25.484375 6.203125 34.421875 6.203125 
Q 39.59375 6.203125 44.453125 7.46875 
Q 49.3125 8.734375 54.109375 11.28125 
L 54.109375 2.78125 
Q 49.265625 0.734375 44.1875 -0.34375 
Q 39.109375 -1.421875 33.890625 -1.421875 
Q 20.796875 -1.421875 13.15625 6.1875 
Q 5.515625 13.8125 5.515625 26.8125 
Q 5.515625 40.234375 12.765625 48.109375 
Q 20.015625 56 32.328125 56 
Q 43.359375 56 49.78125 48.890625 
Q 56.203125 41.796875 56.203125 29.59375 
z
M 47.21875 32.234375 
Q 47.125 39.59375 43.09375 43.984375 
Q 39.0625 48.390625 32.421875 48.390625 
Q 24.90625 48.390625 20.390625 44.140625 
Q 15.875 39.890625 15.1875 32.171875 
z
" id="DejaVuSans-101"/>
     <path d="M 34.28125 27.484375 
Q 23.390625 27.484375 19.1875 25 
Q 14.984375 22.515625 14.984375 16.5 
Q 14.984375 11.71875 18.140625 8.90625 
Q 21.296875 6.109375 26.703125 6.109375 
Q 34.1875 6.109375 38.703125 11.40625 
Q 43.21875 16.703125 43.21875 25.484375 
L 43.21875 27.484375 
z
M 52.203125 31.203125 
L 52.203125 0 
L 43.21875 0 
L 43.21875 8.296875 
Q 40.140625 3.328125 35.546875 0.953125 
Q 30.953125 -1.421875 24.3125 -1.421875 
Q 15.921875 -1.421875 10.953125 3.296875 
Q 6 8.015625 6 15.921875 
Q 6 25.140625 12.171875 29.828125 
Q 18.359375 34.515625 30.609375 34.515625 
L 43.21875 34.515625 
L 43.21875 35.40625 
Q 43.21875 41.609375 39.140625 45 
Q 35.0625 48.390625 27.6875 48.390625 
Q 23 48.390625 18.546875 47.265625 
Q 14.109375 46.140625 10.015625 43.890625 
L 10.015625 52.203125 
Q 14.9375 54.109375 19.578125 55.046875 
Q 24.21875 56 28.609375 56 
Q 40.484375 56 46.34375 49.84375 
Q 52.203125 43.703125 52.203125 31.203125 
z
" id="DejaVuSans-97"/>
     <path d="M 18.3125 70.21875 
L 18.3125 54.6875 
L 36.8125 54.6875 
L 36.8125 47.703125 
L 18.3125 47.703125 
L 18.3125 18.015625 
Q 18.3125 11.328125 20.140625 9.421875 
Q 21.96875 7.515625 27.59375 7.515625 
L 36.8125 7.515625 
L 36.8125 0 
L 27.59375 0 
Q 17.1875 0 13.234375 3.875 
Q 9.28125 7.765625 9.28125 18.015625 
L 9.28125 47.703125 
L 2.6875 47.703125 
L 2.6875 54.6875 
L 9.28125 54.6875 
L 9.28125 70.21875 
z
" id="DejaVuSans-116"/>
     <path d="M 45.40625 46.390625 
L 45.40625 75.984375 
L 54.390625 75.984375 
L 54.390625 0 
L 45.40625 0 
L 45.40625 8.203125 
Q 42.578125 3.328125 38.25 0.953125 
Q 33.9375 -1.421875 27.875 -1.421875 
Q 17.96875 -1.421875 11.734375 6.484375 
Q 5.515625 14.40625 5.515625 27.296875 
Q 5.515625 40.1875 11.734375 48.09375 
Q 17.96875 56 27.875 56 
Q 33.9375 56 38.25 53.625 
Q 42.578125 51.265625 45.40625 46.390625 
z
M 14.796875 27.296875 
Q 14.796875 17.390625 18.875 11.75 
Q 22.953125 6.109375 30.078125 6.109375 
Q 37.203125 6.109375 41.296875 11.75 
Q 45.40625 17.390625 45.40625 27.296875 
Q 45.40625 37.203125 41.296875 42.84375 
Q 37.203125 48.484375 30.078125 48.484375 
Q 22.953125 48.484375 18.875 42.84375 
Q 14.796875 37.203125 14.796875 27.296875 
z
" id="DejaVuSans-100"/>
     <path d="M 9.421875 54.6875 
L 18.40625 54.6875 
L 18.40625 0 
L 9.421875 0 
z
M 9.421875 75.984375 
L 18.40625 75.984375 
L 18.40625 64.59375 
L 9.421875 64.59375 
z
" id="DejaVuSans-105"/>
     <path d="M 44.28125 53.078125 
L 44.28125 44.578125 
Q 40.484375 46.53125 36.375 47.5 
Q 32.28125 48.484375 27.875 48.484375 
Q 21.1875 48.484375 17.84375 46.4375 
Q 14.5 44.390625 14.5 40.28125 
Q 14.5 37.15625 16.890625 35.375 
Q 19.28125 33.59375 26.515625 31.984375 
L 29.59375 31.296875 
Q 39.15625 29.25 43.1875 25.515625 
Q 47.21875 21.78125 47.21875 15.09375 
Q 47.21875 7.46875 41.1875 3.015625 
Q 35.15625 -1.421875 24.609375 -1.421875 
Q 20.21875 -1.421875 15.453125 -0.5625 
Q 10.6875 0.296875 5.421875 2 
L 5.421875 11.28125 
Q 10.40625 8.6875 15.234375 7.390625 
Q 20.0625 6.109375 24.8125 6.109375 
Q 31.15625 6.109375 34.5625 8.28125 
Q 37.984375 10.453125 37.984375 14.40625 
Q 37.984375 18.0625 35.515625 20.015625 
Q 33.0625 21.96875 24.703125 23.78125 
L 21.578125 24.515625 
Q 13.234375 26.265625 9.515625 29.90625 
Q 5.8125 33.546875 5.8125 39.890625 
Q 5.8125 47.609375 11.28125 51.796875 
Q 16.75 56 26.8125 56 
Q 31.78125 56 36.171875 55.265625 
Q 40.578125 54.546875 44.28125 53.078125 
z
" id="DejaVuSans-115"/>
     <path d="M 8.5 21.578125 
L 8.5 54.6875 
L 17.484375 54.6875 
L 17.484375 21.921875 
Q 17.484375 14.15625 20.5 10.265625 
Q 23.53125 6.390625 29.59375 6.390625 
Q 36.859375 6.390625 41.078125 11.03125 
Q 45.3125 15.671875 45.3125 23.6875 
L 45.3125 54.6875 
L 54.296875 54.6875 
L 54.296875 0 
L 45.3125 0 
L 45.3125 8.40625 
Q 42.046875 3.421875 37.71875 1 
Q 33.40625 -1.421875 27.6875 -1.421875 
Q 18.265625 -1.421875 13.375 4.4375 
Q 8.5 10.296875 8.5 21.578125 
z
M 31.109375 56 
z
" id="DejaVuSans-117"/>
     <path d="M 30.609375 48.390625 
Q 23.390625 48.390625 19.1875 42.75 
Q 14.984375 37.109375 14.984375 27.296875 
Q 14.984375 17.484375 19.15625 11.84375 
Q 23.34375 6.203125 30.609375 6.203125 
Q 37.796875 6.203125 41.984375 11.859375 
Q 46.1875 17.53125 46.1875 27.296875 
Q 46.1875 37.015625 41.984375 42.703125 
Q 37.796875 48.390625 30.609375 48.390625 
z
M 30.609375 56 
Q 42.328125 56 49.015625 48.375 
Q 55.71875 40.765625 55.71875 27.296875 
Q 55.71875 13.875 49.015625 6.21875 
Q 42.328125 -1.421875 30.609375 -1.421875 
Q 18.84375 -1.421875 12.171875 6.21875 
Q 5.515625 13.875 5.515625 27.296875 
Q 5.515625 40.765625 12.171875 48.375 
Q 18.84375 56 30.609375 56 
z
" id="DejaVuSans-111"/>
     <path d="M 2.984375 54.6875 
L 12.5 54.6875 
L 29.59375 8.796875 
L 46.6875 54.6875 
L 56.203125 54.6875 
L 35.6875 0 
L 23.484375 0 
z
" id="DejaVuSans-118"/>
     <path d="M 52 44.1875 
Q 55.375 50.25 60.0625 53.125 
Q 64.75 56 71.09375 56 
Q 79.640625 56 84.28125 50.015625 
Q 88.921875 44.046875 88.921875 33.015625 
L 88.921875 0 
L 79.890625 0 
L 79.890625 32.71875 
Q 79.890625 40.578125 77.09375 44.375 
Q 74.3125 48.1875 68.609375 48.1875 
Q 61.625 48.1875 57.5625 43.546875 
Q 53.515625 38.921875 53.515625 30.90625 
L 53.515625 0 
L 44.484375 0 
L 44.484375 32.71875 
Q 44.484375 40.625 41.703125 44.40625 
Q 38.921875 48.1875 33.109375 48.1875 
Q 26.21875 48.1875 22.15625 43.53125 
Q 18.109375 38.875 18.109375 30.90625 
L 18.109375 0 
L 9.078125 0 
L 9.078125 54.6875 
L 18.109375 54.6875 
L 18.109375 46.1875 
Q 21.1875 51.21875 25.484375 53.609375 
Q 29.78125 56 35.6875 56 
Q 41.65625 56 45.828125 52.96875 
Q 50 49.953125 52 44.1875 
z
" id="DejaVuSans-109"/>
    </defs>
    <g style="fill:#262626;" transform="translate(294.061875 80.4)scale(0.12 -0.12)">
     <use xlink:href="#DejaVuSans-67"/>
     <use x="69.824219" xlink:href="#DejaVuSans-114"/>
     <use x="108.6875" xlink:href="#DejaVuSans-101"/>
     <use x="170.210938" xlink:href="#DejaVuSans-97"/>
     <use x="231.490234" xlink:href="#DejaVuSans-116"/>
     <use x="270.699219" xlink:href="#DejaVuSans-101"/>
     <use x="332.222656" xlink:href="#DejaVuSans-100"/>
     <use x="395.699219" xlink:href="#DejaVuSans-32"/>
     <use x="427.486328" xlink:href="#DejaVuSans-105"/>
     <use x="455.269531" xlink:href="#DejaVuSans-115"/>
     <use x="507.369141" xlink:href="#DejaVuSans-115"/>
     <use x="559.46875" xlink:href="#DejaVuSans-117"/>
     <use x="622.847656" xlink:href="#DejaVuSans-101"/>
     <use x="684.371094" xlink:href="#DejaVuSans-115"/>
     <use x="736.470703" xlink:href="#DejaVuSans-32"/>
     <use x="768.257812" xlink:href="#DejaVuSans-111"/>
     <use x="829.439453" xlink:href="#DejaVuSans-118"/>
     <use x="888.619141" xlink:href="#DejaVuSans-101"/>
     <use x="950.142578" xlink:href="#DejaVuSans-114"/>
     <use x="991.255859" xlink:href="#DejaVuSans-32"/>
     <use x="1023.042969" xlink:href="#DejaVuSans-116"/>
     <use x="1062.251953" xlink:href="#DejaVuSans-105"/>
     <use x="1090.035156" xlink:href="#DejaVuSans-109"/>
     <use x="1187.447266" xlink:href="#DejaVuSans-101"/>
    </g>
   </g>
  </g>
 </g>
 <defs>
  <clipPath id="p9c16dbf080">
   <rect height="554.4" width="558" x="90" y="86.4"/>
  </clipPath>
 </defs>
</svg>
