<?xml version="1.0" encoding="utf-8" standalone="no"?>
<!DOCTYPE svg PUBLIC "-//W3C//DTD SVG 1.1//EN"
  "http://www.w3.org/Graphics/SVG/1.1/DTD/svg11.dtd">
<!-- Created with matplotlib (https://matplotlib.org/) -->
<svg height="720pt" version="1.1" viewBox="0 0 720 720" width="720pt" xmlns="http://www.w3.org/2000/svg" xmlns:xlink="http://www.w3.org/1999/xlink">
 <defs>
  <style type="text/css">
*{stroke-linecap:butt;stroke-linejoin:round;}
  </style>
 </defs>
 <g id="figure_1">
  <g id="patch_1">
   <path d="M 0 720 
L 720 720 
L 720 0 
L 0 0 
z
" style="fill:#ffffff;"/>
  </g>
  <g id="axes_1">
   <g id="patch_2">
    <path d="M 90 640.8 
L 648 640.8 
L 648 86.4 
L 90 86.4 
z
" style="fill:#ffffff;"/>
   </g>
   <g id="matplotlib.axis_1">
    <g id="xtick_1">
     <g id="line2d_1">
      <path clip-path="url(#pd4a0674f3e)" d="M 163.732002 640.8 
L 163.732002 86.4 
" style="fill:none;stroke:#cccccc;stroke-linecap:round;stroke-width:0.8;"/>
     </g>
     <g id="line2d_2"/>
     <g id="text_1">
      <!-- 2015 -->
      <defs>
       <path d="M 19.1875 8.296875 
L 53.609375 8.296875 
L 53.609375 0 
L 7.328125 0 
L 7.328125 8.296875 
Q 12.9375 14.109375 22.625 23.890625 
Q 32.328125 33.6875 34.8125 36.53125 
Q 39.546875 41.84375 41.421875 45.53125 
Q 43.3125 49.21875 43.3125 52.78125 
Q 43.3125 58.59375 39.234375 62.25 
Q 35.15625 65.921875 28.609375 65.921875 
Q 23.96875 65.921875 18.8125 64.3125 
Q 13.671875 62.703125 7.8125 59.421875 
L 7.8125 69.390625 
Q 13.765625 71.78125 18.9375 73 
Q 24.125 74.21875 28.421875 74.21875 
Q 39.75 74.21875 46.484375 68.546875 
Q 53.21875 62.890625 53.21875 53.421875 
Q 53.21875 48.921875 51.53125 44.890625 
Q 49.859375 40.875 45.40625 35.40625 
Q 44.1875 33.984375 37.640625 27.21875 
Q 31.109375 20.453125 19.1875 8.296875 
z
" id="DejaVuSans-50"/>
       <path d="M 31.78125 66.40625 
Q 24.171875 66.40625 20.328125 58.90625 
Q 16.5 51.421875 16.5 36.375 
Q 16.5 21.390625 20.328125 13.890625 
Q 24.171875 6.390625 31.78125 6.390625 
Q 39.453125 6.390625 43.28125 13.890625 
Q 47.125 21.390625 47.125 36.375 
Q 47.125 51.421875 43.28125 58.90625 
Q 39.453125 66.40625 31.78125 66.40625 
z
M 31.78125 74.21875 
Q 44.046875 74.21875 50.515625 64.515625 
Q 56.984375 54.828125 56.984375 36.375 
Q 56.984375 17.96875 50.515625 8.265625 
Q 44.046875 -1.421875 31.78125 -1.421875 
Q 19.53125 -1.421875 13.0625 8.265625 
Q 6.59375 17.96875 6.59375 36.375 
Q 6.59375 54.828125 13.0625 64.515625 
Q 19.53125 74.21875 31.78125 74.21875 
z
" id="DejaVuSans-48"/>
       <path d="M 12.40625 8.296875 
L 28.515625 8.296875 
L 28.515625 63.921875 
L 10.984375 60.40625 
L 10.984375 69.390625 
L 28.421875 72.90625 
L 38.28125 72.90625 
L 38.28125 8.296875 
L 54.390625 8.296875 
L 54.390625 0 
L 12.40625 0 
z
" id="DejaVuSans-49"/>
       <path d="M 10.796875 72.90625 
L 49.515625 72.90625 
L 49.515625 64.59375 
L 19.828125 64.59375 
L 19.828125 46.734375 
Q 21.96875 47.46875 24.109375 47.828125 
Q 26.265625 48.1875 28.421875 48.1875 
Q 40.625 48.1875 47.75 41.5 
Q 54.890625 34.8125 54.890625 23.390625 
Q 54.890625 11.625 47.5625 5.09375 
Q 40.234375 -1.421875 26.90625 -1.421875 
Q 22.3125 -1.421875 17.546875 -0.640625 
Q 12.796875 0.140625 7.71875 1.703125 
L 7.71875 11.625 
Q 12.109375 9.234375 16.796875 8.0625 
Q 21.484375 6.890625 26.703125 6.890625 
Q 35.15625 6.890625 40.078125 11.328125 
Q 45.015625 15.765625 45.015625 23.390625 
Q 45.015625 31 40.078125 35.4375 
Q 35.15625 39.890625 26.703125 39.890625 
Q 22.75 39.890625 18.8125 39.015625 
Q 14.890625 38.140625 10.796875 36.28125 
z
" id="DejaVuSans-53"/>
      </defs>
      <g style="fill:#262626;" transform="translate(151.007002 651.898438)scale(0.1 -0.1)">
       <use xlink:href="#DejaVuSans-50"/>
       <use x="63.623047" xlink:href="#DejaVuSans-48"/>
       <use x="127.246094" xlink:href="#DejaVuSans-49"/>
       <use x="190.869141" xlink:href="#DejaVuSans-53"/>
      </g>
     </g>
    </g>
    <g id="xtick_2">
     <g id="line2d_3">
      <path clip-path="url(#pd4a0674f3e)" d="M 248.607151 640.8 
L 248.607151 86.4 
" style="fill:none;stroke:#cccccc;stroke-linecap:round;stroke-width:0.8;"/>
     </g>
     <g id="line2d_4"/>
     <g id="text_2">
      <!-- 2016 -->
      <defs>
       <path d="M 33.015625 40.375 
Q 26.375 40.375 22.484375 35.828125 
Q 18.609375 31.296875 18.609375 23.390625 
Q 18.609375 15.53125 22.484375 10.953125 
Q 26.375 6.390625 33.015625 6.390625 
Q 39.65625 6.390625 43.53125 10.953125 
Q 47.40625 15.53125 47.40625 23.390625 
Q 47.40625 31.296875 43.53125 35.828125 
Q 39.65625 40.375 33.015625 40.375 
z
M 52.59375 71.296875 
L 52.59375 62.3125 
Q 48.875 64.0625 45.09375 64.984375 
Q 41.3125 65.921875 37.59375 65.921875 
Q 27.828125 65.921875 22.671875 59.328125 
Q 17.53125 52.734375 16.796875 39.40625 
Q 19.671875 43.65625 24.015625 45.921875 
Q 28.375 48.1875 33.59375 48.1875 
Q 44.578125 48.1875 50.953125 41.515625 
Q 57.328125 34.859375 57.328125 23.390625 
Q 57.328125 12.15625 50.6875 5.359375 
Q 44.046875 -1.421875 33.015625 -1.421875 
Q 20.359375 -1.421875 13.671875 8.265625 
Q 6.984375 17.96875 6.984375 36.375 
Q 6.984375 53.65625 15.1875 63.9375 
Q 23.390625 74.21875 37.203125 74.21875 
Q 40.921875 74.21875 44.703125 73.484375 
Q 48.484375 72.75 52.59375 71.296875 
z
" id="DejaVuSans-54"/>
      </defs>
      <g style="fill:#262626;" transform="translate(235.882151 651.898438)scale(0.1 -0.1)">
       <use xlink:href="#DejaVuSans-50"/>
       <use x="63.623047" xlink:href="#DejaVuSans-48"/>
       <use x="127.246094" xlink:href="#DejaVuSans-49"/>
       <use x="190.869141" xlink:href="#DejaVuSans-54"/>
      </g>
     </g>
    </g>
    <g id="xtick_3">
     <g id="line2d_5">
      <path clip-path="url(#pd4a0674f3e)" d="M 333.714835 640.8 
L 333.714835 86.4 
" style="fill:none;stroke:#cccccc;stroke-linecap:round;stroke-width:0.8;"/>
     </g>
     <g id="line2d_6"/>
     <g id="text_3">
      <!-- 2017 -->
      <defs>
       <path d="M 8.203125 72.90625 
L 55.078125 72.90625 
L 55.078125 68.703125 
L 28.609375 0 
L 18.3125 0 
L 43.21875 64.59375 
L 8.203125 64.59375 
z
" id="DejaVuSans-55"/>
      </defs>
      <g style="fill:#262626;" transform="translate(320.989835 651.898438)scale(0.1 -0.1)">
       <use xlink:href="#DejaVuSans-50"/>
       <use x="63.623047" xlink:href="#DejaVuSans-48"/>
       <use x="127.246094" xlink:href="#DejaVuSans-49"/>
       <use x="190.869141" xlink:href="#DejaVuSans-55"/>
      </g>
     </g>
    </g>
    <g id="xtick_4">
     <g id="line2d_7">
      <path clip-path="url(#pd4a0674f3e)" d="M 418.589984 640.8 
L 418.589984 86.4 
" style="fill:none;stroke:#cccccc;stroke-linecap:round;stroke-width:0.8;"/>
     </g>
     <g id="line2d_8"/>
     <g id="text_4">
      <!-- 2018 -->
      <defs>
       <path d="M 31.78125 34.625 
Q 24.75 34.625 20.71875 30.859375 
Q 16.703125 27.09375 16.703125 20.515625 
Q 16.703125 13.921875 20.71875 10.15625 
Q 24.75 6.390625 31.78125 6.390625 
Q 38.8125 6.390625 42.859375 10.171875 
Q 46.921875 13.96875 46.921875 20.515625 
Q 46.921875 27.09375 42.890625 30.859375 
Q 38.875 34.625 31.78125 34.625 
z
M 21.921875 38.8125 
Q 15.578125 40.375 12.03125 44.71875 
Q 8.5 49.078125 8.5 55.328125 
Q 8.5 64.0625 14.71875 69.140625 
Q 20.953125 74.21875 31.78125 74.21875 
Q 42.671875 74.21875 48.875 69.140625 
Q 55.078125 64.0625 55.078125 55.328125 
Q 55.078125 49.078125 51.53125 44.71875 
Q 48 40.375 41.703125 38.8125 
Q 48.828125 37.15625 52.796875 32.3125 
Q 56.78125 27.484375 56.78125 20.515625 
Q 56.78125 9.90625 50.3125 4.234375 
Q 43.84375 -1.421875 31.78125 -1.421875 
Q 19.734375 -1.421875 13.25 4.234375 
Q 6.78125 9.90625 6.78125 20.515625 
Q 6.78125 27.484375 10.78125 32.3125 
Q 14.796875 37.15625 21.921875 38.8125 
z
M 18.3125 54.390625 
Q 18.3125 48.734375 21.84375 45.5625 
Q 25.390625 42.390625 31.78125 42.390625 
Q 38.140625 42.390625 41.71875 45.5625 
Q 45.3125 48.734375 45.3125 54.390625 
Q 45.3125 60.0625 41.71875 63.234375 
Q 38.140625 66.40625 31.78125 66.40625 
Q 25.390625 66.40625 21.84375 63.234375 
Q 18.3125 60.0625 18.3125 54.390625 
z
" id="DejaVuSans-56"/>
      </defs>
      <g style="fill:#262626;" transform="translate(405.864984 651.898438)scale(0.1 -0.1)">
       <use xlink:href="#DejaVuSans-50"/>
       <use x="63.623047" xlink:href="#DejaVuSans-48"/>
       <use x="127.246094" xlink:href="#DejaVuSans-49"/>
       <use x="190.869141" xlink:href="#DejaVuSans-56"/>
      </g>
     </g>
    </g>
    <g id="xtick_5">
     <g id="line2d_9">
      <path clip-path="url(#pd4a0674f3e)" d="M 503.465133 640.8 
L 503.465133 86.4 
" style="fill:none;stroke:#cccccc;stroke-linecap:round;stroke-width:0.8;"/>
     </g>
     <g id="line2d_10"/>
     <g id="text_5">
      <!-- 2019 -->
      <defs>
       <path d="M 10.984375 1.515625 
L 10.984375 10.5 
Q 14.703125 8.734375 18.5 7.8125 
Q 22.3125 6.890625 25.984375 6.890625 
Q 35.75 6.890625 40.890625 13.453125 
Q 46.046875 20.015625 46.78125 33.40625 
Q 43.953125 29.203125 39.59375 26.953125 
Q 35.25 24.703125 29.984375 24.703125 
Q 19.046875 24.703125 12.671875 31.3125 
Q 6.296875 37.9375 6.296875 49.421875 
Q 6.296875 60.640625 12.9375 67.421875 
Q 19.578125 74.21875 30.609375 74.21875 
Q 43.265625 74.21875 49.921875 64.515625 
Q 56.59375 54.828125 56.59375 36.375 
Q 56.59375 19.140625 48.40625 8.859375 
Q 40.234375 -1.421875 26.421875 -1.421875 
Q 22.703125 -1.421875 18.890625 -0.6875 
Q 15.09375 0.046875 10.984375 1.515625 
z
M 30.609375 32.421875 
Q 37.25 32.421875 41.125 36.953125 
Q 45.015625 41.5 45.015625 49.421875 
Q 45.015625 57.28125 41.125 61.84375 
Q 37.25 66.40625 30.609375 66.40625 
Q 23.96875 66.40625 20.09375 61.84375 
Q 16.21875 57.28125 16.21875 49.421875 
Q 16.21875 41.5 20.09375 36.953125 
Q 23.96875 32.421875 30.609375 32.421875 
z
" id="DejaVuSans-57"/>
      </defs>
      <g style="fill:#262626;" transform="translate(490.740133 651.898438)scale(0.1 -0.1)">
       <use xlink:href="#DejaVuSans-50"/>
       <use x="63.623047" xlink:href="#DejaVuSans-48"/>
       <use x="127.246094" xlink:href="#DejaVuSans-49"/>
       <use x="190.869141" xlink:href="#DejaVuSans-57"/>
      </g>
     </g>
    </g>
    <g id="xtick_6">
     <g id="line2d_11">
      <path clip-path="url(#pd4a0674f3e)" d="M 588.340283 640.8 
L 588.340283 86.4 
" style="fill:none;stroke:#cccccc;stroke-linecap:round;stroke-width:0.8;"/>
     </g>
     <g id="line2d_12"/>
     <g id="text_6">
      <!-- 2020 -->
      <g style="fill:#262626;" transform="translate(575.615283 651.898438)scale(0.1 -0.1)">
       <use xlink:href="#DejaVuSans-50"/>
       <use x="63.623047" xlink:href="#DejaVuSans-48"/>
       <use x="127.246094" xlink:href="#DejaVuSans-50"/>
       <use x="190.869141" xlink:href="#DejaVuSans-48"/>
      </g>
     </g>
    </g>
   </g>
   <g id="matplotlib.axis_2">
    <g id="ytick_1">
     <g id="line2d_13">
      <path clip-path="url(#pd4a0674f3e)" d="M 90 615.614568 
L 648 615.614568 
" style="fill:none;stroke:#cccccc;stroke-linecap:round;stroke-width:0.8;"/>
     </g>
     <g id="line2d_14"/>
     <g id="text_7">
      <!-- 0 -->
      <g style="fill:#262626;" transform="translate(80.1375 619.413787)scale(0.1 -0.1)">
       <use xlink:href="#DejaVuSans-48"/>
      </g>
     </g>
    </g>
    <g id="ytick_2">
     <g id="line2d_15">
      <path clip-path="url(#pd4a0674f3e)" d="M 90 542.773777 
L 648 542.773777 
" style="fill:none;stroke:#cccccc;stroke-linecap:round;stroke-width:0.8;"/>
     </g>
     <g id="line2d_16"/>
     <g id="text_8">
      <!-- 5000 -->
      <g style="fill:#262626;" transform="translate(61.05 546.572996)scale(0.1 -0.1)">
       <use xlink:href="#DejaVuSans-53"/>
       <use x="63.623047" xlink:href="#DejaVuSans-48"/>
       <use x="127.246094" xlink:href="#DejaVuSans-48"/>
       <use x="190.869141" xlink:href="#DejaVuSans-48"/>
      </g>
     </g>
    </g>
    <g id="ytick_3">
     <g id="line2d_17">
      <path clip-path="url(#pd4a0674f3e)" d="M 90 469.932986 
L 648 469.932986 
" style="fill:none;stroke:#cccccc;stroke-linecap:round;stroke-width:0.8;"/>
     </g>
     <g id="line2d_18"/>
     <g id="text_9">
      <!-- 10000 -->
      <g style="fill:#262626;" transform="translate(54.6875 473.732205)scale(0.1 -0.1)">
       <use xlink:href="#DejaVuSans-49"/>
       <use x="63.623047" xlink:href="#DejaVuSans-48"/>
       <use x="127.246094" xlink:href="#DejaVuSans-48"/>
       <use x="190.869141" xlink:href="#DejaVuSans-48"/>
       <use x="254.492188" xlink:href="#DejaVuSans-48"/>
      </g>
     </g>
    </g>
    <g id="ytick_4">
     <g id="line2d_19">
      <path clip-path="url(#pd4a0674f3e)" d="M 90 397.092196 
L 648 397.092196 
" style="fill:none;stroke:#cccccc;stroke-linecap:round;stroke-width:0.8;"/>
     </g>
     <g id="line2d_20"/>
     <g id="text_10">
      <!-- 15000 -->
      <g style="fill:#262626;" transform="translate(54.6875 400.891414)scale(0.1 -0.1)">
       <use xlink:href="#DejaVuSans-49"/>
       <use x="63.623047" xlink:href="#DejaVuSans-53"/>
       <use x="127.246094" xlink:href="#DejaVuSans-48"/>
       <use x="190.869141" xlink:href="#DejaVuSans-48"/>
       <use x="254.492188" xlink:href="#DejaVuSans-48"/>
      </g>
     </g>
    </g>
    <g id="ytick_5">
     <g id="line2d_21">
      <path clip-path="url(#pd4a0674f3e)" d="M 90 324.251405 
L 648 324.251405 
" style="fill:none;stroke:#cccccc;stroke-linecap:round;stroke-width:0.8;"/>
     </g>
     <g id="line2d_22"/>
     <g id="text_11">
      <!-- 20000 -->
      <g style="fill:#262626;" transform="translate(54.6875 328.050624)scale(0.1 -0.1)">
       <use xlink:href="#DejaVuSans-50"/>
       <use x="63.623047" xlink:href="#DejaVuSans-48"/>
       <use x="127.246094" xlink:href="#DejaVuSans-48"/>
       <use x="190.869141" xlink:href="#DejaVuSans-48"/>
       <use x="254.492188" xlink:href="#DejaVuSans-48"/>
      </g>
     </g>
    </g>
    <g id="ytick_6">
     <g id="line2d_23">
      <path clip-path="url(#pd4a0674f3e)" d="M 90 251.410614 
L 648 251.410614 
" style="fill:none;stroke:#cccccc;stroke-linecap:round;stroke-width:0.8;"/>
     </g>
     <g id="line2d_24"/>
     <g id="text_12">
      <!-- 25000 -->
      <g style="fill:#262626;" transform="translate(54.6875 255.209833)scale(0.1 -0.1)">
       <use xlink:href="#DejaVuSans-50"/>
       <use x="63.623047" xlink:href="#DejaVuSans-53"/>
       <use x="127.246094" xlink:href="#DejaVuSans-48"/>
       <use x="190.869141" xlink:href="#DejaVuSans-48"/>
       <use x="254.492188" xlink:href="#DejaVuSans-48"/>
      </g>
     </g>
    </g>
    <g id="ytick_7">
     <g id="line2d_25">
      <path clip-path="url(#pd4a0674f3e)" d="M 90 178.569823 
L 648 178.569823 
" style="fill:none;stroke:#cccccc;stroke-linecap:round;stroke-width:0.8;"/>
     </g>
     <g id="line2d_26"/>
     <g id="text_13">
      <!-- 30000 -->
      <defs>
       <path d="M 40.578125 39.3125 
Q 47.65625 37.796875 51.625 33 
Q 55.609375 28.21875 55.609375 21.1875 
Q 55.609375 10.40625 48.1875 4.484375 
Q 40.765625 -1.421875 27.09375 -1.421875 
Q 22.515625 -1.421875 17.65625 -0.515625 
Q 12.796875 0.390625 7.625 2.203125 
L 7.625 11.71875 
Q 11.71875 9.328125 16.59375 8.109375 
Q 21.484375 6.890625 26.8125 6.890625 
Q 36.078125 6.890625 40.9375 10.546875 
Q 45.796875 14.203125 45.796875 21.1875 
Q 45.796875 27.640625 41.28125 31.265625 
Q 36.765625 34.90625 28.71875 34.90625 
L 20.21875 34.90625 
L 20.21875 43.015625 
L 29.109375 43.015625 
Q 36.375 43.015625 40.234375 45.921875 
Q 44.09375 48.828125 44.09375 54.296875 
Q 44.09375 59.90625 40.109375 62.90625 
Q 36.140625 65.921875 28.71875 65.921875 
Q 24.65625 65.921875 20.015625 65.03125 
Q 15.375 64.15625 9.8125 62.3125 
L 9.8125 71.09375 
Q 15.4375 72.65625 20.34375 73.4375 
Q 25.25 74.21875 29.59375 74.21875 
Q 40.828125 74.21875 47.359375 69.109375 
Q 53.90625 64.015625 53.90625 55.328125 
Q 53.90625 49.265625 50.4375 45.09375 
Q 46.96875 40.921875 40.578125 39.3125 
z
" id="DejaVuSans-51"/>
      </defs>
      <g style="fill:#262626;" transform="translate(54.6875 182.369042)scale(0.1 -0.1)">
       <use xlink:href="#DejaVuSans-51"/>
       <use x="63.623047" xlink:href="#DejaVuSans-48"/>
       <use x="127.246094" xlink:href="#DejaVuSans-48"/>
       <use x="190.869141" xlink:href="#DejaVuSans-48"/>
       <use x="254.492188" xlink:href="#DejaVuSans-48"/>
      </g>
     </g>
    </g>
    <g id="ytick_8">
     <g id="line2d_27">
      <path clip-path="url(#pd4a0674f3e)" d="M 90 105.729032 
L 648 105.729032 
" style="fill:none;stroke:#cccccc;stroke-linecap:round;stroke-width:0.8;"/>
     </g>
     <g id="line2d_28"/>
     <g id="text_14">
      <!-- 35000 -->
      <g style="fill:#262626;" transform="translate(54.6875 109.528251)scale(0.1 -0.1)">
       <use xlink:href="#DejaVuSans-51"/>
       <use x="63.623047" xlink:href="#DejaVuSans-53"/>
       <use x="127.246094" xlink:href="#DejaVuSans-48"/>
       <use x="190.869141" xlink:href="#DejaVuSans-48"/>
       <use x="254.492188" xlink:href="#DejaVuSans-48"/>
      </g>
     </g>
    </g>
   </g>
   <g id="line2d_29">
    <path clip-path="url(#pd4a0674f3e)" d="M 115.363636 615.6 
L 115.408055 615.498023 
L 118.035739 615.002706 
L 120.885013 614.216025 
L 120.950717 614.186889 
L 122.547429 614.026639 
L 122.783763 613.997503 
L 124.810066 613.516753 
L 125.421371 613.400208 
L 126.118375 613.239958 
L 126.289536 613.137981 
L 126.898467 612.861186 
L 127.621798 612.686368 
L 128.139203 612.540687 
L 128.145359 612.526119 
L 129.030406 612.351301 
L 129.11794 612.293028 
L 129.827916 612.11821 
L 129.832255 612.103642 
L 131.390145 611.826847 
L 131.633561 611.783143 
L 132.561953 611.608325 
L 132.969013 611.462643 
L 133.048761 611.40437 
L 134.336201 611.200416 
L 134.441186 611.113007 
L 135.375773 610.894485 
L 135.963125 610.763371 
L 136.330091 610.530281 
L 136.741931 610.442872 
L 137.272338 610.326327 
L 137.416992 610.268054 
L 137.855147 610.107804 
L 137.928043 610.020395 
L 139.011991 609.729032 
L 139.079886 609.699896 
L 139.51731 609.554214 
L 139.552198 609.51051 
L 141.144057 609.233715 
L 142.048075 608.986056 
L 142.789632 608.621852 
L 142.797661 608.607284 
L 143.051783 608.476171 
L 143.120784 608.447034 
L 143.774634 608.315921 
L 143.941082 608.184807 
L 143.95884 608.126535 
L 144.374329 607.995421 
L 144.503776 607.733195 
L 144.627138 607.587513 
L 144.659114 607.514672 
L 145.558318 607.325286 
L 146.456887 606.815401 
L 146.94937 606.684287 
L 147.032849 606.567742 
L 147.275616 606.436629 
L 147.456164 606.378356 
L 147.869963 606.247242 
L 147.886264 606.232674 
L 148.578477 606.101561 
L 151.140272 604.906972 
L 151.154038 604.877836 
L 152.047881 604.746722 
L 152.258301 604.557336 
L 152.615529 604.309677 
L 153.439886 604.076587 
L 154.436405 603.391883 
L 155.089138 603.217066 
L 155.223325 603.042248 
L 155.678073 602.765453 
L 156.69096 602.590635 
L 156.810872 602.517794 
L 157.868159 602.095317 
L 158.568341 601.964204 
L 158.852564 601.803954 
L 159.001219 601.643704 
L 160.451993 600.827888 
L 160.630859 600.65307 
L 160.898591 600.478252 
L 160.993298 600.390843 
L 161.61581 600.274298 
L 161.711736 600.216025 
L 161.832842 600.070343 
L 161.850678 599.866389 
L 163.449184 599.633299 
L 163.59531 599.575026 
L 165.372047 599.021436 
L 165.462442 598.934027 
L 165.579872 598.773777 
L 165.593862 598.6718 
L 165.970447 598.526119 
L 166.496847 598.336733 
L 166.816563 598.089074 
L 166.915614 598.016233 
L 167.05324 597.797711 
L 167.190002 597.666597 
L 167.314026 597.593757 
L 167.424106 597.448075 
L 167.45036 597.346098 
L 168.178094 597.200416 
L 168.333381 597.01103 
L 168.432596 596.894485 
L 168.588825 596.690531 
L 168.694916 596.559417 
L 169.010824 596.340895 
L 169.110725 596.195213 
L 169.470037 596.166077 
L 169.776067 596.034964 
L 170.43814 595.204579 
L 170.536267 595.000624 
L 170.896107 594.840375 
L 171.554618 594.592716 
L 171.626058 594.461602 
L 171.880713 594.024558 
L 172.064795 593.893444 
L 172.189408 593.704058 
L 173.012888 593.427263 
L 173.179207 593.339854 
L 173.458905 593.063059 
L 173.50658 592.917378 
L 173.74692 592.786264 
L 175.051256 592.174402 
L 175.15602 591.883039 
L 175.345649 591.664516 
L 175.520424 591.504266 
L 175.702404 591.373153 
L 176.292587 591.140062 
L 176.328765 591.067222 
L 176.696565 590.936108 
L 176.840266 590.848699 
L 176.932774 590.68845 
L 177.089799 590.411655 
L 177.265347 590.193132 
L 177.875632 590.062019 
L 177.983346 589.901769 
L 178.631937 589.333611 
L 179.457758 589.115088 
L 179.569052 588.925702 
L 179.756915 588.794589 
L 179.859602 588.678044 
L 179.966126 588.532362 
L 180.298863 587.920499 
L 180.464238 587.774818 
L 180.620372 587.701977 
L 181.408237 587.323205 
L 182.319256 586.055775 
L 182.742426 585.880957 
L 182.865723 585.691571 
L 182.999447 585.487617 
L 183.13503 585.181686 
L 183.227788 585.036004 
L 183.302616 584.83205 
L 183.478896 584.700937 
L 183.790681 584.016233 
L 184.385423 583.754006 
L 184.48555 583.652029 
L 184.640156 583.448075 
L 184.809842 583.200416 
L 185.044936 582.952758 
L 185.211734 582.77794 
L 185.802189 582.544849 
L 186.073568 582.282622 
L 186.320346 581.874714 
L 186.421792 581.787305 
L 186.683934 581.466805 
L 186.981385 581.029761 
L 187.581416 580.869511 
L 187.776144 580.709261 
L 187.993621 580.534443 
L 188.063198 580.432466 
L 188.183077 580.301353 
L 188.618238 579.704058 
L 188.831176 579.645786 
L 189.235875 579.514672 
L 189.390005 579.267014 
L 189.717381 579.004787 
L 189.849533 578.815401 
L 190.289987 578.203538 
L 190.757537 578.057856 
L 191.640574 576.659313 
L 191.829024 576.513632 
L 191.909623 576.382518 
L 192.451997 576.222268 
L 192.559353 575.960042 
L 192.661302 575.901769 
L 192.758377 575.756087 
L 193.678746 574.444953 
L 194.182789 574.284703 
L 194.263643 574.15359 
L 194.393306 573.99334 
L 194.493387 573.833091 
L 194.606435 573.658273 
L 194.737645 573.294069 
L 195.016534 572.959001 
L 195.129579 572.551093 
L 195.551307 572.347138 
L 195.769456 572.157752 
L 196.025973 571.589594 
L 196.122572 571.458481 
L 196.256554 571.298231 
L 196.428479 571.137981 
L 196.650762 570.904891 
L 196.946324 570.351301 
L 197.142721 570.205619 
L 197.257218 570.11821 
L 197.624563 569.812279 
L 197.898542 569.448075 
L 198.104761 569.185848 
L 198.235117 568.967326 
L 199.049131 568.428304 
L 199.178815 568.282622 
L 200.210095 566.825806 
L 200.636213 566.680125 
L 200.803376 566.097399 
L 200.873199 565.937149 
L 201.25427 565.194173 
L 201.560796 564.917378 
L 201.643031 564.713424 
L 202.306444 564.596878 
L 202.462417 564.42206 
L 203.537677 562.615609 
L 204.082947 562.338814 
L 204.180248 562.062019 
L 204.528991 561.493861 
L 204.632657 561.319043 
L 204.825782 561.013111 
L 204.940289 560.736316 
L 205.363031 560.576067 
L 205.563366 560.386681 
L 206.338175 559.279501 
L 207.105187 559.075546 
L 207.441624 558.376275 
L 207.571634 558.186889 
L 207.707591 557.982934 
L 208.402652 557.312799 
L 208.7552 557.196254 
L 208.871602 556.977732 
L 208.998996 556.642664 
L 209.224649 556.234755 
L 209.302483 556.045369 
L 209.407134 555.899688 
L 209.497834 555.739438 
L 209.624783 555.608325 
L 209.74252 555.462643 
L 209.83387 555.229553 
L 210.38937 555.083871 
L 210.505866 554.865349 
L 210.873814 554.515713 
L 211.045328 554.326327 
L 211.143148 554.136941 
L 211.235398 553.991259 
L 211.342256 553.860146 
L 211.465252 553.714464 
L 211.635037 553.656191 
L 211.983764 553.525078 
L 212.13763 553.277419 
L 212.276488 553.11717 
L 213.259337 552.053694 
L 213.587004 551.922581 
L 213.756714 551.631217 
L 214.916241 550.305515 
L 215.608839 549.766493 
L 216.354944 548.557336 
L 216.552814 548.513632 
L 216.865888 548.382518 
L 218.115939 547.042248 
L 218.579286 546.896566 
L 218.673021 546.794589 
L 218.820562 546.663476 
L 218.929337 546.488658 
L 219.712812 545.585432 
L 220.128758 545.43975 
L 220.462725 544.871592 
L 220.641774 544.580229 
L 221.034489 544.274298 
L 221.884107 543.910094 
L 222.066458 543.749844 
L 222.180637 543.61873 
L 222.888143 542.657232 
L 223.464175 542.467846 
L 223.904682 541.899688 
L 224.027678 541.622893 
L 224.169853 541.316961 
L 224.306696 541.185848 
L 224.38882 541.040166 
L 224.724009 540.807076 
L 225.031453 540.661394 
L 225.160057 540.253486 
L 225.291227 540.020395 
L 225.420259 539.7436 
L 225.571383 539.481374 
L 225.753309 539.248283 
L 225.832109 539.058897 
L 225.999357 538.884079 
L 226.079282 538.680125 
L 226.563237 538.534443 
L 226.692544 538.359625 
L 226.69351 538.345057 
L 226.890637 538.213944 
L 227.449479 536.74256 
L 227.628617 536.553174 
L 227.736278 536.363788 
L 228.309885 536.174402 
L 228.427778 535.766493 
L 228.773923 535.329448 
L 228.93688 535.154631 
L 229.038644 535.008949 
L 229.310319 534.484495 
L 229.389822 534.397086 
L 229.885703 534.265973 
L 229.972211 534.120291 
L 231.027418 532.197294 
L 231.540991 531.964204 
L 231.974973 531.090114 
L 232.05426 530.944433 
L 232.168426 530.725911 
L 232.266131 530.580229 
L 232.389568 530.361707 
L 232.944839 529.837253 
L 233.183254 529.706139 
L 234.289683 528.089074 
L 234.798869 527.88512 
L 235.069713 527.477211 
L 235.218923 527.229553 
L 235.339902 527.040166 
L 235.585286 526.646826 
L 235.782526 526.413736 
L 235.933606 526.326327 
L 236.347275 526.049532 
L 236.52229 525.787305 
L 236.748037 525.597919 
L 236.853202 525.423101 
L 237.048725 525.102601 
L 237.20149 524.869511 
L 237.352894 524.650989 
L 237.439279 524.490739 
L 237.522383 524.40333 
L 237.884572 524.24308 
L 237.993384 524.184807 
L 238.197527 523.893444 
L 239.178406 522.276379 
L 239.644388 522.043288 
L 239.749661 521.766493 
L 240.023557 521.402289 
L 240.153765 521.271176 
L 240.63199 520.703018 
L 241.155005 520.411655 
L 241.318861 520.265973 
L 241.544702 519.901769 
L 241.821825 519.522997 
L 241.96644 519.231634 
L 242.168783 518.881998 
L 242.465857 518.634339 
L 242.918376 518.444953 
L 243.005572 518.328408 
L 243.131738 518.197294 
L 243.282678 517.803954 
L 243.407703 517.643704 
L 243.597854 517.352341 
L 243.687536 517.20666 
L 244.175304 516.551093 
L 244.571749 516.390843 
L 244.665761 516.17232 
L 244.811784 516.041207 
L 245.044125 515.720708 
L 245.191158 515.400208 
L 245.463662 514.963163 
L 246.490407 514.059938 
L 246.591358 513.899688 
L 246.86474 513.637461 
L 246.937235 513.593757 
L 247.742477 513.316961 
L 248.728949 512.734235 
L 249.389687 512.588554 
L 249.92464 512.0641 
L 250.029902 511.947555 
L 250.288909 511.816441 
L 250.466578 511.612487 
L 250.584756 511.568783 
L 251.1117 511.291988 
L 251.248825 511.015193 
L 251.349475 510.898647 
L 251.545173 510.607284 
L 251.836183 510.126535 
L 252.086785 510.00999 
L 252.185227 509.835172 
L 252.655413 509.645786 
L 253.193703 509.179605 
L 253.336483 508.946514 
L 253.472242 508.800832 
L 253.579167 508.640583 
L 253.675473 508.480333 
L 253.762463 508.261811 
L 254.281185 508.072425 
L 254.413296 507.86847 
L 254.519369 507.708221 
L 254.644477 507.562539 
L 254.86946 507.256608 
L 254.973939 507.110926 
L 255.432686 506.571904 
L 255.810719 506.426223 
L 257.117158 504.051613 
L 257.608021 503.789386 
L 257.762557 503.43975 
L 257.850525 503.279501 
L 258.113582 502.696774 
L 258.66681 501.38564 
L 259.139553 501.152549 
L 259.283172 500.890323 
L 259.439646 500.773777 
L 259.498649 500.598959 
L 259.5553 500.467846 
L 259.688318 500.336733 
L 259.840806 499.855983 
L 259.990296 499.418939 
L 260.116855 499.258689 
L 260.173718 499.025598 
L 260.253084 498.675963 
L 260.455209 498.515713 
L 260.531983 498.486576 
L 260.788864 498.326327 
L 261.061591 497.874714 
L 261.124193 497.627055 
L 261.254321 496.869511 
L 261.322205 496.738398 
L 261.579786 495.908012 
L 261.990325 495.165036 
L 262.275159 494.990219 
L 262.569433 494.42206 
L 262.683044 494.18897 
L 262.795374 493.897607 
L 262.914758 493.693652 
L 263.030686 493.402289 
L 263.139967 493.198335 
L 263.435442 492.542768 
L 263.549214 492.324246 
L 263.994666 491.97461 
L 264.190628 491.639542 
L 264.310857 491.464724 
L 264.405717 491.319043 
L 264.5144 491.187929 
L 264.667561 491.02768 
L 264.807749 490.809157 
L 264.928018 490.590635 
L 265.631341 490.037045 
L 265.842959 489.833091 
L 265.996453 489.541727 
L 266.214306 489.162955 
L 266.294028 489.002706 
L 266.401742 488.857024 
L 266.782418 487.93923 
L 266.957596 487.851821 
L 267.29548 487.662435 
L 267.421552 487.400208 
L 267.53101 487.298231 
L 267.903614 486.453278 
L 268.002624 486.336733 
L 268.262503 486.045369 
L 268.378157 485.783143 
L 269.146838 485.33153 
L 270.323829 483.583351 
L 270.643069 483.393965 
L 270.799793 483.175442 
L 270.883734 483.015193 
L 270.963041 482.840375 
L 271.093314 482.694693 
L 271.192887 482.447034 
L 271.348785 482.272216 
L 271.605894 481.791467 
L 271.649562 481.733195 
L 272.196909 481.602081 
L 272.421886 481.354422 
L 272.530747 481.165036 
L 272.644745 480.97565 
L 273.535009 479.547971 
L 273.788517 479.416857 
L 273.92796 479.169199 
L 274.982437 477.508429 
L 275.519267 477.231634 
L 275.658825 476.940271 
L 275.759781 476.780021 
L 275.986126 476.401249 
L 276.114663 476.182726 
L 276.5271 475.6 
L 277.078382 475.43975 
L 277.608542 474.798751 
L 277.729035 474.551093 
L 277.846298 474.419979 
L 277.924526 474.186889 
L 278.084595 474.026639 
L 278.152942 473.851821 
L 278.692229 473.633299 
L 278.829836 473.341935 
L 279.257775 472.526119 
L 279.53567 472.11821 
L 279.742013 471.899688 
L 279.842522 471.797711 
L 280.236509 471.608325 
L 280.515637 471.098439 
L 280.633853 470.938189 
L 280.769765 470.719667 
L 281.100623 469.860146 
L 281.281406 469.437669 
L 281.340258 469.291988 
L 281.464917 469.131738 
L 281.910113 468.942352 
L 282.007422 468.752966 
L 282.134848 468.345057 
L 282.810598 466.261811 
L 282.929987 466.116129 
L 283.082265 465.649948 
L 283.920744 464.804995 
L 284.056246 464.630177 
L 284.169489 464.324246 
L 284.485232 463.639542 
L 284.600186 463.450156 
L 284.935421 463.071384 
L 285.245451 462.896566 
L 285.62852 462.007908 
L 285.748773 461.833091 
L 285.928667 461.366909 
L 286.037738 461.221228 
L 286.152132 461.031842 
L 286.258296 460.900728 
L 286.376199 460.740479 
L 286.910601 460.361707 
L 286.979422 459.997503 
L 287.286702 459.298231 
L 287.386062 459.06514 
L 287.490049 458.569823 
L 287.661282 458.263892 
L 287.985945 457.477211 
L 288.462383 457.040166 
L 289.094949 455.816441 
L 289.177927 455.685328 
L 289.277852 455.379396 
L 289.416822 455.11717 
L 290.634625 453.704058 
L 290.832823 453.29615 
L 290.927244 452.990219 
L 291.109232 452.451197 
L 291.170219 452.232674 
L 291.300853 452.130697 
L 291.507085 452.014152 
L 291.685926 451.853902 
L 292.495061 450.68845 
L 292.70878 450.062019 
L 293.017134 449.697815 
L 293.326633 449.508429 
L 293.480717 449.246202 
L 293.633461 449.056816 
L 293.971414 448.386681 
L 294.1293 448.211863 
L 294.417372 447.731113 
L 294.498985 447.585432 
L 294.882234 447.410614 
L 295.070974 447.162955 
L 295.225319 446.929865 
L 295.358424 446.594797 
L 295.529905 446.245161 
L 295.659688 445.735276 
L 295.76094 445.589594 
L 295.88009 445.283663 
L 296.033854 445.036004 
L 296.210429 444.890323 
L 296.639348 444.657232 
L 296.763485 444.424142 
L 296.964277 444.307596 
L 297.139362 444.045369 
L 297.637969 443.200416 
L 297.799018 443.098439 
L 297.935564 443.040166 
L 298.321386 442.807076 
L 299.304658 440.782102 
L 299.850129 440.549011 
L 300.461981 439.281582 
L 300.635413 439.004787 
L 301.147231 438.232674 
L 302.007924 436.863267 
L 302.55475 435.348179 
L 302.811674 435.202497 
L 302.933638 435.042248 
L 303.161095 434.838293 
L 303.631337 433.04641 
L 303.708232 432.871592 
L 304.262079 431.662435 
L 304.804541 431.443913 
L 305.951096 428.865349 
L 306.644251 428.340895 
L 307.042017 427.641623 
L 307.154272 427.423101 
L 307.212833 427.131738 
L 307.33257 426.927784 
L 307.417176 426.738398 
L 307.587443 426.549011 
L 308.046147 426.301353 
L 308.189662 425.864308 
L 308.356559 425.543809 
L 308.960902 423.781061 
L 309.046705 423.63538 
L 309.201591 423.300312 
L 309.260008 423.169199 
L 309.365604 422.834131 
L 309.737516 422.426223 
L 309.839805 422.265973 
L 309.930725 422.105723 
L 310.069341 421.843496 
L 310.156534 421.712383 
L 310.265811 421.391883 
L 310.398423 421.144225 
L 310.512535 420.517794 
L 310.672903 420.31384 
L 310.865027 419.964204 
L 311.260882 419.687409 
L 311.481987 419.235796 
L 311.619352 418.813319 
L 311.78911 418.463684 
L 311.918525 417.982934 
L 312.139406 417.239958 
L 312.345236 416.890323 
L 312.508772 416.744641 
L 312.678087 416.686368 
L 312.902316 416.27846 
L 313.030665 415.899688 
L 313.200062 415.418939 
L 313.51727 414.326327 
L 313.627533 413.481374 
L 313.86478 412.723829 
L 313.977404 412.519875 
L 314.337945 412.24308 
L 314.496769 412.08283 
L 314.67553 411.441831 
L 314.825472 411.29615 
L 314.941989 411.019355 
L 315.206328 410.465765 
L 315.369315 409.79563 
L 315.474364 409.547971 
L 315.63315 409.154631 
L 316.061181 408.790427 
L 316.139788 408.557336 
L 316.370828 407.989178 
L 316.486708 407.756087 
L 316.612589 407.493861 
L 316.973933 406.678044 
L 317.097698 406.386681 
L 317.185768 406.124454 
L 317.390829 405.789386 
L 317.830694 405.337773 
L 317.931927 405.177523 
L 318.018886 405.017274 
L 318.333669 404.259729 
L 318.599891 403.953798 
L 319.082527 403.137981 
L 319.288649 402.9923 
L 319.490932 402.817482 
L 319.729409 402.336733 
L 319.842442 402.074506 
L 319.978348 401.855983 
L 320.129396 401.491779 
L 320.456021 400.952758 
L 320.535274 400.807076 
L 320.748821 400.646826 
L 320.848604 400.588554 
L 321.179045 400.0641 
L 321.292379 399.889282 
L 321.40128 399.729032 
L 321.53446 399.525078 
L 321.711611 399.204579 
L 322.119478 398.476171 
L 322.263816 398.388762 
L 322.702343 398.111967 
L 323.841061 395.096358 
L 323.910743 394.965245 
L 324.01076 394.790427 
L 324.264987 394.586472 
L 324.569782 394.062019 
L 324.697106 393.785224 
L 325.151092 392.809157 
L 326.00472 392.022477 
L 326.410092 391.20666 
L 326.497298 391.04641 
L 326.526443 390.565661 
L 326.624571 390.055775 
L 326.656019 389.895525 
L 326.863602 388.788345 
L 326.992904 388.045369 
L 327.098836 387.739438 
L 327.259021 387.637461 
L 327.507992 387.40437 
L 327.590324 387.229553 
L 327.702824 386.909053 
L 327.8657 386.690531 
L 327.975172 386.093236 
L 328.104215 385.816441 
L 328.360008 385.291988 
L 328.480717 385.073465 
L 328.581939 384.432466 
L 329.288287 383.704058 
L 330.035254 382.698855 
L 330.143643 382.538606 
L 330.928809 381.985016 
L 331.0446 381.897607 
L 331.178875 381.708221 
L 331.463221 381.329448 
L 331.617983 381.110926 
L 331.942033 380.775858 
L 332.791893 380.5282 
L 332.873891 380.426223 
L 333.412351 380.222268 
L 333.635299 380.163996 
L 334.363273 379.945473 
L 334.465596 379.756087 
L 335.642116 378.896566 
L 336.092819 378.372112 
L 336.352957 377.920499 
L 336.560222 377.512591 
L 336.667497 377.366909 
L 336.780834 377.148387 
L 337.4669 376.638502 
L 337.629879 376.449116 
L 337.750638 376.274298 
L 338.022289 375.764412 
L 338.217535 375.560458 
L 338.531322 375.269095 
L 338.920451 375.050572 
L 339.145369 374.773777 
L 339.247128 374.598959 
L 339.507819 373.652029 
L 339.610081 373.506348 
L 339.757148 373.244121 
L 339.876411 373.069303 
L 339.97344 372.879917 
L 340.042353 372.792508 
L 340.554785 372.603122 
L 340.756014 372.326327 
L 340.904637 372.151509 
L 341.18321 371.714464 
L 341.639678 371.219147 
L 341.720691 371.175442 
L 342.100804 371.015193 
L 342.415652 370.607284 
L 342.740328 370.272216 
L 342.882188 370.141103 
L 343.181668 369.893444 
L 343.307142 369.762331 
L 343.859463 369.587513 
L 344.035721 369.368991 
L 344.16632 369.223309 
L 344.298814 369.063059 
L 344.416648 368.859105 
L 344.582038 368.611446 
L 345.26509 367.912175 
L 345.533328 367.693652 
L 346.378161 366.513632 
L 346.50131 366.353382 
L 346.71624 366.265973 
L 347.052444 366.13486 
L 347.191122 365.887201 
L 347.303964 365.668678 
L 347.381241 365.493861 
L 347.677507 364.86743 
L 347.86311 364.430385 
L 348.581715 363.6 
L 348.737333 363.43975 
L 349.807665 361.108845 
L 350.305418 360.904891 
L 351.546897 358.486576 
L 351.962847 358.238918 
L 352.036518 358.078668 
L 352.48046 357.262851 
L 352.693557 356.942352 
L 352.783508 356.752966 
L 353.181724 356.315921 
L 353.623763 356.068262 
L 353.736039 355.878876 
L 353.838556 355.747763 
L 354.134777 355.121332 
L 354.63073 354.509469 
L 354.727264 354.451197 
L 355.262338 354.057856 
L 355.427204 353.810198 
L 356.236177 352.630177 
L 356.855475 352.251405 
L 356.973016 352.062019 
L 357.880991 350.896566 
L 358.594565 350.780021 
L 358.929316 350.430385 
L 359.051006 350.328408 
L 359.200081 350.095317 
L 359.351476 349.920499 
L 360.182099 349.20666 
L 360.344625 349.031842 
L 360.554348 348.88616 
L 360.692211 348.682206 
L 360.926258 348.274298 
L 361.33964 347.749844 
L 361.824846 347.575026 
L 361.968188 347.22539 
L 362.771701 346.205619 
L 363.335293 346.074506 
L 363.539095 345.754006 
L 363.662131 345.608325 
L 363.904882 345.40437 
L 363.984934 345.287825 
L 364.124239 345.142144 
L 364.248419 344.996462 
L 364.397643 344.77794 
L 364.531738 344.675963 
L 364.980435 344.428304 
L 365.190693 344.0641 
L 365.359652 343.889282 
L 365.776046 343.262851 
L 365.931106 343.11717 
L 366.163221 342.854943 
L 366.563741 342.650989 
L 366.67083 342.490739 
L 367.623175 341.281582 
L 367.666141 341.208741 
L 368.450622 340.961082 
L 368.547121 340.800832 
L 368.712205 340.553174 
L 368.806661 340.392924 
L 369.562111 339.445994 
L 369.890092 339.271176 
L 370.003873 338.936108 
L 370.169925 338.615609 
L 370.28423 338.397086 
L 370.392472 338.149428 
L 370.919443 337.217066 
L 371.489702 336.86743 
L 371.626456 336.532362 
L 371.745853 336.328408 
L 371.901321 336.022477 
L 372.023568 335.833091 
L 372.342639 335.235796 
L 372.506096 334.988137 
L 372.619581 334.784183 
L 373.145793 334.580229 
L 373.30864 334.216025 
L 373.640618 333.735276 
L 373.799619 333.473049 
L 373.918255 333.298231 
L 374.021431 333.137981 
L 374.129689 332.934027 
L 374.307451 332.788345 
L 374.71496 332.613528 
L 374.849464 332.409573 
L 374.971857 332.336733 
L 375.1602 332.132778 
L 375.425731 331.579188 
L 375.572324 331.316961 
L 375.793892 330.952758 
L 375.880403 330.879917 
L 376.35012 330.603122 
L 376.464751 330.399168 
L 376.603344 330.268054 
L 376.699385 330.195213 
L 376.940627 330.020395 
L 377.0215 329.90385 
L 377.182839 329.758169 
L 377.297072 329.597919 
L 377.429288 329.306556 
L 377.490469 329.204579 
L 377.976803 329.044329 
L 378.099952 328.738398 
L 378.300384 328.519875 
L 378.382549 328.388762 
L 378.512117 328.228512 
L 378.68659 328.024558 
L 378.814993 327.878876 
L 379.023322 327.558377 
L 379.736433 327.004787 
L 380.798428 324.965245 
L 381.330221 324.542768 
L 381.390018 324.411655 
L 381.584653 324.280541 
L 381.764625 323.916337 
L 382.045387 323.319043 
L 382.1519 323.217066 
L 382.289238 322.911134 
L 382.469881 322.750884 
L 382.963288 322.488658 
L 383.160544 322.080749 
L 383.240114 321.905931 
L 383.411345 321.731113 
L 384.31444 320.725911 
L 384.490793 320.594797 
L 384.862856 319.982934 
L 385.072358 319.706139 
L 385.164616 319.487617 
L 385.301345 319.239958 
L 385.840199 318.715505 
L 386.120104 318.51155 
L 386.418112 318.045369 
L 386.583906 317.695734 
L 386.704011 317.40437 
L 386.902403 317.054735 
L 387.580045 316.326327 
L 387.77204 316.078668 
L 387.934136 315.889282 
L 389.057082 314.301353 
L 389.414698 314.00999 
L 390.427042 312.014152 
L 390.594284 311.781061 
L 391.044863 311.547971 
L 391.35886 311.140062 
L 391.591292 310.68845 
L 391.776757 310.397086 
L 392.157754 309.450156 
L 392.632821 309.26077 
L 392.707275 309.085952 
L 392.83053 308.896566 
L 392.967989 308.736316 
L 393.5964 307.716545 
L 393.694331 307.527159 
L 393.800048 307.43975 
L 394.159724 307.279501 
L 394.35569 307.031842 
L 394.651225 306.507388 
L 394.770916 306.376275 
L 395.597568 305.589594 
L 395.936307 305.458481 
L 397.123625 303.914256 
L 397.568873 303.695734 
L 397.721126 303.462643 
L 398.589393 302.195213 
L 399.216418 302.049532 
L 399.276172 301.90385 
L 399.395357 301.772737 
L 399.95284 300.884079 
L 400.121331 300.549011 
L 400.793865 300.170239 
L 400.903869 299.966285 
L 401.529274 298.74256 
L 401.790499 298.451197 
L 401.886177 298.334651 
L 402.628469 297.839334 
L 402.778279 297.416857 
L 403.047796 297.285744 
L 403.150619 297.125494 
L 403.294414 296.819563 
L 403.436694 296.644745 
L 403.608069 296.440791 
L 404.088805 296.251405 
L 404.285693 296.032882 
L 404.403623 295.901769 
L 404.913525 295.115088 
L 405.007452 295.056816 
L 405.073511 294.911134 
L 405.179823 294.721748 
L 405.652095 294.561498 
L 405.945936 294.037045 
L 406.144807 293.745682 
L 406.300893 293.585432 
L 406.44528 293.308637 
L 406.682963 292.959001 
L 406.841052 292.857024 
L 407.22299 292.507388 
L 407.470766 291.982934 
L 407.751471 291.312799 
L 407.82789 291.181686 
L 407.957345 291.021436 
L 408.183595 290.628096 
L 408.317857 290.424142 
L 408.414671 290.307596 
L 408.701095 290.147347 
L 408.825891 290.103642 
L 408.957626 289.899688 
L 409.204412 289.17128 
L 409.470354 288.646826 
L 409.591964 288.340895 
L 409.876326 287.991259 
L 409.974836 287.90385 
L 410.523717 287.7436 
L 411.463418 286.199376 
L 411.571235 285.995421 
L 412.245914 285.412695 
L 412.394017 285.194173 
L 412.72036 284.873673 
L 412.837698 284.655151 
L 413.087334 284.494901 
L 413.194701 284.363788 
L 413.648181 284.145265 
L 413.820792 283.926743 
L 414.000538 283.722789 
L 414.152418 283.47513 
L 414.334691 283.285744 
L 414.672774 282.863267 
L 415.426326 282.382518 
L 415.551082 282.149428 
L 415.877002 281.683247 
L 416.629394 280.881998 
L 416.839744 280.809157 
L 417.452279 280.619771 
L 417.761644 280.31384 
L 418.023261 280.15359 
L 418.094063 280.080749 
L 418.937677 279.920499 
L 419.095911 279.76025 
L 419.326691 279.585432 
L 419.42962 279.425182 
L 419.60095 279.20666 
L 419.725741 279.017274 
L 419.849993 278.857024 
L 420.334492 278.711342 
L 420.469348 278.551093 
L 420.698435 278.259729 
L 421.102672 277.487617 
L 421.225062 277.312799 
L 421.354573 277.137981 
L 422.192627 276.526119 
L 422.361443 276.205619 
L 422.624724 275.88512 
L 422.848385 275.637461 
L 422.996949 275.448075 
L 423.026126 275.418939 
L 423.515186 275.273257 
L 423.639326 275.083871 
L 423.81268 274.675963 
L 424.216704 274.151509 
L 424.445949 273.772737 
L 424.625607 273.597919 
L 424.71172 273.466805 
L 425.187444 273.306556 
L 425.535121 272.723829 
L 425.735561 272.432466 
L 425.842013 272.257648 
L 426.486304 271.820604 
L 426.877411 271.645786 
L 427.092159 271.252445 
L 427.207753 271.063059 
L 427.386027 270.786264 
L 427.496917 270.567742 
L 427.752662 270.218106 
L 427.897762 270.072425 
L 427.984446 270.014152 
L 428.461597 269.86847 
L 428.748869 269.577107 
L 429.020006 269.24204 
L 429.311519 268.994381 
L 429.496734 268.863267 
L 429.533035 268.703018 
L 430.07398 268.542768 
L 430.406036 268.236837 
L 430.632152 267.945473 
L 430.757077 267.697815 
L 431.071847 267.391883 
L 431.322755 267.085952 
L 431.922622 266.503226 
L 432.549529 265.556296 
L 432.712885 265.396046 
L 432.859575 265.20666 
L 433.286435 265.04641 
L 433.391391 264.88616 
L 434.371871 263.793548 
L 434.818774 263.662435 
L 434.846727 263.633299 
L 435.039241 263.502185 
L 435.142191 263.414776 
L 435.289423 263.210822 
L 435.475776 262.890323 
L 435.584462 262.598959 
L 435.775016 262.43871 
L 435.892522 262.234755 
L 436.204804 261.987097 
L 436.591407 261.826847 
L 437.067163 261.113007 
L 437.181802 260.923621 
L 437.463164 260.501145 
L 437.673083 260.253486 
L 438.107942 259.962123 
L 438.218164 259.452237 
L 438.366898 259.262851 
L 439.474713 258.00999 
L 439.812814 257.864308 
L 440.574916 256.961082 
L 441.627652 256.290947 
L 441.786713 255.999584 
L 441.969667 255.737357 
L 442.075688 255.416857 
L 442.222088 255.271176 
L 442.675566 254.615609 
L 443.096803 254.295109 
L 443.200908 254.193132 
L 443.292824 254.003746 
L 443.415047 253.81436 
L 443.596796 253.566701 
L 444.123527 252.86743 
L 444.806089 252.474089 
L 445.084442 252.095317 
L 445.460658 251.614568 
L 445.633167 251.425182 
L 445.777023 251.235796 
L 445.893611 251.162955 
L 446.419508 251.031842 
L 446.536106 250.929865 
L 446.809138 250.784183 
L 446.889212 250.638502 
L 447.300225 250.405411 
L 447.791524 250.230593 
L 448.042675 250.09948 
L 449.233078 249.021436 
L 449.621707 248.861186 
L 449.731908 248.642664 
L 449.90693 248.467846 
L 450.043275 248.336733 
L 450.157694 248.205619 
L 450.222268 248.132778 
L 450.399188 247.972529 
L 450.59357 247.754006 
L 450.712566 247.608325 
L 451.251433 247.433507 
L 451.556347 247.083871 
L 451.857568 246.646826 
L 452.202177 246.384599 
L 452.300713 246.195213 
L 452.892003 246.020395 
L 453.229049 245.641623 
L 453.403003 245.423101 
L 453.625781 245.248283 
L 453.719767 245.058897 
L 453.830832 244.898647 
L 453.90127 244.782102 
L 454.551565 244.665557 
L 454.662514 244.417898 
L 454.747815 244.257648 
L 455.35276 243.500104 
L 455.498172 243.325286 
L 455.602226 243.267014 
L 455.858658 243.208741 
L 456.329484 242.917378 
L 456.437432 242.74256 
L 456.705864 242.553174 
L 456.909453 242.261811 
L 457.026496 242.145265 
L 457.192898 241.941311 
L 457.834793 241.722789 
L 458.263402 241.256608 
L 458.397438 241.140062 
L 458.608009 240.863267 
L 458.742214 240.746722 
L 459.448018 240.397086 
L 459.632264 240.2077 
L 459.808872 239.989178 
L 460.086331 239.785224 
L 460.181286 239.712383 
L 460.310625 239.566701 
L 460.410268 239.493861 
L 460.90459 239.348179 
L 461.047066 239.217066 
L 461.217319 238.983975 
L 461.409712 238.663476 
L 461.520551 238.517794 
L 461.642841 238.474089 
L 462.200744 237.949636 
L 462.647542 237.818522 
L 464.021372 236.623933 
L 464.297741 236.478252 
L 464.405668 236.390843 
L 464.493444 236.245161 
L 464.681795 235.953798 
L 464.804901 235.822685 
L 465.459618 234.9923 
L 465.981647 234.817482 
L 466.143517 234.409573 
L 466.28644 234.234755 
L 466.465912 234.016233 
L 466.574692 233.88512 
L 467.03012 233.535484 
L 467.436235 233.389802 
L 467.788579 232.792508 
L 468.229951 232.413736 
L 468.497777 232.151509 
L 469.280945 231.729032 
L 469.391095 231.539646 
L 469.587625 231.335692 
L 469.871705 230.95692 
L 470.252803 230.476171 
L 471.022716 230.00999 
L 471.830473 229.252445 
L 472.439027 229.077627 
L 472.521432 228.917378 
L 472.642468 228.771696 
L 473.139925 228.232674 
L 473.392021 228.014152 
L 473.644038 227.824766 
L 474.077691 227.591675 
L 474.218614 227.445994 
L 474.388047 227.227471 
L 474.497166 227.125494 
L 474.826945 226.717586 
L 475.110148 226.338814 
L 475.822382 226.091155 
L 475.933436 225.930905 
L 476.044186 225.697815 
L 476.223297 225.522997 
L 476.376614 225.158793 
L 476.478423 224.954839 
L 476.696922 224.736316 
L 476.837062 224.678044 
L 477.326669 224.474089 
L 477.581127 224.240999 
L 478.376533 223.162955 
L 478.923899 223.002706 
L 479.018189 222.813319 
L 479.220933 222.623933 
L 479.313085 222.551093 
L 479.435957 222.405411 
L 479.660383 222.201457 
L 479.75724 222.041207 
L 479.961911 221.749844 
L 480.041923 221.560458 
L 480.652081 221.298231 
L 480.758964 221.196254 
L 481.008704 220.9923 
L 481.317496 220.642664 
L 481.664713 220.263892 
L 482.520914 219.826847 
L 484.146288 218.544849 
L 484.235782 218.442872 
L 484.597255 218.22435 
L 484.709135 218.049532 
L 484.827736 217.947555 
L 485.500243 217.554214 
L 485.727796 217.131738 
L 485.872199 216.927784 
L 486.035086 216.811238 
L 486.337131 216.490739 
L 486.447561 216.359625 
L 487.109186 216.097399 
L 487.271926 215.878876 
L 487.388503 215.733195 
L 487.506167 215.514672 
L 487.616201 215.368991 
L 487.75869 215.208741 
L 489.896136 213.591675 
L 490.365654 213.445994 
L 491.796767 212.338814 
L 492.030435 212.193132 
L 492.257019 212.003746 
L 492.403392 211.843496 
L 492.819619 211.464724 
L 492.956173 211.319043 
L 493.007856 211.187929 
L 493.547422 211.042248 
L 493.655349 210.925702 
L 493.832689 210.721748 
L 493.938926 210.517794 
L 494.309775 210.284703 
L 494.421161 210.226431 
L 495.29942 209.847659 
L 496.382337 208.667638 
L 496.86718 208.507388 
L 496.953519 208.390843 
L 497.068942 208.216025 
L 497.25593 207.997503 
L 497.460825 207.808117 
L 497.596448 207.531322 
L 497.722197 207.429344 
L 497.879325 207.181686 
L 497.954212 207.094277 
L 498.443647 206.948595 
L 498.732119 206.730073 
L 498.950109 206.584391 
L 499.4852 206.234755 
L 500.097383 206.045369 
L 500.226558 205.72487 
L 500.394306 205.56462 
L 500.552814 205.360666 
L 500.739924 205.214984 
L 501.730791 204.719667 
L 502.143241 204.573985 
L 502.794281 204.122373 
L 503.92019 203.699896 
L 504.068889 203.583351 
L 504.691783 203.160874 
L 504.976627 203.044329 
L 505.080194 202.898647 
L 505.321295 202.752966 
L 505.530264 202.56358 
L 505.658823 202.432466 
L 506.37099 202.068262 
L 506.693088 201.937149 
L 507.914961 200.844537 
L 508.241166 200.713424 
L 508.30409 200.626015 
L 508.494981 200.480333 
L 508.658407 200.320083 
L 508.920399 200.043288 
L 509.042197 199.926743 
L 509.812401 199.387721 
L 509.962345 199.008949 
L 510.128798 198.819563 
L 510.306216 198.513632 
L 510.522598 198.309677 
L 510.684912 198.120291 
L 510.870597 197.960042 
L 511.500037 197.756087 
L 511.619819 197.595838 
L 511.768679 197.464724 
L 511.984909 197.202497 
L 512.152867 197.042248 
L 512.619468 196.809157 
L 512.920703 196.648907 
L 513.301911 196.503226 
L 513.512786 196.270135 
L 513.955049 195.891363 
L 514.140928 195.745682 
L 514.260272 195.687409 
L 514.897035 195.396046 
L 515.03669 195.162955 
L 515.140146 195.090114 
L 515.409948 194.827888 
L 515.541261 194.667638 
L 515.938061 194.259729 
L 516.38495 193.997503 
L 516.618991 193.677003 
L 516.717846 193.560458 
L 516.992936 193.414776 
L 517.146484 193.181686 
L 517.383191 192.904891 
L 517.437295 192.846618 
L 517.942197 192.686368 
L 518.07859 192.540687 
L 518.194758 192.336733 
L 518.582779 191.637461 
L 518.73049 191.462643 
L 519.154965 190.865349 
L 519.922736 190.413736 
L 520.04662 190.340895 
L 520.659133 189.7436 
L 520.679211 189.714464 
L 521.322398 189.539646 
L 522.244425 188.607284 
L 522.297673 188.56358 
L 522.886691 188.374194 
L 523.032626 188.126535 
L 523.314469 187.951717 
L 523.530551 187.631217 
L 523.630315 187.470968 
L 523.823809 187.252445 
L 524.082293 187.121332 
L 524.473764 186.990219 
L 524.587348 186.786264 
L 524.711545 186.640583 
L 524.925528 186.42206 
L 525.100553 186.232674 
L 525.247798 186.072425 
L 525.418606 185.912175 
L 526.124002 185.63538 
L 526.25069 185.518835 
L 526.39868 185.387721 
L 526.596001 185.154631 
L 526.754911 185.052653 
L 527.123155 184.644745 
L 527.335475 184.542768 
L 527.358042 184.5282 
L 527.717954 184.411655 
L 528.959832 183.071384 
L 529.478941 182.911134 
L 529.615318 182.852862 
L 530.105146 182.31384 
L 530.21655 182.051613 
L 530.336927 181.905931 
L 530.440052 181.803954 
L 530.921011 181.658273 
L 531.118227 181.483455 
L 531.384323 181.192092 
L 531.798216 180.929865 
L 531.939155 180.842456 
L 532.732795 180.288866 
L 532.95693 180.143184 
L 533.144769 179.93923 
L 533.288273 179.749844 
L 533.628813 179.239958 
L 533.92822 179.152549 
L 534.450763 178.9923 
L 534.785893 178.6718 
L 534.806399 178.613528 
L 535.035814 178.482414 
L 536.332755 177.418939 
L 536.46345 177.316961 
L 536.654476 177.127575 
L 536.730642 177.054735 
L 536.852628 176.923621 
L 537.155699 176.763371 
L 537.553473 176.603122 
L 537.910217 176.311759 
L 538.258209 176.078668 
L 538.387734 175.918418 
L 538.980824 175.495942 
L 539.249716 175.364828 
L 539.444913 175.102601 
L 540.413186 174.534443 
L 540.670681 174.40333 
L 540.796561 174.257648 
L 540.915431 174.170239 
L 541.066148 173.966285 
L 541.447268 173.543809 
L 541.592942 173.281582 
L 542.413969 172.873673 
L 542.616635 172.727992 
L 542.719233 172.684287 
L 543.14968 172.334651 
L 543.296621 172.247242 
L 543.657125 172.014152 
L 544.057871 171.853902 
L 544.45937 171.489698 
L 544.684498 171.285744 
L 545.145549 170.775858 
L 545.696715 170.586472 
L 545.846633 170.324246 
L 545.943444 170.222268 
L 546.134432 170.105723 
L 546.225296 169.945473 
L 546.347427 169.799792 
L 546.890493 169.522997 
L 547.308969 169.377315 
L 548.36079 168.240999 
L 548.928145 167.99334 
L 549.228949 167.556296 
L 549.385689 167.410614 
L 549.627331 167.133819 
L 549.739233 166.915297 
L 549.961953 166.623933 
L 550.507125 166.434547 
L 550.61517 166.303434 
L 550.766469 166.143184 
L 550.881756 166.012071 
L 551.047394 165.866389 
L 551.381461 165.458481 
L 552.518701 164.861186 
L 553.00145 164.409573 
L 553.138933 164.263892 
L 553.230741 164.176483 
L 553.924362 163.88512 
L 554.410281 162.923621 
L 554.510592 162.646826 
L 554.605088 162.472008 
L 554.740938 162.413736 
L 555.045593 162.253486 
L 555.487409 162.122373 
L 555.844261 161.627055 
L 556.073615 161.437669 
L 556.474425 161.175442 
L 557.045712 161.029761 
L 557.154737 160.898647 
L 557.312683 160.709261 
L 557.944068 160.024558 
L 558.104851 159.878876 
L 558.125808 159.835172 
L 558.695478 159.674922 
L 558.844601 159.52924 
L 559.446936 158.873673 
L 559.824358 158.494901 
L 560.503462 158.34922 
L 560.625623 158.145265 
L 560.71422 158.02872 
L 560.963603 157.853902 
L 561.687604 157.096358 
L 562.142866 156.804995 
L 563.185518 155.785224 
L 563.69483 155.624974 
L 564.594503 154.532362 
L 565.115098 154.357544 
L 565.229419 154.240999 
L 565.506038 153.920499 
L 565.57511 153.818522 
L 565.724704 153.687409 
L 565.835909 153.43975 
L 565.948944 153.060978 
L 566.098682 152.915297 
L 566.221037 152.755047 
L 566.280174 152.711342 
L 566.79251 152.551093 
L 566.917395 152.361707 
L 567.148355 152.216025 
L 567.164358 152.157752 
L 567.320842 152.026639 
L 567.946985 151.356504 
L 568.504589 151.181686 
L 569.854388 149.95796 
L 570.062878 149.797711 
L 570.185898 149.579188 
L 570.495993 149.316961 
L 570.734629 149.127575 
L 571.234963 148.792508 
L 571.435608 148.734235 
L 571.837448 148.530281 
L 572.750209 147.481374 
L 573.466992 147.088033 
L 573.689907 146.854943 
L 573.99488 146.680125 
L 574.234881 146.417898 
L 574.876017 146.257648 
L 575.187008 145.864308 
L 575.297368 145.631217 
L 575.553777 145.412695 
L 575.655517 145.237877 
L 575.795573 145.048491 
L 575.92962 144.859105 
L 576.116622 144.727992 
L 576.295049 144.655151 
L 576.626796 144.509469 
L 577.031339 144.218106 
L 577.420662 143.679084 
L 577.529073 143.504266 
L 577.930699 143.256608 
L 578.241103 143.038085 
L 578.453826 142.892404 
L 579.526153 142.222268 
L 579.902165 142.091155 
L 580.000147 142.003746 
L 580.277033 141.770656 
L 580.784523 141.319043 
L 581.493278 141.10052 
L 581.936862 140.634339 
L 582.060525 140.459521 
L 582.365328 140.066181 
L 582.565494 139.905931 
L 583.111697 139.614568 
L 583.784315 138.813319 
L 584.052192 138.638502 
L 584.203582 138.536524 
L 584.679439 138.376275 
L 584.840143 138.216025 
L 584.959831 138.070343 
L 585.389522 137.575026 
L 585.705603 137.036004 
L 587.690824 135.943392 
L 588.100182 135.812279 
L 588.6917 135.550052 
L 588.772261 135.448075 
L 589.434433 135.185848 
L 589.913043 134.705099 
L 590.303771 134.209781 
L 591.499696 133.306556 
L 591.65797 133.102601 
L 592.253431 132.534443 
L 592.402673 132.40333 
L 592.857989 132.272216 
L 593.150794 132.053694 
L 593.320101 131.908012 
L 593.441877 131.776899 
L 593.562615 131.674922 
L 593.702472 131.602081 
L 593.956188 131.470968 
L 593.974026 131.441831 
L 594.597373 131.29615 
L 594.887427 131.1359 
L 595.061137 130.990219 
L 595.223235 130.873673 
L 596.149388 130.509469 
L 596.922116 129.708221 
L 597.738531 129.460562 
L 598.097226 129.125494 
L 598.206814 128.950676 
L 598.447234 128.76129 
L 598.624219 128.644745 
L 599.157294 128.324246 
L 599.322528 128.251405 
L 599.43274 128.105723 
L 599.894251 127.595838 
L 600.004097 127.522997 
L 601.06952 126.998543 
L 601.181328 126.911134 
L 601.349802 126.780021 
L 601.431617 126.634339 
L 601.794562 126.430385 
L 602.016829 126.255567 
L 602.89556 125.862227 
L 603.623585 125.031842 
L 603.737142 124.88616 
L 604.03079 124.813319 
L 604.293629 124.682206 
L 604.476852 124.536524 
L 604.637204 124.390843 
L 604.95368 124.026639 
L 605.263021 123.749844 
L 605.792301 123.61873 
L 606.440715 123.108845 
L 606.641061 122.977732 
L 607.078062 122.569823 
L 607.524784 122.424142 
L 607.711181 122.220187 
L 607.902198 122.059938 
L 608.46103 121.389802 
L 608.949977 121.098439 
L 609.023193 121.054735 
L 609.219784 120.923621 
L 609.869153 120.442872 
L 609.968885 120.326327 
L 610.785838 119.874714 
L 611.239722 119.452237 
L 611.480425 119.219147 
L 612.612941 118.592716 
L 612.815639 118.432466 
L 613.090006 118.228512 
L 613.582939 117.922581 
L 614.008233 117.791467 
L 614.14525 117.68949 
L 614.335342 117.543809 
L 615.02168 116.961082 
L 615.182829 116.873673 
L 615.667836 116.669719 
L 616.805487 115.824766 
L 617.322573 115.63538 
L 617.596702 115.31488 
L 617.785039 115.183767 
L 617.956542 115.038085 
L 618.338884 114.615609 
L 618.488023 114.426223 
L 619.174375 113.901769 
L 619.253038 113.828928 
L 619.543577 113.610406 
L 619.69655 113.42102 
L 620.00658 113.129657 
L 620.704216 112.896566 
L 621.081929 112.415817 
L 621.348889 112.226431 
L 621.864567 112.007908 
L 622.321481 111.833091 
L 622.636364 111.6 
L 622.636364 111.6 
" style="fill:none;stroke:#92c6ff;stroke-linecap:round;stroke-width:1.5;"/>
   </g>
   <g id="line2d_30">
    <defs>
     <path d="M 0 2.5 
C 0.663008 2.5 1.29895 2.236584 1.767767 1.767767 
C 2.236584 1.29895 2.5 0.663008 2.5 0 
C 2.5 -0.663008 2.236584 -1.29895 1.767767 -1.767767 
C 1.29895 -2.236584 0.663008 -2.5 0 -2.5 
C -0.663008 -2.5 -1.29895 -2.236584 -1.767767 -1.767767 
C -2.236584 -1.29895 -2.5 -0.663008 -2.5 0 
C -2.5 0.663008 -2.236584 1.29895 -1.767767 1.767767 
C -1.29895 2.236584 -0.663008 2.5 0 2.5 
z
" id="m015ae4b408" style="stroke:#696969;"/>
    </defs>
    <g clip-path="url(#pd4a0674f3e)">
     <use style="fill:#696969;stroke:#696969;" x="115.363636" xlink:href="#m015ae4b408" y="615.6"/>
    </g>
   </g>
   <g id="line2d_31">
    <g clip-path="url(#pd4a0674f3e)">
     <use style="fill:#696969;stroke:#696969;" x="201.25427" xlink:href="#m015ae4b408" y="565.194173"/>
    </g>
   </g>
   <g id="line2d_32">
    <g clip-path="url(#pd4a0674f3e)">
     <use style="fill:#696969;stroke:#696969;" x="245.624838" xlink:href="#m015ae4b408" y="514.788345"/>
    </g>
   </g>
   <g id="line2d_33">
    <g clip-path="url(#pd4a0674f3e)">
     <use style="fill:#696969;stroke:#696969;" x="284.160691" xlink:href="#m015ae4b408" y="464.382518"/>
    </g>
   </g>
   <g id="line2d_34">
    <g clip-path="url(#pd4a0674f3e)">
     <use style="fill:#696969;stroke:#696969;" x="313.518899" xlink:href="#m015ae4b408" y="413.976691"/>
    </g>
   </g>
   <g id="line2d_35">
    <g clip-path="url(#pd4a0674f3e)">
     <use style="fill:#696969;stroke:#696969;" x="348.673329" xlink:href="#m015ae4b408" y="363.570864"/>
    </g>
   </g>
   <g id="line2d_36">
    <g clip-path="url(#pd4a0674f3e)">
     <use style="fill:#696969;stroke:#696969;" x="389.937965" xlink:href="#m015ae4b408" y="313.165036"/>
    </g>
   </g>
   <g id="line2d_37">
    <g clip-path="url(#pd4a0674f3e)">
     <use style="fill:#696969;stroke:#696969;" x="435.49742" xlink:href="#m015ae4b408" y="262.759209"/>
    </g>
   </g>
   <g id="line2d_38">
    <g clip-path="url(#pd4a0674f3e)">
     <use style="fill:#696969;stroke:#696969;" x="491.710576" xlink:href="#m015ae4b408" y="212.36795"/>
    </g>
   </g>
   <g id="line2d_39">
    <g clip-path="url(#pd4a0674f3e)">
     <use style="fill:#696969;stroke:#696969;" x="555.568398" xlink:href="#m015ae4b408" y="161.976691"/>
    </g>
   </g>
   <g id="line2d_40">
    <g clip-path="url(#pd4a0674f3e)">
     <use style="fill:#696969;stroke:#696969;" x="622.636364" xlink:href="#m015ae4b408" y="111.6"/>
    </g>
   </g>
   <g id="patch_3">
    <path d="M 90 640.8 
L 90 86.4 
" style="fill:none;stroke:#cccccc;stroke-linecap:square;stroke-linejoin:miter;"/>
   </g>
   <g id="patch_4">
    <path d="M 648 640.8 
L 648 86.4 
" style="fill:none;stroke:#cccccc;stroke-linecap:square;stroke-linejoin:miter;"/>
   </g>
   <g id="patch_5">
    <path d="M 90 640.8 
L 648 640.8 
" style="fill:none;stroke:#cccccc;stroke-linecap:square;stroke-linejoin:miter;"/>
   </g>
   <g id="patch_6">
    <path d="M 90 86.4 
L 648 86.4 
" style="fill:none;stroke:#cccccc;stroke-linecap:square;stroke-linejoin:miter;"/>
   </g>
   <g id="text_15">
    <!-- 1 (2014-06-06) -->
    <defs>
     <path id="DejaVuSans-32"/>
     <path d="M 31 75.875 
Q 24.46875 64.65625 21.28125 53.65625 
Q 18.109375 42.671875 18.109375 31.390625 
Q 18.109375 20.125 21.3125 9.0625 
Q 24.515625 -2 31 -13.1875 
L 23.1875 -13.1875 
Q 15.875 -1.703125 12.234375 9.375 
Q 8.59375 20.453125 8.59375 31.390625 
Q 8.59375 42.28125 12.203125 53.3125 
Q 15.828125 64.359375 23.1875 75.875 
z
" id="DejaVuSans-40"/>
     <path d="M 37.796875 64.3125 
L 12.890625 25.390625 
L 37.796875 25.390625 
z
M 35.203125 72.90625 
L 47.609375 72.90625 
L 47.609375 25.390625 
L 58.015625 25.390625 
L 58.015625 17.1875 
L 47.609375 17.1875 
L 47.609375 0 
L 37.796875 0 
L 37.796875 17.1875 
L 4.890625 17.1875 
L 4.890625 26.703125 
z
" id="DejaVuSans-52"/>
     <path d="M 4.890625 31.390625 
L 31.203125 31.390625 
L 31.203125 23.390625 
L 4.890625 23.390625 
z
" id="DejaVuSans-45"/>
     <path d="M 8.015625 75.875 
L 15.828125 75.875 
Q 23.140625 64.359375 26.78125 53.3125 
Q 30.421875 42.28125 30.421875 31.390625 
Q 30.421875 20.453125 26.78125 9.375 
Q 23.140625 -1.703125 15.828125 -13.1875 
L 8.015625 -13.1875 
Q 14.5 -2 17.703125 9.0625 
Q 20.90625 20.125 20.90625 31.390625 
Q 20.90625 42.671875 17.703125 53.65625 
Q 14.5 64.65625 8.015625 75.875 
z
" id="DejaVuSans-41"/>
    </defs>
    <g style="fill:#262626;" transform="translate(120.363636 623.198437)scale(0.1 -0.1)">
     <use xlink:href="#DejaVuSans-49"/>
     <use x="63.623047" xlink:href="#DejaVuSans-32"/>
     <use x="95.410156" xlink:href="#DejaVuSans-40"/>
     <use x="134.423828" xlink:href="#DejaVuSans-50"/>
     <use x="198.046875" xlink:href="#DejaVuSans-48"/>
     <use x="261.669922" xlink:href="#DejaVuSans-49"/>
     <use x="325.292969" xlink:href="#DejaVuSans-52"/>
     <use x="388.916016" xlink:href="#DejaVuSans-45"/>
     <use x="425" xlink:href="#DejaVuSans-48"/>
     <use x="488.623047" xlink:href="#DejaVuSans-54"/>
     <use x="552.246094" xlink:href="#DejaVuSans-45"/>
     <use x="588.330078" xlink:href="#DejaVuSans-48"/>
     <use x="651.953125" xlink:href="#DejaVuSans-54"/>
     <use x="715.576172" xlink:href="#DejaVuSans-41"/>
    </g>
   </g>
   <g id="text_16">
    <!-- 3461 (2015-06-11) -->
    <g style="fill:#262626;" transform="translate(206.25427 572.79261)scale(0.1 -0.1)">
     <use xlink:href="#DejaVuSans-51"/>
     <use x="63.623047" xlink:href="#DejaVuSans-52"/>
     <use x="127.246094" xlink:href="#DejaVuSans-54"/>
     <use x="190.869141" xlink:href="#DejaVuSans-49"/>
     <use x="254.492188" xlink:href="#DejaVuSans-32"/>
     <use x="286.279297" xlink:href="#DejaVuSans-40"/>
     <use x="325.292969" xlink:href="#DejaVuSans-50"/>
     <use x="388.916016" xlink:href="#DejaVuSans-48"/>
     <use x="452.539062" xlink:href="#DejaVuSans-49"/>
     <use x="516.162109" xlink:href="#DejaVuSans-53"/>
     <use x="579.785156" xlink:href="#DejaVuSans-45"/>
     <use x="615.869141" xlink:href="#DejaVuSans-48"/>
     <use x="679.492188" xlink:href="#DejaVuSans-54"/>
     <use x="743.115234" xlink:href="#DejaVuSans-45"/>
     <use x="779.199219" xlink:href="#DejaVuSans-49"/>
     <use x="842.822266" xlink:href="#DejaVuSans-49"/>
     <use x="906.445312" xlink:href="#DejaVuSans-41"/>
    </g>
   </g>
   <g id="text_17">
    <!-- 6921 (2015-12-19) -->
    <g style="fill:#262626;" transform="translate(250.624838 522.386783)scale(0.1 -0.1)">
     <use xlink:href="#DejaVuSans-54"/>
     <use x="63.623047" xlink:href="#DejaVuSans-57"/>
     <use x="127.246094" xlink:href="#DejaVuSans-50"/>
     <use x="190.869141" xlink:href="#DejaVuSans-49"/>
     <use x="254.492188" xlink:href="#DejaVuSans-32"/>
     <use x="286.279297" xlink:href="#DejaVuSans-40"/>
     <use x="325.292969" xlink:href="#DejaVuSans-50"/>
     <use x="388.916016" xlink:href="#DejaVuSans-48"/>
     <use x="452.539062" xlink:href="#DejaVuSans-49"/>
     <use x="516.162109" xlink:href="#DejaVuSans-53"/>
     <use x="579.785156" xlink:href="#DejaVuSans-45"/>
     <use x="615.869141" xlink:href="#DejaVuSans-49"/>
     <use x="679.492188" xlink:href="#DejaVuSans-50"/>
     <use x="743.115234" xlink:href="#DejaVuSans-45"/>
     <use x="779.199219" xlink:href="#DejaVuSans-49"/>
     <use x="842.822266" xlink:href="#DejaVuSans-57"/>
     <use x="906.445312" xlink:href="#DejaVuSans-41"/>
    </g>
   </g>
   <g id="text_18">
    <!-- 10381 (2016-06-01) -->
    <g style="fill:#262626;" transform="translate(289.160691 471.980956)scale(0.1 -0.1)">
     <use xlink:href="#DejaVuSans-49"/>
     <use x="63.623047" xlink:href="#DejaVuSans-48"/>
     <use x="127.246094" xlink:href="#DejaVuSans-51"/>
     <use x="190.869141" xlink:href="#DejaVuSans-56"/>
     <use x="254.492188" xlink:href="#DejaVuSans-49"/>
     <use x="318.115234" xlink:href="#DejaVuSans-32"/>
     <use x="349.902344" xlink:href="#DejaVuSans-40"/>
     <use x="388.916016" xlink:href="#DejaVuSans-50"/>
     <use x="452.539062" xlink:href="#DejaVuSans-48"/>
     <use x="516.162109" xlink:href="#DejaVuSans-49"/>
     <use x="579.785156" xlink:href="#DejaVuSans-54"/>
     <use x="643.408203" xlink:href="#DejaVuSans-45"/>
     <use x="679.492188" xlink:href="#DejaVuSans-48"/>
     <use x="743.115234" xlink:href="#DejaVuSans-54"/>
     <use x="806.738281" xlink:href="#DejaVuSans-45"/>
     <use x="842.822266" xlink:href="#DejaVuSans-48"/>
     <use x="906.445312" xlink:href="#DejaVuSans-49"/>
     <use x="970.068359" xlink:href="#DejaVuSans-41"/>
    </g>
   </g>
   <g id="text_19">
    <!-- 13841 (2016-10-06) -->
    <g style="fill:#262626;" transform="translate(318.518899 421.575128)scale(0.1 -0.1)">
     <use xlink:href="#DejaVuSans-49"/>
     <use x="63.623047" xlink:href="#DejaVuSans-51"/>
     <use x="127.246094" xlink:href="#DejaVuSans-56"/>
     <use x="190.869141" xlink:href="#DejaVuSans-52"/>
     <use x="254.492188" xlink:href="#DejaVuSans-49"/>
     <use x="318.115234" xlink:href="#DejaVuSans-32"/>
     <use x="349.902344" xlink:href="#DejaVuSans-40"/>
     <use x="388.916016" xlink:href="#DejaVuSans-50"/>
     <use x="452.539062" xlink:href="#DejaVuSans-48"/>
     <use x="516.162109" xlink:href="#DejaVuSans-49"/>
     <use x="579.785156" xlink:href="#DejaVuSans-54"/>
     <use x="643.408203" xlink:href="#DejaVuSans-45"/>
     <use x="679.492188" xlink:href="#DejaVuSans-49"/>
     <use x="743.115234" xlink:href="#DejaVuSans-48"/>
     <use x="806.738281" xlink:href="#DejaVuSans-45"/>
     <use x="842.822266" xlink:href="#DejaVuSans-48"/>
     <use x="906.445312" xlink:href="#DejaVuSans-54"/>
     <use x="970.068359" xlink:href="#DejaVuSans-41"/>
    </g>
   </g>
   <g id="text_20">
    <!-- 17301 (2017-03-06) -->
    <g style="fill:#262626;" transform="translate(353.673329 371.169301)scale(0.1 -0.1)">
     <use xlink:href="#DejaVuSans-49"/>
     <use x="63.623047" xlink:href="#DejaVuSans-55"/>
     <use x="127.246094" xlink:href="#DejaVuSans-51"/>
     <use x="190.869141" xlink:href="#DejaVuSans-48"/>
     <use x="254.492188" xlink:href="#DejaVuSans-49"/>
     <use x="318.115234" xlink:href="#DejaVuSans-32"/>
     <use x="349.902344" xlink:href="#DejaVuSans-40"/>
     <use x="388.916016" xlink:href="#DejaVuSans-50"/>
     <use x="452.539062" xlink:href="#DejaVuSans-48"/>
     <use x="516.162109" xlink:href="#DejaVuSans-49"/>
     <use x="579.785156" xlink:href="#DejaVuSans-55"/>
     <use x="643.408203" xlink:href="#DejaVuSans-45"/>
     <use x="679.492188" xlink:href="#DejaVuSans-48"/>
     <use x="743.115234" xlink:href="#DejaVuSans-51"/>
     <use x="806.738281" xlink:href="#DejaVuSans-45"/>
     <use x="842.822266" xlink:href="#DejaVuSans-48"/>
     <use x="906.445312" xlink:href="#DejaVuSans-54"/>
     <use x="970.068359" xlink:href="#DejaVuSans-41"/>
    </g>
   </g>
   <g id="text_21">
    <!-- 20761 (2017-08-30) -->
    <g style="fill:#262626;" transform="translate(394.937965 320.763474)scale(0.1 -0.1)">
     <use xlink:href="#DejaVuSans-50"/>
     <use x="63.623047" xlink:href="#DejaVuSans-48"/>
     <use x="127.246094" xlink:href="#DejaVuSans-55"/>
     <use x="190.869141" xlink:href="#DejaVuSans-54"/>
     <use x="254.492188" xlink:href="#DejaVuSans-49"/>
     <use x="318.115234" xlink:href="#DejaVuSans-32"/>
     <use x="349.902344" xlink:href="#DejaVuSans-40"/>
     <use x="388.916016" xlink:href="#DejaVuSans-50"/>
     <use x="452.539062" xlink:href="#DejaVuSans-48"/>
     <use x="516.162109" xlink:href="#DejaVuSans-49"/>
     <use x="579.785156" xlink:href="#DejaVuSans-55"/>
     <use x="643.408203" xlink:href="#DejaVuSans-45"/>
     <use x="679.492188" xlink:href="#DejaVuSans-48"/>
     <use x="743.115234" xlink:href="#DejaVuSans-56"/>
     <use x="806.738281" xlink:href="#DejaVuSans-45"/>
     <use x="842.822266" xlink:href="#DejaVuSans-51"/>
     <use x="906.445312" xlink:href="#DejaVuSans-48"/>
     <use x="970.068359" xlink:href="#DejaVuSans-41"/>
    </g>
   </g>
   <g id="text_22">
    <!-- 24221 (2018-03-14) -->
    <g style="fill:#262626;" transform="translate(440.49742 270.357647)scale(0.1 -0.1)">
     <use xlink:href="#DejaVuSans-50"/>
     <use x="63.623047" xlink:href="#DejaVuSans-52"/>
     <use x="127.246094" xlink:href="#DejaVuSans-50"/>
     <use x="190.869141" xlink:href="#DejaVuSans-50"/>
     <use x="254.492188" xlink:href="#DejaVuSans-49"/>
     <use x="318.115234" xlink:href="#DejaVuSans-32"/>
     <use x="349.902344" xlink:href="#DejaVuSans-40"/>
     <use x="388.916016" xlink:href="#DejaVuSans-50"/>
     <use x="452.539062" xlink:href="#DejaVuSans-48"/>
     <use x="516.162109" xlink:href="#DejaVuSans-49"/>
     <use x="579.785156" xlink:href="#DejaVuSans-56"/>
     <use x="643.408203" xlink:href="#DejaVuSans-45"/>
     <use x="679.492188" xlink:href="#DejaVuSans-48"/>
     <use x="743.115234" xlink:href="#DejaVuSans-51"/>
     <use x="806.738281" xlink:href="#DejaVuSans-45"/>
     <use x="842.822266" xlink:href="#DejaVuSans-49"/>
     <use x="906.445312" xlink:href="#DejaVuSans-52"/>
     <use x="970.068359" xlink:href="#DejaVuSans-41"/>
    </g>
   </g>
   <g id="text_23">
    <!-- 27680 (2018-11-11) -->
    <g style="fill:#262626;" transform="translate(496.710576 219.966388)scale(0.1 -0.1)">
     <use xlink:href="#DejaVuSans-50"/>
     <use x="63.623047" xlink:href="#DejaVuSans-55"/>
     <use x="127.246094" xlink:href="#DejaVuSans-54"/>
     <use x="190.869141" xlink:href="#DejaVuSans-56"/>
     <use x="254.492188" xlink:href="#DejaVuSans-48"/>
     <use x="318.115234" xlink:href="#DejaVuSans-32"/>
     <use x="349.902344" xlink:href="#DejaVuSans-40"/>
     <use x="388.916016" xlink:href="#DejaVuSans-50"/>
     <use x="452.539062" xlink:href="#DejaVuSans-48"/>
     <use x="516.162109" xlink:href="#DejaVuSans-49"/>
     <use x="579.785156" xlink:href="#DejaVuSans-56"/>
     <use x="643.408203" xlink:href="#DejaVuSans-45"/>
     <use x="679.492188" xlink:href="#DejaVuSans-49"/>
     <use x="743.115234" xlink:href="#DejaVuSans-49"/>
     <use x="806.738281" xlink:href="#DejaVuSans-45"/>
     <use x="842.822266" xlink:href="#DejaVuSans-49"/>
     <use x="906.445312" xlink:href="#DejaVuSans-49"/>
     <use x="970.068359" xlink:href="#DejaVuSans-41"/>
    </g>
   </g>
   <g id="text_24">
    <!-- 31139 (2019-08-13) -->
    <g style="fill:#262626;" transform="translate(560.568398 169.575128)scale(0.1 -0.1)">
     <use xlink:href="#DejaVuSans-51"/>
     <use x="63.623047" xlink:href="#DejaVuSans-49"/>
     <use x="127.246094" xlink:href="#DejaVuSans-49"/>
     <use x="190.869141" xlink:href="#DejaVuSans-51"/>
     <use x="254.492188" xlink:href="#DejaVuSans-57"/>
     <use x="318.115234" xlink:href="#DejaVuSans-32"/>
     <use x="349.902344" xlink:href="#DejaVuSans-40"/>
     <use x="388.916016" xlink:href="#DejaVuSans-50"/>
     <use x="452.539062" xlink:href="#DejaVuSans-48"/>
     <use x="516.162109" xlink:href="#DejaVuSans-49"/>
     <use x="579.785156" xlink:href="#DejaVuSans-57"/>
     <use x="643.408203" xlink:href="#DejaVuSans-45"/>
     <use x="679.492188" xlink:href="#DejaVuSans-48"/>
     <use x="743.115234" xlink:href="#DejaVuSans-56"/>
     <use x="806.738281" xlink:href="#DejaVuSans-45"/>
     <use x="842.822266" xlink:href="#DejaVuSans-49"/>
     <use x="906.445312" xlink:href="#DejaVuSans-51"/>
     <use x="970.068359" xlink:href="#DejaVuSans-41"/>
    </g>
   </g>
   <g id="text_25">
    <!-- 34597 (2020-05-27) -->
    <g style="fill:#262626;" transform="translate(627.636364 119.198438)scale(0.1 -0.1)">
     <use xlink:href="#DejaVuSans-51"/>
     <use x="63.623047" xlink:href="#DejaVuSans-52"/>
     <use x="127.246094" xlink:href="#DejaVuSans-53"/>
     <use x="190.869141" xlink:href="#DejaVuSans-57"/>
     <use x="254.492188" xlink:href="#DejaVuSans-55"/>
     <use x="318.115234" xlink:href="#DejaVuSans-32"/>
     <use x="349.902344" xlink:href="#DejaVuSans-40"/>
     <use x="388.916016" xlink:href="#DejaVuSans-50"/>
     <use x="452.539062" xlink:href="#DejaVuSans-48"/>
     <use x="516.162109" xlink:href="#DejaVuSans-50"/>
     <use x="579.785156" xlink:href="#DejaVuSans-48"/>
     <use x="643.408203" xlink:href="#DejaVuSans-45"/>
     <use x="679.492188" xlink:href="#DejaVuSans-48"/>
     <use x="743.115234" xlink:href="#DejaVuSans-53"/>
     <use x="806.738281" xlink:href="#DejaVuSans-45"/>
     <use x="842.822266" xlink:href="#DejaVuSans-50"/>
     <use x="906.445312" xlink:href="#DejaVuSans-55"/>
     <use x="970.068359" xlink:href="#DejaVuSans-41"/>
    </g>
   </g>
   <g id="text_26">
    <!-- Created issues over time -->
    <defs>
     <path d="M 64.40625 67.28125 
L 64.40625 56.890625 
Q 59.421875 61.53125 53.78125 63.8125 
Q 48.140625 66.109375 41.796875 66.109375 
Q 29.296875 66.109375 22.65625 58.46875 
Q 16.015625 50.828125 16.015625 36.375 
Q 16.015625 21.96875 22.65625 14.328125 
Q 29.296875 6.6875 41.796875 6.6875 
Q 48.140625 6.6875 53.78125 8.984375 
Q 59.421875 11.28125 64.40625 15.921875 
L 64.40625 5.609375 
Q 59.234375 2.09375 53.4375 0.328125 
Q 47.65625 -1.421875 41.21875 -1.421875 
Q 24.65625 -1.421875 15.125 8.703125 
Q 5.609375 18.84375 5.609375 36.375 
Q 5.609375 53.953125 15.125 64.078125 
Q 24.65625 74.21875 41.21875 74.21875 
Q 47.75 74.21875 53.53125 72.484375 
Q 59.328125 70.75 64.40625 67.28125 
z
" id="DejaVuSans-67"/>
     <path d="M 41.109375 46.296875 
Q 39.59375 47.171875 37.8125 47.578125 
Q 36.03125 48 33.890625 48 
Q 26.265625 48 22.1875 43.046875 
Q 18.109375 38.09375 18.109375 28.8125 
L 18.109375 0 
L 9.078125 0 
L 9.078125 54.6875 
L 18.109375 54.6875 
L 18.109375 46.1875 
Q 20.953125 51.171875 25.484375 53.578125 
Q 30.03125 56 36.53125 56 
Q 37.453125 56 38.578125 55.875 
Q 39.703125 55.765625 41.0625 55.515625 
z
" id="DejaVuSans-114"/>
     <path d="M 56.203125 29.59375 
L 56.203125 25.203125 
L 14.890625 25.203125 
Q 15.484375 15.921875 20.484375 11.0625 
Q 25.484375 6.203125 34.421875 6.203125 
Q 39.59375 6.203125 44.453125 7.46875 
Q 49.3125 8.734375 54.109375 11.28125 
L 54.109375 2.78125 
Q 49.265625 0.734375 44.1875 -0.34375 
Q 39.109375 -1.421875 33.890625 -1.421875 
Q 20.796875 -1.421875 13.15625 6.1875 
Q 5.515625 13.8125 5.515625 26.8125 
Q 5.515625 40.234375 12.765625 48.109375 
Q 20.015625 56 32.328125 56 
Q 43.359375 56 49.78125 48.890625 
Q 56.203125 41.796875 56.203125 29.59375 
z
M 47.21875 32.234375 
Q 47.125 39.59375 43.09375 43.984375 
Q 39.0625 48.390625 32.421875 48.390625 
Q 24.90625 48.390625 20.390625 44.140625 
Q 15.875 39.890625 15.1875 32.171875 
z
" id="DejaVuSans-101"/>
     <path d="M 34.28125 27.484375 
Q 23.390625 27.484375 19.1875 25 
Q 14.984375 22.515625 14.984375 16.5 
Q 14.984375 11.71875 18.140625 8.90625 
Q 21.296875 6.109375 26.703125 6.109375 
Q 34.1875 6.109375 38.703125 11.40625 
Q 43.21875 16.703125 43.21875 25.484375 
L 43.21875 27.484375 
z
M 52.203125 31.203125 
L 52.203125 0 
L 43.21875 0 
L 43.21875 8.296875 
Q 40.140625 3.328125 35.546875 0.953125 
Q 30.953125 -1.421875 24.3125 -1.421875 
Q 15.921875 -1.421875 10.953125 3.296875 
Q 6 8.015625 6 15.921875 
Q 6 25.140625 12.171875 29.828125 
Q 18.359375 34.515625 30.609375 34.515625 
L 43.21875 34.515625 
L 43.21875 35.40625 
Q 43.21875 41.609375 39.140625 45 
Q 35.0625 48.390625 27.6875 48.390625 
Q 23 48.390625 18.546875 47.265625 
Q 14.109375 46.140625 10.015625 43.890625 
L 10.015625 52.203125 
Q 14.9375 54.109375 19.578125 55.046875 
Q 24.21875 56 28.609375 56 
Q 40.484375 56 46.34375 49.84375 
Q 52.203125 43.703125 52.203125 31.203125 
z
" id="DejaVuSans-97"/>
     <path d="M 18.3125 70.21875 
L 18.3125 54.6875 
L 36.8125 54.6875 
L 36.8125 47.703125 
L 18.3125 47.703125 
L 18.3125 18.015625 
Q 18.3125 11.328125 20.140625 9.421875 
Q 21.96875 7.515625 27.59375 7.515625 
L 36.8125 7.515625 
L 36.8125 0 
L 27.59375 0 
Q 17.1875 0 13.234375 3.875 
Q 9.28125 7.765625 9.28125 18.015625 
L 9.28125 47.703125 
L 2.6875 47.703125 
L 2.6875 54.6875 
L 9.28125 54.6875 
L 9.28125 70.21875 
z
" id="DejaVuSans-116"/>
     <path d="M 45.40625 46.390625 
L 45.40625 75.984375 
L 54.390625 75.984375 
L 54.390625 0 
L 45.40625 0 
L 45.40625 8.203125 
Q 42.578125 3.328125 38.25 0.953125 
Q 33.9375 -1.421875 27.875 -1.421875 
Q 17.96875 -1.421875 11.734375 6.484375 
Q 5.515625 14.40625 5.515625 27.296875 
Q 5.515625 40.1875 11.734375 48.09375 
Q 17.96875 56 27.875 56 
Q 33.9375 56 38.25 53.625 
Q 42.578125 51.265625 45.40625 46.390625 
z
M 14.796875 27.296875 
Q 14.796875 17.390625 18.875 11.75 
Q 22.953125 6.109375 30.078125 6.109375 
Q 37.203125 6.109375 41.296875 11.75 
Q 45.40625 17.390625 45.40625 27.296875 
Q 45.40625 37.203125 41.296875 42.84375 
Q 37.203125 48.484375 30.078125 48.484375 
Q 22.953125 48.484375 18.875 42.84375 
Q 14.796875 37.203125 14.796875 27.296875 
z
" id="DejaVuSans-100"/>
     <path d="M 9.421875 54.6875 
L 18.40625 54.6875 
L 18.40625 0 
L 9.421875 0 
z
M 9.421875 75.984375 
L 18.40625 75.984375 
L 18.40625 64.59375 
L 9.421875 64.59375 
z
" id="DejaVuSans-105"/>
     <path d="M 44.28125 53.078125 
L 44.28125 44.578125 
Q 40.484375 46.53125 36.375 47.5 
Q 32.28125 48.484375 27.875 48.484375 
Q 21.1875 48.484375 17.84375 46.4375 
Q 14.5 44.390625 14.5 40.28125 
Q 14.5 37.15625 16.890625 35.375 
Q 19.28125 33.59375 26.515625 31.984375 
L 29.59375 31.296875 
Q 39.15625 29.25 43.1875 25.515625 
Q 47.21875 21.78125 47.21875 15.09375 
Q 47.21875 7.46875 41.1875 3.015625 
Q 35.15625 -1.421875 24.609375 -1.421875 
Q 20.21875 -1.421875 15.453125 -0.5625 
Q 10.6875 0.296875 5.421875 2 
L 5.421875 11.28125 
Q 10.40625 8.6875 15.234375 7.390625 
Q 20.0625 6.109375 24.8125 6.109375 
Q 31.15625 6.109375 34.5625 8.28125 
Q 37.984375 10.453125 37.984375 14.40625 
Q 37.984375 18.0625 35.515625 20.015625 
Q 33.0625 21.96875 24.703125 23.78125 
L 21.578125 24.515625 
Q 13.234375 26.265625 9.515625 29.90625 
Q 5.8125 33.546875 5.8125 39.890625 
Q 5.8125 47.609375 11.28125 51.796875 
Q 16.75 56 26.8125 56 
Q 31.78125 56 36.171875 55.265625 
Q 40.578125 54.546875 44.28125 53.078125 
z
" id="DejaVuSans-115"/>
     <path d="M 8.5 21.578125 
L 8.5 54.6875 
L 17.484375 54.6875 
L 17.484375 21.921875 
Q 17.484375 14.15625 20.5 10.265625 
Q 23.53125 6.390625 29.59375 6.390625 
Q 36.859375 6.390625 41.078125 11.03125 
Q 45.3125 15.671875 45.3125 23.6875 
L 45.3125 54.6875 
L 54.296875 54.6875 
L 54.296875 0 
L 45.3125 0 
L 45.3125 8.40625 
Q 42.046875 3.421875 37.71875 1 
Q 33.40625 -1.421875 27.6875 -1.421875 
Q 18.265625 -1.421875 13.375 4.4375 
Q 8.5 10.296875 8.5 21.578125 
z
M 31.109375 56 
z
" id="DejaVuSans-117"/>
     <path d="M 30.609375 48.390625 
Q 23.390625 48.390625 19.1875 42.75 
Q 14.984375 37.109375 14.984375 27.296875 
Q 14.984375 17.484375 19.15625 11.84375 
Q 23.34375 6.203125 30.609375 6.203125 
Q 37.796875 6.203125 41.984375 11.859375 
Q 46.1875 17.53125 46.1875 27.296875 
Q 46.1875 37.015625 41.984375 42.703125 
Q 37.796875 48.390625 30.609375 48.390625 
z
M 30.609375 56 
Q 42.328125 56 49.015625 48.375 
Q 55.71875 40.765625 55.71875 27.296875 
Q 55.71875 13.875 49.015625 6.21875 
Q 42.328125 -1.421875 30.609375 -1.421875 
Q 18.84375 -1.421875 12.171875 6.21875 
Q 5.515625 13.875 5.515625 27.296875 
Q 5.515625 40.765625 12.171875 48.375 
Q 18.84375 56 30.609375 56 
z
" id="DejaVuSans-111"/>
     <path d="M 2.984375 54.6875 
L 12.5 54.6875 
L 29.59375 8.796875 
L 46.6875 54.6875 
L 56.203125 54.6875 
L 35.6875 0 
L 23.484375 0 
z
" id="DejaVuSans-118"/>
     <path d="M 52 44.1875 
Q 55.375 50.25 60.0625 53.125 
Q 64.75 56 71.09375 56 
Q 79.640625 56 84.28125 50.015625 
Q 88.921875 44.046875 88.921875 33.015625 
L 88.921875 0 
L 79.890625 0 
L 79.890625 32.71875 
Q 79.890625 40.578125 77.09375 44.375 
Q 74.3125 48.1875 68.609375 48.1875 
Q 61.625 48.1875 57.5625 43.546875 
Q 53.515625 38.921875 53.515625 30.90625 
L 53.515625 0 
L 44.484375 0 
L 44.484375 32.71875 
Q 44.484375 40.625 41.703125 44.40625 
Q 38.921875 48.1875 33.109375 48.1875 
Q 26.21875 48.1875 22.15625 43.53125 
Q 18.109375 38.875 18.109375 30.90625 
L 18.109375 0 
L 9.078125 0 
L 9.078125 54.6875 
L 18.109375 54.6875 
L 18.109375 46.1875 
Q 21.1875 51.21875 25.484375 53.609375 
Q 29.78125 56 35.6875 56 
Q 41.65625 56 45.828125 52.96875 
Q 50 49.953125 52 44.1875 
z
" id="DejaVuSans-109"/>
    </defs>
    <g style="fill:#262626;" transform="translate(294.061875 80.4)scale(0.12 -0.12)">
     <use xlink:href="#DejaVuSans-67"/>
     <use x="69.824219" xlink:href="#DejaVuSans-114"/>
     <use x="108.6875" xlink:href="#DejaVuSans-101"/>
     <use x="170.210938" xlink:href="#DejaVuSans-97"/>
     <use x="231.490234" xlink:href="#DejaVuSans-116"/>
     <use x="270.699219" xlink:href="#DejaVuSans-101"/>
     <use x="332.222656" xlink:href="#DejaVuSans-100"/>
     <use x="395.699219" xlink:href="#DejaVuSans-32"/>
     <use x="427.486328" xlink:href="#DejaVuSans-105"/>
     <use x="455.269531" xlink:href="#DejaVuSans-115"/>
     <use x="507.369141" xlink:href="#DejaVuSans-115"/>
     <use x="559.46875" xlink:href="#DejaVuSans-117"/>
     <use x="622.847656" xlink:href="#DejaVuSans-101"/>
     <use x="684.371094" xlink:href="#DejaVuSans-115"/>
     <use x="736.470703" xlink:href="#DejaVuSans-32"/>
     <use x="768.257812" xlink:href="#DejaVuSans-111"/>
     <use x="829.439453" xlink:href="#DejaVuSans-118"/>
     <use x="888.619141" xlink:href="#DejaVuSans-101"/>
     <use x="950.142578" xlink:href="#DejaVuSans-114"/>
     <use x="991.255859" xlink:href="#DejaVuSans-32"/>
     <use x="1023.042969" xlink:href="#DejaVuSans-116"/>
     <use x="1062.251953" xlink:href="#DejaVuSans-105"/>
     <use x="1090.035156" xlink:href="#DejaVuSans-109"/>
     <use x="1187.447266" xlink:href="#DejaVuSans-101"/>
    </g>
   </g>
  </g>
 </g>
 <defs>
  <clipPath id="pd4a0674f3e">
   <rect height="554.4" width="558" x="90" y="86.4"/>
  </clipPath>
 </defs>
</svg>
