<?xml version="1.0" encoding="utf-8" standalone="no"?>
<!DOCTYPE svg PUBLIC "-//W3C//DTD SVG 1.1//EN"
  "http://www.w3.org/Graphics/SVG/1.1/DTD/svg11.dtd">
<!-- Created with matplotlib (https://matplotlib.org/) -->
<svg height="720pt" version="1.1" viewBox="0 0 720 720" width="720pt" xmlns="http://www.w3.org/2000/svg" xmlns:xlink="http://www.w3.org/1999/xlink">
 <defs>
  <style type="text/css">
*{stroke-linecap:butt;stroke-linejoin:round;}
  </style>
 </defs>
 <g id="figure_1">
  <g id="patch_1">
   <path d="M 0 720 
L 720 720 
L 720 0 
L 0 0 
z
" style="fill:#ffffff;"/>
  </g>
  <g id="axes_1">
   <g id="patch_2">
    <path d="M 90 640.8 
L 648 640.8 
L 648 86.4 
L 90 86.4 
z
" style="fill:#ffffff;"/>
   </g>
   <g id="matplotlib.axis_1">
    <g id="xtick_1">
     <g id="line2d_1">
      <path clip-path="url(#p4442999817)" d="M 163.652525 640.8 
L 163.652525 86.4 
" style="fill:none;stroke:#cccccc;stroke-linecap:round;stroke-width:0.8;"/>
     </g>
     <g id="line2d_2"/>
     <g id="text_1">
      <!-- 2015 -->
      <defs>
       <path d="M 19.1875 8.296875 
L 53.609375 8.296875 
L 53.609375 0 
L 7.328125 0 
L 7.328125 8.296875 
Q 12.9375 14.109375 22.625 23.890625 
Q 32.328125 33.6875 34.8125 36.53125 
Q 39.546875 41.84375 41.421875 45.53125 
Q 43.3125 49.21875 43.3125 52.78125 
Q 43.3125 58.59375 39.234375 62.25 
Q 35.15625 65.921875 28.609375 65.921875 
Q 23.96875 65.921875 18.8125 64.3125 
Q 13.671875 62.703125 7.8125 59.421875 
L 7.8125 69.390625 
Q 13.765625 71.78125 18.9375 73 
Q 24.125 74.21875 28.421875 74.21875 
Q 39.75 74.21875 46.484375 68.546875 
Q 53.21875 62.890625 53.21875 53.421875 
Q 53.21875 48.921875 51.53125 44.890625 
Q 49.859375 40.875 45.40625 35.40625 
Q 44.1875 33.984375 37.640625 27.21875 
Q 31.109375 20.453125 19.1875 8.296875 
z
" id="DejaVuSans-50"/>
       <path d="M 31.78125 66.40625 
Q 24.171875 66.40625 20.328125 58.90625 
Q 16.5 51.421875 16.5 36.375 
Q 16.5 21.390625 20.328125 13.890625 
Q 24.171875 6.390625 31.78125 6.390625 
Q 39.453125 6.390625 43.28125 13.890625 
Q 47.125 21.390625 47.125 36.375 
Q 47.125 51.421875 43.28125 58.90625 
Q 39.453125 66.40625 31.78125 66.40625 
z
M 31.78125 74.21875 
Q 44.046875 74.21875 50.515625 64.515625 
Q 56.984375 54.828125 56.984375 36.375 
Q 56.984375 17.96875 50.515625 8.265625 
Q 44.046875 -1.421875 31.78125 -1.421875 
Q 19.53125 -1.421875 13.0625 8.265625 
Q 6.59375 17.96875 6.59375 36.375 
Q 6.59375 54.828125 13.0625 64.515625 
Q 19.53125 74.21875 31.78125 74.21875 
z
" id="DejaVuSans-48"/>
       <path d="M 12.40625 8.296875 
L 28.515625 8.296875 
L 28.515625 63.921875 
L 10.984375 60.40625 
L 10.984375 69.390625 
L 28.421875 72.90625 
L 38.28125 72.90625 
L 38.28125 8.296875 
L 54.390625 8.296875 
L 54.390625 0 
L 12.40625 0 
z
" id="DejaVuSans-49"/>
       <path d="M 10.796875 72.90625 
L 49.515625 72.90625 
L 49.515625 64.59375 
L 19.828125 64.59375 
L 19.828125 46.734375 
Q 21.96875 47.46875 24.109375 47.828125 
Q 26.265625 48.1875 28.421875 48.1875 
Q 40.625 48.1875 47.75 41.5 
Q 54.890625 34.8125 54.890625 23.390625 
Q 54.890625 11.625 47.5625 5.09375 
Q 40.234375 -1.421875 26.90625 -1.421875 
Q 22.3125 -1.421875 17.546875 -0.640625 
Q 12.796875 0.140625 7.71875 1.703125 
L 7.71875 11.625 
Q 12.109375 9.234375 16.796875 8.0625 
Q 21.484375 6.890625 26.703125 6.890625 
Q 35.15625 6.890625 40.078125 11.328125 
Q 45.015625 15.765625 45.015625 23.390625 
Q 45.015625 31 40.078125 35.4375 
Q 35.15625 39.890625 26.703125 39.890625 
Q 22.75 39.890625 18.8125 39.015625 
Q 14.890625 38.140625 10.796875 36.28125 
z
" id="DejaVuSans-53"/>
      </defs>
      <g style="fill:#262626;" transform="translate(150.927525 651.898438)scale(0.1 -0.1)">
       <use xlink:href="#DejaVuSans-50"/>
       <use x="63.623047" xlink:href="#DejaVuSans-48"/>
       <use x="127.246094" xlink:href="#DejaVuSans-49"/>
       <use x="190.869141" xlink:href="#DejaVuSans-53"/>
      </g>
     </g>
    </g>
    <g id="xtick_2">
     <g id="line2d_3">
      <path clip-path="url(#p4442999817)" d="M 248.388205 640.8 
L 248.388205 86.4 
" style="fill:none;stroke:#cccccc;stroke-linecap:round;stroke-width:0.8;"/>
     </g>
     <g id="line2d_4"/>
     <g id="text_2">
      <!-- 2016 -->
      <defs>
       <path d="M 33.015625 40.375 
Q 26.375 40.375 22.484375 35.828125 
Q 18.609375 31.296875 18.609375 23.390625 
Q 18.609375 15.53125 22.484375 10.953125 
Q 26.375 6.390625 33.015625 6.390625 
Q 39.65625 6.390625 43.53125 10.953125 
Q 47.40625 15.53125 47.40625 23.390625 
Q 47.40625 31.296875 43.53125 35.828125 
Q 39.65625 40.375 33.015625 40.375 
z
M 52.59375 71.296875 
L 52.59375 62.3125 
Q 48.875 64.0625 45.09375 64.984375 
Q 41.3125 65.921875 37.59375 65.921875 
Q 27.828125 65.921875 22.671875 59.328125 
Q 17.53125 52.734375 16.796875 39.40625 
Q 19.671875 43.65625 24.015625 45.921875 
Q 28.375 48.1875 33.59375 48.1875 
Q 44.578125 48.1875 50.953125 41.515625 
Q 57.328125 34.859375 57.328125 23.390625 
Q 57.328125 12.15625 50.6875 5.359375 
Q 44.046875 -1.421875 33.015625 -1.421875 
Q 20.359375 -1.421875 13.671875 8.265625 
Q 6.984375 17.96875 6.984375 36.375 
Q 6.984375 53.65625 15.1875 63.9375 
Q 23.390625 74.21875 37.203125 74.21875 
Q 40.921875 74.21875 44.703125 73.484375 
Q 48.484375 72.75 52.59375 71.296875 
z
" id="DejaVuSans-54"/>
      </defs>
      <g style="fill:#262626;" transform="translate(235.663205 651.898438)scale(0.1 -0.1)">
       <use xlink:href="#DejaVuSans-50"/>
       <use x="63.623047" xlink:href="#DejaVuSans-48"/>
       <use x="127.246094" xlink:href="#DejaVuSans-49"/>
       <use x="190.869141" xlink:href="#DejaVuSans-54"/>
      </g>
     </g>
    </g>
    <g id="xtick_3">
     <g id="line2d_5">
      <path clip-path="url(#p4442999817)" d="M 333.356039 640.8 
L 333.356039 86.4 
" style="fill:none;stroke:#cccccc;stroke-linecap:round;stroke-width:0.8;"/>
     </g>
     <g id="line2d_6"/>
     <g id="text_3">
      <!-- 2017 -->
      <defs>
       <path d="M 8.203125 72.90625 
L 55.078125 72.90625 
L 55.078125 68.703125 
L 28.609375 0 
L 18.3125 0 
L 43.21875 64.59375 
L 8.203125 64.59375 
z
" id="DejaVuSans-55"/>
      </defs>
      <g style="fill:#262626;" transform="translate(320.631039 651.898438)scale(0.1 -0.1)">
       <use xlink:href="#DejaVuSans-50"/>
       <use x="63.623047" xlink:href="#DejaVuSans-48"/>
       <use x="127.246094" xlink:href="#DejaVuSans-49"/>
       <use x="190.869141" xlink:href="#DejaVuSans-55"/>
      </g>
     </g>
    </g>
    <g id="xtick_4">
     <g id="line2d_7">
      <path clip-path="url(#p4442999817)" d="M 418.09172 640.8 
L 418.09172 86.4 
" style="fill:none;stroke:#cccccc;stroke-linecap:round;stroke-width:0.8;"/>
     </g>
     <g id="line2d_8"/>
     <g id="text_4">
      <!-- 2018 -->
      <defs>
       <path d="M 31.78125 34.625 
Q 24.75 34.625 20.71875 30.859375 
Q 16.703125 27.09375 16.703125 20.515625 
Q 16.703125 13.921875 20.71875 10.15625 
Q 24.75 6.390625 31.78125 6.390625 
Q 38.8125 6.390625 42.859375 10.171875 
Q 46.921875 13.96875 46.921875 20.515625 
Q 46.921875 27.09375 42.890625 30.859375 
Q 38.875 34.625 31.78125 34.625 
z
M 21.921875 38.8125 
Q 15.578125 40.375 12.03125 44.71875 
Q 8.5 49.078125 8.5 55.328125 
Q 8.5 64.0625 14.71875 69.140625 
Q 20.953125 74.21875 31.78125 74.21875 
Q 42.671875 74.21875 48.875 69.140625 
Q 55.078125 64.0625 55.078125 55.328125 
Q 55.078125 49.078125 51.53125 44.71875 
Q 48 40.375 41.703125 38.8125 
Q 48.828125 37.15625 52.796875 32.3125 
Q 56.78125 27.484375 56.78125 20.515625 
Q 56.78125 9.90625 50.3125 4.234375 
Q 43.84375 -1.421875 31.78125 -1.421875 
Q 19.734375 -1.421875 13.25 4.234375 
Q 6.78125 9.90625 6.78125 20.515625 
Q 6.78125 27.484375 10.78125 32.3125 
Q 14.796875 37.15625 21.921875 38.8125 
z
M 18.3125 54.390625 
Q 18.3125 48.734375 21.84375 45.5625 
Q 25.390625 42.390625 31.78125 42.390625 
Q 38.140625 42.390625 41.71875 45.5625 
Q 45.3125 48.734375 45.3125 54.390625 
Q 45.3125 60.0625 41.71875 63.234375 
Q 38.140625 66.40625 31.78125 66.40625 
Q 25.390625 66.40625 21.84375 63.234375 
Q 18.3125 60.0625 18.3125 54.390625 
z
" id="DejaVuSans-56"/>
      </defs>
      <g style="fill:#262626;" transform="translate(405.36672 651.898438)scale(0.1 -0.1)">
       <use xlink:href="#DejaVuSans-50"/>
       <use x="63.623047" xlink:href="#DejaVuSans-48"/>
       <use x="127.246094" xlink:href="#DejaVuSans-49"/>
       <use x="190.869141" xlink:href="#DejaVuSans-56"/>
      </g>
     </g>
    </g>
    <g id="xtick_5">
     <g id="line2d_9">
      <path clip-path="url(#p4442999817)" d="M 502.8274 640.8 
L 502.8274 86.4 
" style="fill:none;stroke:#cccccc;stroke-linecap:round;stroke-width:0.8;"/>
     </g>
     <g id="line2d_10"/>
     <g id="text_5">
      <!-- 2019 -->
      <defs>
       <path d="M 10.984375 1.515625 
L 10.984375 10.5 
Q 14.703125 8.734375 18.5 7.8125 
Q 22.3125 6.890625 25.984375 6.890625 
Q 35.75 6.890625 40.890625 13.453125 
Q 46.046875 20.015625 46.78125 33.40625 
Q 43.953125 29.203125 39.59375 26.953125 
Q 35.25 24.703125 29.984375 24.703125 
Q 19.046875 24.703125 12.671875 31.3125 
Q 6.296875 37.9375 6.296875 49.421875 
Q 6.296875 60.640625 12.9375 67.421875 
Q 19.578125 74.21875 30.609375 74.21875 
Q 43.265625 74.21875 49.921875 64.515625 
Q 56.59375 54.828125 56.59375 36.375 
Q 56.59375 19.140625 48.40625 8.859375 
Q 40.234375 -1.421875 26.421875 -1.421875 
Q 22.703125 -1.421875 18.890625 -0.6875 
Q 15.09375 0.046875 10.984375 1.515625 
z
M 30.609375 32.421875 
Q 37.25 32.421875 41.125 36.953125 
Q 45.015625 41.5 45.015625 49.421875 
Q 45.015625 57.28125 41.125 61.84375 
Q 37.25 66.40625 30.609375 66.40625 
Q 23.96875 66.40625 20.09375 61.84375 
Q 16.21875 57.28125 16.21875 49.421875 
Q 16.21875 41.5 20.09375 36.953125 
Q 23.96875 32.421875 30.609375 32.421875 
z
" id="DejaVuSans-57"/>
      </defs>
      <g style="fill:#262626;" transform="translate(490.1024 651.898438)scale(0.1 -0.1)">
       <use xlink:href="#DejaVuSans-50"/>
       <use x="63.623047" xlink:href="#DejaVuSans-48"/>
       <use x="127.246094" xlink:href="#DejaVuSans-49"/>
       <use x="190.869141" xlink:href="#DejaVuSans-57"/>
      </g>
     </g>
    </g>
    <g id="xtick_6">
     <g id="line2d_11">
      <path clip-path="url(#p4442999817)" d="M 587.563081 640.8 
L 587.563081 86.4 
" style="fill:none;stroke:#cccccc;stroke-linecap:round;stroke-width:0.8;"/>
     </g>
     <g id="line2d_12"/>
     <g id="text_6">
      <!-- 2020 -->
      <g style="fill:#262626;" transform="translate(574.838081 651.898438)scale(0.1 -0.1)">
       <use xlink:href="#DejaVuSans-50"/>
       <use x="63.623047" xlink:href="#DejaVuSans-48"/>
       <use x="127.246094" xlink:href="#DejaVuSans-50"/>
       <use x="190.869141" xlink:href="#DejaVuSans-48"/>
      </g>
     </g>
    </g>
   </g>
   <g id="matplotlib.axis_2">
    <g id="ytick_1">
     <g id="line2d_13">
      <path clip-path="url(#p4442999817)" d="M 90 615.605543 
L 648 615.605543 
" style="fill:none;stroke:#cccccc;stroke-linecap:round;stroke-width:0.8;"/>
     </g>
     <g id="line2d_14"/>
     <g id="text_7">
      <!-- 0 -->
      <g style="fill:#262626;" transform="translate(80.1375 619.404762)scale(0.1 -0.1)">
       <use xlink:href="#DejaVuSans-48"/>
      </g>
     </g>
    </g>
    <g id="ytick_2">
     <g id="line2d_15">
      <path clip-path="url(#p4442999817)" d="M 90 504.748601 
L 648 504.748601 
" style="fill:none;stroke:#cccccc;stroke-linecap:round;stroke-width:0.8;"/>
     </g>
     <g id="line2d_16"/>
     <g id="text_8">
      <!-- 20000 -->
      <g style="fill:#262626;" transform="translate(54.6875 508.54782)scale(0.1 -0.1)">
       <use xlink:href="#DejaVuSans-50"/>
       <use x="63.623047" xlink:href="#DejaVuSans-48"/>
       <use x="127.246094" xlink:href="#DejaVuSans-48"/>
       <use x="190.869141" xlink:href="#DejaVuSans-48"/>
       <use x="254.492188" xlink:href="#DejaVuSans-48"/>
      </g>
     </g>
    </g>
    <g id="ytick_3">
     <g id="line2d_17">
      <path clip-path="url(#p4442999817)" d="M 90 393.891659 
L 648 393.891659 
" style="fill:none;stroke:#cccccc;stroke-linecap:round;stroke-width:0.8;"/>
     </g>
     <g id="line2d_18"/>
     <g id="text_9">
      <!-- 40000 -->
      <defs>
       <path d="M 37.796875 64.3125 
L 12.890625 25.390625 
L 37.796875 25.390625 
z
M 35.203125 72.90625 
L 47.609375 72.90625 
L 47.609375 25.390625 
L 58.015625 25.390625 
L 58.015625 17.1875 
L 47.609375 17.1875 
L 47.609375 0 
L 37.796875 0 
L 37.796875 17.1875 
L 4.890625 17.1875 
L 4.890625 26.703125 
z
" id="DejaVuSans-52"/>
      </defs>
      <g style="fill:#262626;" transform="translate(54.6875 397.690878)scale(0.1 -0.1)">
       <use xlink:href="#DejaVuSans-52"/>
       <use x="63.623047" xlink:href="#DejaVuSans-48"/>
       <use x="127.246094" xlink:href="#DejaVuSans-48"/>
       <use x="190.869141" xlink:href="#DejaVuSans-48"/>
       <use x="254.492188" xlink:href="#DejaVuSans-48"/>
      </g>
     </g>
    </g>
    <g id="ytick_4">
     <g id="line2d_19">
      <path clip-path="url(#p4442999817)" d="M 90 283.034718 
L 648 283.034718 
" style="fill:none;stroke:#cccccc;stroke-linecap:round;stroke-width:0.8;"/>
     </g>
     <g id="line2d_20"/>
     <g id="text_10">
      <!-- 60000 -->
      <g style="fill:#262626;" transform="translate(54.6875 286.833936)scale(0.1 -0.1)">
       <use xlink:href="#DejaVuSans-54"/>
       <use x="63.623047" xlink:href="#DejaVuSans-48"/>
       <use x="127.246094" xlink:href="#DejaVuSans-48"/>
       <use x="190.869141" xlink:href="#DejaVuSans-48"/>
       <use x="254.492188" xlink:href="#DejaVuSans-48"/>
      </g>
     </g>
    </g>
    <g id="ytick_5">
     <g id="line2d_21">
      <path clip-path="url(#p4442999817)" d="M 90 172.177776 
L 648 172.177776 
" style="fill:none;stroke:#cccccc;stroke-linecap:round;stroke-width:0.8;"/>
     </g>
     <g id="line2d_22"/>
     <g id="text_11">
      <!-- 80000 -->
      <g style="fill:#262626;" transform="translate(54.6875 175.976995)scale(0.1 -0.1)">
       <use xlink:href="#DejaVuSans-56"/>
       <use x="63.623047" xlink:href="#DejaVuSans-48"/>
       <use x="127.246094" xlink:href="#DejaVuSans-48"/>
       <use x="190.869141" xlink:href="#DejaVuSans-48"/>
       <use x="254.492188" xlink:href="#DejaVuSans-48"/>
      </g>
     </g>
    </g>
   </g>
   <g id="line2d_23">
    <path clip-path="url(#p4442999817)" d="M 115.363636 615.6 
L 115.450449 615.539029 
L 116.705588 615.173201 
L 117.226937 614.979201 
L 117.859051 614.857258 
L 118.031349 614.757487 
L 118.389621 614.613373 
L 118.742466 614.513602 
L 119.524772 614.325145 
L 119.596511 614.253088 
L 120.212626 614.114517 
L 120.305638 614.04246 
L 120.888862 613.903889 
L 122.388118 613.599032 
L 123.076408 613.449375 
L 124.410672 612.961605 
L 124.485327 612.911719 
L 125.042777 612.750977 
L 125.133535 612.673377 
L 126.047796 612.451663 
L 126.11738 612.40732 
L 126.459827 612.268749 
L 127.210341 611.969435 
L 127.482499 611.847493 
L 128.071237 611.614693 
L 128.363867 611.509379 
L 129.019212 611.320922 
L 130.226575 610.92738 
L 130.882599 610.794352 
L 130.963267 610.755552 
L 131.350214 610.628066 
L 131.394375 610.561552 
L 132.257689 610.417438 
L 133.252906 610.01281 
L 133.932562 609.879782 
L 133.989531 609.852068 
L 134.373762 609.724582 
L 134.456453 609.619268 
L 134.666033 609.480697 
L 134.812332 609.419725 
L 134.934456 609.386468 
L 135.813113 609.264526 
L 136.04985 609.131497 
L 137.380256 608.760127 
L 137.500914 608.654813 
L 138.016797 608.422013 
L 139.450527 608.050642 
L 139.540739 607.973042 
L 140.575973 607.801214 
L 140.675742 607.712529 
L 141.082678 607.585043 
L 141.197647 607.518529 
L 142.529598 607.113901 
L 142.607499 607.086187 
L 142.806091 606.958701 
L 142.912322 606.93653 
L 143.876674 606.570702 
L 144.761337 605.911103 
L 145.499974 605.744818 
L 145.64084 605.600704 
L 145.919313 605.45659 
L 146.301723 605.140648 
L 146.915911 604.996534 
L 146.99376 604.935562 
L 147.172349 604.81362 
L 147.352777 604.730477 
L 148.562109 604.408992 
L 148.794786 604.264878 
L 149.240683 604.065335 
L 149.483897 603.926764 
L 150.164102 603.74385 
L 150.249071 603.682879 
L 150.583003 603.54985 
L 150.730747 603.416822 
L 150.896586 603.294879 
L 150.988778 603.244994 
L 151.866118 602.973394 
L 152.354886 602.618652 
L 152.570419 602.474538 
L 152.670946 602.430195 
L 153.877795 601.898082 
L 153.954632 601.792768 
L 154.16786 601.670825 
L 154.279298 601.648654 
L 155.029372 601.327169 
L 155.147436 601.205226 
L 156.006436 600.833855 
L 156.627393 600.711913 
L 156.746484 600.617684 
L 157.112849 600.401513 
L 157.587634 600.251856 
L 157.662809 600.213056 
L 158.319336 600.080028 
L 158.439461 600.041228 
L 159.564007 599.398258 
L 159.910669 599.276315 
L 160.0114 599.204258 
L 160.148179 599.082316 
L 160.428939 598.871687 
L 160.657921 598.710945 
L 160.740346 598.672145 
L 161.523608 598.439345 
L 161.844078 598.173289 
L 163.408058 597.984832 
L 163.517656 597.946032 
L 164.795468 597.713232 
L 165.245615 597.413919 
L 165.34169 597.253176 
L 165.489604 597.120148 
L 165.610869 597.003748 
L 166.623699 596.571406 
L 166.830903 596.421749 
L 166.904106 596.261007 
L 166.980407 596.11135 
L 167.118552 595.989407 
L 167.385412 595.695636 
L 168.25546 595.435122 
L 168.501576 595.135809 
L 168.607281 595.04158 
L 168.732748 594.914095 
L 168.845288 594.803238 
L 168.980292 594.681295 
L 169.381128 594.59261 
L 169.742878 594.387524 
L 169.865274 594.332096 
L 170.015351 594.176896 
L 170.117904 594.049411 
L 170.880003 593.356555 
L 171.319269 593.229069 
L 171.410676 593.157012 
L 171.516445 593.023984 
L 171.733124 592.757927 
L 171.860848 592.558385 
L 171.990845 592.397642 
L 172.096031 592.270157 
L 172.252157 592.148214 
L 173.03278 591.904329 
L 173.167789 591.765758 
L 173.280396 591.710329 
L 173.363442 591.588386 
L 173.461677 591.355587 
L 173.650983 591.183759 
L 173.952518 590.962045 
L 174.591403 590.823474 
L 175.052626 590.241475 
L 175.196361 590.097361 
L 175.690465 589.548619 
L 176.187717 589.271476 
L 176.430338 589.155077 
L 176.646735 588.983248 
L 176.759251 588.944448 
L 176.864351 588.750449 
L 177.006251 588.61742 
L 177.166017 588.440049 
L 177.773507 588.307021 
L 177.895062 588.162907 
L 178.053004 587.991079 
L 178.210392 587.869136 
L 178.270763 587.664051 
L 178.378783 587.52548 
L 178.514501 587.397994 
L 178.700245 587.25388 
L 179.474578 586.766109 
L 179.877065 586.217368 
L 179.988605 586.045539 
L 180.059098 585.918054 
L 180.197473 585.668626 
L 180.323408 585.530055 
L 180.441644 585.374855 
L 181.036347 585.147598 
L 181.188563 585.031198 
L 181.297164 584.848284 
L 181.403916 584.759599 
L 181.514339 584.604399 
L 181.840876 584.144343 
L 181.962601 583.994686 
L 182.082189 583.845029 
L 182.529918 583.700915 
L 182.638463 583.57343 
L 182.841594 583.312916 
L 183.122372 582.77526 
L 183.219779 582.58126 
L 183.336651 582.459317 
L 183.46121 582.226518 
L 183.565138 582.082404 
L 183.649605 581.760919 
L 184.26499 581.533662 
L 184.426787 581.306405 
L 184.522203 581.145663 
L 184.686164 580.874063 
L 184.782333 580.668978 
L 184.900056 580.552578 
L 184.97654 580.397378 
L 185.098901 580.22555 
L 185.40725 580.042636 
L 185.921022 579.782122 
L 186.406484 579.133609 
L 186.523525 579.028295 
L 186.594807 578.906352 
L 186.728967 578.756695 
L 187.316662 578.35761 
L 187.502354 578.230125 
L 187.624329 578.058297 
L 187.773911 577.90864 
L 187.887456 577.758983 
L 188.020455 577.620412 
L 188.139995 577.481841 
L 188.241387 577.298927 
L 188.428262 577.005156 
L 188.809392 576.766813 
L 189.129883 576.650414 
L 189.808715 575.702587 
L 189.876826 575.486416 
L 190.076735 575.264702 
L 190.361689 575.109502 
L 190.678276 574.987559 
L 190.757902 574.860074 
L 190.807809 574.710417 
L 191.134354 574.156132 
L 191.263019 574.028647 
L 191.378122 573.851276 
L 191.474837 573.707162 
L 191.583747 573.513162 
L 191.695215 573.396762 
L 191.847809 573.202763 
L 192.339825 573.064191 
L 192.407426 572.903449 
L 192.514074 572.753792 
L 192.640541 572.55425 
L 192.788288 572.332536 
L 192.885733 572.16625 
L 193.023885 572.005508 
L 193.10484 571.866936 
L 193.245322 571.656308 
L 193.311397 571.539908 
L 193.672198 571.196252 
L 194.005221 571.024424 
L 194.493999 570.292768 
L 195.149801 569.311684 
L 195.630378 569.078884 
L 195.757589 568.685342 
L 196.4081 567.792944 
L 196.543444 567.654373 
L 196.676953 567.355059 
L 196.989806 567.222031 
L 197.122649 567.149974 
L 197.356483 566.994774 
L 197.759354 566.473746 
L 197.853155 566.362889 
L 197.961415 566.224318 
L 198.086076 565.902833 
L 198.231395 565.714376 
L 198.319038 565.647862 
L 198.877837 565.487119 
L 199.277408 564.877406 
L 199.362843 564.700035 
L 199.478914 564.483864 
L 199.604736 564.350836 
L 200.13374 563.796551 
L 200.494855 563.65798 
L 200.708075 563.209009 
L 200.775727 562.992838 
L 200.909583 562.70461 
L 201.010527 562.427468 
L 201.126985 562.211297 
L 201.247921 562.033926 
L 201.356662 561.934154 
L 201.462493 561.773412 
L 201.501559 561.645926 
L 202.161917 561.529527 
L 202.459935 560.908728 
L 202.588576 560.786785 
L 202.73143 560.459757 
L 202.829332 560.287929 
L 202.919474 560.060672 
L 203.06347 559.922101 
L 203.247397 559.656044 
L 203.765952 559.467588 
L 203.876979 559.340102 
L 203.993343 559.168274 
L 204.51021 558.453247 
L 204.970697 557.982105 
L 205.37022 557.843533 
L 205.508273 557.560848 
L 205.657718 557.283706 
L 206.4086 556.563136 
L 206.930809 556.413479 
L 207.188754 555.936794 
L 207.266374 555.71508 
L 207.374449 555.454566 
L 207.684217 555.005596 
L 207.85217 554.711825 
L 207.959659 554.551082 
L 208.149081 554.340454 
L 208.374255 554.262854 
L 208.599408 554.140911 
L 208.729645 553.847141 
L 208.878061 553.59217 
L 209.20908 552.971371 
L 209.3786 552.705314 
L 209.61988 552.239715 
L 209.678635 552.173201 
L 209.845285 552.056801 
L 209.937829 551.91823 
L 210.170995 551.796287 
L 210.330842 551.424916 
L 210.484885 551.258631 
L 211.444774 550.177776 
L 211.901359 549.989319 
L 212.021909 549.867376 
L 212.141675 549.701091 
L 212.285897 549.568063 
L 212.44667 549.390692 
L 212.932847 548.76435 
L 213.477355 548.620236 
L 214.761981 546.968467 
L 215.135752 546.713496 
L 215.253782 546.574925 
L 215.398267 546.364297 
L 215.548048 546.192469 
L 215.948095 545.499613 
L 216.258583 545.167042 
L 216.732239 545.006299 
L 216.925643 544.706986 
L 217.889159 543.520816 
L 218.404696 543.304645 
L 219.573359 541.913391 
L 219.92691 541.785905 
L 220.292244 541.242706 
L 220.456753 541.037621 
L 220.799022 540.682879 
L 221.776398 540.228365 
L 221.885305 540.045451 
L 222.123656 539.668538 
L 222.373425 539.236196 
L 222.908797 538.898082 
L 223.259648 538.742882 
L 223.40649 538.554425 
L 223.515553 538.382597 
L 223.67842 538.116541 
L 223.757067 537.916998 
L 223.87306 537.78397 
L 224.127353 537.407056 
L 224.251644 537.135457 
L 224.603685 537.002428 
L 224.812684 536.8694 
L 225.984396 534.940489 
L 226.439872 534.763118 
L 226.517735 534.613461 
L 226.690272 534.497061 
L 226.840472 534.097976 
L 226.981717 533.887348 
L 227.140024 533.582492 
L 227.243128 533.355235 
L 227.350719 533.183407 
L 227.44484 533.011578 
L 227.551625 532.76215 
L 228.093943 532.618036 
L 229.219012 530.594897 
L 229.673843 530.461869 
L 230.085328 529.72467 
L 230.173296 529.575013 
L 230.777081 528.532958 
L 231.350087 528.333415 
L 231.417817 528.111702 
L 231.632918 527.662731 
L 232.063617 526.903361 
L 232.121725 526.737075 
L 232.233051 526.620676 
L 232.330786 526.482105 
L 232.464271 526.171705 
L 232.94289 526.010963 
L 233.258123 525.356907 
L 233.443606 525.096393 
L 233.57079 524.78045 
L 233.703461 524.603079 
L 233.824183 524.29268 
L 234.094261 523.915766 
L 234.611234 523.771652 
L 234.759413 523.500053 
L 234.900572 523.294967 
L 235.380182 522.57994 
L 235.491256 522.419198 
L 235.586062 522.247369 
L 235.663384 522.136512 
L 235.998439 522.003484 
L 236.269442 521.803942 
L 236.548576 521.493542 
L 236.734011 521.249657 
L 236.862683 521.088914 
L 237.067757 520.795143 
L 237.192356 520.673201 
L 237.353114 520.396058 
L 237.786788 520.213144 
L 238.372508 519.414974 
L 238.477498 519.248689 
L 238.591838 519.049147 
L 238.974952 518.51149 
L 239.440189 518.356291 
L 239.624205 518.007091 
L 239.801302 517.802006 
L 239.908732 517.680063 
L 240.067066 517.425092 
L 240.214445 517.247721 
L 240.403477 517.075893 
L 240.702763 516.904065 
L 241.126729 516.62138 
L 241.294814 516.322066 
L 241.417159 516.177952 
L 241.549623 516.000581 
L 241.773403 515.568239 
L 241.899179 515.352068 
L 242.029899 515.207954 
L 242.336343 514.98624 
L 242.72479 514.775611 
L 243.840464 512.968643 
L 244.339202 512.796815 
L 245.139894 511.571846 
L 245.249879 511.455446 
L 245.371321 511.305789 
L 245.47604 511.250361 
L 245.977766 511.023104 
L 246.087579 510.901161 
L 246.295256 510.651733 
L 246.410879 510.535333 
L 248.9609 509.548707 
L 249.262886 509.393507 
L 249.939049 508.817051 
L 250.033275 508.67848 
L 250.272215 508.417966 
L 250.796638 508.262766 
L 250.897178 508.118652 
L 251.005683 507.91911 
L 251.130175 507.769453 
L 251.249639 507.56991 
L 251.405388 507.392539 
L 251.534058 507.248425 
L 251.615666 507.143111 
L 251.867068 507.026711 
L 251.969629 506.871512 
L 252.452724 506.705226 
L 252.763505 506.472427 
L 252.950027 506.278427 
L 253.082548 506.017913 
L 253.223766 505.868256 
L 253.566653 505.225286 
L 254.052645 505.070086 
L 254.170086 504.920429 
L 254.80099 504.033574 
L 254.872828 503.895003 
L 255.202523 503.479289 
L 255.587345 503.335175 
L 255.765761 503.174433 
L 255.910279 502.875119 
L 255.997067 502.74209 
L 256.115559 502.487119 
L 256.256783 502.282034 
L 256.378899 502.015977 
L 256.466389 501.882949 
L 256.622409 501.627978 
L 256.674617 501.500493 
L 256.760008 501.267693 
L 257.285584 501.084779 
L 257.528565 500.58038 
L 257.631131 500.436266 
L 257.746428 500.197924 
L 257.885636 499.987295 
L 258.256132 499.227925 
L 258.31061 499.089354 
L 258.665312 498.751241 
L 258.925473 498.601584 
L 259.100092 498.385413 
L 259.261804 498.14707 
L 259.385122 497.930899 
L 259.467321 497.775699 
L 259.974166 496.750273 
L 260.191715 496.500845 
L 260.583472 496.245874 
L 260.678561 496.029703 
L 261.887073 493.673993 
L 262.466681 492.903537 
L 262.597839 492.587595 
L 262.69678 492.449023 
L 262.907781 492.049938 
L 262.981817 491.900282 
L 263.136884 491.562168 
L 263.231097 491.318283 
L 263.403408 491.19634 
L 263.765456 490.980169 
L 263.912588 490.747369 
L 265.331035 489.295143 
L 265.536191 489.156572 
L 265.741313 488.91823 
L 265.907386 488.657716 
L 266.000303 488.480345 
L 266.115006 488.308517 
L 266.370009 487.870632 
L 266.470761 487.709889 
L 266.638698 487.543604 
L 267.094755 487.349604 
L 267.171687 487.222119 
L 267.294159 487.111262 
L 268.403993 485.963892 
L 268.798644 485.814235 
L 269.012963 485.586979 
L 269.136461 485.442865 
L 269.27971 485.259951 
L 269.406432 485.160179 
L 269.48114 485.021608 
L 269.592998 484.88858 
L 269.850932 484.544923 
L 270.381935 484.345381 
L 270.602778 484.046067 
L 270.821026 483.81881 
L 270.998247 483.491783 
L 271.140607 483.308869 
L 271.256723 483.120412 
L 271.347475 482.992926 
L 271.419988 482.920869 
L 272.0167 482.782298 
L 272.602034 482.017385 
L 272.726179 481.828928 
L 272.971156 481.391043 
L 273.275099 481.235844 
L 273.625074 481.09173 
L 273.864361 480.687102 
L 274.475685 479.90556 
L 274.59387 479.739275 
L 274.667657 479.628418 
L 275.247176 479.45659 
L 275.313567 479.284762 
L 275.478683 479.068591 
L 275.722188 478.69722 
L 275.923419 478.38682 
L 276.70831 477.826993 
L 276.942542 477.682879 
L 277.077774 477.583108 
L 277.178083 477.366936 
L 277.290663 477.289337 
L 277.714637 476.624195 
L 278.381592 476.169682 
L 278.475294 476.020025 
L 278.592835 475.831568 
L 278.772159 475.643111 
L 278.892503 475.438026 
L 278.994738 475.277283 
L 279.108249 475.077741 
L 279.433222 474.806141 
L 279.639126 474.595513 
L 280.077735 474.340542 
L 280.274103 473.991343 
L 280.362278 473.7918 
L 280.584696 473.464772 
L 280.66072 473.309572 
L 280.801245 473.104487 
L 281.404382 472.256431 
L 281.692305 472.101232 
L 281.930936 471.580204 
L 282.007939 471.347405 
L 282.173339 470.998205 
L 282.263409 470.732149 
L 282.4272 470.477178 
L 283.139717 469.64575 
L 283.369602 469.473922 
L 284.557251 467.750097 
L 284.912619 467.617068 
L 285.019788 467.44524 
L 285.097226 467.278955 
L 285.274497 466.924213 
L 285.641199 466.253528 
L 285.770648 466.015186 
L 285.885257 465.904329 
L 285.984548 465.738043 
L 286.125231 465.610558 
L 286.638955 465.311244 
L 286.748647 465.039645 
L 286.836298 464.901073 
L 287.061688 464.474274 
L 287.11846 464.335703 
L 287.241426 463.980961 
L 287.787221 463.221591 
L 288.485027 462.561992 
L 288.598011 462.268221 
L 288.689574 462.074221 
L 288.809769 461.808165 
L 288.929618 461.686222 
L 289.221786 461.109766 
L 289.342339 460.993366 
L 289.810223 460.788281 
L 289.955227 460.599824 
L 290.142983 460.361482 
L 290.349747 460.089882 
L 290.628935 459.61874 
L 290.742216 459.446912 
L 290.86666 459.208569 
L 290.971134 459.058913 
L 291.374859 458.892627 
L 292.245458 457.8284 
L 292.567897 457.351716 
L 293.188032 456.913831 
L 293.916395 455.921661 
L 294.047969 455.760919 
L 294.204627 455.505948 
L 294.6264 455.367376 
L 294.757598 455.145663 
L 294.975467 454.668978 
L 296.036485 452.945152 
L 296.374331 452.778867 
L 296.465405 452.557153 
L 296.698353 452.440753 
L 297.430566 451.504012 
L 297.934165 451.354355 
L 298.03581 451.182527 
L 298.469242 450.478585 
L 298.641822 450.129386 
L 298.918554 449.697044 
L 299.403455 449.419901 
L 299.574718 449.28133 
L 299.691926 449.098416 
L 300.165321 448.206018 
L 300.37475 447.829104 
L 300.602603 447.479905 
L 300.708883 447.341334 
L 301.040659 447.202763 
L 301.168091 447.097449 
L 302.505228 444.575453 
L 302.779256 444.442425 
L 302.858027 444.265054 
L 302.917363 444.059968 
L 303.179405 443.211913 
L 303.404228 442.807285 
L 303.516854 442.6022 
L 303.58978 442.463628 
L 303.721363 442.186486 
L 303.84956 441.903801 
L 304.022027 441.731973 
L 304.478992 441.554601 
L 304.777034 440.845117 
L 304.883254 440.673289 
L 304.994833 440.479289 
L 305.187519 440.030318 
L 305.536132 439.282034 
L 306.067893 439.02152 
L 306.260924 438.855235 
L 306.374144 438.622435 
L 306.515891 438.367464 
L 306.624471 438.167922 
L 306.778369 437.863065 
L 306.884471 437.58038 
L 306.993728 437.353123 
L 307.100889 437.120324 
L 307.197079 436.987295 
L 307.561994 436.837639 
L 308.001445 436.13924 
L 308.216293 435.634841 
L 308.241169 435.463012 
L 308.358575 435.18587 
L 308.427149 435.019585 
L 308.539794 434.753528 
L 308.659761 434.576157 
L 308.744147 434.276843 
L 308.862118 434.177072 
L 308.951411 434.032958 
L 309.04896 433.933187 
L 309.387793 433.70593 
L 309.505277 433.489759 
L 309.654083 433.162731 
L 309.785736 432.952103 
L 309.861991 432.774732 
L 309.897341 432.597361 
L 310.726306 431.377934 
L 310.934937 431.244906 
L 311.067712 430.984392 
L 311.207474 430.762678 
L 311.676465 429.670737 
L 311.734955 429.509995 
L 312.136079 428.99451 
L 312.569307 428.817139 
L 312.714886 428.412511 
L 313.095215 427.669769 
L 313.203763 427.181999 
L 313.360751 426.827257 
L 313.685563 426.206458 
L 314.266052 425.72423 
L 314.436119 425.363945 
L 314.51165 425.181031 
L 314.976218 424.366233 
L 315.391279 423.612405 
L 315.790477 423.401777 
L 315.901736 423.141263 
L 315.987944 422.91955 
L 316.209085 422.526007 
L 316.29456 422.387436 
L 316.452907 422.049323 
L 316.585747 421.783266 
L 317.172411 420.852068 
L 317.433588 420.719039 
L 317.54932 420.414183 
L 317.780331 419.909784 
L 317.854259 419.754584 
L 317.964854 419.444184 
L 318.230064 419.000757 
L 318.341801 418.745786 
L 318.451402 418.490815 
L 318.577678 418.324529 
L 318.882037 418.163787 
L 319.08513 418.036301 
L 319.282753 417.692645 
L 319.406758 417.387788 
L 320.123978 415.946648 
L 320.198132 415.869048 
L 320.512433 415.724934 
L 320.688248 415.519849 
L 320.883729 415.137392 
L 321.228779 414.62745 
L 321.340272 414.361394 
L 322.160587 413.474538 
L 322.333466 413.347053 
L 322.457627 413.103167 
L 323.307851 411.357171 
L 323.427167 411.135457 
L 323.788022 410.9082 
L 324.083847 410.503572 
L 324.490867 409.733116 
L 324.601628 409.528031 
L 325.37755 408.995918 
L 325.612228 408.835175 
L 325.810512 408.491519 
L 325.924016 408.258719 
L 326.058813 408.103519 
L 326.179164 407.782034 
L 326.285358 407.421749 
L 326.350089 407.238835 
L 326.467793 406.789865 
L 326.699473 406.15798 
L 327.15389 405.908552 
L 327.323829 405.531638 
L 327.438264 405.326553 
L 327.534919 405.154725 
L 327.674659 404.805525 
L 328.069259 403.924213 
L 328.130949 403.708042 
L 328.241984 403.414271 
L 328.486895 403.214728 
L 328.747104 403.070614 
L 328.878754 402.8877 
L 329.015936 402.643815 
L 329.096145 402.460901 
L 329.218616 402.24473 
L 329.372094 402.072902 
L 329.707453 401.607302 
L 329.826708 401.468731 
L 329.941199 401.285817 
L 330.428762 401.097361 
L 330.540601 400.903361 
L 330.902944 400.421133 
L 331.036961 400.210505 
L 331.151786 400.022048 
L 331.361478 399.744906 
L 332.320405 399.478849 
L 332.445595 399.395706 
L 333.0851 399.018793 
L 333.948399 398.791536 
L 334.136778 398.553194 
L 334.313494 398.303766 
L 334.477795 398.165194 
L 334.481487 398.154109 
L 334.722227 398.037709 
L 334.875875 397.904681 
L 335.302044 397.738395 
L 335.425999 397.522224 
L 335.711189 397.117596 
L 335.850529 396.92914 
L 335.96826 396.707426 
L 336.12441 396.457998 
L 336.416997 396.009027 
L 336.984857 395.765142 
L 337.128956 395.543428 
L 337.224224 395.388228 
L 337.335032 395.194228 
L 337.492361 394.978057 
L 337.754387 394.501373 
L 337.887412 394.329544 
L 338.000471 394.124459 
L 338.693562 393.669945 
L 339.778469 391.912863 
L 340.251523 391.680063 
L 340.35363 391.519321 
L 340.497006 391.364121 
L 340.808297 390.859722 
L 340.982731 390.593665 
L 341.142264 390.421837 
L 341.342049 390.161323 
L 341.646142 390.050466 
L 341.891117 389.834295 
L 342.031051 389.62921 
L 342.158296 389.413039 
L 342.269093 389.268925 
L 343.111941 388.326641 
L 343.485016 388.143727 
L 343.621167 387.849956 
L 343.75736 387.578357 
L 344.531677 386.176016 
L 344.832122 386.009731 
L 345.175291 385.732588 
L 345.326426 385.52196 
L 345.766433 384.60739 
L 346.223946 383.892363 
L 346.750467 383.509907 
L 346.92764 383.08865 
L 346.999607 382.927908 
L 347.129808 382.650765 
L 347.536191 381.863681 
L 347.680018 381.72511 
L 347.825554 381.53111 
L 348.132122 381.392539 
L 348.337501 381.265054 
L 348.431367 381.109854 
L 348.553234 380.899226 
L 348.668531 380.644255 
L 348.77584 380.428084 
L 348.889866 380.234084 
L 349.100931 379.796199 
L 349.23476 379.541228 
L 349.329002 379.402657 
L 350.235679 378.410487 
L 350.570965 377.822946 
L 350.68918 377.640032 
L 350.936035 377.163347 
L 351.204314 376.947176 
L 351.657879 376.653405 
L 351.795406 376.431691 
L 351.989532 376.093577 
L 352.12435 375.899578 
L 352.553894 375.400721 
L 353.402097 374.802094 
L 353.578657 374.508323 
L 353.705322 374.375295 
L 353.885461 374.159124 
L 354.124065 373.865353 
L 354.268983 373.70461 
L 354.848077 373.427468 
L 355.887747 372.063928 
L 356.427977 371.875471 
L 356.614009 371.609414 
L 357.118564 370.927644 
L 357.211299 370.789073 
L 357.377183 370.578444 
L 358.292501 370.229245 
L 358.416367 370.02416 
L 358.570536 369.83016 
L 358.807874 369.536389 
L 359.253916 369.137304 
L 359.600624 368.971019 
L 359.742366 368.788105 
L 360.045196 368.400106 
L 360.274554 368.150677 
L 360.383328 367.940049 
L 360.464616 367.78485 
L 360.5802 367.59085 
L 360.711947 367.352507 
L 361.064811 367.158508 
L 361.42195 366.981137 
L 362.111255 365.922453 
L 362.244261 365.767253 
L 362.409641 365.551082 
L 362.918963 365.395882 
L 363.039244 365.185254 
L 363.776076 364.16537 
L 363.891585 363.982456 
L 364.906089 362.95703 
L 365.004101 362.790744 
L 365.089694 362.635545 
L 365.49508 361.96486 
L 365.572303 361.804118 
L 365.681871 361.582404 
L 366.152023 361.382861 
L 366.299512 361.100176 
L 366.411236 360.950519 
L 366.632495 360.656748 
L 366.733764 360.429491 
L 366.884217 360.119092 
L 367.251553 359.41515 
L 367.35877 359.337551 
L 368.030355 359.065951 
L 368.147654 358.894123 
L 369.239098 357.29224 
L 369.459487 357.148126 
L 369.554487 356.981841 
L 369.670381 356.743498 
L 369.743262 356.599384 
L 369.911731 356.26127 
L 370.031144 356.122699 
L 370.151469 355.9675 
L 370.25778 355.806757 
L 370.382648 355.607214 
L 370.90019 355.224758 
L 371.068831 355.086187 
L 371.687115 353.761446 
L 371.815736 353.628418 
L 371.984326 353.390076 
L 372.115581 353.151733 
L 372.262418 353.040876 
L 372.812923 352.752648 
L 373.88195 351.283794 
L 374.28175 351.150765 
L 374.396676 350.917966 
L 374.606549 350.596481 
L 374.743664 350.41911 
L 375.101622 349.803854 
L 375.269801 349.510083 
L 375.381403 349.31054 
L 375.54068 349.255112 
L 375.958684 349.022312 
L 376.282212 348.739627 
L 376.51628 348.534542 
L 376.700347 348.318371 
L 376.847887 348.135457 
L 376.961008 347.902657 
L 377.301085 347.697572 
L 377.548553 347.564543 
L 377.678271 347.315115 
L 378.010485 346.977002 
L 378.175144 346.694316 
L 378.331141 346.472602 
L 378.573203 346.084603 
L 379.260264 345.657804 
L 379.820595 344.410663 
L 379.959344 344.127978 
L 380.109623 343.823122 
L 380.433672 343.368608 
L 380.659558 343.318723 
L 380.811763 343.180151 
L 380.952879 342.941809 
L 381.137586 342.825409 
L 381.276864 342.620324 
L 381.421363 342.326553 
L 381.812145 341.672497 
L 381.9336 341.489583 
L 382.540136 341.090498 
L 382.844157 340.519585 
L 382.970884 340.375471 
L 383.835999 339.372215 
L 384.047115 339.222559 
L 384.199933 338.984216 
L 384.316498 338.806845 
L 384.455177 338.579588 
L 384.603967 338.374503 
L 384.730302 338.119532 
L 385.600904 337.304733 
L 385.762185 337.055305 
L 385.914772 336.805877 
L 386.424051 335.81925 
L 386.609698 335.564279 
L 386.741461 335.348108 
L 386.934214 335.159652 
L 387.243633 335.032166 
L 388.103035 333.391483 
L 388.185914 333.247369 
L 388.342126 332.992398 
L 388.477236 332.759599 
L 388.878033 332.532342 
L 389.134263 332.227485 
L 389.39095 331.612229 
L 389.475753 331.445944 
L 389.720362 330.930459 
L 389.821803 330.758631 
L 389.930003 330.525831 
L 390.424177 330.132289 
L 390.657039 329.932747 
L 390.852401 329.694404 
L 390.909483 329.566919 
L 391.300319 328.935034 
L 391.372826 328.785377 
L 391.537426 328.480521 
L 391.610976 328.269893 
L 391.702921 328.164579 
L 392.171391 327.987207 
L 393.117391 326.501724 
L 393.215961 326.313268 
L 393.342517 326.163611 
L 393.739949 325.997325 
L 393.897246 325.731269 
L 394.097872 325.398698 
L 394.21544 325.232412 
L 394.374911 324.960813 
L 394.806945 324.373271 
L 395.433556 324.029615 
L 395.635494 323.680415 
L 395.756374 323.51413 
L 395.88729 323.231445 
L 396.830727 322.206018 
L 397.131166 322.039733 
L 397.257152 321.873447 
L 398.123992 320.831392 
L 398.684274 320.676192 
L 398.805085 320.493278 
L 398.928631 320.315907 
L 399.032796 320.144079 
L 399.438781 319.423509 
L 399.529785 319.207338 
L 399.779425 318.769453 
L 400.233525 318.636424 
L 400.355684 318.425796 
L 400.480316 318.187454 
L 400.544093 318.048883 
L 400.653941 317.860426 
L 400.774577 317.616541 
L 400.949723 317.272884 
L 401.443862 316.502428 
L 401.730119 316.3694 
L 402.199618 315.704258 
L 402.319671 315.449287 
L 402.416412 315.283002 
L 402.429916 315.260831 
L 402.627896 315.144431 
L 402.76155 314.895003 
L 402.967597 314.601232 
L 403.134421 314.412775 
L 403.550442 314.263118 
L 403.6668 314.046947 
L 403.938631 313.609062 
L 404.236396 313.126834 
L 405.051093 312.356379 
L 405.165764 312.228893 
L 405.313541 312.012722 
L 405.502528 311.591466 
L 405.637552 311.342038 
L 405.751205 311.170209 
L 405.845681 310.970667 
L 405.960231 310.710153 
L 406.107403 310.433011 
L 406.491624 310.078269 
L 406.73138 309.895355 
L 406.857135 309.645926 
L 407.004055 309.335527 
L 407.062356 309.158156 
L 407.427575 308.420957 
L 407.57011 308.093929 
L 407.682986 307.949815 
L 408.225476 307.389988 
L 408.44651 307.223702 
L 408.58715 306.857874 
L 408.845065 306.464332 
L 408.960158 306.259247 
L 409.079359 305.976562 
L 409.195073 305.810276 
L 409.796181 305.411191 
L 410.082411 305.244906 
L 410.153253 305.061992 
L 410.353302 304.70725 
L 410.457921 304.518793 
L 411.385924 303.315995 
L 411.682942 303.177424 
L 411.779199 303.011138 
L 412.301771 302.451311 
L 412.598346 302.201883 
L 412.718192 302.091026 
L 413.167101 301.92474 
L 413.747592 301.215256 
L 413.910926 301.037885 
L 414.762238 300.372743 
L 414.929872 300.206458 
L 415.810192 298.96486 
L 415.989339 298.776403 
L 416.098696 298.648918 
L 416.963985 298.405033 
L 417.094603 298.294176 
L 417.264738 298.155604 
L 417.544229 298.022576 
L 417.681347 297.994862 
L 418.411556 297.856291 
L 419.40238 296.775436 
L 419.903329 296.53155 
L 420.988951 295.095953 
L 421.418119 294.879782 
L 421.737643 294.497325 
L 421.856979 294.347668 
L 422.097182 294.009555 
L 422.210582 293.821098 
L 422.485083 293.399842 
L 422.590968 293.272356 
L 423.002899 293.133785 
L 423.322797 292.601672 
L 423.49834 292.324529 
L 423.631377 292.16933 
L 423.759394 291.964244 
L 423.985753 291.603959 
L 424.100612 291.498645 
L 424.500012 291.276931 
L 424.684632 291.127274 
L 424.78266 290.98316 
L 426.064532 289.109678 
L 426.355185 288.93785 
L 426.703298 288.361394 
L 426.909228 288.012194 
L 426.99143 287.856995 
L 427.136004 287.563224 
L 427.281683 287.446824 
L 427.392417 287.280538 
L 427.524744 287.18631 
L 427.724817 287.058825 
L 428.219885 286.598768 
L 428.630637 286.027855 
L 428.74483 285.839398 
L 428.814381 285.722998 
L 428.985228 285.601056 
L 429.090629 285.468027 
L 429.617011 285.312828 
L 429.729189 285.174257 
L 429.880854 285.046771 
L 430.048648 284.797343 
L 430.158765 284.631058 
L 430.27073 284.392715 
L 430.336904 284.259687 
L 430.513937 283.882773 
L 430.657216 283.638888 
L 431.025366 283.361746 
L 431.187348 283.23426 
L 431.491095 282.702147 
L 432.135823 281.63792 
L 432.211934 281.499349 
L 432.337861 281.405121 
L 432.826405 281.166778 
L 433.203075 280.739979 
L 433.609183 280.296551 
L 433.835701 280.013866 
L 434.095908 279.936266 
L 434.476386 279.781066 
L 435.582386 278.245698 
L 436.06356 278.096041 
L 436.317525 277.76347 
L 436.483492 277.469699 
L 436.631044 277.247985 
L 436.890493 276.837815 
L 437.708575 276.05073 
L 437.85068 275.829016 
L 437.963806 275.695988 
L 438.140368 275.44656 
L 438.342658 275.119532 
L 438.464248 274.958789 
L 438.693593 274.742618 
L 438.874666 274.548619 
L 439.305702 274.365705 
L 439.414797 274.232676 
L 439.713546 273.938906 
L 439.842772 273.750449 
L 440.25728 273.379078 
L 440.369998 273.223878 
L 440.476616 273.140736 
L 440.858241 273.007707 
L 441.010239 272.869136 
L 441.433146 272.276051 
L 441.678704 271.832624 
L 441.858074 271.527767 
L 442.016368 271.294967 
L 442.544638 270.984568 
L 442.704555 270.646454 
L 442.760357 270.50234 
L 442.91106 270.275084 
L 443.101627 270.01457 
L 443.720754 269.2552 
L 444.123284 269.094457 
L 444.257575 268.811772 
L 444.388652 268.567887 
L 444.494553 268.390516 
L 444.599672 268.218687 
L 444.720378 268.041316 
L 445.00172 267.703203 
L 445.147576 267.536917 
L 445.279067 267.403889 
L 445.90862 267.160004 
L 446.01206 267.087947 
L 446.264501 266.943832 
L 446.402484 266.799718 
L 446.620804 266.633433 
L 447.115195 266.334119 
L 447.496011 266.184462 
L 448.156152 265.203378 
L 448.574306 264.782122 
L 449.156278 264.383037 
L 449.367905 264.044923 
L 449.493324 263.873095 
L 450.370412 262.975154 
L 450.731968 262.825497 
L 450.853496 262.664755 
L 451.746625 261.445328 
L 451.862105 261.3899 
L 452.343005 261.179272 
L 452.454293 261.0795 
L 452.549771 260.935386 
L 452.721225 260.647158 
L 452.847531 260.469787 
L 453.18323 260.065159 
L 453.327882 259.898874 
L 453.345579 259.860074 
L 453.957653 259.743674 
L 454.609668 258.76259 
L 454.754941 258.612933 
L 454.861083 258.518705 
L 455.558715 258.241563 
L 455.697966 258.064191 
L 456.144092 257.648478 
L 456.278442 257.498821 
L 456.767413 257.12745 
L 457.244731 257.011051 
L 457.36512 256.916822 
L 457.516135 256.733908 
L 457.622218 256.595337 
L 457.854532 256.401337 
L 457.990056 256.162995 
L 458.427363 255.774996 
L 458.811347 255.641967 
L 458.916205 255.542196 
L 459.090301 255.364825 
L 459.212466 255.170825 
L 459.422642 254.921397 
L 459.748144 254.550026 
L 459.991614 254.333855 
L 460.438836 254.173113 
L 460.551932 254.01237 
L 460.716739 253.790656 
L 460.985996 253.402657 
L 461.162937 253.280714 
L 461.476687 252.909344 
L 462.155287 252.554601 
L 462.245405 252.421573 
L 462.375002 252.294088 
L 462.890474 251.701003 
L 463.102606 251.495918 
L 463.220082 251.329632 
L 463.714605 251.174433 
L 463.945632 250.880662 
L 464.0769 250.703291 
L 464.188142 250.631234 
L 464.503214 250.209977 
L 464.717698 249.921749 
L 465.370326 249.683407 
L 465.536661 249.422893 
L 465.654379 249.273236 
L 465.783068 249.140208 
L 465.947797 248.951751 
L 466.29716 248.50278 
L 466.929829 248.269981 
L 468.141013 247.039469 
L 468.550098 246.911983 
L 468.924769 246.385413 
L 469.062642 246.208042 
L 469.842559 245.254672 
L 470.18273 245.116101 
L 470.301391 245.005244 
L 470.437582 244.844501 
L 470.568611 244.689301 
L 471.317698 243.852332 
L 471.804111 243.702675 
L 471.95641 243.503132 
L 472.063431 243.325761 
L 472.210142 243.165018 
L 472.538603 242.710505 
L 472.632168 242.594105 
L 472.744681 242.455534 
L 472.854789 242.261534 
L 473.486723 242.012106 
L 473.595958 241.873535 
L 473.707209 241.70725 
L 473.820705 241.55205 
L 474.131714 241.130794 
L 474.386252 240.703994 
L 474.647717 240.476738 
L 475.140466 240.338166 
L 475.336089 240.194052 
L 476.246764 239.018969 
L 476.687539 238.869312 
L 476.864497 238.680855 
L 477.03695 238.51457 
L 477.274826 238.176456 
L 477.407957 237.993542 
L 477.710488 237.611086 
L 477.870725 237.494686 
L 478.35921 237.339486 
L 478.643164 236.990287 
L 478.996205 236.552402 
L 479.425784 236.04246 
L 480.251242 235.654461 
L 480.40787 235.371775 
L 480.517643 235.227661 
L 480.643878 235.078005 
L 481.133677 234.429491 
L 481.629143 234.274292 
L 482.105542 233.775436 
L 482.200469 233.603607 
L 482.355162 233.465036 
L 482.562509 233.271036 
L 483.375207 232.816523 
L 484.499446 231.763382 
L 484.881549 231.569382 
L 484.991187 231.380926 
L 485.144951 231.131497 
L 485.247993 230.970755 
L 485.441381 230.776755 
L 485.83557 230.333327 
L 485.956711 230.277899 
L 486.46782 230.072814 
L 486.578391 229.956414 
L 486.832955 229.662643 
L 486.936551 229.496358 
L 487.098009 229.313444 
L 487.219368 229.163787 
L 487.527822 228.748073 
L 488.140348 228.443217 
L 488.286244 228.232588 
L 488.525756 227.894475 
L 488.660834 227.711561 
L 489.131142 227.179447 
L 489.766455 226.874591 
L 490.06368 226.553106 
L 490.347164 226.181735 
L 490.475542 226.020992 
L 490.585352 225.804821 
L 490.701995 225.655165 
L 490.906343 225.522136 
L 491.226163 225.378022 
L 491.502846 225.145223 
L 491.722491 224.895794 
L 491.866804 224.768309 
L 492.000174 224.635281 
L 492.315041 224.22511 
L 492.379217 224.086539 
L 492.604888 224.014482 
L 492.925984 223.886996 
L 493.080495 223.681911 
L 493.469151 223.221855 
L 493.658941 223.077741 
L 493.924751 222.894827 
L 494.6407 222.645399 
L 495.756241 221.509115 
L 496.246824 221.348372 
L 496.432678 221.132201 
L 496.585461 220.949287 
L 496.789258 220.79963 
L 496.962518 220.54466 
L 497.578606 220.07906 
L 497.912108 219.929403 
L 498.038666 219.785289 
L 498.149419 219.635633 
L 498.733667 219.203291 
L 498.84413 219.131234 
L 499.24752 218.976034 
L 499.505059 218.854091 
L 499.61032 218.698891 
L 499.798812 218.52152 
L 500.373403 217.95615 
L 500.788029 217.80095 
L 501.507678 217.640208 
L 501.859327 217.385237 
L 502.676827 216.969523 
L 503.446789 216.598152 
L 503.584452 216.387524 
L 503.908159 216.082668 
L 504.329299 215.955182 
L 504.622577 215.655868 
L 504.837737 215.423069 
L 505.003473 215.206898 
L 505.862653 214.641527 
L 506.050049 214.508499 
L 506.275884 214.292328 
L 506.389008 214.192557 
L 507.193513 213.333415 
L 507.59781 213.189301 
L 507.858257 212.950959 
L 508.059541 212.768045 
L 508.199607 212.579588 
L 508.430703 212.280275 
L 508.592205 212.119532 
L 508.707669 212.047475 
L 509.418709 211.387876 
L 509.841398 210.816963 
L 509.960465 210.61742 
L 510.161634 210.406792 
L 510.596649 210.201707 
L 510.865788 210.057593 
L 511.165915 209.702851 
L 511.296637 209.608622 
L 511.473998 209.458965 
L 511.603398 209.37028 
L 512.842107 208.466796 
L 513.146974 208.001197 
L 513.807354 207.441369 
L 514.047973 207.313884 
L 514.158702 207.169769 
L 514.528771 206.776227 
L 514.712346 206.548971 
L 514.847671 206.399314 
L 515.101806 205.989143 
L 515.252675 205.889372 
L 515.659085 205.645487 
L 515.91722 205.168802 
L 516.078606 204.869488 
L 516.303316 204.747545 
L 516.878797 203.882861 
L 517.282231 203.699947 
L 517.628692 203.167834 
L 517.735488 202.940577 
L 517.883351 202.707778 
L 518.013278 202.524864 
L 518.253408 202.086979 
L 518.358524 201.826465 
L 518.528826 201.726694 
L 519.031455 201.54378 
L 519.292487 201.344237 
L 520.371878 200.640296 
L 520.678948 200.518353 
L 520.800221 200.413039 
L 520.976727 200.285553 
L 521.247136 200.052754 
L 521.819449 199.526183 
L 522.294711 199.232412 
L 522.460397 198.977441 
L 522.741688 198.689213 
L 522.865006 198.522928 
L 523.029665 198.3123 
L 523.208232 198.057329 
L 523.572018 197.918758 
L 523.807013 197.785729 
L 524.056854 197.392187 
L 524.326242 197.020816 
L 524.546209 196.688246 
L 524.830567 196.311332 
L 525.515358 195.984304 
L 525.647935 195.729333 
L 526.560235 194.532078 
L 526.887895 194.376878 
L 527.085813 194.188422 
L 527.827492 193.201795 
L 527.934411 193.013338 
L 528.117001 192.80271 
L 528.292141 192.702939 
L 528.903643 192.364825 
L 530.05246 190.968027 
L 530.413562 190.718599 
L 530.700711 190.358314 
L 531.086146 190.031286 
L 531.250574 189.815115 
L 531.659842 189.432659 
L 531.930541 189.249745 
L 532.046967 189.083459 
L 532.313905 188.817403 
L 533.240427 187.620148 
L 533.585918 187.492662 
L 533.772632 187.232149 
L 534.111034 186.722207 
L 534.287766 186.561464 
L 534.492315 186.323122 
L 534.728635 186.040436 
L 535.222285 185.779923 
L 535.370537 185.630266 
L 535.45121 185.486152 
L 536.336912 184.571582 
L 536.731013 184.372039 
L 536.896086 184.172497 
L 537.102906 183.94524 
L 537.215881 183.862097 
L 537.35977 183.712441 
L 537.923774 183.002956 
L 538.456841 182.820042 
L 538.731096 182.5429 
L 538.884389 182.437586 
L 540.766896 181.02416 
L 540.878695 180.885589 
L 541.037265 180.697132 
L 541.172688 180.536389 
L 541.629364 180.38119 
L 541.736034 180.30359 
L 541.913238 180.142847 
L 542.016995 180.07079 
L 542.20453 179.921133 
L 542.680712 179.328049 
L 543.380797 178.967764 
L 543.492504 178.884621 
L 543.642178 178.751592 
L 544.532808 177.748337 
L 544.959311 177.565423 
L 545.239447 177.177424 
L 545.432601 177.061024 
L 546.138979 176.362625 
L 546.73079 175.996797 
L 546.872866 175.841598 
L 547.013396 175.697484 
L 547.420947 175.132113 
L 547.540788 174.982456 
L 547.649282 174.8716 
L 548.06793 174.721943 
L 548.222113 174.583371 
L 548.652361 174.151029 
L 548.973169 173.740859 
L 549.350901 173.375031 
L 549.792313 173.225374 
L 549.899958 173.092346 
L 550.037626 172.959317 
L 550.254581 172.720975 
L 550.505731 172.382861 
L 550.805928 171.967148 
L 551.051982 171.795319 
L 551.41859 171.645663 
L 551.583596 171.473834 
L 551.837002 171.218863 
L 551.992732 170.991607 
L 552.382448 170.564807 
L 552.503401 170.376351 
L 552.721154 170.254408 
L 553.09306 170.099208 
L 553.259818 169.96618 
L 553.381547 169.827609 
L 554.236927 168.591554 
L 554.752951 168.364297 
L 556.067254 166.884357 
L 556.342457 166.701443 
L 556.952199 165.78133 
L 557.081989 165.615045 
L 557.216812 165.426588 
L 557.321832 165.288017 
L 557.416539 165.127274 
L 557.880779 164.911103 
L 558.039022 164.689389 
L 558.303133 164.207162 
L 558.509477 163.952191 
L 558.701146 163.719391 
L 558.916346 163.50322 
L 559.011666 163.353563 
L 559.546845 163.209449 
L 559.846864 162.960021 
L 560.006181 162.721679 
L 560.510498 162.167394 
L 560.629293 162.012194 
L 561.483389 161.507795 
L 561.752202 161.158596 
L 561.868596 161.03111 
L 562.367485 160.487911 
L 562.849483 160.31054 
L 564.280314 158.963628 
L 564.474745 158.836143 
L 564.679985 158.614429 
L 564.775159 158.475858 
L 565.09255 158.11003 
L 565.208535 157.816259 
L 565.435321 157.550202 
L 565.541808 157.461517 
L 565.995956 157.31186 
L 567.482668 155.937234 
L 567.756745 155.770948 
L 567.886635 155.588034 
L 568.082051 155.355235 
L 569.107561 154.230037 
L 569.308163 154.036037 
L 569.444932 153.825409 
L 569.608594 153.636952 
L 570.534399 152.783354 
L 570.949267 152.556097 
L 571.106343 152.456326 
L 571.253612 152.306669 
L 571.470194 152.03507 
L 571.610225 151.863241 
L 571.991484 151.259071 
L 572.356324 151.103871 
L 572.57869 150.948671 
L 573.002062 150.383301 
L 573.603778 149.878902 
L 574.181166 149.679359 
L 574.350944 149.352332 
L 575.135571 148.132905 
L 575.717922 147.628506 
L 575.910396 147.462221 
L 576.053939 147.323649 
L 576.183012 147.151821 
L 576.355984 146.785993 
L 576.497802 146.580908 
L 576.607991 146.348108 
L 576.759645 146.148566 
L 576.887533 145.971195 
L 577.190202 145.854795 
L 577.578026 145.644167 
L 577.692869 145.549938 
L 577.878008 145.394739 
L 578.121956 145.250625 
L 578.494228 144.92914 
L 579.043687 144.762854 
L 579.244443 144.563312 
L 579.398623 144.408112 
L 579.751608 144.081084 
L 580.340531 143.78177 
L 580.673022 143.648742 
L 580.950692 143.354971 
L 581.15476 143.127714 
L 582.042537 142.329544 
L 582.296822 142.168802 
L 583.336578 141.043604 
L 583.980062 140.78309 
L 585.122666 139.680063 
L 585.527971 139.524864 
L 585.719183 139.353035 
L 585.843258 139.22555 
L 586.191484 139.042636 
L 586.31671 138.920693 
L 586.584349 138.765494 
L 589.133024 137.374239 
L 589.241163 137.280011 
L 589.393048 137.091554 
L 589.506996 136.936354 
L 589.668582 136.681383 
L 590.76662 135.805613 
L 590.875315 135.672585 
L 591.008921 135.522928 
L 591.130001 135.417614 
L 591.274798 135.290128 
L 591.470445 135.112757 
L 591.575801 135.012986 
L 592.278049 134.66933 
L 592.485852 134.480873 
L 592.860255 134.176016 
L 593.011401 134.098416 
L 593.677066 133.848988 
L 593.829037 133.67716 
L 593.923836 133.59956 
L 594.062783 133.455446 
L 594.272889 133.228189 
L 594.394259 133.150589 
L 596.041056 132.025392 
L 596.161679 131.908992 
L 597.064763 131.404593 
L 597.259038 131.238307 
L 597.434227 131.011051 
L 598.070416 130.356995 
L 598.454712 130.212881 
L 598.839024 129.924652 
L 599.159703 129.475682 
L 599.370986 129.326025 
L 599.791056 129.048883 
L 600.309393 128.710769 
L 600.425808 128.577741 
L 600.576605 128.344941 
L 600.736895 128.189741 
L 601.004722 127.907056 
L 601.113888 127.823913 
L 601.91117 127.325057 
L 601.980271 127.253 
L 602.163389 127.125515 
L 602.416384 126.870544 
L 602.583523 126.665458 
L 602.710611 126.482544 
L 602.853992 126.327345 
L 602.958135 126.222031 
L 603.488179 126.066831 
L 603.593567 125.939345 
L 603.883661 125.717632 
L 604.004574 125.518089 
L 604.509318 125.229861 
L 605.157147 125.019233 
L 605.51044 124.703291 
L 605.678979 124.548091 
L 605.909372 124.354091 
L 606.041116 124.204434 
L 606.753381 123.816435 
L 606.902147 123.589178 
L 607.269297 123.167922 
L 607.383197 123.062608 
L 608.055974 122.419638 
L 608.406318 122.220095 
L 608.491129 122.186838 
L 608.739306 122.048267 
L 608.987083 121.82101 
L 609.694523 121.21684 
L 609.985503 121.094897 
L 610.741154 120.335527 
L 610.865184 120.241299 
L 611.268178 120.008499 
L 611.863787 119.720271 
L 612.012303 119.587243 
L 612.204602 119.443129 
L 612.326079 119.3101 
L 612.857789 119.005244 
L 613.188851 118.877758 
L 613.549609 118.583987 
L 613.785494 118.406616 
L 613.907565 118.273588 
L 614.142635 118.013074 
L 614.564836 117.724846 
L 614.930807 117.541932 
L 615.294389 117.209361 
L 615.421221 117.07079 
L 615.650587 116.854619 
L 616.251303 116.616277 
L 616.519517 116.42782 
L 616.908972 116.111878 
L 617.075184 115.917878 
L 617.218694 115.78485 
L 617.573194 115.369136 
L 617.996685 115.191765 
L 618.279529 114.920165 
L 618.448487 114.748337 
L 618.648518 114.543252 
L 619.018247 114.182967 
L 619.092176 114.094281 
L 619.619504 113.922453 
L 621.08168 112.780626 
L 621.426142 112.636512 
L 621.617475 112.403713 
L 621.849804 112.187542 
L 622.070881 111.999085 
L 622.182161 111.8716 
L 622.32281 111.705314 
L 622.417775 111.644343 
L 622.636364 111.6 
L 622.636364 111.6 
" style="fill:none;stroke:#92c6ff;stroke-linecap:round;stroke-width:1.5;"/>
   </g>
   <g id="line2d_24">
    <defs>
     <path d="M 0 2.5 
C 0.663008 2.5 1.29895 2.236584 1.767767 1.767767 
C 2.236584 1.29895 2.5 0.663008 2.5 0 
C 2.5 -0.663008 2.236584 -1.29895 1.767767 -1.767767 
C 1.29895 -2.236584 0.663008 -2.5 0 -2.5 
C -0.663008 -2.5 -1.29895 -2.236584 -1.767767 -1.767767 
C -2.236584 -1.29895 -2.5 -0.663008 -2.5 0 
C -2.5 0.663008 -2.236584 1.29895 -1.767767 1.767767 
C -1.29895 2.236584 -0.663008 2.5 0 2.5 
z
" id="me883695e58" style="stroke:#696969;"/>
    </defs>
    <g clip-path="url(#p4442999817)">
     <use style="fill:#696969;stroke:#696969;" x="115.363636" xlink:href="#me883695e58" y="615.6"/>
    </g>
   </g>
   <g id="line2d_25">
    <g clip-path="url(#p4442999817)">
     <use style="fill:#696969;stroke:#696969;" x="199.077908" xlink:href="#me883695e58" y="565.198891"/>
    </g>
   </g>
   <g id="line2d_26">
    <g clip-path="url(#p4442999817)">
     <use style="fill:#696969;stroke:#696969;" x="242.708776" xlink:href="#me883695e58" y="514.797783"/>
    </g>
   </g>
   <g id="line2d_27">
    <g clip-path="url(#p4442999817)">
     <use style="fill:#696969;stroke:#696969;" x="287.10269" xlink:href="#me883695e58" y="464.396674"/>
    </g>
   </g>
   <g id="line2d_28">
    <g clip-path="url(#p4442999817)">
     <use style="fill:#696969;stroke:#696969;" x="321.543709" xlink:href="#me883695e58" y="413.995566"/>
    </g>
   </g>
   <g id="line2d_29">
    <g clip-path="url(#p4442999817)">
     <use style="fill:#696969;stroke:#696969;" x="364.494811" xlink:href="#me883695e58" y="363.594457"/>
    </g>
   </g>
   <g id="line2d_30">
    <g clip-path="url(#p4442999817)">
     <use style="fill:#696969;stroke:#696969;" x="404.181026" xlink:href="#me883695e58" y="313.193349"/>
    </g>
   </g>
   <g id="line2d_31">
    <g clip-path="url(#p4442999817)">
     <use style="fill:#696969;stroke:#696969;" x="450.752956" xlink:href="#me883695e58" y="262.79224"/>
    </g>
   </g>
   <g id="line2d_32">
    <g clip-path="url(#p4442999817)">
     <use style="fill:#696969;stroke:#696969;" x="508.327533" xlink:href="#me883695e58" y="212.391131"/>
    </g>
   </g>
   <g id="line2d_33">
    <g clip-path="url(#p4442999817)">
     <use style="fill:#696969;stroke:#696969;" x="560.656464" xlink:href="#me883695e58" y="161.990023"/>
    </g>
   </g>
   <g id="line2d_34">
    <g clip-path="url(#p4442999817)">
     <use style="fill:#696969;stroke:#696969;" x="622.636364" xlink:href="#me883695e58" y="111.6"/>
    </g>
   </g>
   <g id="patch_3">
    <path d="M 90 640.8 
L 90 86.4 
" style="fill:none;stroke:#cccccc;stroke-linecap:square;stroke-linejoin:miter;"/>
   </g>
   <g id="patch_4">
    <path d="M 648 640.8 
L 648 86.4 
" style="fill:none;stroke:#cccccc;stroke-linecap:square;stroke-linejoin:miter;"/>
   </g>
   <g id="patch_5">
    <path d="M 90 640.8 
L 648 640.8 
" style="fill:none;stroke:#cccccc;stroke-linecap:square;stroke-linejoin:miter;"/>
   </g>
   <g id="patch_6">
    <path d="M 90 86.4 
L 648 86.4 
" style="fill:none;stroke:#cccccc;stroke-linecap:square;stroke-linejoin:miter;"/>
   </g>
   <g id="text_12">
    <!-- 1 (2014-06-06) -->
    <defs>
     <path id="DejaVuSans-32"/>
     <path d="M 31 75.875 
Q 24.46875 64.65625 21.28125 53.65625 
Q 18.109375 42.671875 18.109375 31.390625 
Q 18.109375 20.125 21.3125 9.0625 
Q 24.515625 -2 31 -13.1875 
L 23.1875 -13.1875 
Q 15.875 -1.703125 12.234375 9.375 
Q 8.59375 20.453125 8.59375 31.390625 
Q 8.59375 42.28125 12.203125 53.3125 
Q 15.828125 64.359375 23.1875 75.875 
z
" id="DejaVuSans-40"/>
     <path d="M 4.890625 31.390625 
L 31.203125 31.390625 
L 31.203125 23.390625 
L 4.890625 23.390625 
z
" id="DejaVuSans-45"/>
     <path d="M 8.015625 75.875 
L 15.828125 75.875 
Q 23.140625 64.359375 26.78125 53.3125 
Q 30.421875 42.28125 30.421875 31.390625 
Q 30.421875 20.453125 26.78125 9.375 
Q 23.140625 -1.703125 15.828125 -13.1875 
L 8.015625 -13.1875 
Q 14.5 -2 17.703125 9.0625 
Q 20.90625 20.125 20.90625 31.390625 
Q 20.90625 42.671875 17.703125 53.65625 
Q 14.5 64.65625 8.015625 75.875 
z
" id="DejaVuSans-41"/>
    </defs>
    <g style="fill:#262626;" transform="translate(120.363636 623.198437)scale(0.1 -0.1)">
     <use xlink:href="#DejaVuSans-49"/>
     <use x="63.623047" xlink:href="#DejaVuSans-32"/>
     <use x="95.410156" xlink:href="#DejaVuSans-40"/>
     <use x="134.423828" xlink:href="#DejaVuSans-50"/>
     <use x="198.046875" xlink:href="#DejaVuSans-48"/>
     <use x="261.669922" xlink:href="#DejaVuSans-49"/>
     <use x="325.292969" xlink:href="#DejaVuSans-52"/>
     <use x="388.916016" xlink:href="#DejaVuSans-45"/>
     <use x="425" xlink:href="#DejaVuSans-48"/>
     <use x="488.623047" xlink:href="#DejaVuSans-54"/>
     <use x="552.246094" xlink:href="#DejaVuSans-45"/>
     <use x="588.330078" xlink:href="#DejaVuSans-48"/>
     <use x="651.953125" xlink:href="#DejaVuSans-54"/>
     <use x="715.576172" xlink:href="#DejaVuSans-41"/>
    </g>
   </g>
   <g id="text_13">
    <!-- 9094 (2015-06-02) -->
    <g style="fill:#262626;" transform="translate(204.077908 572.797329)scale(0.1 -0.1)">
     <use xlink:href="#DejaVuSans-57"/>
     <use x="63.623047" xlink:href="#DejaVuSans-48"/>
     <use x="127.246094" xlink:href="#DejaVuSans-57"/>
     <use x="190.869141" xlink:href="#DejaVuSans-52"/>
     <use x="254.492188" xlink:href="#DejaVuSans-32"/>
     <use x="286.279297" xlink:href="#DejaVuSans-40"/>
     <use x="325.292969" xlink:href="#DejaVuSans-50"/>
     <use x="388.916016" xlink:href="#DejaVuSans-48"/>
     <use x="452.539062" xlink:href="#DejaVuSans-49"/>
     <use x="516.162109" xlink:href="#DejaVuSans-53"/>
     <use x="579.785156" xlink:href="#DejaVuSans-45"/>
     <use x="615.869141" xlink:href="#DejaVuSans-48"/>
     <use x="679.492188" xlink:href="#DejaVuSans-54"/>
     <use x="743.115234" xlink:href="#DejaVuSans-45"/>
     <use x="779.199219" xlink:href="#DejaVuSans-48"/>
     <use x="842.822266" xlink:href="#DejaVuSans-50"/>
     <use x="906.445312" xlink:href="#DejaVuSans-41"/>
    </g>
   </g>
   <g id="text_14">
    <!-- 18187 (2015-12-07) -->
    <g style="fill:#262626;" transform="translate(247.708776 522.39622)scale(0.1 -0.1)">
     <use xlink:href="#DejaVuSans-49"/>
     <use x="63.623047" xlink:href="#DejaVuSans-56"/>
     <use x="127.246094" xlink:href="#DejaVuSans-49"/>
     <use x="190.869141" xlink:href="#DejaVuSans-56"/>
     <use x="254.492188" xlink:href="#DejaVuSans-55"/>
     <use x="318.115234" xlink:href="#DejaVuSans-32"/>
     <use x="349.902344" xlink:href="#DejaVuSans-40"/>
     <use x="388.916016" xlink:href="#DejaVuSans-50"/>
     <use x="452.539062" xlink:href="#DejaVuSans-48"/>
     <use x="516.162109" xlink:href="#DejaVuSans-49"/>
     <use x="579.785156" xlink:href="#DejaVuSans-53"/>
     <use x="643.408203" xlink:href="#DejaVuSans-45"/>
     <use x="679.492188" xlink:href="#DejaVuSans-49"/>
     <use x="743.115234" xlink:href="#DejaVuSans-50"/>
     <use x="806.738281" xlink:href="#DejaVuSans-45"/>
     <use x="842.822266" xlink:href="#DejaVuSans-48"/>
     <use x="906.445312" xlink:href="#DejaVuSans-55"/>
     <use x="970.068359" xlink:href="#DejaVuSans-41"/>
    </g>
   </g>
   <g id="text_15">
    <!-- 27280 (2016-06-15) -->
    <g style="fill:#262626;" transform="translate(292.10269 471.995112)scale(0.1 -0.1)">
     <use xlink:href="#DejaVuSans-50"/>
     <use x="63.623047" xlink:href="#DejaVuSans-55"/>
     <use x="127.246094" xlink:href="#DejaVuSans-50"/>
     <use x="190.869141" xlink:href="#DejaVuSans-56"/>
     <use x="254.492188" xlink:href="#DejaVuSans-48"/>
     <use x="318.115234" xlink:href="#DejaVuSans-32"/>
     <use x="349.902344" xlink:href="#DejaVuSans-40"/>
     <use x="388.916016" xlink:href="#DejaVuSans-50"/>
     <use x="452.539062" xlink:href="#DejaVuSans-48"/>
     <use x="516.162109" xlink:href="#DejaVuSans-49"/>
     <use x="579.785156" xlink:href="#DejaVuSans-54"/>
     <use x="643.408203" xlink:href="#DejaVuSans-45"/>
     <use x="679.492188" xlink:href="#DejaVuSans-48"/>
     <use x="743.115234" xlink:href="#DejaVuSans-54"/>
     <use x="806.738281" xlink:href="#DejaVuSans-45"/>
     <use x="842.822266" xlink:href="#DejaVuSans-49"/>
     <use x="906.445312" xlink:href="#DejaVuSans-53"/>
     <use x="970.068359" xlink:href="#DejaVuSans-41"/>
    </g>
   </g>
   <g id="text_16">
    <!-- 36373 (2016-11-11) -->
    <defs>
     <path d="M 40.578125 39.3125 
Q 47.65625 37.796875 51.625 33 
Q 55.609375 28.21875 55.609375 21.1875 
Q 55.609375 10.40625 48.1875 4.484375 
Q 40.765625 -1.421875 27.09375 -1.421875 
Q 22.515625 -1.421875 17.65625 -0.515625 
Q 12.796875 0.390625 7.625 2.203125 
L 7.625 11.71875 
Q 11.71875 9.328125 16.59375 8.109375 
Q 21.484375 6.890625 26.8125 6.890625 
Q 36.078125 6.890625 40.9375 10.546875 
Q 45.796875 14.203125 45.796875 21.1875 
Q 45.796875 27.640625 41.28125 31.265625 
Q 36.765625 34.90625 28.71875 34.90625 
L 20.21875 34.90625 
L 20.21875 43.015625 
L 29.109375 43.015625 
Q 36.375 43.015625 40.234375 45.921875 
Q 44.09375 48.828125 44.09375 54.296875 
Q 44.09375 59.90625 40.109375 62.90625 
Q 36.140625 65.921875 28.71875 65.921875 
Q 24.65625 65.921875 20.015625 65.03125 
Q 15.375 64.15625 9.8125 62.3125 
L 9.8125 71.09375 
Q 15.4375 72.65625 20.34375 73.4375 
Q 25.25 74.21875 29.59375 74.21875 
Q 40.828125 74.21875 47.359375 69.109375 
Q 53.90625 64.015625 53.90625 55.328125 
Q 53.90625 49.265625 50.4375 45.09375 
Q 46.96875 40.921875 40.578125 39.3125 
z
" id="DejaVuSans-51"/>
    </defs>
    <g style="fill:#262626;" transform="translate(326.543709 421.594003)scale(0.1 -0.1)">
     <use xlink:href="#DejaVuSans-51"/>
     <use x="63.623047" xlink:href="#DejaVuSans-54"/>
     <use x="127.246094" xlink:href="#DejaVuSans-51"/>
     <use x="190.869141" xlink:href="#DejaVuSans-55"/>
     <use x="254.492188" xlink:href="#DejaVuSans-51"/>
     <use x="318.115234" xlink:href="#DejaVuSans-32"/>
     <use x="349.902344" xlink:href="#DejaVuSans-40"/>
     <use x="388.916016" xlink:href="#DejaVuSans-50"/>
     <use x="452.539062" xlink:href="#DejaVuSans-48"/>
     <use x="516.162109" xlink:href="#DejaVuSans-49"/>
     <use x="579.785156" xlink:href="#DejaVuSans-54"/>
     <use x="643.408203" xlink:href="#DejaVuSans-45"/>
     <use x="679.492188" xlink:href="#DejaVuSans-49"/>
     <use x="743.115234" xlink:href="#DejaVuSans-49"/>
     <use x="806.738281" xlink:href="#DejaVuSans-45"/>
     <use x="842.822266" xlink:href="#DejaVuSans-49"/>
     <use x="906.445312" xlink:href="#DejaVuSans-49"/>
     <use x="970.068359" xlink:href="#DejaVuSans-41"/>
    </g>
   </g>
   <g id="text_17">
    <!-- 45466 (2017-05-15) -->
    <g style="fill:#262626;" transform="translate(369.494811 371.192895)scale(0.1 -0.1)">
     <use xlink:href="#DejaVuSans-52"/>
     <use x="63.623047" xlink:href="#DejaVuSans-53"/>
     <use x="127.246094" xlink:href="#DejaVuSans-52"/>
     <use x="190.869141" xlink:href="#DejaVuSans-54"/>
     <use x="254.492188" xlink:href="#DejaVuSans-54"/>
     <use x="318.115234" xlink:href="#DejaVuSans-32"/>
     <use x="349.902344" xlink:href="#DejaVuSans-40"/>
     <use x="388.916016" xlink:href="#DejaVuSans-50"/>
     <use x="452.539062" xlink:href="#DejaVuSans-48"/>
     <use x="516.162109" xlink:href="#DejaVuSans-49"/>
     <use x="579.785156" xlink:href="#DejaVuSans-55"/>
     <use x="643.408203" xlink:href="#DejaVuSans-45"/>
     <use x="679.492188" xlink:href="#DejaVuSans-48"/>
     <use x="743.115234" xlink:href="#DejaVuSans-53"/>
     <use x="806.738281" xlink:href="#DejaVuSans-45"/>
     <use x="842.822266" xlink:href="#DejaVuSans-49"/>
     <use x="906.445312" xlink:href="#DejaVuSans-53"/>
     <use x="970.068359" xlink:href="#DejaVuSans-41"/>
    </g>
   </g>
   <g id="text_18">
    <!-- 54559 (2017-11-02) -->
    <g style="fill:#262626;" transform="translate(409.181026 320.791786)scale(0.1 -0.1)">
     <use xlink:href="#DejaVuSans-53"/>
     <use x="63.623047" xlink:href="#DejaVuSans-52"/>
     <use x="127.246094" xlink:href="#DejaVuSans-53"/>
     <use x="190.869141" xlink:href="#DejaVuSans-53"/>
     <use x="254.492188" xlink:href="#DejaVuSans-57"/>
     <use x="318.115234" xlink:href="#DejaVuSans-32"/>
     <use x="349.902344" xlink:href="#DejaVuSans-40"/>
     <use x="388.916016" xlink:href="#DejaVuSans-50"/>
     <use x="452.539062" xlink:href="#DejaVuSans-48"/>
     <use x="516.162109" xlink:href="#DejaVuSans-49"/>
     <use x="579.785156" xlink:href="#DejaVuSans-55"/>
     <use x="643.408203" xlink:href="#DejaVuSans-45"/>
     <use x="679.492188" xlink:href="#DejaVuSans-49"/>
     <use x="743.115234" xlink:href="#DejaVuSans-49"/>
     <use x="806.738281" xlink:href="#DejaVuSans-45"/>
     <use x="842.822266" xlink:href="#DejaVuSans-48"/>
     <use x="906.445312" xlink:href="#DejaVuSans-50"/>
     <use x="970.068359" xlink:href="#DejaVuSans-41"/>
    </g>
   </g>
   <g id="text_19">
    <!-- 63652 (2018-05-21) -->
    <g style="fill:#262626;" transform="translate(455.752956 270.390678)scale(0.1 -0.1)">
     <use xlink:href="#DejaVuSans-54"/>
     <use x="63.623047" xlink:href="#DejaVuSans-51"/>
     <use x="127.246094" xlink:href="#DejaVuSans-54"/>
     <use x="190.869141" xlink:href="#DejaVuSans-53"/>
     <use x="254.492188" xlink:href="#DejaVuSans-50"/>
     <use x="318.115234" xlink:href="#DejaVuSans-32"/>
     <use x="349.902344" xlink:href="#DejaVuSans-40"/>
     <use x="388.916016" xlink:href="#DejaVuSans-50"/>
     <use x="452.539062" xlink:href="#DejaVuSans-48"/>
     <use x="516.162109" xlink:href="#DejaVuSans-49"/>
     <use x="579.785156" xlink:href="#DejaVuSans-56"/>
     <use x="643.408203" xlink:href="#DejaVuSans-45"/>
     <use x="679.492188" xlink:href="#DejaVuSans-48"/>
     <use x="743.115234" xlink:href="#DejaVuSans-53"/>
     <use x="806.738281" xlink:href="#DejaVuSans-45"/>
     <use x="842.822266" xlink:href="#DejaVuSans-50"/>
     <use x="906.445312" xlink:href="#DejaVuSans-49"/>
     <use x="970.068359" xlink:href="#DejaVuSans-41"/>
    </g>
   </g>
   <g id="text_20">
    <!-- 72745 (2019-01-24) -->
    <g style="fill:#262626;" transform="translate(513.327533 219.989569)scale(0.1 -0.1)">
     <use xlink:href="#DejaVuSans-55"/>
     <use x="63.623047" xlink:href="#DejaVuSans-50"/>
     <use x="127.246094" xlink:href="#DejaVuSans-55"/>
     <use x="190.869141" xlink:href="#DejaVuSans-52"/>
     <use x="254.492188" xlink:href="#DejaVuSans-53"/>
     <use x="318.115234" xlink:href="#DejaVuSans-32"/>
     <use x="349.902344" xlink:href="#DejaVuSans-40"/>
     <use x="388.916016" xlink:href="#DejaVuSans-50"/>
     <use x="452.539062" xlink:href="#DejaVuSans-48"/>
     <use x="516.162109" xlink:href="#DejaVuSans-49"/>
     <use x="579.785156" xlink:href="#DejaVuSans-57"/>
     <use x="643.408203" xlink:href="#DejaVuSans-45"/>
     <use x="679.492188" xlink:href="#DejaVuSans-48"/>
     <use x="743.115234" xlink:href="#DejaVuSans-49"/>
     <use x="806.738281" xlink:href="#DejaVuSans-45"/>
     <use x="842.822266" xlink:href="#DejaVuSans-50"/>
     <use x="906.445312" xlink:href="#DejaVuSans-52"/>
     <use x="970.068359" xlink:href="#DejaVuSans-41"/>
    </g>
   </g>
   <g id="text_21">
    <!-- 81838 (2019-09-07) -->
    <g style="fill:#262626;" transform="translate(565.656464 169.58846)scale(0.1 -0.1)">
     <use xlink:href="#DejaVuSans-56"/>
     <use x="63.623047" xlink:href="#DejaVuSans-49"/>
     <use x="127.246094" xlink:href="#DejaVuSans-56"/>
     <use x="190.869141" xlink:href="#DejaVuSans-51"/>
     <use x="254.492188" xlink:href="#DejaVuSans-56"/>
     <use x="318.115234" xlink:href="#DejaVuSans-32"/>
     <use x="349.902344" xlink:href="#DejaVuSans-40"/>
     <use x="388.916016" xlink:href="#DejaVuSans-50"/>
     <use x="452.539062" xlink:href="#DejaVuSans-48"/>
     <use x="516.162109" xlink:href="#DejaVuSans-49"/>
     <use x="579.785156" xlink:href="#DejaVuSans-57"/>
     <use x="643.408203" xlink:href="#DejaVuSans-45"/>
     <use x="679.492188" xlink:href="#DejaVuSans-48"/>
     <use x="743.115234" xlink:href="#DejaVuSans-57"/>
     <use x="806.738281" xlink:href="#DejaVuSans-45"/>
     <use x="842.822266" xlink:href="#DejaVuSans-48"/>
     <use x="906.445312" xlink:href="#DejaVuSans-55"/>
     <use x="970.068359" xlink:href="#DejaVuSans-41"/>
    </g>
   </g>
   <g id="text_22">
    <!-- 90929 (2020-05-31) -->
    <g style="fill:#262626;" transform="translate(627.636364 119.198437)scale(0.1 -0.1)">
     <use xlink:href="#DejaVuSans-57"/>
     <use x="63.623047" xlink:href="#DejaVuSans-48"/>
     <use x="127.246094" xlink:href="#DejaVuSans-57"/>
     <use x="190.869141" xlink:href="#DejaVuSans-50"/>
     <use x="254.492188" xlink:href="#DejaVuSans-57"/>
     <use x="318.115234" xlink:href="#DejaVuSans-32"/>
     <use x="349.902344" xlink:href="#DejaVuSans-40"/>
     <use x="388.916016" xlink:href="#DejaVuSans-50"/>
     <use x="452.539062" xlink:href="#DejaVuSans-48"/>
     <use x="516.162109" xlink:href="#DejaVuSans-50"/>
     <use x="579.785156" xlink:href="#DejaVuSans-48"/>
     <use x="643.408203" xlink:href="#DejaVuSans-45"/>
     <use x="679.492188" xlink:href="#DejaVuSans-48"/>
     <use x="743.115234" xlink:href="#DejaVuSans-53"/>
     <use x="806.738281" xlink:href="#DejaVuSans-45"/>
     <use x="842.822266" xlink:href="#DejaVuSans-51"/>
     <use x="906.445312" xlink:href="#DejaVuSans-49"/>
     <use x="970.068359" xlink:href="#DejaVuSans-41"/>
    </g>
   </g>
   <g id="text_23">
    <!-- Created issues and PRs over time -->
    <defs>
     <path d="M 64.40625 67.28125 
L 64.40625 56.890625 
Q 59.421875 61.53125 53.78125 63.8125 
Q 48.140625 66.109375 41.796875 66.109375 
Q 29.296875 66.109375 22.65625 58.46875 
Q 16.015625 50.828125 16.015625 36.375 
Q 16.015625 21.96875 22.65625 14.328125 
Q 29.296875 6.6875 41.796875 6.6875 
Q 48.140625 6.6875 53.78125 8.984375 
Q 59.421875 11.28125 64.40625 15.921875 
L 64.40625 5.609375 
Q 59.234375 2.09375 53.4375 0.328125 
Q 47.65625 -1.421875 41.21875 -1.421875 
Q 24.65625 -1.421875 15.125 8.703125 
Q 5.609375 18.84375 5.609375 36.375 
Q 5.609375 53.953125 15.125 64.078125 
Q 24.65625 74.21875 41.21875 74.21875 
Q 47.75 74.21875 53.53125 72.484375 
Q 59.328125 70.75 64.40625 67.28125 
z
" id="DejaVuSans-67"/>
     <path d="M 41.109375 46.296875 
Q 39.59375 47.171875 37.8125 47.578125 
Q 36.03125 48 33.890625 48 
Q 26.265625 48 22.1875 43.046875 
Q 18.109375 38.09375 18.109375 28.8125 
L 18.109375 0 
L 9.078125 0 
L 9.078125 54.6875 
L 18.109375 54.6875 
L 18.109375 46.1875 
Q 20.953125 51.171875 25.484375 53.578125 
Q 30.03125 56 36.53125 56 
Q 37.453125 56 38.578125 55.875 
Q 39.703125 55.765625 41.0625 55.515625 
z
" id="DejaVuSans-114"/>
     <path d="M 56.203125 29.59375 
L 56.203125 25.203125 
L 14.890625 25.203125 
Q 15.484375 15.921875 20.484375 11.0625 
Q 25.484375 6.203125 34.421875 6.203125 
Q 39.59375 6.203125 44.453125 7.46875 
Q 49.3125 8.734375 54.109375 11.28125 
L 54.109375 2.78125 
Q 49.265625 0.734375 44.1875 -0.34375 
Q 39.109375 -1.421875 33.890625 -1.421875 
Q 20.796875 -1.421875 13.15625 6.1875 
Q 5.515625 13.8125 5.515625 26.8125 
Q 5.515625 40.234375 12.765625 48.109375 
Q 20.015625 56 32.328125 56 
Q 43.359375 56 49.78125 48.890625 
Q 56.203125 41.796875 56.203125 29.59375 
z
M 47.21875 32.234375 
Q 47.125 39.59375 43.09375 43.984375 
Q 39.0625 48.390625 32.421875 48.390625 
Q 24.90625 48.390625 20.390625 44.140625 
Q 15.875 39.890625 15.1875 32.171875 
z
" id="DejaVuSans-101"/>
     <path d="M 34.28125 27.484375 
Q 23.390625 27.484375 19.1875 25 
Q 14.984375 22.515625 14.984375 16.5 
Q 14.984375 11.71875 18.140625 8.90625 
Q 21.296875 6.109375 26.703125 6.109375 
Q 34.1875 6.109375 38.703125 11.40625 
Q 43.21875 16.703125 43.21875 25.484375 
L 43.21875 27.484375 
z
M 52.203125 31.203125 
L 52.203125 0 
L 43.21875 0 
L 43.21875 8.296875 
Q 40.140625 3.328125 35.546875 0.953125 
Q 30.953125 -1.421875 24.3125 -1.421875 
Q 15.921875 -1.421875 10.953125 3.296875 
Q 6 8.015625 6 15.921875 
Q 6 25.140625 12.171875 29.828125 
Q 18.359375 34.515625 30.609375 34.515625 
L 43.21875 34.515625 
L 43.21875 35.40625 
Q 43.21875 41.609375 39.140625 45 
Q 35.0625 48.390625 27.6875 48.390625 
Q 23 48.390625 18.546875 47.265625 
Q 14.109375 46.140625 10.015625 43.890625 
L 10.015625 52.203125 
Q 14.9375 54.109375 19.578125 55.046875 
Q 24.21875 56 28.609375 56 
Q 40.484375 56 46.34375 49.84375 
Q 52.203125 43.703125 52.203125 31.203125 
z
" id="DejaVuSans-97"/>
     <path d="M 18.3125 70.21875 
L 18.3125 54.6875 
L 36.8125 54.6875 
L 36.8125 47.703125 
L 18.3125 47.703125 
L 18.3125 18.015625 
Q 18.3125 11.328125 20.140625 9.421875 
Q 21.96875 7.515625 27.59375 7.515625 
L 36.8125 7.515625 
L 36.8125 0 
L 27.59375 0 
Q 17.1875 0 13.234375 3.875 
Q 9.28125 7.765625 9.28125 18.015625 
L 9.28125 47.703125 
L 2.6875 47.703125 
L 2.6875 54.6875 
L 9.28125 54.6875 
L 9.28125 70.21875 
z
" id="DejaVuSans-116"/>
     <path d="M 45.40625 46.390625 
L 45.40625 75.984375 
L 54.390625 75.984375 
L 54.390625 0 
L 45.40625 0 
L 45.40625 8.203125 
Q 42.578125 3.328125 38.25 0.953125 
Q 33.9375 -1.421875 27.875 -1.421875 
Q 17.96875 -1.421875 11.734375 6.484375 
Q 5.515625 14.40625 5.515625 27.296875 
Q 5.515625 40.1875 11.734375 48.09375 
Q 17.96875 56 27.875 56 
Q 33.9375 56 38.25 53.625 
Q 42.578125 51.265625 45.40625 46.390625 
z
M 14.796875 27.296875 
Q 14.796875 17.390625 18.875 11.75 
Q 22.953125 6.109375 30.078125 6.109375 
Q 37.203125 6.109375 41.296875 11.75 
Q 45.40625 17.390625 45.40625 27.296875 
Q 45.40625 37.203125 41.296875 42.84375 
Q 37.203125 48.484375 30.078125 48.484375 
Q 22.953125 48.484375 18.875 42.84375 
Q 14.796875 37.203125 14.796875 27.296875 
z
" id="DejaVuSans-100"/>
     <path d="M 9.421875 54.6875 
L 18.40625 54.6875 
L 18.40625 0 
L 9.421875 0 
z
M 9.421875 75.984375 
L 18.40625 75.984375 
L 18.40625 64.59375 
L 9.421875 64.59375 
z
" id="DejaVuSans-105"/>
     <path d="M 44.28125 53.078125 
L 44.28125 44.578125 
Q 40.484375 46.53125 36.375 47.5 
Q 32.28125 48.484375 27.875 48.484375 
Q 21.1875 48.484375 17.84375 46.4375 
Q 14.5 44.390625 14.5 40.28125 
Q 14.5 37.15625 16.890625 35.375 
Q 19.28125 33.59375 26.515625 31.984375 
L 29.59375 31.296875 
Q 39.15625 29.25 43.1875 25.515625 
Q 47.21875 21.78125 47.21875 15.09375 
Q 47.21875 7.46875 41.1875 3.015625 
Q 35.15625 -1.421875 24.609375 -1.421875 
Q 20.21875 -1.421875 15.453125 -0.5625 
Q 10.6875 0.296875 5.421875 2 
L 5.421875 11.28125 
Q 10.40625 8.6875 15.234375 7.390625 
Q 20.0625 6.109375 24.8125 6.109375 
Q 31.15625 6.109375 34.5625 8.28125 
Q 37.984375 10.453125 37.984375 14.40625 
Q 37.984375 18.0625 35.515625 20.015625 
Q 33.0625 21.96875 24.703125 23.78125 
L 21.578125 24.515625 
Q 13.234375 26.265625 9.515625 29.90625 
Q 5.8125 33.546875 5.8125 39.890625 
Q 5.8125 47.609375 11.28125 51.796875 
Q 16.75 56 26.8125 56 
Q 31.78125 56 36.171875 55.265625 
Q 40.578125 54.546875 44.28125 53.078125 
z
" id="DejaVuSans-115"/>
     <path d="M 8.5 21.578125 
L 8.5 54.6875 
L 17.484375 54.6875 
L 17.484375 21.921875 
Q 17.484375 14.15625 20.5 10.265625 
Q 23.53125 6.390625 29.59375 6.390625 
Q 36.859375 6.390625 41.078125 11.03125 
Q 45.3125 15.671875 45.3125 23.6875 
L 45.3125 54.6875 
L 54.296875 54.6875 
L 54.296875 0 
L 45.3125 0 
L 45.3125 8.40625 
Q 42.046875 3.421875 37.71875 1 
Q 33.40625 -1.421875 27.6875 -1.421875 
Q 18.265625 -1.421875 13.375 4.4375 
Q 8.5 10.296875 8.5 21.578125 
z
M 31.109375 56 
z
" id="DejaVuSans-117"/>
     <path d="M 54.890625 33.015625 
L 54.890625 0 
L 45.90625 0 
L 45.90625 32.71875 
Q 45.90625 40.484375 42.875 44.328125 
Q 39.84375 48.1875 33.796875 48.1875 
Q 26.515625 48.1875 22.3125 43.546875 
Q 18.109375 38.921875 18.109375 30.90625 
L 18.109375 0 
L 9.078125 0 
L 9.078125 54.6875 
L 18.109375 54.6875 
L 18.109375 46.1875 
Q 21.34375 51.125 25.703125 53.5625 
Q 30.078125 56 35.796875 56 
Q 45.21875 56 50.046875 50.171875 
Q 54.890625 44.34375 54.890625 33.015625 
z
" id="DejaVuSans-110"/>
     <path d="M 19.671875 64.796875 
L 19.671875 37.40625 
L 32.078125 37.40625 
Q 38.96875 37.40625 42.71875 40.96875 
Q 46.484375 44.53125 46.484375 51.125 
Q 46.484375 57.671875 42.71875 61.234375 
Q 38.96875 64.796875 32.078125 64.796875 
z
M 9.8125 72.90625 
L 32.078125 72.90625 
Q 44.34375 72.90625 50.609375 67.359375 
Q 56.890625 61.8125 56.890625 51.125 
Q 56.890625 40.328125 50.609375 34.8125 
Q 44.34375 29.296875 32.078125 29.296875 
L 19.671875 29.296875 
L 19.671875 0 
L 9.8125 0 
z
" id="DejaVuSans-80"/>
     <path d="M 44.390625 34.1875 
Q 47.5625 33.109375 50.5625 29.59375 
Q 53.5625 26.078125 56.59375 19.921875 
L 66.609375 0 
L 56 0 
L 46.6875 18.703125 
Q 43.0625 26.03125 39.671875 28.421875 
Q 36.28125 30.8125 30.421875 30.8125 
L 19.671875 30.8125 
L 19.671875 0 
L 9.8125 0 
L 9.8125 72.90625 
L 32.078125 72.90625 
Q 44.578125 72.90625 50.734375 67.671875 
Q 56.890625 62.453125 56.890625 51.90625 
Q 56.890625 45.015625 53.6875 40.46875 
Q 50.484375 35.9375 44.390625 34.1875 
z
M 19.671875 64.796875 
L 19.671875 38.921875 
L 32.078125 38.921875 
Q 39.203125 38.921875 42.84375 42.21875 
Q 46.484375 45.515625 46.484375 51.90625 
Q 46.484375 58.296875 42.84375 61.546875 
Q 39.203125 64.796875 32.078125 64.796875 
z
" id="DejaVuSans-82"/>
     <path d="M 30.609375 48.390625 
Q 23.390625 48.390625 19.1875 42.75 
Q 14.984375 37.109375 14.984375 27.296875 
Q 14.984375 17.484375 19.15625 11.84375 
Q 23.34375 6.203125 30.609375 6.203125 
Q 37.796875 6.203125 41.984375 11.859375 
Q 46.1875 17.53125 46.1875 27.296875 
Q 46.1875 37.015625 41.984375 42.703125 
Q 37.796875 48.390625 30.609375 48.390625 
z
M 30.609375 56 
Q 42.328125 56 49.015625 48.375 
Q 55.71875 40.765625 55.71875 27.296875 
Q 55.71875 13.875 49.015625 6.21875 
Q 42.328125 -1.421875 30.609375 -1.421875 
Q 18.84375 -1.421875 12.171875 6.21875 
Q 5.515625 13.875 5.515625 27.296875 
Q 5.515625 40.765625 12.171875 48.375 
Q 18.84375 56 30.609375 56 
z
" id="DejaVuSans-111"/>
     <path d="M 2.984375 54.6875 
L 12.5 54.6875 
L 29.59375 8.796875 
L 46.6875 54.6875 
L 56.203125 54.6875 
L 35.6875 0 
L 23.484375 0 
z
" id="DejaVuSans-118"/>
     <path d="M 52 44.1875 
Q 55.375 50.25 60.0625 53.125 
Q 64.75 56 71.09375 56 
Q 79.640625 56 84.28125 50.015625 
Q 88.921875 44.046875 88.921875 33.015625 
L 88.921875 0 
L 79.890625 0 
L 79.890625 32.71875 
Q 79.890625 40.578125 77.09375 44.375 
Q 74.3125 48.1875 68.609375 48.1875 
Q 61.625 48.1875 57.5625 43.546875 
Q 53.515625 38.921875 53.515625 30.90625 
L 53.515625 0 
L 44.484375 0 
L 44.484375 32.71875 
Q 44.484375 40.625 41.703125 44.40625 
Q 38.921875 48.1875 33.109375 48.1875 
Q 26.21875 48.1875 22.15625 43.53125 
Q 18.109375 38.875 18.109375 30.90625 
L 18.109375 0 
L 9.078125 0 
L 9.078125 54.6875 
L 18.109375 54.6875 
L 18.109375 46.1875 
Q 21.1875 51.21875 25.484375 53.609375 
Q 29.78125 56 35.6875 56 
Q 41.65625 56 45.828125 52.96875 
Q 50 49.953125 52 44.1875 
z
" id="DejaVuSans-109"/>
    </defs>
    <g style="fill:#262626;" transform="translate(268.047188 80.4)scale(0.12 -0.12)">
     <use xlink:href="#DejaVuSans-67"/>
     <use x="69.824219" xlink:href="#DejaVuSans-114"/>
     <use x="108.6875" xlink:href="#DejaVuSans-101"/>
     <use x="170.210938" xlink:href="#DejaVuSans-97"/>
     <use x="231.490234" xlink:href="#DejaVuSans-116"/>
     <use x="270.699219" xlink:href="#DejaVuSans-101"/>
     <use x="332.222656" xlink:href="#DejaVuSans-100"/>
     <use x="395.699219" xlink:href="#DejaVuSans-32"/>
     <use x="427.486328" xlink:href="#DejaVuSans-105"/>
     <use x="455.269531" xlink:href="#DejaVuSans-115"/>
     <use x="507.369141" xlink:href="#DejaVuSans-115"/>
     <use x="559.46875" xlink:href="#DejaVuSans-117"/>
     <use x="622.847656" xlink:href="#DejaVuSans-101"/>
     <use x="684.371094" xlink:href="#DejaVuSans-115"/>
     <use x="736.470703" xlink:href="#DejaVuSans-32"/>
     <use x="768.257812" xlink:href="#DejaVuSans-97"/>
     <use x="829.537109" xlink:href="#DejaVuSans-110"/>
     <use x="892.916016" xlink:href="#DejaVuSans-100"/>
     <use x="956.392578" xlink:href="#DejaVuSans-32"/>
     <use x="988.179688" xlink:href="#DejaVuSans-80"/>
     <use x="1048.482422" xlink:href="#DejaVuSans-82"/>
     <use x="1117.964844" xlink:href="#DejaVuSans-115"/>
     <use x="1170.064453" xlink:href="#DejaVuSans-32"/>
     <use x="1201.851562" xlink:href="#DejaVuSans-111"/>
     <use x="1263.033203" xlink:href="#DejaVuSans-118"/>
     <use x="1322.212891" xlink:href="#DejaVuSans-101"/>
     <use x="1383.736328" xlink:href="#DejaVuSans-114"/>
     <use x="1424.849609" xlink:href="#DejaVuSans-32"/>
     <use x="1456.636719" xlink:href="#DejaVuSans-116"/>
     <use x="1495.845703" xlink:href="#DejaVuSans-105"/>
     <use x="1523.628906" xlink:href="#DejaVuSans-109"/>
     <use x="1621.041016" xlink:href="#DejaVuSans-101"/>
    </g>
   </g>
  </g>
 </g>
 <defs>
  <clipPath id="p4442999817">
   <rect height="554.4" width="558" x="90" y="86.4"/>
  </clipPath>
 </defs>
</svg>
