<?xml version="1.0" encoding="utf-8" standalone="no"?>
<!DOCTYPE svg PUBLIC "-//W3C//DTD SVG 1.1//EN"
  "http://www.w3.org/Graphics/SVG/1.1/DTD/svg11.dtd">
<!-- Created with matplotlib (https://matplotlib.org/) -->
<svg height="720pt" version="1.1" viewBox="0 0 720 720" width="720pt" xmlns="http://www.w3.org/2000/svg" xmlns:xlink="http://www.w3.org/1999/xlink">
 <defs>
  <style type="text/css">
*{stroke-linecap:butt;stroke-linejoin:round;}
  </style>
 </defs>
 <g id="figure_1">
  <g id="patch_1">
   <path d="M 0 720 
L 720 720 
L 720 0 
L 0 0 
z
" style="fill:#ffffff;"/>
  </g>
  <g id="axes_1">
   <g id="patch_2">
    <path d="M 90 640.8 
L 648 640.8 
L 648 86.4 
L 90 86.4 
z
" style="fill:#ffffff;"/>
   </g>
   <g id="matplotlib.axis_1">
    <g id="xtick_1">
     <g id="line2d_1">
      <path clip-path="url(#p42d3ebe0e1)" d="M 162.737793 640.8 
L 162.737793 86.4 
" style="fill:none;stroke:#cccccc;stroke-linecap:round;stroke-width:0.8;"/>
     </g>
     <g id="line2d_2"/>
     <g id="text_1">
      <!-- 2015 -->
      <defs>
       <path d="M 19.1875 8.296875 
L 53.609375 8.296875 
L 53.609375 0 
L 7.328125 0 
L 7.328125 8.296875 
Q 12.9375 14.109375 22.625 23.890625 
Q 32.328125 33.6875 34.8125 36.53125 
Q 39.546875 41.84375 41.421875 45.53125 
Q 43.3125 49.21875 43.3125 52.78125 
Q 43.3125 58.59375 39.234375 62.25 
Q 35.15625 65.921875 28.609375 65.921875 
Q 23.96875 65.921875 18.8125 64.3125 
Q 13.671875 62.703125 7.8125 59.421875 
L 7.8125 69.390625 
Q 13.765625 71.78125 18.9375 73 
Q 24.125 74.21875 28.421875 74.21875 
Q 39.75 74.21875 46.484375 68.546875 
Q 53.21875 62.890625 53.21875 53.421875 
Q 53.21875 48.921875 51.53125 44.890625 
Q 49.859375 40.875 45.40625 35.40625 
Q 44.1875 33.984375 37.640625 27.21875 
Q 31.109375 20.453125 19.1875 8.296875 
z
" id="DejaVuSans-50"/>
       <path d="M 31.78125 66.40625 
Q 24.171875 66.40625 20.328125 58.90625 
Q 16.5 51.421875 16.5 36.375 
Q 16.5 21.390625 20.328125 13.890625 
Q 24.171875 6.390625 31.78125 6.390625 
Q 39.453125 6.390625 43.28125 13.890625 
Q 47.125 21.390625 47.125 36.375 
Q 47.125 51.421875 43.28125 58.90625 
Q 39.453125 66.40625 31.78125 66.40625 
z
M 31.78125 74.21875 
Q 44.046875 74.21875 50.515625 64.515625 
Q 56.984375 54.828125 56.984375 36.375 
Q 56.984375 17.96875 50.515625 8.265625 
Q 44.046875 -1.421875 31.78125 -1.421875 
Q 19.53125 -1.421875 13.0625 8.265625 
Q 6.59375 17.96875 6.59375 36.375 
Q 6.59375 54.828125 13.0625 64.515625 
Q 19.53125 74.21875 31.78125 74.21875 
z
" id="DejaVuSans-48"/>
       <path d="M 12.40625 8.296875 
L 28.515625 8.296875 
L 28.515625 63.921875 
L 10.984375 60.40625 
L 10.984375 69.390625 
L 28.421875 72.90625 
L 38.28125 72.90625 
L 38.28125 8.296875 
L 54.390625 8.296875 
L 54.390625 0 
L 12.40625 0 
z
" id="DejaVuSans-49"/>
       <path d="M 10.796875 72.90625 
L 49.515625 72.90625 
L 49.515625 64.59375 
L 19.828125 64.59375 
L 19.828125 46.734375 
Q 21.96875 47.46875 24.109375 47.828125 
Q 26.265625 48.1875 28.421875 48.1875 
Q 40.625 48.1875 47.75 41.5 
Q 54.890625 34.8125 54.890625 23.390625 
Q 54.890625 11.625 47.5625 5.09375 
Q 40.234375 -1.421875 26.90625 -1.421875 
Q 22.3125 -1.421875 17.546875 -0.640625 
Q 12.796875 0.140625 7.71875 1.703125 
L 7.71875 11.625 
Q 12.109375 9.234375 16.796875 8.0625 
Q 21.484375 6.890625 26.703125 6.890625 
Q 35.15625 6.890625 40.078125 11.328125 
Q 45.015625 15.765625 45.015625 23.390625 
Q 45.015625 31 40.078125 35.4375 
Q 35.15625 39.890625 26.703125 39.890625 
Q 22.75 39.890625 18.8125 39.015625 
Q 14.890625 38.140625 10.796875 36.28125 
z
" id="DejaVuSans-53"/>
      </defs>
      <g style="fill:#262626;" transform="translate(150.012793 651.898438)scale(0.1 -0.1)">
       <use xlink:href="#DejaVuSans-50"/>
       <use x="63.623047" xlink:href="#DejaVuSans-48"/>
       <use x="127.246094" xlink:href="#DejaVuSans-49"/>
       <use x="190.869141" xlink:href="#DejaVuSans-53"/>
      </g>
     </g>
    </g>
    <g id="xtick_2">
     <g id="line2d_3">
      <path clip-path="url(#p42d3ebe0e1)" d="M 245.868336 640.8 
L 245.868336 86.4 
" style="fill:none;stroke:#cccccc;stroke-linecap:round;stroke-width:0.8;"/>
     </g>
     <g id="line2d_4"/>
     <g id="text_2">
      <!-- 2016 -->
      <defs>
       <path d="M 33.015625 40.375 
Q 26.375 40.375 22.484375 35.828125 
Q 18.609375 31.296875 18.609375 23.390625 
Q 18.609375 15.53125 22.484375 10.953125 
Q 26.375 6.390625 33.015625 6.390625 
Q 39.65625 6.390625 43.53125 10.953125 
Q 47.40625 15.53125 47.40625 23.390625 
Q 47.40625 31.296875 43.53125 35.828125 
Q 39.65625 40.375 33.015625 40.375 
z
M 52.59375 71.296875 
L 52.59375 62.3125 
Q 48.875 64.0625 45.09375 64.984375 
Q 41.3125 65.921875 37.59375 65.921875 
Q 27.828125 65.921875 22.671875 59.328125 
Q 17.53125 52.734375 16.796875 39.40625 
Q 19.671875 43.65625 24.015625 45.921875 
Q 28.375 48.1875 33.59375 48.1875 
Q 44.578125 48.1875 50.953125 41.515625 
Q 57.328125 34.859375 57.328125 23.390625 
Q 57.328125 12.15625 50.6875 5.359375 
Q 44.046875 -1.421875 33.015625 -1.421875 
Q 20.359375 -1.421875 13.671875 8.265625 
Q 6.984375 17.96875 6.984375 36.375 
Q 6.984375 53.65625 15.1875 63.9375 
Q 23.390625 74.21875 37.203125 74.21875 
Q 40.921875 74.21875 44.703125 73.484375 
Q 48.484375 72.75 52.59375 71.296875 
z
" id="DejaVuSans-54"/>
      </defs>
      <g style="fill:#262626;" transform="translate(233.143336 651.898438)scale(0.1 -0.1)">
       <use xlink:href="#DejaVuSans-50"/>
       <use x="63.623047" xlink:href="#DejaVuSans-48"/>
       <use x="127.246094" xlink:href="#DejaVuSans-49"/>
       <use x="190.869141" xlink:href="#DejaVuSans-54"/>
      </g>
     </g>
    </g>
    <g id="xtick_3">
     <g id="line2d_5">
      <path clip-path="url(#p42d3ebe0e1)" d="M 329.226633 640.8 
L 329.226633 86.4 
" style="fill:none;stroke:#cccccc;stroke-linecap:round;stroke-width:0.8;"/>
     </g>
     <g id="line2d_6"/>
     <g id="text_3">
      <!-- 2017 -->
      <defs>
       <path d="M 8.203125 72.90625 
L 55.078125 72.90625 
L 55.078125 68.703125 
L 28.609375 0 
L 18.3125 0 
L 43.21875 64.59375 
L 8.203125 64.59375 
z
" id="DejaVuSans-55"/>
      </defs>
      <g style="fill:#262626;" transform="translate(316.501633 651.898438)scale(0.1 -0.1)">
       <use xlink:href="#DejaVuSans-50"/>
       <use x="63.623047" xlink:href="#DejaVuSans-48"/>
       <use x="127.246094" xlink:href="#DejaVuSans-49"/>
       <use x="190.869141" xlink:href="#DejaVuSans-55"/>
      </g>
     </g>
    </g>
    <g id="xtick_4">
     <g id="line2d_7">
      <path clip-path="url(#p42d3ebe0e1)" d="M 412.357176 640.8 
L 412.357176 86.4 
" style="fill:none;stroke:#cccccc;stroke-linecap:round;stroke-width:0.8;"/>
     </g>
     <g id="line2d_8"/>
     <g id="text_4">
      <!-- 2018 -->
      <defs>
       <path d="M 31.78125 34.625 
Q 24.75 34.625 20.71875 30.859375 
Q 16.703125 27.09375 16.703125 20.515625 
Q 16.703125 13.921875 20.71875 10.15625 
Q 24.75 6.390625 31.78125 6.390625 
Q 38.8125 6.390625 42.859375 10.171875 
Q 46.921875 13.96875 46.921875 20.515625 
Q 46.921875 27.09375 42.890625 30.859375 
Q 38.875 34.625 31.78125 34.625 
z
M 21.921875 38.8125 
Q 15.578125 40.375 12.03125 44.71875 
Q 8.5 49.078125 8.5 55.328125 
Q 8.5 64.0625 14.71875 69.140625 
Q 20.953125 74.21875 31.78125 74.21875 
Q 42.671875 74.21875 48.875 69.140625 
Q 55.078125 64.0625 55.078125 55.328125 
Q 55.078125 49.078125 51.53125 44.71875 
Q 48 40.375 41.703125 38.8125 
Q 48.828125 37.15625 52.796875 32.3125 
Q 56.78125 27.484375 56.78125 20.515625 
Q 56.78125 9.90625 50.3125 4.234375 
Q 43.84375 -1.421875 31.78125 -1.421875 
Q 19.734375 -1.421875 13.25 4.234375 
Q 6.78125 9.90625 6.78125 20.515625 
Q 6.78125 27.484375 10.78125 32.3125 
Q 14.796875 37.15625 21.921875 38.8125 
z
M 18.3125 54.390625 
Q 18.3125 48.734375 21.84375 45.5625 
Q 25.390625 42.390625 31.78125 42.390625 
Q 38.140625 42.390625 41.71875 45.5625 
Q 45.3125 48.734375 45.3125 54.390625 
Q 45.3125 60.0625 41.71875 63.234375 
Q 38.140625 66.40625 31.78125 66.40625 
Q 25.390625 66.40625 21.84375 63.234375 
Q 18.3125 60.0625 18.3125 54.390625 
z
" id="DejaVuSans-56"/>
      </defs>
      <g style="fill:#262626;" transform="translate(399.632176 651.898438)scale(0.1 -0.1)">
       <use xlink:href="#DejaVuSans-50"/>
       <use x="63.623047" xlink:href="#DejaVuSans-48"/>
       <use x="127.246094" xlink:href="#DejaVuSans-49"/>
       <use x="190.869141" xlink:href="#DejaVuSans-56"/>
      </g>
     </g>
    </g>
    <g id="xtick_5">
     <g id="line2d_9">
      <path clip-path="url(#p42d3ebe0e1)" d="M 495.487718 640.8 
L 495.487718 86.4 
" style="fill:none;stroke:#cccccc;stroke-linecap:round;stroke-width:0.8;"/>
     </g>
     <g id="line2d_10"/>
     <g id="text_5">
      <!-- 2019 -->
      <defs>
       <path d="M 10.984375 1.515625 
L 10.984375 10.5 
Q 14.703125 8.734375 18.5 7.8125 
Q 22.3125 6.890625 25.984375 6.890625 
Q 35.75 6.890625 40.890625 13.453125 
Q 46.046875 20.015625 46.78125 33.40625 
Q 43.953125 29.203125 39.59375 26.953125 
Q 35.25 24.703125 29.984375 24.703125 
Q 19.046875 24.703125 12.671875 31.3125 
Q 6.296875 37.9375 6.296875 49.421875 
Q 6.296875 60.640625 12.9375 67.421875 
Q 19.578125 74.21875 30.609375 74.21875 
Q 43.265625 74.21875 49.921875 64.515625 
Q 56.59375 54.828125 56.59375 36.375 
Q 56.59375 19.140625 48.40625 8.859375 
Q 40.234375 -1.421875 26.421875 -1.421875 
Q 22.703125 -1.421875 18.890625 -0.6875 
Q 15.09375 0.046875 10.984375 1.515625 
z
M 30.609375 32.421875 
Q 37.25 32.421875 41.125 36.953125 
Q 45.015625 41.5 45.015625 49.421875 
Q 45.015625 57.28125 41.125 61.84375 
Q 37.25 66.40625 30.609375 66.40625 
Q 23.96875 66.40625 20.09375 61.84375 
Q 16.21875 57.28125 16.21875 49.421875 
Q 16.21875 41.5 20.09375 36.953125 
Q 23.96875 32.421875 30.609375 32.421875 
z
" id="DejaVuSans-57"/>
      </defs>
      <g style="fill:#262626;" transform="translate(482.762718 651.898438)scale(0.1 -0.1)">
       <use xlink:href="#DejaVuSans-50"/>
       <use x="63.623047" xlink:href="#DejaVuSans-48"/>
       <use x="127.246094" xlink:href="#DejaVuSans-49"/>
       <use x="190.869141" xlink:href="#DejaVuSans-57"/>
      </g>
     </g>
    </g>
    <g id="xtick_6">
     <g id="line2d_11">
      <path clip-path="url(#p42d3ebe0e1)" d="M 578.618261 640.8 
L 578.618261 86.4 
" style="fill:none;stroke:#cccccc;stroke-linecap:round;stroke-width:0.8;"/>
     </g>
     <g id="line2d_12"/>
     <g id="text_6">
      <!-- 2020 -->
      <g style="fill:#262626;" transform="translate(565.893261 651.898438)scale(0.1 -0.1)">
       <use xlink:href="#DejaVuSans-50"/>
       <use x="63.623047" xlink:href="#DejaVuSans-48"/>
       <use x="127.246094" xlink:href="#DejaVuSans-50"/>
       <use x="190.869141" xlink:href="#DejaVuSans-48"/>
      </g>
     </g>
    </g>
   </g>
   <g id="matplotlib.axis_2">
    <g id="ytick_1">
     <g id="line2d_13">
      <path clip-path="url(#p42d3ebe0e1)" d="M 90 615.605458 
L 648 615.605458 
" style="fill:none;stroke:#cccccc;stroke-linecap:round;stroke-width:0.8;"/>
     </g>
     <g id="line2d_14"/>
     <g id="text_7">
      <!-- 0 -->
      <g style="fill:#262626;" transform="translate(80.1375 619.404677)scale(0.1 -0.1)">
       <use xlink:href="#DejaVuSans-48"/>
      </g>
     </g>
    </g>
    <g id="ytick_2">
     <g id="line2d_15">
      <path clip-path="url(#p42d3ebe0e1)" d="M 90 506.436572 
L 648 506.436572 
" style="fill:none;stroke:#cccccc;stroke-linecap:round;stroke-width:0.8;"/>
     </g>
     <g id="line2d_16"/>
     <g id="text_8">
      <!-- 20000 -->
      <g style="fill:#262626;" transform="translate(54.6875 510.23579)scale(0.1 -0.1)">
       <use xlink:href="#DejaVuSans-50"/>
       <use x="63.623047" xlink:href="#DejaVuSans-48"/>
       <use x="127.246094" xlink:href="#DejaVuSans-48"/>
       <use x="190.869141" xlink:href="#DejaVuSans-48"/>
       <use x="254.492188" xlink:href="#DejaVuSans-48"/>
      </g>
     </g>
    </g>
    <g id="ytick_3">
     <g id="line2d_17">
      <path clip-path="url(#p42d3ebe0e1)" d="M 90 397.267685 
L 648 397.267685 
" style="fill:none;stroke:#cccccc;stroke-linecap:round;stroke-width:0.8;"/>
     </g>
     <g id="line2d_18"/>
     <g id="text_9">
      <!-- 40000 -->
      <defs>
       <path d="M 37.796875 64.3125 
L 12.890625 25.390625 
L 37.796875 25.390625 
z
M 35.203125 72.90625 
L 47.609375 72.90625 
L 47.609375 25.390625 
L 58.015625 25.390625 
L 58.015625 17.1875 
L 47.609375 17.1875 
L 47.609375 0 
L 37.796875 0 
L 37.796875 17.1875 
L 4.890625 17.1875 
L 4.890625 26.703125 
z
" id="DejaVuSans-52"/>
      </defs>
      <g style="fill:#262626;" transform="translate(54.6875 401.066903)scale(0.1 -0.1)">
       <use xlink:href="#DejaVuSans-52"/>
       <use x="63.623047" xlink:href="#DejaVuSans-48"/>
       <use x="127.246094" xlink:href="#DejaVuSans-48"/>
       <use x="190.869141" xlink:href="#DejaVuSans-48"/>
       <use x="254.492188" xlink:href="#DejaVuSans-48"/>
      </g>
     </g>
    </g>
    <g id="ytick_4">
     <g id="line2d_19">
      <path clip-path="url(#p42d3ebe0e1)" d="M 90 288.098798 
L 648 288.098798 
" style="fill:none;stroke:#cccccc;stroke-linecap:round;stroke-width:0.8;"/>
     </g>
     <g id="line2d_20"/>
     <g id="text_10">
      <!-- 60000 -->
      <g style="fill:#262626;" transform="translate(54.6875 291.898017)scale(0.1 -0.1)">
       <use xlink:href="#DejaVuSans-54"/>
       <use x="63.623047" xlink:href="#DejaVuSans-48"/>
       <use x="127.246094" xlink:href="#DejaVuSans-48"/>
       <use x="190.869141" xlink:href="#DejaVuSans-48"/>
       <use x="254.492188" xlink:href="#DejaVuSans-48"/>
      </g>
     </g>
    </g>
    <g id="ytick_5">
     <g id="line2d_21">
      <path clip-path="url(#p42d3ebe0e1)" d="M 90 178.929911 
L 648 178.929911 
" style="fill:none;stroke:#cccccc;stroke-linecap:round;stroke-width:0.8;"/>
     </g>
     <g id="line2d_22"/>
     <g id="text_11">
      <!-- 80000 -->
      <g style="fill:#262626;" transform="translate(54.6875 182.72913)scale(0.1 -0.1)">
       <use xlink:href="#DejaVuSans-56"/>
       <use x="63.623047" xlink:href="#DejaVuSans-48"/>
       <use x="127.246094" xlink:href="#DejaVuSans-48"/>
       <use x="190.869141" xlink:href="#DejaVuSans-48"/>
       <use x="254.492188" xlink:href="#DejaVuSans-48"/>
      </g>
     </g>
    </g>
   </g>
   <g id="line2d_23">
    <path clip-path="url(#p42d3ebe0e1)" d="M 115.363636 615.6 
L 115.475711 615.534499 
L 116.678062 615.185158 
L 116.779291 615.086906 
L 117.557915 614.939528 
L 117.677637 614.890402 
L 118.040199 614.7594 
L 118.146822 614.699357 
L 118.498851 614.562896 
L 119.02308 614.486477 
L 119.43043 614.360933 
L 121.615725 613.656794 
L 122.864568 613.503957 
L 122.999473 613.465748 
L 123.251224 613.356579 
L 124.151035 613.078199 
L 124.26612 612.979947 
L 127.664458 611.713588 
L 127.773503 611.691754 
L 128.746815 611.413373 
L 128.862567 611.298746 
L 129.254403 611.167743 
L 129.945028 610.998531 
L 130.588625 610.867529 
L 130.667765 610.82932 
L 131.048055 610.698317 
L 131.090706 610.638274 
L 131.937667 610.496355 
L 132.914032 610.097888 
L 133.580813 609.966885 
L 133.636703 609.939593 
L 134.013656 609.814049 
L 134.09478 609.710339 
L 134.30039 609.573877 
L 134.443917 609.513835 
L 134.563729 609.481084 
L 135.425741 609.360998 
L 135.657993 609.229995 
L 136.963685 608.858821 
L 137.272188 608.673234 
L 137.545249 608.54769 
L 139.037257 608.121931 
L 139.082755 608.089181 
L 140.098379 607.919969 
L 140.196258 607.832634 
L 140.595485 607.707089 
L 140.708277 607.641588 
L 142.014997 607.243122 
L 142.14962 607.210371 
L 142.482335 606.981116 
L 142.550237 606.948366 
L 143.215966 606.779154 
L 143.802298 606.386146 
L 143.904801 606.227851 
L 144.056946 606.085932 
L 144.100718 606.069556 
L 144.904073 605.91672 
L 145.225355 605.627422 
L 145.427393 605.501878 
L 145.569144 605.474586 
L 147.253354 604.726779 
L 147.919516 604.606693 
L 148.210816 604.415648 
L 148.560973 604.262811 
L 148.676575 604.170018 
L 149.116553 604.039015 
L 149.270725 604.000806 
L 149.662369 603.858886 
L 150.46855 603.323959 
L 151.118635 603.203873 
L 151.452169 602.920034 
L 151.726353 602.778114 
L 152.319741 602.499734 
L 152.693779 602.379648 
L 153.223607 602.003015 
L 153.432796 601.882929 
L 153.542124 601.861096 
L 154.277988 601.544506 
L 154.393816 601.42442 
L 155.236544 601.058704 
L 155.846247 600.93316 
L 155.970869 600.834908 
L 156.787789 600.485568 
L 156.861541 600.447359 
L 157.506641 600.310897 
L 157.632256 600.272688 
L 157.952426 600.119852 
L 158.150517 599.934265 
L 158.648093 599.655884 
L 159.080517 599.508506 
L 159.165643 599.453922 
L 159.304025 599.328377 
L 159.417721 599.251959 
L 159.573511 599.131873 
L 159.705622 599.055455 
L 159.985234 598.86441 
L 160.055382 598.79345 
L 160.665638 598.673364 
L 160.759052 598.624238 
L 160.890515 598.504152 
L 160.963604 598.438651 
L 162.497982 598.247605 
L 163.006961 598.203938 
L 163.82608 598.029268 
L 163.949221 597.903723 
L 164.247364 597.767262 
L 164.394961 597.532549 
L 164.540073 597.401547 
L 164.659041 597.286919 
L 165.655754 596.855702 
L 166.002637 596.40811 
L 166.138164 596.288024 
L 166.399969 595.998726 
L 167.261597 595.736721 
L 167.733305 595.201793 
L 167.832192 595.119917 
L 167.964637 594.999831 
L 168.378901 594.907037 
L 168.8498 594.634115 
L 169.828363 593.695263 
L 170.259308 593.569719 
L 170.348984 593.498759 
L 170.452749 593.367756 
L 170.665323 593.105751 
L 170.790628 592.909247 
L 170.918163 592.750952 
L 171.021356 592.625408 
L 171.206607 592.499864 
L 171.254776 592.467113 
L 171.847782 592.330652 
L 172.04072 592.155982 
L 172.266635 591.937644 
L 172.379513 591.719306 
L 172.52393 591.582845 
L 172.842676 591.337215 
L 173.469458 591.200754 
L 173.923104 590.622159 
L 174.531281 589.95077 
L 175.040194 589.666931 
L 175.139305 589.574137 
L 175.480713 589.394009 
L 176.134662 588.848164 
L 176.793615 588.537033 
L 176.939657 588.351446 
L 177.04579 588.23136 
L 177.185095 587.952979 
L 177.318242 587.827435 
L 177.500467 587.685516 
L 178.265665 587.199714 
L 178.453724 586.959543 
L 178.644139 586.724829 
L 178.797536 586.479199 
L 178.905127 586.19536 
L 179.029751 586.102567 
L 179.10815 585.938813 
L 179.243274 585.824186 
L 179.781954 585.633141 
L 179.88375 585.523972 
L 180.000881 585.392969 
L 180.984953 584.284905 
L 181.357254 584.104776 
L 181.459258 583.902814 
L 181.590378 583.749977 
L 181.763427 583.482513 
L 181.841528 583.258717 
L 181.934388 583.084047 
L 182.049399 582.958503 
L 182.31519 582.374449 
L 182.492322 582.237988 
L 182.9646 582.008734 
L 183.131169 581.823146 
L 183.213873 581.659393 
L 183.425706 581.32097 
L 183.484622 581.157216 
L 183.635114 580.971629 
L 184.354326 580.518578 
L 184.567161 580.365742 
L 184.861951 579.945442 
L 185.005716 579.80898 
L 185.866716 578.941088 
L 186.136219 578.79371 
L 186.648925 578.187822 
L 186.7614 578.062278 
L 186.860872 577.88215 
L 187.050249 577.587394 
L 187.356505 577.374514 
L 187.761213 577.167093 
L 187.873306 576.986965 
L 187.975985 576.845045 
L 188.076566 576.68675 
L 188.190046 576.555748 
L 188.342863 576.326493 
L 188.445292 576.179115 
L 188.549158 575.982611 
L 188.674953 575.857067 
L 188.798499 575.731523 
L 189.2516 575.605978 
L 189.329717 575.480434 
L 189.380819 575.327598 
L 190.398979 573.848359 
L 190.881674 573.711898 
L 190.947994 573.553603 
L 191.052622 573.406225 
L 191.177637 573.204263 
L 191.303727 572.996842 
L 191.411267 572.849464 
L 191.552776 572.669335 
L 191.632198 572.532874 
L 191.770018 572.325453 
L 191.838542 572.205367 
L 191.931442 571.997947 
L 192.188808 571.872402 
L 192.515523 571.703191 
L 192.998042 570.977217 
L 193.127738 570.753421 
L 193.219913 570.600585 
L 193.321343 570.404081 
L 193.431182 570.26762 
L 193.564268 570.049282 
L 194.034738 569.869153 
L 194.385148 569.148639 
L 194.516808 569.017636 
L 194.840363 568.575502 
L 195.105826 568.106076 
L 195.9186 567.647566 
L 196.033052 567.412853 
L 196.176401 567.287309 
L 196.311862 567.10718 
L 196.415391 566.905218 
L 196.519075 566.659588 
L 196.663572 566.468542 
L 196.807472 566.403041 
L 197.406465 566.070076 
L 197.574447 565.813529 
L 197.771542 565.480564 
L 197.885528 565.262226 
L 198.012968 565.125765 
L 198.151737 564.901969 
L 198.270051 564.68909 
L 198.341934 564.639964 
L 198.821827 564.498044 
L 198.902675 564.334291 
L 199.026155 564.088661 
L 199.110069 563.941283 
L 199.579471 562.920554 
L 199.814258 562.65309 
L 199.869858 562.467503 
L 200.517707 562.352875 
L 200.81008 561.74153 
L 200.936284 561.621444 
L 201.076432 561.299396 
L 201.172616 561.124725 
L 201.297362 560.895471 
L 201.405994 560.75901 
L 201.631316 560.491546 
L 202.079666 560.355085 
L 202.259323 560.142205 
L 202.324487 559.989369 
L 202.534148 559.743739 
L 202.814429 559.328897 
L 203.024548 559.028683 
L 203.156267 558.89768 
L 203.646256 558.739385 
L 203.830395 558.411879 
L 203.911166 558.286334 
L 204.057999 558.007954 
L 204.165846 557.827825 
L 204.310778 557.680447 
L 205.335256 557.009058 
L 205.47459 556.790721 
L 205.525498 556.621509 
L 206.10017 555.638989 
L 206.205623 555.480694 
L 206.397377 555.267815 
L 206.821423 555.098603 
L 207.023181 554.700136 
L 207.173468 554.350796 
L 207.328302 554.110624 
L 207.474073 553.88137 
L 207.567418 553.755826 
L 207.694138 553.504737 
L 207.786645 553.379193 
L 207.892037 553.139021 
L 208.05553 553.024394 
L 208.146321 552.887933 
L 208.37507 552.767847 
L 208.531889 552.402131 
L 208.687181 552.23292 
L 209.386542 551.381402 
L 209.548293 551.195815 
L 210.1139 550.911976 
L 210.789815 550.147794 
L 211.013735 549.831204 
L 211.27991 549.732952 
L 211.62862 549.607408 
L 211.788209 549.383612 
L 211.91538 549.198025 
L 212.024128 549.006979 
L 212.61739 548.117253 
L 213.445585 547.538657 
L 213.559607 547.336695 
L 213.708518 547.172942 
L 213.859635 546.93277 
L 214.472873 546.228631 
L 214.788224 546.108545 
L 215.610667 544.913146 
L 215.737424 544.765768 
L 215.811995 544.634765 
L 216.385097 544.481929 
L 216.508069 544.3018 
L 216.694517 544.094379 
L 217.197499 543.39024 
L 217.349639 543.231945 
L 218.086418 542.697017 
L 218.738335 541.867334 
L 218.915227 541.725414 
L 219.02766 541.67083 
L 219.417912 541.539827 
L 219.749464 541.397908 
L 220.086172 540.857522 
L 220.215065 540.693768 
L 220.283267 540.551849 
L 220.503617 540.278927 
L 220.966073 540.05513 
L 221.262173 539.831334 
L 221.381531 539.700331 
L 221.466844 539.558412 
L 221.63508 539.280031 
L 221.701685 539.116278 
L 221.850666 538.930691 
L 222.108947 538.532224 
L 222.25791 538.297511 
L 222.729028 538.084632 
L 223.561433 536.605393 
L 223.718075 536.430723 
L 223.956904 536.152343 
L 224.332114 535.999506 
L 224.886958 534.973319 
L 225.003361 534.847774 
L 225.082105 534.705855 
L 225.635307 533.968965 
L 225.975711 533.848879 
L 226.103747 533.515914 
L 226.221586 533.363078 
L 226.542259 532.751732 
L 226.899864 532.200429 
L 227.012819 531.932965 
L 227.610915 531.589083 
L 228.431866 530.05526 
L 228.557118 529.886048 
L 228.671088 529.831464 
L 229.164852 529.645877 
L 230.019207 527.975593 
L 230.115091 527.839132 
L 230.246047 527.533459 
L 230.717263 527.369706 
L 230.792316 527.222328 
L 230.999033 526.763818 
L 231.231501 526.381727 
L 231.343905 526.157931 
L 231.45453 526.026928 
L 231.63293 525.623003 
L 231.711339 525.492001 
L 231.820068 525.317331 
L 232.408928 525.077159 
L 232.643584 524.689609 
L 232.868977 524.394853 
L 232.981038 524.198349 
L 233.10637 524.001845 
L 233.228806 523.827175 
L 233.332016 523.587004 
L 233.455293 523.554253 
L 233.868044 523.357749 
L 234.008189 523.183079 
L 234.279133 522.910157 
L 234.441991 522.65361 
L 234.652788 522.451647 
L 234.831281 522.1951 
L 234.938397 521.922178 
L 235.042281 521.84576 
L 235.472733 521.660173 
L 235.607263 521.507336 
L 235.727955 521.3545 
L 235.839051 521.190747 
L 235.973967 521.03791 
L 236.633397 519.989889 
L 237.09096 519.831594 
L 237.292497 519.482254 
L 237.901383 518.701696 
L 238.059319 518.543401 
L 238.171623 518.466983 
L 238.784582 517.98664 
L 238.903452 517.839262 
L 239.2187 517.397128 
L 239.3476 517.129664 
L 239.496049 516.911326 
L 239.673245 516.698447 
L 239.967963 516.501943 
L 240.254547 516.381857 
L 240.505154 516.037975 
L 240.633168 515.70501 
L 241.406742 514.531445 
L 241.896033 514.362233 
L 242.681558 513.155917 
L 242.789459 513.041289 
L 242.908601 512.893911 
L 243.011336 512.839327 
L 243.503558 512.615531 
L 243.611291 512.495445 
L 243.831607 512.233439 
L 243.973793 512.069686 
L 244.498691 511.873182 
L 245.072333 511.693053 
L 245.542895 511.365547 
L 245.75801 511.256378 
L 246.70082 511.03804 
L 247.293007 510.47582 
L 247.464785 510.344818 
L 247.611091 510.213815 
L 248.027862 509.973644 
L 248.321402 509.815349 
L 248.529769 509.515134 
L 248.569839 509.378673 
L 248.689313 509.209461 
L 248.815013 509.062083 
L 249.293391 508.619949 
L 249.381917 508.527156 
L 249.859907 508.357944 
L 249.984516 508.243317 
L 250.124736 508.155982 
L 250.326199 507.970394 
L 250.458919 507.713848 
L 250.583325 507.615596 
L 250.630331 507.484593 
L 250.744951 507.288089 
L 250.829748 507.157086 
L 250.948689 506.905998 
L 251.425475 506.753161 
L 251.543812 506.600325 
L 251.62713 506.409279 
L 251.892122 506.076314 
L 251.97898 505.945312 
L 252.086723 505.781558 
L 252.233817 505.585054 
L 252.445922 505.31759 
L 253.138015 504.782663 
L 253.268262 504.586159 
L 253.366194 504.378738 
L 253.462616 504.198609 
L 253.570797 504.073065 
L 253.69114 503.767392 
L 254.062982 503.079628 
L 254.203418 502.981376 
L 254.688952 502.702996 
L 254.928912 502.200819 
L 255.003655 501.993398 
L 255.127222 501.873312 
L 255.200873 501.698642 
L 255.772554 500.579661 
L 256.199552 500.394074 
L 256.568033 499.848229 
L 256.703465 499.668101 
L 256.776276 499.455221 
L 256.899656 499.225967 
L 257.187305 498.718331 
L 257.324923 498.412658 
L 257.946219 497.801313 
L 258.180604 497.157216 
L 258.29451 496.982546 
L 258.349042 496.818793 
L 258.490601 496.447618 
L 258.615465 496.169238 
L 258.728565 496.016401 
L 258.813554 495.874482 
L 258.891813 495.63431 
L 259.224802 495.492391 
L 259.436675 495.328637 
L 259.509656 495.170342 
L 259.710835 494.673624 
L 260.00539 494.05682 
L 260.140801 493.893066 
L 260.53856 493.112509 
L 260.688486 492.986965 
L 260.794191 492.959672 
L 261.025139 492.806836 
L 261.397183 492.282825 
L 261.594283 492.119072 
L 262.410041 491.256638 
L 262.69149 491.081968 
L 262.892726 490.847255 
L 263.065087 490.585249 
L 263.936316 489.455351 
L 264.257223 489.264306 
L 264.574346 488.82763 
L 264.744397 488.669335 
L 264.910545 488.47829 
L 264.989392 488.325453 
L 265.435478 487.976113 
L 266.102402 487.566729 
L 266.22356 487.42481 
L 266.364096 487.244681 
L 266.488417 487.146429 
L 266.56171 487.009968 
L 266.671449 486.878965 
L 266.924497 486.540542 
L 267.445441 486.344038 
L 267.662101 486.049282 
L 267.876215 485.825486 
L 268.050078 485.503438 
L 268.190337 485.31785 
L 268.303658 485.137722 
L 268.394338 485.006719 
L 268.568299 484.935759 
L 269.063395 484.788381 
L 269.326402 484.433582 
L 270.2838 483.281851 
L 270.628801 483.134473 
L 271.005077 482.517668 
L 271.114312 482.342998 
L 271.213457 482.157411 
L 271.461591 481.977282 
L 271.571646 481.813529 
L 271.872488 481.660693 
L 272.234326 481.507856 
L 272.733573 480.68909 
L 272.963381 480.3725 
L 273.388819 480.006784 
L 273.860691 479.815739 
L 274.425526 479.051556 
L 274.532586 478.887803 
L 274.694564 478.669465 
L 274.967604 478.391085 
L 275.336574 478.243707 
L 275.500803 477.959867 
L 275.676731 477.77428 
L 275.794794 477.572318 
L 275.895093 477.414023 
L 276.018144 477.212061 
L 276.211596 477.031932 
L 277.157757 476.142205 
L 277.328576 475.80924 
L 277.484214 475.596361 
L 277.615304 475.383482 
L 277.689269 475.241562 
L 277.880251 474.837637 
L 277.95589 474.701176 
L 278.055478 474.570174 
L 278.245703 474.444629 
L 278.582063 474.188082 
L 278.727629 473.866034 
L 278.807538 473.696822 
L 279.184633 472.774345 
L 279.710884 472.026538 
L 280.153008 471.764533 
L 280.691496 471.044018 
L 280.876043 470.705595 
L 281.114134 470.307128 
L 281.260843 470.034206 
L 281.701808 469.859536 
L 282.406459 468.533134 
L 282.529828 468.331172 
L 282.641579 468.200169 
L 282.773808 467.959997 
L 282.905632 467.889038 
L 283.416755 467.556073 
L 283.783667 466.841016 
L 283.86928 466.606303 
L 283.998716 466.26788 
L 284.087936 466.109585 
L 284.69596 465.427279 
L 285.146113 464.985145 
L 286.144357 463.309403 
L 286.515734 463.118357 
L 286.713433 462.910936 
L 286.920911 462.605263 
L 287.064257 462.403301 
L 287.320671 461.961167 
L 287.437433 461.813789 
L 287.559619 461.497199 
L 287.695937 461.431698 
L 288.045928 461.273403 
L 288.24886 461.10965 
L 288.492159 460.86402 
L 288.778814 460.498304 
L 288.893116 460.236299 
L 289.143652 459.783248 
L 289.686294 459.537618 
L 289.801215 459.368406 
L 289.911731 459.204653 
L 289.990491 459.068192 
L 290.712585 458.096588 
L 290.816862 457.943752 
L 291.238623 457.801832 
L 291.464424 457.337865 
L 291.540849 457.190487 
L 291.820225 456.606433 
L 292.019962 456.175216 
L 292.574405 455.438326 
L 292.919815 455.269114 
L 293.915718 454.079173 
L 293.981693 454.002755 
L 294.475753 453.855377 
L 294.575472 453.686165 
L 295.00164 452.987485 
L 295.335912 452.354305 
L 295.44771 452.217844 
L 295.58396 452.004965 
L 296.10449 451.77571 
L 296.547205 451.055195 
L 296.615165 450.875067 
L 296.945539 450.312847 
L 297.059556 450.165469 
L 297.280942 449.876171 
L 297.593615 449.723335 
L 297.727866 449.554123 
L 297.790902 449.417662 
L 297.925457 449.308493 
L 298.018681 449.07378 
L 298.944257 447.196075 
L 299.287378 446.950445 
L 299.438116 446.393684 
L 299.513507 446.257223 
L 300.448293 444.379518 
L 300.896601 444.204848 
L 301.188997 443.500708 
L 301.302205 443.331497 
L 301.63134 442.600065 
L 301.843885 442.119722 
L 301.903605 441.988719 
L 302.086093 441.901384 
L 302.439227 441.743089 
L 302.85392 441.104451 
L 302.957886 440.96799 
L 303.240049 440.345727 
L 303.361874 440.072805 
L 303.5632 439.707089 
L 303.975386 439.548795 
L 304.078931 439.417792 
L 304.628753 438.031347 
L 304.748417 437.834843 
L 304.858575 437.567379 
L 305.003231 437.321749 
L 305.068726 437.10887 
L 305.268011 436.917824 
L 305.964994 435.98443 
L 306.087797 435.744259 
L 306.371988 435.094704 
L 306.528906 434.674404 
L 306.662364 434.472441 
L 306.764393 434.308688 
L 307.115897 434.134018 
L 307.331969 433.833803 
L 307.530783 433.435337 
L 307.602937 433.233374 
L 307.840021 432.75849 
L 307.909897 432.611112 
L 308.018945 432.332731 
L 308.408641 431.836013 
L 308.834155 431.655884 
L 308.961553 431.273793 
L 309.127545 430.979037 
L 309.274985 430.717032 
L 309.349609 430.531445 
L 309.4561 430.051101 
L 309.610114 429.701761 
L 309.928773 429.090415 
L 310.499233 428.610072 
L 310.694528 428.19523 
L 311.123081 427.502008 
L 311.23849 427.125375 
L 311.398096 426.836078 
L 311.516615 426.601365 
L 312.033948 426.23019 
L 312.166977 425.886308 
L 312.280171 425.717097 
L 313.34957 423.817558 
L 313.6058 423.686555 
L 313.720713 423.375424 
L 313.903276 423.031542 
L 314.918093 421.197505 
L 315.201009 421.061044 
L 315.30115 420.880915 
L 316.52726 418.817623 
L 316.698226 418.681162 
L 317.964765 416.666996 
L 318.359757 416.47595 
L 318.641065 416.061109 
L 318.983304 415.406095 
L 319.093615 415.094964 
L 319.693496 414.085152 
L 319.980705 413.921398 
L 320.109283 413.653935 
L 320.450035 412.998921 
L 320.654783 412.649581 
L 321.012049 412.283865 
L 321.513922 412.114653 
L 321.720602 411.798064 
L 322.185717 410.935629 
L 322.289892 410.591747 
L 322.353397 410.411619 
L 322.469984 409.964026 
L 322.642872 409.450932 
L 322.753824 409.309013 
L 323.141972 409.101592 
L 323.308692 408.730418 
L 323.420958 408.528455 
L 323.516236 408.353785 
L 323.678849 407.966236 
L 324.037323 407.152927 
L 324.494578 406.437871 
L 324.744871 406.279576 
L 324.852182 406.083072 
L 324.981111 405.859276 
L 325.11842 405.586354 
L 325.227289 405.466268 
L 325.327699 405.297056 
L 325.682673 404.82763 
L 325.771112 404.691169 
L 325.910406 404.543791 
L 326.369781 404.352745 
L 326.639217 403.959737 
L 327.493791 402.928091 
L 328.253817 402.747963 
L 328.55463 402.529625 
L 328.827298 402.376789 
L 328.960828 402.316746 
L 329.81692 402.087491 
L 329.941152 401.923738 
L 330.048423 401.781818 
L 330.156712 401.628982 
L 330.258261 401.547105 
L 330.562385 401.35606 
L 330.829016 401.170472 
L 331.16705 401.017636 
L 331.294037 400.777464 
L 331.414346 400.646462 
L 331.906424 399.871363 
L 332.112107 399.560231 
L 332.638845 399.243642 
L 332.795717 399.090805 
L 333.002041 398.774215 
L 333.26093 398.37029 
L 333.448103 398.080993 
L 333.593073 397.797154 
L 333.709924 397.638859 
L 333.991594 397.436896 
L 334.234303 397.316811 
L 334.419789 397.158516 
L 334.618173 396.858301 
L 334.781365 396.607213 
L 335.020007 396.05591 
L 335.099648 395.924907 
L 335.722642 395.258977 
L 335.97487 395.122516 
L 336.09167 394.931471 
L 336.23233 394.778634 
L 336.537725 394.281916 
L 336.708855 394.01991 
L 336.865365 393.850699 
L 337.067927 393.588693 
L 337.477628 393.441315 
L 337.605083 393.244811 
L 337.752613 393.053766 
L 337.839816 392.906388 
L 338.229733 392.355085 
L 338.393158 392.114913 
L 338.535204 391.956618 
L 339.191172 391.536318 
L 339.346533 391.21427 
L 339.427689 391.066892 
L 339.537215 390.89768 
L 340.252191 389.642238 
L 340.800669 389.260147 
L 341.002475 388.949016 
L 341.066476 388.785262 
L 341.327595 388.223042 
L 341.723815 387.513445 
L 341.866159 387.409734 
L 342.382227 386.978517 
L 342.565754 386.601884 
L 342.633184 386.438131 
L 342.757999 386.170667 
L 342.851668 386.034206 
L 343.677224 384.980726 
L 343.938086 384.822432 
L 344.094409 384.527676 
L 344.202471 384.369381 
L 344.328864 384.036416 
L 344.449316 383.861745 
L 344.771526 383.184898 
L 344.903002 382.988394 
L 345.03515 382.764598 
L 345.476196 382.579011 
L 345.700408 382.136877 
L 345.817617 381.956748 
L 345.973229 381.738411 
L 346.055726 381.585574 
L 346.166899 381.361778 
L 346.692156 380.586679 
L 347.107356 380.428384 
L 347.31189 380.084502 
L 347.447275 379.827955 
L 347.598568 379.625993 
L 348.053119 379.063773 
L 349.050466 378.223172 
L 349.328256 377.890207 
L 349.920137 377.295237 
L 350.310655 377.126025 
L 350.424092 376.93498 
L 350.609847 376.705725 
L 351.369807 375.766872 
L 352.117927 375.221028 
L 352.233267 375.00269 
L 352.791765 374.314926 
L 352.900215 374.189382 
L 353.5768 374.069296 
L 354.200648 373.272363 
L 354.310672 373.163194 
L 354.46467 372.999441 
L 354.726306 372.852063 
L 355.020168 372.693768 
L 355.216596 372.388095 
L 355.322618 372.229801 
L 355.563951 372.02238 
L 355.707276 371.77675 
L 355.855403 371.503827 
L 355.983012 371.263656 
L 356.209649 371.018026 
L 356.735805 370.816063 
L 356.854596 370.608643 
L 357.131867 370.259302 
L 357.246822 370.046423 
L 357.435949 369.724375 
L 357.594686 369.511495 
L 358.29783 369.07482 
L 359.008393 368.108675 
L 359.255961 367.726584 
L 359.964503 367.115238 
L 360.076224 366.956943 
L 360.189701 366.771356 
L 360.370768 366.454766 
L 361.245324 365.341244 
L 361.454684 365.161115 
L 361.645758 364.833608 
L 361.888035 364.489726 
L 362.029307 364.173137 
L 362.115888 364.0203 
L 362.289105 363.692794 
L 362.479834 363.316161 
L 362.585255 363.234284 
L 363.244118 362.96682 
L 363.362477 362.79215 
L 363.588574 362.344558 
L 363.704315 362.175346 
L 364.242151 361.334746 
L 364.484634 361.192826 
L 364.764092 360.816193 
L 365.557225 359.555293 
L 365.64088 359.386081 
L 366.005238 359.200494 
L 366.225037 359.047657 
L 366.83231 357.737631 
L 367.038228 357.45925 
L 367.419024 357.022575 
L 367.85722 356.891572 
L 368.015375 356.635025 
L 368.359941 356.132848 
L 368.488531 355.980012 
L 368.74413 355.630671 
L 369.111551 355.275872 
L 369.416492 355.117577 
L 369.543674 354.790071 
L 370.525487 353.343583 
L 370.934347 353.17983 
L 371.515148 352.655819 
L 371.621716 352.524816 
L 371.762458 352.377438 
L 371.862881 352.23006 
L 371.942737 352.099058 
L 372.339234 351.771551 
L 372.582554 351.63509 
L 372.778157 351.307583 
L 372.936038 351.154747 
L 373.055831 351.012827 
L 373.2698 350.701696 
L 373.397841 350.439691 
L 373.614651 350.139476 
L 374.125836 349.937514 
L 374.234466 349.806511 
L 374.417608 349.386211 
L 374.659613 348.867659 
L 374.738386 348.709364 
L 374.854315 348.469192 
L 374.973799 348.163519 
L 375.061883 348.005225 
L 375.36723 347.541257 
L 375.768432 347.366587 
L 375.87985 347.14279 
L 376.248407 346.755241 
L 376.601659 346.05656 
L 376.754887 345.854597 
L 376.921731 345.608967 
L 377.360476 345.445214 
L 377.50723 345.210501 
L 377.63762 344.992163 
L 377.876512 344.604614 
L 378.092618 344.211606 
L 378.214153 344.047852 
L 378.363443 343.829515 
L 378.651759 343.60026 
L 378.957475 343.42559 
L 379.107398 343.190877 
L 379.222438 343.010748 
L 379.42422 342.715992 
L 379.563055 342.459445 
L 379.665171 342.252024 
L 379.821697 342.050062 
L 380.028089 341.73893 
L 380.540641 341.466008 
L 380.71065 341.160335 
L 380.823929 340.96929 
L 380.961484 340.72366 
L 381.013351 340.570823 
L 381.128459 340.341569 
L 381.359889 339.970394 
L 381.486266 339.795724 
L 381.596872 339.626512 
L 381.789884 339.42455 
L 382.095893 339.293547 
L 382.481779 338.474781 
L 382.643549 338.1964 
L 382.716884 338.05448 
L 383.704876 336.831789 
L 383.88578 336.635285 
L 384.443885 335.478095 
L 384.51823 335.281591 
L 384.645733 335.025044 
L 384.772938 334.75758 
L 384.875744 334.599285 
L 385.337652 334.424615 
L 385.714246 333.851478 
L 386.007636 333.392969 
L 386.130371 333.207382 
L 386.275599 332.918084 
L 386.378049 332.683371 
L 386.468257 332.535993 
L 386.927853 332.361323 
L 387.864661 330.893001 
L 387.959688 330.696497 
L 388.020204 330.570953 
L 388.429077 330.423575 
L 388.538323 330.270739 
L 389.289292 329.135382 
L 389.445267 328.884294 
L 389.576434 328.725999 
L 390.140845 328.453077 
L 390.215403 328.26749 
L 390.37407 328.065527 
L 390.458958 327.923608 
L 390.58319 327.650686 
L 390.755512 327.35593 
L 390.880938 327.186718 
L 390.991193 327.017506 
L 391.149709 326.848294 
L 391.290678 326.771876 
L 391.847578 326.433452 
L 392.074347 326.105946 
L 392.214756 325.974943 
L 392.297278 325.822107 
L 392.406139 325.691104 
L 392.755382 325.336305 
L 392.912807 325.292638 
L 393.381831 325.096134 
L 393.527705 324.877796 
L 394.130283 323.758815 
L 394.323875 323.376724 
L 394.552829 323.251179 
L 394.907948 323.071051 
L 395.021896 322.819962 
L 395.123242 322.618 
L 395.462104 321.995737 
L 396.207508 321.0023 
L 396.430631 320.849464 
L 396.573216 320.592917 
L 396.750229 320.292703 
L 396.869626 320.025239 
L 396.992053 319.828735 
L 397.188631 319.697732 
L 397.577364 319.059094 
L 397.769377 318.977217 
L 398.151631 318.737046 
L 398.64041 317.896446 
L 398.769145 317.716317 
L 398.883552 317.508896 
L 399.199143 317.083137 
L 399.652523 316.8648 
L 399.741234 316.711963 
L 399.870645 316.504542 
L 399.97464 316.291663 
L 400.818976 314.763298 
L 401.133372 314.599545 
L 401.234446 314.495835 
L 401.287489 314.364832 
L 401.466511 314.015492 
L 401.75227 313.344103 
L 401.868839 313.131224 
L 402.13619 312.645422 
L 402.7705 312.044993 
L 402.942516 311.793905 
L 403.060184 311.471857 
L 403.296092 311.149808 
L 404.018737 310.183664 
L 404.454136 310.030827 
L 405.188158 308.731717 
L 405.778407 308.060329 
L 406.081126 307.918409 
L 406.318975 307.541777 
L 406.697203 307.186978 
L 406.896789 307.028683 
L 407.657673 306.575632 
L 407.777684 306.417337 
L 407.867608 306.269959 
L 408.862106 305.216479 
L 409.248596 305.014517 
L 409.414881 304.730678 
L 409.496464 304.572383 
L 409.660042 304.354045 
L 409.801152 304.157541 
L 409.958583 303.933745 
L 410.226614 303.67174 
L 410.334634 303.52982 
L 410.809909 303.371525 
L 411.32314 303.153187 
L 411.447572 303.054935 
L 412.355679 302.782013 
L 412.704416 302.645552 
L 412.822179 302.503632 
L 413.120946 302.181584 
L 413.360666 301.848619 
L 413.469585 301.744909 
L 413.692084 301.602989 
L 414.131055 301.39011 
L 414.249298 301.308233 
L 415.35784 299.878121 
L 415.660416 299.708909 
L 416.95035 298.104126 
L 417.22515 297.962207 
L 417.348193 297.787537 
L 417.798131 297.061563 
L 417.903694 296.89781 
L 418.075417 296.657639 
L 418.188127 296.488427 
L 418.488072 296.23188 
L 418.813224 296.100877 
L 418.948332 295.855247 
L 420.142599 294.081253 
L 420.452414 293.912041 
L 420.831852 293.295237 
L 420.972415 293.071441 
L 421.081394 292.858561 
L 421.373055 292.432803 
L 421.483137 292.263591 
L 421.611512 292.176256 
L 421.807795 292.050712 
L 422.293485 291.597661 
L 422.696456 291.035441 
L 422.808486 290.849854 
L 422.87672 290.735226 
L 423.044739 290.609682 
L 423.147735 290.484138 
L 423.664549 290.325843 
L 424.518282 288.977607 
L 424.618201 288.797479 
L 424.69616 288.661018 
L 424.811664 288.502723 
L 424.963066 288.431763 
L 425.211432 288.273468 
L 425.332883 288.027838 
L 425.565688 287.645747 
L 425.676901 287.3892 
L 425.903928 287.061693 
L 426.35425 286.47764 
L 426.760292 286.346637 
L 427.687708 285.282241 
L 428.642857 284.523517 
L 429.618115 283.339034 
L 430.006587 283.202573 
L 430.12565 283.03882 
L 430.238781 282.891442 
L 430.388435 282.613061 
L 430.520417 282.432933 
L 430.758152 282.050842 
L 431.149793 281.646917 
L 431.473988 281.510456 
L 431.584982 281.259367 
L 431.669135 281.079238 
L 431.819735 280.93186 
L 431.922518 280.746273 
L 432.05504 280.549769 
L 433.010986 279.649126 
L 433.181538 279.52904 
L 433.307172 279.392579 
L 433.466303 279.25066 
L 433.657781 279.015946 
L 434.196426 278.47556 
L 434.318038 278.344558 
L 434.692434 278.213555 
L 434.848008 278.066177 
L 436.097057 276.401352 
L 436.348333 276.210306 
L 437.558168 274.507271 
L 437.896097 274.354435 
L 438.004849 274.119722 
L 438.22279 273.743089 
L 438.757424 272.989824 
L 438.900517 272.826071 
L 439.029517 272.695068 
L 439.647144 272.454896 
L 439.788558 272.378478 
L 440.059339 272.176516 
L 440.295911 271.974553 
L 440.477277 271.827175 
L 441.450149 271.183079 
L 441.591995 271.013867 
L 441.734697 270.730028 
L 441.90157 270.473481 
L 442.06002 270.326103 
L 442.158928 270.189642 
L 442.322616 270.080473 
L 442.487338 270.031347 
L 442.749796 269.905803 
L 442.89455 269.616505 
L 443.929039 268.344688 
L 444.366993 268.208227 
L 444.478714 268.039015 
L 444.642674 267.853428 
L 445.22681 267.07287 
L 445.349634 266.8982 
L 445.467729 266.778114 
L 445.975367 266.527026 
L 446.085662 266.461524 
L 446.195417 266.275937 
L 446.477883 265.839262 
L 446.641672 265.691884 
L 446.783953 265.468088 
L 446.935523 265.298876 
L 446.943225 265.266125 
L 447.543705 265.151498 
L 448.204824 264.179895 
L 448.730756 263.781428 
L 449.225142 263.519423 
L 449.374101 263.377503 
L 449.554037 263.202833 
L 449.739708 263.03908 
L 449.846059 262.913536 
L 450.248012 262.580571 
L 450.798162 262.411359 
L 450.931298 262.329482 
L 451.042189 262.16027 
L 451.154622 262.045643 
L 451.357561 261.865514 
L 451.475372 261.66901 
L 451.6227 261.516174 
L 451.781125 261.303295 
L 451.928746 261.243252 
L 452.305456 261.112249 
L 452.408328 261.013997 
L 452.579126 260.839327 
L 452.701044 260.642823 
L 453.526468 259.813139 
L 453.897598 259.682137 
L 454.073707 259.414673 
L 454.191531 259.250919 
L 454.438911 258.907037 
L 454.6125 258.786952 
L 454.920307 258.421236 
L 455.586052 258.071896 
L 455.674463 257.940893 
L 455.805148 257.80989 
L 456.772033 256.838287 
L 457.14833 256.685451 
L 457.295269 256.521697 
L 458.148169 255.446384 
L 458.715848 255.271714 
L 459.954653 253.961687 
L 460.286205 253.830684 
L 460.635608 253.426759 
L 460.79191 253.279381 
L 460.967698 253.099253 
L 461.607871 252.629826 
L 461.89882 252.47699 
L 462.227301 251.996647 
L 462.366256 251.816518 
L 462.613293 251.467178 
L 463.338674 250.833998 
L 463.548857 250.670245 
L 463.696057 250.484658 
L 463.846206 250.315446 
L 464.574901 249.502138 
L 465.05336 249.349301 
L 465.180062 249.174631 
L 465.68737 248.486867 
L 465.781751 248.355865 
L 466.279594 247.870063 
L 466.672215 247.717227 
L 466.874783 247.482513 
L 467.030494 247.236883 
L 467.340813 246.816583 
L 467.537399 246.483618 
L 467.653277 246.319865 
L 467.789598 246.188862 
L 467.934526 246.172487 
L 468.413162 246.003275 
L 468.552345 245.81223 
L 468.787518 245.473806 
L 469.410596 244.742374 
L 469.856498 244.589538 
L 469.998286 244.414868 
L 470.185814 244.245656 
L 470.419184 243.912691 
L 470.549793 243.732562 
L 470.846594 243.35593 
L 471.003795 243.241302 
L 471.483026 243.088466 
L 471.761602 242.744584 
L 472.220103 242.215115 
L 472.354959 242.040444 
L 472.467639 241.88215 
L 472.54597 241.800273 
L 473.096506 241.63652 
L 473.663661 240.93238 
L 473.79568 240.746793 
L 473.898172 240.555748 
L 474.012308 240.44112 
L 474.204937 240.222783 
L 474.691017 240.069946 
L 475.158392 239.578686 
L 475.251521 239.409474 
L 475.403284 239.273013 
L 475.606703 239.081968 
L 476.404006 238.634375 
L 477.531762 237.586354 
L 477.895993 237.357099 
L 478.009259 237.204263 
L 478.091398 237.024134 
L 478.203549 236.854922 
L 478.891646 236.134408 
L 479.413191 235.959737 
L 479.868055 235.381142 
L 479.993091 235.244681 
L 480.242372 234.93355 
L 480.614058 234.589668 
L 480.967771 234.447748 
L 481.541706 233.667191 
L 481.647159 233.536188 
L 481.775616 233.383352 
L 481.898185 233.257808 
L 482.763735 232.668296 
L 482.91806 232.499084 
L 483.085389 232.324414 
L 483.440528 231.805861 
L 483.651093 231.472896 
L 484.177405 231.243642 
L 484.444727 230.959802 
L 484.622052 230.806966 
L 484.88232 230.555878 
L 485.009649 230.392124 
L 485.198266 230.146494 
L 485.385278 229.988199 
L 485.830803 229.764403 
L 486.306742 229.18035 
L 486.492937 229.03843 
L 486.753711 228.858301 
L 487.460932 228.607213 
L 487.585211 228.508961 
L 487.959357 228.061369 
L 488.071937 227.913991 
L 488.62995 227.482773 
L 489.04893 227.313562 
L 490.38515 226.079953 
L 490.708572 225.888908 
L 490.946318 225.615985 
L 491.18782 225.435857 
L 491.707375 225.070141 
L 492.240066 224.835428 
L 492.824376 224.213165 
L 492.98779 224.076704 
L 493.566005 223.836533 
L 494.185088 223.700071 
L 494.314199 223.590903 
L 494.496658 223.465358 
L 494.830654 223.21427 
L 496.100417 222.641133 
L 496.237412 222.428254 
L 496.38559 222.264501 
L 496.523806 222.155332 
L 497.043185 221.926077 
L 497.276997 221.702281 
L 497.52655 221.385691 
L 497.693486 221.221938 
L 497.863179 221.052726 
L 498.371618 220.736136 
L 498.635656 220.610592 
L 498.770645 220.517798 
L 498.893493 220.354045 
L 499.032115 220.233959 
L 499.533999 219.573488 
L 500.39148 219.098603 
L 500.496777 219.011268 
L 500.628635 218.858431 
L 500.785941 218.65101 
L 502.274011 217.095354 
L 502.510521 216.718721 
L 502.700034 216.544051 
L 502.936789 216.402131 
L 503.340292 216.260212 
L 503.670054 215.861745 
L 503.971555 215.621574 
L 504.346025 215.337735 
L 504.453884 215.272233 
L 505.000256 214.982936 
L 505.71634 214.065917 
L 505.927754 213.803912 
L 506.060961 213.694743 
L 506.471679 213.541907 
L 506.604373 213.372695 
L 506.986769 212.96877 
L 507.756586 212.040834 
L 508.08507 211.84433 
L 508.202981 211.653285 
L 508.377666 211.298486 
L 509.015101 210.403301 
L 509.172681 210.152213 
L 509.661218 209.983001 
L 509.792449 209.857457 
L 510.334556 208.825811 
L 510.434971 208.662057 
L 510.717566 208.12713 
L 510.822215 208.028878 
L 511.401732 207.821457 
L 511.514086 207.750497 
L 511.769978 207.499409 
L 511.87285 207.401157 
L 512.080342 207.204653 
L 512.240485 207.106401 
L 513.325175 206.560556 
L 513.574111 206.342218 
L 513.784041 206.118422 
L 513.955693 205.894626 
L 514.602588 205.479784 
L 514.711378 205.343323 
L 515.025511 205.0049 
L 515.145754 204.852063 
L 515.307294 204.644642 
L 515.491678 204.377179 
L 515.729777 204.273468 
L 516.069917 204.12609 
L 516.315025 203.738541 
L 516.579311 203.372825 
L 516.798849 203.028943 
L 517.048072 202.734187 
L 517.150862 202.597726 
L 517.649155 202.472181 
L 518.064199 201.877211 
L 518.169137 201.718916 
L 518.381817 201.440535 
L 518.479079 201.260407 
L 518.749662 200.927442 
L 519.219773 200.692729 
L 519.303383 200.550809 
L 519.521635 200.310637 
L 519.645168 200.108675 
L 520.487403 199.104321 
L 520.902702 198.946026 
L 521.027807 198.820482 
L 521.352642 198.340139 
L 521.463878 198.19822 
L 521.753085 197.788836 
L 522.581377 197.095614 
L 522.833028 196.811775 
L 523.212451 196.484268 
L 523.590761 195.993008 
L 523.846287 195.84563 
L 524.057216 195.665501 
L 524.168784 195.545416 
L 524.303104 195.42533 
L 524.540291 195.152408 
L 525.144669 194.191721 
L 525.625519 194.044343 
L 525.979823 193.553083 
L 526.086895 193.422081 
L 526.251806 193.149158 
L 526.403463 193.018156 
L 526.960656 192.483228 
L 527.272588 192.292183 
L 527.436189 192.128429 
L 527.597065 191.871883 
L 527.741537 191.768172 
L 527.93565 191.577127 
L 528.498374 191.031282 
L 528.767177 190.894821 
L 529.382144 190.239808 
L 529.478666 190.147014 
L 529.584005 190.016011 
L 529.710388 189.863175 
L 529.794009 189.721255 
L 530.282725 189.431958 
L 530.541327 189.306414 
L 530.720573 189.104451 
L 531.780327 188.454896 
L 532.073851 188.2311 
L 533.454352 187.030242 
L 533.689728 186.89924 
L 534.158333 186.489856 
L 534.304872 186.282436 
L 534.478548 186.053181 
L 534.586094 185.94947 
L 535.307745 185.578296 
L 535.420989 185.507336 
L 535.541966 185.3545 
L 536.009359 184.754071 
L 536.116409 184.633985 
L 536.229448 184.497524 
L 536.915536 184.082682 
L 537.076918 183.869803 
L 537.368592 183.596881 
L 537.488901 183.384002 
L 537.700175 183.176581 
L 537.810771 183.051036 
L 538.363622 182.887283 
L 539.718224 181.484463 
L 539.970786 181.342543 
L 540.114283 181.195165 
L 540.520214 180.780324 
L 541.12993 180.087101 
L 541.56298 179.939723 
L 541.668586 179.808721 
L 541.803647 179.677718 
L 542.024073 179.432088 
L 542.312726 179.022705 
L 542.448212 178.842576 
L 542.798788 178.531445 
L 543.158451 178.384067 
L 543.320331 178.214855 
L 543.568937 177.963766 
L 543.729001 177.734512 
L 544.345212 177.068581 
L 544.910738 176.773825 
L 545.923401 175.376464 
L 546.429649 175.152667 
L 547.719056 173.695263 
L 547.989046 173.515134 
L 548.601474 172.598116 
L 548.706685 172.450738 
L 548.937895 172.155982 
L 549.071675 171.954019 
L 549.493762 171.762974 
L 550.271432 170.638534 
L 550.407927 170.469322 
L 550.578042 170.240068 
L 550.731331 170.201858 
L 551.353624 169.918019 
L 551.572216 169.60143 
L 551.817648 169.361258 
L 552.152102 168.946416 
L 552.392263 168.831789 
L 552.79421 168.640743 
L 552.912593 168.526116 
L 553.035077 168.395113 
L 553.189399 168.225902 
L 553.440483 167.88202 
L 553.519747 167.723725 
L 553.833993 167.42351 
L 554.366418 167.232465 
L 554.584372 167.046878 
L 555.243153 166.277237 
L 555.357291 166.140776 
L 555.53756 166.047982 
L 555.911105 165.840561 
L 556.289821 165.365677 
L 556.460432 165.21284 
L 556.590806 164.918084 
L 556.952459 164.4432 
L 557.014135 164.415907 
L 557.45968 164.268529 
L 558.918229 162.914835 
L 559.187114 162.751082 
L 559.324363 162.565495 
L 560.484049 161.239093 
L 560.656824 161.097173 
L 561.837522 159.84719 
L 562.315512 159.596101 
L 562.473262 159.486932 
L 562.617741 159.339554 
L 562.848469 159.055715 
L 563.521251 158.204198 
L 563.864238 158.051361 
L 564.169661 157.603769 
L 565.082679 156.89963 
L 565.508333 156.714042 
L 566.567615 154.994633 
L 566.843504 154.819962 
L 566.977574 154.738086 
L 567.186312 154.568874 
L 567.327135 154.432413 
L 567.453763 154.263201 
L 567.635018 153.892027 
L 568.173519 153.067802 
L 568.665773 152.914965 
L 568.822562 152.773046 
L 569.012282 152.620209 
L 569.116651 152.532874 
L 569.360528 152.385496 
L 569.496298 152.314536 
L 569.681022 152.112574 
L 569.985304 151.970654 
L 570.325526 151.834193 
L 570.603292 151.572188 
L 571.063381 151.102762 
L 571.655515 150.917175 
L 572.396161 150.163909 
L 572.570088 149.972864 
L 572.676487 149.836403 
L 572.867811 149.628982 
L 573.635862 149.126805 
L 573.770509 148.957593 
L 574.021814 148.728338 
L 574.773793 148.166119 
L 575.111919 147.980532 
L 575.33039 147.751277 
L 575.428665 147.658483 
L 575.669922 147.505647 
L 575.783564 147.32006 
L 576.148634 146.943427 
L 576.602631 146.75784 
L 576.778268 146.594087 
L 576.931017 146.457626 
L 577.272647 146.277497 
L 577.3955 146.157411 
L 577.668988 145.999116 
L 577.77764 145.944532 
L 578.140417 145.835363 
L 579.131132 145.311352 
L 579.396092 145.147599 
L 579.789995 144.989304 
L 580.368215 144.438001 
L 580.478495 144.263331 
L 580.592957 144.094119 
L 580.741386 143.853948 
L 581.126165 143.641068 
L 581.442072 143.477315 
L 581.761116 143.089765 
L 581.867752 142.958763 
L 581.998827 142.811385 
L 582.118934 142.702216 
L 584.460813 141.17931 
L 584.743358 141.048307 
L 584.921097 140.879095 
L 585.086802 140.715342 
L 585.907753 140.131289 
L 586.278474 140.000286 
L 586.411347 139.841991 
L 586.621899 139.656404 
L 588.369662 138.259042 
L 588.481467 138.193541 
L 589.197316 137.625863 
L 589.694877 137.281981 
L 589.863895 137.047268 
L 590.216839 136.68701 
L 590.342259 136.566924 
L 591.054415 136.239418 
L 591.167636 136.026538 
L 591.428202 135.70449 
L 592.193261 134.978517 
L 592.627097 134.836598 
L 592.762348 134.667386 
L 592.941997 134.541842 
L 593.1902 134.290753 
L 593.354872 134.083332 
L 593.721689 133.652115 
L 594.241692 133.499279 
L 594.345084 133.373734 
L 594.629682 133.155397 
L 594.748305 132.958893 
L 595.243487 132.675054 
L 595.879044 132.467633 
L 596.227673 132.151043 
L 596.390992 132.003665 
L 596.617882 131.807161 
L 596.732833 131.687075 
L 596.937728 131.534239 
L 597.414236 131.326818 
L 597.543748 131.124855 
L 597.75851 130.857392 
L 598.086541 130.508051 
L 598.193562 130.338839 
L 598.991181 129.782078 
L 599.317754 129.574657 
L 599.453442 129.432738 
L 599.872123 129.001521 
L 599.991977 128.832309 
L 600.562922 128.603054 
L 600.879177 128.341049 
L 601.901807 127.478615 
L 602.356463 127.260277 
L 602.986429 126.747183 
L 603.805754 126.3378 
L 603.996222 126.157671 
L 604.310344 125.939333 
L 604.559704 125.677328 
L 604.726972 125.480824 
L 604.949616 125.322529 
L 605.430682 125.098733 
L 606.108503 124.427344 
L 606.223433 124.350926 
L 606.989324 124.05617 
L 608.095567 122.904438 
L 608.75834 122.462304 
L 609.074961 122.145714 
L 609.289111 121.911001 
L 609.404315 121.801832 
L 609.547033 121.67083 
L 609.633657 121.638079 
L 610.102824 121.479784 
L 610.505098 121.026733 
L 612.272287 119.771291 
L 612.392762 119.678498 
L 612.54119 119.520203 
L 612.954545 119.21453 
L 613.404498 119.028943 
L 613.498934 118.925232 
L 613.608191 118.79423 
L 613.867452 118.483098 
L 614.028485 118.319345 
L 614.269726 118.051881 
L 615.033388 117.506037 
L 615.208572 117.325908 
L 615.509035 117.00386 
L 615.637766 116.878316 
L 615.940351 116.605393 
L 616.007523 116.458015 
L 616.156578 116.414348 
L 616.554896 116.277887 
L 616.77526 116.048632 
L 616.92169 115.923088 
L 617.637821 115.235324 
L 618.127309 115.011528 
L 618.235907 114.885983 
L 618.780889 114.329222 
L 620.025351 113.444954 
L 620.138443 113.313952 
L 620.328785 113.013737 
L 620.487897 112.866359 
L 620.713203 112.779024 
L 621.14435 112.642563 
L 621.890116 112.014842 
L 622.006094 111.960257 
L 622.636364 111.6 
L 622.636364 111.6 
" style="fill:none;stroke:#92c6ff;stroke-linecap:round;stroke-width:1.5;"/>
   </g>
   <g id="line2d_24">
    <defs>
     <path d="M 0 2.5 
C 0.663008 2.5 1.29895 2.236584 1.767767 1.767767 
C 2.236584 1.29895 2.5 0.663008 2.5 0 
C 2.5 -0.663008 2.236584 -1.29895 1.767767 -1.767767 
C 1.29895 -2.236584 0.663008 -2.5 0 -2.5 
C -0.663008 -2.5 -1.29895 -2.236584 -1.767767 -1.767767 
C -2.236584 -1.29895 -2.5 -0.663008 -2.5 0 
C -2.5 0.663008 -2.236584 1.29895 -1.767767 1.767767 
C -1.29895 2.236584 -0.663008 2.5 0 2.5 
z
" id="mae217b90c0" style="stroke:#696969;"/>
    </defs>
    <g clip-path="url(#p42d3ebe0e1)">
     <use style="fill:#696969;stroke:#696969;" x="115.363636" xlink:href="#mae217b90c0" y="615.6"/>
    </g>
   </g>
   <g id="line2d_25">
    <g clip-path="url(#p42d3ebe0e1)">
     <use style="fill:#696969;stroke:#696969;" x="197.973016" xlink:href="#mae217b90c0" y="565.196725"/>
    </g>
   </g>
   <g id="line2d_26">
    <g clip-path="url(#p42d3ebe0e1)">
     <use style="fill:#696969;stroke:#696969;" x="241.209554" xlink:href="#mae217b90c0" y="514.79345"/>
    </g>
   </g>
   <g id="line2d_27">
    <g clip-path="url(#p42d3ebe0e1)">
     <use style="fill:#696969;stroke:#696969;" x="285.410417" xlink:href="#mae217b90c0" y="464.390175"/>
    </g>
   </g>
   <g id="line2d_28">
    <g clip-path="url(#p42d3ebe0e1)">
     <use style="fill:#696969;stroke:#696969;" x="319.95029" xlink:href="#mae217b90c0" y="413.9869"/>
    </g>
   </g>
   <g id="line2d_29">
    <g clip-path="url(#p42d3ebe0e1)">
     <use style="fill:#696969;stroke:#696969;" x="362.36974" xlink:href="#mae217b90c0" y="363.583625"/>
    </g>
   </g>
   <g id="line2d_30">
    <g clip-path="url(#p42d3ebe0e1)">
     <use style="fill:#696969;stroke:#696969;" x="401.844126" xlink:href="#mae217b90c0" y="313.185808"/>
    </g>
   </g>
   <g id="line2d_31">
    <g clip-path="url(#p42d3ebe0e1)">
     <use style="fill:#696969;stroke:#696969;" x="449.956979" xlink:href="#mae217b90c0" y="262.787991"/>
    </g>
   </g>
   <g id="line2d_32">
    <g clip-path="url(#p42d3ebe0e1)">
     <use style="fill:#696969;stroke:#696969;" x="507.407025" xlink:href="#mae217b90c0" y="212.390175"/>
    </g>
   </g>
   <g id="line2d_33">
    <g clip-path="url(#p42d3ebe0e1)">
     <use style="fill:#696969;stroke:#696969;" x="559.783808" xlink:href="#mae217b90c0" y="161.992358"/>
    </g>
   </g>
   <g id="line2d_34">
    <g clip-path="url(#p42d3ebe0e1)">
     <use style="fill:#696969;stroke:#696969;" x="622.636364" xlink:href="#mae217b90c0" y="111.6"/>
    </g>
   </g>
   <g id="patch_3">
    <path d="M 90 640.8 
L 90 86.4 
" style="fill:none;stroke:#cccccc;stroke-linecap:square;stroke-linejoin:miter;"/>
   </g>
   <g id="patch_4">
    <path d="M 648 640.8 
L 648 86.4 
" style="fill:none;stroke:#cccccc;stroke-linecap:square;stroke-linejoin:miter;"/>
   </g>
   <g id="patch_5">
    <path d="M 90 640.8 
L 648 640.8 
" style="fill:none;stroke:#cccccc;stroke-linecap:square;stroke-linejoin:miter;"/>
   </g>
   <g id="patch_6">
    <path d="M 90 86.4 
L 648 86.4 
" style="fill:none;stroke:#cccccc;stroke-linecap:square;stroke-linejoin:miter;"/>
   </g>
   <g id="text_12">
    <!-- 1 (2014-06-06) -->
    <defs>
     <path id="DejaVuSans-32"/>
     <path d="M 31 75.875 
Q 24.46875 64.65625 21.28125 53.65625 
Q 18.109375 42.671875 18.109375 31.390625 
Q 18.109375 20.125 21.3125 9.0625 
Q 24.515625 -2 31 -13.1875 
L 23.1875 -13.1875 
Q 15.875 -1.703125 12.234375 9.375 
Q 8.59375 20.453125 8.59375 31.390625 
Q 8.59375 42.28125 12.203125 53.3125 
Q 15.828125 64.359375 23.1875 75.875 
z
" id="DejaVuSans-40"/>
     <path d="M 4.890625 31.390625 
L 31.203125 31.390625 
L 31.203125 23.390625 
L 4.890625 23.390625 
z
" id="DejaVuSans-45"/>
     <path d="M 8.015625 75.875 
L 15.828125 75.875 
Q 23.140625 64.359375 26.78125 53.3125 
Q 30.421875 42.28125 30.421875 31.390625 
Q 30.421875 20.453125 26.78125 9.375 
Q 23.140625 -1.703125 15.828125 -13.1875 
L 8.015625 -13.1875 
Q 14.5 -2 17.703125 9.0625 
Q 20.90625 20.125 20.90625 31.390625 
Q 20.90625 42.671875 17.703125 53.65625 
Q 14.5 64.65625 8.015625 75.875 
z
" id="DejaVuSans-41"/>
    </defs>
    <g style="fill:#262626;" transform="translate(120.363636 623.198437)scale(0.1 -0.1)">
     <use xlink:href="#DejaVuSans-49"/>
     <use x="63.623047" xlink:href="#DejaVuSans-32"/>
     <use x="95.410156" xlink:href="#DejaVuSans-40"/>
     <use x="134.423828" xlink:href="#DejaVuSans-50"/>
     <use x="198.046875" xlink:href="#DejaVuSans-48"/>
     <use x="261.669922" xlink:href="#DejaVuSans-49"/>
     <use x="325.292969" xlink:href="#DejaVuSans-52"/>
     <use x="388.916016" xlink:href="#DejaVuSans-45"/>
     <use x="425" xlink:href="#DejaVuSans-48"/>
     <use x="488.623047" xlink:href="#DejaVuSans-54"/>
     <use x="552.246094" xlink:href="#DejaVuSans-45"/>
     <use x="588.330078" xlink:href="#DejaVuSans-48"/>
     <use x="651.953125" xlink:href="#DejaVuSans-54"/>
     <use x="715.576172" xlink:href="#DejaVuSans-41"/>
    </g>
   </g>
   <g id="text_13">
    <!-- 9235 (2015-06-04) -->
    <defs>
     <path d="M 40.578125 39.3125 
Q 47.65625 37.796875 51.625 33 
Q 55.609375 28.21875 55.609375 21.1875 
Q 55.609375 10.40625 48.1875 4.484375 
Q 40.765625 -1.421875 27.09375 -1.421875 
Q 22.515625 -1.421875 17.65625 -0.515625 
Q 12.796875 0.390625 7.625 2.203125 
L 7.625 11.71875 
Q 11.71875 9.328125 16.59375 8.109375 
Q 21.484375 6.890625 26.8125 6.890625 
Q 36.078125 6.890625 40.9375 10.546875 
Q 45.796875 14.203125 45.796875 21.1875 
Q 45.796875 27.640625 41.28125 31.265625 
Q 36.765625 34.90625 28.71875 34.90625 
L 20.21875 34.90625 
L 20.21875 43.015625 
L 29.109375 43.015625 
Q 36.375 43.015625 40.234375 45.921875 
Q 44.09375 48.828125 44.09375 54.296875 
Q 44.09375 59.90625 40.109375 62.90625 
Q 36.140625 65.921875 28.71875 65.921875 
Q 24.65625 65.921875 20.015625 65.03125 
Q 15.375 64.15625 9.8125 62.3125 
L 9.8125 71.09375 
Q 15.4375 72.65625 20.34375 73.4375 
Q 25.25 74.21875 29.59375 74.21875 
Q 40.828125 74.21875 47.359375 69.109375 
Q 53.90625 64.015625 53.90625 55.328125 
Q 53.90625 49.265625 50.4375 45.09375 
Q 46.96875 40.921875 40.578125 39.3125 
z
" id="DejaVuSans-51"/>
    </defs>
    <g style="fill:#262626;" transform="translate(202.973016 572.795162)scale(0.1 -0.1)">
     <use xlink:href="#DejaVuSans-57"/>
     <use x="63.623047" xlink:href="#DejaVuSans-50"/>
     <use x="127.246094" xlink:href="#DejaVuSans-51"/>
     <use x="190.869141" xlink:href="#DejaVuSans-53"/>
     <use x="254.492188" xlink:href="#DejaVuSans-32"/>
     <use x="286.279297" xlink:href="#DejaVuSans-40"/>
     <use x="325.292969" xlink:href="#DejaVuSans-50"/>
     <use x="388.916016" xlink:href="#DejaVuSans-48"/>
     <use x="452.539062" xlink:href="#DejaVuSans-49"/>
     <use x="516.162109" xlink:href="#DejaVuSans-53"/>
     <use x="579.785156" xlink:href="#DejaVuSans-45"/>
     <use x="615.869141" xlink:href="#DejaVuSans-48"/>
     <use x="679.492188" xlink:href="#DejaVuSans-54"/>
     <use x="743.115234" xlink:href="#DejaVuSans-45"/>
     <use x="779.199219" xlink:href="#DejaVuSans-48"/>
     <use x="842.822266" xlink:href="#DejaVuSans-52"/>
     <use x="906.445312" xlink:href="#DejaVuSans-41"/>
    </g>
   </g>
   <g id="text_14">
    <!-- 18469 (2015-12-11) -->
    <g style="fill:#262626;" transform="translate(246.209554 522.391887)scale(0.1 -0.1)">
     <use xlink:href="#DejaVuSans-49"/>
     <use x="63.623047" xlink:href="#DejaVuSans-56"/>
     <use x="127.246094" xlink:href="#DejaVuSans-52"/>
     <use x="190.869141" xlink:href="#DejaVuSans-54"/>
     <use x="254.492188" xlink:href="#DejaVuSans-57"/>
     <use x="318.115234" xlink:href="#DejaVuSans-32"/>
     <use x="349.902344" xlink:href="#DejaVuSans-40"/>
     <use x="388.916016" xlink:href="#DejaVuSans-50"/>
     <use x="452.539062" xlink:href="#DejaVuSans-48"/>
     <use x="516.162109" xlink:href="#DejaVuSans-49"/>
     <use x="579.785156" xlink:href="#DejaVuSans-53"/>
     <use x="643.408203" xlink:href="#DejaVuSans-45"/>
     <use x="679.492188" xlink:href="#DejaVuSans-49"/>
     <use x="743.115234" xlink:href="#DejaVuSans-50"/>
     <use x="806.738281" xlink:href="#DejaVuSans-45"/>
     <use x="842.822266" xlink:href="#DejaVuSans-49"/>
     <use x="906.445312" xlink:href="#DejaVuSans-49"/>
     <use x="970.068359" xlink:href="#DejaVuSans-41"/>
    </g>
   </g>
   <g id="text_15">
    <!-- 27703 (2016-06-22) -->
    <g style="fill:#262626;" transform="translate(290.410417 471.988612)scale(0.1 -0.1)">
     <use xlink:href="#DejaVuSans-50"/>
     <use x="63.623047" xlink:href="#DejaVuSans-55"/>
     <use x="127.246094" xlink:href="#DejaVuSans-55"/>
     <use x="190.869141" xlink:href="#DejaVuSans-48"/>
     <use x="254.492188" xlink:href="#DejaVuSans-51"/>
     <use x="318.115234" xlink:href="#DejaVuSans-32"/>
     <use x="349.902344" xlink:href="#DejaVuSans-40"/>
     <use x="388.916016" xlink:href="#DejaVuSans-50"/>
     <use x="452.539062" xlink:href="#DejaVuSans-48"/>
     <use x="516.162109" xlink:href="#DejaVuSans-49"/>
     <use x="579.785156" xlink:href="#DejaVuSans-54"/>
     <use x="643.408203" xlink:href="#DejaVuSans-45"/>
     <use x="679.492188" xlink:href="#DejaVuSans-48"/>
     <use x="743.115234" xlink:href="#DejaVuSans-54"/>
     <use x="806.738281" xlink:href="#DejaVuSans-45"/>
     <use x="842.822266" xlink:href="#DejaVuSans-50"/>
     <use x="906.445312" xlink:href="#DejaVuSans-50"/>
     <use x="970.068359" xlink:href="#DejaVuSans-41"/>
    </g>
   </g>
   <g id="text_16">
    <!-- 36937 (2016-11-21) -->
    <g style="fill:#262626;" transform="translate(324.95029 421.585337)scale(0.1 -0.1)">
     <use xlink:href="#DejaVuSans-51"/>
     <use x="63.623047" xlink:href="#DejaVuSans-54"/>
     <use x="127.246094" xlink:href="#DejaVuSans-57"/>
     <use x="190.869141" xlink:href="#DejaVuSans-51"/>
     <use x="254.492188" xlink:href="#DejaVuSans-55"/>
     <use x="318.115234" xlink:href="#DejaVuSans-32"/>
     <use x="349.902344" xlink:href="#DejaVuSans-40"/>
     <use x="388.916016" xlink:href="#DejaVuSans-50"/>
     <use x="452.539062" xlink:href="#DejaVuSans-48"/>
     <use x="516.162109" xlink:href="#DejaVuSans-49"/>
     <use x="579.785156" xlink:href="#DejaVuSans-54"/>
     <use x="643.408203" xlink:href="#DejaVuSans-45"/>
     <use x="679.492188" xlink:href="#DejaVuSans-49"/>
     <use x="743.115234" xlink:href="#DejaVuSans-49"/>
     <use x="806.738281" xlink:href="#DejaVuSans-45"/>
     <use x="842.822266" xlink:href="#DejaVuSans-50"/>
     <use x="906.445312" xlink:href="#DejaVuSans-49"/>
     <use x="970.068359" xlink:href="#DejaVuSans-41"/>
    </g>
   </g>
   <g id="text_17">
    <!-- 46171 (2017-05-26) -->
    <g style="fill:#262626;" transform="translate(367.36974 371.182062)scale(0.1 -0.1)">
     <use xlink:href="#DejaVuSans-52"/>
     <use x="63.623047" xlink:href="#DejaVuSans-54"/>
     <use x="127.246094" xlink:href="#DejaVuSans-49"/>
     <use x="190.869141" xlink:href="#DejaVuSans-55"/>
     <use x="254.492188" xlink:href="#DejaVuSans-49"/>
     <use x="318.115234" xlink:href="#DejaVuSans-32"/>
     <use x="349.902344" xlink:href="#DejaVuSans-40"/>
     <use x="388.916016" xlink:href="#DejaVuSans-50"/>
     <use x="452.539062" xlink:href="#DejaVuSans-48"/>
     <use x="516.162109" xlink:href="#DejaVuSans-49"/>
     <use x="579.785156" xlink:href="#DejaVuSans-55"/>
     <use x="643.408203" xlink:href="#DejaVuSans-45"/>
     <use x="679.492188" xlink:href="#DejaVuSans-48"/>
     <use x="743.115234" xlink:href="#DejaVuSans-53"/>
     <use x="806.738281" xlink:href="#DejaVuSans-45"/>
     <use x="842.822266" xlink:href="#DejaVuSans-50"/>
     <use x="906.445312" xlink:href="#DejaVuSans-54"/>
     <use x="970.068359" xlink:href="#DejaVuSans-41"/>
    </g>
   </g>
   <g id="text_18">
    <!-- 55404 (2017-11-15) -->
    <g style="fill:#262626;" transform="translate(406.844126 320.784246)scale(0.1 -0.1)">
     <use xlink:href="#DejaVuSans-53"/>
     <use x="63.623047" xlink:href="#DejaVuSans-53"/>
     <use x="127.246094" xlink:href="#DejaVuSans-52"/>
     <use x="190.869141" xlink:href="#DejaVuSans-48"/>
     <use x="254.492188" xlink:href="#DejaVuSans-52"/>
     <use x="318.115234" xlink:href="#DejaVuSans-32"/>
     <use x="349.902344" xlink:href="#DejaVuSans-40"/>
     <use x="388.916016" xlink:href="#DejaVuSans-50"/>
     <use x="452.539062" xlink:href="#DejaVuSans-48"/>
     <use x="516.162109" xlink:href="#DejaVuSans-49"/>
     <use x="579.785156" xlink:href="#DejaVuSans-55"/>
     <use x="643.408203" xlink:href="#DejaVuSans-45"/>
     <use x="679.492188" xlink:href="#DejaVuSans-49"/>
     <use x="743.115234" xlink:href="#DejaVuSans-49"/>
     <use x="806.738281" xlink:href="#DejaVuSans-45"/>
     <use x="842.822266" xlink:href="#DejaVuSans-49"/>
     <use x="906.445312" xlink:href="#DejaVuSans-53"/>
     <use x="970.068359" xlink:href="#DejaVuSans-41"/>
    </g>
   </g>
   <g id="text_19">
    <!-- 64637 (2018-06-15) -->
    <g style="fill:#262626;" transform="translate(454.956979 270.386429)scale(0.1 -0.1)">
     <use xlink:href="#DejaVuSans-54"/>
     <use x="63.623047" xlink:href="#DejaVuSans-52"/>
     <use x="127.246094" xlink:href="#DejaVuSans-54"/>
     <use x="190.869141" xlink:href="#DejaVuSans-51"/>
     <use x="254.492188" xlink:href="#DejaVuSans-55"/>
     <use x="318.115234" xlink:href="#DejaVuSans-32"/>
     <use x="349.902344" xlink:href="#DejaVuSans-40"/>
     <use x="388.916016" xlink:href="#DejaVuSans-50"/>
     <use x="452.539062" xlink:href="#DejaVuSans-48"/>
     <use x="516.162109" xlink:href="#DejaVuSans-49"/>
     <use x="579.785156" xlink:href="#DejaVuSans-56"/>
     <use x="643.408203" xlink:href="#DejaVuSans-45"/>
     <use x="679.492188" xlink:href="#DejaVuSans-48"/>
     <use x="743.115234" xlink:href="#DejaVuSans-54"/>
     <use x="806.738281" xlink:href="#DejaVuSans-45"/>
     <use x="842.822266" xlink:href="#DejaVuSans-49"/>
     <use x="906.445312" xlink:href="#DejaVuSans-53"/>
     <use x="970.068359" xlink:href="#DejaVuSans-41"/>
    </g>
   </g>
   <g id="text_20">
    <!-- 73870 (2019-02-22) -->
    <g style="fill:#262626;" transform="translate(512.407025 219.988612)scale(0.1 -0.1)">
     <use xlink:href="#DejaVuSans-55"/>
     <use x="63.623047" xlink:href="#DejaVuSans-51"/>
     <use x="127.246094" xlink:href="#DejaVuSans-56"/>
     <use x="190.869141" xlink:href="#DejaVuSans-55"/>
     <use x="254.492188" xlink:href="#DejaVuSans-48"/>
     <use x="318.115234" xlink:href="#DejaVuSans-32"/>
     <use x="349.902344" xlink:href="#DejaVuSans-40"/>
     <use x="388.916016" xlink:href="#DejaVuSans-50"/>
     <use x="452.539062" xlink:href="#DejaVuSans-48"/>
     <use x="516.162109" xlink:href="#DejaVuSans-49"/>
     <use x="579.785156" xlink:href="#DejaVuSans-57"/>
     <use x="643.408203" xlink:href="#DejaVuSans-45"/>
     <use x="679.492188" xlink:href="#DejaVuSans-48"/>
     <use x="743.115234" xlink:href="#DejaVuSans-50"/>
     <use x="806.738281" xlink:href="#DejaVuSans-45"/>
     <use x="842.822266" xlink:href="#DejaVuSans-50"/>
     <use x="906.445312" xlink:href="#DejaVuSans-50"/>
     <use x="970.068359" xlink:href="#DejaVuSans-41"/>
    </g>
   </g>
   <g id="text_21">
    <!-- 83103 (2019-10-10) -->
    <g style="fill:#262626;" transform="translate(564.783808 169.590796)scale(0.1 -0.1)">
     <use xlink:href="#DejaVuSans-56"/>
     <use x="63.623047" xlink:href="#DejaVuSans-51"/>
     <use x="127.246094" xlink:href="#DejaVuSans-49"/>
     <use x="190.869141" xlink:href="#DejaVuSans-48"/>
     <use x="254.492188" xlink:href="#DejaVuSans-51"/>
     <use x="318.115234" xlink:href="#DejaVuSans-32"/>
     <use x="349.902344" xlink:href="#DejaVuSans-40"/>
     <use x="388.916016" xlink:href="#DejaVuSans-50"/>
     <use x="452.539062" xlink:href="#DejaVuSans-48"/>
     <use x="516.162109" xlink:href="#DejaVuSans-49"/>
     <use x="579.785156" xlink:href="#DejaVuSans-57"/>
     <use x="643.408203" xlink:href="#DejaVuSans-45"/>
     <use x="679.492188" xlink:href="#DejaVuSans-49"/>
     <use x="743.115234" xlink:href="#DejaVuSans-48"/>
     <use x="806.738281" xlink:href="#DejaVuSans-45"/>
     <use x="842.822266" xlink:href="#DejaVuSans-49"/>
     <use x="906.445312" xlink:href="#DejaVuSans-48"/>
     <use x="970.068359" xlink:href="#DejaVuSans-41"/>
    </g>
   </g>
   <g id="text_22">
    <!-- 92335 (2020-07-12) -->
    <g style="fill:#262626;" transform="translate(627.636364 119.198437)scale(0.1 -0.1)">
     <use xlink:href="#DejaVuSans-57"/>
     <use x="63.623047" xlink:href="#DejaVuSans-50"/>
     <use x="127.246094" xlink:href="#DejaVuSans-51"/>
     <use x="190.869141" xlink:href="#DejaVuSans-51"/>
     <use x="254.492188" xlink:href="#DejaVuSans-53"/>
     <use x="318.115234" xlink:href="#DejaVuSans-32"/>
     <use x="349.902344" xlink:href="#DejaVuSans-40"/>
     <use x="388.916016" xlink:href="#DejaVuSans-50"/>
     <use x="452.539062" xlink:href="#DejaVuSans-48"/>
     <use x="516.162109" xlink:href="#DejaVuSans-50"/>
     <use x="579.785156" xlink:href="#DejaVuSans-48"/>
     <use x="643.408203" xlink:href="#DejaVuSans-45"/>
     <use x="679.492188" xlink:href="#DejaVuSans-48"/>
     <use x="743.115234" xlink:href="#DejaVuSans-55"/>
     <use x="806.738281" xlink:href="#DejaVuSans-45"/>
     <use x="842.822266" xlink:href="#DejaVuSans-49"/>
     <use x="906.445312" xlink:href="#DejaVuSans-50"/>
     <use x="970.068359" xlink:href="#DejaVuSans-41"/>
    </g>
   </g>
   <g id="text_23">
    <!-- Created issues and PRs over time -->
    <defs>
     <path d="M 64.40625 67.28125 
L 64.40625 56.890625 
Q 59.421875 61.53125 53.78125 63.8125 
Q 48.140625 66.109375 41.796875 66.109375 
Q 29.296875 66.109375 22.65625 58.46875 
Q 16.015625 50.828125 16.015625 36.375 
Q 16.015625 21.96875 22.65625 14.328125 
Q 29.296875 6.6875 41.796875 6.6875 
Q 48.140625 6.6875 53.78125 8.984375 
Q 59.421875 11.28125 64.40625 15.921875 
L 64.40625 5.609375 
Q 59.234375 2.09375 53.4375 0.328125 
Q 47.65625 -1.421875 41.21875 -1.421875 
Q 24.65625 -1.421875 15.125 8.703125 
Q 5.609375 18.84375 5.609375 36.375 
Q 5.609375 53.953125 15.125 64.078125 
Q 24.65625 74.21875 41.21875 74.21875 
Q 47.75 74.21875 53.53125 72.484375 
Q 59.328125 70.75 64.40625 67.28125 
z
" id="DejaVuSans-67"/>
     <path d="M 41.109375 46.296875 
Q 39.59375 47.171875 37.8125 47.578125 
Q 36.03125 48 33.890625 48 
Q 26.265625 48 22.1875 43.046875 
Q 18.109375 38.09375 18.109375 28.8125 
L 18.109375 0 
L 9.078125 0 
L 9.078125 54.6875 
L 18.109375 54.6875 
L 18.109375 46.1875 
Q 20.953125 51.171875 25.484375 53.578125 
Q 30.03125 56 36.53125 56 
Q 37.453125 56 38.578125 55.875 
Q 39.703125 55.765625 41.0625 55.515625 
z
" id="DejaVuSans-114"/>
     <path d="M 56.203125 29.59375 
L 56.203125 25.203125 
L 14.890625 25.203125 
Q 15.484375 15.921875 20.484375 11.0625 
Q 25.484375 6.203125 34.421875 6.203125 
Q 39.59375 6.203125 44.453125 7.46875 
Q 49.3125 8.734375 54.109375 11.28125 
L 54.109375 2.78125 
Q 49.265625 0.734375 44.1875 -0.34375 
Q 39.109375 -1.421875 33.890625 -1.421875 
Q 20.796875 -1.421875 13.15625 6.1875 
Q 5.515625 13.8125 5.515625 26.8125 
Q 5.515625 40.234375 12.765625 48.109375 
Q 20.015625 56 32.328125 56 
Q 43.359375 56 49.78125 48.890625 
Q 56.203125 41.796875 56.203125 29.59375 
z
M 47.21875 32.234375 
Q 47.125 39.59375 43.09375 43.984375 
Q 39.0625 48.390625 32.421875 48.390625 
Q 24.90625 48.390625 20.390625 44.140625 
Q 15.875 39.890625 15.1875 32.171875 
z
" id="DejaVuSans-101"/>
     <path d="M 34.28125 27.484375 
Q 23.390625 27.484375 19.1875 25 
Q 14.984375 22.515625 14.984375 16.5 
Q 14.984375 11.71875 18.140625 8.90625 
Q 21.296875 6.109375 26.703125 6.109375 
Q 34.1875 6.109375 38.703125 11.40625 
Q 43.21875 16.703125 43.21875 25.484375 
L 43.21875 27.484375 
z
M 52.203125 31.203125 
L 52.203125 0 
L 43.21875 0 
L 43.21875 8.296875 
Q 40.140625 3.328125 35.546875 0.953125 
Q 30.953125 -1.421875 24.3125 -1.421875 
Q 15.921875 -1.421875 10.953125 3.296875 
Q 6 8.015625 6 15.921875 
Q 6 25.140625 12.171875 29.828125 
Q 18.359375 34.515625 30.609375 34.515625 
L 43.21875 34.515625 
L 43.21875 35.40625 
Q 43.21875 41.609375 39.140625 45 
Q 35.0625 48.390625 27.6875 48.390625 
Q 23 48.390625 18.546875 47.265625 
Q 14.109375 46.140625 10.015625 43.890625 
L 10.015625 52.203125 
Q 14.9375 54.109375 19.578125 55.046875 
Q 24.21875 56 28.609375 56 
Q 40.484375 56 46.34375 49.84375 
Q 52.203125 43.703125 52.203125 31.203125 
z
" id="DejaVuSans-97"/>
     <path d="M 18.3125 70.21875 
L 18.3125 54.6875 
L 36.8125 54.6875 
L 36.8125 47.703125 
L 18.3125 47.703125 
L 18.3125 18.015625 
Q 18.3125 11.328125 20.140625 9.421875 
Q 21.96875 7.515625 27.59375 7.515625 
L 36.8125 7.515625 
L 36.8125 0 
L 27.59375 0 
Q 17.1875 0 13.234375 3.875 
Q 9.28125 7.765625 9.28125 18.015625 
L 9.28125 47.703125 
L 2.6875 47.703125 
L 2.6875 54.6875 
L 9.28125 54.6875 
L 9.28125 70.21875 
z
" id="DejaVuSans-116"/>
     <path d="M 45.40625 46.390625 
L 45.40625 75.984375 
L 54.390625 75.984375 
L 54.390625 0 
L 45.40625 0 
L 45.40625 8.203125 
Q 42.578125 3.328125 38.25 0.953125 
Q 33.9375 -1.421875 27.875 -1.421875 
Q 17.96875 -1.421875 11.734375 6.484375 
Q 5.515625 14.40625 5.515625 27.296875 
Q 5.515625 40.1875 11.734375 48.09375 
Q 17.96875 56 27.875 56 
Q 33.9375 56 38.25 53.625 
Q 42.578125 51.265625 45.40625 46.390625 
z
M 14.796875 27.296875 
Q 14.796875 17.390625 18.875 11.75 
Q 22.953125 6.109375 30.078125 6.109375 
Q 37.203125 6.109375 41.296875 11.75 
Q 45.40625 17.390625 45.40625 27.296875 
Q 45.40625 37.203125 41.296875 42.84375 
Q 37.203125 48.484375 30.078125 48.484375 
Q 22.953125 48.484375 18.875 42.84375 
Q 14.796875 37.203125 14.796875 27.296875 
z
" id="DejaVuSans-100"/>
     <path d="M 9.421875 54.6875 
L 18.40625 54.6875 
L 18.40625 0 
L 9.421875 0 
z
M 9.421875 75.984375 
L 18.40625 75.984375 
L 18.40625 64.59375 
L 9.421875 64.59375 
z
" id="DejaVuSans-105"/>
     <path d="M 44.28125 53.078125 
L 44.28125 44.578125 
Q 40.484375 46.53125 36.375 47.5 
Q 32.28125 48.484375 27.875 48.484375 
Q 21.1875 48.484375 17.84375 46.4375 
Q 14.5 44.390625 14.5 40.28125 
Q 14.5 37.15625 16.890625 35.375 
Q 19.28125 33.59375 26.515625 31.984375 
L 29.59375 31.296875 
Q 39.15625 29.25 43.1875 25.515625 
Q 47.21875 21.78125 47.21875 15.09375 
Q 47.21875 7.46875 41.1875 3.015625 
Q 35.15625 -1.421875 24.609375 -1.421875 
Q 20.21875 -1.421875 15.453125 -0.5625 
Q 10.6875 0.296875 5.421875 2 
L 5.421875 11.28125 
Q 10.40625 8.6875 15.234375 7.390625 
Q 20.0625 6.109375 24.8125 6.109375 
Q 31.15625 6.109375 34.5625 8.28125 
Q 37.984375 10.453125 37.984375 14.40625 
Q 37.984375 18.0625 35.515625 20.015625 
Q 33.0625 21.96875 24.703125 23.78125 
L 21.578125 24.515625 
Q 13.234375 26.265625 9.515625 29.90625 
Q 5.8125 33.546875 5.8125 39.890625 
Q 5.8125 47.609375 11.28125 51.796875 
Q 16.75 56 26.8125 56 
Q 31.78125 56 36.171875 55.265625 
Q 40.578125 54.546875 44.28125 53.078125 
z
" id="DejaVuSans-115"/>
     <path d="M 8.5 21.578125 
L 8.5 54.6875 
L 17.484375 54.6875 
L 17.484375 21.921875 
Q 17.484375 14.15625 20.5 10.265625 
Q 23.53125 6.390625 29.59375 6.390625 
Q 36.859375 6.390625 41.078125 11.03125 
Q 45.3125 15.671875 45.3125 23.6875 
L 45.3125 54.6875 
L 54.296875 54.6875 
L 54.296875 0 
L 45.3125 0 
L 45.3125 8.40625 
Q 42.046875 3.421875 37.71875 1 
Q 33.40625 -1.421875 27.6875 -1.421875 
Q 18.265625 -1.421875 13.375 4.4375 
Q 8.5 10.296875 8.5 21.578125 
z
M 31.109375 56 
z
" id="DejaVuSans-117"/>
     <path d="M 54.890625 33.015625 
L 54.890625 0 
L 45.90625 0 
L 45.90625 32.71875 
Q 45.90625 40.484375 42.875 44.328125 
Q 39.84375 48.1875 33.796875 48.1875 
Q 26.515625 48.1875 22.3125 43.546875 
Q 18.109375 38.921875 18.109375 30.90625 
L 18.109375 0 
L 9.078125 0 
L 9.078125 54.6875 
L 18.109375 54.6875 
L 18.109375 46.1875 
Q 21.34375 51.125 25.703125 53.5625 
Q 30.078125 56 35.796875 56 
Q 45.21875 56 50.046875 50.171875 
Q 54.890625 44.34375 54.890625 33.015625 
z
" id="DejaVuSans-110"/>
     <path d="M 19.671875 64.796875 
L 19.671875 37.40625 
L 32.078125 37.40625 
Q 38.96875 37.40625 42.71875 40.96875 
Q 46.484375 44.53125 46.484375 51.125 
Q 46.484375 57.671875 42.71875 61.234375 
Q 38.96875 64.796875 32.078125 64.796875 
z
M 9.8125 72.90625 
L 32.078125 72.90625 
Q 44.34375 72.90625 50.609375 67.359375 
Q 56.890625 61.8125 56.890625 51.125 
Q 56.890625 40.328125 50.609375 34.8125 
Q 44.34375 29.296875 32.078125 29.296875 
L 19.671875 29.296875 
L 19.671875 0 
L 9.8125 0 
z
" id="DejaVuSans-80"/>
     <path d="M 44.390625 34.1875 
Q 47.5625 33.109375 50.5625 29.59375 
Q 53.5625 26.078125 56.59375 19.921875 
L 66.609375 0 
L 56 0 
L 46.6875 18.703125 
Q 43.0625 26.03125 39.671875 28.421875 
Q 36.28125 30.8125 30.421875 30.8125 
L 19.671875 30.8125 
L 19.671875 0 
L 9.8125 0 
L 9.8125 72.90625 
L 32.078125 72.90625 
Q 44.578125 72.90625 50.734375 67.671875 
Q 56.890625 62.453125 56.890625 51.90625 
Q 56.890625 45.015625 53.6875 40.46875 
Q 50.484375 35.9375 44.390625 34.1875 
z
M 19.671875 64.796875 
L 19.671875 38.921875 
L 32.078125 38.921875 
Q 39.203125 38.921875 42.84375 42.21875 
Q 46.484375 45.515625 46.484375 51.90625 
Q 46.484375 58.296875 42.84375 61.546875 
Q 39.203125 64.796875 32.078125 64.796875 
z
" id="DejaVuSans-82"/>
     <path d="M 30.609375 48.390625 
Q 23.390625 48.390625 19.1875 42.75 
Q 14.984375 37.109375 14.984375 27.296875 
Q 14.984375 17.484375 19.15625 11.84375 
Q 23.34375 6.203125 30.609375 6.203125 
Q 37.796875 6.203125 41.984375 11.859375 
Q 46.1875 17.53125 46.1875 27.296875 
Q 46.1875 37.015625 41.984375 42.703125 
Q 37.796875 48.390625 30.609375 48.390625 
z
M 30.609375 56 
Q 42.328125 56 49.015625 48.375 
Q 55.71875 40.765625 55.71875 27.296875 
Q 55.71875 13.875 49.015625 6.21875 
Q 42.328125 -1.421875 30.609375 -1.421875 
Q 18.84375 -1.421875 12.171875 6.21875 
Q 5.515625 13.875 5.515625 27.296875 
Q 5.515625 40.765625 12.171875 48.375 
Q 18.84375 56 30.609375 56 
z
" id="DejaVuSans-111"/>
     <path d="M 2.984375 54.6875 
L 12.5 54.6875 
L 29.59375 8.796875 
L 46.6875 54.6875 
L 56.203125 54.6875 
L 35.6875 0 
L 23.484375 0 
z
" id="DejaVuSans-118"/>
     <path d="M 52 44.1875 
Q 55.375 50.25 60.0625 53.125 
Q 64.75 56 71.09375 56 
Q 79.640625 56 84.28125 50.015625 
Q 88.921875 44.046875 88.921875 33.015625 
L 88.921875 0 
L 79.890625 0 
L 79.890625 32.71875 
Q 79.890625 40.578125 77.09375 44.375 
Q 74.3125 48.1875 68.609375 48.1875 
Q 61.625 48.1875 57.5625 43.546875 
Q 53.515625 38.921875 53.515625 30.90625 
L 53.515625 0 
L 44.484375 0 
L 44.484375 32.71875 
Q 44.484375 40.625 41.703125 44.40625 
Q 38.921875 48.1875 33.109375 48.1875 
Q 26.21875 48.1875 22.15625 43.53125 
Q 18.109375 38.875 18.109375 30.90625 
L 18.109375 0 
L 9.078125 0 
L 9.078125 54.6875 
L 18.109375 54.6875 
L 18.109375 46.1875 
Q 21.1875 51.21875 25.484375 53.609375 
Q 29.78125 56 35.6875 56 
Q 41.65625 56 45.828125 52.96875 
Q 50 49.953125 52 44.1875 
z
" id="DejaVuSans-109"/>
    </defs>
    <g style="fill:#262626;" transform="translate(268.047188 80.4)scale(0.12 -0.12)">
     <use xlink:href="#DejaVuSans-67"/>
     <use x="69.824219" xlink:href="#DejaVuSans-114"/>
     <use x="108.6875" xlink:href="#DejaVuSans-101"/>
     <use x="170.210938" xlink:href="#DejaVuSans-97"/>
     <use x="231.490234" xlink:href="#DejaVuSans-116"/>
     <use x="270.699219" xlink:href="#DejaVuSans-101"/>
     <use x="332.222656" xlink:href="#DejaVuSans-100"/>
     <use x="395.699219" xlink:href="#DejaVuSans-32"/>
     <use x="427.486328" xlink:href="#DejaVuSans-105"/>
     <use x="455.269531" xlink:href="#DejaVuSans-115"/>
     <use x="507.369141" xlink:href="#DejaVuSans-115"/>
     <use x="559.46875" xlink:href="#DejaVuSans-117"/>
     <use x="622.847656" xlink:href="#DejaVuSans-101"/>
     <use x="684.371094" xlink:href="#DejaVuSans-115"/>
     <use x="736.470703" xlink:href="#DejaVuSans-32"/>
     <use x="768.257812" xlink:href="#DejaVuSans-97"/>
     <use x="829.537109" xlink:href="#DejaVuSans-110"/>
     <use x="892.916016" xlink:href="#DejaVuSans-100"/>
     <use x="956.392578" xlink:href="#DejaVuSans-32"/>
     <use x="988.179688" xlink:href="#DejaVuSans-80"/>
     <use x="1048.482422" xlink:href="#DejaVuSans-82"/>
     <use x="1117.964844" xlink:href="#DejaVuSans-115"/>
     <use x="1170.064453" xlink:href="#DejaVuSans-32"/>
     <use x="1201.851562" xlink:href="#DejaVuSans-111"/>
     <use x="1263.033203" xlink:href="#DejaVuSans-118"/>
     <use x="1322.212891" xlink:href="#DejaVuSans-101"/>
     <use x="1383.736328" xlink:href="#DejaVuSans-114"/>
     <use x="1424.849609" xlink:href="#DejaVuSans-32"/>
     <use x="1456.636719" xlink:href="#DejaVuSans-116"/>
     <use x="1495.845703" xlink:href="#DejaVuSans-105"/>
     <use x="1523.628906" xlink:href="#DejaVuSans-109"/>
     <use x="1621.041016" xlink:href="#DejaVuSans-101"/>
    </g>
   </g>
  </g>
 </g>
 <defs>
  <clipPath id="p42d3ebe0e1">
   <rect height="554.4" width="558" x="90" y="86.4"/>
  </clipPath>
 </defs>
</svg>
